{
    "header": {
        "PPQ": 480,
        "timeSignature": [
            2,
            4
        ],
        "bpm": 139.2899924783404,
        "name": "Appassionata"
    },
    "startTime": 0,
    "duration": 489.55419399998493,
    "tracks": [
        {
            "startTime": 0,
            "duration": 0,
            "length": 0,
            "notes": [],
            "controlChanges": {},
            "id": 0,
            "name": "Appassionata"
        },
        {
            "startTime": 0,
            "duration": 489.5541939999828,
            "length": 3742,
            "notes": [
                {
                    "name": "E4",
                    "midi": 64,
                    "time": 0,
                    "velocity": 0.7007874015748031,
                    "duration": 0.6398521416666667
                },
                {
                    "name": "C#5",
                    "midi": 73,
                    "time": 0,
                    "velocity": 0.8267716535433071,
                    "duration": 0.6398521416666667
                },
                {
                    "name": "E4",
                    "midi": 64,
                    "time": 0.646134,
                    "velocity": 0.6456692913385826,
                    "duration": 0.21358318333333337
                },
                {
                    "name": "C#5",
                    "midi": 73,
                    "time": 0.646134,
                    "velocity": 0.7637795275590551,
                    "duration": 0.21358318333333337
                },
                {
                    "name": "C#5",
                    "midi": 73,
                    "time": 0.8615120000000001,
                    "velocity": 0.8267716535433071,
                    "duration": 0.6398521416666667
                },
                {
                    "name": "E4",
                    "midi": 64,
                    "time": 0.8615120000000001,
                    "velocity": 0.7007874015748031,
                    "duration": 0.6398521416666667
                },
                {
                    "name": "E4",
                    "midi": 64,
                    "time": 1.507646,
                    "velocity": 0.6456692913385826,
                    "duration": 0.21358318333333326
                },
                {
                    "name": "C#5",
                    "midi": 73,
                    "time": 1.507646,
                    "velocity": 0.7716535433070866,
                    "duration": 0.21358318333333326
                },
                {
                    "name": "E4",
                    "midi": 64,
                    "time": 1.723024,
                    "velocity": 0.7007874015748031,
                    "duration": 0.3203747750000001
                },
                {
                    "name": "C#5",
                    "midi": 73,
                    "time": 1.723024,
                    "velocity": 0.8267716535433071,
                    "duration": 0.3203747750000001
                },
                {
                    "name": "C#5",
                    "midi": 73,
                    "time": 2.046091,
                    "velocity": 0.7637795275590551,
                    "duration": 0.10679159166666663
                },
                {
                    "name": "E4",
                    "midi": 64,
                    "time": 2.046091,
                    "velocity": 0.6456692913385826,
                    "duration": 0.10679159166666663
                },
                {
                    "name": "E4",
                    "midi": 64,
                    "time": 2.1537800000000002,
                    "velocity": 0.7007874015748031,
                    "duration": 0.3203747749999999
                },
                {
                    "name": "C#5",
                    "midi": 73,
                    "time": 2.1537800000000002,
                    "velocity": 0.8267716535433071,
                    "duration": 0.3203747749999999
                },
                {
                    "name": "E4",
                    "midi": 64,
                    "time": 2.4768470000000002,
                    "velocity": 0.6377952755905512,
                    "duration": 0.10679159166666663
                },
                {
                    "name": "C#5",
                    "midi": 73,
                    "time": 2.4768470000000002,
                    "velocity": 0.7559055118110236,
                    "duration": 0.10679159166666663
                },
                {
                    "name": "C#5",
                    "midi": 73,
                    "time": 2.5845360000000004,
                    "velocity": 0.8267716535433071,
                    "duration": 0.3203747749999999
                },
                {
                    "name": "E4",
                    "midi": 64,
                    "time": 2.5845360000000004,
                    "velocity": 0.7007874015748031,
                    "duration": 0.3203747749999999
                },
                {
                    "name": "E4",
                    "midi": 64,
                    "time": 2.9076030000000004,
                    "velocity": 0.6456692913385826,
                    "duration": 0.10679159166666663
                },
                {
                    "name": "C#5",
                    "midi": 73,
                    "time": 2.9076030000000004,
                    "velocity": 0.7637795275590551,
                    "duration": 0.10679159166666663
                },
                {
                    "name": "C#5",
                    "midi": 73,
                    "time": 3.0152920000000005,
                    "velocity": 0.8267716535433071,
                    "duration": 0.3203747749999999
                },
                {
                    "name": "E4",
                    "midi": 64,
                    "time": 3.0152920000000005,
                    "velocity": 0.7007874015748031,
                    "duration": 0.3203747749999999
                },
                {
                    "name": "E4",
                    "midi": 64,
                    "time": 3.3383590000000005,
                    "velocity": 0.6456692913385826,
                    "duration": 0.10679159166666663
                },
                {
                    "name": "C#5",
                    "midi": 73,
                    "time": 3.3383590000000005,
                    "velocity": 0.7637795275590551,
                    "duration": 0.10679159166666663
                },
                {
                    "name": "E4",
                    "midi": 64,
                    "time": 3.4460480000000007,
                    "velocity": 0.7007874015748031,
                    "duration": 0.43075600000000014
                },
                {
                    "name": "C#5",
                    "midi": 73,
                    "time": 3.4460480000000007,
                    "velocity": 0.8267716535433071,
                    "duration": 0.43075600000000014
                },
                {
                    "name": "C#6",
                    "midi": 85,
                    "time": 4.092182000000001,
                    "velocity": 0.3937007874015748,
                    "duration": 0.1076889999999997
                },
                {
                    "name": "C6",
                    "midi": 84,
                    "time": 4.199871000000001,
                    "velocity": 0.3937007874015748,
                    "duration": 0.1076889999999997
                },
                {
                    "name": "A#5",
                    "midi": 82,
                    "time": 4.3075600000000005,
                    "velocity": 0.4251968503937008,
                    "duration": 0.1076889999999997
                },
                {
                    "name": "C6",
                    "midi": 84,
                    "time": 4.415249,
                    "velocity": 0.3937007874015748,
                    "duration": 0.1076889999999997
                },
                {
                    "name": "A#5",
                    "midi": 82,
                    "time": 4.522938,
                    "velocity": 0.3937007874015748,
                    "duration": 0.1076889999999997
                },
                {
                    "name": "G#5",
                    "midi": 80,
                    "time": 4.630627,
                    "velocity": 0.3937007874015748,
                    "duration": 0.1076889999999997
                },
                {
                    "name": "G5",
                    "midi": 79,
                    "time": 4.738315999999999,
                    "velocity": 0.4251968503937008,
                    "duration": 0.1076889999999997
                },
                {
                    "name": "G#5",
                    "midi": 80,
                    "time": 4.846004999999999,
                    "velocity": 0.3937007874015748,
                    "duration": 0.1076889999999997
                },
                {
                    "name": "G5",
                    "midi": 79,
                    "time": 4.953693999999999,
                    "velocity": 0.3937007874015748,
                    "duration": 0.1076889999999997
                },
                {
                    "name": "F5",
                    "midi": 77,
                    "time": 5.061382999999998,
                    "velocity": 0.3937007874015748,
                    "duration": 0.1076889999999997
                },
                {
                    "name": "E5",
                    "midi": 76,
                    "time": 5.169071999999998,
                    "velocity": 0.4251968503937008,
                    "duration": 0.4307559999999997
                },
                {
                    "name": "C#5",
                    "midi": 73,
                    "time": 5.815205999999998,
                    "velocity": 0.3937007874015748,
                    "duration": 0.1076889999999997
                },
                {
                    "name": "C5",
                    "midi": 72,
                    "time": 5.922894999999998,
                    "velocity": 0.3937007874015748,
                    "duration": 0.1076889999999997
                },
                {
                    "name": "A#4",
                    "midi": 70,
                    "time": 6.0305839999999975,
                    "velocity": 0.41732283464566927,
                    "duration": 0.1076889999999997
                },
                {
                    "name": "C5",
                    "midi": 72,
                    "time": 6.138272999999997,
                    "velocity": 0.3937007874015748,
                    "duration": 0.1076889999999997
                },
                {
                    "name": "A#4",
                    "midi": 70,
                    "time": 6.245961999999997,
                    "velocity": 0.3937007874015748,
                    "duration": 0.1076889999999997
                },
                {
                    "name": "G#4",
                    "midi": 68,
                    "time": 6.353650999999997,
                    "velocity": 0.3937007874015748,
                    "duration": 0.1076889999999997
                },
                {
                    "name": "G4",
                    "midi": 67,
                    "time": 6.461339999999996,
                    "velocity": 0.41732283464566927,
                    "duration": 0.1076889999999997
                },
                {
                    "name": "G#4",
                    "midi": 68,
                    "time": 6.569028999999996,
                    "velocity": 0.3937007874015748,
                    "duration": 0.1076889999999997
                },
                {
                    "name": "G4",
                    "midi": 67,
                    "time": 6.676717999999996,
                    "velocity": 0.3937007874015748,
                    "duration": 0.1076889999999997
                },
                {
                    "name": "F4",
                    "midi": 65,
                    "time": 6.784406999999995,
                    "velocity": 0.3937007874015748,
                    "duration": 0.1076889999999997
                },
                {
                    "name": "E4",
                    "midi": 64,
                    "time": 6.892095999999995,
                    "velocity": 0.4094488188976378,
                    "duration": 0.4307559999999997
                },
                {
                    "name": "C#5",
                    "midi": 73,
                    "time": 7.538229999999995,
                    "velocity": 0.3937007874015748,
                    "duration": 0.1076889999999997
                },
                {
                    "name": "C5",
                    "midi": 72,
                    "time": 7.645918999999995,
                    "velocity": 0.3937007874015748,
                    "duration": 0.1076889999999997
                },
                {
                    "name": "A#4",
                    "midi": 70,
                    "time": 7.7536079999999945,
                    "velocity": 0.4015748031496063,
                    "duration": 0.1076889999999997
                },
                {
                    "name": "C5",
                    "midi": 72,
                    "time": 7.861296999999994,
                    "velocity": 0.4015748031496063,
                    "duration": 0.1076889999999997
                },
                {
                    "name": "A#4",
                    "midi": 70,
                    "time": 7.968985999999994,
                    "velocity": 0.4094488188976378,
                    "duration": 0.10768900000000059
                },
                {
                    "name": "G#4",
                    "midi": 68,
                    "time": 8.076674999999994,
                    "velocity": 0.4094488188976378,
                    "duration": 0.10768900000000059
                },
                {
                    "name": "G4",
                    "midi": 67,
                    "time": 8.184363999999995,
                    "velocity": 0.41732283464566927,
                    "duration": 0.10768900000000059
                },
                {
                    "name": "G#4",
                    "midi": 68,
                    "time": 8.292052999999996,
                    "velocity": 0.4251968503937008,
                    "duration": 0.10768900000000059
                },
                {
                    "name": "G4",
                    "midi": 67,
                    "time": 8.399741999999996,
                    "velocity": 0.4251968503937008,
                    "duration": 0.10768900000000059
                },
                {
                    "name": "F4",
                    "midi": 65,
                    "time": 8.507430999999997,
                    "velocity": 0.4330708661417323,
                    "duration": 0.10768900000000059
                },
                {
                    "name": "E4",
                    "midi": 64,
                    "time": 8.615119999999997,
                    "velocity": 0.4330708661417323,
                    "duration": 0.10768900000000059
                },
                {
                    "name": "F4",
                    "midi": 65,
                    "time": 8.722808999999998,
                    "velocity": 0.4409448818897638,
                    "duration": 0.10768900000000059
                },
                {
                    "name": "E4",
                    "midi": 64,
                    "time": 8.830497999999999,
                    "velocity": 0.44881889763779526,
                    "duration": 0.10768900000000059
                },
                {
                    "name": "C#4",
                    "midi": 61,
                    "time": 8.938187,
                    "velocity": 0.44881889763779526,
                    "duration": 0.10768900000000059
                },
                {
                    "name": "C4",
                    "midi": 60,
                    "time": 9.045876,
                    "velocity": 0.4566929133858268,
                    "duration": 0.10768900000000059
                },
                {
                    "name": "C#4",
                    "midi": 61,
                    "time": 9.153565,
                    "velocity": 0.48031496062992124,
                    "duration": 0.10768900000000059
                },
                {
                    "name": "C4",
                    "midi": 60,
                    "time": 9.261254000000001,
                    "velocity": 0.4881889763779528,
                    "duration": 0.10768900000000059
                },
                {
                    "name": "B3",
                    "midi": 59,
                    "time": 9.368943000000002,
                    "velocity": 0.49606299212598426,
                    "duration": 0.10768900000000059
                },
                {
                    "name": "A#3",
                    "midi": 58,
                    "time": 9.476632000000002,
                    "velocity": 0.5039370078740157,
                    "duration": 0.10768900000000059
                },
                {
                    "name": "C4",
                    "midi": 60,
                    "time": 9.584321000000003,
                    "velocity": 0.5118110236220472,
                    "duration": 0.10768900000000059
                },
                {
                    "name": "A#3",
                    "midi": 58,
                    "time": 9.692010000000003,
                    "velocity": 0.5196850393700787,
                    "duration": 0.10768900000000059
                },
                {
                    "name": "G#3",
                    "midi": 56,
                    "time": 9.799699000000004,
                    "velocity": 0.5275590551181102,
                    "duration": 0.10768900000000059
                },
                {
                    "name": "G3",
                    "midi": 55,
                    "time": 9.907388000000005,
                    "velocity": 0.5354330708661418,
                    "duration": 0.10768900000000059
                },
                {
                    "name": "G#3",
                    "midi": 56,
                    "time": 10.015077000000005,
                    "velocity": 0.5433070866141733,
                    "duration": 0.10768900000000059
                },
                {
                    "name": "G3",
                    "midi": 55,
                    "time": 10.122766000000006,
                    "velocity": 0.5511811023622047,
                    "duration": 0.10768900000000059
                },
                {
                    "name": "F3",
                    "midi": 53,
                    "time": 10.230455000000006,
                    "velocity": 0.5590551181102362,
                    "duration": 0.10768900000000059
                },
                {
                    "name": "E3",
                    "midi": 52,
                    "time": 10.338144000000007,
                    "velocity": 0.5748031496062992,
                    "duration": 0.10768900000000059
                },
                {
                    "name": "F3",
                    "midi": 53,
                    "time": 10.445833000000007,
                    "velocity": 0.5590551181102362,
                    "duration": 0.10768900000000059
                },
                {
                    "name": "E3",
                    "midi": 52,
                    "time": 10.553522000000008,
                    "velocity": 0.5669291338582677,
                    "duration": 0.10768900000000059
                },
                {
                    "name": "C#3",
                    "midi": 49,
                    "time": 10.661211000000009,
                    "velocity": 0.5590551181102362,
                    "duration": 0.10768900000000059
                },
                {
                    "name": "C3",
                    "midi": 48,
                    "time": 10.76890000000001,
                    "velocity": 0.5905511811023622,
                    "duration": 0.11666308333333397
                },
                {
                    "name": "C#3",
                    "midi": 49,
                    "time": 10.87658900000001,
                    "velocity": 0.5905511811023622,
                    "duration": 0.11666308333333397
                },
                {
                    "name": "C3",
                    "midi": 48,
                    "time": 10.98427800000001,
                    "velocity": 0.5905511811023622,
                    "duration": 0.11666308333333397
                },
                {
                    "name": "B2",
                    "midi": 47,
                    "time": 11.091967000000011,
                    "velocity": 0.5905511811023622,
                    "duration": 0.11666308333333397
                },
                {
                    "name": "C3",
                    "midi": 48,
                    "time": 11.199656000000012,
                    "velocity": 0.5905511811023622,
                    "duration": 0.11666308333333397
                },
                {
                    "name": "C#3",
                    "midi": 49,
                    "time": 11.307345000000012,
                    "velocity": 0.5905511811023622,
                    "duration": 0.11666308333333397
                },
                {
                    "name": "C3",
                    "midi": 48,
                    "time": 11.415034000000013,
                    "velocity": 0.5905511811023622,
                    "duration": 0.11666308333333397
                },
                {
                    "name": "B2",
                    "midi": 47,
                    "time": 11.522723000000013,
                    "velocity": 0.5905511811023622,
                    "duration": 0.11666308333333397
                },
                {
                    "name": "C3",
                    "midi": 48,
                    "time": 11.630412000000014,
                    "velocity": 0.5905511811023622,
                    "duration": 0.11666308333333397
                },
                {
                    "name": "C#3",
                    "midi": 49,
                    "time": 11.738101000000015,
                    "velocity": 0.5905511811023622,
                    "duration": 0.11666308333333397
                },
                {
                    "name": "C3",
                    "midi": 48,
                    "time": 11.845790000000015,
                    "velocity": 0.5905511811023622,
                    "duration": 0.11666308333333397
                },
                {
                    "name": "B2",
                    "midi": 47,
                    "time": 11.953479000000016,
                    "velocity": 0.5905511811023622,
                    "duration": 0.11666308333333397
                },
                {
                    "name": "C3",
                    "midi": 48,
                    "time": 12.061168000000016,
                    "velocity": 0.5905511811023622,
                    "duration": 0.11666308333333397
                },
                {
                    "name": "C#3",
                    "midi": 49,
                    "time": 12.168857000000017,
                    "velocity": 0.5905511811023622,
                    "duration": 0.11666308333333397
                },
                {
                    "name": "C3",
                    "midi": 48,
                    "time": 12.276546000000018,
                    "velocity": 0.5905511811023622,
                    "duration": 0.11666308333333397
                },
                {
                    "name": "B2",
                    "midi": 47,
                    "time": 12.384235000000018,
                    "velocity": 0.5905511811023622,
                    "duration": 0.11666308333333397
                },
                {
                    "name": "C3",
                    "midi": 48,
                    "time": 12.491924000000019,
                    "velocity": 0.5905511811023622,
                    "duration": 0.11666308333333397
                },
                {
                    "name": "C#3",
                    "midi": 49,
                    "time": 12.59961300000002,
                    "velocity": 0.5905511811023622,
                    "duration": 0.11666308333333397
                },
                {
                    "name": "C3",
                    "midi": 48,
                    "time": 12.70730200000002,
                    "velocity": 0.5905511811023622,
                    "duration": 0.11666308333333397
                },
                {
                    "name": "B2",
                    "midi": 47,
                    "time": 12.81499100000002,
                    "velocity": 0.5905511811023622,
                    "duration": 0.11666308333333397
                },
                {
                    "name": "A#2",
                    "midi": 46,
                    "time": 12.922680000000021,
                    "velocity": 0.5826771653543307,
                    "duration": 0.11666308333333397
                },
                {
                    "name": "C3",
                    "midi": 48,
                    "time": 13.030369000000022,
                    "velocity": 0.5826771653543307,
                    "duration": 0.11666308333333397
                },
                {
                    "name": "A#2",
                    "midi": 46,
                    "time": 13.138058000000022,
                    "velocity": 0.5826771653543307,
                    "duration": 0.11666308333333397
                },
                {
                    "name": "A2",
                    "midi": 45,
                    "time": 13.245747000000023,
                    "velocity": 0.5826771653543307,
                    "duration": 0.11666308333333397
                },
                {
                    "name": "A#2",
                    "midi": 46,
                    "time": 13.353436000000023,
                    "velocity": 0.5826771653543307,
                    "duration": 0.11666308333333397
                },
                {
                    "name": "C3",
                    "midi": 48,
                    "time": 13.461125000000024,
                    "velocity": 0.5826771653543307,
                    "duration": 0.11666308333333397
                },
                {
                    "name": "A#2",
                    "midi": 46,
                    "time": 13.568814000000025,
                    "velocity": 0.5826771653543307,
                    "duration": 0.11666308333333397
                },
                {
                    "name": "A2",
                    "midi": 45,
                    "time": 13.676503000000025,
                    "velocity": 0.5826771653543307,
                    "duration": 0.11666308333333397
                },
                {
                    "name": "A#2",
                    "midi": 46,
                    "time": 13.784192000000026,
                    "velocity": 0.5826771653543307,
                    "duration": 0.11666308333333397
                },
                {
                    "name": "C3",
                    "midi": 48,
                    "time": 13.891881000000026,
                    "velocity": 0.5826771653543307,
                    "duration": 0.11666308333333397
                },
                {
                    "name": "A#2",
                    "midi": 46,
                    "time": 13.999570000000027,
                    "velocity": 0.5826771653543307,
                    "duration": 0.11666308333333397
                },
                {
                    "name": "A2",
                    "midi": 45,
                    "time": 14.107259000000028,
                    "velocity": 0.5826771653543307,
                    "duration": 0.11666308333333397
                },
                {
                    "name": "A#2",
                    "midi": 46,
                    "time": 14.214948000000028,
                    "velocity": 0.5748031496062992,
                    "duration": 0.11666308333333397
                },
                {
                    "name": "C3",
                    "midi": 48,
                    "time": 14.322637000000029,
                    "velocity": 0.5748031496062992,
                    "duration": 0.11666308333333397
                },
                {
                    "name": "A#2",
                    "midi": 46,
                    "time": 14.43032600000003,
                    "velocity": 0.5748031496062992,
                    "duration": 0.11666308333333397
                },
                {
                    "name": "A2",
                    "midi": 45,
                    "time": 14.53801500000003,
                    "velocity": 0.5748031496062992,
                    "duration": 0.11666308333333397
                },
                {
                    "name": "A#2",
                    "midi": 46,
                    "time": 14.64570400000003,
                    "velocity": 0.5826771653543307,
                    "duration": 0.11666308333333397
                },
                {
                    "name": "C3",
                    "midi": 48,
                    "time": 14.753393000000031,
                    "velocity": 0.5669291338582677,
                    "duration": 0.11666308333333397
                },
                {
                    "name": "A#2",
                    "midi": 46,
                    "time": 14.861082000000032,
                    "velocity": 0.5511811023622047,
                    "duration": 0.11666308333333397
                },
                {
                    "name": "A2",
                    "midi": 45,
                    "time": 14.968771000000032,
                    "velocity": 0.5354330708661418,
                    "duration": 0.11666308333333397
                },
                {
                    "name": "A#2",
                    "midi": 46,
                    "time": 15.076460000000033,
                    "velocity": 0.5275590551181102,
                    "duration": 0.11666308333333397
                },
                {
                    "name": "C3",
                    "midi": 48,
                    "time": 15.184149000000033,
                    "velocity": 0.5118110236220472,
                    "duration": 0.11666308333333397
                },
                {
                    "name": "A#2",
                    "midi": 46,
                    "time": 15.291838000000034,
                    "velocity": 0.49606299212598426,
                    "duration": 0.11666308333333397
                },
                {
                    "name": "A2",
                    "midi": 45,
                    "time": 15.399527000000035,
                    "velocity": 0.48031496062992124,
                    "duration": 0.11666308333333397
                },
                {
                    "name": "A#2",
                    "midi": 46,
                    "time": 15.507216000000035,
                    "velocity": 0.47244094488188976,
                    "duration": 0.11666308333333397
                },
                {
                    "name": "G2",
                    "midi": 43,
                    "time": 15.614905000000036,
                    "velocity": 0.4566929133858268,
                    "duration": 0.11666308333333397
                },
                {
                    "name": "G#2",
                    "midi": 44,
                    "time": 15.722594000000036,
                    "velocity": 0.4409448818897638,
                    "duration": 0.11666308333333397
                },
                {
                    "name": "A#2",
                    "midi": 46,
                    "time": 15.830283000000037,
                    "velocity": 0.4251968503937008,
                    "duration": 0.11666308333333397
                },
                {
                    "name": "C3",
                    "midi": 48,
                    "time": 15.937972000000038,
                    "velocity": 0.41732283464566927,
                    "duration": 0.1166630833333322
                },
                {
                    "name": "A#2",
                    "midi": 46,
                    "time": 16.045661000000038,
                    "velocity": 0.4015748031496063,
                    "duration": 0.11666308333332864
                },
                {
                    "name": "G#2",
                    "midi": 44,
                    "time": 16.153350000000035,
                    "velocity": 0.3858267716535433,
                    "duration": 0.11666308333332864
                },
                {
                    "name": "G2",
                    "midi": 43,
                    "time": 16.261039000000032,
                    "velocity": 0.3700787401574803,
                    "duration": 0.1166630833333322
                },
                {
                    "name": "C3",
                    "midi": 48,
                    "time": 16.47641700000003,
                    "velocity": 0.31496062992125984,
                    "duration": 0.10768900000000059
                },
                {
                    "name": "F3",
                    "midi": 53,
                    "time": 16.58410600000003,
                    "velocity": 0.29133858267716534,
                    "duration": 0.10768900000000059
                },
                {
                    "name": "G#3",
                    "midi": 56,
                    "time": 16.69179500000003,
                    "velocity": 0.29133858267716534,
                    "duration": 0.10768900000000059
                },
                {
                    "name": "C4",
                    "midi": 60,
                    "time": 16.79948400000003,
                    "velocity": 0.31496062992125984,
                    "duration": 0.10768900000000059
                },
                {
                    "name": "C#4",
                    "midi": 61,
                    "time": 16.907173000000032,
                    "velocity": 0.2992125984251969,
                    "duration": 0.10768900000000059
                },
                {
                    "name": "C4",
                    "midi": 60,
                    "time": 17.014862000000033,
                    "velocity": 0.2992125984251969,
                    "duration": 0.10768900000000059
                },
                {
                    "name": "A#3",
                    "midi": 58,
                    "time": 17.122551000000033,
                    "velocity": 0.2992125984251969,
                    "duration": 0.10768900000000059
                },
                {
                    "name": "G#3",
                    "midi": 56,
                    "time": 17.230240000000034,
                    "velocity": 0.31496062992125984,
                    "duration": 0.10768900000000059
                },
                {
                    "name": "A#3",
                    "midi": 58,
                    "time": 17.337929000000035,
                    "velocity": 0.29133858267716534,
                    "duration": 0.10768900000000059
                },
                {
                    "name": "G#3",
                    "midi": 56,
                    "time": 17.445618000000035,
                    "velocity": 0.29133858267716534,
                    "duration": 0.10768900000000059
                },
                {
                    "name": "G3",
                    "midi": 55,
                    "time": 17.553307000000036,
                    "velocity": 0.29133858267716534,
                    "duration": 0.10768900000000059
                },
                {
                    "name": "F3",
                    "midi": 53,
                    "time": 17.660996000000036,
                    "velocity": 0.31496062992125984,
                    "duration": 0.10768900000000059
                },
                {
                    "name": "G3",
                    "midi": 55,
                    "time": 17.768685000000037,
                    "velocity": 0.29133858267716534,
                    "duration": 0.10768900000000059
                },
                {
                    "name": "G#3",
                    "midi": 56,
                    "time": 17.876374000000038,
                    "velocity": 0.29133858267716534,
                    "duration": 0.10768900000000059
                },
                {
                    "name": "F3",
                    "midi": 53,
                    "time": 17.984063000000038,
                    "velocity": 0.29133858267716534,
                    "duration": 0.10768900000000059
                },
                {
                    "name": "C3",
                    "midi": 48,
                    "time": 18.19944100000004,
                    "velocity": 0.31496062992125984,
                    "duration": 0.10768900000000059
                },
                {
                    "name": "F3",
                    "midi": 53,
                    "time": 18.30713000000004,
                    "velocity": 0.29133858267716534,
                    "duration": 0.10768900000000059
                },
                {
                    "name": "G#3",
                    "midi": 56,
                    "time": 18.41481900000004,
                    "velocity": 0.29133858267716534,
                    "duration": 0.10768900000000059
                },
                {
                    "name": "C4",
                    "midi": 60,
                    "time": 18.52250800000004,
                    "velocity": 0.31496062992125984,
                    "duration": 0.10768900000000059
                },
                {
                    "name": "C#4",
                    "midi": 61,
                    "time": 18.63019700000004,
                    "velocity": 0.2992125984251969,
                    "duration": 0.10768900000000059
                },
                {
                    "name": "C4",
                    "midi": 60,
                    "time": 18.737886000000042,
                    "velocity": 0.2992125984251969,
                    "duration": 0.10768900000000059
                },
                {
                    "name": "A#3",
                    "midi": 58,
                    "time": 18.845575000000043,
                    "velocity": 0.2992125984251969,
                    "duration": 0.10768900000000059
                },
                {
                    "name": "G#3",
                    "midi": 56,
                    "time": 18.953264000000043,
                    "velocity": 0.31496062992125984,
                    "duration": 0.10768900000000059
                },
                {
                    "name": "A#3",
                    "midi": 58,
                    "time": 19.060953000000044,
                    "velocity": 0.29133858267716534,
                    "duration": 0.10768900000000059
                },
                {
                    "name": "G#3",
                    "midi": 56,
                    "time": 19.168642000000045,
                    "velocity": 0.29133858267716534,
                    "duration": 0.10768900000000059
                },
                {
                    "name": "G3",
                    "midi": 55,
                    "time": 19.276331000000045,
                    "velocity": 0.29133858267716534,
                    "duration": 0.10768900000000059
                },
                {
                    "name": "F3",
                    "midi": 53,
                    "time": 19.384020000000046,
                    "velocity": 0.31496062992125984,
                    "duration": 0.10768900000000059
                },
                {
                    "name": "G3",
                    "midi": 55,
                    "time": 19.491709000000046,
                    "velocity": 0.29133858267716534,
                    "duration": 0.10768900000000059
                },
                {
                    "name": "G#3",
                    "midi": 56,
                    "time": 19.599398000000047,
                    "velocity": 0.29133858267716534,
                    "duration": 0.10768900000000059
                },
                {
                    "name": "F3",
                    "midi": 53,
                    "time": 19.707087000000048,
                    "velocity": 0.29133858267716534,
                    "duration": 0.10768900000000059
                },
                {
                    "name": "C#3",
                    "midi": 49,
                    "time": 19.92246500000005,
                    "velocity": 0.3464566929133858,
                    "duration": 0.10768900000000059
                },
                {
                    "name": "F#3",
                    "midi": 54,
                    "time": 20.03015400000005,
                    "velocity": 0.31496062992125984,
                    "duration": 0.10768900000000059
                },
                {
                    "name": "A#3",
                    "midi": 58,
                    "time": 20.13784300000005,
                    "velocity": 0.31496062992125984,
                    "duration": 0.10768900000000059
                },
                {
                    "name": "C#4",
                    "midi": 61,
                    "time": 20.24553200000005,
                    "velocity": 0.3464566929133858,
                    "duration": 0.10768900000000059
                },
                {
                    "name": "D#4",
                    "midi": 63,
                    "time": 20.35322100000005,
                    "velocity": 0.3228346456692913,
                    "duration": 0.10768900000000059
                },
                {
                    "name": "C#4",
                    "midi": 61,
                    "time": 20.46091000000005,
                    "velocity": 0.3228346456692913,
                    "duration": 0.10768900000000059
                },
                {
                    "name": "C4",
                    "midi": 60,
                    "time": 20.568599000000052,
                    "velocity": 0.3228346456692913,
                    "duration": 0.10768900000000059
                },
                {
                    "name": "A#3",
                    "midi": 58,
                    "time": 20.676288000000053,
                    "velocity": 0.3464566929133858,
                    "duration": 0.10768900000000059
                },
                {
                    "name": "C4",
                    "midi": 60,
                    "time": 20.783977000000053,
                    "velocity": 0.31496062992125984,
                    "duration": 0.10768900000000059
                },
                {
                    "name": "A#3",
                    "midi": 58,
                    "time": 20.891666000000054,
                    "velocity": 0.31496062992125984,
                    "duration": 0.10768900000000059
                },
                {
                    "name": "G#3",
                    "midi": 56,
                    "time": 20.999355000000055,
                    "velocity": 0.31496062992125984,
                    "duration": 0.10768900000000059
                },
                {
                    "name": "F#3",
                    "midi": 54,
                    "time": 21.107044000000055,
                    "velocity": 0.3464566929133858,
                    "duration": 0.10768900000000059
                },
                {
                    "name": "G#3",
                    "midi": 56,
                    "time": 21.214733000000056,
                    "velocity": 0.31496062992125984,
                    "duration": 0.10768900000000059
                },
                {
                    "name": "F#3",
                    "midi": 54,
                    "time": 21.322422000000056,
                    "velocity": 0.31496062992125984,
                    "duration": 0.10768900000000059
                },
                {
                    "name": "F3",
                    "midi": 53,
                    "time": 21.430111000000057,
                    "velocity": 0.31496062992125984,
                    "duration": 0.10768900000000059
                },
                {
                    "name": "E3",
                    "midi": 52,
                    "time": 21.537800000000058,
                    "velocity": 0.3464566929133858,
                    "duration": 0.10768900000000059
                },
                {
                    "name": "F3",
                    "midi": 53,
                    "time": 21.645489000000058,
                    "velocity": 0.31496062992125984,
                    "duration": 0.10768900000000059
                },
                {
                    "name": "G3",
                    "midi": 55,
                    "time": 21.75317800000006,
                    "velocity": 0.31496062992125984,
                    "duration": 0.10768900000000059
                },
                {
                    "name": "E3",
                    "midi": 52,
                    "time": 21.86086700000006,
                    "velocity": 0.31496062992125984,
                    "duration": 0.10768900000000059
                },
                {
                    "name": "F3",
                    "midi": 53,
                    "time": 21.96855600000006,
                    "velocity": 0.3464566929133858,
                    "duration": 0.10768900000000059
                },
                {
                    "name": "G3",
                    "midi": 55,
                    "time": 22.07624500000006,
                    "velocity": 0.31496062992125984,
                    "duration": 0.10768900000000059
                },
                {
                    "name": "G#3",
                    "midi": 56,
                    "time": 22.18393400000006,
                    "velocity": 0.31496062992125984,
                    "duration": 0.10768900000000059
                },
                {
                    "name": "F3",
                    "midi": 53,
                    "time": 22.29162300000006,
                    "velocity": 0.31496062992125984,
                    "duration": 0.10768900000000059
                },
                {
                    "name": "G3",
                    "midi": 55,
                    "time": 22.399312000000062,
                    "velocity": 0.3464566929133858,
                    "duration": 0.10768900000000059
                },
                {
                    "name": "G#3",
                    "midi": 56,
                    "time": 22.507001000000063,
                    "velocity": 0.31496062992125984,
                    "duration": 0.10768900000000059
                },
                {
                    "name": "A#3",
                    "midi": 58,
                    "time": 22.614690000000063,
                    "velocity": 0.31496062992125984,
                    "duration": 0.10768900000000059
                },
                {
                    "name": "G3",
                    "midi": 55,
                    "time": 22.722379000000064,
                    "velocity": 0.31496062992125984,
                    "duration": 0.10768900000000059
                },
                {
                    "name": "E3",
                    "midi": 52,
                    "time": 22.830068000000065,
                    "velocity": 0.3464566929133858,
                    "duration": 0.10768900000000059
                },
                {
                    "name": "F3",
                    "midi": 53,
                    "time": 22.937757000000065,
                    "velocity": 0.29133858267716534,
                    "duration": 0.10768900000000059
                },
                {
                    "name": "G3",
                    "midi": 55,
                    "time": 23.045446000000066,
                    "velocity": 0.2992125984251969,
                    "duration": 0.10768900000000059
                },
                {
                    "name": "E3",
                    "midi": 52,
                    "time": 23.153135000000066,
                    "velocity": 0.31496062992125984,
                    "duration": 0.10768900000000059
                },
                {
                    "name": "F3",
                    "midi": 53,
                    "time": 23.260824000000067,
                    "velocity": 0.3464566929133858,
                    "duration": 0.10768900000000059
                },
                {
                    "name": "C3",
                    "midi": 48,
                    "time": 23.368513000000068,
                    "velocity": 0.31496062992125984,
                    "duration": 0.10768900000000059
                },
                {
                    "name": "F3",
                    "midi": 53,
                    "time": 23.476202000000068,
                    "velocity": 0.29133858267716534,
                    "duration": 0.10768900000000059
                },
                {
                    "name": "G#3",
                    "midi": 56,
                    "time": 23.58389100000007,
                    "velocity": 0.29133858267716534,
                    "duration": 0.10768900000000059
                },
                {
                    "name": "C4",
                    "midi": 60,
                    "time": 23.69158000000007,
                    "velocity": 0.31496062992125984,
                    "duration": 0.10768900000000059
                },
                {
                    "name": "C#4",
                    "midi": 61,
                    "time": 23.79926900000007,
                    "velocity": 0.2992125984251969,
                    "duration": 0.10768900000000059
                },
                {
                    "name": "C4",
                    "midi": 60,
                    "time": 23.90695800000007,
                    "velocity": 0.2992125984251969,
                    "duration": 0.10768900000000059
                },
                {
                    "name": "A#3",
                    "midi": 58,
                    "time": 24.01464700000007,
                    "velocity": 0.2992125984251969,
                    "duration": 0.10768900000000059
                },
                {
                    "name": "G#3",
                    "midi": 56,
                    "time": 24.12233600000007,
                    "velocity": 0.31496062992125984,
                    "duration": 0.10768900000000059
                },
                {
                    "name": "A#3",
                    "midi": 58,
                    "time": 24.230025000000072,
                    "velocity": 0.29133858267716534,
                    "duration": 0.10768900000000059
                },
                {
                    "name": "G#3",
                    "midi": 56,
                    "time": 24.337714000000073,
                    "velocity": 0.29133858267716534,
                    "duration": 0.10768900000000059
                },
                {
                    "name": "G3",
                    "midi": 55,
                    "time": 24.445403000000073,
                    "velocity": 0.29133858267716534,
                    "duration": 0.10768900000000059
                },
                {
                    "name": "F3",
                    "midi": 53,
                    "time": 24.553092000000074,
                    "velocity": 0.31496062992125984,
                    "duration": 0.10768900000000059
                },
                {
                    "name": "G3",
                    "midi": 55,
                    "time": 24.660781000000075,
                    "velocity": 0.29133858267716534,
                    "duration": 0.10768900000000059
                },
                {
                    "name": "G#3",
                    "midi": 56,
                    "time": 24.768470000000075,
                    "velocity": 0.29133858267716534,
                    "duration": 0.10768900000000059
                },
                {
                    "name": "F3",
                    "midi": 53,
                    "time": 24.876159000000076,
                    "velocity": 0.29133858267716534,
                    "duration": 0.10768900000000059
                },
                {
                    "name": "C3",
                    "midi": 48,
                    "time": 25.091537000000077,
                    "velocity": 0.31496062992125984,
                    "duration": 0.10768900000000059
                },
                {
                    "name": "F3",
                    "midi": 53,
                    "time": 25.199226000000078,
                    "velocity": 0.29133858267716534,
                    "duration": 0.10768900000000059
                },
                {
                    "name": "G#3",
                    "midi": 56,
                    "time": 25.306915000000078,
                    "velocity": 0.29133858267716534,
                    "duration": 0.10768900000000059
                },
                {
                    "name": "C4",
                    "midi": 60,
                    "time": 25.41460400000008,
                    "velocity": 0.31496062992125984,
                    "duration": 0.10768900000000059
                },
                {
                    "name": "C#4",
                    "midi": 61,
                    "time": 25.52229300000008,
                    "velocity": 0.2992125984251969,
                    "duration": 0.10768900000000059
                },
                {
                    "name": "C4",
                    "midi": 60,
                    "time": 25.62998200000008,
                    "velocity": 0.2992125984251969,
                    "duration": 0.10768900000000059
                },
                {
                    "name": "A#3",
                    "midi": 58,
                    "time": 25.73767100000008,
                    "velocity": 0.2992125984251969,
                    "duration": 0.10768900000000059
                },
                {
                    "name": "G#3",
                    "midi": 56,
                    "time": 25.84536000000008,
                    "velocity": 0.31496062992125984,
                    "duration": 0.10768900000000059
                },
                {
                    "name": "A#3",
                    "midi": 58,
                    "time": 25.95304900000008,
                    "velocity": 0.29133858267716534,
                    "duration": 0.10768900000000059
                },
                {
                    "name": "G#3",
                    "midi": 56,
                    "time": 26.060738000000082,
                    "velocity": 0.29133858267716534,
                    "duration": 0.10768900000000059
                },
                {
                    "name": "G3",
                    "midi": 55,
                    "time": 26.168427000000083,
                    "velocity": 0.29133858267716534,
                    "duration": 0.10768900000000059
                },
                {
                    "name": "F3",
                    "midi": 53,
                    "time": 26.276116000000084,
                    "velocity": 0.31496062992125984,
                    "duration": 0.10768900000000059
                },
                {
                    "name": "G3",
                    "midi": 55,
                    "time": 26.383805000000084,
                    "velocity": 0.29133858267716534,
                    "duration": 0.10768900000000059
                },
                {
                    "name": "G#3",
                    "midi": 56,
                    "time": 26.491494000000085,
                    "velocity": 0.29133858267716534,
                    "duration": 0.10768900000000059
                },
                {
                    "name": "F3",
                    "midi": 53,
                    "time": 26.599183000000085,
                    "velocity": 0.29133858267716534,
                    "duration": 0.10768900000000059
                },
                {
                    "name": "C#3",
                    "midi": 49,
                    "time": 26.814561000000086,
                    "velocity": 0.3464566929133858,
                    "duration": 0.10768900000000059
                },
                {
                    "name": "F#3",
                    "midi": 54,
                    "time": 26.922250000000087,
                    "velocity": 0.31496062992125984,
                    "duration": 0.10768900000000059
                },
                {
                    "name": "A#3",
                    "midi": 58,
                    "time": 27.029939000000088,
                    "velocity": 0.31496062992125984,
                    "duration": 0.10768900000000059
                },
                {
                    "name": "C#4",
                    "midi": 61,
                    "time": 27.13762800000009,
                    "velocity": 0.3464566929133858,
                    "duration": 0.10768900000000059
                },
                {
                    "name": "D#4",
                    "midi": 63,
                    "time": 27.24531700000009,
                    "velocity": 0.3228346456692913,
                    "duration": 0.10768900000000059
                },
                {
                    "name": "C#4",
                    "midi": 61,
                    "time": 27.35300600000009,
                    "velocity": 0.3228346456692913,
                    "duration": 0.10768900000000059
                },
                {
                    "name": "C4",
                    "midi": 60,
                    "time": 27.46069500000009,
                    "velocity": 0.3228346456692913,
                    "duration": 0.10768900000000059
                },
                {
                    "name": "A#3",
                    "midi": 58,
                    "time": 27.56838400000009,
                    "velocity": 0.3464566929133858,
                    "duration": 0.10768900000000059
                },
                {
                    "name": "C4",
                    "midi": 60,
                    "time": 27.67607300000009,
                    "velocity": 0.31496062992125984,
                    "duration": 0.10768900000000059
                },
                {
                    "name": "A#3",
                    "midi": 58,
                    "time": 27.78376200000009,
                    "velocity": 0.31496062992125984,
                    "duration": 0.10768900000000059
                },
                {
                    "name": "G#3",
                    "midi": 56,
                    "time": 27.891451000000092,
                    "velocity": 0.31496062992125984,
                    "duration": 0.10768900000000059
                },
                {
                    "name": "F#3",
                    "midi": 54,
                    "time": 27.999140000000093,
                    "velocity": 0.3464566929133858,
                    "duration": 0.10768900000000059
                },
                {
                    "name": "G#3",
                    "midi": 56,
                    "time": 28.106829000000094,
                    "velocity": 0.31496062992125984,
                    "duration": 0.10768900000000059
                },
                {
                    "name": "F#3",
                    "midi": 54,
                    "time": 28.214518000000094,
                    "velocity": 0.31496062992125984,
                    "duration": 0.10768900000000059
                },
                {
                    "name": "F3",
                    "midi": 53,
                    "time": 28.322207000000095,
                    "velocity": 0.31496062992125984,
                    "duration": 0.10768900000000059
                },
                {
                    "name": "E3",
                    "midi": 52,
                    "time": 28.429896000000095,
                    "velocity": 0.3464566929133858,
                    "duration": 0.10768900000000059
                },
                {
                    "name": "F3",
                    "midi": 53,
                    "time": 28.537585000000096,
                    "velocity": 0.31496062992125984,
                    "duration": 0.10768900000000059
                },
                {
                    "name": "G3",
                    "midi": 55,
                    "time": 28.645274000000096,
                    "velocity": 0.31496062992125984,
                    "duration": 0.10768900000000059
                },
                {
                    "name": "E3",
                    "midi": 52,
                    "time": 28.752963000000097,
                    "velocity": 0.31496062992125984,
                    "duration": 0.10768900000000059
                },
                {
                    "name": "F3",
                    "midi": 53,
                    "time": 28.860652000000098,
                    "velocity": 0.3464566929133858,
                    "duration": 0.10768900000000059
                },
                {
                    "name": "G3",
                    "midi": 55,
                    "time": 28.9683410000001,
                    "velocity": 0.31496062992125984,
                    "duration": 0.10768900000000059
                },
                {
                    "name": "G#3",
                    "midi": 56,
                    "time": 29.0760300000001,
                    "velocity": 0.31496062992125984,
                    "duration": 0.10768900000000059
                },
                {
                    "name": "F3",
                    "midi": 53,
                    "time": 29.1837190000001,
                    "velocity": 0.31496062992125984,
                    "duration": 0.10768900000000059
                },
                {
                    "name": "G3",
                    "midi": 55,
                    "time": 29.2914080000001,
                    "velocity": 0.3464566929133858,
                    "duration": 0.10768900000000059
                },
                {
                    "name": "G#3",
                    "midi": 56,
                    "time": 29.3990970000001,
                    "velocity": 0.31496062992125984,
                    "duration": 0.10768900000000059
                },
                {
                    "name": "A#3",
                    "midi": 58,
                    "time": 29.5067860000001,
                    "velocity": 0.31496062992125984,
                    "duration": 0.10768900000000059
                },
                {
                    "name": "G3",
                    "midi": 55,
                    "time": 29.614475000000102,
                    "velocity": 0.31496062992125984,
                    "duration": 0.10768900000000059
                },
                {
                    "name": "E3",
                    "midi": 52,
                    "time": 29.722164000000102,
                    "velocity": 0.3464566929133858,
                    "duration": 0.10768900000000059
                },
                {
                    "name": "F3",
                    "midi": 53,
                    "time": 29.829853000000103,
                    "velocity": 0.29133858267716534,
                    "duration": 0.10768900000000059
                },
                {
                    "name": "G3",
                    "midi": 55,
                    "time": 29.937542000000104,
                    "velocity": 0.2992125984251969,
                    "duration": 0.10768900000000059
                },
                {
                    "name": "E3",
                    "midi": 52,
                    "time": 30.045231000000104,
                    "velocity": 0.31496062992125984,
                    "duration": 0.10768900000000059
                },
                {
                    "name": "F3",
                    "midi": 53,
                    "time": 30.152920000000105,
                    "velocity": 0.29133858267716534,
                    "duration": 0.10768900000000059
                },
                {
                    "name": "C4",
                    "midi": 60,
                    "time": 30.260609000000105,
                    "velocity": 0.2992125984251969,
                    "duration": 0.10768900000000059
                },
                {
                    "name": "F4",
                    "midi": 65,
                    "time": 30.368298000000106,
                    "velocity": 0.31496062992125984,
                    "duration": 0.10768900000000059
                },
                {
                    "name": "G#4",
                    "midi": 68,
                    "time": 30.475987000000107,
                    "velocity": 0.33070866141732286,
                    "duration": 0.10768900000000059
                },
                {
                    "name": "C5",
                    "midi": 72,
                    "time": 30.583676000000107,
                    "velocity": 0.33858267716535434,
                    "duration": 0.10768900000000059
                },
                {
                    "name": "C4",
                    "midi": 60,
                    "time": 30.691365000000108,
                    "velocity": 0.3543307086614173,
                    "duration": 0.10768900000000059
                },
                {
                    "name": "F4",
                    "midi": 65,
                    "time": 30.79905400000011,
                    "velocity": 0.36220472440944884,
                    "duration": 0.10768900000000059
                },
                {
                    "name": "G#4",
                    "midi": 68,
                    "time": 30.90674300000011,
                    "velocity": 0.3779527559055118,
                    "duration": 0.10768900000000059
                },
                {
                    "name": "C4",
                    "midi": 60,
                    "time": 31.12212100000011,
                    "velocity": 0.36220472440944884,
                    "duration": 0.10768900000000059
                },
                {
                    "name": "F4",
                    "midi": 65,
                    "time": 31.22981000000011,
                    "velocity": 0.3700787401574803,
                    "duration": 0.10768900000000059
                },
                {
                    "name": "G#4",
                    "midi": 68,
                    "time": 31.33749900000011,
                    "velocity": 0.3858267716535433,
                    "duration": 0.10768900000000059
                },
                {
                    "name": "C5",
                    "midi": 72,
                    "time": 31.445188000000112,
                    "velocity": 0.3937007874015748,
                    "duration": 0.10768900000000059
                },
                {
                    "name": "C4",
                    "midi": 60,
                    "time": 31.552877000000112,
                    "velocity": 0.4094488188976378,
                    "duration": 0.10768900000000059
                },
                {
                    "name": "F4",
                    "midi": 65,
                    "time": 31.660566000000113,
                    "velocity": 0.41732283464566927,
                    "duration": 0.10768900000000059
                },
                {
                    "name": "G#4",
                    "midi": 68,
                    "time": 31.768255000000114,
                    "velocity": 0.2992125984251969,
                    "duration": 0.10768900000000059
                },
                {
                    "name": "B3",
                    "midi": 59,
                    "time": 31.983633000000115,
                    "velocity": 0.4015748031496063,
                    "duration": 0.10768899999999704
                },
                {
                    "name": "D4",
                    "midi": 62,
                    "time": 32.09132200000011,
                    "velocity": 0.4094488188976378,
                    "duration": 0.10768900000000059
                },
                {
                    "name": "G#4",
                    "midi": 68,
                    "time": 32.19901100000011,
                    "velocity": 0.4094488188976378,
                    "duration": 0.10768900000000059
                },
                {
                    "name": "B4",
                    "midi": 71,
                    "time": 32.30670000000011,
                    "velocity": 0.4251968503937008,
                    "duration": 0.43075600000000236
                },
                {
                    "name": "B3",
                    "midi": 59,
                    "time": 32.414389000000114,
                    "velocity": 0.4094488188976378,
                    "duration": 0.10768900000000059
                },
                {
                    "name": "D4",
                    "midi": 62,
                    "time": 32.522078000000114,
                    "velocity": 0.4094488188976378,
                    "duration": 0.10768900000000059
                },
                {
                    "name": "G#4",
                    "midi": 68,
                    "time": 32.629767000000115,
                    "velocity": 0.4094488188976378,
                    "duration": 0.10768900000000059
                },
                {
                    "name": "B4",
                    "midi": 71,
                    "time": 32.737456000000115,
                    "velocity": 0.4251968503937008,
                    "duration": 0.43075600000000236
                },
                {
                    "name": "B3",
                    "midi": 59,
                    "time": 32.845145000000116,
                    "velocity": 0.4094488188976378,
                    "duration": 0.10768900000000059
                },
                {
                    "name": "E4",
                    "midi": 64,
                    "time": 32.95283400000012,
                    "velocity": 0.3937007874015748,
                    "duration": 0.10768900000000059
                },
                {
                    "name": "G4",
                    "midi": 67,
                    "time": 33.06052300000012,
                    "velocity": 0.3858267716535433,
                    "duration": 0.10768900000000059
                },
                {
                    "name": "C5",
                    "midi": 72,
                    "time": 33.16821200000012,
                    "velocity": 0.4094488188976378,
                    "duration": 0.43075600000000236
                },
                {
                    "name": "C4",
                    "midi": 60,
                    "time": 33.27590100000012,
                    "velocity": 0.36220472440944884,
                    "duration": 0.10768900000000059
                },
                {
                    "name": "E4",
                    "midi": 64,
                    "time": 33.38359000000012,
                    "velocity": 0.3464566929133858,
                    "duration": 0.10768900000000059
                },
                {
                    "name": "G4",
                    "midi": 67,
                    "time": 33.49127900000012,
                    "velocity": 0.2992125984251969,
                    "duration": 0.10768900000000059
                },
                {
                    "name": "C4",
                    "midi": 60,
                    "time": 33.70665700000012,
                    "velocity": 0.2992125984251969,
                    "duration": 0.10768900000000059
                },
                {
                    "name": "E4",
                    "midi": 64,
                    "time": 33.81434600000012,
                    "velocity": 0.31496062992125984,
                    "duration": 0.10768900000000059
                },
                {
                    "name": "G4",
                    "midi": 67,
                    "time": 33.92203500000012,
                    "velocity": 0.33070866141732286,
                    "duration": 0.10768900000000059
                },
                {
                    "name": "C5",
                    "midi": 72,
                    "time": 34.02972400000012,
                    "velocity": 0.33858267716535434,
                    "duration": 0.10768900000000059
                },
                {
                    "name": "C4",
                    "midi": 60,
                    "time": 34.13741300000012,
                    "velocity": 0.3543307086614173,
                    "duration": 0.10768900000000059
                },
                {
                    "name": "E4",
                    "midi": 64,
                    "time": 34.245102000000124,
                    "velocity": 0.36220472440944884,
                    "duration": 0.10768900000000059
                },
                {
                    "name": "G4",
                    "midi": 67,
                    "time": 34.352791000000124,
                    "velocity": 0.3779527559055118,
                    "duration": 0.10768900000000059
                },
                {
                    "name": "C4",
                    "midi": 60,
                    "time": 34.568169000000125,
                    "velocity": 0.36220472440944884,
                    "duration": 0.10768900000000059
                },
                {
                    "name": "E4",
                    "midi": 64,
                    "time": 34.675858000000126,
                    "velocity": 0.3700787401574803,
                    "duration": 0.10768900000000059
                },
                {
                    "name": "G4",
                    "midi": 67,
                    "time": 34.78354700000013,
                    "velocity": 0.3858267716535433,
                    "duration": 0.10768900000000059
                },
                {
                    "name": "C5",
                    "midi": 72,
                    "time": 34.89123600000013,
                    "velocity": 0.3937007874015748,
                    "duration": 0.10768900000000059
                },
                {
                    "name": "C4",
                    "midi": 60,
                    "time": 34.99892500000013,
                    "velocity": 0.4094488188976378,
                    "duration": 0.10768900000000059
                },
                {
                    "name": "E4",
                    "midi": 64,
                    "time": 35.10661400000013,
                    "velocity": 0.41732283464566927,
                    "duration": 0.10768900000000059
                },
                {
                    "name": "G4",
                    "midi": 67,
                    "time": 35.21430300000013,
                    "velocity": 0.2992125984251969,
                    "duration": 0.10768900000000059
                },
                {
                    "name": "C4",
                    "midi": 60,
                    "time": 35.42968100000013,
                    "velocity": 0.4015748031496063,
                    "duration": 0.10768900000000059
                },
                {
                    "name": "E4",
                    "midi": 64,
                    "time": 35.53737000000013,
                    "velocity": 0.4094488188976378,
                    "duration": 0.10768900000000059
                },
                {
                    "name": "G4",
                    "midi": 67,
                    "time": 35.64505900000013,
                    "velocity": 0.4094488188976378,
                    "duration": 0.10768900000000059
                },
                {
                    "name": "C5",
                    "midi": 72,
                    "time": 35.75274800000013,
                    "velocity": 0.4251968503937008,
                    "duration": 0.43075600000000236
                },
                {
                    "name": "C4",
                    "midi": 60,
                    "time": 35.86043700000013,
                    "velocity": 0.4094488188976378,
                    "duration": 0.10768900000000059
                },
                {
                    "name": "E4",
                    "midi": 64,
                    "time": 35.96812600000013,
                    "velocity": 0.4094488188976378,
                    "duration": 0.10768900000000059
                },
                {
                    "name": "G4",
                    "midi": 67,
                    "time": 36.075815000000134,
                    "velocity": 0.4094488188976378,
                    "duration": 0.10768900000000059
                },
                {
                    "name": "C5",
                    "midi": 72,
                    "time": 36.183504000000134,
                    "velocity": 0.41732283464566927,
                    "duration": 0.43075600000000236
                },
                {
                    "name": "C4",
                    "midi": 60,
                    "time": 36.291193000000135,
                    "velocity": 0.4094488188976378,
                    "duration": 0.10768900000000059
                },
                {
                    "name": "E4",
                    "midi": 64,
                    "time": 36.398882000000135,
                    "velocity": 0.3937007874015748,
                    "duration": 0.10768900000000059
                },
                {
                    "name": "G4",
                    "midi": 67,
                    "time": 36.506571000000136,
                    "velocity": 0.3858267716535433,
                    "duration": 0.10768900000000059
                },
                {
                    "name": "C5",
                    "midi": 72,
                    "time": 36.61426000000014,
                    "velocity": 0.3700787401574803,
                    "duration": 0.43075600000000236
                },
                {
                    "name": "C4",
                    "midi": 60,
                    "time": 36.72194900000014,
                    "velocity": 0.36220472440944884,
                    "duration": 0.10768900000000059
                },
                {
                    "name": "F4",
                    "midi": 65,
                    "time": 36.82963800000014,
                    "velocity": 0.3464566929133858,
                    "duration": 0.10768900000000059
                },
                {
                    "name": "G#4",
                    "midi": 68,
                    "time": 36.93732700000014,
                    "velocity": 0.2992125984251969,
                    "duration": 0.10768900000000059
                },
                {
                    "name": "F4",
                    "midi": 65,
                    "time": 37.15270500000014,
                    "velocity": 0.2992125984251969,
                    "duration": 0.10768900000000059
                },
                {
                    "name": "A4",
                    "midi": 69,
                    "time": 37.26039400000014,
                    "velocity": 0.31496062992125984,
                    "duration": 0.10768900000000059
                },
                {
                    "name": "C5",
                    "midi": 72,
                    "time": 37.36808300000014,
                    "velocity": 0.33070866141732286,
                    "duration": 0.10768900000000059
                },
                {
                    "name": "F5",
                    "midi": 77,
                    "time": 37.47577200000014,
                    "velocity": 0.33858267716535434,
                    "duration": 0.10768900000000059
                },
                {
                    "name": "F4",
                    "midi": 65,
                    "time": 37.58346100000014,
                    "velocity": 0.3543307086614173,
                    "duration": 0.10768900000000059
                },
                {
                    "name": "A4",
                    "midi": 69,
                    "time": 37.69115000000014,
                    "velocity": 0.36220472440944884,
                    "duration": 0.10768900000000059
                },
                {
                    "name": "C5",
                    "midi": 72,
                    "time": 37.79883900000014,
                    "velocity": 0.3779527559055118,
                    "duration": 0.10768900000000059
                },
                {
                    "name": "F4",
                    "midi": 65,
                    "time": 38.014217000000144,
                    "velocity": 0.36220472440944884,
                    "duration": 0.10768900000000059
                },
                {
                    "name": "A4",
                    "midi": 69,
                    "time": 38.121906000000145,
                    "velocity": 0.3700787401574803,
                    "duration": 0.10768900000000059
                },
                {
                    "name": "C5",
                    "midi": 72,
                    "time": 38.229595000000145,
                    "velocity": 0.3858267716535433,
                    "duration": 0.10768900000000059
                },
                {
                    "name": "F5",
                    "midi": 77,
                    "time": 38.337284000000146,
                    "velocity": 0.3937007874015748,
                    "duration": 0.10768900000000059
                },
                {
                    "name": "F4",
                    "midi": 65,
                    "time": 38.44497300000015,
                    "velocity": 0.4094488188976378,
                    "duration": 0.10768900000000059
                },
                {
                    "name": "A4",
                    "midi": 69,
                    "time": 38.55266200000015,
                    "velocity": 0.41732283464566927,
                    "duration": 0.10768900000000059
                },
                {
                    "name": "C5",
                    "midi": 72,
                    "time": 38.66035100000015,
                    "velocity": 0.4251968503937008,
                    "duration": 0.10768900000000059
                },
                {
                    "name": "F4",
                    "midi": 65,
                    "time": 38.87572900000015,
                    "velocity": 0.3937007874015748,
                    "duration": 0.10768900000000059
                },
                {
                    "name": "A4",
                    "midi": 69,
                    "time": 38.98341800000015,
                    "velocity": 0.3937007874015748,
                    "duration": 0.10768900000000059
                },
                {
                    "name": "C5",
                    "midi": 72,
                    "time": 39.09110700000015,
                    "velocity": 0.3937007874015748,
                    "duration": 0.10768900000000059
                },
                {
                    "name": "F5",
                    "midi": 77,
                    "time": 39.19879600000015,
                    "velocity": 0.4330708661417323,
                    "duration": 0.43075600000000236
                },
                {
                    "name": "F4",
                    "midi": 65,
                    "time": 39.30648500000015,
                    "velocity": 0.41732283464566927,
                    "duration": 0.10768900000000059
                },
                {
                    "name": "A4",
                    "midi": 69,
                    "time": 39.41417400000015,
                    "velocity": 0.4094488188976378,
                    "duration": 0.10768900000000059
                },
                {
                    "name": "C5",
                    "midi": 72,
                    "time": 39.52186300000015,
                    "velocity": 0.4094488188976378,
                    "duration": 0.10768900000000059
                },
                {
                    "name": "F4",
                    "midi": 65,
                    "time": 39.62955200000015,
                    "velocity": 0.4251968503937008,
                    "duration": 0.10768900000000059
                },
                {
                    "name": "A4",
                    "midi": 69,
                    "time": 39.62955200000015,
                    "velocity": 0.4251968503937008,
                    "duration": 0.10768900000000059
                },
                {
                    "name": "F5",
                    "midi": 77,
                    "time": 39.737241000000154,
                    "velocity": 0.4251968503937008,
                    "duration": 0.10768900000000059
                },
                {
                    "name": "A#4",
                    "midi": 70,
                    "time": 39.844930000000154,
                    "velocity": 0.41732283464566927,
                    "duration": 0.10768900000000059
                },
                {
                    "name": "F4",
                    "midi": 65,
                    "time": 39.844930000000154,
                    "velocity": 0.41732283464566927,
                    "duration": 0.10768900000000059
                },
                {
                    "name": "F5",
                    "midi": 77,
                    "time": 39.952619000000155,
                    "velocity": 0.4094488188976378,
                    "duration": 0.10768900000000059
                },
                {
                    "name": "C5",
                    "midi": 72,
                    "time": 40.060308000000155,
                    "velocity": 0.4094488188976378,
                    "duration": 0.10768900000000059
                },
                {
                    "name": "F4",
                    "midi": 65,
                    "time": 40.060308000000155,
                    "velocity": 0.4094488188976378,
                    "duration": 0.10768900000000059
                },
                {
                    "name": "F5",
                    "midi": 77,
                    "time": 40.167997000000156,
                    "velocity": 0.4015748031496063,
                    "duration": 0.10768900000000059
                },
                {
                    "name": "F4",
                    "midi": 65,
                    "time": 40.27568600000016,
                    "velocity": 0.3937007874015748,
                    "duration": 0.10768900000000059
                },
                {
                    "name": "C#5",
                    "midi": 73,
                    "time": 40.27568600000016,
                    "velocity": 0.3937007874015748,
                    "duration": 0.10768900000000059
                },
                {
                    "name": "F5",
                    "midi": 77,
                    "time": 40.38337500000016,
                    "velocity": 0.3937007874015748,
                    "duration": 0.10768900000000059
                },
                {
                    "name": "C4",
                    "midi": 60,
                    "time": 40.59875300000016,
                    "velocity": 0.4094488188976378,
                    "duration": 0.10768900000000059
                },
                {
                    "name": "F4",
                    "midi": 65,
                    "time": 40.70644200000016,
                    "velocity": 0.3858267716535433,
                    "duration": 0.10768900000000059
                },
                {
                    "name": "G#4",
                    "midi": 68,
                    "time": 40.81413100000016,
                    "velocity": 0.3937007874015748,
                    "duration": 0.10768900000000059
                },
                {
                    "name": "C5",
                    "midi": 72,
                    "time": 40.92182000000016,
                    "velocity": 0.4409448818897638,
                    "duration": 0.43075600000000236
                },
                {
                    "name": "C4",
                    "midi": 60,
                    "time": 41.02950900000016,
                    "velocity": 0.3937007874015748,
                    "duration": 0.10768900000000059
                },
                {
                    "name": "F4",
                    "midi": 65,
                    "time": 41.13719800000016,
                    "velocity": 0.3937007874015748,
                    "duration": 0.10768900000000059
                },
                {
                    "name": "G#4",
                    "midi": 68,
                    "time": 41.24488700000016,
                    "velocity": 0.3937007874015748,
                    "duration": 0.10768900000000059
                },
                {
                    "name": "C5",
                    "midi": 72,
                    "time": 41.35257600000016,
                    "velocity": 0.4409448818897638,
                    "duration": 0.43075600000000236
                },
                {
                    "name": "C4",
                    "midi": 60,
                    "time": 41.46026500000016,
                    "velocity": 0.4094488188976378,
                    "duration": 0.10768900000000059
                },
                {
                    "name": "G4",
                    "midi": 67,
                    "time": 41.567954000000164,
                    "velocity": 0.4094488188976378,
                    "duration": 0.10768900000000059
                },
                {
                    "name": "A#4",
                    "midi": 70,
                    "time": 41.675643000000164,
                    "velocity": 0.4094488188976378,
                    "duration": 0.10768900000000059
                },
                {
                    "name": "C5",
                    "midi": 72,
                    "time": 41.783332000000165,
                    "velocity": 0.4409448818897638,
                    "duration": 0.43075600000000236
                },
                {
                    "name": "C4",
                    "midi": 60,
                    "time": 41.891021000000165,
                    "velocity": 0.4094488188976378,
                    "duration": 0.10768900000000059
                },
                {
                    "name": "E4",
                    "midi": 64,
                    "time": 41.998710000000166,
                    "velocity": 0.4094488188976378,
                    "duration": 0.10768900000000059
                },
                {
                    "name": "G4",
                    "midi": 67,
                    "time": 42.10639900000017,
                    "velocity": 0.4094488188976378,
                    "duration": 0.10768900000000059
                },
                {
                    "name": "C4",
                    "midi": 60,
                    "time": 42.21408800000017,
                    "velocity": 0.4645669291338583,
                    "duration": 0.43075600000000236
                },
                {
                    "name": "C5",
                    "midi": 72,
                    "time": 42.21408800000017,
                    "velocity": 0.4645669291338583,
                    "duration": 0.43075600000000236
                },
                {
                    "name": "F4",
                    "midi": 65,
                    "time": 42.21408800000017,
                    "velocity": 0.4645669291338583,
                    "duration": 0.43075600000000236
                },
                {
                    "name": "G#4",
                    "midi": 68,
                    "time": 42.21408800000017,
                    "velocity": 0.4645669291338583,
                    "duration": 0.43075600000000236
                },
                {
                    "name": "G#5",
                    "midi": 80,
                    "time": 42.96791100000017,
                    "velocity": 0.5433070866141733,
                    "duration": 0.10768900000000059
                },
                {
                    "name": "F5",
                    "midi": 77,
                    "time": 42.96791100000017,
                    "velocity": 0.5433070866141733,
                    "duration": 0.10768900000000059
                },
                {
                    "name": "G#5",
                    "midi": 80,
                    "time": 43.07560000000017,
                    "velocity": 0.5826771653543307,
                    "duration": 0.43075600000000236
                },
                {
                    "name": "F5",
                    "midi": 77,
                    "time": 43.07560000000017,
                    "velocity": 0.5826771653543307,
                    "duration": 0.43075600000000236
                },
                {
                    "name": "F5",
                    "midi": 77,
                    "time": 43.829423000000176,
                    "velocity": 0.5511811023622047,
                    "duration": 0.10768900000000059
                },
                {
                    "name": "G#5",
                    "midi": 80,
                    "time": 43.829423000000176,
                    "velocity": 0.5511811023622047,
                    "duration": 0.10768900000000059
                },
                {
                    "name": "F5",
                    "midi": 77,
                    "time": 43.93711200000018,
                    "velocity": 0.5905511811023622,
                    "duration": 0.8615119999999976
                },
                {
                    "name": "G#5",
                    "midi": 80,
                    "time": 43.93711200000018,
                    "velocity": 0.5905511811023622,
                    "duration": 0.8615119999999976
                },
                {
                    "name": "E5",
                    "midi": 76,
                    "time": 44.798624000000174,
                    "velocity": 0.5354330708661418,
                    "duration": 0.21537800000000118
                },
                {
                    "name": "G5",
                    "midi": 79,
                    "time": 44.798624000000174,
                    "velocity": 0.5354330708661418,
                    "duration": 0.21537800000000118
                },
                {
                    "name": "A#5",
                    "midi": 82,
                    "time": 46.413959000000176,
                    "velocity": 0.5433070866141733,
                    "duration": 0.10768900000000059
                },
                {
                    "name": "G5",
                    "midi": 79,
                    "time": 46.413959000000176,
                    "velocity": 0.5433070866141733,
                    "duration": 0.10768900000000059
                },
                {
                    "name": "A#5",
                    "midi": 82,
                    "time": 46.52164800000018,
                    "velocity": 0.5826771653543307,
                    "duration": 0.43075600000000236
                },
                {
                    "name": "G5",
                    "midi": 79,
                    "time": 46.52164800000018,
                    "velocity": 0.5826771653543307,
                    "duration": 0.43075600000000236
                },
                {
                    "name": "G5",
                    "midi": 79,
                    "time": 47.27547100000018,
                    "velocity": 0.5511811023622047,
                    "duration": 0.10768900000000059
                },
                {
                    "name": "A#5",
                    "midi": 82,
                    "time": 47.27547100000018,
                    "velocity": 0.5511811023622047,
                    "duration": 0.10768900000000059
                },
                {
                    "name": "A#5",
                    "midi": 82,
                    "time": 47.38316000000018,
                    "velocity": 0.5905511811023622,
                    "duration": 0.8615119999999976
                },
                {
                    "name": "G5",
                    "midi": 79,
                    "time": 47.38316000000018,
                    "velocity": 0.5905511811023622,
                    "duration": 0.8615119999999976
                },
                {
                    "name": "G#5",
                    "midi": 80,
                    "time": 48.24467200000018,
                    "velocity": 0.5354330708661418,
                    "duration": 0.21537800000000118
                },
                {
                    "name": "F5",
                    "midi": 77,
                    "time": 48.24467200000018,
                    "velocity": 0.5354330708661418,
                    "duration": 0.21537800000000118
                },
                {
                    "name": "C6",
                    "midi": 84,
                    "time": 49.86000700000018,
                    "velocity": 0.6456692913385826,
                    "duration": 0.10768900000000059
                },
                {
                    "name": "D#6",
                    "midi": 87,
                    "time": 49.86000700000018,
                    "velocity": 0.6456692913385826,
                    "duration": 0.10768900000000059
                },
                {
                    "name": "D#6",
                    "midi": 87,
                    "time": 49.96769600000018,
                    "velocity": 0.7007874015748031,
                    "duration": 0.43075600000000236
                },
                {
                    "name": "C6",
                    "midi": 84,
                    "time": 49.96769600000018,
                    "velocity": 0.7007874015748031,
                    "duration": 0.43075600000000236
                },
                {
                    "name": "C6",
                    "midi": 84,
                    "time": 50.721519000000185,
                    "velocity": 0.6614173228346457,
                    "duration": 0.10768900000000059
                },
                {
                    "name": "D#6",
                    "midi": 87,
                    "time": 50.721519000000185,
                    "velocity": 0.6614173228346457,
                    "duration": 0.10768900000000059
                },
                {
                    "name": "D#6",
                    "midi": 87,
                    "time": 50.829208000000186,
                    "velocity": 0.7086614173228346,
                    "duration": 1.0768899999999988
                },
                {
                    "name": "C6",
                    "midi": 84,
                    "time": 50.829208000000186,
                    "velocity": 0.7086614173228346,
                    "duration": 1.0768899999999988
                },
                {
                    "name": "C#6",
                    "midi": 85,
                    "time": 51.906098000000185,
                    "velocity": 0.6220472440944882,
                    "duration": 0.21537800000000118
                },
                {
                    "name": "A#5",
                    "midi": 82,
                    "time": 51.906098000000185,
                    "velocity": 0.6220472440944882,
                    "duration": 0.21537800000000118
                },
                {
                    "name": "G#5",
                    "midi": 80,
                    "time": 52.121476000000186,
                    "velocity": 0.6062992125984252,
                    "duration": 0.21537800000000118
                },
                {
                    "name": "C6",
                    "midi": 84,
                    "time": 52.121476000000186,
                    "velocity": 0.6062992125984252,
                    "duration": 0.21537800000000118
                },
                {
                    "name": "G5",
                    "midi": 79,
                    "time": 52.33685400000019,
                    "velocity": 0.5748031496062992,
                    "duration": 0.21537800000000118
                },
                {
                    "name": "A#5",
                    "midi": 82,
                    "time": 52.33685400000019,
                    "velocity": 0.5748031496062992,
                    "duration": 0.21537800000000118
                },
                {
                    "name": "F5",
                    "midi": 77,
                    "time": 52.55223200000019,
                    "velocity": 0.6456692913385826,
                    "duration": 0.43075600000000236
                },
                {
                    "name": "G#5",
                    "midi": 80,
                    "time": 52.55223200000019,
                    "velocity": 0.6456692913385826,
                    "duration": 0.43075600000000236
                },
                {
                    "name": "F5",
                    "midi": 77,
                    "time": 53.30605500000019,
                    "velocity": 0.6220472440944882,
                    "duration": 0.10768900000000059
                },
                {
                    "name": "F6",
                    "midi": 89,
                    "time": 53.30605500000019,
                    "velocity": 0.6220472440944882,
                    "duration": 0.10768900000000059
                },
                {
                    "name": "G#5",
                    "midi": 80,
                    "time": 53.30605500000019,
                    "velocity": 0.6220472440944882,
                    "duration": 0.10768900000000059
                },
                {
                    "name": "G5",
                    "midi": 79,
                    "time": 53.41374400000019,
                    "velocity": 0.6456692913385826,
                    "duration": 0.43075600000000236
                },
                {
                    "name": "G6",
                    "midi": 91,
                    "time": 53.41374400000019,
                    "velocity": 0.6456692913385826,
                    "duration": 0.43075600000000236
                },
                {
                    "name": "A#5",
                    "midi": 82,
                    "time": 53.41374400000019,
                    "velocity": 0.6456692913385826,
                    "duration": 0.43075600000000236
                },
                {
                    "name": "E5",
                    "midi": 76,
                    "time": 54.1675670000002,
                    "velocity": 0.6220472440944882,
                    "duration": 0.10768900000000059
                },
                {
                    "name": "E6",
                    "midi": 88,
                    "time": 54.1675670000002,
                    "velocity": 0.6220472440944882,
                    "duration": 0.10768900000000059
                },
                {
                    "name": "G5",
                    "midi": 79,
                    "time": 54.1675670000002,
                    "velocity": 0.6220472440944882,
                    "duration": 0.10768900000000059
                },
                {
                    "name": "F5",
                    "midi": 77,
                    "time": 54.2752560000002,
                    "velocity": 0.5748031496062992,
                    "duration": 0.10768900000000059
                },
                {
                    "name": "F6",
                    "midi": 89,
                    "time": 54.2752560000002,
                    "velocity": 0.5748031496062992,
                    "duration": 0.10768900000000059
                },
                {
                    "name": "G#5",
                    "midi": 80,
                    "time": 54.2752560000002,
                    "velocity": 0.5748031496062992,
                    "duration": 0.10768900000000059
                },
                {
                    "name": "C5",
                    "midi": 72,
                    "time": 54.3829450000002,
                    "velocity": 0.48031496062992124,
                    "duration": 0.10768900000000059
                },
                {
                    "name": "F5",
                    "midi": 77,
                    "time": 54.4906340000002,
                    "velocity": 0.4881889763779528,
                    "duration": 0.10768900000000059
                },
                {
                    "name": "G#5",
                    "midi": 80,
                    "time": 54.5983230000002,
                    "velocity": 0.49606299212598426,
                    "duration": 0.10768900000000059
                },
                {
                    "name": "C6",
                    "midi": 84,
                    "time": 54.7060120000002,
                    "velocity": 0.5354330708661418,
                    "duration": 0.10768900000000059
                },
                {
                    "name": "C#6",
                    "midi": 85,
                    "time": 54.8137010000002,
                    "velocity": 0.5118110236220472,
                    "duration": 0.10768900000000059
                },
                {
                    "name": "C6",
                    "midi": 84,
                    "time": 54.9213900000002,
                    "velocity": 0.5196850393700787,
                    "duration": 0.10768900000000059
                },
                {
                    "name": "A#5",
                    "midi": 82,
                    "time": 55.0290790000002,
                    "velocity": 0.5118110236220472,
                    "duration": 0.10768900000000059
                },
                {
                    "name": "G#5",
                    "midi": 80,
                    "time": 55.1367680000002,
                    "velocity": 0.5354330708661418,
                    "duration": 0.10768900000000059
                },
                {
                    "name": "A#5",
                    "midi": 82,
                    "time": 55.2444570000002,
                    "velocity": 0.5275590551181102,
                    "duration": 0.10768900000000059
                },
                {
                    "name": "G#5",
                    "midi": 80,
                    "time": 55.352146000000204,
                    "velocity": 0.5196850393700787,
                    "duration": 0.10768900000000059
                },
                {
                    "name": "G5",
                    "midi": 79,
                    "time": 55.459835000000204,
                    "velocity": 0.5118110236220472,
                    "duration": 0.10768900000000059
                },
                {
                    "name": "F5",
                    "midi": 77,
                    "time": 55.567524000000205,
                    "velocity": 0.5039370078740157,
                    "duration": 0.10768900000000059
                },
                {
                    "name": "G5",
                    "midi": 79,
                    "time": 55.675213000000205,
                    "velocity": 0.49606299212598426,
                    "duration": 0.10768900000000059
                },
                {
                    "name": "G#5",
                    "midi": 80,
                    "time": 55.782902000000206,
                    "velocity": 0.49606299212598426,
                    "duration": 0.10768900000000059
                },
                {
                    "name": "F5",
                    "midi": 77,
                    "time": 55.89059100000021,
                    "velocity": 0.4881889763779528,
                    "duration": 0.10768900000000059
                },
                {
                    "name": "C5",
                    "midi": 72,
                    "time": 56.10596900000021,
                    "velocity": 0.48031496062992124,
                    "duration": 0.10768900000000059
                },
                {
                    "name": "F5",
                    "midi": 77,
                    "time": 56.21365800000021,
                    "velocity": 0.4881889763779528,
                    "duration": 0.10768900000000059
                },
                {
                    "name": "G#5",
                    "midi": 80,
                    "time": 56.32134700000021,
                    "velocity": 0.49606299212598426,
                    "duration": 0.10768900000000059
                },
                {
                    "name": "C6",
                    "midi": 84,
                    "time": 56.42903600000021,
                    "velocity": 0.5354330708661418,
                    "duration": 0.10768900000000059
                },
                {
                    "name": "C#6",
                    "midi": 85,
                    "time": 56.53672500000021,
                    "velocity": 0.5118110236220472,
                    "duration": 0.10768900000000059
                },
                {
                    "name": "C6",
                    "midi": 84,
                    "time": 56.64441400000021,
                    "velocity": 0.5196850393700787,
                    "duration": 0.10768900000000059
                },
                {
                    "name": "A#5",
                    "midi": 82,
                    "time": 56.75210300000021,
                    "velocity": 0.5118110236220472,
                    "duration": 0.10768900000000059
                },
                {
                    "name": "G#5",
                    "midi": 80,
                    "time": 56.85979200000021,
                    "velocity": 0.5354330708661418,
                    "duration": 0.10768900000000059
                },
                {
                    "name": "A#5",
                    "midi": 82,
                    "time": 56.96748100000021,
                    "velocity": 0.5275590551181102,
                    "duration": 0.10768900000000059
                },
                {
                    "name": "G#5",
                    "midi": 80,
                    "time": 57.07517000000021,
                    "velocity": 0.5196850393700787,
                    "duration": 0.10768900000000059
                },
                {
                    "name": "G5",
                    "midi": 79,
                    "time": 57.182859000000214,
                    "velocity": 0.5118110236220472,
                    "duration": 0.10768900000000059
                },
                {
                    "name": "F5",
                    "midi": 77,
                    "time": 57.290548000000214,
                    "velocity": 0.5039370078740157,
                    "duration": 0.10768900000000059
                },
                {
                    "name": "G5",
                    "midi": 79,
                    "time": 57.398237000000215,
                    "velocity": 0.49606299212598426,
                    "duration": 0.10768900000000059
                },
                {
                    "name": "G#5",
                    "midi": 80,
                    "time": 57.505926000000215,
                    "velocity": 0.49606299212598426,
                    "duration": 0.10768900000000059
                },
                {
                    "name": "F5",
                    "midi": 77,
                    "time": 57.613615000000216,
                    "velocity": 0.4881889763779528,
                    "duration": 0.10768900000000059
                },
                {
                    "name": "F5",
                    "midi": 77,
                    "time": 57.82899300000022,
                    "velocity": 0.5039370078740157,
                    "duration": 0.10768900000000059
                },
                {
                    "name": "B5",
                    "midi": 83,
                    "time": 57.93668200000022,
                    "velocity": 0.5118110236220472,
                    "duration": 0.10768900000000059
                },
                {
                    "name": "D6",
                    "midi": 86,
                    "time": 58.04437100000022,
                    "velocity": 0.5196850393700787,
                    "duration": 0.10768900000000059
                },
                {
                    "name": "F6",
                    "midi": 89,
                    "time": 58.15206000000022,
                    "velocity": 0.5669291338582677,
                    "duration": 0.10768900000000059
                },
                {
                    "name": "G6",
                    "midi": 91,
                    "time": 58.25974900000022,
                    "velocity": 0.5433070866141733,
                    "duration": 0.10768900000000059
                },
                {
                    "name": "F6",
                    "midi": 89,
                    "time": 58.36743800000022,
                    "velocity": 0.5511811023622047,
                    "duration": 0.10768900000000059
                },
                {
                    "name": "D#6",
                    "midi": 87,
                    "time": 58.47512700000022,
                    "velocity": 0.5433070866141733,
                    "duration": 0.10768900000000059
                },
                {
                    "name": "D6",
                    "midi": 86,
                    "time": 58.58281600000022,
                    "velocity": 0.5669291338582677,
                    "duration": 0.10768900000000059
                },
                {
                    "name": "D#6",
                    "midi": 87,
                    "time": 58.69050500000022,
                    "velocity": 0.5590551181102362,
                    "duration": 0.10768900000000059
                },
                {
                    "name": "D6",
                    "midi": 86,
                    "time": 58.79819400000022,
                    "velocity": 0.5511811023622047,
                    "duration": 0.10768900000000059
                },
                {
                    "name": "C6",
                    "midi": 84,
                    "time": 58.90588300000022,
                    "velocity": 0.5433070866141733,
                    "duration": 0.10768900000000059
                },
                {
                    "name": "B5",
                    "midi": 83,
                    "time": 59.013572000000224,
                    "velocity": 0.5354330708661418,
                    "duration": 0.10768900000000059
                },
                {
                    "name": "C6",
                    "midi": 84,
                    "time": 59.121261000000224,
                    "velocity": 0.5275590551181102,
                    "duration": 0.10768900000000059
                },
                {
                    "name": "D6",
                    "midi": 86,
                    "time": 59.228950000000225,
                    "velocity": 0.5196850393700787,
                    "duration": 0.10768900000000059
                },
                {
                    "name": "B5",
                    "midi": 83,
                    "time": 59.336639000000226,
                    "velocity": 0.5118110236220472,
                    "duration": 0.10768900000000059
                },
                {
                    "name": "F5",
                    "midi": 77,
                    "time": 59.55201700000023,
                    "velocity": 0.5039370078740157,
                    "duration": 0.10768900000000059
                },
                {
                    "name": "B5",
                    "midi": 83,
                    "time": 59.65970600000023,
                    "velocity": 0.5118110236220472,
                    "duration": 0.10768900000000059
                },
                {
                    "name": "D6",
                    "midi": 86,
                    "time": 59.76739500000023,
                    "velocity": 0.5196850393700787,
                    "duration": 0.10768900000000059
                },
                {
                    "name": "F6",
                    "midi": 89,
                    "time": 59.87508400000023,
                    "velocity": 0.5669291338582677,
                    "duration": 0.10768900000000059
                },
                {
                    "name": "G6",
                    "midi": 91,
                    "time": 59.98277300000023,
                    "velocity": 0.5433070866141733,
                    "duration": 0.10768900000000059
                },
                {
                    "name": "F6",
                    "midi": 89,
                    "time": 60.09046200000023,
                    "velocity": 0.5511811023622047,
                    "duration": 0.10768900000000059
                },
                {
                    "name": "D#6",
                    "midi": 87,
                    "time": 60.19815100000023,
                    "velocity": 0.5433070866141733,
                    "duration": 0.10768900000000059
                },
                {
                    "name": "D6",
                    "midi": 86,
                    "time": 60.30584000000023,
                    "velocity": 0.5669291338582677,
                    "duration": 0.10768900000000059
                },
                {
                    "name": "D#6",
                    "midi": 87,
                    "time": 60.41352900000023,
                    "velocity": 0.5590551181102362,
                    "duration": 0.10768900000000059
                },
                {
                    "name": "D6",
                    "midi": 86,
                    "time": 60.52121800000023,
                    "velocity": 0.5511811023622047,
                    "duration": 0.10768900000000059
                },
                {
                    "name": "C6",
                    "midi": 84,
                    "time": 60.62890700000023,
                    "velocity": 0.5433070866141733,
                    "duration": 0.10768900000000059
                },
                {
                    "name": "B5",
                    "midi": 83,
                    "time": 60.73659600000023,
                    "velocity": 0.5354330708661418,
                    "duration": 0.10768900000000059
                },
                {
                    "name": "C6",
                    "midi": 84,
                    "time": 60.844285000000234,
                    "velocity": 0.5275590551181102,
                    "duration": 0.10768900000000059
                },
                {
                    "name": "D6",
                    "midi": 86,
                    "time": 60.951974000000234,
                    "velocity": 0.5196850393700787,
                    "duration": 0.10768900000000059
                },
                {
                    "name": "B5",
                    "midi": 83,
                    "time": 61.059663000000235,
                    "velocity": 0.5118110236220472,
                    "duration": 0.10768900000000059
                },
                {
                    "name": "G5",
                    "midi": 79,
                    "time": 61.275041000000236,
                    "velocity": 0.5275590551181102,
                    "duration": 0.10768900000000059
                },
                {
                    "name": "C6",
                    "midi": 84,
                    "time": 61.38273000000024,
                    "velocity": 0.5354330708661418,
                    "duration": 0.10768900000000059
                },
                {
                    "name": "D#6",
                    "midi": 87,
                    "time": 61.49041900000024,
                    "velocity": 0.5433070866141733,
                    "duration": 0.10768900000000059
                },
                {
                    "name": "G6",
                    "midi": 91,
                    "time": 61.59810800000024,
                    "velocity": 0.5905511811023622,
                    "duration": 0.10768900000000059
                },
                {
                    "name": "G#6",
                    "midi": 92,
                    "time": 61.70579700000024,
                    "velocity": 0.5669291338582677,
                    "duration": 0.10768900000000059
                },
                {
                    "name": "G6",
                    "midi": 91,
                    "time": 61.81348600000024,
                    "velocity": 0.5748031496062992,
                    "duration": 0.10768900000000059
                },
                {
                    "name": "F6",
                    "midi": 89,
                    "time": 61.92117500000024,
                    "velocity": 0.5669291338582677,
                    "duration": 0.10768900000000059
                },
                {
                    "name": "D#6",
                    "midi": 87,
                    "time": 62.02886400000024,
                    "velocity": 0.5905511811023622,
                    "duration": 0.10768900000000059
                },
                {
                    "name": "F6",
                    "midi": 89,
                    "time": 62.13655300000024,
                    "velocity": 0.5826771653543307,
                    "duration": 0.10768900000000059
                },
                {
                    "name": "D#6",
                    "midi": 87,
                    "time": 62.24424200000024,
                    "velocity": 0.5748031496062992,
                    "duration": 0.10768900000000059
                },
                {
                    "name": "D6",
                    "midi": 86,
                    "time": 62.35193100000024,
                    "velocity": 0.5669291338582677,
                    "duration": 0.10768900000000059
                },
                {
                    "name": "C6",
                    "midi": 84,
                    "time": 62.45962000000024,
                    "velocity": 0.5590551181102362,
                    "duration": 0.10768900000000059
                },
                {
                    "name": "D6",
                    "midi": 86,
                    "time": 62.56730900000024,
                    "velocity": 0.5511811023622047,
                    "duration": 0.10768900000000059
                },
                {
                    "name": "D#6",
                    "midi": 87,
                    "time": 62.674998000000244,
                    "velocity": 0.5433070866141733,
                    "duration": 0.10768900000000059
                },
                {
                    "name": "C6",
                    "midi": 84,
                    "time": 62.782687000000244,
                    "velocity": 0.5354330708661418,
                    "duration": 0.10768900000000059
                },
                {
                    "name": "G5",
                    "midi": 79,
                    "time": 62.998065000000246,
                    "velocity": 0.5275590551181102,
                    "duration": 0.10768900000000059
                },
                {
                    "name": "C6",
                    "midi": 84,
                    "time": 63.105754000000246,
                    "velocity": 0.5354330708661418,
                    "duration": 0.10768900000000059
                },
                {
                    "name": "D#6",
                    "midi": 87,
                    "time": 63.21344300000025,
                    "velocity": 0.5433070866141733,
                    "duration": 0.10768900000000059
                },
                {
                    "name": "G6",
                    "midi": 91,
                    "time": 63.32113200000025,
                    "velocity": 0.5984251968503937,
                    "duration": 0.10768900000000059
                },
                {
                    "name": "G#6",
                    "midi": 92,
                    "time": 63.42882100000025,
                    "velocity": 0.5826771653543307,
                    "duration": 0.10768900000000059
                },
                {
                    "name": "G6",
                    "midi": 91,
                    "time": 63.53651000000025,
                    "velocity": 0.5905511811023622,
                    "duration": 0.10768900000000059
                },
                {
                    "name": "F6",
                    "midi": 89,
                    "time": 63.64419900000025,
                    "velocity": 0.5826771653543307,
                    "duration": 0.10768900000000059
                },
                {
                    "name": "D#6",
                    "midi": 87,
                    "time": 63.75188800000025,
                    "velocity": 0.6141732283464567,
                    "duration": 0.10768900000000059
                },
                {
                    "name": "F6",
                    "midi": 89,
                    "time": 63.85957700000025,
                    "velocity": 0.6062992125984252,
                    "duration": 0.10768900000000059
                },
                {
                    "name": "D#6",
                    "midi": 87,
                    "time": 63.96726600000025,
                    "velocity": 0.6062992125984252,
                    "duration": 0.10768899999999348
                },
                {
                    "name": "D6",
                    "midi": 86,
                    "time": 64.07495500000024,
                    "velocity": 0.5984251968503937,
                    "duration": 0.10768899999999348
                },
                {
                    "name": "C6",
                    "midi": 84,
                    "time": 64.18264400000024,
                    "velocity": 0.5905511811023622,
                    "duration": 0.10768899999999348
                },
                {
                    "name": "D6",
                    "midi": 86,
                    "time": 64.29033300000023,
                    "velocity": 0.5905511811023622,
                    "duration": 0.10768899999999348
                },
                {
                    "name": "D#6",
                    "midi": 87,
                    "time": 64.39802200000022,
                    "velocity": 0.5826771653543307,
                    "duration": 0.10768899999999348
                },
                {
                    "name": "C6",
                    "midi": 84,
                    "time": 64.50571100000022,
                    "velocity": 0.5826771653543307,
                    "duration": 0.10768899999999348
                },
                {
                    "name": "C#6",
                    "midi": 85,
                    "time": 64.7210890000002,
                    "velocity": 0.5511811023622047,
                    "duration": 0.10768899999999348
                },
                {
                    "name": "D#6",
                    "midi": 87,
                    "time": 64.8287780000002,
                    "velocity": 0.5748031496062992,
                    "duration": 0.10768899999999348
                },
                {
                    "name": "C#6",
                    "midi": 85,
                    "time": 64.93646700000019,
                    "velocity": 0.5511811023622047,
                    "duration": 0.10768899999999348
                },
                {
                    "name": "D#6",
                    "midi": 87,
                    "time": 65.04415600000019,
                    "velocity": 0.5118110236220472,
                    "duration": 0.10768899999999348
                },
                {
                    "name": "C#6",
                    "midi": 85,
                    "time": 65.15184500000018,
                    "velocity": 0.49606299212598426,
                    "duration": 0.10768899999999348
                },
                {
                    "name": "C6",
                    "midi": 84,
                    "time": 65.25953400000017,
                    "velocity": 0.4645669291338583,
                    "duration": 0.10768899999999348
                },
                {
                    "name": "C#6",
                    "midi": 85,
                    "time": 65.36722300000017,
                    "velocity": 0.4645669291338583,
                    "duration": 0.10768899999999348
                },
                {
                    "name": "B5",
                    "midi": 83,
                    "time": 65.58260100000015,
                    "velocity": 0.4566929133858268,
                    "duration": 0.10768899999999348
                },
                {
                    "name": "C6",
                    "midi": 84,
                    "time": 65.69029000000015,
                    "velocity": 0.47244094488188976,
                    "duration": 0.10768899999999348
                },
                {
                    "name": "B5",
                    "midi": 83,
                    "time": 65.79797900000014,
                    "velocity": 0.44881889763779526,
                    "duration": 0.10768899999999348
                },
                {
                    "name": "C6",
                    "midi": 84,
                    "time": 66.01335700000013,
                    "velocity": 0.44881889763779526,
                    "duration": 0.10768899999999348
                },
                {
                    "name": "D6",
                    "midi": 86,
                    "time": 66.12104600000012,
                    "velocity": 0.47244094488188976,
                    "duration": 0.10768899999999348
                },
                {
                    "name": "C6",
                    "midi": 84,
                    "time": 66.22873500000011,
                    "velocity": 0.4409448818897638,
                    "duration": 0.10768899999999348
                },
                {
                    "name": "C#6",
                    "midi": 85,
                    "time": 66.4441130000001,
                    "velocity": 0.5511811023622047,
                    "duration": 0.10768899999999348
                },
                {
                    "name": "D#6",
                    "midi": 87,
                    "time": 66.5518020000001,
                    "velocity": 0.5748031496062992,
                    "duration": 0.10768899999999348
                },
                {
                    "name": "C#6",
                    "midi": 85,
                    "time": 66.65949100000009,
                    "velocity": 0.5511811023622047,
                    "duration": 0.10768899999999348
                },
                {
                    "name": "D#6",
                    "midi": 87,
                    "time": 66.76718000000008,
                    "velocity": 0.5118110236220472,
                    "duration": 0.10768899999999348
                },
                {
                    "name": "C#6",
                    "midi": 85,
                    "time": 66.87486900000007,
                    "velocity": 0.49606299212598426,
                    "duration": 0.10768899999999348
                },
                {
                    "name": "C6",
                    "midi": 84,
                    "time": 66.98255800000007,
                    "velocity": 0.4645669291338583,
                    "duration": 0.10768899999999348
                },
                {
                    "name": "C#6",
                    "midi": 85,
                    "time": 67.09024700000006,
                    "velocity": 0.4645669291338583,
                    "duration": 0.10768899999999348
                },
                {
                    "name": "B5",
                    "midi": 83,
                    "time": 67.30562500000005,
                    "velocity": 0.4566929133858268,
                    "duration": 0.10768899999999348
                },
                {
                    "name": "C6",
                    "midi": 84,
                    "time": 67.41331400000004,
                    "velocity": 0.47244094488188976,
                    "duration": 0.10768899999999348
                },
                {
                    "name": "B5",
                    "midi": 83,
                    "time": 67.52100300000004,
                    "velocity": 0.44881889763779526,
                    "duration": 0.10768899999999348
                },
                {
                    "name": "C6",
                    "midi": 84,
                    "time": 67.73638100000002,
                    "velocity": 0.44881889763779526,
                    "duration": 0.10768899999999348
                },
                {
                    "name": "D6",
                    "midi": 86,
                    "time": 67.84407000000002,
                    "velocity": 0.47244094488188976,
                    "duration": 0.10768899999999348
                },
                {
                    "name": "C6",
                    "midi": 84,
                    "time": 67.95175900000001,
                    "velocity": 0.4409448818897638,
                    "duration": 0.10768899999999348
                },
                {
                    "name": "C#6",
                    "midi": 85,
                    "time": 68.167137,
                    "velocity": 0.5511811023622047,
                    "duration": 0.10768899999999348
                },
                {
                    "name": "D#6",
                    "midi": 87,
                    "time": 68.27482599999999,
                    "velocity": 0.5748031496062992,
                    "duration": 0.10768899999999348
                },
                {
                    "name": "C#6",
                    "midi": 85,
                    "time": 68.38251499999998,
                    "velocity": 0.5511811023622047,
                    "duration": 0.10768899999999348
                },
                {
                    "name": "D#6",
                    "midi": 87,
                    "time": 68.49020399999998,
                    "velocity": 0.5748031496062992,
                    "duration": 0.10768899999999348
                },
                {
                    "name": "C#6",
                    "midi": 85,
                    "time": 68.59789299999997,
                    "velocity": 0.5511811023622047,
                    "duration": 0.10768899999999348
                },
                {
                    "name": "C6",
                    "midi": 84,
                    "time": 68.70558199999996,
                    "velocity": 0.4645669291338583,
                    "duration": 0.10768899999999348
                },
                {
                    "name": "D6",
                    "midi": 86,
                    "time": 68.81327099999996,
                    "velocity": 0.4645669291338583,
                    "duration": 0.10768899999999348
                },
                {
                    "name": "B5",
                    "midi": 83,
                    "time": 69.02864899999994,
                    "velocity": 0.4566929133858268,
                    "duration": 0.10768899999999348
                },
                {
                    "name": "C6",
                    "midi": 84,
                    "time": 69.13633799999994,
                    "velocity": 0.47244094488188976,
                    "duration": 0.10768899999999348
                },
                {
                    "name": "B5",
                    "midi": 83,
                    "time": 69.24402699999993,
                    "velocity": 0.4566929133858268,
                    "duration": 0.10768899999999348
                },
                {
                    "name": "G#5",
                    "midi": 80,
                    "time": 69.45940499999992,
                    "velocity": 0.4566929133858268,
                    "duration": 0.10768899999999348
                },
                {
                    "name": "A#5",
                    "midi": 82,
                    "time": 69.56709399999991,
                    "velocity": 0.48031496062992124,
                    "duration": 0.10768899999999348
                },
                {
                    "name": "G#5",
                    "midi": 80,
                    "time": 69.6747829999999,
                    "velocity": 0.44881889763779526,
                    "duration": 0.10768899999999348
                },
                {
                    "name": "G5",
                    "midi": 79,
                    "time": 69.89016099999989,
                    "velocity": 0.47244094488188976,
                    "duration": 0.10768899999999348
                },
                {
                    "name": "G#5",
                    "midi": 80,
                    "time": 69.99784999999989,
                    "velocity": 0.4881889763779528,
                    "duration": 0.10768899999999348
                },
                {
                    "name": "G5",
                    "midi": 79,
                    "time": 70.10553899999988,
                    "velocity": 0.47244094488188976,
                    "duration": 0.10768899999999348
                },
                {
                    "name": "F#5",
                    "midi": 78,
                    "time": 70.32091699999987,
                    "velocity": 0.48031496062992124,
                    "duration": 0.10768899999999348
                },
                {
                    "name": "G5",
                    "midi": 79,
                    "time": 70.42860599999986,
                    "velocity": 0.5118110236220472,
                    "duration": 0.10768899999999348
                },
                {
                    "name": "F#5",
                    "midi": 78,
                    "time": 70.53629499999985,
                    "velocity": 0.4881889763779528,
                    "duration": 0.10768899999999348
                },
                {
                    "name": "F5",
                    "midi": 77,
                    "time": 70.75167299999984,
                    "velocity": 0.5118110236220472,
                    "duration": 0.10768899999999348
                },
                {
                    "name": "G5",
                    "midi": 79,
                    "time": 70.85936199999983,
                    "velocity": 0.5275590551181102,
                    "duration": 0.10768899999999348
                },
                {
                    "name": "F5",
                    "midi": 77,
                    "time": 70.96705099999983,
                    "velocity": 0.5039370078740157,
                    "duration": 0.10768899999999348
                },
                {
                    "name": "D#5",
                    "midi": 75,
                    "time": 71.18242899999981,
                    "velocity": 0.5196850393700787,
                    "duration": 0.10768899999999348
                },
                {
                    "name": "F5",
                    "midi": 77,
                    "time": 71.29011799999981,
                    "velocity": 0.5433070866141733,
                    "duration": 0.10768899999999348
                },
                {
                    "name": "D#5",
                    "midi": 75,
                    "time": 71.3978069999998,
                    "velocity": 0.5275590551181102,
                    "duration": 0.10768899999999348
                },
                {
                    "name": "D#5",
                    "midi": 75,
                    "time": 71.61318499999979,
                    "velocity": 0.5275590551181102,
                    "duration": 0.10768899999999348
                },
                {
                    "name": "F5",
                    "midi": 77,
                    "time": 71.72087399999978,
                    "velocity": 0.5511811023622047,
                    "duration": 0.10768899999999348
                },
                {
                    "name": "D#5",
                    "midi": 75,
                    "time": 71.82856299999978,
                    "velocity": 0.5354330708661418,
                    "duration": 0.10768899999999348
                },
                {
                    "name": "D5",
                    "midi": 74,
                    "time": 72.04394099999976,
                    "velocity": 0.5196850393700787,
                    "duration": 0.10768899999999348
                },
                {
                    "name": "D#5",
                    "midi": 75,
                    "time": 72.15162999999976,
                    "velocity": 0.5433070866141733,
                    "duration": 0.10768899999999348
                },
                {
                    "name": "D5",
                    "midi": 74,
                    "time": 72.25931899999975,
                    "velocity": 0.5039370078740157,
                    "duration": 0.10768899999999348
                },
                {
                    "name": "C5",
                    "midi": 72,
                    "time": 72.47469699999974,
                    "velocity": 0.5039370078740157,
                    "duration": 0.10768899999999348
                },
                {
                    "name": "D5",
                    "midi": 74,
                    "time": 72.58238599999973,
                    "velocity": 0.5118110236220472,
                    "duration": 0.10768899999999348
                },
                {
                    "name": "C5",
                    "midi": 72,
                    "time": 72.69007499999972,
                    "velocity": 0.4881889763779528,
                    "duration": 0.10768899999999348
                },
                {
                    "name": "B4",
                    "midi": 71,
                    "time": 72.90545299999971,
                    "velocity": 0.47244094488188976,
                    "duration": 0.10768899999999348
                },
                {
                    "name": "C5",
                    "midi": 72,
                    "time": 73.0131419999997,
                    "velocity": 0.4881889763779528,
                    "duration": 0.10768899999999348
                },
                {
                    "name": "B4",
                    "midi": 71,
                    "time": 73.1208309999997,
                    "velocity": 0.44881889763779526,
                    "duration": 0.10768899999999348
                },
                {
                    "name": "G#4",
                    "midi": 68,
                    "time": 73.33620899999968,
                    "velocity": 0.5196850393700787,
                    "duration": 0.10768899999999348
                },
                {
                    "name": "G#5",
                    "midi": 80,
                    "time": 73.44389799999968,
                    "velocity": 0.5748031496062992,
                    "duration": 0.10768899999999348
                },
                {
                    "name": "G#4",
                    "midi": 68,
                    "time": 73.55158699999967,
                    "velocity": 0.4645669291338583,
                    "duration": 0.10768899999999348
                },
                {
                    "name": "G#5",
                    "midi": 80,
                    "time": 73.65927599999966,
                    "velocity": 0.5590551181102362,
                    "duration": 0.10768899999999348
                },
                {
                    "name": "G#4",
                    "midi": 68,
                    "time": 73.76696499999966,
                    "velocity": 0.4566929133858268,
                    "duration": 0.10768899999999348
                },
                {
                    "name": "G#5",
                    "midi": 80,
                    "time": 73.87465399999965,
                    "velocity": 0.49606299212598426,
                    "duration": 0.10768899999999348
                },
                {
                    "name": "G#4",
                    "midi": 68,
                    "time": 73.98234299999964,
                    "velocity": 0.4645669291338583,
                    "duration": 0.10768899999999348
                },
                {
                    "name": "G#4",
                    "midi": 68,
                    "time": 74.19772099999963,
                    "velocity": 0.47244094488188976,
                    "duration": 0.10768899999999348
                },
                {
                    "name": "G#5",
                    "midi": 80,
                    "time": 74.30540999999963,
                    "velocity": 0.5590551181102362,
                    "duration": 0.10768899999999348
                },
                {
                    "name": "G5",
                    "midi": 79,
                    "time": 74.41309899999962,
                    "velocity": 0.5196850393700787,
                    "duration": 0.10768899999999348
                },
                {
                    "name": "F5",
                    "midi": 77,
                    "time": 74.52078799999961,
                    "velocity": 0.5354330708661418,
                    "duration": 0.10768899999999348
                },
                {
                    "name": "D#5",
                    "midi": 75,
                    "time": 74.6284769999996,
                    "velocity": 0.5196850393700787,
                    "duration": 0.10768899999999348
                },
                {
                    "name": "D5",
                    "midi": 74,
                    "time": 74.7361659999996,
                    "velocity": 0.5118110236220472,
                    "duration": 0.10768899999999348
                },
                {
                    "name": "C5",
                    "midi": 72,
                    "time": 74.84385499999959,
                    "velocity": 0.4566929133858268,
                    "duration": 0.10768899999999348
                },
                {
                    "name": "G#5",
                    "midi": 80,
                    "time": 75.05923299999958,
                    "velocity": 0.5354330708661418,
                    "duration": 0.10768899999999348
                },
                {
                    "name": "G#6",
                    "midi": 92,
                    "time": 75.16692199999957,
                    "velocity": 0.5905511811023622,
                    "duration": 0.10768899999999348
                },
                {
                    "name": "G#5",
                    "midi": 80,
                    "time": 75.27461099999957,
                    "velocity": 0.5275590551181102,
                    "duration": 0.10768899999999348
                },
                {
                    "name": "G#6",
                    "midi": 92,
                    "time": 75.38229999999956,
                    "velocity": 0.5826771653543307,
                    "duration": 0.10768899999999348
                },
                {
                    "name": "G#5",
                    "midi": 80,
                    "time": 75.48998899999955,
                    "velocity": 0.5275590551181102,
                    "duration": 0.10768899999999348
                },
                {
                    "name": "G#6",
                    "midi": 92,
                    "time": 75.59767799999955,
                    "velocity": 0.5433070866141733,
                    "duration": 0.10768899999999348
                },
                {
                    "name": "G#5",
                    "midi": 80,
                    "time": 75.70536699999954,
                    "velocity": 0.47244094488188976,
                    "duration": 0.10768899999999348
                },
                {
                    "name": "G#5",
                    "midi": 80,
                    "time": 75.92074499999953,
                    "velocity": 0.48031496062992124,
                    "duration": 0.10768899999999348
                },
                {
                    "name": "G#6",
                    "midi": 92,
                    "time": 76.02843399999952,
                    "velocity": 0.5748031496062992,
                    "duration": 0.10768899999999348
                },
                {
                    "name": "G6",
                    "midi": 91,
                    "time": 76.13612299999951,
                    "velocity": 0.5196850393700787,
                    "duration": 0.10768899999999348
                },
                {
                    "name": "F6",
                    "midi": 89,
                    "time": 76.24381199999951,
                    "velocity": 0.5511811023622047,
                    "duration": 0.10768899999999348
                },
                {
                    "name": "D#6",
                    "midi": 87,
                    "time": 76.3515009999995,
                    "velocity": 0.5354330708661418,
                    "duration": 0.10768899999999348
                },
                {
                    "name": "D6",
                    "midi": 86,
                    "time": 76.4591899999995,
                    "velocity": 0.5275590551181102,
                    "duration": 0.10768899999999348
                },
                {
                    "name": "C6",
                    "midi": 84,
                    "time": 76.56687899999949,
                    "velocity": 0.5118110236220472,
                    "duration": 0.10768899999999348
                },
                {
                    "name": "G#4",
                    "midi": 68,
                    "time": 76.78225699999948,
                    "velocity": 0.5196850393700787,
                    "duration": 0.10768899999999348
                },
                {
                    "name": "G#5",
                    "midi": 80,
                    "time": 76.88994599999947,
                    "velocity": 0.5748031496062992,
                    "duration": 0.10768899999999348
                },
                {
                    "name": "G#4",
                    "midi": 68,
                    "time": 76.99763499999946,
                    "velocity": 0.5196850393700787,
                    "duration": 0.10768899999999348
                },
                {
                    "name": "G#5",
                    "midi": 80,
                    "time": 77.10532399999946,
                    "velocity": 0.5748031496062992,
                    "duration": 0.10768899999999348
                },
                {
                    "name": "G#4",
                    "midi": 68,
                    "time": 77.21301299999945,
                    "velocity": 0.5196850393700787,
                    "duration": 0.10768899999999348
                },
                {
                    "name": "G#5",
                    "midi": 80,
                    "time": 77.32070199999944,
                    "velocity": 0.5354330708661418,
                    "duration": 0.10768899999999348
                },
                {
                    "name": "G#4",
                    "midi": 68,
                    "time": 77.42839099999944,
                    "velocity": 0.48031496062992124,
                    "duration": 0.10768899999999348
                },
                {
                    "name": "G#5",
                    "midi": 80,
                    "time": 77.64376899999942,
                    "velocity": 0.5354330708661418,
                    "duration": 0.10768899999999348
                },
                {
                    "name": "G#4",
                    "midi": 68,
                    "time": 77.75145799999942,
                    "velocity": 0.47244094488188976,
                    "duration": 0.10768899999999348
                },
                {
                    "name": "G#5",
                    "midi": 80,
                    "time": 77.85914699999941,
                    "velocity": 0.5354330708661418,
                    "duration": 0.10768899999999348
                },
                {
                    "name": "G#6",
                    "midi": 92,
                    "time": 78.0745249999994,
                    "velocity": 0.6141732283464567,
                    "duration": 0.10768899999999348
                },
                {
                    "name": "G#5",
                    "midi": 80,
                    "time": 78.18221399999939,
                    "velocity": 0.5433070866141733,
                    "duration": 0.10768899999999348
                },
                {
                    "name": "G#6",
                    "midi": 92,
                    "time": 78.28990299999938,
                    "velocity": 0.5905511811023622,
                    "duration": 0.10768899999999348
                },
                {
                    "name": "G6",
                    "midi": 91,
                    "time": 78.50528099999937,
                    "velocity": 0.6141732283464567,
                    "duration": 0.10768899999999348
                },
                {
                    "name": "G5",
                    "midi": 79,
                    "time": 78.61296999999936,
                    "velocity": 0.5590551181102362,
                    "duration": 0.10768899999999348
                },
                {
                    "name": "G6",
                    "midi": 91,
                    "time": 78.72065899999936,
                    "velocity": 0.5826771653543307,
                    "duration": 0.10768899999999348
                },
                {
                    "name": "F#6",
                    "midi": 90,
                    "time": 78.93603699999935,
                    "velocity": 0.5905511811023622,
                    "duration": 0.10768899999999348
                },
                {
                    "name": "F#5",
                    "midi": 78,
                    "time": 79.04372599999934,
                    "velocity": 0.5590551181102362,
                    "duration": 0.10768899999999348
                },
                {
                    "name": "F#6",
                    "midi": 90,
                    "time": 79.15141499999933,
                    "velocity": 0.5826771653543307,
                    "duration": 0.10768899999999348
                },
                {
                    "name": "F6",
                    "midi": 89,
                    "time": 79.36679299999932,
                    "velocity": 0.6141732283464567,
                    "duration": 0.10768899999999348
                },
                {
                    "name": "F5",
                    "midi": 77,
                    "time": 79.47448199999931,
                    "velocity": 0.5433070866141733,
                    "duration": 0.10768899999999348
                },
                {
                    "name": "F6",
                    "midi": 89,
                    "time": 79.5821709999993,
                    "velocity": 0.5826771653543307,
                    "duration": 0.10768899999999348
                },
                {
                    "name": "D#6",
                    "midi": 87,
                    "time": 79.7975489999993,
                    "velocity": 0.6062992125984252,
                    "duration": 0.10768899999999348
                },
                {
                    "name": "G5",
                    "midi": 79,
                    "time": 79.90523799999929,
                    "velocity": 0.5590551181102362,
                    "duration": 0.10768899999999348
                },
                {
                    "name": "D#5",
                    "midi": 75,
                    "time": 79.90523799999929,
                    "velocity": 0.5590551181102362,
                    "duration": 0.10768899999999348
                },
                {
                    "name": "D#6",
                    "midi": 87,
                    "time": 80.01292699999928,
                    "velocity": 0.5905511811023622,
                    "duration": 0.10768899999999348
                },
                {
                    "name": "D#6",
                    "midi": 87,
                    "time": 80.22830499999927,
                    "velocity": 0.5905511811023622,
                    "duration": 0.10768899999999348
                },
                {
                    "name": "A5",
                    "midi": 81,
                    "time": 80.33599399999926,
                    "velocity": 0.5354330708661418,
                    "duration": 0.10768899999999348
                },
                {
                    "name": "D#5",
                    "midi": 75,
                    "time": 80.33599399999926,
                    "velocity": 0.5354330708661418,
                    "duration": 0.10768899999999348
                },
                {
                    "name": "D#6",
                    "midi": 87,
                    "time": 80.44368299999925,
                    "velocity": 0.5905511811023622,
                    "duration": 0.10768899999999348
                },
                {
                    "name": "D6",
                    "midi": 86,
                    "time": 80.65906099999924,
                    "velocity": 0.5748031496062992,
                    "duration": 0.10768899999999348
                },
                {
                    "name": "A5",
                    "midi": 81,
                    "time": 80.76674999999923,
                    "velocity": 0.5196850393700787,
                    "duration": 0.10768899999999348
                },
                {
                    "name": "D5",
                    "midi": 74,
                    "time": 80.76674999999923,
                    "velocity": 0.5196850393700787,
                    "duration": 0.10768899999999348
                },
                {
                    "name": "D6",
                    "midi": 86,
                    "time": 80.87443899999923,
                    "velocity": 0.5748031496062992,
                    "duration": 0.10768899999999348
                },
                {
                    "name": "C6",
                    "midi": 84,
                    "time": 81.08981699999921,
                    "velocity": 0.5590551181102362,
                    "duration": 0.10768899999999348
                },
                {
                    "name": "D#5",
                    "midi": 75,
                    "time": 81.19750599999921,
                    "velocity": 0.5196850393700787,
                    "duration": 0.10768899999999348
                },
                {
                    "name": "C5",
                    "midi": 72,
                    "time": 81.19750599999921,
                    "velocity": 0.5196850393700787,
                    "duration": 0.10768899999999348
                },
                {
                    "name": "C6",
                    "midi": 84,
                    "time": 81.3051949999992,
                    "velocity": 0.5590551181102362,
                    "duration": 0.10768899999999348
                },
                {
                    "name": "B5",
                    "midi": 83,
                    "time": 81.52057299999919,
                    "velocity": 0.5433070866141733,
                    "duration": 0.10768899999999348
                },
                {
                    "name": "B4",
                    "midi": 71,
                    "time": 81.62826199999918,
                    "velocity": 0.4881889763779528,
                    "duration": 0.10768899999999348
                },
                {
                    "name": "D5",
                    "midi": 74,
                    "time": 81.62826199999918,
                    "velocity": 0.4881889763779528,
                    "duration": 0.10768899999999348
                },
                {
                    "name": "B5",
                    "midi": 83,
                    "time": 81.73595099999918,
                    "velocity": 0.5039370078740157,
                    "duration": 0.10768899999999348
                },
                {
                    "name": "G5",
                    "midi": 79,
                    "time": 81.84363999999917,
                    "velocity": 0.5118110236220472,
                    "duration": 0.10768899999999348
                },
                {
                    "name": "C6",
                    "midi": 84,
                    "time": 81.84363999999917,
                    "velocity": 0.6062992125984252,
                    "duration": 0.10768899999999348
                },
                {
                    "name": "D#5",
                    "midi": 75,
                    "time": 81.84363999999917,
                    "velocity": 0.5118110236220472,
                    "duration": 0.10768899999999348
                },
                {
                    "name": "C5",
                    "midi": 72,
                    "time": 81.84363999999917,
                    "velocity": 0.5118110236220472,
                    "duration": 0.10768899999999348
                },
                {
                    "name": "G4",
                    "midi": 67,
                    "time": 81.95132899999916,
                    "velocity": 0.5826771653543307,
                    "duration": 0.10768899999999348
                },
                {
                    "name": "C5",
                    "midi": 72,
                    "time": 82.05901799999916,
                    "velocity": 0.5984251968503937,
                    "duration": 0.10768899999999348
                },
                {
                    "name": "D#5",
                    "midi": 75,
                    "time": 82.16670699999915,
                    "velocity": 0.6141732283464567,
                    "duration": 0.10768899999999348
                },
                {
                    "name": "G5",
                    "midi": 79,
                    "time": 82.27439599999914,
                    "velocity": 0.6299212598425197,
                    "duration": 0.10768899999999348
                },
                {
                    "name": "G#5",
                    "midi": 80,
                    "time": 82.38208499999914,
                    "velocity": 0.5984251968503937,
                    "duration": 0.10768899999999348
                },
                {
                    "name": "G5",
                    "midi": 79,
                    "time": 82.48977399999913,
                    "velocity": 0.5984251968503937,
                    "duration": 0.10768899999999348
                },
                {
                    "name": "F5",
                    "midi": 77,
                    "time": 82.59746299999912,
                    "velocity": 0.5984251968503937,
                    "duration": 0.10768899999999348
                },
                {
                    "name": "D#5",
                    "midi": 75,
                    "time": 82.70515199999912,
                    "velocity": 0.6062992125984252,
                    "duration": 0.10768899999999348
                },
                {
                    "name": "F5",
                    "midi": 77,
                    "time": 82.81284099999911,
                    "velocity": 0.5590551181102362,
                    "duration": 0.10768899999999348
                },
                {
                    "name": "D#5",
                    "midi": 75,
                    "time": 82.9205299999991,
                    "velocity": 0.5669291338582677,
                    "duration": 0.10768899999999348
                },
                {
                    "name": "D5",
                    "midi": 74,
                    "time": 83.0282189999991,
                    "velocity": 0.5669291338582677,
                    "duration": 0.10768899999999348
                },
                {
                    "name": "C5",
                    "midi": 72,
                    "time": 83.13590799999909,
                    "velocity": 0.6141732283464567,
                    "duration": 0.10768899999999348
                },
                {
                    "name": "A#4",
                    "midi": 70,
                    "time": 83.24359699999908,
                    "velocity": 0.5748031496062992,
                    "duration": 0.10768899999999348
                },
                {
                    "name": "G#4",
                    "midi": 68,
                    "time": 83.35128599999908,
                    "velocity": 0.5748031496062992,
                    "duration": 0.10768899999999348
                },
                {
                    "name": "G4",
                    "midi": 67,
                    "time": 83.45897499999907,
                    "velocity": 0.5669291338582677,
                    "duration": 0.10768899999999348
                },
                {
                    "name": "F4",
                    "midi": 65,
                    "time": 83.56666399999907,
                    "velocity": 0.5905511811023622,
                    "duration": 0.10768899999999348
                },
                {
                    "name": "D#4",
                    "midi": 63,
                    "time": 83.67435299999906,
                    "velocity": 0.5511811023622047,
                    "duration": 0.10768899999999348
                },
                {
                    "name": "D4",
                    "midi": 62,
                    "time": 83.78204199999905,
                    "velocity": 0.5511811023622047,
                    "duration": 0.10768899999999348
                },
                {
                    "name": "C4",
                    "midi": 60,
                    "time": 83.88973099999905,
                    "velocity": 0.5511811023622047,
                    "duration": 0.10768899999999348
                },
                {
                    "name": "B3",
                    "midi": 59,
                    "time": 83.99741999999904,
                    "velocity": 0.5748031496062992,
                    "duration": 0.21537800000000118
                },
                {
                    "name": "D4",
                    "midi": 62,
                    "time": 84.21279799999904,
                    "velocity": 0.5433070866141733,
                    "duration": 0.16153350000000444
                },
                {
                    "name": "G3",
                    "midi": 55,
                    "time": 84.21279799999904,
                    "velocity": 0.5433070866141733,
                    "duration": 0.16153350000000444
                },
                {
                    "name": "B3",
                    "midi": 59,
                    "time": 84.21279799999904,
                    "velocity": 0.5433070866141733,
                    "duration": 0.16153350000000444
                },
                {
                    "name": "G4",
                    "midi": 67,
                    "time": 84.21279799999904,
                    "velocity": 0.6456692913385826,
                    "duration": 0.16153350000000444
                },
                {
                    "name": "B3",
                    "midi": 59,
                    "time": 84.42817599999904,
                    "velocity": 0.48031496062992124,
                    "duration": 0.16153350000000444
                },
                {
                    "name": "F4",
                    "midi": 65,
                    "time": 84.42817599999904,
                    "velocity": 0.5748031496062992,
                    "duration": 0.16153350000000444
                },
                {
                    "name": "G3",
                    "midi": 55,
                    "time": 84.42817599999904,
                    "velocity": 0.48031496062992124,
                    "duration": 0.16153350000000444
                },
                {
                    "name": "G4",
                    "midi": 67,
                    "time": 84.42817599999904,
                    "velocity": 0.5748031496062992,
                    "duration": 0.16153350000000444
                },
                {
                    "name": "B3",
                    "midi": 59,
                    "time": 84.64355399999904,
                    "velocity": 0.47244094488188976,
                    "duration": 0.16153350000000444
                },
                {
                    "name": "G3",
                    "midi": 55,
                    "time": 84.64355399999904,
                    "velocity": 0.47244094488188976,
                    "duration": 0.16153350000000444
                },
                {
                    "name": "F4",
                    "midi": 65,
                    "time": 84.64355399999904,
                    "velocity": 0.5590551181102362,
                    "duration": 0.16153350000000444
                },
                {
                    "name": "G4",
                    "midi": 67,
                    "time": 84.64355399999904,
                    "velocity": 0.5590551181102362,
                    "duration": 0.16153350000000444
                },
                {
                    "name": "G3",
                    "midi": 55,
                    "time": 84.85893199999904,
                    "velocity": 0.48031496062992124,
                    "duration": 0.16153350000000444
                },
                {
                    "name": "G4",
                    "midi": 67,
                    "time": 84.85893199999904,
                    "velocity": 0.5669291338582677,
                    "duration": 0.16153350000000444
                },
                {
                    "name": "B3",
                    "midi": 59,
                    "time": 84.85893199999904,
                    "velocity": 0.48031496062992124,
                    "duration": 0.16153350000000444
                },
                {
                    "name": "F4",
                    "midi": 65,
                    "time": 84.85893199999904,
                    "velocity": 0.5669291338582677,
                    "duration": 0.16153350000000444
                },
                {
                    "name": "F4",
                    "midi": 65,
                    "time": 85.07430999999904,
                    "velocity": 0.5669291338582677,
                    "duration": 0.16153350000000444
                },
                {
                    "name": "G4",
                    "midi": 67,
                    "time": 85.07430999999904,
                    "velocity": 0.5669291338582677,
                    "duration": 0.16153350000000444
                },
                {
                    "name": "G3",
                    "midi": 55,
                    "time": 85.07430999999904,
                    "velocity": 0.48031496062992124,
                    "duration": 0.16153350000000444
                },
                {
                    "name": "B3",
                    "midi": 59,
                    "time": 85.07430999999904,
                    "velocity": 0.48031496062992124,
                    "duration": 0.16153350000000444
                },
                {
                    "name": "D#4",
                    "midi": 63,
                    "time": 85.28968799999905,
                    "velocity": 0.6062992125984252,
                    "duration": 0.10768899999999348
                },
                {
                    "name": "G3",
                    "midi": 55,
                    "time": 85.28968799999905,
                    "velocity": 0.6062992125984252,
                    "duration": 0.10768899999999348
                },
                {
                    "name": "C4",
                    "midi": 60,
                    "time": 85.28968799999905,
                    "velocity": 0.6062992125984252,
                    "duration": 0.10768899999999348
                },
                {
                    "name": "G4",
                    "midi": 67,
                    "time": 85.28968799999905,
                    "velocity": 0.6062992125984252,
                    "duration": 0.10768899999999348
                },
                {
                    "name": "G5",
                    "midi": 79,
                    "time": 85.39737699999904,
                    "velocity": 0.5826771653543307,
                    "duration": 0.10768899999999348
                },
                {
                    "name": "C6",
                    "midi": 84,
                    "time": 85.50506599999903,
                    "velocity": 0.5984251968503937,
                    "duration": 0.10768899999999348
                },
                {
                    "name": "D#6",
                    "midi": 87,
                    "time": 85.61275499999903,
                    "velocity": 0.6141732283464567,
                    "duration": 0.10768899999999348
                },
                {
                    "name": "G6",
                    "midi": 91,
                    "time": 85.72044399999902,
                    "velocity": 0.6299212598425197,
                    "duration": 0.10768899999999348
                },
                {
                    "name": "G#6",
                    "midi": 92,
                    "time": 85.82813299999901,
                    "velocity": 0.5984251968503937,
                    "duration": 0.10768899999999348
                },
                {
                    "name": "G6",
                    "midi": 91,
                    "time": 85.935821999999,
                    "velocity": 0.5984251968503937,
                    "duration": 0.10768899999999348
                },
                {
                    "name": "F6",
                    "midi": 89,
                    "time": 86.043510999999,
                    "velocity": 0.5984251968503937,
                    "duration": 0.10768899999999348
                },
                {
                    "name": "D#6",
                    "midi": 87,
                    "time": 86.151199999999,
                    "velocity": 0.6062992125984252,
                    "duration": 0.10768899999999348
                },
                {
                    "name": "F6",
                    "midi": 89,
                    "time": 86.25888899999899,
                    "velocity": 0.5590551181102362,
                    "duration": 0.10768899999999348
                },
                {
                    "name": "D#6",
                    "midi": 87,
                    "time": 86.36657799999898,
                    "velocity": 0.5669291338582677,
                    "duration": 0.10768899999999348
                },
                {
                    "name": "D6",
                    "midi": 86,
                    "time": 86.47426699999897,
                    "velocity": 0.5669291338582677,
                    "duration": 0.10768899999999348
                },
                {
                    "name": "C6",
                    "midi": 84,
                    "time": 86.58195599999897,
                    "velocity": 0.6141732283464567,
                    "duration": 0.10768899999999348
                },
                {
                    "name": "A#5",
                    "midi": 82,
                    "time": 86.68964499999896,
                    "velocity": 0.5748031496062992,
                    "duration": 0.10768899999999348
                },
                {
                    "name": "G#5",
                    "midi": 80,
                    "time": 86.79733399999895,
                    "velocity": 0.5748031496062992,
                    "duration": 0.10768899999999348
                },
                {
                    "name": "G5",
                    "midi": 79,
                    "time": 86.90502299999895,
                    "velocity": 0.5669291338582677,
                    "duration": 0.10768899999999348
                },
                {
                    "name": "F5",
                    "midi": 77,
                    "time": 87.01271199999894,
                    "velocity": 0.5905511811023622,
                    "duration": 0.10768899999999348
                },
                {
                    "name": "D#5",
                    "midi": 75,
                    "time": 87.12040099999894,
                    "velocity": 0.5511811023622047,
                    "duration": 0.10768899999999348
                },
                {
                    "name": "D5",
                    "midi": 74,
                    "time": 87.22808999999893,
                    "velocity": 0.5511811023622047,
                    "duration": 0.10768899999999348
                },
                {
                    "name": "C5",
                    "midi": 72,
                    "time": 87.33577899999892,
                    "velocity": 0.5511811023622047,
                    "duration": 0.10768899999999348
                },
                {
                    "name": "B4",
                    "midi": 71,
                    "time": 87.44346799999892,
                    "velocity": 0.5748031496062992,
                    "duration": 0.21537800000000118
                },
                {
                    "name": "B4",
                    "midi": 71,
                    "time": 87.65884599999892,
                    "velocity": 0.5433070866141733,
                    "duration": 0.16153350000000444
                },
                {
                    "name": "G5",
                    "midi": 79,
                    "time": 87.65884599999892,
                    "velocity": 0.6456692913385826,
                    "duration": 0.16153350000000444
                },
                {
                    "name": "D5",
                    "midi": 74,
                    "time": 87.65884599999892,
                    "velocity": 0.5433070866141733,
                    "duration": 0.16153350000000444
                },
                {
                    "name": "G4",
                    "midi": 67,
                    "time": 87.65884599999892,
                    "velocity": 0.4566929133858268,
                    "duration": 0.16153350000000444
                },
                {
                    "name": "G4",
                    "midi": 67,
                    "time": 87.87422399999892,
                    "velocity": 0.4015748031496063,
                    "duration": 0.16153350000000444
                },
                {
                    "name": "G5",
                    "midi": 79,
                    "time": 87.87422399999892,
                    "velocity": 0.5748031496062992,
                    "duration": 0.16153350000000444
                },
                {
                    "name": "B4",
                    "midi": 71,
                    "time": 87.87422399999892,
                    "velocity": 0.48031496062992124,
                    "duration": 0.16153350000000444
                },
                {
                    "name": "F5",
                    "midi": 77,
                    "time": 87.87422399999892,
                    "velocity": 0.5748031496062992,
                    "duration": 0.16153350000000444
                },
                {
                    "name": "F5",
                    "midi": 77,
                    "time": 88.08960199999892,
                    "velocity": 0.5511811023622047,
                    "duration": 0.16153350000000444
                },
                {
                    "name": "G4",
                    "midi": 67,
                    "time": 88.08960199999892,
                    "velocity": 0.3937007874015748,
                    "duration": 0.16153350000000444
                },
                {
                    "name": "B4",
                    "midi": 71,
                    "time": 88.08960199999892,
                    "velocity": 0.4645669291338583,
                    "duration": 0.16153350000000444
                },
                {
                    "name": "G5",
                    "midi": 79,
                    "time": 88.08960199999892,
                    "velocity": 0.5511811023622047,
                    "duration": 0.16153350000000444
                },
                {
                    "name": "B4",
                    "midi": 71,
                    "time": 88.30497999999892,
                    "velocity": 0.48031496062992124,
                    "duration": 0.16153350000000444
                },
                {
                    "name": "F5",
                    "midi": 77,
                    "time": 88.30497999999892,
                    "velocity": 0.5748031496062992,
                    "duration": 0.16153350000000444
                },
                {
                    "name": "G4",
                    "midi": 67,
                    "time": 88.30497999999892,
                    "velocity": 0.4015748031496063,
                    "duration": 0.16153350000000444
                },
                {
                    "name": "G5",
                    "midi": 79,
                    "time": 88.30497999999892,
                    "velocity": 0.5748031496062992,
                    "duration": 0.16153350000000444
                },
                {
                    "name": "B4",
                    "midi": 71,
                    "time": 88.52035799999892,
                    "velocity": 0.47244094488188976,
                    "duration": 0.16153350000000444
                },
                {
                    "name": "G4",
                    "midi": 67,
                    "time": 88.52035799999892,
                    "velocity": 0.4015748031496063,
                    "duration": 0.16153350000000444
                },
                {
                    "name": "F5",
                    "midi": 77,
                    "time": 88.52035799999892,
                    "velocity": 0.5590551181102362,
                    "duration": 0.16153350000000444
                },
                {
                    "name": "G5",
                    "midi": 79,
                    "time": 88.52035799999892,
                    "velocity": 0.5590551181102362,
                    "duration": 0.16153350000000444
                },
                {
                    "name": "G4",
                    "midi": 67,
                    "time": 88.73573599999892,
                    "velocity": 0.4015748031496063,
                    "duration": 0.21537800000000118
                },
                {
                    "name": "G5",
                    "midi": 79,
                    "time": 88.73573599999892,
                    "velocity": 0.5748031496062992,
                    "duration": 0.21537800000000118
                },
                {
                    "name": "C5",
                    "midi": 72,
                    "time": 88.73573599999892,
                    "velocity": 0.48031496062992124,
                    "duration": 0.21537800000000118
                },
                {
                    "name": "D#5",
                    "midi": 75,
                    "time": 88.73573599999892,
                    "velocity": 0.5748031496062992,
                    "duration": 0.21537800000000118
                },
                {
                    "name": "D#6",
                    "midi": 87,
                    "time": 89.38186999999893,
                    "velocity": 0.5433070866141733,
                    "duration": 0.16153350000000444
                },
                {
                    "name": "G6",
                    "midi": 91,
                    "time": 89.38186999999893,
                    "velocity": 0.6456692913385826,
                    "duration": 0.16153350000000444
                },
                {
                    "name": "G5",
                    "midi": 79,
                    "time": 89.38186999999893,
                    "velocity": 0.4566929133858268,
                    "duration": 0.16153350000000444
                },
                {
                    "name": "C6",
                    "midi": 84,
                    "time": 89.38186999999893,
                    "velocity": 0.5433070866141733,
                    "duration": 0.16153350000000444
                },
                {
                    "name": "F6",
                    "midi": 89,
                    "time": 89.59724799999893,
                    "velocity": 0.5748031496062992,
                    "duration": 0.16153350000000444
                },
                {
                    "name": "G5",
                    "midi": 79,
                    "time": 89.59724799999893,
                    "velocity": 0.4015748031496063,
                    "duration": 0.16153350000000444
                },
                {
                    "name": "B5",
                    "midi": 83,
                    "time": 89.59724799999893,
                    "velocity": 0.48031496062992124,
                    "duration": 0.16153350000000444
                },
                {
                    "name": "G6",
                    "midi": 91,
                    "time": 89.59724799999893,
                    "velocity": 0.5748031496062992,
                    "duration": 0.16153350000000444
                },
                {
                    "name": "B5",
                    "midi": 83,
                    "time": 89.81262599999893,
                    "velocity": 0.4645669291338583,
                    "duration": 0.16153350000000444
                },
                {
                    "name": "G6",
                    "midi": 91,
                    "time": 89.81262599999893,
                    "velocity": 0.5511811023622047,
                    "duration": 0.16153350000000444
                },
                {
                    "name": "F6",
                    "midi": 89,
                    "time": 89.81262599999893,
                    "velocity": 0.5511811023622047,
                    "duration": 0.16153350000000444
                },
                {
                    "name": "G5",
                    "midi": 79,
                    "time": 89.81262599999893,
                    "velocity": 0.3937007874015748,
                    "duration": 0.16153350000000444
                },
                {
                    "name": "G5",
                    "midi": 79,
                    "time": 90.02800399999893,
                    "velocity": 0.4015748031496063,
                    "duration": 0.16153350000000444
                },
                {
                    "name": "G6",
                    "midi": 91,
                    "time": 90.02800399999893,
                    "velocity": 0.5748031496062992,
                    "duration": 0.16153350000000444
                },
                {
                    "name": "F6",
                    "midi": 89,
                    "time": 90.02800399999893,
                    "velocity": 0.5748031496062992,
                    "duration": 0.16153350000000444
                },
                {
                    "name": "B5",
                    "midi": 83,
                    "time": 90.02800399999893,
                    "velocity": 0.48031496062992124,
                    "duration": 0.16153350000000444
                },
                {
                    "name": "B5",
                    "midi": 83,
                    "time": 90.24338199999893,
                    "velocity": 0.47244094488188976,
                    "duration": 0.16153350000000444
                },
                {
                    "name": "G6",
                    "midi": 91,
                    "time": 90.24338199999893,
                    "velocity": 0.5590551181102362,
                    "duration": 0.16153350000000444
                },
                {
                    "name": "F6",
                    "midi": 89,
                    "time": 90.24338199999893,
                    "velocity": 0.5590551181102362,
                    "duration": 0.16153350000000444
                },
                {
                    "name": "G5",
                    "midi": 79,
                    "time": 90.24338199999893,
                    "velocity": 0.4015748031496063,
                    "duration": 0.16153350000000444
                },
                {
                    "name": "G5",
                    "midi": 79,
                    "time": 90.45875999999893,
                    "velocity": 0.4015748031496063,
                    "duration": 0.16153350000000444
                },
                {
                    "name": "G6",
                    "midi": 91,
                    "time": 90.45875999999893,
                    "velocity": 0.5748031496062992,
                    "duration": 0.16153350000000444
                },
                {
                    "name": "C6",
                    "midi": 84,
                    "time": 90.45875999999893,
                    "velocity": 0.48031496062992124,
                    "duration": 0.16153350000000444
                },
                {
                    "name": "D#6",
                    "midi": 87,
                    "time": 90.45875999999893,
                    "velocity": 0.5748031496062992,
                    "duration": 0.16153350000000444
                },
                {
                    "name": "D#5",
                    "midi": 75,
                    "time": 91.10489399999894,
                    "velocity": 0.5433070866141733,
                    "duration": 0.16153350000000444
                },
                {
                    "name": "G4",
                    "midi": 67,
                    "time": 91.10489399999894,
                    "velocity": 0.4566929133858268,
                    "duration": 0.16153350000000444
                },
                {
                    "name": "C5",
                    "midi": 72,
                    "time": 91.10489399999894,
                    "velocity": 0.5433070866141733,
                    "duration": 0.16153350000000444
                },
                {
                    "name": "G5",
                    "midi": 79,
                    "time": 91.10489399999894,
                    "velocity": 0.6456692913385826,
                    "duration": 0.16153350000000444
                },
                {
                    "name": "B4",
                    "midi": 71,
                    "time": 91.32027199999894,
                    "velocity": 0.48031496062992124,
                    "duration": 0.16153350000000444
                },
                {
                    "name": "F5",
                    "midi": 77,
                    "time": 91.32027199999894,
                    "velocity": 0.5748031496062992,
                    "duration": 0.16153350000000444
                },
                {
                    "name": "G4",
                    "midi": 67,
                    "time": 91.32027199999894,
                    "velocity": 0.4015748031496063,
                    "duration": 0.16153350000000444
                },
                {
                    "name": "G5",
                    "midi": 79,
                    "time": 91.32027199999894,
                    "velocity": 0.5748031496062992,
                    "duration": 0.16153350000000444
                },
                {
                    "name": "B4",
                    "midi": 71,
                    "time": 91.53564999999894,
                    "velocity": 0.4645669291338583,
                    "duration": 0.16153350000000444
                },
                {
                    "name": "G4",
                    "midi": 67,
                    "time": 91.53564999999894,
                    "velocity": 0.3937007874015748,
                    "duration": 0.16153350000000444
                },
                {
                    "name": "F5",
                    "midi": 77,
                    "time": 91.53564999999894,
                    "velocity": 0.5511811023622047,
                    "duration": 0.16153350000000444
                },
                {
                    "name": "G5",
                    "midi": 79,
                    "time": 91.53564999999894,
                    "velocity": 0.5511811023622047,
                    "duration": 0.16153350000000444
                },
                {
                    "name": "G4",
                    "midi": 67,
                    "time": 91.75102799999894,
                    "velocity": 0.4015748031496063,
                    "duration": 0.16153350000000444
                },
                {
                    "name": "G5",
                    "midi": 79,
                    "time": 91.75102799999894,
                    "velocity": 0.5748031496062992,
                    "duration": 0.16153350000000444
                },
                {
                    "name": "B4",
                    "midi": 71,
                    "time": 91.75102799999894,
                    "velocity": 0.48031496062992124,
                    "duration": 0.16153350000000444
                },
                {
                    "name": "F5",
                    "midi": 77,
                    "time": 91.75102799999894,
                    "velocity": 0.5748031496062992,
                    "duration": 0.16153350000000444
                },
                {
                    "name": "F5",
                    "midi": 77,
                    "time": 91.96640599999894,
                    "velocity": 0.5590551181102362,
                    "duration": 0.16153350000000444
                },
                {
                    "name": "G5",
                    "midi": 79,
                    "time": 91.96640599999894,
                    "velocity": 0.5590551181102362,
                    "duration": 0.16153350000000444
                },
                {
                    "name": "G4",
                    "midi": 67,
                    "time": 91.96640599999894,
                    "velocity": 0.4015748031496063,
                    "duration": 0.16153350000000444
                },
                {
                    "name": "B4",
                    "midi": 71,
                    "time": 91.96640599999894,
                    "velocity": 0.47244094488188976,
                    "duration": 0.16153350000000444
                },
                {
                    "name": "D#5",
                    "midi": 75,
                    "time": 92.18178399999894,
                    "velocity": 0.48031496062992124,
                    "duration": 0.16153350000000444
                },
                {
                    "name": "G4",
                    "midi": 67,
                    "time": 92.18178399999894,
                    "velocity": 0.4015748031496063,
                    "duration": 0.16153350000000444
                },
                {
                    "name": "C5",
                    "midi": 72,
                    "time": 92.18178399999894,
                    "velocity": 0.48031496062992124,
                    "duration": 0.16153350000000444
                },
                {
                    "name": "G5",
                    "midi": 79,
                    "time": 92.18178399999894,
                    "velocity": 0.5748031496062992,
                    "duration": 0.16153350000000444
                },
                {
                    "name": "D#5",
                    "midi": 75,
                    "time": 92.82791799999895,
                    "velocity": 0.5433070866141733,
                    "duration": 0.16153350000000444
                },
                {
                    "name": "C6",
                    "midi": 84,
                    "time": 92.82791799999895,
                    "velocity": 0.6456692913385826,
                    "duration": 0.16153350000000444
                },
                {
                    "name": "G5",
                    "midi": 79,
                    "time": 92.82791799999895,
                    "velocity": 0.5433070866141733,
                    "duration": 0.16153350000000444
                },
                {
                    "name": "C5",
                    "midi": 72,
                    "time": 92.82791799999895,
                    "velocity": 0.4566929133858268,
                    "duration": 0.16153350000000444
                },
                {
                    "name": "C5",
                    "midi": 72,
                    "time": 93.04329599999895,
                    "velocity": 0.4015748031496063,
                    "duration": 0.16153350000000444
                },
                {
                    "name": "C6",
                    "midi": 84,
                    "time": 93.04329599999895,
                    "velocity": 0.5748031496062992,
                    "duration": 0.16153350000000444
                },
                {
                    "name": "E5",
                    "midi": 76,
                    "time": 93.04329599999895,
                    "velocity": 0.48031496062992124,
                    "duration": 0.16153350000000444
                },
                {
                    "name": "G5",
                    "midi": 79,
                    "time": 93.04329599999895,
                    "velocity": 0.48031496062992124,
                    "duration": 0.16153350000000444
                },
                {
                    "name": "C5",
                    "midi": 72,
                    "time": 93.25867399999895,
                    "velocity": 0.3937007874015748,
                    "duration": 0.16153350000000444
                },
                {
                    "name": "C6",
                    "midi": 84,
                    "time": 93.25867399999895,
                    "velocity": 0.5511811023622047,
                    "duration": 0.16153350000000444
                },
                {
                    "name": "E5",
                    "midi": 76,
                    "time": 93.25867399999895,
                    "velocity": 0.4645669291338583,
                    "duration": 0.16153350000000444
                },
                {
                    "name": "G5",
                    "midi": 79,
                    "time": 93.25867399999895,
                    "velocity": 0.4645669291338583,
                    "duration": 0.16153350000000444
                },
                {
                    "name": "G5",
                    "midi": 79,
                    "time": 93.47405199999895,
                    "velocity": 0.48031496062992124,
                    "duration": 0.16153350000000444
                },
                {
                    "name": "C6",
                    "midi": 84,
                    "time": 93.47405199999895,
                    "velocity": 0.5748031496062992,
                    "duration": 0.16153350000000444
                },
                {
                    "name": "E5",
                    "midi": 76,
                    "time": 93.47405199999895,
                    "velocity": 0.48031496062992124,
                    "duration": 0.16153350000000444
                },
                {
                    "name": "C5",
                    "midi": 72,
                    "time": 93.47405199999895,
                    "velocity": 0.4015748031496063,
                    "duration": 0.16153350000000444
                },
                {
                    "name": "E5",
                    "midi": 76,
                    "time": 93.68942999999895,
                    "velocity": 0.47244094488188976,
                    "duration": 0.16153350000000444
                },
                {
                    "name": "C5",
                    "midi": 72,
                    "time": 93.68942999999895,
                    "velocity": 0.4015748031496063,
                    "duration": 0.16153350000000444
                },
                {
                    "name": "C6",
                    "midi": 84,
                    "time": 93.68942999999895,
                    "velocity": 0.5590551181102362,
                    "duration": 0.16153350000000444
                },
                {
                    "name": "G5",
                    "midi": 79,
                    "time": 93.68942999999895,
                    "velocity": 0.47244094488188976,
                    "duration": 0.16153350000000444
                },
                {
                    "name": "F5",
                    "midi": 77,
                    "time": 93.90480799999895,
                    "velocity": 0.48031496062992124,
                    "duration": 0.16153350000000444
                },
                {
                    "name": "C6",
                    "midi": 84,
                    "time": 93.90480799999895,
                    "velocity": 0.5748031496062992,
                    "duration": 0.16153350000000444
                },
                {
                    "name": "G#5",
                    "midi": 80,
                    "time": 93.90480799999895,
                    "velocity": 0.48031496062992124,
                    "duration": 0.16153350000000444
                },
                {
                    "name": "C5",
                    "midi": 72,
                    "time": 93.90480799999895,
                    "velocity": 0.4015748031496063,
                    "duration": 0.16153350000000444
                },
                {
                    "name": "C4",
                    "midi": 60,
                    "time": 94.55094199999895,
                    "velocity": 0.4566929133858268,
                    "duration": 0.21537800000000118
                },
                {
                    "name": "C5",
                    "midi": 72,
                    "time": 94.55094199999895,
                    "velocity": 0.6456692913385826,
                    "duration": 0.21537800000000118
                },
                {
                    "name": "F4",
                    "midi": 65,
                    "time": 94.55094199999895,
                    "velocity": 0.5433070866141733,
                    "duration": 0.21537800000000118
                },
                {
                    "name": "G#4",
                    "midi": 68,
                    "time": 94.55094199999895,
                    "velocity": 0.5433070866141733,
                    "duration": 0.21537800000000118
                },
                {
                    "name": "A#4",
                    "midi": 70,
                    "time": 94.76631999999896,
                    "velocity": 0.5748031496062992,
                    "duration": 0.21537800000000118
                },
                {
                    "name": "C4",
                    "midi": 60,
                    "time": 94.76631999999896,
                    "velocity": 0.4015748031496063,
                    "duration": 0.21537800000000118
                },
                {
                    "name": "E4",
                    "midi": 64,
                    "time": 94.76631999999896,
                    "velocity": 0.48031496062992124,
                    "duration": 0.21537800000000118
                },
                {
                    "name": "C5",
                    "midi": 72,
                    "time": 94.76631999999896,
                    "velocity": 0.5748031496062992,
                    "duration": 0.21537800000000118
                },
                {
                    "name": "E4",
                    "midi": 64,
                    "time": 94.98169799999896,
                    "velocity": 0.4645669291338583,
                    "duration": 0.21537800000000118
                },
                {
                    "name": "A#4",
                    "midi": 70,
                    "time": 94.98169799999896,
                    "velocity": 0.5511811023622047,
                    "duration": 0.21537800000000118
                },
                {
                    "name": "C4",
                    "midi": 60,
                    "time": 94.98169799999896,
                    "velocity": 0.3937007874015748,
                    "duration": 0.21537800000000118
                },
                {
                    "name": "C5",
                    "midi": 72,
                    "time": 94.98169799999896,
                    "velocity": 0.5511811023622047,
                    "duration": 0.21537800000000118
                },
                {
                    "name": "E4",
                    "midi": 64,
                    "time": 95.19707599999896,
                    "velocity": 0.48031496062992124,
                    "duration": 0.21537800000000118
                },
                {
                    "name": "C4",
                    "midi": 60,
                    "time": 95.19707599999896,
                    "velocity": 0.4015748031496063,
                    "duration": 0.21537800000000118
                },
                {
                    "name": "A#4",
                    "midi": 70,
                    "time": 95.19707599999896,
                    "velocity": 0.5748031496062992,
                    "duration": 0.21537800000000118
                },
                {
                    "name": "C5",
                    "midi": 72,
                    "time": 95.19707599999896,
                    "velocity": 0.5748031496062992,
                    "duration": 0.21537800000000118
                },
                {
                    "name": "C4",
                    "midi": 60,
                    "time": 95.41245399999896,
                    "velocity": 0.4015748031496063,
                    "duration": 0.21537800000000118
                },
                {
                    "name": "C5",
                    "midi": 72,
                    "time": 95.41245399999896,
                    "velocity": 0.5590551181102362,
                    "duration": 0.21537800000000118
                },
                {
                    "name": "E4",
                    "midi": 64,
                    "time": 95.41245399999896,
                    "velocity": 0.47244094488188976,
                    "duration": 0.21537800000000118
                },
                {
                    "name": "A#4",
                    "midi": 70,
                    "time": 95.41245399999896,
                    "velocity": 0.5590551181102362,
                    "duration": 0.21537800000000118
                },
                {
                    "name": "A4",
                    "midi": 69,
                    "time": 95.62783199999896,
                    "velocity": 0.7007874015748031,
                    "duration": 0.10768899999999348
                },
                {
                    "name": "C5",
                    "midi": 72,
                    "time": 95.62783199999896,
                    "velocity": 0.7007874015748031,
                    "duration": 0.10768899999999348
                },
                {
                    "name": "C4",
                    "midi": 60,
                    "time": 95.62783199999896,
                    "velocity": 0.49606299212598426,
                    "duration": 0.10768899999999348
                },
                {
                    "name": "D#4",
                    "midi": 63,
                    "time": 95.62783199999896,
                    "velocity": 0.5905511811023622,
                    "duration": 0.10768899999999348
                },
                {
                    "name": "A3",
                    "midi": 57,
                    "time": 95.73552099999895,
                    "velocity": 0.5511811023622047,
                    "duration": 0.10768899999999348
                },
                {
                    "name": "C4",
                    "midi": 60,
                    "time": 95.84320999999895,
                    "velocity": 0.5590551181102362,
                    "duration": 0.10768899999999348
                },
                {
                    "name": "D#4",
                    "midi": 63,
                    "time": 95.95089899999894,
                    "velocity": 0.5669291338582677,
                    "duration": 0.10768899999999348
                },
                {
                    "name": "F#4",
                    "midi": 66,
                    "time": 96.05858799999893,
                    "velocity": 0.5669291338582677,
                    "duration": 0.10768899999999348
                },
                {
                    "name": "A4",
                    "midi": 69,
                    "time": 96.16627699999893,
                    "velocity": 0.5669291338582677,
                    "duration": 0.10768899999999348
                },
                {
                    "name": "C5",
                    "midi": 72,
                    "time": 96.27396599999892,
                    "velocity": 0.5748031496062992,
                    "duration": 0.10768899999999348
                },
                {
                    "name": "D#5",
                    "midi": 75,
                    "time": 96.38165499999891,
                    "velocity": 0.5826771653543307,
                    "duration": 0.10768899999999348
                },
                {
                    "name": "F#5",
                    "midi": 78,
                    "time": 96.48934399999891,
                    "velocity": 0.5905511811023622,
                    "duration": 0.10768899999999348
                },
                {
                    "name": "A5",
                    "midi": 81,
                    "time": 96.5970329999989,
                    "velocity": 0.6062992125984252,
                    "duration": 0.10768899999999348
                },
                {
                    "name": "C6",
                    "midi": 84,
                    "time": 96.7047219999989,
                    "velocity": 0.6220472440944882,
                    "duration": 0.10768899999999348
                },
                {
                    "name": "D#6",
                    "midi": 87,
                    "time": 96.81241099999889,
                    "velocity": 0.6377952755905512,
                    "duration": 0.10768899999999348
                },
                {
                    "name": "F#6",
                    "midi": 90,
                    "time": 96.92009999999888,
                    "velocity": 0.6535433070866141,
                    "duration": 0.10768899999999348
                },
                {
                    "name": "D#6",
                    "midi": 87,
                    "time": 97.02778899999888,
                    "velocity": 0.6535433070866141,
                    "duration": 0.10768899999999348
                },
                {
                    "name": "C6",
                    "midi": 84,
                    "time": 97.13547799999887,
                    "velocity": 0.6456692913385826,
                    "duration": 0.10768899999999348
                },
                {
                    "name": "A5",
                    "midi": 81,
                    "time": 97.24316699999886,
                    "velocity": 0.6377952755905512,
                    "duration": 0.10768899999999348
                },
                {
                    "name": "F#5",
                    "midi": 78,
                    "time": 97.35085599999886,
                    "velocity": 0.6377952755905512,
                    "duration": 0.10768899999999348
                },
                {
                    "name": "D#5",
                    "midi": 75,
                    "time": 97.45854499999885,
                    "velocity": 0.6299212598425197,
                    "duration": 0.10768899999999348
                },
                {
                    "name": "C5",
                    "midi": 72,
                    "time": 97.56623399999884,
                    "velocity": 0.6220472440944882,
                    "duration": 0.10768899999999348
                },
                {
                    "name": "A4",
                    "midi": 69,
                    "time": 97.67392299999884,
                    "velocity": 0.6141732283464567,
                    "duration": 0.10768899999999348
                },
                {
                    "name": "F#4",
                    "midi": 66,
                    "time": 97.78161199999883,
                    "velocity": 0.6062992125984252,
                    "duration": 0.10768899999999348
                },
                {
                    "name": "D#4",
                    "midi": 63,
                    "time": 97.88930099999882,
                    "velocity": 0.5984251968503937,
                    "duration": 0.10768899999999348
                },
                {
                    "name": "C4",
                    "midi": 60,
                    "time": 97.99698999999882,
                    "velocity": 0.5905511811023622,
                    "duration": 0.10768899999999348
                },
                {
                    "name": "A3",
                    "midi": 57,
                    "time": 100.90459299999881,
                    "velocity": 0.31496062992125984,
                    "duration": 0.10768899999999348
                },
                {
                    "name": "C4",
                    "midi": 60,
                    "time": 101.0122819999988,
                    "velocity": 0.29133858267716534,
                    "duration": 0.10768899999999348
                },
                {
                    "name": "D#4",
                    "midi": 63,
                    "time": 101.1199709999988,
                    "velocity": 0.29133858267716534,
                    "duration": 0.10768899999999348
                },
                {
                    "name": "F#4",
                    "midi": 66,
                    "time": 101.22765999999879,
                    "velocity": 0.31496062992125984,
                    "duration": 0.10768899999999348
                },
                {
                    "name": "G#4",
                    "midi": 68,
                    "time": 101.33534899999879,
                    "velocity": 0.2992125984251969,
                    "duration": 0.10768899999999348
                },
                {
                    "name": "F#4",
                    "midi": 66,
                    "time": 101.44303799999878,
                    "velocity": 0.2992125984251969,
                    "duration": 0.10768899999999348
                },
                {
                    "name": "F4",
                    "midi": 65,
                    "time": 101.55072699999877,
                    "velocity": 0.2992125984251969,
                    "duration": 0.10768899999999348
                },
                {
                    "name": "D#4",
                    "midi": 63,
                    "time": 101.65841599999877,
                    "velocity": 0.31496062992125984,
                    "duration": 0.10768899999999348
                },
                {
                    "name": "F4",
                    "midi": 65,
                    "time": 101.76610499999876,
                    "velocity": 0.29133858267716534,
                    "duration": 0.10768899999999348
                },
                {
                    "name": "D#4",
                    "midi": 63,
                    "time": 101.87379399999875,
                    "velocity": 0.29133858267716534,
                    "duration": 0.10768899999999348
                },
                {
                    "name": "C#4",
                    "midi": 61,
                    "time": 101.98148299999875,
                    "velocity": 0.29133858267716534,
                    "duration": 0.10768899999999348
                },
                {
                    "name": "C4",
                    "midi": 60,
                    "time": 102.08917199999874,
                    "velocity": 0.31496062992125984,
                    "duration": 0.10768899999999348
                },
                {
                    "name": "C#4",
                    "midi": 61,
                    "time": 102.19686099999873,
                    "velocity": 0.29133858267716534,
                    "duration": 0.10768899999999348
                },
                {
                    "name": "D#4",
                    "midi": 63,
                    "time": 102.30454999999873,
                    "velocity": 0.29133858267716534,
                    "duration": 0.10768899999999348
                },
                {
                    "name": "C4",
                    "midi": 60,
                    "time": 102.41223899999872,
                    "velocity": 0.29133858267716534,
                    "duration": 0.10768899999999348
                },
                {
                    "name": "A3",
                    "midi": 57,
                    "time": 102.62761699999871,
                    "velocity": 0.31496062992125984,
                    "duration": 0.10768899999999348
                },
                {
                    "name": "C4",
                    "midi": 60,
                    "time": 102.7353059999987,
                    "velocity": 0.29133858267716534,
                    "duration": 0.10768899999999348
                },
                {
                    "name": "D#4",
                    "midi": 63,
                    "time": 102.8429949999987,
                    "velocity": 0.29133858267716534,
                    "duration": 0.10768899999999348
                },
                {
                    "name": "F#4",
                    "midi": 66,
                    "time": 102.95068399999869,
                    "velocity": 0.31496062992125984,
                    "duration": 0.10768899999999348
                },
                {
                    "name": "G#4",
                    "midi": 68,
                    "time": 103.05837299999868,
                    "velocity": 0.2992125984251969,
                    "duration": 0.10768899999999348
                },
                {
                    "name": "F#4",
                    "midi": 66,
                    "time": 103.16606199999867,
                    "velocity": 0.2992125984251969,
                    "duration": 0.10768899999999348
                },
                {
                    "name": "F4",
                    "midi": 65,
                    "time": 103.27375099999867,
                    "velocity": 0.2992125984251969,
                    "duration": 0.10768899999999348
                },
                {
                    "name": "D#4",
                    "midi": 63,
                    "time": 103.38143999999866,
                    "velocity": 0.31496062992125984,
                    "duration": 0.10768899999999348
                },
                {
                    "name": "F4",
                    "midi": 65,
                    "time": 103.48912899999866,
                    "velocity": 0.29133858267716534,
                    "duration": 0.10768899999999348
                },
                {
                    "name": "D#4",
                    "midi": 63,
                    "time": 103.59681799999865,
                    "velocity": 0.29133858267716534,
                    "duration": 0.10768899999999348
                },
                {
                    "name": "C#4",
                    "midi": 61,
                    "time": 103.70450699999864,
                    "velocity": 0.29133858267716534,
                    "duration": 0.10768899999999348
                },
                {
                    "name": "C4",
                    "midi": 60,
                    "time": 103.81219599999864,
                    "velocity": 0.31496062992125984,
                    "duration": 0.10768899999999348
                },
                {
                    "name": "C#4",
                    "midi": 61,
                    "time": 103.91988499999863,
                    "velocity": 0.29133858267716534,
                    "duration": 0.10768899999999348
                },
                {
                    "name": "D#4",
                    "midi": 63,
                    "time": 104.02757399999862,
                    "velocity": 0.29133858267716534,
                    "duration": 0.10768899999999348
                },
                {
                    "name": "C4",
                    "midi": 60,
                    "time": 104.13526299999862,
                    "velocity": 0.29133858267716534,
                    "duration": 0.10768899999999348
                },
                {
                    "name": "A3",
                    "midi": 57,
                    "time": 104.3506409999986,
                    "velocity": 0.3700787401574803,
                    "duration": 0.10768899999999348
                },
                {
                    "name": "C4",
                    "midi": 60,
                    "time": 104.4583299999986,
                    "velocity": 0.3858267716535433,
                    "duration": 0.10768899999999348
                },
                {
                    "name": "D#4",
                    "midi": 63,
                    "time": 104.56601899999859,
                    "velocity": 0.3937007874015748,
                    "duration": 0.10768899999999348
                },
                {
                    "name": "F#4",
                    "midi": 66,
                    "time": 104.67370799999858,
                    "velocity": 0.4094488188976378,
                    "duration": 0.10768899999999348
                },
                {
                    "name": "G#4",
                    "midi": 68,
                    "time": 104.78139699999858,
                    "velocity": 0.4251968503937008,
                    "duration": 0.10768899999999348
                },
                {
                    "name": "F#4",
                    "midi": 66,
                    "time": 104.88908599999857,
                    "velocity": 0.4409448818897638,
                    "duration": 0.10768899999999348
                },
                {
                    "name": "F4",
                    "midi": 65,
                    "time": 104.99677499999856,
                    "velocity": 0.4566929133858268,
                    "duration": 0.10768899999999348
                },
                {
                    "name": "D#4",
                    "midi": 63,
                    "time": 105.10446399999856,
                    "velocity": 0.5275590551181102,
                    "duration": 0.21537800000000118
                },
                {
                    "name": "D#4",
                    "midi": 63,
                    "time": 105.31984199999856,
                    "velocity": 0.3700787401574803,
                    "duration": 0.10768899999999348
                },
                {
                    "name": "F4",
                    "midi": 65,
                    "time": 105.42753099999855,
                    "velocity": 0.3858267716535433,
                    "duration": 0.10768899999999348
                },
                {
                    "name": "F#4",
                    "midi": 66,
                    "time": 105.53521999999855,
                    "velocity": 0.4094488188976378,
                    "duration": 0.10768899999999348
                },
                {
                    "name": "G#4",
                    "midi": 68,
                    "time": 105.64290899999854,
                    "velocity": 0.4251968503937008,
                    "duration": 0.10768899999999348
                },
                {
                    "name": "F#4",
                    "midi": 66,
                    "time": 105.75059799999853,
                    "velocity": 0.4409448818897638,
                    "duration": 0.10768899999999348
                },
                {
                    "name": "F4",
                    "midi": 65,
                    "time": 105.85828699999853,
                    "velocity": 0.4645669291338583,
                    "duration": 0.10768899999999348
                },
                {
                    "name": "D#4",
                    "midi": 63,
                    "time": 105.96597599999852,
                    "velocity": 0.5275590551181102,
                    "duration": 0.21537800000000118
                },
                {
                    "name": "D#4",
                    "midi": 63,
                    "time": 106.18135399999852,
                    "velocity": 0.3937007874015748,
                    "duration": 0.10768899999999348
                },
                {
                    "name": "F4",
                    "midi": 65,
                    "time": 106.28904299999851,
                    "velocity": 0.3937007874015748,
                    "duration": 0.10768899999999348
                },
                {
                    "name": "F#4",
                    "midi": 66,
                    "time": 106.39673199999851,
                    "velocity": 0.4409448818897638,
                    "duration": 0.10768899999999348
                },
                {
                    "name": "G#4",
                    "midi": 68,
                    "time": 106.5044209999985,
                    "velocity": 0.3858267716535433,
                    "duration": 0.10768899999999348
                },
                {
                    "name": "F#4",
                    "midi": 66,
                    "time": 106.6121099999985,
                    "velocity": 0.3937007874015748,
                    "duration": 0.10768899999999348
                },
                {
                    "name": "F4",
                    "midi": 65,
                    "time": 106.71979899999849,
                    "velocity": 0.3937007874015748,
                    "duration": 0.10768899999999348
                },
                {
                    "name": "D#4",
                    "midi": 63,
                    "time": 106.82748799999848,
                    "velocity": 0.5275590551181102,
                    "duration": 0.21537800000000118
                },
                {
                    "name": "F#4",
                    "midi": 66,
                    "time": 107.04286599999848,
                    "velocity": 0.4409448818897638,
                    "duration": 0.21537800000000118
                },
                {
                    "name": "F#5",
                    "midi": 78,
                    "time": 107.04286599999848,
                    "velocity": 0.4409448818897638,
                    "duration": 0.21537800000000118
                },
                {
                    "name": "F4",
                    "midi": 65,
                    "time": 107.25824399999848,
                    "velocity": 0.47244094488188976,
                    "duration": 0.21537800000000118
                },
                {
                    "name": "F5",
                    "midi": 77,
                    "time": 107.25824399999848,
                    "velocity": 0.47244094488188976,
                    "duration": 0.21537800000000118
                },
                {
                    "name": "A4",
                    "midi": 69,
                    "time": 107.47362199999849,
                    "velocity": 0.4251968503937008,
                    "duration": 0.21537800000000118
                },
                {
                    "name": "A5",
                    "midi": 81,
                    "time": 107.47362199999849,
                    "velocity": 0.4251968503937008,
                    "duration": 0.21537800000000118
                },
                {
                    "name": "A#5",
                    "midi": 82,
                    "time": 107.68899999999849,
                    "velocity": 0.4409448818897638,
                    "duration": 0.10768899999999348
                },
                {
                    "name": "A#4",
                    "midi": 70,
                    "time": 107.68899999999849,
                    "velocity": 0.4409448818897638,
                    "duration": 0.10768899999999348
                },
                {
                    "name": "F4",
                    "midi": 65,
                    "time": 107.79668899999848,
                    "velocity": 0.4015748031496063,
                    "duration": 0.10768899999999348
                },
                {
                    "name": "A#4",
                    "midi": 70,
                    "time": 107.90437799999847,
                    "velocity": 0.4094488188976378,
                    "duration": 0.10768899999999348
                },
                {
                    "name": "C#5",
                    "midi": 73,
                    "time": 108.01206699999847,
                    "velocity": 0.41732283464566927,
                    "duration": 0.10768899999999348
                },
                {
                    "name": "F5",
                    "midi": 77,
                    "time": 108.11975599999846,
                    "velocity": 0.44881889763779526,
                    "duration": 0.10768899999999348
                },
                {
                    "name": "F#5",
                    "midi": 78,
                    "time": 108.22744499999845,
                    "velocity": 0.4330708661417323,
                    "duration": 0.10768899999999348
                },
                {
                    "name": "F5",
                    "midi": 77,
                    "time": 108.33513399999845,
                    "velocity": 0.4409448818897638,
                    "duration": 0.10768899999999348
                },
                {
                    "name": "D#5",
                    "midi": 75,
                    "time": 108.44282299999844,
                    "velocity": 0.4330708661417323,
                    "duration": 0.10768899999999348
                },
                {
                    "name": "C#5",
                    "midi": 73,
                    "time": 108.55051199999843,
                    "velocity": 0.44881889763779526,
                    "duration": 0.10768899999999348
                },
                {
                    "name": "D#5",
                    "midi": 75,
                    "time": 108.65820099999843,
                    "velocity": 0.4409448818897638,
                    "duration": 0.10768899999999348
                },
                {
                    "name": "C#5",
                    "midi": 73,
                    "time": 108.76588999999842,
                    "velocity": 0.4409448818897638,
                    "duration": 0.10768899999999348
                },
                {
                    "name": "C5",
                    "midi": 72,
                    "time": 108.87357899999841,
                    "velocity": 0.4330708661417323,
                    "duration": 0.10768899999999348
                },
                {
                    "name": "A#4",
                    "midi": 70,
                    "time": 108.98126799999841,
                    "velocity": 0.4251968503937008,
                    "duration": 0.10768899999999348
                },
                {
                    "name": "C5",
                    "midi": 72,
                    "time": 109.0889569999984,
                    "velocity": 0.41732283464566927,
                    "duration": 0.10768899999999348
                },
                {
                    "name": "C#5",
                    "midi": 73,
                    "time": 109.1966459999984,
                    "velocity": 0.41732283464566927,
                    "duration": 0.10768899999999348
                },
                {
                    "name": "A#4",
                    "midi": 70,
                    "time": 109.30433499999839,
                    "velocity": 0.4094488188976378,
                    "duration": 0.10768899999999348
                },
                {
                    "name": "F4",
                    "midi": 65,
                    "time": 109.51971299999838,
                    "velocity": 0.4015748031496063,
                    "duration": 0.10768899999999348
                },
                {
                    "name": "A#4",
                    "midi": 70,
                    "time": 109.62740199999837,
                    "velocity": 0.4094488188976378,
                    "duration": 0.10768899999999348
                },
                {
                    "name": "C#5",
                    "midi": 73,
                    "time": 109.73509099999836,
                    "velocity": 0.41732283464566927,
                    "duration": 0.10768899999999348
                },
                {
                    "name": "F5",
                    "midi": 77,
                    "time": 109.84277999999836,
                    "velocity": 0.44881889763779526,
                    "duration": 0.10768899999999348
                },
                {
                    "name": "F#5",
                    "midi": 78,
                    "time": 109.95046899999835,
                    "velocity": 0.4330708661417323,
                    "duration": 0.10768899999999348
                },
                {
                    "name": "F5",
                    "midi": 77,
                    "time": 110.05815799999834,
                    "velocity": 0.4409448818897638,
                    "duration": 0.10768899999999348
                },
                {
                    "name": "D#5",
                    "midi": 75,
                    "time": 110.16584699999834,
                    "velocity": 0.4330708661417323,
                    "duration": 0.10768899999999348
                },
                {
                    "name": "C#5",
                    "midi": 73,
                    "time": 110.27353599999833,
                    "velocity": 0.44881889763779526,
                    "duration": 0.10768899999999348
                },
                {
                    "name": "D#5",
                    "midi": 75,
                    "time": 110.38122499999832,
                    "velocity": 0.4409448818897638,
                    "duration": 0.10768899999999348
                },
                {
                    "name": "C#5",
                    "midi": 73,
                    "time": 110.48891399999832,
                    "velocity": 0.4409448818897638,
                    "duration": 0.10768899999999348
                },
                {
                    "name": "C5",
                    "midi": 72,
                    "time": 110.59660299999831,
                    "velocity": 0.4330708661417323,
                    "duration": 0.10768899999999348
                },
                {
                    "name": "A#4",
                    "midi": 70,
                    "time": 110.7042919999983,
                    "velocity": 0.4251968503937008,
                    "duration": 0.10768899999999348
                },
                {
                    "name": "C5",
                    "midi": 72,
                    "time": 110.8119809999983,
                    "velocity": 0.41732283464566927,
                    "duration": 0.10768899999999348
                },
                {
                    "name": "C#5",
                    "midi": 73,
                    "time": 110.91966999999829,
                    "velocity": 0.41732283464566927,
                    "duration": 0.10768899999999348
                },
                {
                    "name": "A#4",
                    "midi": 70,
                    "time": 111.02735899999828,
                    "velocity": 0.4094488188976378,
                    "duration": 0.10768899999999348
                },
                {
                    "name": "F#4",
                    "midi": 66,
                    "time": 111.24273699999827,
                    "velocity": 0.4015748031496063,
                    "duration": 0.10768899999999348
                },
                {
                    "name": "B4",
                    "midi": 71,
                    "time": 111.35042599999827,
                    "velocity": 0.41732283464566927,
                    "duration": 0.10768899999999348
                },
                {
                    "name": "D#5",
                    "midi": 75,
                    "time": 111.45811499999826,
                    "velocity": 0.4251968503937008,
                    "duration": 0.10768899999999348
                },
                {
                    "name": "F#5",
                    "midi": 78,
                    "time": 111.56580399999825,
                    "velocity": 0.4645669291338583,
                    "duration": 0.10768899999999348
                },
                {
                    "name": "G#5",
                    "midi": 80,
                    "time": 111.67349299999825,
                    "velocity": 0.4566929133858268,
                    "duration": 0.10768899999999348
                },
                {
                    "name": "F#5",
                    "midi": 78,
                    "time": 111.78118199999824,
                    "velocity": 0.4645669291338583,
                    "duration": 0.10768899999999348
                },
                {
                    "name": "F5",
                    "midi": 77,
                    "time": 111.88887099999823,
                    "velocity": 0.4645669291338583,
                    "duration": 0.10768899999999348
                },
                {
                    "name": "D#5",
                    "midi": 75,
                    "time": 111.99655999999823,
                    "velocity": 0.4881889763779528,
                    "duration": 0.10768899999999348
                },
                {
                    "name": "F5",
                    "midi": 77,
                    "time": 112.10424899999822,
                    "velocity": 0.4881889763779528,
                    "duration": 0.10768899999999348
                },
                {
                    "name": "D#5",
                    "midi": 75,
                    "time": 112.21193799999821,
                    "velocity": 0.4881889763779528,
                    "duration": 0.10768899999999348
                },
                {
                    "name": "C#5",
                    "midi": 73,
                    "time": 112.3196269999982,
                    "velocity": 0.4881889763779528,
                    "duration": 0.10768899999999348
                },
                {
                    "name": "B4",
                    "midi": 71,
                    "time": 112.4273159999982,
                    "velocity": 0.4881889763779528,
                    "duration": 0.10768899999999348
                },
                {
                    "name": "C#5",
                    "midi": 73,
                    "time": 112.5350049999982,
                    "velocity": 0.48031496062992124,
                    "duration": 0.10768899999999348
                },
                {
                    "name": "D#5",
                    "midi": 75,
                    "time": 112.64269399999819,
                    "velocity": 0.5039370078740157,
                    "duration": 0.10768899999999348
                },
                {
                    "name": "B4",
                    "midi": 71,
                    "time": 112.75038299999818,
                    "velocity": 0.48031496062992124,
                    "duration": 0.10768899999999348
                },
                {
                    "name": "A#4",
                    "midi": 70,
                    "time": 112.85807199999817,
                    "velocity": 0.5354330708661418,
                    "duration": 0.10768899999999348
                },
                {
                    "name": "C5",
                    "midi": 72,
                    "time": 112.96576099999817,
                    "velocity": 0.5039370078740157,
                    "duration": 0.10768899999999348
                },
                {
                    "name": "A#4",
                    "midi": 70,
                    "time": 113.07344999999816,
                    "velocity": 0.5196850393700787,
                    "duration": 0.10768899999999348
                },
                {
                    "name": "A4",
                    "midi": 69,
                    "time": 113.18113899999815,
                    "velocity": 0.5039370078740157,
                    "duration": 0.10768899999999348
                },
                {
                    "name": "A#4",
                    "midi": 70,
                    "time": 113.28882799999815,
                    "velocity": 0.4881889763779528,
                    "duration": 0.10768899999999348
                },
                {
                    "name": "C5",
                    "midi": 72,
                    "time": 113.39651699999814,
                    "velocity": 0.47244094488188976,
                    "duration": 0.10768899999999348
                },
                {
                    "name": "C#5",
                    "midi": 73,
                    "time": 113.50420599999813,
                    "velocity": 0.4645669291338583,
                    "duration": 0.10768899999999348
                },
                {
                    "name": "A#4",
                    "midi": 70,
                    "time": 113.61189499999813,
                    "velocity": 0.4566929133858268,
                    "duration": 0.10768899999999348
                },
                {
                    "name": "A4",
                    "midi": 69,
                    "time": 113.71958399999812,
                    "velocity": 0.4881889763779528,
                    "duration": 0.10768899999999348
                },
                {
                    "name": "A#4",
                    "midi": 70,
                    "time": 113.82727299999812,
                    "velocity": 0.48031496062992124,
                    "duration": 0.10768899999999348
                },
                {
                    "name": "A4",
                    "midi": 69,
                    "time": 113.93496199999811,
                    "velocity": 0.47244094488188976,
                    "duration": 0.10768899999999348
                },
                {
                    "name": "G4",
                    "midi": 67,
                    "time": 114.0426509999981,
                    "velocity": 0.4566929133858268,
                    "duration": 0.10768899999999348
                },
                {
                    "name": "A4",
                    "midi": 69,
                    "time": 114.1503399999981,
                    "velocity": 0.4409448818897638,
                    "duration": 0.10768899999999348
                },
                {
                    "name": "A#4",
                    "midi": 70,
                    "time": 114.25802899999809,
                    "velocity": 0.4330708661417323,
                    "duration": 0.10768899999999348
                },
                {
                    "name": "C5",
                    "midi": 72,
                    "time": 114.36571799999808,
                    "velocity": 0.4251968503937008,
                    "duration": 0.10768899999999348
                },
                {
                    "name": "A4",
                    "midi": 69,
                    "time": 114.47340699999808,
                    "velocity": 0.41732283464566927,
                    "duration": 0.10768899999999348
                },
                {
                    "name": "A#4",
                    "midi": 70,
                    "time": 114.58109599999807,
                    "velocity": 0.48031496062992124,
                    "duration": 0.21537800000000118
                },
                {
                    "name": "A#4",
                    "midi": 70,
                    "time": 114.79647399999807,
                    "velocity": 0.44881889763779526,
                    "duration": 0.10768899999999348
                },
                {
                    "name": "C#5",
                    "midi": 73,
                    "time": 114.90416299999806,
                    "velocity": 0.4566929133858268,
                    "duration": 0.10768899999999348
                },
                {
                    "name": "F5",
                    "midi": 77,
                    "time": 115.01185199999806,
                    "velocity": 0.4881889763779528,
                    "duration": 0.10768899999999348
                },
                {
                    "name": "F#5",
                    "midi": 78,
                    "time": 115.11954099999805,
                    "velocity": 0.47244094488188976,
                    "duration": 0.10768899999999348
                },
                {
                    "name": "F5",
                    "midi": 77,
                    "time": 115.22722999999804,
                    "velocity": 0.48031496062992124,
                    "duration": 0.10768899999999348
                },
                {
                    "name": "D#5",
                    "midi": 75,
                    "time": 115.33491899999804,
                    "velocity": 0.47244094488188976,
                    "duration": 0.10768899999999348
                },
                {
                    "name": "C#5",
                    "midi": 73,
                    "time": 115.44260799999803,
                    "velocity": 0.4881889763779528,
                    "duration": 0.10768899999999348
                },
                {
                    "name": "D#5",
                    "midi": 75,
                    "time": 115.55029699999803,
                    "velocity": 0.48031496062992124,
                    "duration": 0.10768899999999348
                },
                {
                    "name": "C#5",
                    "midi": 73,
                    "time": 115.65798599999802,
                    "velocity": 0.48031496062992124,
                    "duration": 0.10768899999999348
                },
                {
                    "name": "C5",
                    "midi": 72,
                    "time": 115.76567499999801,
                    "velocity": 0.47244094488188976,
                    "duration": 0.10768899999999348
                },
                {
                    "name": "A#5",
                    "midi": 82,
                    "time": 115.873363999998,
                    "velocity": 0.5433070866141733,
                    "duration": 0.21537799999998697
                },
                {
                    "name": "A#4",
                    "midi": 70,
                    "time": 115.873363999998,
                    "velocity": 0.5433070866141733,
                    "duration": 0.10768899999999348
                },
                {
                    "name": "C5",
                    "midi": 72,
                    "time": 115.981052999998,
                    "velocity": 0.4566929133858268,
                    "duration": 0.10768899999999348
                },
                {
                    "name": "C#5",
                    "midi": 73,
                    "time": 116.08874199999799,
                    "velocity": 0.4645669291338583,
                    "duration": 0.10768899999999348
                },
                {
                    "name": "A#4",
                    "midi": 70,
                    "time": 116.19643099999799,
                    "velocity": 0.4566929133858268,
                    "duration": 0.10768899999999348
                },
                {
                    "name": "A5",
                    "midi": 81,
                    "time": 116.30411999999798,
                    "velocity": 0.5590551181102362,
                    "duration": 0.21537800000000118
                },
                {
                    "name": "A#4",
                    "midi": 70,
                    "time": 116.51949799999798,
                    "velocity": 0.47244094488188976,
                    "duration": 0.10768899999999348
                },
                {
                    "name": "C#5",
                    "midi": 73,
                    "time": 116.62718699999797,
                    "velocity": 0.4881889763779528,
                    "duration": 0.10768899999999348
                },
                {
                    "name": "A#5",
                    "midi": 82,
                    "time": 116.73487599999797,
                    "velocity": 0.5433070866141733,
                    "duration": 0.21537799999998697
                },
                {
                    "name": "F5",
                    "midi": 77,
                    "time": 116.73487599999797,
                    "velocity": 0.5433070866141733,
                    "duration": 0.10768899999999348
                },
                {
                    "name": "F#5",
                    "midi": 78,
                    "time": 116.84256499999796,
                    "velocity": 0.5118110236220472,
                    "duration": 0.10768899999999348
                },
                {
                    "name": "F5",
                    "midi": 77,
                    "time": 116.95025399999795,
                    "velocity": 0.5275590551181102,
                    "duration": 0.10768899999999348
                },
                {
                    "name": "D#5",
                    "midi": 75,
                    "time": 117.05794299999795,
                    "velocity": 0.5196850393700787,
                    "duration": 0.10768899999999348
                },
                {
                    "name": "C#5",
                    "midi": 73,
                    "time": 117.16563199999794,
                    "velocity": 0.5433070866141733,
                    "duration": 0.10768899999999348
                },
                {
                    "name": "D#5",
                    "midi": 75,
                    "time": 117.27332099999794,
                    "velocity": 0.5354330708661418,
                    "duration": 0.10768899999999348
                },
                {
                    "name": "C#5",
                    "midi": 73,
                    "time": 117.38100999999793,
                    "velocity": 0.5433070866141733,
                    "duration": 0.10768899999999348
                },
                {
                    "name": "C5",
                    "midi": 72,
                    "time": 117.48869899999792,
                    "velocity": 0.5433070866141733,
                    "duration": 0.10768899999999348
                },
                {
                    "name": "A#5",
                    "midi": 82,
                    "time": 117.59638799999792,
                    "velocity": 0.6456692913385826,
                    "duration": 0.21537799999998697
                },
                {
                    "name": "A#4",
                    "midi": 70,
                    "time": 117.59638799999792,
                    "velocity": 0.5354330708661418,
                    "duration": 0.10768899999999348
                },
                {
                    "name": "C5",
                    "midi": 72,
                    "time": 117.70407699999791,
                    "velocity": 0.5275590551181102,
                    "duration": 0.10768899999999348
                },
                {
                    "name": "C#5",
                    "midi": 73,
                    "time": 117.8117659999979,
                    "velocity": 0.5354330708661418,
                    "duration": 0.10768899999999348
                },
                {
                    "name": "A#4",
                    "midi": 70,
                    "time": 117.9194549999979,
                    "velocity": 0.5275590551181102,
                    "duration": 0.10768899999999348
                },
                {
                    "name": "B4",
                    "midi": 71,
                    "time": 118.02714399999789,
                    "velocity": 0.6929133858267716,
                    "duration": 0.10768899999999348
                },
                {
                    "name": "B5",
                    "midi": 83,
                    "time": 118.02714399999789,
                    "velocity": 0.6929133858267716,
                    "duration": 0.10768899999999348
                },
                {
                    "name": "F#5",
                    "midi": 78,
                    "time": 118.13483299999788,
                    "velocity": 0.5826771653543307,
                    "duration": 0.10768899999999348
                },
                {
                    "name": "B5",
                    "midi": 83,
                    "time": 118.24252199999788,
                    "velocity": 0.5984251968503937,
                    "duration": 0.10768899999999348
                },
                {
                    "name": "D#6",
                    "midi": 87,
                    "time": 118.35021099999787,
                    "velocity": 0.6141732283464567,
                    "duration": 0.10768899999999348
                },
                {
                    "name": "F#6",
                    "midi": 90,
                    "time": 118.45789999999786,
                    "velocity": 0.6299212598425197,
                    "duration": 0.10768899999999348
                },
                {
                    "name": "G#6",
                    "midi": 92,
                    "time": 118.56558899999786,
                    "velocity": 0.5984251968503937,
                    "duration": 0.10768899999999348
                },
                {
                    "name": "F#6",
                    "midi": 90,
                    "time": 118.67327799999785,
                    "velocity": 0.5984251968503937,
                    "duration": 0.10768899999999348
                },
                {
                    "name": "F6",
                    "midi": 89,
                    "time": 118.78096699999784,
                    "velocity": 0.5984251968503937,
                    "duration": 0.10768899999999348
                },
                {
                    "name": "D#6",
                    "midi": 87,
                    "time": 118.88865599999784,
                    "velocity": 0.6062992125984252,
                    "duration": 0.10768899999999348
                },
                {
                    "name": "F6",
                    "midi": 89,
                    "time": 118.99634499999783,
                    "velocity": 0.5590551181102362,
                    "duration": 0.10768899999999348
                },
                {
                    "name": "D#6",
                    "midi": 87,
                    "time": 119.10403399999782,
                    "velocity": 0.5669291338582677,
                    "duration": 0.10768899999999348
                },
                {
                    "name": "C#6",
                    "midi": 85,
                    "time": 119.21172299999782,
                    "velocity": 0.5669291338582677,
                    "duration": 0.10768899999999348
                },
                {
                    "name": "B5",
                    "midi": 83,
                    "time": 119.31941199999781,
                    "velocity": 0.6141732283464567,
                    "duration": 0.10768899999999348
                },
                {
                    "name": "C#6",
                    "midi": 85,
                    "time": 119.4271009999978,
                    "velocity": 0.5748031496062992,
                    "duration": 0.10768899999999348
                },
                {
                    "name": "B5",
                    "midi": 83,
                    "time": 119.5347899999978,
                    "velocity": 0.5748031496062992,
                    "duration": 0.10768899999999348
                },
                {
                    "name": "A#5",
                    "midi": 82,
                    "time": 119.64247899999779,
                    "velocity": 0.5669291338582677,
                    "duration": 0.10768899999999348
                },
                {
                    "name": "A5",
                    "midi": 81,
                    "time": 119.75016799999779,
                    "velocity": 0.6062992125984252,
                    "duration": 0.10768899999999348
                },
                {
                    "name": "C6",
                    "midi": 84,
                    "time": 119.85785699999778,
                    "velocity": 0.5590551181102362,
                    "duration": 0.10768899999999348
                },
                {
                    "name": "D#6",
                    "midi": 87,
                    "time": 119.96554599999777,
                    "velocity": 0.5669291338582677,
                    "duration": 0.10768899999999348
                },
                {
                    "name": "C#6",
                    "midi": 85,
                    "time": 120.07323499999777,
                    "velocity": 0.5669291338582677,
                    "duration": 0.10768899999999348
                },
                {
                    "name": "C6",
                    "midi": 84,
                    "time": 120.18092399999776,
                    "velocity": 0.6141732283464567,
                    "duration": 0.10768899999999348
                },
                {
                    "name": "C#6",
                    "midi": 85,
                    "time": 120.28861299999775,
                    "velocity": 0.5748031496062992,
                    "duration": 0.10768899999999348
                },
                {
                    "name": "C6",
                    "midi": 84,
                    "time": 120.39630199999775,
                    "velocity": 0.5748031496062992,
                    "duration": 0.10768899999999348
                },
                {
                    "name": "A#5",
                    "midi": 82,
                    "time": 120.50399099999774,
                    "velocity": 0.5669291338582677,
                    "duration": 0.10768899999999348
                },
                {
                    "name": "A5",
                    "midi": 81,
                    "time": 120.61167999999773,
                    "velocity": 0.6062992125984252,
                    "duration": 0.10768899999999348
                },
                {
                    "name": "A#5",
                    "midi": 82,
                    "time": 120.71936899999773,
                    "velocity": 0.5590551181102362,
                    "duration": 0.10768899999999348
                },
                {
                    "name": "A5",
                    "midi": 81,
                    "time": 120.82705799999772,
                    "velocity": 0.5669291338582677,
                    "duration": 0.10768899999999348
                },
                {
                    "name": "F#5",
                    "midi": 78,
                    "time": 120.93474699999771,
                    "velocity": 0.5669291338582677,
                    "duration": 0.10768899999999348
                },
                {
                    "name": "F5",
                    "midi": 77,
                    "time": 121.0424359999977,
                    "velocity": 0.5826771653543307,
                    "duration": 0.10768899999999348
                },
                {
                    "name": "D#5",
                    "midi": 75,
                    "time": 121.1501249999977,
                    "velocity": 0.5590551181102362,
                    "duration": 0.10768899999999348
                },
                {
                    "name": "C#5",
                    "midi": 73,
                    "time": 121.2578139999977,
                    "velocity": 0.5590551181102362,
                    "duration": 0.10768899999999348
                },
                {
                    "name": "C5",
                    "midi": 72,
                    "time": 121.36550299999769,
                    "velocity": 0.5433070866141733,
                    "duration": 0.10768899999999348
                },
                {
                    "name": "A#4",
                    "midi": 70,
                    "time": 121.47319199999768,
                    "velocity": 0.5748031496062992,
                    "duration": 0.10768899999999348
                },
                {
                    "name": "F5",
                    "midi": 77,
                    "time": 121.68856999999767,
                    "velocity": 0.5826771653543307,
                    "duration": 0.43075600000000236
                },
                {
                    "name": "F5",
                    "midi": 77,
                    "time": 122.11932599999767,
                    "velocity": 0.48031496062992124,
                    "duration": 0.10768899999999348
                },
                {
                    "name": "F5",
                    "midi": 77,
                    "time": 122.33470399999766,
                    "velocity": 0.48031496062992124,
                    "duration": 0.10768899999999348
                },
                {
                    "name": "F#5",
                    "midi": 78,
                    "time": 122.55008199999764,
                    "velocity": 0.5669291338582677,
                    "duration": 0.43075600000000236
                },
                {
                    "name": "F#5",
                    "midi": 78,
                    "time": 122.98083799999765,
                    "velocity": 0.47244094488188976,
                    "duration": 0.10768899999999348
                },
                {
                    "name": "F#5",
                    "midi": 78,
                    "time": 123.19621599999763,
                    "velocity": 0.4645669291338583,
                    "duration": 0.10768899999999348
                },
                {
                    "name": "F5",
                    "midi": 77,
                    "time": 123.41159399999762,
                    "velocity": 0.5748031496062992,
                    "duration": 0.43075600000000236
                },
                {
                    "name": "F5",
                    "midi": 77,
                    "time": 123.84234999999762,
                    "velocity": 0.49606299212598426,
                    "duration": 0.10768899999999348
                },
                {
                    "name": "F5",
                    "midi": 77,
                    "time": 124.05772799999761,
                    "velocity": 0.5118110236220472,
                    "duration": 0.10768899999999348
                },
                {
                    "name": "C5",
                    "midi": 72,
                    "time": 124.2731059999976,
                    "velocity": 0.48031496062992124,
                    "duration": 0.10768899999999348
                },
                {
                    "name": "C#5",
                    "midi": 73,
                    "time": 124.48848399999758,
                    "velocity": 0.48031496062992124,
                    "duration": 0.10768899999999348
                },
                {
                    "name": "D#5",
                    "midi": 75,
                    "time": 124.70386199999757,
                    "velocity": 0.48031496062992124,
                    "duration": 0.10768899999999348
                },
                {
                    "name": "C#5",
                    "midi": 73,
                    "time": 124.91923999999756,
                    "velocity": 0.5118110236220472,
                    "duration": 0.10768899999999348
                },
                {
                    "name": "F6",
                    "midi": 89,
                    "time": 125.13461799999754,
                    "velocity": 0.6299212598425197,
                    "duration": 0.43075600000000236
                },
                {
                    "name": "F5",
                    "midi": 77,
                    "time": 125.13461799999754,
                    "velocity": 0.5748031496062992,
                    "duration": 0.43075600000000236
                },
                {
                    "name": "F6",
                    "midi": 89,
                    "time": 125.56537399999755,
                    "velocity": 0.5826771653543307,
                    "duration": 0.10768899999999348
                },
                {
                    "name": "F5",
                    "midi": 77,
                    "time": 125.56537399999755,
                    "velocity": 0.5354330708661418,
                    "duration": 0.10768899999999348
                },
                {
                    "name": "F6",
                    "midi": 89,
                    "time": 125.78075199999753,
                    "velocity": 0.5826771653543307,
                    "duration": 0.10768899999999348
                },
                {
                    "name": "F5",
                    "midi": 77,
                    "time": 125.78075199999753,
                    "velocity": 0.5354330708661418,
                    "duration": 0.10768899999999348
                },
                {
                    "name": "F#6",
                    "midi": 90,
                    "time": 125.99612999999752,
                    "velocity": 0.6377952755905512,
                    "duration": 0.43075600000000236
                },
                {
                    "name": "F#5",
                    "midi": 78,
                    "time": 125.99612999999752,
                    "velocity": 0.5826771653543307,
                    "duration": 0.43075600000000236
                },
                {
                    "name": "F#6",
                    "midi": 90,
                    "time": 126.42688599999752,
                    "velocity": 0.5748031496062992,
                    "duration": 0.10768899999999348
                },
                {
                    "name": "F#5",
                    "midi": 78,
                    "time": 126.42688599999752,
                    "velocity": 0.5275590551181102,
                    "duration": 0.10768899999999348
                },
                {
                    "name": "F#6",
                    "midi": 90,
                    "time": 126.64226399999751,
                    "velocity": 0.5669291338582677,
                    "duration": 0.10768899999999348
                },
                {
                    "name": "F#5",
                    "midi": 78,
                    "time": 126.64226399999751,
                    "velocity": 0.5196850393700787,
                    "duration": 0.10768899999999348
                },
                {
                    "name": "F6",
                    "midi": 89,
                    "time": 126.8576419999975,
                    "velocity": 0.6456692913385826,
                    "duration": 0.43075600000000236
                },
                {
                    "name": "F5",
                    "midi": 77,
                    "time": 126.8576419999975,
                    "velocity": 0.5905511811023622,
                    "duration": 0.43075600000000236
                },
                {
                    "name": "F6",
                    "midi": 89,
                    "time": 127.2883979999975,
                    "velocity": 0.6062992125984252,
                    "duration": 0.10768899999999348
                },
                {
                    "name": "F5",
                    "midi": 77,
                    "time": 127.2883979999975,
                    "velocity": 0.5511811023622047,
                    "duration": 0.10768899999999348
                },
                {
                    "name": "F6",
                    "midi": 89,
                    "time": 127.50377599999749,
                    "velocity": 0.6299212598425197,
                    "duration": 0.10768899999999348
                },
                {
                    "name": "F5",
                    "midi": 77,
                    "time": 127.50377599999749,
                    "velocity": 0.5748031496062992,
                    "duration": 0.10768899999999348
                },
                {
                    "name": "C6",
                    "midi": 84,
                    "time": 127.71915399999747,
                    "velocity": 0.5826771653543307,
                    "duration": 0.10768899999999348
                },
                {
                    "name": "C5",
                    "midi": 72,
                    "time": 127.71915399999747,
                    "velocity": 0.5354330708661418,
                    "duration": 0.10768899999999348
                },
                {
                    "name": "C#6",
                    "midi": 85,
                    "time": 127.93453199999746,
                    "velocity": 0.5826771653543307,
                    "duration": 0.10768899999999348
                },
                {
                    "name": "C#5",
                    "midi": 73,
                    "time": 127.93453199999746,
                    "velocity": 0.5354330708661418,
                    "duration": 0.10768899999999348
                },
                {
                    "name": "D#6",
                    "midi": 87,
                    "time": 128.14990999999745,
                    "velocity": 0.5826771653543307,
                    "duration": 0.10768899999999348
                },
                {
                    "name": "D#5",
                    "midi": 75,
                    "time": 128.14990999999745,
                    "velocity": 0.5354330708661418,
                    "duration": 0.10768899999999348
                },
                {
                    "name": "C#6",
                    "midi": 85,
                    "time": 128.36528799999743,
                    "velocity": 0.6299212598425197,
                    "duration": 0.10768899999999348
                },
                {
                    "name": "C#5",
                    "midi": 73,
                    "time": 128.36528799999743,
                    "velocity": 0.5748031496062992,
                    "duration": 0.10768899999999348
                },
                {
                    "name": "C5",
                    "midi": 72,
                    "time": 128.58066599999742,
                    "velocity": 0.5669291338582677,
                    "duration": 0.43075600000000236
                },
                {
                    "name": "C5",
                    "midi": 72,
                    "time": 129.01142199999742,
                    "velocity": 0.48031496062992124,
                    "duration": 0.10768899999999348
                },
                {
                    "name": "C5",
                    "midi": 72,
                    "time": 129.2267999999974,
                    "velocity": 0.48031496062992124,
                    "duration": 0.10768899999999348
                },
                {
                    "name": "B4",
                    "midi": 71,
                    "time": 129.4421779999974,
                    "velocity": 0.5669291338582677,
                    "duration": 0.43075600000000236
                },
                {
                    "name": "B4",
                    "midi": 71,
                    "time": 129.8729339999974,
                    "velocity": 0.47244094488188976,
                    "duration": 0.10768899999999348
                },
                {
                    "name": "B4",
                    "midi": 71,
                    "time": 130.0883119999974,
                    "velocity": 0.4645669291338583,
                    "duration": 0.10768899999999348
                },
                {
                    "name": "C5",
                    "midi": 72,
                    "time": 130.30368999999737,
                    "velocity": 0.5590551181102362,
                    "duration": 0.43075600000000236
                },
                {
                    "name": "C5",
                    "midi": 72,
                    "time": 130.73444599999738,
                    "velocity": 0.49606299212598426,
                    "duration": 0.10768899999999348
                },
                {
                    "name": "C5",
                    "midi": 72,
                    "time": 130.94982399999736,
                    "velocity": 0.5118110236220472,
                    "duration": 0.10768899999999348
                },
                {
                    "name": "G4",
                    "midi": 67,
                    "time": 131.16520199999735,
                    "velocity": 0.48031496062992124,
                    "duration": 0.10768899999999348
                },
                {
                    "name": "G#4",
                    "midi": 68,
                    "time": 131.38057999999734,
                    "velocity": 0.48031496062992124,
                    "duration": 0.10768899999999348
                },
                {
                    "name": "A#4",
                    "midi": 70,
                    "time": 131.59595799999732,
                    "velocity": 0.48031496062992124,
                    "duration": 0.10768899999999348
                },
                {
                    "name": "G#4",
                    "midi": 68,
                    "time": 131.8113359999973,
                    "velocity": 0.5118110236220472,
                    "duration": 0.10768899999999348
                },
                {
                    "name": "C6",
                    "midi": 84,
                    "time": 132.0267139999973,
                    "velocity": 0.6299212598425197,
                    "duration": 0.43075600000000236
                },
                {
                    "name": "C5",
                    "midi": 72,
                    "time": 132.0267139999973,
                    "velocity": 0.5748031496062992,
                    "duration": 0.43075600000000236
                },
                {
                    "name": "C6",
                    "midi": 84,
                    "time": 132.4574699999973,
                    "velocity": 0.5826771653543307,
                    "duration": 0.10768899999999348
                },
                {
                    "name": "C5",
                    "midi": 72,
                    "time": 132.4574699999973,
                    "velocity": 0.5354330708661418,
                    "duration": 0.10768899999999348
                },
                {
                    "name": "C6",
                    "midi": 84,
                    "time": 132.6728479999973,
                    "velocity": 0.5826771653543307,
                    "duration": 0.10768899999999348
                },
                {
                    "name": "C5",
                    "midi": 72,
                    "time": 132.6728479999973,
                    "velocity": 0.5354330708661418,
                    "duration": 0.10768899999999348
                },
                {
                    "name": "B5",
                    "midi": 83,
                    "time": 132.88822599999727,
                    "velocity": 0.6377952755905512,
                    "duration": 0.43075600000000236
                },
                {
                    "name": "B4",
                    "midi": 71,
                    "time": 132.88822599999727,
                    "velocity": 0.5826771653543307,
                    "duration": 0.43075600000000236
                },
                {
                    "name": "B5",
                    "midi": 83,
                    "time": 133.31898199999728,
                    "velocity": 0.5748031496062992,
                    "duration": 0.10768899999999348
                },
                {
                    "name": "B4",
                    "midi": 71,
                    "time": 133.31898199999728,
                    "velocity": 0.5275590551181102,
                    "duration": 0.10768899999999348
                },
                {
                    "name": "B5",
                    "midi": 83,
                    "time": 133.53435999999726,
                    "velocity": 0.5669291338582677,
                    "duration": 0.10768899999999348
                },
                {
                    "name": "B4",
                    "midi": 71,
                    "time": 133.53435999999726,
                    "velocity": 0.5196850393700787,
                    "duration": 0.10768899999999348
                },
                {
                    "name": "C6",
                    "midi": 84,
                    "time": 133.74973799999725,
                    "velocity": 0.6456692913385826,
                    "duration": 0.43075600000000236
                },
                {
                    "name": "C5",
                    "midi": 72,
                    "time": 133.74973799999725,
                    "velocity": 0.5905511811023622,
                    "duration": 0.43075600000000236
                },
                {
                    "name": "C6",
                    "midi": 84,
                    "time": 134.18049399999725,
                    "velocity": 0.6062992125984252,
                    "duration": 0.10768899999999348
                },
                {
                    "name": "C5",
                    "midi": 72,
                    "time": 134.18049399999725,
                    "velocity": 0.5511811023622047,
                    "duration": 0.10768899999999348
                },
                {
                    "name": "C6",
                    "midi": 84,
                    "time": 134.39587199999724,
                    "velocity": 0.6299212598425197,
                    "duration": 0.10768899999999348
                },
                {
                    "name": "C5",
                    "midi": 72,
                    "time": 134.39587199999724,
                    "velocity": 0.5748031496062992,
                    "duration": 0.10768899999999348
                },
                {
                    "name": "G5",
                    "midi": 79,
                    "time": 134.61124999999723,
                    "velocity": 0.5826771653543307,
                    "duration": 0.10768899999999348
                },
                {
                    "name": "G4",
                    "midi": 67,
                    "time": 134.61124999999723,
                    "velocity": 0.5354330708661418,
                    "duration": 0.10768899999999348
                },
                {
                    "name": "G#5",
                    "midi": 80,
                    "time": 134.8266279999972,
                    "velocity": 0.5826771653543307,
                    "duration": 0.10768899999999348
                },
                {
                    "name": "G#4",
                    "midi": 68,
                    "time": 134.8266279999972,
                    "velocity": 0.5354330708661418,
                    "duration": 0.10768899999999348
                },
                {
                    "name": "A#5",
                    "midi": 82,
                    "time": 135.0420059999972,
                    "velocity": 0.5826771653543307,
                    "duration": 0.10768899999999348
                },
                {
                    "name": "A#4",
                    "midi": 70,
                    "time": 135.0420059999972,
                    "velocity": 0.5354330708661418,
                    "duration": 0.10768899999999348
                },
                {
                    "name": "G#5",
                    "midi": 80,
                    "time": 135.2573839999972,
                    "velocity": 0.6299212598425197,
                    "duration": 0.10768899999999348
                },
                {
                    "name": "G#4",
                    "midi": 68,
                    "time": 135.2573839999972,
                    "velocity": 0.5748031496062992,
                    "duration": 0.10768899999999348
                },
                {
                    "name": "C4",
                    "midi": 60,
                    "time": 135.36507299999718,
                    "velocity": 0.5511811023622047,
                    "duration": 0.10768899999999348
                },
                {
                    "name": "F4",
                    "midi": 65,
                    "time": 135.47276199999718,
                    "velocity": 0.5669291338582677,
                    "duration": 0.10768899999999348
                },
                {
                    "name": "G#4",
                    "midi": 68,
                    "time": 135.58045099999717,
                    "velocity": 0.5826771653543307,
                    "duration": 0.10768899999999348
                },
                {
                    "name": "C5",
                    "midi": 72,
                    "time": 135.68813999999716,
                    "velocity": 0.5984251968503937,
                    "duration": 0.10768899999999348
                },
                {
                    "name": "C#5",
                    "midi": 73,
                    "time": 135.79582899999716,
                    "velocity": 0.5669291338582677,
                    "duration": 0.10768899999999348
                },
                {
                    "name": "C5",
                    "midi": 72,
                    "time": 135.90351799999715,
                    "velocity": 0.5669291338582677,
                    "duration": 0.10768899999999348
                },
                {
                    "name": "A#4",
                    "midi": 70,
                    "time": 136.01120699999714,
                    "velocity": 0.5669291338582677,
                    "duration": 0.10768899999999348
                },
                {
                    "name": "G#4",
                    "midi": 68,
                    "time": 136.11889599999714,
                    "velocity": 0.5748031496062992,
                    "duration": 0.10768899999999348
                },
                {
                    "name": "A#4",
                    "midi": 70,
                    "time": 136.22658499999713,
                    "velocity": 0.5275590551181102,
                    "duration": 0.10768899999999348
                },
                {
                    "name": "G#4",
                    "midi": 68,
                    "time": 136.33427399999712,
                    "velocity": 0.5433070866141733,
                    "duration": 0.10768899999999348
                },
                {
                    "name": "G4",
                    "midi": 67,
                    "time": 136.44196299999712,
                    "velocity": 0.5433070866141733,
                    "duration": 0.10768899999999348
                },
                {
                    "name": "F4",
                    "midi": 65,
                    "time": 136.5496519999971,
                    "velocity": 0.5905511811023622,
                    "duration": 0.10768899999999348
                },
                {
                    "name": "G4",
                    "midi": 67,
                    "time": 136.6573409999971,
                    "velocity": 0.5511811023622047,
                    "duration": 0.10768899999999348
                },
                {
                    "name": "G#4",
                    "midi": 68,
                    "time": 136.7650299999971,
                    "velocity": 0.5511811023622047,
                    "duration": 0.10768899999999348
                },
                {
                    "name": "F4",
                    "midi": 65,
                    "time": 136.8727189999971,
                    "velocity": 0.5511811023622047,
                    "duration": 0.10768899999999348
                },
                {
                    "name": "F#4",
                    "midi": 66,
                    "time": 136.98040799999708,
                    "velocity": 0.5905511811023622,
                    "duration": 0.10768899999999348
                },
                {
                    "name": "C#4",
                    "midi": 61,
                    "time": 137.08809699999708,
                    "velocity": 0.5669291338582677,
                    "duration": 0.10768899999999348
                },
                {
                    "name": "F#4",
                    "midi": 66,
                    "time": 137.19578599999707,
                    "velocity": 0.5826771653543307,
                    "duration": 0.10768899999999348
                },
                {
                    "name": "A#4",
                    "midi": 70,
                    "time": 137.30347499999706,
                    "velocity": 0.5984251968503937,
                    "duration": 0.10768899999999348
                },
                {
                    "name": "C#5",
                    "midi": 73,
                    "time": 137.41116399999706,
                    "velocity": 0.6141732283464567,
                    "duration": 0.10768899999999348
                },
                {
                    "name": "D#5",
                    "midi": 75,
                    "time": 137.51885299999705,
                    "velocity": 0.5905511811023622,
                    "duration": 0.10768899999999348
                },
                {
                    "name": "C#5",
                    "midi": 73,
                    "time": 137.62654199999704,
                    "velocity": 0.5905511811023622,
                    "duration": 0.10768899999999348
                },
                {
                    "name": "C5",
                    "midi": 72,
                    "time": 137.73423099999704,
                    "velocity": 0.5905511811023622,
                    "duration": 0.10768899999999348
                },
                {
                    "name": "A#4",
                    "midi": 70,
                    "time": 137.84191999999703,
                    "velocity": 0.5984251968503937,
                    "duration": 0.10768899999999348
                },
                {
                    "name": "C5",
                    "midi": 72,
                    "time": 137.94960899999703,
                    "velocity": 0.5511811023622047,
                    "duration": 0.10768899999999348
                },
                {
                    "name": "A#4",
                    "midi": 70,
                    "time": 138.05729799999702,
                    "velocity": 0.5590551181102362,
                    "duration": 0.10768899999999348
                },
                {
                    "name": "G#4",
                    "midi": 68,
                    "time": 138.164986999997,
                    "velocity": 0.5590551181102362,
                    "duration": 0.10768899999999348
                },
                {
                    "name": "F#4",
                    "midi": 66,
                    "time": 138.272675999997,
                    "velocity": 0.5984251968503937,
                    "duration": 0.10768899999999348
                },
                {
                    "name": "G#4",
                    "midi": 68,
                    "time": 138.380364999997,
                    "velocity": 0.5748031496062992,
                    "duration": 0.10768899999999348
                },
                {
                    "name": "A#4",
                    "midi": 70,
                    "time": 138.488053999997,
                    "velocity": 0.5748031496062992,
                    "duration": 0.10768899999999348
                },
                {
                    "name": "F#4",
                    "midi": 66,
                    "time": 138.595742999997,
                    "velocity": 0.5669291338582677,
                    "duration": 0.10768899999999348
                },
                {
                    "name": "A4",
                    "midi": 69,
                    "time": 138.70343199999698,
                    "velocity": 0.6062992125984252,
                    "duration": 0.10768899999999348
                },
                {
                    "name": "D#4",
                    "midi": 63,
                    "time": 138.81112099999697,
                    "velocity": 0.5826771653543307,
                    "duration": 0.10768899999999348
                },
                {
                    "name": "A4",
                    "midi": 69,
                    "time": 138.91880999999697,
                    "velocity": 0.5984251968503937,
                    "duration": 0.10768899999999348
                },
                {
                    "name": "C5",
                    "midi": 72,
                    "time": 139.02649899999696,
                    "velocity": 0.6141732283464567,
                    "duration": 0.10768899999999348
                },
                {
                    "name": "D#5",
                    "midi": 75,
                    "time": 139.13418799999695,
                    "velocity": 0.6299212598425197,
                    "duration": 0.10768899999999348
                },
                {
                    "name": "F5",
                    "midi": 77,
                    "time": 139.24187699999695,
                    "velocity": 0.5984251968503937,
                    "duration": 0.10768899999999348
                },
                {
                    "name": "D#5",
                    "midi": 75,
                    "time": 139.34956599999694,
                    "velocity": 0.5984251968503937,
                    "duration": 0.10768899999999348
                },
                {
                    "name": "C#5",
                    "midi": 73,
                    "time": 139.45725499999693,
                    "velocity": 0.6062992125984252,
                    "duration": 0.10768899999999348
                },
                {
                    "name": "C5",
                    "midi": 72,
                    "time": 139.56494399999693,
                    "velocity": 0.6141732283464567,
                    "duration": 0.10768899999999348
                },
                {
                    "name": "C#5",
                    "midi": 73,
                    "time": 139.67263299999692,
                    "velocity": 0.5669291338582677,
                    "duration": 0.10768899999999348
                },
                {
                    "name": "C5",
                    "midi": 72,
                    "time": 139.78032199999691,
                    "velocity": 0.5748031496062992,
                    "duration": 0.10768899999999348
                },
                {
                    "name": "A#4",
                    "midi": 70,
                    "time": 139.8880109999969,
                    "velocity": 0.5748031496062992,
                    "duration": 0.10768899999999348
                },
                {
                    "name": "A4",
                    "midi": 69,
                    "time": 139.9956999999969,
                    "velocity": 0.6299212598425197,
                    "duration": 0.10768899999999348
                },
                {
                    "name": "A#4",
                    "midi": 70,
                    "time": 140.1033889999969,
                    "velocity": 0.5905511811023622,
                    "duration": 0.10768899999999348
                },
                {
                    "name": "C5",
                    "midi": 72,
                    "time": 140.2110779999969,
                    "velocity": 0.5905511811023622,
                    "duration": 0.10768899999999348
                },
                {
                    "name": "A4",
                    "midi": 69,
                    "time": 140.31876699999688,
                    "velocity": 0.5826771653543307,
                    "duration": 0.10768899999999348
                },
                {
                    "name": "A#4",
                    "midi": 70,
                    "time": 140.42645599999688,
                    "velocity": 0.7086614173228346,
                    "duration": 0.10768899999999348
                },
                {
                    "name": "F4",
                    "midi": 65,
                    "time": 140.53414499999687,
                    "velocity": 0.5984251968503937,
                    "duration": 0.10768899999999348
                },
                {
                    "name": "A#4",
                    "midi": 70,
                    "time": 140.64183399999686,
                    "velocity": 0.6220472440944882,
                    "duration": 0.10768899999999348
                },
                {
                    "name": "C#5",
                    "midi": 73,
                    "time": 140.74952299999686,
                    "velocity": 0.6456692913385826,
                    "duration": 0.10768899999999348
                },
                {
                    "name": "F5",
                    "midi": 77,
                    "time": 140.85721199999685,
                    "velocity": 0.6535433070866141,
                    "duration": 0.10768899999999348
                },
                {
                    "name": "F#5",
                    "midi": 78,
                    "time": 140.96490099999684,
                    "velocity": 0.6535433070866141,
                    "duration": 0.10768899999999348
                },
                {
                    "name": "F5",
                    "midi": 77,
                    "time": 141.07258999999684,
                    "velocity": 0.6456692913385826,
                    "duration": 0.10768899999999348
                },
                {
                    "name": "D#5",
                    "midi": 75,
                    "time": 141.18027899999683,
                    "velocity": 0.6456692913385826,
                    "duration": 0.10768899999999348
                },
                {
                    "name": "C#5",
                    "midi": 73,
                    "time": 141.28796799999682,
                    "velocity": 0.6377952755905512,
                    "duration": 0.10768899999999348
                },
                {
                    "name": "C5",
                    "midi": 72,
                    "time": 141.39565699999682,
                    "velocity": 0.6377952755905512,
                    "duration": 0.10768899999999348
                },
                {
                    "name": "A#4",
                    "midi": 70,
                    "time": 141.5033459999968,
                    "velocity": 0.6299212598425197,
                    "duration": 0.10768899999999348
                },
                {
                    "name": "G#4",
                    "midi": 68,
                    "time": 141.6110349999968,
                    "velocity": 0.6299212598425197,
                    "duration": 0.10768899999999348
                },
                {
                    "name": "F#4",
                    "midi": 66,
                    "time": 141.7187239999968,
                    "velocity": 0.6220472440944882,
                    "duration": 0.10768899999999348
                },
                {
                    "name": "F4",
                    "midi": 65,
                    "time": 141.8264129999968,
                    "velocity": 0.6220472440944882,
                    "duration": 0.10768899999999348
                },
                {
                    "name": "D#4",
                    "midi": 63,
                    "time": 141.93410199999678,
                    "velocity": 0.6141732283464567,
                    "duration": 0.10768899999999348
                },
                {
                    "name": "C#4",
                    "midi": 61,
                    "time": 142.04179099999678,
                    "velocity": 0.6141732283464567,
                    "duration": 0.10768899999999348
                },
                {
                    "name": "C4",
                    "midi": 60,
                    "time": 142.14947999999677,
                    "velocity": 0.6062992125984252,
                    "duration": 0.10768899999999348
                },
                {
                    "name": "A#3",
                    "midi": 58,
                    "time": 142.25716899999676,
                    "velocity": 0.6062992125984252,
                    "duration": 0.10768899999999348
                },
                {
                    "name": "G#3",
                    "midi": 56,
                    "time": 142.36485799999676,
                    "velocity": 0.5984251968503937,
                    "duration": 0.10768899999999348
                },
                {
                    "name": "F#3",
                    "midi": 54,
                    "time": 142.47254699999675,
                    "velocity": 0.5984251968503937,
                    "duration": 0.10768899999999348
                },
                {
                    "name": "F3",
                    "midi": 53,
                    "time": 142.58023599999675,
                    "velocity": 0.5748031496062992,
                    "duration": 0.10768899999999348
                },
                {
                    "name": "D#3",
                    "midi": 51,
                    "time": 142.68792499999674,
                    "velocity": 0.5748031496062992,
                    "duration": 0.10768899999999348
                },
                {
                    "name": "C#3",
                    "midi": 49,
                    "time": 142.79561399999673,
                    "velocity": 0.5826771653543307,
                    "duration": 0.10768899999999348
                },
                {
                    "name": "C3",
                    "midi": 48,
                    "time": 142.90330299999673,
                    "velocity": 0.5984251968503937,
                    "duration": 0.10768899999999348
                },
                {
                    "name": "A#2",
                    "midi": 46,
                    "time": 143.01099199999672,
                    "velocity": 0.6141732283464567,
                    "duration": 0.10768899999999348
                },
                {
                    "name": "C3",
                    "midi": 48,
                    "time": 143.1186809999967,
                    "velocity": 0.6220472440944882,
                    "duration": 0.10768899999999348
                },
                {
                    "name": "C#3",
                    "midi": 49,
                    "time": 143.2263699999967,
                    "velocity": 0.6377952755905512,
                    "duration": 0.10768899999999348
                },
                {
                    "name": "A#2",
                    "midi": 46,
                    "time": 143.3340589999967,
                    "velocity": 0.6456692913385826,
                    "duration": 0.10768899999999348
                },
                {
                    "name": "A#2",
                    "midi": 46,
                    "time": 143.4417479999967,
                    "velocity": 0.6456692913385826,
                    "duration": 0.21537799999998697
                },
                {
                    "name": "B2",
                    "midi": 47,
                    "time": 143.65712599999668,
                    "velocity": 0.6062992125984252,
                    "duration": 0.21537799999998697
                },
                {
                    "name": "D3",
                    "midi": 50,
                    "time": 143.65712599999668,
                    "velocity": 0.6062992125984252,
                    "duration": 0.21537799999998697
                },
                {
                    "name": "F3",
                    "midi": 53,
                    "time": 143.65712599999668,
                    "velocity": 0.6062992125984252,
                    "duration": 0.21537799999998697
                },
                {
                    "name": "G#3",
                    "midi": 56,
                    "time": 143.65712599999668,
                    "velocity": 0.7086614173228346,
                    "duration": 0.21537799999998697
                },
                {
                    "name": "C3",
                    "midi": 48,
                    "time": 143.87250399999667,
                    "velocity": 0.6456692913385826,
                    "duration": 0.10768899999999348
                },
                {
                    "name": "E3",
                    "midi": 52,
                    "time": 143.87250399999667,
                    "velocity": 0.6456692913385826,
                    "duration": 0.10768899999999348
                },
                {
                    "name": "G3",
                    "midi": 55,
                    "time": 143.87250399999667,
                    "velocity": 0.7716535433070866,
                    "duration": 0.10768899999999348
                },
                {
                    "name": "C3",
                    "midi": 48,
                    "time": 143.98019299999666,
                    "velocity": 0.5196850393700787,
                    "duration": 0.10768899999999348
                },
                {
                    "name": "C4",
                    "midi": 60,
                    "time": 143.98019299999666,
                    "velocity": 0.5196850393700787,
                    "duration": 0.10768899999999348
                },
                {
                    "name": "C4",
                    "midi": 60,
                    "time": 144.19557099999665,
                    "velocity": 0.5196850393700787,
                    "duration": 0.10768899999999348
                },
                {
                    "name": "C3",
                    "midi": 48,
                    "time": 144.19557099999665,
                    "velocity": 0.5196850393700787,
                    "duration": 0.10768899999999348
                },
                {
                    "name": "C4",
                    "midi": 60,
                    "time": 144.41094899999663,
                    "velocity": 0.5196850393700787,
                    "duration": 0.10768899999999348
                },
                {
                    "name": "C3",
                    "midi": 48,
                    "time": 144.41094899999663,
                    "velocity": 0.5196850393700787,
                    "duration": 0.10768899999999348
                },
                {
                    "name": "C4",
                    "midi": 60,
                    "time": 144.62632699999662,
                    "velocity": 0.5196850393700787,
                    "duration": 0.10768899999999348
                },
                {
                    "name": "C3",
                    "midi": 48,
                    "time": 144.62632699999662,
                    "velocity": 0.5196850393700787,
                    "duration": 0.10768899999999348
                },
                {
                    "name": "C4",
                    "midi": 60,
                    "time": 144.8417049999966,
                    "velocity": 0.5196850393700787,
                    "duration": 0.10768899999999348
                },
                {
                    "name": "C3",
                    "midi": 48,
                    "time": 144.8417049999966,
                    "velocity": 0.5196850393700787,
                    "duration": 0.10768899999999348
                },
                {
                    "name": "C4",
                    "midi": 60,
                    "time": 145.0570829999966,
                    "velocity": 0.5196850393700787,
                    "duration": 0.10768899999999348
                },
                {
                    "name": "C3",
                    "midi": 48,
                    "time": 145.0570829999966,
                    "velocity": 0.5196850393700787,
                    "duration": 0.10768899999999348
                },
                {
                    "name": "C4",
                    "midi": 60,
                    "time": 145.27246099999658,
                    "velocity": 0.5196850393700787,
                    "duration": 0.10768899999999348
                },
                {
                    "name": "C3",
                    "midi": 48,
                    "time": 145.27246099999658,
                    "velocity": 0.5196850393700787,
                    "duration": 0.10768899999999348
                },
                {
                    "name": "C4",
                    "midi": 60,
                    "time": 145.48783899999657,
                    "velocity": 0.5196850393700787,
                    "duration": 0.10768899999999348
                },
                {
                    "name": "C3",
                    "midi": 48,
                    "time": 145.48783899999657,
                    "velocity": 0.5196850393700787,
                    "duration": 0.10768899999999348
                },
                {
                    "name": "C4",
                    "midi": 60,
                    "time": 145.70321699999656,
                    "velocity": 0.5039370078740157,
                    "duration": 0.10768899999999348
                },
                {
                    "name": "C5",
                    "midi": 72,
                    "time": 145.70321699999656,
                    "velocity": 0.5039370078740157,
                    "duration": 0.10768899999999348
                },
                {
                    "name": "C4",
                    "midi": 60,
                    "time": 145.91859499999654,
                    "velocity": 0.5039370078740157,
                    "duration": 0.10768899999999348
                },
                {
                    "name": "C5",
                    "midi": 72,
                    "time": 145.91859499999654,
                    "velocity": 0.5039370078740157,
                    "duration": 0.10768899999999348
                },
                {
                    "name": "C4",
                    "midi": 60,
                    "time": 146.13397299999653,
                    "velocity": 0.5118110236220472,
                    "duration": 0.10768899999999348
                },
                {
                    "name": "C5",
                    "midi": 72,
                    "time": 146.13397299999653,
                    "velocity": 0.5118110236220472,
                    "duration": 0.10768899999999348
                },
                {
                    "name": "C4",
                    "midi": 60,
                    "time": 146.34935099999652,
                    "velocity": 0.5196850393700787,
                    "duration": 0.10768899999999348
                },
                {
                    "name": "C5",
                    "midi": 72,
                    "time": 146.34935099999652,
                    "velocity": 0.5196850393700787,
                    "duration": 0.10768899999999348
                },
                {
                    "name": "C4",
                    "midi": 60,
                    "time": 146.5647289999965,
                    "velocity": 0.5039370078740157,
                    "duration": 0.10768899999999348
                },
                {
                    "name": "C5",
                    "midi": 72,
                    "time": 146.5647289999965,
                    "velocity": 0.5039370078740157,
                    "duration": 0.10768899999999348
                },
                {
                    "name": "C4",
                    "midi": 60,
                    "time": 146.7801069999965,
                    "velocity": 0.5039370078740157,
                    "duration": 0.10768899999999348
                },
                {
                    "name": "C5",
                    "midi": 72,
                    "time": 146.7801069999965,
                    "velocity": 0.5039370078740157,
                    "duration": 0.10768899999999348
                },
                {
                    "name": "C4",
                    "midi": 60,
                    "time": 146.99548499999648,
                    "velocity": 0.5118110236220472,
                    "duration": 0.10768899999999348
                },
                {
                    "name": "C5",
                    "midi": 72,
                    "time": 146.99548499999648,
                    "velocity": 0.5118110236220472,
                    "duration": 0.10768899999999348
                },
                {
                    "name": "C4",
                    "midi": 60,
                    "time": 147.21086299999646,
                    "velocity": 0.5196850393700787,
                    "duration": 0.10768899999999348
                },
                {
                    "name": "C5",
                    "midi": 72,
                    "time": 147.21086299999646,
                    "velocity": 0.5196850393700787,
                    "duration": 0.10768899999999348
                },
                {
                    "name": "C5",
                    "midi": 72,
                    "time": 147.42624099999645,
                    "velocity": 0.5275590551181102,
                    "duration": 0.10768899999999348
                },
                {
                    "name": "C6",
                    "midi": 84,
                    "time": 147.42624099999645,
                    "velocity": 0.5275590551181102,
                    "duration": 0.10768899999999348
                },
                {
                    "name": "C5",
                    "midi": 72,
                    "time": 147.64161899999644,
                    "velocity": 0.5354330708661418,
                    "duration": 0.10768899999999348
                },
                {
                    "name": "C6",
                    "midi": 84,
                    "time": 147.64161899999644,
                    "velocity": 0.5354330708661418,
                    "duration": 0.10768899999999348
                },
                {
                    "name": "C5",
                    "midi": 72,
                    "time": 147.85699699999643,
                    "velocity": 0.5433070866141733,
                    "duration": 0.10768899999999348
                },
                {
                    "name": "C6",
                    "midi": 84,
                    "time": 147.85699699999643,
                    "velocity": 0.5433070866141733,
                    "duration": 0.10768899999999348
                },
                {
                    "name": "C5",
                    "midi": 72,
                    "time": 148.0723749999964,
                    "velocity": 0.5511811023622047,
                    "duration": 0.10768899999999348
                },
                {
                    "name": "C6",
                    "midi": 84,
                    "time": 148.0723749999964,
                    "velocity": 0.5511811023622047,
                    "duration": 0.10768899999999348
                },
                {
                    "name": "C5",
                    "midi": 72,
                    "time": 148.2877529999964,
                    "velocity": 0.5590551181102362,
                    "duration": 0.10768899999999348
                },
                {
                    "name": "C6",
                    "midi": 84,
                    "time": 148.2877529999964,
                    "velocity": 0.5590551181102362,
                    "duration": 0.10768899999999348
                },
                {
                    "name": "C5",
                    "midi": 72,
                    "time": 148.5031309999964,
                    "velocity": 0.5669291338582677,
                    "duration": 0.10768899999999348
                },
                {
                    "name": "C6",
                    "midi": 84,
                    "time": 148.5031309999964,
                    "velocity": 0.5669291338582677,
                    "duration": 0.10768899999999348
                },
                {
                    "name": "C5",
                    "midi": 72,
                    "time": 148.71850899999637,
                    "velocity": 0.5748031496062992,
                    "duration": 0.10768899999999348
                },
                {
                    "name": "C6",
                    "midi": 84,
                    "time": 148.71850899999637,
                    "velocity": 0.5748031496062992,
                    "duration": 0.10768899999999348
                },
                {
                    "name": "C5",
                    "midi": 72,
                    "time": 148.93388699999636,
                    "velocity": 0.5826771653543307,
                    "duration": 0.10768899999999348
                },
                {
                    "name": "C6",
                    "midi": 84,
                    "time": 148.93388699999636,
                    "velocity": 0.5826771653543307,
                    "duration": 0.10768899999999348
                },
                {
                    "name": "C6",
                    "midi": 84,
                    "time": 149.14926499999635,
                    "velocity": 0.5905511811023622,
                    "duration": 0.10768899999999348
                },
                {
                    "name": "C7",
                    "midi": 96,
                    "time": 149.14926499999635,
                    "velocity": 0.5905511811023622,
                    "duration": 0.10768899999999348
                },
                {
                    "name": "C6",
                    "midi": 84,
                    "time": 149.36464299999633,
                    "velocity": 0.5984251968503937,
                    "duration": 0.10768899999999348
                },
                {
                    "name": "C7",
                    "midi": 96,
                    "time": 149.36464299999633,
                    "velocity": 0.5984251968503937,
                    "duration": 0.10768899999999348
                },
                {
                    "name": "C6",
                    "midi": 84,
                    "time": 149.58002099999632,
                    "velocity": 0.6141732283464567,
                    "duration": 0.10768899999999348
                },
                {
                    "name": "C7",
                    "midi": 96,
                    "time": 149.58002099999632,
                    "velocity": 0.6141732283464567,
                    "duration": 0.10768899999999348
                },
                {
                    "name": "C6",
                    "midi": 84,
                    "time": 149.7953989999963,
                    "velocity": 0.6377952755905512,
                    "duration": 0.10768899999999348
                },
                {
                    "name": "C7",
                    "midi": 96,
                    "time": 149.7953989999963,
                    "velocity": 0.6377952755905512,
                    "duration": 0.10768899999999348
                },
                {
                    "name": "C6",
                    "midi": 84,
                    "time": 150.0107769999963,
                    "velocity": 0.6456692913385826,
                    "duration": 0.10768899999999348
                },
                {
                    "name": "C7",
                    "midi": 96,
                    "time": 150.0107769999963,
                    "velocity": 0.6456692913385826,
                    "duration": 0.10768899999999348
                },
                {
                    "name": "C6",
                    "midi": 84,
                    "time": 150.22615499999628,
                    "velocity": 0.6614173228346457,
                    "duration": 0.10768899999999348
                },
                {
                    "name": "C7",
                    "midi": 96,
                    "time": 150.22615499999628,
                    "velocity": 0.6614173228346457,
                    "duration": 0.10768899999999348
                },
                {
                    "name": "C6",
                    "midi": 84,
                    "time": 150.44153299999627,
                    "velocity": 0.6771653543307087,
                    "duration": 0.10768899999999348
                },
                {
                    "name": "C7",
                    "midi": 96,
                    "time": 150.44153299999627,
                    "velocity": 0.6771653543307087,
                    "duration": 0.10768899999999348
                },
                {
                    "name": "C6",
                    "midi": 84,
                    "time": 150.65691099999626,
                    "velocity": 0.6929133858267716,
                    "duration": 0.10768899999999348
                },
                {
                    "name": "C7",
                    "midi": 96,
                    "time": 150.65691099999626,
                    "velocity": 0.6929133858267716,
                    "duration": 0.10768899999999348
                },
                {
                    "name": "C#4",
                    "midi": 61,
                    "time": 151.73380099999625,
                    "velocity": 0.5669291338582677,
                    "duration": 0.10768899999999348
                },
                {
                    "name": "F#4",
                    "midi": 66,
                    "time": 151.84148999999624,
                    "velocity": 0.5905511811023622,
                    "duration": 0.10768899999999348
                },
                {
                    "name": "A#4",
                    "midi": 70,
                    "time": 151.94917899999624,
                    "velocity": 0.5984251968503937,
                    "duration": 0.10768899999999348
                },
                {
                    "name": "C#5",
                    "midi": 73,
                    "time": 152.05686799999623,
                    "velocity": 0.6929133858267716,
                    "duration": 0.10768899999999348
                },
                {
                    "name": "C#5",
                    "midi": 73,
                    "time": 152.59531299999622,
                    "velocity": 0.6062992125984252,
                    "duration": 0.10768899999999348
                },
                {
                    "name": "F#5",
                    "midi": 78,
                    "time": 152.70300199999622,
                    "velocity": 0.6220472440944882,
                    "duration": 0.10768899999999348
                },
                {
                    "name": "A#5",
                    "midi": 82,
                    "time": 152.8106909999962,
                    "velocity": 0.6377952755905512,
                    "duration": 0.10768899999999348
                },
                {
                    "name": "C#6",
                    "midi": 85,
                    "time": 152.9183799999962,
                    "velocity": 0.7007874015748031,
                    "duration": 0.21537799999998697
                },
                {
                    "name": "E4",
                    "midi": 64,
                    "time": 154.6414039999962,
                    "velocity": 0.7007874015748031,
                    "duration": 0.10768899999999348
                },
                {
                    "name": "E4",
                    "midi": 64,
                    "time": 155.17984899999618,
                    "velocity": 0.5669291338582677,
                    "duration": 0.10768899999999348
                },
                {
                    "name": "G4",
                    "midi": 67,
                    "time": 155.28753799999618,
                    "velocity": 0.5905511811023622,
                    "duration": 0.10768899999999348
                },
                {
                    "name": "A#4",
                    "midi": 70,
                    "time": 155.39522699999617,
                    "velocity": 0.5984251968503937,
                    "duration": 0.10768899999999348
                },
                {
                    "name": "E5",
                    "midi": 76,
                    "time": 155.50291599999616,
                    "velocity": 0.6850393700787402,
                    "duration": 0.10768899999999348
                },
                {
                    "name": "E5",
                    "midi": 76,
                    "time": 156.04136099999616,
                    "velocity": 0.6062992125984252,
                    "duration": 0.10768899999999348
                },
                {
                    "name": "G5",
                    "midi": 79,
                    "time": 156.14904999999615,
                    "velocity": 0.6220472440944882,
                    "duration": 0.10768899999999348
                },
                {
                    "name": "A#5",
                    "midi": 82,
                    "time": 156.25673899999614,
                    "velocity": 0.6377952755905512,
                    "duration": 0.10768899999999348
                },
                {
                    "name": "E6",
                    "midi": 88,
                    "time": 156.36442799999614,
                    "velocity": 0.7322834645669292,
                    "duration": 0.21537799999998697
                },
                {
                    "name": "C#4",
                    "midi": 61,
                    "time": 158.30282999999613,
                    "velocity": 0.4015748031496063,
                    "duration": 0.10768899999999348
                },
                {
                    "name": "E4",
                    "midi": 64,
                    "time": 158.41051899999613,
                    "velocity": 0.41732283464566927,
                    "duration": 0.10768899999999348
                },
                {
                    "name": "G4",
                    "midi": 67,
                    "time": 158.51820799999612,
                    "velocity": 0.4251968503937008,
                    "duration": 0.21537799999998697
                },
                {
                    "name": "A#3",
                    "midi": 58,
                    "time": 159.8104759999961,
                    "velocity": 0.3700787401574803,
                    "duration": 0.10768899999999348
                },
                {
                    "name": "C#4",
                    "midi": 61,
                    "time": 159.9181649999961,
                    "velocity": 0.4015748031496063,
                    "duration": 0.10768899999999348
                },
                {
                    "name": "E4",
                    "midi": 64,
                    "time": 160.0258539999961,
                    "velocity": 0.3779527559055118,
                    "duration": 0.10768899999999348
                },
                {
                    "name": "G4",
                    "midi": 67,
                    "time": 160.13354299999608,
                    "velocity": 0.3937007874015748,
                    "duration": 0.10768899999999348
                },
                {
                    "name": "A#4",
                    "midi": 70,
                    "time": 160.24123199999607,
                    "velocity": 0.4015748031496063,
                    "duration": 0.21537799999998697
                },
                {
                    "name": "C#4",
                    "midi": 61,
                    "time": 161.53349999999605,
                    "velocity": 0.3464566929133858,
                    "duration": 0.10768899999999348
                },
                {
                    "name": "E4",
                    "midi": 64,
                    "time": 161.64118899999605,
                    "velocity": 0.3779527559055118,
                    "duration": 0.10768899999999348
                },
                {
                    "name": "G4",
                    "midi": 67,
                    "time": 161.74887799999604,
                    "velocity": 0.3543307086614173,
                    "duration": 0.10768899999999348
                },
                {
                    "name": "A#4",
                    "midi": 70,
                    "time": 161.85656699999603,
                    "velocity": 0.3700787401574803,
                    "duration": 0.10768899999999348
                },
                {
                    "name": "C#5",
                    "midi": 73,
                    "time": 161.96425599999603,
                    "velocity": 0.3779527559055118,
                    "duration": 0.21537799999998697
                },
                {
                    "name": "E4",
                    "midi": 64,
                    "time": 163.256523999996,
                    "velocity": 0.3228346456692913,
                    "duration": 0.10768899999999348
                },
                {
                    "name": "G4",
                    "midi": 67,
                    "time": 163.364212999996,
                    "velocity": 0.3543307086614173,
                    "duration": 0.10768899999999348
                },
                {
                    "name": "A#4",
                    "midi": 70,
                    "time": 163.471901999996,
                    "velocity": 0.33070866141732286,
                    "duration": 0.10768899999999348
                },
                {
                    "name": "C#5",
                    "midi": 73,
                    "time": 163.579590999996,
                    "velocity": 0.3464566929133858,
                    "duration": 0.10768899999999348
                },
                {
                    "name": "E5",
                    "midi": 76,
                    "time": 163.68727999999598,
                    "velocity": 0.3543307086614173,
                    "duration": 0.21537799999998697
                },
                {
                    "name": "C#4",
                    "midi": 61,
                    "time": 165.41030399999596,
                    "velocity": 0.2755905511811024,
                    "duration": 0.21537799999998697
                },
                {
                    "name": "E4",
                    "midi": 64,
                    "time": 165.62568199999595,
                    "velocity": 0.28346456692913385,
                    "duration": 0.21537799999998697
                },
                {
                    "name": "G4",
                    "midi": 67,
                    "time": 165.84105999999593,
                    "velocity": 0.29133858267716534,
                    "duration": 0.21537799999998697
                },
                {
                    "name": "A#4",
                    "midi": 70,
                    "time": 166.05643799999592,
                    "velocity": 0.2992125984251969,
                    "duration": 0.21537799999998697
                },
                {
                    "name": "C#5",
                    "midi": 73,
                    "time": 166.2718159999959,
                    "velocity": 0.30708661417322836,
                    "duration": 0.21537799999998697
                },
                {
                    "name": "E5",
                    "midi": 76,
                    "time": 166.4871939999959,
                    "velocity": 0.31496062992125984,
                    "duration": 0.21537799999998697
                },
                {
                    "name": "G5",
                    "midi": 79,
                    "time": 166.70257199999588,
                    "velocity": 0.31496062992125984,
                    "duration": 0.21537799999998697
                },
                {
                    "name": "A#5",
                    "midi": 82,
                    "time": 166.91794999999587,
                    "velocity": 0.3228346456692913,
                    "duration": 0.21537799999998697
                },
                {
                    "name": "C#6",
                    "midi": 85,
                    "time": 167.13332799999586,
                    "velocity": 0.33070866141732286,
                    "duration": 0.21537799999998697
                },
                {
                    "name": "E6",
                    "midi": 88,
                    "time": 167.34870599999584,
                    "velocity": 0.33858267716535434,
                    "duration": 0.21537799999998697
                },
                {
                    "name": "G6",
                    "midi": 91,
                    "time": 167.56408399999583,
                    "velocity": 0.3464566929133858,
                    "duration": 0.21537799999998697
                },
                {
                    "name": "A#6",
                    "midi": 94,
                    "time": 167.77946199999582,
                    "velocity": 0.36220472440944884,
                    "duration": 0.21537799999998697
                },
                {
                    "name": "G6",
                    "midi": 91,
                    "time": 167.9948399999958,
                    "velocity": 0.36220472440944884,
                    "duration": 0.21537799999998697
                },
                {
                    "name": "E6",
                    "midi": 88,
                    "time": 168.2102179999958,
                    "velocity": 0.3543307086614173,
                    "duration": 0.21537799999998697
                },
                {
                    "name": "C#6",
                    "midi": 85,
                    "time": 168.42559599999578,
                    "velocity": 0.3543307086614173,
                    "duration": 0.21537799999998697
                },
                {
                    "name": "A#5",
                    "midi": 82,
                    "time": 168.64097399999577,
                    "velocity": 0.3464566929133858,
                    "duration": 0.21537799999998697
                },
                {
                    "name": "G5",
                    "midi": 79,
                    "time": 168.85635199999575,
                    "velocity": 0.3464566929133858,
                    "duration": 0.21537799999998697
                },
                {
                    "name": "E5",
                    "midi": 76,
                    "time": 169.07172999999574,
                    "velocity": 0.33858267716535434,
                    "duration": 0.21537799999998697
                },
                {
                    "name": "C#5",
                    "midi": 73,
                    "time": 169.28710799999573,
                    "velocity": 0.33858267716535434,
                    "duration": 0.21537799999998697
                },
                {
                    "name": "A#4",
                    "midi": 70,
                    "time": 169.5024859999957,
                    "velocity": 0.33070866141732286,
                    "duration": 0.21537799999998697
                },
                {
                    "name": "G4",
                    "midi": 67,
                    "time": 169.7178639999957,
                    "velocity": 0.33070866141732286,
                    "duration": 0.21537799999998697
                },
                {
                    "name": "E4",
                    "midi": 64,
                    "time": 169.9332419999957,
                    "velocity": 0.3228346456692913,
                    "duration": 0.21537799999998697
                },
                {
                    "name": "C#4",
                    "midi": 61,
                    "time": 170.14861999999567,
                    "velocity": 0.31496062992125984,
                    "duration": 0.21537799999998697
                },
                {
                    "name": "G3",
                    "midi": 55,
                    "time": 178.33298399999566,
                    "velocity": 0.2677165354330709,
                    "duration": 0.6461339999999893
                },
                {
                    "name": "A#3",
                    "midi": 58,
                    "time": 178.33298399999566,
                    "velocity": 0.2677165354330709,
                    "duration": 0.6461339999999893
                },
                {
                    "name": "C4",
                    "midi": 60,
                    "time": 178.33298399999566,
                    "velocity": 0.2677165354330709,
                    "duration": 0.6461339999999893
                },
                {
                    "name": "E4",
                    "midi": 64,
                    "time": 178.33298399999566,
                    "velocity": 0.2677165354330709,
                    "duration": 0.6461339999999893
                },
                {
                    "name": "G4",
                    "midi": 67,
                    "time": 179.19449599999564,
                    "velocity": 0.2677165354330709,
                    "duration": 0.6461339999999893
                },
                {
                    "name": "A#4",
                    "midi": 70,
                    "time": 179.19449599999564,
                    "velocity": 0.2677165354330709,
                    "duration": 0.6461339999999893
                },
                {
                    "name": "C5",
                    "midi": 72,
                    "time": 179.19449599999564,
                    "velocity": 0.2677165354330709,
                    "duration": 0.6461339999999893
                },
                {
                    "name": "E5",
                    "midi": 76,
                    "time": 179.19449599999564,
                    "velocity": 0.2677165354330709,
                    "duration": 0.6461339999999893
                },
                {
                    "name": "E6",
                    "midi": 88,
                    "time": 180.05600799999561,
                    "velocity": 0.2677165354330709,
                    "duration": 0.6461339999999893
                },
                {
                    "name": "C6",
                    "midi": 84,
                    "time": 180.05600799999561,
                    "velocity": 0.2677165354330709,
                    "duration": 0.6461339999999893
                },
                {
                    "name": "A#5",
                    "midi": 82,
                    "time": 180.05600799999561,
                    "velocity": 0.2677165354330709,
                    "duration": 0.6461339999999893
                },
                {
                    "name": "G5",
                    "midi": 79,
                    "time": 180.05600799999561,
                    "velocity": 0.2677165354330709,
                    "duration": 0.6461339999999893
                },
                {
                    "name": "C3",
                    "midi": 48,
                    "time": 181.88672099999562,
                    "velocity": 0.31496062992125984,
                    "duration": 0.10768899999999348
                },
                {
                    "name": "F3",
                    "midi": 53,
                    "time": 181.9944099999956,
                    "velocity": 0.29133858267716534,
                    "duration": 0.10768899999999348
                },
                {
                    "name": "G#3",
                    "midi": 56,
                    "time": 182.1020989999956,
                    "velocity": 0.29133858267716534,
                    "duration": 0.10768899999999348
                },
                {
                    "name": "C4",
                    "midi": 60,
                    "time": 182.2097879999956,
                    "velocity": 0.31496062992125984,
                    "duration": 0.10768899999999348
                },
                {
                    "name": "C#4",
                    "midi": 61,
                    "time": 182.3174769999956,
                    "velocity": 0.2992125984251969,
                    "duration": 0.10768899999999348
                },
                {
                    "name": "C4",
                    "midi": 60,
                    "time": 182.42516599999558,
                    "velocity": 0.2992125984251969,
                    "duration": 0.10768899999999348
                },
                {
                    "name": "A#3",
                    "midi": 58,
                    "time": 182.53285499999558,
                    "velocity": 0.2992125984251969,
                    "duration": 0.10768899999999348
                },
                {
                    "name": "G#3",
                    "midi": 56,
                    "time": 182.64054399999557,
                    "velocity": 0.31496062992125984,
                    "duration": 0.10768899999999348
                },
                {
                    "name": "A#3",
                    "midi": 58,
                    "time": 182.74823299999557,
                    "velocity": 0.29133858267716534,
                    "duration": 0.10768899999999348
                },
                {
                    "name": "G#3",
                    "midi": 56,
                    "time": 182.85592199999556,
                    "velocity": 0.29133858267716534,
                    "duration": 0.10768899999999348
                },
                {
                    "name": "G3",
                    "midi": 55,
                    "time": 182.96361099999555,
                    "velocity": 0.29133858267716534,
                    "duration": 0.10768899999999348
                },
                {
                    "name": "F3",
                    "midi": 53,
                    "time": 183.07129999999555,
                    "velocity": 0.31496062992125984,
                    "duration": 0.10768899999999348
                },
                {
                    "name": "G3",
                    "midi": 55,
                    "time": 183.17898899999554,
                    "velocity": 0.29133858267716534,
                    "duration": 0.10768899999999348
                },
                {
                    "name": "G#3",
                    "midi": 56,
                    "time": 183.28667799999553,
                    "velocity": 0.29133858267716534,
                    "duration": 0.10768899999999348
                },
                {
                    "name": "F3",
                    "midi": 53,
                    "time": 183.39436699999553,
                    "velocity": 0.29133858267716534,
                    "duration": 0.10768899999999348
                },
                {
                    "name": "C3",
                    "midi": 48,
                    "time": 183.6097449999955,
                    "velocity": 0.31496062992125984,
                    "duration": 0.10768899999999348
                },
                {
                    "name": "F3",
                    "midi": 53,
                    "time": 183.7174339999955,
                    "velocity": 0.29133858267716534,
                    "duration": 0.10768899999999348
                },
                {
                    "name": "G#3",
                    "midi": 56,
                    "time": 183.8251229999955,
                    "velocity": 0.29133858267716534,
                    "duration": 0.10768899999999348
                },
                {
                    "name": "C4",
                    "midi": 60,
                    "time": 183.9328119999955,
                    "velocity": 0.31496062992125984,
                    "duration": 0.10768899999999348
                },
                {
                    "name": "C#4",
                    "midi": 61,
                    "time": 184.0405009999955,
                    "velocity": 0.2992125984251969,
                    "duration": 0.10768899999999348
                },
                {
                    "name": "C4",
                    "midi": 60,
                    "time": 184.14818999999548,
                    "velocity": 0.2992125984251969,
                    "duration": 0.10768899999999348
                },
                {
                    "name": "A#3",
                    "midi": 58,
                    "time": 184.25587899999547,
                    "velocity": 0.2992125984251969,
                    "duration": 0.10768899999999348
                },
                {
                    "name": "G#3",
                    "midi": 56,
                    "time": 184.36356799999547,
                    "velocity": 0.31496062992125984,
                    "duration": 0.10768899999999348
                },
                {
                    "name": "A#3",
                    "midi": 58,
                    "time": 184.47125699999546,
                    "velocity": 0.29133858267716534,
                    "duration": 0.10768899999999348
                },
                {
                    "name": "G#3",
                    "midi": 56,
                    "time": 184.57894599999545,
                    "velocity": 0.29133858267716534,
                    "duration": 0.10768899999999348
                },
                {
                    "name": "G3",
                    "midi": 55,
                    "time": 184.68663499999545,
                    "velocity": 0.29133858267716534,
                    "duration": 0.10768899999999348
                },
                {
                    "name": "F3",
                    "midi": 53,
                    "time": 184.79432399999544,
                    "velocity": 0.31496062992125984,
                    "duration": 0.10768899999999348
                },
                {
                    "name": "G3",
                    "midi": 55,
                    "time": 184.90201299999543,
                    "velocity": 0.29133858267716534,
                    "duration": 0.10768899999999348
                },
                {
                    "name": "G#3",
                    "midi": 56,
                    "time": 185.00970199999543,
                    "velocity": 0.29133858267716534,
                    "duration": 0.10768899999999348
                },
                {
                    "name": "F3",
                    "midi": 53,
                    "time": 185.11739099999542,
                    "velocity": 0.29133858267716534,
                    "duration": 0.10768899999999348
                },
                {
                    "name": "C#3",
                    "midi": 49,
                    "time": 185.3327689999954,
                    "velocity": 0.3464566929133858,
                    "duration": 0.10768899999999348
                },
                {
                    "name": "F#3",
                    "midi": 54,
                    "time": 185.4404579999954,
                    "velocity": 0.31496062992125984,
                    "duration": 0.10768899999999348
                },
                {
                    "name": "A#3",
                    "midi": 58,
                    "time": 185.5481469999954,
                    "velocity": 0.31496062992125984,
                    "duration": 0.10768899999999348
                },
                {
                    "name": "C#4",
                    "midi": 61,
                    "time": 185.6558359999954,
                    "velocity": 0.3464566929133858,
                    "duration": 0.10768899999999348
                },
                {
                    "name": "D#4",
                    "midi": 63,
                    "time": 185.76352499999538,
                    "velocity": 0.3228346456692913,
                    "duration": 0.10768899999999348
                },
                {
                    "name": "C#4",
                    "midi": 61,
                    "time": 185.87121399999538,
                    "velocity": 0.3228346456692913,
                    "duration": 0.10768899999999348
                },
                {
                    "name": "C4",
                    "midi": 60,
                    "time": 185.97890299999537,
                    "velocity": 0.3228346456692913,
                    "duration": 0.10768899999999348
                },
                {
                    "name": "A#3",
                    "midi": 58,
                    "time": 186.08659199999536,
                    "velocity": 0.3464566929133858,
                    "duration": 0.10768899999999348
                },
                {
                    "name": "C4",
                    "midi": 60,
                    "time": 186.19428099999536,
                    "velocity": 0.31496062992125984,
                    "duration": 0.10768899999999348
                },
                {
                    "name": "A#3",
                    "midi": 58,
                    "time": 186.30196999999535,
                    "velocity": 0.31496062992125984,
                    "duration": 0.10768899999999348
                },
                {
                    "name": "G#3",
                    "midi": 56,
                    "time": 186.40965899999534,
                    "velocity": 0.31496062992125984,
                    "duration": 0.10768899999999348
                },
                {
                    "name": "F#3",
                    "midi": 54,
                    "time": 186.51734799999534,
                    "velocity": 0.3464566929133858,
                    "duration": 0.10768899999999348
                },
                {
                    "name": "G#3",
                    "midi": 56,
                    "time": 186.62503699999533,
                    "velocity": 0.31496062992125984,
                    "duration": 0.10768899999999348
                },
                {
                    "name": "F#3",
                    "midi": 54,
                    "time": 186.73272599999532,
                    "velocity": 0.31496062992125984,
                    "duration": 0.10768899999999348
                },
                {
                    "name": "F3",
                    "midi": 53,
                    "time": 186.84041499999532,
                    "velocity": 0.31496062992125984,
                    "duration": 0.10768899999999348
                },
                {
                    "name": "E3",
                    "midi": 52,
                    "time": 186.9481039999953,
                    "velocity": 0.3464566929133858,
                    "duration": 0.10768899999999348
                },
                {
                    "name": "F3",
                    "midi": 53,
                    "time": 187.0557929999953,
                    "velocity": 0.31496062992125984,
                    "duration": 0.10768899999999348
                },
                {
                    "name": "G3",
                    "midi": 55,
                    "time": 187.1634819999953,
                    "velocity": 0.31496062992125984,
                    "duration": 0.10768899999999348
                },
                {
                    "name": "E3",
                    "midi": 52,
                    "time": 187.2711709999953,
                    "velocity": 0.31496062992125984,
                    "duration": 0.10768899999999348
                },
                {
                    "name": "F3",
                    "midi": 53,
                    "time": 187.37885999999529,
                    "velocity": 0.3464566929133858,
                    "duration": 0.10768899999999348
                },
                {
                    "name": "G3",
                    "midi": 55,
                    "time": 187.48654899999528,
                    "velocity": 0.31496062992125984,
                    "duration": 0.10768899999999348
                },
                {
                    "name": "G#3",
                    "midi": 56,
                    "time": 187.59423799999527,
                    "velocity": 0.31496062992125984,
                    "duration": 0.10768899999999348
                },
                {
                    "name": "F3",
                    "midi": 53,
                    "time": 187.70192699999527,
                    "velocity": 0.31496062992125984,
                    "duration": 0.10768899999999348
                },
                {
                    "name": "G3",
                    "midi": 55,
                    "time": 187.80961599999526,
                    "velocity": 0.3464566929133858,
                    "duration": 0.10768899999999348
                },
                {
                    "name": "G#3",
                    "midi": 56,
                    "time": 187.91730499999525,
                    "velocity": 0.31496062992125984,
                    "duration": 0.10768899999999348
                },
                {
                    "name": "A#3",
                    "midi": 58,
                    "time": 188.02499399999525,
                    "velocity": 0.31496062992125984,
                    "duration": 0.10768899999999348
                },
                {
                    "name": "G3",
                    "midi": 55,
                    "time": 188.13268299999524,
                    "velocity": 0.31496062992125984,
                    "duration": 0.10768899999999348
                },
                {
                    "name": "E3",
                    "midi": 52,
                    "time": 188.24037199999523,
                    "velocity": 0.3464566929133858,
                    "duration": 0.10768899999999348
                },
                {
                    "name": "F3",
                    "midi": 53,
                    "time": 188.34806099999523,
                    "velocity": 0.29133858267716534,
                    "duration": 0.10768899999999348
                },
                {
                    "name": "G3",
                    "midi": 55,
                    "time": 188.45574999999522,
                    "velocity": 0.2992125984251969,
                    "duration": 0.10768899999999348
                },
                {
                    "name": "E3",
                    "midi": 52,
                    "time": 188.5634389999952,
                    "velocity": 0.31496062992125984,
                    "duration": 0.10768899999999348
                },
                {
                    "name": "F3",
                    "midi": 53,
                    "time": 188.6711279999952,
                    "velocity": 0.2992125984251969,
                    "duration": 0.43075600000000236
                },
                {
                    "name": "E4",
                    "midi": 64,
                    "time": 189.3172619999952,
                    "velocity": 0.44881889763779526,
                    "duration": 0.10768899999999348
                },
                {
                    "name": "F4",
                    "midi": 65,
                    "time": 189.53263999999518,
                    "velocity": 0.4881889763779528,
                    "duration": 0.10768899999999348
                },
                {
                    "name": "G4",
                    "midi": 67,
                    "time": 189.74801799999517,
                    "velocity": 0.44881889763779526,
                    "duration": 0.10768899999999348
                },
                {
                    "name": "G#4",
                    "midi": 68,
                    "time": 189.96339599999516,
                    "velocity": 0.4881889763779528,
                    "duration": 0.10768899999999348
                },
                {
                    "name": "F4",
                    "midi": 65,
                    "time": 190.17877399999514,
                    "velocity": 0.4645669291338583,
                    "duration": 0.10768899999999348
                },
                {
                    "name": "E5",
                    "midi": 76,
                    "time": 191.04028599999515,
                    "velocity": 0.47244094488188976,
                    "duration": 0.10768899999999348
                },
                {
                    "name": "E4",
                    "midi": 64,
                    "time": 191.04028599999515,
                    "velocity": 0.4094488188976378,
                    "duration": 0.10768899999999348
                },
                {
                    "name": "F5",
                    "midi": 77,
                    "time": 191.25566399999514,
                    "velocity": 0.5196850393700787,
                    "duration": 0.10768899999999348
                },
                {
                    "name": "F4",
                    "midi": 65,
                    "time": 191.25566399999514,
                    "velocity": 0.44881889763779526,
                    "duration": 0.10768899999999348
                },
                {
                    "name": "G4",
                    "midi": 67,
                    "time": 191.47104199999512,
                    "velocity": 0.41732283464566927,
                    "duration": 0.10768899999999348
                },
                {
                    "name": "G5",
                    "midi": 79,
                    "time": 191.47104199999512,
                    "velocity": 0.49606299212598426,
                    "duration": 0.10768899999999348
                },
                {
                    "name": "G#4",
                    "midi": 68,
                    "time": 191.6864199999951,
                    "velocity": 0.44881889763779526,
                    "duration": 0.10768899999999348
                },
                {
                    "name": "G#5",
                    "midi": 80,
                    "time": 191.6864199999951,
                    "velocity": 0.5354330708661418,
                    "duration": 0.10768899999999348
                },
                {
                    "name": "F4",
                    "midi": 65,
                    "time": 191.9017979999951,
                    "velocity": 0.41732283464566927,
                    "duration": 0.10768899999999348
                },
                {
                    "name": "F5",
                    "midi": 77,
                    "time": 191.9017979999951,
                    "velocity": 0.49606299212598426,
                    "duration": 0.10768899999999348
                },
                {
                    "name": "F4",
                    "midi": 65,
                    "time": 192.7633099999951,
                    "velocity": 0.4645669291338583,
                    "duration": 0.21537799999998697
                },
                {
                    "name": "F5",
                    "midi": 77,
                    "time": 192.7633099999951,
                    "velocity": 0.5590551181102362,
                    "duration": 0.21537799999998697
                },
                {
                    "name": "F#4",
                    "midi": 66,
                    "time": 192.9786879999951,
                    "velocity": 0.49606299212598426,
                    "duration": 0.21537799999998697
                },
                {
                    "name": "F#5",
                    "midi": 78,
                    "time": 192.9786879999951,
                    "velocity": 0.6062992125984252,
                    "duration": 0.21537799999998697
                },
                {
                    "name": "A#4",
                    "midi": 70,
                    "time": 193.19406599999508,
                    "velocity": 0.5196850393700787,
                    "duration": 0.21537799999998697
                },
                {
                    "name": "A#5",
                    "midi": 82,
                    "time": 193.19406599999508,
                    "velocity": 0.6220472440944882,
                    "duration": 0.21537799999998697
                },
                {
                    "name": "C#5",
                    "midi": 73,
                    "time": 193.40944399999506,
                    "velocity": 0.5433070866141733,
                    "duration": 0.10768899999999348
                },
                {
                    "name": "C#6",
                    "midi": 85,
                    "time": 193.40944399999506,
                    "velocity": 0.6377952755905512,
                    "duration": 0.10768899999999348
                },
                {
                    "name": "C#5",
                    "midi": 73,
                    "time": 193.62482199999505,
                    "velocity": 0.5196850393700787,
                    "duration": 0.10768899999999348
                },
                {
                    "name": "C#6",
                    "midi": 85,
                    "time": 193.62482199999505,
                    "velocity": 0.6220472440944882,
                    "duration": 0.10768899999999348
                },
                {
                    "name": "C#5",
                    "midi": 73,
                    "time": 193.84019999999504,
                    "velocity": 0.5590551181102362,
                    "duration": 0.43075600000000236
                },
                {
                    "name": "C#6",
                    "midi": 85,
                    "time": 193.84019999999504,
                    "velocity": 0.6535433070866141,
                    "duration": 0.43075600000000236
                },
                {
                    "name": "C6",
                    "midi": 84,
                    "time": 194.27095599999504,
                    "velocity": 0.6141732283464567,
                    "duration": 0.8615120000000047
                },
                {
                    "name": "C5",
                    "midi": 72,
                    "time": 194.27095599999504,
                    "velocity": 0.5039370078740157,
                    "duration": 0.8615120000000047
                },
                {
                    "name": "E4",
                    "midi": 64,
                    "time": 195.13246799999504,
                    "velocity": 0.5039370078740157,
                    "duration": 0.43075600000000236
                },
                {
                    "name": "E5",
                    "midi": 76,
                    "time": 195.13246799999504,
                    "velocity": 0.5039370078740157,
                    "duration": 0.43075600000000236
                },
                {
                    "name": "F5",
                    "midi": 77,
                    "time": 195.56322399999505,
                    "velocity": 0.44881889763779526,
                    "duration": 0.10768899999999348
                },
                {
                    "name": "F4",
                    "midi": 65,
                    "time": 195.56322399999505,
                    "velocity": 0.44881889763779526,
                    "duration": 0.10768899999999348
                },
                {
                    "name": "C4",
                    "midi": 60,
                    "time": 195.67091299999504,
                    "velocity": 0.3228346456692913,
                    "duration": 0.10768899999999348
                },
                {
                    "name": "F4",
                    "midi": 65,
                    "time": 195.77860199999503,
                    "velocity": 0.3464566929133858,
                    "duration": 0.10768899999999348
                },
                {
                    "name": "G#4",
                    "midi": 68,
                    "time": 195.88629099999503,
                    "velocity": 0.36220472440944884,
                    "duration": 0.10768899999999348
                },
                {
                    "name": "C5",
                    "midi": 72,
                    "time": 195.99397999999502,
                    "velocity": 0.33858267716535434,
                    "duration": 0.10768899999999348
                },
                {
                    "name": "C4",
                    "midi": 60,
                    "time": 196.101668999995,
                    "velocity": 0.3543307086614173,
                    "duration": 0.10768899999999348
                },
                {
                    "name": "F4",
                    "midi": 65,
                    "time": 196.209357999995,
                    "velocity": 0.36220472440944884,
                    "duration": 0.10768899999999348
                },
                {
                    "name": "G#4",
                    "midi": 68,
                    "time": 196.317046999995,
                    "velocity": 0.3779527559055118,
                    "duration": 0.10768899999999348
                },
                {
                    "name": "C4",
                    "midi": 60,
                    "time": 196.532424999995,
                    "velocity": 0.36220472440944884,
                    "duration": 0.10768899999999348
                },
                {
                    "name": "F4",
                    "midi": 65,
                    "time": 196.64011399999498,
                    "velocity": 0.3700787401574803,
                    "duration": 0.10768899999999348
                },
                {
                    "name": "G#4",
                    "midi": 68,
                    "time": 196.74780299999497,
                    "velocity": 0.3858267716535433,
                    "duration": 0.10768899999999348
                },
                {
                    "name": "C5",
                    "midi": 72,
                    "time": 196.85549199999497,
                    "velocity": 0.3937007874015748,
                    "duration": 0.10768899999999348
                },
                {
                    "name": "C4",
                    "midi": 60,
                    "time": 196.96318099999496,
                    "velocity": 0.4094488188976378,
                    "duration": 0.10768899999999348
                },
                {
                    "name": "F4",
                    "midi": 65,
                    "time": 197.07086999999495,
                    "velocity": 0.41732283464566927,
                    "duration": 0.10768899999999348
                },
                {
                    "name": "G#4",
                    "midi": 68,
                    "time": 197.17855899999495,
                    "velocity": 0.2992125984251969,
                    "duration": 0.10768899999999348
                },
                {
                    "name": "B3",
                    "midi": 59,
                    "time": 197.39393699999493,
                    "velocity": 0.4015748031496063,
                    "duration": 0.10768899999999348
                },
                {
                    "name": "D4",
                    "midi": 62,
                    "time": 197.50162599999493,
                    "velocity": 0.4094488188976378,
                    "duration": 0.10768899999999348
                },
                {
                    "name": "G#4",
                    "midi": 68,
                    "time": 197.60931499999492,
                    "velocity": 0.4094488188976378,
                    "duration": 0.10768899999999348
                },
                {
                    "name": "B4",
                    "midi": 71,
                    "time": 197.71700399999492,
                    "velocity": 0.4251968503937008,
                    "duration": 0.43075599999997394
                },
                {
                    "name": "B3",
                    "midi": 59,
                    "time": 197.8246929999949,
                    "velocity": 0.4094488188976378,
                    "duration": 0.10768899999999348
                },
                {
                    "name": "D4",
                    "midi": 62,
                    "time": 197.9323819999949,
                    "velocity": 0.4094488188976378,
                    "duration": 0.10768899999999348
                },
                {
                    "name": "G#4",
                    "midi": 68,
                    "time": 198.0400709999949,
                    "velocity": 0.4094488188976378,
                    "duration": 0.10768899999999348
                },
                {
                    "name": "B4",
                    "midi": 71,
                    "time": 198.1477599999949,
                    "velocity": 0.4251968503937008,
                    "duration": 0.43075599999997394
                },
                {
                    "name": "B3",
                    "midi": 59,
                    "time": 198.25544899999488,
                    "velocity": 0.4094488188976378,
                    "duration": 0.10768899999999348
                },
                {
                    "name": "E4",
                    "midi": 64,
                    "time": 198.36313799999488,
                    "velocity": 0.3937007874015748,
                    "duration": 0.10768899999999348
                },
                {
                    "name": "G4",
                    "midi": 67,
                    "time": 198.47082699999487,
                    "velocity": 0.3858267716535433,
                    "duration": 0.10768899999999348
                },
                {
                    "name": "C5",
                    "midi": 72,
                    "time": 198.57851599999486,
                    "velocity": 0.4094488188976378,
                    "duration": 0.43075599999997394
                },
                {
                    "name": "C4",
                    "midi": 60,
                    "time": 198.68620499999486,
                    "velocity": 0.36220472440944884,
                    "duration": 0.10768899999999348
                },
                {
                    "name": "E4",
                    "midi": 64,
                    "time": 198.79389399999485,
                    "velocity": 0.3464566929133858,
                    "duration": 0.10768899999999348
                },
                {
                    "name": "G4",
                    "midi": 67,
                    "time": 198.90158299999484,
                    "velocity": 0.2992125984251969,
                    "duration": 0.10768899999999348
                },
                {
                    "name": "C4",
                    "midi": 60,
                    "time": 199.11696099999483,
                    "velocity": 0.2992125984251969,
                    "duration": 0.10768899999999348
                },
                {
                    "name": "E4",
                    "midi": 64,
                    "time": 199.22464999999482,
                    "velocity": 0.31496062992125984,
                    "duration": 0.10768899999999348
                },
                {
                    "name": "G4",
                    "midi": 67,
                    "time": 199.33233899999482,
                    "velocity": 0.33070866141732286,
                    "duration": 0.10768899999999348
                },
                {
                    "name": "C5",
                    "midi": 72,
                    "time": 199.4400279999948,
                    "velocity": 0.33858267716535434,
                    "duration": 0.10768899999999348
                },
                {
                    "name": "C4",
                    "midi": 60,
                    "time": 199.5477169999948,
                    "velocity": 0.3543307086614173,
                    "duration": 0.10768899999999348
                },
                {
                    "name": "E4",
                    "midi": 64,
                    "time": 199.6554059999948,
                    "velocity": 0.36220472440944884,
                    "duration": 0.10768899999999348
                },
                {
                    "name": "G4",
                    "midi": 67,
                    "time": 199.7630949999948,
                    "velocity": 0.3779527559055118,
                    "duration": 0.10768899999999348
                },
                {
                    "name": "C4",
                    "midi": 60,
                    "time": 199.97847299999478,
                    "velocity": 0.36220472440944884,
                    "duration": 0.10768899999999348
                },
                {
                    "name": "E4",
                    "midi": 64,
                    "time": 200.08616199999477,
                    "velocity": 0.3700787401574803,
                    "duration": 0.10768899999999348
                },
                {
                    "name": "G4",
                    "midi": 67,
                    "time": 200.19385099999477,
                    "velocity": 0.3858267716535433,
                    "duration": 0.10768899999999348
                },
                {
                    "name": "C5",
                    "midi": 72,
                    "time": 200.30153999999476,
                    "velocity": 0.3937007874015748,
                    "duration": 0.10768899999999348
                },
                {
                    "name": "C4",
                    "midi": 60,
                    "time": 200.40922899999475,
                    "velocity": 0.4094488188976378,
                    "duration": 0.10768899999999348
                },
                {
                    "name": "E4",
                    "midi": 64,
                    "time": 200.51691799999475,
                    "velocity": 0.41732283464566927,
                    "duration": 0.10768899999999348
                },
                {
                    "name": "G4",
                    "midi": 67,
                    "time": 200.62460699999474,
                    "velocity": 0.2992125984251969,
                    "duration": 0.10768899999999348
                },
                {
                    "name": "C4",
                    "midi": 60,
                    "time": 200.83998499999473,
                    "velocity": 0.4015748031496063,
                    "duration": 0.10768899999999348
                },
                {
                    "name": "E4",
                    "midi": 64,
                    "time": 200.94767399999472,
                    "velocity": 0.4094488188976378,
                    "duration": 0.10768899999999348
                },
                {
                    "name": "G4",
                    "midi": 67,
                    "time": 201.0553629999947,
                    "velocity": 0.4094488188976378,
                    "duration": 0.10768899999999348
                },
                {
                    "name": "C5",
                    "midi": 72,
                    "time": 201.1630519999947,
                    "velocity": 0.4251968503937008,
                    "duration": 0.43075599999997394
                },
                {
                    "name": "C4",
                    "midi": 60,
                    "time": 201.2707409999947,
                    "velocity": 0.4094488188976378,
                    "duration": 0.10768899999999348
                },
                {
                    "name": "E4",
                    "midi": 64,
                    "time": 201.3784299999947,
                    "velocity": 0.4094488188976378,
                    "duration": 0.10768899999999348
                },
                {
                    "name": "G4",
                    "midi": 67,
                    "time": 201.4861189999947,
                    "velocity": 0.4094488188976378,
                    "duration": 0.10768899999999348
                },
                {
                    "name": "C5",
                    "midi": 72,
                    "time": 201.59380799999468,
                    "velocity": 0.41732283464566927,
                    "duration": 0.43075599999997394
                },
                {
                    "name": "C4",
                    "midi": 60,
                    "time": 201.70149699999467,
                    "velocity": 0.4094488188976378,
                    "duration": 0.10768899999999348
                },
                {
                    "name": "E4",
                    "midi": 64,
                    "time": 201.80918599999467,
                    "velocity": 0.3937007874015748,
                    "duration": 0.10768899999999348
                },
                {
                    "name": "G4",
                    "midi": 67,
                    "time": 201.91687499999466,
                    "velocity": 0.3858267716535433,
                    "duration": 0.10768899999999348
                },
                {
                    "name": "C5",
                    "midi": 72,
                    "time": 202.02456399999465,
                    "velocity": 0.3700787401574803,
                    "duration": 0.43075599999997394
                },
                {
                    "name": "C4",
                    "midi": 60,
                    "time": 202.13225299999465,
                    "velocity": 0.36220472440944884,
                    "duration": 0.10768899999999348
                },
                {
                    "name": "F4",
                    "midi": 65,
                    "time": 202.23994199999464,
                    "velocity": 0.3464566929133858,
                    "duration": 0.10768899999999348
                },
                {
                    "name": "G#4",
                    "midi": 68,
                    "time": 202.34763099999464,
                    "velocity": 0.2992125984251969,
                    "duration": 0.10768899999999348
                },
                {
                    "name": "F4",
                    "midi": 65,
                    "time": 202.56300899999462,
                    "velocity": 0.2992125984251969,
                    "duration": 0.10768899999999348
                },
                {
                    "name": "A4",
                    "midi": 69,
                    "time": 202.67069799999462,
                    "velocity": 0.31496062992125984,
                    "duration": 0.10768899999999348
                },
                {
                    "name": "C5",
                    "midi": 72,
                    "time": 202.7783869999946,
                    "velocity": 0.33070866141732286,
                    "duration": 0.10768899999999348
                },
                {
                    "name": "F5",
                    "midi": 77,
                    "time": 202.8860759999946,
                    "velocity": 0.33858267716535434,
                    "duration": 0.10768899999999348
                },
                {
                    "name": "F4",
                    "midi": 65,
                    "time": 202.9937649999946,
                    "velocity": 0.3543307086614173,
                    "duration": 0.10768899999999348
                },
                {
                    "name": "A4",
                    "midi": 69,
                    "time": 203.1014539999946,
                    "velocity": 0.36220472440944884,
                    "duration": 0.10768899999999348
                },
                {
                    "name": "C5",
                    "midi": 72,
                    "time": 203.20914299999458,
                    "velocity": 0.3779527559055118,
                    "duration": 0.10768899999999348
                },
                {
                    "name": "F4",
                    "midi": 65,
                    "time": 203.42452099999457,
                    "velocity": 0.36220472440944884,
                    "duration": 0.10768899999999348
                },
                {
                    "name": "A4",
                    "midi": 69,
                    "time": 203.53220999999456,
                    "velocity": 0.3700787401574803,
                    "duration": 0.10768899999999348
                },
                {
                    "name": "C5",
                    "midi": 72,
                    "time": 203.63989899999456,
                    "velocity": 0.3858267716535433,
                    "duration": 0.10768899999999348
                },
                {
                    "name": "F5",
                    "midi": 77,
                    "time": 203.74758799999455,
                    "velocity": 0.3937007874015748,
                    "duration": 0.10768899999999348
                },
                {
                    "name": "F4",
                    "midi": 65,
                    "time": 203.85527699999454,
                    "velocity": 0.4094488188976378,
                    "duration": 0.10768899999999348
                },
                {
                    "name": "A4",
                    "midi": 69,
                    "time": 203.96296599999454,
                    "velocity": 0.41732283464566927,
                    "duration": 0.10768899999999348
                },
                {
                    "name": "C5",
                    "midi": 72,
                    "time": 204.07065499999453,
                    "velocity": 0.4251968503937008,
                    "duration": 0.10768899999999348
                },
                {
                    "name": "F4",
                    "midi": 65,
                    "time": 204.28603299999452,
                    "velocity": 0.3937007874015748,
                    "duration": 0.10768899999999348
                },
                {
                    "name": "A4",
                    "midi": 69,
                    "time": 204.3937219999945,
                    "velocity": 0.3937007874015748,
                    "duration": 0.10768899999999348
                },
                {
                    "name": "C5",
                    "midi": 72,
                    "time": 204.5014109999945,
                    "velocity": 0.3937007874015748,
                    "duration": 0.10768899999999348
                },
                {
                    "name": "F5",
                    "midi": 77,
                    "time": 204.6090999999945,
                    "velocity": 0.4330708661417323,
                    "duration": 0.43075599999997394
                },
                {
                    "name": "F4",
                    "midi": 65,
                    "time": 204.7167889999945,
                    "velocity": 0.41732283464566927,
                    "duration": 0.10768899999999348
                },
                {
                    "name": "A4",
                    "midi": 69,
                    "time": 204.82447799999449,
                    "velocity": 0.4094488188976378,
                    "duration": 0.10768899999999348
                },
                {
                    "name": "C5",
                    "midi": 72,
                    "time": 204.93216699999448,
                    "velocity": 0.4094488188976378,
                    "duration": 0.10768899999999348
                },
                {
                    "name": "A4",
                    "midi": 69,
                    "time": 205.03985599999447,
                    "velocity": 0.4251968503937008,
                    "duration": 0.10768899999999348
                },
                {
                    "name": "F4",
                    "midi": 65,
                    "time": 205.03985599999447,
                    "velocity": 0.4251968503937008,
                    "duration": 0.10768899999999348
                },
                {
                    "name": "F5",
                    "midi": 77,
                    "time": 205.14754499999447,
                    "velocity": 0.4251968503937008,
                    "duration": 0.10768899999999348
                },
                {
                    "name": "F4",
                    "midi": 65,
                    "time": 205.25523399999446,
                    "velocity": 0.41732283464566927,
                    "duration": 0.10768899999999348
                },
                {
                    "name": "A#4",
                    "midi": 70,
                    "time": 205.25523399999446,
                    "velocity": 0.41732283464566927,
                    "duration": 0.10768899999999348
                },
                {
                    "name": "F5",
                    "midi": 77,
                    "time": 205.36292299999445,
                    "velocity": 0.4094488188976378,
                    "duration": 0.10768899999999348
                },
                {
                    "name": "F4",
                    "midi": 65,
                    "time": 205.47061199999445,
                    "velocity": 0.4094488188976378,
                    "duration": 0.10768899999999348
                },
                {
                    "name": "C5",
                    "midi": 72,
                    "time": 205.47061199999445,
                    "velocity": 0.4094488188976378,
                    "duration": 0.10768899999999348
                },
                {
                    "name": "F5",
                    "midi": 77,
                    "time": 205.57830099999444,
                    "velocity": 0.4015748031496063,
                    "duration": 0.10768899999999348
                },
                {
                    "name": "C#5",
                    "midi": 73,
                    "time": 205.68598999999443,
                    "velocity": 0.3937007874015748,
                    "duration": 0.10768899999999348
                },
                {
                    "name": "F4",
                    "midi": 65,
                    "time": 205.68598999999443,
                    "velocity": 0.3937007874015748,
                    "duration": 0.10768899999999348
                },
                {
                    "name": "F5",
                    "midi": 77,
                    "time": 205.79367899999443,
                    "velocity": 0.3937007874015748,
                    "duration": 0.10768899999999348
                },
                {
                    "name": "C4",
                    "midi": 60,
                    "time": 206.0090569999944,
                    "velocity": 0.4094488188976378,
                    "duration": 0.10768899999999348
                },
                {
                    "name": "F4",
                    "midi": 65,
                    "time": 206.1167459999944,
                    "velocity": 0.3858267716535433,
                    "duration": 0.10768899999999348
                },
                {
                    "name": "G#4",
                    "midi": 68,
                    "time": 206.2244349999944,
                    "velocity": 0.3937007874015748,
                    "duration": 0.10768899999999348
                },
                {
                    "name": "C5",
                    "midi": 72,
                    "time": 206.3321239999944,
                    "velocity": 0.4409448818897638,
                    "duration": 0.43075599999997394
                },
                {
                    "name": "C4",
                    "midi": 60,
                    "time": 206.4398129999944,
                    "velocity": 0.3937007874015748,
                    "duration": 0.10768899999999348
                },
                {
                    "name": "F4",
                    "midi": 65,
                    "time": 206.54750199999438,
                    "velocity": 0.3937007874015748,
                    "duration": 0.10768899999999348
                },
                {
                    "name": "G#4",
                    "midi": 68,
                    "time": 206.65519099999437,
                    "velocity": 0.3937007874015748,
                    "duration": 0.10768899999999348
                },
                {
                    "name": "C5",
                    "midi": 72,
                    "time": 206.76287999999437,
                    "velocity": 0.4409448818897638,
                    "duration": 0.43075599999997394
                },
                {
                    "name": "C4",
                    "midi": 60,
                    "time": 206.87056899999436,
                    "velocity": 0.4094488188976378,
                    "duration": 0.10768899999999348
                },
                {
                    "name": "G4",
                    "midi": 67,
                    "time": 206.97825799999436,
                    "velocity": 0.4094488188976378,
                    "duration": 0.10768899999999348
                },
                {
                    "name": "A#4",
                    "midi": 70,
                    "time": 207.08594699999435,
                    "velocity": 0.4094488188976378,
                    "duration": 0.10768899999999348
                },
                {
                    "name": "C5",
                    "midi": 72,
                    "time": 207.19363599999434,
                    "velocity": 0.4409448818897638,
                    "duration": 0.43075599999997394
                },
                {
                    "name": "C4",
                    "midi": 60,
                    "time": 207.30132499999434,
                    "velocity": 0.4094488188976378,
                    "duration": 0.10768899999999348
                },
                {
                    "name": "E4",
                    "midi": 64,
                    "time": 207.40901399999433,
                    "velocity": 0.4094488188976378,
                    "duration": 0.10768899999999348
                },
                {
                    "name": "G4",
                    "midi": 67,
                    "time": 207.51670299999432,
                    "velocity": 0.4094488188976378,
                    "duration": 0.10768899999999348
                },
                {
                    "name": "C4",
                    "midi": 60,
                    "time": 207.62439199999432,
                    "velocity": 0.4645669291338583,
                    "duration": 0.43075600000000236
                },
                {
                    "name": "F4",
                    "midi": 65,
                    "time": 207.62439199999432,
                    "velocity": 0.4645669291338583,
                    "duration": 0.43075600000000236
                },
                {
                    "name": "G#4",
                    "midi": 68,
                    "time": 207.62439199999432,
                    "velocity": 0.4645669291338583,
                    "duration": 0.43075600000000236
                },
                {
                    "name": "C5",
                    "midi": 72,
                    "time": 207.62439199999432,
                    "velocity": 0.4645669291338583,
                    "duration": 0.43075600000000236
                },
                {
                    "name": "G#5",
                    "midi": 80,
                    "time": 208.37821499999433,
                    "velocity": 0.5433070866141733,
                    "duration": 0.10768899999999348
                },
                {
                    "name": "F5",
                    "midi": 77,
                    "time": 208.37821499999433,
                    "velocity": 0.5433070866141733,
                    "duration": 0.10768899999999348
                },
                {
                    "name": "G#5",
                    "midi": 80,
                    "time": 208.48590399999432,
                    "velocity": 0.5826771653543307,
                    "duration": 0.43075600000000236
                },
                {
                    "name": "F5",
                    "midi": 77,
                    "time": 208.48590399999432,
                    "velocity": 0.5826771653543307,
                    "duration": 0.43075600000000236
                },
                {
                    "name": "G#5",
                    "midi": 80,
                    "time": 209.23972699999433,
                    "velocity": 0.5511811023622047,
                    "duration": 0.10768899999999348
                },
                {
                    "name": "F5",
                    "midi": 77,
                    "time": 209.23972699999433,
                    "velocity": 0.5511811023622047,
                    "duration": 0.10768899999999348
                },
                {
                    "name": "G#5",
                    "midi": 80,
                    "time": 209.34741599999433,
                    "velocity": 0.5905511811023622,
                    "duration": 0.8615120000000047
                },
                {
                    "name": "F5",
                    "midi": 77,
                    "time": 209.34741599999433,
                    "velocity": 0.5905511811023622,
                    "duration": 0.8615120000000047
                },
                {
                    "name": "G5",
                    "midi": 79,
                    "time": 210.20892799999433,
                    "velocity": 0.5354330708661418,
                    "duration": 0.21537799999998697
                },
                {
                    "name": "E5",
                    "midi": 76,
                    "time": 210.20892799999433,
                    "velocity": 0.5354330708661418,
                    "duration": 0.21537799999998697
                },
                {
                    "name": "A#5",
                    "midi": 82,
                    "time": 211.82426299999432,
                    "velocity": 0.5905511811023622,
                    "duration": 0.10768899999999348
                },
                {
                    "name": "G5",
                    "midi": 79,
                    "time": 211.82426299999432,
                    "velocity": 0.5905511811023622,
                    "duration": 0.10768899999999348
                },
                {
                    "name": "A#5",
                    "midi": 82,
                    "time": 211.9319519999943,
                    "velocity": 0.6377952755905512,
                    "duration": 0.43075600000000236
                },
                {
                    "name": "G5",
                    "midi": 79,
                    "time": 211.9319519999943,
                    "velocity": 0.6377952755905512,
                    "duration": 0.43075600000000236
                },
                {
                    "name": "A#5",
                    "midi": 82,
                    "time": 212.68577499999432,
                    "velocity": 0.6062992125984252,
                    "duration": 0.10768899999999348
                },
                {
                    "name": "G5",
                    "midi": 79,
                    "time": 212.68577499999432,
                    "velocity": 0.6062992125984252,
                    "duration": 0.10768899999999348
                },
                {
                    "name": "A#5",
                    "midi": 82,
                    "time": 212.79346399999432,
                    "velocity": 0.6456692913385826,
                    "duration": 0.8615120000000047
                },
                {
                    "name": "G5",
                    "midi": 79,
                    "time": 212.79346399999432,
                    "velocity": 0.6456692913385826,
                    "duration": 0.8615120000000047
                },
                {
                    "name": "G#5",
                    "midi": 80,
                    "time": 213.65497599999432,
                    "velocity": 0.5826771653543307,
                    "duration": 0.21537799999998697
                },
                {
                    "name": "F5",
                    "midi": 77,
                    "time": 213.65497599999432,
                    "velocity": 0.5826771653543307,
                    "duration": 0.21537799999998697
                },
                {
                    "name": "D#6",
                    "midi": 87,
                    "time": 215.2703109999943,
                    "velocity": 0.6456692913385826,
                    "duration": 0.10768899999999348
                },
                {
                    "name": "C6",
                    "midi": 84,
                    "time": 215.2703109999943,
                    "velocity": 0.6456692913385826,
                    "duration": 0.10768899999999348
                },
                {
                    "name": "D#6",
                    "midi": 87,
                    "time": 215.3779999999943,
                    "velocity": 0.7007874015748031,
                    "duration": 0.43075600000000236
                },
                {
                    "name": "C6",
                    "midi": 84,
                    "time": 215.3779999999943,
                    "velocity": 0.7007874015748031,
                    "duration": 0.43075600000000236
                },
                {
                    "name": "D#6",
                    "midi": 87,
                    "time": 216.1318229999943,
                    "velocity": 0.6614173228346457,
                    "duration": 0.10768899999999348
                },
                {
                    "name": "C6",
                    "midi": 84,
                    "time": 216.1318229999943,
                    "velocity": 0.6614173228346457,
                    "duration": 0.10768899999999348
                },
                {
                    "name": "D#6",
                    "midi": 87,
                    "time": 216.2395119999943,
                    "velocity": 0.7086614173228346,
                    "duration": 1.0768899999999917
                },
                {
                    "name": "C6",
                    "midi": 84,
                    "time": 216.2395119999943,
                    "velocity": 0.7086614173228346,
                    "duration": 1.0768899999999917
                },
                {
                    "name": "C#6",
                    "midi": 85,
                    "time": 217.3164019999943,
                    "velocity": 0.6220472440944882,
                    "duration": 0.21537799999998697
                },
                {
                    "name": "A#5",
                    "midi": 82,
                    "time": 217.3164019999943,
                    "velocity": 0.6220472440944882,
                    "duration": 0.21537799999998697
                },
                {
                    "name": "C6",
                    "midi": 84,
                    "time": 217.53177999999428,
                    "velocity": 0.6062992125984252,
                    "duration": 0.21537799999998697
                },
                {
                    "name": "G#5",
                    "midi": 80,
                    "time": 217.53177999999428,
                    "velocity": 0.6062992125984252,
                    "duration": 0.21537799999998697
                },
                {
                    "name": "A#5",
                    "midi": 82,
                    "time": 217.74715799999427,
                    "velocity": 0.5748031496062992,
                    "duration": 0.21537799999998697
                },
                {
                    "name": "G5",
                    "midi": 79,
                    "time": 217.74715799999427,
                    "velocity": 0.5748031496062992,
                    "duration": 0.21537799999998697
                },
                {
                    "name": "G#5",
                    "midi": 80,
                    "time": 217.96253599999426,
                    "velocity": 0.6456692913385826,
                    "duration": 0.43075600000000236
                },
                {
                    "name": "F5",
                    "midi": 77,
                    "time": 217.96253599999426,
                    "velocity": 0.6456692913385826,
                    "duration": 0.43075600000000236
                },
                {
                    "name": "F6",
                    "midi": 89,
                    "time": 218.71635899999427,
                    "velocity": 0.6220472440944882,
                    "duration": 0.10768899999999348
                },
                {
                    "name": "G#5",
                    "midi": 80,
                    "time": 218.71635899999427,
                    "velocity": 0.6220472440944882,
                    "duration": 0.10768899999999348
                },
                {
                    "name": "F5",
                    "midi": 77,
                    "time": 218.71635899999427,
                    "velocity": 0.6220472440944882,
                    "duration": 0.10768899999999348
                },
                {
                    "name": "G6",
                    "midi": 91,
                    "time": 218.82404799999426,
                    "velocity": 0.6456692913385826,
                    "duration": 0.43075600000000236
                },
                {
                    "name": "A#5",
                    "midi": 82,
                    "time": 218.82404799999426,
                    "velocity": 0.6456692913385826,
                    "duration": 0.43075600000000236
                },
                {
                    "name": "G5",
                    "midi": 79,
                    "time": 218.82404799999426,
                    "velocity": 0.6456692913385826,
                    "duration": 0.43075600000000236
                },
                {
                    "name": "E6",
                    "midi": 88,
                    "time": 219.57787099999427,
                    "velocity": 0.6220472440944882,
                    "duration": 0.10768899999999348
                },
                {
                    "name": "G5",
                    "midi": 79,
                    "time": 219.57787099999427,
                    "velocity": 0.6220472440944882,
                    "duration": 0.10768899999999348
                },
                {
                    "name": "E5",
                    "midi": 76,
                    "time": 219.57787099999427,
                    "velocity": 0.6220472440944882,
                    "duration": 0.10768899999999348
                },
                {
                    "name": "F6",
                    "midi": 89,
                    "time": 219.68555999999427,
                    "velocity": 0.5748031496062992,
                    "duration": 0.10768899999999348
                },
                {
                    "name": "G#5",
                    "midi": 80,
                    "time": 219.68555999999427,
                    "velocity": 0.5748031496062992,
                    "duration": 0.10768899999999348
                },
                {
                    "name": "F5",
                    "midi": 77,
                    "time": 219.68555999999427,
                    "velocity": 0.5748031496062992,
                    "duration": 0.10768899999999348
                },
                {
                    "name": "C5",
                    "midi": 72,
                    "time": 219.79324899999426,
                    "velocity": 0.48031496062992124,
                    "duration": 0.10768899999999348
                },
                {
                    "name": "F5",
                    "midi": 77,
                    "time": 219.90093799999426,
                    "velocity": 0.4881889763779528,
                    "duration": 0.10768899999999348
                },
                {
                    "name": "G#5",
                    "midi": 80,
                    "time": 220.00862699999425,
                    "velocity": 0.49606299212598426,
                    "duration": 0.10768899999999348
                },
                {
                    "name": "C6",
                    "midi": 84,
                    "time": 220.11631599999424,
                    "velocity": 0.5354330708661418,
                    "duration": 0.10768899999999348
                },
                {
                    "name": "C#6",
                    "midi": 85,
                    "time": 220.22400499999424,
                    "velocity": 0.5118110236220472,
                    "duration": 0.10768899999999348
                },
                {
                    "name": "C6",
                    "midi": 84,
                    "time": 220.33169399999423,
                    "velocity": 0.5196850393700787,
                    "duration": 0.10768899999999348
                },
                {
                    "name": "A#5",
                    "midi": 82,
                    "time": 220.43938299999422,
                    "velocity": 0.5118110236220472,
                    "duration": 0.10768899999999348
                },
                {
                    "name": "G#5",
                    "midi": 80,
                    "time": 220.54707199999422,
                    "velocity": 0.5354330708661418,
                    "duration": 0.10768899999999348
                },
                {
                    "name": "A#5",
                    "midi": 82,
                    "time": 220.6547609999942,
                    "velocity": 0.5275590551181102,
                    "duration": 0.10768899999999348
                },
                {
                    "name": "G#5",
                    "midi": 80,
                    "time": 220.7624499999942,
                    "velocity": 0.5196850393700787,
                    "duration": 0.10768899999999348
                },
                {
                    "name": "G5",
                    "midi": 79,
                    "time": 220.8701389999942,
                    "velocity": 0.5118110236220472,
                    "duration": 0.10768899999999348
                },
                {
                    "name": "F5",
                    "midi": 77,
                    "time": 220.9778279999942,
                    "velocity": 0.5039370078740157,
                    "duration": 0.10768899999999348
                },
                {
                    "name": "G5",
                    "midi": 79,
                    "time": 221.08551699999418,
                    "velocity": 0.49606299212598426,
                    "duration": 0.10768899999999348
                },
                {
                    "name": "G#5",
                    "midi": 80,
                    "time": 221.19320599999418,
                    "velocity": 0.49606299212598426,
                    "duration": 0.10768899999999348
                },
                {
                    "name": "F5",
                    "midi": 77,
                    "time": 221.30089499999417,
                    "velocity": 0.4881889763779528,
                    "duration": 0.10768899999999348
                },
                {
                    "name": "C5",
                    "midi": 72,
                    "time": 221.51627299999416,
                    "velocity": 0.48031496062992124,
                    "duration": 0.10768899999999348
                },
                {
                    "name": "F5",
                    "midi": 77,
                    "time": 221.62396199999415,
                    "velocity": 0.4881889763779528,
                    "duration": 0.10768899999999348
                },
                {
                    "name": "G#5",
                    "midi": 80,
                    "time": 221.73165099999414,
                    "velocity": 0.49606299212598426,
                    "duration": 0.10768899999999348
                },
                {
                    "name": "C6",
                    "midi": 84,
                    "time": 221.83933999999414,
                    "velocity": 0.5354330708661418,
                    "duration": 0.10768899999999348
                },
                {
                    "name": "C#6",
                    "midi": 85,
                    "time": 221.94702899999413,
                    "velocity": 0.5118110236220472,
                    "duration": 0.10768899999999348
                },
                {
                    "name": "C6",
                    "midi": 84,
                    "time": 222.05471799999412,
                    "velocity": 0.5196850393700787,
                    "duration": 0.10768899999999348
                },
                {
                    "name": "A#5",
                    "midi": 82,
                    "time": 222.16240699999412,
                    "velocity": 0.5118110236220472,
                    "duration": 0.10768899999999348
                },
                {
                    "name": "G#5",
                    "midi": 80,
                    "time": 222.2700959999941,
                    "velocity": 0.5354330708661418,
                    "duration": 0.10768899999999348
                },
                {
                    "name": "A#5",
                    "midi": 82,
                    "time": 222.3777849999941,
                    "velocity": 0.5275590551181102,
                    "duration": 0.10768899999999348
                },
                {
                    "name": "G#5",
                    "midi": 80,
                    "time": 222.4854739999941,
                    "velocity": 0.5196850393700787,
                    "duration": 0.10768899999999348
                },
                {
                    "name": "G5",
                    "midi": 79,
                    "time": 222.5931629999941,
                    "velocity": 0.5118110236220472,
                    "duration": 0.10768899999999348
                },
                {
                    "name": "F5",
                    "midi": 77,
                    "time": 222.7008519999941,
                    "velocity": 0.5039370078740157,
                    "duration": 0.10768899999999348
                },
                {
                    "name": "G5",
                    "midi": 79,
                    "time": 222.80854099999408,
                    "velocity": 0.49606299212598426,
                    "duration": 0.10768899999999348
                },
                {
                    "name": "G#5",
                    "midi": 80,
                    "time": 222.91622999999407,
                    "velocity": 0.49606299212598426,
                    "duration": 0.10768899999999348
                },
                {
                    "name": "F5",
                    "midi": 77,
                    "time": 223.02391899999407,
                    "velocity": 0.4881889763779528,
                    "duration": 0.10768899999999348
                },
                {
                    "name": "F#5",
                    "midi": 78,
                    "time": 223.23929699999405,
                    "velocity": 0.5039370078740157,
                    "duration": 0.10768899999999348
                },
                {
                    "name": "C6",
                    "midi": 84,
                    "time": 223.34698599999405,
                    "velocity": 0.5118110236220472,
                    "duration": 0.10768899999999348
                },
                {
                    "name": "D#6",
                    "midi": 87,
                    "time": 223.45467499999404,
                    "velocity": 0.5196850393700787,
                    "duration": 0.10768899999999348
                },
                {
                    "name": "F#6",
                    "midi": 90,
                    "time": 223.56236399999403,
                    "velocity": 0.5669291338582677,
                    "duration": 0.10768899999999348
                },
                {
                    "name": "G#6",
                    "midi": 92,
                    "time": 223.67005299999403,
                    "velocity": 0.5433070866141733,
                    "duration": 0.10768899999999348
                },
                {
                    "name": "F#6",
                    "midi": 90,
                    "time": 223.77774199999402,
                    "velocity": 0.5511811023622047,
                    "duration": 0.10768899999999348
                },
                {
                    "name": "F6",
                    "midi": 89,
                    "time": 223.885430999994,
                    "velocity": 0.5433070866141733,
                    "duration": 0.10768899999999348
                },
                {
                    "name": "D#6",
                    "midi": 87,
                    "time": 223.993119999994,
                    "velocity": 0.5669291338582677,
                    "duration": 0.10768899999999348
                },
                {
                    "name": "F6",
                    "midi": 89,
                    "time": 224.100808999994,
                    "velocity": 0.5590551181102362,
                    "duration": 0.10768899999999348
                },
                {
                    "name": "D#6",
                    "midi": 87,
                    "time": 224.208497999994,
                    "velocity": 0.5511811023622047,
                    "duration": 0.10768899999999348
                },
                {
                    "name": "C#6",
                    "midi": 85,
                    "time": 224.316186999994,
                    "velocity": 0.5433070866141733,
                    "duration": 0.10768899999999348
                },
                {
                    "name": "C6",
                    "midi": 84,
                    "time": 224.42387599999398,
                    "velocity": 0.5354330708661418,
                    "duration": 0.10768899999999348
                },
                {
                    "name": "C#6",
                    "midi": 85,
                    "time": 224.53156499999398,
                    "velocity": 0.5275590551181102,
                    "duration": 0.10768899999999348
                },
                {
                    "name": "D#6",
                    "midi": 87,
                    "time": 224.63925399999397,
                    "velocity": 0.5196850393700787,
                    "duration": 0.10768899999999348
                },
                {
                    "name": "C6",
                    "midi": 84,
                    "time": 224.74694299999396,
                    "velocity": 0.5118110236220472,
                    "duration": 0.10768899999999348
                },
                {
                    "name": "F#5",
                    "midi": 78,
                    "time": 224.96232099999395,
                    "velocity": 0.5039370078740157,
                    "duration": 0.10768899999999348
                },
                {
                    "name": "C6",
                    "midi": 84,
                    "time": 225.07000999999394,
                    "velocity": 0.5118110236220472,
                    "duration": 0.10768899999999348
                },
                {
                    "name": "D#6",
                    "midi": 87,
                    "time": 225.17769899999394,
                    "velocity": 0.5196850393700787,
                    "duration": 0.10768899999999348
                },
                {
                    "name": "F#6",
                    "midi": 90,
                    "time": 225.28538799999393,
                    "velocity": 0.5669291338582677,
                    "duration": 0.10768899999999348
                },
                {
                    "name": "G#6",
                    "midi": 92,
                    "time": 225.39307699999392,
                    "velocity": 0.5433070866141733,
                    "duration": 0.10768899999999348
                },
                {
                    "name": "F#6",
                    "midi": 90,
                    "time": 225.50076599999392,
                    "velocity": 0.5511811023622047,
                    "duration": 0.10768899999999348
                },
                {
                    "name": "F6",
                    "midi": 89,
                    "time": 225.6084549999939,
                    "velocity": 0.5433070866141733,
                    "duration": 0.10768899999999348
                },
                {
                    "name": "D#6",
                    "midi": 87,
                    "time": 225.7161439999939,
                    "velocity": 0.5669291338582677,
                    "duration": 0.10768899999999348
                },
                {
                    "name": "F6",
                    "midi": 89,
                    "time": 225.8238329999939,
                    "velocity": 0.5590551181102362,
                    "duration": 0.10768899999999348
                },
                {
                    "name": "D#6",
                    "midi": 87,
                    "time": 225.9315219999939,
                    "velocity": 0.5511811023622047,
                    "duration": 0.10768899999999348
                },
                {
                    "name": "C#6",
                    "midi": 85,
                    "time": 226.03921099999388,
                    "velocity": 0.5433070866141733,
                    "duration": 0.10768899999999348
                },
                {
                    "name": "C6",
                    "midi": 84,
                    "time": 226.14689999999388,
                    "velocity": 0.5354330708661418,
                    "duration": 0.10768899999999348
                },
                {
                    "name": "A#5",
                    "midi": 82,
                    "time": 226.25458899999387,
                    "velocity": 0.5275590551181102,
                    "duration": 0.10768899999999348
                },
                {
                    "name": "G#5",
                    "midi": 80,
                    "time": 226.36227799999386,
                    "velocity": 0.5196850393700787,
                    "duration": 0.10768899999999348
                },
                {
                    "name": "F#5",
                    "midi": 78,
                    "time": 226.46996699999386,
                    "velocity": 0.5118110236220472,
                    "duration": 0.10768899999999348
                },
                {
                    "name": "F5",
                    "midi": 77,
                    "time": 226.57765599999385,
                    "velocity": 0.5354330708661418,
                    "duration": 0.10768899999999348
                },
                {
                    "name": "G#5",
                    "midi": 80,
                    "time": 226.68534499999384,
                    "velocity": 0.5275590551181102,
                    "duration": 0.10768899999999348
                },
                {
                    "name": "C#6",
                    "midi": 85,
                    "time": 226.79303399999384,
                    "velocity": 0.5354330708661418,
                    "duration": 0.10768899999999348
                },
                {
                    "name": "F6",
                    "midi": 89,
                    "time": 226.90072299999383,
                    "velocity": 0.5433070866141733,
                    "duration": 0.10768899999999348
                },
                {
                    "name": "G#6",
                    "midi": 92,
                    "time": 227.00841199999383,
                    "velocity": 0.5905511811023622,
                    "duration": 0.10768899999999348
                },
                {
                    "name": "A#6",
                    "midi": 94,
                    "time": 227.11610099999382,
                    "velocity": 0.5669291338582677,
                    "duration": 0.10768899999999348
                },
                {
                    "name": "G#6",
                    "midi": 92,
                    "time": 227.2237899999938,
                    "velocity": 0.5748031496062992,
                    "duration": 0.10768899999999348
                },
                {
                    "name": "F#6",
                    "midi": 90,
                    "time": 227.3314789999938,
                    "velocity": 0.5669291338582677,
                    "duration": 0.10768899999999348
                },
                {
                    "name": "F6",
                    "midi": 89,
                    "time": 227.4391679999938,
                    "velocity": 0.5905511811023622,
                    "duration": 0.10768899999999348
                },
                {
                    "name": "F#6",
                    "midi": 90,
                    "time": 227.5468569999938,
                    "velocity": 0.5826771653543307,
                    "duration": 0.10768899999999348
                },
                {
                    "name": "F6",
                    "midi": 89,
                    "time": 227.6545459999938,
                    "velocity": 0.5748031496062992,
                    "duration": 0.10768899999999348
                },
                {
                    "name": "D#6",
                    "midi": 87,
                    "time": 227.76223499999378,
                    "velocity": 0.5669291338582677,
                    "duration": 0.10768899999999348
                },
                {
                    "name": "C#6",
                    "midi": 85,
                    "time": 227.86992399999377,
                    "velocity": 0.5590551181102362,
                    "duration": 0.10768899999999348
                },
                {
                    "name": "D#6",
                    "midi": 87,
                    "time": 227.97761299999377,
                    "velocity": 0.5511811023622047,
                    "duration": 0.10768899999999348
                },
                {
                    "name": "F6",
                    "midi": 89,
                    "time": 228.08530199999376,
                    "velocity": 0.5433070866141733,
                    "duration": 0.10768899999999348
                },
                {
                    "name": "C#6",
                    "midi": 85,
                    "time": 228.19299099999375,
                    "velocity": 0.5354330708661418,
                    "duration": 0.10768899999999348
                },
                {
                    "name": "G#5",
                    "midi": 80,
                    "time": 228.40836899999374,
                    "velocity": 0.5275590551181102,
                    "duration": 0.10768899999999348
                },
                {
                    "name": "C#6",
                    "midi": 85,
                    "time": 228.51605799999373,
                    "velocity": 0.5354330708661418,
                    "duration": 0.10768899999999348
                },
                {
                    "name": "F6",
                    "midi": 89,
                    "time": 228.62374699999373,
                    "velocity": 0.5433070866141733,
                    "duration": 0.10768899999999348
                },
                {
                    "name": "G#6",
                    "midi": 92,
                    "time": 228.73143599999372,
                    "velocity": 0.5984251968503937,
                    "duration": 0.10768899999999348
                },
                {
                    "name": "A#6",
                    "midi": 94,
                    "time": 228.83912499999371,
                    "velocity": 0.5826771653543307,
                    "duration": 0.10768899999999348
                },
                {
                    "name": "G#6",
                    "midi": 92,
                    "time": 228.9468139999937,
                    "velocity": 0.5905511811023622,
                    "duration": 0.10768899999999348
                },
                {
                    "name": "F#6",
                    "midi": 90,
                    "time": 229.0545029999937,
                    "velocity": 0.5826771653543307,
                    "duration": 0.10768899999999348
                },
                {
                    "name": "F6",
                    "midi": 89,
                    "time": 229.1621919999937,
                    "velocity": 0.6141732283464567,
                    "duration": 0.10768899999999348
                },
                {
                    "name": "F#6",
                    "midi": 90,
                    "time": 229.2698809999937,
                    "velocity": 0.6062992125984252,
                    "duration": 0.10768899999999348
                },
                {
                    "name": "G#6",
                    "midi": 92,
                    "time": 229.37756999999368,
                    "velocity": 0.6062992125984252,
                    "duration": 0.10768899999999348
                },
                {
                    "name": "F#6",
                    "midi": 90,
                    "time": 229.48525899999368,
                    "velocity": 0.5984251968503937,
                    "duration": 0.10768899999999348
                },
                {
                    "name": "F6",
                    "midi": 89,
                    "time": 229.59294799999367,
                    "velocity": 0.5905511811023622,
                    "duration": 0.10768899999999348
                },
                {
                    "name": "F#6",
                    "midi": 90,
                    "time": 229.70063699999366,
                    "velocity": 0.5905511811023622,
                    "duration": 0.10768899999999348
                },
                {
                    "name": "G#6",
                    "midi": 92,
                    "time": 229.80832599999366,
                    "velocity": 0.5826771653543307,
                    "duration": 0.10768899999999348
                },
                {
                    "name": "F6",
                    "midi": 89,
                    "time": 229.91601499999365,
                    "velocity": 0.5826771653543307,
                    "duration": 0.10768899999999348
                },
                {
                    "name": "F#6",
                    "midi": 90,
                    "time": 230.13139299999364,
                    "velocity": 0.5511811023622047,
                    "duration": 0.10768899999999348
                },
                {
                    "name": "G#6",
                    "midi": 92,
                    "time": 230.23908199999363,
                    "velocity": 0.5748031496062992,
                    "duration": 0.10768899999999348
                },
                {
                    "name": "F#6",
                    "midi": 90,
                    "time": 230.34677099999362,
                    "velocity": 0.5511811023622047,
                    "duration": 0.10768899999999348
                },
                {
                    "name": "G#6",
                    "midi": 92,
                    "time": 230.45445999999362,
                    "velocity": 0.5118110236220472,
                    "duration": 0.10768899999999348
                },
                {
                    "name": "F#6",
                    "midi": 90,
                    "time": 230.5621489999936,
                    "velocity": 0.49606299212598426,
                    "duration": 0.10768899999999348
                },
                {
                    "name": "F6",
                    "midi": 89,
                    "time": 230.6698379999936,
                    "velocity": 0.4645669291338583,
                    "duration": 0.10768899999999348
                },
                {
                    "name": "F#6",
                    "midi": 90,
                    "time": 230.7775269999936,
                    "velocity": 0.4645669291338583,
                    "duration": 0.10768899999999348
                },
                {
                    "name": "E6",
                    "midi": 88,
                    "time": 230.99290499999358,
                    "velocity": 0.4566929133858268,
                    "duration": 0.10768899999999348
                },
                {
                    "name": "F6",
                    "midi": 89,
                    "time": 231.10059399999358,
                    "velocity": 0.47244094488188976,
                    "duration": 0.10768899999999348
                },
                {
                    "name": "E6",
                    "midi": 88,
                    "time": 231.20828299999357,
                    "velocity": 0.44881889763779526,
                    "duration": 0.10768899999999348
                },
                {
                    "name": "F6",
                    "midi": 89,
                    "time": 231.42366099999356,
                    "velocity": 0.44881889763779526,
                    "duration": 0.10768899999999348
                },
                {
                    "name": "G6",
                    "midi": 91,
                    "time": 231.53134999999355,
                    "velocity": 0.47244094488188976,
                    "duration": 0.10768899999999348
                },
                {
                    "name": "F6",
                    "midi": 89,
                    "time": 231.63903899999355,
                    "velocity": 0.4409448818897638,
                    "duration": 0.10768899999999348
                },
                {
                    "name": "F#6",
                    "midi": 90,
                    "time": 231.85441699999353,
                    "velocity": 0.5511811023622047,
                    "duration": 0.10768899999999348
                },
                {
                    "name": "G#6",
                    "midi": 92,
                    "time": 231.96210599999353,
                    "velocity": 0.5748031496062992,
                    "duration": 0.10768899999999348
                },
                {
                    "name": "F#6",
                    "midi": 90,
                    "time": 232.06979499999352,
                    "velocity": 0.5511811023622047,
                    "duration": 0.10768899999999348
                },
                {
                    "name": "G#6",
                    "midi": 92,
                    "time": 232.1774839999935,
                    "velocity": 0.5118110236220472,
                    "duration": 0.10768899999999348
                },
                {
                    "name": "F#6",
                    "midi": 90,
                    "time": 232.2851729999935,
                    "velocity": 0.49606299212598426,
                    "duration": 0.10768899999999348
                },
                {
                    "name": "F6",
                    "midi": 89,
                    "time": 232.3928619999935,
                    "velocity": 0.4645669291338583,
                    "duration": 0.10768899999999348
                },
                {
                    "name": "F#6",
                    "midi": 90,
                    "time": 232.5005509999935,
                    "velocity": 0.4645669291338583,
                    "duration": 0.10768899999999348
                },
                {
                    "name": "E6",
                    "midi": 88,
                    "time": 232.71592899999348,
                    "velocity": 0.4566929133858268,
                    "duration": 0.10768899999999348
                },
                {
                    "name": "F6",
                    "midi": 89,
                    "time": 232.82361799999347,
                    "velocity": 0.47244094488188976,
                    "duration": 0.10768899999999348
                },
                {
                    "name": "E6",
                    "midi": 88,
                    "time": 232.93130699999347,
                    "velocity": 0.44881889763779526,
                    "duration": 0.10768899999999348
                },
                {
                    "name": "F6",
                    "midi": 89,
                    "time": 233.14668499999345,
                    "velocity": 0.44881889763779526,
                    "duration": 0.10768899999999348
                },
                {
                    "name": "G6",
                    "midi": 91,
                    "time": 233.25437399999345,
                    "velocity": 0.47244094488188976,
                    "duration": 0.10768899999999348
                },
                {
                    "name": "F6",
                    "midi": 89,
                    "time": 233.36206299999344,
                    "velocity": 0.4409448818897638,
                    "duration": 0.10768899999999348
                },
                {
                    "name": "F#6",
                    "midi": 90,
                    "time": 233.57744099999343,
                    "velocity": 0.5511811023622047,
                    "duration": 0.10768899999999348
                },
                {
                    "name": "G#6",
                    "midi": 92,
                    "time": 233.68512999999342,
                    "velocity": 0.5748031496062992,
                    "duration": 0.10768899999999348
                },
                {
                    "name": "F#6",
                    "midi": 90,
                    "time": 233.79281899999341,
                    "velocity": 0.5511811023622047,
                    "duration": 0.10768899999999348
                },
                {
                    "name": "G#6",
                    "midi": 92,
                    "time": 233.9005079999934,
                    "velocity": 0.5748031496062992,
                    "duration": 0.10768899999999348
                },
                {
                    "name": "F#6",
                    "midi": 90,
                    "time": 234.0081969999934,
                    "velocity": 0.5511811023622047,
                    "duration": 0.10768899999999348
                },
                {
                    "name": "F6",
                    "midi": 89,
                    "time": 234.1158859999934,
                    "velocity": 0.4645669291338583,
                    "duration": 0.10768899999999348
                },
                {
                    "name": "G6",
                    "midi": 91,
                    "time": 234.2235749999934,
                    "velocity": 0.4645669291338583,
                    "duration": 0.10768899999999348
                },
                {
                    "name": "E6",
                    "midi": 88,
                    "time": 234.43895299999338,
                    "velocity": 0.4566929133858268,
                    "duration": 0.10768899999999348
                },
                {
                    "name": "F6",
                    "midi": 89,
                    "time": 234.54664199999337,
                    "velocity": 0.47244094488188976,
                    "duration": 0.10768899999999348
                },
                {
                    "name": "E6",
                    "midi": 88,
                    "time": 234.65433099999336,
                    "velocity": 0.4566929133858268,
                    "duration": 0.10768899999999348
                },
                {
                    "name": "C#6",
                    "midi": 85,
                    "time": 234.86970899999335,
                    "velocity": 0.4566929133858268,
                    "duration": 0.10768899999999348
                },
                {
                    "name": "D#6",
                    "midi": 87,
                    "time": 234.97739799999334,
                    "velocity": 0.48031496062992124,
                    "duration": 0.10768899999999348
                },
                {
                    "name": "C#6",
                    "midi": 85,
                    "time": 235.08508699999334,
                    "velocity": 0.44881889763779526,
                    "duration": 0.10768899999999348
                },
                {
                    "name": "C6",
                    "midi": 84,
                    "time": 235.30046499999332,
                    "velocity": 0.47244094488188976,
                    "duration": 0.10768899999999348
                },
                {
                    "name": "C#6",
                    "midi": 85,
                    "time": 235.40815399999332,
                    "velocity": 0.4881889763779528,
                    "duration": 0.10768899999999348
                },
                {
                    "name": "C6",
                    "midi": 84,
                    "time": 235.5158429999933,
                    "velocity": 0.47244094488188976,
                    "duration": 0.10768899999999348
                },
                {
                    "name": "B5",
                    "midi": 83,
                    "time": 235.7312209999933,
                    "velocity": 0.48031496062992124,
                    "duration": 0.10768899999999348
                },
                {
                    "name": "C6",
                    "midi": 84,
                    "time": 235.8389099999933,
                    "velocity": 0.5118110236220472,
                    "duration": 0.10768899999999348
                },
                {
                    "name": "B5",
                    "midi": 83,
                    "time": 235.94659899999328,
                    "velocity": 0.4881889763779528,
                    "duration": 0.10768899999999348
                },
                {
                    "name": "A#5",
                    "midi": 82,
                    "time": 236.16197699999327,
                    "velocity": 0.5118110236220472,
                    "duration": 0.10768899999999348
                },
                {
                    "name": "C6",
                    "midi": 84,
                    "time": 236.26966599999326,
                    "velocity": 0.5275590551181102,
                    "duration": 0.10768899999999348
                },
                {
                    "name": "A#5",
                    "midi": 82,
                    "time": 236.37735499999326,
                    "velocity": 0.5039370078740157,
                    "duration": 0.10768899999999348
                },
                {
                    "name": "G#5",
                    "midi": 80,
                    "time": 236.59273299999325,
                    "velocity": 0.5196850393700787,
                    "duration": 0.10768899999999348
                },
                {
                    "name": "A#5",
                    "midi": 82,
                    "time": 236.70042199999324,
                    "velocity": 0.5433070866141733,
                    "duration": 0.10768899999999348
                },
                {
                    "name": "G#5",
                    "midi": 80,
                    "time": 236.80811099999323,
                    "velocity": 0.5275590551181102,
                    "duration": 0.10768899999999348
                },
                {
                    "name": "G#5",
                    "midi": 80,
                    "time": 237.02348899999322,
                    "velocity": 0.5275590551181102,
                    "duration": 0.10768899999999348
                },
                {
                    "name": "A#5",
                    "midi": 82,
                    "time": 237.1311779999932,
                    "velocity": 0.5511811023622047,
                    "duration": 0.10768899999999348
                },
                {
                    "name": "G#5",
                    "midi": 80,
                    "time": 237.2388669999932,
                    "velocity": 0.5354330708661418,
                    "duration": 0.10768899999999348
                },
                {
                    "name": "G5",
                    "midi": 79,
                    "time": 237.4542449999932,
                    "velocity": 0.5196850393700787,
                    "duration": 0.10768899999999348
                },
                {
                    "name": "G#5",
                    "midi": 80,
                    "time": 237.5619339999932,
                    "velocity": 0.5433070866141733,
                    "duration": 0.10768899999999348
                },
                {
                    "name": "G5",
                    "midi": 79,
                    "time": 237.66962299999318,
                    "velocity": 0.5039370078740157,
                    "duration": 0.10768899999999348
                },
                {
                    "name": "F5",
                    "midi": 77,
                    "time": 237.88500099999317,
                    "velocity": 0.5039370078740157,
                    "duration": 0.10768899999999348
                },
                {
                    "name": "G5",
                    "midi": 79,
                    "time": 237.99268999999316,
                    "velocity": 0.5118110236220472,
                    "duration": 0.10768899999999348
                },
                {
                    "name": "F5",
                    "midi": 77,
                    "time": 238.10037899999315,
                    "velocity": 0.4881889763779528,
                    "duration": 0.10768899999999348
                },
                {
                    "name": "E5",
                    "midi": 76,
                    "time": 238.31575699999314,
                    "velocity": 0.47244094488188976,
                    "duration": 0.10768899999999348
                },
                {
                    "name": "F5",
                    "midi": 77,
                    "time": 238.42344599999313,
                    "velocity": 0.4881889763779528,
                    "duration": 0.10768899999999348
                },
                {
                    "name": "E5",
                    "midi": 76,
                    "time": 238.53113499999313,
                    "velocity": 0.44881889763779526,
                    "duration": 0.10768899999999348
                },
                {
                    "name": "C#4",
                    "midi": 61,
                    "time": 238.74651299999312,
                    "velocity": 0.5196850393700787,
                    "duration": 0.10768899999999348
                },
                {
                    "name": "C#5",
                    "midi": 73,
                    "time": 238.8542019999931,
                    "velocity": 0.5748031496062992,
                    "duration": 0.10768899999999348
                },
                {
                    "name": "C#4",
                    "midi": 61,
                    "time": 238.9618909999931,
                    "velocity": 0.4645669291338583,
                    "duration": 0.10768899999999348
                },
                {
                    "name": "C#5",
                    "midi": 73,
                    "time": 239.0695799999931,
                    "velocity": 0.5590551181102362,
                    "duration": 0.10768899999999348
                },
                {
                    "name": "C#4",
                    "midi": 61,
                    "time": 239.1772689999931,
                    "velocity": 0.4566929133858268,
                    "duration": 0.10768899999999348
                },
                {
                    "name": "C#5",
                    "midi": 73,
                    "time": 239.28495799999308,
                    "velocity": 0.49606299212598426,
                    "duration": 0.10768899999999348
                },
                {
                    "name": "C#4",
                    "midi": 61,
                    "time": 239.39264699999308,
                    "velocity": 0.4645669291338583,
                    "duration": 0.10768899999999348
                },
                {
                    "name": "C#4",
                    "midi": 61,
                    "time": 239.60802499999306,
                    "velocity": 0.47244094488188976,
                    "duration": 0.10768899999999348
                },
                {
                    "name": "C#5",
                    "midi": 73,
                    "time": 239.71571399999306,
                    "velocity": 0.5590551181102362,
                    "duration": 0.10768899999999348
                },
                {
                    "name": "C5",
                    "midi": 72,
                    "time": 239.82340299999305,
                    "velocity": 0.5196850393700787,
                    "duration": 0.10768899999999348
                },
                {
                    "name": "A#4",
                    "midi": 70,
                    "time": 239.93109199999304,
                    "velocity": 0.5354330708661418,
                    "duration": 0.10768899999999348
                },
                {
                    "name": "G#4",
                    "midi": 68,
                    "time": 240.03878099999304,
                    "velocity": 0.5196850393700787,
                    "duration": 0.10768899999999348
                },
                {
                    "name": "G4",
                    "midi": 67,
                    "time": 240.14646999999303,
                    "velocity": 0.5118110236220472,
                    "duration": 0.10768899999999348
                },
                {
                    "name": "F4",
                    "midi": 65,
                    "time": 240.25415899999302,
                    "velocity": 0.4566929133858268,
                    "duration": 0.10768899999999348
                },
                {
                    "name": "C#5",
                    "midi": 73,
                    "time": 240.469536999993,
                    "velocity": 0.5354330708661418,
                    "duration": 0.10768899999999348
                },
                {
                    "name": "C#6",
                    "midi": 85,
                    "time": 240.577225999993,
                    "velocity": 0.5905511811023622,
                    "duration": 0.10768899999999348
                },
                {
                    "name": "C#5",
                    "midi": 73,
                    "time": 240.684914999993,
                    "velocity": 0.5275590551181102,
                    "duration": 0.10768899999999348
                },
                {
                    "name": "C#6",
                    "midi": 85,
                    "time": 240.792603999993,
                    "velocity": 0.5826771653543307,
                    "duration": 0.10768899999999348
                },
                {
                    "name": "C#5",
                    "midi": 73,
                    "time": 240.90029299999298,
                    "velocity": 0.5275590551181102,
                    "duration": 0.10768899999999348
                },
                {
                    "name": "C#6",
                    "midi": 85,
                    "time": 241.00798199999298,
                    "velocity": 0.5433070866141733,
                    "duration": 0.10768899999999348
                },
                {
                    "name": "C#5",
                    "midi": 73,
                    "time": 241.11567099999297,
                    "velocity": 0.47244094488188976,
                    "duration": 0.10768899999999348
                },
                {
                    "name": "C#5",
                    "midi": 73,
                    "time": 241.33104899999296,
                    "velocity": 0.48031496062992124,
                    "duration": 0.10768899999999348
                },
                {
                    "name": "C#6",
                    "midi": 85,
                    "time": 241.43873799999295,
                    "velocity": 0.5748031496062992,
                    "duration": 0.10768899999999348
                },
                {
                    "name": "C6",
                    "midi": 84,
                    "time": 241.54642699999295,
                    "velocity": 0.5196850393700787,
                    "duration": 0.10768899999999348
                },
                {
                    "name": "A#5",
                    "midi": 82,
                    "time": 241.65411599999294,
                    "velocity": 0.5511811023622047,
                    "duration": 0.10768899999999348
                },
                {
                    "name": "G#5",
                    "midi": 80,
                    "time": 241.76180499999293,
                    "velocity": 0.5354330708661418,
                    "duration": 0.10768899999999348
                },
                {
                    "name": "G5",
                    "midi": 79,
                    "time": 241.86949399999293,
                    "velocity": 0.5275590551181102,
                    "duration": 0.10768899999999348
                },
                {
                    "name": "F5",
                    "midi": 77,
                    "time": 241.97718299999292,
                    "velocity": 0.5118110236220472,
                    "duration": 0.10768899999999348
                },
                {
                    "name": "C#4",
                    "midi": 61,
                    "time": 242.1925609999929,
                    "velocity": 0.5196850393700787,
                    "duration": 0.10768899999999348
                },
                {
                    "name": "C#5",
                    "midi": 73,
                    "time": 242.3002499999929,
                    "velocity": 0.5748031496062992,
                    "duration": 0.10768899999999348
                },
                {
                    "name": "C#4",
                    "midi": 61,
                    "time": 242.4079389999929,
                    "velocity": 0.5196850393700787,
                    "duration": 0.10768899999999348
                },
                {
                    "name": "C#5",
                    "midi": 73,
                    "time": 242.5156279999929,
                    "velocity": 0.5748031496062992,
                    "duration": 0.10768899999999348
                },
                {
                    "name": "C#4",
                    "midi": 61,
                    "time": 242.62331699999288,
                    "velocity": 0.5196850393700787,
                    "duration": 0.10768899999999348
                },
                {
                    "name": "C#5",
                    "midi": 73,
                    "time": 242.73100599999287,
                    "velocity": 0.5354330708661418,
                    "duration": 0.10768899999999348
                },
                {
                    "name": "C#4",
                    "midi": 61,
                    "time": 242.83869499999287,
                    "velocity": 0.48031496062992124,
                    "duration": 0.10768899999999348
                },
                {
                    "name": "C#5",
                    "midi": 73,
                    "time": 243.05407299999285,
                    "velocity": 0.5354330708661418,
                    "duration": 0.10768899999999348
                },
                {
                    "name": "C#4",
                    "midi": 61,
                    "time": 243.16176199999285,
                    "velocity": 0.47244094488188976,
                    "duration": 0.10768899999999348
                },
                {
                    "name": "C#5",
                    "midi": 73,
                    "time": 243.26945099999284,
                    "velocity": 0.5354330708661418,
                    "duration": 0.10768899999999348
                },
                {
                    "name": "C#6",
                    "midi": 85,
                    "time": 243.48482899999283,
                    "velocity": 0.6141732283464567,
                    "duration": 0.10768899999999348
                },
                {
                    "name": "C#5",
                    "midi": 73,
                    "time": 243.59251799999282,
                    "velocity": 0.5433070866141733,
                    "duration": 0.10768899999999348
                },
                {
                    "name": "C#6",
                    "midi": 85,
                    "time": 243.70020699999282,
                    "velocity": 0.5905511811023622,
                    "duration": 0.10768899999999348
                },
                {
                    "name": "C6",
                    "midi": 84,
                    "time": 243.9155849999928,
                    "velocity": 0.5984251968503937,
                    "duration": 0.10768899999999348
                },
                {
                    "name": "C5",
                    "midi": 72,
                    "time": 244.0232739999928,
                    "velocity": 0.5590551181102362,
                    "duration": 0.10768899999999348
                },
                {
                    "name": "C6",
                    "midi": 84,
                    "time": 244.1309629999928,
                    "velocity": 0.5905511811023622,
                    "duration": 0.10768899999999348
                },
                {
                    "name": "B5",
                    "midi": 83,
                    "time": 244.34634099999278,
                    "velocity": 0.6062992125984252,
                    "duration": 0.10768899999999348
                },
                {
                    "name": "B4",
                    "midi": 71,
                    "time": 244.45402999999277,
                    "velocity": 0.5590551181102362,
                    "duration": 0.10768899999999348
                },
                {
                    "name": "B5",
                    "midi": 83,
                    "time": 244.56171899999276,
                    "velocity": 0.5826771653543307,
                    "duration": 0.10768899999999348
                },
                {
                    "name": "A#5",
                    "midi": 82,
                    "time": 244.77709699999275,
                    "velocity": 0.6141732283464567,
                    "duration": 0.10768899999999348
                },
                {
                    "name": "A#4",
                    "midi": 70,
                    "time": 244.88478599999274,
                    "velocity": 0.5433070866141733,
                    "duration": 0.10768899999999348
                },
                {
                    "name": "A#5",
                    "midi": 82,
                    "time": 244.99247499999274,
                    "velocity": 0.6062992125984252,
                    "duration": 0.10768899999999348
                },
                {
                    "name": "G#5",
                    "midi": 80,
                    "time": 245.20785299999272,
                    "velocity": 0.6062992125984252,
                    "duration": 0.10768899999999348
                },
                {
                    "name": "G#4",
                    "midi": 68,
                    "time": 245.31554199999272,
                    "velocity": 0.5590551181102362,
                    "duration": 0.10768899999999348
                },
                {
                    "name": "C5",
                    "midi": 72,
                    "time": 245.31554199999272,
                    "velocity": 0.5590551181102362,
                    "duration": 0.10768899999999348
                },
                {
                    "name": "G#5",
                    "midi": 80,
                    "time": 245.4232309999927,
                    "velocity": 0.6062992125984252,
                    "duration": 0.10768899999999348
                },
                {
                    "name": "G#5",
                    "midi": 80,
                    "time": 245.6386089999927,
                    "velocity": 0.5905511811023622,
                    "duration": 0.10768899999999348
                },
                {
                    "name": "D5",
                    "midi": 74,
                    "time": 245.7462979999927,
                    "velocity": 0.5354330708661418,
                    "duration": 0.10768899999999348
                },
                {
                    "name": "G#4",
                    "midi": 68,
                    "time": 245.7462979999927,
                    "velocity": 0.5354330708661418,
                    "duration": 0.10768899999999348
                },
                {
                    "name": "G#5",
                    "midi": 80,
                    "time": 245.85398699999269,
                    "velocity": 0.5905511811023622,
                    "duration": 0.10768899999999348
                },
                {
                    "name": "G5",
                    "midi": 79,
                    "time": 246.06936499999267,
                    "velocity": 0.5748031496062992,
                    "duration": 0.10768899999999348
                },
                {
                    "name": "D5",
                    "midi": 74,
                    "time": 246.17705399999267,
                    "velocity": 0.5196850393700787,
                    "duration": 0.10768899999999348
                },
                {
                    "name": "G4",
                    "midi": 67,
                    "time": 246.17705399999267,
                    "velocity": 0.5196850393700787,
                    "duration": 0.10768899999999348
                },
                {
                    "name": "G5",
                    "midi": 79,
                    "time": 246.28474299999266,
                    "velocity": 0.5748031496062992,
                    "duration": 0.10768899999999348
                },
                {
                    "name": "F5",
                    "midi": 77,
                    "time": 246.50012099999265,
                    "velocity": 0.5590551181102362,
                    "duration": 0.10768899999999348
                },
                {
                    "name": "G#4",
                    "midi": 68,
                    "time": 246.60780999999264,
                    "velocity": 0.5196850393700787,
                    "duration": 0.10768899999999348
                },
                {
                    "name": "F4",
                    "midi": 65,
                    "time": 246.60780999999264,
                    "velocity": 0.5196850393700787,
                    "duration": 0.10768899999999348
                },
                {
                    "name": "F5",
                    "midi": 77,
                    "time": 246.71549899999263,
                    "velocity": 0.5590551181102362,
                    "duration": 0.10768899999999348
                },
                {
                    "name": "E5",
                    "midi": 76,
                    "time": 246.93087699999262,
                    "velocity": 0.5669291338582677,
                    "duration": 0.10768899999999348
                },
                {
                    "name": "G4",
                    "midi": 67,
                    "time": 247.0385659999926,
                    "velocity": 0.5196850393700787,
                    "duration": 0.10768899999999348
                },
                {
                    "name": "E4",
                    "midi": 64,
                    "time": 247.0385659999926,
                    "velocity": 0.5196850393700787,
                    "duration": 0.10768899999999348
                },
                {
                    "name": "E5",
                    "midi": 76,
                    "time": 247.1462549999926,
                    "velocity": 0.5433070866141733,
                    "duration": 0.10768899999999348
                },
                {
                    "name": "F4",
                    "midi": 65,
                    "time": 247.2539439999926,
                    "velocity": 0.5118110236220472,
                    "duration": 0.10768899999999348
                },
                {
                    "name": "G#4",
                    "midi": 68,
                    "time": 247.2539439999926,
                    "velocity": 0.5118110236220472,
                    "duration": 0.10768899999999348
                },
                {
                    "name": "F5",
                    "midi": 77,
                    "time": 247.2539439999926,
                    "velocity": 0.6062992125984252,
                    "duration": 0.10768899999999348
                },
                {
                    "name": "C4",
                    "midi": 60,
                    "time": 247.3616329999926,
                    "velocity": 0.5826771653543307,
                    "duration": 0.10768899999999348
                },
                {
                    "name": "F4",
                    "midi": 65,
                    "time": 247.4693219999926,
                    "velocity": 0.5984251968503937,
                    "duration": 0.10768899999999348
                },
                {
                    "name": "G#4",
                    "midi": 68,
                    "time": 247.57701099999258,
                    "velocity": 0.6141732283464567,
                    "duration": 0.10768899999999348
                },
                {
                    "name": "C5",
                    "midi": 72,
                    "time": 247.68469999999257,
                    "velocity": 0.6299212598425197,
                    "duration": 0.10768899999999348
                },
                {
                    "name": "C#5",
                    "midi": 73,
                    "time": 247.79238899999257,
                    "velocity": 0.5984251968503937,
                    "duration": 0.10768899999999348
                },
                {
                    "name": "C5",
                    "midi": 72,
                    "time": 247.90007799999256,
                    "velocity": 0.5984251968503937,
                    "duration": 0.10768899999999348
                },
                {
                    "name": "A#4",
                    "midi": 70,
                    "time": 248.00776699999255,
                    "velocity": 0.5984251968503937,
                    "duration": 0.10768899999999348
                },
                {
                    "name": "G#4",
                    "midi": 68,
                    "time": 248.11545599999255,
                    "velocity": 0.6062992125984252,
                    "duration": 0.10768899999999348
                },
                {
                    "name": "A#4",
                    "midi": 70,
                    "time": 248.22314499999254,
                    "velocity": 0.5590551181102362,
                    "duration": 0.10768899999999348
                },
                {
                    "name": "G#4",
                    "midi": 68,
                    "time": 248.33083399999254,
                    "velocity": 0.5669291338582677,
                    "duration": 0.10768899999999348
                },
                {
                    "name": "G4",
                    "midi": 67,
                    "time": 248.43852299999253,
                    "velocity": 0.5669291338582677,
                    "duration": 0.10768899999999348
                },
                {
                    "name": "F4",
                    "midi": 65,
                    "time": 248.54621199999252,
                    "velocity": 0.6141732283464567,
                    "duration": 0.10768899999999348
                },
                {
                    "name": "D#4",
                    "midi": 63,
                    "time": 248.65390099999252,
                    "velocity": 0.5748031496062992,
                    "duration": 0.10768899999999348
                },
                {
                    "name": "C#4",
                    "midi": 61,
                    "time": 248.7615899999925,
                    "velocity": 0.5748031496062992,
                    "duration": 0.10768899999999348
                },
                {
                    "name": "C4",
                    "midi": 60,
                    "time": 248.8692789999925,
                    "velocity": 0.5669291338582677,
                    "duration": 0.10768899999999348
                },
                {
                    "name": "A#3",
                    "midi": 58,
                    "time": 248.9769679999925,
                    "velocity": 0.5905511811023622,
                    "duration": 0.10768899999999348
                },
                {
                    "name": "G#3",
                    "midi": 56,
                    "time": 249.0846569999925,
                    "velocity": 0.5511811023622047,
                    "duration": 0.10768899999999348
                },
                {
                    "name": "F#3",
                    "midi": 54,
                    "time": 249.19234599999248,
                    "velocity": 0.5511811023622047,
                    "duration": 0.10768899999999348
                },
                {
                    "name": "F3",
                    "midi": 53,
                    "time": 249.30003499999248,
                    "velocity": 0.5511811023622047,
                    "duration": 0.10768899999999348
                },
                {
                    "name": "E3",
                    "midi": 52,
                    "time": 249.40772399999247,
                    "velocity": 0.5748031496062992,
                    "duration": 0.21537799999998697
                },
                {
                    "name": "C3",
                    "midi": 48,
                    "time": 249.62310199999246,
                    "velocity": 0.5433070866141733,
                    "duration": 0.16153349999999023
                },
                {
                    "name": "E3",
                    "midi": 52,
                    "time": 249.62310199999246,
                    "velocity": 0.5433070866141733,
                    "duration": 0.16153349999999023
                },
                {
                    "name": "F#3",
                    "midi": 54,
                    "time": 249.62310199999246,
                    "velocity": 0.5433070866141733,
                    "duration": 0.16153349999999023
                },
                {
                    "name": "C4",
                    "midi": 60,
                    "time": 249.62310199999246,
                    "velocity": 0.6456692913385826,
                    "duration": 0.16153349999999023
                },
                {
                    "name": "C3",
                    "midi": 48,
                    "time": 249.83847999999244,
                    "velocity": 0.48031496062992124,
                    "duration": 0.16153349999999023
                },
                {
                    "name": "E3",
                    "midi": 52,
                    "time": 249.83847999999244,
                    "velocity": 0.48031496062992124,
                    "duration": 0.16153349999999023
                },
                {
                    "name": "A#3",
                    "midi": 58,
                    "time": 249.83847999999244,
                    "velocity": 0.5748031496062992,
                    "duration": 0.16153349999999023
                },
                {
                    "name": "C4",
                    "midi": 60,
                    "time": 249.83847999999244,
                    "velocity": 0.5748031496062992,
                    "duration": 0.16153349999999023
                },
                {
                    "name": "C3",
                    "midi": 48,
                    "time": 250.05385799999243,
                    "velocity": 0.47244094488188976,
                    "duration": 0.16153349999999023
                },
                {
                    "name": "E3",
                    "midi": 52,
                    "time": 250.05385799999243,
                    "velocity": 0.47244094488188976,
                    "duration": 0.16153349999999023
                },
                {
                    "name": "A#3",
                    "midi": 58,
                    "time": 250.05385799999243,
                    "velocity": 0.5590551181102362,
                    "duration": 0.16153349999999023
                },
                {
                    "name": "C4",
                    "midi": 60,
                    "time": 250.05385799999243,
                    "velocity": 0.5590551181102362,
                    "duration": 0.16153349999999023
                },
                {
                    "name": "C3",
                    "midi": 48,
                    "time": 250.26923599999242,
                    "velocity": 0.48031496062992124,
                    "duration": 0.16153349999999023
                },
                {
                    "name": "E3",
                    "midi": 52,
                    "time": 250.26923599999242,
                    "velocity": 0.48031496062992124,
                    "duration": 0.16153349999999023
                },
                {
                    "name": "A#3",
                    "midi": 58,
                    "time": 250.26923599999242,
                    "velocity": 0.5669291338582677,
                    "duration": 0.16153349999999023
                },
                {
                    "name": "C4",
                    "midi": 60,
                    "time": 250.26923599999242,
                    "velocity": 0.5669291338582677,
                    "duration": 0.16153349999999023
                },
                {
                    "name": "C3",
                    "midi": 48,
                    "time": 250.4846139999924,
                    "velocity": 0.48031496062992124,
                    "duration": 0.16153349999999023
                },
                {
                    "name": "E3",
                    "midi": 52,
                    "time": 250.4846139999924,
                    "velocity": 0.48031496062992124,
                    "duration": 0.16153349999999023
                },
                {
                    "name": "A#3",
                    "midi": 58,
                    "time": 250.4846139999924,
                    "velocity": 0.5669291338582677,
                    "duration": 0.16153349999999023
                },
                {
                    "name": "C4",
                    "midi": 60,
                    "time": 250.4846139999924,
                    "velocity": 0.5669291338582677,
                    "duration": 0.16153349999999023
                },
                {
                    "name": "C3",
                    "midi": 48,
                    "time": 250.6999919999924,
                    "velocity": 0.6062992125984252,
                    "duration": 0.10768899999999348
                },
                {
                    "name": "F3",
                    "midi": 53,
                    "time": 250.6999919999924,
                    "velocity": 0.6062992125984252,
                    "duration": 0.10768899999999348
                },
                {
                    "name": "G#3",
                    "midi": 56,
                    "time": 250.6999919999924,
                    "velocity": 0.6062992125984252,
                    "duration": 0.10768899999999348
                },
                {
                    "name": "C4",
                    "midi": 60,
                    "time": 250.6999919999924,
                    "velocity": 0.6062992125984252,
                    "duration": 0.10768899999999348
                },
                {
                    "name": "C5",
                    "midi": 72,
                    "time": 250.80768099999239,
                    "velocity": 0.5826771653543307,
                    "duration": 0.10768899999999348
                },
                {
                    "name": "F5",
                    "midi": 77,
                    "time": 250.91536999999238,
                    "velocity": 0.5984251968503937,
                    "duration": 0.10768899999999348
                },
                {
                    "name": "G#5",
                    "midi": 80,
                    "time": 251.02305899999237,
                    "velocity": 0.6141732283464567,
                    "duration": 0.10768899999999348
                },
                {
                    "name": "C6",
                    "midi": 84,
                    "time": 251.13074799999237,
                    "velocity": 0.6299212598425197,
                    "duration": 0.10768899999999348
                },
                {
                    "name": "C#6",
                    "midi": 85,
                    "time": 251.23843699999236,
                    "velocity": 0.5984251968503937,
                    "duration": 0.10768899999999348
                },
                {
                    "name": "C6",
                    "midi": 84,
                    "time": 251.34612599999235,
                    "velocity": 0.5984251968503937,
                    "duration": 0.10768899999999348
                },
                {
                    "name": "A#5",
                    "midi": 82,
                    "time": 251.45381499999235,
                    "velocity": 0.5984251968503937,
                    "duration": 0.10768899999999348
                },
                {
                    "name": "G#5",
                    "midi": 80,
                    "time": 251.56150399999234,
                    "velocity": 0.6062992125984252,
                    "duration": 0.10768899999999348
                },
                {
                    "name": "A#5",
                    "midi": 82,
                    "time": 251.66919299999233,
                    "velocity": 0.5590551181102362,
                    "duration": 0.10768899999999348
                },
                {
                    "name": "G#5",
                    "midi": 80,
                    "time": 251.77688199999233,
                    "velocity": 0.5669291338582677,
                    "duration": 0.10768899999999348
                },
                {
                    "name": "G5",
                    "midi": 79,
                    "time": 251.88457099999232,
                    "velocity": 0.5669291338582677,
                    "duration": 0.10768899999999348
                },
                {
                    "name": "F5",
                    "midi": 77,
                    "time": 251.9922599999923,
                    "velocity": 0.6141732283464567,
                    "duration": 0.10768899999999348
                },
                {
                    "name": "D#5",
                    "midi": 75,
                    "time": 252.0999489999923,
                    "velocity": 0.5748031496062992,
                    "duration": 0.10768899999999348
                },
                {
                    "name": "C#5",
                    "midi": 73,
                    "time": 252.2076379999923,
                    "velocity": 0.5748031496062992,
                    "duration": 0.10768899999999348
                },
                {
                    "name": "C5",
                    "midi": 72,
                    "time": 252.3153269999923,
                    "velocity": 0.5669291338582677,
                    "duration": 0.10768899999999348
                },
                {
                    "name": "A#4",
                    "midi": 70,
                    "time": 252.4230159999923,
                    "velocity": 0.5905511811023622,
                    "duration": 0.10768899999999348
                },
                {
                    "name": "G#4",
                    "midi": 68,
                    "time": 252.53070499999228,
                    "velocity": 0.5511811023622047,
                    "duration": 0.10768899999999348
                },
                {
                    "name": "G4",
                    "midi": 67,
                    "time": 252.63839399999227,
                    "velocity": 0.5511811023622047,
                    "duration": 0.10768899999999348
                },
                {
                    "name": "F4",
                    "midi": 65,
                    "time": 252.74608299999227,
                    "velocity": 0.5511811023622047,
                    "duration": 0.10768899999999348
                },
                {
                    "name": "E4",
                    "midi": 64,
                    "time": 252.85377199999226,
                    "velocity": 0.5748031496062992,
                    "duration": 0.21537799999998697
                },
                {
                    "name": "C4",
                    "midi": 60,
                    "time": 253.06914999999225,
                    "velocity": 0.4566929133858268,
                    "duration": 0.16153349999999023
                },
                {
                    "name": "E4",
                    "midi": 64,
                    "time": 253.06914999999225,
                    "velocity": 0.5433070866141733,
                    "duration": 0.16153349999999023
                },
                {
                    "name": "G4",
                    "midi": 67,
                    "time": 253.06914999999225,
                    "velocity": 0.5433070866141733,
                    "duration": 0.16153349999999023
                },
                {
                    "name": "C5",
                    "midi": 72,
                    "time": 253.06914999999225,
                    "velocity": 0.6456692913385826,
                    "duration": 0.16153349999999023
                },
                {
                    "name": "C4",
                    "midi": 60,
                    "time": 253.28452799999224,
                    "velocity": 0.4015748031496063,
                    "duration": 0.16153349999999023
                },
                {
                    "name": "E4",
                    "midi": 64,
                    "time": 253.28452799999224,
                    "velocity": 0.48031496062992124,
                    "duration": 0.16153349999999023
                },
                {
                    "name": "A#4",
                    "midi": 70,
                    "time": 253.28452799999224,
                    "velocity": 0.5748031496062992,
                    "duration": 0.16153349999999023
                },
                {
                    "name": "C5",
                    "midi": 72,
                    "time": 253.28452799999224,
                    "velocity": 0.5748031496062992,
                    "duration": 0.16153349999999023
                },
                {
                    "name": "C4",
                    "midi": 60,
                    "time": 253.49990599999222,
                    "velocity": 0.3937007874015748,
                    "duration": 0.16153349999999023
                },
                {
                    "name": "E4",
                    "midi": 64,
                    "time": 253.49990599999222,
                    "velocity": 0.4645669291338583,
                    "duration": 0.16153349999999023
                },
                {
                    "name": "A#4",
                    "midi": 70,
                    "time": 253.49990599999222,
                    "velocity": 0.5511811023622047,
                    "duration": 0.16153349999999023
                },
                {
                    "name": "C5",
                    "midi": 72,
                    "time": 253.49990599999222,
                    "velocity": 0.5511811023622047,
                    "duration": 0.16153349999999023
                },
                {
                    "name": "C4",
                    "midi": 60,
                    "time": 253.7152839999922,
                    "velocity": 0.4015748031496063,
                    "duration": 0.16153349999999023
                },
                {
                    "name": "E4",
                    "midi": 64,
                    "time": 253.7152839999922,
                    "velocity": 0.48031496062992124,
                    "duration": 0.16153349999999023
                },
                {
                    "name": "A#4",
                    "midi": 70,
                    "time": 253.7152839999922,
                    "velocity": 0.5748031496062992,
                    "duration": 0.16153349999999023
                },
                {
                    "name": "C5",
                    "midi": 72,
                    "time": 253.7152839999922,
                    "velocity": 0.5748031496062992,
                    "duration": 0.16153349999999023
                },
                {
                    "name": "C4",
                    "midi": 60,
                    "time": 253.9306619999922,
                    "velocity": 0.4015748031496063,
                    "duration": 0.16153349999999023
                },
                {
                    "name": "E4",
                    "midi": 64,
                    "time": 253.9306619999922,
                    "velocity": 0.47244094488188976,
                    "duration": 0.16153349999999023
                },
                {
                    "name": "A#4",
                    "midi": 70,
                    "time": 253.9306619999922,
                    "velocity": 0.5590551181102362,
                    "duration": 0.16153349999999023
                },
                {
                    "name": "C5",
                    "midi": 72,
                    "time": 253.9306619999922,
                    "velocity": 0.5590551181102362,
                    "duration": 0.16153349999999023
                },
                {
                    "name": "C4",
                    "midi": 60,
                    "time": 254.14603999999218,
                    "velocity": 0.4015748031496063,
                    "duration": 0.21537799999998697
                },
                {
                    "name": "F4",
                    "midi": 65,
                    "time": 254.14603999999218,
                    "velocity": 0.48031496062992124,
                    "duration": 0.21537799999998697
                },
                {
                    "name": "G#4",
                    "midi": 68,
                    "time": 254.14603999999218,
                    "velocity": 0.5748031496062992,
                    "duration": 0.21537799999998697
                },
                {
                    "name": "C5",
                    "midi": 72,
                    "time": 254.14603999999218,
                    "velocity": 0.5748031496062992,
                    "duration": 0.21537799999998697
                },
                {
                    "name": "C5",
                    "midi": 72,
                    "time": 254.79217399999217,
                    "velocity": 0.49606299212598426,
                    "duration": 0.16153349999999023
                },
                {
                    "name": "F5",
                    "midi": 77,
                    "time": 254.79217399999217,
                    "velocity": 0.5905511811023622,
                    "duration": 0.16153349999999023
                },
                {
                    "name": "G#5",
                    "midi": 80,
                    "time": 254.79217399999217,
                    "velocity": 0.5905511811023622,
                    "duration": 0.16153349999999023
                },
                {
                    "name": "C6",
                    "midi": 84,
                    "time": 254.79217399999217,
                    "velocity": 0.7086614173228346,
                    "duration": 0.16153349999999023
                },
                {
                    "name": "C5",
                    "midi": 72,
                    "time": 255.00755199999216,
                    "velocity": 0.4409448818897638,
                    "duration": 0.16153349999999023
                },
                {
                    "name": "E5",
                    "midi": 76,
                    "time": 255.00755199999216,
                    "velocity": 0.5275590551181102,
                    "duration": 0.16153349999999023
                },
                {
                    "name": "A#5",
                    "midi": 82,
                    "time": 255.00755199999216,
                    "velocity": 0.6299212598425197,
                    "duration": 0.16153349999999023
                },
                {
                    "name": "C6",
                    "midi": 84,
                    "time": 255.00755199999216,
                    "velocity": 0.6299212598425197,
                    "duration": 0.16153349999999023
                },
                {
                    "name": "C5",
                    "midi": 72,
                    "time": 255.22292999999215,
                    "velocity": 0.4330708661417323,
                    "duration": 0.16153349999999023
                },
                {
                    "name": "E5",
                    "midi": 76,
                    "time": 255.22292999999215,
                    "velocity": 0.5039370078740157,
                    "duration": 0.16153349999999023
                },
                {
                    "name": "A#5",
                    "midi": 82,
                    "time": 255.22292999999215,
                    "velocity": 0.6062992125984252,
                    "duration": 0.16153349999999023
                },
                {
                    "name": "C6",
                    "midi": 84,
                    "time": 255.22292999999215,
                    "velocity": 0.6062992125984252,
                    "duration": 0.16153349999999023
                },
                {
                    "name": "C5",
                    "midi": 72,
                    "time": 255.43830799999213,
                    "velocity": 0.4409448818897638,
                    "duration": 0.16153349999999023
                },
                {
                    "name": "E5",
                    "midi": 76,
                    "time": 255.43830799999213,
                    "velocity": 0.5275590551181102,
                    "duration": 0.16153349999999023
                },
                {
                    "name": "A#5",
                    "midi": 82,
                    "time": 255.43830799999213,
                    "velocity": 0.6299212598425197,
                    "duration": 0.16153349999999023
                },
                {
                    "name": "C6",
                    "midi": 84,
                    "time": 255.43830799999213,
                    "velocity": 0.6299212598425197,
                    "duration": 0.16153349999999023
                },
                {
                    "name": "C5",
                    "midi": 72,
                    "time": 255.65368599999212,
                    "velocity": 0.4409448818897638,
                    "duration": 0.16153349999999023
                },
                {
                    "name": "E5",
                    "midi": 76,
                    "time": 255.65368599999212,
                    "velocity": 0.5196850393700787,
                    "duration": 0.16153349999999023
                },
                {
                    "name": "A#5",
                    "midi": 82,
                    "time": 255.65368599999212,
                    "velocity": 0.6141732283464567,
                    "duration": 0.16153349999999023
                },
                {
                    "name": "C6",
                    "midi": 84,
                    "time": 255.65368599999212,
                    "velocity": 0.6141732283464567,
                    "duration": 0.16153349999999023
                },
                {
                    "name": "C5",
                    "midi": 72,
                    "time": 255.8690639999921,
                    "velocity": 0.4409448818897638,
                    "duration": 0.16153349999999023
                },
                {
                    "name": "F5",
                    "midi": 77,
                    "time": 255.8690639999921,
                    "velocity": 0.5275590551181102,
                    "duration": 0.16153349999999023
                },
                {
                    "name": "G#5",
                    "midi": 80,
                    "time": 255.8690639999921,
                    "velocity": 0.6299212598425197,
                    "duration": 0.16153349999999023
                },
                {
                    "name": "C6",
                    "midi": 84,
                    "time": 255.8690639999921,
                    "velocity": 0.6299212598425197,
                    "duration": 0.16153349999999023
                },
                {
                    "name": "C4",
                    "midi": 60,
                    "time": 256.5151979999921,
                    "velocity": 0.4566929133858268,
                    "duration": 0.16153350000001865
                },
                {
                    "name": "F4",
                    "midi": 65,
                    "time": 256.5151979999921,
                    "velocity": 0.5433070866141733,
                    "duration": 0.16153350000001865
                },
                {
                    "name": "G#4",
                    "midi": 68,
                    "time": 256.5151979999921,
                    "velocity": 0.5433070866141733,
                    "duration": 0.16153350000001865
                },
                {
                    "name": "C5",
                    "midi": 72,
                    "time": 256.5151979999921,
                    "velocity": 0.6456692913385826,
                    "duration": 0.16153350000001865
                },
                {
                    "name": "C4",
                    "midi": 60,
                    "time": 256.73057599999214,
                    "velocity": 0.4015748031496063,
                    "duration": 0.16153350000001865
                },
                {
                    "name": "E4",
                    "midi": 64,
                    "time": 256.73057599999214,
                    "velocity": 0.48031496062992124,
                    "duration": 0.16153350000001865
                },
                {
                    "name": "A#4",
                    "midi": 70,
                    "time": 256.73057599999214,
                    "velocity": 0.5748031496062992,
                    "duration": 0.16153350000001865
                },
                {
                    "name": "C5",
                    "midi": 72,
                    "time": 256.73057599999214,
                    "velocity": 0.5748031496062992,
                    "duration": 0.16153350000001865
                },
                {
                    "name": "C4",
                    "midi": 60,
                    "time": 256.9459539999922,
                    "velocity": 0.3937007874015748,
                    "duration": 0.16153350000001865
                },
                {
                    "name": "E4",
                    "midi": 64,
                    "time": 256.9459539999922,
                    "velocity": 0.4645669291338583,
                    "duration": 0.16153350000001865
                },
                {
                    "name": "A#4",
                    "midi": 70,
                    "time": 256.9459539999922,
                    "velocity": 0.5511811023622047,
                    "duration": 0.16153350000001865
                },
                {
                    "name": "C5",
                    "midi": 72,
                    "time": 256.9459539999922,
                    "velocity": 0.5511811023622047,
                    "duration": 0.16153350000001865
                },
                {
                    "name": "C4",
                    "midi": 60,
                    "time": 257.1613319999922,
                    "velocity": 0.4015748031496063,
                    "duration": 0.16153350000001865
                },
                {
                    "name": "E4",
                    "midi": 64,
                    "time": 257.1613319999922,
                    "velocity": 0.48031496062992124,
                    "duration": 0.16153350000001865
                },
                {
                    "name": "A#4",
                    "midi": 70,
                    "time": 257.1613319999922,
                    "velocity": 0.5748031496062992,
                    "duration": 0.16153350000001865
                },
                {
                    "name": "C5",
                    "midi": 72,
                    "time": 257.1613319999922,
                    "velocity": 0.5748031496062992,
                    "duration": 0.16153350000001865
                },
                {
                    "name": "C4",
                    "midi": 60,
                    "time": 257.3767099999923,
                    "velocity": 0.4015748031496063,
                    "duration": 0.16153350000001865
                },
                {
                    "name": "E4",
                    "midi": 64,
                    "time": 257.3767099999923,
                    "velocity": 0.47244094488188976,
                    "duration": 0.16153350000001865
                },
                {
                    "name": "A#4",
                    "midi": 70,
                    "time": 257.3767099999923,
                    "velocity": 0.5590551181102362,
                    "duration": 0.16153350000001865
                },
                {
                    "name": "C5",
                    "midi": 72,
                    "time": 257.3767099999923,
                    "velocity": 0.5590551181102362,
                    "duration": 0.16153350000001865
                },
                {
                    "name": "C4",
                    "midi": 60,
                    "time": 257.5920879999923,
                    "velocity": 0.4409448818897638,
                    "duration": 0.16153350000001865
                },
                {
                    "name": "F4",
                    "midi": 65,
                    "time": 257.5920879999923,
                    "velocity": 0.5275590551181102,
                    "duration": 0.16153350000001865
                },
                {
                    "name": "G#4",
                    "midi": 68,
                    "time": 257.5920879999923,
                    "velocity": 0.5275590551181102,
                    "duration": 0.16153350000001865
                },
                {
                    "name": "C5",
                    "midi": 72,
                    "time": 257.5920879999923,
                    "velocity": 0.6299212598425197,
                    "duration": 0.16153350000001865
                },
                {
                    "name": "C5",
                    "midi": 72,
                    "time": 257.80746599999236,
                    "velocity": 0.5511811023622047,
                    "duration": 0.16153350000001865
                },
                {
                    "name": "F5",
                    "midi": 77,
                    "time": 257.80746599999236,
                    "velocity": 0.5511811023622047,
                    "duration": 0.16153350000001865
                },
                {
                    "name": "G#5",
                    "midi": 80,
                    "time": 257.80746599999236,
                    "velocity": 0.5511811023622047,
                    "duration": 0.16153350000001865
                },
                {
                    "name": "C6",
                    "midi": 84,
                    "time": 257.80746599999236,
                    "velocity": 0.6614173228346457,
                    "duration": 0.16153350000001865
                },
                {
                    "name": "C5",
                    "midi": 72,
                    "time": 258.0228439999924,
                    "velocity": 0.5826771653543307,
                    "duration": 0.16153350000001865
                },
                {
                    "name": "F5",
                    "midi": 77,
                    "time": 258.0228439999924,
                    "velocity": 0.5826771653543307,
                    "duration": 0.16153350000001865
                },
                {
                    "name": "G#5",
                    "midi": 80,
                    "time": 258.0228439999924,
                    "velocity": 0.5826771653543307,
                    "duration": 0.16153350000001865
                },
                {
                    "name": "C6",
                    "midi": 84,
                    "time": 258.0228439999924,
                    "velocity": 0.7086614173228346,
                    "duration": 0.16153350000001865
                },
                {
                    "name": "C5",
                    "midi": 72,
                    "time": 258.23822199999245,
                    "velocity": 0.5748031496062992,
                    "duration": 0.16153350000001865
                },
                {
                    "name": "F5",
                    "midi": 77,
                    "time": 258.23822199999245,
                    "velocity": 0.5748031496062992,
                    "duration": 0.16153350000001865
                },
                {
                    "name": "G#5",
                    "midi": 80,
                    "time": 258.23822199999245,
                    "velocity": 0.5748031496062992,
                    "duration": 0.16153350000001865
                },
                {
                    "name": "C6",
                    "midi": 84,
                    "time": 258.23822199999245,
                    "velocity": 0.6929133858267716,
                    "duration": 0.16153350000001865
                },
                {
                    "name": "C5",
                    "midi": 72,
                    "time": 258.4535999999925,
                    "velocity": 0.5039370078740157,
                    "duration": 0.16153350000001865
                },
                {
                    "name": "E5",
                    "midi": 76,
                    "time": 258.4535999999925,
                    "velocity": 0.6141732283464567,
                    "duration": 0.16153350000001865
                },
                {
                    "name": "A#5",
                    "midi": 82,
                    "time": 258.4535999999925,
                    "velocity": 0.6141732283464567,
                    "duration": 0.16153350000001865
                },
                {
                    "name": "C6",
                    "midi": 84,
                    "time": 258.4535999999925,
                    "velocity": 0.7322834645669292,
                    "duration": 0.16153350000001865
                },
                {
                    "name": "C5",
                    "midi": 72,
                    "time": 258.66897799999253,
                    "velocity": 0.5039370078740157,
                    "duration": 0.16153350000001865
                },
                {
                    "name": "E5",
                    "midi": 76,
                    "time": 258.66897799999253,
                    "velocity": 0.5905511811023622,
                    "duration": 0.16153350000001865
                },
                {
                    "name": "A#5",
                    "midi": 82,
                    "time": 258.66897799999253,
                    "velocity": 0.5905511811023622,
                    "duration": 0.16153350000001865
                },
                {
                    "name": "C6",
                    "midi": 84,
                    "time": 258.66897799999253,
                    "velocity": 0.7165354330708661,
                    "duration": 0.16153350000001865
                },
                {
                    "name": "C5",
                    "midi": 72,
                    "time": 258.8843559999926,
                    "velocity": 0.5354330708661418,
                    "duration": 0.16153350000001865
                },
                {
                    "name": "E5",
                    "midi": 76,
                    "time": 258.8843559999926,
                    "velocity": 0.6377952755905512,
                    "duration": 0.16153350000001865
                },
                {
                    "name": "A#5",
                    "midi": 82,
                    "time": 258.8843559999926,
                    "velocity": 0.6377952755905512,
                    "duration": 0.16153350000001865
                },
                {
                    "name": "C6",
                    "midi": 84,
                    "time": 258.8843559999926,
                    "velocity": 0.7637795275590551,
                    "duration": 0.16153350000001865
                },
                {
                    "name": "C5",
                    "midi": 72,
                    "time": 259.0997339999926,
                    "velocity": 0.5433070866141733,
                    "duration": 0.16153350000001865
                },
                {
                    "name": "E5",
                    "midi": 76,
                    "time": 259.0997339999926,
                    "velocity": 0.6456692913385826,
                    "duration": 0.16153350000001865
                },
                {
                    "name": "A#5",
                    "midi": 82,
                    "time": 259.0997339999926,
                    "velocity": 0.6456692913385826,
                    "duration": 0.16153350000001865
                },
                {
                    "name": "C6",
                    "midi": 84,
                    "time": 259.0997339999926,
                    "velocity": 0.7559055118110236,
                    "duration": 0.16153350000001865
                },
                {
                    "name": "C5",
                    "midi": 72,
                    "time": 259.31511199999267,
                    "velocity": 0.5669291338582677,
                    "duration": 0.10768899999999348
                },
                {
                    "name": "D#5",
                    "midi": 75,
                    "time": 259.31511199999267,
                    "velocity": 0.6692913385826772,
                    "duration": 0.10768899999999348
                },
                {
                    "name": "A5",
                    "midi": 81,
                    "time": 259.31511199999267,
                    "velocity": 0.8031496062992126,
                    "duration": 0.10768899999999348
                },
                {
                    "name": "C6",
                    "midi": 84,
                    "time": 259.31511199999267,
                    "velocity": 0.8031496062992126,
                    "duration": 0.10768899999999348
                },
                {
                    "name": "A3",
                    "midi": 57,
                    "time": 259.42280099999266,
                    "velocity": 0.5511811023622047,
                    "duration": 0.10768899999999348
                },
                {
                    "name": "C4",
                    "midi": 60,
                    "time": 259.53048999999265,
                    "velocity": 0.5590551181102362,
                    "duration": 0.10768899999999348
                },
                {
                    "name": "D#4",
                    "midi": 63,
                    "time": 259.63817899999265,
                    "velocity": 0.5669291338582677,
                    "duration": 0.10768899999999348
                },
                {
                    "name": "F#4",
                    "midi": 66,
                    "time": 259.74586799999264,
                    "velocity": 0.5669291338582677,
                    "duration": 0.10768899999999348
                },
                {
                    "name": "A4",
                    "midi": 69,
                    "time": 259.85355699999263,
                    "velocity": 0.5669291338582677,
                    "duration": 0.10768899999999348
                },
                {
                    "name": "C5",
                    "midi": 72,
                    "time": 259.9612459999926,
                    "velocity": 0.5748031496062992,
                    "duration": 0.10768899999999348
                },
                {
                    "name": "D#5",
                    "midi": 75,
                    "time": 260.0689349999926,
                    "velocity": 0.5826771653543307,
                    "duration": 0.10768899999999348
                },
                {
                    "name": "F#5",
                    "midi": 78,
                    "time": 260.1766239999926,
                    "velocity": 0.5905511811023622,
                    "duration": 0.10768899999999348
                },
                {
                    "name": "A5",
                    "midi": 81,
                    "time": 260.2843129999926,
                    "velocity": 0.6062992125984252,
                    "duration": 0.10768899999999348
                },
                {
                    "name": "C6",
                    "midi": 84,
                    "time": 260.3920019999926,
                    "velocity": 0.6220472440944882,
                    "duration": 0.10768899999999348
                },
                {
                    "name": "D#6",
                    "midi": 87,
                    "time": 260.4996909999926,
                    "velocity": 0.6377952755905512,
                    "duration": 0.10768899999999348
                },
                {
                    "name": "F#6",
                    "midi": 90,
                    "time": 260.6073799999926,
                    "velocity": 0.6535433070866141,
                    "duration": 0.10768899999999348
                },
                {
                    "name": "D#6",
                    "midi": 87,
                    "time": 260.7150689999926,
                    "velocity": 0.6535433070866141,
                    "duration": 0.10768899999999348
                },
                {
                    "name": "C6",
                    "midi": 84,
                    "time": 260.8227579999926,
                    "velocity": 0.6456692913385826,
                    "duration": 0.10768899999999348
                },
                {
                    "name": "A5",
                    "midi": 81,
                    "time": 260.93044699999257,
                    "velocity": 0.6377952755905512,
                    "duration": 0.10768899999999348
                },
                {
                    "name": "F#5",
                    "midi": 78,
                    "time": 261.03813599999256,
                    "velocity": 0.6377952755905512,
                    "duration": 0.10768899999999348
                },
                {
                    "name": "D#5",
                    "midi": 75,
                    "time": 261.14582499999256,
                    "velocity": 0.6299212598425197,
                    "duration": 0.10768899999999348
                },
                {
                    "name": "C5",
                    "midi": 72,
                    "time": 261.25351399999255,
                    "velocity": 0.6220472440944882,
                    "duration": 0.10768899999999348
                },
                {
                    "name": "A4",
                    "midi": 69,
                    "time": 261.36120299999254,
                    "velocity": 0.6141732283464567,
                    "duration": 0.10768899999999348
                },
                {
                    "name": "F#4",
                    "midi": 66,
                    "time": 261.46889199999254,
                    "velocity": 0.6062992125984252,
                    "duration": 0.10768899999999348
                },
                {
                    "name": "D#4",
                    "midi": 63,
                    "time": 261.57658099999253,
                    "velocity": 0.5984251968503937,
                    "duration": 0.10768899999999348
                },
                {
                    "name": "C4",
                    "midi": 60,
                    "time": 261.6842699999925,
                    "velocity": 0.5905511811023622,
                    "duration": 0.10768899999999348
                },
                {
                    "name": "A3",
                    "midi": 57,
                    "time": 264.5918729999925,
                    "velocity": 0.31496062992125984,
                    "duration": 0.10768899999999348
                },
                {
                    "name": "C4",
                    "midi": 60,
                    "time": 264.6995619999925,
                    "velocity": 0.29133858267716534,
                    "duration": 0.10768899999999348
                },
                {
                    "name": "D#4",
                    "midi": 63,
                    "time": 264.8072509999925,
                    "velocity": 0.29133858267716534,
                    "duration": 0.10768899999999348
                },
                {
                    "name": "F#4",
                    "midi": 66,
                    "time": 264.9149399999925,
                    "velocity": 0.31496062992125984,
                    "duration": 0.10768899999999348
                },
                {
                    "name": "G#4",
                    "midi": 68,
                    "time": 265.0226289999925,
                    "velocity": 0.2992125984251969,
                    "duration": 0.10768899999999348
                },
                {
                    "name": "F#4",
                    "midi": 66,
                    "time": 265.1303179999925,
                    "velocity": 0.2992125984251969,
                    "duration": 0.10768899999999348
                },
                {
                    "name": "F4",
                    "midi": 65,
                    "time": 265.2380069999925,
                    "velocity": 0.2992125984251969,
                    "duration": 0.10768899999999348
                },
                {
                    "name": "D#4",
                    "midi": 63,
                    "time": 265.3456959999925,
                    "velocity": 0.31496062992125984,
                    "duration": 0.10768899999999348
                },
                {
                    "name": "F4",
                    "midi": 65,
                    "time": 265.45338499999247,
                    "velocity": 0.29133858267716534,
                    "duration": 0.10768899999999348
                },
                {
                    "name": "D#4",
                    "midi": 63,
                    "time": 265.56107399999246,
                    "velocity": 0.29133858267716534,
                    "duration": 0.10768899999999348
                },
                {
                    "name": "C#4",
                    "midi": 61,
                    "time": 265.66876299999245,
                    "velocity": 0.29133858267716534,
                    "duration": 0.10768899999999348
                },
                {
                    "name": "C4",
                    "midi": 60,
                    "time": 265.77645199999245,
                    "velocity": 0.31496062992125984,
                    "duration": 0.10768899999999348
                },
                {
                    "name": "C#4",
                    "midi": 61,
                    "time": 265.88414099999244,
                    "velocity": 0.29133858267716534,
                    "duration": 0.10768899999999348
                },
                {
                    "name": "D#4",
                    "midi": 63,
                    "time": 265.99182999999243,
                    "velocity": 0.29133858267716534,
                    "duration": 0.10768899999999348
                },
                {
                    "name": "C4",
                    "midi": 60,
                    "time": 266.0995189999924,
                    "velocity": 0.29133858267716534,
                    "duration": 0.10768899999999348
                },
                {
                    "name": "A3",
                    "midi": 57,
                    "time": 266.3148969999924,
                    "velocity": 0.31496062992125984,
                    "duration": 0.10768899999999348
                },
                {
                    "name": "C4",
                    "midi": 60,
                    "time": 266.4225859999924,
                    "velocity": 0.29133858267716534,
                    "duration": 0.10768899999999348
                },
                {
                    "name": "D#4",
                    "midi": 63,
                    "time": 266.5302749999924,
                    "velocity": 0.29133858267716534,
                    "duration": 0.10768899999999348
                },
                {
                    "name": "F#4",
                    "midi": 66,
                    "time": 266.6379639999924,
                    "velocity": 0.31496062992125984,
                    "duration": 0.10768899999999348
                },
                {
                    "name": "G#4",
                    "midi": 68,
                    "time": 266.7456529999924,
                    "velocity": 0.2992125984251969,
                    "duration": 0.10768899999999348
                },
                {
                    "name": "F#4",
                    "midi": 66,
                    "time": 266.8533419999924,
                    "velocity": 0.2992125984251969,
                    "duration": 0.10768899999999348
                },
                {
                    "name": "F4",
                    "midi": 65,
                    "time": 266.9610309999924,
                    "velocity": 0.2992125984251969,
                    "duration": 0.10768899999999348
                },
                {
                    "name": "D#4",
                    "midi": 63,
                    "time": 267.06871999999237,
                    "velocity": 0.31496062992125984,
                    "duration": 0.10768899999999348
                },
                {
                    "name": "F4",
                    "midi": 65,
                    "time": 267.17640899999236,
                    "velocity": 0.29133858267716534,
                    "duration": 0.10768899999999348
                },
                {
                    "name": "D#4",
                    "midi": 63,
                    "time": 267.28409799999235,
                    "velocity": 0.29133858267716534,
                    "duration": 0.10768899999999348
                },
                {
                    "name": "C#4",
                    "midi": 61,
                    "time": 267.39178699999235,
                    "velocity": 0.29133858267716534,
                    "duration": 0.10768899999999348
                },
                {
                    "name": "C4",
                    "midi": 60,
                    "time": 267.49947599999234,
                    "velocity": 0.31496062992125984,
                    "duration": 0.10768899999999348
                },
                {
                    "name": "C#4",
                    "midi": 61,
                    "time": 267.60716499999234,
                    "velocity": 0.29133858267716534,
                    "duration": 0.10768899999999348
                },
                {
                    "name": "D#4",
                    "midi": 63,
                    "time": 267.71485399999233,
                    "velocity": 0.29133858267716534,
                    "duration": 0.10768899999999348
                },
                {
                    "name": "C4",
                    "midi": 60,
                    "time": 267.8225429999923,
                    "velocity": 0.29133858267716534,
                    "duration": 0.10768899999999348
                },
                {
                    "name": "A3",
                    "midi": 57,
                    "time": 268.0379209999923,
                    "velocity": 0.3700787401574803,
                    "duration": 0.10768899999999348
                },
                {
                    "name": "C4",
                    "midi": 60,
                    "time": 268.1456099999923,
                    "velocity": 0.3858267716535433,
                    "duration": 0.10768899999999348
                },
                {
                    "name": "D#4",
                    "midi": 63,
                    "time": 268.2532989999923,
                    "velocity": 0.3937007874015748,
                    "duration": 0.10768899999999348
                },
                {
                    "name": "F#4",
                    "midi": 66,
                    "time": 268.3609879999923,
                    "velocity": 0.4094488188976378,
                    "duration": 0.10768899999999348
                },
                {
                    "name": "G#4",
                    "midi": 68,
                    "time": 268.4686769999923,
                    "velocity": 0.4251968503937008,
                    "duration": 0.10768899999999348
                },
                {
                    "name": "F#4",
                    "midi": 66,
                    "time": 268.5763659999923,
                    "velocity": 0.4409448818897638,
                    "duration": 0.10768899999999348
                },
                {
                    "name": "F4",
                    "midi": 65,
                    "time": 268.68405499999227,
                    "velocity": 0.4566929133858268,
                    "duration": 0.10768899999999348
                },
                {
                    "name": "D#4",
                    "midi": 63,
                    "time": 268.79174399999226,
                    "velocity": 0.5275590551181102,
                    "duration": 0.21537799999998697
                },
                {
                    "name": "D#4",
                    "midi": 63,
                    "time": 269.00712199999225,
                    "velocity": 0.3700787401574803,
                    "duration": 0.10768899999999348
                },
                {
                    "name": "F4",
                    "midi": 65,
                    "time": 269.11481099999224,
                    "velocity": 0.3858267716535433,
                    "duration": 0.10768899999999348
                },
                {
                    "name": "F#4",
                    "midi": 66,
                    "time": 269.22249999999224,
                    "velocity": 0.4094488188976378,
                    "duration": 0.10768899999999348
                },
                {
                    "name": "G#4",
                    "midi": 68,
                    "time": 269.33018899999223,
                    "velocity": 0.4251968503937008,
                    "duration": 0.10768899999999348
                },
                {
                    "name": "F#4",
                    "midi": 66,
                    "time": 269.4378779999922,
                    "velocity": 0.4409448818897638,
                    "duration": 0.10768899999999348
                },
                {
                    "name": "F4",
                    "midi": 65,
                    "time": 269.5455669999922,
                    "velocity": 0.4645669291338583,
                    "duration": 0.10768899999999348
                },
                {
                    "name": "D#4",
                    "midi": 63,
                    "time": 269.6532559999922,
                    "velocity": 0.5275590551181102,
                    "duration": 0.21537799999998697
                },
                {
                    "name": "D#4",
                    "midi": 63,
                    "time": 269.8686339999922,
                    "velocity": 0.3937007874015748,
                    "duration": 0.10768899999999348
                },
                {
                    "name": "F4",
                    "midi": 65,
                    "time": 269.9763229999922,
                    "velocity": 0.3937007874015748,
                    "duration": 0.10768899999999348
                },
                {
                    "name": "F#4",
                    "midi": 66,
                    "time": 270.0840119999922,
                    "velocity": 0.4409448818897638,
                    "duration": 0.10768899999999348
                },
                {
                    "name": "G#4",
                    "midi": 68,
                    "time": 270.1917009999922,
                    "velocity": 0.3858267716535433,
                    "duration": 0.10768899999999348
                },
                {
                    "name": "F#4",
                    "midi": 66,
                    "time": 270.2993899999922,
                    "velocity": 0.3937007874015748,
                    "duration": 0.10768899999999348
                },
                {
                    "name": "F4",
                    "midi": 65,
                    "time": 270.40707899999217,
                    "velocity": 0.3937007874015748,
                    "duration": 0.10768899999999348
                },
                {
                    "name": "D#4",
                    "midi": 63,
                    "time": 270.51476799999216,
                    "velocity": 0.5275590551181102,
                    "duration": 0.21537799999998697
                },
                {
                    "name": "F#4",
                    "midi": 66,
                    "time": 270.73014599999215,
                    "velocity": 0.4409448818897638,
                    "duration": 0.21537799999998697
                },
                {
                    "name": "F#5",
                    "midi": 78,
                    "time": 270.73014599999215,
                    "velocity": 0.4409448818897638,
                    "duration": 0.21537799999998697
                },
                {
                    "name": "F4",
                    "midi": 65,
                    "time": 270.94552399999213,
                    "velocity": 0.47244094488188976,
                    "duration": 0.21537799999998697
                },
                {
                    "name": "F5",
                    "midi": 77,
                    "time": 270.94552399999213,
                    "velocity": 0.47244094488188976,
                    "duration": 0.21537799999998697
                },
                {
                    "name": "A4",
                    "midi": 69,
                    "time": 271.1609019999921,
                    "velocity": 0.4251968503937008,
                    "duration": 0.21537799999998697
                },
                {
                    "name": "A5",
                    "midi": 81,
                    "time": 271.1609019999921,
                    "velocity": 0.4251968503937008,
                    "duration": 0.21537799999998697
                },
                {
                    "name": "A#5",
                    "midi": 82,
                    "time": 271.3762799999921,
                    "velocity": 0.4409448818897638,
                    "duration": 0.10768899999999348
                },
                {
                    "name": "A#4",
                    "midi": 70,
                    "time": 271.3762799999921,
                    "velocity": 0.4409448818897638,
                    "duration": 0.10768899999999348
                },
                {
                    "name": "F4",
                    "midi": 65,
                    "time": 271.4839689999921,
                    "velocity": 0.4015748031496063,
                    "duration": 0.10768899999999348
                },
                {
                    "name": "A#4",
                    "midi": 70,
                    "time": 271.5916579999921,
                    "velocity": 0.4094488188976378,
                    "duration": 0.10768899999999348
                },
                {
                    "name": "C#5",
                    "midi": 73,
                    "time": 271.6993469999921,
                    "velocity": 0.41732283464566927,
                    "duration": 0.10768899999999348
                },
                {
                    "name": "F5",
                    "midi": 77,
                    "time": 271.8070359999921,
                    "velocity": 0.44881889763779526,
                    "duration": 0.10768899999999348
                },
                {
                    "name": "F#5",
                    "midi": 78,
                    "time": 271.9147249999921,
                    "velocity": 0.4330708661417323,
                    "duration": 0.10768899999999348
                },
                {
                    "name": "F5",
                    "midi": 77,
                    "time": 272.02241399999207,
                    "velocity": 0.4409448818897638,
                    "duration": 0.10768899999999348
                },
                {
                    "name": "D#5",
                    "midi": 75,
                    "time": 272.13010299999206,
                    "velocity": 0.4330708661417323,
                    "duration": 0.10768899999999348
                },
                {
                    "name": "C#5",
                    "midi": 73,
                    "time": 272.23779199999206,
                    "velocity": 0.44881889763779526,
                    "duration": 0.10768899999999348
                },
                {
                    "name": "D#5",
                    "midi": 75,
                    "time": 272.34548099999205,
                    "velocity": 0.4409448818897638,
                    "duration": 0.10768899999999348
                },
                {
                    "name": "C#5",
                    "midi": 73,
                    "time": 272.45316999999204,
                    "velocity": 0.4409448818897638,
                    "duration": 0.10768899999999348
                },
                {
                    "name": "C5",
                    "midi": 72,
                    "time": 272.56085899999204,
                    "velocity": 0.4330708661417323,
                    "duration": 0.10768899999999348
                },
                {
                    "name": "A#4",
                    "midi": 70,
                    "time": 272.66854799999203,
                    "velocity": 0.4251968503937008,
                    "duration": 0.10768899999999348
                },
                {
                    "name": "C5",
                    "midi": 72,
                    "time": 272.776236999992,
                    "velocity": 0.41732283464566927,
                    "duration": 0.10768899999999348
                },
                {
                    "name": "C#5",
                    "midi": 73,
                    "time": 272.883925999992,
                    "velocity": 0.41732283464566927,
                    "duration": 0.10768899999999348
                },
                {
                    "name": "A#4",
                    "midi": 70,
                    "time": 272.991614999992,
                    "velocity": 0.4094488188976378,
                    "duration": 0.10768899999999348
                },
                {
                    "name": "F4",
                    "midi": 65,
                    "time": 273.206992999992,
                    "velocity": 0.4015748031496063,
                    "duration": 0.10768899999999348
                },
                {
                    "name": "A#4",
                    "midi": 70,
                    "time": 273.314681999992,
                    "velocity": 0.4094488188976378,
                    "duration": 0.10768899999999348
                },
                {
                    "name": "C#5",
                    "midi": 73,
                    "time": 273.422370999992,
                    "velocity": 0.41732283464566927,
                    "duration": 0.10768899999999348
                },
                {
                    "name": "F5",
                    "midi": 77,
                    "time": 273.530059999992,
                    "velocity": 0.44881889763779526,
                    "duration": 0.10768899999999348
                },
                {
                    "name": "F#5",
                    "midi": 78,
                    "time": 273.63774899999197,
                    "velocity": 0.4330708661417323,
                    "duration": 0.10768899999999348
                },
                {
                    "name": "F5",
                    "midi": 77,
                    "time": 273.74543799999196,
                    "velocity": 0.4409448818897638,
                    "duration": 0.10768899999999348
                },
                {
                    "name": "D#5",
                    "midi": 75,
                    "time": 273.85312699999196,
                    "velocity": 0.4330708661417323,
                    "duration": 0.10768899999999348
                },
                {
                    "name": "C#5",
                    "midi": 73,
                    "time": 273.96081599999195,
                    "velocity": 0.44881889763779526,
                    "duration": 0.10768899999999348
                },
                {
                    "name": "D#5",
                    "midi": 75,
                    "time": 274.06850499999194,
                    "velocity": 0.4409448818897638,
                    "duration": 0.10768899999999348
                },
                {
                    "name": "C#5",
                    "midi": 73,
                    "time": 274.17619399999194,
                    "velocity": 0.4409448818897638,
                    "duration": 0.10768899999999348
                },
                {
                    "name": "C5",
                    "midi": 72,
                    "time": 274.28388299999193,
                    "velocity": 0.4330708661417323,
                    "duration": 0.10768899999999348
                },
                {
                    "name": "A#4",
                    "midi": 70,
                    "time": 274.3915719999919,
                    "velocity": 0.4251968503937008,
                    "duration": 0.10768899999999348
                },
                {
                    "name": "C5",
                    "midi": 72,
                    "time": 274.4992609999919,
                    "velocity": 0.41732283464566927,
                    "duration": 0.10768899999999348
                },
                {
                    "name": "C#5",
                    "midi": 73,
                    "time": 274.6069499999919,
                    "velocity": 0.41732283464566927,
                    "duration": 0.10768899999999348
                },
                {
                    "name": "A#4",
                    "midi": 70,
                    "time": 274.7146389999919,
                    "velocity": 0.4094488188976378,
                    "duration": 0.10768899999999348
                },
                {
                    "name": "F#4",
                    "midi": 66,
                    "time": 274.9300169999919,
                    "velocity": 0.4015748031496063,
                    "duration": 0.10768899999999348
                },
                {
                    "name": "B4",
                    "midi": 71,
                    "time": 275.0377059999919,
                    "velocity": 0.41732283464566927,
                    "duration": 0.10768899999999348
                },
                {
                    "name": "D#5",
                    "midi": 75,
                    "time": 275.1453949999919,
                    "velocity": 0.4251968503937008,
                    "duration": 0.10768899999999348
                },
                {
                    "name": "F#5",
                    "midi": 78,
                    "time": 275.2530839999919,
                    "velocity": 0.4645669291338583,
                    "duration": 0.10768899999999348
                },
                {
                    "name": "G#5",
                    "midi": 80,
                    "time": 275.36077299999187,
                    "velocity": 0.4566929133858268,
                    "duration": 0.10768899999999348
                },
                {
                    "name": "F#5",
                    "midi": 78,
                    "time": 275.46846199999186,
                    "velocity": 0.4645669291338583,
                    "duration": 0.10768899999999348
                },
                {
                    "name": "F5",
                    "midi": 77,
                    "time": 275.57615099999185,
                    "velocity": 0.4645669291338583,
                    "duration": 0.10768899999999348
                },
                {
                    "name": "D#5",
                    "midi": 75,
                    "time": 275.68383999999185,
                    "velocity": 0.4881889763779528,
                    "duration": 0.10768899999999348
                },
                {
                    "name": "F5",
                    "midi": 77,
                    "time": 275.79152899999184,
                    "velocity": 0.4881889763779528,
                    "duration": 0.10768899999999348
                },
                {
                    "name": "D#5",
                    "midi": 75,
                    "time": 275.89921799999183,
                    "velocity": 0.4881889763779528,
                    "duration": 0.10768899999999348
                },
                {
                    "name": "C#5",
                    "midi": 73,
                    "time": 276.0069069999918,
                    "velocity": 0.4881889763779528,
                    "duration": 0.10768899999999348
                },
                {
                    "name": "B4",
                    "midi": 71,
                    "time": 276.1145959999918,
                    "velocity": 0.4881889763779528,
                    "duration": 0.10768899999999348
                },
                {
                    "name": "C#5",
                    "midi": 73,
                    "time": 276.2222849999918,
                    "velocity": 0.48031496062992124,
                    "duration": 0.10768899999999348
                },
                {
                    "name": "D#5",
                    "midi": 75,
                    "time": 276.3299739999918,
                    "velocity": 0.5039370078740157,
                    "duration": 0.10768899999999348
                },
                {
                    "name": "B4",
                    "midi": 71,
                    "time": 276.4376629999918,
                    "velocity": 0.48031496062992124,
                    "duration": 0.10768899999999348
                },
                {
                    "name": "A#4",
                    "midi": 70,
                    "time": 276.5453519999918,
                    "velocity": 0.5354330708661418,
                    "duration": 0.10768899999999348
                },
                {
                    "name": "C5",
                    "midi": 72,
                    "time": 276.6530409999918,
                    "velocity": 0.5039370078740157,
                    "duration": 0.10768899999999348
                },
                {
                    "name": "A#4",
                    "midi": 70,
                    "time": 276.7607299999918,
                    "velocity": 0.5196850393700787,
                    "duration": 0.10768899999999348
                },
                {
                    "name": "A4",
                    "midi": 69,
                    "time": 276.8684189999918,
                    "velocity": 0.5039370078740157,
                    "duration": 0.10768899999999348
                },
                {
                    "name": "A#4",
                    "midi": 70,
                    "time": 276.97610799999177,
                    "velocity": 0.4881889763779528,
                    "duration": 0.10768899999999348
                },
                {
                    "name": "C5",
                    "midi": 72,
                    "time": 277.08379699999176,
                    "velocity": 0.47244094488188976,
                    "duration": 0.10768899999999348
                },
                {
                    "name": "C#5",
                    "midi": 73,
                    "time": 277.19148599999176,
                    "velocity": 0.4645669291338583,
                    "duration": 0.10768899999999348
                },
                {
                    "name": "A#4",
                    "midi": 70,
                    "time": 277.29917499999175,
                    "velocity": 0.4566929133858268,
                    "duration": 0.10768899999999348
                },
                {
                    "name": "A4",
                    "midi": 69,
                    "time": 277.40686399999174,
                    "velocity": 0.4881889763779528,
                    "duration": 0.10768899999999348
                },
                {
                    "name": "A#4",
                    "midi": 70,
                    "time": 277.51455299999174,
                    "velocity": 0.48031496062992124,
                    "duration": 0.10768899999999348
                },
                {
                    "name": "A4",
                    "midi": 69,
                    "time": 277.62224199999173,
                    "velocity": 0.47244094488188976,
                    "duration": 0.10768899999999348
                },
                {
                    "name": "G4",
                    "midi": 67,
                    "time": 277.7299309999917,
                    "velocity": 0.4566929133858268,
                    "duration": 0.10768899999999348
                },
                {
                    "name": "A4",
                    "midi": 69,
                    "time": 277.8376199999917,
                    "velocity": 0.4409448818897638,
                    "duration": 0.10768899999999348
                },
                {
                    "name": "A#4",
                    "midi": 70,
                    "time": 277.9453089999917,
                    "velocity": 0.4330708661417323,
                    "duration": 0.10768899999999348
                },
                {
                    "name": "C5",
                    "midi": 72,
                    "time": 278.0529979999917,
                    "velocity": 0.4251968503937008,
                    "duration": 0.10768899999999348
                },
                {
                    "name": "A4",
                    "midi": 69,
                    "time": 278.1606869999917,
                    "velocity": 0.41732283464566927,
                    "duration": 0.10768899999999348
                },
                {
                    "name": "A#4",
                    "midi": 70,
                    "time": 278.2683759999917,
                    "velocity": 0.48031496062992124,
                    "duration": 0.21537799999998697
                },
                {
                    "name": "A#4",
                    "midi": 70,
                    "time": 278.4837539999917,
                    "velocity": 0.44881889763779526,
                    "duration": 0.10768899999999348
                },
                {
                    "name": "C#5",
                    "midi": 73,
                    "time": 278.59144299999167,
                    "velocity": 0.4566929133858268,
                    "duration": 0.10768899999999348
                },
                {
                    "name": "F5",
                    "midi": 77,
                    "time": 278.69913199999166,
                    "velocity": 0.4881889763779528,
                    "duration": 0.10768899999999348
                },
                {
                    "name": "F#5",
                    "midi": 78,
                    "time": 278.80682099999166,
                    "velocity": 0.47244094488188976,
                    "duration": 0.10768899999999348
                },
                {
                    "name": "F5",
                    "midi": 77,
                    "time": 278.91450999999165,
                    "velocity": 0.48031496062992124,
                    "duration": 0.10768899999999348
                },
                {
                    "name": "D#5",
                    "midi": 75,
                    "time": 279.02219899999164,
                    "velocity": 0.48031496062992124,
                    "duration": 0.10768899999999348
                },
                {
                    "name": "C#5",
                    "midi": 73,
                    "time": 279.12988799999164,
                    "velocity": 0.49606299212598426,
                    "duration": 0.10768899999999348
                },
                {
                    "name": "D#5",
                    "midi": 75,
                    "time": 279.23757699999163,
                    "velocity": 0.4881889763779528,
                    "duration": 0.10768899999999348
                },
                {
                    "name": "C#5",
                    "midi": 73,
                    "time": 279.3452659999916,
                    "velocity": 0.4881889763779528,
                    "duration": 0.10768899999999348
                },
                {
                    "name": "C5",
                    "midi": 72,
                    "time": 279.4529549999916,
                    "velocity": 0.48031496062992124,
                    "duration": 0.10768899999999348
                },
                {
                    "name": "A#5",
                    "midi": 82,
                    "time": 279.5606439999916,
                    "velocity": 0.5590551181102362,
                    "duration": 0.21537799999998697
                },
                {
                    "name": "A#4",
                    "midi": 70,
                    "time": 279.5606439999916,
                    "velocity": 0.5590551181102362,
                    "duration": 0.10768899999999348
                },
                {
                    "name": "C5",
                    "midi": 72,
                    "time": 279.6683329999916,
                    "velocity": 0.47244094488188976,
                    "duration": 0.10768899999999348
                },
                {
                    "name": "C#5",
                    "midi": 73,
                    "time": 279.7760219999916,
                    "velocity": 0.48031496062992124,
                    "duration": 0.10768899999999348
                },
                {
                    "name": "A#4",
                    "midi": 70,
                    "time": 279.8837109999916,
                    "velocity": 0.47244094488188976,
                    "duration": 0.10768899999999348
                },
                {
                    "name": "A5",
                    "midi": 81,
                    "time": 279.9913999999916,
                    "velocity": 0.5826771653543307,
                    "duration": 0.21537799999998697
                },
                {
                    "name": "A#4",
                    "midi": 70,
                    "time": 280.2067779999916,
                    "velocity": 0.49606299212598426,
                    "duration": 0.10768899999999348
                },
                {
                    "name": "C#5",
                    "midi": 73,
                    "time": 280.31446699999157,
                    "velocity": 0.5118110236220472,
                    "duration": 0.10768899999999348
                },
                {
                    "name": "A#5",
                    "midi": 82,
                    "time": 280.42215599999156,
                    "velocity": 0.5748031496062992,
                    "duration": 0.21537799999998697
                },
                {
                    "name": "F5",
                    "midi": 77,
                    "time": 280.42215599999156,
                    "velocity": 0.5748031496062992,
                    "duration": 0.10768899999999348
                },
                {
                    "name": "F#5",
                    "midi": 78,
                    "time": 280.52984499999155,
                    "velocity": 0.5354330708661418,
                    "duration": 0.10768899999999348
                },
                {
                    "name": "F5",
                    "midi": 77,
                    "time": 280.63753399999155,
                    "velocity": 0.5590551181102362,
                    "duration": 0.10768899999999348
                },
                {
                    "name": "D#5",
                    "midi": 75,
                    "time": 280.74522299999154,
                    "velocity": 0.5511811023622047,
                    "duration": 0.10768899999999348
                },
                {
                    "name": "C#5",
                    "midi": 73,
                    "time": 280.85291199999153,
                    "velocity": 0.5748031496062992,
                    "duration": 0.10768899999999348
                },
                {
                    "name": "D#5",
                    "midi": 75,
                    "time": 280.9606009999915,
                    "velocity": 0.5669291338582677,
                    "duration": 0.10768899999999348
                },
                {
                    "name": "C#5",
                    "midi": 73,
                    "time": 281.0682899999915,
                    "velocity": 0.5826771653543307,
                    "duration": 0.10768899999999348
                },
                {
                    "name": "C5",
                    "midi": 72,
                    "time": 281.1759789999915,
                    "velocity": 0.5826771653543307,
                    "duration": 0.10768899999999348
                },
                {
                    "name": "A#5",
                    "midi": 82,
                    "time": 281.2836679999915,
                    "velocity": 0.6929133858267716,
                    "duration": 0.21537799999998697
                },
                {
                    "name": "A#4",
                    "midi": 70,
                    "time": 281.2836679999915,
                    "velocity": 0.5748031496062992,
                    "duration": 0.10768899999999348
                },
                {
                    "name": "C5",
                    "midi": 72,
                    "time": 281.3913569999915,
                    "velocity": 0.5748031496062992,
                    "duration": 0.10768899999999348
                },
                {
                    "name": "C#5",
                    "midi": 73,
                    "time": 281.4990459999915,
                    "velocity": 0.5826771653543307,
                    "duration": 0.10768899999999348
                },
                {
                    "name": "A#4",
                    "midi": 70,
                    "time": 281.6067349999915,
                    "velocity": 0.5748031496062992,
                    "duration": 0.10768899999999348
                },
                {
                    "name": "B4",
                    "midi": 71,
                    "time": 281.7144239999915,
                    "velocity": 0.6929133858267716,
                    "duration": 0.10768899999999348
                },
                {
                    "name": "B5",
                    "midi": 83,
                    "time": 281.7144239999915,
                    "velocity": 0.6929133858267716,
                    "duration": 0.10768899999999348
                },
                {
                    "name": "F#5",
                    "midi": 78,
                    "time": 281.8221129999915,
                    "velocity": 0.5826771653543307,
                    "duration": 0.10768899999999348
                },
                {
                    "name": "B5",
                    "midi": 83,
                    "time": 281.92980199999147,
                    "velocity": 0.5984251968503937,
                    "duration": 0.10768899999999348
                },
                {
                    "name": "D#6",
                    "midi": 87,
                    "time": 282.03749099999146,
                    "velocity": 0.6141732283464567,
                    "duration": 0.10768899999999348
                },
                {
                    "name": "F#6",
                    "midi": 90,
                    "time": 282.14517999999146,
                    "velocity": 0.6299212598425197,
                    "duration": 0.10768899999999348
                },
                {
                    "name": "G#6",
                    "midi": 92,
                    "time": 282.25286899999145,
                    "velocity": 0.5984251968503937,
                    "duration": 0.10768899999999348
                },
                {
                    "name": "F#6",
                    "midi": 90,
                    "time": 282.36055799999144,
                    "velocity": 0.5984251968503937,
                    "duration": 0.10768899999999348
                },
                {
                    "name": "F6",
                    "midi": 89,
                    "time": 282.46824699999144,
                    "velocity": 0.5984251968503937,
                    "duration": 0.10768899999999348
                },
                {
                    "name": "D#6",
                    "midi": 87,
                    "time": 282.57593599999143,
                    "velocity": 0.6062992125984252,
                    "duration": 0.10768899999999348
                },
                {
                    "name": "F6",
                    "midi": 89,
                    "time": 282.6836249999914,
                    "velocity": 0.5590551181102362,
                    "duration": 0.10768899999999348
                },
                {
                    "name": "D#6",
                    "midi": 87,
                    "time": 282.7913139999914,
                    "velocity": 0.5669291338582677,
                    "duration": 0.10768899999999348
                },
                {
                    "name": "C#6",
                    "midi": 85,
                    "time": 282.8990029999914,
                    "velocity": 0.5669291338582677,
                    "duration": 0.10768899999999348
                },
                {
                    "name": "B5",
                    "midi": 83,
                    "time": 283.0066919999914,
                    "velocity": 0.6141732283464567,
                    "duration": 0.10768899999999348
                },
                {
                    "name": "C#6",
                    "midi": 85,
                    "time": 283.1143809999914,
                    "velocity": 0.5748031496062992,
                    "duration": 0.10768899999999348
                },
                {
                    "name": "B5",
                    "midi": 83,
                    "time": 283.2220699999914,
                    "velocity": 0.5748031496062992,
                    "duration": 0.10768899999999348
                },
                {
                    "name": "A#5",
                    "midi": 82,
                    "time": 283.3297589999914,
                    "velocity": 0.5669291338582677,
                    "duration": 0.10768899999999348
                },
                {
                    "name": "A5",
                    "midi": 81,
                    "time": 283.4374479999914,
                    "velocity": 0.6062992125984252,
                    "duration": 0.10768899999999348
                },
                {
                    "name": "C6",
                    "midi": 84,
                    "time": 283.54513699999137,
                    "velocity": 0.5590551181102362,
                    "duration": 0.10768899999999348
                },
                {
                    "name": "D#6",
                    "midi": 87,
                    "time": 283.65282599999136,
                    "velocity": 0.5669291338582677,
                    "duration": 0.10768899999999348
                },
                {
                    "name": "C#6",
                    "midi": 85,
                    "time": 283.76051499999136,
                    "velocity": 0.5669291338582677,
                    "duration": 0.10768899999999348
                },
                {
                    "name": "C6",
                    "midi": 84,
                    "time": 283.86820399999135,
                    "velocity": 0.6141732283464567,
                    "duration": 0.10768899999999348
                },
                {
                    "name": "C#6",
                    "midi": 85,
                    "time": 283.97589299999134,
                    "velocity": 0.5748031496062992,
                    "duration": 0.10768899999999348
                },
                {
                    "name": "C6",
                    "midi": 84,
                    "time": 284.08358199999134,
                    "velocity": 0.5748031496062992,
                    "duration": 0.10768899999999348
                },
                {
                    "name": "A#5",
                    "midi": 82,
                    "time": 284.19127099999133,
                    "velocity": 0.5669291338582677,
                    "duration": 0.10768899999999348
                },
                {
                    "name": "A5",
                    "midi": 81,
                    "time": 284.2989599999913,
                    "velocity": 0.6062992125984252,
                    "duration": 0.10768899999999348
                },
                {
                    "name": "A#5",
                    "midi": 82,
                    "time": 284.4066489999913,
                    "velocity": 0.5590551181102362,
                    "duration": 0.10768899999999348
                },
                {
                    "name": "A5",
                    "midi": 81,
                    "time": 284.5143379999913,
                    "velocity": 0.5669291338582677,
                    "duration": 0.10768899999999348
                },
                {
                    "name": "F#5",
                    "midi": 78,
                    "time": 284.6220269999913,
                    "velocity": 0.5669291338582677,
                    "duration": 0.10768899999999348
                },
                {
                    "name": "F5",
                    "midi": 77,
                    "time": 284.7297159999913,
                    "velocity": 0.5826771653543307,
                    "duration": 0.10768899999999348
                },
                {
                    "name": "D#5",
                    "midi": 75,
                    "time": 284.8374049999913,
                    "velocity": 0.5590551181102362,
                    "duration": 0.10768899999999348
                },
                {
                    "name": "C#5",
                    "midi": 73,
                    "time": 284.9450939999913,
                    "velocity": 0.5590551181102362,
                    "duration": 0.10768899999999348
                },
                {
                    "name": "C5",
                    "midi": 72,
                    "time": 285.0527829999913,
                    "velocity": 0.5433070866141733,
                    "duration": 0.10768899999999348
                },
                {
                    "name": "A#4",
                    "midi": 70,
                    "time": 285.1604719999913,
                    "velocity": 0.5748031496062992,
                    "duration": 0.10768899999999348
                },
                {
                    "name": "F5",
                    "midi": 77,
                    "time": 285.37584999999126,
                    "velocity": 0.5826771653543307,
                    "duration": 0.43075599999997394
                },
                {
                    "name": "F5",
                    "midi": 77,
                    "time": 285.80660599999123,
                    "velocity": 0.48031496062992124,
                    "duration": 0.10768899999999348
                },
                {
                    "name": "F5",
                    "midi": 77,
                    "time": 286.0219839999912,
                    "velocity": 0.48031496062992124,
                    "duration": 0.10768899999999348
                },
                {
                    "name": "F#5",
                    "midi": 78,
                    "time": 286.2373619999912,
                    "velocity": 0.5669291338582677,
                    "duration": 0.43075599999997394
                },
                {
                    "name": "F#5",
                    "midi": 78,
                    "time": 286.6681179999912,
                    "velocity": 0.47244094488188976,
                    "duration": 0.10768899999999348
                },
                {
                    "name": "F#5",
                    "midi": 78,
                    "time": 286.88349599999117,
                    "velocity": 0.4645669291338583,
                    "duration": 0.10768899999999348
                },
                {
                    "name": "F5",
                    "midi": 77,
                    "time": 287.09887399999116,
                    "velocity": 0.5748031496062992,
                    "duration": 0.43075599999997394
                },
                {
                    "name": "F5",
                    "midi": 77,
                    "time": 287.52962999999113,
                    "velocity": 0.49606299212598426,
                    "duration": 0.10768899999999348
                },
                {
                    "name": "F5",
                    "midi": 77,
                    "time": 287.7450079999911,
                    "velocity": 0.5118110236220472,
                    "duration": 0.10768899999999348
                },
                {
                    "name": "C5",
                    "midi": 72,
                    "time": 287.9603859999911,
                    "velocity": 0.48031496062992124,
                    "duration": 0.10768899999999348
                },
                {
                    "name": "C#5",
                    "midi": 73,
                    "time": 288.1757639999911,
                    "velocity": 0.48031496062992124,
                    "duration": 0.10768899999999348
                },
                {
                    "name": "D#5",
                    "midi": 75,
                    "time": 288.3911419999911,
                    "velocity": 0.48031496062992124,
                    "duration": 0.10768899999999348
                },
                {
                    "name": "C#5",
                    "midi": 73,
                    "time": 288.60651999999106,
                    "velocity": 0.5118110236220472,
                    "duration": 0.10768899999999348
                },
                {
                    "name": "F6",
                    "midi": 89,
                    "time": 288.82189799999105,
                    "velocity": 0.6299212598425197,
                    "duration": 0.43075599999997394
                },
                {
                    "name": "F5",
                    "midi": 77,
                    "time": 288.82189799999105,
                    "velocity": 0.5748031496062992,
                    "duration": 0.43075599999997394
                },
                {
                    "name": "F6",
                    "midi": 89,
                    "time": 289.252653999991,
                    "velocity": 0.5826771653543307,
                    "duration": 0.10768899999999348
                },
                {
                    "name": "F5",
                    "midi": 77,
                    "time": 289.252653999991,
                    "velocity": 0.5354330708661418,
                    "duration": 0.10768899999999348
                },
                {
                    "name": "F6",
                    "midi": 89,
                    "time": 289.468031999991,
                    "velocity": 0.5826771653543307,
                    "duration": 0.10768899999999348
                },
                {
                    "name": "F5",
                    "midi": 77,
                    "time": 289.468031999991,
                    "velocity": 0.5354330708661418,
                    "duration": 0.10768899999999348
                },
                {
                    "name": "F#6",
                    "midi": 90,
                    "time": 289.683409999991,
                    "velocity": 0.6377952755905512,
                    "duration": 0.43075599999997394
                },
                {
                    "name": "F#5",
                    "midi": 78,
                    "time": 289.683409999991,
                    "velocity": 0.5826771653543307,
                    "duration": 0.43075599999997394
                },
                {
                    "name": "F#6",
                    "midi": 90,
                    "time": 290.114165999991,
                    "velocity": 0.5748031496062992,
                    "duration": 0.10768899999999348
                },
                {
                    "name": "F#5",
                    "midi": 78,
                    "time": 290.114165999991,
                    "velocity": 0.5275590551181102,
                    "duration": 0.10768899999999348
                },
                {
                    "name": "F#6",
                    "midi": 90,
                    "time": 290.32954399999096,
                    "velocity": 0.5669291338582677,
                    "duration": 0.10768899999999348
                },
                {
                    "name": "F#5",
                    "midi": 78,
                    "time": 290.32954399999096,
                    "velocity": 0.5196850393700787,
                    "duration": 0.10768899999999348
                },
                {
                    "name": "F6",
                    "midi": 89,
                    "time": 290.54492199999095,
                    "velocity": 0.6456692913385826,
                    "duration": 0.43075599999997394
                },
                {
                    "name": "F5",
                    "midi": 77,
                    "time": 290.54492199999095,
                    "velocity": 0.5905511811023622,
                    "duration": 0.43075599999997394
                },
                {
                    "name": "F6",
                    "midi": 89,
                    "time": 290.9756779999909,
                    "velocity": 0.6062992125984252,
                    "duration": 0.10768899999999348
                },
                {
                    "name": "F5",
                    "midi": 77,
                    "time": 290.9756779999909,
                    "velocity": 0.5511811023622047,
                    "duration": 0.10768899999999348
                },
                {
                    "name": "F6",
                    "midi": 89,
                    "time": 291.1910559999909,
                    "velocity": 0.6299212598425197,
                    "duration": 0.10768899999999348
                },
                {
                    "name": "F5",
                    "midi": 77,
                    "time": 291.1910559999909,
                    "velocity": 0.5748031496062992,
                    "duration": 0.10768899999999348
                },
                {
                    "name": "C6",
                    "midi": 84,
                    "time": 291.4064339999909,
                    "velocity": 0.5826771653543307,
                    "duration": 0.10768899999999348
                },
                {
                    "name": "C5",
                    "midi": 72,
                    "time": 291.4064339999909,
                    "velocity": 0.5354330708661418,
                    "duration": 0.10768899999999348
                },
                {
                    "name": "C#6",
                    "midi": 85,
                    "time": 291.6218119999909,
                    "velocity": 0.5826771653543307,
                    "duration": 0.10768899999999348
                },
                {
                    "name": "C#5",
                    "midi": 73,
                    "time": 291.6218119999909,
                    "velocity": 0.5354330708661418,
                    "duration": 0.10768899999999348
                },
                {
                    "name": "D#6",
                    "midi": 87,
                    "time": 291.83718999999087,
                    "velocity": 0.5826771653543307,
                    "duration": 0.10768899999999348
                },
                {
                    "name": "D#5",
                    "midi": 75,
                    "time": 291.83718999999087,
                    "velocity": 0.5354330708661418,
                    "duration": 0.10768899999999348
                },
                {
                    "name": "C#6",
                    "midi": 85,
                    "time": 292.05256799999086,
                    "velocity": 0.6299212598425197,
                    "duration": 0.10768899999999348
                },
                {
                    "name": "C#5",
                    "midi": 73,
                    "time": 292.05256799999086,
                    "velocity": 0.5748031496062992,
                    "duration": 0.10768899999999348
                },
                {
                    "name": "C5",
                    "midi": 72,
                    "time": 292.26794599999084,
                    "velocity": 0.5669291338582677,
                    "duration": 0.43075599999997394
                },
                {
                    "name": "C5",
                    "midi": 72,
                    "time": 292.6987019999908,
                    "velocity": 0.48031496062992124,
                    "duration": 0.10768899999999348
                },
                {
                    "name": "C5",
                    "midi": 72,
                    "time": 292.9140799999908,
                    "velocity": 0.48031496062992124,
                    "duration": 0.10768899999999348
                },
                {
                    "name": "B4",
                    "midi": 71,
                    "time": 293.1294579999908,
                    "velocity": 0.5669291338582677,
                    "duration": 0.43075599999997394
                },
                {
                    "name": "B4",
                    "midi": 71,
                    "time": 293.56021399999076,
                    "velocity": 0.47244094488188976,
                    "duration": 0.10768899999999348
                },
                {
                    "name": "B4",
                    "midi": 71,
                    "time": 293.77559199999075,
                    "velocity": 0.4645669291338583,
                    "duration": 0.10768899999999348
                },
                {
                    "name": "C5",
                    "midi": 72,
                    "time": 293.99096999999074,
                    "velocity": 0.5590551181102362,
                    "duration": 0.43075599999997394
                },
                {
                    "name": "C5",
                    "midi": 72,
                    "time": 294.4217259999907,
                    "velocity": 0.49606299212598426,
                    "duration": 0.10768899999999348
                },
                {
                    "name": "C5",
                    "midi": 72,
                    "time": 294.6371039999907,
                    "velocity": 0.5118110236220472,
                    "duration": 0.10768899999999348
                },
                {
                    "name": "G4",
                    "midi": 67,
                    "time": 294.8524819999907,
                    "velocity": 0.48031496062992124,
                    "duration": 0.10768899999999348
                },
                {
                    "name": "G#4",
                    "midi": 68,
                    "time": 295.0678599999907,
                    "velocity": 0.48031496062992124,
                    "duration": 0.10768899999999348
                },
                {
                    "name": "A#4",
                    "midi": 70,
                    "time": 295.28323799999066,
                    "velocity": 0.48031496062992124,
                    "duration": 0.10768899999999348
                },
                {
                    "name": "G#4",
                    "midi": 68,
                    "time": 295.49861599999065,
                    "velocity": 0.5118110236220472,
                    "duration": 0.10768899999999348
                },
                {
                    "name": "C6",
                    "midi": 84,
                    "time": 295.71399399999063,
                    "velocity": 0.6299212598425197,
                    "duration": 0.43075599999997394
                },
                {
                    "name": "C5",
                    "midi": 72,
                    "time": 295.71399399999063,
                    "velocity": 0.5748031496062992,
                    "duration": 0.43075599999997394
                },
                {
                    "name": "C6",
                    "midi": 84,
                    "time": 296.1447499999906,
                    "velocity": 0.5826771653543307,
                    "duration": 0.10768899999999348
                },
                {
                    "name": "C5",
                    "midi": 72,
                    "time": 296.1447499999906,
                    "velocity": 0.5354330708661418,
                    "duration": 0.10768899999999348
                },
                {
                    "name": "C6",
                    "midi": 84,
                    "time": 296.3601279999906,
                    "velocity": 0.5826771653543307,
                    "duration": 0.10768899999999348
                },
                {
                    "name": "C5",
                    "midi": 72,
                    "time": 296.3601279999906,
                    "velocity": 0.5354330708661418,
                    "duration": 0.10768899999999348
                },
                {
                    "name": "B5",
                    "midi": 83,
                    "time": 296.5755059999906,
                    "velocity": 0.6377952755905512,
                    "duration": 0.43075599999997394
                },
                {
                    "name": "B4",
                    "midi": 71,
                    "time": 296.5755059999906,
                    "velocity": 0.5826771653543307,
                    "duration": 0.43075599999997394
                },
                {
                    "name": "B5",
                    "midi": 83,
                    "time": 297.00626199999056,
                    "velocity": 0.5748031496062992,
                    "duration": 0.10768899999999348
                },
                {
                    "name": "B4",
                    "midi": 71,
                    "time": 297.00626199999056,
                    "velocity": 0.5275590551181102,
                    "duration": 0.10768899999999348
                },
                {
                    "name": "B5",
                    "midi": 83,
                    "time": 297.22163999999054,
                    "velocity": 0.5669291338582677,
                    "duration": 0.10768899999999348
                },
                {
                    "name": "B4",
                    "midi": 71,
                    "time": 297.22163999999054,
                    "velocity": 0.5196850393700787,
                    "duration": 0.10768899999999348
                },
                {
                    "name": "C6",
                    "midi": 84,
                    "time": 297.43701799999053,
                    "velocity": 0.6456692913385826,
                    "duration": 0.43075599999997394
                },
                {
                    "name": "C5",
                    "midi": 72,
                    "time": 297.43701799999053,
                    "velocity": 0.5905511811023622,
                    "duration": 0.43075599999997394
                },
                {
                    "name": "C6",
                    "midi": 84,
                    "time": 297.8677739999905,
                    "velocity": 0.6062992125984252,
                    "duration": 0.10768899999999348
                },
                {
                    "name": "C5",
                    "midi": 72,
                    "time": 297.8677739999905,
                    "velocity": 0.5511811023622047,
                    "duration": 0.10768899999999348
                },
                {
                    "name": "C6",
                    "midi": 84,
                    "time": 298.0831519999905,
                    "velocity": 0.6299212598425197,
                    "duration": 0.10768899999999348
                },
                {
                    "name": "C5",
                    "midi": 72,
                    "time": 298.0831519999905,
                    "velocity": 0.5748031496062992,
                    "duration": 0.10768899999999348
                },
                {
                    "name": "G5",
                    "midi": 79,
                    "time": 298.2985299999905,
                    "velocity": 0.5826771653543307,
                    "duration": 0.10768899999999348
                },
                {
                    "name": "G4",
                    "midi": 67,
                    "time": 298.2985299999905,
                    "velocity": 0.5354330708661418,
                    "duration": 0.10768899999999348
                },
                {
                    "name": "G#5",
                    "midi": 80,
                    "time": 298.51390799999047,
                    "velocity": 0.5826771653543307,
                    "duration": 0.10768899999999348
                },
                {
                    "name": "G#4",
                    "midi": 68,
                    "time": 298.51390799999047,
                    "velocity": 0.5354330708661418,
                    "duration": 0.10768899999999348
                },
                {
                    "name": "A#5",
                    "midi": 82,
                    "time": 298.72928599999045,
                    "velocity": 0.5826771653543307,
                    "duration": 0.10768899999999348
                },
                {
                    "name": "A#4",
                    "midi": 70,
                    "time": 298.72928599999045,
                    "velocity": 0.5354330708661418,
                    "duration": 0.10768899999999348
                },
                {
                    "name": "G#5",
                    "midi": 80,
                    "time": 298.94466399999044,
                    "velocity": 0.6299212598425197,
                    "duration": 0.10768899999999348
                },
                {
                    "name": "G#4",
                    "midi": 68,
                    "time": 298.94466399999044,
                    "velocity": 0.5748031496062992,
                    "duration": 0.10768899999999348
                },
                {
                    "name": "C4",
                    "midi": 60,
                    "time": 299.05235299999043,
                    "velocity": 0.5511811023622047,
                    "duration": 0.10768899999999348
                },
                {
                    "name": "F4",
                    "midi": 65,
                    "time": 299.1600419999904,
                    "velocity": 0.5669291338582677,
                    "duration": 0.10768899999999348
                },
                {
                    "name": "G#4",
                    "midi": 68,
                    "time": 299.2677309999904,
                    "velocity": 0.5826771653543307,
                    "duration": 0.10768899999999348
                },
                {
                    "name": "C5",
                    "midi": 72,
                    "time": 299.3754199999904,
                    "velocity": 0.5984251968503937,
                    "duration": 0.10768899999999348
                },
                {
                    "name": "C#5",
                    "midi": 73,
                    "time": 299.4831089999904,
                    "velocity": 0.5669291338582677,
                    "duration": 0.10768899999999348
                },
                {
                    "name": "C5",
                    "midi": 72,
                    "time": 299.5907979999904,
                    "velocity": 0.5669291338582677,
                    "duration": 0.10768899999999348
                },
                {
                    "name": "A#4",
                    "midi": 70,
                    "time": 299.6984869999904,
                    "velocity": 0.5669291338582677,
                    "duration": 0.10768899999999348
                },
                {
                    "name": "G#4",
                    "midi": 68,
                    "time": 299.8061759999904,
                    "velocity": 0.5748031496062992,
                    "duration": 0.10768899999999348
                },
                {
                    "name": "A#4",
                    "midi": 70,
                    "time": 299.9138649999904,
                    "velocity": 0.5275590551181102,
                    "duration": 0.10768899999999348
                },
                {
                    "name": "G#4",
                    "midi": 68,
                    "time": 300.0215539999904,
                    "velocity": 0.5433070866141733,
                    "duration": 0.10768899999999348
                },
                {
                    "name": "G4",
                    "midi": 67,
                    "time": 300.12924299999037,
                    "velocity": 0.5433070866141733,
                    "duration": 0.10768899999999348
                },
                {
                    "name": "F4",
                    "midi": 65,
                    "time": 300.23693199999036,
                    "velocity": 0.5905511811023622,
                    "duration": 0.10768899999999348
                },
                {
                    "name": "G4",
                    "midi": 67,
                    "time": 300.34462099999035,
                    "velocity": 0.5511811023622047,
                    "duration": 0.10768899999999348
                },
                {
                    "name": "G#4",
                    "midi": 68,
                    "time": 300.45230999999035,
                    "velocity": 0.5511811023622047,
                    "duration": 0.10768899999999348
                },
                {
                    "name": "F4",
                    "midi": 65,
                    "time": 300.55999899999034,
                    "velocity": 0.5511811023622047,
                    "duration": 0.10768899999999348
                },
                {
                    "name": "F#4",
                    "midi": 66,
                    "time": 300.66768799999033,
                    "velocity": 0.5905511811023622,
                    "duration": 0.10768899999999348
                },
                {
                    "name": "C#4",
                    "midi": 61,
                    "time": 300.7753769999903,
                    "velocity": 0.5669291338582677,
                    "duration": 0.10768899999999348
                },
                {
                    "name": "F#4",
                    "midi": 66,
                    "time": 300.8830659999903,
                    "velocity": 0.5826771653543307,
                    "duration": 0.10768899999999348
                },
                {
                    "name": "A#4",
                    "midi": 70,
                    "time": 300.9907549999903,
                    "velocity": 0.5984251968503937,
                    "duration": 0.10768899999999348
                },
                {
                    "name": "C#5",
                    "midi": 73,
                    "time": 301.0984439999903,
                    "velocity": 0.6141732283464567,
                    "duration": 0.10768899999999348
                },
                {
                    "name": "D#5",
                    "midi": 75,
                    "time": 301.2061329999903,
                    "velocity": 0.5905511811023622,
                    "duration": 0.10768899999999348
                },
                {
                    "name": "C#5",
                    "midi": 73,
                    "time": 301.3138219999903,
                    "velocity": 0.5905511811023622,
                    "duration": 0.10768899999999348
                },
                {
                    "name": "C5",
                    "midi": 72,
                    "time": 301.4215109999903,
                    "velocity": 0.5905511811023622,
                    "duration": 0.10768899999999348
                },
                {
                    "name": "A#4",
                    "midi": 70,
                    "time": 301.5291999999903,
                    "velocity": 0.5984251968503937,
                    "duration": 0.10768899999999348
                },
                {
                    "name": "C5",
                    "midi": 72,
                    "time": 301.6368889999903,
                    "velocity": 0.5511811023622047,
                    "duration": 0.10768899999999348
                },
                {
                    "name": "A#4",
                    "midi": 70,
                    "time": 301.74457799999027,
                    "velocity": 0.5590551181102362,
                    "duration": 0.10768899999999348
                },
                {
                    "name": "G#4",
                    "midi": 68,
                    "time": 301.85226699999026,
                    "velocity": 0.5590551181102362,
                    "duration": 0.10768899999999348
                },
                {
                    "name": "F#4",
                    "midi": 66,
                    "time": 301.95995599999026,
                    "velocity": 0.5984251968503937,
                    "duration": 0.10768899999999348
                },
                {
                    "name": "G#4",
                    "midi": 68,
                    "time": 302.06764499999025,
                    "velocity": 0.5748031496062992,
                    "duration": 0.10768899999999348
                },
                {
                    "name": "A#4",
                    "midi": 70,
                    "time": 302.17533399999024,
                    "velocity": 0.5748031496062992,
                    "duration": 0.10768899999999348
                },
                {
                    "name": "F#4",
                    "midi": 66,
                    "time": 302.28302299999024,
                    "velocity": 0.5669291338582677,
                    "duration": 0.10768899999999348
                },
                {
                    "name": "A4",
                    "midi": 69,
                    "time": 302.39071199999023,
                    "velocity": 0.6062992125984252,
                    "duration": 0.10768899999999348
                },
                {
                    "name": "D#4",
                    "midi": 63,
                    "time": 302.4984009999902,
                    "velocity": 0.5826771653543307,
                    "duration": 0.10768899999999348
                },
                {
                    "name": "A4",
                    "midi": 69,
                    "time": 302.6060899999902,
                    "velocity": 0.5984251968503937,
                    "duration": 0.10768899999999348
                },
                {
                    "name": "C5",
                    "midi": 72,
                    "time": 302.7137789999902,
                    "velocity": 0.6141732283464567,
                    "duration": 0.10768899999999348
                },
                {
                    "name": "D#5",
                    "midi": 75,
                    "time": 302.8214679999902,
                    "velocity": 0.6299212598425197,
                    "duration": 0.10768899999999348
                },
                {
                    "name": "F5",
                    "midi": 77,
                    "time": 302.9291569999902,
                    "velocity": 0.5984251968503937,
                    "duration": 0.10768899999999348
                },
                {
                    "name": "D#5",
                    "midi": 75,
                    "time": 303.0368459999902,
                    "velocity": 0.5984251968503937,
                    "duration": 0.10768899999999348
                },
                {
                    "name": "C#5",
                    "midi": 73,
                    "time": 303.1445349999902,
                    "velocity": 0.6062992125984252,
                    "duration": 0.10768899999999348
                },
                {
                    "name": "C5",
                    "midi": 72,
                    "time": 303.2522239999902,
                    "velocity": 0.6141732283464567,
                    "duration": 0.10768899999999348
                },
                {
                    "name": "C#5",
                    "midi": 73,
                    "time": 303.3599129999902,
                    "velocity": 0.5669291338582677,
                    "duration": 0.10768899999999348
                },
                {
                    "name": "C5",
                    "midi": 72,
                    "time": 303.46760199999017,
                    "velocity": 0.5748031496062992,
                    "duration": 0.10768899999999348
                },
                {
                    "name": "A#4",
                    "midi": 70,
                    "time": 303.57529099999016,
                    "velocity": 0.5748031496062992,
                    "duration": 0.10768899999999348
                },
                {
                    "name": "A4",
                    "midi": 69,
                    "time": 303.68297999999015,
                    "velocity": 0.6299212598425197,
                    "duration": 0.10768899999999348
                },
                {
                    "name": "A#4",
                    "midi": 70,
                    "time": 303.79066899999015,
                    "velocity": 0.5905511811023622,
                    "duration": 0.10768899999999348
                },
                {
                    "name": "C5",
                    "midi": 72,
                    "time": 303.89835799999014,
                    "velocity": 0.5905511811023622,
                    "duration": 0.10768899999999348
                },
                {
                    "name": "A4",
                    "midi": 69,
                    "time": 304.00604699999013,
                    "velocity": 0.5826771653543307,
                    "duration": 0.10768899999999348
                },
                {
                    "name": "A#4",
                    "midi": 70,
                    "time": 304.1137359999901,
                    "velocity": 0.7086614173228346,
                    "duration": 0.10768899999999348
                },
                {
                    "name": "F4",
                    "midi": 65,
                    "time": 304.2214249999901,
                    "velocity": 0.5984251968503937,
                    "duration": 0.10768899999999348
                },
                {
                    "name": "A#4",
                    "midi": 70,
                    "time": 304.3291139999901,
                    "velocity": 0.6220472440944882,
                    "duration": 0.10768899999999348
                },
                {
                    "name": "C#5",
                    "midi": 73,
                    "time": 304.4368029999901,
                    "velocity": 0.6456692913385826,
                    "duration": 0.10768899999999348
                },
                {
                    "name": "F5",
                    "midi": 77,
                    "time": 304.5444919999901,
                    "velocity": 0.6535433070866141,
                    "duration": 0.10768899999999348
                },
                {
                    "name": "F#5",
                    "midi": 78,
                    "time": 304.6521809999901,
                    "velocity": 0.6535433070866141,
                    "duration": 0.10768899999999348
                },
                {
                    "name": "F5",
                    "midi": 77,
                    "time": 304.7598699999901,
                    "velocity": 0.6456692913385826,
                    "duration": 0.10768899999999348
                },
                {
                    "name": "D#5",
                    "midi": 75,
                    "time": 304.8675589999901,
                    "velocity": 0.6456692913385826,
                    "duration": 0.10768899999999348
                },
                {
                    "name": "C#5",
                    "midi": 73,
                    "time": 304.9752479999901,
                    "velocity": 0.6377952755905512,
                    "duration": 0.10768899999999348
                },
                {
                    "name": "C5",
                    "midi": 72,
                    "time": 305.08293699999007,
                    "velocity": 0.6377952755905512,
                    "duration": 0.10768899999999348
                },
                {
                    "name": "A#4",
                    "midi": 70,
                    "time": 305.19062599999006,
                    "velocity": 0.6299212598425197,
                    "duration": 0.10768899999999348
                },
                {
                    "name": "G#4",
                    "midi": 68,
                    "time": 305.29831499999005,
                    "velocity": 0.6299212598425197,
                    "duration": 0.10768899999999348
                },
                {
                    "name": "F#4",
                    "midi": 66,
                    "time": 305.40600399999005,
                    "velocity": 0.6220472440944882,
                    "duration": 0.10768899999999348
                },
                {
                    "name": "F4",
                    "midi": 65,
                    "time": 305.51369299999004,
                    "velocity": 0.6220472440944882,
                    "duration": 0.10768899999999348
                },
                {
                    "name": "D#4",
                    "midi": 63,
                    "time": 305.62138199999004,
                    "velocity": 0.6141732283464567,
                    "duration": 0.10768899999999348
                },
                {
                    "name": "C#4",
                    "midi": 61,
                    "time": 305.72907099999003,
                    "velocity": 0.6141732283464567,
                    "duration": 0.10768899999999348
                },
                {
                    "name": "C4",
                    "midi": 60,
                    "time": 305.83675999999,
                    "velocity": 0.6062992125984252,
                    "duration": 0.10768899999999348
                },
                {
                    "name": "A#3",
                    "midi": 58,
                    "time": 305.94444899999,
                    "velocity": 0.6062992125984252,
                    "duration": 0.10768899999999348
                },
                {
                    "name": "G#3",
                    "midi": 56,
                    "time": 306.05213799999,
                    "velocity": 0.5984251968503937,
                    "duration": 0.10768899999999348
                },
                {
                    "name": "F#3",
                    "midi": 54,
                    "time": 306.15982699999,
                    "velocity": 0.5984251968503937,
                    "duration": 0.10768899999999348
                },
                {
                    "name": "F3",
                    "midi": 53,
                    "time": 306.26751599999,
                    "velocity": 0.5748031496062992,
                    "duration": 0.10768899999999348
                },
                {
                    "name": "D#3",
                    "midi": 51,
                    "time": 306.37520499999,
                    "velocity": 0.5748031496062992,
                    "duration": 0.10768899999999348
                },
                {
                    "name": "C#3",
                    "midi": 49,
                    "time": 306.48289399999,
                    "velocity": 0.5826771653543307,
                    "duration": 0.10768899999999348
                },
                {
                    "name": "C3",
                    "midi": 48,
                    "time": 306.59058299999,
                    "velocity": 0.5984251968503937,
                    "duration": 0.10768899999999348
                },
                {
                    "name": "A#2",
                    "midi": 46,
                    "time": 306.69827199998997,
                    "velocity": 0.6141732283464567,
                    "duration": 0.10768899999999348
                },
                {
                    "name": "C3",
                    "midi": 48,
                    "time": 306.80596099998996,
                    "velocity": 0.6220472440944882,
                    "duration": 0.10768899999999348
                },
                {
                    "name": "C#3",
                    "midi": 49,
                    "time": 306.91364999998996,
                    "velocity": 0.6377952755905512,
                    "duration": 0.10768899999999348
                },
                {
                    "name": "A#2",
                    "midi": 46,
                    "time": 307.02133899998995,
                    "velocity": 0.6456692913385826,
                    "duration": 0.10768899999999348
                },
                {
                    "name": "A#2",
                    "midi": 46,
                    "time": 307.12902799998994,
                    "velocity": 0.6456692913385826,
                    "duration": 0.21537799999998697
                },
                {
                    "name": "B2",
                    "midi": 47,
                    "time": 307.34440599998993,
                    "velocity": 0.6062992125984252,
                    "duration": 0.21537799999998697
                },
                {
                    "name": "D3",
                    "midi": 50,
                    "time": 307.34440599998993,
                    "velocity": 0.6062992125984252,
                    "duration": 0.21537799999998697
                },
                {
                    "name": "F3",
                    "midi": 53,
                    "time": 307.34440599998993,
                    "velocity": 0.6062992125984252,
                    "duration": 0.21537799999998697
                },
                {
                    "name": "G#3",
                    "midi": 56,
                    "time": 307.34440599998993,
                    "velocity": 0.7086614173228346,
                    "duration": 0.21537799999998697
                },
                {
                    "name": "C3",
                    "midi": 48,
                    "time": 307.5597839999899,
                    "velocity": 0.6456692913385826,
                    "duration": 0.10768899999999348
                },
                {
                    "name": "E3",
                    "midi": 52,
                    "time": 307.5597839999899,
                    "velocity": 0.6456692913385826,
                    "duration": 0.10768899999999348
                },
                {
                    "name": "G3",
                    "midi": 55,
                    "time": 307.5597839999899,
                    "velocity": 0.7716535433070866,
                    "duration": 0.10768899999999348
                },
                {
                    "name": "C3",
                    "midi": 48,
                    "time": 307.6674729999899,
                    "velocity": 0.5196850393700787,
                    "duration": 0.10768899999999348
                },
                {
                    "name": "C4",
                    "midi": 60,
                    "time": 307.6674729999899,
                    "velocity": 0.5196850393700787,
                    "duration": 0.10768899999999348
                },
                {
                    "name": "C4",
                    "midi": 60,
                    "time": 307.8828509999899,
                    "velocity": 0.5196850393700787,
                    "duration": 0.10768899999999348
                },
                {
                    "name": "C3",
                    "midi": 48,
                    "time": 307.8828509999899,
                    "velocity": 0.5196850393700787,
                    "duration": 0.10768899999999348
                },
                {
                    "name": "C4",
                    "midi": 60,
                    "time": 308.0982289999899,
                    "velocity": 0.5196850393700787,
                    "duration": 0.10768899999999348
                },
                {
                    "name": "C3",
                    "midi": 48,
                    "time": 308.0982289999899,
                    "velocity": 0.5196850393700787,
                    "duration": 0.10768899999999348
                },
                {
                    "name": "C4",
                    "midi": 60,
                    "time": 308.3136069999899,
                    "velocity": 0.5196850393700787,
                    "duration": 0.10768899999999348
                },
                {
                    "name": "C3",
                    "midi": 48,
                    "time": 308.3136069999899,
                    "velocity": 0.5196850393700787,
                    "duration": 0.10768899999999348
                },
                {
                    "name": "C4",
                    "midi": 60,
                    "time": 308.52898499998986,
                    "velocity": 0.5196850393700787,
                    "duration": 0.10768899999999348
                },
                {
                    "name": "C3",
                    "midi": 48,
                    "time": 308.52898499998986,
                    "velocity": 0.5196850393700787,
                    "duration": 0.10768899999999348
                },
                {
                    "name": "C4",
                    "midi": 60,
                    "time": 308.74436299998985,
                    "velocity": 0.5196850393700787,
                    "duration": 0.10768899999999348
                },
                {
                    "name": "C3",
                    "midi": 48,
                    "time": 308.74436299998985,
                    "velocity": 0.5196850393700787,
                    "duration": 0.10768899999999348
                },
                {
                    "name": "C4",
                    "midi": 60,
                    "time": 308.95974099998983,
                    "velocity": 0.5196850393700787,
                    "duration": 0.10768899999999348
                },
                {
                    "name": "C3",
                    "midi": 48,
                    "time": 308.95974099998983,
                    "velocity": 0.5196850393700787,
                    "duration": 0.10768899999999348
                },
                {
                    "name": "C4",
                    "midi": 60,
                    "time": 309.1751189999898,
                    "velocity": 0.5196850393700787,
                    "duration": 0.10768899999999348
                },
                {
                    "name": "C3",
                    "midi": 48,
                    "time": 309.1751189999898,
                    "velocity": 0.5196850393700787,
                    "duration": 0.10768899999999348
                },
                {
                    "name": "C4",
                    "midi": 60,
                    "time": 309.3904969999898,
                    "velocity": 0.5039370078740157,
                    "duration": 0.10768899999999348
                },
                {
                    "name": "C5",
                    "midi": 72,
                    "time": 309.3904969999898,
                    "velocity": 0.5039370078740157,
                    "duration": 0.10768899999999348
                },
                {
                    "name": "C4",
                    "midi": 60,
                    "time": 309.6058749999898,
                    "velocity": 0.5039370078740157,
                    "duration": 0.10768899999999348
                },
                {
                    "name": "C5",
                    "midi": 72,
                    "time": 309.6058749999898,
                    "velocity": 0.5039370078740157,
                    "duration": 0.10768899999999348
                },
                {
                    "name": "C4",
                    "midi": 60,
                    "time": 309.8212529999898,
                    "velocity": 0.5118110236220472,
                    "duration": 0.10768899999999348
                },
                {
                    "name": "C5",
                    "midi": 72,
                    "time": 309.8212529999898,
                    "velocity": 0.5118110236220472,
                    "duration": 0.10768899999999348
                },
                {
                    "name": "C4",
                    "midi": 60,
                    "time": 310.03663099998977,
                    "velocity": 0.5196850393700787,
                    "duration": 0.10768899999999348
                },
                {
                    "name": "C5",
                    "midi": 72,
                    "time": 310.03663099998977,
                    "velocity": 0.5196850393700787,
                    "duration": 0.10768899999999348
                },
                {
                    "name": "C4",
                    "midi": 60,
                    "time": 310.25200899998976,
                    "velocity": 0.5039370078740157,
                    "duration": 0.10768899999999348
                },
                {
                    "name": "C5",
                    "midi": 72,
                    "time": 310.25200899998976,
                    "velocity": 0.5039370078740157,
                    "duration": 0.10768899999999348
                },
                {
                    "name": "C4",
                    "midi": 60,
                    "time": 310.46738699998974,
                    "velocity": 0.5039370078740157,
                    "duration": 0.10768899999999348
                },
                {
                    "name": "C5",
                    "midi": 72,
                    "time": 310.46738699998974,
                    "velocity": 0.5039370078740157,
                    "duration": 0.10768899999999348
                },
                {
                    "name": "C4",
                    "midi": 60,
                    "time": 310.68276499998973,
                    "velocity": 0.5118110236220472,
                    "duration": 0.10768899999999348
                },
                {
                    "name": "C5",
                    "midi": 72,
                    "time": 310.68276499998973,
                    "velocity": 0.5118110236220472,
                    "duration": 0.10768899999999348
                },
                {
                    "name": "C4",
                    "midi": 60,
                    "time": 310.8981429999897,
                    "velocity": 0.5196850393700787,
                    "duration": 0.10768899999999348
                },
                {
                    "name": "C5",
                    "midi": 72,
                    "time": 310.8981429999897,
                    "velocity": 0.5196850393700787,
                    "duration": 0.10768899999999348
                },
                {
                    "name": "C5",
                    "midi": 72,
                    "time": 311.1135209999897,
                    "velocity": 0.5275590551181102,
                    "duration": 0.10768899999999348
                },
                {
                    "name": "C6",
                    "midi": 84,
                    "time": 311.1135209999897,
                    "velocity": 0.5275590551181102,
                    "duration": 0.10768899999999348
                },
                {
                    "name": "C5",
                    "midi": 72,
                    "time": 311.3288989999897,
                    "velocity": 0.5354330708661418,
                    "duration": 0.10768899999999348
                },
                {
                    "name": "C6",
                    "midi": 84,
                    "time": 311.3288989999897,
                    "velocity": 0.5354330708661418,
                    "duration": 0.10768899999999348
                },
                {
                    "name": "C5",
                    "midi": 72,
                    "time": 311.5442769999897,
                    "velocity": 0.5433070866141733,
                    "duration": 0.10768899999999348
                },
                {
                    "name": "C6",
                    "midi": 84,
                    "time": 311.5442769999897,
                    "velocity": 0.5433070866141733,
                    "duration": 0.10768899999999348
                },
                {
                    "name": "C5",
                    "midi": 72,
                    "time": 311.75965499998966,
                    "velocity": 0.5511811023622047,
                    "duration": 0.10768899999999348
                },
                {
                    "name": "C6",
                    "midi": 84,
                    "time": 311.75965499998966,
                    "velocity": 0.5511811023622047,
                    "duration": 0.10768899999999348
                },
                {
                    "name": "C5",
                    "midi": 72,
                    "time": 311.97503299998965,
                    "velocity": 0.5590551181102362,
                    "duration": 0.10768899999999348
                },
                {
                    "name": "C6",
                    "midi": 84,
                    "time": 311.97503299998965,
                    "velocity": 0.5590551181102362,
                    "duration": 0.10768899999999348
                },
                {
                    "name": "C5",
                    "midi": 72,
                    "time": 312.19041099998964,
                    "velocity": 0.5669291338582677,
                    "duration": 0.10768899999999348
                },
                {
                    "name": "C6",
                    "midi": 84,
                    "time": 312.19041099998964,
                    "velocity": 0.5669291338582677,
                    "duration": 0.10768899999999348
                },
                {
                    "name": "C5",
                    "midi": 72,
                    "time": 312.4057889999896,
                    "velocity": 0.5748031496062992,
                    "duration": 0.10768899999999348
                },
                {
                    "name": "C6",
                    "midi": 84,
                    "time": 312.4057889999896,
                    "velocity": 0.5748031496062992,
                    "duration": 0.10768899999999348
                },
                {
                    "name": "C5",
                    "midi": 72,
                    "time": 312.6211669999896,
                    "velocity": 0.5826771653543307,
                    "duration": 0.10768899999999348
                },
                {
                    "name": "C6",
                    "midi": 84,
                    "time": 312.6211669999896,
                    "velocity": 0.5826771653543307,
                    "duration": 0.10768899999999348
                },
                {
                    "name": "C6",
                    "midi": 84,
                    "time": 312.8365449999896,
                    "velocity": 0.5905511811023622,
                    "duration": 0.10768899999999348
                },
                {
                    "name": "C7",
                    "midi": 96,
                    "time": 312.8365449999896,
                    "velocity": 0.5905511811023622,
                    "duration": 0.10768899999999348
                },
                {
                    "name": "C6",
                    "midi": 84,
                    "time": 313.0519229999896,
                    "velocity": 0.5984251968503937,
                    "duration": 0.10768899999999348
                },
                {
                    "name": "C7",
                    "midi": 96,
                    "time": 313.0519229999896,
                    "velocity": 0.5984251968503937,
                    "duration": 0.10768899999999348
                },
                {
                    "name": "C6",
                    "midi": 84,
                    "time": 313.2673009999896,
                    "velocity": 0.6141732283464567,
                    "duration": 0.10768899999999348
                },
                {
                    "name": "C7",
                    "midi": 96,
                    "time": 313.2673009999896,
                    "velocity": 0.6141732283464567,
                    "duration": 0.10768899999999348
                },
                {
                    "name": "C6",
                    "midi": 84,
                    "time": 313.48267899998956,
                    "velocity": 0.6377952755905512,
                    "duration": 0.10768899999999348
                },
                {
                    "name": "C7",
                    "midi": 96,
                    "time": 313.48267899998956,
                    "velocity": 0.6377952755905512,
                    "duration": 0.10768899999999348
                },
                {
                    "name": "C6",
                    "midi": 84,
                    "time": 313.69805699998955,
                    "velocity": 0.6456692913385826,
                    "duration": 0.10768899999999348
                },
                {
                    "name": "C7",
                    "midi": 96,
                    "time": 313.69805699998955,
                    "velocity": 0.6456692913385826,
                    "duration": 0.10768899999999348
                },
                {
                    "name": "C6",
                    "midi": 84,
                    "time": 313.91343499998953,
                    "velocity": 0.6614173228346457,
                    "duration": 0.10768899999999348
                },
                {
                    "name": "C7",
                    "midi": 96,
                    "time": 313.91343499998953,
                    "velocity": 0.6614173228346457,
                    "duration": 0.10768899999999348
                },
                {
                    "name": "C6",
                    "midi": 84,
                    "time": 314.1288129999895,
                    "velocity": 0.6771653543307087,
                    "duration": 0.10768899999999348
                },
                {
                    "name": "C7",
                    "midi": 96,
                    "time": 314.1288129999895,
                    "velocity": 0.6771653543307087,
                    "duration": 0.10768899999999348
                },
                {
                    "name": "C6",
                    "midi": 84,
                    "time": 314.3441909999895,
                    "velocity": 0.6929133858267716,
                    "duration": 0.10768899999999348
                },
                {
                    "name": "C7",
                    "midi": 96,
                    "time": 314.3441909999895,
                    "velocity": 0.6929133858267716,
                    "duration": 0.10768899999999348
                },
                {
                    "name": "C#4",
                    "midi": 61,
                    "time": 315.4210809999895,
                    "velocity": 0.5669291338582677,
                    "duration": 0.10768899999999348
                },
                {
                    "name": "F#4",
                    "midi": 66,
                    "time": 315.5287699999895,
                    "velocity": 0.5905511811023622,
                    "duration": 0.10768899999999348
                },
                {
                    "name": "A#4",
                    "midi": 70,
                    "time": 315.6364589999895,
                    "velocity": 0.5984251968503937,
                    "duration": 0.10768899999999348
                },
                {
                    "name": "C#5",
                    "midi": 73,
                    "time": 315.7441479999895,
                    "velocity": 0.6929133858267716,
                    "duration": 0.10768899999999348
                },
                {
                    "name": "C#5",
                    "midi": 73,
                    "time": 316.28259299998945,
                    "velocity": 0.6062992125984252,
                    "duration": 0.10768899999999348
                },
                {
                    "name": "F#5",
                    "midi": 78,
                    "time": 316.39028199998944,
                    "velocity": 0.6220472440944882,
                    "duration": 0.10768899999999348
                },
                {
                    "name": "A#5",
                    "midi": 82,
                    "time": 316.49797099998943,
                    "velocity": 0.6377952755905512,
                    "duration": 0.10768899999999348
                },
                {
                    "name": "C#6",
                    "midi": 85,
                    "time": 316.6056599999894,
                    "velocity": 0.7007874015748031,
                    "duration": 0.21537799999998697
                },
                {
                    "name": "E4",
                    "midi": 64,
                    "time": 318.32868399998944,
                    "velocity": 0.7007874015748031,
                    "duration": 0.10768899999999348
                },
                {
                    "name": "E4",
                    "midi": 64,
                    "time": 318.8671289999894,
                    "velocity": 0.5669291338582677,
                    "duration": 0.10768899999999348
                },
                {
                    "name": "G4",
                    "midi": 67,
                    "time": 318.9748179999894,
                    "velocity": 0.5905511811023622,
                    "duration": 0.10768899999999348
                },
                {
                    "name": "A#4",
                    "midi": 70,
                    "time": 319.0825069999894,
                    "velocity": 0.5984251968503937,
                    "duration": 0.10768899999999348
                },
                {
                    "name": "E5",
                    "midi": 76,
                    "time": 319.1901959999894,
                    "velocity": 0.6850393700787402,
                    "duration": 0.10768899999999348
                },
                {
                    "name": "E5",
                    "midi": 76,
                    "time": 319.72864099998935,
                    "velocity": 0.6062992125984252,
                    "duration": 0.10768899999999348
                },
                {
                    "name": "G5",
                    "midi": 79,
                    "time": 319.83632999998935,
                    "velocity": 0.6220472440944882,
                    "duration": 0.10768899999999348
                },
                {
                    "name": "A#5",
                    "midi": 82,
                    "time": 319.94401899998934,
                    "velocity": 0.6377952755905512,
                    "duration": 0.10768899999999348
                },
                {
                    "name": "E6",
                    "midi": 88,
                    "time": 320.05170799998933,
                    "velocity": 0.7322834645669292,
                    "duration": 0.21537799999998697
                },
                {
                    "name": "C#4",
                    "midi": 61,
                    "time": 321.99010999998933,
                    "velocity": 0.4015748031496063,
                    "duration": 0.10768899999999348
                },
                {
                    "name": "E4",
                    "midi": 64,
                    "time": 322.0977989999893,
                    "velocity": 0.41732283464566927,
                    "duration": 0.10768899999999348
                },
                {
                    "name": "G4",
                    "midi": 67,
                    "time": 322.2054879999893,
                    "velocity": 0.4251968503937008,
                    "duration": 0.21537799999998697
                },
                {
                    "name": "A#3",
                    "midi": 58,
                    "time": 323.4977559999893,
                    "velocity": 0.3700787401574803,
                    "duration": 0.10768899999999348
                },
                {
                    "name": "C#4",
                    "midi": 61,
                    "time": 323.6054449999893,
                    "velocity": 0.4015748031496063,
                    "duration": 0.10768899999999348
                },
                {
                    "name": "E4",
                    "midi": 64,
                    "time": 323.7131339999893,
                    "velocity": 0.3779527559055118,
                    "duration": 0.10768899999999348
                },
                {
                    "name": "G4",
                    "midi": 67,
                    "time": 323.8208229999893,
                    "velocity": 0.3937007874015748,
                    "duration": 0.10768899999999348
                },
                {
                    "name": "A#4",
                    "midi": 70,
                    "time": 323.92851199998927,
                    "velocity": 0.4015748031496063,
                    "duration": 0.21537799999998697
                },
                {
                    "name": "C#4",
                    "midi": 61,
                    "time": 325.22077999998925,
                    "velocity": 0.3464566929133858,
                    "duration": 0.10768899999999348
                },
                {
                    "name": "E4",
                    "midi": 64,
                    "time": 325.32846899998924,
                    "velocity": 0.3779527559055118,
                    "duration": 0.10768899999999348
                },
                {
                    "name": "G4",
                    "midi": 67,
                    "time": 325.43615799998923,
                    "velocity": 0.3543307086614173,
                    "duration": 0.10768899999999348
                },
                {
                    "name": "A#4",
                    "midi": 70,
                    "time": 325.5438469999892,
                    "velocity": 0.3700787401574803,
                    "duration": 0.10768899999999348
                },
                {
                    "name": "C#5",
                    "midi": 73,
                    "time": 325.6515359999892,
                    "velocity": 0.3779527559055118,
                    "duration": 0.21537799999998697
                },
                {
                    "name": "E4",
                    "midi": 64,
                    "time": 326.9438039999892,
                    "velocity": 0.3228346456692913,
                    "duration": 0.10768899999999348
                },
                {
                    "name": "G4",
                    "midi": 67,
                    "time": 327.0514929999892,
                    "velocity": 0.3543307086614173,
                    "duration": 0.10768899999999348
                },
                {
                    "name": "A#4",
                    "midi": 70,
                    "time": 327.1591819999892,
                    "velocity": 0.33070866141732286,
                    "duration": 0.10768899999999348
                },
                {
                    "name": "C#5",
                    "midi": 73,
                    "time": 327.2668709999892,
                    "velocity": 0.3464566929133858,
                    "duration": 0.10768899999999348
                },
                {
                    "name": "E5",
                    "midi": 76,
                    "time": 327.3745599999892,
                    "velocity": 0.3543307086614173,
                    "duration": 0.21537799999998697
                },
                {
                    "name": "C#4",
                    "midi": 61,
                    "time": 329.0975839999892,
                    "velocity": 0.2755905511811024,
                    "duration": 0.21537799999998697
                },
                {
                    "name": "E4",
                    "midi": 64,
                    "time": 329.31296199998917,
                    "velocity": 0.28346456692913385,
                    "duration": 0.21537799999998697
                },
                {
                    "name": "G4",
                    "midi": 67,
                    "time": 329.52833999998916,
                    "velocity": 0.29133858267716534,
                    "duration": 0.21537799999998697
                },
                {
                    "name": "A#4",
                    "midi": 70,
                    "time": 329.74371799998914,
                    "velocity": 0.2992125984251969,
                    "duration": 0.21537799999998697
                },
                {
                    "name": "C#5",
                    "midi": 73,
                    "time": 329.95909599998913,
                    "velocity": 0.30708661417322836,
                    "duration": 0.21537799999998697
                },
                {
                    "name": "E5",
                    "midi": 76,
                    "time": 330.1744739999891,
                    "velocity": 0.31496062992125984,
                    "duration": 0.21537799999998697
                },
                {
                    "name": "G5",
                    "midi": 79,
                    "time": 330.3898519999891,
                    "velocity": 0.31496062992125984,
                    "duration": 0.21537799999998697
                },
                {
                    "name": "A#5",
                    "midi": 82,
                    "time": 330.6052299999891,
                    "velocity": 0.3228346456692913,
                    "duration": 0.21537799999998697
                },
                {
                    "name": "C#6",
                    "midi": 85,
                    "time": 330.8206079999891,
                    "velocity": 0.33070866141732286,
                    "duration": 0.21537799999998697
                },
                {
                    "name": "E6",
                    "midi": 88,
                    "time": 331.03598599998907,
                    "velocity": 0.33858267716535434,
                    "duration": 0.21537799999998697
                },
                {
                    "name": "G6",
                    "midi": 91,
                    "time": 331.25136399998905,
                    "velocity": 0.3464566929133858,
                    "duration": 0.21537799999998697
                },
                {
                    "name": "A#6",
                    "midi": 94,
                    "time": 331.46674199998904,
                    "velocity": 0.36220472440944884,
                    "duration": 0.21537799999998697
                },
                {
                    "name": "G6",
                    "midi": 91,
                    "time": 331.682119999989,
                    "velocity": 0.36220472440944884,
                    "duration": 0.21537799999998697
                },
                {
                    "name": "E6",
                    "midi": 88,
                    "time": 331.897497999989,
                    "velocity": 0.3543307086614173,
                    "duration": 0.21537799999998697
                },
                {
                    "name": "C#6",
                    "midi": 85,
                    "time": 332.112875999989,
                    "velocity": 0.3543307086614173,
                    "duration": 0.21537799999998697
                },
                {
                    "name": "A#5",
                    "midi": 82,
                    "time": 332.328253999989,
                    "velocity": 0.3464566929133858,
                    "duration": 0.21537799999998697
                },
                {
                    "name": "G5",
                    "midi": 79,
                    "time": 332.543631999989,
                    "velocity": 0.3464566929133858,
                    "duration": 0.21537799999998697
                },
                {
                    "name": "E5",
                    "midi": 76,
                    "time": 332.75900999998896,
                    "velocity": 0.33858267716535434,
                    "duration": 0.21537799999998697
                },
                {
                    "name": "C#5",
                    "midi": 73,
                    "time": 332.97438799998895,
                    "velocity": 0.33858267716535434,
                    "duration": 0.21537799999998697
                },
                {
                    "name": "A#4",
                    "midi": 70,
                    "time": 333.18976599998894,
                    "velocity": 0.33070866141732286,
                    "duration": 0.21537799999998697
                },
                {
                    "name": "G4",
                    "midi": 67,
                    "time": 333.4051439999889,
                    "velocity": 0.33070866141732286,
                    "duration": 0.21537799999998697
                },
                {
                    "name": "E4",
                    "midi": 64,
                    "time": 333.6205219999889,
                    "velocity": 0.3228346456692913,
                    "duration": 0.21537799999998697
                },
                {
                    "name": "C#4",
                    "midi": 61,
                    "time": 333.8358999999889,
                    "velocity": 0.31496062992125984,
                    "duration": 0.21537799999998697
                },
                {
                    "name": "G3",
                    "midi": 55,
                    "time": 342.02026399998886,
                    "velocity": 0.2677165354330709,
                    "duration": 0.6461340000000177
                },
                {
                    "name": "A#3",
                    "midi": 58,
                    "time": 342.02026399998886,
                    "velocity": 0.2677165354330709,
                    "duration": 0.6461340000000177
                },
                {
                    "name": "C4",
                    "midi": 60,
                    "time": 342.02026399998886,
                    "velocity": 0.2677165354330709,
                    "duration": 0.6461340000000177
                },
                {
                    "name": "E4",
                    "midi": 64,
                    "time": 342.02026399998886,
                    "velocity": 0.2677165354330709,
                    "duration": 0.6461340000000177
                },
                {
                    "name": "G4",
                    "midi": 67,
                    "time": 342.88177599998886,
                    "velocity": 0.2677165354330709,
                    "duration": 0.6461340000000177
                },
                {
                    "name": "A#4",
                    "midi": 70,
                    "time": 342.88177599998886,
                    "velocity": 0.2677165354330709,
                    "duration": 0.6461340000000177
                },
                {
                    "name": "C5",
                    "midi": 72,
                    "time": 342.88177599998886,
                    "velocity": 0.2677165354330709,
                    "duration": 0.6461340000000177
                },
                {
                    "name": "E5",
                    "midi": 76,
                    "time": 342.88177599998886,
                    "velocity": 0.2677165354330709,
                    "duration": 0.6461340000000177
                },
                {
                    "name": "E6",
                    "midi": 88,
                    "time": 343.74328799998887,
                    "velocity": 0.2677165354330709,
                    "duration": 0.6461340000000177
                },
                {
                    "name": "C6",
                    "midi": 84,
                    "time": 343.74328799998887,
                    "velocity": 0.2677165354330709,
                    "duration": 0.6461340000000177
                },
                {
                    "name": "A#5",
                    "midi": 82,
                    "time": 343.74328799998887,
                    "velocity": 0.2677165354330709,
                    "duration": 0.6461340000000177
                },
                {
                    "name": "G5",
                    "midi": 79,
                    "time": 343.74328799998887,
                    "velocity": 0.2677165354330709,
                    "duration": 0.6461340000000177
                },
                {
                    "name": "C3",
                    "midi": 48,
                    "time": 345.57400099998887,
                    "velocity": 0.31496062992125984,
                    "duration": 0.10768899999999348
                },
                {
                    "name": "F3",
                    "midi": 53,
                    "time": 345.68168999998886,
                    "velocity": 0.29133858267716534,
                    "duration": 0.10768899999999348
                },
                {
                    "name": "G#3",
                    "midi": 56,
                    "time": 345.78937899998886,
                    "velocity": 0.29133858267716534,
                    "duration": 0.10768899999999348
                },
                {
                    "name": "C4",
                    "midi": 60,
                    "time": 345.89706799998885,
                    "velocity": 0.31496062992125984,
                    "duration": 0.10768899999999348
                },
                {
                    "name": "C#4",
                    "midi": 61,
                    "time": 346.00475699998884,
                    "velocity": 0.2992125984251969,
                    "duration": 0.10768899999999348
                },
                {
                    "name": "C4",
                    "midi": 60,
                    "time": 346.11244599998884,
                    "velocity": 0.2992125984251969,
                    "duration": 0.10768899999999348
                },
                {
                    "name": "A#3",
                    "midi": 58,
                    "time": 346.22013499998883,
                    "velocity": 0.2992125984251969,
                    "duration": 0.10768899999999348
                },
                {
                    "name": "G#3",
                    "midi": 56,
                    "time": 346.3278239999888,
                    "velocity": 0.31496062992125984,
                    "duration": 0.10768899999999348
                },
                {
                    "name": "A#3",
                    "midi": 58,
                    "time": 346.4355129999888,
                    "velocity": 0.29133858267716534,
                    "duration": 0.10768899999999348
                },
                {
                    "name": "G#3",
                    "midi": 56,
                    "time": 346.5432019999888,
                    "velocity": 0.29133858267716534,
                    "duration": 0.10768899999999348
                },
                {
                    "name": "G3",
                    "midi": 55,
                    "time": 346.6508909999888,
                    "velocity": 0.29133858267716534,
                    "duration": 0.10768899999999348
                },
                {
                    "name": "F3",
                    "midi": 53,
                    "time": 346.7585799999888,
                    "velocity": 0.31496062992125984,
                    "duration": 0.10768899999999348
                },
                {
                    "name": "G3",
                    "midi": 55,
                    "time": 346.8662689999888,
                    "velocity": 0.29133858267716534,
                    "duration": 0.10768899999999348
                },
                {
                    "name": "G#3",
                    "midi": 56,
                    "time": 346.9739579999888,
                    "velocity": 0.29133858267716534,
                    "duration": 0.10768899999999348
                },
                {
                    "name": "F3",
                    "midi": 53,
                    "time": 347.0816469999888,
                    "velocity": 0.29133858267716534,
                    "duration": 0.10768899999999348
                },
                {
                    "name": "C3",
                    "midi": 48,
                    "time": 347.29702499998876,
                    "velocity": 0.31496062992125984,
                    "duration": 0.10768899999999348
                },
                {
                    "name": "F3",
                    "midi": 53,
                    "time": 347.40471399998876,
                    "velocity": 0.29133858267716534,
                    "duration": 0.10768899999999348
                },
                {
                    "name": "G#3",
                    "midi": 56,
                    "time": 347.51240299998875,
                    "velocity": 0.29133858267716534,
                    "duration": 0.10768899999999348
                },
                {
                    "name": "C4",
                    "midi": 60,
                    "time": 347.62009199998874,
                    "velocity": 0.31496062992125984,
                    "duration": 0.10768899999999348
                },
                {
                    "name": "C#4",
                    "midi": 61,
                    "time": 347.72778099998874,
                    "velocity": 0.2992125984251969,
                    "duration": 0.10768899999999348
                },
                {
                    "name": "C4",
                    "midi": 60,
                    "time": 347.83546999998873,
                    "velocity": 0.2992125984251969,
                    "duration": 0.10768899999999348
                },
                {
                    "name": "A#3",
                    "midi": 58,
                    "time": 347.9431589999887,
                    "velocity": 0.2992125984251969,
                    "duration": 0.10768899999999348
                },
                {
                    "name": "G#3",
                    "midi": 56,
                    "time": 348.0508479999887,
                    "velocity": 0.31496062992125984,
                    "duration": 0.10768899999999348
                },
                {
                    "name": "A#3",
                    "midi": 58,
                    "time": 348.1585369999887,
                    "velocity": 0.29133858267716534,
                    "duration": 0.10768899999999348
                },
                {
                    "name": "G#3",
                    "midi": 56,
                    "time": 348.2662259999887,
                    "velocity": 0.29133858267716534,
                    "duration": 0.10768899999999348
                },
                {
                    "name": "G3",
                    "midi": 55,
                    "time": 348.3739149999887,
                    "velocity": 0.29133858267716534,
                    "duration": 0.10768899999999348
                },
                {
                    "name": "F3",
                    "midi": 53,
                    "time": 348.4816039999887,
                    "velocity": 0.31496062992125984,
                    "duration": 0.10768899999999348
                },
                {
                    "name": "G3",
                    "midi": 55,
                    "time": 348.5892929999887,
                    "velocity": 0.29133858267716534,
                    "duration": 0.10768899999999348
                },
                {
                    "name": "G#3",
                    "midi": 56,
                    "time": 348.6969819999887,
                    "velocity": 0.29133858267716534,
                    "duration": 0.10768899999999348
                },
                {
                    "name": "F3",
                    "midi": 53,
                    "time": 348.8046709999887,
                    "velocity": 0.29133858267716534,
                    "duration": 0.10768899999999348
                },
                {
                    "name": "C#3",
                    "midi": 49,
                    "time": 349.02004899998866,
                    "velocity": 0.3464566929133858,
                    "duration": 0.10768899999999348
                },
                {
                    "name": "F#3",
                    "midi": 54,
                    "time": 349.12773799998865,
                    "velocity": 0.31496062992125984,
                    "duration": 0.10768899999999348
                },
                {
                    "name": "A#3",
                    "midi": 58,
                    "time": 349.23542699998865,
                    "velocity": 0.31496062992125984,
                    "duration": 0.10768899999999348
                },
                {
                    "name": "C#4",
                    "midi": 61,
                    "time": 349.34311599998864,
                    "velocity": 0.3464566929133858,
                    "duration": 0.10768899999999348
                },
                {
                    "name": "D#4",
                    "midi": 63,
                    "time": 349.45080499998863,
                    "velocity": 0.3228346456692913,
                    "duration": 0.10768899999999348
                },
                {
                    "name": "C#4",
                    "midi": 61,
                    "time": 349.5584939999886,
                    "velocity": 0.3228346456692913,
                    "duration": 0.10768899999999348
                },
                {
                    "name": "C4",
                    "midi": 60,
                    "time": 349.6661829999886,
                    "velocity": 0.3228346456692913,
                    "duration": 0.10768899999999348
                },
                {
                    "name": "A#3",
                    "midi": 58,
                    "time": 349.7738719999886,
                    "velocity": 0.3464566929133858,
                    "duration": 0.10768899999999348
                },
                {
                    "name": "C4",
                    "midi": 60,
                    "time": 349.8815609999886,
                    "velocity": 0.31496062992125984,
                    "duration": 0.10768899999999348
                },
                {
                    "name": "A#3",
                    "midi": 58,
                    "time": 349.9892499999886,
                    "velocity": 0.31496062992125984,
                    "duration": 0.10768899999999348
                },
                {
                    "name": "G#3",
                    "midi": 56,
                    "time": 350.0969389999886,
                    "velocity": 0.31496062992125984,
                    "duration": 0.10768899999999348
                },
                {
                    "name": "F#3",
                    "midi": 54,
                    "time": 350.2046279999886,
                    "velocity": 0.3464566929133858,
                    "duration": 0.10768899999999348
                },
                {
                    "name": "G#3",
                    "midi": 56,
                    "time": 350.3123169999886,
                    "velocity": 0.31496062992125984,
                    "duration": 0.10768899999999348
                },
                {
                    "name": "F#3",
                    "midi": 54,
                    "time": 350.4200059999886,
                    "velocity": 0.31496062992125984,
                    "duration": 0.10768899999999348
                },
                {
                    "name": "F3",
                    "midi": 53,
                    "time": 350.52769499998857,
                    "velocity": 0.31496062992125984,
                    "duration": 0.10768899999999348
                },
                {
                    "name": "E3",
                    "midi": 52,
                    "time": 350.63538399998856,
                    "velocity": 0.3464566929133858,
                    "duration": 0.10768899999999348
                },
                {
                    "name": "F3",
                    "midi": 53,
                    "time": 350.74307299998856,
                    "velocity": 0.31496062992125984,
                    "duration": 0.10768899999999348
                },
                {
                    "name": "G3",
                    "midi": 55,
                    "time": 350.85076199998855,
                    "velocity": 0.31496062992125984,
                    "duration": 0.10768899999999348
                },
                {
                    "name": "E3",
                    "midi": 52,
                    "time": 350.95845099998854,
                    "velocity": 0.31496062992125984,
                    "duration": 0.10768899999999348
                },
                {
                    "name": "F3",
                    "midi": 53,
                    "time": 351.06613999998854,
                    "velocity": 0.3464566929133858,
                    "duration": 0.10768899999999348
                },
                {
                    "name": "G3",
                    "midi": 55,
                    "time": 351.17382899998853,
                    "velocity": 0.31496062992125984,
                    "duration": 0.10768899999999348
                },
                {
                    "name": "G#3",
                    "midi": 56,
                    "time": 351.2815179999885,
                    "velocity": 0.31496062992125984,
                    "duration": 0.10768899999999348
                },
                {
                    "name": "F3",
                    "midi": 53,
                    "time": 351.3892069999885,
                    "velocity": 0.31496062992125984,
                    "duration": 0.10768899999999348
                },
                {
                    "name": "G3",
                    "midi": 55,
                    "time": 351.4968959999885,
                    "velocity": 0.3464566929133858,
                    "duration": 0.10768899999999348
                },
                {
                    "name": "G#3",
                    "midi": 56,
                    "time": 351.6045849999885,
                    "velocity": 0.31496062992125984,
                    "duration": 0.10768899999999348
                },
                {
                    "name": "A#3",
                    "midi": 58,
                    "time": 351.7122739999885,
                    "velocity": 0.31496062992125984,
                    "duration": 0.10768899999999348
                },
                {
                    "name": "G3",
                    "midi": 55,
                    "time": 351.8199629999885,
                    "velocity": 0.31496062992125984,
                    "duration": 0.10768899999999348
                },
                {
                    "name": "E3",
                    "midi": 52,
                    "time": 351.9276519999885,
                    "velocity": 0.3464566929133858,
                    "duration": 0.10768899999999348
                },
                {
                    "name": "F3",
                    "midi": 53,
                    "time": 352.0353409999885,
                    "velocity": 0.29133858267716534,
                    "duration": 0.10768899999999348
                },
                {
                    "name": "G3",
                    "midi": 55,
                    "time": 352.14302999998847,
                    "velocity": 0.2992125984251969,
                    "duration": 0.10768899999999348
                },
                {
                    "name": "E3",
                    "midi": 52,
                    "time": 352.25071899998846,
                    "velocity": 0.31496062992125984,
                    "duration": 0.10768899999999348
                },
                {
                    "name": "F3",
                    "midi": 53,
                    "time": 352.35840799998846,
                    "velocity": 0.2992125984251969,
                    "duration": 0.43075599999997394
                },
                {
                    "name": "E4",
                    "midi": 64,
                    "time": 353.0045419999884,
                    "velocity": 0.44881889763779526,
                    "duration": 0.10768899999999348
                },
                {
                    "name": "F4",
                    "midi": 65,
                    "time": 353.2199199999884,
                    "velocity": 0.4881889763779528,
                    "duration": 0.10768899999999348
                },
                {
                    "name": "G4",
                    "midi": 67,
                    "time": 353.4352979999884,
                    "velocity": 0.44881889763779526,
                    "duration": 0.10768899999999348
                },
                {
                    "name": "G#4",
                    "midi": 68,
                    "time": 353.6506759999884,
                    "velocity": 0.4881889763779528,
                    "duration": 0.10768899999999348
                },
                {
                    "name": "F4",
                    "midi": 65,
                    "time": 353.86605399998837,
                    "velocity": 0.4645669291338583,
                    "duration": 0.10768899999999348
                },
                {
                    "name": "E5",
                    "midi": 76,
                    "time": 354.72756599998837,
                    "velocity": 0.47244094488188976,
                    "duration": 0.10768899999999348
                },
                {
                    "name": "E4",
                    "midi": 64,
                    "time": 354.72756599998837,
                    "velocity": 0.4094488188976378,
                    "duration": 0.10768899999999348
                },
                {
                    "name": "F5",
                    "midi": 77,
                    "time": 354.94294399998836,
                    "velocity": 0.5196850393700787,
                    "duration": 0.10768899999999348
                },
                {
                    "name": "F4",
                    "midi": 65,
                    "time": 354.94294399998836,
                    "velocity": 0.44881889763779526,
                    "duration": 0.10768899999999348
                },
                {
                    "name": "G4",
                    "midi": 67,
                    "time": 355.15832199998835,
                    "velocity": 0.41732283464566927,
                    "duration": 0.10768899999999348
                },
                {
                    "name": "G5",
                    "midi": 79,
                    "time": 355.15832199998835,
                    "velocity": 0.49606299212598426,
                    "duration": 0.10768899999999348
                },
                {
                    "name": "G#4",
                    "midi": 68,
                    "time": 355.37369999998833,
                    "velocity": 0.44881889763779526,
                    "duration": 0.10768899999999348
                },
                {
                    "name": "G#5",
                    "midi": 80,
                    "time": 355.37369999998833,
                    "velocity": 0.5354330708661418,
                    "duration": 0.10768899999999348
                },
                {
                    "name": "F4",
                    "midi": 65,
                    "time": 355.5890779999883,
                    "velocity": 0.41732283464566927,
                    "duration": 0.10768899999999348
                },
                {
                    "name": "F5",
                    "midi": 77,
                    "time": 355.5890779999883,
                    "velocity": 0.49606299212598426,
                    "duration": 0.10768899999999348
                },
                {
                    "name": "F4",
                    "midi": 65,
                    "time": 356.4505899999883,
                    "velocity": 0.4645669291338583,
                    "duration": 0.21537799999998697
                },
                {
                    "name": "F5",
                    "midi": 77,
                    "time": 356.4505899999883,
                    "velocity": 0.5590551181102362,
                    "duration": 0.21537799999998697
                },
                {
                    "name": "F#4",
                    "midi": 66,
                    "time": 356.6659679999883,
                    "velocity": 0.49606299212598426,
                    "duration": 0.21537799999998697
                },
                {
                    "name": "F#5",
                    "midi": 78,
                    "time": 356.6659679999883,
                    "velocity": 0.6062992125984252,
                    "duration": 0.21537799999998697
                },
                {
                    "name": "A#4",
                    "midi": 70,
                    "time": 356.8813459999883,
                    "velocity": 0.5196850393700787,
                    "duration": 0.21537799999998697
                },
                {
                    "name": "A#5",
                    "midi": 82,
                    "time": 356.8813459999883,
                    "velocity": 0.6220472440944882,
                    "duration": 0.21537799999998697
                },
                {
                    "name": "C#5",
                    "midi": 73,
                    "time": 357.0967239999883,
                    "velocity": 0.5433070866141733,
                    "duration": 0.10768899999999348
                },
                {
                    "name": "C#6",
                    "midi": 85,
                    "time": 357.0967239999883,
                    "velocity": 0.6377952755905512,
                    "duration": 0.10768899999999348
                },
                {
                    "name": "C#5",
                    "midi": 73,
                    "time": 357.3121019999883,
                    "velocity": 0.5196850393700787,
                    "duration": 0.10768899999999348
                },
                {
                    "name": "C#6",
                    "midi": 85,
                    "time": 357.3121019999883,
                    "velocity": 0.6220472440944882,
                    "duration": 0.10768899999999348
                },
                {
                    "name": "C#5",
                    "midi": 73,
                    "time": 357.52747999998826,
                    "velocity": 0.5590551181102362,
                    "duration": 0.43075599999997394
                },
                {
                    "name": "C#6",
                    "midi": 85,
                    "time": 357.52747999998826,
                    "velocity": 0.6535433070866141,
                    "duration": 0.43075599999997394
                },
                {
                    "name": "C6",
                    "midi": 84,
                    "time": 357.95823599998823,
                    "velocity": 0.6141732283464567,
                    "duration": 0.8615120000000047
                },
                {
                    "name": "C5",
                    "midi": 72,
                    "time": 357.95823599998823,
                    "velocity": 0.5039370078740157,
                    "duration": 0.8615120000000047
                },
                {
                    "name": "E4",
                    "midi": 64,
                    "time": 358.81974799998824,
                    "velocity": 0.5039370078740157,
                    "duration": 0.43075599999997394
                },
                {
                    "name": "E5",
                    "midi": 76,
                    "time": 358.81974799998824,
                    "velocity": 0.5039370078740157,
                    "duration": 0.43075599999997394
                },
                {
                    "name": "F5",
                    "midi": 77,
                    "time": 359.2505039999882,
                    "velocity": 0.44881889763779526,
                    "duration": 0.10768899999999348
                },
                {
                    "name": "F4",
                    "midi": 65,
                    "time": 359.2505039999882,
                    "velocity": 0.44881889763779526,
                    "duration": 0.10768899999999348
                },
                {
                    "name": "C4",
                    "midi": 60,
                    "time": 359.3581929999882,
                    "velocity": 0.3228346456692913,
                    "duration": 0.10768899999999348
                },
                {
                    "name": "F4",
                    "midi": 65,
                    "time": 359.4658819999882,
                    "velocity": 0.3464566929133858,
                    "duration": 0.10768899999999348
                },
                {
                    "name": "G#4",
                    "midi": 68,
                    "time": 359.5735709999882,
                    "velocity": 0.36220472440944884,
                    "duration": 0.10768899999999348
                },
                {
                    "name": "C5",
                    "midi": 72,
                    "time": 359.6812599999882,
                    "velocity": 0.33858267716535434,
                    "duration": 0.10768899999999348
                },
                {
                    "name": "C4",
                    "midi": 60,
                    "time": 359.7889489999882,
                    "velocity": 0.3543307086614173,
                    "duration": 0.10768899999999348
                },
                {
                    "name": "F4",
                    "midi": 65,
                    "time": 359.8966379999882,
                    "velocity": 0.36220472440944884,
                    "duration": 0.10768899999999348
                },
                {
                    "name": "G#4",
                    "midi": 68,
                    "time": 360.00432699998817,
                    "velocity": 0.3779527559055118,
                    "duration": 0.10768899999999348
                },
                {
                    "name": "C4",
                    "midi": 60,
                    "time": 360.21970499998815,
                    "velocity": 0.36220472440944884,
                    "duration": 0.10768899999999348
                },
                {
                    "name": "F4",
                    "midi": 65,
                    "time": 360.32739399998815,
                    "velocity": 0.3700787401574803,
                    "duration": 0.10768899999999348
                },
                {
                    "name": "G#4",
                    "midi": 68,
                    "time": 360.43508299998814,
                    "velocity": 0.3858267716535433,
                    "duration": 0.10768899999999348
                },
                {
                    "name": "C5",
                    "midi": 72,
                    "time": 360.54277199998813,
                    "velocity": 0.3937007874015748,
                    "duration": 0.10768899999999348
                },
                {
                    "name": "C4",
                    "midi": 60,
                    "time": 360.6504609999881,
                    "velocity": 0.4094488188976378,
                    "duration": 0.10768899999999348
                },
                {
                    "name": "F4",
                    "midi": 65,
                    "time": 360.7581499999881,
                    "velocity": 0.41732283464566927,
                    "duration": 0.10768899999999348
                },
                {
                    "name": "G#4",
                    "midi": 68,
                    "time": 360.8658389999881,
                    "velocity": 0.2992125984251969,
                    "duration": 0.10768899999999348
                },
                {
                    "name": "B3",
                    "midi": 59,
                    "time": 361.0812169999881,
                    "velocity": 0.4015748031496063,
                    "duration": 0.10768899999999348
                },
                {
                    "name": "D4",
                    "midi": 62,
                    "time": 361.1889059999881,
                    "velocity": 0.4094488188976378,
                    "duration": 0.10768899999999348
                },
                {
                    "name": "G#4",
                    "midi": 68,
                    "time": 361.2965949999881,
                    "velocity": 0.4094488188976378,
                    "duration": 0.10768899999999348
                },
                {
                    "name": "B4",
                    "midi": 71,
                    "time": 361.4042839999881,
                    "velocity": 0.4251968503937008,
                    "duration": 0.43075599999997394
                },
                {
                    "name": "B3",
                    "midi": 59,
                    "time": 361.5119729999881,
                    "velocity": 0.4094488188976378,
                    "duration": 0.10768899999999348
                },
                {
                    "name": "D4",
                    "midi": 62,
                    "time": 361.61966199998807,
                    "velocity": 0.4094488188976378,
                    "duration": 0.10768899999999348
                },
                {
                    "name": "G#4",
                    "midi": 68,
                    "time": 361.72735099998806,
                    "velocity": 0.4094488188976378,
                    "duration": 0.10768899999999348
                },
                {
                    "name": "B4",
                    "midi": 71,
                    "time": 361.83503999998806,
                    "velocity": 0.4251968503937008,
                    "duration": 0.43075599999997394
                },
                {
                    "name": "B3",
                    "midi": 59,
                    "time": 361.94272899998805,
                    "velocity": 0.4094488188976378,
                    "duration": 0.10768899999999348
                },
                {
                    "name": "E4",
                    "midi": 64,
                    "time": 362.05041799998804,
                    "velocity": 0.3937007874015748,
                    "duration": 0.10768899999999348
                },
                {
                    "name": "G4",
                    "midi": 67,
                    "time": 362.15810699998804,
                    "velocity": 0.3858267716535433,
                    "duration": 0.10768899999999348
                },
                {
                    "name": "C5",
                    "midi": 72,
                    "time": 362.26579599998803,
                    "velocity": 0.4094488188976378,
                    "duration": 0.43075599999997394
                },
                {
                    "name": "C4",
                    "midi": 60,
                    "time": 362.373484999988,
                    "velocity": 0.36220472440944884,
                    "duration": 0.10768899999999348
                },
                {
                    "name": "E4",
                    "midi": 64,
                    "time": 362.481173999988,
                    "velocity": 0.3464566929133858,
                    "duration": 0.10768899999999348
                },
                {
                    "name": "G4",
                    "midi": 67,
                    "time": 362.588862999988,
                    "velocity": 0.2992125984251969,
                    "duration": 0.10768899999999348
                },
                {
                    "name": "C4",
                    "midi": 60,
                    "time": 362.804240999988,
                    "velocity": 0.2992125984251969,
                    "duration": 0.10768899999999348
                },
                {
                    "name": "E4",
                    "midi": 64,
                    "time": 362.911929999988,
                    "velocity": 0.31496062992125984,
                    "duration": 0.10768899999999348
                },
                {
                    "name": "G4",
                    "midi": 67,
                    "time": 363.019618999988,
                    "velocity": 0.33070866141732286,
                    "duration": 0.10768899999999348
                },
                {
                    "name": "C5",
                    "midi": 72,
                    "time": 363.127307999988,
                    "velocity": 0.33858267716535434,
                    "duration": 0.10768899999999348
                },
                {
                    "name": "C4",
                    "midi": 60,
                    "time": 363.23499699998797,
                    "velocity": 0.3543307086614173,
                    "duration": 0.10768899999999348
                },
                {
                    "name": "E4",
                    "midi": 64,
                    "time": 363.34268599998796,
                    "velocity": 0.36220472440944884,
                    "duration": 0.10768899999999348
                },
                {
                    "name": "G4",
                    "midi": 67,
                    "time": 363.45037499998796,
                    "velocity": 0.3779527559055118,
                    "duration": 0.10768899999999348
                },
                {
                    "name": "C4",
                    "midi": 60,
                    "time": 363.66575299998794,
                    "velocity": 0.36220472440944884,
                    "duration": 0.10768899999999348
                },
                {
                    "name": "E4",
                    "midi": 64,
                    "time": 363.77344199998794,
                    "velocity": 0.3700787401574803,
                    "duration": 0.10768899999999348
                },
                {
                    "name": "G4",
                    "midi": 67,
                    "time": 363.88113099998793,
                    "velocity": 0.3858267716535433,
                    "duration": 0.10768899999999348
                },
                {
                    "name": "C5",
                    "midi": 72,
                    "time": 363.9888199999879,
                    "velocity": 0.3937007874015748,
                    "duration": 0.10768899999999348
                },
                {
                    "name": "C4",
                    "midi": 60,
                    "time": 364.0965089999879,
                    "velocity": 0.4094488188976378,
                    "duration": 0.10768899999999348
                },
                {
                    "name": "E4",
                    "midi": 64,
                    "time": 364.2041979999879,
                    "velocity": 0.41732283464566927,
                    "duration": 0.10768899999999348
                },
                {
                    "name": "G4",
                    "midi": 67,
                    "time": 364.3118869999879,
                    "velocity": 0.2992125984251969,
                    "duration": 0.10768899999999348
                },
                {
                    "name": "C4",
                    "midi": 60,
                    "time": 364.5272649999879,
                    "velocity": 0.4015748031496063,
                    "duration": 0.10768899999999348
                },
                {
                    "name": "E4",
                    "midi": 64,
                    "time": 364.6349539999879,
                    "velocity": 0.4094488188976378,
                    "duration": 0.10768899999999348
                },
                {
                    "name": "G4",
                    "midi": 67,
                    "time": 364.7426429999879,
                    "velocity": 0.4094488188976378,
                    "duration": 0.10768899999999348
                },
                {
                    "name": "C5",
                    "midi": 72,
                    "time": 364.8503319999879,
                    "velocity": 0.4251968503937008,
                    "duration": 0.43075599999997394
                },
                {
                    "name": "C4",
                    "midi": 60,
                    "time": 364.95802099998787,
                    "velocity": 0.4094488188976378,
                    "duration": 0.10768899999999348
                },
                {
                    "name": "E4",
                    "midi": 64,
                    "time": 365.06570999998786,
                    "velocity": 0.4094488188976378,
                    "duration": 0.10768899999999348
                },
                {
                    "name": "G4",
                    "midi": 67,
                    "time": 365.17339899998785,
                    "velocity": 0.4094488188976378,
                    "duration": 0.10768899999999348
                },
                {
                    "name": "C5",
                    "midi": 72,
                    "time": 365.28108799998785,
                    "velocity": 0.41732283464566927,
                    "duration": 0.43075599999997394
                },
                {
                    "name": "C4",
                    "midi": 60,
                    "time": 365.38877699998784,
                    "velocity": 0.4094488188976378,
                    "duration": 0.10768899999999348
                },
                {
                    "name": "E4",
                    "midi": 64,
                    "time": 365.49646599998783,
                    "velocity": 0.3937007874015748,
                    "duration": 0.10768899999999348
                },
                {
                    "name": "G4",
                    "midi": 67,
                    "time": 365.6041549999878,
                    "velocity": 0.3858267716535433,
                    "duration": 0.10768899999999348
                },
                {
                    "name": "C5",
                    "midi": 72,
                    "time": 365.7118439999878,
                    "velocity": 0.3700787401574803,
                    "duration": 0.43075599999997394
                },
                {
                    "name": "C4",
                    "midi": 60,
                    "time": 365.8195329999878,
                    "velocity": 0.36220472440944884,
                    "duration": 0.10768899999999348
                },
                {
                    "name": "F4",
                    "midi": 65,
                    "time": 365.9272219999878,
                    "velocity": 0.3464566929133858,
                    "duration": 0.10768899999999348
                },
                {
                    "name": "G#4",
                    "midi": 68,
                    "time": 366.0349109999878,
                    "velocity": 0.2992125984251969,
                    "duration": 0.10768899999999348
                },
                {
                    "name": "F4",
                    "midi": 65,
                    "time": 366.2502889999878,
                    "velocity": 0.2992125984251969,
                    "duration": 0.10768899999999348
                },
                {
                    "name": "A4",
                    "midi": 69,
                    "time": 366.3579779999878,
                    "velocity": 0.31496062992125984,
                    "duration": 0.10768899999999348
                },
                {
                    "name": "C5",
                    "midi": 72,
                    "time": 366.4656669999878,
                    "velocity": 0.33070866141732286,
                    "duration": 0.10768899999999348
                },
                {
                    "name": "F5",
                    "midi": 77,
                    "time": 366.57335599998777,
                    "velocity": 0.33858267716535434,
                    "duration": 0.10768899999999348
                },
                {
                    "name": "F4",
                    "midi": 65,
                    "time": 366.68104499998776,
                    "velocity": 0.3543307086614173,
                    "duration": 0.10768899999999348
                },
                {
                    "name": "A4",
                    "midi": 69,
                    "time": 366.78873399998776,
                    "velocity": 0.36220472440944884,
                    "duration": 0.10768899999999348
                },
                {
                    "name": "C5",
                    "midi": 72,
                    "time": 366.89642299998775,
                    "velocity": 0.3779527559055118,
                    "duration": 0.10768899999999348
                },
                {
                    "name": "F4",
                    "midi": 65,
                    "time": 367.11180099998774,
                    "velocity": 0.36220472440944884,
                    "duration": 0.10768899999999348
                },
                {
                    "name": "A4",
                    "midi": 69,
                    "time": 367.21948999998773,
                    "velocity": 0.3700787401574803,
                    "duration": 0.10768899999999348
                },
                {
                    "name": "C5",
                    "midi": 72,
                    "time": 367.3271789999877,
                    "velocity": 0.3858267716535433,
                    "duration": 0.10768899999999348
                },
                {
                    "name": "F5",
                    "midi": 77,
                    "time": 367.4348679999877,
                    "velocity": 0.3937007874015748,
                    "duration": 0.10768899999999348
                },
                {
                    "name": "F4",
                    "midi": 65,
                    "time": 367.5425569999877,
                    "velocity": 0.4094488188976378,
                    "duration": 0.10768899999999348
                },
                {
                    "name": "A4",
                    "midi": 69,
                    "time": 367.6502459999877,
                    "velocity": 0.41732283464566927,
                    "duration": 0.10768899999999348
                },
                {
                    "name": "C5",
                    "midi": 72,
                    "time": 367.7579349999877,
                    "velocity": 0.4251968503937008,
                    "duration": 0.10768899999999348
                },
                {
                    "name": "F4",
                    "midi": 65,
                    "time": 367.9733129999877,
                    "velocity": 0.3937007874015748,
                    "duration": 0.10768899999999348
                },
                {
                    "name": "A4",
                    "midi": 69,
                    "time": 368.0810019999877,
                    "velocity": 0.3937007874015748,
                    "duration": 0.10768899999999348
                },
                {
                    "name": "C5",
                    "midi": 72,
                    "time": 368.18869099998767,
                    "velocity": 0.3937007874015748,
                    "duration": 0.10768899999999348
                },
                {
                    "name": "F5",
                    "midi": 77,
                    "time": 368.29637999998766,
                    "velocity": 0.4330708661417323,
                    "duration": 0.43075599999997394
                },
                {
                    "name": "F4",
                    "midi": 65,
                    "time": 368.40406899998766,
                    "velocity": 0.41732283464566927,
                    "duration": 0.10768899999999348
                },
                {
                    "name": "A4",
                    "midi": 69,
                    "time": 368.51175799998765,
                    "velocity": 0.4094488188976378,
                    "duration": 0.10768899999999348
                },
                {
                    "name": "C5",
                    "midi": 72,
                    "time": 368.61944699998764,
                    "velocity": 0.4094488188976378,
                    "duration": 0.10768899999999348
                },
                {
                    "name": "A4",
                    "midi": 69,
                    "time": 368.72713599998764,
                    "velocity": 0.4251968503937008,
                    "duration": 0.10768899999999348
                },
                {
                    "name": "F4",
                    "midi": 65,
                    "time": 368.72713599998764,
                    "velocity": 0.4251968503937008,
                    "duration": 0.10768899999999348
                },
                {
                    "name": "F5",
                    "midi": 77,
                    "time": 368.83482499998763,
                    "velocity": 0.4251968503937008,
                    "duration": 0.10768899999999348
                },
                {
                    "name": "F4",
                    "midi": 65,
                    "time": 368.9425139999876,
                    "velocity": 0.41732283464566927,
                    "duration": 0.10768899999999348
                },
                {
                    "name": "A#4",
                    "midi": 70,
                    "time": 368.9425139999876,
                    "velocity": 0.41732283464566927,
                    "duration": 0.10768899999999348
                },
                {
                    "name": "F5",
                    "midi": 77,
                    "time": 369.0502029999876,
                    "velocity": 0.4094488188976378,
                    "duration": 0.10768899999999348
                },
                {
                    "name": "F4",
                    "midi": 65,
                    "time": 369.1578919999876,
                    "velocity": 0.4094488188976378,
                    "duration": 0.10768899999999348
                },
                {
                    "name": "C5",
                    "midi": 72,
                    "time": 369.1578919999876,
                    "velocity": 0.4094488188976378,
                    "duration": 0.10768899999999348
                },
                {
                    "name": "F5",
                    "midi": 77,
                    "time": 369.2655809999876,
                    "velocity": 0.4015748031496063,
                    "duration": 0.10768899999999348
                },
                {
                    "name": "C#5",
                    "midi": 73,
                    "time": 369.3732699999876,
                    "velocity": 0.3937007874015748,
                    "duration": 0.10768899999999348
                },
                {
                    "name": "F4",
                    "midi": 65,
                    "time": 369.3732699999876,
                    "velocity": 0.3937007874015748,
                    "duration": 0.10768899999999348
                },
                {
                    "name": "F5",
                    "midi": 77,
                    "time": 369.4809589999876,
                    "velocity": 0.3937007874015748,
                    "duration": 0.10768899999999348
                },
                {
                    "name": "C4",
                    "midi": 60,
                    "time": 369.6963369999876,
                    "velocity": 0.4094488188976378,
                    "duration": 0.10768899999999348
                },
                {
                    "name": "F4",
                    "midi": 65,
                    "time": 369.8040259999876,
                    "velocity": 0.3858267716535433,
                    "duration": 0.10768899999999348
                },
                {
                    "name": "G#4",
                    "midi": 68,
                    "time": 369.91171499998757,
                    "velocity": 0.3937007874015748,
                    "duration": 0.10768899999999348
                },
                {
                    "name": "C5",
                    "midi": 72,
                    "time": 370.01940399998756,
                    "velocity": 0.4409448818897638,
                    "duration": 0.43075599999997394
                },
                {
                    "name": "C4",
                    "midi": 60,
                    "time": 370.12709299998755,
                    "velocity": 0.3937007874015748,
                    "duration": 0.10768899999999348
                },
                {
                    "name": "F4",
                    "midi": 65,
                    "time": 370.23478199998755,
                    "velocity": 0.3937007874015748,
                    "duration": 0.10768899999999348
                },
                {
                    "name": "G#4",
                    "midi": 68,
                    "time": 370.34247099998754,
                    "velocity": 0.3937007874015748,
                    "duration": 0.10768899999999348
                },
                {
                    "name": "C5",
                    "midi": 72,
                    "time": 370.45015999998753,
                    "velocity": 0.4409448818897638,
                    "duration": 0.43075599999997394
                },
                {
                    "name": "C4",
                    "midi": 60,
                    "time": 370.5578489999875,
                    "velocity": 0.4094488188976378,
                    "duration": 0.10768899999999348
                },
                {
                    "name": "G4",
                    "midi": 67,
                    "time": 370.6655379999875,
                    "velocity": 0.4094488188976378,
                    "duration": 0.10768899999999348
                },
                {
                    "name": "A#4",
                    "midi": 70,
                    "time": 370.7732269999875,
                    "velocity": 0.4094488188976378,
                    "duration": 0.10768899999999348
                },
                {
                    "name": "C5",
                    "midi": 72,
                    "time": 370.8809159999875,
                    "velocity": 0.4409448818897638,
                    "duration": 0.43075599999997394
                },
                {
                    "name": "C4",
                    "midi": 60,
                    "time": 370.9886049999875,
                    "velocity": 0.4094488188976378,
                    "duration": 0.10768899999999348
                },
                {
                    "name": "E4",
                    "midi": 64,
                    "time": 371.0962939999875,
                    "velocity": 0.4094488188976378,
                    "duration": 0.10768899999999348
                },
                {
                    "name": "G4",
                    "midi": 67,
                    "time": 371.2039829999875,
                    "velocity": 0.4094488188976378,
                    "duration": 0.10768899999999348
                },
                {
                    "name": "C4",
                    "midi": 60,
                    "time": 371.3116719999875,
                    "velocity": 0.4645669291338583,
                    "duration": 0.43075599999997394
                },
                {
                    "name": "F4",
                    "midi": 65,
                    "time": 371.3116719999875,
                    "velocity": 0.4645669291338583,
                    "duration": 0.43075599999997394
                },
                {
                    "name": "G#4",
                    "midi": 68,
                    "time": 371.3116719999875,
                    "velocity": 0.4645669291338583,
                    "duration": 0.43075599999997394
                },
                {
                    "name": "C5",
                    "midi": 72,
                    "time": 371.3116719999875,
                    "velocity": 0.4645669291338583,
                    "duration": 0.43075599999997394
                },
                {
                    "name": "G#5",
                    "midi": 80,
                    "time": 372.06549499998744,
                    "velocity": 0.5433070866141733,
                    "duration": 0.10768899999999348
                },
                {
                    "name": "F5",
                    "midi": 77,
                    "time": 372.06549499998744,
                    "velocity": 0.5433070866141733,
                    "duration": 0.10768899999999348
                },
                {
                    "name": "G#5",
                    "midi": 80,
                    "time": 372.17318399998743,
                    "velocity": 0.5826771653543307,
                    "duration": 0.43075599999997394
                },
                {
                    "name": "F5",
                    "midi": 77,
                    "time": 372.17318399998743,
                    "velocity": 0.5826771653543307,
                    "duration": 0.43075599999997394
                },
                {
                    "name": "G#5",
                    "midi": 80,
                    "time": 372.9270069999874,
                    "velocity": 0.5511811023622047,
                    "duration": 0.10768899999999348
                },
                {
                    "name": "F5",
                    "midi": 77,
                    "time": 372.9270069999874,
                    "velocity": 0.5511811023622047,
                    "duration": 0.10768899999999348
                },
                {
                    "name": "G#5",
                    "midi": 80,
                    "time": 373.0346959999874,
                    "velocity": 0.5905511811023622,
                    "duration": 0.8615120000000047
                },
                {
                    "name": "F5",
                    "midi": 77,
                    "time": 373.0346959999874,
                    "velocity": 0.5905511811023622,
                    "duration": 0.8615120000000047
                },
                {
                    "name": "G5",
                    "midi": 79,
                    "time": 373.8962079999874,
                    "velocity": 0.5354330708661418,
                    "duration": 0.21537799999998697
                },
                {
                    "name": "E5",
                    "midi": 76,
                    "time": 373.8962079999874,
                    "velocity": 0.5354330708661418,
                    "duration": 0.21537799999998697
                },
                {
                    "name": "A#5",
                    "midi": 82,
                    "time": 375.51154299998734,
                    "velocity": 0.5905511811023622,
                    "duration": 0.10768899999999348
                },
                {
                    "name": "G5",
                    "midi": 79,
                    "time": 375.51154299998734,
                    "velocity": 0.5905511811023622,
                    "duration": 0.10768899999999348
                },
                {
                    "name": "A#5",
                    "midi": 82,
                    "time": 375.61923199998733,
                    "velocity": 0.6377952755905512,
                    "duration": 0.43075599999997394
                },
                {
                    "name": "G5",
                    "midi": 79,
                    "time": 375.61923199998733,
                    "velocity": 0.6377952755905512,
                    "duration": 0.43075599999997394
                },
                {
                    "name": "A#5",
                    "midi": 82,
                    "time": 376.3730549999873,
                    "velocity": 0.6062992125984252,
                    "duration": 0.10768899999999348
                },
                {
                    "name": "G5",
                    "midi": 79,
                    "time": 376.3730549999873,
                    "velocity": 0.6062992125984252,
                    "duration": 0.10768899999999348
                },
                {
                    "name": "A#5",
                    "midi": 82,
                    "time": 376.4807439999873,
                    "velocity": 0.6456692913385826,
                    "duration": 0.8615120000000047
                },
                {
                    "name": "G5",
                    "midi": 79,
                    "time": 376.4807439999873,
                    "velocity": 0.6456692913385826,
                    "duration": 0.8615120000000047
                },
                {
                    "name": "G#5",
                    "midi": 80,
                    "time": 377.3422559999873,
                    "velocity": 0.5826771653543307,
                    "duration": 0.21537799999998697
                },
                {
                    "name": "F5",
                    "midi": 77,
                    "time": 377.3422559999873,
                    "velocity": 0.5826771653543307,
                    "duration": 0.21537799999998697
                },
                {
                    "name": "D#6",
                    "midi": 87,
                    "time": 378.95759099998725,
                    "velocity": 0.6456692913385826,
                    "duration": 0.10768899999999348
                },
                {
                    "name": "C6",
                    "midi": 84,
                    "time": 378.95759099998725,
                    "velocity": 0.6456692913385826,
                    "duration": 0.10768899999999348
                },
                {
                    "name": "D#6",
                    "midi": 87,
                    "time": 379.06527999998724,
                    "velocity": 0.7007874015748031,
                    "duration": 0.43075599999997394
                },
                {
                    "name": "C6",
                    "midi": 84,
                    "time": 379.06527999998724,
                    "velocity": 0.7007874015748031,
                    "duration": 0.43075599999997394
                },
                {
                    "name": "D#6",
                    "midi": 87,
                    "time": 379.8191029999872,
                    "velocity": 0.6614173228346457,
                    "duration": 0.10768899999999348
                },
                {
                    "name": "C6",
                    "midi": 84,
                    "time": 379.8191029999872,
                    "velocity": 0.6614173228346457,
                    "duration": 0.10768899999999348
                },
                {
                    "name": "D#6",
                    "midi": 87,
                    "time": 379.9267919999872,
                    "velocity": 0.7086614173228346,
                    "duration": 1.0768899999999917
                },
                {
                    "name": "C6",
                    "midi": 84,
                    "time": 379.9267919999872,
                    "velocity": 0.7086614173228346,
                    "duration": 1.0768899999999917
                },
                {
                    "name": "C#6",
                    "midi": 85,
                    "time": 381.0036819999872,
                    "velocity": 0.6220472440944882,
                    "duration": 0.21537799999998697
                },
                {
                    "name": "A#5",
                    "midi": 82,
                    "time": 381.0036819999872,
                    "velocity": 0.6220472440944882,
                    "duration": 0.21537799999998697
                },
                {
                    "name": "C6",
                    "midi": 84,
                    "time": 381.21905999998717,
                    "velocity": 0.6062992125984252,
                    "duration": 0.21537799999998697
                },
                {
                    "name": "G#5",
                    "midi": 80,
                    "time": 381.21905999998717,
                    "velocity": 0.6062992125984252,
                    "duration": 0.21537799999998697
                },
                {
                    "name": "A#5",
                    "midi": 82,
                    "time": 381.43443799998715,
                    "velocity": 0.5748031496062992,
                    "duration": 0.21537799999998697
                },
                {
                    "name": "G5",
                    "midi": 79,
                    "time": 381.43443799998715,
                    "velocity": 0.5748031496062992,
                    "duration": 0.21537799999998697
                },
                {
                    "name": "G#5",
                    "midi": 80,
                    "time": 381.64981599998714,
                    "velocity": 0.6456692913385826,
                    "duration": 0.43075599999997394
                },
                {
                    "name": "F5",
                    "midi": 77,
                    "time": 381.64981599998714,
                    "velocity": 0.6456692913385826,
                    "duration": 0.43075599999997394
                },
                {
                    "name": "F6",
                    "midi": 89,
                    "time": 382.4036389999871,
                    "velocity": 0.6220472440944882,
                    "duration": 0.10768899999999348
                },
                {
                    "name": "G#5",
                    "midi": 80,
                    "time": 382.4036389999871,
                    "velocity": 0.6220472440944882,
                    "duration": 0.10768899999999348
                },
                {
                    "name": "F5",
                    "midi": 77,
                    "time": 382.4036389999871,
                    "velocity": 0.6220472440944882,
                    "duration": 0.10768899999999348
                },
                {
                    "name": "G6",
                    "midi": 91,
                    "time": 382.5113279999871,
                    "velocity": 0.6456692913385826,
                    "duration": 0.43075599999997394
                },
                {
                    "name": "A#5",
                    "midi": 82,
                    "time": 382.5113279999871,
                    "velocity": 0.6456692913385826,
                    "duration": 0.43075599999997394
                },
                {
                    "name": "G5",
                    "midi": 79,
                    "time": 382.5113279999871,
                    "velocity": 0.6456692913385826,
                    "duration": 0.43075599999997394
                },
                {
                    "name": "E6",
                    "midi": 88,
                    "time": 383.26515099998704,
                    "velocity": 0.6220472440944882,
                    "duration": 0.10768899999999348
                },
                {
                    "name": "G5",
                    "midi": 79,
                    "time": 383.26515099998704,
                    "velocity": 0.6220472440944882,
                    "duration": 0.10768899999999348
                },
                {
                    "name": "E5",
                    "midi": 76,
                    "time": 383.26515099998704,
                    "velocity": 0.6220472440944882,
                    "duration": 0.10768899999999348
                },
                {
                    "name": "F6",
                    "midi": 89,
                    "time": 383.37283999998704,
                    "velocity": 0.5748031496062992,
                    "duration": 0.10768899999999348
                },
                {
                    "name": "G#5",
                    "midi": 80,
                    "time": 383.37283999998704,
                    "velocity": 0.5748031496062992,
                    "duration": 0.10768899999999348
                },
                {
                    "name": "F5",
                    "midi": 77,
                    "time": 383.37283999998704,
                    "velocity": 0.5748031496062992,
                    "duration": 0.10768899999999348
                },
                {
                    "name": "C5",
                    "midi": 72,
                    "time": 383.48052899998703,
                    "velocity": 0.48031496062992124,
                    "duration": 0.10768899999999348
                },
                {
                    "name": "F5",
                    "midi": 77,
                    "time": 383.588217999987,
                    "velocity": 0.4881889763779528,
                    "duration": 0.10768899999999348
                },
                {
                    "name": "G#5",
                    "midi": 80,
                    "time": 383.695906999987,
                    "velocity": 0.49606299212598426,
                    "duration": 0.10768899999999348
                },
                {
                    "name": "C6",
                    "midi": 84,
                    "time": 383.803595999987,
                    "velocity": 0.5354330708661418,
                    "duration": 0.10768899999999348
                },
                {
                    "name": "C#6",
                    "midi": 85,
                    "time": 383.911284999987,
                    "velocity": 0.5118110236220472,
                    "duration": 0.10768899999999348
                },
                {
                    "name": "C6",
                    "midi": 84,
                    "time": 384.018973999987,
                    "velocity": 0.5196850393700787,
                    "duration": 0.10768899999999348
                },
                {
                    "name": "A#5",
                    "midi": 82,
                    "time": 384.126662999987,
                    "velocity": 0.5118110236220472,
                    "duration": 0.10768899999999348
                },
                {
                    "name": "G#5",
                    "midi": 80,
                    "time": 384.234351999987,
                    "velocity": 0.5354330708661418,
                    "duration": 0.10768899999999348
                },
                {
                    "name": "A#5",
                    "midi": 82,
                    "time": 384.342040999987,
                    "velocity": 0.5275590551181102,
                    "duration": 0.10768899999999348
                },
                {
                    "name": "G#5",
                    "midi": 80,
                    "time": 384.44972999998697,
                    "velocity": 0.5196850393700787,
                    "duration": 0.10768899999999348
                },
                {
                    "name": "G5",
                    "midi": 79,
                    "time": 384.55741899998696,
                    "velocity": 0.5118110236220472,
                    "duration": 0.10768899999999348
                },
                {
                    "name": "F5",
                    "midi": 77,
                    "time": 384.66510799998696,
                    "velocity": 0.5039370078740157,
                    "duration": 0.10768899999999348
                },
                {
                    "name": "G5",
                    "midi": 79,
                    "time": 384.77279699998695,
                    "velocity": 0.49606299212598426,
                    "duration": 0.10768899999999348
                },
                {
                    "name": "G#5",
                    "midi": 80,
                    "time": 384.88048599998694,
                    "velocity": 0.49606299212598426,
                    "duration": 0.10768899999999348
                },
                {
                    "name": "F5",
                    "midi": 77,
                    "time": 384.98817499998694,
                    "velocity": 0.4881889763779528,
                    "duration": 0.10768899999999348
                },
                {
                    "name": "C5",
                    "midi": 72,
                    "time": 385.2035529999869,
                    "velocity": 0.48031496062992124,
                    "duration": 0.10768899999999348
                },
                {
                    "name": "F5",
                    "midi": 77,
                    "time": 385.3112419999869,
                    "velocity": 0.4881889763779528,
                    "duration": 0.10768899999999348
                },
                {
                    "name": "G#5",
                    "midi": 80,
                    "time": 385.4189309999869,
                    "velocity": 0.49606299212598426,
                    "duration": 0.10768899999999348
                },
                {
                    "name": "C6",
                    "midi": 84,
                    "time": 385.5266199999869,
                    "velocity": 0.5354330708661418,
                    "duration": 0.10768899999999348
                },
                {
                    "name": "C#6",
                    "midi": 85,
                    "time": 385.6343089999869,
                    "velocity": 0.5118110236220472,
                    "duration": 0.10768899999999348
                },
                {
                    "name": "C6",
                    "midi": 84,
                    "time": 385.7419979999869,
                    "velocity": 0.5196850393700787,
                    "duration": 0.10768899999999348
                },
                {
                    "name": "A#5",
                    "midi": 82,
                    "time": 385.8496869999869,
                    "velocity": 0.5118110236220472,
                    "duration": 0.10768899999999348
                },
                {
                    "name": "G#5",
                    "midi": 80,
                    "time": 385.9573759999869,
                    "velocity": 0.5354330708661418,
                    "duration": 0.10768899999999348
                },
                {
                    "name": "A#5",
                    "midi": 82,
                    "time": 386.0650649999869,
                    "velocity": 0.5275590551181102,
                    "duration": 0.10768899999999348
                },
                {
                    "name": "G#5",
                    "midi": 80,
                    "time": 386.17275399998687,
                    "velocity": 0.5196850393700787,
                    "duration": 0.10768899999999348
                },
                {
                    "name": "G5",
                    "midi": 79,
                    "time": 386.28044299998686,
                    "velocity": 0.5118110236220472,
                    "duration": 0.10768899999999348
                },
                {
                    "name": "F5",
                    "midi": 77,
                    "time": 386.38813199998685,
                    "velocity": 0.5039370078740157,
                    "duration": 0.10768899999999348
                },
                {
                    "name": "G5",
                    "midi": 79,
                    "time": 386.49582099998685,
                    "velocity": 0.49606299212598426,
                    "duration": 0.10768899999999348
                },
                {
                    "name": "G#5",
                    "midi": 80,
                    "time": 386.60350999998684,
                    "velocity": 0.49606299212598426,
                    "duration": 0.10768899999999348
                },
                {
                    "name": "F5",
                    "midi": 77,
                    "time": 386.71119899998683,
                    "velocity": 0.4881889763779528,
                    "duration": 0.10768899999999348
                },
                {
                    "name": "F#5",
                    "midi": 78,
                    "time": 386.9265769999868,
                    "velocity": 0.5039370078740157,
                    "duration": 0.10768899999999348
                },
                {
                    "name": "C6",
                    "midi": 84,
                    "time": 387.0342659999868,
                    "velocity": 0.5118110236220472,
                    "duration": 0.10768899999999348
                },
                {
                    "name": "D#6",
                    "midi": 87,
                    "time": 387.1419549999868,
                    "velocity": 0.5196850393700787,
                    "duration": 0.10768899999999348
                },
                {
                    "name": "F#6",
                    "midi": 90,
                    "time": 387.2496439999868,
                    "velocity": 0.5669291338582677,
                    "duration": 0.10768899999999348
                },
                {
                    "name": "G#6",
                    "midi": 92,
                    "time": 387.3573329999868,
                    "velocity": 0.5433070866141733,
                    "duration": 0.10768899999999348
                },
                {
                    "name": "F#6",
                    "midi": 90,
                    "time": 387.4650219999868,
                    "velocity": 0.5511811023622047,
                    "duration": 0.10768899999999348
                },
                {
                    "name": "F6",
                    "midi": 89,
                    "time": 387.5727109999868,
                    "velocity": 0.5433070866141733,
                    "duration": 0.10768899999999348
                },
                {
                    "name": "D#6",
                    "midi": 87,
                    "time": 387.6803999999868,
                    "velocity": 0.5669291338582677,
                    "duration": 0.10768899999999348
                },
                {
                    "name": "F6",
                    "midi": 89,
                    "time": 387.78808899998677,
                    "velocity": 0.5590551181102362,
                    "duration": 0.10768899999999348
                },
                {
                    "name": "D#6",
                    "midi": 87,
                    "time": 387.89577799998676,
                    "velocity": 0.5511811023622047,
                    "duration": 0.10768899999999348
                },
                {
                    "name": "C#6",
                    "midi": 85,
                    "time": 388.00346699998676,
                    "velocity": 0.5433070866141733,
                    "duration": 0.10768899999999348
                },
                {
                    "name": "C6",
                    "midi": 84,
                    "time": 388.11115599998675,
                    "velocity": 0.5354330708661418,
                    "duration": 0.10768899999999348
                },
                {
                    "name": "C#6",
                    "midi": 85,
                    "time": 388.21884499998674,
                    "velocity": 0.5275590551181102,
                    "duration": 0.10768899999999348
                },
                {
                    "name": "D#6",
                    "midi": 87,
                    "time": 388.32653399998674,
                    "velocity": 0.5196850393700787,
                    "duration": 0.10768899999999348
                },
                {
                    "name": "C6",
                    "midi": 84,
                    "time": 388.43422299998673,
                    "velocity": 0.5118110236220472,
                    "duration": 0.10768899999999348
                },
                {
                    "name": "F#5",
                    "midi": 78,
                    "time": 388.6496009999867,
                    "velocity": 0.5039370078740157,
                    "duration": 0.10768899999999348
                },
                {
                    "name": "C6",
                    "midi": 84,
                    "time": 388.7572899999867,
                    "velocity": 0.5118110236220472,
                    "duration": 0.10768899999999348
                },
                {
                    "name": "D#6",
                    "midi": 87,
                    "time": 388.8649789999867,
                    "velocity": 0.5196850393700787,
                    "duration": 0.10768899999999348
                },
                {
                    "name": "F#6",
                    "midi": 90,
                    "time": 388.9726679999867,
                    "velocity": 0.5669291338582677,
                    "duration": 0.10768899999999348
                },
                {
                    "name": "G#6",
                    "midi": 92,
                    "time": 389.0803569999867,
                    "velocity": 0.5433070866141733,
                    "duration": 0.10768899999999348
                },
                {
                    "name": "F#6",
                    "midi": 90,
                    "time": 389.1880459999867,
                    "velocity": 0.5511811023622047,
                    "duration": 0.10768899999999348
                },
                {
                    "name": "F6",
                    "midi": 89,
                    "time": 389.2957349999867,
                    "velocity": 0.5433070866141733,
                    "duration": 0.10768899999999348
                },
                {
                    "name": "D#6",
                    "midi": 87,
                    "time": 389.40342399998667,
                    "velocity": 0.5669291338582677,
                    "duration": 0.10768899999999348
                },
                {
                    "name": "F6",
                    "midi": 89,
                    "time": 389.51111299998666,
                    "velocity": 0.5590551181102362,
                    "duration": 0.10768899999999348
                },
                {
                    "name": "D#6",
                    "midi": 87,
                    "time": 389.61880199998666,
                    "velocity": 0.5511811023622047,
                    "duration": 0.10768899999999348
                },
                {
                    "name": "C#6",
                    "midi": 85,
                    "time": 389.72649099998665,
                    "velocity": 0.5433070866141733,
                    "duration": 0.10768899999999348
                },
                {
                    "name": "C6",
                    "midi": 84,
                    "time": 389.83417999998665,
                    "velocity": 0.5354330708661418,
                    "duration": 0.10768899999999348
                },
                {
                    "name": "A#5",
                    "midi": 82,
                    "time": 389.94186899998664,
                    "velocity": 0.5275590551181102,
                    "duration": 0.10768899999999348
                },
                {
                    "name": "G#5",
                    "midi": 80,
                    "time": 390.04955799998663,
                    "velocity": 0.5196850393700787,
                    "duration": 0.10768899999999348
                },
                {
                    "name": "F#5",
                    "midi": 78,
                    "time": 390.1572469999866,
                    "velocity": 0.5118110236220472,
                    "duration": 0.10768899999999348
                },
                {
                    "name": "F5",
                    "midi": 77,
                    "time": 390.2649359999866,
                    "velocity": 0.5354330708661418,
                    "duration": 0.10768899999999348
                },
                {
                    "name": "G#5",
                    "midi": 80,
                    "time": 390.3726249999866,
                    "velocity": 0.5275590551181102,
                    "duration": 0.10768899999999348
                },
                {
                    "name": "C#6",
                    "midi": 85,
                    "time": 390.4803139999866,
                    "velocity": 0.5354330708661418,
                    "duration": 0.10768899999999348
                },
                {
                    "name": "F6",
                    "midi": 89,
                    "time": 390.5880029999866,
                    "velocity": 0.5433070866141733,
                    "duration": 0.10768899999999348
                },
                {
                    "name": "G#6",
                    "midi": 92,
                    "time": 390.6956919999866,
                    "velocity": 0.5905511811023622,
                    "duration": 0.10768899999999348
                },
                {
                    "name": "A#6",
                    "midi": 94,
                    "time": 390.8033809999866,
                    "velocity": 0.5669291338582677,
                    "duration": 0.10768899999999348
                },
                {
                    "name": "G#6",
                    "midi": 92,
                    "time": 390.9110699999866,
                    "velocity": 0.5748031496062992,
                    "duration": 0.10768899999999348
                },
                {
                    "name": "F#6",
                    "midi": 90,
                    "time": 391.0187589999866,
                    "velocity": 0.5669291338582677,
                    "duration": 0.10768899999999348
                },
                {
                    "name": "F6",
                    "midi": 89,
                    "time": 391.12644799998657,
                    "velocity": 0.5905511811023622,
                    "duration": 0.10768899999999348
                },
                {
                    "name": "F#6",
                    "midi": 90,
                    "time": 391.23413699998656,
                    "velocity": 0.5826771653543307,
                    "duration": 0.10768899999999348
                },
                {
                    "name": "F6",
                    "midi": 89,
                    "time": 391.34182599998655,
                    "velocity": 0.5748031496062992,
                    "duration": 0.10768899999999348
                },
                {
                    "name": "D#6",
                    "midi": 87,
                    "time": 391.44951499998655,
                    "velocity": 0.5669291338582677,
                    "duration": 0.10768899999999348
                },
                {
                    "name": "C#6",
                    "midi": 85,
                    "time": 391.55720399998654,
                    "velocity": 0.5590551181102362,
                    "duration": 0.10768899999999348
                },
                {
                    "name": "D#6",
                    "midi": 87,
                    "time": 391.66489299998653,
                    "velocity": 0.5511811023622047,
                    "duration": 0.10768899999999348
                },
                {
                    "name": "F6",
                    "midi": 89,
                    "time": 391.7725819999865,
                    "velocity": 0.5433070866141733,
                    "duration": 0.10768899999999348
                },
                {
                    "name": "C#6",
                    "midi": 85,
                    "time": 391.8802709999865,
                    "velocity": 0.5354330708661418,
                    "duration": 0.10768899999999348
                },
                {
                    "name": "G#5",
                    "midi": 80,
                    "time": 392.0956489999865,
                    "velocity": 0.5275590551181102,
                    "duration": 0.10768899999999348
                },
                {
                    "name": "C#6",
                    "midi": 85,
                    "time": 392.2033379999865,
                    "velocity": 0.5354330708661418,
                    "duration": 0.10768899999999348
                },
                {
                    "name": "F6",
                    "midi": 89,
                    "time": 392.3110269999865,
                    "velocity": 0.5433070866141733,
                    "duration": 0.10768899999999348
                },
                {
                    "name": "G#6",
                    "midi": 92,
                    "time": 392.4187159999865,
                    "velocity": 0.5984251968503937,
                    "duration": 0.10768899999999348
                },
                {
                    "name": "A#6",
                    "midi": 94,
                    "time": 392.5264049999865,
                    "velocity": 0.5826771653543307,
                    "duration": 0.10768899999999348
                },
                {
                    "name": "G#6",
                    "midi": 92,
                    "time": 392.6340939999865,
                    "velocity": 0.5905511811023622,
                    "duration": 0.10768899999999348
                },
                {
                    "name": "F#6",
                    "midi": 90,
                    "time": 392.74178299998647,
                    "velocity": 0.5826771653543307,
                    "duration": 0.10768899999999348
                },
                {
                    "name": "F6",
                    "midi": 89,
                    "time": 392.84947199998646,
                    "velocity": 0.6141732283464567,
                    "duration": 0.10768899999999348
                },
                {
                    "name": "F#6",
                    "midi": 90,
                    "time": 392.95716099998646,
                    "velocity": 0.6062992125984252,
                    "duration": 0.10768899999999348
                },
                {
                    "name": "G#6",
                    "midi": 92,
                    "time": 393.06484999998645,
                    "velocity": 0.6062992125984252,
                    "duration": 0.10768899999999348
                },
                {
                    "name": "F#6",
                    "midi": 90,
                    "time": 393.17253899998644,
                    "velocity": 0.5984251968503937,
                    "duration": 0.10768899999999348
                },
                {
                    "name": "F6",
                    "midi": 89,
                    "time": 393.28022799998644,
                    "velocity": 0.5905511811023622,
                    "duration": 0.10768899999999348
                },
                {
                    "name": "F#6",
                    "midi": 90,
                    "time": 393.38791699998643,
                    "velocity": 0.5905511811023622,
                    "duration": 0.10768899999999348
                },
                {
                    "name": "G#6",
                    "midi": 92,
                    "time": 393.4956059999864,
                    "velocity": 0.5826771653543307,
                    "duration": 0.10768899999999348
                },
                {
                    "name": "F6",
                    "midi": 89,
                    "time": 393.6032949999864,
                    "velocity": 0.5826771653543307,
                    "duration": 0.10768899999999348
                },
                {
                    "name": "F#6",
                    "midi": 90,
                    "time": 393.8186729999864,
                    "velocity": 0.5511811023622047,
                    "duration": 0.10768899999999348
                },
                {
                    "name": "G#6",
                    "midi": 92,
                    "time": 393.9263619999864,
                    "velocity": 0.5748031496062992,
                    "duration": 0.10768899999999348
                },
                {
                    "name": "F#6",
                    "midi": 90,
                    "time": 394.0340509999864,
                    "velocity": 0.5511811023622047,
                    "duration": 0.10768899999999348
                },
                {
                    "name": "G#6",
                    "midi": 92,
                    "time": 394.1417399999864,
                    "velocity": 0.5118110236220472,
                    "duration": 0.10768899999999348
                },
                {
                    "name": "F#6",
                    "midi": 90,
                    "time": 394.2494289999864,
                    "velocity": 0.49606299212598426,
                    "duration": 0.10768899999999348
                },
                {
                    "name": "F6",
                    "midi": 89,
                    "time": 394.3571179999864,
                    "velocity": 0.4645669291338583,
                    "duration": 0.10768899999999348
                },
                {
                    "name": "F#6",
                    "midi": 90,
                    "time": 394.46480699998637,
                    "velocity": 0.4645669291338583,
                    "duration": 0.10768899999999348
                },
                {
                    "name": "E6",
                    "midi": 88,
                    "time": 394.68018499998635,
                    "velocity": 0.4566929133858268,
                    "duration": 0.10768899999999348
                },
                {
                    "name": "F6",
                    "midi": 89,
                    "time": 394.78787399998635,
                    "velocity": 0.47244094488188976,
                    "duration": 0.10768899999999348
                },
                {
                    "name": "E6",
                    "midi": 88,
                    "time": 394.89556299998634,
                    "velocity": 0.44881889763779526,
                    "duration": 0.10768899999999348
                },
                {
                    "name": "F6",
                    "midi": 89,
                    "time": 395.1109409999863,
                    "velocity": 0.44881889763779526,
                    "duration": 0.10768899999999348
                },
                {
                    "name": "G6",
                    "midi": 91,
                    "time": 395.2186299999863,
                    "velocity": 0.47244094488188976,
                    "duration": 0.10768899999999348
                },
                {
                    "name": "F6",
                    "midi": 89,
                    "time": 395.3263189999863,
                    "velocity": 0.4409448818897638,
                    "duration": 0.10768899999999348
                },
                {
                    "name": "F#6",
                    "midi": 90,
                    "time": 395.5416969999863,
                    "velocity": 0.5511811023622047,
                    "duration": 0.10768899999999348
                },
                {
                    "name": "G#6",
                    "midi": 92,
                    "time": 395.6493859999863,
                    "velocity": 0.5748031496062992,
                    "duration": 0.10768899999999348
                },
                {
                    "name": "F#6",
                    "midi": 90,
                    "time": 395.7570749999863,
                    "velocity": 0.5511811023622047,
                    "duration": 0.10768899999999348
                },
                {
                    "name": "G#6",
                    "midi": 92,
                    "time": 395.8647639999863,
                    "velocity": 0.5118110236220472,
                    "duration": 0.10768899999999348
                },
                {
                    "name": "F#6",
                    "midi": 90,
                    "time": 395.9724529999863,
                    "velocity": 0.49606299212598426,
                    "duration": 0.10768899999999348
                },
                {
                    "name": "F6",
                    "midi": 89,
                    "time": 396.08014199998627,
                    "velocity": 0.4645669291338583,
                    "duration": 0.10768899999999348
                },
                {
                    "name": "F#6",
                    "midi": 90,
                    "time": 396.18783099998626,
                    "velocity": 0.4645669291338583,
                    "duration": 0.10768899999999348
                },
                {
                    "name": "E6",
                    "midi": 88,
                    "time": 396.40320899998625,
                    "velocity": 0.4566929133858268,
                    "duration": 0.10768899999999348
                },
                {
                    "name": "F6",
                    "midi": 89,
                    "time": 396.51089799998624,
                    "velocity": 0.47244094488188976,
                    "duration": 0.10768899999999348
                },
                {
                    "name": "E6",
                    "midi": 88,
                    "time": 396.61858699998623,
                    "velocity": 0.44881889763779526,
                    "duration": 0.10768899999999348
                },
                {
                    "name": "F6",
                    "midi": 89,
                    "time": 396.8339649999862,
                    "velocity": 0.44881889763779526,
                    "duration": 0.10768899999999348
                },
                {
                    "name": "G6",
                    "midi": 91,
                    "time": 396.9416539999862,
                    "velocity": 0.47244094488188976,
                    "duration": 0.10768899999999348
                },
                {
                    "name": "F6",
                    "midi": 89,
                    "time": 397.0493429999862,
                    "velocity": 0.4409448818897638,
                    "duration": 0.10768899999999348
                },
                {
                    "name": "F#6",
                    "midi": 90,
                    "time": 397.2647209999862,
                    "velocity": 0.5511811023622047,
                    "duration": 0.10768899999999348
                },
                {
                    "name": "G#6",
                    "midi": 92,
                    "time": 397.3724099999862,
                    "velocity": 0.5748031496062992,
                    "duration": 0.10768899999999348
                },
                {
                    "name": "F#6",
                    "midi": 90,
                    "time": 397.4800989999862,
                    "velocity": 0.5511811023622047,
                    "duration": 0.10768899999999348
                },
                {
                    "name": "G#6",
                    "midi": 92,
                    "time": 397.5877879999862,
                    "velocity": 0.5748031496062992,
                    "duration": 0.10768899999999348
                },
                {
                    "name": "F#6",
                    "midi": 90,
                    "time": 397.69547699998617,
                    "velocity": 0.5511811023622047,
                    "duration": 0.10768899999999348
                },
                {
                    "name": "F6",
                    "midi": 89,
                    "time": 397.80316599998616,
                    "velocity": 0.4645669291338583,
                    "duration": 0.10768899999999348
                },
                {
                    "name": "G6",
                    "midi": 91,
                    "time": 397.91085499998616,
                    "velocity": 0.4645669291338583,
                    "duration": 0.10768899999999348
                },
                {
                    "name": "E6",
                    "midi": 88,
                    "time": 398.12623299998614,
                    "velocity": 0.4566929133858268,
                    "duration": 0.10768899999999348
                },
                {
                    "name": "F6",
                    "midi": 89,
                    "time": 398.23392199998614,
                    "velocity": 0.47244094488188976,
                    "duration": 0.10768899999999348
                },
                {
                    "name": "E6",
                    "midi": 88,
                    "time": 398.34161099998613,
                    "velocity": 0.4566929133858268,
                    "duration": 0.10768899999999348
                },
                {
                    "name": "C#6",
                    "midi": 85,
                    "time": 398.5569889999861,
                    "velocity": 0.4566929133858268,
                    "duration": 0.10768899999999348
                },
                {
                    "name": "D#6",
                    "midi": 87,
                    "time": 398.6646779999861,
                    "velocity": 0.48031496062992124,
                    "duration": 0.10768899999999348
                },
                {
                    "name": "C#6",
                    "midi": 85,
                    "time": 398.7723669999861,
                    "velocity": 0.44881889763779526,
                    "duration": 0.10768899999999348
                },
                {
                    "name": "C6",
                    "midi": 84,
                    "time": 398.9877449999861,
                    "velocity": 0.47244094488188976,
                    "duration": 0.10768899999999348
                },
                {
                    "name": "C#6",
                    "midi": 85,
                    "time": 399.0954339999861,
                    "velocity": 0.4881889763779528,
                    "duration": 0.10768899999999348
                },
                {
                    "name": "C6",
                    "midi": 84,
                    "time": 399.2031229999861,
                    "velocity": 0.47244094488188976,
                    "duration": 0.10768899999999348
                },
                {
                    "name": "B5",
                    "midi": 83,
                    "time": 399.41850099998607,
                    "velocity": 0.48031496062992124,
                    "duration": 0.10768899999999348
                },
                {
                    "name": "C6",
                    "midi": 84,
                    "time": 399.52618999998606,
                    "velocity": 0.5118110236220472,
                    "duration": 0.10768899999999348
                },
                {
                    "name": "B5",
                    "midi": 83,
                    "time": 399.63387899998605,
                    "velocity": 0.4881889763779528,
                    "duration": 0.10768899999999348
                },
                {
                    "name": "A#5",
                    "midi": 82,
                    "time": 399.84925699998604,
                    "velocity": 0.5118110236220472,
                    "duration": 0.10768899999999348
                },
                {
                    "name": "C6",
                    "midi": 84,
                    "time": 399.95694599998603,
                    "velocity": 0.5275590551181102,
                    "duration": 0.10768899999999348
                },
                {
                    "name": "A#5",
                    "midi": 82,
                    "time": 400.064634999986,
                    "velocity": 0.5039370078740157,
                    "duration": 0.10768899999999348
                },
                {
                    "name": "G#5",
                    "midi": 80,
                    "time": 400.280012999986,
                    "velocity": 0.5196850393700787,
                    "duration": 0.10768899999999348
                },
                {
                    "name": "A#5",
                    "midi": 82,
                    "time": 400.387701999986,
                    "velocity": 0.5433070866141733,
                    "duration": 0.10768899999999348
                },
                {
                    "name": "G#5",
                    "midi": 80,
                    "time": 400.495390999986,
                    "velocity": 0.5275590551181102,
                    "duration": 0.10768899999999348
                },
                {
                    "name": "G#5",
                    "midi": 80,
                    "time": 400.710768999986,
                    "velocity": 0.5275590551181102,
                    "duration": 0.10768899999999348
                },
                {
                    "name": "A#5",
                    "midi": 82,
                    "time": 400.818457999986,
                    "velocity": 0.5511811023622047,
                    "duration": 0.10768899999999348
                },
                {
                    "name": "G#5",
                    "midi": 80,
                    "time": 400.926146999986,
                    "velocity": 0.5354330708661418,
                    "duration": 0.10768899999999348
                },
                {
                    "name": "G5",
                    "midi": 79,
                    "time": 401.14152499998596,
                    "velocity": 0.5196850393700787,
                    "duration": 0.10768899999999348
                },
                {
                    "name": "G#5",
                    "midi": 80,
                    "time": 401.24921399998595,
                    "velocity": 0.5433070866141733,
                    "duration": 0.10768899999999348
                },
                {
                    "name": "G5",
                    "midi": 79,
                    "time": 401.35690299998595,
                    "velocity": 0.5039370078740157,
                    "duration": 0.10768899999999348
                },
                {
                    "name": "F5",
                    "midi": 77,
                    "time": 401.57228099998594,
                    "velocity": 0.5039370078740157,
                    "duration": 0.10768899999999348
                },
                {
                    "name": "G5",
                    "midi": 79,
                    "time": 401.67996999998593,
                    "velocity": 0.5118110236220472,
                    "duration": 0.10768899999999348
                },
                {
                    "name": "F5",
                    "midi": 77,
                    "time": 401.7876589999859,
                    "velocity": 0.4881889763779528,
                    "duration": 0.10768899999999348
                },
                {
                    "name": "E5",
                    "midi": 76,
                    "time": 402.0030369999859,
                    "velocity": 0.47244094488188976,
                    "duration": 0.10768899999999348
                },
                {
                    "name": "F5",
                    "midi": 77,
                    "time": 402.1107259999859,
                    "velocity": 0.4881889763779528,
                    "duration": 0.10768899999999348
                },
                {
                    "name": "E5",
                    "midi": 76,
                    "time": 402.2184149999859,
                    "velocity": 0.44881889763779526,
                    "duration": 0.10768899999999348
                },
                {
                    "name": "C#4",
                    "midi": 61,
                    "time": 402.4337929999859,
                    "velocity": 0.5196850393700787,
                    "duration": 0.10768899999999348
                },
                {
                    "name": "C#5",
                    "midi": 73,
                    "time": 402.5414819999859,
                    "velocity": 0.5748031496062992,
                    "duration": 0.10768899999999348
                },
                {
                    "name": "C#4",
                    "midi": 61,
                    "time": 402.64917099998587,
                    "velocity": 0.4645669291338583,
                    "duration": 0.10768899999999348
                },
                {
                    "name": "C#5",
                    "midi": 73,
                    "time": 402.75685999998586,
                    "velocity": 0.5590551181102362,
                    "duration": 0.10768899999999348
                },
                {
                    "name": "C#4",
                    "midi": 61,
                    "time": 402.86454899998586,
                    "velocity": 0.4566929133858268,
                    "duration": 0.10768899999999348
                },
                {
                    "name": "C#5",
                    "midi": 73,
                    "time": 402.97223799998585,
                    "velocity": 0.49606299212598426,
                    "duration": 0.10768899999999348
                },
                {
                    "name": "C#4",
                    "midi": 61,
                    "time": 403.07992699998584,
                    "velocity": 0.4645669291338583,
                    "duration": 0.10768899999999348
                },
                {
                    "name": "C#4",
                    "midi": 61,
                    "time": 403.29530499998583,
                    "velocity": 0.47244094488188976,
                    "duration": 0.10768899999999348
                },
                {
                    "name": "C#5",
                    "midi": 73,
                    "time": 403.4029939999858,
                    "velocity": 0.5590551181102362,
                    "duration": 0.10768899999999348
                },
                {
                    "name": "C5",
                    "midi": 72,
                    "time": 403.5106829999858,
                    "velocity": 0.5196850393700787,
                    "duration": 0.10768899999999348
                },
                {
                    "name": "A#4",
                    "midi": 70,
                    "time": 403.6183719999858,
                    "velocity": 0.5354330708661418,
                    "duration": 0.10768899999999348
                },
                {
                    "name": "G#4",
                    "midi": 68,
                    "time": 403.7260609999858,
                    "velocity": 0.5196850393700787,
                    "duration": 0.10768899999999348
                },
                {
                    "name": "G4",
                    "midi": 67,
                    "time": 403.8337499999858,
                    "velocity": 0.5118110236220472,
                    "duration": 0.10768899999999348
                },
                {
                    "name": "F4",
                    "midi": 65,
                    "time": 403.9414389999858,
                    "velocity": 0.4566929133858268,
                    "duration": 0.10768899999999348
                },
                {
                    "name": "C#5",
                    "midi": 73,
                    "time": 404.1568169999858,
                    "velocity": 0.5354330708661418,
                    "duration": 0.10768899999999348
                },
                {
                    "name": "C#6",
                    "midi": 85,
                    "time": 404.2645059999858,
                    "velocity": 0.5905511811023622,
                    "duration": 0.10768899999999348
                },
                {
                    "name": "C#5",
                    "midi": 73,
                    "time": 404.37219499998577,
                    "velocity": 0.5275590551181102,
                    "duration": 0.10768899999999348
                },
                {
                    "name": "C#6",
                    "midi": 85,
                    "time": 404.47988399998576,
                    "velocity": 0.5826771653543307,
                    "duration": 0.10768899999999348
                },
                {
                    "name": "C#5",
                    "midi": 73,
                    "time": 404.58757299998575,
                    "velocity": 0.5275590551181102,
                    "duration": 0.10768899999999348
                },
                {
                    "name": "C#6",
                    "midi": 85,
                    "time": 404.69526199998575,
                    "velocity": 0.5433070866141733,
                    "duration": 0.10768899999999348
                },
                {
                    "name": "C#5",
                    "midi": 73,
                    "time": 404.80295099998574,
                    "velocity": 0.47244094488188976,
                    "duration": 0.10768899999999348
                },
                {
                    "name": "C#5",
                    "midi": 73,
                    "time": 405.0183289999857,
                    "velocity": 0.48031496062992124,
                    "duration": 0.10768899999999348
                },
                {
                    "name": "C#6",
                    "midi": 85,
                    "time": 405.1260179999857,
                    "velocity": 0.5748031496062992,
                    "duration": 0.10768899999999348
                },
                {
                    "name": "C6",
                    "midi": 84,
                    "time": 405.2337069999857,
                    "velocity": 0.5196850393700787,
                    "duration": 0.10768899999999348
                },
                {
                    "name": "A#5",
                    "midi": 82,
                    "time": 405.3413959999857,
                    "velocity": 0.5511811023622047,
                    "duration": 0.10768899999999348
                },
                {
                    "name": "G#5",
                    "midi": 80,
                    "time": 405.4490849999857,
                    "velocity": 0.5354330708661418,
                    "duration": 0.10768899999999348
                },
                {
                    "name": "G5",
                    "midi": 79,
                    "time": 405.5567739999857,
                    "velocity": 0.5275590551181102,
                    "duration": 0.10768899999999348
                },
                {
                    "name": "F5",
                    "midi": 77,
                    "time": 405.6644629999857,
                    "velocity": 0.5118110236220472,
                    "duration": 0.10768899999999348
                },
                {
                    "name": "C#4",
                    "midi": 61,
                    "time": 405.8798409999857,
                    "velocity": 0.5196850393700787,
                    "duration": 0.10768899999999348
                },
                {
                    "name": "C#5",
                    "midi": 73,
                    "time": 405.98752999998567,
                    "velocity": 0.5748031496062992,
                    "duration": 0.10768899999999348
                },
                {
                    "name": "C#4",
                    "midi": 61,
                    "time": 406.09521899998566,
                    "velocity": 0.5196850393700787,
                    "duration": 0.10768899999999348
                },
                {
                    "name": "C#5",
                    "midi": 73,
                    "time": 406.20290799998565,
                    "velocity": 0.5748031496062992,
                    "duration": 0.10768899999999348
                },
                {
                    "name": "C#4",
                    "midi": 61,
                    "time": 406.31059699998565,
                    "velocity": 0.5196850393700787,
                    "duration": 0.10768899999999348
                },
                {
                    "name": "C#5",
                    "midi": 73,
                    "time": 406.41828599998564,
                    "velocity": 0.5354330708661418,
                    "duration": 0.10768899999999348
                },
                {
                    "name": "C#4",
                    "midi": 61,
                    "time": 406.52597499998564,
                    "velocity": 0.48031496062992124,
                    "duration": 0.10768899999999348
                },
                {
                    "name": "C#5",
                    "midi": 73,
                    "time": 406.7413529999856,
                    "velocity": 0.5354330708661418,
                    "duration": 0.10768899999999348
                },
                {
                    "name": "C#4",
                    "midi": 61,
                    "time": 406.8490419999856,
                    "velocity": 0.47244094488188976,
                    "duration": 0.10768899999999348
                },
                {
                    "name": "C#5",
                    "midi": 73,
                    "time": 406.9567309999856,
                    "velocity": 0.5354330708661418,
                    "duration": 0.10768899999999348
                },
                {
                    "name": "C#6",
                    "midi": 85,
                    "time": 407.1721089999856,
                    "velocity": 0.6141732283464567,
                    "duration": 0.10768899999999348
                },
                {
                    "name": "C#5",
                    "midi": 73,
                    "time": 407.2797979999856,
                    "velocity": 0.5433070866141733,
                    "duration": 0.10768899999999348
                },
                {
                    "name": "C#6",
                    "midi": 85,
                    "time": 407.3874869999856,
                    "velocity": 0.5905511811023622,
                    "duration": 0.10768899999999348
                },
                {
                    "name": "C6",
                    "midi": 84,
                    "time": 407.60286499998557,
                    "velocity": 0.5984251968503937,
                    "duration": 0.10768899999999348
                },
                {
                    "name": "C5",
                    "midi": 72,
                    "time": 407.71055399998556,
                    "velocity": 0.5590551181102362,
                    "duration": 0.10768899999999348
                },
                {
                    "name": "C6",
                    "midi": 84,
                    "time": 407.81824299998556,
                    "velocity": 0.5826771653543307,
                    "duration": 0.10768899999999348
                },
                {
                    "name": "B5",
                    "midi": 83,
                    "time": 408.03362099998554,
                    "velocity": 0.6062992125984252,
                    "duration": 0.10768899999999348
                },
                {
                    "name": "B4",
                    "midi": 71,
                    "time": 408.14130999998554,
                    "velocity": 0.5590551181102362,
                    "duration": 0.10768899999999348
                },
                {
                    "name": "B5",
                    "midi": 83,
                    "time": 408.24899899998553,
                    "velocity": 0.5826771653543307,
                    "duration": 0.10768899999999348
                },
                {
                    "name": "A#5",
                    "midi": 82,
                    "time": 408.4643769999855,
                    "velocity": 0.6141732283464567,
                    "duration": 0.10768899999999348
                },
                {
                    "name": "A#4",
                    "midi": 70,
                    "time": 408.5720659999855,
                    "velocity": 0.5433070866141733,
                    "duration": 0.10768899999999348
                },
                {
                    "name": "A#5",
                    "midi": 82,
                    "time": 408.6797549999855,
                    "velocity": 0.5826771653543307,
                    "duration": 0.10768899999999348
                },
                {
                    "name": "G#5",
                    "midi": 80,
                    "time": 408.8951329999855,
                    "velocity": 0.6062992125984252,
                    "duration": 0.10768899999999348
                },
                {
                    "name": "G#4",
                    "midi": 68,
                    "time": 409.0028219999855,
                    "velocity": 0.5590551181102362,
                    "duration": 0.10768899999999348
                },
                {
                    "name": "C5",
                    "midi": 72,
                    "time": 409.0028219999855,
                    "velocity": 0.5590551181102362,
                    "duration": 0.10768899999999348
                },
                {
                    "name": "G#5",
                    "midi": 80,
                    "time": 409.1105109999855,
                    "velocity": 0.5748031496062992,
                    "duration": 0.10768899999999348
                },
                {
                    "name": "G#5",
                    "midi": 80,
                    "time": 409.32588899998547,
                    "velocity": 0.5905511811023622,
                    "duration": 0.10768899999999348
                },
                {
                    "name": "D5",
                    "midi": 74,
                    "time": 409.43357799998546,
                    "velocity": 0.5354330708661418,
                    "duration": 0.10768899999999348
                },
                {
                    "name": "G#4",
                    "midi": 68,
                    "time": 409.43357799998546,
                    "velocity": 0.5354330708661418,
                    "duration": 0.10768899999999348
                },
                {
                    "name": "G#5",
                    "midi": 80,
                    "time": 409.54126699998545,
                    "velocity": 0.5669291338582677,
                    "duration": 0.10768899999999348
                },
                {
                    "name": "G5",
                    "midi": 79,
                    "time": 409.75664499998544,
                    "velocity": 0.5748031496062992,
                    "duration": 0.10768899999999348
                },
                {
                    "name": "D5",
                    "midi": 74,
                    "time": 409.86433399998543,
                    "velocity": 0.5196850393700787,
                    "duration": 0.10768899999999348
                },
                {
                    "name": "G4",
                    "midi": 67,
                    "time": 409.86433399998543,
                    "velocity": 0.5196850393700787,
                    "duration": 0.10768899999999348
                },
                {
                    "name": "G5",
                    "midi": 79,
                    "time": 409.9720229999854,
                    "velocity": 0.5748031496062992,
                    "duration": 0.10768899999999348
                },
                {
                    "name": "F5",
                    "midi": 77,
                    "time": 410.1874009999854,
                    "velocity": 0.5590551181102362,
                    "duration": 0.10768899999999348
                },
                {
                    "name": "G#4",
                    "midi": 68,
                    "time": 410.2950899999854,
                    "velocity": 0.5196850393700787,
                    "duration": 0.10768899999999348
                },
                {
                    "name": "F4",
                    "midi": 65,
                    "time": 410.2950899999854,
                    "velocity": 0.5196850393700787,
                    "duration": 0.10768899999999348
                },
                {
                    "name": "F5",
                    "midi": 77,
                    "time": 410.4027789999854,
                    "velocity": 0.5590551181102362,
                    "duration": 0.10768899999999348
                },
                {
                    "name": "E5",
                    "midi": 76,
                    "time": 410.6181569999854,
                    "velocity": 0.5669291338582677,
                    "duration": 0.10768899999999348
                },
                {
                    "name": "G4",
                    "midi": 67,
                    "time": 410.7258459999854,
                    "velocity": 0.5196850393700787,
                    "duration": 0.10768899999999348
                },
                {
                    "name": "E4",
                    "midi": 64,
                    "time": 410.7258459999854,
                    "velocity": 0.5196850393700787,
                    "duration": 0.10768899999999348
                },
                {
                    "name": "E5",
                    "midi": 76,
                    "time": 410.8335349999854,
                    "velocity": 0.5433070866141733,
                    "duration": 0.10768899999999348
                },
                {
                    "name": "F4",
                    "midi": 65,
                    "time": 410.94122399998537,
                    "velocity": 0.5118110236220472,
                    "duration": 0.10768899999999348
                },
                {
                    "name": "G#4",
                    "midi": 68,
                    "time": 410.94122399998537,
                    "velocity": 0.5118110236220472,
                    "duration": 0.10768899999999348
                },
                {
                    "name": "F5",
                    "midi": 77,
                    "time": 410.94122399998537,
                    "velocity": 0.6062992125984252,
                    "duration": 0.10768899999999348
                },
                {
                    "name": "C4",
                    "midi": 60,
                    "time": 411.04891299998536,
                    "velocity": 0.5826771653543307,
                    "duration": 0.10768899999999348
                },
                {
                    "name": "F4",
                    "midi": 65,
                    "time": 411.15660199998536,
                    "velocity": 0.5984251968503937,
                    "duration": 0.10768899999999348
                },
                {
                    "name": "G#4",
                    "midi": 68,
                    "time": 411.26429099998535,
                    "velocity": 0.6141732283464567,
                    "duration": 0.10768899999999348
                },
                {
                    "name": "C5",
                    "midi": 72,
                    "time": 411.37197999998534,
                    "velocity": 0.6299212598425197,
                    "duration": 0.10768899999999348
                },
                {
                    "name": "C#5",
                    "midi": 73,
                    "time": 411.47966899998534,
                    "velocity": 0.5984251968503937,
                    "duration": 0.10768899999999348
                },
                {
                    "name": "C5",
                    "midi": 72,
                    "time": 411.58735799998533,
                    "velocity": 0.5984251968503937,
                    "duration": 0.10768899999999348
                },
                {
                    "name": "A#4",
                    "midi": 70,
                    "time": 411.6950469999853,
                    "velocity": 0.5984251968503937,
                    "duration": 0.10768899999999348
                },
                {
                    "name": "G#4",
                    "midi": 68,
                    "time": 411.8027359999853,
                    "velocity": 0.6062992125984252,
                    "duration": 0.10768899999999348
                },
                {
                    "name": "A#4",
                    "midi": 70,
                    "time": 411.9104249999853,
                    "velocity": 0.5590551181102362,
                    "duration": 0.10768899999999348
                },
                {
                    "name": "G#4",
                    "midi": 68,
                    "time": 412.0181139999853,
                    "velocity": 0.5669291338582677,
                    "duration": 0.10768899999999348
                },
                {
                    "name": "G4",
                    "midi": 67,
                    "time": 412.1258029999853,
                    "velocity": 0.5669291338582677,
                    "duration": 0.10768899999999348
                },
                {
                    "name": "F4",
                    "midi": 65,
                    "time": 412.2334919999853,
                    "velocity": 0.6141732283464567,
                    "duration": 0.10768899999999348
                },
                {
                    "name": "D#4",
                    "midi": 63,
                    "time": 412.3411809999853,
                    "velocity": 0.5748031496062992,
                    "duration": 0.10768899999999348
                },
                {
                    "name": "C#4",
                    "midi": 61,
                    "time": 412.4488699999853,
                    "velocity": 0.5748031496062992,
                    "duration": 0.10768899999999348
                },
                {
                    "name": "C4",
                    "midi": 60,
                    "time": 412.55655899998527,
                    "velocity": 0.5669291338582677,
                    "duration": 0.10768899999999348
                },
                {
                    "name": "A#3",
                    "midi": 58,
                    "time": 412.66424799998526,
                    "velocity": 0.5905511811023622,
                    "duration": 0.10768899999999348
                },
                {
                    "name": "G#3",
                    "midi": 56,
                    "time": 412.77193699998526,
                    "velocity": 0.5511811023622047,
                    "duration": 0.10768899999999348
                },
                {
                    "name": "F#3",
                    "midi": 54,
                    "time": 412.87962599998525,
                    "velocity": 0.5511811023622047,
                    "duration": 0.10768899999999348
                },
                {
                    "name": "F3",
                    "midi": 53,
                    "time": 412.98731499998524,
                    "velocity": 0.5511811023622047,
                    "duration": 0.10768899999999348
                },
                {
                    "name": "E3",
                    "midi": 52,
                    "time": 413.09500399998524,
                    "velocity": 0.5748031496062992,
                    "duration": 0.21537799999998697
                },
                {
                    "name": "C3",
                    "midi": 48,
                    "time": 413.3103819999852,
                    "velocity": 0.5433070866141733,
                    "duration": 0.16153350000001865
                },
                {
                    "name": "E3",
                    "midi": 52,
                    "time": 413.3103819999852,
                    "velocity": 0.5433070866141733,
                    "duration": 0.16153350000001865
                },
                {
                    "name": "F#3",
                    "midi": 54,
                    "time": 413.3103819999852,
                    "velocity": 0.5433070866141733,
                    "duration": 0.16153350000001865
                },
                {
                    "name": "C4",
                    "midi": 60,
                    "time": 413.3103819999852,
                    "velocity": 0.6456692913385826,
                    "duration": 0.16153350000001865
                },
                {
                    "name": "C3",
                    "midi": 48,
                    "time": 413.52575999998527,
                    "velocity": 0.48031496062992124,
                    "duration": 0.16153350000001865
                },
                {
                    "name": "E3",
                    "midi": 52,
                    "time": 413.52575999998527,
                    "velocity": 0.48031496062992124,
                    "duration": 0.16153350000001865
                },
                {
                    "name": "A#3",
                    "midi": 58,
                    "time": 413.52575999998527,
                    "velocity": 0.5748031496062992,
                    "duration": 0.16153350000001865
                },
                {
                    "name": "C4",
                    "midi": 60,
                    "time": 413.52575999998527,
                    "velocity": 0.5748031496062992,
                    "duration": 0.16153350000001865
                },
                {
                    "name": "C3",
                    "midi": 48,
                    "time": 413.7411379999853,
                    "velocity": 0.47244094488188976,
                    "duration": 0.16153350000001865
                },
                {
                    "name": "E3",
                    "midi": 52,
                    "time": 413.7411379999853,
                    "velocity": 0.47244094488188976,
                    "duration": 0.16153350000001865
                },
                {
                    "name": "A#3",
                    "midi": 58,
                    "time": 413.7411379999853,
                    "velocity": 0.5590551181102362,
                    "duration": 0.16153350000001865
                },
                {
                    "name": "C4",
                    "midi": 60,
                    "time": 413.7411379999853,
                    "velocity": 0.5590551181102362,
                    "duration": 0.16153350000001865
                },
                {
                    "name": "C3",
                    "midi": 48,
                    "time": 413.95651599998536,
                    "velocity": 0.48031496062992124,
                    "duration": 0.16153350000001865
                },
                {
                    "name": "E3",
                    "midi": 52,
                    "time": 413.95651599998536,
                    "velocity": 0.48031496062992124,
                    "duration": 0.16153350000001865
                },
                {
                    "name": "A#3",
                    "midi": 58,
                    "time": 413.95651599998536,
                    "velocity": 0.5669291338582677,
                    "duration": 0.16153350000001865
                },
                {
                    "name": "C4",
                    "midi": 60,
                    "time": 413.95651599998536,
                    "velocity": 0.5669291338582677,
                    "duration": 0.16153350000001865
                },
                {
                    "name": "C3",
                    "midi": 48,
                    "time": 414.1718939999854,
                    "velocity": 0.48031496062992124,
                    "duration": 0.16153350000001865
                },
                {
                    "name": "E3",
                    "midi": 52,
                    "time": 414.1718939999854,
                    "velocity": 0.48031496062992124,
                    "duration": 0.16153350000001865
                },
                {
                    "name": "A#3",
                    "midi": 58,
                    "time": 414.1718939999854,
                    "velocity": 0.5669291338582677,
                    "duration": 0.16153350000001865
                },
                {
                    "name": "C4",
                    "midi": 60,
                    "time": 414.1718939999854,
                    "velocity": 0.5669291338582677,
                    "duration": 0.16153350000001865
                },
                {
                    "name": "C3",
                    "midi": 48,
                    "time": 414.38727199998544,
                    "velocity": 0.6062992125984252,
                    "duration": 0.10768899999999348
                },
                {
                    "name": "F3",
                    "midi": 53,
                    "time": 414.38727199998544,
                    "velocity": 0.6062992125984252,
                    "duration": 0.10768899999999348
                },
                {
                    "name": "G#3",
                    "midi": 56,
                    "time": 414.38727199998544,
                    "velocity": 0.6062992125984252,
                    "duration": 0.10768899999999348
                },
                {
                    "name": "C4",
                    "midi": 60,
                    "time": 414.38727199998544,
                    "velocity": 0.6062992125984252,
                    "duration": 0.10768899999999348
                },
                {
                    "name": "C5",
                    "midi": 72,
                    "time": 414.49496099998544,
                    "velocity": 0.5826771653543307,
                    "duration": 0.10768899999999348
                },
                {
                    "name": "F5",
                    "midi": 77,
                    "time": 414.60264999998543,
                    "velocity": 0.5984251968503937,
                    "duration": 0.10768899999999348
                },
                {
                    "name": "G#5",
                    "midi": 80,
                    "time": 414.7103389999854,
                    "velocity": 0.6141732283464567,
                    "duration": 0.10768899999999348
                },
                {
                    "name": "C6",
                    "midi": 84,
                    "time": 414.8180279999854,
                    "velocity": 0.6299212598425197,
                    "duration": 0.10768899999999348
                },
                {
                    "name": "C#6",
                    "midi": 85,
                    "time": 414.9257169999854,
                    "velocity": 0.5984251968503937,
                    "duration": 0.10768899999999348
                },
                {
                    "name": "C6",
                    "midi": 84,
                    "time": 415.0334059999854,
                    "velocity": 0.5984251968503937,
                    "duration": 0.10768899999999348
                },
                {
                    "name": "A#5",
                    "midi": 82,
                    "time": 415.1410949999854,
                    "velocity": 0.5984251968503937,
                    "duration": 0.10768899999999348
                },
                {
                    "name": "G#5",
                    "midi": 80,
                    "time": 415.2487839999854,
                    "velocity": 0.6062992125984252,
                    "duration": 0.10768899999999348
                },
                {
                    "name": "A#5",
                    "midi": 82,
                    "time": 415.3564729999854,
                    "velocity": 0.5590551181102362,
                    "duration": 0.10768899999999348
                },
                {
                    "name": "G#5",
                    "midi": 80,
                    "time": 415.4641619999854,
                    "velocity": 0.5669291338582677,
                    "duration": 0.10768899999999348
                },
                {
                    "name": "G5",
                    "midi": 79,
                    "time": 415.5718509999854,
                    "velocity": 0.5669291338582677,
                    "duration": 0.10768899999999348
                },
                {
                    "name": "F5",
                    "midi": 77,
                    "time": 415.67953999998537,
                    "velocity": 0.6141732283464567,
                    "duration": 0.10768899999999348
                },
                {
                    "name": "D#5",
                    "midi": 75,
                    "time": 415.78722899998536,
                    "velocity": 0.5748031496062992,
                    "duration": 0.10768899999999348
                },
                {
                    "name": "C#5",
                    "midi": 73,
                    "time": 415.89491799998535,
                    "velocity": 0.5748031496062992,
                    "duration": 0.10768899999999348
                },
                {
                    "name": "C5",
                    "midi": 72,
                    "time": 416.00260699998535,
                    "velocity": 0.5669291338582677,
                    "duration": 0.10768899999999348
                },
                {
                    "name": "A#4",
                    "midi": 70,
                    "time": 416.11029599998534,
                    "velocity": 0.5905511811023622,
                    "duration": 0.10768899999999348
                },
                {
                    "name": "G#4",
                    "midi": 68,
                    "time": 416.21798499998533,
                    "velocity": 0.5511811023622047,
                    "duration": 0.10768899999999348
                },
                {
                    "name": "G4",
                    "midi": 67,
                    "time": 416.3256739999853,
                    "velocity": 0.5511811023622047,
                    "duration": 0.10768899999999348
                },
                {
                    "name": "F4",
                    "midi": 65,
                    "time": 416.4333629999853,
                    "velocity": 0.5511811023622047,
                    "duration": 0.10768899999999348
                },
                {
                    "name": "E4",
                    "midi": 64,
                    "time": 416.5410519999853,
                    "velocity": 0.5748031496062992,
                    "duration": 0.21537799999998697
                },
                {
                    "name": "C4",
                    "midi": 60,
                    "time": 416.7564299999853,
                    "velocity": 0.4566929133858268,
                    "duration": 0.16153350000001865
                },
                {
                    "name": "E4",
                    "midi": 64,
                    "time": 416.7564299999853,
                    "velocity": 0.5433070866141733,
                    "duration": 0.16153350000001865
                },
                {
                    "name": "G4",
                    "midi": 67,
                    "time": 416.7564299999853,
                    "velocity": 0.5433070866141733,
                    "duration": 0.16153350000001865
                },
                {
                    "name": "C5",
                    "midi": 72,
                    "time": 416.7564299999853,
                    "velocity": 0.6456692913385826,
                    "duration": 0.16153350000001865
                },
                {
                    "name": "C4",
                    "midi": 60,
                    "time": 416.97180799998534,
                    "velocity": 0.4015748031496063,
                    "duration": 0.16153350000001865
                },
                {
                    "name": "E4",
                    "midi": 64,
                    "time": 416.97180799998534,
                    "velocity": 0.48031496062992124,
                    "duration": 0.16153350000001865
                },
                {
                    "name": "A#4",
                    "midi": 70,
                    "time": 416.97180799998534,
                    "velocity": 0.5748031496062992,
                    "duration": 0.16153350000001865
                },
                {
                    "name": "C5",
                    "midi": 72,
                    "time": 416.97180799998534,
                    "velocity": 0.5748031496062992,
                    "duration": 0.16153350000001865
                },
                {
                    "name": "C4",
                    "midi": 60,
                    "time": 417.1871859999854,
                    "velocity": 0.3937007874015748,
                    "duration": 0.16153350000001865
                },
                {
                    "name": "E4",
                    "midi": 64,
                    "time": 417.1871859999854,
                    "velocity": 0.4645669291338583,
                    "duration": 0.16153350000001865
                },
                {
                    "name": "A#4",
                    "midi": 70,
                    "time": 417.1871859999854,
                    "velocity": 0.5511811023622047,
                    "duration": 0.16153350000001865
                },
                {
                    "name": "C5",
                    "midi": 72,
                    "time": 417.1871859999854,
                    "velocity": 0.5511811023622047,
                    "duration": 0.16153350000001865
                },
                {
                    "name": "C4",
                    "midi": 60,
                    "time": 417.40256399998543,
                    "velocity": 0.4015748031496063,
                    "duration": 0.16153350000001865
                },
                {
                    "name": "E4",
                    "midi": 64,
                    "time": 417.40256399998543,
                    "velocity": 0.48031496062992124,
                    "duration": 0.16153350000001865
                },
                {
                    "name": "A#4",
                    "midi": 70,
                    "time": 417.40256399998543,
                    "velocity": 0.5748031496062992,
                    "duration": 0.16153350000001865
                },
                {
                    "name": "C5",
                    "midi": 72,
                    "time": 417.40256399998543,
                    "velocity": 0.5748031496062992,
                    "duration": 0.16153350000001865
                },
                {
                    "name": "C4",
                    "midi": 60,
                    "time": 417.6179419999855,
                    "velocity": 0.4015748031496063,
                    "duration": 0.16153350000001865
                },
                {
                    "name": "E4",
                    "midi": 64,
                    "time": 417.6179419999855,
                    "velocity": 0.47244094488188976,
                    "duration": 0.16153350000001865
                },
                {
                    "name": "A#4",
                    "midi": 70,
                    "time": 417.6179419999855,
                    "velocity": 0.5590551181102362,
                    "duration": 0.16153350000001865
                },
                {
                    "name": "C5",
                    "midi": 72,
                    "time": 417.6179419999855,
                    "velocity": 0.5590551181102362,
                    "duration": 0.16153350000001865
                },
                {
                    "name": "C4",
                    "midi": 60,
                    "time": 417.8333199999855,
                    "velocity": 0.4015748031496063,
                    "duration": 0.21537799999998697
                },
                {
                    "name": "F4",
                    "midi": 65,
                    "time": 417.8333199999855,
                    "velocity": 0.48031496062992124,
                    "duration": 0.21537799999998697
                },
                {
                    "name": "G#4",
                    "midi": 68,
                    "time": 417.8333199999855,
                    "velocity": 0.5748031496062992,
                    "duration": 0.21537799999998697
                },
                {
                    "name": "C5",
                    "midi": 72,
                    "time": 417.8333199999855,
                    "velocity": 0.5748031496062992,
                    "duration": 0.21537799999998697
                },
                {
                    "name": "C5",
                    "midi": 72,
                    "time": 418.4794539999855,
                    "velocity": 0.49606299212598426,
                    "duration": 0.16153350000001865
                },
                {
                    "name": "F5",
                    "midi": 77,
                    "time": 418.4794539999855,
                    "velocity": 0.5905511811023622,
                    "duration": 0.16153350000001865
                },
                {
                    "name": "G#5",
                    "midi": 80,
                    "time": 418.4794539999855,
                    "velocity": 0.5905511811023622,
                    "duration": 0.16153350000001865
                },
                {
                    "name": "C6",
                    "midi": 84,
                    "time": 418.4794539999855,
                    "velocity": 0.7086614173228346,
                    "duration": 0.16153350000001865
                },
                {
                    "name": "C5",
                    "midi": 72,
                    "time": 418.6948319999855,
                    "velocity": 0.4409448818897638,
                    "duration": 0.16153350000001865
                },
                {
                    "name": "E5",
                    "midi": 76,
                    "time": 418.6948319999855,
                    "velocity": 0.5275590551181102,
                    "duration": 0.16153350000001865
                },
                {
                    "name": "A#5",
                    "midi": 82,
                    "time": 418.6948319999855,
                    "velocity": 0.6299212598425197,
                    "duration": 0.16153350000001865
                },
                {
                    "name": "C6",
                    "midi": 84,
                    "time": 418.6948319999855,
                    "velocity": 0.6299212598425197,
                    "duration": 0.16153350000001865
                },
                {
                    "name": "C5",
                    "midi": 72,
                    "time": 418.91020999998557,
                    "velocity": 0.4330708661417323,
                    "duration": 0.16153350000001865
                },
                {
                    "name": "E5",
                    "midi": 76,
                    "time": 418.91020999998557,
                    "velocity": 0.5039370078740157,
                    "duration": 0.16153350000001865
                },
                {
                    "name": "A#5",
                    "midi": 82,
                    "time": 418.91020999998557,
                    "velocity": 0.6062992125984252,
                    "duration": 0.16153350000001865
                },
                {
                    "name": "C6",
                    "midi": 84,
                    "time": 418.91020999998557,
                    "velocity": 0.6062992125984252,
                    "duration": 0.16153350000001865
                },
                {
                    "name": "C5",
                    "midi": 72,
                    "time": 419.1255879999856,
                    "velocity": 0.4409448818897638,
                    "duration": 0.16153350000001865
                },
                {
                    "name": "E5",
                    "midi": 76,
                    "time": 419.1255879999856,
                    "velocity": 0.5275590551181102,
                    "duration": 0.16153350000001865
                },
                {
                    "name": "A#5",
                    "midi": 82,
                    "time": 419.1255879999856,
                    "velocity": 0.6299212598425197,
                    "duration": 0.16153350000001865
                },
                {
                    "name": "C6",
                    "midi": 84,
                    "time": 419.1255879999856,
                    "velocity": 0.6299212598425197,
                    "duration": 0.16153350000001865
                },
                {
                    "name": "C5",
                    "midi": 72,
                    "time": 419.34096599998566,
                    "velocity": 0.4409448818897638,
                    "duration": 0.16153350000001865
                },
                {
                    "name": "E5",
                    "midi": 76,
                    "time": 419.34096599998566,
                    "velocity": 0.5196850393700787,
                    "duration": 0.16153350000001865
                },
                {
                    "name": "A#5",
                    "midi": 82,
                    "time": 419.34096599998566,
                    "velocity": 0.6141732283464567,
                    "duration": 0.16153350000001865
                },
                {
                    "name": "C6",
                    "midi": 84,
                    "time": 419.34096599998566,
                    "velocity": 0.6141732283464567,
                    "duration": 0.16153350000001865
                },
                {
                    "name": "C5",
                    "midi": 72,
                    "time": 419.5563439999857,
                    "velocity": 0.4409448818897638,
                    "duration": 0.16153350000001865
                },
                {
                    "name": "F5",
                    "midi": 77,
                    "time": 419.5563439999857,
                    "velocity": 0.5275590551181102,
                    "duration": 0.16153350000001865
                },
                {
                    "name": "G#5",
                    "midi": 80,
                    "time": 419.5563439999857,
                    "velocity": 0.6299212598425197,
                    "duration": 0.16153350000001865
                },
                {
                    "name": "C6",
                    "midi": 84,
                    "time": 419.5563439999857,
                    "velocity": 0.6299212598425197,
                    "duration": 0.16153350000001865
                },
                {
                    "name": "C4",
                    "midi": 60,
                    "time": 420.2024779999857,
                    "velocity": 0.4566929133858268,
                    "duration": 0.16153350000001865
                },
                {
                    "name": "F4",
                    "midi": 65,
                    "time": 420.2024779999857,
                    "velocity": 0.5433070866141733,
                    "duration": 0.16153350000001865
                },
                {
                    "name": "G#4",
                    "midi": 68,
                    "time": 420.2024779999857,
                    "velocity": 0.5433070866141733,
                    "duration": 0.16153350000001865
                },
                {
                    "name": "C5",
                    "midi": 72,
                    "time": 420.2024779999857,
                    "velocity": 0.6456692913385826,
                    "duration": 0.16153350000001865
                },
                {
                    "name": "C4",
                    "midi": 60,
                    "time": 420.41785599998576,
                    "velocity": 0.4015748031496063,
                    "duration": 0.16153350000001865
                },
                {
                    "name": "E4",
                    "midi": 64,
                    "time": 420.41785599998576,
                    "velocity": 0.48031496062992124,
                    "duration": 0.16153350000001865
                },
                {
                    "name": "A#4",
                    "midi": 70,
                    "time": 420.41785599998576,
                    "velocity": 0.5748031496062992,
                    "duration": 0.16153350000001865
                },
                {
                    "name": "C5",
                    "midi": 72,
                    "time": 420.41785599998576,
                    "velocity": 0.5748031496062992,
                    "duration": 0.16153350000001865
                },
                {
                    "name": "C4",
                    "midi": 60,
                    "time": 420.6332339999858,
                    "velocity": 0.3937007874015748,
                    "duration": 0.16153350000001865
                },
                {
                    "name": "E4",
                    "midi": 64,
                    "time": 420.6332339999858,
                    "velocity": 0.4645669291338583,
                    "duration": 0.16153350000001865
                },
                {
                    "name": "A#4",
                    "midi": 70,
                    "time": 420.6332339999858,
                    "velocity": 0.5511811023622047,
                    "duration": 0.16153350000001865
                },
                {
                    "name": "C5",
                    "midi": 72,
                    "time": 420.6332339999858,
                    "velocity": 0.5511811023622047,
                    "duration": 0.16153350000001865
                },
                {
                    "name": "C4",
                    "midi": 60,
                    "time": 420.84861199998585,
                    "velocity": 0.4015748031496063,
                    "duration": 0.16153350000001865
                },
                {
                    "name": "E4",
                    "midi": 64,
                    "time": 420.84861199998585,
                    "velocity": 0.48031496062992124,
                    "duration": 0.16153350000001865
                },
                {
                    "name": "A#4",
                    "midi": 70,
                    "time": 420.84861199998585,
                    "velocity": 0.5748031496062992,
                    "duration": 0.16153350000001865
                },
                {
                    "name": "C5",
                    "midi": 72,
                    "time": 420.84861199998585,
                    "velocity": 0.5748031496062992,
                    "duration": 0.16153350000001865
                },
                {
                    "name": "C4",
                    "midi": 60,
                    "time": 421.0639899999859,
                    "velocity": 0.4015748031496063,
                    "duration": 0.16153350000001865
                },
                {
                    "name": "E4",
                    "midi": 64,
                    "time": 421.0639899999859,
                    "velocity": 0.47244094488188976,
                    "duration": 0.16153350000001865
                },
                {
                    "name": "A#4",
                    "midi": 70,
                    "time": 421.0639899999859,
                    "velocity": 0.5590551181102362,
                    "duration": 0.16153350000001865
                },
                {
                    "name": "C5",
                    "midi": 72,
                    "time": 421.0639899999859,
                    "velocity": 0.5590551181102362,
                    "duration": 0.16153350000001865
                },
                {
                    "name": "C4",
                    "midi": 60,
                    "time": 421.27936799998594,
                    "velocity": 0.5748031496062992,
                    "duration": 0.10768899999999348
                },
                {
                    "name": "F4",
                    "midi": 65,
                    "time": 421.27936799998594,
                    "velocity": 0.5748031496062992,
                    "duration": 0.10768899999999348
                },
                {
                    "name": "G#4",
                    "midi": 68,
                    "time": 421.27936799998594,
                    "velocity": 0.5748031496062992,
                    "duration": 0.10768899999999348
                },
                {
                    "name": "C5",
                    "midi": 72,
                    "time": 421.27936799998594,
                    "velocity": 0.5748031496062992,
                    "duration": 0.10768899999999348
                },
                {
                    "name": "G4",
                    "midi": 67,
                    "time": 421.38705699998593,
                    "velocity": 0.5826771653543307,
                    "duration": 0.10768899999999348
                },
                {
                    "name": "G#4",
                    "midi": 68,
                    "time": 421.4947459999859,
                    "velocity": 0.5905511811023622,
                    "duration": 0.10768899999999348
                },
                {
                    "name": "A#4",
                    "midi": 70,
                    "time": 421.6024349999859,
                    "velocity": 0.5984251968503937,
                    "duration": 0.10768899999999348
                },
                {
                    "name": "C5",
                    "midi": 72,
                    "time": 421.7101239999859,
                    "velocity": 0.6062992125984252,
                    "duration": 0.10768899999999348
                },
                {
                    "name": "D5",
                    "midi": 74,
                    "time": 421.8178129999859,
                    "velocity": 0.6141732283464567,
                    "duration": 0.10768899999999348
                },
                {
                    "name": "E5",
                    "midi": 76,
                    "time": 421.9255019999859,
                    "velocity": 0.6220472440944882,
                    "duration": 0.10768899999999348
                },
                {
                    "name": "F5",
                    "midi": 77,
                    "time": 422.0331909999859,
                    "velocity": 0.6299212598425197,
                    "duration": 0.10768899999999348
                },
                {
                    "name": "G5",
                    "midi": 79,
                    "time": 422.1408799999859,
                    "velocity": 0.6299212598425197,
                    "duration": 0.10768899999999348
                },
                {
                    "name": "F5",
                    "midi": 77,
                    "time": 422.2485689999859,
                    "velocity": 0.6220472440944882,
                    "duration": 0.10768899999999348
                },
                {
                    "name": "E5",
                    "midi": 76,
                    "time": 422.35625799998587,
                    "velocity": 0.6220472440944882,
                    "duration": 0.10768899999999348
                },
                {
                    "name": "C#5",
                    "midi": 73,
                    "time": 422.46394699998586,
                    "velocity": 0.6141732283464567,
                    "duration": 0.10768899999999348
                },
                {
                    "name": "C5",
                    "midi": 72,
                    "time": 422.57163599998586,
                    "velocity": 0.6062992125984252,
                    "duration": 0.10768899999999348
                },
                {
                    "name": "A#4",
                    "midi": 70,
                    "time": 422.67932499998585,
                    "velocity": 0.5984251968503937,
                    "duration": 0.10768899999999348
                },
                {
                    "name": "G#4",
                    "midi": 68,
                    "time": 422.78701399998585,
                    "velocity": 0.5905511811023622,
                    "duration": 0.10768899999999348
                },
                {
                    "name": "G4",
                    "midi": 67,
                    "time": 422.89470299998584,
                    "velocity": 0.5826771653543307,
                    "duration": 0.10768899999999348
                },
                {
                    "name": "F4",
                    "midi": 65,
                    "time": 423.00239199998583,
                    "velocity": 0.5748031496062992,
                    "duration": 0.10768899999999348
                },
                {
                    "name": "G4",
                    "midi": 67,
                    "time": 423.1100809999858,
                    "velocity": 0.5826771653543307,
                    "duration": 0.10768899999999348
                },
                {
                    "name": "G#4",
                    "midi": 68,
                    "time": 423.2177699999858,
                    "velocity": 0.5905511811023622,
                    "duration": 0.10768899999999348
                },
                {
                    "name": "A#4",
                    "midi": 70,
                    "time": 423.3254589999858,
                    "velocity": 0.5984251968503937,
                    "duration": 0.10768899999999348
                },
                {
                    "name": "C5",
                    "midi": 72,
                    "time": 423.4331479999858,
                    "velocity": 0.6062992125984252,
                    "duration": 0.10768899999999348
                },
                {
                    "name": "D5",
                    "midi": 74,
                    "time": 423.5408369999858,
                    "velocity": 0.6141732283464567,
                    "duration": 0.10768899999999348
                },
                {
                    "name": "E5",
                    "midi": 76,
                    "time": 423.6485259999858,
                    "velocity": 0.6220472440944882,
                    "duration": 0.10768899999999348
                },
                {
                    "name": "F5",
                    "midi": 77,
                    "time": 423.7562149999858,
                    "velocity": 0.6299212598425197,
                    "duration": 0.10768899999999348
                },
                {
                    "name": "G5",
                    "midi": 79,
                    "time": 423.8639039999858,
                    "velocity": 0.6299212598425197,
                    "duration": 0.10768899999999348
                },
                {
                    "name": "F5",
                    "midi": 77,
                    "time": 423.9715929999858,
                    "velocity": 0.6220472440944882,
                    "duration": 0.10768899999999348
                },
                {
                    "name": "E5",
                    "midi": 76,
                    "time": 424.07928199998577,
                    "velocity": 0.6220472440944882,
                    "duration": 0.10768899999999348
                },
                {
                    "name": "C#5",
                    "midi": 73,
                    "time": 424.18697099998576,
                    "velocity": 0.6141732283464567,
                    "duration": 0.10768899999999348
                },
                {
                    "name": "C5",
                    "midi": 72,
                    "time": 424.29465999998575,
                    "velocity": 0.6062992125984252,
                    "duration": 0.10768899999999348
                },
                {
                    "name": "A#4",
                    "midi": 70,
                    "time": 424.40234899998575,
                    "velocity": 0.5984251968503937,
                    "duration": 0.10768899999999348
                },
                {
                    "name": "G#4",
                    "midi": 68,
                    "time": 424.51003799998574,
                    "velocity": 0.5905511811023622,
                    "duration": 0.10768899999999348
                },
                {
                    "name": "G4",
                    "midi": 67,
                    "time": 424.61772699998573,
                    "velocity": 0.5826771653543307,
                    "duration": 0.10768899999999348
                },
                {
                    "name": "F4",
                    "midi": 65,
                    "time": 424.7254159999857,
                    "velocity": 0.5748031496062992,
                    "duration": 0.10768899999999348
                },
                {
                    "name": "G4",
                    "midi": 67,
                    "time": 424.8331049999857,
                    "velocity": 0.5826771653543307,
                    "duration": 0.10768899999999348
                },
                {
                    "name": "G#4",
                    "midi": 68,
                    "time": 424.9407939999857,
                    "velocity": 0.5905511811023622,
                    "duration": 0.10768899999999348
                },
                {
                    "name": "A#4",
                    "midi": 70,
                    "time": 425.0484829999857,
                    "velocity": 0.5984251968503937,
                    "duration": 0.10768899999999348
                },
                {
                    "name": "C5",
                    "midi": 72,
                    "time": 425.1561719999857,
                    "velocity": 0.6062992125984252,
                    "duration": 0.10768899999999348
                },
                {
                    "name": "D5",
                    "midi": 74,
                    "time": 425.2638609999857,
                    "velocity": 0.6141732283464567,
                    "duration": 0.10768899999999348
                },
                {
                    "name": "E5",
                    "midi": 76,
                    "time": 425.3715499999857,
                    "velocity": 0.6220472440944882,
                    "duration": 0.10768899999999348
                },
                {
                    "name": "F5",
                    "midi": 77,
                    "time": 425.4792389999857,
                    "velocity": 0.6299212598425197,
                    "duration": 0.10768899999999348
                },
                {
                    "name": "G5",
                    "midi": 79,
                    "time": 425.5869279999857,
                    "velocity": 0.6299212598425197,
                    "duration": 0.10768899999999348
                },
                {
                    "name": "F#5",
                    "midi": 78,
                    "time": 425.69461699998567,
                    "velocity": 0.5984251968503937,
                    "duration": 0.10768899999999348
                },
                {
                    "name": "G5",
                    "midi": 79,
                    "time": 425.80230599998566,
                    "velocity": 0.6220472440944882,
                    "duration": 0.10768899999999348
                },
                {
                    "name": "F#5",
                    "midi": 78,
                    "time": 425.90999499998566,
                    "velocity": 0.5748031496062992,
                    "duration": 0.10768899999999348
                },
                {
                    "name": "G5",
                    "midi": 79,
                    "time": 426.01768399998565,
                    "velocity": 0.6062992125984252,
                    "duration": 0.10768899999999348
                },
                {
                    "name": "F#5",
                    "midi": 78,
                    "time": 426.12537299998564,
                    "velocity": 0.5669291338582677,
                    "duration": 0.10768899999999348
                },
                {
                    "name": "G5",
                    "midi": 79,
                    "time": 426.23306199998564,
                    "velocity": 0.5905511811023622,
                    "duration": 0.10768899999999348
                },
                {
                    "name": "F#5",
                    "midi": 78,
                    "time": 426.34075099998563,
                    "velocity": 0.5511811023622047,
                    "duration": 0.10768899999999348
                },
                {
                    "name": "G5",
                    "midi": 79,
                    "time": 426.4484399999856,
                    "velocity": 0.6062992125984252,
                    "duration": 0.10768899999999348
                },
                {
                    "name": "F#5",
                    "midi": 78,
                    "time": 426.5561289999856,
                    "velocity": 0.5669291338582677,
                    "duration": 0.10768899999999348
                },
                {
                    "name": "G5",
                    "midi": 79,
                    "time": 426.6638179999856,
                    "velocity": 0.5984251968503937,
                    "duration": 0.10768899999999348
                },
                {
                    "name": "F#5",
                    "midi": 78,
                    "time": 426.7715069999856,
                    "velocity": 0.5669291338582677,
                    "duration": 0.10768899999999348
                },
                {
                    "name": "G5",
                    "midi": 79,
                    "time": 426.8791959999856,
                    "velocity": 0.5905511811023622,
                    "duration": 0.10768899999999348
                },
                {
                    "name": "F#5",
                    "midi": 78,
                    "time": 426.9868849999856,
                    "velocity": 0.5590551181102362,
                    "duration": 0.10768899999999348
                },
                {
                    "name": "G5",
                    "midi": 79,
                    "time": 427.0945739999856,
                    "velocity": 0.5826771653543307,
                    "duration": 0.10768899999999348
                },
                {
                    "name": "F#5",
                    "midi": 78,
                    "time": 427.2022629999856,
                    "velocity": 0.5590551181102362,
                    "duration": 0.10768899999999348
                },
                {
                    "name": "G5",
                    "midi": 79,
                    "time": 427.30995199998557,
                    "velocity": 0.6299212598425197,
                    "duration": 0.10768899999999348
                },
                {
                    "name": "F5",
                    "midi": 77,
                    "time": 427.41764099998557,
                    "velocity": 0.6220472440944882,
                    "duration": 0.10768899999999348
                },
                {
                    "name": "E5",
                    "midi": 76,
                    "time": 427.52532999998556,
                    "velocity": 0.6220472440944882,
                    "duration": 0.10768899999999348
                },
                {
                    "name": "C#5",
                    "midi": 73,
                    "time": 427.63301899998555,
                    "velocity": 0.6141732283464567,
                    "duration": 0.10768899999999348
                },
                {
                    "name": "C5",
                    "midi": 72,
                    "time": 427.74070799998555,
                    "velocity": 0.6062992125984252,
                    "duration": 0.10768899999999348
                },
                {
                    "name": "A#4",
                    "midi": 70,
                    "time": 427.84839699998554,
                    "velocity": 0.5984251968503937,
                    "duration": 0.10768899999999348
                },
                {
                    "name": "G#4",
                    "midi": 68,
                    "time": 427.95608599998553,
                    "velocity": 0.5905511811023622,
                    "duration": 0.10768899999999348
                },
                {
                    "name": "G4",
                    "midi": 67,
                    "time": 428.0637749999855,
                    "velocity": 0.5826771653543307,
                    "duration": 0.10768899999999348
                },
                {
                    "name": "G#3",
                    "midi": 56,
                    "time": 428.1714639999855,
                    "velocity": 0.7401574803149606,
                    "duration": 0.8615120000000047
                },
                {
                    "name": "C4",
                    "midi": 60,
                    "time": 428.1714639999855,
                    "velocity": 0.7401574803149606,
                    "duration": 0.8615120000000047
                },
                {
                    "name": "F4",
                    "midi": 65,
                    "time": 428.1714639999855,
                    "velocity": 0.8740157480314961,
                    "duration": 0.8615120000000047
                },
                {
                    "name": "G#3",
                    "midi": 56,
                    "time": 429.0329759999855,
                    "velocity": 0.6929133858267716,
                    "duration": 0.8615120000000047
                },
                {
                    "name": "C4",
                    "midi": 60,
                    "time": 429.0329759999855,
                    "velocity": 0.6929133858267716,
                    "duration": 0.8615120000000047
                },
                {
                    "name": "G#4",
                    "midi": 68,
                    "time": 429.0329759999855,
                    "velocity": 0.8267716535433071,
                    "duration": 0.8615120000000047
                },
                {
                    "name": "G3",
                    "midi": 55,
                    "time": 429.89448799998553,
                    "velocity": 0.3937007874015748,
                    "duration": 0.10768899999999348
                },
                {
                    "name": "A#3",
                    "midi": 58,
                    "time": 429.89448799998553,
                    "velocity": 0.3937007874015748,
                    "duration": 0.10768899999999348
                },
                {
                    "name": "G4",
                    "midi": 67,
                    "time": 429.89448799998553,
                    "velocity": 0.3937007874015748,
                    "duration": 0.10768899999999348
                },
                {
                    "name": "G3",
                    "midi": 55,
                    "time": 430.1098659999855,
                    "velocity": 0.3937007874015748,
                    "duration": 0.10768899999999348
                },
                {
                    "name": "A#3",
                    "midi": 58,
                    "time": 430.1098659999855,
                    "velocity": 0.3937007874015748,
                    "duration": 0.10768899999999348
                },
                {
                    "name": "E4",
                    "midi": 64,
                    "time": 430.1098659999855,
                    "velocity": 0.3937007874015748,
                    "duration": 0.10768899999999348
                },
                {
                    "name": "G3",
                    "midi": 55,
                    "time": 430.3252439999855,
                    "velocity": 0.36220472440944884,
                    "duration": 0.10768899999999348
                },
                {
                    "name": "A#3",
                    "midi": 58,
                    "time": 430.3252439999855,
                    "velocity": 0.36220472440944884,
                    "duration": 0.10768899999999348
                },
                {
                    "name": "C4",
                    "midi": 60,
                    "time": 430.3252439999855,
                    "velocity": 0.36220472440944884,
                    "duration": 0.10768899999999348
                },
                {
                    "name": "G3",
                    "midi": 55,
                    "time": 430.5406219999855,
                    "velocity": 0.36220472440944884,
                    "duration": 0.10768899999999348
                },
                {
                    "name": "A#3",
                    "midi": 58,
                    "time": 430.5406219999855,
                    "velocity": 0.36220472440944884,
                    "duration": 0.10768899999999348
                },
                {
                    "name": "E4",
                    "midi": 64,
                    "time": 430.5406219999855,
                    "velocity": 0.36220472440944884,
                    "duration": 0.10768899999999348
                },
                {
                    "name": "G#3",
                    "midi": 56,
                    "time": 430.7559999999855,
                    "velocity": 0.3937007874015748,
                    "duration": 0.10768899999999348
                },
                {
                    "name": "C4",
                    "midi": 60,
                    "time": 430.7559999999855,
                    "velocity": 0.3937007874015748,
                    "duration": 0.10768899999999348
                },
                {
                    "name": "F4",
                    "midi": 65,
                    "time": 430.7559999999855,
                    "velocity": 0.3937007874015748,
                    "duration": 0.10768899999999348
                },
                {
                    "name": "G#3",
                    "midi": 56,
                    "time": 430.97137799998546,
                    "velocity": 0.3700787401574803,
                    "duration": 0.10768899999999348
                },
                {
                    "name": "C4",
                    "midi": 60,
                    "time": 430.97137799998546,
                    "velocity": 0.3700787401574803,
                    "duration": 0.10768899999999348
                },
                {
                    "name": "G#3",
                    "midi": 56,
                    "time": 431.18675599998545,
                    "velocity": 0.3700787401574803,
                    "duration": 0.10768899999999348
                },
                {
                    "name": "C4",
                    "midi": 60,
                    "time": 431.18675599998545,
                    "velocity": 0.3700787401574803,
                    "duration": 0.10768899999999348
                },
                {
                    "name": "F4",
                    "midi": 65,
                    "time": 431.18675599998545,
                    "velocity": 0.3700787401574803,
                    "duration": 0.10768899999999348
                },
                {
                    "name": "G#3",
                    "midi": 56,
                    "time": 431.40213399998544,
                    "velocity": 0.3700787401574803,
                    "duration": 0.10768899999999348
                },
                {
                    "name": "C4",
                    "midi": 60,
                    "time": 431.40213399998544,
                    "velocity": 0.3700787401574803,
                    "duration": 0.10768899999999348
                },
                {
                    "name": "G#4",
                    "midi": 68,
                    "time": 431.40213399998544,
                    "velocity": 0.3700787401574803,
                    "duration": 0.10768899999999348
                },
                {
                    "name": "G3",
                    "midi": 55,
                    "time": 431.6175119999854,
                    "velocity": 0.3937007874015748,
                    "duration": 0.10768899999999348
                },
                {
                    "name": "A#3",
                    "midi": 58,
                    "time": 431.6175119999854,
                    "velocity": 0.3937007874015748,
                    "duration": 0.10768899999999348
                },
                {
                    "name": "G4",
                    "midi": 67,
                    "time": 431.6175119999854,
                    "velocity": 0.3937007874015748,
                    "duration": 0.10768899999999348
                },
                {
                    "name": "G3",
                    "midi": 55,
                    "time": 431.8328899999854,
                    "velocity": 0.3937007874015748,
                    "duration": 0.10768899999999348
                },
                {
                    "name": "A#3",
                    "midi": 58,
                    "time": 431.8328899999854,
                    "velocity": 0.3937007874015748,
                    "duration": 0.10768899999999348
                },
                {
                    "name": "E4",
                    "midi": 64,
                    "time": 431.8328899999854,
                    "velocity": 0.3937007874015748,
                    "duration": 0.10768899999999348
                },
                {
                    "name": "G3",
                    "midi": 55,
                    "time": 432.0482679999854,
                    "velocity": 0.36220472440944884,
                    "duration": 0.10768899999999348
                },
                {
                    "name": "A#3",
                    "midi": 58,
                    "time": 432.0482679999854,
                    "velocity": 0.36220472440944884,
                    "duration": 0.10768899999999348
                },
                {
                    "name": "C4",
                    "midi": 60,
                    "time": 432.0482679999854,
                    "velocity": 0.36220472440944884,
                    "duration": 0.10768899999999348
                },
                {
                    "name": "G3",
                    "midi": 55,
                    "time": 432.2636459999854,
                    "velocity": 0.36220472440944884,
                    "duration": 0.10768899999999348
                },
                {
                    "name": "A#3",
                    "midi": 58,
                    "time": 432.2636459999854,
                    "velocity": 0.36220472440944884,
                    "duration": 0.10768899999999348
                },
                {
                    "name": "E4",
                    "midi": 64,
                    "time": 432.2636459999854,
                    "velocity": 0.36220472440944884,
                    "duration": 0.10768899999999348
                },
                {
                    "name": "G#3",
                    "midi": 56,
                    "time": 432.4790239999854,
                    "velocity": 0.3937007874015748,
                    "duration": 0.10768899999999348
                },
                {
                    "name": "C4",
                    "midi": 60,
                    "time": 432.4790239999854,
                    "velocity": 0.3937007874015748,
                    "duration": 0.10768899999999348
                },
                {
                    "name": "F4",
                    "midi": 65,
                    "time": 432.4790239999854,
                    "velocity": 0.3937007874015748,
                    "duration": 0.10768899999999348
                },
                {
                    "name": "G#3",
                    "midi": 56,
                    "time": 432.69440199998536,
                    "velocity": 0.3700787401574803,
                    "duration": 0.10768899999999348
                },
                {
                    "name": "C4",
                    "midi": 60,
                    "time": 432.69440199998536,
                    "velocity": 0.3700787401574803,
                    "duration": 0.10768899999999348
                },
                {
                    "name": "G#3",
                    "midi": 56,
                    "time": 432.90977999998535,
                    "velocity": 0.3858267716535433,
                    "duration": 0.10768899999999348
                },
                {
                    "name": "C4",
                    "midi": 60,
                    "time": 432.90977999998535,
                    "velocity": 0.3858267716535433,
                    "duration": 0.10768899999999348
                },
                {
                    "name": "F4",
                    "midi": 65,
                    "time": 432.90977999998535,
                    "velocity": 0.3858267716535433,
                    "duration": 0.10768899999999348
                },
                {
                    "name": "G#3",
                    "midi": 56,
                    "time": 433.12515799998533,
                    "velocity": 0.3937007874015748,
                    "duration": 0.10768899999999348
                },
                {
                    "name": "C4",
                    "midi": 60,
                    "time": 433.12515799998533,
                    "velocity": 0.3937007874015748,
                    "duration": 0.10768899999999348
                },
                {
                    "name": "G#4",
                    "midi": 68,
                    "time": 433.12515799998533,
                    "velocity": 0.3937007874015748,
                    "duration": 0.10768899999999348
                },
                {
                    "name": "G3",
                    "midi": 55,
                    "time": 433.3405359999853,
                    "velocity": 0.4330708661417323,
                    "duration": 0.10768899999999348
                },
                {
                    "name": "C4",
                    "midi": 60,
                    "time": 433.3405359999853,
                    "velocity": 0.4330708661417323,
                    "duration": 0.10768899999999348
                },
                {
                    "name": "G4",
                    "midi": 67,
                    "time": 433.3405359999853,
                    "velocity": 0.4330708661417323,
                    "duration": 0.10768899999999348
                },
                {
                    "name": "G3",
                    "midi": 55,
                    "time": 433.5559139999853,
                    "velocity": 0.3937007874015748,
                    "duration": 0.10768899999999348
                },
                {
                    "name": "C4",
                    "midi": 60,
                    "time": 433.5559139999853,
                    "velocity": 0.3937007874015748,
                    "duration": 0.10768899999999348
                },
                {
                    "name": "D#4",
                    "midi": 63,
                    "time": 433.5559139999853,
                    "velocity": 0.3937007874015748,
                    "duration": 0.10768899999999348
                },
                {
                    "name": "G3",
                    "midi": 55,
                    "time": 433.7712919999853,
                    "velocity": 0.3858267716535433,
                    "duration": 0.10768899999999348
                },
                {
                    "name": "B3",
                    "midi": 59,
                    "time": 433.7712919999853,
                    "velocity": 0.3858267716535433,
                    "duration": 0.10768899999999348
                },
                {
                    "name": "D4",
                    "midi": 62,
                    "time": 433.7712919999853,
                    "velocity": 0.3858267716535433,
                    "duration": 0.10768899999999348
                },
                {
                    "name": "G3",
                    "midi": 55,
                    "time": 433.9866699999853,
                    "velocity": 0.3779527559055118,
                    "duration": 0.10768899999999348
                },
                {
                    "name": "B3",
                    "midi": 59,
                    "time": 433.9866699999853,
                    "velocity": 0.3779527559055118,
                    "duration": 0.10768899999999348
                },
                {
                    "name": "G4",
                    "midi": 67,
                    "time": 433.9866699999853,
                    "velocity": 0.3779527559055118,
                    "duration": 0.10768899999999348
                },
                {
                    "name": "C4",
                    "midi": 60,
                    "time": 434.20204799998527,
                    "velocity": 0.47244094488188976,
                    "duration": 0.43075599999997394
                },
                {
                    "name": "C4",
                    "midi": 60,
                    "time": 434.84818199998523,
                    "velocity": 0.5905511811023622,
                    "duration": 0.07179266666668127
                },
                {
                    "name": "D4",
                    "midi": 62,
                    "time": 434.9199746666519,
                    "velocity": 0.6141732283464567,
                    "duration": 0.07179266666668127
                },
                {
                    "name": "E4",
                    "midi": 64,
                    "time": 434.9917673333186,
                    "velocity": 0.6299212598425197,
                    "duration": 0.07179266666668127
                },
                {
                    "name": "G#3",
                    "midi": 56,
                    "time": 435.0635599999853,
                    "velocity": 0.7401574803149606,
                    "duration": 0.8615120000000047
                },
                {
                    "name": "C4",
                    "midi": 60,
                    "time": 435.0635599999853,
                    "velocity": 0.7401574803149606,
                    "duration": 0.8615120000000047
                },
                {
                    "name": "F4",
                    "midi": 65,
                    "time": 435.0635599999853,
                    "velocity": 0.8740157480314961,
                    "duration": 0.8615120000000047
                },
                {
                    "name": "G#3",
                    "midi": 56,
                    "time": 435.9250719999853,
                    "velocity": 0.6929133858267716,
                    "duration": 0.8615120000000047
                },
                {
                    "name": "C4",
                    "midi": 60,
                    "time": 435.9250719999853,
                    "velocity": 0.6929133858267716,
                    "duration": 0.8615120000000047
                },
                {
                    "name": "G#4",
                    "midi": 68,
                    "time": 435.9250719999853,
                    "velocity": 0.8267716535433071,
                    "duration": 0.8615120000000047
                },
                {
                    "name": "G3",
                    "midi": 55,
                    "time": 436.7865839999853,
                    "velocity": 0.3937007874015748,
                    "duration": 0.10768899999999348
                },
                {
                    "name": "A#3",
                    "midi": 58,
                    "time": 436.7865839999853,
                    "velocity": 0.3937007874015748,
                    "duration": 0.10768899999999348
                },
                {
                    "name": "G4",
                    "midi": 67,
                    "time": 436.7865839999853,
                    "velocity": 0.3937007874015748,
                    "duration": 0.10768899999999348
                },
                {
                    "name": "G3",
                    "midi": 55,
                    "time": 437.00196199998527,
                    "velocity": 0.3937007874015748,
                    "duration": 0.10768899999999348
                },
                {
                    "name": "A#3",
                    "midi": 58,
                    "time": 437.00196199998527,
                    "velocity": 0.3937007874015748,
                    "duration": 0.10768899999999348
                },
                {
                    "name": "E4",
                    "midi": 64,
                    "time": 437.00196199998527,
                    "velocity": 0.3937007874015748,
                    "duration": 0.10768899999999348
                },
                {
                    "name": "G3",
                    "midi": 55,
                    "time": 437.21733999998526,
                    "velocity": 0.36220472440944884,
                    "duration": 0.10768899999999348
                },
                {
                    "name": "A#3",
                    "midi": 58,
                    "time": 437.21733999998526,
                    "velocity": 0.36220472440944884,
                    "duration": 0.10768899999999348
                },
                {
                    "name": "C4",
                    "midi": 60,
                    "time": 437.21733999998526,
                    "velocity": 0.36220472440944884,
                    "duration": 0.10768899999999348
                },
                {
                    "name": "G3",
                    "midi": 55,
                    "time": 437.43271799998524,
                    "velocity": 0.36220472440944884,
                    "duration": 0.10768899999999348
                },
                {
                    "name": "A#3",
                    "midi": 58,
                    "time": 437.43271799998524,
                    "velocity": 0.36220472440944884,
                    "duration": 0.10768899999999348
                },
                {
                    "name": "E4",
                    "midi": 64,
                    "time": 437.43271799998524,
                    "velocity": 0.36220472440944884,
                    "duration": 0.10768899999999348
                },
                {
                    "name": "G#3",
                    "midi": 56,
                    "time": 437.64809599998523,
                    "velocity": 0.3937007874015748,
                    "duration": 0.10768899999999348
                },
                {
                    "name": "C4",
                    "midi": 60,
                    "time": 437.64809599998523,
                    "velocity": 0.3937007874015748,
                    "duration": 0.10768899999999348
                },
                {
                    "name": "F4",
                    "midi": 65,
                    "time": 437.64809599998523,
                    "velocity": 0.3937007874015748,
                    "duration": 0.10768899999999348
                },
                {
                    "name": "G#3",
                    "midi": 56,
                    "time": 437.8634739999852,
                    "velocity": 0.3700787401574803,
                    "duration": 0.10768899999999348
                },
                {
                    "name": "C4",
                    "midi": 60,
                    "time": 437.8634739999852,
                    "velocity": 0.3700787401574803,
                    "duration": 0.10768899999999348
                },
                {
                    "name": "G#3",
                    "midi": 56,
                    "time": 438.0788519999852,
                    "velocity": 0.3700787401574803,
                    "duration": 0.10768899999999348
                },
                {
                    "name": "C4",
                    "midi": 60,
                    "time": 438.0788519999852,
                    "velocity": 0.3700787401574803,
                    "duration": 0.10768899999999348
                },
                {
                    "name": "F4",
                    "midi": 65,
                    "time": 438.0788519999852,
                    "velocity": 0.3700787401574803,
                    "duration": 0.10768899999999348
                },
                {
                    "name": "G#3",
                    "midi": 56,
                    "time": 438.2942299999852,
                    "velocity": 0.3700787401574803,
                    "duration": 0.10768899999999348
                },
                {
                    "name": "C4",
                    "midi": 60,
                    "time": 438.2942299999852,
                    "velocity": 0.3700787401574803,
                    "duration": 0.10768899999999348
                },
                {
                    "name": "G#4",
                    "midi": 68,
                    "time": 438.2942299999852,
                    "velocity": 0.3700787401574803,
                    "duration": 0.10768899999999348
                },
                {
                    "name": "G3",
                    "midi": 55,
                    "time": 438.5096079999852,
                    "velocity": 0.3937007874015748,
                    "duration": 0.10768899999999348
                },
                {
                    "name": "A#3",
                    "midi": 58,
                    "time": 438.5096079999852,
                    "velocity": 0.3937007874015748,
                    "duration": 0.10768899999999348
                },
                {
                    "name": "G4",
                    "midi": 67,
                    "time": 438.5096079999852,
                    "velocity": 0.3937007874015748,
                    "duration": 0.10768899999999348
                },
                {
                    "name": "G3",
                    "midi": 55,
                    "time": 438.72498599998517,
                    "velocity": 0.3937007874015748,
                    "duration": 0.10768899999999348
                },
                {
                    "name": "A#3",
                    "midi": 58,
                    "time": 438.72498599998517,
                    "velocity": 0.3937007874015748,
                    "duration": 0.10768899999999348
                },
                {
                    "name": "E4",
                    "midi": 64,
                    "time": 438.72498599998517,
                    "velocity": 0.3937007874015748,
                    "duration": 0.10768899999999348
                },
                {
                    "name": "G3",
                    "midi": 55,
                    "time": 438.94036399998515,
                    "velocity": 0.36220472440944884,
                    "duration": 0.10768899999999348
                },
                {
                    "name": "A#3",
                    "midi": 58,
                    "time": 438.94036399998515,
                    "velocity": 0.36220472440944884,
                    "duration": 0.10768899999999348
                },
                {
                    "name": "C4",
                    "midi": 60,
                    "time": 438.94036399998515,
                    "velocity": 0.36220472440944884,
                    "duration": 0.10768899999999348
                },
                {
                    "name": "G3",
                    "midi": 55,
                    "time": 439.15574199998514,
                    "velocity": 0.36220472440944884,
                    "duration": 0.10768899999999348
                },
                {
                    "name": "A#3",
                    "midi": 58,
                    "time": 439.15574199998514,
                    "velocity": 0.36220472440944884,
                    "duration": 0.10768899999999348
                },
                {
                    "name": "E4",
                    "midi": 64,
                    "time": 439.15574199998514,
                    "velocity": 0.36220472440944884,
                    "duration": 0.10768899999999348
                },
                {
                    "name": "G#3",
                    "midi": 56,
                    "time": 439.3711199999851,
                    "velocity": 0.3937007874015748,
                    "duration": 0.10768899999999348
                },
                {
                    "name": "C4",
                    "midi": 60,
                    "time": 439.3711199999851,
                    "velocity": 0.3937007874015748,
                    "duration": 0.10768899999999348
                },
                {
                    "name": "F4",
                    "midi": 65,
                    "time": 439.3711199999851,
                    "velocity": 0.3937007874015748,
                    "duration": 0.10768899999999348
                },
                {
                    "name": "G#3",
                    "midi": 56,
                    "time": 439.5864979999851,
                    "velocity": 0.3700787401574803,
                    "duration": 0.10768899999999348
                },
                {
                    "name": "C4",
                    "midi": 60,
                    "time": 439.5864979999851,
                    "velocity": 0.3700787401574803,
                    "duration": 0.10768899999999348
                },
                {
                    "name": "G#3",
                    "midi": 56,
                    "time": 439.8018759999851,
                    "velocity": 0.3858267716535433,
                    "duration": 0.10768899999999348
                },
                {
                    "name": "C4",
                    "midi": 60,
                    "time": 439.8018759999851,
                    "velocity": 0.3858267716535433,
                    "duration": 0.10768899999999348
                },
                {
                    "name": "F4",
                    "midi": 65,
                    "time": 439.8018759999851,
                    "velocity": 0.3858267716535433,
                    "duration": 0.10768899999999348
                },
                {
                    "name": "G#3",
                    "midi": 56,
                    "time": 440.0172539999851,
                    "velocity": 0.3937007874015748,
                    "duration": 0.10768899999999348
                },
                {
                    "name": "C4",
                    "midi": 60,
                    "time": 440.0172539999851,
                    "velocity": 0.3937007874015748,
                    "duration": 0.10768899999999348
                },
                {
                    "name": "G#4",
                    "midi": 68,
                    "time": 440.0172539999851,
                    "velocity": 0.3937007874015748,
                    "duration": 0.10768899999999348
                },
                {
                    "name": "G3",
                    "midi": 55,
                    "time": 440.2326319999851,
                    "velocity": 0.4330708661417323,
                    "duration": 0.10768899999999348
                },
                {
                    "name": "C4",
                    "midi": 60,
                    "time": 440.2326319999851,
                    "velocity": 0.4330708661417323,
                    "duration": 0.10768899999999348
                },
                {
                    "name": "G4",
                    "midi": 67,
                    "time": 440.2326319999851,
                    "velocity": 0.4330708661417323,
                    "duration": 0.10768899999999348
                },
                {
                    "name": "G3",
                    "midi": 55,
                    "time": 440.44800999998506,
                    "velocity": 0.3937007874015748,
                    "duration": 0.10768899999999348
                },
                {
                    "name": "C4",
                    "midi": 60,
                    "time": 440.44800999998506,
                    "velocity": 0.3937007874015748,
                    "duration": 0.10768899999999348
                },
                {
                    "name": "D#4",
                    "midi": 63,
                    "time": 440.44800999998506,
                    "velocity": 0.3937007874015748,
                    "duration": 0.10768899999999348
                },
                {
                    "name": "G3",
                    "midi": 55,
                    "time": 440.66338799998505,
                    "velocity": 0.3858267716535433,
                    "duration": 0.10768899999999348
                },
                {
                    "name": "B3",
                    "midi": 59,
                    "time": 440.66338799998505,
                    "velocity": 0.3858267716535433,
                    "duration": 0.10768899999999348
                },
                {
                    "name": "D4",
                    "midi": 62,
                    "time": 440.66338799998505,
                    "velocity": 0.3858267716535433,
                    "duration": 0.10768899999999348
                },
                {
                    "name": "G3",
                    "midi": 55,
                    "time": 440.87876599998503,
                    "velocity": 0.3779527559055118,
                    "duration": 0.10768899999999348
                },
                {
                    "name": "B3",
                    "midi": 59,
                    "time": 440.87876599998503,
                    "velocity": 0.3779527559055118,
                    "duration": 0.10768899999999348
                },
                {
                    "name": "G4",
                    "midi": 67,
                    "time": 440.87876599998503,
                    "velocity": 0.3779527559055118,
                    "duration": 0.10768899999999348
                },
                {
                    "name": "C4",
                    "midi": 60,
                    "time": 441.094143999985,
                    "velocity": 0.47244094488188976,
                    "duration": 0.43075599999997394
                },
                {
                    "name": "D#4",
                    "midi": 63,
                    "time": 441.740277999985,
                    "velocity": 0.5905511811023622,
                    "duration": 0.07179266666668127
                },
                {
                    "name": "F4",
                    "midi": 65,
                    "time": 441.81207066665166,
                    "velocity": 0.6141732283464567,
                    "duration": 0.07179266666668127
                },
                {
                    "name": "G4",
                    "midi": 67,
                    "time": 441.88386333331835,
                    "velocity": 0.6299212598425197,
                    "duration": 0.07179266666668127
                },
                {
                    "name": "C4",
                    "midi": 60,
                    "time": 441.955655999985,
                    "velocity": 0.7401574803149606,
                    "duration": 0.8615120000000047
                },
                {
                    "name": "D#4",
                    "midi": 63,
                    "time": 441.955655999985,
                    "velocity": 0.7401574803149606,
                    "duration": 0.8615120000000047
                },
                {
                    "name": "G#4",
                    "midi": 68,
                    "time": 441.955655999985,
                    "velocity": 0.8740157480314961,
                    "duration": 0.8615120000000047
                },
                {
                    "name": "C4",
                    "midi": 60,
                    "time": 442.81716799998503,
                    "velocity": 0.6929133858267716,
                    "duration": 0.8615120000000047
                },
                {
                    "name": "D#4",
                    "midi": 63,
                    "time": 442.81716799998503,
                    "velocity": 0.6929133858267716,
                    "duration": 0.8615120000000047
                },
                {
                    "name": "C5",
                    "midi": 72,
                    "time": 442.81716799998503,
                    "velocity": 0.8267716535433071,
                    "duration": 0.8615120000000047
                },
                {
                    "name": "A#3",
                    "midi": 58,
                    "time": 443.67867999998504,
                    "velocity": 0.3937007874015748,
                    "duration": 0.10768899999999348
                },
                {
                    "name": "C#4",
                    "midi": 61,
                    "time": 443.67867999998504,
                    "velocity": 0.3937007874015748,
                    "duration": 0.10768899999999348
                },
                {
                    "name": "A#4",
                    "midi": 70,
                    "time": 443.67867999998504,
                    "velocity": 0.3937007874015748,
                    "duration": 0.10768899999999348
                },
                {
                    "name": "A#3",
                    "midi": 58,
                    "time": 443.894057999985,
                    "velocity": 0.3937007874015748,
                    "duration": 0.10768899999999348
                },
                {
                    "name": "C#4",
                    "midi": 61,
                    "time": 443.894057999985,
                    "velocity": 0.3937007874015748,
                    "duration": 0.10768899999999348
                },
                {
                    "name": "G4",
                    "midi": 67,
                    "time": 443.894057999985,
                    "velocity": 0.3937007874015748,
                    "duration": 0.10768899999999348
                },
                {
                    "name": "A#3",
                    "midi": 58,
                    "time": 444.109435999985,
                    "velocity": 0.36220472440944884,
                    "duration": 0.10768899999999348
                },
                {
                    "name": "C#4",
                    "midi": 61,
                    "time": 444.109435999985,
                    "velocity": 0.36220472440944884,
                    "duration": 0.10768899999999348
                },
                {
                    "name": "D#4",
                    "midi": 63,
                    "time": 444.109435999985,
                    "velocity": 0.36220472440944884,
                    "duration": 0.10768899999999348
                },
                {
                    "name": "A#3",
                    "midi": 58,
                    "time": 444.324813999985,
                    "velocity": 0.36220472440944884,
                    "duration": 0.10768899999999348
                },
                {
                    "name": "C#4",
                    "midi": 61,
                    "time": 444.324813999985,
                    "velocity": 0.36220472440944884,
                    "duration": 0.10768899999999348
                },
                {
                    "name": "G4",
                    "midi": 67,
                    "time": 444.324813999985,
                    "velocity": 0.36220472440944884,
                    "duration": 0.10768899999999348
                },
                {
                    "name": "C4",
                    "midi": 60,
                    "time": 444.540191999985,
                    "velocity": 0.3937007874015748,
                    "duration": 0.10768899999999348
                },
                {
                    "name": "D#4",
                    "midi": 63,
                    "time": 444.540191999985,
                    "velocity": 0.3937007874015748,
                    "duration": 0.10768899999999348
                },
                {
                    "name": "G#4",
                    "midi": 68,
                    "time": 444.540191999985,
                    "velocity": 0.3937007874015748,
                    "duration": 0.10768899999999348
                },
                {
                    "name": "C4",
                    "midi": 60,
                    "time": 444.75556999998497,
                    "velocity": 0.3700787401574803,
                    "duration": 0.10768899999999348
                },
                {
                    "name": "D#4",
                    "midi": 63,
                    "time": 444.75556999998497,
                    "velocity": 0.3700787401574803,
                    "duration": 0.10768899999999348
                },
                {
                    "name": "C4",
                    "midi": 60,
                    "time": 444.97094799998496,
                    "velocity": 0.3700787401574803,
                    "duration": 0.10768899999999348
                },
                {
                    "name": "D#4",
                    "midi": 63,
                    "time": 444.97094799998496,
                    "velocity": 0.3700787401574803,
                    "duration": 0.10768899999999348
                },
                {
                    "name": "G#4",
                    "midi": 68,
                    "time": 444.97094799998496,
                    "velocity": 0.3700787401574803,
                    "duration": 0.10768899999999348
                },
                {
                    "name": "C4",
                    "midi": 60,
                    "time": 445.18632599998494,
                    "velocity": 0.3700787401574803,
                    "duration": 0.10768899999999348
                },
                {
                    "name": "D#4",
                    "midi": 63,
                    "time": 445.18632599998494,
                    "velocity": 0.3700787401574803,
                    "duration": 0.10768899999999348
                },
                {
                    "name": "C5",
                    "midi": 72,
                    "time": 445.18632599998494,
                    "velocity": 0.3700787401574803,
                    "duration": 0.10768899999999348
                },
                {
                    "name": "A#3",
                    "midi": 58,
                    "time": 445.40170399998493,
                    "velocity": 0.3937007874015748,
                    "duration": 0.10768899999999348
                },
                {
                    "name": "C#4",
                    "midi": 61,
                    "time": 445.40170399998493,
                    "velocity": 0.3937007874015748,
                    "duration": 0.10768899999999348
                },
                {
                    "name": "A#4",
                    "midi": 70,
                    "time": 445.40170399998493,
                    "velocity": 0.3937007874015748,
                    "duration": 0.10768899999999348
                },
                {
                    "name": "A#3",
                    "midi": 58,
                    "time": 445.6170819999849,
                    "velocity": 0.3937007874015748,
                    "duration": 0.10768899999999348
                },
                {
                    "name": "C#4",
                    "midi": 61,
                    "time": 445.6170819999849,
                    "velocity": 0.3937007874015748,
                    "duration": 0.10768899999999348
                },
                {
                    "name": "G4",
                    "midi": 67,
                    "time": 445.6170819999849,
                    "velocity": 0.3937007874015748,
                    "duration": 0.10768899999999348
                },
                {
                    "name": "A#3",
                    "midi": 58,
                    "time": 445.8324599999849,
                    "velocity": 0.36220472440944884,
                    "duration": 0.10768899999999348
                },
                {
                    "name": "C#4",
                    "midi": 61,
                    "time": 445.8324599999849,
                    "velocity": 0.36220472440944884,
                    "duration": 0.10768899999999348
                },
                {
                    "name": "D#4",
                    "midi": 63,
                    "time": 445.8324599999849,
                    "velocity": 0.36220472440944884,
                    "duration": 0.10768899999999348
                },
                {
                    "name": "A#3",
                    "midi": 58,
                    "time": 446.0478379999849,
                    "velocity": 0.36220472440944884,
                    "duration": 0.10768899999999348
                },
                {
                    "name": "C#4",
                    "midi": 61,
                    "time": 446.0478379999849,
                    "velocity": 0.36220472440944884,
                    "duration": 0.10768899999999348
                },
                {
                    "name": "G4",
                    "midi": 67,
                    "time": 446.0478379999849,
                    "velocity": 0.36220472440944884,
                    "duration": 0.10768899999999348
                },
                {
                    "name": "C4",
                    "midi": 60,
                    "time": 446.2632159999849,
                    "velocity": 0.3937007874015748,
                    "duration": 0.10768899999999348
                },
                {
                    "name": "D#4",
                    "midi": 63,
                    "time": 446.2632159999849,
                    "velocity": 0.3937007874015748,
                    "duration": 0.10768899999999348
                },
                {
                    "name": "G#4",
                    "midi": 68,
                    "time": 446.2632159999849,
                    "velocity": 0.3937007874015748,
                    "duration": 0.10768899999999348
                },
                {
                    "name": "C4",
                    "midi": 60,
                    "time": 446.47859399998487,
                    "velocity": 0.3700787401574803,
                    "duration": 0.10768899999999348
                },
                {
                    "name": "D#4",
                    "midi": 63,
                    "time": 446.47859399998487,
                    "velocity": 0.3700787401574803,
                    "duration": 0.10768899999999348
                },
                {
                    "name": "C4",
                    "midi": 60,
                    "time": 446.69397199998485,
                    "velocity": 0.3700787401574803,
                    "duration": 0.10768899999999348
                },
                {
                    "name": "D#4",
                    "midi": 63,
                    "time": 446.69397199998485,
                    "velocity": 0.3700787401574803,
                    "duration": 0.10768899999999348
                },
                {
                    "name": "G#4",
                    "midi": 68,
                    "time": 446.69397199998485,
                    "velocity": 0.3700787401574803,
                    "duration": 0.10768899999999348
                },
                {
                    "name": "C4",
                    "midi": 60,
                    "time": 446.90934999998484,
                    "velocity": 0.3700787401574803,
                    "duration": 0.10768899999999348
                },
                {
                    "name": "D#4",
                    "midi": 63,
                    "time": 446.90934999998484,
                    "velocity": 0.3700787401574803,
                    "duration": 0.10768899999999348
                },
                {
                    "name": "C5",
                    "midi": 72,
                    "time": 446.90934999998484,
                    "velocity": 0.3700787401574803,
                    "duration": 0.10768899999999348
                },
                {
                    "name": "C4",
                    "midi": 60,
                    "time": 447.1247279999848,
                    "velocity": 0.4094488188976378,
                    "duration": 0.10768899999999348
                },
                {
                    "name": "D#4",
                    "midi": 63,
                    "time": 447.1247279999848,
                    "velocity": 0.4094488188976378,
                    "duration": 0.10768899999999348
                },
                {
                    "name": "A4",
                    "midi": 69,
                    "time": 447.1247279999848,
                    "velocity": 0.4094488188976378,
                    "duration": 0.10768899999999348
                },
                {
                    "name": "C4",
                    "midi": 60,
                    "time": 447.3401059999848,
                    "velocity": 0.4094488188976378,
                    "duration": 0.10768899999999348
                },
                {
                    "name": "D#4",
                    "midi": 63,
                    "time": 447.3401059999848,
                    "velocity": 0.4094488188976378,
                    "duration": 0.10768899999999348
                },
                {
                    "name": "F4",
                    "midi": 65,
                    "time": 447.3401059999848,
                    "velocity": 0.4094488188976378,
                    "duration": 0.10768899999999348
                },
                {
                    "name": "C4",
                    "midi": 60,
                    "time": 447.5554839999848,
                    "velocity": 0.3779527559055118,
                    "duration": 0.10768899999999348
                },
                {
                    "name": "D#4",
                    "midi": 63,
                    "time": 447.5554839999848,
                    "velocity": 0.3779527559055118,
                    "duration": 0.10768899999999348
                },
                {
                    "name": "A4",
                    "midi": 69,
                    "time": 447.5554839999848,
                    "velocity": 0.3779527559055118,
                    "duration": 0.10768899999999348
                },
                {
                    "name": "C4",
                    "midi": 60,
                    "time": 447.7708619999848,
                    "velocity": 0.3858267716535433,
                    "duration": 0.10768899999999348
                },
                {
                    "name": "D#4",
                    "midi": 63,
                    "time": 447.7708619999848,
                    "velocity": 0.3858267716535433,
                    "duration": 0.10768899999999348
                },
                {
                    "name": "C5",
                    "midi": 72,
                    "time": 447.7708619999848,
                    "velocity": 0.3858267716535433,
                    "duration": 0.10768899999999348
                },
                {
                    "name": "C#4",
                    "midi": 61,
                    "time": 447.9862399999848,
                    "velocity": 0.4251968503937008,
                    "duration": 0.10768899999999348
                },
                {
                    "name": "F4",
                    "midi": 65,
                    "time": 447.9862399999848,
                    "velocity": 0.4251968503937008,
                    "duration": 0.10768899999999348
                },
                {
                    "name": "A#4",
                    "midi": 70,
                    "time": 447.9862399999848,
                    "velocity": 0.4251968503937008,
                    "duration": 0.10768899999999348
                },
                {
                    "name": "C#4",
                    "midi": 61,
                    "time": 448.20161799998476,
                    "velocity": 0.4094488188976378,
                    "duration": 0.10768899999999348
                },
                {
                    "name": "F4",
                    "midi": 65,
                    "time": 448.20161799998476,
                    "velocity": 0.4094488188976378,
                    "duration": 0.10768899999999348
                },
                {
                    "name": "C#4",
                    "midi": 61,
                    "time": 448.41699599998475,
                    "velocity": 0.41732283464566927,
                    "duration": 0.10768899999999348
                },
                {
                    "name": "F4",
                    "midi": 65,
                    "time": 448.41699599998475,
                    "velocity": 0.41732283464566927,
                    "duration": 0.10768899999999348
                },
                {
                    "name": "A#4",
                    "midi": 70,
                    "time": 448.41699599998475,
                    "velocity": 0.41732283464566927,
                    "duration": 0.10768899999999348
                },
                {
                    "name": "C#4",
                    "midi": 61,
                    "time": 448.63237399998474,
                    "velocity": 0.4251968503937008,
                    "duration": 0.10768899999999348
                },
                {
                    "name": "F4",
                    "midi": 65,
                    "time": 448.63237399998474,
                    "velocity": 0.4251968503937008,
                    "duration": 0.10768899999999348
                },
                {
                    "name": "C#5",
                    "midi": 73,
                    "time": 448.63237399998474,
                    "velocity": 0.4251968503937008,
                    "duration": 0.10768899999999348
                },
                {
                    "name": "C4",
                    "midi": 60,
                    "time": 448.8477519999847,
                    "velocity": 0.47244094488188976,
                    "duration": 0.10768899999999348
                },
                {
                    "name": "F4",
                    "midi": 65,
                    "time": 448.8477519999847,
                    "velocity": 0.47244094488188976,
                    "duration": 0.10768899999999348
                },
                {
                    "name": "C5",
                    "midi": 72,
                    "time": 448.8477519999847,
                    "velocity": 0.47244094488188976,
                    "duration": 0.10768899999999348
                },
                {
                    "name": "C4",
                    "midi": 60,
                    "time": 449.0631299999847,
                    "velocity": 0.47244094488188976,
                    "duration": 0.10768899999999348
                },
                {
                    "name": "F4",
                    "midi": 65,
                    "time": 449.0631299999847,
                    "velocity": 0.47244094488188976,
                    "duration": 0.10768899999999348
                },
                {
                    "name": "G#4",
                    "midi": 68,
                    "time": 449.0631299999847,
                    "velocity": 0.47244094488188976,
                    "duration": 0.10768899999999348
                },
                {
                    "name": "C4",
                    "midi": 60,
                    "time": 449.2785079999847,
                    "velocity": 0.41732283464566927,
                    "duration": 0.10768899999999348
                },
                {
                    "name": "E4",
                    "midi": 64,
                    "time": 449.2785079999847,
                    "velocity": 0.41732283464566927,
                    "duration": 0.10768899999999348
                },
                {
                    "name": "G4",
                    "midi": 67,
                    "time": 449.2785079999847,
                    "velocity": 0.41732283464566927,
                    "duration": 0.10768899999999348
                },
                {
                    "name": "C4",
                    "midi": 60,
                    "time": 449.4938859999847,
                    "velocity": 0.41732283464566927,
                    "duration": 0.10768899999999348
                },
                {
                    "name": "E4",
                    "midi": 64,
                    "time": 449.4938859999847,
                    "velocity": 0.41732283464566927,
                    "duration": 0.10768899999999348
                },
                {
                    "name": "C5",
                    "midi": 72,
                    "time": 449.4938859999847,
                    "velocity": 0.41732283464566927,
                    "duration": 0.10768899999999348
                },
                {
                    "name": "F4",
                    "midi": 65,
                    "time": 449.70926399998467,
                    "velocity": 0.5511811023622047,
                    "duration": 0.43075599999997394
                },
                {
                    "name": "D#4",
                    "midi": 63,
                    "time": 450.35539799998463,
                    "velocity": 0.5905511811023622,
                    "duration": 0.07179266666668127
                },
                {
                    "name": "F4",
                    "midi": 65,
                    "time": 450.4271906666513,
                    "velocity": 0.6141732283464567,
                    "duration": 0.07179266666668127
                },
                {
                    "name": "G4",
                    "midi": 67,
                    "time": 450.498983333318,
                    "velocity": 0.6299212598425197,
                    "duration": 0.07179266666668127
                },
                {
                    "name": "C4",
                    "midi": 60,
                    "time": 450.5707759999847,
                    "velocity": 0.7401574803149606,
                    "duration": 0.8615120000000047
                },
                {
                    "name": "D#4",
                    "midi": 63,
                    "time": 450.5707759999847,
                    "velocity": 0.7401574803149606,
                    "duration": 0.8615120000000047
                },
                {
                    "name": "G#4",
                    "midi": 68,
                    "time": 450.5707759999847,
                    "velocity": 0.8740157480314961,
                    "duration": 0.8615120000000047
                },
                {
                    "name": "C4",
                    "midi": 60,
                    "time": 451.4322879999847,
                    "velocity": 0.6929133858267716,
                    "duration": 0.8615120000000047
                },
                {
                    "name": "D#4",
                    "midi": 63,
                    "time": 451.4322879999847,
                    "velocity": 0.6929133858267716,
                    "duration": 0.8615120000000047
                },
                {
                    "name": "C5",
                    "midi": 72,
                    "time": 451.4322879999847,
                    "velocity": 0.8267716535433071,
                    "duration": 0.8615120000000047
                },
                {
                    "name": "A#3",
                    "midi": 58,
                    "time": 452.2937999999847,
                    "velocity": 0.3937007874015748,
                    "duration": 0.10768899999999348
                },
                {
                    "name": "C#4",
                    "midi": 61,
                    "time": 452.2937999999847,
                    "velocity": 0.3937007874015748,
                    "duration": 0.10768899999999348
                },
                {
                    "name": "A#4",
                    "midi": 70,
                    "time": 452.2937999999847,
                    "velocity": 0.3937007874015748,
                    "duration": 0.10768899999999348
                },
                {
                    "name": "A#3",
                    "midi": 58,
                    "time": 452.5091779999847,
                    "velocity": 0.3937007874015748,
                    "duration": 0.10768899999999348
                },
                {
                    "name": "C#4",
                    "midi": 61,
                    "time": 452.5091779999847,
                    "velocity": 0.3937007874015748,
                    "duration": 0.10768899999999348
                },
                {
                    "name": "G4",
                    "midi": 67,
                    "time": 452.5091779999847,
                    "velocity": 0.3937007874015748,
                    "duration": 0.10768899999999348
                },
                {
                    "name": "A#3",
                    "midi": 58,
                    "time": 452.72455599998466,
                    "velocity": 0.36220472440944884,
                    "duration": 0.10768899999999348
                },
                {
                    "name": "C#4",
                    "midi": 61,
                    "time": 452.72455599998466,
                    "velocity": 0.36220472440944884,
                    "duration": 0.10768899999999348
                },
                {
                    "name": "D#4",
                    "midi": 63,
                    "time": 452.72455599998466,
                    "velocity": 0.36220472440944884,
                    "duration": 0.10768899999999348
                },
                {
                    "name": "A#3",
                    "midi": 58,
                    "time": 452.93993399998465,
                    "velocity": 0.36220472440944884,
                    "duration": 0.10768899999999348
                },
                {
                    "name": "C#4",
                    "midi": 61,
                    "time": 452.93993399998465,
                    "velocity": 0.36220472440944884,
                    "duration": 0.10768899999999348
                },
                {
                    "name": "G4",
                    "midi": 67,
                    "time": 452.93993399998465,
                    "velocity": 0.36220472440944884,
                    "duration": 0.10768899999999348
                },
                {
                    "name": "C4",
                    "midi": 60,
                    "time": 453.15531199998463,
                    "velocity": 0.3937007874015748,
                    "duration": 0.10768899999999348
                },
                {
                    "name": "D#4",
                    "midi": 63,
                    "time": 453.15531199998463,
                    "velocity": 0.3937007874015748,
                    "duration": 0.10768899999999348
                },
                {
                    "name": "G#4",
                    "midi": 68,
                    "time": 453.15531199998463,
                    "velocity": 0.3937007874015748,
                    "duration": 0.10768899999999348
                },
                {
                    "name": "C4",
                    "midi": 60,
                    "time": 453.3706899999846,
                    "velocity": 0.3700787401574803,
                    "duration": 0.10768899999999348
                },
                {
                    "name": "D#4",
                    "midi": 63,
                    "time": 453.3706899999846,
                    "velocity": 0.3700787401574803,
                    "duration": 0.10768899999999348
                },
                {
                    "name": "C4",
                    "midi": 60,
                    "time": 453.5860679999846,
                    "velocity": 0.3700787401574803,
                    "duration": 0.10768899999999348
                },
                {
                    "name": "D#4",
                    "midi": 63,
                    "time": 453.5860679999846,
                    "velocity": 0.3700787401574803,
                    "duration": 0.10768899999999348
                },
                {
                    "name": "G#4",
                    "midi": 68,
                    "time": 453.5860679999846,
                    "velocity": 0.3700787401574803,
                    "duration": 0.10768899999999348
                },
                {
                    "name": "C4",
                    "midi": 60,
                    "time": 453.8014459999846,
                    "velocity": 0.3700787401574803,
                    "duration": 0.10768899999999348
                },
                {
                    "name": "D#4",
                    "midi": 63,
                    "time": 453.8014459999846,
                    "velocity": 0.3700787401574803,
                    "duration": 0.10768899999999348
                },
                {
                    "name": "C5",
                    "midi": 72,
                    "time": 453.8014459999846,
                    "velocity": 0.3700787401574803,
                    "duration": 0.10768899999999348
                },
                {
                    "name": "A#3",
                    "midi": 58,
                    "time": 454.0168239999846,
                    "velocity": 0.3937007874015748,
                    "duration": 0.10768899999999348
                },
                {
                    "name": "C#4",
                    "midi": 61,
                    "time": 454.0168239999846,
                    "velocity": 0.3937007874015748,
                    "duration": 0.10768899999999348
                },
                {
                    "name": "A#4",
                    "midi": 70,
                    "time": 454.0168239999846,
                    "velocity": 0.3937007874015748,
                    "duration": 0.10768899999999348
                },
                {
                    "name": "A#3",
                    "midi": 58,
                    "time": 454.23220199998457,
                    "velocity": 0.3937007874015748,
                    "duration": 0.10768899999999348
                },
                {
                    "name": "C#4",
                    "midi": 61,
                    "time": 454.23220199998457,
                    "velocity": 0.3937007874015748,
                    "duration": 0.10768899999999348
                },
                {
                    "name": "G4",
                    "midi": 67,
                    "time": 454.23220199998457,
                    "velocity": 0.3937007874015748,
                    "duration": 0.10768899999999348
                },
                {
                    "name": "A#3",
                    "midi": 58,
                    "time": 454.44757999998455,
                    "velocity": 0.36220472440944884,
                    "duration": 0.10768899999999348
                },
                {
                    "name": "C#4",
                    "midi": 61,
                    "time": 454.44757999998455,
                    "velocity": 0.36220472440944884,
                    "duration": 0.10768899999999348
                },
                {
                    "name": "D#4",
                    "midi": 63,
                    "time": 454.44757999998455,
                    "velocity": 0.36220472440944884,
                    "duration": 0.10768899999999348
                },
                {
                    "name": "A#3",
                    "midi": 58,
                    "time": 454.66295799998454,
                    "velocity": 0.36220472440944884,
                    "duration": 0.10768899999999348
                },
                {
                    "name": "C#4",
                    "midi": 61,
                    "time": 454.66295799998454,
                    "velocity": 0.36220472440944884,
                    "duration": 0.10768899999999348
                },
                {
                    "name": "G4",
                    "midi": 67,
                    "time": 454.66295799998454,
                    "velocity": 0.36220472440944884,
                    "duration": 0.10768899999999348
                },
                {
                    "name": "C4",
                    "midi": 60,
                    "time": 454.87833599998453,
                    "velocity": 0.3937007874015748,
                    "duration": 0.10768899999999348
                },
                {
                    "name": "D#4",
                    "midi": 63,
                    "time": 454.87833599998453,
                    "velocity": 0.3937007874015748,
                    "duration": 0.10768899999999348
                },
                {
                    "name": "G#4",
                    "midi": 68,
                    "time": 454.87833599998453,
                    "velocity": 0.3937007874015748,
                    "duration": 0.10768899999999348
                },
                {
                    "name": "C4",
                    "midi": 60,
                    "time": 455.0937139999845,
                    "velocity": 0.3700787401574803,
                    "duration": 0.10768899999999348
                },
                {
                    "name": "D#4",
                    "midi": 63,
                    "time": 455.0937139999845,
                    "velocity": 0.3700787401574803,
                    "duration": 0.10768899999999348
                },
                {
                    "name": "C4",
                    "midi": 60,
                    "time": 455.3090919999845,
                    "velocity": 0.3700787401574803,
                    "duration": 0.10768899999999348
                },
                {
                    "name": "D#4",
                    "midi": 63,
                    "time": 455.3090919999845,
                    "velocity": 0.3700787401574803,
                    "duration": 0.10768899999999348
                },
                {
                    "name": "G#4",
                    "midi": 68,
                    "time": 455.3090919999845,
                    "velocity": 0.3700787401574803,
                    "duration": 0.10768899999999348
                },
                {
                    "name": "C4",
                    "midi": 60,
                    "time": 455.5244699999845,
                    "velocity": 0.3700787401574803,
                    "duration": 0.10768899999999348
                },
                {
                    "name": "D#4",
                    "midi": 63,
                    "time": 455.5244699999845,
                    "velocity": 0.3700787401574803,
                    "duration": 0.10768899999999348
                },
                {
                    "name": "C5",
                    "midi": 72,
                    "time": 455.5244699999845,
                    "velocity": 0.3700787401574803,
                    "duration": 0.10768899999999348
                },
                {
                    "name": "C4",
                    "midi": 60,
                    "time": 455.7398479999845,
                    "velocity": 0.4094488188976378,
                    "duration": 0.10768899999999348
                },
                {
                    "name": "D#4",
                    "midi": 63,
                    "time": 455.7398479999845,
                    "velocity": 0.4094488188976378,
                    "duration": 0.10768899999999348
                },
                {
                    "name": "A4",
                    "midi": 69,
                    "time": 455.7398479999845,
                    "velocity": 0.4094488188976378,
                    "duration": 0.10768899999999348
                },
                {
                    "name": "C4",
                    "midi": 60,
                    "time": 455.95522599998446,
                    "velocity": 0.4094488188976378,
                    "duration": 0.10768899999999348
                },
                {
                    "name": "D#4",
                    "midi": 63,
                    "time": 455.95522599998446,
                    "velocity": 0.4094488188976378,
                    "duration": 0.10768899999999348
                },
                {
                    "name": "F4",
                    "midi": 65,
                    "time": 455.95522599998446,
                    "velocity": 0.4094488188976378,
                    "duration": 0.10768899999999348
                },
                {
                    "name": "C4",
                    "midi": 60,
                    "time": 456.17060399998445,
                    "velocity": 0.3779527559055118,
                    "duration": 0.10768899999999348
                },
                {
                    "name": "D#4",
                    "midi": 63,
                    "time": 456.17060399998445,
                    "velocity": 0.3779527559055118,
                    "duration": 0.10768899999999348
                },
                {
                    "name": "A4",
                    "midi": 69,
                    "time": 456.17060399998445,
                    "velocity": 0.3779527559055118,
                    "duration": 0.10768899999999348
                },
                {
                    "name": "C4",
                    "midi": 60,
                    "time": 456.38598199998444,
                    "velocity": 0.3858267716535433,
                    "duration": 0.10768899999999348
                },
                {
                    "name": "D#4",
                    "midi": 63,
                    "time": 456.38598199998444,
                    "velocity": 0.3858267716535433,
                    "duration": 0.10768899999999348
                },
                {
                    "name": "C5",
                    "midi": 72,
                    "time": 456.38598199998444,
                    "velocity": 0.3858267716535433,
                    "duration": 0.10768899999999348
                },
                {
                    "name": "C#4",
                    "midi": 61,
                    "time": 456.6013599999844,
                    "velocity": 0.4251968503937008,
                    "duration": 0.10768899999999348
                },
                {
                    "name": "F4",
                    "midi": 65,
                    "time": 456.6013599999844,
                    "velocity": 0.4251968503937008,
                    "duration": 0.10768899999999348
                },
                {
                    "name": "A#4",
                    "midi": 70,
                    "time": 456.6013599999844,
                    "velocity": 0.4251968503937008,
                    "duration": 0.10768899999999348
                },
                {
                    "name": "C#4",
                    "midi": 61,
                    "time": 456.8167379999844,
                    "velocity": 0.4094488188976378,
                    "duration": 0.10768899999999348
                },
                {
                    "name": "F4",
                    "midi": 65,
                    "time": 456.8167379999844,
                    "velocity": 0.4094488188976378,
                    "duration": 0.10768899999999348
                },
                {
                    "name": "C#4",
                    "midi": 61,
                    "time": 457.0321159999844,
                    "velocity": 0.41732283464566927,
                    "duration": 0.10768899999999348
                },
                {
                    "name": "F4",
                    "midi": 65,
                    "time": 457.0321159999844,
                    "velocity": 0.41732283464566927,
                    "duration": 0.10768899999999348
                },
                {
                    "name": "A#4",
                    "midi": 70,
                    "time": 457.0321159999844,
                    "velocity": 0.41732283464566927,
                    "duration": 0.10768899999999348
                },
                {
                    "name": "C#4",
                    "midi": 61,
                    "time": 457.2474939999844,
                    "velocity": 0.4251968503937008,
                    "duration": 0.10768899999999348
                },
                {
                    "name": "F4",
                    "midi": 65,
                    "time": 457.2474939999844,
                    "velocity": 0.4251968503937008,
                    "duration": 0.10768899999999348
                },
                {
                    "name": "C#5",
                    "midi": 73,
                    "time": 457.2474939999844,
                    "velocity": 0.4251968503937008,
                    "duration": 0.10768899999999348
                },
                {
                    "name": "C4",
                    "midi": 60,
                    "time": 457.4628719999844,
                    "velocity": 0.47244094488188976,
                    "duration": 0.10768899999999348
                },
                {
                    "name": "F4",
                    "midi": 65,
                    "time": 457.4628719999844,
                    "velocity": 0.47244094488188976,
                    "duration": 0.10768899999999348
                },
                {
                    "name": "C5",
                    "midi": 72,
                    "time": 457.4628719999844,
                    "velocity": 0.47244094488188976,
                    "duration": 0.10768899999999348
                },
                {
                    "name": "C4",
                    "midi": 60,
                    "time": 457.67824999998436,
                    "velocity": 0.47244094488188976,
                    "duration": 0.10768899999999348
                },
                {
                    "name": "F4",
                    "midi": 65,
                    "time": 457.67824999998436,
                    "velocity": 0.47244094488188976,
                    "duration": 0.10768899999999348
                },
                {
                    "name": "G#4",
                    "midi": 68,
                    "time": 457.67824999998436,
                    "velocity": 0.47244094488188976,
                    "duration": 0.10768899999999348
                },
                {
                    "name": "C4",
                    "midi": 60,
                    "time": 457.89362799998435,
                    "velocity": 0.41732283464566927,
                    "duration": 0.10768899999999348
                },
                {
                    "name": "E4",
                    "midi": 64,
                    "time": 457.89362799998435,
                    "velocity": 0.41732283464566927,
                    "duration": 0.10768899999999348
                },
                {
                    "name": "G4",
                    "midi": 67,
                    "time": 457.89362799998435,
                    "velocity": 0.41732283464566927,
                    "duration": 0.10768899999999348
                },
                {
                    "name": "C4",
                    "midi": 60,
                    "time": 458.10900599998433,
                    "velocity": 0.41732283464566927,
                    "duration": 0.10768899999999348
                },
                {
                    "name": "E4",
                    "midi": 64,
                    "time": 458.10900599998433,
                    "velocity": 0.41732283464566927,
                    "duration": 0.10768899999999348
                },
                {
                    "name": "C5",
                    "midi": 72,
                    "time": 458.10900599998433,
                    "velocity": 0.41732283464566927,
                    "duration": 0.10768899999999348
                },
                {
                    "name": "F4",
                    "midi": 65,
                    "time": 458.3243839999843,
                    "velocity": 0.5511811023622047,
                    "duration": 0.10768899999999348
                },
                {
                    "name": "C4",
                    "midi": 60,
                    "time": 458.4320729999843,
                    "velocity": 0.5118110236220472,
                    "duration": 0.10768899999999348
                },
                {
                    "name": "F4",
                    "midi": 65,
                    "time": 458.5397619999843,
                    "velocity": 0.49606299212598426,
                    "duration": 0.10768899999999348
                },
                {
                    "name": "G#4",
                    "midi": 68,
                    "time": 458.6474509999843,
                    "velocity": 0.4881889763779528,
                    "duration": 0.10768899999999348
                },
                {
                    "name": "C5",
                    "midi": 72,
                    "time": 458.7551399999843,
                    "velocity": 0.4881889763779528,
                    "duration": 0.10768899999999348
                },
                {
                    "name": "C#5",
                    "midi": 73,
                    "time": 458.8628289999843,
                    "velocity": 0.4566929133858268,
                    "duration": 0.10768899999999348
                },
                {
                    "name": "C5",
                    "midi": 72,
                    "time": 458.9705179999843,
                    "velocity": 0.4881889763779528,
                    "duration": 0.10768899999999348
                },
                {
                    "name": "A#4",
                    "midi": 70,
                    "time": 459.0782069999843,
                    "velocity": 0.44881889763779526,
                    "duration": 0.10768899999999348
                },
                {
                    "name": "G#4",
                    "midi": 68,
                    "time": 459.18589599998427,
                    "velocity": 0.5118110236220472,
                    "duration": 0.10768899999999348
                },
                {
                    "name": "A#4",
                    "midi": 70,
                    "time": 459.29358499998426,
                    "velocity": 0.47244094488188976,
                    "duration": 0.10768899999999348
                },
                {
                    "name": "G#4",
                    "midi": 68,
                    "time": 459.40127399998426,
                    "velocity": 0.47244094488188976,
                    "duration": 0.10768899999999348
                },
                {
                    "name": "G4",
                    "midi": 67,
                    "time": 459.50896299998425,
                    "velocity": 0.4251968503937008,
                    "duration": 0.10768899999999348
                },
                {
                    "name": "F4",
                    "midi": 65,
                    "time": 459.61665199998424,
                    "velocity": 0.49606299212598426,
                    "duration": 0.10768899999999348
                },
                {
                    "name": "G4",
                    "midi": 67,
                    "time": 459.72434099998424,
                    "velocity": 0.4251968503937008,
                    "duration": 0.10768899999999348
                },
                {
                    "name": "G#4",
                    "midi": 68,
                    "time": 459.83202999998423,
                    "velocity": 0.44881889763779526,
                    "duration": 0.10768899999999348
                },
                {
                    "name": "F4",
                    "midi": 65,
                    "time": 459.9397189999842,
                    "velocity": 0.4251968503937008,
                    "duration": 0.10768899999999348
                },
                {
                    "name": "G#4",
                    "midi": 68,
                    "time": 460.0474079999842,
                    "velocity": 0.5275590551181102,
                    "duration": 0.10768899999999348
                },
                {
                    "name": "C4",
                    "midi": 60,
                    "time": 460.1550969999842,
                    "velocity": 0.49606299212598426,
                    "duration": 0.10768899999999348
                },
                {
                    "name": "F4",
                    "midi": 65,
                    "time": 460.2627859999842,
                    "velocity": 0.49606299212598426,
                    "duration": 0.10768899999999348
                },
                {
                    "name": "G#4",
                    "midi": 68,
                    "time": 460.3704749999842,
                    "velocity": 0.47244094488188976,
                    "duration": 0.10768899999999348
                },
                {
                    "name": "C5",
                    "midi": 72,
                    "time": 460.4781639999842,
                    "velocity": 0.49606299212598426,
                    "duration": 0.10768899999999348
                },
                {
                    "name": "C#5",
                    "midi": 73,
                    "time": 460.5858529999842,
                    "velocity": 0.4645669291338583,
                    "duration": 0.10768899999999348
                },
                {
                    "name": "C5",
                    "midi": 72,
                    "time": 460.6935419999842,
                    "velocity": 0.48031496062992124,
                    "duration": 0.10768899999999348
                },
                {
                    "name": "A#4",
                    "midi": 70,
                    "time": 460.80123099998417,
                    "velocity": 0.48031496062992124,
                    "duration": 0.10768899999999348
                },
                {
                    "name": "G#4",
                    "midi": 68,
                    "time": 460.90891999998416,
                    "velocity": 0.5039370078740157,
                    "duration": 0.10768899999999348
                },
                {
                    "name": "A#4",
                    "midi": 70,
                    "time": 461.01660899998416,
                    "velocity": 0.48031496062992124,
                    "duration": 0.10768899999999348
                },
                {
                    "name": "G#4",
                    "midi": 68,
                    "time": 461.12429799998415,
                    "velocity": 0.47244094488188976,
                    "duration": 0.10768899999999348
                },
                {
                    "name": "G4",
                    "midi": 67,
                    "time": 461.23198699998414,
                    "velocity": 0.4251968503937008,
                    "duration": 0.10768899999999348
                },
                {
                    "name": "F4",
                    "midi": 65,
                    "time": 461.33967599998414,
                    "velocity": 0.49606299212598426,
                    "duration": 0.10768899999999348
                },
                {
                    "name": "G4",
                    "midi": 67,
                    "time": 461.44736499998413,
                    "velocity": 0.4251968503937008,
                    "duration": 0.10768899999999348
                },
                {
                    "name": "G#4",
                    "midi": 68,
                    "time": 461.5550539999841,
                    "velocity": 0.44881889763779526,
                    "duration": 0.10768899999999348
                },
                {
                    "name": "F4",
                    "midi": 65,
                    "time": 461.6627429999841,
                    "velocity": 0.4251968503937008,
                    "duration": 0.10768899999999348
                },
                {
                    "name": "F#4",
                    "midi": 66,
                    "time": 461.7704319999841,
                    "velocity": 0.5275590551181102,
                    "duration": 0.10768899999999348
                },
                {
                    "name": "C#4",
                    "midi": 61,
                    "time": 461.8781209999841,
                    "velocity": 0.49606299212598426,
                    "duration": 0.10768899999999348
                },
                {
                    "name": "F#4",
                    "midi": 66,
                    "time": 461.9858099999841,
                    "velocity": 0.49606299212598426,
                    "duration": 0.10768899999999348
                },
                {
                    "name": "A#4",
                    "midi": 70,
                    "time": 462.0934989999841,
                    "velocity": 0.4881889763779528,
                    "duration": 0.10768899999999348
                },
                {
                    "name": "C#5",
                    "midi": 73,
                    "time": 462.2011879999841,
                    "velocity": 0.49606299212598426,
                    "duration": 0.10768899999999348
                },
                {
                    "name": "D#5",
                    "midi": 75,
                    "time": 462.3088769999841,
                    "velocity": 0.48031496062992124,
                    "duration": 0.10768899999999348
                },
                {
                    "name": "C#5",
                    "midi": 73,
                    "time": 462.4165659999841,
                    "velocity": 0.49606299212598426,
                    "duration": 0.10768899999999348
                },
                {
                    "name": "C5",
                    "midi": 72,
                    "time": 462.52425499998407,
                    "velocity": 0.48031496062992124,
                    "duration": 0.10768899999999348
                },
                {
                    "name": "A#4",
                    "midi": 70,
                    "time": 462.63194399998406,
                    "velocity": 0.5039370078740157,
                    "duration": 0.10768899999999348
                },
                {
                    "name": "C5",
                    "midi": 72,
                    "time": 462.73963299998405,
                    "velocity": 0.47244094488188976,
                    "duration": 0.10768899999999348
                },
                {
                    "name": "A#4",
                    "midi": 70,
                    "time": 462.84732199998405,
                    "velocity": 0.47244094488188976,
                    "duration": 0.10768899999999348
                },
                {
                    "name": "G#4",
                    "midi": 68,
                    "time": 462.95501099998404,
                    "velocity": 0.4251968503937008,
                    "duration": 0.10768899999999348
                },
                {
                    "name": "F#4",
                    "midi": 66,
                    "time": 463.06269999998403,
                    "velocity": 0.49606299212598426,
                    "duration": 0.10768899999999348
                },
                {
                    "name": "G#4",
                    "midi": 68,
                    "time": 463.170388999984,
                    "velocity": 0.4251968503937008,
                    "duration": 0.10768899999999348
                },
                {
                    "name": "F#4",
                    "midi": 66,
                    "time": 463.278077999984,
                    "velocity": 0.44881889763779526,
                    "duration": 0.10768899999999348
                },
                {
                    "name": "F4",
                    "midi": 65,
                    "time": 463.385766999984,
                    "velocity": 0.4251968503937008,
                    "duration": 0.10768899999999348
                },
                {
                    "name": "E4",
                    "midi": 64,
                    "time": 463.493455999984,
                    "velocity": 0.5433070866141733,
                    "duration": 0.10768899999999348
                },
                {
                    "name": "F4",
                    "midi": 65,
                    "time": 463.601144999984,
                    "velocity": 0.49606299212598426,
                    "duration": 0.10768899999999348
                },
                {
                    "name": "G4",
                    "midi": 67,
                    "time": 463.708833999984,
                    "velocity": 0.49606299212598426,
                    "duration": 0.10768899999999348
                },
                {
                    "name": "G#4",
                    "midi": 68,
                    "time": 463.816522999984,
                    "velocity": 0.4881889763779528,
                    "duration": 0.10768899999999348
                },
                {
                    "name": "A#4",
                    "midi": 70,
                    "time": 463.924211999984,
                    "velocity": 0.49606299212598426,
                    "duration": 0.10768899999999348
                },
                {
                    "name": "G#4",
                    "midi": 68,
                    "time": 464.031900999984,
                    "velocity": 0.48031496062992124,
                    "duration": 0.10768899999999348
                },
                {
                    "name": "G4",
                    "midi": 67,
                    "time": 464.13958999998397,
                    "velocity": 0.49606299212598426,
                    "duration": 0.10768899999999348
                },
                {
                    "name": "F4",
                    "midi": 65,
                    "time": 464.24727899998396,
                    "velocity": 0.48031496062992124,
                    "duration": 0.10768899999999348
                },
                {
                    "name": "E4",
                    "midi": 64,
                    "time": 464.35496799998396,
                    "velocity": 0.49606299212598426,
                    "duration": 0.10768899999999348
                },
                {
                    "name": "F4",
                    "midi": 65,
                    "time": 464.46265699998395,
                    "velocity": 0.5039370078740157,
                    "duration": 0.10768899999999348
                },
                {
                    "name": "G4",
                    "midi": 67,
                    "time": 464.57034599998394,
                    "velocity": 0.48031496062992124,
                    "duration": 0.10768899999999348
                },
                {
                    "name": "G#4",
                    "midi": 68,
                    "time": 464.67803499998394,
                    "velocity": 0.4251968503937008,
                    "duration": 0.10768899999999348
                },
                {
                    "name": "A#4",
                    "midi": 70,
                    "time": 464.78572399998393,
                    "velocity": 0.4881889763779528,
                    "duration": 0.10768899999999348
                },
                {
                    "name": "C5",
                    "midi": 72,
                    "time": 464.8934129999839,
                    "velocity": 0.49606299212598426,
                    "duration": 0.10768899999999348
                },
                {
                    "name": "D5",
                    "midi": 74,
                    "time": 465.0011019999839,
                    "velocity": 0.5118110236220472,
                    "duration": 0.10768899999999348
                },
                {
                    "name": "E5",
                    "midi": 76,
                    "time": 465.1087909999839,
                    "velocity": 0.5433070866141733,
                    "duration": 0.10768899999999348
                },
                {
                    "name": "F5",
                    "midi": 77,
                    "time": 465.2164799999839,
                    "velocity": 0.5669291338582677,
                    "duration": 0.10768899999999348
                },
                {
                    "name": "C5",
                    "midi": 72,
                    "time": 465.3241689999839,
                    "velocity": 0.5433070866141733,
                    "duration": 0.10768899999999348
                },
                {
                    "name": "F5",
                    "midi": 77,
                    "time": 465.4318579999839,
                    "velocity": 0.5118110236220472,
                    "duration": 0.10768899999999348
                },
                {
                    "name": "G#5",
                    "midi": 80,
                    "time": 465.5395469999839,
                    "velocity": 0.5039370078740157,
                    "duration": 0.10768899999999348
                },
                {
                    "name": "C6",
                    "midi": 84,
                    "time": 465.6472359999839,
                    "velocity": 0.5275590551181102,
                    "duration": 0.10768899999999348
                },
                {
                    "name": "C#6",
                    "midi": 85,
                    "time": 465.75492499998387,
                    "velocity": 0.5039370078740157,
                    "duration": 0.10768899999999348
                },
                {
                    "name": "C6",
                    "midi": 84,
                    "time": 465.86261399998386,
                    "velocity": 0.5039370078740157,
                    "duration": 0.10768899999999348
                },
                {
                    "name": "A#5",
                    "midi": 82,
                    "time": 465.97030299998386,
                    "velocity": 0.5039370078740157,
                    "duration": 0.10768899999999348
                },
                {
                    "name": "G#5",
                    "midi": 80,
                    "time": 466.07799199998385,
                    "velocity": 0.5196850393700787,
                    "duration": 0.10768899999999348
                },
                {
                    "name": "A#5",
                    "midi": 82,
                    "time": 466.18568099998384,
                    "velocity": 0.49606299212598426,
                    "duration": 0.10768899999999348
                },
                {
                    "name": "G#5",
                    "midi": 80,
                    "time": 466.29336999998384,
                    "velocity": 0.49606299212598426,
                    "duration": 0.10768899999999348
                },
                {
                    "name": "G5",
                    "midi": 79,
                    "time": 466.40105899998383,
                    "velocity": 0.4330708661417323,
                    "duration": 0.10768899999999348
                },
                {
                    "name": "F5",
                    "midi": 77,
                    "time": 466.5087479999838,
                    "velocity": 0.49606299212598426,
                    "duration": 0.10768899999999348
                },
                {
                    "name": "G5",
                    "midi": 79,
                    "time": 466.6164369999838,
                    "velocity": 0.4409448818897638,
                    "duration": 0.10768899999999348
                },
                {
                    "name": "G#5",
                    "midi": 80,
                    "time": 466.7241259999838,
                    "velocity": 0.47244094488188976,
                    "duration": 0.10768899999999348
                },
                {
                    "name": "F5",
                    "midi": 77,
                    "time": 466.8318149999838,
                    "velocity": 0.4330708661417323,
                    "duration": 0.10768899999999348
                },
                {
                    "name": "G#5",
                    "midi": 80,
                    "time": 466.9395039999838,
                    "velocity": 0.5669291338582677,
                    "duration": 0.10768899999999348
                },
                {
                    "name": "C5",
                    "midi": 72,
                    "time": 467.0471929999838,
                    "velocity": 0.5118110236220472,
                    "duration": 0.10768899999999348
                },
                {
                    "name": "F5",
                    "midi": 77,
                    "time": 467.1548819999838,
                    "velocity": 0.5118110236220472,
                    "duration": 0.10768899999999348
                },
                {
                    "name": "G#5",
                    "midi": 80,
                    "time": 467.2625709999838,
                    "velocity": 0.5039370078740157,
                    "duration": 0.10768899999999348
                },
                {
                    "name": "C6",
                    "midi": 84,
                    "time": 467.3702599999838,
                    "velocity": 0.5275590551181102,
                    "duration": 0.10768899999999348
                },
                {
                    "name": "C#6",
                    "midi": 85,
                    "time": 467.47794899998377,
                    "velocity": 0.5039370078740157,
                    "duration": 0.10768899999999348
                },
                {
                    "name": "C6",
                    "midi": 84,
                    "time": 467.58563799998376,
                    "velocity": 0.5039370078740157,
                    "duration": 0.10768899999999348
                },
                {
                    "name": "A#5",
                    "midi": 82,
                    "time": 467.69332699998375,
                    "velocity": 0.5039370078740157,
                    "duration": 0.10768899999999348
                },
                {
                    "name": "G#5",
                    "midi": 80,
                    "time": 467.80101599998375,
                    "velocity": 0.5039370078740157,
                    "duration": 0.10768899999999348
                },
                {
                    "name": "A#5",
                    "midi": 82,
                    "time": 467.90870499998374,
                    "velocity": 0.49606299212598426,
                    "duration": 0.10768899999999348
                },
                {
                    "name": "G#5",
                    "midi": 80,
                    "time": 468.01639399998373,
                    "velocity": 0.49606299212598426,
                    "duration": 0.10768899999999348
                },
                {
                    "name": "G5",
                    "midi": 79,
                    "time": 468.1240829999837,
                    "velocity": 0.4330708661417323,
                    "duration": 0.10768899999999348
                },
                {
                    "name": "F5",
                    "midi": 77,
                    "time": 468.2317719999837,
                    "velocity": 0.49606299212598426,
                    "duration": 0.10768899999999348
                },
                {
                    "name": "G5",
                    "midi": 79,
                    "time": 468.3394609999837,
                    "velocity": 0.4409448818897638,
                    "duration": 0.10768899999999348
                },
                {
                    "name": "G#5",
                    "midi": 80,
                    "time": 468.4471499999837,
                    "velocity": 0.47244094488188976,
                    "duration": 0.10768899999999348
                },
                {
                    "name": "F5",
                    "midi": 77,
                    "time": 468.5548389999837,
                    "velocity": 0.4330708661417323,
                    "duration": 0.10768899999999348
                },
                {
                    "name": "F#5",
                    "midi": 78,
                    "time": 468.6625279999837,
                    "velocity": 0.5590551181102362,
                    "duration": 0.10768899999999348
                },
                {
                    "name": "C#5",
                    "midi": 73,
                    "time": 468.7702169999837,
                    "velocity": 0.5118110236220472,
                    "duration": 0.10768899999999348
                },
                {
                    "name": "F#5",
                    "midi": 78,
                    "time": 468.8779059999837,
                    "velocity": 0.5118110236220472,
                    "duration": 0.10768899999999348
                },
                {
                    "name": "A#5",
                    "midi": 82,
                    "time": 468.9855949999837,
                    "velocity": 0.5039370078740157,
                    "duration": 0.10768899999999348
                },
                {
                    "name": "C#6",
                    "midi": 85,
                    "time": 469.09328399998367,
                    "velocity": 0.5275590551181102,
                    "duration": 0.10768899999999348
                },
                {
                    "name": "D#6",
                    "midi": 87,
                    "time": 469.20097299998366,
                    "velocity": 0.5039370078740157,
                    "duration": 0.10768899999999348
                },
                {
                    "name": "C#6",
                    "midi": 85,
                    "time": 469.30866199998366,
                    "velocity": 0.5039370078740157,
                    "duration": 0.10768899999999348
                },
                {
                    "name": "C6",
                    "midi": 84,
                    "time": 469.41635099998365,
                    "velocity": 0.5039370078740157,
                    "duration": 0.10768899999999348
                },
                {
                    "name": "A#5",
                    "midi": 82,
                    "time": 469.52403999998364,
                    "velocity": 0.5275590551181102,
                    "duration": 0.10768899999999348
                },
                {
                    "name": "C6",
                    "midi": 84,
                    "time": 469.63172899998364,
                    "velocity": 0.49606299212598426,
                    "duration": 0.10768899999999348
                },
                {
                    "name": "A#5",
                    "midi": 82,
                    "time": 469.73941799998363,
                    "velocity": 0.49606299212598426,
                    "duration": 0.10768899999999348
                },
                {
                    "name": "G#5",
                    "midi": 80,
                    "time": 469.8471069999836,
                    "velocity": 0.4330708661417323,
                    "duration": 0.10768899999999348
                },
                {
                    "name": "F#5",
                    "midi": 78,
                    "time": 469.9547959999836,
                    "velocity": 0.49606299212598426,
                    "duration": 0.10768899999999348
                },
                {
                    "name": "G#5",
                    "midi": 80,
                    "time": 470.0624849999836,
                    "velocity": 0.4409448818897638,
                    "duration": 0.10768899999999348
                },
                {
                    "name": "F#5",
                    "midi": 78,
                    "time": 470.1701739999836,
                    "velocity": 0.47244094488188976,
                    "duration": 0.10768899999999348
                },
                {
                    "name": "F5",
                    "midi": 77,
                    "time": 470.2778629999836,
                    "velocity": 0.4330708661417323,
                    "duration": 0.10768899999999348
                },
                {
                    "name": "E5",
                    "midi": 76,
                    "time": 470.3855519999836,
                    "velocity": 0.5669291338582677,
                    "duration": 0.10768899999999348
                },
                {
                    "name": "F5",
                    "midi": 77,
                    "time": 470.4932409999836,
                    "velocity": 0.5118110236220472,
                    "duration": 0.10768899999999348
                },
                {
                    "name": "G5",
                    "midi": 79,
                    "time": 470.6009299999836,
                    "velocity": 0.5118110236220472,
                    "duration": 0.10768899999999348
                },
                {
                    "name": "G#5",
                    "midi": 80,
                    "time": 470.70861899998357,
                    "velocity": 0.5039370078740157,
                    "duration": 0.10768899999999348
                },
                {
                    "name": "A#5",
                    "midi": 82,
                    "time": 470.81630799998356,
                    "velocity": 0.5511811023622047,
                    "duration": 0.10768899999999348
                },
                {
                    "name": "G#5",
                    "midi": 80,
                    "time": 470.92399699998356,
                    "velocity": 0.5196850393700787,
                    "duration": 0.10768899999999348
                },
                {
                    "name": "G5",
                    "midi": 79,
                    "time": 471.03168599998355,
                    "velocity": 0.5118110236220472,
                    "duration": 0.10768899999999348
                },
                {
                    "name": "F5",
                    "midi": 77,
                    "time": 471.13937499998354,
                    "velocity": 0.49606299212598426,
                    "duration": 0.10768899999999348
                },
                {
                    "name": "E5",
                    "midi": 76,
                    "time": 471.24706399998354,
                    "velocity": 0.5196850393700787,
                    "duration": 0.10768899999999348
                },
                {
                    "name": "F5",
                    "midi": 77,
                    "time": 471.35475299998353,
                    "velocity": 0.5275590551181102,
                    "duration": 0.10768899999999348
                },
                {
                    "name": "G5",
                    "midi": 79,
                    "time": 471.4624419999835,
                    "velocity": 0.49606299212598426,
                    "duration": 0.10768899999999348
                },
                {
                    "name": "G#5",
                    "midi": 80,
                    "time": 471.5701309999835,
                    "velocity": 0.4330708661417323,
                    "duration": 0.10768899999999348
                },
                {
                    "name": "A#5",
                    "midi": 82,
                    "time": 471.6778199999835,
                    "velocity": 0.49606299212598426,
                    "duration": 0.10768899999999348
                },
                {
                    "name": "C6",
                    "midi": 84,
                    "time": 471.7855089999835,
                    "velocity": 0.5196850393700787,
                    "duration": 0.10768899999999348
                },
                {
                    "name": "D6",
                    "midi": 86,
                    "time": 471.8931979999835,
                    "velocity": 0.5590551181102362,
                    "duration": 0.10768899999999348
                },
                {
                    "name": "E6",
                    "midi": 88,
                    "time": 472.0008869999835,
                    "velocity": 0.5748031496062992,
                    "duration": 0.10768899999999348
                },
                {
                    "name": "F6",
                    "midi": 89,
                    "time": 472.1085759999835,
                    "velocity": 0.6299212598425197,
                    "duration": 0.10768899999999348
                },
                {
                    "name": "G#5",
                    "midi": 80,
                    "time": 472.2162649999835,
                    "velocity": 0.5905511811023622,
                    "duration": 0.10768899999999348
                },
                {
                    "name": "C6",
                    "midi": 84,
                    "time": 472.3239539999835,
                    "velocity": 0.5511811023622047,
                    "duration": 0.10768899999999348
                },
                {
                    "name": "F6",
                    "midi": 89,
                    "time": 472.43164299998347,
                    "velocity": 0.5511811023622047,
                    "duration": 0.10768899999999348
                },
                {
                    "name": "G#6",
                    "midi": 92,
                    "time": 472.53933199998346,
                    "velocity": 0.6771653543307087,
                    "duration": 0.5384450000000243
                },
                {
                    "name": "C6",
                    "midi": 84,
                    "time": 473.0777769999835,
                    "velocity": 0.5511811023622047,
                    "duration": 0.10768899999999348
                },
                {
                    "name": "F6",
                    "midi": 89,
                    "time": 473.1854659999835,
                    "velocity": 0.5511811023622047,
                    "duration": 0.10768899999999348
                },
                {
                    "name": "G#6",
                    "midi": 92,
                    "time": 473.29315499998347,
                    "velocity": 0.5748031496062992,
                    "duration": 0.10768899999999348
                },
                {
                    "name": "C7",
                    "midi": 96,
                    "time": 473.40084399998346,
                    "velocity": 0.6062992125984252,
                    "duration": 0.10768899999999348
                },
                {
                    "name": "G#6",
                    "midi": 92,
                    "time": 473.50853299998346,
                    "velocity": 0.5984251968503937,
                    "duration": 0.10768899999999348
                },
                {
                    "name": "G6",
                    "midi": 91,
                    "time": 473.61622199998345,
                    "velocity": 0.5748031496062992,
                    "duration": 0.10768899999999348
                },
                {
                    "name": "E6",
                    "midi": 88,
                    "time": 473.72391099998345,
                    "velocity": 0.5748031496062992,
                    "duration": 0.10768899999999348
                },
                {
                    "name": "F6",
                    "midi": 89,
                    "time": 473.83159999998344,
                    "velocity": 0.6141732283464567,
                    "duration": 0.10768899999999348
                },
                {
                    "name": "G#5",
                    "midi": 80,
                    "time": 473.93928899998343,
                    "velocity": 0.5905511811023622,
                    "duration": 0.10768899999999348
                },
                {
                    "name": "C6",
                    "midi": 84,
                    "time": 474.0469779999834,
                    "velocity": 0.5511811023622047,
                    "duration": 0.10768899999999348
                },
                {
                    "name": "F6",
                    "midi": 89,
                    "time": 474.1546669999834,
                    "velocity": 0.5511811023622047,
                    "duration": 0.10768899999999348
                },
                {
                    "name": "G#6",
                    "midi": 92,
                    "time": 474.2623559999834,
                    "velocity": 0.6771653543307087,
                    "duration": 0.5384450000000243
                },
                {
                    "name": "C6",
                    "midi": 84,
                    "time": 474.80080099998344,
                    "velocity": 0.5433070866141733,
                    "duration": 0.10768899999999348
                },
                {
                    "name": "F6",
                    "midi": 89,
                    "time": 474.90848999998343,
                    "velocity": 0.5669291338582677,
                    "duration": 0.10768899999999348
                },
                {
                    "name": "G#6",
                    "midi": 92,
                    "time": 475.0161789999834,
                    "velocity": 0.5905511811023622,
                    "duration": 0.10768899999999348
                },
                {
                    "name": "C7",
                    "midi": 96,
                    "time": 475.1238679999834,
                    "velocity": 0.6062992125984252,
                    "duration": 0.10768899999999348
                },
                {
                    "name": "G#6",
                    "midi": 92,
                    "time": 475.2315569999834,
                    "velocity": 0.5984251968503937,
                    "duration": 0.10768899999999348
                },
                {
                    "name": "G6",
                    "midi": 91,
                    "time": 475.3392459999834,
                    "velocity": 0.5905511811023622,
                    "duration": 0.10768899999999348
                },
                {
                    "name": "E6",
                    "midi": 88,
                    "time": 475.4469349999834,
                    "velocity": 0.5669291338582677,
                    "duration": 0.10768899999999348
                },
                {
                    "name": "F6",
                    "midi": 89,
                    "time": 475.5546239999834,
                    "velocity": 0.6141732283464567,
                    "duration": 0.10768899999999348
                },
                {
                    "name": "G#5",
                    "midi": 80,
                    "time": 475.6623129999834,
                    "velocity": 0.5905511811023622,
                    "duration": 0.10768899999999348
                },
                {
                    "name": "C6",
                    "midi": 84,
                    "time": 475.7700019999834,
                    "velocity": 0.5511811023622047,
                    "duration": 0.10768899999999348
                },
                {
                    "name": "F6",
                    "midi": 89,
                    "time": 475.8776909999834,
                    "velocity": 0.5511811023622047,
                    "duration": 0.10768899999999348
                },
                {
                    "name": "G#6",
                    "midi": 92,
                    "time": 475.98537999998337,
                    "velocity": 0.6771653543307087,
                    "duration": 0.5384450000000243
                },
                {
                    "name": "C6",
                    "midi": 84,
                    "time": 476.5238249999834,
                    "velocity": 0.5433070866141733,
                    "duration": 0.10768899999999348
                },
                {
                    "name": "F6",
                    "midi": 89,
                    "time": 476.6315139999834,
                    "velocity": 0.5669291338582677,
                    "duration": 0.10768899999999348
                },
                {
                    "name": "G#6",
                    "midi": 92,
                    "time": 476.7392029999834,
                    "velocity": 0.5905511811023622,
                    "duration": 0.10768899999999348
                },
                {
                    "name": "C7",
                    "midi": 96,
                    "time": 476.84689199998337,
                    "velocity": 0.6062992125984252,
                    "duration": 0.10768899999999348
                },
                {
                    "name": "G#6",
                    "midi": 92,
                    "time": 476.95458099998336,
                    "velocity": 0.5984251968503937,
                    "duration": 0.10768899999999348
                },
                {
                    "name": "G6",
                    "midi": 91,
                    "time": 477.06226999998336,
                    "velocity": 0.5905511811023622,
                    "duration": 0.10768899999999348
                },
                {
                    "name": "E6",
                    "midi": 88,
                    "time": 477.16995899998335,
                    "velocity": 0.5748031496062992,
                    "duration": 0.10768899999999348
                },
                {
                    "name": "F6",
                    "midi": 89,
                    "time": 477.27764799998334,
                    "velocity": 0.6062992125984252,
                    "duration": 0.10768899999999348
                },
                {
                    "name": "G#5",
                    "midi": 80,
                    "time": 477.38533699998334,
                    "velocity": 0.5905511811023622,
                    "duration": 0.10768899999999348
                },
                {
                    "name": "C6",
                    "midi": 84,
                    "time": 477.49302599998333,
                    "velocity": 0.5511811023622047,
                    "duration": 0.10768899999999348
                },
                {
                    "name": "F6",
                    "midi": 89,
                    "time": 477.6007149999833,
                    "velocity": 0.5511811023622047,
                    "duration": 0.10768899999999348
                },
                {
                    "name": "G#6",
                    "midi": 92,
                    "time": 477.7084039999833,
                    "velocity": 0.6771653543307087,
                    "duration": 0.5384450000000243
                },
                {
                    "name": "C6",
                    "midi": 84,
                    "time": 478.24684899998334,
                    "velocity": 0.5511811023622047,
                    "duration": 0.10768899999999348
                },
                {
                    "name": "F6",
                    "midi": 89,
                    "time": 478.35453799998334,
                    "velocity": 0.5669291338582677,
                    "duration": 0.10768899999999348
                },
                {
                    "name": "G#6",
                    "midi": 92,
                    "time": 478.46222699998333,
                    "velocity": 0.5905511811023622,
                    "duration": 0.10768899999999348
                },
                {
                    "name": "C7",
                    "midi": 96,
                    "time": 478.5699159999833,
                    "velocity": 0.5984251968503937,
                    "duration": 0.10768899999999348
                },
                {
                    "name": "G#6",
                    "midi": 92,
                    "time": 478.6776049999833,
                    "velocity": 0.5984251968503937,
                    "duration": 0.10768899999999348
                },
                {
                    "name": "G6",
                    "midi": 91,
                    "time": 478.7852939999833,
                    "velocity": 0.5905511811023622,
                    "duration": 0.10768899999999348
                },
                {
                    "name": "E6",
                    "midi": 88,
                    "time": 478.8929829999833,
                    "velocity": 0.5748031496062992,
                    "duration": 0.10768899999999348
                },
                {
                    "name": "F6",
                    "midi": 89,
                    "time": 479.0006719999833,
                    "velocity": 0.6062992125984252,
                    "duration": 0.10768899999999348
                },
                {
                    "name": "C6",
                    "midi": 84,
                    "time": 479.1083609999833,
                    "velocity": 0.5669291338582677,
                    "duration": 0.10768899999999348
                },
                {
                    "name": "F6",
                    "midi": 89,
                    "time": 479.2160499999833,
                    "velocity": 0.5669291338582677,
                    "duration": 0.10768899999999348
                },
                {
                    "name": "G#6",
                    "midi": 92,
                    "time": 479.3237389999833,
                    "velocity": 0.5984251968503937,
                    "duration": 0.10768899999999348
                },
                {
                    "name": "C7",
                    "midi": 96,
                    "time": 479.43142799998327,
                    "velocity": 0.6220472440944882,
                    "duration": 0.10768899999999348
                },
                {
                    "name": "G#6",
                    "midi": 92,
                    "time": 479.53911699998326,
                    "velocity": 0.6141732283464567,
                    "duration": 0.10768899999999348
                },
                {
                    "name": "G6",
                    "midi": 91,
                    "time": 479.64680599998326,
                    "velocity": 0.6062992125984252,
                    "duration": 0.10768899999999348
                },
                {
                    "name": "E6",
                    "midi": 88,
                    "time": 479.75449499998325,
                    "velocity": 0.5984251968503937,
                    "duration": 0.10768899999999348
                },
                {
                    "name": "F6",
                    "midi": 89,
                    "time": 479.86218399998324,
                    "velocity": 0.6220472440944882,
                    "duration": 0.10768899999999348
                },
                {
                    "name": "C6",
                    "midi": 84,
                    "time": 479.96987299998324,
                    "velocity": 0.5905511811023622,
                    "duration": 0.10768899999999348
                },
                {
                    "name": "F6",
                    "midi": 89,
                    "time": 480.07756199998323,
                    "velocity": 0.6062992125984252,
                    "duration": 0.10768899999999348
                },
                {
                    "name": "G#6",
                    "midi": 92,
                    "time": 480.1852509999832,
                    "velocity": 0.6299212598425197,
                    "duration": 0.10768899999999348
                },
                {
                    "name": "C7",
                    "midi": 96,
                    "time": 480.2929399999832,
                    "velocity": 0.6299212598425197,
                    "duration": 0.10768899999999348
                },
                {
                    "name": "G#6",
                    "midi": 92,
                    "time": 480.4006289999832,
                    "velocity": 0.6220472440944882,
                    "duration": 0.10768899999999348
                },
                {
                    "name": "G6",
                    "midi": 91,
                    "time": 480.5083179999832,
                    "velocity": 0.6062992125984252,
                    "duration": 0.10768899999999348
                },
                {
                    "name": "E6",
                    "midi": 88,
                    "time": 480.6160069999832,
                    "velocity": 0.6062992125984252,
                    "duration": 0.10768899999999348
                },
                {
                    "name": "F6",
                    "midi": 89,
                    "time": 480.7236959999832,
                    "velocity": 0.7007874015748031,
                    "duration": 0.10768899999999348
                },
                {
                    "name": "C6",
                    "midi": 84,
                    "time": 480.8313849999832,
                    "velocity": 0.6456692913385826,
                    "duration": 0.10768899999999348
                },
                {
                    "name": "F6",
                    "midi": 89,
                    "time": 480.9390739999832,
                    "velocity": 0.6692913385826772,
                    "duration": 0.10768899999999348
                },
                {
                    "name": "G#6",
                    "midi": 92,
                    "time": 481.0467629999832,
                    "velocity": 0.6929133858267716,
                    "duration": 0.10768899999999348
                },
                {
                    "name": "C7",
                    "midi": 96,
                    "time": 481.15445199998317,
                    "velocity": 0.6614173228346457,
                    "duration": 0.10768899999999348
                },
                {
                    "name": "G#6",
                    "midi": 92,
                    "time": 481.26214099998316,
                    "velocity": 0.6456692913385826,
                    "duration": 0.10768899999999348
                },
                {
                    "name": "G6",
                    "midi": 91,
                    "time": 481.36982999998315,
                    "velocity": 0.6456692913385826,
                    "duration": 0.10768899999999348
                },
                {
                    "name": "E6",
                    "midi": 88,
                    "time": 481.47751899998315,
                    "velocity": 0.6299212598425197,
                    "duration": 0.10768899999999348
                },
                {
                    "name": "C7",
                    "midi": 96,
                    "time": 481.58520799998314,
                    "velocity": 0.7007874015748031,
                    "duration": 0.10768899999999348
                },
                {
                    "name": "G#6",
                    "midi": 92,
                    "time": 481.69289699998313,
                    "velocity": 0.5905511811023622,
                    "duration": 0.10768899999999348
                },
                {
                    "name": "G6",
                    "midi": 91,
                    "time": 481.8005859999831,
                    "velocity": 0.6220472440944882,
                    "duration": 0.10768899999999348
                },
                {
                    "name": "E6",
                    "midi": 88,
                    "time": 481.9082749999831,
                    "velocity": 0.6614173228346457,
                    "duration": 0.10768899999999348
                },
                {
                    "name": "C7",
                    "midi": 96,
                    "time": 482.0159639999831,
                    "velocity": 0.7086614173228346,
                    "duration": 0.10768899999999348
                },
                {
                    "name": "G#6",
                    "midi": 92,
                    "time": 482.1236529999831,
                    "velocity": 0.7007874015748031,
                    "duration": 0.10768899999999348
                },
                {
                    "name": "G6",
                    "midi": 91,
                    "time": 482.2313419999831,
                    "velocity": 0.6850393700787402,
                    "duration": 0.10768899999999348
                },
                {
                    "name": "E6",
                    "midi": 88,
                    "time": 482.3390309999831,
                    "velocity": 0.7007874015748031,
                    "duration": 0.10768899999999348
                },
                {
                    "name": "C7",
                    "midi": 96,
                    "time": 482.4467199999831,
                    "velocity": 0.7322834645669292,
                    "duration": 0.10768899999999348
                },
                {
                    "name": "G#6",
                    "midi": 92,
                    "time": 482.5544089999831,
                    "velocity": 0.6220472440944882,
                    "duration": 0.10768899999999348
                },
                {
                    "name": "F6",
                    "midi": 89,
                    "time": 482.6620979999831,
                    "velocity": 0.6299212598425197,
                    "duration": 0.10768899999999348
                },
                {
                    "name": "C6",
                    "midi": 84,
                    "time": 482.76978699998307,
                    "velocity": 0.6299212598425197,
                    "duration": 0.10768899999999348
                },
                {
                    "name": "G#6",
                    "midi": 92,
                    "time": 482.87747599998306,
                    "velocity": 0.7322834645669292,
                    "duration": 0.10768899999999348
                },
                {
                    "name": "F6",
                    "midi": 89,
                    "time": 482.98516499998306,
                    "velocity": 0.6456692913385826,
                    "duration": 0.10768899999999348
                },
                {
                    "name": "C6",
                    "midi": 84,
                    "time": 483.09285399998305,
                    "velocity": 0.6456692913385826,
                    "duration": 0.10768899999999348
                },
                {
                    "name": "G#5",
                    "midi": 80,
                    "time": 483.20054299998304,
                    "velocity": 0.6456692913385826,
                    "duration": 0.10768899999999348
                },
                {
                    "name": "F6",
                    "midi": 89,
                    "time": 483.30823199998304,
                    "velocity": 0.7322834645669292,
                    "duration": 0.10768899999999348
                },
                {
                    "name": "C6",
                    "midi": 84,
                    "time": 483.41592099998303,
                    "velocity": 0.6377952755905512,
                    "duration": 0.10768899999999348
                },
                {
                    "name": "G#5",
                    "midi": 80,
                    "time": 483.523609999983,
                    "velocity": 0.6377952755905512,
                    "duration": 0.10768899999999348
                },
                {
                    "name": "F5",
                    "midi": 77,
                    "time": 483.631298999983,
                    "velocity": 0.6456692913385826,
                    "duration": 0.10768899999999348
                },
                {
                    "name": "C6",
                    "midi": 84,
                    "time": 483.738987999983,
                    "velocity": 0.7322834645669292,
                    "duration": 0.10768899999999348
                },
                {
                    "name": "G#5",
                    "midi": 80,
                    "time": 483.846676999983,
                    "velocity": 0.6377952755905512,
                    "duration": 0.10768899999999348
                },
                {
                    "name": "F5",
                    "midi": 77,
                    "time": 483.954365999983,
                    "velocity": 0.6377952755905512,
                    "duration": 0.10768899999999348
                },
                {
                    "name": "C5",
                    "midi": 72,
                    "time": 484.062054999983,
                    "velocity": 0.6377952755905512,
                    "duration": 0.10768899999999348
                },
                {
                    "name": "G#5",
                    "midi": 80,
                    "time": 484.169743999983,
                    "velocity": 0.7322834645669292,
                    "duration": 0.10768899999999348
                },
                {
                    "name": "F5",
                    "midi": 77,
                    "time": 484.277432999983,
                    "velocity": 0.6299212598425197,
                    "duration": 0.10768899999999348
                },
                {
                    "name": "C5",
                    "midi": 72,
                    "time": 484.38512199998297,
                    "velocity": 0.6299212598425197,
                    "duration": 0.10768899999999348
                },
                {
                    "name": "G#4",
                    "midi": 68,
                    "time": 484.49281099998296,
                    "velocity": 0.6299212598425197,
                    "duration": 0.10768899999999348
                },
                {
                    "name": "F5",
                    "midi": 77,
                    "time": 484.60049999998296,
                    "velocity": 0.7322834645669292,
                    "duration": 0.10768899999999348
                },
                {
                    "name": "C5",
                    "midi": 72,
                    "time": 484.70818899998295,
                    "velocity": 0.6456692913385826,
                    "duration": 0.10768899999999348
                },
                {
                    "name": "G#4",
                    "midi": 68,
                    "time": 484.81587799998294,
                    "velocity": 0.6377952755905512,
                    "duration": 0.10768899999999348
                },
                {
                    "name": "F4",
                    "midi": 65,
                    "time": 484.92356699998294,
                    "velocity": 0.6377952755905512,
                    "duration": 0.10768899999999348
                },
                {
                    "name": "C5",
                    "midi": 72,
                    "time": 485.03125599998293,
                    "velocity": 0.7322834645669292,
                    "duration": 0.10768899999999348
                },
                {
                    "name": "G#4",
                    "midi": 68,
                    "time": 485.1389449999829,
                    "velocity": 0.6299212598425197,
                    "duration": 0.10768899999999348
                },
                {
                    "name": "F4",
                    "midi": 65,
                    "time": 485.2466339999829,
                    "velocity": 0.6299212598425197,
                    "duration": 0.10768899999999348
                },
                {
                    "name": "C4",
                    "midi": 60,
                    "time": 485.3543229999829,
                    "velocity": 0.6299212598425197,
                    "duration": 0.10768899999999348
                },
                {
                    "name": "G#4",
                    "midi": 68,
                    "time": 485.4620119999829,
                    "velocity": 0.7322834645669292,
                    "duration": 0.10768899999999348
                },
                {
                    "name": "F4",
                    "midi": 65,
                    "time": 485.5697009999829,
                    "velocity": 0.6299212598425197,
                    "duration": 0.10768899999999348
                },
                {
                    "name": "C4",
                    "midi": 60,
                    "time": 485.6773899999829,
                    "velocity": 0.6377952755905512,
                    "duration": 0.10768899999999348
                },
                {
                    "name": "G#3",
                    "midi": 56,
                    "time": 485.7850789999829,
                    "velocity": 0.6377952755905512,
                    "duration": 0.10768899999999348
                },
                {
                    "name": "F4",
                    "midi": 65,
                    "time": 485.8927679999829,
                    "velocity": 0.7322834645669292,
                    "duration": 0.10768899999999348
                },
                {
                    "name": "C4",
                    "midi": 60,
                    "time": 486.0004569999829,
                    "velocity": 0.6377952755905512,
                    "duration": 0.10768899999999348
                },
                {
                    "name": "G#3",
                    "midi": 56,
                    "time": 486.10814599998287,
                    "velocity": 0.6377952755905512,
                    "duration": 0.10768899999999348
                },
                {
                    "name": "F3",
                    "midi": 53,
                    "time": 486.21583499998286,
                    "velocity": 0.6377952755905512,
                    "duration": 0.10768899999999348
                },
                {
                    "name": "C4",
                    "midi": 60,
                    "time": 486.32352399998285,
                    "velocity": 0.7322834645669292,
                    "duration": 0.10768899999999348
                },
                {
                    "name": "G#3",
                    "midi": 56,
                    "time": 486.43121299998285,
                    "velocity": 0.6377952755905512,
                    "duration": 0.10768899999999348
                },
                {
                    "name": "F3",
                    "midi": 53,
                    "time": 486.53890199998284,
                    "velocity": 0.6377952755905512,
                    "duration": 0.10768899999999348
                },
                {
                    "name": "C3",
                    "midi": 48,
                    "time": 486.64659099998283,
                    "velocity": 0.6377952755905512,
                    "duration": 0.10768899999999348
                },
                {
                    "name": "G#3",
                    "midi": 56,
                    "time": 486.7542799999828,
                    "velocity": 0.7322834645669292,
                    "duration": 0.10768899999999348
                },
                {
                    "name": "F3",
                    "midi": 53,
                    "time": 486.8619689999828,
                    "velocity": 0.6377952755905512,
                    "duration": 0.10768899999999348
                },
                {
                    "name": "C3",
                    "midi": 48,
                    "time": 486.9696579999828,
                    "velocity": 0.6377952755905512,
                    "duration": 0.10768899999999348
                },
                {
                    "name": "G#2",
                    "midi": 44,
                    "time": 487.0773469999828,
                    "velocity": 0.6377952755905512,
                    "duration": 0.10768899999999348
                },
                {
                    "name": "F3",
                    "midi": 53,
                    "time": 487.1850359999828,
                    "velocity": 0.7322834645669292,
                    "duration": 0.10768899999999348
                },
                {
                    "name": "C3",
                    "midi": 48,
                    "time": 487.2927249999828,
                    "velocity": 0.6692913385826772,
                    "duration": 0.10768899999999348
                },
                {
                    "name": "G#2",
                    "midi": 44,
                    "time": 487.4004139999828,
                    "velocity": 0.6299212598425197,
                    "duration": 0.10768899999999348
                },
                {
                    "name": "C3",
                    "midi": 48,
                    "time": 487.5081029999828,
                    "velocity": 0.6299212598425197,
                    "duration": 0.10768899999999348
                },
                {
                    "name": "F2",
                    "midi": 41,
                    "time": 487.6157919999828,
                    "velocity": 0.7086614173228346,
                    "duration": 0.21537799999998697
                },
                {
                    "name": "G#2",
                    "midi": 44,
                    "time": 487.6157919999828,
                    "velocity": 0.7086614173228346,
                    "duration": 0.21537799999998697
                },
                {
                    "name": "C3",
                    "midi": 48,
                    "time": 487.6157919999828,
                    "velocity": 0.7086614173228346,
                    "duration": 0.21537799999998697
                },
                {
                    "name": "F3",
                    "midi": 53,
                    "time": 487.6157919999828,
                    "velocity": 0.8346456692913385,
                    "duration": 0.21537799999998697
                },
                {
                    "name": "F4",
                    "midi": 65,
                    "time": 488.4773039999828,
                    "velocity": 0.7401574803149606,
                    "duration": 0.21537799999998697
                },
                {
                    "name": "G#4",
                    "midi": 68,
                    "time": 488.4773039999828,
                    "velocity": 0.7401574803149606,
                    "duration": 0.21537799999998697
                },
                {
                    "name": "C5",
                    "midi": 72,
                    "time": 488.4773039999828,
                    "velocity": 0.7401574803149606,
                    "duration": 0.21537799999998697
                },
                {
                    "name": "F5",
                    "midi": 77,
                    "time": 488.4773039999828,
                    "velocity": 0.8740157480314961,
                    "duration": 0.21537799999998697
                },
                {
                    "name": "F3",
                    "midi": 53,
                    "time": 489.3388159999828,
                    "velocity": 0.7401574803149606,
                    "duration": 0.21537799999998697
                },
                {
                    "name": "G#3",
                    "midi": 56,
                    "time": 489.3388159999828,
                    "velocity": 0.7401574803149606,
                    "duration": 0.21537799999998697
                },
                {
                    "name": "C4",
                    "midi": 60,
                    "time": 489.3388159999828,
                    "velocity": 0.7401574803149606,
                    "duration": 0.21537799999998697
                },
                {
                    "name": "F4",
                    "midi": 65,
                    "time": 489.3388159999828,
                    "velocity": 0.8740157480314961,
                    "duration": 0.21537799999998697
                }
            ],
            "controlChanges": {
                "7": [
                    {
                        "number": 7,
                        "time": 0,
                        "value": 0.7874015748031497
                    }
                ],
                "10": [
                    {
                        "number": 10,
                        "time": 0,
                        "value": 0.5039370078740157
                    }
                ],
                "91": [
                    {
                        "number": 91,
                        "time": 0,
                        "value": 1
                    }
                ]
            },
            "id": 1,
            "name": "Piano right",
            "instrumentNumber": 0,
            "instrument": "acoustic grand piano",
            "instrumentFamily": "piano",
            "channelNumber": 0,
            "isPercussion": false
        },
        {
            "startTime": 0,
            "duration": 489.55419399998493,
            "length": 3481,
            "notes": [
                {
                    "name": "A#2",
                    "midi": 46,
                    "time": 0,
                    "velocity": 0.5590551181102362,
                    "duration": 0.6398521416666667
                },
                {
                    "name": "G3",
                    "midi": 55,
                    "time": 0,
                    "velocity": 0.6614173228346457,
                    "duration": 0.6398521416666667
                },
                {
                    "name": "G3",
                    "midi": 55,
                    "time": 0.646134,
                    "velocity": 0.6062992125984252,
                    "duration": 0.21358318333333337
                },
                {
                    "name": "A#2",
                    "midi": 46,
                    "time": 0.646134,
                    "velocity": 0.5118110236220472,
                    "duration": 0.21358318333333337
                },
                {
                    "name": "A#2",
                    "midi": 46,
                    "time": 0.8615120000000001,
                    "velocity": 0.5590551181102362,
                    "duration": 0.6398521416666667
                },
                {
                    "name": "G3",
                    "midi": 55,
                    "time": 0.8615120000000001,
                    "velocity": 0.6614173228346457,
                    "duration": 0.6398521416666667
                },
                {
                    "name": "G3",
                    "midi": 55,
                    "time": 1.507646,
                    "velocity": 0.5984251968503937,
                    "duration": 0.21358318333333326
                },
                {
                    "name": "A#2",
                    "midi": 46,
                    "time": 1.507646,
                    "velocity": 0.5118110236220472,
                    "duration": 0.21358318333333326
                },
                {
                    "name": "A#2",
                    "midi": 46,
                    "time": 1.723024,
                    "velocity": 0.5590551181102362,
                    "duration": 0.3203747750000001
                },
                {
                    "name": "G3",
                    "midi": 55,
                    "time": 1.723024,
                    "velocity": 0.6614173228346457,
                    "duration": 0.3203747750000001
                },
                {
                    "name": "G3",
                    "midi": 55,
                    "time": 2.046091,
                    "velocity": 0.6062992125984252,
                    "duration": 0.10679159166666663
                },
                {
                    "name": "A#2",
                    "midi": 46,
                    "time": 2.046091,
                    "velocity": 0.5118110236220472,
                    "duration": 0.10679159166666663
                },
                {
                    "name": "A#2",
                    "midi": 46,
                    "time": 2.1537800000000002,
                    "velocity": 0.5590551181102362,
                    "duration": 0.3203747749999999
                },
                {
                    "name": "G3",
                    "midi": 55,
                    "time": 2.1537800000000002,
                    "velocity": 0.6614173228346457,
                    "duration": 0.3203747749999999
                },
                {
                    "name": "A#2",
                    "midi": 46,
                    "time": 2.4768470000000002,
                    "velocity": 0.5118110236220472,
                    "duration": 0.10679159166666663
                },
                {
                    "name": "G3",
                    "midi": 55,
                    "time": 2.4768470000000002,
                    "velocity": 0.5984251968503937,
                    "duration": 0.10679159166666663
                },
                {
                    "name": "G3",
                    "midi": 55,
                    "time": 2.5845360000000004,
                    "velocity": 0.6614173228346457,
                    "duration": 0.3203747749999999
                },
                {
                    "name": "A#2",
                    "midi": 46,
                    "time": 2.5845360000000004,
                    "velocity": 0.5590551181102362,
                    "duration": 0.3203747749999999
                },
                {
                    "name": "A#2",
                    "midi": 46,
                    "time": 2.9076030000000004,
                    "velocity": 0.5039370078740157,
                    "duration": 0.10679159166666663
                },
                {
                    "name": "G3",
                    "midi": 55,
                    "time": 2.9076030000000004,
                    "velocity": 0.5905511811023622,
                    "duration": 0.10679159166666663
                },
                {
                    "name": "G3",
                    "midi": 55,
                    "time": 3.0152920000000005,
                    "velocity": 0.6614173228346457,
                    "duration": 0.3203747749999999
                },
                {
                    "name": "A#2",
                    "midi": 46,
                    "time": 3.0152920000000005,
                    "velocity": 0.5590551181102362,
                    "duration": 0.3203747749999999
                },
                {
                    "name": "A#2",
                    "midi": 46,
                    "time": 3.3383590000000005,
                    "velocity": 0.5039370078740157,
                    "duration": 0.10679159166666663
                },
                {
                    "name": "G3",
                    "midi": 55,
                    "time": 3.3383590000000005,
                    "velocity": 0.5905511811023622,
                    "duration": 0.10679159166666663
                },
                {
                    "name": "G3",
                    "midi": 55,
                    "time": 3.4460480000000007,
                    "velocity": 0.6614173228346457,
                    "duration": 0.43075600000000014
                },
                {
                    "name": "A#2",
                    "midi": 46,
                    "time": 3.4460480000000007,
                    "velocity": 0.5590551181102362,
                    "duration": 0.43075600000000014
                },
                {
                    "name": "C2",
                    "midi": 36,
                    "time": 10.768900000000002,
                    "velocity": 0.47244094488188976,
                    "duration": 0.11666308333333397
                },
                {
                    "name": "C#2",
                    "midi": 37,
                    "time": 10.876589000000003,
                    "velocity": 0.47244094488188976,
                    "duration": 0.11666308333333397
                },
                {
                    "name": "C2",
                    "midi": 36,
                    "time": 10.984278000000003,
                    "velocity": 0.47244094488188976,
                    "duration": 0.11666308333333397
                },
                {
                    "name": "B1",
                    "midi": 35,
                    "time": 11.091967000000004,
                    "velocity": 0.47244094488188976,
                    "duration": 0.11666308333333397
                },
                {
                    "name": "C2",
                    "midi": 36,
                    "time": 11.199656000000004,
                    "velocity": 0.47244094488188976,
                    "duration": 0.11666308333333397
                },
                {
                    "name": "C#2",
                    "midi": 37,
                    "time": 11.307345000000005,
                    "velocity": 0.47244094488188976,
                    "duration": 0.11666308333333397
                },
                {
                    "name": "C2",
                    "midi": 36,
                    "time": 11.415034000000006,
                    "velocity": 0.47244094488188976,
                    "duration": 0.11666308333333397
                },
                {
                    "name": "B1",
                    "midi": 35,
                    "time": 11.522723000000006,
                    "velocity": 0.47244094488188976,
                    "duration": 0.11666308333333397
                },
                {
                    "name": "C2",
                    "midi": 36,
                    "time": 11.630412000000007,
                    "velocity": 0.47244094488188976,
                    "duration": 0.11666308333333397
                },
                {
                    "name": "C#2",
                    "midi": 37,
                    "time": 11.738101000000007,
                    "velocity": 0.47244094488188976,
                    "duration": 0.11666308333333397
                },
                {
                    "name": "C2",
                    "midi": 36,
                    "time": 11.845790000000008,
                    "velocity": 0.47244094488188976,
                    "duration": 0.11666308333333397
                },
                {
                    "name": "B1",
                    "midi": 35,
                    "time": 11.953479000000009,
                    "velocity": 0.47244094488188976,
                    "duration": 0.11666308333333397
                },
                {
                    "name": "C2",
                    "midi": 36,
                    "time": 12.06116800000001,
                    "velocity": 0.47244094488188976,
                    "duration": 0.11666308333333397
                },
                {
                    "name": "C#2",
                    "midi": 37,
                    "time": 12.16885700000001,
                    "velocity": 0.47244094488188976,
                    "duration": 0.11666308333333397
                },
                {
                    "name": "C2",
                    "midi": 36,
                    "time": 12.27654600000001,
                    "velocity": 0.47244094488188976,
                    "duration": 0.11666308333333397
                },
                {
                    "name": "B1",
                    "midi": 35,
                    "time": 12.384235000000011,
                    "velocity": 0.47244094488188976,
                    "duration": 0.11666308333333397
                },
                {
                    "name": "C2",
                    "midi": 36,
                    "time": 12.491924000000012,
                    "velocity": 0.47244094488188976,
                    "duration": 0.11666308333333397
                },
                {
                    "name": "C#2",
                    "midi": 37,
                    "time": 12.599613000000012,
                    "velocity": 0.47244094488188976,
                    "duration": 0.11666308333333397
                },
                {
                    "name": "C2",
                    "midi": 36,
                    "time": 12.707302000000013,
                    "velocity": 0.47244094488188976,
                    "duration": 0.11666308333333397
                },
                {
                    "name": "B1",
                    "midi": 35,
                    "time": 12.814991000000013,
                    "velocity": 0.47244094488188976,
                    "duration": 0.11666308333333397
                },
                {
                    "name": "A#1",
                    "midi": 34,
                    "time": 12.922680000000014,
                    "velocity": 0.44881889763779526,
                    "duration": 0.11666308333333397
                },
                {
                    "name": "C2",
                    "midi": 36,
                    "time": 13.030369000000015,
                    "velocity": 0.44881889763779526,
                    "duration": 0.11666308333333397
                },
                {
                    "name": "A#1",
                    "midi": 34,
                    "time": 13.138058000000015,
                    "velocity": 0.44881889763779526,
                    "duration": 0.11666308333333397
                },
                {
                    "name": "A1",
                    "midi": 33,
                    "time": 13.245747000000016,
                    "velocity": 0.44881889763779526,
                    "duration": 0.11666308333333397
                },
                {
                    "name": "A#1",
                    "midi": 34,
                    "time": 13.353436000000016,
                    "velocity": 0.44881889763779526,
                    "duration": 0.11666308333333397
                },
                {
                    "name": "C2",
                    "midi": 36,
                    "time": 13.461125000000017,
                    "velocity": 0.44881889763779526,
                    "duration": 0.11666308333333397
                },
                {
                    "name": "A#1",
                    "midi": 34,
                    "time": 13.568814000000017,
                    "velocity": 0.44881889763779526,
                    "duration": 0.11666308333333397
                },
                {
                    "name": "A1",
                    "midi": 33,
                    "time": 13.676503000000018,
                    "velocity": 0.44881889763779526,
                    "duration": 0.11666308333333397
                },
                {
                    "name": "A#1",
                    "midi": 34,
                    "time": 13.784192000000019,
                    "velocity": 0.44881889763779526,
                    "duration": 0.11666308333333397
                },
                {
                    "name": "C2",
                    "midi": 36,
                    "time": 13.89188100000002,
                    "velocity": 0.4409448818897638,
                    "duration": 0.11666308333333397
                },
                {
                    "name": "A#1",
                    "midi": 34,
                    "time": 13.99957000000002,
                    "velocity": 0.4409448818897638,
                    "duration": 0.11666308333333397
                },
                {
                    "name": "A1",
                    "midi": 33,
                    "time": 14.10725900000002,
                    "velocity": 0.4409448818897638,
                    "duration": 0.11666308333333397
                },
                {
                    "name": "A#1",
                    "midi": 34,
                    "time": 14.214948000000021,
                    "velocity": 0.4330708661417323,
                    "duration": 0.11666308333333397
                },
                {
                    "name": "C2",
                    "midi": 36,
                    "time": 14.322637000000022,
                    "velocity": 0.4330708661417323,
                    "duration": 0.11666308333333397
                },
                {
                    "name": "A#1",
                    "midi": 34,
                    "time": 14.430326000000022,
                    "velocity": 0.4330708661417323,
                    "duration": 0.11666308333333397
                },
                {
                    "name": "A1",
                    "midi": 33,
                    "time": 14.538015000000023,
                    "velocity": 0.4330708661417323,
                    "duration": 0.11666308333333397
                },
                {
                    "name": "A#1",
                    "midi": 34,
                    "time": 14.645704000000023,
                    "velocity": 0.4330708661417323,
                    "duration": 0.11666308333333397
                },
                {
                    "name": "C2",
                    "midi": 36,
                    "time": 14.753393000000024,
                    "velocity": 0.4251968503937008,
                    "duration": 0.11666308333333397
                },
                {
                    "name": "A#1",
                    "midi": 34,
                    "time": 14.861082000000025,
                    "velocity": 0.41732283464566927,
                    "duration": 0.11666308333333397
                },
                {
                    "name": "A1",
                    "midi": 33,
                    "time": 14.968771000000025,
                    "velocity": 0.4094488188976378,
                    "duration": 0.11666308333333397
                },
                {
                    "name": "A#1",
                    "midi": 34,
                    "time": 15.076460000000026,
                    "velocity": 0.4015748031496063,
                    "duration": 0.11666308333333397
                },
                {
                    "name": "C2",
                    "midi": 36,
                    "time": 15.184149000000026,
                    "velocity": 0.3937007874015748,
                    "duration": 0.11666308333333397
                },
                {
                    "name": "A#1",
                    "midi": 34,
                    "time": 15.291838000000027,
                    "velocity": 0.3858267716535433,
                    "duration": 0.11666308333333397
                },
                {
                    "name": "A1",
                    "midi": 33,
                    "time": 15.399527000000027,
                    "velocity": 0.3779527559055118,
                    "duration": 0.11666308333333397
                },
                {
                    "name": "A#1",
                    "midi": 34,
                    "time": 15.507216000000028,
                    "velocity": 0.3700787401574803,
                    "duration": 0.11666308333333397
                },
                {
                    "name": "G1",
                    "midi": 31,
                    "time": 15.614905000000029,
                    "velocity": 0.36220472440944884,
                    "duration": 0.11666308333333397
                },
                {
                    "name": "G#1",
                    "midi": 32,
                    "time": 15.72259400000003,
                    "velocity": 0.3543307086614173,
                    "duration": 0.11666308333333397
                },
                {
                    "name": "A#1",
                    "midi": 34,
                    "time": 15.83028300000003,
                    "velocity": 0.3464566929133858,
                    "duration": 0.11666308333333397
                },
                {
                    "name": "C2",
                    "midi": 36,
                    "time": 15.93797200000003,
                    "velocity": 0.33858267716535434,
                    "duration": 0.1166630833333322
                },
                {
                    "name": "A#1",
                    "midi": 34,
                    "time": 16.04566100000003,
                    "velocity": 0.33070866141732286,
                    "duration": 0.11666308333332864
                },
                {
                    "name": "G#1",
                    "midi": 32,
                    "time": 16.153350000000028,
                    "velocity": 0.3228346456692913,
                    "duration": 0.11666308333332864
                },
                {
                    "name": "G1",
                    "midi": 31,
                    "time": 16.261039000000025,
                    "velocity": 0.31496062992125984,
                    "duration": 0.11666308333332864
                },
                {
                    "name": "F1",
                    "midi": 29,
                    "time": 16.368728000000022,
                    "velocity": 0.30708661417322836,
                    "duration": 0.4307559999999988
                },
                {
                    "name": "F2",
                    "midi": 41,
                    "time": 17.98406300000002,
                    "velocity": 0.2755905511811024,
                    "duration": 0.10768900000000059
                },
                {
                    "name": "F1",
                    "midi": 29,
                    "time": 18.09175200000002,
                    "velocity": 0.31496062992125984,
                    "duration": 0.4307559999999988
                },
                {
                    "name": "F2",
                    "midi": 41,
                    "time": 19.70708700000002,
                    "velocity": 0.2755905511811024,
                    "duration": 0.10768900000000059
                },
                {
                    "name": "A#1",
                    "midi": 34,
                    "time": 19.81477600000002,
                    "velocity": 0.31496062992125984,
                    "duration": 0.4307559999999988
                },
                {
                    "name": "C#2",
                    "midi": 37,
                    "time": 21.430111000000018,
                    "velocity": 0.28346456692913385,
                    "duration": 0.10768900000000059
                },
                {
                    "name": "C2",
                    "midi": 36,
                    "time": 21.53780000000002,
                    "velocity": 0.31496062992125984,
                    "duration": 0.21537800000000118
                },
                {
                    "name": "C#2",
                    "midi": 37,
                    "time": 21.96855600000002,
                    "velocity": 0.2992125984251969,
                    "duration": 0.21537800000000118
                },
                {
                    "name": "A#1",
                    "midi": 34,
                    "time": 22.399312000000023,
                    "velocity": 0.31496062992125984,
                    "duration": 0.21537800000000118
                },
                {
                    "name": "C2",
                    "midi": 36,
                    "time": 22.830068000000026,
                    "velocity": 0.29133858267716534,
                    "duration": 0.21537800000000118
                },
                {
                    "name": "F2",
                    "midi": 41,
                    "time": 23.260824000000028,
                    "velocity": 0.31496062992125984,
                    "duration": 0.4307559999999988
                },
                {
                    "name": "F1",
                    "midi": 29,
                    "time": 23.260824000000028,
                    "velocity": 0.31496062992125984,
                    "duration": 0.4307559999999988
                },
                {
                    "name": "C5",
                    "midi": 72,
                    "time": 24.014647000000025,
                    "velocity": 0.3858267716535433,
                    "duration": 0.10768900000000059
                },
                {
                    "name": "G#4",
                    "midi": 68,
                    "time": 24.014647000000025,
                    "velocity": 0.3858267716535433,
                    "duration": 0.10768900000000059
                },
                {
                    "name": "G#4",
                    "midi": 68,
                    "time": 24.122336000000026,
                    "velocity": 0.44881889763779526,
                    "duration": 0.4307559999999988
                },
                {
                    "name": "C5",
                    "midi": 72,
                    "time": 24.122336000000026,
                    "velocity": 0.44881889763779526,
                    "duration": 0.4307559999999988
                },
                {
                    "name": "G#4",
                    "midi": 68,
                    "time": 24.553092000000024,
                    "velocity": 0.23622047244094488,
                    "duration": 0.21537800000000118
                },
                {
                    "name": "F4",
                    "midi": 65,
                    "time": 24.553092000000024,
                    "velocity": 0.23622047244094488,
                    "duration": 0.21537800000000118
                },
                {
                    "name": "F2",
                    "midi": 41,
                    "time": 24.983848000000027,
                    "velocity": 0.31496062992125984,
                    "duration": 0.4307559999999988
                },
                {
                    "name": "F1",
                    "midi": 29,
                    "time": 24.983848000000027,
                    "velocity": 0.31496062992125984,
                    "duration": 0.4307559999999988
                },
                {
                    "name": "G#4",
                    "midi": 68,
                    "time": 25.737671000000027,
                    "velocity": 0.4015748031496063,
                    "duration": 0.10768900000000059
                },
                {
                    "name": "C5",
                    "midi": 72,
                    "time": 25.737671000000027,
                    "velocity": 0.4015748031496063,
                    "duration": 0.10768900000000059
                },
                {
                    "name": "C5",
                    "midi": 72,
                    "time": 25.845360000000028,
                    "velocity": 0.4409448818897638,
                    "duration": 0.4307559999999988
                },
                {
                    "name": "G#4",
                    "midi": 68,
                    "time": 25.845360000000028,
                    "velocity": 0.4409448818897638,
                    "duration": 0.4307559999999988
                },
                {
                    "name": "F4",
                    "midi": 65,
                    "time": 26.276116000000027,
                    "velocity": 0.23622047244094488,
                    "duration": 0.21537800000000118
                },
                {
                    "name": "G#4",
                    "midi": 68,
                    "time": 26.276116000000027,
                    "velocity": 0.23622047244094488,
                    "duration": 0.21537800000000118
                },
                {
                    "name": "A#1",
                    "midi": 34,
                    "time": 26.70687200000003,
                    "velocity": 0.31496062992125984,
                    "duration": 0.4307559999999988
                },
                {
                    "name": "A#2",
                    "midi": 46,
                    "time": 26.70687200000003,
                    "velocity": 0.31496062992125984,
                    "duration": 0.4307559999999988
                },
                {
                    "name": "A#4",
                    "midi": 70,
                    "time": 27.46069500000003,
                    "velocity": 0.49606299212598426,
                    "duration": 0.10768900000000059
                },
                {
                    "name": "C#5",
                    "midi": 73,
                    "time": 27.46069500000003,
                    "velocity": 0.49606299212598426,
                    "duration": 0.10768900000000059
                },
                {
                    "name": "C#5",
                    "midi": 73,
                    "time": 27.56838400000003,
                    "velocity": 0.5511811023622047,
                    "duration": 0.8615120000000012
                },
                {
                    "name": "A#4",
                    "midi": 70,
                    "time": 27.56838400000003,
                    "velocity": 0.5511811023622047,
                    "duration": 0.8615120000000012
                },
                {
                    "name": "A#4",
                    "midi": 70,
                    "time": 28.42989600000003,
                    "velocity": 0.4015748031496063,
                    "duration": 0.21537800000000118
                },
                {
                    "name": "C5",
                    "midi": 72,
                    "time": 28.42989600000003,
                    "velocity": 0.4015748031496063,
                    "duration": 0.21537800000000118
                },
                {
                    "name": "C3",
                    "midi": 48,
                    "time": 28.645274000000033,
                    "velocity": 0.33858267716535434,
                    "duration": 0.21537800000000118
                },
                {
                    "name": "C2",
                    "midi": 36,
                    "time": 28.645274000000033,
                    "velocity": 0.33858267716535434,
                    "duration": 0.21537800000000118
                },
                {
                    "name": "C#2",
                    "midi": 37,
                    "time": 29.076030000000035,
                    "velocity": 0.29133858267716534,
                    "duration": 0.21537800000000118
                },
                {
                    "name": "C#3",
                    "midi": 49,
                    "time": 29.076030000000035,
                    "velocity": 0.29133858267716534,
                    "duration": 0.21537800000000118
                },
                {
                    "name": "A#1",
                    "midi": 34,
                    "time": 29.506786000000037,
                    "velocity": 0.30708661417322836,
                    "duration": 0.21537800000000118
                },
                {
                    "name": "A#2",
                    "midi": 46,
                    "time": 29.506786000000037,
                    "velocity": 0.30708661417322836,
                    "duration": 0.21537800000000118
                },
                {
                    "name": "C3",
                    "midi": 48,
                    "time": 29.93754200000004,
                    "velocity": 0.2755905511811024,
                    "duration": 0.21537800000000118
                },
                {
                    "name": "C2",
                    "midi": 36,
                    "time": 29.93754200000004,
                    "velocity": 0.2755905511811024,
                    "duration": 0.21537800000000118
                },
                {
                    "name": "F1",
                    "midi": 29,
                    "time": 30.15292000000004,
                    "velocity": 0.3464566929133858,
                    "duration": 0.4307559999999988
                },
                {
                    "name": "F2",
                    "midi": 41,
                    "time": 30.15292000000004,
                    "velocity": 0.3464566929133858,
                    "duration": 0.4307559999999988
                },
                {
                    "name": "G#3",
                    "midi": 56,
                    "time": 30.90674300000004,
                    "velocity": 0.4094488188976378,
                    "duration": 0.10768900000000059
                },
                {
                    "name": "F3",
                    "midi": 53,
                    "time": 30.90674300000004,
                    "velocity": 0.4094488188976378,
                    "duration": 0.10768900000000059
                },
                {
                    "name": "F3",
                    "midi": 53,
                    "time": 31.014432000000042,
                    "velocity": 0.5118110236220472,
                    "duration": 0.4307559999999988
                },
                {
                    "name": "G#3",
                    "midi": 56,
                    "time": 31.014432000000042,
                    "velocity": 0.5118110236220472,
                    "duration": 0.4307559999999988
                },
                {
                    "name": "G#3",
                    "midi": 56,
                    "time": 31.76825500000004,
                    "velocity": 0.4251968503937008,
                    "duration": 0.10768900000000059
                },
                {
                    "name": "F3",
                    "midi": 53,
                    "time": 31.76825500000004,
                    "velocity": 0.4251968503937008,
                    "duration": 0.10768900000000059
                },
                {
                    "name": "C3",
                    "midi": 48,
                    "time": 31.87594400000004,
                    "velocity": 0.5196850393700787,
                    "duration": 0.8615119999999976
                },
                {
                    "name": "G#3",
                    "midi": 56,
                    "time": 31.87594400000004,
                    "velocity": 0.5196850393700787,
                    "duration": 0.8615119999999976
                },
                {
                    "name": "F3",
                    "midi": 53,
                    "time": 31.87594400000004,
                    "velocity": 0.5196850393700787,
                    "duration": 0.8615119999999976
                },
                {
                    "name": "C3",
                    "midi": 48,
                    "time": 32.73745600000004,
                    "velocity": 0.3779527559055118,
                    "duration": 0.21537800000000118
                },
                {
                    "name": "E3",
                    "midi": 52,
                    "time": 32.73745600000004,
                    "velocity": 0.3779527559055118,
                    "duration": 0.21537800000000118
                },
                {
                    "name": "G3",
                    "midi": 55,
                    "time": 32.73745600000004,
                    "velocity": 0.3779527559055118,
                    "duration": 0.21537800000000118
                },
                {
                    "name": "C2",
                    "midi": 36,
                    "time": 33.59896800000004,
                    "velocity": 0.33070866141732286,
                    "duration": 0.43075600000000236
                },
                {
                    "name": "C3",
                    "midi": 48,
                    "time": 33.59896800000004,
                    "velocity": 0.33070866141732286,
                    "duration": 0.43075600000000236
                },
                {
                    "name": "A#3",
                    "midi": 58,
                    "time": 34.352791000000046,
                    "velocity": 0.47244094488188976,
                    "duration": 0.10768900000000059
                },
                {
                    "name": "G3",
                    "midi": 55,
                    "time": 34.352791000000046,
                    "velocity": 0.47244094488188976,
                    "duration": 0.10768900000000059
                },
                {
                    "name": "A#3",
                    "midi": 58,
                    "time": 34.46048000000005,
                    "velocity": 0.5354330708661418,
                    "duration": 0.43075600000000236
                },
                {
                    "name": "G3",
                    "midi": 55,
                    "time": 34.46048000000005,
                    "velocity": 0.5354330708661418,
                    "duration": 0.43075600000000236
                },
                {
                    "name": "G3",
                    "midi": 55,
                    "time": 35.21430300000005,
                    "velocity": 0.48031496062992124,
                    "duration": 0.10768900000000059
                },
                {
                    "name": "A#3",
                    "midi": 58,
                    "time": 35.21430300000005,
                    "velocity": 0.48031496062992124,
                    "duration": 0.10768900000000059
                },
                {
                    "name": "F3",
                    "midi": 53,
                    "time": 35.32199200000005,
                    "velocity": 0.4566929133858268,
                    "duration": 0.8615119999999976
                },
                {
                    "name": "A#3",
                    "midi": 58,
                    "time": 35.32199200000005,
                    "velocity": 0.5433070866141733,
                    "duration": 0.8615119999999976
                },
                {
                    "name": "G3",
                    "midi": 55,
                    "time": 35.32199200000005,
                    "velocity": 0.4566929133858268,
                    "duration": 0.8615119999999976
                },
                {
                    "name": "G#3",
                    "midi": 56,
                    "time": 36.18350400000005,
                    "velocity": 0.4094488188976378,
                    "duration": 0.21537800000000118
                },
                {
                    "name": "F3",
                    "midi": 53,
                    "time": 36.18350400000005,
                    "velocity": 0.3700787401574803,
                    "duration": 0.21537800000000118
                },
                {
                    "name": "F2",
                    "midi": 41,
                    "time": 37.04501600000005,
                    "velocity": 0.3543307086614173,
                    "duration": 0.43075600000000236
                },
                {
                    "name": "F3",
                    "midi": 53,
                    "time": 37.04501600000005,
                    "velocity": 0.3543307086614173,
                    "duration": 0.43075600000000236
                },
                {
                    "name": "C4",
                    "midi": 60,
                    "time": 37.79883900000005,
                    "velocity": 0.4645669291338583,
                    "duration": 0.10768900000000059
                },
                {
                    "name": "D#4",
                    "midi": 63,
                    "time": 37.79883900000005,
                    "velocity": 0.4645669291338583,
                    "duration": 0.10768900000000059
                },
                {
                    "name": "C4",
                    "midi": 60,
                    "time": 37.90652800000005,
                    "velocity": 0.5354330708661418,
                    "duration": 0.43075600000000236
                },
                {
                    "name": "D#4",
                    "midi": 63,
                    "time": 37.90652800000005,
                    "velocity": 0.5354330708661418,
                    "duration": 0.43075600000000236
                },
                {
                    "name": "D#4",
                    "midi": 63,
                    "time": 38.660351000000055,
                    "velocity": 0.5196850393700787,
                    "duration": 0.10768900000000059
                },
                {
                    "name": "C4",
                    "midi": 60,
                    "time": 38.660351000000055,
                    "velocity": 0.5196850393700787,
                    "duration": 0.10768900000000059
                },
                {
                    "name": "C4",
                    "midi": 60,
                    "time": 38.768040000000056,
                    "velocity": 0.5669291338582677,
                    "duration": 1.0768899999999988
                },
                {
                    "name": "D#4",
                    "midi": 63,
                    "time": 38.768040000000056,
                    "velocity": 0.5669291338582677,
                    "duration": 1.0768899999999988
                },
                {
                    "name": "A#3",
                    "midi": 58,
                    "time": 38.768040000000056,
                    "velocity": 0.5669291338582677,
                    "duration": 1.0768899999999988
                },
                {
                    "name": "A#3",
                    "midi": 58,
                    "time": 39.844930000000055,
                    "velocity": 0.5039370078740157,
                    "duration": 0.21537800000000118
                },
                {
                    "name": "C#4",
                    "midi": 61,
                    "time": 39.844930000000055,
                    "velocity": 0.5039370078740157,
                    "duration": 0.21537800000000118
                },
                {
                    "name": "C4",
                    "midi": 60,
                    "time": 40.060308000000056,
                    "velocity": 0.48031496062992124,
                    "duration": 0.21537800000000118
                },
                {
                    "name": "G#3",
                    "midi": 56,
                    "time": 40.060308000000056,
                    "velocity": 0.48031496062992124,
                    "duration": 0.21537800000000118
                },
                {
                    "name": "G3",
                    "midi": 55,
                    "time": 40.27568600000006,
                    "velocity": 0.4645669291338583,
                    "duration": 0.21537800000000118
                },
                {
                    "name": "A#3",
                    "midi": 58,
                    "time": 40.27568600000006,
                    "velocity": 0.4645669291338583,
                    "duration": 0.21537800000000118
                },
                {
                    "name": "F3",
                    "midi": 53,
                    "time": 40.49106400000006,
                    "velocity": 0.4409448818897638,
                    "duration": 0.43075600000000236
                },
                {
                    "name": "G#3",
                    "midi": 56,
                    "time": 40.49106400000006,
                    "velocity": 0.4409448818897638,
                    "duration": 0.43075600000000236
                },
                {
                    "name": "C3",
                    "midi": 48,
                    "time": 40.49106400000006,
                    "velocity": 0.4409448818897638,
                    "duration": 0.43075600000000236
                },
                {
                    "name": "G#3",
                    "midi": 56,
                    "time": 41.24488700000006,
                    "velocity": 0.4409448818897638,
                    "duration": 0.10768900000000059
                },
                {
                    "name": "F3",
                    "midi": 53,
                    "time": 41.24488700000006,
                    "velocity": 0.4409448818897638,
                    "duration": 0.10768900000000059
                },
                {
                    "name": "G3",
                    "midi": 55,
                    "time": 41.35257600000006,
                    "velocity": 0.49606299212598426,
                    "duration": 0.43075600000000236
                },
                {
                    "name": "A#3",
                    "midi": 58,
                    "time": 41.35257600000006,
                    "velocity": 0.49606299212598426,
                    "duration": 0.43075600000000236
                },
                {
                    "name": "C3",
                    "midi": 48,
                    "time": 41.35257600000006,
                    "velocity": 0.49606299212598426,
                    "duration": 0.43075600000000236
                },
                {
                    "name": "G3",
                    "midi": 55,
                    "time": 42.10639900000007,
                    "velocity": 0.41732283464566927,
                    "duration": 0.10768900000000059
                },
                {
                    "name": "E3",
                    "midi": 52,
                    "time": 42.10639900000007,
                    "velocity": 0.41732283464566927,
                    "duration": 0.10768900000000059
                },
                {
                    "name": "F3",
                    "midi": 53,
                    "time": 42.21408800000007,
                    "velocity": 0.4409448818897638,
                    "duration": 0.10768900000000059
                },
                {
                    "name": "C4",
                    "midi": 60,
                    "time": 42.32177700000007,
                    "velocity": 0.3858267716535433,
                    "duration": 0.10768900000000059
                },
                {
                    "name": "G#3",
                    "midi": 56,
                    "time": 42.42946600000007,
                    "velocity": 0.3858267716535433,
                    "duration": 0.10768900000000059
                },
                {
                    "name": "F3",
                    "midi": 53,
                    "time": 42.53715500000007,
                    "velocity": 0.3858267716535433,
                    "duration": 0.10768900000000059
                },
                {
                    "name": "C3",
                    "midi": 48,
                    "time": 42.64484400000007,
                    "velocity": 0.41732283464566927,
                    "duration": 0.10768900000000059
                },
                {
                    "name": "G#3",
                    "midi": 56,
                    "time": 42.75253300000007,
                    "velocity": 0.3858267716535433,
                    "duration": 0.10768900000000059
                },
                {
                    "name": "F3",
                    "midi": 53,
                    "time": 42.86022200000007,
                    "velocity": 0.3858267716535433,
                    "duration": 0.10768900000000059
                },
                {
                    "name": "C3",
                    "midi": 48,
                    "time": 42.96791100000007,
                    "velocity": 0.3858267716535433,
                    "duration": 0.10768900000000059
                },
                {
                    "name": "G#2",
                    "midi": 44,
                    "time": 43.07560000000007,
                    "velocity": 0.41732283464566927,
                    "duration": 0.10768900000000059
                },
                {
                    "name": "F3",
                    "midi": 53,
                    "time": 43.18328900000007,
                    "velocity": 0.3858267716535433,
                    "duration": 0.10768900000000059
                },
                {
                    "name": "C3",
                    "midi": 48,
                    "time": 43.290978000000074,
                    "velocity": 0.3858267716535433,
                    "duration": 0.10768900000000059
                },
                {
                    "name": "G#2",
                    "midi": 44,
                    "time": 43.398667000000074,
                    "velocity": 0.3858267716535433,
                    "duration": 0.10768900000000059
                },
                {
                    "name": "F2",
                    "midi": 41,
                    "time": 43.506356000000075,
                    "velocity": 0.41732283464566927,
                    "duration": 0.10768900000000059
                },
                {
                    "name": "C3",
                    "midi": 48,
                    "time": 43.614045000000075,
                    "velocity": 0.3858267716535433,
                    "duration": 0.10768900000000059
                },
                {
                    "name": "G#2",
                    "midi": 44,
                    "time": 43.721734000000076,
                    "velocity": 0.3858267716535433,
                    "duration": 0.10768900000000059
                },
                {
                    "name": "F2",
                    "midi": 41,
                    "time": 43.82942300000008,
                    "velocity": 0.3858267716535433,
                    "duration": 0.10768900000000059
                },
                {
                    "name": "C2",
                    "midi": 36,
                    "time": 43.93711200000008,
                    "velocity": 0.41732283464566927,
                    "duration": 0.10768900000000059
                },
                {
                    "name": "F2",
                    "midi": 41,
                    "time": 44.04480100000008,
                    "velocity": 0.3858267716535433,
                    "duration": 0.10768900000000059
                },
                {
                    "name": "G#2",
                    "midi": 44,
                    "time": 44.15249000000008,
                    "velocity": 0.3858267716535433,
                    "duration": 0.10768900000000059
                },
                {
                    "name": "C3",
                    "midi": 48,
                    "time": 44.26017900000008,
                    "velocity": 0.3858267716535433,
                    "duration": 0.10768900000000059
                },
                {
                    "name": "B2",
                    "midi": 47,
                    "time": 44.36786800000008,
                    "velocity": 0.41732283464566927,
                    "duration": 0.10768900000000059
                },
                {
                    "name": "C3",
                    "midi": 48,
                    "time": 44.47555700000008,
                    "velocity": 0.3858267716535433,
                    "duration": 0.10768900000000059
                },
                {
                    "name": "B2",
                    "midi": 47,
                    "time": 44.58324600000008,
                    "velocity": 0.3858267716535433,
                    "duration": 0.10768900000000059
                },
                {
                    "name": "C3",
                    "midi": 48,
                    "time": 44.69093500000008,
                    "velocity": 0.3858267716535433,
                    "duration": 0.10768900000000059
                },
                {
                    "name": "B2",
                    "midi": 47,
                    "time": 44.79862400000008,
                    "velocity": 0.41732283464566927,
                    "duration": 0.10768900000000059
                },
                {
                    "name": "C3",
                    "midi": 48,
                    "time": 44.90631300000008,
                    "velocity": 0.3858267716535433,
                    "duration": 0.10768900000000059
                },
                {
                    "name": "G2",
                    "midi": 43,
                    "time": 45.01400200000008,
                    "velocity": 0.3858267716535433,
                    "duration": 0.10768900000000059
                },
                {
                    "name": "C3",
                    "midi": 48,
                    "time": 45.121691000000084,
                    "velocity": 0.3858267716535433,
                    "duration": 0.10768900000000059
                },
                {
                    "name": "E2",
                    "midi": 40,
                    "time": 45.229380000000084,
                    "velocity": 0.41732283464566927,
                    "duration": 0.10768900000000059
                },
                {
                    "name": "C3",
                    "midi": 48,
                    "time": 45.337069000000085,
                    "velocity": 0.3858267716535433,
                    "duration": 0.10768900000000059
                },
                {
                    "name": "G2",
                    "midi": 43,
                    "time": 45.444758000000085,
                    "velocity": 0.3858267716535433,
                    "duration": 0.10768900000000059
                },
                {
                    "name": "C3",
                    "midi": 48,
                    "time": 45.552447000000086,
                    "velocity": 0.3858267716535433,
                    "duration": 0.10768900000000059
                },
                {
                    "name": "C2",
                    "midi": 36,
                    "time": 45.66013600000009,
                    "velocity": 0.4409448818897638,
                    "duration": 0.10768900000000059
                },
                {
                    "name": "E2",
                    "midi": 40,
                    "time": 45.76782500000009,
                    "velocity": 0.3858267716535433,
                    "duration": 0.10768900000000059
                },
                {
                    "name": "G2",
                    "midi": 43,
                    "time": 45.87551400000009,
                    "velocity": 0.3858267716535433,
                    "duration": 0.10768900000000059
                },
                {
                    "name": "C3",
                    "midi": 48,
                    "time": 45.98320300000009,
                    "velocity": 0.3858267716535433,
                    "duration": 0.10768900000000059
                },
                {
                    "name": "E2",
                    "midi": 40,
                    "time": 46.09089200000009,
                    "velocity": 0.41732283464566927,
                    "duration": 0.10768900000000059
                },
                {
                    "name": "G2",
                    "midi": 43,
                    "time": 46.19858100000009,
                    "velocity": 0.3858267716535433,
                    "duration": 0.10768900000000059
                },
                {
                    "name": "C3",
                    "midi": 48,
                    "time": 46.30627000000009,
                    "velocity": 0.3858267716535433,
                    "duration": 0.10768900000000059
                },
                {
                    "name": "E3",
                    "midi": 52,
                    "time": 46.41395900000009,
                    "velocity": 0.3858267716535433,
                    "duration": 0.10768900000000059
                },
                {
                    "name": "G2",
                    "midi": 43,
                    "time": 46.52164800000009,
                    "velocity": 0.41732283464566927,
                    "duration": 0.10768900000000059
                },
                {
                    "name": "C3",
                    "midi": 48,
                    "time": 46.62933700000009,
                    "velocity": 0.3858267716535433,
                    "duration": 0.10768900000000059
                },
                {
                    "name": "E3",
                    "midi": 52,
                    "time": 46.73702600000009,
                    "velocity": 0.3858267716535433,
                    "duration": 0.10768900000000059
                },
                {
                    "name": "G3",
                    "midi": 55,
                    "time": 46.84471500000009,
                    "velocity": 0.3858267716535433,
                    "duration": 0.10768900000000059
                },
                {
                    "name": "C3",
                    "midi": 48,
                    "time": 46.952404000000094,
                    "velocity": 0.41732283464566927,
                    "duration": 0.10768900000000059
                },
                {
                    "name": "E3",
                    "midi": 52,
                    "time": 47.060093000000094,
                    "velocity": 0.3858267716535433,
                    "duration": 0.10768900000000059
                },
                {
                    "name": "G3",
                    "midi": 55,
                    "time": 47.167782000000095,
                    "velocity": 0.3858267716535433,
                    "duration": 0.10768900000000059
                },
                {
                    "name": "C4",
                    "midi": 60,
                    "time": 47.275471000000096,
                    "velocity": 0.3858267716535433,
                    "duration": 0.10768900000000059
                },
                {
                    "name": "F3",
                    "midi": 53,
                    "time": 47.383160000000096,
                    "velocity": 0.4645669291338583,
                    "duration": 0.10768900000000059
                },
                {
                    "name": "G#3",
                    "midi": 56,
                    "time": 47.4908490000001,
                    "velocity": 0.3858267716535433,
                    "duration": 0.10768900000000059
                },
                {
                    "name": "C4",
                    "midi": 60,
                    "time": 47.5985380000001,
                    "velocity": 0.3858267716535433,
                    "duration": 0.10768900000000059
                },
                {
                    "name": "F4",
                    "midi": 65,
                    "time": 47.7062270000001,
                    "velocity": 0.3858267716535433,
                    "duration": 0.10768900000000059
                },
                {
                    "name": "E4",
                    "midi": 64,
                    "time": 47.8139160000001,
                    "velocity": 0.41732283464566927,
                    "duration": 0.10768900000000059
                },
                {
                    "name": "F4",
                    "midi": 65,
                    "time": 47.9216050000001,
                    "velocity": 0.3858267716535433,
                    "duration": 0.10768900000000059
                },
                {
                    "name": "E4",
                    "midi": 64,
                    "time": 48.0292940000001,
                    "velocity": 0.3858267716535433,
                    "duration": 0.10768900000000059
                },
                {
                    "name": "F4",
                    "midi": 65,
                    "time": 48.1369830000001,
                    "velocity": 0.3858267716535433,
                    "duration": 0.10768900000000059
                },
                {
                    "name": "E4",
                    "midi": 64,
                    "time": 48.2446720000001,
                    "velocity": 0.41732283464566927,
                    "duration": 0.10768900000000059
                },
                {
                    "name": "F4",
                    "midi": 65,
                    "time": 48.3523610000001,
                    "velocity": 0.3858267716535433,
                    "duration": 0.10768900000000059
                },
                {
                    "name": "C4",
                    "midi": 60,
                    "time": 48.4600500000001,
                    "velocity": 0.3858267716535433,
                    "duration": 0.10768900000000059
                },
                {
                    "name": "F4",
                    "midi": 65,
                    "time": 48.5677390000001,
                    "velocity": 0.3858267716535433,
                    "duration": 0.10768900000000059
                },
                {
                    "name": "G#3",
                    "midi": 56,
                    "time": 48.6754280000001,
                    "velocity": 0.41732283464566927,
                    "duration": 0.10768900000000059
                },
                {
                    "name": "F4",
                    "midi": 65,
                    "time": 48.783117000000104,
                    "velocity": 0.3858267716535433,
                    "duration": 0.10768900000000059
                },
                {
                    "name": "C4",
                    "midi": 60,
                    "time": 48.890806000000104,
                    "velocity": 0.3858267716535433,
                    "duration": 0.10768900000000059
                },
                {
                    "name": "F4",
                    "midi": 65,
                    "time": 48.998495000000105,
                    "velocity": 0.3858267716535433,
                    "duration": 0.10768900000000059
                },
                {
                    "name": "F3",
                    "midi": 53,
                    "time": 49.106184000000106,
                    "velocity": 0.48031496062992124,
                    "duration": 0.10768900000000059
                },
                {
                    "name": "A3",
                    "midi": 57,
                    "time": 49.213873000000106,
                    "velocity": 0.41732283464566927,
                    "duration": 0.10768900000000059
                },
                {
                    "name": "C4",
                    "midi": 60,
                    "time": 49.32156200000011,
                    "velocity": 0.41732283464566927,
                    "duration": 0.10768900000000059
                },
                {
                    "name": "F4",
                    "midi": 65,
                    "time": 49.42925100000011,
                    "velocity": 0.41732283464566927,
                    "duration": 0.10768900000000059
                },
                {
                    "name": "A3",
                    "midi": 57,
                    "time": 49.53694000000011,
                    "velocity": 0.4566929133858268,
                    "duration": 0.10768900000000059
                },
                {
                    "name": "C4",
                    "midi": 60,
                    "time": 49.64462900000011,
                    "velocity": 0.41732283464566927,
                    "duration": 0.10768900000000059
                },
                {
                    "name": "F4",
                    "midi": 65,
                    "time": 49.75231800000011,
                    "velocity": 0.41732283464566927,
                    "duration": 0.10768900000000059
                },
                {
                    "name": "A4",
                    "midi": 69,
                    "time": 49.86000700000011,
                    "velocity": 0.41732283464566927,
                    "duration": 0.10768900000000059
                },
                {
                    "name": "C4",
                    "midi": 60,
                    "time": 49.96769600000011,
                    "velocity": 0.4566929133858268,
                    "duration": 0.10768900000000059
                },
                {
                    "name": "F4",
                    "midi": 65,
                    "time": 50.07538500000011,
                    "velocity": 0.41732283464566927,
                    "duration": 0.10768900000000059
                },
                {
                    "name": "A4",
                    "midi": 69,
                    "time": 50.18307400000011,
                    "velocity": 0.41732283464566927,
                    "duration": 0.10768900000000059
                },
                {
                    "name": "C5",
                    "midi": 72,
                    "time": 50.29076300000011,
                    "velocity": 0.41732283464566927,
                    "duration": 0.10768900000000059
                },
                {
                    "name": "F4",
                    "midi": 65,
                    "time": 50.39845200000011,
                    "velocity": 0.4566929133858268,
                    "duration": 0.10768900000000059
                },
                {
                    "name": "A4",
                    "midi": 69,
                    "time": 50.50614100000011,
                    "velocity": 0.41732283464566927,
                    "duration": 0.10768900000000059
                },
                {
                    "name": "C5",
                    "midi": 72,
                    "time": 50.613830000000114,
                    "velocity": 0.41732283464566927,
                    "duration": 0.10768900000000059
                },
                {
                    "name": "F5",
                    "midi": 77,
                    "time": 50.721519000000114,
                    "velocity": 0.41732283464566927,
                    "duration": 0.10768900000000059
                },
                {
                    "name": "A4",
                    "midi": 69,
                    "time": 50.829208000000115,
                    "velocity": 0.5275590551181102,
                    "duration": 0.10768900000000059
                },
                {
                    "name": "F5",
                    "midi": 77,
                    "time": 50.936897000000116,
                    "velocity": 0.41732283464566927,
                    "duration": 0.10768900000000059
                },
                {
                    "name": "E5",
                    "midi": 76,
                    "time": 51.044586000000116,
                    "velocity": 0.41732283464566927,
                    "duration": 0.10768900000000059
                },
                {
                    "name": "F5",
                    "midi": 77,
                    "time": 51.15227500000012,
                    "velocity": 0.41732283464566927,
                    "duration": 0.10768900000000059
                },
                {
                    "name": "A4",
                    "midi": 69,
                    "time": 51.25996400000012,
                    "velocity": 0.4566929133858268,
                    "duration": 0.10768900000000059
                },
                {
                    "name": "F5",
                    "midi": 77,
                    "time": 51.36765300000012,
                    "velocity": 0.41732283464566927,
                    "duration": 0.10768900000000059
                },
                {
                    "name": "A4",
                    "midi": 69,
                    "time": 51.47534200000012,
                    "velocity": 0.41732283464566927,
                    "duration": 0.10768900000000059
                },
                {
                    "name": "F5",
                    "midi": 77,
                    "time": 51.58303100000012,
                    "velocity": 0.41732283464566927,
                    "duration": 0.10768900000000059
                },
                {
                    "name": "A4",
                    "midi": 69,
                    "time": 51.69072000000012,
                    "velocity": 0.44881889763779526,
                    "duration": 0.10768900000000059
                },
                {
                    "name": "F5",
                    "midi": 77,
                    "time": 51.79840900000012,
                    "velocity": 0.4409448818897638,
                    "duration": 0.10768900000000059
                },
                {
                    "name": "A#4",
                    "midi": 70,
                    "time": 51.90609800000012,
                    "velocity": 0.4409448818897638,
                    "duration": 0.10768900000000059
                },
                {
                    "name": "F5",
                    "midi": 77,
                    "time": 52.01378700000012,
                    "velocity": 0.4330708661417323,
                    "duration": 0.10768900000000059
                },
                {
                    "name": "C5",
                    "midi": 72,
                    "time": 52.12147600000012,
                    "velocity": 0.4251968503937008,
                    "duration": 0.10768900000000059
                },
                {
                    "name": "F5",
                    "midi": 77,
                    "time": 52.22916500000012,
                    "velocity": 0.41732283464566927,
                    "duration": 0.10768900000000059
                },
                {
                    "name": "C#5",
                    "midi": 73,
                    "time": 52.33685400000012,
                    "velocity": 0.4094488188976378,
                    "duration": 0.10768900000000059
                },
                {
                    "name": "F5",
                    "midi": 77,
                    "time": 52.444543000000124,
                    "velocity": 0.4094488188976378,
                    "duration": 0.10768900000000059
                },
                {
                    "name": "C4",
                    "midi": 60,
                    "time": 52.552232000000124,
                    "velocity": 0.4094488188976378,
                    "duration": 0.10768900000000059
                },
                {
                    "name": "F4",
                    "midi": 65,
                    "time": 52.659921000000125,
                    "velocity": 0.3700787401574803,
                    "duration": 0.10768900000000059
                },
                {
                    "name": "G#4",
                    "midi": 68,
                    "time": 52.767610000000126,
                    "velocity": 0.3700787401574803,
                    "duration": 0.10768900000000059
                },
                {
                    "name": "C5",
                    "midi": 72,
                    "time": 52.875299000000126,
                    "velocity": 0.3700787401574803,
                    "duration": 0.10768900000000059
                },
                {
                    "name": "B4",
                    "midi": 71,
                    "time": 52.98298800000013,
                    "velocity": 0.4094488188976378,
                    "duration": 0.10768900000000059
                },
                {
                    "name": "C5",
                    "midi": 72,
                    "time": 53.09067700000013,
                    "velocity": 0.3700787401574803,
                    "duration": 0.10768900000000059
                },
                {
                    "name": "B4",
                    "midi": 71,
                    "time": 53.19836600000013,
                    "velocity": 0.3700787401574803,
                    "duration": 0.10768900000000059
                },
                {
                    "name": "C5",
                    "midi": 72,
                    "time": 53.30605500000013,
                    "velocity": 0.3700787401574803,
                    "duration": 0.10768900000000059
                },
                {
                    "name": "C4",
                    "midi": 60,
                    "time": 53.41374400000013,
                    "velocity": 0.4094488188976378,
                    "duration": 0.10768900000000059
                },
                {
                    "name": "E4",
                    "midi": 64,
                    "time": 53.52143300000013,
                    "velocity": 0.3700787401574803,
                    "duration": 0.10768900000000059
                },
                {
                    "name": "G4",
                    "midi": 67,
                    "time": 53.62912200000013,
                    "velocity": 0.3700787401574803,
                    "duration": 0.10768900000000059
                },
                {
                    "name": "C5",
                    "midi": 72,
                    "time": 53.73681100000013,
                    "velocity": 0.3700787401574803,
                    "duration": 0.10768900000000059
                },
                {
                    "name": "C4",
                    "midi": 60,
                    "time": 53.84450000000013,
                    "velocity": 0.4094488188976378,
                    "duration": 0.10768900000000059
                },
                {
                    "name": "G4",
                    "midi": 67,
                    "time": 53.95218900000013,
                    "velocity": 0.3700787401574803,
                    "duration": 0.10768900000000059
                },
                {
                    "name": "A#4",
                    "midi": 70,
                    "time": 54.05987800000013,
                    "velocity": 0.3700787401574803,
                    "duration": 0.10768900000000059
                },
                {
                    "name": "C5",
                    "midi": 72,
                    "time": 54.16756700000013,
                    "velocity": 0.3700787401574803,
                    "duration": 0.10768900000000059
                },
                {
                    "name": "F3",
                    "midi": 53,
                    "time": 54.275256000000134,
                    "velocity": 0.4094488188976378,
                    "duration": 0.10768900000000059
                },
                {
                    "name": "F4",
                    "midi": 65,
                    "time": 54.382945000000134,
                    "velocity": 0.2992125984251969,
                    "duration": 0.10768900000000059
                },
                {
                    "name": "G#4",
                    "midi": 68,
                    "time": 54.382945000000134,
                    "velocity": 0.2992125984251969,
                    "duration": 0.10768900000000059
                },
                {
                    "name": "C4",
                    "midi": 60,
                    "time": 54.490634000000135,
                    "velocity": 0.30708661417322836,
                    "duration": 0.10768900000000059
                },
                {
                    "name": "C5",
                    "midi": 72,
                    "time": 54.490634000000135,
                    "velocity": 0.30708661417322836,
                    "duration": 0.10768900000000059
                },
                {
                    "name": "G#4",
                    "midi": 68,
                    "time": 54.598323000000136,
                    "velocity": 0.3228346456692913,
                    "duration": 0.10768900000000059
                },
                {
                    "name": "F4",
                    "midi": 65,
                    "time": 54.598323000000136,
                    "velocity": 0.3228346456692913,
                    "duration": 0.10768900000000059
                },
                {
                    "name": "C5",
                    "midi": 72,
                    "time": 54.706012000000136,
                    "velocity": 0.3543307086614173,
                    "duration": 0.10768900000000059
                },
                {
                    "name": "C4",
                    "midi": 60,
                    "time": 54.706012000000136,
                    "velocity": 0.3543307086614173,
                    "duration": 0.10768900000000059
                },
                {
                    "name": "G#4",
                    "midi": 68,
                    "time": 54.81370100000014,
                    "velocity": 0.3464566929133858,
                    "duration": 0.10768900000000059
                },
                {
                    "name": "F4",
                    "midi": 65,
                    "time": 54.81370100000014,
                    "velocity": 0.3464566929133858,
                    "duration": 0.10768900000000059
                },
                {
                    "name": "C5",
                    "midi": 72,
                    "time": 54.92139000000014,
                    "velocity": 0.3543307086614173,
                    "duration": 0.10768900000000059
                },
                {
                    "name": "C4",
                    "midi": 60,
                    "time": 54.92139000000014,
                    "velocity": 0.3543307086614173,
                    "duration": 0.10768900000000059
                },
                {
                    "name": "G#4",
                    "midi": 68,
                    "time": 55.02907900000014,
                    "velocity": 0.3543307086614173,
                    "duration": 0.10768900000000059
                },
                {
                    "name": "F4",
                    "midi": 65,
                    "time": 55.02907900000014,
                    "velocity": 0.3543307086614173,
                    "duration": 0.10768900000000059
                },
                {
                    "name": "C5",
                    "midi": 72,
                    "time": 55.13676800000014,
                    "velocity": 0.36220472440944884,
                    "duration": 0.10768900000000059
                },
                {
                    "name": "C4",
                    "midi": 60,
                    "time": 55.13676800000014,
                    "velocity": 0.36220472440944884,
                    "duration": 0.10768900000000059
                },
                {
                    "name": "G#4",
                    "midi": 68,
                    "time": 55.24445700000014,
                    "velocity": 0.36220472440944884,
                    "duration": 0.10768900000000059
                },
                {
                    "name": "F4",
                    "midi": 65,
                    "time": 55.24445700000014,
                    "velocity": 0.36220472440944884,
                    "duration": 0.10768900000000059
                },
                {
                    "name": "C5",
                    "midi": 72,
                    "time": 55.35214600000014,
                    "velocity": 0.3543307086614173,
                    "duration": 0.10768900000000059
                },
                {
                    "name": "C4",
                    "midi": 60,
                    "time": 55.35214600000014,
                    "velocity": 0.3543307086614173,
                    "duration": 0.10768900000000059
                },
                {
                    "name": "G#4",
                    "midi": 68,
                    "time": 55.45983500000014,
                    "velocity": 0.3543307086614173,
                    "duration": 0.10768900000000059
                },
                {
                    "name": "F4",
                    "midi": 65,
                    "time": 55.45983500000014,
                    "velocity": 0.3543307086614173,
                    "duration": 0.10768900000000059
                },
                {
                    "name": "C5",
                    "midi": 72,
                    "time": 55.56752400000014,
                    "velocity": 0.3543307086614173,
                    "duration": 0.10768900000000059
                },
                {
                    "name": "C4",
                    "midi": 60,
                    "time": 55.56752400000014,
                    "velocity": 0.3543307086614173,
                    "duration": 0.10768900000000059
                },
                {
                    "name": "G#4",
                    "midi": 68,
                    "time": 55.67521300000014,
                    "velocity": 0.3464566929133858,
                    "duration": 0.10768900000000059
                },
                {
                    "name": "F4",
                    "midi": 65,
                    "time": 55.67521300000014,
                    "velocity": 0.3464566929133858,
                    "duration": 0.10768900000000059
                },
                {
                    "name": "C5",
                    "midi": 72,
                    "time": 55.78290200000014,
                    "velocity": 0.3464566929133858,
                    "duration": 0.10768900000000059
                },
                {
                    "name": "C4",
                    "midi": 60,
                    "time": 55.78290200000014,
                    "velocity": 0.3464566929133858,
                    "duration": 0.10768900000000059
                },
                {
                    "name": "G#4",
                    "midi": 68,
                    "time": 55.89059100000014,
                    "velocity": 0.33858267716535434,
                    "duration": 0.10768900000000059
                },
                {
                    "name": "F4",
                    "midi": 65,
                    "time": 55.89059100000014,
                    "velocity": 0.33858267716535434,
                    "duration": 0.10768900000000059
                },
                {
                    "name": "F3",
                    "midi": 53,
                    "time": 55.99828000000014,
                    "velocity": 0.4251968503937008,
                    "duration": 0.10768900000000059
                },
                {
                    "name": "G#4",
                    "midi": 68,
                    "time": 56.105969000000144,
                    "velocity": 0.2992125984251969,
                    "duration": 0.10768900000000059
                },
                {
                    "name": "F4",
                    "midi": 65,
                    "time": 56.105969000000144,
                    "velocity": 0.2992125984251969,
                    "duration": 0.10768900000000059
                },
                {
                    "name": "C5",
                    "midi": 72,
                    "time": 56.213658000000144,
                    "velocity": 0.30708661417322836,
                    "duration": 0.10768900000000059
                },
                {
                    "name": "C4",
                    "midi": 60,
                    "time": 56.213658000000144,
                    "velocity": 0.30708661417322836,
                    "duration": 0.10768900000000059
                },
                {
                    "name": "G#4",
                    "midi": 68,
                    "time": 56.321347000000145,
                    "velocity": 0.3228346456692913,
                    "duration": 0.10768900000000059
                },
                {
                    "name": "F4",
                    "midi": 65,
                    "time": 56.321347000000145,
                    "velocity": 0.3228346456692913,
                    "duration": 0.10768900000000059
                },
                {
                    "name": "C5",
                    "midi": 72,
                    "time": 56.429036000000146,
                    "velocity": 0.3543307086614173,
                    "duration": 0.10768900000000059
                },
                {
                    "name": "C4",
                    "midi": 60,
                    "time": 56.429036000000146,
                    "velocity": 0.3543307086614173,
                    "duration": 0.10768900000000059
                },
                {
                    "name": "G#4",
                    "midi": 68,
                    "time": 56.536725000000146,
                    "velocity": 0.3464566929133858,
                    "duration": 0.10768900000000059
                },
                {
                    "name": "F4",
                    "midi": 65,
                    "time": 56.536725000000146,
                    "velocity": 0.3464566929133858,
                    "duration": 0.10768900000000059
                },
                {
                    "name": "C4",
                    "midi": 60,
                    "time": 56.64441400000015,
                    "velocity": 0.3543307086614173,
                    "duration": 0.10768900000000059
                },
                {
                    "name": "C5",
                    "midi": 72,
                    "time": 56.64441400000015,
                    "velocity": 0.3543307086614173,
                    "duration": 0.10768900000000059
                },
                {
                    "name": "F4",
                    "midi": 65,
                    "time": 56.75210300000015,
                    "velocity": 0.3543307086614173,
                    "duration": 0.10768900000000059
                },
                {
                    "name": "G#4",
                    "midi": 68,
                    "time": 56.75210300000015,
                    "velocity": 0.3543307086614173,
                    "duration": 0.10768900000000059
                },
                {
                    "name": "C5",
                    "midi": 72,
                    "time": 56.85979200000015,
                    "velocity": 0.36220472440944884,
                    "duration": 0.10768900000000059
                },
                {
                    "name": "C4",
                    "midi": 60,
                    "time": 56.85979200000015,
                    "velocity": 0.36220472440944884,
                    "duration": 0.10768900000000059
                },
                {
                    "name": "G#4",
                    "midi": 68,
                    "time": 56.96748100000015,
                    "velocity": 0.36220472440944884,
                    "duration": 0.10768900000000059
                },
                {
                    "name": "F4",
                    "midi": 65,
                    "time": 56.96748100000015,
                    "velocity": 0.36220472440944884,
                    "duration": 0.10768900000000059
                },
                {
                    "name": "C5",
                    "midi": 72,
                    "time": 57.07517000000015,
                    "velocity": 0.3543307086614173,
                    "duration": 0.10768900000000059
                },
                {
                    "name": "C4",
                    "midi": 60,
                    "time": 57.07517000000015,
                    "velocity": 0.3543307086614173,
                    "duration": 0.10768900000000059
                },
                {
                    "name": "G#4",
                    "midi": 68,
                    "time": 57.18285900000015,
                    "velocity": 0.3543307086614173,
                    "duration": 0.10768900000000059
                },
                {
                    "name": "F4",
                    "midi": 65,
                    "time": 57.18285900000015,
                    "velocity": 0.3543307086614173,
                    "duration": 0.10768900000000059
                },
                {
                    "name": "C5",
                    "midi": 72,
                    "time": 57.29054800000015,
                    "velocity": 0.3543307086614173,
                    "duration": 0.10768900000000059
                },
                {
                    "name": "C4",
                    "midi": 60,
                    "time": 57.29054800000015,
                    "velocity": 0.3543307086614173,
                    "duration": 0.10768900000000059
                },
                {
                    "name": "G#4",
                    "midi": 68,
                    "time": 57.39823700000015,
                    "velocity": 0.3464566929133858,
                    "duration": 0.10768900000000059
                },
                {
                    "name": "F4",
                    "midi": 65,
                    "time": 57.39823700000015,
                    "velocity": 0.3464566929133858,
                    "duration": 0.10768900000000059
                },
                {
                    "name": "C5",
                    "midi": 72,
                    "time": 57.50592600000015,
                    "velocity": 0.3464566929133858,
                    "duration": 0.10768900000000059
                },
                {
                    "name": "C4",
                    "midi": 60,
                    "time": 57.50592600000015,
                    "velocity": 0.3464566929133858,
                    "duration": 0.10768900000000059
                },
                {
                    "name": "G#4",
                    "midi": 68,
                    "time": 57.61361500000015,
                    "velocity": 0.33858267716535434,
                    "duration": 0.10768900000000059
                },
                {
                    "name": "F4",
                    "midi": 65,
                    "time": 57.61361500000015,
                    "velocity": 0.33858267716535434,
                    "duration": 0.10768900000000059
                },
                {
                    "name": "G2",
                    "midi": 43,
                    "time": 57.72130400000015,
                    "velocity": 0.4330708661417323,
                    "duration": 0.10768900000000059
                },
                {
                    "name": "G3",
                    "midi": 55,
                    "time": 57.82899300000015,
                    "velocity": 0.31496062992125984,
                    "duration": 0.10768900000000059
                },
                {
                    "name": "F3",
                    "midi": 53,
                    "time": 57.82899300000015,
                    "velocity": 0.31496062992125984,
                    "duration": 0.10768900000000059
                },
                {
                    "name": "B3",
                    "midi": 59,
                    "time": 57.936682000000154,
                    "velocity": 0.3228346456692913,
                    "duration": 0.10768900000000059
                },
                {
                    "name": "D3",
                    "midi": 50,
                    "time": 57.936682000000154,
                    "velocity": 0.3228346456692913,
                    "duration": 0.10768900000000059
                },
                {
                    "name": "G3",
                    "midi": 55,
                    "time": 58.044371000000154,
                    "velocity": 0.33858267716535434,
                    "duration": 0.10768900000000059
                },
                {
                    "name": "F3",
                    "midi": 53,
                    "time": 58.044371000000154,
                    "velocity": 0.33858267716535434,
                    "duration": 0.10768900000000059
                },
                {
                    "name": "B3",
                    "midi": 59,
                    "time": 58.152060000000155,
                    "velocity": 0.3700787401574803,
                    "duration": 0.10768900000000059
                },
                {
                    "name": "D3",
                    "midi": 50,
                    "time": 58.152060000000155,
                    "velocity": 0.3700787401574803,
                    "duration": 0.10768900000000059
                },
                {
                    "name": "G3",
                    "midi": 55,
                    "time": 58.259749000000156,
                    "velocity": 0.36220472440944884,
                    "duration": 0.10768900000000059
                },
                {
                    "name": "F3",
                    "midi": 53,
                    "time": 58.259749000000156,
                    "velocity": 0.36220472440944884,
                    "duration": 0.10768900000000059
                },
                {
                    "name": "D3",
                    "midi": 50,
                    "time": 58.367438000000156,
                    "velocity": 0.3700787401574803,
                    "duration": 0.10768900000000059
                },
                {
                    "name": "B3",
                    "midi": 59,
                    "time": 58.367438000000156,
                    "velocity": 0.3700787401574803,
                    "duration": 0.10768900000000059
                },
                {
                    "name": "F3",
                    "midi": 53,
                    "time": 58.47512700000016,
                    "velocity": 0.3779527559055118,
                    "duration": 0.10768900000000059
                },
                {
                    "name": "G3",
                    "midi": 55,
                    "time": 58.47512700000016,
                    "velocity": 0.3779527559055118,
                    "duration": 0.10768900000000059
                },
                {
                    "name": "D3",
                    "midi": 50,
                    "time": 58.58281600000016,
                    "velocity": 0.3858267716535433,
                    "duration": 0.10768900000000059
                },
                {
                    "name": "B3",
                    "midi": 59,
                    "time": 58.58281600000016,
                    "velocity": 0.3858267716535433,
                    "duration": 0.10768900000000059
                },
                {
                    "name": "G#3",
                    "midi": 56,
                    "time": 58.69050500000016,
                    "velocity": 0.3858267716535433,
                    "duration": 0.10768900000000059
                },
                {
                    "name": "F3",
                    "midi": 53,
                    "time": 58.69050500000016,
                    "velocity": 0.3858267716535433,
                    "duration": 0.10768900000000059
                },
                {
                    "name": "B3",
                    "midi": 59,
                    "time": 58.79819400000016,
                    "velocity": 0.3779527559055118,
                    "duration": 0.10768900000000059
                },
                {
                    "name": "D3",
                    "midi": 50,
                    "time": 58.79819400000016,
                    "velocity": 0.3779527559055118,
                    "duration": 0.10768900000000059
                },
                {
                    "name": "G#3",
                    "midi": 56,
                    "time": 58.90588300000016,
                    "velocity": 0.3700787401574803,
                    "duration": 0.10768900000000059
                },
                {
                    "name": "F3",
                    "midi": 53,
                    "time": 58.90588300000016,
                    "velocity": 0.3700787401574803,
                    "duration": 0.10768900000000059
                },
                {
                    "name": "D3",
                    "midi": 50,
                    "time": 59.01357200000016,
                    "velocity": 0.3700787401574803,
                    "duration": 0.10768900000000059
                },
                {
                    "name": "B3",
                    "midi": 59,
                    "time": 59.01357200000016,
                    "velocity": 0.3700787401574803,
                    "duration": 0.10768900000000059
                },
                {
                    "name": "F3",
                    "midi": 53,
                    "time": 59.12126100000016,
                    "velocity": 0.36220472440944884,
                    "duration": 0.10768900000000059
                },
                {
                    "name": "G3",
                    "midi": 55,
                    "time": 59.12126100000016,
                    "velocity": 0.36220472440944884,
                    "duration": 0.10768900000000059
                },
                {
                    "name": "D3",
                    "midi": 50,
                    "time": 59.22895000000016,
                    "velocity": 0.36220472440944884,
                    "duration": 0.10768900000000059
                },
                {
                    "name": "B3",
                    "midi": 59,
                    "time": 59.22895000000016,
                    "velocity": 0.36220472440944884,
                    "duration": 0.10768900000000059
                },
                {
                    "name": "F3",
                    "midi": 53,
                    "time": 59.33663900000016,
                    "velocity": 0.3543307086614173,
                    "duration": 0.10768900000000059
                },
                {
                    "name": "G3",
                    "midi": 55,
                    "time": 59.33663900000016,
                    "velocity": 0.3543307086614173,
                    "duration": 0.10768900000000059
                },
                {
                    "name": "G2",
                    "midi": 43,
                    "time": 59.44432800000016,
                    "velocity": 0.4251968503937008,
                    "duration": 0.10768900000000059
                },
                {
                    "name": "F3",
                    "midi": 53,
                    "time": 59.55201700000016,
                    "velocity": 0.31496062992125984,
                    "duration": 0.10768900000000059
                },
                {
                    "name": "G3",
                    "midi": 55,
                    "time": 59.55201700000016,
                    "velocity": 0.31496062992125984,
                    "duration": 0.10768900000000059
                },
                {
                    "name": "D3",
                    "midi": 50,
                    "time": 59.65970600000016,
                    "velocity": 0.3228346456692913,
                    "duration": 0.10768900000000059
                },
                {
                    "name": "B3",
                    "midi": 59,
                    "time": 59.65970600000016,
                    "velocity": 0.3228346456692913,
                    "duration": 0.10768900000000059
                },
                {
                    "name": "F3",
                    "midi": 53,
                    "time": 59.767395000000164,
                    "velocity": 0.33858267716535434,
                    "duration": 0.10768900000000059
                },
                {
                    "name": "G3",
                    "midi": 55,
                    "time": 59.767395000000164,
                    "velocity": 0.33858267716535434,
                    "duration": 0.10768900000000059
                },
                {
                    "name": "D3",
                    "midi": 50,
                    "time": 59.875084000000165,
                    "velocity": 0.3700787401574803,
                    "duration": 0.10768900000000059
                },
                {
                    "name": "B3",
                    "midi": 59,
                    "time": 59.875084000000165,
                    "velocity": 0.3700787401574803,
                    "duration": 0.10768900000000059
                },
                {
                    "name": "F3",
                    "midi": 53,
                    "time": 59.982773000000165,
                    "velocity": 0.36220472440944884,
                    "duration": 0.10768900000000059
                },
                {
                    "name": "G3",
                    "midi": 55,
                    "time": 59.982773000000165,
                    "velocity": 0.36220472440944884,
                    "duration": 0.10768900000000059
                },
                {
                    "name": "D3",
                    "midi": 50,
                    "time": 60.090462000000166,
                    "velocity": 0.3700787401574803,
                    "duration": 0.10768900000000059
                },
                {
                    "name": "B3",
                    "midi": 59,
                    "time": 60.090462000000166,
                    "velocity": 0.3700787401574803,
                    "duration": 0.10768900000000059
                },
                {
                    "name": "G3",
                    "midi": 55,
                    "time": 60.198151000000166,
                    "velocity": 0.3779527559055118,
                    "duration": 0.10768900000000059
                },
                {
                    "name": "F3",
                    "midi": 53,
                    "time": 60.198151000000166,
                    "velocity": 0.3779527559055118,
                    "duration": 0.10768900000000059
                },
                {
                    "name": "B3",
                    "midi": 59,
                    "time": 60.30584000000017,
                    "velocity": 0.3858267716535433,
                    "duration": 0.10768900000000059
                },
                {
                    "name": "D3",
                    "midi": 50,
                    "time": 60.30584000000017,
                    "velocity": 0.3858267716535433,
                    "duration": 0.10768900000000059
                },
                {
                    "name": "F3",
                    "midi": 53,
                    "time": 60.41352900000017,
                    "velocity": 0.3858267716535433,
                    "duration": 0.10768900000000059
                },
                {
                    "name": "G#3",
                    "midi": 56,
                    "time": 60.41352900000017,
                    "velocity": 0.3858267716535433,
                    "duration": 0.10768900000000059
                },
                {
                    "name": "D3",
                    "midi": 50,
                    "time": 60.52121800000017,
                    "velocity": 0.3779527559055118,
                    "duration": 0.10768900000000059
                },
                {
                    "name": "B3",
                    "midi": 59,
                    "time": 60.52121800000017,
                    "velocity": 0.3779527559055118,
                    "duration": 0.10768900000000059
                },
                {
                    "name": "F3",
                    "midi": 53,
                    "time": 60.62890700000017,
                    "velocity": 0.3700787401574803,
                    "duration": 0.10768900000000059
                },
                {
                    "name": "G#3",
                    "midi": 56,
                    "time": 60.62890700000017,
                    "velocity": 0.3700787401574803,
                    "duration": 0.10768900000000059
                },
                {
                    "name": "D3",
                    "midi": 50,
                    "time": 60.73659600000017,
                    "velocity": 0.3700787401574803,
                    "duration": 0.10768900000000059
                },
                {
                    "name": "B3",
                    "midi": 59,
                    "time": 60.73659600000017,
                    "velocity": 0.3700787401574803,
                    "duration": 0.10768900000000059
                },
                {
                    "name": "G3",
                    "midi": 55,
                    "time": 60.84428500000017,
                    "velocity": 0.36220472440944884,
                    "duration": 0.10768900000000059
                },
                {
                    "name": "F3",
                    "midi": 53,
                    "time": 60.84428500000017,
                    "velocity": 0.36220472440944884,
                    "duration": 0.10768900000000059
                },
                {
                    "name": "B3",
                    "midi": 59,
                    "time": 60.95197400000017,
                    "velocity": 0.36220472440944884,
                    "duration": 0.10768900000000059
                },
                {
                    "name": "D3",
                    "midi": 50,
                    "time": 60.95197400000017,
                    "velocity": 0.36220472440944884,
                    "duration": 0.10768900000000059
                },
                {
                    "name": "G3",
                    "midi": 55,
                    "time": 61.05966300000017,
                    "velocity": 0.3543307086614173,
                    "duration": 0.10768900000000059
                },
                {
                    "name": "F3",
                    "midi": 53,
                    "time": 61.05966300000017,
                    "velocity": 0.3543307086614173,
                    "duration": 0.10768900000000059
                },
                {
                    "name": "C3",
                    "midi": 48,
                    "time": 61.16735200000017,
                    "velocity": 0.4409448818897638,
                    "duration": 0.10768900000000059
                },
                {
                    "name": "C4",
                    "midi": 60,
                    "time": 61.27504100000017,
                    "velocity": 0.33070866141732286,
                    "duration": 0.10768900000000059
                },
                {
                    "name": "D#4",
                    "midi": 63,
                    "time": 61.27504100000017,
                    "velocity": 0.33070866141732286,
                    "duration": 0.10768900000000059
                },
                {
                    "name": "G3",
                    "midi": 55,
                    "time": 61.38273000000017,
                    "velocity": 0.33858267716535434,
                    "duration": 0.10768900000000059
                },
                {
                    "name": "G4",
                    "midi": 67,
                    "time": 61.38273000000017,
                    "velocity": 0.33858267716535434,
                    "duration": 0.10768900000000059
                },
                {
                    "name": "D#4",
                    "midi": 63,
                    "time": 61.49041900000017,
                    "velocity": 0.3543307086614173,
                    "duration": 0.10768900000000059
                },
                {
                    "name": "C4",
                    "midi": 60,
                    "time": 61.49041900000017,
                    "velocity": 0.3543307086614173,
                    "duration": 0.10768900000000059
                },
                {
                    "name": "G4",
                    "midi": 67,
                    "time": 61.598108000000174,
                    "velocity": 0.3858267716535433,
                    "duration": 0.10768900000000059
                },
                {
                    "name": "G3",
                    "midi": 55,
                    "time": 61.598108000000174,
                    "velocity": 0.3858267716535433,
                    "duration": 0.10768900000000059
                },
                {
                    "name": "D#4",
                    "midi": 63,
                    "time": 61.705797000000175,
                    "velocity": 0.3779527559055118,
                    "duration": 0.10768900000000059
                },
                {
                    "name": "C4",
                    "midi": 60,
                    "time": 61.705797000000175,
                    "velocity": 0.3779527559055118,
                    "duration": 0.10768900000000059
                },
                {
                    "name": "G4",
                    "midi": 67,
                    "time": 61.813486000000175,
                    "velocity": 0.3858267716535433,
                    "duration": 0.10768900000000059
                },
                {
                    "name": "G3",
                    "midi": 55,
                    "time": 61.813486000000175,
                    "velocity": 0.3858267716535433,
                    "duration": 0.10768900000000059
                },
                {
                    "name": "D#4",
                    "midi": 63,
                    "time": 61.921175000000176,
                    "velocity": 0.3937007874015748,
                    "duration": 0.10768900000000059
                },
                {
                    "name": "C4",
                    "midi": 60,
                    "time": 61.921175000000176,
                    "velocity": 0.3937007874015748,
                    "duration": 0.10768900000000059
                },
                {
                    "name": "G4",
                    "midi": 67,
                    "time": 62.028864000000176,
                    "velocity": 0.4015748031496063,
                    "duration": 0.10768900000000059
                },
                {
                    "name": "G3",
                    "midi": 55,
                    "time": 62.028864000000176,
                    "velocity": 0.4015748031496063,
                    "duration": 0.10768900000000059
                },
                {
                    "name": "D#4",
                    "midi": 63,
                    "time": 62.13655300000018,
                    "velocity": 0.4015748031496063,
                    "duration": 0.10768900000000059
                },
                {
                    "name": "C4",
                    "midi": 60,
                    "time": 62.13655300000018,
                    "velocity": 0.4015748031496063,
                    "duration": 0.10768900000000059
                },
                {
                    "name": "G4",
                    "midi": 67,
                    "time": 62.24424200000018,
                    "velocity": 0.3937007874015748,
                    "duration": 0.10768900000000059
                },
                {
                    "name": "G3",
                    "midi": 55,
                    "time": 62.24424200000018,
                    "velocity": 0.3937007874015748,
                    "duration": 0.10768900000000059
                },
                {
                    "name": "C4",
                    "midi": 60,
                    "time": 62.35193100000018,
                    "velocity": 0.3858267716535433,
                    "duration": 0.10768900000000059
                },
                {
                    "name": "D#4",
                    "midi": 63,
                    "time": 62.35193100000018,
                    "velocity": 0.3858267716535433,
                    "duration": 0.10768900000000059
                },
                {
                    "name": "G3",
                    "midi": 55,
                    "time": 62.45962000000018,
                    "velocity": 0.3858267716535433,
                    "duration": 0.10768900000000059
                },
                {
                    "name": "G4",
                    "midi": 67,
                    "time": 62.45962000000018,
                    "velocity": 0.3858267716535433,
                    "duration": 0.10768900000000059
                },
                {
                    "name": "D#4",
                    "midi": 63,
                    "time": 62.56730900000018,
                    "velocity": 0.3779527559055118,
                    "duration": 0.10768900000000059
                },
                {
                    "name": "C4",
                    "midi": 60,
                    "time": 62.56730900000018,
                    "velocity": 0.3779527559055118,
                    "duration": 0.10768900000000059
                },
                {
                    "name": "G4",
                    "midi": 67,
                    "time": 62.67499800000018,
                    "velocity": 0.3779527559055118,
                    "duration": 0.10768900000000059
                },
                {
                    "name": "G3",
                    "midi": 55,
                    "time": 62.67499800000018,
                    "velocity": 0.3779527559055118,
                    "duration": 0.10768900000000059
                },
                {
                    "name": "D#4",
                    "midi": 63,
                    "time": 62.78268700000018,
                    "velocity": 0.3700787401574803,
                    "duration": 0.10768900000000059
                },
                {
                    "name": "C4",
                    "midi": 60,
                    "time": 62.78268700000018,
                    "velocity": 0.3700787401574803,
                    "duration": 0.10768900000000059
                },
                {
                    "name": "C3",
                    "midi": 48,
                    "time": 62.89037600000018,
                    "velocity": 0.4409448818897638,
                    "duration": 0.21537800000000118
                },
                {
                    "name": "G4",
                    "midi": 67,
                    "time": 63.10575400000018,
                    "velocity": 0.33858267716535434,
                    "duration": 0.10768900000000059
                },
                {
                    "name": "D#4",
                    "midi": 63,
                    "time": 63.21344300000018,
                    "velocity": 0.3543307086614173,
                    "duration": 0.10768900000000059
                },
                {
                    "name": "C5",
                    "midi": 72,
                    "time": 63.32113200000018,
                    "velocity": 0.3858267716535433,
                    "duration": 0.10768900000000059
                },
                {
                    "name": "G4",
                    "midi": 67,
                    "time": 63.428821000000184,
                    "velocity": 0.3858267716535433,
                    "duration": 0.10768900000000059
                },
                {
                    "name": "C5",
                    "midi": 72,
                    "time": 63.536510000000185,
                    "velocity": 0.3937007874015748,
                    "duration": 0.10768900000000059
                },
                {
                    "name": "G4",
                    "midi": 67,
                    "time": 63.644199000000185,
                    "velocity": 0.4094488188976378,
                    "duration": 0.10768900000000059
                },
                {
                    "name": "D#5",
                    "midi": 75,
                    "time": 63.751888000000186,
                    "velocity": 0.41732283464566927,
                    "duration": 0.10768900000000059
                },
                {
                    "name": "C5",
                    "midi": 72,
                    "time": 63.859577000000186,
                    "velocity": 0.41732283464566927,
                    "duration": 0.10768900000000059
                },
                {
                    "name": "D#5",
                    "midi": 75,
                    "time": 63.96726600000019,
                    "velocity": 0.41732283464566927,
                    "duration": 0.10768900000000059
                },
                {
                    "name": "C5",
                    "midi": 72,
                    "time": 64.07495500000019,
                    "velocity": 0.4015748031496063,
                    "duration": 0.10768899999999348
                },
                {
                    "name": "G5",
                    "midi": 79,
                    "time": 64.18264400000018,
                    "velocity": 0.4094488188976378,
                    "duration": 0.10768899999999348
                },
                {
                    "name": "D#5",
                    "midi": 75,
                    "time": 64.29033300000017,
                    "velocity": 0.4015748031496063,
                    "duration": 0.10768899999999348
                },
                {
                    "name": "G5",
                    "midi": 79,
                    "time": 64.39802200000017,
                    "velocity": 0.4015748031496063,
                    "duration": 0.10768899999999348
                },
                {
                    "name": "D#5",
                    "midi": 75,
                    "time": 64.50571100000016,
                    "velocity": 0.4015748031496063,
                    "duration": 0.10768899999999348
                },
                {
                    "name": "F5",
                    "midi": 77,
                    "time": 64.61340000000015,
                    "velocity": 0.6299212598425197,
                    "duration": 0.6461340000000035
                },
                {
                    "name": "G#5",
                    "midi": 80,
                    "time": 64.61340000000015,
                    "velocity": 0.6299212598425197,
                    "duration": 0.6461340000000035
                },
                {
                    "name": "G5",
                    "midi": 79,
                    "time": 65.25953400000016,
                    "velocity": 0.5196850393700787,
                    "duration": 0.21537800000000118
                },
                {
                    "name": "D#5",
                    "midi": 75,
                    "time": 65.25953400000016,
                    "velocity": 0.5196850393700787,
                    "duration": 0.21537800000000118
                },
                {
                    "name": "D5",
                    "midi": 74,
                    "time": 65.47491200000016,
                    "velocity": 0.5354330708661418,
                    "duration": 0.43075600000000236
                },
                {
                    "name": "F5",
                    "midi": 77,
                    "time": 65.47491200000016,
                    "velocity": 0.5354330708661418,
                    "duration": 0.43075600000000236
                },
                {
                    "name": "D#5",
                    "midi": 75,
                    "time": 65.90566800000016,
                    "velocity": 0.5039370078740157,
                    "duration": 0.43075600000000236
                },
                {
                    "name": "G5",
                    "midi": 79,
                    "time": 65.90566800000016,
                    "velocity": 0.5039370078740157,
                    "duration": 0.43075600000000236
                },
                {
                    "name": "G#5",
                    "midi": 80,
                    "time": 66.33642400000016,
                    "velocity": 0.6299212598425197,
                    "duration": 0.6461340000000035
                },
                {
                    "name": "F5",
                    "midi": 77,
                    "time": 66.33642400000016,
                    "velocity": 0.6299212598425197,
                    "duration": 0.6461340000000035
                },
                {
                    "name": "G5",
                    "midi": 79,
                    "time": 66.98255800000017,
                    "velocity": 0.5196850393700787,
                    "duration": 0.21537800000000118
                },
                {
                    "name": "D#5",
                    "midi": 75,
                    "time": 66.98255800000017,
                    "velocity": 0.5196850393700787,
                    "duration": 0.21537800000000118
                },
                {
                    "name": "F5",
                    "midi": 77,
                    "time": 67.19793600000017,
                    "velocity": 0.5354330708661418,
                    "duration": 0.43075600000000236
                },
                {
                    "name": "D5",
                    "midi": 74,
                    "time": 67.19793600000017,
                    "velocity": 0.5354330708661418,
                    "duration": 0.43075600000000236
                },
                {
                    "name": "G5",
                    "midi": 79,
                    "time": 67.62869200000017,
                    "velocity": 0.5039370078740157,
                    "duration": 0.43075600000000236
                },
                {
                    "name": "D#5",
                    "midi": 75,
                    "time": 67.62869200000017,
                    "velocity": 0.5039370078740157,
                    "duration": 0.43075600000000236
                },
                {
                    "name": "F5",
                    "midi": 77,
                    "time": 68.05944800000017,
                    "velocity": 0.6299212598425197,
                    "duration": 0.6461340000000035
                },
                {
                    "name": "G#5",
                    "midi": 80,
                    "time": 68.05944800000017,
                    "velocity": 0.6299212598425197,
                    "duration": 0.6461340000000035
                },
                {
                    "name": "G5",
                    "midi": 79,
                    "time": 68.70558200000018,
                    "velocity": 0.5196850393700787,
                    "duration": 0.21537800000000118
                },
                {
                    "name": "D#5",
                    "midi": 75,
                    "time": 68.70558200000018,
                    "velocity": 0.5196850393700787,
                    "duration": 0.21537800000000118
                },
                {
                    "name": "D5",
                    "midi": 74,
                    "time": 68.92096000000018,
                    "velocity": 0.5354330708661418,
                    "duration": 0.43075600000000236
                },
                {
                    "name": "F5",
                    "midi": 77,
                    "time": 68.92096000000018,
                    "velocity": 0.5354330708661418,
                    "duration": 0.43075600000000236
                },
                {
                    "name": "C5",
                    "midi": 72,
                    "time": 69.35171600000018,
                    "velocity": 0.5118110236220472,
                    "duration": 0.43075600000000236
                },
                {
                    "name": "D#5",
                    "midi": 75,
                    "time": 69.35171600000018,
                    "velocity": 0.5118110236220472,
                    "duration": 0.43075600000000236
                },
                {
                    "name": "B4",
                    "midi": 71,
                    "time": 69.78247200000018,
                    "velocity": 0.5511811023622047,
                    "duration": 0.43075600000000236
                },
                {
                    "name": "D5",
                    "midi": 74,
                    "time": 69.78247200000018,
                    "velocity": 0.5511811023622047,
                    "duration": 0.43075600000000236
                },
                {
                    "name": "C5",
                    "midi": 72,
                    "time": 70.21322800000019,
                    "velocity": 0.5511811023622047,
                    "duration": 0.43075600000000236
                },
                {
                    "name": "A4",
                    "midi": 69,
                    "time": 70.21322800000019,
                    "velocity": 0.5511811023622047,
                    "duration": 0.43075600000000236
                },
                {
                    "name": "C5",
                    "midi": 72,
                    "time": 70.64398400000019,
                    "velocity": 0.5905511811023622,
                    "duration": 0.43075600000000236
                },
                {
                    "name": "G#4",
                    "midi": 68,
                    "time": 70.64398400000019,
                    "velocity": 0.5905511811023622,
                    "duration": 0.43075600000000236
                },
                {
                    "name": "C5",
                    "midi": 72,
                    "time": 71.07474000000019,
                    "velocity": 0.5905511811023622,
                    "duration": 0.43075600000000236
                },
                {
                    "name": "G4",
                    "midi": 67,
                    "time": 71.07474000000019,
                    "velocity": 0.5905511811023622,
                    "duration": 0.43075600000000236
                },
                {
                    "name": "F#4",
                    "midi": 66,
                    "time": 71.50549600000019,
                    "velocity": 0.5984251968503937,
                    "duration": 0.8615120000000047
                },
                {
                    "name": "G#4",
                    "midi": 68,
                    "time": 71.9362520000002,
                    "velocity": 0.5905511811023622,
                    "duration": 0.43075600000000236
                },
                {
                    "name": "G3",
                    "midi": 55,
                    "time": 72.3670080000002,
                    "velocity": 0.5669291338582677,
                    "duration": 0.8615120000000047
                },
                {
                    "name": "D#4",
                    "midi": 63,
                    "time": 72.3670080000002,
                    "velocity": 0.5669291338582677,
                    "duration": 0.43075600000000236
                },
                {
                    "name": "G4",
                    "midi": 67,
                    "time": 72.3670080000002,
                    "velocity": 0.5669291338582677,
                    "duration": 0.8615120000000047
                },
                {
                    "name": "D4",
                    "midi": 62,
                    "time": 72.7977640000002,
                    "velocity": 0.5354330708661418,
                    "duration": 0.43075600000000236
                },
                {
                    "name": "F3",
                    "midi": 53,
                    "time": 73.2285200000002,
                    "velocity": 0.48031496062992124,
                    "duration": 0.6461340000000035
                },
                {
                    "name": "C#4",
                    "midi": 61,
                    "time": 73.2285200000002,
                    "velocity": 0.5669291338582677,
                    "duration": 0.6461340000000035
                },
                {
                    "name": "G#3",
                    "midi": 56,
                    "time": 73.2285200000002,
                    "velocity": 0.48031496062992124,
                    "duration": 0.6461340000000035
                },
                {
                    "name": "G3",
                    "midi": 55,
                    "time": 73.8746540000002,
                    "velocity": 0.3937007874015748,
                    "duration": 0.21537800000000118
                },
                {
                    "name": "C4",
                    "midi": 60,
                    "time": 73.8746540000002,
                    "velocity": 0.4645669291338583,
                    "duration": 0.21537800000000118
                },
                {
                    "name": "D#3",
                    "midi": 51,
                    "time": 73.8746540000002,
                    "velocity": 0.3937007874015748,
                    "duration": 0.21537800000000118
                },
                {
                    "name": "D3",
                    "midi": 50,
                    "time": 74.0900320000002,
                    "velocity": 0.4015748031496063,
                    "duration": 0.43075600000000236
                },
                {
                    "name": "F3",
                    "midi": 53,
                    "time": 74.0900320000002,
                    "velocity": 0.4251968503937008,
                    "duration": 0.43075600000000236
                },
                {
                    "name": "B3",
                    "midi": 59,
                    "time": 74.0900320000002,
                    "velocity": 0.5039370078740157,
                    "duration": 0.43075600000000236
                },
                {
                    "name": "G3",
                    "midi": 55,
                    "time": 74.52078800000021,
                    "velocity": 0.3779527559055118,
                    "duration": 0.43075600000000236
                },
                {
                    "name": "C4",
                    "midi": 60,
                    "time": 74.52078800000021,
                    "velocity": 0.44881889763779526,
                    "duration": 0.43075600000000236
                },
                {
                    "name": "D#3",
                    "midi": 51,
                    "time": 74.52078800000021,
                    "velocity": 0.3779527559055118,
                    "duration": 0.43075600000000236
                },
                {
                    "name": "F3",
                    "midi": 53,
                    "time": 74.95154400000021,
                    "velocity": 0.48031496062992124,
                    "duration": 0.6461340000000035
                },
                {
                    "name": "C#4",
                    "midi": 61,
                    "time": 74.95154400000021,
                    "velocity": 0.5669291338582677,
                    "duration": 0.6461340000000035
                },
                {
                    "name": "G#3",
                    "midi": 56,
                    "time": 74.95154400000021,
                    "velocity": 0.48031496062992124,
                    "duration": 0.6461340000000035
                },
                {
                    "name": "G3",
                    "midi": 55,
                    "time": 75.59767800000022,
                    "velocity": 0.3937007874015748,
                    "duration": 0.21537800000000118
                },
                {
                    "name": "C4",
                    "midi": 60,
                    "time": 75.59767800000022,
                    "velocity": 0.4645669291338583,
                    "duration": 0.21537800000000118
                },
                {
                    "name": "D#3",
                    "midi": 51,
                    "time": 75.59767800000022,
                    "velocity": 0.3937007874015748,
                    "duration": 0.21537800000000118
                },
                {
                    "name": "D3",
                    "midi": 50,
                    "time": 75.81305600000022,
                    "velocity": 0.4015748031496063,
                    "duration": 0.43075600000000236
                },
                {
                    "name": "B3",
                    "midi": 59,
                    "time": 75.81305600000022,
                    "velocity": 0.48031496062992124,
                    "duration": 0.43075600000000236
                },
                {
                    "name": "F3",
                    "midi": 53,
                    "time": 75.81305600000022,
                    "velocity": 0.4015748031496063,
                    "duration": 0.43075600000000236
                },
                {
                    "name": "D#3",
                    "midi": 51,
                    "time": 76.24381200000022,
                    "velocity": 0.3779527559055118,
                    "duration": 0.43075600000000236
                },
                {
                    "name": "G3",
                    "midi": 55,
                    "time": 76.24381200000022,
                    "velocity": 0.3779527559055118,
                    "duration": 0.43075600000000236
                },
                {
                    "name": "C4",
                    "midi": 60,
                    "time": 76.24381200000022,
                    "velocity": 0.44881889763779526,
                    "duration": 0.43075600000000236
                },
                {
                    "name": "C#4",
                    "midi": 61,
                    "time": 76.67456800000022,
                    "velocity": 0.5669291338582677,
                    "duration": 0.6461340000000035
                },
                {
                    "name": "G#3",
                    "midi": 56,
                    "time": 76.67456800000022,
                    "velocity": 0.48031496062992124,
                    "duration": 0.6461340000000035
                },
                {
                    "name": "F3",
                    "midi": 53,
                    "time": 76.67456800000022,
                    "velocity": 0.48031496062992124,
                    "duration": 0.6461340000000035
                },
                {
                    "name": "C4",
                    "midi": 60,
                    "time": 77.32070200000022,
                    "velocity": 0.4645669291338583,
                    "duration": 0.21537800000000118
                },
                {
                    "name": "D#3",
                    "midi": 51,
                    "time": 77.32070200000022,
                    "velocity": 0.3937007874015748,
                    "duration": 0.21537800000000118
                },
                {
                    "name": "G3",
                    "midi": 55,
                    "time": 77.32070200000022,
                    "velocity": 0.3937007874015748,
                    "duration": 0.21537800000000118
                },
                {
                    "name": "D3",
                    "midi": 50,
                    "time": 77.53608000000023,
                    "velocity": 0.4015748031496063,
                    "duration": 0.43075600000000236
                },
                {
                    "name": "B3",
                    "midi": 59,
                    "time": 77.53608000000023,
                    "velocity": 0.48031496062992124,
                    "duration": 0.43075600000000236
                },
                {
                    "name": "F3",
                    "midi": 53,
                    "time": 77.53608000000023,
                    "velocity": 0.4015748031496063,
                    "duration": 0.43075600000000236
                },
                {
                    "name": "G#3",
                    "midi": 56,
                    "time": 77.96683600000023,
                    "velocity": 0.4566929133858268,
                    "duration": 0.43075600000000236
                },
                {
                    "name": "D#3",
                    "midi": 51,
                    "time": 77.96683600000023,
                    "velocity": 0.3858267716535433,
                    "duration": 0.43075600000000236
                },
                {
                    "name": "C3",
                    "midi": 48,
                    "time": 77.96683600000023,
                    "velocity": 0.3858267716535433,
                    "duration": 0.43075600000000236
                },
                {
                    "name": "G3",
                    "midi": 55,
                    "time": 78.39759200000023,
                    "velocity": 0.49606299212598426,
                    "duration": 0.43075600000000236
                },
                {
                    "name": "B2",
                    "midi": 47,
                    "time": 78.39759200000023,
                    "velocity": 0.41732283464566927,
                    "duration": 0.43075600000000236
                },
                {
                    "name": "D3",
                    "midi": 50,
                    "time": 78.39759200000023,
                    "velocity": 0.49606299212598426,
                    "duration": 0.43075600000000236
                },
                {
                    "name": "F#3",
                    "midi": 54,
                    "time": 78.82834800000023,
                    "velocity": 0.49606299212598426,
                    "duration": 0.43075600000000236
                },
                {
                    "name": "D#3",
                    "midi": 51,
                    "time": 78.82834800000023,
                    "velocity": 0.49606299212598426,
                    "duration": 0.43075600000000236
                },
                {
                    "name": "C3",
                    "midi": 48,
                    "time": 78.82834800000023,
                    "velocity": 0.41732283464566927,
                    "duration": 0.43075600000000236
                },
                {
                    "name": "A2",
                    "midi": 45,
                    "time": 78.82834800000023,
                    "velocity": 0.41732283464566927,
                    "duration": 0.43075600000000236
                },
                {
                    "name": "D3",
                    "midi": 50,
                    "time": 79.25910400000024,
                    "velocity": 0.4409448818897638,
                    "duration": 0.43075600000000236
                },
                {
                    "name": "B2",
                    "midi": 47,
                    "time": 79.25910400000024,
                    "velocity": 0.4409448818897638,
                    "duration": 0.43075600000000236
                },
                {
                    "name": "F3",
                    "midi": 53,
                    "time": 79.25910400000024,
                    "velocity": 0.5275590551181102,
                    "duration": 0.43075600000000236
                },
                {
                    "name": "D#3",
                    "midi": 51,
                    "time": 79.68986000000024,
                    "velocity": 0.5275590551181102,
                    "duration": 0.43075600000000236
                },
                {
                    "name": "C3",
                    "midi": 48,
                    "time": 79.68986000000024,
                    "velocity": 0.4409448818897638,
                    "duration": 0.43075600000000236
                },
                {
                    "name": "F#2",
                    "midi": 42,
                    "time": 80.12061600000024,
                    "velocity": 0.4409448818897638,
                    "duration": 0.8615120000000047
                },
                {
                    "name": "D#3",
                    "midi": 51,
                    "time": 80.12061600000024,
                    "velocity": 0.5196850393700787,
                    "duration": 0.43075600000000236
                },
                {
                    "name": "A2",
                    "midi": 45,
                    "time": 80.12061600000024,
                    "velocity": 0.4409448818897638,
                    "duration": 0.8615120000000047
                },
                {
                    "name": "D3",
                    "midi": 50,
                    "time": 80.55137200000024,
                    "velocity": 0.5039370078740157,
                    "duration": 0.43075600000000236
                },
                {
                    "name": "C3",
                    "midi": 48,
                    "time": 80.98212800000024,
                    "velocity": 0.48031496062992124,
                    "duration": 0.43075600000000236
                },
                {
                    "name": "G2",
                    "midi": 43,
                    "time": 80.98212800000024,
                    "velocity": 0.48031496062992124,
                    "duration": 0.8615120000000047
                },
                {
                    "name": "B2",
                    "midi": 47,
                    "time": 81.41288400000025,
                    "velocity": 0.4645669291338583,
                    "duration": 0.43075600000000236
                },
                {
                    "name": "C2",
                    "midi": 36,
                    "time": 81.84364000000025,
                    "velocity": 0.4645669291338583,
                    "duration": 0.21537800000000118
                },
                {
                    "name": "G2",
                    "midi": 43,
                    "time": 81.84364000000025,
                    "velocity": 0.4645669291338583,
                    "duration": 0.21537800000000118
                },
                {
                    "name": "C3",
                    "midi": 48,
                    "time": 81.84364000000025,
                    "velocity": 0.5511811023622047,
                    "duration": 0.21537800000000118
                },
                {
                    "name": "D#2",
                    "midi": 39,
                    "time": 81.84364000000025,
                    "velocity": 0.4645669291338583,
                    "duration": 0.21537800000000118
                },
                {
                    "name": "G3",
                    "midi": 55,
                    "time": 82.38208500000025,
                    "velocity": 0.4645669291338583,
                    "duration": 0.10768899999999348
                },
                {
                    "name": "C4",
                    "midi": 60,
                    "time": 82.48977400000024,
                    "velocity": 0.4881889763779528,
                    "duration": 0.10768899999999348
                },
                {
                    "name": "D#4",
                    "midi": 63,
                    "time": 82.59746300000023,
                    "velocity": 0.5039370078740157,
                    "duration": 0.10768899999999348
                },
                {
                    "name": "G4",
                    "midi": 67,
                    "time": 82.70515200000023,
                    "velocity": 0.5511811023622047,
                    "duration": 0.10768899999999348
                },
                {
                    "name": "G#4",
                    "midi": 68,
                    "time": 82.81284100000022,
                    "velocity": 0.5039370078740157,
                    "duration": 0.10768899999999348
                },
                {
                    "name": "G4",
                    "midi": 67,
                    "time": 82.92053000000021,
                    "velocity": 0.5039370078740157,
                    "duration": 0.10768899999999348
                },
                {
                    "name": "F4",
                    "midi": 65,
                    "time": 83.0282190000002,
                    "velocity": 0.5039370078740157,
                    "duration": 0.10768899999999348
                },
                {
                    "name": "D#4",
                    "midi": 63,
                    "time": 83.1359080000002,
                    "velocity": 0.5511811023622047,
                    "duration": 0.10768899999999348
                },
                {
                    "name": "D4",
                    "midi": 62,
                    "time": 83.2435970000002,
                    "velocity": 0.49606299212598426,
                    "duration": 0.10768899999999348
                },
                {
                    "name": "C4",
                    "midi": 60,
                    "time": 83.35128600000019,
                    "velocity": 0.49606299212598426,
                    "duration": 0.10768899999999348
                },
                {
                    "name": "A#3",
                    "midi": 58,
                    "time": 83.45897500000018,
                    "velocity": 0.49606299212598426,
                    "duration": 0.10768899999999348
                },
                {
                    "name": "G#3",
                    "midi": 56,
                    "time": 83.56666400000017,
                    "velocity": 0.5275590551181102,
                    "duration": 0.10768899999999348
                },
                {
                    "name": "G3",
                    "midi": 55,
                    "time": 83.67435300000017,
                    "velocity": 0.47244094488188976,
                    "duration": 0.10768899999999348
                },
                {
                    "name": "F3",
                    "midi": 53,
                    "time": 83.78204200000016,
                    "velocity": 0.47244094488188976,
                    "duration": 0.10768899999999348
                },
                {
                    "name": "D#3",
                    "midi": 51,
                    "time": 83.88973100000015,
                    "velocity": 0.47244094488188976,
                    "duration": 0.10768899999999348
                },
                {
                    "name": "D3",
                    "midi": 50,
                    "time": 83.99742000000015,
                    "velocity": 0.5590551181102362,
                    "duration": 0.10768899999999348
                },
                {
                    "name": "D#3",
                    "midi": 51,
                    "time": 84.10510900000014,
                    "velocity": 0.5118110236220472,
                    "duration": 0.10768899999999348
                },
                {
                    "name": "F3",
                    "midi": 53,
                    "time": 84.21279800000013,
                    "velocity": 0.5748031496062992,
                    "duration": 0.10768899999999348
                },
                {
                    "name": "D#3",
                    "midi": 51,
                    "time": 84.32048700000013,
                    "velocity": 0.5433070866141733,
                    "duration": 0.10768899999999348
                },
                {
                    "name": "D3",
                    "midi": 50,
                    "time": 84.42817600000012,
                    "velocity": 0.5748031496062992,
                    "duration": 0.10768899999999348
                },
                {
                    "name": "C3",
                    "midi": 48,
                    "time": 84.53586500000011,
                    "velocity": 0.5748031496062992,
                    "duration": 0.10768899999999348
                },
                {
                    "name": "B2",
                    "midi": 47,
                    "time": 84.64355400000011,
                    "velocity": 0.5669291338582677,
                    "duration": 0.10768899999999348
                },
                {
                    "name": "G#2",
                    "midi": 44,
                    "time": 84.7512430000001,
                    "velocity": 0.5669291338582677,
                    "duration": 0.10768899999999348
                },
                {
                    "name": "G2",
                    "midi": 43,
                    "time": 84.8589320000001,
                    "velocity": 0.5590551181102362,
                    "duration": 0.10768899999999348
                },
                {
                    "name": "F2",
                    "midi": 41,
                    "time": 84.96662100000009,
                    "velocity": 0.5590551181102362,
                    "duration": 0.10768899999999348
                },
                {
                    "name": "D#2",
                    "midi": 39,
                    "time": 85.07431000000008,
                    "velocity": 0.5511811023622047,
                    "duration": 0.10768899999999348
                },
                {
                    "name": "D2",
                    "midi": 38,
                    "time": 85.18199900000008,
                    "velocity": 0.5511811023622047,
                    "duration": 0.10768899999999348
                },
                {
                    "name": "C2",
                    "midi": 36,
                    "time": 85.28968800000007,
                    "velocity": 0.5511811023622047,
                    "duration": 0.21537800000000118
                },
                {
                    "name": "G2",
                    "midi": 43,
                    "time": 85.28968800000007,
                    "velocity": 0.5511811023622047,
                    "duration": 0.21537800000000118
                },
                {
                    "name": "C3",
                    "midi": 48,
                    "time": 85.28968800000007,
                    "velocity": 0.5511811023622047,
                    "duration": 0.21537800000000118
                },
                {
                    "name": "D#2",
                    "midi": 39,
                    "time": 85.28968800000007,
                    "velocity": 0.5511811023622047,
                    "duration": 0.21537800000000118
                },
                {
                    "name": "G4",
                    "midi": 67,
                    "time": 85.82813300000007,
                    "velocity": 0.4645669291338583,
                    "duration": 0.10768899999999348
                },
                {
                    "name": "C5",
                    "midi": 72,
                    "time": 85.93582200000006,
                    "velocity": 0.4881889763779528,
                    "duration": 0.10768899999999348
                },
                {
                    "name": "D#5",
                    "midi": 75,
                    "time": 86.04351100000005,
                    "velocity": 0.5039370078740157,
                    "duration": 0.10768899999999348
                },
                {
                    "name": "G5",
                    "midi": 79,
                    "time": 86.15120000000005,
                    "velocity": 0.5511811023622047,
                    "duration": 0.10768899999999348
                },
                {
                    "name": "G#5",
                    "midi": 80,
                    "time": 86.25888900000004,
                    "velocity": 0.5039370078740157,
                    "duration": 0.10768899999999348
                },
                {
                    "name": "G5",
                    "midi": 79,
                    "time": 86.36657800000003,
                    "velocity": 0.5039370078740157,
                    "duration": 0.10768899999999348
                },
                {
                    "name": "F5",
                    "midi": 77,
                    "time": 86.47426700000003,
                    "velocity": 0.5039370078740157,
                    "duration": 0.10768899999999348
                },
                {
                    "name": "D#5",
                    "midi": 75,
                    "time": 86.58195600000002,
                    "velocity": 0.5511811023622047,
                    "duration": 0.10768899999999348
                },
                {
                    "name": "D5",
                    "midi": 74,
                    "time": 86.68964500000001,
                    "velocity": 0.49606299212598426,
                    "duration": 0.10768899999999348
                },
                {
                    "name": "C5",
                    "midi": 72,
                    "time": 86.797334,
                    "velocity": 0.49606299212598426,
                    "duration": 0.10768899999999348
                },
                {
                    "name": "A#4",
                    "midi": 70,
                    "time": 86.905023,
                    "velocity": 0.49606299212598426,
                    "duration": 0.10768899999999348
                },
                {
                    "name": "G#4",
                    "midi": 68,
                    "time": 87.012712,
                    "velocity": 0.5275590551181102,
                    "duration": 0.10768899999999348
                },
                {
                    "name": "G4",
                    "midi": 67,
                    "time": 87.12040099999999,
                    "velocity": 0.47244094488188976,
                    "duration": 0.10768899999999348
                },
                {
                    "name": "F4",
                    "midi": 65,
                    "time": 87.22808999999998,
                    "velocity": 0.47244094488188976,
                    "duration": 0.10768899999999348
                },
                {
                    "name": "D#4",
                    "midi": 63,
                    "time": 87.33577899999997,
                    "velocity": 0.47244094488188976,
                    "duration": 0.10768899999999348
                },
                {
                    "name": "D4",
                    "midi": 62,
                    "time": 87.44346799999997,
                    "velocity": 0.5590551181102362,
                    "duration": 0.10768899999999348
                },
                {
                    "name": "D#4",
                    "midi": 63,
                    "time": 87.55115699999996,
                    "velocity": 0.5118110236220472,
                    "duration": 0.10768899999999348
                },
                {
                    "name": "F4",
                    "midi": 65,
                    "time": 87.65884599999995,
                    "velocity": 0.5748031496062992,
                    "duration": 0.10768899999999348
                },
                {
                    "name": "D#4",
                    "midi": 63,
                    "time": 87.76653499999995,
                    "velocity": 0.5433070866141733,
                    "duration": 0.10768899999999348
                },
                {
                    "name": "D4",
                    "midi": 62,
                    "time": 87.87422399999994,
                    "velocity": 0.5748031496062992,
                    "duration": 0.10768899999999348
                },
                {
                    "name": "C4",
                    "midi": 60,
                    "time": 87.98191299999993,
                    "velocity": 0.5748031496062992,
                    "duration": 0.10768899999999348
                },
                {
                    "name": "B3",
                    "midi": 59,
                    "time": 88.08960199999993,
                    "velocity": 0.5669291338582677,
                    "duration": 0.10768899999999348
                },
                {
                    "name": "G#3",
                    "midi": 56,
                    "time": 88.19729099999992,
                    "velocity": 0.5669291338582677,
                    "duration": 0.10768899999999348
                },
                {
                    "name": "G3",
                    "midi": 55,
                    "time": 88.30497999999992,
                    "velocity": 0.5590551181102362,
                    "duration": 0.10768899999999348
                },
                {
                    "name": "F3",
                    "midi": 53,
                    "time": 88.41266899999991,
                    "velocity": 0.5590551181102362,
                    "duration": 0.10768899999999348
                },
                {
                    "name": "D#3",
                    "midi": 51,
                    "time": 88.5203579999999,
                    "velocity": 0.5511811023622047,
                    "duration": 0.10768899999999348
                },
                {
                    "name": "D3",
                    "midi": 50,
                    "time": 88.6280469999999,
                    "velocity": 0.5511811023622047,
                    "duration": 0.10768899999999348
                },
                {
                    "name": "C3",
                    "midi": 48,
                    "time": 88.73573599999989,
                    "velocity": 0.5275590551181102,
                    "duration": 0.10768899999999348
                },
                {
                    "name": "D3",
                    "midi": 50,
                    "time": 88.84342499999988,
                    "velocity": 0.47244094488188976,
                    "duration": 0.10768899999999348
                },
                {
                    "name": "D#3",
                    "midi": 51,
                    "time": 88.95111399999988,
                    "velocity": 0.47244094488188976,
                    "duration": 0.10768899999999348
                },
                {
                    "name": "F3",
                    "midi": 53,
                    "time": 89.05880299999987,
                    "velocity": 0.47244094488188976,
                    "duration": 0.10768899999999348
                },
                {
                    "name": "G3",
                    "midi": 55,
                    "time": 89.16649199999986,
                    "velocity": 0.5590551181102362,
                    "duration": 0.10768899999999348
                },
                {
                    "name": "A3",
                    "midi": 57,
                    "time": 89.27418099999986,
                    "velocity": 0.5118110236220472,
                    "duration": 0.10768899999999348
                },
                {
                    "name": "B3",
                    "midi": 59,
                    "time": 89.38186999999985,
                    "velocity": 0.5748031496062992,
                    "duration": 0.10768899999999348
                },
                {
                    "name": "C4",
                    "midi": 60,
                    "time": 89.48955899999984,
                    "velocity": 0.5433070866141733,
                    "duration": 0.10768899999999348
                },
                {
                    "name": "D4",
                    "midi": 62,
                    "time": 89.59724799999984,
                    "velocity": 0.5748031496062992,
                    "duration": 0.10768899999999348
                },
                {
                    "name": "C4",
                    "midi": 60,
                    "time": 89.70493699999983,
                    "velocity": 0.5748031496062992,
                    "duration": 0.10768899999999348
                },
                {
                    "name": "B3",
                    "midi": 59,
                    "time": 89.81262599999982,
                    "velocity": 0.5669291338582677,
                    "duration": 0.10768899999999348
                },
                {
                    "name": "G#3",
                    "midi": 56,
                    "time": 89.92031499999982,
                    "velocity": 0.5669291338582677,
                    "duration": 0.10768899999999348
                },
                {
                    "name": "G3",
                    "midi": 55,
                    "time": 90.02800399999981,
                    "velocity": 0.5590551181102362,
                    "duration": 0.10768899999999348
                },
                {
                    "name": "F3",
                    "midi": 53,
                    "time": 90.1356929999998,
                    "velocity": 0.5590551181102362,
                    "duration": 0.10768899999999348
                },
                {
                    "name": "D#3",
                    "midi": 51,
                    "time": 90.2433819999998,
                    "velocity": 0.5511811023622047,
                    "duration": 0.10768899999999348
                },
                {
                    "name": "D3",
                    "midi": 50,
                    "time": 90.35107099999979,
                    "velocity": 0.5511811023622047,
                    "duration": 0.10768899999999348
                },
                {
                    "name": "C3",
                    "midi": 48,
                    "time": 90.45875999999978,
                    "velocity": 0.5275590551181102,
                    "duration": 0.10768899999999348
                },
                {
                    "name": "D3",
                    "midi": 50,
                    "time": 90.56644899999978,
                    "velocity": 0.47244094488188976,
                    "duration": 0.10768899999999348
                },
                {
                    "name": "D#3",
                    "midi": 51,
                    "time": 90.67413799999977,
                    "velocity": 0.47244094488188976,
                    "duration": 0.10768899999999348
                },
                {
                    "name": "F3",
                    "midi": 53,
                    "time": 90.78182699999977,
                    "velocity": 0.47244094488188976,
                    "duration": 0.10768899999999348
                },
                {
                    "name": "G3",
                    "midi": 55,
                    "time": 90.88951599999976,
                    "velocity": 0.5590551181102362,
                    "duration": 0.10768899999999348
                },
                {
                    "name": "A3",
                    "midi": 57,
                    "time": 90.99720499999975,
                    "velocity": 0.5118110236220472,
                    "duration": 0.10768899999999348
                },
                {
                    "name": "B3",
                    "midi": 59,
                    "time": 91.10489399999975,
                    "velocity": 0.5748031496062992,
                    "duration": 0.10768899999999348
                },
                {
                    "name": "C4",
                    "midi": 60,
                    "time": 91.21258299999974,
                    "velocity": 0.5433070866141733,
                    "duration": 0.10768899999999348
                },
                {
                    "name": "D4",
                    "midi": 62,
                    "time": 91.32027199999973,
                    "velocity": 0.5748031496062992,
                    "duration": 0.10768899999999348
                },
                {
                    "name": "C4",
                    "midi": 60,
                    "time": 91.42796099999973,
                    "velocity": 0.5748031496062992,
                    "duration": 0.10768899999999348
                },
                {
                    "name": "B3",
                    "midi": 59,
                    "time": 91.53564999999972,
                    "velocity": 0.5669291338582677,
                    "duration": 0.10768899999999348
                },
                {
                    "name": "G#3",
                    "midi": 56,
                    "time": 91.64333899999971,
                    "velocity": 0.5669291338582677,
                    "duration": 0.10768899999999348
                },
                {
                    "name": "G3",
                    "midi": 55,
                    "time": 91.7510279999997,
                    "velocity": 0.5590551181102362,
                    "duration": 0.10768899999999348
                },
                {
                    "name": "F3",
                    "midi": 53,
                    "time": 91.8587169999997,
                    "velocity": 0.5590551181102362,
                    "duration": 0.10768899999999348
                },
                {
                    "name": "D#3",
                    "midi": 51,
                    "time": 91.9664059999997,
                    "velocity": 0.5511811023622047,
                    "duration": 0.10768899999999348
                },
                {
                    "name": "D3",
                    "midi": 50,
                    "time": 92.07409499999969,
                    "velocity": 0.5511811023622047,
                    "duration": 0.10768899999999348
                },
                {
                    "name": "C3",
                    "midi": 48,
                    "time": 92.18178399999968,
                    "velocity": 0.5275590551181102,
                    "duration": 0.10768899999999348
                },
                {
                    "name": "D3",
                    "midi": 50,
                    "time": 92.28947299999967,
                    "velocity": 0.47244094488188976,
                    "duration": 0.10768899999999348
                },
                {
                    "name": "D#3",
                    "midi": 51,
                    "time": 92.39716199999967,
                    "velocity": 0.47244094488188976,
                    "duration": 0.10768899999999348
                },
                {
                    "name": "F3",
                    "midi": 53,
                    "time": 92.50485099999966,
                    "velocity": 0.47244094488188976,
                    "duration": 0.10768899999999348
                },
                {
                    "name": "G3",
                    "midi": 55,
                    "time": 92.61253999999965,
                    "velocity": 0.5590551181102362,
                    "duration": 0.10768899999999348
                },
                {
                    "name": "A3",
                    "midi": 57,
                    "time": 92.72022899999965,
                    "velocity": 0.5118110236220472,
                    "duration": 0.10768899999999348
                },
                {
                    "name": "B3",
                    "midi": 59,
                    "time": 92.82791799999964,
                    "velocity": 0.5748031496062992,
                    "duration": 0.10768899999999348
                },
                {
                    "name": "C4",
                    "midi": 60,
                    "time": 92.93560699999964,
                    "velocity": 0.5433070866141733,
                    "duration": 0.10768899999999348
                },
                {
                    "name": "A#3",
                    "midi": 58,
                    "time": 93.04329599999963,
                    "velocity": 0.5748031496062992,
                    "duration": 0.10768899999999348
                },
                {
                    "name": "G#3",
                    "midi": 56,
                    "time": 93.15098499999962,
                    "velocity": 0.5748031496062992,
                    "duration": 0.10768899999999348
                },
                {
                    "name": "G3",
                    "midi": 55,
                    "time": 93.25867399999962,
                    "velocity": 0.5669291338582677,
                    "duration": 0.10768899999999348
                },
                {
                    "name": "F3",
                    "midi": 53,
                    "time": 93.36636299999961,
                    "velocity": 0.5669291338582677,
                    "duration": 0.10768899999999348
                },
                {
                    "name": "E3",
                    "midi": 52,
                    "time": 93.4740519999996,
                    "velocity": 0.5590551181102362,
                    "duration": 0.10768899999999348
                },
                {
                    "name": "D3",
                    "midi": 50,
                    "time": 93.5817409999996,
                    "velocity": 0.5590551181102362,
                    "duration": 0.10768899999999348
                },
                {
                    "name": "C3",
                    "midi": 48,
                    "time": 93.68942999999959,
                    "velocity": 0.5511811023622047,
                    "duration": 0.10768899999999348
                },
                {
                    "name": "A#2",
                    "midi": 46,
                    "time": 93.79711899999958,
                    "velocity": 0.5511811023622047,
                    "duration": 0.10768899999999348
                },
                {
                    "name": "G#2",
                    "midi": 44,
                    "time": 93.90480799999958,
                    "velocity": 0.5275590551181102,
                    "duration": 0.10768899999999348
                },
                {
                    "name": "A#2",
                    "midi": 46,
                    "time": 94.01249699999957,
                    "velocity": 0.47244094488188976,
                    "duration": 0.10768899999999348
                },
                {
                    "name": "C3",
                    "midi": 48,
                    "time": 94.12018599999956,
                    "velocity": 0.47244094488188976,
                    "duration": 0.10768899999999348
                },
                {
                    "name": "D3",
                    "midi": 50,
                    "time": 94.22787499999956,
                    "velocity": 0.47244094488188976,
                    "duration": 0.10768899999999348
                },
                {
                    "name": "E3",
                    "midi": 52,
                    "time": 94.33556399999955,
                    "velocity": 0.5590551181102362,
                    "duration": 0.10768899999999348
                },
                {
                    "name": "F3",
                    "midi": 53,
                    "time": 94.44325299999954,
                    "velocity": 0.5118110236220472,
                    "duration": 0.10768899999999348
                },
                {
                    "name": "G3",
                    "midi": 55,
                    "time": 94.55094199999954,
                    "velocity": 0.5748031496062992,
                    "duration": 0.10768899999999348
                },
                {
                    "name": "G#3",
                    "midi": 56,
                    "time": 94.65863099999953,
                    "velocity": 0.5433070866141733,
                    "duration": 0.10768899999999348
                },
                {
                    "name": "G3",
                    "midi": 55,
                    "time": 94.76631999999952,
                    "velocity": 0.5748031496062992,
                    "duration": 0.10768899999999348
                },
                {
                    "name": "F3",
                    "midi": 53,
                    "time": 94.87400899999952,
                    "velocity": 0.5748031496062992,
                    "duration": 0.10768899999999348
                },
                {
                    "name": "E3",
                    "midi": 52,
                    "time": 94.98169799999951,
                    "velocity": 0.5669291338582677,
                    "duration": 0.10768899999999348
                },
                {
                    "name": "D3",
                    "midi": 50,
                    "time": 95.0893869999995,
                    "velocity": 0.5669291338582677,
                    "duration": 0.10768899999999348
                },
                {
                    "name": "C3",
                    "midi": 48,
                    "time": 95.1970759999995,
                    "velocity": 0.5590551181102362,
                    "duration": 0.10768899999999348
                },
                {
                    "name": "A#2",
                    "midi": 46,
                    "time": 95.30476499999949,
                    "velocity": 0.5590551181102362,
                    "duration": 0.10768899999999348
                },
                {
                    "name": "G#2",
                    "midi": 44,
                    "time": 95.41245399999949,
                    "velocity": 0.5511811023622047,
                    "duration": 0.10768899999999348
                },
                {
                    "name": "G2",
                    "midi": 43,
                    "time": 95.52014299999948,
                    "velocity": 0.5511811023622047,
                    "duration": 0.10768899999999348
                },
                {
                    "name": "F#1",
                    "midi": 30,
                    "time": 95.62783199999947,
                    "velocity": 0.5984251968503937,
                    "duration": 0.10768899999999348
                },
                {
                    "name": "F#2",
                    "midi": 42,
                    "time": 95.62783199999947,
                    "velocity": 0.6141732283464567,
                    "duration": 0.10768899999999348
                },
                {
                    "name": "A3",
                    "midi": 57,
                    "time": 98.10467899999946,
                    "velocity": 0.5433070866141733,
                    "duration": 0.10768899999999348
                },
                {
                    "name": "F#3",
                    "midi": 54,
                    "time": 98.21236799999946,
                    "velocity": 0.5354330708661418,
                    "duration": 0.10768899999999348
                },
                {
                    "name": "D#3",
                    "midi": 51,
                    "time": 98.32005699999945,
                    "velocity": 0.5354330708661418,
                    "duration": 0.10768899999999348
                },
                {
                    "name": "C3",
                    "midi": 48,
                    "time": 98.42774599999944,
                    "velocity": 0.5275590551181102,
                    "duration": 0.10768899999999348
                },
                {
                    "name": "A2",
                    "midi": 45,
                    "time": 98.53543499999944,
                    "velocity": 0.5196850393700787,
                    "duration": 0.10768899999999348
                },
                {
                    "name": "F#2",
                    "midi": 42,
                    "time": 98.64312399999943,
                    "velocity": 0.5196850393700787,
                    "duration": 0.10768899999999348
                },
                {
                    "name": "D#2",
                    "midi": 39,
                    "time": 98.75081299999943,
                    "velocity": 0.5118110236220472,
                    "duration": 0.10768899999999348
                },
                {
                    "name": "C2",
                    "midi": 36,
                    "time": 98.85850199999942,
                    "velocity": 0.5039370078740157,
                    "duration": 0.10768899999999348
                },
                {
                    "name": "A1",
                    "midi": 33,
                    "time": 98.96619099999941,
                    "velocity": 0.49606299212598426,
                    "duration": 0.10768899999999348
                },
                {
                    "name": "F#1",
                    "midi": 30,
                    "time": 99.0738799999994,
                    "velocity": 0.47244094488188976,
                    "duration": 0.10768899999999348
                },
                {
                    "name": "A1",
                    "midi": 33,
                    "time": 99.1815689999994,
                    "velocity": 0.4645669291338583,
                    "duration": 0.10768899999999348
                },
                {
                    "name": "C2",
                    "midi": 36,
                    "time": 99.28925799999939,
                    "velocity": 0.4566929133858268,
                    "duration": 0.10768899999999348
                },
                {
                    "name": "D#2",
                    "midi": 39,
                    "time": 99.39694699999939,
                    "velocity": 0.44881889763779526,
                    "duration": 0.10768899999999348
                },
                {
                    "name": "F#1",
                    "midi": 30,
                    "time": 99.50463599999938,
                    "velocity": 0.4409448818897638,
                    "duration": 0.10768899999999348
                },
                {
                    "name": "A1",
                    "midi": 33,
                    "time": 99.61232499999937,
                    "velocity": 0.4251968503937008,
                    "duration": 0.10768899999999348
                },
                {
                    "name": "C2",
                    "midi": 36,
                    "time": 99.72001399999937,
                    "velocity": 0.41732283464566927,
                    "duration": 0.10768899999999348
                },
                {
                    "name": "D#2",
                    "midi": 39,
                    "time": 99.82770299999936,
                    "velocity": 0.4094488188976378,
                    "duration": 0.10768899999999348
                },
                {
                    "name": "F#1",
                    "midi": 30,
                    "time": 99.93539199999935,
                    "velocity": 0.4015748031496063,
                    "duration": 0.10768899999999348
                },
                {
                    "name": "A1",
                    "midi": 33,
                    "time": 100.04308099999935,
                    "velocity": 0.3700787401574803,
                    "duration": 0.10768899999999348
                },
                {
                    "name": "C2",
                    "midi": 36,
                    "time": 100.15076999999934,
                    "velocity": 0.3700787401574803,
                    "duration": 0.10768899999999348
                },
                {
                    "name": "D#2",
                    "midi": 39,
                    "time": 100.25845899999933,
                    "velocity": 0.3700787401574803,
                    "duration": 0.10768899999999348
                },
                {
                    "name": "F#1",
                    "midi": 30,
                    "time": 100.36614799999933,
                    "velocity": 0.4094488188976378,
                    "duration": 0.10768899999999348
                },
                {
                    "name": "A1",
                    "midi": 33,
                    "time": 100.47383699999932,
                    "velocity": 0.3700787401574803,
                    "duration": 0.10768899999999348
                },
                {
                    "name": "C2",
                    "midi": 36,
                    "time": 100.58152599999931,
                    "velocity": 0.36220472440944884,
                    "duration": 0.10768899999999348
                },
                {
                    "name": "D#2",
                    "midi": 39,
                    "time": 100.68921499999931,
                    "velocity": 0.36220472440944884,
                    "duration": 0.10768899999999348
                },
                {
                    "name": "F1",
                    "midi": 29,
                    "time": 100.7969039999993,
                    "velocity": 0.30708661417322836,
                    "duration": 0.43075600000000236
                },
                {
                    "name": "F2",
                    "midi": 41,
                    "time": 102.4122389999993,
                    "velocity": 0.2755905511811024,
                    "duration": 0.10768899999999348
                },
                {
                    "name": "F1",
                    "midi": 29,
                    "time": 102.5199279999993,
                    "velocity": 0.31496062992125984,
                    "duration": 0.43075600000000236
                },
                {
                    "name": "F2",
                    "midi": 41,
                    "time": 104.1352629999993,
                    "velocity": 0.2755905511811024,
                    "duration": 0.10768899999999348
                },
                {
                    "name": "F1",
                    "midi": 29,
                    "time": 104.24295199999929,
                    "velocity": 0.31496062992125984,
                    "duration": 0.43075600000000236
                },
                {
                    "name": "A3",
                    "midi": 57,
                    "time": 104.8890859999993,
                    "velocity": 0.2992125984251969,
                    "duration": 0.10768899999999348
                },
                {
                    "name": "A#3",
                    "midi": 58,
                    "time": 104.99677499999929,
                    "velocity": 0.33070866141732286,
                    "duration": 0.10768899999999348
                },
                {
                    "name": "C4",
                    "midi": 60,
                    "time": 105.10446399999928,
                    "velocity": 0.3858267716535433,
                    "duration": 0.10768899999999348
                },
                {
                    "name": "C#4",
                    "midi": 61,
                    "time": 105.21215299999928,
                    "velocity": 0.33070866141732286,
                    "duration": 0.10768899999999348
                },
                {
                    "name": "C4",
                    "midi": 60,
                    "time": 105.31984199999927,
                    "velocity": 0.33858267716535434,
                    "duration": 0.10768899999999348
                },
                {
                    "name": "A#3",
                    "midi": 58,
                    "time": 105.42753099999926,
                    "velocity": 0.33858267716535434,
                    "duration": 0.10768899999999348
                },
                {
                    "name": "A3",
                    "midi": 57,
                    "time": 105.53521999999926,
                    "velocity": 0.3700787401574803,
                    "duration": 0.21537800000000118
                },
                {
                    "name": "A3",
                    "midi": 57,
                    "time": 105.75059799999926,
                    "velocity": 0.3228346456692913,
                    "duration": 0.10768899999999348
                },
                {
                    "name": "A#3",
                    "midi": 58,
                    "time": 105.85828699999925,
                    "velocity": 0.36220472440944884,
                    "duration": 0.10768899999999348
                },
                {
                    "name": "C4",
                    "midi": 60,
                    "time": 105.96597599999924,
                    "velocity": 0.41732283464566927,
                    "duration": 0.10768899999999348
                },
                {
                    "name": "C#4",
                    "midi": 61,
                    "time": 106.07366499999924,
                    "velocity": 0.33070866141732286,
                    "duration": 0.10768899999999348
                },
                {
                    "name": "C4",
                    "midi": 60,
                    "time": 106.18135399999923,
                    "velocity": 0.33858267716535434,
                    "duration": 0.10768899999999348
                },
                {
                    "name": "A#3",
                    "midi": 58,
                    "time": 106.28904299999923,
                    "velocity": 0.33858267716535434,
                    "duration": 0.10768899999999348
                },
                {
                    "name": "A3",
                    "midi": 57,
                    "time": 106.39673199999922,
                    "velocity": 0.3700787401574803,
                    "duration": 0.21537800000000118
                },
                {
                    "name": "A3",
                    "midi": 57,
                    "time": 106.61210999999922,
                    "velocity": 0.33858267716535434,
                    "duration": 0.10768899999999348
                },
                {
                    "name": "A#3",
                    "midi": 58,
                    "time": 106.71979899999921,
                    "velocity": 0.3700787401574803,
                    "duration": 0.10768899999999348
                },
                {
                    "name": "C4",
                    "midi": 60,
                    "time": 106.8274879999992,
                    "velocity": 0.4094488188976378,
                    "duration": 0.10768899999999348
                },
                {
                    "name": "C#4",
                    "midi": 61,
                    "time": 106.9351769999992,
                    "velocity": 0.33070866141732286,
                    "duration": 0.10768899999999348
                },
                {
                    "name": "C4",
                    "midi": 60,
                    "time": 107.0428659999992,
                    "velocity": 0.33858267716535434,
                    "duration": 0.10768899999999348
                },
                {
                    "name": "A#3",
                    "midi": 58,
                    "time": 107.15055499999919,
                    "velocity": 0.33858267716535434,
                    "duration": 0.10768899999999348
                },
                {
                    "name": "A3",
                    "midi": 57,
                    "time": 107.25824399999918,
                    "velocity": 0.3464566929133858,
                    "duration": 0.10768899999999348
                },
                {
                    "name": "F#3",
                    "midi": 54,
                    "time": 107.36593299999917,
                    "velocity": 0.33070866141732286,
                    "duration": 0.10768899999999348
                },
                {
                    "name": "F3",
                    "midi": 53,
                    "time": 107.47362199999917,
                    "velocity": 0.3228346456692913,
                    "duration": 0.10768899999999348
                },
                {
                    "name": "D#3",
                    "midi": 51,
                    "time": 107.58131099999916,
                    "velocity": 0.30708661417322836,
                    "duration": 0.10768899999999348
                },
                {
                    "name": "C#3",
                    "midi": 49,
                    "time": 107.68899999999915,
                    "velocity": 0.3464566929133858,
                    "duration": 1.7230239999998958
                },
                {
                    "name": "F3",
                    "midi": 53,
                    "time": 107.79668899999915,
                    "velocity": 0.25196850393700787,
                    "duration": 0.10768899999999348
                },
                {
                    "name": "A#3",
                    "midi": 58,
                    "time": 107.90437799999914,
                    "velocity": 0.25984251968503935,
                    "duration": 0.10768899999999348
                },
                {
                    "name": "F3",
                    "midi": 53,
                    "time": 108.01206699999913,
                    "velocity": 0.2677165354330709,
                    "duration": 0.10768899999999348
                },
                {
                    "name": "A#3",
                    "midi": 58,
                    "time": 108.11975599999913,
                    "velocity": 0.2992125984251969,
                    "duration": 0.10768899999999348
                },
                {
                    "name": "F3",
                    "midi": 53,
                    "time": 108.22744499999912,
                    "velocity": 0.29133858267716534,
                    "duration": 0.10768899999999348
                },
                {
                    "name": "A#3",
                    "midi": 58,
                    "time": 108.33513399999912,
                    "velocity": 0.2992125984251969,
                    "duration": 0.10768899999999348
                },
                {
                    "name": "F3",
                    "midi": 53,
                    "time": 108.44282299999911,
                    "velocity": 0.2992125984251969,
                    "duration": 0.10768899999999348
                },
                {
                    "name": "A#3",
                    "midi": 58,
                    "time": 108.5505119999991,
                    "velocity": 0.30708661417322836,
                    "duration": 0.10768899999999348
                },
                {
                    "name": "F3",
                    "midi": 53,
                    "time": 108.6582009999991,
                    "velocity": 0.30708661417322836,
                    "duration": 0.10768899999999348
                },
                {
                    "name": "A#3",
                    "midi": 58,
                    "time": 108.76588999999909,
                    "velocity": 0.2992125984251969,
                    "duration": 0.10768899999999348
                },
                {
                    "name": "F3",
                    "midi": 53,
                    "time": 108.87357899999908,
                    "velocity": 0.2992125984251969,
                    "duration": 0.10768899999999348
                },
                {
                    "name": "A#3",
                    "midi": 58,
                    "time": 108.98126799999908,
                    "velocity": 0.2992125984251969,
                    "duration": 0.10768899999999348
                },
                {
                    "name": "F3",
                    "midi": 53,
                    "time": 109.08895699999907,
                    "velocity": 0.29133858267716534,
                    "duration": 0.10768899999999348
                },
                {
                    "name": "A#3",
                    "midi": 58,
                    "time": 109.19664599999906,
                    "velocity": 0.29133858267716534,
                    "duration": 0.10768899999999348
                },
                {
                    "name": "F3",
                    "midi": 53,
                    "time": 109.30433499999906,
                    "velocity": 0.28346456692913385,
                    "duration": 0.10768899999999348
                },
                {
                    "name": "C#3",
                    "midi": 49,
                    "time": 109.41202399999905,
                    "velocity": 0.3464566929133858,
                    "duration": 1.7230239999998958
                },
                {
                    "name": "F3",
                    "midi": 53,
                    "time": 109.51971299999904,
                    "velocity": 0.25196850393700787,
                    "duration": 0.10768899999999348
                },
                {
                    "name": "A#3",
                    "midi": 58,
                    "time": 109.62740199999904,
                    "velocity": 0.25984251968503935,
                    "duration": 0.10768899999999348
                },
                {
                    "name": "F3",
                    "midi": 53,
                    "time": 109.73509099999903,
                    "velocity": 0.2677165354330709,
                    "duration": 0.10768899999999348
                },
                {
                    "name": "A#3",
                    "midi": 58,
                    "time": 109.84277999999902,
                    "velocity": 0.2992125984251969,
                    "duration": 0.10768899999999348
                },
                {
                    "name": "F3",
                    "midi": 53,
                    "time": 109.95046899999902,
                    "velocity": 0.29133858267716534,
                    "duration": 0.10768899999999348
                },
                {
                    "name": "A#3",
                    "midi": 58,
                    "time": 110.05815799999901,
                    "velocity": 0.2992125984251969,
                    "duration": 0.10768899999999348
                },
                {
                    "name": "F3",
                    "midi": 53,
                    "time": 110.165846999999,
                    "velocity": 0.2992125984251969,
                    "duration": 0.10768899999999348
                },
                {
                    "name": "A#3",
                    "midi": 58,
                    "time": 110.273535999999,
                    "velocity": 0.30708661417322836,
                    "duration": 0.10768899999999348
                },
                {
                    "name": "F3",
                    "midi": 53,
                    "time": 110.38122499999899,
                    "velocity": 0.30708661417322836,
                    "duration": 0.10768899999999348
                },
                {
                    "name": "A#3",
                    "midi": 58,
                    "time": 110.48891399999899,
                    "velocity": 0.2992125984251969,
                    "duration": 0.10768899999999348
                },
                {
                    "name": "F3",
                    "midi": 53,
                    "time": 110.59660299999898,
                    "velocity": 0.2992125984251969,
                    "duration": 0.10768899999999348
                },
                {
                    "name": "A#3",
                    "midi": 58,
                    "time": 110.70429199999897,
                    "velocity": 0.2992125984251969,
                    "duration": 0.10768899999999348
                },
                {
                    "name": "F3",
                    "midi": 53,
                    "time": 110.81198099999897,
                    "velocity": 0.29133858267716534,
                    "duration": 0.10768899999999348
                },
                {
                    "name": "A#3",
                    "midi": 58,
                    "time": 110.91966999999896,
                    "velocity": 0.29133858267716534,
                    "duration": 0.10768899999999348
                },
                {
                    "name": "F3",
                    "midi": 53,
                    "time": 111.02735899999895,
                    "velocity": 0.28346456692913385,
                    "duration": 0.10768899999999348
                },
                {
                    "name": "D#3",
                    "midi": 51,
                    "time": 111.13504799999895,
                    "velocity": 0.3464566929133858,
                    "duration": 1.7230239999998958
                },
                {
                    "name": "F#3",
                    "midi": 54,
                    "time": 111.24273699999894,
                    "velocity": 0.25196850393700787,
                    "duration": 0.10768899999999348
                },
                {
                    "name": "B3",
                    "midi": 59,
                    "time": 111.35042599999893,
                    "velocity": 0.25984251968503935,
                    "duration": 0.10768899999999348
                },
                {
                    "name": "F#3",
                    "midi": 54,
                    "time": 111.45811499999893,
                    "velocity": 0.2755905511811024,
                    "duration": 0.10768899999999348
                },
                {
                    "name": "B3",
                    "midi": 59,
                    "time": 111.56580399999892,
                    "velocity": 0.30708661417322836,
                    "duration": 0.10768899999999348
                },
                {
                    "name": "F#3",
                    "midi": 54,
                    "time": 111.67349299999891,
                    "velocity": 0.30708661417322836,
                    "duration": 0.10768899999999348
                },
                {
                    "name": "B3",
                    "midi": 59,
                    "time": 111.7811819999989,
                    "velocity": 0.31496062992125984,
                    "duration": 0.10768899999999348
                },
                {
                    "name": "F#3",
                    "midi": 54,
                    "time": 111.8888709999989,
                    "velocity": 0.3228346456692913,
                    "duration": 0.10768899999999348
                },
                {
                    "name": "B3",
                    "midi": 59,
                    "time": 111.9965599999989,
                    "velocity": 0.33070866141732286,
                    "duration": 0.10768899999999348
                },
                {
                    "name": "F#3",
                    "midi": 54,
                    "time": 112.10424899999889,
                    "velocity": 0.33858267716535434,
                    "duration": 0.10768899999999348
                },
                {
                    "name": "B3",
                    "midi": 59,
                    "time": 112.21193799999888,
                    "velocity": 0.33070866141732286,
                    "duration": 0.10768899999999348
                },
                {
                    "name": "F#3",
                    "midi": 54,
                    "time": 112.31962699999887,
                    "velocity": 0.33070866141732286,
                    "duration": 0.10768899999999348
                },
                {
                    "name": "B3",
                    "midi": 59,
                    "time": 112.42731599999887,
                    "velocity": 0.33858267716535434,
                    "duration": 0.10768899999999348
                },
                {
                    "name": "F#3",
                    "midi": 54,
                    "time": 112.53500499999886,
                    "velocity": 0.33070866141732286,
                    "duration": 0.10768899999999348
                },
                {
                    "name": "B3",
                    "midi": 59,
                    "time": 112.64269399999885,
                    "velocity": 0.3543307086614173,
                    "duration": 0.10768899999999348
                },
                {
                    "name": "F#3",
                    "midi": 54,
                    "time": 112.75038299999885,
                    "velocity": 0.33070866141732286,
                    "duration": 0.10768899999999348
                },
                {
                    "name": "F3",
                    "midi": 53,
                    "time": 112.85807199999884,
                    "velocity": 0.36220472440944884,
                    "duration": 0.8615119999999479
                },
                {
                    "name": "A#3",
                    "midi": 58,
                    "time": 112.96576099999884,
                    "velocity": 0.36220472440944884,
                    "duration": 0.10768899999999348
                },
                {
                    "name": "C#4",
                    "midi": 61,
                    "time": 113.07344999999883,
                    "velocity": 0.3464566929133858,
                    "duration": 0.10768899999999348
                },
                {
                    "name": "A#3",
                    "midi": 58,
                    "time": 113.18113899999882,
                    "velocity": 0.3464566929133858,
                    "duration": 0.10768899999999348
                },
                {
                    "name": "C#4",
                    "midi": 61,
                    "time": 113.28882799999882,
                    "velocity": 0.33858267716535434,
                    "duration": 0.10768899999999348
                },
                {
                    "name": "A#3",
                    "midi": 58,
                    "time": 113.39651699999881,
                    "velocity": 0.33070866141732286,
                    "duration": 0.10768899999999348
                },
                {
                    "name": "C#4",
                    "midi": 61,
                    "time": 113.5042059999988,
                    "velocity": 0.3228346456692913,
                    "duration": 0.10768899999999348
                },
                {
                    "name": "A#3",
                    "midi": 58,
                    "time": 113.6118949999988,
                    "velocity": 0.31496062992125984,
                    "duration": 0.10768899999999348
                },
                {
                    "name": "D#3",
                    "midi": 51,
                    "time": 113.71958399999879,
                    "velocity": 0.33070866141732286,
                    "duration": 0.8615119999999479
                },
                {
                    "name": "F3",
                    "midi": 53,
                    "time": 113.82727299999878,
                    "velocity": 0.33070866141732286,
                    "duration": 0.10768899999999348
                },
                {
                    "name": "C4",
                    "midi": 60,
                    "time": 113.93496199999878,
                    "velocity": 0.3228346456692913,
                    "duration": 0.10768899999999348
                },
                {
                    "name": "F3",
                    "midi": 53,
                    "time": 114.04265099999877,
                    "velocity": 0.31496062992125984,
                    "duration": 0.10768899999999348
                },
                {
                    "name": "C4",
                    "midi": 60,
                    "time": 114.15033999999876,
                    "velocity": 0.30708661417322836,
                    "duration": 0.10768899999999348
                },
                {
                    "name": "F3",
                    "midi": 53,
                    "time": 114.25802899999876,
                    "velocity": 0.2992125984251969,
                    "duration": 0.10768899999999348
                },
                {
                    "name": "C4",
                    "midi": 60,
                    "time": 114.36571799999875,
                    "velocity": 0.2992125984251969,
                    "duration": 0.10768899999999348
                },
                {
                    "name": "F3",
                    "midi": 53,
                    "time": 114.47340699999874,
                    "velocity": 0.28346456692913385,
                    "duration": 0.10768899999999348
                },
                {
                    "name": "C#3",
                    "midi": 49,
                    "time": 114.58109599999874,
                    "velocity": 0.3779527559055118,
                    "duration": 0.10768899999999348
                },
                {
                    "name": "F4",
                    "midi": 65,
                    "time": 114.68878499999873,
                    "velocity": 0.3779527559055118,
                    "duration": 0.10768899999999348
                },
                {
                    "name": "A#3",
                    "midi": 58,
                    "time": 115.01185199999873,
                    "velocity": 0.4566929133858268,
                    "duration": 0.43075599999997394
                },
                {
                    "name": "C#4",
                    "midi": 61,
                    "time": 115.11954099999872,
                    "velocity": 0.31496062992125984,
                    "duration": 0.10768899999999348
                },
                {
                    "name": "F4",
                    "midi": 65,
                    "time": 115.22722999999871,
                    "velocity": 0.3228346456692913,
                    "duration": 0.10768899999999348
                },
                {
                    "name": "C#4",
                    "midi": 61,
                    "time": 115.3349189999987,
                    "velocity": 0.3228346456692913,
                    "duration": 0.10768899999999348
                },
                {
                    "name": "A3",
                    "midi": 57,
                    "time": 115.4426079999987,
                    "velocity": 0.4881889763779528,
                    "duration": 0.43075599999997394
                },
                {
                    "name": "C#4",
                    "midi": 61,
                    "time": 115.5502969999987,
                    "velocity": 0.33070866141732286,
                    "duration": 0.10768899999999348
                },
                {
                    "name": "F4",
                    "midi": 65,
                    "time": 115.65798599999869,
                    "velocity": 0.3228346456692913,
                    "duration": 0.10768899999999348
                },
                {
                    "name": "C#4",
                    "midi": 61,
                    "time": 115.76567499999868,
                    "velocity": 0.3228346456692913,
                    "duration": 0.10768899999999348
                },
                {
                    "name": "A#3",
                    "midi": 58,
                    "time": 115.87336399999867,
                    "velocity": 0.4251968503937008,
                    "duration": 0.43075599999997394
                },
                {
                    "name": "C#4",
                    "midi": 61,
                    "time": 115.98105299999867,
                    "velocity": 0.31496062992125984,
                    "duration": 0.10768899999999348
                },
                {
                    "name": "F4",
                    "midi": 65,
                    "time": 116.08874199999866,
                    "velocity": 0.31496062992125984,
                    "duration": 0.10768899999999348
                },
                {
                    "name": "C#4",
                    "midi": 61,
                    "time": 116.19643099999865,
                    "velocity": 0.31496062992125984,
                    "duration": 0.10768899999999348
                },
                {
                    "name": "C#3",
                    "midi": 49,
                    "time": 116.30411999999865,
                    "velocity": 0.3858267716535433,
                    "duration": 0.10768899999999348
                },
                {
                    "name": "F4",
                    "midi": 65,
                    "time": 116.41180899999864,
                    "velocity": 0.3937007874015748,
                    "duration": 0.10768899999999348
                },
                {
                    "name": "A#3",
                    "midi": 58,
                    "time": 116.73487599999864,
                    "velocity": 0.5118110236220472,
                    "duration": 0.43075599999997394
                },
                {
                    "name": "C#4",
                    "midi": 61,
                    "time": 116.84256499999863,
                    "velocity": 0.33858267716535434,
                    "duration": 0.10768899999999348
                },
                {
                    "name": "F4",
                    "midi": 65,
                    "time": 116.95025399999862,
                    "velocity": 0.3543307086614173,
                    "duration": 0.10768899999999348
                },
                {
                    "name": "C#4",
                    "midi": 61,
                    "time": 117.05794299999862,
                    "velocity": 0.3543307086614173,
                    "duration": 0.10768899999999348
                },
                {
                    "name": "A3",
                    "midi": 57,
                    "time": 117.16563199999861,
                    "velocity": 0.5511811023622047,
                    "duration": 0.43075599999997394
                },
                {
                    "name": "C#4",
                    "midi": 61,
                    "time": 117.2733209999986,
                    "velocity": 0.3700787401574803,
                    "duration": 0.10768899999999348
                },
                {
                    "name": "F4",
                    "midi": 65,
                    "time": 117.3810099999986,
                    "velocity": 0.36220472440944884,
                    "duration": 0.10768899999999348
                },
                {
                    "name": "C#4",
                    "midi": 61,
                    "time": 117.48869899999859,
                    "velocity": 0.3700787401574803,
                    "duration": 0.10768899999999348
                },
                {
                    "name": "A#3",
                    "midi": 58,
                    "time": 117.59638799999858,
                    "velocity": 0.5669291338582677,
                    "duration": 0.43075599999997394
                },
                {
                    "name": "C#4",
                    "midi": 61,
                    "time": 117.70407699999858,
                    "velocity": 0.36220472440944884,
                    "duration": 0.10768899999999348
                },
                {
                    "name": "F4",
                    "midi": 65,
                    "time": 117.81176599999857,
                    "velocity": 0.3700787401574803,
                    "duration": 0.10768899999999348
                },
                {
                    "name": "C#4",
                    "midi": 61,
                    "time": 117.91945499999856,
                    "velocity": 0.36220472440944884,
                    "duration": 0.10768899999999348
                },
                {
                    "name": "D#3",
                    "midi": 51,
                    "time": 118.02714399999856,
                    "velocity": 0.5511811023622047,
                    "duration": 0.10768899999999348
                },
                {
                    "name": "F#4",
                    "midi": 66,
                    "time": 118.13483299999855,
                    "velocity": 0.4330708661417323,
                    "duration": 0.10768899999999348
                },
                {
                    "name": "B4",
                    "midi": 71,
                    "time": 118.13483299999855,
                    "velocity": 0.4330708661417323,
                    "duration": 0.10768899999999348
                },
                {
                    "name": "D#4",
                    "midi": 63,
                    "time": 118.24252199999854,
                    "velocity": 0.4645669291338583,
                    "duration": 0.10768899999999348
                },
                {
                    "name": "F#4",
                    "midi": 66,
                    "time": 118.35021099999854,
                    "velocity": 0.4330708661417323,
                    "duration": 0.10768899999999348
                },
                {
                    "name": "B4",
                    "midi": 71,
                    "time": 118.35021099999854,
                    "velocity": 0.4330708661417323,
                    "duration": 0.10768899999999348
                },
                {
                    "name": "D#4",
                    "midi": 63,
                    "time": 118.45789999999853,
                    "velocity": 0.4645669291338583,
                    "duration": 0.10768899999999348
                },
                {
                    "name": "F#4",
                    "midi": 66,
                    "time": 118.56558899999852,
                    "velocity": 0.4330708661417323,
                    "duration": 0.10768899999999348
                },
                {
                    "name": "B4",
                    "midi": 71,
                    "time": 118.56558899999852,
                    "velocity": 0.4330708661417323,
                    "duration": 0.10768899999999348
                },
                {
                    "name": "D#4",
                    "midi": 63,
                    "time": 118.67327799999852,
                    "velocity": 0.4645669291338583,
                    "duration": 0.10768899999999348
                },
                {
                    "name": "F#4",
                    "midi": 66,
                    "time": 118.78096699999851,
                    "velocity": 0.4409448818897638,
                    "duration": 0.10768899999999348
                },
                {
                    "name": "B4",
                    "midi": 71,
                    "time": 118.78096699999851,
                    "velocity": 0.4409448818897638,
                    "duration": 0.10768899999999348
                },
                {
                    "name": "D#4",
                    "midi": 63,
                    "time": 118.8886559999985,
                    "velocity": 0.4645669291338583,
                    "duration": 0.10768899999999348
                },
                {
                    "name": "F#4",
                    "midi": 66,
                    "time": 118.9963449999985,
                    "velocity": 0.4330708661417323,
                    "duration": 0.10768899999999348
                },
                {
                    "name": "B4",
                    "midi": 71,
                    "time": 118.9963449999985,
                    "velocity": 0.4330708661417323,
                    "duration": 0.10768899999999348
                },
                {
                    "name": "D#4",
                    "midi": 63,
                    "time": 119.10403399999849,
                    "velocity": 0.4645669291338583,
                    "duration": 0.10768899999999348
                },
                {
                    "name": "F#4",
                    "midi": 66,
                    "time": 119.21172299999849,
                    "velocity": 0.4330708661417323,
                    "duration": 0.10768899999999348
                },
                {
                    "name": "B4",
                    "midi": 71,
                    "time": 119.21172299999849,
                    "velocity": 0.4330708661417323,
                    "duration": 0.10768899999999348
                },
                {
                    "name": "D#4",
                    "midi": 63,
                    "time": 119.31941199999848,
                    "velocity": 0.4645669291338583,
                    "duration": 0.10768899999999348
                },
                {
                    "name": "F#4",
                    "midi": 66,
                    "time": 119.42710099999847,
                    "velocity": 0.4330708661417323,
                    "duration": 0.10768899999999348
                },
                {
                    "name": "B4",
                    "midi": 71,
                    "time": 119.42710099999847,
                    "velocity": 0.4330708661417323,
                    "duration": 0.10768899999999348
                },
                {
                    "name": "D#4",
                    "midi": 63,
                    "time": 119.53478999999847,
                    "velocity": 0.4645669291338583,
                    "duration": 0.10768899999999348
                },
                {
                    "name": "F#4",
                    "midi": 66,
                    "time": 119.64247899999846,
                    "velocity": 0.4409448818897638,
                    "duration": 0.10768899999999348
                },
                {
                    "name": "B4",
                    "midi": 71,
                    "time": 119.64247899999846,
                    "velocity": 0.4409448818897638,
                    "duration": 0.10768899999999348
                },
                {
                    "name": "F4",
                    "midi": 65,
                    "time": 119.75016799999845,
                    "velocity": 0.4645669291338583,
                    "duration": 0.10768899999999348
                },
                {
                    "name": "A4",
                    "midi": 69,
                    "time": 119.85785699999845,
                    "velocity": 0.4330708661417323,
                    "duration": 0.10768899999999348
                },
                {
                    "name": "C5",
                    "midi": 72,
                    "time": 119.85785699999845,
                    "velocity": 0.4330708661417323,
                    "duration": 0.10768899999999348
                },
                {
                    "name": "D#5",
                    "midi": 75,
                    "time": 119.85785699999845,
                    "velocity": 0.4330708661417323,
                    "duration": 0.10768899999999348
                },
                {
                    "name": "F4",
                    "midi": 65,
                    "time": 119.96554599999844,
                    "velocity": 0.4645669291338583,
                    "duration": 0.10768899999999348
                },
                {
                    "name": "A4",
                    "midi": 69,
                    "time": 120.07323499999843,
                    "velocity": 0.4330708661417323,
                    "duration": 0.10768899999999348
                },
                {
                    "name": "C5",
                    "midi": 72,
                    "time": 120.07323499999843,
                    "velocity": 0.4330708661417323,
                    "duration": 0.10768899999999348
                },
                {
                    "name": "D#5",
                    "midi": 75,
                    "time": 120.07323499999843,
                    "velocity": 0.4330708661417323,
                    "duration": 0.10768899999999348
                },
                {
                    "name": "F4",
                    "midi": 65,
                    "time": 120.18092399999843,
                    "velocity": 0.4645669291338583,
                    "duration": 0.10768899999999348
                },
                {
                    "name": "A4",
                    "midi": 69,
                    "time": 120.28861299999842,
                    "velocity": 0.4330708661417323,
                    "duration": 0.10768899999999348
                },
                {
                    "name": "C5",
                    "midi": 72,
                    "time": 120.28861299999842,
                    "velocity": 0.4330708661417323,
                    "duration": 0.10768899999999348
                },
                {
                    "name": "D#5",
                    "midi": 75,
                    "time": 120.28861299999842,
                    "velocity": 0.4330708661417323,
                    "duration": 0.10768899999999348
                },
                {
                    "name": "F4",
                    "midi": 65,
                    "time": 120.39630199999841,
                    "velocity": 0.4645669291338583,
                    "duration": 0.10768899999999348
                },
                {
                    "name": "A4",
                    "midi": 69,
                    "time": 120.50399099999841,
                    "velocity": 0.4330708661417323,
                    "duration": 0.10768899999999348
                },
                {
                    "name": "C5",
                    "midi": 72,
                    "time": 120.50399099999841,
                    "velocity": 0.4409448818897638,
                    "duration": 0.10768899999999348
                },
                {
                    "name": "D#5",
                    "midi": 75,
                    "time": 120.50399099999841,
                    "velocity": 0.4409448818897638,
                    "duration": 0.10768899999999348
                },
                {
                    "name": "F4",
                    "midi": 65,
                    "time": 120.6116799999984,
                    "velocity": 0.4645669291338583,
                    "duration": 0.10768899999999348
                },
                {
                    "name": "A4",
                    "midi": 69,
                    "time": 120.7193689999984,
                    "velocity": 0.4330708661417323,
                    "duration": 0.10768899999999348
                },
                {
                    "name": "F4",
                    "midi": 65,
                    "time": 120.82705799999839,
                    "velocity": 0.4645669291338583,
                    "duration": 0.10768899999999348
                },
                {
                    "name": "A4",
                    "midi": 69,
                    "time": 120.93474699999838,
                    "velocity": 0.4330708661417323,
                    "duration": 0.10768899999999348
                },
                {
                    "name": "F3",
                    "midi": 53,
                    "time": 121.04243599999837,
                    "velocity": 0.4645669291338583,
                    "duration": 0.10768899999999348
                },
                {
                    "name": "F4",
                    "midi": 65,
                    "time": 121.15012499999837,
                    "velocity": 0.3937007874015748,
                    "duration": 0.10768899999999348
                },
                {
                    "name": "F3",
                    "midi": 53,
                    "time": 121.25781399999836,
                    "velocity": 0.44881889763779526,
                    "duration": 0.10768899999999348
                },
                {
                    "name": "F4",
                    "midi": 65,
                    "time": 121.36550299999836,
                    "velocity": 0.3858267716535433,
                    "duration": 0.10768899999999348
                },
                {
                    "name": "A#2",
                    "midi": 46,
                    "time": 121.47319199999835,
                    "velocity": 0.4645669291338583,
                    "duration": 0.21537800000000118
                },
                {
                    "name": "A#3",
                    "midi": 58,
                    "time": 121.68856999999835,
                    "velocity": 0.3464566929133858,
                    "duration": 0.10768899999999348
                },
                {
                    "name": "C#4",
                    "midi": 61,
                    "time": 121.68856999999835,
                    "velocity": 0.3464566929133858,
                    "duration": 0.10768899999999348
                },
                {
                    "name": "F4",
                    "midi": 65,
                    "time": 121.79625899999834,
                    "velocity": 0.2992125984251969,
                    "duration": 0.10768899999999348
                },
                {
                    "name": "A#3",
                    "midi": 58,
                    "time": 121.90394799999834,
                    "velocity": 0.3464566929133858,
                    "duration": 0.10768899999999348
                },
                {
                    "name": "C#4",
                    "midi": 61,
                    "time": 121.90394799999834,
                    "velocity": 0.3464566929133858,
                    "duration": 0.10768899999999348
                },
                {
                    "name": "F4",
                    "midi": 65,
                    "time": 122.01163699999833,
                    "velocity": 0.2992125984251969,
                    "duration": 0.10768899999999348
                },
                {
                    "name": "C#4",
                    "midi": 61,
                    "time": 122.11932599999832,
                    "velocity": 0.3464566929133858,
                    "duration": 0.10768899999999348
                },
                {
                    "name": "A#3",
                    "midi": 58,
                    "time": 122.11932599999832,
                    "velocity": 0.3464566929133858,
                    "duration": 0.10768899999999348
                },
                {
                    "name": "F4",
                    "midi": 65,
                    "time": 122.22701499999832,
                    "velocity": 0.2992125984251969,
                    "duration": 0.10768899999999348
                },
                {
                    "name": "A#3",
                    "midi": 58,
                    "time": 122.33470399999831,
                    "velocity": 0.3464566929133858,
                    "duration": 0.10768899999999348
                },
                {
                    "name": "C#4",
                    "midi": 61,
                    "time": 122.33470399999831,
                    "velocity": 0.3464566929133858,
                    "duration": 0.10768899999999348
                },
                {
                    "name": "F4",
                    "midi": 65,
                    "time": 122.4423929999983,
                    "velocity": 0.2992125984251969,
                    "duration": 0.10768899999999348
                },
                {
                    "name": "C#4",
                    "midi": 61,
                    "time": 122.5500819999983,
                    "velocity": 0.3464566929133858,
                    "duration": 0.10768899999999348
                },
                {
                    "name": "A#3",
                    "midi": 58,
                    "time": 122.5500819999983,
                    "velocity": 0.3464566929133858,
                    "duration": 0.10768899999999348
                },
                {
                    "name": "E4",
                    "midi": 64,
                    "time": 122.65777099999829,
                    "velocity": 0.2992125984251969,
                    "duration": 0.10768899999999348
                },
                {
                    "name": "A#3",
                    "midi": 58,
                    "time": 122.76545999999828,
                    "velocity": 0.3464566929133858,
                    "duration": 0.10768899999999348
                },
                {
                    "name": "C#4",
                    "midi": 61,
                    "time": 122.76545999999828,
                    "velocity": 0.3464566929133858,
                    "duration": 0.10768899999999348
                },
                {
                    "name": "E4",
                    "midi": 64,
                    "time": 122.87314899999828,
                    "velocity": 0.2992125984251969,
                    "duration": 0.10768899999999348
                },
                {
                    "name": "A#3",
                    "midi": 58,
                    "time": 122.98083799999827,
                    "velocity": 0.3464566929133858,
                    "duration": 0.10768899999999348
                },
                {
                    "name": "C#4",
                    "midi": 61,
                    "time": 122.98083799999827,
                    "velocity": 0.3464566929133858,
                    "duration": 0.10768899999999348
                },
                {
                    "name": "E4",
                    "midi": 64,
                    "time": 123.08852699999827,
                    "velocity": 0.2992125984251969,
                    "duration": 0.10768899999999348
                },
                {
                    "name": "A3",
                    "midi": 57,
                    "time": 123.19621599999826,
                    "velocity": 0.3464566929133858,
                    "duration": 0.10768899999999348
                },
                {
                    "name": "C4",
                    "midi": 60,
                    "time": 123.19621599999826,
                    "velocity": 0.3464566929133858,
                    "duration": 0.10768899999999348
                },
                {
                    "name": "E4",
                    "midi": 64,
                    "time": 123.30390499999825,
                    "velocity": 0.2992125984251969,
                    "duration": 0.10768899999999348
                },
                {
                    "name": "C4",
                    "midi": 60,
                    "time": 123.41159399999825,
                    "velocity": 0.3464566929133858,
                    "duration": 0.10768899999999348
                },
                {
                    "name": "A3",
                    "midi": 57,
                    "time": 123.41159399999825,
                    "velocity": 0.3464566929133858,
                    "duration": 0.10768899999999348
                },
                {
                    "name": "F4",
                    "midi": 65,
                    "time": 123.51928299999824,
                    "velocity": 0.2992125984251969,
                    "duration": 0.10768899999999348
                },
                {
                    "name": "A3",
                    "midi": 57,
                    "time": 123.62697199999823,
                    "velocity": 0.3464566929133858,
                    "duration": 0.10768899999999348
                },
                {
                    "name": "C4",
                    "midi": 60,
                    "time": 123.62697199999823,
                    "velocity": 0.3464566929133858,
                    "duration": 0.10768899999999348
                },
                {
                    "name": "F4",
                    "midi": 65,
                    "time": 123.73466099999823,
                    "velocity": 0.2992125984251969,
                    "duration": 0.10768899999999348
                },
                {
                    "name": "A3",
                    "midi": 57,
                    "time": 123.84234999999822,
                    "velocity": 0.3464566929133858,
                    "duration": 0.10768899999999348
                },
                {
                    "name": "C4",
                    "midi": 60,
                    "time": 123.84234999999822,
                    "velocity": 0.3464566929133858,
                    "duration": 0.10768899999999348
                },
                {
                    "name": "F4",
                    "midi": 65,
                    "time": 123.95003899999821,
                    "velocity": 0.2992125984251969,
                    "duration": 0.10768899999999348
                },
                {
                    "name": "A3",
                    "midi": 57,
                    "time": 124.0577279999982,
                    "velocity": 0.3464566929133858,
                    "duration": 0.10768899999999348
                },
                {
                    "name": "C4",
                    "midi": 60,
                    "time": 124.0577279999982,
                    "velocity": 0.3464566929133858,
                    "duration": 0.10768899999999348
                },
                {
                    "name": "F4",
                    "midi": 65,
                    "time": 124.1654169999982,
                    "velocity": 0.2992125984251969,
                    "duration": 0.10768899999999348
                },
                {
                    "name": "C4",
                    "midi": 60,
                    "time": 124.2731059999982,
                    "velocity": 0.3464566929133858,
                    "duration": 0.10768899999999348
                },
                {
                    "name": "A3",
                    "midi": 57,
                    "time": 124.2731059999982,
                    "velocity": 0.3464566929133858,
                    "duration": 0.10768899999999348
                },
                {
                    "name": "F4",
                    "midi": 65,
                    "time": 124.38079499999819,
                    "velocity": 0.2992125984251969,
                    "duration": 0.10768899999999348
                },
                {
                    "name": "A3",
                    "midi": 57,
                    "time": 124.48848399999818,
                    "velocity": 0.3464566929133858,
                    "duration": 0.10768899999999348
                },
                {
                    "name": "C4",
                    "midi": 60,
                    "time": 124.48848399999818,
                    "velocity": 0.3464566929133858,
                    "duration": 0.10768899999999348
                },
                {
                    "name": "F4",
                    "midi": 65,
                    "time": 124.59617299999817,
                    "velocity": 0.2992125984251969,
                    "duration": 0.10768899999999348
                },
                {
                    "name": "A3",
                    "midi": 57,
                    "time": 124.70386199999817,
                    "velocity": 0.3464566929133858,
                    "duration": 0.10768899999999348
                },
                {
                    "name": "C4",
                    "midi": 60,
                    "time": 124.70386199999817,
                    "velocity": 0.3464566929133858,
                    "duration": 0.10768899999999348
                },
                {
                    "name": "F4",
                    "midi": 65,
                    "time": 124.81155099999816,
                    "velocity": 0.2992125984251969,
                    "duration": 0.10768899999999348
                },
                {
                    "name": "C#4",
                    "midi": 61,
                    "time": 124.91923999999815,
                    "velocity": 0.3464566929133858,
                    "duration": 0.10768899999999348
                },
                {
                    "name": "A#3",
                    "midi": 58,
                    "time": 124.91923999999815,
                    "velocity": 0.3464566929133858,
                    "duration": 0.10768899999999348
                },
                {
                    "name": "F4",
                    "midi": 65,
                    "time": 125.02692899999815,
                    "velocity": 0.2992125984251969,
                    "duration": 0.10768899999999348
                },
                {
                    "name": "A#3",
                    "midi": 58,
                    "time": 125.13461799999814,
                    "velocity": 0.4566929133858268,
                    "duration": 0.10768899999999348
                },
                {
                    "name": "C#4",
                    "midi": 61,
                    "time": 125.13461799999814,
                    "velocity": 0.4566929133858268,
                    "duration": 0.10768899999999348
                },
                {
                    "name": "F4",
                    "midi": 65,
                    "time": 125.24230699999814,
                    "velocity": 0.4015748031496063,
                    "duration": 0.10768899999999348
                },
                {
                    "name": "A#3",
                    "midi": 58,
                    "time": 125.34999599999813,
                    "velocity": 0.4566929133858268,
                    "duration": 0.10768899999999348
                },
                {
                    "name": "C#4",
                    "midi": 61,
                    "time": 125.34999599999813,
                    "velocity": 0.4566929133858268,
                    "duration": 0.10768899999999348
                },
                {
                    "name": "F4",
                    "midi": 65,
                    "time": 125.45768499999812,
                    "velocity": 0.4015748031496063,
                    "duration": 0.10768899999999348
                },
                {
                    "name": "C#4",
                    "midi": 61,
                    "time": 125.56537399999812,
                    "velocity": 0.4566929133858268,
                    "duration": 0.10768899999999348
                },
                {
                    "name": "A#3",
                    "midi": 58,
                    "time": 125.56537399999812,
                    "velocity": 0.4566929133858268,
                    "duration": 0.10768899999999348
                },
                {
                    "name": "F4",
                    "midi": 65,
                    "time": 125.67306299999811,
                    "velocity": 0.4015748031496063,
                    "duration": 0.10768899999999348
                },
                {
                    "name": "A#3",
                    "midi": 58,
                    "time": 125.7807519999981,
                    "velocity": 0.4566929133858268,
                    "duration": 0.10768899999999348
                },
                {
                    "name": "C#4",
                    "midi": 61,
                    "time": 125.7807519999981,
                    "velocity": 0.4566929133858268,
                    "duration": 0.10768899999999348
                },
                {
                    "name": "F4",
                    "midi": 65,
                    "time": 125.8884409999981,
                    "velocity": 0.4015748031496063,
                    "duration": 0.10768899999999348
                },
                {
                    "name": "C#4",
                    "midi": 61,
                    "time": 125.99612999999809,
                    "velocity": 0.4566929133858268,
                    "duration": 0.10768899999999348
                },
                {
                    "name": "A#3",
                    "midi": 58,
                    "time": 125.99612999999809,
                    "velocity": 0.4566929133858268,
                    "duration": 0.10768899999999348
                },
                {
                    "name": "E4",
                    "midi": 64,
                    "time": 126.10381899999808,
                    "velocity": 0.4015748031496063,
                    "duration": 0.10768899999999348
                },
                {
                    "name": "A#3",
                    "midi": 58,
                    "time": 126.21150799999808,
                    "velocity": 0.4566929133858268,
                    "duration": 0.10768899999999348
                },
                {
                    "name": "C#4",
                    "midi": 61,
                    "time": 126.21150799999808,
                    "velocity": 0.4566929133858268,
                    "duration": 0.10768899999999348
                },
                {
                    "name": "E4",
                    "midi": 64,
                    "time": 126.31919699999807,
                    "velocity": 0.4015748031496063,
                    "duration": 0.10768899999999348
                },
                {
                    "name": "A#3",
                    "midi": 58,
                    "time": 126.42688599999806,
                    "velocity": 0.4566929133858268,
                    "duration": 0.10768899999999348
                },
                {
                    "name": "C#4",
                    "midi": 61,
                    "time": 126.42688599999806,
                    "velocity": 0.4566929133858268,
                    "duration": 0.10768899999999348
                },
                {
                    "name": "E4",
                    "midi": 64,
                    "time": 126.53457499999806,
                    "velocity": 0.4015748031496063,
                    "duration": 0.10768899999999348
                },
                {
                    "name": "A3",
                    "midi": 57,
                    "time": 126.64226399999805,
                    "velocity": 0.4566929133858268,
                    "duration": 0.10768899999999348
                },
                {
                    "name": "C4",
                    "midi": 60,
                    "time": 126.64226399999805,
                    "velocity": 0.4566929133858268,
                    "duration": 0.10768899999999348
                },
                {
                    "name": "E4",
                    "midi": 64,
                    "time": 126.74995299999804,
                    "velocity": 0.4015748031496063,
                    "duration": 0.10768899999999348
                },
                {
                    "name": "C4",
                    "midi": 60,
                    "time": 126.85764199999804,
                    "velocity": 0.4566929133858268,
                    "duration": 0.10768899999999348
                },
                {
                    "name": "A3",
                    "midi": 57,
                    "time": 126.85764199999804,
                    "velocity": 0.4566929133858268,
                    "duration": 0.10768899999999348
                },
                {
                    "name": "F4",
                    "midi": 65,
                    "time": 126.96533099999803,
                    "velocity": 0.4015748031496063,
                    "duration": 0.10768899999999348
                },
                {
                    "name": "A3",
                    "midi": 57,
                    "time": 127.07301999999802,
                    "velocity": 0.4566929133858268,
                    "duration": 0.10768899999999348
                },
                {
                    "name": "C4",
                    "midi": 60,
                    "time": 127.07301999999802,
                    "velocity": 0.4566929133858268,
                    "duration": 0.10768899999999348
                },
                {
                    "name": "F4",
                    "midi": 65,
                    "time": 127.18070899999802,
                    "velocity": 0.4015748031496063,
                    "duration": 0.10768899999999348
                },
                {
                    "name": "A3",
                    "midi": 57,
                    "time": 127.28839799999801,
                    "velocity": 0.4566929133858268,
                    "duration": 0.10768899999999348
                },
                {
                    "name": "C4",
                    "midi": 60,
                    "time": 127.28839799999801,
                    "velocity": 0.4566929133858268,
                    "duration": 0.10768899999999348
                },
                {
                    "name": "F4",
                    "midi": 65,
                    "time": 127.396086999998,
                    "velocity": 0.4015748031496063,
                    "duration": 0.10768899999999348
                },
                {
                    "name": "A3",
                    "midi": 57,
                    "time": 127.503775999998,
                    "velocity": 0.4566929133858268,
                    "duration": 0.10768899999999348
                },
                {
                    "name": "C4",
                    "midi": 60,
                    "time": 127.503775999998,
                    "velocity": 0.4566929133858268,
                    "duration": 0.10768899999999348
                },
                {
                    "name": "F4",
                    "midi": 65,
                    "time": 127.61146499999799,
                    "velocity": 0.4015748031496063,
                    "duration": 0.10768899999999348
                },
                {
                    "name": "C4",
                    "midi": 60,
                    "time": 127.71915399999799,
                    "velocity": 0.4566929133858268,
                    "duration": 0.10768899999999348
                },
                {
                    "name": "A3",
                    "midi": 57,
                    "time": 127.71915399999799,
                    "velocity": 0.4566929133858268,
                    "duration": 0.10768899999999348
                },
                {
                    "name": "F4",
                    "midi": 65,
                    "time": 127.82684299999798,
                    "velocity": 0.4015748031496063,
                    "duration": 0.10768899999999348
                },
                {
                    "name": "A3",
                    "midi": 57,
                    "time": 127.93453199999797,
                    "velocity": 0.4566929133858268,
                    "duration": 0.10768899999999348
                },
                {
                    "name": "C4",
                    "midi": 60,
                    "time": 127.93453199999797,
                    "velocity": 0.4566929133858268,
                    "duration": 0.10768899999999348
                },
                {
                    "name": "F4",
                    "midi": 65,
                    "time": 128.04222099999797,
                    "velocity": 0.4015748031496063,
                    "duration": 0.10768899999999348
                },
                {
                    "name": "A3",
                    "midi": 57,
                    "time": 128.14990999999796,
                    "velocity": 0.4566929133858268,
                    "duration": 0.10768899999999348
                },
                {
                    "name": "C4",
                    "midi": 60,
                    "time": 128.14990999999796,
                    "velocity": 0.4566929133858268,
                    "duration": 0.10768899999999348
                },
                {
                    "name": "F4",
                    "midi": 65,
                    "time": 128.25759899999795,
                    "velocity": 0.4015748031496063,
                    "duration": 0.10768899999999348
                },
                {
                    "name": "C#4",
                    "midi": 61,
                    "time": 128.36528799999795,
                    "velocity": 0.4566929133858268,
                    "duration": 0.10768899999999348
                },
                {
                    "name": "A#3",
                    "midi": 58,
                    "time": 128.36528799999795,
                    "velocity": 0.4566929133858268,
                    "duration": 0.10768899999999348
                },
                {
                    "name": "F4",
                    "midi": 65,
                    "time": 128.47297699999794,
                    "velocity": 0.4015748031496063,
                    "duration": 0.10768899999999348
                },
                {
                    "name": "E3",
                    "midi": 52,
                    "time": 128.58066599999793,
                    "velocity": 0.3464566929133858,
                    "duration": 0.10768899999999348
                },
                {
                    "name": "G3",
                    "midi": 55,
                    "time": 128.58066599999793,
                    "velocity": 0.3464566929133858,
                    "duration": 0.10768899999999348
                },
                {
                    "name": "C4",
                    "midi": 60,
                    "time": 128.68835499999793,
                    "velocity": 0.2992125984251969,
                    "duration": 0.10768899999999348
                },
                {
                    "name": "E3",
                    "midi": 52,
                    "time": 128.79604399999792,
                    "velocity": 0.3464566929133858,
                    "duration": 0.10768899999999348
                },
                {
                    "name": "G3",
                    "midi": 55,
                    "time": 128.79604399999792,
                    "velocity": 0.3464566929133858,
                    "duration": 0.10768899999999348
                },
                {
                    "name": "C4",
                    "midi": 60,
                    "time": 128.9037329999979,
                    "velocity": 0.2992125984251969,
                    "duration": 0.10768899999999348
                },
                {
                    "name": "G3",
                    "midi": 55,
                    "time": 129.0114219999979,
                    "velocity": 0.3464566929133858,
                    "duration": 0.10768899999999348
                },
                {
                    "name": "E3",
                    "midi": 52,
                    "time": 129.0114219999979,
                    "velocity": 0.3464566929133858,
                    "duration": 0.10768899999999348
                },
                {
                    "name": "C4",
                    "midi": 60,
                    "time": 129.1191109999979,
                    "velocity": 0.2992125984251969,
                    "duration": 0.10768899999999348
                },
                {
                    "name": "F3",
                    "midi": 53,
                    "time": 129.2267999999979,
                    "velocity": 0.3464566929133858,
                    "duration": 0.10768899999999348
                },
                {
                    "name": "G#3",
                    "midi": 56,
                    "time": 129.2267999999979,
                    "velocity": 0.3464566929133858,
                    "duration": 0.10768899999999348
                },
                {
                    "name": "C4",
                    "midi": 60,
                    "time": 129.3344889999979,
                    "velocity": 0.2992125984251969,
                    "duration": 0.10768899999999348
                },
                {
                    "name": "G#3",
                    "midi": 56,
                    "time": 129.44217799999788,
                    "velocity": 0.3464566929133858,
                    "duration": 0.10768899999999348
                },
                {
                    "name": "F3",
                    "midi": 53,
                    "time": 129.44217799999788,
                    "velocity": 0.3464566929133858,
                    "duration": 0.10768899999999348
                },
                {
                    "name": "D4",
                    "midi": 62,
                    "time": 129.54986699999787,
                    "velocity": 0.2992125984251969,
                    "duration": 0.10768899999999348
                },
                {
                    "name": "F3",
                    "midi": 53,
                    "time": 129.65755599999787,
                    "velocity": 0.3464566929133858,
                    "duration": 0.10768899999999348
                },
                {
                    "name": "G#3",
                    "midi": 56,
                    "time": 129.65755599999787,
                    "velocity": 0.3464566929133858,
                    "duration": 0.10768899999999348
                },
                {
                    "name": "D4",
                    "midi": 62,
                    "time": 129.76524499999786,
                    "velocity": 0.2992125984251969,
                    "duration": 0.10768899999999348
                },
                {
                    "name": "F3",
                    "midi": 53,
                    "time": 129.87293399999785,
                    "velocity": 0.3464566929133858,
                    "duration": 0.10768899999999348
                },
                {
                    "name": "G#3",
                    "midi": 56,
                    "time": 129.87293399999785,
                    "velocity": 0.3464566929133858,
                    "duration": 0.10768899999999348
                },
                {
                    "name": "D4",
                    "midi": 62,
                    "time": 129.98062299999785,
                    "velocity": 0.2992125984251969,
                    "duration": 0.10768899999999348
                },
                {
                    "name": "E3",
                    "midi": 52,
                    "time": 130.08831199999784,
                    "velocity": 0.3464566929133858,
                    "duration": 0.10768899999999348
                },
                {
                    "name": "G3",
                    "midi": 55,
                    "time": 130.08831199999784,
                    "velocity": 0.3464566929133858,
                    "duration": 0.10768899999999348
                },
                {
                    "name": "D4",
                    "midi": 62,
                    "time": 130.19600099999784,
                    "velocity": 0.2992125984251969,
                    "duration": 0.10768899999999348
                },
                {
                    "name": "G3",
                    "midi": 55,
                    "time": 130.30368999999783,
                    "velocity": 0.3464566929133858,
                    "duration": 0.10768899999999348
                },
                {
                    "name": "E3",
                    "midi": 52,
                    "time": 130.30368999999783,
                    "velocity": 0.3464566929133858,
                    "duration": 0.10768899999999348
                },
                {
                    "name": "C4",
                    "midi": 60,
                    "time": 130.41137899999782,
                    "velocity": 0.2992125984251969,
                    "duration": 0.10768899999999348
                },
                {
                    "name": "E3",
                    "midi": 52,
                    "time": 130.51906799999782,
                    "velocity": 0.3464566929133858,
                    "duration": 0.10768899999999348
                },
                {
                    "name": "G3",
                    "midi": 55,
                    "time": 130.51906799999782,
                    "velocity": 0.3464566929133858,
                    "duration": 0.10768899999999348
                },
                {
                    "name": "C4",
                    "midi": 60,
                    "time": 130.6267569999978,
                    "velocity": 0.2992125984251969,
                    "duration": 0.10768899999999348
                },
                {
                    "name": "E3",
                    "midi": 52,
                    "time": 130.7344459999978,
                    "velocity": 0.3464566929133858,
                    "duration": 0.10768899999999348
                },
                {
                    "name": "G3",
                    "midi": 55,
                    "time": 130.7344459999978,
                    "velocity": 0.3464566929133858,
                    "duration": 0.10768899999999348
                },
                {
                    "name": "C4",
                    "midi": 60,
                    "time": 130.8421349999978,
                    "velocity": 0.2992125984251969,
                    "duration": 0.10768899999999348
                },
                {
                    "name": "E3",
                    "midi": 52,
                    "time": 130.9498239999978,
                    "velocity": 0.3464566929133858,
                    "duration": 0.10768899999999348
                },
                {
                    "name": "G3",
                    "midi": 55,
                    "time": 130.9498239999978,
                    "velocity": 0.3464566929133858,
                    "duration": 0.10768899999999348
                },
                {
                    "name": "C4",
                    "midi": 60,
                    "time": 131.05751299999778,
                    "velocity": 0.2992125984251969,
                    "duration": 0.10768899999999348
                },
                {
                    "name": "G3",
                    "midi": 55,
                    "time": 131.16520199999778,
                    "velocity": 0.3464566929133858,
                    "duration": 0.10768899999999348
                },
                {
                    "name": "E3",
                    "midi": 52,
                    "time": 131.16520199999778,
                    "velocity": 0.3464566929133858,
                    "duration": 0.10768899999999348
                },
                {
                    "name": "C4",
                    "midi": 60,
                    "time": 131.27289099999777,
                    "velocity": 0.2992125984251969,
                    "duration": 0.10768899999999348
                },
                {
                    "name": "E3",
                    "midi": 52,
                    "time": 131.38057999999776,
                    "velocity": 0.3464566929133858,
                    "duration": 0.10768899999999348
                },
                {
                    "name": "G3",
                    "midi": 55,
                    "time": 131.38057999999776,
                    "velocity": 0.3464566929133858,
                    "duration": 0.10768899999999348
                },
                {
                    "name": "C4",
                    "midi": 60,
                    "time": 131.48826899999776,
                    "velocity": 0.2992125984251969,
                    "duration": 0.10768899999999348
                },
                {
                    "name": "E3",
                    "midi": 52,
                    "time": 131.59595799999775,
                    "velocity": 0.3464566929133858,
                    "duration": 0.10768899999999348
                },
                {
                    "name": "G3",
                    "midi": 55,
                    "time": 131.59595799999775,
                    "velocity": 0.3464566929133858,
                    "duration": 0.10768899999999348
                },
                {
                    "name": "C4",
                    "midi": 60,
                    "time": 131.70364699999774,
                    "velocity": 0.2992125984251969,
                    "duration": 0.10768899999999348
                },
                {
                    "name": "G#3",
                    "midi": 56,
                    "time": 131.81133599999774,
                    "velocity": 0.3464566929133858,
                    "duration": 0.10768899999999348
                },
                {
                    "name": "F3",
                    "midi": 53,
                    "time": 131.81133599999774,
                    "velocity": 0.3464566929133858,
                    "duration": 0.10768899999999348
                },
                {
                    "name": "C4",
                    "midi": 60,
                    "time": 131.91902499999773,
                    "velocity": 0.2992125984251969,
                    "duration": 0.10768899999999348
                },
                {
                    "name": "G#3",
                    "midi": 56,
                    "time": 132.02671399999772,
                    "velocity": 0.4566929133858268,
                    "duration": 0.10768899999999348
                },
                {
                    "name": "F3",
                    "midi": 53,
                    "time": 132.02671399999772,
                    "velocity": 0.4566929133858268,
                    "duration": 0.10768899999999348
                },
                {
                    "name": "C4",
                    "midi": 60,
                    "time": 132.13440299999772,
                    "velocity": 0.4015748031496063,
                    "duration": 0.10768899999999348
                },
                {
                    "name": "G#3",
                    "midi": 56,
                    "time": 132.2420919999977,
                    "velocity": 0.4566929133858268,
                    "duration": 0.10768899999999348
                },
                {
                    "name": "F3",
                    "midi": 53,
                    "time": 132.2420919999977,
                    "velocity": 0.4566929133858268,
                    "duration": 0.10768899999999348
                },
                {
                    "name": "C4",
                    "midi": 60,
                    "time": 132.3497809999977,
                    "velocity": 0.4015748031496063,
                    "duration": 0.10768899999999348
                },
                {
                    "name": "G#3",
                    "midi": 56,
                    "time": 132.4574699999977,
                    "velocity": 0.4566929133858268,
                    "duration": 0.10768899999999348
                },
                {
                    "name": "F3",
                    "midi": 53,
                    "time": 132.4574699999977,
                    "velocity": 0.4566929133858268,
                    "duration": 0.10768899999999348
                },
                {
                    "name": "C4",
                    "midi": 60,
                    "time": 132.5651589999977,
                    "velocity": 0.4015748031496063,
                    "duration": 0.10768899999999348
                },
                {
                    "name": "G#3",
                    "midi": 56,
                    "time": 132.67284799999769,
                    "velocity": 0.4566929133858268,
                    "duration": 0.10768899999999348
                },
                {
                    "name": "F3",
                    "midi": 53,
                    "time": 132.67284799999769,
                    "velocity": 0.4566929133858268,
                    "duration": 0.10768899999999348
                },
                {
                    "name": "C4",
                    "midi": 60,
                    "time": 132.78053699999768,
                    "velocity": 0.4015748031496063,
                    "duration": 0.10768899999999348
                },
                {
                    "name": "G#3",
                    "midi": 56,
                    "time": 132.88822599999767,
                    "velocity": 0.4566929133858268,
                    "duration": 0.10768899999999348
                },
                {
                    "name": "F3",
                    "midi": 53,
                    "time": 132.88822599999767,
                    "velocity": 0.4566929133858268,
                    "duration": 0.10768899999999348
                },
                {
                    "name": "D4",
                    "midi": 62,
                    "time": 132.99591499999767,
                    "velocity": 0.4015748031496063,
                    "duration": 0.10768899999999348
                },
                {
                    "name": "G#3",
                    "midi": 56,
                    "time": 133.10360399999766,
                    "velocity": 0.4566929133858268,
                    "duration": 0.10768899999999348
                },
                {
                    "name": "F3",
                    "midi": 53,
                    "time": 133.10360399999766,
                    "velocity": 0.4566929133858268,
                    "duration": 0.10768899999999348
                },
                {
                    "name": "D4",
                    "midi": 62,
                    "time": 133.21129299999765,
                    "velocity": 0.4015748031496063,
                    "duration": 0.10768899999999348
                },
                {
                    "name": "F3",
                    "midi": 53,
                    "time": 133.31898199999765,
                    "velocity": 0.4566929133858268,
                    "duration": 0.10768899999999348
                },
                {
                    "name": "G#3",
                    "midi": 56,
                    "time": 133.31898199999765,
                    "velocity": 0.4566929133858268,
                    "duration": 0.10768899999999348
                },
                {
                    "name": "D4",
                    "midi": 62,
                    "time": 133.42667099999764,
                    "velocity": 0.4015748031496063,
                    "duration": 0.10768899999999348
                },
                {
                    "name": "G3",
                    "midi": 55,
                    "time": 133.53435999999763,
                    "velocity": 0.4566929133858268,
                    "duration": 0.10768899999999348
                },
                {
                    "name": "E3",
                    "midi": 52,
                    "time": 133.53435999999763,
                    "velocity": 0.4566929133858268,
                    "duration": 0.10768899999999348
                },
                {
                    "name": "D4",
                    "midi": 62,
                    "time": 133.64204899999763,
                    "velocity": 0.4015748031496063,
                    "duration": 0.10768899999999348
                },
                {
                    "name": "E3",
                    "midi": 52,
                    "time": 133.74973799999762,
                    "velocity": 0.4566929133858268,
                    "duration": 0.10768899999999348
                },
                {
                    "name": "G3",
                    "midi": 55,
                    "time": 133.74973799999762,
                    "velocity": 0.4566929133858268,
                    "duration": 0.10768899999999348
                },
                {
                    "name": "C4",
                    "midi": 60,
                    "time": 133.8574269999976,
                    "velocity": 0.4015748031496063,
                    "duration": 0.10768899999999348
                },
                {
                    "name": "E3",
                    "midi": 52,
                    "time": 133.9651159999976,
                    "velocity": 0.4566929133858268,
                    "duration": 0.10768899999999348
                },
                {
                    "name": "G3",
                    "midi": 55,
                    "time": 133.9651159999976,
                    "velocity": 0.4566929133858268,
                    "duration": 0.10768899999999348
                },
                {
                    "name": "C4",
                    "midi": 60,
                    "time": 134.0728049999976,
                    "velocity": 0.4015748031496063,
                    "duration": 0.10768899999999348
                },
                {
                    "name": "E3",
                    "midi": 52,
                    "time": 134.1804939999976,
                    "velocity": 0.4566929133858268,
                    "duration": 0.10768899999999348
                },
                {
                    "name": "G3",
                    "midi": 55,
                    "time": 134.1804939999976,
                    "velocity": 0.4566929133858268,
                    "duration": 0.10768899999999348
                },
                {
                    "name": "C4",
                    "midi": 60,
                    "time": 134.2881829999976,
                    "velocity": 0.4015748031496063,
                    "duration": 0.10768899999999348
                },
                {
                    "name": "G3",
                    "midi": 55,
                    "time": 134.39587199999758,
                    "velocity": 0.4566929133858268,
                    "duration": 0.10768899999999348
                },
                {
                    "name": "E3",
                    "midi": 52,
                    "time": 134.39587199999758,
                    "velocity": 0.4566929133858268,
                    "duration": 0.10768899999999348
                },
                {
                    "name": "C4",
                    "midi": 60,
                    "time": 134.50356099999757,
                    "velocity": 0.4015748031496063,
                    "duration": 0.10768899999999348
                },
                {
                    "name": "G3",
                    "midi": 55,
                    "time": 134.61124999999757,
                    "velocity": 0.4566929133858268,
                    "duration": 0.10768899999999348
                },
                {
                    "name": "E3",
                    "midi": 52,
                    "time": 134.61124999999757,
                    "velocity": 0.4566929133858268,
                    "duration": 0.10768899999999348
                },
                {
                    "name": "C4",
                    "midi": 60,
                    "time": 134.71893899999756,
                    "velocity": 0.4015748031496063,
                    "duration": 0.10768899999999348
                },
                {
                    "name": "G3",
                    "midi": 55,
                    "time": 134.82662799999756,
                    "velocity": 0.4566929133858268,
                    "duration": 0.10768899999999348
                },
                {
                    "name": "E3",
                    "midi": 52,
                    "time": 134.82662799999756,
                    "velocity": 0.4566929133858268,
                    "duration": 0.10768899999999348
                },
                {
                    "name": "C4",
                    "midi": 60,
                    "time": 134.93431699999755,
                    "velocity": 0.4015748031496063,
                    "duration": 0.10768899999999348
                },
                {
                    "name": "G3",
                    "midi": 55,
                    "time": 135.04200599999754,
                    "velocity": 0.4566929133858268,
                    "duration": 0.10768899999999348
                },
                {
                    "name": "E3",
                    "midi": 52,
                    "time": 135.04200599999754,
                    "velocity": 0.4566929133858268,
                    "duration": 0.10768899999999348
                },
                {
                    "name": "C4",
                    "midi": 60,
                    "time": 135.14969499999754,
                    "velocity": 0.4015748031496063,
                    "duration": 0.10768899999999348
                },
                {
                    "name": "G#2",
                    "midi": 44,
                    "time": 135.25738399999753,
                    "velocity": 0.48031496062992124,
                    "duration": 0.43075600000000236
                },
                {
                    "name": "C3",
                    "midi": 48,
                    "time": 135.25738399999753,
                    "velocity": 0.48031496062992124,
                    "duration": 0.43075600000000236
                },
                {
                    "name": "F3",
                    "midi": 53,
                    "time": 135.25738399999753,
                    "velocity": 0.5669291338582677,
                    "duration": 0.43075600000000236
                },
                {
                    "name": "F2",
                    "midi": 41,
                    "time": 135.25738399999753,
                    "velocity": 0.48031496062992124,
                    "duration": 0.43075600000000236
                },
                {
                    "name": "C3",
                    "midi": 48,
                    "time": 135.79582899999752,
                    "velocity": 0.4409448818897638,
                    "duration": 0.10768899999999348
                },
                {
                    "name": "F3",
                    "midi": 53,
                    "time": 135.90351799999752,
                    "velocity": 0.4566929133858268,
                    "duration": 0.10768899999999348
                },
                {
                    "name": "G#3",
                    "midi": 56,
                    "time": 136.0112069999975,
                    "velocity": 0.47244094488188976,
                    "duration": 0.10768899999999348
                },
                {
                    "name": "C4",
                    "midi": 60,
                    "time": 136.1188959999975,
                    "velocity": 0.5196850393700787,
                    "duration": 0.10768899999999348
                },
                {
                    "name": "C#4",
                    "midi": 61,
                    "time": 136.2265849999975,
                    "velocity": 0.47244094488188976,
                    "duration": 0.10768899999999348
                },
                {
                    "name": "C4",
                    "midi": 60,
                    "time": 136.3342739999975,
                    "velocity": 0.48031496062992124,
                    "duration": 0.10768899999999348
                },
                {
                    "name": "A#3",
                    "midi": 58,
                    "time": 136.4419629999975,
                    "velocity": 0.48031496062992124,
                    "duration": 0.10768899999999348
                },
                {
                    "name": "G#3",
                    "midi": 56,
                    "time": 136.54965199999748,
                    "velocity": 0.5275590551181102,
                    "duration": 0.10768899999999348
                },
                {
                    "name": "A#3",
                    "midi": 58,
                    "time": 136.65734099999747,
                    "velocity": 0.47244094488188976,
                    "duration": 0.10768899999999348
                },
                {
                    "name": "C4",
                    "midi": 60,
                    "time": 136.76502999999747,
                    "velocity": 0.47244094488188976,
                    "duration": 0.10768899999999348
                },
                {
                    "name": "G#3",
                    "midi": 56,
                    "time": 136.87271899999746,
                    "velocity": 0.47244094488188976,
                    "duration": 0.10768899999999348
                },
                {
                    "name": "A#3",
                    "midi": 58,
                    "time": 136.98040799999745,
                    "velocity": 0.5669291338582677,
                    "duration": 0.10768899999999348
                },
                {
                    "name": "C4",
                    "midi": 60,
                    "time": 137.08809699999745,
                    "velocity": 0.47244094488188976,
                    "duration": 0.10768899999999348
                },
                {
                    "name": "A#3",
                    "midi": 58,
                    "time": 137.19578599999744,
                    "velocity": 0.47244094488188976,
                    "duration": 0.10768899999999348
                },
                {
                    "name": "G#3",
                    "midi": 56,
                    "time": 137.30347499999743,
                    "velocity": 0.47244094488188976,
                    "duration": 0.10768899999999348
                },
                {
                    "name": "F#3",
                    "midi": 54,
                    "time": 137.41116399999743,
                    "velocity": 0.5354330708661418,
                    "duration": 0.10768899999999348
                },
                {
                    "name": "C#3",
                    "midi": 49,
                    "time": 137.51885299999742,
                    "velocity": 0.44881889763779526,
                    "duration": 0.10768899999999348
                },
                {
                    "name": "F#3",
                    "midi": 54,
                    "time": 137.62654199999741,
                    "velocity": 0.47244094488188976,
                    "duration": 0.10768899999999348
                },
                {
                    "name": "A#3",
                    "midi": 58,
                    "time": 137.7342309999974,
                    "velocity": 0.4881889763779528,
                    "duration": 0.10768899999999348
                },
                {
                    "name": "C#4",
                    "midi": 61,
                    "time": 137.8419199999974,
                    "velocity": 0.5433070866141733,
                    "duration": 0.10768899999999348
                },
                {
                    "name": "D#4",
                    "midi": 63,
                    "time": 137.9496089999974,
                    "velocity": 0.49606299212598426,
                    "duration": 0.10768899999999348
                },
                {
                    "name": "C#4",
                    "midi": 61,
                    "time": 138.0572979999974,
                    "velocity": 0.49606299212598426,
                    "duration": 0.10768899999999348
                },
                {
                    "name": "C4",
                    "midi": 60,
                    "time": 138.16498699999738,
                    "velocity": 0.49606299212598426,
                    "duration": 0.10768899999999348
                },
                {
                    "name": "A#3",
                    "midi": 58,
                    "time": 138.27267599999738,
                    "velocity": 0.5433070866141733,
                    "duration": 0.10768899999999348
                },
                {
                    "name": "C4",
                    "midi": 60,
                    "time": 138.38036499999737,
                    "velocity": 0.4881889763779528,
                    "duration": 0.10768899999999348
                },
                {
                    "name": "C#4",
                    "midi": 61,
                    "time": 138.48805399999736,
                    "velocity": 0.4881889763779528,
                    "duration": 0.10768899999999348
                },
                {
                    "name": "A#3",
                    "midi": 58,
                    "time": 138.59574299999736,
                    "velocity": 0.4881889763779528,
                    "duration": 0.10768899999999348
                },
                {
                    "name": "C4",
                    "midi": 60,
                    "time": 138.70343199999735,
                    "velocity": 0.5826771653543307,
                    "duration": 0.10768899999999348
                },
                {
                    "name": "C#4",
                    "midi": 61,
                    "time": 138.81112099999734,
                    "velocity": 0.4881889763779528,
                    "duration": 0.10768899999999348
                },
                {
                    "name": "C4",
                    "midi": 60,
                    "time": 138.91880999999734,
                    "velocity": 0.49606299212598426,
                    "duration": 0.10768899999999348
                },
                {
                    "name": "A#3",
                    "midi": 58,
                    "time": 139.02649899999733,
                    "velocity": 0.49606299212598426,
                    "duration": 0.10768899999999348
                },
                {
                    "name": "A3",
                    "midi": 57,
                    "time": 139.13418799999732,
                    "velocity": 0.5511811023622047,
                    "duration": 0.10768899999999348
                },
                {
                    "name": "D#3",
                    "midi": 51,
                    "time": 139.24187699999732,
                    "velocity": 0.4645669291338583,
                    "duration": 0.10768899999999348
                },
                {
                    "name": "A3",
                    "midi": 57,
                    "time": 139.3495659999973,
                    "velocity": 0.4881889763779528,
                    "duration": 0.10768899999999348
                },
                {
                    "name": "C4",
                    "midi": 60,
                    "time": 139.4572549999973,
                    "velocity": 0.5118110236220472,
                    "duration": 0.10768899999999348
                },
                {
                    "name": "D#4",
                    "midi": 63,
                    "time": 139.5649439999973,
                    "velocity": 0.5590551181102362,
                    "duration": 0.10768899999999348
                },
                {
                    "name": "F4",
                    "midi": 65,
                    "time": 139.6726329999973,
                    "velocity": 0.5118110236220472,
                    "duration": 0.10768899999999348
                },
                {
                    "name": "D#4",
                    "midi": 63,
                    "time": 139.78032199999728,
                    "velocity": 0.5118110236220472,
                    "duration": 0.10768899999999348
                },
                {
                    "name": "C#4",
                    "midi": 61,
                    "time": 139.88801099999728,
                    "velocity": 0.5118110236220472,
                    "duration": 0.10768899999999348
                },
                {
                    "name": "C4",
                    "midi": 60,
                    "time": 139.99569999999727,
                    "velocity": 0.5669291338582677,
                    "duration": 0.10768899999999348
                },
                {
                    "name": "C#4",
                    "midi": 61,
                    "time": 140.10338899999726,
                    "velocity": 0.5039370078740157,
                    "duration": 0.10768899999999348
                },
                {
                    "name": "D#4",
                    "midi": 63,
                    "time": 140.21107799999726,
                    "velocity": 0.5039370078740157,
                    "duration": 0.10768899999999348
                },
                {
                    "name": "C4",
                    "midi": 60,
                    "time": 140.31876699999725,
                    "velocity": 0.5039370078740157,
                    "duration": 0.10768899999999348
                },
                {
                    "name": "C#4",
                    "midi": 61,
                    "time": 140.42645599999724,
                    "velocity": 0.5511811023622047,
                    "duration": 0.10768899999999348
                },
                {
                    "name": "F3",
                    "midi": 53,
                    "time": 140.53414499999724,
                    "velocity": 0.4645669291338583,
                    "duration": 0.10768899999999348
                },
                {
                    "name": "A#3",
                    "midi": 58,
                    "time": 140.64183399999723,
                    "velocity": 0.49606299212598426,
                    "duration": 0.10768899999999348
                },
                {
                    "name": "C#4",
                    "midi": 61,
                    "time": 140.74952299999723,
                    "velocity": 0.5196850393700787,
                    "duration": 0.10768899999999348
                },
                {
                    "name": "F4",
                    "midi": 65,
                    "time": 140.85721199999722,
                    "velocity": 0.5118110236220472,
                    "duration": 0.10768899999999348
                },
                {
                    "name": "F#4",
                    "midi": 66,
                    "time": 140.9649009999972,
                    "velocity": 0.5118110236220472,
                    "duration": 0.10768899999999348
                },
                {
                    "name": "F4",
                    "midi": 65,
                    "time": 141.0725899999972,
                    "velocity": 0.5118110236220472,
                    "duration": 0.10768899999999348
                },
                {
                    "name": "D#4",
                    "midi": 63,
                    "time": 141.1802789999972,
                    "velocity": 0.5039370078740157,
                    "duration": 0.10768899999999348
                },
                {
                    "name": "C#4",
                    "midi": 61,
                    "time": 141.2879679999972,
                    "velocity": 0.5039370078740157,
                    "duration": 0.10768899999999348
                },
                {
                    "name": "C4",
                    "midi": 60,
                    "time": 141.3956569999972,
                    "velocity": 0.5039370078740157,
                    "duration": 0.10768899999999348
                },
                {
                    "name": "A#3",
                    "midi": 58,
                    "time": 141.50334599999718,
                    "velocity": 0.49606299212598426,
                    "duration": 0.10768899999999348
                },
                {
                    "name": "G#3",
                    "midi": 56,
                    "time": 141.61103499999717,
                    "velocity": 0.49606299212598426,
                    "duration": 0.10768899999999348
                },
                {
                    "name": "F#3",
                    "midi": 54,
                    "time": 141.71872399999717,
                    "velocity": 0.4881889763779528,
                    "duration": 0.10768899999999348
                },
                {
                    "name": "F3",
                    "midi": 53,
                    "time": 141.82641299999716,
                    "velocity": 0.4881889763779528,
                    "duration": 0.10768899999999348
                },
                {
                    "name": "D#3",
                    "midi": 51,
                    "time": 141.93410199999715,
                    "velocity": 0.4881889763779528,
                    "duration": 0.10768899999999348
                },
                {
                    "name": "C#3",
                    "midi": 49,
                    "time": 142.04179099999715,
                    "velocity": 0.48031496062992124,
                    "duration": 0.10768899999999348
                },
                {
                    "name": "C3",
                    "midi": 48,
                    "time": 142.14947999999714,
                    "velocity": 0.48031496062992124,
                    "duration": 0.10768899999999348
                },
                {
                    "name": "A#2",
                    "midi": 46,
                    "time": 142.25716899999713,
                    "velocity": 0.48031496062992124,
                    "duration": 0.10768899999999348
                },
                {
                    "name": "G#2",
                    "midi": 44,
                    "time": 142.36485799999713,
                    "velocity": 0.47244094488188976,
                    "duration": 0.10768899999999348
                },
                {
                    "name": "F#2",
                    "midi": 42,
                    "time": 142.47254699999712,
                    "velocity": 0.47244094488188976,
                    "duration": 0.10768899999999348
                },
                {
                    "name": "F2",
                    "midi": 41,
                    "time": 142.58023599999711,
                    "velocity": 0.4645669291338583,
                    "duration": 0.10768899999999348
                },
                {
                    "name": "D#2",
                    "midi": 39,
                    "time": 142.6879249999971,
                    "velocity": 0.4645669291338583,
                    "duration": 0.10768899999999348
                },
                {
                    "name": "C#2",
                    "midi": 37,
                    "time": 142.7956139999971,
                    "velocity": 0.4645669291338583,
                    "duration": 0.10768899999999348
                },
                {
                    "name": "C2",
                    "midi": 36,
                    "time": 142.9033029999971,
                    "velocity": 0.4645669291338583,
                    "duration": 0.10768899999999348
                },
                {
                    "name": "A#1",
                    "midi": 34,
                    "time": 143.0109919999971,
                    "velocity": 0.4645669291338583,
                    "duration": 0.10768899999999348
                },
                {
                    "name": "C2",
                    "midi": 36,
                    "time": 143.11868099999708,
                    "velocity": 0.4645669291338583,
                    "duration": 0.10768899999999348
                },
                {
                    "name": "C#2",
                    "midi": 37,
                    "time": 143.22636999999708,
                    "velocity": 0.4881889763779528,
                    "duration": 0.10768899999999348
                },
                {
                    "name": "C2",
                    "midi": 36,
                    "time": 143.33405899999707,
                    "velocity": 0.5039370078740157,
                    "duration": 0.10768899999999348
                },
                {
                    "name": "A#1",
                    "midi": 34,
                    "time": 143.44174799999706,
                    "velocity": 0.5118110236220472,
                    "duration": 0.21537799999998697
                },
                {
                    "name": "B1",
                    "midi": 35,
                    "time": 143.65712599999705,
                    "velocity": 0.5669291338582677,
                    "duration": 0.21537799999998697
                },
                {
                    "name": "C2",
                    "midi": 36,
                    "time": 143.87250399999704,
                    "velocity": 0.7007874015748031,
                    "duration": 0.10768899999999348
                },
                {
                    "name": "E2",
                    "midi": 40,
                    "time": 144.08788199999702,
                    "velocity": 0.5984251968503937,
                    "duration": 0.10768899999999348
                },
                {
                    "name": "C2",
                    "midi": 36,
                    "time": 144.303259999997,
                    "velocity": 0.5984251968503937,
                    "duration": 0.10768899999999348
                },
                {
                    "name": "F2",
                    "midi": 41,
                    "time": 144.518637999997,
                    "velocity": 0.5984251968503937,
                    "duration": 0.10768899999999348
                },
                {
                    "name": "C2",
                    "midi": 36,
                    "time": 144.73401599999698,
                    "velocity": 0.5984251968503937,
                    "duration": 0.10768899999999348
                },
                {
                    "name": "G2",
                    "midi": 43,
                    "time": 144.94939399999697,
                    "velocity": 0.5984251968503937,
                    "duration": 0.10768899999999348
                },
                {
                    "name": "C2",
                    "midi": 36,
                    "time": 145.16477199999696,
                    "velocity": 0.5984251968503937,
                    "duration": 0.10768899999999348
                },
                {
                    "name": "G#2",
                    "midi": 44,
                    "time": 145.38014999999695,
                    "velocity": 0.5984251968503937,
                    "duration": 0.10768899999999348
                },
                {
                    "name": "C2",
                    "midi": 36,
                    "time": 145.59552799999693,
                    "velocity": 0.5826771653543307,
                    "duration": 0.10768899999999348
                },
                {
                    "name": "A#2",
                    "midi": 46,
                    "time": 145.81090599999692,
                    "velocity": 0.5826771653543307,
                    "duration": 0.10768899999999348
                },
                {
                    "name": "C2",
                    "midi": 36,
                    "time": 146.0262839999969,
                    "velocity": 0.5905511811023622,
                    "duration": 0.10768899999999348
                },
                {
                    "name": "G#2",
                    "midi": 44,
                    "time": 146.2416619999969,
                    "velocity": 0.5984251968503937,
                    "duration": 0.10768899999999348
                },
                {
                    "name": "C2",
                    "midi": 36,
                    "time": 146.45703999999688,
                    "velocity": 0.6062992125984252,
                    "duration": 0.10768899999999348
                },
                {
                    "name": "G2",
                    "midi": 43,
                    "time": 146.67241799999687,
                    "velocity": 0.6141732283464567,
                    "duration": 0.10768899999999348
                },
                {
                    "name": "C2",
                    "midi": 36,
                    "time": 146.88779599999685,
                    "velocity": 0.6220472440944882,
                    "duration": 0.10768899999999348
                },
                {
                    "name": "F2",
                    "midi": 41,
                    "time": 147.10317399999684,
                    "velocity": 0.6299212598425197,
                    "duration": 0.10768899999999348
                },
                {
                    "name": "C2",
                    "midi": 36,
                    "time": 147.31855199999683,
                    "velocity": 0.6377952755905512,
                    "duration": 0.10768899999999348
                },
                {
                    "name": "E2",
                    "midi": 40,
                    "time": 147.53392999999681,
                    "velocity": 0.6456692913385826,
                    "duration": 0.10768899999999348
                },
                {
                    "name": "C2",
                    "midi": 36,
                    "time": 147.7493079999968,
                    "velocity": 0.6456692913385826,
                    "duration": 0.10768899999999348
                },
                {
                    "name": "F2",
                    "midi": 41,
                    "time": 147.9646859999968,
                    "velocity": 0.6535433070866141,
                    "duration": 0.10768899999999348
                },
                {
                    "name": "C2",
                    "midi": 36,
                    "time": 148.18006399999678,
                    "velocity": 0.6614173228346457,
                    "duration": 0.10768899999999348
                },
                {
                    "name": "G2",
                    "midi": 43,
                    "time": 148.39544199999676,
                    "velocity": 0.6692913385826772,
                    "duration": 0.10768899999999348
                },
                {
                    "name": "C2",
                    "midi": 36,
                    "time": 148.61081999999675,
                    "velocity": 0.6771653543307087,
                    "duration": 0.10768899999999348
                },
                {
                    "name": "G#2",
                    "midi": 44,
                    "time": 148.82619799999674,
                    "velocity": 0.6850393700787402,
                    "duration": 0.10768899999999348
                },
                {
                    "name": "C2",
                    "midi": 36,
                    "time": 149.04157599999672,
                    "velocity": 0.6929133858267716,
                    "duration": 0.10768899999999348
                },
                {
                    "name": "A2",
                    "midi": 45,
                    "time": 149.2569539999967,
                    "velocity": 0.7007874015748031,
                    "duration": 0.10768899999999348
                },
                {
                    "name": "C2",
                    "midi": 36,
                    "time": 149.4723319999967,
                    "velocity": 0.7165354330708661,
                    "duration": 0.10768899999999348
                },
                {
                    "name": "A#2",
                    "midi": 46,
                    "time": 149.68770999999668,
                    "velocity": 0.7244094488188977,
                    "duration": 0.10768899999999348
                },
                {
                    "name": "C2",
                    "midi": 36,
                    "time": 149.90308799999667,
                    "velocity": 0.7401574803149606,
                    "duration": 0.10768899999999348
                },
                {
                    "name": "B2",
                    "midi": 47,
                    "time": 150.11846599999666,
                    "velocity": 0.7559055118110236,
                    "duration": 0.10768899999999348
                },
                {
                    "name": "C2",
                    "midi": 36,
                    "time": 150.33384399999665,
                    "velocity": 0.7795275590551181,
                    "duration": 0.10768899999999348
                },
                {
                    "name": "C3",
                    "midi": 48,
                    "time": 150.54922199999663,
                    "velocity": 0.7952755905511811,
                    "duration": 0.10768899999999348
                },
                {
                    "name": "A#1",
                    "midi": 34,
                    "time": 150.76459999999662,
                    "velocity": 0.6771653543307087,
                    "duration": 0.21537799999998697
                },
                {
                    "name": "F#2",
                    "midi": 42,
                    "time": 150.76459999999662,
                    "velocity": 0.6771653543307087,
                    "duration": 0.21537799999998697
                },
                {
                    "name": "C#2",
                    "midi": 37,
                    "time": 150.76459999999662,
                    "velocity": 0.6771653543307087,
                    "duration": 0.21537799999998697
                },
                {
                    "name": "A#2",
                    "midi": 46,
                    "time": 150.76459999999662,
                    "velocity": 0.8031496062992126,
                    "duration": 0.21537799999998697
                },
                {
                    "name": "C#3",
                    "midi": 49,
                    "time": 150.8722889999966,
                    "velocity": 0.5669291338582677,
                    "duration": 0.10768899999999348
                },
                {
                    "name": "F#3",
                    "midi": 54,
                    "time": 150.9799779999966,
                    "velocity": 0.5905511811023622,
                    "duration": 0.10768899999999348
                },
                {
                    "name": "A#3",
                    "midi": 58,
                    "time": 151.0876669999966,
                    "velocity": 0.5984251968503937,
                    "duration": 0.10768899999999348
                },
                {
                    "name": "C#4",
                    "midi": 61,
                    "time": 151.1953559999966,
                    "velocity": 0.7086614173228346,
                    "duration": 0.10768899999999348
                },
                {
                    "name": "A#2",
                    "midi": 46,
                    "time": 151.3030449999966,
                    "velocity": 0.5590551181102362,
                    "duration": 0.10768899999999348
                },
                {
                    "name": "C#3",
                    "midi": 49,
                    "time": 151.41073399999658,
                    "velocity": 0.5826771653543307,
                    "duration": 0.10768899999999348
                },
                {
                    "name": "F#3",
                    "midi": 54,
                    "time": 151.51842299999657,
                    "velocity": 0.5984251968503937,
                    "duration": 0.10768899999999348
                },
                {
                    "name": "A#3",
                    "midi": 58,
                    "time": 151.62611199999657,
                    "velocity": 0.7165354330708661,
                    "duration": 0.10768899999999348
                },
                {
                    "name": "A#3",
                    "midi": 58,
                    "time": 152.16455699999656,
                    "velocity": 0.5748031496062992,
                    "duration": 0.10768899999999348
                },
                {
                    "name": "C#4",
                    "midi": 61,
                    "time": 152.27224599999656,
                    "velocity": 0.5984251968503937,
                    "duration": 0.10768899999999348
                },
                {
                    "name": "F#4",
                    "midi": 66,
                    "time": 152.37993499999655,
                    "velocity": 0.6141732283464567,
                    "duration": 0.10768899999999348
                },
                {
                    "name": "A#4",
                    "midi": 70,
                    "time": 152.48762399999654,
                    "velocity": 0.6771653543307087,
                    "duration": 0.10768899999999348
                },
                {
                    "name": "C2",
                    "midi": 36,
                    "time": 154.21064799999652,
                    "velocity": 0.6220472440944882,
                    "duration": 0.21537799999998697
                },
                {
                    "name": "A#2",
                    "midi": 46,
                    "time": 154.21064799999652,
                    "velocity": 0.7401574803149606,
                    "duration": 0.21537799999998697
                },
                {
                    "name": "G2",
                    "midi": 43,
                    "time": 154.21064799999652,
                    "velocity": 0.6220472440944882,
                    "duration": 0.21537799999998697
                },
                {
                    "name": "C3",
                    "midi": 48,
                    "time": 154.21064799999652,
                    "velocity": 0.7637795275590551,
                    "duration": 0.21537799999998697
                },
                {
                    "name": "E3",
                    "midi": 52,
                    "time": 154.31833699999652,
                    "velocity": 0.5669291338582677,
                    "duration": 0.10768899999999348
                },
                {
                    "name": "G3",
                    "midi": 55,
                    "time": 154.4260259999965,
                    "velocity": 0.5905511811023622,
                    "duration": 0.10768899999999348
                },
                {
                    "name": "A#3",
                    "midi": 58,
                    "time": 154.5337149999965,
                    "velocity": 0.5984251968503937,
                    "duration": 0.10768899999999348
                },
                {
                    "name": "C3",
                    "midi": 48,
                    "time": 154.7490929999965,
                    "velocity": 0.5590551181102362,
                    "duration": 0.10768899999999348
                },
                {
                    "name": "G3",
                    "midi": 55,
                    "time": 154.85678199999649,
                    "velocity": 0.5826771653543307,
                    "duration": 0.10768899999999348
                },
                {
                    "name": "A#3",
                    "midi": 58,
                    "time": 154.96447099999648,
                    "velocity": 0.5984251968503937,
                    "duration": 0.10768899999999348
                },
                {
                    "name": "C4",
                    "midi": 60,
                    "time": 155.07215999999647,
                    "velocity": 0.7086614173228346,
                    "duration": 0.10768899999999348
                },
                {
                    "name": "C4",
                    "midi": 60,
                    "time": 155.61060499999647,
                    "velocity": 0.5748031496062992,
                    "duration": 0.10768899999999348
                },
                {
                    "name": "G4",
                    "midi": 67,
                    "time": 155.71829399999646,
                    "velocity": 0.5984251968503937,
                    "duration": 0.10768899999999348
                },
                {
                    "name": "A#4",
                    "midi": 70,
                    "time": 155.82598299999646,
                    "velocity": 0.6141732283464567,
                    "duration": 0.10768899999999348
                },
                {
                    "name": "C5",
                    "midi": 72,
                    "time": 155.93367199999645,
                    "velocity": 0.7007874015748031,
                    "duration": 0.10768899999999348
                },
                {
                    "name": "C#2",
                    "midi": 37,
                    "time": 157.65669599999643,
                    "velocity": 0.4566929133858268,
                    "duration": 0.14358533333333412
                },
                {
                    "name": "C#3",
                    "midi": 49,
                    "time": 157.80028133332976,
                    "velocity": 0.3937007874015748,
                    "duration": 0.14358533333333412
                },
                {
                    "name": "E3",
                    "midi": 52,
                    "time": 157.9438666666631,
                    "velocity": 0.3937007874015748,
                    "duration": 0.14358533333333412
                },
                {
                    "name": "G3",
                    "midi": 55,
                    "time": 158.08745199999643,
                    "velocity": 0.3937007874015748,
                    "duration": 0.10768899999999348
                },
                {
                    "name": "A#3",
                    "midi": 58,
                    "time": 158.19514099999643,
                    "velocity": 0.4251968503937008,
                    "duration": 0.10768899999999348
                },
                {
                    "name": "E2",
                    "midi": 40,
                    "time": 159.3797199999964,
                    "velocity": 0.4330708661417323,
                    "duration": 0.14358533333333412
                },
                {
                    "name": "E3",
                    "midi": 52,
                    "time": 159.52330533332974,
                    "velocity": 0.3700787401574803,
                    "duration": 0.14358533333333412
                },
                {
                    "name": "G3",
                    "midi": 55,
                    "time": 159.66689066666308,
                    "velocity": 0.3700787401574803,
                    "duration": 0.14358533333333412
                },
                {
                    "name": "G2",
                    "midi": 43,
                    "time": 161.10274399999642,
                    "velocity": 0.4094488188976378,
                    "duration": 0.14358533333333412
                },
                {
                    "name": "G3",
                    "midi": 55,
                    "time": 161.24632933332975,
                    "velocity": 0.3464566929133858,
                    "duration": 0.14358533333333412
                },
                {
                    "name": "A#3",
                    "midi": 58,
                    "time": 161.3899146666631,
                    "velocity": 0.3464566929133858,
                    "duration": 0.14358533333333412
                },
                {
                    "name": "A#2",
                    "midi": 46,
                    "time": 162.82576799999643,
                    "velocity": 0.3858267716535433,
                    "duration": 0.14358533333333412
                },
                {
                    "name": "A#3",
                    "midi": 58,
                    "time": 162.96935333332976,
                    "velocity": 0.3228346456692913,
                    "duration": 0.14358533333333412
                },
                {
                    "name": "C#4",
                    "midi": 61,
                    "time": 163.1129386666631,
                    "velocity": 0.3228346456692913,
                    "duration": 0.14358533333333412
                },
                {
                    "name": "C#3",
                    "midi": 49,
                    "time": 164.54879199999644,
                    "velocity": 0.31496062992125984,
                    "duration": 0.21537799999998697
                },
                {
                    "name": "E3",
                    "midi": 52,
                    "time": 164.76416999999643,
                    "velocity": 0.28346456692913385,
                    "duration": 0.21537799999998697
                },
                {
                    "name": "G3",
                    "midi": 55,
                    "time": 164.9795479999964,
                    "velocity": 0.28346456692913385,
                    "duration": 0.21537799999998697
                },
                {
                    "name": "A#3",
                    "midi": 58,
                    "time": 165.1949259999964,
                    "velocity": 0.28346456692913385,
                    "duration": 0.21537799999998697
                },
                {
                    "name": "A#3",
                    "midi": 58,
                    "time": 170.3639979999964,
                    "velocity": 0.2992125984251969,
                    "duration": 0.21537799999998697
                },
                {
                    "name": "G3",
                    "midi": 55,
                    "time": 170.5793759999964,
                    "velocity": 0.2992125984251969,
                    "duration": 0.21537799999998697
                },
                {
                    "name": "E3",
                    "midi": 52,
                    "time": 170.79475399999637,
                    "velocity": 0.29133858267716534,
                    "duration": 0.21537799999998697
                },
                {
                    "name": "C#3",
                    "midi": 49,
                    "time": 171.01013199999636,
                    "velocity": 0.28346456692913385,
                    "duration": 0.21537799999998697
                },
                {
                    "name": "A#2",
                    "midi": 46,
                    "time": 171.22550999999635,
                    "velocity": 0.2755905511811024,
                    "duration": 0.21537799999998697
                },
                {
                    "name": "G2",
                    "midi": 43,
                    "time": 171.44088799999633,
                    "velocity": 0.2755905511811024,
                    "duration": 0.8615120000000047
                },
                {
                    "name": "E2",
                    "midi": 40,
                    "time": 172.30239999999634,
                    "velocity": 0.28346456692913385,
                    "duration": 0.8615120000000047
                },
                {
                    "name": "C#2",
                    "midi": 37,
                    "time": 173.16391199999634,
                    "velocity": 0.2755905511811024,
                    "duration": 0.8615120000000047
                },
                {
                    "name": "A#1",
                    "midi": 34,
                    "time": 174.02542399999635,
                    "velocity": 0.2677165354330709,
                    "duration": 0.8615120000000047
                },
                {
                    "name": "G1",
                    "midi": 31,
                    "time": 174.88693599999635,
                    "velocity": 0.2677165354330709,
                    "duration": 1.7230240000000094
                },
                {
                    "name": "E3",
                    "midi": 52,
                    "time": 176.60995999999636,
                    "velocity": 0.2677165354330709,
                    "duration": 0.6461339999999893
                },
                {
                    "name": "A#2",
                    "midi": 46,
                    "time": 176.60995999999636,
                    "velocity": 0.2677165354330709,
                    "duration": 0.6461339999999893
                },
                {
                    "name": "G2",
                    "midi": 43,
                    "time": 176.60995999999636,
                    "velocity": 0.2677165354330709,
                    "duration": 0.6461339999999893
                },
                {
                    "name": "C2",
                    "midi": 36,
                    "time": 176.60995999999636,
                    "velocity": 0.2677165354330709,
                    "duration": 5.061382999999978
                },
                {
                    "name": "C3",
                    "midi": 48,
                    "time": 176.60995999999636,
                    "velocity": 0.2677165354330709,
                    "duration": 0.6461339999999893
                },
                {
                    "name": "A#2",
                    "midi": 46,
                    "time": 180.91751999999636,
                    "velocity": 0.2677165354330709,
                    "duration": 0.6461339999999893
                },
                {
                    "name": "G2",
                    "midi": 43,
                    "time": 180.91751999999636,
                    "velocity": 0.2677165354330709,
                    "duration": 0.6461339999999893
                },
                {
                    "name": "E3",
                    "midi": 52,
                    "time": 180.91751999999636,
                    "velocity": 0.2677165354330709,
                    "duration": 0.6461339999999893
                },
                {
                    "name": "C3",
                    "midi": 48,
                    "time": 180.91751999999636,
                    "velocity": 0.2677165354330709,
                    "duration": 0.6461339999999893
                },
                {
                    "name": "C2",
                    "midi": 36,
                    "time": 181.67134299999634,
                    "velocity": 0.2677165354330709,
                    "duration": 0.10768899999999348
                },
                {
                    "name": "F2",
                    "midi": 41,
                    "time": 181.77903199999633,
                    "velocity": 0.30708661417322836,
                    "duration": 0.43075600000000236
                },
                {
                    "name": "F1",
                    "midi": 29,
                    "time": 181.77903199999633,
                    "velocity": 0.30708661417322836,
                    "duration": 0.43075600000000236
                },
                {
                    "name": "F1",
                    "midi": 29,
                    "time": 183.50205599999634,
                    "velocity": 0.31496062992125984,
                    "duration": 0.43075600000000236
                },
                {
                    "name": "F2",
                    "midi": 41,
                    "time": 183.50205599999634,
                    "velocity": 0.31496062992125984,
                    "duration": 0.43075600000000236
                },
                {
                    "name": "G#4",
                    "midi": 68,
                    "time": 184.25587899999636,
                    "velocity": 0.4015748031496063,
                    "duration": 0.10768899999999348
                },
                {
                    "name": "C5",
                    "midi": 72,
                    "time": 184.25587899999636,
                    "velocity": 0.4015748031496063,
                    "duration": 0.10768899999999348
                },
                {
                    "name": "G#4",
                    "midi": 68,
                    "time": 184.36356799999635,
                    "velocity": 0.4409448818897638,
                    "duration": 0.43075600000000236
                },
                {
                    "name": "C5",
                    "midi": 72,
                    "time": 184.36356799999635,
                    "velocity": 0.4409448818897638,
                    "duration": 0.43075600000000236
                },
                {
                    "name": "G#4",
                    "midi": 68,
                    "time": 184.79432399999635,
                    "velocity": 0.23622047244094488,
                    "duration": 0.21537799999998697
                },
                {
                    "name": "F4",
                    "midi": 65,
                    "time": 184.79432399999635,
                    "velocity": 0.23622047244094488,
                    "duration": 0.21537799999998697
                },
                {
                    "name": "A#1",
                    "midi": 34,
                    "time": 185.22507999999632,
                    "velocity": 0.31496062992125984,
                    "duration": 0.43075600000000236
                },
                {
                    "name": "A#2",
                    "midi": 46,
                    "time": 185.22507999999632,
                    "velocity": 0.31496062992125984,
                    "duration": 0.43075600000000236
                },
                {
                    "name": "C#5",
                    "midi": 73,
                    "time": 185.97890299999634,
                    "velocity": 0.49606299212598426,
                    "duration": 0.10768899999999348
                },
                {
                    "name": "A#4",
                    "midi": 70,
                    "time": 185.97890299999634,
                    "velocity": 0.49606299212598426,
                    "duration": 0.10768899999999348
                },
                {
                    "name": "C#5",
                    "midi": 73,
                    "time": 186.08659199999633,
                    "velocity": 0.5511811023622047,
                    "duration": 0.8615120000000047
                },
                {
                    "name": "A#4",
                    "midi": 70,
                    "time": 186.08659199999633,
                    "velocity": 0.5511811023622047,
                    "duration": 0.8615120000000047
                },
                {
                    "name": "A#4",
                    "midi": 70,
                    "time": 186.94810399999633,
                    "velocity": 0.4015748031496063,
                    "duration": 0.21537799999998697
                },
                {
                    "name": "C5",
                    "midi": 72,
                    "time": 186.94810399999633,
                    "velocity": 0.4015748031496063,
                    "duration": 0.21537799999998697
                },
                {
                    "name": "C3",
                    "midi": 48,
                    "time": 187.16348199999632,
                    "velocity": 0.33858267716535434,
                    "duration": 0.21537799999998697
                },
                {
                    "name": "C2",
                    "midi": 36,
                    "time": 187.16348199999632,
                    "velocity": 0.33858267716535434,
                    "duration": 0.21537799999998697
                },
                {
                    "name": "C#2",
                    "midi": 37,
                    "time": 187.5942379999963,
                    "velocity": 0.29133858267716534,
                    "duration": 0.21537799999998697
                },
                {
                    "name": "C#3",
                    "midi": 49,
                    "time": 187.5942379999963,
                    "velocity": 0.29133858267716534,
                    "duration": 0.21537799999998697
                },
                {
                    "name": "A#1",
                    "midi": 34,
                    "time": 188.02499399999627,
                    "velocity": 0.30708661417322836,
                    "duration": 0.21537799999998697
                },
                {
                    "name": "A#2",
                    "midi": 46,
                    "time": 188.02499399999627,
                    "velocity": 0.30708661417322836,
                    "duration": 0.21537799999998697
                },
                {
                    "name": "C2",
                    "midi": 36,
                    "time": 188.45574999999624,
                    "velocity": 0.2755905511811024,
                    "duration": 0.21537799999998697
                },
                {
                    "name": "C3",
                    "midi": 48,
                    "time": 188.45574999999624,
                    "velocity": 0.2755905511811024,
                    "duration": 0.21537799999998697
                },
                {
                    "name": "F2",
                    "midi": 41,
                    "time": 188.67112799999623,
                    "velocity": 0.31496062992125984,
                    "duration": 0.10768899999999348
                },
                {
                    "name": "F1",
                    "midi": 29,
                    "time": 188.67112799999623,
                    "velocity": 0.31496062992125984,
                    "duration": 0.10768899999999348
                },
                {
                    "name": "C3",
                    "midi": 48,
                    "time": 188.77881699999622,
                    "velocity": 0.29133858267716534,
                    "duration": 0.10768899999999348
                },
                {
                    "name": "F3",
                    "midi": 53,
                    "time": 188.88650599999622,
                    "velocity": 0.29133858267716534,
                    "duration": 0.10768899999999348
                },
                {
                    "name": "G#3",
                    "midi": 56,
                    "time": 188.9941949999962,
                    "velocity": 0.31496062992125984,
                    "duration": 0.10768899999999348
                },
                {
                    "name": "C4",
                    "midi": 60,
                    "time": 189.1018839999962,
                    "velocity": 0.2992125984251969,
                    "duration": 0.10768899999999348
                },
                {
                    "name": "C#4",
                    "midi": 61,
                    "time": 189.2095729999962,
                    "velocity": 0.2992125984251969,
                    "duration": 0.10768899999999348
                },
                {
                    "name": "C4",
                    "midi": 60,
                    "time": 189.3172619999962,
                    "velocity": 0.2992125984251969,
                    "duration": 0.10768899999999348
                },
                {
                    "name": "A#3",
                    "midi": 58,
                    "time": 189.42495099999618,
                    "velocity": 0.31496062992125984,
                    "duration": 0.10768899999999348
                },
                {
                    "name": "G#3",
                    "midi": 56,
                    "time": 189.53263999999618,
                    "velocity": 0.29133858267716534,
                    "duration": 0.10768899999999348
                },
                {
                    "name": "A#3",
                    "midi": 58,
                    "time": 189.64032899999617,
                    "velocity": 0.29133858267716534,
                    "duration": 0.10768899999999348
                },
                {
                    "name": "G#3",
                    "midi": 56,
                    "time": 189.74801799999616,
                    "velocity": 0.29133858267716534,
                    "duration": 0.10768899999999348
                },
                {
                    "name": "G3",
                    "midi": 55,
                    "time": 189.85570699999616,
                    "velocity": 0.31496062992125984,
                    "duration": 0.10768899999999348
                },
                {
                    "name": "F3",
                    "midi": 53,
                    "time": 189.96339599999615,
                    "velocity": 0.29133858267716534,
                    "duration": 0.10768899999999348
                },
                {
                    "name": "G3",
                    "midi": 55,
                    "time": 190.07108499999615,
                    "velocity": 0.29133858267716534,
                    "duration": 0.10768899999999348
                },
                {
                    "name": "G#3",
                    "midi": 56,
                    "time": 190.17877399999614,
                    "velocity": 0.29133858267716534,
                    "duration": 0.10768899999999348
                },
                {
                    "name": "F3",
                    "midi": 53,
                    "time": 190.28646299999613,
                    "velocity": 0.29133858267716534,
                    "duration": 0.10768899999999348
                },
                {
                    "name": "G#3",
                    "midi": 56,
                    "time": 190.39415199999613,
                    "velocity": 0.31496062992125984,
                    "duration": 0.10768899999999348
                },
                {
                    "name": "C3",
                    "midi": 48,
                    "time": 190.50184099999612,
                    "velocity": 0.29133858267716534,
                    "duration": 0.10768899999999348
                },
                {
                    "name": "F3",
                    "midi": 53,
                    "time": 190.6095299999961,
                    "velocity": 0.29133858267716534,
                    "duration": 0.10768899999999348
                },
                {
                    "name": "G#3",
                    "midi": 56,
                    "time": 190.7172189999961,
                    "velocity": 0.31496062992125984,
                    "duration": 0.10768899999999348
                },
                {
                    "name": "C4",
                    "midi": 60,
                    "time": 190.8249079999961,
                    "velocity": 0.2992125984251969,
                    "duration": 0.10768899999999348
                },
                {
                    "name": "C#4",
                    "midi": 61,
                    "time": 190.9325969999961,
                    "velocity": 0.2992125984251969,
                    "duration": 0.10768899999999348
                },
                {
                    "name": "C4",
                    "midi": 60,
                    "time": 191.0402859999961,
                    "velocity": 0.2992125984251969,
                    "duration": 0.10768899999999348
                },
                {
                    "name": "A#3",
                    "midi": 58,
                    "time": 191.14797499999608,
                    "velocity": 0.31496062992125984,
                    "duration": 0.10768899999999348
                },
                {
                    "name": "G#3",
                    "midi": 56,
                    "time": 191.25566399999607,
                    "velocity": 0.29133858267716534,
                    "duration": 0.10768899999999348
                },
                {
                    "name": "A#3",
                    "midi": 58,
                    "time": 191.36335299999607,
                    "velocity": 0.29133858267716534,
                    "duration": 0.10768899999999348
                },
                {
                    "name": "G#3",
                    "midi": 56,
                    "time": 191.47104199999606,
                    "velocity": 0.29133858267716534,
                    "duration": 0.10768899999999348
                },
                {
                    "name": "G3",
                    "midi": 55,
                    "time": 191.57873099999605,
                    "velocity": 0.31496062992125984,
                    "duration": 0.10768899999999348
                },
                {
                    "name": "F3",
                    "midi": 53,
                    "time": 191.68641999999605,
                    "velocity": 0.29133858267716534,
                    "duration": 0.10768899999999348
                },
                {
                    "name": "G3",
                    "midi": 55,
                    "time": 191.79410899999604,
                    "velocity": 0.29133858267716534,
                    "duration": 0.10768899999999348
                },
                {
                    "name": "G#3",
                    "midi": 56,
                    "time": 191.90179799999603,
                    "velocity": 0.29133858267716534,
                    "duration": 0.10768899999999348
                },
                {
                    "name": "F3",
                    "midi": 53,
                    "time": 192.00948699999603,
                    "velocity": 0.29133858267716534,
                    "duration": 0.10768899999999348
                },
                {
                    "name": "A#3",
                    "midi": 58,
                    "time": 192.11717599999602,
                    "velocity": 0.3464566929133858,
                    "duration": 0.10768899999999348
                },
                {
                    "name": "C#3",
                    "midi": 49,
                    "time": 192.22486499999602,
                    "velocity": 0.31496062992125984,
                    "duration": 0.10768899999999348
                },
                {
                    "name": "F#3",
                    "midi": 54,
                    "time": 192.332553999996,
                    "velocity": 0.31496062992125984,
                    "duration": 0.10768899999999348
                },
                {
                    "name": "A#3",
                    "midi": 58,
                    "time": 192.440242999996,
                    "velocity": 0.3464566929133858,
                    "duration": 0.10768899999999348
                },
                {
                    "name": "C#4",
                    "midi": 61,
                    "time": 192.547931999996,
                    "velocity": 0.3228346456692913,
                    "duration": 0.10768899999999348
                },
                {
                    "name": "D#4",
                    "midi": 63,
                    "time": 192.655620999996,
                    "velocity": 0.3228346456692913,
                    "duration": 0.10768899999999348
                },
                {
                    "name": "C#4",
                    "midi": 61,
                    "time": 192.76330999999598,
                    "velocity": 0.3228346456692913,
                    "duration": 0.10768899999999348
                },
                {
                    "name": "C4",
                    "midi": 60,
                    "time": 192.87099899999598,
                    "velocity": 0.3464566929133858,
                    "duration": 0.10768899999999348
                },
                {
                    "name": "A#3",
                    "midi": 58,
                    "time": 192.97868799999597,
                    "velocity": 0.31496062992125984,
                    "duration": 0.10768899999999348
                },
                {
                    "name": "C4",
                    "midi": 60,
                    "time": 193.08637699999596,
                    "velocity": 0.31496062992125984,
                    "duration": 0.10768899999999348
                },
                {
                    "name": "A#3",
                    "midi": 58,
                    "time": 193.19406599999596,
                    "velocity": 0.31496062992125984,
                    "duration": 0.10768899999999348
                },
                {
                    "name": "G#3",
                    "midi": 56,
                    "time": 193.30175499999595,
                    "velocity": 0.3464566929133858,
                    "duration": 0.10768899999999348
                },
                {
                    "name": "F#3",
                    "midi": 54,
                    "time": 193.40944399999594,
                    "velocity": 0.31496062992125984,
                    "duration": 0.10768899999999348
                },
                {
                    "name": "G#3",
                    "midi": 56,
                    "time": 193.51713299999594,
                    "velocity": 0.31496062992125984,
                    "duration": 0.10768899999999348
                },
                {
                    "name": "F#3",
                    "midi": 54,
                    "time": 193.62482199999593,
                    "velocity": 0.31496062992125984,
                    "duration": 0.10768899999999348
                },
                {
                    "name": "F3",
                    "midi": 53,
                    "time": 193.73251099999592,
                    "velocity": 0.3464566929133858,
                    "duration": 0.10768899999999348
                },
                {
                    "name": "E3",
                    "midi": 52,
                    "time": 193.84019999999592,
                    "velocity": 0.31496062992125984,
                    "duration": 0.10768899999999348
                },
                {
                    "name": "F3",
                    "midi": 53,
                    "time": 193.9478889999959,
                    "velocity": 0.31496062992125984,
                    "duration": 0.10768899999999348
                },
                {
                    "name": "G3",
                    "midi": 55,
                    "time": 194.0555779999959,
                    "velocity": 0.31496062992125984,
                    "duration": 0.10768899999999348
                },
                {
                    "name": "G#3",
                    "midi": 56,
                    "time": 194.1632669999959,
                    "velocity": 0.3464566929133858,
                    "duration": 0.10768899999999348
                },
                {
                    "name": "A#3",
                    "midi": 58,
                    "time": 194.2709559999959,
                    "velocity": 0.31496062992125984,
                    "duration": 0.10768899999999348
                },
                {
                    "name": "G#3",
                    "midi": 56,
                    "time": 194.37864499999588,
                    "velocity": 0.31496062992125984,
                    "duration": 0.10768899999999348
                },
                {
                    "name": "G3",
                    "midi": 55,
                    "time": 194.48633399999588,
                    "velocity": 0.31496062992125984,
                    "duration": 0.10768899999999348
                },
                {
                    "name": "F3",
                    "midi": 53,
                    "time": 194.59402299999587,
                    "velocity": 0.3464566929133858,
                    "duration": 0.10768899999999348
                },
                {
                    "name": "E3",
                    "midi": 52,
                    "time": 194.70171199999587,
                    "velocity": 0.31496062992125984,
                    "duration": 0.10768899999999348
                },
                {
                    "name": "F3",
                    "midi": 53,
                    "time": 194.80940099999586,
                    "velocity": 0.31496062992125984,
                    "duration": 0.10768899999999348
                },
                {
                    "name": "E3",
                    "midi": 52,
                    "time": 194.91708999999585,
                    "velocity": 0.31496062992125984,
                    "duration": 0.10768899999999348
                },
                {
                    "name": "C#3",
                    "midi": 49,
                    "time": 195.02477899999585,
                    "velocity": 0.3464566929133858,
                    "duration": 0.10768899999999348
                },
                {
                    "name": "C3",
                    "midi": 48,
                    "time": 195.13246799999584,
                    "velocity": 0.29133858267716534,
                    "duration": 0.10768899999999348
                },
                {
                    "name": "A#2",
                    "midi": 46,
                    "time": 195.24015699999583,
                    "velocity": 0.2992125984251969,
                    "duration": 0.10768899999999348
                },
                {
                    "name": "G#2",
                    "midi": 44,
                    "time": 195.34784599999583,
                    "velocity": 0.31496062992125984,
                    "duration": 0.10768899999999348
                },
                {
                    "name": "G2",
                    "midi": 43,
                    "time": 195.45553499999582,
                    "velocity": 0.31496062992125984,
                    "duration": 0.10768899999999348
                },
                {
                    "name": "F2",
                    "midi": 41,
                    "time": 195.5632239999958,
                    "velocity": 0.3464566929133858,
                    "duration": 0.43075600000000236
                },
                {
                    "name": "G#3",
                    "midi": 56,
                    "time": 196.31704699999582,
                    "velocity": 0.4094488188976378,
                    "duration": 0.10768899999999348
                },
                {
                    "name": "F3",
                    "midi": 53,
                    "time": 196.31704699999582,
                    "velocity": 0.4094488188976378,
                    "duration": 0.10768899999999348
                },
                {
                    "name": "F3",
                    "midi": 53,
                    "time": 196.42473599999582,
                    "velocity": 0.5118110236220472,
                    "duration": 0.43075600000000236
                },
                {
                    "name": "G#3",
                    "midi": 56,
                    "time": 196.42473599999582,
                    "velocity": 0.5118110236220472,
                    "duration": 0.43075600000000236
                },
                {
                    "name": "G#3",
                    "midi": 56,
                    "time": 197.17855899999583,
                    "velocity": 0.4251968503937008,
                    "duration": 0.10768899999999348
                },
                {
                    "name": "F3",
                    "midi": 53,
                    "time": 197.17855899999583,
                    "velocity": 0.4251968503937008,
                    "duration": 0.10768899999999348
                },
                {
                    "name": "C3",
                    "midi": 48,
                    "time": 197.28624799999582,
                    "velocity": 0.5196850393700787,
                    "duration": 0.8615120000000047
                },
                {
                    "name": "G#3",
                    "midi": 56,
                    "time": 197.28624799999582,
                    "velocity": 0.5196850393700787,
                    "duration": 0.8615120000000047
                },
                {
                    "name": "F3",
                    "midi": 53,
                    "time": 197.28624799999582,
                    "velocity": 0.5196850393700787,
                    "duration": 0.8615120000000047
                },
                {
                    "name": "E3",
                    "midi": 52,
                    "time": 198.14775999999583,
                    "velocity": 0.3779527559055118,
                    "duration": 0.21537799999998697
                },
                {
                    "name": "C3",
                    "midi": 48,
                    "time": 198.14775999999583,
                    "velocity": 0.3779527559055118,
                    "duration": 0.21537799999998697
                },
                {
                    "name": "G3",
                    "midi": 55,
                    "time": 198.14775999999583,
                    "velocity": 0.3779527559055118,
                    "duration": 0.21537799999998697
                },
                {
                    "name": "C3",
                    "midi": 48,
                    "time": 199.0092719999958,
                    "velocity": 0.33070866141732286,
                    "duration": 0.43075600000000236
                },
                {
                    "name": "C2",
                    "midi": 36,
                    "time": 199.0092719999958,
                    "velocity": 0.33070866141732286,
                    "duration": 0.43075600000000236
                },
                {
                    "name": "A#3",
                    "midi": 58,
                    "time": 199.76309499999581,
                    "velocity": 0.47244094488188976,
                    "duration": 0.10768899999999348
                },
                {
                    "name": "G3",
                    "midi": 55,
                    "time": 199.76309499999581,
                    "velocity": 0.47244094488188976,
                    "duration": 0.10768899999999348
                },
                {
                    "name": "G3",
                    "midi": 55,
                    "time": 199.8707839999958,
                    "velocity": 0.5354330708661418,
                    "duration": 0.43075600000000236
                },
                {
                    "name": "A#3",
                    "midi": 58,
                    "time": 199.8707839999958,
                    "velocity": 0.5354330708661418,
                    "duration": 0.43075600000000236
                },
                {
                    "name": "G3",
                    "midi": 55,
                    "time": 200.62460699999582,
                    "velocity": 0.48031496062992124,
                    "duration": 0.10768899999999348
                },
                {
                    "name": "A#3",
                    "midi": 58,
                    "time": 200.62460699999582,
                    "velocity": 0.48031496062992124,
                    "duration": 0.10768899999999348
                },
                {
                    "name": "F3",
                    "midi": 53,
                    "time": 200.7322959999958,
                    "velocity": 0.4566929133858268,
                    "duration": 0.8615120000000047
                },
                {
                    "name": "A#3",
                    "midi": 58,
                    "time": 200.7322959999958,
                    "velocity": 0.5433070866141733,
                    "duration": 0.8615120000000047
                },
                {
                    "name": "G3",
                    "midi": 55,
                    "time": 200.7322959999958,
                    "velocity": 0.4566929133858268,
                    "duration": 0.8615120000000047
                },
                {
                    "name": "F3",
                    "midi": 53,
                    "time": 201.59380799999582,
                    "velocity": 0.3700787401574803,
                    "duration": 0.21537799999998697
                },
                {
                    "name": "G#3",
                    "midi": 56,
                    "time": 201.59380799999582,
                    "velocity": 0.4094488188976378,
                    "duration": 0.21537799999998697
                },
                {
                    "name": "F2",
                    "midi": 41,
                    "time": 202.4553199999958,
                    "velocity": 0.3543307086614173,
                    "duration": 0.43075600000000236
                },
                {
                    "name": "F3",
                    "midi": 53,
                    "time": 202.4553199999958,
                    "velocity": 0.3543307086614173,
                    "duration": 0.43075600000000236
                },
                {
                    "name": "D#4",
                    "midi": 63,
                    "time": 203.2091429999958,
                    "velocity": 0.4645669291338583,
                    "duration": 0.10768899999999348
                },
                {
                    "name": "C4",
                    "midi": 60,
                    "time": 203.2091429999958,
                    "velocity": 0.4645669291338583,
                    "duration": 0.10768899999999348
                },
                {
                    "name": "C4",
                    "midi": 60,
                    "time": 203.3168319999958,
                    "velocity": 0.5354330708661418,
                    "duration": 0.43075600000000236
                },
                {
                    "name": "D#4",
                    "midi": 63,
                    "time": 203.3168319999958,
                    "velocity": 0.5354330708661418,
                    "duration": 0.43075600000000236
                },
                {
                    "name": "C4",
                    "midi": 60,
                    "time": 204.0706549999958,
                    "velocity": 0.5196850393700787,
                    "duration": 0.10768899999999348
                },
                {
                    "name": "D#4",
                    "midi": 63,
                    "time": 204.0706549999958,
                    "velocity": 0.5196850393700787,
                    "duration": 0.10768899999999348
                },
                {
                    "name": "A#3",
                    "midi": 58,
                    "time": 204.1783439999958,
                    "velocity": 0.5669291338582677,
                    "duration": 1.0768899999999917
                },
                {
                    "name": "D#4",
                    "midi": 63,
                    "time": 204.1783439999958,
                    "velocity": 0.5669291338582677,
                    "duration": 1.0768899999999917
                },
                {
                    "name": "C4",
                    "midi": 60,
                    "time": 204.1783439999958,
                    "velocity": 0.5669291338582677,
                    "duration": 1.0768899999999917
                },
                {
                    "name": "C#4",
                    "midi": 61,
                    "time": 205.2552339999958,
                    "velocity": 0.5039370078740157,
                    "duration": 0.21537799999998697
                },
                {
                    "name": "A#3",
                    "midi": 58,
                    "time": 205.2552339999958,
                    "velocity": 0.5039370078740157,
                    "duration": 0.21537799999998697
                },
                {
                    "name": "C4",
                    "midi": 60,
                    "time": 205.47061199999578,
                    "velocity": 0.48031496062992124,
                    "duration": 0.21537799999998697
                },
                {
                    "name": "G#3",
                    "midi": 56,
                    "time": 205.47061199999578,
                    "velocity": 0.48031496062992124,
                    "duration": 0.21537799999998697
                },
                {
                    "name": "A#3",
                    "midi": 58,
                    "time": 205.68598999999577,
                    "velocity": 0.4645669291338583,
                    "duration": 0.21537799999998697
                },
                {
                    "name": "G3",
                    "midi": 55,
                    "time": 205.68598999999577,
                    "velocity": 0.4645669291338583,
                    "duration": 0.21537799999998697
                },
                {
                    "name": "C3",
                    "midi": 48,
                    "time": 205.90136799999576,
                    "velocity": 0.4409448818897638,
                    "duration": 0.43075600000000236
                },
                {
                    "name": "G#3",
                    "midi": 56,
                    "time": 205.90136799999576,
                    "velocity": 0.4409448818897638,
                    "duration": 0.43075600000000236
                },
                {
                    "name": "F3",
                    "midi": 53,
                    "time": 205.90136799999576,
                    "velocity": 0.4409448818897638,
                    "duration": 0.43075600000000236
                },
                {
                    "name": "G#3",
                    "midi": 56,
                    "time": 206.65519099999577,
                    "velocity": 0.4409448818897638,
                    "duration": 0.10768899999999348
                },
                {
                    "name": "F3",
                    "midi": 53,
                    "time": 206.65519099999577,
                    "velocity": 0.4409448818897638,
                    "duration": 0.10768899999999348
                },
                {
                    "name": "C3",
                    "midi": 48,
                    "time": 206.76287999999576,
                    "velocity": 0.49606299212598426,
                    "duration": 0.43075600000000236
                },
                {
                    "name": "A#3",
                    "midi": 58,
                    "time": 206.76287999999576,
                    "velocity": 0.49606299212598426,
                    "duration": 0.43075600000000236
                },
                {
                    "name": "G3",
                    "midi": 55,
                    "time": 206.76287999999576,
                    "velocity": 0.49606299212598426,
                    "duration": 0.43075600000000236
                },
                {
                    "name": "G3",
                    "midi": 55,
                    "time": 207.51670299999577,
                    "velocity": 0.41732283464566927,
                    "duration": 0.10768899999999348
                },
                {
                    "name": "E3",
                    "midi": 52,
                    "time": 207.51670299999577,
                    "velocity": 0.41732283464566927,
                    "duration": 0.10768899999999348
                },
                {
                    "name": "F3",
                    "midi": 53,
                    "time": 207.62439199999577,
                    "velocity": 0.4409448818897638,
                    "duration": 0.10768899999999348
                },
                {
                    "name": "C4",
                    "midi": 60,
                    "time": 207.73208099999576,
                    "velocity": 0.3858267716535433,
                    "duration": 0.10768899999999348
                },
                {
                    "name": "G#3",
                    "midi": 56,
                    "time": 207.83976999999575,
                    "velocity": 0.3858267716535433,
                    "duration": 0.10768899999999348
                },
                {
                    "name": "F3",
                    "midi": 53,
                    "time": 207.94745899999575,
                    "velocity": 0.3858267716535433,
                    "duration": 0.10768899999999348
                },
                {
                    "name": "C3",
                    "midi": 48,
                    "time": 208.05514799999574,
                    "velocity": 0.41732283464566927,
                    "duration": 0.10768899999999348
                },
                {
                    "name": "G#3",
                    "midi": 56,
                    "time": 208.16283699999573,
                    "velocity": 0.3858267716535433,
                    "duration": 0.10768899999999348
                },
                {
                    "name": "F3",
                    "midi": 53,
                    "time": 208.27052599999573,
                    "velocity": 0.3858267716535433,
                    "duration": 0.10768899999999348
                },
                {
                    "name": "C3",
                    "midi": 48,
                    "time": 208.37821499999572,
                    "velocity": 0.3858267716535433,
                    "duration": 0.10768899999999348
                },
                {
                    "name": "G#2",
                    "midi": 44,
                    "time": 208.4859039999957,
                    "velocity": 0.41732283464566927,
                    "duration": 0.10768899999999348
                },
                {
                    "name": "F3",
                    "midi": 53,
                    "time": 208.5935929999957,
                    "velocity": 0.3858267716535433,
                    "duration": 0.10768899999999348
                },
                {
                    "name": "C3",
                    "midi": 48,
                    "time": 208.7012819999957,
                    "velocity": 0.3858267716535433,
                    "duration": 0.10768899999999348
                },
                {
                    "name": "G#2",
                    "midi": 44,
                    "time": 208.8089709999957,
                    "velocity": 0.3858267716535433,
                    "duration": 0.10768899999999348
                },
                {
                    "name": "F2",
                    "midi": 41,
                    "time": 208.9166599999957,
                    "velocity": 0.41732283464566927,
                    "duration": 0.10768899999999348
                },
                {
                    "name": "C3",
                    "midi": 48,
                    "time": 209.02434899999568,
                    "velocity": 0.3858267716535433,
                    "duration": 0.10768899999999348
                },
                {
                    "name": "G#2",
                    "midi": 44,
                    "time": 209.13203799999567,
                    "velocity": 0.3858267716535433,
                    "duration": 0.10768899999999348
                },
                {
                    "name": "F2",
                    "midi": 41,
                    "time": 209.23972699999567,
                    "velocity": 0.3858267716535433,
                    "duration": 0.10768899999999348
                },
                {
                    "name": "C2",
                    "midi": 36,
                    "time": 209.34741599999566,
                    "velocity": 0.41732283464566927,
                    "duration": 0.10768899999999348
                },
                {
                    "name": "F2",
                    "midi": 41,
                    "time": 209.45510499999565,
                    "velocity": 0.3858267716535433,
                    "duration": 0.10768899999999348
                },
                {
                    "name": "G#2",
                    "midi": 44,
                    "time": 209.56279399999565,
                    "velocity": 0.3858267716535433,
                    "duration": 0.10768899999999348
                },
                {
                    "name": "C3",
                    "midi": 48,
                    "time": 209.67048299999564,
                    "velocity": 0.3858267716535433,
                    "duration": 0.10768899999999348
                },
                {
                    "name": "B2",
                    "midi": 47,
                    "time": 209.77817199999564,
                    "velocity": 0.41732283464566927,
                    "duration": 0.10768899999999348
                },
                {
                    "name": "C3",
                    "midi": 48,
                    "time": 209.88586099999563,
                    "velocity": 0.3858267716535433,
                    "duration": 0.10768899999999348
                },
                {
                    "name": "B2",
                    "midi": 47,
                    "time": 209.99354999999562,
                    "velocity": 0.3858267716535433,
                    "duration": 0.10768899999999348
                },
                {
                    "name": "C3",
                    "midi": 48,
                    "time": 210.10123899999562,
                    "velocity": 0.3858267716535433,
                    "duration": 0.10768899999999348
                },
                {
                    "name": "B2",
                    "midi": 47,
                    "time": 210.2089279999956,
                    "velocity": 0.41732283464566927,
                    "duration": 0.10768899999999348
                },
                {
                    "name": "C3",
                    "midi": 48,
                    "time": 210.3166169999956,
                    "velocity": 0.3858267716535433,
                    "duration": 0.10768899999999348
                },
                {
                    "name": "G2",
                    "midi": 43,
                    "time": 210.4243059999956,
                    "velocity": 0.3858267716535433,
                    "duration": 0.10768899999999348
                },
                {
                    "name": "C3",
                    "midi": 48,
                    "time": 210.5319949999956,
                    "velocity": 0.3858267716535433,
                    "duration": 0.10768899999999348
                },
                {
                    "name": "E2",
                    "midi": 40,
                    "time": 210.63968399999558,
                    "velocity": 0.41732283464566927,
                    "duration": 0.10768899999999348
                },
                {
                    "name": "C3",
                    "midi": 48,
                    "time": 210.74737299999558,
                    "velocity": 0.3858267716535433,
                    "duration": 0.10768899999999348
                },
                {
                    "name": "G2",
                    "midi": 43,
                    "time": 210.85506199999557,
                    "velocity": 0.3858267716535433,
                    "duration": 0.10768899999999348
                },
                {
                    "name": "C3",
                    "midi": 48,
                    "time": 210.96275099999556,
                    "velocity": 0.3858267716535433,
                    "duration": 0.10768899999999348
                },
                {
                    "name": "C2",
                    "midi": 36,
                    "time": 211.07043999999556,
                    "velocity": 0.4409448818897638,
                    "duration": 0.10768899999999348
                },
                {
                    "name": "E2",
                    "midi": 40,
                    "time": 211.17812899999555,
                    "velocity": 0.3858267716535433,
                    "duration": 0.10768899999999348
                },
                {
                    "name": "G2",
                    "midi": 43,
                    "time": 211.28581799999554,
                    "velocity": 0.3858267716535433,
                    "duration": 0.10768899999999348
                },
                {
                    "name": "C3",
                    "midi": 48,
                    "time": 211.39350699999554,
                    "velocity": 0.3858267716535433,
                    "duration": 0.10768899999999348
                },
                {
                    "name": "E2",
                    "midi": 40,
                    "time": 211.50119599999553,
                    "velocity": 0.41732283464566927,
                    "duration": 0.10768899999999348
                },
                {
                    "name": "G2",
                    "midi": 43,
                    "time": 211.60888499999552,
                    "velocity": 0.3858267716535433,
                    "duration": 0.10768899999999348
                },
                {
                    "name": "C3",
                    "midi": 48,
                    "time": 211.71657399999552,
                    "velocity": 0.3858267716535433,
                    "duration": 0.10768899999999348
                },
                {
                    "name": "E3",
                    "midi": 52,
                    "time": 211.8242629999955,
                    "velocity": 0.3858267716535433,
                    "duration": 0.10768899999999348
                },
                {
                    "name": "G2",
                    "midi": 43,
                    "time": 211.9319519999955,
                    "velocity": 0.41732283464566927,
                    "duration": 0.10768899999999348
                },
                {
                    "name": "C3",
                    "midi": 48,
                    "time": 212.0396409999955,
                    "velocity": 0.3858267716535433,
                    "duration": 0.10768899999999348
                },
                {
                    "name": "E3",
                    "midi": 52,
                    "time": 212.1473299999955,
                    "velocity": 0.3858267716535433,
                    "duration": 0.10768899999999348
                },
                {
                    "name": "G3",
                    "midi": 55,
                    "time": 212.25501899999549,
                    "velocity": 0.3858267716535433,
                    "duration": 0.10768899999999348
                },
                {
                    "name": "C3",
                    "midi": 48,
                    "time": 212.36270799999548,
                    "velocity": 0.41732283464566927,
                    "duration": 0.10768899999999348
                },
                {
                    "name": "E3",
                    "midi": 52,
                    "time": 212.47039699999547,
                    "velocity": 0.3858267716535433,
                    "duration": 0.10768899999999348
                },
                {
                    "name": "G3",
                    "midi": 55,
                    "time": 212.57808599999547,
                    "velocity": 0.3858267716535433,
                    "duration": 0.10768899999999348
                },
                {
                    "name": "C4",
                    "midi": 60,
                    "time": 212.68577499999546,
                    "velocity": 0.3858267716535433,
                    "duration": 0.10768899999999348
                },
                {
                    "name": "F3",
                    "midi": 53,
                    "time": 212.79346399999545,
                    "velocity": 0.4645669291338583,
                    "duration": 0.10768899999999348
                },
                {
                    "name": "G#3",
                    "midi": 56,
                    "time": 212.90115299999545,
                    "velocity": 0.3858267716535433,
                    "duration": 0.10768899999999348
                },
                {
                    "name": "C4",
                    "midi": 60,
                    "time": 213.00884199999544,
                    "velocity": 0.3858267716535433,
                    "duration": 0.10768899999999348
                },
                {
                    "name": "F4",
                    "midi": 65,
                    "time": 213.11653099999543,
                    "velocity": 0.3858267716535433,
                    "duration": 0.10768899999999348
                },
                {
                    "name": "E4",
                    "midi": 64,
                    "time": 213.22421999999543,
                    "velocity": 0.41732283464566927,
                    "duration": 0.10768899999999348
                },
                {
                    "name": "F4",
                    "midi": 65,
                    "time": 213.33190899999542,
                    "velocity": 0.3858267716535433,
                    "duration": 0.10768899999999348
                },
                {
                    "name": "E4",
                    "midi": 64,
                    "time": 213.4395979999954,
                    "velocity": 0.3858267716535433,
                    "duration": 0.10768899999999348
                },
                {
                    "name": "F4",
                    "midi": 65,
                    "time": 213.5472869999954,
                    "velocity": 0.3858267716535433,
                    "duration": 0.10768899999999348
                },
                {
                    "name": "E4",
                    "midi": 64,
                    "time": 213.6549759999954,
                    "velocity": 0.41732283464566927,
                    "duration": 0.10768899999999348
                },
                {
                    "name": "F4",
                    "midi": 65,
                    "time": 213.7626649999954,
                    "velocity": 0.3858267716535433,
                    "duration": 0.10768899999999348
                },
                {
                    "name": "C4",
                    "midi": 60,
                    "time": 213.8703539999954,
                    "velocity": 0.3858267716535433,
                    "duration": 0.10768899999999348
                },
                {
                    "name": "F4",
                    "midi": 65,
                    "time": 213.97804299999538,
                    "velocity": 0.3858267716535433,
                    "duration": 0.10768899999999348
                },
                {
                    "name": "G#3",
                    "midi": 56,
                    "time": 214.08573199999537,
                    "velocity": 0.41732283464566927,
                    "duration": 0.10768899999999348
                },
                {
                    "name": "F4",
                    "midi": 65,
                    "time": 214.19342099999537,
                    "velocity": 0.3858267716535433,
                    "duration": 0.10768899999999348
                },
                {
                    "name": "C4",
                    "midi": 60,
                    "time": 214.30110999999536,
                    "velocity": 0.3858267716535433,
                    "duration": 0.10768899999999348
                },
                {
                    "name": "F4",
                    "midi": 65,
                    "time": 214.40879899999535,
                    "velocity": 0.3858267716535433,
                    "duration": 0.10768899999999348
                },
                {
                    "name": "F3",
                    "midi": 53,
                    "time": 214.51648799999535,
                    "velocity": 0.48031496062992124,
                    "duration": 0.10768899999999348
                },
                {
                    "name": "A3",
                    "midi": 57,
                    "time": 214.62417699999534,
                    "velocity": 0.41732283464566927,
                    "duration": 0.10768899999999348
                },
                {
                    "name": "C4",
                    "midi": 60,
                    "time": 214.73186599999534,
                    "velocity": 0.41732283464566927,
                    "duration": 0.10768899999999348
                },
                {
                    "name": "F4",
                    "midi": 65,
                    "time": 214.83955499999533,
                    "velocity": 0.41732283464566927,
                    "duration": 0.10768899999999348
                },
                {
                    "name": "A3",
                    "midi": 57,
                    "time": 214.94724399999532,
                    "velocity": 0.4566929133858268,
                    "duration": 0.10768899999999348
                },
                {
                    "name": "C4",
                    "midi": 60,
                    "time": 215.05493299999532,
                    "velocity": 0.41732283464566927,
                    "duration": 0.10768899999999348
                },
                {
                    "name": "F4",
                    "midi": 65,
                    "time": 215.1626219999953,
                    "velocity": 0.41732283464566927,
                    "duration": 0.10768899999999348
                },
                {
                    "name": "A4",
                    "midi": 69,
                    "time": 215.2703109999953,
                    "velocity": 0.41732283464566927,
                    "duration": 0.10768899999999348
                },
                {
                    "name": "C4",
                    "midi": 60,
                    "time": 215.3779999999953,
                    "velocity": 0.4566929133858268,
                    "duration": 0.10768899999999348
                },
                {
                    "name": "F4",
                    "midi": 65,
                    "time": 215.4856889999953,
                    "velocity": 0.41732283464566927,
                    "duration": 0.10768899999999348
                },
                {
                    "name": "A4",
                    "midi": 69,
                    "time": 215.59337799999528,
                    "velocity": 0.41732283464566927,
                    "duration": 0.10768899999999348
                },
                {
                    "name": "C5",
                    "midi": 72,
                    "time": 215.70106699999528,
                    "velocity": 0.41732283464566927,
                    "duration": 0.10768899999999348
                },
                {
                    "name": "F4",
                    "midi": 65,
                    "time": 215.80875599999527,
                    "velocity": 0.4566929133858268,
                    "duration": 0.10768899999999348
                },
                {
                    "name": "A4",
                    "midi": 69,
                    "time": 215.91644499999526,
                    "velocity": 0.41732283464566927,
                    "duration": 0.10768899999999348
                },
                {
                    "name": "C5",
                    "midi": 72,
                    "time": 216.02413399999526,
                    "velocity": 0.41732283464566927,
                    "duration": 0.10768899999999348
                },
                {
                    "name": "F5",
                    "midi": 77,
                    "time": 216.13182299999525,
                    "velocity": 0.41732283464566927,
                    "duration": 0.10768899999999348
                },
                {
                    "name": "A4",
                    "midi": 69,
                    "time": 216.23951199999524,
                    "velocity": 0.5275590551181102,
                    "duration": 0.10768899999999348
                },
                {
                    "name": "F5",
                    "midi": 77,
                    "time": 216.34720099999524,
                    "velocity": 0.41732283464566927,
                    "duration": 0.10768899999999348
                },
                {
                    "name": "E5",
                    "midi": 76,
                    "time": 216.45488999999523,
                    "velocity": 0.41732283464566927,
                    "duration": 0.10768899999999348
                },
                {
                    "name": "F5",
                    "midi": 77,
                    "time": 216.56257899999522,
                    "velocity": 0.41732283464566927,
                    "duration": 0.10768899999999348
                },
                {
                    "name": "A4",
                    "midi": 69,
                    "time": 216.67026799999522,
                    "velocity": 0.4566929133858268,
                    "duration": 0.10768899999999348
                },
                {
                    "name": "F5",
                    "midi": 77,
                    "time": 216.7779569999952,
                    "velocity": 0.41732283464566927,
                    "duration": 0.10768899999999348
                },
                {
                    "name": "A4",
                    "midi": 69,
                    "time": 216.8856459999952,
                    "velocity": 0.41732283464566927,
                    "duration": 0.10768899999999348
                },
                {
                    "name": "F5",
                    "midi": 77,
                    "time": 216.9933349999952,
                    "velocity": 0.41732283464566927,
                    "duration": 0.10768899999999348
                },
                {
                    "name": "A4",
                    "midi": 69,
                    "time": 217.1010239999952,
                    "velocity": 0.44881889763779526,
                    "duration": 0.10768899999999348
                },
                {
                    "name": "F5",
                    "midi": 77,
                    "time": 217.20871299999519,
                    "velocity": 0.4409448818897638,
                    "duration": 0.10768899999999348
                },
                {
                    "name": "A#4",
                    "midi": 70,
                    "time": 217.31640199999518,
                    "velocity": 0.4409448818897638,
                    "duration": 0.10768899999999348
                },
                {
                    "name": "F5",
                    "midi": 77,
                    "time": 217.42409099999517,
                    "velocity": 0.4330708661417323,
                    "duration": 0.10768899999999348
                },
                {
                    "name": "C5",
                    "midi": 72,
                    "time": 217.53177999999517,
                    "velocity": 0.4251968503937008,
                    "duration": 0.10768899999999348
                },
                {
                    "name": "F5",
                    "midi": 77,
                    "time": 217.63946899999516,
                    "velocity": 0.41732283464566927,
                    "duration": 0.10768899999999348
                },
                {
                    "name": "C#5",
                    "midi": 73,
                    "time": 217.74715799999515,
                    "velocity": 0.4094488188976378,
                    "duration": 0.10768899999999348
                },
                {
                    "name": "F5",
                    "midi": 77,
                    "time": 217.85484699999515,
                    "velocity": 0.4094488188976378,
                    "duration": 0.10768899999999348
                },
                {
                    "name": "C4",
                    "midi": 60,
                    "time": 217.96253599999514,
                    "velocity": 0.4094488188976378,
                    "duration": 0.10768899999999348
                },
                {
                    "name": "F4",
                    "midi": 65,
                    "time": 218.07022499999513,
                    "velocity": 0.3700787401574803,
                    "duration": 0.10768899999999348
                },
                {
                    "name": "G#4",
                    "midi": 68,
                    "time": 218.17791399999513,
                    "velocity": 0.3700787401574803,
                    "duration": 0.10768899999999348
                },
                {
                    "name": "C5",
                    "midi": 72,
                    "time": 218.28560299999512,
                    "velocity": 0.3700787401574803,
                    "duration": 0.10768899999999348
                },
                {
                    "name": "B4",
                    "midi": 71,
                    "time": 218.3932919999951,
                    "velocity": 0.4094488188976378,
                    "duration": 0.10768899999999348
                },
                {
                    "name": "C5",
                    "midi": 72,
                    "time": 218.5009809999951,
                    "velocity": 0.3700787401574803,
                    "duration": 0.10768899999999348
                },
                {
                    "name": "B4",
                    "midi": 71,
                    "time": 218.6086699999951,
                    "velocity": 0.3700787401574803,
                    "duration": 0.10768899999999348
                },
                {
                    "name": "C5",
                    "midi": 72,
                    "time": 218.7163589999951,
                    "velocity": 0.3700787401574803,
                    "duration": 0.10768899999999348
                },
                {
                    "name": "C4",
                    "midi": 60,
                    "time": 218.8240479999951,
                    "velocity": 0.4094488188976378,
                    "duration": 0.10768899999999348
                },
                {
                    "name": "E4",
                    "midi": 64,
                    "time": 218.93173699999508,
                    "velocity": 0.3700787401574803,
                    "duration": 0.10768899999999348
                },
                {
                    "name": "G4",
                    "midi": 67,
                    "time": 219.03942599999507,
                    "velocity": 0.3700787401574803,
                    "duration": 0.10768899999999348
                },
                {
                    "name": "C5",
                    "midi": 72,
                    "time": 219.14711499999507,
                    "velocity": 0.3700787401574803,
                    "duration": 0.10768899999999348
                },
                {
                    "name": "C4",
                    "midi": 60,
                    "time": 219.25480399999506,
                    "velocity": 0.4094488188976378,
                    "duration": 0.10768899999999348
                },
                {
                    "name": "G4",
                    "midi": 67,
                    "time": 219.36249299999506,
                    "velocity": 0.3700787401574803,
                    "duration": 0.10768899999999348
                },
                {
                    "name": "A#4",
                    "midi": 70,
                    "time": 219.47018199999505,
                    "velocity": 0.3700787401574803,
                    "duration": 0.10768899999999348
                },
                {
                    "name": "C5",
                    "midi": 72,
                    "time": 219.57787099999504,
                    "velocity": 0.3700787401574803,
                    "duration": 0.10768899999999348
                },
                {
                    "name": "F3",
                    "midi": 53,
                    "time": 219.68555999999504,
                    "velocity": 0.4094488188976378,
                    "duration": 0.10768899999999348
                },
                {
                    "name": "F4",
                    "midi": 65,
                    "time": 219.79324899999503,
                    "velocity": 0.2992125984251969,
                    "duration": 0.10768899999999348
                },
                {
                    "name": "G#4",
                    "midi": 68,
                    "time": 219.79324899999503,
                    "velocity": 0.2992125984251969,
                    "duration": 0.10768899999999348
                },
                {
                    "name": "C4",
                    "midi": 60,
                    "time": 219.90093799999502,
                    "velocity": 0.30708661417322836,
                    "duration": 0.10768899999999348
                },
                {
                    "name": "C5",
                    "midi": 72,
                    "time": 219.90093799999502,
                    "velocity": 0.30708661417322836,
                    "duration": 0.10768899999999348
                },
                {
                    "name": "G#4",
                    "midi": 68,
                    "time": 220.00862699999502,
                    "velocity": 0.3228346456692913,
                    "duration": 0.10768899999999348
                },
                {
                    "name": "F4",
                    "midi": 65,
                    "time": 220.00862699999502,
                    "velocity": 0.3228346456692913,
                    "duration": 0.10768899999999348
                },
                {
                    "name": "C5",
                    "midi": 72,
                    "time": 220.116315999995,
                    "velocity": 0.3543307086614173,
                    "duration": 0.10768899999999348
                },
                {
                    "name": "C4",
                    "midi": 60,
                    "time": 220.116315999995,
                    "velocity": 0.3543307086614173,
                    "duration": 0.10768899999999348
                },
                {
                    "name": "F4",
                    "midi": 65,
                    "time": 220.224004999995,
                    "velocity": 0.3464566929133858,
                    "duration": 0.10768899999999348
                },
                {
                    "name": "G#4",
                    "midi": 68,
                    "time": 220.224004999995,
                    "velocity": 0.3464566929133858,
                    "duration": 0.10768899999999348
                },
                {
                    "name": "C5",
                    "midi": 72,
                    "time": 220.331693999995,
                    "velocity": 0.3543307086614173,
                    "duration": 0.10768899999999348
                },
                {
                    "name": "C4",
                    "midi": 60,
                    "time": 220.331693999995,
                    "velocity": 0.3543307086614173,
                    "duration": 0.10768899999999348
                },
                {
                    "name": "F4",
                    "midi": 65,
                    "time": 220.439382999995,
                    "velocity": 0.3543307086614173,
                    "duration": 0.10768899999999348
                },
                {
                    "name": "G#4",
                    "midi": 68,
                    "time": 220.439382999995,
                    "velocity": 0.3543307086614173,
                    "duration": 0.10768899999999348
                },
                {
                    "name": "C4",
                    "midi": 60,
                    "time": 220.54707199999498,
                    "velocity": 0.36220472440944884,
                    "duration": 0.10768899999999348
                },
                {
                    "name": "C5",
                    "midi": 72,
                    "time": 220.54707199999498,
                    "velocity": 0.36220472440944884,
                    "duration": 0.10768899999999348
                },
                {
                    "name": "F4",
                    "midi": 65,
                    "time": 220.65476099999498,
                    "velocity": 0.36220472440944884,
                    "duration": 0.10768899999999348
                },
                {
                    "name": "G#4",
                    "midi": 68,
                    "time": 220.65476099999498,
                    "velocity": 0.36220472440944884,
                    "duration": 0.10768899999999348
                },
                {
                    "name": "C4",
                    "midi": 60,
                    "time": 220.76244999999497,
                    "velocity": 0.3543307086614173,
                    "duration": 0.10768899999999348
                },
                {
                    "name": "C5",
                    "midi": 72,
                    "time": 220.76244999999497,
                    "velocity": 0.3543307086614173,
                    "duration": 0.10768899999999348
                },
                {
                    "name": "G#4",
                    "midi": 68,
                    "time": 220.87013899999496,
                    "velocity": 0.3543307086614173,
                    "duration": 0.10768899999999348
                },
                {
                    "name": "F4",
                    "midi": 65,
                    "time": 220.87013899999496,
                    "velocity": 0.3543307086614173,
                    "duration": 0.10768899999999348
                },
                {
                    "name": "C5",
                    "midi": 72,
                    "time": 220.97782799999496,
                    "velocity": 0.3543307086614173,
                    "duration": 0.10768899999999348
                },
                {
                    "name": "C4",
                    "midi": 60,
                    "time": 220.97782799999496,
                    "velocity": 0.3543307086614173,
                    "duration": 0.10768899999999348
                },
                {
                    "name": "F4",
                    "midi": 65,
                    "time": 221.08551699999495,
                    "velocity": 0.3464566929133858,
                    "duration": 0.10768899999999348
                },
                {
                    "name": "G#4",
                    "midi": 68,
                    "time": 221.08551699999495,
                    "velocity": 0.3464566929133858,
                    "duration": 0.10768899999999348
                },
                {
                    "name": "C5",
                    "midi": 72,
                    "time": 221.19320599999494,
                    "velocity": 0.3464566929133858,
                    "duration": 0.10768899999999348
                },
                {
                    "name": "C4",
                    "midi": 60,
                    "time": 221.19320599999494,
                    "velocity": 0.3464566929133858,
                    "duration": 0.10768899999999348
                },
                {
                    "name": "F4",
                    "midi": 65,
                    "time": 221.30089499999494,
                    "velocity": 0.33858267716535434,
                    "duration": 0.10768899999999348
                },
                {
                    "name": "G#4",
                    "midi": 68,
                    "time": 221.30089499999494,
                    "velocity": 0.33858267716535434,
                    "duration": 0.10768899999999348
                },
                {
                    "name": "F3",
                    "midi": 53,
                    "time": 221.40858399999493,
                    "velocity": 0.4251968503937008,
                    "duration": 0.10768899999999348
                },
                {
                    "name": "F4",
                    "midi": 65,
                    "time": 221.51627299999492,
                    "velocity": 0.2992125984251969,
                    "duration": 0.10768899999999348
                },
                {
                    "name": "G#4",
                    "midi": 68,
                    "time": 221.51627299999492,
                    "velocity": 0.2992125984251969,
                    "duration": 0.10768899999999348
                },
                {
                    "name": "C5",
                    "midi": 72,
                    "time": 221.62396199999492,
                    "velocity": 0.30708661417322836,
                    "duration": 0.10768899999999348
                },
                {
                    "name": "C4",
                    "midi": 60,
                    "time": 221.62396199999492,
                    "velocity": 0.30708661417322836,
                    "duration": 0.10768899999999348
                },
                {
                    "name": "F4",
                    "midi": 65,
                    "time": 221.7316509999949,
                    "velocity": 0.3228346456692913,
                    "duration": 0.10768899999999348
                },
                {
                    "name": "G#4",
                    "midi": 68,
                    "time": 221.7316509999949,
                    "velocity": 0.3228346456692913,
                    "duration": 0.10768899999999348
                },
                {
                    "name": "C5",
                    "midi": 72,
                    "time": 221.8393399999949,
                    "velocity": 0.3543307086614173,
                    "duration": 0.10768899999999348
                },
                {
                    "name": "C4",
                    "midi": 60,
                    "time": 221.8393399999949,
                    "velocity": 0.3543307086614173,
                    "duration": 0.10768899999999348
                },
                {
                    "name": "F4",
                    "midi": 65,
                    "time": 221.9470289999949,
                    "velocity": 0.3464566929133858,
                    "duration": 0.10768899999999348
                },
                {
                    "name": "G#4",
                    "midi": 68,
                    "time": 221.9470289999949,
                    "velocity": 0.3464566929133858,
                    "duration": 0.10768899999999348
                },
                {
                    "name": "C5",
                    "midi": 72,
                    "time": 222.0547179999949,
                    "velocity": 0.3543307086614173,
                    "duration": 0.10768899999999348
                },
                {
                    "name": "C4",
                    "midi": 60,
                    "time": 222.0547179999949,
                    "velocity": 0.3543307086614173,
                    "duration": 0.10768899999999348
                },
                {
                    "name": "G#4",
                    "midi": 68,
                    "time": 222.1624069999949,
                    "velocity": 0.3543307086614173,
                    "duration": 0.10768899999999348
                },
                {
                    "name": "F4",
                    "midi": 65,
                    "time": 222.1624069999949,
                    "velocity": 0.3543307086614173,
                    "duration": 0.10768899999999348
                },
                {
                    "name": "C4",
                    "midi": 60,
                    "time": 222.27009599999488,
                    "velocity": 0.36220472440944884,
                    "duration": 0.10768899999999348
                },
                {
                    "name": "C5",
                    "midi": 72,
                    "time": 222.27009599999488,
                    "velocity": 0.36220472440944884,
                    "duration": 0.10768899999999348
                },
                {
                    "name": "F4",
                    "midi": 65,
                    "time": 222.37778499999487,
                    "velocity": 0.36220472440944884,
                    "duration": 0.10768899999999348
                },
                {
                    "name": "G#4",
                    "midi": 68,
                    "time": 222.37778499999487,
                    "velocity": 0.36220472440944884,
                    "duration": 0.10768899999999348
                },
                {
                    "name": "C5",
                    "midi": 72,
                    "time": 222.48547399999487,
                    "velocity": 0.3543307086614173,
                    "duration": 0.10768899999999348
                },
                {
                    "name": "C4",
                    "midi": 60,
                    "time": 222.48547399999487,
                    "velocity": 0.3543307086614173,
                    "duration": 0.10768899999999348
                },
                {
                    "name": "F4",
                    "midi": 65,
                    "time": 222.59316299999486,
                    "velocity": 0.3543307086614173,
                    "duration": 0.10768899999999348
                },
                {
                    "name": "G#4",
                    "midi": 68,
                    "time": 222.59316299999486,
                    "velocity": 0.3543307086614173,
                    "duration": 0.10768899999999348
                },
                {
                    "name": "C4",
                    "midi": 60,
                    "time": 222.70085199999485,
                    "velocity": 0.3543307086614173,
                    "duration": 0.10768899999999348
                },
                {
                    "name": "C5",
                    "midi": 72,
                    "time": 222.70085199999485,
                    "velocity": 0.3543307086614173,
                    "duration": 0.10768899999999348
                },
                {
                    "name": "G#4",
                    "midi": 68,
                    "time": 222.80854099999485,
                    "velocity": 0.3464566929133858,
                    "duration": 0.10768899999999348
                },
                {
                    "name": "F4",
                    "midi": 65,
                    "time": 222.80854099999485,
                    "velocity": 0.3464566929133858,
                    "duration": 0.10768899999999348
                },
                {
                    "name": "C5",
                    "midi": 72,
                    "time": 222.91622999999484,
                    "velocity": 0.3464566929133858,
                    "duration": 0.10768899999999348
                },
                {
                    "name": "C4",
                    "midi": 60,
                    "time": 222.91622999999484,
                    "velocity": 0.3464566929133858,
                    "duration": 0.10768899999999348
                },
                {
                    "name": "G#4",
                    "midi": 68,
                    "time": 223.02391899999483,
                    "velocity": 0.33858267716535434,
                    "duration": 0.10768899999999348
                },
                {
                    "name": "F4",
                    "midi": 65,
                    "time": 223.02391899999483,
                    "velocity": 0.33858267716535434,
                    "duration": 0.10768899999999348
                },
                {
                    "name": "G#2",
                    "midi": 44,
                    "time": 223.13160799999483,
                    "velocity": 0.4330708661417323,
                    "duration": 0.10768899999999348
                },
                {
                    "name": "F#3",
                    "midi": 54,
                    "time": 223.23929699999482,
                    "velocity": 0.31496062992125984,
                    "duration": 0.10768899999999348
                },
                {
                    "name": "G#3",
                    "midi": 56,
                    "time": 223.23929699999482,
                    "velocity": 0.31496062992125984,
                    "duration": 0.10768899999999348
                },
                {
                    "name": "C4",
                    "midi": 60,
                    "time": 223.3469859999948,
                    "velocity": 0.3228346456692913,
                    "duration": 0.10768899999999348
                },
                {
                    "name": "D#3",
                    "midi": 51,
                    "time": 223.3469859999948,
                    "velocity": 0.3228346456692913,
                    "duration": 0.10768899999999348
                },
                {
                    "name": "F#3",
                    "midi": 54,
                    "time": 223.4546749999948,
                    "velocity": 0.33858267716535434,
                    "duration": 0.10768899999999348
                },
                {
                    "name": "G#3",
                    "midi": 56,
                    "time": 223.4546749999948,
                    "velocity": 0.33858267716535434,
                    "duration": 0.10768899999999348
                },
                {
                    "name": "C4",
                    "midi": 60,
                    "time": 223.5623639999948,
                    "velocity": 0.3700787401574803,
                    "duration": 0.10768899999999348
                },
                {
                    "name": "D#3",
                    "midi": 51,
                    "time": 223.5623639999948,
                    "velocity": 0.3700787401574803,
                    "duration": 0.10768899999999348
                },
                {
                    "name": "F#3",
                    "midi": 54,
                    "time": 223.6700529999948,
                    "velocity": 0.36220472440944884,
                    "duration": 0.10768899999999348
                },
                {
                    "name": "G#3",
                    "midi": 56,
                    "time": 223.6700529999948,
                    "velocity": 0.36220472440944884,
                    "duration": 0.10768899999999348
                },
                {
                    "name": "C4",
                    "midi": 60,
                    "time": 223.7777419999948,
                    "velocity": 0.3700787401574803,
                    "duration": 0.10768899999999348
                },
                {
                    "name": "D#3",
                    "midi": 51,
                    "time": 223.7777419999948,
                    "velocity": 0.3700787401574803,
                    "duration": 0.10768899999999348
                },
                {
                    "name": "G#3",
                    "midi": 56,
                    "time": 223.88543099999478,
                    "velocity": 0.3779527559055118,
                    "duration": 0.10768899999999348
                },
                {
                    "name": "F#3",
                    "midi": 54,
                    "time": 223.88543099999478,
                    "velocity": 0.3779527559055118,
                    "duration": 0.10768899999999348
                },
                {
                    "name": "D#3",
                    "midi": 51,
                    "time": 223.99311999999478,
                    "velocity": 0.3858267716535433,
                    "duration": 0.10768899999999348
                },
                {
                    "name": "C4",
                    "midi": 60,
                    "time": 223.99311999999478,
                    "velocity": 0.3858267716535433,
                    "duration": 0.10768899999999348
                },
                {
                    "name": "G#3",
                    "midi": 56,
                    "time": 224.10080899999477,
                    "velocity": 0.3858267716535433,
                    "duration": 0.10768899999999348
                },
                {
                    "name": "F#3",
                    "midi": 54,
                    "time": 224.10080899999477,
                    "velocity": 0.3858267716535433,
                    "duration": 0.10768899999999348
                },
                {
                    "name": "D#3",
                    "midi": 51,
                    "time": 224.20849799999476,
                    "velocity": 0.3779527559055118,
                    "duration": 0.10768899999999348
                },
                {
                    "name": "C4",
                    "midi": 60,
                    "time": 224.20849799999476,
                    "velocity": 0.3779527559055118,
                    "duration": 0.10768899999999348
                },
                {
                    "name": "F#3",
                    "midi": 54,
                    "time": 224.31618699999476,
                    "velocity": 0.3700787401574803,
                    "duration": 0.10768899999999348
                },
                {
                    "name": "G#3",
                    "midi": 56,
                    "time": 224.31618699999476,
                    "velocity": 0.3700787401574803,
                    "duration": 0.10768899999999348
                },
                {
                    "name": "C4",
                    "midi": 60,
                    "time": 224.42387599999475,
                    "velocity": 0.3700787401574803,
                    "duration": 0.10768899999999348
                },
                {
                    "name": "D#3",
                    "midi": 51,
                    "time": 224.42387599999475,
                    "velocity": 0.3700787401574803,
                    "duration": 0.10768899999999348
                },
                {
                    "name": "F#3",
                    "midi": 54,
                    "time": 224.53156499999474,
                    "velocity": 0.36220472440944884,
                    "duration": 0.10768899999999348
                },
                {
                    "name": "G#3",
                    "midi": 56,
                    "time": 224.53156499999474,
                    "velocity": 0.36220472440944884,
                    "duration": 0.10768899999999348
                },
                {
                    "name": "C4",
                    "midi": 60,
                    "time": 224.63925399999474,
                    "velocity": 0.36220472440944884,
                    "duration": 0.10768899999999348
                },
                {
                    "name": "D#3",
                    "midi": 51,
                    "time": 224.63925399999474,
                    "velocity": 0.36220472440944884,
                    "duration": 0.10768899999999348
                },
                {
                    "name": "G#3",
                    "midi": 56,
                    "time": 224.74694299999473,
                    "velocity": 0.3543307086614173,
                    "duration": 0.10768899999999348
                },
                {
                    "name": "F#3",
                    "midi": 54,
                    "time": 224.74694299999473,
                    "velocity": 0.3543307086614173,
                    "duration": 0.10768899999999348
                },
                {
                    "name": "G#2",
                    "midi": 44,
                    "time": 224.85463199999472,
                    "velocity": 0.4251968503937008,
                    "duration": 0.10768899999999348
                },
                {
                    "name": "F#3",
                    "midi": 54,
                    "time": 224.96232099999472,
                    "velocity": 0.31496062992125984,
                    "duration": 0.10768899999999348
                },
                {
                    "name": "G#3",
                    "midi": 56,
                    "time": 224.96232099999472,
                    "velocity": 0.31496062992125984,
                    "duration": 0.10768899999999348
                },
                {
                    "name": "C4",
                    "midi": 60,
                    "time": 225.0700099999947,
                    "velocity": 0.3228346456692913,
                    "duration": 0.10768899999999348
                },
                {
                    "name": "D#3",
                    "midi": 51,
                    "time": 225.0700099999947,
                    "velocity": 0.3228346456692913,
                    "duration": 0.10768899999999348
                },
                {
                    "name": "F#3",
                    "midi": 54,
                    "time": 225.1776989999947,
                    "velocity": 0.33858267716535434,
                    "duration": 0.10768899999999348
                },
                {
                    "name": "G#3",
                    "midi": 56,
                    "time": 225.1776989999947,
                    "velocity": 0.33858267716535434,
                    "duration": 0.10768899999999348
                },
                {
                    "name": "C4",
                    "midi": 60,
                    "time": 225.2853879999947,
                    "velocity": 0.3700787401574803,
                    "duration": 0.10768899999999348
                },
                {
                    "name": "D#3",
                    "midi": 51,
                    "time": 225.2853879999947,
                    "velocity": 0.3700787401574803,
                    "duration": 0.10768899999999348
                },
                {
                    "name": "F#3",
                    "midi": 54,
                    "time": 225.3930769999947,
                    "velocity": 0.36220472440944884,
                    "duration": 0.10768899999999348
                },
                {
                    "name": "G#3",
                    "midi": 56,
                    "time": 225.3930769999947,
                    "velocity": 0.36220472440944884,
                    "duration": 0.10768899999999348
                },
                {
                    "name": "D#3",
                    "midi": 51,
                    "time": 225.50076599999468,
                    "velocity": 0.3700787401574803,
                    "duration": 0.10768899999999348
                },
                {
                    "name": "C4",
                    "midi": 60,
                    "time": 225.50076599999468,
                    "velocity": 0.3700787401574803,
                    "duration": 0.10768899999999348
                },
                {
                    "name": "G#3",
                    "midi": 56,
                    "time": 225.60845499999468,
                    "velocity": 0.3779527559055118,
                    "duration": 0.10768899999999348
                },
                {
                    "name": "F#3",
                    "midi": 54,
                    "time": 225.60845499999468,
                    "velocity": 0.3779527559055118,
                    "duration": 0.10768899999999348
                },
                {
                    "name": "C4",
                    "midi": 60,
                    "time": 225.71614399999467,
                    "velocity": 0.3858267716535433,
                    "duration": 0.10768899999999348
                },
                {
                    "name": "D#3",
                    "midi": 51,
                    "time": 225.71614399999467,
                    "velocity": 0.3858267716535433,
                    "duration": 0.10768899999999348
                },
                {
                    "name": "F#3",
                    "midi": 54,
                    "time": 225.82383299999466,
                    "velocity": 0.3858267716535433,
                    "duration": 0.10768899999999348
                },
                {
                    "name": "G#3",
                    "midi": 56,
                    "time": 225.82383299999466,
                    "velocity": 0.3858267716535433,
                    "duration": 0.10768899999999348
                },
                {
                    "name": "C4",
                    "midi": 60,
                    "time": 225.93152199999466,
                    "velocity": 0.3779527559055118,
                    "duration": 0.10768899999999348
                },
                {
                    "name": "D#3",
                    "midi": 51,
                    "time": 225.93152199999466,
                    "velocity": 0.3779527559055118,
                    "duration": 0.10768899999999348
                },
                {
                    "name": "G#3",
                    "midi": 56,
                    "time": 226.03921099999465,
                    "velocity": 0.3700787401574803,
                    "duration": 0.10768899999999348
                },
                {
                    "name": "F#3",
                    "midi": 54,
                    "time": 226.03921099999465,
                    "velocity": 0.3700787401574803,
                    "duration": 0.10768899999999348
                },
                {
                    "name": "D#3",
                    "midi": 51,
                    "time": 226.14689999999464,
                    "velocity": 0.3700787401574803,
                    "duration": 0.10768899999999348
                },
                {
                    "name": "C4",
                    "midi": 60,
                    "time": 226.14689999999464,
                    "velocity": 0.3700787401574803,
                    "duration": 0.10768899999999348
                },
                {
                    "name": "F#3",
                    "midi": 54,
                    "time": 226.25458899999464,
                    "velocity": 0.36220472440944884,
                    "duration": 0.10768899999999348
                },
                {
                    "name": "G#3",
                    "midi": 56,
                    "time": 226.25458899999464,
                    "velocity": 0.36220472440944884,
                    "duration": 0.10768899999999348
                },
                {
                    "name": "D#3",
                    "midi": 51,
                    "time": 226.36227799999463,
                    "velocity": 0.36220472440944884,
                    "duration": 0.10768899999999348
                },
                {
                    "name": "C4",
                    "midi": 60,
                    "time": 226.36227799999463,
                    "velocity": 0.36220472440944884,
                    "duration": 0.10768899999999348
                },
                {
                    "name": "G#3",
                    "midi": 56,
                    "time": 226.46996699999463,
                    "velocity": 0.3543307086614173,
                    "duration": 0.10768899999999348
                },
                {
                    "name": "F#3",
                    "midi": 54,
                    "time": 226.46996699999463,
                    "velocity": 0.3543307086614173,
                    "duration": 0.10768899999999348
                },
                {
                    "name": "C#3",
                    "midi": 49,
                    "time": 226.57765599999462,
                    "velocity": 0.4409448818897638,
                    "duration": 0.10768899999999348
                },
                {
                    "name": "C#4",
                    "midi": 61,
                    "time": 226.6853449999946,
                    "velocity": 0.33070866141732286,
                    "duration": 0.10768899999999348
                },
                {
                    "name": "F4",
                    "midi": 65,
                    "time": 226.6853449999946,
                    "velocity": 0.33070866141732286,
                    "duration": 0.10768899999999348
                },
                {
                    "name": "G#4",
                    "midi": 68,
                    "time": 226.7930339999946,
                    "velocity": 0.33858267716535434,
                    "duration": 0.10768899999999348
                },
                {
                    "name": "G#3",
                    "midi": 56,
                    "time": 226.7930339999946,
                    "velocity": 0.33858267716535434,
                    "duration": 0.10768899999999348
                },
                {
                    "name": "F4",
                    "midi": 65,
                    "time": 226.9007229999946,
                    "velocity": 0.3543307086614173,
                    "duration": 0.10768899999999348
                },
                {
                    "name": "C#4",
                    "midi": 61,
                    "time": 226.9007229999946,
                    "velocity": 0.3543307086614173,
                    "duration": 0.10768899999999348
                },
                {
                    "name": "G#3",
                    "midi": 56,
                    "time": 227.0084119999946,
                    "velocity": 0.3858267716535433,
                    "duration": 0.10768899999999348
                },
                {
                    "name": "G#4",
                    "midi": 68,
                    "time": 227.0084119999946,
                    "velocity": 0.3858267716535433,
                    "duration": 0.10768899999999348
                },
                {
                    "name": "C#4",
                    "midi": 61,
                    "time": 227.1161009999946,
                    "velocity": 0.3779527559055118,
                    "duration": 0.10768899999999348
                },
                {
                    "name": "F4",
                    "midi": 65,
                    "time": 227.1161009999946,
                    "velocity": 0.3779527559055118,
                    "duration": 0.10768899999999348
                },
                {
                    "name": "G#4",
                    "midi": 68,
                    "time": 227.22378999999458,
                    "velocity": 0.3858267716535433,
                    "duration": 0.10768899999999348
                },
                {
                    "name": "G#3",
                    "midi": 56,
                    "time": 227.22378999999458,
                    "velocity": 0.3858267716535433,
                    "duration": 0.10768899999999348
                },
                {
                    "name": "C#4",
                    "midi": 61,
                    "time": 227.33147899999457,
                    "velocity": 0.3937007874015748,
                    "duration": 0.10768899999999348
                },
                {
                    "name": "F4",
                    "midi": 65,
                    "time": 227.33147899999457,
                    "velocity": 0.3937007874015748,
                    "duration": 0.10768899999999348
                },
                {
                    "name": "G#4",
                    "midi": 68,
                    "time": 227.43916799999457,
                    "velocity": 0.4015748031496063,
                    "duration": 0.10768899999999348
                },
                {
                    "name": "G#3",
                    "midi": 56,
                    "time": 227.43916799999457,
                    "velocity": 0.4015748031496063,
                    "duration": 0.10768899999999348
                },
                {
                    "name": "C#4",
                    "midi": 61,
                    "time": 227.54685699999456,
                    "velocity": 0.4015748031496063,
                    "duration": 0.10768899999999348
                },
                {
                    "name": "F4",
                    "midi": 65,
                    "time": 227.54685699999456,
                    "velocity": 0.4015748031496063,
                    "duration": 0.10768899999999348
                },
                {
                    "name": "G#3",
                    "midi": 56,
                    "time": 227.65454599999455,
                    "velocity": 0.3937007874015748,
                    "duration": 0.10768899999999348
                },
                {
                    "name": "G#4",
                    "midi": 68,
                    "time": 227.65454599999455,
                    "velocity": 0.3937007874015748,
                    "duration": 0.10768899999999348
                },
                {
                    "name": "F4",
                    "midi": 65,
                    "time": 227.76223499999455,
                    "velocity": 0.3858267716535433,
                    "duration": 0.10768899999999348
                },
                {
                    "name": "C#4",
                    "midi": 61,
                    "time": 227.76223499999455,
                    "velocity": 0.3858267716535433,
                    "duration": 0.10768899999999348
                },
                {
                    "name": "G#4",
                    "midi": 68,
                    "time": 227.86992399999454,
                    "velocity": 0.3858267716535433,
                    "duration": 0.10768899999999348
                },
                {
                    "name": "G#3",
                    "midi": 56,
                    "time": 227.86992399999454,
                    "velocity": 0.3858267716535433,
                    "duration": 0.10768899999999348
                },
                {
                    "name": "C#4",
                    "midi": 61,
                    "time": 227.97761299999453,
                    "velocity": 0.3779527559055118,
                    "duration": 0.10768899999999348
                },
                {
                    "name": "F4",
                    "midi": 65,
                    "time": 227.97761299999453,
                    "velocity": 0.3779527559055118,
                    "duration": 0.10768899999999348
                },
                {
                    "name": "G#4",
                    "midi": 68,
                    "time": 228.08530199999453,
                    "velocity": 0.3779527559055118,
                    "duration": 0.10768899999999348
                },
                {
                    "name": "G#3",
                    "midi": 56,
                    "time": 228.08530199999453,
                    "velocity": 0.3779527559055118,
                    "duration": 0.10768899999999348
                },
                {
                    "name": "C#4",
                    "midi": 61,
                    "time": 228.19299099999452,
                    "velocity": 0.3700787401574803,
                    "duration": 0.10768899999999348
                },
                {
                    "name": "F4",
                    "midi": 65,
                    "time": 228.19299099999452,
                    "velocity": 0.3700787401574803,
                    "duration": 0.10768899999999348
                },
                {
                    "name": "C#3",
                    "midi": 49,
                    "time": 228.30067999999451,
                    "velocity": 0.4409448818897638,
                    "duration": 0.10768899999999348
                },
                {
                    "name": "C#4",
                    "midi": 61,
                    "time": 228.4083689999945,
                    "velocity": 0.33070866141732286,
                    "duration": 0.10768899999999348
                },
                {
                    "name": "F4",
                    "midi": 65,
                    "time": 228.4083689999945,
                    "velocity": 0.33070866141732286,
                    "duration": 0.10768899999999348
                },
                {
                    "name": "G#4",
                    "midi": 68,
                    "time": 228.5160579999945,
                    "velocity": 0.33858267716535434,
                    "duration": 0.10768899999999348
                },
                {
                    "name": "G#3",
                    "midi": 56,
                    "time": 228.5160579999945,
                    "velocity": 0.33858267716535434,
                    "duration": 0.10768899999999348
                },
                {
                    "name": "C#4",
                    "midi": 61,
                    "time": 228.6237469999945,
                    "velocity": 0.3543307086614173,
                    "duration": 0.10768899999999348
                },
                {
                    "name": "F4",
                    "midi": 65,
                    "time": 228.6237469999945,
                    "velocity": 0.3543307086614173,
                    "duration": 0.10768899999999348
                },
                {
                    "name": "G#4",
                    "midi": 68,
                    "time": 228.7314359999945,
                    "velocity": 0.3858267716535433,
                    "duration": 0.21537799999998697
                },
                {
                    "name": "C#5",
                    "midi": 73,
                    "time": 228.94681399999448,
                    "velocity": 0.4330708661417323,
                    "duration": 0.21537799999998697
                },
                {
                    "name": "F5",
                    "midi": 77,
                    "time": 229.16219199999446,
                    "velocity": 0.4566929133858268,
                    "duration": 0.21537799999998697
                },
                {
                    "name": "G#5",
                    "midi": 80,
                    "time": 229.37756999999445,
                    "velocity": 0.4881889763779528,
                    "duration": 0.21537799999998697
                },
                {
                    "name": "C#6",
                    "midi": 85,
                    "time": 229.59294799999444,
                    "velocity": 0.5196850393700787,
                    "duration": 0.21537799999998697
                },
                {
                    "name": "C#6",
                    "midi": 85,
                    "time": 229.80832599999442,
                    "velocity": 0.5433070866141733,
                    "duration": 0.21537799999998697
                },
                {
                    "name": "C#6",
                    "midi": 85,
                    "time": 230.0237039999944,
                    "velocity": 0.6299212598425197,
                    "duration": 0.6461339999999893
                },
                {
                    "name": "A#5",
                    "midi": 82,
                    "time": 230.0237039999944,
                    "velocity": 0.6299212598425197,
                    "duration": 0.6461339999999893
                },
                {
                    "name": "G#5",
                    "midi": 80,
                    "time": 230.6698379999944,
                    "velocity": 0.5196850393700787,
                    "duration": 0.21537799999998697
                },
                {
                    "name": "C6",
                    "midi": 84,
                    "time": 230.6698379999944,
                    "velocity": 0.5196850393700787,
                    "duration": 0.21537799999998697
                },
                {
                    "name": "G5",
                    "midi": 79,
                    "time": 230.8852159999944,
                    "velocity": 0.5354330708661418,
                    "duration": 0.43075600000000236
                },
                {
                    "name": "A#5",
                    "midi": 82,
                    "time": 230.8852159999944,
                    "velocity": 0.5354330708661418,
                    "duration": 0.43075600000000236
                },
                {
                    "name": "C6",
                    "midi": 84,
                    "time": 231.3159719999944,
                    "velocity": 0.5039370078740157,
                    "duration": 0.43075600000000236
                },
                {
                    "name": "G#5",
                    "midi": 80,
                    "time": 231.3159719999944,
                    "velocity": 0.5039370078740157,
                    "duration": 0.43075600000000236
                },
                {
                    "name": "A#5",
                    "midi": 82,
                    "time": 231.7467279999944,
                    "velocity": 0.6299212598425197,
                    "duration": 0.6461339999999893
                },
                {
                    "name": "C#6",
                    "midi": 85,
                    "time": 231.7467279999944,
                    "velocity": 0.6299212598425197,
                    "duration": 0.6461339999999893
                },
                {
                    "name": "C6",
                    "midi": 84,
                    "time": 232.39286199999438,
                    "velocity": 0.5196850393700787,
                    "duration": 0.21537799999998697
                },
                {
                    "name": "G#5",
                    "midi": 80,
                    "time": 232.39286199999438,
                    "velocity": 0.5196850393700787,
                    "duration": 0.21537799999998697
                },
                {
                    "name": "G5",
                    "midi": 79,
                    "time": 232.60823999999437,
                    "velocity": 0.5354330708661418,
                    "duration": 0.43075600000000236
                },
                {
                    "name": "A#5",
                    "midi": 82,
                    "time": 232.60823999999437,
                    "velocity": 0.5354330708661418,
                    "duration": 0.43075600000000236
                },
                {
                    "name": "G#5",
                    "midi": 80,
                    "time": 233.03899599999437,
                    "velocity": 0.5039370078740157,
                    "duration": 0.43075600000000236
                },
                {
                    "name": "C6",
                    "midi": 84,
                    "time": 233.03899599999437,
                    "velocity": 0.5039370078740157,
                    "duration": 0.43075600000000236
                },
                {
                    "name": "C#6",
                    "midi": 85,
                    "time": 233.46975199999437,
                    "velocity": 0.6299212598425197,
                    "duration": 0.6461339999999893
                },
                {
                    "name": "A#5",
                    "midi": 82,
                    "time": 233.46975199999437,
                    "velocity": 0.6299212598425197,
                    "duration": 0.6461339999999893
                },
                {
                    "name": "C6",
                    "midi": 84,
                    "time": 234.11588599999436,
                    "velocity": 0.5196850393700787,
                    "duration": 0.21537799999998697
                },
                {
                    "name": "G#5",
                    "midi": 80,
                    "time": 234.11588599999436,
                    "velocity": 0.5196850393700787,
                    "duration": 0.21537799999998697
                },
                {
                    "name": "G5",
                    "midi": 79,
                    "time": 234.33126399999435,
                    "velocity": 0.5354330708661418,
                    "duration": 0.43075600000000236
                },
                {
                    "name": "A#5",
                    "midi": 82,
                    "time": 234.33126399999435,
                    "velocity": 0.5354330708661418,
                    "duration": 0.43075600000000236
                },
                {
                    "name": "G#5",
                    "midi": 80,
                    "time": 234.76201999999435,
                    "velocity": 0.5118110236220472,
                    "duration": 0.43075600000000236
                },
                {
                    "name": "F5",
                    "midi": 77,
                    "time": 234.76201999999435,
                    "velocity": 0.5118110236220472,
                    "duration": 0.43075600000000236
                },
                {
                    "name": "E5",
                    "midi": 76,
                    "time": 235.19277599999435,
                    "velocity": 0.5511811023622047,
                    "duration": 0.43075600000000236
                },
                {
                    "name": "G5",
                    "midi": 79,
                    "time": 235.19277599999435,
                    "velocity": 0.5511811023622047,
                    "duration": 0.43075600000000236
                },
                {
                    "name": "F5",
                    "midi": 77,
                    "time": 235.62353199999436,
                    "velocity": 0.5511811023622047,
                    "duration": 0.43075600000000236
                },
                {
                    "name": "D5",
                    "midi": 74,
                    "time": 235.62353199999436,
                    "velocity": 0.5511811023622047,
                    "duration": 0.43075600000000236
                },
                {
                    "name": "F5",
                    "midi": 77,
                    "time": 236.05428799999436,
                    "velocity": 0.5905511811023622,
                    "duration": 0.43075600000000236
                },
                {
                    "name": "C#5",
                    "midi": 73,
                    "time": 236.05428799999436,
                    "velocity": 0.5905511811023622,
                    "duration": 0.43075600000000236
                },
                {
                    "name": "C5",
                    "midi": 72,
                    "time": 236.48504399999436,
                    "velocity": 0.5905511811023622,
                    "duration": 0.43075600000000236
                },
                {
                    "name": "F5",
                    "midi": 77,
                    "time": 236.48504399999436,
                    "velocity": 0.5905511811023622,
                    "duration": 0.43075600000000236
                },
                {
                    "name": "B4",
                    "midi": 71,
                    "time": 236.91579999999436,
                    "velocity": 0.5984251968503937,
                    "duration": 0.8615120000000047
                },
                {
                    "name": "D5",
                    "midi": 74,
                    "time": 237.34655599999437,
                    "velocity": 0.5905511811023622,
                    "duration": 0.43075600000000236
                },
                {
                    "name": "C4",
                    "midi": 60,
                    "time": 237.77731199999437,
                    "velocity": 0.5669291338582677,
                    "duration": 0.8615120000000047
                },
                {
                    "name": "G#4",
                    "midi": 68,
                    "time": 237.77731199999437,
                    "velocity": 0.5669291338582677,
                    "duration": 0.43075600000000236
                },
                {
                    "name": "C5",
                    "midi": 72,
                    "time": 237.77731199999437,
                    "velocity": 0.5669291338582677,
                    "duration": 0.8615120000000047
                },
                {
                    "name": "G4",
                    "midi": 67,
                    "time": 238.20806799999437,
                    "velocity": 0.5354330708661418,
                    "duration": 0.43075600000000236
                },
                {
                    "name": "A#2",
                    "midi": 46,
                    "time": 238.63882399999437,
                    "velocity": 0.48031496062992124,
                    "duration": 0.6461339999999893
                },
                {
                    "name": "F#3",
                    "midi": 54,
                    "time": 238.63882399999437,
                    "velocity": 0.5669291338582677,
                    "duration": 0.6461339999999893
                },
                {
                    "name": "C#3",
                    "midi": 49,
                    "time": 238.63882399999437,
                    "velocity": 0.48031496062992124,
                    "duration": 0.6461339999999893
                },
                {
                    "name": "G#2",
                    "midi": 44,
                    "time": 239.28495799999436,
                    "velocity": 0.3937007874015748,
                    "duration": 0.21537799999998697
                },
                {
                    "name": "F3",
                    "midi": 53,
                    "time": 239.28495799999436,
                    "velocity": 0.4645669291338583,
                    "duration": 0.21537799999998697
                },
                {
                    "name": "C3",
                    "midi": 48,
                    "time": 239.28495799999436,
                    "velocity": 0.3937007874015748,
                    "duration": 0.21537799999998697
                },
                {
                    "name": "E3",
                    "midi": 52,
                    "time": 239.50033599999435,
                    "velocity": 0.48031496062992124,
                    "duration": 0.43075600000000236
                },
                {
                    "name": "A#2",
                    "midi": 46,
                    "time": 239.50033599999435,
                    "velocity": 0.4015748031496063,
                    "duration": 0.43075600000000236
                },
                {
                    "name": "G2",
                    "midi": 43,
                    "time": 239.50033599999435,
                    "velocity": 0.4015748031496063,
                    "duration": 0.43075600000000236
                },
                {
                    "name": "C3",
                    "midi": 48,
                    "time": 239.93109199999435,
                    "velocity": 0.3779527559055118,
                    "duration": 0.43075600000000236
                },
                {
                    "name": "G#2",
                    "midi": 44,
                    "time": 239.93109199999435,
                    "velocity": 0.3779527559055118,
                    "duration": 0.43075600000000236
                },
                {
                    "name": "F3",
                    "midi": 53,
                    "time": 239.93109199999435,
                    "velocity": 0.44881889763779526,
                    "duration": 0.43075600000000236
                },
                {
                    "name": "F#3",
                    "midi": 54,
                    "time": 240.36184799999435,
                    "velocity": 0.5669291338582677,
                    "duration": 0.6461339999999893
                },
                {
                    "name": "C#3",
                    "midi": 49,
                    "time": 240.36184799999435,
                    "velocity": 0.48031496062992124,
                    "duration": 0.6461339999999893
                },
                {
                    "name": "A#2",
                    "midi": 46,
                    "time": 240.36184799999435,
                    "velocity": 0.48031496062992124,
                    "duration": 0.6461339999999893
                },
                {
                    "name": "C3",
                    "midi": 48,
                    "time": 241.00798199999434,
                    "velocity": 0.3937007874015748,
                    "duration": 0.21537799999998697
                },
                {
                    "name": "F3",
                    "midi": 53,
                    "time": 241.00798199999434,
                    "velocity": 0.4645669291338583,
                    "duration": 0.21537799999998697
                },
                {
                    "name": "G#2",
                    "midi": 44,
                    "time": 241.00798199999434,
                    "velocity": 0.3937007874015748,
                    "duration": 0.21537799999998697
                },
                {
                    "name": "E3",
                    "midi": 52,
                    "time": 241.22335999999433,
                    "velocity": 0.5118110236220472,
                    "duration": 0.43075600000000236
                },
                {
                    "name": "A#2",
                    "midi": 46,
                    "time": 241.22335999999433,
                    "velocity": 0.4251968503937008,
                    "duration": 0.43075600000000236
                },
                {
                    "name": "G2",
                    "midi": 43,
                    "time": 241.22335999999433,
                    "velocity": 0.4015748031496063,
                    "duration": 0.43075600000000236
                },
                {
                    "name": "G#2",
                    "midi": 44,
                    "time": 241.65411599999433,
                    "velocity": 0.3779527559055118,
                    "duration": 0.43075600000000236
                },
                {
                    "name": "F3",
                    "midi": 53,
                    "time": 241.65411599999433,
                    "velocity": 0.44881889763779526,
                    "duration": 0.43075600000000236
                },
                {
                    "name": "C3",
                    "midi": 48,
                    "time": 241.65411599999433,
                    "velocity": 0.3779527559055118,
                    "duration": 0.43075600000000236
                },
                {
                    "name": "A#2",
                    "midi": 46,
                    "time": 242.08487199999433,
                    "velocity": 0.48031496062992124,
                    "duration": 0.6461339999999893
                },
                {
                    "name": "F#3",
                    "midi": 54,
                    "time": 242.08487199999433,
                    "velocity": 0.5669291338582677,
                    "duration": 0.6461339999999893
                },
                {
                    "name": "C#3",
                    "midi": 49,
                    "time": 242.08487199999433,
                    "velocity": 0.48031496062992124,
                    "duration": 0.6461339999999893
                },
                {
                    "name": "G#2",
                    "midi": 44,
                    "time": 242.73100599999432,
                    "velocity": 0.3937007874015748,
                    "duration": 0.21537799999998697
                },
                {
                    "name": "C3",
                    "midi": 48,
                    "time": 242.73100599999432,
                    "velocity": 0.3937007874015748,
                    "duration": 0.21537799999998697
                },
                {
                    "name": "F3",
                    "midi": 53,
                    "time": 242.73100599999432,
                    "velocity": 0.4645669291338583,
                    "duration": 0.21537799999998697
                },
                {
                    "name": "E3",
                    "midi": 52,
                    "time": 242.9463839999943,
                    "velocity": 0.48031496062992124,
                    "duration": 0.43075600000000236
                },
                {
                    "name": "A#2",
                    "midi": 46,
                    "time": 242.9463839999943,
                    "velocity": 0.48031496062992124,
                    "duration": 0.43075600000000236
                },
                {
                    "name": "G2",
                    "midi": 43,
                    "time": 242.9463839999943,
                    "velocity": 0.4015748031496063,
                    "duration": 0.43075600000000236
                },
                {
                    "name": "F2",
                    "midi": 41,
                    "time": 243.3771399999943,
                    "velocity": 0.3858267716535433,
                    "duration": 0.43075600000000236
                },
                {
                    "name": "C#3",
                    "midi": 49,
                    "time": 243.3771399999943,
                    "velocity": 0.4566929133858268,
                    "duration": 0.43075600000000236
                },
                {
                    "name": "G#2",
                    "midi": 44,
                    "time": 243.3771399999943,
                    "velocity": 0.3858267716535433,
                    "duration": 0.43075600000000236
                },
                {
                    "name": "E2",
                    "midi": 40,
                    "time": 243.80789599999432,
                    "velocity": 0.41732283464566927,
                    "duration": 0.43075600000000236
                },
                {
                    "name": "C3",
                    "midi": 48,
                    "time": 243.80789599999432,
                    "velocity": 0.49606299212598426,
                    "duration": 0.43075600000000236
                },
                {
                    "name": "G2",
                    "midi": 43,
                    "time": 243.80789599999432,
                    "velocity": 0.41732283464566927,
                    "duration": 0.43075600000000236
                },
                {
                    "name": "B2",
                    "midi": 47,
                    "time": 244.23865199999432,
                    "velocity": 0.49606299212598426,
                    "duration": 0.43075600000000236
                },
                {
                    "name": "D2",
                    "midi": 38,
                    "time": 244.23865199999432,
                    "velocity": 0.41732283464566927,
                    "duration": 0.43075600000000236
                },
                {
                    "name": "G#2",
                    "midi": 44,
                    "time": 244.23865199999432,
                    "velocity": 0.41732283464566927,
                    "duration": 0.43075600000000236
                },
                {
                    "name": "F2",
                    "midi": 41,
                    "time": 244.23865199999432,
                    "velocity": 0.41732283464566927,
                    "duration": 0.43075600000000236
                },
                {
                    "name": "A#2",
                    "midi": 46,
                    "time": 244.66940799999432,
                    "velocity": 0.5275590551181102,
                    "duration": 0.43075600000000236
                },
                {
                    "name": "E2",
                    "midi": 40,
                    "time": 244.66940799999432,
                    "velocity": 0.4409448818897638,
                    "duration": 0.43075600000000236
                },
                {
                    "name": "G2",
                    "midi": 43,
                    "time": 244.66940799999432,
                    "velocity": 0.4409448818897638,
                    "duration": 0.43075600000000236
                },
                {
                    "name": "G#2",
                    "midi": 44,
                    "time": 245.10016399999432,
                    "velocity": 0.5275590551181102,
                    "duration": 0.43075600000000236
                },
                {
                    "name": "F2",
                    "midi": 41,
                    "time": 245.10016399999432,
                    "velocity": 0.5275590551181102,
                    "duration": 0.43075600000000236
                },
                {
                    "name": "B1",
                    "midi": 35,
                    "time": 245.53091999999432,
                    "velocity": 0.5196850393700787,
                    "duration": 0.8615120000000047
                },
                {
                    "name": "G#2",
                    "midi": 44,
                    "time": 245.53091999999432,
                    "velocity": 0.5196850393700787,
                    "duration": 0.43075600000000236
                },
                {
                    "name": "F#2",
                    "midi": 42,
                    "time": 245.96167599999433,
                    "velocity": 0.5039370078740157,
                    "duration": 0.43075600000000236
                },
                {
                    "name": "C2",
                    "midi": 36,
                    "time": 246.39243199999433,
                    "velocity": 0.48031496062992124,
                    "duration": 0.8615120000000047
                },
                {
                    "name": "F2",
                    "midi": 41,
                    "time": 246.39243199999433,
                    "velocity": 0.48031496062992124,
                    "duration": 0.43075600000000236
                },
                {
                    "name": "E2",
                    "midi": 40,
                    "time": 246.82318799999433,
                    "velocity": 0.4645669291338583,
                    "duration": 0.43075600000000236
                },
                {
                    "name": "F1",
                    "midi": 29,
                    "time": 247.25394399999433,
                    "velocity": 0.4645669291338583,
                    "duration": 0.21537799999998697
                },
                {
                    "name": "G#1",
                    "midi": 32,
                    "time": 247.25394399999433,
                    "velocity": 0.4645669291338583,
                    "duration": 0.21537799999998697
                },
                {
                    "name": "C2",
                    "midi": 36,
                    "time": 247.25394399999433,
                    "velocity": 0.4645669291338583,
                    "duration": 0.21537799999998697
                },
                {
                    "name": "F2",
                    "midi": 41,
                    "time": 247.25394399999433,
                    "velocity": 0.5511811023622047,
                    "duration": 0.21537799999998697
                },
                {
                    "name": "C3",
                    "midi": 48,
                    "time": 247.79238899999433,
                    "velocity": 0.4645669291338583,
                    "duration": 0.10768899999999348
                },
                {
                    "name": "F3",
                    "midi": 53,
                    "time": 247.90007799999432,
                    "velocity": 0.4881889763779528,
                    "duration": 0.10768899999999348
                },
                {
                    "name": "G#3",
                    "midi": 56,
                    "time": 248.00776699999432,
                    "velocity": 0.5039370078740157,
                    "duration": 0.10768899999999348
                },
                {
                    "name": "C4",
                    "midi": 60,
                    "time": 248.1154559999943,
                    "velocity": 0.5511811023622047,
                    "duration": 0.10768899999999348
                },
                {
                    "name": "C#4",
                    "midi": 61,
                    "time": 248.2231449999943,
                    "velocity": 0.5039370078740157,
                    "duration": 0.10768899999999348
                },
                {
                    "name": "C4",
                    "midi": 60,
                    "time": 248.3308339999943,
                    "velocity": 0.5039370078740157,
                    "duration": 0.10768899999999348
                },
                {
                    "name": "A#3",
                    "midi": 58,
                    "time": 248.4385229999943,
                    "velocity": 0.5039370078740157,
                    "duration": 0.10768899999999348
                },
                {
                    "name": "G#3",
                    "midi": 56,
                    "time": 248.54621199999428,
                    "velocity": 0.5511811023622047,
                    "duration": 0.10768899999999348
                },
                {
                    "name": "G3",
                    "midi": 55,
                    "time": 248.65390099999428,
                    "velocity": 0.49606299212598426,
                    "duration": 0.10768899999999348
                },
                {
                    "name": "F3",
                    "midi": 53,
                    "time": 248.76158999999427,
                    "velocity": 0.49606299212598426,
                    "duration": 0.10768899999999348
                },
                {
                    "name": "D#3",
                    "midi": 51,
                    "time": 248.86927899999426,
                    "velocity": 0.49606299212598426,
                    "duration": 0.10768899999999348
                },
                {
                    "name": "C#3",
                    "midi": 49,
                    "time": 248.97696799999426,
                    "velocity": 0.5275590551181102,
                    "duration": 0.10768899999999348
                },
                {
                    "name": "C3",
                    "midi": 48,
                    "time": 249.08465699999425,
                    "velocity": 0.47244094488188976,
                    "duration": 0.10768899999999348
                },
                {
                    "name": "A#2",
                    "midi": 46,
                    "time": 249.19234599999425,
                    "velocity": 0.47244094488188976,
                    "duration": 0.10768899999999348
                },
                {
                    "name": "G#2",
                    "midi": 44,
                    "time": 249.30003499999424,
                    "velocity": 0.47244094488188976,
                    "duration": 0.10768899999999348
                },
                {
                    "name": "G2",
                    "midi": 43,
                    "time": 249.40772399999423,
                    "velocity": 0.5590551181102362,
                    "duration": 0.10768899999999348
                },
                {
                    "name": "G#2",
                    "midi": 44,
                    "time": 249.51541299999423,
                    "velocity": 0.5118110236220472,
                    "duration": 0.10768899999999348
                },
                {
                    "name": "A#2",
                    "midi": 46,
                    "time": 249.62310199999422,
                    "velocity": 0.5748031496062992,
                    "duration": 0.10768899999999348
                },
                {
                    "name": "G#2",
                    "midi": 44,
                    "time": 249.7307909999942,
                    "velocity": 0.5433070866141733,
                    "duration": 0.10768899999999348
                },
                {
                    "name": "G2",
                    "midi": 43,
                    "time": 249.8384799999942,
                    "velocity": 0.5748031496062992,
                    "duration": 0.10768899999999348
                },
                {
                    "name": "F2",
                    "midi": 41,
                    "time": 249.9461689999942,
                    "velocity": 0.5748031496062992,
                    "duration": 0.10768899999999348
                },
                {
                    "name": "E2",
                    "midi": 40,
                    "time": 250.0538579999942,
                    "velocity": 0.5669291338582677,
                    "duration": 0.10768899999999348
                },
                {
                    "name": "D2",
                    "midi": 38,
                    "time": 250.1615469999942,
                    "velocity": 0.5669291338582677,
                    "duration": 0.10768899999999348
                },
                {
                    "name": "C2",
                    "midi": 36,
                    "time": 250.26923599999418,
                    "velocity": 0.5590551181102362,
                    "duration": 0.10768899999999348
                },
                {
                    "name": "A#1",
                    "midi": 34,
                    "time": 250.37692499999417,
                    "velocity": 0.5590551181102362,
                    "duration": 0.10768899999999348
                },
                {
                    "name": "G#1",
                    "midi": 32,
                    "time": 250.48461399999417,
                    "velocity": 0.5511811023622047,
                    "duration": 0.10768899999999348
                },
                {
                    "name": "G1",
                    "midi": 31,
                    "time": 250.59230299999416,
                    "velocity": 0.5511811023622047,
                    "duration": 0.10768899999999348
                },
                {
                    "name": "F1",
                    "midi": 29,
                    "time": 250.69999199999415,
                    "velocity": 0.5511811023622047,
                    "duration": 0.21537799999998697
                },
                {
                    "name": "C2",
                    "midi": 36,
                    "time": 250.69999199999415,
                    "velocity": 0.5511811023622047,
                    "duration": 0.21537799999998697
                },
                {
                    "name": "F2",
                    "midi": 41,
                    "time": 250.69999199999415,
                    "velocity": 0.5511811023622047,
                    "duration": 0.21537799999998697
                },
                {
                    "name": "G#1",
                    "midi": 32,
                    "time": 250.69999199999415,
                    "velocity": 0.5511811023622047,
                    "duration": 0.21537799999998697
                },
                {
                    "name": "C4",
                    "midi": 60,
                    "time": 251.23843699999415,
                    "velocity": 0.4645669291338583,
                    "duration": 0.10768899999999348
                },
                {
                    "name": "F4",
                    "midi": 65,
                    "time": 251.34612599999414,
                    "velocity": 0.4881889763779528,
                    "duration": 0.10768899999999348
                },
                {
                    "name": "G#4",
                    "midi": 68,
                    "time": 251.45381499999414,
                    "velocity": 0.5039370078740157,
                    "duration": 0.10768899999999348
                },
                {
                    "name": "C5",
                    "midi": 72,
                    "time": 251.56150399999413,
                    "velocity": 0.5511811023622047,
                    "duration": 0.10768899999999348
                },
                {
                    "name": "C#5",
                    "midi": 73,
                    "time": 251.66919299999412,
                    "velocity": 0.5039370078740157,
                    "duration": 0.10768899999999348
                },
                {
                    "name": "C5",
                    "midi": 72,
                    "time": 251.77688199999412,
                    "velocity": 0.5039370078740157,
                    "duration": 0.10768899999999348
                },
                {
                    "name": "A#4",
                    "midi": 70,
                    "time": 251.8845709999941,
                    "velocity": 0.5039370078740157,
                    "duration": 0.10768899999999348
                },
                {
                    "name": "G#4",
                    "midi": 68,
                    "time": 251.9922599999941,
                    "velocity": 0.5511811023622047,
                    "duration": 0.10768899999999348
                },
                {
                    "name": "G4",
                    "midi": 67,
                    "time": 252.0999489999941,
                    "velocity": 0.49606299212598426,
                    "duration": 0.10768899999999348
                },
                {
                    "name": "F4",
                    "midi": 65,
                    "time": 252.2076379999941,
                    "velocity": 0.49606299212598426,
                    "duration": 0.10768899999999348
                },
                {
                    "name": "D#4",
                    "midi": 63,
                    "time": 252.31532699999408,
                    "velocity": 0.49606299212598426,
                    "duration": 0.10768899999999348
                },
                {
                    "name": "C#4",
                    "midi": 61,
                    "time": 252.42301599999408,
                    "velocity": 0.5275590551181102,
                    "duration": 0.10768899999999348
                },
                {
                    "name": "C4",
                    "midi": 60,
                    "time": 252.53070499999407,
                    "velocity": 0.47244094488188976,
                    "duration": 0.10768899999999348
                },
                {
                    "name": "A#3",
                    "midi": 58,
                    "time": 252.63839399999407,
                    "velocity": 0.47244094488188976,
                    "duration": 0.10768899999999348
                },
                {
                    "name": "G#3",
                    "midi": 56,
                    "time": 252.74608299999406,
                    "velocity": 0.47244094488188976,
                    "duration": 0.10768899999999348
                },
                {
                    "name": "G3",
                    "midi": 55,
                    "time": 252.85377199999405,
                    "velocity": 0.5590551181102362,
                    "duration": 0.10768899999999348
                },
                {
                    "name": "G#3",
                    "midi": 56,
                    "time": 252.96146099999405,
                    "velocity": 0.5118110236220472,
                    "duration": 0.10768899999999348
                },
                {
                    "name": "A#3",
                    "midi": 58,
                    "time": 253.06914999999404,
                    "velocity": 0.5748031496062992,
                    "duration": 0.10768899999999348
                },
                {
                    "name": "G#3",
                    "midi": 56,
                    "time": 253.17683899999403,
                    "velocity": 0.5433070866141733,
                    "duration": 0.10768899999999348
                },
                {
                    "name": "G3",
                    "midi": 55,
                    "time": 253.28452799999403,
                    "velocity": 0.5748031496062992,
                    "duration": 0.10768899999999348
                },
                {
                    "name": "F3",
                    "midi": 53,
                    "time": 253.39221699999402,
                    "velocity": 0.5748031496062992,
                    "duration": 0.10768899999999348
                },
                {
                    "name": "E3",
                    "midi": 52,
                    "time": 253.499905999994,
                    "velocity": 0.5669291338582677,
                    "duration": 0.10768899999999348
                },
                {
                    "name": "D3",
                    "midi": 50,
                    "time": 253.607594999994,
                    "velocity": 0.5669291338582677,
                    "duration": 0.10768899999999348
                },
                {
                    "name": "C3",
                    "midi": 48,
                    "time": 253.715283999994,
                    "velocity": 0.5590551181102362,
                    "duration": 0.10768899999999348
                },
                {
                    "name": "A#2",
                    "midi": 46,
                    "time": 253.822972999994,
                    "velocity": 0.5590551181102362,
                    "duration": 0.10768899999999348
                },
                {
                    "name": "G#2",
                    "midi": 44,
                    "time": 253.930661999994,
                    "velocity": 0.5511811023622047,
                    "duration": 0.10768899999999348
                },
                {
                    "name": "G2",
                    "midi": 43,
                    "time": 254.03835099999398,
                    "velocity": 0.5511811023622047,
                    "duration": 0.10768899999999348
                },
                {
                    "name": "F2",
                    "midi": 41,
                    "time": 254.14603999999397,
                    "velocity": 0.5275590551181102,
                    "duration": 0.10768899999999348
                },
                {
                    "name": "G2",
                    "midi": 43,
                    "time": 254.25372899999397,
                    "velocity": 0.47244094488188976,
                    "duration": 0.10768899999999348
                },
                {
                    "name": "G#2",
                    "midi": 44,
                    "time": 254.36141799999396,
                    "velocity": 0.47244094488188976,
                    "duration": 0.10768899999999348
                },
                {
                    "name": "A#2",
                    "midi": 46,
                    "time": 254.46910699999395,
                    "velocity": 0.47244094488188976,
                    "duration": 0.10768899999999348
                },
                {
                    "name": "C3",
                    "midi": 48,
                    "time": 254.57679599999395,
                    "velocity": 0.5590551181102362,
                    "duration": 0.10768899999999348
                },
                {
                    "name": "D3",
                    "midi": 50,
                    "time": 254.68448499999394,
                    "velocity": 0.5118110236220472,
                    "duration": 0.10768899999999348
                },
                {
                    "name": "E3",
                    "midi": 52,
                    "time": 254.79217399999393,
                    "velocity": 0.5748031496062992,
                    "duration": 0.10768899999999348
                },
                {
                    "name": "F3",
                    "midi": 53,
                    "time": 254.89986299999393,
                    "velocity": 0.5433070866141733,
                    "duration": 0.10768899999999348
                },
                {
                    "name": "G3",
                    "midi": 55,
                    "time": 255.00755199999392,
                    "velocity": 0.5748031496062992,
                    "duration": 0.10768899999999348
                },
                {
                    "name": "F3",
                    "midi": 53,
                    "time": 255.11524099999392,
                    "velocity": 0.5748031496062992,
                    "duration": 0.10768899999999348
                },
                {
                    "name": "E3",
                    "midi": 52,
                    "time": 255.2229299999939,
                    "velocity": 0.5669291338582677,
                    "duration": 0.10768899999999348
                },
                {
                    "name": "D3",
                    "midi": 50,
                    "time": 255.3306189999939,
                    "velocity": 0.5669291338582677,
                    "duration": 0.10768899999999348
                },
                {
                    "name": "C3",
                    "midi": 48,
                    "time": 255.4383079999939,
                    "velocity": 0.5590551181102362,
                    "duration": 0.10768899999999348
                },
                {
                    "name": "A#2",
                    "midi": 46,
                    "time": 255.5459969999939,
                    "velocity": 0.5590551181102362,
                    "duration": 0.10768899999999348
                },
                {
                    "name": "G#2",
                    "midi": 44,
                    "time": 255.65368599999388,
                    "velocity": 0.5511811023622047,
                    "duration": 0.10768899999999348
                },
                {
                    "name": "G2",
                    "midi": 43,
                    "time": 255.76137499999388,
                    "velocity": 0.5511811023622047,
                    "duration": 0.10768899999999348
                },
                {
                    "name": "F2",
                    "midi": 41,
                    "time": 255.86906399999387,
                    "velocity": 0.5275590551181102,
                    "duration": 0.10768899999999348
                },
                {
                    "name": "G2",
                    "midi": 43,
                    "time": 255.97675299999386,
                    "velocity": 0.47244094488188976,
                    "duration": 0.1076890000000219
                },
                {
                    "name": "G#2",
                    "midi": 44,
                    "time": 256.0844419999939,
                    "velocity": 0.47244094488188976,
                    "duration": 0.10768899999999348
                },
                {
                    "name": "A#2",
                    "midi": 46,
                    "time": 256.1921309999939,
                    "velocity": 0.47244094488188976,
                    "duration": 0.10768899999999348
                },
                {
                    "name": "C3",
                    "midi": 48,
                    "time": 256.2998199999939,
                    "velocity": 0.5590551181102362,
                    "duration": 0.10768899999999348
                },
                {
                    "name": "D3",
                    "midi": 50,
                    "time": 256.40750899999387,
                    "velocity": 0.5118110236220472,
                    "duration": 0.10768899999999348
                },
                {
                    "name": "E3",
                    "midi": 52,
                    "time": 256.51519799999386,
                    "velocity": 0.5748031496062992,
                    "duration": 0.10768899999999348
                },
                {
                    "name": "F3",
                    "midi": 53,
                    "time": 256.62288699999385,
                    "velocity": 0.5433070866141733,
                    "duration": 0.10768899999999348
                },
                {
                    "name": "G3",
                    "midi": 55,
                    "time": 256.73057599999385,
                    "velocity": 0.5748031496062992,
                    "duration": 0.10768899999999348
                },
                {
                    "name": "F3",
                    "midi": 53,
                    "time": 256.83826499999384,
                    "velocity": 0.5748031496062992,
                    "duration": 0.10768899999999348
                },
                {
                    "name": "E3",
                    "midi": 52,
                    "time": 256.94595399999383,
                    "velocity": 0.5669291338582677,
                    "duration": 0.10768899999999348
                },
                {
                    "name": "D3",
                    "midi": 50,
                    "time": 257.0536429999938,
                    "velocity": 0.5669291338582677,
                    "duration": 0.10768899999999348
                },
                {
                    "name": "C3",
                    "midi": 48,
                    "time": 257.1613319999938,
                    "velocity": 0.5590551181102362,
                    "duration": 0.10768899999999348
                },
                {
                    "name": "A#2",
                    "midi": 46,
                    "time": 257.2690209999938,
                    "velocity": 0.5590551181102362,
                    "duration": 0.10768899999999348
                },
                {
                    "name": "G#2",
                    "midi": 44,
                    "time": 257.3767099999938,
                    "velocity": 0.5511811023622047,
                    "duration": 0.10768899999999348
                },
                {
                    "name": "G2",
                    "midi": 43,
                    "time": 257.4843989999938,
                    "velocity": 0.5511811023622047,
                    "duration": 0.10768899999999348
                },
                {
                    "name": "F2",
                    "midi": 41,
                    "time": 257.5920879999938,
                    "velocity": 0.5275590551181102,
                    "duration": 0.10768899999999348
                },
                {
                    "name": "E2",
                    "midi": 40,
                    "time": 257.6997769999938,
                    "velocity": 0.47244094488188976,
                    "duration": 0.10768899999999348
                },
                {
                    "name": "D2",
                    "midi": 38,
                    "time": 257.8074659999938,
                    "velocity": 0.47244094488188976,
                    "duration": 0.10768899999999348
                },
                {
                    "name": "C2",
                    "midi": 36,
                    "time": 257.9151549999938,
                    "velocity": 0.47244094488188976,
                    "duration": 0.10768899999999348
                },
                {
                    "name": "A#1",
                    "midi": 34,
                    "time": 258.02284399999377,
                    "velocity": 0.5039370078740157,
                    "duration": 0.10768899999999348
                },
                {
                    "name": "G#1",
                    "midi": 32,
                    "time": 258.13053299999376,
                    "velocity": 0.4645669291338583,
                    "duration": 0.10768899999999348
                },
                {
                    "name": "G1",
                    "midi": 31,
                    "time": 258.23822199999375,
                    "velocity": 0.5118110236220472,
                    "duration": 0.10768899999999348
                },
                {
                    "name": "F1",
                    "midi": 29,
                    "time": 258.34591099999375,
                    "velocity": 0.4566929133858268,
                    "duration": 0.10768899999999348
                },
                {
                    "name": "G1",
                    "midi": 31,
                    "time": 258.45359999999374,
                    "velocity": 0.5354330708661418,
                    "duration": 0.10768899999999348
                },
                {
                    "name": "G#1",
                    "midi": 32,
                    "time": 258.56128899999374,
                    "velocity": 0.5433070866141733,
                    "duration": 0.10768899999999348
                },
                {
                    "name": "A#1",
                    "midi": 34,
                    "time": 258.66897799999373,
                    "velocity": 0.5590551181102362,
                    "duration": 0.10768899999999348
                },
                {
                    "name": "C2",
                    "midi": 36,
                    "time": 258.7766669999937,
                    "velocity": 0.5669291338582677,
                    "duration": 0.10768899999999348
                },
                {
                    "name": "D2",
                    "midi": 38,
                    "time": 258.8843559999937,
                    "velocity": 0.5826771653543307,
                    "duration": 0.10768899999999348
                },
                {
                    "name": "E2",
                    "midi": 40,
                    "time": 258.9920449999937,
                    "velocity": 0.5905511811023622,
                    "duration": 0.10768899999999348
                },
                {
                    "name": "F2",
                    "midi": 41,
                    "time": 259.0997339999937,
                    "velocity": 0.6062992125984252,
                    "duration": 0.10768899999999348
                },
                {
                    "name": "G2",
                    "midi": 43,
                    "time": 259.2074229999937,
                    "velocity": 0.6141732283464567,
                    "duration": 0.10768899999999348
                },
                {
                    "name": "F#1",
                    "midi": 30,
                    "time": 259.3151119999937,
                    "velocity": 0.5984251968503937,
                    "duration": 0.10768899999999348
                },
                {
                    "name": "F#2",
                    "midi": 42,
                    "time": 259.3151119999937,
                    "velocity": 0.6141732283464567,
                    "duration": 0.10768899999999348
                },
                {
                    "name": "A3",
                    "midi": 57,
                    "time": 261.7919589999937,
                    "velocity": 0.5433070866141733,
                    "duration": 0.10768899999999348
                },
                {
                    "name": "F#3",
                    "midi": 54,
                    "time": 261.8996479999937,
                    "velocity": 0.5354330708661418,
                    "duration": 0.10768899999999348
                },
                {
                    "name": "D#3",
                    "midi": 51,
                    "time": 262.0073369999937,
                    "velocity": 0.5354330708661418,
                    "duration": 0.10768899999999348
                },
                {
                    "name": "C3",
                    "midi": 48,
                    "time": 262.1150259999937,
                    "velocity": 0.5275590551181102,
                    "duration": 0.10768899999999348
                },
                {
                    "name": "A2",
                    "midi": 45,
                    "time": 262.2227149999937,
                    "velocity": 0.5196850393700787,
                    "duration": 0.10768899999999348
                },
                {
                    "name": "F#2",
                    "midi": 42,
                    "time": 262.3304039999937,
                    "velocity": 0.5196850393700787,
                    "duration": 0.10768899999999348
                },
                {
                    "name": "D#2",
                    "midi": 39,
                    "time": 262.43809299999367,
                    "velocity": 0.5118110236220472,
                    "duration": 0.10768899999999348
                },
                {
                    "name": "C2",
                    "midi": 36,
                    "time": 262.54578199999366,
                    "velocity": 0.5039370078740157,
                    "duration": 0.10768899999999348
                },
                {
                    "name": "A1",
                    "midi": 33,
                    "time": 262.65347099999366,
                    "velocity": 0.49606299212598426,
                    "duration": 0.10768899999999348
                },
                {
                    "name": "F#1",
                    "midi": 30,
                    "time": 262.76115999999365,
                    "velocity": 0.47244094488188976,
                    "duration": 0.10768899999999348
                },
                {
                    "name": "D#2",
                    "midi": 39,
                    "time": 262.86884899999365,
                    "velocity": 0.4645669291338583,
                    "duration": 0.10768899999999348
                },
                {
                    "name": "C2",
                    "midi": 36,
                    "time": 262.97653799999364,
                    "velocity": 0.4566929133858268,
                    "duration": 0.10768899999999348
                },
                {
                    "name": "A1",
                    "midi": 33,
                    "time": 263.08422699999363,
                    "velocity": 0.44881889763779526,
                    "duration": 0.10768899999999348
                },
                {
                    "name": "F#1",
                    "midi": 30,
                    "time": 263.1919159999936,
                    "velocity": 0.4409448818897638,
                    "duration": 0.10768899999999348
                },
                {
                    "name": "D#2",
                    "midi": 39,
                    "time": 263.2996049999936,
                    "velocity": 0.4251968503937008,
                    "duration": 0.10768899999999348
                },
                {
                    "name": "C2",
                    "midi": 36,
                    "time": 263.4072939999936,
                    "velocity": 0.41732283464566927,
                    "duration": 0.10768899999999348
                },
                {
                    "name": "A1",
                    "midi": 33,
                    "time": 263.5149829999936,
                    "velocity": 0.4094488188976378,
                    "duration": 0.10768899999999348
                },
                {
                    "name": "F#1",
                    "midi": 30,
                    "time": 263.6226719999936,
                    "velocity": 0.4015748031496063,
                    "duration": 0.10768899999999348
                },
                {
                    "name": "D#2",
                    "midi": 39,
                    "time": 263.7303609999936,
                    "velocity": 0.3700787401574803,
                    "duration": 0.10768899999999348
                },
                {
                    "name": "C2",
                    "midi": 36,
                    "time": 263.8380499999936,
                    "velocity": 0.3700787401574803,
                    "duration": 0.10768899999999348
                },
                {
                    "name": "A1",
                    "midi": 33,
                    "time": 263.9457389999936,
                    "velocity": 0.33858267716535434,
                    "duration": 0.10768899999999348
                },
                {
                    "name": "F#1",
                    "midi": 30,
                    "time": 264.0534279999936,
                    "velocity": 0.3700787401574803,
                    "duration": 0.10768899999999348
                },
                {
                    "name": "D#2",
                    "midi": 39,
                    "time": 264.16111699999357,
                    "velocity": 0.3228346456692913,
                    "duration": 0.10768899999999348
                },
                {
                    "name": "C2",
                    "midi": 36,
                    "time": 264.26880599999356,
                    "velocity": 0.30708661417322836,
                    "duration": 0.10768899999999348
                },
                {
                    "name": "A1",
                    "midi": 33,
                    "time": 264.37649499999355,
                    "velocity": 0.2992125984251969,
                    "duration": 0.10768899999999348
                },
                {
                    "name": "F1",
                    "midi": 29,
                    "time": 264.48418399999355,
                    "velocity": 0.30708661417322836,
                    "duration": 0.43075599999997394
                },
                {
                    "name": "F2",
                    "midi": 41,
                    "time": 266.0995189999935,
                    "velocity": 0.2755905511811024,
                    "duration": 0.10768899999999348
                },
                {
                    "name": "F1",
                    "midi": 29,
                    "time": 266.2072079999935,
                    "velocity": 0.31496062992125984,
                    "duration": 0.43075599999997394
                },
                {
                    "name": "F2",
                    "midi": 41,
                    "time": 267.82254299999346,
                    "velocity": 0.2755905511811024,
                    "duration": 0.10768899999999348
                },
                {
                    "name": "F1",
                    "midi": 29,
                    "time": 267.93023199999345,
                    "velocity": 0.31496062992125984,
                    "duration": 0.43075599999997394
                },
                {
                    "name": "A3",
                    "midi": 57,
                    "time": 268.5763659999934,
                    "velocity": 0.2992125984251969,
                    "duration": 0.10768899999999348
                },
                {
                    "name": "A#3",
                    "midi": 58,
                    "time": 268.6840549999934,
                    "velocity": 0.33070866141732286,
                    "duration": 0.10768899999999348
                },
                {
                    "name": "C4",
                    "midi": 60,
                    "time": 268.7917439999934,
                    "velocity": 0.3858267716535433,
                    "duration": 0.10768899999999348
                },
                {
                    "name": "C#4",
                    "midi": 61,
                    "time": 268.8994329999934,
                    "velocity": 0.33070866141732286,
                    "duration": 0.10768899999999348
                },
                {
                    "name": "C4",
                    "midi": 60,
                    "time": 269.0071219999934,
                    "velocity": 0.33858267716535434,
                    "duration": 0.10768899999999348
                },
                {
                    "name": "A#3",
                    "midi": 58,
                    "time": 269.1148109999934,
                    "velocity": 0.33858267716535434,
                    "duration": 0.10768899999999348
                },
                {
                    "name": "A3",
                    "midi": 57,
                    "time": 269.2224999999934,
                    "velocity": 0.3700787401574803,
                    "duration": 0.21537799999998697
                },
                {
                    "name": "A3",
                    "midi": 57,
                    "time": 269.43787799999336,
                    "velocity": 0.3228346456692913,
                    "duration": 0.10768899999999348
                },
                {
                    "name": "A#3",
                    "midi": 58,
                    "time": 269.54556699999335,
                    "velocity": 0.36220472440944884,
                    "duration": 0.10768899999999348
                },
                {
                    "name": "C4",
                    "midi": 60,
                    "time": 269.65325599999335,
                    "velocity": 0.41732283464566927,
                    "duration": 0.10768899999999348
                },
                {
                    "name": "C#4",
                    "midi": 61,
                    "time": 269.76094499999334,
                    "velocity": 0.33070866141732286,
                    "duration": 0.10768899999999348
                },
                {
                    "name": "C4",
                    "midi": 60,
                    "time": 269.86863399999334,
                    "velocity": 0.33858267716535434,
                    "duration": 0.10768899999999348
                },
                {
                    "name": "A#3",
                    "midi": 58,
                    "time": 269.97632299999333,
                    "velocity": 0.33858267716535434,
                    "duration": 0.10768899999999348
                },
                {
                    "name": "A3",
                    "midi": 57,
                    "time": 270.0840119999933,
                    "velocity": 0.3700787401574803,
                    "duration": 0.21537799999998697
                },
                {
                    "name": "A3",
                    "midi": 57,
                    "time": 270.2993899999933,
                    "velocity": 0.33858267716535434,
                    "duration": 0.10768899999999348
                },
                {
                    "name": "A#3",
                    "midi": 58,
                    "time": 270.4070789999933,
                    "velocity": 0.3700787401574803,
                    "duration": 0.10768899999999348
                },
                {
                    "name": "C4",
                    "midi": 60,
                    "time": 270.5147679999933,
                    "velocity": 0.4094488188976378,
                    "duration": 0.10768899999999348
                },
                {
                    "name": "C#4",
                    "midi": 61,
                    "time": 270.6224569999933,
                    "velocity": 0.33070866141732286,
                    "duration": 0.10768899999999348
                },
                {
                    "name": "C4",
                    "midi": 60,
                    "time": 270.7301459999933,
                    "velocity": 0.33858267716535434,
                    "duration": 0.10768899999999348
                },
                {
                    "name": "A#3",
                    "midi": 58,
                    "time": 270.8378349999933,
                    "velocity": 0.33858267716535434,
                    "duration": 0.10768899999999348
                },
                {
                    "name": "A3",
                    "midi": 57,
                    "time": 270.94552399999327,
                    "velocity": 0.3464566929133858,
                    "duration": 0.10768899999999348
                },
                {
                    "name": "F#3",
                    "midi": 54,
                    "time": 271.05321299999326,
                    "velocity": 0.33070866141732286,
                    "duration": 0.10768899999999348
                },
                {
                    "name": "F3",
                    "midi": 53,
                    "time": 271.16090199999326,
                    "velocity": 0.3228346456692913,
                    "duration": 0.10768899999999348
                },
                {
                    "name": "D#3",
                    "midi": 51,
                    "time": 271.26859099999325,
                    "velocity": 0.30708661417322836,
                    "duration": 0.10768899999999348
                },
                {
                    "name": "C#3",
                    "midi": 49,
                    "time": 271.37627999999324,
                    "velocity": 0.3464566929133858,
                    "duration": 1.7230239999998958
                },
                {
                    "name": "F3",
                    "midi": 53,
                    "time": 271.48396899999324,
                    "velocity": 0.25196850393700787,
                    "duration": 0.10768899999999348
                },
                {
                    "name": "A#3",
                    "midi": 58,
                    "time": 271.59165799999323,
                    "velocity": 0.25984251968503935,
                    "duration": 0.10768899999999348
                },
                {
                    "name": "F3",
                    "midi": 53,
                    "time": 271.6993469999932,
                    "velocity": 0.2677165354330709,
                    "duration": 0.10768899999999348
                },
                {
                    "name": "A#3",
                    "midi": 58,
                    "time": 271.8070359999932,
                    "velocity": 0.2992125984251969,
                    "duration": 0.10768899999999348
                },
                {
                    "name": "F3",
                    "midi": 53,
                    "time": 271.9147249999932,
                    "velocity": 0.29133858267716534,
                    "duration": 0.10768899999999348
                },
                {
                    "name": "A#3",
                    "midi": 58,
                    "time": 272.0224139999932,
                    "velocity": 0.2992125984251969,
                    "duration": 0.10768899999999348
                },
                {
                    "name": "F3",
                    "midi": 53,
                    "time": 272.1301029999932,
                    "velocity": 0.2992125984251969,
                    "duration": 0.10768899999999348
                },
                {
                    "name": "A#3",
                    "midi": 58,
                    "time": 272.2377919999932,
                    "velocity": 0.30708661417322836,
                    "duration": 0.10768899999999348
                },
                {
                    "name": "F3",
                    "midi": 53,
                    "time": 272.3454809999932,
                    "velocity": 0.30708661417322836,
                    "duration": 0.10768899999999348
                },
                {
                    "name": "A#3",
                    "midi": 58,
                    "time": 272.4531699999932,
                    "velocity": 0.2992125984251969,
                    "duration": 0.10768899999999348
                },
                {
                    "name": "F3",
                    "midi": 53,
                    "time": 272.5608589999932,
                    "velocity": 0.2992125984251969,
                    "duration": 0.10768899999999348
                },
                {
                    "name": "A#3",
                    "midi": 58,
                    "time": 272.66854799999317,
                    "velocity": 0.2992125984251969,
                    "duration": 0.10768899999999348
                },
                {
                    "name": "F3",
                    "midi": 53,
                    "time": 272.77623699999316,
                    "velocity": 0.29133858267716534,
                    "duration": 0.10768899999999348
                },
                {
                    "name": "A#3",
                    "midi": 58,
                    "time": 272.88392599999315,
                    "velocity": 0.29133858267716534,
                    "duration": 0.10768899999999348
                },
                {
                    "name": "F3",
                    "midi": 53,
                    "time": 272.99161499999315,
                    "velocity": 0.28346456692913385,
                    "duration": 0.10768899999999348
                },
                {
                    "name": "C#3",
                    "midi": 49,
                    "time": 273.09930399999314,
                    "velocity": 0.3464566929133858,
                    "duration": 1.7230239999998958
                },
                {
                    "name": "F3",
                    "midi": 53,
                    "time": 273.20699299999313,
                    "velocity": 0.25196850393700787,
                    "duration": 0.10768899999999348
                },
                {
                    "name": "A#3",
                    "midi": 58,
                    "time": 273.3146819999931,
                    "velocity": 0.25984251968503935,
                    "duration": 0.10768899999999348
                },
                {
                    "name": "F3",
                    "midi": 53,
                    "time": 273.4223709999931,
                    "velocity": 0.2677165354330709,
                    "duration": 0.10768899999999348
                },
                {
                    "name": "A#3",
                    "midi": 58,
                    "time": 273.5300599999931,
                    "velocity": 0.2992125984251969,
                    "duration": 0.10768899999999348
                },
                {
                    "name": "F3",
                    "midi": 53,
                    "time": 273.6377489999931,
                    "velocity": 0.29133858267716534,
                    "duration": 0.10768899999999348
                },
                {
                    "name": "A#3",
                    "midi": 58,
                    "time": 273.7454379999931,
                    "velocity": 0.2992125984251969,
                    "duration": 0.10768899999999348
                },
                {
                    "name": "F3",
                    "midi": 53,
                    "time": 273.8531269999931,
                    "velocity": 0.2992125984251969,
                    "duration": 0.10768899999999348
                },
                {
                    "name": "A#3",
                    "midi": 58,
                    "time": 273.9608159999931,
                    "velocity": 0.30708661417322836,
                    "duration": 0.10768899999999348
                },
                {
                    "name": "F3",
                    "midi": 53,
                    "time": 274.0685049999931,
                    "velocity": 0.30708661417322836,
                    "duration": 0.10768899999999348
                },
                {
                    "name": "A#3",
                    "midi": 58,
                    "time": 274.1761939999931,
                    "velocity": 0.2992125984251969,
                    "duration": 0.10768899999999348
                },
                {
                    "name": "F3",
                    "midi": 53,
                    "time": 274.28388299999307,
                    "velocity": 0.2992125984251969,
                    "duration": 0.10768899999999348
                },
                {
                    "name": "A#3",
                    "midi": 58,
                    "time": 274.39157199999306,
                    "velocity": 0.2992125984251969,
                    "duration": 0.10768899999999348
                },
                {
                    "name": "F3",
                    "midi": 53,
                    "time": 274.49926099999306,
                    "velocity": 0.29133858267716534,
                    "duration": 0.10768899999999348
                },
                {
                    "name": "A#3",
                    "midi": 58,
                    "time": 274.60694999999305,
                    "velocity": 0.29133858267716534,
                    "duration": 0.10768899999999348
                },
                {
                    "name": "F3",
                    "midi": 53,
                    "time": 274.71463899999304,
                    "velocity": 0.28346456692913385,
                    "duration": 0.10768899999999348
                },
                {
                    "name": "D#3",
                    "midi": 51,
                    "time": 274.82232799999304,
                    "velocity": 0.3464566929133858,
                    "duration": 1.7230239999998958
                },
                {
                    "name": "F#3",
                    "midi": 54,
                    "time": 274.93001699999303,
                    "velocity": 0.25196850393700787,
                    "duration": 0.10768899999999348
                },
                {
                    "name": "B3",
                    "midi": 59,
                    "time": 275.037705999993,
                    "velocity": 0.25984251968503935,
                    "duration": 0.10768899999999348
                },
                {
                    "name": "F#3",
                    "midi": 54,
                    "time": 275.145394999993,
                    "velocity": 0.2755905511811024,
                    "duration": 0.10768899999999348
                },
                {
                    "name": "B3",
                    "midi": 59,
                    "time": 275.253083999993,
                    "velocity": 0.30708661417322836,
                    "duration": 0.10768899999999348
                },
                {
                    "name": "F#3",
                    "midi": 54,
                    "time": 275.360772999993,
                    "velocity": 0.30708661417322836,
                    "duration": 0.10768899999999348
                },
                {
                    "name": "B3",
                    "midi": 59,
                    "time": 275.468461999993,
                    "velocity": 0.31496062992125984,
                    "duration": 0.10768899999999348
                },
                {
                    "name": "F#3",
                    "midi": 54,
                    "time": 275.576150999993,
                    "velocity": 0.3228346456692913,
                    "duration": 0.10768899999999348
                },
                {
                    "name": "B3",
                    "midi": 59,
                    "time": 275.683839999993,
                    "velocity": 0.33070866141732286,
                    "duration": 0.10768899999999348
                },
                {
                    "name": "F#3",
                    "midi": 54,
                    "time": 275.791528999993,
                    "velocity": 0.33858267716535434,
                    "duration": 0.10768899999999348
                },
                {
                    "name": "B3",
                    "midi": 59,
                    "time": 275.89921799999297,
                    "velocity": 0.33070866141732286,
                    "duration": 0.10768899999999348
                },
                {
                    "name": "F#3",
                    "midi": 54,
                    "time": 276.00690699999296,
                    "velocity": 0.33070866141732286,
                    "duration": 0.10768899999999348
                },
                {
                    "name": "B3",
                    "midi": 59,
                    "time": 276.11459599999296,
                    "velocity": 0.33858267716535434,
                    "duration": 0.10768899999999348
                },
                {
                    "name": "F#3",
                    "midi": 54,
                    "time": 276.22228499999295,
                    "velocity": 0.33070866141732286,
                    "duration": 0.10768899999999348
                },
                {
                    "name": "B3",
                    "midi": 59,
                    "time": 276.32997399999294,
                    "velocity": 0.3543307086614173,
                    "duration": 0.10768899999999348
                },
                {
                    "name": "F#3",
                    "midi": 54,
                    "time": 276.43766299999294,
                    "velocity": 0.33070866141732286,
                    "duration": 0.10768899999999348
                },
                {
                    "name": "F3",
                    "midi": 53,
                    "time": 276.54535199999293,
                    "velocity": 0.36220472440944884,
                    "duration": 0.8615119999999479
                },
                {
                    "name": "A#3",
                    "midi": 58,
                    "time": 276.6530409999929,
                    "velocity": 0.36220472440944884,
                    "duration": 0.10768899999999348
                },
                {
                    "name": "C#4",
                    "midi": 61,
                    "time": 276.7607299999929,
                    "velocity": 0.3464566929133858,
                    "duration": 0.10768899999999348
                },
                {
                    "name": "A#3",
                    "midi": 58,
                    "time": 276.8684189999929,
                    "velocity": 0.3464566929133858,
                    "duration": 0.10768899999999348
                },
                {
                    "name": "C#4",
                    "midi": 61,
                    "time": 276.9761079999929,
                    "velocity": 0.33858267716535434,
                    "duration": 0.10768899999999348
                },
                {
                    "name": "A#3",
                    "midi": 58,
                    "time": 277.0837969999929,
                    "velocity": 0.33070866141732286,
                    "duration": 0.10768899999999348
                },
                {
                    "name": "C#4",
                    "midi": 61,
                    "time": 277.1914859999929,
                    "velocity": 0.3228346456692913,
                    "duration": 0.10768899999999348
                },
                {
                    "name": "A#3",
                    "midi": 58,
                    "time": 277.2991749999929,
                    "velocity": 0.31496062992125984,
                    "duration": 0.10768899999999348
                },
                {
                    "name": "D#3",
                    "midi": 51,
                    "time": 277.4068639999929,
                    "velocity": 0.33070866141732286,
                    "duration": 0.8615119999999479
                },
                {
                    "name": "F3",
                    "midi": 53,
                    "time": 277.5145529999929,
                    "velocity": 0.33070866141732286,
                    "duration": 0.10768899999999348
                },
                {
                    "name": "C4",
                    "midi": 60,
                    "time": 277.62224199999287,
                    "velocity": 0.3228346456692913,
                    "duration": 0.10768899999999348
                },
                {
                    "name": "F3",
                    "midi": 53,
                    "time": 277.72993099999286,
                    "velocity": 0.31496062992125984,
                    "duration": 0.10768899999999348
                },
                {
                    "name": "C4",
                    "midi": 60,
                    "time": 277.83761999999285,
                    "velocity": 0.30708661417322836,
                    "duration": 0.10768899999999348
                },
                {
                    "name": "F3",
                    "midi": 53,
                    "time": 277.94530899999285,
                    "velocity": 0.2992125984251969,
                    "duration": 0.10768899999999348
                },
                {
                    "name": "C4",
                    "midi": 60,
                    "time": 278.05299799999284,
                    "velocity": 0.2992125984251969,
                    "duration": 0.10768899999999348
                },
                {
                    "name": "F3",
                    "midi": 53,
                    "time": 278.16068699999283,
                    "velocity": 0.28346456692913385,
                    "duration": 0.10768899999999348
                },
                {
                    "name": "C#3",
                    "midi": 49,
                    "time": 278.2683759999928,
                    "velocity": 0.3779527559055118,
                    "duration": 0.10768899999999348
                },
                {
                    "name": "F4",
                    "midi": 65,
                    "time": 278.3760649999928,
                    "velocity": 0.3779527559055118,
                    "duration": 0.10768899999999348
                },
                {
                    "name": "A#3",
                    "midi": 58,
                    "time": 278.6991319999928,
                    "velocity": 0.4566929133858268,
                    "duration": 0.43075599999997394
                },
                {
                    "name": "C#4",
                    "midi": 61,
                    "time": 278.8068209999928,
                    "velocity": 0.31496062992125984,
                    "duration": 0.10768899999999348
                },
                {
                    "name": "F4",
                    "midi": 65,
                    "time": 278.9145099999928,
                    "velocity": 0.3228346456692913,
                    "duration": 0.10768899999999348
                },
                {
                    "name": "C#4",
                    "midi": 61,
                    "time": 279.0221989999928,
                    "velocity": 0.3228346456692913,
                    "duration": 0.10768899999999348
                },
                {
                    "name": "A3",
                    "midi": 57,
                    "time": 279.1298879999928,
                    "velocity": 0.49606299212598426,
                    "duration": 0.43075599999997394
                },
                {
                    "name": "C#4",
                    "midi": 61,
                    "time": 279.23757699999277,
                    "velocity": 0.33070866141732286,
                    "duration": 0.10768899999999348
                },
                {
                    "name": "F4",
                    "midi": 65,
                    "time": 279.34526599999276,
                    "velocity": 0.33070866141732286,
                    "duration": 0.10768899999999348
                },
                {
                    "name": "C#4",
                    "midi": 61,
                    "time": 279.45295499999276,
                    "velocity": 0.33070866141732286,
                    "duration": 0.10768899999999348
                },
                {
                    "name": "A#3",
                    "midi": 58,
                    "time": 279.56064399999275,
                    "velocity": 0.4330708661417323,
                    "duration": 0.43075599999997394
                },
                {
                    "name": "C#4",
                    "midi": 61,
                    "time": 279.66833299999274,
                    "velocity": 0.3228346456692913,
                    "duration": 0.10768899999999348
                },
                {
                    "name": "F4",
                    "midi": 65,
                    "time": 279.77602199999274,
                    "velocity": 0.3228346456692913,
                    "duration": 0.10768899999999348
                },
                {
                    "name": "C#4",
                    "midi": 61,
                    "time": 279.88371099999273,
                    "velocity": 0.3228346456692913,
                    "duration": 0.10768899999999348
                },
                {
                    "name": "C#3",
                    "midi": 49,
                    "time": 279.9913999999927,
                    "velocity": 0.4015748031496063,
                    "duration": 0.10768899999999348
                },
                {
                    "name": "F4",
                    "midi": 65,
                    "time": 280.0990889999927,
                    "velocity": 0.4094488188976378,
                    "duration": 0.10768899999999348
                },
                {
                    "name": "A#3",
                    "midi": 58,
                    "time": 280.4221559999927,
                    "velocity": 0.5354330708661418,
                    "duration": 0.43075599999997394
                },
                {
                    "name": "C#4",
                    "midi": 61,
                    "time": 280.5298449999927,
                    "velocity": 0.3543307086614173,
                    "duration": 0.10768899999999348
                },
                {
                    "name": "F4",
                    "midi": 65,
                    "time": 280.6375339999927,
                    "velocity": 0.3700787401574803,
                    "duration": 0.10768899999999348
                },
                {
                    "name": "C#4",
                    "midi": 61,
                    "time": 280.7452229999927,
                    "velocity": 0.3779527559055118,
                    "duration": 0.10768899999999348
                },
                {
                    "name": "A3",
                    "midi": 57,
                    "time": 280.85291199999267,
                    "velocity": 0.5826771653543307,
                    "duration": 0.43075599999997394
                },
                {
                    "name": "C#4",
                    "midi": 61,
                    "time": 280.96060099999266,
                    "velocity": 0.3937007874015748,
                    "duration": 0.10768899999999348
                },
                {
                    "name": "F4",
                    "midi": 65,
                    "time": 281.06828999999266,
                    "velocity": 0.3858267716535433,
                    "duration": 0.10768899999999348
                },
                {
                    "name": "C#4",
                    "midi": 61,
                    "time": 281.17597899999265,
                    "velocity": 0.3937007874015748,
                    "duration": 0.10768899999999348
                },
                {
                    "name": "A#3",
                    "midi": 58,
                    "time": 281.28366799999264,
                    "velocity": 0.6062992125984252,
                    "duration": 0.43075599999997394
                },
                {
                    "name": "C#4",
                    "midi": 61,
                    "time": 281.39135699999264,
                    "velocity": 0.3937007874015748,
                    "duration": 0.10768899999999348
                },
                {
                    "name": "F4",
                    "midi": 65,
                    "time": 281.49904599999263,
                    "velocity": 0.4015748031496063,
                    "duration": 0.10768899999999348
                },
                {
                    "name": "C#4",
                    "midi": 61,
                    "time": 281.6067349999926,
                    "velocity": 0.3937007874015748,
                    "duration": 0.10768899999999348
                },
                {
                    "name": "D#3",
                    "midi": 51,
                    "time": 281.7144239999926,
                    "velocity": 0.5511811023622047,
                    "duration": 0.10768899999999348
                },
                {
                    "name": "F#4",
                    "midi": 66,
                    "time": 281.8221129999926,
                    "velocity": 0.4330708661417323,
                    "duration": 0.10768899999999348
                },
                {
                    "name": "B4",
                    "midi": 71,
                    "time": 281.8221129999926,
                    "velocity": 0.4330708661417323,
                    "duration": 0.10768899999999348
                },
                {
                    "name": "D#4",
                    "midi": 63,
                    "time": 281.9298019999926,
                    "velocity": 0.4645669291338583,
                    "duration": 0.10768899999999348
                },
                {
                    "name": "F#4",
                    "midi": 66,
                    "time": 282.0374909999926,
                    "velocity": 0.4330708661417323,
                    "duration": 0.10768899999999348
                },
                {
                    "name": "B4",
                    "midi": 71,
                    "time": 282.0374909999926,
                    "velocity": 0.4330708661417323,
                    "duration": 0.10768899999999348
                },
                {
                    "name": "D#4",
                    "midi": 63,
                    "time": 282.1451799999926,
                    "velocity": 0.4645669291338583,
                    "duration": 0.10768899999999348
                },
                {
                    "name": "F#4",
                    "midi": 66,
                    "time": 282.2528689999926,
                    "velocity": 0.4330708661417323,
                    "duration": 0.10768899999999348
                },
                {
                    "name": "B4",
                    "midi": 71,
                    "time": 282.2528689999926,
                    "velocity": 0.4330708661417323,
                    "duration": 0.10768899999999348
                },
                {
                    "name": "D#4",
                    "midi": 63,
                    "time": 282.3605579999926,
                    "velocity": 0.4645669291338583,
                    "duration": 0.10768899999999348
                },
                {
                    "name": "F#4",
                    "midi": 66,
                    "time": 282.4682469999926,
                    "velocity": 0.4409448818897638,
                    "duration": 0.10768899999999348
                },
                {
                    "name": "B4",
                    "midi": 71,
                    "time": 282.4682469999926,
                    "velocity": 0.4409448818897638,
                    "duration": 0.10768899999999348
                },
                {
                    "name": "D#4",
                    "midi": 63,
                    "time": 282.57593599999257,
                    "velocity": 0.4645669291338583,
                    "duration": 0.10768899999999348
                },
                {
                    "name": "F#4",
                    "midi": 66,
                    "time": 282.68362499999256,
                    "velocity": 0.4330708661417323,
                    "duration": 0.10768899999999348
                },
                {
                    "name": "B4",
                    "midi": 71,
                    "time": 282.68362499999256,
                    "velocity": 0.4330708661417323,
                    "duration": 0.10768899999999348
                },
                {
                    "name": "D#4",
                    "midi": 63,
                    "time": 282.79131399999255,
                    "velocity": 0.4645669291338583,
                    "duration": 0.10768899999999348
                },
                {
                    "name": "F#4",
                    "midi": 66,
                    "time": 282.89900299999255,
                    "velocity": 0.4330708661417323,
                    "duration": 0.10768899999999348
                },
                {
                    "name": "B4",
                    "midi": 71,
                    "time": 282.89900299999255,
                    "velocity": 0.4330708661417323,
                    "duration": 0.10768899999999348
                },
                {
                    "name": "D#4",
                    "midi": 63,
                    "time": 283.00669199999254,
                    "velocity": 0.4645669291338583,
                    "duration": 0.10768899999999348
                },
                {
                    "name": "F#4",
                    "midi": 66,
                    "time": 283.11438099999253,
                    "velocity": 0.4330708661417323,
                    "duration": 0.10768899999999348
                },
                {
                    "name": "B4",
                    "midi": 71,
                    "time": 283.11438099999253,
                    "velocity": 0.4330708661417323,
                    "duration": 0.10768899999999348
                },
                {
                    "name": "D#4",
                    "midi": 63,
                    "time": 283.2220699999925,
                    "velocity": 0.4645669291338583,
                    "duration": 0.10768899999999348
                },
                {
                    "name": "F#4",
                    "midi": 66,
                    "time": 283.3297589999925,
                    "velocity": 0.4409448818897638,
                    "duration": 0.10768899999999348
                },
                {
                    "name": "B4",
                    "midi": 71,
                    "time": 283.3297589999925,
                    "velocity": 0.4409448818897638,
                    "duration": 0.10768899999999348
                },
                {
                    "name": "F4",
                    "midi": 65,
                    "time": 283.4374479999925,
                    "velocity": 0.4645669291338583,
                    "duration": 0.10768899999999348
                },
                {
                    "name": "A4",
                    "midi": 69,
                    "time": 283.5451369999925,
                    "velocity": 0.4330708661417323,
                    "duration": 0.10768899999999348
                },
                {
                    "name": "C5",
                    "midi": 72,
                    "time": 283.5451369999925,
                    "velocity": 0.4330708661417323,
                    "duration": 0.10768899999999348
                },
                {
                    "name": "D#5",
                    "midi": 75,
                    "time": 283.5451369999925,
                    "velocity": 0.4330708661417323,
                    "duration": 0.10768899999999348
                },
                {
                    "name": "F4",
                    "midi": 65,
                    "time": 283.6528259999925,
                    "velocity": 0.4645669291338583,
                    "duration": 0.10768899999999348
                },
                {
                    "name": "A4",
                    "midi": 69,
                    "time": 283.7605149999925,
                    "velocity": 0.4330708661417323,
                    "duration": 0.10768899999999348
                },
                {
                    "name": "C5",
                    "midi": 72,
                    "time": 283.7605149999925,
                    "velocity": 0.4330708661417323,
                    "duration": 0.10768899999999348
                },
                {
                    "name": "D#5",
                    "midi": 75,
                    "time": 283.7605149999925,
                    "velocity": 0.4330708661417323,
                    "duration": 0.10768899999999348
                },
                {
                    "name": "F4",
                    "midi": 65,
                    "time": 283.8682039999925,
                    "velocity": 0.4645669291338583,
                    "duration": 0.10768899999999348
                },
                {
                    "name": "A4",
                    "midi": 69,
                    "time": 283.9758929999925,
                    "velocity": 0.4330708661417323,
                    "duration": 0.10768899999999348
                },
                {
                    "name": "C5",
                    "midi": 72,
                    "time": 283.9758929999925,
                    "velocity": 0.4330708661417323,
                    "duration": 0.10768899999999348
                },
                {
                    "name": "D#5",
                    "midi": 75,
                    "time": 283.9758929999925,
                    "velocity": 0.4330708661417323,
                    "duration": 0.10768899999999348
                },
                {
                    "name": "F4",
                    "midi": 65,
                    "time": 284.0835819999925,
                    "velocity": 0.4645669291338583,
                    "duration": 0.10768899999999348
                },
                {
                    "name": "A4",
                    "midi": 69,
                    "time": 284.19127099999247,
                    "velocity": 0.4330708661417323,
                    "duration": 0.10768899999999348
                },
                {
                    "name": "C5",
                    "midi": 72,
                    "time": 284.19127099999247,
                    "velocity": 0.4409448818897638,
                    "duration": 0.10768899999999348
                },
                {
                    "name": "D#5",
                    "midi": 75,
                    "time": 284.19127099999247,
                    "velocity": 0.4409448818897638,
                    "duration": 0.10768899999999348
                },
                {
                    "name": "F4",
                    "midi": 65,
                    "time": 284.29895999999246,
                    "velocity": 0.4645669291338583,
                    "duration": 0.10768899999999348
                },
                {
                    "name": "A4",
                    "midi": 69,
                    "time": 284.40664899999246,
                    "velocity": 0.4330708661417323,
                    "duration": 0.10768899999999348
                },
                {
                    "name": "F4",
                    "midi": 65,
                    "time": 284.51433799999245,
                    "velocity": 0.4645669291338583,
                    "duration": 0.10768899999999348
                },
                {
                    "name": "A4",
                    "midi": 69,
                    "time": 284.62202699999244,
                    "velocity": 0.4330708661417323,
                    "duration": 0.10768899999999348
                },
                {
                    "name": "F3",
                    "midi": 53,
                    "time": 284.72971599999244,
                    "velocity": 0.4645669291338583,
                    "duration": 0.10768899999999348
                },
                {
                    "name": "F4",
                    "midi": 65,
                    "time": 284.83740499999243,
                    "velocity": 0.3937007874015748,
                    "duration": 0.10768899999999348
                },
                {
                    "name": "F3",
                    "midi": 53,
                    "time": 284.9450939999924,
                    "velocity": 0.44881889763779526,
                    "duration": 0.10768899999999348
                },
                {
                    "name": "F4",
                    "midi": 65,
                    "time": 285.0527829999924,
                    "velocity": 0.3858267716535433,
                    "duration": 0.10768899999999348
                },
                {
                    "name": "A#2",
                    "midi": 46,
                    "time": 285.1604719999924,
                    "velocity": 0.4645669291338583,
                    "duration": 0.21537799999998697
                },
                {
                    "name": "A#3",
                    "midi": 58,
                    "time": 285.3758499999924,
                    "velocity": 0.3464566929133858,
                    "duration": 0.10768899999999348
                },
                {
                    "name": "C#4",
                    "midi": 61,
                    "time": 285.3758499999924,
                    "velocity": 0.3464566929133858,
                    "duration": 0.10768899999999348
                },
                {
                    "name": "F4",
                    "midi": 65,
                    "time": 285.4835389999924,
                    "velocity": 0.2992125984251969,
                    "duration": 0.10768899999999348
                },
                {
                    "name": "A#3",
                    "midi": 58,
                    "time": 285.5912279999924,
                    "velocity": 0.3464566929133858,
                    "duration": 0.10768899999999348
                },
                {
                    "name": "C#4",
                    "midi": 61,
                    "time": 285.5912279999924,
                    "velocity": 0.3464566929133858,
                    "duration": 0.10768899999999348
                },
                {
                    "name": "F4",
                    "midi": 65,
                    "time": 285.6989169999924,
                    "velocity": 0.2992125984251969,
                    "duration": 0.10768899999999348
                },
                {
                    "name": "C#4",
                    "midi": 61,
                    "time": 285.80660599999237,
                    "velocity": 0.3464566929133858,
                    "duration": 0.10768899999999348
                },
                {
                    "name": "A#3",
                    "midi": 58,
                    "time": 285.80660599999237,
                    "velocity": 0.3464566929133858,
                    "duration": 0.10768899999999348
                },
                {
                    "name": "F4",
                    "midi": 65,
                    "time": 285.91429499999236,
                    "velocity": 0.2992125984251969,
                    "duration": 0.10768899999999348
                },
                {
                    "name": "A#3",
                    "midi": 58,
                    "time": 286.02198399999236,
                    "velocity": 0.3464566929133858,
                    "duration": 0.10768899999999348
                },
                {
                    "name": "C#4",
                    "midi": 61,
                    "time": 286.02198399999236,
                    "velocity": 0.3464566929133858,
                    "duration": 0.10768899999999348
                },
                {
                    "name": "F4",
                    "midi": 65,
                    "time": 286.12967299999235,
                    "velocity": 0.2992125984251969,
                    "duration": 0.10768899999999348
                },
                {
                    "name": "C#4",
                    "midi": 61,
                    "time": 286.23736199999234,
                    "velocity": 0.3464566929133858,
                    "duration": 0.10768899999999348
                },
                {
                    "name": "A#3",
                    "midi": 58,
                    "time": 286.23736199999234,
                    "velocity": 0.3464566929133858,
                    "duration": 0.10768899999999348
                },
                {
                    "name": "E4",
                    "midi": 64,
                    "time": 286.34505099999234,
                    "velocity": 0.2992125984251969,
                    "duration": 0.10768899999999348
                },
                {
                    "name": "A#3",
                    "midi": 58,
                    "time": 286.45273999999233,
                    "velocity": 0.3464566929133858,
                    "duration": 0.10768899999999348
                },
                {
                    "name": "C#4",
                    "midi": 61,
                    "time": 286.45273999999233,
                    "velocity": 0.3464566929133858,
                    "duration": 0.10768899999999348
                },
                {
                    "name": "E4",
                    "midi": 64,
                    "time": 286.5604289999923,
                    "velocity": 0.2992125984251969,
                    "duration": 0.10768899999999348
                },
                {
                    "name": "A#3",
                    "midi": 58,
                    "time": 286.6681179999923,
                    "velocity": 0.3464566929133858,
                    "duration": 0.10768899999999348
                },
                {
                    "name": "C#4",
                    "midi": 61,
                    "time": 286.6681179999923,
                    "velocity": 0.3464566929133858,
                    "duration": 0.10768899999999348
                },
                {
                    "name": "E4",
                    "midi": 64,
                    "time": 286.7758069999923,
                    "velocity": 0.2992125984251969,
                    "duration": 0.10768899999999348
                },
                {
                    "name": "A3",
                    "midi": 57,
                    "time": 286.8834959999923,
                    "velocity": 0.3464566929133858,
                    "duration": 0.10768899999999348
                },
                {
                    "name": "C4",
                    "midi": 60,
                    "time": 286.8834959999923,
                    "velocity": 0.3464566929133858,
                    "duration": 0.10768899999999348
                },
                {
                    "name": "E4",
                    "midi": 64,
                    "time": 286.9911849999923,
                    "velocity": 0.2992125984251969,
                    "duration": 0.10768899999999348
                },
                {
                    "name": "C4",
                    "midi": 60,
                    "time": 287.0988739999923,
                    "velocity": 0.3464566929133858,
                    "duration": 0.10768899999999348
                },
                {
                    "name": "A3",
                    "midi": 57,
                    "time": 287.0988739999923,
                    "velocity": 0.3464566929133858,
                    "duration": 0.10768899999999348
                },
                {
                    "name": "F4",
                    "midi": 65,
                    "time": 287.2065629999923,
                    "velocity": 0.2992125984251969,
                    "duration": 0.10768899999999348
                },
                {
                    "name": "A3",
                    "midi": 57,
                    "time": 287.3142519999923,
                    "velocity": 0.3464566929133858,
                    "duration": 0.10768899999999348
                },
                {
                    "name": "C4",
                    "midi": 60,
                    "time": 287.3142519999923,
                    "velocity": 0.3464566929133858,
                    "duration": 0.10768899999999348
                },
                {
                    "name": "F4",
                    "midi": 65,
                    "time": 287.4219409999923,
                    "velocity": 0.2992125984251969,
                    "duration": 0.10768899999999348
                },
                {
                    "name": "A3",
                    "midi": 57,
                    "time": 287.52962999999227,
                    "velocity": 0.3464566929133858,
                    "duration": 0.10768899999999348
                },
                {
                    "name": "C4",
                    "midi": 60,
                    "time": 287.52962999999227,
                    "velocity": 0.3464566929133858,
                    "duration": 0.10768899999999348
                },
                {
                    "name": "F4",
                    "midi": 65,
                    "time": 287.63731899999226,
                    "velocity": 0.2992125984251969,
                    "duration": 0.10768899999999348
                },
                {
                    "name": "A3",
                    "midi": 57,
                    "time": 287.74500799999225,
                    "velocity": 0.3464566929133858,
                    "duration": 0.10768899999999348
                },
                {
                    "name": "C4",
                    "midi": 60,
                    "time": 287.74500799999225,
                    "velocity": 0.3464566929133858,
                    "duration": 0.10768899999999348
                },
                {
                    "name": "F4",
                    "midi": 65,
                    "time": 287.85269699999225,
                    "velocity": 0.2992125984251969,
                    "duration": 0.10768899999999348
                },
                {
                    "name": "C4",
                    "midi": 60,
                    "time": 287.96038599999224,
                    "velocity": 0.3464566929133858,
                    "duration": 0.10768899999999348
                },
                {
                    "name": "A3",
                    "midi": 57,
                    "time": 287.96038599999224,
                    "velocity": 0.3464566929133858,
                    "duration": 0.10768899999999348
                },
                {
                    "name": "F4",
                    "midi": 65,
                    "time": 288.06807499999223,
                    "velocity": 0.2992125984251969,
                    "duration": 0.10768899999999348
                },
                {
                    "name": "A3",
                    "midi": 57,
                    "time": 288.1757639999922,
                    "velocity": 0.3464566929133858,
                    "duration": 0.10768899999999348
                },
                {
                    "name": "C4",
                    "midi": 60,
                    "time": 288.1757639999922,
                    "velocity": 0.3464566929133858,
                    "duration": 0.10768899999999348
                },
                {
                    "name": "F4",
                    "midi": 65,
                    "time": 288.2834529999922,
                    "velocity": 0.2992125984251969,
                    "duration": 0.10768899999999348
                },
                {
                    "name": "A3",
                    "midi": 57,
                    "time": 288.3911419999922,
                    "velocity": 0.3464566929133858,
                    "duration": 0.10768899999999348
                },
                {
                    "name": "C4",
                    "midi": 60,
                    "time": 288.3911419999922,
                    "velocity": 0.3464566929133858,
                    "duration": 0.10768899999999348
                },
                {
                    "name": "F4",
                    "midi": 65,
                    "time": 288.4988309999922,
                    "velocity": 0.2992125984251969,
                    "duration": 0.10768899999999348
                },
                {
                    "name": "C#4",
                    "midi": 61,
                    "time": 288.6065199999922,
                    "velocity": 0.3464566929133858,
                    "duration": 0.10768899999999348
                },
                {
                    "name": "A#3",
                    "midi": 58,
                    "time": 288.6065199999922,
                    "velocity": 0.3464566929133858,
                    "duration": 0.10768899999999348
                },
                {
                    "name": "F4",
                    "midi": 65,
                    "time": 288.7142089999922,
                    "velocity": 0.2992125984251969,
                    "duration": 0.10768899999999348
                },
                {
                    "name": "A#3",
                    "midi": 58,
                    "time": 288.8218979999922,
                    "velocity": 0.4566929133858268,
                    "duration": 0.10768899999999348
                },
                {
                    "name": "C#4",
                    "midi": 61,
                    "time": 288.8218979999922,
                    "velocity": 0.4566929133858268,
                    "duration": 0.10768899999999348
                },
                {
                    "name": "F4",
                    "midi": 65,
                    "time": 288.9295869999922,
                    "velocity": 0.4015748031496063,
                    "duration": 0.10768899999999348
                },
                {
                    "name": "A#3",
                    "midi": 58,
                    "time": 289.0372759999922,
                    "velocity": 0.4566929133858268,
                    "duration": 0.10768899999999348
                },
                {
                    "name": "C#4",
                    "midi": 61,
                    "time": 289.0372759999922,
                    "velocity": 0.4566929133858268,
                    "duration": 0.10768899999999348
                },
                {
                    "name": "F4",
                    "midi": 65,
                    "time": 289.14496499999217,
                    "velocity": 0.4015748031496063,
                    "duration": 0.10768899999999348
                },
                {
                    "name": "C#4",
                    "midi": 61,
                    "time": 289.25265399999216,
                    "velocity": 0.4566929133858268,
                    "duration": 0.10768899999999348
                },
                {
                    "name": "A#3",
                    "midi": 58,
                    "time": 289.25265399999216,
                    "velocity": 0.4566929133858268,
                    "duration": 0.10768899999999348
                },
                {
                    "name": "F4",
                    "midi": 65,
                    "time": 289.36034299999216,
                    "velocity": 0.4015748031496063,
                    "duration": 0.10768899999999348
                },
                {
                    "name": "A#3",
                    "midi": 58,
                    "time": 289.46803199999215,
                    "velocity": 0.4566929133858268,
                    "duration": 0.10768899999999348
                },
                {
                    "name": "C#4",
                    "midi": 61,
                    "time": 289.46803199999215,
                    "velocity": 0.4566929133858268,
                    "duration": 0.10768899999999348
                },
                {
                    "name": "F4",
                    "midi": 65,
                    "time": 289.57572099999214,
                    "velocity": 0.4015748031496063,
                    "duration": 0.10768899999999348
                },
                {
                    "name": "C#4",
                    "midi": 61,
                    "time": 289.68340999999214,
                    "velocity": 0.4566929133858268,
                    "duration": 0.10768899999999348
                },
                {
                    "name": "A#3",
                    "midi": 58,
                    "time": 289.68340999999214,
                    "velocity": 0.4566929133858268,
                    "duration": 0.10768899999999348
                },
                {
                    "name": "E4",
                    "midi": 64,
                    "time": 289.79109899999213,
                    "velocity": 0.4015748031496063,
                    "duration": 0.10768899999999348
                },
                {
                    "name": "A#3",
                    "midi": 58,
                    "time": 289.8987879999921,
                    "velocity": 0.4566929133858268,
                    "duration": 0.10768899999999348
                },
                {
                    "name": "C#4",
                    "midi": 61,
                    "time": 289.8987879999921,
                    "velocity": 0.4566929133858268,
                    "duration": 0.10768899999999348
                },
                {
                    "name": "E4",
                    "midi": 64,
                    "time": 290.0064769999921,
                    "velocity": 0.4015748031496063,
                    "duration": 0.10768899999999348
                },
                {
                    "name": "A#3",
                    "midi": 58,
                    "time": 290.1141659999921,
                    "velocity": 0.4566929133858268,
                    "duration": 0.10768899999999348
                },
                {
                    "name": "C#4",
                    "midi": 61,
                    "time": 290.1141659999921,
                    "velocity": 0.4566929133858268,
                    "duration": 0.10768899999999348
                },
                {
                    "name": "E4",
                    "midi": 64,
                    "time": 290.2218549999921,
                    "velocity": 0.4015748031496063,
                    "duration": 0.10768899999999348
                },
                {
                    "name": "A3",
                    "midi": 57,
                    "time": 290.3295439999921,
                    "velocity": 0.4566929133858268,
                    "duration": 0.10768899999999348
                },
                {
                    "name": "C4",
                    "midi": 60,
                    "time": 290.3295439999921,
                    "velocity": 0.4566929133858268,
                    "duration": 0.10768899999999348
                },
                {
                    "name": "E4",
                    "midi": 64,
                    "time": 290.4372329999921,
                    "velocity": 0.4015748031496063,
                    "duration": 0.10768899999999348
                },
                {
                    "name": "C4",
                    "midi": 60,
                    "time": 290.5449219999921,
                    "velocity": 0.4566929133858268,
                    "duration": 0.10768899999999348
                },
                {
                    "name": "A3",
                    "midi": 57,
                    "time": 290.5449219999921,
                    "velocity": 0.4566929133858268,
                    "duration": 0.10768899999999348
                },
                {
                    "name": "F4",
                    "midi": 65,
                    "time": 290.6526109999921,
                    "velocity": 0.4015748031496063,
                    "duration": 0.10768899999999348
                },
                {
                    "name": "A3",
                    "midi": 57,
                    "time": 290.76029999999207,
                    "velocity": 0.4566929133858268,
                    "duration": 0.10768899999999348
                },
                {
                    "name": "C4",
                    "midi": 60,
                    "time": 290.76029999999207,
                    "velocity": 0.4566929133858268,
                    "duration": 0.10768899999999348
                },
                {
                    "name": "F4",
                    "midi": 65,
                    "time": 290.86798899999206,
                    "velocity": 0.4015748031496063,
                    "duration": 0.10768899999999348
                },
                {
                    "name": "A3",
                    "midi": 57,
                    "time": 290.97567799999206,
                    "velocity": 0.4566929133858268,
                    "duration": 0.10768899999999348
                },
                {
                    "name": "C4",
                    "midi": 60,
                    "time": 290.97567799999206,
                    "velocity": 0.4566929133858268,
                    "duration": 0.10768899999999348
                },
                {
                    "name": "F4",
                    "midi": 65,
                    "time": 291.08336699999205,
                    "velocity": 0.4015748031496063,
                    "duration": 0.10768899999999348
                },
                {
                    "name": "A3",
                    "midi": 57,
                    "time": 291.19105599999205,
                    "velocity": 0.4566929133858268,
                    "duration": 0.10768899999999348
                },
                {
                    "name": "C4",
                    "midi": 60,
                    "time": 291.19105599999205,
                    "velocity": 0.4566929133858268,
                    "duration": 0.10768899999999348
                },
                {
                    "name": "F4",
                    "midi": 65,
                    "time": 291.29874499999204,
                    "velocity": 0.4015748031496063,
                    "duration": 0.10768899999999348
                },
                {
                    "name": "C4",
                    "midi": 60,
                    "time": 291.40643399999203,
                    "velocity": 0.4566929133858268,
                    "duration": 0.10768899999999348
                },
                {
                    "name": "A3",
                    "midi": 57,
                    "time": 291.40643399999203,
                    "velocity": 0.4566929133858268,
                    "duration": 0.10768899999999348
                },
                {
                    "name": "F4",
                    "midi": 65,
                    "time": 291.514122999992,
                    "velocity": 0.4015748031496063,
                    "duration": 0.10768899999999348
                },
                {
                    "name": "A3",
                    "midi": 57,
                    "time": 291.621811999992,
                    "velocity": 0.4566929133858268,
                    "duration": 0.10768899999999348
                },
                {
                    "name": "C4",
                    "midi": 60,
                    "time": 291.621811999992,
                    "velocity": 0.4566929133858268,
                    "duration": 0.10768899999999348
                },
                {
                    "name": "F4",
                    "midi": 65,
                    "time": 291.729500999992,
                    "velocity": 0.4015748031496063,
                    "duration": 0.10768899999999348
                },
                {
                    "name": "A3",
                    "midi": 57,
                    "time": 291.837189999992,
                    "velocity": 0.4566929133858268,
                    "duration": 0.10768899999999348
                },
                {
                    "name": "C4",
                    "midi": 60,
                    "time": 291.837189999992,
                    "velocity": 0.4566929133858268,
                    "duration": 0.10768899999999348
                },
                {
                    "name": "F4",
                    "midi": 65,
                    "time": 291.944878999992,
                    "velocity": 0.4015748031496063,
                    "duration": 0.10768899999999348
                },
                {
                    "name": "C#4",
                    "midi": 61,
                    "time": 292.052567999992,
                    "velocity": 0.4566929133858268,
                    "duration": 0.10768899999999348
                },
                {
                    "name": "A#3",
                    "midi": 58,
                    "time": 292.052567999992,
                    "velocity": 0.4566929133858268,
                    "duration": 0.10768899999999348
                },
                {
                    "name": "F4",
                    "midi": 65,
                    "time": 292.160256999992,
                    "velocity": 0.4015748031496063,
                    "duration": 0.10768899999999348
                },
                {
                    "name": "E3",
                    "midi": 52,
                    "time": 292.267945999992,
                    "velocity": 0.3464566929133858,
                    "duration": 0.10768899999999348
                },
                {
                    "name": "G3",
                    "midi": 55,
                    "time": 292.267945999992,
                    "velocity": 0.3464566929133858,
                    "duration": 0.10768899999999348
                },
                {
                    "name": "C4",
                    "midi": 60,
                    "time": 292.375634999992,
                    "velocity": 0.2992125984251969,
                    "duration": 0.10768899999999348
                },
                {
                    "name": "E3",
                    "midi": 52,
                    "time": 292.48332399999197,
                    "velocity": 0.3464566929133858,
                    "duration": 0.10768899999999348
                },
                {
                    "name": "G3",
                    "midi": 55,
                    "time": 292.48332399999197,
                    "velocity": 0.3464566929133858,
                    "duration": 0.10768899999999348
                },
                {
                    "name": "C4",
                    "midi": 60,
                    "time": 292.59101299999196,
                    "velocity": 0.2992125984251969,
                    "duration": 0.10768899999999348
                },
                {
                    "name": "G3",
                    "midi": 55,
                    "time": 292.69870199999195,
                    "velocity": 0.3464566929133858,
                    "duration": 0.10768899999999348
                },
                {
                    "name": "E3",
                    "midi": 52,
                    "time": 292.69870199999195,
                    "velocity": 0.3464566929133858,
                    "duration": 0.10768899999999348
                },
                {
                    "name": "C4",
                    "midi": 60,
                    "time": 292.80639099999195,
                    "velocity": 0.2992125984251969,
                    "duration": 0.10768899999999348
                },
                {
                    "name": "F3",
                    "midi": 53,
                    "time": 292.91407999999194,
                    "velocity": 0.3464566929133858,
                    "duration": 0.10768899999999348
                },
                {
                    "name": "G#3",
                    "midi": 56,
                    "time": 292.91407999999194,
                    "velocity": 0.3464566929133858,
                    "duration": 0.10768899999999348
                },
                {
                    "name": "C4",
                    "midi": 60,
                    "time": 293.02176899999193,
                    "velocity": 0.2992125984251969,
                    "duration": 0.10768899999999348
                },
                {
                    "name": "G#3",
                    "midi": 56,
                    "time": 293.1294579999919,
                    "velocity": 0.3464566929133858,
                    "duration": 0.10768899999999348
                },
                {
                    "name": "F3",
                    "midi": 53,
                    "time": 293.1294579999919,
                    "velocity": 0.3464566929133858,
                    "duration": 0.10768899999999348
                },
                {
                    "name": "D4",
                    "midi": 62,
                    "time": 293.2371469999919,
                    "velocity": 0.2992125984251969,
                    "duration": 0.10768899999999348
                },
                {
                    "name": "F3",
                    "midi": 53,
                    "time": 293.3448359999919,
                    "velocity": 0.3464566929133858,
                    "duration": 0.10768899999999348
                },
                {
                    "name": "G#3",
                    "midi": 56,
                    "time": 293.3448359999919,
                    "velocity": 0.3464566929133858,
                    "duration": 0.10768899999999348
                },
                {
                    "name": "D4",
                    "midi": 62,
                    "time": 293.4525249999919,
                    "velocity": 0.2992125984251969,
                    "duration": 0.10768899999999348
                },
                {
                    "name": "F3",
                    "midi": 53,
                    "time": 293.5602139999919,
                    "velocity": 0.3464566929133858,
                    "duration": 0.10768899999999348
                },
                {
                    "name": "G#3",
                    "midi": 56,
                    "time": 293.5602139999919,
                    "velocity": 0.3464566929133858,
                    "duration": 0.10768899999999348
                },
                {
                    "name": "D4",
                    "midi": 62,
                    "time": 293.6679029999919,
                    "velocity": 0.2992125984251969,
                    "duration": 0.10768899999999348
                },
                {
                    "name": "E3",
                    "midi": 52,
                    "time": 293.7755919999919,
                    "velocity": 0.3464566929133858,
                    "duration": 0.10768899999999348
                },
                {
                    "name": "G3",
                    "midi": 55,
                    "time": 293.7755919999919,
                    "velocity": 0.3464566929133858,
                    "duration": 0.10768899999999348
                },
                {
                    "name": "D4",
                    "midi": 62,
                    "time": 293.8832809999919,
                    "velocity": 0.2992125984251969,
                    "duration": 0.10768899999999348
                },
                {
                    "name": "G3",
                    "midi": 55,
                    "time": 293.9909699999919,
                    "velocity": 0.3464566929133858,
                    "duration": 0.10768899999999348
                },
                {
                    "name": "E3",
                    "midi": 52,
                    "time": 293.9909699999919,
                    "velocity": 0.3464566929133858,
                    "duration": 0.10768899999999348
                },
                {
                    "name": "C4",
                    "midi": 60,
                    "time": 294.09865899999187,
                    "velocity": 0.2992125984251969,
                    "duration": 0.10768899999999348
                },
                {
                    "name": "E3",
                    "midi": 52,
                    "time": 294.20634799999186,
                    "velocity": 0.3464566929133858,
                    "duration": 0.10768899999999348
                },
                {
                    "name": "G3",
                    "midi": 55,
                    "time": 294.20634799999186,
                    "velocity": 0.3464566929133858,
                    "duration": 0.10768899999999348
                },
                {
                    "name": "C4",
                    "midi": 60,
                    "time": 294.31403699999186,
                    "velocity": 0.2992125984251969,
                    "duration": 0.10768899999999348
                },
                {
                    "name": "E3",
                    "midi": 52,
                    "time": 294.42172599999185,
                    "velocity": 0.3464566929133858,
                    "duration": 0.10768899999999348
                },
                {
                    "name": "G3",
                    "midi": 55,
                    "time": 294.42172599999185,
                    "velocity": 0.3464566929133858,
                    "duration": 0.10768899999999348
                },
                {
                    "name": "C4",
                    "midi": 60,
                    "time": 294.52941499999184,
                    "velocity": 0.2992125984251969,
                    "duration": 0.10768899999999348
                },
                {
                    "name": "E3",
                    "midi": 52,
                    "time": 294.63710399999184,
                    "velocity": 0.3464566929133858,
                    "duration": 0.10768899999999348
                },
                {
                    "name": "G3",
                    "midi": 55,
                    "time": 294.63710399999184,
                    "velocity": 0.3464566929133858,
                    "duration": 0.10768899999999348
                },
                {
                    "name": "C4",
                    "midi": 60,
                    "time": 294.74479299999183,
                    "velocity": 0.2992125984251969,
                    "duration": 0.10768899999999348
                },
                {
                    "name": "G3",
                    "midi": 55,
                    "time": 294.8524819999918,
                    "velocity": 0.3464566929133858,
                    "duration": 0.10768899999999348
                },
                {
                    "name": "E3",
                    "midi": 52,
                    "time": 294.8524819999918,
                    "velocity": 0.3464566929133858,
                    "duration": 0.10768899999999348
                },
                {
                    "name": "C4",
                    "midi": 60,
                    "time": 294.9601709999918,
                    "velocity": 0.2992125984251969,
                    "duration": 0.10768899999999348
                },
                {
                    "name": "E3",
                    "midi": 52,
                    "time": 295.0678599999918,
                    "velocity": 0.3464566929133858,
                    "duration": 0.10768899999999348
                },
                {
                    "name": "G3",
                    "midi": 55,
                    "time": 295.0678599999918,
                    "velocity": 0.3464566929133858,
                    "duration": 0.10768899999999348
                },
                {
                    "name": "C4",
                    "midi": 60,
                    "time": 295.1755489999918,
                    "velocity": 0.2992125984251969,
                    "duration": 0.10768899999999348
                },
                {
                    "name": "E3",
                    "midi": 52,
                    "time": 295.2832379999918,
                    "velocity": 0.3464566929133858,
                    "duration": 0.10768899999999348
                },
                {
                    "name": "G3",
                    "midi": 55,
                    "time": 295.2832379999918,
                    "velocity": 0.3464566929133858,
                    "duration": 0.10768899999999348
                },
                {
                    "name": "C4",
                    "midi": 60,
                    "time": 295.3909269999918,
                    "velocity": 0.2992125984251969,
                    "duration": 0.10768899999999348
                },
                {
                    "name": "G#3",
                    "midi": 56,
                    "time": 295.4986159999918,
                    "velocity": 0.3464566929133858,
                    "duration": 0.10768899999999348
                },
                {
                    "name": "F3",
                    "midi": 53,
                    "time": 295.4986159999918,
                    "velocity": 0.3464566929133858,
                    "duration": 0.10768899999999348
                },
                {
                    "name": "C4",
                    "midi": 60,
                    "time": 295.6063049999918,
                    "velocity": 0.2992125984251969,
                    "duration": 0.10768899999999348
                },
                {
                    "name": "F3",
                    "midi": 53,
                    "time": 295.71399399999177,
                    "velocity": 0.4566929133858268,
                    "duration": 0.10768899999999348
                },
                {
                    "name": "G#3",
                    "midi": 56,
                    "time": 295.71399399999177,
                    "velocity": 0.4566929133858268,
                    "duration": 0.10768899999999348
                },
                {
                    "name": "C4",
                    "midi": 60,
                    "time": 295.82168299999176,
                    "velocity": 0.4015748031496063,
                    "duration": 0.10768899999999348
                },
                {
                    "name": "F3",
                    "midi": 53,
                    "time": 295.92937199999176,
                    "velocity": 0.4566929133858268,
                    "duration": 0.10768899999999348
                },
                {
                    "name": "G#3",
                    "midi": 56,
                    "time": 295.92937199999176,
                    "velocity": 0.4566929133858268,
                    "duration": 0.10768899999999348
                },
                {
                    "name": "C4",
                    "midi": 60,
                    "time": 296.03706099999175,
                    "velocity": 0.4015748031496063,
                    "duration": 0.10768899999999348
                },
                {
                    "name": "G#3",
                    "midi": 56,
                    "time": 296.14474999999175,
                    "velocity": 0.4566929133858268,
                    "duration": 0.10768899999999348
                },
                {
                    "name": "F3",
                    "midi": 53,
                    "time": 296.14474999999175,
                    "velocity": 0.4566929133858268,
                    "duration": 0.10768899999999348
                },
                {
                    "name": "C4",
                    "midi": 60,
                    "time": 296.25243899999174,
                    "velocity": 0.4015748031496063,
                    "duration": 0.10768899999999348
                },
                {
                    "name": "F3",
                    "midi": 53,
                    "time": 296.36012799999173,
                    "velocity": 0.4566929133858268,
                    "duration": 0.10768899999999348
                },
                {
                    "name": "G#3",
                    "midi": 56,
                    "time": 296.36012799999173,
                    "velocity": 0.4566929133858268,
                    "duration": 0.10768899999999348
                },
                {
                    "name": "C4",
                    "midi": 60,
                    "time": 296.4678169999917,
                    "velocity": 0.4015748031496063,
                    "duration": 0.10768899999999348
                },
                {
                    "name": "G#3",
                    "midi": 56,
                    "time": 296.5755059999917,
                    "velocity": 0.4566929133858268,
                    "duration": 0.10768899999999348
                },
                {
                    "name": "F3",
                    "midi": 53,
                    "time": 296.5755059999917,
                    "velocity": 0.4566929133858268,
                    "duration": 0.10768899999999348
                },
                {
                    "name": "D4",
                    "midi": 62,
                    "time": 296.6831949999917,
                    "velocity": 0.4015748031496063,
                    "duration": 0.10768899999999348
                },
                {
                    "name": "F3",
                    "midi": 53,
                    "time": 296.7908839999917,
                    "velocity": 0.4566929133858268,
                    "duration": 0.10768899999999348
                },
                {
                    "name": "G#3",
                    "midi": 56,
                    "time": 296.7908839999917,
                    "velocity": 0.4566929133858268,
                    "duration": 0.10768899999999348
                },
                {
                    "name": "D4",
                    "midi": 62,
                    "time": 296.8985729999917,
                    "velocity": 0.4015748031496063,
                    "duration": 0.10768899999999348
                },
                {
                    "name": "F3",
                    "midi": 53,
                    "time": 297.0062619999917,
                    "velocity": 0.4566929133858268,
                    "duration": 0.10768899999999348
                },
                {
                    "name": "G#3",
                    "midi": 56,
                    "time": 297.0062619999917,
                    "velocity": 0.4566929133858268,
                    "duration": 0.10768899999999348
                },
                {
                    "name": "D4",
                    "midi": 62,
                    "time": 297.1139509999917,
                    "velocity": 0.4015748031496063,
                    "duration": 0.10768899999999348
                },
                {
                    "name": "E3",
                    "midi": 52,
                    "time": 297.2216399999917,
                    "velocity": 0.4566929133858268,
                    "duration": 0.10768899999999348
                },
                {
                    "name": "G3",
                    "midi": 55,
                    "time": 297.2216399999917,
                    "velocity": 0.4566929133858268,
                    "duration": 0.10768899999999348
                },
                {
                    "name": "D4",
                    "midi": 62,
                    "time": 297.3293289999917,
                    "velocity": 0.4015748031496063,
                    "duration": 0.10768899999999348
                },
                {
                    "name": "G3",
                    "midi": 55,
                    "time": 297.43701799999167,
                    "velocity": 0.4566929133858268,
                    "duration": 0.10768899999999348
                },
                {
                    "name": "E3",
                    "midi": 52,
                    "time": 297.43701799999167,
                    "velocity": 0.4566929133858268,
                    "duration": 0.10768899999999348
                },
                {
                    "name": "C4",
                    "midi": 60,
                    "time": 297.54470699999166,
                    "velocity": 0.4015748031496063,
                    "duration": 0.10768899999999348
                },
                {
                    "name": "E3",
                    "midi": 52,
                    "time": 297.65239599999165,
                    "velocity": 0.4566929133858268,
                    "duration": 0.10768899999999348
                },
                {
                    "name": "G3",
                    "midi": 55,
                    "time": 297.65239599999165,
                    "velocity": 0.4566929133858268,
                    "duration": 0.10768899999999348
                },
                {
                    "name": "C4",
                    "midi": 60,
                    "time": 297.76008499999165,
                    "velocity": 0.4015748031496063,
                    "duration": 0.10768899999999348
                },
                {
                    "name": "E3",
                    "midi": 52,
                    "time": 297.86777399999164,
                    "velocity": 0.4566929133858268,
                    "duration": 0.10768899999999348
                },
                {
                    "name": "G3",
                    "midi": 55,
                    "time": 297.86777399999164,
                    "velocity": 0.4566929133858268,
                    "duration": 0.10768899999999348
                },
                {
                    "name": "C4",
                    "midi": 60,
                    "time": 297.97546299999163,
                    "velocity": 0.4015748031496063,
                    "duration": 0.10768899999999348
                },
                {
                    "name": "E3",
                    "midi": 52,
                    "time": 298.0831519999916,
                    "velocity": 0.4566929133858268,
                    "duration": 0.10768899999999348
                },
                {
                    "name": "G3",
                    "midi": 55,
                    "time": 298.0831519999916,
                    "velocity": 0.4566929133858268,
                    "duration": 0.10768899999999348
                },
                {
                    "name": "C4",
                    "midi": 60,
                    "time": 298.1908409999916,
                    "velocity": 0.4015748031496063,
                    "duration": 0.10768899999999348
                },
                {
                    "name": "G3",
                    "midi": 55,
                    "time": 298.2985299999916,
                    "velocity": 0.4566929133858268,
                    "duration": 0.10768899999999348
                },
                {
                    "name": "E3",
                    "midi": 52,
                    "time": 298.2985299999916,
                    "velocity": 0.4566929133858268,
                    "duration": 0.10768899999999348
                },
                {
                    "name": "C4",
                    "midi": 60,
                    "time": 298.4062189999916,
                    "velocity": 0.4015748031496063,
                    "duration": 0.10768899999999348
                },
                {
                    "name": "E3",
                    "midi": 52,
                    "time": 298.5139079999916,
                    "velocity": 0.4566929133858268,
                    "duration": 0.10768899999999348
                },
                {
                    "name": "G3",
                    "midi": 55,
                    "time": 298.5139079999916,
                    "velocity": 0.4566929133858268,
                    "duration": 0.10768899999999348
                },
                {
                    "name": "C4",
                    "midi": 60,
                    "time": 298.6215969999916,
                    "velocity": 0.4015748031496063,
                    "duration": 0.10768899999999348
                },
                {
                    "name": "E3",
                    "midi": 52,
                    "time": 298.7292859999916,
                    "velocity": 0.4566929133858268,
                    "duration": 0.10768899999999348
                },
                {
                    "name": "G3",
                    "midi": 55,
                    "time": 298.7292859999916,
                    "velocity": 0.4566929133858268,
                    "duration": 0.10768899999999348
                },
                {
                    "name": "C4",
                    "midi": 60,
                    "time": 298.8369749999916,
                    "velocity": 0.4015748031496063,
                    "duration": 0.10768899999999348
                },
                {
                    "name": "F2",
                    "midi": 41,
                    "time": 298.9446639999916,
                    "velocity": 0.48031496062992124,
                    "duration": 0.43075599999997394
                },
                {
                    "name": "G#2",
                    "midi": 44,
                    "time": 298.9446639999916,
                    "velocity": 0.48031496062992124,
                    "duration": 0.43075599999997394
                },
                {
                    "name": "C3",
                    "midi": 48,
                    "time": 298.9446639999916,
                    "velocity": 0.48031496062992124,
                    "duration": 0.43075599999997394
                },
                {
                    "name": "F3",
                    "midi": 53,
                    "time": 298.9446639999916,
                    "velocity": 0.5669291338582677,
                    "duration": 0.43075599999997394
                },
                {
                    "name": "C3",
                    "midi": 48,
                    "time": 299.48310899999154,
                    "velocity": 0.4409448818897638,
                    "duration": 0.10768899999999348
                },
                {
                    "name": "F3",
                    "midi": 53,
                    "time": 299.59079799999154,
                    "velocity": 0.4566929133858268,
                    "duration": 0.10768899999999348
                },
                {
                    "name": "G#3",
                    "midi": 56,
                    "time": 299.69848699999153,
                    "velocity": 0.47244094488188976,
                    "duration": 0.10768899999999348
                },
                {
                    "name": "C4",
                    "midi": 60,
                    "time": 299.8061759999915,
                    "velocity": 0.5196850393700787,
                    "duration": 0.10768899999999348
                },
                {
                    "name": "C#4",
                    "midi": 61,
                    "time": 299.9138649999915,
                    "velocity": 0.47244094488188976,
                    "duration": 0.10768899999999348
                },
                {
                    "name": "C4",
                    "midi": 60,
                    "time": 300.0215539999915,
                    "velocity": 0.48031496062992124,
                    "duration": 0.10768899999999348
                },
                {
                    "name": "A#3",
                    "midi": 58,
                    "time": 300.1292429999915,
                    "velocity": 0.48031496062992124,
                    "duration": 0.10768899999999348
                },
                {
                    "name": "G#3",
                    "midi": 56,
                    "time": 300.2369319999915,
                    "velocity": 0.5275590551181102,
                    "duration": 0.10768899999999348
                },
                {
                    "name": "A#3",
                    "midi": 58,
                    "time": 300.3446209999915,
                    "velocity": 0.47244094488188976,
                    "duration": 0.10768899999999348
                },
                {
                    "name": "C4",
                    "midi": 60,
                    "time": 300.4523099999915,
                    "velocity": 0.47244094488188976,
                    "duration": 0.10768899999999348
                },
                {
                    "name": "G#3",
                    "midi": 56,
                    "time": 300.5599989999915,
                    "velocity": 0.47244094488188976,
                    "duration": 0.10768899999999348
                },
                {
                    "name": "A#3",
                    "midi": 58,
                    "time": 300.6676879999915,
                    "velocity": 0.5669291338582677,
                    "duration": 0.10768899999999348
                },
                {
                    "name": "C4",
                    "midi": 60,
                    "time": 300.77537699999147,
                    "velocity": 0.47244094488188976,
                    "duration": 0.10768899999999348
                },
                {
                    "name": "A#3",
                    "midi": 58,
                    "time": 300.88306599999146,
                    "velocity": 0.47244094488188976,
                    "duration": 0.10768899999999348
                },
                {
                    "name": "G#3",
                    "midi": 56,
                    "time": 300.99075499999145,
                    "velocity": 0.47244094488188976,
                    "duration": 0.10768899999999348
                },
                {
                    "name": "F#3",
                    "midi": 54,
                    "time": 301.09844399999145,
                    "velocity": 0.5354330708661418,
                    "duration": 0.10768899999999348
                },
                {
                    "name": "C#3",
                    "midi": 49,
                    "time": 301.20613299999144,
                    "velocity": 0.44881889763779526,
                    "duration": 0.10768899999999348
                },
                {
                    "name": "F#3",
                    "midi": 54,
                    "time": 301.31382199999143,
                    "velocity": 0.47244094488188976,
                    "duration": 0.10768899999999348
                },
                {
                    "name": "A#3",
                    "midi": 58,
                    "time": 301.4215109999914,
                    "velocity": 0.4881889763779528,
                    "duration": 0.10768899999999348
                },
                {
                    "name": "C#4",
                    "midi": 61,
                    "time": 301.5291999999914,
                    "velocity": 0.5433070866141733,
                    "duration": 0.10768899999999348
                },
                {
                    "name": "D#4",
                    "midi": 63,
                    "time": 301.6368889999914,
                    "velocity": 0.49606299212598426,
                    "duration": 0.10768899999999348
                },
                {
                    "name": "C#4",
                    "midi": 61,
                    "time": 301.7445779999914,
                    "velocity": 0.49606299212598426,
                    "duration": 0.10768899999999348
                },
                {
                    "name": "C4",
                    "midi": 60,
                    "time": 301.8522669999914,
                    "velocity": 0.49606299212598426,
                    "duration": 0.10768899999999348
                },
                {
                    "name": "A#3",
                    "midi": 58,
                    "time": 301.9599559999914,
                    "velocity": 0.5433070866141733,
                    "duration": 0.10768899999999348
                },
                {
                    "name": "C4",
                    "midi": 60,
                    "time": 302.0676449999914,
                    "velocity": 0.4881889763779528,
                    "duration": 0.10768899999999348
                },
                {
                    "name": "C#4",
                    "midi": 61,
                    "time": 302.1753339999914,
                    "velocity": 0.4881889763779528,
                    "duration": 0.10768899999999348
                },
                {
                    "name": "A#3",
                    "midi": 58,
                    "time": 302.2830229999914,
                    "velocity": 0.4881889763779528,
                    "duration": 0.10768899999999348
                },
                {
                    "name": "C4",
                    "midi": 60,
                    "time": 302.39071199999137,
                    "velocity": 0.5826771653543307,
                    "duration": 0.10768899999999348
                },
                {
                    "name": "C#4",
                    "midi": 61,
                    "time": 302.49840099999136,
                    "velocity": 0.4881889763779528,
                    "duration": 0.10768899999999348
                },
                {
                    "name": "C4",
                    "midi": 60,
                    "time": 302.60608999999135,
                    "velocity": 0.49606299212598426,
                    "duration": 0.10768899999999348
                },
                {
                    "name": "A#3",
                    "midi": 58,
                    "time": 302.71377899999135,
                    "velocity": 0.49606299212598426,
                    "duration": 0.10768899999999348
                },
                {
                    "name": "A3",
                    "midi": 57,
                    "time": 302.82146799999134,
                    "velocity": 0.5511811023622047,
                    "duration": 0.10768899999999348
                },
                {
                    "name": "D#3",
                    "midi": 51,
                    "time": 302.92915699999133,
                    "velocity": 0.4645669291338583,
                    "duration": 0.10768899999999348
                },
                {
                    "name": "A3",
                    "midi": 57,
                    "time": 303.03684599999133,
                    "velocity": 0.4881889763779528,
                    "duration": 0.10768899999999348
                },
                {
                    "name": "C4",
                    "midi": 60,
                    "time": 303.1445349999913,
                    "velocity": 0.5118110236220472,
                    "duration": 0.10768899999999348
                },
                {
                    "name": "D#4",
                    "midi": 63,
                    "time": 303.2522239999913,
                    "velocity": 0.5590551181102362,
                    "duration": 0.10768899999999348
                },
                {
                    "name": "F4",
                    "midi": 65,
                    "time": 303.3599129999913,
                    "velocity": 0.5118110236220472,
                    "duration": 0.10768899999999348
                },
                {
                    "name": "D#4",
                    "midi": 63,
                    "time": 303.4676019999913,
                    "velocity": 0.5118110236220472,
                    "duration": 0.10768899999999348
                },
                {
                    "name": "C#4",
                    "midi": 61,
                    "time": 303.5752909999913,
                    "velocity": 0.5118110236220472,
                    "duration": 0.10768899999999348
                },
                {
                    "name": "C4",
                    "midi": 60,
                    "time": 303.6829799999913,
                    "velocity": 0.5669291338582677,
                    "duration": 0.10768899999999348
                },
                {
                    "name": "C#4",
                    "midi": 61,
                    "time": 303.7906689999913,
                    "velocity": 0.5039370078740157,
                    "duration": 0.10768899999999348
                },
                {
                    "name": "D#4",
                    "midi": 63,
                    "time": 303.8983579999913,
                    "velocity": 0.5039370078740157,
                    "duration": 0.10768899999999348
                },
                {
                    "name": "C4",
                    "midi": 60,
                    "time": 304.00604699999127,
                    "velocity": 0.5039370078740157,
                    "duration": 0.10768899999999348
                },
                {
                    "name": "C#4",
                    "midi": 61,
                    "time": 304.11373599999126,
                    "velocity": 0.5511811023622047,
                    "duration": 0.10768899999999348
                },
                {
                    "name": "F3",
                    "midi": 53,
                    "time": 304.22142499999126,
                    "velocity": 0.4645669291338583,
                    "duration": 0.10768899999999348
                },
                {
                    "name": "A#3",
                    "midi": 58,
                    "time": 304.32911399999125,
                    "velocity": 0.49606299212598426,
                    "duration": 0.10768899999999348
                },
                {
                    "name": "C#4",
                    "midi": 61,
                    "time": 304.43680299999124,
                    "velocity": 0.5196850393700787,
                    "duration": 0.10768899999999348
                },
                {
                    "name": "F4",
                    "midi": 65,
                    "time": 304.54449199999124,
                    "velocity": 0.5118110236220472,
                    "duration": 0.10768899999999348
                },
                {
                    "name": "F#4",
                    "midi": 66,
                    "time": 304.65218099999123,
                    "velocity": 0.5118110236220472,
                    "duration": 0.10768899999999348
                },
                {
                    "name": "F4",
                    "midi": 65,
                    "time": 304.7598699999912,
                    "velocity": 0.5118110236220472,
                    "duration": 0.10768899999999348
                },
                {
                    "name": "D#4",
                    "midi": 63,
                    "time": 304.8675589999912,
                    "velocity": 0.5039370078740157,
                    "duration": 0.10768899999999348
                },
                {
                    "name": "C#4",
                    "midi": 61,
                    "time": 304.9752479999912,
                    "velocity": 0.5039370078740157,
                    "duration": 0.10768899999999348
                },
                {
                    "name": "C4",
                    "midi": 60,
                    "time": 305.0829369999912,
                    "velocity": 0.5039370078740157,
                    "duration": 0.10768899999999348
                },
                {
                    "name": "A#3",
                    "midi": 58,
                    "time": 305.1906259999912,
                    "velocity": 0.49606299212598426,
                    "duration": 0.10768899999999348
                },
                {
                    "name": "G#3",
                    "midi": 56,
                    "time": 305.2983149999912,
                    "velocity": 0.49606299212598426,
                    "duration": 0.10768899999999348
                },
                {
                    "name": "F#3",
                    "midi": 54,
                    "time": 305.4060039999912,
                    "velocity": 0.4881889763779528,
                    "duration": 0.10768899999999348
                },
                {
                    "name": "F3",
                    "midi": 53,
                    "time": 305.5136929999912,
                    "velocity": 0.4881889763779528,
                    "duration": 0.10768899999999348
                },
                {
                    "name": "D#3",
                    "midi": 51,
                    "time": 305.6213819999912,
                    "velocity": 0.4881889763779528,
                    "duration": 0.10768899999999348
                },
                {
                    "name": "C#3",
                    "midi": 49,
                    "time": 305.72907099999117,
                    "velocity": 0.48031496062992124,
                    "duration": 0.10768899999999348
                },
                {
                    "name": "C3",
                    "midi": 48,
                    "time": 305.83675999999116,
                    "velocity": 0.48031496062992124,
                    "duration": 0.10768899999999348
                },
                {
                    "name": "A#2",
                    "midi": 46,
                    "time": 305.94444899999115,
                    "velocity": 0.48031496062992124,
                    "duration": 0.10768899999999348
                },
                {
                    "name": "G#2",
                    "midi": 44,
                    "time": 306.05213799999115,
                    "velocity": 0.47244094488188976,
                    "duration": 0.10768899999999348
                },
                {
                    "name": "F#2",
                    "midi": 42,
                    "time": 306.15982699999114,
                    "velocity": 0.47244094488188976,
                    "duration": 0.10768899999999348
                },
                {
                    "name": "F2",
                    "midi": 41,
                    "time": 306.26751599999113,
                    "velocity": 0.4645669291338583,
                    "duration": 0.10768899999999348
                },
                {
                    "name": "D#2",
                    "midi": 39,
                    "time": 306.3752049999911,
                    "velocity": 0.4645669291338583,
                    "duration": 0.10768899999999348
                },
                {
                    "name": "C#2",
                    "midi": 37,
                    "time": 306.4828939999911,
                    "velocity": 0.4645669291338583,
                    "duration": 0.10768899999999348
                },
                {
                    "name": "C2",
                    "midi": 36,
                    "time": 306.5905829999911,
                    "velocity": 0.4645669291338583,
                    "duration": 0.10768899999999348
                },
                {
                    "name": "A#1",
                    "midi": 34,
                    "time": 306.6982719999911,
                    "velocity": 0.4645669291338583,
                    "duration": 0.10768899999999348
                },
                {
                    "name": "C2",
                    "midi": 36,
                    "time": 306.8059609999911,
                    "velocity": 0.4645669291338583,
                    "duration": 0.10768899999999348
                },
                {
                    "name": "C#2",
                    "midi": 37,
                    "time": 306.9136499999911,
                    "velocity": 0.4881889763779528,
                    "duration": 0.10768899999999348
                },
                {
                    "name": "C2",
                    "midi": 36,
                    "time": 307.0213389999911,
                    "velocity": 0.5039370078740157,
                    "duration": 0.10768899999999348
                },
                {
                    "name": "A#1",
                    "midi": 34,
                    "time": 307.1290279999911,
                    "velocity": 0.5118110236220472,
                    "duration": 0.21537799999998697
                },
                {
                    "name": "B1",
                    "midi": 35,
                    "time": 307.34440599999107,
                    "velocity": 0.5669291338582677,
                    "duration": 0.21537799999998697
                },
                {
                    "name": "C2",
                    "midi": 36,
                    "time": 307.55978399999105,
                    "velocity": 0.7007874015748031,
                    "duration": 0.10768899999999348
                },
                {
                    "name": "E2",
                    "midi": 40,
                    "time": 307.77516199999104,
                    "velocity": 0.5984251968503937,
                    "duration": 0.10768899999999348
                },
                {
                    "name": "C2",
                    "midi": 36,
                    "time": 307.99053999999103,
                    "velocity": 0.5984251968503937,
                    "duration": 0.10768899999999348
                },
                {
                    "name": "F2",
                    "midi": 41,
                    "time": 308.205917999991,
                    "velocity": 0.5984251968503937,
                    "duration": 0.10768899999999348
                },
                {
                    "name": "C2",
                    "midi": 36,
                    "time": 308.421295999991,
                    "velocity": 0.5984251968503937,
                    "duration": 0.10768899999999348
                },
                {
                    "name": "G2",
                    "midi": 43,
                    "time": 308.636673999991,
                    "velocity": 0.5984251968503937,
                    "duration": 0.10768899999999348
                },
                {
                    "name": "C2",
                    "midi": 36,
                    "time": 308.852051999991,
                    "velocity": 0.5984251968503937,
                    "duration": 0.10768899999999348
                },
                {
                    "name": "G#2",
                    "midi": 44,
                    "time": 309.06742999999096,
                    "velocity": 0.5984251968503937,
                    "duration": 0.10768899999999348
                },
                {
                    "name": "C2",
                    "midi": 36,
                    "time": 309.28280799999095,
                    "velocity": 0.5826771653543307,
                    "duration": 0.10768899999999348
                },
                {
                    "name": "A#2",
                    "midi": 46,
                    "time": 309.49818599999094,
                    "velocity": 0.5826771653543307,
                    "duration": 0.10768899999999348
                },
                {
                    "name": "C2",
                    "midi": 36,
                    "time": 309.7135639999909,
                    "velocity": 0.5905511811023622,
                    "duration": 0.10768899999999348
                },
                {
                    "name": "G#2",
                    "midi": 44,
                    "time": 309.9289419999909,
                    "velocity": 0.5984251968503937,
                    "duration": 0.10768899999999348
                },
                {
                    "name": "C2",
                    "midi": 36,
                    "time": 310.1443199999909,
                    "velocity": 0.6062992125984252,
                    "duration": 0.10768899999999348
                },
                {
                    "name": "G2",
                    "midi": 43,
                    "time": 310.3596979999909,
                    "velocity": 0.6141732283464567,
                    "duration": 0.10768899999999348
                },
                {
                    "name": "C2",
                    "midi": 36,
                    "time": 310.5750759999909,
                    "velocity": 0.6220472440944882,
                    "duration": 0.10768899999999348
                },
                {
                    "name": "F2",
                    "midi": 41,
                    "time": 310.79045399999086,
                    "velocity": 0.6299212598425197,
                    "duration": 0.10768899999999348
                },
                {
                    "name": "C2",
                    "midi": 36,
                    "time": 311.00583199999085,
                    "velocity": 0.6377952755905512,
                    "duration": 0.10768899999999348
                },
                {
                    "name": "E2",
                    "midi": 40,
                    "time": 311.22120999999083,
                    "velocity": 0.6456692913385826,
                    "duration": 0.10768899999999348
                },
                {
                    "name": "C2",
                    "midi": 36,
                    "time": 311.4365879999908,
                    "velocity": 0.6456692913385826,
                    "duration": 0.10768899999999348
                },
                {
                    "name": "F2",
                    "midi": 41,
                    "time": 311.6519659999908,
                    "velocity": 0.6535433070866141,
                    "duration": 0.10768899999999348
                },
                {
                    "name": "C2",
                    "midi": 36,
                    "time": 311.8673439999908,
                    "velocity": 0.6614173228346457,
                    "duration": 0.10768899999999348
                },
                {
                    "name": "G2",
                    "midi": 43,
                    "time": 312.0827219999908,
                    "velocity": 0.6692913385826772,
                    "duration": 0.10768899999999348
                },
                {
                    "name": "C2",
                    "midi": 36,
                    "time": 312.29809999999077,
                    "velocity": 0.6771653543307087,
                    "duration": 0.10768899999999348
                },
                {
                    "name": "G#2",
                    "midi": 44,
                    "time": 312.51347799999076,
                    "velocity": 0.6850393700787402,
                    "duration": 0.10768899999999348
                },
                {
                    "name": "C2",
                    "midi": 36,
                    "time": 312.72885599999074,
                    "velocity": 0.6929133858267716,
                    "duration": 0.10768899999999348
                },
                {
                    "name": "A2",
                    "midi": 45,
                    "time": 312.94423399999073,
                    "velocity": 0.7007874015748031,
                    "duration": 0.10768899999999348
                },
                {
                    "name": "C2",
                    "midi": 36,
                    "time": 313.1596119999907,
                    "velocity": 0.7165354330708661,
                    "duration": 0.10768899999999348
                },
                {
                    "name": "A#2",
                    "midi": 46,
                    "time": 313.3749899999907,
                    "velocity": 0.7244094488188977,
                    "duration": 0.10768899999999348
                },
                {
                    "name": "C2",
                    "midi": 36,
                    "time": 313.5903679999907,
                    "velocity": 0.7401574803149606,
                    "duration": 0.10768899999999348
                },
                {
                    "name": "B2",
                    "midi": 47,
                    "time": 313.8057459999907,
                    "velocity": 0.7559055118110236,
                    "duration": 0.10768899999999348
                },
                {
                    "name": "C2",
                    "midi": 36,
                    "time": 314.02112399999066,
                    "velocity": 0.7795275590551181,
                    "duration": 0.10768899999999348
                },
                {
                    "name": "C3",
                    "midi": 48,
                    "time": 314.23650199999065,
                    "velocity": 0.7952755905511811,
                    "duration": 0.10768899999999348
                },
                {
                    "name": "A#1",
                    "midi": 34,
                    "time": 314.45187999999064,
                    "velocity": 0.6771653543307087,
                    "duration": 0.21537799999998697
                },
                {
                    "name": "C#2",
                    "midi": 37,
                    "time": 314.45187999999064,
                    "velocity": 0.6771653543307087,
                    "duration": 0.21537799999998697
                },
                {
                    "name": "F#2",
                    "midi": 42,
                    "time": 314.45187999999064,
                    "velocity": 0.6771653543307087,
                    "duration": 0.21537799999998697
                },
                {
                    "name": "A#2",
                    "midi": 46,
                    "time": 314.45187999999064,
                    "velocity": 0.8031496062992126,
                    "duration": 0.21537799999998697
                },
                {
                    "name": "C#3",
                    "midi": 49,
                    "time": 314.55956899999063,
                    "velocity": 0.5669291338582677,
                    "duration": 0.10768899999999348
                },
                {
                    "name": "F#3",
                    "midi": 54,
                    "time": 314.6672579999906,
                    "velocity": 0.5905511811023622,
                    "duration": 0.10768899999999348
                },
                {
                    "name": "A#3",
                    "midi": 58,
                    "time": 314.7749469999906,
                    "velocity": 0.5984251968503937,
                    "duration": 0.10768899999999348
                },
                {
                    "name": "C#4",
                    "midi": 61,
                    "time": 314.8826359999906,
                    "velocity": 0.7086614173228346,
                    "duration": 0.10768899999999348
                },
                {
                    "name": "A#2",
                    "midi": 46,
                    "time": 314.9903249999906,
                    "velocity": 0.5590551181102362,
                    "duration": 0.10768899999999348
                },
                {
                    "name": "C#3",
                    "midi": 49,
                    "time": 315.0980139999906,
                    "velocity": 0.5826771653543307,
                    "duration": 0.10768899999999348
                },
                {
                    "name": "F#3",
                    "midi": 54,
                    "time": 315.2057029999906,
                    "velocity": 0.5984251968503937,
                    "duration": 0.10768899999999348
                },
                {
                    "name": "A#3",
                    "midi": 58,
                    "time": 315.3133919999906,
                    "velocity": 0.7165354330708661,
                    "duration": 0.10768899999999348
                },
                {
                    "name": "A#3",
                    "midi": 58,
                    "time": 315.85183699999055,
                    "velocity": 0.5748031496062992,
                    "duration": 0.10768899999999348
                },
                {
                    "name": "C#4",
                    "midi": 61,
                    "time": 315.95952599999055,
                    "velocity": 0.5984251968503937,
                    "duration": 0.10768899999999348
                },
                {
                    "name": "F#4",
                    "midi": 66,
                    "time": 316.06721499999054,
                    "velocity": 0.6141732283464567,
                    "duration": 0.10768899999999348
                },
                {
                    "name": "A#4",
                    "midi": 70,
                    "time": 316.17490399999053,
                    "velocity": 0.6771653543307087,
                    "duration": 0.10768899999999348
                },
                {
                    "name": "C2",
                    "midi": 36,
                    "time": 317.89792799999054,
                    "velocity": 0.6220472440944882,
                    "duration": 0.21537799999998697
                },
                {
                    "name": "G2",
                    "midi": 43,
                    "time": 317.89792799999054,
                    "velocity": 0.6220472440944882,
                    "duration": 0.21537799999998697
                },
                {
                    "name": "A#2",
                    "midi": 46,
                    "time": 317.89792799999054,
                    "velocity": 0.7401574803149606,
                    "duration": 0.21537799999998697
                },
                {
                    "name": "C3",
                    "midi": 48,
                    "time": 317.89792799999054,
                    "velocity": 0.7637795275590551,
                    "duration": 0.21537799999998697
                },
                {
                    "name": "E3",
                    "midi": 52,
                    "time": 318.00561699999054,
                    "velocity": 0.5669291338582677,
                    "duration": 0.10768899999999348
                },
                {
                    "name": "G3",
                    "midi": 55,
                    "time": 318.11330599999053,
                    "velocity": 0.5905511811023622,
                    "duration": 0.10768899999999348
                },
                {
                    "name": "A#3",
                    "midi": 58,
                    "time": 318.2209949999905,
                    "velocity": 0.5984251968503937,
                    "duration": 0.10768899999999348
                },
                {
                    "name": "C3",
                    "midi": 48,
                    "time": 318.4363729999905,
                    "velocity": 0.5590551181102362,
                    "duration": 0.10768899999999348
                },
                {
                    "name": "G3",
                    "midi": 55,
                    "time": 318.5440619999905,
                    "velocity": 0.5826771653543307,
                    "duration": 0.10768899999999348
                },
                {
                    "name": "A#3",
                    "midi": 58,
                    "time": 318.6517509999905,
                    "velocity": 0.5984251968503937,
                    "duration": 0.10768899999999348
                },
                {
                    "name": "C4",
                    "midi": 60,
                    "time": 318.7594399999905,
                    "velocity": 0.7086614173228346,
                    "duration": 0.10768899999999348
                },
                {
                    "name": "C4",
                    "midi": 60,
                    "time": 319.29788499999046,
                    "velocity": 0.5748031496062992,
                    "duration": 0.10768899999999348
                },
                {
                    "name": "G4",
                    "midi": 67,
                    "time": 319.40557399999045,
                    "velocity": 0.5984251968503937,
                    "duration": 0.10768899999999348
                },
                {
                    "name": "A#4",
                    "midi": 70,
                    "time": 319.51326299999045,
                    "velocity": 0.6141732283464567,
                    "duration": 0.10768899999999348
                },
                {
                    "name": "C5",
                    "midi": 72,
                    "time": 319.62095199999044,
                    "velocity": 0.7007874015748031,
                    "duration": 0.10768899999999348
                },
                {
                    "name": "C#2",
                    "midi": 37,
                    "time": 321.34397599999045,
                    "velocity": 0.4566929133858268,
                    "duration": 0.1435853333333057
                },
                {
                    "name": "C#3",
                    "midi": 49,
                    "time": 321.48756133332375,
                    "velocity": 0.3937007874015748,
                    "duration": 0.1435853333333057
                },
                {
                    "name": "E3",
                    "midi": 52,
                    "time": 321.63114666665706,
                    "velocity": 0.3937007874015748,
                    "duration": 0.1435853333333057
                },
                {
                    "name": "G3",
                    "midi": 55,
                    "time": 321.77473199999037,
                    "velocity": 0.3937007874015748,
                    "duration": 0.10768899999999348
                },
                {
                    "name": "A#3",
                    "midi": 58,
                    "time": 321.88242099999036,
                    "velocity": 0.4251968503937008,
                    "duration": 0.10768899999999348
                },
                {
                    "name": "E2",
                    "midi": 40,
                    "time": 323.06699999999034,
                    "velocity": 0.4330708661417323,
                    "duration": 0.1435853333333057
                },
                {
                    "name": "E3",
                    "midi": 52,
                    "time": 323.21058533332365,
                    "velocity": 0.3700787401574803,
                    "duration": 0.1435853333333057
                },
                {
                    "name": "G3",
                    "midi": 55,
                    "time": 323.35417066665696,
                    "velocity": 0.3700787401574803,
                    "duration": 0.1435853333333057
                },
                {
                    "name": "G2",
                    "midi": 43,
                    "time": 324.79002399999024,
                    "velocity": 0.4094488188976378,
                    "duration": 0.1435853333333057
                },
                {
                    "name": "G3",
                    "midi": 55,
                    "time": 324.93360933332355,
                    "velocity": 0.3464566929133858,
                    "duration": 0.1435853333333057
                },
                {
                    "name": "A#3",
                    "midi": 58,
                    "time": 325.07719466665685,
                    "velocity": 0.3464566929133858,
                    "duration": 0.1435853333333057
                },
                {
                    "name": "A#2",
                    "midi": 46,
                    "time": 326.51304799999014,
                    "velocity": 0.3858267716535433,
                    "duration": 0.1435853333333057
                },
                {
                    "name": "A#3",
                    "midi": 58,
                    "time": 326.65663333332344,
                    "velocity": 0.3228346456692913,
                    "duration": 0.1435853333333057
                },
                {
                    "name": "C#4",
                    "midi": 61,
                    "time": 326.80021866665675,
                    "velocity": 0.3228346456692913,
                    "duration": 0.1435853333333057
                },
                {
                    "name": "C#3",
                    "midi": 49,
                    "time": 328.23607199999003,
                    "velocity": 0.31496062992125984,
                    "duration": 0.21537799999998697
                },
                {
                    "name": "E3",
                    "midi": 52,
                    "time": 328.45144999999,
                    "velocity": 0.28346456692913385,
                    "duration": 0.21537799999998697
                },
                {
                    "name": "G3",
                    "midi": 55,
                    "time": 328.66682799999,
                    "velocity": 0.28346456692913385,
                    "duration": 0.21537799999998697
                },
                {
                    "name": "A#3",
                    "midi": 58,
                    "time": 328.88220599999,
                    "velocity": 0.28346456692913385,
                    "duration": 0.21537799999998697
                },
                {
                    "name": "A#3",
                    "midi": 58,
                    "time": 334.05127799998996,
                    "velocity": 0.2992125984251969,
                    "duration": 0.21537799999998697
                },
                {
                    "name": "G3",
                    "midi": 55,
                    "time": 334.26665599998995,
                    "velocity": 0.2992125984251969,
                    "duration": 0.21537799999998697
                },
                {
                    "name": "E3",
                    "midi": 52,
                    "time": 334.48203399998994,
                    "velocity": 0.29133858267716534,
                    "duration": 0.21537799999998697
                },
                {
                    "name": "C#3",
                    "midi": 49,
                    "time": 334.6974119999899,
                    "velocity": 0.28346456692913385,
                    "duration": 0.21537799999998697
                },
                {
                    "name": "A#2",
                    "midi": 46,
                    "time": 334.9127899999899,
                    "velocity": 0.2755905511811024,
                    "duration": 0.21537799999998697
                },
                {
                    "name": "G2",
                    "midi": 43,
                    "time": 335.1281679999899,
                    "velocity": 0.2755905511811024,
                    "duration": 0.8615120000000047
                },
                {
                    "name": "E2",
                    "midi": 40,
                    "time": 335.9896799999899,
                    "velocity": 0.28346456692913385,
                    "duration": 0.8615120000000047
                },
                {
                    "name": "C#2",
                    "midi": 37,
                    "time": 336.8511919999899,
                    "velocity": 0.2755905511811024,
                    "duration": 0.8615120000000047
                },
                {
                    "name": "A#1",
                    "midi": 34,
                    "time": 337.7127039999899,
                    "velocity": 0.2677165354330709,
                    "duration": 0.8615120000000047
                },
                {
                    "name": "G1",
                    "midi": 31,
                    "time": 338.5742159999899,
                    "velocity": 0.2677165354330709,
                    "duration": 1.7230240000000094
                },
                {
                    "name": "E3",
                    "midi": 52,
                    "time": 340.2972399999899,
                    "velocity": 0.2677165354330709,
                    "duration": 0.6461340000000177
                },
                {
                    "name": "C3",
                    "midi": 48,
                    "time": 340.2972399999899,
                    "velocity": 0.2677165354330709,
                    "duration": 0.6461340000000177
                },
                {
                    "name": "A#2",
                    "midi": 46,
                    "time": 340.2972399999899,
                    "velocity": 0.2677165354330709,
                    "duration": 0.6461340000000177
                },
                {
                    "name": "G2",
                    "midi": 43,
                    "time": 340.2972399999899,
                    "velocity": 0.2677165354330709,
                    "duration": 0.6461340000000177
                },
                {
                    "name": "C2",
                    "midi": 36,
                    "time": 340.2972399999899,
                    "velocity": 0.2677165354330709,
                    "duration": 5.061383000000035
                },
                {
                    "name": "G2",
                    "midi": 43,
                    "time": 344.60479999998995,
                    "velocity": 0.2677165354330709,
                    "duration": 0.6461340000000177
                },
                {
                    "name": "A#2",
                    "midi": 46,
                    "time": 344.60479999998995,
                    "velocity": 0.2677165354330709,
                    "duration": 0.6461340000000177
                },
                {
                    "name": "C3",
                    "midi": 48,
                    "time": 344.60479999998995,
                    "velocity": 0.2677165354330709,
                    "duration": 0.6461340000000177
                },
                {
                    "name": "E3",
                    "midi": 52,
                    "time": 344.60479999998995,
                    "velocity": 0.2677165354330709,
                    "duration": 0.6461340000000177
                },
                {
                    "name": "C2",
                    "midi": 36,
                    "time": 345.35862299998996,
                    "velocity": 0.2677165354330709,
                    "duration": 0.10768899999999348
                },
                {
                    "name": "F2",
                    "midi": 41,
                    "time": 345.46631199998995,
                    "velocity": 0.30708661417322836,
                    "duration": 0.43075599999997394
                },
                {
                    "name": "F1",
                    "midi": 29,
                    "time": 345.46631199998995,
                    "velocity": 0.30708661417322836,
                    "duration": 0.43075599999997394
                },
                {
                    "name": "F2",
                    "midi": 41,
                    "time": 347.1893359999899,
                    "velocity": 0.31496062992125984,
                    "duration": 0.43075599999997394
                },
                {
                    "name": "F1",
                    "midi": 29,
                    "time": 347.1893359999899,
                    "velocity": 0.31496062992125984,
                    "duration": 0.43075599999997394
                },
                {
                    "name": "G#4",
                    "midi": 68,
                    "time": 347.94315899998986,
                    "velocity": 0.4015748031496063,
                    "duration": 0.10768899999999348
                },
                {
                    "name": "C5",
                    "midi": 72,
                    "time": 347.94315899998986,
                    "velocity": 0.4015748031496063,
                    "duration": 0.10768899999999348
                },
                {
                    "name": "G#4",
                    "midi": 68,
                    "time": 348.05084799998986,
                    "velocity": 0.4409448818897638,
                    "duration": 0.43075599999997394
                },
                {
                    "name": "C5",
                    "midi": 72,
                    "time": 348.05084799998986,
                    "velocity": 0.4409448818897638,
                    "duration": 0.43075599999997394
                },
                {
                    "name": "F4",
                    "midi": 65,
                    "time": 348.48160399998983,
                    "velocity": 0.23622047244094488,
                    "duration": 0.21537799999998697
                },
                {
                    "name": "G#4",
                    "midi": 68,
                    "time": 348.48160399998983,
                    "velocity": 0.23622047244094488,
                    "duration": 0.21537799999998697
                },
                {
                    "name": "A#2",
                    "midi": 46,
                    "time": 348.9123599999898,
                    "velocity": 0.31496062992125984,
                    "duration": 0.43075599999997394
                },
                {
                    "name": "A#1",
                    "midi": 34,
                    "time": 348.9123599999898,
                    "velocity": 0.31496062992125984,
                    "duration": 0.43075599999997394
                },
                {
                    "name": "A#4",
                    "midi": 70,
                    "time": 349.66618299998976,
                    "velocity": 0.49606299212598426,
                    "duration": 0.10768899999999348
                },
                {
                    "name": "C#5",
                    "midi": 73,
                    "time": 349.66618299998976,
                    "velocity": 0.49606299212598426,
                    "duration": 0.10768899999999348
                },
                {
                    "name": "A#4",
                    "midi": 70,
                    "time": 349.77387199998975,
                    "velocity": 0.5511811023622047,
                    "duration": 0.8615120000000047
                },
                {
                    "name": "C#5",
                    "midi": 73,
                    "time": 349.77387199998975,
                    "velocity": 0.5511811023622047,
                    "duration": 0.8615120000000047
                },
                {
                    "name": "A#4",
                    "midi": 70,
                    "time": 350.63538399998976,
                    "velocity": 0.4015748031496063,
                    "duration": 0.21537799999998697
                },
                {
                    "name": "C5",
                    "midi": 72,
                    "time": 350.63538399998976,
                    "velocity": 0.4015748031496063,
                    "duration": 0.21537799999998697
                },
                {
                    "name": "C3",
                    "midi": 48,
                    "time": 350.85076199998974,
                    "velocity": 0.33858267716535434,
                    "duration": 0.21537799999998697
                },
                {
                    "name": "C2",
                    "midi": 36,
                    "time": 350.85076199998974,
                    "velocity": 0.33858267716535434,
                    "duration": 0.21537799999998697
                },
                {
                    "name": "C#3",
                    "midi": 49,
                    "time": 351.2815179999897,
                    "velocity": 0.29133858267716534,
                    "duration": 0.21537799999998697
                },
                {
                    "name": "C#2",
                    "midi": 37,
                    "time": 351.2815179999897,
                    "velocity": 0.29133858267716534,
                    "duration": 0.21537799999998697
                },
                {
                    "name": "A#2",
                    "midi": 46,
                    "time": 351.7122739999897,
                    "velocity": 0.30708661417322836,
                    "duration": 0.21537799999998697
                },
                {
                    "name": "A#1",
                    "midi": 34,
                    "time": 351.7122739999897,
                    "velocity": 0.30708661417322836,
                    "duration": 0.21537799999998697
                },
                {
                    "name": "C3",
                    "midi": 48,
                    "time": 352.14302999998966,
                    "velocity": 0.2755905511811024,
                    "duration": 0.21537799999998697
                },
                {
                    "name": "C2",
                    "midi": 36,
                    "time": 352.14302999998966,
                    "velocity": 0.2755905511811024,
                    "duration": 0.21537799999998697
                },
                {
                    "name": "F1",
                    "midi": 29,
                    "time": 352.35840799998965,
                    "velocity": 0.31496062992125984,
                    "duration": 0.10768899999999348
                },
                {
                    "name": "F2",
                    "midi": 41,
                    "time": 352.35840799998965,
                    "velocity": 0.31496062992125984,
                    "duration": 0.10768899999999348
                },
                {
                    "name": "C3",
                    "midi": 48,
                    "time": 352.46609699998965,
                    "velocity": 0.29133858267716534,
                    "duration": 0.10768899999999348
                },
                {
                    "name": "F3",
                    "midi": 53,
                    "time": 352.57378599998964,
                    "velocity": 0.29133858267716534,
                    "duration": 0.10768899999999348
                },
                {
                    "name": "G#3",
                    "midi": 56,
                    "time": 352.68147499998963,
                    "velocity": 0.31496062992125984,
                    "duration": 0.10768899999999348
                },
                {
                    "name": "C4",
                    "midi": 60,
                    "time": 352.7891639999896,
                    "velocity": 0.2992125984251969,
                    "duration": 0.10768899999999348
                },
                {
                    "name": "C#4",
                    "midi": 61,
                    "time": 352.8968529999896,
                    "velocity": 0.2992125984251969,
                    "duration": 0.10768899999999348
                },
                {
                    "name": "C4",
                    "midi": 60,
                    "time": 353.0045419999896,
                    "velocity": 0.2992125984251969,
                    "duration": 0.10768899999999348
                },
                {
                    "name": "A#3",
                    "midi": 58,
                    "time": 353.1122309999896,
                    "velocity": 0.31496062992125984,
                    "duration": 0.10768899999999348
                },
                {
                    "name": "G#3",
                    "midi": 56,
                    "time": 353.2199199999896,
                    "velocity": 0.29133858267716534,
                    "duration": 0.10768899999999348
                },
                {
                    "name": "A#3",
                    "midi": 58,
                    "time": 353.3276089999896,
                    "velocity": 0.29133858267716534,
                    "duration": 0.10768899999999348
                },
                {
                    "name": "G#3",
                    "midi": 56,
                    "time": 353.4352979999896,
                    "velocity": 0.29133858267716534,
                    "duration": 0.10768899999999348
                },
                {
                    "name": "G3",
                    "midi": 55,
                    "time": 353.5429869999896,
                    "velocity": 0.31496062992125984,
                    "duration": 0.10768899999999348
                },
                {
                    "name": "F3",
                    "midi": 53,
                    "time": 353.6506759999896,
                    "velocity": 0.29133858267716534,
                    "duration": 0.10768899999999348
                },
                {
                    "name": "G3",
                    "midi": 55,
                    "time": 353.75836499998957,
                    "velocity": 0.29133858267716534,
                    "duration": 0.10768899999999348
                },
                {
                    "name": "G#3",
                    "midi": 56,
                    "time": 353.86605399998956,
                    "velocity": 0.29133858267716534,
                    "duration": 0.10768899999999348
                },
                {
                    "name": "F3",
                    "midi": 53,
                    "time": 353.97374299998955,
                    "velocity": 0.29133858267716534,
                    "duration": 0.10768899999999348
                },
                {
                    "name": "G#3",
                    "midi": 56,
                    "time": 354.08143199998955,
                    "velocity": 0.31496062992125984,
                    "duration": 0.10768899999999348
                },
                {
                    "name": "C3",
                    "midi": 48,
                    "time": 354.18912099998954,
                    "velocity": 0.29133858267716534,
                    "duration": 0.10768899999999348
                },
                {
                    "name": "F3",
                    "midi": 53,
                    "time": 354.29680999998953,
                    "velocity": 0.29133858267716534,
                    "duration": 0.10768899999999348
                },
                {
                    "name": "G#3",
                    "midi": 56,
                    "time": 354.4044989999895,
                    "velocity": 0.31496062992125984,
                    "duration": 0.10768899999999348
                },
                {
                    "name": "C4",
                    "midi": 60,
                    "time": 354.5121879999895,
                    "velocity": 0.2992125984251969,
                    "duration": 0.10768899999999348
                },
                {
                    "name": "C#4",
                    "midi": 61,
                    "time": 354.6198769999895,
                    "velocity": 0.2992125984251969,
                    "duration": 0.10768899999999348
                },
                {
                    "name": "C4",
                    "midi": 60,
                    "time": 354.7275659999895,
                    "velocity": 0.2992125984251969,
                    "duration": 0.10768899999999348
                },
                {
                    "name": "A#3",
                    "midi": 58,
                    "time": 354.8352549999895,
                    "velocity": 0.31496062992125984,
                    "duration": 0.10768899999999348
                },
                {
                    "name": "G#3",
                    "midi": 56,
                    "time": 354.9429439999895,
                    "velocity": 0.29133858267716534,
                    "duration": 0.10768899999999348
                },
                {
                    "name": "A#3",
                    "midi": 58,
                    "time": 355.0506329999895,
                    "velocity": 0.29133858267716534,
                    "duration": 0.10768899999999348
                },
                {
                    "name": "G#3",
                    "midi": 56,
                    "time": 355.1583219999895,
                    "velocity": 0.29133858267716534,
                    "duration": 0.10768899999999348
                },
                {
                    "name": "G3",
                    "midi": 55,
                    "time": 355.2660109999895,
                    "velocity": 0.31496062992125984,
                    "duration": 0.10768899999999348
                },
                {
                    "name": "F3",
                    "midi": 53,
                    "time": 355.37369999998947,
                    "velocity": 0.29133858267716534,
                    "duration": 0.10768899999999348
                },
                {
                    "name": "G3",
                    "midi": 55,
                    "time": 355.48138899998946,
                    "velocity": 0.29133858267716534,
                    "duration": 0.10768899999999348
                },
                {
                    "name": "G#3",
                    "midi": 56,
                    "time": 355.58907799998946,
                    "velocity": 0.29133858267716534,
                    "duration": 0.10768899999999348
                },
                {
                    "name": "F3",
                    "midi": 53,
                    "time": 355.69676699998945,
                    "velocity": 0.29133858267716534,
                    "duration": 0.10768899999999348
                },
                {
                    "name": "A#3",
                    "midi": 58,
                    "time": 355.80445599998944,
                    "velocity": 0.3464566929133858,
                    "duration": 0.10768899999999348
                },
                {
                    "name": "C#3",
                    "midi": 49,
                    "time": 355.91214499998944,
                    "velocity": 0.31496062992125984,
                    "duration": 0.10768899999999348
                },
                {
                    "name": "F#3",
                    "midi": 54,
                    "time": 356.01983399998943,
                    "velocity": 0.31496062992125984,
                    "duration": 0.10768899999999348
                },
                {
                    "name": "A#3",
                    "midi": 58,
                    "time": 356.1275229999894,
                    "velocity": 0.3464566929133858,
                    "duration": 0.10768899999999348
                },
                {
                    "name": "C#4",
                    "midi": 61,
                    "time": 356.2352119999894,
                    "velocity": 0.3228346456692913,
                    "duration": 0.10768899999999348
                },
                {
                    "name": "D#4",
                    "midi": 63,
                    "time": 356.3429009999894,
                    "velocity": 0.3228346456692913,
                    "duration": 0.10768899999999348
                },
                {
                    "name": "C#4",
                    "midi": 61,
                    "time": 356.4505899999894,
                    "velocity": 0.3228346456692913,
                    "duration": 0.10768899999999348
                },
                {
                    "name": "C4",
                    "midi": 60,
                    "time": 356.5582789999894,
                    "velocity": 0.3464566929133858,
                    "duration": 0.10768899999999348
                },
                {
                    "name": "A#3",
                    "midi": 58,
                    "time": 356.6659679999894,
                    "velocity": 0.31496062992125984,
                    "duration": 0.10768899999999348
                },
                {
                    "name": "C4",
                    "midi": 60,
                    "time": 356.7736569999894,
                    "velocity": 0.31496062992125984,
                    "duration": 0.10768899999999348
                },
                {
                    "name": "A#3",
                    "midi": 58,
                    "time": 356.8813459999894,
                    "velocity": 0.31496062992125984,
                    "duration": 0.10768899999999348
                },
                {
                    "name": "G#3",
                    "midi": 56,
                    "time": 356.98903499998937,
                    "velocity": 0.3464566929133858,
                    "duration": 0.10768899999999348
                },
                {
                    "name": "F#3",
                    "midi": 54,
                    "time": 357.09672399998936,
                    "velocity": 0.31496062992125984,
                    "duration": 0.10768899999999348
                },
                {
                    "name": "G#3",
                    "midi": 56,
                    "time": 357.20441299998936,
                    "velocity": 0.31496062992125984,
                    "duration": 0.10768899999999348
                },
                {
                    "name": "F#3",
                    "midi": 54,
                    "time": 357.31210199998935,
                    "velocity": 0.31496062992125984,
                    "duration": 0.10768899999999348
                },
                {
                    "name": "F3",
                    "midi": 53,
                    "time": 357.41979099998935,
                    "velocity": 0.3464566929133858,
                    "duration": 0.10768899999999348
                },
                {
                    "name": "E3",
                    "midi": 52,
                    "time": 357.52747999998934,
                    "velocity": 0.31496062992125984,
                    "duration": 0.10768899999999348
                },
                {
                    "name": "F3",
                    "midi": 53,
                    "time": 357.63516899998933,
                    "velocity": 0.31496062992125984,
                    "duration": 0.10768899999999348
                },
                {
                    "name": "G3",
                    "midi": 55,
                    "time": 357.7428579999893,
                    "velocity": 0.31496062992125984,
                    "duration": 0.10768899999999348
                },
                {
                    "name": "G#3",
                    "midi": 56,
                    "time": 357.8505469999893,
                    "velocity": 0.3464566929133858,
                    "duration": 0.10768899999999348
                },
                {
                    "name": "A#3",
                    "midi": 58,
                    "time": 357.9582359999893,
                    "velocity": 0.31496062992125984,
                    "duration": 0.10768899999999348
                },
                {
                    "name": "G#3",
                    "midi": 56,
                    "time": 358.0659249999893,
                    "velocity": 0.31496062992125984,
                    "duration": 0.10768899999999348
                },
                {
                    "name": "G3",
                    "midi": 55,
                    "time": 358.1736139999893,
                    "velocity": 0.31496062992125984,
                    "duration": 0.10768899999999348
                },
                {
                    "name": "F3",
                    "midi": 53,
                    "time": 358.2813029999893,
                    "velocity": 0.3464566929133858,
                    "duration": 0.10768899999999348
                },
                {
                    "name": "E3",
                    "midi": 52,
                    "time": 358.3889919999893,
                    "velocity": 0.31496062992125984,
                    "duration": 0.10768899999999348
                },
                {
                    "name": "F3",
                    "midi": 53,
                    "time": 358.4966809999893,
                    "velocity": 0.31496062992125984,
                    "duration": 0.10768899999999348
                },
                {
                    "name": "E3",
                    "midi": 52,
                    "time": 358.6043699999893,
                    "velocity": 0.31496062992125984,
                    "duration": 0.10768899999999348
                },
                {
                    "name": "C#3",
                    "midi": 49,
                    "time": 358.71205899998927,
                    "velocity": 0.3464566929133858,
                    "duration": 0.10768899999999348
                },
                {
                    "name": "C3",
                    "midi": 48,
                    "time": 358.81974799998926,
                    "velocity": 0.29133858267716534,
                    "duration": 0.10768899999999348
                },
                {
                    "name": "A#2",
                    "midi": 46,
                    "time": 358.92743699998925,
                    "velocity": 0.2992125984251969,
                    "duration": 0.10768899999999348
                },
                {
                    "name": "G#2",
                    "midi": 44,
                    "time": 359.03512599998925,
                    "velocity": 0.31496062992125984,
                    "duration": 0.10768899999999348
                },
                {
                    "name": "G2",
                    "midi": 43,
                    "time": 359.14281499998924,
                    "velocity": 0.31496062992125984,
                    "duration": 0.10768899999999348
                },
                {
                    "name": "F2",
                    "midi": 41,
                    "time": 359.25050399998923,
                    "velocity": 0.3464566929133858,
                    "duration": 0.43075599999997394
                },
                {
                    "name": "F3",
                    "midi": 53,
                    "time": 360.0043269999892,
                    "velocity": 0.4094488188976378,
                    "duration": 0.10768899999999348
                },
                {
                    "name": "G#3",
                    "midi": 56,
                    "time": 360.0043269999892,
                    "velocity": 0.4094488188976378,
                    "duration": 0.10768899999999348
                },
                {
                    "name": "F3",
                    "midi": 53,
                    "time": 360.1120159999892,
                    "velocity": 0.5118110236220472,
                    "duration": 0.43075599999997394
                },
                {
                    "name": "G#3",
                    "midi": 56,
                    "time": 360.1120159999892,
                    "velocity": 0.5118110236220472,
                    "duration": 0.43075599999997394
                },
                {
                    "name": "F3",
                    "midi": 53,
                    "time": 360.86583899998914,
                    "velocity": 0.4251968503937008,
                    "duration": 0.10768899999999348
                },
                {
                    "name": "G#3",
                    "midi": 56,
                    "time": 360.86583899998914,
                    "velocity": 0.4251968503937008,
                    "duration": 0.10768899999999348
                },
                {
                    "name": "C3",
                    "midi": 48,
                    "time": 360.97352799998913,
                    "velocity": 0.5196850393700787,
                    "duration": 0.8615120000000047
                },
                {
                    "name": "F3",
                    "midi": 53,
                    "time": 360.97352799998913,
                    "velocity": 0.5196850393700787,
                    "duration": 0.8615120000000047
                },
                {
                    "name": "G#3",
                    "midi": 56,
                    "time": 360.97352799998913,
                    "velocity": 0.5196850393700787,
                    "duration": 0.8615120000000047
                },
                {
                    "name": "C3",
                    "midi": 48,
                    "time": 361.83503999998914,
                    "velocity": 0.3779527559055118,
                    "duration": 0.21537799999998697
                },
                {
                    "name": "E3",
                    "midi": 52,
                    "time": 361.83503999998914,
                    "velocity": 0.3779527559055118,
                    "duration": 0.21537799999998697
                },
                {
                    "name": "G3",
                    "midi": 55,
                    "time": 361.83503999998914,
                    "velocity": 0.3779527559055118,
                    "duration": 0.21537799999998697
                },
                {
                    "name": "C2",
                    "midi": 36,
                    "time": 362.69655199998914,
                    "velocity": 0.33070866141732286,
                    "duration": 0.43075599999997394
                },
                {
                    "name": "C3",
                    "midi": 48,
                    "time": 362.69655199998914,
                    "velocity": 0.33070866141732286,
                    "duration": 0.43075599999997394
                },
                {
                    "name": "G3",
                    "midi": 55,
                    "time": 363.4503749999891,
                    "velocity": 0.47244094488188976,
                    "duration": 0.10768899999999348
                },
                {
                    "name": "A#3",
                    "midi": 58,
                    "time": 363.4503749999891,
                    "velocity": 0.47244094488188976,
                    "duration": 0.10768899999999348
                },
                {
                    "name": "G3",
                    "midi": 55,
                    "time": 363.5580639999891,
                    "velocity": 0.5354330708661418,
                    "duration": 0.43075599999997394
                },
                {
                    "name": "A#3",
                    "midi": 58,
                    "time": 363.5580639999891,
                    "velocity": 0.5354330708661418,
                    "duration": 0.43075599999997394
                },
                {
                    "name": "G3",
                    "midi": 55,
                    "time": 364.31188699998904,
                    "velocity": 0.48031496062992124,
                    "duration": 0.10768899999999348
                },
                {
                    "name": "A#3",
                    "midi": 58,
                    "time": 364.31188699998904,
                    "velocity": 0.48031496062992124,
                    "duration": 0.10768899999999348
                },
                {
                    "name": "F3",
                    "midi": 53,
                    "time": 364.41957599998904,
                    "velocity": 0.4566929133858268,
                    "duration": 0.8615120000000047
                },
                {
                    "name": "G3",
                    "midi": 55,
                    "time": 364.41957599998904,
                    "velocity": 0.4566929133858268,
                    "duration": 0.8615120000000047
                },
                {
                    "name": "A#3",
                    "midi": 58,
                    "time": 364.41957599998904,
                    "velocity": 0.5433070866141733,
                    "duration": 0.8615120000000047
                },
                {
                    "name": "F3",
                    "midi": 53,
                    "time": 365.28108799998904,
                    "velocity": 0.3700787401574803,
                    "duration": 0.21537799999998697
                },
                {
                    "name": "G#3",
                    "midi": 56,
                    "time": 365.28108799998904,
                    "velocity": 0.4094488188976378,
                    "duration": 0.21537799999998697
                },
                {
                    "name": "F2",
                    "midi": 41,
                    "time": 366.14259999998905,
                    "velocity": 0.3543307086614173,
                    "duration": 0.43075599999997394
                },
                {
                    "name": "F3",
                    "midi": 53,
                    "time": 366.14259999998905,
                    "velocity": 0.3543307086614173,
                    "duration": 0.43075599999997394
                },
                {
                    "name": "C4",
                    "midi": 60,
                    "time": 366.896422999989,
                    "velocity": 0.4645669291338583,
                    "duration": 0.10768899999999348
                },
                {
                    "name": "D#4",
                    "midi": 63,
                    "time": 366.896422999989,
                    "velocity": 0.4645669291338583,
                    "duration": 0.10768899999999348
                },
                {
                    "name": "C4",
                    "midi": 60,
                    "time": 367.004111999989,
                    "velocity": 0.5354330708661418,
                    "duration": 0.43075599999997394
                },
                {
                    "name": "D#4",
                    "midi": 63,
                    "time": 367.004111999989,
                    "velocity": 0.5354330708661418,
                    "duration": 0.43075599999997394
                },
                {
                    "name": "C4",
                    "midi": 60,
                    "time": 367.75793499998895,
                    "velocity": 0.5196850393700787,
                    "duration": 0.10768899999999348
                },
                {
                    "name": "D#4",
                    "midi": 63,
                    "time": 367.75793499998895,
                    "velocity": 0.5196850393700787,
                    "duration": 0.10768899999999348
                },
                {
                    "name": "A#3",
                    "midi": 58,
                    "time": 367.86562399998894,
                    "velocity": 0.5669291338582677,
                    "duration": 1.0768899999999917
                },
                {
                    "name": "C4",
                    "midi": 60,
                    "time": 367.86562399998894,
                    "velocity": 0.5669291338582677,
                    "duration": 1.0768899999999917
                },
                {
                    "name": "D#4",
                    "midi": 63,
                    "time": 367.86562399998894,
                    "velocity": 0.5669291338582677,
                    "duration": 1.0768899999999917
                },
                {
                    "name": "A#3",
                    "midi": 58,
                    "time": 368.94251399998893,
                    "velocity": 0.5039370078740157,
                    "duration": 0.21537799999998697
                },
                {
                    "name": "C#4",
                    "midi": 61,
                    "time": 368.94251399998893,
                    "velocity": 0.5039370078740157,
                    "duration": 0.21537799999998697
                },
                {
                    "name": "G#3",
                    "midi": 56,
                    "time": 369.1578919999889,
                    "velocity": 0.48031496062992124,
                    "duration": 0.21537799999998697
                },
                {
                    "name": "C4",
                    "midi": 60,
                    "time": 369.1578919999889,
                    "velocity": 0.48031496062992124,
                    "duration": 0.21537799999998697
                },
                {
                    "name": "G3",
                    "midi": 55,
                    "time": 369.3732699999889,
                    "velocity": 0.4645669291338583,
                    "duration": 0.21537799999998697
                },
                {
                    "name": "A#3",
                    "midi": 58,
                    "time": 369.3732699999889,
                    "velocity": 0.4645669291338583,
                    "duration": 0.21537799999998697
                },
                {
                    "name": "C3",
                    "midi": 48,
                    "time": 369.5886479999889,
                    "velocity": 0.4409448818897638,
                    "duration": 0.43075599999997394
                },
                {
                    "name": "F3",
                    "midi": 53,
                    "time": 369.5886479999889,
                    "velocity": 0.4409448818897638,
                    "duration": 0.43075599999997394
                },
                {
                    "name": "G#3",
                    "midi": 56,
                    "time": 369.5886479999889,
                    "velocity": 0.4409448818897638,
                    "duration": 0.43075599999997394
                },
                {
                    "name": "F3",
                    "midi": 53,
                    "time": 370.34247099998885,
                    "velocity": 0.4409448818897638,
                    "duration": 0.10768899999999348
                },
                {
                    "name": "G#3",
                    "midi": 56,
                    "time": 370.34247099998885,
                    "velocity": 0.4409448818897638,
                    "duration": 0.10768899999999348
                },
                {
                    "name": "C3",
                    "midi": 48,
                    "time": 370.45015999998884,
                    "velocity": 0.49606299212598426,
                    "duration": 0.43075599999997394
                },
                {
                    "name": "G3",
                    "midi": 55,
                    "time": 370.45015999998884,
                    "velocity": 0.49606299212598426,
                    "duration": 0.43075599999997394
                },
                {
                    "name": "A#3",
                    "midi": 58,
                    "time": 370.45015999998884,
                    "velocity": 0.49606299212598426,
                    "duration": 0.43075599999997394
                },
                {
                    "name": "E3",
                    "midi": 52,
                    "time": 371.2039829999888,
                    "velocity": 0.41732283464566927,
                    "duration": 0.10768899999999348
                },
                {
                    "name": "G3",
                    "midi": 55,
                    "time": 371.2039829999888,
                    "velocity": 0.41732283464566927,
                    "duration": 0.10768899999999348
                },
                {
                    "name": "F3",
                    "midi": 53,
                    "time": 371.3116719999888,
                    "velocity": 0.4409448818897638,
                    "duration": 0.10768899999999348
                },
                {
                    "name": "C4",
                    "midi": 60,
                    "time": 371.4193609999888,
                    "velocity": 0.3858267716535433,
                    "duration": 0.10768899999999348
                },
                {
                    "name": "G#3",
                    "midi": 56,
                    "time": 371.5270499999888,
                    "velocity": 0.3858267716535433,
                    "duration": 0.10768899999999348
                },
                {
                    "name": "F3",
                    "midi": 53,
                    "time": 371.63473899998877,
                    "velocity": 0.3858267716535433,
                    "duration": 0.10768899999999348
                },
                {
                    "name": "C3",
                    "midi": 48,
                    "time": 371.74242799998876,
                    "velocity": 0.41732283464566927,
                    "duration": 0.10768899999999348
                },
                {
                    "name": "G#3",
                    "midi": 56,
                    "time": 371.85011699998876,
                    "velocity": 0.3858267716535433,
                    "duration": 0.10768899999999348
                },
                {
                    "name": "F3",
                    "midi": 53,
                    "time": 371.95780599998875,
                    "velocity": 0.3858267716535433,
                    "duration": 0.10768899999999348
                },
                {
                    "name": "C3",
                    "midi": 48,
                    "time": 372.06549499998874,
                    "velocity": 0.3858267716535433,
                    "duration": 0.10768899999999348
                },
                {
                    "name": "G#2",
                    "midi": 44,
                    "time": 372.17318399998874,
                    "velocity": 0.41732283464566927,
                    "duration": 0.10768899999999348
                },
                {
                    "name": "F3",
                    "midi": 53,
                    "time": 372.28087299998873,
                    "velocity": 0.3858267716535433,
                    "duration": 0.10768899999999348
                },
                {
                    "name": "C3",
                    "midi": 48,
                    "time": 372.3885619999887,
                    "velocity": 0.3858267716535433,
                    "duration": 0.10768899999999348
                },
                {
                    "name": "G#2",
                    "midi": 44,
                    "time": 372.4962509999887,
                    "velocity": 0.3858267716535433,
                    "duration": 0.10768899999999348
                },
                {
                    "name": "F2",
                    "midi": 41,
                    "time": 372.6039399999887,
                    "velocity": 0.41732283464566927,
                    "duration": 0.10768899999999348
                },
                {
                    "name": "C3",
                    "midi": 48,
                    "time": 372.7116289999887,
                    "velocity": 0.3858267716535433,
                    "duration": 0.10768899999999348
                },
                {
                    "name": "G#2",
                    "midi": 44,
                    "time": 372.8193179999887,
                    "velocity": 0.3858267716535433,
                    "duration": 0.10768899999999348
                },
                {
                    "name": "F2",
                    "midi": 41,
                    "time": 372.9270069999887,
                    "velocity": 0.3858267716535433,
                    "duration": 0.10768899999999348
                },
                {
                    "name": "C2",
                    "midi": 36,
                    "time": 373.0346959999887,
                    "velocity": 0.41732283464566927,
                    "duration": 0.10768899999999348
                },
                {
                    "name": "F2",
                    "midi": 41,
                    "time": 373.1423849999887,
                    "velocity": 0.3858267716535433,
                    "duration": 0.10768899999999348
                },
                {
                    "name": "G#2",
                    "midi": 44,
                    "time": 373.2500739999887,
                    "velocity": 0.3858267716535433,
                    "duration": 0.10768899999999348
                },
                {
                    "name": "C3",
                    "midi": 48,
                    "time": 373.35776299998867,
                    "velocity": 0.3858267716535433,
                    "duration": 0.10768899999999348
                },
                {
                    "name": "B2",
                    "midi": 47,
                    "time": 373.46545199998866,
                    "velocity": 0.41732283464566927,
                    "duration": 0.10768899999999348
                },
                {
                    "name": "C3",
                    "midi": 48,
                    "time": 373.57314099998865,
                    "velocity": 0.3858267716535433,
                    "duration": 0.10768899999999348
                },
                {
                    "name": "B2",
                    "midi": 47,
                    "time": 373.68082999998865,
                    "velocity": 0.3858267716535433,
                    "duration": 0.10768899999999348
                },
                {
                    "name": "C3",
                    "midi": 48,
                    "time": 373.78851899998864,
                    "velocity": 0.3858267716535433,
                    "duration": 0.10768899999999348
                },
                {
                    "name": "B2",
                    "midi": 47,
                    "time": 373.89620799998863,
                    "velocity": 0.41732283464566927,
                    "duration": 0.10768899999999348
                },
                {
                    "name": "C3",
                    "midi": 48,
                    "time": 374.0038969999886,
                    "velocity": 0.3858267716535433,
                    "duration": 0.10768899999999348
                },
                {
                    "name": "G2",
                    "midi": 43,
                    "time": 374.1115859999886,
                    "velocity": 0.3858267716535433,
                    "duration": 0.10768899999999348
                },
                {
                    "name": "C3",
                    "midi": 48,
                    "time": 374.2192749999886,
                    "velocity": 0.3858267716535433,
                    "duration": 0.10768899999999348
                },
                {
                    "name": "E2",
                    "midi": 40,
                    "time": 374.3269639999886,
                    "velocity": 0.41732283464566927,
                    "duration": 0.10768899999999348
                },
                {
                    "name": "C3",
                    "midi": 48,
                    "time": 374.4346529999886,
                    "velocity": 0.3858267716535433,
                    "duration": 0.10768899999999348
                },
                {
                    "name": "G2",
                    "midi": 43,
                    "time": 374.5423419999886,
                    "velocity": 0.3858267716535433,
                    "duration": 0.10768899999999348
                },
                {
                    "name": "C3",
                    "midi": 48,
                    "time": 374.6500309999886,
                    "velocity": 0.3858267716535433,
                    "duration": 0.10768899999999348
                },
                {
                    "name": "C2",
                    "midi": 36,
                    "time": 374.7577199999886,
                    "velocity": 0.4409448818897638,
                    "duration": 0.10768899999999348
                },
                {
                    "name": "E2",
                    "midi": 40,
                    "time": 374.8654089999886,
                    "velocity": 0.3858267716535433,
                    "duration": 0.10768899999999348
                },
                {
                    "name": "G2",
                    "midi": 43,
                    "time": 374.97309799998857,
                    "velocity": 0.3858267716535433,
                    "duration": 0.10768899999999348
                },
                {
                    "name": "C3",
                    "midi": 48,
                    "time": 375.08078699998856,
                    "velocity": 0.3858267716535433,
                    "duration": 0.10768899999999348
                },
                {
                    "name": "E2",
                    "midi": 40,
                    "time": 375.18847599998855,
                    "velocity": 0.41732283464566927,
                    "duration": 0.10768899999999348
                },
                {
                    "name": "G2",
                    "midi": 43,
                    "time": 375.29616499998855,
                    "velocity": 0.3858267716535433,
                    "duration": 0.10768899999999348
                },
                {
                    "name": "C3",
                    "midi": 48,
                    "time": 375.40385399998854,
                    "velocity": 0.3858267716535433,
                    "duration": 0.10768899999999348
                },
                {
                    "name": "E3",
                    "midi": 52,
                    "time": 375.51154299998854,
                    "velocity": 0.3858267716535433,
                    "duration": 0.10768899999999348
                },
                {
                    "name": "G2",
                    "midi": 43,
                    "time": 375.61923199998853,
                    "velocity": 0.41732283464566927,
                    "duration": 0.10768899999999348
                },
                {
                    "name": "C3",
                    "midi": 48,
                    "time": 375.7269209999885,
                    "velocity": 0.3858267716535433,
                    "duration": 0.10768899999999348
                },
                {
                    "name": "E3",
                    "midi": 52,
                    "time": 375.8346099999885,
                    "velocity": 0.3858267716535433,
                    "duration": 0.10768899999999348
                },
                {
                    "name": "G3",
                    "midi": 55,
                    "time": 375.9422989999885,
                    "velocity": 0.3858267716535433,
                    "duration": 0.10768899999999348
                },
                {
                    "name": "C3",
                    "midi": 48,
                    "time": 376.0499879999885,
                    "velocity": 0.41732283464566927,
                    "duration": 0.10768899999999348
                },
                {
                    "name": "E3",
                    "midi": 52,
                    "time": 376.1576769999885,
                    "velocity": 0.3858267716535433,
                    "duration": 0.10768899999999348
                },
                {
                    "name": "G3",
                    "midi": 55,
                    "time": 376.2653659999885,
                    "velocity": 0.3858267716535433,
                    "duration": 0.10768899999999348
                },
                {
                    "name": "C4",
                    "midi": 60,
                    "time": 376.3730549999885,
                    "velocity": 0.3858267716535433,
                    "duration": 0.10768899999999348
                },
                {
                    "name": "F3",
                    "midi": 53,
                    "time": 376.4807439999885,
                    "velocity": 0.4645669291338583,
                    "duration": 0.10768899999999348
                },
                {
                    "name": "G#3",
                    "midi": 56,
                    "time": 376.58843299998847,
                    "velocity": 0.3858267716535433,
                    "duration": 0.10768899999999348
                },
                {
                    "name": "C4",
                    "midi": 60,
                    "time": 376.69612199998846,
                    "velocity": 0.3858267716535433,
                    "duration": 0.10768899999999348
                },
                {
                    "name": "F4",
                    "midi": 65,
                    "time": 376.80381099998846,
                    "velocity": 0.3858267716535433,
                    "duration": 0.10768899999999348
                },
                {
                    "name": "E4",
                    "midi": 64,
                    "time": 376.91149999998845,
                    "velocity": 0.41732283464566927,
                    "duration": 0.10768899999999348
                },
                {
                    "name": "F4",
                    "midi": 65,
                    "time": 377.01918899998844,
                    "velocity": 0.3858267716535433,
                    "duration": 0.10768899999999348
                },
                {
                    "name": "E4",
                    "midi": 64,
                    "time": 377.12687799998844,
                    "velocity": 0.3858267716535433,
                    "duration": 0.10768899999999348
                },
                {
                    "name": "F4",
                    "midi": 65,
                    "time": 377.23456699998843,
                    "velocity": 0.3858267716535433,
                    "duration": 0.10768899999999348
                },
                {
                    "name": "E4",
                    "midi": 64,
                    "time": 377.3422559999884,
                    "velocity": 0.41732283464566927,
                    "duration": 0.10768899999999348
                },
                {
                    "name": "F4",
                    "midi": 65,
                    "time": 377.4499449999884,
                    "velocity": 0.3858267716535433,
                    "duration": 0.10768899999999348
                },
                {
                    "name": "C4",
                    "midi": 60,
                    "time": 377.5576339999884,
                    "velocity": 0.3858267716535433,
                    "duration": 0.10768899999999348
                },
                {
                    "name": "F4",
                    "midi": 65,
                    "time": 377.6653229999884,
                    "velocity": 0.3858267716535433,
                    "duration": 0.10768899999999348
                },
                {
                    "name": "G#3",
                    "midi": 56,
                    "time": 377.7730119999884,
                    "velocity": 0.41732283464566927,
                    "duration": 0.10768899999999348
                },
                {
                    "name": "F4",
                    "midi": 65,
                    "time": 377.8807009999884,
                    "velocity": 0.3858267716535433,
                    "duration": 0.10768899999999348
                },
                {
                    "name": "C4",
                    "midi": 60,
                    "time": 377.9883899999884,
                    "velocity": 0.3858267716535433,
                    "duration": 0.10768899999999348
                },
                {
                    "name": "F4",
                    "midi": 65,
                    "time": 378.0960789999884,
                    "velocity": 0.3858267716535433,
                    "duration": 0.10768899999999348
                },
                {
                    "name": "F3",
                    "midi": 53,
                    "time": 378.2037679999884,
                    "velocity": 0.48031496062992124,
                    "duration": 0.10768899999999348
                },
                {
                    "name": "A3",
                    "midi": 57,
                    "time": 378.31145699998837,
                    "velocity": 0.41732283464566927,
                    "duration": 0.10768899999999348
                },
                {
                    "name": "C4",
                    "midi": 60,
                    "time": 378.41914599998836,
                    "velocity": 0.41732283464566927,
                    "duration": 0.10768899999999348
                },
                {
                    "name": "F4",
                    "midi": 65,
                    "time": 378.52683499998835,
                    "velocity": 0.41732283464566927,
                    "duration": 0.10768899999999348
                },
                {
                    "name": "A3",
                    "midi": 57,
                    "time": 378.63452399998835,
                    "velocity": 0.4566929133858268,
                    "duration": 0.10768899999999348
                },
                {
                    "name": "C4",
                    "midi": 60,
                    "time": 378.74221299998834,
                    "velocity": 0.41732283464566927,
                    "duration": 0.10768899999999348
                },
                {
                    "name": "F4",
                    "midi": 65,
                    "time": 378.84990199998833,
                    "velocity": 0.41732283464566927,
                    "duration": 0.10768899999999348
                },
                {
                    "name": "A4",
                    "midi": 69,
                    "time": 378.9575909999883,
                    "velocity": 0.41732283464566927,
                    "duration": 0.10768899999999348
                },
                {
                    "name": "C4",
                    "midi": 60,
                    "time": 379.0652799999883,
                    "velocity": 0.4566929133858268,
                    "duration": 0.10768899999999348
                },
                {
                    "name": "F4",
                    "midi": 65,
                    "time": 379.1729689999883,
                    "velocity": 0.41732283464566927,
                    "duration": 0.10768899999999348
                },
                {
                    "name": "A4",
                    "midi": 69,
                    "time": 379.2806579999883,
                    "velocity": 0.41732283464566927,
                    "duration": 0.10768899999999348
                },
                {
                    "name": "C5",
                    "midi": 72,
                    "time": 379.3883469999883,
                    "velocity": 0.41732283464566927,
                    "duration": 0.10768899999999348
                },
                {
                    "name": "F4",
                    "midi": 65,
                    "time": 379.4960359999883,
                    "velocity": 0.4566929133858268,
                    "duration": 0.10768899999999348
                },
                {
                    "name": "A4",
                    "midi": 69,
                    "time": 379.6037249999883,
                    "velocity": 0.41732283464566927,
                    "duration": 0.10768899999999348
                },
                {
                    "name": "C5",
                    "midi": 72,
                    "time": 379.7114139999883,
                    "velocity": 0.41732283464566927,
                    "duration": 0.10768899999999348
                },
                {
                    "name": "F5",
                    "midi": 77,
                    "time": 379.8191029999883,
                    "velocity": 0.41732283464566927,
                    "duration": 0.10768899999999348
                },
                {
                    "name": "A4",
                    "midi": 69,
                    "time": 379.92679199998827,
                    "velocity": 0.5275590551181102,
                    "duration": 0.10768899999999348
                },
                {
                    "name": "F5",
                    "midi": 77,
                    "time": 380.03448099998826,
                    "velocity": 0.41732283464566927,
                    "duration": 0.10768899999999348
                },
                {
                    "name": "E5",
                    "midi": 76,
                    "time": 380.14216999998825,
                    "velocity": 0.41732283464566927,
                    "duration": 0.10768899999999348
                },
                {
                    "name": "F5",
                    "midi": 77,
                    "time": 380.24985899998825,
                    "velocity": 0.41732283464566927,
                    "duration": 0.10768899999999348
                },
                {
                    "name": "A4",
                    "midi": 69,
                    "time": 380.35754799998824,
                    "velocity": 0.4566929133858268,
                    "duration": 0.10768899999999348
                },
                {
                    "name": "F5",
                    "midi": 77,
                    "time": 380.46523699998824,
                    "velocity": 0.41732283464566927,
                    "duration": 0.10768899999999348
                },
                {
                    "name": "A4",
                    "midi": 69,
                    "time": 380.57292599998823,
                    "velocity": 0.41732283464566927,
                    "duration": 0.10768899999999348
                },
                {
                    "name": "F5",
                    "midi": 77,
                    "time": 380.6806149999882,
                    "velocity": 0.41732283464566927,
                    "duration": 0.10768899999999348
                },
                {
                    "name": "A4",
                    "midi": 69,
                    "time": 380.7883039999882,
                    "velocity": 0.44881889763779526,
                    "duration": 0.10768899999999348
                },
                {
                    "name": "F5",
                    "midi": 77,
                    "time": 380.8959929999882,
                    "velocity": 0.4409448818897638,
                    "duration": 0.10768899999999348
                },
                {
                    "name": "A#4",
                    "midi": 70,
                    "time": 381.0036819999882,
                    "velocity": 0.4409448818897638,
                    "duration": 0.10768899999999348
                },
                {
                    "name": "F5",
                    "midi": 77,
                    "time": 381.1113709999882,
                    "velocity": 0.4330708661417323,
                    "duration": 0.10768899999999348
                },
                {
                    "name": "C5",
                    "midi": 72,
                    "time": 381.2190599999882,
                    "velocity": 0.4251968503937008,
                    "duration": 0.10768899999999348
                },
                {
                    "name": "F5",
                    "midi": 77,
                    "time": 381.3267489999882,
                    "velocity": 0.41732283464566927,
                    "duration": 0.10768899999999348
                },
                {
                    "name": "C#5",
                    "midi": 73,
                    "time": 381.4344379999882,
                    "velocity": 0.4094488188976378,
                    "duration": 0.10768899999999348
                },
                {
                    "name": "F5",
                    "midi": 77,
                    "time": 381.54212699998817,
                    "velocity": 0.4094488188976378,
                    "duration": 0.10768899999999348
                },
                {
                    "name": "C4",
                    "midi": 60,
                    "time": 381.64981599998816,
                    "velocity": 0.4094488188976378,
                    "duration": 0.10768899999999348
                },
                {
                    "name": "F4",
                    "midi": 65,
                    "time": 381.75750499998816,
                    "velocity": 0.3700787401574803,
                    "duration": 0.10768899999999348
                },
                {
                    "name": "G#4",
                    "midi": 68,
                    "time": 381.86519399998815,
                    "velocity": 0.3700787401574803,
                    "duration": 0.10768899999999348
                },
                {
                    "name": "C5",
                    "midi": 72,
                    "time": 381.97288299998814,
                    "velocity": 0.3700787401574803,
                    "duration": 0.10768899999999348
                },
                {
                    "name": "B4",
                    "midi": 71,
                    "time": 382.08057199998814,
                    "velocity": 0.4094488188976378,
                    "duration": 0.10768899999999348
                },
                {
                    "name": "C5",
                    "midi": 72,
                    "time": 382.18826099998813,
                    "velocity": 0.3700787401574803,
                    "duration": 0.10768899999999348
                },
                {
                    "name": "B4",
                    "midi": 71,
                    "time": 382.2959499999881,
                    "velocity": 0.3700787401574803,
                    "duration": 0.10768899999999348
                },
                {
                    "name": "C5",
                    "midi": 72,
                    "time": 382.4036389999881,
                    "velocity": 0.3700787401574803,
                    "duration": 0.10768899999999348
                },
                {
                    "name": "C4",
                    "midi": 60,
                    "time": 382.5113279999881,
                    "velocity": 0.4094488188976378,
                    "duration": 0.10768899999999348
                },
                {
                    "name": "E4",
                    "midi": 64,
                    "time": 382.6190169999881,
                    "velocity": 0.3700787401574803,
                    "duration": 0.10768899999999348
                },
                {
                    "name": "G4",
                    "midi": 67,
                    "time": 382.7267059999881,
                    "velocity": 0.3700787401574803,
                    "duration": 0.10768899999999348
                },
                {
                    "name": "C5",
                    "midi": 72,
                    "time": 382.8343949999881,
                    "velocity": 0.3700787401574803,
                    "duration": 0.10768899999999348
                },
                {
                    "name": "C4",
                    "midi": 60,
                    "time": 382.9420839999881,
                    "velocity": 0.4094488188976378,
                    "duration": 0.10768899999999348
                },
                {
                    "name": "G4",
                    "midi": 67,
                    "time": 383.0497729999881,
                    "velocity": 0.3700787401574803,
                    "duration": 0.10768899999999348
                },
                {
                    "name": "A#4",
                    "midi": 70,
                    "time": 383.1574619999881,
                    "velocity": 0.3700787401574803,
                    "duration": 0.10768899999999348
                },
                {
                    "name": "C5",
                    "midi": 72,
                    "time": 383.26515099998807,
                    "velocity": 0.3700787401574803,
                    "duration": 0.10768899999999348
                },
                {
                    "name": "F3",
                    "midi": 53,
                    "time": 383.37283999998806,
                    "velocity": 0.4094488188976378,
                    "duration": 0.10768899999999348
                },
                {
                    "name": "G#4",
                    "midi": 68,
                    "time": 383.48052899998805,
                    "velocity": 0.2992125984251969,
                    "duration": 0.10768899999999348
                },
                {
                    "name": "F4",
                    "midi": 65,
                    "time": 383.48052899998805,
                    "velocity": 0.2992125984251969,
                    "duration": 0.10768899999999348
                },
                {
                    "name": "C4",
                    "midi": 60,
                    "time": 383.58821799998805,
                    "velocity": 0.30708661417322836,
                    "duration": 0.10768899999999348
                },
                {
                    "name": "C5",
                    "midi": 72,
                    "time": 383.58821799998805,
                    "velocity": 0.30708661417322836,
                    "duration": 0.10768899999999348
                },
                {
                    "name": "G#4",
                    "midi": 68,
                    "time": 383.69590699998804,
                    "velocity": 0.3228346456692913,
                    "duration": 0.10768899999999348
                },
                {
                    "name": "F4",
                    "midi": 65,
                    "time": 383.69590699998804,
                    "velocity": 0.3228346456692913,
                    "duration": 0.10768899999999348
                },
                {
                    "name": "C4",
                    "midi": 60,
                    "time": 383.80359599998803,
                    "velocity": 0.3543307086614173,
                    "duration": 0.10768899999999348
                },
                {
                    "name": "C5",
                    "midi": 72,
                    "time": 383.80359599998803,
                    "velocity": 0.3543307086614173,
                    "duration": 0.10768899999999348
                },
                {
                    "name": "G#4",
                    "midi": 68,
                    "time": 383.911284999988,
                    "velocity": 0.3464566929133858,
                    "duration": 0.10768899999999348
                },
                {
                    "name": "F4",
                    "midi": 65,
                    "time": 383.911284999988,
                    "velocity": 0.3464566929133858,
                    "duration": 0.10768899999999348
                },
                {
                    "name": "C4",
                    "midi": 60,
                    "time": 384.018973999988,
                    "velocity": 0.3543307086614173,
                    "duration": 0.10768899999999348
                },
                {
                    "name": "C5",
                    "midi": 72,
                    "time": 384.018973999988,
                    "velocity": 0.3543307086614173,
                    "duration": 0.10768899999999348
                },
                {
                    "name": "G#4",
                    "midi": 68,
                    "time": 384.126662999988,
                    "velocity": 0.3543307086614173,
                    "duration": 0.10768899999999348
                },
                {
                    "name": "F4",
                    "midi": 65,
                    "time": 384.126662999988,
                    "velocity": 0.3543307086614173,
                    "duration": 0.10768899999999348
                },
                {
                    "name": "C4",
                    "midi": 60,
                    "time": 384.234351999988,
                    "velocity": 0.36220472440944884,
                    "duration": 0.10768899999999348
                },
                {
                    "name": "C5",
                    "midi": 72,
                    "time": 384.234351999988,
                    "velocity": 0.36220472440944884,
                    "duration": 0.10768899999999348
                },
                {
                    "name": "G#4",
                    "midi": 68,
                    "time": 384.342040999988,
                    "velocity": 0.36220472440944884,
                    "duration": 0.10768899999999348
                },
                {
                    "name": "F4",
                    "midi": 65,
                    "time": 384.342040999988,
                    "velocity": 0.36220472440944884,
                    "duration": 0.10768899999999348
                },
                {
                    "name": "C4",
                    "midi": 60,
                    "time": 384.449729999988,
                    "velocity": 0.3543307086614173,
                    "duration": 0.10768899999999348
                },
                {
                    "name": "C5",
                    "midi": 72,
                    "time": 384.449729999988,
                    "velocity": 0.3543307086614173,
                    "duration": 0.10768899999999348
                },
                {
                    "name": "G#4",
                    "midi": 68,
                    "time": 384.557418999988,
                    "velocity": 0.3543307086614173,
                    "duration": 0.10768899999999348
                },
                {
                    "name": "F4",
                    "midi": 65,
                    "time": 384.557418999988,
                    "velocity": 0.3543307086614173,
                    "duration": 0.10768899999999348
                },
                {
                    "name": "C4",
                    "midi": 60,
                    "time": 384.665107999988,
                    "velocity": 0.3543307086614173,
                    "duration": 0.10768899999999348
                },
                {
                    "name": "C5",
                    "midi": 72,
                    "time": 384.665107999988,
                    "velocity": 0.3543307086614173,
                    "duration": 0.10768899999999348
                },
                {
                    "name": "G#4",
                    "midi": 68,
                    "time": 384.772796999988,
                    "velocity": 0.3464566929133858,
                    "duration": 0.10768899999999348
                },
                {
                    "name": "F4",
                    "midi": 65,
                    "time": 384.772796999988,
                    "velocity": 0.3464566929133858,
                    "duration": 0.10768899999999348
                },
                {
                    "name": "C4",
                    "midi": 60,
                    "time": 384.88048599998797,
                    "velocity": 0.3464566929133858,
                    "duration": 0.10768899999999348
                },
                {
                    "name": "C5",
                    "midi": 72,
                    "time": 384.88048599998797,
                    "velocity": 0.3464566929133858,
                    "duration": 0.10768899999999348
                },
                {
                    "name": "G#4",
                    "midi": 68,
                    "time": 384.98817499998796,
                    "velocity": 0.33858267716535434,
                    "duration": 0.10768899999999348
                },
                {
                    "name": "F4",
                    "midi": 65,
                    "time": 384.98817499998796,
                    "velocity": 0.33858267716535434,
                    "duration": 0.10768899999999348
                },
                {
                    "name": "F3",
                    "midi": 53,
                    "time": 385.09586399998796,
                    "velocity": 0.4251968503937008,
                    "duration": 0.10768899999999348
                },
                {
                    "name": "G#4",
                    "midi": 68,
                    "time": 385.20355299998795,
                    "velocity": 0.2992125984251969,
                    "duration": 0.10768899999999348
                },
                {
                    "name": "F4",
                    "midi": 65,
                    "time": 385.20355299998795,
                    "velocity": 0.2992125984251969,
                    "duration": 0.10768899999999348
                },
                {
                    "name": "C4",
                    "midi": 60,
                    "time": 385.31124199998794,
                    "velocity": 0.30708661417322836,
                    "duration": 0.10768899999999348
                },
                {
                    "name": "C5",
                    "midi": 72,
                    "time": 385.31124199998794,
                    "velocity": 0.30708661417322836,
                    "duration": 0.10768899999999348
                },
                {
                    "name": "G#4",
                    "midi": 68,
                    "time": 385.41893099998794,
                    "velocity": 0.3228346456692913,
                    "duration": 0.10768899999999348
                },
                {
                    "name": "F4",
                    "midi": 65,
                    "time": 385.41893099998794,
                    "velocity": 0.3228346456692913,
                    "duration": 0.10768899999999348
                },
                {
                    "name": "C4",
                    "midi": 60,
                    "time": 385.52661999998793,
                    "velocity": 0.3543307086614173,
                    "duration": 0.10768899999999348
                },
                {
                    "name": "C5",
                    "midi": 72,
                    "time": 385.52661999998793,
                    "velocity": 0.3543307086614173,
                    "duration": 0.10768899999999348
                },
                {
                    "name": "G#4",
                    "midi": 68,
                    "time": 385.6343089999879,
                    "velocity": 0.3464566929133858,
                    "duration": 0.10768899999999348
                },
                {
                    "name": "F4",
                    "midi": 65,
                    "time": 385.6343089999879,
                    "velocity": 0.3464566929133858,
                    "duration": 0.10768899999999348
                },
                {
                    "name": "C4",
                    "midi": 60,
                    "time": 385.7419979999879,
                    "velocity": 0.3543307086614173,
                    "duration": 0.10768899999999348
                },
                {
                    "name": "C5",
                    "midi": 72,
                    "time": 385.7419979999879,
                    "velocity": 0.3543307086614173,
                    "duration": 0.10768899999999348
                },
                {
                    "name": "G#4",
                    "midi": 68,
                    "time": 385.8496869999879,
                    "velocity": 0.3543307086614173,
                    "duration": 0.10768899999999348
                },
                {
                    "name": "F4",
                    "midi": 65,
                    "time": 385.8496869999879,
                    "velocity": 0.3543307086614173,
                    "duration": 0.10768899999999348
                },
                {
                    "name": "C4",
                    "midi": 60,
                    "time": 385.9573759999879,
                    "velocity": 0.36220472440944884,
                    "duration": 0.10768899999999348
                },
                {
                    "name": "C5",
                    "midi": 72,
                    "time": 385.9573759999879,
                    "velocity": 0.36220472440944884,
                    "duration": 0.10768899999999348
                },
                {
                    "name": "G#4",
                    "midi": 68,
                    "time": 386.0650649999879,
                    "velocity": 0.36220472440944884,
                    "duration": 0.10768899999999348
                },
                {
                    "name": "F4",
                    "midi": 65,
                    "time": 386.0650649999879,
                    "velocity": 0.36220472440944884,
                    "duration": 0.10768899999999348
                },
                {
                    "name": "C4",
                    "midi": 60,
                    "time": 386.1727539999879,
                    "velocity": 0.3543307086614173,
                    "duration": 0.10768899999999348
                },
                {
                    "name": "C5",
                    "midi": 72,
                    "time": 386.1727539999879,
                    "velocity": 0.3543307086614173,
                    "duration": 0.10768899999999348
                },
                {
                    "name": "G#4",
                    "midi": 68,
                    "time": 386.2804429999879,
                    "velocity": 0.3543307086614173,
                    "duration": 0.10768899999999348
                },
                {
                    "name": "F4",
                    "midi": 65,
                    "time": 386.2804429999879,
                    "velocity": 0.3543307086614173,
                    "duration": 0.10768899999999348
                },
                {
                    "name": "C4",
                    "midi": 60,
                    "time": 386.3881319999879,
                    "velocity": 0.3543307086614173,
                    "duration": 0.10768899999999348
                },
                {
                    "name": "C5",
                    "midi": 72,
                    "time": 386.3881319999879,
                    "velocity": 0.3543307086614173,
                    "duration": 0.10768899999999348
                },
                {
                    "name": "G#4",
                    "midi": 68,
                    "time": 386.49582099998787,
                    "velocity": 0.3464566929133858,
                    "duration": 0.10768899999999348
                },
                {
                    "name": "F4",
                    "midi": 65,
                    "time": 386.49582099998787,
                    "velocity": 0.3464566929133858,
                    "duration": 0.10768899999999348
                },
                {
                    "name": "C4",
                    "midi": 60,
                    "time": 386.60350999998786,
                    "velocity": 0.3464566929133858,
                    "duration": 0.10768899999999348
                },
                {
                    "name": "C5",
                    "midi": 72,
                    "time": 386.60350999998786,
                    "velocity": 0.3464566929133858,
                    "duration": 0.10768899999999348
                },
                {
                    "name": "G#4",
                    "midi": 68,
                    "time": 386.71119899998786,
                    "velocity": 0.33858267716535434,
                    "duration": 0.10768899999999348
                },
                {
                    "name": "F4",
                    "midi": 65,
                    "time": 386.71119899998786,
                    "velocity": 0.33858267716535434,
                    "duration": 0.10768899999999348
                },
                {
                    "name": "G#2",
                    "midi": 44,
                    "time": 386.81888799998785,
                    "velocity": 0.4330708661417323,
                    "duration": 0.10768899999999348
                },
                {
                    "name": "G#3",
                    "midi": 56,
                    "time": 386.92657699998784,
                    "velocity": 0.31496062992125984,
                    "duration": 0.10768899999999348
                },
                {
                    "name": "F#3",
                    "midi": 54,
                    "time": 386.92657699998784,
                    "velocity": 0.31496062992125984,
                    "duration": 0.10768899999999348
                },
                {
                    "name": "D#3",
                    "midi": 51,
                    "time": 387.03426599998784,
                    "velocity": 0.3228346456692913,
                    "duration": 0.10768899999999348
                },
                {
                    "name": "C4",
                    "midi": 60,
                    "time": 387.03426599998784,
                    "velocity": 0.3228346456692913,
                    "duration": 0.10768899999999348
                },
                {
                    "name": "G#3",
                    "midi": 56,
                    "time": 387.14195499998783,
                    "velocity": 0.33858267716535434,
                    "duration": 0.10768899999999348
                },
                {
                    "name": "F#3",
                    "midi": 54,
                    "time": 387.14195499998783,
                    "velocity": 0.33858267716535434,
                    "duration": 0.10768899999999348
                },
                {
                    "name": "D#3",
                    "midi": 51,
                    "time": 387.2496439999878,
                    "velocity": 0.3700787401574803,
                    "duration": 0.10768899999999348
                },
                {
                    "name": "C4",
                    "midi": 60,
                    "time": 387.2496439999878,
                    "velocity": 0.3700787401574803,
                    "duration": 0.10768899999999348
                },
                {
                    "name": "G#3",
                    "midi": 56,
                    "time": 387.3573329999878,
                    "velocity": 0.36220472440944884,
                    "duration": 0.10768899999999348
                },
                {
                    "name": "F#3",
                    "midi": 54,
                    "time": 387.3573329999878,
                    "velocity": 0.36220472440944884,
                    "duration": 0.10768899999999348
                },
                {
                    "name": "D#3",
                    "midi": 51,
                    "time": 387.4650219999878,
                    "velocity": 0.3700787401574803,
                    "duration": 0.10768899999999348
                },
                {
                    "name": "C4",
                    "midi": 60,
                    "time": 387.4650219999878,
                    "velocity": 0.3700787401574803,
                    "duration": 0.10768899999999348
                },
                {
                    "name": "G#3",
                    "midi": 56,
                    "time": 387.5727109999878,
                    "velocity": 0.3779527559055118,
                    "duration": 0.10768899999999348
                },
                {
                    "name": "F#3",
                    "midi": 54,
                    "time": 387.5727109999878,
                    "velocity": 0.3779527559055118,
                    "duration": 0.10768899999999348
                },
                {
                    "name": "D#3",
                    "midi": 51,
                    "time": 387.6803999999878,
                    "velocity": 0.3858267716535433,
                    "duration": 0.10768899999999348
                },
                {
                    "name": "C4",
                    "midi": 60,
                    "time": 387.6803999999878,
                    "velocity": 0.3858267716535433,
                    "duration": 0.10768899999999348
                },
                {
                    "name": "G#3",
                    "midi": 56,
                    "time": 387.7880889999878,
                    "velocity": 0.3858267716535433,
                    "duration": 0.10768899999999348
                },
                {
                    "name": "F#3",
                    "midi": 54,
                    "time": 387.7880889999878,
                    "velocity": 0.3858267716535433,
                    "duration": 0.10768899999999348
                },
                {
                    "name": "D#3",
                    "midi": 51,
                    "time": 387.8957779999878,
                    "velocity": 0.3779527559055118,
                    "duration": 0.10768899999999348
                },
                {
                    "name": "C4",
                    "midi": 60,
                    "time": 387.8957779999878,
                    "velocity": 0.3779527559055118,
                    "duration": 0.10768899999999348
                },
                {
                    "name": "G#3",
                    "midi": 56,
                    "time": 388.0034669999878,
                    "velocity": 0.3700787401574803,
                    "duration": 0.10768899999999348
                },
                {
                    "name": "F#3",
                    "midi": 54,
                    "time": 388.0034669999878,
                    "velocity": 0.3700787401574803,
                    "duration": 0.10768899999999348
                },
                {
                    "name": "D#3",
                    "midi": 51,
                    "time": 388.1111559999878,
                    "velocity": 0.3700787401574803,
                    "duration": 0.10768899999999348
                },
                {
                    "name": "C4",
                    "midi": 60,
                    "time": 388.1111559999878,
                    "velocity": 0.3700787401574803,
                    "duration": 0.10768899999999348
                },
                {
                    "name": "G#3",
                    "midi": 56,
                    "time": 388.21884499998777,
                    "velocity": 0.36220472440944884,
                    "duration": 0.10768899999999348
                },
                {
                    "name": "F#3",
                    "midi": 54,
                    "time": 388.21884499998777,
                    "velocity": 0.36220472440944884,
                    "duration": 0.10768899999999348
                },
                {
                    "name": "D#3",
                    "midi": 51,
                    "time": 388.32653399998776,
                    "velocity": 0.36220472440944884,
                    "duration": 0.10768899999999348
                },
                {
                    "name": "C4",
                    "midi": 60,
                    "time": 388.32653399998776,
                    "velocity": 0.36220472440944884,
                    "duration": 0.10768899999999348
                },
                {
                    "name": "G#3",
                    "midi": 56,
                    "time": 388.43422299998775,
                    "velocity": 0.3543307086614173,
                    "duration": 0.10768899999999348
                },
                {
                    "name": "F#3",
                    "midi": 54,
                    "time": 388.43422299998775,
                    "velocity": 0.3543307086614173,
                    "duration": 0.10768899999999348
                },
                {
                    "name": "G#2",
                    "midi": 44,
                    "time": 388.54191199998775,
                    "velocity": 0.4251968503937008,
                    "duration": 0.10768899999999348
                },
                {
                    "name": "G#3",
                    "midi": 56,
                    "time": 388.64960099998774,
                    "velocity": 0.31496062992125984,
                    "duration": 0.10768899999999348
                },
                {
                    "name": "F#3",
                    "midi": 54,
                    "time": 388.64960099998774,
                    "velocity": 0.31496062992125984,
                    "duration": 0.10768899999999348
                },
                {
                    "name": "D#3",
                    "midi": 51,
                    "time": 388.75728999998773,
                    "velocity": 0.3228346456692913,
                    "duration": 0.10768899999999348
                },
                {
                    "name": "C4",
                    "midi": 60,
                    "time": 388.75728999998773,
                    "velocity": 0.3228346456692913,
                    "duration": 0.10768899999999348
                },
                {
                    "name": "G#3",
                    "midi": 56,
                    "time": 388.8649789999877,
                    "velocity": 0.33858267716535434,
                    "duration": 0.10768899999999348
                },
                {
                    "name": "F#3",
                    "midi": 54,
                    "time": 388.8649789999877,
                    "velocity": 0.33858267716535434,
                    "duration": 0.10768899999999348
                },
                {
                    "name": "D#3",
                    "midi": 51,
                    "time": 388.9726679999877,
                    "velocity": 0.3700787401574803,
                    "duration": 0.10768899999999348
                },
                {
                    "name": "C4",
                    "midi": 60,
                    "time": 388.9726679999877,
                    "velocity": 0.3700787401574803,
                    "duration": 0.10768899999999348
                },
                {
                    "name": "G#3",
                    "midi": 56,
                    "time": 389.0803569999877,
                    "velocity": 0.36220472440944884,
                    "duration": 0.10768899999999348
                },
                {
                    "name": "F#3",
                    "midi": 54,
                    "time": 389.0803569999877,
                    "velocity": 0.36220472440944884,
                    "duration": 0.10768899999999348
                },
                {
                    "name": "D#3",
                    "midi": 51,
                    "time": 389.1880459999877,
                    "velocity": 0.3700787401574803,
                    "duration": 0.10768899999999348
                },
                {
                    "name": "C4",
                    "midi": 60,
                    "time": 389.1880459999877,
                    "velocity": 0.3700787401574803,
                    "duration": 0.10768899999999348
                },
                {
                    "name": "G#3",
                    "midi": 56,
                    "time": 389.2957349999877,
                    "velocity": 0.3779527559055118,
                    "duration": 0.10768899999999348
                },
                {
                    "name": "F#3",
                    "midi": 54,
                    "time": 389.2957349999877,
                    "velocity": 0.3779527559055118,
                    "duration": 0.10768899999999348
                },
                {
                    "name": "D#3",
                    "midi": 51,
                    "time": 389.4034239999877,
                    "velocity": 0.3858267716535433,
                    "duration": 0.10768899999999348
                },
                {
                    "name": "C4",
                    "midi": 60,
                    "time": 389.4034239999877,
                    "velocity": 0.3858267716535433,
                    "duration": 0.10768899999999348
                },
                {
                    "name": "G#3",
                    "midi": 56,
                    "time": 389.5111129999877,
                    "velocity": 0.3858267716535433,
                    "duration": 0.10768899999999348
                },
                {
                    "name": "F#3",
                    "midi": 54,
                    "time": 389.5111129999877,
                    "velocity": 0.3858267716535433,
                    "duration": 0.10768899999999348
                },
                {
                    "name": "D#3",
                    "midi": 51,
                    "time": 389.6188019999877,
                    "velocity": 0.3779527559055118,
                    "duration": 0.10768899999999348
                },
                {
                    "name": "C4",
                    "midi": 60,
                    "time": 389.6188019999877,
                    "velocity": 0.3779527559055118,
                    "duration": 0.10768899999999348
                },
                {
                    "name": "G#3",
                    "midi": 56,
                    "time": 389.7264909999877,
                    "velocity": 0.3700787401574803,
                    "duration": 0.10768899999999348
                },
                {
                    "name": "F#3",
                    "midi": 54,
                    "time": 389.7264909999877,
                    "velocity": 0.3700787401574803,
                    "duration": 0.10768899999999348
                },
                {
                    "name": "D#3",
                    "midi": 51,
                    "time": 389.83417999998767,
                    "velocity": 0.3700787401574803,
                    "duration": 0.10768899999999348
                },
                {
                    "name": "C4",
                    "midi": 60,
                    "time": 389.83417999998767,
                    "velocity": 0.3700787401574803,
                    "duration": 0.10768899999999348
                },
                {
                    "name": "G#3",
                    "midi": 56,
                    "time": 389.94186899998766,
                    "velocity": 0.36220472440944884,
                    "duration": 0.10768899999999348
                },
                {
                    "name": "F#3",
                    "midi": 54,
                    "time": 389.94186899998766,
                    "velocity": 0.36220472440944884,
                    "duration": 0.10768899999999348
                },
                {
                    "name": "D#3",
                    "midi": 51,
                    "time": 390.04955799998766,
                    "velocity": 0.36220472440944884,
                    "duration": 0.10768899999999348
                },
                {
                    "name": "C4",
                    "midi": 60,
                    "time": 390.04955799998766,
                    "velocity": 0.36220472440944884,
                    "duration": 0.10768899999999348
                },
                {
                    "name": "G#3",
                    "midi": 56,
                    "time": 390.15724699998765,
                    "velocity": 0.3543307086614173,
                    "duration": 0.10768899999999348
                },
                {
                    "name": "F#3",
                    "midi": 54,
                    "time": 390.15724699998765,
                    "velocity": 0.3543307086614173,
                    "duration": 0.10768899999999348
                },
                {
                    "name": "C#3",
                    "midi": 49,
                    "time": 390.26493599998764,
                    "velocity": 0.4409448818897638,
                    "duration": 0.10768899999999348
                },
                {
                    "name": "F4",
                    "midi": 65,
                    "time": 390.37262499998764,
                    "velocity": 0.33070866141732286,
                    "duration": 0.10768899999999348
                },
                {
                    "name": "C#4",
                    "midi": 61,
                    "time": 390.37262499998764,
                    "velocity": 0.33070866141732286,
                    "duration": 0.10768899999999348
                },
                {
                    "name": "G#3",
                    "midi": 56,
                    "time": 390.48031399998763,
                    "velocity": 0.33858267716535434,
                    "duration": 0.10768899999999348
                },
                {
                    "name": "G#4",
                    "midi": 68,
                    "time": 390.48031399998763,
                    "velocity": 0.33858267716535434,
                    "duration": 0.10768899999999348
                },
                {
                    "name": "F4",
                    "midi": 65,
                    "time": 390.5880029999876,
                    "velocity": 0.3543307086614173,
                    "duration": 0.10768899999999348
                },
                {
                    "name": "C#4",
                    "midi": 61,
                    "time": 390.5880029999876,
                    "velocity": 0.3543307086614173,
                    "duration": 0.10768899999999348
                },
                {
                    "name": "G#3",
                    "midi": 56,
                    "time": 390.6956919999876,
                    "velocity": 0.3858267716535433,
                    "duration": 0.10768899999999348
                },
                {
                    "name": "G#4",
                    "midi": 68,
                    "time": 390.6956919999876,
                    "velocity": 0.3858267716535433,
                    "duration": 0.10768899999999348
                },
                {
                    "name": "F4",
                    "midi": 65,
                    "time": 390.8033809999876,
                    "velocity": 0.3779527559055118,
                    "duration": 0.10768899999999348
                },
                {
                    "name": "C#4",
                    "midi": 61,
                    "time": 390.8033809999876,
                    "velocity": 0.3779527559055118,
                    "duration": 0.10768899999999348
                },
                {
                    "name": "G#3",
                    "midi": 56,
                    "time": 390.9110699999876,
                    "velocity": 0.3858267716535433,
                    "duration": 0.10768899999999348
                },
                {
                    "name": "G#4",
                    "midi": 68,
                    "time": 390.9110699999876,
                    "velocity": 0.3858267716535433,
                    "duration": 0.10768899999999348
                },
                {
                    "name": "F4",
                    "midi": 65,
                    "time": 391.0187589999876,
                    "velocity": 0.3937007874015748,
                    "duration": 0.10768899999999348
                },
                {
                    "name": "C#4",
                    "midi": 61,
                    "time": 391.0187589999876,
                    "velocity": 0.3937007874015748,
                    "duration": 0.10768899999999348
                },
                {
                    "name": "G#3",
                    "midi": 56,
                    "time": 391.1264479999876,
                    "velocity": 0.4015748031496063,
                    "duration": 0.10768899999999348
                },
                {
                    "name": "G#4",
                    "midi": 68,
                    "time": 391.1264479999876,
                    "velocity": 0.4015748031496063,
                    "duration": 0.10768899999999348
                },
                {
                    "name": "F4",
                    "midi": 65,
                    "time": 391.2341369999876,
                    "velocity": 0.4015748031496063,
                    "duration": 0.10768899999999348
                },
                {
                    "name": "C#4",
                    "midi": 61,
                    "time": 391.2341369999876,
                    "velocity": 0.4015748031496063,
                    "duration": 0.10768899999999348
                },
                {
                    "name": "G#3",
                    "midi": 56,
                    "time": 391.3418259999876,
                    "velocity": 0.3937007874015748,
                    "duration": 0.10768899999999348
                },
                {
                    "name": "G#4",
                    "midi": 68,
                    "time": 391.3418259999876,
                    "velocity": 0.3937007874015748,
                    "duration": 0.10768899999999348
                },
                {
                    "name": "F4",
                    "midi": 65,
                    "time": 391.44951499998757,
                    "velocity": 0.3858267716535433,
                    "duration": 0.10768899999999348
                },
                {
                    "name": "C#4",
                    "midi": 61,
                    "time": 391.44951499998757,
                    "velocity": 0.3858267716535433,
                    "duration": 0.10768899999999348
                },
                {
                    "name": "G#3",
                    "midi": 56,
                    "time": 391.55720399998756,
                    "velocity": 0.3858267716535433,
                    "duration": 0.10768899999999348
                },
                {
                    "name": "G#4",
                    "midi": 68,
                    "time": 391.55720399998756,
                    "velocity": 0.3858267716535433,
                    "duration": 0.10768899999999348
                },
                {
                    "name": "F4",
                    "midi": 65,
                    "time": 391.66489299998756,
                    "velocity": 0.3779527559055118,
                    "duration": 0.10768899999999348
                },
                {
                    "name": "C#4",
                    "midi": 61,
                    "time": 391.66489299998756,
                    "velocity": 0.3779527559055118,
                    "duration": 0.10768899999999348
                },
                {
                    "name": "G#3",
                    "midi": 56,
                    "time": 391.77258199998755,
                    "velocity": 0.3779527559055118,
                    "duration": 0.10768899999999348
                },
                {
                    "name": "G#4",
                    "midi": 68,
                    "time": 391.77258199998755,
                    "velocity": 0.3779527559055118,
                    "duration": 0.10768899999999348
                },
                {
                    "name": "F4",
                    "midi": 65,
                    "time": 391.88027099998754,
                    "velocity": 0.3700787401574803,
                    "duration": 0.10768899999999348
                },
                {
                    "name": "C#4",
                    "midi": 61,
                    "time": 391.88027099998754,
                    "velocity": 0.3700787401574803,
                    "duration": 0.10768899999999348
                },
                {
                    "name": "C#3",
                    "midi": 49,
                    "time": 391.98795999998754,
                    "velocity": 0.4409448818897638,
                    "duration": 0.10768899999999348
                },
                {
                    "name": "C#4",
                    "midi": 61,
                    "time": 392.09564899998753,
                    "velocity": 0.33070866141732286,
                    "duration": 0.10768899999999348
                },
                {
                    "name": "F4",
                    "midi": 65,
                    "time": 392.09564899998753,
                    "velocity": 0.33070866141732286,
                    "duration": 0.10768899999999348
                },
                {
                    "name": "G#3",
                    "midi": 56,
                    "time": 392.2033379999875,
                    "velocity": 0.33858267716535434,
                    "duration": 0.10768899999999348
                },
                {
                    "name": "G#4",
                    "midi": 68,
                    "time": 392.2033379999875,
                    "velocity": 0.33858267716535434,
                    "duration": 0.10768899999999348
                },
                {
                    "name": "C#4",
                    "midi": 61,
                    "time": 392.3110269999875,
                    "velocity": 0.3543307086614173,
                    "duration": 0.10768899999999348
                },
                {
                    "name": "F4",
                    "midi": 65,
                    "time": 392.3110269999875,
                    "velocity": 0.3543307086614173,
                    "duration": 0.10768899999999348
                },
                {
                    "name": "G#4",
                    "midi": 68,
                    "time": 392.4187159999875,
                    "velocity": 0.3858267716535433,
                    "duration": 0.21537799999998697
                },
                {
                    "name": "C#5",
                    "midi": 73,
                    "time": 392.6340939999875,
                    "velocity": 0.4330708661417323,
                    "duration": 0.21537799999998697
                },
                {
                    "name": "F5",
                    "midi": 77,
                    "time": 392.8494719999875,
                    "velocity": 0.4566929133858268,
                    "duration": 0.21537799999998697
                },
                {
                    "name": "G#5",
                    "midi": 80,
                    "time": 393.0648499999875,
                    "velocity": 0.4881889763779528,
                    "duration": 0.21537799999998697
                },
                {
                    "name": "C#6",
                    "midi": 85,
                    "time": 393.28022799998746,
                    "velocity": 0.5196850393700787,
                    "duration": 0.21537799999998697
                },
                {
                    "name": "C#6",
                    "midi": 85,
                    "time": 393.49560599998745,
                    "velocity": 0.5433070866141733,
                    "duration": 0.21537799999998697
                },
                {
                    "name": "C#6",
                    "midi": 85,
                    "time": 393.71098399998743,
                    "velocity": 0.6299212598425197,
                    "duration": 0.6461340000000177
                },
                {
                    "name": "A#5",
                    "midi": 82,
                    "time": 393.71098399998743,
                    "velocity": 0.6299212598425197,
                    "duration": 0.6461340000000177
                },
                {
                    "name": "G#5",
                    "midi": 80,
                    "time": 394.35711799998745,
                    "velocity": 0.5196850393700787,
                    "duration": 0.21537799999998697
                },
                {
                    "name": "C6",
                    "midi": 84,
                    "time": 394.35711799998745,
                    "velocity": 0.5196850393700787,
                    "duration": 0.21537799999998697
                },
                {
                    "name": "G5",
                    "midi": 79,
                    "time": 394.57249599998744,
                    "velocity": 0.5354330708661418,
                    "duration": 0.43075599999997394
                },
                {
                    "name": "A#5",
                    "midi": 82,
                    "time": 394.57249599998744,
                    "velocity": 0.5354330708661418,
                    "duration": 0.43075599999997394
                },
                {
                    "name": "G#5",
                    "midi": 80,
                    "time": 395.0032519999874,
                    "velocity": 0.5039370078740157,
                    "duration": 0.43075599999997394
                },
                {
                    "name": "C6",
                    "midi": 84,
                    "time": 395.0032519999874,
                    "velocity": 0.5039370078740157,
                    "duration": 0.43075599999997394
                },
                {
                    "name": "C#6",
                    "midi": 85,
                    "time": 395.4340079999874,
                    "velocity": 0.6299212598425197,
                    "duration": 0.6461340000000177
                },
                {
                    "name": "A#5",
                    "midi": 82,
                    "time": 395.4340079999874,
                    "velocity": 0.6299212598425197,
                    "duration": 0.6461340000000177
                },
                {
                    "name": "G#5",
                    "midi": 80,
                    "time": 396.0801419999874,
                    "velocity": 0.5196850393700787,
                    "duration": 0.21537799999998697
                },
                {
                    "name": "C6",
                    "midi": 84,
                    "time": 396.0801419999874,
                    "velocity": 0.5196850393700787,
                    "duration": 0.21537799999998697
                },
                {
                    "name": "G5",
                    "midi": 79,
                    "time": 396.2955199999874,
                    "velocity": 0.5354330708661418,
                    "duration": 0.43075599999997394
                },
                {
                    "name": "A#5",
                    "midi": 82,
                    "time": 396.2955199999874,
                    "velocity": 0.5354330708661418,
                    "duration": 0.43075599999997394
                },
                {
                    "name": "G#5",
                    "midi": 80,
                    "time": 396.72627599998737,
                    "velocity": 0.5039370078740157,
                    "duration": 0.43075599999997394
                },
                {
                    "name": "C6",
                    "midi": 84,
                    "time": 396.72627599998737,
                    "velocity": 0.5039370078740157,
                    "duration": 0.43075599999997394
                },
                {
                    "name": "C#6",
                    "midi": 85,
                    "time": 397.15703199998734,
                    "velocity": 0.6299212598425197,
                    "duration": 0.6461340000000177
                },
                {
                    "name": "A#5",
                    "midi": 82,
                    "time": 397.15703199998734,
                    "velocity": 0.6299212598425197,
                    "duration": 0.6461340000000177
                },
                {
                    "name": "G#5",
                    "midi": 80,
                    "time": 397.80316599998736,
                    "velocity": 0.5196850393700787,
                    "duration": 0.21537799999998697
                },
                {
                    "name": "C6",
                    "midi": 84,
                    "time": 397.80316599998736,
                    "velocity": 0.5196850393700787,
                    "duration": 0.21537799999998697
                },
                {
                    "name": "G5",
                    "midi": 79,
                    "time": 398.01854399998734,
                    "velocity": 0.5354330708661418,
                    "duration": 0.43075599999997394
                },
                {
                    "name": "A#5",
                    "midi": 82,
                    "time": 398.01854399998734,
                    "velocity": 0.5354330708661418,
                    "duration": 0.43075599999997394
                },
                {
                    "name": "F5",
                    "midi": 77,
                    "time": 398.4492999999873,
                    "velocity": 0.5118110236220472,
                    "duration": 0.43075599999997394
                },
                {
                    "name": "G#5",
                    "midi": 80,
                    "time": 398.4492999999873,
                    "velocity": 0.5118110236220472,
                    "duration": 0.43075599999997394
                },
                {
                    "name": "G5",
                    "midi": 79,
                    "time": 398.8800559999873,
                    "velocity": 0.5511811023622047,
                    "duration": 0.43075599999997394
                },
                {
                    "name": "E5",
                    "midi": 76,
                    "time": 398.8800559999873,
                    "velocity": 0.5511811023622047,
                    "duration": 0.43075599999997394
                },
                {
                    "name": "D5",
                    "midi": 74,
                    "time": 399.31081199998727,
                    "velocity": 0.5511811023622047,
                    "duration": 0.43075599999997394
                },
                {
                    "name": "F5",
                    "midi": 77,
                    "time": 399.31081199998727,
                    "velocity": 0.5511811023622047,
                    "duration": 0.43075599999997394
                },
                {
                    "name": "F5",
                    "midi": 77,
                    "time": 399.74156799998724,
                    "velocity": 0.5905511811023622,
                    "duration": 0.43075599999997394
                },
                {
                    "name": "C#5",
                    "midi": 73,
                    "time": 399.74156799998724,
                    "velocity": 0.5905511811023622,
                    "duration": 0.43075599999997394
                },
                {
                    "name": "C5",
                    "midi": 72,
                    "time": 400.1723239999872,
                    "velocity": 0.5905511811023622,
                    "duration": 0.43075599999997394
                },
                {
                    "name": "F5",
                    "midi": 77,
                    "time": 400.1723239999872,
                    "velocity": 0.5905511811023622,
                    "duration": 0.43075599999997394
                },
                {
                    "name": "B4",
                    "midi": 71,
                    "time": 400.6030799999872,
                    "velocity": 0.5984251968503937,
                    "duration": 0.8615119999999479
                },
                {
                    "name": "D5",
                    "midi": 74,
                    "time": 401.03383599998716,
                    "velocity": 0.5905511811023622,
                    "duration": 0.43075599999997394
                },
                {
                    "name": "G#4",
                    "midi": 68,
                    "time": 401.46459199998714,
                    "velocity": 0.5669291338582677,
                    "duration": 0.43075599999997394
                },
                {
                    "name": "C4",
                    "midi": 60,
                    "time": 401.46459199998714,
                    "velocity": 0.5669291338582677,
                    "duration": 0.8615119999999479
                },
                {
                    "name": "C5",
                    "midi": 72,
                    "time": 401.46459199998714,
                    "velocity": 0.5669291338582677,
                    "duration": 0.8615119999999479
                },
                {
                    "name": "G4",
                    "midi": 67,
                    "time": 401.8953479999871,
                    "velocity": 0.5354330708661418,
                    "duration": 0.43075599999997394
                },
                {
                    "name": "A#2",
                    "midi": 46,
                    "time": 402.3261039999871,
                    "velocity": 0.48031496062992124,
                    "duration": 0.6461340000000177
                },
                {
                    "name": "F#3",
                    "midi": 54,
                    "time": 402.3261039999871,
                    "velocity": 0.5669291338582677,
                    "duration": 0.6461340000000177
                },
                {
                    "name": "C#3",
                    "midi": 49,
                    "time": 402.3261039999871,
                    "velocity": 0.48031496062992124,
                    "duration": 0.6461340000000177
                },
                {
                    "name": "G#2",
                    "midi": 44,
                    "time": 402.9722379999871,
                    "velocity": 0.3937007874015748,
                    "duration": 0.21537799999998697
                },
                {
                    "name": "C3",
                    "midi": 48,
                    "time": 402.9722379999871,
                    "velocity": 0.3937007874015748,
                    "duration": 0.21537799999998697
                },
                {
                    "name": "F3",
                    "midi": 53,
                    "time": 402.9722379999871,
                    "velocity": 0.4645669291338583,
                    "duration": 0.21537799999998697
                },
                {
                    "name": "E3",
                    "midi": 52,
                    "time": 403.1876159999871,
                    "velocity": 0.48031496062992124,
                    "duration": 0.43075599999997394
                },
                {
                    "name": "G2",
                    "midi": 43,
                    "time": 403.1876159999871,
                    "velocity": 0.4015748031496063,
                    "duration": 0.43075599999997394
                },
                {
                    "name": "A#2",
                    "midi": 46,
                    "time": 403.1876159999871,
                    "velocity": 0.4015748031496063,
                    "duration": 0.43075599999997394
                },
                {
                    "name": "G#2",
                    "midi": 44,
                    "time": 403.61837199998706,
                    "velocity": 0.3779527559055118,
                    "duration": 0.43075599999997394
                },
                {
                    "name": "C3",
                    "midi": 48,
                    "time": 403.61837199998706,
                    "velocity": 0.3779527559055118,
                    "duration": 0.43075599999997394
                },
                {
                    "name": "F3",
                    "midi": 53,
                    "time": 403.61837199998706,
                    "velocity": 0.44881889763779526,
                    "duration": 0.43075599999997394
                },
                {
                    "name": "A#2",
                    "midi": 46,
                    "time": 404.04912799998704,
                    "velocity": 0.48031496062992124,
                    "duration": 0.6461340000000177
                },
                {
                    "name": "F#3",
                    "midi": 54,
                    "time": 404.04912799998704,
                    "velocity": 0.5669291338582677,
                    "duration": 0.6461340000000177
                },
                {
                    "name": "C#3",
                    "midi": 49,
                    "time": 404.04912799998704,
                    "velocity": 0.48031496062992124,
                    "duration": 0.6461340000000177
                },
                {
                    "name": "G#2",
                    "midi": 44,
                    "time": 404.69526199998705,
                    "velocity": 0.3937007874015748,
                    "duration": 0.21537799999998697
                },
                {
                    "name": "C3",
                    "midi": 48,
                    "time": 404.69526199998705,
                    "velocity": 0.3937007874015748,
                    "duration": 0.21537799999998697
                },
                {
                    "name": "F3",
                    "midi": 53,
                    "time": 404.69526199998705,
                    "velocity": 0.4645669291338583,
                    "duration": 0.21537799999998697
                },
                {
                    "name": "E3",
                    "midi": 52,
                    "time": 404.91063999998704,
                    "velocity": 0.5118110236220472,
                    "duration": 0.43075599999997394
                },
                {
                    "name": "G2",
                    "midi": 43,
                    "time": 404.91063999998704,
                    "velocity": 0.4015748031496063,
                    "duration": 0.43075599999997394
                },
                {
                    "name": "A#2",
                    "midi": 46,
                    "time": 404.91063999998704,
                    "velocity": 0.4251968503937008,
                    "duration": 0.43075599999997394
                },
                {
                    "name": "G#2",
                    "midi": 44,
                    "time": 405.341395999987,
                    "velocity": 0.3779527559055118,
                    "duration": 0.43075599999997394
                },
                {
                    "name": "C3",
                    "midi": 48,
                    "time": 405.341395999987,
                    "velocity": 0.3779527559055118,
                    "duration": 0.43075599999997394
                },
                {
                    "name": "F3",
                    "midi": 53,
                    "time": 405.341395999987,
                    "velocity": 0.44881889763779526,
                    "duration": 0.43075599999997394
                },
                {
                    "name": "A#2",
                    "midi": 46,
                    "time": 405.772151999987,
                    "velocity": 0.48031496062992124,
                    "duration": 0.6461340000000177
                },
                {
                    "name": "F#3",
                    "midi": 54,
                    "time": 405.772151999987,
                    "velocity": 0.5669291338582677,
                    "duration": 0.6461340000000177
                },
                {
                    "name": "C#3",
                    "midi": 49,
                    "time": 405.772151999987,
                    "velocity": 0.48031496062992124,
                    "duration": 0.6461340000000177
                },
                {
                    "name": "F3",
                    "midi": 53,
                    "time": 406.418285999987,
                    "velocity": 0.4645669291338583,
                    "duration": 0.21537799999998697
                },
                {
                    "name": "G#2",
                    "midi": 44,
                    "time": 406.418285999987,
                    "velocity": 0.3937007874015748,
                    "duration": 0.21537799999998697
                },
                {
                    "name": "C3",
                    "midi": 48,
                    "time": 406.418285999987,
                    "velocity": 0.3937007874015748,
                    "duration": 0.21537799999998697
                },
                {
                    "name": "E3",
                    "midi": 52,
                    "time": 406.633663999987,
                    "velocity": 0.48031496062992124,
                    "duration": 0.43075599999997394
                },
                {
                    "name": "G2",
                    "midi": 43,
                    "time": 406.633663999987,
                    "velocity": 0.4015748031496063,
                    "duration": 0.43075599999997394
                },
                {
                    "name": "A#2",
                    "midi": 46,
                    "time": 406.633663999987,
                    "velocity": 0.48031496062992124,
                    "duration": 0.43075599999997394
                },
                {
                    "name": "C#3",
                    "midi": 49,
                    "time": 407.06441999998697,
                    "velocity": 0.4566929133858268,
                    "duration": 0.43075599999997394
                },
                {
                    "name": "F2",
                    "midi": 41,
                    "time": 407.06441999998697,
                    "velocity": 0.3858267716535433,
                    "duration": 0.43075599999997394
                },
                {
                    "name": "G#2",
                    "midi": 44,
                    "time": 407.06441999998697,
                    "velocity": 0.3858267716535433,
                    "duration": 0.43075599999997394
                },
                {
                    "name": "E2",
                    "midi": 40,
                    "time": 407.49517599998694,
                    "velocity": 0.41732283464566927,
                    "duration": 0.43075599999997394
                },
                {
                    "name": "C3",
                    "midi": 48,
                    "time": 407.49517599998694,
                    "velocity": 0.49606299212598426,
                    "duration": 0.43075599999997394
                },
                {
                    "name": "G2",
                    "midi": 43,
                    "time": 407.49517599998694,
                    "velocity": 0.41732283464566927,
                    "duration": 0.43075599999997394
                },
                {
                    "name": "B2",
                    "midi": 47,
                    "time": 407.9259319999869,
                    "velocity": 0.49606299212598426,
                    "duration": 0.43075599999997394
                },
                {
                    "name": "G#2",
                    "midi": 44,
                    "time": 407.9259319999869,
                    "velocity": 0.41732283464566927,
                    "duration": 0.43075599999997394
                },
                {
                    "name": "D2",
                    "midi": 38,
                    "time": 407.9259319999869,
                    "velocity": 0.41732283464566927,
                    "duration": 0.43075599999997394
                },
                {
                    "name": "F2",
                    "midi": 41,
                    "time": 407.9259319999869,
                    "velocity": 0.41732283464566927,
                    "duration": 0.43075599999997394
                },
                {
                    "name": "A#2",
                    "midi": 46,
                    "time": 408.3566879999869,
                    "velocity": 0.5275590551181102,
                    "duration": 0.43075599999997394
                },
                {
                    "name": "G2",
                    "midi": 43,
                    "time": 408.3566879999869,
                    "velocity": 0.4409448818897638,
                    "duration": 0.43075599999997394
                },
                {
                    "name": "E2",
                    "midi": 40,
                    "time": 408.3566879999869,
                    "velocity": 0.4409448818897638,
                    "duration": 0.43075599999997394
                },
                {
                    "name": "F2",
                    "midi": 41,
                    "time": 408.78744399998686,
                    "velocity": 0.5275590551181102,
                    "duration": 0.43075599999997394
                },
                {
                    "name": "G#2",
                    "midi": 44,
                    "time": 408.78744399998686,
                    "velocity": 0.5275590551181102,
                    "duration": 0.43075599999997394
                },
                {
                    "name": "G#2",
                    "midi": 44,
                    "time": 409.21819999998684,
                    "velocity": 0.5196850393700787,
                    "duration": 0.43075599999997394
                },
                {
                    "name": "B1",
                    "midi": 35,
                    "time": 409.21819999998684,
                    "velocity": 0.5196850393700787,
                    "duration": 0.8615119999999479
                },
                {
                    "name": "F#2",
                    "midi": 42,
                    "time": 409.6489559999868,
                    "velocity": 0.5039370078740157,
                    "duration": 0.43075599999997394
                },
                {
                    "name": "F2",
                    "midi": 41,
                    "time": 410.0797119999868,
                    "velocity": 0.48031496062992124,
                    "duration": 0.43075599999997394
                },
                {
                    "name": "C2",
                    "midi": 36,
                    "time": 410.0797119999868,
                    "velocity": 0.48031496062992124,
                    "duration": 0.8615119999999479
                },
                {
                    "name": "E2",
                    "midi": 40,
                    "time": 410.51046799998676,
                    "velocity": 0.4645669291338583,
                    "duration": 0.43075599999997394
                },
                {
                    "name": "F1",
                    "midi": 29,
                    "time": 410.94122399998673,
                    "velocity": 0.4645669291338583,
                    "duration": 0.21537799999998697
                },
                {
                    "name": "G#1",
                    "midi": 32,
                    "time": 410.94122399998673,
                    "velocity": 0.4645669291338583,
                    "duration": 0.21537799999998697
                },
                {
                    "name": "C2",
                    "midi": 36,
                    "time": 410.94122399998673,
                    "velocity": 0.4645669291338583,
                    "duration": 0.21537799999998697
                },
                {
                    "name": "F2",
                    "midi": 41,
                    "time": 410.94122399998673,
                    "velocity": 0.5511811023622047,
                    "duration": 0.21537799999998697
                },
                {
                    "name": "C3",
                    "midi": 48,
                    "time": 411.4796689999867,
                    "velocity": 0.4645669291338583,
                    "duration": 0.10768899999999348
                },
                {
                    "name": "F3",
                    "midi": 53,
                    "time": 411.5873579999867,
                    "velocity": 0.4881889763779528,
                    "duration": 0.10768899999999348
                },
                {
                    "name": "G#3",
                    "midi": 56,
                    "time": 411.6950469999867,
                    "velocity": 0.5039370078740157,
                    "duration": 0.10768899999999348
                },
                {
                    "name": "C4",
                    "midi": 60,
                    "time": 411.8027359999867,
                    "velocity": 0.5511811023622047,
                    "duration": 0.10768899999999348
                },
                {
                    "name": "C#4",
                    "midi": 61,
                    "time": 411.9104249999867,
                    "velocity": 0.5039370078740157,
                    "duration": 0.10768899999999348
                },
                {
                    "name": "C4",
                    "midi": 60,
                    "time": 412.01811399998667,
                    "velocity": 0.5039370078740157,
                    "duration": 0.10768899999999348
                },
                {
                    "name": "A#3",
                    "midi": 58,
                    "time": 412.12580299998666,
                    "velocity": 0.5039370078740157,
                    "duration": 0.10768899999999348
                },
                {
                    "name": "G#3",
                    "midi": 56,
                    "time": 412.23349199998665,
                    "velocity": 0.5511811023622047,
                    "duration": 0.10768899999999348
                },
                {
                    "name": "G3",
                    "midi": 55,
                    "time": 412.34118099998665,
                    "velocity": 0.49606299212598426,
                    "duration": 0.10768899999999348
                },
                {
                    "name": "F3",
                    "midi": 53,
                    "time": 412.44886999998664,
                    "velocity": 0.49606299212598426,
                    "duration": 0.10768899999999348
                },
                {
                    "name": "D#3",
                    "midi": 51,
                    "time": 412.55655899998663,
                    "velocity": 0.49606299212598426,
                    "duration": 0.10768899999999348
                },
                {
                    "name": "C#3",
                    "midi": 49,
                    "time": 412.6642479999866,
                    "velocity": 0.5275590551181102,
                    "duration": 0.10768899999999348
                },
                {
                    "name": "C3",
                    "midi": 48,
                    "time": 412.7719369999866,
                    "velocity": 0.47244094488188976,
                    "duration": 0.10768899999999348
                },
                {
                    "name": "A#2",
                    "midi": 46,
                    "time": 412.8796259999866,
                    "velocity": 0.47244094488188976,
                    "duration": 0.10768899999999348
                },
                {
                    "name": "G#2",
                    "midi": 44,
                    "time": 412.9873149999866,
                    "velocity": 0.47244094488188976,
                    "duration": 0.10768899999999348
                },
                {
                    "name": "G2",
                    "midi": 43,
                    "time": 413.0950039999866,
                    "velocity": 0.5590551181102362,
                    "duration": 0.10768899999999348
                },
                {
                    "name": "G#2",
                    "midi": 44,
                    "time": 413.2026929999866,
                    "velocity": 0.5118110236220472,
                    "duration": 0.10768899999999348
                },
                {
                    "name": "A#2",
                    "midi": 46,
                    "time": 413.3103819999866,
                    "velocity": 0.5748031496062992,
                    "duration": 0.10768899999999348
                },
                {
                    "name": "G#2",
                    "midi": 44,
                    "time": 413.4180709999866,
                    "velocity": 0.5433070866141733,
                    "duration": 0.10768899999999348
                },
                {
                    "name": "G2",
                    "midi": 43,
                    "time": 413.5257599999866,
                    "velocity": 0.5748031496062992,
                    "duration": 0.10768899999999348
                },
                {
                    "name": "F2",
                    "midi": 41,
                    "time": 413.63344899998657,
                    "velocity": 0.5748031496062992,
                    "duration": 0.10768899999999348
                },
                {
                    "name": "E2",
                    "midi": 40,
                    "time": 413.74113799998656,
                    "velocity": 0.5669291338582677,
                    "duration": 0.10768899999999348
                },
                {
                    "name": "D2",
                    "midi": 38,
                    "time": 413.84882699998656,
                    "velocity": 0.5669291338582677,
                    "duration": 0.10768899999999348
                },
                {
                    "name": "C2",
                    "midi": 36,
                    "time": 413.95651599998655,
                    "velocity": 0.5590551181102362,
                    "duration": 0.10768899999999348
                },
                {
                    "name": "A#1",
                    "midi": 34,
                    "time": 414.06420499998654,
                    "velocity": 0.5590551181102362,
                    "duration": 0.10768899999999348
                },
                {
                    "name": "G#1",
                    "midi": 32,
                    "time": 414.17189399998654,
                    "velocity": 0.5511811023622047,
                    "duration": 0.10768899999999348
                },
                {
                    "name": "G1",
                    "midi": 31,
                    "time": 414.27958299998653,
                    "velocity": 0.5511811023622047,
                    "duration": 0.10768899999999348
                },
                {
                    "name": "F1",
                    "midi": 29,
                    "time": 414.3872719999865,
                    "velocity": 0.5511811023622047,
                    "duration": 0.21537799999998697
                },
                {
                    "name": "G#1",
                    "midi": 32,
                    "time": 414.3872719999865,
                    "velocity": 0.5511811023622047,
                    "duration": 0.21537799999998697
                },
                {
                    "name": "C2",
                    "midi": 36,
                    "time": 414.3872719999865,
                    "velocity": 0.5511811023622047,
                    "duration": 0.21537799999998697
                },
                {
                    "name": "F2",
                    "midi": 41,
                    "time": 414.3872719999865,
                    "velocity": 0.5511811023622047,
                    "duration": 0.21537799999998697
                },
                {
                    "name": "C4",
                    "midi": 60,
                    "time": 414.9257169999865,
                    "velocity": 0.4645669291338583,
                    "duration": 0.10768899999999348
                },
                {
                    "name": "F4",
                    "midi": 65,
                    "time": 415.0334059999865,
                    "velocity": 0.4881889763779528,
                    "duration": 0.10768899999999348
                },
                {
                    "name": "G#4",
                    "midi": 68,
                    "time": 415.1410949999865,
                    "velocity": 0.5039370078740157,
                    "duration": 0.10768899999999348
                },
                {
                    "name": "C5",
                    "midi": 72,
                    "time": 415.2487839999865,
                    "velocity": 0.5511811023622047,
                    "duration": 0.10768899999999348
                },
                {
                    "name": "C#5",
                    "midi": 73,
                    "time": 415.35647299998647,
                    "velocity": 0.5039370078740157,
                    "duration": 0.10768899999999348
                },
                {
                    "name": "C5",
                    "midi": 72,
                    "time": 415.46416199998646,
                    "velocity": 0.5039370078740157,
                    "duration": 0.10768899999999348
                },
                {
                    "name": "A#4",
                    "midi": 70,
                    "time": 415.57185099998645,
                    "velocity": 0.5039370078740157,
                    "duration": 0.10768899999999348
                },
                {
                    "name": "G#4",
                    "midi": 68,
                    "time": 415.67953999998645,
                    "velocity": 0.5511811023622047,
                    "duration": 0.10768899999999348
                },
                {
                    "name": "G4",
                    "midi": 67,
                    "time": 415.78722899998644,
                    "velocity": 0.49606299212598426,
                    "duration": 0.10768899999999348
                },
                {
                    "name": "F4",
                    "midi": 65,
                    "time": 415.89491799998643,
                    "velocity": 0.49606299212598426,
                    "duration": 0.10768899999999348
                },
                {
                    "name": "D#4",
                    "midi": 63,
                    "time": 416.0026069999864,
                    "velocity": 0.49606299212598426,
                    "duration": 0.10768899999999348
                },
                {
                    "name": "C#4",
                    "midi": 61,
                    "time": 416.1102959999864,
                    "velocity": 0.5275590551181102,
                    "duration": 0.10768899999999348
                },
                {
                    "name": "C4",
                    "midi": 60,
                    "time": 416.2179849999864,
                    "velocity": 0.47244094488188976,
                    "duration": 0.10768899999999348
                },
                {
                    "name": "A#3",
                    "midi": 58,
                    "time": 416.3256739999864,
                    "velocity": 0.47244094488188976,
                    "duration": 0.10768899999999348
                },
                {
                    "name": "G#3",
                    "midi": 56,
                    "time": 416.4333629999864,
                    "velocity": 0.47244094488188976,
                    "duration": 0.10768899999999348
                },
                {
                    "name": "G3",
                    "midi": 55,
                    "time": 416.5410519999864,
                    "velocity": 0.5590551181102362,
                    "duration": 0.10768899999999348
                },
                {
                    "name": "G#3",
                    "midi": 56,
                    "time": 416.6487409999864,
                    "velocity": 0.5118110236220472,
                    "duration": 0.10768899999999348
                },
                {
                    "name": "A#3",
                    "midi": 58,
                    "time": 416.7564299999864,
                    "velocity": 0.5748031496062992,
                    "duration": 0.10768899999999348
                },
                {
                    "name": "G#3",
                    "midi": 56,
                    "time": 416.8641189999864,
                    "velocity": 0.5433070866141733,
                    "duration": 0.10768899999999348
                },
                {
                    "name": "G3",
                    "midi": 55,
                    "time": 416.97180799998637,
                    "velocity": 0.5748031496062992,
                    "duration": 0.10768899999999348
                },
                {
                    "name": "F3",
                    "midi": 53,
                    "time": 417.07949699998636,
                    "velocity": 0.5748031496062992,
                    "duration": 0.10768899999999348
                },
                {
                    "name": "E3",
                    "midi": 52,
                    "time": 417.18718599998635,
                    "velocity": 0.5669291338582677,
                    "duration": 0.10768899999999348
                },
                {
                    "name": "D3",
                    "midi": 50,
                    "time": 417.29487499998635,
                    "velocity": 0.5669291338582677,
                    "duration": 0.10768899999999348
                },
                {
                    "name": "C3",
                    "midi": 48,
                    "time": 417.40256399998634,
                    "velocity": 0.5590551181102362,
                    "duration": 0.10768899999999348
                },
                {
                    "name": "A#2",
                    "midi": 46,
                    "time": 417.51025299998633,
                    "velocity": 0.5590551181102362,
                    "duration": 0.10768899999999348
                },
                {
                    "name": "G#2",
                    "midi": 44,
                    "time": 417.61794199998633,
                    "velocity": 0.5511811023622047,
                    "duration": 0.10768899999999348
                },
                {
                    "name": "G2",
                    "midi": 43,
                    "time": 417.7256309999863,
                    "velocity": 0.5511811023622047,
                    "duration": 0.10768899999999348
                },
                {
                    "name": "F2",
                    "midi": 41,
                    "time": 417.8333199999863,
                    "velocity": 0.5275590551181102,
                    "duration": 0.10768899999999348
                },
                {
                    "name": "G2",
                    "midi": 43,
                    "time": 417.9410089999863,
                    "velocity": 0.47244094488188976,
                    "duration": 0.10768899999999348
                },
                {
                    "name": "G#2",
                    "midi": 44,
                    "time": 418.0486979999863,
                    "velocity": 0.47244094488188976,
                    "duration": 0.10768899999999348
                },
                {
                    "name": "A#2",
                    "midi": 46,
                    "time": 418.1563869999863,
                    "velocity": 0.47244094488188976,
                    "duration": 0.10768899999999348
                },
                {
                    "name": "C3",
                    "midi": 48,
                    "time": 418.2640759999863,
                    "velocity": 0.5590551181102362,
                    "duration": 0.10768899999999348
                },
                {
                    "name": "D3",
                    "midi": 50,
                    "time": 418.3717649999863,
                    "velocity": 0.5118110236220472,
                    "duration": 0.10768899999999348
                },
                {
                    "name": "E3",
                    "midi": 52,
                    "time": 418.4794539999863,
                    "velocity": 0.5748031496062992,
                    "duration": 0.10768899999999348
                },
                {
                    "name": "F3",
                    "midi": 53,
                    "time": 418.58714299998627,
                    "velocity": 0.5433070866141733,
                    "duration": 0.10768899999999348
                },
                {
                    "name": "G3",
                    "midi": 55,
                    "time": 418.69483199998626,
                    "velocity": 0.5748031496062992,
                    "duration": 0.10768899999999348
                },
                {
                    "name": "F3",
                    "midi": 53,
                    "time": 418.80252099998626,
                    "velocity": 0.5748031496062992,
                    "duration": 0.10768899999999348
                },
                {
                    "name": "E3",
                    "midi": 52,
                    "time": 418.91020999998625,
                    "velocity": 0.5669291338582677,
                    "duration": 0.10768899999999348
                },
                {
                    "name": "D3",
                    "midi": 50,
                    "time": 419.01789899998624,
                    "velocity": 0.5669291338582677,
                    "duration": 0.10768899999999348
                },
                {
                    "name": "C3",
                    "midi": 48,
                    "time": 419.12558799998624,
                    "velocity": 0.5590551181102362,
                    "duration": 0.10768899999999348
                },
                {
                    "name": "A#2",
                    "midi": 46,
                    "time": 419.23327699998623,
                    "velocity": 0.5590551181102362,
                    "duration": 0.10768899999999348
                },
                {
                    "name": "G#2",
                    "midi": 44,
                    "time": 419.3409659999862,
                    "velocity": 0.5511811023622047,
                    "duration": 0.10768899999999348
                },
                {
                    "name": "G2",
                    "midi": 43,
                    "time": 419.4486549999862,
                    "velocity": 0.5511811023622047,
                    "duration": 0.10768899999999348
                },
                {
                    "name": "F2",
                    "midi": 41,
                    "time": 419.5563439999862,
                    "velocity": 0.5275590551181102,
                    "duration": 0.10768899999999348
                },
                {
                    "name": "G2",
                    "midi": 43,
                    "time": 419.6640329999862,
                    "velocity": 0.47244094488188976,
                    "duration": 0.10768899999999348
                },
                {
                    "name": "G#2",
                    "midi": 44,
                    "time": 419.7717219999862,
                    "velocity": 0.47244094488188976,
                    "duration": 0.10768899999999348
                },
                {
                    "name": "A#2",
                    "midi": 46,
                    "time": 419.8794109999862,
                    "velocity": 0.47244094488188976,
                    "duration": 0.10768899999999348
                },
                {
                    "name": "C3",
                    "midi": 48,
                    "time": 419.9870999999862,
                    "velocity": 0.5590551181102362,
                    "duration": 0.10768899999999348
                },
                {
                    "name": "D3",
                    "midi": 50,
                    "time": 420.0947889999862,
                    "velocity": 0.5118110236220472,
                    "duration": 0.10768899999999348
                },
                {
                    "name": "E3",
                    "midi": 52,
                    "time": 420.2024779999862,
                    "velocity": 0.5748031496062992,
                    "duration": 0.10768899999999348
                },
                {
                    "name": "F3",
                    "midi": 53,
                    "time": 420.31016699998617,
                    "velocity": 0.5433070866141733,
                    "duration": 0.10768899999999348
                },
                {
                    "name": "G3",
                    "midi": 55,
                    "time": 420.41785599998616,
                    "velocity": 0.5748031496062992,
                    "duration": 0.10768899999999348
                },
                {
                    "name": "F3",
                    "midi": 53,
                    "time": 420.52554499998615,
                    "velocity": 0.5748031496062992,
                    "duration": 0.10768899999999348
                },
                {
                    "name": "E3",
                    "midi": 52,
                    "time": 420.63323399998615,
                    "velocity": 0.5669291338582677,
                    "duration": 0.10768899999999348
                },
                {
                    "name": "D3",
                    "midi": 50,
                    "time": 420.74092299998614,
                    "velocity": 0.5669291338582677,
                    "duration": 0.10768899999999348
                },
                {
                    "name": "C3",
                    "midi": 48,
                    "time": 420.84861199998613,
                    "velocity": 0.5590551181102362,
                    "duration": 0.10768899999999348
                },
                {
                    "name": "A#2",
                    "midi": 46,
                    "time": 420.9563009999861,
                    "velocity": 0.5590551181102362,
                    "duration": 0.10768899999999348
                },
                {
                    "name": "G#2",
                    "midi": 44,
                    "time": 421.0639899999861,
                    "velocity": 0.5511811023622047,
                    "duration": 0.10768899999999348
                },
                {
                    "name": "G2",
                    "midi": 43,
                    "time": 421.1716789999861,
                    "velocity": 0.5511811023622047,
                    "duration": 0.10768899999999348
                },
                {
                    "name": "F2",
                    "midi": 41,
                    "time": 421.2793679999861,
                    "velocity": 0.5275590551181102,
                    "duration": 0.43075599999997394
                },
                {
                    "name": "C3",
                    "midi": 48,
                    "time": 421.92550199998607,
                    "velocity": 0.5669291338582677,
                    "duration": 0.16153350000001865
                },
                {
                    "name": "C2",
                    "midi": 36,
                    "time": 421.92550199998607,
                    "velocity": 0.47244094488188976,
                    "duration": 0.16153350000001865
                },
                {
                    "name": "F2",
                    "midi": 41,
                    "time": 421.92550199998607,
                    "velocity": 0.47244094488188976,
                    "duration": 0.16153350000001865
                },
                {
                    "name": "G#2",
                    "midi": 44,
                    "time": 421.92550199998607,
                    "velocity": 0.47244094488188976,
                    "duration": 0.16153350000001865
                },
                {
                    "name": "G2",
                    "midi": 43,
                    "time": 422.1408799999861,
                    "velocity": 0.49606299212598426,
                    "duration": 0.16153350000001865
                },
                {
                    "name": "E2",
                    "midi": 40,
                    "time": 422.1408799999861,
                    "velocity": 0.49606299212598426,
                    "duration": 0.16153350000001865
                },
                {
                    "name": "A#2",
                    "midi": 46,
                    "time": 422.1408799999861,
                    "velocity": 0.49606299212598426,
                    "duration": 0.16153350000001865
                },
                {
                    "name": "C2",
                    "midi": 36,
                    "time": 422.1408799999861,
                    "velocity": 0.41732283464566927,
                    "duration": 0.16153350000001865
                },
                {
                    "name": "C3",
                    "midi": 48,
                    "time": 422.1408799999861,
                    "velocity": 0.5984251968503937,
                    "duration": 0.16153350000001865
                },
                {
                    "name": "G2",
                    "midi": 43,
                    "time": 422.35625799998616,
                    "velocity": 0.4881889763779528,
                    "duration": 0.16153350000001865
                },
                {
                    "name": "C2",
                    "midi": 36,
                    "time": 422.35625799998616,
                    "velocity": 0.41732283464566927,
                    "duration": 0.16153350000001865
                },
                {
                    "name": "E2",
                    "midi": 40,
                    "time": 422.35625799998616,
                    "velocity": 0.4881889763779528,
                    "duration": 0.16153350000001865
                },
                {
                    "name": "A#2",
                    "midi": 46,
                    "time": 422.35625799998616,
                    "velocity": 0.4881889763779528,
                    "duration": 0.16153350000001865
                },
                {
                    "name": "C3",
                    "midi": 48,
                    "time": 422.35625799998616,
                    "velocity": 0.5826771653543307,
                    "duration": 0.16153350000001865
                },
                {
                    "name": "G2",
                    "midi": 43,
                    "time": 422.5716359999862,
                    "velocity": 0.4094488188976378,
                    "duration": 0.16153350000001865
                },
                {
                    "name": "E2",
                    "midi": 40,
                    "time": 422.5716359999862,
                    "velocity": 0.4094488188976378,
                    "duration": 0.16153350000001865
                },
                {
                    "name": "C2",
                    "midi": 36,
                    "time": 422.5716359999862,
                    "velocity": 0.4094488188976378,
                    "duration": 0.16153350000001865
                },
                {
                    "name": "A#2",
                    "midi": 46,
                    "time": 422.5716359999862,
                    "velocity": 0.4881889763779528,
                    "duration": 0.16153350000001865
                },
                {
                    "name": "C3",
                    "midi": 48,
                    "time": 422.5716359999862,
                    "velocity": 0.5984251968503937,
                    "duration": 0.16153350000001865
                },
                {
                    "name": "G2",
                    "midi": 43,
                    "time": 422.78701399998624,
                    "velocity": 0.4645669291338583,
                    "duration": 0.16153350000001865
                },
                {
                    "name": "A#2",
                    "midi": 46,
                    "time": 422.78701399998624,
                    "velocity": 0.4645669291338583,
                    "duration": 0.16153350000001865
                },
                {
                    "name": "C2",
                    "midi": 36,
                    "time": 422.78701399998624,
                    "velocity": 0.3937007874015748,
                    "duration": 0.16153350000001865
                },
                {
                    "name": "E2",
                    "midi": 40,
                    "time": 422.78701399998624,
                    "velocity": 0.4645669291338583,
                    "duration": 0.16153350000001865
                },
                {
                    "name": "C3",
                    "midi": 48,
                    "time": 422.78701399998624,
                    "velocity": 0.5590551181102362,
                    "duration": 0.16153350000001865
                },
                {
                    "name": "C2",
                    "midi": 36,
                    "time": 423.0023919999863,
                    "velocity": 0.4409448818897638,
                    "duration": 0.43075599999997394
                },
                {
                    "name": "C3",
                    "midi": 48,
                    "time": 423.0023919999863,
                    "velocity": 0.5275590551181102,
                    "duration": 0.43075599999997394
                },
                {
                    "name": "G#2",
                    "midi": 44,
                    "time": 423.0023919999863,
                    "velocity": 0.4409448818897638,
                    "duration": 0.43075599999997394
                },
                {
                    "name": "F2",
                    "midi": 41,
                    "time": 423.0023919999863,
                    "velocity": 0.4409448818897638,
                    "duration": 0.43075599999997394
                },
                {
                    "name": "C4",
                    "midi": 60,
                    "time": 423.64852599998625,
                    "velocity": 0.5669291338582677,
                    "duration": 0.16153350000001865
                },
                {
                    "name": "C3",
                    "midi": 48,
                    "time": 423.64852599998625,
                    "velocity": 0.47244094488188976,
                    "duration": 0.16153350000001865
                },
                {
                    "name": "F3",
                    "midi": 53,
                    "time": 423.64852599998625,
                    "velocity": 0.47244094488188976,
                    "duration": 0.16153350000001865
                },
                {
                    "name": "G#3",
                    "midi": 56,
                    "time": 423.64852599998625,
                    "velocity": 0.47244094488188976,
                    "duration": 0.16153350000001865
                },
                {
                    "name": "G3",
                    "midi": 55,
                    "time": 423.8639039999863,
                    "velocity": 0.49606299212598426,
                    "duration": 0.16153350000001865
                },
                {
                    "name": "E3",
                    "midi": 52,
                    "time": 423.8639039999863,
                    "velocity": 0.49606299212598426,
                    "duration": 0.16153350000001865
                },
                {
                    "name": "A#3",
                    "midi": 58,
                    "time": 423.8639039999863,
                    "velocity": 0.49606299212598426,
                    "duration": 0.16153350000001865
                },
                {
                    "name": "C3",
                    "midi": 48,
                    "time": 423.8639039999863,
                    "velocity": 0.41732283464566927,
                    "duration": 0.16153350000001865
                },
                {
                    "name": "C4",
                    "midi": 60,
                    "time": 423.8639039999863,
                    "velocity": 0.5984251968503937,
                    "duration": 0.16153350000001865
                },
                {
                    "name": "G3",
                    "midi": 55,
                    "time": 424.07928199998634,
                    "velocity": 0.4881889763779528,
                    "duration": 0.16153350000001865
                },
                {
                    "name": "C3",
                    "midi": 48,
                    "time": 424.07928199998634,
                    "velocity": 0.41732283464566927,
                    "duration": 0.16153350000001865
                },
                {
                    "name": "E3",
                    "midi": 52,
                    "time": 424.07928199998634,
                    "velocity": 0.4881889763779528,
                    "duration": 0.16153350000001865
                },
                {
                    "name": "A#3",
                    "midi": 58,
                    "time": 424.07928199998634,
                    "velocity": 0.4881889763779528,
                    "duration": 0.16153350000001865
                },
                {
                    "name": "C4",
                    "midi": 60,
                    "time": 424.07928199998634,
                    "velocity": 0.5826771653543307,
                    "duration": 0.16153350000001865
                },
                {
                    "name": "G3",
                    "midi": 55,
                    "time": 424.2946599999864,
                    "velocity": 0.4094488188976378,
                    "duration": 0.16153350000001865
                },
                {
                    "name": "E3",
                    "midi": 52,
                    "time": 424.2946599999864,
                    "velocity": 0.4094488188976378,
                    "duration": 0.16153350000001865
                },
                {
                    "name": "C3",
                    "midi": 48,
                    "time": 424.2946599999864,
                    "velocity": 0.4094488188976378,
                    "duration": 0.16153350000001865
                },
                {
                    "name": "A#3",
                    "midi": 58,
                    "time": 424.2946599999864,
                    "velocity": 0.4881889763779528,
                    "duration": 0.16153350000001865
                },
                {
                    "name": "C4",
                    "midi": 60,
                    "time": 424.2946599999864,
                    "velocity": 0.5984251968503937,
                    "duration": 0.16153350000001865
                },
                {
                    "name": "G3",
                    "midi": 55,
                    "time": 424.5100379999864,
                    "velocity": 0.4645669291338583,
                    "duration": 0.16153350000001865
                },
                {
                    "name": "A#3",
                    "midi": 58,
                    "time": 424.5100379999864,
                    "velocity": 0.4645669291338583,
                    "duration": 0.16153350000001865
                },
                {
                    "name": "C3",
                    "midi": 48,
                    "time": 424.5100379999864,
                    "velocity": 0.3937007874015748,
                    "duration": 0.16153350000001865
                },
                {
                    "name": "E3",
                    "midi": 52,
                    "time": 424.5100379999864,
                    "velocity": 0.4645669291338583,
                    "duration": 0.16153350000001865
                },
                {
                    "name": "C4",
                    "midi": 60,
                    "time": 424.5100379999864,
                    "velocity": 0.5590551181102362,
                    "duration": 0.16153350000001865
                },
                {
                    "name": "C3",
                    "midi": 48,
                    "time": 424.72541599998647,
                    "velocity": 0.4409448818897638,
                    "duration": 0.43075599999997394
                },
                {
                    "name": "C4",
                    "midi": 60,
                    "time": 424.72541599998647,
                    "velocity": 0.5275590551181102,
                    "duration": 0.43075599999997394
                },
                {
                    "name": "G#3",
                    "midi": 56,
                    "time": 424.72541599998647,
                    "velocity": 0.4409448818897638,
                    "duration": 0.43075599999997394
                },
                {
                    "name": "F3",
                    "midi": 53,
                    "time": 424.72541599998647,
                    "velocity": 0.4409448818897638,
                    "duration": 0.43075599999997394
                },
                {
                    "name": "C3",
                    "midi": 48,
                    "time": 425.3715499999864,
                    "velocity": 0.5039370078740157,
                    "duration": 0.16153350000001865
                },
                {
                    "name": "C2",
                    "midi": 36,
                    "time": 425.3715499999864,
                    "velocity": 0.4251968503937008,
                    "duration": 0.16153350000001865
                },
                {
                    "name": "F2",
                    "midi": 41,
                    "time": 425.3715499999864,
                    "velocity": 0.4251968503937008,
                    "duration": 0.16153350000001865
                },
                {
                    "name": "G#2",
                    "midi": 44,
                    "time": 425.3715499999864,
                    "velocity": 0.4251968503937008,
                    "duration": 0.16153350000001865
                },
                {
                    "name": "G2",
                    "midi": 43,
                    "time": 425.5869279999865,
                    "velocity": 0.4409448818897638,
                    "duration": 0.16153350000001865
                },
                {
                    "name": "E2",
                    "midi": 40,
                    "time": 425.5869279999865,
                    "velocity": 0.4409448818897638,
                    "duration": 0.16153350000001865
                },
                {
                    "name": "A#2",
                    "midi": 46,
                    "time": 425.5869279999865,
                    "velocity": 0.4409448818897638,
                    "duration": 0.16153350000001865
                },
                {
                    "name": "C2",
                    "midi": 36,
                    "time": 425.5869279999865,
                    "velocity": 0.3700787401574803,
                    "duration": 0.16153350000001865
                },
                {
                    "name": "C3",
                    "midi": 48,
                    "time": 425.5869279999865,
                    "velocity": 0.5354330708661418,
                    "duration": 0.16153350000001865
                },
                {
                    "name": "G2",
                    "midi": 43,
                    "time": 425.8023059999865,
                    "velocity": 0.4330708661417323,
                    "duration": 0.16153350000001865
                },
                {
                    "name": "C2",
                    "midi": 36,
                    "time": 425.8023059999865,
                    "velocity": 0.3700787401574803,
                    "duration": 0.16153350000001865
                },
                {
                    "name": "E2",
                    "midi": 40,
                    "time": 425.8023059999865,
                    "velocity": 0.4330708661417323,
                    "duration": 0.16153350000001865
                },
                {
                    "name": "A#2",
                    "midi": 46,
                    "time": 425.8023059999865,
                    "velocity": 0.4330708661417323,
                    "duration": 0.16153350000001865
                },
                {
                    "name": "C3",
                    "midi": 48,
                    "time": 425.8023059999865,
                    "velocity": 0.5196850393700787,
                    "duration": 0.16153350000001865
                },
                {
                    "name": "G2",
                    "midi": 43,
                    "time": 426.01768399998656,
                    "velocity": 0.36220472440944884,
                    "duration": 0.16153350000001865
                },
                {
                    "name": "E2",
                    "midi": 40,
                    "time": 426.01768399998656,
                    "velocity": 0.36220472440944884,
                    "duration": 0.16153350000001865
                },
                {
                    "name": "C2",
                    "midi": 36,
                    "time": 426.01768399998656,
                    "velocity": 0.36220472440944884,
                    "duration": 0.16153350000001865
                },
                {
                    "name": "A#2",
                    "midi": 46,
                    "time": 426.01768399998656,
                    "velocity": 0.4330708661417323,
                    "duration": 0.16153350000001865
                },
                {
                    "name": "C3",
                    "midi": 48,
                    "time": 426.01768399998656,
                    "velocity": 0.5354330708661418,
                    "duration": 0.16153350000001865
                },
                {
                    "name": "G2",
                    "midi": 43,
                    "time": 426.2330619999866,
                    "velocity": 0.41732283464566927,
                    "duration": 0.16153350000001865
                },
                {
                    "name": "A#2",
                    "midi": 46,
                    "time": 426.2330619999866,
                    "velocity": 0.41732283464566927,
                    "duration": 0.16153350000001865
                },
                {
                    "name": "C2",
                    "midi": 36,
                    "time": 426.2330619999866,
                    "velocity": 0.3543307086614173,
                    "duration": 0.16153350000001865
                },
                {
                    "name": "E2",
                    "midi": 40,
                    "time": 426.2330619999866,
                    "velocity": 0.41732283464566927,
                    "duration": 0.16153350000001865
                },
                {
                    "name": "C3",
                    "midi": 48,
                    "time": 426.2330619999866,
                    "velocity": 0.49606299212598426,
                    "duration": 0.16153350000001865
                },
                {
                    "name": "G2",
                    "midi": 43,
                    "time": 426.44843999998665,
                    "velocity": 0.4409448818897638,
                    "duration": 0.16153350000001865
                },
                {
                    "name": "E2",
                    "midi": 40,
                    "time": 426.44843999998665,
                    "velocity": 0.4409448818897638,
                    "duration": 0.16153350000001865
                },
                {
                    "name": "A#2",
                    "midi": 46,
                    "time": 426.44843999998665,
                    "velocity": 0.4409448818897638,
                    "duration": 0.16153350000001865
                },
                {
                    "name": "C2",
                    "midi": 36,
                    "time": 426.44843999998665,
                    "velocity": 0.3700787401574803,
                    "duration": 0.16153350000001865
                },
                {
                    "name": "C3",
                    "midi": 48,
                    "time": 426.44843999998665,
                    "velocity": 0.5354330708661418,
                    "duration": 0.16153350000001865
                },
                {
                    "name": "G2",
                    "midi": 43,
                    "time": 426.6638179999867,
                    "velocity": 0.4330708661417323,
                    "duration": 0.16153350000001865
                },
                {
                    "name": "C2",
                    "midi": 36,
                    "time": 426.6638179999867,
                    "velocity": 0.3700787401574803,
                    "duration": 0.16153350000001865
                },
                {
                    "name": "E2",
                    "midi": 40,
                    "time": 426.6638179999867,
                    "velocity": 0.4330708661417323,
                    "duration": 0.16153350000001865
                },
                {
                    "name": "A#2",
                    "midi": 46,
                    "time": 426.6638179999867,
                    "velocity": 0.4330708661417323,
                    "duration": 0.16153350000001865
                },
                {
                    "name": "C3",
                    "midi": 48,
                    "time": 426.6638179999867,
                    "velocity": 0.5196850393700787,
                    "duration": 0.16153350000001865
                },
                {
                    "name": "G2",
                    "midi": 43,
                    "time": 426.87919599998673,
                    "velocity": 0.36220472440944884,
                    "duration": 0.16153350000001865
                },
                {
                    "name": "E2",
                    "midi": 40,
                    "time": 426.87919599998673,
                    "velocity": 0.36220472440944884,
                    "duration": 0.16153350000001865
                },
                {
                    "name": "C2",
                    "midi": 36,
                    "time": 426.87919599998673,
                    "velocity": 0.36220472440944884,
                    "duration": 0.16153350000001865
                },
                {
                    "name": "A#2",
                    "midi": 46,
                    "time": 426.87919599998673,
                    "velocity": 0.4330708661417323,
                    "duration": 0.16153350000001865
                },
                {
                    "name": "C3",
                    "midi": 48,
                    "time": 426.87919599998673,
                    "velocity": 0.5354330708661418,
                    "duration": 0.16153350000001865
                },
                {
                    "name": "G2",
                    "midi": 43,
                    "time": 427.0945739999868,
                    "velocity": 0.41732283464566927,
                    "duration": 0.16153350000001865
                },
                {
                    "name": "A#2",
                    "midi": 46,
                    "time": 427.0945739999868,
                    "velocity": 0.41732283464566927,
                    "duration": 0.16153350000001865
                },
                {
                    "name": "C2",
                    "midi": 36,
                    "time": 427.0945739999868,
                    "velocity": 0.3543307086614173,
                    "duration": 0.16153350000001865
                },
                {
                    "name": "E2",
                    "midi": 40,
                    "time": 427.0945739999868,
                    "velocity": 0.41732283464566927,
                    "duration": 0.16153350000001865
                },
                {
                    "name": "C3",
                    "midi": 48,
                    "time": 427.0945739999868,
                    "velocity": 0.49606299212598426,
                    "duration": 0.16153350000001865
                },
                {
                    "name": "G2",
                    "midi": 43,
                    "time": 427.3099519999868,
                    "velocity": 0.4409448818897638,
                    "duration": 0.16153350000001865
                },
                {
                    "name": "E2",
                    "midi": 40,
                    "time": 427.3099519999868,
                    "velocity": 0.4409448818897638,
                    "duration": 0.16153350000001865
                },
                {
                    "name": "A#2",
                    "midi": 46,
                    "time": 427.3099519999868,
                    "velocity": 0.4409448818897638,
                    "duration": 0.16153350000001865
                },
                {
                    "name": "C2",
                    "midi": 36,
                    "time": 427.3099519999868,
                    "velocity": 0.3700787401574803,
                    "duration": 0.16153350000001865
                },
                {
                    "name": "C3",
                    "midi": 48,
                    "time": 427.3099519999868,
                    "velocity": 0.5354330708661418,
                    "duration": 0.16153350000001865
                },
                {
                    "name": "G2",
                    "midi": 43,
                    "time": 427.52532999998687,
                    "velocity": 0.4330708661417323,
                    "duration": 0.16153350000001865
                },
                {
                    "name": "C2",
                    "midi": 36,
                    "time": 427.52532999998687,
                    "velocity": 0.3700787401574803,
                    "duration": 0.16153350000001865
                },
                {
                    "name": "E2",
                    "midi": 40,
                    "time": 427.52532999998687,
                    "velocity": 0.4330708661417323,
                    "duration": 0.16153350000001865
                },
                {
                    "name": "A#2",
                    "midi": 46,
                    "time": 427.52532999998687,
                    "velocity": 0.4330708661417323,
                    "duration": 0.16153350000001865
                },
                {
                    "name": "C3",
                    "midi": 48,
                    "time": 427.52532999998687,
                    "velocity": 0.5196850393700787,
                    "duration": 0.16153350000001865
                },
                {
                    "name": "G2",
                    "midi": 43,
                    "time": 427.7407079999869,
                    "velocity": 0.36220472440944884,
                    "duration": 0.16153350000001865
                },
                {
                    "name": "E2",
                    "midi": 40,
                    "time": 427.7407079999869,
                    "velocity": 0.36220472440944884,
                    "duration": 0.16153350000001865
                },
                {
                    "name": "C2",
                    "midi": 36,
                    "time": 427.7407079999869,
                    "velocity": 0.36220472440944884,
                    "duration": 0.16153350000001865
                },
                {
                    "name": "A#2",
                    "midi": 46,
                    "time": 427.7407079999869,
                    "velocity": 0.4330708661417323,
                    "duration": 0.16153350000001865
                },
                {
                    "name": "C3",
                    "midi": 48,
                    "time": 427.7407079999869,
                    "velocity": 0.5354330708661418,
                    "duration": 0.16153350000001865
                },
                {
                    "name": "C3",
                    "midi": 48,
                    "time": 427.95608599998695,
                    "velocity": 0.49606299212598426,
                    "duration": 0.16153350000001865
                },
                {
                    "name": "G2",
                    "midi": 43,
                    "time": 427.95608599998695,
                    "velocity": 0.41732283464566927,
                    "duration": 0.16153350000001865
                },
                {
                    "name": "A#2",
                    "midi": 46,
                    "time": 427.95608599998695,
                    "velocity": 0.41732283464566927,
                    "duration": 0.16153350000001865
                },
                {
                    "name": "C2",
                    "midi": 36,
                    "time": 427.95608599998695,
                    "velocity": 0.3543307086614173,
                    "duration": 0.16153350000001865
                },
                {
                    "name": "E2",
                    "midi": 40,
                    "time": 427.95608599998695,
                    "velocity": 0.41732283464566927,
                    "duration": 0.16153350000001865
                },
                {
                    "name": "F1",
                    "midi": 29,
                    "time": 428.171463999987,
                    "velocity": 0.4881889763779528,
                    "duration": 0.8615120000000047
                },
                {
                    "name": "G#1",
                    "midi": 32,
                    "time": 428.171463999987,
                    "velocity": 0.4881889763779528,
                    "duration": 0.8615120000000047
                },
                {
                    "name": "C2",
                    "midi": 36,
                    "time": 428.171463999987,
                    "velocity": 0.4881889763779528,
                    "duration": 0.8615120000000047
                },
                {
                    "name": "F2",
                    "midi": 41,
                    "time": 428.171463999987,
                    "velocity": 0.5905511811023622,
                    "duration": 0.8615120000000047
                },
                {
                    "name": "F1",
                    "midi": 29,
                    "time": 429.032975999987,
                    "velocity": 0.4881889763779528,
                    "duration": 0.8615120000000047
                },
                {
                    "name": "G#1",
                    "midi": 32,
                    "time": 429.032975999987,
                    "velocity": 0.4881889763779528,
                    "duration": 0.8615120000000047
                },
                {
                    "name": "C2",
                    "midi": 36,
                    "time": 429.032975999987,
                    "velocity": 0.4881889763779528,
                    "duration": 0.8615120000000047
                },
                {
                    "name": "F2",
                    "midi": 41,
                    "time": 429.032975999987,
                    "velocity": 0.5905511811023622,
                    "duration": 0.8615120000000047
                },
                {
                    "name": "C2",
                    "midi": 36,
                    "time": 429.894487999987,
                    "velocity": 0.31496062992125984,
                    "duration": 0.10768899999999348
                },
                {
                    "name": "C3",
                    "midi": 48,
                    "time": 429.894487999987,
                    "velocity": 0.31496062992125984,
                    "duration": 0.10768899999999348
                },
                {
                    "name": "C2",
                    "midi": 36,
                    "time": 430.109865999987,
                    "velocity": 0.28346456692913385,
                    "duration": 0.10768899999999348
                },
                {
                    "name": "C2",
                    "midi": 36,
                    "time": 430.325243999987,
                    "velocity": 0.28346456692913385,
                    "duration": 0.10768899999999348
                },
                {
                    "name": "C2",
                    "midi": 36,
                    "time": 430.54062199998697,
                    "velocity": 0.28346456692913385,
                    "duration": 0.10768899999999348
                },
                {
                    "name": "F1",
                    "midi": 29,
                    "time": 430.75599999998695,
                    "velocity": 0.31496062992125984,
                    "duration": 0.10768899999999348
                },
                {
                    "name": "F2",
                    "midi": 41,
                    "time": 430.75599999998695,
                    "velocity": 0.31496062992125984,
                    "duration": 0.10768899999999348
                },
                {
                    "name": "F2",
                    "midi": 41,
                    "time": 430.97137799998694,
                    "velocity": 0.29133858267716534,
                    "duration": 0.10768899999999348
                },
                {
                    "name": "F2",
                    "midi": 41,
                    "time": 431.18675599998693,
                    "velocity": 0.29133858267716534,
                    "duration": 0.10768899999999348
                },
                {
                    "name": "F2",
                    "midi": 41,
                    "time": 431.4021339999869,
                    "velocity": 0.29133858267716534,
                    "duration": 0.10768899999999348
                },
                {
                    "name": "C2",
                    "midi": 36,
                    "time": 431.6175119999869,
                    "velocity": 0.31496062992125984,
                    "duration": 0.10768899999999348
                },
                {
                    "name": "C3",
                    "midi": 48,
                    "time": 431.6175119999869,
                    "velocity": 0.31496062992125984,
                    "duration": 0.10768899999999348
                },
                {
                    "name": "C2",
                    "midi": 36,
                    "time": 431.8328899999869,
                    "velocity": 0.28346456692913385,
                    "duration": 0.10768899999999348
                },
                {
                    "name": "C2",
                    "midi": 36,
                    "time": 432.0482679999869,
                    "velocity": 0.28346456692913385,
                    "duration": 0.10768899999999348
                },
                {
                    "name": "C2",
                    "midi": 36,
                    "time": 432.26364599998686,
                    "velocity": 0.28346456692913385,
                    "duration": 0.10768899999999348
                },
                {
                    "name": "F1",
                    "midi": 29,
                    "time": 432.47902399998685,
                    "velocity": 0.31496062992125984,
                    "duration": 0.10768899999999348
                },
                {
                    "name": "F2",
                    "midi": 41,
                    "time": 432.47902399998685,
                    "velocity": 0.31496062992125984,
                    "duration": 0.10768899999999348
                },
                {
                    "name": "F2",
                    "midi": 41,
                    "time": 432.69440199998684,
                    "velocity": 0.29133858267716534,
                    "duration": 0.10768899999999348
                },
                {
                    "name": "F2",
                    "midi": 41,
                    "time": 432.9097799999868,
                    "velocity": 0.2992125984251969,
                    "duration": 0.10768899999999348
                },
                {
                    "name": "F2",
                    "midi": 41,
                    "time": 433.1251579999868,
                    "velocity": 0.30708661417322836,
                    "duration": 0.10768899999999348
                },
                {
                    "name": "G1",
                    "midi": 31,
                    "time": 433.3405359999868,
                    "velocity": 0.3464566929133858,
                    "duration": 0.10768899999999348
                },
                {
                    "name": "G2",
                    "midi": 43,
                    "time": 433.5559139999868,
                    "velocity": 0.30708661417322836,
                    "duration": 0.10768899999999348
                },
                {
                    "name": "G1",
                    "midi": 31,
                    "time": 433.7712919999868,
                    "velocity": 0.2992125984251969,
                    "duration": 0.10768899999999348
                },
                {
                    "name": "G1",
                    "midi": 31,
                    "time": 433.98666999998676,
                    "velocity": 0.2992125984251969,
                    "duration": 0.10768899999999348
                },
                {
                    "name": "C2",
                    "midi": 36,
                    "time": 434.20204799998675,
                    "velocity": 0.3779527559055118,
                    "duration": 0.43075599999997394
                },
                {
                    "name": "C2",
                    "midi": 36,
                    "time": 434.8481819999867,
                    "velocity": 0.41732283464566927,
                    "duration": 0.053844500000025164
                },
                {
                    "name": "A#1",
                    "midi": 34,
                    "time": 434.90202649998673,
                    "velocity": 0.4330708661417323,
                    "duration": 0.053844500000025164
                },
                {
                    "name": "G#1",
                    "midi": 32,
                    "time": 434.95587099998676,
                    "velocity": 0.44881889763779526,
                    "duration": 0.053844500000025164
                },
                {
                    "name": "G1",
                    "midi": 31,
                    "time": 435.0097154999868,
                    "velocity": 0.48031496062992124,
                    "duration": 0.053844500000025164
                },
                {
                    "name": "F1",
                    "midi": 29,
                    "time": 435.0635599999868,
                    "velocity": 0.4881889763779528,
                    "duration": 0.8615120000000047
                },
                {
                    "name": "G#1",
                    "midi": 32,
                    "time": 435.0635599999868,
                    "velocity": 0.4881889763779528,
                    "duration": 0.8615120000000047
                },
                {
                    "name": "C2",
                    "midi": 36,
                    "time": 435.0635599999868,
                    "velocity": 0.4881889763779528,
                    "duration": 0.8615120000000047
                },
                {
                    "name": "F2",
                    "midi": 41,
                    "time": 435.0635599999868,
                    "velocity": 0.5905511811023622,
                    "duration": 0.8615120000000047
                },
                {
                    "name": "F1",
                    "midi": 29,
                    "time": 435.9250719999868,
                    "velocity": 0.4881889763779528,
                    "duration": 0.8615120000000047
                },
                {
                    "name": "G#1",
                    "midi": 32,
                    "time": 435.9250719999868,
                    "velocity": 0.4881889763779528,
                    "duration": 0.8615120000000047
                },
                {
                    "name": "C2",
                    "midi": 36,
                    "time": 435.9250719999868,
                    "velocity": 0.4881889763779528,
                    "duration": 0.8615120000000047
                },
                {
                    "name": "F2",
                    "midi": 41,
                    "time": 435.9250719999868,
                    "velocity": 0.5905511811023622,
                    "duration": 0.8615120000000047
                },
                {
                    "name": "C2",
                    "midi": 36,
                    "time": 436.7865839999868,
                    "velocity": 0.31496062992125984,
                    "duration": 0.10768899999999348
                },
                {
                    "name": "C3",
                    "midi": 48,
                    "time": 436.7865839999868,
                    "velocity": 0.31496062992125984,
                    "duration": 0.10768899999999348
                },
                {
                    "name": "C2",
                    "midi": 36,
                    "time": 437.0019619999868,
                    "velocity": 0.28346456692913385,
                    "duration": 0.10768899999999348
                },
                {
                    "name": "C2",
                    "midi": 36,
                    "time": 437.2173399999868,
                    "velocity": 0.28346456692913385,
                    "duration": 0.10768899999999348
                },
                {
                    "name": "C2",
                    "midi": 36,
                    "time": 437.4327179999868,
                    "velocity": 0.28346456692913385,
                    "duration": 0.10768899999999348
                },
                {
                    "name": "F1",
                    "midi": 29,
                    "time": 437.64809599998677,
                    "velocity": 0.31496062992125984,
                    "duration": 0.10768899999999348
                },
                {
                    "name": "F2",
                    "midi": 41,
                    "time": 437.64809599998677,
                    "velocity": 0.31496062992125984,
                    "duration": 0.10768899999999348
                },
                {
                    "name": "F2",
                    "midi": 41,
                    "time": 437.86347399998675,
                    "velocity": 0.29133858267716534,
                    "duration": 0.10768899999999348
                },
                {
                    "name": "F2",
                    "midi": 41,
                    "time": 438.07885199998674,
                    "velocity": 0.29133858267716534,
                    "duration": 0.10768899999999348
                },
                {
                    "name": "F2",
                    "midi": 41,
                    "time": 438.2942299999867,
                    "velocity": 0.29133858267716534,
                    "duration": 0.10768899999999348
                },
                {
                    "name": "C2",
                    "midi": 36,
                    "time": 438.5096079999867,
                    "velocity": 0.31496062992125984,
                    "duration": 0.10768899999999348
                },
                {
                    "name": "C3",
                    "midi": 48,
                    "time": 438.5096079999867,
                    "velocity": 0.31496062992125984,
                    "duration": 0.10768899999999348
                },
                {
                    "name": "C2",
                    "midi": 36,
                    "time": 438.7249859999867,
                    "velocity": 0.28346456692913385,
                    "duration": 0.10768899999999348
                },
                {
                    "name": "C2",
                    "midi": 36,
                    "time": 438.9403639999867,
                    "velocity": 0.28346456692913385,
                    "duration": 0.10768899999999348
                },
                {
                    "name": "C2",
                    "midi": 36,
                    "time": 439.1557419999867,
                    "velocity": 0.28346456692913385,
                    "duration": 0.10768899999999348
                },
                {
                    "name": "F1",
                    "midi": 29,
                    "time": 439.37111999998666,
                    "velocity": 0.31496062992125984,
                    "duration": 0.10768899999999348
                },
                {
                    "name": "F2",
                    "midi": 41,
                    "time": 439.37111999998666,
                    "velocity": 0.31496062992125984,
                    "duration": 0.10768899999999348
                },
                {
                    "name": "F2",
                    "midi": 41,
                    "time": 439.58649799998665,
                    "velocity": 0.29133858267716534,
                    "duration": 0.10768899999999348
                },
                {
                    "name": "F2",
                    "midi": 41,
                    "time": 439.80187599998663,
                    "velocity": 0.2992125984251969,
                    "duration": 0.10768899999999348
                },
                {
                    "name": "F2",
                    "midi": 41,
                    "time": 440.0172539999866,
                    "velocity": 0.30708661417322836,
                    "duration": 0.10768899999999348
                },
                {
                    "name": "G1",
                    "midi": 31,
                    "time": 440.2326319999866,
                    "velocity": 0.3464566929133858,
                    "duration": 0.10768899999999348
                },
                {
                    "name": "G2",
                    "midi": 43,
                    "time": 440.4480099999866,
                    "velocity": 0.30708661417322836,
                    "duration": 0.10768899999999348
                },
                {
                    "name": "G1",
                    "midi": 31,
                    "time": 440.6633879999866,
                    "velocity": 0.2992125984251969,
                    "duration": 0.10768899999999348
                },
                {
                    "name": "G1",
                    "midi": 31,
                    "time": 440.87876599998657,
                    "velocity": 0.2992125984251969,
                    "duration": 0.10768899999999348
                },
                {
                    "name": "C2",
                    "midi": 36,
                    "time": 441.09414399998656,
                    "velocity": 0.3779527559055118,
                    "duration": 0.43075599999997394
                },
                {
                    "name": "D#2",
                    "midi": 39,
                    "time": 441.7402779999865,
                    "velocity": 0.49606299212598426,
                    "duration": 0.07179266666668127
                },
                {
                    "name": "F2",
                    "midi": 41,
                    "time": 441.8120706666532,
                    "velocity": 0.5196850393700787,
                    "duration": 0.07179266666668127
                },
                {
                    "name": "G2",
                    "midi": 43,
                    "time": 441.8838633333199,
                    "velocity": 0.5354330708661418,
                    "duration": 0.07179266666668127
                },
                {
                    "name": "G#1",
                    "midi": 32,
                    "time": 441.95565599998656,
                    "velocity": 0.4881889763779528,
                    "duration": 0.8615120000000047
                },
                {
                    "name": "C2",
                    "midi": 36,
                    "time": 441.95565599998656,
                    "velocity": 0.4881889763779528,
                    "duration": 0.8615120000000047
                },
                {
                    "name": "D#2",
                    "midi": 39,
                    "time": 441.95565599998656,
                    "velocity": 0.4881889763779528,
                    "duration": 0.8615120000000047
                },
                {
                    "name": "G#2",
                    "midi": 44,
                    "time": 441.95565599998656,
                    "velocity": 0.5905511811023622,
                    "duration": 0.8615120000000047
                },
                {
                    "name": "G#1",
                    "midi": 32,
                    "time": 442.81716799998657,
                    "velocity": 0.4881889763779528,
                    "duration": 0.8615120000000047
                },
                {
                    "name": "C2",
                    "midi": 36,
                    "time": 442.81716799998657,
                    "velocity": 0.4881889763779528,
                    "duration": 0.8615120000000047
                },
                {
                    "name": "D#2",
                    "midi": 39,
                    "time": 442.81716799998657,
                    "velocity": 0.4881889763779528,
                    "duration": 0.8615120000000047
                },
                {
                    "name": "G#2",
                    "midi": 44,
                    "time": 442.81716799998657,
                    "velocity": 0.5905511811023622,
                    "duration": 0.8615120000000047
                },
                {
                    "name": "D#2",
                    "midi": 39,
                    "time": 443.67867999998657,
                    "velocity": 0.31496062992125984,
                    "duration": 0.10768899999999348
                },
                {
                    "name": "D#3",
                    "midi": 51,
                    "time": 443.67867999998657,
                    "velocity": 0.31496062992125984,
                    "duration": 0.10768899999999348
                },
                {
                    "name": "D#2",
                    "midi": 39,
                    "time": 443.89405799998656,
                    "velocity": 0.28346456692913385,
                    "duration": 0.10768899999999348
                },
                {
                    "name": "D#2",
                    "midi": 39,
                    "time": 444.10943599998654,
                    "velocity": 0.28346456692913385,
                    "duration": 0.10768899999999348
                },
                {
                    "name": "D#2",
                    "midi": 39,
                    "time": 444.32481399998653,
                    "velocity": 0.28346456692913385,
                    "duration": 0.10768899999999348
                },
                {
                    "name": "G#1",
                    "midi": 32,
                    "time": 444.5401919999865,
                    "velocity": 0.31496062992125984,
                    "duration": 0.10768899999999348
                },
                {
                    "name": "G#2",
                    "midi": 44,
                    "time": 444.5401919999865,
                    "velocity": 0.31496062992125984,
                    "duration": 0.10768899999999348
                },
                {
                    "name": "G#2",
                    "midi": 44,
                    "time": 444.7555699999865,
                    "velocity": 0.29133858267716534,
                    "duration": 0.10768899999999348
                },
                {
                    "name": "G#2",
                    "midi": 44,
                    "time": 444.9709479999865,
                    "velocity": 0.29133858267716534,
                    "duration": 0.10768899999999348
                },
                {
                    "name": "G#2",
                    "midi": 44,
                    "time": 445.1863259999865,
                    "velocity": 0.29133858267716534,
                    "duration": 0.10768899999999348
                },
                {
                    "name": "D#2",
                    "midi": 39,
                    "time": 445.40170399998647,
                    "velocity": 0.31496062992125984,
                    "duration": 0.10768899999999348
                },
                {
                    "name": "D#3",
                    "midi": 51,
                    "time": 445.40170399998647,
                    "velocity": 0.31496062992125984,
                    "duration": 0.10768899999999348
                },
                {
                    "name": "D#2",
                    "midi": 39,
                    "time": 445.61708199998645,
                    "velocity": 0.28346456692913385,
                    "duration": 0.10768899999999348
                },
                {
                    "name": "D#2",
                    "midi": 39,
                    "time": 445.83245999998644,
                    "velocity": 0.28346456692913385,
                    "duration": 0.10768899999999348
                },
                {
                    "name": "D#2",
                    "midi": 39,
                    "time": 446.0478379999864,
                    "velocity": 0.28346456692913385,
                    "duration": 0.10768899999999348
                },
                {
                    "name": "G#1",
                    "midi": 32,
                    "time": 446.2632159999864,
                    "velocity": 0.31496062992125984,
                    "duration": 0.10768899999999348
                },
                {
                    "name": "G#2",
                    "midi": 44,
                    "time": 446.2632159999864,
                    "velocity": 0.31496062992125984,
                    "duration": 0.10768899999999348
                },
                {
                    "name": "G#2",
                    "midi": 44,
                    "time": 446.4785939999864,
                    "velocity": 0.29133858267716534,
                    "duration": 0.10768899999999348
                },
                {
                    "name": "G#2",
                    "midi": 44,
                    "time": 446.6939719999864,
                    "velocity": 0.29133858267716534,
                    "duration": 0.10768899999999348
                },
                {
                    "name": "G#2",
                    "midi": 44,
                    "time": 446.9093499999864,
                    "velocity": 0.29133858267716534,
                    "duration": 0.10768899999999348
                },
                {
                    "name": "F1",
                    "midi": 29,
                    "time": 447.12472799998636,
                    "velocity": 0.33070866141732286,
                    "duration": 0.10768899999999348
                },
                {
                    "name": "F2",
                    "midi": 41,
                    "time": 447.12472799998636,
                    "velocity": 0.33070866141732286,
                    "duration": 0.10768899999999348
                },
                {
                    "name": "F1",
                    "midi": 29,
                    "time": 447.34010599998635,
                    "velocity": 0.29133858267716534,
                    "duration": 0.10768899999999348
                },
                {
                    "name": "F1",
                    "midi": 29,
                    "time": 447.55548399998634,
                    "velocity": 0.2992125984251969,
                    "duration": 0.10768899999999348
                },
                {
                    "name": "F1",
                    "midi": 29,
                    "time": 447.7708619999863,
                    "velocity": 0.2992125984251969,
                    "duration": 0.10768899999999348
                },
                {
                    "name": "A#1",
                    "midi": 34,
                    "time": 447.9862399999863,
                    "velocity": 0.33858267716535434,
                    "duration": 0.10768899999999348
                },
                {
                    "name": "A#2",
                    "midi": 46,
                    "time": 447.9862399999863,
                    "velocity": 0.33858267716535434,
                    "duration": 0.10768899999999348
                },
                {
                    "name": "A#2",
                    "midi": 46,
                    "time": 448.2016179999863,
                    "velocity": 0.31496062992125984,
                    "duration": 0.10768899999999348
                },
                {
                    "name": "A#2",
                    "midi": 46,
                    "time": 448.4169959999863,
                    "velocity": 0.33070866141732286,
                    "duration": 0.10768899999999348
                },
                {
                    "name": "A#2",
                    "midi": 46,
                    "time": 448.63237399998627,
                    "velocity": 0.33070866141732286,
                    "duration": 0.10768899999999348
                },
                {
                    "name": "C2",
                    "midi": 36,
                    "time": 448.84775199998626,
                    "velocity": 0.3779527559055118,
                    "duration": 0.10768899999999348
                },
                {
                    "name": "C3",
                    "midi": 48,
                    "time": 449.06312999998624,
                    "velocity": 0.33858267716535434,
                    "duration": 0.10768899999999348
                },
                {
                    "name": "C2",
                    "midi": 36,
                    "time": 449.27850799998623,
                    "velocity": 0.33070866141732286,
                    "duration": 0.10768899999999348
                },
                {
                    "name": "C2",
                    "midi": 36,
                    "time": 449.4938859999862,
                    "velocity": 0.33070866141732286,
                    "duration": 0.10768899999999348
                },
                {
                    "name": "F1",
                    "midi": 29,
                    "time": 449.7092639999862,
                    "velocity": 0.3779527559055118,
                    "duration": 0.43075599999997394
                },
                {
                    "name": "F2",
                    "midi": 41,
                    "time": 449.7092639999862,
                    "velocity": 0.3779527559055118,
                    "duration": 0.43075599999997394
                },
                {
                    "name": "D#2",
                    "midi": 39,
                    "time": 450.35539799998617,
                    "velocity": 0.49606299212598426,
                    "duration": 0.07179266666668127
                },
                {
                    "name": "F2",
                    "midi": 41,
                    "time": 450.42719066665285,
                    "velocity": 0.5196850393700787,
                    "duration": 0.07179266666668127
                },
                {
                    "name": "G2",
                    "midi": 43,
                    "time": 450.49898333331953,
                    "velocity": 0.5354330708661418,
                    "duration": 0.07179266666668127
                },
                {
                    "name": "G#1",
                    "midi": 32,
                    "time": 450.5707759999862,
                    "velocity": 0.4881889763779528,
                    "duration": 0.8615120000000047
                },
                {
                    "name": "C2",
                    "midi": 36,
                    "time": 450.5707759999862,
                    "velocity": 0.4881889763779528,
                    "duration": 0.8615120000000047
                },
                {
                    "name": "D#2",
                    "midi": 39,
                    "time": 450.5707759999862,
                    "velocity": 0.4881889763779528,
                    "duration": 0.8615120000000047
                },
                {
                    "name": "G#2",
                    "midi": 44,
                    "time": 450.5707759999862,
                    "velocity": 0.5905511811023622,
                    "duration": 0.8615120000000047
                },
                {
                    "name": "G#1",
                    "midi": 32,
                    "time": 451.4322879999862,
                    "velocity": 0.4881889763779528,
                    "duration": 0.8615120000000047
                },
                {
                    "name": "C2",
                    "midi": 36,
                    "time": 451.4322879999862,
                    "velocity": 0.4881889763779528,
                    "duration": 0.8615120000000047
                },
                {
                    "name": "D#2",
                    "midi": 39,
                    "time": 451.4322879999862,
                    "velocity": 0.4881889763779528,
                    "duration": 0.8615120000000047
                },
                {
                    "name": "G#2",
                    "midi": 44,
                    "time": 451.4322879999862,
                    "velocity": 0.5905511811023622,
                    "duration": 0.8615120000000047
                },
                {
                    "name": "D#2",
                    "midi": 39,
                    "time": 452.2937999999862,
                    "velocity": 0.31496062992125984,
                    "duration": 0.10768899999999348
                },
                {
                    "name": "D#3",
                    "midi": 51,
                    "time": 452.2937999999862,
                    "velocity": 0.31496062992125984,
                    "duration": 0.10768899999999348
                },
                {
                    "name": "D#2",
                    "midi": 39,
                    "time": 452.5091779999862,
                    "velocity": 0.28346456692913385,
                    "duration": 0.10768899999999348
                },
                {
                    "name": "D#2",
                    "midi": 39,
                    "time": 452.7245559999862,
                    "velocity": 0.28346456692913385,
                    "duration": 0.10768899999999348
                },
                {
                    "name": "D#2",
                    "midi": 39,
                    "time": 452.9399339999862,
                    "velocity": 0.28346456692913385,
                    "duration": 0.10768899999999348
                },
                {
                    "name": "G#1",
                    "midi": 32,
                    "time": 453.15531199998617,
                    "velocity": 0.31496062992125984,
                    "duration": 0.10768899999999348
                },
                {
                    "name": "G#2",
                    "midi": 44,
                    "time": 453.15531199998617,
                    "velocity": 0.31496062992125984,
                    "duration": 0.10768899999999348
                },
                {
                    "name": "G#2",
                    "midi": 44,
                    "time": 453.37068999998615,
                    "velocity": 0.29133858267716534,
                    "duration": 0.10768899999999348
                },
                {
                    "name": "G#2",
                    "midi": 44,
                    "time": 453.58606799998614,
                    "velocity": 0.29133858267716534,
                    "duration": 0.10768899999999348
                },
                {
                    "name": "G#2",
                    "midi": 44,
                    "time": 453.80144599998613,
                    "velocity": 0.29133858267716534,
                    "duration": 0.10768899999999348
                },
                {
                    "name": "D#2",
                    "midi": 39,
                    "time": 454.0168239999861,
                    "velocity": 0.31496062992125984,
                    "duration": 0.10768899999999348
                },
                {
                    "name": "D#3",
                    "midi": 51,
                    "time": 454.0168239999861,
                    "velocity": 0.31496062992125984,
                    "duration": 0.10768899999999348
                },
                {
                    "name": "D#2",
                    "midi": 39,
                    "time": 454.2322019999861,
                    "velocity": 0.28346456692913385,
                    "duration": 0.10768899999999348
                },
                {
                    "name": "D#2",
                    "midi": 39,
                    "time": 454.4475799999861,
                    "velocity": 0.28346456692913385,
                    "duration": 0.10768899999999348
                },
                {
                    "name": "D#2",
                    "midi": 39,
                    "time": 454.6629579999861,
                    "velocity": 0.28346456692913385,
                    "duration": 0.10768899999999348
                },
                {
                    "name": "G#1",
                    "midi": 32,
                    "time": 454.87833599998606,
                    "velocity": 0.31496062992125984,
                    "duration": 0.10768899999999348
                },
                {
                    "name": "G#2",
                    "midi": 44,
                    "time": 454.87833599998606,
                    "velocity": 0.31496062992125984,
                    "duration": 0.10768899999999348
                },
                {
                    "name": "G#2",
                    "midi": 44,
                    "time": 455.09371399998605,
                    "velocity": 0.29133858267716534,
                    "duration": 0.10768899999999348
                },
                {
                    "name": "G#2",
                    "midi": 44,
                    "time": 455.30909199998604,
                    "velocity": 0.29133858267716534,
                    "duration": 0.10768899999999348
                },
                {
                    "name": "G#2",
                    "midi": 44,
                    "time": 455.524469999986,
                    "velocity": 0.29133858267716534,
                    "duration": 0.10768899999999348
                },
                {
                    "name": "F1",
                    "midi": 29,
                    "time": 455.739847999986,
                    "velocity": 0.33070866141732286,
                    "duration": 0.10768899999999348
                },
                {
                    "name": "F2",
                    "midi": 41,
                    "time": 455.739847999986,
                    "velocity": 0.33070866141732286,
                    "duration": 0.10768899999999348
                },
                {
                    "name": "F1",
                    "midi": 29,
                    "time": 455.955225999986,
                    "velocity": 0.29133858267716534,
                    "duration": 0.10768899999999348
                },
                {
                    "name": "F1",
                    "midi": 29,
                    "time": 456.170603999986,
                    "velocity": 0.2992125984251969,
                    "duration": 0.10768899999999348
                },
                {
                    "name": "F1",
                    "midi": 29,
                    "time": 456.385981999986,
                    "velocity": 0.2992125984251969,
                    "duration": 0.10768899999999348
                },
                {
                    "name": "A#1",
                    "midi": 34,
                    "time": 456.60135999998596,
                    "velocity": 0.33858267716535434,
                    "duration": 0.10768899999999348
                },
                {
                    "name": "A#2",
                    "midi": 46,
                    "time": 456.60135999998596,
                    "velocity": 0.33858267716535434,
                    "duration": 0.10768899999999348
                },
                {
                    "name": "A#2",
                    "midi": 46,
                    "time": 456.81673799998595,
                    "velocity": 0.31496062992125984,
                    "duration": 0.10768899999999348
                },
                {
                    "name": "A#2",
                    "midi": 46,
                    "time": 457.03211599998593,
                    "velocity": 0.33070866141732286,
                    "duration": 0.10768899999999348
                },
                {
                    "name": "A#2",
                    "midi": 46,
                    "time": 457.2474939999859,
                    "velocity": 0.33070866141732286,
                    "duration": 0.10768899999999348
                },
                {
                    "name": "C2",
                    "midi": 36,
                    "time": 457.4628719999859,
                    "velocity": 0.3779527559055118,
                    "duration": 0.10768899999999348
                },
                {
                    "name": "C3",
                    "midi": 48,
                    "time": 457.6782499999859,
                    "velocity": 0.33858267716535434,
                    "duration": 0.10768899999999348
                },
                {
                    "name": "C2",
                    "midi": 36,
                    "time": 457.8936279999859,
                    "velocity": 0.33070866141732286,
                    "duration": 0.10768899999999348
                },
                {
                    "name": "C2",
                    "midi": 36,
                    "time": 458.10900599998587,
                    "velocity": 0.33070866141732286,
                    "duration": 0.10768899999999348
                },
                {
                    "name": "F1",
                    "midi": 29,
                    "time": 458.32438399998586,
                    "velocity": 0.4251968503937008,
                    "duration": 0.10768899999999348
                },
                {
                    "name": "F2",
                    "midi": 41,
                    "time": 458.32438399998586,
                    "velocity": 0.4251968503937008,
                    "duration": 0.10768899999999348
                },
                {
                    "name": "F2",
                    "midi": 41,
                    "time": 458.43207299998585,
                    "velocity": 0.3543307086614173,
                    "duration": 0.8615120000000047
                },
                {
                    "name": "G#2",
                    "midi": 44,
                    "time": 458.53976199998584,
                    "velocity": 0.3858267716535433,
                    "duration": 0.7538230000000112
                },
                {
                    "name": "C3",
                    "midi": 48,
                    "time": 458.64745099998584,
                    "velocity": 0.4094488188976378,
                    "duration": 0.6461340000000177
                },
                {
                    "name": "F3",
                    "midi": 53,
                    "time": 458.75513999998583,
                    "velocity": 0.5275590551181102,
                    "duration": 0.5384450000000243
                },
                {
                    "name": "F2",
                    "midi": 41,
                    "time": 459.29358499998585,
                    "velocity": 0.3543307086614173,
                    "duration": 0.8615120000000047
                },
                {
                    "name": "G#2",
                    "midi": 44,
                    "time": 459.40127399998585,
                    "velocity": 0.3858267716535433,
                    "duration": 0.7538230000000112
                },
                {
                    "name": "C3",
                    "midi": 48,
                    "time": 459.50896299998584,
                    "velocity": 0.4094488188976378,
                    "duration": 0.6461340000000177
                },
                {
                    "name": "F3",
                    "midi": 53,
                    "time": 459.61665199998583,
                    "velocity": 0.5275590551181102,
                    "duration": 0.5384450000000243
                },
                {
                    "name": "F2",
                    "midi": 41,
                    "time": 460.15509699998586,
                    "velocity": 0.3543307086614173,
                    "duration": 0.8615120000000047
                },
                {
                    "name": "G#2",
                    "midi": 44,
                    "time": 460.26278599998585,
                    "velocity": 0.3858267716535433,
                    "duration": 0.7538230000000112
                },
                {
                    "name": "C3",
                    "midi": 48,
                    "time": 460.37047499998584,
                    "velocity": 0.4094488188976378,
                    "duration": 0.6461340000000177
                },
                {
                    "name": "F3",
                    "midi": 53,
                    "time": 460.47816399998584,
                    "velocity": 0.5275590551181102,
                    "duration": 0.5384450000000243
                },
                {
                    "name": "F2",
                    "midi": 41,
                    "time": 461.01660899998586,
                    "velocity": 0.3543307086614173,
                    "duration": 0.7538229999999544
                },
                {
                    "name": "G#2",
                    "midi": 44,
                    "time": 461.12429799998586,
                    "velocity": 0.3858267716535433,
                    "duration": 0.6461339999999609
                },
                {
                    "name": "C3",
                    "midi": 48,
                    "time": 461.23198699998585,
                    "velocity": 0.4094488188976378,
                    "duration": 0.5384449999999674
                },
                {
                    "name": "F3",
                    "midi": 53,
                    "time": 461.33967599998584,
                    "velocity": 0.5275590551181102,
                    "duration": 0.43075599999997394
                },
                {
                    "name": "A#2",
                    "midi": 46,
                    "time": 461.8781209999858,
                    "velocity": 0.3543307086614173,
                    "duration": 0.8615120000000047
                },
                {
                    "name": "C#3",
                    "midi": 49,
                    "time": 461.9858099999858,
                    "velocity": 0.3858267716535433,
                    "duration": 0.7538230000000112
                },
                {
                    "name": "F#3",
                    "midi": 54,
                    "time": 462.0934989999858,
                    "velocity": 0.4094488188976378,
                    "duration": 0.6461340000000177
                },
                {
                    "name": "A#3",
                    "midi": 58,
                    "time": 462.2011879999858,
                    "velocity": 0.5275590551181102,
                    "duration": 0.5384450000000243
                },
                {
                    "name": "A#2",
                    "midi": 46,
                    "time": 462.7396329999858,
                    "velocity": 0.3543307086614173,
                    "duration": 0.7538229999999544
                },
                {
                    "name": "C#3",
                    "midi": 49,
                    "time": 462.8473219999858,
                    "velocity": 0.3858267716535433,
                    "duration": 0.6461339999999609
                },
                {
                    "name": "F#3",
                    "midi": 54,
                    "time": 462.9550109999858,
                    "velocity": 0.4094488188976378,
                    "duration": 0.5384449999999674
                },
                {
                    "name": "A#3",
                    "midi": 58,
                    "time": 463.0626999999858,
                    "velocity": 0.5275590551181102,
                    "duration": 0.43075599999997394
                },
                {
                    "name": "C3",
                    "midi": 48,
                    "time": 463.60114499998576,
                    "velocity": 0.3543307086614173,
                    "duration": 0.8615120000000047
                },
                {
                    "name": "G3",
                    "midi": 55,
                    "time": 463.70883399998576,
                    "velocity": 0.3858267716535433,
                    "duration": 0.7538230000000112
                },
                {
                    "name": "A#3",
                    "midi": 58,
                    "time": 463.81652299998575,
                    "velocity": 0.4094488188976378,
                    "duration": 0.6461340000000177
                },
                {
                    "name": "C4",
                    "midi": 60,
                    "time": 463.92421199998574,
                    "velocity": 0.5275590551181102,
                    "duration": 0.5384450000000243
                },
                {
                    "name": "C3",
                    "midi": 48,
                    "time": 464.46265699998577,
                    "velocity": 0.3543307086614173,
                    "duration": 0.7538229999999544
                },
                {
                    "name": "G3",
                    "midi": 55,
                    "time": 464.57034599998576,
                    "velocity": 0.3858267716535433,
                    "duration": 0.6461339999999609
                },
                {
                    "name": "A#3",
                    "midi": 58,
                    "time": 464.67803499998575,
                    "velocity": 0.4094488188976378,
                    "duration": 0.5384449999999674
                },
                {
                    "name": "C4",
                    "midi": 60,
                    "time": 464.78572399998575,
                    "velocity": 0.5275590551181102,
                    "duration": 0.43075599999997394
                },
                {
                    "name": "F2",
                    "midi": 41,
                    "time": 465.2164799999857,
                    "velocity": 0.4409448818897638,
                    "duration": 0.10768899999999348
                },
                {
                    "name": "F3",
                    "midi": 53,
                    "time": 465.2164799999857,
                    "velocity": 0.4409448818897638,
                    "duration": 0.10768899999999348
                },
                {
                    "name": "F3",
                    "midi": 53,
                    "time": 465.3241689999857,
                    "velocity": 0.3700787401574803,
                    "duration": 0.8615120000000047
                },
                {
                    "name": "G#3",
                    "midi": 56,
                    "time": 465.4318579999857,
                    "velocity": 0.4015748031496063,
                    "duration": 0.7538230000000112
                },
                {
                    "name": "C4",
                    "midi": 60,
                    "time": 465.5395469999857,
                    "velocity": 0.4251968503937008,
                    "duration": 0.6461340000000177
                },
                {
                    "name": "F4",
                    "midi": 65,
                    "time": 465.6472359999857,
                    "velocity": 0.5590551181102362,
                    "duration": 0.5384450000000243
                },
                {
                    "name": "F3",
                    "midi": 53,
                    "time": 466.1856809999857,
                    "velocity": 0.3700787401574803,
                    "duration": 0.8615120000000047
                },
                {
                    "name": "G#3",
                    "midi": 56,
                    "time": 466.2933699999857,
                    "velocity": 0.4015748031496063,
                    "duration": 0.7538230000000112
                },
                {
                    "name": "C4",
                    "midi": 60,
                    "time": 466.4010589999857,
                    "velocity": 0.4251968503937008,
                    "duration": 0.6461340000000177
                },
                {
                    "name": "F4",
                    "midi": 65,
                    "time": 466.5087479999857,
                    "velocity": 0.5590551181102362,
                    "duration": 0.5384450000000243
                },
                {
                    "name": "F3",
                    "midi": 53,
                    "time": 467.0471929999857,
                    "velocity": 0.3700787401574803,
                    "duration": 0.8615120000000047
                },
                {
                    "name": "G#3",
                    "midi": 56,
                    "time": 467.1548819999857,
                    "velocity": 0.4015748031496063,
                    "duration": 0.7538230000000112
                },
                {
                    "name": "C4",
                    "midi": 60,
                    "time": 467.2625709999857,
                    "velocity": 0.4251968503937008,
                    "duration": 0.6461340000000177
                },
                {
                    "name": "F4",
                    "midi": 65,
                    "time": 467.3702599999857,
                    "velocity": 0.5590551181102362,
                    "duration": 0.5384450000000243
                },
                {
                    "name": "F3",
                    "midi": 53,
                    "time": 467.90870499998573,
                    "velocity": 0.3700787401574803,
                    "duration": 0.7538229999999544
                },
                {
                    "name": "G#3",
                    "midi": 56,
                    "time": 468.0163939999857,
                    "velocity": 0.4015748031496063,
                    "duration": 0.6461339999999609
                },
                {
                    "name": "C4",
                    "midi": 60,
                    "time": 468.1240829999857,
                    "velocity": 0.4251968503937008,
                    "duration": 0.5384449999999674
                },
                {
                    "name": "F4",
                    "midi": 65,
                    "time": 468.2317719999857,
                    "velocity": 0.5590551181102362,
                    "duration": 0.43075599999997394
                },
                {
                    "name": "A#3",
                    "midi": 58,
                    "time": 468.7702169999857,
                    "velocity": 0.3700787401574803,
                    "duration": 0.8615120000000047
                },
                {
                    "name": "C#4",
                    "midi": 61,
                    "time": 468.87790599998567,
                    "velocity": 0.4015748031496063,
                    "duration": 0.7538230000000112
                },
                {
                    "name": "F#4",
                    "midi": 66,
                    "time": 468.98559499998566,
                    "velocity": 0.4251968503937008,
                    "duration": 0.6461340000000177
                },
                {
                    "name": "A#4",
                    "midi": 70,
                    "time": 469.09328399998566,
                    "velocity": 0.5590551181102362,
                    "duration": 0.5384450000000243
                },
                {
                    "name": "A#3",
                    "midi": 58,
                    "time": 469.6317289999857,
                    "velocity": 0.3700787401574803,
                    "duration": 0.7538229999999544
                },
                {
                    "name": "C#4",
                    "midi": 61,
                    "time": 469.7394179999857,
                    "velocity": 0.4015748031496063,
                    "duration": 0.6461339999999609
                },
                {
                    "name": "F#4",
                    "midi": 66,
                    "time": 469.84710699998567,
                    "velocity": 0.4251968503937008,
                    "duration": 0.5384449999999674
                },
                {
                    "name": "A#4",
                    "midi": 70,
                    "time": 469.95479599998566,
                    "velocity": 0.5590551181102362,
                    "duration": 0.43075599999997394
                },
                {
                    "name": "C4",
                    "midi": 60,
                    "time": 470.49324099998563,
                    "velocity": 0.3700787401574803,
                    "duration": 0.8615120000000047
                },
                {
                    "name": "E4",
                    "midi": 64,
                    "time": 470.6009299999856,
                    "velocity": 0.4015748031496063,
                    "duration": 0.7538230000000112
                },
                {
                    "name": "G4",
                    "midi": 67,
                    "time": 470.7086189999856,
                    "velocity": 0.4251968503937008,
                    "duration": 0.6461340000000177
                },
                {
                    "name": "C5",
                    "midi": 72,
                    "time": 470.8163079999856,
                    "velocity": 0.5590551181102362,
                    "duration": 0.5384450000000243
                },
                {
                    "name": "C3",
                    "midi": 48,
                    "time": 471.35475299998564,
                    "velocity": 0.3700787401574803,
                    "duration": 0.7538229999999544
                },
                {
                    "name": "E3",
                    "midi": 52,
                    "time": 471.46244199998563,
                    "velocity": 0.4015748031496063,
                    "duration": 0.6461339999999609
                },
                {
                    "name": "G3",
                    "midi": 55,
                    "time": 471.5701309999856,
                    "velocity": 0.4251968503937008,
                    "duration": 0.5384449999999674
                },
                {
                    "name": "C4",
                    "midi": 60,
                    "time": 471.6778199999856,
                    "velocity": 0.5748031496062992,
                    "duration": 0.43075599999997394
                },
                {
                    "name": "F2",
                    "midi": 41,
                    "time": 472.1085759999856,
                    "velocity": 0.6062992125984252,
                    "duration": 0.10768899999999348
                },
                {
                    "name": "F3",
                    "midi": 53,
                    "time": 472.1085759999856,
                    "velocity": 0.6062992125984252,
                    "duration": 0.10768899999999348
                },
                {
                    "name": "C5",
                    "midi": 72,
                    "time": 472.7547099999856,
                    "velocity": 0.5590551181102362,
                    "duration": 0.8615120000000047
                },
                {
                    "name": "F5",
                    "midi": 77,
                    "time": 472.8623989999856,
                    "velocity": 0.5826771653543307,
                    "duration": 0.7538230000000112
                },
                {
                    "name": "G#5",
                    "midi": 80,
                    "time": 472.9700879999856,
                    "velocity": 0.7007874015748031,
                    "duration": 0.6461340000000177
                },
                {
                    "name": "C4",
                    "midi": 60,
                    "time": 473.6162219999856,
                    "velocity": 0.5275590551181102,
                    "duration": 0.21537799999998697
                },
                {
                    "name": "F4",
                    "midi": 65,
                    "time": 473.8315999999856,
                    "velocity": 0.6456692913385826,
                    "duration": 0.21537799999998697
                },
                {
                    "name": "C5",
                    "midi": 72,
                    "time": 474.47773399998556,
                    "velocity": 0.5590551181102362,
                    "duration": 0.8615120000000047
                },
                {
                    "name": "F5",
                    "midi": 77,
                    "time": 474.58542299998555,
                    "velocity": 0.5826771653543307,
                    "duration": 0.7538230000000112
                },
                {
                    "name": "G#5",
                    "midi": 80,
                    "time": 474.69311199998555,
                    "velocity": 0.6850393700787402,
                    "duration": 0.6461340000000177
                },
                {
                    "name": "C4",
                    "midi": 60,
                    "time": 475.33924599998556,
                    "velocity": 0.5275590551181102,
                    "duration": 0.21537799999998697
                },
                {
                    "name": "F4",
                    "midi": 65,
                    "time": 475.55462399998555,
                    "velocity": 0.6456692913385826,
                    "duration": 0.21537799999998697
                },
                {
                    "name": "C5",
                    "midi": 72,
                    "time": 476.2007579999855,
                    "velocity": 0.5590551181102362,
                    "duration": 0.8615120000000047
                },
                {
                    "name": "F5",
                    "midi": 77,
                    "time": 476.3084469999855,
                    "velocity": 0.5826771653543307,
                    "duration": 0.7538230000000112
                },
                {
                    "name": "G#5",
                    "midi": 80,
                    "time": 476.4161359999855,
                    "velocity": 0.6771653543307087,
                    "duration": 0.6461340000000177
                },
                {
                    "name": "C4",
                    "midi": 60,
                    "time": 477.0622699999855,
                    "velocity": 0.5275590551181102,
                    "duration": 0.21537799999998697
                },
                {
                    "name": "F4",
                    "midi": 65,
                    "time": 477.2776479999855,
                    "velocity": 0.6692913385826772,
                    "duration": 0.21537799999998697
                },
                {
                    "name": "C5",
                    "midi": 72,
                    "time": 477.92378199998547,
                    "velocity": 0.5590551181102362,
                    "duration": 0.8615120000000047
                },
                {
                    "name": "F5",
                    "midi": 77,
                    "time": 478.03147099998546,
                    "velocity": 0.5826771653543307,
                    "duration": 0.7538230000000112
                },
                {
                    "name": "G#5",
                    "midi": 80,
                    "time": 478.13915999998545,
                    "velocity": 0.6929133858267716,
                    "duration": 0.6461340000000177
                },
                {
                    "name": "C4",
                    "midi": 60,
                    "time": 478.78529399998547,
                    "velocity": 0.5196850393700787,
                    "duration": 0.21537799999998697
                },
                {
                    "name": "F4",
                    "midi": 65,
                    "time": 479.00067199998546,
                    "velocity": 0.6929133858267716,
                    "duration": 0.43075599999997394
                },
                {
                    "name": "C4",
                    "midi": 60,
                    "time": 479.6468059999854,
                    "velocity": 0.5275590551181102,
                    "duration": 0.21537799999998697
                },
                {
                    "name": "F3",
                    "midi": 53,
                    "time": 479.8621839999854,
                    "velocity": 0.7007874015748031,
                    "duration": 0.43075599999997394
                },
                {
                    "name": "C3",
                    "midi": 48,
                    "time": 480.50831799998537,
                    "velocity": 0.5196850393700787,
                    "duration": 0.21537799999998697
                },
                {
                    "name": "F2",
                    "midi": 41,
                    "time": 480.72369599998535,
                    "velocity": 0.7244094488188977,
                    "duration": 0.43075599999997394
                },
                {
                    "name": "C2",
                    "midi": 36,
                    "time": 481.3698299999853,
                    "velocity": 0.49606299212598426,
                    "duration": 0.21537799999998697
                },
                {
                    "name": "F1",
                    "midi": 29,
                    "time": 481.5852079999853,
                    "velocity": 0.6850393700787402,
                    "duration": 0.21537799999998697
                },
                {
                    "name": "C2",
                    "midi": 36,
                    "time": 481.8005859999853,
                    "velocity": 0.5118110236220472,
                    "duration": 0.21537799999998697
                },
                {
                    "name": "F1",
                    "midi": 29,
                    "time": 482.0159639999853,
                    "velocity": 0.7007874015748031,
                    "duration": 0.21537799999998697
                },
                {
                    "name": "C2",
                    "midi": 36,
                    "time": 482.23134199998526,
                    "velocity": 0.5039370078740157,
                    "duration": 0.21537799999998697
                },
                {
                    "name": "F1",
                    "midi": 29,
                    "time": 482.44671999998525,
                    "velocity": 0.5669291338582677,
                    "duration": 0.10768899999999348
                },
                {
                    "name": "G#1",
                    "midi": 32,
                    "time": 482.55440899998524,
                    "velocity": 0.49606299212598426,
                    "duration": 0.10768899999999348
                },
                {
                    "name": "C2",
                    "midi": 36,
                    "time": 482.66209799998524,
                    "velocity": 0.49606299212598426,
                    "duration": 0.10768899999999348
                },
                {
                    "name": "F2",
                    "midi": 41,
                    "time": 482.76978699998523,
                    "velocity": 0.49606299212598426,
                    "duration": 0.10768899999999348
                },
                {
                    "name": "F1",
                    "midi": 29,
                    "time": 482.8774759999852,
                    "velocity": 0.5669291338582677,
                    "duration": 0.10768899999999348
                },
                {
                    "name": "G#1",
                    "midi": 32,
                    "time": 482.9851649999852,
                    "velocity": 0.49606299212598426,
                    "duration": 0.10768899999999348
                },
                {
                    "name": "C2",
                    "midi": 36,
                    "time": 483.0928539999852,
                    "velocity": 0.49606299212598426,
                    "duration": 0.10768899999999348
                },
                {
                    "name": "F2",
                    "midi": 41,
                    "time": 483.2005429999852,
                    "velocity": 0.49606299212598426,
                    "duration": 0.10768899999999348
                },
                {
                    "name": "F1",
                    "midi": 29,
                    "time": 483.3082319999852,
                    "velocity": 0.5669291338582677,
                    "duration": 0.10768899999999348
                },
                {
                    "name": "G#1",
                    "midi": 32,
                    "time": 483.4159209999852,
                    "velocity": 0.49606299212598426,
                    "duration": 0.10768899999999348
                },
                {
                    "name": "C2",
                    "midi": 36,
                    "time": 483.5236099999852,
                    "velocity": 0.49606299212598426,
                    "duration": 0.10768899999999348
                },
                {
                    "name": "F2",
                    "midi": 41,
                    "time": 483.6312989999852,
                    "velocity": 0.49606299212598426,
                    "duration": 0.10768899999999348
                },
                {
                    "name": "F1",
                    "midi": 29,
                    "time": 483.73898799998517,
                    "velocity": 0.5669291338582677,
                    "duration": 0.10768899999999348
                },
                {
                    "name": "G#1",
                    "midi": 32,
                    "time": 483.84667699998516,
                    "velocity": 0.49606299212598426,
                    "duration": 0.10768899999999348
                },
                {
                    "name": "C2",
                    "midi": 36,
                    "time": 483.95436599998516,
                    "velocity": 0.49606299212598426,
                    "duration": 0.10768899999999348
                },
                {
                    "name": "F2",
                    "midi": 41,
                    "time": 484.06205499998515,
                    "velocity": 0.49606299212598426,
                    "duration": 0.10768899999999348
                },
                {
                    "name": "F1",
                    "midi": 29,
                    "time": 484.16974399998514,
                    "velocity": 0.5669291338582677,
                    "duration": 0.10768899999999348
                },
                {
                    "name": "G#1",
                    "midi": 32,
                    "time": 484.27743299998514,
                    "velocity": 0.49606299212598426,
                    "duration": 0.10768899999999348
                },
                {
                    "name": "C2",
                    "midi": 36,
                    "time": 484.38512199998513,
                    "velocity": 0.49606299212598426,
                    "duration": 0.10768899999999348
                },
                {
                    "name": "F2",
                    "midi": 41,
                    "time": 484.4928109999851,
                    "velocity": 0.49606299212598426,
                    "duration": 0.10768899999999348
                },
                {
                    "name": "F1",
                    "midi": 29,
                    "time": 484.6004999999851,
                    "velocity": 0.5669291338582677,
                    "duration": 0.10768899999999348
                },
                {
                    "name": "G#1",
                    "midi": 32,
                    "time": 484.7081889999851,
                    "velocity": 0.49606299212598426,
                    "duration": 0.10768899999999348
                },
                {
                    "name": "C2",
                    "midi": 36,
                    "time": 484.8158779999851,
                    "velocity": 0.49606299212598426,
                    "duration": 0.10768899999999348
                },
                {
                    "name": "F2",
                    "midi": 41,
                    "time": 484.9235669999851,
                    "velocity": 0.49606299212598426,
                    "duration": 0.10768899999999348
                },
                {
                    "name": "F1",
                    "midi": 29,
                    "time": 485.0312559999851,
                    "velocity": 0.5669291338582677,
                    "duration": 0.10768899999999348
                },
                {
                    "name": "G#1",
                    "midi": 32,
                    "time": 485.1389449999851,
                    "velocity": 0.49606299212598426,
                    "duration": 0.10768899999999348
                },
                {
                    "name": "C2",
                    "midi": 36,
                    "time": 485.2466339999851,
                    "velocity": 0.49606299212598426,
                    "duration": 0.10768899999999348
                },
                {
                    "name": "F2",
                    "midi": 41,
                    "time": 485.3543229999851,
                    "velocity": 0.49606299212598426,
                    "duration": 0.10768899999999348
                },
                {
                    "name": "F1",
                    "midi": 29,
                    "time": 485.46201199998507,
                    "velocity": 0.5669291338582677,
                    "duration": 0.10768899999999348
                },
                {
                    "name": "G#1",
                    "midi": 32,
                    "time": 485.56970099998506,
                    "velocity": 0.49606299212598426,
                    "duration": 0.10768899999999348
                },
                {
                    "name": "C2",
                    "midi": 36,
                    "time": 485.67738999998505,
                    "velocity": 0.49606299212598426,
                    "duration": 0.10768899999999348
                },
                {
                    "name": "F2",
                    "midi": 41,
                    "time": 485.78507899998505,
                    "velocity": 0.49606299212598426,
                    "duration": 0.10768899999999348
                },
                {
                    "name": "F1",
                    "midi": 29,
                    "time": 485.89276799998504,
                    "velocity": 0.5669291338582677,
                    "duration": 0.10768899999999348
                },
                {
                    "name": "G#1",
                    "midi": 32,
                    "time": 486.00045699998503,
                    "velocity": 0.49606299212598426,
                    "duration": 0.10768899999999348
                },
                {
                    "name": "C2",
                    "midi": 36,
                    "time": 486.108145999985,
                    "velocity": 0.49606299212598426,
                    "duration": 0.10768899999999348
                },
                {
                    "name": "F2",
                    "midi": 41,
                    "time": 486.215834999985,
                    "velocity": 0.49606299212598426,
                    "duration": 0.10768899999999348
                },
                {
                    "name": "F1",
                    "midi": 29,
                    "time": 486.323523999985,
                    "velocity": 0.5669291338582677,
                    "duration": 0.10768899999999348
                },
                {
                    "name": "G#1",
                    "midi": 32,
                    "time": 486.431212999985,
                    "velocity": 0.49606299212598426,
                    "duration": 0.10768899999999348
                },
                {
                    "name": "C2",
                    "midi": 36,
                    "time": 486.538901999985,
                    "velocity": 0.49606299212598426,
                    "duration": 0.10768899999999348
                },
                {
                    "name": "F2",
                    "midi": 41,
                    "time": 486.646590999985,
                    "velocity": 0.49606299212598426,
                    "duration": 0.10768899999999348
                },
                {
                    "name": "F1",
                    "midi": 29,
                    "time": 486.754279999985,
                    "velocity": 0.5669291338582677,
                    "duration": 0.10768899999999348
                },
                {
                    "name": "G#1",
                    "midi": 32,
                    "time": 486.861968999985,
                    "velocity": 0.49606299212598426,
                    "duration": 0.10768899999999348
                },
                {
                    "name": "C2",
                    "midi": 36,
                    "time": 486.969657999985,
                    "velocity": 0.49606299212598426,
                    "duration": 0.10768899999999348
                },
                {
                    "name": "F2",
                    "midi": 41,
                    "time": 487.07734699998497,
                    "velocity": 0.49606299212598426,
                    "duration": 0.10768899999999348
                },
                {
                    "name": "F1",
                    "midi": 29,
                    "time": 487.18503599998496,
                    "velocity": 0.5669291338582677,
                    "duration": 0.10768899999999348
                },
                {
                    "name": "G#1",
                    "midi": 32,
                    "time": 487.29272499998496,
                    "velocity": 0.49606299212598426,
                    "duration": 0.10768899999999348
                },
                {
                    "name": "C2",
                    "midi": 36,
                    "time": 487.40041399998495,
                    "velocity": 0.49606299212598426,
                    "duration": 0.10768899999999348
                },
                {
                    "name": "F2",
                    "midi": 41,
                    "time": 487.50810299998494,
                    "velocity": 0.49606299212598426,
                    "duration": 0.10768899999999348
                },
                {
                    "name": "F1",
                    "midi": 29,
                    "time": 487.61579199998494,
                    "velocity": 0.5433070866141733,
                    "duration": 0.21537799999998697
                },
                {
                    "name": "G#1",
                    "midi": 32,
                    "time": 487.61579199998494,
                    "velocity": 0.5433070866141733,
                    "duration": 0.21537799999998697
                },
                {
                    "name": "C2",
                    "midi": 36,
                    "time": 487.61579199998494,
                    "velocity": 0.5433070866141733,
                    "duration": 0.21537799999998697
                },
                {
                    "name": "F2",
                    "midi": 41,
                    "time": 487.61579199998494,
                    "velocity": 0.6377952755905512,
                    "duration": 0.21537799999998697
                },
                {
                    "name": "F1",
                    "midi": 29,
                    "time": 488.47730399998494,
                    "velocity": 0.5669291338582677,
                    "duration": 0.21537799999998697
                },
                {
                    "name": "G#1",
                    "midi": 32,
                    "time": 488.47730399998494,
                    "velocity": 0.5669291338582677,
                    "duration": 0.21537799999998697
                },
                {
                    "name": "C2",
                    "midi": 36,
                    "time": 488.47730399998494,
                    "velocity": 0.5669291338582677,
                    "duration": 0.21537799999998697
                },
                {
                    "name": "F2",
                    "midi": 41,
                    "time": 488.47730399998494,
                    "velocity": 0.6692913385826772,
                    "duration": 0.21537799999998697
                },
                {
                    "name": "F1",
                    "midi": 29,
                    "time": 489.33881599998494,
                    "velocity": 0.5669291338582677,
                    "duration": 0.21537799999998697
                },
                {
                    "name": "G#1",
                    "midi": 32,
                    "time": 489.33881599998494,
                    "velocity": 0.5669291338582677,
                    "duration": 0.21537799999998697
                },
                {
                    "name": "C2",
                    "midi": 36,
                    "time": 489.33881599998494,
                    "velocity": 0.5669291338582677,
                    "duration": 0.21537799999998697
                },
                {
                    "name": "F2",
                    "midi": 41,
                    "time": 489.33881599998494,
                    "velocity": 0.6692913385826772,
                    "duration": 0.21537799999998697
                }
            ],
            "controlChanges": {
                "7": [
                    {
                        "number": 7,
                        "time": 0,
                        "value": 0.7874015748031497
                    }
                ],
                "10": [
                    {
                        "number": 10,
                        "time": 0,
                        "value": 0.5039370078740157
                    }
                ],
                "64": [
                    {
                        "number": 64,
                        "time": 50.02513013333344,
                        "value": 1
                    },
                    {
                        "number": 64,
                        "time": 419.59762478331953,
                        "value": 1
                    },
                    {
                        "number": 64,
                        "time": 420.01761188331955,
                        "value": 0
                    },
                    {
                        "number": 64,
                        "time": 420.05889266665287,
                        "value": 1
                    },
                    {
                        "number": 64,
                        "time": 420.18004279165285,
                        "value": 0
                    }
                ]
            },
            "id": 2,
            "name": "Piano left",
            "instrumentNumber": 0,
            "instrument": "acoustic grand piano",
            "instrumentFamily": "piano",
            "channelNumber": 0,
            "isPercussion": false
        },
        {
            "startTime": 0,
            "duration": 0,
            "length": 0,
            "notes": [],
            "controlChanges": {
                "64": [
                    {
                        "number": 64,
                        "time": 0.0323067,
                        "value": 1
                    },
                    {
                        "number": 64,
                        "time": 3.7377057083333334,
                        "value": 0
                    },
                    {
                        "number": 64,
                        "time": 30.204072275,
                        "value": 1
                    },
                    {
                        "number": 64,
                        "time": 31.027893125000002,
                        "value": 0
                    },
                    {
                        "number": 64,
                        "time": 31.128402858333335,
                        "value": 1
                    },
                    {
                        "number": 64,
                        "time": 31.891199941666667,
                        "value": 0
                    },
                    {
                        "number": 64,
                        "time": 31.968377058333335,
                        "value": 1
                    },
                    {
                        "number": 64,
                        "time": 32.74463526666667,
                        "value": 0
                    },
                    {
                        "number": 64,
                        "time": 32.824504608333335,
                        "value": 1
                    },
                    {
                        "number": 64,
                        "time": 33.181673125,
                        "value": 0
                    },
                    {
                        "number": 64,
                        "time": 33.25077356666667,
                        "value": 1
                    },
                    {
                        "number": 64,
                        "time": 33.607044675000004,
                        "value": 0
                    },
                    {
                        "number": 64,
                        "time": 33.73806629166667,
                        "value": 1
                    },
                    {
                        "number": 64,
                        "time": 34.47035149166667,
                        "value": 0
                    },
                    {
                        "number": 64,
                        "time": 34.53227266666667,
                        "value": 1
                    },
                    {
                        "number": 64,
                        "time": 35.33365830833334,
                        "value": 0
                    },
                    {
                        "number": 64,
                        "time": 35.42968100000001,
                        "value": 1
                    },
                    {
                        "number": 64,
                        "time": 36.19247808333334,
                        "value": 0
                    },
                    {
                        "number": 64,
                        "time": 36.311833391666674,
                        "value": 1
                    },
                    {
                        "number": 64,
                        "time": 36.62592630833334,
                        "value": 0
                    },
                    {
                        "number": 64,
                        "time": 36.681565625000005,
                        "value": 1
                    },
                    {
                        "number": 64,
                        "time": 37.05399008333334,
                        "value": 0
                    },
                    {
                        "number": 64,
                        "time": 37.11680866666667,
                        "value": 1
                    },
                    {
                        "number": 64,
                        "time": 37.917296900000004,
                        "value": 0
                    },
                    {
                        "number": 64,
                        "time": 37.993576608333335,
                        "value": 1
                    },
                    {
                        "number": 64,
                        "time": 38.78060371666667,
                        "value": 0
                    },
                    {
                        "number": 64,
                        "time": 38.8864979,
                        "value": 1
                    },
                    {
                        "number": 64,
                        "time": 39.63852608333333,
                        "value": 0
                    },
                    {
                        "number": 64,
                        "time": 40.55477999166666,
                        "value": 1
                    },
                    {
                        "number": 64,
                        "time": 41.36155008333333,
                        "value": 0
                    },
                    {
                        "number": 64,
                        "time": 41.419881624999995,
                        "value": 1
                    },
                    {
                        "number": 64,
                        "time": 42.23024134999999,
                        "value": 0
                    },
                    {
                        "number": 64,
                        "time": 42.32177699999999,
                        "value": 1
                    },
                    {
                        "number": 64,
                        "time": 43.08726630833333,
                        "value": 0
                    },
                    {
                        "number": 64,
                        "time": 43.145597849999994,
                        "value": 1
                    },
                    {
                        "number": 64,
                        "time": 43.95236794166666,
                        "value": 0
                    },
                    {
                        "number": 64,
                        "time": 44.01967356666666,
                        "value": 1
                    },
                    {
                        "number": 64,
                        "time": 44.38132912499999,
                        "value": 0
                    },
                    {
                        "number": 64,
                        "time": 44.46030105833333,
                        "value": 1
                    },
                    {
                        "number": 64,
                        "time": 44.8093929,
                        "value": 0
                    },
                    {
                        "number": 64,
                        "time": 44.865929625,
                        "value": 1
                    },
                    {
                        "number": 64,
                        "time": 45.67628935,
                        "value": 0
                    },
                    {
                        "number": 64,
                        "time": 45.711288274999994,
                        "value": 1
                    },
                    {
                        "number": 64,
                        "time": 46.53421171666666,
                        "value": 0
                    },
                    {
                        "number": 64,
                        "time": 46.583569174999994,
                        "value": 1
                    },
                    {
                        "number": 64,
                        "time": 47.39303149166666,
                        "value": 0
                    },
                    {
                        "number": 64,
                        "time": 47.454952666666664,
                        "value": 1
                    },
                    {
                        "number": 64,
                        "time": 47.830069349999995,
                        "value": 0
                    },
                    {
                        "number": 64,
                        "time": 47.88570866666666,
                        "value": 1
                    },
                    {
                        "number": 64,
                        "time": 48.25274867499999,
                        "value": 0
                    },
                    {
                        "number": 64,
                        "time": 48.301208724999995,
                        "value": 1
                    },
                    {
                        "number": 64,
                        "time": 49.116952899999994,
                        "value": 0
                    },
                    {
                        "number": 64,
                        "time": 49.17797666666666,
                        "value": 1
                    },
                    {
                        "number": 64,
                        "time": 49.97487526666666,
                        "value": 0
                    },
                    {
                        "number": 64,
                        "time": 50.04487311666666,
                        "value": 1
                    },
                    {
                        "number": 64,
                        "time": 50.840874308333326,
                        "value": 0
                    },
                    {
                        "number": 64,
                        "time": 50.90100066666666,
                        "value": 1
                    },
                    {
                        "number": 64,
                        "time": 51.71136039166666,
                        "value": 0
                    },
                    {
                        "number": 64,
                        "time": 51.74725672499999,
                        "value": 1
                    },
                    {
                        "number": 64,
                        "time": 52.56838534999999,
                        "value": 0
                    },
                    {
                        "number": 64,
                        "time": 52.62940911666666,
                        "value": 1
                    },
                    {
                        "number": 64,
                        "time": 53.41912844999999,
                        "value": 0
                    },
                    {
                        "number": 64,
                        "time": 53.490921116666655,
                        "value": 1
                    },
                    {
                        "number": 64,
                        "time": 54.292306758333325,
                        "value": 0
                    },
                    {
                        "number": 64,
                        "time": 54.37038128333332,
                        "value": 1
                    },
                    {
                        "number": 64,
                        "time": 55.14933171666666,
                        "value": 0
                    },
                    {
                        "number": 64,
                        "time": 55.21932956666666,
                        "value": 1
                    },
                    {
                        "number": 64,
                        "time": 56.01443334999999,
                        "value": 0
                    },
                    {
                        "number": 64,
                        "time": 56.09968714166666,
                        "value": 1
                    },
                    {
                        "number": 64,
                        "time": 56.872355716666654,
                        "value": 0
                    },
                    {
                        "number": 64,
                        "time": 56.93607170833332,
                        "value": 1
                    },
                    {
                        "number": 64,
                        "time": 57.73207289999999,
                        "value": 0
                    },
                    {
                        "number": 64,
                        "time": 57.79848111666666,
                        "value": 1
                    },
                    {
                        "number": 64,
                        "time": 58.59089267499999,
                        "value": 0
                    },
                    {
                        "number": 64,
                        "time": 58.65460866666666,
                        "value": 1
                    },
                    {
                        "number": 64,
                        "time": 59.45330208333333,
                        "value": 0
                    },
                    {
                        "number": 64,
                        "time": 59.49099323333333,
                        "value": 1
                    },
                    {
                        "number": 64,
                        "time": 60.32199334999999,
                        "value": 0
                    },
                    {
                        "number": 64,
                        "time": 60.35699227499999,
                        "value": 1
                    },
                    {
                        "number": 64,
                        "time": 61.180813124999986,
                        "value": 0
                    },
                    {
                        "number": 64,
                        "time": 61.231067991666656,
                        "value": 1
                    },
                    {
                        "number": 64,
                        "time": 62.04232512499999,
                        "value": 0
                    },
                    {
                        "number": 64,
                        "time": 62.08001627499999,
                        "value": 1
                    },
                    {
                        "number": 64,
                        "time": 62.90293971666666,
                        "value": 0
                    },
                    {
                        "number": 64,
                        "time": 62.97921942499999,
                        "value": 1
                    },
                    {
                        "number": 64,
                        "time": 63.763554308333326,
                        "value": 0
                    },
                    {
                        "number": 64,
                        "time": 63.81919362499999,
                        "value": 1
                    },
                    {
                        "number": 64,
                        "time": 64.62327149166666,
                        "value": 0
                    },
                    {
                        "number": 64,
                        "time": 64.71480714166665,
                        "value": 1
                    },
                    {
                        "number": 64,
                        "time": 65.48388608333332,
                        "value": 0
                    },
                    {
                        "number": 64,
                        "time": 65.52606427499998,
                        "value": 1
                    },
                    {
                        "number": 64,
                        "time": 65.92092394166664,
                        "value": 0
                    },
                    {
                        "number": 64,
                        "time": 65.98822956666665,
                        "value": 1
                    },
                    {
                        "number": 64,
                        "time": 66.34360326666665,
                        "value": 0
                    },
                    {
                        "number": 64,
                        "time": 66.41898556666665,
                        "value": 1
                    },
                    {
                        "number": 64,
                        "time": 67.20691008333331,
                        "value": 0
                    },
                    {
                        "number": 64,
                        "time": 67.26972866666665,
                        "value": 1
                    },
                    {
                        "number": 64,
                        "time": 67.64305053333332,
                        "value": 0
                    },
                    {
                        "number": 64,
                        "time": 67.70048466666665,
                        "value": 1
                    },
                    {
                        "number": 64,
                        "time": 68.07470394166666,
                        "value": 0
                    },
                    {
                        "number": 64,
                        "time": 68.14829142499998,
                        "value": 1
                    },
                    {
                        "number": 64,
                        "time": 68.92993408333332,
                        "value": 0
                    },
                    {
                        "number": 64,
                        "time": 68.98826562499998,
                        "value": 1
                    },
                    {
                        "number": 64,
                        "time": 69.36786934999998,
                        "value": 0
                    },
                    {
                        "number": 64,
                        "time": 69.43427756666665,
                        "value": 1
                    },
                    {
                        "number": 64,
                        "time": 69.79234349166666,
                        "value": 0
                    },
                    {
                        "number": 64,
                        "time": 69.85964911666666,
                        "value": 1
                    },
                    {
                        "number": 64,
                        "time": 70.22938135,
                        "value": 0
                    },
                    {
                        "number": 64,
                        "time": 70.29040511666666,
                        "value": 1
                    },
                    {
                        "number": 64,
                        "time": 70.66193216666666,
                        "value": 0
                    },
                    {
                        "number": 64,
                        "time": 70.71398185,
                        "value": 1
                    },
                    {
                        "number": 64,
                        "time": 71.08999594166666,
                        "value": 0
                    },
                    {
                        "number": 64,
                        "time": 71.15730156666666,
                        "value": 1
                    },
                    {
                        "number": 64,
                        "time": 71.51177785833333,
                        "value": 0
                    },
                    {
                        "number": 64,
                        "time": 71.58805756666666,
                        "value": 1
                    },
                    {
                        "number": 64,
                        "time": 71.949713125,
                        "value": 0
                    },
                    {
                        "number": 64,
                        "time": 72.01342911666667,
                        "value": 1
                    },
                    {
                        "number": 64,
                        "time": 72.38226394166666,
                        "value": 0
                    },
                    {
                        "number": 64,
                        "time": 72.428929175,
                        "value": 1
                    },
                    {
                        "number": 64,
                        "time": 72.80763549166666,
                        "value": 0
                    },
                    {
                        "number": 64,
                        "time": 72.89019705833333,
                        "value": 1
                    },
                    {
                        "number": 64,
                        "time": 73.24377594166666,
                        "value": 0
                    },
                    {
                        "number": 64,
                        "time": 73.29851784999998,
                        "value": 1
                    },
                    {
                        "number": 64,
                        "time": 74.10080089999998,
                        "value": 0
                    },
                    {
                        "number": 64,
                        "time": 74.16182466666665,
                        "value": 1
                    },
                    {
                        "number": 64,
                        "time": 74.53694134999998,
                        "value": 0
                    },
                    {
                        "number": 64,
                        "time": 74.59796511666664,
                        "value": 1
                    },
                    {
                        "number": 64,
                        "time": 74.96321030833332,
                        "value": 0
                    },
                    {
                        "number": 64,
                        "time": 75.05295114166665,
                        "value": 1
                    },
                    {
                        "number": 64,
                        "time": 75.83010675833332,
                        "value": 0
                    },
                    {
                        "number": 64,
                        "time": 75.88484866666664,
                        "value": 1
                    },
                    {
                        "number": 64,
                        "time": 76.25547830833331,
                        "value": 0
                    },
                    {
                        "number": 64,
                        "time": 76.31111762499998,
                        "value": 1
                    },
                    {
                        "number": 64,
                        "time": 76.69161875833332,
                        "value": 0
                    },
                    {
                        "number": 64,
                        "time": 76.74456584999999,
                        "value": 1
                    },
                    {
                        "number": 64,
                        "time": 77.55133594166665,
                        "value": 0
                    },
                    {
                        "number": 64,
                        "time": 77.60607784999998,
                        "value": 1
                    },
                    {
                        "number": 64,
                        "time": 77.98029712499998,
                        "value": 0
                    },
                    {
                        "number": 64,
                        "time": 78.04939756666664,
                        "value": 1
                    },
                    {
                        "number": 64,
                        "time": 78.40477126666664,
                        "value": 0
                    },
                    {
                        "number": 64,
                        "time": 78.4442572333333,
                        "value": 1
                    },
                    {
                        "number": 64,
                        "time": 78.83642467499998,
                        "value": 0
                    },
                    {
                        "number": 64,
                        "time": 78.90552511666664,
                        "value": 1
                    },
                    {
                        "number": 64,
                        "time": 79.27166771666664,
                        "value": 0
                    },
                    {
                        "number": 64,
                        "time": 79.34794742499997,
                        "value": 1
                    },
                    {
                        "number": 64,
                        "time": 79.70601334999998,
                        "value": 0
                    },
                    {
                        "number": 64,
                        "time": 79.76613970833331,
                        "value": 1
                    },
                    {
                        "number": 64,
                        "time": 80.13587194166665,
                        "value": 0
                    },
                    {
                        "number": 64,
                        "time": 80.17176827499998,
                        "value": 1
                    },
                    {
                        "number": 64,
                        "time": 80.56214089999997,
                        "value": 0
                    },
                    {
                        "number": 64,
                        "time": 80.60790872499997,
                        "value": 1
                    },
                    {
                        "number": 64,
                        "time": 80.99289689999998,
                        "value": 0
                    },
                    {
                        "number": 64,
                        "time": 81.03328027499998,
                        "value": 1
                    },
                    {
                        "number": 64,
                        "time": 81.42634512499998,
                        "value": 0
                    },
                    {
                        "number": 64,
                        "time": 81.48467666666664,
                        "value": 1
                    },
                    {
                        "number": 64,
                        "time": 81.85889594166665,
                        "value": 0
                    },
                    {
                        "number": 64,
                        "time": 81.91363784999997,
                        "value": 1
                    },
                    {
                        "number": 64,
                        "time": 82.29054934999998,
                        "value": 0
                    },
                    {
                        "number": 64,
                        "time": 82.35067570833331,
                        "value": 1
                    },
                    {
                        "number": 64,
                        "time": 82.71322867499998,
                        "value": 0
                    },
                    {
                        "number": 64,
                        "time": 82.75630427499998,
                        "value": 1
                    },
                    {
                        "number": 64,
                        "time": 83.1475743083333,
                        "value": 0
                    },
                    {
                        "number": 64,
                        "time": 83.18706027499996,
                        "value": 1
                    },
                    {
                        "number": 64,
                        "time": 83.58191994166663,
                        "value": 0
                    },
                    {
                        "number": 64,
                        "time": 83.60525255833329,
                        "value": 1
                    },
                    {
                        "number": 64,
                        "time": 84.0090863083333,
                        "value": 0
                    },
                    {
                        "number": 64,
                        "time": 84.06113599166663,
                        "value": 1
                    },
                    {
                        "number": 64,
                        "time": 84.22536171666663,
                        "value": 0
                    },
                    {
                        "number": 64,
                        "time": 85.34712213333329,
                        "value": 1
                    },
                    {
                        "number": 64,
                        "time": 85.73480253333328,
                        "value": 0
                    },
                    {
                        "number": 64,
                        "time": 85.80300556666661,
                        "value": 1
                    },
                    {
                        "number": 64,
                        "time": 87.45962134999995,
                        "value": 0
                    },
                    {
                        "number": 64,
                        "time": 87.50718399166662,
                        "value": 1
                    },
                    {
                        "number": 64,
                        "time": 87.67051230833329,
                        "value": 0
                    },
                    {
                        "number": 64,
                        "time": 88.78329864166662,
                        "value": 1
                    },
                    {
                        "number": 64,
                        "time": 89.39353630833328,
                        "value": 0
                    },
                    {
                        "number": 64,
                        "time": 90.50004078333328,
                        "value": 1
                    },
                    {
                        "number": 64,
                        "time": 91.1174577166666,
                        "value": 0
                    },
                    {
                        "number": 64,
                        "time": 92.22037255833327,
                        "value": 1
                    },
                    {
                        "number": 64,
                        "time": 92.8377894916666,
                        "value": 0
                    },
                    {
                        "number": 64,
                        "time": 93.97480584999992,
                        "value": 1
                    },
                    {
                        "number": 64,
                        "time": 94.55722385833326,
                        "value": 0
                    },
                    {
                        "number": 64,
                        "time": 95.68436872499993,
                        "value": 1
                    },
                    {
                        "number": 64,
                        "time": 99.08375149166659,
                        "value": 0
                    },
                    {
                        "number": 64,
                        "time": 99.13041672499992,
                        "value": 1
                    },
                    {
                        "number": 64,
                        "time": 99.51809712499991,
                        "value": 0
                    },
                    {
                        "number": 64,
                        "time": 99.58181311666658,
                        "value": 1
                    },
                    {
                        "number": 64,
                        "time": 99.94526349166658,
                        "value": 0
                    },
                    {
                        "number": 64,
                        "time": 99.99192872499991,
                        "value": 1
                    },
                    {
                        "number": 64,
                        "time": 100.38140394166658,
                        "value": 0
                    },
                    {
                        "number": 64,
                        "time": 100.4280691749999,
                        "value": 1
                    },
                    {
                        "number": 64,
                        "time": 100.81754439166657,
                        "value": 0
                    },
                    {
                        "number": 64,
                        "time": 107.07427529166657,
                        "value": 1
                    },
                    {
                        "number": 64,
                        "time": 107.2690128999999,
                        "value": 0
                    },
                    {
                        "number": 64,
                        "time": 107.3093962749999,
                        "value": 1
                    },
                    {
                        "number": 64,
                        "time": 107.69617926666656,
                        "value": 0
                    },
                    {
                        "number": 64,
                        "time": 107.76079266666656,
                        "value": 1
                    },
                    {
                        "number": 64,
                        "time": 108.5585886749999,
                        "value": 0
                    },
                    {
                        "number": 64,
                        "time": 108.63307356666657,
                        "value": 1
                    },
                    {
                        "number": 64,
                        "time": 109.42189549166656,
                        "value": 0
                    },
                    {
                        "number": 64,
                        "time": 109.4631762749999,
                        "value": 1
                    },
                    {
                        "number": 64,
                        "time": 110.28520230833323,
                        "value": 0
                    },
                    {
                        "number": 64,
                        "time": 110.33725199166656,
                        "value": 1
                    },
                    {
                        "number": 64,
                        "time": 111.14671430833323,
                        "value": 0
                    },
                    {
                        "number": 64,
                        "time": 111.1915847249999,
                        "value": 1
                    },
                    {
                        "number": 64,
                        "time": 112.00553408333323,
                        "value": 0
                    },
                    {
                        "number": 64,
                        "time": 112.0584811749999,
                        "value": 1
                    },
                    {
                        "number": 64,
                        "time": 112.87332794166656,
                        "value": 0
                    },
                    {
                        "number": 64,
                        "time": 112.92986466666656,
                        "value": 1
                    },
                    {
                        "number": 64,
                        "time": 113.72855808333323,
                        "value": 0
                    },
                    {
                        "number": 64,
                        "time": 113.7815051749999,
                        "value": 1
                    },
                    {
                        "number": 64,
                        "time": 114.59635194166655,
                        "value": 0
                    },
                    {
                        "number": 64,
                        "time": 114.61250529166655,
                        "value": 1
                    },
                    {
                        "number": 64,
                        "time": 115.45068467499989,
                        "value": 0
                    },
                    {
                        "number": 64,
                        "time": 115.50632399166656,
                        "value": 1
                    },
                    {
                        "number": 64,
                        "time": 116.31847853333323,
                        "value": 0
                    },
                    {
                        "number": 64,
                        "time": 116.3714256249999,
                        "value": 1
                    },
                    {
                        "number": 64,
                        "time": 117.17460608333323,
                        "value": 0
                    },
                    {
                        "number": 64,
                        "time": 117.24191170833323,
                        "value": 1
                    },
                    {
                        "number": 64,
                        "time": 118.03970771666657,
                        "value": 0
                    },
                    {
                        "number": 64,
                        "time": 118.0890651749999,
                        "value": 1
                    },
                    {
                        "number": 64,
                        "time": 118.4686688999999,
                        "value": 0
                    },
                    {
                        "number": 64,
                        "time": 118.53507711666657,
                        "value": 1
                    },
                    {
                        "number": 64,
                        "time": 118.9021171249999,
                        "value": 0
                    },
                    {
                        "number": 64,
                        "time": 118.9398082749999,
                        "value": 1
                    },
                    {
                        "number": 64,
                        "time": 119.33466794166657,
                        "value": 0
                    },
                    {
                        "number": 64,
                        "time": 119.39120466666657,
                        "value": 1
                    },
                    {
                        "number": 64,
                        "time": 119.76183430833323,
                        "value": 0
                    },
                    {
                        "number": 64,
                        "time": 119.8067047249999,
                        "value": 1
                    },
                    {
                        "number": 64,
                        "time": 120.1970773499999,
                        "value": 0
                    },
                    {
                        "number": 64,
                        "time": 120.24822962499991,
                        "value": 1
                    },
                    {
                        "number": 64,
                        "time": 120.62065408333324,
                        "value": 0
                    },
                    {
                        "number": 64,
                        "time": 120.6628322749999,
                        "value": 1
                    },
                    {
                        "number": 64,
                        "time": 121.0585893499999,
                        "value": 0
                    },
                    {
                        "number": 64,
                        "time": 121.0935882749999,
                        "value": 1
                    },
                    {
                        "number": 64,
                        "time": 121.4812686749999,
                        "value": 0
                    },
                    {
                        "number": 64,
                        "time": 121.76484970833323,
                        "value": 1
                    },
                    {
                        "number": 64,
                        "time": 122.21445128333323,
                        "value": 0
                    },
                    {
                        "number": 64,
                        "time": 122.65328395833323,
                        "value": 1
                    },
                    {
                        "number": 64,
                        "time": 123.10378294166657,
                        "value": 0
                    },
                    {
                        "number": 64,
                        "time": 123.50941150833323,
                        "value": 1
                    },
                    {
                        "number": 64,
                        "time": 123.99670423333323,
                        "value": 0
                    },
                    {
                        "number": 64,
                        "time": 125.23602514166657,
                        "value": 1
                    },
                    {
                        "number": 64,
                        "time": 125.6919085749999,
                        "value": 0
                    },
                    {
                        "number": 64,
                        "time": 126.0526667249999,
                        "value": 1
                    },
                    {
                        "number": 64,
                        "time": 126.56059984166656,
                        "value": 0
                    },
                    {
                        "number": 64,
                        "time": 126.96084395833323,
                        "value": 1
                    },
                    {
                        "number": 64,
                        "time": 127.43198333333324,
                        "value": 0
                    },
                    {
                        "number": 64,
                        "time": 128.6479716249999,
                        "value": 1
                    },
                    {
                        "number": 64,
                        "time": 129.13975139166658,
                        "value": 0
                    },
                    {
                        "number": 64,
                        "time": 129.4987147249999,
                        "value": 1
                    },
                    {
                        "number": 64,
                        "time": 130.00664784166656,
                        "value": 0
                    },
                    {
                        "number": 64,
                        "time": 130.38625156666657,
                        "value": 1
                    },
                    {
                        "number": 64,
                        "time": 130.85290389999992,
                        "value": 0
                    },
                    {
                        "number": 64,
                        "time": 132.12812114166658,
                        "value": 1
                    },
                    {
                        "number": 64,
                        "time": 132.5463134249999,
                        "value": 0
                    },
                    {
                        "number": 64,
                        "time": 132.97527460833325,
                        "value": 1
                    },
                    {
                        "number": 64,
                        "time": 133.44731139166657,
                        "value": 0
                    },
                    {
                        "number": 64,
                        "time": 133.83678660833323,
                        "value": 1
                    },
                    {
                        "number": 64,
                        "time": 134.31420784166656,
                        "value": 0
                    },
                    {
                        "number": 64,
                        "time": 135.37763671666656,
                        "value": 1
                    },
                    {
                        "number": 64,
                        "time": 135.70339594166657,
                        "value": 0
                    },
                    {
                        "number": 64,
                        "time": 135.7581378499999,
                        "value": 1
                    },
                    {
                        "number": 64,
                        "time": 136.12787008333325,
                        "value": 0
                    },
                    {
                        "number": 64,
                        "time": 136.1826119916666,
                        "value": 1
                    },
                    {
                        "number": 64,
                        "time": 136.56580534999992,
                        "value": 0
                    },
                    {
                        "number": 64,
                        "time": 136.6322135666666,
                        "value": 1
                    },
                    {
                        "number": 64,
                        "time": 136.98938208333325,
                        "value": 0
                    },
                    {
                        "number": 64,
                        "time": 137.0423291749999,
                        "value": 1
                    },
                    {
                        "number": 64,
                        "time": 137.42641994166658,
                        "value": 0
                    },
                    {
                        "number": 64,
                        "time": 137.4883411166666,
                        "value": 1
                    },
                    {
                        "number": 64,
                        "time": 137.85089408333326,
                        "value": 0
                    },
                    {
                        "number": 64,
                        "time": 137.89845672499993,
                        "value": 1
                    },
                    {
                        "number": 64,
                        "time": 138.28344489999992,
                        "value": 0
                    },
                    {
                        "number": 64,
                        "time": 138.3345971749999,
                        "value": 1
                    },
                    {
                        "number": 64,
                        "time": 138.71330349166658,
                        "value": 0
                    },
                    {
                        "number": 64,
                        "time": 138.7599687249999,
                        "value": 1
                    },
                    {
                        "number": 64,
                        "time": 139.1476491249999,
                        "value": 0
                    },
                    {
                        "number": 64,
                        "time": 139.21136511666657,
                        "value": 1
                    },
                    {
                        "number": 64,
                        "time": 139.58019994166656,
                        "value": 0
                    },
                    {
                        "number": 64,
                        "time": 139.62148072499988,
                        "value": 1
                    },
                    {
                        "number": 64,
                        "time": 140.00736630833322,
                        "value": 0
                    },
                    {
                        "number": 64,
                        "time": 140.0522367249999,
                        "value": 1
                    },
                    {
                        "number": 64,
                        "time": 140.44260934999988,
                        "value": 0
                    },
                    {
                        "number": 64,
                        "time": 140.49824866666654,
                        "value": 1
                    },
                    {
                        "number": 64,
                        "time": 140.8733653499999,
                        "value": 0
                    },
                    {
                        "number": 64,
                        "time": 140.9191331749999,
                        "value": 1
                    },
                    {
                        "number": 64,
                        "time": 141.29694208333322,
                        "value": 0
                    },
                    {
                        "number": 64,
                        "time": 141.33912027499989,
                        "value": 1
                    },
                    {
                        "number": 64,
                        "time": 141.72949289999988,
                        "value": 0
                    },
                    {
                        "number": 64,
                        "time": 141.7752607249999,
                        "value": 1
                    },
                    {
                        "number": 64,
                        "time": 142.15845408333323,
                        "value": 0
                    },
                    {
                        "number": 64,
                        "time": 142.19076078333322,
                        "value": 1
                    },
                    {
                        "number": 64,
                        "time": 142.5945945333332,
                        "value": 0
                    },
                    {
                        "number": 64,
                        "time": 142.64215717499988,
                        "value": 1
                    },
                    {
                        "number": 64,
                        "time": 143.02355571666655,
                        "value": 0
                    },
                    {
                        "number": 64,
                        "time": 143.07470799166654,
                        "value": 1
                    },
                    {
                        "number": 64,
                        "time": 143.45700394166656,
                        "value": 0
                    },
                    {
                        "number": 64,
                        "time": 145.65924399166656,
                        "value": 1
                    },
                    {
                        "number": 64,
                        "time": 146.04064253333323,
                        "value": 0
                    },
                    {
                        "number": 64,
                        "time": 146.10256370833324,
                        "value": 1
                    },
                    {
                        "number": 64,
                        "time": 146.46870630833322,
                        "value": 0
                    },
                    {
                        "number": 64,
                        "time": 146.52703784999989,
                        "value": 1
                    },
                    {
                        "number": 64,
                        "time": 146.9039493499999,
                        "value": 0
                    },
                    {
                        "number": 64,
                        "time": 146.9766394249999,
                        "value": 1
                    },
                    {
                        "number": 64,
                        "time": 147.33021830833323,
                        "value": 0
                    },
                    {
                        "number": 64,
                        "time": 147.3804731749999,
                        "value": 1
                    },
                    {
                        "number": 64,
                        "time": 147.76456394166658,
                        "value": 0
                    },
                    {
                        "number": 64,
                        "time": 147.82110066666658,
                        "value": 1
                    },
                    {
                        "number": 64,
                        "time": 148.18903808333326,
                        "value": 0
                    },
                    {
                        "number": 64,
                        "time": 148.25006184999992,
                        "value": 1
                    },
                    {
                        "number": 64,
                        "time": 148.62517853333327,
                        "value": 0
                    },
                    {
                        "number": 64,
                        "time": 148.69966342499993,
                        "value": 1
                    },
                    {
                        "number": 64,
                        "time": 149.05413971666658,
                        "value": 0
                    },
                    {
                        "number": 64,
                        "time": 149.10349717499992,
                        "value": 1
                    },
                    {
                        "number": 64,
                        "time": 149.48938275833325,
                        "value": 0
                    },
                    {
                        "number": 64,
                        "time": 149.55938060833324,
                        "value": 1
                    },
                    {
                        "number": 64,
                        "time": 149.9138568999999,
                        "value": 0
                    },
                    {
                        "number": 64,
                        "time": 149.9703936249999,
                        "value": 1
                    },
                    {
                        "number": 64,
                        "time": 150.34820253333322,
                        "value": 0
                    },
                    {
                        "number": 64,
                        "time": 150.41102111666655,
                        "value": 1
                    },
                    {
                        "number": 64,
                        "time": 150.77895853333322,
                        "value": 0
                    },
                    {
                        "number": 64,
                        "time": 150.85164860833322,
                        "value": 1
                    },
                    {
                        "number": 64,
                        "time": 153.20106362499988,
                        "value": 0
                    },
                    {
                        "number": 64,
                        "time": 154.30308105833322,
                        "value": 1
                    },
                    {
                        "number": 64,
                        "time": 156.6668546083332,
                        "value": 0
                    },
                    {
                        "number": 64,
                        "time": 157.73387311666653,
                        "value": 1
                    },
                    {
                        "number": 64,
                        "time": 159.01267999166652,
                        "value": 0
                    },
                    {
                        "number": 64,
                        "time": 159.46228156666652,
                        "value": 1
                    },
                    {
                        "number": 64,
                        "time": 160.68455171666653,
                        "value": 0
                    },
                    {
                        "number": 64,
                        "time": 161.16466517499987,
                        "value": 1
                    },
                    {
                        "number": 64,
                        "time": 162.40757571666654,
                        "value": 0
                    },
                    {
                        "number": 64,
                        "time": 162.86704878333322,
                        "value": 1
                    },
                    {
                        "number": 64,
                        "time": 164.13867639166656,
                        "value": 0
                    },
                    {
                        "number": 64,
                        "time": 164.64122505833322,
                        "value": 1
                    },
                    {
                        "number": 64,
                        "time": 174.88693599999988,
                        "value": 0
                    },
                    {
                        "number": 64,
                        "time": 175.22256671666653,
                        "value": 1
                    },
                    {
                        "number": 64,
                        "time": 176.60995999999986,
                        "value": 0
                    },
                    {
                        "number": 64,
                        "time": 176.78764684999985,
                        "value": 1
                    },
                    {
                        "number": 64,
                        "time": 181.7862112666665,
                        "value": 0
                    },
                    {
                        "number": 64,
                        "time": 192.7893348416665,
                        "value": 1
                    },
                    {
                        "number": 64,
                        "time": 192.98676467499982,
                        "value": 0
                    },
                    {
                        "number": 64,
                        "time": 193.0558651166665,
                        "value": 1
                    },
                    {
                        "number": 64,
                        "time": 193.42290512499983,
                        "value": 0
                    },
                    {
                        "number": 64,
                        "time": 193.4812366666665,
                        "value": 1
                    },
                    {
                        "number": 64,
                        "time": 193.85007149166648,
                        "value": 0
                    },
                    {
                        "number": 64,
                        "time": 193.9119926666665,
                        "value": 1
                    },
                    {
                        "number": 64,
                        "time": 194.28262230833315,
                        "value": 0
                    },
                    {
                        "number": 64,
                        "time": 194.35351756666648,
                        "value": 1
                    },
                    {
                        "number": 64,
                        "time": 194.7124808999998,
                        "value": 0
                    },
                    {
                        "number": 64,
                        "time": 194.77350466666647,
                        "value": 1
                    },
                    {
                        "number": 64,
                        "time": 195.14862134999981,
                        "value": 0
                    },
                    {
                        "number": 64,
                        "time": 195.21951660833315,
                        "value": 1
                    },
                    {
                        "number": 64,
                        "time": 195.57758253333316,
                        "value": 0
                    },
                    {
                        "number": 64,
                        "time": 195.6332218499998,
                        "value": 1
                    },
                    {
                        "number": 64,
                        "time": 196.43999194166648,
                        "value": 0
                    },
                    {
                        "number": 64,
                        "time": 196.51357942499982,
                        "value": 1
                    },
                    {
                        "number": 64,
                        "time": 197.29701689999982,
                        "value": 0
                    },
                    {
                        "number": 64,
                        "time": 197.35355362499982,
                        "value": 1
                    },
                    {
                        "number": 64,
                        "time": 198.16032371666648,
                        "value": 0
                    },
                    {
                        "number": 64,
                        "time": 198.27070494166648,
                        "value": 1
                    },
                    {
                        "number": 64,
                        "time": 198.5946693499998,
                        "value": 0
                    },
                    {
                        "number": 64,
                        "time": 198.65569311666647,
                        "value": 1
                    },
                    {
                        "number": 64,
                        "time": 199.02452794166646,
                        "value": 0
                    },
                    {
                        "number": 64,
                        "time": 199.14837029166645,
                        "value": 1
                    },
                    {
                        "number": 64,
                        "time": 199.88424512499978,
                        "value": 0
                    },
                    {
                        "number": 64,
                        "time": 199.95783260833312,
                        "value": 1
                    },
                    {
                        "number": 64,
                        "time": 200.74934675833313,
                        "value": 0
                    },
                    {
                        "number": 64,
                        "time": 200.87139429166646,
                        "value": 1
                    },
                    {
                        "number": 64,
                        "time": 201.6018846749998,
                        "value": 0
                    },
                    {
                        "number": 64,
                        "time": 201.69700995833315,
                        "value": 1
                    },
                    {
                        "number": 64,
                        "time": 202.03892253333316,
                        "value": 0
                    },
                    {
                        "number": 64,
                        "time": 202.0963566666665,
                        "value": 1
                    },
                    {
                        "number": 64,
                        "time": 202.46878112499985,
                        "value": 0
                    },
                    {
                        "number": 64,
                        "time": 202.5271126666665,
                        "value": 1
                    },
                    {
                        "number": 64,
                        "time": 203.33208794166652,
                        "value": 0
                    },
                    {
                        "number": 64,
                        "time": 203.4397769416665,
                        "value": 1
                    },
                    {
                        "number": 64,
                        "time": 204.19449734999984,
                        "value": 0
                    },
                    {
                        "number": 64,
                        "time": 204.26539260833317,
                        "value": 1
                    },
                    {
                        "number": 64,
                        "time": 205.0470352666665,
                        "value": 0
                    },
                    {
                        "number": 64,
                        "time": 205.95880213333317,
                        "value": 1
                    },
                    {
                        "number": 64,
                        "time": 206.77364889999984,
                        "value": 0
                    },
                    {
                        "number": 64,
                        "time": 206.8346726666665,
                        "value": 1
                    },
                    {
                        "number": 64,
                        "time": 207.64054534999983,
                        "value": 0
                    },
                    {
                        "number": 64,
                        "time": 207.71323542499982,
                        "value": 1
                    },
                    {
                        "number": 64,
                        "time": 208.49757030833317,
                        "value": 0
                    },
                    {
                        "number": 64,
                        "time": 208.57474742499983,
                        "value": 1
                    },
                    {
                        "number": 64,
                        "time": 209.35818489999983,
                        "value": 0
                    },
                    {
                        "number": 64,
                        "time": 209.40933717499982,
                        "value": 1
                    },
                    {
                        "number": 64,
                        "time": 209.78894089999983,
                        "value": 0
                    },
                    {
                        "number": 64,
                        "time": 209.8553491166665,
                        "value": 1
                    },
                    {
                        "number": 64,
                        "time": 210.21969689999983,
                        "value": 0
                    },
                    {
                        "number": 64,
                        "time": 210.27623362499983,
                        "value": 1
                    },
                    {
                        "number": 64,
                        "time": 211.08749075833316,
                        "value": 0
                    },
                    {
                        "number": 64,
                        "time": 211.1422326666665,
                        "value": 1
                    },
                    {
                        "number": 64,
                        "time": 211.94092608333318,
                        "value": 0
                    },
                    {
                        "number": 64,
                        "time": 211.99925762499984,
                        "value": 1
                    },
                    {
                        "number": 64,
                        "time": 212.81051475833317,
                        "value": 0
                    },
                    {
                        "number": 64,
                        "time": 212.85000072499983,
                        "value": 1
                    },
                    {
                        "number": 64,
                        "time": 213.23498889999982,
                        "value": 0
                    },
                    {
                        "number": 64,
                        "time": 213.3013971166665,
                        "value": 1
                    },
                    {
                        "number": 64,
                        "time": 213.66574489999982,
                        "value": 0
                    },
                    {
                        "number": 64,
                        "time": 213.7267686666665,
                        "value": 1
                    },
                    {
                        "number": 64,
                        "time": 214.5290517166665,
                        "value": 0
                    },
                    {
                        "number": 64,
                        "time": 214.5936651166665,
                        "value": 1
                    },
                    {
                        "number": 64,
                        "time": 215.38876889999983,
                        "value": 0
                    },
                    {
                        "number": 64,
                        "time": 215.42466523333317,
                        "value": 1
                    },
                    {
                        "number": 64,
                        "time": 216.25028089999984,
                        "value": 0
                    },
                    {
                        "number": 64,
                        "time": 216.30143317499983,
                        "value": 1
                    },
                    {
                        "number": 64,
                        "time": 217.1162799416665,
                        "value": 0
                    },
                    {
                        "number": 64,
                        "time": 217.1728166666665,
                        "value": 1
                    },
                    {
                        "number": 64,
                        "time": 217.97330489999985,
                        "value": 0
                    },
                    {
                        "number": 64,
                        "time": 218.02984162499985,
                        "value": 1
                    },
                    {
                        "number": 64,
                        "time": 218.83930394166651,
                        "value": 0
                    },
                    {
                        "number": 64,
                        "time": 218.90122511666652,
                        "value": 1
                    },
                    {
                        "number": 64,
                        "time": 219.6954314916665,
                        "value": 0
                    },
                    {
                        "number": 64,
                        "time": 219.78068528333318,
                        "value": 1
                    },
                    {
                        "number": 64,
                        "time": 220.56232794166652,
                        "value": 0
                    },
                    {
                        "number": 64,
                        "time": 220.61706984999987,
                        "value": 1
                    },
                    {
                        "number": 64,
                        "time": 221.41666067499986,
                        "value": 0
                    },
                    {
                        "number": 64,
                        "time": 221.4848637083332,
                        "value": 1
                    },
                    {
                        "number": 64,
                        "time": 222.2871467583332,
                        "value": 0
                    },
                    {
                        "number": 64,
                        "time": 222.33381199166652,
                        "value": 1
                    },
                    {
                        "number": 64,
                        "time": 223.14237689999985,
                        "value": 0
                    },
                    {
                        "number": 64,
                        "time": 223.1809654583332,
                        "value": 1
                    },
                    {
                        "number": 64,
                        "time": 224.00299149166653,
                        "value": 0
                    },
                    {
                        "number": 64,
                        "time": 224.0397852333332,
                        "value": 1
                    },
                    {
                        "number": 64,
                        "time": 224.86540089999986,
                        "value": 0
                    },
                    {
                        "number": 64,
                        "time": 224.90757909166652,
                        "value": 1
                    },
                    {
                        "number": 64,
                        "time": 225.73319475833318,
                        "value": 0
                    },
                    {
                        "number": 64,
                        "time": 225.76909109166652,
                        "value": 1
                    },
                    {
                        "number": 64,
                        "time": 226.58842489999986,
                        "value": 0
                    },
                    {
                        "number": 64,
                        "time": 226.63957717499986,
                        "value": 1
                    },
                    {
                        "number": 64,
                        "time": 227.44814208333318,
                        "value": 0
                    },
                    {
                        "number": 64,
                        "time": 227.5109606666665,
                        "value": 1
                    },
                    {
                        "number": 64,
                        "time": 228.3105514916665,
                        "value": 0
                    },
                    {
                        "number": 64,
                        "time": 228.3724726666665,
                        "value": 1
                    },
                    {
                        "number": 64,
                        "time": 229.17026867499985,
                        "value": 0
                    },
                    {
                        "number": 64,
                        "time": 229.23936911666652,
                        "value": 1
                    },
                    {
                        "number": 64,
                        "time": 230.03088326666654,
                        "value": 0
                    },
                    {
                        "number": 64,
                        "time": 230.08024072499987,
                        "value": 1
                    },
                    {
                        "number": 64,
                        "time": 230.8968823083332,
                        "value": 0
                    },
                    {
                        "number": 64,
                        "time": 230.93636827499986,
                        "value": 1
                    },
                    {
                        "number": 64,
                        "time": 231.32853571666652,
                        "value": 0
                    },
                    {
                        "number": 64,
                        "time": 231.38776466666653,
                        "value": 1
                    },
                    {
                        "number": 64,
                        "time": 231.75929171666652,
                        "value": 0
                    },
                    {
                        "number": 64,
                        "time": 231.81403362499987,
                        "value": 1
                    },
                    {
                        "number": 64,
                        "time": 232.62080371666653,
                        "value": 0
                    },
                    {
                        "number": 64,
                        "time": 232.66477672499985,
                        "value": 1
                    },
                    {
                        "number": 64,
                        "time": 233.0560467583332,
                        "value": 0
                    },
                    {
                        "number": 64,
                        "time": 233.09014827499988,
                        "value": 1
                    },
                    {
                        "number": 64,
                        "time": 233.47693126666655,
                        "value": 0
                    },
                    {
                        "number": 64,
                        "time": 233.52090427499988,
                        "value": 1
                    },
                    {
                        "number": 64,
                        "time": 234.34203289999988,
                        "value": 0
                    },
                    {
                        "number": 64,
                        "time": 234.38241627499988,
                        "value": 1
                    },
                    {
                        "number": 64,
                        "time": 234.77637853333323,
                        "value": 0
                    },
                    {
                        "number": 64,
                        "time": 234.83919711666655,
                        "value": 1
                    },
                    {
                        "number": 64,
                        "time": 235.20444230833323,
                        "value": 0
                    },
                    {
                        "number": 64,
                        "time": 235.2546971749999,
                        "value": 1
                    },
                    {
                        "number": 64,
                        "time": 235.6396853499999,
                        "value": 0
                    },
                    {
                        "number": 64,
                        "time": 235.69532466666655,
                        "value": 1
                    },
                    {
                        "number": 64,
                        "time": 236.0704413499999,
                        "value": 0
                    },
                    {
                        "number": 64,
                        "time": 236.13684956666657,
                        "value": 1
                    },
                    {
                        "number": 64,
                        "time": 236.50209475833324,
                        "value": 0
                    },
                    {
                        "number": 64,
                        "time": 236.5927329999999,
                        "value": 1
                    },
                    {
                        "number": 64,
                        "time": 236.92477408333323,
                        "value": 0
                    },
                    {
                        "number": 64,
                        "time": 236.99836156666657,
                        "value": 1
                    },
                    {
                        "number": 64,
                        "time": 237.3600171249999,
                        "value": 0
                    },
                    {
                        "number": 64,
                        "time": 237.40399013333322,
                        "value": 1
                    },
                    {
                        "number": 64,
                        "time": 237.79256794166656,
                        "value": 0
                    },
                    {
                        "number": 64,
                        "time": 237.82397723333324,
                        "value": 1
                    },
                    {
                        "number": 64,
                        "time": 238.2188368999999,
                        "value": 0
                    },
                    {
                        "number": 64,
                        "time": 238.2753736249999,
                        "value": 1
                    },
                    {
                        "number": 64,
                        "time": 238.65318253333322,
                        "value": 0
                    },
                    {
                        "number": 64,
                        "time": 238.71510370833323,
                        "value": 1
                    },
                    {
                        "number": 64,
                        "time": 239.51200230833322,
                        "value": 0
                    },
                    {
                        "number": 64,
                        "time": 239.56405199166656,
                        "value": 1
                    },
                    {
                        "number": 64,
                        "time": 239.94814275833323,
                        "value": 0
                    },
                    {
                        "number": 64,
                        "time": 240.0010898499999,
                        "value": 1
                    },
                    {
                        "number": 64,
                        "time": 240.3780013499999,
                        "value": 0
                    },
                    {
                        "number": 64,
                        "time": 240.4381277083332,
                        "value": 1
                    },
                    {
                        "number": 64,
                        "time": 241.23323149166654,
                        "value": 0
                    },
                    {
                        "number": 64,
                        "time": 241.29335784999986,
                        "value": 1
                    },
                    {
                        "number": 64,
                        "time": 241.6711667583332,
                        "value": 0
                    },
                    {
                        "number": 64,
                        "time": 241.75552314166652,
                        "value": 1
                    },
                    {
                        "number": 64,
                        "time": 242.09743571666652,
                        "value": 0
                    },
                    {
                        "number": 64,
                        "time": 242.14858799166652,
                        "value": 1
                    },
                    {
                        "number": 64,
                        "time": 242.95715289999984,
                        "value": 0
                    },
                    {
                        "number": 64,
                        "time": 242.99125441666652,
                        "value": 1
                    },
                    {
                        "number": 64,
                        "time": 243.3914985333332,
                        "value": 0
                    },
                    {
                        "number": 64,
                        "time": 243.45970156666652,
                        "value": 1
                    },
                    {
                        "number": 64,
                        "time": 243.8222545333332,
                        "value": 0
                    },
                    {
                        "number": 64,
                        "time": 243.86981717499987,
                        "value": 1
                    },
                    {
                        "number": 64,
                        "time": 244.25480534999986,
                        "value": 0
                    },
                    {
                        "number": 64,
                        "time": 244.30595762499985,
                        "value": 1
                    },
                    {
                        "number": 64,
                        "time": 244.6756898583332,
                        "value": 0
                    },
                    {
                        "number": 64,
                        "time": 244.73940584999986,
                        "value": 1
                    },
                    {
                        "number": 64,
                        "time": 245.1127277166665,
                        "value": 0
                    },
                    {
                        "number": 64,
                        "time": 245.1827255666665,
                        "value": 1
                    },
                    {
                        "number": 64,
                        "time": 245.54527853333317,
                        "value": 0
                    },
                    {
                        "number": 64,
                        "time": 245.59284117499985,
                        "value": 1
                    },
                    {
                        "number": 64,
                        "time": 245.97693194166652,
                        "value": 0
                    },
                    {
                        "number": 64,
                        "time": 246.03885311666653,
                        "value": 1
                    },
                    {
                        "number": 64,
                        "time": 246.40589312499986,
                        "value": 0
                    },
                    {
                        "number": 64,
                        "time": 246.44896872499987,
                        "value": 1
                    },
                    {
                        "number": 64,
                        "time": 246.83844394166653,
                        "value": 0
                    },
                    {
                        "number": 64,
                        "time": 246.90574956666651,
                        "value": 1
                    },
                    {
                        "number": 64,
                        "time": 247.26650771666652,
                        "value": 0
                    },
                    {
                        "number": 64,
                        "time": 247.32394184999987,
                        "value": 1
                    },
                    {
                        "number": 64,
                        "time": 247.70264816666653,
                        "value": 0
                    },
                    {
                        "number": 64,
                        "time": 247.77354342499987,
                        "value": 1
                    },
                    {
                        "number": 64,
                        "time": 248.13071194166653,
                        "value": 0
                    },
                    {
                        "number": 64,
                        "time": 248.1917357083332,
                        "value": 1
                    },
                    {
                        "number": 64,
                        "time": 248.55608349166653,
                        "value": 0
                    },
                    {
                        "number": 64,
                        "time": 248.6224917083332,
                        "value": 1
                    },
                    {
                        "number": 64,
                        "time": 248.99042912499988,
                        "value": 0
                    },
                    {
                        "number": 64,
                        "time": 249.0155565583332,
                        "value": 1
                    },
                    {
                        "number": 64,
                        "time": 249.41490326666653,
                        "value": 0
                    },
                    {
                        "number": 64,
                        "time": 249.45887627499985,
                        "value": 1
                    },
                    {
                        "number": 64,
                        "time": 249.62848644999985,
                        "value": 0
                    },
                    {
                        "number": 64,
                        "time": 250.74486241666654,
                        "value": 1
                    },
                    {
                        "number": 64,
                        "time": 251.14600394166655,
                        "value": 0
                    },
                    {
                        "number": 64,
                        "time": 251.2195914249999,
                        "value": 1
                    },
                    {
                        "number": 64,
                        "time": 251.57406771666655,
                        "value": 0
                    },
                    {
                        "number": 64,
                        "time": 251.62521999166654,
                        "value": 1
                    },
                    {
                        "number": 64,
                        "time": 252.00751594166655,
                        "value": 0
                    },
                    {
                        "number": 64,
                        "time": 252.06853970833322,
                        "value": 1
                    },
                    {
                        "number": 64,
                        "time": 252.43019526666654,
                        "value": 0
                    },
                    {
                        "number": 64,
                        "time": 252.48045013333322,
                        "value": 1
                    },
                    {
                        "number": 64,
                        "time": 252.86992534999987,
                        "value": 0
                    },
                    {
                        "number": 64,
                        "time": 252.9327439333332,
                        "value": 1
                    },
                    {
                        "number": 64,
                        "time": 253.07453444999987,
                        "value": 0
                    },
                    {
                        "number": 64,
                        "time": 254.19360264166653,
                        "value": 1
                    },
                    {
                        "number": 64,
                        "time": 254.80832734999987,
                        "value": 0
                    },
                    {
                        "number": 64,
                        "time": 255.90406292499986,
                        "value": 1
                    },
                    {
                        "number": 64,
                        "time": 256.52058244999984,
                        "value": 0
                    },
                    {
                        "number": 64,
                        "time": 257.6243946999998,
                        "value": 1
                    },
                    {
                        "number": 64,
                        "time": 258.24181163333316,
                        "value": 0
                    },
                    {
                        "number": 64,
                        "time": 259.3869046666665,
                        "value": 1
                    },
                    {
                        "number": 64,
                        "time": 262.76115999999985,
                        "value": 0
                    },
                    {
                        "number": 64,
                        "time": 262.79705633333316,
                        "value": 1
                    },
                    {
                        "number": 64,
                        "time": 263.20447971666647,
                        "value": 0
                    },
                    {
                        "number": 64,
                        "time": 263.25383717499983,
                        "value": 1
                    },
                    {
                        "number": 64,
                        "time": 263.6379279416665,
                        "value": 0
                    },
                    {
                        "number": 64,
                        "time": 263.6792087249998,
                        "value": 1
                    },
                    {
                        "number": 64,
                        "time": 264.0677865333331,
                        "value": 0
                    },
                    {
                        "number": 64,
                        "time": 264.13598956666647,
                        "value": 1
                    },
                    {
                        "number": 64,
                        "time": 264.5048243916665,
                        "value": 0
                    },
                    {
                        "number": 64,
                        "time": 270.76155529166647,
                        "value": 1
                    },
                    {
                        "number": 64,
                        "time": 270.9562928999998,
                        "value": 0
                    },
                    {
                        "number": 64,
                        "time": 270.9966762749998,
                        "value": 1
                    },
                    {
                        "number": 64,
                        "time": 271.3834592666665,
                        "value": 0
                    },
                    {
                        "number": 64,
                        "time": 271.44807266666646,
                        "value": 1
                    },
                    {
                        "number": 64,
                        "time": 272.24586867499977,
                        "value": 0
                    },
                    {
                        "number": 64,
                        "time": 272.3203535666664,
                        "value": 1
                    },
                    {
                        "number": 64,
                        "time": 273.1091754916664,
                        "value": 0
                    },
                    {
                        "number": 64,
                        "time": 273.1504562749997,
                        "value": 1
                    },
                    {
                        "number": 64,
                        "time": 273.97248230833304,
                        "value": 0
                    },
                    {
                        "number": 64,
                        "time": 274.0245319916664,
                        "value": 1
                    },
                    {
                        "number": 64,
                        "time": 274.83399430833305,
                        "value": 0
                    },
                    {
                        "number": 64,
                        "time": 274.8788647249997,
                        "value": 1
                    },
                    {
                        "number": 64,
                        "time": 275.692814083333,
                        "value": 0
                    },
                    {
                        "number": 64,
                        "time": 275.7457611749997,
                        "value": 1
                    },
                    {
                        "number": 64,
                        "time": 276.5606079416664,
                        "value": 0
                    },
                    {
                        "number": 64,
                        "time": 276.6171446666664,
                        "value": 1
                    },
                    {
                        "number": 64,
                        "time": 277.415838083333,
                        "value": 0
                    },
                    {
                        "number": 64,
                        "time": 277.4687851749997,
                        "value": 1
                    },
                    {
                        "number": 64,
                        "time": 278.2836319416664,
                        "value": 0
                    },
                    {
                        "number": 64,
                        "time": 278.2997852916664,
                        "value": 1
                    },
                    {
                        "number": 64,
                        "time": 279.13796467499975,
                        "value": 0
                    },
                    {
                        "number": 64,
                        "time": 279.1936039916664,
                        "value": 1
                    },
                    {
                        "number": 64,
                        "time": 280.00575853333305,
                        "value": 0
                    },
                    {
                        "number": 64,
                        "time": 280.05870562499973,
                        "value": 1
                    },
                    {
                        "number": 64,
                        "time": 280.86188608333305,
                        "value": 0
                    },
                    {
                        "number": 64,
                        "time": 280.92919170833306,
                        "value": 1
                    },
                    {
                        "number": 64,
                        "time": 281.7269877166664,
                        "value": 0
                    },
                    {
                        "number": 64,
                        "time": 281.77634517499973,
                        "value": 1
                    },
                    {
                        "number": 64,
                        "time": 282.1559488999997,
                        "value": 0
                    },
                    {
                        "number": 64,
                        "time": 282.2223571166664,
                        "value": 1
                    },
                    {
                        "number": 64,
                        "time": 282.5893971249997,
                        "value": 0
                    },
                    {
                        "number": 64,
                        "time": 282.6270882749997,
                        "value": 1
                    },
                    {
                        "number": 64,
                        "time": 283.0219479416664,
                        "value": 0
                    },
                    {
                        "number": 64,
                        "time": 283.0784846666664,
                        "value": 1
                    },
                    {
                        "number": 64,
                        "time": 283.44911430833304,
                        "value": 0
                    },
                    {
                        "number": 64,
                        "time": 283.4939847249997,
                        "value": 1
                    },
                    {
                        "number": 64,
                        "time": 283.8843573499997,
                        "value": 0
                    },
                    {
                        "number": 64,
                        "time": 283.93550962499967,
                        "value": 1
                    },
                    {
                        "number": 64,
                        "time": 284.307934083333,
                        "value": 0
                    },
                    {
                        "number": 64,
                        "time": 284.3501122749997,
                        "value": 1
                    },
                    {
                        "number": 64,
                        "time": 284.7458693499997,
                        "value": 0
                    },
                    {
                        "number": 64,
                        "time": 284.7808682749997,
                        "value": 1
                    },
                    {
                        "number": 64,
                        "time": 285.1685486749997,
                        "value": 0
                    },
                    {
                        "number": 64,
                        "time": 285.4521297083331,
                        "value": 1
                    },
                    {
                        "number": 64,
                        "time": 285.90173128333305,
                        "value": 0
                    },
                    {
                        "number": 64,
                        "time": 286.34056395833306,
                        "value": 1
                    },
                    {
                        "number": 64,
                        "time": 286.7910629416664,
                        "value": 0
                    },
                    {
                        "number": 64,
                        "time": 287.19669150833306,
                        "value": 1
                    },
                    {
                        "number": 64,
                        "time": 287.68398423333304,
                        "value": 0
                    },
                    {
                        "number": 64,
                        "time": 288.9233051416664,
                        "value": 1
                    },
                    {
                        "number": 64,
                        "time": 289.3791885749997,
                        "value": 0
                    },
                    {
                        "number": 64,
                        "time": 289.7399467249997,
                        "value": 1
                    },
                    {
                        "number": 64,
                        "time": 290.24787984166636,
                        "value": 0
                    },
                    {
                        "number": 64,
                        "time": 290.64812395833303,
                        "value": 1
                    },
                    {
                        "number": 64,
                        "time": 291.11926333333304,
                        "value": 0
                    },
                    {
                        "number": 64,
                        "time": 292.3352516249997,
                        "value": 1
                    },
                    {
                        "number": 64,
                        "time": 292.82703139166637,
                        "value": 0
                    },
                    {
                        "number": 64,
                        "time": 293.1859947249997,
                        "value": 1
                    },
                    {
                        "number": 64,
                        "time": 293.6939278416664,
                        "value": 0
                    },
                    {
                        "number": 64,
                        "time": 294.07353156666636,
                        "value": 1
                    },
                    {
                        "number": 64,
                        "time": 294.5401838999997,
                        "value": 0
                    },
                    {
                        "number": 64,
                        "time": 295.81540114166637,
                        "value": 1
                    },
                    {
                        "number": 64,
                        "time": 296.2335934249997,
                        "value": 0
                    },
                    {
                        "number": 64,
                        "time": 296.66255460833304,
                        "value": 1
                    },
                    {
                        "number": 64,
                        "time": 297.1345913916664,
                        "value": 0
                    },
                    {
                        "number": 64,
                        "time": 297.52406660833304,
                        "value": 1
                    },
                    {
                        "number": 64,
                        "time": 298.0014878416664,
                        "value": 0
                    },
                    {
                        "number": 64,
                        "time": 299.0649167166664,
                        "value": 1
                    },
                    {
                        "number": 64,
                        "time": 299.3906759416664,
                        "value": 0
                    },
                    {
                        "number": 64,
                        "time": 299.4454178499997,
                        "value": 1
                    },
                    {
                        "number": 64,
                        "time": 299.81515008333304,
                        "value": 0
                    },
                    {
                        "number": 64,
                        "time": 299.86989199166635,
                        "value": 1
                    },
                    {
                        "number": 64,
                        "time": 300.2530853499997,
                        "value": 0
                    },
                    {
                        "number": 64,
                        "time": 300.3194935666664,
                        "value": 1
                    },
                    {
                        "number": 64,
                        "time": 300.67666208333304,
                        "value": 0
                    },
                    {
                        "number": 64,
                        "time": 300.7296091749997,
                        "value": 1
                    },
                    {
                        "number": 64,
                        "time": 301.11369994166637,
                        "value": 0
                    },
                    {
                        "number": 64,
                        "time": 301.1756211166664,
                        "value": 1
                    },
                    {
                        "number": 64,
                        "time": 301.53817408333305,
                        "value": 0
                    },
                    {
                        "number": 64,
                        "time": 301.5857367249997,
                        "value": 1
                    },
                    {
                        "number": 64,
                        "time": 301.9707248999997,
                        "value": 0
                    },
                    {
                        "number": 64,
                        "time": 302.0218771749997,
                        "value": 1
                    },
                    {
                        "number": 64,
                        "time": 302.4005834916664,
                        "value": 0
                    },
                    {
                        "number": 64,
                        "time": 302.4472487249997,
                        "value": 1
                    },
                    {
                        "number": 64,
                        "time": 302.83492912499975,
                        "value": 0
                    },
                    {
                        "number": 64,
                        "time": 302.8986451166664,
                        "value": 1
                    },
                    {
                        "number": 64,
                        "time": 303.2674799416664,
                        "value": 0
                    },
                    {
                        "number": 64,
                        "time": 303.30876072499973,
                        "value": 1
                    },
                    {
                        "number": 64,
                        "time": 303.69464630833306,
                        "value": 0
                    },
                    {
                        "number": 64,
                        "time": 303.7395167249997,
                        "value": 1
                    },
                    {
                        "number": 64,
                        "time": 304.1298893499997,
                        "value": 0
                    },
                    {
                        "number": 64,
                        "time": 304.18552866666636,
                        "value": 1
                    },
                    {
                        "number": 64,
                        "time": 304.5606453499997,
                        "value": 0
                    },
                    {
                        "number": 64,
                        "time": 304.60641317499966,
                        "value": 1
                    },
                    {
                        "number": 64,
                        "time": 304.984222083333,
                        "value": 0
                    },
                    {
                        "number": 64,
                        "time": 305.0264002749997,
                        "value": 1
                    },
                    {
                        "number": 64,
                        "time": 305.41677289999967,
                        "value": 0
                    },
                    {
                        "number": 64,
                        "time": 305.46254072499966,
                        "value": 1
                    },
                    {
                        "number": 64,
                        "time": 305.845734083333,
                        "value": 0
                    },
                    {
                        "number": 64,
                        "time": 305.878040783333,
                        "value": 1
                    },
                    {
                        "number": 64,
                        "time": 306.281874533333,
                        "value": 0
                    },
                    {
                        "number": 64,
                        "time": 306.32943717499967,
                        "value": 1
                    },
                    {
                        "number": 64,
                        "time": 306.71083571666634,
                        "value": 0
                    },
                    {
                        "number": 64,
                        "time": 306.76198799166633,
                        "value": 1
                    },
                    {
                        "number": 64,
                        "time": 307.14428394166634,
                        "value": 0
                    },
                    {
                        "number": 64,
                        "time": 309.34652399166634,
                        "value": 1
                    },
                    {
                        "number": 64,
                        "time": 309.727922533333,
                        "value": 0
                    },
                    {
                        "number": 64,
                        "time": 309.789843708333,
                        "value": 1
                    },
                    {
                        "number": 64,
                        "time": 310.155986308333,
                        "value": 0
                    },
                    {
                        "number": 64,
                        "time": 310.2143178499997,
                        "value": 1
                    },
                    {
                        "number": 64,
                        "time": 310.5912293499997,
                        "value": 0
                    },
                    {
                        "number": 64,
                        "time": 310.66391942499973,
                        "value": 1
                    },
                    {
                        "number": 64,
                        "time": 311.0174983083331,
                        "value": 0
                    },
                    {
                        "number": 64,
                        "time": 311.0677531749997,
                        "value": 1
                    },
                    {
                        "number": 64,
                        "time": 311.45184394166637,
                        "value": 0
                    },
                    {
                        "number": 64,
                        "time": 311.50838066666637,
                        "value": 1
                    },
                    {
                        "number": 64,
                        "time": 311.87631808333305,
                        "value": 0
                    },
                    {
                        "number": 64,
                        "time": 311.9373418499997,
                        "value": 1
                    },
                    {
                        "number": 64,
                        "time": 312.31245853333303,
                        "value": 0
                    },
                    {
                        "number": 64,
                        "time": 312.3869434249997,
                        "value": 1
                    },
                    {
                        "number": 64,
                        "time": 312.74141971666637,
                        "value": 0
                    },
                    {
                        "number": 64,
                        "time": 312.79077717499973,
                        "value": 1
                    },
                    {
                        "number": 64,
                        "time": 313.17666275833307,
                        "value": 0
                    },
                    {
                        "number": 64,
                        "time": 313.24666060833306,
                        "value": 1
                    },
                    {
                        "number": 64,
                        "time": 313.60113689999974,
                        "value": 0
                    },
                    {
                        "number": 64,
                        "time": 313.65767362499975,
                        "value": 1
                    },
                    {
                        "number": 64,
                        "time": 314.0354825333331,
                        "value": 0
                    },
                    {
                        "number": 64,
                        "time": 314.09830111666645,
                        "value": 1
                    },
                    {
                        "number": 64,
                        "time": 314.4662385333331,
                        "value": 0
                    },
                    {
                        "number": 64,
                        "time": 314.53892860833315,
                        "value": 1
                    },
                    {
                        "number": 64,
                        "time": 316.88834362499983,
                        "value": 0
                    },
                    {
                        "number": 64,
                        "time": 317.9903610583332,
                        "value": 1
                    },
                    {
                        "number": 64,
                        "time": 320.3541346083332,
                        "value": 0
                    },
                    {
                        "number": 64,
                        "time": 321.4211531166665,
                        "value": 1
                    },
                    {
                        "number": 64,
                        "time": 322.6999599916665,
                        "value": 0
                    },
                    {
                        "number": 64,
                        "time": 323.1495615666665,
                        "value": 1
                    },
                    {
                        "number": 64,
                        "time": 324.37183171666646,
                        "value": 0
                    },
                    {
                        "number": 64,
                        "time": 324.8519451749998,
                        "value": 1
                    },
                    {
                        "number": 64,
                        "time": 326.0948557166665,
                        "value": 0
                    },
                    {
                        "number": 64,
                        "time": 326.5543287833331,
                        "value": 1
                    },
                    {
                        "number": 64,
                        "time": 327.82595639166647,
                        "value": 0
                    },
                    {
                        "number": 64,
                        "time": 328.3285050583331,
                        "value": 1
                    },
                    {
                        "number": 64,
                        "time": 338.5742159999998,
                        "value": 0
                    },
                    {
                        "number": 64,
                        "time": 338.9098467166665,
                        "value": 1
                    },
                    {
                        "number": 64,
                        "time": 340.2972399999998,
                        "value": 0
                    },
                    {
                        "number": 64,
                        "time": 340.4749268499998,
                        "value": 1
                    },
                    {
                        "number": 64,
                        "time": 345.4734912666665,
                        "value": 0
                    },
                    {
                        "number": 64,
                        "time": 356.4766148416665,
                        "value": 1
                    },
                    {
                        "number": 64,
                        "time": 356.67404467499983,
                        "value": 0
                    },
                    {
                        "number": 64,
                        "time": 356.7431451166665,
                        "value": 1
                    },
                    {
                        "number": 64,
                        "time": 357.1101851249998,
                        "value": 0
                    },
                    {
                        "number": 64,
                        "time": 357.1685166666665,
                        "value": 1
                    },
                    {
                        "number": 64,
                        "time": 357.5373514916665,
                        "value": 0
                    },
                    {
                        "number": 64,
                        "time": 357.59927266666654,
                        "value": 1
                    },
                    {
                        "number": 64,
                        "time": 357.9699023083332,
                        "value": 0
                    },
                    {
                        "number": 64,
                        "time": 358.0407975666665,
                        "value": 1
                    },
                    {
                        "number": 64,
                        "time": 358.3997608999999,
                        "value": 0
                    },
                    {
                        "number": 64,
                        "time": 358.46078466666654,
                        "value": 1
                    },
                    {
                        "number": 64,
                        "time": 358.83590134999986,
                        "value": 0
                    },
                    {
                        "number": 64,
                        "time": 358.9067966083332,
                        "value": 1
                    },
                    {
                        "number": 64,
                        "time": 359.2648625333332,
                        "value": 0
                    },
                    {
                        "number": 64,
                        "time": 359.32050184999986,
                        "value": 1
                    },
                    {
                        "number": 64,
                        "time": 360.12727194166655,
                        "value": 0
                    },
                    {
                        "number": 64,
                        "time": 360.20085942499986,
                        "value": 1
                    },
                    {
                        "number": 64,
                        "time": 360.9842968999999,
                        "value": 0
                    },
                    {
                        "number": 64,
                        "time": 361.0408336249999,
                        "value": 1
                    },
                    {
                        "number": 64,
                        "time": 361.8476037166666,
                        "value": 0
                    },
                    {
                        "number": 64,
                        "time": 361.9579849416666,
                        "value": 1
                    },
                    {
                        "number": 64,
                        "time": 362.28194934999993,
                        "value": 0
                    },
                    {
                        "number": 64,
                        "time": 362.3429731166666,
                        "value": 1
                    },
                    {
                        "number": 64,
                        "time": 362.7118079416666,
                        "value": 0
                    },
                    {
                        "number": 64,
                        "time": 362.83565029166664,
                        "value": 1
                    },
                    {
                        "number": 64,
                        "time": 363.571525125,
                        "value": 0
                    },
                    {
                        "number": 64,
                        "time": 363.6451126083333,
                        "value": 1
                    },
                    {
                        "number": 64,
                        "time": 364.4366267583333,
                        "value": 0
                    },
                    {
                        "number": 64,
                        "time": 364.55867429166665,
                        "value": 1
                    },
                    {
                        "number": 64,
                        "time": 365.289164675,
                        "value": 0
                    },
                    {
                        "number": 64,
                        "time": 365.38428995833334,
                        "value": 1
                    },
                    {
                        "number": 64,
                        "time": 365.7262025333333,
                        "value": 0
                    },
                    {
                        "number": 64,
                        "time": 365.78363666666667,
                        "value": 1
                    },
                    {
                        "number": 64,
                        "time": 366.156061125,
                        "value": 0
                    },
                    {
                        "number": 64,
                        "time": 366.2143926666667,
                        "value": 1
                    },
                    {
                        "number": 64,
                        "time": 367.0193679416667,
                        "value": 0
                    },
                    {
                        "number": 64,
                        "time": 367.1270569416667,
                        "value": 1
                    },
                    {
                        "number": 64,
                        "time": 367.88177735000005,
                        "value": 0
                    },
                    {
                        "number": 64,
                        "time": 367.9526726083334,
                        "value": 1
                    },
                    {
                        "number": 64,
                        "time": 368.7343152666667,
                        "value": 0
                    },
                    {
                        "number": 64,
                        "time": 369.6460821333334,
                        "value": 1
                    },
                    {
                        "number": 64,
                        "time": 370.46092890000006,
                        "value": 0
                    },
                    {
                        "number": 64,
                        "time": 370.5219526666667,
                        "value": 1
                    },
                    {
                        "number": 64,
                        "time": 371.32782535000007,
                        "value": 0
                    },
                    {
                        "number": 64,
                        "time": 371.4005154250001,
                        "value": 1
                    },
                    {
                        "number": 64,
                        "time": 372.1848503083334,
                        "value": 0
                    },
                    {
                        "number": 64,
                        "time": 372.2620274250001,
                        "value": 1
                    },
                    {
                        "number": 64,
                        "time": 373.0454649000001,
                        "value": 0
                    },
                    {
                        "number": 64,
                        "time": 373.0966171750001,
                        "value": 1
                    },
                    {
                        "number": 64,
                        "time": 373.4762209000001,
                        "value": 0
                    },
                    {
                        "number": 64,
                        "time": 373.5426291166668,
                        "value": 1
                    },
                    {
                        "number": 64,
                        "time": 373.90697690000013,
                        "value": 0
                    },
                    {
                        "number": 64,
                        "time": 373.96351362500013,
                        "value": 1
                    },
                    {
                        "number": 64,
                        "time": 374.7747707583335,
                        "value": 0
                    },
                    {
                        "number": 64,
                        "time": 374.8295126666668,
                        "value": 1
                    },
                    {
                        "number": 64,
                        "time": 375.62820608333345,
                        "value": 0
                    },
                    {
                        "number": 64,
                        "time": 375.68653762500014,
                        "value": 1
                    },
                    {
                        "number": 64,
                        "time": 376.4977947583335,
                        "value": 0
                    },
                    {
                        "number": 64,
                        "time": 376.5372807250002,
                        "value": 1
                    },
                    {
                        "number": 64,
                        "time": 376.9222689000002,
                        "value": 0
                    },
                    {
                        "number": 64,
                        "time": 376.98867711666685,
                        "value": 1
                    },
                    {
                        "number": 64,
                        "time": 377.3530249000002,
                        "value": 0
                    },
                    {
                        "number": 64,
                        "time": 377.4140486666669,
                        "value": 1
                    },
                    {
                        "number": 64,
                        "time": 378.2163317166669,
                        "value": 0
                    },
                    {
                        "number": 64,
                        "time": 378.2809451166669,
                        "value": 1
                    },
                    {
                        "number": 64,
                        "time": 379.0760489000002,
                        "value": 0
                    },
                    {
                        "number": 64,
                        "time": 379.11194523333353,
                        "value": 1
                    },
                    {
                        "number": 64,
                        "time": 379.9375609000002,
                        "value": 0
                    },
                    {
                        "number": 64,
                        "time": 379.9887131750002,
                        "value": 1
                    },
                    {
                        "number": 64,
                        "time": 380.8035599416669,
                        "value": 0
                    },
                    {
                        "number": 64,
                        "time": 380.8600966666669,
                        "value": 1
                    },
                    {
                        "number": 64,
                        "time": 381.66058490000023,
                        "value": 0
                    },
                    {
                        "number": 64,
                        "time": 381.71712162500023,
                        "value": 1
                    },
                    {
                        "number": 64,
                        "time": 382.5265839416669,
                        "value": 0
                    },
                    {
                        "number": 64,
                        "time": 382.5885051166669,
                        "value": 1
                    },
                    {
                        "number": 64,
                        "time": 383.3827114916669,
                        "value": 0
                    },
                    {
                        "number": 64,
                        "time": 383.46796528333357,
                        "value": 1
                    },
                    {
                        "number": 64,
                        "time": 384.2496079416669,
                        "value": 0
                    },
                    {
                        "number": 64,
                        "time": 384.3043498500002,
                        "value": 1
                    },
                    {
                        "number": 64,
                        "time": 385.1039406750002,
                        "value": 0
                    },
                    {
                        "number": 64,
                        "time": 385.1721437083336,
                        "value": 1
                    },
                    {
                        "number": 64,
                        "time": 385.9744267583336,
                        "value": 0
                    },
                    {
                        "number": 64,
                        "time": 386.02109199166694,
                        "value": 1
                    },
                    {
                        "number": 64,
                        "time": 386.82965690000026,
                        "value": 0
                    },
                    {
                        "number": 64,
                        "time": 386.8682454583336,
                        "value": 1
                    },
                    {
                        "number": 64,
                        "time": 387.6902714916669,
                        "value": 0
                    },
                    {
                        "number": 64,
                        "time": 387.7270652333336,
                        "value": 1
                    },
                    {
                        "number": 64,
                        "time": 388.55268090000027,
                        "value": 0
                    },
                    {
                        "number": 64,
                        "time": 388.59485909166693,
                        "value": 1
                    },
                    {
                        "number": 64,
                        "time": 389.4204747583336,
                        "value": 0
                    },
                    {
                        "number": 64,
                        "time": 389.45637109166694,
                        "value": 1
                    },
                    {
                        "number": 64,
                        "time": 390.2757049000003,
                        "value": 0
                    },
                    {
                        "number": 64,
                        "time": 390.32685717500027,
                        "value": 1
                    },
                    {
                        "number": 64,
                        "time": 391.1354220833336,
                        "value": 0
                    },
                    {
                        "number": 64,
                        "time": 391.19824066666695,
                        "value": 1
                    },
                    {
                        "number": 64,
                        "time": 391.99783149166694,
                        "value": 0
                    },
                    {
                        "number": 64,
                        "time": 392.05975266666695,
                        "value": 1
                    },
                    {
                        "number": 64,
                        "time": 392.85754867500026,
                        "value": 0
                    },
                    {
                        "number": 64,
                        "time": 392.9266491166669,
                        "value": 1
                    },
                    {
                        "number": 64,
                        "time": 393.7181632666669,
                        "value": 0
                    },
                    {
                        "number": 64,
                        "time": 393.7675207250003,
                        "value": 1
                    },
                    {
                        "number": 64,
                        "time": 394.5841623083336,
                        "value": 0
                    },
                    {
                        "number": 64,
                        "time": 394.6236482750003,
                        "value": 1
                    },
                    {
                        "number": 64,
                        "time": 395.01581571666696,
                        "value": 0
                    },
                    {
                        "number": 64,
                        "time": 395.07504466666694,
                        "value": 1
                    },
                    {
                        "number": 64,
                        "time": 395.44657171666694,
                        "value": 0
                    },
                    {
                        "number": 64,
                        "time": 395.50131362500025,
                        "value": 1
                    },
                    {
                        "number": 64,
                        "time": 396.30808371666694,
                        "value": 0
                    },
                    {
                        "number": 64,
                        "time": 396.3520567250003,
                        "value": 1
                    },
                    {
                        "number": 64,
                        "time": 396.74332675833364,
                        "value": 0
                    },
                    {
                        "number": 64,
                        "time": 396.7774282750003,
                        "value": 1
                    },
                    {
                        "number": 64,
                        "time": 397.164211266667,
                        "value": 0
                    },
                    {
                        "number": 64,
                        "time": 397.20818427500035,
                        "value": 1
                    },
                    {
                        "number": 64,
                        "time": 398.0293129000004,
                        "value": 0
                    },
                    {
                        "number": 64,
                        "time": 398.06969627500035,
                        "value": 1
                    },
                    {
                        "number": 64,
                        "time": 398.46365853333367,
                        "value": 0
                    },
                    {
                        "number": 64,
                        "time": 398.526477116667,
                        "value": 1
                    },
                    {
                        "number": 64,
                        "time": 398.89172230833367,
                        "value": 0
                    },
                    {
                        "number": 64,
                        "time": 398.9419771750003,
                        "value": 1
                    },
                    {
                        "number": 64,
                        "time": 399.3269653500003,
                        "value": 0
                    },
                    {
                        "number": 64,
                        "time": 399.38260466666696,
                        "value": 1
                    },
                    {
                        "number": 64,
                        "time": 399.7577213500003,
                        "value": 0
                    },
                    {
                        "number": 64,
                        "time": 399.82412956666695,
                        "value": 1
                    },
                    {
                        "number": 64,
                        "time": 400.1893747583336,
                        "value": 0
                    },
                    {
                        "number": 64,
                        "time": 400.2800130000003,
                        "value": 1
                    },
                    {
                        "number": 64,
                        "time": 400.6120540833336,
                        "value": 0
                    },
                    {
                        "number": 64,
                        "time": 400.6856415666669,
                        "value": 1
                    },
                    {
                        "number": 64,
                        "time": 401.0472971250002,
                        "value": 0
                    },
                    {
                        "number": 64,
                        "time": 401.0912701333336,
                        "value": 1
                    },
                    {
                        "number": 64,
                        "time": 401.4798479416669,
                        "value": 0
                    },
                    {
                        "number": 64,
                        "time": 401.51125723333354,
                        "value": 1
                    },
                    {
                        "number": 64,
                        "time": 401.9061169000002,
                        "value": 0
                    },
                    {
                        "number": 64,
                        "time": 401.9626536250002,
                        "value": 1
                    },
                    {
                        "number": 64,
                        "time": 402.34046253333355,
                        "value": 0
                    },
                    {
                        "number": 64,
                        "time": 402.40238370833356,
                        "value": 1
                    },
                    {
                        "number": 64,
                        "time": 403.1992823083336,
                        "value": 0
                    },
                    {
                        "number": 64,
                        "time": 403.2513319916669,
                        "value": 1
                    },
                    {
                        "number": 64,
                        "time": 403.63542275833356,
                        "value": 0
                    },
                    {
                        "number": 64,
                        "time": 403.68836985000024,
                        "value": 1
                    },
                    {
                        "number": 64,
                        "time": 404.06528135000025,
                        "value": 0
                    },
                    {
                        "number": 64,
                        "time": 404.12540770833357,
                        "value": 1
                    },
                    {
                        "number": 64,
                        "time": 404.9205114916669,
                        "value": 0
                    },
                    {
                        "number": 64,
                        "time": 404.9806378500002,
                        "value": 1
                    },
                    {
                        "number": 64,
                        "time": 405.35844675833357,
                        "value": 0
                    },
                    {
                        "number": 64,
                        "time": 405.4428031416669,
                        "value": 1
                    },
                    {
                        "number": 64,
                        "time": 405.7847157166669,
                        "value": 0
                    },
                    {
                        "number": 64,
                        "time": 405.8358679916669,
                        "value": 1
                    },
                    {
                        "number": 64,
                        "time": 406.6444329000002,
                        "value": 0
                    },
                    {
                        "number": 64,
                        "time": 406.6785344166669,
                        "value": 1
                    },
                    {
                        "number": 64,
                        "time": 407.07877853333355,
                        "value": 0
                    },
                    {
                        "number": 64,
                        "time": 407.1469815666669,
                        "value": 1
                    },
                    {
                        "number": 64,
                        "time": 407.5095345333336,
                        "value": 0
                    },
                    {
                        "number": 64,
                        "time": 407.55709717500025,
                        "value": 1
                    },
                    {
                        "number": 64,
                        "time": 407.94208535000024,
                        "value": 0
                    },
                    {
                        "number": 64,
                        "time": 407.99323762500023,
                        "value": 1
                    },
                    {
                        "number": 64,
                        "time": 408.36296985833354,
                        "value": 0
                    },
                    {
                        "number": 64,
                        "time": 408.4266858500002,
                        "value": 1
                    },
                    {
                        "number": 64,
                        "time": 408.80000771666687,
                        "value": 0
                    },
                    {
                        "number": 64,
                        "time": 408.87000556666686,
                        "value": 1
                    },
                    {
                        "number": 64,
                        "time": 409.23255853333353,
                        "value": 0
                    },
                    {
                        "number": 64,
                        "time": 409.2801211750002,
                        "value": 1
                    },
                    {
                        "number": 64,
                        "time": 409.66421194166685,
                        "value": 0
                    },
                    {
                        "number": 64,
                        "time": 409.72613311666686,
                        "value": 1
                    },
                    {
                        "number": 64,
                        "time": 410.0931731250002,
                        "value": 0
                    },
                    {
                        "number": 64,
                        "time": 410.1362487250002,
                        "value": 1
                    },
                    {
                        "number": 64,
                        "time": 410.52572394166685,
                        "value": 0
                    },
                    {
                        "number": 64,
                        "time": 410.59302956666687,
                        "value": 1
                    },
                    {
                        "number": 64,
                        "time": 410.95378771666685,
                        "value": 0
                    },
                    {
                        "number": 64,
                        "time": 411.0112218500002,
                        "value": 1
                    },
                    {
                        "number": 64,
                        "time": 411.3899281666669,
                        "value": 0
                    },
                    {
                        "number": 64,
                        "time": 411.4608234250002,
                        "value": 1
                    },
                    {
                        "number": 64,
                        "time": 411.8179919416669,
                        "value": 0
                    },
                    {
                        "number": 64,
                        "time": 411.87901570833355,
                        "value": 1
                    },
                    {
                        "number": 64,
                        "time": 412.2433634916669,
                        "value": 0
                    },
                    {
                        "number": 64,
                        "time": 412.3097717083336,
                        "value": 1
                    },
                    {
                        "number": 64,
                        "time": 412.67770912500026,
                        "value": 0
                    },
                    {
                        "number": 64,
                        "time": 412.7028365583336,
                        "value": 1
                    },
                    {
                        "number": 64,
                        "time": 413.10218326666694,
                        "value": 0
                    },
                    {
                        "number": 64,
                        "time": 413.1461562750003,
                        "value": 1
                    },
                    {
                        "number": 64,
                        "time": 413.3157664500003,
                        "value": 0
                    },
                    {
                        "number": 64,
                        "time": 414.432142416667,
                        "value": 1
                    },
                    {
                        "number": 64,
                        "time": 414.833283941667,
                        "value": 0
                    },
                    {
                        "number": 64,
                        "time": 414.9068714250003,
                        "value": 1
                    },
                    {
                        "number": 64,
                        "time": 415.261347716667,
                        "value": 0
                    },
                    {
                        "number": 64,
                        "time": 415.312499991667,
                        "value": 1
                    },
                    {
                        "number": 64,
                        "time": 415.694795941667,
                        "value": 0
                    },
                    {
                        "number": 64,
                        "time": 415.75581970833366,
                        "value": 1
                    },
                    {
                        "number": 64,
                        "time": 416.117475266667,
                        "value": 0
                    },
                    {
                        "number": 64,
                        "time": 416.16773013333363,
                        "value": 1
                    },
                    {
                        "number": 64,
                        "time": 416.5572053500003,
                        "value": 0
                    },
                    {
                        "number": 64,
                        "time": 416.62002393333364,
                        "value": 1
                    },
                    {
                        "number": 64,
                        "time": 416.7618144500003,
                        "value": 0
                    },
                    {
                        "number": 64,
                        "time": 417.880882641667,
                        "value": 1
                    },
                    {
                        "number": 64,
                        "time": 418.4956073500003,
                        "value": 0
                    },
                    {
                        "number": 64,
                        "time": 419.5913429250003,
                        "value": 1
                    },
                    {
                        "number": 64,
                        "time": 420.2078624500003,
                        "value": 0
                    },
                    {
                        "number": 64,
                        "time": 421.31167470000025,
                        "value": 1
                    },
                    {
                        "number": 64,
                        "time": 421.9290916333336,
                        "value": 0
                    },
                    {
                        "number": 64,
                        "time": 423.07418466666695,
                        "value": 1
                    },
                    {
                        "number": 64,
                        "time": 423.6646793500003,
                        "value": 0
                    },
                    {
                        "number": 64,
                        "time": 424.7828501333336,
                        "value": 1
                    },
                    {
                        "number": 64,
                        "time": 425.38590853333363,
                        "value": 0
                    },
                    {
                        "number": 64,
                        "time": 425.6057735750003,
                        "value": 1
                    },
                    {
                        "number": 64,
                        "time": 426.03024771666696,
                        "value": 0
                    },
                    {
                        "number": 64,
                        "time": 426.065246641667,
                        "value": 1
                    },
                    {
                        "number": 64,
                        "time": 426.46728557500035,
                        "value": 0
                    },
                    {
                        "number": 64,
                        "time": 426.48433633333366,
                        "value": 1
                    },
                    {
                        "number": 64,
                        "time": 426.89175971666697,
                        "value": 0
                    },
                    {
                        "number": 64,
                        "time": 426.94111717500033,
                        "value": 1
                    },
                    {
                        "number": 64,
                        "time": 427.325207941667,
                        "value": 0
                    },
                    {
                        "number": 64,
                        "time": 427.3664887250003,
                        "value": 1
                    },
                    {
                        "number": 64,
                        "time": 428.1714640000003,
                        "value": 0
                    },
                    {
                        "number": 64,
                        "time": 428.4110720250003,
                        "value": 1
                    },
                    {
                        "number": 64,
                        "time": 429.90346208333364,
                        "value": 0
                    },
                    {
                        "number": 64,
                        "time": 435.35073066666695,
                        "value": 1
                    },
                    {
                        "number": 64,
                        "time": 436.79645549166696,
                        "value": 0
                    },
                    {
                        "number": 64,
                        "time": 442.2194940500003,
                        "value": 1
                    },
                    {
                        "number": 64,
                        "time": 443.688551491667,
                        "value": 0
                    },
                    {
                        "number": 64,
                        "time": 450.7628213833337,
                        "value": 1
                    },
                    {
                        "number": 64,
                        "time": 452.3027740833337,
                        "value": 0
                    },
                    {
                        "number": 64,
                        "time": 458.36925441666705,
                        "value": 1
                    },
                    {
                        "number": 64,
                        "time": 459.1993571250004,
                        "value": 0
                    },
                    {
                        "number": 64,
                        "time": 459.28730314166705,
                        "value": 1
                    },
                    {
                        "number": 64,
                        "time": 460.0617665333337,
                        "value": 0
                    },
                    {
                        "number": 64,
                        "time": 460.13625142500035,
                        "value": 1
                    },
                    {
                        "number": 64,
                        "time": 460.92238112500036,
                        "value": 0
                    },
                    {
                        "number": 64,
                        "time": 460.99776342500036,
                        "value": 1
                    },
                    {
                        "number": 64,
                        "time": 461.78389312500036,
                        "value": 0
                    },
                    {
                        "number": 64,
                        "time": 461.852993566667,
                        "value": 1
                    },
                    {
                        "number": 64,
                        "time": 462.64271290000033,
                        "value": 0
                    },
                    {
                        "number": 64,
                        "time": 462.6938651750003,
                        "value": 1
                    },
                    {
                        "number": 64,
                        "time": 463.5149938000003,
                        "value": 0
                    },
                    {
                        "number": 64,
                        "time": 463.5499927250003,
                        "value": 1
                    },
                    {
                        "number": 64,
                        "time": 464.3711213500003,
                        "value": 0
                    },
                    {
                        "number": 64,
                        "time": 464.4168891750003,
                        "value": 1
                    },
                    {
                        "number": 64,
                        "time": 465.2326333500003,
                        "value": 0
                    },
                    {
                        "number": 64,
                        "time": 465.3053234250003,
                        "value": 1
                    },
                    {
                        "number": 64,
                        "time": 466.090555716667,
                        "value": 0
                    },
                    {
                        "number": 64,
                        "time": 466.1542717083336,
                        "value": 1
                    },
                    {
                        "number": 64,
                        "time": 466.95475994166696,
                        "value": 0
                    },
                    {
                        "number": 64,
                        "time": 467.05347485833363,
                        "value": 1
                    },
                    {
                        "number": 64,
                        "time": 467.8153745333336,
                        "value": 0
                    },
                    {
                        "number": 64,
                        "time": 467.8898594250003,
                        "value": 1
                    },
                    {
                        "number": 64,
                        "time": 468.67868135000026,
                        "value": 0
                    },
                    {
                        "number": 64,
                        "time": 468.7397051166669,
                        "value": 1
                    },
                    {
                        "number": 64,
                        "time": 469.5339114916669,
                        "value": 0
                    },
                    {
                        "number": 64,
                        "time": 469.5958326666669,
                        "value": 1
                    },
                    {
                        "number": 64,
                        "time": 470.39632090000026,
                        "value": 0
                    },
                    {
                        "number": 64,
                        "time": 470.45285762500026,
                        "value": 1
                    },
                    {
                        "number": 64,
                        "time": 471.2587303083336,
                        "value": 0
                    },
                    {
                        "number": 64,
                        "time": 471.2982162750003,
                        "value": 1
                    },
                    {
                        "number": 64,
                        "time": 472.1166526750003,
                        "value": 0
                    },
                    {
                        "number": 64,
                        "time": 472.20370128333366,
                        "value": 1
                    },
                    {
                        "number": 64,
                        "time": 472.985343941667,
                        "value": 0
                    },
                    {
                        "number": 64,
                        "time": 473.0266247250003,
                        "value": 1
                    },
                    {
                        "number": 64,
                        "time": 473.846855941667,
                        "value": 0
                    },
                    {
                        "number": 64,
                        "time": 473.9204434250003,
                        "value": 1
                    },
                    {
                        "number": 64,
                        "time": 474.705675716667,
                        "value": 0
                    },
                    {
                        "number": 64,
                        "time": 474.77028911666696,
                        "value": 1
                    },
                    {
                        "number": 64,
                        "time": 475.57167475833364,
                        "value": 0
                    },
                    {
                        "number": 64,
                        "time": 475.637185566667,
                        "value": 1
                    },
                    {
                        "number": 64,
                        "time": 476.42780230833364,
                        "value": 0
                    },
                    {
                        "number": 64,
                        "time": 476.498697566667,
                        "value": 1
                    },
                    {
                        "number": 64,
                        "time": 477.28751949166696,
                        "value": 0
                    },
                    {
                        "number": 64,
                        "time": 477.33508213333363,
                        "value": 1
                    },
                    {
                        "number": 64,
                        "time": 478.1499289000003,
                        "value": 0
                    },
                    {
                        "number": 64,
                        "time": 478.216337116667,
                        "value": 1
                    },
                    {
                        "number": 64,
                        "time": 479.013235716667,
                        "value": 0
                    },
                    {
                        "number": 64,
                        "time": 479.077849116667,
                        "value": 1
                    },
                    {
                        "number": 64,
                        "time": 479.8729529000003,
                        "value": 0
                    },
                    {
                        "number": 64,
                        "time": 479.9133362750003,
                        "value": 1
                    },
                    {
                        "number": 64,
                        "time": 480.7317726750003,
                        "value": 0
                    },
                    {
                        "number": 64,
                        "time": 480.7954886666669,
                        "value": 1
                    },
                    {
                        "number": 64,
                        "time": 481.60046394166693,
                        "value": 0
                    },
                    {
                        "number": 64,
                        "time": 481.65251362500027,
                        "value": 1
                    },
                    {
                        "number": 64,
                        "time": 482.4583863083336,
                        "value": 0
                    },
                    {
                        "number": 64,
                        "time": 482.5229997083336,
                        "value": 1
                    },
                    {
                        "number": 64,
                        "time": 487.6310479416669,
                        "value": 0
                    },
                    {
                        "number": 64,
                        "time": 487.7423265750002,
                        "value": 1
                    },
                    {
                        "number": 64,
                        "time": 488.0591117166669,
                        "value": 0
                    },
                    {
                        "number": 64,
                        "time": 488.4898677166669,
                        "value": 1
                    },
                    {
                        "number": 64,
                        "time": 488.92062371666685,
                        "value": 0
                    },
                    {
                        "number": 64,
                        "time": 489.4150957083335,
                        "value": 1
                    },
                    {
                        "number": 64,
                        "time": 489.7193171333335,
                        "value": 0
                    }
                ]
            },
            "id": 3,
            "name": "Pedal"
        },
        {
            "startTime": 0,
            "duration": 0,
            "length": 0,
            "notes": [],
            "controlChanges": {
                "64": [
                    {
                        "number": 64,
                        "time": 141.287968,
                        "value": 0
                    }
                ]
            },
            "id": 4,
            "name": "Beethoven: Sonate Op. 57 (Appassionata) 2. Satz"
        },
        {
            "startTime": 0,
            "duration": 0,
            "length": 0,
            "notes": [],
            "controlChanges": {},
            "id": 5,
            "name": "Copyright  2001 by Bernd Krger"
        },
        {
            "startTime": 0,
            "duration": 0,
            "length": 0,
            "notes": [],
            "controlChanges": {},
            "id": 6,
            "name": "http://www.piano-midi.de"
        },
        {
            "startTime": 0,
            "duration": 0,
            "length": 0,
            "notes": [],
            "controlChanges": {},
            "id": 7,
            "name": "Edition: 2012-07-30"
        },
        {
            "startTime": 0,
            "duration": 0,
            "length": 0,
            "notes": [],
            "controlChanges": {},
            "id": 8,
            "name": "Spur 8"
        },
        {
            "startTime": 0,
            "duration": 0,
            "length": 0,
            "notes": [],
            "controlChanges": {},
            "id": 9,
            "name": "Spur 9"
        },
        {
            "startTime": 0,
            "duration": 0,
            "length": 0,
            "notes": [],
            "controlChanges": {},
            "id": 10,
            "name": "Spur 10"
        }
    ]
}