{
    "header": {
        "PPQ": 480,
        "timeSignature": [
            2,
            4
        ],
        "bpm": 42.26000893094855,
        "name": "Appassionata"
    },
    "startTime": 0,
    "duration": 411.736780000002,
    "tracks": [
        {
            "startTime": 0,
            "duration": 0,
            "length": 0,
            "notes": [],
            "controlChanges": {},
            "id": 0,
            "name": "Appassionata"
        },
        {
            "startTime": 0,
            "duration": 411.736780000002,
            "length": 1128,
            "notes": [
                {
                    "name": "C#3",
                    "midi": 49,
                    "time": 0,
                    "velocity": 0.30708661417322836,
                    "duration": 1.419782
                },
                {
                    "name": "F3",
                    "midi": 53,
                    "time": 0,
                    "velocity": 0.30708661417322836,
                    "duration": 1.419782
                },
                {
                    "name": "G#3",
                    "midi": 56,
                    "time": 0,
                    "velocity": 0.3700787401574803,
                    "duration": 1.419782
                },
                {
                    "name": "C#3",
                    "midi": 49,
                    "time": 1.419782,
                    "velocity": 0.29133858267716534,
                    "duration": 1.419782
                },
                {
                    "name": "A#3",
                    "midi": 58,
                    "time": 1.419782,
                    "velocity": 0.3464566929133858,
                    "duration": 1.419782
                },
                {
                    "name": "F#3",
                    "midi": 54,
                    "time": 1.419782,
                    "velocity": 0.3464566929133858,
                    "duration": 1.419782
                },
                {
                    "name": "C#3",
                    "midi": 49,
                    "time": 2.839564,
                    "velocity": 0.29133858267716534,
                    "duration": 2.1296730000000004
                },
                {
                    "name": "F3",
                    "midi": 53,
                    "time": 2.839564,
                    "velocity": 0.29133858267716534,
                    "duration": 2.1296730000000004
                },
                {
                    "name": "G#3",
                    "midi": 56,
                    "time": 2.839564,
                    "velocity": 0.3464566929133858,
                    "duration": 2.1296730000000004
                },
                {
                    "name": "A#3",
                    "midi": 58,
                    "time": 4.969237000000001,
                    "velocity": 0.3464566929133858,
                    "duration": 0.7098909999999998
                },
                {
                    "name": "D#3",
                    "midi": 51,
                    "time": 4.969237000000001,
                    "velocity": 0.29133858267716534,
                    "duration": 0.7098909999999998
                },
                {
                    "name": "C#3",
                    "midi": 49,
                    "time": 4.969237000000001,
                    "velocity": 0.29133858267716534,
                    "duration": 0.7098909999999998
                },
                {
                    "name": "C#3",
                    "midi": 49,
                    "time": 5.679128,
                    "velocity": 0.30708661417322836,
                    "duration": 1.4197819999999997
                },
                {
                    "name": "D#3",
                    "midi": 51,
                    "time": 5.679128,
                    "velocity": 0.30708661417322836,
                    "duration": 1.4197819999999997
                },
                {
                    "name": "G#3",
                    "midi": 56,
                    "time": 5.679128,
                    "velocity": 0.3700787401574803,
                    "duration": 1.4197819999999997
                },
                {
                    "name": "G#3",
                    "midi": 56,
                    "time": 7.09891,
                    "velocity": 0.36220472440944884,
                    "duration": 1.4197819999999997
                },
                {
                    "name": "C3",
                    "midi": 48,
                    "time": 7.09891,
                    "velocity": 0.2992125984251969,
                    "duration": 1.4197819999999997
                },
                {
                    "name": "D#3",
                    "midi": 51,
                    "time": 7.09891,
                    "velocity": 0.2992125984251969,
                    "duration": 1.4197819999999997
                },
                {
                    "name": "C#3",
                    "midi": 49,
                    "time": 8.518692,
                    "velocity": 0.30708661417322836,
                    "duration": 2.839564000000001
                },
                {
                    "name": "F3",
                    "midi": 53,
                    "time": 8.518692,
                    "velocity": 0.30708661417322836,
                    "duration": 2.839564000000001
                },
                {
                    "name": "G#3",
                    "midi": 56,
                    "time": 8.518692,
                    "velocity": 0.3700787401574803,
                    "duration": 2.839564000000001
                },
                {
                    "name": "C#4",
                    "midi": 61,
                    "time": 11.358256,
                    "velocity": 0.4251968503937008,
                    "duration": 1.4197819999999997
                },
                {
                    "name": "G#3",
                    "midi": 56,
                    "time": 11.358256,
                    "velocity": 0.3543307086614173,
                    "duration": 1.4197819999999997
                },
                {
                    "name": "F3",
                    "midi": 53,
                    "time": 11.358256,
                    "velocity": 0.3543307086614173,
                    "duration": 1.4197819999999997
                },
                {
                    "name": "F#3",
                    "midi": 54,
                    "time": 12.778038,
                    "velocity": 0.3700787401574803,
                    "duration": 1.4197819999999997
                },
                {
                    "name": "A#3",
                    "midi": 58,
                    "time": 12.778038,
                    "velocity": 0.3700787401574803,
                    "duration": 1.4197819999999997
                },
                {
                    "name": "C#4",
                    "midi": 61,
                    "time": 12.778038,
                    "velocity": 0.4409448818897638,
                    "duration": 1.4197819999999997
                },
                {
                    "name": "G#3",
                    "midi": 56,
                    "time": 14.19782,
                    "velocity": 0.28346456692913385,
                    "duration": 2.1296730000000004
                },
                {
                    "name": "F3",
                    "midi": 53,
                    "time": 14.19782,
                    "velocity": 0.28346456692913385,
                    "duration": 2.1296730000000004
                },
                {
                    "name": "C#4",
                    "midi": 61,
                    "time": 14.19782,
                    "velocity": 0.3464566929133858,
                    "duration": 2.1296730000000004
                },
                {
                    "name": "E3",
                    "midi": 52,
                    "time": 16.327493,
                    "velocity": 0.29133858267716534,
                    "duration": 0.7098909999999989
                },
                {
                    "name": "C#4",
                    "midi": 61,
                    "time": 16.327493,
                    "velocity": 0.3464566929133858,
                    "duration": 0.7098909999999989
                },
                {
                    "name": "G3",
                    "midi": 55,
                    "time": 16.327493,
                    "velocity": 0.29133858267716534,
                    "duration": 0.7098909999999989
                },
                {
                    "name": "F#3",
                    "midi": 54,
                    "time": 17.037384,
                    "velocity": 0.30708661417322836,
                    "duration": 1.4197820000000014
                },
                {
                    "name": "D#3",
                    "midi": 51,
                    "time": 17.037384,
                    "velocity": 0.30708661417322836,
                    "duration": 1.4197820000000014
                },
                {
                    "name": "C#4",
                    "midi": 61,
                    "time": 17.037384,
                    "velocity": 0.3700787401574803,
                    "duration": 1.4197820000000014
                },
                {
                    "name": "D#3",
                    "midi": 51,
                    "time": 18.457166,
                    "velocity": 0.29133858267716534,
                    "duration": 1.4197820000000014
                },
                {
                    "name": "C4",
                    "midi": 60,
                    "time": 18.457166,
                    "velocity": 0.33858267716535434,
                    "duration": 1.4197820000000014
                },
                {
                    "name": "F#3",
                    "midi": 54,
                    "time": 18.457166,
                    "velocity": 0.29133858267716534,
                    "duration": 1.4197820000000014
                },
                {
                    "name": "C#3",
                    "midi": 49,
                    "time": 19.876948000000002,
                    "velocity": 0.29133858267716534,
                    "duration": 2.1296730000000004
                },
                {
                    "name": "F3",
                    "midi": 53,
                    "time": 19.876948000000002,
                    "velocity": 0.29133858267716534,
                    "duration": 2.1296730000000004
                },
                {
                    "name": "C#4",
                    "midi": 61,
                    "time": 19.876948000000002,
                    "velocity": 0.33858267716535434,
                    "duration": 2.1296730000000004
                },
                {
                    "name": "C#3",
                    "midi": 49,
                    "time": 22.716512,
                    "velocity": 0.30708661417322836,
                    "duration": 1.4197820000000014
                },
                {
                    "name": "F3",
                    "midi": 53,
                    "time": 22.716512,
                    "velocity": 0.30708661417322836,
                    "duration": 1.4197820000000014
                },
                {
                    "name": "G#3",
                    "midi": 56,
                    "time": 22.716512,
                    "velocity": 0.3700787401574803,
                    "duration": 1.4197820000000014
                },
                {
                    "name": "C#3",
                    "midi": 49,
                    "time": 24.136294000000003,
                    "velocity": 0.29133858267716534,
                    "duration": 1.4197820000000014
                },
                {
                    "name": "F#3",
                    "midi": 54,
                    "time": 24.136294000000003,
                    "velocity": 0.3464566929133858,
                    "duration": 1.4197820000000014
                },
                {
                    "name": "A#3",
                    "midi": 58,
                    "time": 24.136294000000003,
                    "velocity": 0.3464566929133858,
                    "duration": 1.4197820000000014
                },
                {
                    "name": "C#3",
                    "midi": 49,
                    "time": 25.556076000000004,
                    "velocity": 0.29133858267716534,
                    "duration": 2.1296730000000004
                },
                {
                    "name": "F3",
                    "midi": 53,
                    "time": 25.556076000000004,
                    "velocity": 0.29133858267716534,
                    "duration": 2.1296730000000004
                },
                {
                    "name": "G#3",
                    "midi": 56,
                    "time": 25.556076000000004,
                    "velocity": 0.3464566929133858,
                    "duration": 2.1296730000000004
                },
                {
                    "name": "C#3",
                    "midi": 49,
                    "time": 27.685749000000005,
                    "velocity": 0.29133858267716534,
                    "duration": 0.7098909999999989
                },
                {
                    "name": "D#3",
                    "midi": 51,
                    "time": 27.685749000000005,
                    "velocity": 0.29133858267716534,
                    "duration": 0.7098909999999989
                },
                {
                    "name": "A#3",
                    "midi": 58,
                    "time": 27.685749000000005,
                    "velocity": 0.3464566929133858,
                    "duration": 0.7098909999999989
                },
                {
                    "name": "C#3",
                    "midi": 49,
                    "time": 28.395640000000004,
                    "velocity": 0.30708661417322836,
                    "duration": 1.4197820000000014
                },
                {
                    "name": "D#3",
                    "midi": 51,
                    "time": 28.395640000000004,
                    "velocity": 0.30708661417322836,
                    "duration": 1.4197820000000014
                },
                {
                    "name": "G#3",
                    "midi": 56,
                    "time": 28.395640000000004,
                    "velocity": 0.3700787401574803,
                    "duration": 1.4197820000000014
                },
                {
                    "name": "C3",
                    "midi": 48,
                    "time": 29.815422000000005,
                    "velocity": 0.2992125984251969,
                    "duration": 1.4197820000000014
                },
                {
                    "name": "D#3",
                    "midi": 51,
                    "time": 29.815422000000005,
                    "velocity": 0.2992125984251969,
                    "duration": 1.4197820000000014
                },
                {
                    "name": "G#3",
                    "midi": 56,
                    "time": 29.815422000000005,
                    "velocity": 0.36220472440944884,
                    "duration": 1.4197820000000014
                },
                {
                    "name": "C#3",
                    "midi": 49,
                    "time": 31.235204000000007,
                    "velocity": 0.30708661417322836,
                    "duration": 2.8395639999999993
                },
                {
                    "name": "F3",
                    "midi": 53,
                    "time": 31.235204000000007,
                    "velocity": 0.30708661417322836,
                    "duration": 2.8395639999999993
                },
                {
                    "name": "G#3",
                    "midi": 56,
                    "time": 31.235204000000007,
                    "velocity": 0.3700787401574803,
                    "duration": 2.8395639999999993
                },
                {
                    "name": "F3",
                    "midi": 53,
                    "time": 34.074768000000006,
                    "velocity": 0.3543307086614173,
                    "duration": 1.4197819999999979
                },
                {
                    "name": "G#3",
                    "midi": 56,
                    "time": 34.074768000000006,
                    "velocity": 0.3543307086614173,
                    "duration": 1.4197819999999979
                },
                {
                    "name": "C#4",
                    "midi": 61,
                    "time": 34.074768000000006,
                    "velocity": 0.4251968503937008,
                    "duration": 1.4197819999999979
                },
                {
                    "name": "F#3",
                    "midi": 54,
                    "time": 35.494550000000004,
                    "velocity": 0.3700787401574803,
                    "duration": 1.4197819999999979
                },
                {
                    "name": "A#3",
                    "midi": 58,
                    "time": 35.494550000000004,
                    "velocity": 0.3700787401574803,
                    "duration": 1.4197819999999979
                },
                {
                    "name": "C#4",
                    "midi": 61,
                    "time": 35.494550000000004,
                    "velocity": 0.4409448818897638,
                    "duration": 1.4197819999999979
                },
                {
                    "name": "F3",
                    "midi": 53,
                    "time": 36.914332,
                    "velocity": 0.2677165354330709,
                    "duration": 2.129672999999997
                },
                {
                    "name": "G#3",
                    "midi": 56,
                    "time": 36.914332,
                    "velocity": 0.2677165354330709,
                    "duration": 2.129672999999997
                },
                {
                    "name": "C#4",
                    "midi": 61,
                    "time": 36.914332,
                    "velocity": 0.3228346456692913,
                    "duration": 2.129672999999997
                },
                {
                    "name": "E3",
                    "midi": 52,
                    "time": 39.044005,
                    "velocity": 0.29133858267716534,
                    "duration": 0.7098909999999989
                },
                {
                    "name": "G3",
                    "midi": 55,
                    "time": 39.044005,
                    "velocity": 0.29133858267716534,
                    "duration": 0.7098909999999989
                },
                {
                    "name": "C#4",
                    "midi": 61,
                    "time": 39.044005,
                    "velocity": 0.3464566929133858,
                    "duration": 0.7098909999999989
                },
                {
                    "name": "D#3",
                    "midi": 51,
                    "time": 39.753896,
                    "velocity": 0.30708661417322836,
                    "duration": 1.4197819999999979
                },
                {
                    "name": "F#3",
                    "midi": 54,
                    "time": 39.753896,
                    "velocity": 0.30708661417322836,
                    "duration": 1.4197819999999979
                },
                {
                    "name": "C#4",
                    "midi": 61,
                    "time": 39.753896,
                    "velocity": 0.3700787401574803,
                    "duration": 1.4197819999999979
                },
                {
                    "name": "D#3",
                    "midi": 51,
                    "time": 41.173677999999995,
                    "velocity": 0.29133858267716534,
                    "duration": 1.4197819999999979
                },
                {
                    "name": "F#3",
                    "midi": 54,
                    "time": 41.173677999999995,
                    "velocity": 0.29133858267716534,
                    "duration": 1.4197819999999979
                },
                {
                    "name": "C4",
                    "midi": 60,
                    "time": 41.173677999999995,
                    "velocity": 0.33858267716535434,
                    "duration": 1.4197819999999979
                },
                {
                    "name": "C#3",
                    "midi": 49,
                    "time": 42.59345999999999,
                    "velocity": 0.29133858267716534,
                    "duration": 2.129672999999997
                },
                {
                    "name": "F3",
                    "midi": 53,
                    "time": 42.59345999999999,
                    "velocity": 0.29133858267716534,
                    "duration": 2.129672999999997
                },
                {
                    "name": "C#4",
                    "midi": 61,
                    "time": 42.59345999999999,
                    "velocity": 0.33858267716535434,
                    "duration": 2.129672999999997
                },
                {
                    "name": "C3",
                    "midi": 48,
                    "time": 45.43302399999999,
                    "velocity": 0.30708661417322836,
                    "duration": 1.4197819999999979
                },
                {
                    "name": "D#3",
                    "midi": 51,
                    "time": 45.43302399999999,
                    "velocity": 0.30708661417322836,
                    "duration": 1.4197819999999979
                },
                {
                    "name": "G#3",
                    "midi": 56,
                    "time": 45.43302399999999,
                    "velocity": 0.3700787401574803,
                    "duration": 1.4197819999999979
                },
                {
                    "name": "C3",
                    "midi": 48,
                    "time": 46.85280599999999,
                    "velocity": 0.29133858267716534,
                    "duration": 1.2423092499999981
                },
                {
                    "name": "F#3",
                    "midi": 54,
                    "time": 46.85280599999999,
                    "velocity": 0.3464566929133858,
                    "duration": 1.2423092499999981
                },
                {
                    "name": "G#3",
                    "midi": 56,
                    "time": 46.85280599999999,
                    "velocity": 0.3464566929133858,
                    "duration": 1.2423092499999981
                },
                {
                    "name": "C3",
                    "midi": 48,
                    "time": 48.095115249999985,
                    "velocity": 0.29133858267716534,
                    "duration": 0.17747274999999973
                },
                {
                    "name": "D#3",
                    "midi": 51,
                    "time": 48.095115249999985,
                    "velocity": 0.3464566929133858,
                    "duration": 0.17747274999999973
                },
                {
                    "name": "G#3",
                    "midi": 56,
                    "time": 48.095115249999985,
                    "velocity": 0.3464566929133858,
                    "duration": 0.17747274999999973
                },
                {
                    "name": "C#3",
                    "midi": 49,
                    "time": 48.272587999999985,
                    "velocity": 0.30708661417322836,
                    "duration": 1.0648364999999984
                },
                {
                    "name": "F3",
                    "midi": 53,
                    "time": 48.272587999999985,
                    "velocity": 0.30708661417322836,
                    "duration": 1.0648364999999984
                },
                {
                    "name": "G#3",
                    "midi": 56,
                    "time": 48.272587999999985,
                    "velocity": 0.3700787401574803,
                    "duration": 1.0648364999999984
                },
                {
                    "name": "F3",
                    "midi": 53,
                    "time": 49.33742449999998,
                    "velocity": 0.3543307086614173,
                    "duration": 0.35494549999999947
                },
                {
                    "name": "G#3",
                    "midi": 56,
                    "time": 49.33742449999998,
                    "velocity": 0.3543307086614173,
                    "duration": 0.35494549999999947
                },
                {
                    "name": "C#4",
                    "midi": 61,
                    "time": 49.33742449999998,
                    "velocity": 0.41732283464566927,
                    "duration": 0.35494549999999947
                },
                {
                    "name": "G#3",
                    "midi": 56,
                    "time": 49.69236999999998,
                    "velocity": 0.3228346456692913,
                    "duration": 0.7098909999999989
                },
                {
                    "name": "F#3",
                    "midi": 54,
                    "time": 49.69236999999998,
                    "velocity": 0.3228346456692913,
                    "duration": 0.7098909999999989
                },
                {
                    "name": "C4",
                    "midi": 60,
                    "time": 49.69236999999998,
                    "velocity": 0.3858267716535433,
                    "duration": 0.7098909999999989
                },
                {
                    "name": "F3",
                    "midi": 53,
                    "time": 50.40226099999998,
                    "velocity": 0.2440944881889764,
                    "duration": 0.7098909999999989
                },
                {
                    "name": "G#3",
                    "midi": 56,
                    "time": 50.40226099999998,
                    "velocity": 0.2440944881889764,
                    "duration": 0.7098909999999989
                },
                {
                    "name": "C#4",
                    "midi": 61,
                    "time": 50.40226099999998,
                    "velocity": 0.29133858267716534,
                    "duration": 0.7098909999999989
                },
                {
                    "name": "C3",
                    "midi": 48,
                    "time": 51.11215199999998,
                    "velocity": 0.30708661417322836,
                    "duration": 1.4197819999999979
                },
                {
                    "name": "D#3",
                    "midi": 51,
                    "time": 51.11215199999998,
                    "velocity": 0.30708661417322836,
                    "duration": 1.4197819999999979
                },
                {
                    "name": "G#3",
                    "midi": 56,
                    "time": 51.11215199999998,
                    "velocity": 0.3700787401574803,
                    "duration": 1.4197819999999979
                },
                {
                    "name": "C3",
                    "midi": 48,
                    "time": 52.53193399999998,
                    "velocity": 0.29133858267716534,
                    "duration": 1.2423092499999981
                },
                {
                    "name": "F#3",
                    "midi": 54,
                    "time": 52.53193399999998,
                    "velocity": 0.3464566929133858,
                    "duration": 1.2423092499999981
                },
                {
                    "name": "G#3",
                    "midi": 56,
                    "time": 52.53193399999998,
                    "velocity": 0.3464566929133858,
                    "duration": 1.2423092499999981
                },
                {
                    "name": "C3",
                    "midi": 48,
                    "time": 53.77424324999998,
                    "velocity": 0.29133858267716534,
                    "duration": 0.17747274999999973
                },
                {
                    "name": "D#3",
                    "midi": 51,
                    "time": 53.77424324999998,
                    "velocity": 0.3464566929133858,
                    "duration": 0.17747274999999973
                },
                {
                    "name": "G#3",
                    "midi": 56,
                    "time": 53.77424324999998,
                    "velocity": 0.3464566929133858,
                    "duration": 0.17747274999999973
                },
                {
                    "name": "C#3",
                    "midi": 49,
                    "time": 53.951715999999976,
                    "velocity": 0.30708661417322836,
                    "duration": 1.0648364999999984
                },
                {
                    "name": "F3",
                    "midi": 53,
                    "time": 53.951715999999976,
                    "velocity": 0.30708661417322836,
                    "duration": 1.0648364999999984
                },
                {
                    "name": "G#3",
                    "midi": 56,
                    "time": 53.951715999999976,
                    "velocity": 0.3700787401574803,
                    "duration": 1.0648364999999984
                },
                {
                    "name": "F3",
                    "midi": 53,
                    "time": 55.016552499999975,
                    "velocity": 0.3543307086614173,
                    "duration": 0.35494549999999947
                },
                {
                    "name": "G#3",
                    "midi": 56,
                    "time": 55.016552499999975,
                    "velocity": 0.3543307086614173,
                    "duration": 0.35494549999999947
                },
                {
                    "name": "F4",
                    "midi": 65,
                    "time": 55.016552499999975,
                    "velocity": 0.4330708661417323,
                    "duration": 0.35494549999999947
                },
                {
                    "name": "G#3",
                    "midi": 56,
                    "time": 55.371497999999974,
                    "velocity": 0.3543307086614173,
                    "duration": 0.7098909999999989
                },
                {
                    "name": "F#3",
                    "midi": 54,
                    "time": 55.371497999999974,
                    "velocity": 0.3543307086614173,
                    "duration": 0.7098909999999989
                },
                {
                    "name": "F4",
                    "midi": 65,
                    "time": 55.371497999999974,
                    "velocity": 0.4566929133858268,
                    "duration": 0.35494549999999947
                },
                {
                    "name": "D#4",
                    "midi": 63,
                    "time": 55.726443499999974,
                    "velocity": 0.4015748031496063,
                    "duration": 0.35494549999999947
                },
                {
                    "name": "F3",
                    "midi": 53,
                    "time": 56.08138899999997,
                    "velocity": 0.2440944881889764,
                    "duration": 0.7098909999999989
                },
                {
                    "name": "G#3",
                    "midi": 56,
                    "time": 56.08138899999997,
                    "velocity": 0.2440944881889764,
                    "duration": 0.7098909999999989
                },
                {
                    "name": "C#4",
                    "midi": 61,
                    "time": 56.08138899999997,
                    "velocity": 0.29133858267716534,
                    "duration": 0.7098909999999989
                },
                {
                    "name": "C3",
                    "midi": 48,
                    "time": 56.79127999999997,
                    "velocity": 0.36220472440944884,
                    "duration": 1.4197819999999979
                },
                {
                    "name": "D#3",
                    "midi": 51,
                    "time": 56.79127999999997,
                    "velocity": 0.36220472440944884,
                    "duration": 1.4197819999999979
                },
                {
                    "name": "G#3",
                    "midi": 56,
                    "time": 56.79127999999997,
                    "velocity": 0.4409448818897638,
                    "duration": 1.4197819999999979
                },
                {
                    "name": "C3",
                    "midi": 48,
                    "time": 58.21106199999997,
                    "velocity": 0.4094488188976378,
                    "duration": 1.2423092499999981
                },
                {
                    "name": "F#3",
                    "midi": 54,
                    "time": 58.21106199999997,
                    "velocity": 0.4881889763779528,
                    "duration": 1.2423092499999981
                },
                {
                    "name": "G#3",
                    "midi": 56,
                    "time": 58.21106199999997,
                    "velocity": 0.4881889763779528,
                    "duration": 1.2423092499999981
                },
                {
                    "name": "C3",
                    "midi": 48,
                    "time": 59.45337124999997,
                    "velocity": 0.44881889763779526,
                    "duration": 0.17747274999999973
                },
                {
                    "name": "D#3",
                    "midi": 51,
                    "time": 59.45337124999997,
                    "velocity": 0.5354330708661418,
                    "duration": 0.17747274999999973
                },
                {
                    "name": "G#3",
                    "midi": 56,
                    "time": 59.45337124999997,
                    "velocity": 0.5354330708661418,
                    "duration": 0.17747274999999973
                },
                {
                    "name": "G#3",
                    "midi": 56,
                    "time": 59.63084399999997,
                    "velocity": 0.5511811023622047,
                    "duration": 1.0648364999999984
                },
                {
                    "name": "C#4",
                    "midi": 61,
                    "time": 59.63084399999997,
                    "velocity": 0.5511811023622047,
                    "duration": 1.0648364999999984
                },
                {
                    "name": "G#4",
                    "midi": 68,
                    "time": 59.63084399999997,
                    "velocity": 0.6850393700787402,
                    "duration": 1.0648364999999984
                },
                {
                    "name": "C#4",
                    "midi": 61,
                    "time": 60.695680499999966,
                    "velocity": 0.47244094488188976,
                    "duration": 0.35494549999999947
                },
                {
                    "name": "F4",
                    "midi": 65,
                    "time": 60.695680499999966,
                    "velocity": 0.47244094488188976,
                    "duration": 0.35494549999999947
                },
                {
                    "name": "G#4",
                    "midi": 68,
                    "time": 60.695680499999966,
                    "velocity": 0.5669291338582677,
                    "duration": 0.35494549999999947
                },
                {
                    "name": "D#4",
                    "midi": 63,
                    "time": 61.050625999999966,
                    "velocity": 0.48031496062992124,
                    "duration": 0.7098909999999989
                },
                {
                    "name": "C4",
                    "midi": 60,
                    "time": 61.050625999999966,
                    "velocity": 0.48031496062992124,
                    "duration": 0.7098909999999989
                },
                {
                    "name": "G#4",
                    "midi": 68,
                    "time": 61.050625999999966,
                    "velocity": 0.6220472440944882,
                    "duration": 0.35494549999999947
                },
                {
                    "name": "F#4",
                    "midi": 66,
                    "time": 61.405571499999965,
                    "velocity": 0.5196850393700787,
                    "duration": 0.35494549999999947
                },
                {
                    "name": "G#3",
                    "midi": 56,
                    "time": 61.760516999999965,
                    "velocity": 0.3464566929133858,
                    "duration": 0.7098909999999989
                },
                {
                    "name": "C#4",
                    "midi": 61,
                    "time": 61.760516999999965,
                    "velocity": 0.3464566929133858,
                    "duration": 0.7098909999999989
                },
                {
                    "name": "F4",
                    "midi": 65,
                    "time": 61.760516999999965,
                    "velocity": 0.4330708661417323,
                    "duration": 0.7098909999999989
                },
                {
                    "name": "F#3",
                    "midi": 54,
                    "time": 62.47040799999996,
                    "velocity": 0.30708661417322836,
                    "duration": 1.4197819999999979
                },
                {
                    "name": "A#3",
                    "midi": 58,
                    "time": 62.47040799999996,
                    "velocity": 0.30708661417322836,
                    "duration": 1.4197819999999979
                },
                {
                    "name": "D#4",
                    "midi": 63,
                    "time": 62.47040799999996,
                    "velocity": 0.3700787401574803,
                    "duration": 1.4197819999999979
                },
                {
                    "name": "C3",
                    "midi": 48,
                    "time": 63.89018999999996,
                    "velocity": 0.29133858267716534,
                    "duration": 1.4197819999999979
                },
                {
                    "name": "D#3",
                    "midi": 51,
                    "time": 63.89018999999996,
                    "velocity": 0.29133858267716534,
                    "duration": 1.4197819999999979
                },
                {
                    "name": "G#3",
                    "midi": 56,
                    "time": 63.89018999999996,
                    "velocity": 0.33858267716535434,
                    "duration": 1.4197819999999979
                },
                {
                    "name": "C#3",
                    "midi": 49,
                    "time": 65.30997199999996,
                    "velocity": 0.29133858267716534,
                    "duration": 2.129672999999997
                },
                {
                    "name": "F3",
                    "midi": 53,
                    "time": 65.30997199999996,
                    "velocity": 0.29133858267716534,
                    "duration": 2.129672999999997
                },
                {
                    "name": "C#4",
                    "midi": 61,
                    "time": 65.30997199999996,
                    "velocity": 0.33858267716535434,
                    "duration": 2.129672999999997
                },
                {
                    "name": "C3",
                    "midi": 48,
                    "time": 68.14953599999996,
                    "velocity": 0.30708661417322836,
                    "duration": 1.4197819999999979
                },
                {
                    "name": "D#3",
                    "midi": 51,
                    "time": 68.14953599999996,
                    "velocity": 0.30708661417322836,
                    "duration": 1.4197819999999979
                },
                {
                    "name": "G#3",
                    "midi": 56,
                    "time": 68.14953599999996,
                    "velocity": 0.3700787401574803,
                    "duration": 1.4197819999999979
                },
                {
                    "name": "C3",
                    "midi": 48,
                    "time": 69.56931799999995,
                    "velocity": 0.29133858267716534,
                    "duration": 1.2423092500000052
                },
                {
                    "name": "F#3",
                    "midi": 54,
                    "time": 69.56931799999995,
                    "velocity": 0.3464566929133858,
                    "duration": 1.2423092500000052
                },
                {
                    "name": "G#3",
                    "midi": 56,
                    "time": 69.56931799999995,
                    "velocity": 0.3464566929133858,
                    "duration": 1.2423092500000052
                },
                {
                    "name": "C3",
                    "midi": 48,
                    "time": 70.81162724999996,
                    "velocity": 0.29133858267716534,
                    "duration": 0.17747275000000684
                },
                {
                    "name": "D#3",
                    "midi": 51,
                    "time": 70.81162724999996,
                    "velocity": 0.3464566929133858,
                    "duration": 0.17747275000000684
                },
                {
                    "name": "G#3",
                    "midi": 56,
                    "time": 70.81162724999996,
                    "velocity": 0.3464566929133858,
                    "duration": 0.17747275000000684
                },
                {
                    "name": "C#3",
                    "midi": 49,
                    "time": 70.98909999999997,
                    "velocity": 0.30708661417322836,
                    "duration": 1.0648364999999984
                },
                {
                    "name": "F3",
                    "midi": 53,
                    "time": 70.98909999999997,
                    "velocity": 0.30708661417322836,
                    "duration": 1.0648364999999984
                },
                {
                    "name": "G#3",
                    "midi": 56,
                    "time": 70.98909999999997,
                    "velocity": 0.3700787401574803,
                    "duration": 1.0648364999999984
                },
                {
                    "name": "F3",
                    "midi": 53,
                    "time": 72.05393649999996,
                    "velocity": 0.3543307086614173,
                    "duration": 0.35494549999999947
                },
                {
                    "name": "G#3",
                    "midi": 56,
                    "time": 72.05393649999996,
                    "velocity": 0.3543307086614173,
                    "duration": 0.35494549999999947
                },
                {
                    "name": "C#4",
                    "midi": 61,
                    "time": 72.05393649999996,
                    "velocity": 0.41732283464566927,
                    "duration": 0.35494549999999947
                },
                {
                    "name": "G#3",
                    "midi": 56,
                    "time": 72.40888199999996,
                    "velocity": 0.3228346456692913,
                    "duration": 0.7098909999999989
                },
                {
                    "name": "F#3",
                    "midi": 54,
                    "time": 72.40888199999996,
                    "velocity": 0.3228346456692913,
                    "duration": 0.7098909999999989
                },
                {
                    "name": "C4",
                    "midi": 60,
                    "time": 72.40888199999996,
                    "velocity": 0.3858267716535433,
                    "duration": 0.7098909999999989
                },
                {
                    "name": "F3",
                    "midi": 53,
                    "time": 73.11877299999996,
                    "velocity": 0.2440944881889764,
                    "duration": 0.7098909999999989
                },
                {
                    "name": "G#3",
                    "midi": 56,
                    "time": 73.11877299999996,
                    "velocity": 0.2440944881889764,
                    "duration": 0.7098909999999989
                },
                {
                    "name": "C#4",
                    "midi": 61,
                    "time": 73.11877299999996,
                    "velocity": 0.29133858267716534,
                    "duration": 0.7098909999999989
                },
                {
                    "name": "C3",
                    "midi": 48,
                    "time": 73.82866399999996,
                    "velocity": 0.30708661417322836,
                    "duration": 1.4197819999999979
                },
                {
                    "name": "D#3",
                    "midi": 51,
                    "time": 73.82866399999996,
                    "velocity": 0.30708661417322836,
                    "duration": 1.4197819999999979
                },
                {
                    "name": "G#3",
                    "midi": 56,
                    "time": 73.82866399999996,
                    "velocity": 0.3700787401574803,
                    "duration": 1.4197819999999979
                },
                {
                    "name": "C3",
                    "midi": 48,
                    "time": 75.24844599999996,
                    "velocity": 0.29133858267716534,
                    "duration": 1.2423092500000052
                },
                {
                    "name": "F#3",
                    "midi": 54,
                    "time": 75.24844599999996,
                    "velocity": 0.3464566929133858,
                    "duration": 1.2423092500000052
                },
                {
                    "name": "G#3",
                    "midi": 56,
                    "time": 75.24844599999996,
                    "velocity": 0.3464566929133858,
                    "duration": 1.2423092500000052
                },
                {
                    "name": "C3",
                    "midi": 48,
                    "time": 76.49075524999996,
                    "velocity": 0.29133858267716534,
                    "duration": 0.17747275000000684
                },
                {
                    "name": "D#3",
                    "midi": 51,
                    "time": 76.49075524999996,
                    "velocity": 0.3464566929133858,
                    "duration": 0.17747275000000684
                },
                {
                    "name": "G#3",
                    "midi": 56,
                    "time": 76.49075524999996,
                    "velocity": 0.3464566929133858,
                    "duration": 0.17747275000000684
                },
                {
                    "name": "C#3",
                    "midi": 49,
                    "time": 76.66822799999997,
                    "velocity": 0.30708661417322836,
                    "duration": 1.0648364999999984
                },
                {
                    "name": "F3",
                    "midi": 53,
                    "time": 76.66822799999997,
                    "velocity": 0.30708661417322836,
                    "duration": 1.0648364999999984
                },
                {
                    "name": "G#3",
                    "midi": 56,
                    "time": 76.66822799999997,
                    "velocity": 0.3700787401574803,
                    "duration": 1.0648364999999984
                },
                {
                    "name": "F3",
                    "midi": 53,
                    "time": 77.73306449999997,
                    "velocity": 0.3543307086614173,
                    "duration": 0.35494549999999947
                },
                {
                    "name": "G#3",
                    "midi": 56,
                    "time": 77.73306449999997,
                    "velocity": 0.3543307086614173,
                    "duration": 0.35494549999999947
                },
                {
                    "name": "F4",
                    "midi": 65,
                    "time": 77.73306449999997,
                    "velocity": 0.4330708661417323,
                    "duration": 0.35494549999999947
                },
                {
                    "name": "G#3",
                    "midi": 56,
                    "time": 78.08800999999997,
                    "velocity": 0.3543307086614173,
                    "duration": 0.7098909999999989
                },
                {
                    "name": "F#3",
                    "midi": 54,
                    "time": 78.08800999999997,
                    "velocity": 0.3543307086614173,
                    "duration": 0.7098909999999989
                },
                {
                    "name": "F4",
                    "midi": 65,
                    "time": 78.08800999999997,
                    "velocity": 0.4566929133858268,
                    "duration": 0.35494549999999947
                },
                {
                    "name": "D#4",
                    "midi": 63,
                    "time": 78.44295549999997,
                    "velocity": 0.4015748031496063,
                    "duration": 0.35494549999999947
                },
                {
                    "name": "F3",
                    "midi": 53,
                    "time": 78.79790099999997,
                    "velocity": 0.2440944881889764,
                    "duration": 0.7098909999999989
                },
                {
                    "name": "G#3",
                    "midi": 56,
                    "time": 78.79790099999997,
                    "velocity": 0.2440944881889764,
                    "duration": 0.7098909999999989
                },
                {
                    "name": "C#4",
                    "midi": 61,
                    "time": 78.79790099999997,
                    "velocity": 0.29133858267716534,
                    "duration": 0.7098909999999989
                },
                {
                    "name": "C3",
                    "midi": 48,
                    "time": 79.50779199999997,
                    "velocity": 0.36220472440944884,
                    "duration": 1.4197819999999979
                },
                {
                    "name": "D#3",
                    "midi": 51,
                    "time": 79.50779199999997,
                    "velocity": 0.36220472440944884,
                    "duration": 1.4197819999999979
                },
                {
                    "name": "G#3",
                    "midi": 56,
                    "time": 79.50779199999997,
                    "velocity": 0.4409448818897638,
                    "duration": 1.4197819999999979
                },
                {
                    "name": "C3",
                    "midi": 48,
                    "time": 80.92757399999996,
                    "velocity": 0.4094488188976378,
                    "duration": 1.2423092500000052
                },
                {
                    "name": "F#3",
                    "midi": 54,
                    "time": 80.92757399999996,
                    "velocity": 0.4881889763779528,
                    "duration": 1.2423092500000052
                },
                {
                    "name": "G#3",
                    "midi": 56,
                    "time": 80.92757399999996,
                    "velocity": 0.4881889763779528,
                    "duration": 1.2423092500000052
                },
                {
                    "name": "C3",
                    "midi": 48,
                    "time": 82.16988324999997,
                    "velocity": 0.44881889763779526,
                    "duration": 0.17747275000000684
                },
                {
                    "name": "D#3",
                    "midi": 51,
                    "time": 82.16988324999997,
                    "velocity": 0.5354330708661418,
                    "duration": 0.17747275000000684
                },
                {
                    "name": "G#3",
                    "midi": 56,
                    "time": 82.16988324999997,
                    "velocity": 0.5354330708661418,
                    "duration": 0.17747275000000684
                },
                {
                    "name": "G#3",
                    "midi": 56,
                    "time": 82.34735599999998,
                    "velocity": 0.5511811023622047,
                    "duration": 1.0648364999999984
                },
                {
                    "name": "C#4",
                    "midi": 61,
                    "time": 82.34735599999998,
                    "velocity": 0.5511811023622047,
                    "duration": 1.0648364999999984
                },
                {
                    "name": "G#4",
                    "midi": 68,
                    "time": 82.34735599999998,
                    "velocity": 0.6850393700787402,
                    "duration": 1.0648364999999984
                },
                {
                    "name": "C#4",
                    "midi": 61,
                    "time": 83.41219249999997,
                    "velocity": 0.48031496062992124,
                    "duration": 0.35494549999999947
                },
                {
                    "name": "F4",
                    "midi": 65,
                    "time": 83.41219249999997,
                    "velocity": 0.48031496062992124,
                    "duration": 0.35494549999999947
                },
                {
                    "name": "G#4",
                    "midi": 68,
                    "time": 83.41219249999997,
                    "velocity": 0.5748031496062992,
                    "duration": 0.35494549999999947
                },
                {
                    "name": "D#4",
                    "midi": 63,
                    "time": 83.76713799999997,
                    "velocity": 0.48031496062992124,
                    "duration": 0.7098909999999989
                },
                {
                    "name": "C4",
                    "midi": 60,
                    "time": 83.76713799999997,
                    "velocity": 0.48031496062992124,
                    "duration": 0.7098909999999989
                },
                {
                    "name": "G#4",
                    "midi": 68,
                    "time": 83.76713799999997,
                    "velocity": 0.6220472440944882,
                    "duration": 0.35494549999999947
                },
                {
                    "name": "F#4",
                    "midi": 66,
                    "time": 84.12208349999997,
                    "velocity": 0.5196850393700787,
                    "duration": 0.35494549999999947
                },
                {
                    "name": "G#3",
                    "midi": 56,
                    "time": 84.47702899999997,
                    "velocity": 0.3464566929133858,
                    "duration": 0.7098909999999989
                },
                {
                    "name": "C#4",
                    "midi": 61,
                    "time": 84.47702899999997,
                    "velocity": 0.3464566929133858,
                    "duration": 0.7098909999999989
                },
                {
                    "name": "F4",
                    "midi": 65,
                    "time": 84.47702899999997,
                    "velocity": 0.4330708661417323,
                    "duration": 0.7098909999999989
                },
                {
                    "name": "F#3",
                    "midi": 54,
                    "time": 85.18691999999997,
                    "velocity": 0.30708661417322836,
                    "duration": 1.4197819999999979
                },
                {
                    "name": "A#3",
                    "midi": 58,
                    "time": 85.18691999999997,
                    "velocity": 0.30708661417322836,
                    "duration": 1.4197819999999979
                },
                {
                    "name": "D#4",
                    "midi": 63,
                    "time": 85.18691999999997,
                    "velocity": 0.3700787401574803,
                    "duration": 1.4197819999999979
                },
                {
                    "name": "C3",
                    "midi": 48,
                    "time": 86.60670199999997,
                    "velocity": 0.29133858267716534,
                    "duration": 1.4197819999999979
                },
                {
                    "name": "D#3",
                    "midi": 51,
                    "time": 86.60670199999997,
                    "velocity": 0.29133858267716534,
                    "duration": 1.4197819999999979
                },
                {
                    "name": "G#3",
                    "midi": 56,
                    "time": 86.60670199999997,
                    "velocity": 0.33858267716535434,
                    "duration": 1.4197819999999979
                },
                {
                    "name": "C#3",
                    "midi": 49,
                    "time": 88.02648399999997,
                    "velocity": 0.29133858267716534,
                    "duration": 2.129672999999997
                },
                {
                    "name": "F3",
                    "midi": 53,
                    "time": 88.02648399999997,
                    "velocity": 0.29133858267716534,
                    "duration": 2.129672999999997
                },
                {
                    "name": "C#4",
                    "midi": 61,
                    "time": 88.02648399999997,
                    "velocity": 0.33858267716535434,
                    "duration": 2.129672999999997
                },
                {
                    "name": "C#3",
                    "midi": 49,
                    "time": 90.86604799999996,
                    "velocity": 0.30708661417322836,
                    "duration": 0.7098909999999989
                },
                {
                    "name": "F3",
                    "midi": 53,
                    "time": 90.86604799999996,
                    "velocity": 0.30708661417322836,
                    "duration": 0.7098909999999989
                },
                {
                    "name": "G#3",
                    "midi": 56,
                    "time": 90.86604799999996,
                    "velocity": 0.3700787401574803,
                    "duration": 0.7098909999999989
                },
                {
                    "name": "C#3",
                    "midi": 49,
                    "time": 92.28582999999996,
                    "velocity": 0.29133858267716534,
                    "duration": 0.7098909999999989
                },
                {
                    "name": "F#3",
                    "midi": 54,
                    "time": 92.28582999999996,
                    "velocity": 0.29133858267716534,
                    "duration": 0.7098909999999989
                },
                {
                    "name": "A#3",
                    "midi": 58,
                    "time": 92.28582999999996,
                    "velocity": 0.3464566929133858,
                    "duration": 0.7098909999999989
                },
                {
                    "name": "C#3",
                    "midi": 49,
                    "time": 93.70561199999996,
                    "velocity": 0.30708661417322836,
                    "duration": 0.7098909999999989
                },
                {
                    "name": "F3",
                    "midi": 53,
                    "time": 93.70561199999996,
                    "velocity": 0.30708661417322836,
                    "duration": 0.7098909999999989
                },
                {
                    "name": "G#3",
                    "midi": 56,
                    "time": 93.70561199999996,
                    "velocity": 0.3700787401574803,
                    "duration": 0.7098909999999989
                },
                {
                    "name": "C#3",
                    "midi": 49,
                    "time": 95.12539399999996,
                    "velocity": 0.29133858267716534,
                    "duration": 0.7098909999999989
                },
                {
                    "name": "D#3",
                    "midi": 51,
                    "time": 95.12539399999996,
                    "velocity": 0.29133858267716534,
                    "duration": 0.7098909999999989
                },
                {
                    "name": "A#3",
                    "midi": 58,
                    "time": 95.12539399999996,
                    "velocity": 0.3464566929133858,
                    "duration": 0.7098909999999989
                },
                {
                    "name": "C#3",
                    "midi": 49,
                    "time": 96.54517599999996,
                    "velocity": 0.30708661417322836,
                    "duration": 0.7098909999999989
                },
                {
                    "name": "D#3",
                    "midi": 51,
                    "time": 96.54517599999996,
                    "velocity": 0.30708661417322836,
                    "duration": 0.7098909999999989
                },
                {
                    "name": "G#3",
                    "midi": 56,
                    "time": 96.54517599999996,
                    "velocity": 0.3700787401574803,
                    "duration": 0.7098909999999989
                },
                {
                    "name": "C3",
                    "midi": 48,
                    "time": 97.96495799999995,
                    "velocity": 0.2992125984251969,
                    "duration": 0.7098909999999989
                },
                {
                    "name": "D#3",
                    "midi": 51,
                    "time": 97.96495799999995,
                    "velocity": 0.2992125984251969,
                    "duration": 0.7098909999999989
                },
                {
                    "name": "G#3",
                    "midi": 56,
                    "time": 97.96495799999995,
                    "velocity": 0.36220472440944884,
                    "duration": 0.7098909999999989
                },
                {
                    "name": "F#3",
                    "midi": 54,
                    "time": 99.38473999999995,
                    "velocity": 0.2992125984251969,
                    "duration": 0.35494549999999947
                },
                {
                    "name": "F3",
                    "midi": 53,
                    "time": 100.09463099999995,
                    "velocity": 0.29133858267716534,
                    "duration": 0.35494549999999947
                },
                {
                    "name": "D#3",
                    "midi": 51,
                    "time": 100.80452199999995,
                    "velocity": 0.28346456692913385,
                    "duration": 0.35494549999999947
                },
                {
                    "name": "C#3",
                    "midi": 49,
                    "time": 101.51441299999995,
                    "velocity": 0.2755905511811024,
                    "duration": 0.35494549999999947
                },
                {
                    "name": "F3",
                    "midi": 53,
                    "time": 102.22430399999995,
                    "velocity": 0.31496062992125984,
                    "duration": 0.7098909999999989
                },
                {
                    "name": "G#3",
                    "midi": 56,
                    "time": 102.22430399999995,
                    "velocity": 0.31496062992125984,
                    "duration": 0.7098909999999989
                },
                {
                    "name": "C#4",
                    "midi": 61,
                    "time": 102.22430399999995,
                    "velocity": 0.3858267716535433,
                    "duration": 0.7098909999999989
                },
                {
                    "name": "F#3",
                    "midi": 54,
                    "time": 103.64408599999994,
                    "velocity": 0.2992125984251969,
                    "duration": 0.7098909999999989
                },
                {
                    "name": "A#3",
                    "midi": 58,
                    "time": 103.64408599999994,
                    "velocity": 0.36220472440944884,
                    "duration": 0.7098909999999989
                },
                {
                    "name": "C#4",
                    "midi": 61,
                    "time": 103.64408599999994,
                    "velocity": 0.36220472440944884,
                    "duration": 0.7098909999999989
                },
                {
                    "name": "F3",
                    "midi": 53,
                    "time": 105.06386799999994,
                    "velocity": 0.31496062992125984,
                    "duration": 0.7098909999999989
                },
                {
                    "name": "G#3",
                    "midi": 56,
                    "time": 105.06386799999994,
                    "velocity": 0.31496062992125984,
                    "duration": 0.7098909999999989
                },
                {
                    "name": "C#4",
                    "midi": 61,
                    "time": 105.06386799999994,
                    "velocity": 0.3858267716535433,
                    "duration": 0.7098909999999989
                },
                {
                    "name": "E3",
                    "midi": 52,
                    "time": 106.48364999999994,
                    "velocity": 0.2992125984251969,
                    "duration": 0.7098909999999989
                },
                {
                    "name": "G3",
                    "midi": 55,
                    "time": 106.48364999999994,
                    "velocity": 0.2992125984251969,
                    "duration": 0.7098909999999989
                },
                {
                    "name": "C#4",
                    "midi": 61,
                    "time": 106.48364999999994,
                    "velocity": 0.36220472440944884,
                    "duration": 0.7098909999999989
                },
                {
                    "name": "D#3",
                    "midi": 51,
                    "time": 107.90343199999994,
                    "velocity": 0.30708661417322836,
                    "duration": 0.7098909999999989
                },
                {
                    "name": "F#3",
                    "midi": 54,
                    "time": 107.90343199999994,
                    "velocity": 0.30708661417322836,
                    "duration": 0.7098909999999989
                },
                {
                    "name": "C#4",
                    "midi": 61,
                    "time": 107.90343199999994,
                    "velocity": 0.3700787401574803,
                    "duration": 0.7098909999999989
                },
                {
                    "name": "D#3",
                    "midi": 51,
                    "time": 109.32321399999994,
                    "velocity": 0.2992125984251969,
                    "duration": 0.7098909999999989
                },
                {
                    "name": "F#3",
                    "midi": 54,
                    "time": 109.32321399999994,
                    "velocity": 0.2992125984251969,
                    "duration": 0.7098909999999989
                },
                {
                    "name": "C4",
                    "midi": 60,
                    "time": 109.32321399999994,
                    "velocity": 0.36220472440944884,
                    "duration": 0.7098909999999989
                },
                {
                    "name": "C#3",
                    "midi": 49,
                    "time": 110.74299599999993,
                    "velocity": 0.2755905511811024,
                    "duration": 0.35494549999999947
                },
                {
                    "name": "F3",
                    "midi": 53,
                    "time": 110.74299599999993,
                    "velocity": 0.2755905511811024,
                    "duration": 0.35494549999999947
                },
                {
                    "name": "C#4",
                    "midi": 61,
                    "time": 110.74299599999993,
                    "velocity": 0.33070866141732286,
                    "duration": 0.35494549999999947
                },
                {
                    "name": "G#3",
                    "midi": 56,
                    "time": 111.45288699999993,
                    "velocity": 0.30708661417322836,
                    "duration": 0.35494549999999947
                },
                {
                    "name": "F3",
                    "midi": 53,
                    "time": 112.16277799999993,
                    "velocity": 0.33070866141732286,
                    "duration": 0.35494549999999947
                },
                {
                    "name": "D#3",
                    "midi": 51,
                    "time": 112.87266899999993,
                    "velocity": 0.30708661417322836,
                    "duration": 0.35494549999999947
                },
                {
                    "name": "C#3",
                    "midi": 49,
                    "time": 113.58255999999993,
                    "velocity": 0.30708661417322836,
                    "duration": 0.7098909999999989
                },
                {
                    "name": "F3",
                    "midi": 53,
                    "time": 113.58255999999993,
                    "velocity": 0.30708661417322836,
                    "duration": 0.7098909999999989
                },
                {
                    "name": "G#3",
                    "midi": 56,
                    "time": 113.58255999999993,
                    "velocity": 0.3700787401574803,
                    "duration": 0.7098909999999989
                },
                {
                    "name": "C#3",
                    "midi": 49,
                    "time": 115.00234199999993,
                    "velocity": 0.29133858267716534,
                    "duration": 0.7098909999999989
                },
                {
                    "name": "F#3",
                    "midi": 54,
                    "time": 115.00234199999993,
                    "velocity": 0.29133858267716534,
                    "duration": 0.7098909999999989
                },
                {
                    "name": "A#3",
                    "midi": 58,
                    "time": 115.00234199999993,
                    "velocity": 0.3464566929133858,
                    "duration": 0.7098909999999989
                },
                {
                    "name": "C#3",
                    "midi": 49,
                    "time": 116.42212399999993,
                    "velocity": 0.30708661417322836,
                    "duration": 0.7098909999999989
                },
                {
                    "name": "F3",
                    "midi": 53,
                    "time": 116.42212399999993,
                    "velocity": 0.30708661417322836,
                    "duration": 0.7098909999999989
                },
                {
                    "name": "G#3",
                    "midi": 56,
                    "time": 116.42212399999993,
                    "velocity": 0.3700787401574803,
                    "duration": 0.7098909999999989
                },
                {
                    "name": "C#3",
                    "midi": 49,
                    "time": 117.84190599999992,
                    "velocity": 0.29133858267716534,
                    "duration": 0.7098909999999989
                },
                {
                    "name": "D#3",
                    "midi": 51,
                    "time": 117.84190599999992,
                    "velocity": 0.29133858267716534,
                    "duration": 0.7098909999999989
                },
                {
                    "name": "A#3",
                    "midi": 58,
                    "time": 117.84190599999992,
                    "velocity": 0.3464566929133858,
                    "duration": 0.7098909999999989
                },
                {
                    "name": "C#3",
                    "midi": 49,
                    "time": 119.26168799999992,
                    "velocity": 0.30708661417322836,
                    "duration": 0.7098909999999989
                },
                {
                    "name": "D#3",
                    "midi": 51,
                    "time": 119.26168799999992,
                    "velocity": 0.30708661417322836,
                    "duration": 0.7098909999999989
                },
                {
                    "name": "G#3",
                    "midi": 56,
                    "time": 119.26168799999992,
                    "velocity": 0.3700787401574803,
                    "duration": 0.7098909999999989
                },
                {
                    "name": "C3",
                    "midi": 48,
                    "time": 120.68146999999992,
                    "velocity": 0.2992125984251969,
                    "duration": 0.7098909999999989
                },
                {
                    "name": "D#3",
                    "midi": 51,
                    "time": 120.68146999999992,
                    "velocity": 0.2992125984251969,
                    "duration": 0.7098909999999989
                },
                {
                    "name": "G#3",
                    "midi": 56,
                    "time": 120.68146999999992,
                    "velocity": 0.36220472440944884,
                    "duration": 0.7098909999999989
                },
                {
                    "name": "F#3",
                    "midi": 54,
                    "time": 122.10125199999992,
                    "velocity": 0.30708661417322836,
                    "duration": 0.35494549999999947
                },
                {
                    "name": "F3",
                    "midi": 53,
                    "time": 122.81114299999992,
                    "velocity": 0.2992125984251969,
                    "duration": 0.35494549999999947
                },
                {
                    "name": "D#3",
                    "midi": 51,
                    "time": 123.52103399999991,
                    "velocity": 0.2992125984251969,
                    "duration": 0.35494549999999947
                },
                {
                    "name": "C#3",
                    "midi": 49,
                    "time": 124.23092499999991,
                    "velocity": 0.29133858267716534,
                    "duration": 0.35494549999999947
                },
                {
                    "name": "F3",
                    "midi": 53,
                    "time": 124.94081599999991,
                    "velocity": 0.31496062992125984,
                    "duration": 0.7098909999999989
                },
                {
                    "name": "G#3",
                    "midi": 56,
                    "time": 124.94081599999991,
                    "velocity": 0.31496062992125984,
                    "duration": 0.7098909999999989
                },
                {
                    "name": "C#4",
                    "midi": 61,
                    "time": 124.94081599999991,
                    "velocity": 0.3858267716535433,
                    "duration": 0.7098909999999989
                },
                {
                    "name": "F#3",
                    "midi": 54,
                    "time": 126.36059799999991,
                    "velocity": 0.2992125984251969,
                    "duration": 0.7098909999999989
                },
                {
                    "name": "A#3",
                    "midi": 58,
                    "time": 126.36059799999991,
                    "velocity": 0.36220472440944884,
                    "duration": 0.7098909999999989
                },
                {
                    "name": "C#4",
                    "midi": 61,
                    "time": 126.36059799999991,
                    "velocity": 0.36220472440944884,
                    "duration": 0.7098909999999989
                },
                {
                    "name": "F3",
                    "midi": 53,
                    "time": 127.78037999999991,
                    "velocity": 0.31496062992125984,
                    "duration": 0.7098910000000132
                },
                {
                    "name": "G#3",
                    "midi": 56,
                    "time": 127.78037999999991,
                    "velocity": 0.31496062992125984,
                    "duration": 0.7098910000000132
                },
                {
                    "name": "C#4",
                    "midi": 61,
                    "time": 127.78037999999991,
                    "velocity": 0.3858267716535433,
                    "duration": 0.7098910000000132
                },
                {
                    "name": "E3",
                    "midi": 52,
                    "time": 129.20016199999992,
                    "velocity": 0.2992125984251969,
                    "duration": 0.7098909999999989
                },
                {
                    "name": "G3",
                    "midi": 55,
                    "time": 129.20016199999992,
                    "velocity": 0.2992125984251969,
                    "duration": 0.7098909999999989
                },
                {
                    "name": "C#4",
                    "midi": 61,
                    "time": 129.20016199999992,
                    "velocity": 0.36220472440944884,
                    "duration": 0.7098909999999989
                },
                {
                    "name": "D#3",
                    "midi": 51,
                    "time": 130.61994399999992,
                    "velocity": 0.30708661417322836,
                    "duration": 0.7098909999999989
                },
                {
                    "name": "F#3",
                    "midi": 54,
                    "time": 130.61994399999992,
                    "velocity": 0.30708661417322836,
                    "duration": 0.7098909999999989
                },
                {
                    "name": "C#4",
                    "midi": 61,
                    "time": 130.61994399999992,
                    "velocity": 0.3700787401574803,
                    "duration": 0.7098909999999989
                },
                {
                    "name": "D#3",
                    "midi": 51,
                    "time": 132.03972599999992,
                    "velocity": 0.2992125984251969,
                    "duration": 0.7098909999999989
                },
                {
                    "name": "F#3",
                    "midi": 54,
                    "time": 132.03972599999992,
                    "velocity": 0.2992125984251969,
                    "duration": 0.7098909999999989
                },
                {
                    "name": "C4",
                    "midi": 60,
                    "time": 132.03972599999992,
                    "velocity": 0.36220472440944884,
                    "duration": 0.7098909999999989
                },
                {
                    "name": "C#3",
                    "midi": 49,
                    "time": 133.45950799999991,
                    "velocity": 0.2755905511811024,
                    "duration": 0.3549455000000137
                },
                {
                    "name": "F3",
                    "midi": 53,
                    "time": 133.45950799999991,
                    "velocity": 0.2755905511811024,
                    "duration": 0.3549455000000137
                },
                {
                    "name": "C#4",
                    "midi": 61,
                    "time": 133.45950799999991,
                    "velocity": 0.33070866141732286,
                    "duration": 0.3549455000000137
                },
                {
                    "name": "G#3",
                    "midi": 56,
                    "time": 134.16939899999994,
                    "velocity": 0.30708661417322836,
                    "duration": 0.3549455000000137
                },
                {
                    "name": "F3",
                    "midi": 53,
                    "time": 134.87928999999997,
                    "velocity": 0.33070866141732286,
                    "duration": 0.3549455000000137
                },
                {
                    "name": "C#3",
                    "midi": 49,
                    "time": 135.589181,
                    "velocity": 0.30708661417322836,
                    "duration": 0.3549455000000137
                },
                {
                    "name": "C3",
                    "midi": 48,
                    "time": 136.29907200000002,
                    "velocity": 0.30708661417322836,
                    "duration": 0.7098909999999989
                },
                {
                    "name": "D#3",
                    "midi": 51,
                    "time": 136.29907200000002,
                    "velocity": 0.30708661417322836,
                    "duration": 0.7098909999999989
                },
                {
                    "name": "G#3",
                    "midi": 56,
                    "time": 136.29907200000002,
                    "velocity": 0.3700787401574803,
                    "duration": 0.7098909999999989
                },
                {
                    "name": "C3",
                    "midi": 48,
                    "time": 137.71885400000002,
                    "velocity": 0.2992125984251969,
                    "duration": 0.7098909999999989
                },
                {
                    "name": "D#3",
                    "midi": 51,
                    "time": 137.71885400000002,
                    "velocity": 0.2992125984251969,
                    "duration": 0.7098909999999989
                },
                {
                    "name": "G#3",
                    "midi": 56,
                    "time": 137.71885400000002,
                    "velocity": 0.36220472440944884,
                    "duration": 0.7098909999999989
                },
                {
                    "name": "C#3",
                    "midi": 49,
                    "time": 139.13863600000002,
                    "velocity": 0.33070866141732286,
                    "duration": 0.7098909999999989
                },
                {
                    "name": "F3",
                    "midi": 53,
                    "time": 139.13863600000002,
                    "velocity": 0.33070866141732286,
                    "duration": 0.7098909999999989
                },
                {
                    "name": "G#3",
                    "midi": 56,
                    "time": 139.13863600000002,
                    "velocity": 0.33070866141732286,
                    "duration": 0.7098909999999989
                },
                {
                    "name": "F3",
                    "midi": 53,
                    "time": 139.84852700000002,
                    "velocity": 0.3543307086614173,
                    "duration": 0.3549455000000137
                },
                {
                    "name": "F#3",
                    "midi": 54,
                    "time": 140.55841800000005,
                    "velocity": 0.4094488188976378,
                    "duration": 0.3549455000000137
                },
                {
                    "name": "G#3",
                    "midi": 56,
                    "time": 141.26830900000007,
                    "velocity": 0.4251968503937008,
                    "duration": 0.3549455000000137
                },
                {
                    "name": "C3",
                    "midi": 48,
                    "time": 141.9782000000001,
                    "velocity": 0.3937007874015748,
                    "duration": 0.7098909999999989
                },
                {
                    "name": "D#3",
                    "midi": 51,
                    "time": 141.9782000000001,
                    "velocity": 0.3937007874015748,
                    "duration": 0.7098909999999989
                },
                {
                    "name": "G#3",
                    "midi": 56,
                    "time": 141.9782000000001,
                    "velocity": 0.48031496062992124,
                    "duration": 0.7098909999999989
                },
                {
                    "name": "D#3",
                    "midi": 51,
                    "time": 143.3979820000001,
                    "velocity": 0.3858267716535433,
                    "duration": 0.7098909999999989
                },
                {
                    "name": "G#3",
                    "midi": 56,
                    "time": 143.3979820000001,
                    "velocity": 0.3858267716535433,
                    "duration": 0.7098909999999989
                },
                {
                    "name": "C4",
                    "midi": 60,
                    "time": 143.3979820000001,
                    "velocity": 0.47244094488188976,
                    "duration": 0.7098909999999989
                },
                {
                    "name": "F3",
                    "midi": 53,
                    "time": 144.8177640000001,
                    "velocity": 0.47244094488188976,
                    "duration": 0.7098909999999989
                },
                {
                    "name": "G#3",
                    "midi": 56,
                    "time": 144.8177640000001,
                    "velocity": 0.47244094488188976,
                    "duration": 0.7098909999999989
                },
                {
                    "name": "C#4",
                    "midi": 61,
                    "time": 144.8177640000001,
                    "velocity": 0.47244094488188976,
                    "duration": 0.7098909999999989
                },
                {
                    "name": "G#3",
                    "midi": 56,
                    "time": 145.5276550000001,
                    "velocity": 0.5275590551181102,
                    "duration": 0.3549455000000137
                },
                {
                    "name": "C4",
                    "midi": 60,
                    "time": 146.23754600000012,
                    "velocity": 0.5748031496062992,
                    "duration": 0.3549455000000137
                },
                {
                    "name": "C#4",
                    "midi": 61,
                    "time": 146.94743700000015,
                    "velocity": 0.5905511811023622,
                    "duration": 0.3549455000000137
                },
                {
                    "name": "C3",
                    "midi": 48,
                    "time": 147.65732800000018,
                    "velocity": 0.6062992125984252,
                    "duration": 0.7098909999999989
                },
                {
                    "name": "D#3",
                    "midi": 51,
                    "time": 147.65732800000018,
                    "velocity": 0.6062992125984252,
                    "duration": 0.7098909999999989
                },
                {
                    "name": "G#3",
                    "midi": 56,
                    "time": 147.65732800000018,
                    "velocity": 0.7165354330708661,
                    "duration": 0.7098909999999989
                },
                {
                    "name": "F#3",
                    "midi": 54,
                    "time": 149.07711000000018,
                    "velocity": 0.44881889763779526,
                    "duration": 0.7098909999999989
                },
                {
                    "name": "C4",
                    "midi": 60,
                    "time": 149.07711000000018,
                    "velocity": 0.44881889763779526,
                    "duration": 0.7098909999999989
                },
                {
                    "name": "D#4",
                    "midi": 63,
                    "time": 149.07711000000018,
                    "velocity": 0.6614173228346457,
                    "duration": 0.7098909999999989
                },
                {
                    "name": "F3",
                    "midi": 53,
                    "time": 150.49689200000017,
                    "velocity": 0.5826771653543307,
                    "duration": 0.7098909999999989
                },
                {
                    "name": "C#4",
                    "midi": 61,
                    "time": 150.49689200000017,
                    "velocity": 0.5826771653543307,
                    "duration": 0.7098909999999989
                },
                {
                    "name": "F4",
                    "midi": 65,
                    "time": 150.49689200000017,
                    "velocity": 0.7007874015748031,
                    "duration": 0.7098909999999989
                },
                {
                    "name": "F4",
                    "midi": 65,
                    "time": 151.20678300000017,
                    "velocity": 0.5748031496062992,
                    "duration": 0.3549455000000137
                },
                {
                    "name": "F3",
                    "midi": 53,
                    "time": 151.20678300000017,
                    "velocity": 0.48031496062992124,
                    "duration": 0.3549455000000137
                },
                {
                    "name": "F#4",
                    "midi": 66,
                    "time": 151.9166740000002,
                    "velocity": 0.6141732283464567,
                    "duration": 0.3549455000000137
                },
                {
                    "name": "F#3",
                    "midi": 54,
                    "time": 151.9166740000002,
                    "velocity": 0.5196850393700787,
                    "duration": 0.3549455000000137
                },
                {
                    "name": "G#4",
                    "midi": 68,
                    "time": 152.62656500000023,
                    "velocity": 0.5905511811023622,
                    "duration": 0.3549455000000137
                },
                {
                    "name": "G#3",
                    "midi": 56,
                    "time": 152.62656500000023,
                    "velocity": 0.5118110236220472,
                    "duration": 0.3549455000000137
                },
                {
                    "name": "A#3",
                    "midi": 58,
                    "time": 153.33645600000025,
                    "velocity": 0.4566929133858268,
                    "duration": 0.7098909999999989
                },
                {
                    "name": "A#4",
                    "midi": 70,
                    "time": 153.33645600000025,
                    "velocity": 0.4566929133858268,
                    "duration": 0.7098909999999989
                },
                {
                    "name": "C3",
                    "midi": 48,
                    "time": 154.75623800000025,
                    "velocity": 0.2992125984251969,
                    "duration": 0.7098909999999989
                },
                {
                    "name": "D#3",
                    "midi": 51,
                    "time": 154.75623800000025,
                    "velocity": 0.2992125984251969,
                    "duration": 0.7098909999999989
                },
                {
                    "name": "G#3",
                    "midi": 56,
                    "time": 154.75623800000025,
                    "velocity": 0.36220472440944884,
                    "duration": 0.7098909999999989
                },
                {
                    "name": "F#3",
                    "midi": 54,
                    "time": 156.17602000000025,
                    "velocity": 0.31496062992125984,
                    "duration": 0.3549455000000137
                },
                {
                    "name": "F3",
                    "midi": 53,
                    "time": 156.88591100000028,
                    "velocity": 0.30708661417322836,
                    "duration": 0.3549455000000137
                },
                {
                    "name": "D#3",
                    "midi": 51,
                    "time": 157.5958020000003,
                    "velocity": 0.2992125984251969,
                    "duration": 0.3549455000000137
                },
                {
                    "name": "C#3",
                    "midi": 49,
                    "time": 158.30569300000033,
                    "velocity": 0.29133858267716534,
                    "duration": 0.3549455000000137
                },
                {
                    "name": "C3",
                    "midi": 48,
                    "time": 159.01558400000036,
                    "velocity": 0.30708661417322836,
                    "duration": 0.7098909999999989
                },
                {
                    "name": "D#3",
                    "midi": 51,
                    "time": 159.01558400000036,
                    "velocity": 0.30708661417322836,
                    "duration": 0.7098909999999989
                },
                {
                    "name": "G#3",
                    "midi": 56,
                    "time": 159.01558400000036,
                    "velocity": 0.3700787401574803,
                    "duration": 0.7098909999999989
                },
                {
                    "name": "C3",
                    "midi": 48,
                    "time": 160.43536600000036,
                    "velocity": 0.2992125984251969,
                    "duration": 0.7098909999999989
                },
                {
                    "name": "D#3",
                    "midi": 51,
                    "time": 160.43536600000036,
                    "velocity": 0.2992125984251969,
                    "duration": 0.7098909999999989
                },
                {
                    "name": "G#3",
                    "midi": 56,
                    "time": 160.43536600000036,
                    "velocity": 0.36220472440944884,
                    "duration": 0.7098909999999989
                },
                {
                    "name": "C#3",
                    "midi": 49,
                    "time": 161.85514800000036,
                    "velocity": 0.33070866141732286,
                    "duration": 0.7098909999999989
                },
                {
                    "name": "F3",
                    "midi": 53,
                    "time": 161.85514800000036,
                    "velocity": 0.33070866141732286,
                    "duration": 0.7098909999999989
                },
                {
                    "name": "G#3",
                    "midi": 56,
                    "time": 161.85514800000036,
                    "velocity": 0.33070866141732286,
                    "duration": 0.7098909999999989
                },
                {
                    "name": "F3",
                    "midi": 53,
                    "time": 162.56503900000035,
                    "velocity": 0.3543307086614173,
                    "duration": 0.3549455000000137
                },
                {
                    "name": "F#3",
                    "midi": 54,
                    "time": 163.27493000000038,
                    "velocity": 0.4094488188976378,
                    "duration": 0.3549455000000137
                },
                {
                    "name": "G#3",
                    "midi": 56,
                    "time": 163.9848210000004,
                    "velocity": 0.4251968503937008,
                    "duration": 0.3549455000000137
                },
                {
                    "name": "C3",
                    "midi": 48,
                    "time": 164.69471200000044,
                    "velocity": 0.3937007874015748,
                    "duration": 0.7098909999999989
                },
                {
                    "name": "D#3",
                    "midi": 51,
                    "time": 164.69471200000044,
                    "velocity": 0.3937007874015748,
                    "duration": 0.7098909999999989
                },
                {
                    "name": "G#3",
                    "midi": 56,
                    "time": 164.69471200000044,
                    "velocity": 0.48031496062992124,
                    "duration": 0.7098909999999989
                },
                {
                    "name": "D#3",
                    "midi": 51,
                    "time": 166.11449400000043,
                    "velocity": 0.3858267716535433,
                    "duration": 0.7098909999999989
                },
                {
                    "name": "G#3",
                    "midi": 56,
                    "time": 166.11449400000043,
                    "velocity": 0.3858267716535433,
                    "duration": 0.7098909999999989
                },
                {
                    "name": "C4",
                    "midi": 60,
                    "time": 166.11449400000043,
                    "velocity": 0.47244094488188976,
                    "duration": 0.7098909999999989
                },
                {
                    "name": "F3",
                    "midi": 53,
                    "time": 167.53427600000043,
                    "velocity": 0.47244094488188976,
                    "duration": 0.7098909999999989
                },
                {
                    "name": "G#3",
                    "midi": 56,
                    "time": 167.53427600000043,
                    "velocity": 0.47244094488188976,
                    "duration": 0.7098909999999989
                },
                {
                    "name": "C#4",
                    "midi": 61,
                    "time": 167.53427600000043,
                    "velocity": 0.47244094488188976,
                    "duration": 0.7098909999999989
                },
                {
                    "name": "G#3",
                    "midi": 56,
                    "time": 168.24416700000043,
                    "velocity": 0.5275590551181102,
                    "duration": 0.3549455000000137
                },
                {
                    "name": "C4",
                    "midi": 60,
                    "time": 168.95405800000046,
                    "velocity": 0.5748031496062992,
                    "duration": 0.3549455000000137
                },
                {
                    "name": "C#4",
                    "midi": 61,
                    "time": 169.66394900000049,
                    "velocity": 0.5905511811023622,
                    "duration": 0.3549455000000137
                },
                {
                    "name": "C3",
                    "midi": 48,
                    "time": 170.3738400000005,
                    "velocity": 0.6062992125984252,
                    "duration": 0.7098909999999989
                },
                {
                    "name": "D#3",
                    "midi": 51,
                    "time": 170.3738400000005,
                    "velocity": 0.6062992125984252,
                    "duration": 0.7098909999999989
                },
                {
                    "name": "G#3",
                    "midi": 56,
                    "time": 170.3738400000005,
                    "velocity": 0.7165354330708661,
                    "duration": 0.7098909999999989
                },
                {
                    "name": "F#3",
                    "midi": 54,
                    "time": 171.7936220000005,
                    "velocity": 0.44881889763779526,
                    "duration": 0.7098909999999989
                },
                {
                    "name": "C4",
                    "midi": 60,
                    "time": 171.7936220000005,
                    "velocity": 0.44881889763779526,
                    "duration": 0.7098909999999989
                },
                {
                    "name": "D#4",
                    "midi": 63,
                    "time": 171.7936220000005,
                    "velocity": 0.6614173228346457,
                    "duration": 0.7098909999999989
                },
                {
                    "name": "F3",
                    "midi": 53,
                    "time": 173.2134040000005,
                    "velocity": 0.5826771653543307,
                    "duration": 0.7098909999999989
                },
                {
                    "name": "C#4",
                    "midi": 61,
                    "time": 173.2134040000005,
                    "velocity": 0.5826771653543307,
                    "duration": 0.7098909999999989
                },
                {
                    "name": "F4",
                    "midi": 65,
                    "time": 173.2134040000005,
                    "velocity": 0.7007874015748031,
                    "duration": 0.7098909999999989
                },
                {
                    "name": "F4",
                    "midi": 65,
                    "time": 173.9232950000005,
                    "velocity": 0.5748031496062992,
                    "duration": 0.3549455000000137
                },
                {
                    "name": "F3",
                    "midi": 53,
                    "time": 173.9232950000005,
                    "velocity": 0.48031496062992124,
                    "duration": 0.3549455000000137
                },
                {
                    "name": "F#4",
                    "midi": 66,
                    "time": 174.63318600000053,
                    "velocity": 0.6141732283464567,
                    "duration": 0.3549455000000137
                },
                {
                    "name": "F#3",
                    "midi": 54,
                    "time": 174.63318600000053,
                    "velocity": 0.5196850393700787,
                    "duration": 0.3549455000000137
                },
                {
                    "name": "G#4",
                    "midi": 68,
                    "time": 175.34307700000056,
                    "velocity": 0.5905511811023622,
                    "duration": 0.3549455000000137
                },
                {
                    "name": "G#3",
                    "midi": 56,
                    "time": 175.34307700000056,
                    "velocity": 0.5118110236220472,
                    "duration": 0.3549455000000137
                },
                {
                    "name": "A#3",
                    "midi": 58,
                    "time": 176.0529680000006,
                    "velocity": 0.4566929133858268,
                    "duration": 0.7098909999999989
                },
                {
                    "name": "A#4",
                    "midi": 70,
                    "time": 176.0529680000006,
                    "velocity": 0.4566929133858268,
                    "duration": 0.7098909999999989
                },
                {
                    "name": "C3",
                    "midi": 48,
                    "time": 177.4727500000006,
                    "velocity": 0.2992125984251969,
                    "duration": 0.7098909999999989
                },
                {
                    "name": "D#3",
                    "midi": 51,
                    "time": 177.4727500000006,
                    "velocity": 0.2992125984251969,
                    "duration": 0.7098909999999989
                },
                {
                    "name": "G#3",
                    "midi": 56,
                    "time": 177.4727500000006,
                    "velocity": 0.36220472440944884,
                    "duration": 0.7098909999999989
                },
                {
                    "name": "F3",
                    "midi": 53,
                    "time": 178.89253200000059,
                    "velocity": 0.33070866141732286,
                    "duration": 0.3549455000000137
                },
                {
                    "name": "D#3",
                    "midi": 51,
                    "time": 179.6024230000006,
                    "velocity": 0.30708661417322836,
                    "duration": 0.3549455000000137
                },
                {
                    "name": "C#3",
                    "midi": 49,
                    "time": 180.31231400000064,
                    "velocity": 0.29133858267716534,
                    "duration": 0.3549455000000137
                },
                {
                    "name": "G#4",
                    "midi": 68,
                    "time": 181.73209600000067,
                    "velocity": 0.3700787401574803,
                    "duration": 0.3549455000000137
                },
                {
                    "name": "F4",
                    "midi": 65,
                    "time": 182.08704150000068,
                    "velocity": 0.31496062992125984,
                    "duration": 0.3549455000000137
                },
                {
                    "name": "C#4",
                    "midi": 61,
                    "time": 182.4419870000007,
                    "velocity": 0.33858267716535434,
                    "duration": 0.3549455000000137
                },
                {
                    "name": "G#4",
                    "midi": 68,
                    "time": 182.7969325000007,
                    "velocity": 0.30708661417322836,
                    "duration": 0.3549455000000137
                },
                {
                    "name": "C#4",
                    "midi": 61,
                    "time": 183.15187800000072,
                    "velocity": 0.3464566929133858,
                    "duration": 0.3549455000000137
                },
                {
                    "name": "A#4",
                    "midi": 70,
                    "time": 183.50682350000073,
                    "velocity": 0.31496062992125984,
                    "duration": 0.3549455000000137
                },
                {
                    "name": "F#4",
                    "midi": 66,
                    "time": 183.86176900000075,
                    "velocity": 0.31496062992125984,
                    "duration": 0.3549455000000137
                },
                {
                    "name": "C#4",
                    "midi": 61,
                    "time": 184.21671450000076,
                    "velocity": 0.2992125984251969,
                    "duration": 0.3549455000000137
                },
                {
                    "name": "G#4",
                    "midi": 68,
                    "time": 184.57166000000078,
                    "velocity": 0.3700787401574803,
                    "duration": 0.3549455000000137
                },
                {
                    "name": "F4",
                    "midi": 65,
                    "time": 184.9266055000008,
                    "velocity": 0.33858267716535434,
                    "duration": 0.3549455000000137
                },
                {
                    "name": "C#4",
                    "midi": 61,
                    "time": 185.2815510000008,
                    "velocity": 0.33858267716535434,
                    "duration": 0.3549455000000137
                },
                {
                    "name": "G#4",
                    "midi": 68,
                    "time": 185.63649650000082,
                    "velocity": 0.3464566929133858,
                    "duration": 0.3549455000000137
                },
                {
                    "name": "C#4",
                    "midi": 61,
                    "time": 185.99144200000083,
                    "velocity": 0.33070866141732286,
                    "duration": 0.3549455000000137
                },
                {
                    "name": "G#4",
                    "midi": 68,
                    "time": 186.34638750000084,
                    "velocity": 0.30708661417322836,
                    "duration": 0.3549455000000137
                },
                {
                    "name": "C#4",
                    "midi": 61,
                    "time": 186.70133300000086,
                    "velocity": 0.3464566929133858,
                    "duration": 0.3549455000000137
                },
                {
                    "name": "D#4",
                    "midi": 63,
                    "time": 186.70133300000086,
                    "velocity": 0.3464566929133858,
                    "duration": 0.3549455000000137
                },
                {
                    "name": "A#4",
                    "midi": 70,
                    "time": 187.05627850000087,
                    "velocity": 0.31496062992125984,
                    "duration": 0.3549455000000137
                },
                {
                    "name": "G#4",
                    "midi": 68,
                    "time": 187.41122400000089,
                    "velocity": 0.3700787401574803,
                    "duration": 0.3549455000000137
                },
                {
                    "name": "D#4",
                    "midi": 63,
                    "time": 187.7661695000009,
                    "velocity": 0.33858267716535434,
                    "duration": 0.3549455000000137
                },
                {
                    "name": "C#4",
                    "midi": 61,
                    "time": 188.1211150000009,
                    "velocity": 0.31496062992125984,
                    "duration": 0.3549455000000137
                },
                {
                    "name": "G#4",
                    "midi": 68,
                    "time": 188.47606050000093,
                    "velocity": 0.31496062992125984,
                    "duration": 0.3549455000000137
                },
                {
                    "name": "C4",
                    "midi": 60,
                    "time": 188.83100600000094,
                    "velocity": 0.36220472440944884,
                    "duration": 0.3549455000000137
                },
                {
                    "name": "G#4",
                    "midi": 68,
                    "time": 189.18595150000095,
                    "velocity": 0.31496062992125984,
                    "duration": 0.3549455000000137
                },
                {
                    "name": "D#4",
                    "midi": 63,
                    "time": 189.54089700000097,
                    "velocity": 0.33858267716535434,
                    "duration": 0.3549455000000137
                },
                {
                    "name": "C4",
                    "midi": 60,
                    "time": 189.89584250000098,
                    "velocity": 0.33858267716535434,
                    "duration": 0.3549455000000137
                },
                {
                    "name": "G#4",
                    "midi": 68,
                    "time": 190.250788000001,
                    "velocity": 0.3700787401574803,
                    "duration": 0.3549455000000137
                },
                {
                    "name": "F4",
                    "midi": 65,
                    "time": 190.605733500001,
                    "velocity": 0.3464566929133858,
                    "duration": 0.3549455000000137
                },
                {
                    "name": "C#4",
                    "midi": 61,
                    "time": 190.96067900000102,
                    "velocity": 0.33858267716535434,
                    "duration": 0.3549455000000137
                },
                {
                    "name": "G#4",
                    "midi": 68,
                    "time": 191.31562450000104,
                    "velocity": 0.33858267716535434,
                    "duration": 0.3549455000000137
                },
                {
                    "name": "F4",
                    "midi": 65,
                    "time": 191.67057000000105,
                    "velocity": 0.3700787401574803,
                    "duration": 0.3549455000000137
                },
                {
                    "name": "C#5",
                    "midi": 73,
                    "time": 192.02551550000106,
                    "velocity": 0.3464566929133858,
                    "duration": 0.3549455000000137
                },
                {
                    "name": "G#4",
                    "midi": 68,
                    "time": 192.38046100000108,
                    "velocity": 0.3228346456692913,
                    "duration": 0.3549455000000137
                },
                {
                    "name": "F4",
                    "midi": 65,
                    "time": 192.7354065000011,
                    "velocity": 0.2992125984251969,
                    "duration": 0.3549455000000137
                },
                {
                    "name": "C#5",
                    "midi": 73,
                    "time": 193.0903520000011,
                    "velocity": 0.3700787401574803,
                    "duration": 0.3549455000000137
                },
                {
                    "name": "G#4",
                    "midi": 68,
                    "time": 193.44529750000112,
                    "velocity": 0.33858267716535434,
                    "duration": 0.3549455000000137
                },
                {
                    "name": "F4",
                    "midi": 65,
                    "time": 193.80024300000113,
                    "velocity": 0.33858267716535434,
                    "duration": 0.3549455000000137
                },
                {
                    "name": "C#5",
                    "midi": 73,
                    "time": 194.15518850000115,
                    "velocity": 0.30708661417322836,
                    "duration": 0.3549455000000137
                },
                {
                    "name": "F#4",
                    "midi": 66,
                    "time": 194.51013400000116,
                    "velocity": 0.5039370078740157,
                    "duration": 0.3549455000000137
                },
                {
                    "name": "C#5",
                    "midi": 73,
                    "time": 194.86507950000117,
                    "velocity": 0.33858267716535434,
                    "duration": 0.3549455000000137
                },
                {
                    "name": "A#4",
                    "midi": 70,
                    "time": 195.2200250000012,
                    "velocity": 0.3700787401574803,
                    "duration": 0.3549455000000137
                },
                {
                    "name": "F#4",
                    "midi": 66,
                    "time": 195.5749705000012,
                    "velocity": 0.2992125984251969,
                    "duration": 0.3549455000000137
                },
                {
                    "name": "C#5",
                    "midi": 73,
                    "time": 195.9299160000012,
                    "velocity": 0.3700787401574803,
                    "duration": 0.3549455000000137
                },
                {
                    "name": "G#4",
                    "midi": 68,
                    "time": 196.28486150000123,
                    "velocity": 0.33858267716535434,
                    "duration": 0.3549455000000137
                },
                {
                    "name": "F4",
                    "midi": 65,
                    "time": 196.63980700000124,
                    "velocity": 0.33858267716535434,
                    "duration": 0.3549455000000137
                },
                {
                    "name": "C#5",
                    "midi": 73,
                    "time": 196.99475250000125,
                    "velocity": 0.3464566929133858,
                    "duration": 0.3549455000000137
                },
                {
                    "name": "F4",
                    "midi": 65,
                    "time": 197.34969800000127,
                    "velocity": 0.33070866141732286,
                    "duration": 0.3549455000000137
                },
                {
                    "name": "C#5",
                    "midi": 73,
                    "time": 197.70464350000128,
                    "velocity": 0.30708661417322836,
                    "duration": 0.3549455000000137
                },
                {
                    "name": "E4",
                    "midi": 64,
                    "time": 198.0595890000013,
                    "velocity": 0.3464566929133858,
                    "duration": 0.3549455000000137
                },
                {
                    "name": "G4",
                    "midi": 67,
                    "time": 198.0595890000013,
                    "velocity": 0.3464566929133858,
                    "duration": 0.3549455000000137
                },
                {
                    "name": "C#5",
                    "midi": 73,
                    "time": 198.4145345000013,
                    "velocity": 0.31496062992125984,
                    "duration": 0.3549455000000137
                },
                {
                    "name": "D#4",
                    "midi": 63,
                    "time": 198.76948000000132,
                    "velocity": 0.3700787401574803,
                    "duration": 0.3549455000000137
                },
                {
                    "name": "C#5",
                    "midi": 73,
                    "time": 199.12442550000134,
                    "velocity": 0.33858267716535434,
                    "duration": 0.3549455000000137
                },
                {
                    "name": "F#4",
                    "midi": 66,
                    "time": 199.47937100000135,
                    "velocity": 0.33858267716535434,
                    "duration": 0.3549455000000137
                },
                {
                    "name": "D#4",
                    "midi": 63,
                    "time": 199.83431650000136,
                    "velocity": 0.30708661417322836,
                    "duration": 0.3549455000000137
                },
                {
                    "name": "C5",
                    "midi": 72,
                    "time": 200.18926200000138,
                    "velocity": 0.36220472440944884,
                    "duration": 0.3549455000000137
                },
                {
                    "name": "F#4",
                    "midi": 66,
                    "time": 200.5442075000014,
                    "velocity": 0.33858267716535434,
                    "duration": 0.3549455000000137
                },
                {
                    "name": "D#4",
                    "midi": 63,
                    "time": 200.8991530000014,
                    "velocity": 0.33858267716535434,
                    "duration": 0.3549455000000137
                },
                {
                    "name": "C5",
                    "midi": 72,
                    "time": 201.25409850000142,
                    "velocity": 0.30708661417322836,
                    "duration": 0.3549455000000137
                },
                {
                    "name": "C#5",
                    "midi": 73,
                    "time": 201.60904400000143,
                    "velocity": 0.3700787401574803,
                    "duration": 0.3549455000000137
                },
                {
                    "name": "G#4",
                    "midi": 68,
                    "time": 201.96398950000145,
                    "velocity": 0.3464566929133858,
                    "duration": 0.3549455000000137
                },
                {
                    "name": "F4",
                    "midi": 65,
                    "time": 202.31893500000146,
                    "velocity": 0.33858267716535434,
                    "duration": 0.3549455000000137
                },
                {
                    "name": "C#5",
                    "midi": 73,
                    "time": 202.67388050000147,
                    "velocity": 0.33858267716535434,
                    "duration": 0.3549455000000137
                },
                {
                    "name": "G#4",
                    "midi": 68,
                    "time": 203.0288260000015,
                    "velocity": 0.3700787401574803,
                    "duration": 0.3549455000000137
                },
                {
                    "name": "F4",
                    "midi": 65,
                    "time": 203.3837715000015,
                    "velocity": 0.31496062992125984,
                    "duration": 0.3549455000000137
                },
                {
                    "name": "C#4",
                    "midi": 61,
                    "time": 203.73871700000151,
                    "velocity": 0.3228346456692913,
                    "duration": 0.3549455000000137
                },
                {
                    "name": "G#4",
                    "midi": 68,
                    "time": 204.09366250000153,
                    "velocity": 0.2992125984251969,
                    "duration": 0.3549455000000137
                },
                {
                    "name": "G#4",
                    "midi": 68,
                    "time": 204.44860800000154,
                    "velocity": 0.3700787401574803,
                    "duration": 0.3549455000000137
                },
                {
                    "name": "F4",
                    "midi": 65,
                    "time": 204.80355350000156,
                    "velocity": 0.31496062992125984,
                    "duration": 0.3549455000000137
                },
                {
                    "name": "C#4",
                    "midi": 61,
                    "time": 205.15849900000157,
                    "velocity": 0.33858267716535434,
                    "duration": 0.3549455000000137
                },
                {
                    "name": "G#4",
                    "midi": 68,
                    "time": 205.51344450000158,
                    "velocity": 0.30708661417322836,
                    "duration": 0.3549455000000137
                },
                {
                    "name": "C#4",
                    "midi": 61,
                    "time": 205.8683900000016,
                    "velocity": 0.3464566929133858,
                    "duration": 0.3549455000000137
                },
                {
                    "name": "A#4",
                    "midi": 70,
                    "time": 206.2233355000016,
                    "velocity": 0.31496062992125984,
                    "duration": 0.3549455000000137
                },
                {
                    "name": "F#4",
                    "midi": 66,
                    "time": 206.57828100000162,
                    "velocity": 0.31496062992125984,
                    "duration": 0.3549455000000137
                },
                {
                    "name": "C#4",
                    "midi": 61,
                    "time": 206.93322650000164,
                    "velocity": 0.2992125984251969,
                    "duration": 0.3549455000000137
                },
                {
                    "name": "G#4",
                    "midi": 68,
                    "time": 207.28817200000165,
                    "velocity": 0.3700787401574803,
                    "duration": 0.3549455000000137
                },
                {
                    "name": "F4",
                    "midi": 65,
                    "time": 207.64311750000167,
                    "velocity": 0.33858267716535434,
                    "duration": 0.3549455000000137
                },
                {
                    "name": "C#4",
                    "midi": 61,
                    "time": 207.99806300000168,
                    "velocity": 0.33858267716535434,
                    "duration": 0.3549455000000137
                },
                {
                    "name": "G#4",
                    "midi": 68,
                    "time": 208.3530085000017,
                    "velocity": 0.3464566929133858,
                    "duration": 0.3549455000000137
                },
                {
                    "name": "C#4",
                    "midi": 61,
                    "time": 208.7079540000017,
                    "velocity": 0.33070866141732286,
                    "duration": 0.3549455000000137
                },
                {
                    "name": "G#4",
                    "midi": 68,
                    "time": 209.06289950000172,
                    "velocity": 0.30708661417322836,
                    "duration": 0.3549455000000137
                },
                {
                    "name": "C#4",
                    "midi": 61,
                    "time": 209.41784500000173,
                    "velocity": 0.3464566929133858,
                    "duration": 0.3549455000000137
                },
                {
                    "name": "D#4",
                    "midi": 63,
                    "time": 209.41784500000173,
                    "velocity": 0.3464566929133858,
                    "duration": 0.3549455000000137
                },
                {
                    "name": "A#4",
                    "midi": 70,
                    "time": 209.77279050000175,
                    "velocity": 0.31496062992125984,
                    "duration": 0.3549455000000137
                },
                {
                    "name": "G#4",
                    "midi": 68,
                    "time": 210.12773600000176,
                    "velocity": 0.3700787401574803,
                    "duration": 0.3549455000000137
                },
                {
                    "name": "D#4",
                    "midi": 63,
                    "time": 210.48268150000177,
                    "velocity": 0.33858267716535434,
                    "duration": 0.3549455000000137
                },
                {
                    "name": "C#4",
                    "midi": 61,
                    "time": 210.8376270000018,
                    "velocity": 0.31496062992125984,
                    "duration": 0.3549455000000137
                },
                {
                    "name": "G#4",
                    "midi": 68,
                    "time": 211.1925725000018,
                    "velocity": 0.31496062992125984,
                    "duration": 0.3549455000000137
                },
                {
                    "name": "C4",
                    "midi": 60,
                    "time": 211.54751800000182,
                    "velocity": 0.36220472440944884,
                    "duration": 0.3549455000000137
                },
                {
                    "name": "G#4",
                    "midi": 68,
                    "time": 211.90246350000183,
                    "velocity": 0.31496062992125984,
                    "duration": 0.3549455000000137
                },
                {
                    "name": "D#4",
                    "midi": 63,
                    "time": 212.25740900000184,
                    "velocity": 0.33858267716535434,
                    "duration": 0.3549455000000137
                },
                {
                    "name": "C4",
                    "midi": 60,
                    "time": 212.61235450000186,
                    "velocity": 0.33858267716535434,
                    "duration": 0.3549455000000137
                },
                {
                    "name": "G#4",
                    "midi": 68,
                    "time": 212.96730000000187,
                    "velocity": 0.3700787401574803,
                    "duration": 0.3549455000000137
                },
                {
                    "name": "F4",
                    "midi": 65,
                    "time": 213.32224550000188,
                    "velocity": 0.3464566929133858,
                    "duration": 0.3549455000000137
                },
                {
                    "name": "C#4",
                    "midi": 61,
                    "time": 213.6771910000019,
                    "velocity": 0.33858267716535434,
                    "duration": 0.3549455000000137
                },
                {
                    "name": "G#4",
                    "midi": 68,
                    "time": 214.0321365000019,
                    "velocity": 0.33858267716535434,
                    "duration": 0.3549455000000137
                },
                {
                    "name": "F4",
                    "midi": 65,
                    "time": 214.38708200000193,
                    "velocity": 0.3700787401574803,
                    "duration": 0.3549455000000137
                },
                {
                    "name": "C#5",
                    "midi": 73,
                    "time": 214.74202750000194,
                    "velocity": 0.3464566929133858,
                    "duration": 0.3549455000000137
                },
                {
                    "name": "G#4",
                    "midi": 68,
                    "time": 215.09697300000195,
                    "velocity": 0.3228346456692913,
                    "duration": 0.3549455000000137
                },
                {
                    "name": "F4",
                    "midi": 65,
                    "time": 215.45191850000197,
                    "velocity": 0.2992125984251969,
                    "duration": 0.3549455000000137
                },
                {
                    "name": "C#5",
                    "midi": 73,
                    "time": 215.80686400000198,
                    "velocity": 0.3700787401574803,
                    "duration": 0.3549455000000137
                },
                {
                    "name": "G#4",
                    "midi": 68,
                    "time": 216.161809500002,
                    "velocity": 0.33858267716535434,
                    "duration": 0.3549455000000137
                },
                {
                    "name": "F4",
                    "midi": 65,
                    "time": 216.516755000002,
                    "velocity": 0.33858267716535434,
                    "duration": 0.3549455000000137
                },
                {
                    "name": "C#5",
                    "midi": 73,
                    "time": 216.87170050000202,
                    "velocity": 0.30708661417322836,
                    "duration": 0.3549455000000137
                },
                {
                    "name": "F#4",
                    "midi": 66,
                    "time": 217.22664600000203,
                    "velocity": 0.4645669291338583,
                    "duration": 0.3549455000000137
                },
                {
                    "name": "C#5",
                    "midi": 73,
                    "time": 217.58159150000205,
                    "velocity": 0.33858267716535434,
                    "duration": 0.3549455000000137
                },
                {
                    "name": "A#4",
                    "midi": 70,
                    "time": 217.93653700000206,
                    "velocity": 0.3700787401574803,
                    "duration": 0.3549455000000137
                },
                {
                    "name": "F#4",
                    "midi": 66,
                    "time": 218.29148250000208,
                    "velocity": 0.2992125984251969,
                    "duration": 0.3549455000000137
                },
                {
                    "name": "C#5",
                    "midi": 73,
                    "time": 218.6464280000021,
                    "velocity": 0.3700787401574803,
                    "duration": 0.3549455000000137
                },
                {
                    "name": "G#4",
                    "midi": 68,
                    "time": 219.0013735000021,
                    "velocity": 0.33858267716535434,
                    "duration": 0.3549455000000137
                },
                {
                    "name": "F4",
                    "midi": 65,
                    "time": 219.35631900000212,
                    "velocity": 0.33858267716535434,
                    "duration": 0.3549455000000137
                },
                {
                    "name": "C#5",
                    "midi": 73,
                    "time": 219.71126450000213,
                    "velocity": 0.3464566929133858,
                    "duration": 0.3549455000000137
                },
                {
                    "name": "F4",
                    "midi": 65,
                    "time": 220.06621000000214,
                    "velocity": 0.33070866141732286,
                    "duration": 0.3549455000000137
                },
                {
                    "name": "C#5",
                    "midi": 73,
                    "time": 220.42115550000216,
                    "velocity": 0.30708661417322836,
                    "duration": 0.3549455000000137
                },
                {
                    "name": "E4",
                    "midi": 64,
                    "time": 220.77610100000217,
                    "velocity": 0.3464566929133858,
                    "duration": 0.3549455000000137
                },
                {
                    "name": "G4",
                    "midi": 67,
                    "time": 220.77610100000217,
                    "velocity": 0.3464566929133858,
                    "duration": 0.3549455000000137
                },
                {
                    "name": "C#5",
                    "midi": 73,
                    "time": 221.13104650000218,
                    "velocity": 0.31496062992125984,
                    "duration": 0.3549455000000137
                },
                {
                    "name": "D#4",
                    "midi": 63,
                    "time": 221.4859920000022,
                    "velocity": 0.3700787401574803,
                    "duration": 0.3549455000000137
                },
                {
                    "name": "C#5",
                    "midi": 73,
                    "time": 221.8409375000022,
                    "velocity": 0.33858267716535434,
                    "duration": 0.3549455000000137
                },
                {
                    "name": "F#4",
                    "midi": 66,
                    "time": 222.19588300000223,
                    "velocity": 0.33858267716535434,
                    "duration": 0.3549455000000137
                },
                {
                    "name": "D#4",
                    "midi": 63,
                    "time": 222.55082850000224,
                    "velocity": 0.30708661417322836,
                    "duration": 0.3549455000000137
                },
                {
                    "name": "C5",
                    "midi": 72,
                    "time": 222.90577400000225,
                    "velocity": 0.36220472440944884,
                    "duration": 0.3549455000000137
                },
                {
                    "name": "F#4",
                    "midi": 66,
                    "time": 223.26071950000227,
                    "velocity": 0.33858267716535434,
                    "duration": 0.3549455000000137
                },
                {
                    "name": "D#4",
                    "midi": 63,
                    "time": 223.61566500000228,
                    "velocity": 0.33858267716535434,
                    "duration": 0.3549455000000137
                },
                {
                    "name": "C5",
                    "midi": 72,
                    "time": 223.9706105000023,
                    "velocity": 0.30708661417322836,
                    "duration": 0.3549455000000137
                },
                {
                    "name": "C#5",
                    "midi": 73,
                    "time": 224.3255560000023,
                    "velocity": 0.3700787401574803,
                    "duration": 0.3549455000000137
                },
                {
                    "name": "G#4",
                    "midi": 68,
                    "time": 224.68050150000232,
                    "velocity": 0.3464566929133858,
                    "duration": 0.3549455000000137
                },
                {
                    "name": "F4",
                    "midi": 65,
                    "time": 225.03544700000234,
                    "velocity": 0.33858267716535434,
                    "duration": 0.3549455000000137
                },
                {
                    "name": "C#5",
                    "midi": 73,
                    "time": 225.39039250000235,
                    "velocity": 0.33858267716535434,
                    "duration": 0.3549455000000137
                },
                {
                    "name": "G#4",
                    "midi": 68,
                    "time": 225.74533800000236,
                    "velocity": 0.3700787401574803,
                    "duration": 0.3549455000000137
                },
                {
                    "name": "F4",
                    "midi": 65,
                    "time": 226.10028350000238,
                    "velocity": 0.31496062992125984,
                    "duration": 0.3549455000000137
                },
                {
                    "name": "C#4",
                    "midi": 61,
                    "time": 226.4552290000024,
                    "velocity": 0.3228346456692913,
                    "duration": 0.3549455000000137
                },
                {
                    "name": "G#4",
                    "midi": 68,
                    "time": 226.8101745000024,
                    "velocity": 0.2992125984251969,
                    "duration": 0.3549455000000137
                },
                {
                    "name": "G#4",
                    "midi": 68,
                    "time": 227.16512000000242,
                    "velocity": 0.3700787401574803,
                    "duration": 0.3549455000000137
                },
                {
                    "name": "D#4",
                    "midi": 63,
                    "time": 227.52006550000243,
                    "velocity": 0.31496062992125984,
                    "duration": 0.3549455000000137
                },
                {
                    "name": "C4",
                    "midi": 60,
                    "time": 227.87501100000244,
                    "velocity": 0.33858267716535434,
                    "duration": 0.3549455000000137
                },
                {
                    "name": "G#4",
                    "midi": 68,
                    "time": 228.22995650000246,
                    "velocity": 0.30708661417322836,
                    "duration": 0.3549455000000137
                },
                {
                    "name": "C4",
                    "midi": 60,
                    "time": 228.58490200000247,
                    "velocity": 0.3464566929133858,
                    "duration": 0.3549455000000137
                },
                {
                    "name": "G#4",
                    "midi": 68,
                    "time": 228.9398475000025,
                    "velocity": 0.31496062992125984,
                    "duration": 0.3549455000000137
                },
                {
                    "name": "F#4",
                    "midi": 66,
                    "time": 229.2947930000025,
                    "velocity": 0.31496062992125984,
                    "duration": 0.3549455000000137
                },
                {
                    "name": "C4",
                    "midi": 60,
                    "time": 229.6497385000025,
                    "velocity": 0.2992125984251969,
                    "duration": 0.3549455000000137
                },
                {
                    "name": "C#4",
                    "midi": 61,
                    "time": 230.00468400000253,
                    "velocity": 0.3858267716535433,
                    "duration": 0.3549455000000137
                },
                {
                    "name": "F4",
                    "midi": 65,
                    "time": 230.35962950000254,
                    "velocity": 0.3858267716535433,
                    "duration": 0.3549455000000137
                },
                {
                    "name": "G#4",
                    "midi": 68,
                    "time": 230.71457500000255,
                    "velocity": 0.41732283464566927,
                    "duration": 0.3549455000000137
                },
                {
                    "name": "C#5",
                    "midi": 73,
                    "time": 231.06952050000257,
                    "velocity": 0.44881889763779526,
                    "duration": 0.3549455000000137
                },
                {
                    "name": "C5",
                    "midi": 72,
                    "time": 231.42446600000258,
                    "velocity": 0.4881889763779528,
                    "duration": 0.3549455000000137
                },
                {
                    "name": "F#4",
                    "midi": 66,
                    "time": 231.7794115000026,
                    "velocity": 0.3858267716535433,
                    "duration": 0.3549455000000137
                },
                {
                    "name": "C#5",
                    "midi": 73,
                    "time": 232.1343570000026,
                    "velocity": 0.4330708661417323,
                    "duration": 0.3549455000000137
                },
                {
                    "name": "F4",
                    "midi": 65,
                    "time": 232.48930250000262,
                    "velocity": 0.33858267716535434,
                    "duration": 0.3549455000000137
                },
                {
                    "name": "G#4",
                    "midi": 68,
                    "time": 232.84424800000264,
                    "velocity": 0.3700787401574803,
                    "duration": 0.3549455000000137
                },
                {
                    "name": "D#4",
                    "midi": 63,
                    "time": 233.19919350000265,
                    "velocity": 0.31496062992125984,
                    "duration": 0.3549455000000137
                },
                {
                    "name": "C4",
                    "midi": 60,
                    "time": 233.55413900000266,
                    "velocity": 0.33858267716535434,
                    "duration": 0.3549455000000137
                },
                {
                    "name": "G#4",
                    "midi": 68,
                    "time": 233.90908450000268,
                    "velocity": 0.30708661417322836,
                    "duration": 0.3549455000000137
                },
                {
                    "name": "C4",
                    "midi": 60,
                    "time": 234.2640300000027,
                    "velocity": 0.3464566929133858,
                    "duration": 0.3549455000000137
                },
                {
                    "name": "G#4",
                    "midi": 68,
                    "time": 234.6189755000027,
                    "velocity": 0.31496062992125984,
                    "duration": 0.3549455000000137
                },
                {
                    "name": "F#4",
                    "midi": 66,
                    "time": 234.97392100000272,
                    "velocity": 0.31496062992125984,
                    "duration": 0.3549455000000137
                },
                {
                    "name": "C4",
                    "midi": 60,
                    "time": 235.32886650000273,
                    "velocity": 0.2992125984251969,
                    "duration": 0.3549455000000137
                },
                {
                    "name": "C#4",
                    "midi": 61,
                    "time": 235.68381200000275,
                    "velocity": 0.3858267716535433,
                    "duration": 0.3549455000000137
                },
                {
                    "name": "F4",
                    "midi": 65,
                    "time": 236.03875750000276,
                    "velocity": 0.3858267716535433,
                    "duration": 0.3549455000000137
                },
                {
                    "name": "G#4",
                    "midi": 68,
                    "time": 236.39370300000277,
                    "velocity": 0.41732283464566927,
                    "duration": 0.3549455000000137
                },
                {
                    "name": "F5",
                    "midi": 77,
                    "time": 236.7486485000028,
                    "velocity": 0.4330708661417323,
                    "duration": 0.3549455000000137
                },
                {
                    "name": "D#5",
                    "midi": 75,
                    "time": 237.1035940000028,
                    "velocity": 0.4881889763779528,
                    "duration": 0.3549455000000137
                },
                {
                    "name": "F#4",
                    "midi": 66,
                    "time": 237.45853950000281,
                    "velocity": 0.3858267716535433,
                    "duration": 0.3549455000000137
                },
                {
                    "name": "C#5",
                    "midi": 73,
                    "time": 237.81348500000283,
                    "velocity": 0.4330708661417323,
                    "duration": 0.3549455000000137
                },
                {
                    "name": "F4",
                    "midi": 65,
                    "time": 238.16843050000284,
                    "velocity": 0.33858267716535434,
                    "duration": 0.3549455000000137
                },
                {
                    "name": "G#4",
                    "midi": 68,
                    "time": 238.52337600000286,
                    "velocity": 0.4566929133858268,
                    "duration": 0.3549455000000137
                },
                {
                    "name": "D#4",
                    "midi": 63,
                    "time": 238.87832150000287,
                    "velocity": 0.3937007874015748,
                    "duration": 0.3549455000000137
                },
                {
                    "name": "C4",
                    "midi": 60,
                    "time": 239.23326700000288,
                    "velocity": 0.4566929133858268,
                    "duration": 0.3549455000000137
                },
                {
                    "name": "G#4",
                    "midi": 68,
                    "time": 239.5882125000029,
                    "velocity": 0.41732283464566927,
                    "duration": 0.3549455000000137
                },
                {
                    "name": "C4",
                    "midi": 60,
                    "time": 239.9431580000029,
                    "velocity": 0.5275590551181102,
                    "duration": 0.3549455000000137
                },
                {
                    "name": "G#4",
                    "midi": 68,
                    "time": 240.29810350000292,
                    "velocity": 0.4881889763779528,
                    "duration": 0.3549455000000137
                },
                {
                    "name": "F#4",
                    "midi": 66,
                    "time": 240.65304900000294,
                    "velocity": 0.5275590551181102,
                    "duration": 0.3549455000000137
                },
                {
                    "name": "C4",
                    "midi": 60,
                    "time": 241.00799450000295,
                    "velocity": 0.49606299212598426,
                    "duration": 0.3549455000000137
                },
                {
                    "name": "G#5",
                    "midi": 80,
                    "time": 241.71788550000298,
                    "velocity": 0.5748031496062992,
                    "duration": 0.3549455000000137
                },
                {
                    "name": "G#4",
                    "midi": 68,
                    "time": 242.072831000003,
                    "velocity": 0.5826771653543307,
                    "duration": 0.3549455000000137
                },
                {
                    "name": "G#5",
                    "midi": 80,
                    "time": 242.427776500003,
                    "velocity": 0.5118110236220472,
                    "duration": 0.3549455000000137
                },
                {
                    "name": "F#5",
                    "midi": 78,
                    "time": 242.78272200000302,
                    "velocity": 0.5511811023622047,
                    "duration": 0.3549455000000137
                },
                {
                    "name": "G#4",
                    "midi": 68,
                    "time": 243.13766750000303,
                    "velocity": 0.4566929133858268,
                    "duration": 0.3549455000000137
                },
                {
                    "name": "F5",
                    "midi": 77,
                    "time": 243.49261300000305,
                    "velocity": 0.49606299212598426,
                    "duration": 0.3549455000000137
                },
                {
                    "name": "G#4",
                    "midi": 68,
                    "time": 243.84755850000306,
                    "velocity": 0.3779527559055118,
                    "duration": 0.3549455000000137
                },
                {
                    "name": "D#5",
                    "midi": 75,
                    "time": 244.20250400000307,
                    "velocity": 0.3700787401574803,
                    "duration": 0.3549455000000137
                },
                {
                    "name": "A#4",
                    "midi": 70,
                    "time": 244.5574495000031,
                    "velocity": 0.33858267716535434,
                    "duration": 0.3549455000000137
                },
                {
                    "name": "F#4",
                    "midi": 66,
                    "time": 244.9123950000031,
                    "velocity": 0.33858267716535434,
                    "duration": 0.3549455000000137
                },
                {
                    "name": "D#5",
                    "midi": 75,
                    "time": 245.26734050000312,
                    "velocity": 0.30708661417322836,
                    "duration": 0.3549455000000137
                },
                {
                    "name": "G#4",
                    "midi": 68,
                    "time": 245.62228600000313,
                    "velocity": 0.36220472440944884,
                    "duration": 0.3549455000000137
                },
                {
                    "name": "F#4",
                    "midi": 66,
                    "time": 245.97723150000314,
                    "velocity": 0.33858267716535434,
                    "duration": 0.3549455000000137
                },
                {
                    "name": "D#4",
                    "midi": 63,
                    "time": 246.33217700000316,
                    "velocity": 0.33858267716535434,
                    "duration": 0.3549455000000137
                },
                {
                    "name": "G#4",
                    "midi": 68,
                    "time": 246.68712250000317,
                    "velocity": 0.30708661417322836,
                    "duration": 0.3549455000000137
                },
                {
                    "name": "F4",
                    "midi": 65,
                    "time": 247.04206800000318,
                    "velocity": 0.3700787401574803,
                    "duration": 0.3549455000000137
                },
                {
                    "name": "C#5",
                    "midi": 73,
                    "time": 247.3970135000032,
                    "velocity": 0.3464566929133858,
                    "duration": 0.3549455000000137
                },
                {
                    "name": "G#4",
                    "midi": 68,
                    "time": 247.7519590000032,
                    "velocity": 0.33858267716535434,
                    "duration": 0.3549455000000137
                },
                {
                    "name": "F4",
                    "midi": 65,
                    "time": 248.10690450000322,
                    "velocity": 0.33858267716535434,
                    "duration": 0.3549455000000137
                },
                {
                    "name": "C#4",
                    "midi": 61,
                    "time": 248.46185000000324,
                    "velocity": 0.3700787401574803,
                    "duration": 0.3549455000000137
                },
                {
                    "name": "G#4",
                    "midi": 68,
                    "time": 249.88163200000326,
                    "velocity": 0.3700787401574803,
                    "duration": 0.3549455000000137
                },
                {
                    "name": "D#4",
                    "midi": 63,
                    "time": 250.23657750000328,
                    "velocity": 0.31496062992125984,
                    "duration": 0.3549455000000137
                },
                {
                    "name": "C4",
                    "midi": 60,
                    "time": 250.5915230000033,
                    "velocity": 0.33858267716535434,
                    "duration": 0.3549455000000137
                },
                {
                    "name": "G#4",
                    "midi": 68,
                    "time": 250.9464685000033,
                    "velocity": 0.30708661417322836,
                    "duration": 0.3549455000000137
                },
                {
                    "name": "C4",
                    "midi": 60,
                    "time": 251.30141400000332,
                    "velocity": 0.3464566929133858,
                    "duration": 0.3549455000000137
                },
                {
                    "name": "G#4",
                    "midi": 68,
                    "time": 251.65635950000333,
                    "velocity": 0.31496062992125984,
                    "duration": 0.3549455000000137
                },
                {
                    "name": "F#4",
                    "midi": 66,
                    "time": 252.01130500000335,
                    "velocity": 0.31496062992125984,
                    "duration": 0.3549455000000137
                },
                {
                    "name": "C4",
                    "midi": 60,
                    "time": 252.36625050000336,
                    "velocity": 0.2992125984251969,
                    "duration": 0.3549455000000137
                },
                {
                    "name": "C#4",
                    "midi": 61,
                    "time": 252.72119600000337,
                    "velocity": 0.3858267716535433,
                    "duration": 0.3549455000000137
                },
                {
                    "name": "F4",
                    "midi": 65,
                    "time": 253.0761415000034,
                    "velocity": 0.3858267716535433,
                    "duration": 0.3549455000000137
                },
                {
                    "name": "G#4",
                    "midi": 68,
                    "time": 253.4310870000034,
                    "velocity": 0.41732283464566927,
                    "duration": 0.3549455000000137
                },
                {
                    "name": "C#5",
                    "midi": 73,
                    "time": 253.78603250000342,
                    "velocity": 0.44881889763779526,
                    "duration": 0.3549455000000137
                },
                {
                    "name": "C5",
                    "midi": 72,
                    "time": 254.14097800000343,
                    "velocity": 0.4881889763779528,
                    "duration": 0.3549455000000137
                },
                {
                    "name": "F#4",
                    "midi": 66,
                    "time": 254.49592350000344,
                    "velocity": 0.3858267716535433,
                    "duration": 0.3549455000000137
                },
                {
                    "name": "C#5",
                    "midi": 73,
                    "time": 254.85086900000346,
                    "velocity": 0.4330708661417323,
                    "duration": 0.3549455000000137
                },
                {
                    "name": "F4",
                    "midi": 65,
                    "time": 255.20581450000347,
                    "velocity": 0.33858267716535434,
                    "duration": 0.3549455000000137
                },
                {
                    "name": "G#4",
                    "midi": 68,
                    "time": 255.56076000000348,
                    "velocity": 0.3700787401574803,
                    "duration": 0.3549455000000137
                },
                {
                    "name": "D#4",
                    "midi": 63,
                    "time": 255.9157055000035,
                    "velocity": 0.31496062992125984,
                    "duration": 0.3549455000000137
                },
                {
                    "name": "C4",
                    "midi": 60,
                    "time": 256.2706510000035,
                    "velocity": 0.33858267716535434,
                    "duration": 0.35494549999998526
                },
                {
                    "name": "G#4",
                    "midi": 68,
                    "time": 256.6255965000035,
                    "velocity": 0.30708661417322836,
                    "duration": 0.35494549999998526
                },
                {
                    "name": "C4",
                    "midi": 60,
                    "time": 256.9805420000035,
                    "velocity": 0.3464566929133858,
                    "duration": 0.35494549999998526
                },
                {
                    "name": "G#4",
                    "midi": 68,
                    "time": 257.33548750000347,
                    "velocity": 0.31496062992125984,
                    "duration": 0.35494549999998526
                },
                {
                    "name": "F#4",
                    "midi": 66,
                    "time": 257.69043300000345,
                    "velocity": 0.31496062992125984,
                    "duration": 0.35494549999998526
                },
                {
                    "name": "C4",
                    "midi": 60,
                    "time": 258.04537850000344,
                    "velocity": 0.2992125984251969,
                    "duration": 0.35494549999998526
                },
                {
                    "name": "C#4",
                    "midi": 61,
                    "time": 258.4003240000034,
                    "velocity": 0.3858267716535433,
                    "duration": 0.35494549999998526
                },
                {
                    "name": "F4",
                    "midi": 65,
                    "time": 258.7552695000034,
                    "velocity": 0.3858267716535433,
                    "duration": 0.35494549999998526
                },
                {
                    "name": "G#4",
                    "midi": 68,
                    "time": 259.1102150000034,
                    "velocity": 0.41732283464566927,
                    "duration": 0.35494549999998526
                },
                {
                    "name": "F5",
                    "midi": 77,
                    "time": 259.4651605000034,
                    "velocity": 0.4251968503937008,
                    "duration": 0.35494549999998526
                },
                {
                    "name": "D#5",
                    "midi": 75,
                    "time": 259.82010600000336,
                    "velocity": 0.4881889763779528,
                    "duration": 0.35494549999998526
                },
                {
                    "name": "F#4",
                    "midi": 66,
                    "time": 260.17505150000335,
                    "velocity": 0.3858267716535433,
                    "duration": 0.35494549999998526
                },
                {
                    "name": "C#5",
                    "midi": 73,
                    "time": 260.52999700000333,
                    "velocity": 0.4330708661417323,
                    "duration": 0.35494549999998526
                },
                {
                    "name": "F4",
                    "midi": 65,
                    "time": 260.8849425000033,
                    "velocity": 0.33858267716535434,
                    "duration": 0.35494549999998526
                },
                {
                    "name": "G#4",
                    "midi": 68,
                    "time": 261.2398880000033,
                    "velocity": 0.4566929133858268,
                    "duration": 0.35494549999998526
                },
                {
                    "name": "D#4",
                    "midi": 63,
                    "time": 261.5948335000033,
                    "velocity": 0.3937007874015748,
                    "duration": 0.35494549999998526
                },
                {
                    "name": "C4",
                    "midi": 60,
                    "time": 261.9497790000033,
                    "velocity": 0.4566929133858268,
                    "duration": 0.35494549999998526
                },
                {
                    "name": "G#4",
                    "midi": 68,
                    "time": 262.30472450000326,
                    "velocity": 0.41732283464566927,
                    "duration": 0.35494549999998526
                },
                {
                    "name": "C4",
                    "midi": 60,
                    "time": 262.65967000000325,
                    "velocity": 0.5275590551181102,
                    "duration": 0.35494549999998526
                },
                {
                    "name": "G#4",
                    "midi": 68,
                    "time": 263.01461550000323,
                    "velocity": 0.4881889763779528,
                    "duration": 0.35494549999998526
                },
                {
                    "name": "F#4",
                    "midi": 66,
                    "time": 263.3695610000032,
                    "velocity": 0.5275590551181102,
                    "duration": 0.35494549999998526
                },
                {
                    "name": "C4",
                    "midi": 60,
                    "time": 263.7245065000032,
                    "velocity": 0.5039370078740157,
                    "duration": 0.35494549999998526
                },
                {
                    "name": "G#5",
                    "midi": 80,
                    "time": 264.4343975000032,
                    "velocity": 0.5826771653543307,
                    "duration": 0.35494549999998526
                },
                {
                    "name": "G#4",
                    "midi": 68,
                    "time": 264.78934300000316,
                    "velocity": 0.5826771653543307,
                    "duration": 0.35494549999998526
                },
                {
                    "name": "G#5",
                    "midi": 80,
                    "time": 265.14428850000314,
                    "velocity": 0.5196850393700787,
                    "duration": 0.35494549999998526
                },
                {
                    "name": "F#5",
                    "midi": 78,
                    "time": 265.4992340000031,
                    "velocity": 0.5748031496062992,
                    "duration": 0.35494549999998526
                },
                {
                    "name": "G#4",
                    "midi": 68,
                    "time": 265.8541795000031,
                    "velocity": 0.4566929133858268,
                    "duration": 0.35494549999998526
                },
                {
                    "name": "F5",
                    "midi": 77,
                    "time": 266.2091250000031,
                    "velocity": 0.49606299212598426,
                    "duration": 0.35494549999998526
                },
                {
                    "name": "G#4",
                    "midi": 68,
                    "time": 266.5640705000031,
                    "velocity": 0.3779527559055118,
                    "duration": 0.35494549999998526
                },
                {
                    "name": "D#5",
                    "midi": 75,
                    "time": 266.91901600000307,
                    "velocity": 0.3700787401574803,
                    "duration": 0.35494549999998526
                },
                {
                    "name": "A#4",
                    "midi": 70,
                    "time": 267.27396150000305,
                    "velocity": 0.33858267716535434,
                    "duration": 0.35494549999998526
                },
                {
                    "name": "F#4",
                    "midi": 66,
                    "time": 267.62890700000304,
                    "velocity": 0.33858267716535434,
                    "duration": 0.35494549999998526
                },
                {
                    "name": "D#5",
                    "midi": 75,
                    "time": 267.983852500003,
                    "velocity": 0.30708661417322836,
                    "duration": 0.35494549999998526
                },
                {
                    "name": "G#4",
                    "midi": 68,
                    "time": 268.338798000003,
                    "velocity": 0.36220472440944884,
                    "duration": 0.35494549999998526
                },
                {
                    "name": "F#4",
                    "midi": 66,
                    "time": 268.693743500003,
                    "velocity": 0.33858267716535434,
                    "duration": 0.35494549999998526
                },
                {
                    "name": "D#4",
                    "midi": 63,
                    "time": 269.048689000003,
                    "velocity": 0.33858267716535434,
                    "duration": 0.35494549999998526
                },
                {
                    "name": "G#4",
                    "midi": 68,
                    "time": 269.40363450000297,
                    "velocity": 0.30708661417322836,
                    "duration": 0.35494549999998526
                },
                {
                    "name": "F4",
                    "midi": 65,
                    "time": 269.75858000000295,
                    "velocity": 0.3700787401574803,
                    "duration": 0.35494549999998526
                },
                {
                    "name": "C#5",
                    "midi": 73,
                    "time": 270.11352550000294,
                    "velocity": 0.3464566929133858,
                    "duration": 0.35494549999998526
                },
                {
                    "name": "G#4",
                    "midi": 68,
                    "time": 270.4684710000029,
                    "velocity": 0.33858267716535434,
                    "duration": 0.35494549999998526
                },
                {
                    "name": "F4",
                    "midi": 65,
                    "time": 270.8234165000029,
                    "velocity": 0.33858267716535434,
                    "duration": 0.35494549999998526
                },
                {
                    "name": "C#4",
                    "midi": 61,
                    "time": 271.1783620000029,
                    "velocity": 0.3700787401574803,
                    "duration": 0.35494549999998526
                },
                {
                    "name": "G#5",
                    "midi": 80,
                    "time": 273.30803500000286,
                    "velocity": 0.5669291338582677,
                    "duration": 1.4197819999999979
                },
                {
                    "name": "A#5",
                    "midi": 82,
                    "time": 274.72781700000286,
                    "velocity": 0.5826771653543307,
                    "duration": 1.4197819999999979
                },
                {
                    "name": "G#5",
                    "midi": 80,
                    "time": 276.14759900000286,
                    "velocity": 0.5669291338582677,
                    "duration": 1.4197819999999979
                },
                {
                    "name": "C#5",
                    "midi": 73,
                    "time": 277.56738100000285,
                    "velocity": 0.5118110236220472,
                    "duration": 0.7098910000000274
                },
                {
                    "name": "D#5",
                    "midi": 75,
                    "time": 277.56738100000285,
                    "velocity": 0.5118110236220472,
                    "duration": 0.7098910000000274
                },
                {
                    "name": "A#5",
                    "midi": 82,
                    "time": 277.56738100000285,
                    "velocity": 0.6062992125984252,
                    "duration": 0.7098910000000274
                },
                {
                    "name": "C#5",
                    "midi": 73,
                    "time": 278.2772720000029,
                    "velocity": 0.5354330708661418,
                    "duration": 0.7098910000000274
                },
                {
                    "name": "D#5",
                    "midi": 75,
                    "time": 278.2772720000029,
                    "velocity": 0.5354330708661418,
                    "duration": 0.7098910000000274
                },
                {
                    "name": "G#5",
                    "midi": 80,
                    "time": 278.2772720000029,
                    "velocity": 0.6299212598425197,
                    "duration": 0.7098910000000274
                },
                {
                    "name": "C#5",
                    "midi": 73,
                    "time": 278.9871630000029,
                    "velocity": 0.5118110236220472,
                    "duration": 0.7098910000000274
                },
                {
                    "name": "D#5",
                    "midi": 75,
                    "time": 278.9871630000029,
                    "velocity": 0.5118110236220472,
                    "duration": 0.7098910000000274
                },
                {
                    "name": "G#5",
                    "midi": 80,
                    "time": 278.9871630000029,
                    "velocity": 0.6062992125984252,
                    "duration": 0.7098910000000274
                },
                {
                    "name": "C5",
                    "midi": 72,
                    "time": 279.69705400000294,
                    "velocity": 0.5433070866141733,
                    "duration": 0.7098910000000274
                },
                {
                    "name": "D#5",
                    "midi": 75,
                    "time": 279.69705400000294,
                    "velocity": 0.5433070866141733,
                    "duration": 0.7098910000000274
                },
                {
                    "name": "G#5",
                    "midi": 80,
                    "time": 279.69705400000294,
                    "velocity": 0.6377952755905512,
                    "duration": 0.7098910000000274
                },
                {
                    "name": "C5",
                    "midi": 72,
                    "time": 280.40694500000296,
                    "velocity": 0.5118110236220472,
                    "duration": 0.7098910000000274
                },
                {
                    "name": "D#5",
                    "midi": 75,
                    "time": 280.40694500000296,
                    "velocity": 0.5118110236220472,
                    "duration": 0.7098910000000274
                },
                {
                    "name": "G#5",
                    "midi": 80,
                    "time": 280.40694500000296,
                    "velocity": 0.5984251968503937,
                    "duration": 0.7098910000000274
                },
                {
                    "name": "C#5",
                    "midi": 73,
                    "time": 281.116836000003,
                    "velocity": 0.5354330708661418,
                    "duration": 0.7098910000000274
                },
                {
                    "name": "F5",
                    "midi": 77,
                    "time": 281.116836000003,
                    "velocity": 0.5354330708661418,
                    "duration": 0.7098910000000274
                },
                {
                    "name": "G#5",
                    "midi": 80,
                    "time": 281.116836000003,
                    "velocity": 0.6299212598425197,
                    "duration": 0.7098910000000274
                },
                {
                    "name": "C#6",
                    "midi": 85,
                    "time": 284.666291000003,
                    "velocity": 0.5669291338582677,
                    "duration": 1.4197819999999979
                },
                {
                    "name": "G#5",
                    "midi": 80,
                    "time": 284.666291000003,
                    "velocity": 0.47244094488188976,
                    "duration": 1.4197819999999979
                },
                {
                    "name": "C#6",
                    "midi": 85,
                    "time": 286.086073000003,
                    "velocity": 0.5748031496062992,
                    "duration": 1.4197819999999979
                },
                {
                    "name": "A#5",
                    "midi": 82,
                    "time": 286.086073000003,
                    "velocity": 0.48031496062992124,
                    "duration": 1.4197819999999979
                },
                {
                    "name": "C#6",
                    "midi": 85,
                    "time": 287.505855000003,
                    "velocity": 0.5826771653543307,
                    "duration": 1.4197819999999979
                },
                {
                    "name": "G#5",
                    "midi": 80,
                    "time": 287.505855000003,
                    "velocity": 0.49606299212598426,
                    "duration": 1.4197819999999979
                },
                {
                    "name": "C#5",
                    "midi": 73,
                    "time": 288.925637000003,
                    "velocity": 0.5118110236220472,
                    "duration": 0.7098910000000274
                },
                {
                    "name": "G5",
                    "midi": 79,
                    "time": 288.925637000003,
                    "velocity": 0.5118110236220472,
                    "duration": 0.7098910000000274
                },
                {
                    "name": "C#6",
                    "midi": 85,
                    "time": 288.925637000003,
                    "velocity": 0.6062992125984252,
                    "duration": 0.7098910000000274
                },
                {
                    "name": "C#5",
                    "midi": 73,
                    "time": 289.63552800000303,
                    "velocity": 0.5354330708661418,
                    "duration": 0.7098910000000274
                },
                {
                    "name": "F#5",
                    "midi": 78,
                    "time": 289.63552800000303,
                    "velocity": 0.5354330708661418,
                    "duration": 0.7098910000000274
                },
                {
                    "name": "C#6",
                    "midi": 85,
                    "time": 289.63552800000303,
                    "velocity": 0.6299212598425197,
                    "duration": 0.7098910000000274
                },
                {
                    "name": "C#5",
                    "midi": 73,
                    "time": 290.34541900000306,
                    "velocity": 0.5118110236220472,
                    "duration": 0.7098910000000274
                },
                {
                    "name": "F#5",
                    "midi": 78,
                    "time": 290.34541900000306,
                    "velocity": 0.5118110236220472,
                    "duration": 0.7098910000000274
                },
                {
                    "name": "C#6",
                    "midi": 85,
                    "time": 290.34541900000306,
                    "velocity": 0.6062992125984252,
                    "duration": 0.7098910000000274
                },
                {
                    "name": "C5",
                    "midi": 72,
                    "time": 291.0553100000031,
                    "velocity": 0.5433070866141733,
                    "duration": 0.7098910000000274
                },
                {
                    "name": "F#5",
                    "midi": 78,
                    "time": 291.0553100000031,
                    "velocity": 0.5433070866141733,
                    "duration": 0.7098910000000274
                },
                {
                    "name": "C6",
                    "midi": 84,
                    "time": 291.0553100000031,
                    "velocity": 0.6377952755905512,
                    "duration": 0.7098910000000274
                },
                {
                    "name": "C5",
                    "midi": 72,
                    "time": 291.7652010000031,
                    "velocity": 0.5118110236220472,
                    "duration": 0.7098910000000274
                },
                {
                    "name": "F#5",
                    "midi": 78,
                    "time": 291.7652010000031,
                    "velocity": 0.5118110236220472,
                    "duration": 0.7098910000000274
                },
                {
                    "name": "C6",
                    "midi": 84,
                    "time": 291.7652010000031,
                    "velocity": 0.5984251968503937,
                    "duration": 0.7098910000000274
                },
                {
                    "name": "C#6",
                    "midi": 85,
                    "time": 292.47509200000314,
                    "velocity": 0.5196850393700787,
                    "duration": 0.17747274999999263
                },
                {
                    "name": "D#6",
                    "midi": 87,
                    "time": 292.65256475000314,
                    "velocity": 0.44881889763779526,
                    "duration": 0.17747274999999263
                },
                {
                    "name": "F6",
                    "midi": 89,
                    "time": 292.83003750000313,
                    "velocity": 0.4645669291338583,
                    "duration": 0.17747274999999263
                },
                {
                    "name": "C6",
                    "midi": 84,
                    "time": 293.0075102500031,
                    "velocity": 0.47244094488188976,
                    "duration": 0.17747274999999263
                },
                {
                    "name": "C#6",
                    "midi": 85,
                    "time": 293.1849830000031,
                    "velocity": 0.5196850393700787,
                    "duration": 0.17747274999999263
                },
                {
                    "name": "G#5",
                    "midi": 80,
                    "time": 293.3624557500031,
                    "velocity": 0.4409448818897638,
                    "duration": 0.17747274999999263
                },
                {
                    "name": "A#5",
                    "midi": 82,
                    "time": 293.5399285000031,
                    "velocity": 0.4566929133858268,
                    "duration": 0.17747274999999263
                },
                {
                    "name": "F#5",
                    "midi": 78,
                    "time": 293.7174012500031,
                    "velocity": 0.44881889763779526,
                    "duration": 0.17747274999999263
                },
                {
                    "name": "F5",
                    "midi": 77,
                    "time": 293.8948740000031,
                    "velocity": 0.4015748031496063,
                    "duration": 0.17747274999999263
                },
                {
                    "name": "G#5",
                    "midi": 80,
                    "time": 294.0723467500031,
                    "velocity": 0.4251968503937008,
                    "duration": 0.17747274999999263
                },
                {
                    "name": "F#5",
                    "midi": 78,
                    "time": 294.24981950000307,
                    "velocity": 0.4330708661417323,
                    "duration": 0.17747274999999263
                },
                {
                    "name": "D#5",
                    "midi": 75,
                    "time": 294.42729225000306,
                    "velocity": 0.4409448818897638,
                    "duration": 0.17747274999999263
                },
                {
                    "name": "C#5",
                    "midi": 73,
                    "time": 294.60476500000306,
                    "velocity": 0.49606299212598426,
                    "duration": 0.17747274999999263
                },
                {
                    "name": "F5",
                    "midi": 77,
                    "time": 294.78223775000305,
                    "velocity": 0.41732283464566927,
                    "duration": 0.17747274999999263
                },
                {
                    "name": "D#5",
                    "midi": 75,
                    "time": 294.95971050000304,
                    "velocity": 0.44881889763779526,
                    "duration": 0.17747274999999263
                },
                {
                    "name": "C5",
                    "midi": 72,
                    "time": 295.13718325000303,
                    "velocity": 0.41732283464566927,
                    "duration": 0.17747274999999263
                },
                {
                    "name": "C#5",
                    "midi": 73,
                    "time": 295.314656000003,
                    "velocity": 0.4094488188976378,
                    "duration": 0.17747274999999263
                },
                {
                    "name": "D#5",
                    "midi": 75,
                    "time": 295.492128750003,
                    "velocity": 0.36220472440944884,
                    "duration": 0.17747274999999263
                },
                {
                    "name": "C#5",
                    "midi": 73,
                    "time": 295.669601500003,
                    "velocity": 0.36220472440944884,
                    "duration": 0.17747274999999263
                },
                {
                    "name": "C5",
                    "midi": 72,
                    "time": 295.847074250003,
                    "velocity": 0.36220472440944884,
                    "duration": 0.17747274999999263
                },
                {
                    "name": "C#5",
                    "midi": 73,
                    "time": 296.024547000003,
                    "velocity": 0.4094488188976378,
                    "duration": 0.17747274999999263
                },
                {
                    "name": "G#5",
                    "midi": 80,
                    "time": 296.202019750003,
                    "velocity": 0.36220472440944884,
                    "duration": 0.17747274999999263
                },
                {
                    "name": "G5",
                    "midi": 79,
                    "time": 296.379492500003,
                    "velocity": 0.36220472440944884,
                    "duration": 0.17747274999999263
                },
                {
                    "name": "G#5",
                    "midi": 80,
                    "time": 296.556965250003,
                    "velocity": 0.36220472440944884,
                    "duration": 0.17747274999999263
                },
                {
                    "name": "C#5",
                    "midi": 73,
                    "time": 296.73443800000297,
                    "velocity": 0.4094488188976378,
                    "duration": 0.17747274999999263
                },
                {
                    "name": "D#5",
                    "midi": 75,
                    "time": 296.91191075000296,
                    "velocity": 0.3543307086614173,
                    "duration": 0.17747274999999263
                },
                {
                    "name": "C#5",
                    "midi": 73,
                    "time": 297.08938350000295,
                    "velocity": 0.3779527559055118,
                    "duration": 0.17747274999999263
                },
                {
                    "name": "C5",
                    "midi": 72,
                    "time": 297.26685625000295,
                    "velocity": 0.3779527559055118,
                    "duration": 0.17747274999999263
                },
                {
                    "name": "C#5",
                    "midi": 73,
                    "time": 297.44432900000294,
                    "velocity": 0.4094488188976378,
                    "duration": 0.17747274999999263
                },
                {
                    "name": "A#5",
                    "midi": 82,
                    "time": 297.62180175000293,
                    "velocity": 0.3779527559055118,
                    "duration": 0.17747274999999263
                },
                {
                    "name": "A5",
                    "midi": 81,
                    "time": 297.7992745000029,
                    "velocity": 0.3779527559055118,
                    "duration": 0.17747274999999263
                },
                {
                    "name": "A#5",
                    "midi": 82,
                    "time": 297.9767472500029,
                    "velocity": 0.3779527559055118,
                    "duration": 0.17747274999999263
                },
                {
                    "name": "C#5",
                    "midi": 73,
                    "time": 298.1542200000029,
                    "velocity": 0.4094488188976378,
                    "duration": 0.17747274999999263
                },
                {
                    "name": "D#5",
                    "midi": 75,
                    "time": 298.3316927500029,
                    "velocity": 0.3779527559055118,
                    "duration": 0.17747274999999263
                },
                {
                    "name": "C#5",
                    "midi": 73,
                    "time": 298.5091655000029,
                    "velocity": 0.3779527559055118,
                    "duration": 0.17747274999999263
                },
                {
                    "name": "C5",
                    "midi": 72,
                    "time": 298.6866382500029,
                    "velocity": 0.3779527559055118,
                    "duration": 0.17747274999999263
                },
                {
                    "name": "C#5",
                    "midi": 73,
                    "time": 298.8641110000029,
                    "velocity": 0.4094488188976378,
                    "duration": 0.17747274999999263
                },
                {
                    "name": "G#5",
                    "midi": 80,
                    "time": 299.04158375000287,
                    "velocity": 0.3779527559055118,
                    "duration": 0.17747274999999263
                },
                {
                    "name": "G5",
                    "midi": 79,
                    "time": 299.21905650000286,
                    "velocity": 0.3779527559055118,
                    "duration": 0.17747274999999263
                },
                {
                    "name": "G#5",
                    "midi": 80,
                    "time": 299.39652925000286,
                    "velocity": 0.3779527559055118,
                    "duration": 0.17747274999999263
                },
                {
                    "name": "C#5",
                    "midi": 73,
                    "time": 299.57400200000285,
                    "velocity": 0.4094488188976378,
                    "duration": 0.17747274999999263
                },
                {
                    "name": "G#5",
                    "midi": 80,
                    "time": 299.75147475000284,
                    "velocity": 0.3779527559055118,
                    "duration": 0.17747274999999263
                },
                {
                    "name": "G5",
                    "midi": 79,
                    "time": 299.92894750000283,
                    "velocity": 0.3779527559055118,
                    "duration": 0.17747274999999263
                },
                {
                    "name": "G#5",
                    "midi": 80,
                    "time": 300.1064202500028,
                    "velocity": 0.3779527559055118,
                    "duration": 0.17747274999999263
                },
                {
                    "name": "C#5",
                    "midi": 73,
                    "time": 300.2838930000028,
                    "velocity": 0.5748031496062992,
                    "duration": 0.17747274999999263
                },
                {
                    "name": "A#5",
                    "midi": 82,
                    "time": 300.4613657500028,
                    "velocity": 0.49606299212598426,
                    "duration": 0.17747274999999263
                },
                {
                    "name": "A5",
                    "midi": 81,
                    "time": 300.6388385000028,
                    "velocity": 0.49606299212598426,
                    "duration": 0.17747274999999263
                },
                {
                    "name": "A#5",
                    "midi": 82,
                    "time": 300.8163112500028,
                    "velocity": 0.49606299212598426,
                    "duration": 0.17747274999999263
                },
                {
                    "name": "C#5",
                    "midi": 73,
                    "time": 300.9937840000028,
                    "velocity": 0.6299212598425197,
                    "duration": 0.17747274999999263
                },
                {
                    "name": "G#5",
                    "midi": 80,
                    "time": 301.1712567500028,
                    "velocity": 0.5196850393700787,
                    "duration": 0.17747274999999263
                },
                {
                    "name": "G5",
                    "midi": 79,
                    "time": 301.3487295000028,
                    "velocity": 0.5275590551181102,
                    "duration": 0.17747274999999263
                },
                {
                    "name": "G#5",
                    "midi": 80,
                    "time": 301.52620225000277,
                    "velocity": 0.5275590551181102,
                    "duration": 0.17747274999999263
                },
                {
                    "name": "C#5",
                    "midi": 73,
                    "time": 301.70367500000276,
                    "velocity": 0.6299212598425197,
                    "duration": 0.17747274999999263
                },
                {
                    "name": "G#5",
                    "midi": 80,
                    "time": 301.88114775000275,
                    "velocity": 0.5196850393700787,
                    "duration": 0.17747274999999263
                },
                {
                    "name": "G5",
                    "midi": 79,
                    "time": 302.05862050000275,
                    "velocity": 0.5196850393700787,
                    "duration": 0.17747274999999263
                },
                {
                    "name": "G#5",
                    "midi": 80,
                    "time": 302.23609325000274,
                    "velocity": 0.5196850393700787,
                    "duration": 0.17747274999999263
                },
                {
                    "name": "C5",
                    "midi": 72,
                    "time": 302.41356600000273,
                    "velocity": 0.6535433070866141,
                    "duration": 0.17747274999999263
                },
                {
                    "name": "G#5",
                    "midi": 80,
                    "time": 302.5910387500027,
                    "velocity": 0.5275590551181102,
                    "duration": 0.17747274999999263
                },
                {
                    "name": "G5",
                    "midi": 79,
                    "time": 302.7685115000027,
                    "velocity": 0.5275590551181102,
                    "duration": 0.17747274999999263
                },
                {
                    "name": "G#5",
                    "midi": 80,
                    "time": 302.9459842500027,
                    "velocity": 0.5275590551181102,
                    "duration": 0.17747274999999263
                },
                {
                    "name": "C5",
                    "midi": 72,
                    "time": 303.1234570000027,
                    "velocity": 0.6377952755905512,
                    "duration": 0.17747274999999263
                },
                {
                    "name": "G#5",
                    "midi": 80,
                    "time": 303.3009297500027,
                    "velocity": 0.49606299212598426,
                    "duration": 0.17747274999999263
                },
                {
                    "name": "G5",
                    "midi": 79,
                    "time": 303.4784025000027,
                    "velocity": 0.49606299212598426,
                    "duration": 0.17747274999999263
                },
                {
                    "name": "G#5",
                    "midi": 80,
                    "time": 303.6558752500027,
                    "velocity": 0.49606299212598426,
                    "duration": 0.17747274999999263
                },
                {
                    "name": "G#5",
                    "midi": 80,
                    "time": 303.8333480000027,
                    "velocity": 0.41732283464566927,
                    "duration": 0.17747274999999263
                },
                {
                    "name": "F#5",
                    "midi": 78,
                    "time": 304.01082075000267,
                    "velocity": 0.4251968503937008,
                    "duration": 0.17747274999999263
                },
                {
                    "name": "F5",
                    "midi": 77,
                    "time": 304.18829350000266,
                    "velocity": 0.4330708661417323,
                    "duration": 0.17747274999999263
                },
                {
                    "name": "D#5",
                    "midi": 75,
                    "time": 304.36576625000265,
                    "velocity": 0.4409448818897638,
                    "duration": 0.17747274999999263
                },
                {
                    "name": "C#5",
                    "midi": 73,
                    "time": 304.54323900000264,
                    "velocity": 0.47244094488188976,
                    "duration": 0.17747274999999263
                },
                {
                    "name": "D#5",
                    "midi": 75,
                    "time": 304.72071175000264,
                    "velocity": 0.4409448818897638,
                    "duration": 0.17747274999999263
                },
                {
                    "name": "F5",
                    "midi": 77,
                    "time": 304.8981845000026,
                    "velocity": 0.4566929133858268,
                    "duration": 0.17747274999999263
                },
                {
                    "name": "F#5",
                    "midi": 78,
                    "time": 305.0756572500026,
                    "velocity": 0.44881889763779526,
                    "duration": 0.17747274999999263
                },
                {
                    "name": "G#5",
                    "midi": 80,
                    "time": 305.2531300000026,
                    "velocity": 0.4015748031496063,
                    "duration": 0.17747274999999263
                },
                {
                    "name": "F#5",
                    "midi": 78,
                    "time": 305.4306027500026,
                    "velocity": 0.4251968503937008,
                    "duration": 0.17747274999999263
                },
                {
                    "name": "F5",
                    "midi": 77,
                    "time": 305.6080755000026,
                    "velocity": 0.4330708661417323,
                    "duration": 0.17747274999999263
                },
                {
                    "name": "F#5",
                    "midi": 78,
                    "time": 305.7855482500026,
                    "velocity": 0.4409448818897638,
                    "duration": 0.17747274999999263
                },
                {
                    "name": "G#5",
                    "midi": 80,
                    "time": 305.9630210000026,
                    "velocity": 0.49606299212598426,
                    "duration": 0.17747274999999263
                },
                {
                    "name": "A#5",
                    "midi": 82,
                    "time": 306.1404937500026,
                    "velocity": 0.41732283464566927,
                    "duration": 0.17747274999999263
                },
                {
                    "name": "C6",
                    "midi": 84,
                    "time": 306.31796650000257,
                    "velocity": 0.44881889763779526,
                    "duration": 0.17747274999999263
                },
                {
                    "name": "C#6",
                    "midi": 85,
                    "time": 306.49543925000256,
                    "velocity": 0.41732283464566927,
                    "duration": 0.17747274999999263
                },
                {
                    "name": "F5",
                    "midi": 77,
                    "time": 306.67291200000255,
                    "velocity": 0.4094488188976378,
                    "duration": 0.17747274999999263
                },
                {
                    "name": "F#5",
                    "midi": 78,
                    "time": 306.85038475000255,
                    "velocity": 0.36220472440944884,
                    "duration": 0.17747274999999263
                },
                {
                    "name": "F5",
                    "midi": 77,
                    "time": 307.02785750000254,
                    "velocity": 0.36220472440944884,
                    "duration": 0.17747274999999263
                },
                {
                    "name": "E5",
                    "midi": 76,
                    "time": 307.20533025000253,
                    "velocity": 0.36220472440944884,
                    "duration": 0.17747274999999263
                },
                {
                    "name": "F5",
                    "midi": 77,
                    "time": 307.3828030000025,
                    "velocity": 0.4094488188976378,
                    "duration": 0.17747274999999263
                },
                {
                    "name": "C#6",
                    "midi": 85,
                    "time": 307.5602757500025,
                    "velocity": 0.36220472440944884,
                    "duration": 0.17747274999999263
                },
                {
                    "name": "C6",
                    "midi": 84,
                    "time": 307.7377485000025,
                    "velocity": 0.36220472440944884,
                    "duration": 0.17747274999999263
                },
                {
                    "name": "C#6",
                    "midi": 85,
                    "time": 307.9152212500025,
                    "velocity": 0.36220472440944884,
                    "duration": 0.17747274999999263
                },
                {
                    "name": "F#5",
                    "midi": 78,
                    "time": 308.0926940000025,
                    "velocity": 0.4094488188976378,
                    "duration": 0.17747274999999263
                },
                {
                    "name": "G#5",
                    "midi": 80,
                    "time": 308.2701667500025,
                    "velocity": 0.3543307086614173,
                    "duration": 0.17747274999999263
                },
                {
                    "name": "F#5",
                    "midi": 78,
                    "time": 308.4476395000025,
                    "velocity": 0.3779527559055118,
                    "duration": 0.17747274999999263
                },
                {
                    "name": "F5",
                    "midi": 77,
                    "time": 308.6251122500025,
                    "velocity": 0.3779527559055118,
                    "duration": 0.17747274999999263
                },
                {
                    "name": "F#5",
                    "midi": 78,
                    "time": 308.80258500000247,
                    "velocity": 0.4094488188976378,
                    "duration": 0.17747274999999263
                },
                {
                    "name": "C#6",
                    "midi": 85,
                    "time": 308.98005775000246,
                    "velocity": 0.3779527559055118,
                    "duration": 0.17747274999999263
                },
                {
                    "name": "C6",
                    "midi": 84,
                    "time": 309.15753050000245,
                    "velocity": 0.3779527559055118,
                    "duration": 0.17747274999999263
                },
                {
                    "name": "C#6",
                    "midi": 85,
                    "time": 309.33500325000244,
                    "velocity": 0.3779527559055118,
                    "duration": 0.17747274999999263
                },
                {
                    "name": "F5",
                    "midi": 77,
                    "time": 309.51247600000244,
                    "velocity": 0.4094488188976378,
                    "duration": 0.17747274999999263
                },
                {
                    "name": "F#5",
                    "midi": 78,
                    "time": 309.68994875000243,
                    "velocity": 0.3779527559055118,
                    "duration": 0.17747274999999263
                },
                {
                    "name": "F5",
                    "midi": 77,
                    "time": 309.8674215000024,
                    "velocity": 0.3779527559055118,
                    "duration": 0.17747274999999263
                },
                {
                    "name": "E5",
                    "midi": 76,
                    "time": 310.0448942500024,
                    "velocity": 0.3779527559055118,
                    "duration": 0.17747274999999263
                },
                {
                    "name": "F5",
                    "midi": 77,
                    "time": 310.2223670000024,
                    "velocity": 0.4094488188976378,
                    "duration": 0.17747274999999263
                },
                {
                    "name": "C#6",
                    "midi": 85,
                    "time": 310.3998397500024,
                    "velocity": 0.3779527559055118,
                    "duration": 0.17747274999999263
                },
                {
                    "name": "C6",
                    "midi": 84,
                    "time": 310.5773125000024,
                    "velocity": 0.3779527559055118,
                    "duration": 0.17747274999999263
                },
                {
                    "name": "C#6",
                    "midi": 85,
                    "time": 310.7547852500024,
                    "velocity": 0.3779527559055118,
                    "duration": 0.17747274999999263
                },
                {
                    "name": "F5",
                    "midi": 77,
                    "time": 310.9322580000024,
                    "velocity": 0.4094488188976378,
                    "duration": 0.17747274999999263
                },
                {
                    "name": "C#6",
                    "midi": 85,
                    "time": 311.10973075000237,
                    "velocity": 0.3779527559055118,
                    "duration": 0.17747274999999263
                },
                {
                    "name": "C6",
                    "midi": 84,
                    "time": 311.28720350000236,
                    "velocity": 0.3779527559055118,
                    "duration": 0.17747274999999263
                },
                {
                    "name": "C#6",
                    "midi": 85,
                    "time": 311.46467625000236,
                    "velocity": 0.3779527559055118,
                    "duration": 0.17747274999999263
                },
                {
                    "name": "G5",
                    "midi": 79,
                    "time": 311.64214900000235,
                    "velocity": 0.5748031496062992,
                    "duration": 0.17747274999999263
                },
                {
                    "name": "E5",
                    "midi": 76,
                    "time": 311.64214900000235,
                    "velocity": 0.47244094488188976,
                    "duration": 0.17747274999999263
                },
                {
                    "name": "C#6",
                    "midi": 85,
                    "time": 311.81962175000234,
                    "velocity": 0.49606299212598426,
                    "duration": 0.17747274999999263
                },
                {
                    "name": "C6",
                    "midi": 84,
                    "time": 311.99709450000233,
                    "velocity": 0.49606299212598426,
                    "duration": 0.17747274999999263
                },
                {
                    "name": "C#6",
                    "midi": 85,
                    "time": 312.1745672500023,
                    "velocity": 0.49606299212598426,
                    "duration": 0.17747274999999263
                },
                {
                    "name": "F#5",
                    "midi": 78,
                    "time": 312.3520400000023,
                    "velocity": 0.6299212598425197,
                    "duration": 0.17747274999999263
                },
                {
                    "name": "D#5",
                    "midi": 75,
                    "time": 312.3520400000023,
                    "velocity": 0.5196850393700787,
                    "duration": 0.17747274999999263
                },
                {
                    "name": "C#6",
                    "midi": 85,
                    "time": 312.5295127500023,
                    "velocity": 0.5196850393700787,
                    "duration": 0.17747274999999263
                },
                {
                    "name": "C6",
                    "midi": 84,
                    "time": 312.7069855000023,
                    "velocity": 0.5196850393700787,
                    "duration": 0.17747274999999263
                },
                {
                    "name": "C#6",
                    "midi": 85,
                    "time": 312.8844582500023,
                    "velocity": 0.5196850393700787,
                    "duration": 0.17747274999999263
                },
                {
                    "name": "F#5",
                    "midi": 78,
                    "time": 313.0619310000023,
                    "velocity": 0.6299212598425197,
                    "duration": 0.17747274999999263
                },
                {
                    "name": "D#5",
                    "midi": 75,
                    "time": 313.0619310000023,
                    "velocity": 0.5196850393700787,
                    "duration": 0.17747274999999263
                },
                {
                    "name": "C#6",
                    "midi": 85,
                    "time": 313.2394037500023,
                    "velocity": 0.5275590551181102,
                    "duration": 0.17747274999999263
                },
                {
                    "name": "C6",
                    "midi": 84,
                    "time": 313.4168765000023,
                    "velocity": 0.5275590551181102,
                    "duration": 0.17747274999999263
                },
                {
                    "name": "C#6",
                    "midi": 85,
                    "time": 313.59434925000227,
                    "velocity": 0.5275590551181102,
                    "duration": 0.17747274999999263
                },
                {
                    "name": "F#5",
                    "midi": 78,
                    "time": 313.77182200000226,
                    "velocity": 0.6535433070866141,
                    "duration": 0.17747274999999263
                },
                {
                    "name": "D#5",
                    "midi": 75,
                    "time": 313.77182200000226,
                    "velocity": 0.5354330708661418,
                    "duration": 0.17747274999999263
                },
                {
                    "name": "C6",
                    "midi": 84,
                    "time": 313.94929475000225,
                    "velocity": 0.5275590551181102,
                    "duration": 0.17747274999999263
                },
                {
                    "name": "B5",
                    "midi": 83,
                    "time": 314.12676750000225,
                    "velocity": 0.5275590551181102,
                    "duration": 0.17747274999999263
                },
                {
                    "name": "C6",
                    "midi": 84,
                    "time": 314.30424025000224,
                    "velocity": 0.5275590551181102,
                    "duration": 0.17747274999999263
                },
                {
                    "name": "F#5",
                    "midi": 78,
                    "time": 314.48171300000223,
                    "velocity": 0.6377952755905512,
                    "duration": 0.17747274999999263
                },
                {
                    "name": "D#5",
                    "midi": 75,
                    "time": 314.48171300000223,
                    "velocity": 0.5354330708661418,
                    "duration": 0.17747274999999263
                },
                {
                    "name": "C6",
                    "midi": 84,
                    "time": 314.6591857500022,
                    "velocity": 0.5275590551181102,
                    "duration": 0.17747274999999263
                },
                {
                    "name": "B5",
                    "midi": 83,
                    "time": 314.8366585000022,
                    "velocity": 0.5275590551181102,
                    "duration": 0.17747274999999263
                },
                {
                    "name": "C6",
                    "midi": 84,
                    "time": 315.0141312500022,
                    "velocity": 0.5275590551181102,
                    "duration": 0.17747274999999263
                },
                {
                    "name": "C#5",
                    "midi": 73,
                    "time": 315.1916040000022,
                    "velocity": 0.5826771653543307,
                    "duration": 0.7098910000000274
                },
                {
                    "name": "F5",
                    "midi": 77,
                    "time": 315.1916040000022,
                    "velocity": 0.5826771653543307,
                    "duration": 0.7098910000000274
                },
                {
                    "name": "C#6",
                    "midi": 85,
                    "time": 315.1916040000022,
                    "velocity": 0.6850393700787402,
                    "duration": 0.7098910000000274
                },
                {
                    "name": "G#5",
                    "midi": 80,
                    "time": 318.7410590000022,
                    "velocity": 0.5433070866141733,
                    "duration": 1.4197819999999979
                },
                {
                    "name": "G#5",
                    "midi": 80,
                    "time": 320.1608410000022,
                    "velocity": 0.4645669291338583,
                    "duration": 0.7098910000000274
                },
                {
                    "name": "G#5",
                    "midi": 80,
                    "time": 320.87073200000225,
                    "velocity": 0.4645669291338583,
                    "duration": 0.7098910000000274
                },
                {
                    "name": "G#5",
                    "midi": 80,
                    "time": 321.5806230000023,
                    "velocity": 0.4330708661417323,
                    "duration": 0.7098910000000274
                },
                {
                    "name": "G#5",
                    "midi": 80,
                    "time": 322.2905140000023,
                    "velocity": 0.4645669291338583,
                    "duration": 0.7098910000000274
                },
                {
                    "name": "G#5",
                    "midi": 80,
                    "time": 323.00040500000233,
                    "velocity": 0.4409448818897638,
                    "duration": 0.7098910000000274
                },
                {
                    "name": "G#5",
                    "midi": 80,
                    "time": 324.4201870000024,
                    "velocity": 0.5433070866141733,
                    "duration": 1.4197819999999979
                },
                {
                    "name": "G#5",
                    "midi": 80,
                    "time": 325.8399690000024,
                    "velocity": 0.44881889763779526,
                    "duration": 0.7098910000000274
                },
                {
                    "name": "G#5",
                    "midi": 80,
                    "time": 326.5498600000024,
                    "velocity": 0.47244094488188976,
                    "duration": 0.7098910000000274
                },
                {
                    "name": "G#5",
                    "midi": 80,
                    "time": 327.25975100000244,
                    "velocity": 0.4409448818897638,
                    "duration": 0.7098910000000274
                },
                {
                    "name": "G#5",
                    "midi": 80,
                    "time": 327.96964200000247,
                    "velocity": 0.4645669291338583,
                    "duration": 0.7098910000000274
                },
                {
                    "name": "G#5",
                    "midi": 80,
                    "time": 328.6795330000025,
                    "velocity": 0.4409448818897638,
                    "duration": 0.7098910000000274
                },
                {
                    "name": "C6",
                    "midi": 84,
                    "time": 330.09931500000255,
                    "velocity": 0.5275590551181102,
                    "duration": 0.7098910000000274
                },
                {
                    "name": "B5",
                    "midi": 83,
                    "time": 330.8092060000026,
                    "velocity": 0.5669291338582677,
                    "duration": 0.7098910000000274
                },
                {
                    "name": "C6",
                    "midi": 84,
                    "time": 331.5190970000026,
                    "velocity": 0.5511811023622047,
                    "duration": 0.7098910000000274
                },
                {
                    "name": "C#6",
                    "midi": 85,
                    "time": 332.22898800000263,
                    "velocity": 0.6062992125984252,
                    "duration": 0.7098910000000274
                },
                {
                    "name": "F6",
                    "midi": 89,
                    "time": 332.93887900000266,
                    "velocity": 0.5905511811023622,
                    "duration": 0.7098910000000274
                },
                {
                    "name": "D#6",
                    "midi": 87,
                    "time": 333.6487700000027,
                    "velocity": 0.6771653543307087,
                    "duration": 0.7098910000000274
                },
                {
                    "name": "C#6",
                    "midi": 85,
                    "time": 334.3586610000027,
                    "velocity": 0.6456692913385826,
                    "duration": 0.7098910000000274
                },
                {
                    "name": "F#6",
                    "midi": 90,
                    "time": 335.06855200000274,
                    "velocity": 0.7401574803149606,
                    "duration": 1.4197819999999979
                },
                {
                    "name": "D#5",
                    "midi": 75,
                    "time": 336.48833400000274,
                    "velocity": 0.5433070866141733,
                    "duration": 1.4197819999999979
                },
                {
                    "name": "F#5",
                    "midi": 78,
                    "time": 336.48833400000274,
                    "velocity": 0.5433070866141733,
                    "duration": 1.4197819999999979
                },
                {
                    "name": "G#5",
                    "midi": 80,
                    "time": 336.48833400000274,
                    "velocity": 0.6377952755905512,
                    "duration": 1.4197819999999979
                },
                {
                    "name": "F5",
                    "midi": 77,
                    "time": 337.90811600000274,
                    "velocity": 0.3937007874015748,
                    "duration": 0.17747274999999263
                },
                {
                    "name": "G#5",
                    "midi": 80,
                    "time": 337.90811600000274,
                    "velocity": 0.3937007874015748,
                    "duration": 0.17747274999999263
                },
                {
                    "name": "A#5",
                    "midi": 82,
                    "time": 338.0855887500027,
                    "velocity": 0.3543307086614173,
                    "duration": 0.17747274999999263
                },
                {
                    "name": "G#5",
                    "midi": 80,
                    "time": 338.2630615000027,
                    "velocity": 0.3543307086614173,
                    "duration": 0.17747274999999263
                },
                {
                    "name": "F#5",
                    "midi": 78,
                    "time": 338.4405342500027,
                    "velocity": 0.3464566929133858,
                    "duration": 0.17747274999999263
                },
                {
                    "name": "F5",
                    "midi": 77,
                    "time": 338.6180070000027,
                    "velocity": 0.3228346456692913,
                    "duration": 0.17747274999999263
                },
                {
                    "name": "F#5",
                    "midi": 78,
                    "time": 338.7954797500027,
                    "velocity": 0.3543307086614173,
                    "duration": 0.17747274999999263
                },
                {
                    "name": "G#5",
                    "midi": 80,
                    "time": 338.9729525000027,
                    "velocity": 0.3700787401574803,
                    "duration": 0.17747274999999263
                },
                {
                    "name": "A#5",
                    "midi": 82,
                    "time": 339.1504252500027,
                    "velocity": 0.3937007874015748,
                    "duration": 0.17747274999999263
                },
                {
                    "name": "C6",
                    "midi": 84,
                    "time": 339.3278980000027,
                    "velocity": 0.4094488188976378,
                    "duration": 0.17747274999999263
                },
                {
                    "name": "C#6",
                    "midi": 85,
                    "time": 339.50537075000267,
                    "velocity": 0.3937007874015748,
                    "duration": 0.17747274999999263
                },
                {
                    "name": "G#5",
                    "midi": 80,
                    "time": 339.68284350000266,
                    "velocity": 0.3779527559055118,
                    "duration": 0.17747274999999263
                },
                {
                    "name": "F#5",
                    "midi": 78,
                    "time": 339.86031625000265,
                    "velocity": 0.3858267716535433,
                    "duration": 0.17747274999999263
                },
                {
                    "name": "F5",
                    "midi": 77,
                    "time": 340.03778900000265,
                    "velocity": 0.3937007874015748,
                    "duration": 0.17747274999999263
                },
                {
                    "name": "G#5",
                    "midi": 80,
                    "time": 340.21526175000264,
                    "velocity": 0.3543307086614173,
                    "duration": 0.17747274999999263
                },
                {
                    "name": "F5",
                    "midi": 77,
                    "time": 340.39273450000263,
                    "velocity": 0.36220472440944884,
                    "duration": 0.17747274999999263
                },
                {
                    "name": "C#5",
                    "midi": 73,
                    "time": 340.5702072500026,
                    "velocity": 0.36220472440944884,
                    "duration": 0.17747274999999263
                },
                {
                    "name": "C5",
                    "midi": 72,
                    "time": 340.7476800000026,
                    "velocity": 0.4330708661417323,
                    "duration": 0.17747274999999263
                },
                {
                    "name": "G#5",
                    "midi": 80,
                    "time": 340.9251527500026,
                    "velocity": 0.33070866141732286,
                    "duration": 0.17747274999999263
                },
                {
                    "name": "A#5",
                    "midi": 82,
                    "time": 341.1026255000026,
                    "velocity": 0.33070866141732286,
                    "duration": 0.17747274999999263
                },
                {
                    "name": "G#5",
                    "midi": 80,
                    "time": 341.2800982500026,
                    "velocity": 0.33070866141732286,
                    "duration": 0.17747274999999263
                },
                {
                    "name": "C6",
                    "midi": 84,
                    "time": 341.4575710000026,
                    "velocity": 0.4015748031496063,
                    "duration": 0.17747274999999263
                },
                {
                    "name": "G#5",
                    "midi": 80,
                    "time": 341.6350437500026,
                    "velocity": 0.33070866141732286,
                    "duration": 0.17747274999999263
                },
                {
                    "name": "A#5",
                    "midi": 82,
                    "time": 341.8125165000026,
                    "velocity": 0.33070866141732286,
                    "duration": 0.17747274999999263
                },
                {
                    "name": "G#5",
                    "midi": 80,
                    "time": 341.98998925000257,
                    "velocity": 0.33070866141732286,
                    "duration": 0.17747274999999263
                },
                {
                    "name": "D#6",
                    "midi": 87,
                    "time": 342.16746200000256,
                    "velocity": 0.4330708661417323,
                    "duration": 0.17747274999999263
                },
                {
                    "name": "G#5",
                    "midi": 80,
                    "time": 342.34493475000255,
                    "velocity": 0.3228346456692913,
                    "duration": 0.17747274999999263
                },
                {
                    "name": "A#5",
                    "midi": 82,
                    "time": 342.52240750000254,
                    "velocity": 0.3464566929133858,
                    "duration": 0.17747274999999263
                },
                {
                    "name": "G#5",
                    "midi": 80,
                    "time": 342.69988025000254,
                    "velocity": 0.3464566929133858,
                    "duration": 0.17747274999999263
                },
                {
                    "name": "C6",
                    "midi": 84,
                    "time": 342.87735300000253,
                    "velocity": 0.3779527559055118,
                    "duration": 0.17747274999999263
                },
                {
                    "name": "G#5",
                    "midi": 80,
                    "time": 343.0548257500025,
                    "velocity": 0.3464566929133858,
                    "duration": 0.17747274999999263
                },
                {
                    "name": "A#5",
                    "midi": 82,
                    "time": 343.2322985000025,
                    "velocity": 0.3464566929133858,
                    "duration": 0.17747274999999263
                },
                {
                    "name": "G#5",
                    "midi": 80,
                    "time": 343.4097712500025,
                    "velocity": 0.3464566929133858,
                    "duration": 0.17747274999999263
                },
                {
                    "name": "C#6",
                    "midi": 85,
                    "time": 343.5872440000025,
                    "velocity": 0.41732283464566927,
                    "duration": 0.17747274999999263
                },
                {
                    "name": "G#5",
                    "midi": 80,
                    "time": 343.7647167500025,
                    "velocity": 0.3464566929133858,
                    "duration": 0.17747274999999263
                },
                {
                    "name": "A#5",
                    "midi": 82,
                    "time": 343.9421895000025,
                    "velocity": 0.3464566929133858,
                    "duration": 0.17747274999999263
                },
                {
                    "name": "G#5",
                    "midi": 80,
                    "time": 344.1196622500025,
                    "velocity": 0.3464566929133858,
                    "duration": 0.17747274999999263
                },
                {
                    "name": "C#6",
                    "midi": 85,
                    "time": 344.29713500000247,
                    "velocity": 0.4330708661417323,
                    "duration": 0.17747274999999263
                },
                {
                    "name": "G#5",
                    "midi": 80,
                    "time": 344.47460775000246,
                    "velocity": 0.3464566929133858,
                    "duration": 0.17747274999999263
                },
                {
                    "name": "A#5",
                    "midi": 82,
                    "time": 344.65208050000246,
                    "velocity": 0.3464566929133858,
                    "duration": 0.17747274999999263
                },
                {
                    "name": "G#5",
                    "midi": 80,
                    "time": 344.82955325000245,
                    "velocity": 0.3464566929133858,
                    "duration": 0.17747274999999263
                },
                {
                    "name": "F#5",
                    "midi": 78,
                    "time": 345.00702600000244,
                    "velocity": 0.3779527559055118,
                    "duration": 0.17747274999999263
                },
                {
                    "name": "G#5",
                    "midi": 80,
                    "time": 345.18449875000243,
                    "velocity": 0.3464566929133858,
                    "duration": 0.17747274999999263
                },
                {
                    "name": "A#5",
                    "midi": 82,
                    "time": 345.3619715000024,
                    "velocity": 0.3464566929133858,
                    "duration": 0.17747274999999263
                },
                {
                    "name": "G#5",
                    "midi": 80,
                    "time": 345.5394442500024,
                    "velocity": 0.3464566929133858,
                    "duration": 0.17747274999999263
                },
                {
                    "name": "F5",
                    "midi": 77,
                    "time": 345.7169170000024,
                    "velocity": 0.3779527559055118,
                    "duration": 0.17747274999999263
                },
                {
                    "name": "G#5",
                    "midi": 80,
                    "time": 345.8943897500024,
                    "velocity": 0.3543307086614173,
                    "duration": 0.17747274999999263
                },
                {
                    "name": "A#5",
                    "midi": 82,
                    "time": 346.0718625000024,
                    "velocity": 0.3543307086614173,
                    "duration": 0.17747274999999263
                },
                {
                    "name": "G#5",
                    "midi": 80,
                    "time": 346.2493352500024,
                    "velocity": 0.3543307086614173,
                    "duration": 0.17747274999999263
                },
                {
                    "name": "C5",
                    "midi": 72,
                    "time": 346.4268080000024,
                    "velocity": 0.4330708661417323,
                    "duration": 0.17747274999999263
                },
                {
                    "name": "G#5",
                    "midi": 80,
                    "time": 346.6042807500024,
                    "velocity": 0.33070866141732286,
                    "duration": 0.17747274999999263
                },
                {
                    "name": "A#5",
                    "midi": 82,
                    "time": 346.78175350000237,
                    "velocity": 0.33070866141732286,
                    "duration": 0.17747274999999263
                },
                {
                    "name": "G#5",
                    "midi": 80,
                    "time": 346.95922625000236,
                    "velocity": 0.33070866141732286,
                    "duration": 0.17747274999999263
                },
                {
                    "name": "C6",
                    "midi": 84,
                    "time": 347.13669900000235,
                    "velocity": 0.4015748031496063,
                    "duration": 0.17747274999999263
                },
                {
                    "name": "G#5",
                    "midi": 80,
                    "time": 347.31417175000234,
                    "velocity": 0.33070866141732286,
                    "duration": 0.17747274999999263
                },
                {
                    "name": "A#5",
                    "midi": 82,
                    "time": 347.49164450000234,
                    "velocity": 0.33070866141732286,
                    "duration": 0.17747274999999263
                },
                {
                    "name": "G#5",
                    "midi": 80,
                    "time": 347.66911725000233,
                    "velocity": 0.33070866141732286,
                    "duration": 0.17747274999999263
                },
                {
                    "name": "D#6",
                    "midi": 87,
                    "time": 347.8465900000023,
                    "velocity": 0.4330708661417323,
                    "duration": 0.17747274999999263
                },
                {
                    "name": "G#5",
                    "midi": 80,
                    "time": 348.0240627500023,
                    "velocity": 0.3228346456692913,
                    "duration": 0.17747274999999263
                },
                {
                    "name": "A#5",
                    "midi": 82,
                    "time": 348.2015355000023,
                    "velocity": 0.3464566929133858,
                    "duration": 0.17747274999999263
                },
                {
                    "name": "G#5",
                    "midi": 80,
                    "time": 348.3790082500023,
                    "velocity": 0.3464566929133858,
                    "duration": 0.17747274999999263
                },
                {
                    "name": "A#5",
                    "midi": 82,
                    "time": 348.5564810000023,
                    "velocity": 0.3779527559055118,
                    "duration": 0.17747274999999263
                },
                {
                    "name": "G#5",
                    "midi": 80,
                    "time": 348.7339537500023,
                    "velocity": 0.3464566929133858,
                    "duration": 0.17747274999999263
                },
                {
                    "name": "A#5",
                    "midi": 82,
                    "time": 348.9114265000023,
                    "velocity": 0.3464566929133858,
                    "duration": 0.17747274999999263
                },
                {
                    "name": "G#5",
                    "midi": 80,
                    "time": 349.08889925000227,
                    "velocity": 0.3464566929133858,
                    "duration": 0.17747274999999263
                },
                {
                    "name": "A#5",
                    "midi": 82,
                    "time": 349.26637200000226,
                    "velocity": 0.41732283464566927,
                    "duration": 0.17747274999999263
                },
                {
                    "name": "G#5",
                    "midi": 80,
                    "time": 349.44384475000226,
                    "velocity": 0.3464566929133858,
                    "duration": 0.17747274999999263
                },
                {
                    "name": "A#5",
                    "midi": 82,
                    "time": 349.62131750000225,
                    "velocity": 0.3464566929133858,
                    "duration": 0.17747274999999263
                },
                {
                    "name": "G#5",
                    "midi": 80,
                    "time": 349.79879025000224,
                    "velocity": 0.3464566929133858,
                    "duration": 0.17747274999999263
                },
                {
                    "name": "C#6",
                    "midi": 85,
                    "time": 349.97626300000223,
                    "velocity": 0.4330708661417323,
                    "duration": 0.17747274999999263
                },
                {
                    "name": "G#5",
                    "midi": 80,
                    "time": 350.1537357500022,
                    "velocity": 0.3464566929133858,
                    "duration": 0.17747274999999263
                },
                {
                    "name": "A#5",
                    "midi": 82,
                    "time": 350.3312085000022,
                    "velocity": 0.3464566929133858,
                    "duration": 0.17747274999999263
                },
                {
                    "name": "G#5",
                    "midi": 80,
                    "time": 350.5086812500022,
                    "velocity": 0.3464566929133858,
                    "duration": 0.17747274999999263
                },
                {
                    "name": "D#6",
                    "midi": 87,
                    "time": 350.6861540000022,
                    "velocity": 0.4645669291338583,
                    "duration": 0.17747274999999263
                },
                {
                    "name": "G#5",
                    "midi": 80,
                    "time": 350.8636267500022,
                    "velocity": 0.3700787401574803,
                    "duration": 0.17747274999999263
                },
                {
                    "name": "A#5",
                    "midi": 82,
                    "time": 351.0410995000022,
                    "velocity": 0.3700787401574803,
                    "duration": 0.17747274999999263
                },
                {
                    "name": "G#5",
                    "midi": 80,
                    "time": 351.2185722500022,
                    "velocity": 0.3464566929133858,
                    "duration": 0.17747274999999263
                },
                {
                    "name": "F6",
                    "midi": 89,
                    "time": 351.3960450000022,
                    "velocity": 0.44881889763779526,
                    "duration": 0.17747274999999263
                },
                {
                    "name": "G#5",
                    "midi": 80,
                    "time": 351.57351775000217,
                    "velocity": 0.3700787401574803,
                    "duration": 0.17747274999999263
                },
                {
                    "name": "A#5",
                    "midi": 82,
                    "time": 351.75099050000216,
                    "velocity": 0.3700787401574803,
                    "duration": 0.17747274999999263
                },
                {
                    "name": "G#5",
                    "midi": 80,
                    "time": 351.92846325000215,
                    "velocity": 0.3779527559055118,
                    "duration": 0.17747274999999263
                },
                {
                    "name": "D#6",
                    "midi": 87,
                    "time": 352.10593600000215,
                    "velocity": 0.5590551181102362,
                    "duration": 0.17747274999999263
                },
                {
                    "name": "C6",
                    "midi": 84,
                    "time": 352.28340875000214,
                    "velocity": 0.4566929133858268,
                    "duration": 0.17747274999999263
                },
                {
                    "name": "C#6",
                    "midi": 85,
                    "time": 352.46088150000213,
                    "velocity": 0.4566929133858268,
                    "duration": 0.17747274999999263
                },
                {
                    "name": "C6",
                    "midi": 84,
                    "time": 352.6383542500021,
                    "velocity": 0.4566929133858268,
                    "duration": 0.17747274999999263
                },
                {
                    "name": "D#6",
                    "midi": 87,
                    "time": 352.8158270000021,
                    "velocity": 0.5669291338582677,
                    "duration": 0.17747274999999263
                },
                {
                    "name": "C6",
                    "midi": 84,
                    "time": 352.9932997500021,
                    "velocity": 0.4566929133858268,
                    "duration": 0.17747274999999263
                },
                {
                    "name": "C#6",
                    "midi": 85,
                    "time": 353.1707725000021,
                    "velocity": 0.4645669291338583,
                    "duration": 0.17747274999999263
                },
                {
                    "name": "C6",
                    "midi": 84,
                    "time": 353.3482452500021,
                    "velocity": 0.48031496062992124,
                    "duration": 0.17747274999999263
                },
                {
                    "name": "G#6",
                    "midi": 92,
                    "time": 353.5257180000021,
                    "velocity": 0.5905511811023622,
                    "duration": 0.17747274999999263
                },
                {
                    "name": "C6",
                    "midi": 84,
                    "time": 353.7031907500021,
                    "velocity": 0.44881889763779526,
                    "duration": 0.17747274999999263
                },
                {
                    "name": "C#6",
                    "midi": 85,
                    "time": 353.8806635000021,
                    "velocity": 0.48031496062992124,
                    "duration": 0.17747274999999263
                },
                {
                    "name": "C6",
                    "midi": 84,
                    "time": 354.05813625000206,
                    "velocity": 0.48031496062992124,
                    "duration": 0.17747274999999263
                },
                {
                    "name": "G#6",
                    "midi": 92,
                    "time": 354.23560900000206,
                    "velocity": 0.6141732283464567,
                    "duration": 0.17747274999999263
                },
                {
                    "name": "C6",
                    "midi": 84,
                    "time": 354.41308175000205,
                    "velocity": 0.5354330708661418,
                    "duration": 0.17747274999999263
                },
                {
                    "name": "C#6",
                    "midi": 85,
                    "time": 354.59055450000204,
                    "velocity": 0.5433070866141733,
                    "duration": 0.17747274999999263
                },
                {
                    "name": "C6",
                    "midi": 84,
                    "time": 354.76802725000204,
                    "velocity": 0.5511811023622047,
                    "duration": 0.17747274999999263
                },
                {
                    "name": "G#6",
                    "midi": 92,
                    "time": 354.945500000002,
                    "velocity": 0.6456692913385826,
                    "duration": 0.17747274999999263
                },
                {
                    "name": "C6",
                    "midi": 84,
                    "time": 355.122972750002,
                    "velocity": 0.5669291338582677,
                    "duration": 0.17747274999999263
                },
                {
                    "name": "C#6",
                    "midi": 85,
                    "time": 355.300445500002,
                    "velocity": 0.5748031496062992,
                    "duration": 0.17747274999999263
                },
                {
                    "name": "C6",
                    "midi": 84,
                    "time": 355.477918250002,
                    "velocity": 0.5826771653543307,
                    "duration": 0.17747274999999263
                },
                {
                    "name": "G#6",
                    "midi": 92,
                    "time": 355.655391000002,
                    "velocity": 0.7086614173228346,
                    "duration": 0.17747274999999263
                },
                {
                    "name": "C#6",
                    "midi": 85,
                    "time": 355.832863750002,
                    "velocity": 0.6141732283464567,
                    "duration": 0.17747274999999263
                },
                {
                    "name": "D#6",
                    "midi": 87,
                    "time": 356.010336500002,
                    "velocity": 0.6141732283464567,
                    "duration": 0.17747274999999263
                },
                {
                    "name": "C#6",
                    "midi": 85,
                    "time": 356.187809250002,
                    "velocity": 0.6299212598425197,
                    "duration": 0.17747274999999263
                },
                {
                    "name": "G#6",
                    "midi": 92,
                    "time": 356.36528200000197,
                    "velocity": 0.7637795275590551,
                    "duration": 0.17747274999999263
                },
                {
                    "name": "D#6",
                    "midi": 87,
                    "time": 356.54275475000196,
                    "velocity": 0.6377952755905512,
                    "duration": 0.17747274999999263
                },
                {
                    "name": "F6",
                    "midi": 89,
                    "time": 356.72022750000195,
                    "velocity": 0.6456692913385826,
                    "duration": 0.17747274999999263
                },
                {
                    "name": "D#6",
                    "midi": 87,
                    "time": 356.89770025000195,
                    "velocity": 0.6614173228346457,
                    "duration": 0.17747274999999263
                },
                {
                    "name": "G#6",
                    "midi": 92,
                    "time": 357.07517300000194,
                    "velocity": 0.7795275590551181,
                    "duration": 0.17747274999999263
                },
                {
                    "name": "F6",
                    "midi": 89,
                    "time": 357.25264575000193,
                    "velocity": 0.6614173228346457,
                    "duration": 0.17747274999999263
                },
                {
                    "name": "F#6",
                    "midi": 90,
                    "time": 357.4301185000019,
                    "velocity": 0.6692913385826772,
                    "duration": 0.17747274999999263
                },
                {
                    "name": "F6",
                    "midi": 89,
                    "time": 357.6075912500019,
                    "velocity": 0.6929133858267716,
                    "duration": 0.17747274999999263
                },
                {
                    "name": "A#6",
                    "midi": 94,
                    "time": 357.7850640000019,
                    "velocity": 0.8188976377952756,
                    "duration": 0.17747274999999263
                },
                {
                    "name": "F#6",
                    "midi": 90,
                    "time": 357.9625367500019,
                    "velocity": 0.7244094488188977,
                    "duration": 0.17747274999999263
                },
                {
                    "name": "A#6",
                    "midi": 94,
                    "time": 358.1400095000019,
                    "velocity": 0.7637795275590551,
                    "duration": 0.17747274999999263
                },
                {
                    "name": "G#6",
                    "midi": 92,
                    "time": 358.3174822500019,
                    "velocity": 0.6771653543307087,
                    "duration": 0.17747274999999263
                },
                {
                    "name": "F#6",
                    "midi": 90,
                    "time": 358.4949550000019,
                    "velocity": 0.7637795275590551,
                    "duration": 0.17747274999999263
                },
                {
                    "name": "F6",
                    "midi": 89,
                    "time": 358.6724277500019,
                    "velocity": 0.6535433070866141,
                    "duration": 0.17747274999999263
                },
                {
                    "name": "D#6",
                    "midi": 87,
                    "time": 358.84990050000187,
                    "velocity": 0.7086614173228346,
                    "duration": 0.17747274999999263
                },
                {
                    "name": "C#6",
                    "midi": 85,
                    "time": 359.02737325000186,
                    "velocity": 0.6141732283464567,
                    "duration": 0.17747274999999263
                },
                {
                    "name": "C6",
                    "midi": 84,
                    "time": 359.20484600000185,
                    "velocity": 0.6771653543307087,
                    "duration": 0.17747274999999263
                },
                {
                    "name": "A#5",
                    "midi": 82,
                    "time": 359.38231875000184,
                    "velocity": 0.6220472440944882,
                    "duration": 0.17747274999999263
                },
                {
                    "name": "G#5",
                    "midi": 80,
                    "time": 359.55979150000184,
                    "velocity": 0.6456692913385826,
                    "duration": 0.17747274999999263
                },
                {
                    "name": "F#5",
                    "midi": 78,
                    "time": 359.73726425000183,
                    "velocity": 0.5905511811023622,
                    "duration": 0.17747274999999263
                },
                {
                    "name": "F5",
                    "midi": 77,
                    "time": 359.9147370000018,
                    "velocity": 0.6220472440944882,
                    "duration": 0.17747274999999263
                },
                {
                    "name": "D#5",
                    "midi": 75,
                    "time": 360.0922097500018,
                    "velocity": 0.5669291338582677,
                    "duration": 0.17747274999999263
                },
                {
                    "name": "C#5",
                    "midi": 73,
                    "time": 360.2696825000018,
                    "velocity": 0.5905511811023622,
                    "duration": 0.17747274999999263
                },
                {
                    "name": "C5",
                    "midi": 72,
                    "time": 360.4471552500018,
                    "velocity": 0.5433070866141733,
                    "duration": 0.17747274999999263
                },
                {
                    "name": "C#5",
                    "midi": 73,
                    "time": 360.6246280000018,
                    "velocity": 0.5669291338582677,
                    "duration": 0.17747274999999263
                },
                {
                    "name": "A#4",
                    "midi": 70,
                    "time": 360.8021007500018,
                    "velocity": 0.5511811023622047,
                    "duration": 0.17747274999999263
                },
                {
                    "name": "G#4",
                    "midi": 68,
                    "time": 360.9795735000018,
                    "velocity": 0.5433070866141733,
                    "duration": 0.17747274999999263
                },
                {
                    "name": "F#4",
                    "midi": 66,
                    "time": 361.15704625000177,
                    "velocity": 0.5275590551181102,
                    "duration": 0.17747274999999263
                },
                {
                    "name": "F4",
                    "midi": 65,
                    "time": 361.33451900000176,
                    "velocity": 0.5039370078740157,
                    "duration": 0.17747274999999263
                },
                {
                    "name": "D#4",
                    "midi": 63,
                    "time": 361.51199175000176,
                    "velocity": 0.49606299212598426,
                    "duration": 0.17747274999999263
                },
                {
                    "name": "C#4",
                    "midi": 61,
                    "time": 361.68946450000175,
                    "velocity": 0.48031496062992124,
                    "duration": 0.17747274999999263
                },
                {
                    "name": "C4",
                    "midi": 60,
                    "time": 361.86693725000174,
                    "velocity": 0.47244094488188976,
                    "duration": 0.17747274999999263
                },
                {
                    "name": "C#3",
                    "midi": 49,
                    "time": 363.46419200000173,
                    "velocity": 0.30708661417322836,
                    "duration": 1.4197819999999979
                },
                {
                    "name": "F3",
                    "midi": 53,
                    "time": 363.46419200000173,
                    "velocity": 0.30708661417322836,
                    "duration": 1.4197819999999979
                },
                {
                    "name": "G#3",
                    "midi": 56,
                    "time": 363.46419200000173,
                    "velocity": 0.3700787401574803,
                    "duration": 1.4197819999999979
                },
                {
                    "name": "C#3",
                    "midi": 49,
                    "time": 364.88397400000173,
                    "velocity": 0.29133858267716534,
                    "duration": 1.4197819999999979
                },
                {
                    "name": "F#3",
                    "midi": 54,
                    "time": 364.88397400000173,
                    "velocity": 0.3464566929133858,
                    "duration": 1.4197819999999979
                },
                {
                    "name": "A#3",
                    "midi": 58,
                    "time": 364.88397400000173,
                    "velocity": 0.3464566929133858,
                    "duration": 1.4197819999999979
                },
                {
                    "name": "C#3",
                    "midi": 49,
                    "time": 366.3037560000017,
                    "velocity": 0.29133858267716534,
                    "duration": 2.1296730000000252
                },
                {
                    "name": "F3",
                    "midi": 53,
                    "time": 366.3037560000017,
                    "velocity": 0.29133858267716534,
                    "duration": 2.1296730000000252
                },
                {
                    "name": "G#3",
                    "midi": 56,
                    "time": 366.3037560000017,
                    "velocity": 0.3464566929133858,
                    "duration": 2.1296730000000252
                },
                {
                    "name": "C#4",
                    "midi": 61,
                    "time": 368.43342900000175,
                    "velocity": 0.29133858267716534,
                    "duration": 0.7098910000000274
                },
                {
                    "name": "D#4",
                    "midi": 63,
                    "time": 368.43342900000175,
                    "velocity": 0.29133858267716534,
                    "duration": 0.7098910000000274
                },
                {
                    "name": "A#4",
                    "midi": 70,
                    "time": 368.43342900000175,
                    "velocity": 0.3464566929133858,
                    "duration": 0.7098910000000274
                },
                {
                    "name": "C#4",
                    "midi": 61,
                    "time": 369.1433200000018,
                    "velocity": 0.30708661417322836,
                    "duration": 1.4197819999999979
                },
                {
                    "name": "D#4",
                    "midi": 63,
                    "time": 369.1433200000018,
                    "velocity": 0.30708661417322836,
                    "duration": 1.4197819999999979
                },
                {
                    "name": "G#4",
                    "midi": 68,
                    "time": 369.1433200000018,
                    "velocity": 0.3700787401574803,
                    "duration": 1.4197819999999979
                },
                {
                    "name": "C4",
                    "midi": 60,
                    "time": 370.5631020000018,
                    "velocity": 0.2992125984251969,
                    "duration": 1.4197819999999979
                },
                {
                    "name": "D#4",
                    "midi": 63,
                    "time": 370.5631020000018,
                    "velocity": 0.2992125984251969,
                    "duration": 1.4197819999999979
                },
                {
                    "name": "G#4",
                    "midi": 68,
                    "time": 370.5631020000018,
                    "velocity": 0.36220472440944884,
                    "duration": 1.4197819999999979
                },
                {
                    "name": "C#4",
                    "midi": 61,
                    "time": 371.9828840000018,
                    "velocity": 0.30708661417322836,
                    "duration": 0.7098910000000274
                },
                {
                    "name": "F4",
                    "midi": 65,
                    "time": 371.9828840000018,
                    "velocity": 0.30708661417322836,
                    "duration": 0.7098910000000274
                },
                {
                    "name": "G#4",
                    "midi": 68,
                    "time": 371.9828840000018,
                    "velocity": 0.3700787401574803,
                    "duration": 0.7098910000000274
                },
                {
                    "name": "F3",
                    "midi": 53,
                    "time": 374.8224480000018,
                    "velocity": 0.3543307086614173,
                    "duration": 1.4197819999999979
                },
                {
                    "name": "G#3",
                    "midi": 56,
                    "time": 374.8224480000018,
                    "velocity": 0.3543307086614173,
                    "duration": 1.4197819999999979
                },
                {
                    "name": "C#4",
                    "midi": 61,
                    "time": 374.8224480000018,
                    "velocity": 0.4251968503937008,
                    "duration": 1.4197819999999979
                },
                {
                    "name": "F#3",
                    "midi": 54,
                    "time": 376.2422300000018,
                    "velocity": 0.3700787401574803,
                    "duration": 1.4197819999999979
                },
                {
                    "name": "A#3",
                    "midi": 58,
                    "time": 376.2422300000018,
                    "velocity": 0.3700787401574803,
                    "duration": 1.4197819999999979
                },
                {
                    "name": "C#4",
                    "midi": 61,
                    "time": 376.2422300000018,
                    "velocity": 0.4409448818897638,
                    "duration": 1.4197819999999979
                },
                {
                    "name": "F3",
                    "midi": 53,
                    "time": 377.6620120000018,
                    "velocity": 0.28346456692913385,
                    "duration": 2.1296730000000252
                },
                {
                    "name": "G#3",
                    "midi": 56,
                    "time": 377.6620120000018,
                    "velocity": 0.28346456692913385,
                    "duration": 2.1296730000000252
                },
                {
                    "name": "C#4",
                    "midi": 61,
                    "time": 377.6620120000018,
                    "velocity": 0.3464566929133858,
                    "duration": 2.1296730000000252
                },
                {
                    "name": "E4",
                    "midi": 64,
                    "time": 379.79168500000185,
                    "velocity": 0.29133858267716534,
                    "duration": 0.7098910000000274
                },
                {
                    "name": "G4",
                    "midi": 67,
                    "time": 379.79168500000185,
                    "velocity": 0.29133858267716534,
                    "duration": 0.7098910000000274
                },
                {
                    "name": "C#5",
                    "midi": 73,
                    "time": 379.79168500000185,
                    "velocity": 0.3464566929133858,
                    "duration": 0.7098910000000274
                },
                {
                    "name": "D#4",
                    "midi": 63,
                    "time": 380.5015760000019,
                    "velocity": 0.30708661417322836,
                    "duration": 1.4197819999999979
                },
                {
                    "name": "F#4",
                    "midi": 66,
                    "time": 380.5015760000019,
                    "velocity": 0.30708661417322836,
                    "duration": 1.4197819999999979
                },
                {
                    "name": "C#5",
                    "midi": 73,
                    "time": 380.5015760000019,
                    "velocity": 0.3700787401574803,
                    "duration": 1.4197819999999979
                },
                {
                    "name": "D#4",
                    "midi": 63,
                    "time": 381.9213580000019,
                    "velocity": 0.29133858267716534,
                    "duration": 1.4197819999999979
                },
                {
                    "name": "F#4",
                    "midi": 66,
                    "time": 381.9213580000019,
                    "velocity": 0.29133858267716534,
                    "duration": 1.4197819999999979
                },
                {
                    "name": "C5",
                    "midi": 72,
                    "time": 381.9213580000019,
                    "velocity": 0.33858267716535434,
                    "duration": 1.4197819999999979
                },
                {
                    "name": "C#4",
                    "midi": 61,
                    "time": 383.3411400000019,
                    "velocity": 0.29133858267716534,
                    "duration": 0.7098910000000274
                },
                {
                    "name": "F4",
                    "midi": 65,
                    "time": 383.3411400000019,
                    "velocity": 0.29133858267716534,
                    "duration": 0.7098910000000274
                },
                {
                    "name": "C#5",
                    "midi": 73,
                    "time": 383.3411400000019,
                    "velocity": 0.33858267716535434,
                    "duration": 0.7098910000000274
                },
                {
                    "name": "C3",
                    "midi": 48,
                    "time": 386.1807040000019,
                    "velocity": 0.30708661417322836,
                    "duration": 1.4197819999999979
                },
                {
                    "name": "D#3",
                    "midi": 51,
                    "time": 386.1807040000019,
                    "velocity": 0.30708661417322836,
                    "duration": 1.4197819999999979
                },
                {
                    "name": "G#3",
                    "midi": 56,
                    "time": 386.1807040000019,
                    "velocity": 0.3700787401574803,
                    "duration": 1.4197819999999979
                },
                {
                    "name": "C3",
                    "midi": 48,
                    "time": 387.6004860000019,
                    "velocity": 0.29133858267716534,
                    "duration": 1.2423092500000052
                },
                {
                    "name": "F#3",
                    "midi": 54,
                    "time": 387.6004860000019,
                    "velocity": 0.3464566929133858,
                    "duration": 1.2423092500000052
                },
                {
                    "name": "G#3",
                    "midi": 56,
                    "time": 387.6004860000019,
                    "velocity": 0.3464566929133858,
                    "duration": 1.2423092500000052
                },
                {
                    "name": "C3",
                    "midi": 48,
                    "time": 388.8427952500019,
                    "velocity": 0.29133858267716534,
                    "duration": 0.17747274999999263
                },
                {
                    "name": "D#3",
                    "midi": 51,
                    "time": 388.8427952500019,
                    "velocity": 0.3464566929133858,
                    "duration": 0.17747274999999263
                },
                {
                    "name": "G#3",
                    "midi": 56,
                    "time": 388.8427952500019,
                    "velocity": 0.3464566929133858,
                    "duration": 0.17747274999999263
                },
                {
                    "name": "C#3",
                    "midi": 49,
                    "time": 389.0202680000019,
                    "velocity": 0.30708661417322836,
                    "duration": 1.0648365000000126
                },
                {
                    "name": "F3",
                    "midi": 53,
                    "time": 389.0202680000019,
                    "velocity": 0.30708661417322836,
                    "duration": 1.0648365000000126
                },
                {
                    "name": "G#3",
                    "midi": 56,
                    "time": 389.0202680000019,
                    "velocity": 0.3700787401574803,
                    "duration": 1.0648365000000126
                },
                {
                    "name": "F4",
                    "midi": 65,
                    "time": 390.08510450000193,
                    "velocity": 0.3543307086614173,
                    "duration": 0.35494549999998526
                },
                {
                    "name": "G#4",
                    "midi": 68,
                    "time": 390.08510450000193,
                    "velocity": 0.3543307086614173,
                    "duration": 0.35494549999998526
                },
                {
                    "name": "C#5",
                    "midi": 73,
                    "time": 390.08510450000193,
                    "velocity": 0.41732283464566927,
                    "duration": 0.35494549999998526
                },
                {
                    "name": "G#4",
                    "midi": 68,
                    "time": 390.4400500000019,
                    "velocity": 0.3228346456692913,
                    "duration": 0.7098910000000274
                },
                {
                    "name": "F#4",
                    "midi": 66,
                    "time": 390.4400500000019,
                    "velocity": 0.3228346456692913,
                    "duration": 0.7098910000000274
                },
                {
                    "name": "C5",
                    "midi": 72,
                    "time": 390.4400500000019,
                    "velocity": 0.3858267716535433,
                    "duration": 0.7098910000000274
                },
                {
                    "name": "F4",
                    "midi": 65,
                    "time": 391.14994100000195,
                    "velocity": 0.2440944881889764,
                    "duration": 0.7098910000000274
                },
                {
                    "name": "G#4",
                    "midi": 68,
                    "time": 391.14994100000195,
                    "velocity": 0.2440944881889764,
                    "duration": 0.7098910000000274
                },
                {
                    "name": "C#5",
                    "midi": 73,
                    "time": 391.14994100000195,
                    "velocity": 0.29133858267716534,
                    "duration": 0.7098910000000274
                },
                {
                    "name": "C3",
                    "midi": 48,
                    "time": 391.859832000002,
                    "velocity": 0.30708661417322836,
                    "duration": 1.4197819999999979
                },
                {
                    "name": "D#3",
                    "midi": 51,
                    "time": 391.859832000002,
                    "velocity": 0.30708661417322836,
                    "duration": 1.4197819999999979
                },
                {
                    "name": "G#3",
                    "midi": 56,
                    "time": 391.859832000002,
                    "velocity": 0.3700787401574803,
                    "duration": 1.4197819999999979
                },
                {
                    "name": "C3",
                    "midi": 48,
                    "time": 393.27961400000197,
                    "velocity": 0.29133858267716534,
                    "duration": 1.2423092500000052
                },
                {
                    "name": "F#3",
                    "midi": 54,
                    "time": 393.27961400000197,
                    "velocity": 0.3464566929133858,
                    "duration": 1.2423092500000052
                },
                {
                    "name": "G#3",
                    "midi": 56,
                    "time": 393.27961400000197,
                    "velocity": 0.3464566929133858,
                    "duration": 1.2423092500000052
                },
                {
                    "name": "C3",
                    "midi": 48,
                    "time": 394.521923250002,
                    "velocity": 0.29133858267716534,
                    "duration": 0.17747274999999263
                },
                {
                    "name": "D#3",
                    "midi": 51,
                    "time": 394.521923250002,
                    "velocity": 0.3464566929133858,
                    "duration": 0.17747274999999263
                },
                {
                    "name": "G#3",
                    "midi": 56,
                    "time": 394.521923250002,
                    "velocity": 0.3464566929133858,
                    "duration": 0.17747274999999263
                },
                {
                    "name": "C#3",
                    "midi": 49,
                    "time": 394.69939600000197,
                    "velocity": 0.30708661417322836,
                    "duration": 1.0648365000000126
                },
                {
                    "name": "F3",
                    "midi": 53,
                    "time": 394.69939600000197,
                    "velocity": 0.30708661417322836,
                    "duration": 1.0648365000000126
                },
                {
                    "name": "G#3",
                    "midi": 56,
                    "time": 394.69939600000197,
                    "velocity": 0.3700787401574803,
                    "duration": 1.0648365000000126
                },
                {
                    "name": "F4",
                    "midi": 65,
                    "time": 395.764232500002,
                    "velocity": 0.3543307086614173,
                    "duration": 0.35494549999998526
                },
                {
                    "name": "G#4",
                    "midi": 68,
                    "time": 395.764232500002,
                    "velocity": 0.3543307086614173,
                    "duration": 0.35494549999998526
                },
                {
                    "name": "F5",
                    "midi": 77,
                    "time": 395.764232500002,
                    "velocity": 0.4330708661417323,
                    "duration": 0.35494549999998526
                },
                {
                    "name": "G#4",
                    "midi": 68,
                    "time": 396.11917800000197,
                    "velocity": 0.3543307086614173,
                    "duration": 0.7098909999999705
                },
                {
                    "name": "F#4",
                    "midi": 66,
                    "time": 396.11917800000197,
                    "velocity": 0.3543307086614173,
                    "duration": 0.7098909999999705
                },
                {
                    "name": "F5",
                    "midi": 77,
                    "time": 396.11917800000197,
                    "velocity": 0.4566929133858268,
                    "duration": 0.35494549999998526
                },
                {
                    "name": "D#5",
                    "midi": 75,
                    "time": 396.47412350000195,
                    "velocity": 0.4015748031496063,
                    "duration": 0.35494549999998526
                },
                {
                    "name": "F4",
                    "midi": 65,
                    "time": 396.82906900000194,
                    "velocity": 0.2440944881889764,
                    "duration": 0.7098910000000274
                },
                {
                    "name": "G#4",
                    "midi": 68,
                    "time": 396.82906900000194,
                    "velocity": 0.2440944881889764,
                    "duration": 0.7098910000000274
                },
                {
                    "name": "C#5",
                    "midi": 73,
                    "time": 396.82906900000194,
                    "velocity": 0.29133858267716534,
                    "duration": 0.7098910000000274
                },
                {
                    "name": "C3",
                    "midi": 48,
                    "time": 397.53896000000196,
                    "velocity": 0.41732283464566927,
                    "duration": 1.4197819999999979
                },
                {
                    "name": "D#3",
                    "midi": 51,
                    "time": 397.53896000000196,
                    "velocity": 0.41732283464566927,
                    "duration": 1.4197819999999979
                },
                {
                    "name": "G#3",
                    "midi": 56,
                    "time": 397.53896000000196,
                    "velocity": 0.5196850393700787,
                    "duration": 1.4197819999999979
                },
                {
                    "name": "C3",
                    "midi": 48,
                    "time": 398.95874200000196,
                    "velocity": 0.48031496062992124,
                    "duration": 1.2423092500000052
                },
                {
                    "name": "F#3",
                    "midi": 54,
                    "time": 398.95874200000196,
                    "velocity": 0.5669291338582677,
                    "duration": 1.2423092500000052
                },
                {
                    "name": "G#3",
                    "midi": 56,
                    "time": 398.95874200000196,
                    "velocity": 0.5669291338582677,
                    "duration": 1.2423092500000052
                },
                {
                    "name": "C3",
                    "midi": 48,
                    "time": 400.20105125000197,
                    "velocity": 0.5118110236220472,
                    "duration": 0.17747274999999263
                },
                {
                    "name": "D#3",
                    "midi": 51,
                    "time": 400.20105125000197,
                    "velocity": 0.6062992125984252,
                    "duration": 0.17747274999999263
                },
                {
                    "name": "G#3",
                    "midi": 56,
                    "time": 400.20105125000197,
                    "velocity": 0.6062992125984252,
                    "duration": 0.17747274999999263
                },
                {
                    "name": "G#4",
                    "midi": 68,
                    "time": 400.37852400000196,
                    "velocity": 0.6299212598425197,
                    "duration": 1.0648365000000126
                },
                {
                    "name": "C#5",
                    "midi": 73,
                    "time": 400.37852400000196,
                    "velocity": 0.6299212598425197,
                    "duration": 1.0648365000000126
                },
                {
                    "name": "G#5",
                    "midi": 80,
                    "time": 400.37852400000196,
                    "velocity": 0.7716535433070866,
                    "duration": 1.0648365000000126
                },
                {
                    "name": "C#5",
                    "midi": 73,
                    "time": 401.443360500002,
                    "velocity": 0.5511811023622047,
                    "duration": 0.35494549999998526
                },
                {
                    "name": "F5",
                    "midi": 77,
                    "time": 401.443360500002,
                    "velocity": 0.5511811023622047,
                    "duration": 0.35494549999998526
                },
                {
                    "name": "G#5",
                    "midi": 80,
                    "time": 401.443360500002,
                    "velocity": 0.6535433070866141,
                    "duration": 0.35494549999998526
                },
                {
                    "name": "D#5",
                    "midi": 75,
                    "time": 401.79830600000196,
                    "velocity": 0.5511811023622047,
                    "duration": 0.7098909999999705
                },
                {
                    "name": "C5",
                    "midi": 72,
                    "time": 401.79830600000196,
                    "velocity": 0.5511811023622047,
                    "duration": 0.7098909999999705
                },
                {
                    "name": "G#5",
                    "midi": 80,
                    "time": 401.79830600000196,
                    "velocity": 0.6850393700787402,
                    "duration": 0.35494549999998526
                },
                {
                    "name": "F#5",
                    "midi": 78,
                    "time": 402.15325150000194,
                    "velocity": 0.5354330708661418,
                    "duration": 0.35494549999998526
                },
                {
                    "name": "C#5",
                    "midi": 73,
                    "time": 402.5081970000019,
                    "velocity": 0.44881889763779526,
                    "duration": 0.7098910000000274
                },
                {
                    "name": "F5",
                    "midi": 77,
                    "time": 402.5081970000019,
                    "velocity": 0.5590551181102362,
                    "duration": 0.7098910000000274
                },
                {
                    "name": "F#4",
                    "midi": 66,
                    "time": 403.21808800000196,
                    "velocity": 0.30708661417322836,
                    "duration": 1.4197819999999979
                },
                {
                    "name": "A#4",
                    "midi": 70,
                    "time": 403.21808800000196,
                    "velocity": 0.30708661417322836,
                    "duration": 1.4197819999999979
                },
                {
                    "name": "D#5",
                    "midi": 75,
                    "time": 403.21808800000196,
                    "velocity": 0.3700787401574803,
                    "duration": 1.4197819999999979
                },
                {
                    "name": "D#4",
                    "midi": 63,
                    "time": 404.63787000000195,
                    "velocity": 0.29133858267716534,
                    "duration": 1.4197819999999979
                },
                {
                    "name": "G#4",
                    "midi": 68,
                    "time": 404.63787000000195,
                    "velocity": 0.33858267716535434,
                    "duration": 1.4197819999999979
                },
                {
                    "name": "C#4",
                    "midi": 61,
                    "time": 406.94501575000197,
                    "velocity": 0.23622047244094488,
                    "duration": 1.9522002499999758
                },
                {
                    "name": "E4",
                    "midi": 64,
                    "time": 407.12248850000196,
                    "velocity": 0.25196850393700787,
                    "duration": 1.7747274999999831
                },
                {
                    "name": "G4",
                    "midi": 67,
                    "time": 407.29996125000196,
                    "velocity": 0.2677165354330709,
                    "duration": 1.5972547499999905
                },
                {
                    "name": "C#5",
                    "midi": 73,
                    "time": 407.47743400000195,
                    "velocity": 0.2992125984251969,
                    "duration": 1.4197819999999979
                },
                {
                    "name": "C#6",
                    "midi": 85,
                    "time": 409.607107000002,
                    "velocity": 0.8031496062992126,
                    "duration": 2.1296730000000252
                },
                {
                    "name": "G5",
                    "midi": 79,
                    "time": 409.607107000002,
                    "velocity": 0.6771653543307087,
                    "duration": 2.1296730000000252
                },
                {
                    "name": "E5",
                    "midi": 76,
                    "time": 409.607107000002,
                    "velocity": 0.6771653543307087,
                    "duration": 2.1296730000000252
                },
                {
                    "name": "C#5",
                    "midi": 73,
                    "time": 409.607107000002,
                    "velocity": 0.6771653543307087,
                    "duration": 2.1296730000000252
                }
            ],
            "controlChanges": {
                "7": [
                    {
                        "number": 7,
                        "time": 0,
                        "value": 0.7874015748031497
                    }
                ],
                "10": [
                    {
                        "number": 10,
                        "time": 0,
                        "value": 0.5039370078740157
                    }
                ],
                "91": [
                    {
                        "number": 91,
                        "time": 0,
                        "value": 1
                    }
                ]
            },
            "id": 1,
            "name": "Piano right",
            "instrumentNumber": 0,
            "instrument": "acoustic grand piano",
            "instrumentFamily": "piano",
            "channelNumber": 0,
            "isPercussion": false
        },
        {
            "startTime": 0,
            "duration": 411.73677999999916,
            "length": 853,
            "notes": [
                {
                    "name": "C#2",
                    "midi": 37,
                    "time": 0,
                    "velocity": 0.3700787401574803,
                    "duration": 1.419782
                },
                {
                    "name": "F#1",
                    "midi": 30,
                    "time": 1.419782,
                    "velocity": 0.2755905511811024,
                    "duration": 1.419782
                },
                {
                    "name": "C#2",
                    "midi": 37,
                    "time": 2.839564,
                    "velocity": 0.29133858267716534,
                    "duration": 2.1296730000000004
                },
                {
                    "name": "F#1",
                    "midi": 30,
                    "time": 4.969237000000001,
                    "velocity": 0.2755905511811024,
                    "duration": 0.7098909999999998
                },
                {
                    "name": "G#1",
                    "midi": 32,
                    "time": 5.679128,
                    "velocity": 0.31496062992125984,
                    "duration": 1.4197819999999997
                },
                {
                    "name": "G#2",
                    "midi": 44,
                    "time": 7.09891,
                    "velocity": 0.31496062992125984,
                    "duration": 1.24230925
                },
                {
                    "name": "F#2",
                    "midi": 42,
                    "time": 8.34121925,
                    "velocity": 0.28346456692913385,
                    "duration": 0.17747274999999973
                },
                {
                    "name": "F2",
                    "midi": 41,
                    "time": 8.518692,
                    "velocity": 0.33858267716535434,
                    "duration": 1.0648365000000002
                },
                {
                    "name": "F#2",
                    "midi": 42,
                    "time": 9.5835285,
                    "velocity": 0.28346456692913385,
                    "duration": 0.35494549999999947
                },
                {
                    "name": "G#2",
                    "midi": 44,
                    "time": 9.938474,
                    "velocity": 0.3228346456692913,
                    "duration": 0.5324182499999992
                },
                {
                    "name": "F#2",
                    "midi": 42,
                    "time": 10.470892249999999,
                    "velocity": 0.29133858267716534,
                    "duration": 0.17747274999999973
                },
                {
                    "name": "F2",
                    "midi": 41,
                    "time": 10.648364999999998,
                    "velocity": 0.31496062992125984,
                    "duration": 0.5324182499999992
                },
                {
                    "name": "D#2",
                    "midi": 39,
                    "time": 11.180783249999998,
                    "velocity": 0.31496062992125984,
                    "duration": 0.17747274999999973
                },
                {
                    "name": "C#2",
                    "midi": 37,
                    "time": 11.358255999999997,
                    "velocity": 0.30708661417322836,
                    "duration": 1.4197819999999997
                },
                {
                    "name": "C#3",
                    "midi": 49,
                    "time": 11.358255999999997,
                    "velocity": 0.36220472440944884,
                    "duration": 1.4197819999999997
                },
                {
                    "name": "F#2",
                    "midi": 42,
                    "time": 12.778037999999997,
                    "velocity": 0.3779527559055118,
                    "duration": 1.4197819999999997
                },
                {
                    "name": "F#1",
                    "midi": 30,
                    "time": 12.778037999999997,
                    "velocity": 0.31496062992125984,
                    "duration": 1.4197819999999997
                },
                {
                    "name": "C#2",
                    "midi": 37,
                    "time": 14.197819999999997,
                    "velocity": 0.2125984251968504,
                    "duration": 2.1296730000000004
                },
                {
                    "name": "C#3",
                    "midi": 49,
                    "time": 14.197819999999997,
                    "velocity": 0.25196850393700787,
                    "duration": 2.1296730000000004
                },
                {
                    "name": "A1",
                    "midi": 33,
                    "time": 16.327492999999997,
                    "velocity": 0.23622047244094488,
                    "duration": 0.7098909999999989
                },
                {
                    "name": "A2",
                    "midi": 45,
                    "time": 16.327492999999997,
                    "velocity": 0.28346456692913385,
                    "duration": 0.7098909999999989
                },
                {
                    "name": "G#1",
                    "midi": 32,
                    "time": 17.037383999999996,
                    "velocity": 0.2440944881889764,
                    "duration": 1.4197820000000014
                },
                {
                    "name": "G#2",
                    "midi": 44,
                    "time": 17.037383999999996,
                    "velocity": 0.29133858267716534,
                    "duration": 1.4197820000000014
                },
                {
                    "name": "G#2",
                    "midi": 44,
                    "time": 18.457165999999997,
                    "velocity": 0.2677165354330709,
                    "duration": 1.9522002500000006
                },
                {
                    "name": "F#2",
                    "midi": 42,
                    "time": 20.409366249999998,
                    "velocity": 0.2204724409448819,
                    "duration": 0.17747274999999973
                },
                {
                    "name": "F2",
                    "midi": 41,
                    "time": 20.586838999999998,
                    "velocity": 0.25196850393700787,
                    "duration": 0.5324182499999992
                },
                {
                    "name": "D#2",
                    "midi": 39,
                    "time": 21.119257249999997,
                    "velocity": 0.2125984251968504,
                    "duration": 0.17747274999999973
                },
                {
                    "name": "C#2",
                    "midi": 37,
                    "time": 21.296729999999997,
                    "velocity": 0.2125984251968504,
                    "duration": 0.7098909999999989
                },
                {
                    "name": "C#2",
                    "midi": 37,
                    "time": 22.716511999999994,
                    "velocity": 0.3700787401574803,
                    "duration": 1.4197820000000014
                },
                {
                    "name": "F#1",
                    "midi": 30,
                    "time": 24.136293999999996,
                    "velocity": 0.2755905511811024,
                    "duration": 1.4197820000000014
                },
                {
                    "name": "C#2",
                    "midi": 37,
                    "time": 25.556075999999997,
                    "velocity": 0.29133858267716534,
                    "duration": 2.1296730000000004
                },
                {
                    "name": "F#1",
                    "midi": 30,
                    "time": 27.685748999999998,
                    "velocity": 0.2755905511811024,
                    "duration": 0.7098909999999989
                },
                {
                    "name": "G#1",
                    "midi": 32,
                    "time": 28.395639999999997,
                    "velocity": 0.31496062992125984,
                    "duration": 1.4197820000000014
                },
                {
                    "name": "G#2",
                    "midi": 44,
                    "time": 29.815421999999998,
                    "velocity": 0.31496062992125984,
                    "duration": 1.2423092500000017
                },
                {
                    "name": "F#2",
                    "midi": 42,
                    "time": 31.05773125,
                    "velocity": 0.28346456692913385,
                    "duration": 0.17747274999999973
                },
                {
                    "name": "F2",
                    "midi": 41,
                    "time": 31.235204,
                    "velocity": 0.33858267716535434,
                    "duration": 1.064836500000002
                },
                {
                    "name": "F#2",
                    "midi": 42,
                    "time": 32.3000405,
                    "velocity": 0.28346456692913385,
                    "duration": 0.35494549999999947
                },
                {
                    "name": "G#2",
                    "midi": 44,
                    "time": 32.654986,
                    "velocity": 0.3228346456692913,
                    "duration": 0.5324182499999992
                },
                {
                    "name": "F#2",
                    "midi": 42,
                    "time": 33.18740425,
                    "velocity": 0.29133858267716534,
                    "duration": 0.17747274999999973
                },
                {
                    "name": "F2",
                    "midi": 41,
                    "time": 33.364877,
                    "velocity": 0.31496062992125984,
                    "duration": 0.5324182499999992
                },
                {
                    "name": "D#2",
                    "midi": 39,
                    "time": 33.89729525,
                    "velocity": 0.31496062992125984,
                    "duration": 0.17747274999999973
                },
                {
                    "name": "C#2",
                    "midi": 37,
                    "time": 34.074768,
                    "velocity": 0.30708661417322836,
                    "duration": 1.4197819999999979
                },
                {
                    "name": "C#3",
                    "midi": 49,
                    "time": 34.074768,
                    "velocity": 0.36220472440944884,
                    "duration": 1.4197819999999979
                },
                {
                    "name": "F#1",
                    "midi": 30,
                    "time": 35.49455,
                    "velocity": 0.31496062992125984,
                    "duration": 1.4197819999999979
                },
                {
                    "name": "F#2",
                    "midi": 42,
                    "time": 35.49455,
                    "velocity": 0.3779527559055118,
                    "duration": 1.4197819999999979
                },
                {
                    "name": "C#2",
                    "midi": 37,
                    "time": 36.914331999999995,
                    "velocity": 0.1968503937007874,
                    "duration": 2.129673000000004
                },
                {
                    "name": "C#3",
                    "midi": 49,
                    "time": 36.914331999999995,
                    "velocity": 0.23622047244094488,
                    "duration": 2.129673000000004
                },
                {
                    "name": "A1",
                    "midi": 33,
                    "time": 39.044005,
                    "velocity": 0.23622047244094488,
                    "duration": 0.7098909999999989
                },
                {
                    "name": "A2",
                    "midi": 45,
                    "time": 39.044005,
                    "velocity": 0.28346456692913385,
                    "duration": 0.7098909999999989
                },
                {
                    "name": "G#1",
                    "midi": 32,
                    "time": 39.753896,
                    "velocity": 0.2440944881889764,
                    "duration": 1.4197819999999979
                },
                {
                    "name": "G#2",
                    "midi": 44,
                    "time": 39.753896,
                    "velocity": 0.29133858267716534,
                    "duration": 1.4197819999999979
                },
                {
                    "name": "G#2",
                    "midi": 44,
                    "time": 41.173677999999995,
                    "velocity": 0.2677165354330709,
                    "duration": 1.952200249999997
                },
                {
                    "name": "F#2",
                    "midi": 42,
                    "time": 43.12587824999999,
                    "velocity": 0.2204724409448819,
                    "duration": 0.17747274999999973
                },
                {
                    "name": "F2",
                    "midi": 41,
                    "time": 43.30335099999999,
                    "velocity": 0.2440944881889764,
                    "duration": 0.5324182499999992
                },
                {
                    "name": "D#2",
                    "midi": 39,
                    "time": 43.83576924999999,
                    "velocity": 0.2125984251968504,
                    "duration": 0.17747274999999973
                },
                {
                    "name": "C#2",
                    "midi": 37,
                    "time": 44.01324199999999,
                    "velocity": 0.2125984251968504,
                    "duration": 0.7098909999999989
                },
                {
                    "name": "F#2",
                    "midi": 42,
                    "time": 45.43302399999999,
                    "velocity": 0.31496062992125984,
                    "duration": 1.4197819999999979
                },
                {
                    "name": "G#2",
                    "midi": 44,
                    "time": 45.43302399999999,
                    "velocity": 0.31496062992125984,
                    "duration": 1.4197819999999979
                },
                {
                    "name": "D#2",
                    "midi": 39,
                    "time": 46.85280599999999,
                    "velocity": 0.2755905511811024,
                    "duration": 1.2423092499999981
                },
                {
                    "name": "G#2",
                    "midi": 44,
                    "time": 46.85280599999999,
                    "velocity": 0.2755905511811024,
                    "duration": 1.2423092499999981
                },
                {
                    "name": "F#2",
                    "midi": 42,
                    "time": 48.095115249999985,
                    "velocity": 0.2755905511811024,
                    "duration": 0.17747274999999973
                },
                {
                    "name": "G#2",
                    "midi": 44,
                    "time": 48.095115249999985,
                    "velocity": 0.2755905511811024,
                    "duration": 0.17747274999999973
                },
                {
                    "name": "F2",
                    "midi": 41,
                    "time": 48.272587999999985,
                    "velocity": 0.25984251968503935,
                    "duration": 1.0648364999999984
                },
                {
                    "name": "G#2",
                    "midi": 44,
                    "time": 48.272587999999985,
                    "velocity": 0.30708661417322836,
                    "duration": 1.0648364999999984
                },
                {
                    "name": "C#2",
                    "midi": 37,
                    "time": 49.33742449999998,
                    "velocity": 0.30708661417322836,
                    "duration": 0.35494549999999947
                },
                {
                    "name": "G#2",
                    "midi": 44,
                    "time": 49.33742449999998,
                    "velocity": 0.36220472440944884,
                    "duration": 0.35494549999999947
                },
                {
                    "name": "D#2",
                    "midi": 39,
                    "time": 49.69236999999998,
                    "velocity": 0.29133858267716534,
                    "duration": 0.7098909999999989
                },
                {
                    "name": "G#2",
                    "midi": 44,
                    "time": 49.69236999999998,
                    "velocity": 0.3464566929133858,
                    "duration": 0.7098909999999989
                },
                {
                    "name": "C#2",
                    "midi": 37,
                    "time": 50.40226099999998,
                    "velocity": 0.2204724409448819,
                    "duration": 0.7098909999999989
                },
                {
                    "name": "G#2",
                    "midi": 44,
                    "time": 50.40226099999998,
                    "velocity": 0.2677165354330709,
                    "duration": 0.7098909999999989
                },
                {
                    "name": "F#2",
                    "midi": 42,
                    "time": 51.11215199999998,
                    "velocity": 0.31496062992125984,
                    "duration": 1.4197819999999979
                },
                {
                    "name": "G#2",
                    "midi": 44,
                    "time": 51.11215199999998,
                    "velocity": 0.31496062992125984,
                    "duration": 1.4197819999999979
                },
                {
                    "name": "D#2",
                    "midi": 39,
                    "time": 52.53193399999998,
                    "velocity": 0.2755905511811024,
                    "duration": 1.2423092499999981
                },
                {
                    "name": "G#2",
                    "midi": 44,
                    "time": 52.53193399999998,
                    "velocity": 0.2755905511811024,
                    "duration": 1.2423092499999981
                },
                {
                    "name": "F#2",
                    "midi": 42,
                    "time": 53.77424324999998,
                    "velocity": 0.2755905511811024,
                    "duration": 0.17747274999999973
                },
                {
                    "name": "G#2",
                    "midi": 44,
                    "time": 53.77424324999998,
                    "velocity": 0.2755905511811024,
                    "duration": 0.17747274999999973
                },
                {
                    "name": "F2",
                    "midi": 41,
                    "time": 53.951715999999976,
                    "velocity": 0.25984251968503935,
                    "duration": 1.0648364999999984
                },
                {
                    "name": "G#2",
                    "midi": 44,
                    "time": 53.951715999999976,
                    "velocity": 0.30708661417322836,
                    "duration": 1.0648364999999984
                },
                {
                    "name": "C#2",
                    "midi": 37,
                    "time": 55.016552499999975,
                    "velocity": 0.30708661417322836,
                    "duration": 0.35494549999999947
                },
                {
                    "name": "G#2",
                    "midi": 44,
                    "time": 55.016552499999975,
                    "velocity": 0.36220472440944884,
                    "duration": 0.35494549999999947
                },
                {
                    "name": "C2",
                    "midi": 36,
                    "time": 55.371497999999974,
                    "velocity": 0.29133858267716534,
                    "duration": 0.7098909999999989
                },
                {
                    "name": "G#2",
                    "midi": 44,
                    "time": 55.371497999999974,
                    "velocity": 0.3464566929133858,
                    "duration": 0.7098909999999989
                },
                {
                    "name": "C#2",
                    "midi": 37,
                    "time": 56.08138899999997,
                    "velocity": 0.2204724409448819,
                    "duration": 0.7098909999999989
                },
                {
                    "name": "G#2",
                    "midi": 44,
                    "time": 56.08138899999997,
                    "velocity": 0.2677165354330709,
                    "duration": 0.7098909999999989
                },
                {
                    "name": "F#2",
                    "midi": 42,
                    "time": 56.79127999999997,
                    "velocity": 0.3779527559055118,
                    "duration": 1.4197819999999979
                },
                {
                    "name": "G#2",
                    "midi": 44,
                    "time": 56.79127999999997,
                    "velocity": 0.3779527559055118,
                    "duration": 1.4197819999999979
                },
                {
                    "name": "D#2",
                    "midi": 39,
                    "time": 58.21106199999997,
                    "velocity": 0.3858267716535433,
                    "duration": 1.2423092499999981
                },
                {
                    "name": "G#2",
                    "midi": 44,
                    "time": 58.21106199999997,
                    "velocity": 0.3858267716535433,
                    "duration": 1.2423092499999981
                },
                {
                    "name": "F#2",
                    "midi": 42,
                    "time": 59.45337124999997,
                    "velocity": 0.4330708661417323,
                    "duration": 0.17747274999999973
                },
                {
                    "name": "G#2",
                    "midi": 44,
                    "time": 59.45337124999997,
                    "velocity": 0.4330708661417323,
                    "duration": 0.17747274999999973
                },
                {
                    "name": "F2",
                    "midi": 41,
                    "time": 59.63084399999997,
                    "velocity": 0.5748031496062992,
                    "duration": 1.0648364999999984
                },
                {
                    "name": "F3",
                    "midi": 53,
                    "time": 59.63084399999997,
                    "velocity": 0.5748031496062992,
                    "duration": 1.0648364999999984
                },
                {
                    "name": "C#2",
                    "midi": 37,
                    "time": 60.695680499999966,
                    "velocity": 0.3779527559055118,
                    "duration": 0.35494549999999947
                },
                {
                    "name": "C#3",
                    "midi": 49,
                    "time": 60.695680499999966,
                    "velocity": 0.41732283464566927,
                    "duration": 0.35494549999999947
                },
                {
                    "name": "D#2",
                    "midi": 39,
                    "time": 61.050625999999966,
                    "velocity": 0.4094488188976378,
                    "duration": 0.7098909999999989
                },
                {
                    "name": "D#3",
                    "midi": 51,
                    "time": 61.050625999999966,
                    "velocity": 0.4881889763779528,
                    "duration": 0.7098909999999989
                },
                {
                    "name": "F2",
                    "midi": 41,
                    "time": 61.760516999999965,
                    "velocity": 0.28346456692913385,
                    "duration": 0.7098909999999989
                },
                {
                    "name": "F3",
                    "midi": 53,
                    "time": 61.760516999999965,
                    "velocity": 0.33070866141732286,
                    "duration": 0.7098909999999989
                },
                {
                    "name": "F#2",
                    "midi": 42,
                    "time": 62.47040799999996,
                    "velocity": 0.29133858267716534,
                    "duration": 1.4197819999999979
                },
                {
                    "name": "G#2",
                    "midi": 44,
                    "time": 63.89018999999996,
                    "velocity": 0.2677165354330709,
                    "duration": 1.9522002500000042
                },
                {
                    "name": "F#2",
                    "midi": 42,
                    "time": 65.84239024999997,
                    "velocity": 0.2204724409448819,
                    "duration": 0.17747275000000684
                },
                {
                    "name": "F2",
                    "midi": 41,
                    "time": 66.01986299999997,
                    "velocity": 0.23622047244094488,
                    "duration": 0.5324182500000063
                },
                {
                    "name": "D#2",
                    "midi": 39,
                    "time": 66.55228124999998,
                    "velocity": 0.2125984251968504,
                    "duration": 0.17747275000000684
                },
                {
                    "name": "C#2",
                    "midi": 37,
                    "time": 66.72975399999999,
                    "velocity": 0.2047244094488189,
                    "duration": 0.7098909999999989
                },
                {
                    "name": "F#2",
                    "midi": 42,
                    "time": 68.14953599999998,
                    "velocity": 0.31496062992125984,
                    "duration": 1.4197819999999979
                },
                {
                    "name": "G#2",
                    "midi": 44,
                    "time": 68.14953599999998,
                    "velocity": 0.31496062992125984,
                    "duration": 1.4197819999999979
                },
                {
                    "name": "D#2",
                    "midi": 39,
                    "time": 69.56931799999998,
                    "velocity": 0.2755905511811024,
                    "duration": 1.2423092500000052
                },
                {
                    "name": "G#2",
                    "midi": 44,
                    "time": 69.56931799999998,
                    "velocity": 0.2755905511811024,
                    "duration": 1.2423092500000052
                },
                {
                    "name": "F#2",
                    "midi": 42,
                    "time": 70.81162724999999,
                    "velocity": 0.2755905511811024,
                    "duration": 0.17747275000000684
                },
                {
                    "name": "G#2",
                    "midi": 44,
                    "time": 70.81162724999999,
                    "velocity": 0.2755905511811024,
                    "duration": 0.17747275000000684
                },
                {
                    "name": "F2",
                    "midi": 41,
                    "time": 70.9891,
                    "velocity": 0.25984251968503935,
                    "duration": 1.0648364999999984
                },
                {
                    "name": "G#2",
                    "midi": 44,
                    "time": 70.9891,
                    "velocity": 0.30708661417322836,
                    "duration": 1.0648364999999984
                },
                {
                    "name": "C#2",
                    "midi": 37,
                    "time": 72.05393649999999,
                    "velocity": 0.30708661417322836,
                    "duration": 0.35494549999999947
                },
                {
                    "name": "G#2",
                    "midi": 44,
                    "time": 72.05393649999999,
                    "velocity": 0.36220472440944884,
                    "duration": 0.35494549999999947
                },
                {
                    "name": "D#2",
                    "midi": 39,
                    "time": 72.40888199999999,
                    "velocity": 0.29133858267716534,
                    "duration": 0.7098909999999989
                },
                {
                    "name": "G#2",
                    "midi": 44,
                    "time": 72.40888199999999,
                    "velocity": 0.3464566929133858,
                    "duration": 0.7098909999999989
                },
                {
                    "name": "C#2",
                    "midi": 37,
                    "time": 73.11877299999999,
                    "velocity": 0.2204724409448819,
                    "duration": 0.7098909999999989
                },
                {
                    "name": "G#2",
                    "midi": 44,
                    "time": 73.11877299999999,
                    "velocity": 0.2677165354330709,
                    "duration": 0.7098909999999989
                },
                {
                    "name": "F#2",
                    "midi": 42,
                    "time": 73.82866399999999,
                    "velocity": 0.31496062992125984,
                    "duration": 1.4197819999999979
                },
                {
                    "name": "G#2",
                    "midi": 44,
                    "time": 73.82866399999999,
                    "velocity": 0.31496062992125984,
                    "duration": 1.4197819999999979
                },
                {
                    "name": "D#2",
                    "midi": 39,
                    "time": 75.24844599999999,
                    "velocity": 0.2755905511811024,
                    "duration": 1.2423092500000052
                },
                {
                    "name": "G#2",
                    "midi": 44,
                    "time": 75.24844599999999,
                    "velocity": 0.2755905511811024,
                    "duration": 1.2423092500000052
                },
                {
                    "name": "F#2",
                    "midi": 42,
                    "time": 76.49075524999999,
                    "velocity": 0.2755905511811024,
                    "duration": 0.17747275000000684
                },
                {
                    "name": "G#2",
                    "midi": 44,
                    "time": 76.49075524999999,
                    "velocity": 0.2755905511811024,
                    "duration": 0.17747275000000684
                },
                {
                    "name": "F2",
                    "midi": 41,
                    "time": 76.668228,
                    "velocity": 0.25984251968503935,
                    "duration": 1.0648364999999984
                },
                {
                    "name": "G#2",
                    "midi": 44,
                    "time": 76.668228,
                    "velocity": 0.30708661417322836,
                    "duration": 1.0648364999999984
                },
                {
                    "name": "C#2",
                    "midi": 37,
                    "time": 77.7330645,
                    "velocity": 0.30708661417322836,
                    "duration": 0.35494549999999947
                },
                {
                    "name": "G#2",
                    "midi": 44,
                    "time": 77.7330645,
                    "velocity": 0.36220472440944884,
                    "duration": 0.35494549999999947
                },
                {
                    "name": "C2",
                    "midi": 36,
                    "time": 78.08801,
                    "velocity": 0.29133858267716534,
                    "duration": 0.7098909999999989
                },
                {
                    "name": "G#2",
                    "midi": 44,
                    "time": 78.08801,
                    "velocity": 0.3464566929133858,
                    "duration": 0.7098909999999989
                },
                {
                    "name": "C#2",
                    "midi": 37,
                    "time": 78.797901,
                    "velocity": 0.2204724409448819,
                    "duration": 0.7098909999999989
                },
                {
                    "name": "G#2",
                    "midi": 44,
                    "time": 78.797901,
                    "velocity": 0.2677165354330709,
                    "duration": 0.7098909999999989
                },
                {
                    "name": "F#2",
                    "midi": 42,
                    "time": 79.507792,
                    "velocity": 0.3779527559055118,
                    "duration": 1.4197819999999979
                },
                {
                    "name": "G#2",
                    "midi": 44,
                    "time": 79.507792,
                    "velocity": 0.3779527559055118,
                    "duration": 1.4197819999999979
                },
                {
                    "name": "D#2",
                    "midi": 39,
                    "time": 80.92757399999999,
                    "velocity": 0.3858267716535433,
                    "duration": 1.2423092500000052
                },
                {
                    "name": "G#2",
                    "midi": 44,
                    "time": 80.92757399999999,
                    "velocity": 0.3858267716535433,
                    "duration": 1.2423092500000052
                },
                {
                    "name": "F#2",
                    "midi": 42,
                    "time": 82.16988325,
                    "velocity": 0.4330708661417323,
                    "duration": 0.17747275000000684
                },
                {
                    "name": "G#2",
                    "midi": 44,
                    "time": 82.16988325,
                    "velocity": 0.4330708661417323,
                    "duration": 0.17747275000000684
                },
                {
                    "name": "F2",
                    "midi": 41,
                    "time": 82.347356,
                    "velocity": 0.5748031496062992,
                    "duration": 1.0648364999999984
                },
                {
                    "name": "F3",
                    "midi": 53,
                    "time": 82.347356,
                    "velocity": 0.5748031496062992,
                    "duration": 1.0648364999999984
                },
                {
                    "name": "C#2",
                    "midi": 37,
                    "time": 83.4121925,
                    "velocity": 0.3858267716535433,
                    "duration": 0.35494549999999947
                },
                {
                    "name": "C#3",
                    "midi": 49,
                    "time": 83.4121925,
                    "velocity": 0.4330708661417323,
                    "duration": 0.35494549999999947
                },
                {
                    "name": "D#2",
                    "midi": 39,
                    "time": 83.767138,
                    "velocity": 0.4094488188976378,
                    "duration": 0.7098909999999989
                },
                {
                    "name": "D#3",
                    "midi": 51,
                    "time": 83.767138,
                    "velocity": 0.4881889763779528,
                    "duration": 0.7098909999999989
                },
                {
                    "name": "F2",
                    "midi": 41,
                    "time": 84.477029,
                    "velocity": 0.28346456692913385,
                    "duration": 0.7098909999999989
                },
                {
                    "name": "F3",
                    "midi": 53,
                    "time": 84.477029,
                    "velocity": 0.33070866141732286,
                    "duration": 0.7098909999999989
                },
                {
                    "name": "F#2",
                    "midi": 42,
                    "time": 85.18692,
                    "velocity": 0.29133858267716534,
                    "duration": 1.4197819999999979
                },
                {
                    "name": "G#2",
                    "midi": 44,
                    "time": 86.606702,
                    "velocity": 0.2677165354330709,
                    "duration": 1.9522002500000042
                },
                {
                    "name": "F#2",
                    "midi": 42,
                    "time": 88.55890225,
                    "velocity": 0.2204724409448819,
                    "duration": 0.17747275000000684
                },
                {
                    "name": "F2",
                    "midi": 41,
                    "time": 88.73637500000001,
                    "velocity": 0.23622047244094488,
                    "duration": 0.5324182500000063
                },
                {
                    "name": "D#2",
                    "midi": 39,
                    "time": 89.26879325000002,
                    "velocity": 0.2204724409448819,
                    "duration": 0.17747275000000684
                },
                {
                    "name": "C#2",
                    "midi": 37,
                    "time": 89.44626600000002,
                    "velocity": 0.2047244094488189,
                    "duration": 0.7098909999999989
                },
                {
                    "name": "C#2",
                    "midi": 37,
                    "time": 91.57593900000002,
                    "velocity": 0.31496062992125984,
                    "duration": 1.4197819999999979
                },
                {
                    "name": "F#1",
                    "midi": 30,
                    "time": 92.99572100000002,
                    "velocity": 0.2440944881889764,
                    "duration": 1.4197819999999979
                },
                {
                    "name": "G#1",
                    "midi": 32,
                    "time": 94.41550300000002,
                    "velocity": 0.30708661417322836,
                    "duration": 1.4197819999999979
                },
                {
                    "name": "G1",
                    "midi": 31,
                    "time": 95.83528500000001,
                    "velocity": 0.2755905511811024,
                    "duration": 1.4197819999999979
                },
                {
                    "name": "G#1",
                    "midi": 32,
                    "time": 97.25506700000001,
                    "velocity": 0.31496062992125984,
                    "duration": 1.4197819999999979
                },
                {
                    "name": "F#2",
                    "midi": 42,
                    "time": 98.67484900000001,
                    "velocity": 0.2992125984251969,
                    "duration": 1.0648364999999984
                },
                {
                    "name": "F2",
                    "midi": 41,
                    "time": 99.73968550000001,
                    "velocity": 0.2440944881889764,
                    "duration": 0.7098909999999989
                },
                {
                    "name": "D#2",
                    "midi": 39,
                    "time": 100.4495765,
                    "velocity": 0.2283464566929134,
                    "duration": 0.7098909999999989
                },
                {
                    "name": "C#2",
                    "midi": 37,
                    "time": 101.1594675,
                    "velocity": 0.2204724409448819,
                    "duration": 0.7098909999999989
                },
                {
                    "name": "C2",
                    "midi": 36,
                    "time": 101.8693585,
                    "velocity": 0.2047244094488189,
                    "duration": 1.0648364999999984
                },
                {
                    "name": "C#2",
                    "midi": 37,
                    "time": 102.934195,
                    "velocity": 0.33070866141732286,
                    "duration": 1.4197819999999979
                },
                {
                    "name": "F#2",
                    "midi": 42,
                    "time": 104.353977,
                    "velocity": 0.25196850393700787,
                    "duration": 1.4197819999999979
                },
                {
                    "name": "G#2",
                    "midi": 44,
                    "time": 105.773759,
                    "velocity": 0.31496062992125984,
                    "duration": 1.4197819999999979
                },
                {
                    "name": "A2",
                    "midi": 45,
                    "time": 107.193541,
                    "velocity": 0.28346456692913385,
                    "duration": 1.4197819999999979
                },
                {
                    "name": "G#2",
                    "midi": 44,
                    "time": 108.613323,
                    "velocity": 0.31496062992125984,
                    "duration": 1.4197819999999979
                },
                {
                    "name": "G#1",
                    "midi": 32,
                    "time": 110.03310499999999,
                    "velocity": 0.2992125984251969,
                    "duration": 1.0648364999999984
                },
                {
                    "name": "C#2",
                    "midi": 37,
                    "time": 111.09794149999999,
                    "velocity": 0.2677165354330709,
                    "duration": 0.7098909999999989
                },
                {
                    "name": "G#2",
                    "midi": 44,
                    "time": 111.80783249999999,
                    "velocity": 0.23622047244094488,
                    "duration": 0.7098909999999989
                },
                {
                    "name": "F2",
                    "midi": 41,
                    "time": 112.51772349999999,
                    "velocity": 0.2677165354330709,
                    "duration": 0.7098909999999989
                },
                {
                    "name": "D#2",
                    "midi": 39,
                    "time": 113.22761449999999,
                    "velocity": 0.2440944881889764,
                    "duration": 1.0648364999999984
                },
                {
                    "name": "C#2",
                    "midi": 37,
                    "time": 114.29245099999999,
                    "velocity": 0.31496062992125984,
                    "duration": 1.4197819999999979
                },
                {
                    "name": "F#1",
                    "midi": 30,
                    "time": 115.71223299999998,
                    "velocity": 0.2440944881889764,
                    "duration": 1.4197819999999979
                },
                {
                    "name": "G#1",
                    "midi": 32,
                    "time": 117.13201499999998,
                    "velocity": 0.30708661417322836,
                    "duration": 1.4197819999999979
                },
                {
                    "name": "G1",
                    "midi": 31,
                    "time": 118.55179699999998,
                    "velocity": 0.2755905511811024,
                    "duration": 1.4197819999999979
                },
                {
                    "name": "G#1",
                    "midi": 32,
                    "time": 119.97157899999998,
                    "velocity": 0.31496062992125984,
                    "duration": 1.4197819999999979
                },
                {
                    "name": "F#2",
                    "midi": 42,
                    "time": 121.39136099999997,
                    "velocity": 0.2992125984251969,
                    "duration": 1.0648364999999984
                },
                {
                    "name": "F2",
                    "midi": 41,
                    "time": 122.45619749999997,
                    "velocity": 0.2440944881889764,
                    "duration": 0.7098909999999989
                },
                {
                    "name": "D#2",
                    "midi": 39,
                    "time": 123.16608849999997,
                    "velocity": 0.23622047244094488,
                    "duration": 0.7098909999999989
                },
                {
                    "name": "C#2",
                    "midi": 37,
                    "time": 123.87597949999997,
                    "velocity": 0.2283464566929134,
                    "duration": 0.7098909999999989
                },
                {
                    "name": "C2",
                    "midi": 36,
                    "time": 124.58587049999997,
                    "velocity": 0.2204724409448819,
                    "duration": 1.0648364999999984
                },
                {
                    "name": "C#2",
                    "midi": 37,
                    "time": 125.65070699999997,
                    "velocity": 0.33070866141732286,
                    "duration": 1.4197819999999979
                },
                {
                    "name": "F#2",
                    "midi": 42,
                    "time": 127.07048899999997,
                    "velocity": 0.25196850393700787,
                    "duration": 1.419782000000012
                },
                {
                    "name": "G#2",
                    "midi": 44,
                    "time": 128.49027099999998,
                    "velocity": 0.31496062992125984,
                    "duration": 1.4197819999999979
                },
                {
                    "name": "A2",
                    "midi": 45,
                    "time": 129.91005299999998,
                    "velocity": 0.28346456692913385,
                    "duration": 1.4197819999999979
                },
                {
                    "name": "G#2",
                    "midi": 44,
                    "time": 131.32983499999997,
                    "velocity": 0.31496062992125984,
                    "duration": 1.4197819999999979
                },
                {
                    "name": "G#1",
                    "midi": 32,
                    "time": 132.74961699999997,
                    "velocity": 0.2992125984251969,
                    "duration": 1.0648365000000126
                },
                {
                    "name": "C#2",
                    "midi": 37,
                    "time": 133.81445349999998,
                    "velocity": 0.2677165354330709,
                    "duration": 0.7098909999999989
                },
                {
                    "name": "G#2",
                    "midi": 44,
                    "time": 134.52434449999998,
                    "velocity": 0.23622047244094488,
                    "duration": 0.7098909999999989
                },
                {
                    "name": "F2",
                    "midi": 41,
                    "time": 135.23423549999998,
                    "velocity": 0.2677165354330709,
                    "duration": 0.7098909999999989
                },
                {
                    "name": "C#2",
                    "midi": 37,
                    "time": 135.94412649999998,
                    "velocity": 0.2440944881889764,
                    "duration": 0.3549455000000137
                },
                {
                    "name": "F#2",
                    "midi": 42,
                    "time": 137.008963,
                    "velocity": 0.31496062992125984,
                    "duration": 1.4197819999999979
                },
                {
                    "name": "F#4",
                    "midi": 66,
                    "time": 138.428745,
                    "velocity": 0.44881889763779526,
                    "duration": 1.0648365000000126
                },
                {
                    "name": "F4",
                    "midi": 65,
                    "time": 139.4935815,
                    "velocity": 0.2992125984251969,
                    "duration": 0.3549455000000137
                },
                {
                    "name": "C#3",
                    "midi": 49,
                    "time": 140.20347250000003,
                    "velocity": 0.2992125984251969,
                    "duration": 0.3549455000000137
                },
                {
                    "name": "D#3",
                    "midi": 51,
                    "time": 140.91336350000006,
                    "velocity": 0.3543307086614173,
                    "duration": 0.3549455000000137
                },
                {
                    "name": "F3",
                    "midi": 53,
                    "time": 141.6232545000001,
                    "velocity": 0.3543307086614173,
                    "duration": 0.3549455000000137
                },
                {
                    "name": "F#2",
                    "midi": 42,
                    "time": 142.6880910000001,
                    "velocity": 0.4645669291338583,
                    "duration": 1.4197819999999979
                },
                {
                    "name": "G#4",
                    "midi": 68,
                    "time": 144.1078730000001,
                    "velocity": 0.49606299212598426,
                    "duration": 1.0648365000000126
                },
                {
                    "name": "F#4",
                    "midi": 66,
                    "time": 144.1078730000001,
                    "velocity": 0.4094488188976378,
                    "duration": 1.0648365000000126
                },
                {
                    "name": "F4",
                    "midi": 65,
                    "time": 145.1727095000001,
                    "velocity": 0.47244094488188976,
                    "duration": 0.3549455000000137
                },
                {
                    "name": "F3",
                    "midi": 53,
                    "time": 145.88260050000014,
                    "velocity": 0.4330708661417323,
                    "duration": 0.3549455000000137
                },
                {
                    "name": "C#3",
                    "midi": 49,
                    "time": 145.88260050000014,
                    "velocity": 0.3543307086614173,
                    "duration": 0.3549455000000137
                },
                {
                    "name": "F#3",
                    "midi": 54,
                    "time": 146.59249150000016,
                    "velocity": 0.49606299212598426,
                    "duration": 0.3549455000000137
                },
                {
                    "name": "D#3",
                    "midi": 51,
                    "time": 146.59249150000016,
                    "velocity": 0.4094488188976378,
                    "duration": 0.3549455000000137
                },
                {
                    "name": "G#3",
                    "midi": 56,
                    "time": 147.3023825000002,
                    "velocity": 0.4881889763779528,
                    "duration": 0.3490297416666692
                },
                {
                    "name": "F3",
                    "midi": 53,
                    "time": 147.3023825000002,
                    "velocity": 0.4015748031496063,
                    "duration": 0.3490297416666692
                },
                {
                    "name": "F#1",
                    "midi": 30,
                    "time": 148.3672190000002,
                    "velocity": 0.48031496062992124,
                    "duration": 1.4197819999999979
                },
                {
                    "name": "F#2",
                    "midi": 42,
                    "time": 148.3672190000002,
                    "velocity": 0.5748031496062992,
                    "duration": 1.4197819999999979
                },
                {
                    "name": "D#5",
                    "midi": 75,
                    "time": 149.7870010000002,
                    "velocity": 0.6692913385826772,
                    "duration": 1.0648365000000126
                },
                {
                    "name": "C5",
                    "midi": 72,
                    "time": 149.7870010000002,
                    "velocity": 0.4566929133858268,
                    "duration": 1.0648365000000126
                },
                {
                    "name": "C#5",
                    "midi": 73,
                    "time": 150.85183750000022,
                    "velocity": 0.48031496062992124,
                    "duration": 0.3549455000000137
                },
                {
                    "name": "F5",
                    "midi": 77,
                    "time": 150.85183750000022,
                    "velocity": 0.5669291338582677,
                    "duration": 0.3549455000000137
                },
                {
                    "name": "C#3",
                    "midi": 49,
                    "time": 151.56172850000024,
                    "velocity": 0.5196850393700787,
                    "duration": 0.3549455000000137
                },
                {
                    "name": "C#2",
                    "midi": 37,
                    "time": 151.56172850000024,
                    "velocity": 0.4330708661417323,
                    "duration": 0.3549455000000137
                },
                {
                    "name": "D#3",
                    "midi": 51,
                    "time": 152.27161950000027,
                    "velocity": 0.5511811023622047,
                    "duration": 0.3549455000000137
                },
                {
                    "name": "D#2",
                    "midi": 39,
                    "time": 152.27161950000027,
                    "velocity": 0.4566929133858268,
                    "duration": 0.3549455000000137
                },
                {
                    "name": "F3",
                    "midi": 53,
                    "time": 152.9815105000003,
                    "velocity": 0.5196850393700787,
                    "duration": 1.0648365000000126
                },
                {
                    "name": "F2",
                    "midi": 41,
                    "time": 152.9815105000003,
                    "velocity": 0.3543307086614173,
                    "duration": 1.0648365000000126
                },
                {
                    "name": "F#2",
                    "midi": 42,
                    "time": 154.0463470000003,
                    "velocity": 0.33070866141732286,
                    "duration": 1.4197819999999979
                },
                {
                    "name": "G#2",
                    "midi": 44,
                    "time": 155.4661290000003,
                    "velocity": 0.2992125984251969,
                    "duration": 1.0648365000000126
                },
                {
                    "name": "F#2",
                    "midi": 42,
                    "time": 156.53096550000032,
                    "velocity": 0.2440944881889764,
                    "duration": 0.7098909999999989
                },
                {
                    "name": "F2",
                    "midi": 41,
                    "time": 157.24085650000032,
                    "velocity": 0.23622047244094488,
                    "duration": 0.7098909999999989
                },
                {
                    "name": "D#2",
                    "midi": 39,
                    "time": 157.95074750000032,
                    "velocity": 0.2204724409448819,
                    "duration": 0.7098909999999989
                },
                {
                    "name": "C#2",
                    "midi": 37,
                    "time": 158.66063850000032,
                    "velocity": 0.2125984251968504,
                    "duration": 0.3549455000000137
                },
                {
                    "name": "F#2",
                    "midi": 42,
                    "time": 159.72547500000033,
                    "velocity": 0.31496062992125984,
                    "duration": 1.4197819999999979
                },
                {
                    "name": "F#4",
                    "midi": 66,
                    "time": 161.14525700000033,
                    "velocity": 0.44881889763779526,
                    "duration": 1.0648365000000126
                },
                {
                    "name": "F4",
                    "midi": 65,
                    "time": 162.21009350000034,
                    "velocity": 0.2992125984251969,
                    "duration": 0.3549455000000137
                },
                {
                    "name": "C#3",
                    "midi": 49,
                    "time": 162.91998450000037,
                    "velocity": 0.2992125984251969,
                    "duration": 0.3549455000000137
                },
                {
                    "name": "D#3",
                    "midi": 51,
                    "time": 163.6298755000004,
                    "velocity": 0.3543307086614173,
                    "duration": 0.3549455000000137
                },
                {
                    "name": "F3",
                    "midi": 53,
                    "time": 164.33976650000042,
                    "velocity": 0.3543307086614173,
                    "duration": 0.3549455000000137
                },
                {
                    "name": "F#2",
                    "midi": 42,
                    "time": 165.40460300000044,
                    "velocity": 0.4645669291338583,
                    "duration": 1.4197819999999979
                },
                {
                    "name": "G#4",
                    "midi": 68,
                    "time": 166.82438500000043,
                    "velocity": 0.49606299212598426,
                    "duration": 1.0648365000000126
                },
                {
                    "name": "F#4",
                    "midi": 66,
                    "time": 166.82438500000043,
                    "velocity": 0.4094488188976378,
                    "duration": 1.0648365000000126
                },
                {
                    "name": "F4",
                    "midi": 65,
                    "time": 167.88922150000045,
                    "velocity": 0.47244094488188976,
                    "duration": 0.3549455000000137
                },
                {
                    "name": "F3",
                    "midi": 53,
                    "time": 168.59911250000047,
                    "velocity": 0.4330708661417323,
                    "duration": 0.3549455000000137
                },
                {
                    "name": "C#3",
                    "midi": 49,
                    "time": 168.59911250000047,
                    "velocity": 0.3543307086614173,
                    "duration": 0.3549455000000137
                },
                {
                    "name": "F#3",
                    "midi": 54,
                    "time": 169.3090035000005,
                    "velocity": 0.49606299212598426,
                    "duration": 0.3549455000000137
                },
                {
                    "name": "D#3",
                    "midi": 51,
                    "time": 169.3090035000005,
                    "velocity": 0.4094488188976378,
                    "duration": 0.3549455000000137
                },
                {
                    "name": "G#3",
                    "midi": 56,
                    "time": 170.01889450000053,
                    "velocity": 0.4881889763779528,
                    "duration": 0.3490297416666692
                },
                {
                    "name": "F3",
                    "midi": 53,
                    "time": 170.01889450000053,
                    "velocity": 0.4015748031496063,
                    "duration": 0.3490297416666692
                },
                {
                    "name": "F#1",
                    "midi": 30,
                    "time": 171.08373100000054,
                    "velocity": 0.48031496062992124,
                    "duration": 1.4197819999999979
                },
                {
                    "name": "F#2",
                    "midi": 42,
                    "time": 171.08373100000054,
                    "velocity": 0.5748031496062992,
                    "duration": 1.4197819999999979
                },
                {
                    "name": "D#5",
                    "midi": 75,
                    "time": 172.50351300000054,
                    "velocity": 0.6692913385826772,
                    "duration": 1.0648365000000126
                },
                {
                    "name": "C5",
                    "midi": 72,
                    "time": 172.50351300000054,
                    "velocity": 0.4566929133858268,
                    "duration": 1.0648365000000126
                },
                {
                    "name": "C#5",
                    "midi": 73,
                    "time": 173.56834950000055,
                    "velocity": 0.48031496062992124,
                    "duration": 0.3549455000000137
                },
                {
                    "name": "F5",
                    "midi": 77,
                    "time": 173.56834950000055,
                    "velocity": 0.5669291338582677,
                    "duration": 0.3549455000000137
                },
                {
                    "name": "C#3",
                    "midi": 49,
                    "time": 174.27824050000058,
                    "velocity": 0.5196850393700787,
                    "duration": 0.3549455000000137
                },
                {
                    "name": "C#2",
                    "midi": 37,
                    "time": 174.27824050000058,
                    "velocity": 0.4330708661417323,
                    "duration": 0.3549455000000137
                },
                {
                    "name": "D#3",
                    "midi": 51,
                    "time": 174.9881315000006,
                    "velocity": 0.5511811023622047,
                    "duration": 0.3549455000000137
                },
                {
                    "name": "D#2",
                    "midi": 39,
                    "time": 174.9881315000006,
                    "velocity": 0.4566929133858268,
                    "duration": 0.3549455000000137
                },
                {
                    "name": "F3",
                    "midi": 53,
                    "time": 175.69802250000063,
                    "velocity": 0.5196850393700787,
                    "duration": 1.0648365000000126
                },
                {
                    "name": "F2",
                    "midi": 41,
                    "time": 175.69802250000063,
                    "velocity": 0.3543307086614173,
                    "duration": 1.0648365000000126
                },
                {
                    "name": "F#2",
                    "midi": 42,
                    "time": 176.76285900000065,
                    "velocity": 0.33070866141732286,
                    "duration": 1.4197819999999979
                },
                {
                    "name": "G#2",
                    "midi": 44,
                    "time": 178.18264100000064,
                    "velocity": 0.2992125984251969,
                    "duration": 1.0648365000000126
                },
                {
                    "name": "F2",
                    "midi": 41,
                    "time": 179.24747750000066,
                    "velocity": 0.23622047244094488,
                    "duration": 0.7098909999999989
                },
                {
                    "name": "D#2",
                    "midi": 39,
                    "time": 179.95736850000065,
                    "velocity": 0.2125984251968504,
                    "duration": 1.0648365000000126
                },
                {
                    "name": "C#2",
                    "midi": 37,
                    "time": 181.02220500000067,
                    "velocity": 0.2047244094488189,
                    "duration": 0.7098909999999989
                },
                {
                    "name": "C#3",
                    "midi": 49,
                    "time": 181.73209600000067,
                    "velocity": 0.4015748031496063,
                    "duration": 1.4197819999999979
                },
                {
                    "name": "F#2",
                    "midi": 42,
                    "time": 183.15187800000066,
                    "velocity": 0.2992125984251969,
                    "duration": 1.4197819999999979
                },
                {
                    "name": "C#3",
                    "midi": 49,
                    "time": 184.57166000000066,
                    "velocity": 0.33070866141732286,
                    "duration": 2.129672999999997
                },
                {
                    "name": "F#2",
                    "midi": 42,
                    "time": 186.70133300000066,
                    "velocity": 0.2992125984251969,
                    "duration": 0.7098909999999989
                },
                {
                    "name": "G#2",
                    "midi": 44,
                    "time": 187.41122400000066,
                    "velocity": 0.3464566929133858,
                    "duration": 1.4197819999999979
                },
                {
                    "name": "G#3",
                    "midi": 56,
                    "time": 188.83100600000066,
                    "velocity": 0.3464566929133858,
                    "duration": 2.129672999999997
                },
                {
                    "name": "F#3",
                    "midi": 54,
                    "time": 190.96067900000065,
                    "velocity": 0.30708661417322836,
                    "duration": 0.3549455000000137
                },
                {
                    "name": "F3",
                    "midi": 53,
                    "time": 191.31562450000067,
                    "velocity": 0.30708661417322836,
                    "duration": 0.3549455000000137
                },
                {
                    "name": "D#3",
                    "midi": 51,
                    "time": 191.67057000000068,
                    "velocity": 0.3228346456692913,
                    "duration": 0.7098909999999989
                },
                {
                    "name": "C#3",
                    "midi": 49,
                    "time": 192.38046100000068,
                    "velocity": 0.2992125984251969,
                    "duration": 0.7098909999999989
                },
                {
                    "name": "C#4",
                    "midi": 61,
                    "time": 193.09035200000068,
                    "velocity": 0.4015748031496063,
                    "duration": 1.4197819999999979
                },
                {
                    "name": "F#3",
                    "midi": 54,
                    "time": 194.51013400000068,
                    "velocity": 0.4566929133858268,
                    "duration": 1.4197819999999979
                },
                {
                    "name": "C#4",
                    "midi": 61,
                    "time": 195.92991600000067,
                    "velocity": 0.33070866141732286,
                    "duration": 2.129672999999997
                },
                {
                    "name": "A3",
                    "midi": 57,
                    "time": 198.05958900000067,
                    "velocity": 0.2992125984251969,
                    "duration": 0.7098909999999989
                },
                {
                    "name": "G#3",
                    "midi": 56,
                    "time": 198.76948000000067,
                    "velocity": 0.3464566929133858,
                    "duration": 1.4197819999999979
                },
                {
                    "name": "G#2",
                    "midi": 44,
                    "time": 200.18926200000067,
                    "velocity": 0.3464566929133858,
                    "duration": 2.129672999999997
                },
                {
                    "name": "C#2",
                    "midi": 37,
                    "time": 202.31893500000066,
                    "velocity": 0.28346456692913385,
                    "duration": 0.3549455000000137
                },
                {
                    "name": "F2",
                    "midi": 41,
                    "time": 202.67388050000068,
                    "velocity": 0.28346456692913385,
                    "duration": 0.3549455000000137
                },
                {
                    "name": "G#2",
                    "midi": 44,
                    "time": 203.0288260000007,
                    "velocity": 0.2992125984251969,
                    "duration": 0.3549455000000137
                },
                {
                    "name": "C#3",
                    "midi": 49,
                    "time": 203.3837715000007,
                    "velocity": 0.2677165354330709,
                    "duration": 0.3549455000000137
                },
                {
                    "name": "F3",
                    "midi": 53,
                    "time": 203.73871700000072,
                    "velocity": 0.2755905511811024,
                    "duration": 0.3549455000000137
                },
                {
                    "name": "D#3",
                    "midi": 51,
                    "time": 204.09366250000073,
                    "velocity": 0.23622047244094488,
                    "duration": 0.3549455000000137
                },
                {
                    "name": "C#3",
                    "midi": 49,
                    "time": 204.44860800000075,
                    "velocity": 0.4015748031496063,
                    "duration": 1.4197819999999979
                },
                {
                    "name": "F#2",
                    "midi": 42,
                    "time": 205.86839000000074,
                    "velocity": 0.2992125984251969,
                    "duration": 1.4197819999999979
                },
                {
                    "name": "C#3",
                    "midi": 49,
                    "time": 207.28817200000074,
                    "velocity": 0.33070866141732286,
                    "duration": 2.129672999999997
                },
                {
                    "name": "F#2",
                    "midi": 42,
                    "time": 209.41784500000074,
                    "velocity": 0.2992125984251969,
                    "duration": 0.7098909999999989
                },
                {
                    "name": "G#2",
                    "midi": 44,
                    "time": 210.12773600000074,
                    "velocity": 0.3464566929133858,
                    "duration": 1.4197819999999979
                },
                {
                    "name": "G#3",
                    "midi": 56,
                    "time": 211.54751800000074,
                    "velocity": 0.3464566929133858,
                    "duration": 2.129672999999997
                },
                {
                    "name": "F#3",
                    "midi": 54,
                    "time": 213.67719100000073,
                    "velocity": 0.30708661417322836,
                    "duration": 0.3549455000000137
                },
                {
                    "name": "F3",
                    "midi": 53,
                    "time": 214.03213650000075,
                    "velocity": 0.30708661417322836,
                    "duration": 0.3549455000000137
                },
                {
                    "name": "D#3",
                    "midi": 51,
                    "time": 214.38708200000076,
                    "velocity": 0.3228346456692913,
                    "duration": 0.7098909999999989
                },
                {
                    "name": "C#3",
                    "midi": 49,
                    "time": 215.09697300000076,
                    "velocity": 0.2992125984251969,
                    "duration": 0.7098909999999989
                },
                {
                    "name": "C#4",
                    "midi": 61,
                    "time": 215.80686400000076,
                    "velocity": 0.4015748031496063,
                    "duration": 1.4197819999999979
                },
                {
                    "name": "F#3",
                    "midi": 54,
                    "time": 217.22664600000076,
                    "velocity": 0.4566929133858268,
                    "duration": 1.4197819999999979
                },
                {
                    "name": "C#4",
                    "midi": 61,
                    "time": 218.64642800000075,
                    "velocity": 0.33070866141732286,
                    "duration": 2.129672999999997
                },
                {
                    "name": "A3",
                    "midi": 57,
                    "time": 220.77610100000075,
                    "velocity": 0.2992125984251969,
                    "duration": 0.7098909999999989
                },
                {
                    "name": "G#3",
                    "midi": 56,
                    "time": 221.48599200000075,
                    "velocity": 0.3464566929133858,
                    "duration": 1.4197819999999979
                },
                {
                    "name": "G#2",
                    "midi": 44,
                    "time": 222.90577400000075,
                    "velocity": 0.3464566929133858,
                    "duration": 2.129672999999997
                },
                {
                    "name": "C#3",
                    "midi": 49,
                    "time": 225.03544700000074,
                    "velocity": 0.28346456692913385,
                    "duration": 0.3549455000000137
                },
                {
                    "name": "F3",
                    "midi": 53,
                    "time": 225.39039250000076,
                    "velocity": 0.28346456692913385,
                    "duration": 0.3549455000000137
                },
                {
                    "name": "F3",
                    "midi": 53,
                    "time": 225.74533800000077,
                    "velocity": 0.2992125984251969,
                    "duration": 0.3549455000000137
                },
                {
                    "name": "C#3",
                    "midi": 49,
                    "time": 226.10028350000078,
                    "velocity": 0.2677165354330709,
                    "duration": 0.3549455000000137
                },
                {
                    "name": "F3",
                    "midi": 53,
                    "time": 226.4552290000008,
                    "velocity": 0.2755905511811024,
                    "duration": 0.3549455000000137
                },
                {
                    "name": "G#3",
                    "midi": 56,
                    "time": 226.8101745000008,
                    "velocity": 0.23622047244094488,
                    "duration": 0.3549455000000137
                },
                {
                    "name": "G#3",
                    "midi": 56,
                    "time": 227.16512000000083,
                    "velocity": 0.4015748031496063,
                    "duration": 2.8395639999999958
                },
                {
                    "name": "F#3",
                    "midi": 54,
                    "time": 227.16512000000083,
                    "velocity": 0.4015748031496063,
                    "duration": 1.4197819999999979
                },
                {
                    "name": "D#3",
                    "midi": 51,
                    "time": 228.58490200000082,
                    "velocity": 0.2992125984251969,
                    "duration": 1.4197819999999979
                },
                {
                    "name": "F3",
                    "midi": 53,
                    "time": 230.00468400000082,
                    "velocity": 0.2992125984251969,
                    "duration": 0.7098909999999989
                },
                {
                    "name": "G#3",
                    "midi": 56,
                    "time": 230.00468400000082,
                    "velocity": 0.36220472440944884,
                    "duration": 0.7098909999999989
                },
                {
                    "name": "D#3",
                    "midi": 51,
                    "time": 230.71457500000082,
                    "velocity": 0.3228346456692913,
                    "duration": 0.3549455000000137
                },
                {
                    "name": "G#3",
                    "midi": 56,
                    "time": 230.71457500000082,
                    "velocity": 0.3858267716535433,
                    "duration": 0.3549455000000137
                },
                {
                    "name": "F3",
                    "midi": 53,
                    "time": 231.06952050000083,
                    "velocity": 0.3543307086614173,
                    "duration": 0.3549455000000137
                },
                {
                    "name": "G#3",
                    "midi": 56,
                    "time": 231.06952050000083,
                    "velocity": 0.4251968503937008,
                    "duration": 0.3549455000000137
                },
                {
                    "name": "D#3",
                    "midi": 51,
                    "time": 231.42446600000085,
                    "velocity": 0.3858267716535433,
                    "duration": 0.7098909999999989
                },
                {
                    "name": "G#3",
                    "midi": 56,
                    "time": 231.42446600000085,
                    "velocity": 0.4645669291338583,
                    "duration": 0.7098909999999989
                },
                {
                    "name": "C#3",
                    "midi": 49,
                    "time": 232.13435700000085,
                    "velocity": 0.33070866141732286,
                    "duration": 0.7098909999999989
                },
                {
                    "name": "G#3",
                    "midi": 56,
                    "time": 232.13435700000085,
                    "velocity": 0.3937007874015748,
                    "duration": 0.7098909999999989
                },
                {
                    "name": "G#3",
                    "midi": 56,
                    "time": 232.84424800000085,
                    "velocity": 0.4015748031496063,
                    "duration": 2.8395639999999958
                },
                {
                    "name": "F#3",
                    "midi": 54,
                    "time": 232.84424800000085,
                    "velocity": 0.4015748031496063,
                    "duration": 1.4197819999999979
                },
                {
                    "name": "D#3",
                    "midi": 51,
                    "time": 234.26403000000084,
                    "velocity": 0.2992125984251969,
                    "duration": 1.4197819999999979
                },
                {
                    "name": "F3",
                    "midi": 53,
                    "time": 235.68381200000084,
                    "velocity": 0.2992125984251969,
                    "duration": 0.7098909999999989
                },
                {
                    "name": "G#3",
                    "midi": 56,
                    "time": 235.68381200000084,
                    "velocity": 0.36220472440944884,
                    "duration": 0.7098909999999989
                },
                {
                    "name": "D#3",
                    "midi": 51,
                    "time": 236.39370300000084,
                    "velocity": 0.3228346456692913,
                    "duration": 0.3549455000000137
                },
                {
                    "name": "G#3",
                    "midi": 56,
                    "time": 236.39370300000084,
                    "velocity": 0.3858267716535433,
                    "duration": 0.3549455000000137
                },
                {
                    "name": "C#3",
                    "midi": 49,
                    "time": 236.74864850000085,
                    "velocity": 0.3543307086614173,
                    "duration": 0.3549455000000137
                },
                {
                    "name": "G#3",
                    "midi": 56,
                    "time": 236.74864850000085,
                    "velocity": 0.4251968503937008,
                    "duration": 0.3549455000000137
                },
                {
                    "name": "C3",
                    "midi": 48,
                    "time": 237.10359400000087,
                    "velocity": 0.3858267716535433,
                    "duration": 0.7098909999999989
                },
                {
                    "name": "G#3",
                    "midi": 56,
                    "time": 237.10359400000087,
                    "velocity": 0.4645669291338583,
                    "duration": 0.7098909999999989
                },
                {
                    "name": "C#3",
                    "midi": 49,
                    "time": 237.81348500000087,
                    "velocity": 0.33070866141732286,
                    "duration": 0.7098909999999989
                },
                {
                    "name": "G#3",
                    "midi": 56,
                    "time": 237.81348500000087,
                    "velocity": 0.3937007874015748,
                    "duration": 0.7098909999999989
                },
                {
                    "name": "G#3",
                    "midi": 56,
                    "time": 238.52337600000087,
                    "velocity": 0.4566929133858268,
                    "duration": 2.8395639999999958
                },
                {
                    "name": "F#3",
                    "midi": 54,
                    "time": 238.52337600000087,
                    "velocity": 0.4566929133858268,
                    "duration": 1.4197819999999979
                },
                {
                    "name": "D#3",
                    "midi": 51,
                    "time": 239.94315800000086,
                    "velocity": 0.4881889763779528,
                    "duration": 1.4197819999999979
                },
                {
                    "name": "F3",
                    "midi": 53,
                    "time": 241.36294000000086,
                    "velocity": 0.4645669291338583,
                    "duration": 0.7098909999999989
                },
                {
                    "name": "G#3",
                    "midi": 56,
                    "time": 241.36294000000086,
                    "velocity": 0.4645669291338583,
                    "duration": 0.7098909999999989
                },
                {
                    "name": "C#4",
                    "midi": 61,
                    "time": 241.36294000000086,
                    "velocity": 0.5748031496062992,
                    "duration": 0.7098909999999989
                },
                {
                    "name": "F#3",
                    "midi": 54,
                    "time": 242.07283100000086,
                    "velocity": 0.4330708661417323,
                    "duration": 0.3549455000000137
                },
                {
                    "name": "D#3",
                    "midi": 51,
                    "time": 242.07283100000086,
                    "velocity": 0.4330708661417323,
                    "duration": 0.3549455000000137
                },
                {
                    "name": "C#4",
                    "midi": 61,
                    "time": 242.07283100000086,
                    "velocity": 0.5118110236220472,
                    "duration": 0.3549455000000137
                },
                {
                    "name": "C#3",
                    "midi": 49,
                    "time": 242.42777650000087,
                    "velocity": 0.3858267716535433,
                    "duration": 0.3549455000000137
                },
                {
                    "name": "F3",
                    "midi": 53,
                    "time": 242.42777650000087,
                    "velocity": 0.3858267716535433,
                    "duration": 0.3549455000000137
                },
                {
                    "name": "C#4",
                    "midi": 61,
                    "time": 242.42777650000087,
                    "velocity": 0.4645669291338583,
                    "duration": 0.3549455000000137
                },
                {
                    "name": "F#3",
                    "midi": 54,
                    "time": 242.7827220000009,
                    "velocity": 0.4409448818897638,
                    "duration": 0.7098909999999989
                },
                {
                    "name": "D#3",
                    "midi": 51,
                    "time": 242.7827220000009,
                    "velocity": 0.4409448818897638,
                    "duration": 0.7098909999999989
                },
                {
                    "name": "C4",
                    "midi": 60,
                    "time": 242.7827220000009,
                    "velocity": 0.5196850393700787,
                    "duration": 0.7098909999999989
                },
                {
                    "name": "G#3",
                    "midi": 56,
                    "time": 243.4926130000009,
                    "velocity": 0.31496062992125984,
                    "duration": 0.7098909999999989
                },
                {
                    "name": "F3",
                    "midi": 53,
                    "time": 243.4926130000009,
                    "velocity": 0.31496062992125984,
                    "duration": 0.7098909999999989
                },
                {
                    "name": "C#4",
                    "midi": 61,
                    "time": 243.4926130000009,
                    "velocity": 0.4566929133858268,
                    "duration": 0.7098909999999989
                },
                {
                    "name": "F#3",
                    "midi": 54,
                    "time": 244.20250400000089,
                    "velocity": 0.2677165354330709,
                    "duration": 1.4197819999999979
                },
                {
                    "name": "A#3",
                    "midi": 58,
                    "time": 244.20250400000089,
                    "velocity": 0.2677165354330709,
                    "duration": 1.4197819999999979
                },
                {
                    "name": "D#4",
                    "midi": 63,
                    "time": 244.20250400000089,
                    "velocity": 0.31496062992125984,
                    "duration": 1.4197819999999979
                },
                {
                    "name": "G#3",
                    "midi": 56,
                    "time": 245.62228600000088,
                    "velocity": 0.2677165354330709,
                    "duration": 1.4197819999999979
                },
                {
                    "name": "C4",
                    "midi": 60,
                    "time": 245.62228600000088,
                    "velocity": 0.31496062992125984,
                    "duration": 1.4197819999999979
                },
                {
                    "name": "G#3",
                    "midi": 56,
                    "time": 247.04206800000088,
                    "velocity": 0.2677165354330709,
                    "duration": 0.7098909999999989
                },
                {
                    "name": "C#4",
                    "midi": 61,
                    "time": 247.04206800000088,
                    "velocity": 0.31496062992125984,
                    "duration": 0.7098909999999989
                },
                {
                    "name": "C#3",
                    "midi": 49,
                    "time": 247.75195900000088,
                    "velocity": 0.28346456692913385,
                    "duration": 0.3549455000000137
                },
                {
                    "name": "D#3",
                    "midi": 51,
                    "time": 248.1069045000009,
                    "velocity": 0.28346456692913385,
                    "duration": 0.3549455000000137
                },
                {
                    "name": "F3",
                    "midi": 53,
                    "time": 248.4618500000009,
                    "velocity": 0.2992125984251969,
                    "duration": 0.3549455000000137
                },
                {
                    "name": "C#3",
                    "midi": 49,
                    "time": 248.81679550000092,
                    "velocity": 0.2204724409448819,
                    "duration": 0.3549455000000137
                },
                {
                    "name": "G#3",
                    "midi": 56,
                    "time": 248.81679550000092,
                    "velocity": 0.2677165354330709,
                    "duration": 0.3549455000000137
                },
                {
                    "name": "D#3",
                    "midi": 51,
                    "time": 249.17174100000094,
                    "velocity": 0.2283464566929134,
                    "duration": 0.3549455000000137
                },
                {
                    "name": "G#3",
                    "midi": 56,
                    "time": 249.17174100000094,
                    "velocity": 0.2755905511811024,
                    "duration": 0.3549455000000137
                },
                {
                    "name": "F3",
                    "midi": 53,
                    "time": 249.52668650000095,
                    "velocity": 0.1968503937007874,
                    "duration": 0.3549455000000137
                },
                {
                    "name": "G#3",
                    "midi": 56,
                    "time": 249.52668650000095,
                    "velocity": 0.23622047244094488,
                    "duration": 0.3549455000000137
                },
                {
                    "name": "G#3",
                    "midi": 56,
                    "time": 249.88163200000096,
                    "velocity": 0.4015748031496063,
                    "duration": 2.8395639999999958
                },
                {
                    "name": "F#3",
                    "midi": 54,
                    "time": 249.88163200000096,
                    "velocity": 0.4015748031496063,
                    "duration": 1.4197819999999979
                },
                {
                    "name": "D#3",
                    "midi": 51,
                    "time": 251.30141400000096,
                    "velocity": 0.2992125984251969,
                    "duration": 1.4197819999999979
                },
                {
                    "name": "F3",
                    "midi": 53,
                    "time": 252.72119600000096,
                    "velocity": 0.2992125984251969,
                    "duration": 0.7098909999999989
                },
                {
                    "name": "G#3",
                    "midi": 56,
                    "time": 252.72119600000096,
                    "velocity": 0.36220472440944884,
                    "duration": 0.7098909999999989
                },
                {
                    "name": "D#3",
                    "midi": 51,
                    "time": 253.43108700000096,
                    "velocity": 0.3228346456692913,
                    "duration": 0.3549455000000137
                },
                {
                    "name": "G#3",
                    "midi": 56,
                    "time": 253.43108700000096,
                    "velocity": 0.3858267716535433,
                    "duration": 0.3549455000000137
                },
                {
                    "name": "F3",
                    "midi": 53,
                    "time": 253.78603250000097,
                    "velocity": 0.3543307086614173,
                    "duration": 0.3549455000000137
                },
                {
                    "name": "G#3",
                    "midi": 56,
                    "time": 253.78603250000097,
                    "velocity": 0.4251968503937008,
                    "duration": 0.3549455000000137
                },
                {
                    "name": "D#3",
                    "midi": 51,
                    "time": 254.14097800000098,
                    "velocity": 0.3858267716535433,
                    "duration": 0.7098909999999989
                },
                {
                    "name": "G#3",
                    "midi": 56,
                    "time": 254.14097800000098,
                    "velocity": 0.4645669291338583,
                    "duration": 0.7098909999999989
                },
                {
                    "name": "C#3",
                    "midi": 49,
                    "time": 254.85086900000098,
                    "velocity": 0.33070866141732286,
                    "duration": 0.7098909999999989
                },
                {
                    "name": "G#3",
                    "midi": 56,
                    "time": 254.85086900000098,
                    "velocity": 0.3937007874015748,
                    "duration": 0.7098909999999989
                },
                {
                    "name": "G#3",
                    "midi": 56,
                    "time": 255.56076000000098,
                    "velocity": 0.4015748031496063,
                    "duration": 2.8395639999999958
                },
                {
                    "name": "F#3",
                    "midi": 54,
                    "time": 255.56076000000098,
                    "velocity": 0.4015748031496063,
                    "duration": 1.4197819999999979
                },
                {
                    "name": "D#3",
                    "midi": 51,
                    "time": 256.980542000001,
                    "velocity": 0.2992125984251969,
                    "duration": 1.4197819999999979
                },
                {
                    "name": "F3",
                    "midi": 53,
                    "time": 258.400324000001,
                    "velocity": 0.2992125984251969,
                    "duration": 0.7098910000000274
                },
                {
                    "name": "G#3",
                    "midi": 56,
                    "time": 258.400324000001,
                    "velocity": 0.36220472440944884,
                    "duration": 0.7098910000000274
                },
                {
                    "name": "D#3",
                    "midi": 51,
                    "time": 259.110215000001,
                    "velocity": 0.3228346456692913,
                    "duration": 0.35494549999998526
                },
                {
                    "name": "G#3",
                    "midi": 56,
                    "time": 259.110215000001,
                    "velocity": 0.3858267716535433,
                    "duration": 0.35494549999998526
                },
                {
                    "name": "C#3",
                    "midi": 49,
                    "time": 259.465160500001,
                    "velocity": 0.3543307086614173,
                    "duration": 0.35494549999998526
                },
                {
                    "name": "G#3",
                    "midi": 56,
                    "time": 259.465160500001,
                    "velocity": 0.4251968503937008,
                    "duration": 0.35494549999998526
                },
                {
                    "name": "C3",
                    "midi": 48,
                    "time": 259.820106000001,
                    "velocity": 0.3858267716535433,
                    "duration": 0.7098910000000274
                },
                {
                    "name": "G#3",
                    "midi": 56,
                    "time": 259.820106000001,
                    "velocity": 0.4645669291338583,
                    "duration": 0.7098910000000274
                },
                {
                    "name": "C#3",
                    "midi": 49,
                    "time": 260.529997000001,
                    "velocity": 0.33070866141732286,
                    "duration": 0.7098910000000274
                },
                {
                    "name": "G#3",
                    "midi": 56,
                    "time": 260.529997000001,
                    "velocity": 0.3937007874015748,
                    "duration": 0.7098910000000274
                },
                {
                    "name": "G#3",
                    "midi": 56,
                    "time": 261.23988800000103,
                    "velocity": 0.4566929133858268,
                    "duration": 2.8395639999999958
                },
                {
                    "name": "F#3",
                    "midi": 54,
                    "time": 261.23988800000103,
                    "velocity": 0.4566929133858268,
                    "duration": 1.4197819999999979
                },
                {
                    "name": "D#3",
                    "midi": 51,
                    "time": 262.65967000000103,
                    "velocity": 0.4881889763779528,
                    "duration": 1.4197819999999979
                },
                {
                    "name": "F3",
                    "midi": 53,
                    "time": 264.079452000001,
                    "velocity": 0.4645669291338583,
                    "duration": 0.7098910000000274
                },
                {
                    "name": "G#3",
                    "midi": 56,
                    "time": 264.079452000001,
                    "velocity": 0.4645669291338583,
                    "duration": 0.7098910000000274
                },
                {
                    "name": "C#4",
                    "midi": 61,
                    "time": 264.079452000001,
                    "velocity": 0.5748031496062992,
                    "duration": 0.7098910000000274
                },
                {
                    "name": "F#3",
                    "midi": 54,
                    "time": 264.78934300000105,
                    "velocity": 0.4330708661417323,
                    "duration": 0.35494549999998526
                },
                {
                    "name": "D#3",
                    "midi": 51,
                    "time": 264.78934300000105,
                    "velocity": 0.4330708661417323,
                    "duration": 0.35494549999998526
                },
                {
                    "name": "C#4",
                    "midi": 61,
                    "time": 264.78934300000105,
                    "velocity": 0.5118110236220472,
                    "duration": 0.35494549999998526
                },
                {
                    "name": "C#3",
                    "midi": 49,
                    "time": 265.14428850000104,
                    "velocity": 0.3858267716535433,
                    "duration": 0.35494549999998526
                },
                {
                    "name": "F3",
                    "midi": 53,
                    "time": 265.14428850000104,
                    "velocity": 0.3858267716535433,
                    "duration": 0.35494549999998526
                },
                {
                    "name": "C#4",
                    "midi": 61,
                    "time": 265.14428850000104,
                    "velocity": 0.4645669291338583,
                    "duration": 0.35494549999998526
                },
                {
                    "name": "F#3",
                    "midi": 54,
                    "time": 265.499234000001,
                    "velocity": 0.4409448818897638,
                    "duration": 0.7098910000000274
                },
                {
                    "name": "D#3",
                    "midi": 51,
                    "time": 265.499234000001,
                    "velocity": 0.4409448818897638,
                    "duration": 0.7098910000000274
                },
                {
                    "name": "C4",
                    "midi": 60,
                    "time": 265.499234000001,
                    "velocity": 0.5196850393700787,
                    "duration": 0.7098910000000274
                },
                {
                    "name": "G#3",
                    "midi": 56,
                    "time": 266.20912500000105,
                    "velocity": 0.31496062992125984,
                    "duration": 0.7098910000000274
                },
                {
                    "name": "F3",
                    "midi": 53,
                    "time": 266.20912500000105,
                    "velocity": 0.31496062992125984,
                    "duration": 0.7098910000000274
                },
                {
                    "name": "C#4",
                    "midi": 61,
                    "time": 266.20912500000105,
                    "velocity": 0.4566929133858268,
                    "duration": 0.7098910000000274
                },
                {
                    "name": "F#3",
                    "midi": 54,
                    "time": 266.9190160000011,
                    "velocity": 0.2677165354330709,
                    "duration": 1.4197819999999979
                },
                {
                    "name": "A#3",
                    "midi": 58,
                    "time": 266.9190160000011,
                    "velocity": 0.2677165354330709,
                    "duration": 1.4197819999999979
                },
                {
                    "name": "D#4",
                    "midi": 63,
                    "time": 266.9190160000011,
                    "velocity": 0.31496062992125984,
                    "duration": 1.4197819999999979
                },
                {
                    "name": "G#3",
                    "midi": 56,
                    "time": 268.3387980000011,
                    "velocity": 0.2677165354330709,
                    "duration": 1.4197819999999979
                },
                {
                    "name": "C4",
                    "midi": 60,
                    "time": 268.3387980000011,
                    "velocity": 0.31496062992125984,
                    "duration": 1.4197819999999979
                },
                {
                    "name": "G#3",
                    "midi": 56,
                    "time": 269.7585800000011,
                    "velocity": 0.2677165354330709,
                    "duration": 0.7098910000000274
                },
                {
                    "name": "C#4",
                    "midi": 61,
                    "time": 269.7585800000011,
                    "velocity": 0.31496062992125984,
                    "duration": 0.7098910000000274
                },
                {
                    "name": "C#3",
                    "midi": 49,
                    "time": 270.4684710000011,
                    "velocity": 0.28346456692913385,
                    "duration": 0.7098910000000274
                },
                {
                    "name": "G#4",
                    "midi": 68,
                    "time": 271.3558347500011,
                    "velocity": 0.31496062992125984,
                    "duration": 0.17747274999999263
                },
                {
                    "name": "F4",
                    "midi": 65,
                    "time": 271.5333075000011,
                    "velocity": 0.29133858267716534,
                    "duration": 0.17747274999999263
                },
                {
                    "name": "G#4",
                    "midi": 68,
                    "time": 271.7107802500011,
                    "velocity": 0.29133858267716534,
                    "duration": 0.17747274999999263
                },
                {
                    "name": "E4",
                    "midi": 64,
                    "time": 271.8882530000011,
                    "velocity": 0.31496062992125984,
                    "duration": 0.17747274999999263
                },
                {
                    "name": "G#4",
                    "midi": 68,
                    "time": 272.0657257500011,
                    "velocity": 0.29133858267716534,
                    "duration": 0.17747274999999263
                },
                {
                    "name": "F4",
                    "midi": 65,
                    "time": 272.2431985000011,
                    "velocity": 0.29133858267716534,
                    "duration": 0.17747274999999263
                },
                {
                    "name": "G#4",
                    "midi": 68,
                    "time": 272.4206712500011,
                    "velocity": 0.29133858267716534,
                    "duration": 0.17747274999999263
                },
                {
                    "name": "C#4",
                    "midi": 61,
                    "time": 272.59814400000107,
                    "velocity": 0.31496062992125984,
                    "duration": 0.17747274999999263
                },
                {
                    "name": "G#4",
                    "midi": 68,
                    "time": 272.77561675000106,
                    "velocity": 0.28346456692913385,
                    "duration": 0.17747274999999263
                },
                {
                    "name": "F4",
                    "midi": 65,
                    "time": 272.95308950000106,
                    "velocity": 0.28346456692913385,
                    "duration": 0.17747274999999263
                },
                {
                    "name": "G#4",
                    "midi": 68,
                    "time": 273.13056225000105,
                    "velocity": 0.28346456692913385,
                    "duration": 0.17747274999999263
                },
                {
                    "name": "C#5",
                    "midi": 73,
                    "time": 273.30803500000104,
                    "velocity": 0.31496062992125984,
                    "duration": 0.17747274999999263
                },
                {
                    "name": "G#4",
                    "midi": 68,
                    "time": 273.48550775000103,
                    "velocity": 0.28346456692913385,
                    "duration": 0.17747274999999263
                },
                {
                    "name": "F4",
                    "midi": 65,
                    "time": 273.662980500001,
                    "velocity": 0.28346456692913385,
                    "duration": 0.17747274999999263
                },
                {
                    "name": "G#4",
                    "midi": 68,
                    "time": 273.840453250001,
                    "velocity": 0.28346456692913385,
                    "duration": 0.17747274999999263
                },
                {
                    "name": "C#4",
                    "midi": 61,
                    "time": 274.017926000001,
                    "velocity": 0.31496062992125984,
                    "duration": 0.17747274999999263
                },
                {
                    "name": "A#4",
                    "midi": 70,
                    "time": 274.195398750001,
                    "velocity": 0.2755905511811024,
                    "duration": 0.17747274999999263
                },
                {
                    "name": "F#4",
                    "midi": 66,
                    "time": 274.372871500001,
                    "velocity": 0.29133858267716534,
                    "duration": 0.17747274999999263
                },
                {
                    "name": "A#4",
                    "midi": 70,
                    "time": 274.550344250001,
                    "velocity": 0.29133858267716534,
                    "duration": 0.17747274999999263
                },
                {
                    "name": "C#5",
                    "midi": 73,
                    "time": 274.727817000001,
                    "velocity": 0.31496062992125984,
                    "duration": 0.17747274999999263
                },
                {
                    "name": "A#4",
                    "midi": 70,
                    "time": 274.905289750001,
                    "velocity": 0.29133858267716534,
                    "duration": 0.17747274999999263
                },
                {
                    "name": "F#4",
                    "midi": 66,
                    "time": 275.08276250000097,
                    "velocity": 0.29133858267716534,
                    "duration": 0.17747274999999263
                },
                {
                    "name": "A#4",
                    "midi": 70,
                    "time": 275.26023525000096,
                    "velocity": 0.29133858267716534,
                    "duration": 0.17747274999999263
                },
                {
                    "name": "C#4",
                    "midi": 61,
                    "time": 275.43770800000095,
                    "velocity": 0.31496062992125984,
                    "duration": 0.17747274999999263
                },
                {
                    "name": "G#4",
                    "midi": 68,
                    "time": 275.61518075000095,
                    "velocity": 0.29133858267716534,
                    "duration": 0.17747274999999263
                },
                {
                    "name": "F4",
                    "midi": 65,
                    "time": 275.79265350000094,
                    "velocity": 0.29133858267716534,
                    "duration": 0.17747274999999263
                },
                {
                    "name": "G#4",
                    "midi": 68,
                    "time": 275.97012625000093,
                    "velocity": 0.29133858267716534,
                    "duration": 0.17747274999999263
                },
                {
                    "name": "C#5",
                    "midi": 73,
                    "time": 276.1475990000009,
                    "velocity": 0.31496062992125984,
                    "duration": 0.17747274999999263
                },
                {
                    "name": "G#4",
                    "midi": 68,
                    "time": 276.3250717500009,
                    "velocity": 0.29133858267716534,
                    "duration": 0.17747274999999263
                },
                {
                    "name": "F4",
                    "midi": 65,
                    "time": 276.5025445000009,
                    "velocity": 0.29133858267716534,
                    "duration": 0.17747274999999263
                },
                {
                    "name": "G#4",
                    "midi": 68,
                    "time": 276.6800172500009,
                    "velocity": 0.29133858267716534,
                    "duration": 0.17747274999999263
                },
                {
                    "name": "C#4",
                    "midi": 61,
                    "time": 276.8574900000009,
                    "velocity": 0.31496062992125984,
                    "duration": 0.17747274999999263
                },
                {
                    "name": "G#4",
                    "midi": 68,
                    "time": 277.0349627500009,
                    "velocity": 0.29133858267716534,
                    "duration": 0.17747274999999263
                },
                {
                    "name": "F4",
                    "midi": 65,
                    "time": 277.2124355000009,
                    "velocity": 0.29133858267716534,
                    "duration": 0.17747274999999263
                },
                {
                    "name": "G#4",
                    "midi": 68,
                    "time": 277.3899082500009,
                    "velocity": 0.29133858267716534,
                    "duration": 0.17747274999999263
                },
                {
                    "name": "F#3",
                    "midi": 54,
                    "time": 277.56738100000086,
                    "velocity": 0.4094488188976378,
                    "duration": 0.17747274999999263
                },
                {
                    "name": "F#4",
                    "midi": 66,
                    "time": 277.74485375000086,
                    "velocity": 0.36220472440944884,
                    "duration": 0.17747274999999263
                },
                {
                    "name": "D#4",
                    "midi": 63,
                    "time": 277.92232650000085,
                    "velocity": 0.36220472440944884,
                    "duration": 0.17747274999999263
                },
                {
                    "name": "F#4",
                    "midi": 66,
                    "time": 278.09979925000084,
                    "velocity": 0.36220472440944884,
                    "duration": 0.17747274999999263
                },
                {
                    "name": "G#3",
                    "midi": 56,
                    "time": 278.27727200000083,
                    "velocity": 0.44881889763779526,
                    "duration": 0.17747274999999263
                },
                {
                    "name": "F#4",
                    "midi": 66,
                    "time": 278.4547447500008,
                    "velocity": 0.36220472440944884,
                    "duration": 0.17747274999999263
                },
                {
                    "name": "D#4",
                    "midi": 63,
                    "time": 278.6322175000008,
                    "velocity": 0.36220472440944884,
                    "duration": 0.17747274999999263
                },
                {
                    "name": "F#4",
                    "midi": 66,
                    "time": 278.8096902500008,
                    "velocity": 0.36220472440944884,
                    "duration": 0.17747274999999263
                },
                {
                    "name": "G#3",
                    "midi": 56,
                    "time": 278.9871630000008,
                    "velocity": 0.44881889763779526,
                    "duration": 0.17747274999999263
                },
                {
                    "name": "F#4",
                    "midi": 66,
                    "time": 279.1646357500008,
                    "velocity": 0.36220472440944884,
                    "duration": 0.17747274999999263
                },
                {
                    "name": "D#4",
                    "midi": 63,
                    "time": 279.3421085000008,
                    "velocity": 0.36220472440944884,
                    "duration": 0.17747274999999263
                },
                {
                    "name": "F#4",
                    "midi": 66,
                    "time": 279.5195812500008,
                    "velocity": 0.36220472440944884,
                    "duration": 0.17747274999999263
                },
                {
                    "name": "G#3",
                    "midi": 56,
                    "time": 279.6970540000008,
                    "velocity": 0.4645669291338583,
                    "duration": 0.17747274999999263
                },
                {
                    "name": "F#4",
                    "midi": 66,
                    "time": 279.87452675000077,
                    "velocity": 0.36220472440944884,
                    "duration": 0.17747274999999263
                },
                {
                    "name": "D#4",
                    "midi": 63,
                    "time": 280.05199950000076,
                    "velocity": 0.36220472440944884,
                    "duration": 0.17747274999999263
                },
                {
                    "name": "F#4",
                    "midi": 66,
                    "time": 280.22947225000075,
                    "velocity": 0.36220472440944884,
                    "duration": 0.17747274999999263
                },
                {
                    "name": "G#3",
                    "midi": 56,
                    "time": 280.40694500000075,
                    "velocity": 0.4566929133858268,
                    "duration": 0.17747274999999263
                },
                {
                    "name": "F#4",
                    "midi": 66,
                    "time": 280.58441775000074,
                    "velocity": 0.36220472440944884,
                    "duration": 0.17747274999999263
                },
                {
                    "name": "D#4",
                    "midi": 63,
                    "time": 280.76189050000073,
                    "velocity": 0.36220472440944884,
                    "duration": 0.17747274999999263
                },
                {
                    "name": "F#4",
                    "midi": 66,
                    "time": 280.9393632500007,
                    "velocity": 0.36220472440944884,
                    "duration": 0.17747274999999263
                },
                {
                    "name": "C#4",
                    "midi": 61,
                    "time": 281.1168360000007,
                    "velocity": 0.36220472440944884,
                    "duration": 0.17747274999999263
                },
                {
                    "name": "D#4",
                    "midi": 63,
                    "time": 281.2943087500007,
                    "velocity": 0.3700787401574803,
                    "duration": 0.17747274999999263
                },
                {
                    "name": "F4",
                    "midi": 65,
                    "time": 281.4717815000007,
                    "velocity": 0.3779527559055118,
                    "duration": 0.17747274999999263
                },
                {
                    "name": "F#4",
                    "midi": 66,
                    "time": 281.6492542500007,
                    "velocity": 0.3858267716535433,
                    "duration": 0.17747274999999263
                },
                {
                    "name": "G#4",
                    "midi": 68,
                    "time": 281.8267270000007,
                    "velocity": 0.4094488188976378,
                    "duration": 0.17747274999999263
                },
                {
                    "name": "A#4",
                    "midi": 70,
                    "time": 282.0041997500007,
                    "velocity": 0.3858267716535433,
                    "duration": 0.17747274999999263
                },
                {
                    "name": "G#4",
                    "midi": 68,
                    "time": 282.1816725000007,
                    "velocity": 0.4015748031496063,
                    "duration": 0.17747274999999263
                },
                {
                    "name": "F#4",
                    "midi": 66,
                    "time": 282.35914525000067,
                    "velocity": 0.3937007874015748,
                    "duration": 0.17747274999999263
                },
                {
                    "name": "F4",
                    "midi": 65,
                    "time": 282.53661800000066,
                    "velocity": 0.3543307086614173,
                    "duration": 0.17747274999999263
                },
                {
                    "name": "F#4",
                    "midi": 66,
                    "time": 282.71409075000065,
                    "velocity": 0.3700787401574803,
                    "duration": 0.17747274999999263
                },
                {
                    "name": "G#4",
                    "midi": 68,
                    "time": 282.89156350000064,
                    "velocity": 0.3779527559055118,
                    "duration": 0.17747274999999263
                },
                {
                    "name": "A#4",
                    "midi": 70,
                    "time": 283.06903625000064,
                    "velocity": 0.3858267716535433,
                    "duration": 0.17747274999999263
                },
                {
                    "name": "C5",
                    "midi": 72,
                    "time": 283.24650900000063,
                    "velocity": 0.4251968503937008,
                    "duration": 0.17747274999999263
                },
                {
                    "name": "C#5",
                    "midi": 73,
                    "time": 283.4239817500006,
                    "velocity": 0.36220472440944884,
                    "duration": 0.17747274999999263
                },
                {
                    "name": "G#4",
                    "midi": 68,
                    "time": 283.6014545000006,
                    "velocity": 0.3937007874015748,
                    "duration": 0.17747274999999263
                },
                {
                    "name": "F#4",
                    "midi": 66,
                    "time": 283.7789272500006,
                    "velocity": 0.36220472440944884,
                    "duration": 0.17747274999999263
                },
                {
                    "name": "F4",
                    "midi": 65,
                    "time": 283.9564000000006,
                    "velocity": 0.31496062992125984,
                    "duration": 0.17747274999999263
                },
                {
                    "name": "C#5",
                    "midi": 73,
                    "time": 284.1338727500006,
                    "velocity": 0.28346456692913385,
                    "duration": 0.17747274999999263
                },
                {
                    "name": "G#4",
                    "midi": 68,
                    "time": 284.3113455000006,
                    "velocity": 0.28346456692913385,
                    "duration": 0.17747274999999263
                },
                {
                    "name": "C#5",
                    "midi": 73,
                    "time": 284.4888182500006,
                    "velocity": 0.28346456692913385,
                    "duration": 0.17747274999999263
                },
                {
                    "name": "F5",
                    "midi": 77,
                    "time": 284.66629100000057,
                    "velocity": 0.31496062992125984,
                    "duration": 0.17747274999999263
                },
                {
                    "name": "C#5",
                    "midi": 73,
                    "time": 284.84376375000056,
                    "velocity": 0.28346456692913385,
                    "duration": 0.17747274999999263
                },
                {
                    "name": "G#4",
                    "midi": 68,
                    "time": 285.02123650000055,
                    "velocity": 0.28346456692913385,
                    "duration": 0.17747274999999263
                },
                {
                    "name": "C#5",
                    "midi": 73,
                    "time": 285.19870925000055,
                    "velocity": 0.28346456692913385,
                    "duration": 0.17747274999999263
                },
                {
                    "name": "F#4",
                    "midi": 66,
                    "time": 285.37618200000054,
                    "velocity": 0.31496062992125984,
                    "duration": 0.17747274999999263
                },
                {
                    "name": "C#5",
                    "midi": 73,
                    "time": 285.55365475000053,
                    "velocity": 0.2755905511811024,
                    "duration": 0.17747274999999263
                },
                {
                    "name": "A#4",
                    "midi": 70,
                    "time": 285.7311275000005,
                    "velocity": 0.29133858267716534,
                    "duration": 0.17747274999999263
                },
                {
                    "name": "C#5",
                    "midi": 73,
                    "time": 285.9086002500005,
                    "velocity": 0.29133858267716534,
                    "duration": 0.17747274999999263
                },
                {
                    "name": "F#5",
                    "midi": 78,
                    "time": 286.0860730000005,
                    "velocity": 0.31496062992125984,
                    "duration": 0.17747274999999263
                },
                {
                    "name": "C#5",
                    "midi": 73,
                    "time": 286.2635457500005,
                    "velocity": 0.29133858267716534,
                    "duration": 0.17747274999999263
                },
                {
                    "name": "A#4",
                    "midi": 70,
                    "time": 286.4410185000005,
                    "velocity": 0.29133858267716534,
                    "duration": 0.17747274999999263
                },
                {
                    "name": "C#5",
                    "midi": 73,
                    "time": 286.6184912500005,
                    "velocity": 0.29133858267716534,
                    "duration": 0.17747274999999263
                },
                {
                    "name": "F4",
                    "midi": 65,
                    "time": 286.7959640000005,
                    "velocity": 0.31496062992125984,
                    "duration": 0.17747274999999263
                },
                {
                    "name": "C#5",
                    "midi": 73,
                    "time": 286.9734367500005,
                    "velocity": 0.29133858267716534,
                    "duration": 0.17747274999999263
                },
                {
                    "name": "G#4",
                    "midi": 68,
                    "time": 287.15090950000047,
                    "velocity": 0.29133858267716534,
                    "duration": 0.17747274999999263
                },
                {
                    "name": "C#5",
                    "midi": 73,
                    "time": 287.32838225000046,
                    "velocity": 0.29133858267716534,
                    "duration": 0.17747274999999263
                },
                {
                    "name": "F5",
                    "midi": 77,
                    "time": 287.50585500000045,
                    "velocity": 0.31496062992125984,
                    "duration": 0.17747274999999263
                },
                {
                    "name": "C#5",
                    "midi": 73,
                    "time": 287.68332775000044,
                    "velocity": 0.29133858267716534,
                    "duration": 0.17747274999999263
                },
                {
                    "name": "G#4",
                    "midi": 68,
                    "time": 287.86080050000044,
                    "velocity": 0.29133858267716534,
                    "duration": 0.17747274999999263
                },
                {
                    "name": "C#5",
                    "midi": 73,
                    "time": 288.03827325000043,
                    "velocity": 0.29133858267716534,
                    "duration": 0.17747274999999263
                },
                {
                    "name": "F4",
                    "midi": 65,
                    "time": 288.2157460000004,
                    "velocity": 0.31496062992125984,
                    "duration": 0.17747274999999263
                },
                {
                    "name": "C#5",
                    "midi": 73,
                    "time": 288.3932187500004,
                    "velocity": 0.29133858267716534,
                    "duration": 0.17747274999999263
                },
                {
                    "name": "G#4",
                    "midi": 68,
                    "time": 288.5706915000004,
                    "velocity": 0.29133858267716534,
                    "duration": 0.17747274999999263
                },
                {
                    "name": "C#5",
                    "midi": 73,
                    "time": 288.7481642500004,
                    "velocity": 0.29133858267716534,
                    "duration": 0.17747274999999263
                },
                {
                    "name": "E4",
                    "midi": 64,
                    "time": 288.9256370000004,
                    "velocity": 0.4094488188976378,
                    "duration": 0.17747274999999263
                },
                {
                    "name": "A#4",
                    "midi": 70,
                    "time": 289.1031097500004,
                    "velocity": 0.36220472440944884,
                    "duration": 0.17747274999999263
                },
                {
                    "name": "G4",
                    "midi": 67,
                    "time": 289.2805825000004,
                    "velocity": 0.36220472440944884,
                    "duration": 0.17747274999999263
                },
                {
                    "name": "A#4",
                    "midi": 70,
                    "time": 289.45805525000037,
                    "velocity": 0.36220472440944884,
                    "duration": 0.17747274999999263
                },
                {
                    "name": "D#4",
                    "midi": 63,
                    "time": 289.63552800000036,
                    "velocity": 0.44881889763779526,
                    "duration": 0.17747274999999263
                },
                {
                    "name": "A4",
                    "midi": 69,
                    "time": 289.81300075000036,
                    "velocity": 0.36220472440944884,
                    "duration": 0.17747274999999263
                },
                {
                    "name": "F#4",
                    "midi": 66,
                    "time": 289.99047350000035,
                    "velocity": 0.36220472440944884,
                    "duration": 0.17747274999999263
                },
                {
                    "name": "A4",
                    "midi": 69,
                    "time": 290.16794625000034,
                    "velocity": 0.36220472440944884,
                    "duration": 0.17747274999999263
                },
                {
                    "name": "D#4",
                    "midi": 63,
                    "time": 290.34541900000033,
                    "velocity": 0.44881889763779526,
                    "duration": 0.17747274999999263
                },
                {
                    "name": "A4",
                    "midi": 69,
                    "time": 290.5228917500003,
                    "velocity": 0.36220472440944884,
                    "duration": 0.17747274999999263
                },
                {
                    "name": "F#4",
                    "midi": 66,
                    "time": 290.7003645000003,
                    "velocity": 0.36220472440944884,
                    "duration": 0.17747274999999263
                },
                {
                    "name": "A4",
                    "midi": 69,
                    "time": 290.8778372500003,
                    "velocity": 0.36220472440944884,
                    "duration": 0.17747274999999263
                },
                {
                    "name": "D#4",
                    "midi": 63,
                    "time": 291.0553100000003,
                    "velocity": 0.4645669291338583,
                    "duration": 0.17747274999999263
                },
                {
                    "name": "G#4",
                    "midi": 68,
                    "time": 291.2327827500003,
                    "velocity": 0.36220472440944884,
                    "duration": 0.17747274999999263
                },
                {
                    "name": "F#4",
                    "midi": 66,
                    "time": 291.4102555000003,
                    "velocity": 0.36220472440944884,
                    "duration": 0.17747274999999263
                },
                {
                    "name": "G#4",
                    "midi": 68,
                    "time": 291.5877282500003,
                    "velocity": 0.36220472440944884,
                    "duration": 0.17747274999999263
                },
                {
                    "name": "D#4",
                    "midi": 63,
                    "time": 291.7652010000003,
                    "velocity": 0.4566929133858268,
                    "duration": 0.17747274999999263
                },
                {
                    "name": "G#4",
                    "midi": 68,
                    "time": 291.94267375000027,
                    "velocity": 0.36220472440944884,
                    "duration": 0.17747274999999263
                },
                {
                    "name": "F#4",
                    "midi": 66,
                    "time": 292.12014650000026,
                    "velocity": 0.36220472440944884,
                    "duration": 0.17747274999999263
                },
                {
                    "name": "G#4",
                    "midi": 68,
                    "time": 292.29761925000025,
                    "velocity": 0.36220472440944884,
                    "duration": 0.17747274999999263
                },
                {
                    "name": "C#4",
                    "midi": 61,
                    "time": 292.47509200000025,
                    "velocity": 0.5354330708661418,
                    "duration": 0.7098910000000274
                },
                {
                    "name": "F4",
                    "midi": 65,
                    "time": 292.47509200000025,
                    "velocity": 0.5354330708661418,
                    "duration": 0.7098910000000274
                },
                {
                    "name": "G#4",
                    "midi": 68,
                    "time": 292.47509200000025,
                    "velocity": 0.6299212598425197,
                    "duration": 0.7098910000000274
                },
                {
                    "name": "C#4",
                    "midi": 61,
                    "time": 296.02454700000027,
                    "velocity": 0.4094488188976378,
                    "duration": 1.4197819999999979
                },
                {
                    "name": "G#4",
                    "midi": 68,
                    "time": 296.02454700000027,
                    "velocity": 0.4881889763779528,
                    "duration": 1.4197819999999979
                },
                {
                    "name": "F4",
                    "midi": 65,
                    "time": 296.02454700000027,
                    "velocity": 0.4094488188976378,
                    "duration": 1.4197819999999979
                },
                {
                    "name": "C#4",
                    "midi": 61,
                    "time": 297.44432900000027,
                    "velocity": 0.41732283464566927,
                    "duration": 1.4197819999999979
                },
                {
                    "name": "A#4",
                    "midi": 70,
                    "time": 297.44432900000027,
                    "velocity": 0.49606299212598426,
                    "duration": 1.4197819999999979
                },
                {
                    "name": "F#4",
                    "midi": 66,
                    "time": 297.44432900000027,
                    "velocity": 0.41732283464566927,
                    "duration": 1.4197819999999979
                },
                {
                    "name": "C#4",
                    "midi": 61,
                    "time": 298.86411100000026,
                    "velocity": 0.4251968503937008,
                    "duration": 1.4197819999999979
                },
                {
                    "name": "G#4",
                    "midi": 68,
                    "time": 298.86411100000026,
                    "velocity": 0.49606299212598426,
                    "duration": 1.4197819999999979
                },
                {
                    "name": "F4",
                    "midi": 65,
                    "time": 298.86411100000026,
                    "velocity": 0.4251968503937008,
                    "duration": 1.4197819999999979
                },
                {
                    "name": "D#4",
                    "midi": 63,
                    "time": 300.28389300000026,
                    "velocity": 0.4566929133858268,
                    "duration": 0.7098910000000274
                },
                {
                    "name": "F#3",
                    "midi": 54,
                    "time": 300.28389300000026,
                    "velocity": 0.4566929133858268,
                    "duration": 0.7098910000000274
                },
                {
                    "name": "C#4",
                    "midi": 61,
                    "time": 300.28389300000026,
                    "velocity": 0.4566929133858268,
                    "duration": 0.7098910000000274
                },
                {
                    "name": "F#4",
                    "midi": 66,
                    "time": 300.28389300000026,
                    "velocity": 0.5590551181102362,
                    "duration": 0.7098910000000274
                },
                {
                    "name": "C#4",
                    "midi": 61,
                    "time": 300.9937840000003,
                    "velocity": 0.4881889763779528,
                    "duration": 0.7098910000000274
                },
                {
                    "name": "G#3",
                    "midi": 56,
                    "time": 300.9937840000003,
                    "velocity": 0.4881889763779528,
                    "duration": 0.7098910000000274
                },
                {
                    "name": "D#4",
                    "midi": 63,
                    "time": 300.9937840000003,
                    "velocity": 0.4881889763779528,
                    "duration": 0.7098910000000274
                },
                {
                    "name": "F#4",
                    "midi": 66,
                    "time": 300.9937840000003,
                    "velocity": 0.5905511811023622,
                    "duration": 0.7098910000000274
                },
                {
                    "name": "C#4",
                    "midi": 61,
                    "time": 301.7036750000003,
                    "velocity": 0.4566929133858268,
                    "duration": 0.7098910000000274
                },
                {
                    "name": "G#3",
                    "midi": 56,
                    "time": 301.7036750000003,
                    "velocity": 0.4566929133858268,
                    "duration": 0.7098910000000274
                },
                {
                    "name": "D#4",
                    "midi": 63,
                    "time": 301.7036750000003,
                    "velocity": 0.4566929133858268,
                    "duration": 0.7098910000000274
                },
                {
                    "name": "F#4",
                    "midi": 66,
                    "time": 301.7036750000003,
                    "velocity": 0.5590551181102362,
                    "duration": 0.7098910000000274
                },
                {
                    "name": "C4",
                    "midi": 60,
                    "time": 302.41356600000034,
                    "velocity": 0.4330708661417323,
                    "duration": 0.7098910000000274
                },
                {
                    "name": "G#3",
                    "midi": 56,
                    "time": 302.41356600000034,
                    "velocity": 0.4251968503937008,
                    "duration": 0.7098910000000274
                },
                {
                    "name": "D#4",
                    "midi": 63,
                    "time": 302.41356600000034,
                    "velocity": 0.47244094488188976,
                    "duration": 0.7098910000000274
                },
                {
                    "name": "F#4",
                    "midi": 66,
                    "time": 302.41356600000034,
                    "velocity": 0.5748031496062992,
                    "duration": 0.7098910000000274
                },
                {
                    "name": "C4",
                    "midi": 60,
                    "time": 303.12345700000037,
                    "velocity": 0.41732283464566927,
                    "duration": 0.7098910000000274
                },
                {
                    "name": "G#3",
                    "midi": 56,
                    "time": 303.12345700000037,
                    "velocity": 0.4094488188976378,
                    "duration": 0.7098910000000274
                },
                {
                    "name": "D#4",
                    "midi": 63,
                    "time": 303.12345700000037,
                    "velocity": 0.44881889763779526,
                    "duration": 0.7098910000000274
                },
                {
                    "name": "F#4",
                    "midi": 66,
                    "time": 303.12345700000037,
                    "velocity": 0.5275590551181102,
                    "duration": 0.7098910000000274
                },
                {
                    "name": "C#4",
                    "midi": 61,
                    "time": 303.8333480000004,
                    "velocity": 0.5118110236220472,
                    "duration": 0.7098910000000274
                },
                {
                    "name": "F4",
                    "midi": 65,
                    "time": 303.8333480000004,
                    "velocity": 0.5984251968503937,
                    "duration": 0.7098910000000274
                },
                {
                    "name": "C#5",
                    "midi": 73,
                    "time": 307.3828030000004,
                    "velocity": 0.4881889763779528,
                    "duration": 1.4197819999999979
                },
                {
                    "name": "G#4",
                    "midi": 68,
                    "time": 307.3828030000004,
                    "velocity": 0.4094488188976378,
                    "duration": 1.4197819999999979
                },
                {
                    "name": "C#5",
                    "midi": 73,
                    "time": 308.8025850000004,
                    "velocity": 0.49606299212598426,
                    "duration": 1.4197819999999979
                },
                {
                    "name": "A#4",
                    "midi": 70,
                    "time": 308.8025850000004,
                    "velocity": 0.41732283464566927,
                    "duration": 1.4197819999999979
                },
                {
                    "name": "C#5",
                    "midi": 73,
                    "time": 310.2223670000004,
                    "velocity": 0.49606299212598426,
                    "duration": 1.4197819999999979
                },
                {
                    "name": "G#4",
                    "midi": 68,
                    "time": 310.2223670000004,
                    "velocity": 0.4251968503937008,
                    "duration": 1.4197819999999979
                },
                {
                    "name": "A4",
                    "midi": 69,
                    "time": 311.6421490000004,
                    "velocity": 0.5590551181102362,
                    "duration": 0.7098910000000274
                },
                {
                    "name": "G#4",
                    "midi": 68,
                    "time": 312.35204000000044,
                    "velocity": 0.5905511811023622,
                    "duration": 0.7098910000000274
                },
                {
                    "name": "G#4",
                    "midi": 68,
                    "time": 313.06193100000047,
                    "velocity": 0.5590551181102362,
                    "duration": 0.7098910000000274
                },
                {
                    "name": "G#3",
                    "midi": 56,
                    "time": 313.7718220000005,
                    "velocity": 0.5984251968503937,
                    "duration": 0.7098910000000274
                },
                {
                    "name": "G#3",
                    "midi": 56,
                    "time": 314.4817130000005,
                    "velocity": 0.5511811023622047,
                    "duration": 0.7098910000000274
                },
                {
                    "name": "G#3",
                    "midi": 56,
                    "time": 315.19160400000055,
                    "velocity": 0.4251968503937008,
                    "duration": 0.17747274999999263
                },
                {
                    "name": "A#3",
                    "midi": 58,
                    "time": 315.36907675000054,
                    "velocity": 0.4330708661417323,
                    "duration": 0.17747274999999263
                },
                {
                    "name": "C4",
                    "midi": 60,
                    "time": 315.54654950000054,
                    "velocity": 0.44881889763779526,
                    "duration": 0.17747274999999263
                },
                {
                    "name": "C#4",
                    "midi": 61,
                    "time": 315.72402225000053,
                    "velocity": 0.4566929133858268,
                    "duration": 0.17747274999999263
                },
                {
                    "name": "C4",
                    "midi": 60,
                    "time": 315.9014950000005,
                    "velocity": 0.4645669291338583,
                    "duration": 0.17747274999999263
                },
                {
                    "name": "C#4",
                    "midi": 61,
                    "time": 316.0789677500005,
                    "velocity": 0.41732283464566927,
                    "duration": 0.17747274999999263
                },
                {
                    "name": "D#4",
                    "midi": 63,
                    "time": 316.2564405000005,
                    "velocity": 0.4409448818897638,
                    "duration": 0.17747274999999263
                },
                {
                    "name": "F4",
                    "midi": 65,
                    "time": 316.4339132500005,
                    "velocity": 0.41732283464566927,
                    "duration": 0.17747274999999263
                },
                {
                    "name": "D#4",
                    "midi": 63,
                    "time": 316.6113860000005,
                    "velocity": 0.3779527559055118,
                    "duration": 0.17747274999999263
                },
                {
                    "name": "F4",
                    "midi": 65,
                    "time": 316.7888587500005,
                    "velocity": 0.3858267716535433,
                    "duration": 0.17747274999999263
                },
                {
                    "name": "F#4",
                    "midi": 66,
                    "time": 316.9663315000005,
                    "velocity": 0.3937007874015748,
                    "duration": 0.17747274999999263
                },
                {
                    "name": "G#4",
                    "midi": 68,
                    "time": 317.14380425000047,
                    "velocity": 0.4015748031496063,
                    "duration": 0.17747274999999263
                },
                {
                    "name": "A#4",
                    "midi": 70,
                    "time": 317.32127700000046,
                    "velocity": 0.4251968503937008,
                    "duration": 0.17747274999999263
                },
                {
                    "name": "C5",
                    "midi": 72,
                    "time": 317.49874975000046,
                    "velocity": 0.36220472440944884,
                    "duration": 0.17747274999999263
                },
                {
                    "name": "C#5",
                    "midi": 73,
                    "time": 317.67622250000045,
                    "velocity": 0.3937007874015748,
                    "duration": 0.17747274999999263
                },
                {
                    "name": "G#4",
                    "midi": 68,
                    "time": 317.85369525000044,
                    "velocity": 0.36220472440944884,
                    "duration": 0.17747274999999263
                },
                {
                    "name": "F#4",
                    "midi": 66,
                    "time": 318.03116800000043,
                    "velocity": 0.31496062992125984,
                    "duration": 0.17747274999999263
                },
                {
                    "name": "D#5",
                    "midi": 75,
                    "time": 318.2086407500004,
                    "velocity": 0.28346456692913385,
                    "duration": 0.17747274999999263
                },
                {
                    "name": "C5",
                    "midi": 72,
                    "time": 318.3861135000004,
                    "velocity": 0.28346456692913385,
                    "duration": 0.17747274999999263
                },
                {
                    "name": "D#5",
                    "midi": 75,
                    "time": 318.5635862500004,
                    "velocity": 0.28346456692913385,
                    "duration": 0.17747274999999263
                },
                {
                    "name": "B4",
                    "midi": 71,
                    "time": 318.7410590000004,
                    "velocity": 0.31496062992125984,
                    "duration": 0.17747274999999263
                },
                {
                    "name": "D#5",
                    "midi": 75,
                    "time": 318.9185317500004,
                    "velocity": 0.28346456692913385,
                    "duration": 0.17747274999999263
                },
                {
                    "name": "C5",
                    "midi": 72,
                    "time": 319.0960045000004,
                    "velocity": 0.28346456692913385,
                    "duration": 0.17747274999999263
                },
                {
                    "name": "D#5",
                    "midi": 75,
                    "time": 319.2734772500004,
                    "velocity": 0.28346456692913385,
                    "duration": 0.17747274999999263
                },
                {
                    "name": "F#5",
                    "midi": 78,
                    "time": 319.4509500000004,
                    "velocity": 0.44881889763779526,
                    "duration": 0.17747274999999263
                },
                {
                    "name": "D#5",
                    "midi": 75,
                    "time": 319.62842275000037,
                    "velocity": 0.2755905511811024,
                    "duration": 0.17747274999999263
                },
                {
                    "name": "C5",
                    "midi": 72,
                    "time": 319.80589550000036,
                    "velocity": 0.29133858267716534,
                    "duration": 0.17747274999999263
                },
                {
                    "name": "D#5",
                    "midi": 75,
                    "time": 319.98336825000035,
                    "velocity": 0.29133858267716534,
                    "duration": 0.17747274999999263
                },
                {
                    "name": "F#4",
                    "midi": 66,
                    "time": 320.16084100000035,
                    "velocity": 0.31496062992125984,
                    "duration": 0.17747274999999263
                },
                {
                    "name": "D#5",
                    "midi": 75,
                    "time": 320.33831375000034,
                    "velocity": 0.29133858267716534,
                    "duration": 0.17747274999999263
                },
                {
                    "name": "C5",
                    "midi": 72,
                    "time": 320.51578650000033,
                    "velocity": 0.29133858267716534,
                    "duration": 0.17747274999999263
                },
                {
                    "name": "D#5",
                    "midi": 75,
                    "time": 320.6932592500003,
                    "velocity": 0.29133858267716534,
                    "duration": 0.17747274999999263
                },
                {
                    "name": "F4",
                    "midi": 65,
                    "time": 320.8707320000003,
                    "velocity": 0.31496062992125984,
                    "duration": 0.17747274999999263
                },
                {
                    "name": "C#5",
                    "midi": 73,
                    "time": 321.0482047500003,
                    "velocity": 0.29133858267716534,
                    "duration": 0.17747274999999263
                },
                {
                    "name": "G#4",
                    "midi": 68,
                    "time": 321.2256775000003,
                    "velocity": 0.29133858267716534,
                    "duration": 0.17747274999999263
                },
                {
                    "name": "C#5",
                    "midi": 73,
                    "time": 321.4031502500003,
                    "velocity": 0.29133858267716534,
                    "duration": 0.17747274999999263
                },
                {
                    "name": "F4",
                    "midi": 65,
                    "time": 321.5806230000003,
                    "velocity": 0.31496062992125984,
                    "duration": 0.17747274999999263
                },
                {
                    "name": "C#5",
                    "midi": 73,
                    "time": 321.7580957500003,
                    "velocity": 0.29133858267716534,
                    "duration": 0.17747274999999263
                },
                {
                    "name": "G#4",
                    "midi": 68,
                    "time": 321.9355685000003,
                    "velocity": 0.29133858267716534,
                    "duration": 0.17747274999999263
                },
                {
                    "name": "C#5",
                    "midi": 73,
                    "time": 322.11304125000026,
                    "velocity": 0.29133858267716534,
                    "duration": 0.17747274999999263
                },
                {
                    "name": "D#4",
                    "midi": 63,
                    "time": 322.29051400000026,
                    "velocity": 0.31496062992125984,
                    "duration": 0.17747274999999263
                },
                {
                    "name": "C5",
                    "midi": 72,
                    "time": 322.46798675000025,
                    "velocity": 0.29133858267716534,
                    "duration": 0.17747274999999263
                },
                {
                    "name": "F#4",
                    "midi": 66,
                    "time": 322.64545950000024,
                    "velocity": 0.29133858267716534,
                    "duration": 0.17747274999999263
                },
                {
                    "name": "C5",
                    "midi": 72,
                    "time": 322.82293225000024,
                    "velocity": 0.29133858267716534,
                    "duration": 0.17747274999999263
                },
                {
                    "name": "C#4",
                    "midi": 61,
                    "time": 323.0004050000002,
                    "velocity": 0.31496062992125984,
                    "duration": 0.17747274999999263
                },
                {
                    "name": "C#5",
                    "midi": 73,
                    "time": 323.1778777500002,
                    "velocity": 0.2992125984251969,
                    "duration": 0.17747274999999263
                },
                {
                    "name": "F4",
                    "midi": 65,
                    "time": 323.3553505000002,
                    "velocity": 0.2992125984251969,
                    "duration": 0.17747274999999263
                },
                {
                    "name": "C#5",
                    "midi": 73,
                    "time": 323.5328232500002,
                    "velocity": 0.2992125984251969,
                    "duration": 0.17747274999999263
                },
                {
                    "name": "F#4",
                    "midi": 66,
                    "time": 323.7102960000002,
                    "velocity": 0.31496062992125984,
                    "duration": 0.17747274999999263
                },
                {
                    "name": "D#5",
                    "midi": 75,
                    "time": 323.8877687500002,
                    "velocity": 0.28346456692913385,
                    "duration": 0.17747274999999263
                },
                {
                    "name": "C5",
                    "midi": 72,
                    "time": 324.0652415000002,
                    "velocity": 0.28346456692913385,
                    "duration": 0.17747274999999263
                },
                {
                    "name": "D#5",
                    "midi": 75,
                    "time": 324.2427142500002,
                    "velocity": 0.28346456692913385,
                    "duration": 0.17747274999999263
                },
                {
                    "name": "B4",
                    "midi": 71,
                    "time": 324.42018700000017,
                    "velocity": 0.31496062992125984,
                    "duration": 0.17747274999999263
                },
                {
                    "name": "D#5",
                    "midi": 75,
                    "time": 324.59765975000016,
                    "velocity": 0.28346456692913385,
                    "duration": 0.17747274999999263
                },
                {
                    "name": "C5",
                    "midi": 72,
                    "time": 324.77513250000015,
                    "velocity": 0.28346456692913385,
                    "duration": 0.17747274999999263
                },
                {
                    "name": "D#5",
                    "midi": 75,
                    "time": 324.95260525000015,
                    "velocity": 0.28346456692913385,
                    "duration": 0.17747274999999263
                },
                {
                    "name": "F#5",
                    "midi": 78,
                    "time": 325.13007800000014,
                    "velocity": 0.4566929133858268,
                    "duration": 0.17747274999999263
                },
                {
                    "name": "D#5",
                    "midi": 75,
                    "time": 325.30755075000013,
                    "velocity": 0.2755905511811024,
                    "duration": 0.17747274999999263
                },
                {
                    "name": "C5",
                    "midi": 72,
                    "time": 325.4850235000001,
                    "velocity": 0.29133858267716534,
                    "duration": 0.17747274999999263
                },
                {
                    "name": "D#5",
                    "midi": 75,
                    "time": 325.6624962500001,
                    "velocity": 0.29133858267716534,
                    "duration": 0.17747274999999263
                },
                {
                    "name": "F#4",
                    "midi": 66,
                    "time": 325.8399690000001,
                    "velocity": 0.31496062992125984,
                    "duration": 0.17747274999999263
                },
                {
                    "name": "D#5",
                    "midi": 75,
                    "time": 326.0174417500001,
                    "velocity": 0.29133858267716534,
                    "duration": 0.17747274999999263
                },
                {
                    "name": "C5",
                    "midi": 72,
                    "time": 326.1949145000001,
                    "velocity": 0.29133858267716534,
                    "duration": 0.17747274999999263
                },
                {
                    "name": "D#5",
                    "midi": 75,
                    "time": 326.3723872500001,
                    "velocity": 0.29133858267716534,
                    "duration": 0.17747274999999263
                },
                {
                    "name": "F4",
                    "midi": 65,
                    "time": 326.5498600000001,
                    "velocity": 0.31496062992125984,
                    "duration": 0.17747274999999263
                },
                {
                    "name": "F5",
                    "midi": 77,
                    "time": 326.7273327500001,
                    "velocity": 0.29133858267716534,
                    "duration": 0.17747274999999263
                },
                {
                    "name": "C#5",
                    "midi": 73,
                    "time": 326.90480550000007,
                    "velocity": 0.29133858267716534,
                    "duration": 0.17747274999999263
                },
                {
                    "name": "F5",
                    "midi": 77,
                    "time": 327.08227825000006,
                    "velocity": 0.29133858267716534,
                    "duration": 0.17747274999999263
                },
                {
                    "name": "G#4",
                    "midi": 68,
                    "time": 327.25975100000005,
                    "velocity": 0.31496062992125984,
                    "duration": 0.17747274999999263
                },
                {
                    "name": "F5",
                    "midi": 77,
                    "time": 327.43722375000004,
                    "velocity": 0.29133858267716534,
                    "duration": 0.17747274999999263
                },
                {
                    "name": "C#5",
                    "midi": 73,
                    "time": 327.61469650000004,
                    "velocity": 0.29133858267716534,
                    "duration": 0.17747274999999263
                },
                {
                    "name": "F5",
                    "midi": 77,
                    "time": 327.79216925000003,
                    "velocity": 0.29133858267716534,
                    "duration": 0.17747274999999263
                },
                {
                    "name": "F#4",
                    "midi": 66,
                    "time": 327.969642,
                    "velocity": 0.31496062992125984,
                    "duration": 0.17747274999999263
                },
                {
                    "name": "D#5",
                    "midi": 75,
                    "time": 328.14711475,
                    "velocity": 0.29133858267716534,
                    "duration": 0.17747274999999263
                },
                {
                    "name": "C5",
                    "midi": 72,
                    "time": 328.3245875,
                    "velocity": 0.29133858267716534,
                    "duration": 0.17747274999999263
                },
                {
                    "name": "D#5",
                    "midi": 75,
                    "time": 328.50206025,
                    "velocity": 0.29133858267716534,
                    "duration": 0.17747274999999263
                },
                {
                    "name": "F4",
                    "midi": 65,
                    "time": 328.679533,
                    "velocity": 0.31496062992125984,
                    "duration": 0.17747274999999263
                },
                {
                    "name": "C#5",
                    "midi": 73,
                    "time": 328.85700575,
                    "velocity": 0.2992125984251969,
                    "duration": 0.17747274999999263
                },
                {
                    "name": "G#4",
                    "midi": 68,
                    "time": 329.0344785,
                    "velocity": 0.2992125984251969,
                    "duration": 0.17747274999999263
                },
                {
                    "name": "C#5",
                    "midi": 73,
                    "time": 329.21195124999997,
                    "velocity": 0.2992125984251969,
                    "duration": 0.17747274999999263
                },
                {
                    "name": "C5",
                    "midi": 72,
                    "time": 329.38942399999996,
                    "velocity": 0.3779527559055118,
                    "duration": 0.17747274999999263
                },
                {
                    "name": "F#5",
                    "midi": 78,
                    "time": 329.56689674999996,
                    "velocity": 0.3700787401574803,
                    "duration": 0.17747274999999263
                },
                {
                    "name": "D#5",
                    "midi": 75,
                    "time": 329.74436949999995,
                    "velocity": 0.3700787401574803,
                    "duration": 0.17747274999999263
                },
                {
                    "name": "F#5",
                    "midi": 78,
                    "time": 329.92184224999994,
                    "velocity": 0.3700787401574803,
                    "duration": 0.17747274999999263
                },
                {
                    "name": "G#5",
                    "midi": 80,
                    "time": 330.09931499999993,
                    "velocity": 0.41732283464566927,
                    "duration": 0.17747274999999263
                },
                {
                    "name": "F#5",
                    "midi": 78,
                    "time": 330.2767877499999,
                    "velocity": 0.3779527559055118,
                    "duration": 0.17747274999999263
                },
                {
                    "name": "D#5",
                    "midi": 75,
                    "time": 330.4542604999999,
                    "velocity": 0.3779527559055118,
                    "duration": 0.17747274999999263
                },
                {
                    "name": "F#5",
                    "midi": 78,
                    "time": 330.6317332499999,
                    "velocity": 0.3779527559055118,
                    "duration": 0.17747274999999263
                },
                {
                    "name": "G#5",
                    "midi": 80,
                    "time": 330.8092059999999,
                    "velocity": 0.4330708661417323,
                    "duration": 0.17747274999999263
                },
                {
                    "name": "F#5",
                    "midi": 78,
                    "time": 330.9866787499999,
                    "velocity": 0.3779527559055118,
                    "duration": 0.17747274999999263
                },
                {
                    "name": "D#5",
                    "midi": 75,
                    "time": 331.1641514999999,
                    "velocity": 0.3937007874015748,
                    "duration": 0.17747274999999263
                },
                {
                    "name": "F#5",
                    "midi": 78,
                    "time": 331.3416242499999,
                    "velocity": 0.3937007874015748,
                    "duration": 0.17747274999999263
                },
                {
                    "name": "G#5",
                    "midi": 80,
                    "time": 331.5190969999999,
                    "velocity": 0.4409448818897638,
                    "duration": 0.17747274999999263
                },
                {
                    "name": "F#5",
                    "midi": 78,
                    "time": 331.69656974999987,
                    "velocity": 0.4094488188976378,
                    "duration": 0.17747274999999263
                },
                {
                    "name": "D#5",
                    "midi": 75,
                    "time": 331.87404249999986,
                    "velocity": 0.4094488188976378,
                    "duration": 0.17747274999999263
                },
                {
                    "name": "F#5",
                    "midi": 78,
                    "time": 332.05151524999985,
                    "velocity": 0.41732283464566927,
                    "duration": 0.17747274999999263
                },
                {
                    "name": "F5",
                    "midi": 77,
                    "time": 332.22898799999984,
                    "velocity": 0.44881889763779526,
                    "duration": 0.17747274999999263
                },
                {
                    "name": "G#5",
                    "midi": 80,
                    "time": 332.40646074999984,
                    "velocity": 0.4094488188976378,
                    "duration": 0.17747274999999263
                },
                {
                    "name": "F5",
                    "midi": 77,
                    "time": 332.58393349999983,
                    "velocity": 0.41732283464566927,
                    "duration": 0.17747274999999263
                },
                {
                    "name": "G#5",
                    "midi": 80,
                    "time": 332.7614062499998,
                    "velocity": 0.41732283464566927,
                    "duration": 0.17747274999999263
                },
                {
                    "name": "C#6",
                    "midi": 85,
                    "time": 332.9388789999998,
                    "velocity": 0.47244094488188976,
                    "duration": 0.17747274999999263
                },
                {
                    "name": "G#5",
                    "midi": 80,
                    "time": 333.1163517499998,
                    "velocity": 0.41732283464566927,
                    "duration": 0.17747274999999263
                },
                {
                    "name": "C#6",
                    "midi": 85,
                    "time": 333.2938244999998,
                    "velocity": 0.4330708661417323,
                    "duration": 0.17747274999999263
                },
                {
                    "name": "G#5",
                    "midi": 80,
                    "time": 333.4712972499998,
                    "velocity": 0.4330708661417323,
                    "duration": 0.17747274999999263
                },
                {
                    "name": "C6",
                    "midi": 84,
                    "time": 333.6487699999998,
                    "velocity": 0.48031496062992124,
                    "duration": 0.17747274999999263
                },
                {
                    "name": "F#5",
                    "midi": 78,
                    "time": 333.8262427499998,
                    "velocity": 0.41732283464566927,
                    "duration": 0.17747274999999263
                },
                {
                    "name": "C6",
                    "midi": 84,
                    "time": 334.00371549999977,
                    "velocity": 0.44881889763779526,
                    "duration": 0.17747274999999263
                },
                {
                    "name": "F#5",
                    "midi": 78,
                    "time": 334.18118824999976,
                    "velocity": 0.44881889763779526,
                    "duration": 0.17747274999999263
                },
                {
                    "name": "F5",
                    "midi": 77,
                    "time": 334.35866099999976,
                    "velocity": 0.5275590551181102,
                    "duration": 0.17747274999999263
                },
                {
                    "name": "G#5",
                    "midi": 80,
                    "time": 334.53613374999975,
                    "velocity": 0.4881889763779528,
                    "duration": 0.17747274999999263
                },
                {
                    "name": "F5",
                    "midi": 77,
                    "time": 334.71360649999974,
                    "velocity": 0.4881889763779528,
                    "duration": 0.17747274999999263
                },
                {
                    "name": "G#5",
                    "midi": 80,
                    "time": 334.89107924999973,
                    "velocity": 0.4881889763779528,
                    "duration": 0.17747274999999263
                },
                {
                    "name": "A#5",
                    "midi": 82,
                    "time": 335.0685519999997,
                    "velocity": 0.6377952755905512,
                    "duration": 0.17747274999999263
                },
                {
                    "name": "F#5",
                    "midi": 78,
                    "time": 335.2460247499997,
                    "velocity": 0.5433070866141733,
                    "duration": 0.17747274999999263
                },
                {
                    "name": "A#5",
                    "midi": 82,
                    "time": 335.4234974999997,
                    "velocity": 0.5826771653543307,
                    "duration": 0.17747274999999263
                },
                {
                    "name": "G#5",
                    "midi": 80,
                    "time": 335.6009702499997,
                    "velocity": 0.48031496062992124,
                    "duration": 0.17747274999999263
                },
                {
                    "name": "F#5",
                    "midi": 78,
                    "time": 335.7784429999997,
                    "velocity": 0.5354330708661418,
                    "duration": 0.17747274999999263
                },
                {
                    "name": "F5",
                    "midi": 77,
                    "time": 335.9559157499997,
                    "velocity": 0.47244094488188976,
                    "duration": 0.17747274999999263
                },
                {
                    "name": "D#5",
                    "midi": 75,
                    "time": 336.1333884999997,
                    "velocity": 0.49606299212598426,
                    "duration": 0.17747274999999263
                },
                {
                    "name": "C#5",
                    "midi": 73,
                    "time": 336.3108612499997,
                    "velocity": 0.48031496062992124,
                    "duration": 0.17747274999999263
                },
                {
                    "name": "C5",
                    "midi": 72,
                    "time": 336.48833399999967,
                    "velocity": 0.47244094488188976,
                    "duration": 0.17747274999999263
                },
                {
                    "name": "A#4",
                    "midi": 70,
                    "time": 336.66580674999966,
                    "velocity": 0.4645669291338583,
                    "duration": 0.17747274999999263
                },
                {
                    "name": "G#4",
                    "midi": 68,
                    "time": 336.84327949999965,
                    "velocity": 0.44881889763779526,
                    "duration": 0.17747274999999263
                },
                {
                    "name": "F#4",
                    "midi": 66,
                    "time": 337.02075224999965,
                    "velocity": 0.4409448818897638,
                    "duration": 0.17747274999999263
                },
                {
                    "name": "F4",
                    "midi": 65,
                    "time": 337.19822499999964,
                    "velocity": 0.4330708661417323,
                    "duration": 0.17747274999999263
                },
                {
                    "name": "D#4",
                    "midi": 63,
                    "time": 337.37569774999963,
                    "velocity": 0.4094488188976378,
                    "duration": 0.17747274999999263
                },
                {
                    "name": "C#4",
                    "midi": 61,
                    "time": 337.5531704999996,
                    "velocity": 0.4015748031496063,
                    "duration": 0.17747274999999263
                },
                {
                    "name": "C4",
                    "midi": 60,
                    "time": 337.7306432499996,
                    "velocity": 0.3858267716535433,
                    "duration": 0.17747274999999263
                },
                {
                    "name": "C#4",
                    "midi": 61,
                    "time": 337.9081159999996,
                    "velocity": 0.4330708661417323,
                    "duration": 0.7098910000000274
                },
                {
                    "name": "F#3",
                    "midi": 54,
                    "time": 341.45757099999963,
                    "velocity": 0.5196850393700787,
                    "duration": 1.4197819999999979
                },
                {
                    "name": "F#4",
                    "midi": 66,
                    "time": 342.87735299999963,
                    "velocity": 0.4330708661417323,
                    "duration": 1.4197819999999979
                },
                {
                    "name": "G#4",
                    "midi": 68,
                    "time": 342.87735299999963,
                    "velocity": 0.4330708661417323,
                    "duration": 1.4197819999999979
                },
                {
                    "name": "D#5",
                    "midi": 75,
                    "time": 342.87735299999963,
                    "velocity": 0.5196850393700787,
                    "duration": 1.4197819999999979
                },
                {
                    "name": "F4",
                    "midi": 65,
                    "time": 344.2971349999996,
                    "velocity": 0.3858267716535433,
                    "duration": 0.35494549999998526
                },
                {
                    "name": "G#4",
                    "midi": 68,
                    "time": 344.2971349999996,
                    "velocity": 0.3858267716535433,
                    "duration": 0.35494549999998526
                },
                {
                    "name": "C#5",
                    "midi": 73,
                    "time": 344.2971349999996,
                    "velocity": 0.4566929133858268,
                    "duration": 0.35494549999998526
                },
                {
                    "name": "D#4",
                    "midi": 63,
                    "time": 345.0070259999996,
                    "velocity": 0.36220472440944884,
                    "duration": 0.35494549999998526
                },
                {
                    "name": "G#4",
                    "midi": 68,
                    "time": 345.0070259999996,
                    "velocity": 0.36220472440944884,
                    "duration": 0.35494549999998526
                },
                {
                    "name": "C5",
                    "midi": 72,
                    "time": 345.0070259999996,
                    "velocity": 0.4409448818897638,
                    "duration": 0.35494549999998526
                },
                {
                    "name": "C#4",
                    "midi": 61,
                    "time": 345.71691699999957,
                    "velocity": 0.33070866141732286,
                    "duration": 0.35494549999998526
                },
                {
                    "name": "G#4",
                    "midi": 68,
                    "time": 345.71691699999957,
                    "velocity": 0.33070866141732286,
                    "duration": 0.35494549999998526
                },
                {
                    "name": "C#5",
                    "midi": 73,
                    "time": 345.71691699999957,
                    "velocity": 0.3937007874015748,
                    "duration": 0.35494549999998526
                },
                {
                    "name": "F#3",
                    "midi": 54,
                    "time": 347.13669899999957,
                    "velocity": 0.5196850393700787,
                    "duration": 1.4197819999999979
                },
                {
                    "name": "C5",
                    "midi": 72,
                    "time": 348.55648099999956,
                    "velocity": 0.4330708661417323,
                    "duration": 1.4197819999999979
                },
                {
                    "name": "D#5",
                    "midi": 75,
                    "time": 348.55648099999956,
                    "velocity": 0.4330708661417323,
                    "duration": 1.4197819999999979
                },
                {
                    "name": "F#5",
                    "midi": 78,
                    "time": 348.55648099999956,
                    "velocity": 0.5196850393700787,
                    "duration": 1.4197819999999979
                },
                {
                    "name": "G#4",
                    "midi": 68,
                    "time": 349.97626299999956,
                    "velocity": 0.33070866141732286,
                    "duration": 0.35494549999998526
                },
                {
                    "name": "C#5",
                    "midi": 73,
                    "time": 349.97626299999956,
                    "velocity": 0.33070866141732286,
                    "duration": 0.35494549999998526
                },
                {
                    "name": "F5",
                    "midi": 77,
                    "time": 349.97626299999956,
                    "velocity": 0.48031496062992124,
                    "duration": 0.35494549999998526
                },
                {
                    "name": "F#4",
                    "midi": 66,
                    "time": 350.68615399999953,
                    "velocity": 0.3779527559055118,
                    "duration": 0.35494549999998526
                },
                {
                    "name": "C5",
                    "midi": 72,
                    "time": 350.68615399999953,
                    "velocity": 0.3779527559055118,
                    "duration": 0.35494549999998526
                },
                {
                    "name": "D#5",
                    "midi": 75,
                    "time": 350.68615399999953,
                    "velocity": 0.4566929133858268,
                    "duration": 0.35494549999998526
                },
                {
                    "name": "F4",
                    "midi": 65,
                    "time": 351.3960449999995,
                    "velocity": 0.3543307086614173,
                    "duration": 0.35494549999998526
                },
                {
                    "name": "G#4",
                    "midi": 68,
                    "time": 351.3960449999995,
                    "velocity": 0.3543307086614173,
                    "duration": 0.35494549999998526
                },
                {
                    "name": "C#5",
                    "midi": 73,
                    "time": 351.3960449999995,
                    "velocity": 0.41732283464566927,
                    "duration": 0.35494549999998526
                },
                {
                    "name": "F#4",
                    "midi": 66,
                    "time": 352.8158269999995,
                    "velocity": 0.5826771653543307,
                    "duration": 1.4197819999999979
                },
                {
                    "name": "C5",
                    "midi": 72,
                    "time": 352.8158269999995,
                    "velocity": 0.5826771653543307,
                    "duration": 1.4197819999999979
                },
                {
                    "name": "D#5",
                    "midi": 75,
                    "time": 352.8158269999995,
                    "velocity": 0.5826771653543307,
                    "duration": 1.4197819999999979
                },
                {
                    "name": "D#5",
                    "midi": 75,
                    "time": 354.2356089999995,
                    "velocity": 0.5354330708661418,
                    "duration": 1.4197819999999979
                },
                {
                    "name": "F#5",
                    "midi": 78,
                    "time": 354.2356089999995,
                    "velocity": 0.5354330708661418,
                    "duration": 1.4197819999999979
                },
                {
                    "name": "G#5",
                    "midi": 80,
                    "time": 354.2356089999995,
                    "velocity": 0.6377952755905512,
                    "duration": 1.4197819999999979
                },
                {
                    "name": "C#5",
                    "midi": 73,
                    "time": 355.6553909999995,
                    "velocity": 0.4094488188976378,
                    "duration": 0.35494549999998526
                },
                {
                    "name": "F5",
                    "midi": 77,
                    "time": 355.6553909999995,
                    "velocity": 0.4094488188976378,
                    "duration": 0.35494549999998526
                },
                {
                    "name": "G#5",
                    "midi": 80,
                    "time": 355.6553909999995,
                    "velocity": 0.5905511811023622,
                    "duration": 0.35494549999998526
                },
                {
                    "name": "C5",
                    "midi": 72,
                    "time": 356.36528199999947,
                    "velocity": 0.48031496062992124,
                    "duration": 0.35494549999998526
                },
                {
                    "name": "F#4",
                    "midi": 66,
                    "time": 356.36528199999947,
                    "velocity": 0.48031496062992124,
                    "duration": 0.35494549999998526
                },
                {
                    "name": "D#5",
                    "midi": 75,
                    "time": 356.36528199999947,
                    "velocity": 0.48031496062992124,
                    "duration": 0.35494549999998526
                },
                {
                    "name": "F#5",
                    "midi": 78,
                    "time": 356.36528199999947,
                    "velocity": 0.5826771653543307,
                    "duration": 0.35494549999998526
                },
                {
                    "name": "G#4",
                    "midi": 68,
                    "time": 357.07517299999944,
                    "velocity": 0.47244094488188976,
                    "duration": 0.35494549999998526
                },
                {
                    "name": "F4",
                    "midi": 65,
                    "time": 357.07517299999944,
                    "velocity": 0.47244094488188976,
                    "duration": 0.35494549999998526
                },
                {
                    "name": "C#5",
                    "midi": 73,
                    "time": 357.07517299999944,
                    "velocity": 0.47244094488188976,
                    "duration": 0.35494549999998526
                },
                {
                    "name": "F5",
                    "midi": 77,
                    "time": 357.07517299999944,
                    "velocity": 0.5669291338582677,
                    "duration": 0.35494549999998526
                },
                {
                    "name": "D#4",
                    "midi": 63,
                    "time": 358.49495499999944,
                    "velocity": 0.5354330708661418,
                    "duration": 0.35494549999998526
                },
                {
                    "name": "F#4",
                    "midi": 66,
                    "time": 358.49495499999944,
                    "velocity": 0.5354330708661418,
                    "duration": 0.35494549999998526
                },
                {
                    "name": "A#4",
                    "midi": 70,
                    "time": 358.49495499999944,
                    "velocity": 0.5354330708661418,
                    "duration": 0.35494549999998526
                },
                {
                    "name": "C#5",
                    "midi": 73,
                    "time": 358.49495499999944,
                    "velocity": 0.6377952755905512,
                    "duration": 0.35494549999998526
                },
                {
                    "name": "G#3",
                    "midi": 56,
                    "time": 359.91473699999943,
                    "velocity": 0.5433070866141733,
                    "duration": 0.35494549999998526
                },
                {
                    "name": "C4",
                    "midi": 60,
                    "time": 359.91473699999943,
                    "velocity": 0.5433070866141733,
                    "duration": 0.35494549999998526
                },
                {
                    "name": "D#4",
                    "midi": 63,
                    "time": 359.91473699999943,
                    "velocity": 0.5433070866141733,
                    "duration": 0.35494549999998526
                },
                {
                    "name": "F#4",
                    "midi": 66,
                    "time": 359.91473699999943,
                    "velocity": 0.6456692913385826,
                    "duration": 0.35494549999998526
                },
                {
                    "name": "A#3",
                    "midi": 58,
                    "time": 362.0444099999994,
                    "velocity": 0.4251968503937008,
                    "duration": 0.17747274999999263
                },
                {
                    "name": "G#3",
                    "midi": 56,
                    "time": 362.2218827499994,
                    "velocity": 0.41732283464566927,
                    "duration": 0.17747274999999263
                },
                {
                    "name": "F#3",
                    "midi": 54,
                    "time": 362.3993554999994,
                    "velocity": 0.4015748031496063,
                    "duration": 0.17747274999999263
                },
                {
                    "name": "F3",
                    "midi": 53,
                    "time": 362.5768282499994,
                    "velocity": 0.3937007874015748,
                    "duration": 0.17747274999999263
                },
                {
                    "name": "D#3",
                    "midi": 51,
                    "time": 362.7543009999994,
                    "velocity": 0.3779527559055118,
                    "duration": 0.17747274999999263
                },
                {
                    "name": "C#3",
                    "midi": 49,
                    "time": 362.93177374999937,
                    "velocity": 0.3700787401574803,
                    "duration": 0.17747274999999263
                },
                {
                    "name": "G#2",
                    "midi": 44,
                    "time": 363.10924649999936,
                    "velocity": 0.3543307086614173,
                    "duration": 0.17747274999999263
                },
                {
                    "name": "F2",
                    "midi": 41,
                    "time": 363.28671924999935,
                    "velocity": 0.3464566929133858,
                    "duration": 0.17747274999999263
                },
                {
                    "name": "C#2",
                    "midi": 37,
                    "time": 363.46419199999934,
                    "velocity": 0.3700787401574803,
                    "duration": 1.4197819999999979
                },
                {
                    "name": "F#1",
                    "midi": 30,
                    "time": 364.88397399999934,
                    "velocity": 0.2755905511811024,
                    "duration": 1.4197819999999979
                },
                {
                    "name": "C#2",
                    "midi": 37,
                    "time": 366.30375599999934,
                    "velocity": 0.29133858267716534,
                    "duration": 2.1296730000000252
                },
                {
                    "name": "F#3",
                    "midi": 54,
                    "time": 368.43342899999936,
                    "velocity": 0.2755905511811024,
                    "duration": 0.7098910000000274
                },
                {
                    "name": "G#3",
                    "midi": 56,
                    "time": 369.1433199999994,
                    "velocity": 0.31496062992125984,
                    "duration": 1.7747274999999831
                },
                {
                    "name": "F#3",
                    "midi": 54,
                    "time": 370.9180474999994,
                    "velocity": 0.2992125984251969,
                    "duration": 0.35494549999998526
                },
                {
                    "name": "F3",
                    "midi": 53,
                    "time": 371.27299299999936,
                    "velocity": 0.2992125984251969,
                    "duration": 0.35494549999998526
                },
                {
                    "name": "D#3",
                    "midi": 51,
                    "time": 371.62793849999935,
                    "velocity": 0.2992125984251969,
                    "duration": 0.35494549999998526
                },
                {
                    "name": "C#3",
                    "midi": 49,
                    "time": 371.98288399999933,
                    "velocity": 0.31496062992125984,
                    "duration": 0.35494549999998526
                },
                {
                    "name": "A#2",
                    "midi": 46,
                    "time": 372.3378294999993,
                    "velocity": 0.29133858267716534,
                    "duration": 0.35494549999998526
                },
                {
                    "name": "G#2",
                    "midi": 44,
                    "time": 372.6927749999993,
                    "velocity": 0.29133858267716534,
                    "duration": 0.35494549999998526
                },
                {
                    "name": "F#2",
                    "midi": 42,
                    "time": 373.0477204999993,
                    "velocity": 0.29133858267716534,
                    "duration": 0.35494549999998526
                },
                {
                    "name": "F2",
                    "midi": 41,
                    "time": 373.4026659999993,
                    "velocity": 0.31496062992125984,
                    "duration": 0.35494549999998526
                },
                {
                    "name": "G#2",
                    "midi": 44,
                    "time": 373.75761149999926,
                    "velocity": 0.2992125984251969,
                    "duration": 0.35494549999998526
                },
                {
                    "name": "F#2",
                    "midi": 42,
                    "time": 374.11255699999924,
                    "velocity": 0.2992125984251969,
                    "duration": 0.35494549999998526
                },
                {
                    "name": "D#2",
                    "midi": 39,
                    "time": 374.4675024999992,
                    "velocity": 0.2992125984251969,
                    "duration": 0.35494549999998526
                },
                {
                    "name": "C#2",
                    "midi": 37,
                    "time": 374.8224479999992,
                    "velocity": 0.30708661417322836,
                    "duration": 1.4197819999999979
                },
                {
                    "name": "C#3",
                    "midi": 49,
                    "time": 374.8224479999992,
                    "velocity": 0.36220472440944884,
                    "duration": 1.4197819999999979
                },
                {
                    "name": "F#1",
                    "midi": 30,
                    "time": 376.2422299999992,
                    "velocity": 0.31496062992125984,
                    "duration": 1.4197819999999979
                },
                {
                    "name": "F#2",
                    "midi": 42,
                    "time": 376.2422299999992,
                    "velocity": 0.3779527559055118,
                    "duration": 1.4197819999999979
                },
                {
                    "name": "C#2",
                    "midi": 37,
                    "time": 377.6620119999992,
                    "velocity": 0.2125984251968504,
                    "duration": 2.1296730000000252
                },
                {
                    "name": "C#3",
                    "midi": 49,
                    "time": 377.6620119999992,
                    "velocity": 0.25196850393700787,
                    "duration": 2.1296730000000252
                },
                {
                    "name": "A3",
                    "midi": 57,
                    "time": 379.79168499999923,
                    "velocity": 0.28346456692913385,
                    "duration": 0.7098910000000274
                },
                {
                    "name": "G#3",
                    "midi": 56,
                    "time": 380.50157599999926,
                    "velocity": 0.29133858267716534,
                    "duration": 1.7747274999999831
                },
                {
                    "name": "F#3",
                    "midi": 54,
                    "time": 382.27630349999924,
                    "velocity": 0.29133858267716534,
                    "duration": 0.35494549999998526
                },
                {
                    "name": "D#3",
                    "midi": 51,
                    "time": 382.63124899999923,
                    "velocity": 0.29133858267716534,
                    "duration": 0.35494549999998526
                },
                {
                    "name": "C3",
                    "midi": 48,
                    "time": 382.9861944999992,
                    "velocity": 0.29133858267716534,
                    "duration": 0.35494549999998526
                },
                {
                    "name": "G#2",
                    "midi": 44,
                    "time": 383.3411399999992,
                    "velocity": 0.31496062992125984,
                    "duration": 0.35494549999998526
                },
                {
                    "name": "F2",
                    "midi": 41,
                    "time": 383.6960854999992,
                    "velocity": 0.29133858267716534,
                    "duration": 0.35494549999998526
                },
                {
                    "name": "D#2",
                    "midi": 39,
                    "time": 384.05103099999917,
                    "velocity": 0.29133858267716534,
                    "duration": 0.35494549999998526
                },
                {
                    "name": "C#2",
                    "midi": 37,
                    "time": 384.40597649999916,
                    "velocity": 0.29133858267716534,
                    "duration": 0.35494549999998526
                },
                {
                    "name": "C2",
                    "midi": 36,
                    "time": 384.76092199999914,
                    "velocity": 0.31496062992125984,
                    "duration": 0.35494549999998526
                },
                {
                    "name": "C#2",
                    "midi": 37,
                    "time": 385.1158674999991,
                    "velocity": 0.29133858267716534,
                    "duration": 0.35494549999998526
                },
                {
                    "name": "F2",
                    "midi": 41,
                    "time": 385.4708129999991,
                    "velocity": 0.29133858267716534,
                    "duration": 0.35494549999998526
                },
                {
                    "name": "C#2",
                    "midi": 37,
                    "time": 385.8257584999991,
                    "velocity": 0.29133858267716534,
                    "duration": 0.35494549999998526
                },
                {
                    "name": "F#2",
                    "midi": 42,
                    "time": 386.1807039999991,
                    "velocity": 0.31496062992125984,
                    "duration": 1.4197819999999979
                },
                {
                    "name": "G#2",
                    "midi": 44,
                    "time": 386.1807039999991,
                    "velocity": 0.31496062992125984,
                    "duration": 1.4197819999999979
                },
                {
                    "name": "D#2",
                    "midi": 39,
                    "time": 387.6004859999991,
                    "velocity": 0.2755905511811024,
                    "duration": 1.2423092500000052
                },
                {
                    "name": "G#2",
                    "midi": 44,
                    "time": 387.6004859999991,
                    "velocity": 0.2755905511811024,
                    "duration": 1.2423092500000052
                },
                {
                    "name": "F#2",
                    "midi": 42,
                    "time": 388.8427952499991,
                    "velocity": 0.2755905511811024,
                    "duration": 0.17747274999999263
                },
                {
                    "name": "G#2",
                    "midi": 44,
                    "time": 388.8427952499991,
                    "velocity": 0.2755905511811024,
                    "duration": 0.17747274999999263
                },
                {
                    "name": "F2",
                    "midi": 41,
                    "time": 389.0202679999991,
                    "velocity": 0.25984251968503935,
                    "duration": 1.0648365000000126
                },
                {
                    "name": "G#2",
                    "midi": 44,
                    "time": 389.0202679999991,
                    "velocity": 0.30708661417322836,
                    "duration": 1.0648365000000126
                },
                {
                    "name": "C#4",
                    "midi": 61,
                    "time": 390.0851044999991,
                    "velocity": 0.36220472440944884,
                    "duration": 0.35494549999998526
                },
                {
                    "name": "D#4",
                    "midi": 63,
                    "time": 390.4400499999991,
                    "velocity": 0.3464566929133858,
                    "duration": 0.7098910000000274
                },
                {
                    "name": "C#4",
                    "midi": 61,
                    "time": 391.1499409999991,
                    "velocity": 0.2677165354330709,
                    "duration": 0.7098910000000274
                },
                {
                    "name": "F#2",
                    "midi": 42,
                    "time": 391.85983199999913,
                    "velocity": 0.31496062992125984,
                    "duration": 1.4197819999999979
                },
                {
                    "name": "G#2",
                    "midi": 44,
                    "time": 391.85983199999913,
                    "velocity": 0.31496062992125984,
                    "duration": 1.4197819999999979
                },
                {
                    "name": "D#2",
                    "midi": 39,
                    "time": 393.2796139999991,
                    "velocity": 0.2755905511811024,
                    "duration": 1.2423092500000052
                },
                {
                    "name": "G#2",
                    "midi": 44,
                    "time": 393.2796139999991,
                    "velocity": 0.2755905511811024,
                    "duration": 1.2423092500000052
                },
                {
                    "name": "F#2",
                    "midi": 42,
                    "time": 394.52192324999913,
                    "velocity": 0.2755905511811024,
                    "duration": 0.17747274999999263
                },
                {
                    "name": "G#2",
                    "midi": 44,
                    "time": 394.52192324999913,
                    "velocity": 0.2755905511811024,
                    "duration": 0.17747274999999263
                },
                {
                    "name": "F2",
                    "midi": 41,
                    "time": 394.6993959999991,
                    "velocity": 0.25984251968503935,
                    "duration": 1.0648365000000126
                },
                {
                    "name": "G#2",
                    "midi": 44,
                    "time": 394.6993959999991,
                    "velocity": 0.30708661417322836,
                    "duration": 1.0648365000000126
                },
                {
                    "name": "C#4",
                    "midi": 61,
                    "time": 395.76423249999914,
                    "velocity": 0.36220472440944884,
                    "duration": 0.35494549999998526
                },
                {
                    "name": "C4",
                    "midi": 60,
                    "time": 396.1191779999991,
                    "velocity": 0.3464566929133858,
                    "duration": 0.7098910000000274
                },
                {
                    "name": "C#4",
                    "midi": 61,
                    "time": 396.82906899999915,
                    "velocity": 0.2677165354330709,
                    "duration": 0.7098910000000274
                },
                {
                    "name": "F#2",
                    "midi": 42,
                    "time": 397.5389599999992,
                    "velocity": 0.4409448818897638,
                    "duration": 1.4197819999999979
                },
                {
                    "name": "G#2",
                    "midi": 44,
                    "time": 397.5389599999992,
                    "velocity": 0.4409448818897638,
                    "duration": 1.4197819999999979
                },
                {
                    "name": "D#2",
                    "midi": 39,
                    "time": 398.9587419999992,
                    "velocity": 0.44881889763779526,
                    "duration": 1.2423092500000052
                },
                {
                    "name": "G#2",
                    "midi": 44,
                    "time": 398.9587419999992,
                    "velocity": 0.44881889763779526,
                    "duration": 1.2423092500000052
                },
                {
                    "name": "F#2",
                    "midi": 42,
                    "time": 400.2010512499992,
                    "velocity": 0.4881889763779528,
                    "duration": 0.17747274999999263
                },
                {
                    "name": "G#2",
                    "midi": 44,
                    "time": 400.2010512499992,
                    "velocity": 0.4881889763779528,
                    "duration": 0.17747274999999263
                },
                {
                    "name": "F4",
                    "midi": 65,
                    "time": 400.3785239999992,
                    "velocity": 0.6456692913385826,
                    "duration": 1.0648365000000126
                },
                {
                    "name": "C#4",
                    "midi": 61,
                    "time": 401.4433604999992,
                    "velocity": 0.4409448818897638,
                    "duration": 0.35494549999998526
                },
                {
                    "name": "F4",
                    "midi": 65,
                    "time": 401.4433604999992,
                    "velocity": 0.49606299212598426,
                    "duration": 0.35494549999998526
                },
                {
                    "name": "D#4",
                    "midi": 63,
                    "time": 401.7983059999992,
                    "velocity": 0.4645669291338583,
                    "duration": 0.7098910000000274
                },
                {
                    "name": "F#4",
                    "midi": 66,
                    "time": 401.7983059999992,
                    "velocity": 0.5590551181102362,
                    "duration": 0.7098910000000274
                },
                {
                    "name": "F4",
                    "midi": 65,
                    "time": 402.5081969999992,
                    "velocity": 0.3700787401574803,
                    "duration": 0.35494549999998526
                },
                {
                    "name": "G#4",
                    "midi": 68,
                    "time": 402.5081969999992,
                    "velocity": 0.41732283464566927,
                    "duration": 0.35494549999998526
                },
                {
                    "name": "C#4",
                    "midi": 61,
                    "time": 402.8631424999992,
                    "velocity": 0.29133858267716534,
                    "duration": 0.35494549999998526
                },
                {
                    "name": "F4",
                    "midi": 65,
                    "time": 402.8631424999992,
                    "velocity": 0.3937007874015748,
                    "duration": 0.35494549999998526
                },
                {
                    "name": "F#3",
                    "midi": 54,
                    "time": 403.21808799999917,
                    "velocity": 0.29133858267716534,
                    "duration": 1.4197819999999979
                },
                {
                    "name": "A#3",
                    "midi": 58,
                    "time": 403.21808799999917,
                    "velocity": 0.29133858267716534,
                    "duration": 1.4197819999999979
                },
                {
                    "name": "C4",
                    "midi": 60,
                    "time": 404.63786999999917,
                    "velocity": 0.2677165354330709,
                    "duration": 1.4197819999999979
                },
                {
                    "name": "G#3",
                    "midi": 56,
                    "time": 404.63786999999917,
                    "velocity": 0.2677165354330709,
                    "duration": 1.4197819999999979
                },
                {
                    "name": "A#2",
                    "midi": 46,
                    "time": 406.05765199999917,
                    "velocity": 0.2125984251968504,
                    "duration": 2.8395639999999958
                },
                {
                    "name": "C#3",
                    "midi": 49,
                    "time": 406.23512474999916,
                    "velocity": 0.2204724409448819,
                    "duration": 2.662091250000003
                },
                {
                    "name": "E3",
                    "midi": 52,
                    "time": 406.41259749999915,
                    "velocity": 0.23622047244094488,
                    "duration": 2.4846185000000105
                },
                {
                    "name": "G3",
                    "midi": 55,
                    "time": 406.59007024999914,
                    "velocity": 0.2440944881889764,
                    "duration": 2.307145750000018
                },
                {
                    "name": "A#3",
                    "midi": 58,
                    "time": 406.76754299999914,
                    "velocity": 0.2677165354330709,
                    "duration": 2.1296730000000252
                },
                {
                    "name": "A#3",
                    "midi": 58,
                    "time": 408.89721599999916,
                    "velocity": 0.5826771653543307,
                    "duration": 2.8395639999999958
                },
                {
                    "name": "C#4",
                    "midi": 61,
                    "time": 409.07468874999915,
                    "velocity": 0.6220472440944882,
                    "duration": 2.662091250000003
                },
                {
                    "name": "E4",
                    "midi": 64,
                    "time": 409.25216149999915,
                    "velocity": 0.6456692913385826,
                    "duration": 2.4846185000000105
                },
                {
                    "name": "G4",
                    "midi": 67,
                    "time": 409.42963424999914,
                    "velocity": 0.6771653543307087,
                    "duration": 2.307145750000018
                },
                {
                    "name": "A#4",
                    "midi": 70,
                    "time": 409.60710699999913,
                    "velocity": 0.7086614173228346,
                    "duration": 2.1296730000000252
                }
            ],
            "controlChanges": {
                "7": [
                    {
                        "number": 7,
                        "time": 0,
                        "value": 0.7874015748031497
                    }
                ],
                "10": [
                    {
                        "number": 10,
                        "time": 0,
                        "value": 0.5039370078740157
                    }
                ]
            },
            "id": 2,
            "name": "Piano left",
            "instrumentNumber": 0,
            "instrument": "acoustic grand piano",
            "instrumentFamily": "piano",
            "channelNumber": 0,
            "isPercussion": false
        },
        {
            "startTime": 0,
            "duration": 0,
            "length": 0,
            "notes": [],
            "controlChanges": {
                "64": [
                    {
                        "number": 64,
                        "time": 0,
                        "value": 1
                    },
                    {
                        "number": 64,
                        "time": 1.4611923083333334,
                        "value": 0
                    },
                    {
                        "number": 64,
                        "time": 2.366303333333333,
                        "value": 1
                    },
                    {
                        "number": 64,
                        "time": 2.8809743083333332,
                        "value": 0
                    },
                    {
                        "number": 64,
                        "time": 3.2891616333333333,
                        "value": 1
                    },
                    {
                        "number": 64,
                        "time": 5.007689429166667,
                        "value": 0
                    },
                    {
                        "number": 64,
                        "time": 5.889137420833333,
                        "value": 1
                    },
                    {
                        "number": 64,
                        "time": 7.140320308333333,
                        "value": 0
                    },
                    {
                        "number": 64,
                        "time": 7.350329729166666,
                        "value": 1
                    },
                    {
                        "number": 64,
                        "time": 8.551228670833332,
                        "value": 0
                    },
                    {
                        "number": 64,
                        "time": 8.811522037499998,
                        "value": 1
                    },
                    {
                        "number": 64,
                        "time": 9.97988430833333,
                        "value": 0
                    },
                    {
                        "number": 64,
                        "time": 10.210598883333331,
                        "value": 1
                    },
                    {
                        "number": 64,
                        "time": 10.689775308333331,
                        "value": 0
                    },
                    {
                        "number": 64,
                        "time": 10.908658366666664,
                        "value": 1
                    },
                    {
                        "number": 64,
                        "time": 11.393750549999998,
                        "value": 0
                    },
                    {
                        "number": 64,
                        "time": 11.911379404166665,
                        "value": 1
                    },
                    {
                        "number": 64,
                        "time": 12.82832194583333,
                        "value": 0
                    },
                    {
                        "number": 64,
                        "time": 13.487928999999998,
                        "value": 1
                    },
                    {
                        "number": 64,
                        "time": 14.24810394583333,
                        "value": 0
                    },
                    {
                        "number": 64,
                        "time": 14.537976104166663,
                        "value": 1
                    },
                    {
                        "number": 64,
                        "time": 16.357071791666662,
                        "value": 0
                    },
                    {
                        "number": 64,
                        "time": 17.510644666666664,
                        "value": 1
                    },
                    {
                        "number": 64,
                        "time": 18.510407824999998,
                        "value": 0
                    },
                    {
                        "number": 64,
                        "time": 19.167057,
                        "value": 1
                    },
                    {
                        "number": 64,
                        "time": 19.915400429166667,
                        "value": 0
                    },
                    {
                        "number": 64,
                        "time": 20.05442075,
                        "value": 1
                    },
                    {
                        "number": 64,
                        "time": 20.62824930833333,
                        "value": 0
                    },
                    {
                        "number": 64,
                        "time": 20.74360659583333,
                        "value": 1
                    },
                    {
                        "number": 64,
                        "time": 21.32926667083333,
                        "value": 0
                    },
                    {
                        "number": 64,
                        "time": 21.45349759583333,
                        "value": 1
                    },
                    {
                        "number": 64,
                        "time": 22.10127313333333,
                        "value": 0
                    },
                    {
                        "number": 64,
                        "time": 22.716511999999994,
                        "value": 1
                    },
                    {
                        "number": 64,
                        "time": 24.17770430833333,
                        "value": 0
                    },
                    {
                        "number": 64,
                        "time": 25.08281533333333,
                        "value": 1
                    },
                    {
                        "number": 64,
                        "time": 25.59748630833333,
                        "value": 0
                    },
                    {
                        "number": 64,
                        "time": 26.00567363333333,
                        "value": 1
                    },
                    {
                        "number": 64,
                        "time": 27.724201429166666,
                        "value": 0
                    },
                    {
                        "number": 64,
                        "time": 28.605649420833334,
                        "value": 1
                    },
                    {
                        "number": 64,
                        "time": 29.856832308333335,
                        "value": 0
                    },
                    {
                        "number": 64,
                        "time": 30.06684172916667,
                        "value": 1
                    },
                    {
                        "number": 64,
                        "time": 31.267740670833334,
                        "value": 0
                    },
                    {
                        "number": 64,
                        "time": 31.5280340375,
                        "value": 1
                    },
                    {
                        "number": 64,
                        "time": 32.696396308333334,
                        "value": 0
                    },
                    {
                        "number": 64,
                        "time": 32.927110883333334,
                        "value": 1
                    },
                    {
                        "number": 64,
                        "time": 33.40628730833333,
                        "value": 0
                    },
                    {
                        "number": 64,
                        "time": 33.625170366666666,
                        "value": 1
                    },
                    {
                        "number": 64,
                        "time": 34.11026255,
                        "value": 0
                    },
                    {
                        "number": 64,
                        "time": 34.62789140416667,
                        "value": 1
                    },
                    {
                        "number": 64,
                        "time": 35.54483394583333,
                        "value": 0
                    },
                    {
                        "number": 64,
                        "time": 36.204440999999996,
                        "value": 1
                    },
                    {
                        "number": 64,
                        "time": 36.96461594583333,
                        "value": 0
                    },
                    {
                        "number": 64,
                        "time": 37.25448810416666,
                        "value": 1
                    },
                    {
                        "number": 64,
                        "time": 39.073583791666664,
                        "value": 0
                    },
                    {
                        "number": 64,
                        "time": 40.227156666666666,
                        "value": 1
                    },
                    {
                        "number": 64,
                        "time": 41.226919824999996,
                        "value": 0
                    },
                    {
                        "number": 64,
                        "time": 41.883568999999994,
                        "value": 1
                    },
                    {
                        "number": 64,
                        "time": 42.63191242916666,
                        "value": 0
                    },
                    {
                        "number": 64,
                        "time": 42.77093274999999,
                        "value": 1
                    },
                    {
                        "number": 64,
                        "time": 43.344761308333325,
                        "value": 0
                    },
                    {
                        "number": 64,
                        "time": 43.46011859583332,
                        "value": 1
                    },
                    {
                        "number": 64,
                        "time": 44.04577867083332,
                        "value": 0
                    },
                    {
                        "number": 64,
                        "time": 44.17000959583332,
                        "value": 1
                    },
                    {
                        "number": 64,
                        "time": 44.817785133333324,
                        "value": 0
                    },
                    {
                        "number": 64,
                        "time": 45.43302399999999,
                        "value": 1
                    },
                    {
                        "number": 64,
                        "time": 46.89717418749999,
                        "value": 0
                    },
                    {
                        "number": 64,
                        "time": 47.33789818333332,
                        "value": 1
                    },
                    {
                        "number": 64,
                        "time": 48.32878770416666,
                        "value": 0
                    },
                    {
                        "number": 64,
                        "time": 48.648238654166654,
                        "value": 1
                    },
                    {
                        "number": 64,
                        "time": 49.74265394583332,
                        "value": 0
                    },
                    {
                        "number": 64,
                        "time": 50.00590519166665,
                        "value": 1
                    },
                    {
                        "number": 64,
                        "time": 50.44958706666665,
                        "value": 0
                    },
                    {
                        "number": 64,
                        "time": 50.67438588333332,
                        "value": 1
                    },
                    {
                        "number": 64,
                        "time": 51.144688670833325,
                        "value": 0
                    },
                    {
                        "number": 64,
                        "time": 51.33695081666666,
                        "value": 1
                    },
                    {
                        "number": 64,
                        "time": 52.58813370416666,
                        "value": 0
                    },
                    {
                        "number": 64,
                        "time": 52.83955343333332,
                        "value": 1
                    },
                    {
                        "number": 64,
                        "time": 53.98425267083332,
                        "value": 0
                    },
                    {
                        "number": 64,
                        "time": 54.14102026666666,
                        "value": 1
                    },
                    {
                        "number": 64,
                        "time": 55.41882406666666,
                        "value": 0
                    },
                    {
                        "number": 64,
                        "time": 55.66432803749999,
                        "value": 1
                    },
                    {
                        "number": 64,
                        "time": 56.12279930833333,
                        "value": 0
                    },
                    {
                        "number": 64,
                        "time": 56.37421903749999,
                        "value": 1
                    },
                    {
                        "number": 64,
                        "time": 56.83564818749999,
                        "value": 0
                    },
                    {
                        "number": 64,
                        "time": 56.96875274999999,
                        "value": 1
                    },
                    {
                        "number": 64,
                        "time": 58.26726170416666,
                        "value": 0
                    },
                    {
                        "number": 64,
                        "time": 58.56600749999999,
                        "value": 1
                    },
                    {
                        "number": 64,
                        "time": 59.66338067083333,
                        "value": 0
                    },
                    {
                        "number": 64,
                        "time": 59.92367403749999,
                        "value": 1
                    },
                    {
                        "number": 64,
                        "time": 61.09203630833333,
                        "value": 0
                    },
                    {
                        "number": 64,
                        "time": 61.36416119166666,
                        "value": 1
                    },
                    {
                        "number": 64,
                        "time": 61.80784306666666,
                        "value": 0
                    },
                    {
                        "number": 64,
                        "time": 62.03264188333333,
                        "value": 1
                    },
                    {
                        "number": 64,
                        "time": 62.499986791666664,
                        "value": 0
                    },
                    {
                        "number": 64,
                        "time": 63.180299,
                        "value": 1
                    },
                    {
                        "number": 64,
                        "time": 63.94638970416666,
                        "value": 0
                    },
                    {
                        "number": 64,
                        "time": 64.600081,
                        "value": 1
                    },
                    {
                        "number": 64,
                        "time": 65.36025594583333,
                        "value": 0
                    },
                    {
                        "number": 64,
                        "time": 65.44603444166667,
                        "value": 1
                    },
                    {
                        "number": 64,
                        "time": 66.0642311875,
                        "value": 0
                    },
                    {
                        "number": 64,
                        "time": 66.16775695833333,
                        "value": 1
                    },
                    {
                        "number": 64,
                        "time": 66.78003794583333,
                        "value": 0
                    },
                    {
                        "number": 64,
                        "time": 66.89835311249999,
                        "value": 1
                    },
                    {
                        "number": 64,
                        "time": 67.55500228749999,
                        "value": 0
                    },
                    {
                        "number": 64,
                        "time": 68.14953599999998,
                        "value": 1
                    },
                    {
                        "number": 64,
                        "time": 69.61368618749998,
                        "value": 0
                    },
                    {
                        "number": 64,
                        "time": 70.05441018333332,
                        "value": 1
                    },
                    {
                        "number": 64,
                        "time": 71.04529970416665,
                        "value": 0
                    },
                    {
                        "number": 64,
                        "time": 71.36475065416666,
                        "value": 1
                    },
                    {
                        "number": 64,
                        "time": 72.45916594583332,
                        "value": 0
                    },
                    {
                        "number": 64,
                        "time": 72.72241719166665,
                        "value": 1
                    },
                    {
                        "number": 64,
                        "time": 73.16609906666665,
                        "value": 0
                    },
                    {
                        "number": 64,
                        "time": 73.39089788333331,
                        "value": 1
                    },
                    {
                        "number": 64,
                        "time": 73.86120067083331,
                        "value": 0
                    },
                    {
                        "number": 64,
                        "time": 74.05346281666665,
                        "value": 1
                    },
                    {
                        "number": 64,
                        "time": 75.30464570416665,
                        "value": 0
                    },
                    {
                        "number": 64,
                        "time": 75.55606543333332,
                        "value": 1
                    },
                    {
                        "number": 64,
                        "time": 76.70076467083332,
                        "value": 0
                    },
                    {
                        "number": 64,
                        "time": 76.85753226666665,
                        "value": 1
                    },
                    {
                        "number": 64,
                        "time": 78.13533606666665,
                        "value": 0
                    },
                    {
                        "number": 64,
                        "time": 78.3808400375,
                        "value": 1
                    },
                    {
                        "number": 64,
                        "time": 78.83931130833332,
                        "value": 0
                    },
                    {
                        "number": 64,
                        "time": 79.09073103749999,
                        "value": 1
                    },
                    {
                        "number": 64,
                        "time": 79.5521601875,
                        "value": 0
                    },
                    {
                        "number": 64,
                        "time": 79.68526474999999,
                        "value": 1
                    },
                    {
                        "number": 64,
                        "time": 80.98377370416665,
                        "value": 0
                    },
                    {
                        "number": 64,
                        "time": 81.28251949999998,
                        "value": 1
                    },
                    {
                        "number": 64,
                        "time": 82.37989267083331,
                        "value": 0
                    },
                    {
                        "number": 64,
                        "time": 82.64018603749999,
                        "value": 1
                    },
                    {
                        "number": 64,
                        "time": 83.80854830833331,
                        "value": 0
                    },
                    {
                        "number": 64,
                        "time": 84.08067319166665,
                        "value": 1
                    },
                    {
                        "number": 64,
                        "time": 84.52435506666664,
                        "value": 0
                    },
                    {
                        "number": 64,
                        "time": 84.7491538833333,
                        "value": 1
                    },
                    {
                        "number": 64,
                        "time": 85.21649879166664,
                        "value": 0
                    },
                    {
                        "number": 64,
                        "time": 85.89681099999997,
                        "value": 1
                    },
                    {
                        "number": 64,
                        "time": 86.66290170416664,
                        "value": 0
                    },
                    {
                        "number": 64,
                        "time": 87.31659299999998,
                        "value": 1
                    },
                    {
                        "number": 64,
                        "time": 88.07676794583331,
                        "value": 0
                    },
                    {
                        "number": 64,
                        "time": 88.16254644166665,
                        "value": 1
                    },
                    {
                        "number": 64,
                        "time": 88.78074318749998,
                        "value": 0
                    },
                    {
                        "number": 64,
                        "time": 88.88426895833331,
                        "value": 1
                    },
                    {
                        "number": 64,
                        "time": 89.49654994583331,
                        "value": 0
                    },
                    {
                        "number": 64,
                        "time": 89.61486511249997,
                        "value": 1
                    },
                    {
                        "number": 64,
                        "time": 90.27151428749997,
                        "value": 0
                    },
                    {
                        "number": 64,
                        "time": 90.86604799999996,
                        "value": 1
                    },
                    {
                        "number": 64,
                        "time": 92.33315606666663,
                        "value": 0
                    },
                    {
                        "number": 64,
                        "time": 92.7886694583333,
                        "value": 1
                    },
                    {
                        "number": 64,
                        "time": 93.73223291249997,
                        "value": 0
                    },
                    {
                        "number": 64,
                        "time": 94.07830477499996,
                        "value": 1
                    },
                    {
                        "number": 64,
                        "time": 95.18159370416663,
                        "value": 0
                    },
                    {
                        "number": 64,
                        "time": 95.66668588749997,
                        "value": 1
                    },
                    {
                        "number": 64,
                        "time": 96.58954418749997,
                        "value": 0
                    },
                    {
                        "number": 64,
                        "time": 97.01843666666663,
                        "value": 1
                    },
                    {
                        "number": 64,
                        "time": 98.01819982499997,
                        "value": 0
                    },
                    {
                        "number": 64,
                        "time": 98.3701874458333,
                        "value": 1
                    },
                    {
                        "number": 64,
                        "time": 99.41727667083329,
                        "value": 0
                    },
                    {
                        "number": 64,
                        "time": 99.58291790416662,
                        "value": 1
                    },
                    {
                        "number": 64,
                        "time": 100.86072170416662,
                        "value": 0
                    },
                    {
                        "number": 64,
                        "time": 101.00269990416662,
                        "value": 1
                    },
                    {
                        "number": 64,
                        "time": 101.55286542916662,
                        "value": 0
                    },
                    {
                        "number": 64,
                        "time": 101.71259090416662,
                        "value": 1
                    },
                    {
                        "number": 64,
                        "time": 102.24500915416662,
                        "value": 0
                    },
                    {
                        "number": 64,
                        "time": 102.72714345833329,
                        "value": 1
                    },
                    {
                        "number": 64,
                        "time": 103.69141206666662,
                        "value": 0
                    },
                    {
                        "number": 64,
                        "time": 104.14692545833329,
                        "value": 1
                    },
                    {
                        "number": 64,
                        "time": 105.09048891249995,
                        "value": 0
                    },
                    {
                        "number": 64,
                        "time": 105.43656077499995,
                        "value": 1
                    },
                    {
                        "number": 64,
                        "time": 106.53984970416661,
                        "value": 0
                    },
                    {
                        "number": 64,
                        "time": 107.02494188749995,
                        "value": 1
                    },
                    {
                        "number": 64,
                        "time": 107.94780018749995,
                        "value": 0
                    },
                    {
                        "number": 64,
                        "time": 108.37669266666661,
                        "value": 1
                    },
                    {
                        "number": 64,
                        "time": 109.37645582499995,
                        "value": 0
                    },
                    {
                        "number": 64,
                        "time": 109.72844344583328,
                        "value": 1
                    },
                    {
                        "number": 64,
                        "time": 110.77553267083327,
                        "value": 0
                    },
                    {
                        "number": 64,
                        "time": 110.9411739041666,
                        "value": 1
                    },
                    {
                        "number": 64,
                        "time": 112.2189777041666,
                        "value": 0
                    },
                    {
                        "number": 64,
                        "time": 112.3609559041666,
                        "value": 1
                    },
                    {
                        "number": 64,
                        "time": 112.9111214291666,
                        "value": 0
                    },
                    {
                        "number": 64,
                        "time": 113.0708469041666,
                        "value": 1
                    },
                    {
                        "number": 64,
                        "time": 113.6032651541666,
                        "value": 0
                    },
                    {
                        "number": 64,
                        "time": 113.99962096249995,
                        "value": 1
                    },
                    {
                        "number": 64,
                        "time": 115.04966806666661,
                        "value": 0
                    },
                    {
                        "number": 64,
                        "time": 115.50518145833328,
                        "value": 1
                    },
                    {
                        "number": 64,
                        "time": 116.44874491249995,
                        "value": 0
                    },
                    {
                        "number": 64,
                        "time": 116.79481677499994,
                        "value": 1
                    },
                    {
                        "number": 64,
                        "time": 117.89810570416661,
                        "value": 0
                    },
                    {
                        "number": 64,
                        "time": 118.38319788749995,
                        "value": 1
                    },
                    {
                        "number": 64,
                        "time": 119.30605618749995,
                        "value": 0
                    },
                    {
                        "number": 64,
                        "time": 119.73494866666661,
                        "value": 1
                    },
                    {
                        "number": 64,
                        "time": 120.73471182499995,
                        "value": 0
                    },
                    {
                        "number": 64,
                        "time": 121.08669944583328,
                        "value": 1
                    },
                    {
                        "number": 64,
                        "time": 122.13378867083327,
                        "value": 0
                    },
                    {
                        "number": 64,
                        "time": 122.2994299041666,
                        "value": 1
                    },
                    {
                        "number": 64,
                        "time": 123.5772337041666,
                        "value": 0
                    },
                    {
                        "number": 64,
                        "time": 123.7192119041666,
                        "value": 1
                    },
                    {
                        "number": 64,
                        "time": 124.2693774291666,
                        "value": 0
                    },
                    {
                        "number": 64,
                        "time": 124.4291029041666,
                        "value": 1
                    },
                    {
                        "number": 64,
                        "time": 124.9615211541666,
                        "value": 0
                    },
                    {
                        "number": 64,
                        "time": 125.44365545833327,
                        "value": 1
                    },
                    {
                        "number": 64,
                        "time": 126.4079240666666,
                        "value": 0
                    },
                    {
                        "number": 64,
                        "time": 126.86343745833327,
                        "value": 1
                    },
                    {
                        "number": 64,
                        "time": 127.80700091249993,
                        "value": 0
                    },
                    {
                        "number": 64,
                        "time": 128.15307277499994,
                        "value": 1
                    },
                    {
                        "number": 64,
                        "time": 129.2563617041666,
                        "value": 0
                    },
                    {
                        "number": 64,
                        "time": 129.74145388749994,
                        "value": 1
                    },
                    {
                        "number": 64,
                        "time": 130.66431218749995,
                        "value": 0
                    },
                    {
                        "number": 64,
                        "time": 131.09320466666662,
                        "value": 1
                    },
                    {
                        "number": 64,
                        "time": 132.09296782499996,
                        "value": 0
                    },
                    {
                        "number": 64,
                        "time": 132.4449554458333,
                        "value": 1
                    },
                    {
                        "number": 64,
                        "time": 133.4920446708333,
                        "value": 0
                    },
                    {
                        "number": 64,
                        "time": 133.65768590416664,
                        "value": 1
                    },
                    {
                        "number": 64,
                        "time": 134.93548970416663,
                        "value": 0
                    },
                    {
                        "number": 64,
                        "time": 135.07746790416664,
                        "value": 1
                    },
                    {
                        "number": 64,
                        "time": 135.62763342916665,
                        "value": 0
                    },
                    {
                        "number": 64,
                        "time": 135.78735890416664,
                        "value": 1
                    },
                    {
                        "number": 64,
                        "time": 136.31977715416664,
                        "value": 0
                    },
                    {
                        "number": 64,
                        "time": 136.71613296249998,
                        "value": 1
                    },
                    {
                        "number": 64,
                        "time": 137.7691379458333,
                        "value": 0
                    },
                    {
                        "number": 64,
                        "time": 138.304514075,
                        "value": 1
                    },
                    {
                        "number": 64,
                        "time": 139.18596206666666,
                        "value": 0
                    },
                    {
                        "number": 64,
                        "time": 139.4935815,
                        "value": 1
                    },
                    {
                        "number": 64,
                        "time": 140.611659825,
                        "value": 0
                    },
                    {
                        "number": 64,
                        "time": 140.93406865416668,
                        "value": 1
                    },
                    {
                        "number": 64,
                        "time": 141.31267718750001,
                        "value": 0
                    },
                    {
                        "number": 64,
                        "time": 141.49902357500002,
                        "value": 1
                    },
                    {
                        "number": 64,
                        "time": 142.04623122083336,
                        "value": 0
                    },
                    {
                        "number": 64,
                        "time": 142.5401970416667,
                        "value": 1
                    },
                    {
                        "number": 64,
                        "time": 143.4541817041667,
                        "value": 0
                    },
                    {
                        "number": 64,
                        "time": 143.9954735916667,
                        "value": 1
                    },
                    {
                        "number": 64,
                        "time": 144.87100582500003,
                        "value": 0
                    },
                    {
                        "number": 64,
                        "time": 145.0425628166667,
                        "value": 1
                    },
                    {
                        "number": 64,
                        "time": 146.29078782500002,
                        "value": 0
                    },
                    {
                        "number": 64,
                        "time": 146.51854452083336,
                        "value": 1
                    },
                    {
                        "number": 64,
                        "time": 147.00067882500002,
                        "value": 0
                    },
                    {
                        "number": 64,
                        "time": 147.18998309166668,
                        "value": 1
                    },
                    {
                        "number": 64,
                        "time": 147.71056982500002,
                        "value": 0
                    },
                    {
                        "number": 64,
                        "time": 148.16016745833335,
                        "value": 1
                    },
                    {
                        "number": 64,
                        "time": 149.11852030833336,
                        "value": 0
                    },
                    {
                        "number": 64,
                        "time": 149.49417096250002,
                        "value": 1
                    },
                    {
                        "number": 64,
                        "time": 150.52942867083337,
                        "value": 0
                    },
                    {
                        "number": 64,
                        "time": 150.74831172916672,
                        "value": 1
                    },
                    {
                        "number": 64,
                        "time": 151.97287370416672,
                        "value": 0
                    },
                    {
                        "number": 64,
                        "time": 152.1887988833334,
                        "value": 1
                    },
                    {
                        "number": 64,
                        "time": 152.67389106666673,
                        "value": 0
                    },
                    {
                        "number": 64,
                        "time": 152.8779847291667,
                        "value": 1
                    },
                    {
                        "number": 64,
                        "time": 153.3689926708334,
                        "value": 0
                    },
                    {
                        "number": 64,
                        "time": 153.88070576666672,
                        "value": 1
                    },
                    {
                        "number": 64,
                        "time": 154.8124377041667,
                        "value": 0
                    },
                    {
                        "number": 64,
                        "time": 155.25907745833337,
                        "value": 1
                    },
                    {
                        "number": 64,
                        "time": 156.2144724291667,
                        "value": 0
                    },
                    {
                        "number": 64,
                        "time": 156.35349275000004,
                        "value": 1
                    },
                    {
                        "number": 64,
                        "time": 157.64904382500004,
                        "value": 0
                    },
                    {
                        "number": 64,
                        "time": 157.82651657500003,
                        "value": 1
                    },
                    {
                        "number": 64,
                        "time": 158.35006118750002,
                        "value": 0
                    },
                    {
                        "number": 64,
                        "time": 158.49499726666667,
                        "value": 1
                    },
                    {
                        "number": 64,
                        "time": 159.03924703333334,
                        "value": 0
                    },
                    {
                        "number": 64,
                        "time": 159.4326449625,
                        "value": 1
                    },
                    {
                        "number": 64,
                        "time": 160.48564994583333,
                        "value": 0
                    },
                    {
                        "number": 64,
                        "time": 161.021026075,
                        "value": 1
                    },
                    {
                        "number": 64,
                        "time": 161.90247406666668,
                        "value": 0
                    },
                    {
                        "number": 64,
                        "time": 162.21009350000003,
                        "value": 1
                    },
                    {
                        "number": 64,
                        "time": 163.32817182500003,
                        "value": 0
                    },
                    {
                        "number": 64,
                        "time": 163.6505806541667,
                        "value": 1
                    },
                    {
                        "number": 64,
                        "time": 164.02918918750004,
                        "value": 0
                    },
                    {
                        "number": 64,
                        "time": 164.21553557500005,
                        "value": 1
                    },
                    {
                        "number": 64,
                        "time": 164.76274322083339,
                        "value": 0
                    },
                    {
                        "number": 64,
                        "time": 165.2567090416667,
                        "value": 1
                    },
                    {
                        "number": 64,
                        "time": 166.17069370416672,
                        "value": 0
                    },
                    {
                        "number": 64,
                        "time": 166.71198559166672,
                        "value": 1
                    },
                    {
                        "number": 64,
                        "time": 167.58751782500005,
                        "value": 0
                    },
                    {
                        "number": 64,
                        "time": 167.75907481666673,
                        "value": 1
                    },
                    {
                        "number": 64,
                        "time": 169.00729982500005,
                        "value": 0
                    },
                    {
                        "number": 64,
                        "time": 169.23505652083338,
                        "value": 1
                    },
                    {
                        "number": 64,
                        "time": 169.71719082500005,
                        "value": 0
                    },
                    {
                        "number": 64,
                        "time": 169.9064950916667,
                        "value": 1
                    },
                    {
                        "number": 64,
                        "time": 170.42708182500004,
                        "value": 0
                    },
                    {
                        "number": 64,
                        "time": 170.87667945833337,
                        "value": 1
                    },
                    {
                        "number": 64,
                        "time": 171.83503230833338,
                        "value": 0
                    },
                    {
                        "number": 64,
                        "time": 172.21068296250004,
                        "value": 1
                    },
                    {
                        "number": 64,
                        "time": 173.2459406708334,
                        "value": 0
                    },
                    {
                        "number": 64,
                        "time": 173.46482372916674,
                        "value": 1
                    },
                    {
                        "number": 64,
                        "time": 174.68938570416674,
                        "value": 0
                    },
                    {
                        "number": 64,
                        "time": 174.9053108833334,
                        "value": 1
                    },
                    {
                        "number": 64,
                        "time": 175.39040306666675,
                        "value": 0
                    },
                    {
                        "number": 64,
                        "time": 175.59449672916674,
                        "value": 1
                    },
                    {
                        "number": 64,
                        "time": 176.08550467083342,
                        "value": 0
                    },
                    {
                        "number": 64,
                        "time": 176.59721776666674,
                        "value": 1
                    },
                    {
                        "number": 64,
                        "time": 177.52894970416673,
                        "value": 0
                    },
                    {
                        "number": 64,
                        "time": 177.9755894583334,
                        "value": 1
                    },
                    {
                        "number": 64,
                        "time": 178.93098442916673,
                        "value": 0
                    },
                    {
                        "number": 64,
                        "time": 179.07000475000007,
                        "value": 1
                    },
                    {
                        "number": 64,
                        "time": 180.36555582500006,
                        "value": 0
                    },
                    {
                        "number": 64,
                        "time": 180.54302857500005,
                        "value": 1
                    },
                    {
                        "number": 64,
                        "time": 181.06657318750004,
                        "value": 0
                    },
                    {
                        "number": 64,
                        "time": 181.2115092666667,
                        "value": 1
                    },
                    {
                        "number": 64,
                        "time": 181.75575903333336,
                        "value": 0
                    },
                    {
                        "number": 64,
                        "time": 181.9835157291667,
                        "value": 1
                    },
                    {
                        "number": 64,
                        "time": 183.19624618750004,
                        "value": 0
                    },
                    {
                        "number": 64,
                        "time": 183.48611834583338,
                        "value": 1
                    },
                    {
                        "number": 64,
                        "time": 184.61602818750004,
                        "value": 0
                    },
                    {
                        "number": 64,
                        "time": 184.87040579583336,
                        "value": 1
                    },
                    {
                        "number": 64,
                        "time": 186.7486590666667,
                        "value": 0
                    },
                    {
                        "number": 64,
                        "time": 186.96458424583338,
                        "value": 1
                    },
                    {
                        "number": 64,
                        "time": 187.46150794583338,
                        "value": 0
                    },
                    {
                        "number": 64,
                        "time": 187.72475919166672,
                        "value": 1
                    },
                    {
                        "number": 64,
                        "time": 188.87241630833338,
                        "value": 0
                    },
                    {
                        "number": 64,
                        "time": 189.1652463458334,
                        "value": 1
                    },
                    {
                        "number": 64,
                        "time": 190.28036679166672,
                        "value": 0
                    },
                    {
                        "number": 64,
                        "time": 190.5022077291667,
                        "value": 1
                    },
                    {
                        "number": 64,
                        "time": 191.71198030833338,
                        "value": 0
                    },
                    {
                        "number": 64,
                        "time": 191.9219897291667,
                        "value": 1
                    },
                    {
                        "number": 64,
                        "time": 192.42187130833338,
                        "value": 0
                    },
                    {
                        "number": 64,
                        "time": 192.6318807291667,
                        "value": 1
                    },
                    {
                        "number": 64,
                        "time": 193.1228886708334,
                        "value": 0
                    },
                    {
                        "number": 64,
                        "time": 193.32106657500006,
                        "value": 1
                    },
                    {
                        "number": 64,
                        "time": 194.55450218750005,
                        "value": 0
                    },
                    {
                        "number": 64,
                        "time": 194.80296403750006,
                        "value": 1
                    },
                    {
                        "number": 64,
                        "time": 195.97724206666672,
                        "value": 0
                    },
                    {
                        "number": 64,
                        "time": 196.16654633333337,
                        "value": 1
                    },
                    {
                        "number": 64,
                        "time": 198.10987294583336,
                        "value": 0
                    },
                    {
                        "number": 64,
                        "time": 198.3997451041667,
                        "value": 1
                    },
                    {
                        "number": 64,
                        "time": 198.81976394583336,
                        "value": 0
                    },
                    {
                        "number": 64,
                        "time": 199.04160488333335,
                        "value": 1
                    },
                    {
                        "number": 64,
                        "time": 200.22179867083335,
                        "value": 0
                    },
                    {
                        "number": 64,
                        "time": 200.4406817291667,
                        "value": 1
                    },
                    {
                        "number": 64,
                        "time": 201.65045430833337,
                        "value": 0
                    },
                    {
                        "number": 64,
                        "time": 201.9225791916667,
                        "value": 1
                    },
                    {
                        "number": 64,
                        "time": 203.08206782500002,
                        "value": 0
                    },
                    {
                        "number": 64,
                        "time": 203.32165603750002,
                        "value": 1
                    },
                    {
                        "number": 64,
                        "time": 204.49889194583335,
                        "value": 0
                    },
                    {
                        "number": 64,
                        "time": 204.7000277291667,
                        "value": 1
                    },
                    {
                        "number": 64,
                        "time": 205.9157160666667,
                        "value": 0
                    },
                    {
                        "number": 64,
                        "time": 206.20558822500004,
                        "value": 1
                    },
                    {
                        "number": 64,
                        "time": 207.3354980666667,
                        "value": 0
                    },
                    {
                        "number": 64,
                        "time": 207.58987567500003,
                        "value": 1
                    },
                    {
                        "number": 64,
                        "time": 209.46812894583337,
                        "value": 0
                    },
                    {
                        "number": 64,
                        "time": 209.68109624583337,
                        "value": 1
                    },
                    {
                        "number": 64,
                        "time": 210.18097782500004,
                        "value": 0
                    },
                    {
                        "number": 64,
                        "time": 210.4442290708334,
                        "value": 1
                    },
                    {
                        "number": 64,
                        "time": 211.59188618750005,
                        "value": 0
                    },
                    {
                        "number": 64,
                        "time": 211.88471622500006,
                        "value": 1
                    },
                    {
                        "number": 64,
                        "time": 212.9998366708334,
                        "value": 0
                    },
                    {
                        "number": 64,
                        "time": 213.21871972916674,
                        "value": 1
                    },
                    {
                        "number": 64,
                        "time": 214.43145018750008,
                        "value": 0
                    },
                    {
                        "number": 64,
                        "time": 214.63850172916673,
                        "value": 1
                    },
                    {
                        "number": 64,
                        "time": 215.14134118750007,
                        "value": 0
                    },
                    {
                        "number": 64,
                        "time": 215.34839272916673,
                        "value": 1
                    },
                    {
                        "number": 64,
                        "time": 215.84235855000006,
                        "value": 0
                    },
                    {
                        "number": 64,
                        "time": 216.03757857500005,
                        "value": 1
                    },
                    {
                        "number": 64,
                        "time": 217.27397206666672,
                        "value": 0
                    },
                    {
                        "number": 64,
                        "time": 217.52243391666673,
                        "value": 1
                    },
                    {
                        "number": 64,
                        "time": 218.69671194583339,
                        "value": 0
                    },
                    {
                        "number": 64,
                        "time": 218.88601621250004,
                        "value": 1
                    },
                    {
                        "number": 64,
                        "time": 220.82934282500003,
                        "value": 0
                    },
                    {
                        "number": 64,
                        "time": 221.1162571041667,
                        "value": 1
                    },
                    {
                        "number": 64,
                        "time": 221.53923382500003,
                        "value": 0
                    },
                    {
                        "number": 64,
                        "time": 221.76107476250002,
                        "value": 1
                    },
                    {
                        "number": 64,
                        "time": 222.94126855000002,
                        "value": 0
                    },
                    {
                        "number": 64,
                        "time": 223.1571937291667,
                        "value": 1
                    },
                    {
                        "number": 64,
                        "time": 224.36992418750003,
                        "value": 0
                    },
                    {
                        "number": 64,
                        "time": 224.64204907083337,
                        "value": 1
                    },
                    {
                        "number": 64,
                        "time": 225.8015377041667,
                        "value": 0
                    },
                    {
                        "number": 64,
                        "time": 226.0411259166667,
                        "value": 1
                    },
                    {
                        "number": 64,
                        "time": 227.21836182500002,
                        "value": 0
                    },
                    {
                        "number": 64,
                        "time": 227.4165397291667,
                        "value": 1
                    },
                    {
                        "number": 64,
                        "time": 228.63518594583334,
                        "value": 0
                    },
                    {
                        "number": 64,
                        "time": 228.8777320375,
                        "value": 1
                    },
                    {
                        "number": 64,
                        "time": 230.04017855,
                        "value": 0
                    },
                    {
                        "number": 64,
                        "time": 230.21469342083333,
                        "value": 1
                    },
                    {
                        "number": 64,
                        "time": 231.45404479166666,
                        "value": 0
                    },
                    {
                        "number": 64,
                        "time": 231.69659088333333,
                        "value": 1
                    },
                    {
                        "number": 64,
                        "time": 232.16393579166666,
                        "value": 0
                    },
                    {
                        "number": 64,
                        "time": 232.38577672916665,
                        "value": 1
                    },
                    {
                        "number": 64,
                        "time": 232.89748982499998,
                        "value": 0
                    },
                    {
                        "number": 64,
                        "time": 233.1784883458333,
                        "value": 1
                    },
                    {
                        "number": 64,
                        "time": 234.31727182499998,
                        "value": 0
                    },
                    {
                        "number": 64,
                        "time": 234.55686003749997,
                        "value": 1
                    },
                    {
                        "number": 64,
                        "time": 235.7340959458333,
                        "value": 0
                    },
                    {
                        "number": 64,
                        "time": 235.85241111249996,
                        "value": 1
                    },
                    {
                        "number": 64,
                        "time": 237.15683582499997,
                        "value": 0
                    },
                    {
                        "number": 64,
                        "time": 237.37571888333332,
                        "value": 1
                    },
                    {
                        "number": 64,
                        "time": 237.85193742916664,
                        "value": 0
                    },
                    {
                        "number": 64,
                        "time": 238.02349442083332,
                        "value": 1
                    },
                    {
                        "number": 64,
                        "time": 238.57661782499997,
                        "value": 0
                    },
                    {
                        "number": 64,
                        "time": 238.73338542083332,
                        "value": 1
                    },
                    {
                        "number": 64,
                        "time": 239.99639982499997,
                        "value": 0
                    },
                    {
                        "number": 64,
                        "time": 240.23598803749996,
                        "value": 1
                    },
                    {
                        "number": 64,
                        "time": 241.40730818749998,
                        "value": 0
                    },
                    {
                        "number": 64,
                        "time": 241.61435972916664,
                        "value": 1
                    },
                    {
                        "number": 64,
                        "time": 242.8241323083333,
                        "value": 0
                    },
                    {
                        "number": 64,
                        "time": 243.03414172916663,
                        "value": 1
                    },
                    {
                        "number": 64,
                        "time": 243.53993906666665,
                        "value": 0
                    },
                    {
                        "number": 64,
                        "time": 243.8268533458333,
                        "value": 1
                    },
                    {
                        "number": 64,
                        "time": 244.23799855,
                        "value": 0
                    },
                    {
                        "number": 64,
                        "time": 244.4746288833333,
                        "value": 1
                    },
                    {
                        "number": 64,
                        "time": 245.66073842916666,
                        "value": 0
                    },
                    {
                        "number": 64,
                        "time": 245.93582119166666,
                        "value": 1
                    },
                    {
                        "number": 64,
                        "time": 247.0864361875,
                        "value": 0
                    },
                    {
                        "number": 64,
                        "time": 247.272782575,
                        "value": 1
                    },
                    {
                        "number": 64,
                        "time": 248.50030242916668,
                        "value": 0
                    },
                    {
                        "number": 64,
                        "time": 248.7546800375,
                        "value": 1
                    },
                    {
                        "number": 64,
                        "time": 249.2161091875,
                        "value": 0
                    },
                    {
                        "number": 64,
                        "time": 249.402455575,
                        "value": 1
                    },
                    {
                        "number": 64,
                        "time": 249.90825291250002,
                        "value": 0
                    },
                    {
                        "number": 64,
                        "time": 250.13305172916668,
                        "value": 1
                    },
                    {
                        "number": 64,
                        "time": 251.354655825,
                        "value": 0
                    },
                    {
                        "number": 64,
                        "time": 251.59720191666668,
                        "value": 1
                    },
                    {
                        "number": 64,
                        "time": 252.75964842916667,
                        "value": 0
                    },
                    {
                        "number": 64,
                        "time": 252.93120542083335,
                        "value": 1
                    },
                    {
                        "number": 64,
                        "time": 254.17351467083336,
                        "value": 0
                    },
                    {
                        "number": 64,
                        "time": 254.41606076250002,
                        "value": 1
                    },
                    {
                        "number": 64,
                        "time": 254.88340567083335,
                        "value": 0
                    },
                    {
                        "number": 64,
                        "time": 255.1022887291667,
                        "value": 1
                    },
                    {
                        "number": 64,
                        "time": 255.6169597041667,
                        "value": 0
                    },
                    {
                        "number": 64,
                        "time": 255.89795822500002,
                        "value": 1
                    },
                    {
                        "number": 64,
                        "time": 257.0367417041667,
                        "value": 0
                    },
                    {
                        "number": 64,
                        "time": 257.27632991666667,
                        "value": 1
                    },
                    {
                        "number": 64,
                        "time": 258.453565825,
                        "value": 0
                    },
                    {
                        "number": 64,
                        "time": 258.5689231125,
                        "value": 1
                    },
                    {
                        "number": 64,
                        "time": 259.87630570416667,
                        "value": 0
                    },
                    {
                        "number": 64,
                        "time": 260.0951887625,
                        "value": 1
                    },
                    {
                        "number": 64,
                        "time": 260.57140730833333,
                        "value": 0
                    },
                    {
                        "number": 64,
                        "time": 260.7400064208333,
                        "value": 1
                    },
                    {
                        "number": 64,
                        "time": 261.29608770416667,
                        "value": 0
                    },
                    {
                        "number": 64,
                        "time": 261.44989742083334,
                        "value": 1
                    },
                    {
                        "number": 64,
                        "time": 262.71586970416666,
                        "value": 0
                    },
                    {
                        "number": 64,
                        "time": 262.95545791666666,
                        "value": 1
                    },
                    {
                        "number": 64,
                        "time": 264.12677806666665,
                        "value": 0
                    },
                    {
                        "number": 64,
                        "time": 264.33087172916663,
                        "value": 1
                    },
                    {
                        "number": 64,
                        "time": 265.54360218749997,
                        "value": 0
                    },
                    {
                        "number": 64,
                        "time": 265.75065372916663,
                        "value": 1
                    },
                    {
                        "number": 64,
                        "time": 266.2594089458333,
                        "value": 0
                    },
                    {
                        "number": 64,
                        "time": 266.546323225,
                        "value": 1
                    },
                    {
                        "number": 64,
                        "time": 266.9574684291666,
                        "value": 0
                    },
                    {
                        "number": 64,
                        "time": 267.19409876249995,
                        "value": 1
                    },
                    {
                        "number": 64,
                        "time": 268.3802083083333,
                        "value": 0
                    },
                    {
                        "number": 64,
                        "time": 268.6552910708333,
                        "value": 1
                    },
                    {
                        "number": 64,
                        "time": 269.80590606666664,
                        "value": 0
                    },
                    {
                        "number": 64,
                        "time": 269.989294575,
                        "value": 1
                    },
                    {
                        "number": 64,
                        "time": 271.2197723083333,
                        "value": 0
                    },
                    {
                        "number": 64,
                        "time": 271.47414991666665,
                        "value": 1
                    },
                    {
                        "number": 64,
                        "time": 271.93557906666666,
                        "value": 0
                    },
                    {
                        "number": 64,
                        "time": 272.118967575,
                        "value": 1
                    },
                    {
                        "number": 64,
                        "time": 272.62772279166666,
                        "value": 0
                    },
                    {
                        "number": 64,
                        "time": 272.77561675,
                        "value": 1
                    },
                    {
                        "number": 64,
                        "time": 274.04750479166665,
                        "value": 0
                    },
                    {
                        "number": 64,
                        "time": 274.21610390416663,
                        "value": 1
                    },
                    {
                        "number": 64,
                        "time": 275.4791183083333,
                        "value": 0
                    },
                    {
                        "number": 64,
                        "time": 275.58560195833326,
                        "value": 1
                    },
                    {
                        "number": 64,
                        "time": 276.90777394583324,
                        "value": 0
                    },
                    {
                        "number": 64,
                        "time": 277.04679426666655,
                        "value": 1
                    },
                    {
                        "number": 64,
                        "time": 277.5940019124999,
                        "value": 0
                    },
                    {
                        "number": 64,
                        "time": 277.70344344166654,
                        "value": 1
                    },
                    {
                        "number": 64,
                        "time": 278.3098086708332,
                        "value": 0
                    },
                    {
                        "number": 64,
                        "time": 278.41333444166656,
                        "value": 1
                    },
                    {
                        "number": 64,
                        "time": 279.75916946249987,
                        "value": 0
                    },
                    {
                        "number": 64,
                        "time": 279.8538215958332,
                        "value": 1
                    },
                    {
                        "number": 64,
                        "time": 281.1257096374999,
                        "value": 0
                    },
                    {
                        "number": 64,
                        "time": 281.24402480416654,
                        "value": 1
                    },
                    {
                        "number": 64,
                        "time": 281.8622215499999,
                        "value": 0
                    },
                    {
                        "number": 64,
                        "time": 282.0041997499999,
                        "value": 1
                    },
                    {
                        "number": 64,
                        "time": 282.5780283083332,
                        "value": 0
                    },
                    {
                        "number": 64,
                        "time": 282.7052171124999,
                        "value": 1
                    },
                    {
                        "number": 64,
                        "time": 283.26129839583325,
                        "value": 0
                    },
                    {
                        "number": 64,
                        "time": 283.3825714416666,
                        "value": 1
                    },
                    {
                        "number": 64,
                        "time": 283.9948524291666,
                        "value": 0
                    },
                    {
                        "number": 64,
                        "time": 284.06288364999995,
                        "value": 1
                    },
                    {
                        "number": 64,
                        "time": 285.4264659458333,
                        "value": 0
                    },
                    {
                        "number": 64,
                        "time": 285.54478111249995,
                        "value": 1
                    },
                    {
                        "number": 64,
                        "time": 286.8344164291666,
                        "value": 0
                    },
                    {
                        "number": 64,
                        "time": 286.9142791666666,
                        "value": 1
                    },
                    {
                        "number": 64,
                        "time": 288.2541984291666,
                        "value": 0
                    },
                    {
                        "number": 64,
                        "time": 288.3518084416666,
                        "value": 1
                    },
                    {
                        "number": 64,
                        "time": 288.95225791249993,
                        "value": 0
                    },
                    {
                        "number": 64,
                        "time": 289.02916277083324,
                        "value": 1
                    },
                    {
                        "number": 64,
                        "time": 289.6798961874999,
                        "value": 0
                    },
                    {
                        "number": 64,
                        "time": 289.76271680416653,
                        "value": 1
                    },
                    {
                        "number": 64,
                        "time": 291.0996781874999,
                        "value": 0
                    },
                    {
                        "number": 64,
                        "time": 291.20024607916656,
                        "value": 1
                    },
                    {
                        "number": 64,
                        "time": 292.5017129124999,
                        "value": 0
                    },
                    {
                        "number": 64,
                        "time": 292.6643962666666,
                        "value": 1
                    },
                    {
                        "number": 64,
                        "time": 293.93628430833326,
                        "value": 0
                    },
                    {
                        "number": 64,
                        "time": 294.0841782666666,
                        "value": 1
                    },
                    {
                        "number": 64,
                        "time": 295.34719267083324,
                        "value": 0
                    },
                    {
                        "number": 64,
                        "time": 295.43297116666656,
                        "value": 1
                    },
                    {
                        "number": 64,
                        "time": 296.04821003333325,
                        "value": 0
                    },
                    {
                        "number": 64,
                        "time": 296.1783567166666,
                        "value": 1
                    },
                    {
                        "number": 64,
                        "time": 297.47982354999994,
                        "value": 0
                    },
                    {
                        "number": 64,
                        "time": 297.6070123541666,
                        "value": 1
                    },
                    {
                        "number": 64,
                        "time": 298.9025634291666,
                        "value": 0
                    },
                    {
                        "number": 64,
                        "time": 299.0090470791666,
                        "value": 1
                    },
                    {
                        "number": 64,
                        "time": 300.31938754999993,
                        "value": 0
                    },
                    {
                        "number": 64,
                        "time": 300.4613657499999,
                        "value": 1
                    },
                    {
                        "number": 64,
                        "time": 301.03519430833325,
                        "value": 0
                    },
                    {
                        "number": 64,
                        "time": 301.1564673541666,
                        "value": 1
                    },
                    {
                        "number": 64,
                        "time": 302.4490605499999,
                        "value": 0
                    },
                    {
                        "number": 64,
                        "time": 302.55850207916654,
                        "value": 1
                    },
                    {
                        "number": 64,
                        "time": 303.8688425499999,
                        "value": 0
                    },
                    {
                        "number": 64,
                        "time": 303.9694104416666,
                        "value": 1
                    },
                    {
                        "number": 64,
                        "time": 305.29158242916657,
                        "value": 0
                    },
                    {
                        "number": 64,
                        "time": 305.4513079041666,
                        "value": 1
                    },
                    {
                        "number": 64,
                        "time": 306.7024907916666,
                        "value": 0
                    },
                    {
                        "number": 64,
                        "time": 306.8001008041666,
                        "value": 1
                    },
                    {
                        "number": 64,
                        "time": 307.42421330833326,
                        "value": 0
                    },
                    {
                        "number": 64,
                        "time": 307.5099918041666,
                        "value": 1
                    },
                    {
                        "number": 64,
                        "time": 308.8380795499999,
                        "value": 0
                    },
                    {
                        "number": 64,
                        "time": 308.9120265291666,
                        "value": 1
                    },
                    {
                        "number": 64,
                        "time": 310.2608194291666,
                        "value": 0
                    },
                    {
                        "number": 64,
                        "time": 310.3850503541666,
                        "value": 1
                    },
                    {
                        "number": 64,
                        "time": 311.6510226374999,
                        "value": 0
                    },
                    {
                        "number": 64,
                        "time": 311.7693378041666,
                        "value": 1
                    },
                    {
                        "number": 64,
                        "time": 312.39049242916656,
                        "value": 0
                    },
                    {
                        "number": 64,
                        "time": 312.49697607916653,
                        "value": 1
                    },
                    {
                        "number": 64,
                        "time": 313.8073165499999,
                        "value": 0
                    },
                    {
                        "number": 64,
                        "time": 313.90788444166657,
                        "value": 1
                    },
                    {
                        "number": 64,
                        "time": 315.2330143083332,
                        "value": 0
                    },
                    {
                        "number": 64,
                        "time": 315.3069612874999,
                        "value": 1
                    },
                    {
                        "number": 64,
                        "time": 315.9222001541666,
                        "value": 0
                    },
                    {
                        "number": 64,
                        "time": 316.05826259583324,
                        "value": 1
                    },
                    {
                        "number": 64,
                        "time": 316.66166994583324,
                        "value": 0
                    },
                    {
                        "number": 64,
                        "time": 316.80069026666655,
                        "value": 1
                    },
                    {
                        "number": 64,
                        "time": 317.3331085166665,
                        "value": 0
                    },
                    {
                        "number": 64,
                        "time": 317.4484658041665,
                        "value": 1
                    },
                    {
                        "number": 64,
                        "time": 318.0696204291665,
                        "value": 0
                    },
                    {
                        "number": 64,
                        "time": 318.14948316666647,
                        "value": 1
                    },
                    {
                        "number": 64,
                        "time": 319.4953181874998,
                        "value": 0
                    },
                    {
                        "number": 64,
                        "time": 319.59588607916646,
                        "value": 1
                    },
                    {
                        "number": 64,
                        "time": 320.92693170416646,
                        "value": 0
                    },
                    {
                        "number": 64,
                        "time": 321.00679444166644,
                        "value": 1
                    },
                    {
                        "number": 64,
                        "time": 322.32600854999976,
                        "value": 0
                    },
                    {
                        "number": 64,
                        "time": 322.4384079583331,
                        "value": 1
                    },
                    {
                        "number": 64,
                        "time": 323.0122365166664,
                        "value": 0
                    },
                    {
                        "number": 64,
                        "time": 323.1275938041664,
                        "value": 1
                    },
                    {
                        "number": 64,
                        "time": 323.74579054999975,
                        "value": 0
                    },
                    {
                        "number": 64,
                        "time": 323.8641057166664,
                        "value": 1
                    },
                    {
                        "number": 64,
                        "time": 325.1714883083331,
                        "value": 0
                    },
                    {
                        "number": 64,
                        "time": 325.29276135416643,
                        "value": 1
                    },
                    {
                        "number": 64,
                        "time": 326.6031018249998,
                        "value": 0
                    },
                    {
                        "number": 64,
                        "time": 326.6652172874998,
                        "value": 1
                    },
                    {
                        "number": 64,
                        "time": 328.00217867083313,
                        "value": 0
                    },
                    {
                        "number": 64,
                        "time": 328.12640959583314,
                        "value": 1
                    },
                    {
                        "number": 64,
                        "time": 328.71206967083316,
                        "value": 0
                    },
                    {
                        "number": 64,
                        "time": 328.82742695833315,
                        "value": 1
                    },
                    {
                        "number": 64,
                        "time": 329.41900279166646,
                        "value": 0
                    },
                    {
                        "number": 64,
                        "time": 329.51661280416647,
                        "value": 1
                    },
                    {
                        "number": 64,
                        "time": 330.83878479166646,
                        "value": 0
                    },
                    {
                        "number": 64,
                        "time": 330.9570999583331,
                        "value": 1
                    },
                    {
                        "number": 64,
                        "time": 332.2911034624998,
                        "value": 0
                    },
                    {
                        "number": 64,
                        "time": 332.32364013333313,
                        "value": 1
                    },
                    {
                        "number": 64,
                        "time": 333.6753909124998,
                        "value": 0
                    },
                    {
                        "number": 64,
                        "time": 333.7848324416664,
                        "value": 1
                    },
                    {
                        "number": 64,
                        "time": 335.1099623083331,
                        "value": 0
                    },
                    {
                        "number": 64,
                        "time": 335.2046144416664,
                        "value": 1
                    },
                    {
                        "number": 64,
                        "time": 336.5356600666664,
                        "value": 0
                    },
                    {
                        "number": 64,
                        "time": 336.6243964416664,
                        "value": 1
                    },
                    {
                        "number": 64,
                        "time": 337.95248418749975,
                        "value": 0
                    },
                    {
                        "number": 64,
                        "time": 338.06488359583307,
                        "value": 1
                    },
                    {
                        "number": 64,
                        "time": 339.37226618749975,
                        "value": 0
                    },
                    {
                        "number": 64,
                        "time": 339.49649711249975,
                        "value": 1
                    },
                    {
                        "number": 64,
                        "time": 340.7831745499997,
                        "value": 0
                    },
                    {
                        "number": 64,
                        "time": 340.89557395833305,
                        "value": 1
                    },
                    {
                        "number": 64,
                        "time": 342.244366858333,
                        "value": 0
                    },
                    {
                        "number": 64,
                        "time": 342.386345058333,
                        "value": 1
                    },
                    {
                        "number": 64,
                        "time": 343.637527945833,
                        "value": 0
                    },
                    {
                        "number": 64,
                        "time": 343.7026012874997,
                        "value": 1
                    },
                    {
                        "number": 64,
                        "time": 344.3326295499997,
                        "value": 0
                    },
                    {
                        "number": 64,
                        "time": 344.45390259583303,
                        "value": 1
                    },
                    {
                        "number": 64,
                        "time": 345.057309945833,
                        "value": 0
                    },
                    {
                        "number": 64,
                        "time": 346.57470195833304,
                        "value": 1
                    },
                    {
                        "number": 64,
                        "time": 347.9116633416664,
                        "value": 0
                    },
                    {
                        "number": 64,
                        "time": 348.05659942083304,
                        "value": 1
                    },
                    {
                        "number": 64,
                        "time": 349.2929929124997,
                        "value": 0
                    },
                    {
                        "number": 64,
                        "time": 349.41426595833303,
                        "value": 1
                    },
                    {
                        "number": 64,
                        "time": 350.0117575499997,
                        "value": 0
                    },
                    {
                        "number": 64,
                        "time": 350.133030595833,
                        "value": 1
                    },
                    {
                        "number": 64,
                        "time": 350.7216485499997,
                        "value": 0
                    },
                    {
                        "number": 64,
                        "time": 352.2331248041664,
                        "value": 1
                    },
                    {
                        "number": 64,
                        "time": 353.5641704291664,
                        "value": 0
                    },
                    {
                        "number": 64,
                        "time": 353.7031907499997,
                        "value": 1
                    },
                    {
                        "number": 64,
                        "time": 354.9987418249997,
                        "value": 0
                    },
                    {
                        "number": 64,
                        "time": 355.08156244166634,
                        "value": 1
                    },
                    {
                        "number": 64,
                        "time": 355.68201191249966,
                        "value": 0
                    },
                    {
                        "number": 64,
                        "time": 355.874274058333,
                        "value": 1
                    },
                    {
                        "number": 64,
                        "time": 356.40965018749966,
                        "value": 0
                    },
                    {
                        "number": 64,
                        "time": 356.5545862666663,
                        "value": 1
                    },
                    {
                        "number": 64,
                        "time": 357.12841482499965,
                        "value": 0
                    },
                    {
                        "number": 64,
                        "time": 357.25264574999966,
                        "value": 1
                    },
                    {
                        "number": 64,
                        "time": 357.8235164291663,
                        "value": 0
                    },
                    {
                        "number": 64,
                        "time": 357.879716133333,
                        "value": 1
                    },
                    {
                        "number": 64,
                        "time": 359.2580878249996,
                        "value": 0
                    },
                    {
                        "number": 64,
                        "time": 359.4030239041663,
                        "value": 1
                    },
                    {
                        "number": 64,
                        "time": 360.69857497916627,
                        "value": 0
                    },
                    {
                        "number": 64,
                        "time": 360.7932271124996,
                        "value": 1
                    },
                    {
                        "number": 64,
                        "time": 363.4908129124996,
                        "value": 0
                    },
                    {
                        "number": 64,
                        "time": 364.0971781416663,
                        "value": 1
                    },
                    {
                        "number": 64,
                        "time": 364.9372158249996,
                        "value": 0
                    },
                    {
                        "number": 64,
                        "time": 365.67372773749963,
                        "value": 1
                    },
                    {
                        "number": 64,
                        "time": 366.3333347916663,
                        "value": 0
                    },
                    {
                        "number": 64,
                        "time": 366.6794066541663,
                        "value": 1
                    },
                    {
                        "number": 64,
                        "time": 368.4807550666663,
                        "value": 0
                    },
                    {
                        "number": 64,
                        "time": 369.3326242666663,
                        "value": 1
                    },
                    {
                        "number": 64,
                        "time": 370.61634382499966,
                        "value": 0
                    },
                    {
                        "number": 64,
                        "time": 370.8766371916663,
                        "value": 1
                    },
                    {
                        "number": 64,
                        "time": 372.02429430833297,
                        "value": 0
                    },
                    {
                        "number": 64,
                        "time": 372.21359857499965,
                        "value": 1
                    },
                    {
                        "number": 64,
                        "time": 373.45590782499966,
                        "value": 0
                    },
                    {
                        "number": 64,
                        "time": 373.5919702666663,
                        "value": 1
                    },
                    {
                        "number": 64,
                        "time": 374.16284094583295,
                        "value": 0
                    },
                    {
                        "number": 64,
                        "time": 374.30186126666626,
                        "value": 1
                    },
                    {
                        "number": 64,
                        "time": 374.84315315416626,
                        "value": 0
                    },
                    {
                        "number": 64,
                        "time": 375.37557140416624,
                        "value": 1
                    },
                    {
                        "number": 64,
                        "time": 376.2984297041662,
                        "value": 0
                    },
                    {
                        "number": 64,
                        "time": 376.8752161416662,
                        "value": 1
                    },
                    {
                        "number": 64,
                        "time": 377.6945486708329,
                        "value": 0
                    },
                    {
                        "number": 64,
                        "time": 377.97554719166624,
                        "value": 1
                    },
                    {
                        "number": 64,
                        "time": 379.81830591249957,
                        "value": 0
                    },
                    {
                        "number": 64,
                        "time": 380.8358163458329,
                        "value": 1
                    },
                    {
                        "number": 64,
                        "time": 381.97459982499953,
                        "value": 0
                    },
                    {
                        "number": 64,
                        "time": 382.2763034999995,
                        "value": 1
                    },
                    {
                        "number": 64,
                        "time": 383.39142394583286,
                        "value": 0
                    },
                    {
                        "number": 64,
                        "time": 383.55114942083287,
                        "value": 1
                    },
                    {
                        "number": 64,
                        "time": 384.09244130833287,
                        "value": 0
                    },
                    {
                        "number": 64,
                        "time": 384.28174557499955,
                        "value": 1
                    },
                    {
                        "number": 64,
                        "time": 384.80824806666624,
                        "value": 0
                    },
                    {
                        "number": 64,
                        "time": 384.9916365749996,
                        "value": 1
                    },
                    {
                        "number": 64,
                        "time": 385.21643539166627,
                        "value": 0
                    },
                    {
                        "number": 64,
                        "time": 386.3226821999996,
                        "value": 1
                    },
                    {
                        "number": 64,
                        "time": 387.6389384291662,
                        "value": 0
                    },
                    {
                        "number": 64,
                        "time": 388.0323363583329,
                        "value": 1
                    },
                    {
                        "number": 64,
                        "time": 389.0764677041662,
                        "value": 0
                    },
                    {
                        "number": 64,
                        "time": 389.23027742083286,
                        "value": 1
                    },
                    {
                        "number": 64,
                        "time": 390.5051233416662,
                        "value": 0
                    },
                    {
                        "number": 64,
                        "time": 390.77429034583287,
                        "value": 1
                    },
                    {
                        "number": 64,
                        "time": 391.1706461541662,
                        "value": 0
                    },
                    {
                        "number": 64,
                        "time": 391.4013607291662,
                        "value": 1
                    },
                    {
                        "number": 64,
                        "time": 391.9042001874995,
                        "value": 0
                    },
                    {
                        "number": 64,
                        "time": 391.9899786833328,
                        "value": 1
                    },
                    {
                        "number": 64,
                        "time": 393.32989794583284,
                        "value": 0
                    },
                    {
                        "number": 64,
                        "time": 393.74695890833283,
                        "value": 1
                    },
                    {
                        "number": 64,
                        "time": 394.7408063083328,
                        "value": 0
                    },
                    {
                        "number": 64,
                        "time": 394.9301105749995,
                        "value": 1
                    },
                    {
                        "number": 64,
                        "time": 396.16650406666616,
                        "value": 0
                    },
                    {
                        "number": 64,
                        "time": 396.3498925749995,
                        "value": 1
                    },
                    {
                        "number": 64,
                        "time": 396.84977415416614,
                        "value": 0
                    },
                    {
                        "number": 64,
                        "time": 397.0183732666661,
                        "value": 1
                    },
                    {
                        "number": 64,
                        "time": 397.5714966708328,
                        "value": 0
                    },
                    {
                        "number": 64,
                        "time": 397.70755911249944,
                        "value": 1
                    },
                    {
                        "number": 64,
                        "time": 399.0149417041661,
                        "value": 0
                    },
                    {
                        "number": 64,
                        "time": 399.3432662916661,
                        "value": 1
                    },
                    {
                        "number": 64,
                        "time": 400.43176582499945,
                        "value": 0
                    },
                    {
                        "number": 64,
                        "time": 400.8162901166661,
                        "value": 1
                    },
                    {
                        "number": 64,
                        "time": 401.85154782499944,
                        "value": 0
                    },
                    {
                        "number": 64,
                        "time": 402.0704308833328,
                        "value": 1
                    },
                    {
                        "number": 64,
                        "time": 402.5496073083328,
                        "value": 0
                    },
                    {
                        "number": 64,
                        "time": 402.73891157499946,
                        "value": 1
                    },
                    {
                        "number": 64,
                        "time": 403.2476667916661,
                        "value": 0
                    },
                    {
                        "number": 64,
                        "time": 403.8510741416661,
                        "value": 1
                    },
                    {
                        "number": 64,
                        "time": 404.6851960666661,
                        "value": 0
                    },
                    {
                        "number": 64,
                        "time": 405.3477609999994,
                        "value": 1
                    },
                    {
                        "number": 64,
                        "time": 406.0931465499994,
                        "value": 0
                    },
                    {
                        "number": 64,
                        "time": 406.2262511124994,
                        "value": 1
                    },
                    {
                        "number": 64,
                        "time": 408.9327105499994,
                        "value": 0
                    },
                    {
                        "number": 64,
                        "time": 409.04215207916604,
                        "value": 1
                    },
                    {
                        "number": 64,
                        "time": 411.86692668333274,
                        "value": 0
                    }
                ]
            },
            "id": 3,
            "name": "Pedal"
        },
        {
            "startTime": 0,
            "duration": 0,
            "length": 0,
            "notes": [],
            "controlChanges": {},
            "id": 4,
            "name": "Beethoven: Sonate Op. 57 (Appassionata) 2. Satz"
        },
        {
            "startTime": 0,
            "duration": 0,
            "length": 0,
            "notes": [],
            "controlChanges": {},
            "id": 5,
            "name": "Copyright  2001 by Bernd Krger"
        },
        {
            "startTime": 0,
            "duration": 0,
            "length": 0,
            "notes": [],
            "controlChanges": {},
            "id": 6,
            "name": "http://www.piano-midi.de"
        },
        {
            "startTime": 0,
            "duration": 0,
            "length": 0,
            "notes": [],
            "controlChanges": {},
            "id": 7,
            "name": "Edition: 2012-07-25"
        },
        {
            "startTime": 0,
            "duration": 0,
            "length": 0,
            "notes": [],
            "controlChanges": {},
            "id": 8,
            "name": "Spur 8"
        },
        {
            "startTime": 0,
            "duration": 0,
            "length": 0,
            "notes": [],
            "controlChanges": {},
            "id": 9,
            "name": "Spur 9"
        },
        {
            "startTime": 0,
            "duration": 0,
            "length": 0,
            "notes": [],
            "controlChanges": {},
            "id": 10,
            "name": "Spur 10"
        }
    ]
}