{
    "header": {
        "PPQ": 480,
        "timeSignature": [
            4,
            4
        ],
        "bpm": 141.2000593040249,
        "name": "Grande Sonata Opus 22 1. movement"
    },
    "startTime": 0,
    "duration": 454.24910100001046,
    "tracks": [
        {
            "startTime": 0,
            "duration": 0,
            "length": 0,
            "notes": [],
            "controlChanges": {},
            "id": 0,
            "name": "Grande Sonata Opus 22 1. movement"
        },
        {
            "startTime": 1.274787,
            "duration": 454.24910100001046,
            "length": 2899,
            "notes": [
                {
                    "name": "A#3",
                    "midi": 58,
                    "time": 1.274787,
                    "velocity": 0.33070866141732286,
                    "duration": 0.10623224999999992
                },
                {
                    "name": "D4",
                    "midi": 62,
                    "time": 1.274787,
                    "velocity": 0.3937007874015748,
                    "duration": 0.42492899999999967
                },
                {
                    "name": "A3",
                    "midi": 57,
                    "time": 1.3810192499999998,
                    "velocity": 0.31496062992125984,
                    "duration": 0.10623224999999992
                },
                {
                    "name": "A#3",
                    "midi": 58,
                    "time": 1.4872514999999997,
                    "velocity": 0.3543307086614173,
                    "duration": 0.10623224999999992
                },
                {
                    "name": "F3",
                    "midi": 53,
                    "time": 1.5934837499999996,
                    "velocity": 0.30708661417322836,
                    "duration": 0.10623224999999992
                },
                {
                    "name": "D4",
                    "midi": 62,
                    "time": 1.6997159999999996,
                    "velocity": 0.2755905511811024,
                    "duration": 0.0796741875
                },
                {
                    "name": "F4",
                    "midi": 65,
                    "time": 1.6997159999999996,
                    "velocity": 0.33070866141732286,
                    "duration": 0.0796741875
                },
                {
                    "name": "A#3",
                    "midi": 58,
                    "time": 2.1246449999999997,
                    "velocity": 0.25196850393700787,
                    "duration": 0.07967418749999977
                },
                {
                    "name": "D4",
                    "midi": 62,
                    "time": 2.1246449999999997,
                    "velocity": 0.2992125984251969,
                    "duration": 0.07967418749999977
                },
                {
                    "name": "A#3",
                    "midi": 58,
                    "time": 2.9745029999999995,
                    "velocity": 0.33070866141732286,
                    "duration": 0.10623225000000014
                },
                {
                    "name": "D4",
                    "midi": 62,
                    "time": 2.9745029999999995,
                    "velocity": 0.3937007874015748,
                    "duration": 0.42492900000000056
                },
                {
                    "name": "A3",
                    "midi": 57,
                    "time": 3.0807352499999996,
                    "velocity": 0.31496062992125984,
                    "duration": 0.10623225000000014
                },
                {
                    "name": "A#3",
                    "midi": 58,
                    "time": 3.1869674999999997,
                    "velocity": 0.3543307086614173,
                    "duration": 0.10623225000000014
                },
                {
                    "name": "F3",
                    "midi": 53,
                    "time": 3.29319975,
                    "velocity": 0.30708661417322836,
                    "duration": 0.10623225000000014
                },
                {
                    "name": "D4",
                    "midi": 62,
                    "time": 3.399432,
                    "velocity": 0.2755905511811024,
                    "duration": 0.07967418750000022
                },
                {
                    "name": "F4",
                    "midi": 65,
                    "time": 3.399432,
                    "velocity": 0.33070866141732286,
                    "duration": 0.07967418750000022
                },
                {
                    "name": "A#3",
                    "midi": 58,
                    "time": 3.824361,
                    "velocity": 0.25196850393700787,
                    "duration": 0.07967418749999977
                },
                {
                    "name": "D4",
                    "midi": 62,
                    "time": 3.824361,
                    "velocity": 0.2992125984251969,
                    "duration": 0.07967418749999977
                },
                {
                    "name": "D4",
                    "midi": 62,
                    "time": 4.674219,
                    "velocity": 0.3937007874015748,
                    "duration": 0.2124644999999994
                },
                {
                    "name": "A#3",
                    "midi": 58,
                    "time": 4.674219,
                    "velocity": 0.33070866141732286,
                    "duration": 0.11685547499999949
                },
                {
                    "name": "A3",
                    "midi": 57,
                    "time": 4.78045125,
                    "velocity": 0.31496062992125984,
                    "duration": 0.11685547499999949
                },
                {
                    "name": "A#3",
                    "midi": 58,
                    "time": 4.886683499999999,
                    "velocity": 0.36220472440944884,
                    "duration": 0.11685547499999949
                },
                {
                    "name": "F3",
                    "midi": 53,
                    "time": 4.992915749999999,
                    "velocity": 0.31496062992125984,
                    "duration": 0.1062322499999997
                },
                {
                    "name": "F4",
                    "midi": 65,
                    "time": 5.099147999999999,
                    "velocity": 0.41732283464566927,
                    "duration": 0.2124644999999994
                },
                {
                    "name": "D4",
                    "midi": 62,
                    "time": 5.099147999999999,
                    "velocity": 0.3464566929133858,
                    "duration": 0.11685547499999949
                },
                {
                    "name": "C#4",
                    "midi": 61,
                    "time": 5.205380249999998,
                    "velocity": 0.33070866141732286,
                    "duration": 0.11685547499999949
                },
                {
                    "name": "D4",
                    "midi": 62,
                    "time": 5.311612499999998,
                    "velocity": 0.3858267716535433,
                    "duration": 0.11685547499999949
                },
                {
                    "name": "A#3",
                    "midi": 58,
                    "time": 5.417844749999998,
                    "velocity": 0.33070866141732286,
                    "duration": 0.1062322499999997
                },
                {
                    "name": "F4",
                    "midi": 65,
                    "time": 5.5240769999999975,
                    "velocity": 0.3700787401574803,
                    "duration": 0.11685547499999949
                },
                {
                    "name": "A#4",
                    "midi": 70,
                    "time": 5.5240769999999975,
                    "velocity": 0.4409448818897638,
                    "duration": 0.2124644999999994
                },
                {
                    "name": "E4",
                    "midi": 64,
                    "time": 5.630309249999997,
                    "velocity": 0.3543307086614173,
                    "duration": 0.11685547499999949
                },
                {
                    "name": "F4",
                    "midi": 65,
                    "time": 5.736541499999997,
                    "velocity": 0.4015748031496063,
                    "duration": 0.11685547499999949
                },
                {
                    "name": "D4",
                    "midi": 62,
                    "time": 5.8427737499999965,
                    "velocity": 0.3543307086614173,
                    "duration": 0.1062322499999997
                },
                {
                    "name": "A#4",
                    "midi": 70,
                    "time": 5.949005999999996,
                    "velocity": 0.3858267716535433,
                    "duration": 0.11685547499999949
                },
                {
                    "name": "D5",
                    "midi": 74,
                    "time": 5.949005999999996,
                    "velocity": 0.4645669291338583,
                    "duration": 0.2124644999999994
                },
                {
                    "name": "A4",
                    "midi": 69,
                    "time": 6.055238249999996,
                    "velocity": 0.3700787401574803,
                    "duration": 0.11685547499999949
                },
                {
                    "name": "A#4",
                    "midi": 70,
                    "time": 6.161470499999996,
                    "velocity": 0.4251968503937008,
                    "duration": 0.11685547499999949
                },
                {
                    "name": "F4",
                    "midi": 65,
                    "time": 6.267702749999995,
                    "velocity": 0.3700787401574803,
                    "duration": 0.1062322499999997
                },
                {
                    "name": "D5",
                    "midi": 74,
                    "time": 6.373934999999995,
                    "velocity": 0.4094488188976378,
                    "duration": 0.11685547499999949
                },
                {
                    "name": "F5",
                    "midi": 77,
                    "time": 6.373934999999995,
                    "velocity": 0.4881889763779528,
                    "duration": 0.2124644999999994
                },
                {
                    "name": "C#5",
                    "midi": 73,
                    "time": 6.480167249999995,
                    "velocity": 0.3937007874015748,
                    "duration": 0.11685547499999949
                },
                {
                    "name": "D5",
                    "midi": 74,
                    "time": 6.586399499999994,
                    "velocity": 0.44881889763779526,
                    "duration": 0.11685547499999949
                },
                {
                    "name": "A#4",
                    "midi": 70,
                    "time": 6.692631749999994,
                    "velocity": 0.3858267716535433,
                    "duration": 0.1062322499999997
                },
                {
                    "name": "A#5",
                    "midi": 82,
                    "time": 6.798863999999994,
                    "velocity": 0.5669291338582677,
                    "duration": 1.2747870000000008
                },
                {
                    "name": "A5",
                    "midi": 81,
                    "time": 8.073650999999995,
                    "velocity": 0.47244094488188976,
                    "duration": 0.1062322499999997
                },
                {
                    "name": "A#5",
                    "midi": 82,
                    "time": 8.179883249999994,
                    "velocity": 0.44881889763779526,
                    "duration": 0.1062322499999997
                },
                {
                    "name": "C6",
                    "midi": 84,
                    "time": 8.286115499999994,
                    "velocity": 0.47244094488188976,
                    "duration": 0.1062322499999997
                },
                {
                    "name": "A#5",
                    "midi": 82,
                    "time": 8.392347749999994,
                    "velocity": 0.4251968503937008,
                    "duration": 0.1062322499999997
                },
                {
                    "name": "A5",
                    "midi": 81,
                    "time": 8.498579999999993,
                    "velocity": 0.47244094488188976,
                    "duration": 0.2124644999999994
                },
                {
                    "name": "G5",
                    "midi": 79,
                    "time": 8.711044499999993,
                    "velocity": 0.4015748031496063,
                    "duration": 0.2124644999999994
                },
                {
                    "name": "F5",
                    "midi": 77,
                    "time": 8.923508999999992,
                    "velocity": 0.4251968503937008,
                    "duration": 0.2124644999999994
                },
                {
                    "name": "D#5",
                    "midi": 75,
                    "time": 9.135973499999992,
                    "velocity": 0.3937007874015748,
                    "duration": 0.2124644999999994
                },
                {
                    "name": "D5",
                    "midi": 74,
                    "time": 9.348437999999991,
                    "velocity": 0.4645669291338583,
                    "duration": 0.2124644999999994
                },
                {
                    "name": "C5",
                    "midi": 72,
                    "time": 9.56090249999999,
                    "velocity": 0.3779527559055118,
                    "duration": 0.2124644999999994
                },
                {
                    "name": "G5",
                    "midi": 79,
                    "time": 9.77336699999999,
                    "velocity": 0.4409448818897638,
                    "duration": 0.2124644999999994
                },
                {
                    "name": "F5",
                    "midi": 77,
                    "time": 9.985831499999989,
                    "velocity": 0.3700787401574803,
                    "duration": 0.2124644999999994
                },
                {
                    "name": "D#5",
                    "midi": 75,
                    "time": 10.198295999999988,
                    "velocity": 0.4251968503937008,
                    "duration": 0.42492900000000056
                },
                {
                    "name": "D5",
                    "midi": 74,
                    "time": 10.623224999999989,
                    "velocity": 0.3700787401574803,
                    "duration": 0.42492900000000056
                },
                {
                    "name": "A4",
                    "midi": 69,
                    "time": 11.47308299999999,
                    "velocity": 0.4566929133858268,
                    "duration": 0.1062322499999997
                },
                {
                    "name": "A#4",
                    "midi": 70,
                    "time": 11.57931524999999,
                    "velocity": 0.4251968503937008,
                    "duration": 0.1062322499999997
                },
                {
                    "name": "C5",
                    "midi": 72,
                    "time": 11.68554749999999,
                    "velocity": 0.4566929133858268,
                    "duration": 0.1062322499999997
                },
                {
                    "name": "A#4",
                    "midi": 70,
                    "time": 11.79177974999999,
                    "velocity": 0.4251968503937008,
                    "duration": 0.1062322499999997
                },
                {
                    "name": "G#4",
                    "midi": 68,
                    "time": 11.898011999999989,
                    "velocity": 0.47244094488188976,
                    "duration": 0.2124644999999994
                },
                {
                    "name": "G4",
                    "midi": 67,
                    "time": 12.110476499999988,
                    "velocity": 0.4251968503937008,
                    "duration": 0.2124644999999994
                },
                {
                    "name": "F4",
                    "midi": 65,
                    "time": 12.322940999999988,
                    "velocity": 0.5196850393700787,
                    "duration": 0.2124644999999994
                },
                {
                    "name": "D#4",
                    "midi": 63,
                    "time": 12.535405499999987,
                    "velocity": 0.48031496062992124,
                    "duration": 0.2124644999999994
                },
                {
                    "name": "D4",
                    "midi": 62,
                    "time": 12.747869999999986,
                    "velocity": 0.5433070866141733,
                    "duration": 0.2124644999999994
                },
                {
                    "name": "C4",
                    "midi": 60,
                    "time": 12.960334499999986,
                    "velocity": 0.4881889763779528,
                    "duration": 0.2124644999999994
                },
                {
                    "name": "D#4",
                    "midi": 63,
                    "time": 13.172798999999985,
                    "velocity": 0.5748031496062992,
                    "duration": 0.2124644999999994
                },
                {
                    "name": "A3",
                    "midi": 57,
                    "time": 13.385263499999985,
                    "velocity": 0.49606299212598426,
                    "duration": 0.2124644999999994
                },
                {
                    "name": "A#3",
                    "midi": 58,
                    "time": 13.597727999999984,
                    "velocity": 0.6220472440944882,
                    "duration": 0.1062322499999997
                },
                {
                    "name": "D4",
                    "midi": 62,
                    "time": 13.810192499999983,
                    "velocity": 0.5354330708661418,
                    "duration": 0.1062322499999997
                },
                {
                    "name": "C4",
                    "midi": 60,
                    "time": 13.916424749999983,
                    "velocity": 0.5118110236220472,
                    "duration": 0.1062322499999997
                },
                {
                    "name": "A#3",
                    "midi": 58,
                    "time": 14.022656999999983,
                    "velocity": 0.5590551181102362,
                    "duration": 0.1062322499999997
                },
                {
                    "name": "A3",
                    "midi": 57,
                    "time": 14.128889249999983,
                    "velocity": 0.5118110236220472,
                    "duration": 0.1062322499999997
                },
                {
                    "name": "A#3",
                    "midi": 58,
                    "time": 14.235121499999982,
                    "velocity": 0.5590551181102362,
                    "duration": 0.1062322499999997
                },
                {
                    "name": "G3",
                    "midi": 55,
                    "time": 14.341353749999982,
                    "velocity": 0.5118110236220472,
                    "duration": 0.1062322499999997
                },
                {
                    "name": "F3",
                    "midi": 53,
                    "time": 14.447585999999982,
                    "velocity": 0.6220472440944882,
                    "duration": 0.1062322499999997
                },
                {
                    "name": "G4",
                    "midi": 67,
                    "time": 14.660050499999981,
                    "velocity": 0.5354330708661418,
                    "duration": 0.1062322499999997
                },
                {
                    "name": "F4",
                    "midi": 65,
                    "time": 14.76628274999998,
                    "velocity": 0.5118110236220472,
                    "duration": 0.1062322499999997
                },
                {
                    "name": "D#4",
                    "midi": 63,
                    "time": 14.87251499999998,
                    "velocity": 0.5590551181102362,
                    "duration": 0.1062322499999997
                },
                {
                    "name": "D4",
                    "midi": 62,
                    "time": 14.97874724999998,
                    "velocity": 0.5118110236220472,
                    "duration": 0.1062322499999997
                },
                {
                    "name": "D#4",
                    "midi": 63,
                    "time": 15.08497949999998,
                    "velocity": 0.5590551181102362,
                    "duration": 0.1062322499999997
                },
                {
                    "name": "C4",
                    "midi": 60,
                    "time": 15.19121174999998,
                    "velocity": 0.5118110236220472,
                    "duration": 0.1062322499999997
                },
                {
                    "name": "A#3",
                    "midi": 58,
                    "time": 15.29744399999998,
                    "velocity": 0.6220472440944882,
                    "duration": 0.1062322499999997
                },
                {
                    "name": "D5",
                    "midi": 74,
                    "time": 15.509908499999979,
                    "velocity": 0.5354330708661418,
                    "duration": 0.1062322499999997
                },
                {
                    "name": "C5",
                    "midi": 72,
                    "time": 15.616140749999978,
                    "velocity": 0.5118110236220472,
                    "duration": 0.1062322499999997
                },
                {
                    "name": "A#4",
                    "midi": 70,
                    "time": 15.722372999999978,
                    "velocity": 0.5590551181102362,
                    "duration": 0.1062322499999997
                },
                {
                    "name": "A4",
                    "midi": 69,
                    "time": 15.828605249999978,
                    "velocity": 0.5118110236220472,
                    "duration": 0.1062322499999997
                },
                {
                    "name": "A#4",
                    "midi": 70,
                    "time": 15.934837499999977,
                    "velocity": 0.5590551181102362,
                    "duration": 0.1062322499999997
                },
                {
                    "name": "G4",
                    "midi": 67,
                    "time": 16.041069749999977,
                    "velocity": 0.5118110236220472,
                    "duration": 0.10623225000000147
                },
                {
                    "name": "F4",
                    "midi": 65,
                    "time": 16.14730199999998,
                    "velocity": 0.6220472440944882,
                    "duration": 0.10623225000000147
                },
                {
                    "name": "G5",
                    "midi": 79,
                    "time": 16.35976649999998,
                    "velocity": 0.6141732283464567,
                    "duration": 0.10623225000000147
                },
                {
                    "name": "F5",
                    "midi": 77,
                    "time": 16.465998749999983,
                    "velocity": 0.5826771653543307,
                    "duration": 0.10623225000000147
                },
                {
                    "name": "D#5",
                    "midi": 75,
                    "time": 16.572230999999984,
                    "velocity": 0.6377952755905512,
                    "duration": 0.10623225000000147
                },
                {
                    "name": "D5",
                    "midi": 74,
                    "time": 16.678463249999986,
                    "velocity": 0.5826771653543307,
                    "duration": 0.10623225000000147
                },
                {
                    "name": "D#5",
                    "midi": 75,
                    "time": 16.784695499999987,
                    "velocity": 0.6377952755905512,
                    "duration": 0.10623225000000147
                },
                {
                    "name": "C5",
                    "midi": 72,
                    "time": 16.89092774999999,
                    "velocity": 0.5826771653543307,
                    "duration": 0.10623225000000147
                },
                {
                    "name": "A#4",
                    "midi": 70,
                    "time": 16.99715999999999,
                    "velocity": 0.7086614173228346,
                    "duration": 0.10623225000000147
                },
                {
                    "name": "C5",
                    "midi": 72,
                    "time": 17.209624499999993,
                    "velocity": 0.5354330708661418,
                    "duration": 0.10623225000000147
                },
                {
                    "name": "D5",
                    "midi": 74,
                    "time": 17.315856749999995,
                    "velocity": 0.5354330708661418,
                    "duration": 0.10623225000000147
                },
                {
                    "name": "D#5",
                    "midi": 75,
                    "time": 17.422088999999996,
                    "velocity": 0.6062992125984252,
                    "duration": 0.10623225000000147
                },
                {
                    "name": "F5",
                    "midi": 77,
                    "time": 17.528321249999998,
                    "velocity": 0.5511811023622047,
                    "duration": 0.10623225000000147
                },
                {
                    "name": "G5",
                    "midi": 79,
                    "time": 17.6345535,
                    "velocity": 0.5511811023622047,
                    "duration": 0.10623225000000147
                },
                {
                    "name": "A5",
                    "midi": 81,
                    "time": 17.74078575,
                    "velocity": 0.5590551181102362,
                    "duration": 0.10623225000000147
                },
                {
                    "name": "A#5",
                    "midi": 82,
                    "time": 17.847018000000002,
                    "velocity": 0.5748031496062992,
                    "duration": 0.026558062500001256
                },
                {
                    "name": "C6",
                    "midi": 84,
                    "time": 17.873576062500003,
                    "velocity": 0.5118110236220472,
                    "duration": 0.026558062500001256
                },
                {
                    "name": "A#5",
                    "midi": 82,
                    "time": 17.900134125000005,
                    "velocity": 0.6377952755905512,
                    "duration": 0.05311612499999896
                },
                {
                    "name": "A5",
                    "midi": 81,
                    "time": 17.953250250000004,
                    "velocity": 0.5669291338582677,
                    "duration": 0.10623225000000147
                },
                {
                    "name": "A#5",
                    "midi": 82,
                    "time": 18.059482500000005,
                    "velocity": 0.5748031496062992,
                    "duration": 0.10623225000000147
                },
                {
                    "name": "C6",
                    "midi": 84,
                    "time": 18.165714750000006,
                    "velocity": 0.5826771653543307,
                    "duration": 0.10623225000000147
                },
                {
                    "name": "D6",
                    "midi": 86,
                    "time": 18.271947000000008,
                    "velocity": 0.5826771653543307,
                    "duration": 0.026558062500001256
                },
                {
                    "name": "D#6",
                    "midi": 87,
                    "time": 18.29850506250001,
                    "velocity": 0.5196850393700787,
                    "duration": 0.026558062500001256
                },
                {
                    "name": "D6",
                    "midi": 86,
                    "time": 18.32506312500001,
                    "velocity": 0.6535433070866141,
                    "duration": 0.10623224999999792
                },
                {
                    "name": "C6",
                    "midi": 84,
                    "time": 18.37817925000001,
                    "velocity": 0.5905511811023622,
                    "duration": 0.10623224999999792
                },
                {
                    "name": "D6",
                    "midi": 86,
                    "time": 18.484411500000007,
                    "velocity": 0.5984251968503937,
                    "duration": 0.10623225000000147
                },
                {
                    "name": "E6",
                    "midi": 88,
                    "time": 18.59064375000001,
                    "velocity": 0.5984251968503937,
                    "duration": 0.10623225000000147
                },
                {
                    "name": "F6",
                    "midi": 89,
                    "time": 18.69687600000001,
                    "velocity": 0.7244094488188977,
                    "duration": 0.10623225000000147
                },
                {
                    "name": "F4",
                    "midi": 65,
                    "time": 19.121805000000013,
                    "velocity": 0.6220472440944882,
                    "duration": 0.10623225000000147
                },
                {
                    "name": "F5",
                    "midi": 77,
                    "time": 22.946166000000012,
                    "velocity": 0.5905511811023622,
                    "duration": 1.6997159999999987
                },
                {
                    "name": "B4",
                    "midi": 71,
                    "time": 24.220953000000012,
                    "velocity": 0.4409448818897638,
                    "duration": 0.4249289999999988
                },
                {
                    "name": "C5",
                    "midi": 72,
                    "time": 24.64588200000001,
                    "velocity": 0.3464566929133858,
                    "duration": 0.4249289999999988
                },
                {
                    "name": "D#5",
                    "midi": 75,
                    "time": 24.64588200000001,
                    "velocity": 0.41732283464566927,
                    "duration": 0.4249289999999988
                },
                {
                    "name": "A4",
                    "midi": 69,
                    "time": 25.07081100000001,
                    "velocity": 0.3228346456692913,
                    "duration": 0.4249289999999988
                },
                {
                    "name": "D5",
                    "midi": 74,
                    "time": 25.07081100000001,
                    "velocity": 0.3858267716535433,
                    "duration": 0.8498579999999976
                },
                {
                    "name": "A#4",
                    "midi": 70,
                    "time": 25.49574000000001,
                    "velocity": 0.4330708661417323,
                    "duration": 0.4249289999999988
                },
                {
                    "name": "G4",
                    "midi": 67,
                    "time": 25.920669000000007,
                    "velocity": 0.3228346456692913,
                    "duration": 0.4249289999999988
                },
                {
                    "name": "C5",
                    "midi": 72,
                    "time": 25.920669000000007,
                    "velocity": 0.3858267716535433,
                    "duration": 0.8498579999999976
                },
                {
                    "name": "A4",
                    "midi": 69,
                    "time": 26.345598000000006,
                    "velocity": 0.4330708661417323,
                    "duration": 0.4249289999999988
                },
                {
                    "name": "F4",
                    "midi": 65,
                    "time": 26.770527000000005,
                    "velocity": 0.33070866141732286,
                    "duration": 0.4249289999999988
                },
                {
                    "name": "B4",
                    "midi": 71,
                    "time": 26.770527000000005,
                    "velocity": 0.3937007874015748,
                    "duration": 0.4249289999999988
                },
                {
                    "name": "C5",
                    "midi": 72,
                    "time": 27.195456000000004,
                    "velocity": 0.5354330708661418,
                    "duration": 0.10623225000000147
                },
                {
                    "name": "E4",
                    "midi": 64,
                    "time": 27.301688250000005,
                    "velocity": 0.2677165354330709,
                    "duration": 0.10623225000000147
                },
                {
                    "name": "G4",
                    "midi": 67,
                    "time": 27.301688250000005,
                    "velocity": 0.31496062992125984,
                    "duration": 0.10623225000000147
                },
                {
                    "name": "C5",
                    "midi": 72,
                    "time": 27.407920500000007,
                    "velocity": 0.4881889763779528,
                    "duration": 0.10623225000000147
                },
                {
                    "name": "E4",
                    "midi": 64,
                    "time": 27.514152750000008,
                    "velocity": 0.25984251968503935,
                    "duration": 0.10623225000000147
                },
                {
                    "name": "G4",
                    "midi": 67,
                    "time": 27.514152750000008,
                    "velocity": 0.30708661417322836,
                    "duration": 0.10623225000000147
                },
                {
                    "name": "C5",
                    "midi": 72,
                    "time": 27.62038500000001,
                    "velocity": 0.5039370078740157,
                    "duration": 0.10623225000000147
                },
                {
                    "name": "E4",
                    "midi": 64,
                    "time": 27.72661725000001,
                    "velocity": 0.2677165354330709,
                    "duration": 0.10623225000000147
                },
                {
                    "name": "G4",
                    "midi": 67,
                    "time": 27.72661725000001,
                    "velocity": 0.3228346456692913,
                    "duration": 0.10623225000000147
                },
                {
                    "name": "D5",
                    "midi": 74,
                    "time": 27.832849500000012,
                    "velocity": 0.5354330708661418,
                    "duration": 0.10623225000000147
                },
                {
                    "name": "E4",
                    "midi": 64,
                    "time": 27.939081750000014,
                    "velocity": 0.2677165354330709,
                    "duration": 0.10623225000000147
                },
                {
                    "name": "G4",
                    "midi": 67,
                    "time": 27.939081750000014,
                    "velocity": 0.31496062992125984,
                    "duration": 0.10623225000000147
                },
                {
                    "name": "E5",
                    "midi": 76,
                    "time": 28.045314000000015,
                    "velocity": 0.4881889763779528,
                    "duration": 0.10623225000000147
                },
                {
                    "name": "G4",
                    "midi": 67,
                    "time": 28.151546250000017,
                    "velocity": 0.2992125984251969,
                    "duration": 0.10623225000000147
                },
                {
                    "name": "A#4",
                    "midi": 70,
                    "time": 28.151546250000017,
                    "velocity": 0.3543307086614173,
                    "duration": 0.10623225000000147
                },
                {
                    "name": "C5",
                    "midi": 72,
                    "time": 28.25777850000002,
                    "velocity": 0.5354330708661418,
                    "duration": 0.10623225000000147
                },
                {
                    "name": "G4",
                    "midi": 67,
                    "time": 28.36401075000002,
                    "velocity": 0.2992125984251969,
                    "duration": 0.10623225000000147
                },
                {
                    "name": "A#4",
                    "midi": 70,
                    "time": 28.36401075000002,
                    "velocity": 0.3543307086614173,
                    "duration": 0.10623225000000147
                },
                {
                    "name": "D5",
                    "midi": 74,
                    "time": 28.47024300000002,
                    "velocity": 0.5354330708661418,
                    "duration": 0.10623225000000147
                },
                {
                    "name": "G4",
                    "midi": 67,
                    "time": 28.576475250000023,
                    "velocity": 0.2992125984251969,
                    "duration": 0.10623225000000147
                },
                {
                    "name": "A#4",
                    "midi": 70,
                    "time": 28.576475250000023,
                    "velocity": 0.3543307086614173,
                    "duration": 0.10623225000000147
                },
                {
                    "name": "E5",
                    "midi": 76,
                    "time": 28.682707500000024,
                    "velocity": 0.5511811023622047,
                    "duration": 0.10623225000000147
                },
                {
                    "name": "G4",
                    "midi": 67,
                    "time": 28.788939750000026,
                    "velocity": 0.2992125984251969,
                    "duration": 0.10623225000000147
                },
                {
                    "name": "A#4",
                    "midi": 70,
                    "time": 28.788939750000026,
                    "velocity": 0.3543307086614173,
                    "duration": 0.10623225000000147
                },
                {
                    "name": "F5",
                    "midi": 77,
                    "time": 28.895172000000027,
                    "velocity": 0.5354330708661418,
                    "duration": 0.10623225000000147
                },
                {
                    "name": "F4",
                    "midi": 65,
                    "time": 29.00140425000003,
                    "velocity": 0.2677165354330709,
                    "duration": 0.10623225000000147
                },
                {
                    "name": "A4",
                    "midi": 69,
                    "time": 29.00140425000003,
                    "velocity": 0.31496062992125984,
                    "duration": 0.10623225000000147
                },
                {
                    "name": "F5",
                    "midi": 77,
                    "time": 29.10763650000003,
                    "velocity": 0.4881889763779528,
                    "duration": 0.10623225000000147
                },
                {
                    "name": "F4",
                    "midi": 65,
                    "time": 29.21386875000003,
                    "velocity": 0.25984251968503935,
                    "duration": 0.10623225000000147
                },
                {
                    "name": "A4",
                    "midi": 69,
                    "time": 29.21386875000003,
                    "velocity": 0.30708661417322836,
                    "duration": 0.10623225000000147
                },
                {
                    "name": "F5",
                    "midi": 77,
                    "time": 29.320101000000033,
                    "velocity": 0.5039370078740157,
                    "duration": 0.10623225000000147
                },
                {
                    "name": "F4",
                    "midi": 65,
                    "time": 29.426333250000035,
                    "velocity": 0.2677165354330709,
                    "duration": 0.10623225000000147
                },
                {
                    "name": "A4",
                    "midi": 69,
                    "time": 29.426333250000035,
                    "velocity": 0.3228346456692913,
                    "duration": 0.10623225000000147
                },
                {
                    "name": "E5",
                    "midi": 76,
                    "time": 29.532565500000036,
                    "velocity": 0.5354330708661418,
                    "duration": 0.10623225000000147
                },
                {
                    "name": "F4",
                    "midi": 65,
                    "time": 29.638797750000037,
                    "velocity": 0.2677165354330709,
                    "duration": 0.10623225000000147
                },
                {
                    "name": "A4",
                    "midi": 69,
                    "time": 29.638797750000037,
                    "velocity": 0.31496062992125984,
                    "duration": 0.10623225000000147
                },
                {
                    "name": "D5",
                    "midi": 74,
                    "time": 29.74503000000004,
                    "velocity": 0.4881889763779528,
                    "duration": 0.10623225000000147
                },
                {
                    "name": "F4",
                    "midi": 65,
                    "time": 29.85126225000004,
                    "velocity": 0.2992125984251969,
                    "duration": 0.10623225000000147
                },
                {
                    "name": "G#4",
                    "midi": 68,
                    "time": 29.85126225000004,
                    "velocity": 0.3543307086614173,
                    "duration": 0.10623225000000147
                },
                {
                    "name": "C5",
                    "midi": 72,
                    "time": 29.957494500000042,
                    "velocity": 0.5354330708661418,
                    "duration": 0.10623225000000147
                },
                {
                    "name": "F4",
                    "midi": 65,
                    "time": 30.063726750000043,
                    "velocity": 0.2992125984251969,
                    "duration": 0.10623225000000147
                },
                {
                    "name": "G#4",
                    "midi": 68,
                    "time": 30.063726750000043,
                    "velocity": 0.3543307086614173,
                    "duration": 0.10623225000000147
                },
                {
                    "name": "B4",
                    "midi": 71,
                    "time": 30.169959000000045,
                    "velocity": 0.5354330708661418,
                    "duration": 0.10623225000000147
                },
                {
                    "name": "F4",
                    "midi": 65,
                    "time": 30.276191250000046,
                    "velocity": 0.2992125984251969,
                    "duration": 0.10623225000000147
                },
                {
                    "name": "G#4",
                    "midi": 68,
                    "time": 30.276191250000046,
                    "velocity": 0.3543307086614173,
                    "duration": 0.10623225000000147
                },
                {
                    "name": "D5",
                    "midi": 74,
                    "time": 30.382423500000048,
                    "velocity": 0.5511811023622047,
                    "duration": 0.10623225000000147
                },
                {
                    "name": "F4",
                    "midi": 65,
                    "time": 30.48865575000005,
                    "velocity": 0.2992125984251969,
                    "duration": 0.10623225000000147
                },
                {
                    "name": "G#4",
                    "midi": 68,
                    "time": 30.48865575000005,
                    "velocity": 0.3543307086614173,
                    "duration": 0.10623225000000147
                },
                {
                    "name": "C5",
                    "midi": 72,
                    "time": 30.59488800000005,
                    "velocity": 0.5354330708661418,
                    "duration": 0.10623225000000147
                },
                {
                    "name": "E4",
                    "midi": 64,
                    "time": 30.701120250000052,
                    "velocity": 0.2677165354330709,
                    "duration": 0.10623225000000147
                },
                {
                    "name": "G4",
                    "midi": 67,
                    "time": 30.701120250000052,
                    "velocity": 0.31496062992125984,
                    "duration": 0.10623225000000147
                },
                {
                    "name": "B4",
                    "midi": 71,
                    "time": 30.807352500000054,
                    "velocity": 0.4881889763779528,
                    "duration": 0.10623225000000147
                },
                {
                    "name": "E4",
                    "midi": 64,
                    "time": 30.913584750000055,
                    "velocity": 0.25984251968503935,
                    "duration": 0.10623225000000147
                },
                {
                    "name": "G4",
                    "midi": 67,
                    "time": 30.913584750000055,
                    "velocity": 0.30708661417322836,
                    "duration": 0.10623225000000147
                },
                {
                    "name": "C5",
                    "midi": 72,
                    "time": 31.019817000000057,
                    "velocity": 0.5039370078740157,
                    "duration": 0.10623225000000147
                },
                {
                    "name": "E4",
                    "midi": 64,
                    "time": 31.126049250000058,
                    "velocity": 0.2677165354330709,
                    "duration": 0.10623225000000147
                },
                {
                    "name": "G4",
                    "midi": 67,
                    "time": 31.126049250000058,
                    "velocity": 0.3228346456692913,
                    "duration": 0.10623225000000147
                },
                {
                    "name": "D5",
                    "midi": 74,
                    "time": 31.23228150000006,
                    "velocity": 0.5354330708661418,
                    "duration": 0.10623225000000147
                },
                {
                    "name": "E4",
                    "midi": 64,
                    "time": 31.33851375000006,
                    "velocity": 0.2677165354330709,
                    "duration": 0.10623225000000147
                },
                {
                    "name": "G4",
                    "midi": 67,
                    "time": 31.33851375000006,
                    "velocity": 0.31496062992125984,
                    "duration": 0.10623225000000147
                },
                {
                    "name": "E5",
                    "midi": 76,
                    "time": 31.444746000000062,
                    "velocity": 0.4881889763779528,
                    "duration": 0.10623225000000147
                },
                {
                    "name": "G4",
                    "midi": 67,
                    "time": 31.550978250000064,
                    "velocity": 0.2992125984251969,
                    "duration": 0.10623225000000147
                },
                {
                    "name": "A#4",
                    "midi": 70,
                    "time": 31.550978250000064,
                    "velocity": 0.3543307086614173,
                    "duration": 0.10623225000000147
                },
                {
                    "name": "C5",
                    "midi": 72,
                    "time": 31.657210500000065,
                    "velocity": 0.5354330708661418,
                    "duration": 0.10623225000000147
                },
                {
                    "name": "G4",
                    "midi": 67,
                    "time": 31.763442750000067,
                    "velocity": 0.2992125984251969,
                    "duration": 0.10623225000000147
                },
                {
                    "name": "A#4",
                    "midi": 70,
                    "time": 31.763442750000067,
                    "velocity": 0.3543307086614173,
                    "duration": 0.10623225000000147
                },
                {
                    "name": "D5",
                    "midi": 74,
                    "time": 31.86967500000007,
                    "velocity": 0.5354330708661418,
                    "duration": 0.10623225000000147
                },
                {
                    "name": "G4",
                    "midi": 67,
                    "time": 31.97590725000007,
                    "velocity": 0.2992125984251969,
                    "duration": 0.10623224999999792
                },
                {
                    "name": "A#4",
                    "midi": 70,
                    "time": 31.97590725000007,
                    "velocity": 0.3543307086614173,
                    "duration": 0.10623224999999792
                },
                {
                    "name": "E5",
                    "midi": 76,
                    "time": 32.08213950000007,
                    "velocity": 0.5511811023622047,
                    "duration": 0.10623224999999792
                },
                {
                    "name": "G4",
                    "midi": 67,
                    "time": 32.188371750000066,
                    "velocity": 0.2992125984251969,
                    "duration": 0.10623224999999792
                },
                {
                    "name": "A#4",
                    "midi": 70,
                    "time": 32.188371750000066,
                    "velocity": 0.3543307086614173,
                    "duration": 0.10623224999999792
                },
                {
                    "name": "F5",
                    "midi": 77,
                    "time": 32.294604000000064,
                    "velocity": 0.5354330708661418,
                    "duration": 0.10623224999999792
                },
                {
                    "name": "F4",
                    "midi": 65,
                    "time": 32.40083625000006,
                    "velocity": 0.2677165354330709,
                    "duration": 0.10623224999999792
                },
                {
                    "name": "A4",
                    "midi": 69,
                    "time": 32.40083625000006,
                    "velocity": 0.31496062992125984,
                    "duration": 0.10623224999999792
                },
                {
                    "name": "F5",
                    "midi": 77,
                    "time": 32.50706850000006,
                    "velocity": 0.4881889763779528,
                    "duration": 0.10623224999999792
                },
                {
                    "name": "F4",
                    "midi": 65,
                    "time": 32.61330075000006,
                    "velocity": 0.25984251968503935,
                    "duration": 0.10623224999999792
                },
                {
                    "name": "A4",
                    "midi": 69,
                    "time": 32.61330075000006,
                    "velocity": 0.30708661417322836,
                    "duration": 0.10623224999999792
                },
                {
                    "name": "F5",
                    "midi": 77,
                    "time": 32.719533000000055,
                    "velocity": 0.5039370078740157,
                    "duration": 0.10623224999999792
                },
                {
                    "name": "F4",
                    "midi": 65,
                    "time": 32.82576525000005,
                    "velocity": 0.2677165354330709,
                    "duration": 0.10623224999999792
                },
                {
                    "name": "A4",
                    "midi": 69,
                    "time": 32.82576525000005,
                    "velocity": 0.3228346456692913,
                    "duration": 0.10623224999999792
                },
                {
                    "name": "E5",
                    "midi": 76,
                    "time": 32.93199750000005,
                    "velocity": 0.5354330708661418,
                    "duration": 0.10623224999999792
                },
                {
                    "name": "F4",
                    "midi": 65,
                    "time": 33.03822975000005,
                    "velocity": 0.2677165354330709,
                    "duration": 0.10623224999999792
                },
                {
                    "name": "A4",
                    "midi": 69,
                    "time": 33.03822975000005,
                    "velocity": 0.31496062992125984,
                    "duration": 0.10623224999999792
                },
                {
                    "name": "D5",
                    "midi": 74,
                    "time": 33.14446200000005,
                    "velocity": 0.4881889763779528,
                    "duration": 0.10623224999999792
                },
                {
                    "name": "F4",
                    "midi": 65,
                    "time": 33.250694250000045,
                    "velocity": 0.2992125984251969,
                    "duration": 0.10623224999999792
                },
                {
                    "name": "G#4",
                    "midi": 68,
                    "time": 33.250694250000045,
                    "velocity": 0.3543307086614173,
                    "duration": 0.10623224999999792
                },
                {
                    "name": "C5",
                    "midi": 72,
                    "time": 33.35692650000004,
                    "velocity": 0.5354330708661418,
                    "duration": 0.10623224999999792
                },
                {
                    "name": "F4",
                    "midi": 65,
                    "time": 33.46315875000004,
                    "velocity": 0.2992125984251969,
                    "duration": 0.10623224999999792
                },
                {
                    "name": "G#4",
                    "midi": 68,
                    "time": 33.46315875000004,
                    "velocity": 0.3543307086614173,
                    "duration": 0.10623224999999792
                },
                {
                    "name": "B4",
                    "midi": 71,
                    "time": 33.56939100000004,
                    "velocity": 0.5354330708661418,
                    "duration": 0.10623224999999792
                },
                {
                    "name": "F4",
                    "midi": 65,
                    "time": 33.67562325000004,
                    "velocity": 0.2992125984251969,
                    "duration": 0.10623224999999792
                },
                {
                    "name": "G#4",
                    "midi": 68,
                    "time": 33.67562325000004,
                    "velocity": 0.3543307086614173,
                    "duration": 0.10623224999999792
                },
                {
                    "name": "D5",
                    "midi": 74,
                    "time": 33.781855500000034,
                    "velocity": 0.5511811023622047,
                    "duration": 0.10623224999999792
                },
                {
                    "name": "F4",
                    "midi": 65,
                    "time": 33.88808775000003,
                    "velocity": 0.2992125984251969,
                    "duration": 0.10623224999999792
                },
                {
                    "name": "G#4",
                    "midi": 68,
                    "time": 33.88808775000003,
                    "velocity": 0.3543307086614173,
                    "duration": 0.10623224999999792
                },
                {
                    "name": "C5",
                    "midi": 72,
                    "time": 33.99432000000003,
                    "velocity": 0.6141732283464567,
                    "duration": 0.10623224999999792
                },
                {
                    "name": "E4",
                    "midi": 64,
                    "time": 34.10055225000003,
                    "velocity": 0.2992125984251969,
                    "duration": 0.10623224999999792
                },
                {
                    "name": "G4",
                    "midi": 67,
                    "time": 34.10055225000003,
                    "velocity": 0.3543307086614173,
                    "duration": 0.10623224999999792
                },
                {
                    "name": "C5",
                    "midi": 72,
                    "time": 34.206784500000026,
                    "velocity": 0.5354330708661418,
                    "duration": 0.10623224999999792
                },
                {
                    "name": "E4",
                    "midi": 64,
                    "time": 34.313016750000024,
                    "velocity": 0.2992125984251969,
                    "duration": 0.10623224999999792
                },
                {
                    "name": "G4",
                    "midi": 67,
                    "time": 34.313016750000024,
                    "velocity": 0.3543307086614173,
                    "duration": 0.10623224999999792
                },
                {
                    "name": "B4",
                    "midi": 71,
                    "time": 34.41924900000002,
                    "velocity": 0.5354330708661418,
                    "duration": 0.10623224999999792
                },
                {
                    "name": "F4",
                    "midi": 65,
                    "time": 34.52548125000002,
                    "velocity": 0.2992125984251969,
                    "duration": 0.10623224999999792
                },
                {
                    "name": "G#4",
                    "midi": 68,
                    "time": 34.52548125000002,
                    "velocity": 0.3543307086614173,
                    "duration": 0.10623224999999792
                },
                {
                    "name": "D5",
                    "midi": 74,
                    "time": 34.63171350000002,
                    "velocity": 0.5511811023622047,
                    "duration": 0.10623224999999792
                },
                {
                    "name": "F4",
                    "midi": 65,
                    "time": 34.737945750000016,
                    "velocity": 0.2992125984251969,
                    "duration": 0.10623224999999792
                },
                {
                    "name": "G#4",
                    "midi": 68,
                    "time": 34.737945750000016,
                    "velocity": 0.3543307086614173,
                    "duration": 0.10623224999999792
                },
                {
                    "name": "C5",
                    "midi": 72,
                    "time": 34.844178000000014,
                    "velocity": 0.5984251968503937,
                    "duration": 0.10623224999999792
                },
                {
                    "name": "E4",
                    "midi": 64,
                    "time": 34.95041025000001,
                    "velocity": 0.2992125984251969,
                    "duration": 0.10623224999999792
                },
                {
                    "name": "G4",
                    "midi": 67,
                    "time": 34.95041025000001,
                    "velocity": 0.3543307086614173,
                    "duration": 0.10623224999999792
                },
                {
                    "name": "C5",
                    "midi": 72,
                    "time": 35.05664250000001,
                    "velocity": 0.5354330708661418,
                    "duration": 0.10623224999999792
                },
                {
                    "name": "E4",
                    "midi": 64,
                    "time": 35.16287475000001,
                    "velocity": 0.2992125984251969,
                    "duration": 0.10623224999999792
                },
                {
                    "name": "G4",
                    "midi": 67,
                    "time": 35.16287475000001,
                    "velocity": 0.3543307086614173,
                    "duration": 0.10623224999999792
                },
                {
                    "name": "B4",
                    "midi": 71,
                    "time": 35.269107000000005,
                    "velocity": 0.5354330708661418,
                    "duration": 0.10623224999999792
                },
                {
                    "name": "F4",
                    "midi": 65,
                    "time": 35.37533925,
                    "velocity": 0.2992125984251969,
                    "duration": 0.10623224999999792
                },
                {
                    "name": "G#4",
                    "midi": 68,
                    "time": 35.37533925,
                    "velocity": 0.3543307086614173,
                    "duration": 0.10623224999999792
                },
                {
                    "name": "D5",
                    "midi": 74,
                    "time": 35.4815715,
                    "velocity": 0.5511811023622047,
                    "duration": 0.10623224999999792
                },
                {
                    "name": "F4",
                    "midi": 65,
                    "time": 35.58780375,
                    "velocity": 0.2992125984251969,
                    "duration": 0.10623224999999792
                },
                {
                    "name": "G#4",
                    "midi": 68,
                    "time": 35.58780375,
                    "velocity": 0.3543307086614173,
                    "duration": 0.10623224999999792
                },
                {
                    "name": "E4",
                    "midi": 64,
                    "time": 35.694036,
                    "velocity": 0.4645669291338583,
                    "duration": 0.10623224999999792
                },
                {
                    "name": "G4",
                    "midi": 67,
                    "time": 35.694036,
                    "velocity": 0.4645669291338583,
                    "duration": 0.10623224999999792
                },
                {
                    "name": "C5",
                    "midi": 72,
                    "time": 35.694036,
                    "velocity": 0.5511811023622047,
                    "duration": 0.10623224999999792
                },
                {
                    "name": "C4",
                    "midi": 60,
                    "time": 35.800268249999995,
                    "velocity": 0.2755905511811024,
                    "duration": 0.11685547500000126
                },
                {
                    "name": "D4",
                    "midi": 62,
                    "time": 35.90650049999999,
                    "velocity": 0.31496062992125984,
                    "duration": 0.11685547500000837
                },
                {
                    "name": "E4",
                    "midi": 64,
                    "time": 36.01273275,
                    "velocity": 0.2755905511811024,
                    "duration": 0.11685547500000837
                },
                {
                    "name": "F4",
                    "midi": 65,
                    "time": 36.118965,
                    "velocity": 0.31496062992125984,
                    "duration": 0.11685547500000837
                },
                {
                    "name": "G4",
                    "midi": 67,
                    "time": 36.22519725000001,
                    "velocity": 0.2755905511811024,
                    "duration": 0.11685547500000837
                },
                {
                    "name": "A4",
                    "midi": 69,
                    "time": 36.33142950000001,
                    "velocity": 0.31496062992125984,
                    "duration": 0.11685547500000837
                },
                {
                    "name": "B4",
                    "midi": 71,
                    "time": 36.43766175000002,
                    "velocity": 0.25984251968503935,
                    "duration": 0.11685547500000837
                },
                {
                    "name": "C5",
                    "midi": 72,
                    "time": 36.54389400000002,
                    "velocity": 0.31496062992125984,
                    "duration": 0.11685547500000837
                },
                {
                    "name": "B4",
                    "midi": 71,
                    "time": 36.65012625000003,
                    "velocity": 0.25984251968503935,
                    "duration": 0.11685547500000837
                },
                {
                    "name": "C5",
                    "midi": 72,
                    "time": 36.75635850000003,
                    "velocity": 0.31496062992125984,
                    "duration": 0.11685547500000837
                },
                {
                    "name": "B4",
                    "midi": 71,
                    "time": 36.86259075000004,
                    "velocity": 0.25984251968503935,
                    "duration": 0.11685547500000837
                },
                {
                    "name": "C5",
                    "midi": 72,
                    "time": 36.96882300000004,
                    "velocity": 0.31496062992125984,
                    "duration": 0.11685547500000837
                },
                {
                    "name": "B4",
                    "midi": 71,
                    "time": 37.07505525000005,
                    "velocity": 0.2677165354330709,
                    "duration": 0.11685547500000837
                },
                {
                    "name": "C5",
                    "midi": 72,
                    "time": 37.18128750000005,
                    "velocity": 0.31496062992125984,
                    "duration": 0.11685547500000837
                },
                {
                    "name": "B4",
                    "midi": 71,
                    "time": 37.28751975000006,
                    "velocity": 0.25984251968503935,
                    "duration": 0.10623225000000502
                },
                {
                    "name": "A4",
                    "midi": 69,
                    "time": 37.39375200000006,
                    "velocity": 0.2992125984251969,
                    "duration": 0.8498579999999976
                },
                {
                    "name": "C5",
                    "midi": 72,
                    "time": 37.39375200000006,
                    "velocity": 0.33858267716535434,
                    "duration": 0.8498579999999976
                },
                {
                    "name": "A4",
                    "midi": 69,
                    "time": 38.24361000000006,
                    "velocity": 0.3858267716535433,
                    "duration": 0.4249289999999988
                },
                {
                    "name": "F5",
                    "midi": 77,
                    "time": 38.66853900000006,
                    "velocity": 0.3700787401574803,
                    "duration": 0.4249289999999988
                },
                {
                    "name": "A4",
                    "midi": 69,
                    "time": 39.09346800000006,
                    "velocity": 0.3228346456692913,
                    "duration": 0.4249289999999988
                },
                {
                    "name": "C5",
                    "midi": 72,
                    "time": 39.09346800000006,
                    "velocity": 0.3858267716535433,
                    "duration": 0.4249289999999988
                },
                {
                    "name": "A5",
                    "midi": 81,
                    "time": 39.51839700000006,
                    "velocity": 0.33858267716535434,
                    "duration": 0.4249289999999988
                },
                {
                    "name": "F5",
                    "midi": 77,
                    "time": 39.51839700000006,
                    "velocity": 0.28346456692913385,
                    "duration": 0.4249289999999988
                },
                {
                    "name": "A4",
                    "midi": 69,
                    "time": 39.943326000000056,
                    "velocity": 0.33070866141732286,
                    "duration": 0.4249289999999988
                },
                {
                    "name": "C5",
                    "midi": 72,
                    "time": 39.943326000000056,
                    "velocity": 0.3937007874015748,
                    "duration": 0.4249289999999988
                },
                {
                    "name": "C6",
                    "midi": 84,
                    "time": 40.368255000000055,
                    "velocity": 0.33858267716535434,
                    "duration": 0.4249289999999988
                },
                {
                    "name": "A5",
                    "midi": 81,
                    "time": 40.368255000000055,
                    "velocity": 0.28346456692913385,
                    "duration": 0.4249289999999988
                },
                {
                    "name": "A4",
                    "midi": 69,
                    "time": 40.79318400000005,
                    "velocity": 0.2992125984251969,
                    "duration": 0.8498579999999976
                },
                {
                    "name": "C5",
                    "midi": 72,
                    "time": 40.79318400000005,
                    "velocity": 0.33858267716535434,
                    "duration": 0.8498579999999976
                },
                {
                    "name": "A4",
                    "midi": 69,
                    "time": 41.64304200000005,
                    "velocity": 0.3858267716535433,
                    "duration": 0.4249289999999988
                },
                {
                    "name": "F5",
                    "midi": 77,
                    "time": 42.06797100000005,
                    "velocity": 0.36220472440944884,
                    "duration": 0.4249289999999988
                },
                {
                    "name": "A4",
                    "midi": 69,
                    "time": 42.49290000000005,
                    "velocity": 0.3228346456692913,
                    "duration": 0.4249289999999988
                },
                {
                    "name": "C5",
                    "midi": 72,
                    "time": 42.49290000000005,
                    "velocity": 0.3858267716535433,
                    "duration": 0.4249289999999988
                },
                {
                    "name": "A5",
                    "midi": 81,
                    "time": 42.91782900000005,
                    "velocity": 0.33858267716535434,
                    "duration": 0.4249289999999988
                },
                {
                    "name": "F5",
                    "midi": 77,
                    "time": 42.91782900000005,
                    "velocity": 0.28346456692913385,
                    "duration": 0.4249289999999988
                },
                {
                    "name": "A4",
                    "midi": 69,
                    "time": 43.342758000000046,
                    "velocity": 0.33070866141732286,
                    "duration": 0.4249289999999988
                },
                {
                    "name": "C5",
                    "midi": 72,
                    "time": 43.342758000000046,
                    "velocity": 0.3937007874015748,
                    "duration": 0.4249289999999988
                },
                {
                    "name": "C6",
                    "midi": 84,
                    "time": 43.767687000000045,
                    "velocity": 0.33858267716535434,
                    "duration": 0.4249289999999988
                },
                {
                    "name": "A5",
                    "midi": 81,
                    "time": 43.767687000000045,
                    "velocity": 0.28346456692913385,
                    "duration": 0.4249289999999988
                },
                {
                    "name": "A4",
                    "midi": 69,
                    "time": 44.192616000000044,
                    "velocity": 0.3228346456692913,
                    "duration": 0.8498579999999976
                },
                {
                    "name": "C5",
                    "midi": 72,
                    "time": 44.192616000000044,
                    "velocity": 0.3228346456692913,
                    "duration": 0.8498579999999976
                },
                {
                    "name": "D5",
                    "midi": 74,
                    "time": 44.192616000000044,
                    "velocity": 0.3858267716535433,
                    "duration": 0.8498579999999976
                },
                {
                    "name": "F#5",
                    "midi": 78,
                    "time": 44.192616000000044,
                    "velocity": 0.3858267716535433,
                    "duration": 0.8498579999999976
                },
                {
                    "name": "F#5",
                    "midi": 78,
                    "time": 46.317261000000045,
                    "velocity": 0.5511811023622047,
                    "duration": 0.4249289999999988
                },
                {
                    "name": "A5",
                    "midi": 81,
                    "time": 46.74219000000004,
                    "velocity": 0.5354330708661418,
                    "duration": 0.4249289999999988
                },
                {
                    "name": "C6",
                    "midi": 84,
                    "time": 47.16711900000004,
                    "velocity": 0.5196850393700787,
                    "duration": 0.8498579999999976
                },
                {
                    "name": "F#5",
                    "midi": 78,
                    "time": 47.59204800000004,
                    "velocity": 0.5669291338582677,
                    "duration": 0.8498579999999976
                },
                {
                    "name": "A#5",
                    "midi": 82,
                    "time": 48.01697700000004,
                    "velocity": 0.5748031496062992,
                    "duration": 1.6997159999999951
                },
                {
                    "name": "G5",
                    "midi": 79,
                    "time": 48.44190600000004,
                    "velocity": 0.5905511811023622,
                    "duration": 1.2747869999999963
                },
                {
                    "name": "C#5",
                    "midi": 73,
                    "time": 48.86683500000004,
                    "velocity": 0.5196850393700787,
                    "duration": 0.4249289999999988
                },
                {
                    "name": "C5",
                    "midi": 72,
                    "time": 49.291764000000036,
                    "velocity": 0.5826771653543307,
                    "duration": 0.8498579999999976
                },
                {
                    "name": "A5",
                    "midi": 81,
                    "time": 49.716693000000035,
                    "velocity": 0.5275590551181102,
                    "duration": 0.4249289999999988
                },
                {
                    "name": "F5",
                    "midi": 77,
                    "time": 49.716693000000035,
                    "velocity": 0.44881889763779526,
                    "duration": 0.4249289999999988
                },
                {
                    "name": "A#4",
                    "midi": 70,
                    "time": 50.141622000000034,
                    "velocity": 0.48031496062992124,
                    "duration": 0.4249289999999988
                },
                {
                    "name": "D5",
                    "midi": 74,
                    "time": 50.141622000000034,
                    "velocity": 0.48031496062992124,
                    "duration": 0.4249289999999988
                },
                {
                    "name": "G5",
                    "midi": 79,
                    "time": 50.141622000000034,
                    "velocity": 0.5669291338582677,
                    "duration": 0.4249289999999988
                },
                {
                    "name": "G4",
                    "midi": 67,
                    "time": 50.56655100000003,
                    "velocity": 0.41732283464566927,
                    "duration": 0.4249289999999988
                },
                {
                    "name": "A#4",
                    "midi": 70,
                    "time": 50.56655100000003,
                    "velocity": 0.41732283464566927,
                    "duration": 0.4249289999999988
                },
                {
                    "name": "E5",
                    "midi": 76,
                    "time": 50.56655100000003,
                    "velocity": 0.5039370078740157,
                    "duration": 0.4249289999999988
                },
                {
                    "name": "F4",
                    "midi": 65,
                    "time": 50.99148000000003,
                    "velocity": 0.5039370078740157,
                    "duration": 0.21246450000000294
                },
                {
                    "name": "A4",
                    "midi": 69,
                    "time": 50.99148000000003,
                    "velocity": 0.5039370078740157,
                    "duration": 0.21246450000000294
                },
                {
                    "name": "F5",
                    "midi": 77,
                    "time": 50.99148000000003,
                    "velocity": 0.6062992125984252,
                    "duration": 0.21246450000000294
                },
                {
                    "name": "F4",
                    "midi": 65,
                    "time": 51.841338000000036,
                    "velocity": 0.5748031496062992,
                    "duration": 0.8410053125000019
                },
                {
                    "name": "A4",
                    "midi": 69,
                    "time": 51.841338000000036,
                    "velocity": 0.6929133858267716,
                    "duration": 0.8498580000000047
                },
                {
                    "name": "D4",
                    "midi": 62,
                    "time": 52.69119600000004,
                    "velocity": 0.44881889763779526,
                    "duration": 0.4160763125000031
                },
                {
                    "name": "F4",
                    "midi": 65,
                    "time": 52.69119600000004,
                    "velocity": 0.5354330708661418,
                    "duration": 0.4249290000000059
                },
                {
                    "name": "A#3",
                    "midi": 58,
                    "time": 53.116125000000046,
                    "velocity": 0.4645669291338583,
                    "duration": 0.21246450000000294
                },
                {
                    "name": "D4",
                    "midi": 62,
                    "time": 53.116125000000046,
                    "velocity": 0.5511811023622047,
                    "duration": 0.21246450000000294
                },
                {
                    "name": "G4",
                    "midi": 67,
                    "time": 53.54105400000005,
                    "velocity": 0.5748031496062992,
                    "duration": 0.6373935000000017
                },
                {
                    "name": "A#4",
                    "midi": 70,
                    "time": 53.54105400000005,
                    "velocity": 0.6929133858267716,
                    "duration": 0.6373935000000017
                },
                {
                    "name": "F4",
                    "midi": 65,
                    "time": 54.178447500000054,
                    "velocity": 0.44881889763779526,
                    "duration": 0.21246450000000294
                },
                {
                    "name": "A4",
                    "midi": 69,
                    "time": 54.178447500000054,
                    "velocity": 0.5354330708661418,
                    "duration": 0.21246450000000294
                },
                {
                    "name": "G4",
                    "midi": 67,
                    "time": 54.39091200000006,
                    "velocity": 0.6062992125984252,
                    "duration": 0.4249290000000059
                },
                {
                    "name": "E4",
                    "midi": 64,
                    "time": 54.39091200000006,
                    "velocity": 0.5039370078740157,
                    "duration": 0.4160763125000031
                },
                {
                    "name": "C4",
                    "midi": 60,
                    "time": 54.81584100000006,
                    "velocity": 0.44881889763779526,
                    "duration": 0.21246450000000294
                },
                {
                    "name": "E4",
                    "midi": 64,
                    "time": 54.81584100000006,
                    "velocity": 0.5354330708661418,
                    "duration": 0.21246450000000294
                },
                {
                    "name": "A4",
                    "midi": 69,
                    "time": 55.24077000000007,
                    "velocity": 0.5748031496062992,
                    "duration": 0.8410053125000019
                },
                {
                    "name": "C5",
                    "midi": 72,
                    "time": 55.24077000000007,
                    "velocity": 0.6929133858267716,
                    "duration": 0.8498580000000047
                },
                {
                    "name": "F4",
                    "midi": 65,
                    "time": 56.09062800000007,
                    "velocity": 0.44881889763779526,
                    "duration": 0.4160763125000031
                },
                {
                    "name": "A4",
                    "midi": 69,
                    "time": 56.09062800000007,
                    "velocity": 0.5354330708661418,
                    "duration": 0.4249290000000059
                },
                {
                    "name": "D4",
                    "midi": 62,
                    "time": 56.51555700000008,
                    "velocity": 0.4645669291338583,
                    "duration": 0.21246450000000294
                },
                {
                    "name": "F4",
                    "midi": 65,
                    "time": 56.51555700000008,
                    "velocity": 0.5511811023622047,
                    "duration": 0.21246450000000294
                },
                {
                    "name": "A#4",
                    "midi": 70,
                    "time": 56.940486000000085,
                    "velocity": 0.5748031496062992,
                    "duration": 0.6373935000000017
                },
                {
                    "name": "D5",
                    "midi": 74,
                    "time": 56.940486000000085,
                    "velocity": 0.6929133858267716,
                    "duration": 0.6373935000000017
                },
                {
                    "name": "A4",
                    "midi": 69,
                    "time": 57.57787950000009,
                    "velocity": 0.44881889763779526,
                    "duration": 0.21246450000000294
                },
                {
                    "name": "C5",
                    "midi": 72,
                    "time": 57.57787950000009,
                    "velocity": 0.5354330708661418,
                    "duration": 0.21246450000000294
                },
                {
                    "name": "A#4",
                    "midi": 70,
                    "time": 57.79034400000009,
                    "velocity": 0.6062992125984252,
                    "duration": 0.4249290000000059
                },
                {
                    "name": "G4",
                    "midi": 67,
                    "time": 57.79034400000009,
                    "velocity": 0.5039370078740157,
                    "duration": 0.4160763125000031
                },
                {
                    "name": "E4",
                    "midi": 64,
                    "time": 58.215273000000096,
                    "velocity": 0.44881889763779526,
                    "duration": 0.21246450000000294
                },
                {
                    "name": "G4",
                    "midi": 67,
                    "time": 58.215273000000096,
                    "velocity": 0.5354330708661418,
                    "duration": 0.21246450000000294
                },
                {
                    "name": "A#4",
                    "midi": 70,
                    "time": 58.6402020000001,
                    "velocity": 0.5748031496062992,
                    "duration": 0.6373935000000017
                },
                {
                    "name": "G5",
                    "midi": 79,
                    "time": 58.6402020000001,
                    "velocity": 0.6929133858267716,
                    "duration": 0.6373935000000017
                },
                {
                    "name": "A4",
                    "midi": 69,
                    "time": 59.2775955000001,
                    "velocity": 0.44881889763779526,
                    "duration": 0.21246450000000294
                },
                {
                    "name": "F5",
                    "midi": 77,
                    "time": 59.2775955000001,
                    "velocity": 0.5354330708661418,
                    "duration": 0.21246450000000294
                },
                {
                    "name": "G4",
                    "midi": 67,
                    "time": 59.490060000000106,
                    "velocity": 0.5748031496062992,
                    "duration": 0.6373935000000017
                },
                {
                    "name": "E5",
                    "midi": 76,
                    "time": 59.490060000000106,
                    "velocity": 0.6929133858267716,
                    "duration": 0.6373935000000017
                },
                {
                    "name": "F4",
                    "midi": 65,
                    "time": 60.12745350000011,
                    "velocity": 0.44881889763779526,
                    "duration": 0.21246450000000294
                },
                {
                    "name": "D5",
                    "midi": 74,
                    "time": 60.12745350000011,
                    "velocity": 0.5354330708661418,
                    "duration": 0.21246450000000294
                },
                {
                    "name": "E4",
                    "midi": 64,
                    "time": 60.33991800000011,
                    "velocity": 0.4015748031496063,
                    "duration": 0.4249289999999988
                },
                {
                    "name": "C5",
                    "midi": 72,
                    "time": 60.33991800000011,
                    "velocity": 0.47244094488188976,
                    "duration": 0.4249289999999988
                },
                {
                    "name": "A#3",
                    "midi": 58,
                    "time": 60.76484700000011,
                    "velocity": 0.3464566929133858,
                    "duration": 0.4249289999999988
                },
                {
                    "name": "A#4",
                    "midi": 70,
                    "time": 60.76484700000011,
                    "velocity": 0.4094488188976378,
                    "duration": 0.4249289999999988
                },
                {
                    "name": "A3",
                    "midi": 57,
                    "time": 61.18977600000011,
                    "velocity": 0.3858267716535433,
                    "duration": 0.4249289999999988
                },
                {
                    "name": "A4",
                    "midi": 69,
                    "time": 61.18977600000011,
                    "velocity": 0.4566929133858268,
                    "duration": 0.4249289999999988
                },
                {
                    "name": "C#4",
                    "midi": 61,
                    "time": 61.61470500000011,
                    "velocity": 0.30708661417322836,
                    "duration": 0.4249289999999988
                },
                {
                    "name": "G4",
                    "midi": 67,
                    "time": 61.61470500000011,
                    "velocity": 0.36220472440944884,
                    "duration": 0.4249289999999988
                },
                {
                    "name": "D4",
                    "midi": 62,
                    "time": 62.039634000000106,
                    "velocity": 0.3543307086614173,
                    "duration": 0.4249289999999988
                },
                {
                    "name": "F4",
                    "midi": 65,
                    "time": 62.039634000000106,
                    "velocity": 0.41732283464566927,
                    "duration": 0.4249289999999988
                },
                {
                    "name": "F3",
                    "midi": 53,
                    "time": 62.464563000000105,
                    "velocity": 0.31496062992125984,
                    "duration": 0.4249289999999988
                },
                {
                    "name": "G3",
                    "midi": 55,
                    "time": 62.464563000000105,
                    "velocity": 0.31496062992125984,
                    "duration": 0.4249289999999988
                },
                {
                    "name": "D4",
                    "midi": 62,
                    "time": 62.464563000000105,
                    "velocity": 0.3779527559055118,
                    "duration": 0.4249289999999988
                },
                {
                    "name": "F3",
                    "midi": 53,
                    "time": 63.3144210000001,
                    "velocity": 0.25196850393700787,
                    "duration": 0.21246450000000294
                },
                {
                    "name": "A3",
                    "midi": 57,
                    "time": 63.3144210000001,
                    "velocity": 0.25196850393700787,
                    "duration": 0.21246450000000294
                },
                {
                    "name": "C4",
                    "midi": 60,
                    "time": 63.3144210000001,
                    "velocity": 0.2992125984251969,
                    "duration": 0.21246450000000294
                },
                {
                    "name": "C3",
                    "midi": 48,
                    "time": 64.1642790000001,
                    "velocity": 0.2440944881889764,
                    "duration": 0.21246449999999584
                },
                {
                    "name": "E3",
                    "midi": 52,
                    "time": 64.1642790000001,
                    "velocity": 0.2440944881889764,
                    "duration": 0.21246449999999584
                },
                {
                    "name": "G3",
                    "midi": 55,
                    "time": 64.1642790000001,
                    "velocity": 0.2440944881889764,
                    "duration": 0.21246449999999584
                },
                {
                    "name": "C4",
                    "midi": 60,
                    "time": 64.1642790000001,
                    "velocity": 0.29133858267716534,
                    "duration": 0.21246449999999584
                },
                {
                    "name": "A3",
                    "midi": 57,
                    "time": 65.0141370000001,
                    "velocity": 0.2755905511811024,
                    "duration": 0.39837093750000463
                },
                {
                    "name": "F3",
                    "midi": 53,
                    "time": 65.0141370000001,
                    "velocity": 0.2283464566929134,
                    "duration": 0.39837093750000463
                },
                {
                    "name": "C3",
                    "midi": 48,
                    "time": 65.0141370000001,
                    "velocity": 0.2283464566929134,
                    "duration": 0.39837093750000463
                },
                {
                    "name": "F4",
                    "midi": 65,
                    "time": 65.6515305000001,
                    "velocity": 0.4330708661417323,
                    "duration": 0.4249290000000059
                },
                {
                    "name": "A4",
                    "midi": 69,
                    "time": 65.6515305000001,
                    "velocity": 0.5196850393700787,
                    "duration": 0.4249290000000059
                },
                {
                    "name": "F4",
                    "midi": 65,
                    "time": 66.07645950000011,
                    "velocity": 0.33858267716535434,
                    "duration": 0.10623225000000502
                },
                {
                    "name": "A4",
                    "midi": 69,
                    "time": 66.07645950000011,
                    "velocity": 0.4015748031496063,
                    "duration": 0.10623225000000502
                },
                {
                    "name": "D4",
                    "midi": 62,
                    "time": 66.50138850000012,
                    "velocity": 0.3228346456692913,
                    "duration": 0.10623225000000502
                },
                {
                    "name": "F4",
                    "midi": 65,
                    "time": 66.50138850000012,
                    "velocity": 0.3858267716535433,
                    "duration": 0.10623225000000502
                },
                {
                    "name": "A#3",
                    "midi": 58,
                    "time": 66.92631750000012,
                    "velocity": 0.2992125984251969,
                    "duration": 0.10623225000000502
                },
                {
                    "name": "D4",
                    "midi": 62,
                    "time": 66.92631750000012,
                    "velocity": 0.3543307086614173,
                    "duration": 0.10623225000000502
                },
                {
                    "name": "G4",
                    "midi": 67,
                    "time": 67.35124650000013,
                    "velocity": 0.47244094488188976,
                    "duration": 0.4249290000000059
                },
                {
                    "name": "A#4",
                    "midi": 70,
                    "time": 67.35124650000013,
                    "velocity": 0.5748031496062992,
                    "duration": 0.4249290000000059
                },
                {
                    "name": "F4",
                    "midi": 65,
                    "time": 67.77617550000014,
                    "velocity": 0.33858267716535434,
                    "duration": 0.10623225000000502
                },
                {
                    "name": "A4",
                    "midi": 69,
                    "time": 67.77617550000014,
                    "velocity": 0.4015748031496063,
                    "duration": 0.10623225000000502
                },
                {
                    "name": "E4",
                    "midi": 64,
                    "time": 68.20110450000014,
                    "velocity": 0.3228346456692913,
                    "duration": 0.10623225000000502
                },
                {
                    "name": "G4",
                    "midi": 67,
                    "time": 68.20110450000014,
                    "velocity": 0.3858267716535433,
                    "duration": 0.10623225000000502
                },
                {
                    "name": "C4",
                    "midi": 60,
                    "time": 68.62603350000015,
                    "velocity": 0.2992125984251969,
                    "duration": 0.10623225000000502
                },
                {
                    "name": "E4",
                    "midi": 64,
                    "time": 68.62603350000015,
                    "velocity": 0.3543307086614173,
                    "duration": 0.10623225000000502
                },
                {
                    "name": "A4",
                    "midi": 69,
                    "time": 69.05096250000015,
                    "velocity": 0.47244094488188976,
                    "duration": 0.4249290000000059
                },
                {
                    "name": "C5",
                    "midi": 72,
                    "time": 69.05096250000015,
                    "velocity": 0.5669291338582677,
                    "duration": 0.4249290000000059
                },
                {
                    "name": "A4",
                    "midi": 69,
                    "time": 69.47589150000016,
                    "velocity": 0.3700787401574803,
                    "duration": 0.10623225000000502
                },
                {
                    "name": "C5",
                    "midi": 72,
                    "time": 69.47589150000016,
                    "velocity": 0.4409448818897638,
                    "duration": 0.10623225000000502
                },
                {
                    "name": "F4",
                    "midi": 65,
                    "time": 69.90082050000017,
                    "velocity": 0.3543307086614173,
                    "duration": 0.10623225000000502
                },
                {
                    "name": "A4",
                    "midi": 69,
                    "time": 69.90082050000017,
                    "velocity": 0.41732283464566927,
                    "duration": 0.10623225000000502
                },
                {
                    "name": "D4",
                    "midi": 62,
                    "time": 70.32574950000017,
                    "velocity": 0.3228346456692913,
                    "duration": 0.10623225000000502
                },
                {
                    "name": "F4",
                    "midi": 65,
                    "time": 70.32574950000017,
                    "velocity": 0.3858267716535433,
                    "duration": 0.10623225000000502
                },
                {
                    "name": "A#4",
                    "midi": 70,
                    "time": 70.75067850000018,
                    "velocity": 0.5354330708661418,
                    "duration": 0.4249290000000059
                },
                {
                    "name": "D5",
                    "midi": 74,
                    "time": 70.75067850000018,
                    "velocity": 0.6614173228346457,
                    "duration": 0.4249290000000059
                },
                {
                    "name": "A4",
                    "midi": 69,
                    "time": 71.17560750000018,
                    "velocity": 0.3858267716535433,
                    "duration": 0.10623225000000502
                },
                {
                    "name": "C5",
                    "midi": 72,
                    "time": 71.17560750000018,
                    "velocity": 0.4566929133858268,
                    "duration": 0.10623225000000502
                },
                {
                    "name": "G4",
                    "midi": 67,
                    "time": 71.60053650000019,
                    "velocity": 0.3700787401574803,
                    "duration": 0.10623225000000502
                },
                {
                    "name": "A#4",
                    "midi": 70,
                    "time": 71.60053650000019,
                    "velocity": 0.4330708661417323,
                    "duration": 0.10623225000000502
                },
                {
                    "name": "E4",
                    "midi": 64,
                    "time": 72.0254655000002,
                    "velocity": 0.33858267716535434,
                    "duration": 0.10623225000000502
                },
                {
                    "name": "G4",
                    "midi": 67,
                    "time": 72.0254655000002,
                    "velocity": 0.4015748031496063,
                    "duration": 0.10623225000000502
                },
                {
                    "name": "A#4",
                    "midi": 70,
                    "time": 72.4503945000002,
                    "velocity": 0.6220472440944882,
                    "duration": 0.4249290000000059
                },
                {
                    "name": "G5",
                    "midi": 79,
                    "time": 72.4503945000002,
                    "velocity": 0.7559055118110236,
                    "duration": 0.4249290000000059
                },
                {
                    "name": "A4",
                    "midi": 69,
                    "time": 72.8753235000002,
                    "velocity": 0.4409448818897638,
                    "duration": 0.10623225000000502
                },
                {
                    "name": "F5",
                    "midi": 77,
                    "time": 72.8753235000002,
                    "velocity": 0.5275590551181102,
                    "duration": 0.10623225000000502
                },
                {
                    "name": "G4",
                    "midi": 67,
                    "time": 73.30025250000021,
                    "velocity": 0.6220472440944882,
                    "duration": 0.4249290000000059
                },
                {
                    "name": "E5",
                    "midi": 76,
                    "time": 73.30025250000021,
                    "velocity": 0.7559055118110236,
                    "duration": 0.4249290000000059
                },
                {
                    "name": "F4",
                    "midi": 65,
                    "time": 73.72518150000022,
                    "velocity": 0.4409448818897638,
                    "duration": 0.10623225000000502
                },
                {
                    "name": "D5",
                    "midi": 74,
                    "time": 73.72518150000022,
                    "velocity": 0.5275590551181102,
                    "duration": 0.10623225000000502
                },
                {
                    "name": "E4",
                    "midi": 64,
                    "time": 74.15011050000022,
                    "velocity": 0.3464566929133858,
                    "duration": 0.10623225000000502
                },
                {
                    "name": "C5",
                    "midi": 72,
                    "time": 74.15011050000022,
                    "velocity": 0.4094488188976378,
                    "duration": 0.10623225000000502
                },
                {
                    "name": "A#3",
                    "midi": 58,
                    "time": 74.57503950000023,
                    "velocity": 0.30708661417322836,
                    "duration": 0.10623225000000502
                },
                {
                    "name": "A#4",
                    "midi": 70,
                    "time": 74.57503950000023,
                    "velocity": 0.36220472440944884,
                    "duration": 0.10623225000000502
                },
                {
                    "name": "A4",
                    "midi": 69,
                    "time": 74.78750400000024,
                    "velocity": 0.4251968503937008,
                    "duration": 0.10623225000000502
                },
                {
                    "name": "A3",
                    "midi": 57,
                    "time": 74.89373625000025,
                    "velocity": 0.36220472440944884,
                    "duration": 0.10623225000000502
                },
                {
                    "name": "C#4",
                    "midi": 61,
                    "time": 74.99996850000025,
                    "velocity": 0.33858267716535434,
                    "duration": 0.10623225000000502
                },
                {
                    "name": "E4",
                    "midi": 64,
                    "time": 75.10620075000026,
                    "velocity": 0.33858267716535434,
                    "duration": 0.10623225000000502
                },
                {
                    "name": "A4",
                    "midi": 69,
                    "time": 75.21243300000026,
                    "velocity": 0.41732283464566927,
                    "duration": 0.10623225000000502
                },
                {
                    "name": "C#5",
                    "midi": 73,
                    "time": 75.31866525000027,
                    "velocity": 0.33070866141732286,
                    "duration": 0.10623225000000502
                },
                {
                    "name": "E5",
                    "midi": 76,
                    "time": 75.42489750000027,
                    "velocity": 0.33070866141732286,
                    "duration": 0.10623225000000502
                },
                {
                    "name": "G#5",
                    "midi": 80,
                    "time": 75.53112975000028,
                    "velocity": 0.33070866141732286,
                    "duration": 0.10623225000000502
                },
                {
                    "name": "A5",
                    "midi": 81,
                    "time": 75.63736200000028,
                    "velocity": 0.3858267716535433,
                    "duration": 0.10623225000000502
                },
                {
                    "name": "G#5",
                    "midi": 80,
                    "time": 75.74359425000029,
                    "velocity": 0.30708661417322836,
                    "duration": 0.10623225000000502
                },
                {
                    "name": "A5",
                    "midi": 81,
                    "time": 75.84982650000029,
                    "velocity": 0.33070866141732286,
                    "duration": 0.10623225000000502
                },
                {
                    "name": "G#5",
                    "midi": 80,
                    "time": 75.9560587500003,
                    "velocity": 0.2992125984251969,
                    "duration": 0.10623225000000502
                },
                {
                    "name": "A5",
                    "midi": 81,
                    "time": 76.0622910000003,
                    "velocity": 0.3779527559055118,
                    "duration": 0.10623225000000502
                },
                {
                    "name": "E5",
                    "midi": 76,
                    "time": 76.1685232500003,
                    "velocity": 0.2992125984251969,
                    "duration": 0.10623225000000502
                },
                {
                    "name": "C#5",
                    "midi": 73,
                    "time": 76.27475550000031,
                    "velocity": 0.2992125984251969,
                    "duration": 0.10623225000000502
                },
                {
                    "name": "A4",
                    "midi": 69,
                    "time": 76.38098775000032,
                    "velocity": 0.2992125984251969,
                    "duration": 0.10623225000000502
                },
                {
                    "name": "A3",
                    "midi": 57,
                    "time": 76.59345225000033,
                    "velocity": 0.36220472440944884,
                    "duration": 0.10623225000000502
                },
                {
                    "name": "D4",
                    "midi": 62,
                    "time": 76.69968450000033,
                    "velocity": 0.33858267716535434,
                    "duration": 0.10623225000000502
                },
                {
                    "name": "F4",
                    "midi": 65,
                    "time": 76.80591675000034,
                    "velocity": 0.33858267716535434,
                    "duration": 0.10623225000000502
                },
                {
                    "name": "A4",
                    "midi": 69,
                    "time": 76.91214900000034,
                    "velocity": 0.41732283464566927,
                    "duration": 0.10623225000000502
                },
                {
                    "name": "D5",
                    "midi": 74,
                    "time": 77.01838125000035,
                    "velocity": 0.33070866141732286,
                    "duration": 0.10623225000000502
                },
                {
                    "name": "F5",
                    "midi": 77,
                    "time": 77.12461350000035,
                    "velocity": 0.33070866141732286,
                    "duration": 0.10623225000000502
                },
                {
                    "name": "G#5",
                    "midi": 80,
                    "time": 77.23084575000036,
                    "velocity": 0.33070866141732286,
                    "duration": 0.10623225000000502
                },
                {
                    "name": "A5",
                    "midi": 81,
                    "time": 77.33707800000036,
                    "velocity": 0.3858267716535433,
                    "duration": 0.10623225000000502
                },
                {
                    "name": "G#5",
                    "midi": 80,
                    "time": 77.44331025000037,
                    "velocity": 0.30708661417322836,
                    "duration": 0.10623225000000502
                },
                {
                    "name": "A5",
                    "midi": 81,
                    "time": 77.54954250000037,
                    "velocity": 0.33070866141732286,
                    "duration": 0.10623225000000502
                },
                {
                    "name": "G#5",
                    "midi": 80,
                    "time": 77.65577475000038,
                    "velocity": 0.2992125984251969,
                    "duration": 0.10623225000000502
                },
                {
                    "name": "A5",
                    "midi": 81,
                    "time": 77.76200700000038,
                    "velocity": 0.3779527559055118,
                    "duration": 0.10623225000000502
                },
                {
                    "name": "F5",
                    "midi": 77,
                    "time": 77.86823925000039,
                    "velocity": 0.2992125984251969,
                    "duration": 0.10623225000000502
                },
                {
                    "name": "D5",
                    "midi": 74,
                    "time": 77.97447150000039,
                    "velocity": 0.2992125984251969,
                    "duration": 0.10623225000000502
                },
                {
                    "name": "A4",
                    "midi": 69,
                    "time": 78.0807037500004,
                    "velocity": 0.2992125984251969,
                    "duration": 0.10623225000000502
                },
                {
                    "name": "G#3",
                    "midi": 56,
                    "time": 78.2931682500004,
                    "velocity": 0.36220472440944884,
                    "duration": 0.10623225000000502
                },
                {
                    "name": "B3",
                    "midi": 59,
                    "time": 78.39940050000041,
                    "velocity": 0.33858267716535434,
                    "duration": 0.10623225000000502
                },
                {
                    "name": "D4",
                    "midi": 62,
                    "time": 78.50563275000042,
                    "velocity": 0.33858267716535434,
                    "duration": 0.10623225000000502
                },
                {
                    "name": "F4",
                    "midi": 65,
                    "time": 78.61186500000042,
                    "velocity": 0.3937007874015748,
                    "duration": 0.10623225000000502
                },
                {
                    "name": "G#4",
                    "midi": 68,
                    "time": 78.71809725000043,
                    "velocity": 0.33070866141732286,
                    "duration": 0.10623225000000502
                },
                {
                    "name": "B4",
                    "midi": 71,
                    "time": 78.82432950000043,
                    "velocity": 0.33070866141732286,
                    "duration": 0.10623225000000502
                },
                {
                    "name": "D5",
                    "midi": 74,
                    "time": 78.93056175000044,
                    "velocity": 0.33070866141732286,
                    "duration": 0.10623225000000502
                },
                {
                    "name": "F5",
                    "midi": 77,
                    "time": 79.03679400000044,
                    "velocity": 0.3858267716535433,
                    "duration": 0.10623225000000502
                },
                {
                    "name": "D5",
                    "midi": 74,
                    "time": 79.14302625000045,
                    "velocity": 0.3228346456692913,
                    "duration": 0.10623225000000502
                },
                {
                    "name": "G#5",
                    "midi": 80,
                    "time": 79.24925850000045,
                    "velocity": 0.3779527559055118,
                    "duration": 0.10623225000000502
                },
                {
                    "name": "F5",
                    "midi": 77,
                    "time": 79.35549075000046,
                    "velocity": 0.3228346456692913,
                    "duration": 0.10623225000000502
                },
                {
                    "name": "D5",
                    "midi": 74,
                    "time": 79.46172300000046,
                    "velocity": 0.3779527559055118,
                    "duration": 0.10623225000000502
                },
                {
                    "name": "B4",
                    "midi": 71,
                    "time": 79.56795525000047,
                    "velocity": 0.3543307086614173,
                    "duration": 0.10623225000000502
                },
                {
                    "name": "G#4",
                    "midi": 68,
                    "time": 79.67418750000047,
                    "velocity": 0.33070866141732286,
                    "duration": 0.10623225000000502
                },
                {
                    "name": "F4",
                    "midi": 65,
                    "time": 79.78041975000048,
                    "velocity": 0.30708661417322836,
                    "duration": 0.10623225000000502
                },
                {
                    "name": "E4",
                    "midi": 64,
                    "time": 79.99288425000049,
                    "velocity": 0.3779527559055118,
                    "duration": 0.10623225000000502
                },
                {
                    "name": "G4",
                    "midi": 67,
                    "time": 80.09911650000049,
                    "velocity": 0.3937007874015748,
                    "duration": 0.10623225000000502
                },
                {
                    "name": "A#4",
                    "midi": 70,
                    "time": 80.2053487500005,
                    "velocity": 0.4015748031496063,
                    "duration": 0.10623225000000502
                },
                {
                    "name": "C#5",
                    "midi": 73,
                    "time": 80.3115810000005,
                    "velocity": 0.41732283464566927,
                    "duration": 0.10623225000000502
                },
                {
                    "name": "E5",
                    "midi": 76,
                    "time": 80.4178132500005,
                    "velocity": 0.4330708661417323,
                    "duration": 0.10623225000000502
                },
                {
                    "name": "G5",
                    "midi": 79,
                    "time": 80.52404550000051,
                    "velocity": 0.44881889763779526,
                    "duration": 0.10623225000000502
                },
                {
                    "name": "A#5",
                    "midi": 82,
                    "time": 80.63027775000052,
                    "velocity": 0.4645669291338583,
                    "duration": 0.10623225000000502
                },
                {
                    "name": "C#6",
                    "midi": 85,
                    "time": 80.73651000000052,
                    "velocity": 0.5118110236220472,
                    "duration": 0.10623225000000502
                },
                {
                    "name": "E6",
                    "midi": 88,
                    "time": 80.84274225000053,
                    "velocity": 0.44881889763779526,
                    "duration": 0.10623225000000502
                },
                {
                    "name": "E5",
                    "midi": 76,
                    "time": 80.94897450000053,
                    "velocity": 0.5039370078740157,
                    "duration": 0.10623225000000502
                },
                {
                    "name": "E6",
                    "midi": 88,
                    "time": 81.05520675000054,
                    "velocity": 0.4409448818897638,
                    "duration": 0.10623225000000502
                },
                {
                    "name": "E5",
                    "midi": 76,
                    "time": 81.16143900000054,
                    "velocity": 0.5039370078740157,
                    "duration": 0.10623225000000502
                },
                {
                    "name": "E6",
                    "midi": 88,
                    "time": 81.26767125000055,
                    "velocity": 0.4566929133858268,
                    "duration": 0.10623225000000502
                },
                {
                    "name": "E5",
                    "midi": 76,
                    "time": 81.37390350000055,
                    "velocity": 0.5039370078740157,
                    "duration": 0.10623225000000502
                },
                {
                    "name": "E6",
                    "midi": 88,
                    "time": 81.48013575000056,
                    "velocity": 0.4645669291338583,
                    "duration": 0.10623225000000502
                },
                {
                    "name": "F5",
                    "midi": 77,
                    "time": 81.58636800000056,
                    "velocity": 0.5826771653543307,
                    "duration": 0.10623225000000502
                },
                {
                    "name": "F6",
                    "midi": 89,
                    "time": 81.69260025000057,
                    "velocity": 0.4645669291338583,
                    "duration": 0.10623225000000502
                },
                {
                    "name": "E5",
                    "midi": 76,
                    "time": 81.79883250000057,
                    "velocity": 0.5275590551181102,
                    "duration": 0.10623225000000502
                },
                {
                    "name": "E6",
                    "midi": 88,
                    "time": 81.90506475000058,
                    "velocity": 0.4251968503937008,
                    "duration": 0.10623225000000502
                },
                {
                    "name": "F5",
                    "midi": 77,
                    "time": 82.01129700000058,
                    "velocity": 0.5196850393700787,
                    "duration": 0.10623225000000502
                },
                {
                    "name": "F6",
                    "midi": 89,
                    "time": 82.11752925000059,
                    "velocity": 0.44881889763779526,
                    "duration": 0.10623225000000502
                },
                {
                    "name": "A#4",
                    "midi": 70,
                    "time": 82.22376150000059,
                    "velocity": 0.4645669291338583,
                    "duration": 0.10623225000000502
                },
                {
                    "name": "A#5",
                    "midi": 82,
                    "time": 82.3299937500006,
                    "velocity": 0.3937007874015748,
                    "duration": 0.10623225000000502
                },
                {
                    "name": "A4",
                    "midi": 69,
                    "time": 82.4362260000006,
                    "velocity": 0.6220472440944882,
                    "duration": 0.10623225000000502
                },
                {
                    "name": "A5",
                    "midi": 81,
                    "time": 82.5424582500006,
                    "velocity": 0.4251968503937008,
                    "duration": 0.10623225000000502
                },
                {
                    "name": "E5",
                    "midi": 76,
                    "time": 82.64869050000061,
                    "velocity": 0.5118110236220472,
                    "duration": 0.10623225000000502
                },
                {
                    "name": "E6",
                    "midi": 88,
                    "time": 82.75492275000062,
                    "velocity": 0.44881889763779526,
                    "duration": 0.10623225000000502
                },
                {
                    "name": "F5",
                    "midi": 77,
                    "time": 82.86115500000062,
                    "velocity": 0.5354330708661418,
                    "duration": 0.10623225000000502
                },
                {
                    "name": "F6",
                    "midi": 89,
                    "time": 82.96738725000063,
                    "velocity": 0.47244094488188976,
                    "duration": 0.10623225000000502
                },
                {
                    "name": "A#4",
                    "midi": 70,
                    "time": 83.07361950000063,
                    "velocity": 0.5275590551181102,
                    "duration": 0.10623225000000502
                },
                {
                    "name": "A#5",
                    "midi": 82,
                    "time": 83.17985175000064,
                    "velocity": 0.4566929133858268,
                    "duration": 0.10623225000000502
                },
                {
                    "name": "A4",
                    "midi": 69,
                    "time": 83.28608400000064,
                    "velocity": 0.6377952755905512,
                    "duration": 0.10623225000000502
                },
                {
                    "name": "A5",
                    "midi": 81,
                    "time": 83.39231625000065,
                    "velocity": 0.4566929133858268,
                    "duration": 0.10623225000000502
                },
                {
                    "name": "E5",
                    "midi": 76,
                    "time": 83.49854850000065,
                    "velocity": 0.5039370078740157,
                    "duration": 0.10623225000000502
                },
                {
                    "name": "E6",
                    "midi": 88,
                    "time": 83.60478075000066,
                    "velocity": 0.4645669291338583,
                    "duration": 0.10623225000000502
                },
                {
                    "name": "F5",
                    "midi": 77,
                    "time": 83.71101300000066,
                    "velocity": 0.5275590551181102,
                    "duration": 0.10623225000000502
                },
                {
                    "name": "F6",
                    "midi": 89,
                    "time": 83.81724525000067,
                    "velocity": 0.4330708661417323,
                    "duration": 0.10623225000000502
                },
                {
                    "name": "A#4",
                    "midi": 70,
                    "time": 83.92347750000067,
                    "velocity": 0.4881889763779528,
                    "duration": 0.10623225000000502
                },
                {
                    "name": "A#5",
                    "midi": 82,
                    "time": 84.02970975000068,
                    "velocity": 0.4015748031496063,
                    "duration": 0.10623225000000502
                },
                {
                    "name": "A4",
                    "midi": 69,
                    "time": 84.13594200000068,
                    "velocity": 0.5669291338582677,
                    "duration": 0.10623225000000502
                },
                {
                    "name": "A5",
                    "midi": 81,
                    "time": 84.24217425000069,
                    "velocity": 0.4094488188976378,
                    "duration": 0.10623225000000502
                },
                {
                    "name": "E5",
                    "midi": 76,
                    "time": 84.34840650000069,
                    "velocity": 0.5039370078740157,
                    "duration": 0.10623225000000502
                },
                {
                    "name": "E6",
                    "midi": 88,
                    "time": 84.4546387500007,
                    "velocity": 0.4251968503937008,
                    "duration": 0.10623225000000502
                },
                {
                    "name": "F5",
                    "midi": 77,
                    "time": 84.5608710000007,
                    "velocity": 0.5039370078740157,
                    "duration": 0.10623225000000502
                },
                {
                    "name": "F6",
                    "midi": 89,
                    "time": 84.66710325000071,
                    "velocity": 0.4015748031496063,
                    "duration": 0.10623225000000502
                },
                {
                    "name": "A#4",
                    "midi": 70,
                    "time": 84.77333550000071,
                    "velocity": 0.47244094488188976,
                    "duration": 0.10623225000000502
                },
                {
                    "name": "A#5",
                    "midi": 82,
                    "time": 84.87956775000072,
                    "velocity": 0.4015748031496063,
                    "duration": 0.10623225000000502
                },
                {
                    "name": "A4",
                    "midi": 69,
                    "time": 84.98580000000072,
                    "velocity": 0.6535433070866141,
                    "duration": 0.10623225000000502
                },
                {
                    "name": "A5",
                    "midi": 81,
                    "time": 85.09203225000073,
                    "velocity": 0.41732283464566927,
                    "duration": 0.10623225000000502
                },
                {
                    "name": "G4",
                    "midi": 67,
                    "time": 85.19826450000073,
                    "velocity": 0.4881889763779528,
                    "duration": 0.10623225000000502
                },
                {
                    "name": "G5",
                    "midi": 79,
                    "time": 85.30449675000074,
                    "velocity": 0.4251968503937008,
                    "duration": 0.10623225000000502
                },
                {
                    "name": "F4",
                    "midi": 65,
                    "time": 85.41072900000074,
                    "velocity": 0.4881889763779528,
                    "duration": 0.10623225000000502
                },
                {
                    "name": "F5",
                    "midi": 77,
                    "time": 85.51696125000075,
                    "velocity": 0.4251968503937008,
                    "duration": 0.10623225000000502
                },
                {
                    "name": "E4",
                    "midi": 64,
                    "time": 85.62319350000075,
                    "velocity": 0.4881889763779528,
                    "duration": 0.10623225000000502
                },
                {
                    "name": "E5",
                    "midi": 76,
                    "time": 85.72942575000076,
                    "velocity": 0.41732283464566927,
                    "duration": 0.10623225000000502
                },
                {
                    "name": "D4",
                    "midi": 62,
                    "time": 85.83565800000076,
                    "velocity": 0.6377952755905512,
                    "duration": 0.10623225000000502
                },
                {
                    "name": "D5",
                    "midi": 74,
                    "time": 85.94189025000077,
                    "velocity": 0.41732283464566927,
                    "duration": 0.10623225000000502
                },
                {
                    "name": "C4",
                    "midi": 60,
                    "time": 86.04812250000077,
                    "velocity": 0.47244094488188976,
                    "duration": 0.10623225000000502
                },
                {
                    "name": "C5",
                    "midi": 72,
                    "time": 86.15435475000078,
                    "velocity": 0.4094488188976378,
                    "duration": 0.10623225000000502
                },
                {
                    "name": "A#3",
                    "midi": 58,
                    "time": 86.26058700000078,
                    "velocity": 0.4645669291338583,
                    "duration": 0.10623225000000502
                },
                {
                    "name": "A#4",
                    "midi": 70,
                    "time": 86.36681925000079,
                    "velocity": 0.4094488188976378,
                    "duration": 0.10623225000000502
                },
                {
                    "name": "A3",
                    "midi": 57,
                    "time": 86.47305150000079,
                    "velocity": 0.4645669291338583,
                    "duration": 0.10623225000000502
                },
                {
                    "name": "A4",
                    "midi": 69,
                    "time": 86.5792837500008,
                    "velocity": 0.3937007874015748,
                    "duration": 0.10623225000000502
                },
                {
                    "name": "G3",
                    "midi": 55,
                    "time": 86.6855160000008,
                    "velocity": 0.6220472440944882,
                    "duration": 0.10623225000000502
                },
                {
                    "name": "G4",
                    "midi": 67,
                    "time": 86.79174825000081,
                    "velocity": 0.3937007874015748,
                    "duration": 0.10623225000000502
                },
                {
                    "name": "F3",
                    "midi": 53,
                    "time": 86.89798050000081,
                    "velocity": 0.4645669291338583,
                    "duration": 0.10623225000000502
                },
                {
                    "name": "F4",
                    "midi": 65,
                    "time": 87.00421275000082,
                    "velocity": 0.3858267716535433,
                    "duration": 0.10623225000000502
                },
                {
                    "name": "E3",
                    "midi": 52,
                    "time": 87.11044500000082,
                    "velocity": 0.4645669291338583,
                    "duration": 0.10623225000000502
                },
                {
                    "name": "E4",
                    "midi": 64,
                    "time": 87.21667725000083,
                    "velocity": 0.3858267716535433,
                    "duration": 0.10623225000000502
                },
                {
                    "name": "D3",
                    "midi": 50,
                    "time": 87.32290950000083,
                    "velocity": 0.4645669291338583,
                    "duration": 0.10623225000000502
                },
                {
                    "name": "D4",
                    "midi": 62,
                    "time": 87.42914175000084,
                    "velocity": 0.4015748031496063,
                    "duration": 0.10623225000000502
                },
                {
                    "name": "C3",
                    "midi": 48,
                    "time": 87.53537400000084,
                    "velocity": 0.6220472440944882,
                    "duration": 0.10623225000000502
                },
                {
                    "name": "C4",
                    "midi": 60,
                    "time": 87.64160625000085,
                    "velocity": 0.3858267716535433,
                    "duration": 0.10623225000000502
                },
                {
                    "name": "A#2",
                    "midi": 46,
                    "time": 87.74783850000085,
                    "velocity": 0.4645669291338583,
                    "duration": 0.10623225000000502
                },
                {
                    "name": "A#3",
                    "midi": 58,
                    "time": 87.85407075000086,
                    "velocity": 0.3937007874015748,
                    "duration": 0.10623225000000502
                },
                {
                    "name": "A2",
                    "midi": 45,
                    "time": 87.96030300000086,
                    "velocity": 0.4645669291338583,
                    "duration": 0.10623225000000502
                },
                {
                    "name": "A3",
                    "midi": 57,
                    "time": 88.06653525000087,
                    "velocity": 0.3779527559055118,
                    "duration": 0.10623225000000502
                },
                {
                    "name": "G2",
                    "midi": 43,
                    "time": 88.17276750000087,
                    "velocity": 0.4566929133858268,
                    "duration": 0.10623225000000502
                },
                {
                    "name": "G3",
                    "midi": 55,
                    "time": 88.27899975000088,
                    "velocity": 0.3858267716535433,
                    "duration": 0.10623225000000502
                },
                {
                    "name": "F3",
                    "midi": 53,
                    "time": 88.38523200000088,
                    "velocity": 0.5984251968503937,
                    "duration": 0.10623225000000502
                },
                {
                    "name": "F2",
                    "midi": 41,
                    "time": 88.38523200000088,
                    "velocity": 0.5039370078740157,
                    "duration": 0.10623225000000502
                },
                {
                    "name": "E3",
                    "midi": 52,
                    "time": 88.5976965000009,
                    "velocity": 0.3858267716535433,
                    "duration": 0.10623225000000502
                },
                {
                    "name": "C4",
                    "midi": 60,
                    "time": 88.7039287500009,
                    "velocity": 0.33070866141732286,
                    "duration": 0.10623225000000502
                },
                {
                    "name": "F3",
                    "midi": 53,
                    "time": 88.8101610000009,
                    "velocity": 0.3858267716535433,
                    "duration": 0.10623225000000502
                },
                {
                    "name": "C4",
                    "midi": 60,
                    "time": 88.91639325000091,
                    "velocity": 0.3228346456692913,
                    "duration": 0.10623225000000502
                },
                {
                    "name": "A#3",
                    "midi": 58,
                    "time": 89.02262550000091,
                    "velocity": 0.3858267716535433,
                    "duration": 0.10623225000000502
                },
                {
                    "name": "C4",
                    "midi": 60,
                    "time": 89.12885775000092,
                    "velocity": 0.33070866141732286,
                    "duration": 0.10623225000000502
                },
                {
                    "name": "A3",
                    "midi": 57,
                    "time": 89.23509000000092,
                    "velocity": 0.3858267716535433,
                    "duration": 0.10623225000000502
                },
                {
                    "name": "C4",
                    "midi": 60,
                    "time": 89.34132225000093,
                    "velocity": 0.3228346456692913,
                    "duration": 0.10623225000000502
                },
                {
                    "name": "E3",
                    "midi": 52,
                    "time": 89.44755450000093,
                    "velocity": 0.3858267716535433,
                    "duration": 0.10623225000000502
                },
                {
                    "name": "C4",
                    "midi": 60,
                    "time": 89.55378675000094,
                    "velocity": 0.33070866141732286,
                    "duration": 0.10623225000000502
                },
                {
                    "name": "F3",
                    "midi": 53,
                    "time": 89.66001900000094,
                    "velocity": 0.3858267716535433,
                    "duration": 0.10623225000000502
                },
                {
                    "name": "C4",
                    "midi": 60,
                    "time": 89.76625125000095,
                    "velocity": 0.33858267716535434,
                    "duration": 0.10623225000000502
                },
                {
                    "name": "A#3",
                    "midi": 58,
                    "time": 89.87248350000095,
                    "velocity": 0.3858267716535433,
                    "duration": 0.10623225000000502
                },
                {
                    "name": "C4",
                    "midi": 60,
                    "time": 89.97871575000096,
                    "velocity": 0.31496062992125984,
                    "duration": 0.10623225000000502
                },
                {
                    "name": "A3",
                    "midi": 57,
                    "time": 90.08494800000096,
                    "velocity": 0.3858267716535433,
                    "duration": 0.10623225000000502
                },
                {
                    "name": "C4",
                    "midi": 60,
                    "time": 90.19118025000097,
                    "velocity": 0.3228346456692913,
                    "duration": 0.10623225000000502
                },
                {
                    "name": "E3",
                    "midi": 52,
                    "time": 90.29741250000097,
                    "velocity": 0.3858267716535433,
                    "duration": 0.10623225000000502
                },
                {
                    "name": "C4",
                    "midi": 60,
                    "time": 90.40364475000098,
                    "velocity": 0.33070866141732286,
                    "duration": 0.10623225000000502
                },
                {
                    "name": "F3",
                    "midi": 53,
                    "time": 90.50987700000098,
                    "velocity": 0.3858267716535433,
                    "duration": 0.10623225000000502
                },
                {
                    "name": "C4",
                    "midi": 60,
                    "time": 90.61610925000099,
                    "velocity": 0.33858267716535434,
                    "duration": 0.10623225000000502
                },
                {
                    "name": "A#3",
                    "midi": 58,
                    "time": 90.722341500001,
                    "velocity": 0.3858267716535433,
                    "duration": 0.10623225000000502
                },
                {
                    "name": "C4",
                    "midi": 60,
                    "time": 90.828573750001,
                    "velocity": 0.31496062992125984,
                    "duration": 0.10623225000000502
                },
                {
                    "name": "A3",
                    "midi": 57,
                    "time": 90.934806000001,
                    "velocity": 0.4409448818897638,
                    "duration": 0.10623225000000502
                },
                {
                    "name": "C4",
                    "midi": 60,
                    "time": 91.04103825000101,
                    "velocity": 0.3543307086614173,
                    "duration": 0.10623225000000502
                },
                {
                    "name": "C#3",
                    "midi": 49,
                    "time": 91.14727050000101,
                    "velocity": 0.47244094488188976,
                    "duration": 0.10623225000000502
                },
                {
                    "name": "C#4",
                    "midi": 61,
                    "time": 91.25350275000102,
                    "velocity": 0.4094488188976378,
                    "duration": 0.10623225000000502
                },
                {
                    "name": "D3",
                    "midi": 50,
                    "time": 91.35973500000102,
                    "velocity": 0.48031496062992124,
                    "duration": 0.10623225000000502
                },
                {
                    "name": "D4",
                    "midi": 62,
                    "time": 91.46596725000103,
                    "velocity": 0.3858267716535433,
                    "duration": 0.10623225000000502
                },
                {
                    "name": "E3",
                    "midi": 52,
                    "time": 91.57219950000103,
                    "velocity": 0.5275590551181102,
                    "duration": 0.10623225000000502
                },
                {
                    "name": "E4",
                    "midi": 64,
                    "time": 91.67843175000104,
                    "velocity": 0.47244094488188976,
                    "duration": 0.10623225000000502
                },
                {
                    "name": "F3",
                    "midi": 53,
                    "time": 91.78466400000104,
                    "velocity": 0.5590551181102362,
                    "duration": 0.10623225000000502
                },
                {
                    "name": "F4",
                    "midi": 65,
                    "time": 91.89089625000105,
                    "velocity": 0.4881889763779528,
                    "duration": 0.10623225000000502
                },
                {
                    "name": "F#3",
                    "midi": 54,
                    "time": 91.99712850000105,
                    "velocity": 0.5511811023622047,
                    "duration": 0.10623225000000502
                },
                {
                    "name": "F#4",
                    "midi": 66,
                    "time": 92.10336075000106,
                    "velocity": 0.5039370078740157,
                    "duration": 0.10623225000000502
                },
                {
                    "name": "G3",
                    "midi": 55,
                    "time": 92.20959300000106,
                    "velocity": 0.5511811023622047,
                    "duration": 0.10623225000000502
                },
                {
                    "name": "G4",
                    "midi": 67,
                    "time": 92.31582525000107,
                    "velocity": 0.5039370078740157,
                    "duration": 0.10623225000000502
                },
                {
                    "name": "A3",
                    "midi": 57,
                    "time": 92.42205750000107,
                    "velocity": 0.5826771653543307,
                    "duration": 0.10623225000000502
                },
                {
                    "name": "A4",
                    "midi": 69,
                    "time": 92.52828975000108,
                    "velocity": 0.5118110236220472,
                    "duration": 0.10623225000000502
                },
                {
                    "name": "A#3",
                    "midi": 58,
                    "time": 92.63452200000108,
                    "velocity": 0.6456692913385826,
                    "duration": 0.10623225000000502
                },
                {
                    "name": "A#4",
                    "midi": 70,
                    "time": 92.74075425000109,
                    "velocity": 0.5590551181102362,
                    "duration": 0.10623225000000502
                },
                {
                    "name": "C4",
                    "midi": 60,
                    "time": 92.8469865000011,
                    "velocity": 0.6220472440944882,
                    "duration": 0.10623225000000502
                },
                {
                    "name": "C5",
                    "midi": 72,
                    "time": 92.9532187500011,
                    "velocity": 0.5511811023622047,
                    "duration": 0.10623225000000502
                },
                {
                    "name": "D4",
                    "midi": 62,
                    "time": 93.0594510000011,
                    "velocity": 0.6535433070866141,
                    "duration": 0.10623225000000502
                },
                {
                    "name": "D5",
                    "midi": 74,
                    "time": 93.16568325000111,
                    "velocity": 0.5669291338582677,
                    "duration": 0.10623225000000502
                },
                {
                    "name": "C4",
                    "midi": 60,
                    "time": 93.27191550000111,
                    "velocity": 0.6377952755905512,
                    "duration": 0.10623225000000502
                },
                {
                    "name": "C5",
                    "midi": 72,
                    "time": 93.37814775000112,
                    "velocity": 0.5433070866141733,
                    "duration": 0.10623225000000502
                },
                {
                    "name": "A#3",
                    "midi": 58,
                    "time": 93.48438000000112,
                    "velocity": 0.6614173228346457,
                    "duration": 0.10623225000000502
                },
                {
                    "name": "A#4",
                    "midi": 70,
                    "time": 93.59061225000113,
                    "velocity": 0.5433070866141733,
                    "duration": 0.10623225000000502
                },
                {
                    "name": "A3",
                    "midi": 57,
                    "time": 93.69684450000113,
                    "velocity": 0.6377952755905512,
                    "duration": 0.10623225000000502
                },
                {
                    "name": "A4",
                    "midi": 69,
                    "time": 93.80307675000114,
                    "velocity": 0.5433070866141733,
                    "duration": 0.10623225000000502
                },
                {
                    "name": "G3",
                    "midi": 55,
                    "time": 93.90930900000114,
                    "velocity": 0.6220472440944882,
                    "duration": 0.10623225000000502
                },
                {
                    "name": "G4",
                    "midi": 67,
                    "time": 94.01554125000115,
                    "velocity": 0.5433070866141733,
                    "duration": 0.10623225000000502
                },
                {
                    "name": "F3",
                    "midi": 53,
                    "time": 94.12177350000115,
                    "velocity": 0.6141732283464567,
                    "duration": 0.10623225000000502
                },
                {
                    "name": "F4",
                    "midi": 65,
                    "time": 94.22800575000116,
                    "velocity": 0.5118110236220472,
                    "duration": 0.10623225000000502
                },
                {
                    "name": "E3",
                    "midi": 52,
                    "time": 94.33423800000116,
                    "velocity": 0.6220472440944882,
                    "duration": 0.10623225000000502
                },
                {
                    "name": "E4",
                    "midi": 64,
                    "time": 94.44047025000117,
                    "velocity": 0.5433070866141733,
                    "duration": 0.10623225000000502
                },
                {
                    "name": "D3",
                    "midi": 50,
                    "time": 94.54670250000117,
                    "velocity": 0.6062992125984252,
                    "duration": 0.10623225000000502
                },
                {
                    "name": "D4",
                    "midi": 62,
                    "time": 94.65293475000118,
                    "velocity": 0.5118110236220472,
                    "duration": 0.10623225000000502
                },
                {
                    "name": "C3",
                    "midi": 48,
                    "time": 94.75916700000118,
                    "velocity": 0.6062992125984252,
                    "duration": 0.10623225000000502
                },
                {
                    "name": "C4",
                    "midi": 60,
                    "time": 94.86539925000119,
                    "velocity": 0.5275590551181102,
                    "duration": 0.10623225000000502
                },
                {
                    "name": "E3",
                    "midi": 52,
                    "time": 94.9716315000012,
                    "velocity": 0.5905511811023622,
                    "duration": 0.10623225000000502
                },
                {
                    "name": "E4",
                    "midi": 64,
                    "time": 95.0778637500012,
                    "velocity": 0.5196850393700787,
                    "duration": 0.10623225000000502
                },
                {
                    "name": "F4",
                    "midi": 65,
                    "time": 95.1840960000012,
                    "velocity": 0.6220472440944882,
                    "duration": 0.4249290000000059
                },
                {
                    "name": "F3",
                    "midi": 53,
                    "time": 95.1840960000012,
                    "velocity": 0.6220472440944882,
                    "duration": 0.4249290000000059
                },
                {
                    "name": "C4",
                    "midi": 60,
                    "time": 96.03395400000122,
                    "velocity": 0.31496062992125984,
                    "duration": 0.8498579999999976
                },
                {
                    "name": "A3",
                    "midi": 57,
                    "time": 96.03395400000122,
                    "velocity": 0.2677165354330709,
                    "duration": 0.8498579999999976
                },
                {
                    "name": "F3",
                    "midi": 53,
                    "time": 96.67134750000122,
                    "velocity": 0.30708661417322836,
                    "duration": 0.21246449999999584
                },
                {
                    "name": "C#4",
                    "midi": 61,
                    "time": 96.88381200000121,
                    "velocity": 0.36220472440944884,
                    "duration": 0.8498579999999976
                },
                {
                    "name": "A#3",
                    "midi": 58,
                    "time": 96.88381200000121,
                    "velocity": 0.30708661417322836,
                    "duration": 0.8498579999999976
                },
                {
                    "name": "G#3",
                    "midi": 56,
                    "time": 97.52120550000122,
                    "velocity": 0.31496062992125984,
                    "duration": 0.21246449999999584
                },
                {
                    "name": "C4",
                    "midi": 60,
                    "time": 97.73367000000121,
                    "velocity": 0.25196850393700787,
                    "duration": 0.4249289999999917
                },
                {
                    "name": "A#3",
                    "midi": 58,
                    "time": 97.73367000000121,
                    "velocity": 0.25196850393700787,
                    "duration": 0.4249289999999917
                },
                {
                    "name": "F#3",
                    "midi": 54,
                    "time": 97.73367000000121,
                    "velocity": 0.3543307086614173,
                    "duration": 0.21246449999999584
                },
                {
                    "name": "F3",
                    "midi": 53,
                    "time": 97.94613450000121,
                    "velocity": 0.31496062992125984,
                    "duration": 0.21246449999999584
                },
                {
                    "name": "C4",
                    "midi": 60,
                    "time": 98.1585990000012,
                    "velocity": 0.25984251968503935,
                    "duration": 0.4249289999999917
                },
                {
                    "name": "A#3",
                    "midi": 58,
                    "time": 98.1585990000012,
                    "velocity": 0.25984251968503935,
                    "duration": 0.4249289999999917
                },
                {
                    "name": "F#3",
                    "midi": 54,
                    "time": 98.1585990000012,
                    "velocity": 0.36220472440944884,
                    "duration": 0.21246449999999584
                },
                {
                    "name": "E3",
                    "midi": 52,
                    "time": 98.3710635000012,
                    "velocity": 0.31496062992125984,
                    "duration": 0.21246449999999584
                },
                {
                    "name": "C4",
                    "midi": 60,
                    "time": 98.5835280000012,
                    "velocity": 0.36220472440944884,
                    "duration": 0.6373935000000017
                },
                {
                    "name": "A3",
                    "midi": 57,
                    "time": 98.5835280000012,
                    "velocity": 0.30708661417322836,
                    "duration": 0.6373935000000017
                },
                {
                    "name": "F3",
                    "midi": 53,
                    "time": 98.5835280000012,
                    "velocity": 0.30708661417322836,
                    "duration": 0.6373935000000017
                },
                {
                    "name": "A4",
                    "midi": 69,
                    "time": 99.43338600000119,
                    "velocity": 0.4094488188976378,
                    "duration": 0.6373935000000017
                },
                {
                    "name": "C4",
                    "midi": 60,
                    "time": 99.43338600000119,
                    "velocity": 0.4094488188976378,
                    "duration": 0.8498579999999976
                },
                {
                    "name": "A3",
                    "midi": 57,
                    "time": 99.43338600000119,
                    "velocity": 0.3464566929133858,
                    "duration": 0.8498579999999976
                },
                {
                    "name": "F4",
                    "midi": 65,
                    "time": 100.0707795000012,
                    "velocity": 0.3937007874015748,
                    "duration": 0.21246449999999584
                },
                {
                    "name": "A#4",
                    "midi": 70,
                    "time": 100.28324400000119,
                    "velocity": 0.4094488188976378,
                    "duration": 0.6373935000000017
                },
                {
                    "name": "C#4",
                    "midi": 61,
                    "time": 100.28324400000119,
                    "velocity": 0.4645669291338583,
                    "duration": 0.8498579999999976
                },
                {
                    "name": "A#3",
                    "midi": 58,
                    "time": 100.28324400000119,
                    "velocity": 0.3937007874015748,
                    "duration": 0.8498579999999976
                },
                {
                    "name": "G#4",
                    "midi": 68,
                    "time": 100.92063750000119,
                    "velocity": 0.4094488188976378,
                    "duration": 0.21246449999999584
                },
                {
                    "name": "C#4",
                    "midi": 61,
                    "time": 101.13310200000119,
                    "velocity": 0.3228346456692913,
                    "duration": 0.4249289999999917
                },
                {
                    "name": "A#3",
                    "midi": 58,
                    "time": 101.13310200000119,
                    "velocity": 0.3228346456692913,
                    "duration": 0.4249289999999917
                },
                {
                    "name": "F#4",
                    "midi": 66,
                    "time": 101.13310200000119,
                    "velocity": 0.4566929133858268,
                    "duration": 0.21246449999999584
                },
                {
                    "name": "F4",
                    "midi": 65,
                    "time": 101.34556650000118,
                    "velocity": 0.4094488188976378,
                    "duration": 0.21246449999999584
                },
                {
                    "name": "C#4",
                    "midi": 61,
                    "time": 101.55803100000118,
                    "velocity": 0.33070866141732286,
                    "duration": 0.4249289999999917
                },
                {
                    "name": "A#3",
                    "midi": 58,
                    "time": 101.55803100000118,
                    "velocity": 0.33070866141732286,
                    "duration": 0.4249289999999917
                },
                {
                    "name": "F#4",
                    "midi": 66,
                    "time": 101.55803100000118,
                    "velocity": 0.4645669291338583,
                    "duration": 0.21246449999999584
                },
                {
                    "name": "E4",
                    "midi": 64,
                    "time": 101.77049550000118,
                    "velocity": 0.4094488188976378,
                    "duration": 0.21246449999999584
                },
                {
                    "name": "F4",
                    "midi": 65,
                    "time": 101.98296000000117,
                    "velocity": 0.4645669291338583,
                    "duration": 0.6373935000000017
                },
                {
                    "name": "C4",
                    "midi": 60,
                    "time": 101.98296000000117,
                    "velocity": 0.3937007874015748,
                    "duration": 0.6373935000000017
                },
                {
                    "name": "A3",
                    "midi": 57,
                    "time": 101.98296000000117,
                    "velocity": 0.3937007874015748,
                    "duration": 0.6373935000000017
                },
                {
                    "name": "C#4",
                    "midi": 61,
                    "time": 102.83281800000117,
                    "velocity": 0.29133858267716534,
                    "duration": 0.4249289999999917
                },
                {
                    "name": "A#3",
                    "midi": 58,
                    "time": 102.83281800000117,
                    "velocity": 0.29133858267716534,
                    "duration": 0.4249289999999917
                },
                {
                    "name": "G4",
                    "midi": 67,
                    "time": 102.83281800000117,
                    "velocity": 0.41732283464566927,
                    "duration": 0.21246449999999584
                },
                {
                    "name": "F4",
                    "midi": 65,
                    "time": 103.04528250000116,
                    "velocity": 0.36220472440944884,
                    "duration": 0.21246449999999584
                },
                {
                    "name": "C#4",
                    "midi": 61,
                    "time": 103.25774700000116,
                    "velocity": 0.28346456692913385,
                    "duration": 0.4249289999999917
                },
                {
                    "name": "A#3",
                    "midi": 58,
                    "time": 103.25774700000116,
                    "velocity": 0.28346456692913385,
                    "duration": 0.4249289999999917
                },
                {
                    "name": "G4",
                    "midi": 67,
                    "time": 103.25774700000116,
                    "velocity": 0.4015748031496063,
                    "duration": 0.21246449999999584
                },
                {
                    "name": "E4",
                    "midi": 64,
                    "time": 103.47021150000116,
                    "velocity": 0.3464566929133858,
                    "duration": 0.21246449999999584
                },
                {
                    "name": "F4",
                    "midi": 65,
                    "time": 103.68267600000115,
                    "velocity": 0.3858267716535433,
                    "duration": 0.6373935000000017
                },
                {
                    "name": "C4",
                    "midi": 60,
                    "time": 103.68267600000115,
                    "velocity": 0.33070866141732286,
                    "duration": 0.6373935000000017
                },
                {
                    "name": "A3",
                    "midi": 57,
                    "time": 103.68267600000115,
                    "velocity": 0.33070866141732286,
                    "duration": 0.6373935000000017
                },
                {
                    "name": "C#4",
                    "midi": 61,
                    "time": 104.53253400000115,
                    "velocity": 0.23622047244094488,
                    "duration": 0.4249289999999917
                },
                {
                    "name": "A#3",
                    "midi": 58,
                    "time": 104.53253400000115,
                    "velocity": 0.23622047244094488,
                    "duration": 0.4249289999999917
                },
                {
                    "name": "F#4",
                    "midi": 66,
                    "time": 104.53253400000115,
                    "velocity": 0.33858267716535434,
                    "duration": 0.21246449999999584
                },
                {
                    "name": "F4",
                    "midi": 65,
                    "time": 104.74499850000115,
                    "velocity": 0.30708661417322836,
                    "duration": 0.21246449999999584
                },
                {
                    "name": "C#4",
                    "midi": 61,
                    "time": 104.95746300000114,
                    "velocity": 0.2440944881889764,
                    "duration": 0.4249289999999917
                },
                {
                    "name": "A#3",
                    "midi": 58,
                    "time": 104.95746300000114,
                    "velocity": 0.2440944881889764,
                    "duration": 0.4249289999999917
                },
                {
                    "name": "F#4",
                    "midi": 66,
                    "time": 104.95746300000114,
                    "velocity": 0.3464566929133858,
                    "duration": 0.21246449999999584
                },
                {
                    "name": "E4",
                    "midi": 64,
                    "time": 105.16992750000114,
                    "velocity": 0.30708661417322836,
                    "duration": 0.21246449999999584
                },
                {
                    "name": "F3",
                    "midi": 53,
                    "time": 105.38239200000113,
                    "velocity": 0.5826771653543307,
                    "duration": 0.6373935000000017
                },
                {
                    "name": "F4",
                    "midi": 65,
                    "time": 105.38239200000113,
                    "velocity": 0.6929133858267716,
                    "duration": 0.6373935000000017
                },
                {
                    "name": "G3",
                    "midi": 55,
                    "time": 106.01978550000113,
                    "velocity": 0.5275590551181102,
                    "duration": 0.10623225000000502
                },
                {
                    "name": "G4",
                    "midi": 67,
                    "time": 106.01978550000113,
                    "velocity": 0.6220472440944882,
                    "duration": 0.10623225000000502
                },
                {
                    "name": "A3",
                    "midi": 57,
                    "time": 106.23225000000114,
                    "velocity": 0.5826771653543307,
                    "duration": 0.6373935000000017
                },
                {
                    "name": "A4",
                    "midi": 69,
                    "time": 106.23225000000114,
                    "velocity": 0.7007874015748031,
                    "duration": 0.6373935000000017
                },
                {
                    "name": "A#3",
                    "midi": 58,
                    "time": 106.86964350000115,
                    "velocity": 0.5354330708661418,
                    "duration": 0.10623225000000502
                },
                {
                    "name": "A#4",
                    "midi": 70,
                    "time": 106.86964350000115,
                    "velocity": 0.6377952755905512,
                    "duration": 0.10623225000000502
                },
                {
                    "name": "C4",
                    "midi": 60,
                    "time": 107.08210800000116,
                    "velocity": 0.6062992125984252,
                    "duration": 0.6373935000000017
                },
                {
                    "name": "C5",
                    "midi": 72,
                    "time": 107.08210800000116,
                    "velocity": 0.7165354330708661,
                    "duration": 0.6373935000000017
                },
                {
                    "name": "D4",
                    "midi": 62,
                    "time": 107.71950150000116,
                    "velocity": 0.4881889763779528,
                    "duration": 0.10623225000000502
                },
                {
                    "name": "D5",
                    "midi": 74,
                    "time": 107.71950150000116,
                    "velocity": 0.5826771653543307,
                    "duration": 0.10623225000000502
                },
                {
                    "name": "E4",
                    "midi": 64,
                    "time": 107.93196600000117,
                    "velocity": 0.5590551181102362,
                    "duration": 0.10623225000000502
                },
                {
                    "name": "E5",
                    "midi": 76,
                    "time": 107.93196600000117,
                    "velocity": 0.6614173228346457,
                    "duration": 0.10623225000000502
                },
                {
                    "name": "F4",
                    "midi": 65,
                    "time": 108.14443050000118,
                    "velocity": 0.5354330708661418,
                    "duration": 0.10623225000000502
                },
                {
                    "name": "F5",
                    "midi": 77,
                    "time": 108.14443050000118,
                    "velocity": 0.6377952755905512,
                    "duration": 0.10623225000000502
                },
                {
                    "name": "G4",
                    "midi": 67,
                    "time": 108.35689500000119,
                    "velocity": 0.5826771653543307,
                    "duration": 0.10623225000000502
                },
                {
                    "name": "G5",
                    "midi": 79,
                    "time": 108.35689500000119,
                    "velocity": 0.6850393700787402,
                    "duration": 0.10623225000000502
                },
                {
                    "name": "A4",
                    "midi": 69,
                    "time": 108.5693595000012,
                    "velocity": 0.5433070866141733,
                    "duration": 0.10623225000000502
                },
                {
                    "name": "A5",
                    "midi": 81,
                    "time": 108.5693595000012,
                    "velocity": 0.6535433070866141,
                    "duration": 0.10623225000000502
                },
                {
                    "name": "A#4",
                    "midi": 70,
                    "time": 108.78182400000121,
                    "velocity": 0.6377952755905512,
                    "duration": 0.6373935000000017
                },
                {
                    "name": "A#5",
                    "midi": 82,
                    "time": 108.78182400000121,
                    "velocity": 0.7559055118110236,
                    "duration": 0.6373935000000017
                },
                {
                    "name": "A4",
                    "midi": 69,
                    "time": 109.41921750000121,
                    "velocity": 0.5590551181102362,
                    "duration": 0.10623225000000502
                },
                {
                    "name": "A5",
                    "midi": 81,
                    "time": 109.41921750000121,
                    "velocity": 0.6614173228346457,
                    "duration": 0.10623225000000502
                },
                {
                    "name": "G4",
                    "midi": 67,
                    "time": 109.63168200000122,
                    "velocity": 0.6141732283464567,
                    "duration": 0.6373935000000017
                },
                {
                    "name": "G5",
                    "midi": 79,
                    "time": 109.63168200000122,
                    "velocity": 0.7401574803149606,
                    "duration": 0.6373935000000017
                },
                {
                    "name": "F4",
                    "midi": 65,
                    "time": 110.26907550000122,
                    "velocity": 0.5511811023622047,
                    "duration": 0.10623225000000502
                },
                {
                    "name": "F5",
                    "midi": 77,
                    "time": 110.26907550000122,
                    "velocity": 0.6535433070866141,
                    "duration": 0.10623225000000502
                },
                {
                    "name": "E4",
                    "midi": 64,
                    "time": 110.48154000000123,
                    "velocity": 0.6141732283464567,
                    "duration": 0.6373935000000017
                },
                {
                    "name": "E5",
                    "midi": 76,
                    "time": 110.48154000000123,
                    "velocity": 0.7244094488188977,
                    "duration": 0.6373935000000017
                },
                {
                    "name": "D4",
                    "midi": 62,
                    "time": 111.11893350000123,
                    "velocity": 0.4881889763779528,
                    "duration": 0.10623225000000502
                },
                {
                    "name": "D5",
                    "midi": 74,
                    "time": 111.11893350000123,
                    "velocity": 0.5826771653543307,
                    "duration": 0.10623225000000502
                },
                {
                    "name": "C4",
                    "midi": 60,
                    "time": 111.33139800000124,
                    "velocity": 0.5511811023622047,
                    "duration": 0.10623225000000502
                },
                {
                    "name": "C5",
                    "midi": 72,
                    "time": 111.33139800000124,
                    "velocity": 0.6535433070866141,
                    "duration": 0.10623225000000502
                },
                {
                    "name": "A#3",
                    "midi": 58,
                    "time": 111.54386250000125,
                    "velocity": 0.5196850393700787,
                    "duration": 0.10623225000000502
                },
                {
                    "name": "A#4",
                    "midi": 70,
                    "time": 111.54386250000125,
                    "velocity": 0.6141732283464567,
                    "duration": 0.10623225000000502
                },
                {
                    "name": "A3",
                    "midi": 57,
                    "time": 111.75632700000126,
                    "velocity": 0.5511811023622047,
                    "duration": 0.10623225000000502
                },
                {
                    "name": "A4",
                    "midi": 69,
                    "time": 111.75632700000126,
                    "velocity": 0.6535433070866141,
                    "duration": 0.10623225000000502
                },
                {
                    "name": "G3",
                    "midi": 55,
                    "time": 111.96879150000127,
                    "velocity": 0.5039370078740157,
                    "duration": 0.10623225000000502
                },
                {
                    "name": "G4",
                    "midi": 67,
                    "time": 111.96879150000127,
                    "velocity": 0.6062992125984252,
                    "duration": 0.10623225000000502
                },
                {
                    "name": "F3",
                    "midi": 53,
                    "time": 112.18125600000128,
                    "velocity": 0.6141732283464567,
                    "duration": 0.10623225000000502
                },
                {
                    "name": "F4",
                    "midi": 65,
                    "time": 112.18125600000128,
                    "velocity": 0.7086614173228346,
                    "duration": 0.10623225000000502
                },
                {
                    "name": "E4",
                    "midi": 64,
                    "time": 112.60618500000129,
                    "velocity": 0.41732283464566927,
                    "duration": 0.10623225000000502
                },
                {
                    "name": "D#4",
                    "midi": 63,
                    "time": 112.7124172500013,
                    "velocity": 0.3543307086614173,
                    "duration": 0.10623225000000502
                },
                {
                    "name": "E4",
                    "midi": 64,
                    "time": 112.8186495000013,
                    "velocity": 0.41732283464566927,
                    "duration": 0.10623225000000502
                },
                {
                    "name": "C4",
                    "midi": 60,
                    "time": 112.9248817500013,
                    "velocity": 0.33858267716535434,
                    "duration": 0.10623225000000502
                },
                {
                    "name": "F4",
                    "midi": 65,
                    "time": 113.03111400000131,
                    "velocity": 0.44881889763779526,
                    "duration": 0.10623225000000502
                },
                {
                    "name": "E5",
                    "midi": 76,
                    "time": 113.45604300000132,
                    "velocity": 0.41732283464566927,
                    "duration": 0.10623225000000502
                },
                {
                    "name": "D#5",
                    "midi": 75,
                    "time": 113.56227525000132,
                    "velocity": 0.3543307086614173,
                    "duration": 0.10623225000000502
                },
                {
                    "name": "E5",
                    "midi": 76,
                    "time": 113.66850750000133,
                    "velocity": 0.41732283464566927,
                    "duration": 0.10623225000000502
                },
                {
                    "name": "C5",
                    "midi": 72,
                    "time": 113.77473975000133,
                    "velocity": 0.33858267716535434,
                    "duration": 0.10623225000000502
                },
                {
                    "name": "F5",
                    "midi": 77,
                    "time": 113.88097200000134,
                    "velocity": 0.44881889763779526,
                    "duration": 0.10623225000000502
                },
                {
                    "name": "E6",
                    "midi": 88,
                    "time": 114.73083000000135,
                    "velocity": 0.7165354330708661,
                    "duration": 0.4249290000000059
                },
                {
                    "name": "C6",
                    "midi": 84,
                    "time": 114.73083000000135,
                    "velocity": 0.6062992125984252,
                    "duration": 0.4249290000000059
                },
                {
                    "name": "A#5",
                    "midi": 82,
                    "time": 114.73083000000135,
                    "velocity": 0.6062992125984252,
                    "duration": 0.4249290000000059
                },
                {
                    "name": "G5",
                    "midi": 79,
                    "time": 114.73083000000135,
                    "velocity": 0.6062992125984252,
                    "duration": 0.4249290000000059
                },
                {
                    "name": "E5",
                    "midi": 76,
                    "time": 114.73083000000135,
                    "velocity": 0.6062992125984252,
                    "duration": 0.4249290000000059
                },
                {
                    "name": "F6",
                    "midi": 89,
                    "time": 115.58068800000136,
                    "velocity": 0.7637795275590551,
                    "duration": 0.4249290000000059
                },
                {
                    "name": "C6",
                    "midi": 84,
                    "time": 115.58068800000136,
                    "velocity": 0.6456692913385826,
                    "duration": 0.4249290000000059
                },
                {
                    "name": "A5",
                    "midi": 81,
                    "time": 115.58068800000136,
                    "velocity": 0.6456692913385826,
                    "duration": 0.4249290000000059
                },
                {
                    "name": "F5",
                    "midi": 77,
                    "time": 115.58068800000136,
                    "velocity": 0.6456692913385826,
                    "duration": 0.4249290000000059
                },
                {
                    "name": "A#3",
                    "midi": 58,
                    "time": 116.85547500000136,
                    "velocity": 0.33070866141732286,
                    "duration": 0.10623225000000502
                },
                {
                    "name": "D4",
                    "midi": 62,
                    "time": 116.85547500000136,
                    "velocity": 0.3937007874015748,
                    "duration": 0.4249290000000201
                },
                {
                    "name": "A3",
                    "midi": 57,
                    "time": 116.96170725000137,
                    "velocity": 0.31496062992125984,
                    "duration": 0.10623225000000502
                },
                {
                    "name": "A#3",
                    "midi": 58,
                    "time": 117.06793950000137,
                    "velocity": 0.3543307086614173,
                    "duration": 0.10623225000000502
                },
                {
                    "name": "F3",
                    "midi": 53,
                    "time": 117.17417175000138,
                    "velocity": 0.30708661417322836,
                    "duration": 0.10623225000000502
                },
                {
                    "name": "D4",
                    "midi": 62,
                    "time": 117.28040400000138,
                    "velocity": 0.2755905511811024,
                    "duration": 0.07967418750000377
                },
                {
                    "name": "F4",
                    "midi": 65,
                    "time": 117.28040400000138,
                    "velocity": 0.33070866141732286,
                    "duration": 0.07967418750000377
                },
                {
                    "name": "A#3",
                    "midi": 58,
                    "time": 117.70533300000139,
                    "velocity": 0.25196850393700787,
                    "duration": 0.07967418750000377
                },
                {
                    "name": "D4",
                    "midi": 62,
                    "time": 117.70533300000139,
                    "velocity": 0.2992125984251969,
                    "duration": 0.07967418750000377
                },
                {
                    "name": "A#3",
                    "midi": 58,
                    "time": 118.55519100000139,
                    "velocity": 0.33070866141732286,
                    "duration": 0.10623225000000502
                },
                {
                    "name": "D4",
                    "midi": 62,
                    "time": 118.55519100000139,
                    "velocity": 0.3937007874015748,
                    "duration": 0.4249290000000201
                },
                {
                    "name": "A3",
                    "midi": 57,
                    "time": 118.66142325000139,
                    "velocity": 0.31496062992125984,
                    "duration": 0.10623225000000502
                },
                {
                    "name": "A#3",
                    "midi": 58,
                    "time": 118.7676555000014,
                    "velocity": 0.3543307086614173,
                    "duration": 0.10623225000000502
                },
                {
                    "name": "F3",
                    "midi": 53,
                    "time": 118.8738877500014,
                    "velocity": 0.30708661417322836,
                    "duration": 0.10623225000000502
                },
                {
                    "name": "D4",
                    "midi": 62,
                    "time": 118.9801200000014,
                    "velocity": 0.2755905511811024,
                    "duration": 0.07967418750000377
                },
                {
                    "name": "F4",
                    "midi": 65,
                    "time": 118.9801200000014,
                    "velocity": 0.33070866141732286,
                    "duration": 0.07967418750000377
                },
                {
                    "name": "A#3",
                    "midi": 58,
                    "time": 119.40504900000141,
                    "velocity": 0.25196850393700787,
                    "duration": 0.07967418750000377
                },
                {
                    "name": "D4",
                    "midi": 62,
                    "time": 119.40504900000141,
                    "velocity": 0.2992125984251969,
                    "duration": 0.07967418750000377
                },
                {
                    "name": "D4",
                    "midi": 62,
                    "time": 120.25490700000141,
                    "velocity": 0.3937007874015748,
                    "duration": 0.21246450000001005
                },
                {
                    "name": "A#3",
                    "midi": 58,
                    "time": 120.25490700000141,
                    "velocity": 0.33070866141732286,
                    "duration": 0.11685547500000837
                },
                {
                    "name": "A3",
                    "midi": 57,
                    "time": 120.36113925000141,
                    "velocity": 0.31496062992125984,
                    "duration": 0.11685547500000837
                },
                {
                    "name": "A#3",
                    "midi": 58,
                    "time": 120.46737150000142,
                    "velocity": 0.36220472440944884,
                    "duration": 0.11685547500000837
                },
                {
                    "name": "F3",
                    "midi": 53,
                    "time": 120.57360375000142,
                    "velocity": 0.31496062992125984,
                    "duration": 0.10623225000000502
                },
                {
                    "name": "F4",
                    "midi": 65,
                    "time": 120.67983600000143,
                    "velocity": 0.41732283464566927,
                    "duration": 0.21246450000001005
                },
                {
                    "name": "D4",
                    "midi": 62,
                    "time": 120.67983600000143,
                    "velocity": 0.3464566929133858,
                    "duration": 0.11685547500000837
                },
                {
                    "name": "C#4",
                    "midi": 61,
                    "time": 120.78606825000143,
                    "velocity": 0.33070866141732286,
                    "duration": 0.11685547500000837
                },
                {
                    "name": "D4",
                    "midi": 62,
                    "time": 120.89230050000144,
                    "velocity": 0.3858267716535433,
                    "duration": 0.11685547500000837
                },
                {
                    "name": "A#3",
                    "midi": 58,
                    "time": 120.99853275000144,
                    "velocity": 0.33070866141732286,
                    "duration": 0.10623225000000502
                },
                {
                    "name": "F4",
                    "midi": 65,
                    "time": 121.10476500000145,
                    "velocity": 0.3700787401574803,
                    "duration": 0.11685547500000837
                },
                {
                    "name": "A#4",
                    "midi": 70,
                    "time": 121.10476500000145,
                    "velocity": 0.4409448818897638,
                    "duration": 0.21246450000001005
                },
                {
                    "name": "E4",
                    "midi": 64,
                    "time": 121.21099725000145,
                    "velocity": 0.3543307086614173,
                    "duration": 0.11685547500000837
                },
                {
                    "name": "F4",
                    "midi": 65,
                    "time": 121.31722950000146,
                    "velocity": 0.4015748031496063,
                    "duration": 0.11685547500000837
                },
                {
                    "name": "D4",
                    "midi": 62,
                    "time": 121.42346175000147,
                    "velocity": 0.3543307086614173,
                    "duration": 0.10623225000000502
                },
                {
                    "name": "A#4",
                    "midi": 70,
                    "time": 121.52969400000147,
                    "velocity": 0.3858267716535433,
                    "duration": 0.11685547500000837
                },
                {
                    "name": "D5",
                    "midi": 74,
                    "time": 121.52969400000147,
                    "velocity": 0.4645669291338583,
                    "duration": 0.21246450000001005
                },
                {
                    "name": "A4",
                    "midi": 69,
                    "time": 121.63592625000148,
                    "velocity": 0.3700787401574803,
                    "duration": 0.11685547500000837
                },
                {
                    "name": "A#4",
                    "midi": 70,
                    "time": 121.74215850000148,
                    "velocity": 0.4251968503937008,
                    "duration": 0.11685547500000837
                },
                {
                    "name": "F4",
                    "midi": 65,
                    "time": 121.84839075000149,
                    "velocity": 0.3700787401574803,
                    "duration": 0.10623225000000502
                },
                {
                    "name": "D5",
                    "midi": 74,
                    "time": 121.95462300000149,
                    "velocity": 0.4094488188976378,
                    "duration": 0.11685547500000837
                },
                {
                    "name": "F5",
                    "midi": 77,
                    "time": 121.95462300000149,
                    "velocity": 0.4881889763779528,
                    "duration": 0.21246450000001005
                },
                {
                    "name": "C#5",
                    "midi": 73,
                    "time": 122.0608552500015,
                    "velocity": 0.3937007874015748,
                    "duration": 0.11685547500000837
                },
                {
                    "name": "D5",
                    "midi": 74,
                    "time": 122.1670875000015,
                    "velocity": 0.44881889763779526,
                    "duration": 0.11685547500000837
                },
                {
                    "name": "A#4",
                    "midi": 70,
                    "time": 122.2733197500015,
                    "velocity": 0.3858267716535433,
                    "duration": 0.10623225000000502
                },
                {
                    "name": "A#5",
                    "midi": 82,
                    "time": 122.37955200000151,
                    "velocity": 0.5669291338582677,
                    "duration": 1.2747870000000034
                },
                {
                    "name": "A5",
                    "midi": 81,
                    "time": 123.65433900000151,
                    "velocity": 0.47244094488188976,
                    "duration": 0.10623225000000502
                },
                {
                    "name": "A#5",
                    "midi": 82,
                    "time": 123.76057125000152,
                    "velocity": 0.44881889763779526,
                    "duration": 0.10623225000000502
                },
                {
                    "name": "C6",
                    "midi": 84,
                    "time": 123.86680350000152,
                    "velocity": 0.47244094488188976,
                    "duration": 0.10623225000000502
                },
                {
                    "name": "A#5",
                    "midi": 82,
                    "time": 123.97303575000153,
                    "velocity": 0.4251968503937008,
                    "duration": 0.10623225000000502
                },
                {
                    "name": "A5",
                    "midi": 81,
                    "time": 124.07926800000153,
                    "velocity": 0.47244094488188976,
                    "duration": 0.21246449999999584
                },
                {
                    "name": "G5",
                    "midi": 79,
                    "time": 124.29173250000153,
                    "velocity": 0.4015748031496063,
                    "duration": 0.21246449999999584
                },
                {
                    "name": "F5",
                    "midi": 77,
                    "time": 124.50419700000153,
                    "velocity": 0.4251968503937008,
                    "duration": 0.21246449999999584
                },
                {
                    "name": "D#5",
                    "midi": 75,
                    "time": 124.71666150000152,
                    "velocity": 0.3937007874015748,
                    "duration": 0.21246449999999584
                },
                {
                    "name": "D5",
                    "midi": 74,
                    "time": 124.92912600000152,
                    "velocity": 0.4645669291338583,
                    "duration": 0.21246449999999584
                },
                {
                    "name": "C5",
                    "midi": 72,
                    "time": 125.14159050000151,
                    "velocity": 0.3779527559055118,
                    "duration": 0.21246449999999584
                },
                {
                    "name": "G5",
                    "midi": 79,
                    "time": 125.35405500000151,
                    "velocity": 0.4409448818897638,
                    "duration": 0.21246449999999584
                },
                {
                    "name": "F5",
                    "midi": 77,
                    "time": 125.5665195000015,
                    "velocity": 0.3700787401574803,
                    "duration": 0.21246449999999584
                },
                {
                    "name": "D#5",
                    "midi": 75,
                    "time": 125.7789840000015,
                    "velocity": 0.4251968503937008,
                    "duration": 0.4249290000000059
                },
                {
                    "name": "D5",
                    "midi": 74,
                    "time": 126.2039130000015,
                    "velocity": 0.3700787401574803,
                    "duration": 0.4249290000000059
                },
                {
                    "name": "A4",
                    "midi": 69,
                    "time": 127.05377100000152,
                    "velocity": 0.4566929133858268,
                    "duration": 0.10623225000000502
                },
                {
                    "name": "A#4",
                    "midi": 70,
                    "time": 127.16000325000152,
                    "velocity": 0.4251968503937008,
                    "duration": 0.10623225000000502
                },
                {
                    "name": "C5",
                    "midi": 72,
                    "time": 127.26623550000153,
                    "velocity": 0.4566929133858268,
                    "duration": 0.10623225000000502
                },
                {
                    "name": "A#4",
                    "midi": 70,
                    "time": 127.37246775000153,
                    "velocity": 0.4251968503937008,
                    "duration": 0.10623225000000502
                },
                {
                    "name": "G#4",
                    "midi": 68,
                    "time": 127.47870000000154,
                    "velocity": 0.47244094488188976,
                    "duration": 0.21246449999999584
                },
                {
                    "name": "G4",
                    "midi": 67,
                    "time": 127.69116450000153,
                    "velocity": 0.4251968503937008,
                    "duration": 0.21246449999999584
                },
                {
                    "name": "F4",
                    "midi": 65,
                    "time": 127.90362900000153,
                    "velocity": 0.5196850393700787,
                    "duration": 0.21246450000001005
                },
                {
                    "name": "D#4",
                    "midi": 63,
                    "time": 128.11609350000154,
                    "velocity": 0.48031496062992124,
                    "duration": 0.21246450000001005
                },
                {
                    "name": "D4",
                    "midi": 62,
                    "time": 128.32855800000155,
                    "velocity": 0.5433070866141733,
                    "duration": 0.21246450000001005
                },
                {
                    "name": "C4",
                    "midi": 60,
                    "time": 128.54102250000156,
                    "velocity": 0.4881889763779528,
                    "duration": 0.21246450000001005
                },
                {
                    "name": "D#4",
                    "midi": 63,
                    "time": 128.75348700000157,
                    "velocity": 0.5748031496062992,
                    "duration": 0.21246450000001005
                },
                {
                    "name": "A3",
                    "midi": 57,
                    "time": 128.96595150000158,
                    "velocity": 0.49606299212598426,
                    "duration": 0.21246450000001005
                },
                {
                    "name": "A#3",
                    "midi": 58,
                    "time": 129.1784160000016,
                    "velocity": 0.6220472440944882,
                    "duration": 0.10623225000000502
                },
                {
                    "name": "D4",
                    "midi": 62,
                    "time": 129.3908805000016,
                    "velocity": 0.5354330708661418,
                    "duration": 0.10623225000000502
                },
                {
                    "name": "C4",
                    "midi": 60,
                    "time": 129.4971127500016,
                    "velocity": 0.5118110236220472,
                    "duration": 0.10623225000000502
                },
                {
                    "name": "A#3",
                    "midi": 58,
                    "time": 129.6033450000016,
                    "velocity": 0.5590551181102362,
                    "duration": 0.10623225000000502
                },
                {
                    "name": "A3",
                    "midi": 57,
                    "time": 129.70957725000162,
                    "velocity": 0.5118110236220472,
                    "duration": 0.10623225000000502
                },
                {
                    "name": "A#3",
                    "midi": 58,
                    "time": 129.81580950000162,
                    "velocity": 0.5590551181102362,
                    "duration": 0.10623225000000502
                },
                {
                    "name": "G3",
                    "midi": 55,
                    "time": 129.92204175000163,
                    "velocity": 0.5118110236220472,
                    "duration": 0.10623225000000502
                },
                {
                    "name": "F3",
                    "midi": 53,
                    "time": 130.02827400000163,
                    "velocity": 0.6220472440944882,
                    "duration": 0.10623225000000502
                },
                {
                    "name": "G4",
                    "midi": 67,
                    "time": 130.24073850000164,
                    "velocity": 0.5354330708661418,
                    "duration": 0.10623225000000502
                },
                {
                    "name": "F4",
                    "midi": 65,
                    "time": 130.34697075000165,
                    "velocity": 0.5118110236220472,
                    "duration": 0.10623225000000502
                },
                {
                    "name": "D#4",
                    "midi": 63,
                    "time": 130.45320300000165,
                    "velocity": 0.5590551181102362,
                    "duration": 0.10623225000000502
                },
                {
                    "name": "D4",
                    "midi": 62,
                    "time": 130.55943525000166,
                    "velocity": 0.5118110236220472,
                    "duration": 0.10623225000000502
                },
                {
                    "name": "D#4",
                    "midi": 63,
                    "time": 130.66566750000166,
                    "velocity": 0.5590551181102362,
                    "duration": 0.10623225000000502
                },
                {
                    "name": "C4",
                    "midi": 60,
                    "time": 130.77189975000167,
                    "velocity": 0.5118110236220472,
                    "duration": 0.10623225000000502
                },
                {
                    "name": "A#3",
                    "midi": 58,
                    "time": 130.87813200000167,
                    "velocity": 0.6220472440944882,
                    "duration": 0.10623225000000502
                },
                {
                    "name": "D5",
                    "midi": 74,
                    "time": 131.09059650000168,
                    "velocity": 0.5354330708661418,
                    "duration": 0.10623225000000502
                },
                {
                    "name": "C5",
                    "midi": 72,
                    "time": 131.19682875000169,
                    "velocity": 0.5118110236220472,
                    "duration": 0.10623225000000502
                },
                {
                    "name": "A#4",
                    "midi": 70,
                    "time": 131.3030610000017,
                    "velocity": 0.5590551181102362,
                    "duration": 0.10623225000000502
                },
                {
                    "name": "A4",
                    "midi": 69,
                    "time": 131.4092932500017,
                    "velocity": 0.5118110236220472,
                    "duration": 0.10623225000000502
                },
                {
                    "name": "A#4",
                    "midi": 70,
                    "time": 131.5155255000017,
                    "velocity": 0.5590551181102362,
                    "duration": 0.10623225000000502
                },
                {
                    "name": "G4",
                    "midi": 67,
                    "time": 131.6217577500017,
                    "velocity": 0.5118110236220472,
                    "duration": 0.10623225000000502
                },
                {
                    "name": "F4",
                    "midi": 65,
                    "time": 131.7279900000017,
                    "velocity": 0.6220472440944882,
                    "duration": 0.10623225000000502
                },
                {
                    "name": "G5",
                    "midi": 79,
                    "time": 131.94045450000172,
                    "velocity": 0.6141732283464567,
                    "duration": 0.10623225000000502
                },
                {
                    "name": "F5",
                    "midi": 77,
                    "time": 132.04668675000173,
                    "velocity": 0.5826771653543307,
                    "duration": 0.10623225000000502
                },
                {
                    "name": "D#5",
                    "midi": 75,
                    "time": 132.15291900000173,
                    "velocity": 0.6377952755905512,
                    "duration": 0.10623225000000502
                },
                {
                    "name": "D5",
                    "midi": 74,
                    "time": 132.25915125000174,
                    "velocity": 0.5826771653543307,
                    "duration": 0.10623225000000502
                },
                {
                    "name": "D#5",
                    "midi": 75,
                    "time": 132.36538350000174,
                    "velocity": 0.6377952755905512,
                    "duration": 0.10623225000000502
                },
                {
                    "name": "C5",
                    "midi": 72,
                    "time": 132.47161575000175,
                    "velocity": 0.5826771653543307,
                    "duration": 0.10623225000000502
                },
                {
                    "name": "A#4",
                    "midi": 70,
                    "time": 132.57784800000175,
                    "velocity": 0.7086614173228346,
                    "duration": 0.10623225000000502
                },
                {
                    "name": "C5",
                    "midi": 72,
                    "time": 132.79031250000176,
                    "velocity": 0.5354330708661418,
                    "duration": 0.10623225000000502
                },
                {
                    "name": "D5",
                    "midi": 74,
                    "time": 132.89654475000177,
                    "velocity": 0.5354330708661418,
                    "duration": 0.10623225000000502
                },
                {
                    "name": "D#5",
                    "midi": 75,
                    "time": 133.00277700000177,
                    "velocity": 0.6062992125984252,
                    "duration": 0.10623225000000502
                },
                {
                    "name": "F5",
                    "midi": 77,
                    "time": 133.10900925000178,
                    "velocity": 0.5511811023622047,
                    "duration": 0.10623225000000502
                },
                {
                    "name": "G5",
                    "midi": 79,
                    "time": 133.21524150000178,
                    "velocity": 0.5511811023622047,
                    "duration": 0.10623225000000502
                },
                {
                    "name": "A5",
                    "midi": 81,
                    "time": 133.3214737500018,
                    "velocity": 0.5590551181102362,
                    "duration": 0.10623225000000502
                },
                {
                    "name": "A#5",
                    "midi": 82,
                    "time": 133.4277060000018,
                    "velocity": 0.5748031496062992,
                    "duration": 0.026558062499987045
                },
                {
                    "name": "C6",
                    "midi": 84,
                    "time": 133.45426406250178,
                    "velocity": 0.5118110236220472,
                    "duration": 0.026558062499987045
                },
                {
                    "name": "A#5",
                    "midi": 82,
                    "time": 133.48082212500177,
                    "velocity": 0.6377952755905512,
                    "duration": 0.05311612500000251
                },
                {
                    "name": "A5",
                    "midi": 81,
                    "time": 133.53393825000177,
                    "velocity": 0.5669291338582677,
                    "duration": 0.10623225000000502
                },
                {
                    "name": "A#5",
                    "midi": 82,
                    "time": 133.64017050000177,
                    "velocity": 0.5748031496062992,
                    "duration": 0.10623225000000502
                },
                {
                    "name": "C6",
                    "midi": 84,
                    "time": 133.74640275000178,
                    "velocity": 0.5826771653543307,
                    "duration": 0.10623225000000502
                },
                {
                    "name": "D6",
                    "midi": 86,
                    "time": 133.85263500000178,
                    "velocity": 0.5826771653543307,
                    "duration": 0.026558062499987045
                },
                {
                    "name": "D#6",
                    "midi": 87,
                    "time": 133.87919306250177,
                    "velocity": 0.5196850393700787,
                    "duration": 0.026558062499987045
                },
                {
                    "name": "D6",
                    "midi": 86,
                    "time": 133.90575112500176,
                    "velocity": 0.6535433070866141,
                    "duration": 0.10623225000000502
                },
                {
                    "name": "C6",
                    "midi": 84,
                    "time": 133.95886725000176,
                    "velocity": 0.5905511811023622,
                    "duration": 0.10623225000000502
                },
                {
                    "name": "D6",
                    "midi": 86,
                    "time": 134.06509950000176,
                    "velocity": 0.5984251968503937,
                    "duration": 0.10623225000000502
                },
                {
                    "name": "E6",
                    "midi": 88,
                    "time": 134.17133175000177,
                    "velocity": 0.5984251968503937,
                    "duration": 0.10623225000000502
                },
                {
                    "name": "F6",
                    "midi": 89,
                    "time": 134.27756400000177,
                    "velocity": 0.7637795275590551,
                    "duration": 0.10623225000000502
                },
                {
                    "name": "F4",
                    "midi": 65,
                    "time": 134.70249300000177,
                    "velocity": 0.6220472440944882,
                    "duration": 0.10623225000000502
                },
                {
                    "name": "F5",
                    "midi": 77,
                    "time": 138.52685400000178,
                    "velocity": 0.5905511811023622,
                    "duration": 1.6997159999999951
                },
                {
                    "name": "B4",
                    "midi": 71,
                    "time": 139.80164100000178,
                    "velocity": 0.4409448818897638,
                    "duration": 0.4249289999999917
                },
                {
                    "name": "C5",
                    "midi": 72,
                    "time": 140.22657000000177,
                    "velocity": 0.3464566929133858,
                    "duration": 0.4249289999999917
                },
                {
                    "name": "D#5",
                    "midi": 75,
                    "time": 140.22657000000177,
                    "velocity": 0.41732283464566927,
                    "duration": 0.4249289999999917
                },
                {
                    "name": "A4",
                    "midi": 69,
                    "time": 140.65149900000176,
                    "velocity": 0.3228346456692913,
                    "duration": 0.4249289999999917
                },
                {
                    "name": "D5",
                    "midi": 74,
                    "time": 140.65149900000176,
                    "velocity": 0.3858267716535433,
                    "duration": 0.8498579999999833
                },
                {
                    "name": "A#4",
                    "midi": 70,
                    "time": 141.07642800000175,
                    "velocity": 0.4330708661417323,
                    "duration": 0.4249289999999917
                },
                {
                    "name": "G4",
                    "midi": 67,
                    "time": 141.50135700000175,
                    "velocity": 0.3228346456692913,
                    "duration": 0.4249289999999917
                },
                {
                    "name": "C5",
                    "midi": 72,
                    "time": 141.50135700000175,
                    "velocity": 0.3858267716535433,
                    "duration": 0.8498579999999833
                },
                {
                    "name": "A4",
                    "midi": 69,
                    "time": 141.92628600000174,
                    "velocity": 0.4330708661417323,
                    "duration": 0.4249289999999917
                },
                {
                    "name": "F4",
                    "midi": 65,
                    "time": 142.35121500000173,
                    "velocity": 0.33070866141732286,
                    "duration": 0.4249289999999917
                },
                {
                    "name": "B4",
                    "midi": 71,
                    "time": 142.35121500000173,
                    "velocity": 0.3937007874015748,
                    "duration": 0.4249289999999917
                },
                {
                    "name": "C5",
                    "midi": 72,
                    "time": 142.77614400000172,
                    "velocity": 0.5354330708661418,
                    "duration": 0.10623225000000502
                },
                {
                    "name": "E4",
                    "midi": 64,
                    "time": 142.88237625000173,
                    "velocity": 0.2677165354330709,
                    "duration": 0.10623225000000502
                },
                {
                    "name": "G4",
                    "midi": 67,
                    "time": 142.88237625000173,
                    "velocity": 0.31496062992125984,
                    "duration": 0.10623225000000502
                },
                {
                    "name": "C5",
                    "midi": 72,
                    "time": 142.98860850000173,
                    "velocity": 0.4881889763779528,
                    "duration": 0.10623225000000502
                },
                {
                    "name": "E4",
                    "midi": 64,
                    "time": 143.09484075000174,
                    "velocity": 0.25984251968503935,
                    "duration": 0.10623225000000502
                },
                {
                    "name": "G4",
                    "midi": 67,
                    "time": 143.09484075000174,
                    "velocity": 0.30708661417322836,
                    "duration": 0.10623225000000502
                },
                {
                    "name": "C5",
                    "midi": 72,
                    "time": 143.20107300000174,
                    "velocity": 0.5039370078740157,
                    "duration": 0.10623225000000502
                },
                {
                    "name": "E4",
                    "midi": 64,
                    "time": 143.30730525000175,
                    "velocity": 0.2677165354330709,
                    "duration": 0.10623225000000502
                },
                {
                    "name": "G4",
                    "midi": 67,
                    "time": 143.30730525000175,
                    "velocity": 0.3228346456692913,
                    "duration": 0.10623225000000502
                },
                {
                    "name": "D5",
                    "midi": 74,
                    "time": 143.41353750000175,
                    "velocity": 0.5354330708661418,
                    "duration": 0.10623225000000502
                },
                {
                    "name": "E4",
                    "midi": 64,
                    "time": 143.51976975000176,
                    "velocity": 0.2677165354330709,
                    "duration": 0.10623225000000502
                },
                {
                    "name": "G4",
                    "midi": 67,
                    "time": 143.51976975000176,
                    "velocity": 0.31496062992125984,
                    "duration": 0.10623225000000502
                },
                {
                    "name": "E5",
                    "midi": 76,
                    "time": 143.62600200000176,
                    "velocity": 0.4881889763779528,
                    "duration": 0.10623225000000502
                },
                {
                    "name": "G4",
                    "midi": 67,
                    "time": 143.73223425000177,
                    "velocity": 0.2992125984251969,
                    "duration": 0.10623225000000502
                },
                {
                    "name": "A#4",
                    "midi": 70,
                    "time": 143.73223425000177,
                    "velocity": 0.3543307086614173,
                    "duration": 0.10623225000000502
                },
                {
                    "name": "C5",
                    "midi": 72,
                    "time": 143.83846650000177,
                    "velocity": 0.5354330708661418,
                    "duration": 0.10623225000000502
                },
                {
                    "name": "G4",
                    "midi": 67,
                    "time": 143.94469875000178,
                    "velocity": 0.2992125984251969,
                    "duration": 0.10623225000000502
                },
                {
                    "name": "A#4",
                    "midi": 70,
                    "time": 143.94469875000178,
                    "velocity": 0.3543307086614173,
                    "duration": 0.10623225000000502
                },
                {
                    "name": "D5",
                    "midi": 74,
                    "time": 144.05093100000178,
                    "velocity": 0.5354330708661418,
                    "duration": 0.10623225000000502
                },
                {
                    "name": "G4",
                    "midi": 67,
                    "time": 144.1571632500018,
                    "velocity": 0.2992125984251969,
                    "duration": 0.10623225000000502
                },
                {
                    "name": "A#4",
                    "midi": 70,
                    "time": 144.1571632500018,
                    "velocity": 0.3543307086614173,
                    "duration": 0.10623225000000502
                },
                {
                    "name": "E5",
                    "midi": 76,
                    "time": 144.2633955000018,
                    "velocity": 0.5511811023622047,
                    "duration": 0.10623225000000502
                },
                {
                    "name": "G4",
                    "midi": 67,
                    "time": 144.3696277500018,
                    "velocity": 0.2992125984251969,
                    "duration": 0.10623225000000502
                },
                {
                    "name": "A#4",
                    "midi": 70,
                    "time": 144.3696277500018,
                    "velocity": 0.3543307086614173,
                    "duration": 0.10623225000000502
                },
                {
                    "name": "F5",
                    "midi": 77,
                    "time": 144.4758600000018,
                    "velocity": 0.5354330708661418,
                    "duration": 0.10623225000000502
                },
                {
                    "name": "F4",
                    "midi": 65,
                    "time": 144.5820922500018,
                    "velocity": 0.2677165354330709,
                    "duration": 0.10623225000000502
                },
                {
                    "name": "A4",
                    "midi": 69,
                    "time": 144.5820922500018,
                    "velocity": 0.31496062992125984,
                    "duration": 0.10623225000000502
                },
                {
                    "name": "F5",
                    "midi": 77,
                    "time": 144.6883245000018,
                    "velocity": 0.4881889763779528,
                    "duration": 0.10623225000000502
                },
                {
                    "name": "F4",
                    "midi": 65,
                    "time": 144.79455675000182,
                    "velocity": 0.25984251968503935,
                    "duration": 0.10623225000000502
                },
                {
                    "name": "A4",
                    "midi": 69,
                    "time": 144.79455675000182,
                    "velocity": 0.30708661417322836,
                    "duration": 0.10623225000000502
                },
                {
                    "name": "F5",
                    "midi": 77,
                    "time": 144.90078900000182,
                    "velocity": 0.5039370078740157,
                    "duration": 0.10623225000000502
                },
                {
                    "name": "F4",
                    "midi": 65,
                    "time": 145.00702125000183,
                    "velocity": 0.2677165354330709,
                    "duration": 0.10623225000000502
                },
                {
                    "name": "A4",
                    "midi": 69,
                    "time": 145.00702125000183,
                    "velocity": 0.3228346456692913,
                    "duration": 0.10623225000000502
                },
                {
                    "name": "E5",
                    "midi": 76,
                    "time": 145.11325350000183,
                    "velocity": 0.5354330708661418,
                    "duration": 0.10623225000000502
                },
                {
                    "name": "F4",
                    "midi": 65,
                    "time": 145.21948575000184,
                    "velocity": 0.2677165354330709,
                    "duration": 0.10623225000000502
                },
                {
                    "name": "A4",
                    "midi": 69,
                    "time": 145.21948575000184,
                    "velocity": 0.31496062992125984,
                    "duration": 0.10623225000000502
                },
                {
                    "name": "D5",
                    "midi": 74,
                    "time": 145.32571800000184,
                    "velocity": 0.4881889763779528,
                    "duration": 0.10623225000000502
                },
                {
                    "name": "F4",
                    "midi": 65,
                    "time": 145.43195025000185,
                    "velocity": 0.2992125984251969,
                    "duration": 0.10623225000000502
                },
                {
                    "name": "G#4",
                    "midi": 68,
                    "time": 145.43195025000185,
                    "velocity": 0.3543307086614173,
                    "duration": 0.10623225000000502
                },
                {
                    "name": "C5",
                    "midi": 72,
                    "time": 145.53818250000185,
                    "velocity": 0.5354330708661418,
                    "duration": 0.10623225000000502
                },
                {
                    "name": "F4",
                    "midi": 65,
                    "time": 145.64441475000186,
                    "velocity": 0.2992125984251969,
                    "duration": 0.10623225000000502
                },
                {
                    "name": "G#4",
                    "midi": 68,
                    "time": 145.64441475000186,
                    "velocity": 0.3543307086614173,
                    "duration": 0.10623225000000502
                },
                {
                    "name": "B4",
                    "midi": 71,
                    "time": 145.75064700000186,
                    "velocity": 0.5354330708661418,
                    "duration": 0.10623225000000502
                },
                {
                    "name": "F4",
                    "midi": 65,
                    "time": 145.85687925000187,
                    "velocity": 0.2992125984251969,
                    "duration": 0.10623225000000502
                },
                {
                    "name": "G#4",
                    "midi": 68,
                    "time": 145.85687925000187,
                    "velocity": 0.3543307086614173,
                    "duration": 0.10623225000000502
                },
                {
                    "name": "D5",
                    "midi": 74,
                    "time": 145.96311150000187,
                    "velocity": 0.5511811023622047,
                    "duration": 0.10623225000000502
                },
                {
                    "name": "F4",
                    "midi": 65,
                    "time": 146.06934375000188,
                    "velocity": 0.2992125984251969,
                    "duration": 0.10623225000000502
                },
                {
                    "name": "G#4",
                    "midi": 68,
                    "time": 146.06934375000188,
                    "velocity": 0.3543307086614173,
                    "duration": 0.10623225000000502
                },
                {
                    "name": "C5",
                    "midi": 72,
                    "time": 146.17557600000188,
                    "velocity": 0.5354330708661418,
                    "duration": 0.10623225000000502
                },
                {
                    "name": "E4",
                    "midi": 64,
                    "time": 146.2818082500019,
                    "velocity": 0.2677165354330709,
                    "duration": 0.10623225000000502
                },
                {
                    "name": "G4",
                    "midi": 67,
                    "time": 146.2818082500019,
                    "velocity": 0.31496062992125984,
                    "duration": 0.10623225000000502
                },
                {
                    "name": "B4",
                    "midi": 71,
                    "time": 146.3880405000019,
                    "velocity": 0.4881889763779528,
                    "duration": 0.10623225000000502
                },
                {
                    "name": "E4",
                    "midi": 64,
                    "time": 146.4942727500019,
                    "velocity": 0.25984251968503935,
                    "duration": 0.10623225000000502
                },
                {
                    "name": "G4",
                    "midi": 67,
                    "time": 146.4942727500019,
                    "velocity": 0.30708661417322836,
                    "duration": 0.10623225000000502
                },
                {
                    "name": "C5",
                    "midi": 72,
                    "time": 146.6005050000019,
                    "velocity": 0.5039370078740157,
                    "duration": 0.10623225000000502
                },
                {
                    "name": "E4",
                    "midi": 64,
                    "time": 146.7067372500019,
                    "velocity": 0.2677165354330709,
                    "duration": 0.10623225000000502
                },
                {
                    "name": "G4",
                    "midi": 67,
                    "time": 146.7067372500019,
                    "velocity": 0.3228346456692913,
                    "duration": 0.10623225000000502
                },
                {
                    "name": "D5",
                    "midi": 74,
                    "time": 146.8129695000019,
                    "velocity": 0.5354330708661418,
                    "duration": 0.10623225000000502
                },
                {
                    "name": "E4",
                    "midi": 64,
                    "time": 146.91920175000192,
                    "velocity": 0.2677165354330709,
                    "duration": 0.10623225000000502
                },
                {
                    "name": "G4",
                    "midi": 67,
                    "time": 146.91920175000192,
                    "velocity": 0.31496062992125984,
                    "duration": 0.10623225000000502
                },
                {
                    "name": "E5",
                    "midi": 76,
                    "time": 147.02543400000192,
                    "velocity": 0.4881889763779528,
                    "duration": 0.10623225000000502
                },
                {
                    "name": "G4",
                    "midi": 67,
                    "time": 147.13166625000193,
                    "velocity": 0.2992125984251969,
                    "duration": 0.10623225000000502
                },
                {
                    "name": "A#4",
                    "midi": 70,
                    "time": 147.13166625000193,
                    "velocity": 0.3543307086614173,
                    "duration": 0.10623225000000502
                },
                {
                    "name": "C5",
                    "midi": 72,
                    "time": 147.23789850000193,
                    "velocity": 0.5354330708661418,
                    "duration": 0.10623225000000502
                },
                {
                    "name": "G4",
                    "midi": 67,
                    "time": 147.34413075000194,
                    "velocity": 0.2992125984251969,
                    "duration": 0.10623225000000502
                },
                {
                    "name": "A#4",
                    "midi": 70,
                    "time": 147.34413075000194,
                    "velocity": 0.3543307086614173,
                    "duration": 0.10623225000000502
                },
                {
                    "name": "D5",
                    "midi": 74,
                    "time": 147.45036300000194,
                    "velocity": 0.5354330708661418,
                    "duration": 0.10623225000000502
                },
                {
                    "name": "G4",
                    "midi": 67,
                    "time": 147.55659525000195,
                    "velocity": 0.2992125984251969,
                    "duration": 0.10623225000000502
                },
                {
                    "name": "A#4",
                    "midi": 70,
                    "time": 147.55659525000195,
                    "velocity": 0.3543307086614173,
                    "duration": 0.10623225000000502
                },
                {
                    "name": "E5",
                    "midi": 76,
                    "time": 147.66282750000195,
                    "velocity": 0.5511811023622047,
                    "duration": 0.10623225000000502
                },
                {
                    "name": "G4",
                    "midi": 67,
                    "time": 147.76905975000196,
                    "velocity": 0.2992125984251969,
                    "duration": 0.10623225000000502
                },
                {
                    "name": "A#4",
                    "midi": 70,
                    "time": 147.76905975000196,
                    "velocity": 0.3543307086614173,
                    "duration": 0.10623225000000502
                },
                {
                    "name": "F5",
                    "midi": 77,
                    "time": 147.87529200000196,
                    "velocity": 0.5354330708661418,
                    "duration": 0.10623225000000502
                },
                {
                    "name": "F4",
                    "midi": 65,
                    "time": 147.98152425000197,
                    "velocity": 0.2677165354330709,
                    "duration": 0.10623225000000502
                },
                {
                    "name": "A4",
                    "midi": 69,
                    "time": 147.98152425000197,
                    "velocity": 0.31496062992125984,
                    "duration": 0.10623225000000502
                },
                {
                    "name": "F5",
                    "midi": 77,
                    "time": 148.08775650000197,
                    "velocity": 0.4881889763779528,
                    "duration": 0.10623225000000502
                },
                {
                    "name": "F4",
                    "midi": 65,
                    "time": 148.19398875000198,
                    "velocity": 0.25984251968503935,
                    "duration": 0.10623225000000502
                },
                {
                    "name": "A4",
                    "midi": 69,
                    "time": 148.19398875000198,
                    "velocity": 0.30708661417322836,
                    "duration": 0.10623225000000502
                },
                {
                    "name": "F5",
                    "midi": 77,
                    "time": 148.30022100000198,
                    "velocity": 0.5039370078740157,
                    "duration": 0.10623225000000502
                },
                {
                    "name": "F4",
                    "midi": 65,
                    "time": 148.406453250002,
                    "velocity": 0.2677165354330709,
                    "duration": 0.10623225000000502
                },
                {
                    "name": "A4",
                    "midi": 69,
                    "time": 148.406453250002,
                    "velocity": 0.3228346456692913,
                    "duration": 0.10623225000000502
                },
                {
                    "name": "E5",
                    "midi": 76,
                    "time": 148.512685500002,
                    "velocity": 0.5354330708661418,
                    "duration": 0.10623225000000502
                },
                {
                    "name": "F4",
                    "midi": 65,
                    "time": 148.618917750002,
                    "velocity": 0.2677165354330709,
                    "duration": 0.10623225000000502
                },
                {
                    "name": "A4",
                    "midi": 69,
                    "time": 148.618917750002,
                    "velocity": 0.31496062992125984,
                    "duration": 0.10623225000000502
                },
                {
                    "name": "D5",
                    "midi": 74,
                    "time": 148.725150000002,
                    "velocity": 0.4881889763779528,
                    "duration": 0.10623225000000502
                },
                {
                    "name": "F4",
                    "midi": 65,
                    "time": 148.831382250002,
                    "velocity": 0.2992125984251969,
                    "duration": 0.10623225000000502
                },
                {
                    "name": "G#4",
                    "midi": 68,
                    "time": 148.831382250002,
                    "velocity": 0.3543307086614173,
                    "duration": 0.10623225000000502
                },
                {
                    "name": "C5",
                    "midi": 72,
                    "time": 148.937614500002,
                    "velocity": 0.5354330708661418,
                    "duration": 0.10623225000000502
                },
                {
                    "name": "F4",
                    "midi": 65,
                    "time": 149.04384675000202,
                    "velocity": 0.2992125984251969,
                    "duration": 0.10623225000000502
                },
                {
                    "name": "G#4",
                    "midi": 68,
                    "time": 149.04384675000202,
                    "velocity": 0.3543307086614173,
                    "duration": 0.10623225000000502
                },
                {
                    "name": "B4",
                    "midi": 71,
                    "time": 149.15007900000202,
                    "velocity": 0.5354330708661418,
                    "duration": 0.10623225000000502
                },
                {
                    "name": "F4",
                    "midi": 65,
                    "time": 149.25631125000203,
                    "velocity": 0.2992125984251969,
                    "duration": 0.10623225000000502
                },
                {
                    "name": "G#4",
                    "midi": 68,
                    "time": 149.25631125000203,
                    "velocity": 0.3543307086614173,
                    "duration": 0.10623225000000502
                },
                {
                    "name": "D5",
                    "midi": 74,
                    "time": 149.36254350000203,
                    "velocity": 0.5511811023622047,
                    "duration": 0.10623225000000502
                },
                {
                    "name": "F4",
                    "midi": 65,
                    "time": 149.46877575000204,
                    "velocity": 0.2992125984251969,
                    "duration": 0.10623225000000502
                },
                {
                    "name": "G#4",
                    "midi": 68,
                    "time": 149.46877575000204,
                    "velocity": 0.3543307086614173,
                    "duration": 0.10623225000000502
                },
                {
                    "name": "C5",
                    "midi": 72,
                    "time": 149.57500800000204,
                    "velocity": 0.6141732283464567,
                    "duration": 0.10623225000000502
                },
                {
                    "name": "E4",
                    "midi": 64,
                    "time": 149.68124025000205,
                    "velocity": 0.2992125984251969,
                    "duration": 0.10623225000000502
                },
                {
                    "name": "G4",
                    "midi": 67,
                    "time": 149.68124025000205,
                    "velocity": 0.3543307086614173,
                    "duration": 0.10623225000000502
                },
                {
                    "name": "C5",
                    "midi": 72,
                    "time": 149.78747250000205,
                    "velocity": 0.5354330708661418,
                    "duration": 0.10623225000000502
                },
                {
                    "name": "E4",
                    "midi": 64,
                    "time": 149.89370475000206,
                    "velocity": 0.2992125984251969,
                    "duration": 0.10623225000000502
                },
                {
                    "name": "G4",
                    "midi": 67,
                    "time": 149.89370475000206,
                    "velocity": 0.3543307086614173,
                    "duration": 0.10623225000000502
                },
                {
                    "name": "B4",
                    "midi": 71,
                    "time": 149.99993700000206,
                    "velocity": 0.5354330708661418,
                    "duration": 0.10623225000000502
                },
                {
                    "name": "F4",
                    "midi": 65,
                    "time": 150.10616925000207,
                    "velocity": 0.2992125984251969,
                    "duration": 0.10623225000000502
                },
                {
                    "name": "G#4",
                    "midi": 68,
                    "time": 150.10616925000207,
                    "velocity": 0.3543307086614173,
                    "duration": 0.10623225000000502
                },
                {
                    "name": "D5",
                    "midi": 74,
                    "time": 150.21240150000207,
                    "velocity": 0.5511811023622047,
                    "duration": 0.10623225000000502
                },
                {
                    "name": "F4",
                    "midi": 65,
                    "time": 150.31863375000208,
                    "velocity": 0.2992125984251969,
                    "duration": 0.10623225000000502
                },
                {
                    "name": "G#4",
                    "midi": 68,
                    "time": 150.31863375000208,
                    "velocity": 0.3543307086614173,
                    "duration": 0.10623225000000502
                },
                {
                    "name": "C5",
                    "midi": 72,
                    "time": 150.42486600000208,
                    "velocity": 0.5984251968503937,
                    "duration": 0.10623225000000502
                },
                {
                    "name": "E4",
                    "midi": 64,
                    "time": 150.5310982500021,
                    "velocity": 0.2992125984251969,
                    "duration": 0.10623225000000502
                },
                {
                    "name": "G4",
                    "midi": 67,
                    "time": 150.5310982500021,
                    "velocity": 0.3543307086614173,
                    "duration": 0.10623225000000502
                },
                {
                    "name": "C5",
                    "midi": 72,
                    "time": 150.6373305000021,
                    "velocity": 0.5354330708661418,
                    "duration": 0.10623225000000502
                },
                {
                    "name": "E4",
                    "midi": 64,
                    "time": 150.7435627500021,
                    "velocity": 0.2992125984251969,
                    "duration": 0.10623225000000502
                },
                {
                    "name": "G4",
                    "midi": 67,
                    "time": 150.7435627500021,
                    "velocity": 0.3543307086614173,
                    "duration": 0.10623225000000502
                },
                {
                    "name": "B4",
                    "midi": 71,
                    "time": 150.8497950000021,
                    "velocity": 0.5354330708661418,
                    "duration": 0.10623225000000502
                },
                {
                    "name": "F4",
                    "midi": 65,
                    "time": 150.9560272500021,
                    "velocity": 0.2992125984251969,
                    "duration": 0.10623225000000502
                },
                {
                    "name": "G#4",
                    "midi": 68,
                    "time": 150.9560272500021,
                    "velocity": 0.3543307086614173,
                    "duration": 0.10623225000000502
                },
                {
                    "name": "D5",
                    "midi": 74,
                    "time": 151.0622595000021,
                    "velocity": 0.5511811023622047,
                    "duration": 0.10623225000000502
                },
                {
                    "name": "F4",
                    "midi": 65,
                    "time": 151.16849175000212,
                    "velocity": 0.2992125984251969,
                    "duration": 0.10623225000000502
                },
                {
                    "name": "G#4",
                    "midi": 68,
                    "time": 151.16849175000212,
                    "velocity": 0.3543307086614173,
                    "duration": 0.10623225000000502
                },
                {
                    "name": "E4",
                    "midi": 64,
                    "time": 151.27472400000212,
                    "velocity": 0.4645669291338583,
                    "duration": 0.10623225000000502
                },
                {
                    "name": "G4",
                    "midi": 67,
                    "time": 151.27472400000212,
                    "velocity": 0.4645669291338583,
                    "duration": 0.10623225000000502
                },
                {
                    "name": "C5",
                    "midi": 72,
                    "time": 151.27472400000212,
                    "velocity": 0.5511811023622047,
                    "duration": 0.10623225000000502
                },
                {
                    "name": "C4",
                    "midi": 60,
                    "time": 151.38095625000213,
                    "velocity": 0.2755905511811024,
                    "duration": 0.11685547499999416
                },
                {
                    "name": "D4",
                    "midi": 62,
                    "time": 151.48718850000213,
                    "velocity": 0.31496062992125984,
                    "duration": 0.11685547499996574
                },
                {
                    "name": "E4",
                    "midi": 64,
                    "time": 151.5934207500021,
                    "velocity": 0.2755905511811024,
                    "duration": 0.11685547499996574
                },
                {
                    "name": "F4",
                    "midi": 65,
                    "time": 151.6996530000021,
                    "velocity": 0.31496062992125984,
                    "duration": 0.11685547499996574
                },
                {
                    "name": "G4",
                    "midi": 67,
                    "time": 151.80588525000206,
                    "velocity": 0.2755905511811024,
                    "duration": 0.11685547499996574
                },
                {
                    "name": "A4",
                    "midi": 69,
                    "time": 151.91211750000204,
                    "velocity": 0.31496062992125984,
                    "duration": 0.11685547499996574
                },
                {
                    "name": "B4",
                    "midi": 71,
                    "time": 152.01834975000202,
                    "velocity": 0.25984251968503935,
                    "duration": 0.11685547499996574
                },
                {
                    "name": "C5",
                    "midi": 72,
                    "time": 152.124582000002,
                    "velocity": 0.31496062992125984,
                    "duration": 0.11685547499996574
                },
                {
                    "name": "B4",
                    "midi": 71,
                    "time": 152.23081425000197,
                    "velocity": 0.25984251968503935,
                    "duration": 0.11685547499996574
                },
                {
                    "name": "C5",
                    "midi": 72,
                    "time": 152.33704650000195,
                    "velocity": 0.31496062992125984,
                    "duration": 0.11685547499996574
                },
                {
                    "name": "B4",
                    "midi": 71,
                    "time": 152.44327875000192,
                    "velocity": 0.25984251968503935,
                    "duration": 0.11685547499996574
                },
                {
                    "name": "C5",
                    "midi": 72,
                    "time": 152.5495110000019,
                    "velocity": 0.31496062992125984,
                    "duration": 0.11685547499996574
                },
                {
                    "name": "B4",
                    "midi": 71,
                    "time": 152.65574325000188,
                    "velocity": 0.2677165354330709,
                    "duration": 0.11685547499996574
                },
                {
                    "name": "C5",
                    "midi": 72,
                    "time": 152.76197550000185,
                    "velocity": 0.31496062992125984,
                    "duration": 0.11685547499996574
                },
                {
                    "name": "B4",
                    "midi": 71,
                    "time": 152.86820775000183,
                    "velocity": 0.25984251968503935,
                    "duration": 0.1062322499999766
                },
                {
                    "name": "A4",
                    "midi": 69,
                    "time": 152.9744400000018,
                    "velocity": 0.2992125984251969,
                    "duration": 0.8498580000000118
                },
                {
                    "name": "C5",
                    "midi": 72,
                    "time": 152.9744400000018,
                    "velocity": 0.33858267716535434,
                    "duration": 0.8498580000000118
                },
                {
                    "name": "A4",
                    "midi": 69,
                    "time": 153.82429800000182,
                    "velocity": 0.3858267716535433,
                    "duration": 0.4249289999999917
                },
                {
                    "name": "F5",
                    "midi": 77,
                    "time": 154.2492270000018,
                    "velocity": 0.3700787401574803,
                    "duration": 0.4249289999999917
                },
                {
                    "name": "A4",
                    "midi": 69,
                    "time": 154.6741560000018,
                    "velocity": 0.3228346456692913,
                    "duration": 0.4249289999999917
                },
                {
                    "name": "C5",
                    "midi": 72,
                    "time": 154.6741560000018,
                    "velocity": 0.3858267716535433,
                    "duration": 0.4249289999999917
                },
                {
                    "name": "A5",
                    "midi": 81,
                    "time": 155.0990850000018,
                    "velocity": 0.33858267716535434,
                    "duration": 0.4249289999999917
                },
                {
                    "name": "F5",
                    "midi": 77,
                    "time": 155.0990850000018,
                    "velocity": 0.28346456692913385,
                    "duration": 0.4249289999999917
                },
                {
                    "name": "A4",
                    "midi": 69,
                    "time": 155.52401400000178,
                    "velocity": 0.33070866141732286,
                    "duration": 0.4249289999999917
                },
                {
                    "name": "C5",
                    "midi": 72,
                    "time": 155.52401400000178,
                    "velocity": 0.3937007874015748,
                    "duration": 0.4249289999999917
                },
                {
                    "name": "C6",
                    "midi": 84,
                    "time": 155.94894300000178,
                    "velocity": 0.33858267716535434,
                    "duration": 0.4249289999999917
                },
                {
                    "name": "A5",
                    "midi": 81,
                    "time": 155.94894300000178,
                    "velocity": 0.28346456692913385,
                    "duration": 0.4249289999999917
                },
                {
                    "name": "A4",
                    "midi": 69,
                    "time": 156.37387200000177,
                    "velocity": 0.2992125984251969,
                    "duration": 0.8498580000000118
                },
                {
                    "name": "C5",
                    "midi": 72,
                    "time": 156.37387200000177,
                    "velocity": 0.33858267716535434,
                    "duration": 0.8498580000000118
                },
                {
                    "name": "A4",
                    "midi": 69,
                    "time": 157.22373000000178,
                    "velocity": 0.3858267716535433,
                    "duration": 0.4249289999999917
                },
                {
                    "name": "F5",
                    "midi": 77,
                    "time": 157.64865900000177,
                    "velocity": 0.36220472440944884,
                    "duration": 0.4249289999999917
                },
                {
                    "name": "A4",
                    "midi": 69,
                    "time": 158.07358800000176,
                    "velocity": 0.3228346456692913,
                    "duration": 0.4249289999999917
                },
                {
                    "name": "C5",
                    "midi": 72,
                    "time": 158.07358800000176,
                    "velocity": 0.3858267716535433,
                    "duration": 0.4249289999999917
                },
                {
                    "name": "A5",
                    "midi": 81,
                    "time": 158.49851700000175,
                    "velocity": 0.33858267716535434,
                    "duration": 0.4249289999999917
                },
                {
                    "name": "F5",
                    "midi": 77,
                    "time": 158.49851700000175,
                    "velocity": 0.28346456692913385,
                    "duration": 0.4249289999999917
                },
                {
                    "name": "A4",
                    "midi": 69,
                    "time": 158.92344600000175,
                    "velocity": 0.33070866141732286,
                    "duration": 0.4249289999999917
                },
                {
                    "name": "C5",
                    "midi": 72,
                    "time": 158.92344600000175,
                    "velocity": 0.3937007874015748,
                    "duration": 0.4249289999999917
                },
                {
                    "name": "C6",
                    "midi": 84,
                    "time": 159.34837500000174,
                    "velocity": 0.33858267716535434,
                    "duration": 0.4249289999999917
                },
                {
                    "name": "A5",
                    "midi": 81,
                    "time": 159.34837500000174,
                    "velocity": 0.28346456692913385,
                    "duration": 0.4249289999999917
                },
                {
                    "name": "A4",
                    "midi": 69,
                    "time": 159.77330400000173,
                    "velocity": 0.3228346456692913,
                    "duration": 0.8498580000000118
                },
                {
                    "name": "C5",
                    "midi": 72,
                    "time": 159.77330400000173,
                    "velocity": 0.3228346456692913,
                    "duration": 0.8498580000000118
                },
                {
                    "name": "D5",
                    "midi": 74,
                    "time": 159.77330400000173,
                    "velocity": 0.3858267716535433,
                    "duration": 0.8498580000000118
                },
                {
                    "name": "F#5",
                    "midi": 78,
                    "time": 159.77330400000173,
                    "velocity": 0.3858267716535433,
                    "duration": 0.8498580000000118
                },
                {
                    "name": "F#5",
                    "midi": 78,
                    "time": 161.89794900000174,
                    "velocity": 0.5511811023622047,
                    "duration": 0.4249289999999917
                },
                {
                    "name": "A5",
                    "midi": 81,
                    "time": 162.32287800000174,
                    "velocity": 0.5354330708661418,
                    "duration": 0.4249289999999917
                },
                {
                    "name": "C6",
                    "midi": 84,
                    "time": 162.74780700000173,
                    "velocity": 0.5196850393700787,
                    "duration": 0.8498579999999833
                },
                {
                    "name": "F#5",
                    "midi": 78,
                    "time": 163.17273600000172,
                    "velocity": 0.5669291338582677,
                    "duration": 0.8498579999999833
                },
                {
                    "name": "A#5",
                    "midi": 82,
                    "time": 163.5976650000017,
                    "velocity": 0.5748031496062992,
                    "duration": 1.6997159999999667
                },
                {
                    "name": "G5",
                    "midi": 79,
                    "time": 164.0225940000017,
                    "velocity": 0.5905511811023622,
                    "duration": 1.274786999999975
                },
                {
                    "name": "C#5",
                    "midi": 73,
                    "time": 164.4475230000017,
                    "velocity": 0.5196850393700787,
                    "duration": 0.4249289999999917
                },
                {
                    "name": "C5",
                    "midi": 72,
                    "time": 164.8724520000017,
                    "velocity": 0.5826771653543307,
                    "duration": 0.8498579999999833
                },
                {
                    "name": "A5",
                    "midi": 81,
                    "time": 165.29738100000168,
                    "velocity": 0.5275590551181102,
                    "duration": 0.4249289999999917
                },
                {
                    "name": "F5",
                    "midi": 77,
                    "time": 165.29738100000168,
                    "velocity": 0.44881889763779526,
                    "duration": 0.4249289999999917
                },
                {
                    "name": "A#4",
                    "midi": 70,
                    "time": 165.72231000000167,
                    "velocity": 0.48031496062992124,
                    "duration": 0.4249289999999917
                },
                {
                    "name": "D5",
                    "midi": 74,
                    "time": 165.72231000000167,
                    "velocity": 0.48031496062992124,
                    "duration": 0.4249289999999917
                },
                {
                    "name": "G5",
                    "midi": 79,
                    "time": 165.72231000000167,
                    "velocity": 0.5669291338582677,
                    "duration": 0.4249289999999917
                },
                {
                    "name": "G4",
                    "midi": 67,
                    "time": 166.14723900000166,
                    "velocity": 0.41732283464566927,
                    "duration": 0.4249289999999917
                },
                {
                    "name": "A#4",
                    "midi": 70,
                    "time": 166.14723900000166,
                    "velocity": 0.41732283464566927,
                    "duration": 0.4249289999999917
                },
                {
                    "name": "E5",
                    "midi": 76,
                    "time": 166.14723900000166,
                    "velocity": 0.5039370078740157,
                    "duration": 0.4249289999999917
                },
                {
                    "name": "F4",
                    "midi": 65,
                    "time": 166.57216800000165,
                    "velocity": 0.5039370078740157,
                    "duration": 0.21246450000001005
                },
                {
                    "name": "A4",
                    "midi": 69,
                    "time": 166.57216800000165,
                    "velocity": 0.5039370078740157,
                    "duration": 0.21246450000001005
                },
                {
                    "name": "F5",
                    "midi": 77,
                    "time": 166.57216800000165,
                    "velocity": 0.6062992125984252,
                    "duration": 0.21246450000001005
                },
                {
                    "name": "F4",
                    "midi": 65,
                    "time": 167.42202600000167,
                    "velocity": 0.5748031496062992,
                    "duration": 0.8410053124999877
                },
                {
                    "name": "A4",
                    "midi": 69,
                    "time": 167.42202600000167,
                    "velocity": 0.6929133858267716,
                    "duration": 0.8498579999999833
                },
                {
                    "name": "D4",
                    "midi": 62,
                    "time": 168.27188400000165,
                    "velocity": 0.44881889763779526,
                    "duration": 0.416076312499996
                },
                {
                    "name": "F4",
                    "midi": 65,
                    "time": 168.27188400000165,
                    "velocity": 0.5354330708661418,
                    "duration": 0.4249289999999917
                },
                {
                    "name": "A#3",
                    "midi": 58,
                    "time": 168.69681300000164,
                    "velocity": 0.4645669291338583,
                    "duration": 0.21246450000001005
                },
                {
                    "name": "D4",
                    "midi": 62,
                    "time": 168.69681300000164,
                    "velocity": 0.5511811023622047,
                    "duration": 0.21246450000001005
                },
                {
                    "name": "G4",
                    "midi": 67,
                    "time": 169.12174200000166,
                    "velocity": 0.5748031496062992,
                    "duration": 0.6373935000000017
                },
                {
                    "name": "A#4",
                    "midi": 70,
                    "time": 169.12174200000166,
                    "velocity": 0.6929133858267716,
                    "duration": 0.6373935000000017
                },
                {
                    "name": "F4",
                    "midi": 65,
                    "time": 169.75913550000166,
                    "velocity": 0.44881889763779526,
                    "duration": 0.21246450000001005
                },
                {
                    "name": "A4",
                    "midi": 69,
                    "time": 169.75913550000166,
                    "velocity": 0.5354330708661418,
                    "duration": 0.21246450000001005
                },
                {
                    "name": "G4",
                    "midi": 67,
                    "time": 169.97160000000167,
                    "velocity": 0.6062992125984252,
                    "duration": 0.4249289999999917
                },
                {
                    "name": "E4",
                    "midi": 64,
                    "time": 169.97160000000167,
                    "velocity": 0.5039370078740157,
                    "duration": 0.416076312499996
                },
                {
                    "name": "C4",
                    "midi": 60,
                    "time": 170.39652900000166,
                    "velocity": 0.44881889763779526,
                    "duration": 0.21246450000001005
                },
                {
                    "name": "E4",
                    "midi": 64,
                    "time": 170.39652900000166,
                    "velocity": 0.5354330708661418,
                    "duration": 0.21246450000001005
                },
                {
                    "name": "A4",
                    "midi": 69,
                    "time": 170.82145800000168,
                    "velocity": 0.5748031496062992,
                    "duration": 0.8410053124999877
                },
                {
                    "name": "C5",
                    "midi": 72,
                    "time": 170.82145800000168,
                    "velocity": 0.6929133858267716,
                    "duration": 0.8498579999999833
                },
                {
                    "name": "F4",
                    "midi": 65,
                    "time": 171.67131600000167,
                    "velocity": 0.44881889763779526,
                    "duration": 0.416076312499996
                },
                {
                    "name": "A4",
                    "midi": 69,
                    "time": 171.67131600000167,
                    "velocity": 0.5354330708661418,
                    "duration": 0.4249289999999917
                },
                {
                    "name": "D4",
                    "midi": 62,
                    "time": 172.09624500000166,
                    "velocity": 0.4645669291338583,
                    "duration": 0.21246450000001005
                },
                {
                    "name": "F4",
                    "midi": 65,
                    "time": 172.09624500000166,
                    "velocity": 0.5511811023622047,
                    "duration": 0.21246450000001005
                },
                {
                    "name": "A#4",
                    "midi": 70,
                    "time": 172.52117400000168,
                    "velocity": 0.5748031496062992,
                    "duration": 0.6373935000000017
                },
                {
                    "name": "D5",
                    "midi": 74,
                    "time": 172.52117400000168,
                    "velocity": 0.6929133858267716,
                    "duration": 0.6373935000000017
                },
                {
                    "name": "A4",
                    "midi": 69,
                    "time": 173.15856750000168,
                    "velocity": 0.44881889763779526,
                    "duration": 0.21246450000001005
                },
                {
                    "name": "C5",
                    "midi": 72,
                    "time": 173.15856750000168,
                    "velocity": 0.5354330708661418,
                    "duration": 0.21246450000001005
                },
                {
                    "name": "A#4",
                    "midi": 70,
                    "time": 173.3710320000017,
                    "velocity": 0.6062992125984252,
                    "duration": 0.4249289999999917
                },
                {
                    "name": "G4",
                    "midi": 67,
                    "time": 173.3710320000017,
                    "velocity": 0.5039370078740157,
                    "duration": 0.416076312499996
                },
                {
                    "name": "E4",
                    "midi": 64,
                    "time": 173.79596100000168,
                    "velocity": 0.44881889763779526,
                    "duration": 0.21246450000001005
                },
                {
                    "name": "G4",
                    "midi": 67,
                    "time": 173.79596100000168,
                    "velocity": 0.5354330708661418,
                    "duration": 0.21246450000001005
                },
                {
                    "name": "A#4",
                    "midi": 70,
                    "time": 174.2208900000017,
                    "velocity": 0.5748031496062992,
                    "duration": 0.6373935000000017
                },
                {
                    "name": "G5",
                    "midi": 79,
                    "time": 174.2208900000017,
                    "velocity": 0.6929133858267716,
                    "duration": 0.6373935000000017
                },
                {
                    "name": "A4",
                    "midi": 69,
                    "time": 174.8582835000017,
                    "velocity": 0.44881889763779526,
                    "duration": 0.21246450000001005
                },
                {
                    "name": "F5",
                    "midi": 77,
                    "time": 174.8582835000017,
                    "velocity": 0.5354330708661418,
                    "duration": 0.21246450000001005
                },
                {
                    "name": "G4",
                    "midi": 67,
                    "time": 175.07074800000171,
                    "velocity": 0.5748031496062992,
                    "duration": 0.6373935000000017
                },
                {
                    "name": "E5",
                    "midi": 76,
                    "time": 175.07074800000171,
                    "velocity": 0.6929133858267716,
                    "duration": 0.6373935000000017
                },
                {
                    "name": "F4",
                    "midi": 65,
                    "time": 175.70814150000172,
                    "velocity": 0.44881889763779526,
                    "duration": 0.21246450000001005
                },
                {
                    "name": "D5",
                    "midi": 74,
                    "time": 175.70814150000172,
                    "velocity": 0.5354330708661418,
                    "duration": 0.21246450000001005
                },
                {
                    "name": "E4",
                    "midi": 64,
                    "time": 175.92060600000173,
                    "velocity": 0.4015748031496063,
                    "duration": 0.4249289999999917
                },
                {
                    "name": "C5",
                    "midi": 72,
                    "time": 175.92060600000173,
                    "velocity": 0.47244094488188976,
                    "duration": 0.4249289999999917
                },
                {
                    "name": "A#3",
                    "midi": 58,
                    "time": 176.34553500000172,
                    "velocity": 0.3464566929133858,
                    "duration": 0.4249289999999917
                },
                {
                    "name": "A#4",
                    "midi": 70,
                    "time": 176.34553500000172,
                    "velocity": 0.4094488188976378,
                    "duration": 0.4249289999999917
                },
                {
                    "name": "A3",
                    "midi": 57,
                    "time": 176.7704640000017,
                    "velocity": 0.3858267716535433,
                    "duration": 0.4249289999999917
                },
                {
                    "name": "A4",
                    "midi": 69,
                    "time": 176.7704640000017,
                    "velocity": 0.4566929133858268,
                    "duration": 0.4249289999999917
                },
                {
                    "name": "C#4",
                    "midi": 61,
                    "time": 177.1953930000017,
                    "velocity": 0.30708661417322836,
                    "duration": 0.4249289999999917
                },
                {
                    "name": "G4",
                    "midi": 67,
                    "time": 177.1953930000017,
                    "velocity": 0.36220472440944884,
                    "duration": 0.4249289999999917
                },
                {
                    "name": "D4",
                    "midi": 62,
                    "time": 177.6203220000017,
                    "velocity": 0.3543307086614173,
                    "duration": 0.4249289999999917
                },
                {
                    "name": "F4",
                    "midi": 65,
                    "time": 177.6203220000017,
                    "velocity": 0.41732283464566927,
                    "duration": 0.4249289999999917
                },
                {
                    "name": "F3",
                    "midi": 53,
                    "time": 178.04525100000168,
                    "velocity": 0.31496062992125984,
                    "duration": 0.4249289999999917
                },
                {
                    "name": "G3",
                    "midi": 55,
                    "time": 178.04525100000168,
                    "velocity": 0.31496062992125984,
                    "duration": 0.4249289999999917
                },
                {
                    "name": "D4",
                    "midi": 62,
                    "time": 178.04525100000168,
                    "velocity": 0.3779527559055118,
                    "duration": 0.4249289999999917
                },
                {
                    "name": "F3",
                    "midi": 53,
                    "time": 178.89510900000167,
                    "velocity": 0.25196850393700787,
                    "duration": 0.21246450000001005
                },
                {
                    "name": "A3",
                    "midi": 57,
                    "time": 178.89510900000167,
                    "velocity": 0.25196850393700787,
                    "duration": 0.21246450000001005
                },
                {
                    "name": "C4",
                    "midi": 60,
                    "time": 178.89510900000167,
                    "velocity": 0.2992125984251969,
                    "duration": 0.21246450000001005
                },
                {
                    "name": "C3",
                    "midi": 48,
                    "time": 179.74496700000168,
                    "velocity": 0.2440944881889764,
                    "duration": 0.21246450000001005
                },
                {
                    "name": "E3",
                    "midi": 52,
                    "time": 179.74496700000168,
                    "velocity": 0.2440944881889764,
                    "duration": 0.21246450000001005
                },
                {
                    "name": "G3",
                    "midi": 55,
                    "time": 179.74496700000168,
                    "velocity": 0.2440944881889764,
                    "duration": 0.21246450000001005
                },
                {
                    "name": "C4",
                    "midi": 60,
                    "time": 179.74496700000168,
                    "velocity": 0.29133858267716534,
                    "duration": 0.21246450000001005
                },
                {
                    "name": "A3",
                    "midi": 57,
                    "time": 180.5948250000017,
                    "velocity": 0.2755905511811024,
                    "duration": 0.39837093750000463
                },
                {
                    "name": "F3",
                    "midi": 53,
                    "time": 180.5948250000017,
                    "velocity": 0.2283464566929134,
                    "duration": 0.39837093750000463
                },
                {
                    "name": "C3",
                    "midi": 48,
                    "time": 180.5948250000017,
                    "velocity": 0.2283464566929134,
                    "duration": 0.39837093750000463
                },
                {
                    "name": "F4",
                    "midi": 65,
                    "time": 181.2322185000017,
                    "velocity": 0.4330708661417323,
                    "duration": 0.4249289999999917
                },
                {
                    "name": "A4",
                    "midi": 69,
                    "time": 181.2322185000017,
                    "velocity": 0.5196850393700787,
                    "duration": 0.4249289999999917
                },
                {
                    "name": "F4",
                    "midi": 65,
                    "time": 181.65714750000168,
                    "velocity": 0.33858267716535434,
                    "duration": 0.10623225000000502
                },
                {
                    "name": "A4",
                    "midi": 69,
                    "time": 181.65714750000168,
                    "velocity": 0.4015748031496063,
                    "duration": 0.10623225000000502
                },
                {
                    "name": "D4",
                    "midi": 62,
                    "time": 182.08207650000168,
                    "velocity": 0.3228346456692913,
                    "duration": 0.10623225000000502
                },
                {
                    "name": "F4",
                    "midi": 65,
                    "time": 182.08207650000168,
                    "velocity": 0.3858267716535433,
                    "duration": 0.10623225000000502
                },
                {
                    "name": "A#3",
                    "midi": 58,
                    "time": 182.50700550000167,
                    "velocity": 0.2992125984251969,
                    "duration": 0.10623225000000502
                },
                {
                    "name": "D4",
                    "midi": 62,
                    "time": 182.50700550000167,
                    "velocity": 0.3543307086614173,
                    "duration": 0.10623225000000502
                },
                {
                    "name": "G4",
                    "midi": 67,
                    "time": 182.93193450000166,
                    "velocity": 0.47244094488188976,
                    "duration": 0.4249289999999917
                },
                {
                    "name": "A#4",
                    "midi": 70,
                    "time": 182.93193450000166,
                    "velocity": 0.5748031496062992,
                    "duration": 0.4249289999999917
                },
                {
                    "name": "F4",
                    "midi": 65,
                    "time": 183.35686350000165,
                    "velocity": 0.33858267716535434,
                    "duration": 0.10623225000000502
                },
                {
                    "name": "A4",
                    "midi": 69,
                    "time": 183.35686350000165,
                    "velocity": 0.4015748031496063,
                    "duration": 0.10623225000000502
                },
                {
                    "name": "E4",
                    "midi": 64,
                    "time": 183.78179250000164,
                    "velocity": 0.3228346456692913,
                    "duration": 0.10623225000000502
                },
                {
                    "name": "G4",
                    "midi": 67,
                    "time": 183.78179250000164,
                    "velocity": 0.3858267716535433,
                    "duration": 0.10623225000000502
                },
                {
                    "name": "C4",
                    "midi": 60,
                    "time": 184.20672150000163,
                    "velocity": 0.2992125984251969,
                    "duration": 0.10623225000000502
                },
                {
                    "name": "E4",
                    "midi": 64,
                    "time": 184.20672150000163,
                    "velocity": 0.3543307086614173,
                    "duration": 0.10623225000000502
                },
                {
                    "name": "A4",
                    "midi": 69,
                    "time": 184.63165050000163,
                    "velocity": 0.47244094488188976,
                    "duration": 0.4249289999999917
                },
                {
                    "name": "C5",
                    "midi": 72,
                    "time": 184.63165050000163,
                    "velocity": 0.5669291338582677,
                    "duration": 0.4249289999999917
                },
                {
                    "name": "A4",
                    "midi": 69,
                    "time": 185.05657950000162,
                    "velocity": 0.3700787401574803,
                    "duration": 0.10623225000000502
                },
                {
                    "name": "C5",
                    "midi": 72,
                    "time": 185.05657950000162,
                    "velocity": 0.4409448818897638,
                    "duration": 0.10623225000000502
                },
                {
                    "name": "F4",
                    "midi": 65,
                    "time": 185.4815085000016,
                    "velocity": 0.3543307086614173,
                    "duration": 0.10623225000000502
                },
                {
                    "name": "A4",
                    "midi": 69,
                    "time": 185.4815085000016,
                    "velocity": 0.41732283464566927,
                    "duration": 0.10623225000000502
                },
                {
                    "name": "D4",
                    "midi": 62,
                    "time": 185.9064375000016,
                    "velocity": 0.3228346456692913,
                    "duration": 0.10623225000000502
                },
                {
                    "name": "F4",
                    "midi": 65,
                    "time": 185.9064375000016,
                    "velocity": 0.3858267716535433,
                    "duration": 0.10623225000000502
                },
                {
                    "name": "A#4",
                    "midi": 70,
                    "time": 186.3313665000016,
                    "velocity": 0.5354330708661418,
                    "duration": 0.4249289999999917
                },
                {
                    "name": "D5",
                    "midi": 74,
                    "time": 186.3313665000016,
                    "velocity": 0.6614173228346457,
                    "duration": 0.4249289999999917
                },
                {
                    "name": "A4",
                    "midi": 69,
                    "time": 186.75629550000158,
                    "velocity": 0.3858267716535433,
                    "duration": 0.10623225000000502
                },
                {
                    "name": "C5",
                    "midi": 72,
                    "time": 186.75629550000158,
                    "velocity": 0.4566929133858268,
                    "duration": 0.10623225000000502
                },
                {
                    "name": "G4",
                    "midi": 67,
                    "time": 187.18122450000158,
                    "velocity": 0.3700787401574803,
                    "duration": 0.10623225000000502
                },
                {
                    "name": "A#4",
                    "midi": 70,
                    "time": 187.18122450000158,
                    "velocity": 0.4330708661417323,
                    "duration": 0.10623225000000502
                },
                {
                    "name": "E4",
                    "midi": 64,
                    "time": 187.60615350000157,
                    "velocity": 0.33858267716535434,
                    "duration": 0.10623225000000502
                },
                {
                    "name": "G4",
                    "midi": 67,
                    "time": 187.60615350000157,
                    "velocity": 0.4015748031496063,
                    "duration": 0.10623225000000502
                },
                {
                    "name": "A#4",
                    "midi": 70,
                    "time": 188.03108250000156,
                    "velocity": 0.6220472440944882,
                    "duration": 0.4249289999999917
                },
                {
                    "name": "G5",
                    "midi": 79,
                    "time": 188.03108250000156,
                    "velocity": 0.7559055118110236,
                    "duration": 0.4249289999999917
                },
                {
                    "name": "A4",
                    "midi": 69,
                    "time": 188.45601150000155,
                    "velocity": 0.4409448818897638,
                    "duration": 0.10623225000000502
                },
                {
                    "name": "F5",
                    "midi": 77,
                    "time": 188.45601150000155,
                    "velocity": 0.5275590551181102,
                    "duration": 0.10623225000000502
                },
                {
                    "name": "G4",
                    "midi": 67,
                    "time": 188.88094050000154,
                    "velocity": 0.6220472440944882,
                    "duration": 0.4249289999999917
                },
                {
                    "name": "E5",
                    "midi": 76,
                    "time": 188.88094050000154,
                    "velocity": 0.7559055118110236,
                    "duration": 0.4249289999999917
                },
                {
                    "name": "F4",
                    "midi": 65,
                    "time": 189.30586950000153,
                    "velocity": 0.4409448818897638,
                    "duration": 0.10623225000000502
                },
                {
                    "name": "D5",
                    "midi": 74,
                    "time": 189.30586950000153,
                    "velocity": 0.5275590551181102,
                    "duration": 0.10623225000000502
                },
                {
                    "name": "E4",
                    "midi": 64,
                    "time": 189.73079850000153,
                    "velocity": 0.3464566929133858,
                    "duration": 0.10623225000000502
                },
                {
                    "name": "C5",
                    "midi": 72,
                    "time": 189.73079850000153,
                    "velocity": 0.4094488188976378,
                    "duration": 0.10623225000000502
                },
                {
                    "name": "A#3",
                    "midi": 58,
                    "time": 190.15572750000152,
                    "velocity": 0.30708661417322836,
                    "duration": 0.10623225000000502
                },
                {
                    "name": "A#4",
                    "midi": 70,
                    "time": 190.15572750000152,
                    "velocity": 0.36220472440944884,
                    "duration": 0.10623225000000502
                },
                {
                    "name": "A4",
                    "midi": 69,
                    "time": 190.36819200000153,
                    "velocity": 0.4251968503937008,
                    "duration": 0.10623225000000502
                },
                {
                    "name": "A3",
                    "midi": 57,
                    "time": 190.47442425000153,
                    "velocity": 0.36220472440944884,
                    "duration": 0.10623225000000502
                },
                {
                    "name": "C#4",
                    "midi": 61,
                    "time": 190.58065650000154,
                    "velocity": 0.33858267716535434,
                    "duration": 0.10623225000000502
                },
                {
                    "name": "E4",
                    "midi": 64,
                    "time": 190.68688875000154,
                    "velocity": 0.33858267716535434,
                    "duration": 0.10623225000000502
                },
                {
                    "name": "A4",
                    "midi": 69,
                    "time": 190.79312100000155,
                    "velocity": 0.41732283464566927,
                    "duration": 0.10623225000000502
                },
                {
                    "name": "C#5",
                    "midi": 73,
                    "time": 190.89935325000155,
                    "velocity": 0.33070866141732286,
                    "duration": 0.10623225000000502
                },
                {
                    "name": "E5",
                    "midi": 76,
                    "time": 191.00558550000156,
                    "velocity": 0.33070866141732286,
                    "duration": 0.10623225000000502
                },
                {
                    "name": "G#5",
                    "midi": 80,
                    "time": 191.11181775000156,
                    "velocity": 0.33070866141732286,
                    "duration": 0.10623225000000502
                },
                {
                    "name": "A5",
                    "midi": 81,
                    "time": 191.21805000000157,
                    "velocity": 0.3858267716535433,
                    "duration": 0.10623225000000502
                },
                {
                    "name": "G#5",
                    "midi": 80,
                    "time": 191.32428225000157,
                    "velocity": 0.30708661417322836,
                    "duration": 0.10623225000000502
                },
                {
                    "name": "A5",
                    "midi": 81,
                    "time": 191.43051450000158,
                    "velocity": 0.33070866141732286,
                    "duration": 0.10623225000000502
                },
                {
                    "name": "G#5",
                    "midi": 80,
                    "time": 191.53674675000158,
                    "velocity": 0.2992125984251969,
                    "duration": 0.10623225000000502
                },
                {
                    "name": "A5",
                    "midi": 81,
                    "time": 191.6429790000016,
                    "velocity": 0.3779527559055118,
                    "duration": 0.10623225000000502
                },
                {
                    "name": "E5",
                    "midi": 76,
                    "time": 191.7492112500016,
                    "velocity": 0.2992125984251969,
                    "duration": 0.10623225000000502
                },
                {
                    "name": "C#5",
                    "midi": 73,
                    "time": 191.8554435000016,
                    "velocity": 0.2992125984251969,
                    "duration": 0.10623225000000502
                },
                {
                    "name": "A4",
                    "midi": 69,
                    "time": 191.9616757500016,
                    "velocity": 0.2992125984251969,
                    "duration": 0.10623225000000502
                },
                {
                    "name": "A3",
                    "midi": 57,
                    "time": 192.1741402500016,
                    "velocity": 0.36220472440944884,
                    "duration": 0.10623225000000502
                },
                {
                    "name": "D4",
                    "midi": 62,
                    "time": 192.28037250000162,
                    "velocity": 0.33858267716535434,
                    "duration": 0.10623225000000502
                },
                {
                    "name": "F4",
                    "midi": 65,
                    "time": 192.38660475000162,
                    "velocity": 0.33858267716535434,
                    "duration": 0.10623225000000502
                },
                {
                    "name": "A4",
                    "midi": 69,
                    "time": 192.49283700000163,
                    "velocity": 0.41732283464566927,
                    "duration": 0.10623225000000502
                },
                {
                    "name": "D5",
                    "midi": 74,
                    "time": 192.59906925000163,
                    "velocity": 0.33070866141732286,
                    "duration": 0.10623225000000502
                },
                {
                    "name": "F5",
                    "midi": 77,
                    "time": 192.70530150000164,
                    "velocity": 0.33070866141732286,
                    "duration": 0.10623225000000502
                },
                {
                    "name": "G#5",
                    "midi": 80,
                    "time": 192.81153375000164,
                    "velocity": 0.33070866141732286,
                    "duration": 0.10623225000000502
                },
                {
                    "name": "A5",
                    "midi": 81,
                    "time": 192.91776600000165,
                    "velocity": 0.3858267716535433,
                    "duration": 0.10623225000000502
                },
                {
                    "name": "G#5",
                    "midi": 80,
                    "time": 193.02399825000165,
                    "velocity": 0.30708661417322836,
                    "duration": 0.10623225000000502
                },
                {
                    "name": "A5",
                    "midi": 81,
                    "time": 193.13023050000166,
                    "velocity": 0.33070866141732286,
                    "duration": 0.10623225000000502
                },
                {
                    "name": "G#5",
                    "midi": 80,
                    "time": 193.23646275000166,
                    "velocity": 0.2992125984251969,
                    "duration": 0.10623225000000502
                },
                {
                    "name": "A5",
                    "midi": 81,
                    "time": 193.34269500000167,
                    "velocity": 0.3779527559055118,
                    "duration": 0.10623225000000502
                },
                {
                    "name": "F5",
                    "midi": 77,
                    "time": 193.44892725000167,
                    "velocity": 0.2992125984251969,
                    "duration": 0.10623225000000502
                },
                {
                    "name": "D5",
                    "midi": 74,
                    "time": 193.55515950000168,
                    "velocity": 0.2992125984251969,
                    "duration": 0.10623225000000502
                },
                {
                    "name": "A4",
                    "midi": 69,
                    "time": 193.66139175000168,
                    "velocity": 0.2992125984251969,
                    "duration": 0.10623225000000502
                },
                {
                    "name": "G#3",
                    "midi": 56,
                    "time": 193.8738562500017,
                    "velocity": 0.36220472440944884,
                    "duration": 0.10623225000000502
                },
                {
                    "name": "B3",
                    "midi": 59,
                    "time": 193.9800885000017,
                    "velocity": 0.33858267716535434,
                    "duration": 0.10623225000000502
                },
                {
                    "name": "D4",
                    "midi": 62,
                    "time": 194.0863207500017,
                    "velocity": 0.33858267716535434,
                    "duration": 0.10623225000000502
                },
                {
                    "name": "F4",
                    "midi": 65,
                    "time": 194.1925530000017,
                    "velocity": 0.3937007874015748,
                    "duration": 0.10623225000000502
                },
                {
                    "name": "G#4",
                    "midi": 68,
                    "time": 194.2987852500017,
                    "velocity": 0.33070866141732286,
                    "duration": 0.10623225000000502
                },
                {
                    "name": "B4",
                    "midi": 71,
                    "time": 194.40501750000172,
                    "velocity": 0.33070866141732286,
                    "duration": 0.10623225000000502
                },
                {
                    "name": "D5",
                    "midi": 74,
                    "time": 194.51124975000172,
                    "velocity": 0.33070866141732286,
                    "duration": 0.10623225000000502
                },
                {
                    "name": "F5",
                    "midi": 77,
                    "time": 194.61748200000173,
                    "velocity": 0.3858267716535433,
                    "duration": 0.10623225000000502
                },
                {
                    "name": "D5",
                    "midi": 74,
                    "time": 194.72371425000173,
                    "velocity": 0.3228346456692913,
                    "duration": 0.10623225000000502
                },
                {
                    "name": "G#5",
                    "midi": 80,
                    "time": 194.82994650000174,
                    "velocity": 0.3779527559055118,
                    "duration": 0.10623225000000502
                },
                {
                    "name": "F5",
                    "midi": 77,
                    "time": 194.93617875000174,
                    "velocity": 0.3228346456692913,
                    "duration": 0.10623225000000502
                },
                {
                    "name": "D5",
                    "midi": 74,
                    "time": 195.04241100000175,
                    "velocity": 0.3779527559055118,
                    "duration": 0.10623225000000502
                },
                {
                    "name": "B4",
                    "midi": 71,
                    "time": 195.14864325000175,
                    "velocity": 0.3543307086614173,
                    "duration": 0.10623225000000502
                },
                {
                    "name": "G#4",
                    "midi": 68,
                    "time": 195.25487550000176,
                    "velocity": 0.33070866141732286,
                    "duration": 0.10623225000000502
                },
                {
                    "name": "F4",
                    "midi": 65,
                    "time": 195.36110775000176,
                    "velocity": 0.30708661417322836,
                    "duration": 0.10623225000000502
                },
                {
                    "name": "E4",
                    "midi": 64,
                    "time": 195.57357225000177,
                    "velocity": 0.3779527559055118,
                    "duration": 0.10623225000000502
                },
                {
                    "name": "G4",
                    "midi": 67,
                    "time": 195.67980450000178,
                    "velocity": 0.3937007874015748,
                    "duration": 0.10623225000000502
                },
                {
                    "name": "A#4",
                    "midi": 70,
                    "time": 195.78603675000178,
                    "velocity": 0.4015748031496063,
                    "duration": 0.10623225000000502
                },
                {
                    "name": "C#5",
                    "midi": 73,
                    "time": 195.8922690000018,
                    "velocity": 0.41732283464566927,
                    "duration": 0.10623225000000502
                },
                {
                    "name": "E5",
                    "midi": 76,
                    "time": 195.9985012500018,
                    "velocity": 0.4330708661417323,
                    "duration": 0.10623225000000502
                },
                {
                    "name": "G5",
                    "midi": 79,
                    "time": 196.1047335000018,
                    "velocity": 0.44881889763779526,
                    "duration": 0.10623225000000502
                },
                {
                    "name": "A#5",
                    "midi": 82,
                    "time": 196.2109657500018,
                    "velocity": 0.4645669291338583,
                    "duration": 0.10623225000000502
                },
                {
                    "name": "C#6",
                    "midi": 85,
                    "time": 196.3171980000018,
                    "velocity": 0.5118110236220472,
                    "duration": 0.10623225000000502
                },
                {
                    "name": "E6",
                    "midi": 88,
                    "time": 196.42343025000181,
                    "velocity": 0.44881889763779526,
                    "duration": 0.10623225000000502
                },
                {
                    "name": "E5",
                    "midi": 76,
                    "time": 196.52966250000182,
                    "velocity": 0.5039370078740157,
                    "duration": 0.10623225000000502
                },
                {
                    "name": "E6",
                    "midi": 88,
                    "time": 196.63589475000182,
                    "velocity": 0.4409448818897638,
                    "duration": 0.10623225000000502
                },
                {
                    "name": "E5",
                    "midi": 76,
                    "time": 196.74212700000183,
                    "velocity": 0.5039370078740157,
                    "duration": 0.10623225000000502
                },
                {
                    "name": "E6",
                    "midi": 88,
                    "time": 196.84835925000183,
                    "velocity": 0.4566929133858268,
                    "duration": 0.10623225000000502
                },
                {
                    "name": "E5",
                    "midi": 76,
                    "time": 196.95459150000184,
                    "velocity": 0.5039370078740157,
                    "duration": 0.10623225000000502
                },
                {
                    "name": "E6",
                    "midi": 88,
                    "time": 197.06082375000184,
                    "velocity": 0.4645669291338583,
                    "duration": 0.10623225000000502
                },
                {
                    "name": "F5",
                    "midi": 77,
                    "time": 197.16705600000185,
                    "velocity": 0.5826771653543307,
                    "duration": 0.10623225000000502
                },
                {
                    "name": "F6",
                    "midi": 89,
                    "time": 197.27328825000185,
                    "velocity": 0.4645669291338583,
                    "duration": 0.10623225000000502
                },
                {
                    "name": "E5",
                    "midi": 76,
                    "time": 197.37952050000186,
                    "velocity": 0.5275590551181102,
                    "duration": 0.10623225000000502
                },
                {
                    "name": "E6",
                    "midi": 88,
                    "time": 197.48575275000186,
                    "velocity": 0.4251968503937008,
                    "duration": 0.10623225000000502
                },
                {
                    "name": "F5",
                    "midi": 77,
                    "time": 197.59198500000187,
                    "velocity": 0.5196850393700787,
                    "duration": 0.10623225000000502
                },
                {
                    "name": "F6",
                    "midi": 89,
                    "time": 197.69821725000187,
                    "velocity": 0.44881889763779526,
                    "duration": 0.10623225000000502
                },
                {
                    "name": "A#4",
                    "midi": 70,
                    "time": 197.80444950000188,
                    "velocity": 0.4645669291338583,
                    "duration": 0.10623225000000502
                },
                {
                    "name": "A#5",
                    "midi": 82,
                    "time": 197.91068175000188,
                    "velocity": 0.3937007874015748,
                    "duration": 0.10623225000000502
                },
                {
                    "name": "A4",
                    "midi": 69,
                    "time": 198.0169140000019,
                    "velocity": 0.6220472440944882,
                    "duration": 0.10623225000000502
                },
                {
                    "name": "A5",
                    "midi": 81,
                    "time": 198.1231462500019,
                    "velocity": 0.4251968503937008,
                    "duration": 0.10623225000000502
                },
                {
                    "name": "E5",
                    "midi": 76,
                    "time": 198.2293785000019,
                    "velocity": 0.5118110236220472,
                    "duration": 0.10623225000000502
                },
                {
                    "name": "E6",
                    "midi": 88,
                    "time": 198.3356107500019,
                    "velocity": 0.44881889763779526,
                    "duration": 0.10623225000000502
                },
                {
                    "name": "F5",
                    "midi": 77,
                    "time": 198.4418430000019,
                    "velocity": 0.5354330708661418,
                    "duration": 0.10623225000000502
                },
                {
                    "name": "F6",
                    "midi": 89,
                    "time": 198.54807525000192,
                    "velocity": 0.47244094488188976,
                    "duration": 0.10623225000000502
                },
                {
                    "name": "A#4",
                    "midi": 70,
                    "time": 198.65430750000192,
                    "velocity": 0.5275590551181102,
                    "duration": 0.10623225000000502
                },
                {
                    "name": "A#5",
                    "midi": 82,
                    "time": 198.76053975000193,
                    "velocity": 0.4566929133858268,
                    "duration": 0.10623225000000502
                },
                {
                    "name": "A4",
                    "midi": 69,
                    "time": 198.86677200000193,
                    "velocity": 0.6377952755905512,
                    "duration": 0.10623225000000502
                },
                {
                    "name": "A5",
                    "midi": 81,
                    "time": 198.97300425000194,
                    "velocity": 0.4566929133858268,
                    "duration": 0.10623225000000502
                },
                {
                    "name": "E5",
                    "midi": 76,
                    "time": 199.07923650000194,
                    "velocity": 0.5039370078740157,
                    "duration": 0.10623225000000502
                },
                {
                    "name": "E6",
                    "midi": 88,
                    "time": 199.18546875000195,
                    "velocity": 0.4645669291338583,
                    "duration": 0.10623225000000502
                },
                {
                    "name": "F5",
                    "midi": 77,
                    "time": 199.29170100000195,
                    "velocity": 0.5275590551181102,
                    "duration": 0.10623225000000502
                },
                {
                    "name": "F6",
                    "midi": 89,
                    "time": 199.39793325000196,
                    "velocity": 0.4330708661417323,
                    "duration": 0.10623225000000502
                },
                {
                    "name": "A#4",
                    "midi": 70,
                    "time": 199.50416550000196,
                    "velocity": 0.4881889763779528,
                    "duration": 0.10623225000000502
                },
                {
                    "name": "A#5",
                    "midi": 82,
                    "time": 199.61039775000197,
                    "velocity": 0.4015748031496063,
                    "duration": 0.10623225000000502
                },
                {
                    "name": "A4",
                    "midi": 69,
                    "time": 199.71663000000197,
                    "velocity": 0.5669291338582677,
                    "duration": 0.10623225000000502
                },
                {
                    "name": "A5",
                    "midi": 81,
                    "time": 199.82286225000198,
                    "velocity": 0.4094488188976378,
                    "duration": 0.10623225000000502
                },
                {
                    "name": "E5",
                    "midi": 76,
                    "time": 199.92909450000198,
                    "velocity": 0.5039370078740157,
                    "duration": 0.10623225000000502
                },
                {
                    "name": "E6",
                    "midi": 88,
                    "time": 200.03532675000199,
                    "velocity": 0.4251968503937008,
                    "duration": 0.10623225000000502
                },
                {
                    "name": "F5",
                    "midi": 77,
                    "time": 200.141559000002,
                    "velocity": 0.5039370078740157,
                    "duration": 0.10623225000000502
                },
                {
                    "name": "F6",
                    "midi": 89,
                    "time": 200.247791250002,
                    "velocity": 0.4015748031496063,
                    "duration": 0.10623225000000502
                },
                {
                    "name": "A#4",
                    "midi": 70,
                    "time": 200.354023500002,
                    "velocity": 0.47244094488188976,
                    "duration": 0.10623225000000502
                },
                {
                    "name": "A#5",
                    "midi": 82,
                    "time": 200.460255750002,
                    "velocity": 0.4015748031496063,
                    "duration": 0.10623225000000502
                },
                {
                    "name": "A4",
                    "midi": 69,
                    "time": 200.566488000002,
                    "velocity": 0.6535433070866141,
                    "duration": 0.10623225000000502
                },
                {
                    "name": "A5",
                    "midi": 81,
                    "time": 200.67272025000202,
                    "velocity": 0.41732283464566927,
                    "duration": 0.10623225000000502
                },
                {
                    "name": "G4",
                    "midi": 67,
                    "time": 200.77895250000202,
                    "velocity": 0.4881889763779528,
                    "duration": 0.10623225000000502
                },
                {
                    "name": "G5",
                    "midi": 79,
                    "time": 200.88518475000203,
                    "velocity": 0.4251968503937008,
                    "duration": 0.10623225000000502
                },
                {
                    "name": "F4",
                    "midi": 65,
                    "time": 200.99141700000203,
                    "velocity": 0.4881889763779528,
                    "duration": 0.10623225000000502
                },
                {
                    "name": "F5",
                    "midi": 77,
                    "time": 201.09764925000204,
                    "velocity": 0.4251968503937008,
                    "duration": 0.10623225000000502
                },
                {
                    "name": "E4",
                    "midi": 64,
                    "time": 201.20388150000204,
                    "velocity": 0.4881889763779528,
                    "duration": 0.10623225000000502
                },
                {
                    "name": "E5",
                    "midi": 76,
                    "time": 201.31011375000205,
                    "velocity": 0.41732283464566927,
                    "duration": 0.10623225000000502
                },
                {
                    "name": "D4",
                    "midi": 62,
                    "time": 201.41634600000205,
                    "velocity": 0.6377952755905512,
                    "duration": 0.10623225000000502
                },
                {
                    "name": "D5",
                    "midi": 74,
                    "time": 201.52257825000206,
                    "velocity": 0.41732283464566927,
                    "duration": 0.10623225000000502
                },
                {
                    "name": "C4",
                    "midi": 60,
                    "time": 201.62881050000206,
                    "velocity": 0.47244094488188976,
                    "duration": 0.10623225000000502
                },
                {
                    "name": "C5",
                    "midi": 72,
                    "time": 201.73504275000207,
                    "velocity": 0.4094488188976378,
                    "duration": 0.10623225000000502
                },
                {
                    "name": "A#3",
                    "midi": 58,
                    "time": 201.84127500000207,
                    "velocity": 0.4645669291338583,
                    "duration": 0.10623225000000502
                },
                {
                    "name": "A#4",
                    "midi": 70,
                    "time": 201.94750725000208,
                    "velocity": 0.4094488188976378,
                    "duration": 0.10623225000000502
                },
                {
                    "name": "A3",
                    "midi": 57,
                    "time": 202.05373950000208,
                    "velocity": 0.4645669291338583,
                    "duration": 0.10623225000000502
                },
                {
                    "name": "A4",
                    "midi": 69,
                    "time": 202.1599717500021,
                    "velocity": 0.3937007874015748,
                    "duration": 0.10623225000000502
                },
                {
                    "name": "G3",
                    "midi": 55,
                    "time": 202.2662040000021,
                    "velocity": 0.6220472440944882,
                    "duration": 0.10623225000000502
                },
                {
                    "name": "G4",
                    "midi": 67,
                    "time": 202.3724362500021,
                    "velocity": 0.3937007874015748,
                    "duration": 0.10623225000000502
                },
                {
                    "name": "F3",
                    "midi": 53,
                    "time": 202.4786685000021,
                    "velocity": 0.4645669291338583,
                    "duration": 0.10623225000000502
                },
                {
                    "name": "F4",
                    "midi": 65,
                    "time": 202.5849007500021,
                    "velocity": 0.3858267716535433,
                    "duration": 0.10623225000000502
                },
                {
                    "name": "E3",
                    "midi": 52,
                    "time": 202.6911330000021,
                    "velocity": 0.4645669291338583,
                    "duration": 0.10623225000000502
                },
                {
                    "name": "E4",
                    "midi": 64,
                    "time": 202.79736525000212,
                    "velocity": 0.3858267716535433,
                    "duration": 0.10623225000000502
                },
                {
                    "name": "D3",
                    "midi": 50,
                    "time": 202.90359750000212,
                    "velocity": 0.4645669291338583,
                    "duration": 0.10623225000000502
                },
                {
                    "name": "D4",
                    "midi": 62,
                    "time": 203.00982975000213,
                    "velocity": 0.4015748031496063,
                    "duration": 0.10623225000000502
                },
                {
                    "name": "C3",
                    "midi": 48,
                    "time": 203.11606200000213,
                    "velocity": 0.6220472440944882,
                    "duration": 0.10623225000000502
                },
                {
                    "name": "C4",
                    "midi": 60,
                    "time": 203.22229425000214,
                    "velocity": 0.3858267716535433,
                    "duration": 0.10623225000000502
                },
                {
                    "name": "A#2",
                    "midi": 46,
                    "time": 203.32852650000214,
                    "velocity": 0.4645669291338583,
                    "duration": 0.10623225000000502
                },
                {
                    "name": "A#3",
                    "midi": 58,
                    "time": 203.43475875000215,
                    "velocity": 0.3937007874015748,
                    "duration": 0.10623225000000502
                },
                {
                    "name": "A2",
                    "midi": 45,
                    "time": 203.54099100000215,
                    "velocity": 0.4645669291338583,
                    "duration": 0.10623225000000502
                },
                {
                    "name": "A3",
                    "midi": 57,
                    "time": 203.64722325000216,
                    "velocity": 0.3779527559055118,
                    "duration": 0.10623225000000502
                },
                {
                    "name": "G2",
                    "midi": 43,
                    "time": 203.75345550000216,
                    "velocity": 0.4566929133858268,
                    "duration": 0.10623225000000502
                },
                {
                    "name": "G3",
                    "midi": 55,
                    "time": 203.85968775000217,
                    "velocity": 0.3858267716535433,
                    "duration": 0.10623225000000502
                },
                {
                    "name": "F3",
                    "midi": 53,
                    "time": 203.96592000000217,
                    "velocity": 0.5984251968503937,
                    "duration": 0.10623225000000502
                },
                {
                    "name": "F2",
                    "midi": 41,
                    "time": 203.96592000000217,
                    "velocity": 0.5039370078740157,
                    "duration": 0.10623225000000502
                },
                {
                    "name": "E3",
                    "midi": 52,
                    "time": 204.17838450000218,
                    "velocity": 0.3858267716535433,
                    "duration": 0.10623225000000502
                },
                {
                    "name": "C4",
                    "midi": 60,
                    "time": 204.2846167500022,
                    "velocity": 0.33070866141732286,
                    "duration": 0.10623225000000502
                },
                {
                    "name": "F3",
                    "midi": 53,
                    "time": 204.3908490000022,
                    "velocity": 0.3858267716535433,
                    "duration": 0.10623225000000502
                },
                {
                    "name": "C4",
                    "midi": 60,
                    "time": 204.4970812500022,
                    "velocity": 0.3228346456692913,
                    "duration": 0.10623225000000502
                },
                {
                    "name": "A#3",
                    "midi": 58,
                    "time": 204.6033135000022,
                    "velocity": 0.3858267716535433,
                    "duration": 0.10623225000000502
                },
                {
                    "name": "C4",
                    "midi": 60,
                    "time": 204.7095457500022,
                    "velocity": 0.33070866141732286,
                    "duration": 0.10623225000000502
                },
                {
                    "name": "A3",
                    "midi": 57,
                    "time": 204.8157780000022,
                    "velocity": 0.3858267716535433,
                    "duration": 0.10623225000000502
                },
                {
                    "name": "C4",
                    "midi": 60,
                    "time": 204.92201025000222,
                    "velocity": 0.3228346456692913,
                    "duration": 0.10623225000000502
                },
                {
                    "name": "E3",
                    "midi": 52,
                    "time": 205.02824250000222,
                    "velocity": 0.3858267716535433,
                    "duration": 0.10623225000000502
                },
                {
                    "name": "C4",
                    "midi": 60,
                    "time": 205.13447475000223,
                    "velocity": 0.33070866141732286,
                    "duration": 0.10623225000000502
                },
                {
                    "name": "F3",
                    "midi": 53,
                    "time": 205.24070700000223,
                    "velocity": 0.3858267716535433,
                    "duration": 0.10623225000000502
                },
                {
                    "name": "C4",
                    "midi": 60,
                    "time": 205.34693925000224,
                    "velocity": 0.33858267716535434,
                    "duration": 0.10623225000000502
                },
                {
                    "name": "A#3",
                    "midi": 58,
                    "time": 205.45317150000224,
                    "velocity": 0.3858267716535433,
                    "duration": 0.10623225000000502
                },
                {
                    "name": "C4",
                    "midi": 60,
                    "time": 205.55940375000225,
                    "velocity": 0.31496062992125984,
                    "duration": 0.10623225000000502
                },
                {
                    "name": "A3",
                    "midi": 57,
                    "time": 205.66563600000225,
                    "velocity": 0.3858267716535433,
                    "duration": 0.10623225000000502
                },
                {
                    "name": "C4",
                    "midi": 60,
                    "time": 205.77186825000226,
                    "velocity": 0.3228346456692913,
                    "duration": 0.10623225000000502
                },
                {
                    "name": "E3",
                    "midi": 52,
                    "time": 205.87810050000226,
                    "velocity": 0.3858267716535433,
                    "duration": 0.10623225000000502
                },
                {
                    "name": "C4",
                    "midi": 60,
                    "time": 205.98433275000227,
                    "velocity": 0.33070866141732286,
                    "duration": 0.10623225000000502
                },
                {
                    "name": "F3",
                    "midi": 53,
                    "time": 206.09056500000227,
                    "velocity": 0.3858267716535433,
                    "duration": 0.10623225000000502
                },
                {
                    "name": "C4",
                    "midi": 60,
                    "time": 206.19679725000228,
                    "velocity": 0.33858267716535434,
                    "duration": 0.10623225000000502
                },
                {
                    "name": "A#3",
                    "midi": 58,
                    "time": 206.30302950000228,
                    "velocity": 0.3858267716535433,
                    "duration": 0.10623225000000502
                },
                {
                    "name": "C4",
                    "midi": 60,
                    "time": 206.4092617500023,
                    "velocity": 0.31496062992125984,
                    "duration": 0.10623225000000502
                },
                {
                    "name": "A3",
                    "midi": 57,
                    "time": 206.5154940000023,
                    "velocity": 0.4409448818897638,
                    "duration": 0.10623225000000502
                },
                {
                    "name": "C4",
                    "midi": 60,
                    "time": 206.6217262500023,
                    "velocity": 0.3543307086614173,
                    "duration": 0.10623225000000502
                },
                {
                    "name": "C#3",
                    "midi": 49,
                    "time": 206.7279585000023,
                    "velocity": 0.47244094488188976,
                    "duration": 0.10623225000000502
                },
                {
                    "name": "C#4",
                    "midi": 61,
                    "time": 206.8341907500023,
                    "velocity": 0.4094488188976378,
                    "duration": 0.10623225000000502
                },
                {
                    "name": "D3",
                    "midi": 50,
                    "time": 206.9404230000023,
                    "velocity": 0.48031496062992124,
                    "duration": 0.10623225000000502
                },
                {
                    "name": "D4",
                    "midi": 62,
                    "time": 207.04665525000232,
                    "velocity": 0.3858267716535433,
                    "duration": 0.10623225000000502
                },
                {
                    "name": "E3",
                    "midi": 52,
                    "time": 207.15288750000232,
                    "velocity": 0.5275590551181102,
                    "duration": 0.10623225000000502
                },
                {
                    "name": "E4",
                    "midi": 64,
                    "time": 207.25911975000233,
                    "velocity": 0.47244094488188976,
                    "duration": 0.10623225000000502
                },
                {
                    "name": "F3",
                    "midi": 53,
                    "time": 207.36535200000233,
                    "velocity": 0.5590551181102362,
                    "duration": 0.10623225000000502
                },
                {
                    "name": "F4",
                    "midi": 65,
                    "time": 207.47158425000234,
                    "velocity": 0.4881889763779528,
                    "duration": 0.10623225000000502
                },
                {
                    "name": "F#3",
                    "midi": 54,
                    "time": 207.57781650000234,
                    "velocity": 0.5511811023622047,
                    "duration": 0.10623225000000502
                },
                {
                    "name": "F#4",
                    "midi": 66,
                    "time": 207.68404875000235,
                    "velocity": 0.5039370078740157,
                    "duration": 0.10623225000000502
                },
                {
                    "name": "G3",
                    "midi": 55,
                    "time": 207.79028100000235,
                    "velocity": 0.5511811023622047,
                    "duration": 0.10623225000000502
                },
                {
                    "name": "G4",
                    "midi": 67,
                    "time": 207.89651325000236,
                    "velocity": 0.5039370078740157,
                    "duration": 0.10623225000000502
                },
                {
                    "name": "A3",
                    "midi": 57,
                    "time": 208.00274550000236,
                    "velocity": 0.5826771653543307,
                    "duration": 0.10623225000000502
                },
                {
                    "name": "A4",
                    "midi": 69,
                    "time": 208.10897775000237,
                    "velocity": 0.5118110236220472,
                    "duration": 0.10623225000000502
                },
                {
                    "name": "A#3",
                    "midi": 58,
                    "time": 208.21521000000237,
                    "velocity": 0.6456692913385826,
                    "duration": 0.10623225000000502
                },
                {
                    "name": "A#4",
                    "midi": 70,
                    "time": 208.32144225000238,
                    "velocity": 0.5590551181102362,
                    "duration": 0.10623225000000502
                },
                {
                    "name": "C4",
                    "midi": 60,
                    "time": 208.42767450000238,
                    "velocity": 0.6220472440944882,
                    "duration": 0.10623225000000502
                },
                {
                    "name": "C5",
                    "midi": 72,
                    "time": 208.5339067500024,
                    "velocity": 0.5511811023622047,
                    "duration": 0.10623225000000502
                },
                {
                    "name": "D4",
                    "midi": 62,
                    "time": 208.6401390000024,
                    "velocity": 0.6535433070866141,
                    "duration": 0.10623225000000502
                },
                {
                    "name": "D5",
                    "midi": 74,
                    "time": 208.7463712500024,
                    "velocity": 0.5669291338582677,
                    "duration": 0.10623225000000502
                },
                {
                    "name": "C4",
                    "midi": 60,
                    "time": 208.8526035000024,
                    "velocity": 0.6377952755905512,
                    "duration": 0.10623225000000502
                },
                {
                    "name": "C5",
                    "midi": 72,
                    "time": 208.9588357500024,
                    "velocity": 0.5433070866141733,
                    "duration": 0.10623225000000502
                },
                {
                    "name": "A#3",
                    "midi": 58,
                    "time": 209.0650680000024,
                    "velocity": 0.6614173228346457,
                    "duration": 0.10623225000000502
                },
                {
                    "name": "A#4",
                    "midi": 70,
                    "time": 209.17130025000242,
                    "velocity": 0.5433070866141733,
                    "duration": 0.10623225000000502
                },
                {
                    "name": "A3",
                    "midi": 57,
                    "time": 209.27753250000242,
                    "velocity": 0.6377952755905512,
                    "duration": 0.10623225000000502
                },
                {
                    "name": "A4",
                    "midi": 69,
                    "time": 209.38376475000243,
                    "velocity": 0.5433070866141733,
                    "duration": 0.10623225000000502
                },
                {
                    "name": "G3",
                    "midi": 55,
                    "time": 209.48999700000243,
                    "velocity": 0.6220472440944882,
                    "duration": 0.10623225000000502
                },
                {
                    "name": "G4",
                    "midi": 67,
                    "time": 209.59622925000244,
                    "velocity": 0.5433070866141733,
                    "duration": 0.10623225000000502
                },
                {
                    "name": "F3",
                    "midi": 53,
                    "time": 209.70246150000244,
                    "velocity": 0.6141732283464567,
                    "duration": 0.10623225000000502
                },
                {
                    "name": "F4",
                    "midi": 65,
                    "time": 209.80869375000245,
                    "velocity": 0.5118110236220472,
                    "duration": 0.10623225000000502
                },
                {
                    "name": "E3",
                    "midi": 52,
                    "time": 209.91492600000245,
                    "velocity": 0.6220472440944882,
                    "duration": 0.10623225000000502
                },
                {
                    "name": "E4",
                    "midi": 64,
                    "time": 210.02115825000246,
                    "velocity": 0.5433070866141733,
                    "duration": 0.10623225000000502
                },
                {
                    "name": "D3",
                    "midi": 50,
                    "time": 210.12739050000246,
                    "velocity": 0.6062992125984252,
                    "duration": 0.10623225000000502
                },
                {
                    "name": "D4",
                    "midi": 62,
                    "time": 210.23362275000247,
                    "velocity": 0.5118110236220472,
                    "duration": 0.10623225000000502
                },
                {
                    "name": "C3",
                    "midi": 48,
                    "time": 210.33985500000247,
                    "velocity": 0.6062992125984252,
                    "duration": 0.10623225000000502
                },
                {
                    "name": "C4",
                    "midi": 60,
                    "time": 210.44608725000248,
                    "velocity": 0.5275590551181102,
                    "duration": 0.10623225000000502
                },
                {
                    "name": "E3",
                    "midi": 52,
                    "time": 210.55231950000248,
                    "velocity": 0.5905511811023622,
                    "duration": 0.10623225000000502
                },
                {
                    "name": "E4",
                    "midi": 64,
                    "time": 210.6585517500025,
                    "velocity": 0.5196850393700787,
                    "duration": 0.10623225000000502
                },
                {
                    "name": "F4",
                    "midi": 65,
                    "time": 210.7647840000025,
                    "velocity": 0.6220472440944882,
                    "duration": 0.4249289999999917
                },
                {
                    "name": "F3",
                    "midi": 53,
                    "time": 210.7647840000025,
                    "velocity": 0.6220472440944882,
                    "duration": 0.4249289999999917
                },
                {
                    "name": "C4",
                    "midi": 60,
                    "time": 211.61464200000248,
                    "velocity": 0.31496062992125984,
                    "duration": 0.8498580000000118
                },
                {
                    "name": "A3",
                    "midi": 57,
                    "time": 211.61464200000248,
                    "velocity": 0.2677165354330709,
                    "duration": 0.8498580000000118
                },
                {
                    "name": "F3",
                    "midi": 53,
                    "time": 212.25203550000248,
                    "velocity": 0.30708661417322836,
                    "duration": 0.21246450000001005
                },
                {
                    "name": "C#4",
                    "midi": 61,
                    "time": 212.4645000000025,
                    "velocity": 0.36220472440944884,
                    "duration": 0.8498580000000118
                },
                {
                    "name": "A#3",
                    "midi": 58,
                    "time": 212.4645000000025,
                    "velocity": 0.30708661417322836,
                    "duration": 0.8498580000000118
                },
                {
                    "name": "G#3",
                    "midi": 56,
                    "time": 213.1018935000025,
                    "velocity": 0.31496062992125984,
                    "duration": 0.21246450000001005
                },
                {
                    "name": "C4",
                    "midi": 60,
                    "time": 213.3143580000025,
                    "velocity": 0.25196850393700787,
                    "duration": 0.4249290000000201
                },
                {
                    "name": "A#3",
                    "midi": 58,
                    "time": 213.3143580000025,
                    "velocity": 0.25196850393700787,
                    "duration": 0.4249290000000201
                },
                {
                    "name": "F#3",
                    "midi": 54,
                    "time": 213.3143580000025,
                    "velocity": 0.3543307086614173,
                    "duration": 0.21246450000001005
                },
                {
                    "name": "F3",
                    "midi": 53,
                    "time": 213.5268225000025,
                    "velocity": 0.31496062992125984,
                    "duration": 0.21246450000001005
                },
                {
                    "name": "C4",
                    "midi": 60,
                    "time": 213.73928700000252,
                    "velocity": 0.25984251968503935,
                    "duration": 0.4249290000000201
                },
                {
                    "name": "A#3",
                    "midi": 58,
                    "time": 213.73928700000252,
                    "velocity": 0.25984251968503935,
                    "duration": 0.4249290000000201
                },
                {
                    "name": "F#3",
                    "midi": 54,
                    "time": 213.73928700000252,
                    "velocity": 0.36220472440944884,
                    "duration": 0.21246450000001005
                },
                {
                    "name": "E3",
                    "midi": 52,
                    "time": 213.95175150000253,
                    "velocity": 0.31496062992125984,
                    "duration": 0.21246450000001005
                },
                {
                    "name": "C4",
                    "midi": 60,
                    "time": 214.16421600000254,
                    "velocity": 0.36220472440944884,
                    "duration": 0.6373935000000017
                },
                {
                    "name": "A3",
                    "midi": 57,
                    "time": 214.16421600000254,
                    "velocity": 0.30708661417322836,
                    "duration": 0.6373935000000017
                },
                {
                    "name": "F3",
                    "midi": 53,
                    "time": 214.16421600000254,
                    "velocity": 0.30708661417322836,
                    "duration": 0.6373935000000017
                },
                {
                    "name": "A4",
                    "midi": 69,
                    "time": 215.01407400000255,
                    "velocity": 0.4094488188976378,
                    "duration": 0.6373935000000017
                },
                {
                    "name": "C4",
                    "midi": 60,
                    "time": 215.01407400000255,
                    "velocity": 0.4094488188976378,
                    "duration": 0.8498580000000118
                },
                {
                    "name": "A3",
                    "midi": 57,
                    "time": 215.01407400000255,
                    "velocity": 0.3464566929133858,
                    "duration": 0.8498580000000118
                },
                {
                    "name": "F4",
                    "midi": 65,
                    "time": 215.65146750000255,
                    "velocity": 0.3937007874015748,
                    "duration": 0.21246450000001005
                },
                {
                    "name": "A#4",
                    "midi": 70,
                    "time": 215.86393200000256,
                    "velocity": 0.4094488188976378,
                    "duration": 0.6373935000000017
                },
                {
                    "name": "C#4",
                    "midi": 61,
                    "time": 215.86393200000256,
                    "velocity": 0.4645669291338583,
                    "duration": 0.8498580000000118
                },
                {
                    "name": "A#3",
                    "midi": 58,
                    "time": 215.86393200000256,
                    "velocity": 0.3937007874015748,
                    "duration": 0.8498580000000118
                },
                {
                    "name": "G#4",
                    "midi": 68,
                    "time": 216.50132550000257,
                    "velocity": 0.4094488188976378,
                    "duration": 0.21246450000001005
                },
                {
                    "name": "C#4",
                    "midi": 61,
                    "time": 216.71379000000258,
                    "velocity": 0.3228346456692913,
                    "duration": 0.4249290000000201
                },
                {
                    "name": "A#3",
                    "midi": 58,
                    "time": 216.71379000000258,
                    "velocity": 0.3228346456692913,
                    "duration": 0.4249290000000201
                },
                {
                    "name": "F#4",
                    "midi": 66,
                    "time": 216.71379000000258,
                    "velocity": 0.4566929133858268,
                    "duration": 0.21246450000001005
                },
                {
                    "name": "F4",
                    "midi": 65,
                    "time": 216.92625450000259,
                    "velocity": 0.4094488188976378,
                    "duration": 0.21246450000001005
                },
                {
                    "name": "C#4",
                    "midi": 61,
                    "time": 217.1387190000026,
                    "velocity": 0.33070866141732286,
                    "duration": 0.4249290000000201
                },
                {
                    "name": "A#3",
                    "midi": 58,
                    "time": 217.1387190000026,
                    "velocity": 0.33070866141732286,
                    "duration": 0.4249290000000201
                },
                {
                    "name": "F#4",
                    "midi": 66,
                    "time": 217.1387190000026,
                    "velocity": 0.4645669291338583,
                    "duration": 0.21246450000001005
                },
                {
                    "name": "E4",
                    "midi": 64,
                    "time": 217.3511835000026,
                    "velocity": 0.4094488188976378,
                    "duration": 0.21246450000001005
                },
                {
                    "name": "F4",
                    "midi": 65,
                    "time": 217.56364800000262,
                    "velocity": 0.4645669291338583,
                    "duration": 0.6373935000000017
                },
                {
                    "name": "C4",
                    "midi": 60,
                    "time": 217.56364800000262,
                    "velocity": 0.3937007874015748,
                    "duration": 0.6373935000000017
                },
                {
                    "name": "A3",
                    "midi": 57,
                    "time": 217.56364800000262,
                    "velocity": 0.3937007874015748,
                    "duration": 0.6373935000000017
                },
                {
                    "name": "C#4",
                    "midi": 61,
                    "time": 218.41350600000263,
                    "velocity": 0.29133858267716534,
                    "duration": 0.4249290000000201
                },
                {
                    "name": "A#3",
                    "midi": 58,
                    "time": 218.41350600000263,
                    "velocity": 0.29133858267716534,
                    "duration": 0.4249290000000201
                },
                {
                    "name": "G4",
                    "midi": 67,
                    "time": 218.41350600000263,
                    "velocity": 0.41732283464566927,
                    "duration": 0.21246450000001005
                },
                {
                    "name": "F4",
                    "midi": 65,
                    "time": 218.62597050000264,
                    "velocity": 0.36220472440944884,
                    "duration": 0.21246450000001005
                },
                {
                    "name": "C#4",
                    "midi": 61,
                    "time": 218.83843500000265,
                    "velocity": 0.28346456692913385,
                    "duration": 0.4249290000000201
                },
                {
                    "name": "A#3",
                    "midi": 58,
                    "time": 218.83843500000265,
                    "velocity": 0.28346456692913385,
                    "duration": 0.4249290000000201
                },
                {
                    "name": "G4",
                    "midi": 67,
                    "time": 218.83843500000265,
                    "velocity": 0.4015748031496063,
                    "duration": 0.21246450000001005
                },
                {
                    "name": "E4",
                    "midi": 64,
                    "time": 219.05089950000266,
                    "velocity": 0.3464566929133858,
                    "duration": 0.21246450000001005
                },
                {
                    "name": "F4",
                    "midi": 65,
                    "time": 219.26336400000267,
                    "velocity": 0.3858267716535433,
                    "duration": 0.6373935000000017
                },
                {
                    "name": "C4",
                    "midi": 60,
                    "time": 219.26336400000267,
                    "velocity": 0.33070866141732286,
                    "duration": 0.6373935000000017
                },
                {
                    "name": "A3",
                    "midi": 57,
                    "time": 219.26336400000267,
                    "velocity": 0.33070866141732286,
                    "duration": 0.6373935000000017
                },
                {
                    "name": "C#4",
                    "midi": 61,
                    "time": 220.11322200000268,
                    "velocity": 0.23622047244094488,
                    "duration": 0.4249290000000201
                },
                {
                    "name": "A#3",
                    "midi": 58,
                    "time": 220.11322200000268,
                    "velocity": 0.23622047244094488,
                    "duration": 0.4249290000000201
                },
                {
                    "name": "F#4",
                    "midi": 66,
                    "time": 220.11322200000268,
                    "velocity": 0.33858267716535434,
                    "duration": 0.21246450000001005
                },
                {
                    "name": "F4",
                    "midi": 65,
                    "time": 220.3256865000027,
                    "velocity": 0.30708661417322836,
                    "duration": 0.21246450000001005
                },
                {
                    "name": "C#4",
                    "midi": 61,
                    "time": 220.5381510000027,
                    "velocity": 0.2440944881889764,
                    "duration": 0.4249290000000201
                },
                {
                    "name": "A#3",
                    "midi": 58,
                    "time": 220.5381510000027,
                    "velocity": 0.2440944881889764,
                    "duration": 0.4249290000000201
                },
                {
                    "name": "F#4",
                    "midi": 66,
                    "time": 220.5381510000027,
                    "velocity": 0.3464566929133858,
                    "duration": 0.21246450000001005
                },
                {
                    "name": "E4",
                    "midi": 64,
                    "time": 220.7506155000027,
                    "velocity": 0.30708661417322836,
                    "duration": 0.21246450000001005
                },
                {
                    "name": "F3",
                    "midi": 53,
                    "time": 220.96308000000272,
                    "velocity": 0.5826771653543307,
                    "duration": 0.6373935000000017
                },
                {
                    "name": "F4",
                    "midi": 65,
                    "time": 220.96308000000272,
                    "velocity": 0.6929133858267716,
                    "duration": 0.6373935000000017
                },
                {
                    "name": "G3",
                    "midi": 55,
                    "time": 221.60047350000272,
                    "velocity": 0.5275590551181102,
                    "duration": 0.10623225000000502
                },
                {
                    "name": "G4",
                    "midi": 67,
                    "time": 221.60047350000272,
                    "velocity": 0.6220472440944882,
                    "duration": 0.10623225000000502
                },
                {
                    "name": "A3",
                    "midi": 57,
                    "time": 221.81293800000273,
                    "velocity": 0.5826771653543307,
                    "duration": 0.6373935000000017
                },
                {
                    "name": "A4",
                    "midi": 69,
                    "time": 221.81293800000273,
                    "velocity": 0.7007874015748031,
                    "duration": 0.6373935000000017
                },
                {
                    "name": "A#3",
                    "midi": 58,
                    "time": 222.45033150000273,
                    "velocity": 0.5354330708661418,
                    "duration": 0.10623225000000502
                },
                {
                    "name": "A#4",
                    "midi": 70,
                    "time": 222.45033150000273,
                    "velocity": 0.6377952755905512,
                    "duration": 0.10623225000000502
                },
                {
                    "name": "C4",
                    "midi": 60,
                    "time": 222.66279600000274,
                    "velocity": 0.6062992125984252,
                    "duration": 0.6373935000000017
                },
                {
                    "name": "C5",
                    "midi": 72,
                    "time": 222.66279600000274,
                    "velocity": 0.7165354330708661,
                    "duration": 0.6373935000000017
                },
                {
                    "name": "D4",
                    "midi": 62,
                    "time": 223.30018950000274,
                    "velocity": 0.4881889763779528,
                    "duration": 0.10623225000000502
                },
                {
                    "name": "D5",
                    "midi": 74,
                    "time": 223.30018950000274,
                    "velocity": 0.5826771653543307,
                    "duration": 0.10623225000000502
                },
                {
                    "name": "E4",
                    "midi": 64,
                    "time": 223.51265400000275,
                    "velocity": 0.5590551181102362,
                    "duration": 0.10623225000000502
                },
                {
                    "name": "E5",
                    "midi": 76,
                    "time": 223.51265400000275,
                    "velocity": 0.6614173228346457,
                    "duration": 0.10623225000000502
                },
                {
                    "name": "F4",
                    "midi": 65,
                    "time": 223.72511850000276,
                    "velocity": 0.5354330708661418,
                    "duration": 0.10623225000000502
                },
                {
                    "name": "F5",
                    "midi": 77,
                    "time": 223.72511850000276,
                    "velocity": 0.6377952755905512,
                    "duration": 0.10623225000000502
                },
                {
                    "name": "G4",
                    "midi": 67,
                    "time": 223.93758300000277,
                    "velocity": 0.5826771653543307,
                    "duration": 0.10623225000000502
                },
                {
                    "name": "G5",
                    "midi": 79,
                    "time": 223.93758300000277,
                    "velocity": 0.6850393700787402,
                    "duration": 0.10623225000000502
                },
                {
                    "name": "A4",
                    "midi": 69,
                    "time": 224.15004750000278,
                    "velocity": 0.5433070866141733,
                    "duration": 0.10623225000000502
                },
                {
                    "name": "A5",
                    "midi": 81,
                    "time": 224.15004750000278,
                    "velocity": 0.6535433070866141,
                    "duration": 0.10623225000000502
                },
                {
                    "name": "A#4",
                    "midi": 70,
                    "time": 224.3625120000028,
                    "velocity": 0.6377952755905512,
                    "duration": 0.6373935000000017
                },
                {
                    "name": "A#5",
                    "midi": 82,
                    "time": 224.3625120000028,
                    "velocity": 0.7559055118110236,
                    "duration": 0.6373935000000017
                },
                {
                    "name": "A4",
                    "midi": 69,
                    "time": 224.9999055000028,
                    "velocity": 0.5590551181102362,
                    "duration": 0.10623225000000502
                },
                {
                    "name": "A5",
                    "midi": 81,
                    "time": 224.9999055000028,
                    "velocity": 0.6614173228346457,
                    "duration": 0.10623225000000502
                },
                {
                    "name": "G4",
                    "midi": 67,
                    "time": 225.2123700000028,
                    "velocity": 0.6141732283464567,
                    "duration": 0.6373935000000017
                },
                {
                    "name": "G5",
                    "midi": 79,
                    "time": 225.2123700000028,
                    "velocity": 0.7401574803149606,
                    "duration": 0.6373935000000017
                },
                {
                    "name": "F4",
                    "midi": 65,
                    "time": 225.8497635000028,
                    "velocity": 0.5511811023622047,
                    "duration": 0.10623225000000502
                },
                {
                    "name": "F5",
                    "midi": 77,
                    "time": 225.8497635000028,
                    "velocity": 0.6535433070866141,
                    "duration": 0.10623225000000502
                },
                {
                    "name": "E4",
                    "midi": 64,
                    "time": 226.06222800000282,
                    "velocity": 0.6141732283464567,
                    "duration": 0.6373935000000017
                },
                {
                    "name": "E5",
                    "midi": 76,
                    "time": 226.06222800000282,
                    "velocity": 0.7244094488188977,
                    "duration": 0.6373935000000017
                },
                {
                    "name": "D4",
                    "midi": 62,
                    "time": 226.69962150000282,
                    "velocity": 0.4881889763779528,
                    "duration": 0.10623225000000502
                },
                {
                    "name": "D5",
                    "midi": 74,
                    "time": 226.69962150000282,
                    "velocity": 0.5826771653543307,
                    "duration": 0.10623225000000502
                },
                {
                    "name": "C4",
                    "midi": 60,
                    "time": 226.91208600000283,
                    "velocity": 0.5511811023622047,
                    "duration": 0.10623225000000502
                },
                {
                    "name": "C5",
                    "midi": 72,
                    "time": 226.91208600000283,
                    "velocity": 0.6535433070866141,
                    "duration": 0.10623225000000502
                },
                {
                    "name": "A#3",
                    "midi": 58,
                    "time": 227.12455050000284,
                    "velocity": 0.5196850393700787,
                    "duration": 0.10623225000000502
                },
                {
                    "name": "A#4",
                    "midi": 70,
                    "time": 227.12455050000284,
                    "velocity": 0.6141732283464567,
                    "duration": 0.10623225000000502
                },
                {
                    "name": "A3",
                    "midi": 57,
                    "time": 227.33701500000285,
                    "velocity": 0.5511811023622047,
                    "duration": 0.10623225000000502
                },
                {
                    "name": "A4",
                    "midi": 69,
                    "time": 227.33701500000285,
                    "velocity": 0.6535433070866141,
                    "duration": 0.10623225000000502
                },
                {
                    "name": "G3",
                    "midi": 55,
                    "time": 227.54947950000286,
                    "velocity": 0.5039370078740157,
                    "duration": 0.10623225000000502
                },
                {
                    "name": "G4",
                    "midi": 67,
                    "time": 227.54947950000286,
                    "velocity": 0.6062992125984252,
                    "duration": 0.10623225000000502
                },
                {
                    "name": "F3",
                    "midi": 53,
                    "time": 227.76194400000287,
                    "velocity": 0.6141732283464567,
                    "duration": 0.10623225000000502
                },
                {
                    "name": "F4",
                    "midi": 65,
                    "time": 227.76194400000287,
                    "velocity": 0.7086614173228346,
                    "duration": 0.10623225000000502
                },
                {
                    "name": "E4",
                    "midi": 64,
                    "time": 228.18687300000286,
                    "velocity": 0.41732283464566927,
                    "duration": 0.10623225000000502
                },
                {
                    "name": "D#4",
                    "midi": 63,
                    "time": 228.29310525000287,
                    "velocity": 0.3543307086614173,
                    "duration": 0.10623225000000502
                },
                {
                    "name": "E4",
                    "midi": 64,
                    "time": 228.39933750000287,
                    "velocity": 0.41732283464566927,
                    "duration": 0.10623225000000502
                },
                {
                    "name": "C4",
                    "midi": 60,
                    "time": 228.50556975000288,
                    "velocity": 0.33858267716535434,
                    "duration": 0.10623225000000502
                },
                {
                    "name": "F4",
                    "midi": 65,
                    "time": 228.61180200000288,
                    "velocity": 0.44881889763779526,
                    "duration": 0.10623225000000502
                },
                {
                    "name": "E5",
                    "midi": 76,
                    "time": 229.03673100000287,
                    "velocity": 0.41732283464566927,
                    "duration": 0.10623225000000502
                },
                {
                    "name": "D#5",
                    "midi": 75,
                    "time": 229.14296325000288,
                    "velocity": 0.3543307086614173,
                    "duration": 0.10623225000000502
                },
                {
                    "name": "E5",
                    "midi": 76,
                    "time": 229.24919550000288,
                    "velocity": 0.41732283464566927,
                    "duration": 0.10623225000000502
                },
                {
                    "name": "C5",
                    "midi": 72,
                    "time": 229.3554277500029,
                    "velocity": 0.33858267716535434,
                    "duration": 0.10623225000000502
                },
                {
                    "name": "F5",
                    "midi": 77,
                    "time": 229.4616600000029,
                    "velocity": 0.44881889763779526,
                    "duration": 0.10623225000000502
                },
                {
                    "name": "E6",
                    "midi": 88,
                    "time": 230.3115180000029,
                    "velocity": 0.7165354330708661,
                    "duration": 0.4249289999999917
                },
                {
                    "name": "C6",
                    "midi": 84,
                    "time": 230.3115180000029,
                    "velocity": 0.6062992125984252,
                    "duration": 0.4249289999999917
                },
                {
                    "name": "A#5",
                    "midi": 82,
                    "time": 230.3115180000029,
                    "velocity": 0.6062992125984252,
                    "duration": 0.4249289999999917
                },
                {
                    "name": "G5",
                    "midi": 79,
                    "time": 230.3115180000029,
                    "velocity": 0.6062992125984252,
                    "duration": 0.4249289999999917
                },
                {
                    "name": "E5",
                    "midi": 76,
                    "time": 230.3115180000029,
                    "velocity": 0.6062992125984252,
                    "duration": 0.4249289999999917
                },
                {
                    "name": "F6",
                    "midi": 89,
                    "time": 231.1613760000029,
                    "velocity": 0.7637795275590551,
                    "duration": 0.4249289999999917
                },
                {
                    "name": "C6",
                    "midi": 84,
                    "time": 231.1613760000029,
                    "velocity": 0.6456692913385826,
                    "duration": 0.4249289999999917
                },
                {
                    "name": "A5",
                    "midi": 81,
                    "time": 231.1613760000029,
                    "velocity": 0.6456692913385826,
                    "duration": 0.4249289999999917
                },
                {
                    "name": "F5",
                    "midi": 77,
                    "time": 231.1613760000029,
                    "velocity": 0.6456692913385826,
                    "duration": 0.4249289999999917
                },
                {
                    "name": "C4",
                    "midi": 60,
                    "time": 232.4361630000029,
                    "velocity": 0.33070866141732286,
                    "duration": 0.10623225000000502
                },
                {
                    "name": "B3",
                    "midi": 59,
                    "time": 232.5423952500029,
                    "velocity": 0.31496062992125984,
                    "duration": 0.10623225000000502
                },
                {
                    "name": "C4",
                    "midi": 60,
                    "time": 232.6486275000029,
                    "velocity": 0.3543307086614173,
                    "duration": 0.10623225000000502
                },
                {
                    "name": "A3",
                    "midi": 57,
                    "time": 232.7548597500029,
                    "velocity": 0.30708661417322836,
                    "duration": 0.10623225000000502
                },
                {
                    "name": "F4",
                    "midi": 65,
                    "time": 232.8610920000029,
                    "velocity": 0.3937007874015748,
                    "duration": 0.10623225000000502
                },
                {
                    "name": "C4",
                    "midi": 60,
                    "time": 234.13587900000292,
                    "velocity": 0.33070866141732286,
                    "duration": 0.10623225000000502
                },
                {
                    "name": "B3",
                    "midi": 59,
                    "time": 234.24211125000292,
                    "velocity": 0.31496062992125984,
                    "duration": 0.10623225000000502
                },
                {
                    "name": "C4",
                    "midi": 60,
                    "time": 234.34834350000293,
                    "velocity": 0.3543307086614173,
                    "duration": 0.10623225000000502
                },
                {
                    "name": "A3",
                    "midi": 57,
                    "time": 234.45457575000293,
                    "velocity": 0.30708661417322836,
                    "duration": 0.10623225000000502
                },
                {
                    "name": "F4",
                    "midi": 65,
                    "time": 234.56080800000294,
                    "velocity": 0.3937007874015748,
                    "duration": 0.10623225000000502
                },
                {
                    "name": "C4",
                    "midi": 60,
                    "time": 235.83559500000294,
                    "velocity": 0.5511811023622047,
                    "duration": 0.10623225000000502
                },
                {
                    "name": "B3",
                    "midi": 59,
                    "time": 235.94182725000294,
                    "velocity": 0.5196850393700787,
                    "duration": 0.10623225000000502
                },
                {
                    "name": "C4",
                    "midi": 60,
                    "time": 236.04805950000295,
                    "velocity": 0.6062992125984252,
                    "duration": 0.10623225000000502
                },
                {
                    "name": "A3",
                    "midi": 57,
                    "time": 236.15429175000295,
                    "velocity": 0.5590551181102362,
                    "duration": 0.10623225000000502
                },
                {
                    "name": "F4",
                    "midi": 65,
                    "time": 236.26052400000296,
                    "velocity": 0.7244094488188977,
                    "duration": 0.6373935000000017
                },
                {
                    "name": "G4",
                    "midi": 67,
                    "time": 236.89791750000296,
                    "velocity": 0.6456692913385826,
                    "duration": 0.10623225000000502
                },
                {
                    "name": "A4",
                    "midi": 69,
                    "time": 237.11038200000297,
                    "velocity": 0.7322834645669292,
                    "duration": 0.6373935000000017
                },
                {
                    "name": "A#4",
                    "midi": 70,
                    "time": 237.74777550000297,
                    "velocity": 0.6771653543307087,
                    "duration": 0.10623225000000502
                },
                {
                    "name": "C5",
                    "midi": 72,
                    "time": 237.96024000000298,
                    "velocity": 0.7637795275590551,
                    "duration": 0.6373935000000017
                },
                {
                    "name": "D5",
                    "midi": 74,
                    "time": 238.59763350000298,
                    "velocity": 0.6456692913385826,
                    "duration": 0.10623225000000502
                },
                {
                    "name": "D#5",
                    "midi": 75,
                    "time": 238.810098000003,
                    "velocity": 0.7086614173228346,
                    "duration": 0.10623225000000502
                },
                {
                    "name": "D5",
                    "midi": 74,
                    "time": 239.022562500003,
                    "velocity": 0.6692913385826772,
                    "duration": 0.10623225000000502
                },
                {
                    "name": "C5",
                    "midi": 72,
                    "time": 239.23502700000302,
                    "velocity": 0.7322834645669292,
                    "duration": 0.10623225000000502
                },
                {
                    "name": "D5",
                    "midi": 74,
                    "time": 239.44749150000303,
                    "velocity": 0.6771653543307087,
                    "duration": 0.10623225000000502
                },
                {
                    "name": "D#5",
                    "midi": 75,
                    "time": 239.65995600000304,
                    "velocity": 0.7637795275590551,
                    "duration": 0.6373935000000017
                },
                {
                    "name": "D5",
                    "midi": 74,
                    "time": 240.29734950000304,
                    "velocity": 0.6062992125984252,
                    "duration": 0.10623225000000502
                },
                {
                    "name": "C5",
                    "midi": 72,
                    "time": 240.50981400000305,
                    "velocity": 0.6692913385826772,
                    "duration": 0.10623225000000502
                },
                {
                    "name": "A#4",
                    "midi": 70,
                    "time": 240.72227850000306,
                    "velocity": 0.6299212598425197,
                    "duration": 0.10623225000000502
                },
                {
                    "name": "A4",
                    "midi": 69,
                    "time": 240.93474300000307,
                    "velocity": 0.6929133858267716,
                    "duration": 0.10623225000000502
                },
                {
                    "name": "A#4",
                    "midi": 70,
                    "time": 241.14720750000308,
                    "velocity": 0.6377952755905512,
                    "duration": 0.10623225000000502
                },
                {
                    "name": "C5",
                    "midi": 72,
                    "time": 241.3596720000031,
                    "velocity": 0.7244094488188977,
                    "duration": 0.6373935000000017
                },
                {
                    "name": "A#4",
                    "midi": 70,
                    "time": 241.9970655000031,
                    "velocity": 0.5984251968503937,
                    "duration": 0.10623225000000502
                },
                {
                    "name": "A4",
                    "midi": 69,
                    "time": 242.2095300000031,
                    "velocity": 0.6377952755905512,
                    "duration": 0.10623225000000502
                },
                {
                    "name": "G4",
                    "midi": 67,
                    "time": 242.4219945000031,
                    "velocity": 0.5826771653543307,
                    "duration": 0.10623225000000502
                },
                {
                    "name": "F#4",
                    "midi": 66,
                    "time": 242.63445900000312,
                    "velocity": 0.6220472440944882,
                    "duration": 0.10623225000000502
                },
                {
                    "name": "E4",
                    "midi": 64,
                    "time": 242.84692350000313,
                    "velocity": 0.5590551181102362,
                    "duration": 0.10623225000000502
                },
                {
                    "name": "D4",
                    "midi": 62,
                    "time": 243.05938800000314,
                    "velocity": 0.5905511811023622,
                    "duration": 0.8498580000000118
                },
                {
                    "name": "A3",
                    "midi": 57,
                    "time": 243.90924600000315,
                    "velocity": 0.31496062992125984,
                    "duration": 0.8498580000000118
                },
                {
                    "name": "C4",
                    "midi": 60,
                    "time": 243.90924600000315,
                    "velocity": 0.31496062992125984,
                    "duration": 0.8498580000000118
                },
                {
                    "name": "F#4",
                    "midi": 66,
                    "time": 243.90924600000315,
                    "velocity": 0.2677165354330709,
                    "duration": 0.6373935000000017
                },
                {
                    "name": "D4",
                    "midi": 62,
                    "time": 244.54663950000315,
                    "velocity": 0.30708661417322836,
                    "duration": 0.21246450000001005
                },
                {
                    "name": "G3",
                    "midi": 55,
                    "time": 244.75910400000316,
                    "velocity": 0.30708661417322836,
                    "duration": 0.8498580000000118
                },
                {
                    "name": "G4",
                    "midi": 67,
                    "time": 244.75910400000316,
                    "velocity": 0.36220472440944884,
                    "duration": 0.6373935000000017
                },
                {
                    "name": "A#3",
                    "midi": 58,
                    "time": 244.75910400000316,
                    "velocity": 0.30708661417322836,
                    "duration": 0.8498580000000118
                },
                {
                    "name": "F4",
                    "midi": 65,
                    "time": 245.39649750000316,
                    "velocity": 0.31496062992125984,
                    "duration": 0.21246450000001005
                },
                {
                    "name": "A#3",
                    "midi": 58,
                    "time": 245.60896200000317,
                    "velocity": 0.25196850393700787,
                    "duration": 0.4249290000000201
                },
                {
                    "name": "G3",
                    "midi": 55,
                    "time": 245.60896200000317,
                    "velocity": 0.25196850393700787,
                    "duration": 0.4249290000000201
                },
                {
                    "name": "D#4",
                    "midi": 63,
                    "time": 245.60896200000317,
                    "velocity": 0.3543307086614173,
                    "duration": 0.21246450000001005
                },
                {
                    "name": "D4",
                    "midi": 62,
                    "time": 245.82142650000318,
                    "velocity": 0.31496062992125984,
                    "duration": 0.21246450000001005
                },
                {
                    "name": "A#3",
                    "midi": 58,
                    "time": 246.0338910000032,
                    "velocity": 0.25984251968503935,
                    "duration": 0.4249290000000201
                },
                {
                    "name": "G3",
                    "midi": 55,
                    "time": 246.0338910000032,
                    "velocity": 0.25984251968503935,
                    "duration": 0.4249290000000201
                },
                {
                    "name": "D#4",
                    "midi": 63,
                    "time": 246.0338910000032,
                    "velocity": 0.36220472440944884,
                    "duration": 0.21246450000001005
                },
                {
                    "name": "C#4",
                    "midi": 61,
                    "time": 246.2463555000032,
                    "velocity": 0.31496062992125984,
                    "duration": 0.21246450000001005
                },
                {
                    "name": "D4",
                    "midi": 62,
                    "time": 246.45882000000321,
                    "velocity": 0.36220472440944884,
                    "duration": 0.6373935000000017
                },
                {
                    "name": "A3",
                    "midi": 57,
                    "time": 246.45882000000321,
                    "velocity": 0.30708661417322836,
                    "duration": 0.6373935000000017
                },
                {
                    "name": "F#3",
                    "midi": 54,
                    "time": 246.45882000000321,
                    "velocity": 0.30708661417322836,
                    "duration": 0.6373935000000017
                },
                {
                    "name": "F#5",
                    "midi": 78,
                    "time": 247.30867800000323,
                    "velocity": 0.3228346456692913,
                    "duration": 0.6373935000000017
                },
                {
                    "name": "A4",
                    "midi": 69,
                    "time": 247.30867800000323,
                    "velocity": 0.31496062992125984,
                    "duration": 0.8498580000000118
                },
                {
                    "name": "C5",
                    "midi": 72,
                    "time": 247.30867800000323,
                    "velocity": 0.31496062992125984,
                    "duration": 0.8498580000000118
                },
                {
                    "name": "D5",
                    "midi": 74,
                    "time": 247.94607150000323,
                    "velocity": 0.33070866141732286,
                    "duration": 0.21246450000001005
                },
                {
                    "name": "G5",
                    "midi": 79,
                    "time": 248.15853600000324,
                    "velocity": 0.41732283464566927,
                    "duration": 0.6373935000000017
                },
                {
                    "name": "G4",
                    "midi": 67,
                    "time": 248.15853600000324,
                    "velocity": 0.30708661417322836,
                    "duration": 0.8498580000000118
                },
                {
                    "name": "A#4",
                    "midi": 70,
                    "time": 248.15853600000324,
                    "velocity": 0.30708661417322836,
                    "duration": 0.8498580000000118
                },
                {
                    "name": "F5",
                    "midi": 77,
                    "time": 248.79592950000324,
                    "velocity": 0.3464566929133858,
                    "duration": 0.21246450000001005
                },
                {
                    "name": "A#4",
                    "midi": 70,
                    "time": 249.00839400000325,
                    "velocity": 0.25196850393700787,
                    "duration": 0.4249290000000201
                },
                {
                    "name": "G4",
                    "midi": 67,
                    "time": 249.00839400000325,
                    "velocity": 0.25196850393700787,
                    "duration": 0.4249290000000201
                },
                {
                    "name": "D#5",
                    "midi": 75,
                    "time": 249.00839400000325,
                    "velocity": 0.3858267716535433,
                    "duration": 0.21246450000001005
                },
                {
                    "name": "D5",
                    "midi": 74,
                    "time": 249.22085850000326,
                    "velocity": 0.3464566929133858,
                    "duration": 0.21246450000001005
                },
                {
                    "name": "A#4",
                    "midi": 70,
                    "time": 249.43332300000327,
                    "velocity": 0.25984251968503935,
                    "duration": 0.4249290000000201
                },
                {
                    "name": "G4",
                    "midi": 67,
                    "time": 249.43332300000327,
                    "velocity": 0.25984251968503935,
                    "duration": 0.4249290000000201
                },
                {
                    "name": "D#5",
                    "midi": 75,
                    "time": 249.43332300000327,
                    "velocity": 0.3937007874015748,
                    "duration": 0.21246450000001005
                },
                {
                    "name": "C#5",
                    "midi": 73,
                    "time": 249.64578750000328,
                    "velocity": 0.3464566929133858,
                    "duration": 0.21246450000001005
                },
                {
                    "name": "D5",
                    "midi": 74,
                    "time": 249.8582520000033,
                    "velocity": 0.3937007874015748,
                    "duration": 0.6373935000000017
                },
                {
                    "name": "A4",
                    "midi": 69,
                    "time": 249.8582520000033,
                    "velocity": 0.30708661417322836,
                    "duration": 0.6373935000000017
                },
                {
                    "name": "F#4",
                    "midi": 66,
                    "time": 249.8582520000033,
                    "velocity": 0.30708661417322836,
                    "duration": 0.6373935000000017
                },
                {
                    "name": "A#4",
                    "midi": 70,
                    "time": 250.7081100000033,
                    "velocity": 0.25196850393700787,
                    "duration": 0.4249290000000201
                },
                {
                    "name": "G4",
                    "midi": 67,
                    "time": 250.7081100000033,
                    "velocity": 0.25196850393700787,
                    "duration": 0.4249290000000201
                },
                {
                    "name": "E5",
                    "midi": 76,
                    "time": 250.7081100000033,
                    "velocity": 0.3858267716535433,
                    "duration": 0.21246450000001005
                },
                {
                    "name": "D5",
                    "midi": 74,
                    "time": 250.9205745000033,
                    "velocity": 0.3464566929133858,
                    "duration": 0.21246450000001005
                },
                {
                    "name": "A#4",
                    "midi": 70,
                    "time": 251.13303900000332,
                    "velocity": 0.25984251968503935,
                    "duration": 0.4249290000000201
                },
                {
                    "name": "G4",
                    "midi": 67,
                    "time": 251.13303900000332,
                    "velocity": 0.25984251968503935,
                    "duration": 0.4249290000000201
                },
                {
                    "name": "E5",
                    "midi": 76,
                    "time": 251.13303900000332,
                    "velocity": 0.3937007874015748,
                    "duration": 0.21246450000001005
                },
                {
                    "name": "C#5",
                    "midi": 73,
                    "time": 251.34550350000333,
                    "velocity": 0.3464566929133858,
                    "duration": 0.21246450000001005
                },
                {
                    "name": "D5",
                    "midi": 74,
                    "time": 251.55796800000334,
                    "velocity": 0.3937007874015748,
                    "duration": 0.6373935000000017
                },
                {
                    "name": "A4",
                    "midi": 69,
                    "time": 251.55796800000334,
                    "velocity": 0.30708661417322836,
                    "duration": 0.6373935000000017
                },
                {
                    "name": "F#4",
                    "midi": 66,
                    "time": 251.55796800000334,
                    "velocity": 0.30708661417322836,
                    "duration": 0.6373935000000017
                },
                {
                    "name": "A#4",
                    "midi": 70,
                    "time": 252.40782600000335,
                    "velocity": 0.1968503937007874,
                    "duration": 0.4249290000000201
                },
                {
                    "name": "G4",
                    "midi": 67,
                    "time": 252.40782600000335,
                    "velocity": 0.1968503937007874,
                    "duration": 0.4249290000000201
                },
                {
                    "name": "D#5",
                    "midi": 75,
                    "time": 252.40782600000335,
                    "velocity": 0.30708661417322836,
                    "duration": 0.21246450000001005
                },
                {
                    "name": "D5",
                    "midi": 74,
                    "time": 252.62029050000336,
                    "velocity": 0.2755905511811024,
                    "duration": 0.21246450000001005
                },
                {
                    "name": "A#4",
                    "midi": 70,
                    "time": 252.83275500000337,
                    "velocity": 0.2047244094488189,
                    "duration": 0.4249290000000201
                },
                {
                    "name": "G4",
                    "midi": 67,
                    "time": 252.83275500000337,
                    "velocity": 0.2047244094488189,
                    "duration": 0.4249290000000201
                },
                {
                    "name": "D#5",
                    "midi": 75,
                    "time": 252.83275500000337,
                    "velocity": 0.31496062992125984,
                    "duration": 0.21246450000001005
                },
                {
                    "name": "C#5",
                    "midi": 73,
                    "time": 253.04521950000338,
                    "velocity": 0.2755905511811024,
                    "duration": 0.21246450000001005
                },
                {
                    "name": "D5",
                    "midi": 74,
                    "time": 253.2576840000034,
                    "velocity": 0.3937007874015748,
                    "duration": 0.6373935000000017
                },
                {
                    "name": "A4",
                    "midi": 69,
                    "time": 253.2576840000034,
                    "velocity": 0.30708661417322836,
                    "duration": 0.6373935000000017
                },
                {
                    "name": "F#4",
                    "midi": 66,
                    "time": 253.2576840000034,
                    "velocity": 0.30708661417322836,
                    "duration": 0.6373935000000017
                },
                {
                    "name": "D#5",
                    "midi": 75,
                    "time": 255.3823290000034,
                    "velocity": 0.6771653543307087,
                    "duration": 0.10623225000000502
                },
                {
                    "name": "D5",
                    "midi": 74,
                    "time": 255.59479350000342,
                    "velocity": 0.5905511811023622,
                    "duration": 0.10623225000000502
                },
                {
                    "name": "C5",
                    "midi": 72,
                    "time": 255.80725800000343,
                    "velocity": 0.6614173228346457,
                    "duration": 0.10623225000000502
                },
                {
                    "name": "A#4",
                    "midi": 70,
                    "time": 256.0197225000034,
                    "velocity": 0.5826771653543307,
                    "duration": 0.10623225000000502
                },
                {
                    "name": "A4",
                    "midi": 69,
                    "time": 256.2321870000034,
                    "velocity": 0.6614173228346457,
                    "duration": 0.10623225000000502
                },
                {
                    "name": "G4",
                    "midi": 67,
                    "time": 256.44465150000343,
                    "velocity": 0.5905511811023622,
                    "duration": 0.10623225000000502
                },
                {
                    "name": "F#4",
                    "midi": 66,
                    "time": 256.65711600000344,
                    "velocity": 0.6614173228346457,
                    "duration": 0.10623225000000502
                },
                {
                    "name": "A5",
                    "midi": 81,
                    "time": 257.08204500000346,
                    "velocity": 0.48031496062992124,
                    "duration": 0.10623225000000502
                },
                {
                    "name": "G#5",
                    "midi": 80,
                    "time": 257.18827725000347,
                    "velocity": 0.3937007874015748,
                    "duration": 0.10623225000000502
                },
                {
                    "name": "A5",
                    "midi": 81,
                    "time": 257.29450950000347,
                    "velocity": 0.4251968503937008,
                    "duration": 0.10623225000000502
                },
                {
                    "name": "F#5",
                    "midi": 78,
                    "time": 257.4007417500035,
                    "velocity": 0.3937007874015748,
                    "duration": 0.10623225000000502
                },
                {
                    "name": "C6",
                    "midi": 84,
                    "time": 257.5069740000035,
                    "velocity": 0.48031496062992124,
                    "duration": 0.10623225000000502
                },
                {
                    "name": "B5",
                    "midi": 83,
                    "time": 257.6132062500035,
                    "velocity": 0.3937007874015748,
                    "duration": 0.10623225000000502
                },
                {
                    "name": "C6",
                    "midi": 84,
                    "time": 257.7194385000035,
                    "velocity": 0.4251968503937008,
                    "duration": 0.10623225000000502
                },
                {
                    "name": "A5",
                    "midi": 81,
                    "time": 257.8256707500035,
                    "velocity": 0.3937007874015748,
                    "duration": 0.10623225000000502
                },
                {
                    "name": "D#6",
                    "midi": 87,
                    "time": 257.9319030000035,
                    "velocity": 0.49606299212598426,
                    "duration": 0.10623225000000502
                },
                {
                    "name": "D6",
                    "midi": 86,
                    "time": 258.0381352500035,
                    "velocity": 0.3937007874015748,
                    "duration": 0.10623225000000502
                },
                {
                    "name": "C6",
                    "midi": 84,
                    "time": 258.1443675000035,
                    "velocity": 0.44881889763779526,
                    "duration": 0.10623225000000502
                },
                {
                    "name": "A#5",
                    "midi": 82,
                    "time": 258.2505997500035,
                    "velocity": 0.3937007874015748,
                    "duration": 0.10623225000000502
                },
                {
                    "name": "A5",
                    "midi": 81,
                    "time": 258.3568320000035,
                    "velocity": 0.4566929133858268,
                    "duration": 0.10623225000000502
                },
                {
                    "name": "A#5",
                    "midi": 82,
                    "time": 258.4630642500035,
                    "velocity": 0.3937007874015748,
                    "duration": 0.10623225000000502
                },
                {
                    "name": "C6",
                    "midi": 84,
                    "time": 258.56929650000353,
                    "velocity": 0.4645669291338583,
                    "duration": 0.10623225000000502
                },
                {
                    "name": "A#5",
                    "midi": 82,
                    "time": 258.67552875000354,
                    "velocity": 0.3858267716535433,
                    "duration": 0.10623225000000502
                },
                {
                    "name": "A5",
                    "midi": 81,
                    "time": 258.78176100000354,
                    "velocity": 0.4566929133858268,
                    "duration": 0.10623225000000502
                },
                {
                    "name": "G5",
                    "midi": 79,
                    "time": 258.88799325000355,
                    "velocity": 0.3937007874015748,
                    "duration": 0.10623225000000502
                },
                {
                    "name": "F#5",
                    "midi": 78,
                    "time": 258.99422550000355,
                    "velocity": 0.4330708661417323,
                    "duration": 0.10623225000000502
                },
                {
                    "name": "G5",
                    "midi": 79,
                    "time": 259.10045775000356,
                    "velocity": 0.3937007874015748,
                    "duration": 0.10623225000000502
                },
                {
                    "name": "A5",
                    "midi": 81,
                    "time": 259.20669000000356,
                    "velocity": 0.47244094488188976,
                    "duration": 0.10623225000000502
                },
                {
                    "name": "G5",
                    "midi": 79,
                    "time": 259.31292225000357,
                    "velocity": 0.3700787401574803,
                    "duration": 0.10623225000000502
                },
                {
                    "name": "F#5",
                    "midi": 78,
                    "time": 259.4191545000036,
                    "velocity": 0.41732283464566927,
                    "duration": 0.10623225000000502
                },
                {
                    "name": "D#5",
                    "midi": 75,
                    "time": 259.5253867500036,
                    "velocity": 0.36220472440944884,
                    "duration": 0.10623225000000502
                },
                {
                    "name": "D5",
                    "midi": 74,
                    "time": 259.6316190000036,
                    "velocity": 0.5039370078740157,
                    "duration": 0.10623225000000502
                },
                {
                    "name": "C5",
                    "midi": 72,
                    "time": 259.7378512500036,
                    "velocity": 0.4015748031496063,
                    "duration": 0.10623225000000502
                },
                {
                    "name": "B4",
                    "midi": 71,
                    "time": 259.8440835000036,
                    "velocity": 0.44881889763779526,
                    "duration": 0.10623225000000502
                },
                {
                    "name": "C5",
                    "midi": 72,
                    "time": 259.9503157500036,
                    "velocity": 0.4094488188976378,
                    "duration": 0.10623225000000502
                },
                {
                    "name": "B4",
                    "midi": 71,
                    "time": 260.0565480000036,
                    "velocity": 0.5669291338582677,
                    "duration": 0.4249290000000201
                },
                {
                    "name": "G#5",
                    "midi": 80,
                    "time": 262.18119300000365,
                    "velocity": 0.6377952755905512,
                    "duration": 0.10623225000000502
                },
                {
                    "name": "G5",
                    "midi": 79,
                    "time": 262.39365750000366,
                    "velocity": 0.5905511811023622,
                    "duration": 0.10623225000000502
                },
                {
                    "name": "F5",
                    "midi": 77,
                    "time": 262.60612200000367,
                    "velocity": 0.6614173228346457,
                    "duration": 0.10623225000000502
                },
                {
                    "name": "D#5",
                    "midi": 75,
                    "time": 262.8185865000037,
                    "velocity": 0.5826771653543307,
                    "duration": 0.10623225000000502
                },
                {
                    "name": "D5",
                    "midi": 74,
                    "time": 263.0310510000037,
                    "velocity": 0.6614173228346457,
                    "duration": 0.10623225000000502
                },
                {
                    "name": "C5",
                    "midi": 72,
                    "time": 263.2435155000037,
                    "velocity": 0.5905511811023622,
                    "duration": 0.10623225000000502
                },
                {
                    "name": "B4",
                    "midi": 71,
                    "time": 263.4559800000037,
                    "velocity": 0.6614173228346457,
                    "duration": 0.10623225000000502
                },
                {
                    "name": "D5",
                    "midi": 74,
                    "time": 263.8809090000037,
                    "velocity": 0.48031496062992124,
                    "duration": 0.10623225000000502
                },
                {
                    "name": "C#5",
                    "midi": 73,
                    "time": 263.98714125000373,
                    "velocity": 0.3937007874015748,
                    "duration": 0.10623225000000502
                },
                {
                    "name": "D5",
                    "midi": 74,
                    "time": 264.09337350000374,
                    "velocity": 0.4251968503937008,
                    "duration": 0.10623225000000502
                },
                {
                    "name": "B4",
                    "midi": 71,
                    "time": 264.19960575000374,
                    "velocity": 0.3937007874015748,
                    "duration": 0.10623225000000502
                },
                {
                    "name": "F5",
                    "midi": 77,
                    "time": 264.30583800000375,
                    "velocity": 0.48031496062992124,
                    "duration": 0.10623225000000502
                },
                {
                    "name": "E5",
                    "midi": 76,
                    "time": 264.41207025000375,
                    "velocity": 0.3937007874015748,
                    "duration": 0.10623225000000502
                },
                {
                    "name": "F5",
                    "midi": 77,
                    "time": 264.51830250000376,
                    "velocity": 0.4251968503937008,
                    "duration": 0.10623225000000502
                },
                {
                    "name": "D5",
                    "midi": 74,
                    "time": 264.62453475000376,
                    "velocity": 0.3937007874015748,
                    "duration": 0.10623225000000502
                },
                {
                    "name": "G#5",
                    "midi": 80,
                    "time": 264.73076700000377,
                    "velocity": 0.49606299212598426,
                    "duration": 0.10623225000000502
                },
                {
                    "name": "G5",
                    "midi": 79,
                    "time": 264.83699925000377,
                    "velocity": 0.3937007874015748,
                    "duration": 0.10623225000000502
                },
                {
                    "name": "F5",
                    "midi": 77,
                    "time": 264.9432315000038,
                    "velocity": 0.44881889763779526,
                    "duration": 0.10623225000000502
                },
                {
                    "name": "D#5",
                    "midi": 75,
                    "time": 265.0494637500038,
                    "velocity": 0.3937007874015748,
                    "duration": 0.10623225000000502
                },
                {
                    "name": "D5",
                    "midi": 74,
                    "time": 265.1556960000038,
                    "velocity": 0.4566929133858268,
                    "duration": 0.10623225000000502
                },
                {
                    "name": "D#5",
                    "midi": 75,
                    "time": 265.2619282500038,
                    "velocity": 0.3937007874015748,
                    "duration": 0.10623225000000502
                },
                {
                    "name": "F5",
                    "midi": 77,
                    "time": 265.3681605000038,
                    "velocity": 0.4645669291338583,
                    "duration": 0.10623225000000502
                },
                {
                    "name": "D#5",
                    "midi": 75,
                    "time": 265.4743927500038,
                    "velocity": 0.3858267716535433,
                    "duration": 0.10623225000000502
                },
                {
                    "name": "D5",
                    "midi": 74,
                    "time": 265.5806250000038,
                    "velocity": 0.4881889763779528,
                    "duration": 0.10623225000000502
                },
                {
                    "name": "C5",
                    "midi": 72,
                    "time": 265.6868572500038,
                    "velocity": 0.3937007874015748,
                    "duration": 0.10623225000000502
                },
                {
                    "name": "B4",
                    "midi": 71,
                    "time": 265.7930895000038,
                    "velocity": 0.4330708661417323,
                    "duration": 0.10623225000000502
                },
                {
                    "name": "C5",
                    "midi": 72,
                    "time": 265.8993217500038,
                    "velocity": 0.3937007874015748,
                    "duration": 0.10623225000000502
                },
                {
                    "name": "D5",
                    "midi": 74,
                    "time": 266.0055540000038,
                    "velocity": 0.4881889763779528,
                    "duration": 0.10623225000000502
                },
                {
                    "name": "C5",
                    "midi": 72,
                    "time": 266.11178625000383,
                    "velocity": 0.4015748031496063,
                    "duration": 0.10623225000000502
                },
                {
                    "name": "B4",
                    "midi": 71,
                    "time": 266.21801850000384,
                    "velocity": 0.4330708661417323,
                    "duration": 0.10623225000000502
                },
                {
                    "name": "G#4",
                    "midi": 68,
                    "time": 266.32425075000384,
                    "velocity": 0.36220472440944884,
                    "duration": 0.10623225000000502
                },
                {
                    "name": "G4",
                    "midi": 67,
                    "time": 266.43048300000385,
                    "velocity": 0.5118110236220472,
                    "duration": 0.10623225000000502
                },
                {
                    "name": "F4",
                    "midi": 65,
                    "time": 266.53671525000385,
                    "velocity": 0.3700787401574803,
                    "duration": 0.10623225000000502
                },
                {
                    "name": "E4",
                    "midi": 64,
                    "time": 266.64294750000386,
                    "velocity": 0.4330708661417323,
                    "duration": 0.10623225000000502
                },
                {
                    "name": "F4",
                    "midi": 65,
                    "time": 266.74917975000386,
                    "velocity": 0.3937007874015748,
                    "duration": 0.10623225000000502
                },
                {
                    "name": "E4",
                    "midi": 64,
                    "time": 266.85541200000387,
                    "velocity": 0.5590551181102362,
                    "duration": 0.4249290000000201
                },
                {
                    "name": "C#5",
                    "midi": 73,
                    "time": 268.9800570000039,
                    "velocity": 0.6771653543307087,
                    "duration": 0.10623225000000502
                },
                {
                    "name": "C5",
                    "midi": 72,
                    "time": 269.1925215000039,
                    "velocity": 0.5905511811023622,
                    "duration": 0.10623225000000502
                },
                {
                    "name": "A#4",
                    "midi": 70,
                    "time": 269.40498600000393,
                    "velocity": 0.6614173228346457,
                    "duration": 0.10623225000000502
                },
                {
                    "name": "G#4",
                    "midi": 68,
                    "time": 269.61745050000394,
                    "velocity": 0.5826771653543307,
                    "duration": 0.10623225000000502
                },
                {
                    "name": "G4",
                    "midi": 67,
                    "time": 269.82991500000395,
                    "velocity": 0.6614173228346457,
                    "duration": 0.10623225000000502
                },
                {
                    "name": "F4",
                    "midi": 65,
                    "time": 270.04237950000396,
                    "velocity": 0.5905511811023622,
                    "duration": 0.10623225000000502
                },
                {
                    "name": "E4",
                    "midi": 64,
                    "time": 270.25484400000397,
                    "velocity": 0.6614173228346457,
                    "duration": 0.10623225000000502
                },
                {
                    "name": "G5",
                    "midi": 79,
                    "time": 270.679773000004,
                    "velocity": 0.5275590551181102,
                    "duration": 0.10623225000000502
                },
                {
                    "name": "F#5",
                    "midi": 78,
                    "time": 270.786005250004,
                    "velocity": 0.4330708661417323,
                    "duration": 0.10623225000000502
                },
                {
                    "name": "G5",
                    "midi": 79,
                    "time": 270.892237500004,
                    "velocity": 0.4645669291338583,
                    "duration": 0.10623225000000502
                },
                {
                    "name": "E5",
                    "midi": 76,
                    "time": 270.998469750004,
                    "velocity": 0.4330708661417323,
                    "duration": 0.10623225000000502
                },
                {
                    "name": "A#5",
                    "midi": 82,
                    "time": 271.104702000004,
                    "velocity": 0.5275590551181102,
                    "duration": 0.10623225000000502
                },
                {
                    "name": "A5",
                    "midi": 81,
                    "time": 271.210934250004,
                    "velocity": 0.4330708661417323,
                    "duration": 0.10623225000000502
                },
                {
                    "name": "A#5",
                    "midi": 82,
                    "time": 271.317166500004,
                    "velocity": 0.4645669291338583,
                    "duration": 0.10623225000000502
                },
                {
                    "name": "G5",
                    "midi": 79,
                    "time": 271.423398750004,
                    "velocity": 0.4330708661417323,
                    "duration": 0.10623225000000502
                },
                {
                    "name": "C#6",
                    "midi": 85,
                    "time": 271.52963100000403,
                    "velocity": 0.5433070866141733,
                    "duration": 0.10623225000000502
                },
                {
                    "name": "C6",
                    "midi": 84,
                    "time": 271.63586325000404,
                    "velocity": 0.4330708661417323,
                    "duration": 0.10623225000000502
                },
                {
                    "name": "C#6",
                    "midi": 85,
                    "time": 271.74209550000404,
                    "velocity": 0.4881889763779528,
                    "duration": 0.10623225000000502
                },
                {
                    "name": "C6",
                    "midi": 84,
                    "time": 271.84832775000405,
                    "velocity": 0.4330708661417323,
                    "duration": 0.10623225000000502
                },
                {
                    "name": "C#6",
                    "midi": 85,
                    "time": 271.95456000000405,
                    "velocity": 0.5748031496062992,
                    "duration": 0.10623225000000502
                },
                {
                    "name": "A#5",
                    "midi": 82,
                    "time": 272.06079225000406,
                    "velocity": 0.4330708661417323,
                    "duration": 0.10623225000000502
                },
                {
                    "name": "G5",
                    "midi": 79,
                    "time": 272.16702450000406,
                    "velocity": 0.5039370078740157,
                    "duration": 0.10623225000000502
                },
                {
                    "name": "E5",
                    "midi": 76,
                    "time": 272.27325675000407,
                    "velocity": 0.41732283464566927,
                    "duration": 0.10623225000000502
                },
                {
                    "name": "A#5",
                    "midi": 82,
                    "time": 272.37948900000407,
                    "velocity": 0.5590551181102362,
                    "duration": 0.10623225000000502
                },
                {
                    "name": "G5",
                    "midi": 79,
                    "time": 272.4857212500041,
                    "velocity": 0.4330708661417323,
                    "duration": 0.10623225000000502
                },
                {
                    "name": "E5",
                    "midi": 76,
                    "time": 272.5919535000041,
                    "velocity": 0.5039370078740157,
                    "duration": 0.10623225000000502
                },
                {
                    "name": "C#5",
                    "midi": 73,
                    "time": 272.6981857500041,
                    "velocity": 0.4330708661417323,
                    "duration": 0.10623225000000502
                },
                {
                    "name": "G5",
                    "midi": 79,
                    "time": 272.8044180000041,
                    "velocity": 0.5590551181102362,
                    "duration": 0.10623225000000502
                },
                {
                    "name": "E5",
                    "midi": 76,
                    "time": 272.9106502500041,
                    "velocity": 0.4015748031496063,
                    "duration": 0.10623225000000502
                },
                {
                    "name": "C#5",
                    "midi": 73,
                    "time": 273.0168825000041,
                    "velocity": 0.49606299212598426,
                    "duration": 0.10623225000000502
                },
                {
                    "name": "A#4",
                    "midi": 70,
                    "time": 273.1231147500041,
                    "velocity": 0.3937007874015748,
                    "duration": 0.10623225000000502
                },
                {
                    "name": "E5",
                    "midi": 76,
                    "time": 273.2293470000041,
                    "velocity": 0.5433070866141733,
                    "duration": 0.10623225000000502
                },
                {
                    "name": "C#5",
                    "midi": 73,
                    "time": 273.3355792500041,
                    "velocity": 0.4015748031496063,
                    "duration": 0.10623225000000502
                },
                {
                    "name": "A#4",
                    "midi": 70,
                    "time": 273.4418115000041,
                    "velocity": 0.47244094488188976,
                    "duration": 0.10623225000000502
                },
                {
                    "name": "G4",
                    "midi": 67,
                    "time": 273.5480437500041,
                    "velocity": 0.3937007874015748,
                    "duration": 0.10623225000000502
                },
                {
                    "name": "F5",
                    "midi": 77,
                    "time": 274.07920500000415,
                    "velocity": 0.5275590551181102,
                    "duration": 0.10623225000000502
                },
                {
                    "name": "E5",
                    "midi": 76,
                    "time": 274.18543725000416,
                    "velocity": 0.4330708661417323,
                    "duration": 0.10623225000000502
                },
                {
                    "name": "F5",
                    "midi": 77,
                    "time": 274.29166950000416,
                    "velocity": 0.4645669291338583,
                    "duration": 0.10623225000000502
                },
                {
                    "name": "C5",
                    "midi": 72,
                    "time": 274.39790175000417,
                    "velocity": 0.4330708661417323,
                    "duration": 0.10623225000000502
                },
                {
                    "name": "G#5",
                    "midi": 80,
                    "time": 274.50413400000417,
                    "velocity": 0.5275590551181102,
                    "duration": 0.10623225000000502
                },
                {
                    "name": "G5",
                    "midi": 79,
                    "time": 274.6103662500042,
                    "velocity": 0.4330708661417323,
                    "duration": 0.10623225000000502
                },
                {
                    "name": "G#5",
                    "midi": 80,
                    "time": 274.7165985000042,
                    "velocity": 0.4645669291338583,
                    "duration": 0.10623225000000502
                },
                {
                    "name": "F5",
                    "midi": 77,
                    "time": 274.8228307500042,
                    "velocity": 0.4330708661417323,
                    "duration": 0.10623225000000502
                },
                {
                    "name": "C6",
                    "midi": 84,
                    "time": 274.9290630000042,
                    "velocity": 0.5433070866141733,
                    "duration": 0.10623225000000502
                },
                {
                    "name": "B5",
                    "midi": 83,
                    "time": 275.0352952500042,
                    "velocity": 0.4330708661417323,
                    "duration": 0.10623225000000502
                },
                {
                    "name": "C6",
                    "midi": 84,
                    "time": 275.1415275000042,
                    "velocity": 0.4881889763779528,
                    "duration": 0.10623225000000502
                },
                {
                    "name": "G#5",
                    "midi": 80,
                    "time": 275.2477597500042,
                    "velocity": 0.4330708661417323,
                    "duration": 0.10623225000000502
                },
                {
                    "name": "F6",
                    "midi": 89,
                    "time": 275.3539920000042,
                    "velocity": 0.5748031496062992,
                    "duration": 0.10623225000000502
                },
                {
                    "name": "C6",
                    "midi": 84,
                    "time": 275.4602242500042,
                    "velocity": 0.4330708661417323,
                    "duration": 0.10623225000000502
                },
                {
                    "name": "G#5",
                    "midi": 80,
                    "time": 275.5664565000042,
                    "velocity": 0.5039370078740157,
                    "duration": 0.10623225000000502
                },
                {
                    "name": "F5",
                    "midi": 77,
                    "time": 275.6726887500042,
                    "velocity": 0.41732283464566927,
                    "duration": 0.10623225000000502
                },
                {
                    "name": "C6",
                    "midi": 84,
                    "time": 275.77892100000423,
                    "velocity": 0.5590551181102362,
                    "duration": 0.10623225000000502
                },
                {
                    "name": "G#5",
                    "midi": 80,
                    "time": 275.88515325000424,
                    "velocity": 0.4330708661417323,
                    "duration": 0.10623225000000502
                },
                {
                    "name": "F5",
                    "midi": 77,
                    "time": 275.99138550000424,
                    "velocity": 0.5039370078740157,
                    "duration": 0.10623225000000502
                },
                {
                    "name": "C5",
                    "midi": 72,
                    "time": 276.09761775000425,
                    "velocity": 0.4330708661417323,
                    "duration": 0.10623225000000502
                },
                {
                    "name": "G#5",
                    "midi": 80,
                    "time": 276.20385000000425,
                    "velocity": 0.5590551181102362,
                    "duration": 0.10623225000000502
                },
                {
                    "name": "F5",
                    "midi": 77,
                    "time": 276.31008225000426,
                    "velocity": 0.4015748031496063,
                    "duration": 0.10623225000000502
                },
                {
                    "name": "C5",
                    "midi": 72,
                    "time": 276.41631450000426,
                    "velocity": 0.49606299212598426,
                    "duration": 0.10623225000000502
                },
                {
                    "name": "G#4",
                    "midi": 68,
                    "time": 276.52254675000427,
                    "velocity": 0.3937007874015748,
                    "duration": 0.10623225000000502
                },
                {
                    "name": "F5",
                    "midi": 77,
                    "time": 276.6287790000043,
                    "velocity": 0.5433070866141733,
                    "duration": 0.10623225000000502
                },
                {
                    "name": "C5",
                    "midi": 72,
                    "time": 276.7350112500043,
                    "velocity": 0.4015748031496063,
                    "duration": 0.10623225000000502
                },
                {
                    "name": "G#4",
                    "midi": 68,
                    "time": 276.8412435000043,
                    "velocity": 0.47244094488188976,
                    "duration": 0.10623225000000502
                },
                {
                    "name": "F4",
                    "midi": 65,
                    "time": 276.9474757500043,
                    "velocity": 0.3937007874015748,
                    "duration": 0.10623225000000502
                },
                {
                    "name": "F5",
                    "midi": 77,
                    "time": 277.4786370000043,
                    "velocity": 0.5275590551181102,
                    "duration": 0.10623225000000502
                },
                {
                    "name": "E5",
                    "midi": 76,
                    "time": 277.5848692500043,
                    "velocity": 0.4330708661417323,
                    "duration": 0.10623225000000502
                },
                {
                    "name": "F5",
                    "midi": 77,
                    "time": 277.6911015000043,
                    "velocity": 0.4645669291338583,
                    "duration": 0.10623225000000502
                },
                {
                    "name": "D5",
                    "midi": 74,
                    "time": 277.7973337500043,
                    "velocity": 0.4330708661417323,
                    "duration": 0.10623225000000502
                },
                {
                    "name": "B5",
                    "midi": 83,
                    "time": 277.90356600000433,
                    "velocity": 0.5275590551181102,
                    "duration": 0.10623225000000502
                },
                {
                    "name": "A#5",
                    "midi": 82,
                    "time": 278.00979825000434,
                    "velocity": 0.4330708661417323,
                    "duration": 0.10623225000000502
                },
                {
                    "name": "B5",
                    "midi": 83,
                    "time": 278.11603050000434,
                    "velocity": 0.4645669291338583,
                    "duration": 0.10623225000000502
                },
                {
                    "name": "F5",
                    "midi": 77,
                    "time": 278.22226275000435,
                    "velocity": 0.4330708661417323,
                    "duration": 0.10623225000000502
                },
                {
                    "name": "D6",
                    "midi": 86,
                    "time": 278.32849500000435,
                    "velocity": 0.5433070866141733,
                    "duration": 0.10623225000000502
                },
                {
                    "name": "C#6",
                    "midi": 85,
                    "time": 278.43472725000436,
                    "velocity": 0.4330708661417323,
                    "duration": 0.10623225000000502
                },
                {
                    "name": "D6",
                    "midi": 86,
                    "time": 278.54095950000436,
                    "velocity": 0.4881889763779528,
                    "duration": 0.10623225000000502
                },
                {
                    "name": "B5",
                    "midi": 83,
                    "time": 278.64719175000437,
                    "velocity": 0.4330708661417323,
                    "duration": 0.10623225000000502
                },
                {
                    "name": "F6",
                    "midi": 89,
                    "time": 278.7534240000044,
                    "velocity": 0.5748031496062992,
                    "duration": 0.10623225000000502
                },
                {
                    "name": "D6",
                    "midi": 86,
                    "time": 278.8596562500044,
                    "velocity": 0.4330708661417323,
                    "duration": 0.10623225000000502
                },
                {
                    "name": "B5",
                    "midi": 83,
                    "time": 278.9658885000044,
                    "velocity": 0.5039370078740157,
                    "duration": 0.10623225000000502
                },
                {
                    "name": "F5",
                    "midi": 77,
                    "time": 279.0721207500044,
                    "velocity": 0.41732283464566927,
                    "duration": 0.10623225000000502
                },
                {
                    "name": "D6",
                    "midi": 86,
                    "time": 279.1783530000044,
                    "velocity": 0.5590551181102362,
                    "duration": 0.10623225000000502
                },
                {
                    "name": "B5",
                    "midi": 83,
                    "time": 279.2845852500044,
                    "velocity": 0.4330708661417323,
                    "duration": 0.10623225000000502
                },
                {
                    "name": "F5",
                    "midi": 77,
                    "time": 279.3908175000044,
                    "velocity": 0.5039370078740157,
                    "duration": 0.10623225000000502
                },
                {
                    "name": "D5",
                    "midi": 74,
                    "time": 279.4970497500044,
                    "velocity": 0.4330708661417323,
                    "duration": 0.10623225000000502
                },
                {
                    "name": "B5",
                    "midi": 83,
                    "time": 279.6032820000044,
                    "velocity": 0.5590551181102362,
                    "duration": 0.10623225000000502
                },
                {
                    "name": "F5",
                    "midi": 77,
                    "time": 279.7095142500044,
                    "velocity": 0.4015748031496063,
                    "duration": 0.10623225000000502
                },
                {
                    "name": "D5",
                    "midi": 74,
                    "time": 279.8157465000044,
                    "velocity": 0.49606299212598426,
                    "duration": 0.10623225000000502
                },
                {
                    "name": "B4",
                    "midi": 71,
                    "time": 279.9219787500044,
                    "velocity": 0.3937007874015748,
                    "duration": 0.10623225000000502
                },
                {
                    "name": "F5",
                    "midi": 77,
                    "time": 280.02821100000443,
                    "velocity": 0.5433070866141733,
                    "duration": 0.10623225000000502
                },
                {
                    "name": "D5",
                    "midi": 74,
                    "time": 280.13444325000444,
                    "velocity": 0.4015748031496063,
                    "duration": 0.10623225000000502
                },
                {
                    "name": "B4",
                    "midi": 71,
                    "time": 280.24067550000444,
                    "velocity": 0.47244094488188976,
                    "duration": 0.10623225000000502
                },
                {
                    "name": "F4",
                    "midi": 65,
                    "time": 280.34690775000445,
                    "velocity": 0.3937007874015748,
                    "duration": 0.10623225000000502
                },
                {
                    "name": "D#5",
                    "midi": 75,
                    "time": 280.8780690000045,
                    "velocity": 0.5275590551181102,
                    "duration": 0.10623225000000502
                },
                {
                    "name": "D5",
                    "midi": 74,
                    "time": 280.9843012500045,
                    "velocity": 0.4251968503937008,
                    "duration": 0.10623225000000502
                },
                {
                    "name": "D#5",
                    "midi": 75,
                    "time": 281.0905335000045,
                    "velocity": 0.4566929133858268,
                    "duration": 0.10623225000000502
                },
                {
                    "name": "C5",
                    "midi": 72,
                    "time": 281.1967657500045,
                    "velocity": 0.4251968503937008,
                    "duration": 0.10623225000000502
                },
                {
                    "name": "G5",
                    "midi": 79,
                    "time": 281.3029980000045,
                    "velocity": 0.5196850393700787,
                    "duration": 0.10623225000000502
                },
                {
                    "name": "F#5",
                    "midi": 78,
                    "time": 281.4092302500045,
                    "velocity": 0.41732283464566927,
                    "duration": 0.10623225000000502
                },
                {
                    "name": "G5",
                    "midi": 79,
                    "time": 281.5154625000045,
                    "velocity": 0.44881889763779526,
                    "duration": 0.10623225000000502
                },
                {
                    "name": "D#5",
                    "midi": 75,
                    "time": 281.6216947500045,
                    "velocity": 0.41732283464566927,
                    "duration": 0.10623225000000502
                },
                {
                    "name": "C6",
                    "midi": 84,
                    "time": 281.7279270000045,
                    "velocity": 0.5275590551181102,
                    "duration": 0.10623225000000502
                },
                {
                    "name": "B5",
                    "midi": 83,
                    "time": 281.8341592500045,
                    "velocity": 0.41732283464566927,
                    "duration": 0.10623225000000502
                },
                {
                    "name": "C6",
                    "midi": 84,
                    "time": 281.9403915000045,
                    "velocity": 0.47244094488188976,
                    "duration": 0.10623225000000502
                },
                {
                    "name": "G5",
                    "midi": 79,
                    "time": 282.0466237500045,
                    "velocity": 0.41732283464566927,
                    "duration": 0.10623225000000502
                },
                {
                    "name": "D#6",
                    "midi": 87,
                    "time": 282.15285600000453,
                    "velocity": 0.5511811023622047,
                    "duration": 0.10623225000000502
                },
                {
                    "name": "C6",
                    "midi": 84,
                    "time": 282.25908825000454,
                    "velocity": 0.41732283464566927,
                    "duration": 0.10623225000000502
                },
                {
                    "name": "A5",
                    "midi": 81,
                    "time": 282.36532050000454,
                    "velocity": 0.48031496062992124,
                    "duration": 0.10623225000000502
                },
                {
                    "name": "D#5",
                    "midi": 75,
                    "time": 282.47155275000455,
                    "velocity": 0.3937007874015748,
                    "duration": 0.10623225000000502
                },
                {
                    "name": "C6",
                    "midi": 84,
                    "time": 282.57778500000455,
                    "velocity": 0.5354330708661418,
                    "duration": 0.10623225000000502
                },
                {
                    "name": "A5",
                    "midi": 81,
                    "time": 282.68401725000456,
                    "velocity": 0.4094488188976378,
                    "duration": 0.10623225000000502
                },
                {
                    "name": "D#5",
                    "midi": 75,
                    "time": 282.79024950000456,
                    "velocity": 0.47244094488188976,
                    "duration": 0.10623225000000502
                },
                {
                    "name": "C5",
                    "midi": 72,
                    "time": 282.89648175000457,
                    "velocity": 0.4094488188976378,
                    "duration": 0.10623225000000502
                },
                {
                    "name": "A5",
                    "midi": 81,
                    "time": 283.0027140000046,
                    "velocity": 0.5275590551181102,
                    "duration": 0.10623225000000502
                },
                {
                    "name": "D#5",
                    "midi": 75,
                    "time": 283.1089462500046,
                    "velocity": 0.3779527559055118,
                    "duration": 0.10623225000000502
                },
                {
                    "name": "C5",
                    "midi": 72,
                    "time": 283.2151785000046,
                    "velocity": 0.4645669291338583,
                    "duration": 0.10623225000000502
                },
                {
                    "name": "A4",
                    "midi": 69,
                    "time": 283.3214107500046,
                    "velocity": 0.3700787401574803,
                    "duration": 0.10623225000000502
                },
                {
                    "name": "D#5",
                    "midi": 75,
                    "time": 283.4276430000046,
                    "velocity": 0.5039370078740157,
                    "duration": 0.10623225000000502
                },
                {
                    "name": "C5",
                    "midi": 72,
                    "time": 283.5338752500046,
                    "velocity": 0.3700787401574803,
                    "duration": 0.10623225000000502
                },
                {
                    "name": "A4",
                    "midi": 69,
                    "time": 283.6401075000046,
                    "velocity": 0.4330708661417323,
                    "duration": 0.10623225000000502
                },
                {
                    "name": "D#4",
                    "midi": 63,
                    "time": 283.7463397500046,
                    "velocity": 0.36220472440944884,
                    "duration": 0.10623225000000502
                },
                {
                    "name": "D#5",
                    "midi": 75,
                    "time": 284.27750100000463,
                    "velocity": 0.48031496062992124,
                    "duration": 0.10623225000000502
                },
                {
                    "name": "D5",
                    "midi": 74,
                    "time": 284.38373325000464,
                    "velocity": 0.3937007874015748,
                    "duration": 0.10623225000000502
                },
                {
                    "name": "D#5",
                    "midi": 75,
                    "time": 284.48996550000464,
                    "velocity": 0.4251968503937008,
                    "duration": 0.10623225000000502
                },
                {
                    "name": "C5",
                    "midi": 72,
                    "time": 284.59619775000465,
                    "velocity": 0.3937007874015748,
                    "duration": 0.10623225000000502
                },
                {
                    "name": "A5",
                    "midi": 81,
                    "time": 284.70243000000465,
                    "velocity": 0.47244094488188976,
                    "duration": 0.10623225000000502
                },
                {
                    "name": "G#5",
                    "midi": 80,
                    "time": 284.80866225000466,
                    "velocity": 0.3937007874015748,
                    "duration": 0.10623225000000502
                },
                {
                    "name": "A5",
                    "midi": 81,
                    "time": 284.91489450000466,
                    "velocity": 0.41732283464566927,
                    "duration": 0.10623225000000502
                },
                {
                    "name": "D#5",
                    "midi": 75,
                    "time": 285.02112675000467,
                    "velocity": 0.3858267716535433,
                    "duration": 0.10623225000000502
                },
                {
                    "name": "C6",
                    "midi": 84,
                    "time": 285.1273590000047,
                    "velocity": 0.4881889763779528,
                    "duration": 0.10623225000000502
                },
                {
                    "name": "B5",
                    "midi": 83,
                    "time": 285.2335912500047,
                    "velocity": 0.3858267716535433,
                    "duration": 0.10623225000000502
                },
                {
                    "name": "C6",
                    "midi": 84,
                    "time": 285.3398235000047,
                    "velocity": 0.4330708661417323,
                    "duration": 0.10623225000000502
                },
                {
                    "name": "A5",
                    "midi": 81,
                    "time": 285.4460557500047,
                    "velocity": 0.3779527559055118,
                    "duration": 0.10623225000000502
                },
                {
                    "name": "D#6",
                    "midi": 87,
                    "time": 285.5522880000047,
                    "velocity": 0.5039370078740157,
                    "duration": 0.10623225000000502
                },
                {
                    "name": "C6",
                    "midi": 84,
                    "time": 285.6585202500047,
                    "velocity": 0.3779527559055118,
                    "duration": 0.10623225000000502
                },
                {
                    "name": "A5",
                    "midi": 81,
                    "time": 285.7647525000047,
                    "velocity": 0.4409448818897638,
                    "duration": 0.10623225000000502
                },
                {
                    "name": "D#5",
                    "midi": 75,
                    "time": 285.8709847500047,
                    "velocity": 0.3700787401574803,
                    "duration": 0.10623225000000502
                },
                {
                    "name": "C6",
                    "midi": 84,
                    "time": 285.9772170000047,
                    "velocity": 0.4881889763779528,
                    "duration": 0.10623225000000502
                },
                {
                    "name": "A5",
                    "midi": 81,
                    "time": 286.0834492500047,
                    "velocity": 0.3779527559055118,
                    "duration": 0.10623225000000502
                },
                {
                    "name": "D#5",
                    "midi": 75,
                    "time": 286.1896815000047,
                    "velocity": 0.4409448818897638,
                    "duration": 0.10623225000000502
                },
                {
                    "name": "C5",
                    "midi": 72,
                    "time": 286.29591375000473,
                    "velocity": 0.3779527559055118,
                    "duration": 0.10623225000000502
                },
                {
                    "name": "A5",
                    "midi": 81,
                    "time": 286.40214600000473,
                    "velocity": 0.48031496062992124,
                    "duration": 0.10623225000000502
                },
                {
                    "name": "D#5",
                    "midi": 75,
                    "time": 286.50837825000474,
                    "velocity": 0.3464566929133858,
                    "duration": 0.10623225000000502
                },
                {
                    "name": "C5",
                    "midi": 72,
                    "time": 286.61461050000474,
                    "velocity": 0.4251968503937008,
                    "duration": 0.10623225000000502
                },
                {
                    "name": "A4",
                    "midi": 69,
                    "time": 286.72084275000475,
                    "velocity": 0.33858267716535434,
                    "duration": 0.10623225000000502
                },
                {
                    "name": "D#5",
                    "midi": 75,
                    "time": 286.82707500000475,
                    "velocity": 0.4645669291338583,
                    "duration": 0.10623225000000502
                },
                {
                    "name": "C5",
                    "midi": 72,
                    "time": 286.93330725000476,
                    "velocity": 0.33858267716535434,
                    "duration": 0.10623225000000502
                },
                {
                    "name": "A4",
                    "midi": 69,
                    "time": 287.03953950000476,
                    "velocity": 0.4015748031496063,
                    "duration": 0.10623225000000502
                },
                {
                    "name": "D#4",
                    "midi": 63,
                    "time": 287.14577175000477,
                    "velocity": 0.33858267716535434,
                    "duration": 0.10623225000000502
                },
                {
                    "name": "C#5",
                    "midi": 73,
                    "time": 287.6769330000048,
                    "velocity": 0.4409448818897638,
                    "duration": 0.10623225000000502
                },
                {
                    "name": "C5",
                    "midi": 72,
                    "time": 287.7831652500048,
                    "velocity": 0.36220472440944884,
                    "duration": 0.10623225000000502
                },
                {
                    "name": "C#5",
                    "midi": 73,
                    "time": 287.8893975000048,
                    "velocity": 0.3858267716535433,
                    "duration": 0.10623225000000502
                },
                {
                    "name": "A#4",
                    "midi": 70,
                    "time": 287.9956297500048,
                    "velocity": 0.36220472440944884,
                    "duration": 0.10623225000000502
                },
                {
                    "name": "F5",
                    "midi": 77,
                    "time": 288.1018620000048,
                    "velocity": 0.4409448818897638,
                    "duration": 0.10623225000000502
                },
                {
                    "name": "E5",
                    "midi": 76,
                    "time": 288.2080942500048,
                    "velocity": 0.3543307086614173,
                    "duration": 0.10623225000000502
                },
                {
                    "name": "F5",
                    "midi": 77,
                    "time": 288.3143265000048,
                    "velocity": 0.3779527559055118,
                    "duration": 0.10623225000000502
                },
                {
                    "name": "C#5",
                    "midi": 73,
                    "time": 288.42055875000483,
                    "velocity": 0.3543307086614173,
                    "duration": 0.10623225000000502
                },
                {
                    "name": "A#5",
                    "midi": 82,
                    "time": 288.52679100000483,
                    "velocity": 0.44881889763779526,
                    "duration": 0.10623225000000502
                },
                {
                    "name": "A5",
                    "midi": 81,
                    "time": 288.63302325000484,
                    "velocity": 0.3543307086614173,
                    "duration": 0.10623225000000502
                },
                {
                    "name": "A#5",
                    "midi": 82,
                    "time": 288.73925550000484,
                    "velocity": 0.3937007874015748,
                    "duration": 0.10623225000000502
                },
                {
                    "name": "F5",
                    "midi": 77,
                    "time": 288.84548775000485,
                    "velocity": 0.3543307086614173,
                    "duration": 0.10623225000000502
                },
                {
                    "name": "C#6",
                    "midi": 85,
                    "time": 288.95172000000485,
                    "velocity": 0.4645669291338583,
                    "duration": 0.10623225000000502
                },
                {
                    "name": "A#5",
                    "midi": 82,
                    "time": 289.05795225000486,
                    "velocity": 0.3464566929133858,
                    "duration": 0.10623225000000502
                },
                {
                    "name": "G5",
                    "midi": 79,
                    "time": 289.16418450000486,
                    "velocity": 0.4015748031496063,
                    "duration": 0.10623225000000502
                },
                {
                    "name": "C#5",
                    "midi": 73,
                    "time": 289.27041675000487,
                    "velocity": 0.33070866141732286,
                    "duration": 0.10623225000000502
                },
                {
                    "name": "A#5",
                    "midi": 82,
                    "time": 289.3766490000049,
                    "velocity": 0.44881889763779526,
                    "duration": 0.10623225000000502
                },
                {
                    "name": "G5",
                    "midi": 79,
                    "time": 289.4828812500049,
                    "velocity": 0.3464566929133858,
                    "duration": 0.10623225000000502
                },
                {
                    "name": "C#5",
                    "midi": 73,
                    "time": 289.5891135000049,
                    "velocity": 0.4015748031496063,
                    "duration": 0.10623225000000502
                },
                {
                    "name": "A#4",
                    "midi": 70,
                    "time": 289.6953457500049,
                    "velocity": 0.3464566929133858,
                    "duration": 0.10623225000000502
                },
                {
                    "name": "G5",
                    "midi": 79,
                    "time": 289.8015780000049,
                    "velocity": 0.4409448818897638,
                    "duration": 0.10623225000000502
                },
                {
                    "name": "C#5",
                    "midi": 73,
                    "time": 289.9078102500049,
                    "velocity": 0.31496062992125984,
                    "duration": 0.10623225000000502
                },
                {
                    "name": "A#4",
                    "midi": 70,
                    "time": 290.0140425000049,
                    "velocity": 0.3858267716535433,
                    "duration": 0.10623225000000502
                },
                {
                    "name": "G4",
                    "midi": 67,
                    "time": 290.1202747500049,
                    "velocity": 0.30708661417322836,
                    "duration": 0.10623225000000502
                },
                {
                    "name": "C#5",
                    "midi": 73,
                    "time": 290.2265070000049,
                    "velocity": 0.4251968503937008,
                    "duration": 0.10623225000000502
                },
                {
                    "name": "A#4",
                    "midi": 70,
                    "time": 290.3327392500049,
                    "velocity": 0.31496062992125984,
                    "duration": 0.10623225000000502
                },
                {
                    "name": "G4",
                    "midi": 67,
                    "time": 290.4389715000049,
                    "velocity": 0.36220472440944884,
                    "duration": 0.10623225000000502
                },
                {
                    "name": "C#4",
                    "midi": 61,
                    "time": 290.54520375000493,
                    "velocity": 0.30708661417322836,
                    "duration": 0.10623225000000502
                },
                {
                    "name": "C#5",
                    "midi": 73,
                    "time": 291.07636500000496,
                    "velocity": 0.4015748031496063,
                    "duration": 0.10623225000000502
                },
                {
                    "name": "C5",
                    "midi": 72,
                    "time": 291.18259725000496,
                    "velocity": 0.33070866141732286,
                    "duration": 0.10623225000000502
                },
                {
                    "name": "C#5",
                    "midi": 73,
                    "time": 291.28882950000497,
                    "velocity": 0.3543307086614173,
                    "duration": 0.10623225000000502
                },
                {
                    "name": "A#4",
                    "midi": 70,
                    "time": 291.39506175000497,
                    "velocity": 0.3228346456692913,
                    "duration": 0.10623225000000502
                },
                {
                    "name": "G5",
                    "midi": 79,
                    "time": 291.501294000005,
                    "velocity": 0.3937007874015748,
                    "duration": 0.10623225000000502
                },
                {
                    "name": "F#5",
                    "midi": 78,
                    "time": 291.607526250005,
                    "velocity": 0.3228346456692913,
                    "duration": 0.10623225000000502
                },
                {
                    "name": "G5",
                    "midi": 79,
                    "time": 291.713758500005,
                    "velocity": 0.3464566929133858,
                    "duration": 0.10623225000000502
                },
                {
                    "name": "C#5",
                    "midi": 73,
                    "time": 291.819990750005,
                    "velocity": 0.3228346456692913,
                    "duration": 0.10623225000000502
                },
                {
                    "name": "A#5",
                    "midi": 82,
                    "time": 291.926223000005,
                    "velocity": 0.4015748031496063,
                    "duration": 0.10623225000000502
                },
                {
                    "name": "A5",
                    "midi": 81,
                    "time": 292.032455250005,
                    "velocity": 0.3228346456692913,
                    "duration": 0.10623225000000502
                },
                {
                    "name": "A#5",
                    "midi": 82,
                    "time": 292.138687500005,
                    "velocity": 0.36220472440944884,
                    "duration": 0.10623225000000502
                },
                {
                    "name": "G5",
                    "midi": 79,
                    "time": 292.244919750005,
                    "velocity": 0.31496062992125984,
                    "duration": 0.10623225000000502
                },
                {
                    "name": "C#6",
                    "midi": 85,
                    "time": 292.351152000005,
                    "velocity": 0.4251968503937008,
                    "duration": 0.10623225000000502
                },
                {
                    "name": "A#5",
                    "midi": 82,
                    "time": 292.457384250005,
                    "velocity": 0.31496062992125984,
                    "duration": 0.10623225000000502
                },
                {
                    "name": "G5",
                    "midi": 79,
                    "time": 292.563616500005,
                    "velocity": 0.3700787401574803,
                    "duration": 0.10623225000000502
                },
                {
                    "name": "C#5",
                    "midi": 73,
                    "time": 292.66984875000503,
                    "velocity": 0.2992125984251969,
                    "duration": 0.10623225000000502
                },
                {
                    "name": "A#5",
                    "midi": 82,
                    "time": 292.77608100000504,
                    "velocity": 0.4015748031496063,
                    "duration": 0.10623225000000502
                },
                {
                    "name": "G5",
                    "midi": 79,
                    "time": 292.88231325000504,
                    "velocity": 0.31496062992125984,
                    "duration": 0.10623225000000502
                },
                {
                    "name": "C#5",
                    "midi": 73,
                    "time": 292.98854550000505,
                    "velocity": 0.36220472440944884,
                    "duration": 0.10623225000000502
                },
                {
                    "name": "A#4",
                    "midi": 70,
                    "time": 293.09477775000505,
                    "velocity": 0.31496062992125984,
                    "duration": 0.10623225000000502
                },
                {
                    "name": "G5",
                    "midi": 79,
                    "time": 293.20101000000506,
                    "velocity": 0.4015748031496063,
                    "duration": 0.10623225000000502
                },
                {
                    "name": "C#5",
                    "midi": 73,
                    "time": 293.30724225000506,
                    "velocity": 0.28346456692913385,
                    "duration": 0.10623225000000502
                },
                {
                    "name": "A#4",
                    "midi": 70,
                    "time": 293.41347450000507,
                    "velocity": 0.3543307086614173,
                    "duration": 0.10623225000000502
                },
                {
                    "name": "G4",
                    "midi": 67,
                    "time": 293.51970675000507,
                    "velocity": 0.28346456692913385,
                    "duration": 0.10623225000000502
                },
                {
                    "name": "C#5",
                    "midi": 73,
                    "time": 293.6259390000051,
                    "velocity": 0.3779527559055118,
                    "duration": 0.10623225000000502
                },
                {
                    "name": "A#4",
                    "midi": 70,
                    "time": 293.7321712500051,
                    "velocity": 0.28346456692913385,
                    "duration": 0.10623225000000502
                },
                {
                    "name": "G4",
                    "midi": 67,
                    "time": 293.8384035000051,
                    "velocity": 0.33070866141732286,
                    "duration": 0.10623225000000502
                },
                {
                    "name": "C#4",
                    "midi": 61,
                    "time": 293.9446357500051,
                    "velocity": 0.2755905511811024,
                    "duration": 0.10623225000000502
                },
                {
                    "name": "A#4",
                    "midi": 70,
                    "time": 294.0508680000051,
                    "velocity": 0.29133858267716534,
                    "duration": 0.10623225000000502
                },
                {
                    "name": "G4",
                    "midi": 67,
                    "time": 294.1571002500051,
                    "velocity": 0.2204724409448819,
                    "duration": 0.10623225000000502
                },
                {
                    "name": "C#4",
                    "midi": 61,
                    "time": 294.2633325000051,
                    "velocity": 0.2204724409448819,
                    "duration": 0.10623225000000502
                },
                {
                    "name": "A#3",
                    "midi": 58,
                    "time": 294.3695647500051,
                    "velocity": 0.2204724409448819,
                    "duration": 0.10623225000000502
                },
                {
                    "name": "G4",
                    "midi": 67,
                    "time": 294.4757970000051,
                    "velocity": 0.2755905511811024,
                    "duration": 0.10623225000000502
                },
                {
                    "name": "C#4",
                    "midi": 61,
                    "time": 294.5820292500051,
                    "velocity": 0.2204724409448819,
                    "duration": 0.10623225000000502
                },
                {
                    "name": "A#3",
                    "midi": 58,
                    "time": 294.6882615000051,
                    "velocity": 0.2204724409448819,
                    "duration": 0.10623225000000502
                },
                {
                    "name": "G3",
                    "midi": 55,
                    "time": 294.79449375000513,
                    "velocity": 0.2204724409448819,
                    "duration": 0.10623225000000502
                },
                {
                    "name": "D#4",
                    "midi": 63,
                    "time": 294.90072600000514,
                    "velocity": 0.2677165354330709,
                    "duration": 0.10623225000000502
                },
                {
                    "name": "C#4",
                    "midi": 61,
                    "time": 295.00695825000514,
                    "velocity": 0.2283464566929134,
                    "duration": 0.10623225000000502
                },
                {
                    "name": "A#3",
                    "midi": 58,
                    "time": 295.11319050000515,
                    "velocity": 0.2283464566929134,
                    "duration": 0.10623225000000502
                },
                {
                    "name": "G3",
                    "midi": 55,
                    "time": 295.21942275000515,
                    "velocity": 0.2204724409448819,
                    "duration": 0.10623225000000502
                },
                {
                    "name": "D#4",
                    "midi": 63,
                    "time": 295.32565500000516,
                    "velocity": 0.2677165354330709,
                    "duration": 0.10623225000000502
                },
                {
                    "name": "C#4",
                    "midi": 61,
                    "time": 295.43188725000516,
                    "velocity": 0.2204724409448819,
                    "duration": 0.10623225000000502
                },
                {
                    "name": "A#3",
                    "midi": 58,
                    "time": 295.53811950000517,
                    "velocity": 0.2204724409448819,
                    "duration": 0.10623225000000502
                },
                {
                    "name": "G3",
                    "midi": 55,
                    "time": 295.64435175000517,
                    "velocity": 0.2204724409448819,
                    "duration": 0.10623225000000502
                },
                {
                    "name": "D#4",
                    "midi": 63,
                    "time": 295.7505840000052,
                    "velocity": 0.29133858267716534,
                    "duration": 0.10623225000000502
                },
                {
                    "name": "C#4",
                    "midi": 61,
                    "time": 295.8568162500052,
                    "velocity": 0.2204724409448819,
                    "duration": 0.10623225000000502
                },
                {
                    "name": "A#3",
                    "midi": 58,
                    "time": 295.9630485000052,
                    "velocity": 0.2204724409448819,
                    "duration": 0.10623225000000502
                },
                {
                    "name": "G3",
                    "midi": 55,
                    "time": 296.0692807500052,
                    "velocity": 0.2204724409448819,
                    "duration": 0.10623225000000502
                },
                {
                    "name": "D#4",
                    "midi": 63,
                    "time": 296.1755130000052,
                    "velocity": 0.2755905511811024,
                    "duration": 0.10623225000000502
                },
                {
                    "name": "C#4",
                    "midi": 61,
                    "time": 296.2817452500052,
                    "velocity": 0.2204724409448819,
                    "duration": 0.10623225000000502
                },
                {
                    "name": "A#3",
                    "midi": 58,
                    "time": 296.3879775000052,
                    "velocity": 0.2204724409448819,
                    "duration": 0.10623225000000502
                },
                {
                    "name": "G3",
                    "midi": 55,
                    "time": 296.4942097500052,
                    "velocity": 0.2204724409448819,
                    "duration": 0.10623225000000502
                },
                {
                    "name": "D#4",
                    "midi": 63,
                    "time": 296.6004420000052,
                    "velocity": 0.2677165354330709,
                    "duration": 0.10623225000000502
                },
                {
                    "name": "C#4",
                    "midi": 61,
                    "time": 296.7066742500052,
                    "velocity": 0.2283464566929134,
                    "duration": 0.10623225000000502
                },
                {
                    "name": "A#3",
                    "midi": 58,
                    "time": 296.8129065000052,
                    "velocity": 0.2283464566929134,
                    "duration": 0.10623225000000502
                },
                {
                    "name": "G3",
                    "midi": 55,
                    "time": 296.91913875000523,
                    "velocity": 0.2204724409448819,
                    "duration": 0.10623225000000502
                },
                {
                    "name": "D#4",
                    "midi": 63,
                    "time": 297.02537100000524,
                    "velocity": 0.2677165354330709,
                    "duration": 0.10623225000000502
                },
                {
                    "name": "C#4",
                    "midi": 61,
                    "time": 297.13160325000524,
                    "velocity": 0.2204724409448819,
                    "duration": 0.10623225000000502
                },
                {
                    "name": "A#3",
                    "midi": 58,
                    "time": 297.23783550000525,
                    "velocity": 0.2204724409448819,
                    "duration": 0.10623225000000502
                },
                {
                    "name": "G3",
                    "midi": 55,
                    "time": 297.34406775000525,
                    "velocity": 0.2204724409448819,
                    "duration": 0.10623225000000502
                },
                {
                    "name": "D#4",
                    "midi": 63,
                    "time": 297.45030000000526,
                    "velocity": 0.29133858267716534,
                    "duration": 0.10623225000000502
                },
                {
                    "name": "C#4",
                    "midi": 61,
                    "time": 297.55653225000526,
                    "velocity": 0.2204724409448819,
                    "duration": 0.10623225000000502
                },
                {
                    "name": "A#3",
                    "midi": 58,
                    "time": 297.66276450000527,
                    "velocity": 0.2204724409448819,
                    "duration": 0.10623225000000502
                },
                {
                    "name": "G3",
                    "midi": 55,
                    "time": 297.7689967500053,
                    "velocity": 0.2204724409448819,
                    "duration": 0.10623225000000502
                },
                {
                    "name": "D#4",
                    "midi": 63,
                    "time": 297.8752290000053,
                    "velocity": 0.2755905511811024,
                    "duration": 0.10623225000000502
                },
                {
                    "name": "C#4",
                    "midi": 61,
                    "time": 297.9814612500053,
                    "velocity": 0.2204724409448819,
                    "duration": 0.10623225000000502
                },
                {
                    "name": "A#3",
                    "midi": 58,
                    "time": 298.0876935000053,
                    "velocity": 0.2204724409448819,
                    "duration": 0.10623225000000502
                },
                {
                    "name": "G3",
                    "midi": 55,
                    "time": 298.1939257500053,
                    "velocity": 0.2204724409448819,
                    "duration": 0.10623225000000502
                },
                {
                    "name": "D#4",
                    "midi": 63,
                    "time": 298.3001580000053,
                    "velocity": 0.2677165354330709,
                    "duration": 0.10623225000000502
                },
                {
                    "name": "C#4",
                    "midi": 61,
                    "time": 298.4063902500053,
                    "velocity": 0.2283464566929134,
                    "duration": 0.10623225000000502
                },
                {
                    "name": "A#3",
                    "midi": 58,
                    "time": 298.5126225000053,
                    "velocity": 0.2283464566929134,
                    "duration": 0.10623225000000502
                },
                {
                    "name": "G3",
                    "midi": 55,
                    "time": 298.6188547500053,
                    "velocity": 0.2204724409448819,
                    "duration": 0.10623225000000502
                },
                {
                    "name": "D#4",
                    "midi": 63,
                    "time": 298.7250870000053,
                    "velocity": 0.2677165354330709,
                    "duration": 0.10623225000000502
                },
                {
                    "name": "C#4",
                    "midi": 61,
                    "time": 298.8313192500053,
                    "velocity": 0.2204724409448819,
                    "duration": 0.10623225000000502
                },
                {
                    "name": "A#3",
                    "midi": 58,
                    "time": 298.9375515000053,
                    "velocity": 0.2204724409448819,
                    "duration": 0.10623225000000502
                },
                {
                    "name": "G3",
                    "midi": 55,
                    "time": 299.04378375000533,
                    "velocity": 0.2204724409448819,
                    "duration": 0.10623225000000502
                },
                {
                    "name": "D#4",
                    "midi": 63,
                    "time": 299.15001600000534,
                    "velocity": 0.29133858267716534,
                    "duration": 0.10623225000000502
                },
                {
                    "name": "C#4",
                    "midi": 61,
                    "time": 299.25624825000534,
                    "velocity": 0.2125984251968504,
                    "duration": 0.10623225000000502
                },
                {
                    "name": "A#3",
                    "midi": 58,
                    "time": 299.36248050000535,
                    "velocity": 0.2125984251968504,
                    "duration": 0.10623225000000502
                },
                {
                    "name": "G3",
                    "midi": 55,
                    "time": 299.46871275000535,
                    "velocity": 0.2125984251968504,
                    "duration": 0.10623225000000502
                },
                {
                    "name": "D#4",
                    "midi": 63,
                    "time": 299.57494500000536,
                    "velocity": 0.25196850393700787,
                    "duration": 0.10623225000000502
                },
                {
                    "name": "C#4",
                    "midi": 61,
                    "time": 299.68117725000536,
                    "velocity": 0.1968503937007874,
                    "duration": 0.10623225000000502
                },
                {
                    "name": "A#3",
                    "midi": 58,
                    "time": 299.78740950000537,
                    "velocity": 0.1889763779527559,
                    "duration": 0.10623225000000502
                },
                {
                    "name": "G3",
                    "midi": 55,
                    "time": 299.8936417500054,
                    "velocity": 0.1889763779527559,
                    "duration": 0.10623225000000502
                },
                {
                    "name": "D#4",
                    "midi": 63,
                    "time": 299.9998740000054,
                    "velocity": 0.25196850393700787,
                    "duration": 0.10623225000000502
                },
                {
                    "name": "C#4",
                    "midi": 61,
                    "time": 300.1061062500054,
                    "velocity": 0.18110236220472442,
                    "duration": 0.10623225000000502
                },
                {
                    "name": "A#3",
                    "midi": 58,
                    "time": 300.2123385000054,
                    "velocity": 0.18110236220472442,
                    "duration": 0.10623225000000502
                },
                {
                    "name": "G3",
                    "midi": 55,
                    "time": 300.3185707500054,
                    "velocity": 0.16535433070866143,
                    "duration": 0.10623225000000502
                },
                {
                    "name": "D#4",
                    "midi": 63,
                    "time": 300.4248030000054,
                    "velocity": 0.2125984251968504,
                    "duration": 0.10623225000000502
                },
                {
                    "name": "C#4",
                    "midi": 61,
                    "time": 300.5310352500054,
                    "velocity": 0.15748031496062992,
                    "duration": 0.10623225000000502
                },
                {
                    "name": "A#3",
                    "midi": 58,
                    "time": 300.6372675000054,
                    "velocity": 0.15748031496062992,
                    "duration": 0.10623225000000502
                },
                {
                    "name": "G3",
                    "midi": 55,
                    "time": 300.7434997500054,
                    "velocity": 0.14960629921259844,
                    "duration": 0.10623225000000502
                },
                {
                    "name": "E4",
                    "midi": 64,
                    "time": 300.8497320000054,
                    "velocity": 0.2283464566929134,
                    "duration": 0.10623225000000502
                },
                {
                    "name": "C#4",
                    "midi": 61,
                    "time": 300.9559642500054,
                    "velocity": 0.1732283464566929,
                    "duration": 0.10623225000000502
                },
                {
                    "name": "A#3",
                    "midi": 58,
                    "time": 301.0621965000054,
                    "velocity": 0.1732283464566929,
                    "duration": 0.10623225000000502
                },
                {
                    "name": "G3",
                    "midi": 55,
                    "time": 301.16842875000543,
                    "velocity": 0.1732283464566929,
                    "duration": 0.10623225000000502
                },
                {
                    "name": "E4",
                    "midi": 64,
                    "time": 301.27466100000544,
                    "velocity": 0.2125984251968504,
                    "duration": 0.10623225000000502
                },
                {
                    "name": "C#4",
                    "midi": 61,
                    "time": 301.38089325000544,
                    "velocity": 0.1732283464566929,
                    "duration": 0.10623225000000502
                },
                {
                    "name": "A#3",
                    "midi": 58,
                    "time": 301.48712550000545,
                    "velocity": 0.1732283464566929,
                    "duration": 0.10623225000000502
                },
                {
                    "name": "G3",
                    "midi": 55,
                    "time": 301.59335775000545,
                    "velocity": 0.1732283464566929,
                    "duration": 0.10623225000000502
                },
                {
                    "name": "E4",
                    "midi": 64,
                    "time": 301.69959000000546,
                    "velocity": 0.2125984251968504,
                    "duration": 0.10623225000000502
                },
                {
                    "name": "C#4",
                    "midi": 61,
                    "time": 301.80582225000546,
                    "velocity": 0.18110236220472442,
                    "duration": 0.10623225000000502
                },
                {
                    "name": "A#3",
                    "midi": 58,
                    "time": 301.91205450000547,
                    "velocity": 0.18110236220472442,
                    "duration": 0.10623225000000502
                },
                {
                    "name": "G3",
                    "midi": 55,
                    "time": 302.0182867500055,
                    "velocity": 0.1732283464566929,
                    "duration": 0.10623225000000502
                },
                {
                    "name": "E4",
                    "midi": 64,
                    "time": 302.1245190000055,
                    "velocity": 0.2125984251968504,
                    "duration": 0.10623225000000502
                },
                {
                    "name": "C#4",
                    "midi": 61,
                    "time": 302.2307512500055,
                    "velocity": 0.1732283464566929,
                    "duration": 0.10623225000000502
                },
                {
                    "name": "A#3",
                    "midi": 58,
                    "time": 302.3369835000055,
                    "velocity": 0.1732283464566929,
                    "duration": 0.10623225000000502
                },
                {
                    "name": "G3",
                    "midi": 55,
                    "time": 302.4432157500055,
                    "velocity": 0.1732283464566929,
                    "duration": 0.10623225000000502
                },
                {
                    "name": "E4",
                    "midi": 64,
                    "time": 302.5494480000055,
                    "velocity": 0.2283464566929134,
                    "duration": 0.10623225000000502
                },
                {
                    "name": "C#4",
                    "midi": 61,
                    "time": 302.6556802500055,
                    "velocity": 0.1732283464566929,
                    "duration": 0.10623225000000502
                },
                {
                    "name": "A#3",
                    "midi": 58,
                    "time": 302.7619125000055,
                    "velocity": 0.1732283464566929,
                    "duration": 0.10623225000000502
                },
                {
                    "name": "G3",
                    "midi": 55,
                    "time": 302.8681447500055,
                    "velocity": 0.1732283464566929,
                    "duration": 0.10623225000000502
                },
                {
                    "name": "E4",
                    "midi": 64,
                    "time": 302.9743770000055,
                    "velocity": 0.2125984251968504,
                    "duration": 0.10623225000000502
                },
                {
                    "name": "C#4",
                    "midi": 61,
                    "time": 303.0806092500055,
                    "velocity": 0.1732283464566929,
                    "duration": 0.10623225000000502
                },
                {
                    "name": "A#3",
                    "midi": 58,
                    "time": 303.1868415000055,
                    "velocity": 0.1732283464566929,
                    "duration": 0.10623225000000502
                },
                {
                    "name": "G3",
                    "midi": 55,
                    "time": 303.29307375000553,
                    "velocity": 0.1732283464566929,
                    "duration": 0.10623225000000502
                },
                {
                    "name": "E4",
                    "midi": 64,
                    "time": 303.39930600000554,
                    "velocity": 0.2125984251968504,
                    "duration": 0.10623225000000502
                },
                {
                    "name": "C#4",
                    "midi": 61,
                    "time": 303.50553825000554,
                    "velocity": 0.18110236220472442,
                    "duration": 0.10623225000000502
                },
                {
                    "name": "A#3",
                    "midi": 58,
                    "time": 303.61177050000555,
                    "velocity": 0.18110236220472442,
                    "duration": 0.10623225000000502
                },
                {
                    "name": "G3",
                    "midi": 55,
                    "time": 303.71800275000555,
                    "velocity": 0.1732283464566929,
                    "duration": 0.10623225000000502
                },
                {
                    "name": "E4",
                    "midi": 64,
                    "time": 303.82423500000556,
                    "velocity": 0.2125984251968504,
                    "duration": 0.10623225000000502
                },
                {
                    "name": "C#4",
                    "midi": 61,
                    "time": 303.93046725000556,
                    "velocity": 0.1732283464566929,
                    "duration": 0.10623225000000502
                },
                {
                    "name": "A#3",
                    "midi": 58,
                    "time": 304.03669950000557,
                    "velocity": 0.1732283464566929,
                    "duration": 0.10623225000000502
                },
                {
                    "name": "G3",
                    "midi": 55,
                    "time": 304.1429317500056,
                    "velocity": 0.1732283464566929,
                    "duration": 0.10623225000000502
                },
                {
                    "name": "E4",
                    "midi": 64,
                    "time": 304.2491640000056,
                    "velocity": 0.2283464566929134,
                    "duration": 0.10623225000000502
                },
                {
                    "name": "C#4",
                    "midi": 61,
                    "time": 304.3553962500056,
                    "velocity": 0.1732283464566929,
                    "duration": 0.10623225000000502
                },
                {
                    "name": "A#3",
                    "midi": 58,
                    "time": 304.4616285000056,
                    "velocity": 0.1732283464566929,
                    "duration": 0.10623225000000502
                },
                {
                    "name": "G3",
                    "midi": 55,
                    "time": 304.5678607500056,
                    "velocity": 0.1732283464566929,
                    "duration": 0.10623225000000502
                },
                {
                    "name": "E4",
                    "midi": 64,
                    "time": 304.6740930000056,
                    "velocity": 0.2125984251968504,
                    "duration": 0.10623225000000502
                },
                {
                    "name": "C#4",
                    "midi": 61,
                    "time": 304.7803252500056,
                    "velocity": 0.1732283464566929,
                    "duration": 0.10623225000000502
                },
                {
                    "name": "A#3",
                    "midi": 58,
                    "time": 304.8865575000056,
                    "velocity": 0.1732283464566929,
                    "duration": 0.10623225000000502
                },
                {
                    "name": "G3",
                    "midi": 55,
                    "time": 304.9927897500056,
                    "velocity": 0.1732283464566929,
                    "duration": 0.10623225000000502
                },
                {
                    "name": "E4",
                    "midi": 64,
                    "time": 305.0990220000056,
                    "velocity": 0.2125984251968504,
                    "duration": 0.10623225000000502
                },
                {
                    "name": "C#4",
                    "midi": 61,
                    "time": 305.2052542500056,
                    "velocity": 0.18110236220472442,
                    "duration": 0.10623225000000502
                },
                {
                    "name": "A#3",
                    "midi": 58,
                    "time": 305.3114865000056,
                    "velocity": 0.18110236220472442,
                    "duration": 0.10623225000000502
                },
                {
                    "name": "G3",
                    "midi": 55,
                    "time": 305.41771875000563,
                    "velocity": 0.1732283464566929,
                    "duration": 0.10623225000000502
                },
                {
                    "name": "E4",
                    "midi": 64,
                    "time": 305.52395100000564,
                    "velocity": 0.2125984251968504,
                    "duration": 0.10623225000000502
                },
                {
                    "name": "C#4",
                    "midi": 61,
                    "time": 305.63018325000564,
                    "velocity": 0.1732283464566929,
                    "duration": 0.10623225000000502
                },
                {
                    "name": "A#3",
                    "midi": 58,
                    "time": 305.73641550000565,
                    "velocity": 0.1732283464566929,
                    "duration": 0.10623225000000502
                },
                {
                    "name": "G3",
                    "midi": 55,
                    "time": 305.84264775000565,
                    "velocity": 0.1732283464566929,
                    "duration": 0.10623225000000502
                },
                {
                    "name": "E4",
                    "midi": 64,
                    "time": 305.94888000000566,
                    "velocity": 0.2283464566929134,
                    "duration": 0.10623225000000502
                },
                {
                    "name": "C#4",
                    "midi": 61,
                    "time": 306.05511225000566,
                    "velocity": 0.1732283464566929,
                    "duration": 0.10623225000000502
                },
                {
                    "name": "A#3",
                    "midi": 58,
                    "time": 306.16134450000567,
                    "velocity": 0.1732283464566929,
                    "duration": 0.10623225000000502
                },
                {
                    "name": "G3",
                    "midi": 55,
                    "time": 306.2675767500057,
                    "velocity": 0.1732283464566929,
                    "duration": 0.10623225000000502
                },
                {
                    "name": "E4",
                    "midi": 64,
                    "time": 306.3738090000057,
                    "velocity": 0.2125984251968504,
                    "duration": 0.10623225000000502
                },
                {
                    "name": "C#4",
                    "midi": 61,
                    "time": 306.4800412500057,
                    "velocity": 0.1732283464566929,
                    "duration": 0.10623225000000502
                },
                {
                    "name": "A#3",
                    "midi": 58,
                    "time": 306.5862735000057,
                    "velocity": 0.1732283464566929,
                    "duration": 0.10623225000000502
                },
                {
                    "name": "G3",
                    "midi": 55,
                    "time": 306.6925057500057,
                    "velocity": 0.1732283464566929,
                    "duration": 0.10623225000000502
                },
                {
                    "name": "E4",
                    "midi": 64,
                    "time": 306.7987380000057,
                    "velocity": 0.2125984251968504,
                    "duration": 0.10623225000000502
                },
                {
                    "name": "C#4",
                    "midi": 61,
                    "time": 306.9049702500057,
                    "velocity": 0.18110236220472442,
                    "duration": 0.10623225000000502
                },
                {
                    "name": "A#3",
                    "midi": 58,
                    "time": 307.0112025000057,
                    "velocity": 0.18110236220472442,
                    "duration": 0.10623225000000502
                },
                {
                    "name": "G3",
                    "midi": 55,
                    "time": 307.1174347500057,
                    "velocity": 0.1732283464566929,
                    "duration": 0.10623225000000502
                },
                {
                    "name": "E4",
                    "midi": 64,
                    "time": 307.2236670000057,
                    "velocity": 0.2125984251968504,
                    "duration": 0.10623225000000502
                },
                {
                    "name": "C#4",
                    "midi": 61,
                    "time": 307.3298992500057,
                    "velocity": 0.1732283464566929,
                    "duration": 0.10623225000000502
                },
                {
                    "name": "A#3",
                    "midi": 58,
                    "time": 307.43613150000573,
                    "velocity": 0.1732283464566929,
                    "duration": 0.10623225000000502
                },
                {
                    "name": "G3",
                    "midi": 55,
                    "time": 307.54236375000573,
                    "velocity": 0.1732283464566929,
                    "duration": 0.10623225000000502
                },
                {
                    "name": "D#4",
                    "midi": 63,
                    "time": 307.64859600000574,
                    "velocity": 0.2283464566929134,
                    "duration": 0.10623225000000502
                },
                {
                    "name": "C4",
                    "midi": 60,
                    "time": 307.75482825000574,
                    "velocity": 0.1732283464566929,
                    "duration": 0.10623225000000502
                },
                {
                    "name": "A3",
                    "midi": 57,
                    "time": 307.86106050000575,
                    "velocity": 0.1732283464566929,
                    "duration": 0.10623225000000502
                },
                {
                    "name": "F#3",
                    "midi": 54,
                    "time": 307.96729275000575,
                    "velocity": 0.1732283464566929,
                    "duration": 0.10623225000000502
                },
                {
                    "name": "D#4",
                    "midi": 63,
                    "time": 308.07352500000576,
                    "velocity": 0.2125984251968504,
                    "duration": 0.10623225000000502
                },
                {
                    "name": "C4",
                    "midi": 60,
                    "time": 308.17975725000576,
                    "velocity": 0.1732283464566929,
                    "duration": 0.10623225000000502
                },
                {
                    "name": "A3",
                    "midi": 57,
                    "time": 308.28598950000577,
                    "velocity": 0.1732283464566929,
                    "duration": 0.10623225000000502
                },
                {
                    "name": "F#3",
                    "midi": 54,
                    "time": 308.3922217500058,
                    "velocity": 0.1732283464566929,
                    "duration": 0.10623225000000502
                },
                {
                    "name": "D#4",
                    "midi": 63,
                    "time": 308.4984540000058,
                    "velocity": 0.2125984251968504,
                    "duration": 0.10623225000000502
                },
                {
                    "name": "C4",
                    "midi": 60,
                    "time": 308.6046862500058,
                    "velocity": 0.18110236220472442,
                    "duration": 0.10623225000000502
                },
                {
                    "name": "A3",
                    "midi": 57,
                    "time": 308.7109185000058,
                    "velocity": 0.18110236220472442,
                    "duration": 0.10623225000000502
                },
                {
                    "name": "F#3",
                    "midi": 54,
                    "time": 308.8171507500058,
                    "velocity": 0.1732283464566929,
                    "duration": 0.10623225000000502
                },
                {
                    "name": "D#4",
                    "midi": 63,
                    "time": 308.9233830000058,
                    "velocity": 0.2125984251968504,
                    "duration": 0.10623225000000502
                },
                {
                    "name": "C4",
                    "midi": 60,
                    "time": 309.0296152500058,
                    "velocity": 0.1732283464566929,
                    "duration": 0.10623225000000502
                },
                {
                    "name": "A3",
                    "midi": 57,
                    "time": 309.1358475000058,
                    "velocity": 0.1732283464566929,
                    "duration": 0.10623225000000502
                },
                {
                    "name": "F#3",
                    "midi": 54,
                    "time": 309.2420797500058,
                    "velocity": 0.1732283464566929,
                    "duration": 0.10623225000000502
                },
                {
                    "name": "D#4",
                    "midi": 63,
                    "time": 309.3483120000058,
                    "velocity": 0.2283464566929134,
                    "duration": 0.10623225000000502
                },
                {
                    "name": "C4",
                    "midi": 60,
                    "time": 309.4545442500058,
                    "velocity": 0.1732283464566929,
                    "duration": 0.10623225000000502
                },
                {
                    "name": "A3",
                    "midi": 57,
                    "time": 309.56077650000583,
                    "velocity": 0.1732283464566929,
                    "duration": 0.10623225000000502
                },
                {
                    "name": "F#3",
                    "midi": 54,
                    "time": 309.66700875000583,
                    "velocity": 0.1732283464566929,
                    "duration": 0.10623225000000502
                },
                {
                    "name": "D#4",
                    "midi": 63,
                    "time": 309.77324100000584,
                    "velocity": 0.2125984251968504,
                    "duration": 0.10623225000000502
                },
                {
                    "name": "C4",
                    "midi": 60,
                    "time": 309.87947325000584,
                    "velocity": 0.1732283464566929,
                    "duration": 0.10623225000000502
                },
                {
                    "name": "A3",
                    "midi": 57,
                    "time": 309.98570550000585,
                    "velocity": 0.1732283464566929,
                    "duration": 0.10623225000000502
                },
                {
                    "name": "F#3",
                    "midi": 54,
                    "time": 310.09193775000585,
                    "velocity": 0.1732283464566929,
                    "duration": 0.10623225000000502
                },
                {
                    "name": "D#4",
                    "midi": 63,
                    "time": 310.19817000000586,
                    "velocity": 0.2125984251968504,
                    "duration": 0.10623225000000502
                },
                {
                    "name": "C4",
                    "midi": 60,
                    "time": 310.30440225000586,
                    "velocity": 0.18110236220472442,
                    "duration": 0.10623225000000502
                },
                {
                    "name": "A3",
                    "midi": 57,
                    "time": 310.41063450000587,
                    "velocity": 0.18110236220472442,
                    "duration": 0.10623225000000502
                },
                {
                    "name": "F#3",
                    "midi": 54,
                    "time": 310.5168667500059,
                    "velocity": 0.1732283464566929,
                    "duration": 0.10623225000000502
                },
                {
                    "name": "D#4",
                    "midi": 63,
                    "time": 310.6230990000059,
                    "velocity": 0.2125984251968504,
                    "duration": 0.10623225000000502
                },
                {
                    "name": "C4",
                    "midi": 60,
                    "time": 310.7293312500059,
                    "velocity": 0.1732283464566929,
                    "duration": 0.10623225000000502
                },
                {
                    "name": "A3",
                    "midi": 57,
                    "time": 310.8355635000059,
                    "velocity": 0.1732283464566929,
                    "duration": 0.10623225000000502
                },
                {
                    "name": "F#3",
                    "midi": 54,
                    "time": 310.9417957500059,
                    "velocity": 0.1732283464566929,
                    "duration": 0.10623225000000502
                },
                {
                    "name": "D#4",
                    "midi": 63,
                    "time": 311.0480280000059,
                    "velocity": 0.2283464566929134,
                    "duration": 0.10623225000000502
                },
                {
                    "name": "C4",
                    "midi": 60,
                    "time": 311.1542602500059,
                    "velocity": 0.1732283464566929,
                    "duration": 0.10623225000000502
                },
                {
                    "name": "A3",
                    "midi": 57,
                    "time": 311.2604925000059,
                    "velocity": 0.1732283464566929,
                    "duration": 0.10623225000000502
                },
                {
                    "name": "F#3",
                    "midi": 54,
                    "time": 311.3667247500059,
                    "velocity": 0.1732283464566929,
                    "duration": 0.10623225000000502
                },
                {
                    "name": "D#4",
                    "midi": 63,
                    "time": 311.4729570000059,
                    "velocity": 0.2125984251968504,
                    "duration": 0.10623225000000502
                },
                {
                    "name": "C4",
                    "midi": 60,
                    "time": 311.5791892500059,
                    "velocity": 0.1732283464566929,
                    "duration": 0.10623225000000502
                },
                {
                    "name": "A3",
                    "midi": 57,
                    "time": 311.68542150000593,
                    "velocity": 0.1732283464566929,
                    "duration": 0.10623225000000502
                },
                {
                    "name": "F#3",
                    "midi": 54,
                    "time": 311.79165375000593,
                    "velocity": 0.1732283464566929,
                    "duration": 0.10623225000000502
                },
                {
                    "name": "D#4",
                    "midi": 63,
                    "time": 311.89788600000594,
                    "velocity": 0.2125984251968504,
                    "duration": 0.10623225000000502
                },
                {
                    "name": "C4",
                    "midi": 60,
                    "time": 312.00411825000594,
                    "velocity": 0.18110236220472442,
                    "duration": 0.10623225000000502
                },
                {
                    "name": "A3",
                    "midi": 57,
                    "time": 312.11035050000595,
                    "velocity": 0.18110236220472442,
                    "duration": 0.10623225000000502
                },
                {
                    "name": "F#3",
                    "midi": 54,
                    "time": 312.21658275000595,
                    "velocity": 0.1732283464566929,
                    "duration": 0.10623225000000502
                },
                {
                    "name": "D#4",
                    "midi": 63,
                    "time": 312.32281500000596,
                    "velocity": 0.2125984251968504,
                    "duration": 0.10623225000000502
                },
                {
                    "name": "C4",
                    "midi": 60,
                    "time": 312.42904725000596,
                    "velocity": 0.1732283464566929,
                    "duration": 0.10623225000000502
                },
                {
                    "name": "A3",
                    "midi": 57,
                    "time": 312.53527950000597,
                    "velocity": 0.1732283464566929,
                    "duration": 0.10623225000000502
                },
                {
                    "name": "F#3",
                    "midi": 54,
                    "time": 312.641511750006,
                    "velocity": 0.1732283464566929,
                    "duration": 0.10623225000000502
                },
                {
                    "name": "D#4",
                    "midi": 63,
                    "time": 312.747744000006,
                    "velocity": 0.2283464566929134,
                    "duration": 0.10623225000000502
                },
                {
                    "name": "C4",
                    "midi": 60,
                    "time": 312.853976250006,
                    "velocity": 0.1732283464566929,
                    "duration": 0.10623225000000502
                },
                {
                    "name": "A3",
                    "midi": 57,
                    "time": 312.960208500006,
                    "velocity": 0.1732283464566929,
                    "duration": 0.10623225000000502
                },
                {
                    "name": "F#3",
                    "midi": 54,
                    "time": 313.066440750006,
                    "velocity": 0.1732283464566929,
                    "duration": 0.10623225000000502
                },
                {
                    "name": "D#4",
                    "midi": 63,
                    "time": 313.172673000006,
                    "velocity": 0.2125984251968504,
                    "duration": 0.10623225000000502
                },
                {
                    "name": "C4",
                    "midi": 60,
                    "time": 313.278905250006,
                    "velocity": 0.1732283464566929,
                    "duration": 0.10623225000000502
                },
                {
                    "name": "A3",
                    "midi": 57,
                    "time": 313.385137500006,
                    "velocity": 0.1732283464566929,
                    "duration": 0.10623225000000502
                },
                {
                    "name": "F#3",
                    "midi": 54,
                    "time": 313.491369750006,
                    "velocity": 0.1732283464566929,
                    "duration": 0.10623225000000502
                },
                {
                    "name": "D#4",
                    "midi": 63,
                    "time": 313.597602000006,
                    "velocity": 0.2125984251968504,
                    "duration": 0.10623225000000502
                },
                {
                    "name": "C4",
                    "midi": 60,
                    "time": 313.703834250006,
                    "velocity": 0.18110236220472442,
                    "duration": 0.10623225000000502
                },
                {
                    "name": "A3",
                    "midi": 57,
                    "time": 313.81006650000603,
                    "velocity": 0.18110236220472442,
                    "duration": 0.10623225000000502
                },
                {
                    "name": "F3",
                    "midi": 53,
                    "time": 313.91629875000604,
                    "velocity": 0.1732283464566929,
                    "duration": 0.10623225000000502
                },
                {
                    "name": "D#4",
                    "midi": 63,
                    "time": 314.02253100000604,
                    "velocity": 0.2125984251968504,
                    "duration": 0.10623225000000502
                },
                {
                    "name": "C4",
                    "midi": 60,
                    "time": 314.12876325000605,
                    "velocity": 0.1732283464566929,
                    "duration": 0.10623225000000502
                },
                {
                    "name": "A3",
                    "midi": 57,
                    "time": 314.23499550000605,
                    "velocity": 0.1732283464566929,
                    "duration": 0.10623225000000502
                },
                {
                    "name": "F3",
                    "midi": 53,
                    "time": 314.34122775000606,
                    "velocity": 0.1732283464566929,
                    "duration": 0.10623225000000502
                },
                {
                    "name": "D#4",
                    "midi": 63,
                    "time": 314.44746000000606,
                    "velocity": 0.2283464566929134,
                    "duration": 0.10623225000000502
                },
                {
                    "name": "C4",
                    "midi": 60,
                    "time": 314.55369225000607,
                    "velocity": 0.1732283464566929,
                    "duration": 0.10623225000000502
                },
                {
                    "name": "A3",
                    "midi": 57,
                    "time": 314.65992450000607,
                    "velocity": 0.1732283464566929,
                    "duration": 0.10623225000000502
                },
                {
                    "name": "F3",
                    "midi": 53,
                    "time": 314.7661567500061,
                    "velocity": 0.1732283464566929,
                    "duration": 0.10623225000000502
                },
                {
                    "name": "D#4",
                    "midi": 63,
                    "time": 314.8723890000061,
                    "velocity": 0.2125984251968504,
                    "duration": 0.10623225000000502
                },
                {
                    "name": "C4",
                    "midi": 60,
                    "time": 314.9786212500061,
                    "velocity": 0.1732283464566929,
                    "duration": 0.10623225000000502
                },
                {
                    "name": "A3",
                    "midi": 57,
                    "time": 315.0848535000061,
                    "velocity": 0.1732283464566929,
                    "duration": 0.10623225000000502
                },
                {
                    "name": "F3",
                    "midi": 53,
                    "time": 315.1910857500061,
                    "velocity": 0.1732283464566929,
                    "duration": 0.10623225000000502
                },
                {
                    "name": "D#4",
                    "midi": 63,
                    "time": 315.2973180000061,
                    "velocity": 0.2125984251968504,
                    "duration": 0.10623225000000502
                },
                {
                    "name": "C4",
                    "midi": 60,
                    "time": 315.4035502500061,
                    "velocity": 0.18110236220472442,
                    "duration": 0.10623225000000502
                },
                {
                    "name": "A3",
                    "midi": 57,
                    "time": 315.5097825000061,
                    "velocity": 0.18110236220472442,
                    "duration": 0.10623225000000502
                },
                {
                    "name": "F3",
                    "midi": 53,
                    "time": 315.6160147500061,
                    "velocity": 0.1732283464566929,
                    "duration": 0.10623225000000502
                },
                {
                    "name": "D#4",
                    "midi": 63,
                    "time": 315.7222470000061,
                    "velocity": 0.2125984251968504,
                    "duration": 0.10623225000000502
                },
                {
                    "name": "C4",
                    "midi": 60,
                    "time": 315.8284792500061,
                    "velocity": 0.1732283464566929,
                    "duration": 0.10623225000000502
                },
                {
                    "name": "A3",
                    "midi": 57,
                    "time": 315.93471150000613,
                    "velocity": 0.1732283464566929,
                    "duration": 0.10623225000000502
                },
                {
                    "name": "F3",
                    "midi": 53,
                    "time": 316.04094375000614,
                    "velocity": 0.1732283464566929,
                    "duration": 0.10623225000000502
                },
                {
                    "name": "D#4",
                    "midi": 63,
                    "time": 316.14717600000614,
                    "velocity": 0.2283464566929134,
                    "duration": 0.10623225000000502
                },
                {
                    "name": "C4",
                    "midi": 60,
                    "time": 316.25340825000615,
                    "velocity": 0.1732283464566929,
                    "duration": 0.10623225000000502
                },
                {
                    "name": "A3",
                    "midi": 57,
                    "time": 316.35964050000615,
                    "velocity": 0.1732283464566929,
                    "duration": 0.10623225000000502
                },
                {
                    "name": "F3",
                    "midi": 53,
                    "time": 316.46587275000616,
                    "velocity": 0.1732283464566929,
                    "duration": 0.10623225000000502
                },
                {
                    "name": "D#4",
                    "midi": 63,
                    "time": 316.57210500000616,
                    "velocity": 0.2125984251968504,
                    "duration": 0.10623225000000502
                },
                {
                    "name": "C4",
                    "midi": 60,
                    "time": 316.67833725000617,
                    "velocity": 0.1732283464566929,
                    "duration": 0.10623225000000502
                },
                {
                    "name": "A3",
                    "midi": 57,
                    "time": 316.78456950000617,
                    "velocity": 0.1732283464566929,
                    "duration": 0.10623225000000502
                },
                {
                    "name": "F3",
                    "midi": 53,
                    "time": 316.8908017500062,
                    "velocity": 0.1732283464566929,
                    "duration": 0.10623225000000502
                },
                {
                    "name": "D#4",
                    "midi": 63,
                    "time": 316.9970340000062,
                    "velocity": 0.2125984251968504,
                    "duration": 0.10623225000000502
                },
                {
                    "name": "C4",
                    "midi": 60,
                    "time": 317.1032662500062,
                    "velocity": 0.18110236220472442,
                    "duration": 0.10623225000000502
                },
                {
                    "name": "A3",
                    "midi": 57,
                    "time": 317.2094985000062,
                    "velocity": 0.18110236220472442,
                    "duration": 0.10623225000000502
                },
                {
                    "name": "F3",
                    "midi": 53,
                    "time": 317.3157307500062,
                    "velocity": 0.1732283464566929,
                    "duration": 0.10623225000000502
                },
                {
                    "name": "D#4",
                    "midi": 63,
                    "time": 317.4219630000062,
                    "velocity": 0.2125984251968504,
                    "duration": 0.10623225000000502
                },
                {
                    "name": "C4",
                    "midi": 60,
                    "time": 317.5281952500062,
                    "velocity": 0.1732283464566929,
                    "duration": 0.10623225000000502
                },
                {
                    "name": "A3",
                    "midi": 57,
                    "time": 317.6344275000062,
                    "velocity": 0.1732283464566929,
                    "duration": 0.10623225000000502
                },
                {
                    "name": "F3",
                    "midi": 53,
                    "time": 317.7406597500062,
                    "velocity": 0.1732283464566929,
                    "duration": 0.10623225000000502
                },
                {
                    "name": "D#4",
                    "midi": 63,
                    "time": 317.8468920000062,
                    "velocity": 0.2283464566929134,
                    "duration": 0.10623225000000502
                },
                {
                    "name": "C4",
                    "midi": 60,
                    "time": 317.9531242500062,
                    "velocity": 0.1732283464566929,
                    "duration": 0.10623225000000502
                },
                {
                    "name": "A3",
                    "midi": 57,
                    "time": 318.05935650000623,
                    "velocity": 0.1732283464566929,
                    "duration": 0.10623225000000502
                },
                {
                    "name": "F3",
                    "midi": 53,
                    "time": 318.16558875000624,
                    "velocity": 0.1732283464566929,
                    "duration": 0.10623225000000502
                },
                {
                    "name": "D#4",
                    "midi": 63,
                    "time": 318.27182100000624,
                    "velocity": 0.2204724409448819,
                    "duration": 0.10623225000000502
                },
                {
                    "name": "C4",
                    "midi": 60,
                    "time": 318.37805325000625,
                    "velocity": 0.18110236220472442,
                    "duration": 0.10623225000000502
                },
                {
                    "name": "A3",
                    "midi": 57,
                    "time": 318.48428550000625,
                    "velocity": 0.18110236220472442,
                    "duration": 0.10623225000000502
                },
                {
                    "name": "F3",
                    "midi": 53,
                    "time": 318.59051775000626,
                    "velocity": 0.18110236220472442,
                    "duration": 0.10623225000000502
                },
                {
                    "name": "D#4",
                    "midi": 63,
                    "time": 318.69675000000626,
                    "velocity": 0.2204724409448819,
                    "duration": 0.10623225000000502
                },
                {
                    "name": "C4",
                    "midi": 60,
                    "time": 318.80298225000627,
                    "velocity": 0.1889763779527559,
                    "duration": 0.10623225000000502
                },
                {
                    "name": "A3",
                    "midi": 57,
                    "time": 318.90921450000627,
                    "velocity": 0.1889763779527559,
                    "duration": 0.10623225000000502
                },
                {
                    "name": "F3",
                    "midi": 53,
                    "time": 319.0154467500063,
                    "velocity": 0.1889763779527559,
                    "duration": 0.10623225000000502
                },
                {
                    "name": "D#4",
                    "midi": 63,
                    "time": 319.1216790000063,
                    "velocity": 0.2283464566929134,
                    "duration": 0.10623225000000502
                },
                {
                    "name": "C4",
                    "midi": 60,
                    "time": 319.2279112500063,
                    "velocity": 0.1889763779527559,
                    "duration": 0.10623225000000502
                },
                {
                    "name": "A3",
                    "midi": 57,
                    "time": 319.3341435000063,
                    "velocity": 0.1889763779527559,
                    "duration": 0.10623225000000502
                },
                {
                    "name": "F3",
                    "midi": 53,
                    "time": 319.4403757500063,
                    "velocity": 0.1889763779527559,
                    "duration": 0.10623225000000502
                },
                {
                    "name": "D#4",
                    "midi": 63,
                    "time": 319.5466080000063,
                    "velocity": 0.25984251968503935,
                    "duration": 0.10623225000000502
                },
                {
                    "name": "C4",
                    "midi": 60,
                    "time": 319.6528402500063,
                    "velocity": 0.1968503937007874,
                    "duration": 0.10623225000000502
                },
                {
                    "name": "A3",
                    "midi": 57,
                    "time": 319.7590725000063,
                    "velocity": 0.1968503937007874,
                    "duration": 0.10623225000000502
                },
                {
                    "name": "F3",
                    "midi": 53,
                    "time": 319.8653047500063,
                    "velocity": 0.1968503937007874,
                    "duration": 0.10623225000000502
                },
                {
                    "name": "D#4",
                    "midi": 63,
                    "time": 319.9715370000063,
                    "velocity": 0.25196850393700787,
                    "duration": 0.10623225000000502
                },
                {
                    "name": "C4",
                    "midi": 60,
                    "time": 320.0777692500063,
                    "velocity": 0.2047244094488189,
                    "duration": 0.10623225000000502
                },
                {
                    "name": "A3",
                    "midi": 57,
                    "time": 320.18400150000633,
                    "velocity": 0.2047244094488189,
                    "duration": 0.10623225000000502
                },
                {
                    "name": "F3",
                    "midi": 53,
                    "time": 320.29023375000634,
                    "velocity": 0.2047244094488189,
                    "duration": 0.10623225000000502
                },
                {
                    "name": "D#4",
                    "midi": 63,
                    "time": 320.39646600000634,
                    "velocity": 0.25196850393700787,
                    "duration": 0.10623225000000502
                },
                {
                    "name": "C4",
                    "midi": 60,
                    "time": 320.50269825000635,
                    "velocity": 0.2204724409448819,
                    "duration": 0.10623225000000502
                },
                {
                    "name": "A3",
                    "midi": 57,
                    "time": 320.60893050000635,
                    "velocity": 0.2204724409448819,
                    "duration": 0.10623225000000502
                },
                {
                    "name": "F3",
                    "midi": 53,
                    "time": 320.71516275000636,
                    "velocity": 0.2125984251968504,
                    "duration": 0.10623225000000502
                },
                {
                    "name": "D#4",
                    "midi": 63,
                    "time": 320.82139500000636,
                    "velocity": 0.25984251968503935,
                    "duration": 0.10623225000000502
                },
                {
                    "name": "C4",
                    "midi": 60,
                    "time": 320.92762725000637,
                    "velocity": 0.2204724409448819,
                    "duration": 0.10623225000000502
                },
                {
                    "name": "A3",
                    "midi": 57,
                    "time": 321.0338595000064,
                    "velocity": 0.2204724409448819,
                    "duration": 0.10623225000000502
                },
                {
                    "name": "F3",
                    "midi": 53,
                    "time": 321.1400917500064,
                    "velocity": 0.2204724409448819,
                    "duration": 0.10623225000000502
                },
                {
                    "name": "D#4",
                    "midi": 63,
                    "time": 321.2463240000064,
                    "velocity": 0.2992125984251969,
                    "duration": 0.10623225000000502
                },
                {
                    "name": "C4",
                    "midi": 60,
                    "time": 321.3525562500064,
                    "velocity": 0.2283464566929134,
                    "duration": 0.10623225000000502
                },
                {
                    "name": "A3",
                    "midi": 57,
                    "time": 321.4587885000064,
                    "velocity": 0.2283464566929134,
                    "duration": 0.10623225000000502
                },
                {
                    "name": "F3",
                    "midi": 53,
                    "time": 321.5650207500064,
                    "velocity": 0.2283464566929134,
                    "duration": 0.10623225000000502
                },
                {
                    "name": "D#4",
                    "midi": 63,
                    "time": 321.6712530000064,
                    "velocity": 0.29133858267716534,
                    "duration": 0.10623225000000502
                },
                {
                    "name": "C4",
                    "midi": 60,
                    "time": 321.7774852500064,
                    "velocity": 0.23622047244094488,
                    "duration": 0.10623225000000502
                },
                {
                    "name": "A3",
                    "midi": 57,
                    "time": 321.8837175000064,
                    "velocity": 0.23622047244094488,
                    "duration": 0.10623225000000502
                },
                {
                    "name": "F3",
                    "midi": 53,
                    "time": 321.9899497500064,
                    "velocity": 0.23622047244094488,
                    "duration": 0.10623225000000502
                },
                {
                    "name": "D#4",
                    "midi": 63,
                    "time": 322.0961820000064,
                    "velocity": 0.29133858267716534,
                    "duration": 0.10623225000000502
                },
                {
                    "name": "C4",
                    "midi": 60,
                    "time": 322.2024142500064,
                    "velocity": 0.25196850393700787,
                    "duration": 0.10623225000000502
                },
                {
                    "name": "A3",
                    "midi": 57,
                    "time": 322.30864650000643,
                    "velocity": 0.25984251968503935,
                    "duration": 0.10623225000000502
                },
                {
                    "name": "F3",
                    "midi": 53,
                    "time": 322.41487875000644,
                    "velocity": 0.25196850393700787,
                    "duration": 0.10623225000000502
                },
                {
                    "name": "D#4",
                    "midi": 63,
                    "time": 322.52111100000644,
                    "velocity": 0.2992125984251969,
                    "duration": 0.10623225000000502
                },
                {
                    "name": "C4",
                    "midi": 60,
                    "time": 322.62734325000645,
                    "velocity": 0.25196850393700787,
                    "duration": 0.10623225000000502
                },
                {
                    "name": "A3",
                    "midi": 57,
                    "time": 322.73357550000645,
                    "velocity": 0.25984251968503935,
                    "duration": 0.10623225000000502
                },
                {
                    "name": "F3",
                    "midi": 53,
                    "time": 322.83980775000646,
                    "velocity": 0.25984251968503935,
                    "duration": 0.10623225000000502
                },
                {
                    "name": "D#4",
                    "midi": 63,
                    "time": 322.94604000000646,
                    "velocity": 0.3464566929133858,
                    "duration": 0.10623225000000502
                },
                {
                    "name": "C4",
                    "midi": 60,
                    "time": 323.05227225000647,
                    "velocity": 0.25984251968503935,
                    "duration": 0.10623225000000502
                },
                {
                    "name": "A3",
                    "midi": 57,
                    "time": 323.1585045000065,
                    "velocity": 0.2677165354330709,
                    "duration": 0.10623225000000502
                },
                {
                    "name": "F3",
                    "midi": 53,
                    "time": 323.2647367500065,
                    "velocity": 0.2677165354330709,
                    "duration": 0.10623225000000502
                },
                {
                    "name": "D#4",
                    "midi": 63,
                    "time": 323.3709690000065,
                    "velocity": 0.33858267716535434,
                    "duration": 0.10623225000000502
                },
                {
                    "name": "C4",
                    "midi": 60,
                    "time": 323.4772012500065,
                    "velocity": 0.28346456692913385,
                    "duration": 0.10623225000000502
                },
                {
                    "name": "A3",
                    "midi": 57,
                    "time": 323.5834335000065,
                    "velocity": 0.30708661417322836,
                    "duration": 0.10623225000000502
                },
                {
                    "name": "F3",
                    "midi": 53,
                    "time": 323.6896657500065,
                    "velocity": 0.3228346456692913,
                    "duration": 0.10623225000000502
                },
                {
                    "name": "D#4",
                    "midi": 63,
                    "time": 323.7958980000065,
                    "velocity": 0.41732283464566927,
                    "duration": 0.10623225000000502
                },
                {
                    "name": "C4",
                    "midi": 60,
                    "time": 323.9021302500065,
                    "velocity": 0.33858267716535434,
                    "duration": 0.10623225000000502
                },
                {
                    "name": "A3",
                    "midi": 57,
                    "time": 324.0083625000065,
                    "velocity": 0.3464566929133858,
                    "duration": 0.10623225000000502
                },
                {
                    "name": "F3",
                    "midi": 53,
                    "time": 324.1145947500065,
                    "velocity": 0.3464566929133858,
                    "duration": 0.10623225000000502
                },
                {
                    "name": "D#4",
                    "midi": 63,
                    "time": 324.2208270000065,
                    "velocity": 0.4330708661417323,
                    "duration": 0.10623225000000502
                },
                {
                    "name": "C4",
                    "midi": 60,
                    "time": 324.3270592500065,
                    "velocity": 0.3543307086614173,
                    "duration": 0.10623225000000502
                },
                {
                    "name": "A3",
                    "midi": 57,
                    "time": 324.43329150000653,
                    "velocity": 0.3543307086614173,
                    "duration": 0.10623225000000502
                },
                {
                    "name": "F3",
                    "midi": 53,
                    "time": 324.53952375000654,
                    "velocity": 0.3543307086614173,
                    "duration": 0.10623225000000502
                },
                {
                    "name": "D#4",
                    "midi": 63,
                    "time": 324.64575600000654,
                    "velocity": 0.4409448818897638,
                    "duration": 0.10623225000000502
                },
                {
                    "name": "C4",
                    "midi": 60,
                    "time": 324.75198825000655,
                    "velocity": 0.36220472440944884,
                    "duration": 0.10623225000000502
                },
                {
                    "name": "A3",
                    "midi": 57,
                    "time": 324.85822050000655,
                    "velocity": 0.36220472440944884,
                    "duration": 0.10623225000000502
                },
                {
                    "name": "F3",
                    "midi": 53,
                    "time": 324.96445275000656,
                    "velocity": 0.36220472440944884,
                    "duration": 0.10623225000000502
                },
                {
                    "name": "D#4",
                    "midi": 63,
                    "time": 325.07068500000656,
                    "velocity": 0.44881889763779526,
                    "duration": 0.10623225000000502
                },
                {
                    "name": "C4",
                    "midi": 60,
                    "time": 325.17691725000657,
                    "velocity": 0.3700787401574803,
                    "duration": 0.10623225000000502
                },
                {
                    "name": "A3",
                    "midi": 57,
                    "time": 325.2831495000066,
                    "velocity": 0.3700787401574803,
                    "duration": 0.10623225000000502
                },
                {
                    "name": "F3",
                    "midi": 53,
                    "time": 325.3893817500066,
                    "velocity": 0.3700787401574803,
                    "duration": 0.10623225000000502
                },
                {
                    "name": "D#4",
                    "midi": 63,
                    "time": 325.4956140000066,
                    "velocity": 0.4645669291338583,
                    "duration": 0.10623225000000502
                },
                {
                    "name": "C4",
                    "midi": 60,
                    "time": 325.6018462500066,
                    "velocity": 0.3779527559055118,
                    "duration": 0.10623225000000502
                },
                {
                    "name": "A3",
                    "midi": 57,
                    "time": 325.7080785000066,
                    "velocity": 0.3779527559055118,
                    "duration": 0.10623225000000502
                },
                {
                    "name": "F3",
                    "midi": 53,
                    "time": 325.8143107500066,
                    "velocity": 0.3858267716535433,
                    "duration": 0.10623225000000502
                },
                {
                    "name": "D#4",
                    "midi": 63,
                    "time": 325.9205430000066,
                    "velocity": 0.47244094488188976,
                    "duration": 0.10623225000000502
                },
                {
                    "name": "C4",
                    "midi": 60,
                    "time": 326.0267752500066,
                    "velocity": 0.3858267716535433,
                    "duration": 0.10623225000000502
                },
                {
                    "name": "A3",
                    "midi": 57,
                    "time": 326.1330075000066,
                    "velocity": 0.3858267716535433,
                    "duration": 0.10623225000000502
                },
                {
                    "name": "F3",
                    "midi": 53,
                    "time": 326.2392397500066,
                    "velocity": 0.3937007874015748,
                    "duration": 0.10623225000000502
                },
                {
                    "name": "E3",
                    "midi": 52,
                    "time": 326.55793650000663,
                    "velocity": 0.4251968503937008,
                    "duration": 0.2230877250000276
                },
                {
                    "name": "F3",
                    "midi": 53,
                    "time": 326.77040100000664,
                    "velocity": 0.3464566929133858,
                    "duration": 0.2230877250000276
                },
                {
                    "name": "G3",
                    "midi": 55,
                    "time": 326.98286550000665,
                    "velocity": 0.3464566929133858,
                    "duration": 0.2230877250000276
                },
                {
                    "name": "A3",
                    "midi": 57,
                    "time": 327.19533000000666,
                    "velocity": 0.41732283464566927,
                    "duration": 0.2230877250000276
                },
                {
                    "name": "A#3",
                    "midi": 58,
                    "time": 327.4077945000067,
                    "velocity": 0.31496062992125984,
                    "duration": 0.2230877250000276
                },
                {
                    "name": "C4",
                    "midi": 60,
                    "time": 327.6202590000067,
                    "velocity": 0.31496062992125984,
                    "duration": 0.2230877250000276
                },
                {
                    "name": "D4",
                    "midi": 62,
                    "time": 327.8327235000067,
                    "velocity": 0.31496062992125984,
                    "duration": 0.2230877250000276
                },
                {
                    "name": "D#4",
                    "midi": 63,
                    "time": 328.0451880000067,
                    "velocity": 0.4094488188976378,
                    "duration": 0.2230877250000276
                },
                {
                    "name": "E4",
                    "midi": 64,
                    "time": 328.2576525000067,
                    "velocity": 0.3543307086614173,
                    "duration": 0.2230877250000276
                },
                {
                    "name": "F4",
                    "midi": 65,
                    "time": 328.4701170000067,
                    "velocity": 0.33858267716535434,
                    "duration": 0.2230877250000276
                },
                {
                    "name": "G4",
                    "midi": 67,
                    "time": 328.68258150000673,
                    "velocity": 0.3228346456692913,
                    "duration": 0.2230877250000276
                },
                {
                    "name": "A4",
                    "midi": 69,
                    "time": 328.89504600000674,
                    "velocity": 0.3543307086614173,
                    "duration": 0.2230877250000276
                },
                {
                    "name": "A#4",
                    "midi": 70,
                    "time": 329.10751050000675,
                    "velocity": 0.3228346456692913,
                    "duration": 0.2230877250000276
                },
                {
                    "name": "C5",
                    "midi": 72,
                    "time": 329.31997500000676,
                    "velocity": 0.2992125984251969,
                    "duration": 0.2230877250000276
                },
                {
                    "name": "D5",
                    "midi": 74,
                    "time": 329.5324395000068,
                    "velocity": 0.2992125984251969,
                    "duration": 0.2230877250000276
                },
                {
                    "name": "D#4",
                    "midi": 63,
                    "time": 329.7449040000068,
                    "velocity": 0.2992125984251969,
                    "duration": 2.762038500000017
                },
                {
                    "name": "C5",
                    "midi": 72,
                    "time": 329.7449040000068,
                    "velocity": 0.2992125984251969,
                    "duration": 2.762038500000017
                },
                {
                    "name": "D#5",
                    "midi": 75,
                    "time": 329.7449040000068,
                    "velocity": 0.3543307086614173,
                    "duration": 2.762038500000017
                },
                {
                    "name": "A#3",
                    "midi": 58,
                    "time": 332.7194070000068,
                    "velocity": 0.33070866141732286,
                    "duration": 0.10623225000000502
                },
                {
                    "name": "D4",
                    "midi": 62,
                    "time": 332.7194070000068,
                    "velocity": 0.3937007874015748,
                    "duration": 0.4249290000000201
                },
                {
                    "name": "A3",
                    "midi": 57,
                    "time": 332.8256392500068,
                    "velocity": 0.31496062992125984,
                    "duration": 0.10623225000000502
                },
                {
                    "name": "A#3",
                    "midi": 58,
                    "time": 332.9318715000068,
                    "velocity": 0.3543307086614173,
                    "duration": 0.10623225000000502
                },
                {
                    "name": "F3",
                    "midi": 53,
                    "time": 333.0381037500068,
                    "velocity": 0.30708661417322836,
                    "duration": 0.10623225000000502
                },
                {
                    "name": "D4",
                    "midi": 62,
                    "time": 333.14433600000683,
                    "velocity": 0.2755905511811024,
                    "duration": 0.07967418750001798
                },
                {
                    "name": "F4",
                    "midi": 65,
                    "time": 333.14433600000683,
                    "velocity": 0.33070866141732286,
                    "duration": 0.07967418750001798
                },
                {
                    "name": "A#3",
                    "midi": 58,
                    "time": 333.56926500000685,
                    "velocity": 0.25196850393700787,
                    "duration": 0.07967418750001798
                },
                {
                    "name": "D4",
                    "midi": 62,
                    "time": 333.56926500000685,
                    "velocity": 0.2992125984251969,
                    "duration": 0.07967418750001798
                },
                {
                    "name": "A#3",
                    "midi": 58,
                    "time": 334.4191230000069,
                    "velocity": 0.33070866141732286,
                    "duration": 0.10623225000000502
                },
                {
                    "name": "D4",
                    "midi": 62,
                    "time": 334.4191230000069,
                    "velocity": 0.3937007874015748,
                    "duration": 0.4249290000000201
                },
                {
                    "name": "A3",
                    "midi": 57,
                    "time": 334.5253552500069,
                    "velocity": 0.31496062992125984,
                    "duration": 0.10623225000000502
                },
                {
                    "name": "A#3",
                    "midi": 58,
                    "time": 334.6315875000069,
                    "velocity": 0.3543307086614173,
                    "duration": 0.10623225000000502
                },
                {
                    "name": "F3",
                    "midi": 53,
                    "time": 334.7378197500069,
                    "velocity": 0.30708661417322836,
                    "duration": 0.10623225000000502
                },
                {
                    "name": "D4",
                    "midi": 62,
                    "time": 334.8440520000069,
                    "velocity": 0.2755905511811024,
                    "duration": 0.07967418750001798
                },
                {
                    "name": "F4",
                    "midi": 65,
                    "time": 334.8440520000069,
                    "velocity": 0.33070866141732286,
                    "duration": 0.07967418750001798
                },
                {
                    "name": "A#3",
                    "midi": 58,
                    "time": 335.26898100000693,
                    "velocity": 0.25196850393700787,
                    "duration": 0.07967418750001798
                },
                {
                    "name": "D4",
                    "midi": 62,
                    "time": 335.26898100000693,
                    "velocity": 0.2992125984251969,
                    "duration": 0.07967418750001798
                },
                {
                    "name": "D4",
                    "midi": 62,
                    "time": 336.118839000007,
                    "velocity": 0.3937007874015748,
                    "duration": 0.21246450000001005
                },
                {
                    "name": "A#3",
                    "midi": 58,
                    "time": 336.118839000007,
                    "velocity": 0.33070866141732286,
                    "duration": 0.11685547500002258
                },
                {
                    "name": "A3",
                    "midi": 57,
                    "time": 336.225071250007,
                    "velocity": 0.31496062992125984,
                    "duration": 0.11685547500002258
                },
                {
                    "name": "A#3",
                    "midi": 58,
                    "time": 336.331303500007,
                    "velocity": 0.36220472440944884,
                    "duration": 0.11685547500002258
                },
                {
                    "name": "F3",
                    "midi": 53,
                    "time": 336.437535750007,
                    "velocity": 0.31496062992125984,
                    "duration": 0.10623225000000502
                },
                {
                    "name": "F4",
                    "midi": 65,
                    "time": 336.543768000007,
                    "velocity": 0.41732283464566927,
                    "duration": 0.21246450000001005
                },
                {
                    "name": "D4",
                    "midi": 62,
                    "time": 336.543768000007,
                    "velocity": 0.3464566929133858,
                    "duration": 0.11685547500002258
                },
                {
                    "name": "C#4",
                    "midi": 61,
                    "time": 336.650000250007,
                    "velocity": 0.33070866141732286,
                    "duration": 0.11685547500002258
                },
                {
                    "name": "D4",
                    "midi": 62,
                    "time": 336.756232500007,
                    "velocity": 0.3858267716535433,
                    "duration": 0.11685547500002258
                },
                {
                    "name": "A#3",
                    "midi": 58,
                    "time": 336.862464750007,
                    "velocity": 0.33070866141732286,
                    "duration": 0.10623225000000502
                },
                {
                    "name": "F4",
                    "midi": 65,
                    "time": 336.968697000007,
                    "velocity": 0.3700787401574803,
                    "duration": 0.11685547500002258
                },
                {
                    "name": "A#4",
                    "midi": 70,
                    "time": 336.968697000007,
                    "velocity": 0.4409448818897638,
                    "duration": 0.21246450000001005
                },
                {
                    "name": "E4",
                    "midi": 64,
                    "time": 337.074929250007,
                    "velocity": 0.3543307086614173,
                    "duration": 0.11685547500002258
                },
                {
                    "name": "F4",
                    "midi": 65,
                    "time": 337.181161500007,
                    "velocity": 0.4015748031496063,
                    "duration": 0.11685547500002258
                },
                {
                    "name": "D4",
                    "midi": 62,
                    "time": 337.287393750007,
                    "velocity": 0.3543307086614173,
                    "duration": 0.10623225000000502
                },
                {
                    "name": "A#4",
                    "midi": 70,
                    "time": 337.39362600000703,
                    "velocity": 0.3858267716535433,
                    "duration": 0.11685547500002258
                },
                {
                    "name": "D5",
                    "midi": 74,
                    "time": 337.39362600000703,
                    "velocity": 0.4645669291338583,
                    "duration": 0.21246450000001005
                },
                {
                    "name": "A4",
                    "midi": 69,
                    "time": 337.49985825000704,
                    "velocity": 0.3700787401574803,
                    "duration": 0.11685547500002258
                },
                {
                    "name": "A#4",
                    "midi": 70,
                    "time": 337.60609050000704,
                    "velocity": 0.4251968503937008,
                    "duration": 0.11685547500002258
                },
                {
                    "name": "F4",
                    "midi": 65,
                    "time": 337.71232275000705,
                    "velocity": 0.3700787401574803,
                    "duration": 0.10623225000000502
                },
                {
                    "name": "D5",
                    "midi": 74,
                    "time": 337.81855500000705,
                    "velocity": 0.4094488188976378,
                    "duration": 0.11685547500002258
                },
                {
                    "name": "F5",
                    "midi": 77,
                    "time": 337.81855500000705,
                    "velocity": 0.4881889763779528,
                    "duration": 0.21246450000001005
                },
                {
                    "name": "C#5",
                    "midi": 73,
                    "time": 337.92478725000706,
                    "velocity": 0.3937007874015748,
                    "duration": 0.11685547500002258
                },
                {
                    "name": "D5",
                    "midi": 74,
                    "time": 338.03101950000706,
                    "velocity": 0.44881889763779526,
                    "duration": 0.11685547500002258
                },
                {
                    "name": "A#4",
                    "midi": 70,
                    "time": 338.13725175000707,
                    "velocity": 0.3858267716535433,
                    "duration": 0.10623225000000502
                },
                {
                    "name": "A#5",
                    "midi": 82,
                    "time": 338.2434840000071,
                    "velocity": 0.5669291338582677,
                    "duration": 1.2747870000000034
                },
                {
                    "name": "A5",
                    "midi": 81,
                    "time": 339.5182710000071,
                    "velocity": 0.47244094488188976,
                    "duration": 0.10623225000000502
                },
                {
                    "name": "A#5",
                    "midi": 82,
                    "time": 339.6245032500071,
                    "velocity": 0.44881889763779526,
                    "duration": 0.10623225000000502
                },
                {
                    "name": "C6",
                    "midi": 84,
                    "time": 339.7307355000071,
                    "velocity": 0.47244094488188976,
                    "duration": 0.10623225000000502
                },
                {
                    "name": "A#5",
                    "midi": 82,
                    "time": 339.8369677500071,
                    "velocity": 0.4251968503937008,
                    "duration": 0.10623225000000502
                },
                {
                    "name": "A5",
                    "midi": 81,
                    "time": 339.9432000000071,
                    "velocity": 0.47244094488188976,
                    "duration": 0.21246450000001005
                },
                {
                    "name": "G5",
                    "midi": 79,
                    "time": 340.1556645000071,
                    "velocity": 0.4015748031496063,
                    "duration": 0.21246450000001005
                },
                {
                    "name": "F5",
                    "midi": 77,
                    "time": 340.3681290000071,
                    "velocity": 0.4251968503937008,
                    "duration": 0.21246450000001005
                },
                {
                    "name": "D#5",
                    "midi": 75,
                    "time": 340.5805935000071,
                    "velocity": 0.3937007874015748,
                    "duration": 0.21246450000001005
                },
                {
                    "name": "D5",
                    "midi": 74,
                    "time": 340.79305800000714,
                    "velocity": 0.4645669291338583,
                    "duration": 0.21246450000001005
                },
                {
                    "name": "C5",
                    "midi": 72,
                    "time": 341.00552250000715,
                    "velocity": 0.3779527559055118,
                    "duration": 0.21246450000001005
                },
                {
                    "name": "G5",
                    "midi": 79,
                    "time": 341.21798700000716,
                    "velocity": 0.4409448818897638,
                    "duration": 0.21246450000001005
                },
                {
                    "name": "F5",
                    "midi": 77,
                    "time": 341.43045150000717,
                    "velocity": 0.3700787401574803,
                    "duration": 0.21246450000001005
                },
                {
                    "name": "D#5",
                    "midi": 75,
                    "time": 341.6429160000072,
                    "velocity": 0.4251968503937008,
                    "duration": 0.4249290000000201
                },
                {
                    "name": "D5",
                    "midi": 74,
                    "time": 342.0678450000072,
                    "velocity": 0.3700787401574803,
                    "duration": 0.4249290000000201
                },
                {
                    "name": "A4",
                    "midi": 69,
                    "time": 342.91770300000724,
                    "velocity": 0.4566929133858268,
                    "duration": 0.10623225000000502
                },
                {
                    "name": "A#4",
                    "midi": 70,
                    "time": 343.02393525000724,
                    "velocity": 0.4251968503937008,
                    "duration": 0.10623225000000502
                },
                {
                    "name": "C5",
                    "midi": 72,
                    "time": 343.13016750000725,
                    "velocity": 0.4566929133858268,
                    "duration": 0.10623225000000502
                },
                {
                    "name": "A#4",
                    "midi": 70,
                    "time": 343.23639975000725,
                    "velocity": 0.4251968503937008,
                    "duration": 0.10623225000000502
                },
                {
                    "name": "G#4",
                    "midi": 68,
                    "time": 343.34263200000726,
                    "velocity": 0.47244094488188976,
                    "duration": 0.21246450000001005
                },
                {
                    "name": "G4",
                    "midi": 67,
                    "time": 343.55509650000727,
                    "velocity": 0.4251968503937008,
                    "duration": 0.21246450000001005
                },
                {
                    "name": "F4",
                    "midi": 65,
                    "time": 343.7675610000073,
                    "velocity": 0.5196850393700787,
                    "duration": 0.21246450000001005
                },
                {
                    "name": "D#4",
                    "midi": 63,
                    "time": 343.9800255000073,
                    "velocity": 0.48031496062992124,
                    "duration": 0.21246450000001005
                },
                {
                    "name": "D4",
                    "midi": 62,
                    "time": 344.1924900000073,
                    "velocity": 0.5433070866141733,
                    "duration": 0.21246450000001005
                },
                {
                    "name": "C4",
                    "midi": 60,
                    "time": 344.4049545000073,
                    "velocity": 0.4881889763779528,
                    "duration": 0.21246450000001005
                },
                {
                    "name": "D#4",
                    "midi": 63,
                    "time": 344.6174190000073,
                    "velocity": 0.5748031496062992,
                    "duration": 0.21246450000001005
                },
                {
                    "name": "A3",
                    "midi": 57,
                    "time": 344.8298835000073,
                    "velocity": 0.49606299212598426,
                    "duration": 0.21246450000001005
                },
                {
                    "name": "A#3",
                    "midi": 58,
                    "time": 345.04234800000734,
                    "velocity": 0.6220472440944882,
                    "duration": 0.10623225000000502
                },
                {
                    "name": "D4",
                    "midi": 62,
                    "time": 345.25481250000735,
                    "velocity": 0.5354330708661418,
                    "duration": 0.10623225000000502
                },
                {
                    "name": "C4",
                    "midi": 60,
                    "time": 345.36104475000735,
                    "velocity": 0.5118110236220472,
                    "duration": 0.10623225000000502
                },
                {
                    "name": "A#3",
                    "midi": 58,
                    "time": 345.46727700000736,
                    "velocity": 0.5590551181102362,
                    "duration": 0.10623225000000502
                },
                {
                    "name": "A3",
                    "midi": 57,
                    "time": 345.57350925000736,
                    "velocity": 0.5118110236220472,
                    "duration": 0.10623225000000502
                },
                {
                    "name": "A#3",
                    "midi": 58,
                    "time": 345.67974150000737,
                    "velocity": 0.5590551181102362,
                    "duration": 0.10623225000000502
                },
                {
                    "name": "G3",
                    "midi": 55,
                    "time": 345.7859737500074,
                    "velocity": 0.5118110236220472,
                    "duration": 0.10623225000000502
                },
                {
                    "name": "F3",
                    "midi": 53,
                    "time": 345.8922060000074,
                    "velocity": 0.6220472440944882,
                    "duration": 0.10623225000000502
                },
                {
                    "name": "G4",
                    "midi": 67,
                    "time": 346.1046705000074,
                    "velocity": 0.5354330708661418,
                    "duration": 0.10623225000000502
                },
                {
                    "name": "F4",
                    "midi": 65,
                    "time": 346.2109027500074,
                    "velocity": 0.5118110236220472,
                    "duration": 0.10623225000000502
                },
                {
                    "name": "D#4",
                    "midi": 63,
                    "time": 346.3171350000074,
                    "velocity": 0.5590551181102362,
                    "duration": 0.10623225000000502
                },
                {
                    "name": "D4",
                    "midi": 62,
                    "time": 346.4233672500074,
                    "velocity": 0.5118110236220472,
                    "duration": 0.10623225000000502
                },
                {
                    "name": "D#4",
                    "midi": 63,
                    "time": 346.5295995000074,
                    "velocity": 0.5590551181102362,
                    "duration": 0.10623225000000502
                },
                {
                    "name": "C4",
                    "midi": 60,
                    "time": 346.6358317500074,
                    "velocity": 0.5118110236220472,
                    "duration": 0.10623225000000502
                },
                {
                    "name": "A#3",
                    "midi": 58,
                    "time": 346.7420640000074,
                    "velocity": 0.6220472440944882,
                    "duration": 0.10623225000000502
                },
                {
                    "name": "D5",
                    "midi": 74,
                    "time": 346.9545285000074,
                    "velocity": 0.5354330708661418,
                    "duration": 0.10623225000000502
                },
                {
                    "name": "C5",
                    "midi": 72,
                    "time": 347.06076075000743,
                    "velocity": 0.5118110236220472,
                    "duration": 0.10623225000000502
                },
                {
                    "name": "A#4",
                    "midi": 70,
                    "time": 347.16699300000744,
                    "velocity": 0.5590551181102362,
                    "duration": 0.10623225000000502
                },
                {
                    "name": "A4",
                    "midi": 69,
                    "time": 347.27322525000744,
                    "velocity": 0.5118110236220472,
                    "duration": 0.10623225000000502
                },
                {
                    "name": "A#4",
                    "midi": 70,
                    "time": 347.37945750000745,
                    "velocity": 0.5590551181102362,
                    "duration": 0.10623225000000502
                },
                {
                    "name": "G4",
                    "midi": 67,
                    "time": 347.48568975000745,
                    "velocity": 0.5118110236220472,
                    "duration": 0.10623225000000502
                },
                {
                    "name": "F4",
                    "midi": 65,
                    "time": 347.59192200000746,
                    "velocity": 0.6220472440944882,
                    "duration": 0.10623225000000502
                },
                {
                    "name": "G5",
                    "midi": 79,
                    "time": 347.80438650000747,
                    "velocity": 0.6141732283464567,
                    "duration": 0.10623225000000502
                },
                {
                    "name": "F5",
                    "midi": 77,
                    "time": 347.9106187500075,
                    "velocity": 0.5826771653543307,
                    "duration": 0.10623225000000502
                },
                {
                    "name": "D#5",
                    "midi": 75,
                    "time": 348.0168510000075,
                    "velocity": 0.6377952755905512,
                    "duration": 0.10623225000000502
                },
                {
                    "name": "D5",
                    "midi": 74,
                    "time": 348.1230832500075,
                    "velocity": 0.5826771653543307,
                    "duration": 0.10623225000000502
                },
                {
                    "name": "D#5",
                    "midi": 75,
                    "time": 348.2293155000075,
                    "velocity": 0.6377952755905512,
                    "duration": 0.10623225000000502
                },
                {
                    "name": "C5",
                    "midi": 72,
                    "time": 348.3355477500075,
                    "velocity": 0.5826771653543307,
                    "duration": 0.10623225000000502
                },
                {
                    "name": "A#4",
                    "midi": 70,
                    "time": 348.4417800000075,
                    "velocity": 0.7086614173228346,
                    "duration": 0.10623225000000502
                },
                {
                    "name": "C5",
                    "midi": 72,
                    "time": 348.6542445000075,
                    "velocity": 0.5354330708661418,
                    "duration": 0.10623225000000502
                },
                {
                    "name": "D5",
                    "midi": 74,
                    "time": 348.7604767500075,
                    "velocity": 0.5354330708661418,
                    "duration": 0.10623225000000502
                },
                {
                    "name": "D#5",
                    "midi": 75,
                    "time": 348.8667090000075,
                    "velocity": 0.6062992125984252,
                    "duration": 0.10623225000000502
                },
                {
                    "name": "F5",
                    "midi": 77,
                    "time": 348.9729412500075,
                    "velocity": 0.5511811023622047,
                    "duration": 0.10623225000000502
                },
                {
                    "name": "G5",
                    "midi": 79,
                    "time": 349.0791735000075,
                    "velocity": 0.5511811023622047,
                    "duration": 0.10623225000000502
                },
                {
                    "name": "A5",
                    "midi": 81,
                    "time": 349.18540575000753,
                    "velocity": 0.5590551181102362,
                    "duration": 0.10623225000000502
                },
                {
                    "name": "A#5",
                    "midi": 82,
                    "time": 349.29163800000754,
                    "velocity": 0.5748031496062992,
                    "duration": 0.026558062499987045
                },
                {
                    "name": "C6",
                    "midi": 84,
                    "time": 349.3181960625075,
                    "velocity": 0.5118110236220472,
                    "duration": 0.026558062499987045
                },
                {
                    "name": "A#5",
                    "midi": 82,
                    "time": 349.3447541250075,
                    "velocity": 0.6377952755905512,
                    "duration": 0.05311612499997409
                },
                {
                    "name": "A5",
                    "midi": 81,
                    "time": 349.3978702500075,
                    "velocity": 0.5669291338582677,
                    "duration": 0.10623225000000502
                },
                {
                    "name": "A#5",
                    "midi": 82,
                    "time": 349.5041025000075,
                    "velocity": 0.5748031496062992,
                    "duration": 0.10623225000000502
                },
                {
                    "name": "C6",
                    "midi": 84,
                    "time": 349.6103347500075,
                    "velocity": 0.5826771653543307,
                    "duration": 0.10623225000000502
                },
                {
                    "name": "D6",
                    "midi": 86,
                    "time": 349.7165670000075,
                    "velocity": 0.5826771653543307,
                    "duration": 0.026558062499987045
                },
                {
                    "name": "D#6",
                    "midi": 87,
                    "time": 349.7431250625075,
                    "velocity": 0.5196850393700787,
                    "duration": 0.026558062499987045
                },
                {
                    "name": "D6",
                    "midi": 86,
                    "time": 349.7696831250075,
                    "velocity": 0.6535433070866141,
                    "duration": 0.10623224999994818
                },
                {
                    "name": "C6",
                    "midi": 84,
                    "time": 349.82279925000745,
                    "velocity": 0.5905511811023622,
                    "duration": 0.10623224999994818
                },
                {
                    "name": "D6",
                    "midi": 86,
                    "time": 349.9290315000074,
                    "velocity": 0.5984251968503937,
                    "duration": 0.10623225000000502
                },
                {
                    "name": "E6",
                    "midi": 88,
                    "time": 350.0352637500074,
                    "velocity": 0.5984251968503937,
                    "duration": 0.10623225000000502
                },
                {
                    "name": "F6",
                    "midi": 89,
                    "time": 350.1414960000074,
                    "velocity": 0.7401574803149606,
                    "duration": 0.10623225000000502
                },
                {
                    "name": "F4",
                    "midi": 65,
                    "time": 350.5664250000074,
                    "velocity": 0.6220472440944882,
                    "duration": 0.10623225000000502
                },
                {
                    "name": "D4",
                    "midi": 62,
                    "time": 352.26614100000745,
                    "velocity": 0.4251968503937008,
                    "duration": 0.10623225000000502
                },
                {
                    "name": "F4",
                    "midi": 65,
                    "time": 352.26614100000745,
                    "velocity": 0.5118110236220472,
                    "duration": 0.4249290000000201
                },
                {
                    "name": "C#4",
                    "midi": 61,
                    "time": 352.37237325000746,
                    "velocity": 0.4094488188976378,
                    "duration": 0.10623225000000502
                },
                {
                    "name": "D4",
                    "midi": 62,
                    "time": 352.47860550000746,
                    "velocity": 0.4566929133858268,
                    "duration": 0.10623225000000502
                },
                {
                    "name": "A#3",
                    "midi": 58,
                    "time": 352.58483775000747,
                    "velocity": 0.3937007874015748,
                    "duration": 0.10623225000000502
                },
                {
                    "name": "F4",
                    "midi": 65,
                    "time": 352.69107000000747,
                    "velocity": 0.5118110236220472,
                    "duration": 0.10623225000000502
                },
                {
                    "name": "D5",
                    "midi": 74,
                    "time": 352.69107000000747,
                    "velocity": 0.5118110236220472,
                    "duration": 0.10623225000000502
                },
                {
                    "name": "D4",
                    "midi": 62,
                    "time": 353.1159990000075,
                    "velocity": 0.4566929133858268,
                    "duration": 0.10623225000000502
                },
                {
                    "name": "A#4",
                    "midi": 70,
                    "time": 353.1159990000075,
                    "velocity": 0.4566929133858268,
                    "duration": 0.10623225000000502
                },
                {
                    "name": "D4",
                    "midi": 62,
                    "time": 353.9658570000075,
                    "velocity": 0.4251968503937008,
                    "duration": 0.10623225000000502
                },
                {
                    "name": "F4",
                    "midi": 65,
                    "time": 353.9658570000075,
                    "velocity": 0.5118110236220472,
                    "duration": 0.4249290000000201
                },
                {
                    "name": "C#4",
                    "midi": 61,
                    "time": 354.0720892500075,
                    "velocity": 0.4094488188976378,
                    "duration": 0.10623225000000502
                },
                {
                    "name": "D4",
                    "midi": 62,
                    "time": 354.1783215000075,
                    "velocity": 0.4566929133858268,
                    "duration": 0.10623225000000502
                },
                {
                    "name": "A#3",
                    "midi": 58,
                    "time": 354.2845537500075,
                    "velocity": 0.3937007874015748,
                    "duration": 0.10623225000000502
                },
                {
                    "name": "F4",
                    "midi": 65,
                    "time": 354.3907860000075,
                    "velocity": 0.5118110236220472,
                    "duration": 0.10623225000000502
                },
                {
                    "name": "D5",
                    "midi": 74,
                    "time": 354.3907860000075,
                    "velocity": 0.5118110236220472,
                    "duration": 0.10623225000000502
                },
                {
                    "name": "D4",
                    "midi": 62,
                    "time": 354.8157150000075,
                    "velocity": 0.4566929133858268,
                    "duration": 0.10623225000000502
                },
                {
                    "name": "A#4",
                    "midi": 70,
                    "time": 354.8157150000075,
                    "velocity": 0.4566929133858268,
                    "duration": 0.10623225000000502
                },
                {
                    "name": "G#5",
                    "midi": 80,
                    "time": 357.79021800000754,
                    "velocity": 0.5905511811023622,
                    "duration": 1.6997160000000235
                },
                {
                    "name": "D5",
                    "midi": 74,
                    "time": 358.6400760000075,
                    "velocity": 0.4409448818897638,
                    "duration": 0.8498580000000402
                },
                {
                    "name": "G5",
                    "midi": 79,
                    "time": 359.06500500000755,
                    "velocity": 0.41732283464566927,
                    "duration": 0.8498580000000402
                },
                {
                    "name": "D#5",
                    "midi": 75,
                    "time": 359.48993400000757,
                    "velocity": 0.3464566929133858,
                    "duration": 0.4249290000000201
                },
                {
                    "name": "C5",
                    "midi": 72,
                    "time": 359.9148630000076,
                    "velocity": 0.3228346456692913,
                    "duration": 0.4249290000000201
                },
                {
                    "name": "F5",
                    "midi": 77,
                    "time": 359.9148630000076,
                    "velocity": 0.3858267716535433,
                    "duration": 0.8498580000000402
                },
                {
                    "name": "D5",
                    "midi": 74,
                    "time": 360.3397920000076,
                    "velocity": 0.4330708661417323,
                    "duration": 0.4249290000000201
                },
                {
                    "name": "B4",
                    "midi": 71,
                    "time": 360.7647210000076,
                    "velocity": 0.3228346456692913,
                    "duration": 0.4249290000000201
                },
                {
                    "name": "D#5",
                    "midi": 75,
                    "time": 360.7647210000076,
                    "velocity": 0.3858267716535433,
                    "duration": 0.8498580000000402
                },
                {
                    "name": "C5",
                    "midi": 72,
                    "time": 361.18965000000765,
                    "velocity": 0.4330708661417323,
                    "duration": 0.4249290000000201
                },
                {
                    "name": "A4",
                    "midi": 69,
                    "time": 361.61457900000767,
                    "velocity": 0.33070866141732286,
                    "duration": 0.4249290000000201
                },
                {
                    "name": "D5",
                    "midi": 74,
                    "time": 361.61457900000767,
                    "velocity": 0.3937007874015748,
                    "duration": 0.8498580000000402
                },
                {
                    "name": "A#4",
                    "midi": 70,
                    "time": 362.0395080000077,
                    "velocity": 0.4330708661417323,
                    "duration": 0.4249290000000201
                },
                {
                    "name": "G4",
                    "midi": 67,
                    "time": 362.4644370000077,
                    "velocity": 0.3228346456692913,
                    "duration": 0.4249290000000201
                },
                {
                    "name": "C5",
                    "midi": 72,
                    "time": 362.4644370000077,
                    "velocity": 0.3858267716535433,
                    "duration": 0.8498580000000402
                },
                {
                    "name": "G#4",
                    "midi": 68,
                    "time": 362.8893660000077,
                    "velocity": 0.4330708661417323,
                    "duration": 0.4249290000000201
                },
                {
                    "name": "F4",
                    "midi": 65,
                    "time": 363.31429500000775,
                    "velocity": 0.33070866141732286,
                    "duration": 0.4249290000000201
                },
                {
                    "name": "A#4",
                    "midi": 70,
                    "time": 363.31429500000775,
                    "velocity": 0.3937007874015748,
                    "duration": 0.8498580000000402
                },
                {
                    "name": "G4",
                    "midi": 67,
                    "time": 363.73922400000777,
                    "velocity": 0.4330708661417323,
                    "duration": 0.4249290000000201
                },
                {
                    "name": "D#4",
                    "midi": 63,
                    "time": 364.1641530000078,
                    "velocity": 0.3228346456692913,
                    "duration": 0.4249290000000201
                },
                {
                    "name": "A4",
                    "midi": 69,
                    "time": 364.1641530000078,
                    "velocity": 0.3858267716535433,
                    "duration": 0.4249290000000201
                },
                {
                    "name": "A#4",
                    "midi": 70,
                    "time": 364.5890820000078,
                    "velocity": 0.3937007874015748,
                    "duration": 0.4249290000000201
                },
                {
                    "name": "D4",
                    "midi": 62,
                    "time": 364.5890820000078,
                    "velocity": 0.4330708661417323,
                    "duration": 0.4160763125000244
                },
                {
                    "name": "A#3",
                    "midi": 58,
                    "time": 365.0140110000078,
                    "velocity": 0.33070866141732286,
                    "duration": 0.4249290000000201
                },
                {
                    "name": "D4",
                    "midi": 62,
                    "time": 365.0140110000078,
                    "velocity": 0.33070866141732286,
                    "duration": 0.4249290000000201
                },
                {
                    "name": "A3",
                    "midi": 57,
                    "time": 365.43894000000785,
                    "velocity": 0.47244094488188976,
                    "duration": 0.21246450000001005
                },
                {
                    "name": "C4",
                    "midi": 60,
                    "time": 365.43894000000785,
                    "velocity": 0.5354330708661418,
                    "duration": 0.21246450000001005
                },
                {
                    "name": "F4",
                    "midi": 65,
                    "time": 365.65140450000786,
                    "velocity": 0.4881889763779528,
                    "duration": 0.10623225000000502
                },
                {
                    "name": "A3",
                    "midi": 57,
                    "time": 365.75763675000786,
                    "velocity": 0.25984251968503935,
                    "duration": 0.10623225000000502
                },
                {
                    "name": "C4",
                    "midi": 60,
                    "time": 365.75763675000786,
                    "velocity": 0.30708661417322836,
                    "duration": 0.10623225000000502
                },
                {
                    "name": "F4",
                    "midi": 65,
                    "time": 365.86386900000787,
                    "velocity": 0.5039370078740157,
                    "duration": 0.10623225000000502
                },
                {
                    "name": "A3",
                    "midi": 57,
                    "time": 365.9701012500079,
                    "velocity": 0.2677165354330709,
                    "duration": 0.10623225000000502
                },
                {
                    "name": "C4",
                    "midi": 60,
                    "time": 365.9701012500079,
                    "velocity": 0.3228346456692913,
                    "duration": 0.10623225000000502
                },
                {
                    "name": "G4",
                    "midi": 67,
                    "time": 366.0763335000079,
                    "velocity": 0.5354330708661418,
                    "duration": 0.10623225000000502
                },
                {
                    "name": "A3",
                    "midi": 57,
                    "time": 366.1825657500079,
                    "velocity": 0.2677165354330709,
                    "duration": 0.10623225000000502
                },
                {
                    "name": "C4",
                    "midi": 60,
                    "time": 366.1825657500079,
                    "velocity": 0.31496062992125984,
                    "duration": 0.10623225000000502
                },
                {
                    "name": "A4",
                    "midi": 69,
                    "time": 366.2887980000079,
                    "velocity": 0.4881889763779528,
                    "duration": 0.10623225000000502
                },
                {
                    "name": "C4",
                    "midi": 60,
                    "time": 366.3950302500079,
                    "velocity": 0.2992125984251969,
                    "duration": 0.10623225000000502
                },
                {
                    "name": "D#4",
                    "midi": 63,
                    "time": 366.3950302500079,
                    "velocity": 0.3543307086614173,
                    "duration": 0.10623225000000502
                },
                {
                    "name": "F4",
                    "midi": 65,
                    "time": 366.5012625000079,
                    "velocity": 0.5354330708661418,
                    "duration": 0.10623225000000502
                },
                {
                    "name": "C4",
                    "midi": 60,
                    "time": 366.6074947500079,
                    "velocity": 0.2992125984251969,
                    "duration": 0.10623225000000502
                },
                {
                    "name": "D#4",
                    "midi": 63,
                    "time": 366.6074947500079,
                    "velocity": 0.3543307086614173,
                    "duration": 0.10623225000000502
                },
                {
                    "name": "G4",
                    "midi": 67,
                    "time": 366.7137270000079,
                    "velocity": 0.5354330708661418,
                    "duration": 0.10623225000000502
                },
                {
                    "name": "C4",
                    "midi": 60,
                    "time": 366.8199592500079,
                    "velocity": 0.2992125984251969,
                    "duration": 0.10623225000000502
                },
                {
                    "name": "D#4",
                    "midi": 63,
                    "time": 366.8199592500079,
                    "velocity": 0.3543307086614173,
                    "duration": 0.10623225000000502
                },
                {
                    "name": "A4",
                    "midi": 69,
                    "time": 366.9261915000079,
                    "velocity": 0.5511811023622047,
                    "duration": 0.10623225000000502
                },
                {
                    "name": "C4",
                    "midi": 60,
                    "time": 367.0324237500079,
                    "velocity": 0.2992125984251969,
                    "duration": 0.10623225000000502
                },
                {
                    "name": "D#4",
                    "midi": 63,
                    "time": 367.0324237500079,
                    "velocity": 0.3543307086614173,
                    "duration": 0.10623225000000502
                },
                {
                    "name": "A#4",
                    "midi": 70,
                    "time": 367.1386560000079,
                    "velocity": 0.5354330708661418,
                    "duration": 0.10623225000000502
                },
                {
                    "name": "A#3",
                    "midi": 58,
                    "time": 367.24488825000793,
                    "velocity": 0.2677165354330709,
                    "duration": 0.10623225000000502
                },
                {
                    "name": "C#4",
                    "midi": 61,
                    "time": 367.24488825000793,
                    "velocity": 0.31496062992125984,
                    "duration": 0.10623225000000502
                },
                {
                    "name": "A#4",
                    "midi": 70,
                    "time": 367.35112050000794,
                    "velocity": 0.4881889763779528,
                    "duration": 0.10623225000000502
                },
                {
                    "name": "A#3",
                    "midi": 58,
                    "time": 367.45735275000794,
                    "velocity": 0.25984251968503935,
                    "duration": 0.10623225000000502
                },
                {
                    "name": "C#4",
                    "midi": 61,
                    "time": 367.45735275000794,
                    "velocity": 0.30708661417322836,
                    "duration": 0.10623225000000502
                },
                {
                    "name": "A#4",
                    "midi": 70,
                    "time": 367.56358500000795,
                    "velocity": 0.5039370078740157,
                    "duration": 0.10623225000000502
                },
                {
                    "name": "A#3",
                    "midi": 58,
                    "time": 367.66981725000795,
                    "velocity": 0.2677165354330709,
                    "duration": 0.10623225000000502
                },
                {
                    "name": "C#4",
                    "midi": 61,
                    "time": 367.66981725000795,
                    "velocity": 0.3228346456692913,
                    "duration": 0.10623225000000502
                },
                {
                    "name": "G#4",
                    "midi": 68,
                    "time": 367.77604950000796,
                    "velocity": 0.5354330708661418,
                    "duration": 0.10623225000000502
                },
                {
                    "name": "A#3",
                    "midi": 58,
                    "time": 367.88228175000796,
                    "velocity": 0.2677165354330709,
                    "duration": 0.10623225000000502
                },
                {
                    "name": "C#4",
                    "midi": 61,
                    "time": 367.88228175000796,
                    "velocity": 0.31496062992125984,
                    "duration": 0.10623225000000502
                },
                {
                    "name": "G4",
                    "midi": 67,
                    "time": 367.98851400000797,
                    "velocity": 0.4881889763779528,
                    "duration": 0.10623225000000502
                },
                {
                    "name": "A#3",
                    "midi": 58,
                    "time": 368.094746250008,
                    "velocity": 0.2992125984251969,
                    "duration": 0.10623225000000502
                },
                {
                    "name": "C#4",
                    "midi": 61,
                    "time": 368.094746250008,
                    "velocity": 0.3543307086614173,
                    "duration": 0.10623225000000502
                },
                {
                    "name": "F4",
                    "midi": 65,
                    "time": 368.200978500008,
                    "velocity": 0.5354330708661418,
                    "duration": 0.10623225000000502
                },
                {
                    "name": "A#3",
                    "midi": 58,
                    "time": 368.307210750008,
                    "velocity": 0.2992125984251969,
                    "duration": 0.10623225000000502
                },
                {
                    "name": "C#4",
                    "midi": 61,
                    "time": 368.307210750008,
                    "velocity": 0.3543307086614173,
                    "duration": 0.10623225000000502
                },
                {
                    "name": "E4",
                    "midi": 64,
                    "time": 368.413443000008,
                    "velocity": 0.5354330708661418,
                    "duration": 0.10623225000000502
                },
                {
                    "name": "A#3",
                    "midi": 58,
                    "time": 368.519675250008,
                    "velocity": 0.2992125984251969,
                    "duration": 0.10623225000000502
                },
                {
                    "name": "C#4",
                    "midi": 61,
                    "time": 368.519675250008,
                    "velocity": 0.3543307086614173,
                    "duration": 0.10623225000000502
                },
                {
                    "name": "G4",
                    "midi": 67,
                    "time": 368.625907500008,
                    "velocity": 0.5511811023622047,
                    "duration": 0.10623225000000502
                },
                {
                    "name": "A#3",
                    "midi": 58,
                    "time": 368.732139750008,
                    "velocity": 0.2992125984251969,
                    "duration": 0.10623225000000502
                },
                {
                    "name": "C#4",
                    "midi": 61,
                    "time": 368.732139750008,
                    "velocity": 0.3543307086614173,
                    "duration": 0.10623225000000502
                },
                {
                    "name": "C4",
                    "midi": 60,
                    "time": 368.838372000008,
                    "velocity": 0.47244094488188976,
                    "duration": 0.21246450000001005
                },
                {
                    "name": "A3",
                    "midi": 57,
                    "time": 368.838372000008,
                    "velocity": 0.47244094488188976,
                    "duration": 0.21246450000001005
                },
                {
                    "name": "F4",
                    "midi": 65,
                    "time": 368.838372000008,
                    "velocity": 0.5354330708661418,
                    "duration": 0.21246450000001005
                },
                {
                    "name": "F5",
                    "midi": 77,
                    "time": 369.050836500008,
                    "velocity": 0.4881889763779528,
                    "duration": 0.10623225000000502
                },
                {
                    "name": "A4",
                    "midi": 69,
                    "time": 369.157068750008,
                    "velocity": 0.25984251968503935,
                    "duration": 0.10623225000000502
                },
                {
                    "name": "C5",
                    "midi": 72,
                    "time": 369.157068750008,
                    "velocity": 0.30708661417322836,
                    "duration": 0.10623225000000502
                },
                {
                    "name": "F5",
                    "midi": 77,
                    "time": 369.263301000008,
                    "velocity": 0.5039370078740157,
                    "duration": 0.10623225000000502
                },
                {
                    "name": "A4",
                    "midi": 69,
                    "time": 369.36953325000803,
                    "velocity": 0.2677165354330709,
                    "duration": 0.10623225000000502
                },
                {
                    "name": "C5",
                    "midi": 72,
                    "time": 369.36953325000803,
                    "velocity": 0.3228346456692913,
                    "duration": 0.10623225000000502
                },
                {
                    "name": "G5",
                    "midi": 79,
                    "time": 369.47576550000804,
                    "velocity": 0.5354330708661418,
                    "duration": 0.10623225000000502
                },
                {
                    "name": "A4",
                    "midi": 69,
                    "time": 369.58199775000804,
                    "velocity": 0.2677165354330709,
                    "duration": 0.10623225000000502
                },
                {
                    "name": "C5",
                    "midi": 72,
                    "time": 369.58199775000804,
                    "velocity": 0.31496062992125984,
                    "duration": 0.10623225000000502
                },
                {
                    "name": "A5",
                    "midi": 81,
                    "time": 369.68823000000805,
                    "velocity": 0.4881889763779528,
                    "duration": 0.10623225000000502
                },
                {
                    "name": "C5",
                    "midi": 72,
                    "time": 369.79446225000805,
                    "velocity": 0.2992125984251969,
                    "duration": 0.10623225000000502
                },
                {
                    "name": "D#5",
                    "midi": 75,
                    "time": 369.79446225000805,
                    "velocity": 0.3543307086614173,
                    "duration": 0.10623225000000502
                },
                {
                    "name": "F5",
                    "midi": 77,
                    "time": 369.90069450000806,
                    "velocity": 0.5354330708661418,
                    "duration": 0.10623225000000502
                },
                {
                    "name": "C5",
                    "midi": 72,
                    "time": 370.00692675000806,
                    "velocity": 0.2992125984251969,
                    "duration": 0.10623225000000502
                },
                {
                    "name": "D#5",
                    "midi": 75,
                    "time": 370.00692675000806,
                    "velocity": 0.3543307086614173,
                    "duration": 0.10623225000000502
                },
                {
                    "name": "G5",
                    "midi": 79,
                    "time": 370.11315900000807,
                    "velocity": 0.5354330708661418,
                    "duration": 0.10623225000000502
                },
                {
                    "name": "C5",
                    "midi": 72,
                    "time": 370.2193912500081,
                    "velocity": 0.2992125984251969,
                    "duration": 0.10623225000000502
                },
                {
                    "name": "D#5",
                    "midi": 75,
                    "time": 370.2193912500081,
                    "velocity": 0.3543307086614173,
                    "duration": 0.10623225000000502
                },
                {
                    "name": "A5",
                    "midi": 81,
                    "time": 370.3256235000081,
                    "velocity": 0.5511811023622047,
                    "duration": 0.10623225000000502
                },
                {
                    "name": "C5",
                    "midi": 72,
                    "time": 370.4318557500081,
                    "velocity": 0.2992125984251969,
                    "duration": 0.10623225000000502
                },
                {
                    "name": "D#5",
                    "midi": 75,
                    "time": 370.4318557500081,
                    "velocity": 0.3543307086614173,
                    "duration": 0.10623225000000502
                },
                {
                    "name": "A#5",
                    "midi": 82,
                    "time": 370.5380880000081,
                    "velocity": 0.5354330708661418,
                    "duration": 0.10623225000000502
                },
                {
                    "name": "A#4",
                    "midi": 70,
                    "time": 370.6443202500081,
                    "velocity": 0.2677165354330709,
                    "duration": 0.10623225000000502
                },
                {
                    "name": "C#5",
                    "midi": 73,
                    "time": 370.6443202500081,
                    "velocity": 0.31496062992125984,
                    "duration": 0.10623225000000502
                },
                {
                    "name": "A#5",
                    "midi": 82,
                    "time": 370.7505525000081,
                    "velocity": 0.4881889763779528,
                    "duration": 0.10623225000000502
                },
                {
                    "name": "A#4",
                    "midi": 70,
                    "time": 370.8567847500081,
                    "velocity": 0.25984251968503935,
                    "duration": 0.10623225000000502
                },
                {
                    "name": "C#5",
                    "midi": 73,
                    "time": 370.8567847500081,
                    "velocity": 0.30708661417322836,
                    "duration": 0.10623225000000502
                },
                {
                    "name": "A#5",
                    "midi": 82,
                    "time": 370.9630170000081,
                    "velocity": 0.5039370078740157,
                    "duration": 0.10623225000000502
                },
                {
                    "name": "A#4",
                    "midi": 70,
                    "time": 371.0692492500081,
                    "velocity": 0.2677165354330709,
                    "duration": 0.10623225000000502
                },
                {
                    "name": "C#5",
                    "midi": 73,
                    "time": 371.0692492500081,
                    "velocity": 0.3228346456692913,
                    "duration": 0.10623225000000502
                },
                {
                    "name": "G#5",
                    "midi": 80,
                    "time": 371.1754815000081,
                    "velocity": 0.5354330708661418,
                    "duration": 0.10623225000000502
                },
                {
                    "name": "A#4",
                    "midi": 70,
                    "time": 371.2817137500081,
                    "velocity": 0.2677165354330709,
                    "duration": 0.10623225000000502
                },
                {
                    "name": "C#5",
                    "midi": 73,
                    "time": 371.2817137500081,
                    "velocity": 0.31496062992125984,
                    "duration": 0.10623225000000502
                },
                {
                    "name": "G5",
                    "midi": 79,
                    "time": 371.3879460000081,
                    "velocity": 0.4881889763779528,
                    "duration": 0.10623225000000502
                },
                {
                    "name": "A#4",
                    "midi": 70,
                    "time": 371.49417825000813,
                    "velocity": 0.2992125984251969,
                    "duration": 0.10623225000000502
                },
                {
                    "name": "C#5",
                    "midi": 73,
                    "time": 371.49417825000813,
                    "velocity": 0.3543307086614173,
                    "duration": 0.10623225000000502
                },
                {
                    "name": "F5",
                    "midi": 77,
                    "time": 371.60041050000814,
                    "velocity": 0.5354330708661418,
                    "duration": 0.10623225000000502
                },
                {
                    "name": "A#4",
                    "midi": 70,
                    "time": 371.70664275000814,
                    "velocity": 0.2992125984251969,
                    "duration": 0.10623225000000502
                },
                {
                    "name": "C#5",
                    "midi": 73,
                    "time": 371.70664275000814,
                    "velocity": 0.3543307086614173,
                    "duration": 0.10623225000000502
                },
                {
                    "name": "E5",
                    "midi": 76,
                    "time": 371.81287500000815,
                    "velocity": 0.5354330708661418,
                    "duration": 0.10623225000000502
                },
                {
                    "name": "A#4",
                    "midi": 70,
                    "time": 371.91910725000815,
                    "velocity": 0.2992125984251969,
                    "duration": 0.10623225000000502
                },
                {
                    "name": "C#5",
                    "midi": 73,
                    "time": 371.91910725000815,
                    "velocity": 0.3543307086614173,
                    "duration": 0.10623225000000502
                },
                {
                    "name": "G5",
                    "midi": 79,
                    "time": 372.02533950000816,
                    "velocity": 0.5511811023622047,
                    "duration": 0.10623225000000502
                },
                {
                    "name": "A#4",
                    "midi": 70,
                    "time": 372.13157175000816,
                    "velocity": 0.2992125984251969,
                    "duration": 0.10623225000000502
                },
                {
                    "name": "C#5",
                    "midi": 73,
                    "time": 372.13157175000816,
                    "velocity": 0.3543307086614173,
                    "duration": 0.10623225000000502
                },
                {
                    "name": "F5",
                    "midi": 77,
                    "time": 372.23780400000817,
                    "velocity": 0.6141732283464567,
                    "duration": 0.10623225000000502
                },
                {
                    "name": "A4",
                    "midi": 69,
                    "time": 372.3440362500082,
                    "velocity": 0.2992125984251969,
                    "duration": 0.10623225000000502
                },
                {
                    "name": "C5",
                    "midi": 72,
                    "time": 372.3440362500082,
                    "velocity": 0.3543307086614173,
                    "duration": 0.10623225000000502
                },
                {
                    "name": "F5",
                    "midi": 77,
                    "time": 372.4502685000082,
                    "velocity": 0.5354330708661418,
                    "duration": 0.10623225000000502
                },
                {
                    "name": "A4",
                    "midi": 69,
                    "time": 372.5565007500082,
                    "velocity": 0.2992125984251969,
                    "duration": 0.10623225000000502
                },
                {
                    "name": "C5",
                    "midi": 72,
                    "time": 372.5565007500082,
                    "velocity": 0.3543307086614173,
                    "duration": 0.10623225000000502
                },
                {
                    "name": "E5",
                    "midi": 76,
                    "time": 372.6627330000082,
                    "velocity": 0.5354330708661418,
                    "duration": 0.10623225000000502
                },
                {
                    "name": "A#4",
                    "midi": 70,
                    "time": 372.7689652500082,
                    "velocity": 0.2992125984251969,
                    "duration": 0.10623225000000502
                },
                {
                    "name": "C#5",
                    "midi": 73,
                    "time": 372.7689652500082,
                    "velocity": 0.3543307086614173,
                    "duration": 0.10623225000000502
                },
                {
                    "name": "G5",
                    "midi": 79,
                    "time": 372.8751975000082,
                    "velocity": 0.5511811023622047,
                    "duration": 0.10623225000000502
                },
                {
                    "name": "A#4",
                    "midi": 70,
                    "time": 372.9814297500082,
                    "velocity": 0.2992125984251969,
                    "duration": 0.10623225000000502
                },
                {
                    "name": "C#5",
                    "midi": 73,
                    "time": 372.9814297500082,
                    "velocity": 0.3543307086614173,
                    "duration": 0.10623225000000502
                },
                {
                    "name": "F5",
                    "midi": 77,
                    "time": 373.0876620000082,
                    "velocity": 0.5984251968503937,
                    "duration": 0.10623225000000502
                },
                {
                    "name": "A4",
                    "midi": 69,
                    "time": 373.1938942500082,
                    "velocity": 0.2992125984251969,
                    "duration": 0.10623225000000502
                },
                {
                    "name": "C5",
                    "midi": 72,
                    "time": 373.1938942500082,
                    "velocity": 0.3543307086614173,
                    "duration": 0.10623225000000502
                },
                {
                    "name": "F5",
                    "midi": 77,
                    "time": 373.3001265000082,
                    "velocity": 0.5354330708661418,
                    "duration": 0.10623225000000502
                },
                {
                    "name": "A4",
                    "midi": 69,
                    "time": 373.4063587500082,
                    "velocity": 0.2992125984251969,
                    "duration": 0.10623225000000502
                },
                {
                    "name": "C5",
                    "midi": 72,
                    "time": 373.4063587500082,
                    "velocity": 0.3543307086614173,
                    "duration": 0.10623225000000502
                },
                {
                    "name": "E5",
                    "midi": 76,
                    "time": 373.51259100000823,
                    "velocity": 0.5354330708661418,
                    "duration": 0.10623225000000502
                },
                {
                    "name": "A#4",
                    "midi": 70,
                    "time": 373.61882325000823,
                    "velocity": 0.2992125984251969,
                    "duration": 0.10623225000000502
                },
                {
                    "name": "C#5",
                    "midi": 73,
                    "time": 373.61882325000823,
                    "velocity": 0.3543307086614173,
                    "duration": 0.10623225000000502
                },
                {
                    "name": "G5",
                    "midi": 79,
                    "time": 373.72505550000824,
                    "velocity": 0.5511811023622047,
                    "duration": 0.10623225000000502
                },
                {
                    "name": "A#4",
                    "midi": 70,
                    "time": 373.83128775000824,
                    "velocity": 0.2992125984251969,
                    "duration": 0.10623225000000502
                },
                {
                    "name": "C#5",
                    "midi": 73,
                    "time": 373.83128775000824,
                    "velocity": 0.3543307086614173,
                    "duration": 0.10623225000000502
                },
                {
                    "name": "A4",
                    "midi": 69,
                    "time": 373.93752000000825,
                    "velocity": 0.4645669291338583,
                    "duration": 0.10623225000000502
                },
                {
                    "name": "C5",
                    "midi": 72,
                    "time": 373.93752000000825,
                    "velocity": 0.4645669291338583,
                    "duration": 0.10623225000000502
                },
                {
                    "name": "F5",
                    "midi": 77,
                    "time": 373.93752000000825,
                    "velocity": 0.5511811023622047,
                    "duration": 0.10623225000000502
                },
                {
                    "name": "F4",
                    "midi": 65,
                    "time": 374.04375225000825,
                    "velocity": 0.2755905511811024,
                    "duration": 0.11685547500002258
                },
                {
                    "name": "G4",
                    "midi": 67,
                    "time": 374.14998450000826,
                    "velocity": 0.31496062992125984,
                    "duration": 0.11685547500002258
                },
                {
                    "name": "A4",
                    "midi": 69,
                    "time": 374.25621675000826,
                    "velocity": 0.2755905511811024,
                    "duration": 0.11685547500002258
                },
                {
                    "name": "A#4",
                    "midi": 70,
                    "time": 374.36244900000827,
                    "velocity": 0.31496062992125984,
                    "duration": 0.11685547500002258
                },
                {
                    "name": "C5",
                    "midi": 72,
                    "time": 374.4686812500083,
                    "velocity": 0.2755905511811024,
                    "duration": 0.11685547500002258
                },
                {
                    "name": "D5",
                    "midi": 74,
                    "time": 374.5749135000083,
                    "velocity": 0.31496062992125984,
                    "duration": 0.11685547500002258
                },
                {
                    "name": "E5",
                    "midi": 76,
                    "time": 374.6811457500083,
                    "velocity": 0.25984251968503935,
                    "duration": 0.11685547500002258
                },
                {
                    "name": "F5",
                    "midi": 77,
                    "time": 374.7873780000083,
                    "velocity": 0.31496062992125984,
                    "duration": 0.11685547500002258
                },
                {
                    "name": "E5",
                    "midi": 76,
                    "time": 374.8936102500083,
                    "velocity": 0.25984251968503935,
                    "duration": 0.11685547500002258
                },
                {
                    "name": "F5",
                    "midi": 77,
                    "time": 374.9998425000083,
                    "velocity": 0.31496062992125984,
                    "duration": 0.11685547500002258
                },
                {
                    "name": "E5",
                    "midi": 76,
                    "time": 375.1060747500083,
                    "velocity": 0.25984251968503935,
                    "duration": 0.11685547500002258
                },
                {
                    "name": "F5",
                    "midi": 77,
                    "time": 375.2123070000083,
                    "velocity": 0.31496062992125984,
                    "duration": 0.11685547500002258
                },
                {
                    "name": "E5",
                    "midi": 76,
                    "time": 375.3185392500083,
                    "velocity": 0.2677165354330709,
                    "duration": 0.11685547500002258
                },
                {
                    "name": "F5",
                    "midi": 77,
                    "time": 375.4247715000083,
                    "velocity": 0.31496062992125984,
                    "duration": 0.11685547500002258
                },
                {
                    "name": "E5",
                    "midi": 76,
                    "time": 375.5310037500083,
                    "velocity": 0.25984251968503935,
                    "duration": 0.10623225000000502
                },
                {
                    "name": "D5",
                    "midi": 74,
                    "time": 375.63723600000833,
                    "velocity": 0.2992125984251969,
                    "duration": 0.8498579999999833
                },
                {
                    "name": "F5",
                    "midi": 77,
                    "time": 375.63723600000833,
                    "velocity": 0.33858267716535434,
                    "duration": 0.8498579999999833
                },
                {
                    "name": "D5",
                    "midi": 74,
                    "time": 376.4870940000083,
                    "velocity": 0.3858267716535433,
                    "duration": 0.4249290000000201
                },
                {
                    "name": "A#5",
                    "midi": 82,
                    "time": 376.91202300000833,
                    "velocity": 0.3700787401574803,
                    "duration": 0.4249290000000201
                },
                {
                    "name": "D5",
                    "midi": 74,
                    "time": 377.33695200000835,
                    "velocity": 0.3228346456692913,
                    "duration": 0.4249290000000201
                },
                {
                    "name": "F5",
                    "midi": 77,
                    "time": 377.33695200000835,
                    "velocity": 0.3858267716535433,
                    "duration": 0.4249290000000201
                },
                {
                    "name": "D6",
                    "midi": 86,
                    "time": 377.7618810000084,
                    "velocity": 0.33858267716535434,
                    "duration": 0.4249290000000201
                },
                {
                    "name": "A#5",
                    "midi": 82,
                    "time": 377.7618810000084,
                    "velocity": 0.28346456692913385,
                    "duration": 0.4249290000000201
                },
                {
                    "name": "D5",
                    "midi": 74,
                    "time": 378.1868100000084,
                    "velocity": 0.33070866141732286,
                    "duration": 0.4249290000000201
                },
                {
                    "name": "F5",
                    "midi": 77,
                    "time": 378.1868100000084,
                    "velocity": 0.3937007874015748,
                    "duration": 0.4249290000000201
                },
                {
                    "name": "F6",
                    "midi": 89,
                    "time": 378.6117390000084,
                    "velocity": 0.33858267716535434,
                    "duration": 0.4249290000000201
                },
                {
                    "name": "D6",
                    "midi": 86,
                    "time": 378.6117390000084,
                    "velocity": 0.28346456692913385,
                    "duration": 0.4249290000000201
                },
                {
                    "name": "D5",
                    "midi": 74,
                    "time": 379.03666800000843,
                    "velocity": 0.2992125984251969,
                    "duration": 0.8498579999999833
                },
                {
                    "name": "F5",
                    "midi": 77,
                    "time": 379.03666800000843,
                    "velocity": 0.33858267716535434,
                    "duration": 0.8498579999999833
                },
                {
                    "name": "D5",
                    "midi": 74,
                    "time": 379.8865260000084,
                    "velocity": 0.3858267716535433,
                    "duration": 0.4249290000000201
                },
                {
                    "name": "A#5",
                    "midi": 82,
                    "time": 380.31145500000844,
                    "velocity": 0.36220472440944884,
                    "duration": 0.4249290000000201
                },
                {
                    "name": "D5",
                    "midi": 74,
                    "time": 380.73638400000846,
                    "velocity": 0.3228346456692913,
                    "duration": 0.4249290000000201
                },
                {
                    "name": "F5",
                    "midi": 77,
                    "time": 380.73638400000846,
                    "velocity": 0.3858267716535433,
                    "duration": 0.4249290000000201
                },
                {
                    "name": "D6",
                    "midi": 86,
                    "time": 381.1613130000085,
                    "velocity": 0.33858267716535434,
                    "duration": 0.4249290000000201
                },
                {
                    "name": "A#5",
                    "midi": 82,
                    "time": 381.1613130000085,
                    "velocity": 0.28346456692913385,
                    "duration": 0.4249290000000201
                },
                {
                    "name": "D5",
                    "midi": 74,
                    "time": 381.5862420000085,
                    "velocity": 0.33070866141732286,
                    "duration": 0.4249290000000201
                },
                {
                    "name": "F5",
                    "midi": 77,
                    "time": 381.5862420000085,
                    "velocity": 0.3937007874015748,
                    "duration": 0.4249290000000201
                },
                {
                    "name": "F6",
                    "midi": 89,
                    "time": 382.0111710000085,
                    "velocity": 0.33858267716535434,
                    "duration": 0.4249290000000201
                },
                {
                    "name": "D6",
                    "midi": 86,
                    "time": 382.0111710000085,
                    "velocity": 0.28346456692913385,
                    "duration": 0.4249290000000201
                },
                {
                    "name": "D5",
                    "midi": 74,
                    "time": 382.43610000000854,
                    "velocity": 0.3858267716535433,
                    "duration": 0.8498579999999833
                },
                {
                    "name": "F5",
                    "midi": 77,
                    "time": 382.43610000000854,
                    "velocity": 0.3858267716535433,
                    "duration": 0.8498579999999833
                },
                {
                    "name": "G5",
                    "midi": 79,
                    "time": 382.43610000000854,
                    "velocity": 0.3858267716535433,
                    "duration": 0.8498579999999833
                },
                {
                    "name": "B5",
                    "midi": 83,
                    "time": 382.43610000000854,
                    "velocity": 0.3858267716535433,
                    "duration": 0.8498579999999833
                },
                {
                    "name": "B5",
                    "midi": 83,
                    "time": 384.5607450000085,
                    "velocity": 0.5511811023622047,
                    "duration": 0.4249290000000201
                },
                {
                    "name": "D6",
                    "midi": 86,
                    "time": 384.98567400000854,
                    "velocity": 0.5511811023622047,
                    "duration": 0.4249290000000201
                },
                {
                    "name": "F6",
                    "midi": 89,
                    "time": 385.41060300000856,
                    "velocity": 0.5196850393700787,
                    "duration": 0.8498580000000402
                },
                {
                    "name": "B5",
                    "midi": 83,
                    "time": 385.8355320000086,
                    "velocity": 0.5669291338582677,
                    "duration": 0.8498580000000402
                },
                {
                    "name": "D#6",
                    "midi": 87,
                    "time": 386.2604610000086,
                    "velocity": 0.5905511811023622,
                    "duration": 1.6997160000000804
                },
                {
                    "name": "C6",
                    "midi": 84,
                    "time": 386.6853900000086,
                    "velocity": 0.5905511811023622,
                    "duration": 1.2747870000000603
                },
                {
                    "name": "F#5",
                    "midi": 78,
                    "time": 387.11031900000864,
                    "velocity": 0.5196850393700787,
                    "duration": 0.4249290000000201
                },
                {
                    "name": "F5",
                    "midi": 77,
                    "time": 387.53524800000866,
                    "velocity": 0.5826771653543307,
                    "duration": 0.8498580000000402
                },
                {
                    "name": "D6",
                    "midi": 86,
                    "time": 387.9601770000087,
                    "velocity": 0.5511811023622047,
                    "duration": 0.4249290000000201
                },
                {
                    "name": "A#5",
                    "midi": 82,
                    "time": 387.9601770000087,
                    "velocity": 0.44881889763779526,
                    "duration": 0.4249290000000201
                },
                {
                    "name": "D#5",
                    "midi": 75,
                    "time": 388.3851060000087,
                    "velocity": 0.48031496062992124,
                    "duration": 0.4249290000000201
                },
                {
                    "name": "G5",
                    "midi": 79,
                    "time": 388.3851060000087,
                    "velocity": 0.48031496062992124,
                    "duration": 0.4249290000000201
                },
                {
                    "name": "C6",
                    "midi": 84,
                    "time": 388.3851060000087,
                    "velocity": 0.5511811023622047,
                    "duration": 0.4249290000000201
                },
                {
                    "name": "C5",
                    "midi": 72,
                    "time": 388.8100350000087,
                    "velocity": 0.41732283464566927,
                    "duration": 0.4249290000000201
                },
                {
                    "name": "D#5",
                    "midi": 75,
                    "time": 388.8100350000087,
                    "velocity": 0.41732283464566927,
                    "duration": 0.4249290000000201
                },
                {
                    "name": "A5",
                    "midi": 81,
                    "time": 388.8100350000087,
                    "velocity": 0.5039370078740157,
                    "duration": 0.4249290000000201
                },
                {
                    "name": "A#4",
                    "midi": 70,
                    "time": 389.23496400000874,
                    "velocity": 0.5039370078740157,
                    "duration": 0.21246450000001005
                },
                {
                    "name": "D5",
                    "midi": 74,
                    "time": 389.23496400000874,
                    "velocity": 0.5039370078740157,
                    "duration": 0.21246450000001005
                },
                {
                    "name": "A#5",
                    "midi": 82,
                    "time": 389.23496400000874,
                    "velocity": 0.6062992125984252,
                    "duration": 0.21246450000001005
                },
                {
                    "name": "A#4",
                    "midi": 70,
                    "time": 390.0848220000087,
                    "velocity": 0.5748031496062992,
                    "duration": 0.8410053124999877
                },
                {
                    "name": "D5",
                    "midi": 74,
                    "time": 390.0848220000087,
                    "velocity": 0.6929133858267716,
                    "duration": 0.8498579999999833
                },
                {
                    "name": "G4",
                    "midi": 67,
                    "time": 390.9346800000087,
                    "velocity": 0.44881889763779526,
                    "duration": 0.4160763125000244
                },
                {
                    "name": "A#4",
                    "midi": 70,
                    "time": 390.9346800000087,
                    "velocity": 0.5354330708661418,
                    "duration": 0.4249290000000201
                },
                {
                    "name": "D#4",
                    "midi": 63,
                    "time": 391.35960900000873,
                    "velocity": 0.4645669291338583,
                    "duration": 0.21246450000001005
                },
                {
                    "name": "G4",
                    "midi": 67,
                    "time": 391.35960900000873,
                    "velocity": 0.5511811023622047,
                    "duration": 0.21246450000001005
                },
                {
                    "name": "C5",
                    "midi": 72,
                    "time": 391.78453800000875,
                    "velocity": 0.5748031496062992,
                    "duration": 0.6373934999999733
                },
                {
                    "name": "D#5",
                    "midi": 75,
                    "time": 391.78453800000875,
                    "velocity": 0.6929133858267716,
                    "duration": 0.6373934999999733
                },
                {
                    "name": "A#4",
                    "midi": 70,
                    "time": 392.4219315000087,
                    "velocity": 0.44881889763779526,
                    "duration": 0.21246450000001005
                },
                {
                    "name": "D5",
                    "midi": 74,
                    "time": 392.4219315000087,
                    "velocity": 0.5354330708661418,
                    "duration": 0.21246450000001005
                },
                {
                    "name": "C5",
                    "midi": 72,
                    "time": 392.63439600000873,
                    "velocity": 0.6062992125984252,
                    "duration": 0.4249290000000201
                },
                {
                    "name": "A4",
                    "midi": 69,
                    "time": 392.63439600000873,
                    "velocity": 0.5039370078740157,
                    "duration": 0.4160763125000244
                },
                {
                    "name": "F4",
                    "midi": 65,
                    "time": 393.05932500000876,
                    "velocity": 0.44881889763779526,
                    "duration": 0.21246450000001005
                },
                {
                    "name": "A4",
                    "midi": 69,
                    "time": 393.05932500000876,
                    "velocity": 0.5354330708661418,
                    "duration": 0.21246450000001005
                },
                {
                    "name": "D5",
                    "midi": 74,
                    "time": 393.4842540000088,
                    "velocity": 0.5748031496062992,
                    "duration": 0.8410053124999877
                },
                {
                    "name": "F5",
                    "midi": 77,
                    "time": 393.4842540000088,
                    "velocity": 0.6929133858267716,
                    "duration": 0.8498579999999833
                },
                {
                    "name": "A#4",
                    "midi": 70,
                    "time": 394.33411200000876,
                    "velocity": 0.44881889763779526,
                    "duration": 0.4160763125000244
                },
                {
                    "name": "D5",
                    "midi": 74,
                    "time": 394.33411200000876,
                    "velocity": 0.5354330708661418,
                    "duration": 0.4249290000000201
                },
                {
                    "name": "G4",
                    "midi": 67,
                    "time": 394.7590410000088,
                    "velocity": 0.4645669291338583,
                    "duration": 0.21246450000001005
                },
                {
                    "name": "A#4",
                    "midi": 70,
                    "time": 394.7590410000088,
                    "velocity": 0.5511811023622047,
                    "duration": 0.21246450000001005
                },
                {
                    "name": "D#5",
                    "midi": 75,
                    "time": 395.1839700000088,
                    "velocity": 0.5748031496062992,
                    "duration": 0.6373934999999733
                },
                {
                    "name": "G5",
                    "midi": 79,
                    "time": 395.1839700000088,
                    "velocity": 0.6929133858267716,
                    "duration": 0.6373934999999733
                },
                {
                    "name": "D5",
                    "midi": 74,
                    "time": 395.8213635000088,
                    "velocity": 0.44881889763779526,
                    "duration": 0.21246450000001005
                },
                {
                    "name": "F5",
                    "midi": 77,
                    "time": 395.8213635000088,
                    "velocity": 0.5354330708661418,
                    "duration": 0.21246450000001005
                },
                {
                    "name": "D#5",
                    "midi": 75,
                    "time": 396.0338280000088,
                    "velocity": 0.6062992125984252,
                    "duration": 0.4249290000000201
                },
                {
                    "name": "C5",
                    "midi": 72,
                    "time": 396.0338280000088,
                    "velocity": 0.5039370078740157,
                    "duration": 0.4160763125000244
                },
                {
                    "name": "A4",
                    "midi": 69,
                    "time": 396.4587570000088,
                    "velocity": 0.44881889763779526,
                    "duration": 0.21246450000001005
                },
                {
                    "name": "C5",
                    "midi": 72,
                    "time": 396.4587570000088,
                    "velocity": 0.5354330708661418,
                    "duration": 0.21246450000001005
                },
                {
                    "name": "D#5",
                    "midi": 75,
                    "time": 396.8836860000088,
                    "velocity": 0.5748031496062992,
                    "duration": 0.6373934999999733
                },
                {
                    "name": "C6",
                    "midi": 84,
                    "time": 396.8836860000088,
                    "velocity": 0.6929133858267716,
                    "duration": 0.6373934999999733
                },
                {
                    "name": "D5",
                    "midi": 74,
                    "time": 397.5210795000088,
                    "velocity": 0.44881889763779526,
                    "duration": 0.21246450000001005
                },
                {
                    "name": "A#5",
                    "midi": 82,
                    "time": 397.5210795000088,
                    "velocity": 0.5354330708661418,
                    "duration": 0.21246450000001005
                },
                {
                    "name": "C5",
                    "midi": 72,
                    "time": 397.7335440000088,
                    "velocity": 0.5748031496062992,
                    "duration": 0.6373934999999733
                },
                {
                    "name": "A5",
                    "midi": 81,
                    "time": 397.7335440000088,
                    "velocity": 0.6929133858267716,
                    "duration": 0.6373934999999733
                },
                {
                    "name": "A#4",
                    "midi": 70,
                    "time": 398.3709375000088,
                    "velocity": 0.44881889763779526,
                    "duration": 0.21246450000001005
                },
                {
                    "name": "G5",
                    "midi": 79,
                    "time": 398.3709375000088,
                    "velocity": 0.5354330708661418,
                    "duration": 0.21246450000001005
                },
                {
                    "name": "A4",
                    "midi": 69,
                    "time": 398.5834020000088,
                    "velocity": 0.4015748031496063,
                    "duration": 0.4249290000000201
                },
                {
                    "name": "F5",
                    "midi": 77,
                    "time": 398.5834020000088,
                    "velocity": 0.47244094488188976,
                    "duration": 0.4249290000000201
                },
                {
                    "name": "D#4",
                    "midi": 63,
                    "time": 399.0083310000088,
                    "velocity": 0.3464566929133858,
                    "duration": 0.4249290000000201
                },
                {
                    "name": "D#5",
                    "midi": 75,
                    "time": 399.0083310000088,
                    "velocity": 0.4094488188976378,
                    "duration": 0.4249290000000201
                },
                {
                    "name": "D4",
                    "midi": 62,
                    "time": 399.43326000000883,
                    "velocity": 0.3858267716535433,
                    "duration": 0.4249290000000201
                },
                {
                    "name": "D5",
                    "midi": 74,
                    "time": 399.43326000000883,
                    "velocity": 0.4566929133858268,
                    "duration": 0.4249290000000201
                },
                {
                    "name": "F#4",
                    "midi": 66,
                    "time": 399.85818900000885,
                    "velocity": 0.30708661417322836,
                    "duration": 0.4249290000000201
                },
                {
                    "name": "C5",
                    "midi": 72,
                    "time": 399.85818900000885,
                    "velocity": 0.36220472440944884,
                    "duration": 0.4249290000000201
                },
                {
                    "name": "G4",
                    "midi": 67,
                    "time": 400.28311800000887,
                    "velocity": 0.3543307086614173,
                    "duration": 0.4249290000000201
                },
                {
                    "name": "A#4",
                    "midi": 70,
                    "time": 400.28311800000887,
                    "velocity": 0.41732283464566927,
                    "duration": 0.4249290000000201
                },
                {
                    "name": "C4",
                    "midi": 60,
                    "time": 400.7080470000089,
                    "velocity": 0.31496062992125984,
                    "duration": 0.4249290000000201
                },
                {
                    "name": "G4",
                    "midi": 67,
                    "time": 400.7080470000089,
                    "velocity": 0.3779527559055118,
                    "duration": 0.4249290000000201
                },
                {
                    "name": "A#3",
                    "midi": 58,
                    "time": 401.55790500000893,
                    "velocity": 0.25196850393700787,
                    "duration": 0.21246450000001005
                },
                {
                    "name": "D4",
                    "midi": 62,
                    "time": 401.55790500000893,
                    "velocity": 0.25196850393700787,
                    "duration": 0.21246450000001005
                },
                {
                    "name": "F4",
                    "midi": 65,
                    "time": 401.55790500000893,
                    "velocity": 0.2992125984251969,
                    "duration": 0.21246450000001005
                },
                {
                    "name": "A3",
                    "midi": 57,
                    "time": 402.4077630000089,
                    "velocity": 0.2440944881889764,
                    "duration": 0.21246450000001005
                },
                {
                    "name": "C4",
                    "midi": 60,
                    "time": 402.4077630000089,
                    "velocity": 0.2440944881889764,
                    "duration": 0.21246450000001005
                },
                {
                    "name": "F4",
                    "midi": 65,
                    "time": 402.4077630000089,
                    "velocity": 0.29133858267716534,
                    "duration": 0.21246450000001005
                },
                {
                    "name": "D4",
                    "midi": 62,
                    "time": 403.2576210000089,
                    "velocity": 0.2755905511811024,
                    "duration": 0.3983709374999762
                },
                {
                    "name": "A#3",
                    "midi": 58,
                    "time": 403.2576210000089,
                    "velocity": 0.2283464566929134,
                    "duration": 0.3983709374999762
                },
                {
                    "name": "F3",
                    "midi": 53,
                    "time": 403.2576210000089,
                    "velocity": 0.2283464566929134,
                    "duration": 0.3983709374999762
                },
                {
                    "name": "A#4",
                    "midi": 70,
                    "time": 403.89501450000887,
                    "velocity": 0.47244094488188976,
                    "duration": 0.4249290000000201
                },
                {
                    "name": "D5",
                    "midi": 74,
                    "time": 403.89501450000887,
                    "velocity": 0.5669291338582677,
                    "duration": 0.4249290000000201
                },
                {
                    "name": "A#4",
                    "midi": 70,
                    "time": 404.3199435000089,
                    "velocity": 0.3700787401574803,
                    "duration": 0.10623225000000502
                },
                {
                    "name": "D5",
                    "midi": 74,
                    "time": 404.3199435000089,
                    "velocity": 0.4409448818897638,
                    "duration": 0.10623225000000502
                },
                {
                    "name": "G4",
                    "midi": 67,
                    "time": 404.7448725000089,
                    "velocity": 0.3228346456692913,
                    "duration": 0.10623225000000502
                },
                {
                    "name": "A#4",
                    "midi": 70,
                    "time": 404.7448725000089,
                    "velocity": 0.3858267716535433,
                    "duration": 0.10623225000000502
                },
                {
                    "name": "D#4",
                    "midi": 63,
                    "time": 405.16980150000893,
                    "velocity": 0.2992125984251969,
                    "duration": 0.10623225000000502
                },
                {
                    "name": "G4",
                    "midi": 67,
                    "time": 405.16980150000893,
                    "velocity": 0.3543307086614173,
                    "duration": 0.10623225000000502
                },
                {
                    "name": "C5",
                    "midi": 72,
                    "time": 405.59473050000895,
                    "velocity": 0.47244094488188976,
                    "duration": 0.4249290000000201
                },
                {
                    "name": "D#5",
                    "midi": 75,
                    "time": 405.59473050000895,
                    "velocity": 0.5748031496062992,
                    "duration": 0.4249290000000201
                },
                {
                    "name": "A#4",
                    "midi": 70,
                    "time": 406.01965950000897,
                    "velocity": 0.33858267716535434,
                    "duration": 0.10623225000000502
                },
                {
                    "name": "D5",
                    "midi": 74,
                    "time": 406.01965950000897,
                    "velocity": 0.4015748031496063,
                    "duration": 0.10623225000000502
                },
                {
                    "name": "A4",
                    "midi": 69,
                    "time": 406.444588500009,
                    "velocity": 0.3228346456692913,
                    "duration": 0.10623225000000502
                },
                {
                    "name": "C5",
                    "midi": 72,
                    "time": 406.444588500009,
                    "velocity": 0.3858267716535433,
                    "duration": 0.10623225000000502
                },
                {
                    "name": "F4",
                    "midi": 65,
                    "time": 406.869517500009,
                    "velocity": 0.2992125984251969,
                    "duration": 0.10623225000000502
                },
                {
                    "name": "A4",
                    "midi": 69,
                    "time": 406.869517500009,
                    "velocity": 0.3543307086614173,
                    "duration": 0.10623225000000502
                },
                {
                    "name": "D5",
                    "midi": 74,
                    "time": 407.29444650000903,
                    "velocity": 0.47244094488188976,
                    "duration": 0.4249290000000201
                },
                {
                    "name": "F5",
                    "midi": 77,
                    "time": 407.29444650000903,
                    "velocity": 0.5669291338582677,
                    "duration": 0.4249290000000201
                },
                {
                    "name": "D5",
                    "midi": 74,
                    "time": 407.71937550000905,
                    "velocity": 0.3700787401574803,
                    "duration": 0.10623225000000502
                },
                {
                    "name": "F5",
                    "midi": 77,
                    "time": 407.71937550000905,
                    "velocity": 0.4409448818897638,
                    "duration": 0.10623225000000502
                },
                {
                    "name": "A#4",
                    "midi": 70,
                    "time": 408.14430450000907,
                    "velocity": 0.3543307086614173,
                    "duration": 0.10623225000000502
                },
                {
                    "name": "D5",
                    "midi": 74,
                    "time": 408.14430450000907,
                    "velocity": 0.41732283464566927,
                    "duration": 0.10623225000000502
                },
                {
                    "name": "G4",
                    "midi": 67,
                    "time": 408.5692335000091,
                    "velocity": 0.3228346456692913,
                    "duration": 0.10623225000000502
                },
                {
                    "name": "A#4",
                    "midi": 70,
                    "time": 408.5692335000091,
                    "velocity": 0.3858267716535433,
                    "duration": 0.10623225000000502
                },
                {
                    "name": "D#5",
                    "midi": 75,
                    "time": 408.9941625000091,
                    "velocity": 0.5354330708661418,
                    "duration": 0.4249290000000201
                },
                {
                    "name": "G5",
                    "midi": 79,
                    "time": 408.9941625000091,
                    "velocity": 0.6614173228346457,
                    "duration": 0.4249290000000201
                },
                {
                    "name": "D5",
                    "midi": 74,
                    "time": 409.41909150000913,
                    "velocity": 0.3858267716535433,
                    "duration": 0.10623225000000502
                },
                {
                    "name": "F5",
                    "midi": 77,
                    "time": 409.41909150000913,
                    "velocity": 0.4566929133858268,
                    "duration": 0.10623225000000502
                },
                {
                    "name": "C5",
                    "midi": 72,
                    "time": 409.84402050000915,
                    "velocity": 0.3700787401574803,
                    "duration": 0.10623225000000502
                },
                {
                    "name": "D#5",
                    "midi": 75,
                    "time": 409.84402050000915,
                    "velocity": 0.4330708661417323,
                    "duration": 0.10623225000000502
                },
                {
                    "name": "A4",
                    "midi": 69,
                    "time": 410.26894950000917,
                    "velocity": 0.33858267716535434,
                    "duration": 0.10623225000000502
                },
                {
                    "name": "C5",
                    "midi": 72,
                    "time": 410.26894950000917,
                    "velocity": 0.4015748031496063,
                    "duration": 0.10623225000000502
                },
                {
                    "name": "D#5",
                    "midi": 75,
                    "time": 410.6938785000092,
                    "velocity": 0.5905511811023622,
                    "duration": 0.4249290000000201
                },
                {
                    "name": "C6",
                    "midi": 84,
                    "time": 410.6938785000092,
                    "velocity": 0.7322834645669292,
                    "duration": 0.4249290000000201
                },
                {
                    "name": "D5",
                    "midi": 74,
                    "time": 411.1188075000092,
                    "velocity": 0.4409448818897638,
                    "duration": 0.10623225000000502
                },
                {
                    "name": "A#5",
                    "midi": 82,
                    "time": 411.1188075000092,
                    "velocity": 0.5275590551181102,
                    "duration": 0.10623225000000502
                },
                {
                    "name": "C5",
                    "midi": 72,
                    "time": 411.54373650000923,
                    "velocity": 0.5590551181102362,
                    "duration": 0.4249290000000201
                },
                {
                    "name": "A5",
                    "midi": 81,
                    "time": 411.54373650000923,
                    "velocity": 0.6456692913385826,
                    "duration": 0.4249290000000201
                },
                {
                    "name": "A#4",
                    "midi": 70,
                    "time": 411.96866550000925,
                    "velocity": 0.4409448818897638,
                    "duration": 0.10623225000000502
                },
                {
                    "name": "G5",
                    "midi": 79,
                    "time": 411.96866550000925,
                    "velocity": 0.5275590551181102,
                    "duration": 0.10623225000000502
                },
                {
                    "name": "A4",
                    "midi": 69,
                    "time": 412.39359450000927,
                    "velocity": 0.3464566929133858,
                    "duration": 0.10623225000000502
                },
                {
                    "name": "F5",
                    "midi": 77,
                    "time": 412.39359450000927,
                    "velocity": 0.4094488188976378,
                    "duration": 0.10623225000000502
                },
                {
                    "name": "D#4",
                    "midi": 63,
                    "time": 412.8185235000093,
                    "velocity": 0.30708661417322836,
                    "duration": 0.10623225000000502
                },
                {
                    "name": "D#5",
                    "midi": 75,
                    "time": 412.8185235000093,
                    "velocity": 0.36220472440944884,
                    "duration": 0.10623225000000502
                },
                {
                    "name": "D5",
                    "midi": 74,
                    "time": 413.0309880000093,
                    "velocity": 0.4251968503937008,
                    "duration": 0.10623225000000502
                },
                {
                    "name": "D4",
                    "midi": 62,
                    "time": 413.1372202500093,
                    "velocity": 0.36220472440944884,
                    "duration": 0.10623225000000502
                },
                {
                    "name": "F#4",
                    "midi": 66,
                    "time": 413.2434525000093,
                    "velocity": 0.33858267716535434,
                    "duration": 0.10623225000000502
                },
                {
                    "name": "A4",
                    "midi": 69,
                    "time": 413.3496847500093,
                    "velocity": 0.33858267716535434,
                    "duration": 0.10623225000000502
                },
                {
                    "name": "D5",
                    "midi": 74,
                    "time": 413.4559170000093,
                    "velocity": 0.41732283464566927,
                    "duration": 0.10623225000000502
                },
                {
                    "name": "F#5",
                    "midi": 78,
                    "time": 413.5621492500093,
                    "velocity": 0.33070866141732286,
                    "duration": 0.10623225000000502
                },
                {
                    "name": "A5",
                    "midi": 81,
                    "time": 413.66838150000933,
                    "velocity": 0.33070866141732286,
                    "duration": 0.10623225000000502
                },
                {
                    "name": "C#6",
                    "midi": 85,
                    "time": 413.77461375000934,
                    "velocity": 0.33070866141732286,
                    "duration": 0.10623225000000502
                },
                {
                    "name": "D6",
                    "midi": 86,
                    "time": 413.88084600000934,
                    "velocity": 0.3858267716535433,
                    "duration": 0.10623225000000502
                },
                {
                    "name": "C#6",
                    "midi": 85,
                    "time": 413.98707825000935,
                    "velocity": 0.30708661417322836,
                    "duration": 0.10623225000000502
                },
                {
                    "name": "D6",
                    "midi": 86,
                    "time": 414.09331050000935,
                    "velocity": 0.33070866141732286,
                    "duration": 0.10623225000000502
                },
                {
                    "name": "C#6",
                    "midi": 85,
                    "time": 414.19954275000936,
                    "velocity": 0.2992125984251969,
                    "duration": 0.10623225000000502
                },
                {
                    "name": "D6",
                    "midi": 86,
                    "time": 414.30577500000936,
                    "velocity": 0.3779527559055118,
                    "duration": 0.10623225000000502
                },
                {
                    "name": "A5",
                    "midi": 81,
                    "time": 414.41200725000937,
                    "velocity": 0.2992125984251969,
                    "duration": 0.10623225000000502
                },
                {
                    "name": "F#5",
                    "midi": 78,
                    "time": 414.5182395000094,
                    "velocity": 0.2992125984251969,
                    "duration": 0.10623225000000502
                },
                {
                    "name": "D5",
                    "midi": 74,
                    "time": 414.6244717500094,
                    "velocity": 0.2992125984251969,
                    "duration": 0.10623225000000502
                },
                {
                    "name": "D4",
                    "midi": 62,
                    "time": 414.8369362500094,
                    "velocity": 0.36220472440944884,
                    "duration": 0.10623225000000502
                },
                {
                    "name": "G4",
                    "midi": 67,
                    "time": 414.9431685000094,
                    "velocity": 0.33858267716535434,
                    "duration": 0.10623225000000502
                },
                {
                    "name": "A#4",
                    "midi": 70,
                    "time": 415.0494007500094,
                    "velocity": 0.33858267716535434,
                    "duration": 0.10623225000000502
                },
                {
                    "name": "D5",
                    "midi": 74,
                    "time": 415.1556330000094,
                    "velocity": 0.41732283464566927,
                    "duration": 0.10623225000000502
                },
                {
                    "name": "G5",
                    "midi": 79,
                    "time": 415.2618652500094,
                    "velocity": 0.33070866141732286,
                    "duration": 0.10623225000000502
                },
                {
                    "name": "A#5",
                    "midi": 82,
                    "time": 415.3680975000094,
                    "velocity": 0.33070866141732286,
                    "duration": 0.10623225000000502
                },
                {
                    "name": "C#6",
                    "midi": 85,
                    "time": 415.4743297500094,
                    "velocity": 0.33070866141732286,
                    "duration": 0.10623225000000502
                },
                {
                    "name": "D6",
                    "midi": 86,
                    "time": 415.5805620000094,
                    "velocity": 0.3858267716535433,
                    "duration": 0.10623225000000502
                },
                {
                    "name": "C#6",
                    "midi": 85,
                    "time": 415.6867942500094,
                    "velocity": 0.30708661417322836,
                    "duration": 0.10623225000000502
                },
                {
                    "name": "D6",
                    "midi": 86,
                    "time": 415.79302650000943,
                    "velocity": 0.33070866141732286,
                    "duration": 0.10623225000000502
                },
                {
                    "name": "C#6",
                    "midi": 85,
                    "time": 415.89925875000944,
                    "velocity": 0.2992125984251969,
                    "duration": 0.10623225000000502
                },
                {
                    "name": "D6",
                    "midi": 86,
                    "time": 416.00549100000944,
                    "velocity": 0.3779527559055118,
                    "duration": 0.10623225000000502
                },
                {
                    "name": "A#5",
                    "midi": 82,
                    "time": 416.11172325000945,
                    "velocity": 0.2992125984251969,
                    "duration": 0.10623225000000502
                },
                {
                    "name": "G5",
                    "midi": 79,
                    "time": 416.21795550000945,
                    "velocity": 0.2992125984251969,
                    "duration": 0.10623225000000502
                },
                {
                    "name": "D5",
                    "midi": 74,
                    "time": 416.32418775000946,
                    "velocity": 0.2992125984251969,
                    "duration": 0.10623225000000502
                },
                {
                    "name": "C#4",
                    "midi": 61,
                    "time": 416.53665225000947,
                    "velocity": 0.36220472440944884,
                    "duration": 0.10623225000000502
                },
                {
                    "name": "E4",
                    "midi": 64,
                    "time": 416.6428845000095,
                    "velocity": 0.33858267716535434,
                    "duration": 0.10623225000000502
                },
                {
                    "name": "G4",
                    "midi": 67,
                    "time": 416.7491167500095,
                    "velocity": 0.33858267716535434,
                    "duration": 0.10623225000000502
                },
                {
                    "name": "A#4",
                    "midi": 70,
                    "time": 416.8553490000095,
                    "velocity": 0.3937007874015748,
                    "duration": 0.10623225000000502
                },
                {
                    "name": "C#5",
                    "midi": 73,
                    "time": 416.9615812500095,
                    "velocity": 0.33070866141732286,
                    "duration": 0.10623225000000502
                },
                {
                    "name": "E5",
                    "midi": 76,
                    "time": 417.0678135000095,
                    "velocity": 0.33070866141732286,
                    "duration": 0.10623225000000502
                },
                {
                    "name": "G5",
                    "midi": 79,
                    "time": 417.1740457500095,
                    "velocity": 0.33070866141732286,
                    "duration": 0.10623225000000502
                },
                {
                    "name": "A#5",
                    "midi": 82,
                    "time": 417.2802780000095,
                    "velocity": 0.3858267716535433,
                    "duration": 0.10623225000000502
                },
                {
                    "name": "G5",
                    "midi": 79,
                    "time": 417.3865102500095,
                    "velocity": 0.3228346456692913,
                    "duration": 0.10623225000000502
                },
                {
                    "name": "C#6",
                    "midi": 85,
                    "time": 417.4927425000095,
                    "velocity": 0.3779527559055118,
                    "duration": 0.10623225000000502
                },
                {
                    "name": "A#5",
                    "midi": 82,
                    "time": 417.5989747500095,
                    "velocity": 0.3228346456692913,
                    "duration": 0.10623225000000502
                },
                {
                    "name": "G5",
                    "midi": 79,
                    "time": 417.7052070000095,
                    "velocity": 0.3779527559055118,
                    "duration": 0.10623225000000502
                },
                {
                    "name": "E5",
                    "midi": 76,
                    "time": 417.8114392500095,
                    "velocity": 0.3543307086614173,
                    "duration": 0.10623225000000502
                },
                {
                    "name": "C#5",
                    "midi": 73,
                    "time": 417.91767150000953,
                    "velocity": 0.33070866141732286,
                    "duration": 0.10623225000000502
                },
                {
                    "name": "A#4",
                    "midi": 70,
                    "time": 418.02390375000954,
                    "velocity": 0.30708661417322836,
                    "duration": 0.10623225000000502
                },
                {
                    "name": "A3",
                    "midi": 57,
                    "time": 418.23636825000955,
                    "velocity": 0.3779527559055118,
                    "duration": 0.10623225000000502
                },
                {
                    "name": "C4",
                    "midi": 60,
                    "time": 418.34260050000955,
                    "velocity": 0.3937007874015748,
                    "duration": 0.10623225000000502
                },
                {
                    "name": "D#4",
                    "midi": 63,
                    "time": 418.44883275000956,
                    "velocity": 0.4015748031496063,
                    "duration": 0.10623225000000502
                },
                {
                    "name": "F#4",
                    "midi": 66,
                    "time": 418.55506500000956,
                    "velocity": 0.41732283464566927,
                    "duration": 0.10623225000000502
                },
                {
                    "name": "A4",
                    "midi": 69,
                    "time": 418.66129725000957,
                    "velocity": 0.4330708661417323,
                    "duration": 0.10623225000000502
                },
                {
                    "name": "C5",
                    "midi": 72,
                    "time": 418.7675295000096,
                    "velocity": 0.44881889763779526,
                    "duration": 0.10623225000000502
                },
                {
                    "name": "D#5",
                    "midi": 75,
                    "time": 418.8737617500096,
                    "velocity": 0.4645669291338583,
                    "duration": 0.10623225000000502
                },
                {
                    "name": "F#5",
                    "midi": 78,
                    "time": 418.9799940000096,
                    "velocity": 0.5118110236220472,
                    "duration": 0.10623225000000502
                },
                {
                    "name": "A5",
                    "midi": 81,
                    "time": 419.0862262500096,
                    "velocity": 0.44881889763779526,
                    "duration": 0.10623225000000502
                },
                {
                    "name": "A4",
                    "midi": 69,
                    "time": 419.1924585000096,
                    "velocity": 0.5039370078740157,
                    "duration": 0.10623225000000502
                },
                {
                    "name": "A5",
                    "midi": 81,
                    "time": 419.2986907500096,
                    "velocity": 0.4409448818897638,
                    "duration": 0.10623225000000502
                },
                {
                    "name": "A4",
                    "midi": 69,
                    "time": 419.4049230000096,
                    "velocity": 0.5039370078740157,
                    "duration": 0.10623225000000502
                },
                {
                    "name": "A5",
                    "midi": 81,
                    "time": 419.5111552500096,
                    "velocity": 0.4566929133858268,
                    "duration": 0.10623225000000502
                },
                {
                    "name": "A4",
                    "midi": 69,
                    "time": 419.6173875000096,
                    "velocity": 0.5039370078740157,
                    "duration": 0.10623225000000502
                },
                {
                    "name": "A5",
                    "midi": 81,
                    "time": 419.7236197500096,
                    "velocity": 0.4645669291338583,
                    "duration": 0.10623225000000502
                },
                {
                    "name": "A#4",
                    "midi": 70,
                    "time": 419.8298520000096,
                    "velocity": 0.5826771653543307,
                    "duration": 0.10623225000000502
                },
                {
                    "name": "A#5",
                    "midi": 82,
                    "time": 419.9360842500096,
                    "velocity": 0.4645669291338583,
                    "duration": 0.10623225000000502
                },
                {
                    "name": "A4",
                    "midi": 69,
                    "time": 420.04231650000963,
                    "velocity": 0.5275590551181102,
                    "duration": 0.10623225000000502
                },
                {
                    "name": "A5",
                    "midi": 81,
                    "time": 420.14854875000964,
                    "velocity": 0.4251968503937008,
                    "duration": 0.10623225000000502
                },
                {
                    "name": "A#4",
                    "midi": 70,
                    "time": 420.25478100000964,
                    "velocity": 0.5196850393700787,
                    "duration": 0.10623225000000502
                },
                {
                    "name": "A#5",
                    "midi": 82,
                    "time": 420.36101325000965,
                    "velocity": 0.44881889763779526,
                    "duration": 0.10623225000000502
                },
                {
                    "name": "D#4",
                    "midi": 63,
                    "time": 420.46724550000965,
                    "velocity": 0.4645669291338583,
                    "duration": 0.10623225000000502
                },
                {
                    "name": "D#5",
                    "midi": 75,
                    "time": 420.57347775000966,
                    "velocity": 0.3937007874015748,
                    "duration": 0.10623225000000502
                },
                {
                    "name": "D4",
                    "midi": 62,
                    "time": 420.67971000000966,
                    "velocity": 0.6220472440944882,
                    "duration": 0.10623225000000502
                },
                {
                    "name": "D5",
                    "midi": 74,
                    "time": 420.78594225000967,
                    "velocity": 0.4251968503937008,
                    "duration": 0.10623225000000502
                },
                {
                    "name": "A4",
                    "midi": 69,
                    "time": 420.8921745000097,
                    "velocity": 0.5118110236220472,
                    "duration": 0.10623225000000502
                },
                {
                    "name": "A5",
                    "midi": 81,
                    "time": 420.9984067500097,
                    "velocity": 0.44881889763779526,
                    "duration": 0.10623225000000502
                },
                {
                    "name": "A#4",
                    "midi": 70,
                    "time": 421.1046390000097,
                    "velocity": 0.5354330708661418,
                    "duration": 0.10623225000000502
                },
                {
                    "name": "A#5",
                    "midi": 82,
                    "time": 421.2108712500097,
                    "velocity": 0.47244094488188976,
                    "duration": 0.10623225000000502
                },
                {
                    "name": "D#4",
                    "midi": 63,
                    "time": 421.3171035000097,
                    "velocity": 0.5275590551181102,
                    "duration": 0.10623225000000502
                },
                {
                    "name": "D#5",
                    "midi": 75,
                    "time": 421.4233357500097,
                    "velocity": 0.4566929133858268,
                    "duration": 0.10623225000000502
                },
                {
                    "name": "D4",
                    "midi": 62,
                    "time": 421.5295680000097,
                    "velocity": 0.6377952755905512,
                    "duration": 0.10623225000000502
                },
                {
                    "name": "D5",
                    "midi": 74,
                    "time": 421.6358002500097,
                    "velocity": 0.4566929133858268,
                    "duration": 0.10623225000000502
                },
                {
                    "name": "A4",
                    "midi": 69,
                    "time": 421.7420325000097,
                    "velocity": 0.5039370078740157,
                    "duration": 0.10623225000000502
                },
                {
                    "name": "A5",
                    "midi": 81,
                    "time": 421.8482647500097,
                    "velocity": 0.4645669291338583,
                    "duration": 0.10623225000000502
                },
                {
                    "name": "A#4",
                    "midi": 70,
                    "time": 421.9544970000097,
                    "velocity": 0.5275590551181102,
                    "duration": 0.10623225000000502
                },
                {
                    "name": "A#5",
                    "midi": 82,
                    "time": 422.06072925000973,
                    "velocity": 0.4330708661417323,
                    "duration": 0.10623225000000502
                },
                {
                    "name": "D#4",
                    "midi": 63,
                    "time": 422.16696150000973,
                    "velocity": 0.4881889763779528,
                    "duration": 0.10623225000000502
                },
                {
                    "name": "D#5",
                    "midi": 75,
                    "time": 422.27319375000974,
                    "velocity": 0.4015748031496063,
                    "duration": 0.10623225000000502
                },
                {
                    "name": "D4",
                    "midi": 62,
                    "time": 422.37942600000974,
                    "velocity": 0.5669291338582677,
                    "duration": 0.10623225000000502
                },
                {
                    "name": "D5",
                    "midi": 74,
                    "time": 422.48565825000975,
                    "velocity": 0.4094488188976378,
                    "duration": 0.10623225000000502
                },
                {
                    "name": "A4",
                    "midi": 69,
                    "time": 422.59189050000975,
                    "velocity": 0.5039370078740157,
                    "duration": 0.10623225000000502
                },
                {
                    "name": "A5",
                    "midi": 81,
                    "time": 422.69812275000976,
                    "velocity": 0.4251968503937008,
                    "duration": 0.10623225000000502
                },
                {
                    "name": "A#4",
                    "midi": 70,
                    "time": 422.80435500000976,
                    "velocity": 0.5039370078740157,
                    "duration": 0.10623225000000502
                },
                {
                    "name": "A#5",
                    "midi": 82,
                    "time": 422.91058725000977,
                    "velocity": 0.4015748031496063,
                    "duration": 0.10623225000000502
                },
                {
                    "name": "D#4",
                    "midi": 63,
                    "time": 423.0168195000098,
                    "velocity": 0.47244094488188976,
                    "duration": 0.10623225000000502
                },
                {
                    "name": "D#5",
                    "midi": 75,
                    "time": 423.1230517500098,
                    "velocity": 0.4015748031496063,
                    "duration": 0.10623225000000502
                },
                {
                    "name": "D4",
                    "midi": 62,
                    "time": 423.2292840000098,
                    "velocity": 0.6535433070866141,
                    "duration": 0.10623225000000502
                },
                {
                    "name": "D5",
                    "midi": 74,
                    "time": 423.3355162500098,
                    "velocity": 0.41732283464566927,
                    "duration": 0.10623225000000502
                },
                {
                    "name": "A4",
                    "midi": 69,
                    "time": 423.4417485000098,
                    "velocity": 0.4881889763779528,
                    "duration": 0.10623225000000502
                },
                {
                    "name": "A5",
                    "midi": 81,
                    "time": 423.5479807500098,
                    "velocity": 0.4251968503937008,
                    "duration": 0.10623225000000502
                },
                {
                    "name": "A#4",
                    "midi": 70,
                    "time": 423.6542130000098,
                    "velocity": 0.4881889763779528,
                    "duration": 0.10623225000000502
                },
                {
                    "name": "A#5",
                    "midi": 82,
                    "time": 423.7604452500098,
                    "velocity": 0.4251968503937008,
                    "duration": 0.10623225000000502
                },
                {
                    "name": "A4",
                    "midi": 69,
                    "time": 423.8666775000098,
                    "velocity": 0.4881889763779528,
                    "duration": 0.10623225000000502
                },
                {
                    "name": "A5",
                    "midi": 81,
                    "time": 423.9729097500098,
                    "velocity": 0.41732283464566927,
                    "duration": 0.10623225000000502
                },
                {
                    "name": "G4",
                    "midi": 67,
                    "time": 424.0791420000098,
                    "velocity": 0.6377952755905512,
                    "duration": 0.10623225000000502
                },
                {
                    "name": "G5",
                    "midi": 79,
                    "time": 424.18537425000983,
                    "velocity": 0.41732283464566927,
                    "duration": 0.10623225000000502
                },
                {
                    "name": "F4",
                    "midi": 65,
                    "time": 424.29160650000983,
                    "velocity": 0.47244094488188976,
                    "duration": 0.10623225000000502
                },
                {
                    "name": "F5",
                    "midi": 77,
                    "time": 424.39783875000984,
                    "velocity": 0.4094488188976378,
                    "duration": 0.10623225000000502
                },
                {
                    "name": "D#4",
                    "midi": 63,
                    "time": 424.50407100000984,
                    "velocity": 0.4645669291338583,
                    "duration": 0.10623225000000502
                },
                {
                    "name": "D#5",
                    "midi": 75,
                    "time": 424.61030325000985,
                    "velocity": 0.4094488188976378,
                    "duration": 0.10623225000000502
                },
                {
                    "name": "D4",
                    "midi": 62,
                    "time": 424.71653550000985,
                    "velocity": 0.4645669291338583,
                    "duration": 0.10623225000000502
                },
                {
                    "name": "D5",
                    "midi": 74,
                    "time": 424.82276775000986,
                    "velocity": 0.3937007874015748,
                    "duration": 0.10623225000000502
                },
                {
                    "name": "C4",
                    "midi": 60,
                    "time": 424.92900000000986,
                    "velocity": 0.6220472440944882,
                    "duration": 0.10623225000000502
                },
                {
                    "name": "C5",
                    "midi": 72,
                    "time": 425.03523225000987,
                    "velocity": 0.3937007874015748,
                    "duration": 0.10623225000000502
                },
                {
                    "name": "A#3",
                    "midi": 58,
                    "time": 425.1414645000099,
                    "velocity": 0.4645669291338583,
                    "duration": 0.10623225000000502
                },
                {
                    "name": "A#4",
                    "midi": 70,
                    "time": 425.2476967500099,
                    "velocity": 0.3858267716535433,
                    "duration": 0.10623225000000502
                },
                {
                    "name": "A3",
                    "midi": 57,
                    "time": 425.3539290000099,
                    "velocity": 0.4645669291338583,
                    "duration": 0.10623225000000502
                },
                {
                    "name": "A4",
                    "midi": 69,
                    "time": 425.4601612500099,
                    "velocity": 0.3858267716535433,
                    "duration": 0.10623225000000502
                },
                {
                    "name": "G3",
                    "midi": 55,
                    "time": 425.5663935000099,
                    "velocity": 0.4645669291338583,
                    "duration": 0.10623225000000502
                },
                {
                    "name": "G4",
                    "midi": 67,
                    "time": 425.6726257500099,
                    "velocity": 0.4015748031496063,
                    "duration": 0.10623225000000502
                },
                {
                    "name": "F3",
                    "midi": 53,
                    "time": 425.7788580000099,
                    "velocity": 0.6220472440944882,
                    "duration": 0.10623225000000502
                },
                {
                    "name": "F4",
                    "midi": 65,
                    "time": 425.8850902500099,
                    "velocity": 0.3858267716535433,
                    "duration": 0.10623225000000502
                },
                {
                    "name": "D#3",
                    "midi": 51,
                    "time": 425.9913225000099,
                    "velocity": 0.4645669291338583,
                    "duration": 0.10623225000000502
                },
                {
                    "name": "D#4",
                    "midi": 63,
                    "time": 426.0975547500099,
                    "velocity": 0.3937007874015748,
                    "duration": 0.10623225000000502
                },
                {
                    "name": "D3",
                    "midi": 50,
                    "time": 426.2037870000099,
                    "velocity": 0.4645669291338583,
                    "duration": 0.10623225000000502
                },
                {
                    "name": "D4",
                    "midi": 62,
                    "time": 426.31001925000993,
                    "velocity": 0.3779527559055118,
                    "duration": 0.10623225000000502
                },
                {
                    "name": "C3",
                    "midi": 48,
                    "time": 426.41625150000993,
                    "velocity": 0.4566929133858268,
                    "duration": 0.10623225000000502
                },
                {
                    "name": "C4",
                    "midi": 60,
                    "time": 426.52248375000994,
                    "velocity": 0.3858267716535433,
                    "duration": 0.10623225000000502
                },
                {
                    "name": "A#3",
                    "midi": 58,
                    "time": 426.62871600000994,
                    "velocity": 0.5984251968503937,
                    "duration": 0.10623225000000502
                },
                {
                    "name": "A#2",
                    "midi": 46,
                    "time": 426.62871600000994,
                    "velocity": 0.5039370078740157,
                    "duration": 0.10623225000000502
                },
                {
                    "name": "A3",
                    "midi": 57,
                    "time": 426.84118050000995,
                    "velocity": 0.3858267716535433,
                    "duration": 0.10623225000000502
                },
                {
                    "name": "F3",
                    "midi": 53,
                    "time": 426.94741275000996,
                    "velocity": 0.33070866141732286,
                    "duration": 0.10623225000000502
                },
                {
                    "name": "A#3",
                    "midi": 58,
                    "time": 427.05364500000996,
                    "velocity": 0.3858267716535433,
                    "duration": 0.10623225000000502
                },
                {
                    "name": "F3",
                    "midi": 53,
                    "time": 427.15987725000997,
                    "velocity": 0.3228346456692913,
                    "duration": 0.10623225000000502
                },
                {
                    "name": "D#4",
                    "midi": 63,
                    "time": 427.26610950001,
                    "velocity": 0.3858267716535433,
                    "duration": 0.10623225000000502
                },
                {
                    "name": "F3",
                    "midi": 53,
                    "time": 427.37234175001,
                    "velocity": 0.33070866141732286,
                    "duration": 0.10623225000000502
                },
                {
                    "name": "D4",
                    "midi": 62,
                    "time": 427.47857400001,
                    "velocity": 0.3858267716535433,
                    "duration": 0.10623225000000502
                },
                {
                    "name": "F3",
                    "midi": 53,
                    "time": 427.58480625001,
                    "velocity": 0.3228346456692913,
                    "duration": 0.10623225000000502
                },
                {
                    "name": "A3",
                    "midi": 57,
                    "time": 427.69103850001,
                    "velocity": 0.3858267716535433,
                    "duration": 0.10623225000000502
                },
                {
                    "name": "F3",
                    "midi": 53,
                    "time": 427.79727075001,
                    "velocity": 0.33070866141732286,
                    "duration": 0.10623225000000502
                },
                {
                    "name": "A#3",
                    "midi": 58,
                    "time": 427.90350300001,
                    "velocity": 0.3858267716535433,
                    "duration": 0.10623225000000502
                },
                {
                    "name": "F3",
                    "midi": 53,
                    "time": 428.00973525001,
                    "velocity": 0.33858267716535434,
                    "duration": 0.10623225000000502
                },
                {
                    "name": "D#4",
                    "midi": 63,
                    "time": 428.11596750001,
                    "velocity": 0.3858267716535433,
                    "duration": 0.10623225000000502
                },
                {
                    "name": "F3",
                    "midi": 53,
                    "time": 428.22219975001,
                    "velocity": 0.31496062992125984,
                    "duration": 0.10623225000000502
                },
                {
                    "name": "D4",
                    "midi": 62,
                    "time": 428.32843200001,
                    "velocity": 0.3858267716535433,
                    "duration": 0.10623225000000502
                },
                {
                    "name": "F3",
                    "midi": 53,
                    "time": 428.43466425001003,
                    "velocity": 0.3228346456692913,
                    "duration": 0.10623225000000502
                },
                {
                    "name": "A3",
                    "midi": 57,
                    "time": 428.54089650001004,
                    "velocity": 0.3858267716535433,
                    "duration": 0.10623225000000502
                },
                {
                    "name": "F3",
                    "midi": 53,
                    "time": 428.64712875001004,
                    "velocity": 0.33070866141732286,
                    "duration": 0.10623225000000502
                },
                {
                    "name": "A#3",
                    "midi": 58,
                    "time": 428.75336100001005,
                    "velocity": 0.3858267716535433,
                    "duration": 0.10623225000000502
                },
                {
                    "name": "F3",
                    "midi": 53,
                    "time": 428.85959325001005,
                    "velocity": 0.33858267716535434,
                    "duration": 0.10623225000000502
                },
                {
                    "name": "D#4",
                    "midi": 63,
                    "time": 428.96582550001006,
                    "velocity": 0.3858267716535433,
                    "duration": 0.10623225000000502
                },
                {
                    "name": "F3",
                    "midi": 53,
                    "time": 429.07205775001006,
                    "velocity": 0.31496062992125984,
                    "duration": 0.10623225000000502
                },
                {
                    "name": "D4",
                    "midi": 62,
                    "time": 429.17829000001007,
                    "velocity": 0.4409448818897638,
                    "duration": 0.21246450000001005
                },
                {
                    "name": "F#3",
                    "midi": 54,
                    "time": 429.3907545000101,
                    "velocity": 0.47244094488188976,
                    "duration": 0.10623225000000502
                },
                {
                    "name": "F#4",
                    "midi": 66,
                    "time": 429.4969867500101,
                    "velocity": 0.4094488188976378,
                    "duration": 0.10623225000000502
                },
                {
                    "name": "G3",
                    "midi": 55,
                    "time": 429.6032190000101,
                    "velocity": 0.48031496062992124,
                    "duration": 0.10623225000000502
                },
                {
                    "name": "G4",
                    "midi": 67,
                    "time": 429.7094512500101,
                    "velocity": 0.3858267716535433,
                    "duration": 0.10623225000000502
                },
                {
                    "name": "A3",
                    "midi": 57,
                    "time": 429.8156835000101,
                    "velocity": 0.5275590551181102,
                    "duration": 0.10623225000000502
                },
                {
                    "name": "A4",
                    "midi": 69,
                    "time": 429.9219157500101,
                    "velocity": 0.47244094488188976,
                    "duration": 0.10623225000000502
                },
                {
                    "name": "A#3",
                    "midi": 58,
                    "time": 430.0281480000101,
                    "velocity": 0.5590551181102362,
                    "duration": 0.10623225000000502
                },
                {
                    "name": "A#4",
                    "midi": 70,
                    "time": 430.1343802500101,
                    "velocity": 0.4881889763779528,
                    "duration": 0.10623225000000502
                },
                {
                    "name": "B3",
                    "midi": 59,
                    "time": 430.2406125000101,
                    "velocity": 0.5511811023622047,
                    "duration": 0.10623225000000502
                },
                {
                    "name": "B4",
                    "midi": 71,
                    "time": 430.3468447500101,
                    "velocity": 0.5039370078740157,
                    "duration": 0.10623225000000502
                },
                {
                    "name": "C4",
                    "midi": 60,
                    "time": 430.4530770000101,
                    "velocity": 0.5511811023622047,
                    "duration": 0.10623225000000502
                },
                {
                    "name": "C5",
                    "midi": 72,
                    "time": 430.55930925001013,
                    "velocity": 0.5039370078740157,
                    "duration": 0.10623225000000502
                },
                {
                    "name": "D4",
                    "midi": 62,
                    "time": 430.66554150001014,
                    "velocity": 0.5826771653543307,
                    "duration": 0.10623225000000502
                },
                {
                    "name": "D5",
                    "midi": 74,
                    "time": 430.77177375001014,
                    "velocity": 0.5118110236220472,
                    "duration": 0.10623225000000502
                },
                {
                    "name": "D#4",
                    "midi": 63,
                    "time": 430.87800600001015,
                    "velocity": 0.6456692913385826,
                    "duration": 0.10623225000000502
                },
                {
                    "name": "D#5",
                    "midi": 75,
                    "time": 430.98423825001015,
                    "velocity": 0.5590551181102362,
                    "duration": 0.10623225000000502
                },
                {
                    "name": "F4",
                    "midi": 65,
                    "time": 431.09047050001016,
                    "velocity": 0.6220472440944882,
                    "duration": 0.10623225000000502
                },
                {
                    "name": "F5",
                    "midi": 77,
                    "time": 431.19670275001016,
                    "velocity": 0.5511811023622047,
                    "duration": 0.10623225000000502
                },
                {
                    "name": "G4",
                    "midi": 67,
                    "time": 431.30293500001017,
                    "velocity": 0.6535433070866141,
                    "duration": 0.10623225000000502
                },
                {
                    "name": "G5",
                    "midi": 79,
                    "time": 431.40916725001017,
                    "velocity": 0.5669291338582677,
                    "duration": 0.10623225000000502
                },
                {
                    "name": "F4",
                    "midi": 65,
                    "time": 431.5153995000102,
                    "velocity": 0.6377952755905512,
                    "duration": 0.10623225000000502
                },
                {
                    "name": "F5",
                    "midi": 77,
                    "time": 431.6216317500102,
                    "velocity": 0.5433070866141733,
                    "duration": 0.10623225000000502
                },
                {
                    "name": "D#4",
                    "midi": 63,
                    "time": 431.7278640000102,
                    "velocity": 0.6614173228346457,
                    "duration": 0.10623225000000502
                },
                {
                    "name": "D#5",
                    "midi": 75,
                    "time": 431.8340962500102,
                    "velocity": 0.5433070866141733,
                    "duration": 0.10623225000000502
                },
                {
                    "name": "D4",
                    "midi": 62,
                    "time": 431.9403285000102,
                    "velocity": 0.6377952755905512,
                    "duration": 0.10623225000000502
                },
                {
                    "name": "D5",
                    "midi": 74,
                    "time": 432.0465607500102,
                    "velocity": 0.5433070866141733,
                    "duration": 0.10623225000000502
                },
                {
                    "name": "C4",
                    "midi": 60,
                    "time": 432.1527930000102,
                    "velocity": 0.6220472440944882,
                    "duration": 0.10623225000000502
                },
                {
                    "name": "C5",
                    "midi": 72,
                    "time": 432.2590252500102,
                    "velocity": 0.5433070866141733,
                    "duration": 0.10623225000000502
                },
                {
                    "name": "A#3",
                    "midi": 58,
                    "time": 432.3652575000102,
                    "velocity": 0.6141732283464567,
                    "duration": 0.10623225000000502
                },
                {
                    "name": "A#4",
                    "midi": 70,
                    "time": 432.4714897500102,
                    "velocity": 0.5118110236220472,
                    "duration": 0.10623225000000502
                },
                {
                    "name": "A3",
                    "midi": 57,
                    "time": 432.5777220000102,
                    "velocity": 0.6220472440944882,
                    "duration": 0.10623225000000502
                },
                {
                    "name": "A4",
                    "midi": 69,
                    "time": 432.68395425001023,
                    "velocity": 0.5433070866141733,
                    "duration": 0.10623225000000502
                },
                {
                    "name": "G3",
                    "midi": 55,
                    "time": 432.79018650001024,
                    "velocity": 0.6062992125984252,
                    "duration": 0.10623225000000502
                },
                {
                    "name": "G4",
                    "midi": 67,
                    "time": 432.89641875001024,
                    "velocity": 0.5118110236220472,
                    "duration": 0.10623225000000502
                },
                {
                    "name": "F3",
                    "midi": 53,
                    "time": 433.00265100001025,
                    "velocity": 0.6062992125984252,
                    "duration": 0.10623225000000502
                },
                {
                    "name": "F4",
                    "midi": 65,
                    "time": 433.10888325001025,
                    "velocity": 0.5275590551181102,
                    "duration": 0.10623225000000502
                },
                {
                    "name": "A3",
                    "midi": 57,
                    "time": 433.21511550001026,
                    "velocity": 0.5905511811023622,
                    "duration": 0.10623225000000502
                },
                {
                    "name": "A4",
                    "midi": 69,
                    "time": 433.32134775001026,
                    "velocity": 0.5196850393700787,
                    "duration": 0.10623225000000502
                },
                {
                    "name": "A#4",
                    "midi": 70,
                    "time": 433.42758000001027,
                    "velocity": 0.6220472440944882,
                    "duration": 0.4249290000000201
                },
                {
                    "name": "A#3",
                    "midi": 58,
                    "time": 433.42758000001027,
                    "velocity": 0.6220472440944882,
                    "duration": 0.4249290000000201
                },
                {
                    "name": "F4",
                    "midi": 65,
                    "time": 434.2774380000103,
                    "velocity": 0.31496062992125984,
                    "duration": 0.8498579999999833
                },
                {
                    "name": "D4",
                    "midi": 62,
                    "time": 434.2774380000103,
                    "velocity": 0.2677165354330709,
                    "duration": 0.8498579999999833
                },
                {
                    "name": "A#3",
                    "midi": 58,
                    "time": 434.9148315000103,
                    "velocity": 0.30708661417322836,
                    "duration": 0.21246450000001005
                },
                {
                    "name": "F#4",
                    "midi": 66,
                    "time": 435.1272960000103,
                    "velocity": 0.36220472440944884,
                    "duration": 0.8498579999999833
                },
                {
                    "name": "D#4",
                    "midi": 63,
                    "time": 435.1272960000103,
                    "velocity": 0.30708661417322836,
                    "duration": 0.8498579999999833
                },
                {
                    "name": "C#4",
                    "midi": 61,
                    "time": 435.76468950001026,
                    "velocity": 0.31496062992125984,
                    "duration": 0.21246450000001005
                },
                {
                    "name": "F#4",
                    "midi": 66,
                    "time": 435.9771540000103,
                    "velocity": 0.25196850393700787,
                    "duration": 0.4249290000000201
                },
                {
                    "name": "D#4",
                    "midi": 63,
                    "time": 435.9771540000103,
                    "velocity": 0.25196850393700787,
                    "duration": 0.4249290000000201
                },
                {
                    "name": "B3",
                    "midi": 59,
                    "time": 435.9771540000103,
                    "velocity": 0.3543307086614173,
                    "duration": 0.21246450000001005
                },
                {
                    "name": "A#3",
                    "midi": 58,
                    "time": 436.1896185000103,
                    "velocity": 0.31496062992125984,
                    "duration": 0.21246450000001005
                },
                {
                    "name": "F#4",
                    "midi": 66,
                    "time": 436.4020830000103,
                    "velocity": 0.25984251968503935,
                    "duration": 0.4249290000000201
                },
                {
                    "name": "D#4",
                    "midi": 63,
                    "time": 436.4020830000103,
                    "velocity": 0.25984251968503935,
                    "duration": 0.4249290000000201
                },
                {
                    "name": "B3",
                    "midi": 59,
                    "time": 436.4020830000103,
                    "velocity": 0.36220472440944884,
                    "duration": 0.21246450000001005
                },
                {
                    "name": "A3",
                    "midi": 57,
                    "time": 436.6145475000103,
                    "velocity": 0.31496062992125984,
                    "duration": 0.21246450000001005
                },
                {
                    "name": "F4",
                    "midi": 65,
                    "time": 436.8270120000103,
                    "velocity": 0.36220472440944884,
                    "duration": 0.6373934999999733
                },
                {
                    "name": "D4",
                    "midi": 62,
                    "time": 436.8270120000103,
                    "velocity": 0.30708661417322836,
                    "duration": 0.6373934999999733
                },
                {
                    "name": "A#3",
                    "midi": 58,
                    "time": 436.8270120000103,
                    "velocity": 0.30708661417322836,
                    "duration": 0.6373934999999733
                },
                {
                    "name": "D5",
                    "midi": 74,
                    "time": 437.6768700000103,
                    "velocity": 0.4094488188976378,
                    "duration": 0.6373934999999733
                },
                {
                    "name": "F4",
                    "midi": 65,
                    "time": 437.6768700000103,
                    "velocity": 0.4094488188976378,
                    "duration": 0.8498579999999833
                },
                {
                    "name": "D4",
                    "midi": 62,
                    "time": 437.6768700000103,
                    "velocity": 0.3464566929133858,
                    "duration": 0.8498579999999833
                },
                {
                    "name": "A#4",
                    "midi": 70,
                    "time": 438.31426350001027,
                    "velocity": 0.3937007874015748,
                    "duration": 0.21246450000001005
                },
                {
                    "name": "D#5",
                    "midi": 75,
                    "time": 438.5267280000103,
                    "velocity": 0.4094488188976378,
                    "duration": 0.6373934999999733
                },
                {
                    "name": "F#4",
                    "midi": 66,
                    "time": 438.5267280000103,
                    "velocity": 0.4645669291338583,
                    "duration": 0.8498579999999833
                },
                {
                    "name": "D#4",
                    "midi": 63,
                    "time": 438.5267280000103,
                    "velocity": 0.3937007874015748,
                    "duration": 0.8498579999999833
                },
                {
                    "name": "C#5",
                    "midi": 73,
                    "time": 439.16412150001025,
                    "velocity": 0.4094488188976378,
                    "duration": 0.21246450000001005
                },
                {
                    "name": "F#4",
                    "midi": 66,
                    "time": 439.37658600001026,
                    "velocity": 0.3228346456692913,
                    "duration": 0.4249290000000201
                },
                {
                    "name": "D#4",
                    "midi": 63,
                    "time": 439.37658600001026,
                    "velocity": 0.3228346456692913,
                    "duration": 0.4249290000000201
                },
                {
                    "name": "B4",
                    "midi": 71,
                    "time": 439.37658600001026,
                    "velocity": 0.4566929133858268,
                    "duration": 0.21246450000001005
                },
                {
                    "name": "A#4",
                    "midi": 70,
                    "time": 439.5890505000103,
                    "velocity": 0.4094488188976378,
                    "duration": 0.21246450000001005
                },
                {
                    "name": "F#4",
                    "midi": 66,
                    "time": 439.8015150000103,
                    "velocity": 0.33070866141732286,
                    "duration": 0.4249290000000201
                },
                {
                    "name": "D#4",
                    "midi": 63,
                    "time": 439.8015150000103,
                    "velocity": 0.33070866141732286,
                    "duration": 0.4249290000000201
                },
                {
                    "name": "B4",
                    "midi": 71,
                    "time": 439.8015150000103,
                    "velocity": 0.4645669291338583,
                    "duration": 0.21246450000001005
                },
                {
                    "name": "A4",
                    "midi": 69,
                    "time": 440.0139795000103,
                    "velocity": 0.4094488188976378,
                    "duration": 0.21246450000001005
                },
                {
                    "name": "A#4",
                    "midi": 70,
                    "time": 440.2264440000103,
                    "velocity": 0.4645669291338583,
                    "duration": 0.6373934999999733
                },
                {
                    "name": "F4",
                    "midi": 65,
                    "time": 440.2264440000103,
                    "velocity": 0.3937007874015748,
                    "duration": 0.6373934999999733
                },
                {
                    "name": "D4",
                    "midi": 62,
                    "time": 440.2264440000103,
                    "velocity": 0.3937007874015748,
                    "duration": 0.6373934999999733
                },
                {
                    "name": "F#4",
                    "midi": 66,
                    "time": 441.0763020000103,
                    "velocity": 0.29133858267716534,
                    "duration": 0.4249290000000201
                },
                {
                    "name": "D#4",
                    "midi": 63,
                    "time": 441.0763020000103,
                    "velocity": 0.29133858267716534,
                    "duration": 0.4249290000000201
                },
                {
                    "name": "C5",
                    "midi": 72,
                    "time": 441.0763020000103,
                    "velocity": 0.41732283464566927,
                    "duration": 0.21246450000001005
                },
                {
                    "name": "A#4",
                    "midi": 70,
                    "time": 441.2887665000103,
                    "velocity": 0.36220472440944884,
                    "duration": 0.21246450000001005
                },
                {
                    "name": "F#4",
                    "midi": 66,
                    "time": 441.5012310000103,
                    "velocity": 0.28346456692913385,
                    "duration": 0.4249290000000201
                },
                {
                    "name": "D#4",
                    "midi": 63,
                    "time": 441.5012310000103,
                    "velocity": 0.28346456692913385,
                    "duration": 0.4249290000000201
                },
                {
                    "name": "C5",
                    "midi": 72,
                    "time": 441.5012310000103,
                    "velocity": 0.4015748031496063,
                    "duration": 0.21246450000001005
                },
                {
                    "name": "A4",
                    "midi": 69,
                    "time": 441.7136955000103,
                    "velocity": 0.3464566929133858,
                    "duration": 0.21246450000001005
                },
                {
                    "name": "A#4",
                    "midi": 70,
                    "time": 441.9261600000103,
                    "velocity": 0.3858267716535433,
                    "duration": 0.6373934999999733
                },
                {
                    "name": "F4",
                    "midi": 65,
                    "time": 441.9261600000103,
                    "velocity": 0.33070866141732286,
                    "duration": 0.6373934999999733
                },
                {
                    "name": "D4",
                    "midi": 62,
                    "time": 441.9261600000103,
                    "velocity": 0.33070866141732286,
                    "duration": 0.6373934999999733
                },
                {
                    "name": "F#4",
                    "midi": 66,
                    "time": 442.7760180000103,
                    "velocity": 0.23622047244094488,
                    "duration": 0.4249290000000201
                },
                {
                    "name": "D#4",
                    "midi": 63,
                    "time": 442.7760180000103,
                    "velocity": 0.23622047244094488,
                    "duration": 0.4249290000000201
                },
                {
                    "name": "B4",
                    "midi": 71,
                    "time": 442.7760180000103,
                    "velocity": 0.33858267716535434,
                    "duration": 0.21246450000001005
                },
                {
                    "name": "A#4",
                    "midi": 70,
                    "time": 442.9884825000103,
                    "velocity": 0.30708661417322836,
                    "duration": 0.21246450000001005
                },
                {
                    "name": "F#4",
                    "midi": 66,
                    "time": 443.20094700001033,
                    "velocity": 0.2440944881889764,
                    "duration": 0.4249290000000201
                },
                {
                    "name": "D#4",
                    "midi": 63,
                    "time": 443.20094700001033,
                    "velocity": 0.2440944881889764,
                    "duration": 0.4249290000000201
                },
                {
                    "name": "B4",
                    "midi": 71,
                    "time": 443.20094700001033,
                    "velocity": 0.3464566929133858,
                    "duration": 0.21246450000001005
                },
                {
                    "name": "A4",
                    "midi": 69,
                    "time": 443.41341150001034,
                    "velocity": 0.30708661417322836,
                    "duration": 0.21246450000001005
                },
                {
                    "name": "A#3",
                    "midi": 58,
                    "time": 443.62587600001035,
                    "velocity": 0.5826771653543307,
                    "duration": 0.6373934999999733
                },
                {
                    "name": "A#4",
                    "midi": 70,
                    "time": 443.62587600001035,
                    "velocity": 0.6929133858267716,
                    "duration": 0.6373934999999733
                },
                {
                    "name": "C4",
                    "midi": 60,
                    "time": 444.2632695000103,
                    "velocity": 0.5275590551181102,
                    "duration": 0.10623225000000502
                },
                {
                    "name": "C5",
                    "midi": 72,
                    "time": 444.2632695000103,
                    "velocity": 0.6220472440944882,
                    "duration": 0.10623225000000502
                },
                {
                    "name": "D4",
                    "midi": 62,
                    "time": 444.47573400001033,
                    "velocity": 0.5826771653543307,
                    "duration": 0.6373934999999733
                },
                {
                    "name": "D5",
                    "midi": 74,
                    "time": 444.47573400001033,
                    "velocity": 0.7007874015748031,
                    "duration": 0.6373934999999733
                },
                {
                    "name": "D#4",
                    "midi": 63,
                    "time": 445.1131275000103,
                    "velocity": 0.5354330708661418,
                    "duration": 0.10623225000000502
                },
                {
                    "name": "D#5",
                    "midi": 75,
                    "time": 445.1131275000103,
                    "velocity": 0.6377952755905512,
                    "duration": 0.10623225000000502
                },
                {
                    "name": "F4",
                    "midi": 65,
                    "time": 445.3255920000103,
                    "velocity": 0.6062992125984252,
                    "duration": 0.6373934999999733
                },
                {
                    "name": "F5",
                    "midi": 77,
                    "time": 445.3255920000103,
                    "velocity": 0.7165354330708661,
                    "duration": 0.6373934999999733
                },
                {
                    "name": "G4",
                    "midi": 67,
                    "time": 445.9629855000103,
                    "velocity": 0.4881889763779528,
                    "duration": 0.10623225000000502
                },
                {
                    "name": "G5",
                    "midi": 79,
                    "time": 445.9629855000103,
                    "velocity": 0.5826771653543307,
                    "duration": 0.10623225000000502
                },
                {
                    "name": "A4",
                    "midi": 69,
                    "time": 446.1754500000103,
                    "velocity": 0.5590551181102362,
                    "duration": 0.10623225000000502
                },
                {
                    "name": "A5",
                    "midi": 81,
                    "time": 446.1754500000103,
                    "velocity": 0.6614173228346457,
                    "duration": 0.10623225000000502
                },
                {
                    "name": "A#4",
                    "midi": 70,
                    "time": 446.3879145000103,
                    "velocity": 0.5354330708661418,
                    "duration": 0.10623225000000502
                },
                {
                    "name": "A#5",
                    "midi": 82,
                    "time": 446.3879145000103,
                    "velocity": 0.6377952755905512,
                    "duration": 0.10623225000000502
                },
                {
                    "name": "C5",
                    "midi": 72,
                    "time": 446.6003790000103,
                    "velocity": 0.5826771653543307,
                    "duration": 0.10623225000000502
                },
                {
                    "name": "C6",
                    "midi": 84,
                    "time": 446.6003790000103,
                    "velocity": 0.6850393700787402,
                    "duration": 0.10623225000000502
                },
                {
                    "name": "D5",
                    "midi": 74,
                    "time": 446.81284350001033,
                    "velocity": 0.5433070866141733,
                    "duration": 0.10623225000000502
                },
                {
                    "name": "D6",
                    "midi": 86,
                    "time": 446.81284350001033,
                    "velocity": 0.6535433070866141,
                    "duration": 0.10623225000000502
                },
                {
                    "name": "D#5",
                    "midi": 75,
                    "time": 447.02530800001034,
                    "velocity": 0.6377952755905512,
                    "duration": 0.6373934999999733
                },
                {
                    "name": "D#6",
                    "midi": 87,
                    "time": 447.02530800001034,
                    "velocity": 0.7559055118110236,
                    "duration": 0.6373934999999733
                },
                {
                    "name": "D5",
                    "midi": 74,
                    "time": 447.6627015000103,
                    "velocity": 0.5590551181102362,
                    "duration": 0.10623225000000502
                },
                {
                    "name": "D6",
                    "midi": 86,
                    "time": 447.6627015000103,
                    "velocity": 0.6614173228346457,
                    "duration": 0.10623225000000502
                },
                {
                    "name": "C5",
                    "midi": 72,
                    "time": 447.8751660000103,
                    "velocity": 0.6141732283464567,
                    "duration": 0.6373934999999733
                },
                {
                    "name": "C6",
                    "midi": 84,
                    "time": 447.8751660000103,
                    "velocity": 0.7401574803149606,
                    "duration": 0.6373934999999733
                },
                {
                    "name": "A#4",
                    "midi": 70,
                    "time": 448.5125595000103,
                    "velocity": 0.5511811023622047,
                    "duration": 0.10623225000000502
                },
                {
                    "name": "A#5",
                    "midi": 82,
                    "time": 448.5125595000103,
                    "velocity": 0.6535433070866141,
                    "duration": 0.10623225000000502
                },
                {
                    "name": "A4",
                    "midi": 69,
                    "time": 448.7250240000103,
                    "velocity": 0.6141732283464567,
                    "duration": 0.6373934999999733
                },
                {
                    "name": "A5",
                    "midi": 81,
                    "time": 448.7250240000103,
                    "velocity": 0.7244094488188977,
                    "duration": 0.6373934999999733
                },
                {
                    "name": "G4",
                    "midi": 67,
                    "time": 449.3624175000103,
                    "velocity": 0.4881889763779528,
                    "duration": 0.10623225000000502
                },
                {
                    "name": "G5",
                    "midi": 79,
                    "time": 449.3624175000103,
                    "velocity": 0.5826771653543307,
                    "duration": 0.10623225000000502
                },
                {
                    "name": "F4",
                    "midi": 65,
                    "time": 449.5748820000103,
                    "velocity": 0.5511811023622047,
                    "duration": 0.10623225000000502
                },
                {
                    "name": "F5",
                    "midi": 77,
                    "time": 449.5748820000103,
                    "velocity": 0.6535433070866141,
                    "duration": 0.10623225000000502
                },
                {
                    "name": "D#4",
                    "midi": 63,
                    "time": 449.7873465000103,
                    "velocity": 0.5196850393700787,
                    "duration": 0.10623225000000502
                },
                {
                    "name": "D#5",
                    "midi": 75,
                    "time": 449.7873465000103,
                    "velocity": 0.6141732283464567,
                    "duration": 0.10623225000000502
                },
                {
                    "name": "D4",
                    "midi": 62,
                    "time": 449.9998110000103,
                    "velocity": 0.5511811023622047,
                    "duration": 0.10623225000000502
                },
                {
                    "name": "D5",
                    "midi": 74,
                    "time": 449.9998110000103,
                    "velocity": 0.6535433070866141,
                    "duration": 0.10623225000000502
                },
                {
                    "name": "C4",
                    "midi": 60,
                    "time": 450.2122755000103,
                    "velocity": 0.5039370078740157,
                    "duration": 0.10623225000000502
                },
                {
                    "name": "C5",
                    "midi": 72,
                    "time": 450.2122755000103,
                    "velocity": 0.6062992125984252,
                    "duration": 0.10623225000000502
                },
                {
                    "name": "A#3",
                    "midi": 58,
                    "time": 450.42474000001033,
                    "velocity": 0.6141732283464567,
                    "duration": 0.10623225000000502
                },
                {
                    "name": "A#4",
                    "midi": 70,
                    "time": 450.42474000001033,
                    "velocity": 0.7086614173228346,
                    "duration": 0.10623225000000502
                },
                {
                    "name": "A4",
                    "midi": 69,
                    "time": 450.84966900001035,
                    "velocity": 0.41732283464566927,
                    "duration": 0.10623225000000502
                },
                {
                    "name": "G#4",
                    "midi": 68,
                    "time": 450.95590125001036,
                    "velocity": 0.3543307086614173,
                    "duration": 0.10623225000000502
                },
                {
                    "name": "A4",
                    "midi": 69,
                    "time": 451.06213350001036,
                    "velocity": 0.41732283464566927,
                    "duration": 0.10623225000000502
                },
                {
                    "name": "F4",
                    "midi": 65,
                    "time": 451.16836575001037,
                    "velocity": 0.33858267716535434,
                    "duration": 0.10623225000000502
                },
                {
                    "name": "A#4",
                    "midi": 70,
                    "time": 451.27459800001037,
                    "velocity": 0.44881889763779526,
                    "duration": 0.10623225000000502
                },
                {
                    "name": "A5",
                    "midi": 81,
                    "time": 451.6995270000104,
                    "velocity": 0.41732283464566927,
                    "duration": 0.10623225000000502
                },
                {
                    "name": "G#5",
                    "midi": 80,
                    "time": 451.8057592500104,
                    "velocity": 0.3543307086614173,
                    "duration": 0.10623225000000502
                },
                {
                    "name": "A5",
                    "midi": 81,
                    "time": 451.9119915000104,
                    "velocity": 0.41732283464566927,
                    "duration": 0.10623225000000502
                },
                {
                    "name": "F5",
                    "midi": 77,
                    "time": 452.0182237500104,
                    "velocity": 0.33858267716535434,
                    "duration": 0.10623225000000502
                },
                {
                    "name": "A#5",
                    "midi": 82,
                    "time": 452.1244560000104,
                    "velocity": 0.44881889763779526,
                    "duration": 0.10623225000000502
                },
                {
                    "name": "A5",
                    "midi": 81,
                    "time": 452.9743140000104,
                    "velocity": 0.7165354330708661,
                    "duration": 0.4249290000000201
                },
                {
                    "name": "F5",
                    "midi": 77,
                    "time": 452.9743140000104,
                    "velocity": 0.6062992125984252,
                    "duration": 0.4249290000000201
                },
                {
                    "name": "D#5",
                    "midi": 75,
                    "time": 452.9743140000104,
                    "velocity": 0.6062992125984252,
                    "duration": 0.4249290000000201
                },
                {
                    "name": "C5",
                    "midi": 72,
                    "time": 452.9743140000104,
                    "velocity": 0.6062992125984252,
                    "duration": 0.4249290000000201
                },
                {
                    "name": "A4",
                    "midi": 69,
                    "time": 452.9743140000104,
                    "velocity": 0.6062992125984252,
                    "duration": 0.4249290000000201
                },
                {
                    "name": "A#5",
                    "midi": 82,
                    "time": 453.82417200001044,
                    "velocity": 0.7637795275590551,
                    "duration": 0.4249290000000201
                },
                {
                    "name": "F5",
                    "midi": 77,
                    "time": 453.82417200001044,
                    "velocity": 0.6456692913385826,
                    "duration": 0.4249290000000201
                },
                {
                    "name": "D5",
                    "midi": 74,
                    "time": 453.82417200001044,
                    "velocity": 0.6456692913385826,
                    "duration": 0.4249290000000201
                },
                {
                    "name": "A#4",
                    "midi": 70,
                    "time": 453.82417200001044,
                    "velocity": 0.6456692913385826,
                    "duration": 0.4249290000000201
                }
            ],
            "controlChanges": {},
            "id": 1,
            "name": "Piano right",
            "instrumentNumber": 0,
            "instrument": "acoustic grand piano",
            "instrumentFamily": "piano",
            "channelNumber": 0,
            "isPercussion": false
        },
        {
            "startTime": 1.699716,
            "duration": 454.2491010000051,
            "length": 2290,
            "notes": [
                {
                    "name": "A#1",
                    "midi": 34,
                    "time": 1.699716,
                    "velocity": 0.23622047244094488,
                    "duration": 0.0796741875
                },
                {
                    "name": "A#2",
                    "midi": 46,
                    "time": 1.699716,
                    "velocity": 0.28346456692913385,
                    "duration": 0.0796741875
                },
                {
                    "name": "A#1",
                    "midi": 34,
                    "time": 2.124645,
                    "velocity": 0.2125984251968504,
                    "duration": 0.07967418750000022
                },
                {
                    "name": "A#2",
                    "midi": 46,
                    "time": 2.124645,
                    "velocity": 0.25196850393700787,
                    "duration": 0.07967418750000022
                },
                {
                    "name": "A#1",
                    "midi": 34,
                    "time": 3.399432,
                    "velocity": 0.23622047244094488,
                    "duration": 0.07967418750000022
                },
                {
                    "name": "A#2",
                    "midi": 46,
                    "time": 3.399432,
                    "velocity": 0.28346456692913385,
                    "duration": 0.07967418750000022
                },
                {
                    "name": "A#1",
                    "midi": 34,
                    "time": 3.824361,
                    "velocity": 0.2125984251968504,
                    "duration": 0.07967418749999977
                },
                {
                    "name": "A#2",
                    "midi": 46,
                    "time": 3.824361,
                    "velocity": 0.25196850393700787,
                    "duration": 0.07967418749999977
                },
                {
                    "name": "A#2",
                    "midi": 46,
                    "time": 6.798864,
                    "velocity": 0.3464566929133858,
                    "duration": 0.1062322499999997
                },
                {
                    "name": "D3",
                    "midi": 50,
                    "time": 6.90509625,
                    "velocity": 0.2440944881889764,
                    "duration": 0.1062322499999997
                },
                {
                    "name": "F3",
                    "midi": 53,
                    "time": 7.011328499999999,
                    "velocity": 0.2440944881889764,
                    "duration": 0.1062322499999997
                },
                {
                    "name": "A#3",
                    "midi": 58,
                    "time": 7.117560749999999,
                    "velocity": 0.2440944881889764,
                    "duration": 0.1062322499999997
                },
                {
                    "name": "A#2",
                    "midi": 46,
                    "time": 7.223792999999999,
                    "velocity": 0.3464566929133858,
                    "duration": 0.1062322499999997
                },
                {
                    "name": "D3",
                    "midi": 50,
                    "time": 7.3300252499999985,
                    "velocity": 0.25196850393700787,
                    "duration": 0.1062322499999997
                },
                {
                    "name": "F3",
                    "midi": 53,
                    "time": 7.436257499999998,
                    "velocity": 0.25196850393700787,
                    "duration": 0.1062322499999997
                },
                {
                    "name": "A#3",
                    "midi": 58,
                    "time": 7.542489749999998,
                    "velocity": 0.25196850393700787,
                    "duration": 0.1062322499999997
                },
                {
                    "name": "A#2",
                    "midi": 46,
                    "time": 7.648721999999998,
                    "velocity": 0.3464566929133858,
                    "duration": 0.1062322499999997
                },
                {
                    "name": "D3",
                    "midi": 50,
                    "time": 7.754954249999997,
                    "velocity": 0.25984251968503935,
                    "duration": 0.1062322499999997
                },
                {
                    "name": "F3",
                    "midi": 53,
                    "time": 7.861186499999997,
                    "velocity": 0.25984251968503935,
                    "duration": 0.1062322499999997
                },
                {
                    "name": "A#3",
                    "midi": 58,
                    "time": 7.967418749999997,
                    "velocity": 0.25984251968503935,
                    "duration": 0.1062322499999997
                },
                {
                    "name": "A#2",
                    "midi": 46,
                    "time": 8.073650999999996,
                    "velocity": 0.3464566929133858,
                    "duration": 0.1062322499999997
                },
                {
                    "name": "D3",
                    "midi": 50,
                    "time": 8.179883249999996,
                    "velocity": 0.25984251968503935,
                    "duration": 0.1062322499999997
                },
                {
                    "name": "F3",
                    "midi": 53,
                    "time": 8.286115499999996,
                    "velocity": 0.25984251968503935,
                    "duration": 0.1062322499999997
                },
                {
                    "name": "A#3",
                    "midi": 58,
                    "time": 8.392347749999995,
                    "velocity": 0.25984251968503935,
                    "duration": 0.1062322499999997
                },
                {
                    "name": "A#2",
                    "midi": 46,
                    "time": 8.498579999999995,
                    "velocity": 0.3464566929133858,
                    "duration": 0.1062322499999997
                },
                {
                    "name": "D#3",
                    "midi": 51,
                    "time": 8.604812249999995,
                    "velocity": 0.2440944881889764,
                    "duration": 0.1062322499999997
                },
                {
                    "name": "G3",
                    "midi": 55,
                    "time": 8.711044499999995,
                    "velocity": 0.2440944881889764,
                    "duration": 0.1062322499999997
                },
                {
                    "name": "A#3",
                    "midi": 58,
                    "time": 8.817276749999994,
                    "velocity": 0.2440944881889764,
                    "duration": 0.1062322499999997
                },
                {
                    "name": "A#2",
                    "midi": 46,
                    "time": 8.923508999999994,
                    "velocity": 0.33070866141732286,
                    "duration": 0.1062322499999997
                },
                {
                    "name": "D#3",
                    "midi": 51,
                    "time": 9.029741249999994,
                    "velocity": 0.2204724409448819,
                    "duration": 0.1062322499999997
                },
                {
                    "name": "G3",
                    "midi": 55,
                    "time": 9.135973499999993,
                    "velocity": 0.2204724409448819,
                    "duration": 0.1062322499999997
                },
                {
                    "name": "A#3",
                    "midi": 58,
                    "time": 9.242205749999993,
                    "velocity": 0.2204724409448819,
                    "duration": 0.1062322499999997
                },
                {
                    "name": "A#2",
                    "midi": 46,
                    "time": 9.348437999999993,
                    "velocity": 0.3228346456692913,
                    "duration": 0.1062322499999997
                },
                {
                    "name": "D#3",
                    "midi": 51,
                    "time": 9.454670249999992,
                    "velocity": 0.2283464566929134,
                    "duration": 0.1062322499999997
                },
                {
                    "name": "F3",
                    "midi": 53,
                    "time": 9.560902499999992,
                    "velocity": 0.2283464566929134,
                    "duration": 0.1062322499999997
                },
                {
                    "name": "A3",
                    "midi": 57,
                    "time": 9.667134749999992,
                    "velocity": 0.2283464566929134,
                    "duration": 0.1062322499999997
                },
                {
                    "name": "A#2",
                    "midi": 46,
                    "time": 9.773366999999991,
                    "velocity": 0.3228346456692913,
                    "duration": 0.1062322499999997
                },
                {
                    "name": "D#3",
                    "midi": 51,
                    "time": 9.879599249999991,
                    "velocity": 0.2440944881889764,
                    "duration": 0.1062322499999997
                },
                {
                    "name": "F3",
                    "midi": 53,
                    "time": 9.98583149999999,
                    "velocity": 0.2440944881889764,
                    "duration": 0.1062322499999997
                },
                {
                    "name": "A3",
                    "midi": 57,
                    "time": 10.09206374999999,
                    "velocity": 0.2440944881889764,
                    "duration": 0.1062322499999997
                },
                {
                    "name": "A#2",
                    "midi": 46,
                    "time": 10.19829599999999,
                    "velocity": 0.3464566929133858,
                    "duration": 0.1062322499999997
                },
                {
                    "name": "D3",
                    "midi": 50,
                    "time": 10.30452824999999,
                    "velocity": 0.2440944881889764,
                    "duration": 0.1062322499999997
                },
                {
                    "name": "F3",
                    "midi": 53,
                    "time": 10.41076049999999,
                    "velocity": 0.2440944881889764,
                    "duration": 0.1062322499999997
                },
                {
                    "name": "A#3",
                    "midi": 58,
                    "time": 10.51699274999999,
                    "velocity": 0.2440944881889764,
                    "duration": 0.1062322499999997
                },
                {
                    "name": "A#2",
                    "midi": 46,
                    "time": 10.623224999999989,
                    "velocity": 0.3464566929133858,
                    "duration": 0.1062322499999997
                },
                {
                    "name": "D3",
                    "midi": 50,
                    "time": 10.729457249999989,
                    "velocity": 0.25196850393700787,
                    "duration": 0.1062322499999997
                },
                {
                    "name": "F3",
                    "midi": 53,
                    "time": 10.835689499999988,
                    "velocity": 0.25196850393700787,
                    "duration": 0.1062322499999997
                },
                {
                    "name": "A#3",
                    "midi": 58,
                    "time": 10.941921749999988,
                    "velocity": 0.25196850393700787,
                    "duration": 0.1062322499999997
                },
                {
                    "name": "A#2",
                    "midi": 46,
                    "time": 11.048153999999988,
                    "velocity": 0.3464566929133858,
                    "duration": 0.1062322499999997
                },
                {
                    "name": "D3",
                    "midi": 50,
                    "time": 11.154386249999988,
                    "velocity": 0.25196850393700787,
                    "duration": 0.1062322499999997
                },
                {
                    "name": "F3",
                    "midi": 53,
                    "time": 11.260618499999987,
                    "velocity": 0.25196850393700787,
                    "duration": 0.1062322499999997
                },
                {
                    "name": "G#3",
                    "midi": 56,
                    "time": 11.366850749999987,
                    "velocity": 0.25196850393700787,
                    "duration": 0.1062322499999997
                },
                {
                    "name": "A#2",
                    "midi": 46,
                    "time": 11.473082999999987,
                    "velocity": 0.3464566929133858,
                    "duration": 0.1062322499999997
                },
                {
                    "name": "D3",
                    "midi": 50,
                    "time": 11.579315249999986,
                    "velocity": 0.25196850393700787,
                    "duration": 0.1062322499999997
                },
                {
                    "name": "F3",
                    "midi": 53,
                    "time": 11.685547499999986,
                    "velocity": 0.25196850393700787,
                    "duration": 0.1062322499999997
                },
                {
                    "name": "G#3",
                    "midi": 56,
                    "time": 11.791779749999986,
                    "velocity": 0.25196850393700787,
                    "duration": 0.1062322499999997
                },
                {
                    "name": "A#2",
                    "midi": 46,
                    "time": 11.898011999999985,
                    "velocity": 0.3464566929133858,
                    "duration": 0.1062322499999997
                },
                {
                    "name": "D#3",
                    "midi": 51,
                    "time": 12.004244249999985,
                    "velocity": 0.25196850393700787,
                    "duration": 0.1062322499999997
                },
                {
                    "name": "G3",
                    "midi": 55,
                    "time": 12.110476499999985,
                    "velocity": 0.25196850393700787,
                    "duration": 0.1062322499999997
                },
                {
                    "name": "D#3",
                    "midi": 51,
                    "time": 12.216708749999984,
                    "velocity": 0.25196850393700787,
                    "duration": 0.1062322499999997
                },
                {
                    "name": "A#2",
                    "midi": 46,
                    "time": 12.322940999999984,
                    "velocity": 0.3464566929133858,
                    "duration": 0.1062322499999997
                },
                {
                    "name": "D#3",
                    "midi": 51,
                    "time": 12.429173249999984,
                    "velocity": 0.28346456692913385,
                    "duration": 0.1062322499999997
                },
                {
                    "name": "G3",
                    "midi": 55,
                    "time": 12.535405499999984,
                    "velocity": 0.28346456692913385,
                    "duration": 0.1062322499999997
                },
                {
                    "name": "D#3",
                    "midi": 51,
                    "time": 12.641637749999983,
                    "velocity": 0.28346456692913385,
                    "duration": 0.1062322499999997
                },
                {
                    "name": "A#2",
                    "midi": 46,
                    "time": 12.747869999999983,
                    "velocity": 0.3779527559055118,
                    "duration": 0.1062322499999997
                },
                {
                    "name": "C3",
                    "midi": 48,
                    "time": 12.854102249999983,
                    "velocity": 0.29133858267716534,
                    "duration": 0.1062322499999997
                },
                {
                    "name": "D#3",
                    "midi": 51,
                    "time": 12.960334499999982,
                    "velocity": 0.2992125984251969,
                    "duration": 0.1062322499999997
                },
                {
                    "name": "F3",
                    "midi": 53,
                    "time": 13.066566749999982,
                    "velocity": 0.31496062992125984,
                    "duration": 0.1062322499999997
                },
                {
                    "name": "A#2",
                    "midi": 46,
                    "time": 13.172798999999982,
                    "velocity": 0.3937007874015748,
                    "duration": 0.1062322499999997
                },
                {
                    "name": "C3",
                    "midi": 48,
                    "time": 13.279031249999981,
                    "velocity": 0.31496062992125984,
                    "duration": 0.1062322499999997
                },
                {
                    "name": "D#3",
                    "midi": 51,
                    "time": 13.385263499999981,
                    "velocity": 0.30708661417322836,
                    "duration": 0.1062322499999997
                },
                {
                    "name": "F3",
                    "midi": 53,
                    "time": 13.49149574999998,
                    "velocity": 0.33858267716535434,
                    "duration": 0.1062322499999997
                },
                {
                    "name": "A#2",
                    "midi": 46,
                    "time": 13.59772799999998,
                    "velocity": 0.47244094488188976,
                    "duration": 0.1062322499999997
                },
                {
                    "name": "A#2",
                    "midi": 46,
                    "time": 14.022656999999981,
                    "velocity": 0.41732283464566927,
                    "duration": 0.1062322499999997
                },
                {
                    "name": "A2",
                    "midi": 45,
                    "time": 14.12888924999998,
                    "velocity": 0.36220472440944884,
                    "duration": 0.1062322499999997
                },
                {
                    "name": "A#2",
                    "midi": 46,
                    "time": 14.23512149999998,
                    "velocity": 0.41732283464566927,
                    "duration": 0.1062322499999997
                },
                {
                    "name": "G2",
                    "midi": 43,
                    "time": 14.34135374999998,
                    "velocity": 0.36220472440944884,
                    "duration": 0.1062322499999997
                },
                {
                    "name": "F2",
                    "midi": 41,
                    "time": 14.44758599999998,
                    "velocity": 0.47244094488188976,
                    "duration": 0.1062322499999997
                },
                {
                    "name": "D#3",
                    "midi": 51,
                    "time": 14.872514999999979,
                    "velocity": 0.41732283464566927,
                    "duration": 0.1062322499999997
                },
                {
                    "name": "D3",
                    "midi": 50,
                    "time": 14.978747249999978,
                    "velocity": 0.36220472440944884,
                    "duration": 0.1062322499999997
                },
                {
                    "name": "D#3",
                    "midi": 51,
                    "time": 15.084979499999978,
                    "velocity": 0.41732283464566927,
                    "duration": 0.1062322499999997
                },
                {
                    "name": "C3",
                    "midi": 48,
                    "time": 15.191211749999978,
                    "velocity": 0.36220472440944884,
                    "duration": 0.1062322499999997
                },
                {
                    "name": "A#2",
                    "midi": 46,
                    "time": 15.297443999999977,
                    "velocity": 0.47244094488188976,
                    "duration": 0.1062322499999997
                },
                {
                    "name": "A#3",
                    "midi": 58,
                    "time": 15.722372999999976,
                    "velocity": 0.41732283464566927,
                    "duration": 0.1062322499999997
                },
                {
                    "name": "A3",
                    "midi": 57,
                    "time": 15.828605249999976,
                    "velocity": 0.36220472440944884,
                    "duration": 0.1062322499999997
                },
                {
                    "name": "A#3",
                    "midi": 58,
                    "time": 15.934837499999976,
                    "velocity": 0.41732283464566927,
                    "duration": 0.10623225000000147
                },
                {
                    "name": "G3",
                    "midi": 55,
                    "time": 16.041069749999977,
                    "velocity": 0.36220472440944884,
                    "duration": 0.10623225000000147
                },
                {
                    "name": "F3",
                    "midi": 53,
                    "time": 16.14730199999998,
                    "velocity": 0.47244094488188976,
                    "duration": 0.10623225000000147
                },
                {
                    "name": "D#4",
                    "midi": 63,
                    "time": 16.57223099999998,
                    "velocity": 0.47244094488188976,
                    "duration": 0.10623225000000147
                },
                {
                    "name": "D4",
                    "midi": 62,
                    "time": 16.678463249999982,
                    "velocity": 0.4094488188976378,
                    "duration": 0.10623225000000147
                },
                {
                    "name": "D#4",
                    "midi": 63,
                    "time": 16.784695499999984,
                    "velocity": 0.47244094488188976,
                    "duration": 0.10623225000000147
                },
                {
                    "name": "C4",
                    "midi": 60,
                    "time": 16.890927749999985,
                    "velocity": 0.4094488188976378,
                    "duration": 0.10623225000000147
                },
                {
                    "name": "A#3",
                    "midi": 58,
                    "time": 16.997159999999987,
                    "velocity": 0.5433070866141733,
                    "duration": 0.10623225000000147
                },
                {
                    "name": "C4",
                    "midi": 60,
                    "time": 17.20962449999999,
                    "velocity": 0.41732283464566927,
                    "duration": 0.10623225000000147
                },
                {
                    "name": "D4",
                    "midi": 62,
                    "time": 17.31585674999999,
                    "velocity": 0.3779527559055118,
                    "duration": 0.10623225000000147
                },
                {
                    "name": "D#4",
                    "midi": 63,
                    "time": 17.422088999999993,
                    "velocity": 0.4251968503937008,
                    "duration": 0.10623225000000147
                },
                {
                    "name": "F4",
                    "midi": 65,
                    "time": 17.528321249999994,
                    "velocity": 0.3779527559055118,
                    "duration": 0.10623225000000147
                },
                {
                    "name": "G4",
                    "midi": 67,
                    "time": 17.634553499999996,
                    "velocity": 0.3779527559055118,
                    "duration": 0.10623225000000147
                },
                {
                    "name": "A4",
                    "midi": 69,
                    "time": 17.740785749999997,
                    "velocity": 0.3858267716535433,
                    "duration": 0.10623225000000147
                },
                {
                    "name": "A#4",
                    "midi": 70,
                    "time": 17.847018,
                    "velocity": 0.4409448818897638,
                    "duration": 0.10623225000000147
                },
                {
                    "name": "A4",
                    "midi": 69,
                    "time": 17.95325025,
                    "velocity": 0.3937007874015748,
                    "duration": 0.10623225000000147
                },
                {
                    "name": "A#4",
                    "midi": 70,
                    "time": 18.0594825,
                    "velocity": 0.3937007874015748,
                    "duration": 0.10623225000000147
                },
                {
                    "name": "C5",
                    "midi": 72,
                    "time": 18.165714750000003,
                    "velocity": 0.4015748031496063,
                    "duration": 0.10623225000000147
                },
                {
                    "name": "D5",
                    "midi": 74,
                    "time": 18.271947000000004,
                    "velocity": 0.4566929133858268,
                    "duration": 0.10623225000000147
                },
                {
                    "name": "C5",
                    "midi": 72,
                    "time": 18.378179250000006,
                    "velocity": 0.4094488188976378,
                    "duration": 0.10623225000000147
                },
                {
                    "name": "D5",
                    "midi": 74,
                    "time": 18.484411500000007,
                    "velocity": 0.4094488188976378,
                    "duration": 0.10623225000000147
                },
                {
                    "name": "E5",
                    "midi": 76,
                    "time": 18.59064375000001,
                    "velocity": 0.41732283464566927,
                    "duration": 0.10623225000000147
                },
                {
                    "name": "F5",
                    "midi": 77,
                    "time": 18.69687600000001,
                    "velocity": 0.5748031496062992,
                    "duration": 0.10623225000000147
                },
                {
                    "name": "F3",
                    "midi": 53,
                    "time": 19.121805000000013,
                    "velocity": 0.47244094488188976,
                    "duration": 0.10623225000000147
                },
                {
                    "name": "A#2",
                    "midi": 46,
                    "time": 19.971663000000014,
                    "velocity": 0.5118110236220472,
                    "duration": 0.10623225000000147
                },
                {
                    "name": "A2",
                    "midi": 45,
                    "time": 20.077895250000015,
                    "velocity": 0.44881889763779526,
                    "duration": 0.10623225000000147
                },
                {
                    "name": "A#2",
                    "midi": 46,
                    "time": 20.184127500000017,
                    "velocity": 0.4881889763779528,
                    "duration": 0.10623225000000147
                },
                {
                    "name": "F2",
                    "midi": 41,
                    "time": 20.290359750000018,
                    "velocity": 0.4330708661417323,
                    "duration": 0.10623225000000147
                },
                {
                    "name": "D3",
                    "midi": 50,
                    "time": 20.39659200000002,
                    "velocity": 0.5118110236220472,
                    "duration": 0.10623225000000147
                },
                {
                    "name": "C#3",
                    "midi": 49,
                    "time": 20.50282425000002,
                    "velocity": 0.4566929133858268,
                    "duration": 0.10623225000000147
                },
                {
                    "name": "D3",
                    "midi": 50,
                    "time": 20.609056500000023,
                    "velocity": 0.49606299212598426,
                    "duration": 0.10623225000000147
                },
                {
                    "name": "A#2",
                    "midi": 46,
                    "time": 20.715288750000024,
                    "velocity": 0.44881889763779526,
                    "duration": 0.10623225000000147
                },
                {
                    "name": "F3",
                    "midi": 53,
                    "time": 20.821521000000025,
                    "velocity": 0.5118110236220472,
                    "duration": 0.10623225000000147
                },
                {
                    "name": "E3",
                    "midi": 52,
                    "time": 20.927753250000027,
                    "velocity": 0.4566929133858268,
                    "duration": 0.10623225000000147
                },
                {
                    "name": "F3",
                    "midi": 53,
                    "time": 21.03398550000003,
                    "velocity": 0.49606299212598426,
                    "duration": 0.10623225000000147
                },
                {
                    "name": "D3",
                    "midi": 50,
                    "time": 21.14021775000003,
                    "velocity": 0.44881889763779526,
                    "duration": 0.10623225000000147
                },
                {
                    "name": "A#3",
                    "midi": 58,
                    "time": 21.24645000000003,
                    "velocity": 0.5118110236220472,
                    "duration": 0.10623225000000147
                },
                {
                    "name": "A3",
                    "midi": 57,
                    "time": 21.352682250000033,
                    "velocity": 0.4566929133858268,
                    "duration": 0.10623225000000147
                },
                {
                    "name": "A#3",
                    "midi": 58,
                    "time": 21.458914500000034,
                    "velocity": 0.49606299212598426,
                    "duration": 0.10623225000000147
                },
                {
                    "name": "F3",
                    "midi": 53,
                    "time": 21.565146750000036,
                    "velocity": 0.44881889763779526,
                    "duration": 0.10623225000000147
                },
                {
                    "name": "D4",
                    "midi": 62,
                    "time": 21.671379000000037,
                    "velocity": 0.49606299212598426,
                    "duration": 0.10623225000000147
                },
                {
                    "name": "C#4",
                    "midi": 61,
                    "time": 21.77761125000004,
                    "velocity": 0.4566929133858268,
                    "duration": 0.10623225000000147
                },
                {
                    "name": "D4",
                    "midi": 62,
                    "time": 21.88384350000004,
                    "velocity": 0.4881889763779528,
                    "duration": 0.10623225000000147
                },
                {
                    "name": "A#3",
                    "midi": 58,
                    "time": 21.99007575000004,
                    "velocity": 0.44881889763779526,
                    "duration": 0.10623225000000147
                },
                {
                    "name": "F4",
                    "midi": 65,
                    "time": 22.096308000000043,
                    "velocity": 0.5669291338582677,
                    "duration": 0.7436257499999996
                },
                {
                    "name": "D#4",
                    "midi": 63,
                    "time": 22.839933750000043,
                    "velocity": 0.49606299212598426,
                    "duration": 0.10623225000000147
                },
                {
                    "name": "D4",
                    "midi": 62,
                    "time": 22.946166000000044,
                    "velocity": 0.5590551181102362,
                    "duration": 0.31869675000000086
                },
                {
                    "name": "C4",
                    "midi": 60,
                    "time": 23.264862750000045,
                    "velocity": 0.49606299212598426,
                    "duration": 0.10623225000000147
                },
                {
                    "name": "A#3",
                    "midi": 58,
                    "time": 23.371095000000047,
                    "velocity": 0.5669291338582677,
                    "duration": 0.31869675000000086
                },
                {
                    "name": "G#3",
                    "midi": 56,
                    "time": 23.689791750000047,
                    "velocity": 0.49606299212598426,
                    "duration": 0.10623225000000147
                },
                {
                    "name": "G3",
                    "midi": 55,
                    "time": 23.79602400000005,
                    "velocity": 0.5669291338582677,
                    "duration": 0.8498580000000011
                },
                {
                    "name": "G#3",
                    "midi": 56,
                    "time": 24.64588200000005,
                    "velocity": 0.3779527559055118,
                    "duration": 0.4249289999999988
                },
                {
                    "name": "F#3",
                    "midi": 54,
                    "time": 25.07081100000005,
                    "velocity": 0.33070866141732286,
                    "duration": 0.4249289999999988
                },
                {
                    "name": "G3",
                    "midi": 55,
                    "time": 25.495740000000048,
                    "velocity": 0.4015748031496063,
                    "duration": 0.4249289999999988
                },
                {
                    "name": "E3",
                    "midi": 52,
                    "time": 25.920669000000046,
                    "velocity": 0.3464566929133858,
                    "duration": 0.4249289999999988
                },
                {
                    "name": "F3",
                    "midi": 53,
                    "time": 26.345598000000045,
                    "velocity": 0.4094488188976378,
                    "duration": 0.4249289999999988
                },
                {
                    "name": "D3",
                    "midi": 50,
                    "time": 26.770527000000044,
                    "velocity": 0.2677165354330709,
                    "duration": 0.4249289999999988
                },
                {
                    "name": "C2",
                    "midi": 36,
                    "time": 27.195456000000043,
                    "velocity": 0.4015748031496063,
                    "duration": 0.2124644999999994
                },
                {
                    "name": "C3",
                    "midi": 48,
                    "time": 27.195456000000043,
                    "velocity": 0.4015748031496063,
                    "duration": 0.2124644999999994
                },
                {
                    "name": "C4",
                    "midi": 60,
                    "time": 27.407920500000042,
                    "velocity": 0.33070866141732286,
                    "duration": 0.1212818187499991
                },
                {
                    "name": "C4",
                    "midi": 60,
                    "time": 27.62038500000004,
                    "velocity": 0.33070866141732286,
                    "duration": 0.1212818187499991
                },
                {
                    "name": "C4",
                    "midi": 60,
                    "time": 27.83284950000004,
                    "velocity": 0.33070866141732286,
                    "duration": 0.1212818187499991
                },
                {
                    "name": "C4",
                    "midi": 60,
                    "time": 28.04531400000004,
                    "velocity": 0.4015748031496063,
                    "duration": 0.1212818187499991
                },
                {
                    "name": "C4",
                    "midi": 60,
                    "time": 28.25777850000004,
                    "velocity": 0.33858267716535434,
                    "duration": 0.1212818187499991
                },
                {
                    "name": "C4",
                    "midi": 60,
                    "time": 28.47024300000004,
                    "velocity": 0.33858267716535434,
                    "duration": 0.1212818187499991
                },
                {
                    "name": "C4",
                    "midi": 60,
                    "time": 28.68270750000004,
                    "velocity": 0.33858267716535434,
                    "duration": 0.1212818187499991
                },
                {
                    "name": "C4",
                    "midi": 60,
                    "time": 28.895172000000038,
                    "velocity": 0.4015748031496063,
                    "duration": 0.1212818187499991
                },
                {
                    "name": "C4",
                    "midi": 60,
                    "time": 29.107636500000037,
                    "velocity": 0.33070866141732286,
                    "duration": 0.1212818187499991
                },
                {
                    "name": "C4",
                    "midi": 60,
                    "time": 29.320101000000037,
                    "velocity": 0.33070866141732286,
                    "duration": 0.1212818187499991
                },
                {
                    "name": "C4",
                    "midi": 60,
                    "time": 29.532565500000036,
                    "velocity": 0.33070866141732286,
                    "duration": 0.1212818187499991
                },
                {
                    "name": "C4",
                    "midi": 60,
                    "time": 29.745030000000035,
                    "velocity": 0.4015748031496063,
                    "duration": 0.1212818187499991
                },
                {
                    "name": "C4",
                    "midi": 60,
                    "time": 29.957494500000035,
                    "velocity": 0.33858267716535434,
                    "duration": 0.1212818187499991
                },
                {
                    "name": "C4",
                    "midi": 60,
                    "time": 30.169959000000034,
                    "velocity": 0.33858267716535434,
                    "duration": 0.1212818187499991
                },
                {
                    "name": "C4",
                    "midi": 60,
                    "time": 30.382423500000034,
                    "velocity": 0.33858267716535434,
                    "duration": 0.12747870000000106
                },
                {
                    "name": "C2",
                    "midi": 36,
                    "time": 30.594888000000033,
                    "velocity": 0.4015748031496063,
                    "duration": 0.2124644999999994
                },
                {
                    "name": "C3",
                    "midi": 48,
                    "time": 30.594888000000033,
                    "velocity": 0.4015748031496063,
                    "duration": 0.2124644999999994
                },
                {
                    "name": "C4",
                    "midi": 60,
                    "time": 30.807352500000032,
                    "velocity": 0.33070866141732286,
                    "duration": 0.1212818187499991
                },
                {
                    "name": "C4",
                    "midi": 60,
                    "time": 31.01981700000003,
                    "velocity": 0.33070866141732286,
                    "duration": 0.1212818187499991
                },
                {
                    "name": "C4",
                    "midi": 60,
                    "time": 31.23228150000003,
                    "velocity": 0.33070866141732286,
                    "duration": 0.1212818187499991
                },
                {
                    "name": "C4",
                    "midi": 60,
                    "time": 31.44474600000003,
                    "velocity": 0.4015748031496063,
                    "duration": 0.1212818187499991
                },
                {
                    "name": "C4",
                    "midi": 60,
                    "time": 31.65721050000003,
                    "velocity": 0.33858267716535434,
                    "duration": 0.1212818187499991
                },
                {
                    "name": "C4",
                    "midi": 60,
                    "time": 31.86967500000003,
                    "velocity": 0.33858267716535434,
                    "duration": 0.1212818187499991
                },
                {
                    "name": "C4",
                    "midi": 60,
                    "time": 32.082139500000025,
                    "velocity": 0.33858267716535434,
                    "duration": 0.1212818187499991
                },
                {
                    "name": "C4",
                    "midi": 60,
                    "time": 32.29460400000002,
                    "velocity": 0.4015748031496063,
                    "duration": 0.1212818187499991
                },
                {
                    "name": "C4",
                    "midi": 60,
                    "time": 32.50706850000002,
                    "velocity": 0.33070866141732286,
                    "duration": 0.1212818187499991
                },
                {
                    "name": "C4",
                    "midi": 60,
                    "time": 32.71953300000001,
                    "velocity": 0.33070866141732286,
                    "duration": 0.1212818187499991
                },
                {
                    "name": "C4",
                    "midi": 60,
                    "time": 32.93199750000001,
                    "velocity": 0.33070866141732286,
                    "duration": 0.1212818187499991
                },
                {
                    "name": "C4",
                    "midi": 60,
                    "time": 33.144462000000004,
                    "velocity": 0.4015748031496063,
                    "duration": 0.1212818187499991
                },
                {
                    "name": "C4",
                    "midi": 60,
                    "time": 33.3569265,
                    "velocity": 0.33858267716535434,
                    "duration": 0.1212818187499991
                },
                {
                    "name": "C4",
                    "midi": 60,
                    "time": 33.569390999999996,
                    "velocity": 0.33858267716535434,
                    "duration": 0.1212818187499991
                },
                {
                    "name": "C4",
                    "midi": 60,
                    "time": 33.78185549999999,
                    "velocity": 0.33858267716535434,
                    "duration": 0.1274786999999975
                },
                {
                    "name": "C3",
                    "midi": 48,
                    "time": 33.99431999999999,
                    "velocity": 0.4015748031496063,
                    "duration": 0.2018412749999996
                },
                {
                    "name": "C4",
                    "midi": 60,
                    "time": 34.20678449999999,
                    "velocity": 0.33858267716535434,
                    "duration": 0.1212818187499991
                },
                {
                    "name": "C4",
                    "midi": 60,
                    "time": 34.419248999999986,
                    "velocity": 0.33858267716535434,
                    "duration": 0.1212818187499991
                },
                {
                    "name": "C4",
                    "midi": 60,
                    "time": 34.63171349999998,
                    "velocity": 0.33858267716535434,
                    "duration": 0.1274786999999975
                },
                {
                    "name": "C3",
                    "midi": 48,
                    "time": 34.84417799999998,
                    "velocity": 0.4015748031496063,
                    "duration": 0.2018412749999996
                },
                {
                    "name": "C4",
                    "midi": 60,
                    "time": 35.05664249999998,
                    "velocity": 0.33858267716535434,
                    "duration": 0.1212818187499991
                },
                {
                    "name": "C4",
                    "midi": 60,
                    "time": 35.26910699999998,
                    "velocity": 0.33858267716535434,
                    "duration": 0.1212818187499991
                },
                {
                    "name": "C4",
                    "midi": 60,
                    "time": 35.48157149999997,
                    "velocity": 0.33858267716535434,
                    "duration": 0.1274786999999975
                },
                {
                    "name": "C3",
                    "midi": 48,
                    "time": 35.69403599999997,
                    "velocity": 0.4015748031496063,
                    "duration": 0.4249289999999988
                },
                {
                    "name": "F3",
                    "midi": 53,
                    "time": 37.49998424999997,
                    "velocity": 0.2440944881889764,
                    "duration": 0.11685547500000126
                },
                {
                    "name": "G3",
                    "midi": 55,
                    "time": 37.60621649999997,
                    "velocity": 0.28346456692913385,
                    "duration": 0.11685547500000837
                },
                {
                    "name": "A3",
                    "midi": 57,
                    "time": 37.71244874999997,
                    "velocity": 0.2440944881889764,
                    "duration": 0.11685547500000837
                },
                {
                    "name": "A#3",
                    "midi": 58,
                    "time": 37.81868099999998,
                    "velocity": 0.28346456692913385,
                    "duration": 0.11685547500000837
                },
                {
                    "name": "C4",
                    "midi": 60,
                    "time": 37.92491324999998,
                    "velocity": 0.2440944881889764,
                    "duration": 0.11685547500000837
                },
                {
                    "name": "D4",
                    "midi": 62,
                    "time": 38.03114549999999,
                    "velocity": 0.28346456692913385,
                    "duration": 0.11685547500000837
                },
                {
                    "name": "E4",
                    "midi": 64,
                    "time": 38.13737774999999,
                    "velocity": 0.2283464566929134,
                    "duration": 0.11685547500000837
                },
                {
                    "name": "F4",
                    "midi": 65,
                    "time": 38.24361,
                    "velocity": 0.28346456692913385,
                    "duration": 0.11685547500000837
                },
                {
                    "name": "E4",
                    "midi": 64,
                    "time": 38.34984225,
                    "velocity": 0.2283464566929134,
                    "duration": 0.11685547500000837
                },
                {
                    "name": "F4",
                    "midi": 65,
                    "time": 38.45607450000001,
                    "velocity": 0.28346456692913385,
                    "duration": 0.11685547500000837
                },
                {
                    "name": "E4",
                    "midi": 64,
                    "time": 38.56230675000001,
                    "velocity": 0.2283464566929134,
                    "duration": 0.11685547500000837
                },
                {
                    "name": "F4",
                    "midi": 65,
                    "time": 38.66853900000002,
                    "velocity": 0.28346456692913385,
                    "duration": 0.11685547500000837
                },
                {
                    "name": "E4",
                    "midi": 64,
                    "time": 38.77477125000002,
                    "velocity": 0.2125984251968504,
                    "duration": 0.11685547500000837
                },
                {
                    "name": "F4",
                    "midi": 65,
                    "time": 38.88100350000003,
                    "velocity": 0.2677165354330709,
                    "duration": 0.11685547500000837
                },
                {
                    "name": "E4",
                    "midi": 64,
                    "time": 38.98723575000003,
                    "velocity": 0.2047244094488189,
                    "duration": 0.10623225000000502
                },
                {
                    "name": "F4",
                    "midi": 65,
                    "time": 39.09346800000004,
                    "velocity": 0.23622047244094488,
                    "duration": 0.11685547500000126
                },
                {
                    "name": "E4",
                    "midi": 64,
                    "time": 39.199700250000035,
                    "velocity": 0.1968503937007874,
                    "duration": 0.11685547500000837
                },
                {
                    "name": "F4",
                    "midi": 65,
                    "time": 39.30593250000004,
                    "velocity": 0.23622047244094488,
                    "duration": 0.11685547500000837
                },
                {
                    "name": "E4",
                    "midi": 64,
                    "time": 39.412164750000045,
                    "velocity": 0.1968503937007874,
                    "duration": 0.11685547500000837
                },
                {
                    "name": "F4",
                    "midi": 65,
                    "time": 39.51839700000005,
                    "velocity": 0.23622047244094488,
                    "duration": 0.11685547500000837
                },
                {
                    "name": "E4",
                    "midi": 64,
                    "time": 39.624629250000055,
                    "velocity": 0.1968503937007874,
                    "duration": 0.11685547500000837
                },
                {
                    "name": "F4",
                    "midi": 65,
                    "time": 39.73086150000006,
                    "velocity": 0.23622047244094488,
                    "duration": 0.11685547500000837
                },
                {
                    "name": "E4",
                    "midi": 64,
                    "time": 39.837093750000065,
                    "velocity": 0.1968503937007874,
                    "duration": 0.11685547500000837
                },
                {
                    "name": "F4",
                    "midi": 65,
                    "time": 39.94332600000007,
                    "velocity": 0.23622047244094488,
                    "duration": 0.11685547500000837
                },
                {
                    "name": "E4",
                    "midi": 64,
                    "time": 40.049558250000075,
                    "velocity": 0.1968503937007874,
                    "duration": 0.11685547500000837
                },
                {
                    "name": "F4",
                    "midi": 65,
                    "time": 40.15579050000008,
                    "velocity": 0.23622047244094488,
                    "duration": 0.11685547500000837
                },
                {
                    "name": "E4",
                    "midi": 64,
                    "time": 40.262022750000085,
                    "velocity": 0.1968503937007874,
                    "duration": 0.11685547500000837
                },
                {
                    "name": "F4",
                    "midi": 65,
                    "time": 40.36825500000009,
                    "velocity": 0.23622047244094488,
                    "duration": 0.11685547500000837
                },
                {
                    "name": "E4",
                    "midi": 64,
                    "time": 40.474487250000095,
                    "velocity": 0.1968503937007874,
                    "duration": 0.11685547500000837
                },
                {
                    "name": "F4",
                    "midi": 65,
                    "time": 40.5807195000001,
                    "velocity": 0.23622047244094488,
                    "duration": 0.11685547500000837
                },
                {
                    "name": "E4",
                    "midi": 64,
                    "time": 40.686951750000105,
                    "velocity": 0.1968503937007874,
                    "duration": 0.10623225000000502
                },
                {
                    "name": "F4",
                    "midi": 65,
                    "time": 40.79318400000011,
                    "velocity": 0.23622047244094488,
                    "duration": 0.10623224999999792
                },
                {
                    "name": "F3",
                    "midi": 53,
                    "time": 40.89941625000011,
                    "velocity": 0.2440944881889764,
                    "duration": 0.11685547500000126
                },
                {
                    "name": "G3",
                    "midi": 55,
                    "time": 41.005648500000106,
                    "velocity": 0.28346456692913385,
                    "duration": 0.11685547500000837
                },
                {
                    "name": "A3",
                    "midi": 57,
                    "time": 41.11188075000011,
                    "velocity": 0.2440944881889764,
                    "duration": 0.11685547500000837
                },
                {
                    "name": "A#3",
                    "midi": 58,
                    "time": 41.218113000000116,
                    "velocity": 0.28346456692913385,
                    "duration": 0.11685547500000837
                },
                {
                    "name": "C4",
                    "midi": 60,
                    "time": 41.32434525000012,
                    "velocity": 0.2440944881889764,
                    "duration": 0.11685547500000837
                },
                {
                    "name": "D4",
                    "midi": 62,
                    "time": 41.430577500000126,
                    "velocity": 0.28346456692913385,
                    "duration": 0.11685547500000837
                },
                {
                    "name": "E4",
                    "midi": 64,
                    "time": 41.53680975000013,
                    "velocity": 0.2283464566929134,
                    "duration": 0.11685547500000837
                },
                {
                    "name": "F4",
                    "midi": 65,
                    "time": 41.643042000000136,
                    "velocity": 0.28346456692913385,
                    "duration": 0.11685547500000837
                },
                {
                    "name": "E4",
                    "midi": 64,
                    "time": 41.74927425000014,
                    "velocity": 0.2283464566929134,
                    "duration": 0.11685547500000837
                },
                {
                    "name": "F4",
                    "midi": 65,
                    "time": 41.855506500000146,
                    "velocity": 0.28346456692913385,
                    "duration": 0.11685547500000837
                },
                {
                    "name": "E4",
                    "midi": 64,
                    "time": 41.96173875000015,
                    "velocity": 0.2283464566929134,
                    "duration": 0.11685547500000837
                },
                {
                    "name": "F4",
                    "midi": 65,
                    "time": 42.067971000000156,
                    "velocity": 0.28346456692913385,
                    "duration": 0.11685547500000837
                },
                {
                    "name": "E4",
                    "midi": 64,
                    "time": 42.17420325000016,
                    "velocity": 0.2125984251968504,
                    "duration": 0.11685547500000837
                },
                {
                    "name": "F4",
                    "midi": 65,
                    "time": 42.280435500000166,
                    "velocity": 0.2677165354330709,
                    "duration": 0.11685547500000837
                },
                {
                    "name": "E4",
                    "midi": 64,
                    "time": 42.38666775000017,
                    "velocity": 0.2047244094488189,
                    "duration": 0.10623225000000502
                },
                {
                    "name": "F4",
                    "midi": 65,
                    "time": 42.492900000000176,
                    "velocity": 0.23622047244094488,
                    "duration": 0.11685547500000126
                },
                {
                    "name": "E4",
                    "midi": 64,
                    "time": 42.599132250000174,
                    "velocity": 0.1968503937007874,
                    "duration": 0.11685547500000837
                },
                {
                    "name": "F4",
                    "midi": 65,
                    "time": 42.70536450000018,
                    "velocity": 0.23622047244094488,
                    "duration": 0.11685547500000837
                },
                {
                    "name": "E4",
                    "midi": 64,
                    "time": 42.811596750000184,
                    "velocity": 0.1968503937007874,
                    "duration": 0.11685547500000837
                },
                {
                    "name": "F4",
                    "midi": 65,
                    "time": 42.91782900000019,
                    "velocity": 0.23622047244094488,
                    "duration": 0.11685547500000837
                },
                {
                    "name": "E4",
                    "midi": 64,
                    "time": 43.024061250000194,
                    "velocity": 0.1968503937007874,
                    "duration": 0.11685547500000837
                },
                {
                    "name": "F4",
                    "midi": 65,
                    "time": 43.1302935000002,
                    "velocity": 0.23622047244094488,
                    "duration": 0.11685547500000837
                },
                {
                    "name": "E4",
                    "midi": 64,
                    "time": 43.236525750000204,
                    "velocity": 0.1968503937007874,
                    "duration": 0.11685547500000837
                },
                {
                    "name": "F4",
                    "midi": 65,
                    "time": 43.34275800000021,
                    "velocity": 0.23622047244094488,
                    "duration": 0.11685547500000837
                },
                {
                    "name": "E4",
                    "midi": 64,
                    "time": 43.448990250000215,
                    "velocity": 0.1968503937007874,
                    "duration": 0.11685547500000837
                },
                {
                    "name": "F4",
                    "midi": 65,
                    "time": 43.55522250000022,
                    "velocity": 0.23622047244094488,
                    "duration": 0.11685547500000837
                },
                {
                    "name": "E4",
                    "midi": 64,
                    "time": 43.661454750000225,
                    "velocity": 0.1968503937007874,
                    "duration": 0.11685547500000837
                },
                {
                    "name": "F4",
                    "midi": 65,
                    "time": 43.76768700000023,
                    "velocity": 0.23622047244094488,
                    "duration": 0.11685547500000837
                },
                {
                    "name": "D#4",
                    "midi": 63,
                    "time": 43.873919250000235,
                    "velocity": 0.1968503937007874,
                    "duration": 0.11685547500000837
                },
                {
                    "name": "F4",
                    "midi": 65,
                    "time": 43.98015150000024,
                    "velocity": 0.23622047244094488,
                    "duration": 0.11685547500000837
                },
                {
                    "name": "D#4",
                    "midi": 63,
                    "time": 44.086383750000245,
                    "velocity": 0.1968503937007874,
                    "duration": 0.10623225000000502
                },
                {
                    "name": "C#4",
                    "midi": 61,
                    "time": 44.19261600000025,
                    "velocity": 0.30708661417322836,
                    "duration": 0.15934837500000043
                },
                {
                    "name": "D4",
                    "midi": 62,
                    "time": 44.29884825000025,
                    "velocity": 0.2677165354330709,
                    "duration": 0.10623225000000502
                },
                {
                    "name": "C#4",
                    "midi": 61,
                    "time": 44.40508050000025,
                    "velocity": 0.30708661417322836,
                    "duration": 0.15934837500000043
                },
                {
                    "name": "D4",
                    "midi": 62,
                    "time": 44.51131275000025,
                    "velocity": 0.2755905511811024,
                    "duration": 0.10623225000000502
                },
                {
                    "name": "B3",
                    "midi": 59,
                    "time": 44.617545000000256,
                    "velocity": 0.3228346456692913,
                    "duration": 0.15934837500000043
                },
                {
                    "name": "C4",
                    "midi": 60,
                    "time": 44.72377725000025,
                    "velocity": 0.2755905511811024,
                    "duration": 0.10623225000000502
                },
                {
                    "name": "B3",
                    "midi": 59,
                    "time": 44.83000950000026,
                    "velocity": 0.33070866141732286,
                    "duration": 0.15934837500000043
                },
                {
                    "name": "C4",
                    "midi": 60,
                    "time": 44.936241750000256,
                    "velocity": 0.28346456692913385,
                    "duration": 0.10623225000000502
                },
                {
                    "name": "G#3",
                    "midi": 56,
                    "time": 45.04247400000026,
                    "velocity": 0.3464566929133858,
                    "duration": 0.15934837500000043
                },
                {
                    "name": "A3",
                    "midi": 57,
                    "time": 45.14870625000026,
                    "velocity": 0.29133858267716534,
                    "duration": 0.10623225000000502
                },
                {
                    "name": "G#3",
                    "midi": 56,
                    "time": 45.254938500000264,
                    "velocity": 0.3543307086614173,
                    "duration": 0.15934837500000043
                },
                {
                    "name": "A3",
                    "midi": 57,
                    "time": 45.36117075000026,
                    "velocity": 0.29133858267716534,
                    "duration": 0.10623225000000502
                },
                {
                    "name": "F3",
                    "midi": 53,
                    "time": 45.46740300000027,
                    "velocity": 0.3464566929133858,
                    "duration": 0.15934837500000043
                },
                {
                    "name": "F#3",
                    "midi": 54,
                    "time": 45.573635250000265,
                    "velocity": 0.2992125984251969,
                    "duration": 0.10623225000000502
                },
                {
                    "name": "F3",
                    "midi": 53,
                    "time": 45.67986750000027,
                    "velocity": 0.3464566929133858,
                    "duration": 0.15934837500000043
                },
                {
                    "name": "F#3",
                    "midi": 54,
                    "time": 45.78609975000027,
                    "velocity": 0.30708661417322836,
                    "duration": 0.10623225000000502
                },
                {
                    "name": "C#3",
                    "midi": 49,
                    "time": 45.89233200000027,
                    "velocity": 0.3543307086614173,
                    "duration": 0.15934837500000043
                },
                {
                    "name": "D3",
                    "midi": 50,
                    "time": 45.99856425000027,
                    "velocity": 0.30708661417322836,
                    "duration": 0.10623225000000502
                },
                {
                    "name": "C#3",
                    "midi": 49,
                    "time": 46.104796500000276,
                    "velocity": 0.36220472440944884,
                    "duration": 0.15934837500000043
                },
                {
                    "name": "D3",
                    "midi": 50,
                    "time": 46.211028750000274,
                    "velocity": 0.31496062992125984,
                    "duration": 0.10623225000000502
                },
                {
                    "name": "B2",
                    "midi": 47,
                    "time": 46.31726100000028,
                    "velocity": 0.3779527559055118,
                    "duration": 0.15934837500000043
                },
                {
                    "name": "C3",
                    "midi": 48,
                    "time": 46.42349325000028,
                    "velocity": 0.3228346456692913,
                    "duration": 0.10623225000000502
                },
                {
                    "name": "B2",
                    "midi": 47,
                    "time": 46.52972550000028,
                    "velocity": 0.3779527559055118,
                    "duration": 0.15934837500000043
                },
                {
                    "name": "C3",
                    "midi": 48,
                    "time": 46.63595775000028,
                    "velocity": 0.3228346456692913,
                    "duration": 0.10623225000000502
                },
                {
                    "name": "G#2",
                    "midi": 44,
                    "time": 46.742190000000285,
                    "velocity": 0.4251968503937008,
                    "duration": 0.15934837500000043
                },
                {
                    "name": "A2",
                    "midi": 45,
                    "time": 46.84842225000028,
                    "velocity": 0.33070866141732286,
                    "duration": 0.10623225000000502
                },
                {
                    "name": "G#2",
                    "midi": 44,
                    "time": 46.95465450000029,
                    "velocity": 0.4094488188976378,
                    "duration": 0.15934837500000043
                },
                {
                    "name": "A2",
                    "midi": 45,
                    "time": 47.060886750000286,
                    "velocity": 0.33858267716535434,
                    "duration": 0.10623225000000502
                },
                {
                    "name": "F2",
                    "midi": 41,
                    "time": 47.16711900000029,
                    "velocity": 0.4330708661417323,
                    "duration": 0.15934837500000043
                },
                {
                    "name": "F#2",
                    "midi": 42,
                    "time": 47.27335125000029,
                    "velocity": 0.3464566929133858,
                    "duration": 0.10623225000000502
                },
                {
                    "name": "F2",
                    "midi": 41,
                    "time": 47.379583500000294,
                    "velocity": 0.4015748031496063,
                    "duration": 0.15934837500000043
                },
                {
                    "name": "F#2",
                    "midi": 42,
                    "time": 47.48581575000029,
                    "velocity": 0.3464566929133858,
                    "duration": 0.10623225000000502
                },
                {
                    "name": "C#2",
                    "midi": 37,
                    "time": 47.5920480000003,
                    "velocity": 0.44881889763779526,
                    "duration": 0.15934837500000043
                },
                {
                    "name": "D2",
                    "midi": 38,
                    "time": 47.698280250000295,
                    "velocity": 0.3464566929133858,
                    "duration": 0.10623225000000502
                },
                {
                    "name": "C#2",
                    "midi": 37,
                    "time": 47.8045125000003,
                    "velocity": 0.4015748031496063,
                    "duration": 0.15934837500000043
                },
                {
                    "name": "D2",
                    "midi": 38,
                    "time": 47.9107447500003,
                    "velocity": 0.3464566929133858,
                    "duration": 0.10623225000000502
                },
                {
                    "name": "C#2",
                    "midi": 37,
                    "time": 48.0169770000003,
                    "velocity": 0.4409448818897638,
                    "duration": 0.15934837500000043
                },
                {
                    "name": "D2",
                    "midi": 38,
                    "time": 48.1232092500003,
                    "velocity": 0.3937007874015748,
                    "duration": 0.10623225000000502
                },
                {
                    "name": "C#2",
                    "midi": 37,
                    "time": 48.229441500000306,
                    "velocity": 0.44881889763779526,
                    "duration": 0.15934837500000043
                },
                {
                    "name": "D2",
                    "midi": 38,
                    "time": 48.3356737500003,
                    "velocity": 0.3464566929133858,
                    "duration": 0.09737956250000224
                },
                {
                    "name": "D2",
                    "midi": 38,
                    "time": 48.44190600000031,
                    "velocity": 0.48031496062992124,
                    "duration": 0.15934837500000043
                },
                {
                    "name": "D#2",
                    "midi": 39,
                    "time": 48.54813825000031,
                    "velocity": 0.4094488188976378,
                    "duration": 0.10623225000000502
                },
                {
                    "name": "D2",
                    "midi": 38,
                    "time": 48.65437050000031,
                    "velocity": 0.4566929133858268,
                    "duration": 0.15934837500000043
                },
                {
                    "name": "D#2",
                    "midi": 39,
                    "time": 48.76060275000031,
                    "velocity": 0.4094488188976378,
                    "duration": 0.10623225000000502
                },
                {
                    "name": "D#2",
                    "midi": 39,
                    "time": 48.866835000000314,
                    "velocity": 0.4566929133858268,
                    "duration": 0.15934837500000043
                },
                {
                    "name": "E2",
                    "midi": 40,
                    "time": 48.97306725000031,
                    "velocity": 0.3464566929133858,
                    "duration": 0.10623225000000502
                },
                {
                    "name": "D#2",
                    "midi": 39,
                    "time": 49.07929950000032,
                    "velocity": 0.4251968503937008,
                    "duration": 0.15934837500000043
                },
                {
                    "name": "E2",
                    "midi": 40,
                    "time": 49.185531750000315,
                    "velocity": 0.3464566929133858,
                    "duration": 0.10623225000000502
                },
                {
                    "name": "E2",
                    "midi": 40,
                    "time": 49.29176400000032,
                    "velocity": 0.4409448818897638,
                    "duration": 0.15934837500000043
                },
                {
                    "name": "F2",
                    "midi": 41,
                    "time": 49.39799625000032,
                    "velocity": 0.3779527559055118,
                    "duration": 0.10623225000000502
                },
                {
                    "name": "E2",
                    "midi": 40,
                    "time": 49.50422850000032,
                    "velocity": 0.4015748031496063,
                    "duration": 0.15934837500000043
                },
                {
                    "name": "F2",
                    "midi": 41,
                    "time": 49.61046075000032,
                    "velocity": 0.3464566929133858,
                    "duration": 0.10623225000000502
                },
                {
                    "name": "E2",
                    "midi": 40,
                    "time": 49.716693000000326,
                    "velocity": 0.4015748031496063,
                    "duration": 0.15934837500000043
                },
                {
                    "name": "F2",
                    "midi": 41,
                    "time": 49.822925250000324,
                    "velocity": 0.3464566929133858,
                    "duration": 0.10623225000000502
                },
                {
                    "name": "E2",
                    "midi": 40,
                    "time": 49.92915750000033,
                    "velocity": 0.4015748031496063,
                    "duration": 0.15934837500000043
                },
                {
                    "name": "F2",
                    "midi": 41,
                    "time": 50.03538975000033,
                    "velocity": 0.3464566929133858,
                    "duration": 0.09737956250000224
                },
                {
                    "name": "A1",
                    "midi": 33,
                    "time": 50.14162200000033,
                    "velocity": 0.4015748031496063,
                    "duration": 0.15934837500000043
                },
                {
                    "name": "A#1",
                    "midi": 34,
                    "time": 50.24785425000033,
                    "velocity": 0.3464566929133858,
                    "duration": 0.10623225000000502
                },
                {
                    "name": "A1",
                    "midi": 33,
                    "time": 50.354086500000335,
                    "velocity": 0.4015748031496063,
                    "duration": 0.15934837500000043
                },
                {
                    "name": "A#1",
                    "midi": 34,
                    "time": 50.46031875000033,
                    "velocity": 0.3464566929133858,
                    "duration": 0.09737956250000224
                },
                {
                    "name": "B1",
                    "midi": 35,
                    "time": 50.56655100000034,
                    "velocity": 0.4015748031496063,
                    "duration": 0.15934837500000043
                },
                {
                    "name": "C2",
                    "midi": 36,
                    "time": 50.672783250000336,
                    "velocity": 0.3464566929133858,
                    "duration": 0.10623225000000502
                },
                {
                    "name": "B1",
                    "midi": 35,
                    "time": 50.77901550000034,
                    "velocity": 0.4015748031496063,
                    "duration": 0.15934837500000043
                },
                {
                    "name": "C2",
                    "midi": 36,
                    "time": 50.88524775000034,
                    "velocity": 0.3464566929133858,
                    "duration": 0.09737956250000224
                },
                {
                    "name": "F1",
                    "midi": 29,
                    "time": 50.991480000000344,
                    "velocity": 0.3779527559055118,
                    "duration": 0.21246450000000294
                },
                {
                    "name": "F3",
                    "midi": 53,
                    "time": 51.84133800000035,
                    "velocity": 0.4251968503937008,
                    "duration": 0.8410053125000019
                },
                {
                    "name": "A3",
                    "midi": 57,
                    "time": 51.84133800000035,
                    "velocity": 0.5039370078740157,
                    "duration": 0.8498580000000047
                },
                {
                    "name": "D3",
                    "midi": 50,
                    "time": 52.69119600000035,
                    "velocity": 0.3228346456692913,
                    "duration": 0.4160763125000031
                },
                {
                    "name": "F3",
                    "midi": 53,
                    "time": 52.69119600000035,
                    "velocity": 0.3858267716535433,
                    "duration": 0.4249290000000059
                },
                {
                    "name": "A#2",
                    "midi": 46,
                    "time": 53.11612500000036,
                    "velocity": 0.3228346456692913,
                    "duration": 0.21246450000000294
                },
                {
                    "name": "D3",
                    "midi": 50,
                    "time": 53.11612500000036,
                    "velocity": 0.3858267716535433,
                    "duration": 0.21246450000000294
                },
                {
                    "name": "G3",
                    "midi": 55,
                    "time": 53.541054000000365,
                    "velocity": 0.4251968503937008,
                    "duration": 0.6373935000000017
                },
                {
                    "name": "A#3",
                    "midi": 58,
                    "time": 53.541054000000365,
                    "velocity": 0.5039370078740157,
                    "duration": 0.6373935000000017
                },
                {
                    "name": "F3",
                    "midi": 53,
                    "time": 54.17844750000037,
                    "velocity": 0.3228346456692913,
                    "duration": 0.21246450000000294
                },
                {
                    "name": "A3",
                    "midi": 57,
                    "time": 54.17844750000037,
                    "velocity": 0.3858267716535433,
                    "duration": 0.21246450000000294
                },
                {
                    "name": "E3",
                    "midi": 52,
                    "time": 54.39091200000037,
                    "velocity": 0.3858267716535433,
                    "duration": 0.4160763125000031
                },
                {
                    "name": "G3",
                    "midi": 55,
                    "time": 54.39091200000037,
                    "velocity": 0.4566929133858268,
                    "duration": 0.4249290000000059
                },
                {
                    "name": "C3",
                    "midi": 48,
                    "time": 54.815841000000376,
                    "velocity": 0.3464566929133858,
                    "duration": 0.21246450000000294
                },
                {
                    "name": "E3",
                    "midi": 52,
                    "time": 54.815841000000376,
                    "velocity": 0.4094488188976378,
                    "duration": 0.21246450000000294
                },
                {
                    "name": "A3",
                    "midi": 57,
                    "time": 55.24077000000038,
                    "velocity": 0.4251968503937008,
                    "duration": 0.8410053125000019
                },
                {
                    "name": "C4",
                    "midi": 60,
                    "time": 55.24077000000038,
                    "velocity": 0.5039370078740157,
                    "duration": 0.8498580000000047
                },
                {
                    "name": "F3",
                    "midi": 53,
                    "time": 56.090628000000386,
                    "velocity": 0.3228346456692913,
                    "duration": 0.4160763125000031
                },
                {
                    "name": "A3",
                    "midi": 57,
                    "time": 56.090628000000386,
                    "velocity": 0.3858267716535433,
                    "duration": 0.4249290000000059
                },
                {
                    "name": "D3",
                    "midi": 50,
                    "time": 56.51555700000039,
                    "velocity": 0.3228346456692913,
                    "duration": 0.21246450000000294
                },
                {
                    "name": "F3",
                    "midi": 53,
                    "time": 56.51555700000039,
                    "velocity": 0.3858267716535433,
                    "duration": 0.21246450000000294
                },
                {
                    "name": "A#3",
                    "midi": 58,
                    "time": 56.9404860000004,
                    "velocity": 0.4251968503937008,
                    "duration": 0.6373935000000017
                },
                {
                    "name": "D4",
                    "midi": 62,
                    "time": 56.9404860000004,
                    "velocity": 0.5039370078740157,
                    "duration": 0.6373935000000017
                },
                {
                    "name": "A3",
                    "midi": 57,
                    "time": 57.5778795000004,
                    "velocity": 0.3228346456692913,
                    "duration": 0.21246450000000294
                },
                {
                    "name": "C4",
                    "midi": 60,
                    "time": 57.5778795000004,
                    "velocity": 0.3858267716535433,
                    "duration": 0.21246450000000294
                },
                {
                    "name": "G3",
                    "midi": 55,
                    "time": 57.7903440000004,
                    "velocity": 0.3858267716535433,
                    "duration": 0.4160763125000031
                },
                {
                    "name": "A#3",
                    "midi": 58,
                    "time": 57.7903440000004,
                    "velocity": 0.4566929133858268,
                    "duration": 0.4249290000000059
                },
                {
                    "name": "E3",
                    "midi": 52,
                    "time": 58.21527300000041,
                    "velocity": 0.3464566929133858,
                    "duration": 0.21246450000000294
                },
                {
                    "name": "G3",
                    "midi": 55,
                    "time": 58.21527300000041,
                    "velocity": 0.4094488188976378,
                    "duration": 0.21246450000000294
                },
                {
                    "name": "A#3",
                    "midi": 58,
                    "time": 58.640202000000414,
                    "velocity": 0.4251968503937008,
                    "duration": 0.6373935000000017
                },
                {
                    "name": "G4",
                    "midi": 67,
                    "time": 58.640202000000414,
                    "velocity": 0.5039370078740157,
                    "duration": 0.6373935000000017
                },
                {
                    "name": "A3",
                    "midi": 57,
                    "time": 59.277595500000416,
                    "velocity": 0.3228346456692913,
                    "duration": 0.21246450000000294
                },
                {
                    "name": "F4",
                    "midi": 65,
                    "time": 59.277595500000416,
                    "velocity": 0.3858267716535433,
                    "duration": 0.21246450000000294
                },
                {
                    "name": "G3",
                    "midi": 55,
                    "time": 59.49006000000042,
                    "velocity": 0.4251968503937008,
                    "duration": 0.6373935000000017
                },
                {
                    "name": "E4",
                    "midi": 64,
                    "time": 59.49006000000042,
                    "velocity": 0.5039370078740157,
                    "duration": 0.6373935000000017
                },
                {
                    "name": "F3",
                    "midi": 53,
                    "time": 60.12745350000042,
                    "velocity": 0.3228346456692913,
                    "duration": 0.21246450000000294
                },
                {
                    "name": "D4",
                    "midi": 62,
                    "time": 60.12745350000042,
                    "velocity": 0.3228346456692913,
                    "duration": 0.21246450000000294
                },
                {
                    "name": "E3",
                    "midi": 52,
                    "time": 60.339918000000424,
                    "velocity": 0.3228346456692913,
                    "duration": 0.4249289999999988
                },
                {
                    "name": "C4",
                    "midi": 60,
                    "time": 60.339918000000424,
                    "velocity": 0.3858267716535433,
                    "duration": 0.4249289999999988
                },
                {
                    "name": "D3",
                    "midi": 50,
                    "time": 60.76484700000042,
                    "velocity": 0.2677165354330709,
                    "duration": 0.4249289999999988
                },
                {
                    "name": "F3",
                    "midi": 53,
                    "time": 60.76484700000042,
                    "velocity": 0.3228346456692913,
                    "duration": 0.4249289999999988
                },
                {
                    "name": "C#3",
                    "midi": 49,
                    "time": 61.18977600000042,
                    "velocity": 0.28346456692913385,
                    "duration": 0.4249289999999988
                },
                {
                    "name": "E3",
                    "midi": 52,
                    "time": 61.18977600000042,
                    "velocity": 0.33858267716535434,
                    "duration": 0.4249289999999988
                },
                {
                    "name": "A2",
                    "midi": 45,
                    "time": 61.61470500000042,
                    "velocity": 0.2125984251968504,
                    "duration": 0.4249289999999988
                },
                {
                    "name": "E3",
                    "midi": 52,
                    "time": 61.61470500000042,
                    "velocity": 0.25196850393700787,
                    "duration": 0.4249289999999988
                },
                {
                    "name": "A#2",
                    "midi": 46,
                    "time": 62.03963400000042,
                    "velocity": 0.25984251968503935,
                    "duration": 0.4249289999999988
                },
                {
                    "name": "D3",
                    "midi": 50,
                    "time": 62.03963400000042,
                    "velocity": 0.30708661417322836,
                    "duration": 0.4249289999999988
                },
                {
                    "name": "B2",
                    "midi": 47,
                    "time": 62.46456300000042,
                    "velocity": 0.2440944881889764,
                    "duration": 0.4249289999999988
                },
                {
                    "name": "C3",
                    "midi": 48,
                    "time": 62.889492000000416,
                    "velocity": 0.2992125984251969,
                    "duration": 0.8498579999999976
                },
                {
                    "name": "C2",
                    "midi": 36,
                    "time": 63.739350000000414,
                    "velocity": 0.25196850393700787,
                    "duration": 0.8498579999999976
                },
                {
                    "name": "F1",
                    "midi": 29,
                    "time": 64.58920800000041,
                    "velocity": 0.2755905511811024,
                    "duration": 0.8498579999999976
                },
                {
                    "name": "A3",
                    "midi": 57,
                    "time": 65.43906600000041,
                    "velocity": 0.5196850393700787,
                    "duration": 0.6373935000000017
                },
                {
                    "name": "F3",
                    "midi": 53,
                    "time": 65.43906600000041,
                    "velocity": 0.4330708661417323,
                    "duration": 0.6373935000000017
                },
                {
                    "name": "F3",
                    "midi": 53,
                    "time": 66.07645950000041,
                    "velocity": 0.29133858267716534,
                    "duration": 0.10623225000000502
                },
                {
                    "name": "A3",
                    "midi": 57,
                    "time": 66.07645950000041,
                    "velocity": 0.3464566929133858,
                    "duration": 0.10623225000000502
                },
                {
                    "name": "D3",
                    "midi": 50,
                    "time": 66.28892400000042,
                    "velocity": 0.3543307086614173,
                    "duration": 0.10623225000000502
                },
                {
                    "name": "F3",
                    "midi": 53,
                    "time": 66.28892400000042,
                    "velocity": 0.41732283464566927,
                    "duration": 0.10623225000000502
                },
                {
                    "name": "A#2",
                    "midi": 46,
                    "time": 66.71385300000043,
                    "velocity": 0.30708661417322836,
                    "duration": 0.10623225000000502
                },
                {
                    "name": "D3",
                    "midi": 50,
                    "time": 66.71385300000043,
                    "velocity": 0.3700787401574803,
                    "duration": 0.10623225000000502
                },
                {
                    "name": "A#3",
                    "midi": 58,
                    "time": 67.13878200000043,
                    "velocity": 0.5196850393700787,
                    "duration": 0.6373935000000017
                },
                {
                    "name": "G3",
                    "midi": 55,
                    "time": 67.13878200000043,
                    "velocity": 0.4330708661417323,
                    "duration": 0.6373935000000017
                },
                {
                    "name": "F3",
                    "midi": 53,
                    "time": 67.77617550000043,
                    "velocity": 0.29133858267716534,
                    "duration": 0.10623225000000502
                },
                {
                    "name": "A3",
                    "midi": 57,
                    "time": 67.77617550000043,
                    "velocity": 0.3464566929133858,
                    "duration": 0.10623225000000502
                },
                {
                    "name": "E3",
                    "midi": 52,
                    "time": 67.98864000000044,
                    "velocity": 0.3543307086614173,
                    "duration": 0.10623225000000502
                },
                {
                    "name": "G3",
                    "midi": 55,
                    "time": 67.98864000000044,
                    "velocity": 0.41732283464566927,
                    "duration": 0.10623225000000502
                },
                {
                    "name": "C3",
                    "midi": 48,
                    "time": 68.41356900000045,
                    "velocity": 0.30708661417322836,
                    "duration": 0.10623225000000502
                },
                {
                    "name": "E3",
                    "midi": 52,
                    "time": 68.41356900000045,
                    "velocity": 0.3700787401574803,
                    "duration": 0.10623225000000502
                },
                {
                    "name": "C4",
                    "midi": 60,
                    "time": 68.83849800000046,
                    "velocity": 0.5669291338582677,
                    "duration": 0.6373935000000017
                },
                {
                    "name": "A3",
                    "midi": 57,
                    "time": 68.83849800000046,
                    "velocity": 0.47244094488188976,
                    "duration": 0.6373935000000017
                },
                {
                    "name": "A3",
                    "midi": 57,
                    "time": 69.47589150000046,
                    "velocity": 0.31496062992125984,
                    "duration": 0.10623225000000502
                },
                {
                    "name": "C4",
                    "midi": 60,
                    "time": 69.47589150000046,
                    "velocity": 0.3779527559055118,
                    "duration": 0.10623225000000502
                },
                {
                    "name": "F3",
                    "midi": 53,
                    "time": 69.68835600000047,
                    "velocity": 0.3858267716535433,
                    "duration": 0.10623225000000502
                },
                {
                    "name": "A3",
                    "midi": 57,
                    "time": 69.68835600000047,
                    "velocity": 0.4566929133858268,
                    "duration": 0.10623225000000502
                },
                {
                    "name": "D3",
                    "midi": 50,
                    "time": 70.11328500000047,
                    "velocity": 0.33070866141732286,
                    "duration": 0.10623225000000502
                },
                {
                    "name": "F3",
                    "midi": 53,
                    "time": 70.11328500000047,
                    "velocity": 0.4015748031496063,
                    "duration": 0.10623225000000502
                },
                {
                    "name": "D4",
                    "midi": 62,
                    "time": 70.53821400000048,
                    "velocity": 0.5905511811023622,
                    "duration": 0.6373935000000017
                },
                {
                    "name": "A#3",
                    "midi": 58,
                    "time": 70.53821400000048,
                    "velocity": 0.4881889763779528,
                    "duration": 0.6373935000000017
                },
                {
                    "name": "A3",
                    "midi": 57,
                    "time": 71.17560750000048,
                    "velocity": 0.33070866141732286,
                    "duration": 0.10623225000000502
                },
                {
                    "name": "C4",
                    "midi": 60,
                    "time": 71.17560750000048,
                    "velocity": 0.3937007874015748,
                    "duration": 0.10623225000000502
                },
                {
                    "name": "G3",
                    "midi": 55,
                    "time": 71.38807200000049,
                    "velocity": 0.4015748031496063,
                    "duration": 0.10623225000000502
                },
                {
                    "name": "A#3",
                    "midi": 58,
                    "time": 71.38807200000049,
                    "velocity": 0.47244094488188976,
                    "duration": 0.10623225000000502
                },
                {
                    "name": "E3",
                    "midi": 52,
                    "time": 71.8130010000005,
                    "velocity": 0.3464566929133858,
                    "duration": 0.10623225000000502
                },
                {
                    "name": "G3",
                    "midi": 55,
                    "time": 71.8130010000005,
                    "velocity": 0.41732283464566927,
                    "duration": 0.10623225000000502
                },
                {
                    "name": "G4",
                    "midi": 67,
                    "time": 72.2379300000005,
                    "velocity": 0.6220472440944882,
                    "duration": 0.6373935000000017
                },
                {
                    "name": "A#3",
                    "midi": 58,
                    "time": 72.2379300000005,
                    "velocity": 0.5196850393700787,
                    "duration": 0.6373935000000017
                },
                {
                    "name": "A3",
                    "midi": 57,
                    "time": 72.8753235000005,
                    "velocity": 0.3464566929133858,
                    "duration": 0.10623225000000502
                },
                {
                    "name": "F4",
                    "midi": 65,
                    "time": 72.8753235000005,
                    "velocity": 0.4094488188976378,
                    "duration": 0.10623225000000502
                },
                {
                    "name": "E4",
                    "midi": 64,
                    "time": 73.08778800000051,
                    "velocity": 0.6220472440944882,
                    "duration": 0.6373935000000017
                },
                {
                    "name": "G3",
                    "midi": 55,
                    "time": 73.08778800000051,
                    "velocity": 0.5196850393700787,
                    "duration": 0.6373935000000017
                },
                {
                    "name": "F3",
                    "midi": 53,
                    "time": 73.72518150000052,
                    "velocity": 0.3464566929133858,
                    "duration": 0.10623225000000502
                },
                {
                    "name": "D4",
                    "midi": 62,
                    "time": 73.72518150000052,
                    "velocity": 0.4094488188976378,
                    "duration": 0.10623225000000502
                },
                {
                    "name": "E3",
                    "midi": 52,
                    "time": 73.93764600000053,
                    "velocity": 0.3858267716535433,
                    "duration": 0.10623225000000502
                },
                {
                    "name": "C4",
                    "midi": 60,
                    "time": 73.93764600000053,
                    "velocity": 0.4566929133858268,
                    "duration": 0.10623225000000502
                },
                {
                    "name": "D3",
                    "midi": 50,
                    "time": 74.36257500000053,
                    "velocity": 0.31496062992125984,
                    "duration": 0.10623225000000502
                },
                {
                    "name": "F3",
                    "midi": 53,
                    "time": 74.36257500000053,
                    "velocity": 0.3858267716535433,
                    "duration": 0.10623225000000502
                },
                {
                    "name": "C#3",
                    "midi": 49,
                    "time": 74.78750400000054,
                    "velocity": 0.2677165354330709,
                    "duration": 1.6997159999999951
                },
                {
                    "name": "E3",
                    "midi": 52,
                    "time": 74.78750400000054,
                    "velocity": 0.2677165354330709,
                    "duration": 1.6997159999999951
                },
                {
                    "name": "G3",
                    "midi": 55,
                    "time": 74.78750400000054,
                    "velocity": 0.31496062992125984,
                    "duration": 1.6997159999999951
                },
                {
                    "name": "D3",
                    "midi": 50,
                    "time": 76.48722000000053,
                    "velocity": 0.2677165354330709,
                    "duration": 1.6997159999999951
                },
                {
                    "name": "F3",
                    "midi": 53,
                    "time": 76.48722000000053,
                    "velocity": 0.31496062992125984,
                    "duration": 1.6997159999999951
                },
                {
                    "name": "B2",
                    "midi": 47,
                    "time": 78.18693600000053,
                    "velocity": 0.2677165354330709,
                    "duration": 1.6997159999999951
                },
                {
                    "name": "D3",
                    "midi": 50,
                    "time": 78.18693600000053,
                    "velocity": 0.2677165354330709,
                    "duration": 1.6997159999999951
                },
                {
                    "name": "F3",
                    "midi": 53,
                    "time": 78.18693600000053,
                    "velocity": 0.31496062992125984,
                    "duration": 1.6997159999999951
                },
                {
                    "name": "A#2",
                    "midi": 46,
                    "time": 79.88665200000052,
                    "velocity": 0.44881889763779526,
                    "duration": 1.0623224999999934
                },
                {
                    "name": "C#3",
                    "midi": 49,
                    "time": 79.88665200000052,
                    "velocity": 0.44881889763779526,
                    "duration": 1.0623224999999934
                },
                {
                    "name": "E3",
                    "midi": 52,
                    "time": 79.88665200000052,
                    "velocity": 0.44881889763779526,
                    "duration": 1.0623224999999934
                },
                {
                    "name": "G3",
                    "midi": 55,
                    "time": 79.88665200000052,
                    "velocity": 0.5354330708661418,
                    "duration": 1.0623224999999934
                },
                {
                    "name": "A#2",
                    "midi": 46,
                    "time": 80.94897450000052,
                    "velocity": 0.3937007874015748,
                    "duration": 0.10623225000000502
                },
                {
                    "name": "C3",
                    "midi": 48,
                    "time": 80.94897450000052,
                    "velocity": 0.3937007874015748,
                    "duration": 0.10623225000000502
                },
                {
                    "name": "G3",
                    "midi": 55,
                    "time": 80.94897450000052,
                    "velocity": 0.47244094488188976,
                    "duration": 0.10623225000000502
                },
                {
                    "name": "A#2",
                    "midi": 46,
                    "time": 81.16143900000053,
                    "velocity": 0.48031496062992124,
                    "duration": 0.10623225000000502
                },
                {
                    "name": "C3",
                    "midi": 48,
                    "time": 81.16143900000053,
                    "velocity": 0.48031496062992124,
                    "duration": 0.10623225000000502
                },
                {
                    "name": "G3",
                    "midi": 55,
                    "time": 81.16143900000053,
                    "velocity": 0.5669291338582677,
                    "duration": 0.10623225000000502
                },
                {
                    "name": "A#2",
                    "midi": 46,
                    "time": 81.37390350000054,
                    "velocity": 0.4015748031496063,
                    "duration": 0.10623225000000502
                },
                {
                    "name": "C3",
                    "midi": 48,
                    "time": 81.37390350000054,
                    "velocity": 0.4015748031496063,
                    "duration": 0.10623225000000502
                },
                {
                    "name": "G3",
                    "midi": 55,
                    "time": 81.37390350000054,
                    "velocity": 0.48031496062992124,
                    "duration": 0.10623225000000502
                },
                {
                    "name": "A2",
                    "midi": 45,
                    "time": 81.58636800000055,
                    "velocity": 0.5748031496062992,
                    "duration": 0.4249290000000059
                },
                {
                    "name": "C3",
                    "midi": 48,
                    "time": 81.58636800000055,
                    "velocity": 0.5748031496062992,
                    "duration": 0.4249290000000059
                },
                {
                    "name": "F3",
                    "midi": 53,
                    "time": 81.58636800000055,
                    "velocity": 0.5748031496062992,
                    "duration": 0.4249290000000059
                },
                {
                    "name": "E2",
                    "midi": 40,
                    "time": 82.22376150000055,
                    "velocity": 0.44881889763779526,
                    "duration": 0.10623225000000502
                },
                {
                    "name": "C3",
                    "midi": 48,
                    "time": 82.22376150000055,
                    "velocity": 0.5354330708661418,
                    "duration": 0.10623225000000502
                },
                {
                    "name": "F2",
                    "midi": 41,
                    "time": 82.43622600000056,
                    "velocity": 0.49606299212598426,
                    "duration": 0.10623225000000502
                },
                {
                    "name": "C3",
                    "midi": 48,
                    "time": 82.43622600000056,
                    "velocity": 0.5905511811023622,
                    "duration": 0.10623225000000502
                },
                {
                    "name": "A#2",
                    "midi": 46,
                    "time": 82.64869050000057,
                    "velocity": 0.4409448818897638,
                    "duration": 0.10623225000000502
                },
                {
                    "name": "C3",
                    "midi": 48,
                    "time": 82.64869050000057,
                    "velocity": 0.5275590551181102,
                    "duration": 0.10623225000000502
                },
                {
                    "name": "A2",
                    "midi": 45,
                    "time": 82.86115500000058,
                    "velocity": 0.49606299212598426,
                    "duration": 0.10623225000000502
                },
                {
                    "name": "C3",
                    "midi": 48,
                    "time": 82.86115500000058,
                    "velocity": 0.5905511811023622,
                    "duration": 0.10623225000000502
                },
                {
                    "name": "E2",
                    "midi": 40,
                    "time": 83.07361950000059,
                    "velocity": 0.4409448818897638,
                    "duration": 0.10623225000000502
                },
                {
                    "name": "C3",
                    "midi": 48,
                    "time": 83.07361950000059,
                    "velocity": 0.5275590551181102,
                    "duration": 0.10623225000000502
                },
                {
                    "name": "F2",
                    "midi": 41,
                    "time": 83.2860840000006,
                    "velocity": 0.49606299212598426,
                    "duration": 0.10623225000000502
                },
                {
                    "name": "C3",
                    "midi": 48,
                    "time": 83.2860840000006,
                    "velocity": 0.5905511811023622,
                    "duration": 0.10623225000000502
                },
                {
                    "name": "A#2",
                    "midi": 46,
                    "time": 83.49854850000061,
                    "velocity": 0.4409448818897638,
                    "duration": 0.10623225000000502
                },
                {
                    "name": "C3",
                    "midi": 48,
                    "time": 83.49854850000061,
                    "velocity": 0.5275590551181102,
                    "duration": 0.10623225000000502
                },
                {
                    "name": "A2",
                    "midi": 45,
                    "time": 83.71101300000062,
                    "velocity": 0.49606299212598426,
                    "duration": 0.10623225000000502
                },
                {
                    "name": "C3",
                    "midi": 48,
                    "time": 83.71101300000062,
                    "velocity": 0.5905511811023622,
                    "duration": 0.10623225000000502
                },
                {
                    "name": "E2",
                    "midi": 40,
                    "time": 83.92347750000063,
                    "velocity": 0.4409448818897638,
                    "duration": 0.10623225000000502
                },
                {
                    "name": "C3",
                    "midi": 48,
                    "time": 83.92347750000063,
                    "velocity": 0.5275590551181102,
                    "duration": 0.10623225000000502
                },
                {
                    "name": "F2",
                    "midi": 41,
                    "time": 84.13594200000064,
                    "velocity": 0.49606299212598426,
                    "duration": 0.10623225000000502
                },
                {
                    "name": "C3",
                    "midi": 48,
                    "time": 84.13594200000064,
                    "velocity": 0.5905511811023622,
                    "duration": 0.10623225000000502
                },
                {
                    "name": "A#2",
                    "midi": 46,
                    "time": 84.34840650000065,
                    "velocity": 0.4409448818897638,
                    "duration": 0.10623225000000502
                },
                {
                    "name": "C3",
                    "midi": 48,
                    "time": 84.34840650000065,
                    "velocity": 0.5275590551181102,
                    "duration": 0.10623225000000502
                },
                {
                    "name": "A2",
                    "midi": 45,
                    "time": 84.56087100000066,
                    "velocity": 0.49606299212598426,
                    "duration": 0.10623225000000502
                },
                {
                    "name": "C3",
                    "midi": 48,
                    "time": 84.56087100000066,
                    "velocity": 0.5905511811023622,
                    "duration": 0.10623225000000502
                },
                {
                    "name": "E2",
                    "midi": 40,
                    "time": 84.77333550000067,
                    "velocity": 0.44881889763779526,
                    "duration": 0.10623225000000502
                },
                {
                    "name": "C3",
                    "midi": 48,
                    "time": 84.77333550000067,
                    "velocity": 0.5354330708661418,
                    "duration": 0.10623225000000502
                },
                {
                    "name": "F2",
                    "midi": 41,
                    "time": 84.98580000000068,
                    "velocity": 0.7007874015748031,
                    "duration": 0.8498579999999976
                },
                {
                    "name": "D2",
                    "midi": 38,
                    "time": 85.83565800000068,
                    "velocity": 0.6299212598425197,
                    "duration": 0.8498579999999976
                },
                {
                    "name": "A#1",
                    "midi": 34,
                    "time": 86.68551600000067,
                    "velocity": 0.6929133858267716,
                    "duration": 0.8498579999999976
                },
                {
                    "name": "C2",
                    "midi": 36,
                    "time": 87.53537400000067,
                    "velocity": 0.6614173228346457,
                    "duration": 0.8498579999999976
                },
                {
                    "name": "F1",
                    "midi": 29,
                    "time": 88.38523200000067,
                    "velocity": 0.6377952755905512,
                    "duration": 0.10623225000000502
                },
                {
                    "name": "A#2",
                    "midi": 46,
                    "time": 88.59769650000068,
                    "velocity": 0.4251968503937008,
                    "duration": 0.10623225000000502
                },
                {
                    "name": "A2",
                    "midi": 45,
                    "time": 88.81016100000069,
                    "velocity": 0.47244094488188976,
                    "duration": 0.10623225000000502
                },
                {
                    "name": "E2",
                    "midi": 40,
                    "time": 89.0226255000007,
                    "velocity": 0.4251968503937008,
                    "duration": 0.10623225000000502
                },
                {
                    "name": "F2",
                    "midi": 41,
                    "time": 89.23509000000071,
                    "velocity": 0.47244094488188976,
                    "duration": 0.10623225000000502
                },
                {
                    "name": "A#2",
                    "midi": 46,
                    "time": 89.44755450000072,
                    "velocity": 0.4094488188976378,
                    "duration": 0.10623225000000502
                },
                {
                    "name": "A2",
                    "midi": 45,
                    "time": 89.66001900000073,
                    "velocity": 0.47244094488188976,
                    "duration": 0.10623225000000502
                },
                {
                    "name": "E2",
                    "midi": 40,
                    "time": 89.87248350000074,
                    "velocity": 0.4566929133858268,
                    "duration": 0.10623225000000502
                },
                {
                    "name": "F2",
                    "midi": 41,
                    "time": 90.08494800000075,
                    "velocity": 0.47244094488188976,
                    "duration": 0.10623225000000502
                },
                {
                    "name": "A#2",
                    "midi": 46,
                    "time": 90.29741250000076,
                    "velocity": 0.4094488188976378,
                    "duration": 0.10623225000000502
                },
                {
                    "name": "A2",
                    "midi": 45,
                    "time": 90.50987700000077,
                    "velocity": 0.47244094488188976,
                    "duration": 0.10623225000000502
                },
                {
                    "name": "E2",
                    "midi": 40,
                    "time": 90.72234150000078,
                    "velocity": 0.4566929133858268,
                    "duration": 0.10623225000000502
                },
                {
                    "name": "F2",
                    "midi": 41,
                    "time": 90.93480600000079,
                    "velocity": 0.5275590551181102,
                    "duration": 0.10623225000000502
                },
                {
                    "name": "G2",
                    "midi": 43,
                    "time": 91.1472705000008,
                    "velocity": 0.4645669291338583,
                    "duration": 0.10623225000000502
                },
                {
                    "name": "F2",
                    "midi": 41,
                    "time": 91.35973500000081,
                    "velocity": 0.5669291338582677,
                    "duration": 0.10623225000000502
                },
                {
                    "name": "E2",
                    "midi": 40,
                    "time": 91.57219950000082,
                    "velocity": 0.5275590551181102,
                    "duration": 0.10623225000000502
                },
                {
                    "name": "D2",
                    "midi": 38,
                    "time": 91.78466400000083,
                    "velocity": 0.5905511811023622,
                    "duration": 0.10623225000000502
                },
                {
                    "name": "C2",
                    "midi": 36,
                    "time": 91.99712850000084,
                    "velocity": 0.6062992125984252,
                    "duration": 0.10623225000000502
                },
                {
                    "name": "A#1",
                    "midi": 34,
                    "time": 92.20959300000085,
                    "velocity": 0.6299212598425197,
                    "duration": 0.10623225000000502
                },
                {
                    "name": "A1",
                    "midi": 33,
                    "time": 92.42205750000086,
                    "velocity": 0.6456692913385826,
                    "duration": 0.10623225000000502
                },
                {
                    "name": "G1",
                    "midi": 31,
                    "time": 92.63452200000087,
                    "velocity": 0.7401574803149606,
                    "duration": 1.6997159999999951
                },
                {
                    "name": "C2",
                    "midi": 36,
                    "time": 94.33423800000087,
                    "velocity": 0.6850393700787402,
                    "duration": 0.8498579999999976
                },
                {
                    "name": "F1",
                    "midi": 29,
                    "time": 95.18409600000086,
                    "velocity": 0.23622047244094488,
                    "duration": 0.10623225000000502
                },
                {
                    "name": "F2",
                    "midi": 41,
                    "time": 95.29032825000087,
                    "velocity": 0.2047244094488189,
                    "duration": 0.10623225000000502
                },
                {
                    "name": "F1",
                    "midi": 29,
                    "time": 95.39656050000087,
                    "velocity": 0.23622047244094488,
                    "duration": 0.10623225000000502
                },
                {
                    "name": "F2",
                    "midi": 41,
                    "time": 95.50279275000088,
                    "velocity": 0.1968503937007874,
                    "duration": 0.10623225000000502
                },
                {
                    "name": "F1",
                    "midi": 29,
                    "time": 95.60902500000088,
                    "velocity": 0.23622047244094488,
                    "duration": 0.10623225000000502
                },
                {
                    "name": "F2",
                    "midi": 41,
                    "time": 95.71525725000089,
                    "velocity": 0.2047244094488189,
                    "duration": 0.10623225000000502
                },
                {
                    "name": "F1",
                    "midi": 29,
                    "time": 95.8214895000009,
                    "velocity": 0.23622047244094488,
                    "duration": 0.10623225000000502
                },
                {
                    "name": "F2",
                    "midi": 41,
                    "time": 95.9277217500009,
                    "velocity": 0.2125984251968504,
                    "duration": 0.10623225000000502
                },
                {
                    "name": "F1",
                    "midi": 29,
                    "time": 96.0339540000009,
                    "velocity": 0.23622047244094488,
                    "duration": 0.10623225000000502
                },
                {
                    "name": "F2",
                    "midi": 41,
                    "time": 96.14018625000091,
                    "velocity": 0.2125984251968504,
                    "duration": 0.10623225000000502
                },
                {
                    "name": "F1",
                    "midi": 29,
                    "time": 96.24641850000091,
                    "velocity": 0.23622047244094488,
                    "duration": 0.10623225000000502
                },
                {
                    "name": "F2",
                    "midi": 41,
                    "time": 96.35265075000092,
                    "velocity": 0.1968503937007874,
                    "duration": 0.10623225000000502
                },
                {
                    "name": "F1",
                    "midi": 29,
                    "time": 96.45888300000092,
                    "velocity": 0.23622047244094488,
                    "duration": 0.10623225000000502
                },
                {
                    "name": "F2",
                    "midi": 41,
                    "time": 96.56511525000093,
                    "velocity": 0.2047244094488189,
                    "duration": 0.10623225000000502
                },
                {
                    "name": "F1",
                    "midi": 29,
                    "time": 96.67134750000093,
                    "velocity": 0.23622047244094488,
                    "duration": 0.10623225000000502
                },
                {
                    "name": "F2",
                    "midi": 41,
                    "time": 96.77757975000094,
                    "velocity": 0.2047244094488189,
                    "duration": 0.10623225000000502
                },
                {
                    "name": "F1",
                    "midi": 29,
                    "time": 96.88381200000094,
                    "velocity": 0.23622047244094488,
                    "duration": 0.10623225000000502
                },
                {
                    "name": "F2",
                    "midi": 41,
                    "time": 96.99004425000095,
                    "velocity": 0.2047244094488189,
                    "duration": 0.10623225000000502
                },
                {
                    "name": "F1",
                    "midi": 29,
                    "time": 97.09627650000095,
                    "velocity": 0.23622047244094488,
                    "duration": 0.10623225000000502
                },
                {
                    "name": "F2",
                    "midi": 41,
                    "time": 97.20250875000096,
                    "velocity": 0.1968503937007874,
                    "duration": 0.10623225000000502
                },
                {
                    "name": "F1",
                    "midi": 29,
                    "time": 97.30874100000096,
                    "velocity": 0.23622047244094488,
                    "duration": 0.10623225000000502
                },
                {
                    "name": "F2",
                    "midi": 41,
                    "time": 97.41497325000097,
                    "velocity": 0.2047244094488189,
                    "duration": 0.10623225000000502
                },
                {
                    "name": "F1",
                    "midi": 29,
                    "time": 97.52120550000097,
                    "velocity": 0.23622047244094488,
                    "duration": 0.10623225000000502
                },
                {
                    "name": "F2",
                    "midi": 41,
                    "time": 97.62743775000098,
                    "velocity": 0.2125984251968504,
                    "duration": 0.10623225000000502
                },
                {
                    "name": "F1",
                    "midi": 29,
                    "time": 97.73367000000098,
                    "velocity": 0.23622047244094488,
                    "duration": 0.10623225000000502
                },
                {
                    "name": "F2",
                    "midi": 41,
                    "time": 97.83990225000099,
                    "velocity": 0.2125984251968504,
                    "duration": 0.10623225000000502
                },
                {
                    "name": "F1",
                    "midi": 29,
                    "time": 97.946134500001,
                    "velocity": 0.23622047244094488,
                    "duration": 0.10623225000000502
                },
                {
                    "name": "F2",
                    "midi": 41,
                    "time": 98.052366750001,
                    "velocity": 0.1968503937007874,
                    "duration": 0.10623225000000502
                },
                {
                    "name": "F1",
                    "midi": 29,
                    "time": 98.158599000001,
                    "velocity": 0.23622047244094488,
                    "duration": 0.10623225000000502
                },
                {
                    "name": "F2",
                    "midi": 41,
                    "time": 98.26483125000101,
                    "velocity": 0.2047244094488189,
                    "duration": 0.10623225000000502
                },
                {
                    "name": "F1",
                    "midi": 29,
                    "time": 98.37106350000101,
                    "velocity": 0.23622047244094488,
                    "duration": 0.10623225000000502
                },
                {
                    "name": "F2",
                    "midi": 41,
                    "time": 98.47729575000102,
                    "velocity": 0.2047244094488189,
                    "duration": 0.10623225000000502
                },
                {
                    "name": "F1",
                    "midi": 29,
                    "time": 98.58352800000102,
                    "velocity": 0.23622047244094488,
                    "duration": 0.10623225000000502
                },
                {
                    "name": "F2",
                    "midi": 41,
                    "time": 98.68976025000103,
                    "velocity": 0.2047244094488189,
                    "duration": 0.10623225000000502
                },
                {
                    "name": "F1",
                    "midi": 29,
                    "time": 98.79599250000103,
                    "velocity": 0.23622047244094488,
                    "duration": 0.10623225000000502
                },
                {
                    "name": "F2",
                    "midi": 41,
                    "time": 98.90222475000104,
                    "velocity": 0.1968503937007874,
                    "duration": 0.10623225000000502
                },
                {
                    "name": "F1",
                    "midi": 29,
                    "time": 99.00845700000104,
                    "velocity": 0.23622047244094488,
                    "duration": 0.10623225000000502
                },
                {
                    "name": "F2",
                    "midi": 41,
                    "time": 99.11468925000105,
                    "velocity": 0.2047244094488189,
                    "duration": 0.10623225000000502
                },
                {
                    "name": "F1",
                    "midi": 29,
                    "time": 99.22092150000105,
                    "velocity": 0.23622047244094488,
                    "duration": 0.10623225000000502
                },
                {
                    "name": "F2",
                    "midi": 41,
                    "time": 99.32715375000106,
                    "velocity": 0.2125984251968504,
                    "duration": 0.10623225000000502
                },
                {
                    "name": "F1",
                    "midi": 29,
                    "time": 99.43338600000106,
                    "velocity": 0.23622047244094488,
                    "duration": 0.10623225000000502
                },
                {
                    "name": "F2",
                    "midi": 41,
                    "time": 99.53961825000107,
                    "velocity": 0.2125984251968504,
                    "duration": 0.10623225000000502
                },
                {
                    "name": "F1",
                    "midi": 29,
                    "time": 99.64585050000107,
                    "velocity": 0.2755905511811024,
                    "duration": 0.10623225000000502
                },
                {
                    "name": "F2",
                    "midi": 41,
                    "time": 99.75208275000108,
                    "velocity": 0.2283464566929134,
                    "duration": 0.10623225000000502
                },
                {
                    "name": "F1",
                    "midi": 29,
                    "time": 99.85831500000108,
                    "velocity": 0.2677165354330709,
                    "duration": 0.10623225000000502
                },
                {
                    "name": "F2",
                    "midi": 41,
                    "time": 99.96454725000109,
                    "velocity": 0.2047244094488189,
                    "duration": 0.10623225000000502
                },
                {
                    "name": "F1",
                    "midi": 29,
                    "time": 100.0707795000011,
                    "velocity": 0.2755905511811024,
                    "duration": 0.10623225000000502
                },
                {
                    "name": "F2",
                    "midi": 41,
                    "time": 100.1770117500011,
                    "velocity": 0.2440944881889764,
                    "duration": 0.10623225000000502
                },
                {
                    "name": "F1",
                    "midi": 29,
                    "time": 100.2832440000011,
                    "velocity": 0.2992125984251969,
                    "duration": 0.10623225000000502
                },
                {
                    "name": "F2",
                    "midi": 41,
                    "time": 100.38947625000111,
                    "velocity": 0.23622047244094488,
                    "duration": 0.10623225000000502
                },
                {
                    "name": "F1",
                    "midi": 29,
                    "time": 100.49570850000111,
                    "velocity": 0.2677165354330709,
                    "duration": 0.10623225000000502
                },
                {
                    "name": "F2",
                    "midi": 41,
                    "time": 100.60194075000112,
                    "velocity": 0.1968503937007874,
                    "duration": 0.10623225000000502
                },
                {
                    "name": "F1",
                    "midi": 29,
                    "time": 100.70817300000112,
                    "velocity": 0.25984251968503935,
                    "duration": 0.10623225000000502
                },
                {
                    "name": "F2",
                    "midi": 41,
                    "time": 100.81440525000113,
                    "velocity": 0.2047244094488189,
                    "duration": 0.10623225000000502
                },
                {
                    "name": "F1",
                    "midi": 29,
                    "time": 100.92063750000113,
                    "velocity": 0.23622047244094488,
                    "duration": 0.10623225000000502
                },
                {
                    "name": "F2",
                    "midi": 41,
                    "time": 101.02686975000114,
                    "velocity": 0.2125984251968504,
                    "duration": 0.10623225000000502
                },
                {
                    "name": "F1",
                    "midi": 29,
                    "time": 101.13310200000114,
                    "velocity": 0.23622047244094488,
                    "duration": 0.10623225000000502
                },
                {
                    "name": "F2",
                    "midi": 41,
                    "time": 101.23933425000115,
                    "velocity": 0.2125984251968504,
                    "duration": 0.10623225000000502
                },
                {
                    "name": "F1",
                    "midi": 29,
                    "time": 101.34556650000115,
                    "velocity": 0.23622047244094488,
                    "duration": 0.10623225000000502
                },
                {
                    "name": "F2",
                    "midi": 41,
                    "time": 101.45179875000116,
                    "velocity": 0.1968503937007874,
                    "duration": 0.10623225000000502
                },
                {
                    "name": "F1",
                    "midi": 29,
                    "time": 101.55803100000117,
                    "velocity": 0.23622047244094488,
                    "duration": 0.10623225000000502
                },
                {
                    "name": "F2",
                    "midi": 41,
                    "time": 101.66426325000117,
                    "velocity": 0.2047244094488189,
                    "duration": 0.10623225000000502
                },
                {
                    "name": "F1",
                    "midi": 29,
                    "time": 101.77049550000118,
                    "velocity": 0.23622047244094488,
                    "duration": 0.10623225000000502
                },
                {
                    "name": "F2",
                    "midi": 41,
                    "time": 101.87672775000118,
                    "velocity": 0.2047244094488189,
                    "duration": 0.10623225000000502
                },
                {
                    "name": "F1",
                    "midi": 29,
                    "time": 101.98296000000119,
                    "velocity": 0.23622047244094488,
                    "duration": 0.10623225000000502
                },
                {
                    "name": "F2",
                    "midi": 41,
                    "time": 102.08919225000119,
                    "velocity": 0.1968503937007874,
                    "duration": 0.10623225000000502
                },
                {
                    "name": "F1",
                    "midi": 29,
                    "time": 102.1954245000012,
                    "velocity": 0.2283464566929134,
                    "duration": 0.10623225000000502
                },
                {
                    "name": "F2",
                    "midi": 41,
                    "time": 102.3016567500012,
                    "velocity": 0.1889763779527559,
                    "duration": 0.10623225000000502
                },
                {
                    "name": "F1",
                    "midi": 29,
                    "time": 102.4078890000012,
                    "velocity": 0.2204724409448819,
                    "duration": 0.10623225000000502
                },
                {
                    "name": "F2",
                    "midi": 41,
                    "time": 102.51412125000121,
                    "velocity": 0.1889763779527559,
                    "duration": 0.10623225000000502
                },
                {
                    "name": "F1",
                    "midi": 29,
                    "time": 102.62035350000122,
                    "velocity": 0.2204724409448819,
                    "duration": 0.10623225000000502
                },
                {
                    "name": "F2",
                    "midi": 41,
                    "time": 102.72658575000122,
                    "velocity": 0.1968503937007874,
                    "duration": 0.10623225000000502
                },
                {
                    "name": "F1",
                    "midi": 29,
                    "time": 102.83281800000123,
                    "velocity": 0.2125984251968504,
                    "duration": 0.10623225000000502
                },
                {
                    "name": "F2",
                    "midi": 41,
                    "time": 102.93905025000123,
                    "velocity": 0.1889763779527559,
                    "duration": 0.10623225000000502
                },
                {
                    "name": "F1",
                    "midi": 29,
                    "time": 103.04528250000124,
                    "velocity": 0.2125984251968504,
                    "duration": 0.10623225000000502
                },
                {
                    "name": "F2",
                    "midi": 41,
                    "time": 103.15151475000124,
                    "velocity": 0.1732283464566929,
                    "duration": 0.10623225000000502
                },
                {
                    "name": "F1",
                    "midi": 29,
                    "time": 103.25774700000125,
                    "velocity": 0.2047244094488189,
                    "duration": 0.10623225000000502
                },
                {
                    "name": "F2",
                    "midi": 41,
                    "time": 103.36397925000125,
                    "velocity": 0.1732283464566929,
                    "duration": 0.10623225000000502
                },
                {
                    "name": "F1",
                    "midi": 29,
                    "time": 103.47021150000126,
                    "velocity": 0.1968503937007874,
                    "duration": 0.10623225000000502
                },
                {
                    "name": "F2",
                    "midi": 41,
                    "time": 103.57644375000126,
                    "velocity": 0.1732283464566929,
                    "duration": 0.10623225000000502
                },
                {
                    "name": "F1",
                    "midi": 29,
                    "time": 103.68267600000127,
                    "velocity": 0.1968503937007874,
                    "duration": 0.10623225000000502
                },
                {
                    "name": "F2",
                    "midi": 41,
                    "time": 103.78890825000127,
                    "velocity": 0.16535433070866143,
                    "duration": 0.10623225000000502
                },
                {
                    "name": "F1",
                    "midi": 29,
                    "time": 103.89514050000128,
                    "velocity": 0.1889763779527559,
                    "duration": 0.10623225000000502
                },
                {
                    "name": "F2",
                    "midi": 41,
                    "time": 104.00137275000128,
                    "velocity": 0.15748031496062992,
                    "duration": 0.10623225000000502
                },
                {
                    "name": "F1",
                    "midi": 29,
                    "time": 104.10760500000129,
                    "velocity": 0.1889763779527559,
                    "duration": 0.10623225000000502
                },
                {
                    "name": "F2",
                    "midi": 41,
                    "time": 104.21383725000129,
                    "velocity": 0.15748031496062992,
                    "duration": 0.10623225000000502
                },
                {
                    "name": "F1",
                    "midi": 29,
                    "time": 104.3200695000013,
                    "velocity": 0.18110236220472442,
                    "duration": 0.10623225000000502
                },
                {
                    "name": "F2",
                    "midi": 41,
                    "time": 104.4263017500013,
                    "velocity": 0.15748031496062992,
                    "duration": 0.10623225000000502
                },
                {
                    "name": "F1",
                    "midi": 29,
                    "time": 104.5325340000013,
                    "velocity": 0.1732283464566929,
                    "duration": 0.10623225000000502
                },
                {
                    "name": "F2",
                    "midi": 41,
                    "time": 104.63876625000131,
                    "velocity": 0.15748031496062992,
                    "duration": 0.10623225000000502
                },
                {
                    "name": "F1",
                    "midi": 29,
                    "time": 104.74499850000132,
                    "velocity": 0.1732283464566929,
                    "duration": 0.10623225000000502
                },
                {
                    "name": "F2",
                    "midi": 41,
                    "time": 104.85123075000132,
                    "velocity": 0.14173228346456693,
                    "duration": 0.10623225000000502
                },
                {
                    "name": "F1",
                    "midi": 29,
                    "time": 104.95746300000133,
                    "velocity": 0.1732283464566929,
                    "duration": 0.10623225000000502
                },
                {
                    "name": "F2",
                    "midi": 41,
                    "time": 105.06369525000133,
                    "velocity": 0.14960629921259844,
                    "duration": 0.10623225000000502
                },
                {
                    "name": "F1",
                    "midi": 29,
                    "time": 105.16992750000134,
                    "velocity": 0.1732283464566929,
                    "duration": 0.10623225000000502
                },
                {
                    "name": "F2",
                    "midi": 41,
                    "time": 105.27615975000134,
                    "velocity": 0.14960629921259844,
                    "duration": 0.10623225000000502
                },
                {
                    "name": "F1",
                    "midi": 29,
                    "time": 105.38239200000135,
                    "velocity": 0.4409448818897638,
                    "duration": 0.6373935000000017
                },
                {
                    "name": "F2",
                    "midi": 41,
                    "time": 105.38239200000135,
                    "velocity": 0.5196850393700787,
                    "duration": 0.6373935000000017
                },
                {
                    "name": "G1",
                    "midi": 31,
                    "time": 106.01978550000135,
                    "velocity": 0.3858267716535433,
                    "duration": 0.10623225000000502
                },
                {
                    "name": "G2",
                    "midi": 43,
                    "time": 106.01978550000135,
                    "velocity": 0.4645669291338583,
                    "duration": 0.10623225000000502
                },
                {
                    "name": "A1",
                    "midi": 33,
                    "time": 106.23225000000136,
                    "velocity": 0.4409448818897638,
                    "duration": 0.6373935000000017
                },
                {
                    "name": "A2",
                    "midi": 45,
                    "time": 106.23225000000136,
                    "velocity": 0.5196850393700787,
                    "duration": 0.6373935000000017
                },
                {
                    "name": "A#1",
                    "midi": 34,
                    "time": 106.86964350000136,
                    "velocity": 0.3937007874015748,
                    "duration": 0.10623225000000502
                },
                {
                    "name": "A#2",
                    "midi": 46,
                    "time": 106.86964350000136,
                    "velocity": 0.47244094488188976,
                    "duration": 0.10623225000000502
                },
                {
                    "name": "C2",
                    "midi": 36,
                    "time": 107.08210800000137,
                    "velocity": 0.44881889763779526,
                    "duration": 0.6373935000000017
                },
                {
                    "name": "C3",
                    "midi": 48,
                    "time": 107.08210800000137,
                    "velocity": 0.5354330708661418,
                    "duration": 0.6373935000000017
                },
                {
                    "name": "D2",
                    "midi": 38,
                    "time": 107.71950150000137,
                    "velocity": 0.3700787401574803,
                    "duration": 0.10623225000000502
                },
                {
                    "name": "D3",
                    "midi": 50,
                    "time": 107.71950150000137,
                    "velocity": 0.4409448818897638,
                    "duration": 0.10623225000000502
                },
                {
                    "name": "E2",
                    "midi": 40,
                    "time": 107.93196600000138,
                    "velocity": 0.41732283464566927,
                    "duration": 0.10623225000000502
                },
                {
                    "name": "E3",
                    "midi": 52,
                    "time": 107.93196600000138,
                    "velocity": 0.49606299212598426,
                    "duration": 0.10623225000000502
                },
                {
                    "name": "F2",
                    "midi": 41,
                    "time": 108.14443050000139,
                    "velocity": 0.3937007874015748,
                    "duration": 0.10623225000000502
                },
                {
                    "name": "F3",
                    "midi": 53,
                    "time": 108.14443050000139,
                    "velocity": 0.47244094488188976,
                    "duration": 0.10623225000000502
                },
                {
                    "name": "G2",
                    "midi": 43,
                    "time": 108.3568950000014,
                    "velocity": 0.4330708661417323,
                    "duration": 0.10623225000000502
                },
                {
                    "name": "G3",
                    "midi": 55,
                    "time": 108.3568950000014,
                    "velocity": 0.5118110236220472,
                    "duration": 0.10623225000000502
                },
                {
                    "name": "A2",
                    "midi": 45,
                    "time": 108.56935950000141,
                    "velocity": 0.4015748031496063,
                    "duration": 0.10623225000000502
                },
                {
                    "name": "A3",
                    "midi": 57,
                    "time": 108.56935950000141,
                    "velocity": 0.48031496062992124,
                    "duration": 0.10623225000000502
                },
                {
                    "name": "A#2",
                    "midi": 46,
                    "time": 108.78182400000142,
                    "velocity": 0.48031496062992124,
                    "duration": 0.6373935000000017
                },
                {
                    "name": "A#3",
                    "midi": 58,
                    "time": 108.78182400000142,
                    "velocity": 0.5669291338582677,
                    "duration": 0.6373935000000017
                },
                {
                    "name": "A2",
                    "midi": 45,
                    "time": 109.41921750000142,
                    "velocity": 0.4094488188976378,
                    "duration": 0.10623225000000502
                },
                {
                    "name": "A3",
                    "midi": 57,
                    "time": 109.41921750000142,
                    "velocity": 0.49606299212598426,
                    "duration": 0.10623225000000502
                },
                {
                    "name": "G2",
                    "midi": 43,
                    "time": 109.63168200000143,
                    "velocity": 0.4645669291338583,
                    "duration": 0.6373935000000017
                },
                {
                    "name": "G3",
                    "midi": 55,
                    "time": 109.63168200000143,
                    "velocity": 0.5433070866141733,
                    "duration": 0.6373935000000017
                },
                {
                    "name": "F2",
                    "midi": 41,
                    "time": 110.26907550000143,
                    "velocity": 0.4015748031496063,
                    "duration": 0.10623225000000502
                },
                {
                    "name": "F3",
                    "midi": 53,
                    "time": 110.26907550000143,
                    "velocity": 0.48031496062992124,
                    "duration": 0.10623225000000502
                },
                {
                    "name": "E2",
                    "midi": 40,
                    "time": 110.48154000000144,
                    "velocity": 0.4566929133858268,
                    "duration": 0.6373935000000017
                },
                {
                    "name": "E3",
                    "midi": 52,
                    "time": 110.48154000000144,
                    "velocity": 0.5433070866141733,
                    "duration": 0.6373935000000017
                },
                {
                    "name": "D2",
                    "midi": 38,
                    "time": 111.11893350000145,
                    "velocity": 0.3700787401574803,
                    "duration": 0.10623225000000502
                },
                {
                    "name": "D3",
                    "midi": 50,
                    "time": 111.11893350000145,
                    "velocity": 0.4409448818897638,
                    "duration": 0.10623225000000502
                },
                {
                    "name": "C2",
                    "midi": 36,
                    "time": 111.33139800000146,
                    "velocity": 0.4094488188976378,
                    "duration": 0.10623225000000502
                },
                {
                    "name": "C3",
                    "midi": 48,
                    "time": 111.33139800000146,
                    "velocity": 0.4881889763779528,
                    "duration": 0.10623225000000502
                },
                {
                    "name": "A#1",
                    "midi": 34,
                    "time": 111.54386250000147,
                    "velocity": 0.3858267716535433,
                    "duration": 0.10623225000000502
                },
                {
                    "name": "A#2",
                    "midi": 46,
                    "time": 111.54386250000147,
                    "velocity": 0.4566929133858268,
                    "duration": 0.10623225000000502
                },
                {
                    "name": "A1",
                    "midi": 33,
                    "time": 111.75632700000148,
                    "velocity": 0.4094488188976378,
                    "duration": 0.10623225000000502
                },
                {
                    "name": "A2",
                    "midi": 45,
                    "time": 111.75632700000148,
                    "velocity": 0.4881889763779528,
                    "duration": 0.10623225000000502
                },
                {
                    "name": "G1",
                    "midi": 31,
                    "time": 111.96879150000149,
                    "velocity": 0.3779527559055118,
                    "duration": 0.10623225000000502
                },
                {
                    "name": "G2",
                    "midi": 43,
                    "time": 111.96879150000149,
                    "velocity": 0.44881889763779526,
                    "duration": 0.10623225000000502
                },
                {
                    "name": "F1",
                    "midi": 29,
                    "time": 112.1812560000015,
                    "velocity": 0.4566929133858268,
                    "duration": 0.10623225000000502
                },
                {
                    "name": "F2",
                    "midi": 41,
                    "time": 112.1812560000015,
                    "velocity": 0.5433070866141733,
                    "duration": 0.10623225000000502
                },
                {
                    "name": "C3",
                    "midi": 48,
                    "time": 112.6061850000015,
                    "velocity": 0.2677165354330709,
                    "duration": 0.10623225000000502
                },
                {
                    "name": "G3",
                    "midi": 55,
                    "time": 112.6061850000015,
                    "velocity": 0.2677165354330709,
                    "duration": 0.10623225000000502
                },
                {
                    "name": "A#3",
                    "midi": 58,
                    "time": 112.6061850000015,
                    "velocity": 0.3228346456692913,
                    "duration": 0.10623225000000502
                },
                {
                    "name": "F3",
                    "midi": 53,
                    "time": 113.03111400000151,
                    "velocity": 0.3228346456692913,
                    "duration": 0.10623225000000502
                },
                {
                    "name": "A3",
                    "midi": 57,
                    "time": 113.03111400000151,
                    "velocity": 0.3858267716535433,
                    "duration": 0.10623225000000502
                },
                {
                    "name": "C4",
                    "midi": 60,
                    "time": 113.45604300000151,
                    "velocity": 0.2677165354330709,
                    "duration": 0.10623225000000502
                },
                {
                    "name": "G4",
                    "midi": 67,
                    "time": 113.45604300000151,
                    "velocity": 0.2677165354330709,
                    "duration": 0.10623225000000502
                },
                {
                    "name": "A#4",
                    "midi": 70,
                    "time": 113.45604300000151,
                    "velocity": 0.3228346456692913,
                    "duration": 0.10623225000000502
                },
                {
                    "name": "F4",
                    "midi": 65,
                    "time": 113.88097200000152,
                    "velocity": 0.3228346456692913,
                    "duration": 0.10623225000000502
                },
                {
                    "name": "A4",
                    "midi": 69,
                    "time": 113.88097200000152,
                    "velocity": 0.3858267716535433,
                    "duration": 0.10623225000000502
                },
                {
                    "name": "C3",
                    "midi": 48,
                    "time": 114.73083000000153,
                    "velocity": 0.4409448818897638,
                    "duration": 0.4249290000000059
                },
                {
                    "name": "C4",
                    "midi": 60,
                    "time": 114.73083000000153,
                    "velocity": 0.5275590551181102,
                    "duration": 0.4249290000000059
                },
                {
                    "name": "F2",
                    "midi": 41,
                    "time": 115.58068800000154,
                    "velocity": 0.5039370078740157,
                    "duration": 0.4249290000000059
                },
                {
                    "name": "F3",
                    "midi": 53,
                    "time": 115.58068800000154,
                    "velocity": 0.5984251968503937,
                    "duration": 0.4249290000000059
                },
                {
                    "name": "A#1",
                    "midi": 34,
                    "time": 117.28040400000155,
                    "velocity": 0.23622047244094488,
                    "duration": 0.07967418750000377
                },
                {
                    "name": "A#2",
                    "midi": 46,
                    "time": 117.28040400000155,
                    "velocity": 0.28346456692913385,
                    "duration": 0.07967418750000377
                },
                {
                    "name": "A#1",
                    "midi": 34,
                    "time": 117.70533300000156,
                    "velocity": 0.2125984251968504,
                    "duration": 0.07967418750000377
                },
                {
                    "name": "A#2",
                    "midi": 46,
                    "time": 117.70533300000156,
                    "velocity": 0.25196850393700787,
                    "duration": 0.07967418750000377
                },
                {
                    "name": "A#1",
                    "midi": 34,
                    "time": 118.98012000000156,
                    "velocity": 0.23622047244094488,
                    "duration": 0.07967418750000377
                },
                {
                    "name": "A#2",
                    "midi": 46,
                    "time": 118.98012000000156,
                    "velocity": 0.28346456692913385,
                    "duration": 0.07967418750000377
                },
                {
                    "name": "A#1",
                    "midi": 34,
                    "time": 119.40504900000157,
                    "velocity": 0.2125984251968504,
                    "duration": 0.07967418750000377
                },
                {
                    "name": "A#2",
                    "midi": 46,
                    "time": 119.40504900000157,
                    "velocity": 0.25196850393700787,
                    "duration": 0.07967418750000377
                },
                {
                    "name": "A#2",
                    "midi": 46,
                    "time": 122.37955200000157,
                    "velocity": 0.3464566929133858,
                    "duration": 0.10623225000000502
                },
                {
                    "name": "D3",
                    "midi": 50,
                    "time": 122.48578425000157,
                    "velocity": 0.2440944881889764,
                    "duration": 0.10623225000000502
                },
                {
                    "name": "F3",
                    "midi": 53,
                    "time": 122.59201650000158,
                    "velocity": 0.2440944881889764,
                    "duration": 0.10623225000000502
                },
                {
                    "name": "A#3",
                    "midi": 58,
                    "time": 122.69824875000158,
                    "velocity": 0.2440944881889764,
                    "duration": 0.10623225000000502
                },
                {
                    "name": "A#2",
                    "midi": 46,
                    "time": 122.80448100000159,
                    "velocity": 0.3464566929133858,
                    "duration": 0.10623225000000502
                },
                {
                    "name": "D3",
                    "midi": 50,
                    "time": 122.91071325000159,
                    "velocity": 0.25196850393700787,
                    "duration": 0.10623225000000502
                },
                {
                    "name": "F3",
                    "midi": 53,
                    "time": 123.0169455000016,
                    "velocity": 0.25196850393700787,
                    "duration": 0.10623225000000502
                },
                {
                    "name": "A#3",
                    "midi": 58,
                    "time": 123.1231777500016,
                    "velocity": 0.25196850393700787,
                    "duration": 0.10623225000000502
                },
                {
                    "name": "A#2",
                    "midi": 46,
                    "time": 123.22941000000161,
                    "velocity": 0.3464566929133858,
                    "duration": 0.10623225000000502
                },
                {
                    "name": "D3",
                    "midi": 50,
                    "time": 123.33564225000161,
                    "velocity": 0.25984251968503935,
                    "duration": 0.10623225000000502
                },
                {
                    "name": "F3",
                    "midi": 53,
                    "time": 123.44187450000162,
                    "velocity": 0.25984251968503935,
                    "duration": 0.10623225000000502
                },
                {
                    "name": "A#3",
                    "midi": 58,
                    "time": 123.54810675000162,
                    "velocity": 0.25984251968503935,
                    "duration": 0.10623225000000502
                },
                {
                    "name": "A#2",
                    "midi": 46,
                    "time": 123.65433900000163,
                    "velocity": 0.3464566929133858,
                    "duration": 0.10623225000000502
                },
                {
                    "name": "D3",
                    "midi": 50,
                    "time": 123.76057125000163,
                    "velocity": 0.25984251968503935,
                    "duration": 0.10623225000000502
                },
                {
                    "name": "F3",
                    "midi": 53,
                    "time": 123.86680350000164,
                    "velocity": 0.25984251968503935,
                    "duration": 0.10623225000000502
                },
                {
                    "name": "A#3",
                    "midi": 58,
                    "time": 123.97303575000164,
                    "velocity": 0.25984251968503935,
                    "duration": 0.10623225000000502
                },
                {
                    "name": "A#2",
                    "midi": 46,
                    "time": 124.07926800000165,
                    "velocity": 0.3464566929133858,
                    "duration": 0.10623225000000502
                },
                {
                    "name": "D#3",
                    "midi": 51,
                    "time": 124.18550025000165,
                    "velocity": 0.2440944881889764,
                    "duration": 0.10623225000000502
                },
                {
                    "name": "G3",
                    "midi": 55,
                    "time": 124.29173250000166,
                    "velocity": 0.2440944881889764,
                    "duration": 0.10623225000000502
                },
                {
                    "name": "A#3",
                    "midi": 58,
                    "time": 124.39796475000166,
                    "velocity": 0.2440944881889764,
                    "duration": 0.10623225000000502
                },
                {
                    "name": "A#2",
                    "midi": 46,
                    "time": 124.50419700000167,
                    "velocity": 0.33070866141732286,
                    "duration": 0.10623225000000502
                },
                {
                    "name": "D#3",
                    "midi": 51,
                    "time": 124.61042925000167,
                    "velocity": 0.2204724409448819,
                    "duration": 0.10623225000000502
                },
                {
                    "name": "G3",
                    "midi": 55,
                    "time": 124.71666150000168,
                    "velocity": 0.2204724409448819,
                    "duration": 0.10623225000000502
                },
                {
                    "name": "A#3",
                    "midi": 58,
                    "time": 124.82289375000168,
                    "velocity": 0.2204724409448819,
                    "duration": 0.10623225000000502
                },
                {
                    "name": "A#2",
                    "midi": 46,
                    "time": 124.92912600000169,
                    "velocity": 0.3228346456692913,
                    "duration": 0.10623225000000502
                },
                {
                    "name": "D#3",
                    "midi": 51,
                    "time": 125.03535825000169,
                    "velocity": 0.2283464566929134,
                    "duration": 0.10623225000000502
                },
                {
                    "name": "F3",
                    "midi": 53,
                    "time": 125.1415905000017,
                    "velocity": 0.2283464566929134,
                    "duration": 0.10623225000000502
                },
                {
                    "name": "A3",
                    "midi": 57,
                    "time": 125.2478227500017,
                    "velocity": 0.2283464566929134,
                    "duration": 0.10623225000000502
                },
                {
                    "name": "A#2",
                    "midi": 46,
                    "time": 125.35405500000171,
                    "velocity": 0.3228346456692913,
                    "duration": 0.10623225000000502
                },
                {
                    "name": "D#3",
                    "midi": 51,
                    "time": 125.46028725000171,
                    "velocity": 0.2440944881889764,
                    "duration": 0.10623225000000502
                },
                {
                    "name": "F3",
                    "midi": 53,
                    "time": 125.56651950000172,
                    "velocity": 0.2440944881889764,
                    "duration": 0.10623225000000502
                },
                {
                    "name": "A3",
                    "midi": 57,
                    "time": 125.67275175000172,
                    "velocity": 0.2440944881889764,
                    "duration": 0.10623225000000502
                },
                {
                    "name": "A#2",
                    "midi": 46,
                    "time": 125.77898400000173,
                    "velocity": 0.3464566929133858,
                    "duration": 0.10623225000000502
                },
                {
                    "name": "D3",
                    "midi": 50,
                    "time": 125.88521625000173,
                    "velocity": 0.2440944881889764,
                    "duration": 0.10623225000000502
                },
                {
                    "name": "F3",
                    "midi": 53,
                    "time": 125.99144850000174,
                    "velocity": 0.2440944881889764,
                    "duration": 0.10623225000000502
                },
                {
                    "name": "A#3",
                    "midi": 58,
                    "time": 126.09768075000174,
                    "velocity": 0.2440944881889764,
                    "duration": 0.10623225000000502
                },
                {
                    "name": "A#2",
                    "midi": 46,
                    "time": 126.20391300000175,
                    "velocity": 0.3464566929133858,
                    "duration": 0.10623225000000502
                },
                {
                    "name": "D3",
                    "midi": 50,
                    "time": 126.31014525000175,
                    "velocity": 0.25196850393700787,
                    "duration": 0.10623225000000502
                },
                {
                    "name": "F3",
                    "midi": 53,
                    "time": 126.41637750000176,
                    "velocity": 0.25196850393700787,
                    "duration": 0.10623225000000502
                },
                {
                    "name": "A#3",
                    "midi": 58,
                    "time": 126.52260975000176,
                    "velocity": 0.25196850393700787,
                    "duration": 0.10623225000000502
                },
                {
                    "name": "A#2",
                    "midi": 46,
                    "time": 126.62884200000177,
                    "velocity": 0.3464566929133858,
                    "duration": 0.10623225000000502
                },
                {
                    "name": "D3",
                    "midi": 50,
                    "time": 126.73507425000177,
                    "velocity": 0.25196850393700787,
                    "duration": 0.10623225000000502
                },
                {
                    "name": "F3",
                    "midi": 53,
                    "time": 126.84130650000178,
                    "velocity": 0.25196850393700787,
                    "duration": 0.10623225000000502
                },
                {
                    "name": "G#3",
                    "midi": 56,
                    "time": 126.94753875000178,
                    "velocity": 0.25196850393700787,
                    "duration": 0.10623225000000502
                },
                {
                    "name": "A#2",
                    "midi": 46,
                    "time": 127.05377100000179,
                    "velocity": 0.3464566929133858,
                    "duration": 0.10623225000000502
                },
                {
                    "name": "D3",
                    "midi": 50,
                    "time": 127.1600032500018,
                    "velocity": 0.25196850393700787,
                    "duration": 0.10623225000000502
                },
                {
                    "name": "F3",
                    "midi": 53,
                    "time": 127.2662355000018,
                    "velocity": 0.25196850393700787,
                    "duration": 0.10623225000000502
                },
                {
                    "name": "G#3",
                    "midi": 56,
                    "time": 127.3724677500018,
                    "velocity": 0.25196850393700787,
                    "duration": 0.10623225000000502
                },
                {
                    "name": "A#2",
                    "midi": 46,
                    "time": 127.47870000000181,
                    "velocity": 0.3464566929133858,
                    "duration": 0.10623225000000502
                },
                {
                    "name": "D#3",
                    "midi": 51,
                    "time": 127.58493225000181,
                    "velocity": 0.25196850393700787,
                    "duration": 0.10623225000000502
                },
                {
                    "name": "G3",
                    "midi": 55,
                    "time": 127.69116450000182,
                    "velocity": 0.25196850393700787,
                    "duration": 0.10623225000000502
                },
                {
                    "name": "D#3",
                    "midi": 51,
                    "time": 127.79739675000182,
                    "velocity": 0.25196850393700787,
                    "duration": 0.10623225000000502
                },
                {
                    "name": "A#2",
                    "midi": 46,
                    "time": 127.90362900000183,
                    "velocity": 0.3464566929133858,
                    "duration": 0.10623224999999081
                },
                {
                    "name": "D#3",
                    "midi": 51,
                    "time": 128.00986125000182,
                    "velocity": 0.28346456692913385,
                    "duration": 0.10623225000000502
                },
                {
                    "name": "G3",
                    "midi": 55,
                    "time": 128.11609350000182,
                    "velocity": 0.28346456692913385,
                    "duration": 0.10623225000000502
                },
                {
                    "name": "D#3",
                    "midi": 51,
                    "time": 128.22232575000183,
                    "velocity": 0.28346456692913385,
                    "duration": 0.10623225000000502
                },
                {
                    "name": "A#2",
                    "midi": 46,
                    "time": 128.32855800000183,
                    "velocity": 0.3779527559055118,
                    "duration": 0.10623225000000502
                },
                {
                    "name": "C3",
                    "midi": 48,
                    "time": 128.43479025000184,
                    "velocity": 0.29133858267716534,
                    "duration": 0.10623225000000502
                },
                {
                    "name": "D#3",
                    "midi": 51,
                    "time": 128.54102250000184,
                    "velocity": 0.2992125984251969,
                    "duration": 0.10623225000000502
                },
                {
                    "name": "F3",
                    "midi": 53,
                    "time": 128.64725475000185,
                    "velocity": 0.31496062992125984,
                    "duration": 0.10623225000000502
                },
                {
                    "name": "A#2",
                    "midi": 46,
                    "time": 128.75348700000185,
                    "velocity": 0.3937007874015748,
                    "duration": 0.10623225000000502
                },
                {
                    "name": "C3",
                    "midi": 48,
                    "time": 128.85971925000186,
                    "velocity": 0.31496062992125984,
                    "duration": 0.10623225000000502
                },
                {
                    "name": "D#3",
                    "midi": 51,
                    "time": 128.96595150000186,
                    "velocity": 0.30708661417322836,
                    "duration": 0.10623225000000502
                },
                {
                    "name": "F3",
                    "midi": 53,
                    "time": 129.07218375000187,
                    "velocity": 0.33858267716535434,
                    "duration": 0.10623225000000502
                },
                {
                    "name": "A#2",
                    "midi": 46,
                    "time": 129.17841600000187,
                    "velocity": 0.47244094488188976,
                    "duration": 0.10623225000000502
                },
                {
                    "name": "A#2",
                    "midi": 46,
                    "time": 129.60334500000187,
                    "velocity": 0.41732283464566927,
                    "duration": 0.10623225000000502
                },
                {
                    "name": "A2",
                    "midi": 45,
                    "time": 129.70957725000187,
                    "velocity": 0.36220472440944884,
                    "duration": 0.10623225000000502
                },
                {
                    "name": "A#2",
                    "midi": 46,
                    "time": 129.81580950000188,
                    "velocity": 0.41732283464566927,
                    "duration": 0.10623225000000502
                },
                {
                    "name": "G2",
                    "midi": 43,
                    "time": 129.92204175000188,
                    "velocity": 0.36220472440944884,
                    "duration": 0.10623225000000502
                },
                {
                    "name": "F2",
                    "midi": 41,
                    "time": 130.0282740000019,
                    "velocity": 0.47244094488188976,
                    "duration": 0.10623225000000502
                },
                {
                    "name": "D#3",
                    "midi": 51,
                    "time": 130.45320300000188,
                    "velocity": 0.41732283464566927,
                    "duration": 0.10623225000000502
                },
                {
                    "name": "D3",
                    "midi": 50,
                    "time": 130.55943525000188,
                    "velocity": 0.36220472440944884,
                    "duration": 0.10623225000000502
                },
                {
                    "name": "D#3",
                    "midi": 51,
                    "time": 130.6656675000019,
                    "velocity": 0.41732283464566927,
                    "duration": 0.10623225000000502
                },
                {
                    "name": "C3",
                    "midi": 48,
                    "time": 130.7718997500019,
                    "velocity": 0.36220472440944884,
                    "duration": 0.10623225000000502
                },
                {
                    "name": "A#2",
                    "midi": 46,
                    "time": 130.8781320000019,
                    "velocity": 0.47244094488188976,
                    "duration": 0.10623225000000502
                },
                {
                    "name": "A#3",
                    "midi": 58,
                    "time": 131.3030610000019,
                    "velocity": 0.41732283464566927,
                    "duration": 0.10623225000000502
                },
                {
                    "name": "A3",
                    "midi": 57,
                    "time": 131.4092932500019,
                    "velocity": 0.36220472440944884,
                    "duration": 0.10623225000000502
                },
                {
                    "name": "A#3",
                    "midi": 58,
                    "time": 131.5155255000019,
                    "velocity": 0.41732283464566927,
                    "duration": 0.10623225000000502
                },
                {
                    "name": "G3",
                    "midi": 55,
                    "time": 131.6217577500019,
                    "velocity": 0.36220472440944884,
                    "duration": 0.10623225000000502
                },
                {
                    "name": "F3",
                    "midi": 53,
                    "time": 131.7279900000019,
                    "velocity": 0.47244094488188976,
                    "duration": 0.10623225000000502
                },
                {
                    "name": "D#4",
                    "midi": 63,
                    "time": 132.1529190000019,
                    "velocity": 0.47244094488188976,
                    "duration": 0.10623225000000502
                },
                {
                    "name": "D4",
                    "midi": 62,
                    "time": 132.2591512500019,
                    "velocity": 0.4094488188976378,
                    "duration": 0.10623225000000502
                },
                {
                    "name": "D#4",
                    "midi": 63,
                    "time": 132.3653835000019,
                    "velocity": 0.47244094488188976,
                    "duration": 0.10623225000000502
                },
                {
                    "name": "C4",
                    "midi": 60,
                    "time": 132.47161575000192,
                    "velocity": 0.4094488188976378,
                    "duration": 0.10623225000000502
                },
                {
                    "name": "A#3",
                    "midi": 58,
                    "time": 132.57784800000192,
                    "velocity": 0.5433070866141733,
                    "duration": 0.10623225000000502
                },
                {
                    "name": "C4",
                    "midi": 60,
                    "time": 132.79031250000193,
                    "velocity": 0.41732283464566927,
                    "duration": 0.10623225000000502
                },
                {
                    "name": "D4",
                    "midi": 62,
                    "time": 132.89654475000194,
                    "velocity": 0.3779527559055118,
                    "duration": 0.10623225000000502
                },
                {
                    "name": "D#4",
                    "midi": 63,
                    "time": 133.00277700000194,
                    "velocity": 0.4251968503937008,
                    "duration": 0.10623225000000502
                },
                {
                    "name": "F4",
                    "midi": 65,
                    "time": 133.10900925000195,
                    "velocity": 0.3779527559055118,
                    "duration": 0.10623225000000502
                },
                {
                    "name": "G4",
                    "midi": 67,
                    "time": 133.21524150000195,
                    "velocity": 0.3779527559055118,
                    "duration": 0.10623225000000502
                },
                {
                    "name": "A4",
                    "midi": 69,
                    "time": 133.32147375000196,
                    "velocity": 0.3858267716535433,
                    "duration": 0.10623225000000502
                },
                {
                    "name": "A#4",
                    "midi": 70,
                    "time": 133.42770600000196,
                    "velocity": 0.4409448818897638,
                    "duration": 0.10623225000000502
                },
                {
                    "name": "A4",
                    "midi": 69,
                    "time": 133.53393825000197,
                    "velocity": 0.3937007874015748,
                    "duration": 0.10623225000000502
                },
                {
                    "name": "A#4",
                    "midi": 70,
                    "time": 133.64017050000197,
                    "velocity": 0.3937007874015748,
                    "duration": 0.10623225000000502
                },
                {
                    "name": "C5",
                    "midi": 72,
                    "time": 133.74640275000198,
                    "velocity": 0.4015748031496063,
                    "duration": 0.10623225000000502
                },
                {
                    "name": "D5",
                    "midi": 74,
                    "time": 133.85263500000198,
                    "velocity": 0.4566929133858268,
                    "duration": 0.10623225000000502
                },
                {
                    "name": "C5",
                    "midi": 72,
                    "time": 133.958867250002,
                    "velocity": 0.4094488188976378,
                    "duration": 0.10623225000000502
                },
                {
                    "name": "D5",
                    "midi": 74,
                    "time": 134.065099500002,
                    "velocity": 0.4094488188976378,
                    "duration": 0.10623225000000502
                },
                {
                    "name": "E5",
                    "midi": 76,
                    "time": 134.171331750002,
                    "velocity": 0.41732283464566927,
                    "duration": 0.10623225000000502
                },
                {
                    "name": "F5",
                    "midi": 77,
                    "time": 134.277564000002,
                    "velocity": 0.5748031496062992,
                    "duration": 0.10623225000000502
                },
                {
                    "name": "F3",
                    "midi": 53,
                    "time": 134.702493000002,
                    "velocity": 0.47244094488188976,
                    "duration": 0.10623225000000502
                },
                {
                    "name": "A#2",
                    "midi": 46,
                    "time": 135.552351000002,
                    "velocity": 0.5118110236220472,
                    "duration": 0.10623225000000502
                },
                {
                    "name": "A2",
                    "midi": 45,
                    "time": 135.658583250002,
                    "velocity": 0.44881889763779526,
                    "duration": 0.10623225000000502
                },
                {
                    "name": "A#2",
                    "midi": 46,
                    "time": 135.76481550000202,
                    "velocity": 0.4881889763779528,
                    "duration": 0.10623225000000502
                },
                {
                    "name": "F2",
                    "midi": 41,
                    "time": 135.87104775000202,
                    "velocity": 0.4330708661417323,
                    "duration": 0.10623225000000502
                },
                {
                    "name": "D3",
                    "midi": 50,
                    "time": 135.97728000000203,
                    "velocity": 0.5118110236220472,
                    "duration": 0.10623225000000502
                },
                {
                    "name": "C#3",
                    "midi": 49,
                    "time": 136.08351225000203,
                    "velocity": 0.4566929133858268,
                    "duration": 0.10623225000000502
                },
                {
                    "name": "D3",
                    "midi": 50,
                    "time": 136.18974450000204,
                    "velocity": 0.49606299212598426,
                    "duration": 0.10623225000000502
                },
                {
                    "name": "A#2",
                    "midi": 46,
                    "time": 136.29597675000204,
                    "velocity": 0.44881889763779526,
                    "duration": 0.10623225000000502
                },
                {
                    "name": "F3",
                    "midi": 53,
                    "time": 136.40220900000205,
                    "velocity": 0.5118110236220472,
                    "duration": 0.10623225000000502
                },
                {
                    "name": "E3",
                    "midi": 52,
                    "time": 136.50844125000205,
                    "velocity": 0.4566929133858268,
                    "duration": 0.10623225000000502
                },
                {
                    "name": "F3",
                    "midi": 53,
                    "time": 136.61467350000206,
                    "velocity": 0.49606299212598426,
                    "duration": 0.10623225000000502
                },
                {
                    "name": "D3",
                    "midi": 50,
                    "time": 136.72090575000206,
                    "velocity": 0.44881889763779526,
                    "duration": 0.10623225000000502
                },
                {
                    "name": "A#3",
                    "midi": 58,
                    "time": 136.82713800000207,
                    "velocity": 0.5118110236220472,
                    "duration": 0.10623225000000502
                },
                {
                    "name": "A3",
                    "midi": 57,
                    "time": 136.93337025000207,
                    "velocity": 0.4566929133858268,
                    "duration": 0.10623225000000502
                },
                {
                    "name": "A#3",
                    "midi": 58,
                    "time": 137.03960250000208,
                    "velocity": 0.49606299212598426,
                    "duration": 0.10623225000000502
                },
                {
                    "name": "F3",
                    "midi": 53,
                    "time": 137.14583475000208,
                    "velocity": 0.44881889763779526,
                    "duration": 0.10623225000000502
                },
                {
                    "name": "D4",
                    "midi": 62,
                    "time": 137.25206700000209,
                    "velocity": 0.49606299212598426,
                    "duration": 0.10623225000000502
                },
                {
                    "name": "C#4",
                    "midi": 61,
                    "time": 137.3582992500021,
                    "velocity": 0.4566929133858268,
                    "duration": 0.10623225000000502
                },
                {
                    "name": "D4",
                    "midi": 62,
                    "time": 137.4645315000021,
                    "velocity": 0.4881889763779528,
                    "duration": 0.10623225000000502
                },
                {
                    "name": "A#3",
                    "midi": 58,
                    "time": 137.5707637500021,
                    "velocity": 0.44881889763779526,
                    "duration": 0.10623225000000502
                },
                {
                    "name": "F4",
                    "midi": 65,
                    "time": 137.6769960000021,
                    "velocity": 0.5669291338582677,
                    "duration": 0.7436257500000067
                },
                {
                    "name": "D#4",
                    "midi": 63,
                    "time": 138.4206217500021,
                    "velocity": 0.49606299212598426,
                    "duration": 0.10623225000000502
                },
                {
                    "name": "D4",
                    "midi": 62,
                    "time": 138.52685400000212,
                    "velocity": 0.5590551181102362,
                    "duration": 0.31869674999998665
                },
                {
                    "name": "C4",
                    "midi": 60,
                    "time": 138.8455507500021,
                    "velocity": 0.49606299212598426,
                    "duration": 0.10623225000000502
                },
                {
                    "name": "A#3",
                    "midi": 58,
                    "time": 138.9517830000021,
                    "velocity": 0.5669291338582677,
                    "duration": 0.31869674999998665
                },
                {
                    "name": "G#3",
                    "midi": 56,
                    "time": 139.2704797500021,
                    "velocity": 0.49606299212598426,
                    "duration": 0.10623225000000502
                },
                {
                    "name": "G3",
                    "midi": 55,
                    "time": 139.3767120000021,
                    "velocity": 0.5669291338582677,
                    "duration": 0.8498580000000118
                },
                {
                    "name": "G#3",
                    "midi": 56,
                    "time": 140.2265700000021,
                    "velocity": 0.3779527559055118,
                    "duration": 0.4249289999999917
                },
                {
                    "name": "F#3",
                    "midi": 54,
                    "time": 140.6514990000021,
                    "velocity": 0.33070866141732286,
                    "duration": 0.4249289999999917
                },
                {
                    "name": "G3",
                    "midi": 55,
                    "time": 141.0764280000021,
                    "velocity": 0.4015748031496063,
                    "duration": 0.4249289999999917
                },
                {
                    "name": "E3",
                    "midi": 52,
                    "time": 141.5013570000021,
                    "velocity": 0.3464566929133858,
                    "duration": 0.4249289999999917
                },
                {
                    "name": "F3",
                    "midi": 53,
                    "time": 141.92628600000208,
                    "velocity": 0.4094488188976378,
                    "duration": 0.4249289999999917
                },
                {
                    "name": "D3",
                    "midi": 50,
                    "time": 142.35121500000207,
                    "velocity": 0.2677165354330709,
                    "duration": 0.4249289999999917
                },
                {
                    "name": "C2",
                    "midi": 36,
                    "time": 142.77614400000206,
                    "velocity": 0.4015748031496063,
                    "duration": 0.21246450000001005
                },
                {
                    "name": "C3",
                    "midi": 48,
                    "time": 142.77614400000206,
                    "velocity": 0.4015748031496063,
                    "duration": 0.21246450000001005
                },
                {
                    "name": "C4",
                    "midi": 60,
                    "time": 142.98860850000207,
                    "velocity": 0.33070866141732286,
                    "duration": 0.121281818749992
                },
                {
                    "name": "C4",
                    "midi": 60,
                    "time": 143.20107300000205,
                    "velocity": 0.33070866141732286,
                    "duration": 0.121281818749992
                },
                {
                    "name": "C4",
                    "midi": 60,
                    "time": 143.41353750000204,
                    "velocity": 0.33070866141732286,
                    "duration": 0.121281818749992
                },
                {
                    "name": "C4",
                    "midi": 60,
                    "time": 143.62600200000202,
                    "velocity": 0.4015748031496063,
                    "duration": 0.121281818749992
                },
                {
                    "name": "C4",
                    "midi": 60,
                    "time": 143.838466500002,
                    "velocity": 0.33858267716535434,
                    "duration": 0.121281818749992
                },
                {
                    "name": "C4",
                    "midi": 60,
                    "time": 144.05093100000198,
                    "velocity": 0.33858267716535434,
                    "duration": 0.121281818749992
                },
                {
                    "name": "C4",
                    "midi": 60,
                    "time": 144.26339550000196,
                    "velocity": 0.33858267716535434,
                    "duration": 0.121281818749992
                },
                {
                    "name": "C4",
                    "midi": 60,
                    "time": 144.47586000000194,
                    "velocity": 0.4015748031496063,
                    "duration": 0.121281818749992
                },
                {
                    "name": "C4",
                    "midi": 60,
                    "time": 144.68832450000193,
                    "velocity": 0.33070866141732286,
                    "duration": 0.121281818749992
                },
                {
                    "name": "C4",
                    "midi": 60,
                    "time": 144.9007890000019,
                    "velocity": 0.33070866141732286,
                    "duration": 0.121281818749992
                },
                {
                    "name": "C4",
                    "midi": 60,
                    "time": 145.1132535000019,
                    "velocity": 0.33070866141732286,
                    "duration": 0.121281818749992
                },
                {
                    "name": "C4",
                    "midi": 60,
                    "time": 145.32571800000187,
                    "velocity": 0.4015748031496063,
                    "duration": 0.121281818749992
                },
                {
                    "name": "C4",
                    "midi": 60,
                    "time": 145.53818250000185,
                    "velocity": 0.33858267716535434,
                    "duration": 0.121281818749992
                },
                {
                    "name": "C4",
                    "midi": 60,
                    "time": 145.75064700000183,
                    "velocity": 0.33858267716535434,
                    "duration": 0.121281818749992
                },
                {
                    "name": "C4",
                    "midi": 60,
                    "time": 145.96311150000182,
                    "velocity": 0.33858267716535434,
                    "duration": 0.1274787000000117
                },
                {
                    "name": "C2",
                    "midi": 36,
                    "time": 146.17557600000183,
                    "velocity": 0.4015748031496063,
                    "duration": 0.21246450000001005
                },
                {
                    "name": "C3",
                    "midi": 48,
                    "time": 146.17557600000183,
                    "velocity": 0.4015748031496063,
                    "duration": 0.21246450000001005
                },
                {
                    "name": "C4",
                    "midi": 60,
                    "time": 146.38804050000184,
                    "velocity": 0.33070866141732286,
                    "duration": 0.121281818749992
                },
                {
                    "name": "C4",
                    "midi": 60,
                    "time": 146.60050500000182,
                    "velocity": 0.33070866141732286,
                    "duration": 0.121281818749992
                },
                {
                    "name": "C4",
                    "midi": 60,
                    "time": 146.8129695000018,
                    "velocity": 0.33070866141732286,
                    "duration": 0.121281818749992
                },
                {
                    "name": "C4",
                    "midi": 60,
                    "time": 147.02543400000178,
                    "velocity": 0.4015748031496063,
                    "duration": 0.121281818749992
                },
                {
                    "name": "C4",
                    "midi": 60,
                    "time": 147.23789850000176,
                    "velocity": 0.33858267716535434,
                    "duration": 0.121281818749992
                },
                {
                    "name": "C4",
                    "midi": 60,
                    "time": 147.45036300000174,
                    "velocity": 0.33858267716535434,
                    "duration": 0.121281818749992
                },
                {
                    "name": "C4",
                    "midi": 60,
                    "time": 147.66282750000173,
                    "velocity": 0.33858267716535434,
                    "duration": 0.121281818749992
                },
                {
                    "name": "C4",
                    "midi": 60,
                    "time": 147.8752920000017,
                    "velocity": 0.4015748031496063,
                    "duration": 0.121281818749992
                },
                {
                    "name": "C4",
                    "midi": 60,
                    "time": 148.0877565000017,
                    "velocity": 0.33070866141732286,
                    "duration": 0.121281818749992
                },
                {
                    "name": "C4",
                    "midi": 60,
                    "time": 148.30022100000167,
                    "velocity": 0.33070866141732286,
                    "duration": 0.121281818749992
                },
                {
                    "name": "C4",
                    "midi": 60,
                    "time": 148.51268550000165,
                    "velocity": 0.33070866141732286,
                    "duration": 0.121281818749992
                },
                {
                    "name": "C4",
                    "midi": 60,
                    "time": 148.72515000000163,
                    "velocity": 0.4015748031496063,
                    "duration": 0.121281818749992
                },
                {
                    "name": "C4",
                    "midi": 60,
                    "time": 148.93761450000162,
                    "velocity": 0.33858267716535434,
                    "duration": 0.121281818749992
                },
                {
                    "name": "C4",
                    "midi": 60,
                    "time": 149.1500790000016,
                    "velocity": 0.33858267716535434,
                    "duration": 0.121281818749992
                },
                {
                    "name": "C4",
                    "midi": 60,
                    "time": 149.36254350000158,
                    "velocity": 0.33858267716535434,
                    "duration": 0.1274787000000117
                },
                {
                    "name": "C3",
                    "midi": 48,
                    "time": 149.5750080000016,
                    "velocity": 0.4015748031496063,
                    "duration": 0.2018412749999925
                },
                {
                    "name": "C4",
                    "midi": 60,
                    "time": 149.78747250000157,
                    "velocity": 0.33858267716535434,
                    "duration": 0.121281818749992
                },
                {
                    "name": "C4",
                    "midi": 60,
                    "time": 149.99993700000155,
                    "velocity": 0.33858267716535434,
                    "duration": 0.121281818749992
                },
                {
                    "name": "C4",
                    "midi": 60,
                    "time": 150.21240150000153,
                    "velocity": 0.33858267716535434,
                    "duration": 0.1274787000000117
                },
                {
                    "name": "C3",
                    "midi": 48,
                    "time": 150.42486600000154,
                    "velocity": 0.4015748031496063,
                    "duration": 0.2018412749999925
                },
                {
                    "name": "C4",
                    "midi": 60,
                    "time": 150.63733050000153,
                    "velocity": 0.33858267716535434,
                    "duration": 0.121281818749992
                },
                {
                    "name": "C4",
                    "midi": 60,
                    "time": 150.8497950000015,
                    "velocity": 0.33858267716535434,
                    "duration": 0.121281818749992
                },
                {
                    "name": "C4",
                    "midi": 60,
                    "time": 151.0622595000015,
                    "velocity": 0.33858267716535434,
                    "duration": 0.1274787000000117
                },
                {
                    "name": "C3",
                    "midi": 48,
                    "time": 151.2747240000015,
                    "velocity": 0.4015748031496063,
                    "duration": 0.4249289999999917
                },
                {
                    "name": "F3",
                    "midi": 53,
                    "time": 153.0806722500015,
                    "velocity": 0.2440944881889764,
                    "duration": 0.11685547499999416
                },
                {
                    "name": "G3",
                    "midi": 55,
                    "time": 153.1869045000015,
                    "velocity": 0.28346456692913385,
                    "duration": 0.11685547499996574
                },
                {
                    "name": "A3",
                    "midi": 57,
                    "time": 153.29313675000148,
                    "velocity": 0.2440944881889764,
                    "duration": 0.11685547499996574
                },
                {
                    "name": "A#3",
                    "midi": 58,
                    "time": 153.39936900000146,
                    "velocity": 0.28346456692913385,
                    "duration": 0.11685547499996574
                },
                {
                    "name": "C4",
                    "midi": 60,
                    "time": 153.50560125000143,
                    "velocity": 0.2440944881889764,
                    "duration": 0.11685547499996574
                },
                {
                    "name": "D4",
                    "midi": 62,
                    "time": 153.6118335000014,
                    "velocity": 0.28346456692913385,
                    "duration": 0.11685547499996574
                },
                {
                    "name": "E4",
                    "midi": 64,
                    "time": 153.7180657500014,
                    "velocity": 0.2283464566929134,
                    "duration": 0.11685547499996574
                },
                {
                    "name": "F4",
                    "midi": 65,
                    "time": 153.82429800000136,
                    "velocity": 0.28346456692913385,
                    "duration": 0.11685547499996574
                },
                {
                    "name": "E4",
                    "midi": 64,
                    "time": 153.93053025000134,
                    "velocity": 0.2283464566929134,
                    "duration": 0.11685547499996574
                },
                {
                    "name": "F4",
                    "midi": 65,
                    "time": 154.03676250000132,
                    "velocity": 0.28346456692913385,
                    "duration": 0.11685547499996574
                },
                {
                    "name": "E4",
                    "midi": 64,
                    "time": 154.1429947500013,
                    "velocity": 0.2283464566929134,
                    "duration": 0.11685547499996574
                },
                {
                    "name": "F4",
                    "midi": 65,
                    "time": 154.24922700000127,
                    "velocity": 0.28346456692913385,
                    "duration": 0.11685547499996574
                },
                {
                    "name": "E4",
                    "midi": 64,
                    "time": 154.35545925000125,
                    "velocity": 0.2125984251968504,
                    "duration": 0.11685547499996574
                },
                {
                    "name": "F4",
                    "midi": 65,
                    "time": 154.46169150000122,
                    "velocity": 0.2677165354330709,
                    "duration": 0.11685547499996574
                },
                {
                    "name": "E4",
                    "midi": 64,
                    "time": 154.5679237500012,
                    "velocity": 0.2047244094488189,
                    "duration": 0.1062322499999766
                },
                {
                    "name": "F4",
                    "midi": 65,
                    "time": 154.67415600000118,
                    "velocity": 0.23622047244094488,
                    "duration": 0.11685547499999416
                },
                {
                    "name": "E4",
                    "midi": 64,
                    "time": 154.78038825000118,
                    "velocity": 0.1968503937007874,
                    "duration": 0.11685547499996574
                },
                {
                    "name": "F4",
                    "midi": 65,
                    "time": 154.88662050000116,
                    "velocity": 0.23622047244094488,
                    "duration": 0.11685547499996574
                },
                {
                    "name": "E4",
                    "midi": 64,
                    "time": 154.99285275000113,
                    "velocity": 0.1968503937007874,
                    "duration": 0.11685547499996574
                },
                {
                    "name": "F4",
                    "midi": 65,
                    "time": 155.0990850000011,
                    "velocity": 0.23622047244094488,
                    "duration": 0.11685547499996574
                },
                {
                    "name": "E4",
                    "midi": 64,
                    "time": 155.2053172500011,
                    "velocity": 0.1968503937007874,
                    "duration": 0.11685547499996574
                },
                {
                    "name": "F4",
                    "midi": 65,
                    "time": 155.31154950000106,
                    "velocity": 0.23622047244094488,
                    "duration": 0.11685547499996574
                },
                {
                    "name": "E4",
                    "midi": 64,
                    "time": 155.41778175000104,
                    "velocity": 0.1968503937007874,
                    "duration": 0.11685547499996574
                },
                {
                    "name": "F4",
                    "midi": 65,
                    "time": 155.52401400000102,
                    "velocity": 0.23622047244094488,
                    "duration": 0.11685547499996574
                },
                {
                    "name": "E4",
                    "midi": 64,
                    "time": 155.630246250001,
                    "velocity": 0.1968503937007874,
                    "duration": 0.11685547499996574
                },
                {
                    "name": "F4",
                    "midi": 65,
                    "time": 155.73647850000097,
                    "velocity": 0.23622047244094488,
                    "duration": 0.11685547499996574
                },
                {
                    "name": "E4",
                    "midi": 64,
                    "time": 155.84271075000095,
                    "velocity": 0.1968503937007874,
                    "duration": 0.11685547499996574
                },
                {
                    "name": "F4",
                    "midi": 65,
                    "time": 155.94894300000092,
                    "velocity": 0.23622047244094488,
                    "duration": 0.11685547499996574
                },
                {
                    "name": "E4",
                    "midi": 64,
                    "time": 156.0551752500009,
                    "velocity": 0.1968503937007874,
                    "duration": 0.11685547499996574
                },
                {
                    "name": "F4",
                    "midi": 65,
                    "time": 156.16140750000088,
                    "velocity": 0.23622047244094488,
                    "duration": 0.11685547499996574
                },
                {
                    "name": "E4",
                    "midi": 64,
                    "time": 156.26763975000085,
                    "velocity": 0.1968503937007874,
                    "duration": 0.1062322499999766
                },
                {
                    "name": "F4",
                    "midi": 65,
                    "time": 156.37387200000083,
                    "velocity": 0.23622047244094488,
                    "duration": 0.10623225000000502
                },
                {
                    "name": "F3",
                    "midi": 53,
                    "time": 156.48010425000084,
                    "velocity": 0.2440944881889764,
                    "duration": 0.11685547499999416
                },
                {
                    "name": "G3",
                    "midi": 55,
                    "time": 156.58633650000084,
                    "velocity": 0.28346456692913385,
                    "duration": 0.11685547499996574
                },
                {
                    "name": "A3",
                    "midi": 57,
                    "time": 156.69256875000082,
                    "velocity": 0.2440944881889764,
                    "duration": 0.11685547499996574
                },
                {
                    "name": "A#3",
                    "midi": 58,
                    "time": 156.7988010000008,
                    "velocity": 0.28346456692913385,
                    "duration": 0.11685547499996574
                },
                {
                    "name": "C4",
                    "midi": 60,
                    "time": 156.90503325000077,
                    "velocity": 0.2440944881889764,
                    "duration": 0.11685547499996574
                },
                {
                    "name": "D4",
                    "midi": 62,
                    "time": 157.01126550000075,
                    "velocity": 0.28346456692913385,
                    "duration": 0.11685547499996574
                },
                {
                    "name": "E4",
                    "midi": 64,
                    "time": 157.11749775000072,
                    "velocity": 0.2283464566929134,
                    "duration": 0.11685547499996574
                },
                {
                    "name": "F4",
                    "midi": 65,
                    "time": 157.2237300000007,
                    "velocity": 0.28346456692913385,
                    "duration": 0.11685547499996574
                },
                {
                    "name": "E4",
                    "midi": 64,
                    "time": 157.32996225000068,
                    "velocity": 0.2283464566929134,
                    "duration": 0.11685547499996574
                },
                {
                    "name": "F4",
                    "midi": 65,
                    "time": 157.43619450000065,
                    "velocity": 0.28346456692913385,
                    "duration": 0.11685547499996574
                },
                {
                    "name": "E4",
                    "midi": 64,
                    "time": 157.54242675000063,
                    "velocity": 0.2283464566929134,
                    "duration": 0.11685547499996574
                },
                {
                    "name": "F4",
                    "midi": 65,
                    "time": 157.6486590000006,
                    "velocity": 0.28346456692913385,
                    "duration": 0.11685547499996574
                },
                {
                    "name": "E4",
                    "midi": 64,
                    "time": 157.75489125000058,
                    "velocity": 0.2125984251968504,
                    "duration": 0.11685547499996574
                },
                {
                    "name": "F4",
                    "midi": 65,
                    "time": 157.86112350000056,
                    "velocity": 0.2677165354330709,
                    "duration": 0.11685547499996574
                },
                {
                    "name": "E4",
                    "midi": 64,
                    "time": 157.96735575000054,
                    "velocity": 0.2047244094488189,
                    "duration": 0.1062322499999766
                },
                {
                    "name": "F4",
                    "midi": 65,
                    "time": 158.0735880000005,
                    "velocity": 0.23622047244094488,
                    "duration": 0.11685547499999416
                },
                {
                    "name": "E4",
                    "midi": 64,
                    "time": 158.17982025000052,
                    "velocity": 0.1968503937007874,
                    "duration": 0.11685547499996574
                },
                {
                    "name": "F4",
                    "midi": 65,
                    "time": 158.2860525000005,
                    "velocity": 0.23622047244094488,
                    "duration": 0.11685547499996574
                },
                {
                    "name": "E4",
                    "midi": 64,
                    "time": 158.39228475000047,
                    "velocity": 0.1968503937007874,
                    "duration": 0.11685547499996574
                },
                {
                    "name": "F4",
                    "midi": 65,
                    "time": 158.49851700000045,
                    "velocity": 0.23622047244094488,
                    "duration": 0.11685547499996574
                },
                {
                    "name": "E4",
                    "midi": 64,
                    "time": 158.60474925000042,
                    "velocity": 0.1968503937007874,
                    "duration": 0.11685547499996574
                },
                {
                    "name": "F4",
                    "midi": 65,
                    "time": 158.7109815000004,
                    "velocity": 0.23622047244094488,
                    "duration": 0.11685547499996574
                },
                {
                    "name": "E4",
                    "midi": 64,
                    "time": 158.81721375000038,
                    "velocity": 0.1968503937007874,
                    "duration": 0.11685547499996574
                },
                {
                    "name": "F4",
                    "midi": 65,
                    "time": 158.92344600000035,
                    "velocity": 0.23622047244094488,
                    "duration": 0.11685547499996574
                },
                {
                    "name": "E4",
                    "midi": 64,
                    "time": 159.02967825000033,
                    "velocity": 0.1968503937007874,
                    "duration": 0.11685547499996574
                },
                {
                    "name": "F4",
                    "midi": 65,
                    "time": 159.1359105000003,
                    "velocity": 0.23622047244094488,
                    "duration": 0.11685547499996574
                },
                {
                    "name": "E4",
                    "midi": 64,
                    "time": 159.24214275000028,
                    "velocity": 0.1968503937007874,
                    "duration": 0.11685547499996574
                },
                {
                    "name": "F4",
                    "midi": 65,
                    "time": 159.34837500000026,
                    "velocity": 0.23622047244094488,
                    "duration": 0.11685547499996574
                },
                {
                    "name": "D#4",
                    "midi": 63,
                    "time": 159.45460725000024,
                    "velocity": 0.1968503937007874,
                    "duration": 0.11685547499996574
                },
                {
                    "name": "F4",
                    "midi": 65,
                    "time": 159.5608395000002,
                    "velocity": 0.23622047244094488,
                    "duration": 0.11685547499996574
                },
                {
                    "name": "D#4",
                    "midi": 63,
                    "time": 159.6670717500002,
                    "velocity": 0.1968503937007874,
                    "duration": 0.1062322499999766
                },
                {
                    "name": "C#4",
                    "midi": 61,
                    "time": 159.77330400000017,
                    "velocity": 0.30708661417322836,
                    "duration": 0.15934837500000754
                },
                {
                    "name": "D4",
                    "midi": 62,
                    "time": 159.87953625000017,
                    "velocity": 0.2677165354330709,
                    "duration": 0.10623225000000502
                },
                {
                    "name": "C#4",
                    "midi": 61,
                    "time": 159.98576850000018,
                    "velocity": 0.30708661417322836,
                    "duration": 0.15934837500000754
                },
                {
                    "name": "D4",
                    "midi": 62,
                    "time": 160.09200075000018,
                    "velocity": 0.2755905511811024,
                    "duration": 0.10623225000000502
                },
                {
                    "name": "B3",
                    "midi": 59,
                    "time": 160.1982330000002,
                    "velocity": 0.3228346456692913,
                    "duration": 0.15934837500000754
                },
                {
                    "name": "C4",
                    "midi": 60,
                    "time": 160.3044652500002,
                    "velocity": 0.2755905511811024,
                    "duration": 0.10623225000000502
                },
                {
                    "name": "B3",
                    "midi": 59,
                    "time": 160.4106975000002,
                    "velocity": 0.33070866141732286,
                    "duration": 0.15934837500000754
                },
                {
                    "name": "C4",
                    "midi": 60,
                    "time": 160.5169297500002,
                    "velocity": 0.28346456692913385,
                    "duration": 0.10623225000000502
                },
                {
                    "name": "G#3",
                    "midi": 56,
                    "time": 160.6231620000002,
                    "velocity": 0.3464566929133858,
                    "duration": 0.15934837500000754
                },
                {
                    "name": "A3",
                    "midi": 57,
                    "time": 160.7293942500002,
                    "velocity": 0.29133858267716534,
                    "duration": 0.10623225000000502
                },
                {
                    "name": "G#3",
                    "midi": 56,
                    "time": 160.83562650000022,
                    "velocity": 0.3543307086614173,
                    "duration": 0.15934837500000754
                },
                {
                    "name": "A3",
                    "midi": 57,
                    "time": 160.94185875000022,
                    "velocity": 0.29133858267716534,
                    "duration": 0.10623225000000502
                },
                {
                    "name": "F3",
                    "midi": 53,
                    "time": 161.04809100000023,
                    "velocity": 0.3464566929133858,
                    "duration": 0.15934837500000754
                },
                {
                    "name": "F#3",
                    "midi": 54,
                    "time": 161.15432325000023,
                    "velocity": 0.2992125984251969,
                    "duration": 0.10623225000000502
                },
                {
                    "name": "F3",
                    "midi": 53,
                    "time": 161.26055550000024,
                    "velocity": 0.3464566929133858,
                    "duration": 0.15934837500000754
                },
                {
                    "name": "F#3",
                    "midi": 54,
                    "time": 161.36678775000024,
                    "velocity": 0.30708661417322836,
                    "duration": 0.10623225000000502
                },
                {
                    "name": "C#3",
                    "midi": 49,
                    "time": 161.47302000000025,
                    "velocity": 0.3543307086614173,
                    "duration": 0.15934837500000754
                },
                {
                    "name": "D3",
                    "midi": 50,
                    "time": 161.57925225000025,
                    "velocity": 0.30708661417322836,
                    "duration": 0.10623225000000502
                },
                {
                    "name": "C#3",
                    "midi": 49,
                    "time": 161.68548450000026,
                    "velocity": 0.36220472440944884,
                    "duration": 0.15934837500000754
                },
                {
                    "name": "D3",
                    "midi": 50,
                    "time": 161.79171675000026,
                    "velocity": 0.31496062992125984,
                    "duration": 0.10623225000000502
                },
                {
                    "name": "B2",
                    "midi": 47,
                    "time": 161.89794900000027,
                    "velocity": 0.3779527559055118,
                    "duration": 0.15934837500000754
                },
                {
                    "name": "C3",
                    "midi": 48,
                    "time": 162.00418125000027,
                    "velocity": 0.3228346456692913,
                    "duration": 0.10623225000000502
                },
                {
                    "name": "B2",
                    "midi": 47,
                    "time": 162.11041350000028,
                    "velocity": 0.3779527559055118,
                    "duration": 0.15934837500000754
                },
                {
                    "name": "C3",
                    "midi": 48,
                    "time": 162.21664575000028,
                    "velocity": 0.3228346456692913,
                    "duration": 0.10623225000000502
                },
                {
                    "name": "G#2",
                    "midi": 44,
                    "time": 162.3228780000003,
                    "velocity": 0.4251968503937008,
                    "duration": 0.15934837500000754
                },
                {
                    "name": "A2",
                    "midi": 45,
                    "time": 162.4291102500003,
                    "velocity": 0.33070866141732286,
                    "duration": 0.10623225000000502
                },
                {
                    "name": "G#2",
                    "midi": 44,
                    "time": 162.5353425000003,
                    "velocity": 0.4094488188976378,
                    "duration": 0.15934837500000754
                },
                {
                    "name": "A2",
                    "midi": 45,
                    "time": 162.6415747500003,
                    "velocity": 0.33858267716535434,
                    "duration": 0.10623225000000502
                },
                {
                    "name": "F2",
                    "midi": 41,
                    "time": 162.7478070000003,
                    "velocity": 0.4330708661417323,
                    "duration": 0.15934837500000754
                },
                {
                    "name": "F#2",
                    "midi": 42,
                    "time": 162.8540392500003,
                    "velocity": 0.3464566929133858,
                    "duration": 0.10623225000000502
                },
                {
                    "name": "F2",
                    "midi": 41,
                    "time": 162.96027150000032,
                    "velocity": 0.4015748031496063,
                    "duration": 0.15934837500000754
                },
                {
                    "name": "F#2",
                    "midi": 42,
                    "time": 163.06650375000032,
                    "velocity": 0.3464566929133858,
                    "duration": 0.10623225000000502
                },
                {
                    "name": "C#2",
                    "midi": 37,
                    "time": 163.17273600000033,
                    "velocity": 0.44881889763779526,
                    "duration": 0.15934837500000754
                },
                {
                    "name": "D2",
                    "midi": 38,
                    "time": 163.27896825000033,
                    "velocity": 0.3464566929133858,
                    "duration": 0.10623225000000502
                },
                {
                    "name": "C#2",
                    "midi": 37,
                    "time": 163.38520050000034,
                    "velocity": 0.4015748031496063,
                    "duration": 0.15934837500000754
                },
                {
                    "name": "D2",
                    "midi": 38,
                    "time": 163.49143275000034,
                    "velocity": 0.3464566929133858,
                    "duration": 0.10623225000000502
                },
                {
                    "name": "C#2",
                    "midi": 37,
                    "time": 163.59766500000035,
                    "velocity": 0.4409448818897638,
                    "duration": 0.15934837500000754
                },
                {
                    "name": "D2",
                    "midi": 38,
                    "time": 163.70389725000035,
                    "velocity": 0.3937007874015748,
                    "duration": 0.10623225000000502
                },
                {
                    "name": "C#2",
                    "midi": 37,
                    "time": 163.81012950000036,
                    "velocity": 0.44881889763779526,
                    "duration": 0.15934837500000754
                },
                {
                    "name": "D2",
                    "midi": 38,
                    "time": 163.91636175000036,
                    "velocity": 0.3464566929133858,
                    "duration": 0.09737956250000934
                },
                {
                    "name": "D2",
                    "midi": 38,
                    "time": 164.02259400000037,
                    "velocity": 0.48031496062992124,
                    "duration": 0.15934837500000754
                },
                {
                    "name": "D#2",
                    "midi": 39,
                    "time": 164.12882625000037,
                    "velocity": 0.4094488188976378,
                    "duration": 0.10623225000000502
                },
                {
                    "name": "D2",
                    "midi": 38,
                    "time": 164.23505850000038,
                    "velocity": 0.4566929133858268,
                    "duration": 0.15934837500000754
                },
                {
                    "name": "D#2",
                    "midi": 39,
                    "time": 164.34129075000038,
                    "velocity": 0.4094488188976378,
                    "duration": 0.10623225000000502
                },
                {
                    "name": "D#2",
                    "midi": 39,
                    "time": 164.4475230000004,
                    "velocity": 0.4566929133858268,
                    "duration": 0.15934837500000754
                },
                {
                    "name": "E2",
                    "midi": 40,
                    "time": 164.5537552500004,
                    "velocity": 0.3464566929133858,
                    "duration": 0.10623225000000502
                },
                {
                    "name": "D#2",
                    "midi": 39,
                    "time": 164.6599875000004,
                    "velocity": 0.4251968503937008,
                    "duration": 0.15934837500000754
                },
                {
                    "name": "E2",
                    "midi": 40,
                    "time": 164.7662197500004,
                    "velocity": 0.3464566929133858,
                    "duration": 0.10623225000000502
                },
                {
                    "name": "E2",
                    "midi": 40,
                    "time": 164.8724520000004,
                    "velocity": 0.4409448818897638,
                    "duration": 0.15934837500000754
                },
                {
                    "name": "F2",
                    "midi": 41,
                    "time": 164.9786842500004,
                    "velocity": 0.3779527559055118,
                    "duration": 0.10623225000000502
                },
                {
                    "name": "E2",
                    "midi": 40,
                    "time": 165.08491650000042,
                    "velocity": 0.4015748031496063,
                    "duration": 0.15934837500000754
                },
                {
                    "name": "F2",
                    "midi": 41,
                    "time": 165.19114875000042,
                    "velocity": 0.3464566929133858,
                    "duration": 0.10623225000000502
                },
                {
                    "name": "E2",
                    "midi": 40,
                    "time": 165.29738100000043,
                    "velocity": 0.4015748031496063,
                    "duration": 0.15934837500000754
                },
                {
                    "name": "F2",
                    "midi": 41,
                    "time": 165.40361325000043,
                    "velocity": 0.3464566929133858,
                    "duration": 0.10623225000000502
                },
                {
                    "name": "E2",
                    "midi": 40,
                    "time": 165.50984550000044,
                    "velocity": 0.4015748031496063,
                    "duration": 0.15934837500000754
                },
                {
                    "name": "F2",
                    "midi": 41,
                    "time": 165.61607775000044,
                    "velocity": 0.3464566929133858,
                    "duration": 0.09737956250000934
                },
                {
                    "name": "A1",
                    "midi": 33,
                    "time": 165.72231000000045,
                    "velocity": 0.4015748031496063,
                    "duration": 0.15934837500000754
                },
                {
                    "name": "A#1",
                    "midi": 34,
                    "time": 165.82854225000045,
                    "velocity": 0.3464566929133858,
                    "duration": 0.10623225000000502
                },
                {
                    "name": "A1",
                    "midi": 33,
                    "time": 165.93477450000046,
                    "velocity": 0.4015748031496063,
                    "duration": 0.15934837500000754
                },
                {
                    "name": "A#1",
                    "midi": 34,
                    "time": 166.04100675000046,
                    "velocity": 0.3464566929133858,
                    "duration": 0.09737956250000934
                },
                {
                    "name": "B1",
                    "midi": 35,
                    "time": 166.14723900000047,
                    "velocity": 0.4015748031496063,
                    "duration": 0.15934837500000754
                },
                {
                    "name": "C2",
                    "midi": 36,
                    "time": 166.25347125000047,
                    "velocity": 0.3464566929133858,
                    "duration": 0.10623225000000502
                },
                {
                    "name": "B1",
                    "midi": 35,
                    "time": 166.35970350000048,
                    "velocity": 0.4015748031496063,
                    "duration": 0.15934837500000754
                },
                {
                    "name": "C2",
                    "midi": 36,
                    "time": 166.46593575000048,
                    "velocity": 0.3464566929133858,
                    "duration": 0.09737956250000934
                },
                {
                    "name": "F1",
                    "midi": 29,
                    "time": 166.5721680000005,
                    "velocity": 0.3779527559055118,
                    "duration": 0.21246450000001005
                },
                {
                    "name": "F3",
                    "midi": 53,
                    "time": 167.4220260000005,
                    "velocity": 0.4251968503937008,
                    "duration": 0.8410053124999877
                },
                {
                    "name": "A3",
                    "midi": 57,
                    "time": 167.4220260000005,
                    "velocity": 0.5039370078740157,
                    "duration": 0.8498579999999833
                },
                {
                    "name": "D3",
                    "midi": 50,
                    "time": 168.27188400000048,
                    "velocity": 0.3228346456692913,
                    "duration": 0.416076312499996
                },
                {
                    "name": "F3",
                    "midi": 53,
                    "time": 168.27188400000048,
                    "velocity": 0.3858267716535433,
                    "duration": 0.4249289999999917
                },
                {
                    "name": "A#2",
                    "midi": 46,
                    "time": 168.69681300000047,
                    "velocity": 0.3228346456692913,
                    "duration": 0.21246450000001005
                },
                {
                    "name": "D3",
                    "midi": 50,
                    "time": 168.69681300000047,
                    "velocity": 0.3858267716535433,
                    "duration": 0.21246450000001005
                },
                {
                    "name": "G3",
                    "midi": 55,
                    "time": 169.1217420000005,
                    "velocity": 0.4251968503937008,
                    "duration": 0.6373935000000017
                },
                {
                    "name": "A#3",
                    "midi": 58,
                    "time": 169.1217420000005,
                    "velocity": 0.5039370078740157,
                    "duration": 0.6373935000000017
                },
                {
                    "name": "F3",
                    "midi": 53,
                    "time": 169.7591355000005,
                    "velocity": 0.3228346456692913,
                    "duration": 0.21246450000001005
                },
                {
                    "name": "A3",
                    "midi": 57,
                    "time": 169.7591355000005,
                    "velocity": 0.3858267716535433,
                    "duration": 0.21246450000001005
                },
                {
                    "name": "E3",
                    "midi": 52,
                    "time": 169.9716000000005,
                    "velocity": 0.3858267716535433,
                    "duration": 0.416076312499996
                },
                {
                    "name": "G3",
                    "midi": 55,
                    "time": 169.9716000000005,
                    "velocity": 0.4566929133858268,
                    "duration": 0.4249289999999917
                },
                {
                    "name": "C3",
                    "midi": 48,
                    "time": 170.3965290000005,
                    "velocity": 0.3464566929133858,
                    "duration": 0.21246450000001005
                },
                {
                    "name": "E3",
                    "midi": 52,
                    "time": 170.3965290000005,
                    "velocity": 0.4094488188976378,
                    "duration": 0.21246450000001005
                },
                {
                    "name": "A3",
                    "midi": 57,
                    "time": 170.82145800000052,
                    "velocity": 0.4251968503937008,
                    "duration": 0.8410053124999877
                },
                {
                    "name": "C4",
                    "midi": 60,
                    "time": 170.82145800000052,
                    "velocity": 0.5039370078740157,
                    "duration": 0.8498579999999833
                },
                {
                    "name": "F3",
                    "midi": 53,
                    "time": 171.6713160000005,
                    "velocity": 0.3228346456692913,
                    "duration": 0.416076312499996
                },
                {
                    "name": "A3",
                    "midi": 57,
                    "time": 171.6713160000005,
                    "velocity": 0.3858267716535433,
                    "duration": 0.4249289999999917
                },
                {
                    "name": "D3",
                    "midi": 50,
                    "time": 172.0962450000005,
                    "velocity": 0.3228346456692913,
                    "duration": 0.21246450000001005
                },
                {
                    "name": "F3",
                    "midi": 53,
                    "time": 172.0962450000005,
                    "velocity": 0.3858267716535433,
                    "duration": 0.21246450000001005
                },
                {
                    "name": "A#3",
                    "midi": 58,
                    "time": 172.5211740000005,
                    "velocity": 0.4251968503937008,
                    "duration": 0.6373935000000017
                },
                {
                    "name": "D4",
                    "midi": 62,
                    "time": 172.5211740000005,
                    "velocity": 0.5039370078740157,
                    "duration": 0.6373935000000017
                },
                {
                    "name": "A3",
                    "midi": 57,
                    "time": 173.15856750000052,
                    "velocity": 0.3228346456692913,
                    "duration": 0.21246450000001005
                },
                {
                    "name": "C4",
                    "midi": 60,
                    "time": 173.15856750000052,
                    "velocity": 0.3858267716535433,
                    "duration": 0.21246450000001005
                },
                {
                    "name": "G3",
                    "midi": 55,
                    "time": 173.37103200000053,
                    "velocity": 0.3858267716535433,
                    "duration": 0.416076312499996
                },
                {
                    "name": "A#3",
                    "midi": 58,
                    "time": 173.37103200000053,
                    "velocity": 0.4566929133858268,
                    "duration": 0.4249289999999917
                },
                {
                    "name": "E3",
                    "midi": 52,
                    "time": 173.79596100000052,
                    "velocity": 0.3464566929133858,
                    "duration": 0.21246450000001005
                },
                {
                    "name": "G3",
                    "midi": 55,
                    "time": 173.79596100000052,
                    "velocity": 0.4094488188976378,
                    "duration": 0.21246450000001005
                },
                {
                    "name": "A#3",
                    "midi": 58,
                    "time": 174.22089000000054,
                    "velocity": 0.4251968503937008,
                    "duration": 0.6373935000000017
                },
                {
                    "name": "G4",
                    "midi": 67,
                    "time": 174.22089000000054,
                    "velocity": 0.5039370078740157,
                    "duration": 0.6373935000000017
                },
                {
                    "name": "A3",
                    "midi": 57,
                    "time": 174.85828350000054,
                    "velocity": 0.3228346456692913,
                    "duration": 0.21246450000001005
                },
                {
                    "name": "F4",
                    "midi": 65,
                    "time": 174.85828350000054,
                    "velocity": 0.3858267716535433,
                    "duration": 0.21246450000001005
                },
                {
                    "name": "G3",
                    "midi": 55,
                    "time": 175.07074800000055,
                    "velocity": 0.4251968503937008,
                    "duration": 0.6373935000000017
                },
                {
                    "name": "E4",
                    "midi": 64,
                    "time": 175.07074800000055,
                    "velocity": 0.5039370078740157,
                    "duration": 0.6373935000000017
                },
                {
                    "name": "F3",
                    "midi": 53,
                    "time": 175.70814150000055,
                    "velocity": 0.3228346456692913,
                    "duration": 0.21246450000001005
                },
                {
                    "name": "D4",
                    "midi": 62,
                    "time": 175.70814150000055,
                    "velocity": 0.3228346456692913,
                    "duration": 0.21246450000001005
                },
                {
                    "name": "E3",
                    "midi": 52,
                    "time": 175.92060600000056,
                    "velocity": 0.3228346456692913,
                    "duration": 0.4249289999999917
                },
                {
                    "name": "C4",
                    "midi": 60,
                    "time": 175.92060600000056,
                    "velocity": 0.3858267716535433,
                    "duration": 0.4249289999999917
                },
                {
                    "name": "D3",
                    "midi": 50,
                    "time": 176.34553500000055,
                    "velocity": 0.2677165354330709,
                    "duration": 0.4249289999999917
                },
                {
                    "name": "F3",
                    "midi": 53,
                    "time": 176.34553500000055,
                    "velocity": 0.3228346456692913,
                    "duration": 0.4249289999999917
                },
                {
                    "name": "C#3",
                    "midi": 49,
                    "time": 176.77046400000054,
                    "velocity": 0.28346456692913385,
                    "duration": 0.4249289999999917
                },
                {
                    "name": "E3",
                    "midi": 52,
                    "time": 176.77046400000054,
                    "velocity": 0.33858267716535434,
                    "duration": 0.4249289999999917
                },
                {
                    "name": "A2",
                    "midi": 45,
                    "time": 177.19539300000054,
                    "velocity": 0.2125984251968504,
                    "duration": 0.4249289999999917
                },
                {
                    "name": "E3",
                    "midi": 52,
                    "time": 177.19539300000054,
                    "velocity": 0.25196850393700787,
                    "duration": 0.4249289999999917
                },
                {
                    "name": "A#2",
                    "midi": 46,
                    "time": 177.62032200000053,
                    "velocity": 0.25984251968503935,
                    "duration": 0.4249289999999917
                },
                {
                    "name": "D3",
                    "midi": 50,
                    "time": 177.62032200000053,
                    "velocity": 0.30708661417322836,
                    "duration": 0.4249289999999917
                },
                {
                    "name": "B2",
                    "midi": 47,
                    "time": 178.04525100000052,
                    "velocity": 0.2440944881889764,
                    "duration": 0.4249289999999917
                },
                {
                    "name": "C3",
                    "midi": 48,
                    "time": 178.4701800000005,
                    "velocity": 0.2992125984251969,
                    "duration": 0.8498580000000118
                },
                {
                    "name": "C2",
                    "midi": 36,
                    "time": 179.32003800000052,
                    "velocity": 0.25196850393700787,
                    "duration": 0.8498580000000118
                },
                {
                    "name": "F1",
                    "midi": 29,
                    "time": 180.16989600000053,
                    "velocity": 0.2755905511811024,
                    "duration": 0.8498580000000118
                },
                {
                    "name": "A3",
                    "midi": 57,
                    "time": 181.01975400000055,
                    "velocity": 0.5196850393700787,
                    "duration": 0.6373935000000017
                },
                {
                    "name": "F3",
                    "midi": 53,
                    "time": 181.01975400000055,
                    "velocity": 0.4330708661417323,
                    "duration": 0.6373935000000017
                },
                {
                    "name": "F3",
                    "midi": 53,
                    "time": 181.65714750000055,
                    "velocity": 0.29133858267716534,
                    "duration": 0.10623225000000502
                },
                {
                    "name": "A3",
                    "midi": 57,
                    "time": 181.65714750000055,
                    "velocity": 0.3464566929133858,
                    "duration": 0.10623225000000502
                },
                {
                    "name": "D3",
                    "midi": 50,
                    "time": 181.86961200000056,
                    "velocity": 0.3543307086614173,
                    "duration": 0.10623225000000502
                },
                {
                    "name": "F3",
                    "midi": 53,
                    "time": 181.86961200000056,
                    "velocity": 0.41732283464566927,
                    "duration": 0.10623225000000502
                },
                {
                    "name": "A#2",
                    "midi": 46,
                    "time": 182.29454100000055,
                    "velocity": 0.30708661417322836,
                    "duration": 0.10623225000000502
                },
                {
                    "name": "D3",
                    "midi": 50,
                    "time": 182.29454100000055,
                    "velocity": 0.3700787401574803,
                    "duration": 0.10623225000000502
                },
                {
                    "name": "A#3",
                    "midi": 58,
                    "time": 182.71947000000054,
                    "velocity": 0.5196850393700787,
                    "duration": 0.6373935000000017
                },
                {
                    "name": "G3",
                    "midi": 55,
                    "time": 182.71947000000054,
                    "velocity": 0.4330708661417323,
                    "duration": 0.6373935000000017
                },
                {
                    "name": "F3",
                    "midi": 53,
                    "time": 183.35686350000054,
                    "velocity": 0.29133858267716534,
                    "duration": 0.10623225000000502
                },
                {
                    "name": "A3",
                    "midi": 57,
                    "time": 183.35686350000054,
                    "velocity": 0.3464566929133858,
                    "duration": 0.10623225000000502
                },
                {
                    "name": "E3",
                    "midi": 52,
                    "time": 183.56932800000055,
                    "velocity": 0.3543307086614173,
                    "duration": 0.10623225000000502
                },
                {
                    "name": "G3",
                    "midi": 55,
                    "time": 183.56932800000055,
                    "velocity": 0.41732283464566927,
                    "duration": 0.10623225000000502
                },
                {
                    "name": "C3",
                    "midi": 48,
                    "time": 183.99425700000054,
                    "velocity": 0.30708661417322836,
                    "duration": 0.10623225000000502
                },
                {
                    "name": "E3",
                    "midi": 52,
                    "time": 183.99425700000054,
                    "velocity": 0.3700787401574803,
                    "duration": 0.10623225000000502
                },
                {
                    "name": "C4",
                    "midi": 60,
                    "time": 184.41918600000054,
                    "velocity": 0.5669291338582677,
                    "duration": 0.6373935000000017
                },
                {
                    "name": "A3",
                    "midi": 57,
                    "time": 184.41918600000054,
                    "velocity": 0.47244094488188976,
                    "duration": 0.6373935000000017
                },
                {
                    "name": "A3",
                    "midi": 57,
                    "time": 185.05657950000054,
                    "velocity": 0.31496062992125984,
                    "duration": 0.10623225000000502
                },
                {
                    "name": "C4",
                    "midi": 60,
                    "time": 185.05657950000054,
                    "velocity": 0.3779527559055118,
                    "duration": 0.10623225000000502
                },
                {
                    "name": "F3",
                    "midi": 53,
                    "time": 185.26904400000055,
                    "velocity": 0.3858267716535433,
                    "duration": 0.10623225000000502
                },
                {
                    "name": "A3",
                    "midi": 57,
                    "time": 185.26904400000055,
                    "velocity": 0.4566929133858268,
                    "duration": 0.10623225000000502
                },
                {
                    "name": "D3",
                    "midi": 50,
                    "time": 185.69397300000054,
                    "velocity": 0.33070866141732286,
                    "duration": 0.10623225000000502
                },
                {
                    "name": "F3",
                    "midi": 53,
                    "time": 185.69397300000054,
                    "velocity": 0.4015748031496063,
                    "duration": 0.10623225000000502
                },
                {
                    "name": "D4",
                    "midi": 62,
                    "time": 186.11890200000053,
                    "velocity": 0.5905511811023622,
                    "duration": 0.6373935000000017
                },
                {
                    "name": "A#3",
                    "midi": 58,
                    "time": 186.11890200000053,
                    "velocity": 0.4881889763779528,
                    "duration": 0.6373935000000017
                },
                {
                    "name": "A3",
                    "midi": 57,
                    "time": 186.75629550000053,
                    "velocity": 0.33070866141732286,
                    "duration": 0.10623225000000502
                },
                {
                    "name": "C4",
                    "midi": 60,
                    "time": 186.75629550000053,
                    "velocity": 0.3937007874015748,
                    "duration": 0.10623225000000502
                },
                {
                    "name": "G3",
                    "midi": 55,
                    "time": 186.96876000000054,
                    "velocity": 0.4015748031496063,
                    "duration": 0.10623225000000502
                },
                {
                    "name": "A#3",
                    "midi": 58,
                    "time": 186.96876000000054,
                    "velocity": 0.47244094488188976,
                    "duration": 0.10623225000000502
                },
                {
                    "name": "E3",
                    "midi": 52,
                    "time": 187.39368900000053,
                    "velocity": 0.3464566929133858,
                    "duration": 0.10623225000000502
                },
                {
                    "name": "G3",
                    "midi": 55,
                    "time": 187.39368900000053,
                    "velocity": 0.41732283464566927,
                    "duration": 0.10623225000000502
                },
                {
                    "name": "G4",
                    "midi": 67,
                    "time": 187.81861800000053,
                    "velocity": 0.6220472440944882,
                    "duration": 0.6373935000000017
                },
                {
                    "name": "A#3",
                    "midi": 58,
                    "time": 187.81861800000053,
                    "velocity": 0.5196850393700787,
                    "duration": 0.6373935000000017
                },
                {
                    "name": "A3",
                    "midi": 57,
                    "time": 188.45601150000053,
                    "velocity": 0.3464566929133858,
                    "duration": 0.10623225000000502
                },
                {
                    "name": "F4",
                    "midi": 65,
                    "time": 188.45601150000053,
                    "velocity": 0.4094488188976378,
                    "duration": 0.10623225000000502
                },
                {
                    "name": "E4",
                    "midi": 64,
                    "time": 188.66847600000054,
                    "velocity": 0.6220472440944882,
                    "duration": 0.6373935000000017
                },
                {
                    "name": "G3",
                    "midi": 55,
                    "time": 188.66847600000054,
                    "velocity": 0.5196850393700787,
                    "duration": 0.6373935000000017
                },
                {
                    "name": "F3",
                    "midi": 53,
                    "time": 189.30586950000054,
                    "velocity": 0.3464566929133858,
                    "duration": 0.10623225000000502
                },
                {
                    "name": "D4",
                    "midi": 62,
                    "time": 189.30586950000054,
                    "velocity": 0.4094488188976378,
                    "duration": 0.10623225000000502
                },
                {
                    "name": "E3",
                    "midi": 52,
                    "time": 189.51833400000055,
                    "velocity": 0.3858267716535433,
                    "duration": 0.10623225000000502
                },
                {
                    "name": "C4",
                    "midi": 60,
                    "time": 189.51833400000055,
                    "velocity": 0.4566929133858268,
                    "duration": 0.10623225000000502
                },
                {
                    "name": "D3",
                    "midi": 50,
                    "time": 189.94326300000054,
                    "velocity": 0.31496062992125984,
                    "duration": 0.10623225000000502
                },
                {
                    "name": "F3",
                    "midi": 53,
                    "time": 189.94326300000054,
                    "velocity": 0.3858267716535433,
                    "duration": 0.10623225000000502
                },
                {
                    "name": "C#3",
                    "midi": 49,
                    "time": 190.36819200000053,
                    "velocity": 0.2677165354330709,
                    "duration": 1.6997159999999951
                },
                {
                    "name": "E3",
                    "midi": 52,
                    "time": 190.36819200000053,
                    "velocity": 0.2677165354330709,
                    "duration": 1.6997159999999951
                },
                {
                    "name": "G3",
                    "midi": 55,
                    "time": 190.36819200000053,
                    "velocity": 0.31496062992125984,
                    "duration": 1.6997159999999951
                },
                {
                    "name": "D3",
                    "midi": 50,
                    "time": 192.06790800000053,
                    "velocity": 0.2677165354330709,
                    "duration": 1.6997159999999951
                },
                {
                    "name": "F3",
                    "midi": 53,
                    "time": 192.06790800000053,
                    "velocity": 0.31496062992125984,
                    "duration": 1.6997159999999951
                },
                {
                    "name": "B2",
                    "midi": 47,
                    "time": 193.76762400000052,
                    "velocity": 0.2677165354330709,
                    "duration": 1.6997159999999951
                },
                {
                    "name": "D3",
                    "midi": 50,
                    "time": 193.76762400000052,
                    "velocity": 0.2677165354330709,
                    "duration": 1.6997159999999951
                },
                {
                    "name": "F3",
                    "midi": 53,
                    "time": 193.76762400000052,
                    "velocity": 0.31496062992125984,
                    "duration": 1.6997159999999951
                },
                {
                    "name": "A#2",
                    "midi": 46,
                    "time": 195.46734000000052,
                    "velocity": 0.44881889763779526,
                    "duration": 1.0623224999999934
                },
                {
                    "name": "C#3",
                    "midi": 49,
                    "time": 195.46734000000052,
                    "velocity": 0.44881889763779526,
                    "duration": 1.0623224999999934
                },
                {
                    "name": "E3",
                    "midi": 52,
                    "time": 195.46734000000052,
                    "velocity": 0.44881889763779526,
                    "duration": 1.0623224999999934
                },
                {
                    "name": "G3",
                    "midi": 55,
                    "time": 195.46734000000052,
                    "velocity": 0.5354330708661418,
                    "duration": 1.0623224999999934
                },
                {
                    "name": "A#2",
                    "midi": 46,
                    "time": 196.5296625000005,
                    "velocity": 0.3937007874015748,
                    "duration": 0.10623225000000502
                },
                {
                    "name": "C3",
                    "midi": 48,
                    "time": 196.5296625000005,
                    "velocity": 0.3937007874015748,
                    "duration": 0.10623225000000502
                },
                {
                    "name": "G3",
                    "midi": 55,
                    "time": 196.5296625000005,
                    "velocity": 0.47244094488188976,
                    "duration": 0.10623225000000502
                },
                {
                    "name": "A#2",
                    "midi": 46,
                    "time": 196.74212700000052,
                    "velocity": 0.48031496062992124,
                    "duration": 0.10623225000000502
                },
                {
                    "name": "C3",
                    "midi": 48,
                    "time": 196.74212700000052,
                    "velocity": 0.48031496062992124,
                    "duration": 0.10623225000000502
                },
                {
                    "name": "G3",
                    "midi": 55,
                    "time": 196.74212700000052,
                    "velocity": 0.5669291338582677,
                    "duration": 0.10623225000000502
                },
                {
                    "name": "A#2",
                    "midi": 46,
                    "time": 196.95459150000053,
                    "velocity": 0.4015748031496063,
                    "duration": 0.10623225000000502
                },
                {
                    "name": "C3",
                    "midi": 48,
                    "time": 196.95459150000053,
                    "velocity": 0.4015748031496063,
                    "duration": 0.10623225000000502
                },
                {
                    "name": "G3",
                    "midi": 55,
                    "time": 196.95459150000053,
                    "velocity": 0.48031496062992124,
                    "duration": 0.10623225000000502
                },
                {
                    "name": "A2",
                    "midi": 45,
                    "time": 197.16705600000054,
                    "velocity": 0.5748031496062992,
                    "duration": 0.4249289999999917
                },
                {
                    "name": "C3",
                    "midi": 48,
                    "time": 197.16705600000054,
                    "velocity": 0.5748031496062992,
                    "duration": 0.4249289999999917
                },
                {
                    "name": "F3",
                    "midi": 53,
                    "time": 197.16705600000054,
                    "velocity": 0.5748031496062992,
                    "duration": 0.4249289999999917
                },
                {
                    "name": "E2",
                    "midi": 40,
                    "time": 197.80444950000054,
                    "velocity": 0.44881889763779526,
                    "duration": 0.10623225000000502
                },
                {
                    "name": "C3",
                    "midi": 48,
                    "time": 197.80444950000054,
                    "velocity": 0.5354330708661418,
                    "duration": 0.10623225000000502
                },
                {
                    "name": "F2",
                    "midi": 41,
                    "time": 198.01691400000055,
                    "velocity": 0.49606299212598426,
                    "duration": 0.10623225000000502
                },
                {
                    "name": "C3",
                    "midi": 48,
                    "time": 198.01691400000055,
                    "velocity": 0.5905511811023622,
                    "duration": 0.10623225000000502
                },
                {
                    "name": "A#2",
                    "midi": 46,
                    "time": 198.22937850000056,
                    "velocity": 0.4409448818897638,
                    "duration": 0.10623225000000502
                },
                {
                    "name": "C3",
                    "midi": 48,
                    "time": 198.22937850000056,
                    "velocity": 0.5275590551181102,
                    "duration": 0.10623225000000502
                },
                {
                    "name": "A2",
                    "midi": 45,
                    "time": 198.44184300000057,
                    "velocity": 0.49606299212598426,
                    "duration": 0.10623225000000502
                },
                {
                    "name": "C3",
                    "midi": 48,
                    "time": 198.44184300000057,
                    "velocity": 0.5905511811023622,
                    "duration": 0.10623225000000502
                },
                {
                    "name": "E2",
                    "midi": 40,
                    "time": 198.65430750000058,
                    "velocity": 0.4409448818897638,
                    "duration": 0.10623225000000502
                },
                {
                    "name": "C3",
                    "midi": 48,
                    "time": 198.65430750000058,
                    "velocity": 0.5275590551181102,
                    "duration": 0.10623225000000502
                },
                {
                    "name": "F2",
                    "midi": 41,
                    "time": 198.8667720000006,
                    "velocity": 0.49606299212598426,
                    "duration": 0.10623225000000502
                },
                {
                    "name": "C3",
                    "midi": 48,
                    "time": 198.8667720000006,
                    "velocity": 0.5905511811023622,
                    "duration": 0.10623225000000502
                },
                {
                    "name": "A#2",
                    "midi": 46,
                    "time": 199.0792365000006,
                    "velocity": 0.4409448818897638,
                    "duration": 0.10623225000000502
                },
                {
                    "name": "C3",
                    "midi": 48,
                    "time": 199.0792365000006,
                    "velocity": 0.5275590551181102,
                    "duration": 0.10623225000000502
                },
                {
                    "name": "A2",
                    "midi": 45,
                    "time": 199.29170100000061,
                    "velocity": 0.49606299212598426,
                    "duration": 0.10623225000000502
                },
                {
                    "name": "C3",
                    "midi": 48,
                    "time": 199.29170100000061,
                    "velocity": 0.5905511811023622,
                    "duration": 0.10623225000000502
                },
                {
                    "name": "E2",
                    "midi": 40,
                    "time": 199.50416550000062,
                    "velocity": 0.4409448818897638,
                    "duration": 0.10623225000000502
                },
                {
                    "name": "C3",
                    "midi": 48,
                    "time": 199.50416550000062,
                    "velocity": 0.5275590551181102,
                    "duration": 0.10623225000000502
                },
                {
                    "name": "F2",
                    "midi": 41,
                    "time": 199.71663000000063,
                    "velocity": 0.49606299212598426,
                    "duration": 0.10623225000000502
                },
                {
                    "name": "C3",
                    "midi": 48,
                    "time": 199.71663000000063,
                    "velocity": 0.5905511811023622,
                    "duration": 0.10623225000000502
                },
                {
                    "name": "A#2",
                    "midi": 46,
                    "time": 199.92909450000064,
                    "velocity": 0.4409448818897638,
                    "duration": 0.10623225000000502
                },
                {
                    "name": "C3",
                    "midi": 48,
                    "time": 199.92909450000064,
                    "velocity": 0.5275590551181102,
                    "duration": 0.10623225000000502
                },
                {
                    "name": "A2",
                    "midi": 45,
                    "time": 200.14155900000065,
                    "velocity": 0.49606299212598426,
                    "duration": 0.10623225000000502
                },
                {
                    "name": "C3",
                    "midi": 48,
                    "time": 200.14155900000065,
                    "velocity": 0.5905511811023622,
                    "duration": 0.10623225000000502
                },
                {
                    "name": "E2",
                    "midi": 40,
                    "time": 200.35402350000066,
                    "velocity": 0.44881889763779526,
                    "duration": 0.10623225000000502
                },
                {
                    "name": "C3",
                    "midi": 48,
                    "time": 200.35402350000066,
                    "velocity": 0.5354330708661418,
                    "duration": 0.10623225000000502
                },
                {
                    "name": "F2",
                    "midi": 41,
                    "time": 200.56648800000067,
                    "velocity": 0.7007874015748031,
                    "duration": 0.8498580000000118
                },
                {
                    "name": "D2",
                    "midi": 38,
                    "time": 201.4163460000007,
                    "velocity": 0.6299212598425197,
                    "duration": 0.8498580000000118
                },
                {
                    "name": "A#1",
                    "midi": 34,
                    "time": 202.2662040000007,
                    "velocity": 0.6929133858267716,
                    "duration": 0.8498580000000118
                },
                {
                    "name": "C2",
                    "midi": 36,
                    "time": 203.1160620000007,
                    "velocity": 0.6614173228346457,
                    "duration": 0.8498580000000118
                },
                {
                    "name": "F1",
                    "midi": 29,
                    "time": 203.96592000000072,
                    "velocity": 0.6377952755905512,
                    "duration": 0.10623225000000502
                },
                {
                    "name": "A#2",
                    "midi": 46,
                    "time": 204.17838450000073,
                    "velocity": 0.4251968503937008,
                    "duration": 0.10623225000000502
                },
                {
                    "name": "A2",
                    "midi": 45,
                    "time": 204.39084900000074,
                    "velocity": 0.47244094488188976,
                    "duration": 0.10623225000000502
                },
                {
                    "name": "E2",
                    "midi": 40,
                    "time": 204.60331350000075,
                    "velocity": 0.4251968503937008,
                    "duration": 0.10623225000000502
                },
                {
                    "name": "F2",
                    "midi": 41,
                    "time": 204.81577800000076,
                    "velocity": 0.47244094488188976,
                    "duration": 0.10623225000000502
                },
                {
                    "name": "A#2",
                    "midi": 46,
                    "time": 205.02824250000077,
                    "velocity": 0.4094488188976378,
                    "duration": 0.10623225000000502
                },
                {
                    "name": "A2",
                    "midi": 45,
                    "time": 205.24070700000078,
                    "velocity": 0.47244094488188976,
                    "duration": 0.10623225000000502
                },
                {
                    "name": "E2",
                    "midi": 40,
                    "time": 205.4531715000008,
                    "velocity": 0.4566929133858268,
                    "duration": 0.10623225000000502
                },
                {
                    "name": "F2",
                    "midi": 41,
                    "time": 205.6656360000008,
                    "velocity": 0.47244094488188976,
                    "duration": 0.10623225000000502
                },
                {
                    "name": "A#2",
                    "midi": 46,
                    "time": 205.8781005000008,
                    "velocity": 0.4094488188976378,
                    "duration": 0.10623225000000502
                },
                {
                    "name": "A2",
                    "midi": 45,
                    "time": 206.09056500000082,
                    "velocity": 0.47244094488188976,
                    "duration": 0.10623225000000502
                },
                {
                    "name": "E2",
                    "midi": 40,
                    "time": 206.30302950000083,
                    "velocity": 0.4566929133858268,
                    "duration": 0.10623225000000502
                },
                {
                    "name": "F2",
                    "midi": 41,
                    "time": 206.51549400000084,
                    "velocity": 0.5275590551181102,
                    "duration": 0.10623225000000502
                },
                {
                    "name": "G2",
                    "midi": 43,
                    "time": 206.72795850000085,
                    "velocity": 0.4645669291338583,
                    "duration": 0.10623225000000502
                },
                {
                    "name": "F2",
                    "midi": 41,
                    "time": 206.94042300000086,
                    "velocity": 0.5669291338582677,
                    "duration": 0.10623225000000502
                },
                {
                    "name": "E2",
                    "midi": 40,
                    "time": 207.15288750000087,
                    "velocity": 0.5275590551181102,
                    "duration": 0.10623225000000502
                },
                {
                    "name": "D2",
                    "midi": 38,
                    "time": 207.36535200000088,
                    "velocity": 0.5905511811023622,
                    "duration": 0.10623225000000502
                },
                {
                    "name": "C2",
                    "midi": 36,
                    "time": 207.5778165000009,
                    "velocity": 0.6062992125984252,
                    "duration": 0.10623225000000502
                },
                {
                    "name": "A#1",
                    "midi": 34,
                    "time": 207.7902810000009,
                    "velocity": 0.6299212598425197,
                    "duration": 0.10623225000000502
                },
                {
                    "name": "A1",
                    "midi": 33,
                    "time": 208.0027455000009,
                    "velocity": 0.6456692913385826,
                    "duration": 0.10623225000000502
                },
                {
                    "name": "G1",
                    "midi": 31,
                    "time": 208.21521000000092,
                    "velocity": 0.7401574803149606,
                    "duration": 1.6997159999999951
                },
                {
                    "name": "C2",
                    "midi": 36,
                    "time": 209.91492600000092,
                    "velocity": 0.6850393700787402,
                    "duration": 0.8498580000000118
                },
                {
                    "name": "F1",
                    "midi": 29,
                    "time": 210.76478400000093,
                    "velocity": 0.23622047244094488,
                    "duration": 0.10623225000000502
                },
                {
                    "name": "F2",
                    "midi": 41,
                    "time": 210.87101625000093,
                    "velocity": 0.2047244094488189,
                    "duration": 0.10623225000000502
                },
                {
                    "name": "F1",
                    "midi": 29,
                    "time": 210.97724850000094,
                    "velocity": 0.23622047244094488,
                    "duration": 0.10623225000000502
                },
                {
                    "name": "F2",
                    "midi": 41,
                    "time": 211.08348075000094,
                    "velocity": 0.1968503937007874,
                    "duration": 0.10623225000000502
                },
                {
                    "name": "F1",
                    "midi": 29,
                    "time": 211.18971300000095,
                    "velocity": 0.23622047244094488,
                    "duration": 0.10623225000000502
                },
                {
                    "name": "F2",
                    "midi": 41,
                    "time": 211.29594525000095,
                    "velocity": 0.2047244094488189,
                    "duration": 0.10623225000000502
                },
                {
                    "name": "F1",
                    "midi": 29,
                    "time": 211.40217750000096,
                    "velocity": 0.23622047244094488,
                    "duration": 0.10623225000000502
                },
                {
                    "name": "F2",
                    "midi": 41,
                    "time": 211.50840975000096,
                    "velocity": 0.2125984251968504,
                    "duration": 0.10623225000000502
                },
                {
                    "name": "F1",
                    "midi": 29,
                    "time": 211.61464200000097,
                    "velocity": 0.23622047244094488,
                    "duration": 0.10623225000000502
                },
                {
                    "name": "F2",
                    "midi": 41,
                    "time": 211.72087425000097,
                    "velocity": 0.2125984251968504,
                    "duration": 0.10623225000000502
                },
                {
                    "name": "F1",
                    "midi": 29,
                    "time": 211.82710650000098,
                    "velocity": 0.23622047244094488,
                    "duration": 0.10623225000000502
                },
                {
                    "name": "F2",
                    "midi": 41,
                    "time": 211.93333875000098,
                    "velocity": 0.1968503937007874,
                    "duration": 0.10623225000000502
                },
                {
                    "name": "F1",
                    "midi": 29,
                    "time": 212.039571000001,
                    "velocity": 0.23622047244094488,
                    "duration": 0.10623225000000502
                },
                {
                    "name": "F2",
                    "midi": 41,
                    "time": 212.145803250001,
                    "velocity": 0.2047244094488189,
                    "duration": 0.10623225000000502
                },
                {
                    "name": "F1",
                    "midi": 29,
                    "time": 212.252035500001,
                    "velocity": 0.23622047244094488,
                    "duration": 0.10623225000000502
                },
                {
                    "name": "F2",
                    "midi": 41,
                    "time": 212.358267750001,
                    "velocity": 0.2047244094488189,
                    "duration": 0.10623225000000502
                },
                {
                    "name": "F1",
                    "midi": 29,
                    "time": 212.464500000001,
                    "velocity": 0.23622047244094488,
                    "duration": 0.10623225000000502
                },
                {
                    "name": "F2",
                    "midi": 41,
                    "time": 212.57073225000102,
                    "velocity": 0.2047244094488189,
                    "duration": 0.10623225000000502
                },
                {
                    "name": "F1",
                    "midi": 29,
                    "time": 212.67696450000102,
                    "velocity": 0.23622047244094488,
                    "duration": 0.10623225000000502
                },
                {
                    "name": "F2",
                    "midi": 41,
                    "time": 212.78319675000103,
                    "velocity": 0.1968503937007874,
                    "duration": 0.10623225000000502
                },
                {
                    "name": "F1",
                    "midi": 29,
                    "time": 212.88942900000103,
                    "velocity": 0.23622047244094488,
                    "duration": 0.10623225000000502
                },
                {
                    "name": "F2",
                    "midi": 41,
                    "time": 212.99566125000104,
                    "velocity": 0.2047244094488189,
                    "duration": 0.10623225000000502
                },
                {
                    "name": "F1",
                    "midi": 29,
                    "time": 213.10189350000104,
                    "velocity": 0.23622047244094488,
                    "duration": 0.10623225000000502
                },
                {
                    "name": "F2",
                    "midi": 41,
                    "time": 213.20812575000105,
                    "velocity": 0.2125984251968504,
                    "duration": 0.10623225000000502
                },
                {
                    "name": "F1",
                    "midi": 29,
                    "time": 213.31435800000105,
                    "velocity": 0.23622047244094488,
                    "duration": 0.10623225000000502
                },
                {
                    "name": "F2",
                    "midi": 41,
                    "time": 213.42059025000106,
                    "velocity": 0.2125984251968504,
                    "duration": 0.10623225000000502
                },
                {
                    "name": "F1",
                    "midi": 29,
                    "time": 213.52682250000106,
                    "velocity": 0.23622047244094488,
                    "duration": 0.10623225000000502
                },
                {
                    "name": "F2",
                    "midi": 41,
                    "time": 213.63305475000107,
                    "velocity": 0.1968503937007874,
                    "duration": 0.10623225000000502
                },
                {
                    "name": "F1",
                    "midi": 29,
                    "time": 213.73928700000107,
                    "velocity": 0.23622047244094488,
                    "duration": 0.10623225000000502
                },
                {
                    "name": "F2",
                    "midi": 41,
                    "time": 213.84551925000108,
                    "velocity": 0.2047244094488189,
                    "duration": 0.10623225000000502
                },
                {
                    "name": "F1",
                    "midi": 29,
                    "time": 213.95175150000108,
                    "velocity": 0.23622047244094488,
                    "duration": 0.10623225000000502
                },
                {
                    "name": "F2",
                    "midi": 41,
                    "time": 214.05798375000109,
                    "velocity": 0.2047244094488189,
                    "duration": 0.10623225000000502
                },
                {
                    "name": "F1",
                    "midi": 29,
                    "time": 214.1642160000011,
                    "velocity": 0.23622047244094488,
                    "duration": 0.10623225000000502
                },
                {
                    "name": "F2",
                    "midi": 41,
                    "time": 214.2704482500011,
                    "velocity": 0.2047244094488189,
                    "duration": 0.10623225000000502
                },
                {
                    "name": "F1",
                    "midi": 29,
                    "time": 214.3766805000011,
                    "velocity": 0.23622047244094488,
                    "duration": 0.10623225000000502
                },
                {
                    "name": "F2",
                    "midi": 41,
                    "time": 214.4829127500011,
                    "velocity": 0.1968503937007874,
                    "duration": 0.10623225000000502
                },
                {
                    "name": "F1",
                    "midi": 29,
                    "time": 214.5891450000011,
                    "velocity": 0.23622047244094488,
                    "duration": 0.10623225000000502
                },
                {
                    "name": "F2",
                    "midi": 41,
                    "time": 214.69537725000112,
                    "velocity": 0.2047244094488189,
                    "duration": 0.10623225000000502
                },
                {
                    "name": "F1",
                    "midi": 29,
                    "time": 214.80160950000112,
                    "velocity": 0.23622047244094488,
                    "duration": 0.10623225000000502
                },
                {
                    "name": "F2",
                    "midi": 41,
                    "time": 214.90784175000113,
                    "velocity": 0.2125984251968504,
                    "duration": 0.10623225000000502
                },
                {
                    "name": "F1",
                    "midi": 29,
                    "time": 215.01407400000113,
                    "velocity": 0.23622047244094488,
                    "duration": 0.10623225000000502
                },
                {
                    "name": "F2",
                    "midi": 41,
                    "time": 215.12030625000114,
                    "velocity": 0.2125984251968504,
                    "duration": 0.10623225000000502
                },
                {
                    "name": "F1",
                    "midi": 29,
                    "time": 215.22653850000114,
                    "velocity": 0.2755905511811024,
                    "duration": 0.10623225000000502
                },
                {
                    "name": "F2",
                    "midi": 41,
                    "time": 215.33277075000115,
                    "velocity": 0.2283464566929134,
                    "duration": 0.10623225000000502
                },
                {
                    "name": "F1",
                    "midi": 29,
                    "time": 215.43900300000115,
                    "velocity": 0.2677165354330709,
                    "duration": 0.10623225000000502
                },
                {
                    "name": "F2",
                    "midi": 41,
                    "time": 215.54523525000116,
                    "velocity": 0.2047244094488189,
                    "duration": 0.10623225000000502
                },
                {
                    "name": "F1",
                    "midi": 29,
                    "time": 215.65146750000116,
                    "velocity": 0.2755905511811024,
                    "duration": 0.10623225000000502
                },
                {
                    "name": "F2",
                    "midi": 41,
                    "time": 215.75769975000117,
                    "velocity": 0.2440944881889764,
                    "duration": 0.10623225000000502
                },
                {
                    "name": "F1",
                    "midi": 29,
                    "time": 215.86393200000117,
                    "velocity": 0.2992125984251969,
                    "duration": 0.10623225000000502
                },
                {
                    "name": "F2",
                    "midi": 41,
                    "time": 215.97016425000118,
                    "velocity": 0.23622047244094488,
                    "duration": 0.10623225000000502
                },
                {
                    "name": "F1",
                    "midi": 29,
                    "time": 216.07639650000118,
                    "velocity": 0.2677165354330709,
                    "duration": 0.10623225000000502
                },
                {
                    "name": "F2",
                    "midi": 41,
                    "time": 216.1826287500012,
                    "velocity": 0.1968503937007874,
                    "duration": 0.10623225000000502
                },
                {
                    "name": "F1",
                    "midi": 29,
                    "time": 216.2888610000012,
                    "velocity": 0.25984251968503935,
                    "duration": 0.10623225000000502
                },
                {
                    "name": "F2",
                    "midi": 41,
                    "time": 216.3950932500012,
                    "velocity": 0.2047244094488189,
                    "duration": 0.10623225000000502
                },
                {
                    "name": "F1",
                    "midi": 29,
                    "time": 216.5013255000012,
                    "velocity": 0.23622047244094488,
                    "duration": 0.10623225000000502
                },
                {
                    "name": "F2",
                    "midi": 41,
                    "time": 216.6075577500012,
                    "velocity": 0.2125984251968504,
                    "duration": 0.10623225000000502
                },
                {
                    "name": "F1",
                    "midi": 29,
                    "time": 216.7137900000012,
                    "velocity": 0.23622047244094488,
                    "duration": 0.10623225000000502
                },
                {
                    "name": "F2",
                    "midi": 41,
                    "time": 216.82002225000122,
                    "velocity": 0.2125984251968504,
                    "duration": 0.10623225000000502
                },
                {
                    "name": "F1",
                    "midi": 29,
                    "time": 216.92625450000122,
                    "velocity": 0.23622047244094488,
                    "duration": 0.10623225000000502
                },
                {
                    "name": "F2",
                    "midi": 41,
                    "time": 217.03248675000123,
                    "velocity": 0.1968503937007874,
                    "duration": 0.10623225000000502
                },
                {
                    "name": "F1",
                    "midi": 29,
                    "time": 217.13871900000123,
                    "velocity": 0.23622047244094488,
                    "duration": 0.10623225000000502
                },
                {
                    "name": "F2",
                    "midi": 41,
                    "time": 217.24495125000124,
                    "velocity": 0.2047244094488189,
                    "duration": 0.10623225000000502
                },
                {
                    "name": "F1",
                    "midi": 29,
                    "time": 217.35118350000124,
                    "velocity": 0.23622047244094488,
                    "duration": 0.10623225000000502
                },
                {
                    "name": "F2",
                    "midi": 41,
                    "time": 217.45741575000125,
                    "velocity": 0.2047244094488189,
                    "duration": 0.10623225000000502
                },
                {
                    "name": "F1",
                    "midi": 29,
                    "time": 217.56364800000125,
                    "velocity": 0.23622047244094488,
                    "duration": 0.10623225000000502
                },
                {
                    "name": "F2",
                    "midi": 41,
                    "time": 217.66988025000126,
                    "velocity": 0.1968503937007874,
                    "duration": 0.10623225000000502
                },
                {
                    "name": "F1",
                    "midi": 29,
                    "time": 217.77611250000126,
                    "velocity": 0.2283464566929134,
                    "duration": 0.10623225000000502
                },
                {
                    "name": "F2",
                    "midi": 41,
                    "time": 217.88234475000127,
                    "velocity": 0.1889763779527559,
                    "duration": 0.10623225000000502
                },
                {
                    "name": "F1",
                    "midi": 29,
                    "time": 217.98857700000127,
                    "velocity": 0.2204724409448819,
                    "duration": 0.10623225000000502
                },
                {
                    "name": "F2",
                    "midi": 41,
                    "time": 218.09480925000128,
                    "velocity": 0.1889763779527559,
                    "duration": 0.10623225000000502
                },
                {
                    "name": "F1",
                    "midi": 29,
                    "time": 218.20104150000128,
                    "velocity": 0.2204724409448819,
                    "duration": 0.10623225000000502
                },
                {
                    "name": "F2",
                    "midi": 41,
                    "time": 218.3072737500013,
                    "velocity": 0.1968503937007874,
                    "duration": 0.10623225000000502
                },
                {
                    "name": "F1",
                    "midi": 29,
                    "time": 218.4135060000013,
                    "velocity": 0.2125984251968504,
                    "duration": 0.10623225000000502
                },
                {
                    "name": "F2",
                    "midi": 41,
                    "time": 218.5197382500013,
                    "velocity": 0.1889763779527559,
                    "duration": 0.10623225000000502
                },
                {
                    "name": "F1",
                    "midi": 29,
                    "time": 218.6259705000013,
                    "velocity": 0.2125984251968504,
                    "duration": 0.10623225000000502
                },
                {
                    "name": "F2",
                    "midi": 41,
                    "time": 218.7322027500013,
                    "velocity": 0.1732283464566929,
                    "duration": 0.10623225000000502
                },
                {
                    "name": "F1",
                    "midi": 29,
                    "time": 218.8384350000013,
                    "velocity": 0.2047244094488189,
                    "duration": 0.10623225000000502
                },
                {
                    "name": "F2",
                    "midi": 41,
                    "time": 218.94466725000132,
                    "velocity": 0.1732283464566929,
                    "duration": 0.10623225000000502
                },
                {
                    "name": "F1",
                    "midi": 29,
                    "time": 219.05089950000132,
                    "velocity": 0.1968503937007874,
                    "duration": 0.10623225000000502
                },
                {
                    "name": "F2",
                    "midi": 41,
                    "time": 219.15713175000133,
                    "velocity": 0.1732283464566929,
                    "duration": 0.10623225000000502
                },
                {
                    "name": "F1",
                    "midi": 29,
                    "time": 219.26336400000133,
                    "velocity": 0.1968503937007874,
                    "duration": 0.10623225000000502
                },
                {
                    "name": "F2",
                    "midi": 41,
                    "time": 219.36959625000134,
                    "velocity": 0.16535433070866143,
                    "duration": 0.10623225000000502
                },
                {
                    "name": "F1",
                    "midi": 29,
                    "time": 219.47582850000134,
                    "velocity": 0.1889763779527559,
                    "duration": 0.10623225000000502
                },
                {
                    "name": "F2",
                    "midi": 41,
                    "time": 219.58206075000135,
                    "velocity": 0.15748031496062992,
                    "duration": 0.10623225000000502
                },
                {
                    "name": "F1",
                    "midi": 29,
                    "time": 219.68829300000135,
                    "velocity": 0.1889763779527559,
                    "duration": 0.10623225000000502
                },
                {
                    "name": "F2",
                    "midi": 41,
                    "time": 219.79452525000136,
                    "velocity": 0.15748031496062992,
                    "duration": 0.10623225000000502
                },
                {
                    "name": "F1",
                    "midi": 29,
                    "time": 219.90075750000136,
                    "velocity": 0.18110236220472442,
                    "duration": 0.10623225000000502
                },
                {
                    "name": "F2",
                    "midi": 41,
                    "time": 220.00698975000137,
                    "velocity": 0.15748031496062992,
                    "duration": 0.10623225000000502
                },
                {
                    "name": "F1",
                    "midi": 29,
                    "time": 220.11322200000137,
                    "velocity": 0.1732283464566929,
                    "duration": 0.10623225000000502
                },
                {
                    "name": "F2",
                    "midi": 41,
                    "time": 220.21945425000138,
                    "velocity": 0.15748031496062992,
                    "duration": 0.10623225000000502
                },
                {
                    "name": "F1",
                    "midi": 29,
                    "time": 220.32568650000138,
                    "velocity": 0.1732283464566929,
                    "duration": 0.10623225000000502
                },
                {
                    "name": "F2",
                    "midi": 41,
                    "time": 220.4319187500014,
                    "velocity": 0.14173228346456693,
                    "duration": 0.10623225000000502
                },
                {
                    "name": "F1",
                    "midi": 29,
                    "time": 220.5381510000014,
                    "velocity": 0.1732283464566929,
                    "duration": 0.10623225000000502
                },
                {
                    "name": "F2",
                    "midi": 41,
                    "time": 220.6443832500014,
                    "velocity": 0.14960629921259844,
                    "duration": 0.10623225000000502
                },
                {
                    "name": "F1",
                    "midi": 29,
                    "time": 220.7506155000014,
                    "velocity": 0.1732283464566929,
                    "duration": 0.10623225000000502
                },
                {
                    "name": "F2",
                    "midi": 41,
                    "time": 220.8568477500014,
                    "velocity": 0.14960629921259844,
                    "duration": 0.10623225000000502
                },
                {
                    "name": "F1",
                    "midi": 29,
                    "time": 220.9630800000014,
                    "velocity": 0.4409448818897638,
                    "duration": 0.6373935000000017
                },
                {
                    "name": "F2",
                    "midi": 41,
                    "time": 220.9630800000014,
                    "velocity": 0.5196850393700787,
                    "duration": 0.6373935000000017
                },
                {
                    "name": "G1",
                    "midi": 31,
                    "time": 221.6004735000014,
                    "velocity": 0.3858267716535433,
                    "duration": 0.10623225000000502
                },
                {
                    "name": "G2",
                    "midi": 43,
                    "time": 221.6004735000014,
                    "velocity": 0.4645669291338583,
                    "duration": 0.10623225000000502
                },
                {
                    "name": "A1",
                    "midi": 33,
                    "time": 221.81293800000142,
                    "velocity": 0.4409448818897638,
                    "duration": 0.6373935000000017
                },
                {
                    "name": "A2",
                    "midi": 45,
                    "time": 221.81293800000142,
                    "velocity": 0.5196850393700787,
                    "duration": 0.6373935000000017
                },
                {
                    "name": "A#1",
                    "midi": 34,
                    "time": 222.45033150000143,
                    "velocity": 0.3937007874015748,
                    "duration": 0.10623225000000502
                },
                {
                    "name": "A#2",
                    "midi": 46,
                    "time": 222.45033150000143,
                    "velocity": 0.47244094488188976,
                    "duration": 0.10623225000000502
                },
                {
                    "name": "C2",
                    "midi": 36,
                    "time": 222.66279600000144,
                    "velocity": 0.44881889763779526,
                    "duration": 0.6373935000000017
                },
                {
                    "name": "C3",
                    "midi": 48,
                    "time": 222.66279600000144,
                    "velocity": 0.5354330708661418,
                    "duration": 0.6373935000000017
                },
                {
                    "name": "D2",
                    "midi": 38,
                    "time": 223.30018950000144,
                    "velocity": 0.3700787401574803,
                    "duration": 0.10623225000000502
                },
                {
                    "name": "D3",
                    "midi": 50,
                    "time": 223.30018950000144,
                    "velocity": 0.4409448818897638,
                    "duration": 0.10623225000000502
                },
                {
                    "name": "E2",
                    "midi": 40,
                    "time": 223.51265400000145,
                    "velocity": 0.41732283464566927,
                    "duration": 0.10623225000000502
                },
                {
                    "name": "E3",
                    "midi": 52,
                    "time": 223.51265400000145,
                    "velocity": 0.49606299212598426,
                    "duration": 0.10623225000000502
                },
                {
                    "name": "F2",
                    "midi": 41,
                    "time": 223.72511850000146,
                    "velocity": 0.3937007874015748,
                    "duration": 0.10623225000000502
                },
                {
                    "name": "F3",
                    "midi": 53,
                    "time": 223.72511850000146,
                    "velocity": 0.47244094488188976,
                    "duration": 0.10623225000000502
                },
                {
                    "name": "G2",
                    "midi": 43,
                    "time": 223.93758300000147,
                    "velocity": 0.4330708661417323,
                    "duration": 0.10623225000000502
                },
                {
                    "name": "G3",
                    "midi": 55,
                    "time": 223.93758300000147,
                    "velocity": 0.5118110236220472,
                    "duration": 0.10623225000000502
                },
                {
                    "name": "A2",
                    "midi": 45,
                    "time": 224.15004750000148,
                    "velocity": 0.4015748031496063,
                    "duration": 0.10623225000000502
                },
                {
                    "name": "A3",
                    "midi": 57,
                    "time": 224.15004750000148,
                    "velocity": 0.48031496062992124,
                    "duration": 0.10623225000000502
                },
                {
                    "name": "A#2",
                    "midi": 46,
                    "time": 224.3625120000015,
                    "velocity": 0.48031496062992124,
                    "duration": 0.6373935000000017
                },
                {
                    "name": "A#3",
                    "midi": 58,
                    "time": 224.3625120000015,
                    "velocity": 0.5669291338582677,
                    "duration": 0.6373935000000017
                },
                {
                    "name": "A2",
                    "midi": 45,
                    "time": 224.9999055000015,
                    "velocity": 0.4094488188976378,
                    "duration": 0.10623225000000502
                },
                {
                    "name": "A3",
                    "midi": 57,
                    "time": 224.9999055000015,
                    "velocity": 0.49606299212598426,
                    "duration": 0.10623225000000502
                },
                {
                    "name": "G2",
                    "midi": 43,
                    "time": 225.2123700000015,
                    "velocity": 0.4645669291338583,
                    "duration": 0.6373935000000017
                },
                {
                    "name": "G3",
                    "midi": 55,
                    "time": 225.2123700000015,
                    "velocity": 0.5433070866141733,
                    "duration": 0.6373935000000017
                },
                {
                    "name": "F2",
                    "midi": 41,
                    "time": 225.8497635000015,
                    "velocity": 0.4015748031496063,
                    "duration": 0.10623225000000502
                },
                {
                    "name": "F3",
                    "midi": 53,
                    "time": 225.8497635000015,
                    "velocity": 0.48031496062992124,
                    "duration": 0.10623225000000502
                },
                {
                    "name": "E2",
                    "midi": 40,
                    "time": 226.0622280000015,
                    "velocity": 0.4566929133858268,
                    "duration": 0.6373935000000017
                },
                {
                    "name": "E3",
                    "midi": 52,
                    "time": 226.0622280000015,
                    "velocity": 0.5433070866141733,
                    "duration": 0.6373935000000017
                },
                {
                    "name": "D2",
                    "midi": 38,
                    "time": 226.6996215000015,
                    "velocity": 0.3700787401574803,
                    "duration": 0.10623225000000502
                },
                {
                    "name": "D3",
                    "midi": 50,
                    "time": 226.6996215000015,
                    "velocity": 0.4409448818897638,
                    "duration": 0.10623225000000502
                },
                {
                    "name": "C2",
                    "midi": 36,
                    "time": 226.91208600000152,
                    "velocity": 0.4094488188976378,
                    "duration": 0.10623225000000502
                },
                {
                    "name": "C3",
                    "midi": 48,
                    "time": 226.91208600000152,
                    "velocity": 0.4881889763779528,
                    "duration": 0.10623225000000502
                },
                {
                    "name": "A#1",
                    "midi": 34,
                    "time": 227.12455050000153,
                    "velocity": 0.3858267716535433,
                    "duration": 0.10623225000000502
                },
                {
                    "name": "A#2",
                    "midi": 46,
                    "time": 227.12455050000153,
                    "velocity": 0.4566929133858268,
                    "duration": 0.10623225000000502
                },
                {
                    "name": "A1",
                    "midi": 33,
                    "time": 227.33701500000154,
                    "velocity": 0.4094488188976378,
                    "duration": 0.10623225000000502
                },
                {
                    "name": "A2",
                    "midi": 45,
                    "time": 227.33701500000154,
                    "velocity": 0.4881889763779528,
                    "duration": 0.10623225000000502
                },
                {
                    "name": "G1",
                    "midi": 31,
                    "time": 227.54947950000155,
                    "velocity": 0.3779527559055118,
                    "duration": 0.10623225000000502
                },
                {
                    "name": "G2",
                    "midi": 43,
                    "time": 227.54947950000155,
                    "velocity": 0.44881889763779526,
                    "duration": 0.10623225000000502
                },
                {
                    "name": "F1",
                    "midi": 29,
                    "time": 227.76194400000156,
                    "velocity": 0.4566929133858268,
                    "duration": 0.10623225000000502
                },
                {
                    "name": "F2",
                    "midi": 41,
                    "time": 227.76194400000156,
                    "velocity": 0.5433070866141733,
                    "duration": 0.10623225000000502
                },
                {
                    "name": "C3",
                    "midi": 48,
                    "time": 228.18687300000155,
                    "velocity": 0.2677165354330709,
                    "duration": 0.10623225000000502
                },
                {
                    "name": "G3",
                    "midi": 55,
                    "time": 228.18687300000155,
                    "velocity": 0.2677165354330709,
                    "duration": 0.10623225000000502
                },
                {
                    "name": "A#3",
                    "midi": 58,
                    "time": 228.18687300000155,
                    "velocity": 0.3228346456692913,
                    "duration": 0.10623225000000502
                },
                {
                    "name": "F3",
                    "midi": 53,
                    "time": 228.61180200000155,
                    "velocity": 0.3228346456692913,
                    "duration": 0.10623225000000502
                },
                {
                    "name": "A3",
                    "midi": 57,
                    "time": 228.61180200000155,
                    "velocity": 0.3858267716535433,
                    "duration": 0.10623225000000502
                },
                {
                    "name": "C4",
                    "midi": 60,
                    "time": 229.03673100000154,
                    "velocity": 0.2677165354330709,
                    "duration": 0.10623225000000502
                },
                {
                    "name": "G4",
                    "midi": 67,
                    "time": 229.03673100000154,
                    "velocity": 0.2677165354330709,
                    "duration": 0.10623225000000502
                },
                {
                    "name": "A#4",
                    "midi": 70,
                    "time": 229.03673100000154,
                    "velocity": 0.3228346456692913,
                    "duration": 0.10623225000000502
                },
                {
                    "name": "F4",
                    "midi": 65,
                    "time": 229.46166000000153,
                    "velocity": 0.3228346456692913,
                    "duration": 0.10623225000000502
                },
                {
                    "name": "A4",
                    "midi": 69,
                    "time": 229.46166000000153,
                    "velocity": 0.3858267716535433,
                    "duration": 0.10623225000000502
                },
                {
                    "name": "C3",
                    "midi": 48,
                    "time": 230.31151800000154,
                    "velocity": 0.4409448818897638,
                    "duration": 0.4249289999999917
                },
                {
                    "name": "C4",
                    "midi": 60,
                    "time": 230.31151800000154,
                    "velocity": 0.5275590551181102,
                    "duration": 0.4249289999999917
                },
                {
                    "name": "F2",
                    "midi": 41,
                    "time": 231.16137600000152,
                    "velocity": 0.5039370078740157,
                    "duration": 0.4249289999999917
                },
                {
                    "name": "F3",
                    "midi": 53,
                    "time": 231.16137600000152,
                    "velocity": 0.5984251968503937,
                    "duration": 0.4249289999999917
                },
                {
                    "name": "C3",
                    "midi": 48,
                    "time": 233.2860210000015,
                    "velocity": 0.33070866141732286,
                    "duration": 0.10623225000000502
                },
                {
                    "name": "B2",
                    "midi": 47,
                    "time": 233.39225325000152,
                    "velocity": 0.31496062992125984,
                    "duration": 0.10623225000000502
                },
                {
                    "name": "C3",
                    "midi": 48,
                    "time": 233.49848550000152,
                    "velocity": 0.3543307086614173,
                    "duration": 0.10623225000000502
                },
                {
                    "name": "A2",
                    "midi": 45,
                    "time": 233.60471775000153,
                    "velocity": 0.30708661417322836,
                    "duration": 0.10623225000000502
                },
                {
                    "name": "F3",
                    "midi": 53,
                    "time": 233.71095000000153,
                    "velocity": 0.3937007874015748,
                    "duration": 0.10623225000000502
                },
                {
                    "name": "C3",
                    "midi": 48,
                    "time": 234.98573700000154,
                    "velocity": 0.33070866141732286,
                    "duration": 0.10623225000000502
                },
                {
                    "name": "B2",
                    "midi": 47,
                    "time": 235.09196925000154,
                    "velocity": 0.31496062992125984,
                    "duration": 0.10623225000000502
                },
                {
                    "name": "C3",
                    "midi": 48,
                    "time": 235.19820150000155,
                    "velocity": 0.3543307086614173,
                    "duration": 0.10623225000000502
                },
                {
                    "name": "A2",
                    "midi": 45,
                    "time": 235.30443375000155,
                    "velocity": 0.30708661417322836,
                    "duration": 0.10623225000000502
                },
                {
                    "name": "F3",
                    "midi": 53,
                    "time": 235.41066600000156,
                    "velocity": 0.3937007874015748,
                    "duration": 0.10623225000000502
                },
                {
                    "name": "F2",
                    "midi": 41,
                    "time": 236.26052400000157,
                    "velocity": 0.4409448818897638,
                    "duration": 0.6373935000000017
                },
                {
                    "name": "F3",
                    "midi": 53,
                    "time": 236.26052400000157,
                    "velocity": 0.5196850393700787,
                    "duration": 0.6373935000000017
                },
                {
                    "name": "G2",
                    "midi": 43,
                    "time": 236.89791750000157,
                    "velocity": 0.3858267716535433,
                    "duration": 0.10623225000000502
                },
                {
                    "name": "G3",
                    "midi": 55,
                    "time": 236.89791750000157,
                    "velocity": 0.4645669291338583,
                    "duration": 0.10623225000000502
                },
                {
                    "name": "A2",
                    "midi": 45,
                    "time": 237.11038200000158,
                    "velocity": 0.4409448818897638,
                    "duration": 0.6373935000000017
                },
                {
                    "name": "A3",
                    "midi": 57,
                    "time": 237.11038200000158,
                    "velocity": 0.5196850393700787,
                    "duration": 0.6373935000000017
                },
                {
                    "name": "A#2",
                    "midi": 46,
                    "time": 237.74777550000158,
                    "velocity": 0.3937007874015748,
                    "duration": 0.10623225000000502
                },
                {
                    "name": "A#3",
                    "midi": 58,
                    "time": 237.74777550000158,
                    "velocity": 0.47244094488188976,
                    "duration": 0.10623225000000502
                },
                {
                    "name": "C3",
                    "midi": 48,
                    "time": 237.9602400000016,
                    "velocity": 0.44881889763779526,
                    "duration": 0.6373935000000017
                },
                {
                    "name": "C4",
                    "midi": 60,
                    "time": 237.9602400000016,
                    "velocity": 0.5354330708661418,
                    "duration": 0.6373935000000017
                },
                {
                    "name": "D3",
                    "midi": 50,
                    "time": 238.5976335000016,
                    "velocity": 0.3700787401574803,
                    "duration": 0.10623225000000502
                },
                {
                    "name": "D4",
                    "midi": 62,
                    "time": 238.5976335000016,
                    "velocity": 0.4409448818897638,
                    "duration": 0.10623225000000502
                },
                {
                    "name": "D#3",
                    "midi": 51,
                    "time": 238.8100980000016,
                    "velocity": 0.41732283464566927,
                    "duration": 0.10623225000000502
                },
                {
                    "name": "D#4",
                    "midi": 63,
                    "time": 238.8100980000016,
                    "velocity": 0.49606299212598426,
                    "duration": 0.10623225000000502
                },
                {
                    "name": "D3",
                    "midi": 50,
                    "time": 239.0225625000016,
                    "velocity": 0.3937007874015748,
                    "duration": 0.10623225000000502
                },
                {
                    "name": "D4",
                    "midi": 62,
                    "time": 239.0225625000016,
                    "velocity": 0.47244094488188976,
                    "duration": 0.10623225000000502
                },
                {
                    "name": "C3",
                    "midi": 48,
                    "time": 239.23502700000162,
                    "velocity": 0.4330708661417323,
                    "duration": 0.10623225000000502
                },
                {
                    "name": "C4",
                    "midi": 60,
                    "time": 239.23502700000162,
                    "velocity": 0.5118110236220472,
                    "duration": 0.10623225000000502
                },
                {
                    "name": "D3",
                    "midi": 50,
                    "time": 239.44749150000163,
                    "velocity": 0.4015748031496063,
                    "duration": 0.10623225000000502
                },
                {
                    "name": "D4",
                    "midi": 62,
                    "time": 239.44749150000163,
                    "velocity": 0.48031496062992124,
                    "duration": 0.10623225000000502
                },
                {
                    "name": "D#3",
                    "midi": 51,
                    "time": 239.65995600000164,
                    "velocity": 0.44881889763779526,
                    "duration": 0.6373935000000017
                },
                {
                    "name": "D#4",
                    "midi": 63,
                    "time": 239.65995600000164,
                    "velocity": 0.5354330708661418,
                    "duration": 0.6373935000000017
                },
                {
                    "name": "D3",
                    "midi": 50,
                    "time": 240.29734950000164,
                    "velocity": 0.3464566929133858,
                    "duration": 0.10623225000000502
                },
                {
                    "name": "D4",
                    "midi": 62,
                    "time": 240.29734950000164,
                    "velocity": 0.41732283464566927,
                    "duration": 0.10623225000000502
                },
                {
                    "name": "C3",
                    "midi": 48,
                    "time": 240.50981400000165,
                    "velocity": 0.3937007874015748,
                    "duration": 0.10623225000000502
                },
                {
                    "name": "C4",
                    "midi": 60,
                    "time": 240.50981400000165,
                    "velocity": 0.4645669291338583,
                    "duration": 0.10623225000000502
                },
                {
                    "name": "A#2",
                    "midi": 46,
                    "time": 240.72227850000166,
                    "velocity": 0.3700787401574803,
                    "duration": 0.10623225000000502
                },
                {
                    "name": "A#3",
                    "midi": 58,
                    "time": 240.72227850000166,
                    "velocity": 0.44881889763779526,
                    "duration": 0.10623225000000502
                },
                {
                    "name": "A2",
                    "midi": 45,
                    "time": 240.93474300000167,
                    "velocity": 0.4094488188976378,
                    "duration": 0.10623225000000502
                },
                {
                    "name": "A3",
                    "midi": 57,
                    "time": 240.93474300000167,
                    "velocity": 0.48031496062992124,
                    "duration": 0.10623225000000502
                },
                {
                    "name": "A#2",
                    "midi": 46,
                    "time": 241.14720750000168,
                    "velocity": 0.3779527559055118,
                    "duration": 0.10623225000000502
                },
                {
                    "name": "A#3",
                    "midi": 58,
                    "time": 241.14720750000168,
                    "velocity": 0.44881889763779526,
                    "duration": 0.10623225000000502
                },
                {
                    "name": "C3",
                    "midi": 48,
                    "time": 241.3596720000017,
                    "velocity": 0.4251968503937008,
                    "duration": 0.6373935000000017
                },
                {
                    "name": "C4",
                    "midi": 60,
                    "time": 241.3596720000017,
                    "velocity": 0.5039370078740157,
                    "duration": 0.6373935000000017
                },
                {
                    "name": "A#2",
                    "midi": 46,
                    "time": 241.9970655000017,
                    "velocity": 0.33858267716535434,
                    "duration": 0.10623225000000502
                },
                {
                    "name": "A#3",
                    "midi": 58,
                    "time": 241.9970655000017,
                    "velocity": 0.4094488188976378,
                    "duration": 0.10623225000000502
                },
                {
                    "name": "A2",
                    "midi": 45,
                    "time": 242.2095300000017,
                    "velocity": 0.3700787401574803,
                    "duration": 0.10623225000000502
                },
                {
                    "name": "A3",
                    "midi": 57,
                    "time": 242.2095300000017,
                    "velocity": 0.4409448818897638,
                    "duration": 0.10623225000000502
                },
                {
                    "name": "G2",
                    "midi": 43,
                    "time": 242.42199450000172,
                    "velocity": 0.3464566929133858,
                    "duration": 0.10623225000000502
                },
                {
                    "name": "G3",
                    "midi": 55,
                    "time": 242.42199450000172,
                    "velocity": 0.4094488188976378,
                    "duration": 0.10623225000000502
                },
                {
                    "name": "F#2",
                    "midi": 42,
                    "time": 242.63445900000173,
                    "velocity": 0.36220472440944884,
                    "duration": 0.10623225000000502
                },
                {
                    "name": "F#3",
                    "midi": 54,
                    "time": 242.63445900000173,
                    "velocity": 0.4330708661417323,
                    "duration": 0.10623225000000502
                },
                {
                    "name": "E2",
                    "midi": 40,
                    "time": 242.84692350000174,
                    "velocity": 0.33070866141732286,
                    "duration": 0.10623225000000502
                },
                {
                    "name": "E3",
                    "midi": 52,
                    "time": 242.84692350000174,
                    "velocity": 0.3937007874015748,
                    "duration": 0.10623225000000502
                },
                {
                    "name": "D2",
                    "midi": 38,
                    "time": 243.05938800000175,
                    "velocity": 0.23622047244094488,
                    "duration": 0.10623225000000502
                },
                {
                    "name": "D3",
                    "midi": 50,
                    "time": 243.16562025000175,
                    "velocity": 0.2047244094488189,
                    "duration": 0.10623225000000502
                },
                {
                    "name": "D2",
                    "midi": 38,
                    "time": 243.27185250000176,
                    "velocity": 0.23622047244094488,
                    "duration": 0.10623225000000502
                },
                {
                    "name": "D3",
                    "midi": 50,
                    "time": 243.37808475000176,
                    "velocity": 0.1968503937007874,
                    "duration": 0.10623225000000502
                },
                {
                    "name": "D2",
                    "midi": 38,
                    "time": 243.48431700000177,
                    "velocity": 0.23622047244094488,
                    "duration": 0.10623225000000502
                },
                {
                    "name": "D3",
                    "midi": 50,
                    "time": 243.59054925000177,
                    "velocity": 0.2047244094488189,
                    "duration": 0.10623225000000502
                },
                {
                    "name": "D2",
                    "midi": 38,
                    "time": 243.69678150000178,
                    "velocity": 0.23622047244094488,
                    "duration": 0.10623225000000502
                },
                {
                    "name": "D3",
                    "midi": 50,
                    "time": 243.80301375000178,
                    "velocity": 0.2125984251968504,
                    "duration": 0.10623225000000502
                },
                {
                    "name": "D2",
                    "midi": 38,
                    "time": 243.9092460000018,
                    "velocity": 0.23622047244094488,
                    "duration": 0.10623225000000502
                },
                {
                    "name": "D3",
                    "midi": 50,
                    "time": 244.0154782500018,
                    "velocity": 0.2125984251968504,
                    "duration": 0.10623225000000502
                },
                {
                    "name": "D2",
                    "midi": 38,
                    "time": 244.1217105000018,
                    "velocity": 0.23622047244094488,
                    "duration": 0.10623225000000502
                },
                {
                    "name": "D3",
                    "midi": 50,
                    "time": 244.2279427500018,
                    "velocity": 0.1968503937007874,
                    "duration": 0.10623225000000502
                },
                {
                    "name": "D2",
                    "midi": 38,
                    "time": 244.3341750000018,
                    "velocity": 0.23622047244094488,
                    "duration": 0.10623225000000502
                },
                {
                    "name": "D3",
                    "midi": 50,
                    "time": 244.4404072500018,
                    "velocity": 0.2047244094488189,
                    "duration": 0.10623225000000502
                },
                {
                    "name": "D2",
                    "midi": 38,
                    "time": 244.54663950000182,
                    "velocity": 0.23622047244094488,
                    "duration": 0.10623225000000502
                },
                {
                    "name": "D3",
                    "midi": 50,
                    "time": 244.65287175000182,
                    "velocity": 0.2047244094488189,
                    "duration": 0.10623225000000502
                },
                {
                    "name": "D2",
                    "midi": 38,
                    "time": 244.75910400000183,
                    "velocity": 0.23622047244094488,
                    "duration": 0.10623225000000502
                },
                {
                    "name": "D3",
                    "midi": 50,
                    "time": 244.86533625000183,
                    "velocity": 0.2047244094488189,
                    "duration": 0.10623225000000502
                },
                {
                    "name": "D2",
                    "midi": 38,
                    "time": 244.97156850000184,
                    "velocity": 0.23622047244094488,
                    "duration": 0.10623225000000502
                },
                {
                    "name": "D3",
                    "midi": 50,
                    "time": 245.07780075000184,
                    "velocity": 0.1968503937007874,
                    "duration": 0.10623225000000502
                },
                {
                    "name": "D2",
                    "midi": 38,
                    "time": 245.18403300000185,
                    "velocity": 0.23622047244094488,
                    "duration": 0.10623225000000502
                },
                {
                    "name": "D3",
                    "midi": 50,
                    "time": 245.29026525000185,
                    "velocity": 0.2047244094488189,
                    "duration": 0.10623225000000502
                },
                {
                    "name": "D2",
                    "midi": 38,
                    "time": 245.39649750000186,
                    "velocity": 0.23622047244094488,
                    "duration": 0.10623225000000502
                },
                {
                    "name": "D3",
                    "midi": 50,
                    "time": 245.50272975000186,
                    "velocity": 0.2125984251968504,
                    "duration": 0.10623225000000502
                },
                {
                    "name": "D2",
                    "midi": 38,
                    "time": 245.60896200000187,
                    "velocity": 0.23622047244094488,
                    "duration": 0.10623225000000502
                },
                {
                    "name": "D3",
                    "midi": 50,
                    "time": 245.71519425000187,
                    "velocity": 0.2125984251968504,
                    "duration": 0.10623225000000502
                },
                {
                    "name": "D2",
                    "midi": 38,
                    "time": 245.82142650000188,
                    "velocity": 0.23622047244094488,
                    "duration": 0.10623225000000502
                },
                {
                    "name": "D3",
                    "midi": 50,
                    "time": 245.92765875000188,
                    "velocity": 0.1968503937007874,
                    "duration": 0.10623225000000502
                },
                {
                    "name": "D2",
                    "midi": 38,
                    "time": 246.0338910000019,
                    "velocity": 0.23622047244094488,
                    "duration": 0.10623225000000502
                },
                {
                    "name": "D3",
                    "midi": 50,
                    "time": 246.1401232500019,
                    "velocity": 0.2047244094488189,
                    "duration": 0.10623225000000502
                },
                {
                    "name": "D2",
                    "midi": 38,
                    "time": 246.2463555000019,
                    "velocity": 0.23622047244094488,
                    "duration": 0.10623225000000502
                },
                {
                    "name": "D3",
                    "midi": 50,
                    "time": 246.3525877500019,
                    "velocity": 0.2047244094488189,
                    "duration": 0.10623225000000502
                },
                {
                    "name": "D2",
                    "midi": 38,
                    "time": 246.4588200000019,
                    "velocity": 0.23622047244094488,
                    "duration": 0.10623225000000502
                },
                {
                    "name": "D3",
                    "midi": 50,
                    "time": 246.5650522500019,
                    "velocity": 0.2047244094488189,
                    "duration": 0.10623225000000502
                },
                {
                    "name": "D2",
                    "midi": 38,
                    "time": 246.67128450000192,
                    "velocity": 0.23622047244094488,
                    "duration": 0.10623225000000502
                },
                {
                    "name": "D3",
                    "midi": 50,
                    "time": 246.77751675000192,
                    "velocity": 0.1968503937007874,
                    "duration": 0.10623225000000502
                },
                {
                    "name": "D2",
                    "midi": 38,
                    "time": 246.88374900000193,
                    "velocity": 0.23622047244094488,
                    "duration": 0.10623225000000502
                },
                {
                    "name": "D3",
                    "midi": 50,
                    "time": 246.98998125000193,
                    "velocity": 0.2047244094488189,
                    "duration": 0.10623225000000502
                },
                {
                    "name": "D2",
                    "midi": 38,
                    "time": 247.09621350000194,
                    "velocity": 0.23622047244094488,
                    "duration": 0.10623225000000502
                },
                {
                    "name": "D3",
                    "midi": 50,
                    "time": 247.20244575000194,
                    "velocity": 0.2125984251968504,
                    "duration": 0.10623225000000502
                },
                {
                    "name": "D2",
                    "midi": 38,
                    "time": 247.30867800000195,
                    "velocity": 0.23622047244094488,
                    "duration": 0.10623225000000502
                },
                {
                    "name": "D3",
                    "midi": 50,
                    "time": 247.41491025000195,
                    "velocity": 0.2125984251968504,
                    "duration": 0.10623225000000502
                },
                {
                    "name": "D2",
                    "midi": 38,
                    "time": 247.52114250000196,
                    "velocity": 0.23622047244094488,
                    "duration": 0.10623225000000502
                },
                {
                    "name": "D3",
                    "midi": 50,
                    "time": 247.62737475000196,
                    "velocity": 0.1968503937007874,
                    "duration": 0.10623225000000502
                },
                {
                    "name": "D2",
                    "midi": 38,
                    "time": 247.73360700000197,
                    "velocity": 0.23622047244094488,
                    "duration": 0.10623225000000502
                },
                {
                    "name": "D3",
                    "midi": 50,
                    "time": 247.83983925000197,
                    "velocity": 0.2047244094488189,
                    "duration": 0.10623225000000502
                },
                {
                    "name": "D2",
                    "midi": 38,
                    "time": 247.94607150000198,
                    "velocity": 0.23622047244094488,
                    "duration": 0.10623225000000502
                },
                {
                    "name": "D3",
                    "midi": 50,
                    "time": 248.05230375000198,
                    "velocity": 0.2047244094488189,
                    "duration": 0.10623225000000502
                },
                {
                    "name": "D2",
                    "midi": 38,
                    "time": 248.158536000002,
                    "velocity": 0.23622047244094488,
                    "duration": 0.10623225000000502
                },
                {
                    "name": "D3",
                    "midi": 50,
                    "time": 248.264768250002,
                    "velocity": 0.2047244094488189,
                    "duration": 0.10623225000000502
                },
                {
                    "name": "D2",
                    "midi": 38,
                    "time": 248.371000500002,
                    "velocity": 0.23622047244094488,
                    "duration": 0.10623225000000502
                },
                {
                    "name": "D3",
                    "midi": 50,
                    "time": 248.477232750002,
                    "velocity": 0.1968503937007874,
                    "duration": 0.10623225000000502
                },
                {
                    "name": "D2",
                    "midi": 38,
                    "time": 248.583465000002,
                    "velocity": 0.23622047244094488,
                    "duration": 0.10623225000000502
                },
                {
                    "name": "D3",
                    "midi": 50,
                    "time": 248.689697250002,
                    "velocity": 0.2047244094488189,
                    "duration": 0.10623225000000502
                },
                {
                    "name": "D2",
                    "midi": 38,
                    "time": 248.79592950000202,
                    "velocity": 0.23622047244094488,
                    "duration": 0.10623225000000502
                },
                {
                    "name": "D3",
                    "midi": 50,
                    "time": 248.90216175000202,
                    "velocity": 0.2125984251968504,
                    "duration": 0.10623225000000502
                },
                {
                    "name": "D2",
                    "midi": 38,
                    "time": 249.00839400000203,
                    "velocity": 0.23622047244094488,
                    "duration": 0.10623225000000502
                },
                {
                    "name": "D3",
                    "midi": 50,
                    "time": 249.11462625000203,
                    "velocity": 0.2125984251968504,
                    "duration": 0.10623225000000502
                },
                {
                    "name": "D2",
                    "midi": 38,
                    "time": 249.22085850000204,
                    "velocity": 0.23622047244094488,
                    "duration": 0.10623225000000502
                },
                {
                    "name": "D3",
                    "midi": 50,
                    "time": 249.32709075000204,
                    "velocity": 0.1968503937007874,
                    "duration": 0.10623225000000502
                },
                {
                    "name": "D2",
                    "midi": 38,
                    "time": 249.43332300000205,
                    "velocity": 0.23622047244094488,
                    "duration": 0.10623225000000502
                },
                {
                    "name": "D3",
                    "midi": 50,
                    "time": 249.53955525000205,
                    "velocity": 0.2047244094488189,
                    "duration": 0.10623225000000502
                },
                {
                    "name": "D2",
                    "midi": 38,
                    "time": 249.64578750000206,
                    "velocity": 0.23622047244094488,
                    "duration": 0.10623225000000502
                },
                {
                    "name": "D3",
                    "midi": 50,
                    "time": 249.75201975000206,
                    "velocity": 0.2047244094488189,
                    "duration": 0.10623225000000502
                },
                {
                    "name": "D2",
                    "midi": 38,
                    "time": 249.85825200000207,
                    "velocity": 0.23622047244094488,
                    "duration": 0.10623225000000502
                },
                {
                    "name": "D3",
                    "midi": 50,
                    "time": 249.96448425000207,
                    "velocity": 0.2047244094488189,
                    "duration": 0.10623225000000502
                },
                {
                    "name": "D2",
                    "midi": 38,
                    "time": 250.07071650000208,
                    "velocity": 0.23622047244094488,
                    "duration": 0.10623225000000502
                },
                {
                    "name": "D3",
                    "midi": 50,
                    "time": 250.17694875000208,
                    "velocity": 0.1968503937007874,
                    "duration": 0.10623225000000502
                },
                {
                    "name": "D2",
                    "midi": 38,
                    "time": 250.2831810000021,
                    "velocity": 0.23622047244094488,
                    "duration": 0.10623225000000502
                },
                {
                    "name": "D3",
                    "midi": 50,
                    "time": 250.3894132500021,
                    "velocity": 0.2047244094488189,
                    "duration": 0.10623225000000502
                },
                {
                    "name": "D2",
                    "midi": 38,
                    "time": 250.4956455000021,
                    "velocity": 0.23622047244094488,
                    "duration": 0.10623225000000502
                },
                {
                    "name": "D3",
                    "midi": 50,
                    "time": 250.6018777500021,
                    "velocity": 0.2125984251968504,
                    "duration": 0.10623225000000502
                },
                {
                    "name": "D2",
                    "midi": 38,
                    "time": 250.7081100000021,
                    "velocity": 0.23622047244094488,
                    "duration": 0.10623225000000502
                },
                {
                    "name": "D3",
                    "midi": 50,
                    "time": 250.8143422500021,
                    "velocity": 0.2125984251968504,
                    "duration": 0.10623225000000502
                },
                {
                    "name": "D2",
                    "midi": 38,
                    "time": 250.92057450000212,
                    "velocity": 0.23622047244094488,
                    "duration": 0.10623225000000502
                },
                {
                    "name": "D3",
                    "midi": 50,
                    "time": 251.02680675000212,
                    "velocity": 0.1968503937007874,
                    "duration": 0.10623225000000502
                },
                {
                    "name": "D2",
                    "midi": 38,
                    "time": 251.13303900000213,
                    "velocity": 0.23622047244094488,
                    "duration": 0.10623225000000502
                },
                {
                    "name": "D3",
                    "midi": 50,
                    "time": 251.23927125000213,
                    "velocity": 0.2047244094488189,
                    "duration": 0.10623225000000502
                },
                {
                    "name": "D2",
                    "midi": 38,
                    "time": 251.34550350000214,
                    "velocity": 0.23622047244094488,
                    "duration": 0.10623225000000502
                },
                {
                    "name": "D3",
                    "midi": 50,
                    "time": 251.45173575000214,
                    "velocity": 0.2047244094488189,
                    "duration": 0.10623225000000502
                },
                {
                    "name": "D2",
                    "midi": 38,
                    "time": 251.55796800000215,
                    "velocity": 0.23622047244094488,
                    "duration": 0.10623225000000502
                },
                {
                    "name": "D3",
                    "midi": 50,
                    "time": 251.66420025000215,
                    "velocity": 0.2047244094488189,
                    "duration": 0.10623225000000502
                },
                {
                    "name": "D2",
                    "midi": 38,
                    "time": 251.77043250000216,
                    "velocity": 0.23622047244094488,
                    "duration": 0.10623225000000502
                },
                {
                    "name": "D3",
                    "midi": 50,
                    "time": 251.87666475000216,
                    "velocity": 0.1968503937007874,
                    "duration": 0.10623225000000502
                },
                {
                    "name": "D2",
                    "midi": 38,
                    "time": 251.98289700000217,
                    "velocity": 0.23622047244094488,
                    "duration": 0.10623225000000502
                },
                {
                    "name": "D3",
                    "midi": 50,
                    "time": 252.08912925000217,
                    "velocity": 0.2047244094488189,
                    "duration": 0.10623225000000502
                },
                {
                    "name": "D2",
                    "midi": 38,
                    "time": 252.19536150000218,
                    "velocity": 0.23622047244094488,
                    "duration": 0.10623225000000502
                },
                {
                    "name": "D3",
                    "midi": 50,
                    "time": 252.30159375000218,
                    "velocity": 0.2125984251968504,
                    "duration": 0.10623225000000502
                },
                {
                    "name": "D2",
                    "midi": 38,
                    "time": 252.4078260000022,
                    "velocity": 0.1889763779527559,
                    "duration": 0.10623225000000502
                },
                {
                    "name": "D3",
                    "midi": 50,
                    "time": 252.5140582500022,
                    "velocity": 0.16535433070866143,
                    "duration": 0.10623225000000502
                },
                {
                    "name": "D2",
                    "midi": 38,
                    "time": 252.6202905000022,
                    "velocity": 0.1889763779527559,
                    "duration": 0.10623225000000502
                },
                {
                    "name": "D3",
                    "midi": 50,
                    "time": 252.7265227500022,
                    "velocity": 0.15748031496062992,
                    "duration": 0.10623225000000502
                },
                {
                    "name": "D2",
                    "midi": 38,
                    "time": 252.8327550000022,
                    "velocity": 0.1889763779527559,
                    "duration": 0.10623225000000502
                },
                {
                    "name": "D3",
                    "midi": 50,
                    "time": 252.9389872500022,
                    "velocity": 0.15748031496062992,
                    "duration": 0.10623225000000502
                },
                {
                    "name": "D2",
                    "midi": 38,
                    "time": 253.04521950000222,
                    "velocity": 0.1889763779527559,
                    "duration": 0.10623225000000502
                },
                {
                    "name": "D3",
                    "midi": 50,
                    "time": 253.15145175000222,
                    "velocity": 0.15748031496062992,
                    "duration": 0.10623225000000502
                },
                {
                    "name": "D2",
                    "midi": 38,
                    "time": 253.25768400000223,
                    "velocity": 0.7637795275590551,
                    "duration": 0.6373935000000017
                },
                {
                    "name": "E2",
                    "midi": 40,
                    "time": 253.89507750000223,
                    "velocity": 0.5511811023622047,
                    "duration": 0.10623225000000502
                },
                {
                    "name": "F#2",
                    "midi": 42,
                    "time": 254.10754200000224,
                    "velocity": 0.5354330708661418,
                    "duration": 0.6373935000000017
                },
                {
                    "name": "D3",
                    "midi": 50,
                    "time": 254.10754200000224,
                    "velocity": 0.6377952755905512,
                    "duration": 0.6373935000000017
                },
                {
                    "name": "G2",
                    "midi": 43,
                    "time": 254.74493550000224,
                    "velocity": 0.44881889763779526,
                    "duration": 0.10623225000000502
                },
                {
                    "name": "E3",
                    "midi": 52,
                    "time": 254.74493550000224,
                    "velocity": 0.5354330708661418,
                    "duration": 0.10623225000000502
                },
                {
                    "name": "C3",
                    "midi": 48,
                    "time": 254.95740000000225,
                    "velocity": 0.5039370078740157,
                    "duration": 0.6373935000000017
                },
                {
                    "name": "A2",
                    "midi": 45,
                    "time": 254.95740000000225,
                    "velocity": 0.5039370078740157,
                    "duration": 0.6373935000000017
                },
                {
                    "name": "F#3",
                    "midi": 54,
                    "time": 254.95740000000225,
                    "velocity": 0.5984251968503937,
                    "duration": 0.6373935000000017
                },
                {
                    "name": "D3",
                    "midi": 50,
                    "time": 255.59479350000225,
                    "velocity": 0.4251968503937008,
                    "duration": 0.10623225000000502
                },
                {
                    "name": "A#2",
                    "midi": 46,
                    "time": 255.59479350000225,
                    "velocity": 0.4251968503937008,
                    "duration": 0.10623225000000502
                },
                {
                    "name": "G3",
                    "midi": 55,
                    "time": 255.59479350000225,
                    "velocity": 0.5039370078740157,
                    "duration": 0.10623225000000502
                },
                {
                    "name": "F#3",
                    "midi": 54,
                    "time": 255.80725800000226,
                    "velocity": 0.48031496062992124,
                    "duration": 0.10623225000000502
                },
                {
                    "name": "A3",
                    "midi": 57,
                    "time": 255.80725800000226,
                    "velocity": 0.5669291338582677,
                    "duration": 0.10623225000000502
                },
                {
                    "name": "G3",
                    "midi": 55,
                    "time": 256.0197225000023,
                    "velocity": 0.4409448818897638,
                    "duration": 0.10623225000000502
                },
                {
                    "name": "A#3",
                    "midi": 58,
                    "time": 256.0197225000023,
                    "velocity": 0.5196850393700787,
                    "duration": 0.10623225000000502
                },
                {
                    "name": "A3",
                    "midi": 57,
                    "time": 256.2321870000023,
                    "velocity": 0.4881889763779528,
                    "duration": 0.10623225000000502
                },
                {
                    "name": "C4",
                    "midi": 60,
                    "time": 256.2321870000023,
                    "velocity": 0.5748031496062992,
                    "duration": 0.10623225000000502
                },
                {
                    "name": "A#3",
                    "midi": 58,
                    "time": 256.4446515000023,
                    "velocity": 0.4409448818897638,
                    "duration": 0.10623225000000502
                },
                {
                    "name": "D4",
                    "midi": 62,
                    "time": 256.4446515000023,
                    "velocity": 0.5196850393700787,
                    "duration": 0.10623225000000502
                },
                {
                    "name": "C4",
                    "midi": 60,
                    "time": 256.6571160000023,
                    "velocity": 0.5039370078740157,
                    "duration": 0.10623225000000502
                },
                {
                    "name": "D#4",
                    "midi": 63,
                    "time": 256.6571160000023,
                    "velocity": 0.5984251968503937,
                    "duration": 0.10623225000000502
                },
                {
                    "name": "G2",
                    "midi": 43,
                    "time": 260.0565480000023,
                    "velocity": 0.7637795275590551,
                    "duration": 0.6373934999999733
                },
                {
                    "name": "A2",
                    "midi": 45,
                    "time": 260.69394150000227,
                    "velocity": 0.5511811023622047,
                    "duration": 0.10623225000000502
                },
                {
                    "name": "B2",
                    "midi": 47,
                    "time": 260.9064060000023,
                    "velocity": 0.5354330708661418,
                    "duration": 0.6373934999999733
                },
                {
                    "name": "G3",
                    "midi": 55,
                    "time": 260.9064060000023,
                    "velocity": 0.6377952755905512,
                    "duration": 0.6373934999999733
                },
                {
                    "name": "C3",
                    "midi": 48,
                    "time": 261.54379950000225,
                    "velocity": 0.44881889763779526,
                    "duration": 0.10623225000000502
                },
                {
                    "name": "A3",
                    "midi": 57,
                    "time": 261.54379950000225,
                    "velocity": 0.5354330708661418,
                    "duration": 0.10623225000000502
                },
                {
                    "name": "F3",
                    "midi": 53,
                    "time": 261.75626400000226,
                    "velocity": 0.5039370078740157,
                    "duration": 0.6373934999999733
                },
                {
                    "name": "D3",
                    "midi": 50,
                    "time": 261.75626400000226,
                    "velocity": 0.5039370078740157,
                    "duration": 0.6373934999999733
                },
                {
                    "name": "B3",
                    "midi": 59,
                    "time": 261.75626400000226,
                    "velocity": 0.5984251968503937,
                    "duration": 0.6373934999999733
                },
                {
                    "name": "G3",
                    "midi": 55,
                    "time": 262.39365750000223,
                    "velocity": 0.4251968503937008,
                    "duration": 0.10623225000000502
                },
                {
                    "name": "D#3",
                    "midi": 51,
                    "time": 262.39365750000223,
                    "velocity": 0.4251968503937008,
                    "duration": 0.10623225000000502
                },
                {
                    "name": "C4",
                    "midi": 60,
                    "time": 262.39365750000223,
                    "velocity": 0.5039370078740157,
                    "duration": 0.10623225000000502
                },
                {
                    "name": "B3",
                    "midi": 59,
                    "time": 262.60612200000224,
                    "velocity": 0.48031496062992124,
                    "duration": 0.10623225000000502
                },
                {
                    "name": "D4",
                    "midi": 62,
                    "time": 262.60612200000224,
                    "velocity": 0.5669291338582677,
                    "duration": 0.10623225000000502
                },
                {
                    "name": "C4",
                    "midi": 60,
                    "time": 262.81858650000225,
                    "velocity": 0.4409448818897638,
                    "duration": 0.10623225000000502
                },
                {
                    "name": "D#4",
                    "midi": 63,
                    "time": 262.81858650000225,
                    "velocity": 0.5196850393700787,
                    "duration": 0.10623225000000502
                },
                {
                    "name": "D4",
                    "midi": 62,
                    "time": 263.03105100000226,
                    "velocity": 0.4881889763779528,
                    "duration": 0.10623225000000502
                },
                {
                    "name": "F4",
                    "midi": 65,
                    "time": 263.03105100000226,
                    "velocity": 0.5748031496062992,
                    "duration": 0.10623225000000502
                },
                {
                    "name": "D#4",
                    "midi": 63,
                    "time": 263.2435155000023,
                    "velocity": 0.4409448818897638,
                    "duration": 0.10623225000000502
                },
                {
                    "name": "G4",
                    "midi": 67,
                    "time": 263.2435155000023,
                    "velocity": 0.5196850393700787,
                    "duration": 0.10623225000000502
                },
                {
                    "name": "F4",
                    "midi": 65,
                    "time": 263.4559800000023,
                    "velocity": 0.5039370078740157,
                    "duration": 0.10623225000000502
                },
                {
                    "name": "G#4",
                    "midi": 68,
                    "time": 263.4559800000023,
                    "velocity": 0.5984251968503937,
                    "duration": 0.10623225000000502
                },
                {
                    "name": "C2",
                    "midi": 36,
                    "time": 266.8554120000023,
                    "velocity": 0.7637795275590551,
                    "duration": 0.6373934999999733
                },
                {
                    "name": "D2",
                    "midi": 38,
                    "time": 267.49280550000225,
                    "velocity": 0.5511811023622047,
                    "duration": 0.10623225000000502
                },
                {
                    "name": "E2",
                    "midi": 40,
                    "time": 267.70527000000226,
                    "velocity": 0.5354330708661418,
                    "duration": 0.6373934999999733
                },
                {
                    "name": "C3",
                    "midi": 48,
                    "time": 267.70527000000226,
                    "velocity": 0.6377952755905512,
                    "duration": 0.6373934999999733
                },
                {
                    "name": "F2",
                    "midi": 41,
                    "time": 268.34266350000223,
                    "velocity": 0.44881889763779526,
                    "duration": 0.10623225000000502
                },
                {
                    "name": "D3",
                    "midi": 50,
                    "time": 268.34266350000223,
                    "velocity": 0.5354330708661418,
                    "duration": 0.10623225000000502
                },
                {
                    "name": "A#2",
                    "midi": 46,
                    "time": 268.55512800000224,
                    "velocity": 0.5039370078740157,
                    "duration": 0.6373934999999733
                },
                {
                    "name": "G2",
                    "midi": 43,
                    "time": 268.55512800000224,
                    "velocity": 0.5039370078740157,
                    "duration": 0.6373934999999733
                },
                {
                    "name": "E3",
                    "midi": 52,
                    "time": 268.55512800000224,
                    "velocity": 0.5984251968503937,
                    "duration": 0.6373934999999733
                },
                {
                    "name": "C3",
                    "midi": 48,
                    "time": 269.1925215000022,
                    "velocity": 0.4251968503937008,
                    "duration": 0.10623225000000502
                },
                {
                    "name": "G#2",
                    "midi": 44,
                    "time": 269.1925215000022,
                    "velocity": 0.4251968503937008,
                    "duration": 0.10623225000000502
                },
                {
                    "name": "F3",
                    "midi": 53,
                    "time": 269.1925215000022,
                    "velocity": 0.5039370078740157,
                    "duration": 0.10623225000000502
                },
                {
                    "name": "E3",
                    "midi": 52,
                    "time": 269.4049860000022,
                    "velocity": 0.48031496062992124,
                    "duration": 0.10623225000000502
                },
                {
                    "name": "G3",
                    "midi": 55,
                    "time": 269.4049860000022,
                    "velocity": 0.5669291338582677,
                    "duration": 0.10623225000000502
                },
                {
                    "name": "F3",
                    "midi": 53,
                    "time": 269.61745050000224,
                    "velocity": 0.4409448818897638,
                    "duration": 0.10623225000000502
                },
                {
                    "name": "G#3",
                    "midi": 56,
                    "time": 269.61745050000224,
                    "velocity": 0.5196850393700787,
                    "duration": 0.10623225000000502
                },
                {
                    "name": "G3",
                    "midi": 55,
                    "time": 269.82991500000225,
                    "velocity": 0.4881889763779528,
                    "duration": 0.10623225000000502
                },
                {
                    "name": "A#3",
                    "midi": 58,
                    "time": 269.82991500000225,
                    "velocity": 0.5748031496062992,
                    "duration": 0.10623225000000502
                },
                {
                    "name": "G#3",
                    "midi": 56,
                    "time": 270.04237950000226,
                    "velocity": 0.4409448818897638,
                    "duration": 0.10623225000000502
                },
                {
                    "name": "C4",
                    "midi": 60,
                    "time": 270.04237950000226,
                    "velocity": 0.5196850393700787,
                    "duration": 0.10623225000000502
                },
                {
                    "name": "A#3",
                    "midi": 58,
                    "time": 270.25484400000227,
                    "velocity": 0.5039370078740157,
                    "duration": 0.10623225000000502
                },
                {
                    "name": "C#4",
                    "midi": 61,
                    "time": 270.25484400000227,
                    "velocity": 0.5984251968503937,
                    "duration": 0.10623225000000502
                },
                {
                    "name": "A#2",
                    "midi": 46,
                    "time": 271.9545600000023,
                    "velocity": 0.5984251968503937,
                    "duration": 1.6997160000000804
                },
                {
                    "name": "C#3",
                    "midi": 49,
                    "time": 272.3794890000023,
                    "velocity": 0.5275590551181102,
                    "duration": 1.2747870000000603
                },
                {
                    "name": "E3",
                    "midi": 52,
                    "time": 272.80441800000233,
                    "velocity": 0.5275590551181102,
                    "duration": 0.8498580000000402
                },
                {
                    "name": "G3",
                    "midi": 55,
                    "time": 273.22934700000235,
                    "velocity": 0.5275590551181102,
                    "duration": 0.4249290000000201
                },
                {
                    "name": "G#2",
                    "midi": 44,
                    "time": 273.65427600000237,
                    "velocity": 0.5984251968503937,
                    "duration": 1.6997160000000804
                },
                {
                    "name": "C3",
                    "midi": 48,
                    "time": 274.0792050000024,
                    "velocity": 0.5275590551181102,
                    "duration": 1.2747870000000603
                },
                {
                    "name": "F3",
                    "midi": 53,
                    "time": 274.5041340000024,
                    "velocity": 0.5275590551181102,
                    "duration": 0.8498580000000402
                },
                {
                    "name": "G#3",
                    "midi": 56,
                    "time": 274.92906300000243,
                    "velocity": 0.5275590551181102,
                    "duration": 0.4249290000000201
                },
                {
                    "name": "G#2",
                    "midi": 44,
                    "time": 275.35399200000245,
                    "velocity": 0.5984251968503937,
                    "duration": 1.6997160000000804
                },
                {
                    "name": "C3",
                    "midi": 48,
                    "time": 275.77892100000247,
                    "velocity": 0.5275590551181102,
                    "duration": 1.2747870000000603
                },
                {
                    "name": "F3",
                    "midi": 53,
                    "time": 276.2038500000025,
                    "velocity": 0.5275590551181102,
                    "duration": 0.8498580000000402
                },
                {
                    "name": "G#3",
                    "midi": 56,
                    "time": 276.6287790000025,
                    "velocity": 0.5275590551181102,
                    "duration": 0.4249290000000201
                },
                {
                    "name": "G2",
                    "midi": 43,
                    "time": 277.05370800000253,
                    "velocity": 0.5984251968503937,
                    "duration": 1.6997160000000804
                },
                {
                    "name": "D3",
                    "midi": 50,
                    "time": 277.47863700000255,
                    "velocity": 0.5275590551181102,
                    "duration": 1.2747870000000603
                },
                {
                    "name": "F3",
                    "midi": 53,
                    "time": 277.90356600000257,
                    "velocity": 0.5275590551181102,
                    "duration": 0.8498580000000402
                },
                {
                    "name": "G3",
                    "midi": 55,
                    "time": 278.3284950000026,
                    "velocity": 0.5275590551181102,
                    "duration": 0.4249290000000201
                },
                {
                    "name": "G2",
                    "midi": 43,
                    "time": 278.7534240000026,
                    "velocity": 0.5984251968503937,
                    "duration": 1.6997160000000804
                },
                {
                    "name": "B2",
                    "midi": 47,
                    "time": 279.17835300000263,
                    "velocity": 0.5275590551181102,
                    "duration": 1.2747870000000603
                },
                {
                    "name": "D3",
                    "midi": 50,
                    "time": 279.60328200000265,
                    "velocity": 0.5275590551181102,
                    "duration": 0.8498580000000402
                },
                {
                    "name": "G3",
                    "midi": 55,
                    "time": 280.02821100000267,
                    "velocity": 0.5275590551181102,
                    "duration": 0.4249290000000201
                },
                {
                    "name": "G2",
                    "midi": 43,
                    "time": 280.4531400000027,
                    "velocity": 0.5984251968503937,
                    "duration": 1.6997160000000804
                },
                {
                    "name": "C3",
                    "midi": 48,
                    "time": 280.8780690000027,
                    "velocity": 0.5275590551181102,
                    "duration": 1.2747870000000603
                },
                {
                    "name": "D#3",
                    "midi": 51,
                    "time": 281.30299800000273,
                    "velocity": 0.5196850393700787,
                    "duration": 0.8498580000000402
                },
                {
                    "name": "G3",
                    "midi": 55,
                    "time": 281.72792700000275,
                    "velocity": 0.5118110236220472,
                    "duration": 0.4249290000000201
                },
                {
                    "name": "F#2",
                    "midi": 42,
                    "time": 282.15285600000277,
                    "velocity": 0.5748031496062992,
                    "duration": 1.6997160000000804
                },
                {
                    "name": "C3",
                    "midi": 48,
                    "time": 282.5777850000028,
                    "velocity": 0.5039370078740157,
                    "duration": 1.2747870000000603
                },
                {
                    "name": "D#3",
                    "midi": 51,
                    "time": 283.0027140000028,
                    "velocity": 0.49606299212598426,
                    "duration": 0.8498580000000402
                },
                {
                    "name": "F#3",
                    "midi": 54,
                    "time": 283.42764300000283,
                    "velocity": 0.4881889763779528,
                    "duration": 0.4249290000000201
                },
                {
                    "name": "F2",
                    "midi": 41,
                    "time": 283.85257200000285,
                    "velocity": 0.5511811023622047,
                    "duration": 1.6997160000000804
                },
                {
                    "name": "C3",
                    "midi": 48,
                    "time": 284.27750100000287,
                    "velocity": 0.48031496062992124,
                    "duration": 1.2747870000000603
                },
                {
                    "name": "D#3",
                    "midi": 51,
                    "time": 284.7024300000029,
                    "velocity": 0.47244094488188976,
                    "duration": 0.8498580000000402
                },
                {
                    "name": "F3",
                    "midi": 53,
                    "time": 285.1273590000029,
                    "velocity": 0.47244094488188976,
                    "duration": 0.4249290000000201
                },
                {
                    "name": "F2",
                    "midi": 41,
                    "time": 285.55228800000293,
                    "velocity": 0.5275590551181102,
                    "duration": 1.6997160000000804
                },
                {
                    "name": "A2",
                    "midi": 45,
                    "time": 285.97721700000295,
                    "velocity": 0.4566929133858268,
                    "duration": 1.2747870000000603
                },
                {
                    "name": "C3",
                    "midi": 48,
                    "time": 286.402146000003,
                    "velocity": 0.4566929133858268,
                    "duration": 0.8498580000000402
                },
                {
                    "name": "F3",
                    "midi": 53,
                    "time": 286.827075000003,
                    "velocity": 0.44881889763779526,
                    "duration": 0.4249290000000201
                },
                {
                    "name": "F2",
                    "midi": 41,
                    "time": 287.252004000003,
                    "velocity": 0.5039370078740157,
                    "duration": 1.6997160000000804
                },
                {
                    "name": "A#2",
                    "midi": 46,
                    "time": 287.67693300000303,
                    "velocity": 0.4409448818897638,
                    "duration": 1.2747870000000603
                },
                {
                    "name": "C#3",
                    "midi": 49,
                    "time": 288.10186200000305,
                    "velocity": 0.4409448818897638,
                    "duration": 0.8498580000000402
                },
                {
                    "name": "F3",
                    "midi": 53,
                    "time": 288.5267910000031,
                    "velocity": 0.4330708661417323,
                    "duration": 0.4249290000000201
                },
                {
                    "name": "E2",
                    "midi": 40,
                    "time": 288.9517200000031,
                    "velocity": 0.4881889763779528,
                    "duration": 1.6997160000000804
                },
                {
                    "name": "A#2",
                    "midi": 46,
                    "time": 289.3766490000031,
                    "velocity": 0.4251968503937008,
                    "duration": 1.2747870000000603
                },
                {
                    "name": "C#3",
                    "midi": 49,
                    "time": 289.80157800000313,
                    "velocity": 0.41732283464566927,
                    "duration": 0.8498580000000402
                },
                {
                    "name": "E3",
                    "midi": 52,
                    "time": 290.22650700000315,
                    "velocity": 0.4094488188976378,
                    "duration": 0.4249290000000201
                },
                {
                    "name": "D#2",
                    "midi": 39,
                    "time": 290.6514360000032,
                    "velocity": 0.4645669291338583,
                    "duration": 1.6997160000000804
                },
                {
                    "name": "A#2",
                    "midi": 46,
                    "time": 291.0763650000032,
                    "velocity": 0.4015748031496063,
                    "duration": 1.2747870000000603
                },
                {
                    "name": "C#3",
                    "midi": 49,
                    "time": 291.5012940000032,
                    "velocity": 0.3937007874015748,
                    "duration": 0.8498580000000402
                },
                {
                    "name": "D#3",
                    "midi": 51,
                    "time": 291.92622300000323,
                    "velocity": 0.3937007874015748,
                    "duration": 0.4249290000000201
                },
                {
                    "name": "D#2",
                    "midi": 39,
                    "time": 292.35115200000325,
                    "velocity": 0.4409448818897638,
                    "duration": 1.6997160000000804
                },
                {
                    "name": "A#2",
                    "midi": 46,
                    "time": 292.7760810000033,
                    "velocity": 0.3779527559055118,
                    "duration": 1.2747870000000603
                },
                {
                    "name": "C#3",
                    "midi": 49,
                    "time": 293.2010100000033,
                    "velocity": 0.3779527559055118,
                    "duration": 0.8498580000000402
                },
                {
                    "name": "D#3",
                    "midi": 51,
                    "time": 293.6259390000033,
                    "velocity": 0.3700787401574803,
                    "duration": 0.4249290000000201
                },
                {
                    "name": "D#2",
                    "midi": 39,
                    "time": 294.05086800000333,
                    "velocity": 0.3858267716535433,
                    "duration": 0.6373934999999733
                },
                {
                    "name": "F2",
                    "midi": 41,
                    "time": 294.6882615000033,
                    "velocity": 0.3464566929133858,
                    "duration": 0.21246450000001005
                },
                {
                    "name": "G2",
                    "midi": 43,
                    "time": 294.9007260000033,
                    "velocity": 0.3858267716535433,
                    "duration": 0.6373934999999733
                },
                {
                    "name": "G#2",
                    "midi": 44,
                    "time": 295.5381195000033,
                    "velocity": 0.3464566929133858,
                    "duration": 0.21246450000001005
                },
                {
                    "name": "A#2",
                    "midi": 46,
                    "time": 295.7505840000033,
                    "velocity": 0.3700787401574803,
                    "duration": 0.6373934999999733
                },
                {
                    "name": "C3",
                    "midi": 48,
                    "time": 296.3879775000033,
                    "velocity": 0.3464566929133858,
                    "duration": 0.21246450000001005
                },
                {
                    "name": "C#3",
                    "midi": 49,
                    "time": 296.6004420000033,
                    "velocity": 0.36220472440944884,
                    "duration": 0.21246450000001005
                },
                {
                    "name": "C3",
                    "midi": 48,
                    "time": 296.8129065000033,
                    "velocity": 0.3464566929133858,
                    "duration": 0.21246450000001005
                },
                {
                    "name": "A#2",
                    "midi": 46,
                    "time": 297.0253710000033,
                    "velocity": 0.36220472440944884,
                    "duration": 0.21246450000001005
                },
                {
                    "name": "G#2",
                    "midi": 44,
                    "time": 297.2378355000033,
                    "velocity": 0.2992125984251969,
                    "duration": 0.21246450000001005
                },
                {
                    "name": "G2",
                    "midi": 43,
                    "time": 297.4503000000033,
                    "velocity": 0.3700787401574803,
                    "duration": 0.6373934999999733
                },
                {
                    "name": "G#2",
                    "midi": 44,
                    "time": 298.0876935000033,
                    "velocity": 0.3464566929133858,
                    "duration": 0.21246450000001005
                },
                {
                    "name": "A#2",
                    "midi": 46,
                    "time": 298.3001580000033,
                    "velocity": 0.36220472440944884,
                    "duration": 0.21246450000001005
                },
                {
                    "name": "G#2",
                    "midi": 44,
                    "time": 298.5126225000033,
                    "velocity": 0.3464566929133858,
                    "duration": 0.21246450000001005
                },
                {
                    "name": "G2",
                    "midi": 43,
                    "time": 298.7250870000033,
                    "velocity": 0.36220472440944884,
                    "duration": 0.21246450000001005
                },
                {
                    "name": "F2",
                    "midi": 41,
                    "time": 298.93755150000334,
                    "velocity": 0.2992125984251969,
                    "duration": 0.21246450000001005
                },
                {
                    "name": "D#2",
                    "midi": 39,
                    "time": 299.1544423437534,
                    "velocity": 0.3700787401574803,
                    "duration": 0.6373934999999733
                },
                {
                    "name": "C2",
                    "midi": 36,
                    "time": 300.84973200000337,
                    "velocity": 0.30708661417322836,
                    "duration": 0.6373934999999733
                },
                {
                    "name": "D2",
                    "midi": 38,
                    "time": 301.48712550000334,
                    "velocity": 0.2755905511811024,
                    "duration": 0.21246450000001005
                },
                {
                    "name": "E2",
                    "midi": 40,
                    "time": 301.69959000000335,
                    "velocity": 0.30708661417322836,
                    "duration": 0.6373934999999733
                },
                {
                    "name": "F2",
                    "midi": 41,
                    "time": 302.3369835000033,
                    "velocity": 0.2755905511811024,
                    "duration": 0.21246450000001005
                },
                {
                    "name": "G2",
                    "midi": 43,
                    "time": 302.54944800000334,
                    "velocity": 0.29133858267716534,
                    "duration": 0.6373934999999733
                },
                {
                    "name": "G#2",
                    "midi": 44,
                    "time": 303.1868415000033,
                    "velocity": 0.2755905511811024,
                    "duration": 0.21246450000001005
                },
                {
                    "name": "A#2",
                    "midi": 46,
                    "time": 303.3993060000033,
                    "velocity": 0.28346456692913385,
                    "duration": 0.21246450000001005
                },
                {
                    "name": "G#2",
                    "midi": 44,
                    "time": 303.61177050000333,
                    "velocity": 0.2755905511811024,
                    "duration": 0.21246450000001005
                },
                {
                    "name": "G2",
                    "midi": 43,
                    "time": 303.82423500000334,
                    "velocity": 0.28346456692913385,
                    "duration": 0.21246450000001005
                },
                {
                    "name": "F2",
                    "midi": 41,
                    "time": 304.03669950000335,
                    "velocity": 0.23622047244094488,
                    "duration": 0.21246450000001005
                },
                {
                    "name": "E2",
                    "midi": 40,
                    "time": 304.24916400000336,
                    "velocity": 0.29133858267716534,
                    "duration": 0.6373934999999733
                },
                {
                    "name": "F2",
                    "midi": 41,
                    "time": 304.88655750000333,
                    "velocity": 0.2755905511811024,
                    "duration": 0.21246450000001005
                },
                {
                    "name": "G2",
                    "midi": 43,
                    "time": 305.09902200000334,
                    "velocity": 0.28346456692913385,
                    "duration": 0.21246450000001005
                },
                {
                    "name": "F2",
                    "midi": 41,
                    "time": 305.31148650000335,
                    "velocity": 0.2755905511811024,
                    "duration": 0.21246450000001005
                },
                {
                    "name": "E2",
                    "midi": 40,
                    "time": 305.52395100000336,
                    "velocity": 0.28346456692913385,
                    "duration": 0.21246450000001005
                },
                {
                    "name": "D2",
                    "midi": 38,
                    "time": 305.7364155000034,
                    "velocity": 0.23622047244094488,
                    "duration": 0.21246450000001005
                },
                {
                    "name": "C2",
                    "midi": 36,
                    "time": 305.9488800000034,
                    "velocity": 0.29133858267716534,
                    "duration": 0.6373934999999733
                },
                {
                    "name": "F1",
                    "midi": 29,
                    "time": 307.64859600000335,
                    "velocity": 0.30708661417322836,
                    "duration": 0.6373934999999733
                },
                {
                    "name": "G1",
                    "midi": 31,
                    "time": 308.2859895000033,
                    "velocity": 0.2755905511811024,
                    "duration": 0.21246450000001005
                },
                {
                    "name": "A1",
                    "midi": 33,
                    "time": 308.49845400000333,
                    "velocity": 0.30708661417322836,
                    "duration": 0.6373934999999733
                },
                {
                    "name": "A#1",
                    "midi": 34,
                    "time": 309.1358475000033,
                    "velocity": 0.2755905511811024,
                    "duration": 0.21246450000001005
                },
                {
                    "name": "C2",
                    "midi": 36,
                    "time": 309.3483120000033,
                    "velocity": 0.29133858267716534,
                    "duration": 0.6373934999999733
                },
                {
                    "name": "C#2",
                    "midi": 37,
                    "time": 309.9857055000033,
                    "velocity": 0.2755905511811024,
                    "duration": 0.21246450000001005
                },
                {
                    "name": "D#2",
                    "midi": 39,
                    "time": 310.1981700000033,
                    "velocity": 0.28346456692913385,
                    "duration": 0.21246450000001005
                },
                {
                    "name": "C#2",
                    "midi": 37,
                    "time": 310.4106345000033,
                    "velocity": 0.2755905511811024,
                    "duration": 0.21246450000001005
                },
                {
                    "name": "C2",
                    "midi": 36,
                    "time": 310.6230990000033,
                    "velocity": 0.28346456692913385,
                    "duration": 0.21246450000001005
                },
                {
                    "name": "A#1",
                    "midi": 34,
                    "time": 310.83556350000333,
                    "velocity": 0.23622047244094488,
                    "duration": 0.21246450000001005
                },
                {
                    "name": "A1",
                    "midi": 33,
                    "time": 311.04802800000334,
                    "velocity": 0.29133858267716534,
                    "duration": 0.6373934999999733
                },
                {
                    "name": "A#1",
                    "midi": 34,
                    "time": 311.6854215000033,
                    "velocity": 0.2755905511811024,
                    "duration": 0.21246450000001005
                },
                {
                    "name": "C2",
                    "midi": 36,
                    "time": 311.8978860000033,
                    "velocity": 0.28346456692913385,
                    "duration": 0.21246450000001005
                },
                {
                    "name": "A#1",
                    "midi": 34,
                    "time": 312.11035050000334,
                    "velocity": 0.2755905511811024,
                    "duration": 0.21246450000001005
                },
                {
                    "name": "A1",
                    "midi": 33,
                    "time": 312.32281500000335,
                    "velocity": 0.28346456692913385,
                    "duration": 0.21246450000001005
                },
                {
                    "name": "G1",
                    "midi": 31,
                    "time": 312.53527950000336,
                    "velocity": 0.23622047244094488,
                    "duration": 0.21246450000001005
                },
                {
                    "name": "F1",
                    "midi": 29,
                    "time": 312.74774400000337,
                    "velocity": 0.29133858267716534,
                    "duration": 2.549574000000007
                },
                {
                    "name": "C2",
                    "midi": 36,
                    "time": 315.2973180000034,
                    "velocity": 0.28346456692913385,
                    "duration": 0.21246450000001005
                },
                {
                    "name": "A#1",
                    "midi": 34,
                    "time": 315.5097825000034,
                    "velocity": 0.2755905511811024,
                    "duration": 0.21246450000001005
                },
                {
                    "name": "A1",
                    "midi": 33,
                    "time": 315.7222470000034,
                    "velocity": 0.28346456692913385,
                    "duration": 0.21246450000001005
                },
                {
                    "name": "G1",
                    "midi": 31,
                    "time": 315.9347115000034,
                    "velocity": 0.23622047244094488,
                    "duration": 0.21246450000001005
                },
                {
                    "name": "F1",
                    "midi": 29,
                    "time": 316.1471760000034,
                    "velocity": 0.29133858267716534,
                    "duration": 2.549574000000007
                },
                {
                    "name": "C2",
                    "midi": 36,
                    "time": 318.6967500000034,
                    "velocity": 0.3228346456692913,
                    "duration": 0.21246450000001005
                },
                {
                    "name": "A#1",
                    "midi": 34,
                    "time": 318.90921450000343,
                    "velocity": 0.31496062992125984,
                    "duration": 0.21246450000001005
                },
                {
                    "name": "A1",
                    "midi": 33,
                    "time": 319.12167900000344,
                    "velocity": 0.3228346456692913,
                    "duration": 0.21246450000001005
                },
                {
                    "name": "G1",
                    "midi": 31,
                    "time": 319.33414350000345,
                    "velocity": 0.2677165354330709,
                    "duration": 0.21246450000001005
                },
                {
                    "name": "F1",
                    "midi": 29,
                    "time": 319.54660800000346,
                    "velocity": 0.33070866141732286,
                    "duration": 0.8498579999999833
                },
                {
                    "name": "C2",
                    "midi": 36,
                    "time": 320.39646600000344,
                    "velocity": 0.33858267716535434,
                    "duration": 0.21246450000001005
                },
                {
                    "name": "A#1",
                    "midi": 34,
                    "time": 320.60893050000345,
                    "velocity": 0.33858267716535434,
                    "duration": 0.21246450000001005
                },
                {
                    "name": "A1",
                    "midi": 33,
                    "time": 320.82139500000346,
                    "velocity": 0.36220472440944884,
                    "duration": 0.21246450000001005
                },
                {
                    "name": "G1",
                    "midi": 31,
                    "time": 321.0338595000035,
                    "velocity": 0.30708661417322836,
                    "duration": 0.21246450000001005
                },
                {
                    "name": "F1",
                    "midi": 29,
                    "time": 321.2463240000035,
                    "velocity": 0.3779527559055118,
                    "duration": 0.8498579999999833
                },
                {
                    "name": "C2",
                    "midi": 36,
                    "time": 322.09618200000347,
                    "velocity": 0.4015748031496063,
                    "duration": 0.21246450000001005
                },
                {
                    "name": "A#1",
                    "midi": 34,
                    "time": 322.3086465000035,
                    "velocity": 0.3937007874015748,
                    "duration": 0.21246450000001005
                },
                {
                    "name": "A1",
                    "midi": 33,
                    "time": 322.5211110000035,
                    "velocity": 0.4094488188976378,
                    "duration": 0.21246450000001005
                },
                {
                    "name": "G1",
                    "midi": 31,
                    "time": 322.7335755000035,
                    "velocity": 0.3464566929133858,
                    "duration": 0.21246450000001005
                },
                {
                    "name": "F1",
                    "midi": 29,
                    "time": 322.9460400000035,
                    "velocity": 0.4409448818897638,
                    "duration": 0.6373934999999733
                },
                {
                    "name": "G1",
                    "midi": 31,
                    "time": 323.5834335000035,
                    "velocity": 0.4251968503937008,
                    "duration": 0.21246450000001005
                },
                {
                    "name": "A1",
                    "midi": 33,
                    "time": 323.7958980000035,
                    "velocity": 0.4645669291338583,
                    "duration": 0.21246450000001005
                },
                {
                    "name": "A#1",
                    "midi": 34,
                    "time": 324.0083625000035,
                    "velocity": 0.4251968503937008,
                    "duration": 0.21246450000001005
                },
                {
                    "name": "C2",
                    "midi": 36,
                    "time": 324.2208270000035,
                    "velocity": 0.4881889763779528,
                    "duration": 0.21246450000001005
                },
                {
                    "name": "D2",
                    "midi": 38,
                    "time": 324.4332915000035,
                    "velocity": 0.4251968503937008,
                    "duration": 0.21246450000001005
                },
                {
                    "name": "D#2",
                    "midi": 39,
                    "time": 324.64575600000353,
                    "velocity": 0.4645669291338583,
                    "duration": 0.21246450000001005
                },
                {
                    "name": "E2",
                    "midi": 40,
                    "time": 324.85822050000354,
                    "velocity": 0.4251968503937008,
                    "duration": 0.21246450000001005
                },
                {
                    "name": "F2",
                    "midi": 41,
                    "time": 325.07068500000355,
                    "velocity": 0.5039370078740157,
                    "duration": 0.21246450000001005
                },
                {
                    "name": "G2",
                    "midi": 43,
                    "time": 325.28314950000356,
                    "velocity": 0.44881889763779526,
                    "duration": 0.21246450000001005
                },
                {
                    "name": "A2",
                    "midi": 45,
                    "time": 325.49561400000357,
                    "velocity": 0.4645669291338583,
                    "duration": 0.21246450000001005
                },
                {
                    "name": "A#2",
                    "midi": 46,
                    "time": 325.7080785000036,
                    "velocity": 0.4330708661417323,
                    "duration": 0.21246450000001005
                },
                {
                    "name": "C3",
                    "midi": 48,
                    "time": 325.9205430000036,
                    "velocity": 0.5196850393700787,
                    "duration": 0.21246450000001005
                },
                {
                    "name": "D3",
                    "midi": 50,
                    "time": 326.1330075000036,
                    "velocity": 0.47244094488188976,
                    "duration": 0.21246450000001005
                },
                {
                    "name": "D#3",
                    "midi": 51,
                    "time": 326.3454720000036,
                    "velocity": 0.49606299212598426,
                    "duration": 1.6997160000000235
                },
                {
                    "name": "F2",
                    "midi": 41,
                    "time": 326.3454720000036,
                    "velocity": 0.49606299212598426,
                    "duration": 1.6997160000000235
                },
                {
                    "name": "F2",
                    "midi": 41,
                    "time": 328.04518800000363,
                    "velocity": 0.3937007874015748,
                    "duration": 0.8498579999999833
                },
                {
                    "name": "C3",
                    "midi": 48,
                    "time": 328.04518800000363,
                    "velocity": 0.3937007874015748,
                    "duration": 0.8498579999999833
                },
                {
                    "name": "F2",
                    "midi": 41,
                    "time": 328.8950460000036,
                    "velocity": 0.33070866141732286,
                    "duration": 0.8498579999999833
                },
                {
                    "name": "A#2",
                    "midi": 46,
                    "time": 328.8950460000036,
                    "velocity": 0.33070866141732286,
                    "duration": 0.8498579999999833
                },
                {
                    "name": "F2",
                    "midi": 41,
                    "time": 329.7449040000036,
                    "velocity": 0.15748031496062992,
                    "duration": 2.762038500000017
                },
                {
                    "name": "A2",
                    "midi": 45,
                    "time": 329.7449040000036,
                    "velocity": 0.15748031496062992,
                    "duration": 2.762038500000017
                },
                {
                    "name": "F3",
                    "midi": 53,
                    "time": 329.7449040000036,
                    "velocity": 0.1968503937007874,
                    "duration": 2.762038500000017
                },
                {
                    "name": "A#1",
                    "midi": 34,
                    "time": 333.1443360000036,
                    "velocity": 0.23622047244094488,
                    "duration": 0.07967418750001798
                },
                {
                    "name": "A#2",
                    "midi": 46,
                    "time": 333.1443360000036,
                    "velocity": 0.28346456692913385,
                    "duration": 0.07967418750001798
                },
                {
                    "name": "A#1",
                    "midi": 34,
                    "time": 333.5692650000036,
                    "velocity": 0.2125984251968504,
                    "duration": 0.07967418750001798
                },
                {
                    "name": "A#2",
                    "midi": 46,
                    "time": 333.5692650000036,
                    "velocity": 0.25196850393700787,
                    "duration": 0.07967418750001798
                },
                {
                    "name": "A#1",
                    "midi": 34,
                    "time": 334.8440520000036,
                    "velocity": 0.23622047244094488,
                    "duration": 0.07967418750001798
                },
                {
                    "name": "A#2",
                    "midi": 46,
                    "time": 334.8440520000036,
                    "velocity": 0.28346456692913385,
                    "duration": 0.07967418750001798
                },
                {
                    "name": "A#1",
                    "midi": 34,
                    "time": 335.26898100000363,
                    "velocity": 0.2125984251968504,
                    "duration": 0.07967418750001798
                },
                {
                    "name": "A#2",
                    "midi": 46,
                    "time": 335.26898100000363,
                    "velocity": 0.25196850393700787,
                    "duration": 0.07967418750001798
                },
                {
                    "name": "A#2",
                    "midi": 46,
                    "time": 338.24348400000366,
                    "velocity": 0.3464566929133858,
                    "duration": 0.10623225000000502
                },
                {
                    "name": "D3",
                    "midi": 50,
                    "time": 338.34971625000367,
                    "velocity": 0.2440944881889764,
                    "duration": 0.10623225000000502
                },
                {
                    "name": "F3",
                    "midi": 53,
                    "time": 338.4559485000037,
                    "velocity": 0.2440944881889764,
                    "duration": 0.10623225000000502
                },
                {
                    "name": "A#3",
                    "midi": 58,
                    "time": 338.5621807500037,
                    "velocity": 0.2440944881889764,
                    "duration": 0.10623225000000502
                },
                {
                    "name": "A#2",
                    "midi": 46,
                    "time": 338.6684130000037,
                    "velocity": 0.3464566929133858,
                    "duration": 0.10623225000000502
                },
                {
                    "name": "D3",
                    "midi": 50,
                    "time": 338.7746452500037,
                    "velocity": 0.25196850393700787,
                    "duration": 0.10623225000000502
                },
                {
                    "name": "F3",
                    "midi": 53,
                    "time": 338.8808775000037,
                    "velocity": 0.25196850393700787,
                    "duration": 0.10623225000000502
                },
                {
                    "name": "A#3",
                    "midi": 58,
                    "time": 338.9871097500037,
                    "velocity": 0.25196850393700787,
                    "duration": 0.10623225000000502
                },
                {
                    "name": "A#2",
                    "midi": 46,
                    "time": 339.0933420000037,
                    "velocity": 0.3464566929133858,
                    "duration": 0.10623225000000502
                },
                {
                    "name": "D3",
                    "midi": 50,
                    "time": 339.1995742500037,
                    "velocity": 0.25984251968503935,
                    "duration": 0.10623225000000502
                },
                {
                    "name": "F3",
                    "midi": 53,
                    "time": 339.3058065000037,
                    "velocity": 0.25984251968503935,
                    "duration": 0.10623225000000502
                },
                {
                    "name": "A#3",
                    "midi": 58,
                    "time": 339.4120387500037,
                    "velocity": 0.25984251968503935,
                    "duration": 0.10623225000000502
                },
                {
                    "name": "A#2",
                    "midi": 46,
                    "time": 339.5182710000037,
                    "velocity": 0.3464566929133858,
                    "duration": 0.10623225000000502
                },
                {
                    "name": "D3",
                    "midi": 50,
                    "time": 339.6245032500037,
                    "velocity": 0.25984251968503935,
                    "duration": 0.10623225000000502
                },
                {
                    "name": "F3",
                    "midi": 53,
                    "time": 339.73073550000373,
                    "velocity": 0.25984251968503935,
                    "duration": 0.10623225000000502
                },
                {
                    "name": "A#3",
                    "midi": 58,
                    "time": 339.83696775000374,
                    "velocity": 0.25984251968503935,
                    "duration": 0.10623225000000502
                },
                {
                    "name": "A#2",
                    "midi": 46,
                    "time": 339.94320000000374,
                    "velocity": 0.3464566929133858,
                    "duration": 0.10623225000000502
                },
                {
                    "name": "D#3",
                    "midi": 51,
                    "time": 340.04943225000375,
                    "velocity": 0.2440944881889764,
                    "duration": 0.10623225000000502
                },
                {
                    "name": "G3",
                    "midi": 55,
                    "time": 340.15566450000375,
                    "velocity": 0.2440944881889764,
                    "duration": 0.10623225000000502
                },
                {
                    "name": "A#3",
                    "midi": 58,
                    "time": 340.26189675000376,
                    "velocity": 0.2440944881889764,
                    "duration": 0.10623225000000502
                },
                {
                    "name": "A#2",
                    "midi": 46,
                    "time": 340.36812900000376,
                    "velocity": 0.33070866141732286,
                    "duration": 0.10623225000000502
                },
                {
                    "name": "D#3",
                    "midi": 51,
                    "time": 340.47436125000377,
                    "velocity": 0.2204724409448819,
                    "duration": 0.10623225000000502
                },
                {
                    "name": "G3",
                    "midi": 55,
                    "time": 340.5805935000038,
                    "velocity": 0.2204724409448819,
                    "duration": 0.10623225000000502
                },
                {
                    "name": "A#3",
                    "midi": 58,
                    "time": 340.6868257500038,
                    "velocity": 0.2204724409448819,
                    "duration": 0.10623225000000502
                },
                {
                    "name": "A#2",
                    "midi": 46,
                    "time": 340.7930580000038,
                    "velocity": 0.3228346456692913,
                    "duration": 0.10623225000000502
                },
                {
                    "name": "D#3",
                    "midi": 51,
                    "time": 340.8992902500038,
                    "velocity": 0.2283464566929134,
                    "duration": 0.10623225000000502
                },
                {
                    "name": "F3",
                    "midi": 53,
                    "time": 341.0055225000038,
                    "velocity": 0.2283464566929134,
                    "duration": 0.10623225000000502
                },
                {
                    "name": "A3",
                    "midi": 57,
                    "time": 341.1117547500038,
                    "velocity": 0.2283464566929134,
                    "duration": 0.10623225000000502
                },
                {
                    "name": "A#2",
                    "midi": 46,
                    "time": 341.2179870000038,
                    "velocity": 0.3228346456692913,
                    "duration": 0.10623225000000502
                },
                {
                    "name": "D#3",
                    "midi": 51,
                    "time": 341.3242192500038,
                    "velocity": 0.2440944881889764,
                    "duration": 0.10623225000000502
                },
                {
                    "name": "F3",
                    "midi": 53,
                    "time": 341.4304515000038,
                    "velocity": 0.2440944881889764,
                    "duration": 0.10623225000000502
                },
                {
                    "name": "A3",
                    "midi": 57,
                    "time": 341.5366837500038,
                    "velocity": 0.2440944881889764,
                    "duration": 0.10623225000000502
                },
                {
                    "name": "A#2",
                    "midi": 46,
                    "time": 341.6429160000038,
                    "velocity": 0.3464566929133858,
                    "duration": 0.10623225000000502
                },
                {
                    "name": "D3",
                    "midi": 50,
                    "time": 341.7491482500038,
                    "velocity": 0.2440944881889764,
                    "duration": 0.10623225000000502
                },
                {
                    "name": "F3",
                    "midi": 53,
                    "time": 341.85538050000383,
                    "velocity": 0.2440944881889764,
                    "duration": 0.10623225000000502
                },
                {
                    "name": "A#3",
                    "midi": 58,
                    "time": 341.96161275000384,
                    "velocity": 0.2440944881889764,
                    "duration": 0.10623225000000502
                },
                {
                    "name": "A#2",
                    "midi": 46,
                    "time": 342.06784500000384,
                    "velocity": 0.3464566929133858,
                    "duration": 0.10623225000000502
                },
                {
                    "name": "D3",
                    "midi": 50,
                    "time": 342.17407725000385,
                    "velocity": 0.25196850393700787,
                    "duration": 0.10623225000000502
                },
                {
                    "name": "F3",
                    "midi": 53,
                    "time": 342.28030950000385,
                    "velocity": 0.25196850393700787,
                    "duration": 0.10623225000000502
                },
                {
                    "name": "A#3",
                    "midi": 58,
                    "time": 342.38654175000386,
                    "velocity": 0.25196850393700787,
                    "duration": 0.10623225000000502
                },
                {
                    "name": "A#2",
                    "midi": 46,
                    "time": 342.49277400000386,
                    "velocity": 0.3464566929133858,
                    "duration": 0.10623225000000502
                },
                {
                    "name": "D3",
                    "midi": 50,
                    "time": 342.59900625000387,
                    "velocity": 0.25196850393700787,
                    "duration": 0.10623225000000502
                },
                {
                    "name": "F3",
                    "midi": 53,
                    "time": 342.7052385000039,
                    "velocity": 0.25196850393700787,
                    "duration": 0.10623225000000502
                },
                {
                    "name": "G#3",
                    "midi": 56,
                    "time": 342.8114707500039,
                    "velocity": 0.25196850393700787,
                    "duration": 0.10623225000000502
                },
                {
                    "name": "A#2",
                    "midi": 46,
                    "time": 342.9177030000039,
                    "velocity": 0.3464566929133858,
                    "duration": 0.10623225000000502
                },
                {
                    "name": "D3",
                    "midi": 50,
                    "time": 343.0239352500039,
                    "velocity": 0.25196850393700787,
                    "duration": 0.10623225000000502
                },
                {
                    "name": "F3",
                    "midi": 53,
                    "time": 343.1301675000039,
                    "velocity": 0.25196850393700787,
                    "duration": 0.10623225000000502
                },
                {
                    "name": "G#3",
                    "midi": 56,
                    "time": 343.2363997500039,
                    "velocity": 0.25196850393700787,
                    "duration": 0.10623225000000502
                },
                {
                    "name": "A#2",
                    "midi": 46,
                    "time": 343.3426320000039,
                    "velocity": 0.3464566929133858,
                    "duration": 0.10623225000000502
                },
                {
                    "name": "D#3",
                    "midi": 51,
                    "time": 343.4488642500039,
                    "velocity": 0.25196850393700787,
                    "duration": 0.10623225000000502
                },
                {
                    "name": "G3",
                    "midi": 55,
                    "time": 343.5550965000039,
                    "velocity": 0.25196850393700787,
                    "duration": 0.10623225000000502
                },
                {
                    "name": "D#3",
                    "midi": 51,
                    "time": 343.6613287500039,
                    "velocity": 0.25196850393700787,
                    "duration": 0.10623225000000502
                },
                {
                    "name": "A#2",
                    "midi": 46,
                    "time": 343.7675610000039,
                    "velocity": 0.3464566929133858,
                    "duration": 0.10623225000000502
                },
                {
                    "name": "D#3",
                    "midi": 51,
                    "time": 343.8737932500039,
                    "velocity": 0.28346456692913385,
                    "duration": 0.10623225000000502
                },
                {
                    "name": "G3",
                    "midi": 55,
                    "time": 343.98002550000393,
                    "velocity": 0.28346456692913385,
                    "duration": 0.10623225000000502
                },
                {
                    "name": "D#3",
                    "midi": 51,
                    "time": 344.08625775000394,
                    "velocity": 0.28346456692913385,
                    "duration": 0.10623225000000502
                },
                {
                    "name": "A#2",
                    "midi": 46,
                    "time": 344.19249000000394,
                    "velocity": 0.3779527559055118,
                    "duration": 0.10623225000000502
                },
                {
                    "name": "C3",
                    "midi": 48,
                    "time": 344.29872225000395,
                    "velocity": 0.29133858267716534,
                    "duration": 0.10623225000000502
                },
                {
                    "name": "D#3",
                    "midi": 51,
                    "time": 344.40495450000395,
                    "velocity": 0.2992125984251969,
                    "duration": 0.10623225000000502
                },
                {
                    "name": "F3",
                    "midi": 53,
                    "time": 344.51118675000396,
                    "velocity": 0.31496062992125984,
                    "duration": 0.10623225000000502
                },
                {
                    "name": "A#2",
                    "midi": 46,
                    "time": 344.61741900000396,
                    "velocity": 0.3937007874015748,
                    "duration": 0.10623225000000502
                },
                {
                    "name": "C3",
                    "midi": 48,
                    "time": 344.72365125000397,
                    "velocity": 0.31496062992125984,
                    "duration": 0.10623225000000502
                },
                {
                    "name": "D#3",
                    "midi": 51,
                    "time": 344.829883500004,
                    "velocity": 0.30708661417322836,
                    "duration": 0.10623225000000502
                },
                {
                    "name": "F3",
                    "midi": 53,
                    "time": 344.936115750004,
                    "velocity": 0.33858267716535434,
                    "duration": 0.10623225000000502
                },
                {
                    "name": "A#2",
                    "midi": 46,
                    "time": 345.042348000004,
                    "velocity": 0.47244094488188976,
                    "duration": 0.10623225000000502
                },
                {
                    "name": "A#2",
                    "midi": 46,
                    "time": 345.467277000004,
                    "velocity": 0.41732283464566927,
                    "duration": 0.10623225000000502
                },
                {
                    "name": "A2",
                    "midi": 45,
                    "time": 345.573509250004,
                    "velocity": 0.36220472440944884,
                    "duration": 0.10623225000000502
                },
                {
                    "name": "A#2",
                    "midi": 46,
                    "time": 345.679741500004,
                    "velocity": 0.41732283464566927,
                    "duration": 0.10623225000000502
                },
                {
                    "name": "G2",
                    "midi": 43,
                    "time": 345.785973750004,
                    "velocity": 0.36220472440944884,
                    "duration": 0.10623225000000502
                },
                {
                    "name": "F2",
                    "midi": 41,
                    "time": 345.892206000004,
                    "velocity": 0.47244094488188976,
                    "duration": 0.10623225000000502
                },
                {
                    "name": "D#3",
                    "midi": 51,
                    "time": 346.31713500000404,
                    "velocity": 0.41732283464566927,
                    "duration": 0.10623225000000502
                },
                {
                    "name": "D3",
                    "midi": 50,
                    "time": 346.42336725000405,
                    "velocity": 0.36220472440944884,
                    "duration": 0.10623225000000502
                },
                {
                    "name": "D#3",
                    "midi": 51,
                    "time": 346.52959950000405,
                    "velocity": 0.41732283464566927,
                    "duration": 0.10623225000000502
                },
                {
                    "name": "C3",
                    "midi": 48,
                    "time": 346.63583175000406,
                    "velocity": 0.36220472440944884,
                    "duration": 0.10623225000000502
                },
                {
                    "name": "A#2",
                    "midi": 46,
                    "time": 346.74206400000406,
                    "velocity": 0.47244094488188976,
                    "duration": 0.10623225000000502
                },
                {
                    "name": "A#3",
                    "midi": 58,
                    "time": 347.1669930000041,
                    "velocity": 0.41732283464566927,
                    "duration": 0.10623225000000502
                },
                {
                    "name": "A3",
                    "midi": 57,
                    "time": 347.2732252500041,
                    "velocity": 0.36220472440944884,
                    "duration": 0.10623225000000502
                },
                {
                    "name": "A#3",
                    "midi": 58,
                    "time": 347.3794575000041,
                    "velocity": 0.41732283464566927,
                    "duration": 0.10623225000000502
                },
                {
                    "name": "G3",
                    "midi": 55,
                    "time": 347.4856897500041,
                    "velocity": 0.36220472440944884,
                    "duration": 0.10623225000000502
                },
                {
                    "name": "F3",
                    "midi": 53,
                    "time": 347.5919220000041,
                    "velocity": 0.47244094488188976,
                    "duration": 0.10623225000000502
                },
                {
                    "name": "D#4",
                    "midi": 63,
                    "time": 348.0168510000041,
                    "velocity": 0.47244094488188976,
                    "duration": 0.10623225000000502
                },
                {
                    "name": "D4",
                    "midi": 62,
                    "time": 348.12308325000413,
                    "velocity": 0.4094488188976378,
                    "duration": 0.10623225000000502
                },
                {
                    "name": "D#4",
                    "midi": 63,
                    "time": 348.22931550000413,
                    "velocity": 0.47244094488188976,
                    "duration": 0.10623225000000502
                },
                {
                    "name": "C4",
                    "midi": 60,
                    "time": 348.33554775000414,
                    "velocity": 0.4094488188976378,
                    "duration": 0.10623225000000502
                },
                {
                    "name": "A#3",
                    "midi": 58,
                    "time": 348.44178000000414,
                    "velocity": 0.5433070866141733,
                    "duration": 0.10623225000000502
                },
                {
                    "name": "C4",
                    "midi": 60,
                    "time": 348.65424450000415,
                    "velocity": 0.41732283464566927,
                    "duration": 0.10623225000000502
                },
                {
                    "name": "D4",
                    "midi": 62,
                    "time": 348.76047675000416,
                    "velocity": 0.3779527559055118,
                    "duration": 0.10623225000000502
                },
                {
                    "name": "D#4",
                    "midi": 63,
                    "time": 348.86670900000416,
                    "velocity": 0.4251968503937008,
                    "duration": 0.10623225000000502
                },
                {
                    "name": "F4",
                    "midi": 65,
                    "time": 348.97294125000417,
                    "velocity": 0.3779527559055118,
                    "duration": 0.10623225000000502
                },
                {
                    "name": "G4",
                    "midi": 67,
                    "time": 349.0791735000042,
                    "velocity": 0.3779527559055118,
                    "duration": 0.10623225000000502
                },
                {
                    "name": "A4",
                    "midi": 69,
                    "time": 349.1854057500042,
                    "velocity": 0.3858267716535433,
                    "duration": 0.10623225000000502
                },
                {
                    "name": "A#4",
                    "midi": 70,
                    "time": 349.2916380000042,
                    "velocity": 0.4409448818897638,
                    "duration": 0.10623225000000502
                },
                {
                    "name": "A4",
                    "midi": 69,
                    "time": 349.3978702500042,
                    "velocity": 0.3937007874015748,
                    "duration": 0.10623225000000502
                },
                {
                    "name": "A#4",
                    "midi": 70,
                    "time": 349.5041025000042,
                    "velocity": 0.3937007874015748,
                    "duration": 0.10623225000000502
                },
                {
                    "name": "C5",
                    "midi": 72,
                    "time": 349.6103347500042,
                    "velocity": 0.4015748031496063,
                    "duration": 0.10623225000000502
                },
                {
                    "name": "D5",
                    "midi": 74,
                    "time": 349.7165670000042,
                    "velocity": 0.4566929133858268,
                    "duration": 0.10623225000000502
                },
                {
                    "name": "C5",
                    "midi": 72,
                    "time": 349.8227992500042,
                    "velocity": 0.4094488188976378,
                    "duration": 0.10623225000000502
                },
                {
                    "name": "D5",
                    "midi": 74,
                    "time": 349.9290315000042,
                    "velocity": 0.4094488188976378,
                    "duration": 0.10623225000000502
                },
                {
                    "name": "E5",
                    "midi": 76,
                    "time": 350.0352637500042,
                    "velocity": 0.41732283464566927,
                    "duration": 0.10623225000000502
                },
                {
                    "name": "F5",
                    "midi": 77,
                    "time": 350.1414960000042,
                    "velocity": 0.5748031496062992,
                    "duration": 0.10623225000000502
                },
                {
                    "name": "F3",
                    "midi": 53,
                    "time": 350.56642500000424,
                    "velocity": 0.47244094488188976,
                    "duration": 0.10623225000000502
                },
                {
                    "name": "A#2",
                    "midi": 46,
                    "time": 351.4162830000042,
                    "velocity": 0.4251968503937008,
                    "duration": 0.10623225000000502
                },
                {
                    "name": "D3",
                    "midi": 50,
                    "time": 351.4162830000042,
                    "velocity": 0.5118110236220472,
                    "duration": 0.4249290000000201
                },
                {
                    "name": "A2",
                    "midi": 45,
                    "time": 351.52251525000423,
                    "velocity": 0.4094488188976378,
                    "duration": 0.10623225000000502
                },
                {
                    "name": "A#2",
                    "midi": 46,
                    "time": 351.62874750000424,
                    "velocity": 0.4566929133858268,
                    "duration": 0.10623225000000502
                },
                {
                    "name": "F2",
                    "midi": 41,
                    "time": 351.73497975000424,
                    "velocity": 0.3937007874015748,
                    "duration": 0.10623225000000502
                },
                {
                    "name": "D3",
                    "midi": 50,
                    "time": 351.84121200000425,
                    "velocity": 0.5118110236220472,
                    "duration": 0.10623225000000502
                },
                {
                    "name": "F3",
                    "midi": 53,
                    "time": 351.84121200000425,
                    "velocity": 0.5118110236220472,
                    "duration": 0.10623225000000502
                },
                {
                    "name": "A#2",
                    "midi": 46,
                    "time": 352.26614100000427,
                    "velocity": 0.4566929133858268,
                    "duration": 0.10623225000000502
                },
                {
                    "name": "D3",
                    "midi": 50,
                    "time": 352.26614100000427,
                    "velocity": 0.4566929133858268,
                    "duration": 0.10623225000000502
                },
                {
                    "name": "A#2",
                    "midi": 46,
                    "time": 353.11599900000425,
                    "velocity": 0.4251968503937008,
                    "duration": 0.10623225000000502
                },
                {
                    "name": "D3",
                    "midi": 50,
                    "time": 353.11599900000425,
                    "velocity": 0.5118110236220472,
                    "duration": 0.4249290000000201
                },
                {
                    "name": "A2",
                    "midi": 45,
                    "time": 353.22223125000426,
                    "velocity": 0.4094488188976378,
                    "duration": 0.10623225000000502
                },
                {
                    "name": "A#2",
                    "midi": 46,
                    "time": 353.32846350000426,
                    "velocity": 0.4566929133858268,
                    "duration": 0.10623225000000502
                },
                {
                    "name": "F2",
                    "midi": 41,
                    "time": 353.43469575000427,
                    "velocity": 0.3937007874015748,
                    "duration": 0.10623225000000502
                },
                {
                    "name": "D3",
                    "midi": 50,
                    "time": 353.54092800000427,
                    "velocity": 0.5118110236220472,
                    "duration": 0.10623225000000502
                },
                {
                    "name": "F3",
                    "midi": 53,
                    "time": 353.54092800000427,
                    "velocity": 0.5118110236220472,
                    "duration": 0.10623225000000502
                },
                {
                    "name": "A#2",
                    "midi": 46,
                    "time": 353.9658570000043,
                    "velocity": 0.4566929133858268,
                    "duration": 0.10623225000000502
                },
                {
                    "name": "D3",
                    "midi": 50,
                    "time": 353.9658570000043,
                    "velocity": 0.4566929133858268,
                    "duration": 0.10623225000000502
                },
                {
                    "name": "D3",
                    "midi": 50,
                    "time": 354.8157150000043,
                    "velocity": 0.5118110236220472,
                    "duration": 0.10623225000000502
                },
                {
                    "name": "C#3",
                    "midi": 49,
                    "time": 354.9219472500043,
                    "velocity": 0.44881889763779526,
                    "duration": 0.10623225000000502
                },
                {
                    "name": "D3",
                    "midi": 50,
                    "time": 355.0281795000043,
                    "velocity": 0.4881889763779528,
                    "duration": 0.10623225000000502
                },
                {
                    "name": "A#2",
                    "midi": 46,
                    "time": 355.1344117500043,
                    "velocity": 0.4330708661417323,
                    "duration": 0.10623225000000502
                },
                {
                    "name": "F3",
                    "midi": 53,
                    "time": 355.2406440000043,
                    "velocity": 0.5118110236220472,
                    "duration": 0.10623225000000502
                },
                {
                    "name": "E3",
                    "midi": 52,
                    "time": 355.3468762500043,
                    "velocity": 0.4566929133858268,
                    "duration": 0.10623225000000502
                },
                {
                    "name": "F3",
                    "midi": 53,
                    "time": 355.4531085000043,
                    "velocity": 0.49606299212598426,
                    "duration": 0.10623225000000502
                },
                {
                    "name": "D3",
                    "midi": 50,
                    "time": 355.5593407500043,
                    "velocity": 0.44881889763779526,
                    "duration": 0.10623225000000502
                },
                {
                    "name": "A#3",
                    "midi": 58,
                    "time": 355.6655730000043,
                    "velocity": 0.5118110236220472,
                    "duration": 0.10623225000000502
                },
                {
                    "name": "A3",
                    "midi": 57,
                    "time": 355.7718052500043,
                    "velocity": 0.4566929133858268,
                    "duration": 0.10623225000000502
                },
                {
                    "name": "A#3",
                    "midi": 58,
                    "time": 355.8780375000043,
                    "velocity": 0.49606299212598426,
                    "duration": 0.10623225000000502
                },
                {
                    "name": "F3",
                    "midi": 53,
                    "time": 355.98426975000433,
                    "velocity": 0.44881889763779526,
                    "duration": 0.10623225000000502
                },
                {
                    "name": "D4",
                    "midi": 62,
                    "time": 356.09050200000434,
                    "velocity": 0.5118110236220472,
                    "duration": 0.10623225000000502
                },
                {
                    "name": "C#4",
                    "midi": 61,
                    "time": 356.19673425000434,
                    "velocity": 0.4566929133858268,
                    "duration": 0.10623225000000502
                },
                {
                    "name": "D4",
                    "midi": 62,
                    "time": 356.30296650000435,
                    "velocity": 0.49606299212598426,
                    "duration": 0.10623225000000502
                },
                {
                    "name": "A#3",
                    "midi": 58,
                    "time": 356.40919875000435,
                    "velocity": 0.44881889763779526,
                    "duration": 0.10623225000000502
                },
                {
                    "name": "F4",
                    "midi": 65,
                    "time": 356.51543100000436,
                    "velocity": 0.49606299212598426,
                    "duration": 0.10623225000000502
                },
                {
                    "name": "E4",
                    "midi": 64,
                    "time": 356.62166325000436,
                    "velocity": 0.4566929133858268,
                    "duration": 0.10623225000000502
                },
                {
                    "name": "F4",
                    "midi": 65,
                    "time": 356.72789550000437,
                    "velocity": 0.4881889763779528,
                    "duration": 0.10623225000000502
                },
                {
                    "name": "D4",
                    "midi": 62,
                    "time": 356.83412775000437,
                    "velocity": 0.44881889763779526,
                    "duration": 0.10623225000000502
                },
                {
                    "name": "G#4",
                    "midi": 68,
                    "time": 356.9403600000044,
                    "velocity": 0.5905511811023622,
                    "duration": 0.7436257499999783
                },
                {
                    "name": "G4",
                    "midi": 67,
                    "time": 357.68398575000435,
                    "velocity": 0.49606299212598426,
                    "duration": 0.10623225000000502
                },
                {
                    "name": "F4",
                    "midi": 65,
                    "time": 357.79021800000436,
                    "velocity": 0.5590551181102362,
                    "duration": 0.31869675000001507
                },
                {
                    "name": "D#4",
                    "midi": 63,
                    "time": 358.1089147500044,
                    "velocity": 0.49606299212598426,
                    "duration": 0.10623225000000502
                },
                {
                    "name": "D4",
                    "midi": 62,
                    "time": 358.2151470000044,
                    "velocity": 0.5669291338582677,
                    "duration": 0.31869675000001507
                },
                {
                    "name": "C4",
                    "midi": 60,
                    "time": 358.5338437500044,
                    "velocity": 0.49606299212598426,
                    "duration": 0.10623225000000502
                },
                {
                    "name": "B3",
                    "midi": 59,
                    "time": 358.6400760000044,
                    "velocity": 0.5669291338582677,
                    "duration": 0.8498579999999833
                },
                {
                    "name": "C4",
                    "midi": 60,
                    "time": 359.4899340000044,
                    "velocity": 0.3779527559055118,
                    "duration": 0.4249290000000201
                },
                {
                    "name": "A3",
                    "midi": 57,
                    "time": 359.9148630000044,
                    "velocity": 0.33070866141732286,
                    "duration": 0.4249290000000201
                },
                {
                    "name": "A#3",
                    "midi": 58,
                    "time": 360.3397920000044,
                    "velocity": 0.4015748031496063,
                    "duration": 0.4249290000000201
                },
                {
                    "name": "G3",
                    "midi": 55,
                    "time": 360.76472100000444,
                    "velocity": 0.3464566929133858,
                    "duration": 0.4249290000000201
                },
                {
                    "name": "G#3",
                    "midi": 56,
                    "time": 361.18965000000446,
                    "velocity": 0.4094488188976378,
                    "duration": 0.4249290000000201
                },
                {
                    "name": "F#3",
                    "midi": 54,
                    "time": 361.6145790000045,
                    "velocity": 0.2677165354330709,
                    "duration": 0.4249290000000201
                },
                {
                    "name": "G3",
                    "midi": 55,
                    "time": 362.0395080000045,
                    "velocity": 0.4015748031496063,
                    "duration": 0.4249290000000201
                },
                {
                    "name": "E3",
                    "midi": 52,
                    "time": 362.4644370000045,
                    "velocity": 0.3464566929133858,
                    "duration": 0.4249290000000201
                },
                {
                    "name": "F3",
                    "midi": 53,
                    "time": 362.88936600000454,
                    "velocity": 0.4094488188976378,
                    "duration": 0.4249290000000201
                },
                {
                    "name": "D3",
                    "midi": 50,
                    "time": 363.31429500000456,
                    "velocity": 0.2677165354330709,
                    "duration": 0.4249290000000201
                },
                {
                    "name": "D#3",
                    "midi": 51,
                    "time": 363.7392240000046,
                    "velocity": 0.4015748031496063,
                    "duration": 0.4249290000000201
                },
                {
                    "name": "C3",
                    "midi": 48,
                    "time": 364.1641530000046,
                    "velocity": 0.3464566929133858,
                    "duration": 0.4249290000000201
                },
                {
                    "name": "D3",
                    "midi": 50,
                    "time": 364.5890820000046,
                    "velocity": 0.4094488188976378,
                    "duration": 0.4249290000000201
                },
                {
                    "name": "E3",
                    "midi": 52,
                    "time": 365.01401100000464,
                    "velocity": 0.2677165354330709,
                    "duration": 0.4249290000000201
                },
                {
                    "name": "F2",
                    "midi": 41,
                    "time": 365.43894000000466,
                    "velocity": 0.4015748031496063,
                    "duration": 0.21246450000001005
                },
                {
                    "name": "F3",
                    "midi": 53,
                    "time": 365.6514045000047,
                    "velocity": 0.33070866141732286,
                    "duration": 0.121281818749992
                },
                {
                    "name": "F3",
                    "midi": 53,
                    "time": 365.8638690000047,
                    "velocity": 0.33070866141732286,
                    "duration": 0.121281818749992
                },
                {
                    "name": "F3",
                    "midi": 53,
                    "time": 366.0763335000047,
                    "velocity": 0.33070866141732286,
                    "duration": 0.121281818749992
                },
                {
                    "name": "F3",
                    "midi": 53,
                    "time": 366.2887980000047,
                    "velocity": 0.4015748031496063,
                    "duration": 0.121281818749992
                },
                {
                    "name": "F3",
                    "midi": 53,
                    "time": 366.5012625000047,
                    "velocity": 0.33858267716535434,
                    "duration": 0.121281818749992
                },
                {
                    "name": "F3",
                    "midi": 53,
                    "time": 366.7137270000047,
                    "velocity": 0.33858267716535434,
                    "duration": 0.121281818749992
                },
                {
                    "name": "F3",
                    "midi": 53,
                    "time": 366.92619150000473,
                    "velocity": 0.33858267716535434,
                    "duration": 0.121281818749992
                },
                {
                    "name": "F3",
                    "midi": 53,
                    "time": 367.13865600000474,
                    "velocity": 0.4015748031496063,
                    "duration": 0.121281818749992
                },
                {
                    "name": "F3",
                    "midi": 53,
                    "time": 367.35112050000475,
                    "velocity": 0.33070866141732286,
                    "duration": 0.121281818749992
                },
                {
                    "name": "F3",
                    "midi": 53,
                    "time": 367.56358500000476,
                    "velocity": 0.33070866141732286,
                    "duration": 0.121281818749992
                },
                {
                    "name": "F3",
                    "midi": 53,
                    "time": 367.7760495000048,
                    "velocity": 0.33070866141732286,
                    "duration": 0.121281818749992
                },
                {
                    "name": "F3",
                    "midi": 53,
                    "time": 367.9885140000048,
                    "velocity": 0.4015748031496063,
                    "duration": 0.121281818749992
                },
                {
                    "name": "F3",
                    "midi": 53,
                    "time": 368.2009785000048,
                    "velocity": 0.33858267716535434,
                    "duration": 0.121281818749992
                },
                {
                    "name": "F3",
                    "midi": 53,
                    "time": 368.4134430000048,
                    "velocity": 0.33858267716535434,
                    "duration": 0.121281818749992
                },
                {
                    "name": "F3",
                    "midi": 53,
                    "time": 368.6259075000048,
                    "velocity": 0.33858267716535434,
                    "duration": 0.1274786999999833
                },
                {
                    "name": "F2",
                    "midi": 41,
                    "time": 368.8383720000048,
                    "velocity": 0.36220472440944884,
                    "duration": 0.21246450000001005
                },
                {
                    "name": "F3",
                    "midi": 53,
                    "time": 368.8383720000048,
                    "velocity": 0.4015748031496063,
                    "duration": 0.21246450000001005
                },
                {
                    "name": "F4",
                    "midi": 65,
                    "time": 369.05083650000483,
                    "velocity": 0.33070866141732286,
                    "duration": 0.121281818749992
                },
                {
                    "name": "F4",
                    "midi": 65,
                    "time": 369.26330100000484,
                    "velocity": 0.33070866141732286,
                    "duration": 0.121281818749992
                },
                {
                    "name": "F4",
                    "midi": 65,
                    "time": 369.47576550000485,
                    "velocity": 0.33070866141732286,
                    "duration": 0.121281818749992
                },
                {
                    "name": "F4",
                    "midi": 65,
                    "time": 369.68823000000486,
                    "velocity": 0.4015748031496063,
                    "duration": 0.121281818749992
                },
                {
                    "name": "F4",
                    "midi": 65,
                    "time": 369.9006945000049,
                    "velocity": 0.33858267716535434,
                    "duration": 0.121281818749992
                },
                {
                    "name": "F4",
                    "midi": 65,
                    "time": 370.1131590000049,
                    "velocity": 0.33858267716535434,
                    "duration": 0.121281818749992
                },
                {
                    "name": "F4",
                    "midi": 65,
                    "time": 370.3256235000049,
                    "velocity": 0.33858267716535434,
                    "duration": 0.121281818749992
                },
                {
                    "name": "F4",
                    "midi": 65,
                    "time": 370.5380880000049,
                    "velocity": 0.4015748031496063,
                    "duration": 0.121281818749992
                },
                {
                    "name": "F4",
                    "midi": 65,
                    "time": 370.7505525000049,
                    "velocity": 0.33070866141732286,
                    "duration": 0.121281818749992
                },
                {
                    "name": "F4",
                    "midi": 65,
                    "time": 370.9630170000049,
                    "velocity": 0.33070866141732286,
                    "duration": 0.121281818749992
                },
                {
                    "name": "F4",
                    "midi": 65,
                    "time": 371.17548150000493,
                    "velocity": 0.33070866141732286,
                    "duration": 0.121281818749992
                },
                {
                    "name": "F4",
                    "midi": 65,
                    "time": 371.38794600000494,
                    "velocity": 0.4015748031496063,
                    "duration": 0.121281818749992
                },
                {
                    "name": "F4",
                    "midi": 65,
                    "time": 371.60041050000495,
                    "velocity": 0.33858267716535434,
                    "duration": 0.121281818749992
                },
                {
                    "name": "F4",
                    "midi": 65,
                    "time": 371.81287500000496,
                    "velocity": 0.33858267716535434,
                    "duration": 0.121281818749992
                },
                {
                    "name": "F4",
                    "midi": 65,
                    "time": 372.025339500005,
                    "velocity": 0.33858267716535434,
                    "duration": 0.1274786999999833
                },
                {
                    "name": "F3",
                    "midi": 53,
                    "time": 372.237804000005,
                    "velocity": 0.4015748031496063,
                    "duration": 0.2018412749999925
                },
                {
                    "name": "F4",
                    "midi": 65,
                    "time": 372.450268500005,
                    "velocity": 0.33858267716535434,
                    "duration": 0.121281818749992
                },
                {
                    "name": "F4",
                    "midi": 65,
                    "time": 372.662733000005,
                    "velocity": 0.33858267716535434,
                    "duration": 0.121281818749992
                },
                {
                    "name": "F4",
                    "midi": 65,
                    "time": 372.875197500005,
                    "velocity": 0.33858267716535434,
                    "duration": 0.1274786999999833
                },
                {
                    "name": "F3",
                    "midi": 53,
                    "time": 373.087662000005,
                    "velocity": 0.4015748031496063,
                    "duration": 0.2018412749999925
                },
                {
                    "name": "F4",
                    "midi": 65,
                    "time": 373.30012650000504,
                    "velocity": 0.33858267716535434,
                    "duration": 0.121281818749992
                },
                {
                    "name": "F4",
                    "midi": 65,
                    "time": 373.51259100000505,
                    "velocity": 0.33858267716535434,
                    "duration": 0.121281818749992
                },
                {
                    "name": "F4",
                    "midi": 65,
                    "time": 373.72505550000506,
                    "velocity": 0.33858267716535434,
                    "duration": 0.1274786999999833
                },
                {
                    "name": "F3",
                    "midi": 53,
                    "time": 373.93752000000507,
                    "velocity": 0.4015748031496063,
                    "duration": 0.4249290000000201
                },
                {
                    "name": "A#3",
                    "midi": 58,
                    "time": 375.7434682500051,
                    "velocity": 0.2440944881889764,
                    "duration": 0.11685547500002258
                },
                {
                    "name": "C4",
                    "midi": 60,
                    "time": 375.8497005000051,
                    "velocity": 0.28346456692913385,
                    "duration": 0.11685547500002258
                },
                {
                    "name": "D4",
                    "midi": 62,
                    "time": 375.9559327500051,
                    "velocity": 0.2440944881889764,
                    "duration": 0.11685547500002258
                },
                {
                    "name": "D#4",
                    "midi": 63,
                    "time": 376.0621650000051,
                    "velocity": 0.28346456692913385,
                    "duration": 0.11685547500002258
                },
                {
                    "name": "F4",
                    "midi": 65,
                    "time": 376.1683972500051,
                    "velocity": 0.2440944881889764,
                    "duration": 0.11685547500002258
                },
                {
                    "name": "G4",
                    "midi": 67,
                    "time": 376.2746295000051,
                    "velocity": 0.28346456692913385,
                    "duration": 0.11685547500002258
                },
                {
                    "name": "A4",
                    "midi": 69,
                    "time": 376.3808617500051,
                    "velocity": 0.2283464566929134,
                    "duration": 0.11685547500002258
                },
                {
                    "name": "A#4",
                    "midi": 70,
                    "time": 376.48709400000513,
                    "velocity": 0.28346456692913385,
                    "duration": 0.11685547500002258
                },
                {
                    "name": "A4",
                    "midi": 69,
                    "time": 376.59332625000513,
                    "velocity": 0.2283464566929134,
                    "duration": 0.11685547500002258
                },
                {
                    "name": "A#4",
                    "midi": 70,
                    "time": 376.69955850000514,
                    "velocity": 0.28346456692913385,
                    "duration": 0.11685547500002258
                },
                {
                    "name": "A4",
                    "midi": 69,
                    "time": 376.80579075000514,
                    "velocity": 0.2283464566929134,
                    "duration": 0.11685547500002258
                },
                {
                    "name": "A#4",
                    "midi": 70,
                    "time": 376.91202300000515,
                    "velocity": 0.28346456692913385,
                    "duration": 0.11685547500002258
                },
                {
                    "name": "A4",
                    "midi": 69,
                    "time": 377.01825525000515,
                    "velocity": 0.2125984251968504,
                    "duration": 0.11685547500002258
                },
                {
                    "name": "A#4",
                    "midi": 70,
                    "time": 377.12448750000516,
                    "velocity": 0.2677165354330709,
                    "duration": 0.11685547500002258
                },
                {
                    "name": "A4",
                    "midi": 69,
                    "time": 377.23071975000516,
                    "velocity": 0.2047244094488189,
                    "duration": 0.10623225000000502
                },
                {
                    "name": "A#4",
                    "midi": 70,
                    "time": 377.33695200000517,
                    "velocity": 0.23622047244094488,
                    "duration": 0.11685547500002258
                },
                {
                    "name": "A4",
                    "midi": 69,
                    "time": 377.4431842500052,
                    "velocity": 0.1968503937007874,
                    "duration": 0.11685547500002258
                },
                {
                    "name": "A#4",
                    "midi": 70,
                    "time": 377.5494165000052,
                    "velocity": 0.23622047244094488,
                    "duration": 0.11685547500002258
                },
                {
                    "name": "A4",
                    "midi": 69,
                    "time": 377.6556487500052,
                    "velocity": 0.1968503937007874,
                    "duration": 0.11685547500002258
                },
                {
                    "name": "A#4",
                    "midi": 70,
                    "time": 377.7618810000052,
                    "velocity": 0.23622047244094488,
                    "duration": 0.11685547500002258
                },
                {
                    "name": "A4",
                    "midi": 69,
                    "time": 377.8681132500052,
                    "velocity": 0.1968503937007874,
                    "duration": 0.11685547500002258
                },
                {
                    "name": "A#4",
                    "midi": 70,
                    "time": 377.9743455000052,
                    "velocity": 0.23622047244094488,
                    "duration": 0.11685547500002258
                },
                {
                    "name": "A4",
                    "midi": 69,
                    "time": 378.0805777500052,
                    "velocity": 0.1968503937007874,
                    "duration": 0.11685547500002258
                },
                {
                    "name": "A#4",
                    "midi": 70,
                    "time": 378.1868100000052,
                    "velocity": 0.23622047244094488,
                    "duration": 0.11685547500002258
                },
                {
                    "name": "A4",
                    "midi": 69,
                    "time": 378.2930422500052,
                    "velocity": 0.1968503937007874,
                    "duration": 0.11685547500002258
                },
                {
                    "name": "A#4",
                    "midi": 70,
                    "time": 378.3992745000052,
                    "velocity": 0.23622047244094488,
                    "duration": 0.11685547500002258
                },
                {
                    "name": "A4",
                    "midi": 69,
                    "time": 378.5055067500052,
                    "velocity": 0.1968503937007874,
                    "duration": 0.11685547500002258
                },
                {
                    "name": "A#4",
                    "midi": 70,
                    "time": 378.61173900000523,
                    "velocity": 0.23622047244094488,
                    "duration": 0.11685547500002258
                },
                {
                    "name": "A4",
                    "midi": 69,
                    "time": 378.71797125000523,
                    "velocity": 0.1968503937007874,
                    "duration": 0.11685547500002258
                },
                {
                    "name": "A#4",
                    "midi": 70,
                    "time": 378.82420350000524,
                    "velocity": 0.23622047244094488,
                    "duration": 0.11685547500002258
                },
                {
                    "name": "A4",
                    "midi": 69,
                    "time": 378.93043575000524,
                    "velocity": 0.1968503937007874,
                    "duration": 0.10623225000000502
                },
                {
                    "name": "A#4",
                    "midi": 70,
                    "time": 379.03666800000525,
                    "velocity": 0.23622047244094488,
                    "duration": 0.10623225000000502
                },
                {
                    "name": "A#3",
                    "midi": 58,
                    "time": 379.14290025000525,
                    "velocity": 0.2440944881889764,
                    "duration": 0.11685547500002258
                },
                {
                    "name": "C4",
                    "midi": 60,
                    "time": 379.24913250000526,
                    "velocity": 0.28346456692913385,
                    "duration": 0.11685547500002258
                },
                {
                    "name": "D4",
                    "midi": 62,
                    "time": 379.35536475000526,
                    "velocity": 0.2440944881889764,
                    "duration": 0.11685547500002258
                },
                {
                    "name": "D#4",
                    "midi": 63,
                    "time": 379.46159700000527,
                    "velocity": 0.28346456692913385,
                    "duration": 0.11685547500002258
                },
                {
                    "name": "F4",
                    "midi": 65,
                    "time": 379.5678292500053,
                    "velocity": 0.2440944881889764,
                    "duration": 0.11685547500002258
                },
                {
                    "name": "G4",
                    "midi": 67,
                    "time": 379.6740615000053,
                    "velocity": 0.28346456692913385,
                    "duration": 0.11685547500002258
                },
                {
                    "name": "A4",
                    "midi": 69,
                    "time": 379.7802937500053,
                    "velocity": 0.2283464566929134,
                    "duration": 0.11685547500002258
                },
                {
                    "name": "A#4",
                    "midi": 70,
                    "time": 379.8865260000053,
                    "velocity": 0.28346456692913385,
                    "duration": 0.11685547500002258
                },
                {
                    "name": "A4",
                    "midi": 69,
                    "time": 379.9927582500053,
                    "velocity": 0.2283464566929134,
                    "duration": 0.11685547500002258
                },
                {
                    "name": "A#4",
                    "midi": 70,
                    "time": 380.0989905000053,
                    "velocity": 0.28346456692913385,
                    "duration": 0.11685547500002258
                },
                {
                    "name": "A4",
                    "midi": 69,
                    "time": 380.2052227500053,
                    "velocity": 0.2283464566929134,
                    "duration": 0.11685547500002258
                },
                {
                    "name": "A#4",
                    "midi": 70,
                    "time": 380.3114550000053,
                    "velocity": 0.28346456692913385,
                    "duration": 0.11685547500002258
                },
                {
                    "name": "A4",
                    "midi": 69,
                    "time": 380.4176872500053,
                    "velocity": 0.2125984251968504,
                    "duration": 0.11685547500002258
                },
                {
                    "name": "A#4",
                    "midi": 70,
                    "time": 380.5239195000053,
                    "velocity": 0.2677165354330709,
                    "duration": 0.11685547500002258
                },
                {
                    "name": "A4",
                    "midi": 69,
                    "time": 380.6301517500053,
                    "velocity": 0.2047244094488189,
                    "duration": 0.10623225000000502
                },
                {
                    "name": "A#4",
                    "midi": 70,
                    "time": 380.73638400000533,
                    "velocity": 0.23622047244094488,
                    "duration": 0.11685547500002258
                },
                {
                    "name": "A4",
                    "midi": 69,
                    "time": 380.84261625000534,
                    "velocity": 0.1968503937007874,
                    "duration": 0.11685547500002258
                },
                {
                    "name": "A#4",
                    "midi": 70,
                    "time": 380.94884850000534,
                    "velocity": 0.23622047244094488,
                    "duration": 0.11685547500002258
                },
                {
                    "name": "A4",
                    "midi": 69,
                    "time": 381.05508075000535,
                    "velocity": 0.1968503937007874,
                    "duration": 0.11685547500002258
                },
                {
                    "name": "A#4",
                    "midi": 70,
                    "time": 381.16131300000535,
                    "velocity": 0.23622047244094488,
                    "duration": 0.11685547500002258
                },
                {
                    "name": "A4",
                    "midi": 69,
                    "time": 381.26754525000536,
                    "velocity": 0.1968503937007874,
                    "duration": 0.11685547500002258
                },
                {
                    "name": "A#4",
                    "midi": 70,
                    "time": 381.37377750000536,
                    "velocity": 0.23622047244094488,
                    "duration": 0.11685547500002258
                },
                {
                    "name": "A4",
                    "midi": 69,
                    "time": 381.48000975000537,
                    "velocity": 0.1968503937007874,
                    "duration": 0.11685547500002258
                },
                {
                    "name": "A#4",
                    "midi": 70,
                    "time": 381.58624200000537,
                    "velocity": 0.23622047244094488,
                    "duration": 0.11685547500002258
                },
                {
                    "name": "A4",
                    "midi": 69,
                    "time": 381.6924742500054,
                    "velocity": 0.1968503937007874,
                    "duration": 0.11685547500002258
                },
                {
                    "name": "A#4",
                    "midi": 70,
                    "time": 381.7987065000054,
                    "velocity": 0.23622047244094488,
                    "duration": 0.11685547500002258
                },
                {
                    "name": "A4",
                    "midi": 69,
                    "time": 381.9049387500054,
                    "velocity": 0.1968503937007874,
                    "duration": 0.11685547500002258
                },
                {
                    "name": "A#4",
                    "midi": 70,
                    "time": 382.0111710000054,
                    "velocity": 0.23622047244094488,
                    "duration": 0.11685547500002258
                },
                {
                    "name": "G#4",
                    "midi": 68,
                    "time": 382.1174032500054,
                    "velocity": 0.1968503937007874,
                    "duration": 0.11685547500002258
                },
                {
                    "name": "A#4",
                    "midi": 70,
                    "time": 382.2236355000054,
                    "velocity": 0.23622047244094488,
                    "duration": 0.11685547500002258
                },
                {
                    "name": "G#4",
                    "midi": 68,
                    "time": 382.3298677500054,
                    "velocity": 0.1968503937007874,
                    "duration": 0.10623225000000502
                },
                {
                    "name": "F#4",
                    "midi": 66,
                    "time": 382.4361000000054,
                    "velocity": 0.30708661417322836,
                    "duration": 0.15934837499997911
                },
                {
                    "name": "G4",
                    "midi": 67,
                    "time": 382.5423322500054,
                    "velocity": 0.2677165354330709,
                    "duration": 0.10623224999994818
                },
                {
                    "name": "F#4",
                    "midi": 66,
                    "time": 382.64856450000536,
                    "velocity": 0.30708661417322836,
                    "duration": 0.15934837499997911
                },
                {
                    "name": "G4",
                    "midi": 67,
                    "time": 382.75479675000537,
                    "velocity": 0.2755905511811024,
                    "duration": 0.10623224999994818
                },
                {
                    "name": "E4",
                    "midi": 64,
                    "time": 382.8610290000053,
                    "velocity": 0.3228346456692913,
                    "duration": 0.15934837499997911
                },
                {
                    "name": "F4",
                    "midi": 65,
                    "time": 382.9672612500053,
                    "velocity": 0.2755905511811024,
                    "duration": 0.10623224999994818
                },
                {
                    "name": "E4",
                    "midi": 64,
                    "time": 383.07349350000527,
                    "velocity": 0.33070866141732286,
                    "duration": 0.15934837499997911
                },
                {
                    "name": "F4",
                    "midi": 65,
                    "time": 383.1797257500053,
                    "velocity": 0.28346456692913385,
                    "duration": 0.10623224999994818
                },
                {
                    "name": "C#4",
                    "midi": 61,
                    "time": 383.2859580000052,
                    "velocity": 0.3464566929133858,
                    "duration": 0.15934837499997911
                },
                {
                    "name": "D4",
                    "midi": 62,
                    "time": 383.3921902500052,
                    "velocity": 0.29133858267716534,
                    "duration": 0.10623224999994818
                },
                {
                    "name": "C#4",
                    "midi": 61,
                    "time": 383.4984225000052,
                    "velocity": 0.3543307086614173,
                    "duration": 0.15934837499997911
                },
                {
                    "name": "D4",
                    "midi": 62,
                    "time": 383.6046547500052,
                    "velocity": 0.29133858267716534,
                    "duration": 0.10623224999994818
                },
                {
                    "name": "A#3",
                    "midi": 58,
                    "time": 383.71088700000513,
                    "velocity": 0.3464566929133858,
                    "duration": 0.15934837499997911
                },
                {
                    "name": "B3",
                    "midi": 59,
                    "time": 383.81711925000513,
                    "velocity": 0.2992125984251969,
                    "duration": 0.10623224999994818
                },
                {
                    "name": "A#3",
                    "midi": 58,
                    "time": 383.9233515000051,
                    "velocity": 0.3464566929133858,
                    "duration": 0.15934837499997911
                },
                {
                    "name": "B3",
                    "midi": 59,
                    "time": 384.0295837500051,
                    "velocity": 0.30708661417322836,
                    "duration": 0.10623224999994818
                },
                {
                    "name": "F#3",
                    "midi": 54,
                    "time": 384.13581600000504,
                    "velocity": 0.3543307086614173,
                    "duration": 0.15934837499997911
                },
                {
                    "name": "G3",
                    "midi": 55,
                    "time": 384.24204825000504,
                    "velocity": 0.30708661417322836,
                    "duration": 0.10623224999994818
                },
                {
                    "name": "F#3",
                    "midi": 54,
                    "time": 384.348280500005,
                    "velocity": 0.36220472440944884,
                    "duration": 0.15934837499997911
                },
                {
                    "name": "G3",
                    "midi": 55,
                    "time": 384.454512750005,
                    "velocity": 0.31496062992125984,
                    "duration": 0.10623224999994818
                },
                {
                    "name": "E3",
                    "midi": 52,
                    "time": 384.56074500000494,
                    "velocity": 0.3779527559055118,
                    "duration": 0.15934837499997911
                },
                {
                    "name": "F3",
                    "midi": 53,
                    "time": 384.66697725000495,
                    "velocity": 0.3228346456692913,
                    "duration": 0.10623224999994818
                },
                {
                    "name": "E3",
                    "midi": 52,
                    "time": 384.7732095000049,
                    "velocity": 0.3779527559055118,
                    "duration": 0.15934837499997911
                },
                {
                    "name": "F3",
                    "midi": 53,
                    "time": 384.8794417500049,
                    "velocity": 0.3228346456692913,
                    "duration": 0.10623224999994818
                },
                {
                    "name": "C#3",
                    "midi": 49,
                    "time": 384.98567400000485,
                    "velocity": 0.4251968503937008,
                    "duration": 0.15934837499997911
                },
                {
                    "name": "D3",
                    "midi": 50,
                    "time": 385.09190625000485,
                    "velocity": 0.33070866141732286,
                    "duration": 0.10623224999994818
                },
                {
                    "name": "C#3",
                    "midi": 49,
                    "time": 385.1981385000048,
                    "velocity": 0.4094488188976378,
                    "duration": 0.15934837499997911
                },
                {
                    "name": "D3",
                    "midi": 50,
                    "time": 385.3043707500048,
                    "velocity": 0.33858267716535434,
                    "duration": 0.10623224999994818
                },
                {
                    "name": "A#2",
                    "midi": 46,
                    "time": 385.41060300000476,
                    "velocity": 0.4330708661417323,
                    "duration": 0.15934837499997911
                },
                {
                    "name": "B2",
                    "midi": 47,
                    "time": 385.51683525000476,
                    "velocity": 0.3464566929133858,
                    "duration": 0.10623224999994818
                },
                {
                    "name": "A#2",
                    "midi": 46,
                    "time": 385.6230675000047,
                    "velocity": 0.4015748031496063,
                    "duration": 0.15934837499997911
                },
                {
                    "name": "B2",
                    "midi": 47,
                    "time": 385.7292997500047,
                    "velocity": 0.3464566929133858,
                    "duration": 0.10623224999994818
                },
                {
                    "name": "F#2",
                    "midi": 42,
                    "time": 385.83553200000466,
                    "velocity": 0.44881889763779526,
                    "duration": 0.15934837499997911
                },
                {
                    "name": "G2",
                    "midi": 43,
                    "time": 385.94176425000467,
                    "velocity": 0.3464566929133858,
                    "duration": 0.10623224999994818
                },
                {
                    "name": "F#2",
                    "midi": 42,
                    "time": 386.0479965000046,
                    "velocity": 0.4015748031496063,
                    "duration": 0.15934837499997911
                },
                {
                    "name": "G2",
                    "midi": 43,
                    "time": 386.1542287500046,
                    "velocity": 0.3464566929133858,
                    "duration": 0.10623224999994818
                },
                {
                    "name": "F#2",
                    "midi": 42,
                    "time": 386.26046100000457,
                    "velocity": 0.4409448818897638,
                    "duration": 0.15934837499997911
                },
                {
                    "name": "G2",
                    "midi": 43,
                    "time": 386.3666932500046,
                    "velocity": 0.3937007874015748,
                    "duration": 0.10623224999994818
                },
                {
                    "name": "F#2",
                    "midi": 42,
                    "time": 386.4729255000045,
                    "velocity": 0.44881889763779526,
                    "duration": 0.15934837499997911
                },
                {
                    "name": "G2",
                    "midi": 43,
                    "time": 386.5791577500045,
                    "velocity": 0.3464566929133858,
                    "duration": 0.0973795624999525
                },
                {
                    "name": "G2",
                    "midi": 43,
                    "time": 386.6853900000045,
                    "velocity": 0.48031496062992124,
                    "duration": 0.15934837499997911
                },
                {
                    "name": "G#2",
                    "midi": 44,
                    "time": 386.7916222500045,
                    "velocity": 0.4094488188976378,
                    "duration": 0.10623224999994818
                },
                {
                    "name": "G2",
                    "midi": 43,
                    "time": 386.8978545000044,
                    "velocity": 0.4566929133858268,
                    "duration": 0.15934837499997911
                },
                {
                    "name": "G#2",
                    "midi": 44,
                    "time": 387.00408675000443,
                    "velocity": 0.4094488188976378,
                    "duration": 0.10623224999994818
                },
                {
                    "name": "G#2",
                    "midi": 44,
                    "time": 387.1103190000044,
                    "velocity": 0.4566929133858268,
                    "duration": 0.15934837499997911
                },
                {
                    "name": "A2",
                    "midi": 45,
                    "time": 387.2165512500044,
                    "velocity": 0.3464566929133858,
                    "duration": 0.10623224999994818
                },
                {
                    "name": "G#2",
                    "midi": 44,
                    "time": 387.32278350000433,
                    "velocity": 0.4251968503937008,
                    "duration": 0.15934837499997911
                },
                {
                    "name": "A2",
                    "midi": 45,
                    "time": 387.42901575000434,
                    "velocity": 0.3464566929133858,
                    "duration": 0.10623224999994818
                },
                {
                    "name": "A2",
                    "midi": 45,
                    "time": 387.5352480000043,
                    "velocity": 0.4409448818897638,
                    "duration": 0.15934837499997911
                },
                {
                    "name": "A#2",
                    "midi": 46,
                    "time": 387.6414802500043,
                    "velocity": 0.3779527559055118,
                    "duration": 0.10623224999994818
                },
                {
                    "name": "A2",
                    "midi": 45,
                    "time": 387.74771250000424,
                    "velocity": 0.4015748031496063,
                    "duration": 0.15934837499997911
                },
                {
                    "name": "A#2",
                    "midi": 46,
                    "time": 387.85394475000425,
                    "velocity": 0.3464566929133858,
                    "duration": 0.10623224999994818
                },
                {
                    "name": "A2",
                    "midi": 45,
                    "time": 387.9601770000042,
                    "velocity": 0.4015748031496063,
                    "duration": 0.15934837499997911
                },
                {
                    "name": "A#2",
                    "midi": 46,
                    "time": 388.0664092500042,
                    "velocity": 0.3464566929133858,
                    "duration": 0.10623224999994818
                },
                {
                    "name": "A2",
                    "midi": 45,
                    "time": 388.17264150000415,
                    "velocity": 0.4015748031496063,
                    "duration": 0.15934837499997911
                },
                {
                    "name": "A#2",
                    "midi": 46,
                    "time": 388.27887375000415,
                    "velocity": 0.3464566929133858,
                    "duration": 0.0973795624999525
                },
                {
                    "name": "D2",
                    "midi": 38,
                    "time": 388.3851060000041,
                    "velocity": 0.4015748031496063,
                    "duration": 0.15934837499997911
                },
                {
                    "name": "D#2",
                    "midi": 39,
                    "time": 388.4913382500041,
                    "velocity": 0.3464566929133858,
                    "duration": 0.10623224999994818
                },
                {
                    "name": "D2",
                    "midi": 38,
                    "time": 388.59757050000405,
                    "velocity": 0.4015748031496063,
                    "duration": 0.15934837499997911
                },
                {
                    "name": "D#2",
                    "midi": 39,
                    "time": 388.70380275000406,
                    "velocity": 0.3464566929133858,
                    "duration": 0.0973795624999525
                },
                {
                    "name": "E2",
                    "midi": 40,
                    "time": 388.810035000004,
                    "velocity": 0.4015748031496063,
                    "duration": 0.15934837499997911
                },
                {
                    "name": "F2",
                    "midi": 41,
                    "time": 388.916267250004,
                    "velocity": 0.3464566929133858,
                    "duration": 0.10623224999994818
                },
                {
                    "name": "E2",
                    "midi": 40,
                    "time": 389.02249950000396,
                    "velocity": 0.4015748031496063,
                    "duration": 0.15934837499997911
                },
                {
                    "name": "F2",
                    "midi": 41,
                    "time": 389.12873175000396,
                    "velocity": 0.3464566929133858,
                    "duration": 0.0973795624999525
                },
                {
                    "name": "A#1",
                    "midi": 34,
                    "time": 389.2349640000039,
                    "velocity": 0.3779527559055118,
                    "duration": 0.21246450000001005
                },
                {
                    "name": "A#3",
                    "midi": 58,
                    "time": 390.0848220000039,
                    "velocity": 0.4251968503937008,
                    "duration": 0.8410053124999877
                },
                {
                    "name": "D4",
                    "midi": 62,
                    "time": 390.0848220000039,
                    "velocity": 0.5039370078740157,
                    "duration": 0.8498579999999833
                },
                {
                    "name": "G3",
                    "midi": 55,
                    "time": 390.9346800000039,
                    "velocity": 0.3228346456692913,
                    "duration": 0.4160763125000244
                },
                {
                    "name": "A#3",
                    "midi": 58,
                    "time": 390.9346800000039,
                    "velocity": 0.3858267716535433,
                    "duration": 0.4249290000000201
                },
                {
                    "name": "D#3",
                    "midi": 51,
                    "time": 391.3596090000039,
                    "velocity": 0.3228346456692913,
                    "duration": 0.21246450000001005
                },
                {
                    "name": "G3",
                    "midi": 55,
                    "time": 391.3596090000039,
                    "velocity": 0.3858267716535433,
                    "duration": 0.21246450000001005
                },
                {
                    "name": "C4",
                    "midi": 60,
                    "time": 391.7845380000039,
                    "velocity": 0.4251968503937008,
                    "duration": 0.6373934999999733
                },
                {
                    "name": "D#4",
                    "midi": 63,
                    "time": 391.7845380000039,
                    "velocity": 0.5039370078740157,
                    "duration": 0.6373934999999733
                },
                {
                    "name": "A#3",
                    "midi": 58,
                    "time": 392.4219315000039,
                    "velocity": 0.3228346456692913,
                    "duration": 0.21246450000001005
                },
                {
                    "name": "D4",
                    "midi": 62,
                    "time": 392.4219315000039,
                    "velocity": 0.3858267716535433,
                    "duration": 0.21246450000001005
                },
                {
                    "name": "A3",
                    "midi": 57,
                    "time": 392.6343960000039,
                    "velocity": 0.3858267716535433,
                    "duration": 0.4160763125000244
                },
                {
                    "name": "C4",
                    "midi": 60,
                    "time": 392.6343960000039,
                    "velocity": 0.4566929133858268,
                    "duration": 0.4249290000000201
                },
                {
                    "name": "F3",
                    "midi": 53,
                    "time": 393.0593250000039,
                    "velocity": 0.3464566929133858,
                    "duration": 0.21246450000001005
                },
                {
                    "name": "A3",
                    "midi": 57,
                    "time": 393.0593250000039,
                    "velocity": 0.4094488188976378,
                    "duration": 0.21246450000001005
                },
                {
                    "name": "D4",
                    "midi": 62,
                    "time": 393.48425400000394,
                    "velocity": 0.4251968503937008,
                    "duration": 0.8410053124999877
                },
                {
                    "name": "F4",
                    "midi": 65,
                    "time": 393.48425400000394,
                    "velocity": 0.5039370078740157,
                    "duration": 0.8498579999999833
                },
                {
                    "name": "A#3",
                    "midi": 58,
                    "time": 394.3341120000039,
                    "velocity": 0.3228346456692913,
                    "duration": 0.4160763125000244
                },
                {
                    "name": "D4",
                    "midi": 62,
                    "time": 394.3341120000039,
                    "velocity": 0.3858267716535433,
                    "duration": 0.4249290000000201
                },
                {
                    "name": "G3",
                    "midi": 55,
                    "time": 394.75904100000395,
                    "velocity": 0.3228346456692913,
                    "duration": 0.21246450000001005
                },
                {
                    "name": "A#3",
                    "midi": 58,
                    "time": 394.75904100000395,
                    "velocity": 0.3858267716535433,
                    "duration": 0.21246450000001005
                },
                {
                    "name": "D#4",
                    "midi": 63,
                    "time": 395.18397000000397,
                    "velocity": 0.4251968503937008,
                    "duration": 0.6373934999999733
                },
                {
                    "name": "G4",
                    "midi": 67,
                    "time": 395.18397000000397,
                    "velocity": 0.5039370078740157,
                    "duration": 0.6373934999999733
                },
                {
                    "name": "D4",
                    "midi": 62,
                    "time": 395.82136350000394,
                    "velocity": 0.3228346456692913,
                    "duration": 0.21246450000001005
                },
                {
                    "name": "F4",
                    "midi": 65,
                    "time": 395.82136350000394,
                    "velocity": 0.3858267716535433,
                    "duration": 0.21246450000001005
                },
                {
                    "name": "C4",
                    "midi": 60,
                    "time": 396.03382800000395,
                    "velocity": 0.3858267716535433,
                    "duration": 0.4160763125000244
                },
                {
                    "name": "D#4",
                    "midi": 63,
                    "time": 396.03382800000395,
                    "velocity": 0.4566929133858268,
                    "duration": 0.4249290000000201
                },
                {
                    "name": "A3",
                    "midi": 57,
                    "time": 396.45875700000397,
                    "velocity": 0.3464566929133858,
                    "duration": 0.21246450000001005
                },
                {
                    "name": "C4",
                    "midi": 60,
                    "time": 396.45875700000397,
                    "velocity": 0.4094488188976378,
                    "duration": 0.21246450000001005
                },
                {
                    "name": "D#4",
                    "midi": 63,
                    "time": 396.883686000004,
                    "velocity": 0.4251968503937008,
                    "duration": 0.6373934999999733
                },
                {
                    "name": "C5",
                    "midi": 72,
                    "time": 396.883686000004,
                    "velocity": 0.5039370078740157,
                    "duration": 0.6373934999999733
                },
                {
                    "name": "D4",
                    "midi": 62,
                    "time": 397.52107950000396,
                    "velocity": 0.3228346456692913,
                    "duration": 0.21246450000001005
                },
                {
                    "name": "A#4",
                    "midi": 70,
                    "time": 397.52107950000396,
                    "velocity": 0.3858267716535433,
                    "duration": 0.21246450000001005
                },
                {
                    "name": "C4",
                    "midi": 60,
                    "time": 397.733544000004,
                    "velocity": 0.4251968503937008,
                    "duration": 0.6373934999999733
                },
                {
                    "name": "A4",
                    "midi": 69,
                    "time": 397.733544000004,
                    "velocity": 0.5039370078740157,
                    "duration": 0.6373934999999733
                },
                {
                    "name": "A#3",
                    "midi": 58,
                    "time": 398.37093750000395,
                    "velocity": 0.3228346456692913,
                    "duration": 0.21246450000001005
                },
                {
                    "name": "G4",
                    "midi": 67,
                    "time": 398.37093750000395,
                    "velocity": 0.3228346456692913,
                    "duration": 0.21246450000001005
                },
                {
                    "name": "A3",
                    "midi": 57,
                    "time": 398.58340200000396,
                    "velocity": 0.3228346456692913,
                    "duration": 0.4249290000000201
                },
                {
                    "name": "F4",
                    "midi": 65,
                    "time": 398.58340200000396,
                    "velocity": 0.3858267716535433,
                    "duration": 0.4249290000000201
                },
                {
                    "name": "G3",
                    "midi": 55,
                    "time": 399.008331000004,
                    "velocity": 0.2677165354330709,
                    "duration": 0.4249290000000201
                },
                {
                    "name": "A#3",
                    "midi": 58,
                    "time": 399.008331000004,
                    "velocity": 0.3228346456692913,
                    "duration": 0.4249290000000201
                },
                {
                    "name": "F#3",
                    "midi": 54,
                    "time": 399.433260000004,
                    "velocity": 0.28346456692913385,
                    "duration": 0.4249290000000201
                },
                {
                    "name": "A3",
                    "midi": 57,
                    "time": 399.433260000004,
                    "velocity": 0.33858267716535434,
                    "duration": 0.4249290000000201
                },
                {
                    "name": "D3",
                    "midi": 50,
                    "time": 399.858189000004,
                    "velocity": 0.2125984251968504,
                    "duration": 0.4249290000000201
                },
                {
                    "name": "A3",
                    "midi": 57,
                    "time": 399.858189000004,
                    "velocity": 0.25196850393700787,
                    "duration": 0.4249290000000201
                },
                {
                    "name": "D#3",
                    "midi": 51,
                    "time": 400.28311800000404,
                    "velocity": 0.25984251968503935,
                    "duration": 0.4249290000000201
                },
                {
                    "name": "G3",
                    "midi": 55,
                    "time": 400.28311800000404,
                    "velocity": 0.30708661417322836,
                    "duration": 0.4249290000000201
                },
                {
                    "name": "A#3",
                    "midi": 58,
                    "time": 400.70804700000406,
                    "velocity": 0.31496062992125984,
                    "duration": 0.4249290000000201
                },
                {
                    "name": "E3",
                    "midi": 52,
                    "time": 400.70804700000406,
                    "velocity": 0.2440944881889764,
                    "duration": 0.4249290000000201
                },
                {
                    "name": "F3",
                    "midi": 53,
                    "time": 401.1329760000041,
                    "velocity": 0.2992125984251969,
                    "duration": 0.8498579999999833
                },
                {
                    "name": "F2",
                    "midi": 41,
                    "time": 401.98283400000406,
                    "velocity": 0.25196850393700787,
                    "duration": 0.8498579999999833
                },
                {
                    "name": "A#1",
                    "midi": 34,
                    "time": 402.83269200000404,
                    "velocity": 0.2755905511811024,
                    "duration": 0.8498579999999833
                },
                {
                    "name": "D4",
                    "midi": 62,
                    "time": 403.682550000004,
                    "velocity": 0.5196850393700787,
                    "duration": 0.6373934999999733
                },
                {
                    "name": "A#3",
                    "midi": 58,
                    "time": 403.682550000004,
                    "velocity": 0.4330708661417323,
                    "duration": 0.6373934999999733
                },
                {
                    "name": "A#3",
                    "midi": 58,
                    "time": 404.319943500004,
                    "velocity": 0.29133858267716534,
                    "duration": 0.10623225000000502
                },
                {
                    "name": "D4",
                    "midi": 62,
                    "time": 404.319943500004,
                    "velocity": 0.3464566929133858,
                    "duration": 0.10623225000000502
                },
                {
                    "name": "G3",
                    "midi": 55,
                    "time": 404.532408000004,
                    "velocity": 0.3543307086614173,
                    "duration": 0.10623225000000502
                },
                {
                    "name": "A#3",
                    "midi": 58,
                    "time": 404.532408000004,
                    "velocity": 0.41732283464566927,
                    "duration": 0.10623225000000502
                },
                {
                    "name": "D#3",
                    "midi": 51,
                    "time": 404.95733700000403,
                    "velocity": 0.30708661417322836,
                    "duration": 0.10623225000000502
                },
                {
                    "name": "G3",
                    "midi": 55,
                    "time": 404.95733700000403,
                    "velocity": 0.3700787401574803,
                    "duration": 0.10623225000000502
                },
                {
                    "name": "D#4",
                    "midi": 63,
                    "time": 405.38226600000405,
                    "velocity": 0.5196850393700787,
                    "duration": 0.6373934999999733
                },
                {
                    "name": "C4",
                    "midi": 60,
                    "time": 405.38226600000405,
                    "velocity": 0.4330708661417323,
                    "duration": 0.6373934999999733
                },
                {
                    "name": "A#3",
                    "midi": 58,
                    "time": 406.019659500004,
                    "velocity": 0.29133858267716534,
                    "duration": 0.10623225000000502
                },
                {
                    "name": "D4",
                    "midi": 62,
                    "time": 406.019659500004,
                    "velocity": 0.3464566929133858,
                    "duration": 0.10623225000000502
                },
                {
                    "name": "A3",
                    "midi": 57,
                    "time": 406.23212400000403,
                    "velocity": 0.3543307086614173,
                    "duration": 0.10623225000000502
                },
                {
                    "name": "C4",
                    "midi": 60,
                    "time": 406.23212400000403,
                    "velocity": 0.41732283464566927,
                    "duration": 0.10623225000000502
                },
                {
                    "name": "F3",
                    "midi": 53,
                    "time": 406.65705300000405,
                    "velocity": 0.30708661417322836,
                    "duration": 0.10623225000000502
                },
                {
                    "name": "A3",
                    "midi": 57,
                    "time": 406.65705300000405,
                    "velocity": 0.3700787401574803,
                    "duration": 0.10623225000000502
                },
                {
                    "name": "F4",
                    "midi": 65,
                    "time": 407.0819820000041,
                    "velocity": 0.5669291338582677,
                    "duration": 0.6373934999999733
                },
                {
                    "name": "D4",
                    "midi": 62,
                    "time": 407.0819820000041,
                    "velocity": 0.47244094488188976,
                    "duration": 0.6373934999999733
                },
                {
                    "name": "D4",
                    "midi": 62,
                    "time": 407.71937550000405,
                    "velocity": 0.31496062992125984,
                    "duration": 0.10623225000000502
                },
                {
                    "name": "F4",
                    "midi": 65,
                    "time": 407.71937550000405,
                    "velocity": 0.3779527559055118,
                    "duration": 0.10623225000000502
                },
                {
                    "name": "A#3",
                    "midi": 58,
                    "time": 407.93184000000406,
                    "velocity": 0.3858267716535433,
                    "duration": 0.10623225000000502
                },
                {
                    "name": "D4",
                    "midi": 62,
                    "time": 407.93184000000406,
                    "velocity": 0.4566929133858268,
                    "duration": 0.10623225000000502
                },
                {
                    "name": "G3",
                    "midi": 55,
                    "time": 408.3567690000041,
                    "velocity": 0.33070866141732286,
                    "duration": 0.10623225000000502
                },
                {
                    "name": "A#3",
                    "midi": 58,
                    "time": 408.3567690000041,
                    "velocity": 0.4015748031496063,
                    "duration": 0.10623225000000502
                },
                {
                    "name": "G4",
                    "midi": 67,
                    "time": 408.7816980000041,
                    "velocity": 0.5905511811023622,
                    "duration": 0.6373934999999733
                },
                {
                    "name": "D#4",
                    "midi": 63,
                    "time": 408.7816980000041,
                    "velocity": 0.4881889763779528,
                    "duration": 0.6373934999999733
                },
                {
                    "name": "D4",
                    "midi": 62,
                    "time": 409.4190915000041,
                    "velocity": 0.33070866141732286,
                    "duration": 0.10623225000000502
                },
                {
                    "name": "F4",
                    "midi": 65,
                    "time": 409.4190915000041,
                    "velocity": 0.3937007874015748,
                    "duration": 0.10623225000000502
                },
                {
                    "name": "C4",
                    "midi": 60,
                    "time": 409.6315560000041,
                    "velocity": 0.4015748031496063,
                    "duration": 0.10623225000000502
                },
                {
                    "name": "D#4",
                    "midi": 63,
                    "time": 409.6315560000041,
                    "velocity": 0.47244094488188976,
                    "duration": 0.10623225000000502
                },
                {
                    "name": "A3",
                    "midi": 57,
                    "time": 410.0564850000041,
                    "velocity": 0.3464566929133858,
                    "duration": 0.10623225000000502
                },
                {
                    "name": "C4",
                    "midi": 60,
                    "time": 410.0564850000041,
                    "velocity": 0.41732283464566927,
                    "duration": 0.10623225000000502
                },
                {
                    "name": "C5",
                    "midi": 72,
                    "time": 410.4814140000041,
                    "velocity": 0.6220472440944882,
                    "duration": 0.6373934999999733
                },
                {
                    "name": "D#4",
                    "midi": 63,
                    "time": 410.4814140000041,
                    "velocity": 0.5196850393700787,
                    "duration": 0.6373934999999733
                },
                {
                    "name": "D4",
                    "midi": 62,
                    "time": 411.1188075000041,
                    "velocity": 0.3464566929133858,
                    "duration": 0.10623225000000502
                },
                {
                    "name": "A#4",
                    "midi": 70,
                    "time": 411.1188075000041,
                    "velocity": 0.4094488188976378,
                    "duration": 0.10623225000000502
                },
                {
                    "name": "A4",
                    "midi": 69,
                    "time": 411.3312720000041,
                    "velocity": 0.6220472440944882,
                    "duration": 0.6373934999999733
                },
                {
                    "name": "C4",
                    "midi": 60,
                    "time": 411.3312720000041,
                    "velocity": 0.5196850393700787,
                    "duration": 0.6373934999999733
                },
                {
                    "name": "A#3",
                    "midi": 58,
                    "time": 411.9686655000041,
                    "velocity": 0.3464566929133858,
                    "duration": 0.10623225000000502
                },
                {
                    "name": "G4",
                    "midi": 67,
                    "time": 411.9686655000041,
                    "velocity": 0.4094488188976378,
                    "duration": 0.10623225000000502
                },
                {
                    "name": "A3",
                    "midi": 57,
                    "time": 412.1811300000041,
                    "velocity": 0.3858267716535433,
                    "duration": 0.10623225000000502
                },
                {
                    "name": "F4",
                    "midi": 65,
                    "time": 412.1811300000041,
                    "velocity": 0.4566929133858268,
                    "duration": 0.10623225000000502
                },
                {
                    "name": "G3",
                    "midi": 55,
                    "time": 412.6060590000041,
                    "velocity": 0.31496062992125984,
                    "duration": 0.10623225000000502
                },
                {
                    "name": "A#3",
                    "midi": 58,
                    "time": 412.6060590000041,
                    "velocity": 0.3858267716535433,
                    "duration": 0.10623225000000502
                },
                {
                    "name": "F#3",
                    "midi": 54,
                    "time": 413.03098800000413,
                    "velocity": 0.2677165354330709,
                    "duration": 1.6997160000000235
                },
                {
                    "name": "A3",
                    "midi": 57,
                    "time": 413.03098800000413,
                    "velocity": 0.2677165354330709,
                    "duration": 1.6997160000000235
                },
                {
                    "name": "C4",
                    "midi": 60,
                    "time": 413.03098800000413,
                    "velocity": 0.31496062992125984,
                    "duration": 1.6997160000000235
                },
                {
                    "name": "G3",
                    "midi": 55,
                    "time": 414.73070400000415,
                    "velocity": 0.2677165354330709,
                    "duration": 1.6997160000000235
                },
                {
                    "name": "A#3",
                    "midi": 58,
                    "time": 414.73070400000415,
                    "velocity": 0.31496062992125984,
                    "duration": 1.6997160000000235
                },
                {
                    "name": "E3",
                    "midi": 52,
                    "time": 416.4304200000042,
                    "velocity": 0.2677165354330709,
                    "duration": 1.6997160000000235
                },
                {
                    "name": "G3",
                    "midi": 55,
                    "time": 416.4304200000042,
                    "velocity": 0.31496062992125984,
                    "duration": 1.6997160000000235
                },
                {
                    "name": "D#3",
                    "midi": 51,
                    "time": 418.1301360000042,
                    "velocity": 0.44881889763779526,
                    "duration": 1.0623224999999934
                },
                {
                    "name": "F#3",
                    "midi": 54,
                    "time": 418.1301360000042,
                    "velocity": 0.5354330708661418,
                    "duration": 1.0623224999999934
                },
                {
                    "name": "D#3",
                    "midi": 51,
                    "time": 419.1924585000042,
                    "velocity": 0.3937007874015748,
                    "duration": 0.10623225000000502
                },
                {
                    "name": "F3",
                    "midi": 53,
                    "time": 419.1924585000042,
                    "velocity": 0.3937007874015748,
                    "duration": 0.10623225000000502
                },
                {
                    "name": "C4",
                    "midi": 60,
                    "time": 419.1924585000042,
                    "velocity": 0.47244094488188976,
                    "duration": 0.10623225000000502
                },
                {
                    "name": "D#3",
                    "midi": 51,
                    "time": 419.4049230000042,
                    "velocity": 0.48031496062992124,
                    "duration": 0.10623225000000502
                },
                {
                    "name": "F3",
                    "midi": 53,
                    "time": 419.4049230000042,
                    "velocity": 0.48031496062992124,
                    "duration": 0.10623225000000502
                },
                {
                    "name": "C4",
                    "midi": 60,
                    "time": 419.4049230000042,
                    "velocity": 0.5669291338582677,
                    "duration": 0.10623225000000502
                },
                {
                    "name": "D#3",
                    "midi": 51,
                    "time": 419.6173875000042,
                    "velocity": 0.4015748031496063,
                    "duration": 0.10623225000000502
                },
                {
                    "name": "F3",
                    "midi": 53,
                    "time": 419.6173875000042,
                    "velocity": 0.4015748031496063,
                    "duration": 0.10623225000000502
                },
                {
                    "name": "C4",
                    "midi": 60,
                    "time": 419.6173875000042,
                    "velocity": 0.48031496062992124,
                    "duration": 0.10623225000000502
                },
                {
                    "name": "D3",
                    "midi": 50,
                    "time": 419.8298520000042,
                    "velocity": 0.5748031496062992,
                    "duration": 0.4249290000000201
                },
                {
                    "name": "F3",
                    "midi": 53,
                    "time": 419.8298520000042,
                    "velocity": 0.5748031496062992,
                    "duration": 0.4249290000000201
                },
                {
                    "name": "A#3",
                    "midi": 58,
                    "time": 419.8298520000042,
                    "velocity": 0.5748031496062992,
                    "duration": 0.4249290000000201
                },
                {
                    "name": "A2",
                    "midi": 45,
                    "time": 420.46724550000425,
                    "velocity": 0.44881889763779526,
                    "duration": 0.10623225000000502
                },
                {
                    "name": "F3",
                    "midi": 53,
                    "time": 420.46724550000425,
                    "velocity": 0.5354330708661418,
                    "duration": 0.10623225000000502
                },
                {
                    "name": "A#2",
                    "midi": 46,
                    "time": 420.67971000000426,
                    "velocity": 0.49606299212598426,
                    "duration": 0.10623225000000502
                },
                {
                    "name": "F3",
                    "midi": 53,
                    "time": 420.67971000000426,
                    "velocity": 0.5905511811023622,
                    "duration": 0.10623225000000502
                },
                {
                    "name": "D#3",
                    "midi": 51,
                    "time": 420.8921745000043,
                    "velocity": 0.4409448818897638,
                    "duration": 0.10623225000000502
                },
                {
                    "name": "F3",
                    "midi": 53,
                    "time": 420.8921745000043,
                    "velocity": 0.5275590551181102,
                    "duration": 0.10623225000000502
                },
                {
                    "name": "D3",
                    "midi": 50,
                    "time": 421.1046390000043,
                    "velocity": 0.49606299212598426,
                    "duration": 0.10623225000000502
                },
                {
                    "name": "F3",
                    "midi": 53,
                    "time": 421.1046390000043,
                    "velocity": 0.5905511811023622,
                    "duration": 0.10623225000000502
                },
                {
                    "name": "A2",
                    "midi": 45,
                    "time": 421.3171035000043,
                    "velocity": 0.4409448818897638,
                    "duration": 0.10623225000000502
                },
                {
                    "name": "F3",
                    "midi": 53,
                    "time": 421.3171035000043,
                    "velocity": 0.5275590551181102,
                    "duration": 0.10623225000000502
                },
                {
                    "name": "A#2",
                    "midi": 46,
                    "time": 421.5295680000043,
                    "velocity": 0.49606299212598426,
                    "duration": 0.10623225000000502
                },
                {
                    "name": "F3",
                    "midi": 53,
                    "time": 421.5295680000043,
                    "velocity": 0.5905511811023622,
                    "duration": 0.10623225000000502
                },
                {
                    "name": "D#3",
                    "midi": 51,
                    "time": 421.7420325000043,
                    "velocity": 0.4409448818897638,
                    "duration": 0.10623225000000502
                },
                {
                    "name": "F3",
                    "midi": 53,
                    "time": 421.7420325000043,
                    "velocity": 0.5275590551181102,
                    "duration": 0.10623225000000502
                },
                {
                    "name": "D3",
                    "midi": 50,
                    "time": 421.9544970000043,
                    "velocity": 0.49606299212598426,
                    "duration": 0.10623225000000502
                },
                {
                    "name": "F3",
                    "midi": 53,
                    "time": 421.9544970000043,
                    "velocity": 0.5905511811023622,
                    "duration": 0.10623225000000502
                },
                {
                    "name": "A2",
                    "midi": 45,
                    "time": 422.16696150000433,
                    "velocity": 0.4409448818897638,
                    "duration": 0.10623225000000502
                },
                {
                    "name": "F3",
                    "midi": 53,
                    "time": 422.16696150000433,
                    "velocity": 0.5275590551181102,
                    "duration": 0.10623225000000502
                },
                {
                    "name": "A#2",
                    "midi": 46,
                    "time": 422.37942600000434,
                    "velocity": 0.49606299212598426,
                    "duration": 0.10623225000000502
                },
                {
                    "name": "F3",
                    "midi": 53,
                    "time": 422.37942600000434,
                    "velocity": 0.5905511811023622,
                    "duration": 0.10623225000000502
                },
                {
                    "name": "D#3",
                    "midi": 51,
                    "time": 422.59189050000435,
                    "velocity": 0.4409448818897638,
                    "duration": 0.10623225000000502
                },
                {
                    "name": "F3",
                    "midi": 53,
                    "time": 422.59189050000435,
                    "velocity": 0.5275590551181102,
                    "duration": 0.10623225000000502
                },
                {
                    "name": "D3",
                    "midi": 50,
                    "time": 422.80435500000436,
                    "velocity": 0.49606299212598426,
                    "duration": 0.10623225000000502
                },
                {
                    "name": "F3",
                    "midi": 53,
                    "time": 422.80435500000436,
                    "velocity": 0.5905511811023622,
                    "duration": 0.10623225000000502
                },
                {
                    "name": "A2",
                    "midi": 45,
                    "time": 423.0168195000044,
                    "velocity": 0.44881889763779526,
                    "duration": 0.10623225000000502
                },
                {
                    "name": "F3",
                    "midi": 53,
                    "time": 423.0168195000044,
                    "velocity": 0.5354330708661418,
                    "duration": 0.10623225000000502
                },
                {
                    "name": "A#2",
                    "midi": 46,
                    "time": 423.2292840000044,
                    "velocity": 0.7007874015748031,
                    "duration": 0.8498579999999833
                },
                {
                    "name": "G2",
                    "midi": 43,
                    "time": 424.07914200000437,
                    "velocity": 0.6299212598425197,
                    "duration": 0.8498579999999833
                },
                {
                    "name": "D#2",
                    "midi": 39,
                    "time": 424.92900000000435,
                    "velocity": 0.6929133858267716,
                    "duration": 0.8498579999999833
                },
                {
                    "name": "F2",
                    "midi": 41,
                    "time": 425.77885800000433,
                    "velocity": 0.6614173228346457,
                    "duration": 0.8498579999999833
                },
                {
                    "name": "A#1",
                    "midi": 34,
                    "time": 426.6287160000043,
                    "velocity": 0.6377952755905512,
                    "duration": 0.10623225000000502
                },
                {
                    "name": "D#3",
                    "midi": 51,
                    "time": 426.8411805000043,
                    "velocity": 0.4251968503937008,
                    "duration": 0.10623225000000502
                },
                {
                    "name": "D3",
                    "midi": 50,
                    "time": 427.05364500000434,
                    "velocity": 0.47244094488188976,
                    "duration": 0.10623225000000502
                },
                {
                    "name": "A2",
                    "midi": 45,
                    "time": 427.26610950000435,
                    "velocity": 0.4251968503937008,
                    "duration": 0.10623225000000502
                },
                {
                    "name": "A#2",
                    "midi": 46,
                    "time": 427.47857400000436,
                    "velocity": 0.47244094488188976,
                    "duration": 0.10623225000000502
                },
                {
                    "name": "D#3",
                    "midi": 51,
                    "time": 427.69103850000437,
                    "velocity": 0.4094488188976378,
                    "duration": 0.10623225000000502
                },
                {
                    "name": "D3",
                    "midi": 50,
                    "time": 427.9035030000044,
                    "velocity": 0.47244094488188976,
                    "duration": 0.10623225000000502
                },
                {
                    "name": "A2",
                    "midi": 45,
                    "time": 428.1159675000044,
                    "velocity": 0.4566929133858268,
                    "duration": 0.10623225000000502
                },
                {
                    "name": "A#2",
                    "midi": 46,
                    "time": 428.3284320000044,
                    "velocity": 0.47244094488188976,
                    "duration": 0.10623225000000502
                },
                {
                    "name": "D#3",
                    "midi": 51,
                    "time": 428.5408965000044,
                    "velocity": 0.4094488188976378,
                    "duration": 0.10623225000000502
                },
                {
                    "name": "D3",
                    "midi": 50,
                    "time": 428.7533610000044,
                    "velocity": 0.47244094488188976,
                    "duration": 0.10623225000000502
                },
                {
                    "name": "A2",
                    "midi": 45,
                    "time": 428.9658255000044,
                    "velocity": 0.4566929133858268,
                    "duration": 0.10623225000000502
                },
                {
                    "name": "A#2",
                    "midi": 46,
                    "time": 429.17829000000444,
                    "velocity": 0.5275590551181102,
                    "duration": 0.10623225000000502
                },
                {
                    "name": "C3",
                    "midi": 48,
                    "time": 429.39075450000445,
                    "velocity": 0.4645669291338583,
                    "duration": 0.10623225000000502
                },
                {
                    "name": "A#2",
                    "midi": 46,
                    "time": 429.60321900000446,
                    "velocity": 0.5669291338582677,
                    "duration": 0.10623225000000502
                },
                {
                    "name": "A2",
                    "midi": 45,
                    "time": 429.81568350000447,
                    "velocity": 0.5275590551181102,
                    "duration": 0.10623225000000502
                },
                {
                    "name": "G2",
                    "midi": 43,
                    "time": 430.0281480000045,
                    "velocity": 0.5905511811023622,
                    "duration": 0.10623225000000502
                },
                {
                    "name": "F2",
                    "midi": 41,
                    "time": 430.2406125000045,
                    "velocity": 0.6062992125984252,
                    "duration": 0.10623225000000502
                },
                {
                    "name": "D#2",
                    "midi": 39,
                    "time": 430.4530770000045,
                    "velocity": 0.6299212598425197,
                    "duration": 0.10623225000000502
                },
                {
                    "name": "D2",
                    "midi": 38,
                    "time": 430.6655415000045,
                    "velocity": 0.6456692913385826,
                    "duration": 0.10623225000000502
                },
                {
                    "name": "C2",
                    "midi": 36,
                    "time": 430.8780060000045,
                    "velocity": 0.7401574803149606,
                    "duration": 1.6997160000000235
                },
                {
                    "name": "F1",
                    "midi": 29,
                    "time": 432.57772200000454,
                    "velocity": 0.5748031496062992,
                    "duration": 0.8498579999999833
                },
                {
                    "name": "F2",
                    "midi": 41,
                    "time": 432.57772200000454,
                    "velocity": 0.6850393700787402,
                    "duration": 0.8498579999999833
                },
                {
                    "name": "A#1",
                    "midi": 34,
                    "time": 433.4275800000045,
                    "velocity": 0.23622047244094488,
                    "duration": 0.10623225000000502
                },
                {
                    "name": "A#2",
                    "midi": 46,
                    "time": 433.53381225000453,
                    "velocity": 0.2047244094488189,
                    "duration": 0.10623225000000502
                },
                {
                    "name": "A#1",
                    "midi": 34,
                    "time": 433.64004450000454,
                    "velocity": 0.23622047244094488,
                    "duration": 0.10623225000000502
                },
                {
                    "name": "A#2",
                    "midi": 46,
                    "time": 433.74627675000454,
                    "velocity": 0.1968503937007874,
                    "duration": 0.10623225000000502
                },
                {
                    "name": "A#1",
                    "midi": 34,
                    "time": 433.85250900000455,
                    "velocity": 0.23622047244094488,
                    "duration": 0.10623225000000502
                },
                {
                    "name": "A#2",
                    "midi": 46,
                    "time": 433.95874125000455,
                    "velocity": 0.2047244094488189,
                    "duration": 0.10623225000000502
                },
                {
                    "name": "A#1",
                    "midi": 34,
                    "time": 434.06497350000456,
                    "velocity": 0.23622047244094488,
                    "duration": 0.10623225000000502
                },
                {
                    "name": "A#2",
                    "midi": 46,
                    "time": 434.17120575000456,
                    "velocity": 0.2125984251968504,
                    "duration": 0.10623225000000502
                },
                {
                    "name": "A#1",
                    "midi": 34,
                    "time": 434.27743800000457,
                    "velocity": 0.23622047244094488,
                    "duration": 0.10623225000000502
                },
                {
                    "name": "A#2",
                    "midi": 46,
                    "time": 434.38367025000457,
                    "velocity": 0.2125984251968504,
                    "duration": 0.10623225000000502
                },
                {
                    "name": "A#1",
                    "midi": 34,
                    "time": 434.4899025000046,
                    "velocity": 0.23622047244094488,
                    "duration": 0.10623225000000502
                },
                {
                    "name": "A#2",
                    "midi": 46,
                    "time": 434.5961347500046,
                    "velocity": 0.1968503937007874,
                    "duration": 0.10623225000000502
                },
                {
                    "name": "A#1",
                    "midi": 34,
                    "time": 434.7023670000046,
                    "velocity": 0.23622047244094488,
                    "duration": 0.10623225000000502
                },
                {
                    "name": "A#2",
                    "midi": 46,
                    "time": 434.8085992500046,
                    "velocity": 0.2047244094488189,
                    "duration": 0.10623225000000502
                },
                {
                    "name": "A#1",
                    "midi": 34,
                    "time": 434.9148315000046,
                    "velocity": 0.23622047244094488,
                    "duration": 0.10623225000000502
                },
                {
                    "name": "A#2",
                    "midi": 46,
                    "time": 435.0210637500046,
                    "velocity": 0.2047244094488189,
                    "duration": 0.10623225000000502
                },
                {
                    "name": "A#1",
                    "midi": 34,
                    "time": 435.1272960000046,
                    "velocity": 0.23622047244094488,
                    "duration": 0.10623225000000502
                },
                {
                    "name": "A#2",
                    "midi": 46,
                    "time": 435.2335282500046,
                    "velocity": 0.2047244094488189,
                    "duration": 0.10623225000000502
                },
                {
                    "name": "A#1",
                    "midi": 34,
                    "time": 435.3397605000046,
                    "velocity": 0.23622047244094488,
                    "duration": 0.10623225000000502
                },
                {
                    "name": "A#2",
                    "midi": 46,
                    "time": 435.4459927500046,
                    "velocity": 0.1968503937007874,
                    "duration": 0.10623225000000502
                },
                {
                    "name": "A#1",
                    "midi": 34,
                    "time": 435.5522250000046,
                    "velocity": 0.23622047244094488,
                    "duration": 0.10623225000000502
                },
                {
                    "name": "A#2",
                    "midi": 46,
                    "time": 435.65845725000463,
                    "velocity": 0.2047244094488189,
                    "duration": 0.10623225000000502
                },
                {
                    "name": "A#1",
                    "midi": 34,
                    "time": 435.76468950000464,
                    "velocity": 0.23622047244094488,
                    "duration": 0.10623225000000502
                },
                {
                    "name": "A#2",
                    "midi": 46,
                    "time": 435.87092175000464,
                    "velocity": 0.2125984251968504,
                    "duration": 0.10623225000000502
                },
                {
                    "name": "A#1",
                    "midi": 34,
                    "time": 435.97715400000465,
                    "velocity": 0.23622047244094488,
                    "duration": 0.10623225000000502
                },
                {
                    "name": "A#2",
                    "midi": 46,
                    "time": 436.08338625000465,
                    "velocity": 0.2125984251968504,
                    "duration": 0.10623225000000502
                },
                {
                    "name": "A#1",
                    "midi": 34,
                    "time": 436.18961850000466,
                    "velocity": 0.23622047244094488,
                    "duration": 0.10623225000000502
                },
                {
                    "name": "A#2",
                    "midi": 46,
                    "time": 436.29585075000466,
                    "velocity": 0.1968503937007874,
                    "duration": 0.10623225000000502
                },
                {
                    "name": "A#1",
                    "midi": 34,
                    "time": 436.40208300000467,
                    "velocity": 0.23622047244094488,
                    "duration": 0.10623225000000502
                },
                {
                    "name": "A#2",
                    "midi": 46,
                    "time": 436.50831525000467,
                    "velocity": 0.2047244094488189,
                    "duration": 0.10623225000000502
                },
                {
                    "name": "A#1",
                    "midi": 34,
                    "time": 436.6145475000047,
                    "velocity": 0.23622047244094488,
                    "duration": 0.10623225000000502
                },
                {
                    "name": "A#2",
                    "midi": 46,
                    "time": 436.7207797500047,
                    "velocity": 0.2047244094488189,
                    "duration": 0.10623225000000502
                },
                {
                    "name": "A#1",
                    "midi": 34,
                    "time": 436.8270120000047,
                    "velocity": 0.23622047244094488,
                    "duration": 0.10623225000000502
                },
                {
                    "name": "A#2",
                    "midi": 46,
                    "time": 436.9332442500047,
                    "velocity": 0.2047244094488189,
                    "duration": 0.10623225000000502
                },
                {
                    "name": "A#1",
                    "midi": 34,
                    "time": 437.0394765000047,
                    "velocity": 0.23622047244094488,
                    "duration": 0.10623225000000502
                },
                {
                    "name": "A#2",
                    "midi": 46,
                    "time": 437.1457087500047,
                    "velocity": 0.1968503937007874,
                    "duration": 0.10623225000000502
                },
                {
                    "name": "A#1",
                    "midi": 34,
                    "time": 437.2519410000047,
                    "velocity": 0.23622047244094488,
                    "duration": 0.10623225000000502
                },
                {
                    "name": "A#2",
                    "midi": 46,
                    "time": 437.3581732500047,
                    "velocity": 0.2047244094488189,
                    "duration": 0.10623225000000502
                },
                {
                    "name": "A#1",
                    "midi": 34,
                    "time": 437.4644055000047,
                    "velocity": 0.23622047244094488,
                    "duration": 0.10623225000000502
                },
                {
                    "name": "A#2",
                    "midi": 46,
                    "time": 437.5706377500047,
                    "velocity": 0.2125984251968504,
                    "duration": 0.10623225000000502
                },
                {
                    "name": "A#1",
                    "midi": 34,
                    "time": 437.6768700000047,
                    "velocity": 0.23622047244094488,
                    "duration": 0.10623225000000502
                },
                {
                    "name": "A#2",
                    "midi": 46,
                    "time": 437.78310225000473,
                    "velocity": 0.2125984251968504,
                    "duration": 0.10623225000000502
                },
                {
                    "name": "A#1",
                    "midi": 34,
                    "time": 437.88933450000474,
                    "velocity": 0.2755905511811024,
                    "duration": 0.10623225000000502
                },
                {
                    "name": "A#2",
                    "midi": 46,
                    "time": 437.99556675000474,
                    "velocity": 0.2283464566929134,
                    "duration": 0.10623225000000502
                },
                {
                    "name": "A#1",
                    "midi": 34,
                    "time": 438.10179900000475,
                    "velocity": 0.2677165354330709,
                    "duration": 0.10623225000000502
                },
                {
                    "name": "A#2",
                    "midi": 46,
                    "time": 438.20803125000475,
                    "velocity": 0.2047244094488189,
                    "duration": 0.10623225000000502
                },
                {
                    "name": "A#1",
                    "midi": 34,
                    "time": 438.31426350000476,
                    "velocity": 0.2755905511811024,
                    "duration": 0.10623225000000502
                },
                {
                    "name": "A#2",
                    "midi": 46,
                    "time": 438.42049575000476,
                    "velocity": 0.2440944881889764,
                    "duration": 0.10623225000000502
                },
                {
                    "name": "A#1",
                    "midi": 34,
                    "time": 438.52672800000477,
                    "velocity": 0.2992125984251969,
                    "duration": 0.10623225000000502
                },
                {
                    "name": "A#2",
                    "midi": 46,
                    "time": 438.63296025000477,
                    "velocity": 0.23622047244094488,
                    "duration": 0.10623225000000502
                },
                {
                    "name": "A#1",
                    "midi": 34,
                    "time": 438.7391925000048,
                    "velocity": 0.2677165354330709,
                    "duration": 0.10623225000000502
                },
                {
                    "name": "A#2",
                    "midi": 46,
                    "time": 438.8454247500048,
                    "velocity": 0.1968503937007874,
                    "duration": 0.10623225000000502
                },
                {
                    "name": "A#1",
                    "midi": 34,
                    "time": 438.9516570000048,
                    "velocity": 0.25984251968503935,
                    "duration": 0.10623225000000502
                },
                {
                    "name": "A#2",
                    "midi": 46,
                    "time": 439.0578892500048,
                    "velocity": 0.2047244094488189,
                    "duration": 0.10623225000000502
                },
                {
                    "name": "A#1",
                    "midi": 34,
                    "time": 439.1641215000048,
                    "velocity": 0.23622047244094488,
                    "duration": 0.10623225000000502
                },
                {
                    "name": "A#2",
                    "midi": 46,
                    "time": 439.2703537500048,
                    "velocity": 0.2125984251968504,
                    "duration": 0.10623225000000502
                },
                {
                    "name": "A#1",
                    "midi": 34,
                    "time": 439.3765860000048,
                    "velocity": 0.23622047244094488,
                    "duration": 0.10623225000000502
                },
                {
                    "name": "A#2",
                    "midi": 46,
                    "time": 439.4828182500048,
                    "velocity": 0.2125984251968504,
                    "duration": 0.10623225000000502
                },
                {
                    "name": "A#1",
                    "midi": 34,
                    "time": 439.5890505000048,
                    "velocity": 0.23622047244094488,
                    "duration": 0.10623225000000502
                },
                {
                    "name": "A#2",
                    "midi": 46,
                    "time": 439.6952827500048,
                    "velocity": 0.1968503937007874,
                    "duration": 0.10623225000000502
                },
                {
                    "name": "A#1",
                    "midi": 34,
                    "time": 439.8015150000048,
                    "velocity": 0.23622047244094488,
                    "duration": 0.10623225000000502
                },
                {
                    "name": "A#2",
                    "midi": 46,
                    "time": 439.90774725000483,
                    "velocity": 0.2047244094488189,
                    "duration": 0.10623225000000502
                },
                {
                    "name": "A#1",
                    "midi": 34,
                    "time": 440.01397950000484,
                    "velocity": 0.23622047244094488,
                    "duration": 0.10623225000000502
                },
                {
                    "name": "A#2",
                    "midi": 46,
                    "time": 440.12021175000484,
                    "velocity": 0.2047244094488189,
                    "duration": 0.10623225000000502
                },
                {
                    "name": "A#1",
                    "midi": 34,
                    "time": 440.22644400000485,
                    "velocity": 0.23622047244094488,
                    "duration": 0.10623225000000502
                },
                {
                    "name": "A#2",
                    "midi": 46,
                    "time": 440.33267625000485,
                    "velocity": 0.1968503937007874,
                    "duration": 0.10623225000000502
                },
                {
                    "name": "A#1",
                    "midi": 34,
                    "time": 440.43890850000486,
                    "velocity": 0.2283464566929134,
                    "duration": 0.10623225000000502
                },
                {
                    "name": "A#2",
                    "midi": 46,
                    "time": 440.54514075000486,
                    "velocity": 0.1889763779527559,
                    "duration": 0.10623225000000502
                },
                {
                    "name": "A#1",
                    "midi": 34,
                    "time": 440.65137300000487,
                    "velocity": 0.2204724409448819,
                    "duration": 0.10623225000000502
                },
                {
                    "name": "A#2",
                    "midi": 46,
                    "time": 440.7576052500049,
                    "velocity": 0.1889763779527559,
                    "duration": 0.10623225000000502
                },
                {
                    "name": "A#1",
                    "midi": 34,
                    "time": 440.8638375000049,
                    "velocity": 0.2204724409448819,
                    "duration": 0.10623225000000502
                },
                {
                    "name": "A#2",
                    "midi": 46,
                    "time": 440.9700697500049,
                    "velocity": 0.1968503937007874,
                    "duration": 0.10623225000000502
                },
                {
                    "name": "A#1",
                    "midi": 34,
                    "time": 441.0763020000049,
                    "velocity": 0.2125984251968504,
                    "duration": 0.10623225000000502
                },
                {
                    "name": "A#2",
                    "midi": 46,
                    "time": 441.1825342500049,
                    "velocity": 0.1889763779527559,
                    "duration": 0.10623225000000502
                },
                {
                    "name": "A#1",
                    "midi": 34,
                    "time": 441.2887665000049,
                    "velocity": 0.2125984251968504,
                    "duration": 0.10623225000000502
                },
                {
                    "name": "A#2",
                    "midi": 46,
                    "time": 441.3949987500049,
                    "velocity": 0.1732283464566929,
                    "duration": 0.10623225000000502
                },
                {
                    "name": "A#1",
                    "midi": 34,
                    "time": 441.5012310000049,
                    "velocity": 0.2047244094488189,
                    "duration": 0.10623225000000502
                },
                {
                    "name": "A#2",
                    "midi": 46,
                    "time": 441.6074632500049,
                    "velocity": 0.1732283464566929,
                    "duration": 0.10623225000000502
                },
                {
                    "name": "A#1",
                    "midi": 34,
                    "time": 441.7136955000049,
                    "velocity": 0.1968503937007874,
                    "duration": 0.10623225000000502
                },
                {
                    "name": "A#2",
                    "midi": 46,
                    "time": 441.8199277500049,
                    "velocity": 0.1732283464566929,
                    "duration": 0.10623225000000502
                },
                {
                    "name": "A#1",
                    "midi": 34,
                    "time": 441.9261600000049,
                    "velocity": 0.1968503937007874,
                    "duration": 0.10623225000000502
                },
                {
                    "name": "A#2",
                    "midi": 46,
                    "time": 442.03239225000493,
                    "velocity": 0.16535433070866143,
                    "duration": 0.10623225000000502
                },
                {
                    "name": "A#1",
                    "midi": 34,
                    "time": 442.13862450000494,
                    "velocity": 0.1889763779527559,
                    "duration": 0.10623225000000502
                },
                {
                    "name": "A#2",
                    "midi": 46,
                    "time": 442.24485675000494,
                    "velocity": 0.15748031496062992,
                    "duration": 0.10623225000000502
                },
                {
                    "name": "A#1",
                    "midi": 34,
                    "time": 442.35108900000495,
                    "velocity": 0.1889763779527559,
                    "duration": 0.10623225000000502
                },
                {
                    "name": "A#2",
                    "midi": 46,
                    "time": 442.45732125000495,
                    "velocity": 0.15748031496062992,
                    "duration": 0.10623225000000502
                },
                {
                    "name": "A#1",
                    "midi": 34,
                    "time": 442.56355350000496,
                    "velocity": 0.18110236220472442,
                    "duration": 0.10623225000000502
                },
                {
                    "name": "A#2",
                    "midi": 46,
                    "time": 442.66978575000496,
                    "velocity": 0.15748031496062992,
                    "duration": 0.10623225000000502
                },
                {
                    "name": "A#1",
                    "midi": 34,
                    "time": 442.77601800000497,
                    "velocity": 0.1732283464566929,
                    "duration": 0.10623225000000502
                },
                {
                    "name": "A#2",
                    "midi": 46,
                    "time": 442.882250250005,
                    "velocity": 0.15748031496062992,
                    "duration": 0.10623225000000502
                },
                {
                    "name": "A#1",
                    "midi": 34,
                    "time": 442.988482500005,
                    "velocity": 0.1732283464566929,
                    "duration": 0.10623225000000502
                },
                {
                    "name": "A#2",
                    "midi": 46,
                    "time": 443.094714750005,
                    "velocity": 0.14173228346456693,
                    "duration": 0.10623225000000502
                },
                {
                    "name": "A#1",
                    "midi": 34,
                    "time": 443.200947000005,
                    "velocity": 0.1732283464566929,
                    "duration": 0.10623225000000502
                },
                {
                    "name": "A#2",
                    "midi": 46,
                    "time": 443.307179250005,
                    "velocity": 0.14960629921259844,
                    "duration": 0.10623225000000502
                },
                {
                    "name": "A#1",
                    "midi": 34,
                    "time": 443.413411500005,
                    "velocity": 0.1732283464566929,
                    "duration": 0.10623225000000502
                },
                {
                    "name": "A#2",
                    "midi": 46,
                    "time": 443.519643750005,
                    "velocity": 0.14960629921259844,
                    "duration": 0.10623225000000502
                },
                {
                    "name": "A#1",
                    "midi": 34,
                    "time": 443.625876000005,
                    "velocity": 0.4409448818897638,
                    "duration": 0.6373934999999733
                },
                {
                    "name": "A#2",
                    "midi": 46,
                    "time": 443.625876000005,
                    "velocity": 0.5196850393700787,
                    "duration": 0.6373934999999733
                },
                {
                    "name": "C2",
                    "midi": 36,
                    "time": 444.263269500005,
                    "velocity": 0.3858267716535433,
                    "duration": 0.10623225000000502
                },
                {
                    "name": "C3",
                    "midi": 48,
                    "time": 444.263269500005,
                    "velocity": 0.4645669291338583,
                    "duration": 0.10623225000000502
                },
                {
                    "name": "D2",
                    "midi": 38,
                    "time": 444.475734000005,
                    "velocity": 0.4409448818897638,
                    "duration": 0.6373934999999733
                },
                {
                    "name": "D3",
                    "midi": 50,
                    "time": 444.475734000005,
                    "velocity": 0.5196850393700787,
                    "duration": 0.6373934999999733
                },
                {
                    "name": "D#2",
                    "midi": 39,
                    "time": 445.11312750000496,
                    "velocity": 0.3937007874015748,
                    "duration": 0.10623225000000502
                },
                {
                    "name": "D#3",
                    "midi": 51,
                    "time": 445.11312750000496,
                    "velocity": 0.47244094488188976,
                    "duration": 0.10623225000000502
                },
                {
                    "name": "F2",
                    "midi": 41,
                    "time": 445.325592000005,
                    "velocity": 0.44881889763779526,
                    "duration": 0.6373934999999733
                },
                {
                    "name": "F3",
                    "midi": 53,
                    "time": 445.325592000005,
                    "velocity": 0.5354330708661418,
                    "duration": 0.6373934999999733
                },
                {
                    "name": "G2",
                    "midi": 43,
                    "time": 445.96298550000495,
                    "velocity": 0.3700787401574803,
                    "duration": 0.10623225000000502
                },
                {
                    "name": "G3",
                    "midi": 55,
                    "time": 445.96298550000495,
                    "velocity": 0.4409448818897638,
                    "duration": 0.10623225000000502
                },
                {
                    "name": "A2",
                    "midi": 45,
                    "time": 446.17545000000496,
                    "velocity": 0.41732283464566927,
                    "duration": 0.10623225000000502
                },
                {
                    "name": "A3",
                    "midi": 57,
                    "time": 446.17545000000496,
                    "velocity": 0.49606299212598426,
                    "duration": 0.10623225000000502
                },
                {
                    "name": "A#2",
                    "midi": 46,
                    "time": 446.38791450000497,
                    "velocity": 0.3937007874015748,
                    "duration": 0.10623225000000502
                },
                {
                    "name": "A#3",
                    "midi": 58,
                    "time": 446.38791450000497,
                    "velocity": 0.47244094488188976,
                    "duration": 0.10623225000000502
                },
                {
                    "name": "C3",
                    "midi": 48,
                    "time": 446.600379000005,
                    "velocity": 0.4330708661417323,
                    "duration": 0.10623225000000502
                },
                {
                    "name": "C4",
                    "midi": 60,
                    "time": 446.600379000005,
                    "velocity": 0.5118110236220472,
                    "duration": 0.10623225000000502
                },
                {
                    "name": "D3",
                    "midi": 50,
                    "time": 446.812843500005,
                    "velocity": 0.4015748031496063,
                    "duration": 0.10623225000000502
                },
                {
                    "name": "D4",
                    "midi": 62,
                    "time": 446.812843500005,
                    "velocity": 0.48031496062992124,
                    "duration": 0.10623225000000502
                },
                {
                    "name": "D#3",
                    "midi": 51,
                    "time": 447.025308000005,
                    "velocity": 0.48031496062992124,
                    "duration": 0.6373934999999733
                },
                {
                    "name": "D#4",
                    "midi": 63,
                    "time": 447.025308000005,
                    "velocity": 0.5669291338582677,
                    "duration": 0.6373934999999733
                },
                {
                    "name": "D3",
                    "midi": 50,
                    "time": 447.66270150000497,
                    "velocity": 0.4094488188976378,
                    "duration": 0.10623225000000502
                },
                {
                    "name": "D4",
                    "midi": 62,
                    "time": 447.66270150000497,
                    "velocity": 0.49606299212598426,
                    "duration": 0.10623225000000502
                },
                {
                    "name": "C3",
                    "midi": 48,
                    "time": 447.875166000005,
                    "velocity": 0.4645669291338583,
                    "duration": 0.6373934999999733
                },
                {
                    "name": "C4",
                    "midi": 60,
                    "time": 447.875166000005,
                    "velocity": 0.5433070866141733,
                    "duration": 0.6373934999999733
                },
                {
                    "name": "A#2",
                    "midi": 46,
                    "time": 448.51255950000495,
                    "velocity": 0.4015748031496063,
                    "duration": 0.10623225000000502
                },
                {
                    "name": "A#3",
                    "midi": 58,
                    "time": 448.51255950000495,
                    "velocity": 0.48031496062992124,
                    "duration": 0.10623225000000502
                },
                {
                    "name": "A2",
                    "midi": 45,
                    "time": 448.72502400000496,
                    "velocity": 0.4566929133858268,
                    "duration": 0.6373934999999733
                },
                {
                    "name": "A3",
                    "midi": 57,
                    "time": 448.72502400000496,
                    "velocity": 0.5433070866141733,
                    "duration": 0.6373934999999733
                },
                {
                    "name": "G2",
                    "midi": 43,
                    "time": 449.36241750000494,
                    "velocity": 0.3700787401574803,
                    "duration": 0.10623225000000502
                },
                {
                    "name": "G3",
                    "midi": 55,
                    "time": 449.36241750000494,
                    "velocity": 0.4409448818897638,
                    "duration": 0.10623225000000502
                },
                {
                    "name": "F2",
                    "midi": 41,
                    "time": 449.57488200000495,
                    "velocity": 0.4094488188976378,
                    "duration": 0.10623225000000502
                },
                {
                    "name": "F3",
                    "midi": 53,
                    "time": 449.57488200000495,
                    "velocity": 0.4881889763779528,
                    "duration": 0.10623225000000502
                },
                {
                    "name": "D#2",
                    "midi": 39,
                    "time": 449.78734650000496,
                    "velocity": 0.3858267716535433,
                    "duration": 0.10623225000000502
                },
                {
                    "name": "D#3",
                    "midi": 51,
                    "time": 449.78734650000496,
                    "velocity": 0.4566929133858268,
                    "duration": 0.10623225000000502
                },
                {
                    "name": "D2",
                    "midi": 38,
                    "time": 449.99981100000497,
                    "velocity": 0.4094488188976378,
                    "duration": 0.10623225000000502
                },
                {
                    "name": "D3",
                    "midi": 50,
                    "time": 449.99981100000497,
                    "velocity": 0.4881889763779528,
                    "duration": 0.10623225000000502
                },
                {
                    "name": "C2",
                    "midi": 36,
                    "time": 450.212275500005,
                    "velocity": 0.3779527559055118,
                    "duration": 0.10623225000000502
                },
                {
                    "name": "C3",
                    "midi": 48,
                    "time": 450.212275500005,
                    "velocity": 0.44881889763779526,
                    "duration": 0.10623225000000502
                },
                {
                    "name": "A#1",
                    "midi": 34,
                    "time": 450.424740000005,
                    "velocity": 0.4566929133858268,
                    "duration": 0.10623225000000502
                },
                {
                    "name": "A#2",
                    "midi": 46,
                    "time": 450.424740000005,
                    "velocity": 0.5433070866141733,
                    "duration": 0.10623225000000502
                },
                {
                    "name": "F3",
                    "midi": 53,
                    "time": 450.849669000005,
                    "velocity": 0.2677165354330709,
                    "duration": 0.10623225000000502
                },
                {
                    "name": "C4",
                    "midi": 60,
                    "time": 450.849669000005,
                    "velocity": 0.2677165354330709,
                    "duration": 0.10623225000000502
                },
                {
                    "name": "D#4",
                    "midi": 63,
                    "time": 450.849669000005,
                    "velocity": 0.3228346456692913,
                    "duration": 0.10623225000000502
                },
                {
                    "name": "A#3",
                    "midi": 58,
                    "time": 451.274598000005,
                    "velocity": 0.3228346456692913,
                    "duration": 0.10623225000000502
                },
                {
                    "name": "D4",
                    "midi": 62,
                    "time": 451.274598000005,
                    "velocity": 0.3858267716535433,
                    "duration": 0.10623225000000502
                },
                {
                    "name": "F4",
                    "midi": 65,
                    "time": 451.69952700000505,
                    "velocity": 0.2677165354330709,
                    "duration": 0.10623225000000502
                },
                {
                    "name": "C5",
                    "midi": 72,
                    "time": 451.69952700000505,
                    "velocity": 0.2677165354330709,
                    "duration": 0.10623225000000502
                },
                {
                    "name": "D#5",
                    "midi": 75,
                    "time": 451.69952700000505,
                    "velocity": 0.3228346456692913,
                    "duration": 0.10623225000000502
                },
                {
                    "name": "A#4",
                    "midi": 70,
                    "time": 452.12445600000507,
                    "velocity": 0.3228346456692913,
                    "duration": 0.10623225000000502
                },
                {
                    "name": "D5",
                    "midi": 74,
                    "time": 452.12445600000507,
                    "velocity": 0.3858267716535433,
                    "duration": 0.10623225000000502
                },
                {
                    "name": "F2",
                    "midi": 41,
                    "time": 452.97431400000505,
                    "velocity": 0.4409448818897638,
                    "duration": 0.4249290000000201
                },
                {
                    "name": "F3",
                    "midi": 53,
                    "time": 452.97431400000505,
                    "velocity": 0.5275590551181102,
                    "duration": 0.4249290000000201
                },
                {
                    "name": "A#1",
                    "midi": 34,
                    "time": 453.8241720000051,
                    "velocity": 0.5039370078740157,
                    "duration": 0.4249290000000201
                },
                {
                    "name": "A#2",
                    "midi": 46,
                    "time": 453.8241720000051,
                    "velocity": 0.5984251968503937,
                    "duration": 0.4249290000000201
                }
            ],
            "controlChanges": {},
            "id": 2,
            "name": "Piano left",
            "instrumentNumber": 0,
            "instrument": "acoustic grand piano",
            "instrumentFamily": "piano",
            "channelNumber": 0,
            "isPercussion": false
        },
        {
            "startTime": 0,
            "duration": 0,
            "length": 0,
            "notes": [],
            "controlChanges": {
                "64": [
                    {
                        "number": 64,
                        "time": 6.86171808125,
                        "value": 1
                    },
                    {
                        "number": 64,
                        "time": 8.53133494375,
                        "value": 0
                    },
                    {
                        "number": 64,
                        "time": 8.59861536875,
                        "value": 1
                    },
                    {
                        "number": 64,
                        "time": 9.3608317625,
                        "value": 0
                    },
                    {
                        "number": 64,
                        "time": 9.47326089375,
                        "value": 1
                    },
                    {
                        "number": 64,
                        "time": 10.20626341875,
                        "value": 0
                    },
                    {
                        "number": 64,
                        "time": 10.279740725,
                        "value": 1
                    },
                    {
                        "number": 64,
                        "time": 10.638274568749999,
                        "value": 0
                    },
                    {
                        "number": 64,
                        "time": 10.72326036875,
                        "value": 1
                    },
                    {
                        "number": 64,
                        "time": 11.02956335625,
                        "value": 0
                    },
                    {
                        "number": 64,
                        "time": 11.088876362499999,
                        "value": 1
                    },
                    {
                        "number": 64,
                        "time": 11.898012,
                        "value": 0
                    },
                    {
                        "number": 64,
                        "time": 11.97325984375,
                        "value": 1
                    },
                    {
                        "number": 64,
                        "time": 12.33090841875,
                        "value": 0
                    },
                    {
                        "number": 64,
                        "time": 12.422976368750001,
                        "value": 1
                    },
                    {
                        "number": 64,
                        "time": 12.75937849375,
                        "value": 0
                    },
                    {
                        "number": 64,
                        "time": 12.829314725000001,
                        "value": 1
                    },
                    {
                        "number": 64,
                        "time": 13.185192762500002,
                        "value": 0
                    },
                    {
                        "number": 64,
                        "time": 13.254243725000002,
                        "value": 1
                    },
                    {
                        "number": 64,
                        "time": 13.597728000000002,
                        "value": 0
                    },
                    {
                        "number": 64,
                        "time": 14.935369081250002,
                        "value": 1
                    },
                    {
                        "number": 64,
                        "time": 15.297444000000002,
                        "value": 0
                    },
                    {
                        "number": 64,
                        "time": 15.760439556250002,
                        "value": 1
                    },
                    {
                        "number": 64,
                        "time": 16.191565437500003,
                        "value": 0
                    },
                    {
                        "number": 64,
                        "time": 16.678463250000004,
                        "value": 1
                    },
                    {
                        "number": 64,
                        "time": 16.997160000000004,
                        "value": 0
                    },
                    {
                        "number": 64,
                        "time": 17.221132993750004,
                        "value": 1
                    },
                    {
                        "number": 64,
                        "time": 17.866493912500005,
                        "value": 0
                    },
                    {
                        "number": 64,
                        "time": 17.900134125000005,
                        "value": 1
                    },
                    {
                        "number": 64,
                        "time": 18.280799687500004,
                        "value": 0
                    },
                    {
                        "number": 64,
                        "time": 18.319751512500005,
                        "value": 1
                    },
                    {
                        "number": 64,
                        "time": 18.703072881250005,
                        "value": 0
                    },
                    {
                        "number": 64,
                        "time": 23.958028181250004,
                        "value": 1
                    },
                    {
                        "number": 64,
                        "time": 24.669784256250004,
                        "value": 0
                    },
                    {
                        "number": 64,
                        "time": 24.848608543750004,
                        "value": 1
                    },
                    {
                        "number": 64,
                        "time": 25.084090031250003,
                        "value": 0
                    },
                    {
                        "number": 64,
                        "time": 25.273537543750002,
                        "value": 1
                    },
                    {
                        "number": 64,
                        "time": 25.502822150000004,
                        "value": 0
                    },
                    {
                        "number": 64,
                        "time": 25.698466543750005,
                        "value": 1
                    },
                    {
                        "number": 64,
                        "time": 25.933948031250004,
                        "value": 0
                    },
                    {
                        "number": 64,
                        "time": 26.103034362500004,
                        "value": 1
                    },
                    {
                        "number": 64,
                        "time": 26.359762300000003,
                        "value": 0
                    },
                    {
                        "number": 64,
                        "time": 26.568685725,
                        "value": 1
                    },
                    {
                        "number": 64,
                        "time": 26.783806031250002,
                        "value": 0
                    },
                    {
                        "number": 64,
                        "time": 26.97325354375,
                        "value": 1
                    },
                    {
                        "number": 64,
                        "time": 27.195456,
                        "value": 0
                    },
                    {
                        "number": 64,
                        "time": 27.28132706875,
                        "value": 1
                    },
                    {
                        "number": 64,
                        "time": 28.05859303125,
                        "value": 0
                    },
                    {
                        "number": 64,
                        "time": 28.126758725,
                        "value": 1
                    },
                    {
                        "number": 64,
                        "time": 28.268401724999997,
                        "value": 0
                    },
                    {
                        "number": 64,
                        "time": 28.354272793749995,
                        "value": 1
                    },
                    {
                        "number": 64,
                        "time": 28.479980956249996,
                        "value": 0
                    },
                    {
                        "number": 64,
                        "time": 28.531326543749994,
                        "value": 1
                    },
                    {
                        "number": 64,
                        "time": 28.694215993749996,
                        "value": 0
                    },
                    {
                        "number": 64,
                        "time": 28.779201793749994,
                        "value": 1
                    },
                    {
                        "number": 64,
                        "time": 28.895171999999995,
                        "value": 0
                    },
                    {
                        "number": 64,
                        "time": 28.981043068749994,
                        "value": 1
                    },
                    {
                        "number": 64,
                        "time": 29.758309031249993,
                        "value": 0
                    },
                    {
                        "number": 64,
                        "time": 29.826474724999994,
                        "value": 1
                    },
                    {
                        "number": 64,
                        "time": 29.968117724999992,
                        "value": 0
                    },
                    {
                        "number": 64,
                        "time": 30.05398879374999,
                        "value": 1
                    },
                    {
                        "number": 64,
                        "time": 30.17969695624999,
                        "value": 0
                    },
                    {
                        "number": 64,
                        "time": 30.23104254374999,
                        "value": 1
                    },
                    {
                        "number": 64,
                        "time": 30.39393199374999,
                        "value": 0
                    },
                    {
                        "number": 64,
                        "time": 30.47891779374999,
                        "value": 1
                    },
                    {
                        "number": 64,
                        "time": 30.59488799999999,
                        "value": 0
                    },
                    {
                        "number": 64,
                        "time": 30.68075906874999,
                        "value": 1
                    },
                    {
                        "number": 64,
                        "time": 31.45802503124999,
                        "value": 0
                    },
                    {
                        "number": 64,
                        "time": 31.52619072499999,
                        "value": 1
                    },
                    {
                        "number": 64,
                        "time": 31.667833724999987,
                        "value": 0
                    },
                    {
                        "number": 64,
                        "time": 31.753704793749986,
                        "value": 1
                    },
                    {
                        "number": 64,
                        "time": 31.879412956249986,
                        "value": 0
                    },
                    {
                        "number": 64,
                        "time": 31.930758543749985,
                        "value": 1
                    },
                    {
                        "number": 64,
                        "time": 32.09364799374998,
                        "value": 0
                    },
                    {
                        "number": 64,
                        "time": 32.17863379374998,
                        "value": 1
                    },
                    {
                        "number": 64,
                        "time": 32.29460399999998,
                        "value": 0
                    },
                    {
                        "number": 64,
                        "time": 32.38047506874998,
                        "value": 1
                    },
                    {
                        "number": 64,
                        "time": 33.157741031249984,
                        "value": 0
                    },
                    {
                        "number": 64,
                        "time": 33.22590672499998,
                        "value": 1
                    },
                    {
                        "number": 64,
                        "time": 33.36754972499998,
                        "value": 0
                    },
                    {
                        "number": 64,
                        "time": 33.453420793749984,
                        "value": 1
                    },
                    {
                        "number": 64,
                        "time": 33.57912895624998,
                        "value": 0
                    },
                    {
                        "number": 64,
                        "time": 33.63047454374998,
                        "value": 1
                    },
                    {
                        "number": 64,
                        "time": 33.793363993749985,
                        "value": 0
                    },
                    {
                        "number": 64,
                        "time": 33.87834979374998,
                        "value": 1
                    },
                    {
                        "number": 64,
                        "time": 34.00759903124998,
                        "value": 0
                    },
                    {
                        "number": 64,
                        "time": 34.07576472499998,
                        "value": 1
                    },
                    {
                        "number": 64,
                        "time": 34.42898695624998,
                        "value": 0
                    },
                    {
                        "number": 64,
                        "time": 34.48033254374998,
                        "value": 1
                    },
                    {
                        "number": 64,
                        "time": 34.85745703124998,
                        "value": 0
                    },
                    {
                        "number": 64,
                        "time": 34.925622724999975,
                        "value": 1
                    },
                    {
                        "number": 64,
                        "time": 35.278844956249976,
                        "value": 0
                    },
                    {
                        "number": 64,
                        "time": 35.33019054374998,
                        "value": 1
                    },
                    {
                        "number": 64,
                        "time": 35.694035999999976,
                        "value": 0
                    },
                    {
                        "number": 64,
                        "time": 52.11665658124998,
                        "value": 1
                    },
                    {
                        "number": 64,
                        "time": 52.69650761249998,
                        "value": 0
                    },
                    {
                        "number": 64,
                        "time": 52.87887297499998,
                        "value": 1
                    },
                    {
                        "number": 64,
                        "time": 53.240947893749976,
                        "value": 0
                    },
                    {
                        "number": 64,
                        "time": 53.679155924999975,
                        "value": 1
                    },
                    {
                        "number": 64,
                        "time": 54.39622361249997,
                        "value": 0
                    },
                    {
                        "number": 64,
                        "time": 54.55380144999997,
                        "value": 1
                    },
                    {
                        "number": 64,
                        "time": 54.95394292499997,
                        "value": 0
                    },
                    {
                        "number": 64,
                        "time": 55.516088581249974,
                        "value": 1
                    },
                    {
                        "number": 64,
                        "time": 56.095939612499976,
                        "value": 0
                    },
                    {
                        "number": 64,
                        "time": 56.278304974999976,
                        "value": 1
                    },
                    {
                        "number": 64,
                        "time": 56.64037989374997,
                        "value": 0
                    },
                    {
                        "number": 64,
                        "time": 57.07858792499997,
                        "value": 1
                    },
                    {
                        "number": 64,
                        "time": 57.79565561249997,
                        "value": 0
                    },
                    {
                        "number": 64,
                        "time": 57.95323344999997,
                        "value": 1
                    },
                    {
                        "number": 64,
                        "time": 58.35337492499997,
                        "value": 0
                    },
                    {
                        "number": 64,
                        "time": 58.77830392499997,
                        "value": 1
                    },
                    {
                        "number": 64,
                        "time": 59.490059999999964,
                        "value": 0
                    },
                    {
                        "number": 64,
                        "time": 59.628161924999965,
                        "value": 1
                    },
                    {
                        "number": 64,
                        "time": 60.347000149999964,
                        "value": 0
                    },
                    {
                        "number": 64,
                        "time": 60.527594974999964,
                        "value": 1
                    },
                    {
                        "number": 64,
                        "time": 60.777240762499964,
                        "value": 0
                    },
                    {
                        "number": 64,
                        "time": 60.86488236874997,
                        "value": 1
                    },
                    {
                        "number": 64,
                        "time": 61.189775999999966,
                        "value": 0
                    },
                    {
                        "number": 64,
                        "time": 61.39250254374997,
                        "value": 1
                    },
                    {
                        "number": 64,
                        "time": 62.05291303124997,
                        "value": 0
                    },
                    {
                        "number": 64,
                        "time": 62.18127699999997,
                        "value": 1
                    },
                    {
                        "number": 64,
                        "time": 62.47607149374997,
                        "value": 0
                    },
                    {
                        "number": 64,
                        "time": 62.60620599999997,
                        "value": 1
                    },
                    {
                        "number": 64,
                        "time": 62.88949199999997,
                        "value": 0
                    },
                    {
                        "number": 64,
                        "time": 62.970936724999966,
                        "value": 1
                    },
                    {
                        "number": 64,
                        "time": 63.53662345624996,
                        "value": 0
                    },
                    {
                        "number": 64,
                        "time": 64.00227481874997,
                        "value": 1
                    },
                    {
                        "number": 64,
                        "time": 64.39179306874996,
                        "value": 0
                    },
                    {
                        "number": 64,
                        "time": 64.87249399999996,
                        "value": 1
                    },
                    {
                        "number": 64,
                        "time": 65.23279838124996,
                        "value": 0
                    },
                    {
                        "number": 64,
                        "time": 65.56388889374996,
                        "value": 1
                    },
                    {
                        "number": 64,
                        "time": 66.28892399999997,
                        "value": 0
                    },
                    {
                        "number": 64,
                        "time": 67.26360489374997,
                        "value": 1
                    },
                    {
                        "number": 64,
                        "time": 67.78325764999997,
                        "value": 0
                    },
                    {
                        "number": 64,
                        "time": 68.96332089374997,
                        "value": 1
                    },
                    {
                        "number": 64,
                        "time": 69.68835599999997,
                        "value": 0
                    },
                    {
                        "number": 64,
                        "time": 70.66303689374998,
                        "value": 1
                    },
                    {
                        "number": 64,
                        "time": 71.18268964999997,
                        "value": 0
                    },
                    {
                        "number": 64,
                        "time": 72.36275289374997,
                        "value": 1
                    },
                    {
                        "number": 64,
                        "time": 72.88240564999997,
                        "value": 0
                    },
                    {
                        "number": 64,
                        "time": 73.30025249999997,
                        "value": 1
                    },
                    {
                        "number": 64,
                        "time": 73.73226364999996,
                        "value": 0
                    },
                    {
                        "number": 64,
                        "time": 74.86363711249996,
                        "value": 1
                    },
                    {
                        "number": 64,
                        "time": 76.48721999999997,
                        "value": 0
                    },
                    {
                        "number": 64,
                        "time": 76.59345224999997,
                        "value": 1
                    },
                    {
                        "number": 64,
                        "time": 78.19401814999998,
                        "value": 0
                    },
                    {
                        "number": 64,
                        "time": 78.28343029374997,
                        "value": 1
                    },
                    {
                        "number": 64,
                        "time": 79.88665199999997,
                        "value": 0
                    },
                    {
                        "number": 64,
                        "time": 79.97252306874996,
                        "value": 1
                    },
                    {
                        "number": 64,
                        "time": 80.74624795624996,
                        "value": 0
                    },
                    {
                        "number": 64,
                        "time": 81.64213993124996,
                        "value": 1
                    },
                    {
                        "number": 64,
                        "time": 82.23261418749996,
                        "value": 0
                    },
                    {
                        "number": 64,
                        "time": 82.28484504374997,
                        "value": 1
                    },
                    {
                        "number": 64,
                        "time": 82.38045406874997,
                        "value": 0
                    },
                    {
                        "number": 64,
                        "time": 82.50262115624997,
                        "value": 1
                    },
                    {
                        "number": 64,
                        "time": 82.59291856874997,
                        "value": 0
                    },
                    {
                        "number": 64,
                        "time": 82.70977404374996,
                        "value": 1
                    },
                    {
                        "number": 64,
                        "time": 82.80538306874996,
                        "value": 0
                    },
                    {
                        "number": 64,
                        "time": 82.93197649999996,
                        "value": 1
                    },
                    {
                        "number": 64,
                        "time": 83.02847079374996,
                        "value": 0
                    },
                    {
                        "number": 64,
                        "time": 83.11965347499996,
                        "value": 1
                    },
                    {
                        "number": 64,
                        "time": 83.22588572499997,
                        "value": 0
                    },
                    {
                        "number": 64,
                        "time": 83.29670722499996,
                        "value": 1
                    },
                    {
                        "number": 64,
                        "time": 83.42330065624996,
                        "value": 0
                    },
                    {
                        "number": 64,
                        "time": 83.56494365624997,
                        "value": 1
                    },
                    {
                        "number": 64,
                        "time": 83.65081472499996,
                        "value": 0
                    },
                    {
                        "number": 64,
                        "time": 83.77740815624996,
                        "value": 1
                    },
                    {
                        "number": 64,
                        "time": 83.85265599999997,
                        "value": 0
                    },
                    {
                        "number": 64,
                        "time": 83.98987265624997,
                        "value": 1
                    },
                    {
                        "number": 64,
                        "time": 84.08017006874996,
                        "value": 0
                    },
                    {
                        "number": 64,
                        "time": 84.24217424999996,
                        "value": 1
                    },
                    {
                        "number": 64,
                        "time": 84.32361897499996,
                        "value": 0
                    },
                    {
                        "number": 64,
                        "time": 84.40949004374995,
                        "value": 1
                    },
                    {
                        "number": 64,
                        "time": 84.50067272499996,
                        "value": 0
                    },
                    {
                        "number": 64,
                        "time": 84.62726615624996,
                        "value": 1
                    },
                    {
                        "number": 64,
                        "time": 84.70782561249996,
                        "value": 0
                    },
                    {
                        "number": 64,
                        "time": 84.85920656874995,
                        "value": 1
                    },
                    {
                        "number": 64,
                        "time": 84.92560172499995,
                        "value": 0
                    },
                    {
                        "number": 64,
                        "time": 85.03183397499996,
                        "value": 1
                    },
                    {
                        "number": 64,
                        "time": 85.42666383749996,
                        "value": 0
                    },
                    {
                        "number": 64,
                        "time": 85.51696124999995,
                        "value": 1
                    },
                    {
                        "number": 64,
                        "time": 85.84893703124995,
                        "value": 0
                    },
                    {
                        "number": 64,
                        "time": 85.92684068124994,
                        "value": 1
                    },
                    {
                        "number": 64,
                        "time": 86.27475129999995,
                        "value": 0
                    },
                    {
                        "number": 64,
                        "time": 86.34645806874995,
                        "value": 1
                    },
                    {
                        "number": 64,
                        "time": 86.68551599999995,
                        "value": 0
                    },
                    {
                        "number": 64,
                        "time": 86.75633749999994,
                        "value": 1
                    },
                    {
                        "number": 64,
                        "time": 86.91303006874995,
                        "value": 0
                    },
                    {
                        "number": 64,
                        "time": 86.95375243124995,
                        "value": 1
                    },
                    {
                        "number": 64,
                        "time": 87.11841241874995,
                        "value": 0
                    },
                    {
                        "number": 64,
                        "time": 87.20693929374995,
                        "value": 1
                    },
                    {
                        "number": 64,
                        "time": 87.33618853124996,
                        "value": 0
                    },
                    {
                        "number": 64,
                        "time": 87.40435422499996,
                        "value": 1
                    },
                    {
                        "number": 64,
                        "time": 87.54599722499997,
                        "value": 0
                    },
                    {
                        "number": 64,
                        "time": 87.62655668124997,
                        "value": 1
                    },
                    {
                        "number": 64,
                        "time": 87.76023226249997,
                        "value": 0
                    },
                    {
                        "number": 64,
                        "time": 87.81865999999997,
                        "value": 1
                    },
                    {
                        "number": 64,
                        "time": 87.97358203124996,
                        "value": 0
                    },
                    {
                        "number": 64,
                        "time": 88.04174772499996,
                        "value": 1
                    },
                    {
                        "number": 64,
                        "time": 88.18162018749996,
                        "value": 0
                    },
                    {
                        "number": 64,
                        "time": 88.22322781874996,
                        "value": 1
                    },
                    {
                        "number": 64,
                        "time": 88.38523199999996,
                        "value": 0
                    },
                    {
                        "number": 64,
                        "time": 88.42595436249997,
                        "value": 1
                    },
                    {
                        "number": 64,
                        "time": 88.51182543124996,
                        "value": 0
                    },
                    {
                        "number": 64,
                        "time": 88.65878004374996,
                        "value": 1
                    },
                    {
                        "number": 64,
                        "time": 88.74465111249995,
                        "value": 0
                    },
                    {
                        "number": 64,
                        "time": 88.87124454374995,
                        "value": 1
                    },
                    {
                        "number": 64,
                        "time": 88.94737765624996,
                        "value": 0
                    },
                    {
                        "number": 64,
                        "time": 89.08902065624996,
                        "value": 1
                    },
                    {
                        "number": 64,
                        "time": 89.17489172499995,
                        "value": 0
                    },
                    {
                        "number": 64,
                        "time": 89.29086193124995,
                        "value": 1
                    },
                    {
                        "number": 64,
                        "time": 89.37673299999994,
                        "value": 0
                    },
                    {
                        "number": 64,
                        "time": 89.52368761249994,
                        "value": 1
                    },
                    {
                        "number": 64,
                        "time": 89.62018190624994,
                        "value": 0
                    },
                    {
                        "number": 64,
                        "time": 89.72110254374994,
                        "value": 1
                    },
                    {
                        "number": 64,
                        "time": 89.80166199999994,
                        "value": 0
                    },
                    {
                        "number": 64,
                        "time": 89.93356704374993,
                        "value": 1
                    },
                    {
                        "number": 64,
                        "time": 90.00970015624993,
                        "value": 0
                    },
                    {
                        "number": 64,
                        "time": 90.14603154374993,
                        "value": 1
                    },
                    {
                        "number": 64,
                        "time": 90.23190261249992,
                        "value": 0
                    },
                    {
                        "number": 64,
                        "time": 90.38859518124993,
                        "value": 1
                    },
                    {
                        "number": 64,
                        "time": 90.45941668124992,
                        "value": 0
                    },
                    {
                        "number": 64,
                        "time": 90.57627215624991,
                        "value": 1
                    },
                    {
                        "number": 64,
                        "time": 90.65683161249991,
                        "value": 0
                    },
                    {
                        "number": 64,
                        "time": 90.79316299999991,
                        "value": 1
                    },
                    {
                        "number": 64,
                        "time": 90.86929611249991,
                        "value": 0
                    },
                    {
                        "number": 64,
                        "time": 91.0162507249999,
                        "value": 1
                    },
                    {
                        "number": 64,
                        "time": 91.09681018124991,
                        "value": 0
                    },
                    {
                        "number": 64,
                        "time": 91.22340361249991,
                        "value": 1
                    },
                    {
                        "number": 64,
                        "time": 91.30396306874991,
                        "value": 0
                    },
                    {
                        "number": 64,
                        "time": 91.4208185437499,
                        "value": 1
                    },
                    {
                        "number": 64,
                        "time": 91.4969516562499,
                        "value": 0
                    },
                    {
                        "number": 64,
                        "time": 91.6279714312499,
                        "value": 1
                    },
                    {
                        "number": 64,
                        "time": 91.7138424999999,
                        "value": 0
                    },
                    {
                        "number": 64,
                        "time": 91.8200747499999,
                        "value": 1
                    },
                    {
                        "number": 64,
                        "time": 92.0042106499999,
                        "value": 0
                    },
                    {
                        "number": 64,
                        "time": 92.0582120437499,
                        "value": 1
                    },
                    {
                        "number": 64,
                        "time": 92.2202162249999,
                        "value": 0
                    },
                    {
                        "number": 64,
                        "time": 92.2706765437499,
                        "value": 1
                    },
                    {
                        "number": 64,
                        "time": 92.4291396499999,
                        "value": 0
                    },
                    {
                        "number": 64,
                        "time": 92.4680914749999,
                        "value": 1
                    },
                    {
                        "number": 64,
                        "time": 92.6407188812499,
                        "value": 0
                    },
                    {
                        "number": 64,
                        "time": 92.69560554374989,
                        "value": 1
                    },
                    {
                        "number": 64,
                        "time": 92.8602655312499,
                        "value": 0
                    },
                    {
                        "number": 64,
                        "time": 92.9284312249999,
                        "value": 1
                    },
                    {
                        "number": 64,
                        "time": 93.0745005687499,
                        "value": 0
                    },
                    {
                        "number": 64,
                        "time": 93.1559452937499,
                        "value": 1
                    },
                    {
                        "number": 64,
                        "time": 93.28785033749989,
                        "value": 0
                    },
                    {
                        "number": 64,
                        "time": 93.33831065624989,
                        "value": 1
                    },
                    {
                        "number": 64,
                        "time": 93.48437999999989,
                        "value": 0
                    },
                    {
                        "number": 64,
                        "time": 93.53041397499989,
                        "value": 1
                    },
                    {
                        "number": 64,
                        "time": 93.70658245624989,
                        "value": 0
                    },
                    {
                        "number": 64,
                        "time": 93.74287847499988,
                        "value": 1
                    },
                    {
                        "number": 64,
                        "time": 93.91904695624989,
                        "value": 0
                    },
                    {
                        "number": 64,
                        "time": 93.97039254374988,
                        "value": 1
                    },
                    {
                        "number": 64,
                        "time": 94.13151145624988,
                        "value": 0
                    },
                    {
                        "number": 64,
                        "time": 94.18816865624989,
                        "value": 1
                    },
                    {
                        "number": 64,
                        "time": 94.34751703124988,
                        "value": 0
                    },
                    {
                        "number": 64,
                        "time": 94.41037111249987,
                        "value": 1
                    },
                    {
                        "number": 64,
                        "time": 94.55555518749988,
                        "value": 0
                    },
                    {
                        "number": 64,
                        "time": 94.61309765624988,
                        "value": 1
                    },
                    {
                        "number": 64,
                        "time": 94.77156076249987,
                        "value": 0
                    },
                    {
                        "number": 64,
                        "time": 94.81493893124987,
                        "value": 1
                    },
                    {
                        "number": 64,
                        "time": 94.98136945624987,
                        "value": 0
                    },
                    {
                        "number": 64,
                        "time": 95.01766547499986,
                        "value": 1
                    },
                    {
                        "number": 64,
                        "time": 95.18409599999985,
                        "value": 0
                    },
                    {
                        "number": 64,
                        "time": 95.35937921249986,
                        "value": 1
                    },
                    {
                        "number": 64,
                        "time": 96.05254464374985,
                        "value": 0
                    },
                    {
                        "number": 64,
                        "time": 96.13398936874985,
                        "value": 1
                    },
                    {
                        "number": 64,
                        "time": 96.44648923749985,
                        "value": 0
                    },
                    {
                        "number": 64,
                        "time": 96.55891836874984,
                        "value": 1
                    },
                    {
                        "number": 64,
                        "time": 96.88381199999985,
                        "value": 0
                    },
                    {
                        "number": 64,
                        "time": 96.96525672499985,
                        "value": 1
                    },
                    {
                        "number": 64,
                        "time": 97.31405261249985,
                        "value": 0
                    },
                    {
                        "number": 64,
                        "time": 97.39638260624984,
                        "value": 1
                    },
                    {
                        "number": 64,
                        "time": 97.73898161249984,
                        "value": 0
                    },
                    {
                        "number": 64,
                        "time": 97.78413031874985,
                        "value": 1
                    },
                    {
                        "number": 64,
                        "time": 98.17099276249985,
                        "value": 0
                    },
                    {
                        "number": 64,
                        "time": 98.30289780624985,
                        "value": 1
                    },
                    {
                        "number": 64,
                        "time": 98.59592176249984,
                        "value": 0
                    },
                    {
                        "number": 64,
                        "time": 98.67116960624985,
                        "value": 1
                    },
                    {
                        "number": 64,
                        "time": 99.02704764374985,
                        "value": 0
                    },
                    {
                        "number": 64,
                        "time": 99.08990172499985,
                        "value": 1
                    },
                    {
                        "number": 64,
                        "time": 99.45197664374984,
                        "value": 0
                    },
                    {
                        "number": 64,
                        "time": 99.52722448749985,
                        "value": 1
                    },
                    {
                        "number": 64,
                        "time": 99.87070876249985,
                        "value": 0
                    },
                    {
                        "number": 64,
                        "time": 99.93975972499985,
                        "value": 1
                    },
                    {
                        "number": 64,
                        "time": 100.28324399999984,
                        "value": 0
                    },
                    {
                        "number": 64,
                        "time": 100.35229496249984,
                        "value": 1
                    },
                    {
                        "number": 64,
                        "time": 100.71259934374984,
                        "value": 0
                    },
                    {
                        "number": 64,
                        "time": 100.77722396249985,
                        "value": 1
                    },
                    {
                        "number": 64,
                        "time": 101.14726629999984,
                        "value": 0
                    },
                    {
                        "number": 64,
                        "time": 101.20215296249984,
                        "value": 1
                    },
                    {
                        "number": 64,
                        "time": 101.56865422499983,
                        "value": 0
                    },
                    {
                        "number": 64,
                        "time": 101.63947572499983,
                        "value": 1
                    },
                    {
                        "number": 64,
                        "time": 101.98295999999982,
                        "value": 0
                    },
                    {
                        "number": 64,
                        "time": 102.09538913124982,
                        "value": 1
                    },
                    {
                        "number": 64,
                        "time": 102.41408588124982,
                        "value": 0
                    },
                    {
                        "number": 64,
                        "time": 102.48313684374982,
                        "value": 1
                    },
                    {
                        "number": 64,
                        "time": 102.85760552499981,
                        "value": 0
                    },
                    {
                        "number": 64,
                        "time": 102.92665648749981,
                        "value": 1
                    },
                    {
                        "number": 64,
                        "time": 103.2701407624998,
                        "value": 0
                    },
                    {
                        "number": 64,
                        "time": 103.3515854874998,
                        "value": 1
                    },
                    {
                        "number": 64,
                        "time": 103.6826759999998,
                        "value": 0
                    },
                    {
                        "number": 64,
                        "time": 103.7765144874998,
                        "value": 1
                    },
                    {
                        "number": 64,
                        "time": 104.1261956437498,
                        "value": 0
                    },
                    {
                        "number": 64,
                        "time": 104.2076403687498,
                        "value": 1
                    },
                    {
                        "number": 64,
                        "time": 104.5413866874998,
                        "value": 0
                    },
                    {
                        "number": 64,
                        "time": 104.63876624999979,
                        "value": 1
                    },
                    {
                        "number": 64,
                        "time": 104.97074203124978,
                        "value": 0
                    },
                    {
                        "number": 64,
                        "time": 105.09556492499978,
                        "value": 1
                    },
                    {
                        "number": 64,
                        "time": 105.38239199999978,
                        "value": 0
                    },
                    {
                        "number": 64,
                        "time": 105.48862424999979,
                        "value": 1
                    },
                    {
                        "number": 64,
                        "time": 106.03217926249978,
                        "value": 0
                    },
                    {
                        "number": 64,
                        "time": 106.32608848749977,
                        "value": 1
                    },
                    {
                        "number": 64,
                        "time": 106.88026672499977,
                        "value": 0
                    },
                    {
                        "number": 64,
                        "time": 107.15292949999977,
                        "value": 1
                    },
                    {
                        "number": 64,
                        "time": 107.73455106874977,
                        "value": 0
                    },
                    {
                        "number": 64,
                        "time": 108.83848119999976,
                        "value": 1
                    },
                    {
                        "number": 64,
                        "time": 109.42807018749976,
                        "value": 0
                    },
                    {
                        "number": 64,
                        "time": 109.75030801249976,
                        "value": 1
                    },
                    {
                        "number": 64,
                        "time": 110.27969872499976,
                        "value": 0
                    },
                    {
                        "number": 64,
                        "time": 110.58157536874977,
                        "value": 1
                    },
                    {
                        "number": 64,
                        "time": 111.13132726249977,
                        "value": 0
                    },
                    {
                        "number": 64,
                        "time": 112.64690736249976,
                        "value": 1
                    },
                    {
                        "number": 64,
                        "time": 112.84432229374976,
                        "value": 0
                    },
                    {
                        "number": 64,
                        "time": 113.49676536249976,
                        "value": 1
                    },
                    {
                        "number": 64,
                        "time": 113.69418029374975,
                        "value": 0
                    },
                    {
                        "number": 64,
                        "time": 114.73082999999976,
                        "value": 1
                    },
                    {
                        "number": 64,
                        "time": 115.26199124999975,
                        "value": 0
                    },
                    {
                        "number": 64,
                        "time": 115.89938474999975,
                        "value": 1
                    },
                    {
                        "number": 64,
                        "time": 116.32431374999976,
                        "value": 0
                    },
                    {
                        "number": 64,
                        "time": 122.44240608124976,
                        "value": 1
                    },
                    {
                        "number": 64,
                        "time": 124.11202294374976,
                        "value": 0
                    },
                    {
                        "number": 64,
                        "time": 124.17930336874977,
                        "value": 1
                    },
                    {
                        "number": 64,
                        "time": 124.94151976249977,
                        "value": 0
                    },
                    {
                        "number": 64,
                        "time": 125.05394889374976,
                        "value": 1
                    },
                    {
                        "number": 64,
                        "time": 125.78695141874977,
                        "value": 0
                    },
                    {
                        "number": 64,
                        "time": 125.86042872499976,
                        "value": 1
                    },
                    {
                        "number": 64,
                        "time": 126.21896256874976,
                        "value": 0
                    },
                    {
                        "number": 64,
                        "time": 126.30394836874976,
                        "value": 1
                    },
                    {
                        "number": 64,
                        "time": 126.61025135624976,
                        "value": 0
                    },
                    {
                        "number": 64,
                        "time": 126.66956436249976,
                        "value": 1
                    },
                    {
                        "number": 64,
                        "time": 127.47869999999976,
                        "value": 0
                    },
                    {
                        "number": 64,
                        "time": 127.55394784374977,
                        "value": 1
                    },
                    {
                        "number": 64,
                        "time": 127.91159641874977,
                        "value": 0
                    },
                    {
                        "number": 64,
                        "time": 128.00366436874975,
                        "value": 1
                    },
                    {
                        "number": 64,
                        "time": 128.34006649374976,
                        "value": 0
                    },
                    {
                        "number": 64,
                        "time": 128.41000272499977,
                        "value": 1
                    },
                    {
                        "number": 64,
                        "time": 128.76588076249976,
                        "value": 0
                    },
                    {
                        "number": 64,
                        "time": 128.83493172499976,
                        "value": 1
                    },
                    {
                        "number": 64,
                        "time": 129.17841599999977,
                        "value": 0
                    },
                    {
                        "number": 64,
                        "time": 130.51605708124978,
                        "value": 1
                    },
                    {
                        "number": 64,
                        "time": 130.8781319999998,
                        "value": 0
                    },
                    {
                        "number": 64,
                        "time": 131.3411275562498,
                        "value": 1
                    },
                    {
                        "number": 64,
                        "time": 131.7722534374998,
                        "value": 0
                    },
                    {
                        "number": 64,
                        "time": 132.2591512499998,
                        "value": 1
                    },
                    {
                        "number": 64,
                        "time": 132.5778479999998,
                        "value": 0
                    },
                    {
                        "number": 64,
                        "time": 132.8018209937498,
                        "value": 1
                    },
                    {
                        "number": 64,
                        "time": 133.4471819124998,
                        "value": 0
                    },
                    {
                        "number": 64,
                        "time": 133.48082212499978,
                        "value": 1
                    },
                    {
                        "number": 64,
                        "time": 133.8614876874998,
                        "value": 0
                    },
                    {
                        "number": 64,
                        "time": 133.9004395124998,
                        "value": 1
                    },
                    {
                        "number": 64,
                        "time": 134.28376088124978,
                        "value": 0
                    },
                    {
                        "number": 64,
                        "time": 139.53871618124978,
                        "value": 1
                    },
                    {
                        "number": 64,
                        "time": 140.24958698749978,
                        "value": 0
                    },
                    {
                        "number": 64,
                        "time": 140.42929654374979,
                        "value": 1
                    },
                    {
                        "number": 64,
                        "time": 140.6647780312498,
                        "value": 0
                    },
                    {
                        "number": 64,
                        "time": 140.8542255437498,
                        "value": 1
                    },
                    {
                        "number": 64,
                        "time": 141.0835101499998,
                        "value": 0
                    },
                    {
                        "number": 64,
                        "time": 141.2384321812498,
                        "value": 1
                    },
                    {
                        "number": 64,
                        "time": 141.5146360312498,
                        "value": 0
                    },
                    {
                        "number": 64,
                        "time": 141.7244447249998,
                        "value": 1
                    },
                    {
                        "number": 64,
                        "time": 141.9404502999998,
                        "value": 0
                    },
                    {
                        "number": 64,
                        "time": 142.1493737249998,
                        "value": 1
                    },
                    {
                        "number": 64,
                        "time": 142.3644940312498,
                        "value": 0
                    },
                    {
                        "number": 64,
                        "time": 142.5539415437498,
                        "value": 1
                    },
                    {
                        "number": 64,
                        "time": 142.7761439999998,
                        "value": 0
                    },
                    {
                        "number": 64,
                        "time": 142.8620150687498,
                        "value": 1
                    },
                    {
                        "number": 64,
                        "time": 143.6392810312498,
                        "value": 0
                    },
                    {
                        "number": 64,
                        "time": 143.70744672499978,
                        "value": 1
                    },
                    {
                        "number": 64,
                        "time": 143.84908972499977,
                        "value": 0
                    },
                    {
                        "number": 64,
                        "time": 143.93496079374978,
                        "value": 1
                    },
                    {
                        "number": 64,
                        "time": 144.06066895624977,
                        "value": 0
                    },
                    {
                        "number": 64,
                        "time": 144.11201454374978,
                        "value": 1
                    },
                    {
                        "number": 64,
                        "time": 144.27490399374977,
                        "value": 0
                    },
                    {
                        "number": 64,
                        "time": 144.35988979374977,
                        "value": 1
                    },
                    {
                        "number": 64,
                        "time": 144.47585999999978,
                        "value": 0
                    },
                    {
                        "number": 64,
                        "time": 144.5617310687498,
                        "value": 1
                    },
                    {
                        "number": 64,
                        "time": 145.3389970312498,
                        "value": 0
                    },
                    {
                        "number": 64,
                        "time": 145.40716272499978,
                        "value": 1
                    },
                    {
                        "number": 64,
                        "time": 145.54880572499977,
                        "value": 0
                    },
                    {
                        "number": 64,
                        "time": 145.63467679374978,
                        "value": 1
                    },
                    {
                        "number": 64,
                        "time": 145.76038495624977,
                        "value": 0
                    },
                    {
                        "number": 64,
                        "time": 145.81173054374977,
                        "value": 1
                    },
                    {
                        "number": 64,
                        "time": 145.97461999374977,
                        "value": 0
                    },
                    {
                        "number": 64,
                        "time": 146.05960579374977,
                        "value": 1
                    },
                    {
                        "number": 64,
                        "time": 146.17557599999978,
                        "value": 0
                    },
                    {
                        "number": 64,
                        "time": 146.2614470687498,
                        "value": 1
                    },
                    {
                        "number": 64,
                        "time": 147.03871303124978,
                        "value": 0
                    },
                    {
                        "number": 64,
                        "time": 147.10687872499977,
                        "value": 1
                    },
                    {
                        "number": 64,
                        "time": 147.24852172499976,
                        "value": 0
                    },
                    {
                        "number": 64,
                        "time": 147.33439279374977,
                        "value": 1
                    },
                    {
                        "number": 64,
                        "time": 147.46010095624976,
                        "value": 0
                    },
                    {
                        "number": 64,
                        "time": 147.51144654374977,
                        "value": 1
                    },
                    {
                        "number": 64,
                        "time": 147.67433599374976,
                        "value": 0
                    },
                    {
                        "number": 64,
                        "time": 147.75932179374976,
                        "value": 1
                    },
                    {
                        "number": 64,
                        "time": 147.87529199999977,
                        "value": 0
                    },
                    {
                        "number": 64,
                        "time": 147.96116306874978,
                        "value": 1
                    },
                    {
                        "number": 64,
                        "time": 148.73842903124978,
                        "value": 0
                    },
                    {
                        "number": 64,
                        "time": 148.80659472499977,
                        "value": 1
                    },
                    {
                        "number": 64,
                        "time": 148.94823772499976,
                        "value": 0
                    },
                    {
                        "number": 64,
                        "time": 149.03410879374977,
                        "value": 1
                    },
                    {
                        "number": 64,
                        "time": 149.15981695624976,
                        "value": 0
                    },
                    {
                        "number": 64,
                        "time": 149.21116254374977,
                        "value": 1
                    },
                    {
                        "number": 64,
                        "time": 149.37405199374976,
                        "value": 0
                    },
                    {
                        "number": 64,
                        "time": 149.45903779374976,
                        "value": 1
                    },
                    {
                        "number": 64,
                        "time": 149.58828703124976,
                        "value": 0
                    },
                    {
                        "number": 64,
                        "time": 149.65645272499975,
                        "value": 1
                    },
                    {
                        "number": 64,
                        "time": 150.00967495624974,
                        "value": 0
                    },
                    {
                        "number": 64,
                        "time": 150.06102054374975,
                        "value": 1
                    },
                    {
                        "number": 64,
                        "time": 150.43814503124975,
                        "value": 0
                    },
                    {
                        "number": 64,
                        "time": 150.50631072499974,
                        "value": 1
                    },
                    {
                        "number": 64,
                        "time": 150.85953295624972,
                        "value": 0
                    },
                    {
                        "number": 64,
                        "time": 150.91087854374973,
                        "value": 1
                    },
                    {
                        "number": 64,
                        "time": 151.27472399999974,
                        "value": 0
                    },
                    {
                        "number": 64,
                        "time": 167.69734458124975,
                        "value": 1
                    },
                    {
                        "number": 64,
                        "time": 168.27719561249975,
                        "value": 0
                    },
                    {
                        "number": 64,
                        "time": 168.45956097499976,
                        "value": 1
                    },
                    {
                        "number": 64,
                        "time": 168.82163589374977,
                        "value": 0
                    },
                    {
                        "number": 64,
                        "time": 169.25984392499979,
                        "value": 1
                    },
                    {
                        "number": 64,
                        "time": 169.97691161249978,
                        "value": 0
                    },
                    {
                        "number": 64,
                        "time": 170.1344894499998,
                        "value": 1
                    },
                    {
                        "number": 64,
                        "time": 170.5346309249998,
                        "value": 0
                    },
                    {
                        "number": 64,
                        "time": 171.0967765812498,
                        "value": 1
                    },
                    {
                        "number": 64,
                        "time": 171.6766276124998,
                        "value": 0
                    },
                    {
                        "number": 64,
                        "time": 171.8589929749998,
                        "value": 1
                    },
                    {
                        "number": 64,
                        "time": 172.22106789374982,
                        "value": 0
                    },
                    {
                        "number": 64,
                        "time": 172.65927592499983,
                        "value": 1
                    },
                    {
                        "number": 64,
                        "time": 173.37634361249982,
                        "value": 0
                    },
                    {
                        "number": 64,
                        "time": 173.53392144999984,
                        "value": 1
                    },
                    {
                        "number": 64,
                        "time": 173.93406292499984,
                        "value": 0
                    },
                    {
                        "number": 64,
                        "time": 174.35899192499983,
                        "value": 1
                    },
                    {
                        "number": 64,
                        "time": 175.07074799999984,
                        "value": 0
                    },
                    {
                        "number": 64,
                        "time": 175.20884992499984,
                        "value": 1
                    },
                    {
                        "number": 64,
                        "time": 175.92768814999985,
                        "value": 0
                    },
                    {
                        "number": 64,
                        "time": 176.10828297499984,
                        "value": 1
                    },
                    {
                        "number": 64,
                        "time": 176.35792876249982,
                        "value": 0
                    },
                    {
                        "number": 64,
                        "time": 176.44557036874983,
                        "value": 1
                    },
                    {
                        "number": 64,
                        "time": 176.77046399999983,
                        "value": 0
                    },
                    {
                        "number": 64,
                        "time": 176.97319054374984,
                        "value": 1
                    },
                    {
                        "number": 64,
                        "time": 177.63360103124984,
                        "value": 0
                    },
                    {
                        "number": 64,
                        "time": 177.76196499999983,
                        "value": 1
                    },
                    {
                        "number": 64,
                        "time": 178.05675949374984,
                        "value": 0
                    },
                    {
                        "number": 64,
                        "time": 178.18689399999982,
                        "value": 1
                    },
                    {
                        "number": 64,
                        "time": 178.47017999999983,
                        "value": 0
                    },
                    {
                        "number": 64,
                        "time": 178.55162472499984,
                        "value": 1
                    },
                    {
                        "number": 64,
                        "time": 179.11731145624984,
                        "value": 0
                    },
                    {
                        "number": 64,
                        "time": 179.58296281874985,
                        "value": 1
                    },
                    {
                        "number": 64,
                        "time": 179.97248106874986,
                        "value": 0
                    },
                    {
                        "number": 64,
                        "time": 180.45318199999986,
                        "value": 1
                    },
                    {
                        "number": 64,
                        "time": 180.81348638124985,
                        "value": 0
                    },
                    {
                        "number": 64,
                        "time": 181.14457689374984,
                        "value": 1
                    },
                    {
                        "number": 64,
                        "time": 181.86961199999985,
                        "value": 0
                    },
                    {
                        "number": 64,
                        "time": 182.84429289374984,
                        "value": 1
                    },
                    {
                        "number": 64,
                        "time": 183.36394564999983,
                        "value": 0
                    },
                    {
                        "number": 64,
                        "time": 184.54400889374983,
                        "value": 1
                    },
                    {
                        "number": 64,
                        "time": 185.26904399999984,
                        "value": 0
                    },
                    {
                        "number": 64,
                        "time": 186.24372489374983,
                        "value": 1
                    },
                    {
                        "number": 64,
                        "time": 186.76337764999982,
                        "value": 0
                    },
                    {
                        "number": 64,
                        "time": 187.94344089374982,
                        "value": 1
                    },
                    {
                        "number": 64,
                        "time": 188.46309364999982,
                        "value": 0
                    },
                    {
                        "number": 64,
                        "time": 188.8809404999998,
                        "value": 1
                    },
                    {
                        "number": 64,
                        "time": 189.3129516499998,
                        "value": 0
                    },
                    {
                        "number": 64,
                        "time": 190.4443251124998,
                        "value": 1
                    },
                    {
                        "number": 64,
                        "time": 192.0679079999998,
                        "value": 0
                    },
                    {
                        "number": 64,
                        "time": 192.1741402499998,
                        "value": 1
                    },
                    {
                        "number": 64,
                        "time": 193.7747061499998,
                        "value": 0
                    },
                    {
                        "number": 64,
                        "time": 193.86411829374978,
                        "value": 1
                    },
                    {
                        "number": 64,
                        "time": 195.46733999999978,
                        "value": 0
                    },
                    {
                        "number": 64,
                        "time": 195.5532110687498,
                        "value": 1
                    },
                    {
                        "number": 64,
                        "time": 196.3269359562498,
                        "value": 0
                    },
                    {
                        "number": 64,
                        "time": 197.2228279312498,
                        "value": 1
                    },
                    {
                        "number": 64,
                        "time": 197.8133021874998,
                        "value": 0
                    },
                    {
                        "number": 64,
                        "time": 197.8655330437498,
                        "value": 1
                    },
                    {
                        "number": 64,
                        "time": 197.96114206874978,
                        "value": 0
                    },
                    {
                        "number": 64,
                        "time": 198.08330915624978,
                        "value": 1
                    },
                    {
                        "number": 64,
                        "time": 198.1736065687498,
                        "value": 0
                    },
                    {
                        "number": 64,
                        "time": 198.29046204374978,
                        "value": 1
                    },
                    {
                        "number": 64,
                        "time": 198.38607106874977,
                        "value": 0
                    },
                    {
                        "number": 64,
                        "time": 198.51266449999977,
                        "value": 1
                    },
                    {
                        "number": 64,
                        "time": 198.60915879374977,
                        "value": 0
                    },
                    {
                        "number": 64,
                        "time": 198.70034147499976,
                        "value": 1
                    },
                    {
                        "number": 64,
                        "time": 198.80657372499977,
                        "value": 0
                    },
                    {
                        "number": 64,
                        "time": 198.87739522499976,
                        "value": 1
                    },
                    {
                        "number": 64,
                        "time": 199.00398865624976,
                        "value": 0
                    },
                    {
                        "number": 64,
                        "time": 199.14563165624975,
                        "value": 1
                    },
                    {
                        "number": 64,
                        "time": 199.23150272499976,
                        "value": 0
                    },
                    {
                        "number": 64,
                        "time": 199.35809615624976,
                        "value": 1
                    },
                    {
                        "number": 64,
                        "time": 199.43334399999975,
                        "value": 0
                    },
                    {
                        "number": 64,
                        "time": 199.57056065624974,
                        "value": 1
                    },
                    {
                        "number": 64,
                        "time": 199.66085806874975,
                        "value": 0
                    },
                    {
                        "number": 64,
                        "time": 199.82286224999976,
                        "value": 1
                    },
                    {
                        "number": 64,
                        "time": 199.90430697499977,
                        "value": 0
                    },
                    {
                        "number": 64,
                        "time": 199.99017804374978,
                        "value": 1
                    },
                    {
                        "number": 64,
                        "time": 200.08136072499977,
                        "value": 0
                    },
                    {
                        "number": 64,
                        "time": 200.20795415624977,
                        "value": 1
                    },
                    {
                        "number": 64,
                        "time": 200.28851361249977,
                        "value": 0
                    },
                    {
                        "number": 64,
                        "time": 200.43989456874976,
                        "value": 1
                    },
                    {
                        "number": 64,
                        "time": 200.50628972499976,
                        "value": 0
                    },
                    {
                        "number": 64,
                        "time": 200.61252197499977,
                        "value": 1
                    },
                    {
                        "number": 64,
                        "time": 201.00735183749975,
                        "value": 0
                    },
                    {
                        "number": 64,
                        "time": 201.09764924999976,
                        "value": 1
                    },
                    {
                        "number": 64,
                        "time": 201.42962503124977,
                        "value": 0
                    },
                    {
                        "number": 64,
                        "time": 201.50752868124977,
                        "value": 1
                    },
                    {
                        "number": 64,
                        "time": 201.85543929999977,
                        "value": 0
                    },
                    {
                        "number": 64,
                        "time": 201.92714606874978,
                        "value": 1
                    },
                    {
                        "number": 64,
                        "time": 202.2662039999998,
                        "value": 0
                    },
                    {
                        "number": 64,
                        "time": 202.33702549999978,
                        "value": 1
                    },
                    {
                        "number": 64,
                        "time": 202.49371806874979,
                        "value": 0
                    },
                    {
                        "number": 64,
                        "time": 202.53444043124978,
                        "value": 1
                    },
                    {
                        "number": 64,
                        "time": 202.69910041874977,
                        "value": 0
                    },
                    {
                        "number": 64,
                        "time": 202.78762729374978,
                        "value": 1
                    },
                    {
                        "number": 64,
                        "time": 202.91687653124978,
                        "value": 0
                    },
                    {
                        "number": 64,
                        "time": 202.9593694312498,
                        "value": 1
                    },
                    {
                        "number": 64,
                        "time": 203.1213736124998,
                        "value": 0
                    },
                    {
                        "number": 64,
                        "time": 203.18688349999982,
                        "value": 1
                    },
                    {
                        "number": 64,
                        "time": 203.34092026249982,
                        "value": 0
                    },
                    {
                        "number": 64,
                        "time": 203.39934799999983,
                        "value": 1
                    },
                    {
                        "number": 64,
                        "time": 203.55427003124984,
                        "value": 0
                    },
                    {
                        "number": 64,
                        "time": 203.62243572499983,
                        "value": 1
                    },
                    {
                        "number": 64,
                        "time": 203.76230818749983,
                        "value": 0
                    },
                    {
                        "number": 64,
                        "time": 203.80391581874983,
                        "value": 1
                    },
                    {
                        "number": 64,
                        "time": 203.96591999999984,
                        "value": 0
                    },
                    {
                        "number": 64,
                        "time": 204.00664236249983,
                        "value": 1
                    },
                    {
                        "number": 64,
                        "time": 204.09251343124984,
                        "value": 0
                    },
                    {
                        "number": 64,
                        "time": 204.23946804374984,
                        "value": 1
                    },
                    {
                        "number": 64,
                        "time": 204.32533911249985,
                        "value": 0
                    },
                    {
                        "number": 64,
                        "time": 204.45193254374985,
                        "value": 1
                    },
                    {
                        "number": 64,
                        "time": 204.52806565624985,
                        "value": 0
                    },
                    {
                        "number": 64,
                        "time": 204.66970865624984,
                        "value": 1
                    },
                    {
                        "number": 64,
                        "time": 204.75557972499985,
                        "value": 0
                    },
                    {
                        "number": 64,
                        "time": 204.87154993124986,
                        "value": 1
                    },
                    {
                        "number": 64,
                        "time": 204.95742099999987,
                        "value": 0
                    },
                    {
                        "number": 64,
                        "time": 205.10437561249987,
                        "value": 1
                    },
                    {
                        "number": 64,
                        "time": 205.20086990624986,
                        "value": 0
                    },
                    {
                        "number": 64,
                        "time": 205.30179054374986,
                        "value": 1
                    },
                    {
                        "number": 64,
                        "time": 205.38234999999986,
                        "value": 0
                    },
                    {
                        "number": 64,
                        "time": 205.51425504374987,
                        "value": 1
                    },
                    {
                        "number": 64,
                        "time": 205.59038815624987,
                        "value": 0
                    },
                    {
                        "number": 64,
                        "time": 205.72671954374988,
                        "value": 1
                    },
                    {
                        "number": 64,
                        "time": 205.8125906124999,
                        "value": 0
                    },
                    {
                        "number": 64,
                        "time": 205.9692831812499,
                        "value": 1
                    },
                    {
                        "number": 64,
                        "time": 206.0401046812499,
                        "value": 0
                    },
                    {
                        "number": 64,
                        "time": 206.15696015624988,
                        "value": 1
                    },
                    {
                        "number": 64,
                        "time": 206.23751961249988,
                        "value": 0
                    },
                    {
                        "number": 64,
                        "time": 206.3738509999999,
                        "value": 1
                    },
                    {
                        "number": 64,
                        "time": 206.4499841124999,
                        "value": 0
                    },
                    {
                        "number": 64,
                        "time": 206.5969387249999,
                        "value": 1
                    },
                    {
                        "number": 64,
                        "time": 206.6774981812499,
                        "value": 0
                    },
                    {
                        "number": 64,
                        "time": 206.8040916124999,
                        "value": 1
                    },
                    {
                        "number": 64,
                        "time": 206.8846510687499,
                        "value": 0
                    },
                    {
                        "number": 64,
                        "time": 207.00150654374988,
                        "value": 1
                    },
                    {
                        "number": 64,
                        "time": 207.0776396562499,
                        "value": 0
                    },
                    {
                        "number": 64,
                        "time": 207.20865943124988,
                        "value": 1
                    },
                    {
                        "number": 64,
                        "time": 207.2945304999999,
                        "value": 0
                    },
                    {
                        "number": 64,
                        "time": 207.4007627499999,
                        "value": 1
                    },
                    {
                        "number": 64,
                        "time": 207.5848986499999,
                        "value": 0
                    },
                    {
                        "number": 64,
                        "time": 207.6389000437499,
                        "value": 1
                    },
                    {
                        "number": 64,
                        "time": 207.80090422499993,
                        "value": 0
                    },
                    {
                        "number": 64,
                        "time": 207.85136454374992,
                        "value": 1
                    },
                    {
                        "number": 64,
                        "time": 208.00805711249993,
                        "value": 0
                    },
                    {
                        "number": 64,
                        "time": 208.04877947499992,
                        "value": 1
                    },
                    {
                        "number": 64,
                        "time": 208.21698053749992,
                        "value": 0
                    },
                    {
                        "number": 64,
                        "time": 208.27629354374992,
                        "value": 1
                    },
                    {
                        "number": 64,
                        "time": 208.4409535312499,
                        "value": 0
                    },
                    {
                        "number": 64,
                        "time": 208.5091192249999,
                        "value": 1
                    },
                    {
                        "number": 64,
                        "time": 208.6551885687499,
                        "value": 0
                    },
                    {
                        "number": 64,
                        "time": 208.73663329374992,
                        "value": 1
                    },
                    {
                        "number": 64,
                        "time": 208.86853833749993,
                        "value": 0
                    },
                    {
                        "number": 64,
                        "time": 208.91899865624993,
                        "value": 1
                    },
                    {
                        "number": 64,
                        "time": 209.06506799999994,
                        "value": 0
                    },
                    {
                        "number": 64,
                        "time": 209.11110197499994,
                        "value": 1
                    },
                    {
                        "number": 64,
                        "time": 209.28727045624993,
                        "value": 0
                    },
                    {
                        "number": 64,
                        "time": 209.32356647499992,
                        "value": 1
                    },
                    {
                        "number": 64,
                        "time": 209.4997349562499,
                        "value": 0
                    },
                    {
                        "number": 64,
                        "time": 209.55108054374992,
                        "value": 1
                    },
                    {
                        "number": 64,
                        "time": 209.71219945624992,
                        "value": 0
                    },
                    {
                        "number": 64,
                        "time": 209.7688566562499,
                        "value": 1
                    },
                    {
                        "number": 64,
                        "time": 209.92820503124992,
                        "value": 0
                    },
                    {
                        "number": 64,
                        "time": 209.99105911249993,
                        "value": 1
                    },
                    {
                        "number": 64,
                        "time": 210.13624318749993,
                        "value": 0
                    },
                    {
                        "number": 64,
                        "time": 210.19378565624993,
                        "value": 1
                    },
                    {
                        "number": 64,
                        "time": 210.35224876249993,
                        "value": 0
                    },
                    {
                        "number": 64,
                        "time": 210.39562693124992,
                        "value": 1
                    },
                    {
                        "number": 64,
                        "time": 210.56205745624993,
                        "value": 0
                    },
                    {
                        "number": 64,
                        "time": 210.59835347499993,
                        "value": 1
                    },
                    {
                        "number": 64,
                        "time": 210.76478399999993,
                        "value": 0
                    },
                    {
                        "number": 64,
                        "time": 210.87721313124993,
                        "value": 1
                    },
                    {
                        "number": 64,
                        "time": 211.62260941874993,
                        "value": 0
                    },
                    {
                        "number": 64,
                        "time": 211.71467736874993,
                        "value": 1
                    },
                    {
                        "number": 64,
                        "time": 212.05196476249992,
                        "value": 0
                    },
                    {
                        "number": 64,
                        "time": 212.13960636874992,
                        "value": 1
                    },
                    {
                        "number": 64,
                        "time": 212.4698116124999,
                        "value": 0
                    },
                    {
                        "number": 64,
                        "time": 212.5459447249999,
                        "value": 1
                    },
                    {
                        "number": 64,
                        "time": 212.8956258812499,
                        "value": 0
                    },
                    {
                        "number": 64,
                        "time": 212.97707060624992,
                        "value": 1
                    },
                    {
                        "number": 64,
                        "time": 213.32055488124993,
                        "value": 0
                    },
                    {
                        "number": 64,
                        "time": 213.39580272499992,
                        "value": 1
                    },
                    {
                        "number": 64,
                        "time": 213.7605334499999,
                        "value": 0
                    },
                    {
                        "number": 64,
                        "time": 213.88358580624993,
                        "value": 1
                    },
                    {
                        "number": 64,
                        "time": 214.17660976249994,
                        "value": 0
                    },
                    {
                        "number": 64,
                        "time": 214.25185760624993,
                        "value": 1
                    },
                    {
                        "number": 64,
                        "time": 214.60153876249993,
                        "value": 0
                    },
                    {
                        "number": 64,
                        "time": 214.67058972499993,
                        "value": 1
                    },
                    {
                        "number": 64,
                        "time": 215.03266464374994,
                        "value": 0
                    },
                    {
                        "number": 64,
                        "time": 215.10791248749993,
                        "value": 1
                    },
                    {
                        "number": 64,
                        "time": 215.45139676249994,
                        "value": 0
                    },
                    {
                        "number": 64,
                        "time": 215.52664460624993,
                        "value": 1
                    },
                    {
                        "number": 64,
                        "time": 215.86393199999992,
                        "value": 0
                    },
                    {
                        "number": 64,
                        "time": 215.93298296249992,
                        "value": 1
                    },
                    {
                        "number": 64,
                        "time": 216.30214003124993,
                        "value": 0
                    },
                    {
                        "number": 64,
                        "time": 216.39509324999995,
                        "value": 1
                    },
                    {
                        "number": 64,
                        "time": 216.72795429999994,
                        "value": 0
                    },
                    {
                        "number": 64,
                        "time": 216.78284096249993,
                        "value": 1
                    },
                    {
                        "number": 64,
                        "time": 217.14934222499994,
                        "value": 0
                    },
                    {
                        "number": 64,
                        "time": 217.22016372499994,
                        "value": 1
                    },
                    {
                        "number": 64,
                        "time": 217.56364799999994,
                        "value": 0
                    },
                    {
                        "number": 64,
                        "time": 217.67607713124994,
                        "value": 1
                    },
                    {
                        "number": 64,
                        "time": 218.00539710624994,
                        "value": 0
                    },
                    {
                        "number": 64,
                        "time": 218.06382484374996,
                        "value": 1
                    },
                    {
                        "number": 64,
                        "time": 218.43829352499995,
                        "value": 0
                    },
                    {
                        "number": 64,
                        "time": 218.50734448749995,
                        "value": 1
                    },
                    {
                        "number": 64,
                        "time": 218.85525510624996,
                        "value": 0
                    },
                    {
                        "number": 64,
                        "time": 218.93227348749997,
                        "value": 1
                    },
                    {
                        "number": 64,
                        "time": 219.26336399999997,
                        "value": 0
                    },
                    {
                        "number": 64,
                        "time": 219.35720248749996,
                        "value": 1
                    },
                    {
                        "number": 64,
                        "time": 219.70068676249997,
                        "value": 0
                    },
                    {
                        "number": 64,
                        "time": 219.79452524999996,
                        "value": 1
                    },
                    {
                        "number": 64,
                        "time": 220.13181264374995,
                        "value": 0
                    },
                    {
                        "number": 64,
                        "time": 220.21945424999996,
                        "value": 1
                    },
                    {
                        "number": 64,
                        "time": 220.55320056874996,
                        "value": 0
                    },
                    {
                        "number": 64,
                        "time": 220.67625292499997,
                        "value": 1
                    },
                    {
                        "number": 64,
                        "time": 220.96307999999996,
                        "value": 0
                    },
                    {
                        "number": 64,
                        "time": 221.06931224999997,
                        "value": 1
                    },
                    {
                        "number": 64,
                        "time": 221.61286726249998,
                        "value": 0
                    },
                    {
                        "number": 64,
                        "time": 221.90677648749997,
                        "value": 1
                    },
                    {
                        "number": 64,
                        "time": 222.46095472499997,
                        "value": 0
                    },
                    {
                        "number": 64,
                        "time": 222.73361749999995,
                        "value": 1
                    },
                    {
                        "number": 64,
                        "time": 223.31523906874995,
                        "value": 0
                    },
                    {
                        "number": 64,
                        "time": 224.41916919999994,
                        "value": 1
                    },
                    {
                        "number": 64,
                        "time": 225.00875818749995,
                        "value": 0
                    },
                    {
                        "number": 64,
                        "time": 225.33099601249995,
                        "value": 1
                    },
                    {
                        "number": 64,
                        "time": 225.86038672499996,
                        "value": 0
                    },
                    {
                        "number": 64,
                        "time": 226.16226336874996,
                        "value": 1
                    },
                    {
                        "number": 64,
                        "time": 226.71201526249996,
                        "value": 0
                    },
                    {
                        "number": 64,
                        "time": 228.22759536249995,
                        "value": 1
                    },
                    {
                        "number": 64,
                        "time": 228.42501029374995,
                        "value": 0
                    },
                    {
                        "number": 64,
                        "time": 229.07745336249994,
                        "value": 1
                    },
                    {
                        "number": 64,
                        "time": 229.27486829374993,
                        "value": 0
                    },
                    {
                        "number": 64,
                        "time": 230.31151799999992,
                        "value": 1
                    },
                    {
                        "number": 64,
                        "time": 230.84267924999992,
                        "value": 0
                    },
                    {
                        "number": 64,
                        "time": 231.48007274999992,
                        "value": 1
                    },
                    {
                        "number": 64,
                        "time": 231.9050017499999,
                        "value": 0
                    },
                    {
                        "number": 64,
                        "time": 236.26052399999992,
                        "value": 0
                    },
                    {
                        "number": 64,
                        "time": 236.36675624999992,
                        "value": 1
                    },
                    {
                        "number": 64,
                        "time": 236.91031126249993,
                        "value": 0
                    },
                    {
                        "number": 64,
                        "time": 237.20422048749992,
                        "value": 1
                    },
                    {
                        "number": 64,
                        "time": 237.75839872499992,
                        "value": 0
                    },
                    {
                        "number": 64,
                        "time": 238.0310614999999,
                        "value": 1
                    },
                    {
                        "number": 64,
                        "time": 238.6126830687499,
                        "value": 0
                    },
                    {
                        "number": 64,
                        "time": 239.7307774999999,
                        "value": 1
                    },
                    {
                        "number": 64,
                        "time": 240.3123990687499,
                        "value": 0
                    },
                    {
                        "number": 64,
                        "time": 241.4304934999999,
                        "value": 1
                    },
                    {
                        "number": 64,
                        "time": 242.0121150687499,
                        "value": 0
                    },
                    {
                        "number": 64,
                        "time": 243.0593879999999,
                        "value": 0
                    },
                    {
                        "number": 64,
                        "time": 243.2346712124999,
                        "value": 1
                    },
                    {
                        "number": 64,
                        "time": 243.9180986874999,
                        "value": 0
                    },
                    {
                        "number": 64,
                        "time": 244.0092813687499,
                        "value": 1
                    },
                    {
                        "number": 64,
                        "time": 244.7591039999999,
                        "value": 0
                    },
                    {
                        "number": 64,
                        "time": 244.8405487249999,
                        "value": 1
                    },
                    {
                        "number": 64,
                        "time": 245.61427361249991,
                        "value": 0
                    },
                    {
                        "number": 64,
                        "time": 245.70899736874992,
                        "value": 1
                    },
                    {
                        "number": 64,
                        "time": 246.0462847624999,
                        "value": 0
                    },
                    {
                        "number": 64,
                        "time": 246.17818980624992,
                        "value": 1
                    },
                    {
                        "number": 64,
                        "time": 246.47121376249993,
                        "value": 0
                    },
                    {
                        "number": 64,
                        "time": 246.54646160624992,
                        "value": 1
                    },
                    {
                        "number": 64,
                        "time": 247.3210717624999,
                        "value": 0
                    },
                    {
                        "number": 64,
                        "time": 247.40871336874991,
                        "value": 1
                    },
                    {
                        "number": 64,
                        "time": 248.1585359999999,
                        "value": 0
                    },
                    {
                        "number": 64,
                        "time": 248.23998072499992,
                        "value": 1
                    },
                    {
                        "number": 64,
                        "time": 249.02432883749992,
                        "value": 0
                    },
                    {
                        "number": 64,
                        "time": 249.12082313124992,
                        "value": 1
                    },
                    {
                        "number": 64,
                        "time": 249.44571676249993,
                        "value": 0
                    },
                    {
                        "number": 64,
                        "time": 249.57762180624994,
                        "value": 1
                    },
                    {
                        "number": 64,
                        "time": 249.87064576249995,
                        "value": 0
                    },
                    {
                        "number": 64,
                        "time": 249.94589360624994,
                        "value": 1
                    },
                    {
                        "number": 64,
                        "time": 250.72935644999993,
                        "value": 0
                    },
                    {
                        "number": 64,
                        "time": 250.80814536874993,
                        "value": 1
                    },
                    {
                        "number": 64,
                        "time": 251.14543276249992,
                        "value": 0
                    },
                    {
                        "number": 64,
                        "time": 251.27733780624993,
                        "value": 1
                    },
                    {
                        "number": 64,
                        "time": 251.57036176249994,
                        "value": 0
                    },
                    {
                        "number": 64,
                        "time": 251.64560960624993,
                        "value": 1
                    },
                    {
                        "number": 64,
                        "time": 252.42021976249993,
                        "value": 0
                    },
                    {
                        "number": 64,
                        "time": 252.50166448749994,
                        "value": 1
                    },
                    {
                        "number": 64,
                        "time": 252.84514876249995,
                        "value": 0
                    },
                    {
                        "number": 64,
                        "time": 252.97705380624996,
                        "value": 1
                    },
                    {
                        "number": 64,
                        "time": 253.25768399999995,
                        "value": 0
                    },
                    {
                        "number": 64,
                        "time": 253.36391624999996,
                        "value": 1
                    },
                    {
                        "number": 64,
                        "time": 253.90747126249997,
                        "value": 0
                    },
                    {
                        "number": 64,
                        "time": 254.20138048749996,
                        "value": 1
                    },
                    {
                        "number": 64,
                        "time": 254.75555872499996,
                        "value": 0
                    },
                    {
                        "number": 64,
                        "time": 255.02822149999994,
                        "value": 1
                    },
                    {
                        "number": 64,
                        "time": 255.60984306874994,
                        "value": 0
                    },
                    {
                        "number": 64,
                        "time": 257.16791606874995,
                        "value": 1
                    },
                    {
                        "number": 64,
                        "time": 257.5202530312499,
                        "value": 0
                    },
                    {
                        "number": 64,
                        "time": 257.5981566812499,
                        "value": 1
                    },
                    {
                        "number": 64,
                        "time": 257.94252622499994,
                        "value": 0
                    },
                    {
                        "number": 64,
                        "time": 258.02308568124994,
                        "value": 1
                    },
                    {
                        "number": 64,
                        "time": 258.3718815687499,
                        "value": 0
                    },
                    {
                        "number": 64,
                        "time": 258.42322715624994,
                        "value": 1
                    },
                    {
                        "number": 64,
                        "time": 258.79326949374996,
                        "value": 0
                    },
                    {
                        "number": 64,
                        "time": 258.8525825,
                        "value": 1
                    },
                    {
                        "number": 64,
                        "time": 259.21377214999995,
                        "value": 0
                    },
                    {
                        "number": 64,
                        "time": 259.252723975,
                        "value": 1
                    },
                    {
                        "number": 64,
                        "time": 259.635160075,
                        "value": 0
                    },
                    {
                        "number": 64,
                        "time": 259.69801415625,
                        "value": 1
                    },
                    {
                        "number": 64,
                        "time": 260.056548,
                        "value": 0
                    },
                    {
                        "number": 64,
                        "time": 260.056548,
                        "value": 0
                    },
                    {
                        "number": 64,
                        "time": 260.16278025,
                        "value": 1
                    },
                    {
                        "number": 64,
                        "time": 260.70633526250003,
                        "value": 0
                    },
                    {
                        "number": 64,
                        "time": 261.0002444875,
                        "value": 1
                    },
                    {
                        "number": 64,
                        "time": 261.55442272500005,
                        "value": 0
                    },
                    {
                        "number": 64,
                        "time": 261.82708550000007,
                        "value": 1
                    },
                    {
                        "number": 64,
                        "time": 262.40870706875006,
                        "value": 0
                    },
                    {
                        "number": 64,
                        "time": 263.96678006875004,
                        "value": 1
                    },
                    {
                        "number": 64,
                        "time": 264.31911703125,
                        "value": 0
                    },
                    {
                        "number": 64,
                        "time": 264.39702068125,
                        "value": 1
                    },
                    {
                        "number": 64,
                        "time": 264.74139022500003,
                        "value": 0
                    },
                    {
                        "number": 64,
                        "time": 264.82194968125003,
                        "value": 1
                    },
                    {
                        "number": 64,
                        "time": 265.17074556875,
                        "value": 0
                    },
                    {
                        "number": 64,
                        "time": 265.22209115625003,
                        "value": 1
                    },
                    {
                        "number": 64,
                        "time": 265.59213349375005,
                        "value": 0
                    },
                    {
                        "number": 64,
                        "time": 265.6514465000001,
                        "value": 1
                    },
                    {
                        "number": 64,
                        "time": 266.01263615000005,
                        "value": 0
                    },
                    {
                        "number": 64,
                        "time": 266.0515879750001,
                        "value": 1
                    },
                    {
                        "number": 64,
                        "time": 266.4340240750001,
                        "value": 0
                    },
                    {
                        "number": 64,
                        "time": 266.4968781562501,
                        "value": 1
                    },
                    {
                        "number": 64,
                        "time": 266.8554120000001,
                        "value": 0
                    },
                    {
                        "number": 64,
                        "time": 266.8554120000001,
                        "value": 0
                    },
                    {
                        "number": 64,
                        "time": 266.9616442500001,
                        "value": 1
                    },
                    {
                        "number": 64,
                        "time": 267.5051992625001,
                        "value": 0
                    },
                    {
                        "number": 64,
                        "time": 267.7991084875001,
                        "value": 1
                    },
                    {
                        "number": 64,
                        "time": 268.35328672500015,
                        "value": 0
                    },
                    {
                        "number": 64,
                        "time": 268.62594950000016,
                        "value": 1
                    },
                    {
                        "number": 64,
                        "time": 269.20757106875016,
                        "value": 0
                    },
                    {
                        "number": 64,
                        "time": 270.76564406875013,
                        "value": 1
                    },
                    {
                        "number": 64,
                        "time": 271.1179810312501,
                        "value": 0
                    },
                    {
                        "number": 64,
                        "time": 271.1958846812501,
                        "value": 1
                    },
                    {
                        "number": 64,
                        "time": 271.5402542250001,
                        "value": 0
                    },
                    {
                        "number": 64,
                        "time": 271.6208136812501,
                        "value": 1
                    },
                    {
                        "number": 64,
                        "time": 271.9696095687501,
                        "value": 0
                    },
                    {
                        "number": 64,
                        "time": 272.0209551562501,
                        "value": 1
                    },
                    {
                        "number": 64,
                        "time": 273.65427600000015,
                        "value": 0
                    },
                    {
                        "number": 64,
                        "time": 273.80123061250015,
                        "value": 1
                    },
                    {
                        "number": 64,
                        "time": 274.51741303125016,
                        "value": 0
                    },
                    {
                        "number": 64,
                        "time": 274.59531668125015,
                        "value": 1
                    },
                    {
                        "number": 64,
                        "time": 274.9396862250002,
                        "value": 0
                    },
                    {
                        "number": 64,
                        "time": 275.0202456812502,
                        "value": 1
                    },
                    {
                        "number": 64,
                        "time": 275.36904156875016,
                        "value": 0
                    },
                    {
                        "number": 64,
                        "time": 275.4203871562502,
                        "value": 1
                    },
                    {
                        "number": 64,
                        "time": 277.0537080000002,
                        "value": 0
                    },
                    {
                        "number": 64,
                        "time": 277.2263354062502,
                        "value": 1
                    },
                    {
                        "number": 64,
                        "time": 277.9168450312502,
                        "value": 0
                    },
                    {
                        "number": 64,
                        "time": 277.9947486812502,
                        "value": 1
                    },
                    {
                        "number": 64,
                        "time": 278.3391182250002,
                        "value": 0
                    },
                    {
                        "number": 64,
                        "time": 278.4196776812502,
                        "value": 1
                    },
                    {
                        "number": 64,
                        "time": 278.7684735687502,
                        "value": 0
                    },
                    {
                        "number": 64,
                        "time": 278.8348687250002,
                        "value": 1
                    },
                    {
                        "number": 64,
                        "time": 280.4531400000002,
                        "value": 0
                    },
                    {
                        "number": 64,
                        "time": 280.6054062250002,
                        "value": 1
                    },
                    {
                        "number": 64,
                        "time": 281.3162770312502,
                        "value": 0
                    },
                    {
                        "number": 64,
                        "time": 281.3941806812502,
                        "value": 1
                    },
                    {
                        "number": 64,
                        "time": 281.7385502250002,
                        "value": 0
                    },
                    {
                        "number": 64,
                        "time": 281.8191096812502,
                        "value": 1
                    },
                    {
                        "number": 64,
                        "time": 282.1679055687502,
                        "value": 0
                    },
                    {
                        "number": 64,
                        "time": 282.2192511562502,
                        "value": 1
                    },
                    {
                        "number": 64,
                        "time": 283.85257200000024,
                        "value": 0
                    },
                    {
                        "number": 64,
                        "time": 284.00483822500024,
                        "value": 1
                    },
                    {
                        "number": 64,
                        "time": 284.71570903125024,
                        "value": 0
                    },
                    {
                        "number": 64,
                        "time": 284.79361268125024,
                        "value": 1
                    },
                    {
                        "number": 64,
                        "time": 285.13798222500026,
                        "value": 0
                    },
                    {
                        "number": 64,
                        "time": 285.21854168125026,
                        "value": 1
                    },
                    {
                        "number": 64,
                        "time": 285.56733756875025,
                        "value": 0
                    },
                    {
                        "number": 64,
                        "time": 285.61868315625026,
                        "value": 1
                    },
                    {
                        "number": 64,
                        "time": 287.2520040000003,
                        "value": 0
                    },
                    {
                        "number": 64,
                        "time": 287.4042702250003,
                        "value": 1
                    },
                    {
                        "number": 64,
                        "time": 288.1151410312503,
                        "value": 0
                    },
                    {
                        "number": 64,
                        "time": 288.1930446812503,
                        "value": 1
                    },
                    {
                        "number": 64,
                        "time": 288.5374142250003,
                        "value": 0
                    },
                    {
                        "number": 64,
                        "time": 288.6179736812503,
                        "value": 1
                    },
                    {
                        "number": 64,
                        "time": 288.9667695687503,
                        "value": 0
                    },
                    {
                        "number": 64,
                        "time": 289.0181151562503,
                        "value": 1
                    },
                    {
                        "number": 64,
                        "time": 290.65143600000033,
                        "value": 0
                    },
                    {
                        "number": 64,
                        "time": 290.80370222500034,
                        "value": 1
                    },
                    {
                        "number": 64,
                        "time": 291.51457303125034,
                        "value": 0
                    },
                    {
                        "number": 64,
                        "time": 291.59247668125033,
                        "value": 1
                    },
                    {
                        "number": 64,
                        "time": 291.93684622500035,
                        "value": 0
                    },
                    {
                        "number": 64,
                        "time": 292.01740568125035,
                        "value": 1
                    },
                    {
                        "number": 64,
                        "time": 292.36620156875034,
                        "value": 0
                    },
                    {
                        "number": 64,
                        "time": 292.41754715625035,
                        "value": 1
                    },
                    {
                        "number": 64,
                        "time": 294.0508680000004,
                        "value": 0
                    },
                    {
                        "number": 64,
                        "time": 294.12700111250035,
                        "value": 1
                    },
                    {
                        "number": 64,
                        "time": 294.9113492250004,
                        "value": 0
                    },
                    {
                        "number": 64,
                        "time": 295.02731943125036,
                        "value": 1
                    },
                    {
                        "number": 64,
                        "time": 295.75678088125034,
                        "value": 0
                    },
                    {
                        "number": 64,
                        "time": 295.86212786250036,
                        "value": 1
                    },
                    {
                        "number": 64,
                        "time": 296.61017995625036,
                        "value": 0
                    },
                    {
                        "number": 64,
                        "time": 296.70224790625036,
                        "value": 1
                    },
                    {
                        "number": 64,
                        "time": 297.45649688125036,
                        "value": 0
                    },
                    {
                        "number": 64,
                        "time": 297.5618438625004,
                        "value": 1
                    },
                    {
                        "number": 64,
                        "time": 298.3098959562504,
                        "value": 0
                    },
                    {
                        "number": 64,
                        "time": 298.4019639062504,
                        "value": 1
                    },
                    {
                        "number": 64,
                        "time": 299.1562128812504,
                        "value": 0
                    },
                    {
                        "number": 64,
                        "time": 299.2615598625004,
                        "value": 1
                    },
                    {
                        "number": 64,
                        "time": 300.8497320000004,
                        "value": 0
                    },
                    {
                        "number": 64,
                        "time": 300.9258651125004,
                        "value": 1
                    },
                    {
                        "number": 64,
                        "time": 301.7102132250004,
                        "value": 0
                    },
                    {
                        "number": 64,
                        "time": 301.8261834312504,
                        "value": 1
                    },
                    {
                        "number": 64,
                        "time": 302.5556448812504,
                        "value": 0
                    },
                    {
                        "number": 64,
                        "time": 302.6609918625004,
                        "value": 1
                    },
                    {
                        "number": 64,
                        "time": 303.4090439562504,
                        "value": 0
                    },
                    {
                        "number": 64,
                        "time": 303.5011119062504,
                        "value": 1
                    },
                    {
                        "number": 64,
                        "time": 304.2553608812504,
                        "value": 0
                    },
                    {
                        "number": 64,
                        "time": 304.3607078625004,
                        "value": 1
                    },
                    {
                        "number": 64,
                        "time": 305.1087599562504,
                        "value": 0
                    },
                    {
                        "number": 64,
                        "time": 305.2008279062504,
                        "value": 1
                    },
                    {
                        "number": 64,
                        "time": 305.9550768812504,
                        "value": 0
                    },
                    {
                        "number": 64,
                        "time": 306.06042386250044,
                        "value": 1
                    },
                    {
                        "number": 64,
                        "time": 307.64859600000045,
                        "value": 0
                    },
                    {
                        "number": 64,
                        "time": 307.7247291125004,
                        "value": 1
                    },
                    {
                        "number": 64,
                        "time": 308.50907722500045,
                        "value": 0
                    },
                    {
                        "number": 64,
                        "time": 308.62504743125044,
                        "value": 1
                    },
                    {
                        "number": 64,
                        "time": 309.3545088812504,
                        "value": 0
                    },
                    {
                        "number": 64,
                        "time": 309.45985586250043,
                        "value": 1
                    },
                    {
                        "number": 64,
                        "time": 310.20790795625044,
                        "value": 0
                    },
                    {
                        "number": 64,
                        "time": 310.29997590625044,
                        "value": 1
                    },
                    {
                        "number": 64,
                        "time": 311.05422488125043,
                        "value": 0
                    },
                    {
                        "number": 64,
                        "time": 311.15957186250046,
                        "value": 1
                    },
                    {
                        "number": 64,
                        "time": 311.90762395625046,
                        "value": 0
                    },
                    {
                        "number": 64,
                        "time": 311.99969190625046,
                        "value": 1
                    },
                    {
                        "number": 64,
                        "time": 312.75394088125046,
                        "value": 0
                    },
                    {
                        "number": 64,
                        "time": 312.8592878625005,
                        "value": 1
                    },
                    {
                        "number": 64,
                        "time": 313.6046841500005,
                        "value": 0
                    },
                    {
                        "number": 64,
                        "time": 313.6737351125005,
                        "value": 1
                    },
                    {
                        "number": 64,
                        "time": 315.3070559562505,
                        "value": 0
                    },
                    {
                        "number": 64,
                        "time": 315.3991239062505,
                        "value": 1
                    },
                    {
                        "number": 64,
                        "time": 316.1533728812505,
                        "value": 0
                    },
                    {
                        "number": 64,
                        "time": 316.2587198625005,
                        "value": 1
                    },
                    {
                        "number": 64,
                        "time": 318.70648795625056,
                        "value": 0
                    },
                    {
                        "number": 64,
                        "time": 318.79855590625056,
                        "value": 1
                    },
                    {
                        "number": 64,
                        "time": 319.55280488125055,
                        "value": 0
                    },
                    {
                        "number": 64,
                        "time": 319.6581518625006,
                        "value": 1
                    },
                    {
                        "number": 64,
                        "time": 320.4062039562506,
                        "value": 0
                    },
                    {
                        "number": 64,
                        "time": 320.4982719062506,
                        "value": 1
                    },
                    {
                        "number": 64,
                        "time": 321.2525208812506,
                        "value": 0
                    },
                    {
                        "number": 64,
                        "time": 321.3578678625006,
                        "value": 1
                    },
                    {
                        "number": 64,
                        "time": 322.1059199562506,
                        "value": 0
                    },
                    {
                        "number": 64,
                        "time": 322.1979879062506,
                        "value": 1
                    },
                    {
                        "number": 64,
                        "time": 322.9522368812506,
                        "value": 0
                    },
                    {
                        "number": 64,
                        "time": 323.0212878437506,
                        "value": 1
                    },
                    {
                        "number": 64,
                        "time": 323.7958980000006,
                        "value": 0
                    },
                    {
                        "number": 64,
                        "time": 323.8711458437506,
                        "value": 1
                    },
                    {
                        "number": 64,
                        "time": 324.65195288125057,
                        "value": 0
                    },
                    {
                        "number": 64,
                        "time": 324.7086100812506,
                        "value": 1
                    },
                    {
                        "number": 64,
                        "time": 325.5080077625006,
                        "value": 0
                    },
                    {
                        "number": 64,
                        "time": 325.59564936875057,
                        "value": 1
                    },
                    {
                        "number": 64,
                        "time": 326.3454720000006,
                        "value": 0
                    },
                    {
                        "number": 64,
                        "time": 330.3353782562506,
                        "value": 1
                    },
                    {
                        "number": 64,
                        "time": 332.3325445562506,
                        "value": 0
                    },
                    {
                        "number": 64,
                        "time": 338.3063380812506,
                        "value": 1
                    },
                    {
                        "number": 64,
                        "time": 339.9759549437506,
                        "value": 0
                    },
                    {
                        "number": 64,
                        "time": 340.0432353687506,
                        "value": 1
                    },
                    {
                        "number": 64,
                        "time": 340.8054517625006,
                        "value": 0
                    },
                    {
                        "number": 64,
                        "time": 340.9178808937506,
                        "value": 1
                    },
                    {
                        "number": 64,
                        "time": 341.6508834187506,
                        "value": 0
                    },
                    {
                        "number": 64,
                        "time": 341.7243607250006,
                        "value": 1
                    },
                    {
                        "number": 64,
                        "time": 342.08289456875065,
                        "value": 0
                    },
                    {
                        "number": 64,
                        "time": 342.1678803687507,
                        "value": 1
                    },
                    {
                        "number": 64,
                        "time": 342.47418335625065,
                        "value": 0
                    },
                    {
                        "number": 64,
                        "time": 342.53349636250067,
                        "value": 1
                    },
                    {
                        "number": 64,
                        "time": 343.34263200000066,
                        "value": 0
                    },
                    {
                        "number": 64,
                        "time": 343.41787984375065,
                        "value": 1
                    },
                    {
                        "number": 64,
                        "time": 343.77552841875064,
                        "value": 0
                    },
                    {
                        "number": 64,
                        "time": 343.86759636875064,
                        "value": 1
                    },
                    {
                        "number": 64,
                        "time": 344.20399849375065,
                        "value": 0
                    },
                    {
                        "number": 64,
                        "time": 344.27393472500063,
                        "value": 1
                    },
                    {
                        "number": 64,
                        "time": 344.62981276250065,
                        "value": 0
                    },
                    {
                        "number": 64,
                        "time": 344.69886372500065,
                        "value": 1
                    },
                    {
                        "number": 64,
                        "time": 345.04234800000063,
                        "value": 0
                    },
                    {
                        "number": 64,
                        "time": 346.37998908125064,
                        "value": 1
                    },
                    {
                        "number": 64,
                        "time": 346.74206400000065,
                        "value": 0
                    },
                    {
                        "number": 64,
                        "time": 347.20505955625066,
                        "value": 1
                    },
                    {
                        "number": 64,
                        "time": 347.63618543750067,
                        "value": 0
                    },
                    {
                        "number": 64,
                        "time": 348.12308325000066,
                        "value": 1
                    },
                    {
                        "number": 64,
                        "time": 348.4417800000007,
                        "value": 0
                    },
                    {
                        "number": 64,
                        "time": 348.6657529937507,
                        "value": 1
                    },
                    {
                        "number": 64,
                        "time": 349.3111139125007,
                        "value": 0
                    },
                    {
                        "number": 64,
                        "time": 349.3447541250007,
                        "value": 1
                    },
                    {
                        "number": 64,
                        "time": 349.7254196875007,
                        "value": 0
                    },
                    {
                        "number": 64,
                        "time": 349.7643715125007,
                        "value": 1
                    },
                    {
                        "number": 64,
                        "time": 350.1476928812507,
                        "value": 0
                    },
                    {
                        "number": 64,
                        "time": 358.8020801812507,
                        "value": 1
                    },
                    {
                        "number": 64,
                        "time": 359.4297357250007,
                        "value": 0
                    },
                    {
                        "number": 64,
                        "time": 359.6315770000007,
                        "value": 1
                    },
                    {
                        "number": 64,
                        "time": 359.9281420312507,
                        "value": 0
                    },
                    {
                        "number": 64,
                        "time": 360.1175895437507,
                        "value": 1
                    },
                    {
                        "number": 64,
                        "time": 360.3468741500007,
                        "value": 0
                    },
                    {
                        "number": 64,
                        "time": 360.5425185437507,
                        "value": 1
                    },
                    {
                        "number": 64,
                        "time": 360.7780000312507,
                        "value": 0
                    },
                    {
                        "number": 64,
                        "time": 360.9470863625007,
                        "value": 1
                    },
                    {
                        "number": 64,
                        "time": 361.2038143000007,
                        "value": 0
                    },
                    {
                        "number": 64,
                        "time": 361.41273772500074,
                        "value": 1
                    },
                    {
                        "number": 64,
                        "time": 361.62785803125075,
                        "value": 0
                    },
                    {
                        "number": 64,
                        "time": 361.81730554375076,
                        "value": 1
                    },
                    {
                        "number": 64,
                        "time": 362.0465901500008,
                        "value": 0
                    },
                    {
                        "number": 64,
                        "time": 362.2422345437508,
                        "value": 1
                    },
                    {
                        "number": 64,
                        "time": 362.4777160312508,
                        "value": 0
                    },
                    {
                        "number": 64,
                        "time": 362.6468023625008,
                        "value": 1
                    },
                    {
                        "number": 64,
                        "time": 362.9035303000008,
                        "value": 0
                    },
                    {
                        "number": 64,
                        "time": 363.1124537250008,
                        "value": 1
                    },
                    {
                        "number": 64,
                        "time": 363.32757403125083,
                        "value": 0
                    },
                    {
                        "number": 64,
                        "time": 363.51702154375084,
                        "value": 1
                    },
                    {
                        "number": 64,
                        "time": 363.74630615000086,
                        "value": 0
                    },
                    {
                        "number": 64,
                        "time": 363.94195054375086,
                        "value": 1
                    },
                    {
                        "number": 64,
                        "time": 364.1774320312509,
                        "value": 0
                    },
                    {
                        "number": 64,
                        "time": 364.3465183625009,
                        "value": 1
                    },
                    {
                        "number": 64,
                        "time": 364.6032463000009,
                        "value": 0
                    },
                    {
                        "number": 64,
                        "time": 364.8121697250009,
                        "value": 1
                    },
                    {
                        "number": 64,
                        "time": 365.0272900312509,
                        "value": 0
                    },
                    {
                        "number": 64,
                        "time": 365.2167375437509,
                        "value": 1
                    },
                    {
                        "number": 64,
                        "time": 365.4389400000009,
                        "value": 0
                    },
                    {
                        "number": 64,
                        "time": 365.5248110687509,
                        "value": 1
                    },
                    {
                        "number": 64,
                        "time": 366.3020770312509,
                        "value": 0
                    },
                    {
                        "number": 64,
                        "time": 366.37024272500094,
                        "value": 1
                    },
                    {
                        "number": 64,
                        "time": 366.5118857250009,
                        "value": 0
                    },
                    {
                        "number": 64,
                        "time": 366.59775679375093,
                        "value": 1
                    },
                    {
                        "number": 64,
                        "time": 366.72346495625095,
                        "value": 0
                    },
                    {
                        "number": 64,
                        "time": 366.77481054375096,
                        "value": 1
                    },
                    {
                        "number": 64,
                        "time": 366.937699993751,
                        "value": 0
                    },
                    {
                        "number": 64,
                        "time": 367.022685793751,
                        "value": 1
                    },
                    {
                        "number": 64,
                        "time": 367.138656000001,
                        "value": 0
                    },
                    {
                        "number": 64,
                        "time": 367.224527068751,
                        "value": 1
                    },
                    {
                        "number": 64,
                        "time": 368.001793031251,
                        "value": 0
                    },
                    {
                        "number": 64,
                        "time": 368.069958725001,
                        "value": 1
                    },
                    {
                        "number": 64,
                        "time": 368.211601725001,
                        "value": 0
                    },
                    {
                        "number": 64,
                        "time": 368.297472793751,
                        "value": 1
                    },
                    {
                        "number": 64,
                        "time": 368.42318095625103,
                        "value": 0
                    },
                    {
                        "number": 64,
                        "time": 368.47452654375104,
                        "value": 1
                    },
                    {
                        "number": 64,
                        "time": 368.63741599375106,
                        "value": 0
                    },
                    {
                        "number": 64,
                        "time": 368.7224017937511,
                        "value": 1
                    },
                    {
                        "number": 64,
                        "time": 368.8383720000011,
                        "value": 0
                    },
                    {
                        "number": 64,
                        "time": 368.9242430687511,
                        "value": 1
                    },
                    {
                        "number": 64,
                        "time": 369.7015090312511,
                        "value": 0
                    },
                    {
                        "number": 64,
                        "time": 369.7696747250011,
                        "value": 1
                    },
                    {
                        "number": 64,
                        "time": 369.9113177250011,
                        "value": 0
                    },
                    {
                        "number": 64,
                        "time": 369.9971887937511,
                        "value": 1
                    },
                    {
                        "number": 64,
                        "time": 370.1228969562511,
                        "value": 0
                    },
                    {
                        "number": 64,
                        "time": 370.1742425437511,
                        "value": 1
                    },
                    {
                        "number": 64,
                        "time": 370.33713199375114,
                        "value": 0
                    },
                    {
                        "number": 64,
                        "time": 370.42211779375117,
                        "value": 1
                    },
                    {
                        "number": 64,
                        "time": 370.53808800000115,
                        "value": 0
                    },
                    {
                        "number": 64,
                        "time": 370.62395906875116,
                        "value": 1
                    },
                    {
                        "number": 64,
                        "time": 371.40122503125116,
                        "value": 0
                    },
                    {
                        "number": 64,
                        "time": 371.4693907250012,
                        "value": 1
                    },
                    {
                        "number": 64,
                        "time": 371.61103372500116,
                        "value": 0
                    },
                    {
                        "number": 64,
                        "time": 371.6969047937512,
                        "value": 1
                    },
                    {
                        "number": 64,
                        "time": 371.8226129562512,
                        "value": 0
                    },
                    {
                        "number": 64,
                        "time": 371.8739585437512,
                        "value": 1
                    },
                    {
                        "number": 64,
                        "time": 372.0368479937512,
                        "value": 0
                    },
                    {
                        "number": 64,
                        "time": 372.12183379375125,
                        "value": 1
                    },
                    {
                        "number": 64,
                        "time": 372.25108303125126,
                        "value": 0
                    },
                    {
                        "number": 64,
                        "time": 372.3192487250013,
                        "value": 1
                    },
                    {
                        "number": 64,
                        "time": 372.6724709562513,
                        "value": 0
                    },
                    {
                        "number": 64,
                        "time": 372.7238165437513,
                        "value": 1
                    },
                    {
                        "number": 64,
                        "time": 373.1009410312513,
                        "value": 0
                    },
                    {
                        "number": 64,
                        "time": 373.1691067250013,
                        "value": 1
                    },
                    {
                        "number": 64,
                        "time": 373.52232895625133,
                        "value": 0
                    },
                    {
                        "number": 64,
                        "time": 373.57367454375134,
                        "value": 1
                    },
                    {
                        "number": 64,
                        "time": 373.9375200000013,
                        "value": 0
                    },
                    {
                        "number": 64,
                        "time": 390.3601405812513,
                        "value": 1
                    },
                    {
                        "number": 64,
                        "time": 390.9399916125013,
                        "value": 0
                    },
                    {
                        "number": 64,
                        "time": 391.12235697500125,
                        "value": 1
                    },
                    {
                        "number": 64,
                        "time": 391.48443189375126,
                        "value": 0
                    },
                    {
                        "number": 64,
                        "time": 391.92263992500125,
                        "value": 1
                    },
                    {
                        "number": 64,
                        "time": 392.63970761250124,
                        "value": 0
                    },
                    {
                        "number": 64,
                        "time": 392.79728545000125,
                        "value": 1
                    },
                    {
                        "number": 64,
                        "time": 393.19742692500125,
                        "value": 0
                    },
                    {
                        "number": 64,
                        "time": 393.75957258125123,
                        "value": 1
                    },
                    {
                        "number": 64,
                        "time": 394.3394236125012,
                        "value": 0
                    },
                    {
                        "number": 64,
                        "time": 394.5217889750012,
                        "value": 1
                    },
                    {
                        "number": 64,
                        "time": 394.8838638937512,
                        "value": 0
                    },
                    {
                        "number": 64,
                        "time": 395.3220719250012,
                        "value": 1
                    },
                    {
                        "number": 64,
                        "time": 396.0391396125012,
                        "value": 0
                    },
                    {
                        "number": 64,
                        "time": 396.1967174500012,
                        "value": 1
                    },
                    {
                        "number": 64,
                        "time": 396.5968589250012,
                        "value": 0
                    },
                    {
                        "number": 64,
                        "time": 397.0217879250012,
                        "value": 1
                    },
                    {
                        "number": 64,
                        "time": 397.7335440000012,
                        "value": 0
                    },
                    {
                        "number": 64,
                        "time": 397.8716459250012,
                        "value": 1
                    },
                    {
                        "number": 64,
                        "time": 398.5904841500012,
                        "value": 0
                    },
                    {
                        "number": 64,
                        "time": 398.7710789750012,
                        "value": 1
                    },
                    {
                        "number": 64,
                        "time": 399.02072476250123,
                        "value": 0
                    },
                    {
                        "number": 64,
                        "time": 399.1083663687512,
                        "value": 1
                    },
                    {
                        "number": 64,
                        "time": 399.4332600000012,
                        "value": 0
                    },
                    {
                        "number": 64,
                        "time": 399.6359865437512,
                        "value": 1
                    },
                    {
                        "number": 64,
                        "time": 400.29639703125116,
                        "value": 0
                    },
                    {
                        "number": 64,
                        "time": 400.4247610000012,
                        "value": 1
                    },
                    {
                        "number": 64,
                        "time": 400.71955549375116,
                        "value": 0
                    },
                    {
                        "number": 64,
                        "time": 400.84969000000115,
                        "value": 1
                    },
                    {
                        "number": 64,
                        "time": 401.1329760000011,
                        "value": 0
                    },
                    {
                        "number": 64,
                        "time": 401.2144207250011,
                        "value": 1
                    },
                    {
                        "number": 64,
                        "time": 401.78010745625113,
                        "value": 0
                    },
                    {
                        "number": 64,
                        "time": 402.24575881875114,
                        "value": 1
                    },
                    {
                        "number": 64,
                        "time": 402.6352770687511,
                        "value": 0
                    },
                    {
                        "number": 64,
                        "time": 403.1159780000011,
                        "value": 1
                    },
                    {
                        "number": 64,
                        "time": 403.4762823812511,
                        "value": 0
                    },
                    {
                        "number": 64,
                        "time": 403.8073728937511,
                        "value": 1
                    },
                    {
                        "number": 64,
                        "time": 404.5324080000011,
                        "value": 0
                    },
                    {
                        "number": 64,
                        "time": 405.50708889375113,
                        "value": 1
                    },
                    {
                        "number": 64,
                        "time": 406.02674165000116,
                        "value": 0
                    },
                    {
                        "number": 64,
                        "time": 407.20680489375115,
                        "value": 1
                    },
                    {
                        "number": 64,
                        "time": 407.93184000000116,
                        "value": 0
                    },
                    {
                        "number": 64,
                        "time": 408.9065208937512,
                        "value": 1
                    },
                    {
                        "number": 64,
                        "time": 409.4261736500012,
                        "value": 0
                    },
                    {
                        "number": 64,
                        "time": 410.6062368937512,
                        "value": 1
                    },
                    {
                        "number": 64,
                        "time": 411.1258896500012,
                        "value": 0
                    },
                    {
                        "number": 64,
                        "time": 411.5437365000012,
                        "value": 1
                    },
                    {
                        "number": 64,
                        "time": 411.9757476500012,
                        "value": 0
                    },
                    {
                        "number": 64,
                        "time": 413.1071211125012,
                        "value": 1
                    },
                    {
                        "number": 64,
                        "time": 414.7307040000012,
                        "value": 0
                    },
                    {
                        "number": 64,
                        "time": 414.8369362500012,
                        "value": 1
                    },
                    {
                        "number": 64,
                        "time": 416.4375021500012,
                        "value": 0
                    },
                    {
                        "number": 64,
                        "time": 416.5269142937512,
                        "value": 1
                    },
                    {
                        "number": 64,
                        "time": 418.1301360000012,
                        "value": 0
                    },
                    {
                        "number": 64,
                        "time": 418.2160070687512,
                        "value": 1
                    },
                    {
                        "number": 64,
                        "time": 418.9897319562512,
                        "value": 0
                    },
                    {
                        "number": 64,
                        "time": 419.8856239312512,
                        "value": 1
                    },
                    {
                        "number": 64,
                        "time": 420.4760981875012,
                        "value": 0
                    },
                    {
                        "number": 64,
                        "time": 420.52832904375117,
                        "value": 1
                    },
                    {
                        "number": 64,
                        "time": 420.62393806875116,
                        "value": 0
                    },
                    {
                        "number": 64,
                        "time": 420.74610515625113,
                        "value": 1
                    },
                    {
                        "number": 64,
                        "time": 420.8364025687511,
                        "value": 0
                    },
                    {
                        "number": 64,
                        "time": 420.95325804375113,
                        "value": 1
                    },
                    {
                        "number": 64,
                        "time": 421.0488670687511,
                        "value": 0
                    },
                    {
                        "number": 64,
                        "time": 421.1754605000011,
                        "value": 1
                    },
                    {
                        "number": 64,
                        "time": 421.27195479375115,
                        "value": 0
                    },
                    {
                        "number": 64,
                        "time": 421.36313747500117,
                        "value": 1
                    },
                    {
                        "number": 64,
                        "time": 421.4693697250012,
                        "value": 0
                    },
                    {
                        "number": 64,
                        "time": 421.5401912250012,
                        "value": 1
                    },
                    {
                        "number": 64,
                        "time": 421.6667846562512,
                        "value": 0
                    },
                    {
                        "number": 64,
                        "time": 421.8084276562512,
                        "value": 1
                    },
                    {
                        "number": 64,
                        "time": 421.8942987250012,
                        "value": 0
                    },
                    {
                        "number": 64,
                        "time": 422.0208921562512,
                        "value": 1
                    },
                    {
                        "number": 64,
                        "time": 422.0961400000012,
                        "value": 0
                    },
                    {
                        "number": 64,
                        "time": 422.2333566562512,
                        "value": 1
                    },
                    {
                        "number": 64,
                        "time": 422.3236540687512,
                        "value": 0
                    },
                    {
                        "number": 64,
                        "time": 422.48565825000117,
                        "value": 1
                    },
                    {
                        "number": 64,
                        "time": 422.56710297500115,
                        "value": 0
                    },
                    {
                        "number": 64,
                        "time": 422.65297404375116,
                        "value": 1
                    },
                    {
                        "number": 64,
                        "time": 422.7441567250012,
                        "value": 0
                    },
                    {
                        "number": 64,
                        "time": 422.8707501562512,
                        "value": 1
                    },
                    {
                        "number": 64,
                        "time": 422.9513096125012,
                        "value": 0
                    },
                    {
                        "number": 64,
                        "time": 423.1026905687512,
                        "value": 1
                    },
                    {
                        "number": 64,
                        "time": 423.1690857250012,
                        "value": 0
                    },
                    {
                        "number": 64,
                        "time": 423.2753179750012,
                        "value": 1
                    },
                    {
                        "number": 64,
                        "time": 423.6701478375012,
                        "value": 0
                    },
                    {
                        "number": 64,
                        "time": 423.76044525000117,
                        "value": 1
                    },
                    {
                        "number": 64,
                        "time": 424.09242103125115,
                        "value": 0
                    },
                    {
                        "number": 64,
                        "time": 424.17032468125115,
                        "value": 1
                    },
                    {
                        "number": 64,
                        "time": 424.51823530000115,
                        "value": 0
                    },
                    {
                        "number": 64,
                        "time": 424.58994206875116,
                        "value": 1
                    },
                    {
                        "number": 64,
                        "time": 424.92900000000117,
                        "value": 0
                    },
                    {
                        "number": 64,
                        "time": 424.9998215000012,
                        "value": 1
                    },
                    {
                        "number": 64,
                        "time": 425.15651406875116,
                        "value": 0
                    },
                    {
                        "number": 64,
                        "time": 425.19723643125116,
                        "value": 1
                    },
                    {
                        "number": 64,
                        "time": 425.36189641875114,
                        "value": 0
                    },
                    {
                        "number": 64,
                        "time": 425.45042329375116,
                        "value": 1
                    },
                    {
                        "number": 64,
                        "time": 425.57967253125116,
                        "value": 0
                    },
                    {
                        "number": 64,
                        "time": 425.6478382250012,
                        "value": 1
                    },
                    {
                        "number": 64,
                        "time": 425.78948122500117,
                        "value": 0
                    },
                    {
                        "number": 64,
                        "time": 425.87004068125117,
                        "value": 1
                    },
                    {
                        "number": 64,
                        "time": 426.00371626250114,
                        "value": 0
                    },
                    {
                        "number": 64,
                        "time": 426.0621440000011,
                        "value": 1
                    },
                    {
                        "number": 64,
                        "time": 426.21706603125114,
                        "value": 0
                    },
                    {
                        "number": 64,
                        "time": 426.28523172500115,
                        "value": 1
                    },
                    {
                        "number": 64,
                        "time": 426.4251041875012,
                        "value": 0
                    },
                    {
                        "number": 64,
                        "time": 426.46671181875115,
                        "value": 1
                    },
                    {
                        "number": 64,
                        "time": 426.62871600000113,
                        "value": 0
                    },
                    {
                        "number": 64,
                        "time": 426.6694383625011,
                        "value": 1
                    },
                    {
                        "number": 64,
                        "time": 426.75530943125113,
                        "value": 0
                    },
                    {
                        "number": 64,
                        "time": 426.90226404375113,
                        "value": 1
                    },
                    {
                        "number": 64,
                        "time": 426.98813511250114,
                        "value": 0
                    },
                    {
                        "number": 64,
                        "time": 427.11472854375114,
                        "value": 1
                    },
                    {
                        "number": 64,
                        "time": 427.1908616562511,
                        "value": 0
                    },
                    {
                        "number": 64,
                        "time": 427.3325046562511,
                        "value": 1
                    },
                    {
                        "number": 64,
                        "time": 427.4183757250011,
                        "value": 0
                    },
                    {
                        "number": 64,
                        "time": 427.5343459312511,
                        "value": 1
                    },
                    {
                        "number": 64,
                        "time": 427.6202170000011,
                        "value": 0
                    },
                    {
                        "number": 64,
                        "time": 427.7671716125011,
                        "value": 1
                    },
                    {
                        "number": 64,
                        "time": 427.86366590625113,
                        "value": 0
                    },
                    {
                        "number": 64,
                        "time": 427.9645865437511,
                        "value": 1
                    },
                    {
                        "number": 64,
                        "time": 428.0451460000011,
                        "value": 0
                    },
                    {
                        "number": 64,
                        "time": 428.17705104375113,
                        "value": 1
                    },
                    {
                        "number": 64,
                        "time": 428.2531841562511,
                        "value": 0
                    },
                    {
                        "number": 64,
                        "time": 428.3895155437511,
                        "value": 1
                    },
                    {
                        "number": 64,
                        "time": 428.4753866125011,
                        "value": 0
                    },
                    {
                        "number": 64,
                        "time": 428.6320791812511,
                        "value": 1
                    },
                    {
                        "number": 64,
                        "time": 428.7029006812511,
                        "value": 0
                    },
                    {
                        "number": 64,
                        "time": 428.8197561562511,
                        "value": 1
                    },
                    {
                        "number": 64,
                        "time": 428.9003156125011,
                        "value": 0
                    },
                    {
                        "number": 64,
                        "time": 429.0366470000011,
                        "value": 1
                    },
                    {
                        "number": 64,
                        "time": 429.11278011250107,
                        "value": 0
                    },
                    {
                        "number": 64,
                        "time": 429.25973472500107,
                        "value": 1
                    },
                    {
                        "number": 64,
                        "time": 429.34029418125107,
                        "value": 0
                    },
                    {
                        "number": 64,
                        "time": 429.46688761250107,
                        "value": 1
                    },
                    {
                        "number": 64,
                        "time": 429.54744706875107,
                        "value": 0
                    },
                    {
                        "number": 64,
                        "time": 429.6643025437511,
                        "value": 1
                    },
                    {
                        "number": 64,
                        "time": 429.74043565625107,
                        "value": 0
                    },
                    {
                        "number": 64,
                        "time": 429.8714554312511,
                        "value": 1
                    },
                    {
                        "number": 64,
                        "time": 429.9573265000011,
                        "value": 0
                    },
                    {
                        "number": 64,
                        "time": 430.0635587500011,
                        "value": 1
                    },
                    {
                        "number": 64,
                        "time": 430.1751026125011,
                        "value": 0
                    },
                    {
                        "number": 64,
                        "time": 430.3016960437511,
                        "value": 1
                    },
                    {
                        "number": 64,
                        "time": 430.41323990625114,
                        "value": 0
                    },
                    {
                        "number": 64,
                        "time": 430.51416054375113,
                        "value": 1
                    },
                    {
                        "number": 64,
                        "time": 430.57967043125115,
                        "value": 0
                    },
                    {
                        "number": 64,
                        "time": 430.71157547500115,
                        "value": 1
                    },
                    {
                        "number": 64,
                        "time": 430.8027581562512,
                        "value": 0
                    },
                    {
                        "number": 64,
                        "time": 430.93908954375115,
                        "value": 1
                    },
                    {
                        "number": 64,
                        "time": 431.10374953125114,
                        "value": 0
                    },
                    {
                        "number": 64,
                        "time": 431.17191522500116,
                        "value": 1
                    },
                    {
                        "number": 64,
                        "time": 431.31798456875117,
                        "value": 0
                    },
                    {
                        "number": 64,
                        "time": 431.39942929375115,
                        "value": 1
                    },
                    {
                        "number": 64,
                        "time": 431.53133433750116,
                        "value": 0
                    },
                    {
                        "number": 64,
                        "time": 431.5817946562512,
                        "value": 1
                    },
                    {
                        "number": 64,
                        "time": 431.7278640000012,
                        "value": 0
                    },
                    {
                        "number": 64,
                        "time": 431.7738979750012,
                        "value": 1
                    },
                    {
                        "number": 64,
                        "time": 431.9500664562512,
                        "value": 0
                    },
                    {
                        "number": 64,
                        "time": 431.9863624750012,
                        "value": 1
                    },
                    {
                        "number": 64,
                        "time": 432.1625309562512,
                        "value": 0
                    },
                    {
                        "number": 64,
                        "time": 432.2138765437512,
                        "value": 1
                    },
                    {
                        "number": 64,
                        "time": 432.3749954562512,
                        "value": 0
                    },
                    {
                        "number": 64,
                        "time": 432.43165265625123,
                        "value": 1
                    },
                    {
                        "number": 64,
                        "time": 432.5910010312512,
                        "value": 0
                    },
                    {
                        "number": 64,
                        "time": 432.6538551125012,
                        "value": 1
                    },
                    {
                        "number": 64,
                        "time": 432.7990391875012,
                        "value": 0
                    },
                    {
                        "number": 64,
                        "time": 432.8565816562512,
                        "value": 1
                    },
                    {
                        "number": 64,
                        "time": 433.0150447625012,
                        "value": 0
                    },
                    {
                        "number": 64,
                        "time": 433.0584229312512,
                        "value": 1
                    },
                    {
                        "number": 64,
                        "time": 433.2248534562512,
                        "value": 0
                    },
                    {
                        "number": 64,
                        "time": 433.2611494750012,
                        "value": 1
                    },
                    {
                        "number": 64,
                        "time": 433.4275800000012,
                        "value": 0
                    },
                    {
                        "number": 64,
                        "time": 433.60286321250123,
                        "value": 1
                    },
                    {
                        "number": 64,
                        "time": 434.30222552500123,
                        "value": 0
                    },
                    {
                        "number": 64,
                        "time": 434.3774733687512,
                        "value": 1
                    },
                    {
                        "number": 64,
                        "time": 434.7209576437512,
                        "value": 0
                    },
                    {
                        "number": 64,
                        "time": 434.8024023687512,
                        "value": 1
                    },
                    {
                        "number": 64,
                        "time": 435.1272960000012,
                        "value": 0
                    },
                    {
                        "number": 64,
                        "time": 435.2087407250012,
                        "value": 1
                    },
                    {
                        "number": 64,
                        "time": 435.98954776250116,
                        "value": 0
                    },
                    {
                        "number": 64,
                        "time": 436.0833862500012,
                        "value": 1
                    },
                    {
                        "number": 64,
                        "time": 436.4144767625012,
                        "value": 0
                    },
                    {
                        "number": 64,
                        "time": 436.5463818062512,
                        "value": 1
                    },
                    {
                        "number": 64,
                        "time": 436.8394057625012,
                        "value": 0
                    },
                    {
                        "number": 64,
                        "time": 436.9146536062512,
                        "value": 1
                    },
                    {
                        "number": 64,
                        "time": 437.6954606437512,
                        "value": 0
                    },
                    {
                        "number": 64,
                        "time": 437.77070848750117,
                        "value": 1
                    },
                    {
                        "number": 64,
                        "time": 438.0956021187512,
                        "value": 0
                    },
                    {
                        "number": 64,
                        "time": 438.1956374875012,
                        "value": 1
                    },
                    {
                        "number": 64,
                        "time": 438.5267280000012,
                        "value": 0
                    },
                    {
                        "number": 64,
                        "time": 438.5957789625012,
                        "value": 1
                    },
                    {
                        "number": 64,
                        "time": 438.9640507625012,
                        "value": 0
                    },
                    {
                        "number": 64,
                        "time": 439.0640861312512,
                        "value": 1
                    },
                    {
                        "number": 64,
                        "time": 439.39075030000123,
                        "value": 0
                    },
                    {
                        "number": 64,
                        "time": 439.4456369625012,
                        "value": 1
                    },
                    {
                        "number": 64,
                        "time": 439.8121382250012,
                        "value": 0
                    },
                    {
                        "number": 64,
                        "time": 439.88295972500123,
                        "value": 1
                    },
                    {
                        "number": 64,
                        "time": 440.2264440000012,
                        "value": 0
                    },
                    {
                        "number": 64,
                        "time": 440.3388731312512,
                        "value": 1
                    },
                    {
                        "number": 64,
                        "time": 441.0922368375012,
                        "value": 0
                    },
                    {
                        "number": 64,
                        "time": 441.1701404875012,
                        "value": 1
                    },
                    {
                        "number": 64,
                        "time": 441.5136247625012,
                        "value": 0
                    },
                    {
                        "number": 64,
                        "time": 441.5950694875012,
                        "value": 1
                    },
                    {
                        "number": 64,
                        "time": 441.9261600000012,
                        "value": 0
                    },
                    {
                        "number": 64,
                        "time": 442.0199984875012,
                        "value": 1
                    },
                    {
                        "number": 64,
                        "time": 442.7884117625012,
                        "value": 0
                    },
                    {
                        "number": 64,
                        "time": 442.8822502500012,
                        "value": 1
                    },
                    {
                        "number": 64,
                        "time": 443.2159965687512,
                        "value": 0
                    },
                    {
                        "number": 64,
                        "time": 443.33904892500124,
                        "value": 1
                    },
                    {
                        "number": 64,
                        "time": 443.62587600000126,
                        "value": 0
                    },
                    {
                        "number": 64,
                        "time": 443.73210825000126,
                        "value": 1
                    },
                    {
                        "number": 64,
                        "time": 444.27566326250127,
                        "value": 0
                    },
                    {
                        "number": 64,
                        "time": 444.56957248750126,
                        "value": 1
                    },
                    {
                        "number": 64,
                        "time": 445.1237507250013,
                        "value": 0
                    },
                    {
                        "number": 64,
                        "time": 445.3964135000013,
                        "value": 1
                    },
                    {
                        "number": 64,
                        "time": 445.9780350687513,
                        "value": 0
                    },
                    {
                        "number": 64,
                        "time": 447.0819652000013,
                        "value": 1
                    },
                    {
                        "number": 64,
                        "time": 447.67155418750133,
                        "value": 0
                    },
                    {
                        "number": 64,
                        "time": 447.99379201250133,
                        "value": 1
                    },
                    {
                        "number": 64,
                        "time": 448.52318272500133,
                        "value": 0
                    },
                    {
                        "number": 64,
                        "time": 448.82505936875134,
                        "value": 1
                    },
                    {
                        "number": 64,
                        "time": 449.37481126250134,
                        "value": 0
                    },
                    {
                        "number": 64,
                        "time": 450.89039136250136,
                        "value": 1
                    },
                    {
                        "number": 64,
                        "time": 451.0878062937514,
                        "value": 0
                    },
                    {
                        "number": 64,
                        "time": 451.7402493625014,
                        "value": 1
                    },
                    {
                        "number": 64,
                        "time": 451.9376642937514,
                        "value": 0
                    },
                    {
                        "number": 64,
                        "time": 452.9743140000014,
                        "value": 1
                    },
                    {
                        "number": 64,
                        "time": 453.50547525000144,
                        "value": 0
                    },
                    {
                        "number": 64,
                        "time": 454.1428687500014,
                        "value": 1
                    },
                    {
                        "number": 64,
                        "time": 454.56779775000143,
                        "value": 0
                    }
                ]
            },
            "id": 3,
            "name": "Pedale",
            "instrumentNumber": 0,
            "instrument": "acoustic grand piano",
            "instrumentFamily": "piano",
            "channelNumber": 0,
            "isPercussion": false
        },
        {
            "startTime": 0,
            "duration": 0,
            "length": 0,
            "notes": [],
            "controlChanges": {},
            "id": 4,
            "name": "Beethoven: Grande Sonata Opus 22 1. movement"
        },
        {
            "startTime": 0,
            "duration": 0,
            "length": 0,
            "notes": [],
            "controlChanges": {},
            "id": 5,
            "name": "Copyright  2009 by Bernd Krueger"
        },
        {
            "startTime": 0,
            "duration": 0,
            "length": 0,
            "notes": [],
            "controlChanges": {},
            "id": 6,
            "name": "http://www.piano-midi.de/"
        },
        {
            "startTime": 0,
            "duration": 0,
            "length": 0,
            "notes": [],
            "controlChanges": {},
            "id": 7,
            "name": "Edition: 2012-05-27"
        },
        {
            "startTime": 0,
            "duration": 0,
            "length": 0,
            "notes": [],
            "controlChanges": {},
            "id": 8,
            "name": "Spur 8"
        },
        {
            "startTime": 0,
            "duration": 0,
            "length": 0,
            "notes": [],
            "controlChanges": {},
            "id": 9,
            "name": "Spur 9"
        },
        {
            "startTime": 0,
            "duration": 0,
            "length": 0,
            "notes": [],
            "controlChanges": {},
            "id": 10,
            "name": "Spur 10"
        },
        {
            "startTime": 0,
            "duration": 0,
            "length": 0,
            "notes": [],
            "controlChanges": {},
            "id": 11,
            "name": "Spur 11"
        },
        {
            "startTime": 0,
            "duration": 0,
            "length": 0,
            "notes": [],
            "controlChanges": {},
            "id": 12,
            "name": "Spur 12"
        },
        {
            "startTime": 0,
            "duration": 0,
            "length": 0,
            "notes": [],
            "controlChanges": {},
            "id": 13,
            "name": "Spur 13"
        },
        {
            "startTime": 0,
            "duration": 0,
            "length": 0,
            "notes": [],
            "controlChanges": {},
            "id": 14,
            "name": "Spur 14"
        },
        {
            "startTime": 0,
            "duration": 0,
            "length": 0,
            "notes": [],
            "controlChanges": {},
            "id": 15,
            "name": "Spur 15"
        },
        {
            "startTime": 0,
            "duration": 0,
            "length": 0,
            "notes": [],
            "controlChanges": {},
            "id": 16,
            "name": "Spur 16"
        }
    ]
}