{
    "header": {
        "PPQ": 480,
        "timeSignature": [
            2,
            4
        ],
        "bpm": 85.50004702502586,
        "name": "Grande Sonate Opus 22 - 4. movement"
    },
    "startTime": 0,
    "duration": 279.3858112500038,
    "tracks": [
        {
            "startTime": 0,
            "duration": 0,
            "length": 0,
            "notes": [],
            "controlChanges": {},
            "id": 0,
            "name": "Grande Sonate Opus 22 - 4. movement"
        },
        {
            "startTime": 0.8771925,
            "duration": 279.3858112500002,
            "length": 1942,
            "notes": [
                {
                    "name": "F5",
                    "midi": 77,
                    "time": 0.8771925,
                    "velocity": 0.3543307086614173,
                    "duration": 0.17543850000000005
                },
                {
                    "name": "G5",
                    "midi": 79,
                    "time": 1.052631,
                    "velocity": 0.3937007874015748,
                    "duration": 0.17543850000000005
                },
                {
                    "name": "F5",
                    "midi": 77,
                    "time": 1.2280695000000001,
                    "velocity": 0.36220472440944884,
                    "duration": 0.17543850000000005
                },
                {
                    "name": "D#5",
                    "midi": 75,
                    "time": 1.4035080000000002,
                    "velocity": 0.3937007874015748,
                    "duration": 0.17543850000000005
                },
                {
                    "name": "D5",
                    "midi": 74,
                    "time": 1.5789465000000003,
                    "velocity": 0.36220472440944884,
                    "duration": 0.17543850000000005
                },
                {
                    "name": "C5",
                    "midi": 72,
                    "time": 1.7543850000000003,
                    "velocity": 0.36220472440944884,
                    "duration": 0.17543850000000005
                },
                {
                    "name": "A#4",
                    "midi": 70,
                    "time": 1.9298235000000004,
                    "velocity": 0.36220472440944884,
                    "duration": 0.17543849999999983
                },
                {
                    "name": "A4",
                    "midi": 69,
                    "time": 2.105262,
                    "velocity": 0.3937007874015748,
                    "duration": 0.3508770000000001
                },
                {
                    "name": "A#4",
                    "midi": 70,
                    "time": 2.4561390000000003,
                    "velocity": 0.3700787401574803,
                    "duration": 0.3508770000000001
                },
                {
                    "name": "B4",
                    "midi": 71,
                    "time": 2.8070160000000004,
                    "velocity": 0.41732283464566927,
                    "duration": 0.3508770000000001
                },
                {
                    "name": "C5",
                    "midi": 72,
                    "time": 3.1578930000000005,
                    "velocity": 0.3858267716535433,
                    "duration": 0.5263154999999999
                },
                {
                    "name": "F#5",
                    "midi": 78,
                    "time": 3.6842085000000004,
                    "velocity": 0.3543307086614173,
                    "duration": 0.17543849999999983
                },
                {
                    "name": "A5",
                    "midi": 81,
                    "time": 3.8596470000000003,
                    "velocity": 0.3937007874015748,
                    "duration": 0.17543849999999983
                },
                {
                    "name": "G5",
                    "midi": 79,
                    "time": 4.0350855,
                    "velocity": 0.36220472440944884,
                    "duration": 0.17543850000000027
                },
                {
                    "name": "F5",
                    "midi": 77,
                    "time": 4.210524,
                    "velocity": 0.3937007874015748,
                    "duration": 0.17543850000000027
                },
                {
                    "name": "D#5",
                    "midi": 75,
                    "time": 4.385962500000001,
                    "velocity": 0.36220472440944884,
                    "duration": 0.17543850000000027
                },
                {
                    "name": "D5",
                    "midi": 74,
                    "time": 4.561401000000001,
                    "velocity": 0.36220472440944884,
                    "duration": 0.17543850000000027
                },
                {
                    "name": "C5",
                    "midi": 72,
                    "time": 4.736839500000001,
                    "velocity": 0.36220472440944884,
                    "duration": 0.17543850000000027
                },
                {
                    "name": "A#4",
                    "midi": 70,
                    "time": 4.9122780000000015,
                    "velocity": 0.3937007874015748,
                    "duration": 0.35087699999999966
                },
                {
                    "name": "C5",
                    "midi": 72,
                    "time": 5.263155000000001,
                    "velocity": 0.3700787401574803,
                    "duration": 0.35087699999999966
                },
                {
                    "name": "C#5",
                    "midi": 73,
                    "time": 5.614032000000001,
                    "velocity": 0.41732283464566927,
                    "duration": 0.35087699999999966
                },
                {
                    "name": "D5",
                    "midi": 74,
                    "time": 5.9649090000000005,
                    "velocity": 0.3858267716535433,
                    "duration": 0.5263154999999999
                },
                {
                    "name": "F5",
                    "midi": 77,
                    "time": 6.4912245,
                    "velocity": 0.4015748031496063,
                    "duration": 0.17543850000000027
                },
                {
                    "name": "G5",
                    "midi": 79,
                    "time": 6.666663000000001,
                    "velocity": 0.4566929133858268,
                    "duration": 0.17543850000000027
                },
                {
                    "name": "D5",
                    "midi": 74,
                    "time": 6.842101500000001,
                    "velocity": 0.4094488188976378,
                    "duration": 0.17543850000000027
                },
                {
                    "name": "F5",
                    "midi": 77,
                    "time": 7.017540000000001,
                    "velocity": 0.4409448818897638,
                    "duration": 0.17543850000000027
                },
                {
                    "name": "D#5",
                    "midi": 75,
                    "time": 7.1929785000000015,
                    "velocity": 0.4094488188976378,
                    "duration": 0.17543850000000027
                },
                {
                    "name": "F5",
                    "midi": 77,
                    "time": 7.368417000000002,
                    "velocity": 0.44881889763779526,
                    "duration": 0.17543850000000027
                },
                {
                    "name": "C5",
                    "midi": 72,
                    "time": 7.543855500000002,
                    "velocity": 0.4094488188976378,
                    "duration": 0.17543850000000027
                },
                {
                    "name": "D#5",
                    "midi": 75,
                    "time": 7.719294000000002,
                    "velocity": 0.44881889763779526,
                    "duration": 0.17543850000000027
                },
                {
                    "name": "D5",
                    "midi": 74,
                    "time": 7.894732500000003,
                    "velocity": 0.4094488188976378,
                    "duration": 0.1754384999999994
                },
                {
                    "name": "G5",
                    "midi": 79,
                    "time": 8.070171000000002,
                    "velocity": 0.4645669291338583,
                    "duration": 0.17543850000000027
                },
                {
                    "name": "D5",
                    "midi": 74,
                    "time": 8.245609500000002,
                    "velocity": 0.4094488188976378,
                    "duration": 0.17543850000000027
                },
                {
                    "name": "F5",
                    "midi": 77,
                    "time": 8.421048000000003,
                    "velocity": 0.4881889763779528,
                    "duration": 0.17543850000000027
                },
                {
                    "name": "D#5",
                    "midi": 75,
                    "time": 8.596486500000003,
                    "velocity": 0.4409448818897638,
                    "duration": 0.17543850000000027
                },
                {
                    "name": "F5",
                    "midi": 77,
                    "time": 8.771925000000003,
                    "velocity": 0.4881889763779528,
                    "duration": 0.17543850000000027
                },
                {
                    "name": "C5",
                    "midi": 72,
                    "time": 8.947363500000003,
                    "velocity": 0.4251968503937008,
                    "duration": 0.17543850000000027
                },
                {
                    "name": "D5",
                    "midi": 74,
                    "time": 9.122802000000004,
                    "velocity": 0.5275590551181102,
                    "duration": 0.17543850000000027
                },
                {
                    "name": "D#5",
                    "midi": 75,
                    "time": 9.298240500000004,
                    "velocity": 0.44881889763779526,
                    "duration": 0.17543850000000027
                },
                {
                    "name": "E5",
                    "midi": 76,
                    "time": 9.473679000000004,
                    "velocity": 0.4645669291338583,
                    "duration": 0.17543850000000027
                },
                {
                    "name": "F5",
                    "midi": 77,
                    "time": 9.649117500000004,
                    "velocity": 0.48031496062992124,
                    "duration": 0.17543850000000027
                },
                {
                    "name": "F#5",
                    "midi": 78,
                    "time": 9.824556000000005,
                    "velocity": 0.5275590551181102,
                    "duration": 0.17543850000000027
                },
                {
                    "name": "G5",
                    "midi": 79,
                    "time": 9.999994500000005,
                    "velocity": 0.5039370078740157,
                    "duration": 0.17543850000000027
                },
                {
                    "name": "A5",
                    "midi": 81,
                    "time": 10.175433000000005,
                    "velocity": 0.5275590551181102,
                    "duration": 0.17543850000000027
                },
                {
                    "name": "A#5",
                    "midi": 82,
                    "time": 10.350871500000006,
                    "velocity": 0.5433070866141733,
                    "duration": 0.17543850000000027
                },
                {
                    "name": "C6",
                    "midi": 84,
                    "time": 10.526310000000006,
                    "velocity": 0.5511811023622047,
                    "duration": 0.17543850000000027
                },
                {
                    "name": "C#6",
                    "midi": 85,
                    "time": 10.701748500000006,
                    "velocity": 0.5826771653543307,
                    "duration": 0.17543850000000027
                },
                {
                    "name": "D6",
                    "midi": 86,
                    "time": 10.877187000000006,
                    "velocity": 0.6377952755905512,
                    "duration": 0.17543850000000027
                },
                {
                    "name": "E5",
                    "midi": 76,
                    "time": 11.052625500000007,
                    "velocity": 0.4251968503937008,
                    "duration": 0.17543850000000027
                },
                {
                    "name": "G5",
                    "midi": 79,
                    "time": 11.228064000000007,
                    "velocity": 0.4566929133858268,
                    "duration": 0.35087700000000055
                },
                {
                    "name": "F5",
                    "midi": 77,
                    "time": 11.578941000000007,
                    "velocity": 0.41732283464566927,
                    "duration": 0.35087700000000055
                },
                {
                    "name": "F4",
                    "midi": 65,
                    "time": 12.105256500000008,
                    "velocity": 0.2992125984251969,
                    "duration": 0.17543850000000027
                },
                {
                    "name": "F5",
                    "midi": 77,
                    "time": 12.105256500000008,
                    "velocity": 0.3543307086614173,
                    "duration": 0.17543850000000027
                },
                {
                    "name": "G4",
                    "midi": 67,
                    "time": 12.280695000000009,
                    "velocity": 0.33070866141732286,
                    "duration": 0.17543850000000027
                },
                {
                    "name": "G5",
                    "midi": 79,
                    "time": 12.280695000000009,
                    "velocity": 0.3937007874015748,
                    "duration": 0.17543850000000027
                },
                {
                    "name": "F4",
                    "midi": 65,
                    "time": 12.456133500000009,
                    "velocity": 0.30708661417322836,
                    "duration": 0.17543850000000027
                },
                {
                    "name": "F5",
                    "midi": 77,
                    "time": 12.456133500000009,
                    "velocity": 0.36220472440944884,
                    "duration": 0.17543850000000027
                },
                {
                    "name": "D#4",
                    "midi": 63,
                    "time": 12.63157200000001,
                    "velocity": 0.33070866141732286,
                    "duration": 0.17543850000000027
                },
                {
                    "name": "D#5",
                    "midi": 75,
                    "time": 12.63157200000001,
                    "velocity": 0.3937007874015748,
                    "duration": 0.17543850000000027
                },
                {
                    "name": "D4",
                    "midi": 62,
                    "time": 12.80701050000001,
                    "velocity": 0.30708661417322836,
                    "duration": 0.17543850000000027
                },
                {
                    "name": "D5",
                    "midi": 74,
                    "time": 12.80701050000001,
                    "velocity": 0.36220472440944884,
                    "duration": 0.17543850000000027
                },
                {
                    "name": "C4",
                    "midi": 60,
                    "time": 12.98244900000001,
                    "velocity": 0.30708661417322836,
                    "duration": 0.17543850000000027
                },
                {
                    "name": "C5",
                    "midi": 72,
                    "time": 12.98244900000001,
                    "velocity": 0.36220472440944884,
                    "duration": 0.17543850000000027
                },
                {
                    "name": "A#3",
                    "midi": 58,
                    "time": 13.15788750000001,
                    "velocity": 0.30708661417322836,
                    "duration": 0.17543850000000027
                },
                {
                    "name": "A#4",
                    "midi": 70,
                    "time": 13.15788750000001,
                    "velocity": 0.36220472440944884,
                    "duration": 0.17543850000000027
                },
                {
                    "name": "A3",
                    "midi": 57,
                    "time": 13.33332600000001,
                    "velocity": 0.33070866141732286,
                    "duration": 0.35087700000000055
                },
                {
                    "name": "A4",
                    "midi": 69,
                    "time": 13.33332600000001,
                    "velocity": 0.33070866141732286,
                    "duration": 0.35087700000000055
                },
                {
                    "name": "A#3",
                    "midi": 58,
                    "time": 13.68420300000001,
                    "velocity": 0.30708661417322836,
                    "duration": 0.35087700000000055
                },
                {
                    "name": "A#4",
                    "midi": 70,
                    "time": 13.68420300000001,
                    "velocity": 0.3700787401574803,
                    "duration": 0.35087700000000055
                },
                {
                    "name": "B3",
                    "midi": 59,
                    "time": 14.035080000000011,
                    "velocity": 0.3543307086614173,
                    "duration": 0.35087700000000055
                },
                {
                    "name": "B4",
                    "midi": 71,
                    "time": 14.035080000000011,
                    "velocity": 0.41732283464566927,
                    "duration": 0.35087700000000055
                },
                {
                    "name": "C4",
                    "midi": 60,
                    "time": 14.385957000000012,
                    "velocity": 0.3228346456692913,
                    "duration": 0.526315499999999
                },
                {
                    "name": "C5",
                    "midi": 72,
                    "time": 14.385957000000012,
                    "velocity": 0.3858267716535433,
                    "duration": 0.526315499999999
                },
                {
                    "name": "F#4",
                    "midi": 66,
                    "time": 14.912272500000011,
                    "velocity": 0.2992125984251969,
                    "duration": 0.17543850000000027
                },
                {
                    "name": "F#5",
                    "midi": 78,
                    "time": 14.912272500000011,
                    "velocity": 0.3543307086614173,
                    "duration": 0.17543850000000027
                },
                {
                    "name": "A4",
                    "midi": 69,
                    "time": 15.087711000000011,
                    "velocity": 0.33070866141732286,
                    "duration": 0.17543850000000027
                },
                {
                    "name": "A5",
                    "midi": 81,
                    "time": 15.087711000000011,
                    "velocity": 0.3937007874015748,
                    "duration": 0.17543850000000027
                },
                {
                    "name": "G4",
                    "midi": 67,
                    "time": 15.263149500000011,
                    "velocity": 0.30708661417322836,
                    "duration": 0.17543850000000027
                },
                {
                    "name": "G5",
                    "midi": 79,
                    "time": 15.263149500000011,
                    "velocity": 0.36220472440944884,
                    "duration": 0.17543850000000027
                },
                {
                    "name": "F4",
                    "midi": 65,
                    "time": 15.438588000000012,
                    "velocity": 0.33070866141732286,
                    "duration": 0.17543850000000027
                },
                {
                    "name": "F5",
                    "midi": 77,
                    "time": 15.438588000000012,
                    "velocity": 0.3937007874015748,
                    "duration": 0.17543850000000027
                },
                {
                    "name": "D#4",
                    "midi": 63,
                    "time": 15.614026500000012,
                    "velocity": 0.30708661417322836,
                    "duration": 0.17543850000000027
                },
                {
                    "name": "D#5",
                    "midi": 75,
                    "time": 15.614026500000012,
                    "velocity": 0.36220472440944884,
                    "duration": 0.17543850000000027
                },
                {
                    "name": "D4",
                    "midi": 62,
                    "time": 15.789465000000012,
                    "velocity": 0.30708661417322836,
                    "duration": 0.17543850000000027
                },
                {
                    "name": "D5",
                    "midi": 74,
                    "time": 15.789465000000012,
                    "velocity": 0.36220472440944884,
                    "duration": 0.17543850000000027
                },
                {
                    "name": "C4",
                    "midi": 60,
                    "time": 15.964903500000013,
                    "velocity": 0.30708661417322836,
                    "duration": 0.1754384999999985
                },
                {
                    "name": "C5",
                    "midi": 72,
                    "time": 15.964903500000013,
                    "velocity": 0.36220472440944884,
                    "duration": 0.1754384999999985
                },
                {
                    "name": "A#3",
                    "midi": 58,
                    "time": 16.14034200000001,
                    "velocity": 0.33070866141732286,
                    "duration": 0.35087700000000055
                },
                {
                    "name": "A#4",
                    "midi": 70,
                    "time": 16.14034200000001,
                    "velocity": 0.3937007874015748,
                    "duration": 0.35087700000000055
                },
                {
                    "name": "C4",
                    "midi": 60,
                    "time": 16.49121900000001,
                    "velocity": 0.30708661417322836,
                    "duration": 0.35087700000000055
                },
                {
                    "name": "C5",
                    "midi": 72,
                    "time": 16.49121900000001,
                    "velocity": 0.3700787401574803,
                    "duration": 0.35087700000000055
                },
                {
                    "name": "C#4",
                    "midi": 61,
                    "time": 16.842096000000012,
                    "velocity": 0.3543307086614173,
                    "duration": 0.35087700000000055
                },
                {
                    "name": "C#5",
                    "midi": 73,
                    "time": 16.842096000000012,
                    "velocity": 0.41732283464566927,
                    "duration": 0.35087700000000055
                },
                {
                    "name": "D4",
                    "midi": 62,
                    "time": 17.192973000000013,
                    "velocity": 0.3228346456692913,
                    "duration": 0.526315499999999
                },
                {
                    "name": "D5",
                    "midi": 74,
                    "time": 17.192973000000013,
                    "velocity": 0.3858267716535433,
                    "duration": 0.526315499999999
                },
                {
                    "name": "F5",
                    "midi": 77,
                    "time": 17.71928850000001,
                    "velocity": 0.4409448818897638,
                    "duration": 0.1754384999999985
                },
                {
                    "name": "G#4",
                    "midi": 68,
                    "time": 17.89472700000001,
                    "velocity": 0.3543307086614173,
                    "duration": 0.701753999999994
                },
                {
                    "name": "G5",
                    "midi": 79,
                    "time": 17.89472700000001,
                    "velocity": 0.49606299212598426,
                    "duration": 0.1754384999999985
                },
                {
                    "name": "D5",
                    "midi": 74,
                    "time": 18.07016550000001,
                    "velocity": 0.44881889763779526,
                    "duration": 0.1754384999999985
                },
                {
                    "name": "F5",
                    "midi": 77,
                    "time": 18.245604000000007,
                    "velocity": 0.4881889763779528,
                    "duration": 0.1754384999999985
                },
                {
                    "name": "D#5",
                    "midi": 75,
                    "time": 18.421042500000006,
                    "velocity": 0.4566929133858268,
                    "duration": 0.1754384999999985
                },
                {
                    "name": "A4",
                    "midi": 69,
                    "time": 18.596481000000004,
                    "velocity": 0.3543307086614173,
                    "duration": 0.350876999999997
                },
                {
                    "name": "F5",
                    "midi": 77,
                    "time": 18.596481000000004,
                    "velocity": 0.49606299212598426,
                    "duration": 0.1754384999999985
                },
                {
                    "name": "C5",
                    "midi": 72,
                    "time": 18.771919500000003,
                    "velocity": 0.4566929133858268,
                    "duration": 0.1754384999999985
                },
                {
                    "name": "A#4",
                    "midi": 70,
                    "time": 18.947358,
                    "velocity": 0.36220472440944884,
                    "duration": 0.350876999999997
                },
                {
                    "name": "D#5",
                    "midi": 75,
                    "time": 18.947358,
                    "velocity": 0.5039370078740157,
                    "duration": 0.1754384999999985
                },
                {
                    "name": "D5",
                    "midi": 74,
                    "time": 19.1227965,
                    "velocity": 0.4645669291338583,
                    "duration": 0.1754384999999985
                },
                {
                    "name": "G#4",
                    "midi": 68,
                    "time": 19.298235,
                    "velocity": 0.36220472440944884,
                    "duration": 0.701753999999994
                },
                {
                    "name": "G5",
                    "midi": 79,
                    "time": 19.298235,
                    "velocity": 0.5275590551181102,
                    "duration": 0.1754384999999985
                },
                {
                    "name": "D5",
                    "midi": 74,
                    "time": 19.473673499999997,
                    "velocity": 0.4645669291338583,
                    "duration": 0.1754384999999985
                },
                {
                    "name": "F5",
                    "midi": 77,
                    "time": 19.649111999999995,
                    "velocity": 0.5590551181102362,
                    "duration": 0.1754384999999985
                },
                {
                    "name": "D#5",
                    "midi": 75,
                    "time": 19.824550499999994,
                    "velocity": 0.5039370078740157,
                    "duration": 0.1754384999999985
                },
                {
                    "name": "A4",
                    "midi": 69,
                    "time": 19.999988999999992,
                    "velocity": 0.3700787401574803,
                    "duration": 0.350876999999997
                },
                {
                    "name": "F5",
                    "midi": 77,
                    "time": 19.999988999999992,
                    "velocity": 0.5590551181102362,
                    "duration": 0.1754384999999985
                },
                {
                    "name": "C5",
                    "midi": 72,
                    "time": 20.17542749999999,
                    "velocity": 0.49606299212598426,
                    "duration": 0.1754384999999985
                },
                {
                    "name": "A#4",
                    "midi": 70,
                    "time": 20.35086599999999,
                    "velocity": 0.4645669291338583,
                    "duration": 0.1754384999999985
                },
                {
                    "name": "D#5",
                    "midi": 75,
                    "time": 20.35086599999999,
                    "velocity": 0.5590551181102362,
                    "duration": 0.1754384999999985
                },
                {
                    "name": "D4",
                    "midi": 62,
                    "time": 20.526304499999988,
                    "velocity": 0.41732283464566927,
                    "duration": 0.1754384999999985
                },
                {
                    "name": "D5",
                    "midi": 74,
                    "time": 20.526304499999988,
                    "velocity": 0.49606299212598426,
                    "duration": 0.1754384999999985
                },
                {
                    "name": "D#4",
                    "midi": 63,
                    "time": 20.701742999999986,
                    "velocity": 0.4409448818897638,
                    "duration": 0.1754384999999985
                },
                {
                    "name": "D#5",
                    "midi": 75,
                    "time": 20.701742999999986,
                    "velocity": 0.5275590551181102,
                    "duration": 0.1754384999999985
                },
                {
                    "name": "F4",
                    "midi": 65,
                    "time": 20.877181499999985,
                    "velocity": 0.47244094488188976,
                    "duration": 0.1754384999999985
                },
                {
                    "name": "F5",
                    "midi": 77,
                    "time": 20.877181499999985,
                    "velocity": 0.5590551181102362,
                    "duration": 0.1754384999999985
                },
                {
                    "name": "F#4",
                    "midi": 66,
                    "time": 21.052619999999983,
                    "velocity": 0.5275590551181102,
                    "duration": 0.1754384999999985
                },
                {
                    "name": "F#5",
                    "midi": 78,
                    "time": 21.052619999999983,
                    "velocity": 0.6299212598425197,
                    "duration": 0.1754384999999985
                },
                {
                    "name": "G4",
                    "midi": 67,
                    "time": 21.22805849999998,
                    "velocity": 0.49606299212598426,
                    "duration": 0.1754384999999985
                },
                {
                    "name": "G5",
                    "midi": 79,
                    "time": 21.22805849999998,
                    "velocity": 0.5905511811023622,
                    "duration": 0.1754384999999985
                },
                {
                    "name": "A4",
                    "midi": 69,
                    "time": 21.40349699999998,
                    "velocity": 0.5275590551181102,
                    "duration": 0.08771924999999925
                },
                {
                    "name": "A5",
                    "midi": 81,
                    "time": 21.40349699999998,
                    "velocity": 0.6299212598425197,
                    "duration": 0.08771924999999925
                },
                {
                    "name": "A#4",
                    "midi": 70,
                    "time": 21.57893549999998,
                    "velocity": 0.5511811023622047,
                    "duration": 0.08771924999999925
                },
                {
                    "name": "A#5",
                    "midi": 82,
                    "time": 21.57893549999998,
                    "velocity": 0.6535433070866141,
                    "duration": 0.08771924999999925
                },
                {
                    "name": "A#3",
                    "midi": 58,
                    "time": 21.754373999999977,
                    "velocity": 0.5511811023622047,
                    "duration": 0.35087700000000055
                },
                {
                    "name": "A#4",
                    "midi": 70,
                    "time": 21.754373999999977,
                    "velocity": 0.5511811023622047,
                    "duration": 0.35087700000000055
                },
                {
                    "name": "C4",
                    "midi": 60,
                    "time": 22.105250999999978,
                    "velocity": 0.4566929133858268,
                    "duration": 0.35087700000000055
                },
                {
                    "name": "C5",
                    "midi": 72,
                    "time": 22.105250999999978,
                    "velocity": 0.5433070866141733,
                    "duration": 0.35087700000000055
                },
                {
                    "name": "C#4",
                    "midi": 61,
                    "time": 22.45612799999998,
                    "velocity": 0.3228346456692913,
                    "duration": 0.35087700000000055
                },
                {
                    "name": "C#5",
                    "midi": 73,
                    "time": 22.45612799999998,
                    "velocity": 0.3858267716535433,
                    "duration": 0.35087700000000055
                },
                {
                    "name": "D4",
                    "midi": 62,
                    "time": 22.80700499999998,
                    "velocity": 0.2992125984251969,
                    "duration": 0.4385962499999998
                },
                {
                    "name": "D5",
                    "midi": 74,
                    "time": 22.80700499999998,
                    "velocity": 0.3543307086614173,
                    "duration": 0.4385962499999998
                },
                {
                    "name": "A#4",
                    "midi": 70,
                    "time": 23.24560124999998,
                    "velocity": 0.4645669291338583,
                    "duration": 0.08771924999999925
                },
                {
                    "name": "A4",
                    "midi": 69,
                    "time": 23.333320499999978,
                    "velocity": 0.48031496062992124,
                    "duration": 0.08771924999999925
                },
                {
                    "name": "A#4",
                    "midi": 70,
                    "time": 23.421039749999977,
                    "velocity": 0.4881889763779528,
                    "duration": 0.08771924999999925
                },
                {
                    "name": "B4",
                    "midi": 71,
                    "time": 23.508758999999976,
                    "velocity": 0.4881889763779528,
                    "duration": 0.08771924999999925
                },
                {
                    "name": "C5",
                    "midi": 72,
                    "time": 23.596478249999976,
                    "velocity": 0.5039370078740157,
                    "duration": 0.08771924999999925
                },
                {
                    "name": "C#5",
                    "midi": 73,
                    "time": 23.684197499999975,
                    "velocity": 0.5118110236220472,
                    "duration": 0.08771924999999925
                },
                {
                    "name": "D5",
                    "midi": 74,
                    "time": 23.771916749999974,
                    "velocity": 0.5275590551181102,
                    "duration": 0.08771924999999925
                },
                {
                    "name": "D#5",
                    "midi": 75,
                    "time": 23.859635999999973,
                    "velocity": 0.5433070866141733,
                    "duration": 0.08771924999999925
                },
                {
                    "name": "E5",
                    "midi": 76,
                    "time": 23.947355249999973,
                    "velocity": 0.5511811023622047,
                    "duration": 0.08771924999999925
                },
                {
                    "name": "F5",
                    "midi": 77,
                    "time": 24.035074499999972,
                    "velocity": 0.5590551181102362,
                    "duration": 0.08771924999999925
                },
                {
                    "name": "F#5",
                    "midi": 78,
                    "time": 24.12279374999997,
                    "velocity": 0.5748031496062992,
                    "duration": 0.08771924999999925
                },
                {
                    "name": "G5",
                    "midi": 79,
                    "time": 24.21051299999997,
                    "velocity": 0.5826771653543307,
                    "duration": 0.08771924999999925
                },
                {
                    "name": "G#5",
                    "midi": 80,
                    "time": 24.29823224999997,
                    "velocity": 0.5984251968503937,
                    "duration": 0.08771924999999925
                },
                {
                    "name": "A5",
                    "midi": 81,
                    "time": 24.38595149999997,
                    "velocity": 0.6062992125984252,
                    "duration": 0.08771924999999925
                },
                {
                    "name": "A#5",
                    "midi": 82,
                    "time": 24.473670749999968,
                    "velocity": 0.6141732283464567,
                    "duration": 0.08771924999999925
                },
                {
                    "name": "A#4",
                    "midi": 70,
                    "time": 24.561389999999967,
                    "velocity": 0.41732283464566927,
                    "duration": 0.07017540000000011
                },
                {
                    "name": "C5",
                    "midi": 72,
                    "time": 24.631565399999968,
                    "velocity": 0.3779527559055118,
                    "duration": 0.07017540000000011
                },
                {
                    "name": "A#4",
                    "midi": 70,
                    "time": 24.701740799999968,
                    "velocity": 0.3543307086614173,
                    "duration": 0.07017540000000011
                },
                {
                    "name": "A4",
                    "midi": 69,
                    "time": 24.771916199999968,
                    "velocity": 0.3543307086614173,
                    "duration": 0.07017540000000011
                },
                {
                    "name": "A#4",
                    "midi": 70,
                    "time": 24.842091599999968,
                    "velocity": 0.3543307086614173,
                    "duration": 0.07017540000000011
                },
                {
                    "name": "D#4",
                    "midi": 63,
                    "time": 24.912266999999968,
                    "velocity": 0.33070866141732286,
                    "duration": 0.35087700000000055
                },
                {
                    "name": "D5",
                    "midi": 74,
                    "time": 24.912266999999968,
                    "velocity": 0.4094488188976378,
                    "duration": 0.2631577500000013
                },
                {
                    "name": "C5",
                    "midi": 72,
                    "time": 25.17542474999997,
                    "velocity": 0.3228346456692913,
                    "duration": 0.08771924999999925
                },
                {
                    "name": "D4",
                    "midi": 62,
                    "time": 25.26314399999997,
                    "velocity": 0.33070866141732286,
                    "duration": 0.35087700000000055
                },
                {
                    "name": "A#4",
                    "midi": 70,
                    "time": 25.26314399999997,
                    "velocity": 0.3937007874015748,
                    "duration": 0.35087700000000055
                },
                {
                    "name": "F4",
                    "midi": 65,
                    "time": 25.96489799999997,
                    "velocity": 0.5275590551181102,
                    "duration": 0.7017540000000011
                },
                {
                    "name": "D5",
                    "midi": 74,
                    "time": 25.96489799999997,
                    "velocity": 0.6299212598425197,
                    "duration": 0.7017540000000011
                },
                {
                    "name": "G4",
                    "midi": 67,
                    "time": 26.66665199999997,
                    "velocity": 0.3543307086614173,
                    "duration": 0.7017539999999975
                },
                {
                    "name": "C5",
                    "midi": 72,
                    "time": 26.66665199999997,
                    "velocity": 0.41732283464566927,
                    "duration": 0.07602334999999982
                },
                {
                    "name": "D5",
                    "midi": 74,
                    "time": 26.74267534999997,
                    "velocity": 0.3937007874015748,
                    "duration": 0.074561362499999
                },
                {
                    "name": "C5",
                    "midi": 72,
                    "time": 26.81723671249997,
                    "velocity": 0.41732283464566927,
                    "duration": 0.07602334999999982
                },
                {
                    "name": "D5",
                    "midi": 74,
                    "time": 26.89326006249997,
                    "velocity": 0.3937007874015748,
                    "duration": 0.07602334999999982
                },
                {
                    "name": "C5",
                    "midi": 72,
                    "time": 26.96928341249997,
                    "velocity": 0.41732283464566927,
                    "duration": 0.074561362499999
                },
                {
                    "name": "B4",
                    "midi": 71,
                    "time": 27.043844774999968,
                    "velocity": 0.3858267716535433,
                    "duration": 0.07602334999999982
                },
                {
                    "name": "C5",
                    "midi": 72,
                    "time": 27.119868124999968,
                    "velocity": 0.3858267716535433,
                    "duration": 0.07456136250000256
                },
                {
                    "name": "D5",
                    "midi": 74,
                    "time": 27.19296749999997,
                    "velocity": 0.3858267716535433,
                    "duration": 0.08771924999999925
                },
                {
                    "name": "D#5",
                    "midi": 75,
                    "time": 27.28068674999997,
                    "velocity": 0.3937007874015748,
                    "duration": 0.08771924999999925
                },
                {
                    "name": "G4",
                    "midi": 67,
                    "time": 27.36840599999997,
                    "velocity": 0.44881889763779526,
                    "duration": 0.35087700000000055
                },
                {
                    "name": "D#4",
                    "midi": 63,
                    "time": 27.71928299999997,
                    "velocity": 0.3543307086614173,
                    "duration": 0.35087700000000055
                },
                {
                    "name": "A4",
                    "midi": 69,
                    "time": 27.71928299999997,
                    "velocity": 0.4251968503937008,
                    "duration": 0.35087700000000055
                },
                {
                    "name": "D4",
                    "midi": 62,
                    "time": 28.07015999999997,
                    "velocity": 0.3700787401574803,
                    "duration": 0.7017539999999975
                },
                {
                    "name": "A#4",
                    "midi": 70,
                    "time": 28.07015999999997,
                    "velocity": 0.4409448818897638,
                    "duration": 0.35087700000000055
                },
                {
                    "name": "F4",
                    "midi": 65,
                    "time": 28.42103699999997,
                    "velocity": 0.36220472440944884,
                    "duration": 0.1754384999999985
                },
                {
                    "name": "F4",
                    "midi": 65,
                    "time": 28.771913999999967,
                    "velocity": 0.5275590551181102,
                    "duration": 0.7017540000000011
                },
                {
                    "name": "D5",
                    "midi": 74,
                    "time": 28.771913999999967,
                    "velocity": 0.6299212598425197,
                    "duration": 0.7017540000000011
                },
                {
                    "name": "G4",
                    "midi": 67,
                    "time": 29.473667999999968,
                    "velocity": 0.3543307086614173,
                    "duration": 0.7017540000000011
                },
                {
                    "name": "C5",
                    "midi": 72,
                    "time": 29.473667999999968,
                    "velocity": 0.49606299212598426,
                    "duration": 0.1754384999999985
                },
                {
                    "name": "D5",
                    "midi": 74,
                    "time": 29.649106499999967,
                    "velocity": 0.4409448818897638,
                    "duration": 0.058479500000000684
                },
                {
                    "name": "C5",
                    "midi": 72,
                    "time": 29.707585999999967,
                    "velocity": 0.4409448818897638,
                    "duration": 0.058479500000000684
                },
                {
                    "name": "B4",
                    "midi": 71,
                    "time": 29.766065499999968,
                    "velocity": 0.4409448818897638,
                    "duration": 0.058479500000000684
                },
                {
                    "name": "C5",
                    "midi": 72,
                    "time": 29.82454499999997,
                    "velocity": 0.49606299212598426,
                    "duration": 0.2631577500000013
                },
                {
                    "name": "D5",
                    "midi": 74,
                    "time": 30.08770274999997,
                    "velocity": 0.4566929133858268,
                    "duration": 0.08771924999999925
                },
                {
                    "name": "E4",
                    "midi": 64,
                    "time": 30.17542199999997,
                    "velocity": 0.3543307086614173,
                    "duration": 0.7017540000000011
                },
                {
                    "name": "A#4",
                    "midi": 70,
                    "time": 30.17542199999997,
                    "velocity": 0.49606299212598426,
                    "duration": 0.1754384999999985
                },
                {
                    "name": "C5",
                    "midi": 72,
                    "time": 30.350860499999968,
                    "velocity": 0.4409448818897638,
                    "duration": 0.058479500000000684
                },
                {
                    "name": "A#4",
                    "midi": 70,
                    "time": 30.40933999999997,
                    "velocity": 0.4409448818897638,
                    "duration": 0.058479500000000684
                },
                {
                    "name": "A4",
                    "midi": 69,
                    "time": 30.46781949999997,
                    "velocity": 0.4409448818897638,
                    "duration": 0.058479500000000684
                },
                {
                    "name": "A#4",
                    "midi": 70,
                    "time": 30.52629899999997,
                    "velocity": 0.49606299212598426,
                    "duration": 0.2631577500000013
                },
                {
                    "name": "C5",
                    "midi": 72,
                    "time": 30.78945674999997,
                    "velocity": 0.4566929133858268,
                    "duration": 0.08771924999999925
                },
                {
                    "name": "F4",
                    "midi": 65,
                    "time": 30.87717599999997,
                    "velocity": 0.3700787401574803,
                    "duration": 0.7017539999999975
                },
                {
                    "name": "A#4",
                    "midi": 70,
                    "time": 30.87717599999997,
                    "velocity": 0.4409448818897638,
                    "duration": 0.35087700000000055
                },
                {
                    "name": "A4",
                    "midi": 69,
                    "time": 31.22805299999997,
                    "velocity": 0.36220472440944884,
                    "duration": 0.1754384999999985
                },
                {
                    "name": "A4",
                    "midi": 69,
                    "time": 31.92980699999997,
                    "velocity": 0.4330708661417323,
                    "duration": 0.7017540000000011
                },
                {
                    "name": "F5",
                    "midi": 77,
                    "time": 32.01752624999997,
                    "velocity": 0.5039370078740157,
                    "duration": 0.6140347500000018
                },
                {
                    "name": "A5",
                    "midi": 81,
                    "time": 32.10524549999997,
                    "velocity": 0.5433070866141733,
                    "duration": 0.5263155000000026
                },
                {
                    "name": "A4",
                    "midi": 69,
                    "time": 32.63156099999997,
                    "velocity": 0.44881889763779526,
                    "duration": 0.7017540000000011
                },
                {
                    "name": "F5",
                    "midi": 77,
                    "time": 32.71928024999997,
                    "velocity": 0.5354330708661418,
                    "duration": 0.6140347500000018
                },
                {
                    "name": "A5",
                    "midi": 81,
                    "time": 32.80699949999997,
                    "velocity": 0.5748031496062992,
                    "duration": 0.5263155000000026
                },
                {
                    "name": "A4",
                    "midi": 69,
                    "time": 33.33331499999997,
                    "velocity": 0.47244094488188976,
                    "duration": 0.7017540000000011
                },
                {
                    "name": "F5",
                    "midi": 77,
                    "time": 33.42103424999997,
                    "velocity": 0.5590551181102362,
                    "duration": 0.6140347500000018
                },
                {
                    "name": "A5",
                    "midi": 81,
                    "time": 33.50875349999997,
                    "velocity": 0.5984251968503937,
                    "duration": 0.5263155000000026
                },
                {
                    "name": "A4",
                    "midi": 69,
                    "time": 34.03506899999997,
                    "velocity": 0.49606299212598426,
                    "duration": 0.350876999999997
                },
                {
                    "name": "F5",
                    "midi": 77,
                    "time": 34.12278824999997,
                    "velocity": 0.5826771653543307,
                    "duration": 0.26315774999999775
                },
                {
                    "name": "A5",
                    "midi": 81,
                    "time": 34.21050749999997,
                    "velocity": 0.6220472440944882,
                    "duration": 0.1754384999999985
                },
                {
                    "name": "F6",
                    "midi": 89,
                    "time": 34.736822999999966,
                    "velocity": 0.6456692913385826,
                    "duration": 0.7017540000000011
                },
                {
                    "name": "F5",
                    "midi": 77,
                    "time": 34.736822999999966,
                    "velocity": 0.5433070866141733,
                    "duration": 0.7017540000000011
                },
                {
                    "name": "E6",
                    "midi": 88,
                    "time": 35.43857699999997,
                    "velocity": 0.4881889763779528,
                    "duration": 0.1754384999999985
                },
                {
                    "name": "E5",
                    "midi": 76,
                    "time": 35.43857699999997,
                    "velocity": 0.4094488188976378,
                    "duration": 0.1754384999999985
                },
                {
                    "name": "D6",
                    "midi": 86,
                    "time": 36.14033099999997,
                    "velocity": 0.6456692913385826,
                    "duration": 0.7017540000000011
                },
                {
                    "name": "D5",
                    "midi": 74,
                    "time": 36.14033099999997,
                    "velocity": 0.5433070866141733,
                    "duration": 0.7017540000000011
                },
                {
                    "name": "C6",
                    "midi": 84,
                    "time": 36.84208499999997,
                    "velocity": 0.4881889763779528,
                    "duration": 0.1754384999999985
                },
                {
                    "name": "C5",
                    "midi": 72,
                    "time": 36.84208499999997,
                    "velocity": 0.4094488188976378,
                    "duration": 0.1754384999999985
                },
                {
                    "name": "A#5",
                    "midi": 82,
                    "time": 37.54383899999997,
                    "velocity": 0.6456692913385826,
                    "duration": 0.5263155000000026
                },
                {
                    "name": "A#4",
                    "midi": 70,
                    "time": 37.54383899999997,
                    "velocity": 0.5433070866141733,
                    "duration": 0.5263155000000026
                },
                {
                    "name": "A4",
                    "midi": 69,
                    "time": 38.07015449999997,
                    "velocity": 0.4094488188976378,
                    "duration": 0.350876999999997
                },
                {
                    "name": "A5",
                    "midi": 81,
                    "time": 38.07015449999997,
                    "velocity": 0.4881889763779528,
                    "duration": 0.350876999999997
                },
                {
                    "name": "G4",
                    "midi": 67,
                    "time": 38.42103149999997,
                    "velocity": 0.47244094488188976,
                    "duration": 0.350876999999997
                },
                {
                    "name": "G5",
                    "midi": 79,
                    "time": 38.42103149999997,
                    "velocity": 0.47244094488188976,
                    "duration": 0.350876999999997
                },
                {
                    "name": "F4",
                    "midi": 65,
                    "time": 38.77190849999997,
                    "velocity": 0.4094488188976378,
                    "duration": 0.350876999999997
                },
                {
                    "name": "F5",
                    "midi": 77,
                    "time": 38.77190849999997,
                    "velocity": 0.4881889763779528,
                    "duration": 0.350876999999997
                },
                {
                    "name": "G4",
                    "midi": 67,
                    "time": 39.122785499999964,
                    "velocity": 0.4251968503937008,
                    "duration": 0.1754384999999985
                },
                {
                    "name": "G5",
                    "midi": 79,
                    "time": 39.122785499999964,
                    "velocity": 0.4566929133858268,
                    "duration": 0.1754384999999985
                },
                {
                    "name": "G#4",
                    "midi": 68,
                    "time": 39.29822399999996,
                    "velocity": 0.4409448818897638,
                    "duration": 0.350876999999997
                },
                {
                    "name": "G#5",
                    "midi": 80,
                    "time": 39.29822399999996,
                    "velocity": 0.5196850393700787,
                    "duration": 0.350876999999997
                },
                {
                    "name": "A4",
                    "midi": 69,
                    "time": 39.64910099999996,
                    "velocity": 0.4015748031496063,
                    "duration": 0.350876999999997
                },
                {
                    "name": "A5",
                    "midi": 81,
                    "time": 39.64910099999996,
                    "velocity": 0.47244094488188976,
                    "duration": 0.350876999999997
                },
                {
                    "name": "F4",
                    "midi": 65,
                    "time": 39.999977999999956,
                    "velocity": 0.44881889763779526,
                    "duration": 1.052630999999998
                },
                {
                    "name": "A4",
                    "midi": 69,
                    "time": 39.999977999999956,
                    "velocity": 0.44881889763779526,
                    "duration": 0.350876999999997
                },
                {
                    "name": "B4",
                    "midi": 71,
                    "time": 40.35085499999995,
                    "velocity": 0.3858267716535433,
                    "duration": 0.7017540000000011
                },
                {
                    "name": "C5",
                    "midi": 72,
                    "time": 41.052608999999954,
                    "velocity": 0.4881889763779528,
                    "duration": 0.1754384999999985
                },
                {
                    "name": "E4",
                    "midi": 64,
                    "time": 41.052608999999954,
                    "velocity": 0.4094488188976378,
                    "duration": 0.1754384999999985
                },
                {
                    "name": "D4",
                    "midi": 62,
                    "time": 41.40348599999995,
                    "velocity": 0.44881889763779526,
                    "duration": 1.052630999999991
                },
                {
                    "name": "F4",
                    "midi": 65,
                    "time": 41.40348599999995,
                    "velocity": 0.44881889763779526,
                    "duration": 0.350876999999997
                },
                {
                    "name": "G4",
                    "midi": 67,
                    "time": 41.75436299999995,
                    "velocity": 0.3858267716535433,
                    "duration": 0.350876999999997
                },
                {
                    "name": "G#4",
                    "midi": 68,
                    "time": 42.105239999999945,
                    "velocity": 0.41732283464566927,
                    "duration": 0.350876999999997
                },
                {
                    "name": "A4",
                    "midi": 69,
                    "time": 42.45611699999994,
                    "velocity": 0.4881889763779528,
                    "duration": 0.1754384999999985
                },
                {
                    "name": "C4",
                    "midi": 60,
                    "time": 42.45611699999994,
                    "velocity": 0.4094488188976378,
                    "duration": 0.1754384999999985
                },
                {
                    "name": "A#3",
                    "midi": 58,
                    "time": 42.80699399999994,
                    "velocity": 0.44881889763779526,
                    "duration": 0.8771924999999925
                },
                {
                    "name": "D4",
                    "midi": 62,
                    "time": 42.80699399999994,
                    "velocity": 0.44881889763779526,
                    "duration": 0.350876999999997
                },
                {
                    "name": "E4",
                    "midi": 64,
                    "time": 43.157870999999936,
                    "velocity": 0.3858267716535433,
                    "duration": 0.350876999999997
                },
                {
                    "name": "F4",
                    "midi": 65,
                    "time": 43.50874799999993,
                    "velocity": 0.41732283464566927,
                    "duration": 0.1754384999999985
                },
                {
                    "name": "A3",
                    "midi": 57,
                    "time": 43.68418649999993,
                    "velocity": 0.44881889763779526,
                    "duration": 0.350876999999997
                },
                {
                    "name": "G3",
                    "midi": 55,
                    "time": 44.03506349999993,
                    "velocity": 0.4881889763779528,
                    "duration": 0.350876999999997
                },
                {
                    "name": "F3",
                    "midi": 53,
                    "time": 44.385940499999926,
                    "velocity": 0.5275590551181102,
                    "duration": 0.350876999999997
                },
                {
                    "name": "E3",
                    "midi": 52,
                    "time": 44.73681749999992,
                    "velocity": 0.5669291338582677,
                    "duration": 0.1754384999999985
                },
                {
                    "name": "F3",
                    "midi": 53,
                    "time": 44.91225599999992,
                    "velocity": 0.5511811023622047,
                    "duration": 0.08771924999999925
                },
                {
                    "name": "A2",
                    "midi": 45,
                    "time": 44.99997524999992,
                    "velocity": 0.3937007874015748,
                    "duration": 0.08771924999999925
                },
                {
                    "name": "C3",
                    "midi": 48,
                    "time": 45.08769449999992,
                    "velocity": 0.3937007874015748,
                    "duration": 0.08771924999999925
                },
                {
                    "name": "F3",
                    "midi": 53,
                    "time": 45.17541374999992,
                    "velocity": 0.3937007874015748,
                    "duration": 0.08771924999999925
                },
                {
                    "name": "A3",
                    "midi": 57,
                    "time": 45.26313299999992,
                    "velocity": 0.41732283464566927,
                    "duration": 0.08771924999999925
                },
                {
                    "name": "C4",
                    "midi": 60,
                    "time": 45.35085224999992,
                    "velocity": 0.3937007874015748,
                    "duration": 0.08771924999999925
                },
                {
                    "name": "F4",
                    "midi": 65,
                    "time": 45.43857149999992,
                    "velocity": 0.3937007874015748,
                    "duration": 0.08771924999999925
                },
                {
                    "name": "A4",
                    "midi": 69,
                    "time": 45.526290749999916,
                    "velocity": 0.3937007874015748,
                    "duration": 0.08771924999999925
                },
                {
                    "name": "C4",
                    "midi": 60,
                    "time": 45.614009999999915,
                    "velocity": 0.4330708661417323,
                    "duration": 0.08771924999999925
                },
                {
                    "name": "F4",
                    "midi": 65,
                    "time": 45.701729249999914,
                    "velocity": 0.3937007874015748,
                    "duration": 0.08771924999999925
                },
                {
                    "name": "A4",
                    "midi": 69,
                    "time": 45.789448499999914,
                    "velocity": 0.3937007874015748,
                    "duration": 0.08771924999999925
                },
                {
                    "name": "C5",
                    "midi": 72,
                    "time": 45.87716774999991,
                    "velocity": 0.3937007874015748,
                    "duration": 0.08771924999999925
                },
                {
                    "name": "F4",
                    "midi": 65,
                    "time": 45.96488699999991,
                    "velocity": 0.4330708661417323,
                    "duration": 0.08771924999999925
                },
                {
                    "name": "A4",
                    "midi": 69,
                    "time": 46.05260624999991,
                    "velocity": 0.3937007874015748,
                    "duration": 0.08771924999999925
                },
                {
                    "name": "C5",
                    "midi": 72,
                    "time": 46.14032549999991,
                    "velocity": 0.3937007874015748,
                    "duration": 0.08771924999999925
                },
                {
                    "name": "F5",
                    "midi": 77,
                    "time": 46.22804474999991,
                    "velocity": 0.3937007874015748,
                    "duration": 0.08771924999999925
                },
                {
                    "name": "E5",
                    "midi": 76,
                    "time": 46.31576399999991,
                    "velocity": 0.5826771653543307,
                    "duration": 0.08771924999999925
                },
                {
                    "name": "A#5",
                    "midi": 82,
                    "time": 46.40348324999991,
                    "velocity": 0.3937007874015748,
                    "duration": 0.08771924999999925
                },
                {
                    "name": "G5",
                    "midi": 79,
                    "time": 46.49120249999991,
                    "velocity": 0.3937007874015748,
                    "duration": 0.08771924999999925
                },
                {
                    "name": "E5",
                    "midi": 76,
                    "time": 46.57892174999991,
                    "velocity": 0.3937007874015748,
                    "duration": 0.08771924999999925
                },
                {
                    "name": "C5",
                    "midi": 72,
                    "time": 46.666640999999906,
                    "velocity": 0.4251968503937008,
                    "duration": 0.08771924999999925
                },
                {
                    "name": "G5",
                    "midi": 79,
                    "time": 46.754360249999905,
                    "velocity": 0.3937007874015748,
                    "duration": 0.08771924999999925
                },
                {
                    "name": "E5",
                    "midi": 76,
                    "time": 46.842079499999905,
                    "velocity": 0.3937007874015748,
                    "duration": 0.08771924999999925
                },
                {
                    "name": "C5",
                    "midi": 72,
                    "time": 46.929798749999904,
                    "velocity": 0.3937007874015748,
                    "duration": 0.08771924999999925
                },
                {
                    "name": "A#4",
                    "midi": 70,
                    "time": 47.0175179999999,
                    "velocity": 0.4409448818897638,
                    "duration": 0.08771924999999925
                },
                {
                    "name": "E5",
                    "midi": 76,
                    "time": 47.1052372499999,
                    "velocity": 0.3937007874015748,
                    "duration": 0.08771924999999925
                },
                {
                    "name": "C5",
                    "midi": 72,
                    "time": 47.1929564999999,
                    "velocity": 0.3937007874015748,
                    "duration": 0.08771924999999925
                },
                {
                    "name": "A#4",
                    "midi": 70,
                    "time": 47.2806757499999,
                    "velocity": 0.3937007874015748,
                    "duration": 0.08771924999999925
                },
                {
                    "name": "G4",
                    "midi": 67,
                    "time": 47.3683949999999,
                    "velocity": 0.4251968503937008,
                    "duration": 0.08771924999999925
                },
                {
                    "name": "C5",
                    "midi": 72,
                    "time": 47.4561142499999,
                    "velocity": 0.3937007874015748,
                    "duration": 0.08771924999999925
                },
                {
                    "name": "A#4",
                    "midi": 70,
                    "time": 47.5438334999999,
                    "velocity": 0.3937007874015748,
                    "duration": 0.08771924999999925
                },
                {
                    "name": "G4",
                    "midi": 67,
                    "time": 47.6315527499999,
                    "velocity": 0.3937007874015748,
                    "duration": 0.08771924999999925
                },
                {
                    "name": "F4",
                    "midi": 65,
                    "time": 47.7192719999999,
                    "velocity": 0.5511811023622047,
                    "duration": 0.08771924999999925
                },
                {
                    "name": "A3",
                    "midi": 57,
                    "time": 47.806991249999896,
                    "velocity": 0.3937007874015748,
                    "duration": 0.08771924999999925
                },
                {
                    "name": "C4",
                    "midi": 60,
                    "time": 47.894710499999896,
                    "velocity": 0.3937007874015748,
                    "duration": 0.08771924999999925
                },
                {
                    "name": "F4",
                    "midi": 65,
                    "time": 47.982429749999895,
                    "velocity": 0.3937007874015748,
                    "duration": 0.08771924999999925
                },
                {
                    "name": "A4",
                    "midi": 69,
                    "time": 48.070148999999894,
                    "velocity": 0.41732283464566927,
                    "duration": 0.08771924999999925
                },
                {
                    "name": "C5",
                    "midi": 72,
                    "time": 48.15786824999989,
                    "velocity": 0.3937007874015748,
                    "duration": 0.08771924999999925
                },
                {
                    "name": "F5",
                    "midi": 77,
                    "time": 48.24558749999989,
                    "velocity": 0.3937007874015748,
                    "duration": 0.08771924999999925
                },
                {
                    "name": "A5",
                    "midi": 81,
                    "time": 48.33330674999989,
                    "velocity": 0.3937007874015748,
                    "duration": 0.08771924999999925
                },
                {
                    "name": "C5",
                    "midi": 72,
                    "time": 48.42102599999989,
                    "velocity": 0.4330708661417323,
                    "duration": 0.08771924999999925
                },
                {
                    "name": "F5",
                    "midi": 77,
                    "time": 48.50874524999989,
                    "velocity": 0.3937007874015748,
                    "duration": 0.08771924999999925
                },
                {
                    "name": "A5",
                    "midi": 81,
                    "time": 48.59646449999989,
                    "velocity": 0.3937007874015748,
                    "duration": 0.08771924999999925
                },
                {
                    "name": "C6",
                    "midi": 84,
                    "time": 48.68418374999989,
                    "velocity": 0.3937007874015748,
                    "duration": 0.08771924999999925
                },
                {
                    "name": "F5",
                    "midi": 77,
                    "time": 48.77190299999989,
                    "velocity": 0.4330708661417323,
                    "duration": 0.08771924999999925
                },
                {
                    "name": "A5",
                    "midi": 81,
                    "time": 48.85962224999989,
                    "velocity": 0.3937007874015748,
                    "duration": 0.08771924999999925
                },
                {
                    "name": "C6",
                    "midi": 84,
                    "time": 48.94734149999989,
                    "velocity": 0.3937007874015748,
                    "duration": 0.08771924999999925
                },
                {
                    "name": "F6",
                    "midi": 89,
                    "time": 49.035060749999886,
                    "velocity": 0.3937007874015748,
                    "duration": 0.08771924999999925
                },
                {
                    "name": "A#5",
                    "midi": 82,
                    "time": 49.122779999999885,
                    "velocity": 0.5826771653543307,
                    "duration": 0.08771924999999925
                },
                {
                    "name": "E6",
                    "midi": 88,
                    "time": 49.210499249999884,
                    "velocity": 0.3937007874015748,
                    "duration": 0.08771924999999925
                },
                {
                    "name": "C6",
                    "midi": 84,
                    "time": 49.298218499999884,
                    "velocity": 0.3937007874015748,
                    "duration": 0.08771924999999925
                },
                {
                    "name": "A#5",
                    "midi": 82,
                    "time": 49.38593774999988,
                    "velocity": 0.3937007874015748,
                    "duration": 0.08771924999999925
                },
                {
                    "name": "G5",
                    "midi": 79,
                    "time": 49.47365699999988,
                    "velocity": 0.4251968503937008,
                    "duration": 0.08771924999999925
                },
                {
                    "name": "C6",
                    "midi": 84,
                    "time": 49.56137624999988,
                    "velocity": 0.3937007874015748,
                    "duration": 0.08771924999999925
                },
                {
                    "name": "A#5",
                    "midi": 82,
                    "time": 49.64909549999988,
                    "velocity": 0.3937007874015748,
                    "duration": 0.08771924999999925
                },
                {
                    "name": "G5",
                    "midi": 79,
                    "time": 49.73681474999988,
                    "velocity": 0.3937007874015748,
                    "duration": 0.08771924999999925
                },
                {
                    "name": "E5",
                    "midi": 76,
                    "time": 49.82453399999988,
                    "velocity": 0.4409448818897638,
                    "duration": 0.08771924999999925
                },
                {
                    "name": "A#5",
                    "midi": 82,
                    "time": 49.91225324999988,
                    "velocity": 0.3937007874015748,
                    "duration": 0.08771924999999925
                },
                {
                    "name": "G5",
                    "midi": 79,
                    "time": 49.99997249999988,
                    "velocity": 0.3937007874015748,
                    "duration": 0.08771924999999925
                },
                {
                    "name": "E5",
                    "midi": 76,
                    "time": 50.08769174999988,
                    "velocity": 0.3937007874015748,
                    "duration": 0.08771924999999925
                },
                {
                    "name": "A#4",
                    "midi": 70,
                    "time": 50.175410999999876,
                    "velocity": 0.4251968503937008,
                    "duration": 0.08771924999999925
                },
                {
                    "name": "G5",
                    "midi": 79,
                    "time": 50.263130249999875,
                    "velocity": 0.3937007874015748,
                    "duration": 0.08771924999999925
                },
                {
                    "name": "E5",
                    "midi": 76,
                    "time": 50.350849499999875,
                    "velocity": 0.3937007874015748,
                    "duration": 0.08771924999999925
                },
                {
                    "name": "A#4",
                    "midi": 70,
                    "time": 50.438568749999874,
                    "velocity": 0.3937007874015748,
                    "duration": 0.08771924999999925
                },
                {
                    "name": "F4",
                    "midi": 65,
                    "time": 50.52628799999987,
                    "velocity": 0.6062992125984252,
                    "duration": 0.08771924999999925
                },
                {
                    "name": "A3",
                    "midi": 57,
                    "time": 50.61400724999987,
                    "velocity": 0.4330708661417323,
                    "duration": 0.08771924999999925
                },
                {
                    "name": "C4",
                    "midi": 60,
                    "time": 50.70172649999987,
                    "velocity": 0.4330708661417323,
                    "duration": 0.08771924999999925
                },
                {
                    "name": "F4",
                    "midi": 65,
                    "time": 50.78944574999987,
                    "velocity": 0.4330708661417323,
                    "duration": 0.08771924999999925
                },
                {
                    "name": "A4",
                    "midi": 69,
                    "time": 50.87716499999987,
                    "velocity": 0.4566929133858268,
                    "duration": 0.08771924999999925
                },
                {
                    "name": "C5",
                    "midi": 72,
                    "time": 50.96488424999987,
                    "velocity": 0.4330708661417323,
                    "duration": 0.08771924999999925
                },
                {
                    "name": "F5",
                    "midi": 77,
                    "time": 51.05260349999987,
                    "velocity": 0.4330708661417323,
                    "duration": 0.08771924999999925
                },
                {
                    "name": "A5",
                    "midi": 81,
                    "time": 51.14032274999987,
                    "velocity": 0.4330708661417323,
                    "duration": 0.08771924999999925
                },
                {
                    "name": "C5",
                    "midi": 72,
                    "time": 51.22804199999987,
                    "velocity": 0.48031496062992124,
                    "duration": 0.08771924999999925
                },
                {
                    "name": "F5",
                    "midi": 77,
                    "time": 51.315761249999866,
                    "velocity": 0.4330708661417323,
                    "duration": 0.08771924999999925
                },
                {
                    "name": "A5",
                    "midi": 81,
                    "time": 51.403480499999866,
                    "velocity": 0.4409448818897638,
                    "duration": 0.08771924999999925
                },
                {
                    "name": "C6",
                    "midi": 84,
                    "time": 51.491199749999865,
                    "velocity": 0.4409448818897638,
                    "duration": 0.08771924999999925
                },
                {
                    "name": "F5",
                    "midi": 77,
                    "time": 51.578918999999864,
                    "velocity": 0.48031496062992124,
                    "duration": 0.08771924999999925
                },
                {
                    "name": "A5",
                    "midi": 81,
                    "time": 51.66663824999986,
                    "velocity": 0.4409448818897638,
                    "duration": 0.08771924999999925
                },
                {
                    "name": "C6",
                    "midi": 84,
                    "time": 51.75435749999986,
                    "velocity": 0.4409448818897638,
                    "duration": 0.08771924999999925
                },
                {
                    "name": "F6",
                    "midi": 89,
                    "time": 51.84207674999986,
                    "velocity": 0.4409448818897638,
                    "duration": 0.08771924999999925
                },
                {
                    "name": "A3",
                    "midi": 57,
                    "time": 52.01751524999986,
                    "velocity": 0.4881889763779528,
                    "duration": 0.08771924999999925
                },
                {
                    "name": "C4",
                    "midi": 60,
                    "time": 52.10523449999986,
                    "velocity": 0.4881889763779528,
                    "duration": 0.08771924999999925
                },
                {
                    "name": "F4",
                    "midi": 65,
                    "time": 52.19295374999986,
                    "velocity": 0.4881889763779528,
                    "duration": 0.08771924999999925
                },
                {
                    "name": "A4",
                    "midi": 69,
                    "time": 52.28067299999986,
                    "velocity": 0.5196850393700787,
                    "duration": 0.08771924999999925
                },
                {
                    "name": "C5",
                    "midi": 72,
                    "time": 52.36839224999986,
                    "velocity": 0.4881889763779528,
                    "duration": 0.08771924999999925
                },
                {
                    "name": "F5",
                    "midi": 77,
                    "time": 52.45611149999986,
                    "velocity": 0.4881889763779528,
                    "duration": 0.08771924999999925
                },
                {
                    "name": "A5",
                    "midi": 81,
                    "time": 52.543830749999856,
                    "velocity": 0.4881889763779528,
                    "duration": 0.08771924999999925
                },
                {
                    "name": "C5",
                    "midi": 72,
                    "time": 52.631549999999855,
                    "velocity": 0.5433070866141733,
                    "duration": 0.08771924999999925
                },
                {
                    "name": "F5",
                    "midi": 77,
                    "time": 52.719269249999854,
                    "velocity": 0.49606299212598426,
                    "duration": 0.08771924999999925
                },
                {
                    "name": "A5",
                    "midi": 81,
                    "time": 52.806988499999854,
                    "velocity": 0.49606299212598426,
                    "duration": 0.08771924999999925
                },
                {
                    "name": "C6",
                    "midi": 84,
                    "time": 52.89470774999985,
                    "velocity": 0.49606299212598426,
                    "duration": 0.08771924999999925
                },
                {
                    "name": "F5",
                    "midi": 77,
                    "time": 52.98242699999985,
                    "velocity": 0.5433070866141733,
                    "duration": 0.08771924999999925
                },
                {
                    "name": "A5",
                    "midi": 81,
                    "time": 53.07014624999985,
                    "velocity": 0.49606299212598426,
                    "duration": 0.08771924999999925
                },
                {
                    "name": "C6",
                    "midi": 84,
                    "time": 53.15786549999985,
                    "velocity": 0.49606299212598426,
                    "duration": 0.08771924999999925
                },
                {
                    "name": "F6",
                    "midi": 89,
                    "time": 53.24558474999985,
                    "velocity": 0.49606299212598426,
                    "duration": 0.08771924999999925
                },
                {
                    "name": "A#3",
                    "midi": 58,
                    "time": 53.42102324999985,
                    "velocity": 0.49606299212598426,
                    "duration": 0.08771924999999925
                },
                {
                    "name": "C#4",
                    "midi": 61,
                    "time": 53.50874249999985,
                    "velocity": 0.5511811023622047,
                    "duration": 0.08771924999999925
                },
                {
                    "name": "F4",
                    "midi": 65,
                    "time": 53.59646174999985,
                    "velocity": 0.5511811023622047,
                    "duration": 0.08771924999999925
                },
                {
                    "name": "A#4",
                    "midi": 70,
                    "time": 53.684180999999846,
                    "velocity": 0.5748031496062992,
                    "duration": 0.08771924999999925
                },
                {
                    "name": "C#5",
                    "midi": 73,
                    "time": 53.771900249999845,
                    "velocity": 0.5511811023622047,
                    "duration": 0.08771924999999925
                },
                {
                    "name": "F5",
                    "midi": 77,
                    "time": 53.859619499999845,
                    "velocity": 0.5511811023622047,
                    "duration": 0.08771924999999925
                },
                {
                    "name": "A#5",
                    "midi": 82,
                    "time": 53.947338749999844,
                    "velocity": 0.5511811023622047,
                    "duration": 0.08771924999999925
                },
                {
                    "name": "C#5",
                    "midi": 73,
                    "time": 54.03505799999984,
                    "velocity": 0.6062992125984252,
                    "duration": 0.08771924999999925
                },
                {
                    "name": "F5",
                    "midi": 77,
                    "time": 54.12277724999984,
                    "velocity": 0.5511811023622047,
                    "duration": 0.08771924999999925
                },
                {
                    "name": "A#5",
                    "midi": 82,
                    "time": 54.21049649999984,
                    "velocity": 0.5511811023622047,
                    "duration": 0.08771924999999925
                },
                {
                    "name": "C#6",
                    "midi": 85,
                    "time": 54.29821574999984,
                    "velocity": 0.5511811023622047,
                    "duration": 0.08771924999999925
                },
                {
                    "name": "F5",
                    "midi": 77,
                    "time": 54.38593499999984,
                    "velocity": 0.6141732283464567,
                    "duration": 0.08771924999999925
                },
                {
                    "name": "A#5",
                    "midi": 82,
                    "time": 54.47365424999984,
                    "velocity": 0.5590551181102362,
                    "duration": 0.08771924999999925
                },
                {
                    "name": "C#6",
                    "midi": 85,
                    "time": 54.56137349999984,
                    "velocity": 0.5590551181102362,
                    "duration": 0.08771924999999925
                },
                {
                    "name": "F6",
                    "midi": 89,
                    "time": 54.64909274999984,
                    "velocity": 0.5590551181102362,
                    "duration": 0.08771924999999925
                },
                {
                    "name": "E5",
                    "midi": 76,
                    "time": 54.73681199999984,
                    "velocity": 0.6220472440944882,
                    "duration": 0.08771924999999925
                },
                {
                    "name": "E6",
                    "midi": 88,
                    "time": 54.824531249999836,
                    "velocity": 0.5511811023622047,
                    "duration": 0.08771924999999925
                },
                {
                    "name": "C#6",
                    "midi": 85,
                    "time": 54.912250499999836,
                    "velocity": 0.5511811023622047,
                    "duration": 0.08771924999999925
                },
                {
                    "name": "A#5",
                    "midi": 82,
                    "time": 54.999969749999835,
                    "velocity": 0.5511811023622047,
                    "duration": 0.08771924999999925
                },
                {
                    "name": "E5",
                    "midi": 76,
                    "time": 55.087688999999834,
                    "velocity": 0.6299212598425197,
                    "duration": 0.08771924999999925
                },
                {
                    "name": "C#5",
                    "midi": 73,
                    "time": 55.17540824999983,
                    "velocity": 0.5354330708661418,
                    "duration": 0.08771924999999925
                },
                {
                    "name": "A#4",
                    "midi": 70,
                    "time": 55.26312749999983,
                    "velocity": 0.5511811023622047,
                    "duration": 0.08771924999999925
                },
                {
                    "name": "E4",
                    "midi": 64,
                    "time": 55.35084674999983,
                    "velocity": 0.5511811023622047,
                    "duration": 0.08771924999999925
                },
                {
                    "name": "C#4",
                    "midi": 61,
                    "time": 55.43856599999983,
                    "velocity": 0.6220472440944882,
                    "duration": 0.08771924999999925
                },
                {
                    "name": "D#4",
                    "midi": 63,
                    "time": 55.52628524999983,
                    "velocity": 0.5354330708661418,
                    "duration": 0.08771924999999925
                },
                {
                    "name": "C#4",
                    "midi": 61,
                    "time": 55.61400449999983,
                    "velocity": 0.5433070866141733,
                    "duration": 0.08771924999999925
                },
                {
                    "name": "C4",
                    "midi": 60,
                    "time": 55.70172374999983,
                    "velocity": 0.5433070866141733,
                    "duration": 0.08771924999999925
                },
                {
                    "name": "A#3",
                    "midi": 58,
                    "time": 55.78944299999983,
                    "velocity": 0.6141732283464567,
                    "duration": 0.08771924999999925
                },
                {
                    "name": "C#4",
                    "midi": 61,
                    "time": 55.87716224999983,
                    "velocity": 0.5669291338582677,
                    "duration": 0.08771924999999925
                },
                {
                    "name": "C4",
                    "midi": 60,
                    "time": 55.96488149999983,
                    "velocity": 0.5984251968503937,
                    "duration": 0.08771924999999925
                },
                {
                    "name": "A#3",
                    "midi": 58,
                    "time": 56.052600749999826,
                    "velocity": 0.6377952755905512,
                    "duration": 0.08771924999999925
                },
                {
                    "name": "A3",
                    "midi": 57,
                    "time": 56.140319999999825,
                    "velocity": 0.6771653543307087,
                    "duration": 0.350876999999997
                },
                {
                    "name": "C4",
                    "midi": 60,
                    "time": 58.42102049999982,
                    "velocity": 0.31496062992125984,
                    "duration": 0.1754384999999985
                },
                {
                    "name": "D4",
                    "midi": 62,
                    "time": 58.59645899999982,
                    "velocity": 0.3543307086614173,
                    "duration": 0.1754384999999985
                },
                {
                    "name": "C4",
                    "midi": 60,
                    "time": 58.77189749999982,
                    "velocity": 0.3228346456692913,
                    "duration": 0.1754384999999985
                },
                {
                    "name": "A#3",
                    "midi": 58,
                    "time": 58.947335999999815,
                    "velocity": 0.3543307086614173,
                    "duration": 0.1754384999999985
                },
                {
                    "name": "A3",
                    "midi": 57,
                    "time": 59.122774499999814,
                    "velocity": 0.31496062992125984,
                    "duration": 0.1754384999999985
                },
                {
                    "name": "G3",
                    "midi": 55,
                    "time": 59.29821299999981,
                    "velocity": 0.33858267716535434,
                    "duration": 0.1754384999999985
                },
                {
                    "name": "F3",
                    "midi": 53,
                    "time": 59.47365149999981,
                    "velocity": 0.31496062992125984,
                    "duration": 0.13157887500000243
                },
                {
                    "name": "F3",
                    "midi": 53,
                    "time": 59.649089999999816,
                    "velocity": 0.3543307086614173,
                    "duration": 0.350876999999997
                },
                {
                    "name": "D#4",
                    "midi": 63,
                    "time": 61.22803649999981,
                    "velocity": 0.2992125984251969,
                    "duration": 0.05847949999999713
                },
                {
                    "name": "F4",
                    "midi": 65,
                    "time": 61.28651599999981,
                    "velocity": 0.31496062992125984,
                    "duration": 0.05847949999999713
                },
                {
                    "name": "D#4",
                    "midi": 63,
                    "time": 61.344995499999804,
                    "velocity": 0.2992125984251969,
                    "duration": 0.05847949999999713
                },
                {
                    "name": "F4",
                    "midi": 65,
                    "time": 61.4034749999998,
                    "velocity": 0.3543307086614173,
                    "duration": 0.1754384999999985
                },
                {
                    "name": "D#4",
                    "midi": 63,
                    "time": 61.5789134999998,
                    "velocity": 0.3228346456692913,
                    "duration": 0.1754384999999985
                },
                {
                    "name": "D4",
                    "midi": 62,
                    "time": 61.7543519999998,
                    "velocity": 0.3543307086614173,
                    "duration": 0.1754384999999985
                },
                {
                    "name": "C4",
                    "midi": 60,
                    "time": 61.9297904999998,
                    "velocity": 0.31496062992125984,
                    "duration": 0.1754384999999985
                },
                {
                    "name": "A#3",
                    "midi": 58,
                    "time": 62.105228999999795,
                    "velocity": 0.33858267716535434,
                    "duration": 0.1754384999999985
                },
                {
                    "name": "A3",
                    "midi": 57,
                    "time": 62.280667499999794,
                    "velocity": 0.31496062992125984,
                    "duration": 0.13157887500000243
                },
                {
                    "name": "A3",
                    "midi": 57,
                    "time": 62.4561059999998,
                    "velocity": 0.3543307086614173,
                    "duration": 0.350876999999997
                },
                {
                    "name": "C5",
                    "midi": 72,
                    "time": 62.982421499999795,
                    "velocity": 0.3464566929133858,
                    "duration": 0.1754384999999985
                },
                {
                    "name": "D5",
                    "midi": 74,
                    "time": 63.15785999999979,
                    "velocity": 0.3858267716535433,
                    "duration": 0.1754384999999985
                },
                {
                    "name": "C5",
                    "midi": 72,
                    "time": 63.33329849999979,
                    "velocity": 0.3543307086614173,
                    "duration": 0.1754384999999985
                },
                {
                    "name": "A#4",
                    "midi": 70,
                    "time": 63.50873699999979,
                    "velocity": 0.3858267716535433,
                    "duration": 0.1754384999999985
                },
                {
                    "name": "A4",
                    "midi": 69,
                    "time": 63.68417549999979,
                    "velocity": 0.3464566929133858,
                    "duration": 0.1754384999999985
                },
                {
                    "name": "G4",
                    "midi": 67,
                    "time": 63.85961399999979,
                    "velocity": 0.3700787401574803,
                    "duration": 0.1754385000000056
                },
                {
                    "name": "F4",
                    "midi": 65,
                    "time": 64.0350524999998,
                    "velocity": 0.3464566929133858,
                    "duration": 0.13157887500000243
                },
                {
                    "name": "D#5",
                    "midi": 75,
                    "time": 64.38592949999979,
                    "velocity": 0.3464566929133858,
                    "duration": 0.1754384999999985
                },
                {
                    "name": "F5",
                    "midi": 77,
                    "time": 64.56136799999979,
                    "velocity": 0.3858267716535433,
                    "duration": 0.1754384999999985
                },
                {
                    "name": "D#5",
                    "midi": 75,
                    "time": 64.73680649999979,
                    "velocity": 0.3543307086614173,
                    "duration": 0.1754384999999985
                },
                {
                    "name": "D5",
                    "midi": 74,
                    "time": 64.91224499999979,
                    "velocity": 0.3858267716535433,
                    "duration": 0.1754384999999985
                },
                {
                    "name": "C5",
                    "midi": 72,
                    "time": 65.08768349999978,
                    "velocity": 0.3464566929133858,
                    "duration": 0.1754384999999985
                },
                {
                    "name": "A#4",
                    "midi": 70,
                    "time": 65.26312199999978,
                    "velocity": 0.3700787401574803,
                    "duration": 0.1754384999999985
                },
                {
                    "name": "A4",
                    "midi": 69,
                    "time": 65.43856049999978,
                    "velocity": 0.3464566929133858,
                    "duration": 0.1754384999999985
                },
                {
                    "name": "F5",
                    "midi": 77,
                    "time": 65.61399899999978,
                    "velocity": 0.3858267716535433,
                    "duration": 0.1754384999999985
                },
                {
                    "name": "D#5",
                    "midi": 75,
                    "time": 65.78943749999978,
                    "velocity": 0.3700787401574803,
                    "duration": 0.1754384999999985
                },
                {
                    "name": "D5",
                    "midi": 74,
                    "time": 65.96487599999978,
                    "velocity": 0.3700787401574803,
                    "duration": 0.1754384999999985
                },
                {
                    "name": "C5",
                    "midi": 72,
                    "time": 66.14031449999977,
                    "velocity": 0.3700787401574803,
                    "duration": 0.1754384999999985
                },
                {
                    "name": "A#4",
                    "midi": 70,
                    "time": 66.31575299999977,
                    "velocity": 0.3464566929133858,
                    "duration": 0.1754384999999985
                },
                {
                    "name": "A4",
                    "midi": 69,
                    "time": 66.49119149999977,
                    "velocity": 0.3464566929133858,
                    "duration": 0.1754384999999985
                },
                {
                    "name": "F5",
                    "midi": 77,
                    "time": 66.66662999999977,
                    "velocity": 0.41732283464566927,
                    "duration": 0.1754384999999985
                },
                {
                    "name": "D#5",
                    "midi": 75,
                    "time": 66.84206849999977,
                    "velocity": 0.3858267716535433,
                    "duration": 0.1754384999999985
                },
                {
                    "name": "D5",
                    "midi": 74,
                    "time": 67.01750699999977,
                    "velocity": 0.36220472440944884,
                    "duration": 0.1754384999999985
                },
                {
                    "name": "C5",
                    "midi": 72,
                    "time": 67.19294549999977,
                    "velocity": 0.36220472440944884,
                    "duration": 0.1754384999999985
                },
                {
                    "name": "A#4",
                    "midi": 70,
                    "time": 67.36838399999976,
                    "velocity": 0.3858267716535433,
                    "duration": 0.11695899999999426
                },
                {
                    "name": "A4",
                    "midi": 69,
                    "time": 67.48534299999976,
                    "velocity": 0.3858267716535433,
                    "duration": 0.11695899999999426
                },
                {
                    "name": "F5",
                    "midi": 77,
                    "time": 67.60230199999975,
                    "velocity": 0.4251968503937008,
                    "duration": 0.11695899999999426
                },
                {
                    "name": "D#5",
                    "midi": 75,
                    "time": 67.71926099999975,
                    "velocity": 0.3858267716535433,
                    "duration": 0.11695899999999426
                },
                {
                    "name": "D5",
                    "midi": 74,
                    "time": 67.83621999999974,
                    "velocity": 0.3858267716535433,
                    "duration": 0.11695899999999426
                },
                {
                    "name": "C5",
                    "midi": 72,
                    "time": 67.95317899999974,
                    "velocity": 0.3858267716535433,
                    "duration": 0.11695899999999426
                },
                {
                    "name": "A#4",
                    "midi": 70,
                    "time": 68.07013799999973,
                    "velocity": 0.3858267716535433,
                    "duration": 0.08771925000000635
                },
                {
                    "name": "A4",
                    "midi": 69,
                    "time": 68.15785724999974,
                    "velocity": 0.3858267716535433,
                    "duration": 0.08771925000000635
                },
                {
                    "name": "F5",
                    "midi": 77,
                    "time": 68.24557649999974,
                    "velocity": 0.4566929133858268,
                    "duration": 0.08771925000000635
                },
                {
                    "name": "D#5",
                    "midi": 75,
                    "time": 68.33329574999975,
                    "velocity": 0.3937007874015748,
                    "duration": 0.08771925000000635
                },
                {
                    "name": "D5",
                    "midi": 74,
                    "time": 68.42101499999976,
                    "velocity": 0.3937007874015748,
                    "duration": 0.08771925000000635
                },
                {
                    "name": "C5",
                    "midi": 72,
                    "time": 68.50873424999976,
                    "velocity": 0.3937007874015748,
                    "duration": 0.08771925000000635
                },
                {
                    "name": "A#4",
                    "midi": 70,
                    "time": 68.59645349999977,
                    "velocity": 0.3937007874015748,
                    "duration": 0.08771925000000635
                },
                {
                    "name": "A4",
                    "midi": 69,
                    "time": 68.68417274999977,
                    "velocity": 0.3937007874015748,
                    "duration": 0.08771925000000635
                },
                {
                    "name": "F5",
                    "midi": 77,
                    "time": 68.77189199999978,
                    "velocity": 0.4645669291338583,
                    "duration": 0.08771925000000635
                },
                {
                    "name": "D#5",
                    "midi": 75,
                    "time": 68.85961124999979,
                    "velocity": 0.4094488188976378,
                    "duration": 0.08771925000000635
                },
                {
                    "name": "D5",
                    "midi": 74,
                    "time": 68.9473304999998,
                    "velocity": 0.4094488188976378,
                    "duration": 0.08771925000000635
                },
                {
                    "name": "C5",
                    "midi": 72,
                    "time": 69.0350497499998,
                    "velocity": 0.4094488188976378,
                    "duration": 0.08771925000000635
                },
                {
                    "name": "A#4",
                    "midi": 70,
                    "time": 69.1227689999998,
                    "velocity": 0.4094488188976378,
                    "duration": 0.08771925000000635
                },
                {
                    "name": "A4",
                    "midi": 69,
                    "time": 69.21048824999981,
                    "velocity": 0.4094488188976378,
                    "duration": 0.08771925000000635
                },
                {
                    "name": "F#5",
                    "midi": 78,
                    "time": 69.29820749999982,
                    "velocity": 0.48031496062992124,
                    "duration": 0.08771925000000635
                },
                {
                    "name": "F5",
                    "midi": 77,
                    "time": 69.38592674999983,
                    "velocity": 0.4330708661417323,
                    "duration": 0.08771925000000635
                },
                {
                    "name": "D#5",
                    "midi": 75,
                    "time": 69.47364599999983,
                    "velocity": 0.4409448818897638,
                    "duration": 0.07017539999999656
                },
                {
                    "name": "D5",
                    "midi": 74,
                    "time": 69.54382139999983,
                    "velocity": 0.44881889763779526,
                    "duration": 0.07017539999999656
                },
                {
                    "name": "C5",
                    "midi": 72,
                    "time": 69.61399679999982,
                    "velocity": 0.4566929133858268,
                    "duration": 0.07017539999999656
                },
                {
                    "name": "A#4",
                    "midi": 70,
                    "time": 69.68417219999982,
                    "velocity": 0.4566929133858268,
                    "duration": 0.07017539999999656
                },
                {
                    "name": "A4",
                    "midi": 69,
                    "time": 69.75434759999982,
                    "velocity": 0.4645669291338583,
                    "duration": 0.07017539999999656
                },
                {
                    "name": "G5",
                    "midi": 79,
                    "time": 69.82452299999981,
                    "velocity": 0.3937007874015748,
                    "duration": 0.1754384999999985
                },
                {
                    "name": "F5",
                    "midi": 77,
                    "time": 69.99996149999981,
                    "velocity": 0.36220472440944884,
                    "duration": 0.1754384999999985
                },
                {
                    "name": "D#5",
                    "midi": 75,
                    "time": 70.17539999999981,
                    "velocity": 0.3937007874015748,
                    "duration": 0.1754384999999985
                },
                {
                    "name": "D5",
                    "midi": 74,
                    "time": 70.35083849999981,
                    "velocity": 0.36220472440944884,
                    "duration": 0.1754384999999985
                },
                {
                    "name": "C5",
                    "midi": 72,
                    "time": 70.52627699999981,
                    "velocity": 0.36220472440944884,
                    "duration": 0.1754384999999985
                },
                {
                    "name": "A#4",
                    "midi": 70,
                    "time": 70.7017154999998,
                    "velocity": 0.36220472440944884,
                    "duration": 0.1754384999999985
                },
                {
                    "name": "A4",
                    "midi": 69,
                    "time": 70.8771539999998,
                    "velocity": 0.3937007874015748,
                    "duration": 0.350876999999997
                },
                {
                    "name": "A#4",
                    "midi": 70,
                    "time": 71.2280309999998,
                    "velocity": 0.3700787401574803,
                    "duration": 0.350876999999997
                },
                {
                    "name": "B4",
                    "midi": 71,
                    "time": 71.5789079999998,
                    "velocity": 0.41732283464566927,
                    "duration": 0.350876999999997
                },
                {
                    "name": "C5",
                    "midi": 72,
                    "time": 71.9297849999998,
                    "velocity": 0.3858267716535433,
                    "duration": 0.350876999999997
                },
                {
                    "name": "F#5",
                    "midi": 78,
                    "time": 72.45610049999979,
                    "velocity": 0.3543307086614173,
                    "duration": 0.1754384999999985
                },
                {
                    "name": "A5",
                    "midi": 81,
                    "time": 72.63153899999979,
                    "velocity": 0.3937007874015748,
                    "duration": 0.1754384999999985
                },
                {
                    "name": "G5",
                    "midi": 79,
                    "time": 72.80697749999979,
                    "velocity": 0.36220472440944884,
                    "duration": 0.1754384999999985
                },
                {
                    "name": "F5",
                    "midi": 77,
                    "time": 72.98241599999979,
                    "velocity": 0.3937007874015748,
                    "duration": 0.1754384999999985
                },
                {
                    "name": "D#5",
                    "midi": 75,
                    "time": 73.15785449999979,
                    "velocity": 0.3464566929133858,
                    "duration": 0.1754384999999985
                },
                {
                    "name": "D5",
                    "midi": 74,
                    "time": 73.33329299999978,
                    "velocity": 0.36220472440944884,
                    "duration": 0.1754384999999985
                },
                {
                    "name": "C5",
                    "midi": 72,
                    "time": 73.50873149999978,
                    "velocity": 0.3464566929133858,
                    "duration": 0.1754384999999985
                },
                {
                    "name": "A4",
                    "midi": 69,
                    "time": 73.68416999999978,
                    "velocity": 0.3937007874015748,
                    "duration": 0.1754384999999985
                },
                {
                    "name": "A#4",
                    "midi": 70,
                    "time": 73.85960849999978,
                    "velocity": 0.3228346456692913,
                    "duration": 0.1754384999999985
                },
                {
                    "name": "B4",
                    "midi": 71,
                    "time": 74.03504699999978,
                    "velocity": 0.3700787401574803,
                    "duration": 0.1754384999999985
                },
                {
                    "name": "C5",
                    "midi": 72,
                    "time": 74.21048549999978,
                    "velocity": 0.3464566929133858,
                    "duration": 0.1754384999999985
                },
                {
                    "name": "C#5",
                    "midi": 73,
                    "time": 74.38592399999978,
                    "velocity": 0.4566929133858268,
                    "duration": 0.350876999999997
                },
                {
                    "name": "D5",
                    "midi": 74,
                    "time": 74.73680099999977,
                    "velocity": 0.41732283464566927,
                    "duration": 0.5263154999999955
                },
                {
                    "name": "F5",
                    "midi": 77,
                    "time": 75.26311649999977,
                    "velocity": 0.4409448818897638,
                    "duration": 0.1754384999999985
                },
                {
                    "name": "G5",
                    "midi": 79,
                    "time": 75.43855499999977,
                    "velocity": 0.5039370078740157,
                    "duration": 0.1754384999999985
                },
                {
                    "name": "D5",
                    "midi": 74,
                    "time": 75.61399349999976,
                    "velocity": 0.4566929133858268,
                    "duration": 0.1754384999999985
                },
                {
                    "name": "F5",
                    "midi": 77,
                    "time": 75.78943199999976,
                    "velocity": 0.4881889763779528,
                    "duration": 0.1754384999999985
                },
                {
                    "name": "D#5",
                    "midi": 75,
                    "time": 75.96487049999976,
                    "velocity": 0.4566929133858268,
                    "duration": 0.1754384999999985
                },
                {
                    "name": "F5",
                    "midi": 77,
                    "time": 76.14030899999976,
                    "velocity": 0.5039370078740157,
                    "duration": 0.1754384999999985
                },
                {
                    "name": "C5",
                    "midi": 72,
                    "time": 76.31574749999976,
                    "velocity": 0.4566929133858268,
                    "duration": 0.1754384999999985
                },
                {
                    "name": "D#5",
                    "midi": 75,
                    "time": 76.49118599999976,
                    "velocity": 0.5039370078740157,
                    "duration": 0.1754384999999985
                },
                {
                    "name": "D5",
                    "midi": 74,
                    "time": 76.66662449999976,
                    "velocity": 0.4645669291338583,
                    "duration": 0.1754384999999985
                },
                {
                    "name": "G5",
                    "midi": 79,
                    "time": 76.84206299999975,
                    "velocity": 0.5275590551181102,
                    "duration": 0.1754384999999985
                },
                {
                    "name": "D5",
                    "midi": 74,
                    "time": 77.01750149999975,
                    "velocity": 0.4645669291338583,
                    "duration": 0.1754384999999985
                },
                {
                    "name": "F5",
                    "midi": 77,
                    "time": 77.19293999999975,
                    "velocity": 0.5590551181102362,
                    "duration": 0.1754384999999985
                },
                {
                    "name": "D#5",
                    "midi": 75,
                    "time": 77.36837849999975,
                    "velocity": 0.5039370078740157,
                    "duration": 0.1754384999999985
                },
                {
                    "name": "F5",
                    "midi": 77,
                    "time": 77.54381699999975,
                    "velocity": 0.5590551181102362,
                    "duration": 0.1754384999999985
                },
                {
                    "name": "C5",
                    "midi": 72,
                    "time": 77.71925549999975,
                    "velocity": 0.4881889763779528,
                    "duration": 0.1754384999999985
                },
                {
                    "name": "D5",
                    "midi": 74,
                    "time": 77.89469399999975,
                    "velocity": 0.5511811023622047,
                    "duration": 0.1754384999999985
                },
                {
                    "name": "D#5",
                    "midi": 75,
                    "time": 78.07013249999974,
                    "velocity": 0.47244094488188976,
                    "duration": 0.1754384999999985
                },
                {
                    "name": "E5",
                    "midi": 76,
                    "time": 78.24557099999974,
                    "velocity": 0.4881889763779528,
                    "duration": 0.1754384999999985
                },
                {
                    "name": "F5",
                    "midi": 77,
                    "time": 78.42100949999974,
                    "velocity": 0.5039370078740157,
                    "duration": 0.1754384999999985
                },
                {
                    "name": "F#5",
                    "midi": 78,
                    "time": 78.59644799999974,
                    "velocity": 0.5511811023622047,
                    "duration": 0.1754384999999985
                },
                {
                    "name": "G5",
                    "midi": 79,
                    "time": 78.77188649999974,
                    "velocity": 0.5196850393700787,
                    "duration": 0.1754384999999985
                },
                {
                    "name": "A5",
                    "midi": 81,
                    "time": 78.94732499999974,
                    "velocity": 0.5433070866141733,
                    "duration": 0.1754384999999985
                },
                {
                    "name": "A#5",
                    "midi": 82,
                    "time": 79.12276349999973,
                    "velocity": 0.5511811023622047,
                    "duration": 0.1754384999999985
                },
                {
                    "name": "C6",
                    "midi": 84,
                    "time": 79.29820199999973,
                    "velocity": 0.5590551181102362,
                    "duration": 0.1754384999999985
                },
                {
                    "name": "C#6",
                    "midi": 85,
                    "time": 79.47364049999973,
                    "velocity": 0.5984251968503937,
                    "duration": 0.1754384999999985
                },
                {
                    "name": "D6",
                    "midi": 86,
                    "time": 79.64907899999973,
                    "velocity": 0.6377952755905512,
                    "duration": 0.1754384999999985
                },
                {
                    "name": "E5",
                    "midi": 76,
                    "time": 79.82451749999973,
                    "velocity": 0.5039370078740157,
                    "duration": 0.1754384999999985
                },
                {
                    "name": "G5",
                    "midi": 79,
                    "time": 79.99995599999973,
                    "velocity": 0.4566929133858268,
                    "duration": 0.350876999999997
                },
                {
                    "name": "F5",
                    "midi": 77,
                    "time": 80.35083299999972,
                    "velocity": 0.41732283464566927,
                    "duration": 0.350876999999997
                },
                {
                    "name": "F4",
                    "midi": 65,
                    "time": 80.87714849999972,
                    "velocity": 0.2992125984251969,
                    "duration": 0.1754384999999985
                },
                {
                    "name": "F5",
                    "midi": 77,
                    "time": 80.87714849999972,
                    "velocity": 0.3543307086614173,
                    "duration": 0.1754384999999985
                },
                {
                    "name": "G4",
                    "midi": 67,
                    "time": 81.05258699999972,
                    "velocity": 0.33070866141732286,
                    "duration": 0.1754384999999985
                },
                {
                    "name": "G5",
                    "midi": 79,
                    "time": 81.05258699999972,
                    "velocity": 0.3937007874015748,
                    "duration": 0.1754384999999985
                },
                {
                    "name": "F4",
                    "midi": 65,
                    "time": 81.22802549999972,
                    "velocity": 0.30708661417322836,
                    "duration": 0.1754384999999985
                },
                {
                    "name": "F5",
                    "midi": 77,
                    "time": 81.22802549999972,
                    "velocity": 0.36220472440944884,
                    "duration": 0.1754384999999985
                },
                {
                    "name": "D#4",
                    "midi": 63,
                    "time": 81.40346399999972,
                    "velocity": 0.33070866141732286,
                    "duration": 0.1754384999999985
                },
                {
                    "name": "D#5",
                    "midi": 75,
                    "time": 81.40346399999972,
                    "velocity": 0.3937007874015748,
                    "duration": 0.1754384999999985
                },
                {
                    "name": "D4",
                    "midi": 62,
                    "time": 81.57890249999971,
                    "velocity": 0.30708661417322836,
                    "duration": 0.1754384999999985
                },
                {
                    "name": "D5",
                    "midi": 74,
                    "time": 81.57890249999971,
                    "velocity": 0.36220472440944884,
                    "duration": 0.1754384999999985
                },
                {
                    "name": "C4",
                    "midi": 60,
                    "time": 81.75434099999971,
                    "velocity": 0.30708661417322836,
                    "duration": 0.1754384999999985
                },
                {
                    "name": "C5",
                    "midi": 72,
                    "time": 81.75434099999971,
                    "velocity": 0.36220472440944884,
                    "duration": 0.1754384999999985
                },
                {
                    "name": "A#3",
                    "midi": 58,
                    "time": 81.92977949999971,
                    "velocity": 0.30708661417322836,
                    "duration": 0.1754384999999985
                },
                {
                    "name": "A#4",
                    "midi": 70,
                    "time": 81.92977949999971,
                    "velocity": 0.36220472440944884,
                    "duration": 0.1754384999999985
                },
                {
                    "name": "A3",
                    "midi": 57,
                    "time": 82.10521799999971,
                    "velocity": 0.33070866141732286,
                    "duration": 0.350876999999997
                },
                {
                    "name": "A4",
                    "midi": 69,
                    "time": 82.10521799999971,
                    "velocity": 0.33070866141732286,
                    "duration": 0.350876999999997
                },
                {
                    "name": "A#3",
                    "midi": 58,
                    "time": 82.4560949999997,
                    "velocity": 0.30708661417322836,
                    "duration": 0.350876999999997
                },
                {
                    "name": "A#4",
                    "midi": 70,
                    "time": 82.4560949999997,
                    "velocity": 0.3700787401574803,
                    "duration": 0.350876999999997
                },
                {
                    "name": "B3",
                    "midi": 59,
                    "time": 82.8069719999997,
                    "velocity": 0.3543307086614173,
                    "duration": 0.350876999999997
                },
                {
                    "name": "B4",
                    "midi": 71,
                    "time": 82.8069719999997,
                    "velocity": 0.41732283464566927,
                    "duration": 0.350876999999997
                },
                {
                    "name": "C4",
                    "midi": 60,
                    "time": 83.1578489999997,
                    "velocity": 0.3228346456692913,
                    "duration": 0.5263154999999955
                },
                {
                    "name": "C5",
                    "midi": 72,
                    "time": 83.1578489999997,
                    "velocity": 0.3858267716535433,
                    "duration": 0.5263154999999955
                },
                {
                    "name": "F#4",
                    "midi": 66,
                    "time": 83.6841644999997,
                    "velocity": 0.2992125984251969,
                    "duration": 0.1754384999999985
                },
                {
                    "name": "F#5",
                    "midi": 78,
                    "time": 83.6841644999997,
                    "velocity": 0.3543307086614173,
                    "duration": 0.1754384999999985
                },
                {
                    "name": "A4",
                    "midi": 69,
                    "time": 83.8596029999997,
                    "velocity": 0.33070866141732286,
                    "duration": 0.1754384999999985
                },
                {
                    "name": "A5",
                    "midi": 81,
                    "time": 83.8596029999997,
                    "velocity": 0.3937007874015748,
                    "duration": 0.1754384999999985
                },
                {
                    "name": "G4",
                    "midi": 67,
                    "time": 84.03504149999969,
                    "velocity": 0.30708661417322836,
                    "duration": 0.1754384999999985
                },
                {
                    "name": "G5",
                    "midi": 79,
                    "time": 84.03504149999969,
                    "velocity": 0.36220472440944884,
                    "duration": 0.1754384999999985
                },
                {
                    "name": "F4",
                    "midi": 65,
                    "time": 84.21047999999969,
                    "velocity": 0.33070866141732286,
                    "duration": 0.1754384999999985
                },
                {
                    "name": "F5",
                    "midi": 77,
                    "time": 84.21047999999969,
                    "velocity": 0.3937007874015748,
                    "duration": 0.1754384999999985
                },
                {
                    "name": "D#4",
                    "midi": 63,
                    "time": 84.38591849999969,
                    "velocity": 0.33858267716535434,
                    "duration": 0.1754384999999985
                },
                {
                    "name": "D#5",
                    "midi": 75,
                    "time": 84.38591849999969,
                    "velocity": 0.33858267716535434,
                    "duration": 0.1754384999999985
                },
                {
                    "name": "D4",
                    "midi": 62,
                    "time": 84.56135699999969,
                    "velocity": 0.30708661417322836,
                    "duration": 0.1754384999999985
                },
                {
                    "name": "D5",
                    "midi": 74,
                    "time": 84.56135699999969,
                    "velocity": 0.36220472440944884,
                    "duration": 0.1754384999999985
                },
                {
                    "name": "C4",
                    "midi": 60,
                    "time": 84.73679549999969,
                    "velocity": 0.33858267716535434,
                    "duration": 0.1754384999999985
                },
                {
                    "name": "C5",
                    "midi": 72,
                    "time": 84.73679549999969,
                    "velocity": 0.33858267716535434,
                    "duration": 0.1754384999999985
                },
                {
                    "name": "A3",
                    "midi": 57,
                    "time": 84.91223399999969,
                    "velocity": 0.33070866141732286,
                    "duration": 0.1754384999999985
                },
                {
                    "name": "A4",
                    "midi": 69,
                    "time": 84.91223399999969,
                    "velocity": 0.3937007874015748,
                    "duration": 0.1754384999999985
                },
                {
                    "name": "A#3",
                    "midi": 58,
                    "time": 85.08767249999968,
                    "velocity": 0.3464566929133858,
                    "duration": 0.1754384999999985
                },
                {
                    "name": "A#4",
                    "midi": 70,
                    "time": 85.08767249999968,
                    "velocity": 0.3464566929133858,
                    "duration": 0.1754384999999985
                },
                {
                    "name": "B3",
                    "midi": 59,
                    "time": 85.26311099999968,
                    "velocity": 0.30708661417322836,
                    "duration": 0.1754384999999985
                },
                {
                    "name": "B4",
                    "midi": 71,
                    "time": 85.26311099999968,
                    "velocity": 0.3700787401574803,
                    "duration": 0.1754384999999985
                },
                {
                    "name": "C4",
                    "midi": 60,
                    "time": 85.43854949999968,
                    "velocity": 0.3543307086614173,
                    "duration": 0.1754384999999985
                },
                {
                    "name": "C5",
                    "midi": 72,
                    "time": 85.43854949999968,
                    "velocity": 0.3543307086614173,
                    "duration": 0.1754384999999985
                },
                {
                    "name": "C#4",
                    "midi": 61,
                    "time": 85.61398799999968,
                    "velocity": 0.3543307086614173,
                    "duration": 0.350876999999997
                },
                {
                    "name": "C#5",
                    "midi": 73,
                    "time": 85.61398799999968,
                    "velocity": 0.41732283464566927,
                    "duration": 0.350876999999997
                },
                {
                    "name": "D4",
                    "midi": 62,
                    "time": 85.96486499999968,
                    "velocity": 0.3228346456692913,
                    "duration": 0.5263154999999955
                },
                {
                    "name": "D5",
                    "midi": 74,
                    "time": 85.96486499999968,
                    "velocity": 0.3858267716535433,
                    "duration": 0.5263154999999955
                },
                {
                    "name": "F5",
                    "midi": 77,
                    "time": 86.49118049999967,
                    "velocity": 0.4409448818897638,
                    "duration": 0.1754384999999985
                },
                {
                    "name": "G#4",
                    "midi": 68,
                    "time": 86.66661899999967,
                    "velocity": 0.3543307086614173,
                    "duration": 0.701753999999994
                },
                {
                    "name": "G5",
                    "midi": 79,
                    "time": 86.66661899999967,
                    "velocity": 0.49606299212598426,
                    "duration": 0.1754384999999985
                },
                {
                    "name": "D5",
                    "midi": 74,
                    "time": 86.84205749999967,
                    "velocity": 0.44881889763779526,
                    "duration": 0.1754384999999985
                },
                {
                    "name": "F5",
                    "midi": 77,
                    "time": 87.01749599999967,
                    "velocity": 0.4881889763779528,
                    "duration": 0.1754384999999985
                },
                {
                    "name": "D#5",
                    "midi": 75,
                    "time": 87.19293449999967,
                    "velocity": 0.4566929133858268,
                    "duration": 0.1754384999999985
                },
                {
                    "name": "A4",
                    "midi": 69,
                    "time": 87.36837299999966,
                    "velocity": 0.3543307086614173,
                    "duration": 0.350876999999997
                },
                {
                    "name": "F5",
                    "midi": 77,
                    "time": 87.36837299999966,
                    "velocity": 0.49606299212598426,
                    "duration": 0.1754384999999985
                },
                {
                    "name": "C5",
                    "midi": 72,
                    "time": 87.54381149999966,
                    "velocity": 0.4566929133858268,
                    "duration": 0.1754384999999985
                },
                {
                    "name": "A#4",
                    "midi": 70,
                    "time": 87.71924999999966,
                    "velocity": 0.36220472440944884,
                    "duration": 0.350876999999997
                },
                {
                    "name": "D#5",
                    "midi": 75,
                    "time": 87.71924999999966,
                    "velocity": 0.5039370078740157,
                    "duration": 0.1754384999999985
                },
                {
                    "name": "D5",
                    "midi": 74,
                    "time": 87.89468849999966,
                    "velocity": 0.4645669291338583,
                    "duration": 0.1754384999999985
                },
                {
                    "name": "G#4",
                    "midi": 68,
                    "time": 88.07012699999966,
                    "velocity": 0.36220472440944884,
                    "duration": 0.701753999999994
                },
                {
                    "name": "G5",
                    "midi": 79,
                    "time": 88.07012699999966,
                    "velocity": 0.5275590551181102,
                    "duration": 0.1754384999999985
                },
                {
                    "name": "D5",
                    "midi": 74,
                    "time": 88.24556549999966,
                    "velocity": 0.4645669291338583,
                    "duration": 0.1754384999999985
                },
                {
                    "name": "F5",
                    "midi": 77,
                    "time": 88.42100399999966,
                    "velocity": 0.5590551181102362,
                    "duration": 0.1754384999999985
                },
                {
                    "name": "D#5",
                    "midi": 75,
                    "time": 88.59644249999965,
                    "velocity": 0.5039370078740157,
                    "duration": 0.1754384999999985
                },
                {
                    "name": "A4",
                    "midi": 69,
                    "time": 88.77188099999965,
                    "velocity": 0.3700787401574803,
                    "duration": 0.350876999999997
                },
                {
                    "name": "F5",
                    "midi": 77,
                    "time": 88.77188099999965,
                    "velocity": 0.5590551181102362,
                    "duration": 0.1754384999999985
                },
                {
                    "name": "C5",
                    "midi": 72,
                    "time": 88.94731949999965,
                    "velocity": 0.49606299212598426,
                    "duration": 0.1754384999999985
                },
                {
                    "name": "A#4",
                    "midi": 70,
                    "time": 89.12275799999965,
                    "velocity": 0.4645669291338583,
                    "duration": 0.1754384999999985
                },
                {
                    "name": "D#5",
                    "midi": 75,
                    "time": 89.12275799999965,
                    "velocity": 0.5590551181102362,
                    "duration": 0.1754384999999985
                },
                {
                    "name": "D4",
                    "midi": 62,
                    "time": 89.29819649999965,
                    "velocity": 0.41732283464566927,
                    "duration": 0.1754384999999985
                },
                {
                    "name": "D5",
                    "midi": 74,
                    "time": 89.29819649999965,
                    "velocity": 0.49606299212598426,
                    "duration": 0.1754384999999985
                },
                {
                    "name": "D#4",
                    "midi": 63,
                    "time": 89.47363499999965,
                    "velocity": 0.4409448818897638,
                    "duration": 0.1754384999999985
                },
                {
                    "name": "D#5",
                    "midi": 75,
                    "time": 89.47363499999965,
                    "velocity": 0.5275590551181102,
                    "duration": 0.1754384999999985
                },
                {
                    "name": "F4",
                    "midi": 65,
                    "time": 89.64907349999964,
                    "velocity": 0.47244094488188976,
                    "duration": 0.1754384999999985
                },
                {
                    "name": "F5",
                    "midi": 77,
                    "time": 89.64907349999964,
                    "velocity": 0.5590551181102362,
                    "duration": 0.1754384999999985
                },
                {
                    "name": "F#4",
                    "midi": 66,
                    "time": 89.82451199999964,
                    "velocity": 0.5039370078740157,
                    "duration": 0.1754384999999985
                },
                {
                    "name": "F#5",
                    "midi": 78,
                    "time": 89.82451199999964,
                    "velocity": 0.5984251968503937,
                    "duration": 0.1754384999999985
                },
                {
                    "name": "G4",
                    "midi": 67,
                    "time": 89.99995049999964,
                    "velocity": 0.48031496062992124,
                    "duration": 0.1754384999999985
                },
                {
                    "name": "G5",
                    "midi": 79,
                    "time": 89.99995049999964,
                    "velocity": 0.5669291338582677,
                    "duration": 0.1754384999999985
                },
                {
                    "name": "A4",
                    "midi": 69,
                    "time": 90.17538899999964,
                    "velocity": 0.5039370078740157,
                    "duration": 0.08771925000000635
                },
                {
                    "name": "A5",
                    "midi": 81,
                    "time": 90.17538899999964,
                    "velocity": 0.5984251968503937,
                    "duration": 0.08771925000000635
                },
                {
                    "name": "A#4",
                    "midi": 70,
                    "time": 90.35082749999965,
                    "velocity": 0.5275590551181102,
                    "duration": 0.08771925000000635
                },
                {
                    "name": "A#5",
                    "midi": 82,
                    "time": 90.35082749999965,
                    "velocity": 0.6299212598425197,
                    "duration": 0.08771925000000635
                },
                {
                    "name": "A#3",
                    "midi": 58,
                    "time": 90.52626599999967,
                    "velocity": 0.5590551181102362,
                    "duration": 0.350876999999997
                },
                {
                    "name": "A#4",
                    "midi": 70,
                    "time": 90.52626599999967,
                    "velocity": 0.5590551181102362,
                    "duration": 0.350876999999997
                },
                {
                    "name": "C4",
                    "midi": 60,
                    "time": 90.87714299999966,
                    "velocity": 0.4566929133858268,
                    "duration": 0.350876999999997
                },
                {
                    "name": "C5",
                    "midi": 72,
                    "time": 90.87714299999966,
                    "velocity": 0.5433070866141733,
                    "duration": 0.350876999999997
                },
                {
                    "name": "C#4",
                    "midi": 61,
                    "time": 91.22801999999966,
                    "velocity": 0.3228346456692913,
                    "duration": 0.350876999999997
                },
                {
                    "name": "C#5",
                    "midi": 73,
                    "time": 91.22801999999966,
                    "velocity": 0.3858267716535433,
                    "duration": 0.350876999999997
                },
                {
                    "name": "D4",
                    "midi": 62,
                    "time": 91.57889699999966,
                    "velocity": 0.2992125984251969,
                    "duration": 0.43859625000000335
                },
                {
                    "name": "D5",
                    "midi": 74,
                    "time": 91.57889699999966,
                    "velocity": 0.3543307086614173,
                    "duration": 0.43859625000000335
                },
                {
                    "name": "A#4",
                    "midi": 70,
                    "time": 92.01749324999966,
                    "velocity": 0.4645669291338583,
                    "duration": 0.08771925000000635
                },
                {
                    "name": "A4",
                    "midi": 69,
                    "time": 92.10521249999967,
                    "velocity": 0.48031496062992124,
                    "duration": 0.08771925000000635
                },
                {
                    "name": "A#4",
                    "midi": 70,
                    "time": 92.19293174999967,
                    "velocity": 0.4881889763779528,
                    "duration": 0.08771925000000635
                },
                {
                    "name": "B4",
                    "midi": 71,
                    "time": 92.28065099999968,
                    "velocity": 0.4881889763779528,
                    "duration": 0.08771925000000635
                },
                {
                    "name": "C5",
                    "midi": 72,
                    "time": 92.36837024999969,
                    "velocity": 0.5039370078740157,
                    "duration": 0.08771925000000635
                },
                {
                    "name": "C#5",
                    "midi": 73,
                    "time": 92.45608949999969,
                    "velocity": 0.5118110236220472,
                    "duration": 0.08771925000000635
                },
                {
                    "name": "D5",
                    "midi": 74,
                    "time": 92.5438087499997,
                    "velocity": 0.5275590551181102,
                    "duration": 0.08771925000000635
                },
                {
                    "name": "D#5",
                    "midi": 75,
                    "time": 92.6315279999997,
                    "velocity": 0.5433070866141733,
                    "duration": 0.08771925000000635
                },
                {
                    "name": "E5",
                    "midi": 76,
                    "time": 92.71924724999971,
                    "velocity": 0.5511811023622047,
                    "duration": 0.08771925000000635
                },
                {
                    "name": "F5",
                    "midi": 77,
                    "time": 92.80696649999972,
                    "velocity": 0.5590551181102362,
                    "duration": 0.08771925000000635
                },
                {
                    "name": "F#5",
                    "midi": 78,
                    "time": 92.89468574999972,
                    "velocity": 0.5748031496062992,
                    "duration": 0.08771925000000635
                },
                {
                    "name": "G5",
                    "midi": 79,
                    "time": 92.98240499999973,
                    "velocity": 0.5826771653543307,
                    "duration": 0.08771925000000635
                },
                {
                    "name": "G#5",
                    "midi": 80,
                    "time": 93.07012424999974,
                    "velocity": 0.5984251968503937,
                    "duration": 0.08771925000000635
                },
                {
                    "name": "A5",
                    "midi": 81,
                    "time": 93.15784349999974,
                    "velocity": 0.6141732283464567,
                    "duration": 0.08771925000000635
                },
                {
                    "name": "A#5",
                    "midi": 82,
                    "time": 93.24556274999975,
                    "velocity": 0.6141732283464567,
                    "duration": 0.08771925000000635
                },
                {
                    "name": "A#4",
                    "midi": 70,
                    "time": 93.33328199999976,
                    "velocity": 0.41732283464566927,
                    "duration": 0.07017539999999656
                },
                {
                    "name": "C5",
                    "midi": 72,
                    "time": 93.40345739999975,
                    "velocity": 0.3779527559055118,
                    "duration": 0.07017539999999656
                },
                {
                    "name": "A#4",
                    "midi": 70,
                    "time": 93.47363279999975,
                    "velocity": 0.3543307086614173,
                    "duration": 0.07017539999999656
                },
                {
                    "name": "A4",
                    "midi": 69,
                    "time": 93.54380819999975,
                    "velocity": 0.3543307086614173,
                    "duration": 0.07017539999999656
                },
                {
                    "name": "A#4",
                    "midi": 70,
                    "time": 93.61398359999974,
                    "velocity": 0.3543307086614173,
                    "duration": 0.07017539999999656
                },
                {
                    "name": "D#4",
                    "midi": 63,
                    "time": 93.68415899999974,
                    "velocity": 0.33070866141732286,
                    "duration": 0.3508770000000112
                },
                {
                    "name": "D5",
                    "midi": 74,
                    "time": 93.68415899999974,
                    "velocity": 0.4094488188976378,
                    "duration": 0.26315775000000485
                },
                {
                    "name": "C5",
                    "midi": 72,
                    "time": 93.94731674999974,
                    "velocity": 0.3228346456692913,
                    "duration": 0.08771925000000635
                },
                {
                    "name": "D4",
                    "midi": 62,
                    "time": 94.03503599999975,
                    "velocity": 0.33070866141732286,
                    "duration": 0.350876999999997
                },
                {
                    "name": "A#4",
                    "midi": 70,
                    "time": 94.03503599999975,
                    "velocity": 0.3937007874015748,
                    "duration": 0.350876999999997
                },
                {
                    "name": "F3",
                    "midi": 53,
                    "time": 94.73678999999974,
                    "velocity": 0.6220472440944882,
                    "duration": 0.701753999999994
                },
                {
                    "name": "C#4",
                    "midi": 61,
                    "time": 94.73678999999974,
                    "velocity": 0.7559055118110236,
                    "duration": 0.701753999999994
                },
                {
                    "name": "F#3",
                    "midi": 54,
                    "time": 95.43854399999974,
                    "velocity": 0.6692913385826772,
                    "duration": 0.7017540000000082
                },
                {
                    "name": "B3",
                    "midi": 59,
                    "time": 95.43854399999974,
                    "velocity": 0.7559055118110236,
                    "duration": 0.5263154999999955
                },
                {
                    "name": "C#4",
                    "midi": 61,
                    "time": 95.96485949999973,
                    "velocity": 0.5511811023622047,
                    "duration": 0.08771925000000635
                },
                {
                    "name": "D#4",
                    "midi": 63,
                    "time": 96.05257874999974,
                    "velocity": 0.5590551181102362,
                    "duration": 0.08771925000000635
                },
                {
                    "name": "F#3",
                    "midi": 54,
                    "time": 96.14029799999975,
                    "velocity": 0.6377952755905512,
                    "duration": 0.350876999999997
                },
                {
                    "name": "D#3",
                    "midi": 51,
                    "time": 96.49117499999974,
                    "velocity": 0.5039370078740157,
                    "duration": 0.350876999999997
                },
                {
                    "name": "A3",
                    "midi": 57,
                    "time": 96.49117499999974,
                    "velocity": 0.6062992125984252,
                    "duration": 0.350876999999997
                },
                {
                    "name": "C#3",
                    "midi": 49,
                    "time": 96.84205199999974,
                    "velocity": 0.5275590551181102,
                    "duration": 0.701753999999994
                },
                {
                    "name": "A#3",
                    "midi": 58,
                    "time": 96.84205199999974,
                    "velocity": 0.6220472440944882,
                    "duration": 0.350876999999997
                },
                {
                    "name": "F3",
                    "midi": 53,
                    "time": 97.19292899999974,
                    "velocity": 0.5118110236220472,
                    "duration": 0.1754384999999985
                },
                {
                    "name": "F3",
                    "midi": 53,
                    "time": 97.54380599999973,
                    "velocity": 0.6220472440944882,
                    "duration": 0.701753999999994
                },
                {
                    "name": "C#4",
                    "midi": 61,
                    "time": 97.54380599999973,
                    "velocity": 0.7559055118110236,
                    "duration": 0.701753999999994
                },
                {
                    "name": "G3",
                    "midi": 55,
                    "time": 98.24555999999973,
                    "velocity": 0.7559055118110236,
                    "duration": 0.701753999999994
                },
                {
                    "name": "C4",
                    "midi": 60,
                    "time": 98.24555999999973,
                    "velocity": 0.7559055118110236,
                    "duration": 0.701753999999994
                },
                {
                    "name": "C4",
                    "midi": 60,
                    "time": 98.94731399999972,
                    "velocity": 0.7559055118110236,
                    "duration": 0.701753999999994
                },
                {
                    "name": "A#4",
                    "midi": 70,
                    "time": 98.94731399999972,
                    "velocity": 0.7559055118110236,
                    "duration": 0.701753999999994
                },
                {
                    "name": "C4",
                    "midi": 60,
                    "time": 99.64906799999972,
                    "velocity": 0.6377952755905512,
                    "duration": 0.1754384999999985
                },
                {
                    "name": "G#4",
                    "midi": 68,
                    "time": 99.64906799999972,
                    "velocity": 0.7559055118110236,
                    "duration": 0.1754384999999985
                },
                {
                    "name": "F4",
                    "midi": 65,
                    "time": 99.99994499999971,
                    "velocity": 0.6771653543307087,
                    "duration": 0.701753999999994
                },
                {
                    "name": "G#4",
                    "midi": 68,
                    "time": 99.99994499999971,
                    "velocity": 0.6771653543307087,
                    "duration": 0.701753999999994
                },
                {
                    "name": "F5",
                    "midi": 77,
                    "time": 99.99994499999971,
                    "velocity": 0.8031496062992126,
                    "duration": 0.701753999999994
                },
                {
                    "name": "E4",
                    "midi": 64,
                    "time": 100.7016989999997,
                    "velocity": 0.6377952755905512,
                    "duration": 0.1754384999999985
                },
                {
                    "name": "G4",
                    "midi": 67,
                    "time": 100.7016989999997,
                    "velocity": 0.6377952755905512,
                    "duration": 0.1754384999999985
                },
                {
                    "name": "E5",
                    "midi": 76,
                    "time": 100.7016989999997,
                    "velocity": 0.7559055118110236,
                    "duration": 0.1754384999999985
                },
                {
                    "name": "F4",
                    "midi": 65,
                    "time": 101.0525759999997,
                    "velocity": 0.6771653543307087,
                    "duration": 0.1754384999999985
                },
                {
                    "name": "G#4",
                    "midi": 68,
                    "time": 101.0525759999997,
                    "velocity": 0.6771653543307087,
                    "duration": 0.1754384999999985
                },
                {
                    "name": "F5",
                    "midi": 77,
                    "time": 101.0525759999997,
                    "velocity": 0.8031496062992126,
                    "duration": 0.1754384999999985
                },
                {
                    "name": "C4",
                    "midi": 60,
                    "time": 101.2280144999997,
                    "velocity": 0.28346456692913385,
                    "duration": 0.09649117500001125
                },
                {
                    "name": "A#3",
                    "midi": 58,
                    "time": 101.31573374999971,
                    "velocity": 0.2440944881889764,
                    "duration": 0.08771925000000635
                },
                {
                    "name": "C4",
                    "midi": 60,
                    "time": 101.40345299999971,
                    "velocity": 0.28346456692913385,
                    "duration": 0.09649117500001125
                },
                {
                    "name": "G#3",
                    "midi": 56,
                    "time": 101.49117224999972,
                    "velocity": 0.25196850393700787,
                    "duration": 0.08771925000000635
                },
                {
                    "name": "C4",
                    "midi": 60,
                    "time": 101.57889149999973,
                    "velocity": 0.28346456692913385,
                    "duration": 0.09649117500001125
                },
                {
                    "name": "G3",
                    "midi": 55,
                    "time": 101.66661074999973,
                    "velocity": 0.2440944881889764,
                    "duration": 0.08771925000000635
                },
                {
                    "name": "C4",
                    "midi": 60,
                    "time": 101.75432999999974,
                    "velocity": 0.33070866141732286,
                    "duration": 0.09649117500001125
                },
                {
                    "name": "F3",
                    "midi": 53,
                    "time": 101.84204924999975,
                    "velocity": 0.2440944881889764,
                    "duration": 0.08771925000000635
                },
                {
                    "name": "C4",
                    "midi": 60,
                    "time": 101.92976849999975,
                    "velocity": 0.28346456692913385,
                    "duration": 0.09649117500001125
                },
                {
                    "name": "E3",
                    "midi": 52,
                    "time": 102.01748774999976,
                    "velocity": 0.2440944881889764,
                    "duration": 0.08771925000000635
                },
                {
                    "name": "C4",
                    "midi": 60,
                    "time": 102.10520699999977,
                    "velocity": 0.28346456692913385,
                    "duration": 0.09649117500001125
                },
                {
                    "name": "F3",
                    "midi": 53,
                    "time": 102.19292624999977,
                    "velocity": 0.23622047244094488,
                    "duration": 0.08771925000000635
                },
                {
                    "name": "C4",
                    "midi": 60,
                    "time": 102.28064549999978,
                    "velocity": 0.28346456692913385,
                    "duration": 0.09649117500001125
                },
                {
                    "name": "G3",
                    "midi": 55,
                    "time": 102.36836474999978,
                    "velocity": 0.2440944881889764,
                    "duration": 0.08771925000000635
                },
                {
                    "name": "C4",
                    "midi": 60,
                    "time": 102.45608399999979,
                    "velocity": 0.3543307086614173,
                    "duration": 0.09649117500001125
                },
                {
                    "name": "G#3",
                    "midi": 56,
                    "time": 102.5438032499998,
                    "velocity": 0.2440944881889764,
                    "duration": 0.08771925000000635
                },
                {
                    "name": "F4",
                    "midi": 65,
                    "time": 102.6315224999998,
                    "velocity": 0.28346456692913385,
                    "duration": 0.09649117500001125
                },
                {
                    "name": "D#4",
                    "midi": 63,
                    "time": 102.71924174999981,
                    "velocity": 0.2440944881889764,
                    "duration": 0.08771925000000635
                },
                {
                    "name": "F4",
                    "midi": 65,
                    "time": 102.80696099999982,
                    "velocity": 0.28346456692913385,
                    "duration": 0.09649117500001125
                },
                {
                    "name": "C#4",
                    "midi": 61,
                    "time": 102.89468024999982,
                    "velocity": 0.25196850393700787,
                    "duration": 0.08771925000000635
                },
                {
                    "name": "F4",
                    "midi": 65,
                    "time": 102.98239949999983,
                    "velocity": 0.28346456692913385,
                    "duration": 0.09649117500001125
                },
                {
                    "name": "C4",
                    "midi": 60,
                    "time": 103.07011874999984,
                    "velocity": 0.2440944881889764,
                    "duration": 0.08771925000000635
                },
                {
                    "name": "F4",
                    "midi": 65,
                    "time": 103.15783799999984,
                    "velocity": 0.33070866141732286,
                    "duration": 0.09649117500001125
                },
                {
                    "name": "A#3",
                    "midi": 58,
                    "time": 103.24555724999985,
                    "velocity": 0.2440944881889764,
                    "duration": 0.08771925000000635
                },
                {
                    "name": "F4",
                    "midi": 65,
                    "time": 103.33327649999985,
                    "velocity": 0.28346456692913385,
                    "duration": 0.09649117500001125
                },
                {
                    "name": "A3",
                    "midi": 57,
                    "time": 103.42099574999986,
                    "velocity": 0.2440944881889764,
                    "duration": 0.08771925000000635
                },
                {
                    "name": "F4",
                    "midi": 65,
                    "time": 103.50871499999987,
                    "velocity": 0.28346456692913385,
                    "duration": 0.09649117500001125
                },
                {
                    "name": "A#3",
                    "midi": 58,
                    "time": 103.59643424999987,
                    "velocity": 0.23622047244094488,
                    "duration": 0.08771925000000635
                },
                {
                    "name": "F4",
                    "midi": 65,
                    "time": 103.68415349999988,
                    "velocity": 0.28346456692913385,
                    "duration": 0.09649117500001125
                },
                {
                    "name": "C4",
                    "midi": 60,
                    "time": 103.77187274999989,
                    "velocity": 0.2440944881889764,
                    "duration": 0.08771925000000635
                },
                {
                    "name": "F4",
                    "midi": 65,
                    "time": 103.85959199999989,
                    "velocity": 0.3858267716535433,
                    "duration": 0.09649117500001125
                },
                {
                    "name": "C#4",
                    "midi": 61,
                    "time": 103.9473112499999,
                    "velocity": 0.2677165354330709,
                    "duration": 0.08771925000000635
                },
                {
                    "name": "F4",
                    "midi": 65,
                    "time": 104.0350304999999,
                    "velocity": 0.30708661417322836,
                    "duration": 0.09649117500001125
                },
                {
                    "name": "C#4",
                    "midi": 61,
                    "time": 104.12274974999991,
                    "velocity": 0.2677165354330709,
                    "duration": 0.08771925000000635
                },
                {
                    "name": "G4",
                    "midi": 67,
                    "time": 104.21046899999992,
                    "velocity": 0.30708661417322836,
                    "duration": 0.09649117500001125
                },
                {
                    "name": "F4",
                    "midi": 65,
                    "time": 104.29818824999992,
                    "velocity": 0.2755905511811024,
                    "duration": 0.08771925000000635
                },
                {
                    "name": "G4",
                    "midi": 67,
                    "time": 104.38590749999993,
                    "velocity": 0.30708661417322836,
                    "duration": 0.09649117500001125
                },
                {
                    "name": "F4",
                    "midi": 65,
                    "time": 104.47362674999994,
                    "velocity": 0.2677165354330709,
                    "duration": 0.08771925000000635
                },
                {
                    "name": "G#4",
                    "midi": 68,
                    "time": 104.56134599999994,
                    "velocity": 0.36220472440944884,
                    "duration": 0.09649117500001125
                },
                {
                    "name": "F4",
                    "midi": 65,
                    "time": 104.64906524999995,
                    "velocity": 0.2677165354330709,
                    "duration": 0.08771925000000635
                },
                {
                    "name": "G#4",
                    "midi": 68,
                    "time": 104.73678449999996,
                    "velocity": 0.30708661417322836,
                    "duration": 0.09649117500001125
                },
                {
                    "name": "F4",
                    "midi": 65,
                    "time": 104.82450374999996,
                    "velocity": 0.2677165354330709,
                    "duration": 0.08771925000000635
                },
                {
                    "name": "A#4",
                    "midi": 70,
                    "time": 104.91222299999997,
                    "velocity": 0.30708661417322836,
                    "duration": 0.09649117500001125
                },
                {
                    "name": "E4",
                    "midi": 64,
                    "time": 104.99994224999998,
                    "velocity": 0.25984251968503935,
                    "duration": 0.08771925000000635
                },
                {
                    "name": "A#4",
                    "midi": 70,
                    "time": 105.08766149999998,
                    "velocity": 0.30708661417322836,
                    "duration": 0.09649117500001125
                },
                {
                    "name": "E4",
                    "midi": 64,
                    "time": 105.17538074999999,
                    "velocity": 0.2677165354330709,
                    "duration": 0.08771925000000635
                },
                {
                    "name": "F4",
                    "midi": 65,
                    "time": 105.2631,
                    "velocity": 0.6141732283464567,
                    "duration": 0.1754384999999985
                },
                {
                    "name": "C4",
                    "midi": 60,
                    "time": 105.43853849999999,
                    "velocity": 0.28346456692913385,
                    "duration": 0.08771925000000635
                },
                {
                    "name": "C5",
                    "midi": 72,
                    "time": 105.43853849999999,
                    "velocity": 0.33070866141732286,
                    "duration": 0.09649117500001125
                },
                {
                    "name": "A#4",
                    "midi": 70,
                    "time": 105.52625775,
                    "velocity": 0.29133858267716534,
                    "duration": 0.08771925000000635
                },
                {
                    "name": "C4",
                    "midi": 60,
                    "time": 105.613977,
                    "velocity": 0.28346456692913385,
                    "duration": 0.08771925000000635
                },
                {
                    "name": "C5",
                    "midi": 72,
                    "time": 105.613977,
                    "velocity": 0.33858267716535434,
                    "duration": 0.09649117500001125
                },
                {
                    "name": "G#4",
                    "midi": 68,
                    "time": 105.70169625000001,
                    "velocity": 0.30708661417322836,
                    "duration": 0.08771925000000635
                },
                {
                    "name": "C4",
                    "midi": 60,
                    "time": 105.78941550000002,
                    "velocity": 0.28346456692913385,
                    "duration": 0.08771925000000635
                },
                {
                    "name": "C5",
                    "midi": 72,
                    "time": 105.78941550000002,
                    "velocity": 0.3464566929133858,
                    "duration": 0.09649117500001125
                },
                {
                    "name": "G4",
                    "midi": 67,
                    "time": 105.87713475000002,
                    "velocity": 0.30708661417322836,
                    "duration": 0.08771925000000635
                },
                {
                    "name": "C4",
                    "midi": 60,
                    "time": 105.96485400000003,
                    "velocity": 0.3464566929133858,
                    "duration": 0.08771925000000635
                },
                {
                    "name": "C5",
                    "midi": 72,
                    "time": 105.96485400000003,
                    "velocity": 0.41732283464566927,
                    "duration": 0.09649117500001125
                },
                {
                    "name": "F4",
                    "midi": 65,
                    "time": 106.05257325000004,
                    "velocity": 0.30708661417322836,
                    "duration": 0.08771925000000635
                },
                {
                    "name": "C4",
                    "midi": 60,
                    "time": 106.14029250000004,
                    "velocity": 0.2992125984251969,
                    "duration": 0.08771925000000635
                },
                {
                    "name": "C5",
                    "midi": 72,
                    "time": 106.14029250000004,
                    "velocity": 0.36220472440944884,
                    "duration": 0.09649117500001125
                },
                {
                    "name": "E4",
                    "midi": 64,
                    "time": 106.22801175000005,
                    "velocity": 0.30708661417322836,
                    "duration": 0.08771925000000635
                },
                {
                    "name": "C4",
                    "midi": 60,
                    "time": 106.31573100000006,
                    "velocity": 0.30708661417322836,
                    "duration": 0.08771925000000635
                },
                {
                    "name": "C5",
                    "midi": 72,
                    "time": 106.31573100000006,
                    "velocity": 0.3700787401574803,
                    "duration": 0.09649117500001125
                },
                {
                    "name": "F4",
                    "midi": 65,
                    "time": 106.40345025000006,
                    "velocity": 0.31496062992125984,
                    "duration": 0.08771925000000635
                },
                {
                    "name": "C4",
                    "midi": 60,
                    "time": 106.49116950000007,
                    "velocity": 0.31496062992125984,
                    "duration": 0.08771925000000635
                },
                {
                    "name": "C5",
                    "midi": 72,
                    "time": 106.49116950000007,
                    "velocity": 0.3779527559055118,
                    "duration": 0.09649117500001125
                },
                {
                    "name": "G4",
                    "midi": 67,
                    "time": 106.57888875000008,
                    "velocity": 0.3228346456692913,
                    "duration": 0.08771925000000635
                },
                {
                    "name": "C4",
                    "midi": 60,
                    "time": 106.66660800000008,
                    "velocity": 0.4094488188976378,
                    "duration": 0.08771925000000635
                },
                {
                    "name": "C5",
                    "midi": 72,
                    "time": 106.66660800000008,
                    "velocity": 0.48031496062992124,
                    "duration": 0.09649117500001125
                },
                {
                    "name": "G#4",
                    "midi": 68,
                    "time": 106.75432725000009,
                    "velocity": 0.33070866141732286,
                    "duration": 0.08771925000000635
                },
                {
                    "name": "F4",
                    "midi": 65,
                    "time": 106.8420465000001,
                    "velocity": 0.33070866141732286,
                    "duration": 0.08771925000000635
                },
                {
                    "name": "F5",
                    "midi": 77,
                    "time": 106.8420465000001,
                    "velocity": 0.3937007874015748,
                    "duration": 0.09649117500001125
                },
                {
                    "name": "D#5",
                    "midi": 75,
                    "time": 106.9297657500001,
                    "velocity": 0.33858267716535434,
                    "duration": 0.08771925000000635
                },
                {
                    "name": "F4",
                    "midi": 65,
                    "time": 107.01748500000011,
                    "velocity": 0.33070866141732286,
                    "duration": 0.08771925000000635
                },
                {
                    "name": "F5",
                    "midi": 77,
                    "time": 107.01748500000011,
                    "velocity": 0.3937007874015748,
                    "duration": 0.09649117500001125
                },
                {
                    "name": "C#5",
                    "midi": 73,
                    "time": 107.10520425000011,
                    "velocity": 0.36220472440944884,
                    "duration": 0.08771925000000635
                },
                {
                    "name": "F4",
                    "midi": 65,
                    "time": 107.19292350000012,
                    "velocity": 0.33070866141732286,
                    "duration": 0.08771925000000635
                },
                {
                    "name": "F5",
                    "midi": 77,
                    "time": 107.19292350000012,
                    "velocity": 0.4094488188976378,
                    "duration": 0.09649117500001125
                },
                {
                    "name": "C5",
                    "midi": 72,
                    "time": 107.28064275000013,
                    "velocity": 0.3543307086614173,
                    "duration": 0.08771925000000635
                },
                {
                    "name": "F4",
                    "midi": 65,
                    "time": 107.36836200000013,
                    "velocity": 0.4015748031496063,
                    "duration": 0.08771925000000635
                },
                {
                    "name": "F5",
                    "midi": 77,
                    "time": 107.36836200000013,
                    "velocity": 0.4881889763779528,
                    "duration": 0.09649117500001125
                },
                {
                    "name": "A#4",
                    "midi": 70,
                    "time": 107.45608125000014,
                    "velocity": 0.3543307086614173,
                    "duration": 0.08771925000000635
                },
                {
                    "name": "F4",
                    "midi": 65,
                    "time": 107.54380050000015,
                    "velocity": 0.3464566929133858,
                    "duration": 0.08771925000000635
                },
                {
                    "name": "F5",
                    "midi": 77,
                    "time": 107.54380050000015,
                    "velocity": 0.4251968503937008,
                    "duration": 0.09649117500001125
                },
                {
                    "name": "A4",
                    "midi": 69,
                    "time": 107.63151975000015,
                    "velocity": 0.3700787401574803,
                    "duration": 0.08771925000000635
                },
                {
                    "name": "F4",
                    "midi": 65,
                    "time": 107.71923900000016,
                    "velocity": 0.3464566929133858,
                    "duration": 0.08771925000000635
                },
                {
                    "name": "F5",
                    "midi": 77,
                    "time": 107.71923900000016,
                    "velocity": 0.4251968503937008,
                    "duration": 0.09649117500001125
                },
                {
                    "name": "A#4",
                    "midi": 70,
                    "time": 107.80695825000016,
                    "velocity": 0.36220472440944884,
                    "duration": 0.08771925000000635
                },
                {
                    "name": "F4",
                    "midi": 65,
                    "time": 107.89467750000017,
                    "velocity": 0.36220472440944884,
                    "duration": 0.08771925000000635
                },
                {
                    "name": "F5",
                    "midi": 77,
                    "time": 107.89467750000017,
                    "velocity": 0.4409448818897638,
                    "duration": 0.09649117500001125
                },
                {
                    "name": "C5",
                    "midi": 72,
                    "time": 107.98239675000018,
                    "velocity": 0.3700787401574803,
                    "duration": 0.08771925000000635
                },
                {
                    "name": "F4",
                    "midi": 65,
                    "time": 108.07011600000018,
                    "velocity": 0.49606299212598426,
                    "duration": 0.08771925000000635
                },
                {
                    "name": "F5",
                    "midi": 77,
                    "time": 108.07011600000018,
                    "velocity": 0.6062992125984252,
                    "duration": 0.09649117500001125
                },
                {
                    "name": "C#5",
                    "midi": 73,
                    "time": 108.15783525000019,
                    "velocity": 0.4251968503937008,
                    "duration": 0.08771925000000635
                },
                {
                    "name": "F4",
                    "midi": 65,
                    "time": 108.2455545000002,
                    "velocity": 0.4094488188976378,
                    "duration": 0.08771925000000635
                },
                {
                    "name": "F5",
                    "midi": 77,
                    "time": 108.2455545000002,
                    "velocity": 0.4881889763779528,
                    "duration": 0.09649117500001125
                },
                {
                    "name": "C#5",
                    "midi": 73,
                    "time": 108.3332737500002,
                    "velocity": 0.4251968503937008,
                    "duration": 0.08771925000000635
                },
                {
                    "name": "G4",
                    "midi": 67,
                    "time": 108.42099300000021,
                    "velocity": 0.41732283464566927,
                    "duration": 0.08771925000000635
                },
                {
                    "name": "G5",
                    "midi": 79,
                    "time": 108.42099300000021,
                    "velocity": 0.49606299212598426,
                    "duration": 0.09649117500001125
                },
                {
                    "name": "F5",
                    "midi": 77,
                    "time": 108.50871225000022,
                    "velocity": 0.44881889763779526,
                    "duration": 0.08771925000000635
                },
                {
                    "name": "G4",
                    "midi": 67,
                    "time": 108.59643150000022,
                    "velocity": 0.41732283464566927,
                    "duration": 0.08771925000000635
                },
                {
                    "name": "G5",
                    "midi": 79,
                    "time": 108.59643150000022,
                    "velocity": 0.49606299212598426,
                    "duration": 0.09649117500001125
                },
                {
                    "name": "F5",
                    "midi": 77,
                    "time": 108.68415075000023,
                    "velocity": 0.4409448818897638,
                    "duration": 0.08771925000000635
                },
                {
                    "name": "G#4",
                    "midi": 68,
                    "time": 108.77187000000023,
                    "velocity": 0.5118110236220472,
                    "duration": 0.08771925000000635
                },
                {
                    "name": "G#5",
                    "midi": 80,
                    "time": 108.77187000000023,
                    "velocity": 0.5984251968503937,
                    "duration": 0.09649117500001125
                },
                {
                    "name": "F5",
                    "midi": 77,
                    "time": 108.85958925000024,
                    "velocity": 0.44881889763779526,
                    "duration": 0.08771925000000635
                },
                {
                    "name": "G#4",
                    "midi": 68,
                    "time": 108.94730850000025,
                    "velocity": 0.4330708661417323,
                    "duration": 0.08771925000000635
                },
                {
                    "name": "G#5",
                    "midi": 80,
                    "time": 108.94730850000025,
                    "velocity": 0.5275590551181102,
                    "duration": 0.09649117500001125
                },
                {
                    "name": "F5",
                    "midi": 77,
                    "time": 109.03502775000025,
                    "velocity": 0.4566929133858268,
                    "duration": 0.08771925000000635
                },
                {
                    "name": "A#4",
                    "midi": 70,
                    "time": 109.12274700000026,
                    "velocity": 0.44881889763779526,
                    "duration": 0.08771925000000635
                },
                {
                    "name": "A#5",
                    "midi": 82,
                    "time": 109.12274700000026,
                    "velocity": 0.5275590551181102,
                    "duration": 0.09649117500001125
                },
                {
                    "name": "E5",
                    "midi": 76,
                    "time": 109.21046625000027,
                    "velocity": 0.44881889763779526,
                    "duration": 0.08771925000000635
                },
                {
                    "name": "A#4",
                    "midi": 70,
                    "time": 109.29818550000027,
                    "velocity": 0.4566929133858268,
                    "duration": 0.08771925000000635
                },
                {
                    "name": "A#5",
                    "midi": 82,
                    "time": 109.29818550000027,
                    "velocity": 0.5354330708661418,
                    "duration": 0.09649117500001125
                },
                {
                    "name": "E5",
                    "midi": 76,
                    "time": 109.38590475000028,
                    "velocity": 0.47244094488188976,
                    "duration": 0.08771925000000635
                },
                {
                    "name": "F5",
                    "midi": 77,
                    "time": 109.47362400000029,
                    "velocity": 0.7401574803149606,
                    "duration": 0.1754384999999985
                },
                {
                    "name": "F6",
                    "midi": 89,
                    "time": 109.64906250000028,
                    "velocity": 0.7322834645669292,
                    "duration": 0.350876999999997
                },
                {
                    "name": "F6",
                    "midi": 89,
                    "time": 109.99993950000028,
                    "velocity": 0.7007874015748031,
                    "duration": 0.1754384999999985
                },
                {
                    "name": "E6",
                    "midi": 88,
                    "time": 110.17537800000028,
                    "velocity": 0.7086614173228346,
                    "duration": 0.08771925000000635
                },
                {
                    "name": "C#6",
                    "midi": 85,
                    "time": 110.26309725000029,
                    "velocity": 0.5748031496062992,
                    "duration": 0.08771925000000635
                },
                {
                    "name": "A#5",
                    "midi": 82,
                    "time": 110.35081650000029,
                    "velocity": 0.6141732283464567,
                    "duration": 0.08771925000000635
                },
                {
                    "name": "G5",
                    "midi": 79,
                    "time": 110.4385357500003,
                    "velocity": 0.5826771653543307,
                    "duration": 0.08771925000000635
                },
                {
                    "name": "E5",
                    "midi": 76,
                    "time": 110.5262550000003,
                    "velocity": 0.5275590551181102,
                    "duration": 0.1754385000000127
                },
                {
                    "name": "C#5",
                    "midi": 73,
                    "time": 110.5262550000003,
                    "velocity": 0.4409448818897638,
                    "duration": 0.08771925000000635
                },
                {
                    "name": "C5",
                    "midi": 72,
                    "time": 110.61397425000031,
                    "velocity": 0.48031496062992124,
                    "duration": 0.08771925000000635
                },
                {
                    "name": "E5",
                    "midi": 76,
                    "time": 110.70169350000032,
                    "velocity": 0.48031496062992124,
                    "duration": 0.1754385000000127
                },
                {
                    "name": "C#5",
                    "midi": 73,
                    "time": 110.70169350000032,
                    "velocity": 0.4015748031496063,
                    "duration": 0.08771925000000635
                },
                {
                    "name": "A#4",
                    "midi": 70,
                    "time": 110.78941275000032,
                    "velocity": 0.47244094488188976,
                    "duration": 0.08771925000000635
                },
                {
                    "name": "F5",
                    "midi": 77,
                    "time": 110.87713200000033,
                    "velocity": 0.6535433070866141,
                    "duration": 0.16081862500000454
                },
                {
                    "name": "G#4",
                    "midi": 68,
                    "time": 110.87713200000033,
                    "velocity": 0.6062992125984252,
                    "duration": 0.1754384999999985
                },
                {
                    "name": "F5",
                    "midi": 77,
                    "time": 111.05257050000033,
                    "velocity": 0.7322834645669292,
                    "duration": 0.350876999999997
                },
                {
                    "name": "F5",
                    "midi": 77,
                    "time": 111.40344750000033,
                    "velocity": 0.7007874015748031,
                    "duration": 0.1754384999999985
                },
                {
                    "name": "E5",
                    "midi": 76,
                    "time": 111.57888600000032,
                    "velocity": 0.7086614173228346,
                    "duration": 0.08771925000000635
                },
                {
                    "name": "C#5",
                    "midi": 73,
                    "time": 111.66660525000033,
                    "velocity": 0.5905511811023622,
                    "duration": 0.08771925000000635
                },
                {
                    "name": "A#4",
                    "midi": 70,
                    "time": 111.75432450000034,
                    "velocity": 0.6141732283464567,
                    "duration": 0.08771925000000635
                },
                {
                    "name": "G4",
                    "midi": 67,
                    "time": 111.84204375000034,
                    "velocity": 0.5826771653543307,
                    "duration": 0.08771925000000635
                },
                {
                    "name": "E4",
                    "midi": 64,
                    "time": 111.92976300000035,
                    "velocity": 0.5275590551181102,
                    "duration": 0.1754385000000127
                },
                {
                    "name": "C#4",
                    "midi": 61,
                    "time": 111.92976300000035,
                    "velocity": 0.4409448818897638,
                    "duration": 0.08771925000000635
                },
                {
                    "name": "C4",
                    "midi": 60,
                    "time": 112.01748225000036,
                    "velocity": 0.48031496062992124,
                    "duration": 0.08771925000000635
                },
                {
                    "name": "E4",
                    "midi": 64,
                    "time": 112.10520150000036,
                    "velocity": 0.48031496062992124,
                    "duration": 0.1754385000000127
                },
                {
                    "name": "C#4",
                    "midi": 61,
                    "time": 112.10520150000036,
                    "velocity": 0.4015748031496063,
                    "duration": 0.08771925000000635
                },
                {
                    "name": "A#3",
                    "midi": 58,
                    "time": 112.19292075000037,
                    "velocity": 0.47244094488188976,
                    "duration": 0.08771925000000635
                },
                {
                    "name": "G#3",
                    "midi": 56,
                    "time": 112.28064000000037,
                    "velocity": 0.5511811023622047,
                    "duration": 0.350876999999997
                },
                {
                    "name": "F4",
                    "midi": 65,
                    "time": 112.28064000000037,
                    "velocity": 0.6535433070866141,
                    "duration": 0.350876999999997
                },
                {
                    "name": "A#3",
                    "midi": 58,
                    "time": 114.03502500000037,
                    "velocity": 0.6929133858267716,
                    "duration": 0.7894732500000003
                },
                {
                    "name": "C#4",
                    "midi": 61,
                    "time": 114.82449825000037,
                    "velocity": 0.5590551181102362,
                    "duration": 0.08771925000000635
                },
                {
                    "name": "C4",
                    "midi": 60,
                    "time": 114.91221750000038,
                    "velocity": 0.5590551181102362,
                    "duration": 0.08771925000000635
                },
                {
                    "name": "A#3",
                    "midi": 58,
                    "time": 114.99993675000039,
                    "velocity": 0.5039370078740157,
                    "duration": 0.08771925000000635
                },
                {
                    "name": "G#3",
                    "midi": 56,
                    "time": 115.0876560000004,
                    "velocity": 0.6377952755905512,
                    "duration": 0.350876999999997
                },
                {
                    "name": "F3",
                    "midi": 53,
                    "time": 115.43853300000039,
                    "velocity": 0.5748031496062992,
                    "duration": 0.350876999999997
                },
                {
                    "name": "D#4",
                    "midi": 63,
                    "time": 116.84204100000039,
                    "velocity": 0.6929133858267716,
                    "duration": 0.7894732500000003
                },
                {
                    "name": "F#4",
                    "midi": 66,
                    "time": 117.6315142500004,
                    "velocity": 0.5590551181102362,
                    "duration": 0.08771925000000635
                },
                {
                    "name": "F4",
                    "midi": 65,
                    "time": 117.7192335000004,
                    "velocity": 0.5590551181102362,
                    "duration": 0.08771925000000635
                },
                {
                    "name": "D#4",
                    "midi": 63,
                    "time": 117.8069527500004,
                    "velocity": 0.5039370078740157,
                    "duration": 0.08771925000000635
                },
                {
                    "name": "C#4",
                    "midi": 61,
                    "time": 117.89467200000041,
                    "velocity": 0.6377952755905512,
                    "duration": 0.350876999999997
                },
                {
                    "name": "A#3",
                    "midi": 58,
                    "time": 118.24554900000041,
                    "velocity": 0.5748031496062992,
                    "duration": 0.350876999999997
                },
                {
                    "name": "C#5",
                    "midi": 73,
                    "time": 118.5964260000004,
                    "velocity": 0.6220472440944882,
                    "duration": 0.701753999999994
                },
                {
                    "name": "D#4",
                    "midi": 63,
                    "time": 119.2981800000004,
                    "velocity": 0.5669291338582677,
                    "duration": 1.1403502500000116
                },
                {
                    "name": "C5",
                    "midi": 72,
                    "time": 119.2981800000004,
                    "velocity": 0.6535433070866141,
                    "duration": 0.5263154999999955
                },
                {
                    "name": "C#5",
                    "midi": 73,
                    "time": 119.8244955000004,
                    "velocity": 0.5511811023622047,
                    "duration": 0.08771925000000635
                },
                {
                    "name": "D#5",
                    "midi": 75,
                    "time": 119.9122147500004,
                    "velocity": 0.5511811023622047,
                    "duration": 0.08771925000000635
                },
                {
                    "name": "G4",
                    "midi": 67,
                    "time": 119.99993400000041,
                    "velocity": 0.6692913385826772,
                    "duration": 0.1754384999999985
                },
                {
                    "name": "A4",
                    "midi": 69,
                    "time": 120.3508110000004,
                    "velocity": 0.6299212598425197,
                    "duration": 0.1754385000000127
                },
                {
                    "name": "F#4",
                    "midi": 66,
                    "time": 120.43853025000041,
                    "velocity": 0.5590551181102362,
                    "duration": 0.08771925000000635
                },
                {
                    "name": "F4",
                    "midi": 65,
                    "time": 120.52624950000042,
                    "velocity": 0.5590551181102362,
                    "duration": 0.08771925000000635
                },
                {
                    "name": "D#4",
                    "midi": 63,
                    "time": 120.61396875000042,
                    "velocity": 0.5039370078740157,
                    "duration": 0.08771925000000635
                },
                {
                    "name": "C#4",
                    "midi": 61,
                    "time": 120.70168800000043,
                    "velocity": 0.6377952755905512,
                    "duration": 0.350876999999997
                },
                {
                    "name": "A#4",
                    "midi": 70,
                    "time": 120.70168800000043,
                    "velocity": 0.6377952755905512,
                    "duration": 0.701753999999994
                },
                {
                    "name": "A#3",
                    "midi": 58,
                    "time": 121.05256500000043,
                    "velocity": 0.5748031496062992,
                    "duration": 0.350876999999997
                },
                {
                    "name": "F#5",
                    "midi": 78,
                    "time": 121.40344200000042,
                    "velocity": 0.6220472440944882,
                    "duration": 0.701753999999994
                },
                {
                    "name": "G#4",
                    "midi": 68,
                    "time": 122.10519600000042,
                    "velocity": 0.5669291338582677,
                    "duration": 1.1403502500000116
                },
                {
                    "name": "F5",
                    "midi": 77,
                    "time": 122.10519600000042,
                    "velocity": 0.6535433070866141,
                    "duration": 0.5263154999999955
                },
                {
                    "name": "F#5",
                    "midi": 78,
                    "time": 122.63151150000041,
                    "velocity": 0.5511811023622047,
                    "duration": 0.08771925000000635
                },
                {
                    "name": "G#5",
                    "midi": 80,
                    "time": 122.71923075000042,
                    "velocity": 0.5511811023622047,
                    "duration": 0.08771925000000635
                },
                {
                    "name": "C5",
                    "midi": 72,
                    "time": 122.80695000000043,
                    "velocity": 0.6692913385826772,
                    "duration": 0.1754384999999985
                },
                {
                    "name": "D5",
                    "midi": 74,
                    "time": 123.15782700000042,
                    "velocity": 0.6299212598425197,
                    "duration": 0.1754385000000127
                },
                {
                    "name": "B4",
                    "midi": 71,
                    "time": 123.24554625000043,
                    "velocity": 0.5590551181102362,
                    "duration": 0.08771925000000635
                },
                {
                    "name": "A#4",
                    "midi": 70,
                    "time": 123.33326550000044,
                    "velocity": 0.5590551181102362,
                    "duration": 0.08771925000000635
                },
                {
                    "name": "G#4",
                    "midi": 68,
                    "time": 123.42098475000044,
                    "velocity": 0.5039370078740157,
                    "duration": 0.08771925000000635
                },
                {
                    "name": "F#4",
                    "midi": 66,
                    "time": 123.50870400000045,
                    "velocity": 0.6377952755905512,
                    "duration": 0.350876999999997
                },
                {
                    "name": "D#5",
                    "midi": 75,
                    "time": 123.50870400000045,
                    "velocity": 0.6377952755905512,
                    "duration": 0.701753999999994
                },
                {
                    "name": "D#4",
                    "midi": 63,
                    "time": 123.85958100000045,
                    "velocity": 0.5748031496062992,
                    "duration": 0.350876999999997
                },
                {
                    "name": "B5",
                    "midi": 83,
                    "time": 125.26308900000045,
                    "velocity": 0.7322834645669292,
                    "duration": 0.8771925000000067
                },
                {
                    "name": "G#5",
                    "midi": 80,
                    "time": 125.26308900000045,
                    "velocity": 0.6220472440944882,
                    "duration": 0.8771925000000067
                },
                {
                    "name": "F#5",
                    "midi": 78,
                    "time": 126.14028150000046,
                    "velocity": 0.5354330708661418,
                    "duration": 0.09649117500001125
                },
                {
                    "name": "A#5",
                    "midi": 82,
                    "time": 126.14028150000046,
                    "velocity": 0.6299212598425197,
                    "duration": 0.09649117500001125
                },
                {
                    "name": "F5",
                    "midi": 77,
                    "time": 126.22800075000046,
                    "velocity": 0.4881889763779528,
                    "duration": 0.09649117500001125
                },
                {
                    "name": "G#5",
                    "midi": 80,
                    "time": 126.22800075000046,
                    "velocity": 0.5826771653543307,
                    "duration": 0.09649117500001125
                },
                {
                    "name": "D#5",
                    "midi": 75,
                    "time": 126.31572000000047,
                    "velocity": 0.6771653543307087,
                    "duration": 0.1754384999999985
                },
                {
                    "name": "F#5",
                    "midi": 78,
                    "time": 126.31572000000047,
                    "velocity": 0.7322834645669292,
                    "duration": 0.1754384999999985
                },
                {
                    "name": "A#5",
                    "midi": 82,
                    "time": 126.66659700000046,
                    "velocity": 0.7322834645669292,
                    "duration": 0.8771925000000067
                },
                {
                    "name": "F#5",
                    "midi": 78,
                    "time": 126.66659700000046,
                    "velocity": 0.6220472440944882,
                    "duration": 0.8771925000000067
                },
                {
                    "name": "F5",
                    "midi": 77,
                    "time": 127.54378950000047,
                    "velocity": 0.5354330708661418,
                    "duration": 0.09649117500001125
                },
                {
                    "name": "G#5",
                    "midi": 80,
                    "time": 127.54378950000047,
                    "velocity": 0.6299212598425197,
                    "duration": 0.09649117500001125
                },
                {
                    "name": "D#5",
                    "midi": 75,
                    "time": 127.63150875000048,
                    "velocity": 0.4881889763779528,
                    "duration": 0.09649117500001125
                },
                {
                    "name": "F#5",
                    "midi": 78,
                    "time": 127.63150875000048,
                    "velocity": 0.5826771653543307,
                    "duration": 0.09649117500001125
                },
                {
                    "name": "F5",
                    "midi": 77,
                    "time": 127.71922800000048,
                    "velocity": 0.7165354330708661,
                    "duration": 0.5263154999999955
                },
                {
                    "name": "C#5",
                    "midi": 73,
                    "time": 127.71922800000048,
                    "velocity": 0.6062992125984252,
                    "duration": 0.5263154999999955
                },
                {
                    "name": "D#5",
                    "midi": 75,
                    "time": 128.24554350000048,
                    "velocity": 0.5039370078740157,
                    "duration": 0.09649117499998283
                },
                {
                    "name": "F#5",
                    "midi": 78,
                    "time": 128.24554350000048,
                    "velocity": 0.6062992125984252,
                    "duration": 0.09649117499998283
                },
                {
                    "name": "F5",
                    "midi": 77,
                    "time": 128.33326275000047,
                    "velocity": 0.5039370078740157,
                    "duration": 0.09649117499998283
                },
                {
                    "name": "G#5",
                    "midi": 80,
                    "time": 128.33326275000047,
                    "velocity": 0.6062992125984252,
                    "duration": 0.09649117499998283
                },
                {
                    "name": "G#4",
                    "midi": 68,
                    "time": 128.42098200000046,
                    "velocity": 0.6220472440944882,
                    "duration": 0.1754384999999843
                },
                {
                    "name": "C5",
                    "midi": 72,
                    "time": 128.42098200000046,
                    "velocity": 0.7322834645669292,
                    "duration": 0.1754384999999843
                },
                {
                    "name": "A#4",
                    "midi": 70,
                    "time": 128.77185900000046,
                    "velocity": 0.5826771653543307,
                    "duration": 0.1754385000000127
                },
                {
                    "name": "C#5",
                    "midi": 73,
                    "time": 128.77185900000046,
                    "velocity": 0.6929133858267716,
                    "duration": 0.1754385000000127
                },
                {
                    "name": "D#5",
                    "midi": 75,
                    "time": 129.1227360000005,
                    "velocity": 0.7165354330708661,
                    "duration": 0.5263155000000097
                },
                {
                    "name": "C5",
                    "midi": 72,
                    "time": 129.1227360000005,
                    "velocity": 0.6062992125984252,
                    "duration": 0.5263155000000097
                },
                {
                    "name": "C#5",
                    "midi": 73,
                    "time": 129.6490515000005,
                    "velocity": 0.5039370078740157,
                    "duration": 0.09649117499998283
                },
                {
                    "name": "F5",
                    "midi": 77,
                    "time": 129.6490515000005,
                    "velocity": 0.6062992125984252,
                    "duration": 0.09649117499998283
                },
                {
                    "name": "D#5",
                    "midi": 75,
                    "time": 129.7367707500005,
                    "velocity": 0.5039370078740157,
                    "duration": 0.09649117499998283
                },
                {
                    "name": "F#5",
                    "midi": 78,
                    "time": 129.7367707500005,
                    "velocity": 0.6062992125984252,
                    "duration": 0.09649117499998283
                },
                {
                    "name": "G4",
                    "midi": 67,
                    "time": 129.82449000000048,
                    "velocity": 0.6220472440944882,
                    "duration": 0.1754384999999843
                },
                {
                    "name": "A#4",
                    "midi": 70,
                    "time": 129.82449000000048,
                    "velocity": 0.7322834645669292,
                    "duration": 0.1754384999999843
                },
                {
                    "name": "A4",
                    "midi": 69,
                    "time": 130.17536700000048,
                    "velocity": 0.5826771653543307,
                    "duration": 0.1754385000000127
                },
                {
                    "name": "C5",
                    "midi": 72,
                    "time": 130.17536700000048,
                    "velocity": 0.6929133858267716,
                    "duration": 0.1754385000000127
                },
                {
                    "name": "C#5",
                    "midi": 73,
                    "time": 130.5262440000005,
                    "velocity": 0.7165354330708661,
                    "duration": 0.5263155000000097
                },
                {
                    "name": "A#4",
                    "midi": 70,
                    "time": 130.5262440000005,
                    "velocity": 0.6062992125984252,
                    "duration": 0.701753999999994
                },
                {
                    "name": "D#5",
                    "midi": 75,
                    "time": 131.0525595000005,
                    "velocity": 0.6062992125984252,
                    "duration": 0.08771924999999214
                },
                {
                    "name": "F5",
                    "midi": 77,
                    "time": 131.1402787500005,
                    "velocity": 0.6062992125984252,
                    "duration": 0.08771924999999214
                },
                {
                    "name": "F#5",
                    "midi": 78,
                    "time": 131.2279980000005,
                    "velocity": 0.7165354330708661,
                    "duration": 0.5263155000000097
                },
                {
                    "name": "A#4",
                    "midi": 70,
                    "time": 131.2279980000005,
                    "velocity": 0.6062992125984252,
                    "duration": 0.701753999999994
                },
                {
                    "name": "G#5",
                    "midi": 80,
                    "time": 131.7543135000005,
                    "velocity": 0.6062992125984252,
                    "duration": 0.08771924999999214
                },
                {
                    "name": "A#5",
                    "midi": 82,
                    "time": 131.8420327500005,
                    "velocity": 0.6062992125984252,
                    "duration": 0.08771924999999214
                },
                {
                    "name": "B5",
                    "midi": 83,
                    "time": 131.9297520000005,
                    "velocity": 0.7165354330708661,
                    "duration": 0.5263155000000097
                },
                {
                    "name": "F#5",
                    "midi": 78,
                    "time": 131.9297520000005,
                    "velocity": 0.6062992125984252,
                    "duration": 0.701753999999994
                },
                {
                    "name": "C#6",
                    "midi": 85,
                    "time": 132.4560675000005,
                    "velocity": 0.6062992125984252,
                    "duration": 0.08771924999999214
                },
                {
                    "name": "D#6",
                    "midi": 87,
                    "time": 132.5437867500005,
                    "velocity": 0.6062992125984252,
                    "duration": 0.08771924999999214
                },
                {
                    "name": "F4",
                    "midi": 65,
                    "time": 132.63150600000048,
                    "velocity": 0.6062992125984252,
                    "duration": 0.1754385000000127
                },
                {
                    "name": "A#4",
                    "midi": 70,
                    "time": 132.63150600000048,
                    "velocity": 0.7165354330708661,
                    "duration": 0.1754385000000127
                },
                {
                    "name": "D#4",
                    "midi": 63,
                    "time": 132.9823830000005,
                    "velocity": 0.5826771653543307,
                    "duration": 0.1754385000000127
                },
                {
                    "name": "A4",
                    "midi": 69,
                    "time": 132.9823830000005,
                    "velocity": 0.6929133858267716,
                    "duration": 0.1754385000000127
                },
                {
                    "name": "C#4",
                    "midi": 61,
                    "time": 133.33326000000054,
                    "velocity": 0.5905511811023622,
                    "duration": 0.1754385000000127
                },
                {
                    "name": "A#4",
                    "midi": 70,
                    "time": 133.33326000000054,
                    "velocity": 0.7086614173228346,
                    "duration": 0.1754385000000127
                },
                {
                    "name": "F4",
                    "midi": 65,
                    "time": 133.50869850000055,
                    "velocity": 0.28346456692913385,
                    "duration": 0.09649117499998283
                },
                {
                    "name": "D#4",
                    "midi": 63,
                    "time": 133.59641775000054,
                    "velocity": 0.2440944881889764,
                    "duration": 0.08771924999999214
                },
                {
                    "name": "F4",
                    "midi": 65,
                    "time": 133.68413700000053,
                    "velocity": 0.28346456692913385,
                    "duration": 0.09649117499998283
                },
                {
                    "name": "C#4",
                    "midi": 61,
                    "time": 133.77185625000052,
                    "velocity": 0.25196850393700787,
                    "duration": 0.08771924999999214
                },
                {
                    "name": "F4",
                    "midi": 65,
                    "time": 133.85957550000052,
                    "velocity": 0.28346456692913385,
                    "duration": 0.09649117499998283
                },
                {
                    "name": "C4",
                    "midi": 60,
                    "time": 133.9472947500005,
                    "velocity": 0.2440944881889764,
                    "duration": 0.08771924999999214
                },
                {
                    "name": "F4",
                    "midi": 65,
                    "time": 134.0350140000005,
                    "velocity": 0.33070866141732286,
                    "duration": 0.09649117499998283
                },
                {
                    "name": "A#3",
                    "midi": 58,
                    "time": 134.1227332500005,
                    "velocity": 0.2440944881889764,
                    "duration": 0.08771924999999214
                },
                {
                    "name": "F4",
                    "midi": 65,
                    "time": 134.21045250000049,
                    "velocity": 0.28346456692913385,
                    "duration": 0.09649117499998283
                },
                {
                    "name": "A3",
                    "midi": 57,
                    "time": 134.29817175000048,
                    "velocity": 0.2440944881889764,
                    "duration": 0.08771924999999214
                },
                {
                    "name": "F4",
                    "midi": 65,
                    "time": 134.38589100000047,
                    "velocity": 0.28346456692913385,
                    "duration": 0.09649117499998283
                },
                {
                    "name": "A#3",
                    "midi": 58,
                    "time": 134.47361025000046,
                    "velocity": 0.23622047244094488,
                    "duration": 0.08771924999999214
                },
                {
                    "name": "F4",
                    "midi": 65,
                    "time": 134.56132950000045,
                    "velocity": 0.28346456692913385,
                    "duration": 0.09649117499998283
                },
                {
                    "name": "C4",
                    "midi": 60,
                    "time": 134.64904875000045,
                    "velocity": 0.2440944881889764,
                    "duration": 0.08771924999999214
                },
                {
                    "name": "F4",
                    "midi": 65,
                    "time": 134.73676800000044,
                    "velocity": 0.3543307086614173,
                    "duration": 0.09649117499998283
                },
                {
                    "name": "C#4",
                    "midi": 61,
                    "time": 134.82448725000043,
                    "velocity": 0.2440944881889764,
                    "duration": 0.08771924999999214
                },
                {
                    "name": "A#4",
                    "midi": 70,
                    "time": 134.91220650000042,
                    "velocity": 0.28346456692913385,
                    "duration": 0.09649117499998283
                },
                {
                    "name": "G#4",
                    "midi": 68,
                    "time": 134.99992575000041,
                    "velocity": 0.2440944881889764,
                    "duration": 0.08771924999999214
                },
                {
                    "name": "A#4",
                    "midi": 70,
                    "time": 135.0876450000004,
                    "velocity": 0.28346456692913385,
                    "duration": 0.09649117499998283
                },
                {
                    "name": "F#4",
                    "midi": 66,
                    "time": 135.1753642500004,
                    "velocity": 0.25196850393700787,
                    "duration": 0.08771924999999214
                },
                {
                    "name": "A#4",
                    "midi": 70,
                    "time": 135.2630835000004,
                    "velocity": 0.28346456692913385,
                    "duration": 0.09649117499998283
                },
                {
                    "name": "F4",
                    "midi": 65,
                    "time": 135.35080275000038,
                    "velocity": 0.2440944881889764,
                    "duration": 0.08771924999999214
                },
                {
                    "name": "A#4",
                    "midi": 70,
                    "time": 135.43852200000038,
                    "velocity": 0.33070866141732286,
                    "duration": 0.09649117499998283
                },
                {
                    "name": "D#4",
                    "midi": 63,
                    "time": 135.52624125000037,
                    "velocity": 0.2440944881889764,
                    "duration": 0.08771924999999214
                },
                {
                    "name": "A#4",
                    "midi": 70,
                    "time": 135.61396050000036,
                    "velocity": 0.28346456692913385,
                    "duration": 0.09649117499998283
                },
                {
                    "name": "D4",
                    "midi": 62,
                    "time": 135.70167975000035,
                    "velocity": 0.2440944881889764,
                    "duration": 0.08771924999999214
                },
                {
                    "name": "A#4",
                    "midi": 70,
                    "time": 135.78939900000034,
                    "velocity": 0.28346456692913385,
                    "duration": 0.09649117499998283
                },
                {
                    "name": "D#4",
                    "midi": 63,
                    "time": 135.87711825000034,
                    "velocity": 0.23622047244094488,
                    "duration": 0.08771924999999214
                },
                {
                    "name": "A#4",
                    "midi": 70,
                    "time": 135.96483750000033,
                    "velocity": 0.28346456692913385,
                    "duration": 0.09649117499998283
                },
                {
                    "name": "F4",
                    "midi": 65,
                    "time": 136.05255675000032,
                    "velocity": 0.2440944881889764,
                    "duration": 0.08771924999999214
                },
                {
                    "name": "A#4",
                    "midi": 70,
                    "time": 136.1402760000003,
                    "velocity": 0.3858267716535433,
                    "duration": 0.09649117499998283
                },
                {
                    "name": "F#4",
                    "midi": 66,
                    "time": 136.2279952500003,
                    "velocity": 0.2677165354330709,
                    "duration": 0.08771924999999214
                },
                {
                    "name": "A#4",
                    "midi": 70,
                    "time": 136.3157145000003,
                    "velocity": 0.30708661417322836,
                    "duration": 0.09649117499998283
                },
                {
                    "name": "F#4",
                    "midi": 66,
                    "time": 136.4034337500003,
                    "velocity": 0.2677165354330709,
                    "duration": 0.08771924999999214
                },
                {
                    "name": "C5",
                    "midi": 72,
                    "time": 136.49115300000028,
                    "velocity": 0.30708661417322836,
                    "duration": 0.09649117499998283
                },
                {
                    "name": "A#4",
                    "midi": 70,
                    "time": 136.57887225000027,
                    "velocity": 0.2755905511811024,
                    "duration": 0.08771924999999214
                },
                {
                    "name": "C5",
                    "midi": 72,
                    "time": 136.66659150000027,
                    "velocity": 0.30708661417322836,
                    "duration": 0.09649117499998283
                },
                {
                    "name": "A#4",
                    "midi": 70,
                    "time": 136.75431075000026,
                    "velocity": 0.2677165354330709,
                    "duration": 0.08771924999999214
                },
                {
                    "name": "C#5",
                    "midi": 73,
                    "time": 136.84203000000025,
                    "velocity": 0.36220472440944884,
                    "duration": 0.09649117499998283
                },
                {
                    "name": "A#4",
                    "midi": 70,
                    "time": 136.92974925000024,
                    "velocity": 0.2677165354330709,
                    "duration": 0.08771924999999214
                },
                {
                    "name": "C#5",
                    "midi": 73,
                    "time": 137.01746850000023,
                    "velocity": 0.30708661417322836,
                    "duration": 0.09649117499998283
                },
                {
                    "name": "A#4",
                    "midi": 70,
                    "time": 137.10518775000023,
                    "velocity": 0.2677165354330709,
                    "duration": 0.08771924999999214
                },
                {
                    "name": "D#5",
                    "midi": 75,
                    "time": 137.19290700000022,
                    "velocity": 0.30708661417322836,
                    "duration": 0.09649117499998283
                },
                {
                    "name": "A4",
                    "midi": 69,
                    "time": 137.2806262500002,
                    "velocity": 0.25984251968503935,
                    "duration": 0.08771924999999214
                },
                {
                    "name": "D#5",
                    "midi": 75,
                    "time": 137.3683455000002,
                    "velocity": 0.30708661417322836,
                    "duration": 0.09649117499998283
                },
                {
                    "name": "A4",
                    "midi": 69,
                    "time": 137.4560647500002,
                    "velocity": 0.2677165354330709,
                    "duration": 0.08771924999999214
                },
                {
                    "name": "A#4",
                    "midi": 70,
                    "time": 137.5437840000002,
                    "velocity": 0.5826771653543307,
                    "duration": 0.1754385000000127
                },
                {
                    "name": "F5",
                    "midi": 77,
                    "time": 137.7192225000002,
                    "velocity": 0.3779527559055118,
                    "duration": 0.09649117499998283
                },
                {
                    "name": "F4",
                    "midi": 65,
                    "time": 137.7192225000002,
                    "velocity": 0.31496062992125984,
                    "duration": 0.08771924999999214
                },
                {
                    "name": "D#5",
                    "midi": 75,
                    "time": 137.8069417500002,
                    "velocity": 0.33070866141732286,
                    "duration": 0.08771924999999214
                },
                {
                    "name": "F4",
                    "midi": 65,
                    "time": 137.89466100000018,
                    "velocity": 0.31496062992125984,
                    "duration": 0.08771924999999214
                },
                {
                    "name": "F5",
                    "midi": 77,
                    "time": 137.89466100000018,
                    "velocity": 0.3779527559055118,
                    "duration": 0.09649117499998283
                },
                {
                    "name": "C#5",
                    "midi": 73,
                    "time": 137.98238025000018,
                    "velocity": 0.33858267716535434,
                    "duration": 0.08771924999999214
                },
                {
                    "name": "F4",
                    "midi": 65,
                    "time": 138.07009950000017,
                    "velocity": 0.31496062992125984,
                    "duration": 0.08771924999999214
                },
                {
                    "name": "F5",
                    "midi": 77,
                    "time": 138.07009950000017,
                    "velocity": 0.3937007874015748,
                    "duration": 0.09649117499998283
                },
                {
                    "name": "C5",
                    "midi": 72,
                    "time": 138.15781875000016,
                    "velocity": 0.3543307086614173,
                    "duration": 0.08771924999999214
                },
                {
                    "name": "F5",
                    "midi": 77,
                    "time": 138.24553800000015,
                    "velocity": 0.4645669291338583,
                    "duration": 0.09649117499998283
                },
                {
                    "name": "F4",
                    "midi": 65,
                    "time": 138.24553800000015,
                    "velocity": 0.3858267716535433,
                    "duration": 0.08771924999999214
                },
                {
                    "name": "A#4",
                    "midi": 70,
                    "time": 138.33325725000014,
                    "velocity": 0.3543307086614173,
                    "duration": 0.08771924999999214
                },
                {
                    "name": "F4",
                    "midi": 65,
                    "time": 138.42097650000014,
                    "velocity": 0.3464566929133858,
                    "duration": 0.08771924999999214
                },
                {
                    "name": "F5",
                    "midi": 77,
                    "time": 138.42097650000014,
                    "velocity": 0.4251968503937008,
                    "duration": 0.09649117499998283
                },
                {
                    "name": "A4",
                    "midi": 69,
                    "time": 138.50869575000013,
                    "velocity": 0.3543307086614173,
                    "duration": 0.08771924999999214
                },
                {
                    "name": "F4",
                    "midi": 65,
                    "time": 138.59641500000012,
                    "velocity": 0.3464566929133858,
                    "duration": 0.08771924999999214
                },
                {
                    "name": "F5",
                    "midi": 77,
                    "time": 138.59641500000012,
                    "velocity": 0.4251968503937008,
                    "duration": 0.09649117499998283
                },
                {
                    "name": "A#4",
                    "midi": 70,
                    "time": 138.6841342500001,
                    "velocity": 0.3543307086614173,
                    "duration": 0.08771924999999214
                },
                {
                    "name": "F5",
                    "midi": 77,
                    "time": 138.7718535000001,
                    "velocity": 0.4409448818897638,
                    "duration": 0.09649117499998283
                },
                {
                    "name": "F4",
                    "midi": 65,
                    "time": 138.7718535000001,
                    "velocity": 0.36220472440944884,
                    "duration": 0.08771924999999214
                },
                {
                    "name": "C5",
                    "midi": 72,
                    "time": 138.8595727500001,
                    "velocity": 0.3700787401574803,
                    "duration": 0.08771924999999214
                },
                {
                    "name": "F4",
                    "midi": 65,
                    "time": 138.9472920000001,
                    "velocity": 0.48031496062992124,
                    "duration": 0.08771924999999214
                },
                {
                    "name": "F5",
                    "midi": 77,
                    "time": 138.9472920000001,
                    "velocity": 0.5669291338582677,
                    "duration": 0.09649117499998283
                },
                {
                    "name": "C#5",
                    "midi": 73,
                    "time": 139.03501125000008,
                    "velocity": 0.3779527559055118,
                    "duration": 0.08771924999999214
                },
                {
                    "name": "A#4",
                    "midi": 70,
                    "time": 139.12273050000007,
                    "velocity": 0.3779527559055118,
                    "duration": 0.08771924999999214
                },
                {
                    "name": "A#5",
                    "midi": 82,
                    "time": 139.12273050000007,
                    "velocity": 0.4566929133858268,
                    "duration": 0.09649117499998283
                },
                {
                    "name": "G#5",
                    "midi": 80,
                    "time": 139.21044975000007,
                    "velocity": 0.3937007874015748,
                    "duration": 0.08771924999999214
                },
                {
                    "name": "A#4",
                    "midi": 70,
                    "time": 139.29816900000006,
                    "velocity": 0.3937007874015748,
                    "duration": 0.08771924999999214
                },
                {
                    "name": "A#5",
                    "midi": 82,
                    "time": 139.29816900000006,
                    "velocity": 0.4645669291338583,
                    "duration": 0.09649117499998283
                },
                {
                    "name": "F#5",
                    "midi": 78,
                    "time": 139.38588825000005,
                    "velocity": 0.4330708661417323,
                    "duration": 0.08771924999999214
                },
                {
                    "name": "A#5",
                    "midi": 82,
                    "time": 139.47360750000004,
                    "velocity": 0.4881889763779528,
                    "duration": 0.09649117499998283
                },
                {
                    "name": "A#4",
                    "midi": 70,
                    "time": 139.47360750000004,
                    "velocity": 0.3937007874015748,
                    "duration": 0.08771924999999214
                },
                {
                    "name": "F5",
                    "midi": 77,
                    "time": 139.56132675000003,
                    "velocity": 0.4251968503937008,
                    "duration": 0.08771924999999214
                },
                {
                    "name": "A#4",
                    "midi": 70,
                    "time": 139.64904600000003,
                    "velocity": 0.4881889763779528,
                    "duration": 0.08771924999999214
                },
                {
                    "name": "A#5",
                    "midi": 82,
                    "time": 139.64904600000003,
                    "velocity": 0.5748031496062992,
                    "duration": 0.09649117499998283
                },
                {
                    "name": "D#5",
                    "midi": 75,
                    "time": 139.73676525000002,
                    "velocity": 0.4251968503937008,
                    "duration": 0.08771924999999214
                },
                {
                    "name": "A#5",
                    "midi": 82,
                    "time": 139.8244845,
                    "velocity": 0.5196850393700787,
                    "duration": 0.09649117499998283
                },
                {
                    "name": "A#4",
                    "midi": 70,
                    "time": 139.8244845,
                    "velocity": 0.41732283464566927,
                    "duration": 0.08771924999999214
                },
                {
                    "name": "D5",
                    "midi": 74,
                    "time": 139.91220375,
                    "velocity": 0.4330708661417323,
                    "duration": 0.08771924999999214
                },
                {
                    "name": "A#4",
                    "midi": 70,
                    "time": 139.999923,
                    "velocity": 0.41732283464566927,
                    "duration": 0.08771924999999214
                },
                {
                    "name": "A#5",
                    "midi": 82,
                    "time": 139.999923,
                    "velocity": 0.5196850393700787,
                    "duration": 0.09649117499998283
                },
                {
                    "name": "D#5",
                    "midi": 75,
                    "time": 140.08764225,
                    "velocity": 0.4330708661417323,
                    "duration": 0.08771924999999214
                },
                {
                    "name": "A#4",
                    "midi": 70,
                    "time": 140.17536149999998,
                    "velocity": 0.44881889763779526,
                    "duration": 0.08771924999999214
                },
                {
                    "name": "A#5",
                    "midi": 82,
                    "time": 140.17536149999998,
                    "velocity": 0.5433070866141733,
                    "duration": 0.09649117499998283
                },
                {
                    "name": "F5",
                    "midi": 77,
                    "time": 140.26308074999997,
                    "velocity": 0.4566929133858268,
                    "duration": 0.08771924999999214
                },
                {
                    "name": "A#5",
                    "midi": 82,
                    "time": 140.35079999999996,
                    "velocity": 0.6771653543307087,
                    "duration": 0.09649117499998283
                },
                {
                    "name": "A#4",
                    "midi": 70,
                    "time": 140.35079999999996,
                    "velocity": 0.5511811023622047,
                    "duration": 0.08771924999999214
                },
                {
                    "name": "F#5",
                    "midi": 78,
                    "time": 140.43851924999996,
                    "velocity": 0.5196850393700787,
                    "duration": 0.08771924999999214
                },
                {
                    "name": "A#4",
                    "midi": 70,
                    "time": 140.52623849999995,
                    "velocity": 0.49606299212598426,
                    "duration": 0.08771924999999214
                },
                {
                    "name": "A#5",
                    "midi": 82,
                    "time": 140.52623849999995,
                    "velocity": 0.5905511811023622,
                    "duration": 0.09649117499998283
                },
                {
                    "name": "F#5",
                    "midi": 78,
                    "time": 140.61395774999994,
                    "velocity": 0.5354330708661418,
                    "duration": 0.08771924999999214
                },
                {
                    "name": "C5",
                    "midi": 72,
                    "time": 140.70167699999993,
                    "velocity": 0.5196850393700787,
                    "duration": 0.08771924999999214
                },
                {
                    "name": "C6",
                    "midi": 84,
                    "time": 140.70167699999993,
                    "velocity": 0.6141732283464567,
                    "duration": 0.09649117499998283
                },
                {
                    "name": "A#5",
                    "midi": 82,
                    "time": 140.78939624999992,
                    "velocity": 0.5590551181102362,
                    "duration": 0.08771924999999214
                },
                {
                    "name": "C6",
                    "midi": 84,
                    "time": 140.87711549999992,
                    "velocity": 0.6141732283464567,
                    "duration": 0.09649117499998283
                },
                {
                    "name": "C5",
                    "midi": 72,
                    "time": 140.87711549999992,
                    "velocity": 0.5196850393700787,
                    "duration": 0.08771924999999214
                },
                {
                    "name": "A#5",
                    "midi": 82,
                    "time": 140.9648347499999,
                    "velocity": 0.5590551181102362,
                    "duration": 0.08771924999999214
                },
                {
                    "name": "C#6",
                    "midi": 85,
                    "time": 141.0525539999999,
                    "velocity": 0.7637795275590551,
                    "duration": 0.09649117499998283
                },
                {
                    "name": "C#5",
                    "midi": 73,
                    "time": 141.0525539999999,
                    "velocity": 0.6456692913385826,
                    "duration": 0.08771924999999214
                },
                {
                    "name": "A#5",
                    "midi": 82,
                    "time": 141.1402732499999,
                    "velocity": 0.5590551181102362,
                    "duration": 0.08771924999999214
                },
                {
                    "name": "C#5",
                    "midi": 73,
                    "time": 141.22799249999989,
                    "velocity": 0.5433070866141733,
                    "duration": 0.08771924999999214
                },
                {
                    "name": "C#6",
                    "midi": 85,
                    "time": 141.22799249999989,
                    "velocity": 0.6771653543307087,
                    "duration": 0.09649117499998283
                },
                {
                    "name": "A#5",
                    "midi": 82,
                    "time": 141.31571174999988,
                    "velocity": 0.5826771653543307,
                    "duration": 0.08771924999999214
                },
                {
                    "name": "D#5",
                    "midi": 75,
                    "time": 141.40343099999987,
                    "velocity": 0.5748031496062992,
                    "duration": 0.08771924999999214
                },
                {
                    "name": "D#6",
                    "midi": 87,
                    "time": 141.40343099999987,
                    "velocity": 0.6771653543307087,
                    "duration": 0.09649117499998283
                },
                {
                    "name": "A5",
                    "midi": 81,
                    "time": 141.49115024999986,
                    "velocity": 0.5748031496062992,
                    "duration": 0.08771924999999214
                },
                {
                    "name": "D#6",
                    "midi": 87,
                    "time": 141.57886949999985,
                    "velocity": 0.6850393700787402,
                    "duration": 0.09649117499998283
                },
                {
                    "name": "D#5",
                    "midi": 75,
                    "time": 141.57886949999985,
                    "velocity": 0.5905511811023622,
                    "duration": 0.08771924999999214
                },
                {
                    "name": "A5",
                    "midi": 81,
                    "time": 141.66658874999985,
                    "velocity": 0.6062992125984252,
                    "duration": 0.08771924999999214
                },
                {
                    "name": "A#5",
                    "midi": 82,
                    "time": 141.75430799999984,
                    "velocity": 0.7874015748031497,
                    "duration": 0.1754385000000127
                },
                {
                    "name": "F6",
                    "midi": 89,
                    "time": 141.92974649999985,
                    "velocity": 0.7637795275590551,
                    "duration": 0.350876999999997
                },
                {
                    "name": "F6",
                    "midi": 89,
                    "time": 142.28062349999985,
                    "velocity": 0.7322834645669292,
                    "duration": 0.1754385000000127
                },
                {
                    "name": "D#6",
                    "midi": 87,
                    "time": 142.45606199999986,
                    "velocity": 0.7401574803149606,
                    "duration": 0.08771924999999214
                },
                {
                    "name": "C6",
                    "midi": 84,
                    "time": 142.54378124999985,
                    "velocity": 0.5826771653543307,
                    "duration": 0.08771924999999214
                },
                {
                    "name": "A5",
                    "midi": 81,
                    "time": 142.63150049999985,
                    "velocity": 0.6377952755905512,
                    "duration": 0.08771924999999214
                },
                {
                    "name": "F5",
                    "midi": 77,
                    "time": 142.71921974999984,
                    "velocity": 0.6062992125984252,
                    "duration": 0.08771924999999214
                },
                {
                    "name": "D#5",
                    "midi": 75,
                    "time": 142.80693899999983,
                    "velocity": 0.4566929133858268,
                    "duration": 0.08771924999999214
                },
                {
                    "name": "D5",
                    "midi": 74,
                    "time": 142.89465824999982,
                    "velocity": 0.5039370078740157,
                    "duration": 0.08771924999999214
                },
                {
                    "name": "D#5",
                    "midi": 75,
                    "time": 142.9823774999998,
                    "velocity": 0.41732283464566927,
                    "duration": 0.08771924999999214
                },
                {
                    "name": "C5",
                    "midi": 72,
                    "time": 143.0700967499998,
                    "velocity": 0.49606299212598426,
                    "duration": 0.08771924999999214
                },
                {
                    "name": "A#4",
                    "midi": 70,
                    "time": 143.1578159999998,
                    "velocity": 0.6850393700787402,
                    "duration": 0.16081862499999033
                },
                {
                    "name": "F5",
                    "midi": 77,
                    "time": 143.33325449999978,
                    "velocity": 0.7637795275590551,
                    "duration": 0.350876999999997
                },
                {
                    "name": "F5",
                    "midi": 77,
                    "time": 143.68413149999978,
                    "velocity": 0.7322834645669292,
                    "duration": 0.1754385000000127
                },
                {
                    "name": "D#5",
                    "midi": 75,
                    "time": 143.8595699999998,
                    "velocity": 0.7401574803149606,
                    "duration": 0.08771924999999214
                },
                {
                    "name": "C5",
                    "midi": 72,
                    "time": 143.94728924999978,
                    "velocity": 0.5748031496062992,
                    "duration": 0.08771924999999214
                },
                {
                    "name": "A4",
                    "midi": 69,
                    "time": 144.03500849999978,
                    "velocity": 0.6377952755905512,
                    "duration": 0.08771924999999214
                },
                {
                    "name": "F4",
                    "midi": 65,
                    "time": 144.12272774999977,
                    "velocity": 0.5826771653543307,
                    "duration": 0.08771924999999214
                },
                {
                    "name": "D#4",
                    "midi": 63,
                    "time": 144.21044699999976,
                    "velocity": 0.4566929133858268,
                    "duration": 0.08771924999999214
                },
                {
                    "name": "D4",
                    "midi": 62,
                    "time": 144.29816624999975,
                    "velocity": 0.5039370078740157,
                    "duration": 0.08771924999999214
                },
                {
                    "name": "D#4",
                    "midi": 63,
                    "time": 144.38588549999974,
                    "velocity": 0.41732283464566927,
                    "duration": 0.08771924999999214
                },
                {
                    "name": "C4",
                    "midi": 60,
                    "time": 144.47360474999974,
                    "velocity": 0.49606299212598426,
                    "duration": 0.08771924999999214
                },
                {
                    "name": "A#3",
                    "midi": 58,
                    "time": 144.56132399999973,
                    "velocity": 0.6850393700787402,
                    "duration": 0.350876999999997
                },
                {
                    "name": "D#4",
                    "midi": 63,
                    "time": 147.36833999999973,
                    "velocity": 0.28346456692913385,
                    "duration": 0.701753999999994
                },
                {
                    "name": "A#3",
                    "midi": 58,
                    "time": 147.36833999999973,
                    "velocity": 0.28346456692913385,
                    "duration": 0.350876999999997
                },
                {
                    "name": "C#4",
                    "midi": 61,
                    "time": 147.36833999999973,
                    "velocity": 0.33858267716535434,
                    "duration": 0.350876999999997
                },
                {
                    "name": "G#3",
                    "midi": 56,
                    "time": 147.71921699999973,
                    "velocity": 0.2677165354330709,
                    "duration": 0.350876999999997
                },
                {
                    "name": "B3",
                    "midi": 59,
                    "time": 147.71921699999973,
                    "velocity": 0.31496062992125984,
                    "duration": 0.350876999999997
                },
                {
                    "name": "D#4",
                    "midi": 63,
                    "time": 150.17535599999974,
                    "velocity": 0.23622047244094488,
                    "duration": 1.4035080000000164
                },
                {
                    "name": "C4",
                    "midi": 60,
                    "time": 150.17535599999974,
                    "velocity": 0.23622047244094488,
                    "duration": 1.4035080000000164
                },
                {
                    "name": "F#4",
                    "midi": 66,
                    "time": 150.17535599999974,
                    "velocity": 0.28346456692913385,
                    "duration": 0.350876999999997
                },
                {
                    "name": "F4",
                    "midi": 65,
                    "time": 150.52623299999973,
                    "velocity": 0.2677165354330709,
                    "duration": 0.5116956249999873
                },
                {
                    "name": "F4",
                    "midi": 65,
                    "time": 151.05254849999972,
                    "velocity": 0.2677165354330709,
                    "duration": 0.1929823500000225
                },
                {
                    "name": "F#4",
                    "midi": 66,
                    "time": 151.22798699999973,
                    "velocity": 0.2677165354330709,
                    "duration": 0.1929823500000225
                },
                {
                    "name": "F4",
                    "midi": 65,
                    "time": 151.40342549999974,
                    "velocity": 0.2677165354330709,
                    "duration": 0.1754385000000127
                },
                {
                    "name": "D#4",
                    "midi": 63,
                    "time": 151.57886399999975,
                    "velocity": 0.23622047244094488,
                    "duration": 1.4035080000000164
                },
                {
                    "name": "C4",
                    "midi": 60,
                    "time": 151.57886399999975,
                    "velocity": 0.23622047244094488,
                    "duration": 1.4035080000000164
                },
                {
                    "name": "F#4",
                    "midi": 66,
                    "time": 151.57886399999975,
                    "velocity": 0.28346456692913385,
                    "duration": 0.350876999999997
                },
                {
                    "name": "F4",
                    "midi": 65,
                    "time": 151.92974099999975,
                    "velocity": 0.2677165354330709,
                    "duration": 0.5116956249999873
                },
                {
                    "name": "F4",
                    "midi": 65,
                    "time": 152.45605649999973,
                    "velocity": 0.2677165354330709,
                    "duration": 0.1929823500000225
                },
                {
                    "name": "F#4",
                    "midi": 66,
                    "time": 152.63149499999975,
                    "velocity": 0.2677165354330709,
                    "duration": 0.1929823500000225
                },
                {
                    "name": "F4",
                    "midi": 65,
                    "time": 152.80693349999976,
                    "velocity": 0.2677165354330709,
                    "duration": 0.1754385000000127
                },
                {
                    "name": "D#4",
                    "midi": 63,
                    "time": 152.98237199999977,
                    "velocity": 0.23622047244094488,
                    "duration": 0.350876999999997
                },
                {
                    "name": "C4",
                    "midi": 60,
                    "time": 152.98237199999977,
                    "velocity": 0.23622047244094488,
                    "duration": 0.350876999999997
                },
                {
                    "name": "F#4",
                    "midi": 66,
                    "time": 152.98237199999977,
                    "velocity": 0.28346456692913385,
                    "duration": 0.5263155000000097
                },
                {
                    "name": "F4",
                    "midi": 65,
                    "time": 153.50868749999978,
                    "velocity": 0.2677165354330709,
                    "duration": 0.1754385000000127
                },
                {
                    "name": "F#4",
                    "midi": 66,
                    "time": 153.6841259999998,
                    "velocity": 0.28346456692913385,
                    "duration": 0.5263155000000097
                },
                {
                    "name": "F4",
                    "midi": 65,
                    "time": 154.2104414999998,
                    "velocity": 0.2283464566929134,
                    "duration": 0.1754385000000127
                },
                {
                    "name": "F#4",
                    "midi": 66,
                    "time": 154.38587999999982,
                    "velocity": 0.2677165354330709,
                    "duration": 0.08771924999999214
                },
                {
                    "name": "F4",
                    "midi": 65,
                    "time": 154.4735992499998,
                    "velocity": 0.2283464566929134,
                    "duration": 0.08771924999999214
                },
                {
                    "name": "F#4",
                    "midi": 66,
                    "time": 154.5613184999998,
                    "velocity": 0.2677165354330709,
                    "duration": 0.08771924999999214
                },
                {
                    "name": "F4",
                    "midi": 65,
                    "time": 154.6490377499998,
                    "velocity": 0.2283464566929134,
                    "duration": 0.08771924999999214
                },
                {
                    "name": "F#4",
                    "midi": 66,
                    "time": 154.73675699999978,
                    "velocity": 0.2677165354330709,
                    "duration": 0.08771924999999214
                },
                {
                    "name": "F4",
                    "midi": 65,
                    "time": 154.82447624999978,
                    "velocity": 0.2283464566929134,
                    "duration": 0.08771924999999214
                },
                {
                    "name": "F#4",
                    "midi": 66,
                    "time": 154.91219549999977,
                    "velocity": 0.2677165354330709,
                    "duration": 0.08771924999999214
                },
                {
                    "name": "F4",
                    "midi": 65,
                    "time": 154.99991474999976,
                    "velocity": 0.23622047244094488,
                    "duration": 0.08771924999999214
                },
                {
                    "name": "F#4",
                    "midi": 66,
                    "time": 155.08763399999975,
                    "velocity": 0.2677165354330709,
                    "duration": 0.08771924999999214
                },
                {
                    "name": "F4",
                    "midi": 65,
                    "time": 155.17535324999974,
                    "velocity": 0.23622047244094488,
                    "duration": 0.08771924999999214
                },
                {
                    "name": "F#4",
                    "midi": 66,
                    "time": 155.26307249999974,
                    "velocity": 0.2677165354330709,
                    "duration": 0.08771924999999214
                },
                {
                    "name": "F4",
                    "midi": 65,
                    "time": 155.35079174999973,
                    "velocity": 0.2283464566929134,
                    "duration": 0.08771924999999214
                },
                {
                    "name": "F#4",
                    "midi": 66,
                    "time": 155.43851099999972,
                    "velocity": 0.2677165354330709,
                    "duration": 0.08771924999999214
                },
                {
                    "name": "F4",
                    "midi": 65,
                    "time": 155.5262302499997,
                    "velocity": 0.2283464566929134,
                    "duration": 0.08771924999999214
                },
                {
                    "name": "F#4",
                    "midi": 66,
                    "time": 155.6139494999997,
                    "velocity": 0.2677165354330709,
                    "duration": 0.08771924999999214
                },
                {
                    "name": "F4",
                    "midi": 65,
                    "time": 155.7016687499997,
                    "velocity": 0.2440944881889764,
                    "duration": 0.08771924999999214
                },
                {
                    "name": "G4",
                    "midi": 67,
                    "time": 155.7893879999997,
                    "velocity": 0.2677165354330709,
                    "duration": 0.08771924999999214
                },
                {
                    "name": "F4",
                    "midi": 65,
                    "time": 155.87710724999968,
                    "velocity": 0.2283464566929134,
                    "duration": 0.08771924999999214
                },
                {
                    "name": "G4",
                    "midi": 67,
                    "time": 155.96482649999967,
                    "velocity": 0.2755905511811024,
                    "duration": 0.08771924999999214
                },
                {
                    "name": "F4",
                    "midi": 65,
                    "time": 156.05254574999967,
                    "velocity": 0.23622047244094488,
                    "duration": 0.08771924999999214
                },
                {
                    "name": "G4",
                    "midi": 67,
                    "time": 156.14026499999966,
                    "velocity": 0.28346456692913385,
                    "duration": 0.08771924999999214
                },
                {
                    "name": "F4",
                    "midi": 65,
                    "time": 156.22798424999965,
                    "velocity": 0.2440944881889764,
                    "duration": 0.08771924999999214
                },
                {
                    "name": "G4",
                    "midi": 67,
                    "time": 156.31570349999964,
                    "velocity": 0.29133858267716534,
                    "duration": 0.08771924999999214
                },
                {
                    "name": "F4",
                    "midi": 65,
                    "time": 156.40342274999963,
                    "velocity": 0.25984251968503935,
                    "duration": 0.08771924999999214
                },
                {
                    "name": "G4",
                    "midi": 67,
                    "time": 156.49114199999963,
                    "velocity": 0.30708661417322836,
                    "duration": 0.08771924999999214
                },
                {
                    "name": "F4",
                    "midi": 65,
                    "time": 156.57886124999962,
                    "velocity": 0.2677165354330709,
                    "duration": 0.08771924999999214
                },
                {
                    "name": "G4",
                    "midi": 67,
                    "time": 156.6665804999996,
                    "velocity": 0.31496062992125984,
                    "duration": 0.08771924999999214
                },
                {
                    "name": "F4",
                    "midi": 65,
                    "time": 156.7542997499996,
                    "velocity": 0.2677165354330709,
                    "duration": 0.08771924999999214
                },
                {
                    "name": "G4",
                    "midi": 67,
                    "time": 156.8420189999996,
                    "velocity": 0.3228346456692913,
                    "duration": 0.08771924999999214
                },
                {
                    "name": "F4",
                    "midi": 65,
                    "time": 156.9297382499996,
                    "velocity": 0.2755905511811024,
                    "duration": 0.08771924999999214
                },
                {
                    "name": "G4",
                    "midi": 67,
                    "time": 157.01745749999958,
                    "velocity": 0.33070866141732286,
                    "duration": 0.08771924999999214
                },
                {
                    "name": "F4",
                    "midi": 65,
                    "time": 157.10517674999957,
                    "velocity": 0.30708661417322836,
                    "duration": 0.08771924999999214
                },
                {
                    "name": "F4",
                    "midi": 65,
                    "time": 157.36833449999958,
                    "velocity": 0.33070866141732286,
                    "duration": 0.1754385000000127
                },
                {
                    "name": "F5",
                    "midi": 77,
                    "time": 157.5437729999996,
                    "velocity": 0.3779527559055118,
                    "duration": 0.1754385000000127
                },
                {
                    "name": "F4",
                    "midi": 65,
                    "time": 157.7192114999996,
                    "velocity": 0.33070866141732286,
                    "duration": 0.1754385000000127
                },
                {
                    "name": "F4",
                    "midi": 65,
                    "time": 158.07008849999963,
                    "velocity": 0.33070866141732286,
                    "duration": 0.1754385000000127
                },
                {
                    "name": "F5",
                    "midi": 77,
                    "time": 158.24552699999964,
                    "velocity": 0.3700787401574803,
                    "duration": 0.1754385000000127
                },
                {
                    "name": "F4",
                    "midi": 65,
                    "time": 158.42096549999965,
                    "velocity": 0.33070866141732286,
                    "duration": 0.1754385000000127
                },
                {
                    "name": "F4",
                    "midi": 65,
                    "time": 158.77184249999968,
                    "velocity": 0.33070866141732286,
                    "duration": 0.1754385000000127
                },
                {
                    "name": "F5",
                    "midi": 77,
                    "time": 158.9472809999997,
                    "velocity": 0.3779527559055118,
                    "duration": 0.1754385000000127
                },
                {
                    "name": "F4",
                    "midi": 65,
                    "time": 159.1227194999997,
                    "velocity": 0.33070866141732286,
                    "duration": 0.1754385000000127
                },
                {
                    "name": "F5",
                    "midi": 77,
                    "time": 159.29815799999972,
                    "velocity": 0.3779527559055118,
                    "duration": 0.1754385000000127
                },
                {
                    "name": "F4",
                    "midi": 65,
                    "time": 160.17535049999972,
                    "velocity": 0.33070866141732286,
                    "duration": 0.1754385000000127
                },
                {
                    "name": "F5",
                    "midi": 77,
                    "time": 160.35078899999974,
                    "velocity": 0.3779527559055118,
                    "duration": 0.1754385000000127
                },
                {
                    "name": "F4",
                    "midi": 65,
                    "time": 160.52622749999975,
                    "velocity": 0.33070866141732286,
                    "duration": 0.1754385000000127
                },
                {
                    "name": "F4",
                    "midi": 65,
                    "time": 160.87710449999977,
                    "velocity": 0.33070866141732286,
                    "duration": 0.1754385000000127
                },
                {
                    "name": "F5",
                    "midi": 77,
                    "time": 161.0525429999998,
                    "velocity": 0.3700787401574803,
                    "duration": 0.1754385000000127
                },
                {
                    "name": "F4",
                    "midi": 65,
                    "time": 161.2279814999998,
                    "velocity": 0.33070866141732286,
                    "duration": 0.1754385000000127
                },
                {
                    "name": "F4",
                    "midi": 65,
                    "time": 161.57885849999982,
                    "velocity": 0.33070866141732286,
                    "duration": 0.1754385000000127
                },
                {
                    "name": "F5",
                    "midi": 77,
                    "time": 161.75429699999984,
                    "velocity": 0.3779527559055118,
                    "duration": 0.1754385000000127
                },
                {
                    "name": "F4",
                    "midi": 65,
                    "time": 161.92973549999985,
                    "velocity": 0.33070866141732286,
                    "duration": 0.1754385000000127
                },
                {
                    "name": "F5",
                    "midi": 77,
                    "time": 162.10517399999986,
                    "velocity": 0.3779527559055118,
                    "duration": 0.350876999999997
                },
                {
                    "name": "F5",
                    "midi": 77,
                    "time": 162.98236649999987,
                    "velocity": 0.4409448818897638,
                    "duration": 0.1754385000000127
                },
                {
                    "name": "F6",
                    "midi": 89,
                    "time": 163.15780499999988,
                    "velocity": 0.5275590551181102,
                    "duration": 0.350876999999997
                },
                {
                    "name": "F4",
                    "midi": 65,
                    "time": 163.6841204999999,
                    "velocity": 0.3700787401574803,
                    "duration": 0.1754385000000127
                },
                {
                    "name": "F5",
                    "midi": 77,
                    "time": 163.8595589999999,
                    "velocity": 0.4251968503937008,
                    "duration": 0.350876999999997
                },
                {
                    "name": "F5",
                    "midi": 77,
                    "time": 164.38587449999991,
                    "velocity": 0.5196850393700787,
                    "duration": 0.1754385000000127
                },
                {
                    "name": "F6",
                    "midi": 89,
                    "time": 164.56131299999993,
                    "velocity": 0.6141732283464567,
                    "duration": 0.5263155000000097
                },
                {
                    "name": "F5",
                    "midi": 77,
                    "time": 165.08762849999994,
                    "velocity": 0.5590551181102362,
                    "duration": 0.350876999999997
                },
                {
                    "name": "G5",
                    "midi": 79,
                    "time": 165.43850549999993,
                    "velocity": 0.5275590551181102,
                    "duration": 0.08771924999999214
                },
                {
                    "name": "A5",
                    "midi": 81,
                    "time": 165.52622474999993,
                    "velocity": 0.5511811023622047,
                    "duration": 0.08771924999999214
                },
                {
                    "name": "A#5",
                    "midi": 82,
                    "time": 165.61394399999992,
                    "velocity": 0.5669291338582677,
                    "duration": 0.08771924999999214
                },
                {
                    "name": "C6",
                    "midi": 84,
                    "time": 165.7016632499999,
                    "velocity": 0.5748031496062992,
                    "duration": 0.08771924999999214
                },
                {
                    "name": "D6",
                    "midi": 86,
                    "time": 165.7893824999999,
                    "velocity": 0.5905511811023622,
                    "duration": 0.08771924999999214
                },
                {
                    "name": "C6",
                    "midi": 84,
                    "time": 165.8771017499999,
                    "velocity": 0.5748031496062992,
                    "duration": 0.08771924999999214
                },
                {
                    "name": "A#5",
                    "midi": 82,
                    "time": 165.9648209999999,
                    "velocity": 0.5826771653543307,
                    "duration": 0.08771924999999214
                },
                {
                    "name": "A5",
                    "midi": 81,
                    "time": 166.05254024999988,
                    "velocity": 0.5511811023622047,
                    "duration": 0.08771924999999214
                },
                {
                    "name": "G5",
                    "midi": 79,
                    "time": 166.14025949999987,
                    "velocity": 0.5590551181102362,
                    "duration": 0.08771924999999214
                },
                {
                    "name": "F5",
                    "midi": 77,
                    "time": 166.22797874999986,
                    "velocity": 0.5433070866141733,
                    "duration": 0.08771924999999214
                },
                {
                    "name": "E5",
                    "midi": 76,
                    "time": 166.31569799999986,
                    "velocity": 0.5354330708661418,
                    "duration": 0.08771924999999214
                },
                {
                    "name": "D5",
                    "midi": 74,
                    "time": 166.40341724999985,
                    "velocity": 0.5196850393700787,
                    "duration": 0.08771924999999214
                },
                {
                    "name": "C5",
                    "midi": 72,
                    "time": 166.49113649999984,
                    "velocity": 0.49606299212598426,
                    "duration": 0.08771924999999214
                },
                {
                    "name": "A#4",
                    "midi": 70,
                    "time": 166.57885574999983,
                    "velocity": 0.4881889763779528,
                    "duration": 0.08771924999999214
                },
                {
                    "name": "A4",
                    "midi": 69,
                    "time": 166.66657499999982,
                    "velocity": 0.47244094488188976,
                    "duration": 0.08771924999999214
                },
                {
                    "name": "G4",
                    "midi": 67,
                    "time": 166.75429424999982,
                    "velocity": 0.4566929133858268,
                    "duration": 0.08771924999999214
                },
                {
                    "name": "F4",
                    "midi": 65,
                    "time": 166.8420134999998,
                    "velocity": 0.44881889763779526,
                    "duration": 0.08771924999999214
                },
                {
                    "name": "E4",
                    "midi": 64,
                    "time": 166.9297327499998,
                    "velocity": 0.4330708661417323,
                    "duration": 0.08771924999999214
                },
                {
                    "name": "G4",
                    "midi": 67,
                    "time": 167.0174519999998,
                    "velocity": 0.4251968503937008,
                    "duration": 0.08771924999999214
                },
                {
                    "name": "F4",
                    "midi": 65,
                    "time": 167.10517124999978,
                    "velocity": 0.3858267716535433,
                    "duration": 0.08771924999999214
                },
                {
                    "name": "A4",
                    "midi": 69,
                    "time": 167.19289049999978,
                    "velocity": 0.4251968503937008,
                    "duration": 0.08771924999999214
                },
                {
                    "name": "G4",
                    "midi": 67,
                    "time": 167.28060974999977,
                    "velocity": 0.3779527559055118,
                    "duration": 0.08771924999999214
                },
                {
                    "name": "A#4",
                    "midi": 70,
                    "time": 167.36832899999976,
                    "velocity": 0.4251968503937008,
                    "duration": 0.08771924999999214
                },
                {
                    "name": "A4",
                    "midi": 69,
                    "time": 167.45604824999975,
                    "velocity": 0.3937007874015748,
                    "duration": 0.08771924999999214
                },
                {
                    "name": "C5",
                    "midi": 72,
                    "time": 167.54376749999975,
                    "velocity": 0.4251968503937008,
                    "duration": 0.08771924999999214
                },
                {
                    "name": "A#4",
                    "midi": 70,
                    "time": 167.63148674999974,
                    "velocity": 0.3858267716535433,
                    "duration": 0.08771924999999214
                },
                {
                    "name": "D5",
                    "midi": 74,
                    "time": 167.71920599999973,
                    "velocity": 0.4251968503937008,
                    "duration": 0.08771924999999214
                },
                {
                    "name": "C5",
                    "midi": 72,
                    "time": 167.80692524999972,
                    "velocity": 0.3779527559055118,
                    "duration": 0.08771924999999214
                },
                {
                    "name": "D#5",
                    "midi": 75,
                    "time": 167.8946444999997,
                    "velocity": 0.4251968503937008,
                    "duration": 0.08771924999999214
                },
                {
                    "name": "D5",
                    "midi": 74,
                    "time": 167.9823637499997,
                    "velocity": 0.3858267716535433,
                    "duration": 0.08771924999999214
                },
                {
                    "name": "F5",
                    "midi": 77,
                    "time": 168.0700829999997,
                    "velocity": 0.4251968503937008,
                    "duration": 0.08771924999999214
                },
                {
                    "name": "E5",
                    "midi": 76,
                    "time": 168.1578022499997,
                    "velocity": 0.3779527559055118,
                    "duration": 0.08771924999999214
                },
                {
                    "name": "G5",
                    "midi": 79,
                    "time": 168.24552149999968,
                    "velocity": 0.41732283464566927,
                    "duration": 0.08771924999999214
                },
                {
                    "name": "F5",
                    "midi": 77,
                    "time": 168.33324074999967,
                    "velocity": 0.3858267716535433,
                    "duration": 0.08771924999999214
                },
                {
                    "name": "D#4",
                    "midi": 63,
                    "time": 168.42095999999967,
                    "velocity": 0.33070866141732286,
                    "duration": 0.1754385000000127
                },
                {
                    "name": "D#5",
                    "midi": 75,
                    "time": 168.42095999999967,
                    "velocity": 0.3937007874015748,
                    "duration": 0.1754385000000127
                },
                {
                    "name": "D4",
                    "midi": 62,
                    "time": 168.59639849999968,
                    "velocity": 0.30708661417322836,
                    "duration": 0.1754385000000127
                },
                {
                    "name": "D5",
                    "midi": 74,
                    "time": 168.59639849999968,
                    "velocity": 0.36220472440944884,
                    "duration": 0.1754385000000127
                },
                {
                    "name": "C4",
                    "midi": 60,
                    "time": 168.7718369999997,
                    "velocity": 0.30708661417322836,
                    "duration": 0.1754385000000127
                },
                {
                    "name": "C5",
                    "midi": 72,
                    "time": 168.7718369999997,
                    "velocity": 0.36220472440944884,
                    "duration": 0.1754385000000127
                },
                {
                    "name": "A#3",
                    "midi": 58,
                    "time": 168.9472754999997,
                    "velocity": 0.30708661417322836,
                    "duration": 0.1754385000000127
                },
                {
                    "name": "A#4",
                    "midi": 70,
                    "time": 168.9472754999997,
                    "velocity": 0.36220472440944884,
                    "duration": 0.1754385000000127
                },
                {
                    "name": "A3",
                    "midi": 57,
                    "time": 169.12271399999972,
                    "velocity": 0.33070866141732286,
                    "duration": 0.350876999999997
                },
                {
                    "name": "A4",
                    "midi": 69,
                    "time": 169.12271399999972,
                    "velocity": 0.33070866141732286,
                    "duration": 0.350876999999997
                },
                {
                    "name": "A#3",
                    "midi": 58,
                    "time": 169.47359099999971,
                    "velocity": 0.30708661417322836,
                    "duration": 0.350876999999997
                },
                {
                    "name": "A#4",
                    "midi": 70,
                    "time": 169.47359099999971,
                    "velocity": 0.3700787401574803,
                    "duration": 0.350876999999997
                },
                {
                    "name": "B3",
                    "midi": 59,
                    "time": 169.8244679999997,
                    "velocity": 0.3543307086614173,
                    "duration": 0.350876999999997
                },
                {
                    "name": "B4",
                    "midi": 71,
                    "time": 169.8244679999997,
                    "velocity": 0.41732283464566927,
                    "duration": 0.350876999999997
                },
                {
                    "name": "C4",
                    "midi": 60,
                    "time": 170.1753449999997,
                    "velocity": 0.3228346456692913,
                    "duration": 0.5263155000000097
                },
                {
                    "name": "C5",
                    "midi": 72,
                    "time": 170.1753449999997,
                    "velocity": 0.3858267716535433,
                    "duration": 0.5263155000000097
                },
                {
                    "name": "F#4",
                    "midi": 66,
                    "time": 170.70166049999972,
                    "velocity": 0.3779527559055118,
                    "duration": 0.08771924999999214
                },
                {
                    "name": "F#5",
                    "midi": 78,
                    "time": 170.7893797499997,
                    "velocity": 0.3543307086614173,
                    "duration": 0.08771924999999214
                },
                {
                    "name": "A4",
                    "midi": 69,
                    "time": 170.8770989999997,
                    "velocity": 0.33858267716535434,
                    "duration": 0.08771924999999214
                },
                {
                    "name": "A5",
                    "midi": 81,
                    "time": 170.9648182499997,
                    "velocity": 0.36220472440944884,
                    "duration": 0.08771924999999214
                },
                {
                    "name": "G4",
                    "midi": 67,
                    "time": 171.0525374999997,
                    "velocity": 0.41732283464566927,
                    "duration": 0.08771924999999214
                },
                {
                    "name": "G5",
                    "midi": 79,
                    "time": 171.14025674999968,
                    "velocity": 0.36220472440944884,
                    "duration": 0.08771924999999214
                },
                {
                    "name": "F4",
                    "midi": 65,
                    "time": 171.22797599999967,
                    "velocity": 0.4094488188976378,
                    "duration": 0.08771924999999214
                },
                {
                    "name": "F5",
                    "midi": 77,
                    "time": 171.31569524999966,
                    "velocity": 0.3700787401574803,
                    "duration": 0.08771924999999214
                },
                {
                    "name": "D#4",
                    "midi": 63,
                    "time": 171.40341449999966,
                    "velocity": 0.4015748031496063,
                    "duration": 0.08771924999999214
                },
                {
                    "name": "D#5",
                    "midi": 75,
                    "time": 171.49113374999965,
                    "velocity": 0.36220472440944884,
                    "duration": 0.08771924999999214
                },
                {
                    "name": "D4",
                    "midi": 62,
                    "time": 171.57885299999964,
                    "velocity": 0.4015748031496063,
                    "duration": 0.08771924999999214
                },
                {
                    "name": "D5",
                    "midi": 74,
                    "time": 171.66657224999963,
                    "velocity": 0.36220472440944884,
                    "duration": 0.08771924999999214
                },
                {
                    "name": "C4",
                    "midi": 60,
                    "time": 171.75429149999962,
                    "velocity": 0.4015748031496063,
                    "duration": 0.08771924999999214
                },
                {
                    "name": "C5",
                    "midi": 72,
                    "time": 171.84201074999962,
                    "velocity": 0.36220472440944884,
                    "duration": 0.08771924999999214
                },
                {
                    "name": "A3",
                    "midi": 57,
                    "time": 171.9297299999996,
                    "velocity": 0.3937007874015748,
                    "duration": 0.08771924999999214
                },
                {
                    "name": "A4",
                    "midi": 69,
                    "time": 172.0174492499996,
                    "velocity": 0.33070866141732286,
                    "duration": 0.08771924999999214
                },
                {
                    "name": "A#3",
                    "midi": 58,
                    "time": 172.1051684999996,
                    "velocity": 0.3700787401574803,
                    "duration": 0.08771924999999214
                },
                {
                    "name": "A#4",
                    "midi": 70,
                    "time": 172.19288774999958,
                    "velocity": 0.33070866141732286,
                    "duration": 0.08771924999999214
                },
                {
                    "name": "B3",
                    "midi": 59,
                    "time": 172.28060699999958,
                    "velocity": 0.3858267716535433,
                    "duration": 0.08771924999999214
                },
                {
                    "name": "B4",
                    "midi": 71,
                    "time": 172.36832624999957,
                    "velocity": 0.33070866141732286,
                    "duration": 0.08771924999999214
                },
                {
                    "name": "C4",
                    "midi": 60,
                    "time": 172.45604549999956,
                    "velocity": 0.3858267716535433,
                    "duration": 0.08771924999999214
                },
                {
                    "name": "C5",
                    "midi": 72,
                    "time": 172.54376474999955,
                    "velocity": 0.33070866141732286,
                    "duration": 0.08771924999999214
                },
                {
                    "name": "C#4",
                    "midi": 61,
                    "time": 172.63148399999955,
                    "velocity": 0.3543307086614173,
                    "duration": 0.350876999999997
                },
                {
                    "name": "C#5",
                    "midi": 73,
                    "time": 172.63148399999955,
                    "velocity": 0.41732283464566927,
                    "duration": 0.350876999999997
                },
                {
                    "name": "D4",
                    "midi": 62,
                    "time": 172.98236099999954,
                    "velocity": 0.3228346456692913,
                    "duration": 0.5263155000000097
                },
                {
                    "name": "D5",
                    "midi": 74,
                    "time": 172.98236099999954,
                    "velocity": 0.3858267716535433,
                    "duration": 0.5263155000000097
                },
                {
                    "name": "F4",
                    "midi": 65,
                    "time": 173.50867649999955,
                    "velocity": 0.4409448818897638,
                    "duration": 0.08771924999999214
                },
                {
                    "name": "F5",
                    "midi": 77,
                    "time": 173.59639574999954,
                    "velocity": 0.4094488188976378,
                    "duration": 0.08771924999999214
                },
                {
                    "name": "G4",
                    "midi": 67,
                    "time": 173.68411499999954,
                    "velocity": 0.5039370078740157,
                    "duration": 0.08771924999999214
                },
                {
                    "name": "G5",
                    "midi": 79,
                    "time": 173.77183424999953,
                    "velocity": 0.4566929133858268,
                    "duration": 0.08771924999999214
                },
                {
                    "name": "D4",
                    "midi": 62,
                    "time": 173.85955349999952,
                    "velocity": 0.44881889763779526,
                    "duration": 0.08771924999999214
                },
                {
                    "name": "D5",
                    "midi": 74,
                    "time": 173.9472727499995,
                    "velocity": 0.4094488188976378,
                    "duration": 0.08771924999999214
                },
                {
                    "name": "F4",
                    "midi": 65,
                    "time": 174.0349919999995,
                    "velocity": 0.4881889763779528,
                    "duration": 0.08771924999999214
                },
                {
                    "name": "F5",
                    "midi": 77,
                    "time": 174.1227112499995,
                    "velocity": 0.4645669291338583,
                    "duration": 0.08771924999999214
                },
                {
                    "name": "D#4",
                    "midi": 63,
                    "time": 174.2104304999995,
                    "velocity": 0.4566929133858268,
                    "duration": 0.08771924999999214
                },
                {
                    "name": "D#5",
                    "midi": 75,
                    "time": 174.29814974999948,
                    "velocity": 0.41732283464566927,
                    "duration": 0.08771924999999214
                },
                {
                    "name": "F4",
                    "midi": 65,
                    "time": 174.38586899999947,
                    "velocity": 0.5039370078740157,
                    "duration": 0.08771924999999214
                },
                {
                    "name": "F5",
                    "midi": 77,
                    "time": 174.47358824999947,
                    "velocity": 0.4566929133858268,
                    "duration": 0.08771924999999214
                },
                {
                    "name": "C4",
                    "midi": 60,
                    "time": 174.56130749999946,
                    "velocity": 0.4566929133858268,
                    "duration": 0.08771924999999214
                },
                {
                    "name": "C5",
                    "midi": 72,
                    "time": 174.64902674999945,
                    "velocity": 0.4015748031496063,
                    "duration": 0.08771924999999214
                },
                {
                    "name": "D#4",
                    "midi": 63,
                    "time": 174.73674599999944,
                    "velocity": 0.5039370078740157,
                    "duration": 0.08771924999999214
                },
                {
                    "name": "D#5",
                    "midi": 75,
                    "time": 174.82446524999943,
                    "velocity": 0.4645669291338583,
                    "duration": 0.08771924999999214
                },
                {
                    "name": "D4",
                    "midi": 62,
                    "time": 174.91218449999943,
                    "velocity": 0.4645669291338583,
                    "duration": 0.08771924999999214
                },
                {
                    "name": "D5",
                    "midi": 74,
                    "time": 174.99990374999942,
                    "velocity": 0.41732283464566927,
                    "duration": 0.08771924999999214
                },
                {
                    "name": "G4",
                    "midi": 67,
                    "time": 175.0876229999994,
                    "velocity": 0.5275590551181102,
                    "duration": 0.08771924999999214
                },
                {
                    "name": "G5",
                    "midi": 79,
                    "time": 175.1753422499994,
                    "velocity": 0.47244094488188976,
                    "duration": 0.08771924999999214
                },
                {
                    "name": "D4",
                    "midi": 62,
                    "time": 175.2630614999994,
                    "velocity": 0.4645669291338583,
                    "duration": 0.08771924999999214
                },
                {
                    "name": "D5",
                    "midi": 74,
                    "time": 175.3507807499994,
                    "velocity": 0.4330708661417323,
                    "duration": 0.08771924999999214
                },
                {
                    "name": "F4",
                    "midi": 65,
                    "time": 175.43849999999938,
                    "velocity": 0.5590551181102362,
                    "duration": 0.08771924999999214
                },
                {
                    "name": "F5",
                    "midi": 77,
                    "time": 175.52621924999937,
                    "velocity": 0.5275590551181102,
                    "duration": 0.08771924999999214
                },
                {
                    "name": "D#4",
                    "midi": 63,
                    "time": 175.61393849999936,
                    "velocity": 0.5039370078740157,
                    "duration": 0.08771924999999214
                },
                {
                    "name": "D#5",
                    "midi": 75,
                    "time": 175.70165774999936,
                    "velocity": 0.4645669291338583,
                    "duration": 0.08771924999999214
                },
                {
                    "name": "F4",
                    "midi": 65,
                    "time": 175.78937699999935,
                    "velocity": 0.5669291338582677,
                    "duration": 0.08771924999999214
                },
                {
                    "name": "F5",
                    "midi": 77,
                    "time": 175.87709624999934,
                    "velocity": 0.5275590551181102,
                    "duration": 0.08771924999999214
                },
                {
                    "name": "C4",
                    "midi": 60,
                    "time": 175.96481549999933,
                    "velocity": 0.49606299212598426,
                    "duration": 0.08771924999999214
                },
                {
                    "name": "C5",
                    "midi": 72,
                    "time": 176.05253474999932,
                    "velocity": 0.47244094488188976,
                    "duration": 0.08771924999999214
                },
                {
                    "name": "D#4",
                    "midi": 63,
                    "time": 176.14025399999932,
                    "velocity": 0.5590551181102362,
                    "duration": 0.08771924999999214
                },
                {
                    "name": "D#5",
                    "midi": 75,
                    "time": 176.2279732499993,
                    "velocity": 0.5039370078740157,
                    "duration": 0.08771924999999214
                },
                {
                    "name": "D4",
                    "midi": 62,
                    "time": 176.3156924999993,
                    "velocity": 0.5039370078740157,
                    "duration": 0.08771924999999214
                },
                {
                    "name": "D5",
                    "midi": 74,
                    "time": 176.4034117499993,
                    "velocity": 0.44881889763779526,
                    "duration": 0.08771924999999214
                },
                {
                    "name": "D#4",
                    "midi": 63,
                    "time": 176.49113099999929,
                    "velocity": 0.5275590551181102,
                    "duration": 0.08771924999999214
                },
                {
                    "name": "D#5",
                    "midi": 75,
                    "time": 176.57885024999928,
                    "velocity": 0.4566929133858268,
                    "duration": 0.08771924999999214
                },
                {
                    "name": "F4",
                    "midi": 65,
                    "time": 176.66656949999927,
                    "velocity": 0.5590551181102362,
                    "duration": 0.08771924999999214
                },
                {
                    "name": "F5",
                    "midi": 77,
                    "time": 176.75428874999926,
                    "velocity": 0.5039370078740157,
                    "duration": 0.08771924999999214
                },
                {
                    "name": "F#4",
                    "midi": 66,
                    "time": 176.84200799999925,
                    "velocity": 0.5984251968503937,
                    "duration": 0.08771924999999214
                },
                {
                    "name": "F#5",
                    "midi": 78,
                    "time": 176.92972724999925,
                    "velocity": 0.5433070866141733,
                    "duration": 0.08771924999999214
                },
                {
                    "name": "G4",
                    "midi": 67,
                    "time": 177.01744649999924,
                    "velocity": 0.5984251968503937,
                    "duration": 0.08771924999999214
                },
                {
                    "name": "G5",
                    "midi": 79,
                    "time": 177.10516574999923,
                    "velocity": 0.5433070866141733,
                    "duration": 0.08771924999999214
                },
                {
                    "name": "A4",
                    "midi": 69,
                    "time": 177.19288499999922,
                    "velocity": 0.5984251968503937,
                    "duration": 0.08771924999999214
                },
                {
                    "name": "A5",
                    "midi": 81,
                    "time": 177.28060424999921,
                    "velocity": 0.5196850393700787,
                    "duration": 0.08771924999999214
                },
                {
                    "name": "A#4",
                    "midi": 70,
                    "time": 177.3683234999992,
                    "velocity": 0.6141732283464567,
                    "duration": 0.08771924999999214
                },
                {
                    "name": "A#5",
                    "midi": 82,
                    "time": 177.4560427499992,
                    "velocity": 0.5511811023622047,
                    "duration": 0.08771924999999214
                },
                {
                    "name": "A#3",
                    "midi": 58,
                    "time": 177.5437619999992,
                    "velocity": 0.5590551181102362,
                    "duration": 0.350876999999997
                },
                {
                    "name": "A#4",
                    "midi": 70,
                    "time": 177.5437619999992,
                    "velocity": 0.5590551181102362,
                    "duration": 0.350876999999997
                },
                {
                    "name": "C4",
                    "midi": 60,
                    "time": 177.8946389999992,
                    "velocity": 0.4566929133858268,
                    "duration": 0.350876999999997
                },
                {
                    "name": "C5",
                    "midi": 72,
                    "time": 177.8946389999992,
                    "velocity": 0.5433070866141733,
                    "duration": 0.350876999999997
                },
                {
                    "name": "C#4",
                    "midi": 61,
                    "time": 178.24551599999918,
                    "velocity": 0.3228346456692913,
                    "duration": 0.350876999999997
                },
                {
                    "name": "C#5",
                    "midi": 73,
                    "time": 178.24551599999918,
                    "velocity": 0.3858267716535433,
                    "duration": 0.350876999999997
                },
                {
                    "name": "D4",
                    "midi": 62,
                    "time": 178.59639299999918,
                    "velocity": 0.2992125984251969,
                    "duration": 0.43859624999998914
                },
                {
                    "name": "D5",
                    "midi": 74,
                    "time": 178.59639299999918,
                    "velocity": 0.3543307086614173,
                    "duration": 0.43859624999998914
                },
                {
                    "name": "A#4",
                    "midi": 70,
                    "time": 179.03498924999917,
                    "velocity": 0.4645669291338583,
                    "duration": 0.08771924999999214
                },
                {
                    "name": "A4",
                    "midi": 69,
                    "time": 179.12270849999916,
                    "velocity": 0.48031496062992124,
                    "duration": 0.08771924999999214
                },
                {
                    "name": "A#4",
                    "midi": 70,
                    "time": 179.21042774999916,
                    "velocity": 0.4881889763779528,
                    "duration": 0.08771924999999214
                },
                {
                    "name": "B4",
                    "midi": 71,
                    "time": 179.29814699999915,
                    "velocity": 0.4881889763779528,
                    "duration": 0.08771924999999214
                },
                {
                    "name": "C5",
                    "midi": 72,
                    "time": 179.38586624999914,
                    "velocity": 0.5039370078740157,
                    "duration": 0.08771924999999214
                },
                {
                    "name": "C#5",
                    "midi": 73,
                    "time": 179.47358549999913,
                    "velocity": 0.5118110236220472,
                    "duration": 0.08771924999999214
                },
                {
                    "name": "D5",
                    "midi": 74,
                    "time": 179.56130474999912,
                    "velocity": 0.5275590551181102,
                    "duration": 0.08771924999999214
                },
                {
                    "name": "D#5",
                    "midi": 75,
                    "time": 179.64902399999912,
                    "velocity": 0.5433070866141733,
                    "duration": 0.08771924999999214
                },
                {
                    "name": "E5",
                    "midi": 76,
                    "time": 179.7367432499991,
                    "velocity": 0.5511811023622047,
                    "duration": 0.08771924999999214
                },
                {
                    "name": "F5",
                    "midi": 77,
                    "time": 179.8244624999991,
                    "velocity": 0.5590551181102362,
                    "duration": 0.08771924999999214
                },
                {
                    "name": "F#5",
                    "midi": 78,
                    "time": 179.9121817499991,
                    "velocity": 0.5748031496062992,
                    "duration": 0.08771924999999214
                },
                {
                    "name": "G5",
                    "midi": 79,
                    "time": 179.99990099999908,
                    "velocity": 0.5826771653543307,
                    "duration": 0.08771924999999214
                },
                {
                    "name": "G#5",
                    "midi": 80,
                    "time": 180.08762024999908,
                    "velocity": 0.5984251968503937,
                    "duration": 0.08771924999999214
                },
                {
                    "name": "A5",
                    "midi": 81,
                    "time": 180.17533949999907,
                    "velocity": 0.6062992125984252,
                    "duration": 0.08771924999999214
                },
                {
                    "name": "A#5",
                    "midi": 82,
                    "time": 180.26305874999906,
                    "velocity": 0.6141732283464567,
                    "duration": 0.08771924999999214
                },
                {
                    "name": "A#4",
                    "midi": 70,
                    "time": 180.35077799999905,
                    "velocity": 0.41732283464566927,
                    "duration": 0.07017540000001077
                },
                {
                    "name": "C5",
                    "midi": 72,
                    "time": 180.42095339999906,
                    "velocity": 0.3779527559055118,
                    "duration": 0.07017540000001077
                },
                {
                    "name": "A#4",
                    "midi": 70,
                    "time": 180.49112879999907,
                    "velocity": 0.3543307086614173,
                    "duration": 0.07017540000001077
                },
                {
                    "name": "A4",
                    "midi": 69,
                    "time": 180.56130419999909,
                    "velocity": 0.3543307086614173,
                    "duration": 0.07017540000001077
                },
                {
                    "name": "A#4",
                    "midi": 70,
                    "time": 180.6314795999991,
                    "velocity": 0.3543307086614173,
                    "duration": 0.07017540000001077
                },
                {
                    "name": "D#4",
                    "midi": 63,
                    "time": 180.7016549999991,
                    "velocity": 0.33070866141732286,
                    "duration": 0.350876999999997
                },
                {
                    "name": "D5",
                    "midi": 74,
                    "time": 180.7016549999991,
                    "velocity": 0.4094488188976378,
                    "duration": 0.26315775000000485
                },
                {
                    "name": "C5",
                    "midi": 72,
                    "time": 180.9648127499991,
                    "velocity": 0.3228346456692913,
                    "duration": 0.08771924999999214
                },
                {
                    "name": "D4",
                    "midi": 62,
                    "time": 181.0525319999991,
                    "velocity": 0.33070866141732286,
                    "duration": 0.350876999999997
                },
                {
                    "name": "A#4",
                    "midi": 70,
                    "time": 181.0525319999991,
                    "velocity": 0.3937007874015748,
                    "duration": 0.350876999999997
                },
                {
                    "name": "F4",
                    "midi": 65,
                    "time": 181.7542859999991,
                    "velocity": 0.5275590551181102,
                    "duration": 0.701753999999994
                },
                {
                    "name": "D5",
                    "midi": 74,
                    "time": 181.7542859999991,
                    "velocity": 0.6299212598425197,
                    "duration": 0.701753999999994
                },
                {
                    "name": "G4",
                    "midi": 67,
                    "time": 182.4560399999991,
                    "velocity": 0.3543307086614173,
                    "duration": 0.7017540000000224
                },
                {
                    "name": "C5",
                    "midi": 72,
                    "time": 182.4560399999991,
                    "velocity": 0.41732283464566927,
                    "duration": 0.07602335000001403
                },
                {
                    "name": "D5",
                    "midi": 74,
                    "time": 182.5320633499991,
                    "velocity": 0.3937007874015748,
                    "duration": 0.0745613624999919
                },
                {
                    "name": "C5",
                    "midi": 72,
                    "time": 182.6066247124991,
                    "velocity": 0.41732283464566927,
                    "duration": 0.07602335000001403
                },
                {
                    "name": "D5",
                    "midi": 74,
                    "time": 182.6826480624991,
                    "velocity": 0.3937007874015748,
                    "duration": 0.07602335000001403
                },
                {
                    "name": "C5",
                    "midi": 72,
                    "time": 182.75867141249913,
                    "velocity": 0.41732283464566927,
                    "duration": 0.0745613624999919
                },
                {
                    "name": "B4",
                    "midi": 71,
                    "time": 182.83323277499912,
                    "velocity": 0.3858267716535433,
                    "duration": 0.07602335000001403
                },
                {
                    "name": "C5",
                    "midi": 72,
                    "time": 182.90925612499913,
                    "velocity": 0.3858267716535433,
                    "duration": 0.0745613624999919
                },
                {
                    "name": "D5",
                    "midi": 74,
                    "time": 182.98235549999913,
                    "velocity": 0.3858267716535433,
                    "duration": 0.08771924999999214
                },
                {
                    "name": "D#5",
                    "midi": 75,
                    "time": 183.07007474999912,
                    "velocity": 0.3937007874015748,
                    "duration": 0.08771924999999214
                },
                {
                    "name": "G4",
                    "midi": 67,
                    "time": 183.15779399999911,
                    "velocity": 0.44881889763779526,
                    "duration": 0.350876999999997
                },
                {
                    "name": "D#4",
                    "midi": 63,
                    "time": 183.5086709999991,
                    "velocity": 0.3543307086614173,
                    "duration": 0.350876999999997
                },
                {
                    "name": "A4",
                    "midi": 69,
                    "time": 183.5086709999991,
                    "velocity": 0.4251968503937008,
                    "duration": 0.350876999999997
                },
                {
                    "name": "D4",
                    "midi": 62,
                    "time": 183.8595479999991,
                    "velocity": 0.3700787401574803,
                    "duration": 0.687134125
                },
                {
                    "name": "A#4",
                    "midi": 70,
                    "time": 183.8595479999991,
                    "velocity": 0.4409448818897638,
                    "duration": 0.350876999999997
                },
                {
                    "name": "F4",
                    "midi": 65,
                    "time": 184.2104249999991,
                    "velocity": 0.36220472440944884,
                    "duration": 0.1754385000000127
                },
                {
                    "name": "F4",
                    "midi": 65,
                    "time": 184.5613019999991,
                    "velocity": 0.5275590551181102,
                    "duration": 0.701753999999994
                },
                {
                    "name": "D5",
                    "midi": 74,
                    "time": 184.5613019999991,
                    "velocity": 0.6299212598425197,
                    "duration": 0.701753999999994
                },
                {
                    "name": "G4",
                    "midi": 67,
                    "time": 185.2630559999991,
                    "velocity": 0.3543307086614173,
                    "duration": 0.7017540000000224
                },
                {
                    "name": "C5",
                    "midi": 72,
                    "time": 185.2630559999991,
                    "velocity": 0.49606299212598426,
                    "duration": 0.1754385000000127
                },
                {
                    "name": "D5",
                    "midi": 74,
                    "time": 185.4384944999991,
                    "velocity": 0.4409448818897638,
                    "duration": 0.058479500000004236
                },
                {
                    "name": "C5",
                    "midi": 72,
                    "time": 185.4969739999991,
                    "velocity": 0.4409448818897638,
                    "duration": 0.058479500000004236
                },
                {
                    "name": "B4",
                    "midi": 71,
                    "time": 185.55545349999912,
                    "velocity": 0.4409448818897638,
                    "duration": 0.058479500000004236
                },
                {
                    "name": "C5",
                    "midi": 72,
                    "time": 185.61393299999912,
                    "velocity": 0.49606299212598426,
                    "duration": 0.26315775000000485
                },
                {
                    "name": "D5",
                    "midi": 74,
                    "time": 185.87709074999913,
                    "velocity": 0.4566929133858268,
                    "duration": 0.08771924999999214
                },
                {
                    "name": "E4",
                    "midi": 64,
                    "time": 185.96480999999912,
                    "velocity": 0.3543307086614173,
                    "duration": 0.7017540000000224
                },
                {
                    "name": "A#4",
                    "midi": 70,
                    "time": 185.96480999999912,
                    "velocity": 0.49606299212598426,
                    "duration": 0.1754385000000127
                },
                {
                    "name": "C5",
                    "midi": 72,
                    "time": 186.14024849999913,
                    "velocity": 0.4409448818897638,
                    "duration": 0.058479500000004236
                },
                {
                    "name": "A#4",
                    "midi": 70,
                    "time": 186.19872799999914,
                    "velocity": 0.4409448818897638,
                    "duration": 0.058479500000004236
                },
                {
                    "name": "A4",
                    "midi": 69,
                    "time": 186.25720749999914,
                    "velocity": 0.4409448818897638,
                    "duration": 0.058479500000004236
                },
                {
                    "name": "A#4",
                    "midi": 70,
                    "time": 186.31568699999914,
                    "velocity": 0.49606299212598426,
                    "duration": 0.26315775000000485
                },
                {
                    "name": "C5",
                    "midi": 72,
                    "time": 186.57884474999915,
                    "velocity": 0.4566929133858268,
                    "duration": 0.08771924999999214
                },
                {
                    "name": "F4",
                    "midi": 65,
                    "time": 186.66656399999914,
                    "velocity": 0.3700787401574803,
                    "duration": 0.7017540000000224
                },
                {
                    "name": "A#4",
                    "midi": 70,
                    "time": 186.66656399999914,
                    "velocity": 0.4409448818897638,
                    "duration": 0.350876999999997
                },
                {
                    "name": "A4",
                    "midi": 69,
                    "time": 187.01744099999914,
                    "velocity": 0.36220472440944884,
                    "duration": 0.1754385000000127
                },
                {
                    "name": "G4",
                    "midi": 67,
                    "time": 187.36831799999916,
                    "velocity": 0.5275590551181102,
                    "duration": 0.701753999999994
                },
                {
                    "name": "G5",
                    "midi": 79,
                    "time": 187.36831799999916,
                    "velocity": 0.6299212598425197,
                    "duration": 0.701753999999994
                },
                {
                    "name": "C5",
                    "midi": 72,
                    "time": 188.07007199999916,
                    "velocity": 0.3543307086614173,
                    "duration": 0.7017540000000224
                },
                {
                    "name": "F5",
                    "midi": 77,
                    "time": 188.07007199999916,
                    "velocity": 0.49606299212598426,
                    "duration": 0.1754385000000127
                },
                {
                    "name": "G5",
                    "midi": 79,
                    "time": 188.24551049999917,
                    "velocity": 0.4409448818897638,
                    "duration": 0.058479500000004236
                },
                {
                    "name": "F5",
                    "midi": 77,
                    "time": 188.30398999999917,
                    "velocity": 0.4409448818897638,
                    "duration": 0.058479500000004236
                },
                {
                    "name": "E5",
                    "midi": 76,
                    "time": 188.36246949999918,
                    "velocity": 0.4409448818897638,
                    "duration": 0.058479500000004236
                },
                {
                    "name": "F5",
                    "midi": 77,
                    "time": 188.42094899999918,
                    "velocity": 0.49606299212598426,
                    "duration": 0.26315775000000485
                },
                {
                    "name": "G5",
                    "midi": 79,
                    "time": 188.6841067499992,
                    "velocity": 0.4566929133858268,
                    "duration": 0.08771924999999214
                },
                {
                    "name": "A4",
                    "midi": 69,
                    "time": 188.77182599999918,
                    "velocity": 0.3543307086614173,
                    "duration": 0.7017540000000224
                },
                {
                    "name": "D#5",
                    "midi": 75,
                    "time": 188.77182599999918,
                    "velocity": 0.49606299212598426,
                    "duration": 0.1754385000000127
                },
                {
                    "name": "F5",
                    "midi": 77,
                    "time": 188.9472644999992,
                    "velocity": 0.4409448818897638,
                    "duration": 0.058479500000004236
                },
                {
                    "name": "D#5",
                    "midi": 75,
                    "time": 189.0057439999992,
                    "velocity": 0.4409448818897638,
                    "duration": 0.058479500000004236
                },
                {
                    "name": "D5",
                    "midi": 74,
                    "time": 189.0642234999992,
                    "velocity": 0.4409448818897638,
                    "duration": 0.058479500000004236
                },
                {
                    "name": "D#5",
                    "midi": 75,
                    "time": 189.1227029999992,
                    "velocity": 0.49606299212598426,
                    "duration": 0.26315775000000485
                },
                {
                    "name": "F5",
                    "midi": 77,
                    "time": 189.3858607499992,
                    "velocity": 0.4566929133858268,
                    "duration": 0.08771924999999214
                },
                {
                    "name": "A#4",
                    "midi": 70,
                    "time": 189.4735799999992,
                    "velocity": 0.3700787401574803,
                    "duration": 0.687134125
                },
                {
                    "name": "D#5",
                    "midi": 75,
                    "time": 189.4735799999992,
                    "velocity": 0.4409448818897638,
                    "duration": 0.350876999999997
                },
                {
                    "name": "D5",
                    "midi": 74,
                    "time": 189.8244569999992,
                    "velocity": 0.36220472440944884,
                    "duration": 0.1754385000000127
                },
                {
                    "name": "D5",
                    "midi": 74,
                    "time": 190.5262109999992,
                    "velocity": 0.4251968503937008,
                    "duration": 0.701753999999994
                },
                {
                    "name": "A#5",
                    "midi": 82,
                    "time": 190.61393024999919,
                    "velocity": 0.5433070866141733,
                    "duration": 0.6140347500000018
                },
                {
                    "name": "D6",
                    "midi": 86,
                    "time": 190.70164949999918,
                    "velocity": 0.5748031496062992,
                    "duration": 0.5263155000000097
                },
                {
                    "name": "D5",
                    "midi": 74,
                    "time": 191.2279649999992,
                    "velocity": 0.48031496062992124,
                    "duration": 0.701753999999994
                },
                {
                    "name": "A#5",
                    "midi": 82,
                    "time": 191.31568424999918,
                    "velocity": 0.5748031496062992,
                    "duration": 0.6140347500000018
                },
                {
                    "name": "D6",
                    "midi": 86,
                    "time": 191.40340349999917,
                    "velocity": 0.6141732283464567,
                    "duration": 0.5263155000000097
                },
                {
                    "name": "D5",
                    "midi": 74,
                    "time": 191.92971899999918,
                    "velocity": 0.5118110236220472,
                    "duration": 0.701753999999994
                },
                {
                    "name": "A#5",
                    "midi": 82,
                    "time": 192.01743824999917,
                    "velocity": 0.5984251968503937,
                    "duration": 0.6140347500000018
                },
                {
                    "name": "D6",
                    "midi": 86,
                    "time": 192.10515749999917,
                    "velocity": 0.6377952755905512,
                    "duration": 0.5263155000000097
                },
                {
                    "name": "D5",
                    "midi": 74,
                    "time": 192.63147299999918,
                    "velocity": 0.5354330708661418,
                    "duration": 0.350876999999997
                },
                {
                    "name": "A#5",
                    "midi": 82,
                    "time": 192.71919224999917,
                    "velocity": 0.6299212598425197,
                    "duration": 0.26315775000000485
                },
                {
                    "name": "D6",
                    "midi": 86,
                    "time": 192.80691149999916,
                    "velocity": 0.6771653543307087,
                    "duration": 0.1754385000000127
                },
                {
                    "name": "D6",
                    "midi": 86,
                    "time": 193.33322699999917,
                    "velocity": 0.7086614173228346,
                    "duration": 0.701753999999994
                },
                {
                    "name": "D5",
                    "midi": 74,
                    "time": 193.33322699999917,
                    "velocity": 0.5905511811023622,
                    "duration": 0.701753999999994
                },
                {
                    "name": "C6",
                    "midi": 84,
                    "time": 194.03498099999916,
                    "velocity": 0.5354330708661418,
                    "duration": 0.1754385000000127
                },
                {
                    "name": "C5",
                    "midi": 72,
                    "time": 194.03498099999916,
                    "velocity": 0.44881889763779526,
                    "duration": 0.1754385000000127
                },
                {
                    "name": "A#5",
                    "midi": 82,
                    "time": 194.7367349999992,
                    "velocity": 0.7086614173228346,
                    "duration": 0.701753999999994
                },
                {
                    "name": "A#4",
                    "midi": 70,
                    "time": 194.7367349999992,
                    "velocity": 0.5905511811023622,
                    "duration": 0.701753999999994
                },
                {
                    "name": "A5",
                    "midi": 81,
                    "time": 195.43848899999918,
                    "velocity": 0.5354330708661418,
                    "duration": 0.1754385000000127
                },
                {
                    "name": "A4",
                    "midi": 69,
                    "time": 195.43848899999918,
                    "velocity": 0.44881889763779526,
                    "duration": 0.1754385000000127
                },
                {
                    "name": "G5",
                    "midi": 79,
                    "time": 196.1402429999992,
                    "velocity": 0.7086614173228346,
                    "duration": 0.5263155000000097
                },
                {
                    "name": "G4",
                    "midi": 67,
                    "time": 196.1402429999992,
                    "velocity": 0.5905511811023622,
                    "duration": 0.5263155000000097
                },
                {
                    "name": "F4",
                    "midi": 65,
                    "time": 196.6665584999992,
                    "velocity": 0.44881889763779526,
                    "duration": 0.350876999999997
                },
                {
                    "name": "F5",
                    "midi": 77,
                    "time": 196.6665584999992,
                    "velocity": 0.5354330708661418,
                    "duration": 0.350876999999997
                },
                {
                    "name": "D#4",
                    "midi": 63,
                    "time": 197.0174354999992,
                    "velocity": 0.5196850393700787,
                    "duration": 0.350876999999997
                },
                {
                    "name": "D#5",
                    "midi": 75,
                    "time": 197.0174354999992,
                    "velocity": 0.5196850393700787,
                    "duration": 0.350876999999997
                },
                {
                    "name": "D4",
                    "midi": 62,
                    "time": 197.3683124999992,
                    "velocity": 0.44881889763779526,
                    "duration": 0.350876999999997
                },
                {
                    "name": "D5",
                    "midi": 74,
                    "time": 197.3683124999992,
                    "velocity": 0.5354330708661418,
                    "duration": 0.350876999999997
                },
                {
                    "name": "C4",
                    "midi": 60,
                    "time": 197.7191894999992,
                    "velocity": 0.4645669291338583,
                    "duration": 0.1754385000000127
                },
                {
                    "name": "C5",
                    "midi": 72,
                    "time": 197.7191894999992,
                    "velocity": 0.49606299212598426,
                    "duration": 0.1754385000000127
                },
                {
                    "name": "C#4",
                    "midi": 61,
                    "time": 197.89462799999922,
                    "velocity": 0.48031496062992124,
                    "duration": 0.350876999999997
                },
                {
                    "name": "C#5",
                    "midi": 73,
                    "time": 197.89462799999922,
                    "velocity": 0.5669291338582677,
                    "duration": 0.350876999999997
                },
                {
                    "name": "D4",
                    "midi": 62,
                    "time": 198.2455049999992,
                    "velocity": 0.4409448818897638,
                    "duration": 0.1754385000000127
                },
                {
                    "name": "D5",
                    "midi": 74,
                    "time": 198.2455049999992,
                    "velocity": 0.5196850393700787,
                    "duration": 0.1754385000000127
                },
                {
                    "name": "D4",
                    "midi": 62,
                    "time": 198.59638199999924,
                    "velocity": 0.4881889763779528,
                    "duration": 0.350876999999997
                },
                {
                    "name": "D5",
                    "midi": 74,
                    "time": 198.94725899999924,
                    "velocity": 0.44881889763779526,
                    "duration": 0.701753999999994
                },
                {
                    "name": "E4",
                    "midi": 64,
                    "time": 198.94725899999924,
                    "velocity": 0.41732283464566927,
                    "duration": 0.701753999999994
                },
                {
                    "name": "F4",
                    "midi": 65,
                    "time": 199.64901299999923,
                    "velocity": 0.5354330708661418,
                    "duration": 0.1754385000000127
                },
                {
                    "name": "C5",
                    "midi": 72,
                    "time": 199.64901299999923,
                    "velocity": 0.44881889763779526,
                    "duration": 0.1754385000000127
                },
                {
                    "name": "A#3",
                    "midi": 58,
                    "time": 199.99988999999925,
                    "velocity": 0.4881889763779528,
                    "duration": 0.350876999999997
                },
                {
                    "name": "A#4",
                    "midi": 70,
                    "time": 200.35076699999925,
                    "velocity": 0.44881889763779526,
                    "duration": 0.701753999999994
                },
                {
                    "name": "C#4",
                    "midi": 61,
                    "time": 200.35076699999925,
                    "velocity": 0.41732283464566927,
                    "duration": 0.701753999999994
                },
                {
                    "name": "D4",
                    "midi": 62,
                    "time": 201.05252099999925,
                    "velocity": 0.5354330708661418,
                    "duration": 0.1754385000000127
                },
                {
                    "name": "A4",
                    "midi": 69,
                    "time": 201.05252099999925,
                    "velocity": 0.44881889763779526,
                    "duration": 0.1754385000000127
                },
                {
                    "name": "G3",
                    "midi": 55,
                    "time": 201.40339799999927,
                    "velocity": 0.4881889763779528,
                    "duration": 0.350876999999997
                },
                {
                    "name": "G4",
                    "midi": 67,
                    "time": 201.40339799999927,
                    "velocity": 0.4881889763779528,
                    "duration": 0.350876999999997
                },
                {
                    "name": "A3",
                    "midi": 57,
                    "time": 201.75427499999927,
                    "velocity": 0.4645669291338583,
                    "duration": 0.350876999999997
                },
                {
                    "name": "F#4",
                    "midi": 66,
                    "time": 201.75427499999927,
                    "velocity": 0.41732283464566927,
                    "duration": 0.7017540000000224
                },
                {
                    "name": "A#3",
                    "midi": 58,
                    "time": 202.10515199999926,
                    "velocity": 0.4645669291338583,
                    "duration": 0.3508770000000254
                },
                {
                    "name": "F4",
                    "midi": 65,
                    "time": 202.28059049999928,
                    "velocity": 0.5433070866141733,
                    "duration": 0.3508770000000254
                },
                {
                    "name": "G3",
                    "midi": 55,
                    "time": 202.4560289999993,
                    "velocity": 0.5433070866141733,
                    "duration": 0.3508770000000254
                },
                {
                    "name": "C4",
                    "midi": 60,
                    "time": 202.4560289999993,
                    "velocity": 0.5433070866141733,
                    "duration": 0.3508770000000254
                },
                {
                    "name": "D#4",
                    "midi": 63,
                    "time": 202.6314674999993,
                    "velocity": 0.6062992125984252,
                    "duration": 0.3508770000000254
                },
                {
                    "name": "D4",
                    "midi": 62,
                    "time": 202.98234449999933,
                    "velocity": 0.6614173228346457,
                    "duration": 0.350876999999997
                },
                {
                    "name": "C4",
                    "midi": 60,
                    "time": 203.33322149999933,
                    "velocity": 0.7244094488188977,
                    "duration": 0.1754385000000127
                },
                {
                    "name": "A#3",
                    "midi": 58,
                    "time": 203.50865999999934,
                    "velocity": 0.7244094488188977,
                    "duration": 0.08771924999999214
                },
                {
                    "name": "D3",
                    "midi": 50,
                    "time": 203.59637924999933,
                    "velocity": 0.3937007874015748,
                    "duration": 0.08771924999999214
                },
                {
                    "name": "F3",
                    "midi": 53,
                    "time": 203.68409849999932,
                    "velocity": 0.3937007874015748,
                    "duration": 0.08771924999999214
                },
                {
                    "name": "A#3",
                    "midi": 58,
                    "time": 203.77181774999931,
                    "velocity": 0.3937007874015748,
                    "duration": 0.08771924999999214
                },
                {
                    "name": "D4",
                    "midi": 62,
                    "time": 203.8595369999993,
                    "velocity": 0.41732283464566927,
                    "duration": 0.08771924999999214
                },
                {
                    "name": "F4",
                    "midi": 65,
                    "time": 203.9472562499993,
                    "velocity": 0.3937007874015748,
                    "duration": 0.08771924999999214
                },
                {
                    "name": "A#4",
                    "midi": 70,
                    "time": 204.0349754999993,
                    "velocity": 0.3937007874015748,
                    "duration": 0.08771924999999214
                },
                {
                    "name": "D5",
                    "midi": 74,
                    "time": 204.12269474999928,
                    "velocity": 0.3937007874015748,
                    "duration": 0.08771924999999214
                },
                {
                    "name": "F4",
                    "midi": 65,
                    "time": 204.21041399999928,
                    "velocity": 0.4330708661417323,
                    "duration": 0.08771924999999214
                },
                {
                    "name": "A#4",
                    "midi": 70,
                    "time": 204.29813324999927,
                    "velocity": 0.3937007874015748,
                    "duration": 0.08771924999999214
                },
                {
                    "name": "D5",
                    "midi": 74,
                    "time": 204.38585249999926,
                    "velocity": 0.3937007874015748,
                    "duration": 0.08771924999999214
                },
                {
                    "name": "F5",
                    "midi": 77,
                    "time": 204.47357174999925,
                    "velocity": 0.3937007874015748,
                    "duration": 0.08771924999999214
                },
                {
                    "name": "A#4",
                    "midi": 70,
                    "time": 204.56129099999924,
                    "velocity": 0.4330708661417323,
                    "duration": 0.08771924999999214
                },
                {
                    "name": "D5",
                    "midi": 74,
                    "time": 204.64901024999924,
                    "velocity": 0.3937007874015748,
                    "duration": 0.08771924999999214
                },
                {
                    "name": "F5",
                    "midi": 77,
                    "time": 204.73672949999923,
                    "velocity": 0.3937007874015748,
                    "duration": 0.08771924999999214
                },
                {
                    "name": "A#5",
                    "midi": 82,
                    "time": 204.82444874999922,
                    "velocity": 0.3937007874015748,
                    "duration": 0.08771924999999214
                },
                {
                    "name": "A5",
                    "midi": 81,
                    "time": 204.9121679999992,
                    "velocity": 0.5433070866141733,
                    "duration": 0.08771924999999214
                },
                {
                    "name": "D#6",
                    "midi": 87,
                    "time": 204.9998872499992,
                    "velocity": 0.3937007874015748,
                    "duration": 0.08771924999999214
                },
                {
                    "name": "C6",
                    "midi": 84,
                    "time": 205.0876064999992,
                    "velocity": 0.3937007874015748,
                    "duration": 0.08771924999999214
                },
                {
                    "name": "A5",
                    "midi": 81,
                    "time": 205.1753257499992,
                    "velocity": 0.3937007874015748,
                    "duration": 0.08771924999999214
                },
                {
                    "name": "F5",
                    "midi": 77,
                    "time": 205.26304499999918,
                    "velocity": 0.4251968503937008,
                    "duration": 0.08771924999999214
                },
                {
                    "name": "C6",
                    "midi": 84,
                    "time": 205.35076424999917,
                    "velocity": 0.3937007874015748,
                    "duration": 0.08771924999999214
                },
                {
                    "name": "A5",
                    "midi": 81,
                    "time": 205.43848349999917,
                    "velocity": 0.3937007874015748,
                    "duration": 0.08771924999999214
                },
                {
                    "name": "F5",
                    "midi": 77,
                    "time": 205.52620274999916,
                    "velocity": 0.3937007874015748,
                    "duration": 0.08771924999999214
                },
                {
                    "name": "D#5",
                    "midi": 75,
                    "time": 205.61392199999915,
                    "velocity": 0.4409448818897638,
                    "duration": 0.08771924999999214
                },
                {
                    "name": "A5",
                    "midi": 81,
                    "time": 205.70164124999914,
                    "velocity": 0.3937007874015748,
                    "duration": 0.08771924999999214
                },
                {
                    "name": "F5",
                    "midi": 77,
                    "time": 205.78936049999913,
                    "velocity": 0.3937007874015748,
                    "duration": 0.08771924999999214
                },
                {
                    "name": "D#5",
                    "midi": 75,
                    "time": 205.87707974999913,
                    "velocity": 0.3937007874015748,
                    "duration": 0.08771924999999214
                },
                {
                    "name": "C5",
                    "midi": 72,
                    "time": 205.96479899999912,
                    "velocity": 0.4251968503937008,
                    "duration": 0.08771924999999214
                },
                {
                    "name": "F5",
                    "midi": 77,
                    "time": 206.0525182499991,
                    "velocity": 0.3937007874015748,
                    "duration": 0.08771924999999214
                },
                {
                    "name": "D#5",
                    "midi": 75,
                    "time": 206.1402374999991,
                    "velocity": 0.3937007874015748,
                    "duration": 0.08771924999999214
                },
                {
                    "name": "C5",
                    "midi": 72,
                    "time": 206.2279567499991,
                    "velocity": 0.3937007874015748,
                    "duration": 0.08771924999999214
                },
                {
                    "name": "A#4",
                    "midi": 70,
                    "time": 206.3156759999991,
                    "velocity": 0.5433070866141733,
                    "duration": 0.08771924999999214
                },
                {
                    "name": "D3",
                    "midi": 50,
                    "time": 206.40339524999908,
                    "velocity": 0.3937007874015748,
                    "duration": 0.08771924999999214
                },
                {
                    "name": "F3",
                    "midi": 53,
                    "time": 206.49111449999907,
                    "velocity": 0.3937007874015748,
                    "duration": 0.08771924999999214
                },
                {
                    "name": "A#3",
                    "midi": 58,
                    "time": 206.57883374999906,
                    "velocity": 0.3937007874015748,
                    "duration": 0.08771924999999214
                },
                {
                    "name": "D4",
                    "midi": 62,
                    "time": 206.66655299999906,
                    "velocity": 0.41732283464566927,
                    "duration": 0.08771924999999214
                },
                {
                    "name": "F4",
                    "midi": 65,
                    "time": 206.75427224999905,
                    "velocity": 0.3937007874015748,
                    "duration": 0.08771924999999214
                },
                {
                    "name": "A#4",
                    "midi": 70,
                    "time": 206.84199149999904,
                    "velocity": 0.3937007874015748,
                    "duration": 0.08771924999999214
                },
                {
                    "name": "D5",
                    "midi": 74,
                    "time": 206.92971074999903,
                    "velocity": 0.3937007874015748,
                    "duration": 0.08771924999999214
                },
                {
                    "name": "F4",
                    "midi": 65,
                    "time": 207.01742999999902,
                    "velocity": 0.4330708661417323,
                    "duration": 0.08771924999999214
                },
                {
                    "name": "A#4",
                    "midi": 70,
                    "time": 207.10514924999902,
                    "velocity": 0.3937007874015748,
                    "duration": 0.08771924999999214
                },
                {
                    "name": "D5",
                    "midi": 74,
                    "time": 207.192868499999,
                    "velocity": 0.3937007874015748,
                    "duration": 0.08771924999999214
                },
                {
                    "name": "F5",
                    "midi": 77,
                    "time": 207.280587749999,
                    "velocity": 0.3937007874015748,
                    "duration": 0.08771924999999214
                },
                {
                    "name": "A#4",
                    "midi": 70,
                    "time": 207.368306999999,
                    "velocity": 0.4330708661417323,
                    "duration": 0.08771924999999214
                },
                {
                    "name": "D5",
                    "midi": 74,
                    "time": 207.45602624999898,
                    "velocity": 0.3937007874015748,
                    "duration": 0.08771924999999214
                },
                {
                    "name": "F5",
                    "midi": 77,
                    "time": 207.54374549999898,
                    "velocity": 0.3937007874015748,
                    "duration": 0.08771924999999214
                },
                {
                    "name": "A#5",
                    "midi": 82,
                    "time": 207.63146474999897,
                    "velocity": 0.3937007874015748,
                    "duration": 0.08771924999999214
                },
                {
                    "name": "A5",
                    "midi": 81,
                    "time": 207.71918399999896,
                    "velocity": 0.5669291338582677,
                    "duration": 0.08771924999999214
                },
                {
                    "name": "D#6",
                    "midi": 87,
                    "time": 207.80690324999895,
                    "velocity": 0.3937007874015748,
                    "duration": 0.08771924999999214
                },
                {
                    "name": "C6",
                    "midi": 84,
                    "time": 207.89462249999895,
                    "velocity": 0.3937007874015748,
                    "duration": 0.08771924999999214
                },
                {
                    "name": "A5",
                    "midi": 81,
                    "time": 207.98234174999894,
                    "velocity": 0.3937007874015748,
                    "duration": 0.08771924999999214
                },
                {
                    "name": "F5",
                    "midi": 77,
                    "time": 208.07006099999893,
                    "velocity": 0.4251968503937008,
                    "duration": 0.08771924999999214
                },
                {
                    "name": "C6",
                    "midi": 84,
                    "time": 208.15778024999892,
                    "velocity": 0.3937007874015748,
                    "duration": 0.08771924999999214
                },
                {
                    "name": "A5",
                    "midi": 81,
                    "time": 208.2454994999989,
                    "velocity": 0.3937007874015748,
                    "duration": 0.08771924999999214
                },
                {
                    "name": "F5",
                    "midi": 77,
                    "time": 208.3332187499989,
                    "velocity": 0.3937007874015748,
                    "duration": 0.08771924999999214
                },
                {
                    "name": "D#5",
                    "midi": 75,
                    "time": 208.4209379999989,
                    "velocity": 0.4409448818897638,
                    "duration": 0.08771924999999214
                },
                {
                    "name": "A5",
                    "midi": 81,
                    "time": 208.5086572499989,
                    "velocity": 0.3937007874015748,
                    "duration": 0.08771924999999214
                },
                {
                    "name": "F5",
                    "midi": 77,
                    "time": 208.59637649999888,
                    "velocity": 0.3937007874015748,
                    "duration": 0.08771924999999214
                },
                {
                    "name": "D#5",
                    "midi": 75,
                    "time": 208.68409574999887,
                    "velocity": 0.3937007874015748,
                    "duration": 0.08771924999999214
                },
                {
                    "name": "C5",
                    "midi": 72,
                    "time": 208.77181499999887,
                    "velocity": 0.4251968503937008,
                    "duration": 0.08771924999999214
                },
                {
                    "name": "F5",
                    "midi": 77,
                    "time": 208.85953424999886,
                    "velocity": 0.3937007874015748,
                    "duration": 0.08771924999999214
                },
                {
                    "name": "D#5",
                    "midi": 75,
                    "time": 208.94725349999885,
                    "velocity": 0.3937007874015748,
                    "duration": 0.08771924999999214
                },
                {
                    "name": "C5",
                    "midi": 72,
                    "time": 209.03497274999884,
                    "velocity": 0.3937007874015748,
                    "duration": 0.08771924999999214
                },
                {
                    "name": "A#4",
                    "midi": 70,
                    "time": 209.12269199999884,
                    "velocity": 0.5826771653543307,
                    "duration": 0.08771924999999214
                },
                {
                    "name": "D3",
                    "midi": 50,
                    "time": 209.21041124999883,
                    "velocity": 0.3937007874015748,
                    "duration": 0.08771924999999214
                },
                {
                    "name": "F3",
                    "midi": 53,
                    "time": 209.29813049999882,
                    "velocity": 0.3937007874015748,
                    "duration": 0.08771924999999214
                },
                {
                    "name": "A#3",
                    "midi": 58,
                    "time": 209.3858497499988,
                    "velocity": 0.3937007874015748,
                    "duration": 0.08771924999999214
                },
                {
                    "name": "D4",
                    "midi": 62,
                    "time": 209.4735689999988,
                    "velocity": 0.41732283464566927,
                    "duration": 0.08771924999999214
                },
                {
                    "name": "F4",
                    "midi": 65,
                    "time": 209.5612882499988,
                    "velocity": 0.3937007874015748,
                    "duration": 0.08771924999999214
                },
                {
                    "name": "A#4",
                    "midi": 70,
                    "time": 209.6490074999988,
                    "velocity": 0.3937007874015748,
                    "duration": 0.08771924999999214
                },
                {
                    "name": "D5",
                    "midi": 74,
                    "time": 209.73672674999878,
                    "velocity": 0.3937007874015748,
                    "duration": 0.08771924999999214
                },
                {
                    "name": "F4",
                    "midi": 65,
                    "time": 209.82444599999877,
                    "velocity": 0.4330708661417323,
                    "duration": 0.08771924999999214
                },
                {
                    "name": "A#4",
                    "midi": 70,
                    "time": 209.91216524999876,
                    "velocity": 0.3937007874015748,
                    "duration": 0.08771924999999214
                },
                {
                    "name": "D5",
                    "midi": 74,
                    "time": 209.99988449999876,
                    "velocity": 0.3937007874015748,
                    "duration": 0.08771924999999214
                },
                {
                    "name": "F5",
                    "midi": 77,
                    "time": 210.08760374999875,
                    "velocity": 0.3937007874015748,
                    "duration": 0.08771924999999214
                },
                {
                    "name": "A#4",
                    "midi": 70,
                    "time": 210.17532299999874,
                    "velocity": 0.4330708661417323,
                    "duration": 0.08771924999999214
                },
                {
                    "name": "D5",
                    "midi": 74,
                    "time": 210.26304224999873,
                    "velocity": 0.3937007874015748,
                    "duration": 0.08771924999999214
                },
                {
                    "name": "F5",
                    "midi": 77,
                    "time": 210.35076149999873,
                    "velocity": 0.3937007874015748,
                    "duration": 0.08771924999999214
                },
                {
                    "name": "A#5",
                    "midi": 82,
                    "time": 210.43848074999872,
                    "velocity": 0.3937007874015748,
                    "duration": 0.08771924999999214
                },
                {
                    "name": "D3",
                    "midi": 50,
                    "time": 210.6139192499987,
                    "velocity": 0.4330708661417323,
                    "duration": 0.08771924999999214
                },
                {
                    "name": "F3",
                    "midi": 53,
                    "time": 210.7016384999987,
                    "velocity": 0.4330708661417323,
                    "duration": 0.08771924999999214
                },
                {
                    "name": "A#3",
                    "midi": 58,
                    "time": 210.7893577499987,
                    "velocity": 0.4330708661417323,
                    "duration": 0.08771924999999214
                },
                {
                    "name": "D4",
                    "midi": 62,
                    "time": 210.87707699999868,
                    "velocity": 0.4566929133858268,
                    "duration": 0.08771924999999214
                },
                {
                    "name": "F4",
                    "midi": 65,
                    "time": 210.96479624999867,
                    "velocity": 0.4330708661417323,
                    "duration": 0.08771924999999214
                },
                {
                    "name": "A#4",
                    "midi": 70,
                    "time": 211.05251549999866,
                    "velocity": 0.4330708661417323,
                    "duration": 0.08771924999999214
                },
                {
                    "name": "D5",
                    "midi": 74,
                    "time": 211.14023474999865,
                    "velocity": 0.4330708661417323,
                    "duration": 0.08771924999999214
                },
                {
                    "name": "F4",
                    "midi": 65,
                    "time": 211.22795399999865,
                    "velocity": 0.47244094488188976,
                    "duration": 0.08771924999999214
                },
                {
                    "name": "A#4",
                    "midi": 70,
                    "time": 211.31567324999864,
                    "velocity": 0.4330708661417323,
                    "duration": 0.08771924999999214
                },
                {
                    "name": "D5",
                    "midi": 74,
                    "time": 211.40339249999863,
                    "velocity": 0.4330708661417323,
                    "duration": 0.08771924999999214
                },
                {
                    "name": "F5",
                    "midi": 77,
                    "time": 211.49111174999862,
                    "velocity": 0.4330708661417323,
                    "duration": 0.08771924999999214
                },
                {
                    "name": "A#4",
                    "midi": 70,
                    "time": 211.57883099999862,
                    "velocity": 0.47244094488188976,
                    "duration": 0.08771924999999214
                },
                {
                    "name": "D5",
                    "midi": 74,
                    "time": 211.6665502499986,
                    "velocity": 0.4330708661417323,
                    "duration": 0.08771924999999214
                },
                {
                    "name": "F5",
                    "midi": 77,
                    "time": 211.7542694999986,
                    "velocity": 0.4330708661417323,
                    "duration": 0.08771924999999214
                },
                {
                    "name": "A#5",
                    "midi": 82,
                    "time": 211.8419887499986,
                    "velocity": 0.4330708661417323,
                    "duration": 0.08771924999999214
                },
                {
                    "name": "D#3",
                    "midi": 51,
                    "time": 212.01742724999858,
                    "velocity": 0.4330708661417323,
                    "duration": 0.08771924999999214
                },
                {
                    "name": "G3",
                    "midi": 55,
                    "time": 212.10514649999857,
                    "velocity": 0.47244094488188976,
                    "duration": 0.08771924999999214
                },
                {
                    "name": "A#3",
                    "midi": 58,
                    "time": 212.19286574999856,
                    "velocity": 0.47244094488188976,
                    "duration": 0.08771924999999214
                },
                {
                    "name": "D#4",
                    "midi": 63,
                    "time": 212.28058499999855,
                    "velocity": 0.49606299212598426,
                    "duration": 0.08771924999999214
                },
                {
                    "name": "G4",
                    "midi": 67,
                    "time": 212.36830424999854,
                    "velocity": 0.47244094488188976,
                    "duration": 0.08771924999999214
                },
                {
                    "name": "A#4",
                    "midi": 70,
                    "time": 212.45602349999854,
                    "velocity": 0.47244094488188976,
                    "duration": 0.08771924999999214
                },
                {
                    "name": "D#5",
                    "midi": 75,
                    "time": 212.54374274999853,
                    "velocity": 0.47244094488188976,
                    "duration": 0.08771924999999214
                },
                {
                    "name": "G4",
                    "midi": 67,
                    "time": 212.63146199999852,
                    "velocity": 0.5196850393700787,
                    "duration": 0.08771924999999214
                },
                {
                    "name": "A#4",
                    "midi": 70,
                    "time": 212.7191812499985,
                    "velocity": 0.47244094488188976,
                    "duration": 0.08771924999999214
                },
                {
                    "name": "D#5",
                    "midi": 75,
                    "time": 212.8069004999985,
                    "velocity": 0.47244094488188976,
                    "duration": 0.08771924999999214
                },
                {
                    "name": "G5",
                    "midi": 79,
                    "time": 212.8946197499985,
                    "velocity": 0.47244094488188976,
                    "duration": 0.08771924999999214
                },
                {
                    "name": "A#4",
                    "midi": 70,
                    "time": 212.9823389999985,
                    "velocity": 0.5196850393700787,
                    "duration": 0.08771924999999214
                },
                {
                    "name": "D#5",
                    "midi": 75,
                    "time": 213.07005824999848,
                    "velocity": 0.47244094488188976,
                    "duration": 0.08771924999999214
                },
                {
                    "name": "G5",
                    "midi": 79,
                    "time": 213.15777749999847,
                    "velocity": 0.47244094488188976,
                    "duration": 0.08771924999999214
                },
                {
                    "name": "A#5",
                    "midi": 82,
                    "time": 213.24549674999847,
                    "velocity": 0.47244094488188976,
                    "duration": 0.08771924999999214
                },
                {
                    "name": "D4",
                    "midi": 62,
                    "time": 214.03496999999845,
                    "velocity": 0.5196850393700787,
                    "duration": 0.08771924999999214
                },
                {
                    "name": "F4",
                    "midi": 65,
                    "time": 214.12268924999844,
                    "velocity": 0.4645669291338583,
                    "duration": 0.08771924999999214
                },
                {
                    "name": "G#4",
                    "midi": 68,
                    "time": 214.21040849999844,
                    "velocity": 0.48031496062992124,
                    "duration": 0.08771924999999214
                },
                {
                    "name": "A#4",
                    "midi": 70,
                    "time": 214.29812774999843,
                    "velocity": 0.5039370078740157,
                    "duration": 0.08771924999999214
                },
                {
                    "name": "D5",
                    "midi": 74,
                    "time": 214.38584699999842,
                    "velocity": 0.5275590551181102,
                    "duration": 0.07017540000001077
                },
                {
                    "name": "F5",
                    "midi": 77,
                    "time": 214.45602239999843,
                    "velocity": 0.5354330708661418,
                    "duration": 0.07017540000001077
                },
                {
                    "name": "G#5",
                    "midi": 80,
                    "time": 214.52619779999844,
                    "velocity": 0.5511811023622047,
                    "duration": 0.07017540000001077
                },
                {
                    "name": "C6",
                    "midi": 84,
                    "time": 214.59637319999845,
                    "velocity": 0.5354330708661418,
                    "duration": 0.07017540000001077
                },
                {
                    "name": "A#5",
                    "midi": 82,
                    "time": 214.66654859999846,
                    "velocity": 0.5118110236220472,
                    "duration": 0.07017540000001077
                },
                {
                    "name": "G#5",
                    "midi": 80,
                    "time": 214.73672399999847,
                    "velocity": 0.3937007874015748,
                    "duration": 0.1754385000000127
                },
                {
                    "name": "G5",
                    "midi": 79,
                    "time": 214.9121624999985,
                    "velocity": 0.36220472440944884,
                    "duration": 0.1754385000000127
                },
                {
                    "name": "F5",
                    "midi": 77,
                    "time": 215.0876009999985,
                    "velocity": 0.36220472440944884,
                    "duration": 0.1754385000000127
                },
                {
                    "name": "D#5",
                    "midi": 75,
                    "time": 215.2630394999985,
                    "velocity": 0.36220472440944884,
                    "duration": 0.1754385000000127
                },
                {
                    "name": "D5",
                    "midi": 74,
                    "time": 215.43847799999853,
                    "velocity": 0.3937007874015748,
                    "duration": 0.350876999999997
                },
                {
                    "name": "D#5",
                    "midi": 75,
                    "time": 215.78935499999852,
                    "velocity": 0.3700787401574803,
                    "duration": 0.350876999999997
                },
                {
                    "name": "E5",
                    "midi": 76,
                    "time": 216.14023199999852,
                    "velocity": 0.41732283464566927,
                    "duration": 0.350876999999997
                },
                {
                    "name": "F5",
                    "midi": 77,
                    "time": 216.49110899999852,
                    "velocity": 0.3858267716535433,
                    "duration": 0.350876999999997
                },
                {
                    "name": "B5",
                    "midi": 83,
                    "time": 217.01742449999853,
                    "velocity": 0.3543307086614173,
                    "duration": 0.03508769999999117
                },
                {
                    "name": "C6",
                    "midi": 84,
                    "time": 217.05251219999852,
                    "velocity": 0.33858267716535434,
                    "duration": 0.03508769999999117
                },
                {
                    "name": "B5",
                    "midi": 83,
                    "time": 217.0875998999985,
                    "velocity": 0.3543307086614173,
                    "duration": 0.03508769999999117
                },
                {
                    "name": "A5",
                    "midi": 81,
                    "time": 217.1226875999985,
                    "velocity": 0.33070866141732286,
                    "duration": 0.03508769999999117
                },
                {
                    "name": "B5",
                    "midi": 83,
                    "time": 217.1577752999985,
                    "velocity": 0.33070866141732286,
                    "duration": 0.03508769999999117
                },
                {
                    "name": "D6",
                    "midi": 86,
                    "time": 217.19286299999848,
                    "velocity": 0.3937007874015748,
                    "duration": 0.1754385000000127
                },
                {
                    "name": "C6",
                    "midi": 84,
                    "time": 217.3683014999985,
                    "velocity": 0.36220472440944884,
                    "duration": 0.1754385000000127
                },
                {
                    "name": "A#5",
                    "midi": 82,
                    "time": 217.5437399999985,
                    "velocity": 0.3937007874015748,
                    "duration": 0.1754385000000127
                },
                {
                    "name": "G#5",
                    "midi": 80,
                    "time": 217.71917849999852,
                    "velocity": 0.3464566929133858,
                    "duration": 0.1754385000000127
                },
                {
                    "name": "G5",
                    "midi": 79,
                    "time": 217.89461699999853,
                    "velocity": 0.36220472440944884,
                    "duration": 0.1754385000000127
                },
                {
                    "name": "F5",
                    "midi": 77,
                    "time": 218.07005549999855,
                    "velocity": 0.33858267716535434,
                    "duration": 0.1754385000000127
                },
                {
                    "name": "D5",
                    "midi": 74,
                    "time": 218.24549399999856,
                    "velocity": 0.3937007874015748,
                    "duration": 0.1754385000000127
                },
                {
                    "name": "D#5",
                    "midi": 75,
                    "time": 218.42093249999857,
                    "velocity": 0.3464566929133858,
                    "duration": 0.1754385000000127
                },
                {
                    "name": "E5",
                    "midi": 76,
                    "time": 218.59637099999858,
                    "velocity": 0.3700787401574803,
                    "duration": 0.1754385000000127
                },
                {
                    "name": "F5",
                    "midi": 77,
                    "time": 218.7718094999986,
                    "velocity": 0.33858267716535434,
                    "duration": 0.1754385000000127
                },
                {
                    "name": "F#5",
                    "midi": 78,
                    "time": 218.9472479999986,
                    "velocity": 0.41732283464566927,
                    "duration": 0.350876999999997
                },
                {
                    "name": "G5",
                    "midi": 79,
                    "time": 219.2981249999986,
                    "velocity": 0.3858267716535433,
                    "duration": 0.5263155000000097
                },
                {
                    "name": "G5",
                    "midi": 79,
                    "time": 219.82444049999862,
                    "velocity": 0.4015748031496063,
                    "duration": 0.1754385000000127
                },
                {
                    "name": "G#5",
                    "midi": 80,
                    "time": 219.99987899999863,
                    "velocity": 0.4566929133858268,
                    "duration": 0.1754385000000127
                },
                {
                    "name": "G5",
                    "midi": 79,
                    "time": 220.17531749999864,
                    "velocity": 0.4094488188976378,
                    "duration": 0.1754385000000127
                },
                {
                    "name": "F5",
                    "midi": 77,
                    "time": 220.35075599999865,
                    "velocity": 0.3937007874015748,
                    "duration": 0.1754385000000127
                },
                {
                    "name": "D#5",
                    "midi": 75,
                    "time": 220.52619449999867,
                    "velocity": 0.3464566929133858,
                    "duration": 0.1754385000000127
                },
                {
                    "name": "D5",
                    "midi": 74,
                    "time": 220.70163299999868,
                    "velocity": 0.36220472440944884,
                    "duration": 0.1754385000000127
                },
                {
                    "name": "C5",
                    "midi": 72,
                    "time": 220.8770714999987,
                    "velocity": 0.33858267716535434,
                    "duration": 0.1754385000000127
                },
                {
                    "name": "B4",
                    "midi": 71,
                    "time": 221.0525099999987,
                    "velocity": 0.3937007874015748,
                    "duration": 0.350876999999997
                },
                {
                    "name": "C5",
                    "midi": 72,
                    "time": 221.4033869999987,
                    "velocity": 0.3700787401574803,
                    "duration": 0.350876999999997
                },
                {
                    "name": "C#5",
                    "midi": 73,
                    "time": 221.7542639999987,
                    "velocity": 0.41732283464566927,
                    "duration": 0.350876999999997
                },
                {
                    "name": "D5",
                    "midi": 74,
                    "time": 222.1051409999987,
                    "velocity": 0.3858267716535433,
                    "duration": 0.350876999999997
                },
                {
                    "name": "G5",
                    "midi": 79,
                    "time": 222.6314564999987,
                    "velocity": 0.2677165354330709,
                    "duration": 0.1754385000000127
                },
                {
                    "name": "G#5",
                    "midi": 80,
                    "time": 222.80689499999872,
                    "velocity": 0.31496062992125984,
                    "duration": 0.1754385000000127
                },
                {
                    "name": "G5",
                    "midi": 79,
                    "time": 222.98233349999873,
                    "velocity": 0.28346456692913385,
                    "duration": 0.1754385000000127
                },
                {
                    "name": "F5",
                    "midi": 77,
                    "time": 223.15777199999874,
                    "velocity": 0.31496062992125984,
                    "duration": 0.1754385000000127
                },
                {
                    "name": "D#5",
                    "midi": 75,
                    "time": 223.33321049999876,
                    "velocity": 0.28346456692913385,
                    "duration": 0.1754385000000127
                },
                {
                    "name": "D5",
                    "midi": 74,
                    "time": 223.50864899999877,
                    "velocity": 0.2992125984251969,
                    "duration": 0.1754385000000127
                },
                {
                    "name": "C5",
                    "midi": 72,
                    "time": 223.68408749999878,
                    "velocity": 0.28346456692913385,
                    "duration": 0.1754385000000127
                },
                {
                    "name": "D#5",
                    "midi": 75,
                    "time": 224.0349644999988,
                    "velocity": 0.2677165354330709,
                    "duration": 0.1754385000000127
                },
                {
                    "name": "F5",
                    "midi": 77,
                    "time": 224.21040299999882,
                    "velocity": 0.31496062992125984,
                    "duration": 0.1754385000000127
                },
                {
                    "name": "D#5",
                    "midi": 75,
                    "time": 224.38584149999883,
                    "velocity": 0.28346456692913385,
                    "duration": 0.1754385000000127
                },
                {
                    "name": "D5",
                    "midi": 74,
                    "time": 224.56127999999885,
                    "velocity": 0.31496062992125984,
                    "duration": 0.1754385000000127
                },
                {
                    "name": "C5",
                    "midi": 72,
                    "time": 224.73671849999886,
                    "velocity": 0.28346456692913385,
                    "duration": 0.1754385000000127
                },
                {
                    "name": "A#4",
                    "midi": 70,
                    "time": 224.91215699999887,
                    "velocity": 0.2992125984251969,
                    "duration": 0.1754385000000127
                },
                {
                    "name": "A4",
                    "midi": 69,
                    "time": 225.08759549999888,
                    "velocity": 0.28346456692913385,
                    "duration": 0.1754385000000127
                },
                {
                    "name": "A3",
                    "midi": 57,
                    "time": 227.4560152499989,
                    "velocity": 0.28346456692913385,
                    "duration": 0.08771924999999214
                },
                {
                    "name": "A#3",
                    "midi": 58,
                    "time": 227.5437344999989,
                    "velocity": 0.28346456692913385,
                    "duration": 0.08771924999999214
                },
                {
                    "name": "C4",
                    "midi": 60,
                    "time": 227.63145374999888,
                    "velocity": 0.29133858267716534,
                    "duration": 0.08771924999999214
                },
                {
                    "name": "D4",
                    "midi": 62,
                    "time": 227.71917299999888,
                    "velocity": 0.29133858267716534,
                    "duration": 0.08771924999999214
                },
                {
                    "name": "D#4",
                    "midi": 63,
                    "time": 227.80689224999887,
                    "velocity": 0.2992125984251969,
                    "duration": 0.08771924999999214
                },
                {
                    "name": "F4",
                    "midi": 65,
                    "time": 227.89461149999886,
                    "velocity": 0.30708661417322836,
                    "duration": 0.08771924999999214
                },
                {
                    "name": "G4",
                    "midi": 67,
                    "time": 227.98233074999885,
                    "velocity": 0.30708661417322836,
                    "duration": 0.08771924999999214
                },
                {
                    "name": "A4",
                    "midi": 69,
                    "time": 228.07004999999884,
                    "velocity": 0.31496062992125984,
                    "duration": 0.11695900000000847
                },
                {
                    "name": "A#4",
                    "midi": 70,
                    "time": 228.18700899999885,
                    "velocity": 0.33070866141732286,
                    "duration": 0.11695900000000847
                },
                {
                    "name": "B4",
                    "midi": 71,
                    "time": 228.30396799999886,
                    "velocity": 0.33858267716535434,
                    "duration": 0.11695900000000847
                },
                {
                    "name": "C5",
                    "midi": 72,
                    "time": 228.42092699999887,
                    "velocity": 0.3464566929133858,
                    "duration": 0.11695900000000847
                },
                {
                    "name": "C#5",
                    "midi": 73,
                    "time": 228.53788599999888,
                    "velocity": 0.3464566929133858,
                    "duration": 0.11695900000000847
                },
                {
                    "name": "D5",
                    "midi": 74,
                    "time": 228.6548449999989,
                    "velocity": 0.3543307086614173,
                    "duration": 0.11695900000000847
                },
                {
                    "name": "D#5",
                    "midi": 75,
                    "time": 228.7718039999989,
                    "velocity": 0.3858267716535433,
                    "duration": 0.11695900000000847
                },
                {
                    "name": "A4",
                    "midi": 69,
                    "time": 228.8887629999989,
                    "velocity": 0.33070866141732286,
                    "duration": 0.11695900000000847
                },
                {
                    "name": "A#4",
                    "midi": 70,
                    "time": 229.0057219999989,
                    "velocity": 0.33070866141732286,
                    "duration": 0.11695900000000847
                },
                {
                    "name": "B4",
                    "midi": 71,
                    "time": 229.12268099999892,
                    "velocity": 0.3543307086614173,
                    "duration": 0.11695900000000847
                },
                {
                    "name": "C5",
                    "midi": 72,
                    "time": 229.23963999999893,
                    "velocity": 0.3779527559055118,
                    "duration": 0.11695900000000847
                },
                {
                    "name": "D5",
                    "midi": 74,
                    "time": 229.35659899999894,
                    "velocity": 0.3937007874015748,
                    "duration": 0.11695900000000847
                },
                {
                    "name": "D#5",
                    "midi": 75,
                    "time": 229.47355799999895,
                    "velocity": 0.4094488188976378,
                    "duration": 0.11695900000000847
                },
                {
                    "name": "A4",
                    "midi": 69,
                    "time": 229.59051699999895,
                    "velocity": 0.3700787401574803,
                    "duration": 0.11695900000000847
                },
                {
                    "name": "A#4",
                    "midi": 70,
                    "time": 229.70747599999896,
                    "velocity": 0.3858267716535433,
                    "duration": 0.11695900000000847
                },
                {
                    "name": "B4",
                    "midi": 71,
                    "time": 229.82443499999897,
                    "velocity": 0.3937007874015748,
                    "duration": 0.11695900000000847
                },
                {
                    "name": "C5",
                    "midi": 72,
                    "time": 229.94139399999898,
                    "velocity": 0.4094488188976378,
                    "duration": 0.11695900000000847
                },
                {
                    "name": "D5",
                    "midi": 74,
                    "time": 230.058352999999,
                    "velocity": 0.41732283464566927,
                    "duration": 0.11695900000000847
                },
                {
                    "name": "D#5",
                    "midi": 75,
                    "time": 230.175311999999,
                    "velocity": 0.4881889763779528,
                    "duration": 0.08771924999999214
                },
                {
                    "name": "A4",
                    "midi": 69,
                    "time": 230.263031249999,
                    "velocity": 0.4251968503937008,
                    "duration": 0.08771924999999214
                },
                {
                    "name": "G#4",
                    "midi": 68,
                    "time": 230.35075049999898,
                    "velocity": 0.4015748031496063,
                    "duration": 0.08771924999999214
                },
                {
                    "name": "A4",
                    "midi": 69,
                    "time": 230.43846974999897,
                    "velocity": 0.4094488188976378,
                    "duration": 0.08771924999999214
                },
                {
                    "name": "A#4",
                    "midi": 70,
                    "time": 230.52618899999896,
                    "velocity": 0.41732283464566927,
                    "duration": 0.08771924999999214
                },
                {
                    "name": "B4",
                    "midi": 71,
                    "time": 230.61390824999896,
                    "velocity": 0.4251968503937008,
                    "duration": 0.08771924999999214
                },
                {
                    "name": "C5",
                    "midi": 72,
                    "time": 230.70162749999895,
                    "velocity": 0.4409448818897638,
                    "duration": 0.08771924999999214
                },
                {
                    "name": "C#5",
                    "midi": 73,
                    "time": 230.78934674999894,
                    "velocity": 0.44881889763779526,
                    "duration": 0.08771924999999214
                },
                {
                    "name": "D5",
                    "midi": 74,
                    "time": 230.87706599999893,
                    "velocity": 0.4645669291338583,
                    "duration": 0.11695900000000847
                },
                {
                    "name": "D#5",
                    "midi": 75,
                    "time": 230.99402499999894,
                    "velocity": 0.48031496062992124,
                    "duration": 0.11695900000000847
                },
                {
                    "name": "E5",
                    "midi": 76,
                    "time": 231.11098399999895,
                    "velocity": 0.4645669291338583,
                    "duration": 0.11695900000000847
                },
                {
                    "name": "G5",
                    "midi": 79,
                    "time": 231.22794299999896,
                    "velocity": 0.3937007874015748,
                    "duration": 0.1754385000000127
                },
                {
                    "name": "F5",
                    "midi": 77,
                    "time": 231.40338149999897,
                    "velocity": 0.36220472440944884,
                    "duration": 0.16081862499999033
                },
                {
                    "name": "F5",
                    "midi": 77,
                    "time": 231.57881999999896,
                    "velocity": 0.3937007874015748,
                    "duration": 0.058479500000004236
                },
                {
                    "name": "D#5",
                    "midi": 75,
                    "time": 231.69577899999896,
                    "velocity": 0.36220472440944884,
                    "duration": 0.058479500000004236
                },
                {
                    "name": "D5",
                    "midi": 74,
                    "time": 231.81273799999897,
                    "velocity": 0.36220472440944884,
                    "duration": 0.058479500000004236
                },
                {
                    "name": "D5",
                    "midi": 74,
                    "time": 231.92969699999898,
                    "velocity": 0.36220472440944884,
                    "duration": 0.058479500000004236
                },
                {
                    "name": "C5",
                    "midi": 72,
                    "time": 232.046655999999,
                    "velocity": 0.36220472440944884,
                    "duration": 0.058479500000004236
                },
                {
                    "name": "A#4",
                    "midi": 70,
                    "time": 232.163614999999,
                    "velocity": 0.36220472440944884,
                    "duration": 0.058479500000004236
                },
                {
                    "name": "A#4",
                    "midi": 70,
                    "time": 232.280573999999,
                    "velocity": 0.3937007874015748,
                    "duration": 0.058479500000004236
                },
                {
                    "name": "G#4",
                    "midi": 68,
                    "time": 232.39753299999902,
                    "velocity": 0.3464566929133858,
                    "duration": 0.058479500000004236
                },
                {
                    "name": "A4",
                    "midi": 69,
                    "time": 232.51449199999902,
                    "velocity": 0.3464566929133858,
                    "duration": 0.058479500000004236
                },
                {
                    "name": "C5",
                    "midi": 72,
                    "time": 232.63145099999903,
                    "velocity": 0.3700787401574803,
                    "duration": 0.058479500000004236
                },
                {
                    "name": "A4",
                    "midi": 69,
                    "time": 232.74840999999904,
                    "velocity": 0.3464566929133858,
                    "duration": 0.058479500000004236
                },
                {
                    "name": "A#4",
                    "midi": 70,
                    "time": 232.86536899999905,
                    "velocity": 0.3464566929133858,
                    "duration": 0.058479500000004236
                },
                {
                    "name": "B4",
                    "midi": 71,
                    "time": 232.98232799999906,
                    "velocity": 0.41732283464566927,
                    "duration": 0.350876999999997
                },
                {
                    "name": "C5",
                    "midi": 72,
                    "time": 233.33320499999905,
                    "velocity": 0.3858267716535433,
                    "duration": 0.350876999999997
                },
                {
                    "name": "F#5",
                    "midi": 78,
                    "time": 233.85952049999906,
                    "velocity": 0.3543307086614173,
                    "duration": 0.1754385000000127
                },
                {
                    "name": "A5",
                    "midi": 81,
                    "time": 234.03495899999908,
                    "velocity": 0.3937007874015748,
                    "duration": 0.1754385000000127
                },
                {
                    "name": "G5",
                    "midi": 79,
                    "time": 234.2103974999991,
                    "velocity": 0.36220472440944884,
                    "duration": 0.1754385000000127
                },
                {
                    "name": "G5",
                    "midi": 79,
                    "time": 234.3858359999991,
                    "velocity": 0.3937007874015748,
                    "duration": 0.058479500000004236
                },
                {
                    "name": "F5",
                    "midi": 77,
                    "time": 234.5027949999991,
                    "velocity": 0.36220472440944884,
                    "duration": 0.058479500000004236
                },
                {
                    "name": "D#5",
                    "midi": 75,
                    "time": 234.61975399999912,
                    "velocity": 0.36220472440944884,
                    "duration": 0.058479500000004236
                },
                {
                    "name": "D#5",
                    "midi": 75,
                    "time": 234.73671299999913,
                    "velocity": 0.36220472440944884,
                    "duration": 0.058479500000004236
                },
                {
                    "name": "D5",
                    "midi": 74,
                    "time": 234.85367199999914,
                    "velocity": 0.33070866141732286,
                    "duration": 0.058479500000004236
                },
                {
                    "name": "C5",
                    "midi": 72,
                    "time": 234.97063099999914,
                    "velocity": 0.33070866141732286,
                    "duration": 0.058479500000004236
                },
                {
                    "name": "C5",
                    "midi": 72,
                    "time": 235.08758999999915,
                    "velocity": 0.3937007874015748,
                    "duration": 0.058479500000004236
                },
                {
                    "name": "A4",
                    "midi": 69,
                    "time": 235.20454899999916,
                    "velocity": 0.3464566929133858,
                    "duration": 0.058479500000004236
                },
                {
                    "name": "A#4",
                    "midi": 70,
                    "time": 235.32150799999917,
                    "velocity": 0.3464566929133858,
                    "duration": 0.058479500000004236
                },
                {
                    "name": "D5",
                    "midi": 74,
                    "time": 235.43846699999918,
                    "velocity": 0.3700787401574803,
                    "duration": 0.058479500000004236
                },
                {
                    "name": "B4",
                    "midi": 71,
                    "time": 235.5554259999992,
                    "velocity": 0.3464566929133858,
                    "duration": 0.058479500000004236
                },
                {
                    "name": "C5",
                    "midi": 72,
                    "time": 235.6723849999992,
                    "velocity": 0.3464566929133858,
                    "duration": 0.058479500000004236
                },
                {
                    "name": "C#5",
                    "midi": 73,
                    "time": 235.7893439999992,
                    "velocity": 0.41732283464566927,
                    "duration": 0.350876999999997
                },
                {
                    "name": "D5",
                    "midi": 74,
                    "time": 236.1402209999992,
                    "velocity": 0.3858267716535433,
                    "duration": 0.46783600000000547
                },
                {
                    "name": "F5",
                    "midi": 77,
                    "time": 236.6080569999992,
                    "velocity": 0.4015748031496063,
                    "duration": 0.11695900000000847
                },
                {
                    "name": "E5",
                    "midi": 76,
                    "time": 236.72501599999921,
                    "velocity": 0.3779527559055118,
                    "duration": 0.11695900000000847
                },
                {
                    "name": "F5",
                    "midi": 77,
                    "time": 236.84197499999922,
                    "velocity": 0.4566929133858268,
                    "duration": 0.11695900000000847
                },
                {
                    "name": "G5",
                    "midi": 79,
                    "time": 236.95893399999923,
                    "velocity": 0.4094488188976378,
                    "duration": 0.11695900000000847
                },
                {
                    "name": "D5",
                    "midi": 74,
                    "time": 237.07589299999924,
                    "velocity": 0.3858267716535433,
                    "duration": 0.11695900000000847
                },
                {
                    "name": "F5",
                    "midi": 77,
                    "time": 237.19285199999925,
                    "velocity": 0.4409448818897638,
                    "duration": 0.11695900000000847
                },
                {
                    "name": "D#5",
                    "midi": 75,
                    "time": 237.30981099999926,
                    "velocity": 0.4094488188976378,
                    "duration": 0.11695900000000847
                },
                {
                    "name": "D5",
                    "midi": 74,
                    "time": 237.42676999999927,
                    "velocity": 0.4015748031496063,
                    "duration": 0.11695900000000847
                },
                {
                    "name": "D#5",
                    "midi": 75,
                    "time": 237.54372899999927,
                    "velocity": 0.44881889763779526,
                    "duration": 0.11695900000000847
                },
                {
                    "name": "F5",
                    "midi": 77,
                    "time": 237.66068799999928,
                    "velocity": 0.4094488188976378,
                    "duration": 0.11695900000000847
                },
                {
                    "name": "C5",
                    "midi": 72,
                    "time": 237.7776469999993,
                    "velocity": 0.4094488188976378,
                    "duration": 0.11695900000000847
                },
                {
                    "name": "D#5",
                    "midi": 75,
                    "time": 237.8946059999993,
                    "velocity": 0.44881889763779526,
                    "duration": 0.11695900000000847
                },
                {
                    "name": "D5",
                    "midi": 74,
                    "time": 238.0115649999993,
                    "velocity": 0.4094488188976378,
                    "duration": 0.11695900000000847
                },
                {
                    "name": "C#5",
                    "midi": 73,
                    "time": 238.12852399999932,
                    "velocity": 0.4015748031496063,
                    "duration": 0.11695900000000847
                },
                {
                    "name": "D5",
                    "midi": 74,
                    "time": 238.24548299999933,
                    "velocity": 0.4645669291338583,
                    "duration": 0.11695900000000847
                },
                {
                    "name": "G5",
                    "midi": 79,
                    "time": 238.36244199999933,
                    "velocity": 0.4094488188976378,
                    "duration": 0.11695900000000847
                },
                {
                    "name": "D5",
                    "midi": 74,
                    "time": 238.47940099999934,
                    "velocity": 0.4330708661417323,
                    "duration": 0.11695900000000847
                },
                {
                    "name": "F5",
                    "midi": 77,
                    "time": 238.59635999999935,
                    "velocity": 0.4881889763779528,
                    "duration": 0.11695900000000847
                },
                {
                    "name": "D#5",
                    "midi": 75,
                    "time": 238.71331899999936,
                    "velocity": 0.4409448818897638,
                    "duration": 0.11695900000000847
                },
                {
                    "name": "D5",
                    "midi": 74,
                    "time": 238.83027799999937,
                    "velocity": 0.4409448818897638,
                    "duration": 0.11695900000000847
                },
                {
                    "name": "D#5",
                    "midi": 75,
                    "time": 238.94723699999938,
                    "velocity": 0.4881889763779528,
                    "duration": 0.11695900000000847
                },
                {
                    "name": "F5",
                    "midi": 77,
                    "time": 239.06419599999938,
                    "velocity": 0.4251968503937008,
                    "duration": 0.11695900000000847
                },
                {
                    "name": "C5",
                    "midi": 72,
                    "time": 239.1811549999994,
                    "velocity": 0.4251968503937008,
                    "duration": 0.11695900000000847
                },
                {
                    "name": "D#5",
                    "midi": 75,
                    "time": 239.2981139999994,
                    "velocity": 0.48031496062992124,
                    "duration": 0.08771924999999214
                },
                {
                    "name": "D5",
                    "midi": 74,
                    "time": 239.3858332499994,
                    "velocity": 0.4330708661417323,
                    "duration": 0.08771924999999214
                },
                {
                    "name": "C#5",
                    "midi": 73,
                    "time": 239.47355249999939,
                    "velocity": 0.4094488188976378,
                    "duration": 0.08771924999999214
                },
                {
                    "name": "D5",
                    "midi": 74,
                    "time": 239.56127174999938,
                    "velocity": 0.41732283464566927,
                    "duration": 0.08771924999999214
                },
                {
                    "name": "D#5",
                    "midi": 75,
                    "time": 239.64899099999937,
                    "velocity": 0.4330708661417323,
                    "duration": 0.08771924999999214
                },
                {
                    "name": "E5",
                    "midi": 76,
                    "time": 239.73671024999936,
                    "velocity": 0.4409448818897638,
                    "duration": 0.08771924999999214
                },
                {
                    "name": "F5",
                    "midi": 77,
                    "time": 239.82442949999935,
                    "velocity": 0.44881889763779526,
                    "duration": 0.08771924999999214
                },
                {
                    "name": "F#5",
                    "midi": 78,
                    "time": 239.91214874999935,
                    "velocity": 0.4566929133858268,
                    "duration": 0.08771924999999214
                },
                {
                    "name": "G5",
                    "midi": 79,
                    "time": 239.99986799999934,
                    "velocity": 0.5039370078740157,
                    "duration": 0.08771924999999214
                },
                {
                    "name": "G#5",
                    "midi": 80,
                    "time": 240.08758724999933,
                    "velocity": 0.47244094488188976,
                    "duration": 0.08771924999999214
                },
                {
                    "name": "A5",
                    "midi": 81,
                    "time": 240.17530649999932,
                    "velocity": 0.48031496062992124,
                    "duration": 0.08771924999999214
                },
                {
                    "name": "A#5",
                    "midi": 82,
                    "time": 240.26302574999931,
                    "velocity": 0.4881889763779528,
                    "duration": 0.08771924999999214
                },
                {
                    "name": "B5",
                    "midi": 83,
                    "time": 240.3507449999993,
                    "velocity": 0.49606299212598426,
                    "duration": 0.08771924999999214
                },
                {
                    "name": "C6",
                    "midi": 84,
                    "time": 240.4384642499993,
                    "velocity": 0.5118110236220472,
                    "duration": 0.08771924999999214
                },
                {
                    "name": "C#6",
                    "midi": 85,
                    "time": 240.5261834999993,
                    "velocity": 0.5275590551181102,
                    "duration": 0.08771924999999214
                },
                {
                    "name": "D6",
                    "midi": 86,
                    "time": 240.61390274999928,
                    "velocity": 0.5354330708661418,
                    "duration": 0.08771924999999214
                },
                {
                    "name": "E6",
                    "midi": 88,
                    "time": 240.70162199999928,
                    "velocity": 0.6220472440944882,
                    "duration": 0.08771924999999214
                },
                {
                    "name": "D6",
                    "midi": 86,
                    "time": 240.78934124999927,
                    "velocity": 0.4881889763779528,
                    "duration": 0.08771924999999214
                },
                {
                    "name": "C6",
                    "midi": 84,
                    "time": 240.87706049999926,
                    "velocity": 0.5118110236220472,
                    "duration": 0.08771924999999214
                },
                {
                    "name": "A#5",
                    "midi": 82,
                    "time": 240.96477974999925,
                    "velocity": 0.4645669291338583,
                    "duration": 0.08771924999999214
                },
                {
                    "name": "A5",
                    "midi": 81,
                    "time": 241.05249899999924,
                    "velocity": 0.5039370078740157,
                    "duration": 0.08771924999999214
                },
                {
                    "name": "G5",
                    "midi": 79,
                    "time": 241.14021824999924,
                    "velocity": 0.4645669291338583,
                    "duration": 0.08771924999999214
                },
                {
                    "name": "F5",
                    "midi": 77,
                    "time": 241.22793749999923,
                    "velocity": 0.4566929133858268,
                    "duration": 0.08771924999999214
                },
                {
                    "name": "E5",
                    "midi": 76,
                    "time": 241.31565674999922,
                    "velocity": 0.4251968503937008,
                    "duration": 0.08771924999999214
                },
                {
                    "name": "G5",
                    "midi": 79,
                    "time": 241.4033759999992,
                    "velocity": 0.4566929133858268,
                    "duration": 0.350876999999997
                },
                {
                    "name": "F5",
                    "midi": 77,
                    "time": 241.7542529999992,
                    "velocity": 0.41732283464566927,
                    "duration": 0.350876999999997
                },
                {
                    "name": "F4",
                    "midi": 65,
                    "time": 242.28056849999922,
                    "velocity": 0.2992125984251969,
                    "duration": 0.1754385000000127
                },
                {
                    "name": "F5",
                    "midi": 77,
                    "time": 242.28056849999922,
                    "velocity": 0.3543307086614173,
                    "duration": 0.1754385000000127
                },
                {
                    "name": "G4",
                    "midi": 67,
                    "time": 242.45600699999923,
                    "velocity": 0.33070866141732286,
                    "duration": 0.1754385000000127
                },
                {
                    "name": "G5",
                    "midi": 79,
                    "time": 242.45600699999923,
                    "velocity": 0.3937007874015748,
                    "duration": 0.1754385000000127
                },
                {
                    "name": "F4",
                    "midi": 65,
                    "time": 242.63144549999924,
                    "velocity": 0.30708661417322836,
                    "duration": 0.1754385000000127
                },
                {
                    "name": "F5",
                    "midi": 77,
                    "time": 242.63144549999924,
                    "velocity": 0.36220472440944884,
                    "duration": 0.1754385000000127
                },
                {
                    "name": "D#4",
                    "midi": 63,
                    "time": 242.92384299999927,
                    "velocity": 0.33070866141732286,
                    "duration": 0.058479500000004236
                },
                {
                    "name": "D#5",
                    "midi": 75,
                    "time": 242.92384299999927,
                    "velocity": 0.3937007874015748,
                    "duration": 0.058479500000004236
                },
                {
                    "name": "D4",
                    "midi": 62,
                    "time": 243.04080199999927,
                    "velocity": 0.2755905511811024,
                    "duration": 0.058479500000004236
                },
                {
                    "name": "D5",
                    "midi": 74,
                    "time": 243.04080199999927,
                    "velocity": 0.3228346456692913,
                    "duration": 0.058479500000004236
                },
                {
                    "name": "C4",
                    "midi": 60,
                    "time": 243.2747199999993,
                    "velocity": 0.30708661417322836,
                    "duration": 0.058479500000004236
                },
                {
                    "name": "C5",
                    "midi": 72,
                    "time": 243.2747199999993,
                    "velocity": 0.36220472440944884,
                    "duration": 0.058479500000004236
                },
                {
                    "name": "A#3",
                    "midi": 58,
                    "time": 243.3916789999993,
                    "velocity": 0.2755905511811024,
                    "duration": 0.058479500000004236
                },
                {
                    "name": "A#4",
                    "midi": 70,
                    "time": 243.3916789999993,
                    "velocity": 0.3228346456692913,
                    "duration": 0.058479500000004236
                },
                {
                    "name": "G#3",
                    "midi": 56,
                    "time": 243.62559699999932,
                    "velocity": 0.33070866141732286,
                    "duration": 0.058479500000004236
                },
                {
                    "name": "G#4",
                    "midi": 68,
                    "time": 243.62559699999932,
                    "velocity": 0.3937007874015748,
                    "duration": 0.058479500000004236
                },
                {
                    "name": "A3",
                    "midi": 57,
                    "time": 243.74255599999933,
                    "velocity": 0.2755905511811024,
                    "duration": 0.058479500000004236
                },
                {
                    "name": "A4",
                    "midi": 69,
                    "time": 243.74255599999933,
                    "velocity": 0.3228346456692913,
                    "duration": 0.058479500000004236
                },
                {
                    "name": "A3",
                    "midi": 57,
                    "time": 243.97647399999934,
                    "velocity": 0.30708661417322836,
                    "duration": 0.058479500000004236
                },
                {
                    "name": "A4",
                    "midi": 69,
                    "time": 243.97647399999934,
                    "velocity": 0.36220472440944884,
                    "duration": 0.058479500000004236
                },
                {
                    "name": "A#4",
                    "midi": 70,
                    "time": 244.09343299999935,
                    "velocity": 0.3228346456692913,
                    "duration": 0.058479500000004236
                },
                {
                    "name": "A#3",
                    "midi": 58,
                    "time": 244.09343299999935,
                    "velocity": 0.2755905511811024,
                    "duration": 0.058479500000004236
                },
                {
                    "name": "B3",
                    "midi": 59,
                    "time": 244.21039199999936,
                    "velocity": 0.3543307086614173,
                    "duration": 0.350876999999997
                },
                {
                    "name": "B4",
                    "midi": 71,
                    "time": 244.21039199999936,
                    "velocity": 0.41732283464566927,
                    "duration": 0.350876999999997
                },
                {
                    "name": "C5",
                    "midi": 72,
                    "time": 244.56126899999936,
                    "velocity": 0.3858267716535433,
                    "duration": 0.5263155000000097
                },
                {
                    "name": "C4",
                    "midi": 60,
                    "time": 244.56126899999936,
                    "velocity": 0.3228346456692913,
                    "duration": 0.5263155000000097
                },
                {
                    "name": "F#5",
                    "midi": 78,
                    "time": 245.08758449999937,
                    "velocity": 0.3543307086614173,
                    "duration": 0.1754385000000127
                },
                {
                    "name": "F#4",
                    "midi": 66,
                    "time": 245.08758449999937,
                    "velocity": 0.2992125984251969,
                    "duration": 0.1754385000000127
                },
                {
                    "name": "A4",
                    "midi": 69,
                    "time": 245.26302299999938,
                    "velocity": 0.33070866141732286,
                    "duration": 0.1754385000000127
                },
                {
                    "name": "A5",
                    "midi": 81,
                    "time": 245.26302299999938,
                    "velocity": 0.3937007874015748,
                    "duration": 0.1754385000000127
                },
                {
                    "name": "G4",
                    "midi": 67,
                    "time": 245.4384614999994,
                    "velocity": 0.30708661417322836,
                    "duration": 0.1754385000000127
                },
                {
                    "name": "G5",
                    "midi": 79,
                    "time": 245.4384614999994,
                    "velocity": 0.36220472440944884,
                    "duration": 0.1754385000000127
                },
                {
                    "name": "F4",
                    "midi": 65,
                    "time": 245.7308589999994,
                    "velocity": 0.33070866141732286,
                    "duration": 0.058479500000004236
                },
                {
                    "name": "F5",
                    "midi": 77,
                    "time": 245.7308589999994,
                    "velocity": 0.3937007874015748,
                    "duration": 0.058479500000004236
                },
                {
                    "name": "D#4",
                    "midi": 63,
                    "time": 245.84781799999942,
                    "velocity": 0.2755905511811024,
                    "duration": 0.058479500000004236
                },
                {
                    "name": "D#5",
                    "midi": 75,
                    "time": 245.84781799999942,
                    "velocity": 0.3228346456692913,
                    "duration": 0.058479500000004236
                },
                {
                    "name": "D4",
                    "midi": 62,
                    "time": 246.08173599999944,
                    "velocity": 0.30708661417322836,
                    "duration": 0.058479500000004236
                },
                {
                    "name": "D5",
                    "midi": 74,
                    "time": 246.08173599999944,
                    "velocity": 0.36220472440944884,
                    "duration": 0.058479500000004236
                },
                {
                    "name": "C5",
                    "midi": 72,
                    "time": 246.19869499999945,
                    "velocity": 0.3228346456692913,
                    "duration": 0.058479500000004236
                },
                {
                    "name": "C4",
                    "midi": 60,
                    "time": 246.19869499999945,
                    "velocity": 0.2755905511811024,
                    "duration": 0.058479500000004236
                },
                {
                    "name": "A3",
                    "midi": 57,
                    "time": 246.43261299999946,
                    "velocity": 0.33070866141732286,
                    "duration": 0.058479500000004236
                },
                {
                    "name": "A4",
                    "midi": 69,
                    "time": 246.43261299999946,
                    "velocity": 0.3937007874015748,
                    "duration": 0.058479500000004236
                },
                {
                    "name": "A#3",
                    "midi": 58,
                    "time": 246.54957199999947,
                    "velocity": 0.2755905511811024,
                    "duration": 0.058479500000004236
                },
                {
                    "name": "A#4",
                    "midi": 70,
                    "time": 246.54957199999947,
                    "velocity": 0.3228346456692913,
                    "duration": 0.058479500000004236
                },
                {
                    "name": "B3",
                    "midi": 59,
                    "time": 246.7834899999995,
                    "velocity": 0.30708661417322836,
                    "duration": 0.058479500000004236
                },
                {
                    "name": "B4",
                    "midi": 71,
                    "time": 246.7834899999995,
                    "velocity": 0.36220472440944884,
                    "duration": 0.058479500000004236
                },
                {
                    "name": "C5",
                    "midi": 72,
                    "time": 246.9004489999995,
                    "velocity": 0.3228346456692913,
                    "duration": 0.058479500000004236
                },
                {
                    "name": "C4",
                    "midi": 60,
                    "time": 246.9004489999995,
                    "velocity": 0.2755905511811024,
                    "duration": 0.058479500000004236
                },
                {
                    "name": "C#4",
                    "midi": 61,
                    "time": 247.0174079999995,
                    "velocity": 0.3543307086614173,
                    "duration": 0.350876999999997
                },
                {
                    "name": "C#5",
                    "midi": 73,
                    "time": 247.0174079999995,
                    "velocity": 0.41732283464566927,
                    "duration": 0.350876999999997
                },
                {
                    "name": "D5",
                    "midi": 74,
                    "time": 247.3682849999995,
                    "velocity": 0.3858267716535433,
                    "duration": 0.46783600000000547
                },
                {
                    "name": "D4",
                    "midi": 62,
                    "time": 247.3682849999995,
                    "velocity": 0.3228346456692913,
                    "duration": 0.7017540000000224
                },
                {
                    "name": "F5",
                    "midi": 77,
                    "time": 247.8361209999995,
                    "velocity": 0.4409448818897638,
                    "duration": 0.11695900000000847
                },
                {
                    "name": "E5",
                    "midi": 76,
                    "time": 247.95307999999952,
                    "velocity": 0.4409448818897638,
                    "duration": 0.11695900000000847
                },
                {
                    "name": "G#4",
                    "midi": 68,
                    "time": 248.07003899999953,
                    "velocity": 0.4251968503937008,
                    "duration": 0.7017540000000508
                },
                {
                    "name": "F5",
                    "midi": 77,
                    "time": 248.07003899999953,
                    "velocity": 0.4881889763779528,
                    "duration": 0.11695900000000847
                },
                {
                    "name": "G5",
                    "midi": 79,
                    "time": 248.18699799999953,
                    "velocity": 0.44881889763779526,
                    "duration": 0.11695900000000847
                },
                {
                    "name": "D5",
                    "midi": 74,
                    "time": 248.30395699999954,
                    "velocity": 0.4015748031496063,
                    "duration": 0.11695900000000847
                },
                {
                    "name": "F5",
                    "midi": 77,
                    "time": 248.42091599999955,
                    "velocity": 0.4881889763779528,
                    "duration": 0.11695900000000847
                },
                {
                    "name": "D#5",
                    "midi": 75,
                    "time": 248.53787499999956,
                    "velocity": 0.4566929133858268,
                    "duration": 0.11695900000000847
                },
                {
                    "name": "D5",
                    "midi": 74,
                    "time": 248.65483399999957,
                    "velocity": 0.4251968503937008,
                    "duration": 0.11695900000000847
                },
                {
                    "name": "D#5",
                    "midi": 75,
                    "time": 248.77179299999958,
                    "velocity": 0.49606299212598426,
                    "duration": 0.11695900000000847
                },
                {
                    "name": "A4",
                    "midi": 69,
                    "time": 248.77179299999958,
                    "velocity": 0.36220472440944884,
                    "duration": 0.3508770000000254
                },
                {
                    "name": "F5",
                    "midi": 77,
                    "time": 248.88875199999958,
                    "velocity": 0.4566929133858268,
                    "duration": 0.11695900000000847
                },
                {
                    "name": "C5",
                    "midi": 72,
                    "time": 249.0057109999996,
                    "velocity": 0.41732283464566927,
                    "duration": 0.11695900000000847
                },
                {
                    "name": "D#5",
                    "midi": 75,
                    "time": 249.1226699999996,
                    "velocity": 0.5039370078740157,
                    "duration": 0.11695900000000847
                },
                {
                    "name": "A#4",
                    "midi": 70,
                    "time": 249.1226699999996,
                    "velocity": 0.36220472440944884,
                    "duration": 0.3508770000000254
                },
                {
                    "name": "D5",
                    "midi": 74,
                    "time": 249.2396289999996,
                    "velocity": 0.4645669291338583,
                    "duration": 0.11695900000000847
                },
                {
                    "name": "C#5",
                    "midi": 73,
                    "time": 249.35658799999962,
                    "velocity": 0.4645669291338583,
                    "duration": 0.11695900000000847
                },
                {
                    "name": "D5",
                    "midi": 74,
                    "time": 249.47354699999963,
                    "velocity": 0.5275590551181102,
                    "duration": 0.11695900000000847
                },
                {
                    "name": "G#4",
                    "midi": 68,
                    "time": 249.47354699999963,
                    "velocity": 0.3700787401574803,
                    "duration": 0.7017540000000508
                },
                {
                    "name": "G5",
                    "midi": 79,
                    "time": 249.59050599999964,
                    "velocity": 0.4881889763779528,
                    "duration": 0.11695900000000847
                },
                {
                    "name": "D5",
                    "midi": 74,
                    "time": 249.70746499999964,
                    "velocity": 0.4645669291338583,
                    "duration": 0.11695900000000847
                },
                {
                    "name": "F5",
                    "midi": 77,
                    "time": 249.82442399999965,
                    "velocity": 0.5590551181102362,
                    "duration": 0.11695900000000847
                },
                {
                    "name": "D#5",
                    "midi": 75,
                    "time": 249.94138299999966,
                    "velocity": 0.5039370078740157,
                    "duration": 0.11695900000000847
                },
                {
                    "name": "D5",
                    "midi": 74,
                    "time": 250.05834199999967,
                    "velocity": 0.48031496062992124,
                    "duration": 0.11695900000000847
                },
                {
                    "name": "D#5",
                    "midi": 75,
                    "time": 250.17530099999968,
                    "velocity": 0.5669291338582677,
                    "duration": 0.11695900000000847
                },
                {
                    "name": "A4",
                    "midi": 69,
                    "time": 250.17530099999968,
                    "velocity": 0.3700787401574803,
                    "duration": 0.350876999999997
                },
                {
                    "name": "F5",
                    "midi": 77,
                    "time": 250.2922599999997,
                    "velocity": 0.5196850393700787,
                    "duration": 0.11695900000000847
                },
                {
                    "name": "C5",
                    "midi": 72,
                    "time": 250.4092189999997,
                    "velocity": 0.49606299212598426,
                    "duration": 0.08771924999999214
                },
                {
                    "name": "A#4",
                    "midi": 70,
                    "time": 250.52617799999967,
                    "velocity": 0.47244094488188976,
                    "duration": 0.11695900000000847
                },
                {
                    "name": "D#5",
                    "midi": 75,
                    "time": 250.52617799999967,
                    "velocity": 0.5590551181102362,
                    "duration": 0.11695900000000847
                },
                {
                    "name": "D4",
                    "midi": 62,
                    "time": 250.64313699999968,
                    "velocity": 0.41732283464566927,
                    "duration": 0.11695900000000847
                },
                {
                    "name": "D5",
                    "midi": 74,
                    "time": 250.64313699999968,
                    "velocity": 0.49606299212598426,
                    "duration": 0.11695900000000847
                },
                {
                    "name": "C#4",
                    "midi": 61,
                    "time": 250.7600959999997,
                    "velocity": 0.41732283464566927,
                    "duration": 0.11695900000000847
                },
                {
                    "name": "C#5",
                    "midi": 73,
                    "time": 250.7600959999997,
                    "velocity": 0.49606299212598426,
                    "duration": 0.11695900000000847
                },
                {
                    "name": "D4",
                    "midi": 62,
                    "time": 250.8770549999997,
                    "velocity": 0.44881889763779526,
                    "duration": 0.11695900000000847
                },
                {
                    "name": "D5",
                    "midi": 74,
                    "time": 250.8770549999997,
                    "velocity": 0.5275590551181102,
                    "duration": 0.11695900000000847
                },
                {
                    "name": "D#4",
                    "midi": 63,
                    "time": 250.9940139999997,
                    "velocity": 0.47244094488188976,
                    "duration": 0.058479500000004236
                },
                {
                    "name": "D#5",
                    "midi": 75,
                    "time": 250.9940139999997,
                    "velocity": 0.5590551181102362,
                    "duration": 0.058479500000004236
                },
                {
                    "name": "E4",
                    "midi": 64,
                    "time": 251.11097299999972,
                    "velocity": 0.47244094488188976,
                    "duration": 0.058479500000004236
                },
                {
                    "name": "E5",
                    "midi": 76,
                    "time": 251.11097299999972,
                    "velocity": 0.5590551181102362,
                    "duration": 0.058479500000004236
                },
                {
                    "name": "F4",
                    "midi": 65,
                    "time": 251.22793199999973,
                    "velocity": 0.5039370078740157,
                    "duration": 0.058479500000004236
                },
                {
                    "name": "F5",
                    "midi": 77,
                    "time": 251.22793199999973,
                    "velocity": 0.5984251968503937,
                    "duration": 0.058479500000004236
                },
                {
                    "name": "F#4",
                    "midi": 66,
                    "time": 251.34489099999973,
                    "velocity": 0.48031496062992124,
                    "duration": 0.058479500000004236
                },
                {
                    "name": "F#5",
                    "midi": 78,
                    "time": 251.34489099999973,
                    "velocity": 0.5669291338582677,
                    "duration": 0.058479500000004236
                },
                {
                    "name": "G4",
                    "midi": 67,
                    "time": 251.46184999999974,
                    "velocity": 0.48031496062992124,
                    "duration": 0.058479500000004236
                },
                {
                    "name": "G5",
                    "midi": 79,
                    "time": 251.46184999999974,
                    "velocity": 0.5669291338582677,
                    "duration": 0.058479500000004236
                },
                {
                    "name": "G#4",
                    "midi": 68,
                    "time": 251.57880899999975,
                    "velocity": 0.5039370078740157,
                    "duration": 0.058479500000004236
                },
                {
                    "name": "G#5",
                    "midi": 80,
                    "time": 251.57880899999975,
                    "velocity": 0.5984251968503937,
                    "duration": 0.058479500000004236
                },
                {
                    "name": "A4",
                    "midi": 69,
                    "time": 251.69576799999976,
                    "velocity": 0.5275590551181102,
                    "duration": 0.058479500000004236
                },
                {
                    "name": "A5",
                    "midi": 81,
                    "time": 251.69576799999976,
                    "velocity": 0.6299212598425197,
                    "duration": 0.058479500000004236
                },
                {
                    "name": "A#4",
                    "midi": 70,
                    "time": 251.81272699999977,
                    "velocity": 0.5275590551181102,
                    "duration": 0.058479500000004236
                },
                {
                    "name": "A#5",
                    "midi": 82,
                    "time": 251.81272699999977,
                    "velocity": 0.6299212598425197,
                    "duration": 0.058479500000004236
                },
                {
                    "name": "A#4",
                    "midi": 70,
                    "time": 251.92968599999978,
                    "velocity": 0.5590551181102362,
                    "duration": 0.350876999999997
                },
                {
                    "name": "A#3",
                    "midi": 58,
                    "time": 251.92968599999978,
                    "velocity": 0.5590551181102362,
                    "duration": 0.350876999999997
                },
                {
                    "name": "C5",
                    "midi": 72,
                    "time": 252.28056299999977,
                    "velocity": 0.5433070866141733,
                    "duration": 0.350876999999997
                },
                {
                    "name": "C4",
                    "midi": 60,
                    "time": 252.28056299999977,
                    "velocity": 0.4566929133858268,
                    "duration": 0.350876999999997
                },
                {
                    "name": "C#4",
                    "midi": 61,
                    "time": 252.63143999999977,
                    "velocity": 0.3228346456692913,
                    "duration": 0.350876999999997
                },
                {
                    "name": "C#5",
                    "midi": 73,
                    "time": 252.63143999999977,
                    "velocity": 0.3858267716535433,
                    "duration": 0.350876999999997
                },
                {
                    "name": "D4",
                    "midi": 62,
                    "time": 252.98231699999977,
                    "velocity": 0.2992125984251969,
                    "duration": 0.43859624999998914
                },
                {
                    "name": "D5",
                    "midi": 74,
                    "time": 252.98231699999977,
                    "velocity": 0.3543307086614173,
                    "duration": 0.43859624999998914
                },
                {
                    "name": "A#4",
                    "midi": 70,
                    "time": 253.42091324999976,
                    "velocity": 0.4645669291338583,
                    "duration": 0.08771924999999214
                },
                {
                    "name": "A4",
                    "midi": 69,
                    "time": 253.50863249999975,
                    "velocity": 0.48031496062992124,
                    "duration": 0.08771924999999214
                },
                {
                    "name": "A#4",
                    "midi": 70,
                    "time": 253.59635174999974,
                    "velocity": 0.4881889763779528,
                    "duration": 0.08771924999999214
                },
                {
                    "name": "B4",
                    "midi": 71,
                    "time": 253.68407099999973,
                    "velocity": 0.4881889763779528,
                    "duration": 0.08771924999999214
                },
                {
                    "name": "C5",
                    "midi": 72,
                    "time": 253.77179024999973,
                    "velocity": 0.5039370078740157,
                    "duration": 0.08771924999999214
                },
                {
                    "name": "C#5",
                    "midi": 73,
                    "time": 253.85950949999972,
                    "velocity": 0.5118110236220472,
                    "duration": 0.08771924999999214
                },
                {
                    "name": "D5",
                    "midi": 74,
                    "time": 253.9472287499997,
                    "velocity": 0.5275590551181102,
                    "duration": 0.08771924999999214
                },
                {
                    "name": "D#5",
                    "midi": 75,
                    "time": 254.0349479999997,
                    "velocity": 0.5433070866141733,
                    "duration": 0.08771924999999214
                },
                {
                    "name": "E5",
                    "midi": 76,
                    "time": 254.1226672499997,
                    "velocity": 0.5511811023622047,
                    "duration": 0.08771924999999214
                },
                {
                    "name": "F5",
                    "midi": 77,
                    "time": 254.2103864999997,
                    "velocity": 0.5590551181102362,
                    "duration": 0.08771924999999214
                },
                {
                    "name": "F#5",
                    "midi": 78,
                    "time": 254.29810574999968,
                    "velocity": 0.5748031496062992,
                    "duration": 0.08771924999999214
                },
                {
                    "name": "G5",
                    "midi": 79,
                    "time": 254.38582499999967,
                    "velocity": 0.5826771653543307,
                    "duration": 0.08771924999999214
                },
                {
                    "name": "G#5",
                    "midi": 80,
                    "time": 254.47354424999966,
                    "velocity": 0.5984251968503937,
                    "duration": 0.08771924999999214
                },
                {
                    "name": "A5",
                    "midi": 81,
                    "time": 254.56126349999965,
                    "velocity": 0.6062992125984252,
                    "duration": 0.08771924999999214
                },
                {
                    "name": "A#5",
                    "midi": 82,
                    "time": 254.64898274999965,
                    "velocity": 0.6141732283464567,
                    "duration": 0.08771924999999214
                },
                {
                    "name": "A#4",
                    "midi": 70,
                    "time": 254.73670199999964,
                    "velocity": 0.41732283464566927,
                    "duration": 0.07017540000001077
                },
                {
                    "name": "C5",
                    "midi": 72,
                    "time": 254.80687739999965,
                    "velocity": 0.3779527559055118,
                    "duration": 0.07017540000001077
                },
                {
                    "name": "A#4",
                    "midi": 70,
                    "time": 254.87705279999966,
                    "velocity": 0.3543307086614173,
                    "duration": 0.07017540000001077
                },
                {
                    "name": "A4",
                    "midi": 69,
                    "time": 254.94722819999967,
                    "velocity": 0.3543307086614173,
                    "duration": 0.07017540000001077
                },
                {
                    "name": "A#4",
                    "midi": 70,
                    "time": 255.01740359999968,
                    "velocity": 0.3543307086614173,
                    "duration": 0.07017540000001077
                },
                {
                    "name": "D#4",
                    "midi": 63,
                    "time": 255.0875789999997,
                    "velocity": 0.3464566929133858,
                    "duration": 0.350876999999997
                },
                {
                    "name": "D5",
                    "midi": 74,
                    "time": 255.0875789999997,
                    "velocity": 0.4094488188976378,
                    "duration": 0.26315775000000485
                },
                {
                    "name": "C5",
                    "midi": 72,
                    "time": 255.3507367499997,
                    "velocity": 0.3228346456692913,
                    "duration": 0.08771924999999214
                },
                {
                    "name": "A#4",
                    "midi": 70,
                    "time": 255.4384559999997,
                    "velocity": 0.41732283464566927,
                    "duration": 0.08771924999999214
                },
                {
                    "name": "D4",
                    "midi": 62,
                    "time": 255.4384559999997,
                    "velocity": 0.41732283464566927,
                    "duration": 0.3508769999999686
                },
                {
                    "name": "F4",
                    "midi": 65,
                    "time": 255.52617524999968,
                    "velocity": 0.4645669291338583,
                    "duration": 0.08771924999999214
                },
                {
                    "name": "G4",
                    "midi": 67,
                    "time": 255.61389449999967,
                    "velocity": 0.4881889763779528,
                    "duration": 0.08771924999999214
                },
                {
                    "name": "A4",
                    "midi": 69,
                    "time": 255.70161374999967,
                    "velocity": 0.5039370078740157,
                    "duration": 0.08771924999999214
                },
                {
                    "name": "A#4",
                    "midi": 70,
                    "time": 255.78933299999966,
                    "velocity": 0.5275590551181102,
                    "duration": 0.08771924999999214
                },
                {
                    "name": "C5",
                    "midi": 72,
                    "time": 255.87705224999965,
                    "velocity": 0.5590551181102362,
                    "duration": 0.08771924999999214
                },
                {
                    "name": "D5",
                    "midi": 74,
                    "time": 255.96477149999964,
                    "velocity": 0.6141732283464567,
                    "duration": 0.08771925000002057
                },
                {
                    "name": "D#5",
                    "midi": 75,
                    "time": 256.05249074999966,
                    "velocity": 0.6614173228346457,
                    "duration": 0.08771925000002057
                },
                {
                    "name": "A#4",
                    "midi": 70,
                    "time": 256.1402099999997,
                    "velocity": 0.6692913385826772,
                    "duration": 0.701753999999994
                },
                {
                    "name": "F5",
                    "midi": 77,
                    "time": 256.1402099999997,
                    "velocity": 0.7952755905511811,
                    "duration": 0.701753999999994
                },
                {
                    "name": "A4",
                    "midi": 69,
                    "time": 256.8419639999997,
                    "velocity": 0.6692913385826772,
                    "duration": 0.701753999999994
                },
                {
                    "name": "F5",
                    "midi": 77,
                    "time": 256.8419639999997,
                    "velocity": 0.7952755905511811,
                    "duration": 0.701753999999994
                },
                {
                    "name": "A#4",
                    "midi": 70,
                    "time": 257.54371799999967,
                    "velocity": 0.6692913385826772,
                    "duration": 0.5263155000000097
                },
                {
                    "name": "F5",
                    "midi": 77,
                    "time": 257.54371799999967,
                    "velocity": 0.7952755905511811,
                    "duration": 0.7017540000000508
                },
                {
                    "name": "C5",
                    "midi": 72,
                    "time": 258.0700334999997,
                    "velocity": 0.6692913385826772,
                    "duration": 0.08771925000002057
                },
                {
                    "name": "D5",
                    "midi": 74,
                    "time": 258.1577527499997,
                    "velocity": 0.6692913385826772,
                    "duration": 0.08771925000002057
                },
                {
                    "name": "D#5",
                    "midi": 75,
                    "time": 258.2454719999997,
                    "velocity": 0.6692913385826772,
                    "duration": 0.701753999999994
                },
                {
                    "name": "F5",
                    "midi": 77,
                    "time": 258.2454719999997,
                    "velocity": 0.7952755905511811,
                    "duration": 0.701753999999994
                },
                {
                    "name": "D5",
                    "midi": 74,
                    "time": 258.9472259999997,
                    "velocity": 0.6692913385826772,
                    "duration": 0.5263155000000097
                },
                {
                    "name": "A#5",
                    "midi": 82,
                    "time": 258.9472259999997,
                    "velocity": 0.7952755905511811,
                    "duration": 0.7017540000000508
                },
                {
                    "name": "D#5",
                    "midi": 75,
                    "time": 259.4735414999997,
                    "velocity": 0.4409448818897638,
                    "duration": 0.08771925000002057
                },
                {
                    "name": "F5",
                    "midi": 77,
                    "time": 259.56126074999975,
                    "velocity": 0.44881889763779526,
                    "duration": 0.08771925000002057
                },
                {
                    "name": "A#5",
                    "midi": 82,
                    "time": 259.64897999999977,
                    "velocity": 0.6377952755905512,
                    "duration": 0.08771925000002057
                },
                {
                    "name": "G5",
                    "midi": 79,
                    "time": 259.64897999999977,
                    "velocity": 0.5354330708661418,
                    "duration": 0.08771925000002057
                },
                {
                    "name": "C5",
                    "midi": 72,
                    "time": 259.9998569999998,
                    "velocity": 0.3543307086614173,
                    "duration": 0.08771925000002057
                },
                {
                    "name": "C6",
                    "midi": 84,
                    "time": 259.9998569999998,
                    "velocity": 0.41732283464566927,
                    "duration": 0.08771925000002057
                },
                {
                    "name": "G5",
                    "midi": 79,
                    "time": 259.9998569999998,
                    "velocity": 0.3543307086614173,
                    "duration": 0.08771925000002057
                },
                {
                    "name": "D6",
                    "midi": 86,
                    "time": 260.3507339999998,
                    "velocity": 0.49606299212598426,
                    "duration": 0.08771925000002057
                },
                {
                    "name": "F5",
                    "midi": 77,
                    "time": 260.3507339999998,
                    "velocity": 0.41732283464566927,
                    "duration": 0.08771925000002057
                },
                {
                    "name": "D5",
                    "midi": 74,
                    "time": 260.3507339999998,
                    "velocity": 0.41732283464566927,
                    "duration": 0.08771925000002057
                },
                {
                    "name": "D#6",
                    "midi": 87,
                    "time": 260.70161099999984,
                    "velocity": 0.4251968503937008,
                    "duration": 0.08771925000002057
                },
                {
                    "name": "D#5",
                    "midi": 75,
                    "time": 260.70161099999984,
                    "velocity": 0.3543307086614173,
                    "duration": 0.08771925000002057
                },
                {
                    "name": "D5",
                    "midi": 74,
                    "time": 261.05248799999987,
                    "velocity": 0.4015748031496063,
                    "duration": 0.701753999999994
                },
                {
                    "name": "D6",
                    "midi": 86,
                    "time": 261.05248799999987,
                    "velocity": 0.48031496062992124,
                    "duration": 0.3508770000000254
                },
                {
                    "name": "A#5",
                    "midi": 82,
                    "time": 261.4033649999999,
                    "velocity": 0.41732283464566927,
                    "duration": 0.1754384999999843
                },
                {
                    "name": "A#4",
                    "midi": 70,
                    "time": 261.75424199999986,
                    "velocity": 0.6377952755905512,
                    "duration": 0.701753999999994
                },
                {
                    "name": "F5",
                    "midi": 77,
                    "time": 261.75424199999986,
                    "velocity": 0.7637795275590551,
                    "duration": 0.701753999999994
                },
                {
                    "name": "A4",
                    "midi": 69,
                    "time": 262.45599599999986,
                    "velocity": 0.6377952755905512,
                    "duration": 0.701753999999994
                },
                {
                    "name": "F5",
                    "midi": 77,
                    "time": 262.45599599999986,
                    "velocity": 0.7637795275590551,
                    "duration": 0.701753999999994
                },
                {
                    "name": "A#4",
                    "midi": 70,
                    "time": 263.15774999999985,
                    "velocity": 0.6377952755905512,
                    "duration": 0.5263155000000097
                },
                {
                    "name": "F5",
                    "midi": 77,
                    "time": 263.15774999999985,
                    "velocity": 0.7637795275590551,
                    "duration": 0.7017540000000508
                },
                {
                    "name": "C5",
                    "midi": 72,
                    "time": 263.68406549999986,
                    "velocity": 0.6377952755905512,
                    "duration": 0.08771925000002057
                },
                {
                    "name": "D5",
                    "midi": 74,
                    "time": 263.7717847499999,
                    "velocity": 0.6377952755905512,
                    "duration": 0.08771925000002057
                },
                {
                    "name": "D#5",
                    "midi": 75,
                    "time": 263.8595039999999,
                    "velocity": 0.6377952755905512,
                    "duration": 0.701753999999994
                },
                {
                    "name": "F5",
                    "midi": 77,
                    "time": 263.8595039999999,
                    "velocity": 0.7637795275590551,
                    "duration": 0.701753999999994
                },
                {
                    "name": "D5",
                    "midi": 74,
                    "time": 264.5612579999999,
                    "velocity": 0.6377952755905512,
                    "duration": 0.5263155000000097
                },
                {
                    "name": "A#5",
                    "midi": 82,
                    "time": 264.5612579999999,
                    "velocity": 0.7637795275590551,
                    "duration": 0.7894732500000714
                },
                {
                    "name": "D#5",
                    "midi": 75,
                    "time": 265.0875734999999,
                    "velocity": 0.5275590551181102,
                    "duration": 0.08771925000002057
                },
                {
                    "name": "F5",
                    "midi": 77,
                    "time": 265.1752927499999,
                    "velocity": 0.5354330708661418,
                    "duration": 0.08771925000002057
                },
                {
                    "name": "G5",
                    "midi": 79,
                    "time": 265.26301199999995,
                    "velocity": 0.7637795275590551,
                    "duration": 0.08771925000002057
                },
                {
                    "name": "D#5",
                    "midi": 75,
                    "time": 265.26301199999995,
                    "velocity": 0.6377952755905512,
                    "duration": 0.08771925000002057
                },
                {
                    "name": "C5",
                    "midi": 72,
                    "time": 265.613889,
                    "velocity": 0.5275590551181102,
                    "duration": 0.08771925000002057
                },
                {
                    "name": "C6",
                    "midi": 84,
                    "time": 265.613889,
                    "velocity": 0.6220472440944882,
                    "duration": 0.08771925000002057
                },
                {
                    "name": "G5",
                    "midi": 79,
                    "time": 265.613889,
                    "velocity": 0.5275590551181102,
                    "duration": 0.08771925000002057
                },
                {
                    "name": "D6",
                    "midi": 86,
                    "time": 265.964766,
                    "velocity": 0.7716535433070866,
                    "duration": 0.08771925000002057
                },
                {
                    "name": "F5",
                    "midi": 77,
                    "time": 265.964766,
                    "velocity": 0.6456692913385826,
                    "duration": 0.08771925000002057
                },
                {
                    "name": "D5",
                    "midi": 74,
                    "time": 265.964766,
                    "velocity": 0.6456692913385826,
                    "duration": 0.08771925000002057
                },
                {
                    "name": "D#6",
                    "midi": 87,
                    "time": 266.315643,
                    "velocity": 0.6850393700787402,
                    "duration": 0.08771925000002057
                },
                {
                    "name": "D#5",
                    "midi": 75,
                    "time": 266.315643,
                    "velocity": 0.5826771653543307,
                    "duration": 0.08771925000002057
                },
                {
                    "name": "D5",
                    "midi": 74,
                    "time": 266.66652000000005,
                    "velocity": 0.5905511811023622,
                    "duration": 0.701753999999994
                },
                {
                    "name": "D6",
                    "midi": 86,
                    "time": 266.66652000000005,
                    "velocity": 0.8188976377952756,
                    "duration": 0.3508770000000254
                },
                {
                    "name": "A#5",
                    "midi": 82,
                    "time": 267.0173970000001,
                    "velocity": 0.6377952755905512,
                    "duration": 0.1754384999999843
                },
                {
                    "name": "A#4",
                    "midi": 70,
                    "time": 267.36827400000004,
                    "velocity": 0.5826771653543307,
                    "duration": 0.5263155000000097
                },
                {
                    "name": "D5",
                    "midi": 74,
                    "time": 267.36827400000004,
                    "velocity": 0.6929133858267716,
                    "duration": 0.5263155000000097
                },
                {
                    "name": "A#5",
                    "midi": 82,
                    "time": 267.36827400000004,
                    "velocity": 0.8346456692913385,
                    "duration": 0.7894732500000714
                },
                {
                    "name": "C5",
                    "midi": 72,
                    "time": 267.89458950000005,
                    "velocity": 0.48031496062992124,
                    "duration": 0.08771925000002057
                },
                {
                    "name": "D#5",
                    "midi": 75,
                    "time": 267.89458950000005,
                    "velocity": 0.5748031496062992,
                    "duration": 0.08771925000002057
                },
                {
                    "name": "D5",
                    "midi": 74,
                    "time": 267.9823087500001,
                    "velocity": 0.4881889763779528,
                    "duration": 0.08771925000002057
                },
                {
                    "name": "F5",
                    "midi": 77,
                    "time": 267.9823087500001,
                    "velocity": 0.5826771653543307,
                    "duration": 0.08771925000002057
                },
                {
                    "name": "G5",
                    "midi": 79,
                    "time": 268.0700280000001,
                    "velocity": 0.8346456692913385,
                    "duration": 0.08771925000002057
                },
                {
                    "name": "D#5",
                    "midi": 75,
                    "time": 268.0700280000001,
                    "velocity": 0.6929133858267716,
                    "duration": 0.08771925000002057
                },
                {
                    "name": "C5",
                    "midi": 72,
                    "time": 268.4209050000001,
                    "velocity": 0.5669291338582677,
                    "duration": 0.08771925000002057
                },
                {
                    "name": "C6",
                    "midi": 84,
                    "time": 268.4209050000001,
                    "velocity": 0.6771653543307087,
                    "duration": 0.08771925000002057
                },
                {
                    "name": "G5",
                    "midi": 79,
                    "time": 268.4209050000001,
                    "velocity": 0.5669291338582677,
                    "duration": 0.08771925000002057
                },
                {
                    "name": "D6",
                    "midi": 86,
                    "time": 268.77178200000014,
                    "velocity": 0.8503937007874016,
                    "duration": 0.08771925000002057
                },
                {
                    "name": "F5",
                    "midi": 77,
                    "time": 268.77178200000014,
                    "velocity": 0.7086614173228346,
                    "duration": 0.08771925000002057
                },
                {
                    "name": "D5",
                    "midi": 74,
                    "time": 268.77178200000014,
                    "velocity": 0.7086614173228346,
                    "duration": 0.08771925000002057
                },
                {
                    "name": "D#6",
                    "midi": 87,
                    "time": 269.12265900000017,
                    "velocity": 0.7795275590551181,
                    "duration": 0.08771925000002057
                },
                {
                    "name": "D#5",
                    "midi": 75,
                    "time": 269.12265900000017,
                    "velocity": 0.6299212598425197,
                    "duration": 0.08771925000002057
                },
                {
                    "name": "D5",
                    "midi": 74,
                    "time": 269.4735360000002,
                    "velocity": 0.6456692913385826,
                    "duration": 0.687134125
                },
                {
                    "name": "D6",
                    "midi": 86,
                    "time": 269.4735360000002,
                    "velocity": 0.8976377952755905,
                    "duration": 0.3508770000000254
                },
                {
                    "name": "A#5",
                    "midi": 82,
                    "time": 269.8244130000002,
                    "velocity": 0.6929133858267716,
                    "duration": 0.1754384999999843
                },
                {
                    "name": "A#4",
                    "midi": 70,
                    "time": 270.1752900000002,
                    "velocity": 0.7401574803149606,
                    "duration": 0.5263155000000097
                },
                {
                    "name": "D5",
                    "midi": 74,
                    "time": 270.1752900000002,
                    "velocity": 0.7401574803149606,
                    "duration": 0.5263155000000097
                },
                {
                    "name": "A#5",
                    "midi": 82,
                    "time": 270.1752900000002,
                    "velocity": 0.8740157480314961,
                    "duration": 0.7894732500000714
                },
                {
                    "name": "C5",
                    "midi": 72,
                    "time": 270.7016055000002,
                    "velocity": 0.5748031496062992,
                    "duration": 0.08771925000002057
                },
                {
                    "name": "D#5",
                    "midi": 75,
                    "time": 270.7016055000002,
                    "velocity": 0.6771653543307087,
                    "duration": 0.08771925000002057
                },
                {
                    "name": "D5",
                    "midi": 74,
                    "time": 270.7893247500002,
                    "velocity": 0.5905511811023622,
                    "duration": 0.08771925000002057
                },
                {
                    "name": "F5",
                    "midi": 77,
                    "time": 270.7893247500002,
                    "velocity": 0.7086614173228346,
                    "duration": 0.08771925000002057
                },
                {
                    "name": "G5",
                    "midi": 79,
                    "time": 270.87704400000024,
                    "velocity": 0.8346456692913385,
                    "duration": 0.08771925000002057
                },
                {
                    "name": "D#5",
                    "midi": 75,
                    "time": 270.87704400000024,
                    "velocity": 0.5826771653543307,
                    "duration": 0.08771925000002057
                },
                {
                    "name": "E5",
                    "midi": 76,
                    "time": 271.22792100000026,
                    "velocity": 0.6692913385826772,
                    "duration": 0.08771925000002057
                },
                {
                    "name": "C5",
                    "midi": 72,
                    "time": 271.22792100000026,
                    "velocity": 0.6692913385826772,
                    "duration": 0.08771925000002057
                },
                {
                    "name": "C6",
                    "midi": 84,
                    "time": 271.22792100000026,
                    "velocity": 0.7874015748031497,
                    "duration": 0.08771925000002057
                },
                {
                    "name": "A#5",
                    "midi": 82,
                    "time": 271.22792100000026,
                    "velocity": 0.6692913385826772,
                    "duration": 0.08771925000002057
                },
                {
                    "name": "A#5",
                    "midi": 82,
                    "time": 271.5787980000003,
                    "velocity": 0.7165354330708661,
                    "duration": 0.08771925000002057
                },
                {
                    "name": "D6",
                    "midi": 86,
                    "time": 271.5787980000003,
                    "velocity": 0.8503937007874016,
                    "duration": 0.08771925000002057
                },
                {
                    "name": "F5",
                    "midi": 77,
                    "time": 271.5787980000003,
                    "velocity": 0.7165354330708661,
                    "duration": 0.08771925000002057
                },
                {
                    "name": "D5",
                    "midi": 74,
                    "time": 271.5787980000003,
                    "velocity": 0.7165354330708661,
                    "duration": 0.08771925000002057
                },
                {
                    "name": "D#5",
                    "midi": 75,
                    "time": 271.9296750000003,
                    "velocity": 0.6456692913385826,
                    "duration": 0.08771925000002057
                },
                {
                    "name": "A5",
                    "midi": 81,
                    "time": 271.9296750000003,
                    "velocity": 0.7637795275590551,
                    "duration": 0.08771925000002057
                },
                {
                    "name": "A4",
                    "midi": 69,
                    "time": 271.9296750000003,
                    "velocity": 0.6456692913385826,
                    "duration": 0.08771925000002057
                },
                {
                    "name": "D5",
                    "midi": 74,
                    "time": 272.28055200000034,
                    "velocity": 0.6850393700787402,
                    "duration": 0.08771925000002057
                },
                {
                    "name": "A#4",
                    "midi": 70,
                    "time": 272.28055200000034,
                    "velocity": 0.6850393700787402,
                    "duration": 0.08771925000002057
                },
                {
                    "name": "A#5",
                    "midi": 82,
                    "time": 272.28055200000034,
                    "velocity": 0.8110236220472441,
                    "duration": 0.08771925000002057
                },
                {
                    "name": "F5",
                    "midi": 77,
                    "time": 272.4559905000004,
                    "velocity": 0.3543307086614173,
                    "duration": 0.1754384999999843
                },
                {
                    "name": "G5",
                    "midi": 79,
                    "time": 272.63142900000037,
                    "velocity": 0.3937007874015748,
                    "duration": 0.1754384999999843
                },
                {
                    "name": "F5",
                    "midi": 77,
                    "time": 272.80686750000035,
                    "velocity": 0.36220472440944884,
                    "duration": 0.1754384999999843
                },
                {
                    "name": "D#5",
                    "midi": 75,
                    "time": 272.98230600000034,
                    "velocity": 0.3937007874015748,
                    "duration": 0.1754384999999843
                },
                {
                    "name": "D5",
                    "midi": 74,
                    "time": 273.1577445000003,
                    "velocity": 0.33858267716535434,
                    "duration": 0.1754384999999843
                },
                {
                    "name": "C5",
                    "midi": 72,
                    "time": 273.3331830000003,
                    "velocity": 0.36220472440944884,
                    "duration": 0.1754384999999843
                },
                {
                    "name": "A#4",
                    "midi": 70,
                    "time": 273.5086215000003,
                    "velocity": 0.33858267716535434,
                    "duration": 0.1754384999999843
                },
                {
                    "name": "D#4",
                    "midi": 63,
                    "time": 273.6840600000003,
                    "velocity": 0.31496062992125984,
                    "duration": 1.0380111249999686
                },
                {
                    "name": "A4",
                    "midi": 69,
                    "time": 273.6840600000003,
                    "velocity": 0.3937007874015748,
                    "duration": 0.1754384999999843
                },
                {
                    "name": "G4",
                    "midi": 67,
                    "time": 273.85949850000026,
                    "velocity": 0.36220472440944884,
                    "duration": 0.1754384999999843
                },
                {
                    "name": "F4",
                    "midi": 65,
                    "time": 274.03493700000024,
                    "velocity": 0.3700787401574803,
                    "duration": 0.701753999999994
                },
                {
                    "name": "D#4",
                    "midi": 63,
                    "time": 274.73669100000023,
                    "velocity": 0.29133858267716534,
                    "duration": 0.3508769999999686
                },
                {
                    "name": "G4",
                    "midi": 67,
                    "time": 274.73669100000023,
                    "velocity": 0.3464566929133858,
                    "duration": 0.1754384999999843
                },
                {
                    "name": "A4",
                    "midi": 69,
                    "time": 274.9121295000002,
                    "velocity": 0.33070866141732286,
                    "duration": 0.1754384999999843
                },
                {
                    "name": "D4",
                    "midi": 62,
                    "time": 275.0875680000002,
                    "velocity": 0.2755905511811024,
                    "duration": 0.08771925000002057
                },
                {
                    "name": "A#4",
                    "midi": 70,
                    "time": 275.0875680000002,
                    "velocity": 0.33070866141732286,
                    "duration": 0.08771925000002057
                },
                {
                    "name": "F4",
                    "midi": 65,
                    "time": 275.26300650000024,
                    "velocity": 0.2992125984251969,
                    "duration": 0.1754384999999843
                },
                {
                    "name": "G4",
                    "midi": 67,
                    "time": 275.43844500000023,
                    "velocity": 0.33070866141732286,
                    "duration": 0.1754384999999843
                },
                {
                    "name": "F4",
                    "midi": 65,
                    "time": 275.6138835000002,
                    "velocity": 0.30708661417322836,
                    "duration": 0.1754384999999843
                },
                {
                    "name": "D#4",
                    "midi": 63,
                    "time": 275.7893220000002,
                    "velocity": 0.33070866141732286,
                    "duration": 0.1754384999999843
                },
                {
                    "name": "D4",
                    "midi": 62,
                    "time": 275.9647605000002,
                    "velocity": 0.29133858267716534,
                    "duration": 0.1754384999999843
                },
                {
                    "name": "C4",
                    "midi": 60,
                    "time": 276.14019900000017,
                    "velocity": 0.30708661417322836,
                    "duration": 0.1754384999999843
                },
                {
                    "name": "A#3",
                    "midi": 58,
                    "time": 276.31563750000015,
                    "velocity": 0.29133858267716534,
                    "duration": 0.1754384999999843
                },
                {
                    "name": "D#3",
                    "midi": 51,
                    "time": 276.49107600000013,
                    "velocity": 0.2677165354330709,
                    "duration": 1.0380111249999686
                },
                {
                    "name": "A3",
                    "midi": 57,
                    "time": 276.49107600000013,
                    "velocity": 0.33070866141732286,
                    "duration": 0.1754384999999843
                },
                {
                    "name": "G3",
                    "midi": 55,
                    "time": 276.6665145000001,
                    "velocity": 0.30708661417322836,
                    "duration": 0.1754384999999843
                },
                {
                    "name": "F3",
                    "midi": 53,
                    "time": 276.8419530000001,
                    "velocity": 0.30708661417322836,
                    "duration": 0.701753999999994
                },
                {
                    "name": "D#3",
                    "midi": 51,
                    "time": 277.5437070000001,
                    "velocity": 0.2440944881889764,
                    "duration": 0.3508769999999686
                },
                {
                    "name": "G3",
                    "midi": 55,
                    "time": 277.5437070000001,
                    "velocity": 0.29133858267716534,
                    "duration": 0.1754384999999843
                },
                {
                    "name": "A3",
                    "midi": 57,
                    "time": 277.7191455000001,
                    "velocity": 0.2755905511811024,
                    "duration": 0.1754384999999843
                },
                {
                    "name": "D3",
                    "midi": 50,
                    "time": 277.89458400000007,
                    "velocity": 0.25196850393700787,
                    "duration": 0.08771925000002057
                },
                {
                    "name": "A#3",
                    "midi": 58,
                    "time": 277.89458400000007,
                    "velocity": 0.29133858267716534,
                    "duration": 0.08771925000002057
                },
                {
                    "name": "D#4",
                    "midi": 63,
                    "time": 278.2454610000001,
                    "velocity": 0.33070866141732286,
                    "duration": 0.08771925000002057
                },
                {
                    "name": "A4",
                    "midi": 69,
                    "time": 278.2454610000001,
                    "velocity": 0.33070866141732286,
                    "duration": 0.08771925000002057
                },
                {
                    "name": "D4",
                    "midi": 62,
                    "time": 278.5963380000001,
                    "velocity": 0.33070866141732286,
                    "duration": 0.08771925000002057
                },
                {
                    "name": "A#4",
                    "midi": 70,
                    "time": 278.5963380000001,
                    "velocity": 0.33070866141732286,
                    "duration": 0.08771925000002057
                },
                {
                    "name": "C5",
                    "midi": 72,
                    "time": 278.94721500000014,
                    "velocity": 0.6929133858267716,
                    "duration": 0.08771925000002057
                },
                {
                    "name": "D#5",
                    "midi": 75,
                    "time": 278.94721500000014,
                    "velocity": 0.6929133858267716,
                    "duration": 0.08771925000002057
                },
                {
                    "name": "A5",
                    "midi": 81,
                    "time": 278.94721500000014,
                    "velocity": 0.8267716535433071,
                    "duration": 0.08771925000002057
                },
                {
                    "name": "A#4",
                    "midi": 70,
                    "time": 279.29809200000017,
                    "velocity": 0.7716535433070866,
                    "duration": 0.08771925000002057
                },
                {
                    "name": "D5",
                    "midi": 74,
                    "time": 279.29809200000017,
                    "velocity": 0.7716535433070866,
                    "duration": 0.08771925000002057
                },
                {
                    "name": "A#5",
                    "midi": 82,
                    "time": 279.29809200000017,
                    "velocity": 0.9133858267716536,
                    "duration": 0.08771925000002057
                }
            ],
            "controlChanges": {},
            "id": 1,
            "name": "Piano right",
            "instrumentNumber": 0,
            "instrument": "acoustic grand piano",
            "instrumentFamily": "piano",
            "channelNumber": 0,
            "isPercussion": false
        },
        {
            "startTime": 1.403508,
            "duration": 279.3858112500038,
            "length": 1560,
            "notes": [
                {
                    "name": "A#3",
                    "midi": 58,
                    "time": 1.403508,
                    "velocity": 0.33070866141732286,
                    "duration": 0.3508770000000001
                },
                {
                    "name": "F4",
                    "midi": 65,
                    "time": 1.5789465,
                    "velocity": 0.2677165354330709,
                    "duration": 0.17543850000000005
                },
                {
                    "name": "D4",
                    "midi": 62,
                    "time": 1.754385,
                    "velocity": 0.2992125984251969,
                    "duration": 0.3508770000000001
                },
                {
                    "name": "F4",
                    "midi": 65,
                    "time": 1.9298235000000001,
                    "velocity": 0.2677165354330709,
                    "duration": 0.17543850000000005
                },
                {
                    "name": "D#4",
                    "midi": 63,
                    "time": 2.105262,
                    "velocity": 0.2992125984251969,
                    "duration": 0.17543849999999983
                },
                {
                    "name": "C4",
                    "midi": 60,
                    "time": 2.105262,
                    "velocity": 0.2992125984251969,
                    "duration": 0.35087699999999966
                },
                {
                    "name": "F4",
                    "midi": 65,
                    "time": 2.2807005,
                    "velocity": 0.2677165354330709,
                    "duration": 0.17543849999999983
                },
                {
                    "name": "D4",
                    "midi": 62,
                    "time": 2.456139,
                    "velocity": 0.29133858267716534,
                    "duration": 0.17543849999999983
                },
                {
                    "name": "A#3",
                    "midi": 58,
                    "time": 2.456139,
                    "velocity": 0.29133858267716534,
                    "duration": 0.35087699999999966
                },
                {
                    "name": "F4",
                    "midi": 65,
                    "time": 2.6315774999999997,
                    "velocity": 0.2677165354330709,
                    "duration": 0.17543849999999983
                },
                {
                    "name": "A3",
                    "midi": 57,
                    "time": 2.8070159999999995,
                    "velocity": 0.33858267716535434,
                    "duration": 1.4035080000000018
                },
                {
                    "name": "D#4",
                    "midi": 63,
                    "time": 2.8070159999999995,
                    "velocity": 0.33858267716535434,
                    "duration": 1.4035080000000018
                },
                {
                    "name": "F4",
                    "midi": 65,
                    "time": 2.9824544999999993,
                    "velocity": 0.2677165354330709,
                    "duration": 0.08771925000000014
                },
                {
                    "name": "F4",
                    "midi": 65,
                    "time": 3.1578929999999996,
                    "velocity": 0.2677165354330709,
                    "duration": 0.08771925000000014
                },
                {
                    "name": "F4",
                    "midi": 65,
                    "time": 3.3333315,
                    "velocity": 0.2677165354330709,
                    "duration": 0.08771925000000014
                },
                {
                    "name": "F4",
                    "midi": 65,
                    "time": 3.50877,
                    "velocity": 0.29133858267716534,
                    "duration": 0.08771925000000014
                },
                {
                    "name": "F4",
                    "midi": 65,
                    "time": 3.6842085000000004,
                    "velocity": 0.2677165354330709,
                    "duration": 0.08771925000000014
                },
                {
                    "name": "F4",
                    "midi": 65,
                    "time": 3.8596470000000007,
                    "velocity": 0.2677165354330709,
                    "duration": 0.08771925000000014
                },
                {
                    "name": "F4",
                    "midi": 65,
                    "time": 4.035085500000001,
                    "velocity": 0.2677165354330709,
                    "duration": 0.08771925000000014
                },
                {
                    "name": "A3",
                    "midi": 57,
                    "time": 4.210524000000001,
                    "velocity": 0.33070866141732286,
                    "duration": 0.35087700000000055
                },
                {
                    "name": "F4",
                    "midi": 65,
                    "time": 4.3859625000000015,
                    "velocity": 0.2677165354330709,
                    "duration": 0.17543850000000027
                },
                {
                    "name": "D#4",
                    "midi": 63,
                    "time": 4.561401000000002,
                    "velocity": 0.2992125984251969,
                    "duration": 0.35087700000000055
                },
                {
                    "name": "F4",
                    "midi": 65,
                    "time": 4.736839500000002,
                    "velocity": 0.2677165354330709,
                    "duration": 0.17543850000000027
                },
                {
                    "name": "D4",
                    "midi": 62,
                    "time": 4.912278000000002,
                    "velocity": 0.2992125984251969,
                    "duration": 0.35087700000000055
                },
                {
                    "name": "F4",
                    "midi": 65,
                    "time": 5.087716500000003,
                    "velocity": 0.2677165354330709,
                    "duration": 0.17543850000000027
                },
                {
                    "name": "A3",
                    "midi": 57,
                    "time": 5.263155000000003,
                    "velocity": 0.29133858267716534,
                    "duration": 0.35087700000000055
                },
                {
                    "name": "F4",
                    "midi": 65,
                    "time": 5.438593500000003,
                    "velocity": 0.2677165354330709,
                    "duration": 0.17543850000000027
                },
                {
                    "name": "A#3",
                    "midi": 58,
                    "time": 5.6140320000000035,
                    "velocity": 0.33858267716535434,
                    "duration": 1.0526310000000016
                },
                {
                    "name": "F4",
                    "midi": 65,
                    "time": 5.789470500000004,
                    "velocity": 0.2677165354330709,
                    "duration": 0.08771925000000014
                },
                {
                    "name": "F4",
                    "midi": 65,
                    "time": 5.964909000000004,
                    "velocity": 0.2677165354330709,
                    "duration": 0.08771925000000014
                },
                {
                    "name": "F4",
                    "midi": 65,
                    "time": 6.140347500000004,
                    "velocity": 0.2677165354330709,
                    "duration": 0.08771925000000014
                },
                {
                    "name": "F4",
                    "midi": 65,
                    "time": 6.315786000000005,
                    "velocity": 0.29133858267716534,
                    "duration": 0.08771925000000014
                },
                {
                    "name": "F4",
                    "midi": 65,
                    "time": 6.491224500000005,
                    "velocity": 0.2677165354330709,
                    "duration": 0.08771925000000014
                },
                {
                    "name": "B3",
                    "midi": 59,
                    "time": 6.666663000000005,
                    "velocity": 0.2677165354330709,
                    "duration": 0.35087700000000055
                },
                {
                    "name": "F4",
                    "midi": 65,
                    "time": 6.842101500000005,
                    "velocity": 0.2677165354330709,
                    "duration": 0.08771925000000014
                },
                {
                    "name": "C4",
                    "midi": 60,
                    "time": 7.017540000000006,
                    "velocity": 0.33070866141732286,
                    "duration": 0.35087700000000055
                },
                {
                    "name": "F4",
                    "midi": 65,
                    "time": 7.192978500000006,
                    "velocity": 0.2677165354330709,
                    "duration": 0.17543850000000027
                },
                {
                    "name": "A3",
                    "midi": 57,
                    "time": 7.368417000000006,
                    "velocity": 0.2992125984251969,
                    "duration": 0.35087700000000055
                },
                {
                    "name": "F4",
                    "midi": 65,
                    "time": 7.5438555000000065,
                    "velocity": 0.2677165354330709,
                    "duration": 0.17543850000000027
                },
                {
                    "name": "A#3",
                    "midi": 58,
                    "time": 7.719294000000007,
                    "velocity": 0.33070866141732286,
                    "duration": 0.35087700000000055
                },
                {
                    "name": "F4",
                    "midi": 65,
                    "time": 7.894732500000007,
                    "velocity": 0.2677165354330709,
                    "duration": 0.17543850000000027
                },
                {
                    "name": "B3",
                    "midi": 59,
                    "time": 8.070171000000007,
                    "velocity": 0.2992125984251969,
                    "duration": 0.35087700000000055
                },
                {
                    "name": "F4",
                    "midi": 65,
                    "time": 8.245609500000008,
                    "velocity": 0.2677165354330709,
                    "duration": 0.17543850000000027
                },
                {
                    "name": "C4",
                    "midi": 60,
                    "time": 8.421048000000008,
                    "velocity": 0.3700787401574803,
                    "duration": 0.35087700000000055
                },
                {
                    "name": "F4",
                    "midi": 65,
                    "time": 8.596486500000008,
                    "velocity": 0.2677165354330709,
                    "duration": 0.17543850000000027
                },
                {
                    "name": "A3",
                    "midi": 57,
                    "time": 8.771925000000008,
                    "velocity": 0.33070866141732286,
                    "duration": 0.35087700000000055
                },
                {
                    "name": "F4",
                    "midi": 65,
                    "time": 8.947363500000009,
                    "velocity": 0.2677165354330709,
                    "duration": 0.17543850000000027
                },
                {
                    "name": "A#3",
                    "midi": 58,
                    "time": 9.122802000000009,
                    "velocity": 0.4094488188976378,
                    "duration": 0.35087700000000055
                },
                {
                    "name": "D4",
                    "midi": 62,
                    "time": 9.29824050000001,
                    "velocity": 0.2992125984251969,
                    "duration": 0.17543850000000027
                },
                {
                    "name": "A3",
                    "midi": 57,
                    "time": 9.47367900000001,
                    "velocity": 0.3700787401574803,
                    "duration": 0.35087700000000055
                },
                {
                    "name": "C4",
                    "midi": 60,
                    "time": 9.64911750000001,
                    "velocity": 0.33070866141732286,
                    "duration": 0.17543850000000027
                },
                {
                    "name": "G3",
                    "midi": 55,
                    "time": 9.82455600000001,
                    "velocity": 0.4566929133858268,
                    "duration": 0.3362571249999995
                },
                {
                    "name": "A#3",
                    "midi": 58,
                    "time": 9.99999450000001,
                    "velocity": 0.33070866141732286,
                    "duration": 0.1754384999999985
                },
                {
                    "name": "G3",
                    "midi": 55,
                    "time": 10.175433000000009,
                    "velocity": 0.3858267716535433,
                    "duration": 0.35087700000000055
                },
                {
                    "name": "A#3",
                    "midi": 58,
                    "time": 10.350871500000009,
                    "velocity": 0.3228346456692913,
                    "duration": 0.17543850000000027
                },
                {
                    "name": "C3",
                    "midi": 48,
                    "time": 10.52631000000001,
                    "velocity": 0.49606299212598426,
                    "duration": 0.3362571249999995
                },
                {
                    "name": "A#3",
                    "midi": 58,
                    "time": 10.70174850000001,
                    "velocity": 0.30708661417322836,
                    "duration": 0.1754384999999985
                },
                {
                    "name": "C3",
                    "midi": 48,
                    "time": 10.877187000000008,
                    "velocity": 0.33858267716535434,
                    "duration": 0.35087700000000055
                },
                {
                    "name": "A#3",
                    "midi": 58,
                    "time": 11.052625500000008,
                    "velocity": 0.2677165354330709,
                    "duration": 0.17543850000000027
                },
                {
                    "name": "F3",
                    "midi": 53,
                    "time": 11.228064000000009,
                    "velocity": 0.33858267716535434,
                    "duration": 1.0526310000000016
                },
                {
                    "name": "A#3",
                    "midi": 58,
                    "time": 11.403502500000009,
                    "velocity": 0.2283464566929134,
                    "duration": 0.17543850000000027
                },
                {
                    "name": "A3",
                    "midi": 57,
                    "time": 11.57894100000001,
                    "velocity": 0.2755905511811024,
                    "duration": 0.17543850000000027
                },
                {
                    "name": "G3",
                    "midi": 55,
                    "time": 11.75437950000001,
                    "velocity": 0.2283464566929134,
                    "duration": 0.17543850000000027
                },
                {
                    "name": "A3",
                    "midi": 57,
                    "time": 11.92981800000001,
                    "velocity": 0.2677165354330709,
                    "duration": 0.35087700000000055
                },
                {
                    "name": "A#2",
                    "midi": 46,
                    "time": 12.631572000000011,
                    "velocity": 0.33070866141732286,
                    "duration": 0.35087700000000055
                },
                {
                    "name": "F3",
                    "midi": 53,
                    "time": 12.807010500000011,
                    "velocity": 0.2677165354330709,
                    "duration": 0.17543850000000027
                },
                {
                    "name": "D3",
                    "midi": 50,
                    "time": 12.982449000000011,
                    "velocity": 0.2992125984251969,
                    "duration": 0.35087700000000055
                },
                {
                    "name": "F3",
                    "midi": 53,
                    "time": 13.157887500000012,
                    "velocity": 0.2677165354330709,
                    "duration": 0.17543850000000027
                },
                {
                    "name": "D#3",
                    "midi": 51,
                    "time": 13.333326000000012,
                    "velocity": 0.2992125984251969,
                    "duration": 0.17543850000000027
                },
                {
                    "name": "C3",
                    "midi": 48,
                    "time": 13.333326000000012,
                    "velocity": 0.2992125984251969,
                    "duration": 0.35087700000000055
                },
                {
                    "name": "F3",
                    "midi": 53,
                    "time": 13.508764500000012,
                    "velocity": 0.2677165354330709,
                    "duration": 0.17543850000000027
                },
                {
                    "name": "D3",
                    "midi": 50,
                    "time": 13.684203000000013,
                    "velocity": 0.29133858267716534,
                    "duration": 0.17543850000000027
                },
                {
                    "name": "A#2",
                    "midi": 46,
                    "time": 13.684203000000013,
                    "velocity": 0.29133858267716534,
                    "duration": 0.35087700000000055
                },
                {
                    "name": "F3",
                    "midi": 53,
                    "time": 13.859641500000013,
                    "velocity": 0.2677165354330709,
                    "duration": 0.17543850000000027
                },
                {
                    "name": "A2",
                    "midi": 45,
                    "time": 14.035080000000013,
                    "velocity": 0.33858267716535434,
                    "duration": 1.4035079999999898
                },
                {
                    "name": "D#3",
                    "midi": 51,
                    "time": 14.035080000000013,
                    "velocity": 0.33858267716535434,
                    "duration": 1.4035079999999898
                },
                {
                    "name": "F3",
                    "midi": 53,
                    "time": 14.210518500000013,
                    "velocity": 0.2677165354330709,
                    "duration": 0.08771924999999925
                },
                {
                    "name": "F3",
                    "midi": 53,
                    "time": 14.385957000000012,
                    "velocity": 0.2677165354330709,
                    "duration": 0.08771924999999925
                },
                {
                    "name": "F3",
                    "midi": 53,
                    "time": 14.56139550000001,
                    "velocity": 0.2677165354330709,
                    "duration": 0.08771924999999925
                },
                {
                    "name": "F3",
                    "midi": 53,
                    "time": 14.736834000000009,
                    "velocity": 0.29133858267716534,
                    "duration": 0.08771924999999925
                },
                {
                    "name": "F3",
                    "midi": 53,
                    "time": 14.912272500000007,
                    "velocity": 0.2677165354330709,
                    "duration": 0.08771924999999925
                },
                {
                    "name": "F3",
                    "midi": 53,
                    "time": 15.087711000000006,
                    "velocity": 0.2677165354330709,
                    "duration": 0.08771924999999925
                },
                {
                    "name": "F3",
                    "midi": 53,
                    "time": 15.263149500000004,
                    "velocity": 0.2677165354330709,
                    "duration": 0.08771924999999925
                },
                {
                    "name": "A2",
                    "midi": 45,
                    "time": 15.438588000000003,
                    "velocity": 0.33070866141732286,
                    "duration": 0.35087700000000055
                },
                {
                    "name": "F3",
                    "midi": 53,
                    "time": 15.614026500000003,
                    "velocity": 0.2677165354330709,
                    "duration": 0.17543850000000027
                },
                {
                    "name": "D#3",
                    "midi": 51,
                    "time": 15.789465000000003,
                    "velocity": 0.2992125984251969,
                    "duration": 0.35087700000000055
                },
                {
                    "name": "F3",
                    "midi": 53,
                    "time": 15.964903500000004,
                    "velocity": 0.2677165354330709,
                    "duration": 0.17543850000000027
                },
                {
                    "name": "D3",
                    "midi": 50,
                    "time": 16.140342000000004,
                    "velocity": 0.2992125984251969,
                    "duration": 0.350876999999997
                },
                {
                    "name": "F3",
                    "midi": 53,
                    "time": 16.315780500000002,
                    "velocity": 0.2677165354330709,
                    "duration": 0.1754384999999985
                },
                {
                    "name": "A2",
                    "midi": 45,
                    "time": 16.491219,
                    "velocity": 0.29133858267716534,
                    "duration": 0.350876999999997
                },
                {
                    "name": "F3",
                    "midi": 53,
                    "time": 16.6666575,
                    "velocity": 0.2677165354330709,
                    "duration": 0.1754384999999985
                },
                {
                    "name": "A#2",
                    "midi": 46,
                    "time": 16.842095999999998,
                    "velocity": 0.33858267716535434,
                    "duration": 1.052630999999991
                },
                {
                    "name": "F3",
                    "midi": 53,
                    "time": 17.017534499999996,
                    "velocity": 0.2677165354330709,
                    "duration": 0.08771924999999925
                },
                {
                    "name": "F3",
                    "midi": 53,
                    "time": 17.192972999999995,
                    "velocity": 0.2677165354330709,
                    "duration": 0.08771924999999925
                },
                {
                    "name": "F3",
                    "midi": 53,
                    "time": 17.368411499999993,
                    "velocity": 0.2677165354330709,
                    "duration": 0.08771924999999925
                },
                {
                    "name": "F3",
                    "midi": 53,
                    "time": 17.543849999999992,
                    "velocity": 0.29133858267716534,
                    "duration": 0.08771924999999925
                },
                {
                    "name": "F3",
                    "midi": 53,
                    "time": 17.71928849999999,
                    "velocity": 0.29133858267716534,
                    "duration": 0.08771924999999925
                },
                {
                    "name": "B2",
                    "midi": 47,
                    "time": 17.89472699999999,
                    "velocity": 0.29133858267716534,
                    "duration": 0.350876999999997
                },
                {
                    "name": "F3",
                    "midi": 53,
                    "time": 18.070165499999987,
                    "velocity": 0.29133858267716534,
                    "duration": 0.08771924999999925
                },
                {
                    "name": "C3",
                    "midi": 48,
                    "time": 18.245603999999986,
                    "velocity": 0.36220472440944884,
                    "duration": 0.350876999999997
                },
                {
                    "name": "F3",
                    "midi": 53,
                    "time": 18.421042499999984,
                    "velocity": 0.2992125984251969,
                    "duration": 0.1754384999999985
                },
                {
                    "name": "F2",
                    "midi": 41,
                    "time": 18.596480999999983,
                    "velocity": 0.33070866141732286,
                    "duration": 0.350876999999997
                },
                {
                    "name": "F3",
                    "midi": 53,
                    "time": 18.77191949999998,
                    "velocity": 0.2992125984251969,
                    "duration": 0.1754384999999985
                },
                {
                    "name": "A#2",
                    "midi": 46,
                    "time": 18.94735799999998,
                    "velocity": 0.3700787401574803,
                    "duration": 0.350876999999997
                },
                {
                    "name": "F3",
                    "midi": 53,
                    "time": 19.12279649999998,
                    "velocity": 0.2992125984251969,
                    "duration": 0.1754384999999985
                },
                {
                    "name": "B2",
                    "midi": 47,
                    "time": 19.298234999999977,
                    "velocity": 0.33858267716535434,
                    "duration": 0.350876999999997
                },
                {
                    "name": "F3",
                    "midi": 53,
                    "time": 19.473673499999975,
                    "velocity": 0.30708661417322836,
                    "duration": 0.1754384999999985
                },
                {
                    "name": "C3",
                    "midi": 48,
                    "time": 19.649111999999974,
                    "velocity": 0.4251968503937008,
                    "duration": 0.350876999999997
                },
                {
                    "name": "F3",
                    "midi": 53,
                    "time": 19.824550499999972,
                    "velocity": 0.30708661417322836,
                    "duration": 0.1754384999999985
                },
                {
                    "name": "F2",
                    "midi": 41,
                    "time": 19.99998899999997,
                    "velocity": 0.3779527559055118,
                    "duration": 0.350876999999997
                },
                {
                    "name": "F3",
                    "midi": 53,
                    "time": 20.17542749999997,
                    "velocity": 0.30708661417322836,
                    "duration": 0.1754384999999985
                },
                {
                    "name": "A#2",
                    "midi": 46,
                    "time": 20.350865999999968,
                    "velocity": 0.4409448818897638,
                    "duration": 0.350876999999997
                },
                {
                    "name": "F3",
                    "midi": 53,
                    "time": 20.526304499999966,
                    "velocity": 0.3228346456692913,
                    "duration": 0.1754384999999985
                },
                {
                    "name": "G#2",
                    "midi": 44,
                    "time": 20.701742999999965,
                    "velocity": 0.3937007874015748,
                    "duration": 0.350876999999997
                },
                {
                    "name": "A#2",
                    "midi": 46,
                    "time": 20.877181499999963,
                    "velocity": 0.3543307086614173,
                    "duration": 0.1754384999999985
                },
                {
                    "name": "G2",
                    "midi": 43,
                    "time": 21.052619999999962,
                    "velocity": 0.5118110236220472,
                    "duration": 0.3362571249999995
                },
                {
                    "name": "A#2",
                    "midi": 46,
                    "time": 21.22805849999996,
                    "velocity": 0.41732283464566927,
                    "duration": 0.17543850000000205
                },
                {
                    "name": "D#2",
                    "midi": 39,
                    "time": 21.403496999999962,
                    "velocity": 0.48031496062992124,
                    "duration": 0.350876999999997
                },
                {
                    "name": "D#3",
                    "midi": 51,
                    "time": 21.57893549999996,
                    "velocity": 0.41732283464566927,
                    "duration": 0.1754384999999985
                },
                {
                    "name": "F2",
                    "midi": 41,
                    "time": 21.75437399999996,
                    "velocity": 0.4409448818897638,
                    "duration": 0.3362571249999995
                },
                {
                    "name": "D3",
                    "midi": 50,
                    "time": 21.929812499999958,
                    "velocity": 0.33070866141732286,
                    "duration": 0.17543850000000205
                },
                {
                    "name": "F2",
                    "midi": 41,
                    "time": 22.10525099999996,
                    "velocity": 0.3858267716535433,
                    "duration": 0.350876999999997
                },
                {
                    "name": "A2",
                    "midi": 45,
                    "time": 22.28068949999996,
                    "velocity": 0.33858267716535434,
                    "duration": 0.1754384999999985
                },
                {
                    "name": "A#1",
                    "midi": 34,
                    "time": 22.456127999999957,
                    "velocity": 0.33858267716535434,
                    "duration": 0.1754384999999985
                },
                {
                    "name": "A#2",
                    "midi": 46,
                    "time": 22.631566499999956,
                    "velocity": 0.2283464566929134,
                    "duration": 0.8771924999999925
                },
                {
                    "name": "A#3",
                    "midi": 58,
                    "time": 22.807004999999954,
                    "velocity": 0.2755905511811024,
                    "duration": 0.08771924999999925
                },
                {
                    "name": "A#3",
                    "midi": 58,
                    "time": 22.982443499999953,
                    "velocity": 0.2283464566929134,
                    "duration": 0.08771924999999925
                },
                {
                    "name": "A#3",
                    "midi": 58,
                    "time": 23.15788199999995,
                    "velocity": 0.29133858267716534,
                    "duration": 0.08771924999999925
                },
                {
                    "name": "A#3",
                    "midi": 58,
                    "time": 23.33332049999995,
                    "velocity": 0.2755905511811024,
                    "duration": 0.08771924999999925
                },
                {
                    "name": "G#3",
                    "midi": 56,
                    "time": 23.508758999999948,
                    "velocity": 0.33858267716535434,
                    "duration": 0.350876999999997
                },
                {
                    "name": "A#3",
                    "midi": 58,
                    "time": 23.684197499999947,
                    "velocity": 0.30708661417322836,
                    "duration": 0.1754384999999985
                },
                {
                    "name": "G3",
                    "midi": 55,
                    "time": 23.859635999999945,
                    "velocity": 0.4094488188976378,
                    "duration": 0.350876999999997
                },
                {
                    "name": "A#3",
                    "midi": 58,
                    "time": 24.035074499999943,
                    "velocity": 0.36220472440944884,
                    "duration": 0.1754384999999985
                },
                {
                    "name": "D#3",
                    "midi": 51,
                    "time": 24.210512999999942,
                    "velocity": 0.4409448818897638,
                    "duration": 0.350876999999997
                },
                {
                    "name": "D#4",
                    "midi": 63,
                    "time": 24.38595149999994,
                    "velocity": 0.3937007874015748,
                    "duration": 0.1754384999999985
                },
                {
                    "name": "F3",
                    "midi": 53,
                    "time": 24.56138999999994,
                    "velocity": 0.2755905511811024,
                    "duration": 0.3362571249999995
                },
                {
                    "name": "D4",
                    "midi": 62,
                    "time": 24.736828499999937,
                    "velocity": 0.2283464566929134,
                    "duration": 0.17543850000000205
                },
                {
                    "name": "F3",
                    "midi": 53,
                    "time": 24.91226699999994,
                    "velocity": 0.2755905511811024,
                    "duration": 0.350876999999997
                },
                {
                    "name": "A3",
                    "midi": 57,
                    "time": 25.087705499999938,
                    "velocity": 0.2283464566929134,
                    "duration": 0.1754384999999985
                },
                {
                    "name": "A#2",
                    "midi": 46,
                    "time": 25.263143999999937,
                    "velocity": 0.25984251968503935,
                    "duration": 0.35087700000000055
                },
                {
                    "name": "A#3",
                    "midi": 58,
                    "time": 25.263143999999937,
                    "velocity": 0.30708661417322836,
                    "duration": 0.35087700000000055
                },
                {
                    "name": "A#3",
                    "midi": 58,
                    "time": 25.964897999999938,
                    "velocity": 0.3937007874015748,
                    "duration": 0.7017540000000011
                },
                {
                    "name": "D4",
                    "midi": 62,
                    "time": 25.964897999999938,
                    "velocity": 0.47244094488188976,
                    "duration": 0.7017540000000011
                },
                {
                    "name": "D#3",
                    "midi": 51,
                    "time": 26.66665199999994,
                    "velocity": 0.2992125984251969,
                    "duration": 1.0526310000000016
                },
                {
                    "name": "C4",
                    "midi": 60,
                    "time": 26.66665199999994,
                    "velocity": 0.3543307086614173,
                    "duration": 1.0526310000000016
                },
                {
                    "name": "F3",
                    "midi": 53,
                    "time": 27.71928299999994,
                    "velocity": 0.2677165354330709,
                    "duration": 0.35087700000000055
                },
                {
                    "name": "C4",
                    "midi": 60,
                    "time": 27.71928299999994,
                    "velocity": 0.3228346456692913,
                    "duration": 0.35087700000000055
                },
                {
                    "name": "A#2",
                    "midi": 46,
                    "time": 28.07015999999994,
                    "velocity": 0.33070866141732286,
                    "duration": 0.35087700000000055
                },
                {
                    "name": "A#3",
                    "midi": 58,
                    "time": 28.07015999999994,
                    "velocity": 0.3937007874015748,
                    "duration": 0.35087700000000055
                },
                {
                    "name": "A#3",
                    "midi": 58,
                    "time": 28.771913999999942,
                    "velocity": 0.3937007874015748,
                    "duration": 0.7017540000000011
                },
                {
                    "name": "D4",
                    "midi": 62,
                    "time": 28.771913999999942,
                    "velocity": 0.47244094488188976,
                    "duration": 0.7017540000000011
                },
                {
                    "name": "E3",
                    "midi": 52,
                    "time": 29.473667999999943,
                    "velocity": 0.3228346456692913,
                    "duration": 0.7017540000000011
                },
                {
                    "name": "G3",
                    "midi": 55,
                    "time": 29.473667999999943,
                    "velocity": 0.3228346456692913,
                    "duration": 0.7017540000000011
                },
                {
                    "name": "C3",
                    "midi": 48,
                    "time": 30.175421999999944,
                    "velocity": 0.3228346456692913,
                    "duration": 0.7017540000000011
                },
                {
                    "name": "C4",
                    "midi": 60,
                    "time": 30.175421999999944,
                    "velocity": 0.3228346456692913,
                    "duration": 0.7017540000000011
                },
                {
                    "name": "F3",
                    "midi": 53,
                    "time": 30.877175999999945,
                    "velocity": 0.33070866141732286,
                    "duration": 0.7017540000000011
                },
                {
                    "name": "C4",
                    "midi": 60,
                    "time": 30.877175999999945,
                    "velocity": 0.3937007874015748,
                    "duration": 0.7017540000000011
                },
                {
                    "name": "A2",
                    "midi": 45,
                    "time": 31.578929999999946,
                    "velocity": 0.4881889763779528,
                    "duration": 0.7017539999999975
                },
                {
                    "name": "F3",
                    "midi": 53,
                    "time": 31.666649249999946,
                    "velocity": 0.4094488188976378,
                    "duration": 0.6140347499999983
                },
                {
                    "name": "A3",
                    "midi": 57,
                    "time": 31.754368499999945,
                    "velocity": 0.4251968503937008,
                    "duration": 0.526315499999999
                },
                {
                    "name": "A#2",
                    "midi": 46,
                    "time": 32.280683999999944,
                    "velocity": 0.5118110236220472,
                    "duration": 0.7017540000000011
                },
                {
                    "name": "F3",
                    "midi": 53,
                    "time": 32.36840324999994,
                    "velocity": 0.4251968503937008,
                    "duration": 0.6140347500000018
                },
                {
                    "name": "A3",
                    "midi": 57,
                    "time": 32.45612249999994,
                    "velocity": 0.44881889763779526,
                    "duration": 0.5263155000000026
                },
                {
                    "name": "C3",
                    "midi": 48,
                    "time": 32.982437999999945,
                    "velocity": 0.5354330708661418,
                    "duration": 0.7017540000000011
                },
                {
                    "name": "F3",
                    "midi": 53,
                    "time": 33.070157249999944,
                    "velocity": 0.44881889763779526,
                    "duration": 0.6140347500000018
                },
                {
                    "name": "A3",
                    "midi": 57,
                    "time": 33.157876499999944,
                    "velocity": 0.4645669291338583,
                    "duration": 0.5263155000000026
                },
                {
                    "name": "D3",
                    "midi": 50,
                    "time": 33.684191999999946,
                    "velocity": 0.5590551181102362,
                    "duration": 0.7017540000000011
                },
                {
                    "name": "F3",
                    "midi": 53,
                    "time": 33.771911249999945,
                    "velocity": 0.4645669291338583,
                    "duration": 0.6140347500000018
                },
                {
                    "name": "A3",
                    "midi": 57,
                    "time": 33.859630499999945,
                    "velocity": 0.4881889763779528,
                    "duration": 0.5263155000000026
                },
                {
                    "name": "D4",
                    "midi": 62,
                    "time": 34.38594599999995,
                    "velocity": 0.41732283464566927,
                    "duration": 0.701753999999994
                },
                {
                    "name": "F4",
                    "midi": 65,
                    "time": 34.38594599999995,
                    "velocity": 0.41732283464566927,
                    "duration": 0.701753999999994
                },
                {
                    "name": "A4",
                    "midi": 69,
                    "time": 34.38594599999995,
                    "velocity": 0.49606299212598426,
                    "duration": 0.350876999999997
                },
                {
                    "name": "B4",
                    "midi": 71,
                    "time": 34.736822999999944,
                    "velocity": 0.4645669291338583,
                    "duration": 0.701753999999994
                },
                {
                    "name": "C4",
                    "midi": 60,
                    "time": 35.08769999999994,
                    "velocity": 0.4251968503937008,
                    "duration": 0.701753999999994
                },
                {
                    "name": "G4",
                    "midi": 67,
                    "time": 35.08769999999994,
                    "velocity": 0.5039370078740157,
                    "duration": 0.701753999999994
                },
                {
                    "name": "C5",
                    "midi": 72,
                    "time": 35.43857699999994,
                    "velocity": 0.4566929133858268,
                    "duration": 0.1754384999999985
                },
                {
                    "name": "A#3",
                    "midi": 58,
                    "time": 35.789453999999935,
                    "velocity": 0.41732283464566927,
                    "duration": 0.701753999999994
                },
                {
                    "name": "D4",
                    "midi": 62,
                    "time": 35.789453999999935,
                    "velocity": 0.41732283464566927,
                    "duration": 0.701753999999994
                },
                {
                    "name": "F4",
                    "midi": 65,
                    "time": 35.789453999999935,
                    "velocity": 0.49606299212598426,
                    "duration": 0.350876999999997
                },
                {
                    "name": "E4",
                    "midi": 64,
                    "time": 36.14033099999993,
                    "velocity": 0.3937007874015748,
                    "duration": 0.701753999999994
                },
                {
                    "name": "G4",
                    "midi": 67,
                    "time": 36.14033099999993,
                    "velocity": 0.4645669291338583,
                    "duration": 0.701753999999994
                },
                {
                    "name": "A3",
                    "midi": 57,
                    "time": 36.49120799999993,
                    "velocity": 0.4251968503937008,
                    "duration": 0.701753999999994
                },
                {
                    "name": "F4",
                    "midi": 65,
                    "time": 36.842084999999926,
                    "velocity": 0.3937007874015748,
                    "duration": 0.1754384999999985
                },
                {
                    "name": "A4",
                    "midi": 69,
                    "time": 36.842084999999926,
                    "velocity": 0.4566929133858268,
                    "duration": 0.1754384999999985
                },
                {
                    "name": "G3",
                    "midi": 55,
                    "time": 37.19296199999992,
                    "velocity": 0.41732283464566927,
                    "duration": 0.701753999999994
                },
                {
                    "name": "A#3",
                    "midi": 58,
                    "time": 37.19296199999992,
                    "velocity": 0.41732283464566927,
                    "duration": 0.701753999999994
                },
                {
                    "name": "D4",
                    "midi": 62,
                    "time": 37.19296199999992,
                    "velocity": 0.49606299212598426,
                    "duration": 0.350876999999997
                },
                {
                    "name": "E4",
                    "midi": 64,
                    "time": 37.54383899999992,
                    "velocity": 0.4645669291338583,
                    "duration": 0.350876999999997
                },
                {
                    "name": "C4",
                    "midi": 60,
                    "time": 37.89471599999992,
                    "velocity": 0.4566929133858268,
                    "duration": 0.350876999999997
                },
                {
                    "name": "F4",
                    "midi": 65,
                    "time": 37.89471599999992,
                    "velocity": 0.4566929133858268,
                    "duration": 0.350876999999997
                },
                {
                    "name": "F3",
                    "midi": 53,
                    "time": 37.89471599999992,
                    "velocity": 0.4566929133858268,
                    "duration": 0.350876999999997
                },
                {
                    "name": "A#2",
                    "midi": 46,
                    "time": 38.245592999999914,
                    "velocity": 0.3543307086614173,
                    "duration": 0.1754384999999985
                },
                {
                    "name": "A#3",
                    "midi": 58,
                    "time": 38.245592999999914,
                    "velocity": 0.41732283464566927,
                    "duration": 0.1754384999999985
                },
                {
                    "name": "C3",
                    "midi": 48,
                    "time": 38.59646999999991,
                    "velocity": 0.4015748031496063,
                    "duration": 0.1754384999999985
                },
                {
                    "name": "A3",
                    "midi": 57,
                    "time": 38.59646999999991,
                    "velocity": 0.47244094488188976,
                    "duration": 0.1754384999999985
                },
                {
                    "name": "C3",
                    "midi": 48,
                    "time": 38.94734699999991,
                    "velocity": 0.3543307086614173,
                    "duration": 0.1754384999999985
                },
                {
                    "name": "E3",
                    "midi": 52,
                    "time": 38.94734699999991,
                    "velocity": 0.4251968503937008,
                    "duration": 0.1754384999999985
                },
                {
                    "name": "F2",
                    "midi": 41,
                    "time": 39.298223999999905,
                    "velocity": 0.4015748031496063,
                    "duration": 0.350876999999997
                },
                {
                    "name": "F3",
                    "midi": 53,
                    "time": 39.298223999999905,
                    "velocity": 0.47244094488188976,
                    "duration": 0.350876999999997
                },
                {
                    "name": "D3",
                    "midi": 50,
                    "time": 39.9999779999999,
                    "velocity": 0.4566929133858268,
                    "duration": 0.701753999999994
                },
                {
                    "name": "F3",
                    "midi": 53,
                    "time": 39.9999779999999,
                    "velocity": 0.4566929133858268,
                    "duration": 0.350876999999997
                },
                {
                    "name": "G#3",
                    "midi": 56,
                    "time": 40.350854999999896,
                    "velocity": 0.4094488188976378,
                    "duration": 0.701753999999994
                },
                {
                    "name": "C3",
                    "midi": 48,
                    "time": 40.70173199999989,
                    "velocity": 0.4881889763779528,
                    "duration": 0.701753999999994
                },
                {
                    "name": "A3",
                    "midi": 57,
                    "time": 41.05260899999989,
                    "velocity": 0.4566929133858268,
                    "duration": 0.1754384999999985
                },
                {
                    "name": "A#2",
                    "midi": 46,
                    "time": 41.40348599999989,
                    "velocity": 0.4566929133858268,
                    "duration": 0.701753999999994
                },
                {
                    "name": "D3",
                    "midi": 50,
                    "time": 41.40348599999989,
                    "velocity": 0.4566929133858268,
                    "duration": 0.350876999999997
                },
                {
                    "name": "E3",
                    "midi": 52,
                    "time": 41.754362999999884,
                    "velocity": 0.4094488188976378,
                    "duration": 0.701753999999994
                },
                {
                    "name": "A2",
                    "midi": 45,
                    "time": 42.10523999999988,
                    "velocity": 0.4881889763779528,
                    "duration": 0.701753999999994
                },
                {
                    "name": "F3",
                    "midi": 53,
                    "time": 42.45611699999988,
                    "velocity": 0.4566929133858268,
                    "duration": 0.1754384999999985
                },
                {
                    "name": "G2",
                    "midi": 43,
                    "time": 42.806993999999875,
                    "velocity": 0.4881889763779528,
                    "duration": 0.701753999999994
                },
                {
                    "name": "D3",
                    "midi": 50,
                    "time": 42.806993999999875,
                    "velocity": 0.4566929133858268,
                    "duration": 0.350876999999997
                },
                {
                    "name": "C#3",
                    "midi": 49,
                    "time": 43.15787099999987,
                    "velocity": 0.4094488188976378,
                    "duration": 0.5263154999999955
                },
                {
                    "name": "F2",
                    "midi": 41,
                    "time": 43.50874799999987,
                    "velocity": 0.4881889763779528,
                    "duration": 0.350876999999997
                },
                {
                    "name": "C3",
                    "midi": 48,
                    "time": 43.68418649999987,
                    "velocity": 0.4015748031496063,
                    "duration": 0.350876999999997
                },
                {
                    "name": "A#1",
                    "midi": 34,
                    "time": 43.859624999999866,
                    "velocity": 0.44881889763779526,
                    "duration": 0.350876999999997
                },
                {
                    "name": "A#2",
                    "midi": 46,
                    "time": 44.035063499999865,
                    "velocity": 0.4251968503937008,
                    "duration": 0.350876999999997
                },
                {
                    "name": "C2",
                    "midi": 36,
                    "time": 44.21050199999986,
                    "velocity": 0.4645669291338583,
                    "duration": 0.350876999999997
                },
                {
                    "name": "A2",
                    "midi": 45,
                    "time": 44.38594049999986,
                    "velocity": 0.4330708661417323,
                    "duration": 0.350876999999997
                },
                {
                    "name": "C2",
                    "midi": 36,
                    "time": 44.56137899999986,
                    "velocity": 0.4881889763779528,
                    "duration": 0.350876999999997
                },
                {
                    "name": "G2",
                    "midi": 43,
                    "time": 44.73681749999986,
                    "velocity": 0.44881889763779526,
                    "duration": 0.1754384999999985
                },
                {
                    "name": "F1",
                    "midi": 29,
                    "time": 44.91225599999986,
                    "velocity": 0.5039370078740157,
                    "duration": 0.350876999999997
                },
                {
                    "name": "F2",
                    "midi": 41,
                    "time": 45.263132999999854,
                    "velocity": 0.36220472440944884,
                    "duration": 1.052630999999991
                },
                {
                    "name": "A2",
                    "midi": 45,
                    "time": 45.61400999999985,
                    "velocity": 0.36220472440944884,
                    "duration": 0.701753999999994
                },
                {
                    "name": "C3",
                    "midi": 48,
                    "time": 45.96488699999985,
                    "velocity": 0.36220472440944884,
                    "duration": 0.350876999999997
                },
                {
                    "name": "F2",
                    "midi": 41,
                    "time": 46.315763999999845,
                    "velocity": 0.4251968503937008,
                    "duration": 1.403507999999988
                },
                {
                    "name": "G2",
                    "midi": 43,
                    "time": 46.315763999999845,
                    "velocity": 0.4251968503937008,
                    "duration": 1.403507999999988
                },
                {
                    "name": "A#2",
                    "midi": 46,
                    "time": 46.66664099999984,
                    "velocity": 0.3700787401574803,
                    "duration": 1.052630999999991
                },
                {
                    "name": "C3",
                    "midi": 48,
                    "time": 47.01751799999984,
                    "velocity": 0.3700787401574803,
                    "duration": 0.701753999999994
                },
                {
                    "name": "E3",
                    "midi": 52,
                    "time": 47.368394999999836,
                    "velocity": 0.3700787401574803,
                    "duration": 0.350876999999997
                },
                {
                    "name": "F2",
                    "midi": 41,
                    "time": 47.71927199999983,
                    "velocity": 0.5039370078740157,
                    "duration": 0.350876999999997
                },
                {
                    "name": "F3",
                    "midi": 53,
                    "time": 48.07014899999983,
                    "velocity": 0.36220472440944884,
                    "duration": 1.052630999999991
                },
                {
                    "name": "A3",
                    "midi": 57,
                    "time": 48.42102599999983,
                    "velocity": 0.36220472440944884,
                    "duration": 0.701753999999994
                },
                {
                    "name": "C4",
                    "midi": 60,
                    "time": 48.771902999999824,
                    "velocity": 0.36220472440944884,
                    "duration": 0.350876999999997
                },
                {
                    "name": "F3",
                    "midi": 53,
                    "time": 49.12277999999982,
                    "velocity": 0.4251968503937008,
                    "duration": 1.403507999999988
                },
                {
                    "name": "G3",
                    "midi": 55,
                    "time": 49.12277999999982,
                    "velocity": 0.4251968503937008,
                    "duration": 1.403507999999988
                },
                {
                    "name": "A#3",
                    "midi": 58,
                    "time": 49.47365699999982,
                    "velocity": 0.3700787401574803,
                    "duration": 1.052630999999991
                },
                {
                    "name": "C4",
                    "midi": 60,
                    "time": 49.824533999999815,
                    "velocity": 0.3700787401574803,
                    "duration": 0.701753999999994
                },
                {
                    "name": "E4",
                    "midi": 64,
                    "time": 50.17541099999981,
                    "velocity": 0.3700787401574803,
                    "duration": 0.350876999999997
                },
                {
                    "name": "F2",
                    "midi": 41,
                    "time": 50.52628799999981,
                    "velocity": 0.5905511811023622,
                    "duration": 0.350876999999997
                },
                {
                    "name": "F3",
                    "midi": 53,
                    "time": 50.877164999999806,
                    "velocity": 0.44881889763779526,
                    "duration": 1.052630999999991
                },
                {
                    "name": "A3",
                    "midi": 57,
                    "time": 51.2280419999998,
                    "velocity": 0.44881889763779526,
                    "duration": 0.701753999999994
                },
                {
                    "name": "C4",
                    "midi": 60,
                    "time": 51.5789189999998,
                    "velocity": 0.4566929133858268,
                    "duration": 0.350876999999997
                },
                {
                    "name": "D#2",
                    "midi": 39,
                    "time": 51.9297959999998,
                    "velocity": 0.6456692913385826,
                    "duration": 0.350876999999997
                },
                {
                    "name": "D#3",
                    "midi": 51,
                    "time": 52.280672999999794,
                    "velocity": 0.49606299212598426,
                    "duration": 1.052630999999991
                },
                {
                    "name": "A3",
                    "midi": 57,
                    "time": 52.63154999999979,
                    "velocity": 0.5039370078740157,
                    "duration": 0.701753999999994
                },
                {
                    "name": "C4",
                    "midi": 60,
                    "time": 52.98242699999979,
                    "velocity": 0.5039370078740157,
                    "duration": 0.350876999999997
                },
                {
                    "name": "C#2",
                    "midi": 37,
                    "time": 53.333303999999785,
                    "velocity": 0.7165354330708661,
                    "duration": 0.350876999999997
                },
                {
                    "name": "C#3",
                    "midi": 49,
                    "time": 53.68418099999978,
                    "velocity": 0.5196850393700787,
                    "duration": 1.052630999999991
                },
                {
                    "name": "F3",
                    "midi": 53,
                    "time": 54.03505799999978,
                    "velocity": 0.5275590551181102,
                    "duration": 0.701753999999994
                },
                {
                    "name": "A#3",
                    "midi": 58,
                    "time": 54.385934999999776,
                    "velocity": 0.5275590551181102,
                    "duration": 0.350876999999997
                },
                {
                    "name": "F#2",
                    "midi": 42,
                    "time": 54.73681199999977,
                    "velocity": 0.7401574803149606,
                    "duration": 1.403507999999988
                },
                {
                    "name": "A#2",
                    "midi": 46,
                    "time": 55.08768899999977,
                    "velocity": 0.5354330708661418,
                    "duration": 0.350876999999997
                },
                {
                    "name": "C#3",
                    "midi": 49,
                    "time": 55.43856599999977,
                    "velocity": 0.5669291338582677,
                    "duration": 0.350876999999997
                },
                {
                    "name": "E3",
                    "midi": 52,
                    "time": 55.789442999999764,
                    "velocity": 0.5905511811023622,
                    "duration": 0.350876999999997
                },
                {
                    "name": "F2",
                    "midi": 41,
                    "time": 56.14031999999976,
                    "velocity": 0.5669291338582677,
                    "duration": 0.8771924999999996
                },
                {
                    "name": "F3",
                    "midi": 53,
                    "time": 56.14031999999976,
                    "velocity": 0.6614173228346457,
                    "duration": 0.8771924999999996
                },
                {
                    "name": "C3",
                    "midi": 48,
                    "time": 57.01751249999976,
                    "velocity": 0.31496062992125984,
                    "duration": 0.1754384999999985
                },
                {
                    "name": "D3",
                    "midi": 50,
                    "time": 57.19295099999976,
                    "velocity": 0.3543307086614173,
                    "duration": 0.1754384999999985
                },
                {
                    "name": "C3",
                    "midi": 48,
                    "time": 57.36838949999976,
                    "velocity": 0.3228346456692913,
                    "duration": 0.1754384999999985
                },
                {
                    "name": "A#2",
                    "midi": 46,
                    "time": 57.543827999999756,
                    "velocity": 0.3543307086614173,
                    "duration": 0.1754384999999985
                },
                {
                    "name": "A2",
                    "midi": 45,
                    "time": 57.719266499999755,
                    "velocity": 0.31496062992125984,
                    "duration": 0.1754384999999985
                },
                {
                    "name": "G2",
                    "midi": 43,
                    "time": 57.89470499999975,
                    "velocity": 0.33858267716535434,
                    "duration": 0.1754384999999985
                },
                {
                    "name": "F2",
                    "midi": 41,
                    "time": 58.07014349999975,
                    "velocity": 0.31496062992125984,
                    "duration": 0.13157887500000243
                },
                {
                    "name": "F2",
                    "midi": 41,
                    "time": 58.24558199999976,
                    "velocity": 0.3543307086614173,
                    "duration": 0.350876999999997
                },
                {
                    "name": "D#3",
                    "midi": 51,
                    "time": 59.82452849999975,
                    "velocity": 0.2992125984251969,
                    "duration": 0.05847949999999713
                },
                {
                    "name": "F3",
                    "midi": 53,
                    "time": 59.88300799999975,
                    "velocity": 0.31496062992125984,
                    "duration": 0.05847949999999713
                },
                {
                    "name": "D#3",
                    "midi": 51,
                    "time": 59.941487499999745,
                    "velocity": 0.2992125984251969,
                    "duration": 0.05847949999999713
                },
                {
                    "name": "F3",
                    "midi": 53,
                    "time": 59.99996699999974,
                    "velocity": 0.3543307086614173,
                    "duration": 0.1754384999999985
                },
                {
                    "name": "D#3",
                    "midi": 51,
                    "time": 60.17540549999974,
                    "velocity": 0.3228346456692913,
                    "duration": 0.1754384999999985
                },
                {
                    "name": "D3",
                    "midi": 50,
                    "time": 60.35084399999974,
                    "velocity": 0.3543307086614173,
                    "duration": 0.1754384999999985
                },
                {
                    "name": "C3",
                    "midi": 48,
                    "time": 60.52628249999974,
                    "velocity": 0.31496062992125984,
                    "duration": 0.1754384999999985
                },
                {
                    "name": "A#2",
                    "midi": 46,
                    "time": 60.701720999999736,
                    "velocity": 0.33858267716535434,
                    "duration": 0.1754384999999985
                },
                {
                    "name": "A2",
                    "midi": 45,
                    "time": 60.877159499999735,
                    "velocity": 0.31496062992125984,
                    "duration": 0.13157887500000243
                },
                {
                    "name": "A2",
                    "midi": 45,
                    "time": 61.05259799999974,
                    "velocity": 0.3543307086614173,
                    "duration": 0.350876999999997
                },
                {
                    "name": "C4",
                    "midi": 60,
                    "time": 62.631544499999734,
                    "velocity": 0.31496062992125984,
                    "duration": 0.1754384999999985
                },
                {
                    "name": "D4",
                    "midi": 62,
                    "time": 62.80698299999973,
                    "velocity": 0.3543307086614173,
                    "duration": 0.1754384999999985
                },
                {
                    "name": "C4",
                    "midi": 60,
                    "time": 62.98242149999973,
                    "velocity": 0.3228346456692913,
                    "duration": 0.1754384999999985
                },
                {
                    "name": "A#3",
                    "midi": 58,
                    "time": 63.15785999999973,
                    "velocity": 0.3543307086614173,
                    "duration": 0.1754384999999985
                },
                {
                    "name": "A3",
                    "midi": 57,
                    "time": 63.33329849999973,
                    "velocity": 0.31496062992125984,
                    "duration": 0.1754384999999985
                },
                {
                    "name": "G3",
                    "midi": 55,
                    "time": 63.508736999999726,
                    "velocity": 0.33858267716535434,
                    "duration": 0.1754384999999985
                },
                {
                    "name": "F3",
                    "midi": 53,
                    "time": 63.684175499999725,
                    "velocity": 0.31496062992125984,
                    "duration": 0.13157887500000243
                },
                {
                    "name": "D#4",
                    "midi": 63,
                    "time": 64.03505249999972,
                    "velocity": 0.31496062992125984,
                    "duration": 0.1754384999999985
                },
                {
                    "name": "F4",
                    "midi": 65,
                    "time": 64.21049099999972,
                    "velocity": 0.3543307086614173,
                    "duration": 0.1754384999999985
                },
                {
                    "name": "D#4",
                    "midi": 63,
                    "time": 64.38592949999972,
                    "velocity": 0.3228346456692913,
                    "duration": 0.1754384999999985
                },
                {
                    "name": "D4",
                    "midi": 62,
                    "time": 64.56136799999972,
                    "velocity": 0.3543307086614173,
                    "duration": 0.1754384999999985
                },
                {
                    "name": "C4",
                    "midi": 60,
                    "time": 64.73680649999972,
                    "velocity": 0.31496062992125984,
                    "duration": 0.1754384999999985
                },
                {
                    "name": "A#3",
                    "midi": 58,
                    "time": 64.91224499999971,
                    "velocity": 0.33858267716535434,
                    "duration": 0.1754384999999985
                },
                {
                    "name": "A3",
                    "midi": 57,
                    "time": 65.08768349999971,
                    "velocity": 0.31496062992125984,
                    "duration": 0.13157887500000243
                },
                {
                    "name": "A#3",
                    "midi": 58,
                    "time": 70.17539999999971,
                    "velocity": 0.33070866141732286,
                    "duration": 0.350876999999997
                },
                {
                    "name": "F4",
                    "midi": 65,
                    "time": 70.35083849999971,
                    "velocity": 0.2677165354330709,
                    "duration": 0.1754384999999985
                },
                {
                    "name": "D4",
                    "midi": 62,
                    "time": 70.52627699999971,
                    "velocity": 0.2992125984251969,
                    "duration": 0.350876999999997
                },
                {
                    "name": "F4",
                    "midi": 65,
                    "time": 70.70171549999971,
                    "velocity": 0.2677165354330709,
                    "duration": 0.1754384999999985
                },
                {
                    "name": "D#4",
                    "midi": 63,
                    "time": 70.8771539999997,
                    "velocity": 0.2992125984251969,
                    "duration": 0.1754384999999985
                },
                {
                    "name": "C4",
                    "midi": 60,
                    "time": 70.8771539999997,
                    "velocity": 0.2992125984251969,
                    "duration": 0.350876999999997
                },
                {
                    "name": "F4",
                    "midi": 65,
                    "time": 71.0525924999997,
                    "velocity": 0.2677165354330709,
                    "duration": 0.1754384999999985
                },
                {
                    "name": "D4",
                    "midi": 62,
                    "time": 71.2280309999997,
                    "velocity": 0.29133858267716534,
                    "duration": 0.1754384999999985
                },
                {
                    "name": "A#3",
                    "midi": 58,
                    "time": 71.2280309999997,
                    "velocity": 0.29133858267716534,
                    "duration": 0.350876999999997
                },
                {
                    "name": "F4",
                    "midi": 65,
                    "time": 71.4034694999997,
                    "velocity": 0.2677165354330709,
                    "duration": 0.1754384999999985
                },
                {
                    "name": "A3",
                    "midi": 57,
                    "time": 71.5789079999997,
                    "velocity": 0.33858267716535434,
                    "duration": 1.4035080000000875
                },
                {
                    "name": "D#4",
                    "midi": 63,
                    "time": 71.5789079999997,
                    "velocity": 0.33858267716535434,
                    "duration": 1.4035080000000875
                },
                {
                    "name": "F4",
                    "midi": 65,
                    "time": 71.7543464999997,
                    "velocity": 0.2677165354330709,
                    "duration": 0.08771925000000635
                },
                {
                    "name": "F4",
                    "midi": 65,
                    "time": 71.92978499999971,
                    "velocity": 0.2677165354330709,
                    "duration": 0.08771925000000635
                },
                {
                    "name": "F4",
                    "midi": 65,
                    "time": 72.10522349999972,
                    "velocity": 0.2677165354330709,
                    "duration": 0.08771925000000635
                },
                {
                    "name": "F4",
                    "midi": 65,
                    "time": 72.28066199999974,
                    "velocity": 0.29133858267716534,
                    "duration": 0.08771925000000635
                },
                {
                    "name": "F4",
                    "midi": 65,
                    "time": 72.45610049999975,
                    "velocity": 0.2677165354330709,
                    "duration": 0.08771925000000635
                },
                {
                    "name": "F4",
                    "midi": 65,
                    "time": 72.63153899999976,
                    "velocity": 0.2677165354330709,
                    "duration": 0.08771925000000635
                },
                {
                    "name": "F4",
                    "midi": 65,
                    "time": 72.80697749999977,
                    "velocity": 0.2677165354330709,
                    "duration": 0.08771925000000635
                },
                {
                    "name": "A3",
                    "midi": 57,
                    "time": 72.98241599999979,
                    "velocity": 0.33070866141732286,
                    "duration": 0.350876999999997
                },
                {
                    "name": "F4",
                    "midi": 65,
                    "time": 73.15785449999979,
                    "velocity": 0.2677165354330709,
                    "duration": 0.1754384999999985
                },
                {
                    "name": "D#4",
                    "midi": 63,
                    "time": 73.33329299999978,
                    "velocity": 0.2992125984251969,
                    "duration": 0.350876999999997
                },
                {
                    "name": "F4",
                    "midi": 65,
                    "time": 73.50873149999978,
                    "velocity": 0.2677165354330709,
                    "duration": 0.1754384999999985
                },
                {
                    "name": "D4",
                    "midi": 62,
                    "time": 73.68416999999978,
                    "velocity": 0.2992125984251969,
                    "duration": 0.350876999999997
                },
                {
                    "name": "F4",
                    "midi": 65,
                    "time": 73.85960849999978,
                    "velocity": 0.2677165354330709,
                    "duration": 0.1754384999999985
                },
                {
                    "name": "A3",
                    "midi": 57,
                    "time": 74.03504699999978,
                    "velocity": 0.29133858267716534,
                    "duration": 0.350876999999997
                },
                {
                    "name": "F4",
                    "midi": 65,
                    "time": 74.21048549999978,
                    "velocity": 0.2677165354330709,
                    "duration": 0.1754384999999985
                },
                {
                    "name": "A#3",
                    "midi": 58,
                    "time": 74.38592399999978,
                    "velocity": 0.3700787401574803,
                    "duration": 1.052631000000062
                },
                {
                    "name": "F4",
                    "midi": 65,
                    "time": 74.56136249999977,
                    "velocity": 0.29133858267716534,
                    "duration": 0.08771925000000635
                },
                {
                    "name": "F4",
                    "midi": 65,
                    "time": 74.73680099999979,
                    "velocity": 0.29133858267716534,
                    "duration": 0.08771925000000635
                },
                {
                    "name": "F4",
                    "midi": 65,
                    "time": 74.9122394999998,
                    "velocity": 0.29133858267716534,
                    "duration": 0.08771925000000635
                },
                {
                    "name": "F4",
                    "midi": 65,
                    "time": 75.08767799999981,
                    "velocity": 0.3228346456692913,
                    "duration": 0.08771925000000635
                },
                {
                    "name": "F4",
                    "midi": 65,
                    "time": 75.26311649999982,
                    "velocity": 0.29133858267716534,
                    "duration": 0.08771925000000635
                },
                {
                    "name": "B3",
                    "midi": 59,
                    "time": 75.43855499999984,
                    "velocity": 0.29133858267716534,
                    "duration": 0.3508770000000112
                },
                {
                    "name": "F4",
                    "midi": 65,
                    "time": 75.61399349999984,
                    "velocity": 0.2992125984251969,
                    "duration": 0.08771925000000635
                },
                {
                    "name": "C4",
                    "midi": 60,
                    "time": 75.78943199999985,
                    "velocity": 0.3700787401574803,
                    "duration": 0.350876999999997
                },
                {
                    "name": "F4",
                    "midi": 65,
                    "time": 75.96487049999985,
                    "velocity": 0.2992125984251969,
                    "duration": 0.1754384999999985
                },
                {
                    "name": "A3",
                    "midi": 57,
                    "time": 76.14030899999985,
                    "velocity": 0.33070866141732286,
                    "duration": 0.350876999999997
                },
                {
                    "name": "F4",
                    "midi": 65,
                    "time": 76.31574749999984,
                    "velocity": 0.2992125984251969,
                    "duration": 0.1754384999999985
                },
                {
                    "name": "A#3",
                    "midi": 58,
                    "time": 76.49118599999984,
                    "velocity": 0.3700787401574803,
                    "duration": 0.350876999999997
                },
                {
                    "name": "F4",
                    "midi": 65,
                    "time": 76.66662449999984,
                    "velocity": 0.2992125984251969,
                    "duration": 0.1754384999999985
                },
                {
                    "name": "B3",
                    "midi": 59,
                    "time": 76.84206299999984,
                    "velocity": 0.33858267716535434,
                    "duration": 0.350876999999997
                },
                {
                    "name": "F4",
                    "midi": 65,
                    "time": 77.01750149999984,
                    "velocity": 0.2992125984251969,
                    "duration": 0.1754384999999985
                },
                {
                    "name": "C4",
                    "midi": 60,
                    "time": 77.19293999999984,
                    "velocity": 0.4251968503937008,
                    "duration": 0.350876999999997
                },
                {
                    "name": "F4",
                    "midi": 65,
                    "time": 77.36837849999984,
                    "velocity": 0.30708661417322836,
                    "duration": 0.1754384999999985
                },
                {
                    "name": "A3",
                    "midi": 57,
                    "time": 77.54381699999983,
                    "velocity": 0.3779527559055118,
                    "duration": 0.350876999999997
                },
                {
                    "name": "F4",
                    "midi": 65,
                    "time": 77.71925549999983,
                    "velocity": 0.30708661417322836,
                    "duration": 0.1754384999999985
                },
                {
                    "name": "A#3",
                    "midi": 58,
                    "time": 77.89469399999983,
                    "velocity": 0.4330708661417323,
                    "duration": 0.350876999999997
                },
                {
                    "name": "D4",
                    "midi": 62,
                    "time": 78.07013249999983,
                    "velocity": 0.31496062992125984,
                    "duration": 0.1754384999999985
                },
                {
                    "name": "A3",
                    "midi": 57,
                    "time": 78.24557099999983,
                    "velocity": 0.3858267716535433,
                    "duration": 0.350876999999997
                },
                {
                    "name": "C4",
                    "midi": 60,
                    "time": 78.42100949999983,
                    "velocity": 0.3464566929133858,
                    "duration": 0.1754384999999985
                },
                {
                    "name": "G3",
                    "midi": 55,
                    "time": 78.59644799999982,
                    "velocity": 0.47244094488188976,
                    "duration": 0.33625712500000304
                },
                {
                    "name": "A#3",
                    "midi": 58,
                    "time": 78.77188649999982,
                    "velocity": 0.33858267716535434,
                    "duration": 0.1754384999999985
                },
                {
                    "name": "G3",
                    "midi": 55,
                    "time": 78.94732499999982,
                    "velocity": 0.3937007874015748,
                    "duration": 0.350876999999997
                },
                {
                    "name": "A#3",
                    "midi": 58,
                    "time": 79.12276349999982,
                    "velocity": 0.33070866141732286,
                    "duration": 0.1754384999999985
                },
                {
                    "name": "C3",
                    "midi": 48,
                    "time": 79.29820199999982,
                    "velocity": 0.44881889763779526,
                    "duration": 0.33625712500000304
                },
                {
                    "name": "A#3",
                    "midi": 58,
                    "time": 79.47364049999982,
                    "velocity": 0.31496062992125984,
                    "duration": 0.1754384999999985
                },
                {
                    "name": "C3",
                    "midi": 48,
                    "time": 79.64907899999982,
                    "velocity": 0.3464566929133858,
                    "duration": 0.350876999999997
                },
                {
                    "name": "A#3",
                    "midi": 58,
                    "time": 79.82451749999981,
                    "velocity": 0.31496062992125984,
                    "duration": 0.1754384999999985
                },
                {
                    "name": "F3",
                    "midi": 53,
                    "time": 79.99995599999981,
                    "velocity": 0.33858267716535434,
                    "duration": 1.052630999999991
                },
                {
                    "name": "A#3",
                    "midi": 58,
                    "time": 80.17539449999981,
                    "velocity": 0.2283464566929134,
                    "duration": 0.1754384999999985
                },
                {
                    "name": "A3",
                    "midi": 57,
                    "time": 80.35083299999981,
                    "velocity": 0.2755905511811024,
                    "duration": 0.1754384999999985
                },
                {
                    "name": "G3",
                    "midi": 55,
                    "time": 80.52627149999981,
                    "velocity": 0.2283464566929134,
                    "duration": 0.1754384999999985
                },
                {
                    "name": "A3",
                    "midi": 57,
                    "time": 80.7017099999998,
                    "velocity": 0.2677165354330709,
                    "duration": 0.350876999999997
                },
                {
                    "name": "A#2",
                    "midi": 46,
                    "time": 81.4034639999998,
                    "velocity": 0.33070866141732286,
                    "duration": 0.350876999999997
                },
                {
                    "name": "F3",
                    "midi": 53,
                    "time": 81.5789024999998,
                    "velocity": 0.2677165354330709,
                    "duration": 0.1754384999999985
                },
                {
                    "name": "D3",
                    "midi": 50,
                    "time": 81.7543409999998,
                    "velocity": 0.2992125984251969,
                    "duration": 0.350876999999997
                },
                {
                    "name": "F3",
                    "midi": 53,
                    "time": 81.9297794999998,
                    "velocity": 0.2677165354330709,
                    "duration": 0.1754384999999985
                },
                {
                    "name": "D#3",
                    "midi": 51,
                    "time": 82.1052179999998,
                    "velocity": 0.2992125984251969,
                    "duration": 0.1754384999999985
                },
                {
                    "name": "C3",
                    "midi": 48,
                    "time": 82.1052179999998,
                    "velocity": 0.2992125984251969,
                    "duration": 0.350876999999997
                },
                {
                    "name": "F3",
                    "midi": 53,
                    "time": 82.2806564999998,
                    "velocity": 0.2677165354330709,
                    "duration": 0.1754384999999985
                },
                {
                    "name": "D3",
                    "midi": 50,
                    "time": 82.45609499999979,
                    "velocity": 0.29133858267716534,
                    "duration": 0.1754384999999985
                },
                {
                    "name": "A#2",
                    "midi": 46,
                    "time": 82.45609499999979,
                    "velocity": 0.29133858267716534,
                    "duration": 0.350876999999997
                },
                {
                    "name": "F3",
                    "midi": 53,
                    "time": 82.63153349999979,
                    "velocity": 0.2677165354330709,
                    "duration": 0.1754384999999985
                },
                {
                    "name": "A2",
                    "midi": 45,
                    "time": 82.80697199999979,
                    "velocity": 0.33858267716535434,
                    "duration": 1.4035080000000875
                },
                {
                    "name": "D#3",
                    "midi": 51,
                    "time": 82.80697199999979,
                    "velocity": 0.33858267716535434,
                    "duration": 1.4035080000000875
                },
                {
                    "name": "F3",
                    "midi": 53,
                    "time": 82.98241049999979,
                    "velocity": 0.2677165354330709,
                    "duration": 0.08771925000000635
                },
                {
                    "name": "F3",
                    "midi": 53,
                    "time": 83.1578489999998,
                    "velocity": 0.2677165354330709,
                    "duration": 0.08771925000000635
                },
                {
                    "name": "F3",
                    "midi": 53,
                    "time": 83.33328749999981,
                    "velocity": 0.2677165354330709,
                    "duration": 0.08771925000000635
                },
                {
                    "name": "F3",
                    "midi": 53,
                    "time": 83.50872599999983,
                    "velocity": 0.29133858267716534,
                    "duration": 0.08771925000000635
                },
                {
                    "name": "F3",
                    "midi": 53,
                    "time": 83.68416449999984,
                    "velocity": 0.2677165354330709,
                    "duration": 0.08771925000000635
                },
                {
                    "name": "F3",
                    "midi": 53,
                    "time": 83.85960299999985,
                    "velocity": 0.2677165354330709,
                    "duration": 0.08771925000000635
                },
                {
                    "name": "F3",
                    "midi": 53,
                    "time": 84.03504149999986,
                    "velocity": 0.2677165354330709,
                    "duration": 0.08771925000000635
                },
                {
                    "name": "A2",
                    "midi": 45,
                    "time": 84.21047999999988,
                    "velocity": 0.33070866141732286,
                    "duration": 0.350876999999997
                },
                {
                    "name": "F3",
                    "midi": 53,
                    "time": 84.38591849999987,
                    "velocity": 0.2677165354330709,
                    "duration": 0.1754384999999985
                },
                {
                    "name": "D#3",
                    "midi": 51,
                    "time": 84.56135699999987,
                    "velocity": 0.2992125984251969,
                    "duration": 0.350876999999997
                },
                {
                    "name": "F3",
                    "midi": 53,
                    "time": 84.73679549999987,
                    "velocity": 0.2677165354330709,
                    "duration": 0.1754384999999985
                },
                {
                    "name": "D3",
                    "midi": 50,
                    "time": 84.91223399999987,
                    "velocity": 0.2992125984251969,
                    "duration": 0.350876999999997
                },
                {
                    "name": "F3",
                    "midi": 53,
                    "time": 85.08767249999987,
                    "velocity": 0.2677165354330709,
                    "duration": 0.1754384999999985
                },
                {
                    "name": "A2",
                    "midi": 45,
                    "time": 85.26311099999987,
                    "velocity": 0.29133858267716534,
                    "duration": 0.350876999999997
                },
                {
                    "name": "F3",
                    "midi": 53,
                    "time": 85.43854949999987,
                    "velocity": 0.2677165354330709,
                    "duration": 0.1754384999999985
                },
                {
                    "name": "A#2",
                    "midi": 46,
                    "time": 85.61398799999986,
                    "velocity": 0.33858267716535434,
                    "duration": 1.052631000000062
                },
                {
                    "name": "F3",
                    "midi": 53,
                    "time": 85.78942649999986,
                    "velocity": 0.2677165354330709,
                    "duration": 0.08771925000000635
                },
                {
                    "name": "F3",
                    "midi": 53,
                    "time": 85.96486499999988,
                    "velocity": 0.2677165354330709,
                    "duration": 0.08771925000000635
                },
                {
                    "name": "F3",
                    "midi": 53,
                    "time": 86.14030349999989,
                    "velocity": 0.2677165354330709,
                    "duration": 0.08771925000000635
                },
                {
                    "name": "F3",
                    "midi": 53,
                    "time": 86.3157419999999,
                    "velocity": 0.29133858267716534,
                    "duration": 0.08771925000000635
                },
                {
                    "name": "F3",
                    "midi": 53,
                    "time": 86.49118049999991,
                    "velocity": 0.29133858267716534,
                    "duration": 0.08771925000000635
                },
                {
                    "name": "B2",
                    "midi": 47,
                    "time": 86.66661899999993,
                    "velocity": 0.29133858267716534,
                    "duration": 0.3508770000000112
                },
                {
                    "name": "F3",
                    "midi": 53,
                    "time": 86.84205749999992,
                    "velocity": 0.29133858267716534,
                    "duration": 0.08771925000000635
                },
                {
                    "name": "C3",
                    "midi": 48,
                    "time": 87.01749599999994,
                    "velocity": 0.36220472440944884,
                    "duration": 0.350876999999997
                },
                {
                    "name": "F3",
                    "midi": 53,
                    "time": 87.19293449999994,
                    "velocity": 0.2992125984251969,
                    "duration": 0.1754384999999985
                },
                {
                    "name": "F2",
                    "midi": 41,
                    "time": 87.36837299999993,
                    "velocity": 0.33070866141732286,
                    "duration": 0.350876999999997
                },
                {
                    "name": "F3",
                    "midi": 53,
                    "time": 87.54381149999993,
                    "velocity": 0.2992125984251969,
                    "duration": 0.1754384999999985
                },
                {
                    "name": "A#2",
                    "midi": 46,
                    "time": 87.71924999999993,
                    "velocity": 0.3700787401574803,
                    "duration": 0.350876999999997
                },
                {
                    "name": "F3",
                    "midi": 53,
                    "time": 87.89468849999993,
                    "velocity": 0.2992125984251969,
                    "duration": 0.1754384999999985
                },
                {
                    "name": "B2",
                    "midi": 47,
                    "time": 88.07012699999993,
                    "velocity": 0.33858267716535434,
                    "duration": 0.350876999999997
                },
                {
                    "name": "F3",
                    "midi": 53,
                    "time": 88.24556549999993,
                    "velocity": 0.30708661417322836,
                    "duration": 0.1754384999999985
                },
                {
                    "name": "C3",
                    "midi": 48,
                    "time": 88.42100399999993,
                    "velocity": 0.4251968503937008,
                    "duration": 0.350876999999997
                },
                {
                    "name": "F3",
                    "midi": 53,
                    "time": 88.59644249999992,
                    "velocity": 0.30708661417322836,
                    "duration": 0.1754384999999985
                },
                {
                    "name": "F2",
                    "midi": 41,
                    "time": 88.77188099999992,
                    "velocity": 0.3779527559055118,
                    "duration": 0.350876999999997
                },
                {
                    "name": "F3",
                    "midi": 53,
                    "time": 88.94731949999992,
                    "velocity": 0.30708661417322836,
                    "duration": 0.1754384999999985
                },
                {
                    "name": "A#2",
                    "midi": 46,
                    "time": 89.12275799999992,
                    "velocity": 0.4409448818897638,
                    "duration": 0.350876999999997
                },
                {
                    "name": "F3",
                    "midi": 53,
                    "time": 89.29819649999992,
                    "velocity": 0.3228346456692913,
                    "duration": 0.1754384999999985
                },
                {
                    "name": "G#2",
                    "midi": 44,
                    "time": 89.47363499999992,
                    "velocity": 0.3937007874015748,
                    "duration": 0.350876999999997
                },
                {
                    "name": "A#2",
                    "midi": 46,
                    "time": 89.64907349999991,
                    "velocity": 0.3543307086614173,
                    "duration": 0.1754384999999985
                },
                {
                    "name": "G2",
                    "midi": 43,
                    "time": 89.82451199999991,
                    "velocity": 0.4881889763779528,
                    "duration": 0.33625712500000304
                },
                {
                    "name": "A#2",
                    "midi": 46,
                    "time": 89.99995049999991,
                    "velocity": 0.4015748031496063,
                    "duration": 0.1754384999999985
                },
                {
                    "name": "D#2",
                    "midi": 39,
                    "time": 90.17538899999991,
                    "velocity": 0.4566929133858268,
                    "duration": 0.350876999999997
                },
                {
                    "name": "D#3",
                    "midi": 51,
                    "time": 90.35082749999991,
                    "velocity": 0.4015748031496063,
                    "duration": 0.1754384999999985
                },
                {
                    "name": "F2",
                    "midi": 41,
                    "time": 90.52626599999991,
                    "velocity": 0.4409448818897638,
                    "duration": 0.33625712500000304
                },
                {
                    "name": "D3",
                    "midi": 50,
                    "time": 90.7017044999999,
                    "velocity": 0.33070866141732286,
                    "duration": 0.1754384999999985
                },
                {
                    "name": "F2",
                    "midi": 41,
                    "time": 90.8771429999999,
                    "velocity": 0.3858267716535433,
                    "duration": 0.350876999999997
                },
                {
                    "name": "A2",
                    "midi": 45,
                    "time": 91.0525814999999,
                    "velocity": 0.33858267716535434,
                    "duration": 0.1754384999999985
                },
                {
                    "name": "A#1",
                    "midi": 34,
                    "time": 91.2280199999999,
                    "velocity": 0.33858267716535434,
                    "duration": 0.1754384999999985
                },
                {
                    "name": "A#2",
                    "midi": 46,
                    "time": 91.4034584999999,
                    "velocity": 0.2283464566929134,
                    "duration": 0.8771925000000493
                },
                {
                    "name": "A#3",
                    "midi": 58,
                    "time": 91.5788969999999,
                    "velocity": 0.2755905511811024,
                    "duration": 0.08771925000000635
                },
                {
                    "name": "A#3",
                    "midi": 58,
                    "time": 91.75433549999991,
                    "velocity": 0.2283464566929134,
                    "duration": 0.08771925000000635
                },
                {
                    "name": "A#3",
                    "midi": 58,
                    "time": 91.92977399999992,
                    "velocity": 0.31496062992125984,
                    "duration": 0.08771925000000635
                },
                {
                    "name": "A#3",
                    "midi": 58,
                    "time": 92.10521249999994,
                    "velocity": 0.2755905511811024,
                    "duration": 0.08771925000000635
                },
                {
                    "name": "G#3",
                    "midi": 56,
                    "time": 92.28065099999995,
                    "velocity": 0.33858267716535434,
                    "duration": 0.350876999999997
                },
                {
                    "name": "A#3",
                    "midi": 58,
                    "time": 92.45608949999995,
                    "velocity": 0.30708661417322836,
                    "duration": 0.1754384999999985
                },
                {
                    "name": "G3",
                    "midi": 55,
                    "time": 92.63152799999995,
                    "velocity": 0.4094488188976378,
                    "duration": 0.350876999999997
                },
                {
                    "name": "A#3",
                    "midi": 58,
                    "time": 92.80696649999994,
                    "velocity": 0.36220472440944884,
                    "duration": 0.1754384999999985
                },
                {
                    "name": "D#3",
                    "midi": 51,
                    "time": 92.98240499999994,
                    "velocity": 0.4409448818897638,
                    "duration": 0.350876999999997
                },
                {
                    "name": "D#4",
                    "midi": 63,
                    "time": 93.15784349999994,
                    "velocity": 0.4015748031496063,
                    "duration": 0.1754384999999985
                },
                {
                    "name": "F3",
                    "midi": 53,
                    "time": 93.33328199999994,
                    "velocity": 0.2755905511811024,
                    "duration": 0.33625712500000304
                },
                {
                    "name": "D4",
                    "midi": 62,
                    "time": 93.50872049999994,
                    "velocity": 0.2283464566929134,
                    "duration": 0.1754384999999985
                },
                {
                    "name": "F3",
                    "midi": 53,
                    "time": 93.68415899999994,
                    "velocity": 0.2755905511811024,
                    "duration": 0.350876999999997
                },
                {
                    "name": "A3",
                    "midi": 57,
                    "time": 93.85959749999994,
                    "velocity": 0.2283464566929134,
                    "duration": 0.1754384999999985
                },
                {
                    "name": "A#2",
                    "midi": 46,
                    "time": 94.03503599999993,
                    "velocity": 0.25984251968503935,
                    "duration": 0.350876999999997
                },
                {
                    "name": "A#3",
                    "midi": 58,
                    "time": 94.03503599999993,
                    "velocity": 0.30708661417322836,
                    "duration": 0.350876999999997
                },
                {
                    "name": "A#2",
                    "midi": 46,
                    "time": 94.73678999999993,
                    "velocity": 0.4645669291338583,
                    "duration": 0.701753999999994
                },
                {
                    "name": "C#3",
                    "midi": 49,
                    "time": 94.73678999999993,
                    "velocity": 0.5590551181102362,
                    "duration": 0.701753999999994
                },
                {
                    "name": "D#2",
                    "midi": 39,
                    "time": 95.43854399999992,
                    "velocity": 0.41732283464566927,
                    "duration": 1.0526310000000052
                },
                {
                    "name": "B2",
                    "midi": 47,
                    "time": 95.43854399999992,
                    "velocity": 0.5039370078740157,
                    "duration": 0.5263154999999955
                },
                {
                    "name": "C#3",
                    "midi": 49,
                    "time": 95.96485949999992,
                    "velocity": 0.5039370078740157,
                    "duration": 0.08771925000000635
                },
                {
                    "name": "D#3",
                    "midi": 51,
                    "time": 96.05257874999992,
                    "velocity": 0.5039370078740157,
                    "duration": 0.08771925000000635
                },
                {
                    "name": "F#2",
                    "midi": 42,
                    "time": 96.14029799999993,
                    "velocity": 0.4566929133858268,
                    "duration": 0.350876999999997
                },
                {
                    "name": "F2",
                    "midi": 41,
                    "time": 96.49117499999993,
                    "velocity": 0.3779527559055118,
                    "duration": 0.350876999999997
                },
                {
                    "name": "A2",
                    "midi": 45,
                    "time": 96.49117499999993,
                    "velocity": 0.4566929133858268,
                    "duration": 0.350876999999997
                },
                {
                    "name": "A#1",
                    "midi": 34,
                    "time": 96.84205199999992,
                    "velocity": 0.4645669291338583,
                    "duration": 0.5263154999999955
                },
                {
                    "name": "A#2",
                    "midi": 46,
                    "time": 96.84205199999992,
                    "velocity": 0.5590551181102362,
                    "duration": 0.5263154999999955
                },
                {
                    "name": "A#2",
                    "midi": 46,
                    "time": 97.54380599999992,
                    "velocity": 0.4645669291338583,
                    "duration": 0.701753999999994
                },
                {
                    "name": "C#3",
                    "midi": 49,
                    "time": 97.54380599999992,
                    "velocity": 0.5590551181102362,
                    "duration": 0.701753999999994
                },
                {
                    "name": "E2",
                    "midi": 40,
                    "time": 98.24555999999991,
                    "velocity": 0.5590551181102362,
                    "duration": 0.701753999999994
                },
                {
                    "name": "C3",
                    "midi": 48,
                    "time": 98.24555999999991,
                    "velocity": 0.5590551181102362,
                    "duration": 0.701753999999994
                },
                {
                    "name": "E3",
                    "midi": 52,
                    "time": 98.9473139999999,
                    "velocity": 0.5590551181102362,
                    "duration": 0.701753999999994
                },
                {
                    "name": "G3",
                    "midi": 55,
                    "time": 98.9473139999999,
                    "velocity": 0.5590551181102362,
                    "duration": 0.701753999999994
                },
                {
                    "name": "F3",
                    "midi": 53,
                    "time": 99.6490679999999,
                    "velocity": 0.4645669291338583,
                    "duration": 0.1754384999999985
                },
                {
                    "name": "G#3",
                    "midi": 56,
                    "time": 99.6490679999999,
                    "velocity": 0.5590551181102362,
                    "duration": 0.1754384999999985
                },
                {
                    "name": "B2",
                    "midi": 47,
                    "time": 99.9999449999999,
                    "velocity": 0.5039370078740157,
                    "duration": 0.1754384999999985
                },
                {
                    "name": "B3",
                    "midi": 59,
                    "time": 99.9999449999999,
                    "velocity": 0.5984251968503937,
                    "duration": 0.1754384999999985
                },
                {
                    "name": "C3",
                    "midi": 48,
                    "time": 100.3508219999999,
                    "velocity": 0.4645669291338583,
                    "duration": 0.1754384999999985
                },
                {
                    "name": "C4",
                    "midi": 60,
                    "time": 100.3508219999999,
                    "velocity": 0.5590551181102362,
                    "duration": 0.1754384999999985
                },
                {
                    "name": "C2",
                    "midi": 36,
                    "time": 100.70169899999989,
                    "velocity": 0.4645669291338583,
                    "duration": 0.1754384999999985
                },
                {
                    "name": "C3",
                    "midi": 48,
                    "time": 100.70169899999989,
                    "velocity": 0.5590551181102362,
                    "duration": 0.1754384999999985
                },
                {
                    "name": "F2",
                    "midi": 41,
                    "time": 101.05257599999989,
                    "velocity": 0.5511811023622047,
                    "duration": 0.1754384999999985
                },
                {
                    "name": "F3",
                    "midi": 53,
                    "time": 101.05257599999989,
                    "velocity": 0.6456692913385826,
                    "duration": 0.1754384999999985
                },
                {
                    "name": "E2",
                    "midi": 40,
                    "time": 101.22801449999989,
                    "velocity": 0.23622047244094488,
                    "duration": 0.08771925000000635
                },
                {
                    "name": "G2",
                    "midi": 43,
                    "time": 101.22801449999989,
                    "velocity": 0.28346456692913385,
                    "duration": 0.08771925000000635
                },
                {
                    "name": "F2",
                    "midi": 41,
                    "time": 101.4034529999999,
                    "velocity": 0.23622047244094488,
                    "duration": 0.08771925000000635
                },
                {
                    "name": "G#2",
                    "midi": 44,
                    "time": 101.4034529999999,
                    "velocity": 0.28346456692913385,
                    "duration": 0.08771925000000635
                },
                {
                    "name": "G2",
                    "midi": 43,
                    "time": 101.57889149999991,
                    "velocity": 0.23622047244094488,
                    "duration": 0.08771925000000635
                },
                {
                    "name": "A#2",
                    "midi": 46,
                    "time": 101.57889149999991,
                    "velocity": 0.28346456692913385,
                    "duration": 0.08771925000000635
                },
                {
                    "name": "G#2",
                    "midi": 44,
                    "time": 101.75432999999992,
                    "velocity": 0.2677165354330709,
                    "duration": 0.08771925000000635
                },
                {
                    "name": "C3",
                    "midi": 48,
                    "time": 101.75432999999992,
                    "velocity": 0.31496062992125984,
                    "duration": 0.08771925000000635
                },
                {
                    "name": "A#2",
                    "midi": 46,
                    "time": 101.92976849999994,
                    "velocity": 0.2283464566929134,
                    "duration": 0.08771925000000635
                },
                {
                    "name": "C#3",
                    "midi": 49,
                    "time": 101.92976849999994,
                    "velocity": 0.2755905511811024,
                    "duration": 0.08771925000000635
                },
                {
                    "name": "G#2",
                    "midi": 44,
                    "time": 102.10520699999995,
                    "velocity": 0.2283464566929134,
                    "duration": 0.08771925000000635
                },
                {
                    "name": "C3",
                    "midi": 48,
                    "time": 102.10520699999995,
                    "velocity": 0.2755905511811024,
                    "duration": 0.08771925000000635
                },
                {
                    "name": "G2",
                    "midi": 43,
                    "time": 102.28064549999996,
                    "velocity": 0.2283464566929134,
                    "duration": 0.08771925000000635
                },
                {
                    "name": "A#2",
                    "midi": 46,
                    "time": 102.28064549999996,
                    "velocity": 0.2755905511811024,
                    "duration": 0.08771925000000635
                },
                {
                    "name": "F2",
                    "midi": 41,
                    "time": 102.45608399999998,
                    "velocity": 0.2677165354330709,
                    "duration": 0.08771925000000635
                },
                {
                    "name": "G#2",
                    "midi": 44,
                    "time": 102.45608399999998,
                    "velocity": 0.31496062992125984,
                    "duration": 0.08771925000000635
                },
                {
                    "name": "A2",
                    "midi": 45,
                    "time": 102.63152249999999,
                    "velocity": 0.23622047244094488,
                    "duration": 0.08771925000000635
                },
                {
                    "name": "C3",
                    "midi": 48,
                    "time": 102.63152249999999,
                    "velocity": 0.28346456692913385,
                    "duration": 0.08771925000000635
                },
                {
                    "name": "A#2",
                    "midi": 46,
                    "time": 102.806961,
                    "velocity": 0.23622047244094488,
                    "duration": 0.08771925000000635
                },
                {
                    "name": "C#3",
                    "midi": 49,
                    "time": 102.806961,
                    "velocity": 0.28346456692913385,
                    "duration": 0.08771925000000635
                },
                {
                    "name": "D#3",
                    "midi": 51,
                    "time": 102.98239950000001,
                    "velocity": 0.28346456692913385,
                    "duration": 0.08771925000000635
                },
                {
                    "name": "C3",
                    "midi": 48,
                    "time": 102.98239950000001,
                    "velocity": 0.23622047244094488,
                    "duration": 0.08771925000000635
                },
                {
                    "name": "F3",
                    "midi": 53,
                    "time": 103.15783800000003,
                    "velocity": 0.31496062992125984,
                    "duration": 0.08771925000000635
                },
                {
                    "name": "C#3",
                    "midi": 49,
                    "time": 103.15783800000003,
                    "velocity": 0.2677165354330709,
                    "duration": 0.08771925000000635
                },
                {
                    "name": "D#3",
                    "midi": 51,
                    "time": 103.33327650000004,
                    "velocity": 0.23622047244094488,
                    "duration": 0.08771925000000635
                },
                {
                    "name": "F#3",
                    "midi": 54,
                    "time": 103.33327650000004,
                    "velocity": 0.28346456692913385,
                    "duration": 0.08771925000000635
                },
                {
                    "name": "C#3",
                    "midi": 49,
                    "time": 103.50871500000005,
                    "velocity": 0.23622047244094488,
                    "duration": 0.08771925000000635
                },
                {
                    "name": "F3",
                    "midi": 53,
                    "time": 103.50871500000005,
                    "velocity": 0.28346456692913385,
                    "duration": 0.08771925000000635
                },
                {
                    "name": "C3",
                    "midi": 48,
                    "time": 103.68415350000006,
                    "velocity": 0.23622047244094488,
                    "duration": 0.08771925000000635
                },
                {
                    "name": "D#3",
                    "midi": 51,
                    "time": 103.68415350000006,
                    "velocity": 0.28346456692913385,
                    "duration": 0.08771925000000635
                },
                {
                    "name": "A#2",
                    "midi": 46,
                    "time": 103.85959200000008,
                    "velocity": 0.2992125984251969,
                    "duration": 0.08771925000000635
                },
                {
                    "name": "C#3",
                    "midi": 49,
                    "time": 103.85959200000008,
                    "velocity": 0.3543307086614173,
                    "duration": 0.08771925000000635
                },
                {
                    "name": "A#2",
                    "midi": 46,
                    "time": 104.03503050000009,
                    "velocity": 0.23622047244094488,
                    "duration": 0.08771925000000635
                },
                {
                    "name": "C#3",
                    "midi": 49,
                    "time": 104.03503050000009,
                    "velocity": 0.28346456692913385,
                    "duration": 0.08771925000000635
                },
                {
                    "name": "B2",
                    "midi": 47,
                    "time": 104.2104690000001,
                    "velocity": 0.23622047244094488,
                    "duration": 0.08771925000000635
                },
                {
                    "name": "D3",
                    "midi": 50,
                    "time": 104.2104690000001,
                    "velocity": 0.28346456692913385,
                    "duration": 0.08771925000000635
                },
                {
                    "name": "B2",
                    "midi": 47,
                    "time": 104.38590750000012,
                    "velocity": 0.23622047244094488,
                    "duration": 0.08771925000000635
                },
                {
                    "name": "D3",
                    "midi": 50,
                    "time": 104.38590750000012,
                    "velocity": 0.28346456692913385,
                    "duration": 0.08771925000000635
                },
                {
                    "name": "C3",
                    "midi": 48,
                    "time": 104.56134600000013,
                    "velocity": 0.30708661417322836,
                    "duration": 0.08771925000000635
                },
                {
                    "name": "F3",
                    "midi": 53,
                    "time": 104.56134600000013,
                    "velocity": 0.3700787401574803,
                    "duration": 0.08771925000000635
                },
                {
                    "name": "C3",
                    "midi": 48,
                    "time": 104.73678450000014,
                    "velocity": 0.25196850393700787,
                    "duration": 0.08771925000000635
                },
                {
                    "name": "F3",
                    "midi": 53,
                    "time": 104.73678450000014,
                    "velocity": 0.2992125984251969,
                    "duration": 0.08771925000000635
                },
                {
                    "name": "C3",
                    "midi": 48,
                    "time": 104.91222300000015,
                    "velocity": 0.25196850393700787,
                    "duration": 0.08771925000000635
                },
                {
                    "name": "G3",
                    "midi": 55,
                    "time": 104.91222300000015,
                    "velocity": 0.2992125984251969,
                    "duration": 0.08771925000000635
                },
                {
                    "name": "C3",
                    "midi": 48,
                    "time": 105.08766150000017,
                    "velocity": 0.25196850393700787,
                    "duration": 0.08771925000000635
                },
                {
                    "name": "G3",
                    "midi": 55,
                    "time": 105.08766150000017,
                    "velocity": 0.2992125984251969,
                    "duration": 0.08771925000000635
                },
                {
                    "name": "F3",
                    "midi": 53,
                    "time": 105.26310000000018,
                    "velocity": 0.48031496062992124,
                    "duration": 0.1754384999999985
                },
                {
                    "name": "G#3",
                    "midi": 56,
                    "time": 105.26310000000018,
                    "velocity": 0.5669291338582677,
                    "duration": 0.1754384999999985
                },
                {
                    "name": "E2",
                    "midi": 40,
                    "time": 105.43853850000018,
                    "velocity": 0.28346456692913385,
                    "duration": 0.08771925000000635
                },
                {
                    "name": "E3",
                    "midi": 52,
                    "time": 105.43853850000018,
                    "velocity": 0.33070866141732286,
                    "duration": 0.08771925000000635
                },
                {
                    "name": "F2",
                    "midi": 41,
                    "time": 105.61397700000019,
                    "velocity": 0.28346456692913385,
                    "duration": 0.08771925000000635
                },
                {
                    "name": "F3",
                    "midi": 53,
                    "time": 105.61397700000019,
                    "velocity": 0.33858267716535434,
                    "duration": 0.08771925000000635
                },
                {
                    "name": "G2",
                    "midi": 43,
                    "time": 105.7894155000002,
                    "velocity": 0.28346456692913385,
                    "duration": 0.08771925000000635
                },
                {
                    "name": "G3",
                    "midi": 55,
                    "time": 105.7894155000002,
                    "velocity": 0.3464566929133858,
                    "duration": 0.08771925000000635
                },
                {
                    "name": "G#2",
                    "midi": 44,
                    "time": 105.96485400000022,
                    "velocity": 0.33070866141732286,
                    "duration": 0.08771925000000635
                },
                {
                    "name": "G#3",
                    "midi": 56,
                    "time": 105.96485400000022,
                    "velocity": 0.3937007874015748,
                    "duration": 0.08771925000000635
                },
                {
                    "name": "A#2",
                    "midi": 46,
                    "time": 106.14029250000023,
                    "velocity": 0.29133858267716534,
                    "duration": 0.08771925000000635
                },
                {
                    "name": "A#3",
                    "midi": 58,
                    "time": 106.14029250000023,
                    "velocity": 0.3543307086614173,
                    "duration": 0.08771925000000635
                },
                {
                    "name": "G#2",
                    "midi": 44,
                    "time": 106.31573100000024,
                    "velocity": 0.29133858267716534,
                    "duration": 0.08771925000000635
                },
                {
                    "name": "G#3",
                    "midi": 56,
                    "time": 106.31573100000024,
                    "velocity": 0.36220472440944884,
                    "duration": 0.08771925000000635
                },
                {
                    "name": "G2",
                    "midi": 43,
                    "time": 106.49116950000025,
                    "velocity": 0.29133858267716534,
                    "duration": 0.08771925000000635
                },
                {
                    "name": "G3",
                    "midi": 55,
                    "time": 106.49116950000025,
                    "velocity": 0.36220472440944884,
                    "duration": 0.08771925000000635
                },
                {
                    "name": "F2",
                    "midi": 41,
                    "time": 106.66660800000027,
                    "velocity": 0.36220472440944884,
                    "duration": 0.08771925000000635
                },
                {
                    "name": "F3",
                    "midi": 53,
                    "time": 106.66660800000027,
                    "velocity": 0.4251968503937008,
                    "duration": 0.08771925000000635
                },
                {
                    "name": "A2",
                    "midi": 45,
                    "time": 106.84204650000028,
                    "velocity": 0.33070866141732286,
                    "duration": 0.08771925000000635
                },
                {
                    "name": "A3",
                    "midi": 57,
                    "time": 106.84204650000028,
                    "velocity": 0.3937007874015748,
                    "duration": 0.08771925000000635
                },
                {
                    "name": "A#2",
                    "midi": 46,
                    "time": 107.01748500000029,
                    "velocity": 0.33070866141732286,
                    "duration": 0.08771925000000635
                },
                {
                    "name": "A#3",
                    "midi": 58,
                    "time": 107.01748500000029,
                    "velocity": 0.3937007874015748,
                    "duration": 0.08771925000000635
                },
                {
                    "name": "C4",
                    "midi": 60,
                    "time": 107.1929235000003,
                    "velocity": 0.4094488188976378,
                    "duration": 0.08771925000000635
                },
                {
                    "name": "C3",
                    "midi": 48,
                    "time": 107.1929235000003,
                    "velocity": 0.33070866141732286,
                    "duration": 0.08771925000000635
                },
                {
                    "name": "C#4",
                    "midi": 61,
                    "time": 107.36836200000032,
                    "velocity": 0.4566929133858268,
                    "duration": 0.08771925000000635
                },
                {
                    "name": "C#3",
                    "midi": 49,
                    "time": 107.36836200000032,
                    "velocity": 0.3937007874015748,
                    "duration": 0.08771925000000635
                },
                {
                    "name": "D#3",
                    "midi": 51,
                    "time": 107.54380050000033,
                    "velocity": 0.3464566929133858,
                    "duration": 0.08771925000000635
                },
                {
                    "name": "D#4",
                    "midi": 63,
                    "time": 107.54380050000033,
                    "velocity": 0.4251968503937008,
                    "duration": 0.08771925000000635
                },
                {
                    "name": "C#3",
                    "midi": 49,
                    "time": 107.71923900000034,
                    "velocity": 0.3464566929133858,
                    "duration": 0.08771925000000635
                },
                {
                    "name": "C#4",
                    "midi": 61,
                    "time": 107.71923900000034,
                    "velocity": 0.4251968503937008,
                    "duration": 0.08771925000000635
                },
                {
                    "name": "C3",
                    "midi": 48,
                    "time": 107.89467750000036,
                    "velocity": 0.36220472440944884,
                    "duration": 0.08771925000000635
                },
                {
                    "name": "C4",
                    "midi": 60,
                    "time": 107.89467750000036,
                    "velocity": 0.4409448818897638,
                    "duration": 0.08771925000000635
                },
                {
                    "name": "A#2",
                    "midi": 46,
                    "time": 108.07011600000037,
                    "velocity": 0.47244094488188976,
                    "duration": 0.08771925000000635
                },
                {
                    "name": "A#3",
                    "midi": 58,
                    "time": 108.07011600000037,
                    "velocity": 0.5590551181102362,
                    "duration": 0.08771925000000635
                },
                {
                    "name": "A#3",
                    "midi": 58,
                    "time": 108.24555450000038,
                    "velocity": 0.3779527559055118,
                    "duration": 0.08771925000000635
                },
                {
                    "name": "C#4",
                    "midi": 61,
                    "time": 108.24555450000038,
                    "velocity": 0.44881889763779526,
                    "duration": 0.08771925000000635
                },
                {
                    "name": "B3",
                    "midi": 59,
                    "time": 108.4209930000004,
                    "velocity": 0.3779527559055118,
                    "duration": 0.08771925000000635
                },
                {
                    "name": "D4",
                    "midi": 62,
                    "time": 108.4209930000004,
                    "velocity": 0.4566929133858268,
                    "duration": 0.08771925000000635
                },
                {
                    "name": "B3",
                    "midi": 59,
                    "time": 108.5964315000004,
                    "velocity": 0.3779527559055118,
                    "duration": 0.08771925000000635
                },
                {
                    "name": "D4",
                    "midi": 62,
                    "time": 108.5964315000004,
                    "velocity": 0.4566929133858268,
                    "duration": 0.08771925000000635
                },
                {
                    "name": "C4",
                    "midi": 60,
                    "time": 108.77187000000042,
                    "velocity": 0.5118110236220472,
                    "duration": 0.08771925000000635
                },
                {
                    "name": "F4",
                    "midi": 65,
                    "time": 108.77187000000042,
                    "velocity": 0.6141732283464567,
                    "duration": 0.08771925000000635
                },
                {
                    "name": "C4",
                    "midi": 60,
                    "time": 108.94730850000043,
                    "velocity": 0.4251968503937008,
                    "duration": 0.08771925000000635
                },
                {
                    "name": "F4",
                    "midi": 65,
                    "time": 108.94730850000043,
                    "velocity": 0.5039370078740157,
                    "duration": 0.08771925000000635
                },
                {
                    "name": "C4",
                    "midi": 60,
                    "time": 109.12274700000044,
                    "velocity": 0.4330708661417323,
                    "duration": 0.08771925000000635
                },
                {
                    "name": "G4",
                    "midi": 67,
                    "time": 109.12274700000044,
                    "velocity": 0.5196850393700787,
                    "duration": 0.08771925000000635
                },
                {
                    "name": "C4",
                    "midi": 60,
                    "time": 109.29818550000046,
                    "velocity": 0.4409448818897638,
                    "duration": 0.08771925000000635
                },
                {
                    "name": "G4",
                    "midi": 67,
                    "time": 109.29818550000046,
                    "velocity": 0.5275590551181102,
                    "duration": 0.08771925000000635
                },
                {
                    "name": "F3",
                    "midi": 53,
                    "time": 109.47362400000047,
                    "velocity": 0.41732283464566927,
                    "duration": 0.08771925000000635
                },
                {
                    "name": "G#3",
                    "midi": 56,
                    "time": 109.47362400000047,
                    "velocity": 0.41732283464566927,
                    "duration": 0.08771925000000635
                },
                {
                    "name": "C4",
                    "midi": 60,
                    "time": 109.47362400000047,
                    "velocity": 0.41732283464566927,
                    "duration": 0.08771925000000635
                },
                {
                    "name": "F4",
                    "midi": 65,
                    "time": 109.47362400000047,
                    "velocity": 0.49606299212598426,
                    "duration": 0.08771925000000635
                },
                {
                    "name": "F3",
                    "midi": 53,
                    "time": 109.64906250000048,
                    "velocity": 0.41732283464566927,
                    "duration": 0.08771925000000635
                },
                {
                    "name": "G#3",
                    "midi": 56,
                    "time": 109.64906250000048,
                    "velocity": 0.41732283464566927,
                    "duration": 0.08771925000000635
                },
                {
                    "name": "C4",
                    "midi": 60,
                    "time": 109.64906250000048,
                    "velocity": 0.41732283464566927,
                    "duration": 0.08771925000000635
                },
                {
                    "name": "F4",
                    "midi": 65,
                    "time": 109.64906250000048,
                    "velocity": 0.49606299212598426,
                    "duration": 0.08771925000000635
                },
                {
                    "name": "F3",
                    "midi": 53,
                    "time": 109.8245010000005,
                    "velocity": 0.3700787401574803,
                    "duration": 0.08771925000000635
                },
                {
                    "name": "G#3",
                    "midi": 56,
                    "time": 109.8245010000005,
                    "velocity": 0.3700787401574803,
                    "duration": 0.08771925000000635
                },
                {
                    "name": "C4",
                    "midi": 60,
                    "time": 109.8245010000005,
                    "velocity": 0.3700787401574803,
                    "duration": 0.08771925000000635
                },
                {
                    "name": "F4",
                    "midi": 65,
                    "time": 109.8245010000005,
                    "velocity": 0.4409448818897638,
                    "duration": 0.08771925000000635
                },
                {
                    "name": "F3",
                    "midi": 53,
                    "time": 109.99993950000051,
                    "velocity": 0.3700787401574803,
                    "duration": 0.08771925000000635
                },
                {
                    "name": "G#3",
                    "midi": 56,
                    "time": 109.99993950000051,
                    "velocity": 0.3700787401574803,
                    "duration": 0.08771925000000635
                },
                {
                    "name": "C4",
                    "midi": 60,
                    "time": 109.99993950000051,
                    "velocity": 0.3700787401574803,
                    "duration": 0.08771925000000635
                },
                {
                    "name": "F4",
                    "midi": 65,
                    "time": 109.99993950000051,
                    "velocity": 0.4409448818897638,
                    "duration": 0.08771925000000635
                },
                {
                    "name": "F3",
                    "midi": 53,
                    "time": 110.17537800000052,
                    "velocity": 0.3858267716535433,
                    "duration": 0.08771925000000635
                },
                {
                    "name": "G3",
                    "midi": 55,
                    "time": 110.17537800000052,
                    "velocity": 0.3858267716535433,
                    "duration": 0.08771925000000635
                },
                {
                    "name": "A#3",
                    "midi": 58,
                    "time": 110.17537800000052,
                    "velocity": 0.3858267716535433,
                    "duration": 0.08771925000000635
                },
                {
                    "name": "C4",
                    "midi": 60,
                    "time": 110.17537800000052,
                    "velocity": 0.3858267716535433,
                    "duration": 0.08771925000000635
                },
                {
                    "name": "E4",
                    "midi": 64,
                    "time": 110.17537800000052,
                    "velocity": 0.4645669291338583,
                    "duration": 0.08771925000000635
                },
                {
                    "name": "F3",
                    "midi": 53,
                    "time": 110.35081650000053,
                    "velocity": 0.33070866141732286,
                    "duration": 0.08771925000000635
                },
                {
                    "name": "G3",
                    "midi": 55,
                    "time": 110.35081650000053,
                    "velocity": 0.33070866141732286,
                    "duration": 0.08771925000000635
                },
                {
                    "name": "A#3",
                    "midi": 58,
                    "time": 110.35081650000053,
                    "velocity": 0.33070866141732286,
                    "duration": 0.08771925000000635
                },
                {
                    "name": "C4",
                    "midi": 60,
                    "time": 110.35081650000053,
                    "velocity": 0.33070866141732286,
                    "duration": 0.08771925000000635
                },
                {
                    "name": "E4",
                    "midi": 64,
                    "time": 110.35081650000053,
                    "velocity": 0.3937007874015748,
                    "duration": 0.08771925000000635
                },
                {
                    "name": "F3",
                    "midi": 53,
                    "time": 110.52625500000055,
                    "velocity": 0.33070866141732286,
                    "duration": 0.08771925000000635
                },
                {
                    "name": "G3",
                    "midi": 55,
                    "time": 110.52625500000055,
                    "velocity": 0.33070866141732286,
                    "duration": 0.08771925000000635
                },
                {
                    "name": "A#3",
                    "midi": 58,
                    "time": 110.52625500000055,
                    "velocity": 0.33070866141732286,
                    "duration": 0.08771925000000635
                },
                {
                    "name": "C4",
                    "midi": 60,
                    "time": 110.52625500000055,
                    "velocity": 0.33070866141732286,
                    "duration": 0.08771925000000635
                },
                {
                    "name": "E4",
                    "midi": 64,
                    "time": 110.52625500000055,
                    "velocity": 0.3937007874015748,
                    "duration": 0.08771925000000635
                },
                {
                    "name": "F3",
                    "midi": 53,
                    "time": 110.70169350000056,
                    "velocity": 0.33070866141732286,
                    "duration": 0.08771925000000635
                },
                {
                    "name": "G3",
                    "midi": 55,
                    "time": 110.70169350000056,
                    "velocity": 0.33070866141732286,
                    "duration": 0.08771925000000635
                },
                {
                    "name": "A#3",
                    "midi": 58,
                    "time": 110.70169350000056,
                    "velocity": 0.33070866141732286,
                    "duration": 0.08771925000000635
                },
                {
                    "name": "C4",
                    "midi": 60,
                    "time": 110.70169350000056,
                    "velocity": 0.33070866141732286,
                    "duration": 0.08771925000000635
                },
                {
                    "name": "E4",
                    "midi": 64,
                    "time": 110.70169350000056,
                    "velocity": 0.3937007874015748,
                    "duration": 0.08771925000000635
                },
                {
                    "name": "F2",
                    "midi": 41,
                    "time": 110.87713200000057,
                    "velocity": 0.41732283464566927,
                    "duration": 0.08771925000000635
                },
                {
                    "name": "G#2",
                    "midi": 44,
                    "time": 110.87713200000057,
                    "velocity": 0.41732283464566927,
                    "duration": 0.08771925000000635
                },
                {
                    "name": "C3",
                    "midi": 48,
                    "time": 110.87713200000057,
                    "velocity": 0.41732283464566927,
                    "duration": 0.08771925000000635
                },
                {
                    "name": "F3",
                    "midi": 53,
                    "time": 110.87713200000057,
                    "velocity": 0.49606299212598426,
                    "duration": 0.08771925000000635
                },
                {
                    "name": "F2",
                    "midi": 41,
                    "time": 111.05257050000058,
                    "velocity": 0.41732283464566927,
                    "duration": 0.08771925000000635
                },
                {
                    "name": "G#2",
                    "midi": 44,
                    "time": 111.05257050000058,
                    "velocity": 0.41732283464566927,
                    "duration": 0.08771925000000635
                },
                {
                    "name": "C3",
                    "midi": 48,
                    "time": 111.05257050000058,
                    "velocity": 0.41732283464566927,
                    "duration": 0.08771925000000635
                },
                {
                    "name": "F3",
                    "midi": 53,
                    "time": 111.05257050000058,
                    "velocity": 0.49606299212598426,
                    "duration": 0.08771925000000635
                },
                {
                    "name": "F2",
                    "midi": 41,
                    "time": 111.2280090000006,
                    "velocity": 0.3700787401574803,
                    "duration": 0.08771925000000635
                },
                {
                    "name": "G#2",
                    "midi": 44,
                    "time": 111.2280090000006,
                    "velocity": 0.3700787401574803,
                    "duration": 0.08771925000000635
                },
                {
                    "name": "C3",
                    "midi": 48,
                    "time": 111.2280090000006,
                    "velocity": 0.3700787401574803,
                    "duration": 0.08771925000000635
                },
                {
                    "name": "F3",
                    "midi": 53,
                    "time": 111.2280090000006,
                    "velocity": 0.4409448818897638,
                    "duration": 0.08771925000000635
                },
                {
                    "name": "F2",
                    "midi": 41,
                    "time": 111.40344750000061,
                    "velocity": 0.3700787401574803,
                    "duration": 0.08771925000000635
                },
                {
                    "name": "G#2",
                    "midi": 44,
                    "time": 111.40344750000061,
                    "velocity": 0.3700787401574803,
                    "duration": 0.08771925000000635
                },
                {
                    "name": "C3",
                    "midi": 48,
                    "time": 111.40344750000061,
                    "velocity": 0.3700787401574803,
                    "duration": 0.08771925000000635
                },
                {
                    "name": "F3",
                    "midi": 53,
                    "time": 111.40344750000061,
                    "velocity": 0.4409448818897638,
                    "duration": 0.08771925000000635
                },
                {
                    "name": "F2",
                    "midi": 41,
                    "time": 111.57888600000062,
                    "velocity": 0.3858267716535433,
                    "duration": 0.08771925000000635
                },
                {
                    "name": "G2",
                    "midi": 43,
                    "time": 111.57888600000062,
                    "velocity": 0.3858267716535433,
                    "duration": 0.08771925000000635
                },
                {
                    "name": "A#2",
                    "midi": 46,
                    "time": 111.57888600000062,
                    "velocity": 0.3858267716535433,
                    "duration": 0.08771925000000635
                },
                {
                    "name": "C3",
                    "midi": 48,
                    "time": 111.57888600000062,
                    "velocity": 0.3858267716535433,
                    "duration": 0.08771925000000635
                },
                {
                    "name": "E3",
                    "midi": 52,
                    "time": 111.57888600000062,
                    "velocity": 0.4645669291338583,
                    "duration": 0.08771925000000635
                },
                {
                    "name": "F2",
                    "midi": 41,
                    "time": 111.75432450000064,
                    "velocity": 0.33070866141732286,
                    "duration": 0.08771925000000635
                },
                {
                    "name": "G2",
                    "midi": 43,
                    "time": 111.75432450000064,
                    "velocity": 0.33070866141732286,
                    "duration": 0.08771925000000635
                },
                {
                    "name": "A#2",
                    "midi": 46,
                    "time": 111.75432450000064,
                    "velocity": 0.33070866141732286,
                    "duration": 0.08771925000000635
                },
                {
                    "name": "C3",
                    "midi": 48,
                    "time": 111.75432450000064,
                    "velocity": 0.33070866141732286,
                    "duration": 0.08771925000000635
                },
                {
                    "name": "E3",
                    "midi": 52,
                    "time": 111.75432450000064,
                    "velocity": 0.3937007874015748,
                    "duration": 0.08771925000000635
                },
                {
                    "name": "F2",
                    "midi": 41,
                    "time": 111.92976300000065,
                    "velocity": 0.33070866141732286,
                    "duration": 0.08771925000000635
                },
                {
                    "name": "G2",
                    "midi": 43,
                    "time": 111.92976300000065,
                    "velocity": 0.33070866141732286,
                    "duration": 0.08771925000000635
                },
                {
                    "name": "A#2",
                    "midi": 46,
                    "time": 111.92976300000065,
                    "velocity": 0.33070866141732286,
                    "duration": 0.08771925000000635
                },
                {
                    "name": "C3",
                    "midi": 48,
                    "time": 111.92976300000065,
                    "velocity": 0.33070866141732286,
                    "duration": 0.08771925000000635
                },
                {
                    "name": "E3",
                    "midi": 52,
                    "time": 111.92976300000065,
                    "velocity": 0.3937007874015748,
                    "duration": 0.08771925000000635
                },
                {
                    "name": "F2",
                    "midi": 41,
                    "time": 112.10520150000066,
                    "velocity": 0.33070866141732286,
                    "duration": 0.08771925000000635
                },
                {
                    "name": "G2",
                    "midi": 43,
                    "time": 112.10520150000066,
                    "velocity": 0.33070866141732286,
                    "duration": 0.08771925000000635
                },
                {
                    "name": "A#2",
                    "midi": 46,
                    "time": 112.10520150000066,
                    "velocity": 0.33070866141732286,
                    "duration": 0.08771925000000635
                },
                {
                    "name": "C3",
                    "midi": 48,
                    "time": 112.10520150000066,
                    "velocity": 0.33070866141732286,
                    "duration": 0.08771925000000635
                },
                {
                    "name": "E3",
                    "midi": 52,
                    "time": 112.10520150000066,
                    "velocity": 0.3937007874015748,
                    "duration": 0.08771925000000635
                },
                {
                    "name": "F2",
                    "midi": 41,
                    "time": 112.28064000000067,
                    "velocity": 0.4015748031496063,
                    "duration": 0.701753999999994
                },
                {
                    "name": "F3",
                    "midi": 53,
                    "time": 112.28064000000067,
                    "velocity": 0.48031496062992124,
                    "duration": 0.701753999999994
                },
                {
                    "name": "G#2",
                    "midi": 44,
                    "time": 112.98239400000067,
                    "velocity": 0.6220472440944882,
                    "duration": 0.701753999999994
                },
                {
                    "name": "G2",
                    "midi": 43,
                    "time": 113.68414800000066,
                    "velocity": 0.6535433070866141,
                    "duration": 0.5263154999999955
                },
                {
                    "name": "G#2",
                    "midi": 44,
                    "time": 114.21046350000066,
                    "velocity": 0.5511811023622047,
                    "duration": 0.08771925000000635
                },
                {
                    "name": "A#2",
                    "midi": 46,
                    "time": 114.29818275000066,
                    "velocity": 0.5511811023622047,
                    "duration": 0.08771925000000635
                },
                {
                    "name": "D2",
                    "midi": 38,
                    "time": 114.38590200000067,
                    "velocity": 0.6692913385826772,
                    "duration": 0.1754384999999985
                },
                {
                    "name": "E2",
                    "midi": 40,
                    "time": 114.73677900000067,
                    "velocity": 0.6299212598425197,
                    "duration": 0.1754384999999985
                },
                {
                    "name": "F2",
                    "midi": 41,
                    "time": 115.08765600000066,
                    "velocity": 0.7086614173228346,
                    "duration": 0.1754384999999985
                },
                {
                    "name": "C#3",
                    "midi": 49,
                    "time": 115.78941000000066,
                    "velocity": 0.6220472440944882,
                    "duration": 0.701753999999994
                },
                {
                    "name": "C3",
                    "midi": 48,
                    "time": 116.49116400000065,
                    "velocity": 0.6535433070866141,
                    "duration": 0.5263154999999955
                },
                {
                    "name": "C#3",
                    "midi": 49,
                    "time": 117.01747950000065,
                    "velocity": 0.5511811023622047,
                    "duration": 0.08771925000000635
                },
                {
                    "name": "D#3",
                    "midi": 51,
                    "time": 117.10519875000065,
                    "velocity": 0.5511811023622047,
                    "duration": 0.08771925000000635
                },
                {
                    "name": "G2",
                    "midi": 43,
                    "time": 117.19291800000066,
                    "velocity": 0.6692913385826772,
                    "duration": 0.1754384999999985
                },
                {
                    "name": "A2",
                    "midi": 45,
                    "time": 117.54379500000066,
                    "velocity": 0.6299212598425197,
                    "duration": 0.1754384999999985
                },
                {
                    "name": "A#2",
                    "midi": 46,
                    "time": 117.89467200000065,
                    "velocity": 0.7086614173228346,
                    "duration": 0.1754384999999985
                },
                {
                    "name": "F3",
                    "midi": 53,
                    "time": 119.99993400000065,
                    "velocity": 0.6299212598425197,
                    "duration": 0.701753999999994
                },
                {
                    "name": "A#2",
                    "midi": 46,
                    "time": 120.70168800000064,
                    "velocity": 0.7086614173228346,
                    "duration": 0.350876999999997
                },
                {
                    "name": "A#3",
                    "midi": 58,
                    "time": 122.80695000000064,
                    "velocity": 0.6299212598425197,
                    "duration": 0.701753999999994
                },
                {
                    "name": "D#3",
                    "midi": 51,
                    "time": 123.50870400000063,
                    "velocity": 0.7086614173228346,
                    "duration": 0.350876999999997
                },
                {
                    "name": "A#3",
                    "midi": 58,
                    "time": 124.21045800000063,
                    "velocity": 0.6220472440944882,
                    "duration": 0.701753999999994
                },
                {
                    "name": "F#3",
                    "midi": 54,
                    "time": 124.21045800000063,
                    "velocity": 0.5275590551181102,
                    "duration": 0.701753999999994
                },
                {
                    "name": "G#3",
                    "midi": 56,
                    "time": 124.91221200000062,
                    "velocity": 0.6535433070866141,
                    "duration": 0.5263154999999955
                },
                {
                    "name": "F3",
                    "midi": 53,
                    "time": 124.91221200000062,
                    "velocity": 0.5511811023622047,
                    "duration": 0.5263154999999955
                },
                {
                    "name": "F#3",
                    "midi": 54,
                    "time": 125.43852750000062,
                    "velocity": 0.4645669291338583,
                    "duration": 0.09649117500001125
                },
                {
                    "name": "A#3",
                    "midi": 58,
                    "time": 125.43852750000062,
                    "velocity": 0.5511811023622047,
                    "duration": 0.09649117500001125
                },
                {
                    "name": "G#3",
                    "midi": 56,
                    "time": 125.52624675000062,
                    "velocity": 0.4645669291338583,
                    "duration": 0.09649117500001125
                },
                {
                    "name": "B3",
                    "midi": 59,
                    "time": 125.52624675000062,
                    "velocity": 0.5511811023622047,
                    "duration": 0.09649117500001125
                },
                {
                    "name": "C3",
                    "midi": 48,
                    "time": 125.61396600000063,
                    "velocity": 0.5669291338582677,
                    "duration": 0.1754384999999985
                },
                {
                    "name": "D#3",
                    "midi": 51,
                    "time": 125.61396600000063,
                    "velocity": 0.6692913385826772,
                    "duration": 0.1754384999999985
                },
                {
                    "name": "D3",
                    "midi": 50,
                    "time": 125.96484300000063,
                    "velocity": 0.5354330708661418,
                    "duration": 0.1754384999999985
                },
                {
                    "name": "F3",
                    "midi": 53,
                    "time": 125.96484300000063,
                    "velocity": 0.6299212598425197,
                    "duration": 0.1754384999999985
                },
                {
                    "name": "F#3",
                    "midi": 54,
                    "time": 126.31572000000062,
                    "velocity": 0.6535433070866141,
                    "duration": 0.5263154999999955
                },
                {
                    "name": "D#3",
                    "midi": 51,
                    "time": 126.31572000000062,
                    "velocity": 0.5511811023622047,
                    "duration": 0.5263154999999955
                },
                {
                    "name": "F3",
                    "midi": 53,
                    "time": 126.84203550000062,
                    "velocity": 0.4645669291338583,
                    "duration": 0.09649117500001125
                },
                {
                    "name": "G#3",
                    "midi": 56,
                    "time": 126.84203550000062,
                    "velocity": 0.5511811023622047,
                    "duration": 0.09649117500001125
                },
                {
                    "name": "F#3",
                    "midi": 54,
                    "time": 126.92975475000063,
                    "velocity": 0.4645669291338583,
                    "duration": 0.09649117500001125
                },
                {
                    "name": "A#3",
                    "midi": 58,
                    "time": 126.92975475000063,
                    "velocity": 0.5511811023622047,
                    "duration": 0.09649117500001125
                },
                {
                    "name": "A#2",
                    "midi": 46,
                    "time": 127.01747400000063,
                    "velocity": 0.5669291338582677,
                    "duration": 0.1754384999999985
                },
                {
                    "name": "C#3",
                    "midi": 49,
                    "time": 127.01747400000063,
                    "velocity": 0.6692913385826772,
                    "duration": 0.1754384999999985
                },
                {
                    "name": "C3",
                    "midi": 48,
                    "time": 127.36835100000063,
                    "velocity": 0.5354330708661418,
                    "duration": 0.1754384999999985
                },
                {
                    "name": "D#3",
                    "midi": 51,
                    "time": 127.36835100000063,
                    "velocity": 0.6299212598425197,
                    "duration": 0.1754384999999985
                },
                {
                    "name": "C#3",
                    "midi": 49,
                    "time": 127.71922800000063,
                    "velocity": 0.6141732283464567,
                    "duration": 0.1754384999999985
                },
                {
                    "name": "F3",
                    "midi": 53,
                    "time": 127.71922800000063,
                    "velocity": 0.6535433070866141,
                    "duration": 0.1754384999999985
                },
                {
                    "name": "G#3",
                    "midi": 56,
                    "time": 128.07010500000064,
                    "velocity": 0.6535433070866141,
                    "duration": 0.8771925000000067
                },
                {
                    "name": "F3",
                    "midi": 53,
                    "time": 128.07010500000064,
                    "velocity": 0.5511811023622047,
                    "duration": 0.8771925000000067
                },
                {
                    "name": "D#3",
                    "midi": 51,
                    "time": 128.94729750000064,
                    "velocity": 0.47244094488188976,
                    "duration": 0.09649117499998283
                },
                {
                    "name": "F#3",
                    "midi": 54,
                    "time": 128.94729750000064,
                    "velocity": 0.5590551181102362,
                    "duration": 0.09649117499998283
                },
                {
                    "name": "C#3",
                    "midi": 49,
                    "time": 129.03501675000064,
                    "velocity": 0.4409448818897638,
                    "duration": 0.09649117499998283
                },
                {
                    "name": "F3",
                    "midi": 53,
                    "time": 129.03501675000064,
                    "velocity": 0.5275590551181102,
                    "duration": 0.09649117499998283
                },
                {
                    "name": "C3",
                    "midi": 48,
                    "time": 129.12273600000063,
                    "velocity": 0.6141732283464567,
                    "duration": 0.1754384999999843
                },
                {
                    "name": "D#3",
                    "midi": 51,
                    "time": 129.12273600000063,
                    "velocity": 0.6535433070866141,
                    "duration": 0.1754384999999843
                },
                {
                    "name": "F#4",
                    "midi": 66,
                    "time": 129.47361300000063,
                    "velocity": 0.6535433070866141,
                    "duration": 0.8771925000000067
                },
                {
                    "name": "D#4",
                    "midi": 63,
                    "time": 129.47361300000063,
                    "velocity": 0.5511811023622047,
                    "duration": 0.8771925000000067
                },
                {
                    "name": "C#4",
                    "midi": 61,
                    "time": 130.35080550000063,
                    "velocity": 0.47244094488188976,
                    "duration": 0.09649117499998283
                },
                {
                    "name": "F4",
                    "midi": 65,
                    "time": 130.35080550000063,
                    "velocity": 0.5590551181102362,
                    "duration": 0.09649117499998283
                },
                {
                    "name": "C4",
                    "midi": 60,
                    "time": 130.43852475000062,
                    "velocity": 0.4409448818897638,
                    "duration": 0.09649117499998283
                },
                {
                    "name": "D#4",
                    "midi": 63,
                    "time": 130.43852475000062,
                    "velocity": 0.5275590551181102,
                    "duration": 0.09649117499998283
                },
                {
                    "name": "C#4",
                    "midi": 61,
                    "time": 130.52624400000062,
                    "velocity": 0.6535433070866141,
                    "duration": 0.5263154999999813
                },
                {
                    "name": "A#3",
                    "midi": 58,
                    "time": 130.52624400000062,
                    "velocity": 0.5511811023622047,
                    "duration": 0.5263154999999813
                },
                {
                    "name": "G#3",
                    "midi": 56,
                    "time": 131.0525595000006,
                    "velocity": 0.4645669291338583,
                    "duration": 0.1754385000000127
                },
                {
                    "name": "C4",
                    "midi": 60,
                    "time": 131.0525595000006,
                    "velocity": 0.5511811023622047,
                    "duration": 0.1754385000000127
                },
                {
                    "name": "A#3",
                    "midi": 58,
                    "time": 131.2279980000006,
                    "velocity": 0.6535433070866141,
                    "duration": 0.5263155000000097
                },
                {
                    "name": "F#3",
                    "midi": 54,
                    "time": 131.2279980000006,
                    "velocity": 0.5511811023622047,
                    "duration": 0.5263155000000097
                },
                {
                    "name": "F3",
                    "midi": 53,
                    "time": 131.75431350000062,
                    "velocity": 0.4645669291338583,
                    "duration": 0.1754385000000127
                },
                {
                    "name": "G#3",
                    "midi": 56,
                    "time": 131.75431350000062,
                    "velocity": 0.5511811023622047,
                    "duration": 0.1754385000000127
                },
                {
                    "name": "F#3",
                    "midi": 54,
                    "time": 131.92975200000063,
                    "velocity": 0.6535433070866141,
                    "duration": 0.350876999999997
                },
                {
                    "name": "D#3",
                    "midi": 51,
                    "time": 131.92975200000063,
                    "velocity": 0.5511811023622047,
                    "duration": 0.701753999999994
                },
                {
                    "name": "D#4",
                    "midi": 63,
                    "time": 132.28062900000063,
                    "velocity": 0.5511811023622047,
                    "duration": 0.350876999999997
                },
                {
                    "name": "F3",
                    "midi": 53,
                    "time": 132.63150600000063,
                    "velocity": 0.5511811023622047,
                    "duration": 0.1754385000000127
                },
                {
                    "name": "C#4",
                    "midi": 61,
                    "time": 132.63150600000063,
                    "velocity": 0.6535433070866141,
                    "duration": 0.1754385000000127
                },
                {
                    "name": "C4",
                    "midi": 60,
                    "time": 132.98238300000065,
                    "velocity": 0.6220472440944882,
                    "duration": 0.1754385000000127
                },
                {
                    "name": "F3",
                    "midi": 53,
                    "time": 132.98238300000065,
                    "velocity": 0.5275590551181102,
                    "duration": 0.1754385000000127
                },
                {
                    "name": "A#2",
                    "midi": 46,
                    "time": 133.33326000000068,
                    "velocity": 0.48031496062992124,
                    "duration": 0.1754385000000127
                },
                {
                    "name": "A#3",
                    "midi": 58,
                    "time": 133.33326000000068,
                    "velocity": 0.5669291338582677,
                    "duration": 0.1754385000000127
                },
                {
                    "name": "A2",
                    "midi": 45,
                    "time": 133.5086985000007,
                    "velocity": 0.23622047244094488,
                    "duration": 0.08771924999999214
                },
                {
                    "name": "C3",
                    "midi": 48,
                    "time": 133.5086985000007,
                    "velocity": 0.28346456692913385,
                    "duration": 0.08771924999999214
                },
                {
                    "name": "A#2",
                    "midi": 46,
                    "time": 133.68413700000067,
                    "velocity": 0.23622047244094488,
                    "duration": 0.08771924999999214
                },
                {
                    "name": "C#3",
                    "midi": 49,
                    "time": 133.68413700000067,
                    "velocity": 0.28346456692913385,
                    "duration": 0.08771924999999214
                },
                {
                    "name": "C3",
                    "midi": 48,
                    "time": 133.85957550000066,
                    "velocity": 0.23622047244094488,
                    "duration": 0.08771924999999214
                },
                {
                    "name": "D#3",
                    "midi": 51,
                    "time": 133.85957550000066,
                    "velocity": 0.28346456692913385,
                    "duration": 0.08771924999999214
                },
                {
                    "name": "C#3",
                    "midi": 49,
                    "time": 134.03501400000064,
                    "velocity": 0.2677165354330709,
                    "duration": 0.08771924999999214
                },
                {
                    "name": "F3",
                    "midi": 53,
                    "time": 134.03501400000064,
                    "velocity": 0.31496062992125984,
                    "duration": 0.08771924999999214
                },
                {
                    "name": "D#3",
                    "midi": 51,
                    "time": 134.21045250000063,
                    "velocity": 0.2283464566929134,
                    "duration": 0.08771924999999214
                },
                {
                    "name": "F#3",
                    "midi": 54,
                    "time": 134.21045250000063,
                    "velocity": 0.2755905511811024,
                    "duration": 0.08771924999999214
                },
                {
                    "name": "C#3",
                    "midi": 49,
                    "time": 134.3858910000006,
                    "velocity": 0.2283464566929134,
                    "duration": 0.08771924999999214
                },
                {
                    "name": "F3",
                    "midi": 53,
                    "time": 134.3858910000006,
                    "velocity": 0.2755905511811024,
                    "duration": 0.08771924999999214
                },
                {
                    "name": "C3",
                    "midi": 48,
                    "time": 134.5613295000006,
                    "velocity": 0.2283464566929134,
                    "duration": 0.08771924999999214
                },
                {
                    "name": "D#3",
                    "midi": 51,
                    "time": 134.5613295000006,
                    "velocity": 0.2755905511811024,
                    "duration": 0.08771924999999214
                },
                {
                    "name": "A#2",
                    "midi": 46,
                    "time": 134.73676800000058,
                    "velocity": 0.2677165354330709,
                    "duration": 0.08771924999999214
                },
                {
                    "name": "C#3",
                    "midi": 49,
                    "time": 134.73676800000058,
                    "velocity": 0.31496062992125984,
                    "duration": 0.08771924999999214
                },
                {
                    "name": "D3",
                    "midi": 50,
                    "time": 134.91220650000056,
                    "velocity": 0.23622047244094488,
                    "duration": 0.08771924999999214
                },
                {
                    "name": "F3",
                    "midi": 53,
                    "time": 134.91220650000056,
                    "velocity": 0.28346456692913385,
                    "duration": 0.08771924999999214
                },
                {
                    "name": "D#3",
                    "midi": 51,
                    "time": 135.08764500000055,
                    "velocity": 0.23622047244094488,
                    "duration": 0.08771924999999214
                },
                {
                    "name": "F#3",
                    "midi": 54,
                    "time": 135.08764500000055,
                    "velocity": 0.28346456692913385,
                    "duration": 0.08771924999999214
                },
                {
                    "name": "G#3",
                    "midi": 56,
                    "time": 135.26308350000053,
                    "velocity": 0.28346456692913385,
                    "duration": 0.08771924999999214
                },
                {
                    "name": "F3",
                    "midi": 53,
                    "time": 135.26308350000053,
                    "velocity": 0.23622047244094488,
                    "duration": 0.08771924999999214
                },
                {
                    "name": "A#3",
                    "midi": 58,
                    "time": 135.43852200000052,
                    "velocity": 0.31496062992125984,
                    "duration": 0.08771924999999214
                },
                {
                    "name": "F#3",
                    "midi": 54,
                    "time": 135.43852200000052,
                    "velocity": 0.2677165354330709,
                    "duration": 0.08771924999999214
                },
                {
                    "name": "G#3",
                    "midi": 56,
                    "time": 135.6139605000005,
                    "velocity": 0.23622047244094488,
                    "duration": 0.08771924999999214
                },
                {
                    "name": "B3",
                    "midi": 59,
                    "time": 135.6139605000005,
                    "velocity": 0.28346456692913385,
                    "duration": 0.08771924999999214
                },
                {
                    "name": "F#3",
                    "midi": 54,
                    "time": 135.7893990000005,
                    "velocity": 0.23622047244094488,
                    "duration": 0.08771924999999214
                },
                {
                    "name": "A#3",
                    "midi": 58,
                    "time": 135.7893990000005,
                    "velocity": 0.28346456692913385,
                    "duration": 0.08771924999999214
                },
                {
                    "name": "F3",
                    "midi": 53,
                    "time": 135.96483750000047,
                    "velocity": 0.23622047244094488,
                    "duration": 0.08771924999999214
                },
                {
                    "name": "G#3",
                    "midi": 56,
                    "time": 135.96483750000047,
                    "velocity": 0.28346456692913385,
                    "duration": 0.08771924999999214
                },
                {
                    "name": "D#3",
                    "midi": 51,
                    "time": 136.14027600000045,
                    "velocity": 0.2992125984251969,
                    "duration": 0.08771924999999214
                },
                {
                    "name": "F#3",
                    "midi": 54,
                    "time": 136.14027600000045,
                    "velocity": 0.3543307086614173,
                    "duration": 0.08771924999999214
                },
                {
                    "name": "D#3",
                    "midi": 51,
                    "time": 136.31571450000044,
                    "velocity": 0.23622047244094488,
                    "duration": 0.08771924999999214
                },
                {
                    "name": "F#3",
                    "midi": 54,
                    "time": 136.31571450000044,
                    "velocity": 0.28346456692913385,
                    "duration": 0.08771924999999214
                },
                {
                    "name": "E3",
                    "midi": 52,
                    "time": 136.49115300000042,
                    "velocity": 0.23622047244094488,
                    "duration": 0.08771924999999214
                },
                {
                    "name": "G3",
                    "midi": 55,
                    "time": 136.49115300000042,
                    "velocity": 0.28346456692913385,
                    "duration": 0.08771924999999214
                },
                {
                    "name": "E3",
                    "midi": 52,
                    "time": 136.6665915000004,
                    "velocity": 0.23622047244094488,
                    "duration": 0.08771924999999214
                },
                {
                    "name": "G3",
                    "midi": 55,
                    "time": 136.6665915000004,
                    "velocity": 0.28346456692913385,
                    "duration": 0.08771924999999214
                },
                {
                    "name": "F3",
                    "midi": 53,
                    "time": 136.8420300000004,
                    "velocity": 0.30708661417322836,
                    "duration": 0.08771924999999214
                },
                {
                    "name": "A#3",
                    "midi": 58,
                    "time": 136.8420300000004,
                    "velocity": 0.3700787401574803,
                    "duration": 0.08771924999999214
                },
                {
                    "name": "F3",
                    "midi": 53,
                    "time": 137.01746850000038,
                    "velocity": 0.25196850393700787,
                    "duration": 0.08771924999999214
                },
                {
                    "name": "A#3",
                    "midi": 58,
                    "time": 137.01746850000038,
                    "velocity": 0.2992125984251969,
                    "duration": 0.08771924999999214
                },
                {
                    "name": "F3",
                    "midi": 53,
                    "time": 137.19290700000036,
                    "velocity": 0.25196850393700787,
                    "duration": 0.08771924999999214
                },
                {
                    "name": "C4",
                    "midi": 60,
                    "time": 137.19290700000036,
                    "velocity": 0.2992125984251969,
                    "duration": 0.08771924999999214
                },
                {
                    "name": "F3",
                    "midi": 53,
                    "time": 137.36834550000034,
                    "velocity": 0.25196850393700787,
                    "duration": 0.08771924999999214
                },
                {
                    "name": "C4",
                    "midi": 60,
                    "time": 137.36834550000034,
                    "velocity": 0.2992125984251969,
                    "duration": 0.08771924999999214
                },
                {
                    "name": "A#2",
                    "midi": 46,
                    "time": 137.54378400000033,
                    "velocity": 0.4566929133858268,
                    "duration": 0.1754385000000127
                },
                {
                    "name": "A#3",
                    "midi": 58,
                    "time": 137.54378400000033,
                    "velocity": 0.5433070866141733,
                    "duration": 0.1754385000000127
                },
                {
                    "name": "A2",
                    "midi": 45,
                    "time": 137.71922250000034,
                    "velocity": 0.31496062992125984,
                    "duration": 0.08771924999999214
                },
                {
                    "name": "A3",
                    "midi": 57,
                    "time": 137.71922250000034,
                    "velocity": 0.3779527559055118,
                    "duration": 0.08771924999999214
                },
                {
                    "name": "A#2",
                    "midi": 46,
                    "time": 137.89466100000033,
                    "velocity": 0.31496062992125984,
                    "duration": 0.08771924999999214
                },
                {
                    "name": "A#3",
                    "midi": 58,
                    "time": 137.89466100000033,
                    "velocity": 0.3779527559055118,
                    "duration": 0.08771924999999214
                },
                {
                    "name": "C3",
                    "midi": 48,
                    "time": 138.0700995000003,
                    "velocity": 0.31496062992125984,
                    "duration": 0.08771924999999214
                },
                {
                    "name": "C4",
                    "midi": 60,
                    "time": 138.0700995000003,
                    "velocity": 0.3937007874015748,
                    "duration": 0.08771924999999214
                },
                {
                    "name": "C#3",
                    "midi": 49,
                    "time": 138.2455380000003,
                    "velocity": 0.3779527559055118,
                    "duration": 0.08771924999999214
                },
                {
                    "name": "C#4",
                    "midi": 61,
                    "time": 138.2455380000003,
                    "velocity": 0.44881889763779526,
                    "duration": 0.08771924999999214
                },
                {
                    "name": "D#3",
                    "midi": 51,
                    "time": 138.42097650000028,
                    "velocity": 0.33858267716535434,
                    "duration": 0.08771924999999214
                },
                {
                    "name": "D#4",
                    "midi": 63,
                    "time": 138.42097650000028,
                    "velocity": 0.4015748031496063,
                    "duration": 0.08771924999999214
                },
                {
                    "name": "C#3",
                    "midi": 49,
                    "time": 138.59641500000026,
                    "velocity": 0.33858267716535434,
                    "duration": 0.08771924999999214
                },
                {
                    "name": "C#4",
                    "midi": 61,
                    "time": 138.59641500000026,
                    "velocity": 0.41732283464566927,
                    "duration": 0.08771924999999214
                },
                {
                    "name": "C3",
                    "midi": 48,
                    "time": 138.77185350000025,
                    "velocity": 0.33858267716535434,
                    "duration": 0.08771924999999214
                },
                {
                    "name": "C4",
                    "midi": 60,
                    "time": 138.77185350000025,
                    "velocity": 0.4251968503937008,
                    "duration": 0.08771924999999214
                },
                {
                    "name": "A#2",
                    "midi": 46,
                    "time": 138.94729200000023,
                    "velocity": 0.4251968503937008,
                    "duration": 0.08771924999999214
                },
                {
                    "name": "A#3",
                    "midi": 58,
                    "time": 138.94729200000023,
                    "velocity": 0.5039370078740157,
                    "duration": 0.08771924999999214
                },
                {
                    "name": "D3",
                    "midi": 50,
                    "time": 139.12273050000022,
                    "velocity": 0.3779527559055118,
                    "duration": 0.08771924999999214
                },
                {
                    "name": "D4",
                    "midi": 62,
                    "time": 139.12273050000022,
                    "velocity": 0.4566929133858268,
                    "duration": 0.08771924999999214
                },
                {
                    "name": "D#3",
                    "midi": 51,
                    "time": 139.2981690000002,
                    "velocity": 0.3937007874015748,
                    "duration": 0.08771924999999214
                },
                {
                    "name": "D#4",
                    "midi": 63,
                    "time": 139.2981690000002,
                    "velocity": 0.4645669291338583,
                    "duration": 0.08771924999999214
                },
                {
                    "name": "F4",
                    "midi": 65,
                    "time": 139.47360750000018,
                    "velocity": 0.4881889763779528,
                    "duration": 0.08771924999999214
                },
                {
                    "name": "F3",
                    "midi": 53,
                    "time": 139.47360750000018,
                    "velocity": 0.3937007874015748,
                    "duration": 0.08771924999999214
                },
                {
                    "name": "F#4",
                    "midi": 66,
                    "time": 139.64904600000017,
                    "velocity": 0.5511811023622047,
                    "duration": 0.08771924999999214
                },
                {
                    "name": "F#3",
                    "midi": 54,
                    "time": 139.64904600000017,
                    "velocity": 0.4566929133858268,
                    "duration": 0.08771924999999214
                },
                {
                    "name": "G#3",
                    "midi": 56,
                    "time": 139.82448450000015,
                    "velocity": 0.41732283464566927,
                    "duration": 0.08771924999999214
                },
                {
                    "name": "G#4",
                    "midi": 68,
                    "time": 139.82448450000015,
                    "velocity": 0.5196850393700787,
                    "duration": 0.08771924999999214
                },
                {
                    "name": "F#3",
                    "midi": 54,
                    "time": 139.99992300000014,
                    "velocity": 0.41732283464566927,
                    "duration": 0.08771924999999214
                },
                {
                    "name": "F#4",
                    "midi": 66,
                    "time": 139.99992300000014,
                    "velocity": 0.5196850393700787,
                    "duration": 0.08771924999999214
                },
                {
                    "name": "F3",
                    "midi": 53,
                    "time": 140.17536150000012,
                    "velocity": 0.44881889763779526,
                    "duration": 0.08771924999999214
                },
                {
                    "name": "F4",
                    "midi": 65,
                    "time": 140.17536150000012,
                    "velocity": 0.5433070866141733,
                    "duration": 0.08771924999999214
                },
                {
                    "name": "D#3",
                    "midi": 51,
                    "time": 140.3508000000001,
                    "velocity": 0.5826771653543307,
                    "duration": 0.08771924999999214
                },
                {
                    "name": "D#4",
                    "midi": 63,
                    "time": 140.3508000000001,
                    "velocity": 0.6929133858267716,
                    "duration": 0.08771924999999214
                },
                {
                    "name": "D#4",
                    "midi": 63,
                    "time": 140.5262385000001,
                    "velocity": 0.4566929133858268,
                    "duration": 0.08771924999999214
                },
                {
                    "name": "F#4",
                    "midi": 66,
                    "time": 140.5262385000001,
                    "velocity": 0.5433070866141733,
                    "duration": 0.08771924999999214
                },
                {
                    "name": "E4",
                    "midi": 64,
                    "time": 140.70167700000007,
                    "velocity": 0.47244094488188976,
                    "duration": 0.08771924999999214
                },
                {
                    "name": "G4",
                    "midi": 67,
                    "time": 140.70167700000007,
                    "velocity": 0.5669291338582677,
                    "duration": 0.08771924999999214
                },
                {
                    "name": "E4",
                    "midi": 64,
                    "time": 140.87711550000006,
                    "velocity": 0.47244094488188976,
                    "duration": 0.08771924999999214
                },
                {
                    "name": "G4",
                    "midi": 67,
                    "time": 140.87711550000006,
                    "velocity": 0.5669291338582677,
                    "duration": 0.08771924999999214
                },
                {
                    "name": "F4",
                    "midi": 65,
                    "time": 141.05255400000004,
                    "velocity": 0.5748031496062992,
                    "duration": 0.08771924999999214
                },
                {
                    "name": "A#4",
                    "midi": 70,
                    "time": 141.05255400000004,
                    "velocity": 0.7086614173228346,
                    "duration": 0.08771924999999214
                },
                {
                    "name": "F4",
                    "midi": 65,
                    "time": 141.22799250000003,
                    "velocity": 0.5354330708661418,
                    "duration": 0.08771924999999214
                },
                {
                    "name": "A#4",
                    "midi": 70,
                    "time": 141.22799250000003,
                    "velocity": 0.6377952755905512,
                    "duration": 0.08771924999999214
                },
                {
                    "name": "F4",
                    "midi": 65,
                    "time": 141.403431,
                    "velocity": 0.5511811023622047,
                    "duration": 0.08771924999999214
                },
                {
                    "name": "C5",
                    "midi": 72,
                    "time": 141.403431,
                    "velocity": 0.6692913385826772,
                    "duration": 0.08771924999999214
                },
                {
                    "name": "F4",
                    "midi": 65,
                    "time": 141.5788695,
                    "velocity": 0.5590551181102362,
                    "duration": 0.08771924999999214
                },
                {
                    "name": "C5",
                    "midi": 72,
                    "time": 141.5788695,
                    "velocity": 0.6771653543307087,
                    "duration": 0.08771924999999214
                },
                {
                    "name": "A#3",
                    "midi": 58,
                    "time": 141.75430799999998,
                    "velocity": 0.5196850393700787,
                    "duration": 0.08771924999999214
                },
                {
                    "name": "C#4",
                    "midi": 61,
                    "time": 141.75430799999998,
                    "velocity": 0.5196850393700787,
                    "duration": 0.08771924999999214
                },
                {
                    "name": "F4",
                    "midi": 65,
                    "time": 141.75430799999998,
                    "velocity": 0.5196850393700787,
                    "duration": 0.08771924999999214
                },
                {
                    "name": "A#4",
                    "midi": 70,
                    "time": 141.75430799999998,
                    "velocity": 0.6141732283464567,
                    "duration": 0.08771924999999214
                },
                {
                    "name": "A#3",
                    "midi": 58,
                    "time": 141.92974649999996,
                    "velocity": 0.4330708661417323,
                    "duration": 0.08771924999999214
                },
                {
                    "name": "C#4",
                    "midi": 61,
                    "time": 141.92974649999996,
                    "velocity": 0.4330708661417323,
                    "duration": 0.08771924999999214
                },
                {
                    "name": "F4",
                    "midi": 65,
                    "time": 141.92974649999996,
                    "velocity": 0.4330708661417323,
                    "duration": 0.08771924999999214
                },
                {
                    "name": "A#4",
                    "midi": 70,
                    "time": 141.92974649999996,
                    "velocity": 0.5196850393700787,
                    "duration": 0.08771924999999214
                },
                {
                    "name": "A#3",
                    "midi": 58,
                    "time": 142.10518499999995,
                    "velocity": 0.3858267716535433,
                    "duration": 0.08771924999999214
                },
                {
                    "name": "C#4",
                    "midi": 61,
                    "time": 142.10518499999995,
                    "velocity": 0.3858267716535433,
                    "duration": 0.08771924999999214
                },
                {
                    "name": "F4",
                    "midi": 65,
                    "time": 142.10518499999995,
                    "velocity": 0.3858267716535433,
                    "duration": 0.08771924999999214
                },
                {
                    "name": "A#4",
                    "midi": 70,
                    "time": 142.10518499999995,
                    "velocity": 0.4566929133858268,
                    "duration": 0.08771924999999214
                },
                {
                    "name": "A#3",
                    "midi": 58,
                    "time": 142.28062349999993,
                    "velocity": 0.3858267716535433,
                    "duration": 0.08771924999999214
                },
                {
                    "name": "C#4",
                    "midi": 61,
                    "time": 142.28062349999993,
                    "velocity": 0.3858267716535433,
                    "duration": 0.08771924999999214
                },
                {
                    "name": "F4",
                    "midi": 65,
                    "time": 142.28062349999993,
                    "velocity": 0.3858267716535433,
                    "duration": 0.08771924999999214
                },
                {
                    "name": "A#4",
                    "midi": 70,
                    "time": 142.28062349999993,
                    "velocity": 0.4566929133858268,
                    "duration": 0.08771924999999214
                },
                {
                    "name": "A#3",
                    "midi": 58,
                    "time": 142.45606199999992,
                    "velocity": 0.4015748031496063,
                    "duration": 0.08771924999999214
                },
                {
                    "name": "C4",
                    "midi": 60,
                    "time": 142.45606199999992,
                    "velocity": 0.4015748031496063,
                    "duration": 0.08771924999999214
                },
                {
                    "name": "D#4",
                    "midi": 63,
                    "time": 142.45606199999992,
                    "velocity": 0.4015748031496063,
                    "duration": 0.08771924999999214
                },
                {
                    "name": "F4",
                    "midi": 65,
                    "time": 142.45606199999992,
                    "velocity": 0.4015748031496063,
                    "duration": 0.08771924999999214
                },
                {
                    "name": "A4",
                    "midi": 69,
                    "time": 142.45606199999992,
                    "velocity": 0.48031496062992124,
                    "duration": 0.08771924999999214
                },
                {
                    "name": "A#3",
                    "midi": 58,
                    "time": 142.6315004999999,
                    "velocity": 0.3464566929133858,
                    "duration": 0.08771924999999214
                },
                {
                    "name": "C4",
                    "midi": 60,
                    "time": 142.6315004999999,
                    "velocity": 0.3464566929133858,
                    "duration": 0.08771924999999214
                },
                {
                    "name": "D#4",
                    "midi": 63,
                    "time": 142.6315004999999,
                    "velocity": 0.3464566929133858,
                    "duration": 0.08771924999999214
                },
                {
                    "name": "F4",
                    "midi": 65,
                    "time": 142.6315004999999,
                    "velocity": 0.3464566929133858,
                    "duration": 0.08771924999999214
                },
                {
                    "name": "A4",
                    "midi": 69,
                    "time": 142.6315004999999,
                    "velocity": 0.4094488188976378,
                    "duration": 0.08771924999999214
                },
                {
                    "name": "A#3",
                    "midi": 58,
                    "time": 142.8069389999999,
                    "velocity": 0.3464566929133858,
                    "duration": 0.08771924999999214
                },
                {
                    "name": "C4",
                    "midi": 60,
                    "time": 142.8069389999999,
                    "velocity": 0.3464566929133858,
                    "duration": 0.08771924999999214
                },
                {
                    "name": "D#4",
                    "midi": 63,
                    "time": 142.8069389999999,
                    "velocity": 0.3464566929133858,
                    "duration": 0.08771924999999214
                },
                {
                    "name": "F4",
                    "midi": 65,
                    "time": 142.8069389999999,
                    "velocity": 0.3464566929133858,
                    "duration": 0.08771924999999214
                },
                {
                    "name": "A4",
                    "midi": 69,
                    "time": 142.8069389999999,
                    "velocity": 0.4094488188976378,
                    "duration": 0.08771924999999214
                },
                {
                    "name": "A#3",
                    "midi": 58,
                    "time": 142.98237749999987,
                    "velocity": 0.3464566929133858,
                    "duration": 0.08771924999999214
                },
                {
                    "name": "C4",
                    "midi": 60,
                    "time": 142.98237749999987,
                    "velocity": 0.3464566929133858,
                    "duration": 0.08771924999999214
                },
                {
                    "name": "D#4",
                    "midi": 63,
                    "time": 142.98237749999987,
                    "velocity": 0.3464566929133858,
                    "duration": 0.08771924999999214
                },
                {
                    "name": "F4",
                    "midi": 65,
                    "time": 142.98237749999987,
                    "velocity": 0.3464566929133858,
                    "duration": 0.08771924999999214
                },
                {
                    "name": "A4",
                    "midi": 69,
                    "time": 142.98237749999987,
                    "velocity": 0.4094488188976378,
                    "duration": 0.08771924999999214
                },
                {
                    "name": "A#2",
                    "midi": 46,
                    "time": 143.15781599999985,
                    "velocity": 0.4330708661417323,
                    "duration": 0.08771924999999214
                },
                {
                    "name": "C#3",
                    "midi": 49,
                    "time": 143.15781599999985,
                    "velocity": 0.4330708661417323,
                    "duration": 0.08771924999999214
                },
                {
                    "name": "F3",
                    "midi": 53,
                    "time": 143.15781599999985,
                    "velocity": 0.4330708661417323,
                    "duration": 0.08771924999999214
                },
                {
                    "name": "A#3",
                    "midi": 58,
                    "time": 143.15781599999985,
                    "velocity": 0.5196850393700787,
                    "duration": 0.08771924999999214
                },
                {
                    "name": "A#2",
                    "midi": 46,
                    "time": 143.33325449999984,
                    "velocity": 0.4330708661417323,
                    "duration": 0.08771924999999214
                },
                {
                    "name": "C#3",
                    "midi": 49,
                    "time": 143.33325449999984,
                    "velocity": 0.4330708661417323,
                    "duration": 0.08771924999999214
                },
                {
                    "name": "F3",
                    "midi": 53,
                    "time": 143.33325449999984,
                    "velocity": 0.4330708661417323,
                    "duration": 0.08771924999999214
                },
                {
                    "name": "A#3",
                    "midi": 58,
                    "time": 143.33325449999984,
                    "velocity": 0.5196850393700787,
                    "duration": 0.08771924999999214
                },
                {
                    "name": "A#2",
                    "midi": 46,
                    "time": 143.50869299999982,
                    "velocity": 0.3858267716535433,
                    "duration": 0.08771924999999214
                },
                {
                    "name": "C#3",
                    "midi": 49,
                    "time": 143.50869299999982,
                    "velocity": 0.3858267716535433,
                    "duration": 0.08771924999999214
                },
                {
                    "name": "F3",
                    "midi": 53,
                    "time": 143.50869299999982,
                    "velocity": 0.3858267716535433,
                    "duration": 0.08771924999999214
                },
                {
                    "name": "A#3",
                    "midi": 58,
                    "time": 143.50869299999982,
                    "velocity": 0.4566929133858268,
                    "duration": 0.08771924999999214
                },
                {
                    "name": "A#2",
                    "midi": 46,
                    "time": 143.6841314999998,
                    "velocity": 0.3858267716535433,
                    "duration": 0.08771924999999214
                },
                {
                    "name": "C#3",
                    "midi": 49,
                    "time": 143.6841314999998,
                    "velocity": 0.3858267716535433,
                    "duration": 0.08771924999999214
                },
                {
                    "name": "F3",
                    "midi": 53,
                    "time": 143.6841314999998,
                    "velocity": 0.3858267716535433,
                    "duration": 0.08771924999999214
                },
                {
                    "name": "A#3",
                    "midi": 58,
                    "time": 143.6841314999998,
                    "velocity": 0.4566929133858268,
                    "duration": 0.08771924999999214
                },
                {
                    "name": "A#2",
                    "midi": 46,
                    "time": 143.8595699999998,
                    "velocity": 0.4015748031496063,
                    "duration": 0.08771924999999214
                },
                {
                    "name": "C3",
                    "midi": 48,
                    "time": 143.8595699999998,
                    "velocity": 0.4015748031496063,
                    "duration": 0.08771924999999214
                },
                {
                    "name": "D#3",
                    "midi": 51,
                    "time": 143.8595699999998,
                    "velocity": 0.4015748031496063,
                    "duration": 0.08771924999999214
                },
                {
                    "name": "F3",
                    "midi": 53,
                    "time": 143.8595699999998,
                    "velocity": 0.4015748031496063,
                    "duration": 0.08771924999999214
                },
                {
                    "name": "A3",
                    "midi": 57,
                    "time": 143.8595699999998,
                    "velocity": 0.48031496062992124,
                    "duration": 0.08771924999999214
                },
                {
                    "name": "A#2",
                    "midi": 46,
                    "time": 144.03500849999978,
                    "velocity": 0.3464566929133858,
                    "duration": 0.08771924999999214
                },
                {
                    "name": "C3",
                    "midi": 48,
                    "time": 144.03500849999978,
                    "velocity": 0.3464566929133858,
                    "duration": 0.08771924999999214
                },
                {
                    "name": "D#3",
                    "midi": 51,
                    "time": 144.03500849999978,
                    "velocity": 0.3464566929133858,
                    "duration": 0.08771924999999214
                },
                {
                    "name": "F3",
                    "midi": 53,
                    "time": 144.03500849999978,
                    "velocity": 0.3464566929133858,
                    "duration": 0.08771924999999214
                },
                {
                    "name": "A3",
                    "midi": 57,
                    "time": 144.03500849999978,
                    "velocity": 0.4094488188976378,
                    "duration": 0.08771924999999214
                },
                {
                    "name": "A#2",
                    "midi": 46,
                    "time": 144.21044699999976,
                    "velocity": 0.3464566929133858,
                    "duration": 0.08771924999999214
                },
                {
                    "name": "C3",
                    "midi": 48,
                    "time": 144.21044699999976,
                    "velocity": 0.3464566929133858,
                    "duration": 0.08771924999999214
                },
                {
                    "name": "D#3",
                    "midi": 51,
                    "time": 144.21044699999976,
                    "velocity": 0.3464566929133858,
                    "duration": 0.08771924999999214
                },
                {
                    "name": "F3",
                    "midi": 53,
                    "time": 144.21044699999976,
                    "velocity": 0.3464566929133858,
                    "duration": 0.08771924999999214
                },
                {
                    "name": "A3",
                    "midi": 57,
                    "time": 144.21044699999976,
                    "velocity": 0.4094488188976378,
                    "duration": 0.08771924999999214
                },
                {
                    "name": "A#2",
                    "midi": 46,
                    "time": 144.38588549999974,
                    "velocity": 0.3464566929133858,
                    "duration": 0.08771924999999214
                },
                {
                    "name": "C3",
                    "midi": 48,
                    "time": 144.38588549999974,
                    "velocity": 0.3464566929133858,
                    "duration": 0.08771924999999214
                },
                {
                    "name": "D#3",
                    "midi": 51,
                    "time": 144.38588549999974,
                    "velocity": 0.3464566929133858,
                    "duration": 0.08771924999999214
                },
                {
                    "name": "F3",
                    "midi": 53,
                    "time": 144.38588549999974,
                    "velocity": 0.3464566929133858,
                    "duration": 0.08771924999999214
                },
                {
                    "name": "A3",
                    "midi": 57,
                    "time": 144.38588549999974,
                    "velocity": 0.4094488188976378,
                    "duration": 0.08771924999999214
                },
                {
                    "name": "A#2",
                    "midi": 46,
                    "time": 144.56132399999973,
                    "velocity": 0.5039370078740157,
                    "duration": 0.8771925000000067
                },
                {
                    "name": "C#3",
                    "midi": 49,
                    "time": 145.43851649999974,
                    "velocity": 0.3543307086614173,
                    "duration": 0.1929823500000225
                },
                {
                    "name": "D#3",
                    "midi": 51,
                    "time": 145.61395499999975,
                    "velocity": 0.3937007874015748,
                    "duration": 0.1929823500000225
                },
                {
                    "name": "C#3",
                    "midi": 49,
                    "time": 145.78939349999976,
                    "velocity": 0.36220472440944884,
                    "duration": 0.1929823500000225
                },
                {
                    "name": "B2",
                    "midi": 47,
                    "time": 145.96483199999977,
                    "velocity": 0.3937007874015748,
                    "duration": 0.1929823500000225
                },
                {
                    "name": "A#2",
                    "midi": 46,
                    "time": 146.1402704999998,
                    "velocity": 0.36220472440944884,
                    "duration": 0.1929823500000225
                },
                {
                    "name": "G#2",
                    "midi": 44,
                    "time": 146.3157089999998,
                    "velocity": 0.36220472440944884,
                    "duration": 0.1929823500000225
                },
                {
                    "name": "F#2",
                    "midi": 42,
                    "time": 146.4911474999998,
                    "velocity": 0.36220472440944884,
                    "duration": 0.1929823500000225
                },
                {
                    "name": "F2",
                    "midi": 41,
                    "time": 146.66658599999982,
                    "velocity": 0.3937007874015748,
                    "duration": 0.350876999999997
                },
                {
                    "name": "F#2",
                    "midi": 42,
                    "time": 147.01746299999982,
                    "velocity": 0.3700787401574803,
                    "duration": 0.350876999999997
                },
                {
                    "name": "G2",
                    "midi": 43,
                    "time": 147.36833999999982,
                    "velocity": 0.41732283464566927,
                    "duration": 0.350876999999997
                },
                {
                    "name": "G#2",
                    "midi": 44,
                    "time": 147.71921699999982,
                    "velocity": 0.3858267716535433,
                    "duration": 0.5263155000000097
                },
                {
                    "name": "D#3",
                    "midi": 51,
                    "time": 148.24553249999983,
                    "velocity": 0.3543307086614173,
                    "duration": 0.1929823500000225
                },
                {
                    "name": "E3",
                    "midi": 52,
                    "time": 148.42097099999984,
                    "velocity": 0.3937007874015748,
                    "duration": 0.1929823500000225
                },
                {
                    "name": "D#3",
                    "midi": 51,
                    "time": 148.59640949999985,
                    "velocity": 0.36220472440944884,
                    "duration": 0.1929823500000225
                },
                {
                    "name": "C#3",
                    "midi": 49,
                    "time": 148.77184799999986,
                    "velocity": 0.3937007874015748,
                    "duration": 0.1929823500000225
                },
                {
                    "name": "B2",
                    "midi": 47,
                    "time": 148.94728649999988,
                    "velocity": 0.3228346456692913,
                    "duration": 0.1929823500000225
                },
                {
                    "name": "A#2",
                    "midi": 46,
                    "time": 149.1227249999999,
                    "velocity": 0.36220472440944884,
                    "duration": 0.1929823500000225
                },
                {
                    "name": "G#2",
                    "midi": 44,
                    "time": 149.2981634999999,
                    "velocity": 0.31496062992125984,
                    "duration": 0.1929823500000225
                },
                {
                    "name": "G2",
                    "midi": 43,
                    "time": 149.47360199999991,
                    "velocity": 0.3779527559055118,
                    "duration": 0.350876999999997
                },
                {
                    "name": "G#2",
                    "midi": 44,
                    "time": 149.8244789999999,
                    "velocity": 0.31496062992125984,
                    "duration": 0.350876999999997
                },
                {
                    "name": "A2",
                    "midi": 45,
                    "time": 150.1753559999999,
                    "velocity": 0.3543307086614173,
                    "duration": 1.403507999999988
                },
                {
                    "name": "A#2",
                    "midi": 46,
                    "time": 151.5788639999999,
                    "velocity": 0.3543307086614173,
                    "duration": 1.403507999999988
                },
                {
                    "name": "A2",
                    "midi": 45,
                    "time": 152.98237199999988,
                    "velocity": 0.3543307086614173,
                    "duration": 0.350876999999997
                },
                {
                    "name": "G3",
                    "midi": 55,
                    "time": 157.19289599999988,
                    "velocity": 0.2755905511811024,
                    "duration": 0.1754385000000127
                },
                {
                    "name": "D#4",
                    "midi": 63,
                    "time": 157.19289599999988,
                    "velocity": 0.33070866141732286,
                    "duration": 0.1754385000000127
                },
                {
                    "name": "F3",
                    "midi": 53,
                    "time": 157.3683344999999,
                    "velocity": 0.25984251968503935,
                    "duration": 0.1754385000000127
                },
                {
                    "name": "D4",
                    "midi": 62,
                    "time": 157.3683344999999,
                    "velocity": 0.30708661417322836,
                    "duration": 0.1754385000000127
                },
                {
                    "name": "D#3",
                    "midi": 51,
                    "time": 157.5437729999999,
                    "velocity": 0.25984251968503935,
                    "duration": 0.1754385000000127
                },
                {
                    "name": "C4",
                    "midi": 60,
                    "time": 157.5437729999999,
                    "velocity": 0.30708661417322836,
                    "duration": 0.1754385000000127
                },
                {
                    "name": "D3",
                    "midi": 50,
                    "time": 157.71921149999991,
                    "velocity": 0.25984251968503935,
                    "duration": 0.1754385000000127
                },
                {
                    "name": "A#3",
                    "midi": 58,
                    "time": 157.71921149999991,
                    "velocity": 0.30708661417322836,
                    "duration": 0.1754385000000127
                },
                {
                    "name": "C3",
                    "midi": 48,
                    "time": 157.89464999999993,
                    "velocity": 0.2755905511811024,
                    "duration": 0.350876999999997
                },
                {
                    "name": "A3",
                    "midi": 57,
                    "time": 157.89464999999993,
                    "velocity": 0.2755905511811024,
                    "duration": 0.350876999999997
                },
                {
                    "name": "D3",
                    "midi": 50,
                    "time": 158.24552699999992,
                    "velocity": 0.25984251968503935,
                    "duration": 0.350876999999997
                },
                {
                    "name": "A#3",
                    "midi": 58,
                    "time": 158.24552699999992,
                    "velocity": 0.30708661417322836,
                    "duration": 0.350876999999997
                },
                {
                    "name": "G#3",
                    "midi": 56,
                    "time": 158.59640399999992,
                    "velocity": 0.2992125984251969,
                    "duration": 0.350876999999997
                },
                {
                    "name": "B3",
                    "midi": 59,
                    "time": 158.59640399999992,
                    "velocity": 0.3543307086614173,
                    "duration": 0.350876999999997
                },
                {
                    "name": "A3",
                    "midi": 57,
                    "time": 158.94728099999992,
                    "velocity": 0.2677165354330709,
                    "duration": 0.5263155000000097
                },
                {
                    "name": "C4",
                    "midi": 60,
                    "time": 158.94728099999992,
                    "velocity": 0.3228346456692913,
                    "duration": 0.5263155000000097
                },
                {
                    "name": "F#4",
                    "midi": 66,
                    "time": 159.47359649999993,
                    "velocity": 0.2992125984251969,
                    "duration": 0.1754385000000127
                },
                {
                    "name": "A4",
                    "midi": 69,
                    "time": 159.64903499999994,
                    "velocity": 0.33070866141732286,
                    "duration": 0.1754385000000127
                },
                {
                    "name": "G4",
                    "midi": 67,
                    "time": 159.82447349999995,
                    "velocity": 0.30708661417322836,
                    "duration": 0.1754385000000127
                },
                {
                    "name": "F4",
                    "midi": 65,
                    "time": 159.99991199999997,
                    "velocity": 0.33070866141732286,
                    "duration": 0.16081862499999033
                },
                {
                    "name": "G3",
                    "midi": 55,
                    "time": 160.17535049999995,
                    "velocity": 0.25984251968503935,
                    "duration": 0.1754385000000127
                },
                {
                    "name": "D#4",
                    "midi": 63,
                    "time": 160.17535049999995,
                    "velocity": 0.30708661417322836,
                    "duration": 0.1754385000000127
                },
                {
                    "name": "F3",
                    "midi": 53,
                    "time": 160.35078899999996,
                    "velocity": 0.25984251968503935,
                    "duration": 0.1754385000000127
                },
                {
                    "name": "D4",
                    "midi": 62,
                    "time": 160.35078899999996,
                    "velocity": 0.30708661417322836,
                    "duration": 0.1754385000000127
                },
                {
                    "name": "D#3",
                    "midi": 51,
                    "time": 160.52622749999998,
                    "velocity": 0.25984251968503935,
                    "duration": 0.1754385000000127
                },
                {
                    "name": "C4",
                    "midi": 60,
                    "time": 160.52622749999998,
                    "velocity": 0.30708661417322836,
                    "duration": 0.1754385000000127
                },
                {
                    "name": "D3",
                    "midi": 50,
                    "time": 160.701666,
                    "velocity": 0.2755905511811024,
                    "duration": 0.350876999999997
                },
                {
                    "name": "A#3",
                    "midi": 58,
                    "time": 160.701666,
                    "velocity": 0.33070866141732286,
                    "duration": 0.350876999999997
                },
                {
                    "name": "A3",
                    "midi": 57,
                    "time": 161.052543,
                    "velocity": 0.25984251968503935,
                    "duration": 0.350876999999997
                },
                {
                    "name": "C4",
                    "midi": 60,
                    "time": 161.052543,
                    "velocity": 0.30708661417322836,
                    "duration": 0.350876999999997
                },
                {
                    "name": "A3",
                    "midi": 57,
                    "time": 161.40341999999998,
                    "velocity": 0.2992125984251969,
                    "duration": 0.350876999999997
                },
                {
                    "name": "C#4",
                    "midi": 61,
                    "time": 161.40341999999998,
                    "velocity": 0.3543307086614173,
                    "duration": 0.350876999999997
                },
                {
                    "name": "A#3",
                    "midi": 58,
                    "time": 161.75429699999998,
                    "velocity": 0.2677165354330709,
                    "duration": 0.5263155000000097
                },
                {
                    "name": "D4",
                    "midi": 62,
                    "time": 161.75429699999998,
                    "velocity": 0.3228346456692913,
                    "duration": 0.5263155000000097
                },
                {
                    "name": "F4",
                    "midi": 65,
                    "time": 162.2806125,
                    "velocity": 0.33858267716535434,
                    "duration": 0.1754385000000127
                },
                {
                    "name": "B3",
                    "midi": 59,
                    "time": 162.456051,
                    "velocity": 0.2677165354330709,
                    "duration": 0.3508770000000254
                },
                {
                    "name": "G4",
                    "midi": 67,
                    "time": 162.456051,
                    "velocity": 0.3858267716535433,
                    "duration": 0.1754385000000127
                },
                {
                    "name": "D4",
                    "midi": 62,
                    "time": 162.63148950000001,
                    "velocity": 0.3464566929133858,
                    "duration": 0.1754385000000127
                },
                {
                    "name": "C4",
                    "midi": 60,
                    "time": 162.80692800000003,
                    "velocity": 0.29133858267716534,
                    "duration": 0.3508770000000254
                },
                {
                    "name": "F4",
                    "midi": 65,
                    "time": 162.80692800000003,
                    "velocity": 0.4015748031496063,
                    "duration": 0.1754385000000127
                },
                {
                    "name": "D#4",
                    "midi": 63,
                    "time": 162.98236650000004,
                    "velocity": 0.3779527559055118,
                    "duration": 0.1754385000000127
                },
                {
                    "name": "A3",
                    "midi": 57,
                    "time": 163.15780500000005,
                    "velocity": 0.29133858267716534,
                    "duration": 0.3508770000000254
                },
                {
                    "name": "F4",
                    "midi": 65,
                    "time": 163.15780500000005,
                    "velocity": 0.41732283464566927,
                    "duration": 0.1754385000000127
                },
                {
                    "name": "C4",
                    "midi": 60,
                    "time": 163.33324350000007,
                    "velocity": 0.3779527559055118,
                    "duration": 0.1754385000000127
                },
                {
                    "name": "A#3",
                    "midi": 58,
                    "time": 163.50868200000008,
                    "velocity": 0.2992125984251969,
                    "duration": 0.3508770000000254
                },
                {
                    "name": "D#4",
                    "midi": 63,
                    "time": 163.50868200000008,
                    "velocity": 0.41732283464566927,
                    "duration": 0.1754385000000127
                },
                {
                    "name": "D4",
                    "midi": 62,
                    "time": 163.6841205000001,
                    "velocity": 0.3858267716535433,
                    "duration": 0.1754385000000127
                },
                {
                    "name": "B3",
                    "midi": 59,
                    "time": 163.8595590000001,
                    "velocity": 0.2992125984251969,
                    "duration": 0.3508770000000254
                },
                {
                    "name": "G4",
                    "midi": 67,
                    "time": 163.8595590000001,
                    "velocity": 0.4409448818897638,
                    "duration": 0.1754385000000127
                },
                {
                    "name": "D4",
                    "midi": 62,
                    "time": 164.03499750000012,
                    "velocity": 0.3937007874015748,
                    "duration": 0.1754385000000127
                },
                {
                    "name": "C4",
                    "midi": 60,
                    "time": 164.21043600000013,
                    "velocity": 0.30708661417322836,
                    "duration": 0.3508770000000254
                },
                {
                    "name": "F4",
                    "midi": 65,
                    "time": 164.21043600000013,
                    "velocity": 0.4645669291338583,
                    "duration": 0.1754385000000127
                },
                {
                    "name": "D#4",
                    "midi": 63,
                    "time": 164.38587450000014,
                    "velocity": 0.4251968503937008,
                    "duration": 0.1754385000000127
                },
                {
                    "name": "A3",
                    "midi": 57,
                    "time": 164.56131300000015,
                    "velocity": 0.30708661417322836,
                    "duration": 0.3508770000000254
                },
                {
                    "name": "F4",
                    "midi": 65,
                    "time": 164.56131300000015,
                    "velocity": 0.47244094488188976,
                    "duration": 0.1754385000000127
                },
                {
                    "name": "C4",
                    "midi": 60,
                    "time": 164.73675150000017,
                    "velocity": 0.4094488188976378,
                    "duration": 0.1754385000000127
                },
                {
                    "name": "A#3",
                    "midi": 58,
                    "time": 164.91219000000018,
                    "velocity": 0.3937007874015748,
                    "duration": 0.3508770000000254
                },
                {
                    "name": "D#4",
                    "midi": 63,
                    "time": 164.91219000000018,
                    "velocity": 0.4645669291338583,
                    "duration": 0.1754385000000127
                },
                {
                    "name": "D4",
                    "midi": 62,
                    "time": 165.0876285000002,
                    "velocity": 0.41732283464566927,
                    "duration": 0.3508770000000254
                },
                {
                    "name": "A3",
                    "midi": 57,
                    "time": 165.2630670000002,
                    "velocity": 0.3700787401574803,
                    "duration": 0.3508770000000254
                },
                {
                    "name": "C4",
                    "midi": 60,
                    "time": 165.43850550000022,
                    "velocity": 0.47244094488188976,
                    "duration": 0.5263155000000097
                },
                {
                    "name": "G3",
                    "midi": 55,
                    "time": 165.61394400000023,
                    "velocity": 0.5196850393700787,
                    "duration": 0.701753999999994
                },
                {
                    "name": "A#3",
                    "midi": 58,
                    "time": 165.96482100000023,
                    "velocity": 0.47244094488188976,
                    "duration": 0.701753999999994
                },
                {
                    "name": "C3",
                    "midi": 48,
                    "time": 166.31569800000022,
                    "velocity": 0.4881889763779528,
                    "duration": 0.701753999999994
                },
                {
                    "name": "A#3",
                    "midi": 58,
                    "time": 166.66657500000022,
                    "velocity": 0.4566929133858268,
                    "duration": 0.701753999999994
                },
                {
                    "name": "F3",
                    "midi": 53,
                    "time": 167.01745200000022,
                    "velocity": 0.4566929133858268,
                    "duration": 0.701753999999994
                },
                {
                    "name": "A3",
                    "midi": 57,
                    "time": 167.36832900000022,
                    "velocity": 0.3700787401574803,
                    "duration": 0.350876999999997
                },
                {
                    "name": "A#2",
                    "midi": 46,
                    "time": 168.4209600000002,
                    "velocity": 0.33070866141732286,
                    "duration": 0.3508770000000254
                },
                {
                    "name": "F3",
                    "midi": 53,
                    "time": 168.59639850000022,
                    "velocity": 0.2677165354330709,
                    "duration": 0.1754385000000127
                },
                {
                    "name": "D3",
                    "midi": 50,
                    "time": 168.77183700000023,
                    "velocity": 0.2992125984251969,
                    "duration": 0.3508770000000254
                },
                {
                    "name": "F3",
                    "midi": 53,
                    "time": 168.94727550000025,
                    "velocity": 0.2677165354330709,
                    "duration": 0.1754385000000127
                },
                {
                    "name": "D#3",
                    "midi": 51,
                    "time": 169.12271400000026,
                    "velocity": 0.2992125984251969,
                    "duration": 0.1754385000000127
                },
                {
                    "name": "C3",
                    "midi": 48,
                    "time": 169.12271400000026,
                    "velocity": 0.2992125984251969,
                    "duration": 0.3508770000000254
                },
                {
                    "name": "F3",
                    "midi": 53,
                    "time": 169.29815250000027,
                    "velocity": 0.2677165354330709,
                    "duration": 0.1754385000000127
                },
                {
                    "name": "D3",
                    "midi": 50,
                    "time": 169.47359100000028,
                    "velocity": 0.29133858267716534,
                    "duration": 0.1754385000000127
                },
                {
                    "name": "A#2",
                    "midi": 46,
                    "time": 169.47359100000028,
                    "velocity": 0.29133858267716534,
                    "duration": 0.3508770000000254
                },
                {
                    "name": "F3",
                    "midi": 53,
                    "time": 169.6490295000003,
                    "velocity": 0.2677165354330709,
                    "duration": 0.1754385000000127
                },
                {
                    "name": "A2",
                    "midi": 45,
                    "time": 169.8244680000003,
                    "velocity": 0.33858267716535434,
                    "duration": 1.4035079999999027
                },
                {
                    "name": "D#3",
                    "midi": 51,
                    "time": 169.8244680000003,
                    "velocity": 0.33858267716535434,
                    "duration": 1.4035079999999027
                },
                {
                    "name": "F3",
                    "midi": 53,
                    "time": 169.99990650000032,
                    "velocity": 0.2677165354330709,
                    "duration": 0.08771924999999214
                },
                {
                    "name": "F3",
                    "midi": 53,
                    "time": 170.1753450000003,
                    "velocity": 0.2677165354330709,
                    "duration": 0.08771924999999214
                },
                {
                    "name": "F3",
                    "midi": 53,
                    "time": 170.3507835000003,
                    "velocity": 0.2677165354330709,
                    "duration": 0.08771924999999214
                },
                {
                    "name": "F3",
                    "midi": 53,
                    "time": 170.52622200000027,
                    "velocity": 0.29133858267716534,
                    "duration": 0.08771924999999214
                },
                {
                    "name": "F3",
                    "midi": 53,
                    "time": 170.70166050000026,
                    "velocity": 0.2677165354330709,
                    "duration": 0.08771924999999214
                },
                {
                    "name": "F3",
                    "midi": 53,
                    "time": 170.87709900000024,
                    "velocity": 0.2677165354330709,
                    "duration": 0.08771924999999214
                },
                {
                    "name": "F3",
                    "midi": 53,
                    "time": 171.05253750000023,
                    "velocity": 0.2677165354330709,
                    "duration": 0.08771924999999214
                },
                {
                    "name": "A2",
                    "midi": 45,
                    "time": 171.2279760000002,
                    "velocity": 0.33070866141732286,
                    "duration": 0.3508770000000254
                },
                {
                    "name": "F3",
                    "midi": 53,
                    "time": 171.40341450000022,
                    "velocity": 0.2677165354330709,
                    "duration": 0.1754385000000127
                },
                {
                    "name": "D#3",
                    "midi": 51,
                    "time": 171.57885300000024,
                    "velocity": 0.2992125984251969,
                    "duration": 0.3508770000000254
                },
                {
                    "name": "F3",
                    "midi": 53,
                    "time": 171.75429150000025,
                    "velocity": 0.2677165354330709,
                    "duration": 0.1754385000000127
                },
                {
                    "name": "D3",
                    "midi": 50,
                    "time": 171.92973000000026,
                    "velocity": 0.2992125984251969,
                    "duration": 0.3508770000000254
                },
                {
                    "name": "F3",
                    "midi": 53,
                    "time": 172.10516850000027,
                    "velocity": 0.2677165354330709,
                    "duration": 0.1754385000000127
                },
                {
                    "name": "A2",
                    "midi": 45,
                    "time": 172.2806070000003,
                    "velocity": 0.29133858267716534,
                    "duration": 0.3508770000000254
                },
                {
                    "name": "F3",
                    "midi": 53,
                    "time": 172.4560455000003,
                    "velocity": 0.2677165354330709,
                    "duration": 0.1754385000000127
                },
                {
                    "name": "A#2",
                    "midi": 46,
                    "time": 172.6314840000003,
                    "velocity": 0.33858267716535434,
                    "duration": 1.0526309999999341
                },
                {
                    "name": "F3",
                    "midi": 53,
                    "time": 172.80692250000033,
                    "velocity": 0.2677165354330709,
                    "duration": 0.08771924999999214
                },
                {
                    "name": "F3",
                    "midi": 53,
                    "time": 172.9823610000003,
                    "velocity": 0.2677165354330709,
                    "duration": 0.08771924999999214
                },
                {
                    "name": "F3",
                    "midi": 53,
                    "time": 173.1577995000003,
                    "velocity": 0.2677165354330709,
                    "duration": 0.08771924999999214
                },
                {
                    "name": "F3",
                    "midi": 53,
                    "time": 173.33323800000028,
                    "velocity": 0.31496062992125984,
                    "duration": 0.08771924999999214
                },
                {
                    "name": "F3",
                    "midi": 53,
                    "time": 173.50867650000026,
                    "velocity": 0.29133858267716534,
                    "duration": 0.08771924999999214
                },
                {
                    "name": "F3",
                    "midi": 53,
                    "time": 173.68411500000025,
                    "velocity": 0.29133858267716534,
                    "duration": 0.08771924999999214
                },
                {
                    "name": "B2",
                    "midi": 47,
                    "time": 173.68411500000025,
                    "velocity": 0.29133858267716534,
                    "duration": 0.3508769999999686
                },
                {
                    "name": "F3",
                    "midi": 53,
                    "time": 173.85955350000023,
                    "velocity": 0.29133858267716534,
                    "duration": 0.08771924999999214
                },
                {
                    "name": "C3",
                    "midi": 48,
                    "time": 174.03499200000022,
                    "velocity": 0.3700787401574803,
                    "duration": 0.3508770000000254
                },
                {
                    "name": "F3",
                    "midi": 53,
                    "time": 174.21043050000023,
                    "velocity": 0.2992125984251969,
                    "duration": 0.1754385000000127
                },
                {
                    "name": "A2",
                    "midi": 45,
                    "time": 174.38586900000024,
                    "velocity": 0.33070866141732286,
                    "duration": 0.3508770000000254
                },
                {
                    "name": "F3",
                    "midi": 53,
                    "time": 174.56130750000025,
                    "velocity": 0.2992125984251969,
                    "duration": 0.1754385000000127
                },
                {
                    "name": "A#2",
                    "midi": 46,
                    "time": 174.73674600000027,
                    "velocity": 0.3700787401574803,
                    "duration": 0.3508770000000254
                },
                {
                    "name": "F3",
                    "midi": 53,
                    "time": 174.91218450000028,
                    "velocity": 0.2992125984251969,
                    "duration": 0.1754385000000127
                },
                {
                    "name": "B2",
                    "midi": 47,
                    "time": 175.0876230000003,
                    "velocity": 0.33858267716535434,
                    "duration": 0.3508770000000254
                },
                {
                    "name": "F3",
                    "midi": 53,
                    "time": 175.2630615000003,
                    "velocity": 0.30708661417322836,
                    "duration": 0.1754385000000127
                },
                {
                    "name": "C3",
                    "midi": 48,
                    "time": 175.43850000000032,
                    "velocity": 0.4251968503937008,
                    "duration": 0.3508770000000254
                },
                {
                    "name": "F3",
                    "midi": 53,
                    "time": 175.61393850000033,
                    "velocity": 0.30708661417322836,
                    "duration": 0.1754385000000127
                },
                {
                    "name": "A2",
                    "midi": 45,
                    "time": 175.78937700000034,
                    "velocity": 0.3858267716535433,
                    "duration": 0.3508770000000254
                },
                {
                    "name": "F3",
                    "midi": 53,
                    "time": 175.96481550000036,
                    "velocity": 0.30708661417322836,
                    "duration": 0.1754385000000127
                },
                {
                    "name": "A#2",
                    "midi": 46,
                    "time": 176.14025400000037,
                    "velocity": 0.4409448818897638,
                    "duration": 0.3508770000000254
                },
                {
                    "name": "F3",
                    "midi": 53,
                    "time": 176.31569250000038,
                    "velocity": 0.3228346456692913,
                    "duration": 0.1754385000000127
                },
                {
                    "name": "G#2",
                    "midi": 44,
                    "time": 176.4911310000004,
                    "velocity": 0.4015748031496063,
                    "duration": 0.3508770000000254
                },
                {
                    "name": "A#2",
                    "midi": 46,
                    "time": 176.6665695000004,
                    "velocity": 0.3543307086614173,
                    "duration": 0.1754385000000127
                },
                {
                    "name": "G2",
                    "midi": 43,
                    "time": 176.84200800000042,
                    "velocity": 0.4881889763779528,
                    "duration": 0.33625712500000304
                },
                {
                    "name": "A#2",
                    "midi": 46,
                    "time": 177.01744650000043,
                    "velocity": 0.4015748031496063,
                    "duration": 0.1754384999999843
                },
                {
                    "name": "D#2",
                    "midi": 39,
                    "time": 177.19288500000042,
                    "velocity": 0.4566929133858268,
                    "duration": 0.3508770000000254
                },
                {
                    "name": "D#3",
                    "midi": 51,
                    "time": 177.36832350000043,
                    "velocity": 0.4015748031496063,
                    "duration": 0.1754385000000127
                },
                {
                    "name": "F2",
                    "midi": 41,
                    "time": 177.54376200000044,
                    "velocity": 0.4409448818897638,
                    "duration": 0.33625712500000304
                },
                {
                    "name": "D3",
                    "midi": 50,
                    "time": 177.71920050000045,
                    "velocity": 0.33070866141732286,
                    "duration": 0.1754384999999843
                },
                {
                    "name": "F2",
                    "midi": 41,
                    "time": 177.89463900000044,
                    "velocity": 0.3858267716535433,
                    "duration": 0.3508770000000254
                },
                {
                    "name": "A2",
                    "midi": 45,
                    "time": 178.07007750000045,
                    "velocity": 0.33858267716535434,
                    "duration": 0.1754385000000127
                },
                {
                    "name": "A#1",
                    "midi": 34,
                    "time": 178.24551600000046,
                    "velocity": 0.33858267716535434,
                    "duration": 0.1754385000000127
                },
                {
                    "name": "A#2",
                    "midi": 46,
                    "time": 178.42095450000048,
                    "velocity": 0.2283464566929134,
                    "duration": 0.8771924999999499
                },
                {
                    "name": "A#3",
                    "midi": 58,
                    "time": 178.5963930000005,
                    "velocity": 0.2755905511811024,
                    "duration": 0.08771924999999214
                },
                {
                    "name": "A#3",
                    "midi": 58,
                    "time": 178.77183150000047,
                    "velocity": 0.2283464566929134,
                    "duration": 0.08771924999999214
                },
                {
                    "name": "A#3",
                    "midi": 58,
                    "time": 178.94727000000046,
                    "velocity": 0.29133858267716534,
                    "duration": 0.08771924999999214
                },
                {
                    "name": "A#3",
                    "midi": 58,
                    "time": 179.12270850000044,
                    "velocity": 0.2755905511811024,
                    "duration": 0.08771924999999214
                },
                {
                    "name": "G#3",
                    "midi": 56,
                    "time": 179.29814700000043,
                    "velocity": 0.33858267716535434,
                    "duration": 0.3508770000000254
                },
                {
                    "name": "A#3",
                    "midi": 58,
                    "time": 179.47358550000044,
                    "velocity": 0.30708661417322836,
                    "duration": 0.1754385000000127
                },
                {
                    "name": "G3",
                    "midi": 55,
                    "time": 179.64902400000045,
                    "velocity": 0.4094488188976378,
                    "duration": 0.3508770000000254
                },
                {
                    "name": "A#3",
                    "midi": 58,
                    "time": 179.82446250000046,
                    "velocity": 0.36220472440944884,
                    "duration": 0.1754385000000127
                },
                {
                    "name": "D#3",
                    "midi": 51,
                    "time": 179.99990100000048,
                    "velocity": 0.4409448818897638,
                    "duration": 0.3508770000000254
                },
                {
                    "name": "D#4",
                    "midi": 63,
                    "time": 180.1753395000005,
                    "velocity": 0.3937007874015748,
                    "duration": 0.1754385000000127
                },
                {
                    "name": "F3",
                    "midi": 53,
                    "time": 180.3507780000005,
                    "velocity": 0.2755905511811024,
                    "duration": 0.33625712500000304
                },
                {
                    "name": "D4",
                    "midi": 62,
                    "time": 180.52621650000052,
                    "velocity": 0.2283464566929134,
                    "duration": 0.1754384999999843
                },
                {
                    "name": "F3",
                    "midi": 53,
                    "time": 180.7016550000005,
                    "velocity": 0.2755905511811024,
                    "duration": 0.3508770000000254
                },
                {
                    "name": "A3",
                    "midi": 57,
                    "time": 180.8770935000005,
                    "velocity": 0.2283464566929134,
                    "duration": 0.1754385000000127
                },
                {
                    "name": "A#2",
                    "midi": 46,
                    "time": 181.05253200000053,
                    "velocity": 0.25984251968503935,
                    "duration": 0.350876999999997
                },
                {
                    "name": "A#3",
                    "midi": 58,
                    "time": 181.05253200000053,
                    "velocity": 0.30708661417322836,
                    "duration": 0.350876999999997
                },
                {
                    "name": "A#3",
                    "midi": 58,
                    "time": 181.75428600000052,
                    "velocity": 0.3937007874015748,
                    "duration": 0.701753999999994
                },
                {
                    "name": "D4",
                    "midi": 62,
                    "time": 181.75428600000052,
                    "velocity": 0.47244094488188976,
                    "duration": 0.701753999999994
                },
                {
                    "name": "D#3",
                    "midi": 51,
                    "time": 182.4560400000005,
                    "velocity": 0.2992125984251969,
                    "duration": 1.052630999999991
                },
                {
                    "name": "C4",
                    "midi": 60,
                    "time": 182.4560400000005,
                    "velocity": 0.3543307086614173,
                    "duration": 1.052630999999991
                },
                {
                    "name": "F3",
                    "midi": 53,
                    "time": 183.5086710000005,
                    "velocity": 0.2677165354330709,
                    "duration": 0.350876999999997
                },
                {
                    "name": "C4",
                    "midi": 60,
                    "time": 183.5086710000005,
                    "velocity": 0.3228346456692913,
                    "duration": 0.350876999999997
                },
                {
                    "name": "A#2",
                    "midi": 46,
                    "time": 183.8595480000005,
                    "velocity": 0.33070866141732286,
                    "duration": 0.687134125
                },
                {
                    "name": "A#3",
                    "midi": 58,
                    "time": 183.8595480000005,
                    "velocity": 0.3937007874015748,
                    "duration": 0.687134125
                },
                {
                    "name": "A#3",
                    "midi": 58,
                    "time": 184.5613020000005,
                    "velocity": 0.3937007874015748,
                    "duration": 0.701753999999994
                },
                {
                    "name": "D4",
                    "midi": 62,
                    "time": 184.5613020000005,
                    "velocity": 0.47244094488188976,
                    "duration": 0.701753999999994
                },
                {
                    "name": "E3",
                    "midi": 52,
                    "time": 185.2630560000005,
                    "velocity": 0.3228346456692913,
                    "duration": 0.701753999999994
                },
                {
                    "name": "G3",
                    "midi": 55,
                    "time": 185.2630560000005,
                    "velocity": 0.3228346456692913,
                    "duration": 0.701753999999994
                },
                {
                    "name": "C3",
                    "midi": 48,
                    "time": 185.96481000000048,
                    "velocity": 0.3228346456692913,
                    "duration": 0.701753999999994
                },
                {
                    "name": "C4",
                    "midi": 60,
                    "time": 185.96481000000048,
                    "velocity": 0.3228346456692913,
                    "duration": 0.701753999999994
                },
                {
                    "name": "F3",
                    "midi": 53,
                    "time": 186.66656400000048,
                    "velocity": 0.33070866141732286,
                    "duration": 0.701753999999994
                },
                {
                    "name": "C4",
                    "midi": 60,
                    "time": 186.66656400000048,
                    "velocity": 0.3937007874015748,
                    "duration": 0.701753999999994
                },
                {
                    "name": "A#3",
                    "midi": 58,
                    "time": 187.36831800000047,
                    "velocity": 0.3937007874015748,
                    "duration": 0.701753999999994
                },
                {
                    "name": "D4",
                    "midi": 62,
                    "time": 187.36831800000047,
                    "velocity": 0.47244094488188976,
                    "duration": 0.701753999999994
                },
                {
                    "name": "A3",
                    "midi": 57,
                    "time": 188.07007200000047,
                    "velocity": 0.3228346456692913,
                    "duration": 0.701753999999994
                },
                {
                    "name": "C4",
                    "midi": 60,
                    "time": 188.07007200000047,
                    "velocity": 0.3228346456692913,
                    "duration": 0.701753999999994
                },
                {
                    "name": "F3",
                    "midi": 53,
                    "time": 188.77182600000046,
                    "velocity": 0.3228346456692913,
                    "duration": 0.701753999999994
                },
                {
                    "name": "F4",
                    "midi": 65,
                    "time": 188.77182600000046,
                    "velocity": 0.3228346456692913,
                    "duration": 0.701753999999994
                },
                {
                    "name": "A#3",
                    "midi": 58,
                    "time": 189.47358000000045,
                    "velocity": 0.33070866141732286,
                    "duration": 0.687134125
                },
                {
                    "name": "F4",
                    "midi": 65,
                    "time": 189.47358000000045,
                    "velocity": 0.3937007874015748,
                    "duration": 0.687134125
                },
                {
                    "name": "D3",
                    "midi": 50,
                    "time": 190.17533400000045,
                    "velocity": 0.4881889763779528,
                    "duration": 0.701753999999994
                },
                {
                    "name": "A#3",
                    "midi": 58,
                    "time": 190.26305325000044,
                    "velocity": 0.4094488188976378,
                    "duration": 0.6140347500000018
                },
                {
                    "name": "D4",
                    "midi": 62,
                    "time": 190.35077250000043,
                    "velocity": 0.4251968503937008,
                    "duration": 0.5263155000000097
                },
                {
                    "name": "D#3",
                    "midi": 51,
                    "time": 190.87708800000044,
                    "velocity": 0.5433070866141733,
                    "duration": 0.701753999999994
                },
                {
                    "name": "A#3",
                    "midi": 58,
                    "time": 190.96480725000043,
                    "velocity": 0.4566929133858268,
                    "duration": 0.6140347500000018
                },
                {
                    "name": "D4",
                    "midi": 62,
                    "time": 191.05252650000043,
                    "velocity": 0.47244094488188976,
                    "duration": 0.5263155000000097
                },
                {
                    "name": "F3",
                    "midi": 53,
                    "time": 191.57884200000044,
                    "velocity": 0.5748031496062992,
                    "duration": 0.701753999999994
                },
                {
                    "name": "A#3",
                    "midi": 58,
                    "time": 191.66656125000043,
                    "velocity": 0.48031496062992124,
                    "duration": 0.6140347500000018
                },
                {
                    "name": "D4",
                    "midi": 62,
                    "time": 191.75428050000042,
                    "velocity": 0.5039370078740157,
                    "duration": 0.5263155000000097
                },
                {
                    "name": "G3",
                    "midi": 55,
                    "time": 192.28059600000043,
                    "velocity": 0.6062992125984252,
                    "duration": 0.701753999999994
                },
                {
                    "name": "A#3",
                    "midi": 58,
                    "time": 192.36831525000042,
                    "velocity": 0.5039370078740157,
                    "duration": 0.6140347500000018
                },
                {
                    "name": "D4",
                    "midi": 62,
                    "time": 192.4560345000004,
                    "velocity": 0.5354330708661418,
                    "duration": 0.5263155000000097
                },
                {
                    "name": "D4",
                    "midi": 62,
                    "time": 192.98235000000042,
                    "velocity": 0.4566929133858268,
                    "duration": 0.350876999999997
                },
                {
                    "name": "F4",
                    "midi": 65,
                    "time": 192.98235000000042,
                    "velocity": 0.4566929133858268,
                    "duration": 0.350876999999997
                },
                {
                    "name": "A#4",
                    "midi": 70,
                    "time": 192.98235000000042,
                    "velocity": 0.5433070866141733,
                    "duration": 0.33625712500000304
                },
                {
                    "name": "E4",
                    "midi": 64,
                    "time": 193.33322700000042,
                    "velocity": 0.4566929133858268,
                    "duration": 0.350876999999997
                },
                {
                    "name": "G4",
                    "midi": 67,
                    "time": 193.33322700000042,
                    "velocity": 0.4566929133858268,
                    "duration": 0.350876999999997
                },
                {
                    "name": "A#4",
                    "midi": 70,
                    "time": 193.33322700000042,
                    "velocity": 0.5039370078740157,
                    "duration": 0.701753999999994
                },
                {
                    "name": "F4",
                    "midi": 65,
                    "time": 193.68410400000042,
                    "velocity": 0.4645669291338583,
                    "duration": 0.7017540000000224
                },
                {
                    "name": "A4",
                    "midi": 69,
                    "time": 194.0349810000004,
                    "velocity": 0.49606299212598426,
                    "duration": 0.1754385000000127
                },
                {
                    "name": "A#3",
                    "midi": 58,
                    "time": 194.38585800000044,
                    "velocity": 0.4566929133858268,
                    "duration": 0.350876999999997
                },
                {
                    "name": "D4",
                    "midi": 62,
                    "time": 194.38585800000044,
                    "velocity": 0.4566929133858268,
                    "duration": 0.350876999999997
                },
                {
                    "name": "G4",
                    "midi": 67,
                    "time": 194.38585800000044,
                    "velocity": 0.5433070866141733,
                    "duration": 0.33625712500000304
                },
                {
                    "name": "C#4",
                    "midi": 61,
                    "time": 194.73673500000044,
                    "velocity": 0.4330708661417323,
                    "duration": 0.350876999999997
                },
                {
                    "name": "E4",
                    "midi": 64,
                    "time": 194.73673500000044,
                    "velocity": 0.4330708661417323,
                    "duration": 0.701753999999994
                },
                {
                    "name": "G4",
                    "midi": 67,
                    "time": 194.73673500000044,
                    "velocity": 0.5039370078740157,
                    "duration": 0.701753999999994
                },
                {
                    "name": "D4",
                    "midi": 62,
                    "time": 195.08761200000043,
                    "velocity": 0.4645669291338583,
                    "duration": 0.5263155000000097
                },
                {
                    "name": "F4",
                    "midi": 65,
                    "time": 195.43848900000043,
                    "velocity": 0.49606299212598426,
                    "duration": 0.1754385000000127
                },
                {
                    "name": "G3",
                    "midi": 55,
                    "time": 195.78936600000046,
                    "velocity": 0.4566929133858268,
                    "duration": 0.350876999999997
                },
                {
                    "name": "A#3",
                    "midi": 58,
                    "time": 195.78936600000046,
                    "velocity": 0.4566929133858268,
                    "duration": 0.350876999999997
                },
                {
                    "name": "D#4",
                    "midi": 63,
                    "time": 195.78936600000046,
                    "velocity": 0.5433070866141733,
                    "duration": 0.350876999999997
                },
                {
                    "name": "A3",
                    "midi": 57,
                    "time": 196.14024300000045,
                    "velocity": 0.4566929133858268,
                    "duration": 0.350876999999997
                },
                {
                    "name": "C4",
                    "midi": 60,
                    "time": 196.14024300000045,
                    "velocity": 0.4566929133858268,
                    "duration": 0.350876999999997
                },
                {
                    "name": "D#4",
                    "midi": 63,
                    "time": 196.14024300000045,
                    "velocity": 0.5039370078740157,
                    "duration": 0.7017540000000224
                },
                {
                    "name": "A#3",
                    "midi": 58,
                    "time": 196.49112000000045,
                    "velocity": 0.5354330708661418,
                    "duration": 0.3508770000000254
                },
                {
                    "name": "D4",
                    "midi": 62,
                    "time": 196.66655850000046,
                    "velocity": 0.4566929133858268,
                    "duration": 0.3508770000000254
                },
                {
                    "name": "D#3",
                    "midi": 51,
                    "time": 196.84199700000048,
                    "velocity": 0.3858267716535433,
                    "duration": 0.3508770000000254
                },
                {
                    "name": "C4",
                    "midi": 60,
                    "time": 197.0174355000005,
                    "velocity": 0.5196850393700787,
                    "duration": 0.3508770000000254
                },
                {
                    "name": "F3",
                    "midi": 53,
                    "time": 197.1928740000005,
                    "velocity": 0.4409448818897638,
                    "duration": 0.33625712500000304
                },
                {
                    "name": "A#3",
                    "midi": 58,
                    "time": 197.3683125000005,
                    "velocity": 0.4645669291338583,
                    "duration": 0.350876999999997
                },
                {
                    "name": "F3",
                    "midi": 53,
                    "time": 197.5437510000005,
                    "velocity": 0.3858267716535433,
                    "duration": 0.3508770000000254
                },
                {
                    "name": "A3",
                    "midi": 57,
                    "time": 197.7191895000005,
                    "velocity": 0.4645669291338583,
                    "duration": 0.5263155000000097
                },
                {
                    "name": "A#2",
                    "midi": 46,
                    "time": 197.89462800000052,
                    "velocity": 0.4409448818897638,
                    "duration": 0.5263155000000097
                },
                {
                    "name": "A#3",
                    "midi": 58,
                    "time": 198.24550500000052,
                    "velocity": 0.5196850393700787,
                    "duration": 0.1754385000000127
                },
                {
                    "name": "A#2",
                    "midi": 46,
                    "time": 198.59638200000055,
                    "velocity": 0.49606299212598426,
                    "duration": 0.701753999999994
                },
                {
                    "name": "F3",
                    "midi": 53,
                    "time": 198.59638200000055,
                    "velocity": 0.49606299212598426,
                    "duration": 0.350876999999997
                },
                {
                    "name": "G3",
                    "midi": 55,
                    "time": 198.94725900000054,
                    "velocity": 0.44881889763779526,
                    "duration": 0.701753999999994
                },
                {
                    "name": "A2",
                    "midi": 45,
                    "time": 199.29813600000054,
                    "velocity": 0.5354330708661418,
                    "duration": 0.7017540000000224
                },
                {
                    "name": "A3",
                    "midi": 57,
                    "time": 199.64901300000054,
                    "velocity": 0.49606299212598426,
                    "duration": 0.1754385000000127
                },
                {
                    "name": "G2",
                    "midi": 43,
                    "time": 199.99989000000056,
                    "velocity": 0.49606299212598426,
                    "duration": 0.701753999999994
                },
                {
                    "name": "D3",
                    "midi": 50,
                    "time": 199.99989000000056,
                    "velocity": 0.49606299212598426,
                    "duration": 0.350876999999997
                },
                {
                    "name": "E3",
                    "midi": 52,
                    "time": 200.35076700000056,
                    "velocity": 0.44881889763779526,
                    "duration": 0.701753999999994
                },
                {
                    "name": "F2",
                    "midi": 41,
                    "time": 200.70164400000056,
                    "velocity": 0.5354330708661418,
                    "duration": 0.7017540000000224
                },
                {
                    "name": "F3",
                    "midi": 53,
                    "time": 201.05252100000055,
                    "velocity": 0.49606299212598426,
                    "duration": 0.1754385000000127
                },
                {
                    "name": "D#2",
                    "midi": 39,
                    "time": 201.40339800000058,
                    "velocity": 0.5354330708661418,
                    "duration": 0.701753999999994
                },
                {
                    "name": "A#2",
                    "midi": 46,
                    "time": 201.40339800000058,
                    "velocity": 0.49606299212598426,
                    "duration": 0.350876999999997
                },
                {
                    "name": "C3",
                    "midi": 48,
                    "time": 201.75427500000058,
                    "velocity": 0.44881889763779526,
                    "duration": 0.350876999999997
                },
                {
                    "name": "F3",
                    "midi": 53,
                    "time": 202.10515200000057,
                    "velocity": 0.4409448818897638,
                    "duration": 0.350876999999997
                },
                {
                    "name": "D2",
                    "midi": 38,
                    "time": 202.10515200000057,
                    "velocity": 0.5354330708661418,
                    "duration": 0.350876999999997
                },
                {
                    "name": "D#2",
                    "midi": 39,
                    "time": 202.45602900000057,
                    "velocity": 0.5433070866141733,
                    "duration": 0.350876999999997
                },
                {
                    "name": "A#3",
                    "midi": 58,
                    "time": 202.80690600000057,
                    "velocity": 0.5354330708661418,
                    "duration": 0.350876999999997
                },
                {
                    "name": "F3",
                    "midi": 53,
                    "time": 202.80690600000057,
                    "velocity": 0.5354330708661418,
                    "duration": 0.350876999999997
                },
                {
                    "name": "F2",
                    "midi": 41,
                    "time": 202.80690600000057,
                    "velocity": 0.5748031496062992,
                    "duration": 0.350876999999997
                },
                {
                    "name": "A3",
                    "midi": 57,
                    "time": 203.15778300000056,
                    "velocity": 0.5669291338582677,
                    "duration": 0.350876999999997
                },
                {
                    "name": "D#3",
                    "midi": 51,
                    "time": 203.15778300000056,
                    "velocity": 0.5669291338582677,
                    "duration": 0.350876999999997
                },
                {
                    "name": "F1",
                    "midi": 29,
                    "time": 203.15778300000056,
                    "velocity": 0.6220472440944882,
                    "duration": 0.350876999999997
                },
                {
                    "name": "A#1",
                    "midi": 34,
                    "time": 203.50866000000056,
                    "velocity": 0.6535433070866141,
                    "duration": 0.350876999999997
                },
                {
                    "name": "A#2",
                    "midi": 46,
                    "time": 203.85953700000056,
                    "velocity": 0.36220472440944884,
                    "duration": 1.052630999999991
                },
                {
                    "name": "D3",
                    "midi": 50,
                    "time": 204.21041400000055,
                    "velocity": 0.36220472440944884,
                    "duration": 0.701753999999994
                },
                {
                    "name": "F3",
                    "midi": 53,
                    "time": 204.56129100000055,
                    "velocity": 0.36220472440944884,
                    "duration": 0.350876999999997
                },
                {
                    "name": "A#2",
                    "midi": 46,
                    "time": 204.91216800000055,
                    "velocity": 0.4251968503937008,
                    "duration": 1.403507999999988
                },
                {
                    "name": "C3",
                    "midi": 48,
                    "time": 204.91216800000055,
                    "velocity": 0.4251968503937008,
                    "duration": 1.403507999999988
                },
                {
                    "name": "D#3",
                    "midi": 51,
                    "time": 205.26304500000055,
                    "velocity": 0.3700787401574803,
                    "duration": 1.052630999999991
                },
                {
                    "name": "F3",
                    "midi": 53,
                    "time": 205.61392200000054,
                    "velocity": 0.3700787401574803,
                    "duration": 0.701753999999994
                },
                {
                    "name": "A3",
                    "midi": 57,
                    "time": 205.96479900000054,
                    "velocity": 0.3700787401574803,
                    "duration": 0.350876999999997
                },
                {
                    "name": "A#1",
                    "midi": 34,
                    "time": 206.31567600000054,
                    "velocity": 0.5039370078740157,
                    "duration": 0.350876999999997
                },
                {
                    "name": "A#2",
                    "midi": 46,
                    "time": 206.66655300000053,
                    "velocity": 0.36220472440944884,
                    "duration": 1.052630999999991
                },
                {
                    "name": "D3",
                    "midi": 50,
                    "time": 207.01743000000053,
                    "velocity": 0.36220472440944884,
                    "duration": 0.701753999999994
                },
                {
                    "name": "F3",
                    "midi": 53,
                    "time": 207.36830700000053,
                    "velocity": 0.36220472440944884,
                    "duration": 0.350876999999997
                },
                {
                    "name": "A#2",
                    "midi": 46,
                    "time": 207.71918400000052,
                    "velocity": 0.4251968503937008,
                    "duration": 1.403507999999988
                },
                {
                    "name": "C3",
                    "midi": 48,
                    "time": 207.71918400000052,
                    "velocity": 0.4251968503937008,
                    "duration": 1.403507999999988
                },
                {
                    "name": "D#3",
                    "midi": 51,
                    "time": 208.07006100000052,
                    "velocity": 0.3700787401574803,
                    "duration": 1.052630999999991
                },
                {
                    "name": "F3",
                    "midi": 53,
                    "time": 208.42093800000052,
                    "velocity": 0.3700787401574803,
                    "duration": 0.701753999999994
                },
                {
                    "name": "A3",
                    "midi": 57,
                    "time": 208.77181500000052,
                    "velocity": 0.3700787401574803,
                    "duration": 0.350876999999997
                },
                {
                    "name": "A#1",
                    "midi": 34,
                    "time": 209.1226920000005,
                    "velocity": 0.5433070866141733,
                    "duration": 0.350876999999997
                },
                {
                    "name": "A#2",
                    "midi": 46,
                    "time": 209.4735690000005,
                    "velocity": 0.4094488188976378,
                    "duration": 1.052630999999991
                },
                {
                    "name": "D3",
                    "midi": 50,
                    "time": 209.8244460000005,
                    "velocity": 0.4094488188976378,
                    "duration": 0.701753999999994
                },
                {
                    "name": "F3",
                    "midi": 53,
                    "time": 210.1753230000005,
                    "velocity": 0.4094488188976378,
                    "duration": 0.350876999999997
                },
                {
                    "name": "G#1",
                    "midi": 32,
                    "time": 210.5262000000005,
                    "velocity": 0.6062992125984252,
                    "duration": 0.350876999999997
                },
                {
                    "name": "G#2",
                    "midi": 44,
                    "time": 210.8770770000005,
                    "velocity": 0.4409448818897638,
                    "duration": 1.052630999999991
                },
                {
                    "name": "D3",
                    "midi": 50,
                    "time": 211.2279540000005,
                    "velocity": 0.4409448818897638,
                    "duration": 0.701753999999994
                },
                {
                    "name": "F3",
                    "midi": 53,
                    "time": 211.5788310000005,
                    "velocity": 0.4409448818897638,
                    "duration": 0.350876999999997
                },
                {
                    "name": "G1",
                    "midi": 31,
                    "time": 211.9297080000005,
                    "velocity": 0.6535433070866141,
                    "duration": 0.350876999999997
                },
                {
                    "name": "G2",
                    "midi": 43,
                    "time": 212.28058500000049,
                    "velocity": 0.44881889763779526,
                    "duration": 1.052630999999991
                },
                {
                    "name": "A#2",
                    "midi": 46,
                    "time": 212.63146200000048,
                    "velocity": 0.44881889763779526,
                    "duration": 0.701753999999994
                },
                {
                    "name": "D#3",
                    "midi": 51,
                    "time": 212.98233900000048,
                    "velocity": 0.44881889763779526,
                    "duration": 0.350876999999997
                },
                {
                    "name": "D2",
                    "midi": 38,
                    "time": 213.33321600000048,
                    "velocity": 0.4645669291338583,
                    "duration": 0.08771924999999214
                },
                {
                    "name": "F2",
                    "midi": 41,
                    "time": 213.42093525000047,
                    "velocity": 0.47244094488188976,
                    "duration": 0.08771924999999214
                },
                {
                    "name": "G#2",
                    "midi": 44,
                    "time": 213.50865450000046,
                    "velocity": 0.48031496062992124,
                    "duration": 0.08771924999999214
                },
                {
                    "name": "A#2",
                    "midi": 46,
                    "time": 213.59637375000045,
                    "velocity": 0.48031496062992124,
                    "duration": 0.08771924999999214
                },
                {
                    "name": "D3",
                    "midi": 50,
                    "time": 213.68409300000044,
                    "velocity": 0.4881889763779528,
                    "duration": 0.08771924999999214
                },
                {
                    "name": "F3",
                    "midi": 53,
                    "time": 213.77181225000044,
                    "velocity": 0.5039370078740157,
                    "duration": 0.08771924999999214
                },
                {
                    "name": "G#3",
                    "midi": 56,
                    "time": 213.85953150000043,
                    "velocity": 0.5118110236220472,
                    "duration": 0.08771924999999214
                },
                {
                    "name": "A#3",
                    "midi": 58,
                    "time": 213.94725075000042,
                    "velocity": 0.5196850393700787,
                    "duration": 0.08771924999999214
                },
                {
                    "name": "D#4",
                    "midi": 63,
                    "time": 214.7367240000004,
                    "velocity": 0.33070866141732286,
                    "duration": 0.3508770000000254
                },
                {
                    "name": "A#4",
                    "midi": 70,
                    "time": 214.91216250000042,
                    "velocity": 0.2677165354330709,
                    "duration": 0.1754385000000127
                },
                {
                    "name": "G4",
                    "midi": 67,
                    "time": 215.08760100000043,
                    "velocity": 0.2992125984251969,
                    "duration": 0.3508770000000254
                },
                {
                    "name": "A#4",
                    "midi": 70,
                    "time": 215.26303950000045,
                    "velocity": 0.2677165354330709,
                    "duration": 0.1754385000000127
                },
                {
                    "name": "G#4",
                    "midi": 68,
                    "time": 215.43847800000046,
                    "velocity": 0.2992125984251969,
                    "duration": 0.1754385000000127
                },
                {
                    "name": "F4",
                    "midi": 65,
                    "time": 215.43847800000046,
                    "velocity": 0.2992125984251969,
                    "duration": 0.3508770000000254
                },
                {
                    "name": "A#4",
                    "midi": 70,
                    "time": 215.61391650000047,
                    "velocity": 0.2677165354330709,
                    "duration": 0.1754385000000127
                },
                {
                    "name": "G4",
                    "midi": 67,
                    "time": 215.78935500000048,
                    "velocity": 0.29133858267716534,
                    "duration": 0.1754385000000127
                },
                {
                    "name": "D#4",
                    "midi": 63,
                    "time": 215.78935500000048,
                    "velocity": 0.29133858267716534,
                    "duration": 0.3508770000000254
                },
                {
                    "name": "A#4",
                    "midi": 70,
                    "time": 215.9647935000005,
                    "velocity": 0.2677165354330709,
                    "duration": 0.1754385000000127
                },
                {
                    "name": "D4",
                    "midi": 62,
                    "time": 216.1402320000005,
                    "velocity": 0.33858267716535434,
                    "duration": 1.4035079999999027
                },
                {
                    "name": "G#4",
                    "midi": 68,
                    "time": 216.1402320000005,
                    "velocity": 0.33858267716535434,
                    "duration": 1.4035079999999027
                },
                {
                    "name": "A#4",
                    "midi": 70,
                    "time": 216.31567050000052,
                    "velocity": 0.2677165354330709,
                    "duration": 0.08771924999999214
                },
                {
                    "name": "A#4",
                    "midi": 70,
                    "time": 216.4911090000005,
                    "velocity": 0.2677165354330709,
                    "duration": 0.08771924999999214
                },
                {
                    "name": "A#4",
                    "midi": 70,
                    "time": 216.6665475000005,
                    "velocity": 0.2677165354330709,
                    "duration": 0.08771924999999214
                },
                {
                    "name": "A#4",
                    "midi": 70,
                    "time": 216.84198600000047,
                    "velocity": 0.29133858267716534,
                    "duration": 0.08771924999999214
                },
                {
                    "name": "A#4",
                    "midi": 70,
                    "time": 217.01742450000046,
                    "velocity": 0.2677165354330709,
                    "duration": 0.08771924999999214
                },
                {
                    "name": "A#4",
                    "midi": 70,
                    "time": 217.19286300000044,
                    "velocity": 0.2677165354330709,
                    "duration": 0.08771924999999214
                },
                {
                    "name": "A#4",
                    "midi": 70,
                    "time": 217.36830150000043,
                    "velocity": 0.2677165354330709,
                    "duration": 0.08771924999999214
                },
                {
                    "name": "D4",
                    "midi": 62,
                    "time": 217.5437400000004,
                    "velocity": 0.33070866141732286,
                    "duration": 0.3508770000000254
                },
                {
                    "name": "A#4",
                    "midi": 70,
                    "time": 217.71917850000042,
                    "velocity": 0.2677165354330709,
                    "duration": 0.1754385000000127
                },
                {
                    "name": "G#4",
                    "midi": 68,
                    "time": 217.89461700000044,
                    "velocity": 0.2992125984251969,
                    "duration": 0.3508770000000254
                },
                {
                    "name": "A#4",
                    "midi": 70,
                    "time": 218.07005550000045,
                    "velocity": 0.2677165354330709,
                    "duration": 0.1754385000000127
                },
                {
                    "name": "G4",
                    "midi": 67,
                    "time": 218.24549400000046,
                    "velocity": 0.2992125984251969,
                    "duration": 0.3508770000000254
                },
                {
                    "name": "A#4",
                    "midi": 70,
                    "time": 218.42093250000048,
                    "velocity": 0.2677165354330709,
                    "duration": 0.1754385000000127
                },
                {
                    "name": "D4",
                    "midi": 62,
                    "time": 218.5963710000005,
                    "velocity": 0.29133858267716534,
                    "duration": 0.3508770000000254
                },
                {
                    "name": "A#4",
                    "midi": 70,
                    "time": 218.7718095000005,
                    "velocity": 0.2677165354330709,
                    "duration": 0.1754385000000127
                },
                {
                    "name": "D#4",
                    "midi": 63,
                    "time": 218.9472480000005,
                    "velocity": 0.33858267716535434,
                    "duration": 0.350876999999997
                },
                {
                    "name": "A#4",
                    "midi": 70,
                    "time": 219.12268650000053,
                    "velocity": 0.2677165354330709,
                    "duration": 0.08771924999999214
                },
                {
                    "name": "D#4",
                    "midi": 63,
                    "time": 219.2981250000005,
                    "velocity": 0.33858267716535434,
                    "duration": 0.350876999999997
                },
                {
                    "name": "B4",
                    "midi": 71,
                    "time": 219.47356350000052,
                    "velocity": 0.2677165354330709,
                    "duration": 0.08771924999999214
                },
                {
                    "name": "D#4",
                    "midi": 63,
                    "time": 219.6490020000005,
                    "velocity": 0.33858267716535434,
                    "duration": 0.350876999999997
                },
                {
                    "name": "C5",
                    "midi": 72,
                    "time": 219.82444050000052,
                    "velocity": 0.2677165354330709,
                    "duration": 0.08771924999999214
                },
                {
                    "name": "G4",
                    "midi": 67,
                    "time": 220.5261945000005,
                    "velocity": 0.2677165354330709,
                    "duration": 0.1754385000000127
                },
                {
                    "name": "D#4",
                    "midi": 63,
                    "time": 220.70163300000053,
                    "velocity": 0.2992125984251969,
                    "duration": 0.3508770000000254
                },
                {
                    "name": "G4",
                    "midi": 67,
                    "time": 220.87707150000054,
                    "velocity": 0.2677165354330709,
                    "duration": 0.1754385000000127
                },
                {
                    "name": "F4",
                    "midi": 65,
                    "time": 221.05251000000055,
                    "velocity": 0.2992125984251969,
                    "duration": 0.1754385000000127
                },
                {
                    "name": "D4",
                    "midi": 62,
                    "time": 221.05251000000055,
                    "velocity": 0.2992125984251969,
                    "duration": 0.3508770000000254
                },
                {
                    "name": "G4",
                    "midi": 67,
                    "time": 221.22794850000056,
                    "velocity": 0.2677165354330709,
                    "duration": 0.1754385000000127
                },
                {
                    "name": "D#4",
                    "midi": 63,
                    "time": 221.40338700000058,
                    "velocity": 0.29133858267716534,
                    "duration": 0.1754385000000127
                },
                {
                    "name": "C4",
                    "midi": 60,
                    "time": 221.40338700000058,
                    "velocity": 0.29133858267716534,
                    "duration": 0.3508770000000254
                },
                {
                    "name": "G4",
                    "midi": 67,
                    "time": 221.5788255000006,
                    "velocity": 0.2677165354330709,
                    "duration": 0.1754385000000127
                },
                {
                    "name": "B3",
                    "midi": 59,
                    "time": 221.7542640000006,
                    "velocity": 0.33858267716535434,
                    "duration": 0.8771924999999783
                },
                {
                    "name": "F4",
                    "midi": 65,
                    "time": 221.7542640000006,
                    "velocity": 0.33858267716535434,
                    "duration": 0.8771924999999783
                },
                {
                    "name": "G4",
                    "midi": 67,
                    "time": 221.92970250000062,
                    "velocity": 0.2677165354330709,
                    "duration": 0.08771924999999214
                },
                {
                    "name": "G4",
                    "midi": 67,
                    "time": 222.1051410000006,
                    "velocity": 0.2677165354330709,
                    "duration": 0.08771924999999214
                },
                {
                    "name": "G4",
                    "midi": 67,
                    "time": 222.28057950000058,
                    "velocity": 0.2677165354330709,
                    "duration": 0.08771924999999214
                },
                {
                    "name": "G4",
                    "midi": 67,
                    "time": 222.45601800000057,
                    "velocity": 0.2677165354330709,
                    "duration": 0.1754385000000127
                },
                {
                    "name": "G4",
                    "midi": 67,
                    "time": 224.03496450000057,
                    "velocity": 0.2204724409448819,
                    "duration": 0.1754385000000127
                },
                {
                    "name": "G#4",
                    "midi": 68,
                    "time": 224.21040300000058,
                    "velocity": 0.2677165354330709,
                    "duration": 0.1754385000000127
                },
                {
                    "name": "G4",
                    "midi": 67,
                    "time": 224.3858415000006,
                    "velocity": 0.23622047244094488,
                    "duration": 0.1754385000000127
                },
                {
                    "name": "F4",
                    "midi": 65,
                    "time": 224.5612800000006,
                    "velocity": 0.2677165354330709,
                    "duration": 0.1754385000000127
                },
                {
                    "name": "D#4",
                    "midi": 63,
                    "time": 224.73671850000062,
                    "velocity": 0.23622047244094488,
                    "duration": 0.1754385000000127
                },
                {
                    "name": "D4",
                    "midi": 62,
                    "time": 224.91215700000063,
                    "velocity": 0.25196850393700787,
                    "duration": 0.1754385000000127
                },
                {
                    "name": "C4",
                    "midi": 60,
                    "time": 225.08759550000065,
                    "velocity": 0.23622047244094488,
                    "duration": 0.1754385000000127
                },
                {
                    "name": "D#4",
                    "midi": 63,
                    "time": 225.43847250000067,
                    "velocity": 0.31496062992125984,
                    "duration": 0.1754385000000127
                },
                {
                    "name": "F4",
                    "midi": 65,
                    "time": 225.61391100000068,
                    "velocity": 0.3543307086614173,
                    "duration": 0.1754385000000127
                },
                {
                    "name": "D#4",
                    "midi": 63,
                    "time": 225.7893495000007,
                    "velocity": 0.3228346456692913,
                    "duration": 0.1754385000000127
                },
                {
                    "name": "D4",
                    "midi": 62,
                    "time": 225.9647880000007,
                    "velocity": 0.3543307086614173,
                    "duration": 0.1754385000000127
                },
                {
                    "name": "C4",
                    "midi": 60,
                    "time": 226.14022650000072,
                    "velocity": 0.31496062992125984,
                    "duration": 0.1754385000000127
                },
                {
                    "name": "A#3",
                    "midi": 58,
                    "time": 226.31566500000073,
                    "velocity": 0.33858267716535434,
                    "duration": 0.1754385000000127
                },
                {
                    "name": "A3",
                    "midi": 57,
                    "time": 226.49110350000075,
                    "velocity": 0.31496062992125984,
                    "duration": 0.1754385000000127
                },
                {
                    "name": "G3",
                    "midi": 55,
                    "time": 226.66654200000076,
                    "velocity": 0.36220472440944884,
                    "duration": 0.1754385000000127
                },
                {
                    "name": "F3",
                    "midi": 53,
                    "time": 226.84198050000077,
                    "velocity": 0.31496062992125984,
                    "duration": 0.1754385000000127
                },
                {
                    "name": "D#3",
                    "midi": 51,
                    "time": 227.01741900000079,
                    "velocity": 0.31496062992125984,
                    "duration": 0.1754385000000127
                },
                {
                    "name": "D3",
                    "midi": 50,
                    "time": 227.1928575000008,
                    "velocity": 0.31496062992125984,
                    "duration": 0.1754385000000127
                },
                {
                    "name": "C3",
                    "midi": 48,
                    "time": 227.3682960000008,
                    "velocity": 0.4015748031496063,
                    "duration": 0.1754385000000127
                },
                {
                    "name": "A#2",
                    "midi": 46,
                    "time": 227.54373450000082,
                    "velocity": 0.3228346456692913,
                    "duration": 0.1754385000000127
                },
                {
                    "name": "A2",
                    "midi": 45,
                    "time": 227.71917300000084,
                    "velocity": 0.3543307086614173,
                    "duration": 0.1754385000000127
                },
                {
                    "name": "G2",
                    "midi": 43,
                    "time": 227.89461150000085,
                    "velocity": 0.3700787401574803,
                    "duration": 0.1754385000000127
                },
                {
                    "name": "F2",
                    "midi": 41,
                    "time": 228.07005000000086,
                    "velocity": 0.4015748031496063,
                    "duration": 3.5087699999999984
                },
                {
                    "name": "G4",
                    "midi": 67,
                    "time": 231.57882000000086,
                    "velocity": 0.33070866141732286,
                    "duration": 0.08771924999999214
                },
                {
                    "name": "F4",
                    "midi": 65,
                    "time": 231.75425850000084,
                    "velocity": 0.2677165354330709,
                    "duration": 0.1754385000000127
                },
                {
                    "name": "D4",
                    "midi": 62,
                    "time": 231.92969700000086,
                    "velocity": 0.2992125984251969,
                    "duration": 0.3508770000000254
                },
                {
                    "name": "F4",
                    "midi": 65,
                    "time": 232.10513550000087,
                    "velocity": 0.2677165354330709,
                    "duration": 0.1754385000000127
                },
                {
                    "name": "D#4",
                    "midi": 63,
                    "time": 232.28057400000088,
                    "velocity": 0.2992125984251969,
                    "duration": 0.1754385000000127
                },
                {
                    "name": "C4",
                    "midi": 60,
                    "time": 232.28057400000088,
                    "velocity": 0.2992125984251969,
                    "duration": 0.3508770000000254
                },
                {
                    "name": "F4",
                    "midi": 65,
                    "time": 232.4560125000009,
                    "velocity": 0.2677165354330709,
                    "duration": 0.1754385000000127
                },
                {
                    "name": "D4",
                    "midi": 62,
                    "time": 232.6314510000009,
                    "velocity": 0.29133858267716534,
                    "duration": 0.1754385000000127
                },
                {
                    "name": "A#3",
                    "midi": 58,
                    "time": 232.6314510000009,
                    "velocity": 0.29133858267716534,
                    "duration": 0.3508770000000254
                },
                {
                    "name": "F4",
                    "midi": 65,
                    "time": 232.80688950000092,
                    "velocity": 0.2677165354330709,
                    "duration": 0.1754385000000127
                },
                {
                    "name": "A3",
                    "midi": 57,
                    "time": 232.98232800000093,
                    "velocity": 0.33858267716535434,
                    "duration": 1.4035079999999027
                },
                {
                    "name": "D#4",
                    "midi": 63,
                    "time": 232.98232800000093,
                    "velocity": 0.33858267716535434,
                    "duration": 1.4035079999999027
                },
                {
                    "name": "F4",
                    "midi": 65,
                    "time": 233.15776650000095,
                    "velocity": 0.2677165354330709,
                    "duration": 0.08771924999999214
                },
                {
                    "name": "F4",
                    "midi": 65,
                    "time": 233.33320500000093,
                    "velocity": 0.2677165354330709,
                    "duration": 0.08771924999999214
                },
                {
                    "name": "F4",
                    "midi": 65,
                    "time": 233.50864350000091,
                    "velocity": 0.2677165354330709,
                    "duration": 0.08771924999999214
                },
                {
                    "name": "F4",
                    "midi": 65,
                    "time": 233.6840820000009,
                    "velocity": 0.29133858267716534,
                    "duration": 0.08771924999999214
                },
                {
                    "name": "F4",
                    "midi": 65,
                    "time": 233.85952050000088,
                    "velocity": 0.2677165354330709,
                    "duration": 0.08771924999999214
                },
                {
                    "name": "F4",
                    "midi": 65,
                    "time": 234.03495900000087,
                    "velocity": 0.2677165354330709,
                    "duration": 0.08771924999999214
                },
                {
                    "name": "F4",
                    "midi": 65,
                    "time": 234.21039750000085,
                    "velocity": 0.2677165354330709,
                    "duration": 0.08771924999999214
                },
                {
                    "name": "A3",
                    "midi": 57,
                    "time": 234.38583600000084,
                    "velocity": 0.33070866141732286,
                    "duration": 0.3508770000000254
                },
                {
                    "name": "F4",
                    "midi": 65,
                    "time": 234.56127450000085,
                    "velocity": 0.2677165354330709,
                    "duration": 0.1754385000000127
                },
                {
                    "name": "D#4",
                    "midi": 63,
                    "time": 234.73671300000086,
                    "velocity": 0.2992125984251969,
                    "duration": 0.3508770000000254
                },
                {
                    "name": "F4",
                    "midi": 65,
                    "time": 234.91215150000087,
                    "velocity": 0.2677165354330709,
                    "duration": 0.1754385000000127
                },
                {
                    "name": "D4",
                    "midi": 62,
                    "time": 235.0875900000009,
                    "velocity": 0.2992125984251969,
                    "duration": 0.3508770000000254
                },
                {
                    "name": "F4",
                    "midi": 65,
                    "time": 235.2630285000009,
                    "velocity": 0.2677165354330709,
                    "duration": 0.1754385000000127
                },
                {
                    "name": "A3",
                    "midi": 57,
                    "time": 235.4384670000009,
                    "velocity": 0.29133858267716534,
                    "duration": 0.3508770000000254
                },
                {
                    "name": "F4",
                    "midi": 65,
                    "time": 235.61390550000093,
                    "velocity": 0.2677165354330709,
                    "duration": 0.1754385000000127
                },
                {
                    "name": "A#3",
                    "midi": 58,
                    "time": 235.78934400000094,
                    "velocity": 0.33858267716535434,
                    "duration": 1.0526309999999341
                },
                {
                    "name": "F4",
                    "midi": 65,
                    "time": 235.96478250000095,
                    "velocity": 0.2677165354330709,
                    "duration": 0.08771924999999214
                },
                {
                    "name": "F4",
                    "midi": 65,
                    "time": 236.14022100000093,
                    "velocity": 0.2677165354330709,
                    "duration": 0.08771924999999214
                },
                {
                    "name": "F4",
                    "midi": 65,
                    "time": 236.31565950000092,
                    "velocity": 0.2677165354330709,
                    "duration": 0.08771924999999214
                },
                {
                    "name": "F4",
                    "midi": 65,
                    "time": 236.4910980000009,
                    "velocity": 0.29133858267716534,
                    "duration": 0.08771924999999214
                },
                {
                    "name": "F4",
                    "midi": 65,
                    "time": 236.6665365000009,
                    "velocity": 0.2677165354330709,
                    "duration": 0.08771924999999214
                },
                {
                    "name": "B3",
                    "midi": 59,
                    "time": 236.84197500000087,
                    "velocity": 0.2677165354330709,
                    "duration": 0.350876999999997
                },
                {
                    "name": "F4",
                    "midi": 65,
                    "time": 237.01741350000088,
                    "velocity": 0.2677165354330709,
                    "duration": 0.08771924999999214
                },
                {
                    "name": "C4",
                    "midi": 60,
                    "time": 237.19285200000087,
                    "velocity": 0.33070866141732286,
                    "duration": 0.3508770000000254
                },
                {
                    "name": "F4",
                    "midi": 65,
                    "time": 237.36829050000088,
                    "velocity": 0.2677165354330709,
                    "duration": 0.1754385000000127
                },
                {
                    "name": "A3",
                    "midi": 57,
                    "time": 237.5437290000009,
                    "velocity": 0.2992125984251969,
                    "duration": 0.3508770000000254
                },
                {
                    "name": "F4",
                    "midi": 65,
                    "time": 237.7191675000009,
                    "velocity": 0.2677165354330709,
                    "duration": 0.1754385000000127
                },
                {
                    "name": "A#3",
                    "midi": 58,
                    "time": 237.89460600000092,
                    "velocity": 0.33070866141732286,
                    "duration": 0.3508770000000254
                },
                {
                    "name": "F4",
                    "midi": 65,
                    "time": 238.07004450000093,
                    "velocity": 0.2677165354330709,
                    "duration": 0.1754385000000127
                },
                {
                    "name": "B3",
                    "midi": 59,
                    "time": 238.24548300000095,
                    "velocity": 0.2992125984251969,
                    "duration": 0.3508770000000254
                },
                {
                    "name": "F4",
                    "midi": 65,
                    "time": 238.42092150000096,
                    "velocity": 0.2677165354330709,
                    "duration": 0.1754385000000127
                },
                {
                    "name": "C4",
                    "midi": 60,
                    "time": 238.59636000000097,
                    "velocity": 0.3700787401574803,
                    "duration": 0.3508770000000254
                },
                {
                    "name": "F4",
                    "midi": 65,
                    "time": 238.77179850000098,
                    "velocity": 0.2677165354330709,
                    "duration": 0.1754385000000127
                },
                {
                    "name": "A3",
                    "midi": 57,
                    "time": 238.947237000001,
                    "velocity": 0.33070866141732286,
                    "duration": 0.3508770000000254
                },
                {
                    "name": "F4",
                    "midi": 65,
                    "time": 239.122675500001,
                    "velocity": 0.2677165354330709,
                    "duration": 0.1754385000000127
                },
                {
                    "name": "A#3",
                    "midi": 58,
                    "time": 239.29811400000102,
                    "velocity": 0.3779527559055118,
                    "duration": 0.3508770000000254
                },
                {
                    "name": "D4",
                    "midi": 62,
                    "time": 239.47355250000103,
                    "velocity": 0.2755905511811024,
                    "duration": 0.1754385000000127
                },
                {
                    "name": "A3",
                    "midi": 57,
                    "time": 239.64899100000105,
                    "velocity": 0.3464566929133858,
                    "duration": 0.3508770000000254
                },
                {
                    "name": "C4",
                    "midi": 60,
                    "time": 239.82442950000106,
                    "velocity": 0.30708661417322836,
                    "duration": 0.1754385000000127
                },
                {
                    "name": "G3",
                    "midi": 55,
                    "time": 239.99986800000107,
                    "velocity": 0.4330708661417323,
                    "duration": 0.33625712500000304
                },
                {
                    "name": "A#3",
                    "midi": 58,
                    "time": 240.17530650000108,
                    "velocity": 0.3700787401574803,
                    "duration": 0.1754384999999843
                },
                {
                    "name": "G3",
                    "midi": 55,
                    "time": 240.35074500000107,
                    "velocity": 0.44881889763779526,
                    "duration": 0.3508770000000254
                },
                {
                    "name": "A#3",
                    "midi": 58,
                    "time": 240.52618350000108,
                    "velocity": 0.3937007874015748,
                    "duration": 0.1754385000000127
                },
                {
                    "name": "C3",
                    "midi": 48,
                    "time": 240.7016220000011,
                    "velocity": 0.49606299212598426,
                    "duration": 0.33625712500000304
                },
                {
                    "name": "A#3",
                    "midi": 58,
                    "time": 240.8770605000011,
                    "velocity": 0.36220472440944884,
                    "duration": 0.1754384999999843
                },
                {
                    "name": "C3",
                    "midi": 48,
                    "time": 241.0524990000011,
                    "velocity": 0.41732283464566927,
                    "duration": 0.3508770000000254
                },
                {
                    "name": "A#3",
                    "midi": 58,
                    "time": 241.2279375000011,
                    "velocity": 0.2677165354330709,
                    "duration": 0.33625712500000304
                },
                {
                    "name": "F3",
                    "midi": 53,
                    "time": 241.40337600000112,
                    "velocity": 0.33858267716535434,
                    "duration": 1.0526310000000194
                },
                {
                    "name": "A#3",
                    "midi": 58,
                    "time": 241.5788145000011,
                    "velocity": 0.2283464566929134,
                    "duration": 0.1754385000000127
                },
                {
                    "name": "A3",
                    "midi": 57,
                    "time": 241.7542530000011,
                    "velocity": 0.2755905511811024,
                    "duration": 0.1754385000000127
                },
                {
                    "name": "G3",
                    "midi": 55,
                    "time": 241.92969150000113,
                    "velocity": 0.2283464566929134,
                    "duration": 0.1754385000000127
                },
                {
                    "name": "A3",
                    "midi": 57,
                    "time": 242.10513000000114,
                    "velocity": 0.2677165354330709,
                    "duration": 0.350876999999997
                },
                {
                    "name": "A#2",
                    "midi": 46,
                    "time": 242.80688400000113,
                    "velocity": 0.33070866141732286,
                    "duration": 0.3508770000000254
                },
                {
                    "name": "F3",
                    "midi": 53,
                    "time": 242.98232250000115,
                    "velocity": 0.2677165354330709,
                    "duration": 0.1754385000000127
                },
                {
                    "name": "D3",
                    "midi": 50,
                    "time": 243.15776100000116,
                    "velocity": 0.2992125984251969,
                    "duration": 0.3508770000000254
                },
                {
                    "name": "F3",
                    "midi": 53,
                    "time": 243.33319950000117,
                    "velocity": 0.2677165354330709,
                    "duration": 0.1754385000000127
                },
                {
                    "name": "D#3",
                    "midi": 51,
                    "time": 243.50863800000118,
                    "velocity": 0.2992125984251969,
                    "duration": 0.1754385000000127
                },
                {
                    "name": "C3",
                    "midi": 48,
                    "time": 243.50863800000118,
                    "velocity": 0.2992125984251969,
                    "duration": 0.3508770000000254
                },
                {
                    "name": "F3",
                    "midi": 53,
                    "time": 243.6840765000012,
                    "velocity": 0.2677165354330709,
                    "duration": 0.1754385000000127
                },
                {
                    "name": "D3",
                    "midi": 50,
                    "time": 243.8595150000012,
                    "velocity": 0.29133858267716534,
                    "duration": 0.1754385000000127
                },
                {
                    "name": "A#2",
                    "midi": 46,
                    "time": 243.8595150000012,
                    "velocity": 0.29133858267716534,
                    "duration": 0.3508770000000254
                },
                {
                    "name": "F3",
                    "midi": 53,
                    "time": 244.03495350000122,
                    "velocity": 0.2677165354330709,
                    "duration": 0.1754385000000127
                },
                {
                    "name": "A2",
                    "midi": 45,
                    "time": 244.21039200000124,
                    "velocity": 0.33858267716535434,
                    "duration": 1.4035079999999027
                },
                {
                    "name": "D#3",
                    "midi": 51,
                    "time": 244.21039200000124,
                    "velocity": 0.33858267716535434,
                    "duration": 1.4035079999999027
                },
                {
                    "name": "F3",
                    "midi": 53,
                    "time": 244.38583050000125,
                    "velocity": 0.2677165354330709,
                    "duration": 0.08771924999999214
                },
                {
                    "name": "F3",
                    "midi": 53,
                    "time": 244.56126900000123,
                    "velocity": 0.2677165354330709,
                    "duration": 0.08771924999999214
                },
                {
                    "name": "F3",
                    "midi": 53,
                    "time": 244.73670750000122,
                    "velocity": 0.2677165354330709,
                    "duration": 0.08771924999999214
                },
                {
                    "name": "F3",
                    "midi": 53,
                    "time": 244.9121460000012,
                    "velocity": 0.29133858267716534,
                    "duration": 0.08771924999999214
                },
                {
                    "name": "F3",
                    "midi": 53,
                    "time": 245.08758450000119,
                    "velocity": 0.2677165354330709,
                    "duration": 0.08771924999999214
                },
                {
                    "name": "F3",
                    "midi": 53,
                    "time": 245.26302300000117,
                    "velocity": 0.2677165354330709,
                    "duration": 0.08771924999999214
                },
                {
                    "name": "F3",
                    "midi": 53,
                    "time": 245.43846150000115,
                    "velocity": 0.2677165354330709,
                    "duration": 0.08771924999999214
                },
                {
                    "name": "A2",
                    "midi": 45,
                    "time": 245.61390000000114,
                    "velocity": 0.33070866141732286,
                    "duration": 0.3508770000000254
                },
                {
                    "name": "F3",
                    "midi": 53,
                    "time": 245.78933850000115,
                    "velocity": 0.2677165354330709,
                    "duration": 0.1754385000000127
                },
                {
                    "name": "D#3",
                    "midi": 51,
                    "time": 245.96477700000116,
                    "velocity": 0.2992125984251969,
                    "duration": 0.3508770000000254
                },
                {
                    "name": "F3",
                    "midi": 53,
                    "time": 246.14021550000118,
                    "velocity": 0.2677165354330709,
                    "duration": 0.1754385000000127
                },
                {
                    "name": "D3",
                    "midi": 50,
                    "time": 246.3156540000012,
                    "velocity": 0.2992125984251969,
                    "duration": 0.3508770000000254
                },
                {
                    "name": "F3",
                    "midi": 53,
                    "time": 246.4910925000012,
                    "velocity": 0.2677165354330709,
                    "duration": 0.1754385000000127
                },
                {
                    "name": "A2",
                    "midi": 45,
                    "time": 246.6665310000012,
                    "velocity": 0.29133858267716534,
                    "duration": 0.3508770000000254
                },
                {
                    "name": "F3",
                    "midi": 53,
                    "time": 246.84196950000123,
                    "velocity": 0.2677165354330709,
                    "duration": 0.1754385000000127
                },
                {
                    "name": "A#2",
                    "midi": 46,
                    "time": 247.01740800000124,
                    "velocity": 0.33858267716535434,
                    "duration": 1.0526309999999341
                },
                {
                    "name": "F3",
                    "midi": 53,
                    "time": 247.19284650000125,
                    "velocity": 0.2677165354330709,
                    "duration": 0.08771924999999214
                },
                {
                    "name": "F3",
                    "midi": 53,
                    "time": 247.36828500000124,
                    "velocity": 0.2677165354330709,
                    "duration": 0.08771924999999214
                },
                {
                    "name": "F3",
                    "midi": 53,
                    "time": 247.54372350000122,
                    "velocity": 0.2677165354330709,
                    "duration": 0.08771924999999214
                },
                {
                    "name": "F3",
                    "midi": 53,
                    "time": 247.7191620000012,
                    "velocity": 0.31496062992125984,
                    "duration": 0.08771924999999214
                },
                {
                    "name": "F3",
                    "midi": 53,
                    "time": 247.8946005000012,
                    "velocity": 0.29133858267716534,
                    "duration": 0.08771924999999214
                },
                {
                    "name": "B2",
                    "midi": 47,
                    "time": 248.07003900000117,
                    "velocity": 0.29133858267716534,
                    "duration": 0.350876999999997
                },
                {
                    "name": "F3",
                    "midi": 53,
                    "time": 248.2454775000012,
                    "velocity": 0.29133858267716534,
                    "duration": 0.08771924999999214
                },
                {
                    "name": "C3",
                    "midi": 48,
                    "time": 248.42091600000117,
                    "velocity": 0.3700787401574803,
                    "duration": 0.3508770000000254
                },
                {
                    "name": "F3",
                    "midi": 53,
                    "time": 248.59635450000118,
                    "velocity": 0.2992125984251969,
                    "duration": 0.1754385000000127
                },
                {
                    "name": "F2",
                    "midi": 41,
                    "time": 248.7717930000012,
                    "velocity": 0.33070866141732286,
                    "duration": 0.3508770000000254
                },
                {
                    "name": "F3",
                    "midi": 53,
                    "time": 248.9472315000012,
                    "velocity": 0.2992125984251969,
                    "duration": 0.1754385000000127
                },
                {
                    "name": "A#2",
                    "midi": 46,
                    "time": 249.12267000000122,
                    "velocity": 0.3700787401574803,
                    "duration": 0.3508770000000254
                },
                {
                    "name": "F3",
                    "midi": 53,
                    "time": 249.29810850000123,
                    "velocity": 0.2992125984251969,
                    "duration": 0.1754385000000127
                },
                {
                    "name": "B2",
                    "midi": 47,
                    "time": 249.47354700000125,
                    "velocity": 0.33858267716535434,
                    "duration": 0.3508770000000254
                },
                {
                    "name": "F3",
                    "midi": 53,
                    "time": 249.64898550000126,
                    "velocity": 0.30708661417322836,
                    "duration": 0.1754385000000127
                },
                {
                    "name": "C3",
                    "midi": 48,
                    "time": 249.82442400000127,
                    "velocity": 0.4251968503937008,
                    "duration": 0.3508770000000254
                },
                {
                    "name": "F3",
                    "midi": 53,
                    "time": 249.99986250000129,
                    "velocity": 0.3700787401574803,
                    "duration": 0.1754385000000127
                },
                {
                    "name": "F2",
                    "midi": 41,
                    "time": 250.1753010000013,
                    "velocity": 0.41732283464566927,
                    "duration": 0.3508770000000254
                },
                {
                    "name": "F3",
                    "midi": 53,
                    "time": 250.3507395000013,
                    "velocity": 0.3464566929133858,
                    "duration": 0.1754385000000127
                },
                {
                    "name": "A#2",
                    "midi": 46,
                    "time": 250.52617800000132,
                    "velocity": 0.5039370078740157,
                    "duration": 0.3508770000000254
                },
                {
                    "name": "F3",
                    "midi": 53,
                    "time": 250.70161650000134,
                    "velocity": 0.3858267716535433,
                    "duration": 0.1754385000000127
                },
                {
                    "name": "G#2",
                    "midi": 44,
                    "time": 250.87705500000135,
                    "velocity": 0.47244094488188976,
                    "duration": 0.3508770000000254
                },
                {
                    "name": "A#2",
                    "midi": 46,
                    "time": 251.05249350000136,
                    "velocity": 0.3543307086614173,
                    "duration": 0.1754385000000127
                },
                {
                    "name": "G2",
                    "midi": 43,
                    "time": 251.22793200000137,
                    "velocity": 0.5748031496062992,
                    "duration": 0.33625712500000304
                },
                {
                    "name": "A#2",
                    "midi": 46,
                    "time": 251.4033705000014,
                    "velocity": 0.47244094488188976,
                    "duration": 0.1754384999999843
                },
                {
                    "name": "D#2",
                    "midi": 39,
                    "time": 251.57880900000137,
                    "velocity": 0.5433070866141733,
                    "duration": 0.3508770000000254
                },
                {
                    "name": "D#3",
                    "midi": 51,
                    "time": 251.75424750000138,
                    "velocity": 0.47244094488188976,
                    "duration": 0.1754385000000127
                },
                {
                    "name": "F2",
                    "midi": 41,
                    "time": 251.9296860000014,
                    "velocity": 0.4409448818897638,
                    "duration": 0.33625712500000304
                },
                {
                    "name": "D3",
                    "midi": 50,
                    "time": 252.1051245000014,
                    "velocity": 0.33070866141732286,
                    "duration": 0.1754384999999843
                },
                {
                    "name": "F2",
                    "midi": 41,
                    "time": 252.2805630000014,
                    "velocity": 0.3858267716535433,
                    "duration": 0.3508770000000254
                },
                {
                    "name": "A2",
                    "midi": 45,
                    "time": 252.4560015000014,
                    "velocity": 0.33858267716535434,
                    "duration": 0.1754385000000127
                },
                {
                    "name": "A#1",
                    "midi": 34,
                    "time": 252.63144000000142,
                    "velocity": 0.33858267716535434,
                    "duration": 0.1754385000000127
                },
                {
                    "name": "A#2",
                    "midi": 46,
                    "time": 252.80687850000143,
                    "velocity": 0.2283464566929134,
                    "duration": 0.8771924999999499
                },
                {
                    "name": "A#3",
                    "midi": 58,
                    "time": 252.98231700000144,
                    "velocity": 0.2755905511811024,
                    "duration": 0.08771924999999214
                },
                {
                    "name": "A#3",
                    "midi": 58,
                    "time": 253.15775550000143,
                    "velocity": 0.2283464566929134,
                    "duration": 0.08771924999999214
                },
                {
                    "name": "A#3",
                    "midi": 58,
                    "time": 253.3331940000014,
                    "velocity": 0.3858267716535433,
                    "duration": 0.08771924999999214
                },
                {
                    "name": "A#3",
                    "midi": 58,
                    "time": 253.5086325000014,
                    "velocity": 0.30708661417322836,
                    "duration": 0.08771924999999214
                },
                {
                    "name": "G#3",
                    "midi": 56,
                    "time": 253.68407100000138,
                    "velocity": 0.3937007874015748,
                    "duration": 0.3508770000000254
                },
                {
                    "name": "A#3",
                    "midi": 58,
                    "time": 253.8595095000014,
                    "velocity": 0.30708661417322836,
                    "duration": 0.1754385000000127
                },
                {
                    "name": "G3",
                    "midi": 55,
                    "time": 254.0349480000014,
                    "velocity": 0.49606299212598426,
                    "duration": 0.3508770000000254
                },
                {
                    "name": "A#3",
                    "midi": 58,
                    "time": 254.21038650000142,
                    "velocity": 0.4094488188976378,
                    "duration": 0.1754385000000127
                },
                {
                    "name": "D#3",
                    "midi": 51,
                    "time": 254.38582500000143,
                    "velocity": 0.4409448818897638,
                    "duration": 0.3508770000000254
                },
                {
                    "name": "D#4",
                    "midi": 63,
                    "time": 254.56126350000144,
                    "velocity": 0.3937007874015748,
                    "duration": 0.1754385000000127
                },
                {
                    "name": "F3",
                    "midi": 53,
                    "time": 254.73670200000146,
                    "velocity": 0.2755905511811024,
                    "duration": 0.33625712500000304
                },
                {
                    "name": "D4",
                    "midi": 62,
                    "time": 254.91214050000147,
                    "velocity": 0.2283464566929134,
                    "duration": 0.1754384999999843
                },
                {
                    "name": "F3",
                    "midi": 53,
                    "time": 255.08757900000145,
                    "velocity": 0.2755905511811024,
                    "duration": 0.3508770000000254
                },
                {
                    "name": "A3",
                    "midi": 57,
                    "time": 255.26301750000147,
                    "velocity": 0.2283464566929134,
                    "duration": 0.1754385000000127
                },
                {
                    "name": "A#2",
                    "midi": 46,
                    "time": 255.43845600000148,
                    "velocity": 0.25984251968503935,
                    "duration": 0.350876999999997
                },
                {
                    "name": "A#3",
                    "midi": 58,
                    "time": 255.43845600000148,
                    "velocity": 0.30708661417322836,
                    "duration": 0.350876999999997
                },
                {
                    "name": "D4",
                    "midi": 62,
                    "time": 256.1402100000015,
                    "velocity": 0.5433070866141733,
                    "duration": 0.701753999999994
                },
                {
                    "name": "F4",
                    "midi": 65,
                    "time": 256.1402100000015,
                    "velocity": 0.6220472440944882,
                    "duration": 0.701753999999994
                },
                {
                    "name": "C4",
                    "midi": 60,
                    "time": 256.8419640000015,
                    "velocity": 0.5433070866141733,
                    "duration": 0.701753999999994
                },
                {
                    "name": "D#4",
                    "midi": 63,
                    "time": 256.8419640000015,
                    "velocity": 0.5433070866141733,
                    "duration": 0.701753999999994
                },
                {
                    "name": "F4",
                    "midi": 65,
                    "time": 256.8419640000015,
                    "velocity": 0.6220472440944882,
                    "duration": 0.701753999999994
                },
                {
                    "name": "A#3",
                    "midi": 58,
                    "time": 257.5437180000015,
                    "velocity": 0.5433070866141733,
                    "duration": 0.701753999999994
                },
                {
                    "name": "D4",
                    "midi": 62,
                    "time": 257.5437180000015,
                    "velocity": 0.5433070866141733,
                    "duration": 0.701753999999994
                },
                {
                    "name": "F4",
                    "midi": 65,
                    "time": 257.5437180000015,
                    "velocity": 0.6220472440944882,
                    "duration": 0.701753999999994
                },
                {
                    "name": "F4",
                    "midi": 65,
                    "time": 258.2454720000015,
                    "velocity": 0.6220472440944882,
                    "duration": 0.701753999999994
                },
                {
                    "name": "C4",
                    "midi": 60,
                    "time": 258.2454720000015,
                    "velocity": 0.5433070866141733,
                    "duration": 0.701753999999994
                },
                {
                    "name": "A3",
                    "midi": 57,
                    "time": 258.2454720000015,
                    "velocity": 0.5433070866141733,
                    "duration": 0.701753999999994
                },
                {
                    "name": "F4",
                    "midi": 65,
                    "time": 258.9472260000015,
                    "velocity": 0.6771653543307087,
                    "duration": 0.701753999999994
                },
                {
                    "name": "G#3",
                    "midi": 56,
                    "time": 258.9472260000015,
                    "velocity": 0.5669291338582677,
                    "duration": 0.701753999999994
                },
                {
                    "name": "A#3",
                    "midi": 58,
                    "time": 258.9472260000015,
                    "velocity": 0.5669291338582677,
                    "duration": 0.701753999999994
                },
                {
                    "name": "D#4",
                    "midi": 63,
                    "time": 259.6489800000015,
                    "velocity": 0.5039370078740157,
                    "duration": 0.08771925000002057
                },
                {
                    "name": "A#3",
                    "midi": 58,
                    "time": 259.6489800000015,
                    "velocity": 0.4330708661417323,
                    "duration": 0.08771925000002057
                },
                {
                    "name": "G3",
                    "midi": 55,
                    "time": 259.6489800000015,
                    "velocity": 0.4330708661417323,
                    "duration": 0.08771925000002057
                },
                {
                    "name": "C4",
                    "midi": 60,
                    "time": 259.9998570000015,
                    "velocity": 0.2755905511811024,
                    "duration": 0.08771925000002057
                },
                {
                    "name": "A#3",
                    "midi": 58,
                    "time": 259.9998570000015,
                    "velocity": 0.2283464566929134,
                    "duration": 0.08771925000002057
                },
                {
                    "name": "E3",
                    "midi": 52,
                    "time": 259.9998570000015,
                    "velocity": 0.2283464566929134,
                    "duration": 0.08771925000002057
                },
                {
                    "name": "D4",
                    "midi": 62,
                    "time": 260.3507340000015,
                    "velocity": 0.30708661417322836,
                    "duration": 0.08771925000002057
                },
                {
                    "name": "A#3",
                    "midi": 58,
                    "time": 260.3507340000015,
                    "velocity": 0.25984251968503935,
                    "duration": 0.08771925000002057
                },
                {
                    "name": "F3",
                    "midi": 53,
                    "time": 260.3507340000015,
                    "velocity": 0.25984251968503935,
                    "duration": 0.08771925000002057
                },
                {
                    "name": "C4",
                    "midi": 60,
                    "time": 260.70161100000155,
                    "velocity": 0.2755905511811024,
                    "duration": 0.08771925000002057
                },
                {
                    "name": "A3",
                    "midi": 57,
                    "time": 260.70161100000155,
                    "velocity": 0.2283464566929134,
                    "duration": 0.08771925000002057
                },
                {
                    "name": "F3",
                    "midi": 53,
                    "time": 260.70161100000155,
                    "velocity": 0.2283464566929134,
                    "duration": 0.08771925000002057
                },
                {
                    "name": "A#2",
                    "midi": 46,
                    "time": 261.0524880000016,
                    "velocity": 0.25984251968503935,
                    "duration": 0.3508770000000254
                },
                {
                    "name": "A#3",
                    "midi": 58,
                    "time": 261.0524880000016,
                    "velocity": 0.30708661417322836,
                    "duration": 0.3508770000000254
                },
                {
                    "name": "D4",
                    "midi": 62,
                    "time": 261.7542420000016,
                    "velocity": 0.5511811023622047,
                    "duration": 0.09649117500003968
                },
                {
                    "name": "C#4",
                    "midi": 61,
                    "time": 261.84196125000165,
                    "velocity": 0.4409448818897638,
                    "duration": 0.09649117500003968
                },
                {
                    "name": "D4",
                    "midi": 62,
                    "time": 261.92968050000167,
                    "velocity": 0.47244094488188976,
                    "duration": 0.09649117500003968
                },
                {
                    "name": "C#4",
                    "midi": 61,
                    "time": 262.0173997500017,
                    "velocity": 0.4330708661417323,
                    "duration": 0.09649117500003968
                },
                {
                    "name": "D4",
                    "midi": 62,
                    "time": 262.1051190000017,
                    "velocity": 0.47244094488188976,
                    "duration": 0.09649117500003968
                },
                {
                    "name": "F4",
                    "midi": 65,
                    "time": 262.1928382500017,
                    "velocity": 0.4330708661417323,
                    "duration": 0.09649117500003968
                },
                {
                    "name": "D#4",
                    "midi": 63,
                    "time": 262.28055750000175,
                    "velocity": 0.4330708661417323,
                    "duration": 0.09649117500003968
                },
                {
                    "name": "D4",
                    "midi": 62,
                    "time": 262.36827675000177,
                    "velocity": 0.4330708661417323,
                    "duration": 0.08771925000002057
                },
                {
                    "name": "C4",
                    "midi": 60,
                    "time": 262.4559960000018,
                    "velocity": 0.5511811023622047,
                    "duration": 0.09649117500003968
                },
                {
                    "name": "B3",
                    "midi": 59,
                    "time": 262.5437152500018,
                    "velocity": 0.4409448818897638,
                    "duration": 0.09649117500003968
                },
                {
                    "name": "C4",
                    "midi": 60,
                    "time": 262.63143450000183,
                    "velocity": 0.47244094488188976,
                    "duration": 0.09649117500003968
                },
                {
                    "name": "B3",
                    "midi": 59,
                    "time": 262.71915375000185,
                    "velocity": 0.4330708661417323,
                    "duration": 0.09649117500003968
                },
                {
                    "name": "C4",
                    "midi": 60,
                    "time": 262.8068730000019,
                    "velocity": 0.47244094488188976,
                    "duration": 0.09649117500003968
                },
                {
                    "name": "D#4",
                    "midi": 63,
                    "time": 262.8945922500019,
                    "velocity": 0.4330708661417323,
                    "duration": 0.09649117500003968
                },
                {
                    "name": "D4",
                    "midi": 62,
                    "time": 262.9823115000019,
                    "velocity": 0.4330708661417323,
                    "duration": 0.09649117500003968
                },
                {
                    "name": "C4",
                    "midi": 60,
                    "time": 263.07003075000193,
                    "velocity": 0.4330708661417323,
                    "duration": 0.08771925000002057
                },
                {
                    "name": "A#3",
                    "midi": 58,
                    "time": 263.15775000000195,
                    "velocity": 0.5511811023622047,
                    "duration": 0.09649117500003968
                },
                {
                    "name": "A3",
                    "midi": 57,
                    "time": 263.245469250002,
                    "velocity": 0.4409448818897638,
                    "duration": 0.09649117500003968
                },
                {
                    "name": "A#3",
                    "midi": 58,
                    "time": 263.333188500002,
                    "velocity": 0.47244094488188976,
                    "duration": 0.09649117500003968
                },
                {
                    "name": "A3",
                    "midi": 57,
                    "time": 263.420907750002,
                    "velocity": 0.4330708661417323,
                    "duration": 0.09649117500003968
                },
                {
                    "name": "A#3",
                    "midi": 58,
                    "time": 263.50862700000204,
                    "velocity": 0.47244094488188976,
                    "duration": 0.09649117500003968
                },
                {
                    "name": "D4",
                    "midi": 62,
                    "time": 263.59634625000206,
                    "velocity": 0.4330708661417323,
                    "duration": 0.09649117500003968
                },
                {
                    "name": "C4",
                    "midi": 60,
                    "time": 263.6840655000021,
                    "velocity": 0.4330708661417323,
                    "duration": 0.09649117500003968
                },
                {
                    "name": "A#3",
                    "midi": 58,
                    "time": 263.7717847500021,
                    "velocity": 0.4330708661417323,
                    "duration": 0.08771925000002057
                },
                {
                    "name": "A3",
                    "midi": 57,
                    "time": 263.8595040000021,
                    "velocity": 0.5511811023622047,
                    "duration": 0.09649117500003968
                },
                {
                    "name": "G#3",
                    "midi": 56,
                    "time": 263.94722325000214,
                    "velocity": 0.4409448818897638,
                    "duration": 0.09649117500003968
                },
                {
                    "name": "A3",
                    "midi": 57,
                    "time": 264.03494250000216,
                    "velocity": 0.47244094488188976,
                    "duration": 0.09649117500003968
                },
                {
                    "name": "G#3",
                    "midi": 56,
                    "time": 264.1226617500022,
                    "velocity": 0.4330708661417323,
                    "duration": 0.09649117500003968
                },
                {
                    "name": "A3",
                    "midi": 57,
                    "time": 264.2103810000022,
                    "velocity": 0.47244094488188976,
                    "duration": 0.09649117500003968
                },
                {
                    "name": "C4",
                    "midi": 60,
                    "time": 264.2981002500022,
                    "velocity": 0.4330708661417323,
                    "duration": 0.09649117500003968
                },
                {
                    "name": "A#3",
                    "midi": 58,
                    "time": 264.38581950000224,
                    "velocity": 0.4330708661417323,
                    "duration": 0.09649117500003968
                },
                {
                    "name": "A3",
                    "midi": 57,
                    "time": 264.47353875000226,
                    "velocity": 0.4330708661417323,
                    "duration": 0.08771925000002057
                },
                {
                    "name": "G#3",
                    "midi": 56,
                    "time": 264.5612580000023,
                    "velocity": 0.5511811023622047,
                    "duration": 0.09649117500003968
                },
                {
                    "name": "G3",
                    "midi": 55,
                    "time": 264.6489772500023,
                    "velocity": 0.4409448818897638,
                    "duration": 0.09649117500003968
                },
                {
                    "name": "G#3",
                    "midi": 56,
                    "time": 264.7366965000023,
                    "velocity": 0.47244094488188976,
                    "duration": 0.09649117500003968
                },
                {
                    "name": "G3",
                    "midi": 55,
                    "time": 264.82441575000234,
                    "velocity": 0.4330708661417323,
                    "duration": 0.09649117500003968
                },
                {
                    "name": "G#3",
                    "midi": 56,
                    "time": 264.91213500000237,
                    "velocity": 0.47244094488188976,
                    "duration": 0.09649117500003968
                },
                {
                    "name": "C4",
                    "midi": 60,
                    "time": 264.9998542500024,
                    "velocity": 0.4330708661417323,
                    "duration": 0.09649117500003968
                },
                {
                    "name": "A#3",
                    "midi": 58,
                    "time": 265.0875735000024,
                    "velocity": 0.4330708661417323,
                    "duration": 0.09649117500003968
                },
                {
                    "name": "G#3",
                    "midi": 56,
                    "time": 265.1752927500024,
                    "velocity": 0.4330708661417323,
                    "duration": 0.08771925000002057
                },
                {
                    "name": "G3",
                    "midi": 55,
                    "time": 265.26301200000245,
                    "velocity": 0.5511811023622047,
                    "duration": 0.09649117500003968
                },
                {
                    "name": "A#3",
                    "midi": 58,
                    "time": 265.35073125000247,
                    "velocity": 0.3779527559055118,
                    "duration": 0.09649117500003968
                },
                {
                    "name": "A3",
                    "midi": 57,
                    "time": 265.4384505000025,
                    "velocity": 0.33858267716535434,
                    "duration": 0.09649117500003968
                },
                {
                    "name": "A#3",
                    "midi": 58,
                    "time": 265.5261697500025,
                    "velocity": 0.33858267716535434,
                    "duration": 0.08771925000002057
                },
                {
                    "name": "E3",
                    "midi": 52,
                    "time": 265.61388900000253,
                    "velocity": 0.3858267716535433,
                    "duration": 0.09649117500003968
                },
                {
                    "name": "A#3",
                    "midi": 58,
                    "time": 265.70160825000255,
                    "velocity": 0.33858267716535434,
                    "duration": 0.09649117500003968
                },
                {
                    "name": "A3",
                    "midi": 57,
                    "time": 265.78932750000257,
                    "velocity": 0.33070866141732286,
                    "duration": 0.09649117500003968
                },
                {
                    "name": "A#3",
                    "midi": 58,
                    "time": 265.8770467500026,
                    "velocity": 0.33858267716535434,
                    "duration": 0.08771925000002057
                },
                {
                    "name": "F3",
                    "midi": 53,
                    "time": 265.9647660000026,
                    "velocity": 0.44881889763779526,
                    "duration": 0.09649117500003968
                },
                {
                    "name": "A#3",
                    "midi": 58,
                    "time": 266.05248525000263,
                    "velocity": 0.36220472440944884,
                    "duration": 0.09649117500003968
                },
                {
                    "name": "A3",
                    "midi": 57,
                    "time": 266.14020450000265,
                    "velocity": 0.3937007874015748,
                    "duration": 0.09649117500003968
                },
                {
                    "name": "A#3",
                    "midi": 58,
                    "time": 266.2279237500027,
                    "velocity": 0.3937007874015748,
                    "duration": 0.08771925000002057
                },
                {
                    "name": "F3",
                    "midi": 53,
                    "time": 266.3156430000027,
                    "velocity": 0.47244094488188976,
                    "duration": 0.09649117500003968
                },
                {
                    "name": "A3",
                    "midi": 57,
                    "time": 266.4033622500027,
                    "velocity": 0.3937007874015748,
                    "duration": 0.09649117500003968
                },
                {
                    "name": "G#3",
                    "midi": 56,
                    "time": 266.49108150000274,
                    "velocity": 0.3937007874015748,
                    "duration": 0.09649117500003968
                },
                {
                    "name": "A3",
                    "midi": 57,
                    "time": 266.57880075000276,
                    "velocity": 0.4015748031496063,
                    "duration": 0.08771925000002057
                },
                {
                    "name": "A#3",
                    "midi": 58,
                    "time": 266.6665200000028,
                    "velocity": 0.48031496062992124,
                    "duration": 0.08771925000002057
                },
                {
                    "name": "C4",
                    "midi": 60,
                    "time": 266.7542392500028,
                    "velocity": 0.4409448818897638,
                    "duration": 0.08771925000002057
                },
                {
                    "name": "D4",
                    "midi": 62,
                    "time": 266.8419585000028,
                    "velocity": 0.4566929133858268,
                    "duration": 0.08771925000002057
                },
                {
                    "name": "D#4",
                    "midi": 63,
                    "time": 266.92967775000284,
                    "velocity": 0.48031496062992124,
                    "duration": 0.08771925000002057
                },
                {
                    "name": "F4",
                    "midi": 65,
                    "time": 267.01739700000286,
                    "velocity": 0.49606299212598426,
                    "duration": 0.08771925000002057
                },
                {
                    "name": "G4",
                    "midi": 67,
                    "time": 267.1051162500029,
                    "velocity": 0.5196850393700787,
                    "duration": 0.08771925000002057
                },
                {
                    "name": "A4",
                    "midi": 69,
                    "time": 267.1928355000029,
                    "velocity": 0.5354330708661418,
                    "duration": 0.08771925000002057
                },
                {
                    "name": "A#4",
                    "midi": 70,
                    "time": 267.2805547500029,
                    "velocity": 0.5669291338582677,
                    "duration": 0.08771925000002057
                },
                {
                    "name": "G#4",
                    "midi": 68,
                    "time": 267.36827400000294,
                    "velocity": 0.5984251968503937,
                    "duration": 0.09649117500003968
                },
                {
                    "name": "G4",
                    "midi": 67,
                    "time": 267.45599325000296,
                    "velocity": 0.48031496062992124,
                    "duration": 0.09649117500003968
                },
                {
                    "name": "F4",
                    "midi": 65,
                    "time": 267.543712500003,
                    "velocity": 0.5196850393700787,
                    "duration": 0.09649117500003968
                },
                {
                    "name": "D#4",
                    "midi": 63,
                    "time": 267.631431750003,
                    "velocity": 0.47244094488188976,
                    "duration": 0.09649117500003968
                },
                {
                    "name": "D4",
                    "midi": 62,
                    "time": 267.719151000003,
                    "velocity": 0.5196850393700787,
                    "duration": 0.09649117500003968
                },
                {
                    "name": "C4",
                    "midi": 60,
                    "time": 267.80687025000304,
                    "velocity": 0.47244094488188976,
                    "duration": 0.09649117500003968
                },
                {
                    "name": "A#3",
                    "midi": 58,
                    "time": 267.89458950000306,
                    "velocity": 0.47244094488188976,
                    "duration": 0.09649117500003968
                },
                {
                    "name": "G#3",
                    "midi": 56,
                    "time": 267.9823087500031,
                    "velocity": 0.47244094488188976,
                    "duration": 0.08771925000002057
                },
                {
                    "name": "G3",
                    "midi": 55,
                    "time": 268.0700280000031,
                    "velocity": 0.5984251968503937,
                    "duration": 0.09649117500003968
                },
                {
                    "name": "A#3",
                    "midi": 58,
                    "time": 268.1577472500031,
                    "velocity": 0.4094488188976378,
                    "duration": 0.09649117500003968
                },
                {
                    "name": "A3",
                    "midi": 57,
                    "time": 268.24546650000315,
                    "velocity": 0.36220472440944884,
                    "duration": 0.09649117500003968
                },
                {
                    "name": "A#3",
                    "midi": 58,
                    "time": 268.33318575000317,
                    "velocity": 0.36220472440944884,
                    "duration": 0.08771925000002057
                },
                {
                    "name": "E3",
                    "midi": 52,
                    "time": 268.4209050000032,
                    "velocity": 0.3464566929133858,
                    "duration": 0.09649117500003968
                },
                {
                    "name": "A#3",
                    "midi": 58,
                    "time": 268.5086242500032,
                    "velocity": 0.4094488188976378,
                    "duration": 0.09649117500003968
                },
                {
                    "name": "A3",
                    "midi": 57,
                    "time": 268.59634350000323,
                    "velocity": 0.36220472440944884,
                    "duration": 0.09649117500003968
                },
                {
                    "name": "A#3",
                    "midi": 58,
                    "time": 268.68406275000325,
                    "velocity": 0.3779527559055118,
                    "duration": 0.08771925000002057
                },
                {
                    "name": "F3",
                    "midi": 53,
                    "time": 268.77178200000327,
                    "velocity": 0.4881889763779528,
                    "duration": 0.09649117500003968
                },
                {
                    "name": "A#3",
                    "midi": 58,
                    "time": 268.8595012500033,
                    "velocity": 0.3937007874015748,
                    "duration": 0.09649117500003968
                },
                {
                    "name": "A3",
                    "midi": 57,
                    "time": 268.9472205000033,
                    "velocity": 0.4330708661417323,
                    "duration": 0.09649117500003968
                },
                {
                    "name": "A#3",
                    "midi": 58,
                    "time": 269.03493975000333,
                    "velocity": 0.4330708661417323,
                    "duration": 0.08771925000002057
                },
                {
                    "name": "F3",
                    "midi": 53,
                    "time": 269.12265900000335,
                    "velocity": 0.5196850393700787,
                    "duration": 0.09649117500003968
                },
                {
                    "name": "A3",
                    "midi": 57,
                    "time": 269.2103782500034,
                    "velocity": 0.4330708661417323,
                    "duration": 0.09649117500003968
                },
                {
                    "name": "G#3",
                    "midi": 56,
                    "time": 269.2980975000034,
                    "velocity": 0.4330708661417323,
                    "duration": 0.09649117500003968
                },
                {
                    "name": "A3",
                    "midi": 57,
                    "time": 269.3858167500034,
                    "velocity": 0.4409448818897638,
                    "duration": 0.08771925000002057
                },
                {
                    "name": "A#3",
                    "midi": 58,
                    "time": 269.47353600000343,
                    "velocity": 0.5275590551181102,
                    "duration": 0.08771925000002057
                },
                {
                    "name": "A3",
                    "midi": 57,
                    "time": 269.56125525000346,
                    "velocity": 0.48031496062992124,
                    "duration": 0.08771925000002057
                },
                {
                    "name": "G3",
                    "midi": 55,
                    "time": 269.6489745000035,
                    "velocity": 0.49606299212598426,
                    "duration": 0.08771925000002057
                },
                {
                    "name": "F3",
                    "midi": 53,
                    "time": 269.7366937500035,
                    "velocity": 0.5275590551181102,
                    "duration": 0.08771925000002057
                },
                {
                    "name": "D#3",
                    "midi": 51,
                    "time": 269.8244130000035,
                    "velocity": 0.5433070866141733,
                    "duration": 0.08771925000002057
                },
                {
                    "name": "D3",
                    "midi": 50,
                    "time": 269.91213225000354,
                    "velocity": 0.5669291338582677,
                    "duration": 0.08771925000002057
                },
                {
                    "name": "C3",
                    "midi": 48,
                    "time": 269.99985150000356,
                    "velocity": 0.5826771653543307,
                    "duration": 0.08771925000002057
                },
                {
                    "name": "A#2",
                    "midi": 46,
                    "time": 270.0875707500036,
                    "velocity": 0.6220472440944882,
                    "duration": 0.08771925000002057
                },
                {
                    "name": "G#2",
                    "midi": 44,
                    "time": 270.1752900000036,
                    "velocity": 0.5984251968503937,
                    "duration": 0.09649117500003968
                },
                {
                    "name": "G2",
                    "midi": 43,
                    "time": 270.2630092500036,
                    "velocity": 0.48031496062992124,
                    "duration": 0.09649117500003968
                },
                {
                    "name": "F2",
                    "midi": 41,
                    "time": 270.35072850000364,
                    "velocity": 0.5196850393700787,
                    "duration": 0.09649117500003968
                },
                {
                    "name": "D#2",
                    "midi": 39,
                    "time": 270.43844775000366,
                    "velocity": 0.47244094488188976,
                    "duration": 0.09649117500003968
                },
                {
                    "name": "D2",
                    "midi": 38,
                    "time": 270.5261670000037,
                    "velocity": 0.5196850393700787,
                    "duration": 0.09649117500003968
                },
                {
                    "name": "C2",
                    "midi": 36,
                    "time": 270.6138862500037,
                    "velocity": 0.47244094488188976,
                    "duration": 0.09649117500003968
                },
                {
                    "name": "A#1",
                    "midi": 34,
                    "time": 270.7016055000037,
                    "velocity": 0.47244094488188976,
                    "duration": 0.09649117500003968
                },
                {
                    "name": "G#1",
                    "midi": 32,
                    "time": 270.78932475000374,
                    "velocity": 0.47244094488188976,
                    "duration": 0.08771925000002057
                },
                {
                    "name": "G1",
                    "midi": 31,
                    "time": 270.87704400000376,
                    "velocity": 0.6850393700787402,
                    "duration": 0.09649117500003968
                },
                {
                    "name": "G2",
                    "midi": 43,
                    "time": 270.9647632500038,
                    "velocity": 0.4409448818897638,
                    "duration": 0.09649117500003968
                },
                {
                    "name": "F#2",
                    "midi": 42,
                    "time": 271.0524825000038,
                    "velocity": 0.4566929133858268,
                    "duration": 0.09649117500003968
                },
                {
                    "name": "G2",
                    "midi": 43,
                    "time": 271.1402017500038,
                    "velocity": 0.4566929133858268,
                    "duration": 0.08771925000002057
                },
                {
                    "name": "F#1",
                    "midi": 30,
                    "time": 271.22792100000385,
                    "velocity": 0.6614173228346457,
                    "duration": 0.09649117500003968
                },
                {
                    "name": "F#2",
                    "midi": 42,
                    "time": 271.31564025000387,
                    "velocity": 0.49606299212598426,
                    "duration": 0.09649117500003968
                },
                {
                    "name": "F2",
                    "midi": 41,
                    "time": 271.4033595000039,
                    "velocity": 0.4881889763779528,
                    "duration": 0.09649117500003968
                },
                {
                    "name": "F#2",
                    "midi": 42,
                    "time": 271.4910787500039,
                    "velocity": 0.4881889763779528,
                    "duration": 0.08771925000002057
                },
                {
                    "name": "F1",
                    "midi": 29,
                    "time": 271.5787980000039,
                    "velocity": 0.7322834645669292,
                    "duration": 0.09649117500003968
                },
                {
                    "name": "F2",
                    "midi": 41,
                    "time": 271.66651725000395,
                    "velocity": 0.5196850393700787,
                    "duration": 0.09649117500003968
                },
                {
                    "name": "E2",
                    "midi": 40,
                    "time": 271.75423650000397,
                    "velocity": 0.5196850393700787,
                    "duration": 0.09649117500003968
                },
                {
                    "name": "F2",
                    "midi": 41,
                    "time": 271.841955750004,
                    "velocity": 0.5196850393700787,
                    "duration": 0.08771925000002057
                },
                {
                    "name": "F1",
                    "midi": 29,
                    "time": 271.929675000004,
                    "velocity": 0.7086614173228346,
                    "duration": 0.09649117500003968
                },
                {
                    "name": "F2",
                    "midi": 41,
                    "time": 272.01739425000403,
                    "velocity": 0.5354330708661418,
                    "duration": 0.09649117500003968
                },
                {
                    "name": "E2",
                    "midi": 40,
                    "time": 272.10511350000405,
                    "velocity": 0.5354330708661418,
                    "duration": 0.09649117500003968
                },
                {
                    "name": "F2",
                    "midi": 41,
                    "time": 272.1928327500041,
                    "velocity": 0.5354330708661418,
                    "duration": 0.08771925000002057
                },
                {
                    "name": "A#1",
                    "midi": 34,
                    "time": 272.2805520000041,
                    "velocity": 0.7559055118110236,
                    "duration": 0.3508770000000254
                },
                {
                    "name": "F4",
                    "midi": 65,
                    "time": 272.8068675000041,
                    "velocity": 0.30708661417322836,
                    "duration": 0.1754384999999843
                },
                {
                    "name": "G4",
                    "midi": 67,
                    "time": 272.9823060000041,
                    "velocity": 0.33070866141732286,
                    "duration": 0.1754384999999843
                },
                {
                    "name": "F4",
                    "midi": 65,
                    "time": 273.15774450000407,
                    "velocity": 0.28346456692913385,
                    "duration": 0.1754384999999843
                },
                {
                    "name": "D#4",
                    "midi": 63,
                    "time": 273.33318300000406,
                    "velocity": 0.30708661417322836,
                    "duration": 0.1754384999999843
                },
                {
                    "name": "D4",
                    "midi": 62,
                    "time": 273.50862150000404,
                    "velocity": 0.28346456692913385,
                    "duration": 0.1754384999999843
                },
                {
                    "name": "F3",
                    "midi": 53,
                    "time": 273.684060000004,
                    "velocity": 0.2755905511811024,
                    "duration": 0.7017539999999372
                },
                {
                    "name": "C4",
                    "midi": 60,
                    "time": 273.684060000004,
                    "velocity": 0.33070866141732286,
                    "duration": 0.1754384999999843
                },
                {
                    "name": "A#3",
                    "midi": 58,
                    "time": 273.859498500004,
                    "velocity": 0.29133858267716534,
                    "duration": 0.1754384999999843
                },
                {
                    "name": "A3",
                    "midi": 57,
                    "time": 274.034937000004,
                    "velocity": 0.30708661417322836,
                    "duration": 0.1754384999999843
                },
                {
                    "name": "G3",
                    "midi": 55,
                    "time": 274.210375500004,
                    "velocity": 0.28346456692913385,
                    "duration": 0.1754384999999843
                },
                {
                    "name": "F2",
                    "midi": 41,
                    "time": 274.38581400000396,
                    "velocity": 0.2755905511811024,
                    "duration": 0.7017539999999372
                },
                {
                    "name": "F3",
                    "midi": 53,
                    "time": 274.38581400000396,
                    "velocity": 0.30708661417322836,
                    "duration": 0.1754384999999843
                },
                {
                    "name": "D#3",
                    "midi": 51,
                    "time": 274.56125250000395,
                    "velocity": 0.29133858267716534,
                    "duration": 0.1754384999999843
                },
                {
                    "name": "D3",
                    "midi": 50,
                    "time": 274.73669100000393,
                    "velocity": 0.28346456692913385,
                    "duration": 0.1754384999999843
                },
                {
                    "name": "C3",
                    "midi": 48,
                    "time": 274.9121295000039,
                    "velocity": 0.2677165354330709,
                    "duration": 0.1754384999999843
                },
                {
                    "name": "A#2",
                    "midi": 46,
                    "time": 275.0875680000039,
                    "velocity": 0.41732283464566927,
                    "duration": 0.3508770000000254
                },
                {
                    "name": "F3",
                    "midi": 53,
                    "time": 275.6138835000039,
                    "velocity": 0.25984251968503935,
                    "duration": 0.1754384999999843
                },
                {
                    "name": "G3",
                    "midi": 55,
                    "time": 275.7893220000039,
                    "velocity": 0.2755905511811024,
                    "duration": 0.1754384999999843
                },
                {
                    "name": "F3",
                    "midi": 53,
                    "time": 275.9647605000039,
                    "velocity": 0.25196850393700787,
                    "duration": 0.1754384999999843
                },
                {
                    "name": "D#3",
                    "midi": 51,
                    "time": 276.14019900000386,
                    "velocity": 0.25984251968503935,
                    "duration": 0.1754384999999843
                },
                {
                    "name": "D3",
                    "midi": 50,
                    "time": 276.31563750000385,
                    "velocity": 0.25196850393700787,
                    "duration": 0.1754384999999843
                },
                {
                    "name": "F2",
                    "midi": 41,
                    "time": 276.49107600000383,
                    "velocity": 0.23622047244094488,
                    "duration": 0.7017539999999372
                },
                {
                    "name": "C3",
                    "midi": 48,
                    "time": 276.49107600000383,
                    "velocity": 0.2755905511811024,
                    "duration": 0.1754384999999843
                },
                {
                    "name": "A#2",
                    "midi": 46,
                    "time": 276.6665145000038,
                    "velocity": 0.25196850393700787,
                    "duration": 0.1754384999999843
                },
                {
                    "name": "A2",
                    "midi": 45,
                    "time": 276.8419530000038,
                    "velocity": 0.25984251968503935,
                    "duration": 0.1754384999999843
                },
                {
                    "name": "G2",
                    "midi": 43,
                    "time": 277.0173915000038,
                    "velocity": 0.2283464566929134,
                    "duration": 0.1754384999999843
                },
                {
                    "name": "F1",
                    "midi": 29,
                    "time": 277.19283000000377,
                    "velocity": 0.23622047244094488,
                    "duration": 0.7017539999999372
                },
                {
                    "name": "F2",
                    "midi": 41,
                    "time": 277.19283000000377,
                    "velocity": 0.25984251968503935,
                    "duration": 0.1754384999999843
                },
                {
                    "name": "D#2",
                    "midi": 39,
                    "time": 277.36826850000375,
                    "velocity": 0.2440944881889764,
                    "duration": 0.1754384999999843
                },
                {
                    "name": "D2",
                    "midi": 38,
                    "time": 277.54370700000374,
                    "velocity": 0.23622047244094488,
                    "duration": 0.1754384999999843
                },
                {
                    "name": "C2",
                    "midi": 36,
                    "time": 277.7191455000037,
                    "velocity": 0.2204724409448819,
                    "duration": 0.1754384999999843
                },
                {
                    "name": "A#1",
                    "midi": 34,
                    "time": 277.8945840000037,
                    "velocity": 0.2440944881889764,
                    "duration": 0.08771925000002057
                },
                {
                    "name": "F3",
                    "midi": 53,
                    "time": 278.24546100000373,
                    "velocity": 0.2755905511811024,
                    "duration": 0.08771925000002057
                },
                {
                    "name": "C4",
                    "midi": 60,
                    "time": 278.24546100000373,
                    "velocity": 0.2755905511811024,
                    "duration": 0.08771925000002057
                },
                {
                    "name": "A#3",
                    "midi": 58,
                    "time": 278.59633800000375,
                    "velocity": 0.2755905511811024,
                    "duration": 0.08771925000002057
                },
                {
                    "name": "F2",
                    "midi": 41,
                    "time": 278.9472150000038,
                    "velocity": 0.5511811023622047,
                    "duration": 0.08771925000002057
                },
                {
                    "name": "F3",
                    "midi": 53,
                    "time": 278.9472150000038,
                    "velocity": 0.6614173228346457,
                    "duration": 0.08771925000002057
                },
                {
                    "name": "A#1",
                    "midi": 34,
                    "time": 279.2980920000038,
                    "velocity": 0.6220472440944882,
                    "duration": 0.08771925000002057
                },
                {
                    "name": "A#2",
                    "midi": 46,
                    "time": 279.2980920000038,
                    "velocity": 0.7322834645669292,
                    "duration": 0.08771925000002057
                }
            ],
            "controlChanges": {},
            "id": 2,
            "name": "Piano left",
            "instrumentNumber": 0,
            "instrument": "acoustic grand piano",
            "instrumentFamily": "piano",
            "channelNumber": 0,
            "isPercussion": false
        },
        {
            "startTime": 0,
            "duration": 0,
            "length": 0,
            "notes": [],
            "controlChanges": {
                "64": [
                    {
                        "number": 64,
                        "time": 2.219297025,
                        "value": 1
                    },
                    {
                        "number": 64,
                        "time": 2.4634489375,
                        "value": 0
                    },
                    {
                        "number": 64,
                        "time": 2.5804079375,
                        "value": 1
                    },
                    {
                        "number": 64,
                        "time": 2.807016,
                        "value": 0
                    },
                    {
                        "number": 64,
                        "time": 5.026313025,
                        "value": 1
                    },
                    {
                        "number": 64,
                        "time": 5.2704649375,
                        "value": 0
                    },
                    {
                        "number": 64,
                        "time": 5.3669561125,
                        "value": 1
                    },
                    {
                        "number": 64,
                        "time": 5.61987995,
                        "value": 0
                    },
                    {
                        "number": 64,
                        "time": 7.1008732875,
                        "value": 1
                    },
                    {
                        "number": 64,
                        "time": 7.3844988625,
                        "value": 0
                    },
                    {
                        "number": 64,
                        "time": 7.4619842,
                        "value": 1
                    },
                    {
                        "number": 64,
                        "time": 7.7295279125,
                        "value": 0
                    },
                    {
                        "number": 64,
                        "time": 7.8230951125,
                        "value": 1
                    },
                    {
                        "number": 64,
                        "time": 8.0804049125,
                        "value": 0
                    },
                    {
                        "number": 64,
                        "time": 8.173972112500001,
                        "value": 1
                    },
                    {
                        "number": 64,
                        "time": 8.432743900000002,
                        "value": 0
                    },
                    {
                        "number": 64,
                        "time": 8.530697062500002,
                        "value": 1
                    },
                    {
                        "number": 64,
                        "time": 8.782158912500002,
                        "value": 0
                    },
                    {
                        "number": 64,
                        "time": 8.855258287500002,
                        "value": 1
                    },
                    {
                        "number": 64,
                        "time": 9.134497900000001,
                        "value": 0
                    },
                    {
                        "number": 64,
                        "time": 9.223679137500001,
                        "value": 1
                    },
                    {
                        "number": 64,
                        "time": 9.480988937500001,
                        "value": 0
                    },
                    {
                        "number": 64,
                        "time": 9.574556137500002,
                        "value": 1
                    },
                    {
                        "number": 64,
                        "time": 9.824556000000001,
                        "value": 0
                    },
                    {
                        "number": 64,
                        "time": 9.9254331375,
                        "value": 1
                    },
                    {
                        "number": 64,
                        "time": 10.1915148625,
                        "value": 0
                    },
                    {
                        "number": 64,
                        "time": 10.2850820625,
                        "value": 1
                    },
                    {
                        "number": 64,
                        "time": 10.540929875000002,
                        "value": 0
                    },
                    {
                        "number": 64,
                        "time": 10.627187137500002,
                        "value": 1
                    },
                    {
                        "number": 64,
                        "time": 10.888882900000002,
                        "value": 0
                    },
                    {
                        "number": 64,
                        "time": 10.960520287500001,
                        "value": 1
                    },
                    {
                        "number": 64,
                        "time": 11.24560785,
                        "value": 0
                    },
                    {
                        "number": 64,
                        "time": 13.447361025000001,
                        "value": 1
                    },
                    {
                        "number": 64,
                        "time": 13.6915129375,
                        "value": 0
                    },
                    {
                        "number": 64,
                        "time": 13.8084719375,
                        "value": 1
                    },
                    {
                        "number": 64,
                        "time": 14.03508,
                        "value": 0
                    },
                    {
                        "number": 64,
                        "time": 16.254377025,
                        "value": 1
                    },
                    {
                        "number": 64,
                        "time": 16.4985289375,
                        "value": 0
                    },
                    {
                        "number": 64,
                        "time": 16.595020112500002,
                        "value": 1
                    },
                    {
                        "number": 64,
                        "time": 16.84794395,
                        "value": 0
                    },
                    {
                        "number": 64,
                        "time": 18.3289372875,
                        "value": 1
                    },
                    {
                        "number": 64,
                        "time": 18.6125628625,
                        "value": 0
                    },
                    {
                        "number": 64,
                        "time": 18.6900482,
                        "value": 1
                    },
                    {
                        "number": 64,
                        "time": 18.9575919125,
                        "value": 0
                    },
                    {
                        "number": 64,
                        "time": 19.0511591125,
                        "value": 1
                    },
                    {
                        "number": 64,
                        "time": 19.3084689125,
                        "value": 0
                    },
                    {
                        "number": 64,
                        "time": 19.4020361125,
                        "value": 1
                    },
                    {
                        "number": 64,
                        "time": 19.6608079,
                        "value": 0
                    },
                    {
                        "number": 64,
                        "time": 19.7587610625,
                        "value": 1
                    },
                    {
                        "number": 64,
                        "time": 20.010222912499998,
                        "value": 0
                    },
                    {
                        "number": 64,
                        "time": 20.0833222875,
                        "value": 1
                    },
                    {
                        "number": 64,
                        "time": 20.3625619,
                        "value": 0
                    },
                    {
                        "number": 64,
                        "time": 20.4517431375,
                        "value": 1
                    },
                    {
                        "number": 64,
                        "time": 20.7090529375,
                        "value": 0
                    },
                    {
                        "number": 64,
                        "time": 20.8026201375,
                        "value": 1
                    },
                    {
                        "number": 64,
                        "time": 21.05262,
                        "value": 0
                    },
                    {
                        "number": 64,
                        "time": 21.1534971375,
                        "value": 1
                    },
                    {
                        "number": 64,
                        "time": 21.4195788625,
                        "value": 0
                    },
                    {
                        "number": 64,
                        "time": 21.5131460625,
                        "value": 1
                    },
                    {
                        "number": 64,
                        "time": 21.768993875,
                        "value": 0
                    },
                    {
                        "number": 64,
                        "time": 21.855251137499998,
                        "value": 1
                    },
                    {
                        "number": 64,
                        "time": 22.1169469,
                        "value": 0
                    },
                    {
                        "number": 64,
                        "time": 22.1885842875,
                        "value": 1
                    },
                    {
                        "number": 64,
                        "time": 22.47367185,
                        "value": 0
                    },
                    {
                        "number": 64,
                        "time": 23.195893674999997,
                        "value": 1
                    },
                    {
                        "number": 64,
                        "time": 24.577471862499998,
                        "value": 0
                    },
                    {
                        "number": 64,
                        "time": 24.657881174999996,
                        "value": 1
                    },
                    {
                        "number": 64,
                        "time": 24.923962899999996,
                        "value": 0
                    },
                    {
                        "number": 64,
                        "time": 24.979518424999995,
                        "value": 1
                    },
                    {
                        "number": 64,
                        "time": 25.263143999999993,
                        "value": 0
                    },
                    {
                        "number": 64,
                        "time": 26.254371524999993,
                        "value": 1
                    },
                    {
                        "number": 64,
                        "time": 26.666651999999992,
                        "value": 0
                    },
                    {
                        "number": 64,
                        "time": 26.73390342499999,
                        "value": 1
                    },
                    {
                        "number": 64,
                        "time": 27.38010189999999,
                        "value": 0
                    },
                    {
                        "number": 64,
                        "time": 27.44442934999999,
                        "value": 1
                    },
                    {
                        "number": 64,
                        "time": 27.73097889999999,
                        "value": 0
                    },
                    {
                        "number": 64,
                        "time": 27.78653442499999,
                        "value": 1
                    },
                    {
                        "number": 64,
                        "time": 28.070159999999987,
                        "value": 0
                    },
                    {
                        "number": 64,
                        "time": 28.245598499999986,
                        "value": 1
                    },
                    {
                        "number": 64,
                        "time": 28.596475499999986,
                        "value": 0
                    },
                    {
                        "number": 64,
                        "time": 29.040919699999986,
                        "value": 1
                    },
                    {
                        "number": 64,
                        "time": 29.473667999999986,
                        "value": 0
                    },
                    {
                        "number": 64,
                        "time": 29.536533462499985,
                        "value": 1
                    },
                    {
                        "number": 64,
                        "time": 30.188579887499984,
                        "value": 0
                    },
                    {
                        "number": 64,
                        "time": 30.258755287499984,
                        "value": 1
                    },
                    {
                        "number": 64,
                        "time": 30.877175999999984,
                        "value": 0
                    },
                    {
                        "number": 64,
                        "time": 31.052614499999983,
                        "value": 1
                    },
                    {
                        "number": 64,
                        "time": 31.403491499999983,
                        "value": 0
                    },
                    {
                        "number": 64,
                        "time": 31.641795462499985,
                        "value": 1
                    },
                    {
                        "number": 64,
                        "time": 32.29676586249999,
                        "value": 0
                    },
                    {
                        "number": 64,
                        "time": 32.37425119999999,
                        "value": 1
                    },
                    {
                        "number": 64,
                        "time": 33.00290582499999,
                        "value": 0
                    },
                    {
                        "number": 64,
                        "time": 33.070157249999994,
                        "value": 1
                    },
                    {
                        "number": 64,
                        "time": 33.684191999999996,
                        "value": 0
                    },
                    {
                        "number": 64,
                        "time": 33.757291374999994,
                        "value": 1
                    },
                    {
                        "number": 64,
                        "time": 34.412261775,
                        "value": 0
                    },
                    {
                        "number": 64,
                        "time": 34.473665249999996,
                        "value": 1
                    },
                    {
                        "number": 64,
                        "time": 34.757290825,
                        "value": 0
                    },
                    {
                        "number": 64,
                        "time": 34.809922375,
                        "value": 1
                    },
                    {
                        "number": 64,
                        "time": 35.1037818625,
                        "value": 0
                    },
                    {
                        "number": 64,
                        "time": 35.1973490625,
                        "value": 1
                    },
                    {
                        "number": 64,
                        "time": 35.453196875,
                        "value": 0
                    },
                    {
                        "number": 64,
                        "time": 35.81576977500001,
                        "value": 0
                    },
                    {
                        "number": 64,
                        "time": 35.877173250000006,
                        "value": 1
                    },
                    {
                        "number": 64,
                        "time": 36.16079882500001,
                        "value": 0
                    },
                    {
                        "number": 64,
                        "time": 36.21343037500001,
                        "value": 1
                    },
                    {
                        "number": 64,
                        "time": 36.50728986250001,
                        "value": 0
                    },
                    {
                        "number": 64,
                        "time": 36.60085706250001,
                        "value": 1
                    },
                    {
                        "number": 64,
                        "time": 36.85670487500001,
                        "value": 0
                    },
                    {
                        "number": 64,
                        "time": 37.219277775000016,
                        "value": 0
                    },
                    {
                        "number": 64,
                        "time": 37.280681250000015,
                        "value": 1
                    },
                    {
                        "number": 64,
                        "time": 37.56430682500002,
                        "value": 0
                    },
                    {
                        "number": 64,
                        "time": 37.61693837500002,
                        "value": 1
                    },
                    {
                        "number": 64,
                        "time": 37.91079786250002,
                        "value": 0
                    },
                    {
                        "number": 64,
                        "time": 38.00436506250002,
                        "value": 1
                    },
                    {
                        "number": 64,
                        "time": 38.26021287500002,
                        "value": 0
                    },
                    {
                        "number": 64,
                        "time": 40.02629377500002,
                        "value": 0
                    },
                    {
                        "number": 64,
                        "time": 40.15494867500002,
                        "value": 1
                    },
                    {
                        "number": 64,
                        "time": 40.37132282500002,
                        "value": 0
                    },
                    {
                        "number": 64,
                        "time": 40.478047912500024,
                        "value": 1
                    },
                    {
                        "number": 64,
                        "time": 40.71781386250002,
                        "value": 0
                    },
                    {
                        "number": 64,
                        "time": 40.811381062500026,
                        "value": 1
                    },
                    {
                        "number": 64,
                        "time": 41.067228875000026,
                        "value": 0
                    },
                    {
                        "number": 64,
                        "time": 41.42980177500003,
                        "value": 0
                    },
                    {
                        "number": 64,
                        "time": 41.55845667500003,
                        "value": 1
                    },
                    {
                        "number": 64,
                        "time": 41.77483082500003,
                        "value": 0
                    },
                    {
                        "number": 64,
                        "time": 41.88155591250003,
                        "value": 1
                    },
                    {
                        "number": 64,
                        "time": 42.12132186250003,
                        "value": 0
                    },
                    {
                        "number": 64,
                        "time": 42.214889062500035,
                        "value": 1
                    },
                    {
                        "number": 64,
                        "time": 42.470736875000036,
                        "value": 0
                    },
                    {
                        "number": 64,
                        "time": 44.98535537500003,
                        "value": 1
                    },
                    {
                        "number": 64,
                        "time": 46.327459900000036,
                        "value": 0
                    },
                    {
                        "number": 64,
                        "time": 46.36985753750004,
                        "value": 1
                    },
                    {
                        "number": 64,
                        "time": 47.71927200000004,
                        "value": 0
                    },
                    {
                        "number": 64,
                        "time": 47.79237137500004,
                        "value": 1
                    },
                    {
                        "number": 64,
                        "time": 49.13447590000004,
                        "value": 0
                    },
                    {
                        "number": 64,
                        "time": 49.17687353750004,
                        "value": 1
                    },
                    {
                        "number": 64,
                        "time": 50.526288000000044,
                        "value": 0
                    },
                    {
                        "number": 64,
                        "time": 50.59938737500004,
                        "value": 1
                    },
                    {
                        "number": 64,
                        "time": 51.92979600000004,
                        "value": 0
                    },
                    {
                        "number": 64,
                        "time": 52.00289537500004,
                        "value": 1
                    },
                    {
                        "number": 64,
                        "time": 53.333304000000034,
                        "value": 0
                    },
                    {
                        "number": 64,
                        "time": 53.40640337500003,
                        "value": 1
                    },
                    {
                        "number": 64,
                        "time": 54.745583925000034,
                        "value": 0
                    },
                    {
                        "number": 64,
                        "time": 54.799677462500036,
                        "value": 1
                    },
                    {
                        "number": 64,
                        "time": 55.45172388750004,
                        "value": 0
                    },
                    {
                        "number": 64,
                        "time": 55.49265953750004,
                        "value": 1
                    },
                    {
                        "number": 64,
                        "time": 55.80113890000004,
                        "value": 0
                    },
                    {
                        "number": 64,
                        "time": 55.86108038750004,
                        "value": 1
                    },
                    {
                        "number": 64,
                        "time": 56.14032000000004,
                        "value": 0
                    },
                    {
                        "number": 64,
                        "time": 70.99118902500004,
                        "value": 1
                    },
                    {
                        "number": 64,
                        "time": 71.23534093750004,
                        "value": 0
                    },
                    {
                        "number": 64,
                        "time": 71.35229993750004,
                        "value": 1
                    },
                    {
                        "number": 64,
                        "time": 71.57890800000004,
                        "value": 0
                    },
                    {
                        "number": 64,
                        "time": 73.79820502500004,
                        "value": 1
                    },
                    {
                        "number": 64,
                        "time": 74.04235693750005,
                        "value": 0
                    },
                    {
                        "number": 64,
                        "time": 74.13884811250004,
                        "value": 1
                    },
                    {
                        "number": 64,
                        "time": 74.39177195000005,
                        "value": 0
                    },
                    {
                        "number": 64,
                        "time": 75.87276528750004,
                        "value": 1
                    },
                    {
                        "number": 64,
                        "time": 76.15639086250005,
                        "value": 0
                    },
                    {
                        "number": 64,
                        "time": 76.23387620000004,
                        "value": 1
                    },
                    {
                        "number": 64,
                        "time": 76.50141991250004,
                        "value": 0
                    },
                    {
                        "number": 64,
                        "time": 76.59498711250004,
                        "value": 1
                    },
                    {
                        "number": 64,
                        "time": 76.85229691250004,
                        "value": 0
                    },
                    {
                        "number": 64,
                        "time": 76.94586411250003,
                        "value": 1
                    },
                    {
                        "number": 64,
                        "time": 77.20463590000003,
                        "value": 0
                    },
                    {
                        "number": 64,
                        "time": 77.30258906250003,
                        "value": 1
                    },
                    {
                        "number": 64,
                        "time": 77.55405091250003,
                        "value": 0
                    },
                    {
                        "number": 64,
                        "time": 77.62715028750003,
                        "value": 1
                    },
                    {
                        "number": 64,
                        "time": 77.90638990000004,
                        "value": 0
                    },
                    {
                        "number": 64,
                        "time": 77.99557113750004,
                        "value": 1
                    },
                    {
                        "number": 64,
                        "time": 78.25288093750004,
                        "value": 0
                    },
                    {
                        "number": 64,
                        "time": 78.34644813750003,
                        "value": 1
                    },
                    {
                        "number": 64,
                        "time": 78.59644800000004,
                        "value": 0
                    },
                    {
                        "number": 64,
                        "time": 78.69732513750004,
                        "value": 1
                    },
                    {
                        "number": 64,
                        "time": 78.96340686250005,
                        "value": 0
                    },
                    {
                        "number": 64,
                        "time": 79.05697406250005,
                        "value": 1
                    },
                    {
                        "number": 64,
                        "time": 79.31282187500004,
                        "value": 0
                    },
                    {
                        "number": 64,
                        "time": 79.39907913750004,
                        "value": 1
                    },
                    {
                        "number": 64,
                        "time": 79.66077490000004,
                        "value": 0
                    },
                    {
                        "number": 64,
                        "time": 79.73241228750004,
                        "value": 1
                    },
                    {
                        "number": 64,
                        "time": 80.01749985000004,
                        "value": 0
                    },
                    {
                        "number": 64,
                        "time": 82.21925302500003,
                        "value": 1
                    },
                    {
                        "number": 64,
                        "time": 82.46340493750003,
                        "value": 0
                    },
                    {
                        "number": 64,
                        "time": 82.58036393750002,
                        "value": 1
                    },
                    {
                        "number": 64,
                        "time": 82.80697200000003,
                        "value": 0
                    },
                    {
                        "number": 64,
                        "time": 85.02626902500003,
                        "value": 1
                    },
                    {
                        "number": 64,
                        "time": 85.27042093750003,
                        "value": 0
                    },
                    {
                        "number": 64,
                        "time": 85.36691211250003,
                        "value": 1
                    },
                    {
                        "number": 64,
                        "time": 85.61983595000004,
                        "value": 0
                    },
                    {
                        "number": 64,
                        "time": 87.10082928750003,
                        "value": 1
                    },
                    {
                        "number": 64,
                        "time": 87.38445486250004,
                        "value": 0
                    },
                    {
                        "number": 64,
                        "time": 87.46194020000003,
                        "value": 1
                    },
                    {
                        "number": 64,
                        "time": 87.72948391250003,
                        "value": 0
                    },
                    {
                        "number": 64,
                        "time": 87.82305111250002,
                        "value": 1
                    },
                    {
                        "number": 64,
                        "time": 88.08036091250003,
                        "value": 0
                    },
                    {
                        "number": 64,
                        "time": 88.17392811250002,
                        "value": 1
                    },
                    {
                        "number": 64,
                        "time": 88.43269990000002,
                        "value": 0
                    },
                    {
                        "number": 64,
                        "time": 88.53065306250002,
                        "value": 1
                    },
                    {
                        "number": 64,
                        "time": 88.78211491250002,
                        "value": 0
                    },
                    {
                        "number": 64,
                        "time": 88.85521428750002,
                        "value": 1
                    },
                    {
                        "number": 64,
                        "time": 89.13445390000003,
                        "value": 0
                    },
                    {
                        "number": 64,
                        "time": 89.22363513750003,
                        "value": 1
                    },
                    {
                        "number": 64,
                        "time": 89.48094493750003,
                        "value": 0
                    },
                    {
                        "number": 64,
                        "time": 89.57451213750002,
                        "value": 1
                    },
                    {
                        "number": 64,
                        "time": 89.82451200000003,
                        "value": 0
                    },
                    {
                        "number": 64,
                        "time": 89.92538913750003,
                        "value": 1
                    },
                    {
                        "number": 64,
                        "time": 90.19147086250004,
                        "value": 0
                    },
                    {
                        "number": 64,
                        "time": 90.28503806250004,
                        "value": 1
                    },
                    {
                        "number": 64,
                        "time": 90.54088587500003,
                        "value": 0
                    },
                    {
                        "number": 64,
                        "time": 90.62714313750003,
                        "value": 1
                    },
                    {
                        "number": 64,
                        "time": 90.88883890000002,
                        "value": 0
                    },
                    {
                        "number": 64,
                        "time": 90.96047628750003,
                        "value": 1
                    },
                    {
                        "number": 64,
                        "time": 91.24556385000002,
                        "value": 0
                    },
                    {
                        "number": 64,
                        "time": 91.96778567500003,
                        "value": 1
                    },
                    {
                        "number": 64,
                        "time": 93.34936386250003,
                        "value": 0
                    },
                    {
                        "number": 64,
                        "time": 93.42977317500002,
                        "value": 1
                    },
                    {
                        "number": 64,
                        "time": 93.69585490000003,
                        "value": 0
                    },
                    {
                        "number": 64,
                        "time": 93.75141042500003,
                        "value": 1
                    },
                    {
                        "number": 64,
                        "time": 94.03503600000003,
                        "value": 0
                    },
                    {
                        "number": 64,
                        "time": 95.02626352500003,
                        "value": 1
                    },
                    {
                        "number": 64,
                        "time": 95.43854400000004,
                        "value": 0
                    },
                    {
                        "number": 64,
                        "time": 95.57743281250004,
                        "value": 1
                    },
                    {
                        "number": 64,
                        "time": 96.15199390000004,
                        "value": 0
                    },
                    {
                        "number": 64,
                        "time": 96.21632135000003,
                        "value": 1
                    },
                    {
                        "number": 64,
                        "time": 96.50287090000003,
                        "value": 0
                    },
                    {
                        "number": 64,
                        "time": 96.55842642500004,
                        "value": 1
                    },
                    {
                        "number": 64,
                        "time": 96.84205200000004,
                        "value": 0
                    },
                    {
                        "number": 64,
                        "time": 97.01749050000004,
                        "value": 1
                    },
                    {
                        "number": 64,
                        "time": 97.36836750000003,
                        "value": 0
                    },
                    {
                        "number": 64,
                        "time": 101.05257600000003,
                        "value": 0
                    },
                    {
                        "number": 64,
                        "time": 105.26310000000004,
                        "value": 0
                    },
                    {
                        "number": 64,
                        "time": 106.69146178750003,
                        "value": 1
                    },
                    {
                        "number": 64,
                        "time": 106.81719271250003,
                        "value": 0
                    },
                    {
                        "number": 64,
                        "time": 107.05988263750002,
                        "value": 1
                    },
                    {
                        "number": 64,
                        "time": 107.20023343750002,
                        "value": 0
                    },
                    {
                        "number": 64,
                        "time": 108.09935575000002,
                        "value": 1
                    },
                    {
                        "number": 64,
                        "time": 108.43415088750001,
                        "value": 0
                    },
                    {
                        "number": 64,
                        "time": 108.47947250000001,
                        "value": 1
                    },
                    {
                        "number": 64,
                        "time": 108.78502788750001,
                        "value": 0
                    },
                    {
                        "number": 64,
                        "time": 108.8552032875,
                        "value": 1
                    },
                    {
                        "number": 64,
                        "time": 109.1300569375,
                        "value": 0
                    },
                    {
                        "number": 64,
                        "time": 109.1812265,
                        "value": 1
                    },
                    {
                        "number": 64,
                        "time": 109.473624,
                        "value": 0
                    },
                    {
                        "number": 64,
                        "time": 110.236781475,
                        "value": 1
                    },
                    {
                        "number": 64,
                        "time": 110.53210295,
                        "value": 0
                    },
                    {
                        "number": 64,
                        "time": 110.5745005875,
                        "value": 1
                    },
                    {
                        "number": 64,
                        "time": 110.877132,
                        "value": 0
                    },
                    {
                        "number": 64,
                        "time": 111.640289475,
                        "value": 1
                    },
                    {
                        "number": 64,
                        "time": 111.93561095,
                        "value": 0
                    },
                    {
                        "number": 64,
                        "time": 111.9780085875,
                        "value": 1
                    },
                    {
                        "number": 64,
                        "time": 112.28064,
                        "value": 0
                    },
                    {
                        "number": 64,
                        "time": 115.24262667500001,
                        "value": 1
                    },
                    {
                        "number": 64,
                        "time": 115.82011173750001,
                        "value": 0
                    },
                    {
                        "number": 64,
                        "time": 118.04964267500002,
                        "value": 1
                    },
                    {
                        "number": 64,
                        "time": 118.55549035000001,
                        "value": 0
                    },
                    {
                        "number": 64,
                        "time": 120.76893942500001,
                        "value": 1
                    },
                    {
                        "number": 64,
                        "time": 121.23677542500002,
                        "value": 0
                    },
                    {
                        "number": 64,
                        "time": 123.57595542500002,
                        "value": 1
                    },
                    {
                        "number": 64,
                        "time": 124.04379142500002,
                        "value": 0
                    },
                    {
                        "number": 64,
                        "time": 124.91221200000003,
                        "value": 0
                    },
                    {
                        "number": 64,
                        "time": 126.31572000000003,
                        "value": 0
                    },
                    {
                        "number": 64,
                        "time": 127.71922800000003,
                        "value": 0
                    },
                    {
                        "number": 64,
                        "time": 129.12273600000003,
                        "value": 0
                    },
                    {
                        "number": 64,
                        "time": 130.52624400000002,
                        "value": 0
                    },
                    {
                        "number": 64,
                        "time": 132.055482925,
                        "value": 1
                    },
                    {
                        "number": 64,
                        "time": 132.651973825,
                        "value": 0
                    },
                    {
                        "number": 64,
                        "time": 133.33326,
                        "value": 0
                    },
                    {
                        "number": 64,
                        "time": 137.543784,
                        "value": 0
                    },
                    {
                        "number": 64,
                        "time": 138.97214578749998,
                        "value": 1
                    },
                    {
                        "number": 64,
                        "time": 139.09787671249998,
                        "value": 0
                    },
                    {
                        "number": 64,
                        "time": 139.3405666375,
                        "value": 1
                    },
                    {
                        "number": 64,
                        "time": 139.48091743749998,
                        "value": 0
                    },
                    {
                        "number": 64,
                        "time": 140.38003974999998,
                        "value": 1
                    },
                    {
                        "number": 64,
                        "time": 140.7148348875,
                        "value": 0
                    },
                    {
                        "number": 64,
                        "time": 140.7601565,
                        "value": 1
                    },
                    {
                        "number": 64,
                        "time": 141.0657118875,
                        "value": 0
                    },
                    {
                        "number": 64,
                        "time": 141.1358872875,
                        "value": 1
                    },
                    {
                        "number": 64,
                        "time": 141.4107409375,
                        "value": 0
                    },
                    {
                        "number": 64,
                        "time": 141.46191050000002,
                        "value": 1
                    },
                    {
                        "number": 64,
                        "time": 141.754308,
                        "value": 0
                    },
                    {
                        "number": 64,
                        "time": 142.51746547500002,
                        "value": 1
                    },
                    {
                        "number": 64,
                        "time": 142.81278695000003,
                        "value": 0
                    },
                    {
                        "number": 64,
                        "time": 142.85518458750002,
                        "value": 1
                    },
                    {
                        "number": 64,
                        "time": 143.15781600000003,
                        "value": 0
                    },
                    {
                        "number": 64,
                        "time": 143.92097347500004,
                        "value": 1
                    },
                    {
                        "number": 64,
                        "time": 144.21629495000005,
                        "value": 0
                    },
                    {
                        "number": 64,
                        "time": 144.25869258750004,
                        "value": 1
                    },
                    {
                        "number": 64,
                        "time": 144.56132400000004,
                        "value": 0
                    },
                    {
                        "number": 64,
                        "time": 145.96483200000003,
                        "value": 0
                    },
                    {
                        "number": 64,
                        "time": 147.36834000000002,
                        "value": 0
                    },
                    {
                        "number": 64,
                        "time": 148.771848,
                        "value": 0
                    },
                    {
                        "number": 64,
                        "time": 154.4107337875,
                        "value": 1
                    },
                    {
                        "number": 64,
                        "time": 155.81424178749998,
                        "value": 0
                    },
                    {
                        "number": 64,
                        "time": 155.85663942499997,
                        "value": 1
                    },
                    {
                        "number": 64,
                        "time": 157.19289599999996,
                        "value": 0
                    },
                    {
                        "number": 64,
                        "time": 157.60663846249997,
                        "value": 1
                    },
                    {
                        "number": 64,
                        "time": 157.91219384999997,
                        "value": 0
                    },
                    {
                        "number": 64,
                        "time": 158.27622873749996,
                        "value": 1
                    },
                    {
                        "number": 64,
                        "time": 158.59640399999995,
                        "value": 0
                    },
                    {
                        "number": 64,
                        "time": 159.02330434999996,
                        "value": 1
                    },
                    {
                        "number": 64,
                        "time": 159.31423986249996,
                        "value": 0
                    },
                    {
                        "number": 64,
                        "time": 160.38149073749997,
                        "value": 1
                    },
                    {
                        "number": 64,
                        "time": 160.722133825,
                        "value": 0
                    },
                    {
                        "number": 64,
                        "time": 161.0832447375,
                        "value": 1
                    },
                    {
                        "number": 64,
                        "time": 161.4078059625,
                        "value": 0
                    },
                    {
                        "number": 64,
                        "time": 161.79523265,
                        "value": 1
                    },
                    {
                        "number": 64,
                        "time": 162.1271038125,
                        "value": 0
                    },
                    {
                        "number": 64,
                        "time": 162.880027375,
                        "value": 1
                    },
                    {
                        "number": 64,
                        "time": 163.1695009,
                        "value": 0
                    },
                    {
                        "number": 64,
                        "time": 163.271840025,
                        "value": 1
                    },
                    {
                        "number": 64,
                        "time": 163.51745392499998,
                        "value": 0
                    },
                    {
                        "number": 64,
                        "time": 163.64318484999998,
                        "value": 1
                    },
                    {
                        "number": 64,
                        "time": 163.8712549,
                        "value": 0
                    },
                    {
                        "number": 64,
                        "time": 163.97359402499998,
                        "value": 1
                    },
                    {
                        "number": 64,
                        "time": 164.210436,
                        "value": 0
                    },
                    {
                        "number": 64,
                        "time": 164.27768742499998,
                        "value": 1
                    },
                    {
                        "number": 64,
                        "time": 164.57593287499998,
                        "value": 0
                    },
                    {
                        "number": 64,
                        "time": 164.63441237499998,
                        "value": 1
                    },
                    {
                        "number": 64,
                        "time": 164.93411981249997,
                        "value": 0
                    },
                    {
                        "number": 64,
                        "time": 164.99552328749996,
                        "value": 1
                    },
                    {
                        "number": 64,
                        "time": 165.27037693749998,
                        "value": 0
                    },
                    {
                        "number": 64,
                        "time": 165.33031842499997,
                        "value": 1
                    },
                    {
                        "number": 64,
                        "time": 165.61394399999998,
                        "value": 0
                    },
                    {
                        "number": 64,
                        "time": 165.73090299999998,
                        "value": 1
                    },
                    {
                        "number": 64,
                        "time": 165.98382683749998,
                        "value": 0
                    },
                    {
                        "number": 64,
                        "time": 166.03645838749998,
                        "value": 1
                    },
                    {
                        "number": 64,
                        "time": 166.3376278125,
                        "value": 0
                    },
                    {
                        "number": 64,
                        "time": 166.40341725,
                        "value": 1
                    },
                    {
                        "number": 64,
                        "time": 166.6782709,
                        "value": 0
                    },
                    {
                        "number": 64,
                        "time": 166.74259835,
                        "value": 1
                    },
                    {
                        "number": 64,
                        "time": 167.03060988750002,
                        "value": 0
                    },
                    {
                        "number": 64,
                        "time": 167.07154553750001,
                        "value": 1
                    },
                    {
                        "number": 64,
                        "time": 167.2382121125,
                        "value": 0
                    },
                    {
                        "number": 64,
                        "time": 167.2849957125,
                        "value": 1
                    },
                    {
                        "number": 64,
                        "time": 167.3844108625,
                        "value": 0
                    },
                    {
                        "number": 64,
                        "time": 167.4311944625,
                        "value": 1
                    },
                    {
                        "number": 64,
                        "time": 167.558387375,
                        "value": 0
                    },
                    {
                        "number": 64,
                        "time": 167.611018925,
                        "value": 1
                    },
                    {
                        "number": 64,
                        "time": 167.7352878625,
                        "value": 0
                    },
                    {
                        "number": 64,
                        "time": 167.7820714625,
                        "value": 1
                    },
                    {
                        "number": 64,
                        "time": 167.9165743125,
                        "value": 0
                    },
                    {
                        "number": 64,
                        "time": 167.961895925,
                        "value": 1
                    },
                    {
                        "number": 64,
                        "time": 168.0890888375,
                        "value": 0
                    },
                    {
                        "number": 64,
                        "time": 168.14610635,
                        "value": 1
                    },
                    {
                        "number": 64,
                        "time": 168.26160336249998,
                        "value": 0
                    },
                    {
                        "number": 64,
                        "time": 168.2996150375,
                        "value": 1
                    },
                    {
                        "number": 64,
                        "time": 168.42095999999998,
                        "value": 0
                    },
                    {
                        "number": 64,
                        "time": 169.23674902499997,
                        "value": 1
                    },
                    {
                        "number": 64,
                        "time": 169.48090093749997,
                        "value": 0
                    },
                    {
                        "number": 64,
                        "time": 169.59785993749998,
                        "value": 1
                    },
                    {
                        "number": 64,
                        "time": 169.82446799999997,
                        "value": 0
                    },
                    {
                        "number": 64,
                        "time": 170.74844409999997,
                        "value": 1
                    },
                    {
                        "number": 64,
                        "time": 170.88440893749998,
                        "value": 0
                    },
                    {
                        "number": 64,
                        "time": 170.9355785,
                        "value": 1
                    },
                    {
                        "number": 64,
                        "time": 171.0525375,
                        "value": 0
                    },
                    {
                        "number": 64,
                        "time": 171.14025675,
                        "value": 1
                    },
                    {
                        "number": 64,
                        "time": 171.236747925,
                        "value": 0
                    },
                    {
                        "number": 64,
                        "time": 171.28645550000002,
                        "value": 1
                    },
                    {
                        "number": 64,
                        "time": 171.41218642500002,
                        "value": 0
                    },
                    {
                        "number": 64,
                        "time": 171.47943785,
                        "value": 1
                    },
                    {
                        "number": 64,
                        "time": 171.5920108875,
                        "value": 0
                    },
                    {
                        "number": 64,
                        "time": 171.6504903875,
                        "value": 1
                    },
                    {
                        "number": 64,
                        "time": 171.76891137500002,
                        "value": 0
                    },
                    {
                        "number": 64,
                        "time": 171.82154292500002,
                        "value": 1
                    },
                    {
                        "number": 64,
                        "time": 171.9370399375,
                        "value": 0
                    },
                    {
                        "number": 64,
                        "time": 171.996981425,
                        "value": 1
                    },
                    {
                        "number": 64,
                        "time": 172.1241743375,
                        "value": 0
                    },
                    {
                        "number": 64,
                        "time": 172.17241992499999,
                        "value": 1
                    },
                    {
                        "number": 64,
                        "time": 172.29376488749998,
                        "value": 0
                    },
                    {
                        "number": 64,
                        "time": 172.33470053749997,
                        "value": 1
                    },
                    {
                        "number": 64,
                        "time": 172.47066537499998,
                        "value": 0
                    },
                    {
                        "number": 64,
                        "time": 172.52329692499998,
                        "value": 1
                    },
                    {
                        "number": 64,
                        "time": 172.63148399999997,
                        "value": 0
                    },
                    {
                        "number": 64,
                        "time": 173.57592792499997,
                        "value": 1
                    },
                    {
                        "number": 64,
                        "time": 173.68996294999997,
                        "value": 0
                    },
                    {
                        "number": 64,
                        "time": 173.73674654999996,
                        "value": 1
                    },
                    {
                        "number": 64,
                        "time": 174.03499199999996,
                        "value": 0
                    },
                    {
                        "number": 64,
                        "time": 174.11832528749997,
                        "value": 1
                    },
                    {
                        "number": 64,
                        "time": 174.40195086249997,
                        "value": 0
                    },
                    {
                        "number": 64,
                        "time": 174.47943619999998,
                        "value": 1
                    },
                    {
                        "number": 64,
                        "time": 174.74697991249997,
                        "value": 0
                    },
                    {
                        "number": 64,
                        "time": 174.84054711249996,
                        "value": 1
                    },
                    {
                        "number": 64,
                        "time": 175.09785691249996,
                        "value": 0
                    },
                    {
                        "number": 64,
                        "time": 175.19142411249996,
                        "value": 1
                    },
                    {
                        "number": 64,
                        "time": 175.45019589999995,
                        "value": 0
                    },
                    {
                        "number": 64,
                        "time": 175.54814906249996,
                        "value": 1
                    },
                    {
                        "number": 64,
                        "time": 175.79961091249996,
                        "value": 0
                    },
                    {
                        "number": 64,
                        "time": 175.87271028749996,
                        "value": 1
                    },
                    {
                        "number": 64,
                        "time": 176.15194989999995,
                        "value": 0
                    },
                    {
                        "number": 64,
                        "time": 176.24113113749993,
                        "value": 1
                    },
                    {
                        "number": 64,
                        "time": 176.49844093749994,
                        "value": 0
                    },
                    {
                        "number": 64,
                        "time": 176.59200813749993,
                        "value": 1
                    },
                    {
                        "number": 64,
                        "time": 176.84200799999994,
                        "value": 0
                    },
                    {
                        "number": 64,
                        "time": 176.94288513749993,
                        "value": 1
                    },
                    {
                        "number": 64,
                        "time": 177.20896686249992,
                        "value": 0
                    },
                    {
                        "number": 64,
                        "time": 177.30253406249992,
                        "value": 1
                    },
                    {
                        "number": 64,
                        "time": 177.55838187499992,
                        "value": 0
                    },
                    {
                        "number": 64,
                        "time": 177.64463913749992,
                        "value": 1
                    },
                    {
                        "number": 64,
                        "time": 177.90633489999993,
                        "value": 0
                    },
                    {
                        "number": 64,
                        "time": 177.97797228749994,
                        "value": 1
                    },
                    {
                        "number": 64,
                        "time": 178.26305984999993,
                        "value": 0
                    },
                    {
                        "number": 64,
                        "time": 178.98528167499992,
                        "value": 1
                    },
                    {
                        "number": 64,
                        "time": 180.36685986249992,
                        "value": 0
                    },
                    {
                        "number": 64,
                        "time": 180.44726917499992,
                        "value": 1
                    },
                    {
                        "number": 64,
                        "time": 180.7133508999999,
                        "value": 0
                    },
                    {
                        "number": 64,
                        "time": 180.7689064249999,
                        "value": 1
                    },
                    {
                        "number": 64,
                        "time": 181.0525319999999,
                        "value": 0
                    },
                    {
                        "number": 64,
                        "time": 182.0437595249999,
                        "value": 1
                    },
                    {
                        "number": 64,
                        "time": 182.4560399999999,
                        "value": 0
                    },
                    {
                        "number": 64,
                        "time": 182.52329142499988,
                        "value": 1
                    },
                    {
                        "number": 64,
                        "time": 183.1694898999999,
                        "value": 0
                    },
                    {
                        "number": 64,
                        "time": 183.2338173499999,
                        "value": 1
                    },
                    {
                        "number": 64,
                        "time": 183.52036689999989,
                        "value": 0
                    },
                    {
                        "number": 64,
                        "time": 183.57592242499987,
                        "value": 1
                    },
                    {
                        "number": 64,
                        "time": 183.85954799999988,
                        "value": 0
                    },
                    {
                        "number": 64,
                        "time": 184.0349864999999,
                        "value": 1
                    },
                    {
                        "number": 64,
                        "time": 184.38586349999989,
                        "value": 0
                    },
                    {
                        "number": 64,
                        "time": 184.83030769999988,
                        "value": 1
                    },
                    {
                        "number": 64,
                        "time": 185.26305599999986,
                        "value": 0
                    },
                    {
                        "number": 64,
                        "time": 185.32592146249988,
                        "value": 1
                    },
                    {
                        "number": 64,
                        "time": 185.9779678874999,
                        "value": 0
                    },
                    {
                        "number": 64,
                        "time": 186.0481432874999,
                        "value": 1
                    },
                    {
                        "number": 64,
                        "time": 186.6665639999999,
                        "value": 0
                    },
                    {
                        "number": 64,
                        "time": 186.84200249999992,
                        "value": 1
                    },
                    {
                        "number": 64,
                        "time": 187.19287949999992,
                        "value": 0
                    },
                    {
                        "number": 64,
                        "time": 187.6373236999999,
                        "value": 1
                    },
                    {
                        "number": 64,
                        "time": 188.0700719999999,
                        "value": 0
                    },
                    {
                        "number": 64,
                        "time": 188.1329374624999,
                        "value": 1
                    },
                    {
                        "number": 64,
                        "time": 188.78498388749992,
                        "value": 0
                    },
                    {
                        "number": 64,
                        "time": 188.85515928749993,
                        "value": 1
                    },
                    {
                        "number": 64,
                        "time": 189.47357999999994,
                        "value": 0
                    },
                    {
                        "number": 64,
                        "time": 189.64901849999995,
                        "value": 1
                    },
                    {
                        "number": 64,
                        "time": 189.99989549999995,
                        "value": 0
                    },
                    {
                        "number": 64,
                        "time": 190.23819946249995,
                        "value": 1
                    },
                    {
                        "number": 64,
                        "time": 190.89316986249995,
                        "value": 0
                    },
                    {
                        "number": 64,
                        "time": 190.97065519999995,
                        "value": 1
                    },
                    {
                        "number": 64,
                        "time": 191.59930982499995,
                        "value": 0
                    },
                    {
                        "number": 64,
                        "time": 191.66656124999994,
                        "value": 1
                    },
                    {
                        "number": 64,
                        "time": 192.28059599999995,
                        "value": 0
                    },
                    {
                        "number": 64,
                        "time": 192.35369537499994,
                        "value": 1
                    },
                    {
                        "number": 64,
                        "time": 193.00866577499994,
                        "value": 0
                    },
                    {
                        "number": 64,
                        "time": 193.07006924999993,
                        "value": 1
                    },
                    {
                        "number": 64,
                        "time": 193.35369482499993,
                        "value": 0
                    },
                    {
                        "number": 64,
                        "time": 193.40632637499994,
                        "value": 1
                    },
                    {
                        "number": 64,
                        "time": 193.70018586249992,
                        "value": 0
                    },
                    {
                        "number": 64,
                        "time": 193.79375306249992,
                        "value": 1
                    },
                    {
                        "number": 64,
                        "time": 194.04960087499992,
                        "value": 0
                    },
                    {
                        "number": 64,
                        "time": 194.41217377499993,
                        "value": 0
                    },
                    {
                        "number": 64,
                        "time": 194.47357724999992,
                        "value": 1
                    },
                    {
                        "number": 64,
                        "time": 194.75720282499992,
                        "value": 0
                    },
                    {
                        "number": 64,
                        "time": 194.80983437499992,
                        "value": 1
                    },
                    {
                        "number": 64,
                        "time": 195.1036938624999,
                        "value": 0
                    },
                    {
                        "number": 64,
                        "time": 195.1972610624999,
                        "value": 1
                    },
                    {
                        "number": 64,
                        "time": 195.4531088749999,
                        "value": 0
                    },
                    {
                        "number": 64,
                        "time": 195.81568177499992,
                        "value": 0
                    },
                    {
                        "number": 64,
                        "time": 195.8770852499999,
                        "value": 1
                    },
                    {
                        "number": 64,
                        "time": 196.1607108249999,
                        "value": 0
                    },
                    {
                        "number": 64,
                        "time": 196.2133423749999,
                        "value": 1
                    },
                    {
                        "number": 64,
                        "time": 196.5072018624999,
                        "value": 0
                    },
                    {
                        "number": 64,
                        "time": 196.6007690624999,
                        "value": 1
                    },
                    {
                        "number": 64,
                        "time": 196.8566168749999,
                        "value": 0
                    },
                    {
                        "number": 64,
                        "time": 198.6226977749999,
                        "value": 0
                    },
                    {
                        "number": 64,
                        "time": 198.75135267499988,
                        "value": 1
                    },
                    {
                        "number": 64,
                        "time": 198.9677268249999,
                        "value": 0
                    },
                    {
                        "number": 64,
                        "time": 199.07445191249988,
                        "value": 1
                    },
                    {
                        "number": 64,
                        "time": 199.31421786249987,
                        "value": 0
                    },
                    {
                        "number": 64,
                        "time": 199.40778506249987,
                        "value": 1
                    },
                    {
                        "number": 64,
                        "time": 199.66363287499988,
                        "value": 0
                    },
                    {
                        "number": 64,
                        "time": 200.02620577499988,
                        "value": 0
                    },
                    {
                        "number": 64,
                        "time": 200.15486067499987,
                        "value": 1
                    },
                    {
                        "number": 64,
                        "time": 200.37123482499987,
                        "value": 0
                    },
                    {
                        "number": 64,
                        "time": 200.47795991249987,
                        "value": 1
                    },
                    {
                        "number": 64,
                        "time": 200.71772586249986,
                        "value": 0
                    },
                    {
                        "number": 64,
                        "time": 200.81129306249986,
                        "value": 1
                    },
                    {
                        "number": 64,
                        "time": 201.06714087499986,
                        "value": 0
                    },
                    {
                        "number": 64,
                        "time": 201.57883649999985,
                        "value": 1
                    },
                    {
                        "number": 64,
                        "time": 201.77328083749984,
                        "value": 0
                    },
                    {
                        "number": 64,
                        "time": 201.86392406249985,
                        "value": 1
                    },
                    {
                        "number": 64,
                        "time": 202.10515199999986,
                        "value": 0
                    },
                    {
                        "number": 64,
                        "time": 202.21480106249987,
                        "value": 1
                    },
                    {
                        "number": 64,
                        "time": 202.47357284999987,
                        "value": 0
                    },
                    {
                        "number": 64,
                        "time": 202.55690613749988,
                        "value": 1
                    },
                    {
                        "number": 64,
                        "time": 202.82883581249988,
                        "value": 0
                    },
                    {
                        "number": 64,
                        "time": 202.94140884999987,
                        "value": 1
                    },
                    {
                        "number": 64,
                        "time": 203.17825082499988,
                        "value": 0
                    },
                    {
                        "number": 64,
                        "time": 203.2747419999999,
                        "value": 1
                    },
                    {
                        "number": 64,
                        "time": 203.50865999999988,
                        "value": 0
                    },
                    {
                        "number": 64,
                        "time": 203.58175937499988,
                        "value": 1
                    },
                    {
                        "number": 64,
                        "time": 204.92386389999987,
                        "value": 0
                    },
                    {
                        "number": 64,
                        "time": 204.96626153749986,
                        "value": 1
                    },
                    {
                        "number": 64,
                        "time": 206.31567599999985,
                        "value": 0
                    },
                    {
                        "number": 64,
                        "time": 206.38877537499985,
                        "value": 1
                    },
                    {
                        "number": 64,
                        "time": 207.73087989999985,
                        "value": 0
                    },
                    {
                        "number": 64,
                        "time": 207.77327753749984,
                        "value": 1
                    },
                    {
                        "number": 64,
                        "time": 209.12269199999983,
                        "value": 0
                    },
                    {
                        "number": 64,
                        "time": 209.19579137499983,
                        "value": 1
                    },
                    {
                        "number": 64,
                        "time": 210.52619999999982,
                        "value": 0
                    },
                    {
                        "number": 64,
                        "time": 210.59929937499982,
                        "value": 1
                    },
                    {
                        "number": 64,
                        "time": 211.9297079999998,
                        "value": 0
                    },
                    {
                        "number": 64,
                        "time": 212.0028073749998,
                        "value": 1
                    },
                    {
                        "number": 64,
                        "time": 213.3419879249998,
                        "value": 0
                    },
                    {
                        "number": 64,
                        "time": 213.3960814624998,
                        "value": 1
                    },
                    {
                        "number": 64,
                        "time": 214.7367239999998,
                        "value": 0
                    },
                    {
                        "number": 64,
                        "time": 215.5525130249998,
                        "value": 1
                    },
                    {
                        "number": 64,
                        "time": 215.7966649374998,
                        "value": 0
                    },
                    {
                        "number": 64,
                        "time": 215.9136239374998,
                        "value": 1
                    },
                    {
                        "number": 64,
                        "time": 216.1402319999998,
                        "value": 0
                    },
                    {
                        "number": 64,
                        "time": 217.0627461124998,
                        "value": 1
                    },
                    {
                        "number": 64,
                        "time": 217.21186883749982,
                        "value": 0
                    },
                    {
                        "number": 64,
                        "time": 218.35952902499983,
                        "value": 1
                    },
                    {
                        "number": 64,
                        "time": 218.60368093749983,
                        "value": 0
                    },
                    {
                        "number": 64,
                        "time": 218.70017211249984,
                        "value": 1
                    },
                    {
                        "number": 64,
                        "time": 218.95309594999983,
                        "value": 0
                    },
                    {
                        "number": 64,
                        "time": 220.35075599999985,
                        "value": 0
                    },
                    {
                        "number": 64,
                        "time": 221.16654502499983,
                        "value": 1
                    },
                    {
                        "number": 64,
                        "time": 221.41069693749984,
                        "value": 0
                    },
                    {
                        "number": 64,
                        "time": 221.52765593749984,
                        "value": 1
                    },
                    {
                        "number": 64,
                        "time": 221.75426399999984,
                        "value": 0
                    },
                    {
                        "number": 64,
                        "time": 237.27618528749983,
                        "value": 1
                    },
                    {
                        "number": 64,
                        "time": 237.55981086249983,
                        "value": 0
                    },
                    {
                        "number": 64,
                        "time": 237.63729619999984,
                        "value": 1
                    },
                    {
                        "number": 64,
                        "time": 237.90483991249982,
                        "value": 0
                    },
                    {
                        "number": 64,
                        "time": 237.99840711249982,
                        "value": 1
                    },
                    {
                        "number": 64,
                        "time": 238.25571691249982,
                        "value": 0
                    },
                    {
                        "number": 64,
                        "time": 238.34928411249982,
                        "value": 1
                    },
                    {
                        "number": 64,
                        "time": 238.6080558999998,
                        "value": 0
                    },
                    {
                        "number": 64,
                        "time": 238.70600906249982,
                        "value": 1
                    },
                    {
                        "number": 64,
                        "time": 238.95747091249982,
                        "value": 0
                    },
                    {
                        "number": 64,
                        "time": 239.0305702874998,
                        "value": 1
                    },
                    {
                        "number": 64,
                        "time": 239.3098098999998,
                        "value": 0
                    },
                    {
                        "number": 64,
                        "time": 239.3989911374998,
                        "value": 1
                    },
                    {
                        "number": 64,
                        "time": 239.6563009374998,
                        "value": 0
                    },
                    {
                        "number": 64,
                        "time": 239.7498681374998,
                        "value": 1
                    },
                    {
                        "number": 64,
                        "time": 239.9998679999998,
                        "value": 0
                    },
                    {
                        "number": 64,
                        "time": 240.10074513749979,
                        "value": 1
                    },
                    {
                        "number": 64,
                        "time": 240.36682686249978,
                        "value": 0
                    },
                    {
                        "number": 64,
                        "time": 240.46039406249977,
                        "value": 1
                    },
                    {
                        "number": 64,
                        "time": 240.71624187499978,
                        "value": 0
                    },
                    {
                        "number": 64,
                        "time": 240.80249913749978,
                        "value": 1
                    },
                    {
                        "number": 64,
                        "time": 241.0641948999998,
                        "value": 0
                    },
                    {
                        "number": 64,
                        "time": 241.1358322874998,
                        "value": 1
                    },
                    {
                        "number": 64,
                        "time": 241.4209198499998,
                        "value": 0
                    },
                    {
                        "number": 64,
                        "time": 248.5042492874998,
                        "value": 1
                    },
                    {
                        "number": 64,
                        "time": 248.7878748624998,
                        "value": 0
                    },
                    {
                        "number": 64,
                        "time": 248.8653601999998,
                        "value": 1
                    },
                    {
                        "number": 64,
                        "time": 249.13290391249978,
                        "value": 0
                    },
                    {
                        "number": 64,
                        "time": 249.22647111249978,
                        "value": 1
                    },
                    {
                        "number": 64,
                        "time": 249.48378091249978,
                        "value": 0
                    },
                    {
                        "number": 64,
                        "time": 249.57734811249978,
                        "value": 1
                    },
                    {
                        "number": 64,
                        "time": 249.83611989999977,
                        "value": 0
                    },
                    {
                        "number": 64,
                        "time": 249.93407306249978,
                        "value": 1
                    },
                    {
                        "number": 64,
                        "time": 250.18553491249978,
                        "value": 0
                    },
                    {
                        "number": 64,
                        "time": 250.25863428749977,
                        "value": 1
                    },
                    {
                        "number": 64,
                        "time": 250.53787389999977,
                        "value": 0
                    },
                    {
                        "number": 64,
                        "time": 250.62705513749975,
                        "value": 1
                    },
                    {
                        "number": 64,
                        "time": 250.88436493749975,
                        "value": 0
                    },
                    {
                        "number": 64,
                        "time": 250.97793213749975,
                        "value": 1
                    },
                    {
                        "number": 64,
                        "time": 251.00863387499976,
                        "value": 0
                    },
                    {
                        "number": 64,
                        "time": 251.94430587499977,
                        "value": 0
                    },
                    {
                        "number": 64,
                        "time": 252.03056313749977,
                        "value": 1
                    },
                    {
                        "number": 64,
                        "time": 252.29225889999978,
                        "value": 0
                    },
                    {
                        "number": 64,
                        "time": 252.36389628749978,
                        "value": 1
                    },
                    {
                        "number": 64,
                        "time": 252.64898384999978,
                        "value": 0
                    },
                    {
                        "number": 64,
                        "time": 253.37120567499977,
                        "value": 1
                    },
                    {
                        "number": 64,
                        "time": 254.75278386249977,
                        "value": 0
                    },
                    {
                        "number": 64,
                        "time": 254.83319317499976,
                        "value": 1
                    },
                    {
                        "number": 64,
                        "time": 255.09927489999976,
                        "value": 0
                    },
                    {
                        "number": 64,
                        "time": 255.15483042499974,
                        "value": 1
                    },
                    {
                        "number": 64,
                        "time": 255.43845599999975,
                        "value": 0
                    },
                    {
                        "number": 64,
                        "time": 255.70161374999975,
                        "value": 1
                    },
                    {
                        "number": 64,
                        "time": 256.15190589999975,
                        "value": 0
                    },
                    {
                        "number": 64,
                        "time": 256.3565841499997,
                        "value": 1
                    },
                    {
                        "number": 64,
                        "time": 256.8521979124997,
                        "value": 0
                    },
                    {
                        "number": 64,
                        "time": 256.9706188999997,
                        "value": 1
                    },
                    {
                        "number": 64,
                        "time": 257.5627238374997,
                        "value": 0
                    },
                    {
                        "number": 64,
                        "time": 257.6986886749997,
                        "value": 1
                    },
                    {
                        "number": 64,
                        "time": 258.2586298874997,
                        "value": 0
                    },
                    {
                        "number": 64,
                        "time": 258.3799748499997,
                        "value": 1
                    },
                    {
                        "number": 64,
                        "time": 258.9647698499997,
                        "value": 0
                    },
                    {
                        "number": 64,
                        "time": 259.14313232499967,
                        "value": 1
                    },
                    {
                        "number": 64,
                        "time": 259.64897999999965,
                        "value": 0
                    },
                    {
                        "number": 64,
                        "time": 261.07295582499967,
                        "value": 1
                    },
                    {
                        "number": 64,
                        "time": 261.61973914999965,
                        "value": 0
                    },
                    {
                        "number": 64,
                        "time": 266.74400533749963,
                        "value": 1
                    },
                    {
                        "number": 64,
                        "time": 267.0437127749996,
                        "value": 0
                    },
                    {
                        "number": 64,
                        "time": 267.0846484249996,
                        "value": 1
                    },
                    {
                        "number": 64,
                        "time": 267.37850791249963,
                        "value": 0
                    },
                    {
                        "number": 64,
                        "time": 267.43552542499964,
                        "value": 1
                    },
                    {
                        "number": 64,
                        "time": 267.7308468999996,
                        "value": 0
                    },
                    {
                        "number": 64,
                        "time": 267.76593459999964,
                        "value": 1
                    },
                    {
                        "number": 64,
                        "time": 268.07002799999964,
                        "value": 0
                    },
                    {
                        "number": 64,
                        "time": 269.55102133749966,
                        "value": 1
                    },
                    {
                        "number": 64,
                        "time": 269.85072877499965,
                        "value": 0
                    },
                    {
                        "number": 64,
                        "time": 269.89166442499965,
                        "value": 1
                    },
                    {
                        "number": 64,
                        "time": 270.18552391249966,
                        "value": 0
                    },
                    {
                        "number": 64,
                        "time": 270.2425414249997,
                        "value": 1
                    },
                    {
                        "number": 64,
                        "time": 270.54224886249966,
                        "value": 0
                    },
                    {
                        "number": 64,
                        "time": 270.5890324624997,
                        "value": 1
                    },
                    {
                        "number": 64,
                        "time": 270.87704399999967,
                        "value": 0
                    },
                    {
                        "number": 64,
                        "time": 272.3580373374997,
                        "value": 1
                    },
                    {
                        "number": 64,
                        "time": 272.4311367124997,
                        "value": 0
                    },
                    {
                        "number": 64,
                        "time": 275.1650533374997,
                        "value": 1
                    },
                    {
                        "number": 64,
                        "time": 275.23815271249975,
                        "value": 0
                    }
                ]
            },
            "id": 3,
            "name": "Pedale",
            "instrumentNumber": 0,
            "instrument": "acoustic grand piano",
            "instrumentFamily": "piano",
            "channelNumber": 0,
            "isPercussion": false
        },
        {
            "startTime": 0,
            "duration": 0,
            "length": 0,
            "notes": [],
            "controlChanges": {},
            "id": 4,
            "name": "Beethoven: Grande Sonate Opus 22 - 4. movement"
        },
        {
            "startTime": 0,
            "duration": 0,
            "length": 0,
            "notes": [],
            "controlChanges": {},
            "id": 5,
            "name": "Copyright  2009 by Bernd Krueger"
        },
        {
            "startTime": 0,
            "duration": 0,
            "length": 0,
            "notes": [],
            "controlChanges": {},
            "id": 6,
            "name": "http://www.piano-midi.de/"
        },
        {
            "startTime": 0,
            "duration": 0,
            "length": 0,
            "notes": [],
            "controlChanges": {},
            "id": 7,
            "name": "Edition: 2012-05-31"
        },
        {
            "startTime": 0,
            "duration": 0,
            "length": 0,
            "notes": [],
            "controlChanges": {},
            "id": 8,
            "name": "Spur 8"
        },
        {
            "startTime": 0,
            "duration": 0,
            "length": 0,
            "notes": [],
            "controlChanges": {},
            "id": 9,
            "name": "Spur 9"
        },
        {
            "startTime": 0,
            "duration": 0,
            "length": 0,
            "notes": [],
            "controlChanges": {},
            "id": 10,
            "name": "Spur 10"
        },
        {
            "startTime": 0,
            "duration": 0,
            "length": 0,
            "notes": [],
            "controlChanges": {},
            "id": 11,
            "name": "Spur 11"
        },
        {
            "startTime": 0,
            "duration": 0,
            "length": 0,
            "notes": [],
            "controlChanges": {},
            "id": 12,
            "name": "Spur 12"
        },
        {
            "startTime": 0,
            "duration": 0,
            "length": 0,
            "notes": [],
            "controlChanges": {},
            "id": 13,
            "name": "Spur 13"
        },
        {
            "startTime": 0,
            "duration": 0,
            "length": 0,
            "notes": [],
            "controlChanges": {},
            "id": 14,
            "name": "Spur 14"
        },
        {
            "startTime": 0,
            "duration": 0,
            "length": 0,
            "notes": [],
            "controlChanges": {},
            "id": 15,
            "name": "Spur 15"
        },
        {
            "startTime": 0,
            "duration": 0,
            "length": 0,
            "notes": [],
            "controlChanges": {},
            "id": 16,
            "name": "Spur 16"
        }
    ]
}