{
    "header": {
        "PPQ": 480,
        "timeSignature": [
            3,
            4
        ],
        "bpm": 110.96993269673582,
        "name": "Grande Sonata Opus 22 3. movement"
    },
    "startTime": 0,
    "duration": 198.5673007500015,
    "tracks": [
        {
            "startTime": 0,
            "duration": 0,
            "length": 0,
            "notes": [],
            "controlChanges": {},
            "id": 0,
            "name": "Grande Sonata Opus 22 3. movement"
        },
        {
            "startTime": 1.081374,
            "duration": 198.5673007500015,
            "length": 1054,
            "notes": [
                {
                    "name": "D4",
                    "midi": 62,
                    "time": 1.081374,
                    "velocity": 0.3937007874015748,
                    "duration": 0.4055152499999999
                },
                {
                    "name": "D#4",
                    "midi": 63,
                    "time": 1.48688925,
                    "velocity": 0.36220472440944884,
                    "duration": 0.13517175000000003
                },
                {
                    "name": "F4",
                    "midi": 65,
                    "time": 1.622061,
                    "velocity": 0.3937007874015748,
                    "duration": 1.0475810625000004
                },
                {
                    "name": "A4",
                    "midi": 69,
                    "time": 2.6696420625000004,
                    "velocity": 0.36220472440944884,
                    "duration": 0.0337929374999999
                },
                {
                    "name": "G4",
                    "midi": 67,
                    "time": 2.7034350000000003,
                    "velocity": 0.3937007874015748,
                    "duration": 0.13517175000000003
                },
                {
                    "name": "F4",
                    "midi": 65,
                    "time": 2.8386067500000003,
                    "velocity": 0.3543307086614173,
                    "duration": 0.13517175000000003
                },
                {
                    "name": "G4",
                    "midi": 67,
                    "time": 2.9737785000000003,
                    "velocity": 0.3937007874015748,
                    "duration": 0.13517175000000003
                },
                {
                    "name": "A4",
                    "midi": 69,
                    "time": 3.1089502500000004,
                    "velocity": 0.33858267716535434,
                    "duration": 0.13517175000000003
                },
                {
                    "name": "A#4",
                    "midi": 70,
                    "time": 3.2441220000000004,
                    "velocity": 0.3937007874015748,
                    "duration": 0.5406870000000001
                },
                {
                    "name": "F4",
                    "midi": 65,
                    "time": 3.7848090000000005,
                    "velocity": 0.3228346456692913,
                    "duration": 0.4731011249999999
                },
                {
                    "name": "A4",
                    "midi": 69,
                    "time": 4.291703062500001,
                    "velocity": 0.33858267716535434,
                    "duration": 0.03379293750000034
                },
                {
                    "name": "G4",
                    "midi": 67,
                    "time": 4.325496000000001,
                    "velocity": 0.3937007874015748,
                    "duration": 0.1351717499999996
                },
                {
                    "name": "F4",
                    "midi": 65,
                    "time": 4.460667750000001,
                    "velocity": 0.36220472440944884,
                    "duration": 0.1351717499999996
                },
                {
                    "name": "G4",
                    "midi": 67,
                    "time": 4.5958395,
                    "velocity": 0.3937007874015748,
                    "duration": 0.1351717499999996
                },
                {
                    "name": "A4",
                    "midi": 69,
                    "time": 4.73101125,
                    "velocity": 0.3937007874015748,
                    "duration": 0.1351717499999996
                },
                {
                    "name": "A#4",
                    "midi": 70,
                    "time": 4.8661829999999995,
                    "velocity": 0.3937007874015748,
                    "duration": 0.0675858749999998
                },
                {
                    "name": "A4",
                    "midi": 69,
                    "time": 5.271698249999999,
                    "velocity": 0.36220472440944884,
                    "duration": 0.0675858749999998
                },
                {
                    "name": "A#4",
                    "midi": 70,
                    "time": 5.406869999999999,
                    "velocity": 0.4409448818897638,
                    "duration": 0.0675858749999998
                },
                {
                    "name": "C5",
                    "midi": 72,
                    "time": 5.812385249999998,
                    "velocity": 0.3779527559055118,
                    "duration": 0.0675858749999998
                },
                {
                    "name": "D5",
                    "midi": 74,
                    "time": 5.947556999999998,
                    "velocity": 0.4330708661417323,
                    "duration": 0.0675858749999998
                },
                {
                    "name": "E5",
                    "midi": 76,
                    "time": 6.353072249999998,
                    "velocity": 0.4645669291338583,
                    "duration": 0.0675858749999998
                },
                {
                    "name": "A#4",
                    "midi": 70,
                    "time": 6.488243999999997,
                    "velocity": 0.41732283464566927,
                    "duration": 0.5406870000000001
                },
                {
                    "name": "E5",
                    "midi": 76,
                    "time": 6.488243999999997,
                    "velocity": 0.49606299212598426,
                    "duration": 0.5406870000000001
                },
                {
                    "name": "A4",
                    "midi": 69,
                    "time": 7.028930999999997,
                    "velocity": 0.3779527559055118,
                    "duration": 0.27034350000000007
                },
                {
                    "name": "F5",
                    "midi": 77,
                    "time": 7.028930999999997,
                    "velocity": 0.44881889763779526,
                    "duration": 0.27034350000000007
                },
                {
                    "name": "F5",
                    "midi": 77,
                    "time": 7.535825062499997,
                    "velocity": 0.33858267716535434,
                    "duration": 0.03379293750000034
                },
                {
                    "name": "D#5",
                    "midi": 75,
                    "time": 7.5696179999999975,
                    "velocity": 0.3937007874015748,
                    "duration": 0.1351717499999996
                },
                {
                    "name": "D5",
                    "midi": 74,
                    "time": 7.704789749999997,
                    "velocity": 0.36220472440944884,
                    "duration": 0.1351717499999996
                },
                {
                    "name": "D#5",
                    "midi": 75,
                    "time": 7.839961499999997,
                    "velocity": 0.4251968503937008,
                    "duration": 0.1351717499999996
                },
                {
                    "name": "F5",
                    "midi": 77,
                    "time": 7.975133249999996,
                    "velocity": 0.4015748031496063,
                    "duration": 0.13517175000000048
                },
                {
                    "name": "G5",
                    "midi": 79,
                    "time": 8.110304999999997,
                    "velocity": 0.4645669291338583,
                    "duration": 0.5406870000000001
                },
                {
                    "name": "C5",
                    "midi": 72,
                    "time": 8.650991999999997,
                    "velocity": 0.3937007874015748,
                    "duration": 0.47310112499999946
                },
                {
                    "name": "D5",
                    "midi": 74,
                    "time": 9.157886062499996,
                    "velocity": 0.33858267716535434,
                    "duration": 0.033792937499999454
                },
                {
                    "name": "C5",
                    "midi": 72,
                    "time": 9.191678999999995,
                    "velocity": 0.3937007874015748,
                    "duration": 0.1351717499999996
                },
                {
                    "name": "B4",
                    "midi": 71,
                    "time": 9.326850749999995,
                    "velocity": 0.36220472440944884,
                    "duration": 0.1351717499999996
                },
                {
                    "name": "C5",
                    "midi": 72,
                    "time": 9.462022499999994,
                    "velocity": 0.4251968503937008,
                    "duration": 0.1351717499999996
                },
                {
                    "name": "D5",
                    "midi": 74,
                    "time": 9.597194249999994,
                    "velocity": 0.4015748031496063,
                    "duration": 0.1351717499999996
                },
                {
                    "name": "D#5",
                    "midi": 75,
                    "time": 9.732365999999994,
                    "velocity": 0.4645669291338583,
                    "duration": 0.5406870000000001
                },
                {
                    "name": "A4",
                    "midi": 69,
                    "time": 10.273052999999994,
                    "velocity": 0.3937007874015748,
                    "duration": 0.47310112499999946
                },
                {
                    "name": "A#4",
                    "midi": 70,
                    "time": 10.779947062499993,
                    "velocity": 0.33858267716535434,
                    "duration": 0.033792937499999454
                },
                {
                    "name": "A4",
                    "midi": 69,
                    "time": 10.813739999999992,
                    "velocity": 0.3937007874015748,
                    "duration": 0.1351717499999996
                },
                {
                    "name": "G4",
                    "midi": 67,
                    "time": 10.948911749999992,
                    "velocity": 0.36220472440944884,
                    "duration": 0.1351717499999996
                },
                {
                    "name": "A4",
                    "midi": 69,
                    "time": 11.084083499999991,
                    "velocity": 0.4094488188976378,
                    "duration": 0.1351717499999996
                },
                {
                    "name": "A#4",
                    "midi": 70,
                    "time": 11.219255249999991,
                    "velocity": 0.3779527559055118,
                    "duration": 0.09011450000000032
                },
                {
                    "name": "D5",
                    "midi": 74,
                    "time": 11.320634062499991,
                    "velocity": 0.33858267716535434,
                    "duration": 0.033792937499999454
                },
                {
                    "name": "C5",
                    "midi": 72,
                    "time": 11.35442699999999,
                    "velocity": 0.41732283464566927,
                    "duration": 0.1351717499999996
                },
                {
                    "name": "B4",
                    "midi": 71,
                    "time": 11.48959874999999,
                    "velocity": 0.3937007874015748,
                    "duration": 0.1351717499999996
                },
                {
                    "name": "C5",
                    "midi": 72,
                    "time": 11.62477049999999,
                    "velocity": 0.4251968503937008,
                    "duration": 0.1351717499999996
                },
                {
                    "name": "D5",
                    "midi": 74,
                    "time": 11.75994224999999,
                    "velocity": 0.4015748031496063,
                    "duration": 0.09011450000000032
                },
                {
                    "name": "F5",
                    "midi": 77,
                    "time": 11.86132106249999,
                    "velocity": 0.33858267716535434,
                    "duration": 0.033792937499999454
                },
                {
                    "name": "D#5",
                    "midi": 75,
                    "time": 11.895113999999989,
                    "velocity": 0.44881889763779526,
                    "duration": 0.1351717499999996
                },
                {
                    "name": "D5",
                    "midi": 74,
                    "time": 12.030285749999988,
                    "velocity": 0.4094488188976378,
                    "duration": 0.1351717499999996
                },
                {
                    "name": "D#5",
                    "midi": 75,
                    "time": 12.165457499999988,
                    "velocity": 0.4566929133858268,
                    "duration": 0.1351717499999996
                },
                {
                    "name": "F5",
                    "midi": 77,
                    "time": 12.300629249999988,
                    "velocity": 0.4330708661417323,
                    "duration": 0.1351717499999996
                },
                {
                    "name": "G5",
                    "midi": 79,
                    "time": 12.435800999999987,
                    "velocity": 0.5039370078740157,
                    "duration": 0.06758587500000068
                },
                {
                    "name": "A4",
                    "midi": 69,
                    "time": 12.841316249999988,
                    "velocity": 0.33070866141732286,
                    "duration": 0.1351717499999996
                },
                {
                    "name": "C5",
                    "midi": 72,
                    "time": 12.976487999999987,
                    "velocity": 0.3937007874015748,
                    "duration": 0.5406870000000001
                },
                {
                    "name": "A#4",
                    "midi": 70,
                    "time": 13.517174999999988,
                    "velocity": 0.3464566929133858,
                    "duration": 0.2703434999999992
                },
                {
                    "name": "D4",
                    "midi": 62,
                    "time": 14.057861999999986,
                    "velocity": 0.3937007874015748,
                    "duration": 0.40551525000000055
                },
                {
                    "name": "D#4",
                    "midi": 63,
                    "time": 14.463377249999986,
                    "velocity": 0.36220472440944884,
                    "duration": 0.1351717499999996
                },
                {
                    "name": "F4",
                    "midi": 65,
                    "time": 14.598548999999986,
                    "velocity": 0.3937007874015748,
                    "duration": 1.0475810625000008
                },
                {
                    "name": "A4",
                    "midi": 69,
                    "time": 15.646130062499987,
                    "velocity": 0.36220472440944884,
                    "duration": 0.033792937499999454
                },
                {
                    "name": "G4",
                    "midi": 67,
                    "time": 15.679922999999986,
                    "velocity": 0.3937007874015748,
                    "duration": 0.1351717499999996
                },
                {
                    "name": "F4",
                    "midi": 65,
                    "time": 15.815094749999986,
                    "velocity": 0.3543307086614173,
                    "duration": 0.1351717499999996
                },
                {
                    "name": "G4",
                    "midi": 67,
                    "time": 15.950266499999985,
                    "velocity": 0.3937007874015748,
                    "duration": 0.1351717499999996
                },
                {
                    "name": "A4",
                    "midi": 69,
                    "time": 16.085438249999985,
                    "velocity": 0.33858267716535434,
                    "duration": 0.13517175000000137
                },
                {
                    "name": "A#4",
                    "midi": 70,
                    "time": 16.220609999999986,
                    "velocity": 0.3937007874015748,
                    "duration": 0.5406869999999984
                },
                {
                    "name": "F4",
                    "midi": 65,
                    "time": 16.761296999999985,
                    "velocity": 0.3228346456692913,
                    "duration": 0.47310112499999946
                },
                {
                    "name": "A4",
                    "midi": 69,
                    "time": 17.268191062499984,
                    "velocity": 0.33858267716535434,
                    "duration": 0.033792937499999454
                },
                {
                    "name": "G4",
                    "midi": 67,
                    "time": 17.301983999999983,
                    "velocity": 0.3937007874015748,
                    "duration": 0.13517175000000137
                },
                {
                    "name": "F4",
                    "midi": 65,
                    "time": 17.437155749999985,
                    "velocity": 0.36220472440944884,
                    "duration": 0.13517175000000137
                },
                {
                    "name": "G4",
                    "midi": 67,
                    "time": 17.572327499999986,
                    "velocity": 0.3937007874015748,
                    "duration": 0.13517175000000137
                },
                {
                    "name": "A4",
                    "midi": 69,
                    "time": 17.707499249999987,
                    "velocity": 0.3937007874015748,
                    "duration": 0.13517175000000137
                },
                {
                    "name": "A#4",
                    "midi": 70,
                    "time": 17.84267099999999,
                    "velocity": 0.3937007874015748,
                    "duration": 0.06758587499999891
                },
                {
                    "name": "A4",
                    "midi": 69,
                    "time": 18.24818624999999,
                    "velocity": 0.36220472440944884,
                    "duration": 0.06758587499999891
                },
                {
                    "name": "A#4",
                    "midi": 70,
                    "time": 18.383357999999987,
                    "velocity": 0.4409448818897638,
                    "duration": 0.06758587499999891
                },
                {
                    "name": "C5",
                    "midi": 72,
                    "time": 18.788873249999988,
                    "velocity": 0.3779527559055118,
                    "duration": 0.06758587499999891
                },
                {
                    "name": "D5",
                    "midi": 74,
                    "time": 18.924044999999985,
                    "velocity": 0.4330708661417323,
                    "duration": 0.06758587499999891
                },
                {
                    "name": "E5",
                    "midi": 76,
                    "time": 19.329560249999986,
                    "velocity": 0.4645669291338583,
                    "duration": 0.06758587499999891
                },
                {
                    "name": "A#4",
                    "midi": 70,
                    "time": 19.464731999999984,
                    "velocity": 0.41732283464566927,
                    "duration": 0.5406869999999984
                },
                {
                    "name": "E5",
                    "midi": 76,
                    "time": 19.464731999999984,
                    "velocity": 0.49606299212598426,
                    "duration": 0.5406869999999984
                },
                {
                    "name": "A4",
                    "midi": 69,
                    "time": 20.005418999999982,
                    "velocity": 0.3779527559055118,
                    "duration": 0.2703434999999992
                },
                {
                    "name": "F5",
                    "midi": 77,
                    "time": 20.005418999999982,
                    "velocity": 0.44881889763779526,
                    "duration": 0.2703434999999992
                },
                {
                    "name": "F5",
                    "midi": 77,
                    "time": 20.51231306249998,
                    "velocity": 0.33858267716535434,
                    "duration": 0.033792937499999454
                },
                {
                    "name": "D#5",
                    "midi": 75,
                    "time": 20.54610599999998,
                    "velocity": 0.3937007874015748,
                    "duration": 0.13517175000000137
                },
                {
                    "name": "D5",
                    "midi": 74,
                    "time": 20.681277749999982,
                    "velocity": 0.36220472440944884,
                    "duration": 0.13517175000000137
                },
                {
                    "name": "D#5",
                    "midi": 75,
                    "time": 20.816449499999983,
                    "velocity": 0.4251968503937008,
                    "duration": 0.13517175000000137
                },
                {
                    "name": "F5",
                    "midi": 77,
                    "time": 20.951621249999985,
                    "velocity": 0.4015748031496063,
                    "duration": 0.13517175000000137
                },
                {
                    "name": "G5",
                    "midi": 79,
                    "time": 21.086792999999986,
                    "velocity": 0.4645669291338583,
                    "duration": 0.5406869999999984
                },
                {
                    "name": "C5",
                    "midi": 72,
                    "time": 21.627479999999984,
                    "velocity": 0.3937007874015748,
                    "duration": 0.47310112499999946
                },
                {
                    "name": "D5",
                    "midi": 74,
                    "time": 22.134374062499983,
                    "velocity": 0.33858267716535434,
                    "duration": 0.033792937499999454
                },
                {
                    "name": "C5",
                    "midi": 72,
                    "time": 22.168166999999983,
                    "velocity": 0.3937007874015748,
                    "duration": 0.13517175000000137
                },
                {
                    "name": "B4",
                    "midi": 71,
                    "time": 22.303338749999984,
                    "velocity": 0.36220472440944884,
                    "duration": 0.13517175000000137
                },
                {
                    "name": "C5",
                    "midi": 72,
                    "time": 22.438510499999985,
                    "velocity": 0.4251968503937008,
                    "duration": 0.13517175000000137
                },
                {
                    "name": "D5",
                    "midi": 74,
                    "time": 22.573682249999987,
                    "velocity": 0.4015748031496063,
                    "duration": 0.13517175000000137
                },
                {
                    "name": "D#5",
                    "midi": 75,
                    "time": 22.708853999999988,
                    "velocity": 0.4645669291338583,
                    "duration": 0.5406869999999984
                },
                {
                    "name": "A4",
                    "midi": 69,
                    "time": 23.249540999999986,
                    "velocity": 0.3937007874015748,
                    "duration": 0.47310112499999946
                },
                {
                    "name": "A#4",
                    "midi": 70,
                    "time": 23.756435062499985,
                    "velocity": 0.33858267716535434,
                    "duration": 0.033792937499999454
                },
                {
                    "name": "A4",
                    "midi": 69,
                    "time": 23.790227999999985,
                    "velocity": 0.3937007874015748,
                    "duration": 0.13517175000000137
                },
                {
                    "name": "G4",
                    "midi": 67,
                    "time": 23.925399749999986,
                    "velocity": 0.36220472440944884,
                    "duration": 0.13517175000000137
                },
                {
                    "name": "A4",
                    "midi": 69,
                    "time": 24.060571499999988,
                    "velocity": 0.4094488188976378,
                    "duration": 0.13517175000000137
                },
                {
                    "name": "A#4",
                    "midi": 70,
                    "time": 24.19574324999999,
                    "velocity": 0.3779527559055118,
                    "duration": 0.09011449999999854
                },
                {
                    "name": "D5",
                    "midi": 74,
                    "time": 24.297122062499987,
                    "velocity": 0.33858267716535434,
                    "duration": 0.033792937499999454
                },
                {
                    "name": "C5",
                    "midi": 72,
                    "time": 24.330914999999987,
                    "velocity": 0.41732283464566927,
                    "duration": 0.13517175000000137
                },
                {
                    "name": "B4",
                    "midi": 71,
                    "time": 24.466086749999988,
                    "velocity": 0.3937007874015748,
                    "duration": 0.13517175000000137
                },
                {
                    "name": "C5",
                    "midi": 72,
                    "time": 24.60125849999999,
                    "velocity": 0.4251968503937008,
                    "duration": 0.13517175000000137
                },
                {
                    "name": "D5",
                    "midi": 74,
                    "time": 24.73643024999999,
                    "velocity": 0.4015748031496063,
                    "duration": 0.09011449999999854
                },
                {
                    "name": "F5",
                    "midi": 77,
                    "time": 24.83780906249999,
                    "velocity": 0.33858267716535434,
                    "duration": 0.033792937499999454
                },
                {
                    "name": "D#5",
                    "midi": 75,
                    "time": 24.87160199999999,
                    "velocity": 0.44881889763779526,
                    "duration": 0.13517175000000137
                },
                {
                    "name": "D5",
                    "midi": 74,
                    "time": 25.00677374999999,
                    "velocity": 0.4094488188976378,
                    "duration": 0.13517175000000137
                },
                {
                    "name": "D#5",
                    "midi": 75,
                    "time": 25.14194549999999,
                    "velocity": 0.4566929133858268,
                    "duration": 0.13517175000000137
                },
                {
                    "name": "F5",
                    "midi": 77,
                    "time": 25.277117249999993,
                    "velocity": 0.4330708661417323,
                    "duration": 0.13517175000000137
                },
                {
                    "name": "G5",
                    "midi": 79,
                    "time": 25.412288999999994,
                    "velocity": 0.5039370078740157,
                    "duration": 0.06758587499999891
                },
                {
                    "name": "A4",
                    "midi": 69,
                    "time": 25.817804249999995,
                    "velocity": 0.33070866141732286,
                    "duration": 0.13517175000000137
                },
                {
                    "name": "C5",
                    "midi": 72,
                    "time": 25.952975999999996,
                    "velocity": 0.3937007874015748,
                    "duration": 0.5406869999999984
                },
                {
                    "name": "A#4",
                    "midi": 70,
                    "time": 26.493662999999994,
                    "velocity": 0.3464566929133858,
                    "duration": 0.2703434999999992
                },
                {
                    "name": "A4",
                    "midi": 69,
                    "time": 27.034349999999993,
                    "velocity": 0.2992125984251969,
                    "duration": 0.13517175000000137
                },
                {
                    "name": "D5",
                    "midi": 74,
                    "time": 27.034349999999993,
                    "velocity": 0.36220472440944884,
                    "duration": 0.13517175000000137
                },
                {
                    "name": "A#4",
                    "midi": 70,
                    "time": 27.169521749999994,
                    "velocity": 0.2677165354330709,
                    "duration": 0.13517175000000137
                },
                {
                    "name": "C#5",
                    "midi": 73,
                    "time": 27.169521749999994,
                    "velocity": 0.3228346456692913,
                    "duration": 0.13517175000000137
                },
                {
                    "name": "A4",
                    "midi": 69,
                    "time": 27.304693499999996,
                    "velocity": 0.33070866141732286,
                    "duration": 0.13517175000000137
                },
                {
                    "name": "D5",
                    "midi": 74,
                    "time": 27.304693499999996,
                    "velocity": 0.3937007874015748,
                    "duration": 0.13517175000000137
                },
                {
                    "name": "A#4",
                    "midi": 70,
                    "time": 27.439865249999997,
                    "velocity": 0.2677165354330709,
                    "duration": 0.13517175000000137
                },
                {
                    "name": "C#5",
                    "midi": 73,
                    "time": 27.439865249999997,
                    "velocity": 0.31496062992125984,
                    "duration": 0.13517175000000137
                },
                {
                    "name": "A4",
                    "midi": 69,
                    "time": 27.575037,
                    "velocity": 0.3543307086614173,
                    "duration": 0.13517175000000137
                },
                {
                    "name": "D5",
                    "midi": 74,
                    "time": 27.575037,
                    "velocity": 0.4251968503937008,
                    "duration": 0.13517175000000137
                },
                {
                    "name": "A#4",
                    "midi": 70,
                    "time": 27.71020875,
                    "velocity": 0.31496062992125984,
                    "duration": 0.13517175000000137
                },
                {
                    "name": "C#5",
                    "midi": 73,
                    "time": 27.71020875,
                    "velocity": 0.3858267716535433,
                    "duration": 0.13517175000000137
                },
                {
                    "name": "A4",
                    "midi": 69,
                    "time": 27.8453805,
                    "velocity": 0.3858267716535433,
                    "duration": 0.13517175000000137
                },
                {
                    "name": "D5",
                    "midi": 74,
                    "time": 27.8453805,
                    "velocity": 0.44881889763779526,
                    "duration": 0.13517175000000137
                },
                {
                    "name": "A#4",
                    "midi": 70,
                    "time": 27.980552250000002,
                    "velocity": 0.30708661417322836,
                    "duration": 0.13517175000000137
                },
                {
                    "name": "C#5",
                    "midi": 73,
                    "time": 27.980552250000002,
                    "velocity": 0.3700787401574803,
                    "duration": 0.13517175000000137
                },
                {
                    "name": "A4",
                    "midi": 69,
                    "time": 28.115724000000004,
                    "velocity": 0.4094488188976378,
                    "duration": 0.13517175000000137
                },
                {
                    "name": "D5",
                    "midi": 74,
                    "time": 28.115724000000004,
                    "velocity": 0.4881889763779528,
                    "duration": 0.13517175000000137
                },
                {
                    "name": "A#4",
                    "midi": 70,
                    "time": 28.250895750000005,
                    "velocity": 0.3700787401574803,
                    "duration": 0.13517175000000137
                },
                {
                    "name": "C#5",
                    "midi": 73,
                    "time": 28.250895750000005,
                    "velocity": 0.4409448818897638,
                    "duration": 0.13517175000000137
                },
                {
                    "name": "A4",
                    "midi": 69,
                    "time": 28.386067500000006,
                    "velocity": 0.4330708661417323,
                    "duration": 0.13517175000000137
                },
                {
                    "name": "D5",
                    "midi": 74,
                    "time": 28.386067500000006,
                    "velocity": 0.5196850393700787,
                    "duration": 0.13517175000000137
                },
                {
                    "name": "A#4",
                    "midi": 70,
                    "time": 28.521239250000008,
                    "velocity": 0.36220472440944884,
                    "duration": 0.13517175000000137
                },
                {
                    "name": "C#5",
                    "midi": 73,
                    "time": 28.521239250000008,
                    "velocity": 0.4251968503937008,
                    "duration": 0.13517175000000137
                },
                {
                    "name": "A4",
                    "midi": 69,
                    "time": 28.65641100000001,
                    "velocity": 0.4645669291338583,
                    "duration": 0.13517175000000137
                },
                {
                    "name": "D5",
                    "midi": 74,
                    "time": 28.65641100000001,
                    "velocity": 0.5590551181102362,
                    "duration": 0.13517175000000137
                },
                {
                    "name": "A#4",
                    "midi": 70,
                    "time": 28.79158275000001,
                    "velocity": 0.41732283464566927,
                    "duration": 0.13517175000000137
                },
                {
                    "name": "C#5",
                    "midi": 73,
                    "time": 28.79158275000001,
                    "velocity": 0.5039370078740157,
                    "duration": 0.13517175000000137
                },
                {
                    "name": "A4",
                    "midi": 69,
                    "time": 28.926754500000012,
                    "velocity": 0.49606299212598426,
                    "duration": 0.13517175000000137
                },
                {
                    "name": "D5",
                    "midi": 74,
                    "time": 28.926754500000012,
                    "velocity": 0.5905511811023622,
                    "duration": 0.13517175000000137
                },
                {
                    "name": "A#4",
                    "midi": 70,
                    "time": 29.061926250000013,
                    "velocity": 0.4094488188976378,
                    "duration": 0.13517175000000137
                },
                {
                    "name": "C#5",
                    "midi": 73,
                    "time": 29.061926250000013,
                    "velocity": 0.4881889763779528,
                    "duration": 0.13517175000000137
                },
                {
                    "name": "A4",
                    "midi": 69,
                    "time": 29.197098000000015,
                    "velocity": 0.6535433070866141,
                    "duration": 0.2703434999999992
                },
                {
                    "name": "D5",
                    "midi": 74,
                    "time": 29.197098000000015,
                    "velocity": 0.6535433070866141,
                    "duration": 0.2703434999999992
                },
                {
                    "name": "D6",
                    "midi": 86,
                    "time": 29.737785000000013,
                    "velocity": 0.7874015748031497,
                    "duration": 0.8110305000000011
                },
                {
                    "name": "F#5",
                    "midi": 78,
                    "time": 29.737785000000013,
                    "velocity": 0.6614173228346457,
                    "duration": 0.8110305000000011
                },
                {
                    "name": "C6",
                    "midi": 84,
                    "time": 30.548815500000014,
                    "velocity": 0.5905511811023622,
                    "duration": 0.13517175000000137
                },
                {
                    "name": "F#5",
                    "midi": 78,
                    "time": 30.548815500000014,
                    "velocity": 0.49606299212598426,
                    "duration": 0.13517175000000137
                },
                {
                    "name": "A#5",
                    "midi": 82,
                    "time": 30.819159000000017,
                    "velocity": 0.7165354330708661,
                    "duration": 0.2703434999999992
                },
                {
                    "name": "G5",
                    "midi": 79,
                    "time": 30.819159000000017,
                    "velocity": 0.6062992125984252,
                    "duration": 0.2703434999999992
                },
                {
                    "name": "A5",
                    "midi": 81,
                    "time": 31.224674250000017,
                    "velocity": 0.5748031496062992,
                    "duration": 0.06758587499999891
                },
                {
                    "name": "D#5",
                    "midi": 75,
                    "time": 31.224674250000017,
                    "velocity": 0.48031496062992124,
                    "duration": 0.06758587499999891
                },
                {
                    "name": "A#4",
                    "midi": 70,
                    "time": 31.359846000000015,
                    "velocity": 0.5669291338582677,
                    "duration": 0.2703434999999992
                },
                {
                    "name": "G5",
                    "midi": 79,
                    "time": 31.359846000000015,
                    "velocity": 0.6692913385826772,
                    "duration": 0.2703434999999992
                },
                {
                    "name": "C5",
                    "midi": 72,
                    "time": 31.900533000000014,
                    "velocity": 0.5433070866141733,
                    "duration": 0.2703434999999992
                },
                {
                    "name": "F#5",
                    "midi": 78,
                    "time": 31.900533000000014,
                    "velocity": 0.6377952755905512,
                    "duration": 0.2703434999999992
                },
                {
                    "name": "C5",
                    "midi": 72,
                    "time": 32.441220000000015,
                    "velocity": 0.5433070866141733,
                    "duration": 0.5406869999999984
                },
                {
                    "name": "A5",
                    "midi": 81,
                    "time": 32.441220000000015,
                    "velocity": 0.6456692913385826,
                    "duration": 0.5406869999999984
                },
                {
                    "name": "A#4",
                    "midi": 70,
                    "time": 32.981907000000014,
                    "velocity": 0.48031496062992124,
                    "duration": 0.27034350000000273
                },
                {
                    "name": "G5",
                    "midi": 79,
                    "time": 32.981907000000014,
                    "velocity": 0.5669291338582677,
                    "duration": 0.27034350000000273
                },
                {
                    "name": "G#3",
                    "midi": 56,
                    "time": 33.52259400000002,
                    "velocity": 0.1968503937007874,
                    "duration": 0.13629818124999815
                },
                {
                    "name": "A#3",
                    "midi": 58,
                    "time": 33.52259400000002,
                    "velocity": 0.23622047244094488,
                    "duration": 0.13629818124999815
                },
                {
                    "name": "B3",
                    "midi": 59,
                    "time": 33.65776575000002,
                    "velocity": 0.2125984251968504,
                    "duration": 0.13629818124999815
                },
                {
                    "name": "G#3",
                    "midi": 56,
                    "time": 33.792937500000015,
                    "velocity": 0.2125984251968504,
                    "duration": 0.13629818124999815
                },
                {
                    "name": "A#3",
                    "midi": 58,
                    "time": 33.792937500000015,
                    "velocity": 0.25984251968503935,
                    "duration": 0.13629818124999815
                },
                {
                    "name": "B3",
                    "midi": 59,
                    "time": 33.92810925000001,
                    "velocity": 0.2047244094488189,
                    "duration": 0.13629818124999815
                },
                {
                    "name": "G#3",
                    "midi": 56,
                    "time": 34.06328100000001,
                    "velocity": 0.2204724409448819,
                    "duration": 0.13629818124999815
                },
                {
                    "name": "A#3",
                    "midi": 58,
                    "time": 34.06328100000001,
                    "velocity": 0.2677165354330709,
                    "duration": 0.13629818124999815
                },
                {
                    "name": "B3",
                    "midi": 59,
                    "time": 34.19845275000001,
                    "velocity": 0.23622047244094488,
                    "duration": 0.13629818124999815
                },
                {
                    "name": "G#3",
                    "midi": 56,
                    "time": 34.333624500000006,
                    "velocity": 0.23622047244094488,
                    "duration": 0.13629818124999815
                },
                {
                    "name": "A#3",
                    "midi": 58,
                    "time": 34.333624500000006,
                    "velocity": 0.28346456692913385,
                    "duration": 0.13629818124999815
                },
                {
                    "name": "B3",
                    "midi": 59,
                    "time": 34.468796250000004,
                    "velocity": 0.2283464566929134,
                    "duration": 0.13629818124999815
                },
                {
                    "name": "G#3",
                    "midi": 56,
                    "time": 34.603968,
                    "velocity": 0.25984251968503935,
                    "duration": 0.13629818124999815
                },
                {
                    "name": "A#3",
                    "midi": 58,
                    "time": 34.603968,
                    "velocity": 0.30708661417322836,
                    "duration": 0.13629818124999815
                },
                {
                    "name": "B3",
                    "midi": 59,
                    "time": 34.73913975,
                    "velocity": 0.28346456692913385,
                    "duration": 0.13629818124999815
                },
                {
                    "name": "G#3",
                    "midi": 56,
                    "time": 34.8743115,
                    "velocity": 0.28346456692913385,
                    "duration": 0.13629818124999815
                },
                {
                    "name": "A#3",
                    "midi": 58,
                    "time": 34.8743115,
                    "velocity": 0.33070866141732286,
                    "duration": 0.13629818124999815
                },
                {
                    "name": "B3",
                    "midi": 59,
                    "time": 35.009483249999995,
                    "velocity": 0.2677165354330709,
                    "duration": 0.13629818124999815
                },
                {
                    "name": "G#3",
                    "midi": 56,
                    "time": 35.14465499999999,
                    "velocity": 0.2992125984251969,
                    "duration": 0.13629818124999815
                },
                {
                    "name": "A#3",
                    "midi": 58,
                    "time": 35.14465499999999,
                    "velocity": 0.3543307086614173,
                    "duration": 0.13629818124999815
                },
                {
                    "name": "B3",
                    "midi": 59,
                    "time": 35.27982674999999,
                    "velocity": 0.3228346456692913,
                    "duration": 0.13629818124999815
                },
                {
                    "name": "G#3",
                    "midi": 56,
                    "time": 35.41499849999999,
                    "velocity": 0.31496062992125984,
                    "duration": 0.13629818124999815
                },
                {
                    "name": "A#3",
                    "midi": 58,
                    "time": 35.41499849999999,
                    "velocity": 0.3858267716535433,
                    "duration": 0.13629818124999815
                },
                {
                    "name": "B3",
                    "midi": 59,
                    "time": 35.55017024999999,
                    "velocity": 0.31496062992125984,
                    "duration": 0.13629818124999815
                },
                {
                    "name": "G#3",
                    "midi": 56,
                    "time": 35.685341999999984,
                    "velocity": 0.5118110236220472,
                    "duration": 0.27034350000000273
                },
                {
                    "name": "A#3",
                    "midi": 58,
                    "time": 35.685341999999984,
                    "velocity": 0.5118110236220472,
                    "duration": 0.27034350000000273
                },
                {
                    "name": "G#5",
                    "midi": 80,
                    "time": 36.22602899999999,
                    "velocity": 0.6692913385826772,
                    "duration": 0.8110305000000011
                },
                {
                    "name": "B4",
                    "midi": 71,
                    "time": 36.22602899999999,
                    "velocity": 0.5669291338582677,
                    "duration": 0.8110305000000011
                },
                {
                    "name": "G5",
                    "midi": 79,
                    "time": 37.03705949999999,
                    "velocity": 0.4645669291338583,
                    "duration": 0.27034350000000273
                },
                {
                    "name": "C5",
                    "midi": 72,
                    "time": 37.03705949999999,
                    "velocity": 0.3858267716535433,
                    "duration": 0.27034350000000273
                },
                {
                    "name": "F5",
                    "midi": 77,
                    "time": 37.307402999999994,
                    "velocity": 0.5511811023622047,
                    "duration": 0.40551525000000055
                },
                {
                    "name": "G#4",
                    "midi": 68,
                    "time": 37.307402999999994,
                    "velocity": 0.4566929133858268,
                    "duration": 0.40551525000000055
                },
                {
                    "name": "D#5",
                    "midi": 75,
                    "time": 37.712918249999994,
                    "velocity": 0.41732283464566927,
                    "duration": 0.13517174999999781
                },
                {
                    "name": "G4",
                    "midi": 67,
                    "time": 37.712918249999994,
                    "velocity": 0.3543307086614173,
                    "duration": 0.13517174999999781
                },
                {
                    "name": "F4",
                    "midi": 65,
                    "time": 37.84808999999999,
                    "velocity": 0.4094488188976378,
                    "duration": 0.5406869999999984
                },
                {
                    "name": "D5",
                    "midi": 74,
                    "time": 37.84808999999999,
                    "velocity": 0.48031496062992124,
                    "duration": 0.5406869999999984
                },
                {
                    "name": "D#4",
                    "midi": 63,
                    "time": 38.38877699999999,
                    "velocity": 0.36220472440944884,
                    "duration": 0.5406869999999984
                },
                {
                    "name": "C5",
                    "midi": 72,
                    "time": 38.38877699999999,
                    "velocity": 0.4251968503937008,
                    "duration": 0.5406869999999984
                },
                {
                    "name": "D4",
                    "midi": 62,
                    "time": 38.92946399999999,
                    "velocity": 0.31496062992125984,
                    "duration": 0.5406869999999984
                },
                {
                    "name": "A#4",
                    "midi": 70,
                    "time": 38.92946399999999,
                    "velocity": 0.3779527559055118,
                    "duration": 0.5406869999999984
                },
                {
                    "name": "C4",
                    "midi": 60,
                    "time": 39.47015099999999,
                    "velocity": 0.28346456692913385,
                    "duration": 0.27034350000000273
                },
                {
                    "name": "A4",
                    "midi": 69,
                    "time": 39.47015099999999,
                    "velocity": 0.33070866141732286,
                    "duration": 0.27034350000000273
                },
                {
                    "name": "D4",
                    "midi": 62,
                    "time": 40.01083799999999,
                    "velocity": 0.3937007874015748,
                    "duration": 0.40551525000000055
                },
                {
                    "name": "D#4",
                    "midi": 63,
                    "time": 40.41635324999999,
                    "velocity": 0.36220472440944884,
                    "duration": 0.13517174999999781
                },
                {
                    "name": "F4",
                    "midi": 65,
                    "time": 40.55152499999999,
                    "velocity": 0.3937007874015748,
                    "duration": 1.0475810625000008
                },
                {
                    "name": "A4",
                    "midi": 69,
                    "time": 41.59910606249999,
                    "velocity": 0.36220472440944884,
                    "duration": 0.033792937500003006
                },
                {
                    "name": "G4",
                    "midi": 67,
                    "time": 41.632898999999995,
                    "velocity": 0.3937007874015748,
                    "duration": 0.13517174999999781
                },
                {
                    "name": "F4",
                    "midi": 65,
                    "time": 41.76807074999999,
                    "velocity": 0.3543307086614173,
                    "duration": 0.13517174999999781
                },
                {
                    "name": "G4",
                    "midi": 67,
                    "time": 41.90324249999999,
                    "velocity": 0.3937007874015748,
                    "duration": 0.13517174999999781
                },
                {
                    "name": "A4",
                    "midi": 69,
                    "time": 42.03841424999999,
                    "velocity": 0.33858267716535434,
                    "duration": 0.13517174999999781
                },
                {
                    "name": "A#4",
                    "midi": 70,
                    "time": 42.173585999999986,
                    "velocity": 0.3937007874015748,
                    "duration": 0.5406869999999984
                },
                {
                    "name": "F4",
                    "midi": 65,
                    "time": 42.714272999999984,
                    "velocity": 0.3228346456692913,
                    "duration": 0.47310112499999946
                },
                {
                    "name": "A4",
                    "midi": 69,
                    "time": 43.22116706249999,
                    "velocity": 0.33858267716535434,
                    "duration": 0.033792937500003006
                },
                {
                    "name": "G4",
                    "midi": 67,
                    "time": 43.25495999999999,
                    "velocity": 0.3937007874015748,
                    "duration": 0.13517174999999781
                },
                {
                    "name": "F4",
                    "midi": 65,
                    "time": 43.39013174999999,
                    "velocity": 0.36220472440944884,
                    "duration": 0.13517174999999781
                },
                {
                    "name": "G4",
                    "midi": 67,
                    "time": 43.525303499999985,
                    "velocity": 0.3937007874015748,
                    "duration": 0.13517174999999781
                },
                {
                    "name": "A4",
                    "midi": 69,
                    "time": 43.66047524999998,
                    "velocity": 0.3937007874015748,
                    "duration": 0.13517174999999781
                },
                {
                    "name": "A#4",
                    "midi": 70,
                    "time": 43.79564699999998,
                    "velocity": 0.3937007874015748,
                    "duration": 0.06758587499999891
                },
                {
                    "name": "A4",
                    "midi": 69,
                    "time": 44.20116224999998,
                    "velocity": 0.36220472440944884,
                    "duration": 0.06758587499999891
                },
                {
                    "name": "A#4",
                    "midi": 70,
                    "time": 44.33633399999998,
                    "velocity": 0.4409448818897638,
                    "duration": 0.06758587499999891
                },
                {
                    "name": "C5",
                    "midi": 72,
                    "time": 44.74184924999998,
                    "velocity": 0.3779527559055118,
                    "duration": 0.06758587499999891
                },
                {
                    "name": "D5",
                    "midi": 74,
                    "time": 44.87702099999998,
                    "velocity": 0.4330708661417323,
                    "duration": 0.06758587499999891
                },
                {
                    "name": "E5",
                    "midi": 76,
                    "time": 45.28253624999998,
                    "velocity": 0.4645669291338583,
                    "duration": 0.06758587499999891
                },
                {
                    "name": "A#4",
                    "midi": 70,
                    "time": 45.417707999999976,
                    "velocity": 0.41732283464566927,
                    "duration": 0.5406869999999984
                },
                {
                    "name": "E5",
                    "midi": 76,
                    "time": 45.417707999999976,
                    "velocity": 0.49606299212598426,
                    "duration": 0.5406869999999984
                },
                {
                    "name": "A4",
                    "midi": 69,
                    "time": 45.958394999999975,
                    "velocity": 0.3779527559055118,
                    "duration": 0.27034350000000273
                },
                {
                    "name": "F5",
                    "midi": 77,
                    "time": 45.958394999999975,
                    "velocity": 0.44881889763779526,
                    "duration": 0.27034350000000273
                },
                {
                    "name": "F5",
                    "midi": 77,
                    "time": 46.46528906249998,
                    "velocity": 0.33858267716535434,
                    "duration": 0.033792937500003006
                },
                {
                    "name": "D#5",
                    "midi": 75,
                    "time": 46.49908199999998,
                    "velocity": 0.3937007874015748,
                    "duration": 0.13517174999999781
                },
                {
                    "name": "D5",
                    "midi": 74,
                    "time": 46.63425374999998,
                    "velocity": 0.36220472440944884,
                    "duration": 0.13517174999999781
                },
                {
                    "name": "D#5",
                    "midi": 75,
                    "time": 46.769425499999976,
                    "velocity": 0.4251968503937008,
                    "duration": 0.13517174999999781
                },
                {
                    "name": "F5",
                    "midi": 77,
                    "time": 46.90459724999997,
                    "velocity": 0.4015748031496063,
                    "duration": 0.13517174999999781
                },
                {
                    "name": "G5",
                    "midi": 79,
                    "time": 47.03976899999997,
                    "velocity": 0.4645669291338583,
                    "duration": 0.5406869999999984
                },
                {
                    "name": "C5",
                    "midi": 72,
                    "time": 47.58045599999997,
                    "velocity": 0.3937007874015748,
                    "duration": 0.47310112499999946
                },
                {
                    "name": "D5",
                    "midi": 74,
                    "time": 48.08735006249997,
                    "velocity": 0.33858267716535434,
                    "duration": 0.033792937500003006
                },
                {
                    "name": "C5",
                    "midi": 72,
                    "time": 48.121142999999975,
                    "velocity": 0.3937007874015748,
                    "duration": 0.13517174999999781
                },
                {
                    "name": "B4",
                    "midi": 71,
                    "time": 48.25631474999997,
                    "velocity": 0.36220472440944884,
                    "duration": 0.13517174999999781
                },
                {
                    "name": "C5",
                    "midi": 72,
                    "time": 48.39148649999997,
                    "velocity": 0.4251968503937008,
                    "duration": 0.13517174999999781
                },
                {
                    "name": "D5",
                    "midi": 74,
                    "time": 48.52665824999997,
                    "velocity": 0.4015748031496063,
                    "duration": 0.13517174999999781
                },
                {
                    "name": "D#5",
                    "midi": 75,
                    "time": 48.661829999999966,
                    "velocity": 0.4645669291338583,
                    "duration": 0.5406869999999984
                },
                {
                    "name": "A4",
                    "midi": 69,
                    "time": 49.202516999999965,
                    "velocity": 0.3937007874015748,
                    "duration": 0.47310112499999946
                },
                {
                    "name": "A#4",
                    "midi": 70,
                    "time": 49.70941106249997,
                    "velocity": 0.33858267716535434,
                    "duration": 0.033792937500003006
                },
                {
                    "name": "A4",
                    "midi": 69,
                    "time": 49.74320399999997,
                    "velocity": 0.3937007874015748,
                    "duration": 0.13517174999999781
                },
                {
                    "name": "G4",
                    "midi": 67,
                    "time": 49.87837574999997,
                    "velocity": 0.36220472440944884,
                    "duration": 0.13517174999999781
                },
                {
                    "name": "A4",
                    "midi": 69,
                    "time": 50.013547499999966,
                    "velocity": 0.4094488188976378,
                    "duration": 0.13517174999999781
                },
                {
                    "name": "A#4",
                    "midi": 70,
                    "time": 50.148719249999964,
                    "velocity": 0.3779527559055118,
                    "duration": 0.09011449999999854
                },
                {
                    "name": "D5",
                    "midi": 74,
                    "time": 50.250098062499966,
                    "velocity": 0.33858267716535434,
                    "duration": 0.033792937500003006
                },
                {
                    "name": "C5",
                    "midi": 72,
                    "time": 50.28389099999997,
                    "velocity": 0.41732283464566927,
                    "duration": 0.13517174999999781
                },
                {
                    "name": "B4",
                    "midi": 71,
                    "time": 50.419062749999966,
                    "velocity": 0.3937007874015748,
                    "duration": 0.13517174999999781
                },
                {
                    "name": "C5",
                    "midi": 72,
                    "time": 50.554234499999964,
                    "velocity": 0.4251968503937008,
                    "duration": 0.13517174999999781
                },
                {
                    "name": "D5",
                    "midi": 74,
                    "time": 50.68940624999996,
                    "velocity": 0.4015748031496063,
                    "duration": 0.09011449999999854
                },
                {
                    "name": "F5",
                    "midi": 77,
                    "time": 50.790785062499964,
                    "velocity": 0.33858267716535434,
                    "duration": 0.033792937500003006
                },
                {
                    "name": "D#5",
                    "midi": 75,
                    "time": 50.82457799999997,
                    "velocity": 0.44881889763779526,
                    "duration": 0.13517174999999781
                },
                {
                    "name": "D5",
                    "midi": 74,
                    "time": 50.959749749999965,
                    "velocity": 0.4094488188976378,
                    "duration": 0.13517174999999781
                },
                {
                    "name": "D#5",
                    "midi": 75,
                    "time": 51.09492149999996,
                    "velocity": 0.4566929133858268,
                    "duration": 0.13517174999999781
                },
                {
                    "name": "F5",
                    "midi": 77,
                    "time": 51.23009324999996,
                    "velocity": 0.4330708661417323,
                    "duration": 0.13517174999999781
                },
                {
                    "name": "G5",
                    "midi": 79,
                    "time": 51.36526499999996,
                    "velocity": 0.48031496062992124,
                    "duration": 0.13517174999999781
                },
                {
                    "name": "D#5",
                    "midi": 75,
                    "time": 51.500436749999956,
                    "velocity": 0.4645669291338583,
                    "duration": 0.13517174999999781
                },
                {
                    "name": "C5",
                    "midi": 72,
                    "time": 51.635608499999954,
                    "velocity": 0.4094488188976378,
                    "duration": 0.13517174999999781
                },
                {
                    "name": "A4",
                    "midi": 69,
                    "time": 51.77078024999995,
                    "velocity": 0.33070866141732286,
                    "duration": 0.13517174999999781
                },
                {
                    "name": "A#4",
                    "midi": 70,
                    "time": 51.90595199999995,
                    "velocity": 0.3937007874015748,
                    "duration": 0.5406869999999984
                },
                {
                    "name": "A5",
                    "midi": 81,
                    "time": 52.95353306249995,
                    "velocity": 0.36220472440944884,
                    "duration": 0.033792937500003006
                },
                {
                    "name": "G5",
                    "midi": 79,
                    "time": 52.98732599999995,
                    "velocity": 0.3937007874015748,
                    "duration": 0.13517174999999781
                },
                {
                    "name": "F#5",
                    "midi": 78,
                    "time": 53.12249774999995,
                    "velocity": 0.3543307086614173,
                    "duration": 0.13517174999999781
                },
                {
                    "name": "G5",
                    "midi": 79,
                    "time": 53.25766949999995,
                    "velocity": 0.3937007874015748,
                    "duration": 0.13517174999999781
                },
                {
                    "name": "A5",
                    "midi": 81,
                    "time": 53.39284124999995,
                    "velocity": 0.33858267716535434,
                    "duration": 0.13517174999999781
                },
                {
                    "name": "A#5",
                    "midi": 82,
                    "time": 53.528012999999945,
                    "velocity": 0.3937007874015748,
                    "duration": 0.5406869999999984
                },
                {
                    "name": "F5",
                    "midi": 77,
                    "time": 54.06869999999994,
                    "velocity": 0.3228346456692913,
                    "duration": 0.47310112499999946
                },
                {
                    "name": "A4",
                    "midi": 69,
                    "time": 54.575594062499945,
                    "velocity": 0.33858267716535434,
                    "duration": 0.033792937500003006
                },
                {
                    "name": "D#5",
                    "midi": 75,
                    "time": 54.60938699999995,
                    "velocity": 0.3228346456692913,
                    "duration": 0.5406869999999913
                },
                {
                    "name": "G4",
                    "midi": 67,
                    "time": 54.60938699999995,
                    "velocity": 0.3937007874015748,
                    "duration": 0.13517174999999781
                },
                {
                    "name": "F4",
                    "midi": 65,
                    "time": 54.744558749999946,
                    "velocity": 0.36220472440944884,
                    "duration": 0.13517174999999781
                },
                {
                    "name": "G4",
                    "midi": 67,
                    "time": 54.879730499999944,
                    "velocity": 0.3937007874015748,
                    "duration": 0.13517174999999781
                },
                {
                    "name": "A4",
                    "midi": 69,
                    "time": 55.01490224999994,
                    "velocity": 0.36220472440944884,
                    "duration": 0.13517174999999781
                },
                {
                    "name": "D5",
                    "midi": 74,
                    "time": 55.15007399999994,
                    "velocity": 0.3464566929133858,
                    "duration": 0.5406869999999984
                },
                {
                    "name": "A#4",
                    "midi": 70,
                    "time": 55.15007399999994,
                    "velocity": 0.3937007874015748,
                    "duration": 0.5406869999999984
                },
                {
                    "name": "F4",
                    "midi": 65,
                    "time": 55.69076099999994,
                    "velocity": 0.3228346456692913,
                    "duration": 0.27034350000000273
                },
                {
                    "name": "A4",
                    "midi": 69,
                    "time": 56.19765506249994,
                    "velocity": 0.33858267716535434,
                    "duration": 0.033792937500003006
                },
                {
                    "name": "G4",
                    "midi": 67,
                    "time": 56.23144799999994,
                    "velocity": 0.3937007874015748,
                    "duration": 0.13517174999999781
                },
                {
                    "name": "F#4",
                    "midi": 66,
                    "time": 56.36661974999994,
                    "velocity": 0.36220472440944884,
                    "duration": 0.13517174999999781
                },
                {
                    "name": "G4",
                    "midi": 67,
                    "time": 56.50179149999994,
                    "velocity": 0.3937007874015748,
                    "duration": 0.13517174999999781
                },
                {
                    "name": "A4",
                    "midi": 69,
                    "time": 56.63696324999994,
                    "velocity": 0.36220472440944884,
                    "duration": 0.13517174999999781
                },
                {
                    "name": "A#4",
                    "midi": 70,
                    "time": 56.772134999999935,
                    "velocity": 0.3937007874015748,
                    "duration": 0.5406869999999984
                },
                {
                    "name": "F4",
                    "midi": 65,
                    "time": 57.31282199999993,
                    "velocity": 0.3228346456692913,
                    "duration": 0.47310112499999946
                },
                {
                    "name": "A3",
                    "midi": 57,
                    "time": 57.819716062499936,
                    "velocity": 0.28346456692913385,
                    "duration": 0.033792937500003006
                },
                {
                    "name": "D#4",
                    "midi": 63,
                    "time": 57.85350899999994,
                    "velocity": 0.2677165354330709,
                    "duration": 0.5406869999999913
                },
                {
                    "name": "G3",
                    "midi": 55,
                    "time": 57.85350899999994,
                    "velocity": 0.33070866141732286,
                    "duration": 0.13517174999999781
                },
                {
                    "name": "F3",
                    "midi": 53,
                    "time": 57.988680749999936,
                    "velocity": 0.30708661417322836,
                    "duration": 0.13517174999999781
                },
                {
                    "name": "G3",
                    "midi": 55,
                    "time": 58.123852499999934,
                    "velocity": 0.33070866141732286,
                    "duration": 0.13517174999999781
                },
                {
                    "name": "A3",
                    "midi": 57,
                    "time": 58.25902424999993,
                    "velocity": 0.30708661417322836,
                    "duration": 0.13517174999999781
                },
                {
                    "name": "D4",
                    "midi": 62,
                    "time": 58.39419599999993,
                    "velocity": 0.2677165354330709,
                    "duration": 0.5406870000000126
                },
                {
                    "name": "A#3",
                    "midi": 58,
                    "time": 58.39419599999993,
                    "velocity": 0.33070866141732286,
                    "duration": 0.27034350000000273
                },
                {
                    "name": "F3",
                    "midi": 53,
                    "time": 58.66453949999993,
                    "velocity": 0.25984251968503935,
                    "duration": 0.22528625000000346
                },
                {
                    "name": "A3",
                    "midi": 57,
                    "time": 58.90109006249994,
                    "velocity": 0.29133858267716534,
                    "duration": 0.033792937500003006
                },
                {
                    "name": "D#4",
                    "midi": 63,
                    "time": 58.93488299999994,
                    "velocity": 0.30708661417322836,
                    "duration": 0.5406869999999913
                },
                {
                    "name": "G3",
                    "midi": 55,
                    "time": 58.93488299999994,
                    "velocity": 0.33858267716535434,
                    "duration": 0.13517174999999781
                },
                {
                    "name": "F3",
                    "midi": 53,
                    "time": 59.07005474999994,
                    "velocity": 0.31496062992125984,
                    "duration": 0.13517174999999781
                },
                {
                    "name": "G3",
                    "midi": 55,
                    "time": 59.20522649999994,
                    "velocity": 0.3464566929133858,
                    "duration": 0.13517174999999781
                },
                {
                    "name": "A3",
                    "midi": 57,
                    "time": 59.340398249999936,
                    "velocity": 0.31496062992125984,
                    "duration": 0.13517174999999781
                },
                {
                    "name": "D4",
                    "midi": 62,
                    "time": 59.475569999999934,
                    "velocity": 0.28346456692913385,
                    "duration": 0.5406870000000055
                },
                {
                    "name": "A#3",
                    "midi": 58,
                    "time": 59.475569999999934,
                    "velocity": 0.3464566929133858,
                    "duration": 0.27034350000000273
                },
                {
                    "name": "F3",
                    "midi": 53,
                    "time": 59.745913499999936,
                    "velocity": 0.2677165354330709,
                    "duration": 0.20275762499999672
                },
                {
                    "name": "A3",
                    "midi": 57,
                    "time": 59.982464062499936,
                    "velocity": 0.30708661417322836,
                    "duration": 0.033792937500003006
                },
                {
                    "name": "D#4",
                    "midi": 63,
                    "time": 60.01625699999994,
                    "velocity": 0.3464566929133858,
                    "duration": 0.5406869999999913
                },
                {
                    "name": "G3",
                    "midi": 55,
                    "time": 60.01625699999994,
                    "velocity": 0.36220472440944884,
                    "duration": 0.13517174999999781
                },
                {
                    "name": "F3",
                    "midi": 53,
                    "time": 60.15142874999994,
                    "velocity": 0.33858267716535434,
                    "duration": 0.13517174999999781
                },
                {
                    "name": "G3",
                    "midi": 55,
                    "time": 60.286600499999935,
                    "velocity": 0.3700787401574803,
                    "duration": 0.13517174999999781
                },
                {
                    "name": "A3",
                    "midi": 57,
                    "time": 60.42177224999993,
                    "velocity": 0.3464566929133858,
                    "duration": 0.13517174999999781
                },
                {
                    "name": "D4",
                    "midi": 62,
                    "time": 60.55694399999993,
                    "velocity": 0.33070866141732286,
                    "duration": 0.27034349999999563
                },
                {
                    "name": "A#3",
                    "midi": 58,
                    "time": 60.55694399999993,
                    "velocity": 0.3779527559055118,
                    "duration": 0.13517174999999781
                },
                {
                    "name": "F3",
                    "midi": 53,
                    "time": 60.69211574999993,
                    "velocity": 0.3228346456692913,
                    "duration": 0.13517174999999781
                },
                {
                    "name": "D#4",
                    "midi": 63,
                    "time": 60.827287499999926,
                    "velocity": 0.31496062992125984,
                    "duration": 0.27034349999999563
                },
                {
                    "name": "A3",
                    "midi": 57,
                    "time": 60.827287499999926,
                    "velocity": 0.3937007874015748,
                    "duration": 0.13517174999999781
                },
                {
                    "name": "F3",
                    "midi": 53,
                    "time": 60.962459249999924,
                    "velocity": 0.33858267716535434,
                    "duration": 0.13517174999999781
                },
                {
                    "name": "D4",
                    "midi": 62,
                    "time": 61.09763099999992,
                    "velocity": 0.3858267716535433,
                    "duration": 0.27034349999999563
                },
                {
                    "name": "A#3",
                    "midi": 58,
                    "time": 61.09763099999992,
                    "velocity": 0.4015748031496063,
                    "duration": 0.13517174999999781
                },
                {
                    "name": "F3",
                    "midi": 53,
                    "time": 61.23280274999992,
                    "velocity": 0.36220472440944884,
                    "duration": 0.13517174999999781
                },
                {
                    "name": "D#4",
                    "midi": 63,
                    "time": 61.36797449999992,
                    "velocity": 0.33070866141732286,
                    "duration": 0.27034349999999563
                },
                {
                    "name": "A3",
                    "midi": 57,
                    "time": 61.36797449999992,
                    "velocity": 0.4094488188976378,
                    "duration": 0.13517174999999781
                },
                {
                    "name": "F3",
                    "midi": 53,
                    "time": 61.503146249999915,
                    "velocity": 0.3700787401574803,
                    "duration": 0.13517174999999781
                },
                {
                    "name": "A#3",
                    "midi": 58,
                    "time": 61.63831799999991,
                    "velocity": 0.2677165354330709,
                    "duration": 0.13517174999999781
                },
                {
                    "name": "D4",
                    "midi": 62,
                    "time": 61.63831799999991,
                    "velocity": 0.31496062992125984,
                    "duration": 0.13517174999999781
                },
                {
                    "name": "D4",
                    "midi": 62,
                    "time": 62.17900499999991,
                    "velocity": 0.2677165354330709,
                    "duration": 0.13517174999999781
                },
                {
                    "name": "A#4",
                    "midi": 70,
                    "time": 62.17900499999991,
                    "velocity": 0.31496062992125984,
                    "duration": 0.13517174999999781
                },
                {
                    "name": "A4",
                    "midi": 69,
                    "time": 62.71969199999991,
                    "velocity": 0.2992125984251969,
                    "duration": 0.13517174999999781
                },
                {
                    "name": "D5",
                    "midi": 74,
                    "time": 62.71969199999991,
                    "velocity": 0.36220472440944884,
                    "duration": 0.13517174999999781
                },
                {
                    "name": "A#4",
                    "midi": 70,
                    "time": 62.85486374999991,
                    "velocity": 0.2677165354330709,
                    "duration": 0.13517174999999781
                },
                {
                    "name": "C#5",
                    "midi": 73,
                    "time": 62.85486374999991,
                    "velocity": 0.3228346456692913,
                    "duration": 0.13517174999999781
                },
                {
                    "name": "A4",
                    "midi": 69,
                    "time": 62.990035499999905,
                    "velocity": 0.33070866141732286,
                    "duration": 0.13517174999999781
                },
                {
                    "name": "D5",
                    "midi": 74,
                    "time": 62.990035499999905,
                    "velocity": 0.3937007874015748,
                    "duration": 0.13517174999999781
                },
                {
                    "name": "A#4",
                    "midi": 70,
                    "time": 63.1252072499999,
                    "velocity": 0.2677165354330709,
                    "duration": 0.13517174999999781
                },
                {
                    "name": "C#5",
                    "midi": 73,
                    "time": 63.1252072499999,
                    "velocity": 0.31496062992125984,
                    "duration": 0.13517174999999781
                },
                {
                    "name": "A4",
                    "midi": 69,
                    "time": 63.2603789999999,
                    "velocity": 0.3543307086614173,
                    "duration": 0.13517174999999781
                },
                {
                    "name": "D5",
                    "midi": 74,
                    "time": 63.2603789999999,
                    "velocity": 0.41732283464566927,
                    "duration": 0.13517174999999781
                },
                {
                    "name": "A#4",
                    "midi": 70,
                    "time": 63.3955507499999,
                    "velocity": 0.31496062992125984,
                    "duration": 0.13517174999999781
                },
                {
                    "name": "C#5",
                    "midi": 73,
                    "time": 63.3955507499999,
                    "velocity": 0.3858267716535433,
                    "duration": 0.13517174999999781
                },
                {
                    "name": "A4",
                    "midi": 69,
                    "time": 63.5307224999999,
                    "velocity": 0.3779527559055118,
                    "duration": 0.13517174999999781
                },
                {
                    "name": "D5",
                    "midi": 74,
                    "time": 63.5307224999999,
                    "velocity": 0.44881889763779526,
                    "duration": 0.13517174999999781
                },
                {
                    "name": "A#4",
                    "midi": 70,
                    "time": 63.665894249999894,
                    "velocity": 0.30708661417322836,
                    "duration": 0.13517174999999781
                },
                {
                    "name": "C#5",
                    "midi": 73,
                    "time": 63.665894249999894,
                    "velocity": 0.3700787401574803,
                    "duration": 0.13517174999999781
                },
                {
                    "name": "A4",
                    "midi": 69,
                    "time": 63.80106599999989,
                    "velocity": 0.4094488188976378,
                    "duration": 0.13517174999999781
                },
                {
                    "name": "D5",
                    "midi": 74,
                    "time": 63.80106599999989,
                    "velocity": 0.4881889763779528,
                    "duration": 0.13517174999999781
                },
                {
                    "name": "A#4",
                    "midi": 70,
                    "time": 63.93623774999989,
                    "velocity": 0.3700787401574803,
                    "duration": 0.13517174999999781
                },
                {
                    "name": "C#5",
                    "midi": 73,
                    "time": 63.93623774999989,
                    "velocity": 0.4409448818897638,
                    "duration": 0.13517174999999781
                },
                {
                    "name": "A4",
                    "midi": 69,
                    "time": 64.07140949999989,
                    "velocity": 0.4330708661417323,
                    "duration": 0.13517174999999781
                },
                {
                    "name": "D5",
                    "midi": 74,
                    "time": 64.07140949999989,
                    "velocity": 0.5196850393700787,
                    "duration": 0.13517174999999781
                },
                {
                    "name": "A#4",
                    "midi": 70,
                    "time": 64.20658124999989,
                    "velocity": 0.36220472440944884,
                    "duration": 0.13517174999999781
                },
                {
                    "name": "C#5",
                    "midi": 73,
                    "time": 64.20658124999989,
                    "velocity": 0.4251968503937008,
                    "duration": 0.13517174999999781
                },
                {
                    "name": "A4",
                    "midi": 69,
                    "time": 64.34175299999988,
                    "velocity": 0.4645669291338583,
                    "duration": 0.13517174999999781
                },
                {
                    "name": "D5",
                    "midi": 74,
                    "time": 64.34175299999988,
                    "velocity": 0.5590551181102362,
                    "duration": 0.13517174999999781
                },
                {
                    "name": "A#4",
                    "midi": 70,
                    "time": 64.47692474999988,
                    "velocity": 0.41732283464566927,
                    "duration": 0.13517174999999781
                },
                {
                    "name": "C#5",
                    "midi": 73,
                    "time": 64.47692474999988,
                    "velocity": 0.49606299212598426,
                    "duration": 0.13517174999999781
                },
                {
                    "name": "A4",
                    "midi": 69,
                    "time": 64.61209649999988,
                    "velocity": 0.49606299212598426,
                    "duration": 0.13517174999999781
                },
                {
                    "name": "D5",
                    "midi": 74,
                    "time": 64.61209649999988,
                    "velocity": 0.5905511811023622,
                    "duration": 0.13517174999999781
                },
                {
                    "name": "A#4",
                    "midi": 70,
                    "time": 64.74726824999988,
                    "velocity": 0.4094488188976378,
                    "duration": 0.13517174999999781
                },
                {
                    "name": "C#5",
                    "midi": 73,
                    "time": 64.74726824999988,
                    "velocity": 0.48031496062992124,
                    "duration": 0.13517174999999781
                },
                {
                    "name": "A4",
                    "midi": 69,
                    "time": 64.88243999999987,
                    "velocity": 0.6535433070866141,
                    "duration": 0.27034349999999563
                },
                {
                    "name": "D5",
                    "midi": 74,
                    "time": 64.88243999999987,
                    "velocity": 0.6535433070866141,
                    "duration": 0.27034349999999563
                },
                {
                    "name": "D6",
                    "midi": 86,
                    "time": 65.42312699999987,
                    "velocity": 0.7874015748031497,
                    "duration": 0.8110305000000011
                },
                {
                    "name": "F#5",
                    "midi": 78,
                    "time": 65.42312699999987,
                    "velocity": 0.6614173228346457,
                    "duration": 0.8110305000000011
                },
                {
                    "name": "C6",
                    "midi": 84,
                    "time": 66.23415749999987,
                    "velocity": 0.5905511811023622,
                    "duration": 0.13517174999999781
                },
                {
                    "name": "F#5",
                    "midi": 78,
                    "time": 66.23415749999987,
                    "velocity": 0.49606299212598426,
                    "duration": 0.13517174999999781
                },
                {
                    "name": "A#5",
                    "midi": 82,
                    "time": 66.50450099999986,
                    "velocity": 0.7165354330708661,
                    "duration": 0.27034349999999563
                },
                {
                    "name": "G5",
                    "midi": 79,
                    "time": 66.50450099999986,
                    "velocity": 0.6062992125984252,
                    "duration": 0.27034349999999563
                },
                {
                    "name": "A5",
                    "midi": 81,
                    "time": 66.91001624999986,
                    "velocity": 0.5748031496062992,
                    "duration": 0.06758587500000601
                },
                {
                    "name": "D#5",
                    "midi": 75,
                    "time": 66.91001624999986,
                    "velocity": 0.48031496062992124,
                    "duration": 0.06758587500000601
                },
                {
                    "name": "A#4",
                    "midi": 70,
                    "time": 67.04518799999987,
                    "velocity": 0.5669291338582677,
                    "duration": 0.27034349999999563
                },
                {
                    "name": "G5",
                    "midi": 79,
                    "time": 67.04518799999987,
                    "velocity": 0.6692913385826772,
                    "duration": 0.27034349999999563
                },
                {
                    "name": "C5",
                    "midi": 72,
                    "time": 67.58587499999986,
                    "velocity": 0.5433070866141733,
                    "duration": 0.27034349999999563
                },
                {
                    "name": "F#5",
                    "midi": 78,
                    "time": 67.58587499999986,
                    "velocity": 0.6377952755905512,
                    "duration": 0.27034349999999563
                },
                {
                    "name": "C5",
                    "midi": 72,
                    "time": 68.12656199999985,
                    "velocity": 0.5433070866141733,
                    "duration": 0.5406870000000055
                },
                {
                    "name": "A5",
                    "midi": 81,
                    "time": 68.12656199999985,
                    "velocity": 0.6456692913385826,
                    "duration": 0.5406870000000055
                },
                {
                    "name": "A#4",
                    "midi": 70,
                    "time": 68.66724899999986,
                    "velocity": 0.48031496062992124,
                    "duration": 0.27034349999999563
                },
                {
                    "name": "G5",
                    "midi": 79,
                    "time": 68.66724899999986,
                    "velocity": 0.5669291338582677,
                    "duration": 0.27034349999999563
                },
                {
                    "name": "G#3",
                    "midi": 56,
                    "time": 69.20793599999985,
                    "velocity": 0.1968503937007874,
                    "duration": 0.13629818124999815
                },
                {
                    "name": "A#3",
                    "midi": 58,
                    "time": 69.20793599999985,
                    "velocity": 0.23622047244094488,
                    "duration": 0.13629818124999815
                },
                {
                    "name": "B3",
                    "midi": 59,
                    "time": 69.34310774999985,
                    "velocity": 0.2125984251968504,
                    "duration": 0.13629818124999815
                },
                {
                    "name": "G#3",
                    "midi": 56,
                    "time": 69.47827949999984,
                    "velocity": 0.2125984251968504,
                    "duration": 0.13629818124999815
                },
                {
                    "name": "A#3",
                    "midi": 58,
                    "time": 69.47827949999984,
                    "velocity": 0.25984251968503935,
                    "duration": 0.13629818124999815
                },
                {
                    "name": "B3",
                    "midi": 59,
                    "time": 69.61345124999984,
                    "velocity": 0.2125984251968504,
                    "duration": 0.13629818124999815
                },
                {
                    "name": "G#3",
                    "midi": 56,
                    "time": 69.74862299999984,
                    "velocity": 0.2283464566929134,
                    "duration": 0.13629818124999815
                },
                {
                    "name": "A#3",
                    "midi": 58,
                    "time": 69.74862299999984,
                    "velocity": 0.2755905511811024,
                    "duration": 0.13629818124999815
                },
                {
                    "name": "B3",
                    "midi": 59,
                    "time": 69.88379474999984,
                    "velocity": 0.25196850393700787,
                    "duration": 0.13629818124999815
                },
                {
                    "name": "G#3",
                    "midi": 56,
                    "time": 70.01896649999983,
                    "velocity": 0.25196850393700787,
                    "duration": 0.13629818124999815
                },
                {
                    "name": "A#3",
                    "midi": 58,
                    "time": 70.01896649999983,
                    "velocity": 0.29133858267716534,
                    "duration": 0.13629818124999815
                },
                {
                    "name": "B3",
                    "midi": 59,
                    "time": 70.15413824999983,
                    "velocity": 0.23622047244094488,
                    "duration": 0.13629818124999815
                },
                {
                    "name": "G#3",
                    "midi": 56,
                    "time": 70.28930999999983,
                    "velocity": 0.2677165354330709,
                    "duration": 0.13629818124999815
                },
                {
                    "name": "A#3",
                    "midi": 58,
                    "time": 70.28930999999983,
                    "velocity": 0.3228346456692913,
                    "duration": 0.13629818124999815
                },
                {
                    "name": "B3",
                    "midi": 59,
                    "time": 70.42448174999983,
                    "velocity": 0.2992125984251969,
                    "duration": 0.13629818124999815
                },
                {
                    "name": "G#3",
                    "midi": 56,
                    "time": 70.55965349999983,
                    "velocity": 0.29133858267716534,
                    "duration": 0.13629818124999815
                },
                {
                    "name": "A#3",
                    "midi": 58,
                    "time": 70.55965349999983,
                    "velocity": 0.3464566929133858,
                    "duration": 0.13629818124999815
                },
                {
                    "name": "B3",
                    "midi": 59,
                    "time": 70.69482524999982,
                    "velocity": 0.2755905511811024,
                    "duration": 0.13629818124999815
                },
                {
                    "name": "G#3",
                    "midi": 56,
                    "time": 70.82999699999982,
                    "velocity": 0.30708661417322836,
                    "duration": 0.13629818124999815
                },
                {
                    "name": "A#3",
                    "midi": 58,
                    "time": 70.82999699999982,
                    "velocity": 0.36220472440944884,
                    "duration": 0.13629818124999815
                },
                {
                    "name": "B3",
                    "midi": 59,
                    "time": 70.96516874999982,
                    "velocity": 0.33070866141732286,
                    "duration": 0.13629818124999815
                },
                {
                    "name": "G#3",
                    "midi": 56,
                    "time": 71.10034049999982,
                    "velocity": 0.33070866141732286,
                    "duration": 0.13629818124999815
                },
                {
                    "name": "A#3",
                    "midi": 58,
                    "time": 71.10034049999982,
                    "velocity": 0.3937007874015748,
                    "duration": 0.13629818124999815
                },
                {
                    "name": "B3",
                    "midi": 59,
                    "time": 71.23551224999981,
                    "velocity": 0.3228346456692913,
                    "duration": 0.13629818124999815
                },
                {
                    "name": "G#3",
                    "midi": 56,
                    "time": 71.37068399999981,
                    "velocity": 0.5118110236220472,
                    "duration": 0.27034349999999563
                },
                {
                    "name": "A#3",
                    "midi": 58,
                    "time": 71.37068399999981,
                    "velocity": 0.5118110236220472,
                    "duration": 0.27034349999999563
                },
                {
                    "name": "G#5",
                    "midi": 80,
                    "time": 71.9113709999998,
                    "velocity": 0.6692913385826772,
                    "duration": 0.8110305000000011
                },
                {
                    "name": "B4",
                    "midi": 71,
                    "time": 71.9113709999998,
                    "velocity": 0.5669291338582677,
                    "duration": 0.8110305000000011
                },
                {
                    "name": "G5",
                    "midi": 79,
                    "time": 72.7224014999998,
                    "velocity": 0.4645669291338583,
                    "duration": 0.27034349999999563
                },
                {
                    "name": "C5",
                    "midi": 72,
                    "time": 72.7224014999998,
                    "velocity": 0.3858267716535433,
                    "duration": 0.27034349999999563
                },
                {
                    "name": "F5",
                    "midi": 77,
                    "time": 72.9927449999998,
                    "velocity": 0.5511811023622047,
                    "duration": 0.40551524999999344
                },
                {
                    "name": "G#4",
                    "midi": 68,
                    "time": 72.9927449999998,
                    "velocity": 0.4566929133858268,
                    "duration": 0.40551524999999344
                },
                {
                    "name": "D#5",
                    "midi": 75,
                    "time": 73.3982602499998,
                    "velocity": 0.41732283464566927,
                    "duration": 0.13517174999999781
                },
                {
                    "name": "G4",
                    "midi": 67,
                    "time": 73.3982602499998,
                    "velocity": 0.3543307086614173,
                    "duration": 0.13517174999999781
                },
                {
                    "name": "F4",
                    "midi": 65,
                    "time": 73.53343199999979,
                    "velocity": 0.4094488188976378,
                    "duration": 0.5406870000000055
                },
                {
                    "name": "D5",
                    "midi": 74,
                    "time": 73.53343199999979,
                    "velocity": 0.48031496062992124,
                    "duration": 0.5406870000000055
                },
                {
                    "name": "D#4",
                    "midi": 63,
                    "time": 74.0741189999998,
                    "velocity": 0.36220472440944884,
                    "duration": 0.5406870000000055
                },
                {
                    "name": "C5",
                    "midi": 72,
                    "time": 74.0741189999998,
                    "velocity": 0.4251968503937008,
                    "duration": 0.5406870000000055
                },
                {
                    "name": "D4",
                    "midi": 62,
                    "time": 74.6148059999998,
                    "velocity": 0.31496062992125984,
                    "duration": 0.5406870000000055
                },
                {
                    "name": "A#4",
                    "midi": 70,
                    "time": 74.6148059999998,
                    "velocity": 0.3779527559055118,
                    "duration": 0.5406870000000055
                },
                {
                    "name": "C4",
                    "midi": 60,
                    "time": 75.15549299999981,
                    "velocity": 0.28346456692913385,
                    "duration": 0.27034349999999563
                },
                {
                    "name": "A4",
                    "midi": 69,
                    "time": 75.15549299999981,
                    "velocity": 0.33070866141732286,
                    "duration": 0.27034349999999563
                },
                {
                    "name": "D4",
                    "midi": 62,
                    "time": 75.6961799999998,
                    "velocity": 0.3937007874015748,
                    "duration": 0.40551524999999344
                },
                {
                    "name": "D#4",
                    "midi": 63,
                    "time": 76.10169524999979,
                    "velocity": 0.36220472440944884,
                    "duration": 0.13517174999999781
                },
                {
                    "name": "F4",
                    "midi": 65,
                    "time": 76.23686699999979,
                    "velocity": 0.3937007874015748,
                    "duration": 1.0475810625000008
                },
                {
                    "name": "A4",
                    "midi": 69,
                    "time": 77.28444806249979,
                    "velocity": 0.36220472440944884,
                    "duration": 0.0337929374999959
                },
                {
                    "name": "G4",
                    "midi": 67,
                    "time": 77.31824099999979,
                    "velocity": 0.3937007874015748,
                    "duration": 0.13517174999999781
                },
                {
                    "name": "F4",
                    "midi": 65,
                    "time": 77.45341274999979,
                    "velocity": 0.3543307086614173,
                    "duration": 0.13517174999999781
                },
                {
                    "name": "G4",
                    "midi": 67,
                    "time": 77.58858449999978,
                    "velocity": 0.3937007874015748,
                    "duration": 0.13517174999999781
                },
                {
                    "name": "A4",
                    "midi": 69,
                    "time": 77.72375624999978,
                    "velocity": 0.33858267716535434,
                    "duration": 0.13517174999999781
                },
                {
                    "name": "A#4",
                    "midi": 70,
                    "time": 77.85892799999978,
                    "velocity": 0.3937007874015748,
                    "duration": 0.5406870000000055
                },
                {
                    "name": "F4",
                    "midi": 65,
                    "time": 78.39961499999978,
                    "velocity": 0.3228346456692913,
                    "duration": 0.47310112499999946
                },
                {
                    "name": "A4",
                    "midi": 69,
                    "time": 78.90650906249978,
                    "velocity": 0.33858267716535434,
                    "duration": 0.0337929374999959
                },
                {
                    "name": "G4",
                    "midi": 67,
                    "time": 78.94030199999978,
                    "velocity": 0.3937007874015748,
                    "duration": 0.13517174999999781
                },
                {
                    "name": "F4",
                    "midi": 65,
                    "time": 79.07547374999977,
                    "velocity": 0.36220472440944884,
                    "duration": 0.13517174999999781
                },
                {
                    "name": "G4",
                    "midi": 67,
                    "time": 79.21064549999977,
                    "velocity": 0.3937007874015748,
                    "duration": 0.13517174999999781
                },
                {
                    "name": "A4",
                    "midi": 69,
                    "time": 79.34581724999977,
                    "velocity": 0.3937007874015748,
                    "duration": 0.13517174999999781
                },
                {
                    "name": "A#4",
                    "midi": 70,
                    "time": 79.48098899999977,
                    "velocity": 0.3937007874015748,
                    "duration": 0.06758587500000601
                },
                {
                    "name": "A4",
                    "midi": 69,
                    "time": 79.88650424999977,
                    "velocity": 0.36220472440944884,
                    "duration": 0.06758587500000601
                },
                {
                    "name": "A#4",
                    "midi": 70,
                    "time": 80.02167599999979,
                    "velocity": 0.4409448818897638,
                    "duration": 0.06758587500000601
                },
                {
                    "name": "C5",
                    "midi": 72,
                    "time": 80.4271912499998,
                    "velocity": 0.3779527559055118,
                    "duration": 0.06758587500000601
                },
                {
                    "name": "D5",
                    "midi": 74,
                    "time": 80.5623629999998,
                    "velocity": 0.4330708661417323,
                    "duration": 0.06758587500000601
                },
                {
                    "name": "E5",
                    "midi": 76,
                    "time": 80.96787824999981,
                    "velocity": 0.4645669291338583,
                    "duration": 0.06758587500000601
                },
                {
                    "name": "A#4",
                    "midi": 70,
                    "time": 81.10304999999983,
                    "velocity": 0.41732283464566927,
                    "duration": 0.5406870000000055
                },
                {
                    "name": "E5",
                    "midi": 76,
                    "time": 81.10304999999983,
                    "velocity": 0.49606299212598426,
                    "duration": 0.5406870000000055
                },
                {
                    "name": "A4",
                    "midi": 69,
                    "time": 81.64373699999983,
                    "velocity": 0.3779527559055118,
                    "duration": 0.27034349999999563
                },
                {
                    "name": "F5",
                    "midi": 77,
                    "time": 81.64373699999983,
                    "velocity": 0.44881889763779526,
                    "duration": 0.27034349999999563
                },
                {
                    "name": "F5",
                    "midi": 77,
                    "time": 82.15063106249983,
                    "velocity": 0.33858267716535434,
                    "duration": 0.0337929374999959
                },
                {
                    "name": "D#5",
                    "midi": 75,
                    "time": 82.18442399999982,
                    "velocity": 0.3937007874015748,
                    "duration": 0.13517174999999781
                },
                {
                    "name": "D5",
                    "midi": 74,
                    "time": 82.31959574999982,
                    "velocity": 0.36220472440944884,
                    "duration": 0.13517174999999781
                },
                {
                    "name": "D#5",
                    "midi": 75,
                    "time": 82.45476749999982,
                    "velocity": 0.4251968503937008,
                    "duration": 0.13517174999999781
                },
                {
                    "name": "F5",
                    "midi": 77,
                    "time": 82.58993924999982,
                    "velocity": 0.4015748031496063,
                    "duration": 0.13517174999999781
                },
                {
                    "name": "G5",
                    "midi": 79,
                    "time": 82.72511099999981,
                    "velocity": 0.4645669291338583,
                    "duration": 0.5406870000000055
                },
                {
                    "name": "C5",
                    "midi": 72,
                    "time": 83.26579799999982,
                    "velocity": 0.3937007874015748,
                    "duration": 0.47310112499999946
                },
                {
                    "name": "D5",
                    "midi": 74,
                    "time": 83.77269206249981,
                    "velocity": 0.33858267716535434,
                    "duration": 0.0337929374999959
                },
                {
                    "name": "C5",
                    "midi": 72,
                    "time": 83.80648499999981,
                    "velocity": 0.3937007874015748,
                    "duration": 0.13517174999999781
                },
                {
                    "name": "B4",
                    "midi": 71,
                    "time": 83.94165674999981,
                    "velocity": 0.36220472440944884,
                    "duration": 0.13517174999999781
                },
                {
                    "name": "C5",
                    "midi": 72,
                    "time": 84.0768284999998,
                    "velocity": 0.4251968503937008,
                    "duration": 0.13517174999999781
                },
                {
                    "name": "D5",
                    "midi": 74,
                    "time": 84.2120002499998,
                    "velocity": 0.4015748031496063,
                    "duration": 0.13517174999999781
                },
                {
                    "name": "D#5",
                    "midi": 75,
                    "time": 84.3471719999998,
                    "velocity": 0.4645669291338583,
                    "duration": 0.5406870000000055
                },
                {
                    "name": "A4",
                    "midi": 69,
                    "time": 84.8878589999998,
                    "velocity": 0.3937007874015748,
                    "duration": 0.47310112499999946
                },
                {
                    "name": "A#4",
                    "midi": 70,
                    "time": 85.3947530624998,
                    "velocity": 0.33858267716535434,
                    "duration": 0.0337929374999959
                },
                {
                    "name": "A4",
                    "midi": 69,
                    "time": 85.4285459999998,
                    "velocity": 0.3937007874015748,
                    "duration": 0.13517174999999781
                },
                {
                    "name": "G4",
                    "midi": 67,
                    "time": 85.5637177499998,
                    "velocity": 0.36220472440944884,
                    "duration": 0.13517174999999781
                },
                {
                    "name": "A4",
                    "midi": 69,
                    "time": 85.6988894999998,
                    "velocity": 0.4094488188976378,
                    "duration": 0.13517174999999781
                },
                {
                    "name": "A#4",
                    "midi": 70,
                    "time": 85.83406124999979,
                    "velocity": 0.3779527559055118,
                    "duration": 0.09011449999999854
                },
                {
                    "name": "D5",
                    "midi": 74,
                    "time": 85.9354400624998,
                    "velocity": 0.33858267716535434,
                    "duration": 0.0337929374999959
                },
                {
                    "name": "C5",
                    "midi": 72,
                    "time": 85.96923299999979,
                    "velocity": 0.41732283464566927,
                    "duration": 0.13517174999999781
                },
                {
                    "name": "B4",
                    "midi": 71,
                    "time": 86.10440474999979,
                    "velocity": 0.3937007874015748,
                    "duration": 0.13517174999999781
                },
                {
                    "name": "C5",
                    "midi": 72,
                    "time": 86.23957649999979,
                    "velocity": 0.4251968503937008,
                    "duration": 0.13517174999999781
                },
                {
                    "name": "D5",
                    "midi": 74,
                    "time": 86.37474824999978,
                    "velocity": 0.4015748031496063,
                    "duration": 0.09011449999999854
                },
                {
                    "name": "F5",
                    "midi": 77,
                    "time": 86.47612706249978,
                    "velocity": 0.33858267716535434,
                    "duration": 0.0337929374999959
                },
                {
                    "name": "D#5",
                    "midi": 75,
                    "time": 86.50991999999978,
                    "velocity": 0.44881889763779526,
                    "duration": 0.13517174999999781
                },
                {
                    "name": "D5",
                    "midi": 74,
                    "time": 86.64509174999978,
                    "velocity": 0.4094488188976378,
                    "duration": 0.13517174999999781
                },
                {
                    "name": "D#5",
                    "midi": 75,
                    "time": 86.78026349999978,
                    "velocity": 0.4566929133858268,
                    "duration": 0.13517174999999781
                },
                {
                    "name": "F5",
                    "midi": 77,
                    "time": 86.91543524999977,
                    "velocity": 0.4330708661417323,
                    "duration": 0.13517174999999781
                },
                {
                    "name": "G5",
                    "midi": 79,
                    "time": 87.05060699999977,
                    "velocity": 0.48031496062992124,
                    "duration": 0.13517174999999781
                },
                {
                    "name": "D#5",
                    "midi": 75,
                    "time": 87.18577874999977,
                    "velocity": 0.4645669291338583,
                    "duration": 0.13517174999999781
                },
                {
                    "name": "C5",
                    "midi": 72,
                    "time": 87.32095049999977,
                    "velocity": 0.4094488188976378,
                    "duration": 0.13517174999999781
                },
                {
                    "name": "A4",
                    "midi": 69,
                    "time": 87.45612224999977,
                    "velocity": 0.33070866141732286,
                    "duration": 0.13517174999999781
                },
                {
                    "name": "A#4",
                    "midi": 70,
                    "time": 87.59129399999976,
                    "velocity": 0.3937007874015748,
                    "duration": 0.5406870000000055
                },
                {
                    "name": "A5",
                    "midi": 81,
                    "time": 88.63887506249976,
                    "velocity": 0.36220472440944884,
                    "duration": 0.0337929374999959
                },
                {
                    "name": "G5",
                    "midi": 79,
                    "time": 88.67266799999976,
                    "velocity": 0.3937007874015748,
                    "duration": 0.13517174999999781
                },
                {
                    "name": "F#5",
                    "midi": 78,
                    "time": 88.80783974999976,
                    "velocity": 0.3543307086614173,
                    "duration": 0.13517174999999781
                },
                {
                    "name": "G5",
                    "midi": 79,
                    "time": 88.94301149999976,
                    "velocity": 0.3937007874015748,
                    "duration": 0.13517174999999781
                },
                {
                    "name": "A5",
                    "midi": 81,
                    "time": 89.07818324999975,
                    "velocity": 0.33858267716535434,
                    "duration": 0.13517174999999781
                },
                {
                    "name": "A#5",
                    "midi": 82,
                    "time": 89.21335499999975,
                    "velocity": 0.3937007874015748,
                    "duration": 0.5406870000000055
                },
                {
                    "name": "F5",
                    "midi": 77,
                    "time": 89.75404199999976,
                    "velocity": 0.3228346456692913,
                    "duration": 0.47310112499999946
                },
                {
                    "name": "A4",
                    "midi": 69,
                    "time": 90.26093606249975,
                    "velocity": 0.33858267716535434,
                    "duration": 0.0337929374999959
                },
                {
                    "name": "D#5",
                    "midi": 75,
                    "time": 90.29472899999975,
                    "velocity": 0.3228346456692913,
                    "duration": 0.5406869999999913
                },
                {
                    "name": "G4",
                    "midi": 67,
                    "time": 90.29472899999975,
                    "velocity": 0.3937007874015748,
                    "duration": 0.13517174999999781
                },
                {
                    "name": "F4",
                    "midi": 65,
                    "time": 90.42990074999975,
                    "velocity": 0.36220472440944884,
                    "duration": 0.13517174999999781
                },
                {
                    "name": "G4",
                    "midi": 67,
                    "time": 90.56507249999974,
                    "velocity": 0.3937007874015748,
                    "duration": 0.13517174999999781
                },
                {
                    "name": "A4",
                    "midi": 69,
                    "time": 90.70024424999974,
                    "velocity": 0.36220472440944884,
                    "duration": 0.13517174999999781
                },
                {
                    "name": "D5",
                    "midi": 74,
                    "time": 90.83541599999974,
                    "velocity": 0.3464566929133858,
                    "duration": 0.5406870000000055
                },
                {
                    "name": "A#4",
                    "midi": 70,
                    "time": 90.83541599999974,
                    "velocity": 0.3937007874015748,
                    "duration": 0.5406870000000055
                },
                {
                    "name": "F4",
                    "midi": 65,
                    "time": 91.37610299999974,
                    "velocity": 0.3228346456692913,
                    "duration": 0.27034349999999563
                },
                {
                    "name": "A4",
                    "midi": 69,
                    "time": 91.88299706249974,
                    "velocity": 0.33858267716535434,
                    "duration": 0.0337929374999959
                },
                {
                    "name": "G4",
                    "midi": 67,
                    "time": 91.91678999999974,
                    "velocity": 0.3937007874015748,
                    "duration": 0.13517174999999781
                },
                {
                    "name": "F#4",
                    "midi": 66,
                    "time": 92.05196174999973,
                    "velocity": 0.36220472440944884,
                    "duration": 0.13517174999999781
                },
                {
                    "name": "G4",
                    "midi": 67,
                    "time": 92.18713349999973,
                    "velocity": 0.3937007874015748,
                    "duration": 0.13517174999999781
                },
                {
                    "name": "A4",
                    "midi": 69,
                    "time": 92.32230524999973,
                    "velocity": 0.36220472440944884,
                    "duration": 0.13517174999999781
                },
                {
                    "name": "A#4",
                    "midi": 70,
                    "time": 92.45747699999973,
                    "velocity": 0.3937007874015748,
                    "duration": 0.5406870000000055
                },
                {
                    "name": "F4",
                    "midi": 65,
                    "time": 92.99816399999973,
                    "velocity": 0.3228346456692913,
                    "duration": 0.47310112499999946
                },
                {
                    "name": "A3",
                    "midi": 57,
                    "time": 93.50505806249973,
                    "velocity": 0.28346456692913385,
                    "duration": 0.0337929374999959
                },
                {
                    "name": "D#4",
                    "midi": 63,
                    "time": 93.53885099999972,
                    "velocity": 0.2677165354330709,
                    "duration": 0.5406869999999913
                },
                {
                    "name": "G3",
                    "midi": 55,
                    "time": 93.53885099999972,
                    "velocity": 0.33070866141732286,
                    "duration": 0.13517174999999781
                },
                {
                    "name": "F3",
                    "midi": 53,
                    "time": 93.67402274999972,
                    "velocity": 0.30708661417322836,
                    "duration": 0.13517174999999781
                },
                {
                    "name": "G3",
                    "midi": 55,
                    "time": 93.80919449999972,
                    "velocity": 0.33070866141732286,
                    "duration": 0.13517174999999781
                },
                {
                    "name": "A3",
                    "midi": 57,
                    "time": 93.94436624999972,
                    "velocity": 0.30708661417322836,
                    "duration": 0.13517174999999781
                },
                {
                    "name": "D4",
                    "midi": 62,
                    "time": 94.07953799999972,
                    "velocity": 0.2677165354330709,
                    "duration": 0.5406869999999913
                },
                {
                    "name": "A#3",
                    "midi": 58,
                    "time": 94.07953799999972,
                    "velocity": 0.33070866141732286,
                    "duration": 0.27034349999999563
                },
                {
                    "name": "F3",
                    "midi": 53,
                    "time": 94.34988149999971,
                    "velocity": 0.25984251968503935,
                    "duration": 0.22528624999999636
                },
                {
                    "name": "A3",
                    "midi": 57,
                    "time": 94.58643206249971,
                    "velocity": 0.29133858267716534,
                    "duration": 0.0337929374999959
                },
                {
                    "name": "D#4",
                    "midi": 63,
                    "time": 94.6202249999997,
                    "velocity": 0.30708661417322836,
                    "duration": 0.5406869999999913
                },
                {
                    "name": "G3",
                    "midi": 55,
                    "time": 94.6202249999997,
                    "velocity": 0.33858267716535434,
                    "duration": 0.13517174999999781
                },
                {
                    "name": "F3",
                    "midi": 53,
                    "time": 94.7553967499997,
                    "velocity": 0.31496062992125984,
                    "duration": 0.13517174999999781
                },
                {
                    "name": "G3",
                    "midi": 55,
                    "time": 94.8905684999997,
                    "velocity": 0.3464566929133858,
                    "duration": 0.13517174999999781
                },
                {
                    "name": "A3",
                    "midi": 57,
                    "time": 95.0257402499997,
                    "velocity": 0.31496062992125984,
                    "duration": 0.13517174999999781
                },
                {
                    "name": "D4",
                    "midi": 62,
                    "time": 95.1609119999997,
                    "velocity": 0.28346456692913385,
                    "duration": 0.5406869999999913
                },
                {
                    "name": "A#3",
                    "midi": 58,
                    "time": 95.1609119999997,
                    "velocity": 0.3464566929133858,
                    "duration": 0.27034349999999563
                },
                {
                    "name": "F3",
                    "midi": 53,
                    "time": 95.4312554999997,
                    "velocity": 0.2677165354330709,
                    "duration": 0.20275762500000383
                },
                {
                    "name": "A3",
                    "midi": 57,
                    "time": 95.6678060624997,
                    "velocity": 0.30708661417322836,
                    "duration": 0.0337929374999959
                },
                {
                    "name": "D#4",
                    "midi": 63,
                    "time": 95.70159899999969,
                    "velocity": 0.3464566929133858,
                    "duration": 0.5406869999999913
                },
                {
                    "name": "G3",
                    "midi": 55,
                    "time": 95.70159899999969,
                    "velocity": 0.36220472440944884,
                    "duration": 0.13517174999999781
                },
                {
                    "name": "F3",
                    "midi": 53,
                    "time": 95.83677074999969,
                    "velocity": 0.33858267716535434,
                    "duration": 0.13517174999999781
                },
                {
                    "name": "G3",
                    "midi": 55,
                    "time": 95.97194249999968,
                    "velocity": 0.3700787401574803,
                    "duration": 0.13517174999999781
                },
                {
                    "name": "A3",
                    "midi": 57,
                    "time": 96.10711424999968,
                    "velocity": 0.3464566929133858,
                    "duration": 0.13517174999999781
                },
                {
                    "name": "D4",
                    "midi": 62,
                    "time": 96.24228599999968,
                    "velocity": 0.33070866141732286,
                    "duration": 0.27034349999999563
                },
                {
                    "name": "A#3",
                    "midi": 58,
                    "time": 96.24228599999968,
                    "velocity": 0.3779527559055118,
                    "duration": 0.13517174999999781
                },
                {
                    "name": "F3",
                    "midi": 53,
                    "time": 96.37745774999968,
                    "velocity": 0.3228346456692913,
                    "duration": 0.13517174999999781
                },
                {
                    "name": "D#4",
                    "midi": 63,
                    "time": 96.51262949999968,
                    "velocity": 0.31496062992125984,
                    "duration": 0.27034349999999563
                },
                {
                    "name": "A3",
                    "midi": 57,
                    "time": 96.51262949999968,
                    "velocity": 0.3937007874015748,
                    "duration": 0.13517174999999781
                },
                {
                    "name": "F3",
                    "midi": 53,
                    "time": 96.64780124999967,
                    "velocity": 0.33858267716535434,
                    "duration": 0.13517174999999781
                },
                {
                    "name": "D4",
                    "midi": 62,
                    "time": 96.78297299999967,
                    "velocity": 0.3858267716535433,
                    "duration": 0.27034349999999563
                },
                {
                    "name": "A#3",
                    "midi": 58,
                    "time": 96.78297299999967,
                    "velocity": 0.4015748031496063,
                    "duration": 0.13517174999999781
                },
                {
                    "name": "F3",
                    "midi": 53,
                    "time": 96.91814474999967,
                    "velocity": 0.36220472440944884,
                    "duration": 0.13517174999999781
                },
                {
                    "name": "D#4",
                    "midi": 63,
                    "time": 97.05331649999967,
                    "velocity": 0.33070866141732286,
                    "duration": 0.27034349999999563
                },
                {
                    "name": "A3",
                    "midi": 57,
                    "time": 97.05331649999967,
                    "velocity": 0.4094488188976378,
                    "duration": 0.13517174999999781
                },
                {
                    "name": "F3",
                    "midi": 53,
                    "time": 97.18848824999966,
                    "velocity": 0.3700787401574803,
                    "duration": 0.13517174999999781
                },
                {
                    "name": "A#3",
                    "midi": 58,
                    "time": 97.32365999999966,
                    "velocity": 0.2677165354330709,
                    "duration": 0.13517174999999781
                },
                {
                    "name": "D4",
                    "midi": 62,
                    "time": 97.32365999999966,
                    "velocity": 0.31496062992125984,
                    "duration": 0.13517174999999781
                },
                {
                    "name": "D4",
                    "midi": 62,
                    "time": 97.86434699999965,
                    "velocity": 0.2677165354330709,
                    "duration": 0.13517174999999781
                },
                {
                    "name": "A#4",
                    "midi": 70,
                    "time": 97.86434699999965,
                    "velocity": 0.31496062992125984,
                    "duration": 0.13517174999999781
                },
                {
                    "name": "D4",
                    "midi": 62,
                    "time": 99.48640799999966,
                    "velocity": 0.48031496062992124,
                    "duration": 1.6107966874999988
                },
                {
                    "name": "G4",
                    "midi": 67,
                    "time": 99.48640799999966,
                    "velocity": 0.48031496062992124,
                    "duration": 1.0701096874999934
                },
                {
                    "name": "A#4",
                    "midi": 70,
                    "time": 99.48640799999966,
                    "velocity": 0.48031496062992124,
                    "duration": 1.0701096874999934
                },
                {
                    "name": "D5",
                    "midi": 74,
                    "time": 99.48640799999966,
                    "velocity": 0.6220472440944882,
                    "duration": 1.6107966874999988
                },
                {
                    "name": "A4",
                    "midi": 69,
                    "time": 100.56778199999965,
                    "velocity": 0.4881889763779528,
                    "duration": 0.13517174999999781
                },
                {
                    "name": "C5",
                    "midi": 72,
                    "time": 100.56778199999965,
                    "velocity": 0.4881889763779528,
                    "duration": 0.13517174999999781
                },
                {
                    "name": "D4",
                    "midi": 62,
                    "time": 101.10846899999966,
                    "velocity": 0.4645669291338583,
                    "duration": 1.6107966874999988
                },
                {
                    "name": "D5",
                    "midi": 74,
                    "time": 101.10846899999966,
                    "velocity": 0.6377952755905512,
                    "duration": 1.6107966874999988
                },
                {
                    "name": "A4",
                    "midi": 69,
                    "time": 101.10846899999966,
                    "velocity": 0.4645669291338583,
                    "duration": 1.0701096874999934
                },
                {
                    "name": "F#4",
                    "midi": 66,
                    "time": 101.10846899999966,
                    "velocity": 0.4645669291338583,
                    "duration": 1.0701096874999934
                },
                {
                    "name": "A#4",
                    "midi": 70,
                    "time": 102.18984299999966,
                    "velocity": 0.4881889763779528,
                    "duration": 0.13517174999999781
                },
                {
                    "name": "G4",
                    "midi": 67,
                    "time": 102.18984299999966,
                    "velocity": 0.4881889763779528,
                    "duration": 0.13517174999999781
                },
                {
                    "name": "G4",
                    "midi": 67,
                    "time": 102.73052999999966,
                    "velocity": 0.5354330708661418,
                    "duration": 1.0813739999999967
                },
                {
                    "name": "A#4",
                    "midi": 70,
                    "time": 102.73052999999966,
                    "velocity": 0.5354330708661418,
                    "duration": 1.0813739999999967
                },
                {
                    "name": "G5",
                    "midi": 79,
                    "time": 102.73052999999966,
                    "velocity": 0.7007874015748031,
                    "duration": 1.0813739999999967
                },
                {
                    "name": "F#4",
                    "midi": 66,
                    "time": 103.81190399999966,
                    "velocity": 0.49606299212598426,
                    "duration": 0.5406870000000055
                },
                {
                    "name": "A4",
                    "midi": 69,
                    "time": 103.81190399999966,
                    "velocity": 0.49606299212598426,
                    "duration": 0.5406870000000055
                },
                {
                    "name": "F#5",
                    "midi": 78,
                    "time": 103.81190399999966,
                    "velocity": 0.5905511811023622,
                    "duration": 0.5406870000000055
                },
                {
                    "name": "G4",
                    "midi": 67,
                    "time": 105.97465199999967,
                    "velocity": 0.48031496062992124,
                    "duration": 1.610796687500013
                },
                {
                    "name": "A#4",
                    "midi": 70,
                    "time": 105.97465199999967,
                    "velocity": 0.48031496062992124,
                    "duration": 1.6220610000000164
                },
                {
                    "name": "D5",
                    "midi": 74,
                    "time": 105.97465199999967,
                    "velocity": 0.48031496062992124,
                    "duration": 0.5406870000000055
                },
                {
                    "name": "G5",
                    "midi": 79,
                    "time": 105.97465199999967,
                    "velocity": 0.6220472440944882,
                    "duration": 1.610796687500013
                },
                {
                    "name": "C#5",
                    "midi": 73,
                    "time": 106.51533899999967,
                    "velocity": 0.5826771653543307,
                    "duration": 0.5406870000000055
                },
                {
                    "name": "E5",
                    "midi": 76,
                    "time": 107.05602599999968,
                    "velocity": 0.6299212598425197,
                    "duration": 0.13517174999999781
                },
                {
                    "name": "C#6",
                    "midi": 85,
                    "time": 107.59671299999968,
                    "velocity": 0.6771653543307087,
                    "duration": 1.081374000000011
                },
                {
                    "name": "E5",
                    "midi": 76,
                    "time": 107.59671299999968,
                    "velocity": 0.4645669291338583,
                    "duration": 0.5406870000000055
                },
                {
                    "name": "C#5",
                    "midi": 73,
                    "time": 107.59671299999968,
                    "velocity": 0.5196850393700787,
                    "duration": 1.081374000000011
                },
                {
                    "name": "G5",
                    "midi": 79,
                    "time": 108.13739999999969,
                    "velocity": 0.6299212598425197,
                    "duration": 0.5406870000000055
                },
                {
                    "name": "D5",
                    "midi": 74,
                    "time": 108.67808699999969,
                    "velocity": 0.5826771653543307,
                    "duration": 0.13517174999999781
                },
                {
                    "name": "D6",
                    "midi": 86,
                    "time": 108.67808699999969,
                    "velocity": 0.6929133858267716,
                    "duration": 0.13517174999999781
                },
                {
                    "name": "F5",
                    "midi": 77,
                    "time": 108.67808699999969,
                    "velocity": 0.5826771653543307,
                    "duration": 0.13517174999999781
                },
                {
                    "name": "D5",
                    "midi": 74,
                    "time": 109.21877399999968,
                    "velocity": 0.5826771653543307,
                    "duration": 0.27034349999999563
                },
                {
                    "name": "E5",
                    "midi": 76,
                    "time": 109.21877399999968,
                    "velocity": 0.5826771653543307,
                    "duration": 0.27034349999999563
                },
                {
                    "name": "D6",
                    "midi": 86,
                    "time": 109.21877399999968,
                    "velocity": 0.6929133858267716,
                    "duration": 0.27034349999999563
                },
                {
                    "name": "C#5",
                    "midi": 73,
                    "time": 109.75946099999967,
                    "velocity": 0.5511811023622047,
                    "duration": 0.27034349999999563
                },
                {
                    "name": "E5",
                    "midi": 76,
                    "time": 109.75946099999967,
                    "velocity": 0.5511811023622047,
                    "duration": 0.27034349999999563
                },
                {
                    "name": "C#6",
                    "midi": 85,
                    "time": 109.75946099999967,
                    "velocity": 0.6535433070866141,
                    "duration": 0.27034349999999563
                },
                {
                    "name": "D5",
                    "midi": 74,
                    "time": 110.30014799999967,
                    "velocity": 0.5826771653543307,
                    "duration": 0.5406870000000055
                },
                {
                    "name": "F5",
                    "midi": 77,
                    "time": 110.30014799999967,
                    "velocity": 0.5826771653543307,
                    "duration": 0.5406870000000055
                },
                {
                    "name": "D6",
                    "midi": 86,
                    "time": 110.30014799999967,
                    "velocity": 0.6929133858267716,
                    "duration": 0.5406870000000055
                },
                {
                    "name": "D4",
                    "midi": 62,
                    "time": 112.46289599999967,
                    "velocity": 0.48031496062992124,
                    "duration": 1.6107966874999988
                },
                {
                    "name": "G4",
                    "midi": 67,
                    "time": 112.46289599999967,
                    "velocity": 0.48031496062992124,
                    "duration": 1.0701096874999934
                },
                {
                    "name": "A#4",
                    "midi": 70,
                    "time": 112.46289599999967,
                    "velocity": 0.48031496062992124,
                    "duration": 1.0701096874999934
                },
                {
                    "name": "D5",
                    "midi": 74,
                    "time": 112.46289599999967,
                    "velocity": 0.6220472440944882,
                    "duration": 1.6107966874999988
                },
                {
                    "name": "A4",
                    "midi": 69,
                    "time": 113.54426999999967,
                    "velocity": 0.4881889763779528,
                    "duration": 0.13517174999999781
                },
                {
                    "name": "C5",
                    "midi": 72,
                    "time": 113.54426999999967,
                    "velocity": 0.4881889763779528,
                    "duration": 0.13517174999999781
                },
                {
                    "name": "D4",
                    "midi": 62,
                    "time": 114.08495699999968,
                    "velocity": 0.4645669291338583,
                    "duration": 1.6107966874999988
                },
                {
                    "name": "D5",
                    "midi": 74,
                    "time": 114.08495699999968,
                    "velocity": 0.6377952755905512,
                    "duration": 1.6107966874999988
                },
                {
                    "name": "A4",
                    "midi": 69,
                    "time": 114.08495699999968,
                    "velocity": 0.4645669291338583,
                    "duration": 1.0701096874999934
                },
                {
                    "name": "F#4",
                    "midi": 66,
                    "time": 114.08495699999968,
                    "velocity": 0.4645669291338583,
                    "duration": 1.0701096874999934
                },
                {
                    "name": "A#4",
                    "midi": 70,
                    "time": 115.16633099999967,
                    "velocity": 0.4881889763779528,
                    "duration": 0.13517174999999781
                },
                {
                    "name": "G4",
                    "midi": 67,
                    "time": 115.16633099999967,
                    "velocity": 0.4881889763779528,
                    "duration": 0.13517174999999781
                },
                {
                    "name": "G4",
                    "midi": 67,
                    "time": 115.70701799999968,
                    "velocity": 0.5354330708661418,
                    "duration": 1.0813739999999967
                },
                {
                    "name": "A#4",
                    "midi": 70,
                    "time": 115.70701799999968,
                    "velocity": 0.5354330708661418,
                    "duration": 1.0813739999999967
                },
                {
                    "name": "G5",
                    "midi": 79,
                    "time": 115.70701799999968,
                    "velocity": 0.7007874015748031,
                    "duration": 1.0813739999999967
                },
                {
                    "name": "F#4",
                    "midi": 66,
                    "time": 116.78839199999967,
                    "velocity": 0.49606299212598426,
                    "duration": 0.5406870000000055
                },
                {
                    "name": "A4",
                    "midi": 69,
                    "time": 116.78839199999967,
                    "velocity": 0.49606299212598426,
                    "duration": 0.5406870000000055
                },
                {
                    "name": "F#5",
                    "midi": 78,
                    "time": 116.78839199999967,
                    "velocity": 0.5905511811023622,
                    "duration": 0.5406870000000055
                },
                {
                    "name": "G4",
                    "midi": 67,
                    "time": 118.95113999999968,
                    "velocity": 0.48031496062992124,
                    "duration": 1.610796687500013
                },
                {
                    "name": "A#4",
                    "midi": 70,
                    "time": 118.95113999999968,
                    "velocity": 0.48031496062992124,
                    "duration": 1.6220610000000164
                },
                {
                    "name": "D5",
                    "midi": 74,
                    "time": 118.95113999999968,
                    "velocity": 0.48031496062992124,
                    "duration": 0.5406870000000055
                },
                {
                    "name": "G5",
                    "midi": 79,
                    "time": 118.95113999999968,
                    "velocity": 0.6220472440944882,
                    "duration": 1.610796687500013
                },
                {
                    "name": "C#5",
                    "midi": 73,
                    "time": 119.49182699999969,
                    "velocity": 0.5826771653543307,
                    "duration": 0.5406870000000055
                },
                {
                    "name": "E5",
                    "midi": 76,
                    "time": 120.0325139999997,
                    "velocity": 0.6299212598425197,
                    "duration": 0.13517174999999781
                },
                {
                    "name": "C#6",
                    "midi": 85,
                    "time": 120.5732009999997,
                    "velocity": 0.6771653543307087,
                    "duration": 1.081374000000011
                },
                {
                    "name": "E5",
                    "midi": 76,
                    "time": 120.5732009999997,
                    "velocity": 0.4645669291338583,
                    "duration": 0.5406870000000055
                },
                {
                    "name": "C#5",
                    "midi": 73,
                    "time": 120.5732009999997,
                    "velocity": 0.5196850393700787,
                    "duration": 1.081374000000011
                },
                {
                    "name": "G5",
                    "midi": 79,
                    "time": 121.1138879999997,
                    "velocity": 0.6299212598425197,
                    "duration": 0.5406870000000055
                },
                {
                    "name": "D5",
                    "midi": 74,
                    "time": 121.65457499999971,
                    "velocity": 0.5826771653543307,
                    "duration": 0.13517174999999781
                },
                {
                    "name": "D6",
                    "midi": 86,
                    "time": 121.65457499999971,
                    "velocity": 0.6929133858267716,
                    "duration": 0.13517174999999781
                },
                {
                    "name": "F5",
                    "midi": 77,
                    "time": 121.65457499999971,
                    "velocity": 0.5826771653543307,
                    "duration": 0.13517174999999781
                },
                {
                    "name": "D5",
                    "midi": 74,
                    "time": 122.1952619999997,
                    "velocity": 0.5826771653543307,
                    "duration": 0.27034349999999563
                },
                {
                    "name": "E5",
                    "midi": 76,
                    "time": 122.1952619999997,
                    "velocity": 0.5826771653543307,
                    "duration": 0.27034349999999563
                },
                {
                    "name": "D6",
                    "midi": 86,
                    "time": 122.1952619999997,
                    "velocity": 0.6929133858267716,
                    "duration": 0.27034349999999563
                },
                {
                    "name": "C#5",
                    "midi": 73,
                    "time": 122.73594899999969,
                    "velocity": 0.5511811023622047,
                    "duration": 0.27034349999999563
                },
                {
                    "name": "E5",
                    "midi": 76,
                    "time": 122.73594899999969,
                    "velocity": 0.5511811023622047,
                    "duration": 0.27034349999999563
                },
                {
                    "name": "C#6",
                    "midi": 85,
                    "time": 122.73594899999969,
                    "velocity": 0.6535433070866141,
                    "duration": 0.27034349999999563
                },
                {
                    "name": "D5",
                    "midi": 74,
                    "time": 123.27663599999968,
                    "velocity": 0.5826771653543307,
                    "duration": 0.5406870000000055
                },
                {
                    "name": "F5",
                    "midi": 77,
                    "time": 123.27663599999968,
                    "velocity": 0.5826771653543307,
                    "duration": 0.5406870000000055
                },
                {
                    "name": "D6",
                    "midi": 86,
                    "time": 123.27663599999968,
                    "velocity": 0.6929133858267716,
                    "duration": 0.5406870000000055
                },
                {
                    "name": "G#5",
                    "midi": 80,
                    "time": 124.3580099999997,
                    "velocity": 0.5826771653543307,
                    "duration": 0.13517174999999781
                },
                {
                    "name": "A#5",
                    "midi": 82,
                    "time": 124.49318174999969,
                    "velocity": 0.3779527559055118,
                    "duration": 0.13517174999999781
                },
                {
                    "name": "G#5",
                    "midi": 80,
                    "time": 124.62835349999969,
                    "velocity": 0.3779527559055118,
                    "duration": 0.13517174999999781
                },
                {
                    "name": "G5",
                    "midi": 79,
                    "time": 124.76352524999969,
                    "velocity": 0.3779527559055118,
                    "duration": 0.13517174999999781
                },
                {
                    "name": "F5",
                    "midi": 77,
                    "time": 124.89869699999969,
                    "velocity": 0.5354330708661418,
                    "duration": 0.13517174999999781
                },
                {
                    "name": "G5",
                    "midi": 79,
                    "time": 125.03386874999968,
                    "velocity": 0.3779527559055118,
                    "duration": 0.13517174999999781
                },
                {
                    "name": "F5",
                    "midi": 77,
                    "time": 125.16904049999968,
                    "velocity": 0.3700787401574803,
                    "duration": 0.13517174999999781
                },
                {
                    "name": "D#5",
                    "midi": 75,
                    "time": 125.30421224999968,
                    "velocity": 0.3700787401574803,
                    "duration": 0.13517174999999781
                },
                {
                    "name": "D5",
                    "midi": 74,
                    "time": 125.43938399999968,
                    "velocity": 0.49606299212598426,
                    "duration": 0.13517174999999781
                },
                {
                    "name": "D#5",
                    "midi": 75,
                    "time": 125.57455574999967,
                    "velocity": 0.36220472440944884,
                    "duration": 0.13517174999999781
                },
                {
                    "name": "D5",
                    "midi": 74,
                    "time": 125.70972749999967,
                    "velocity": 0.36220472440944884,
                    "duration": 0.13517174999999781
                },
                {
                    "name": "C5",
                    "midi": 72,
                    "time": 125.84489924999967,
                    "velocity": 0.36220472440944884,
                    "duration": 0.13517174999999781
                },
                {
                    "name": "G5",
                    "midi": 79,
                    "time": 125.98007099999967,
                    "velocity": 0.5826771653543307,
                    "duration": 0.13517174999999781
                },
                {
                    "name": "B4",
                    "midi": 71,
                    "time": 125.98007099999967,
                    "velocity": 0.6614173228346457,
                    "duration": 0.5406869999999913
                },
                {
                    "name": "G#5",
                    "midi": 80,
                    "time": 126.11524274999967,
                    "velocity": 0.3779527559055118,
                    "duration": 0.13517174999999781
                },
                {
                    "name": "G5",
                    "midi": 79,
                    "time": 126.25041449999966,
                    "velocity": 0.3779527559055118,
                    "duration": 0.13517174999999781
                },
                {
                    "name": "F5",
                    "midi": 77,
                    "time": 126.38558624999966,
                    "velocity": 0.3779527559055118,
                    "duration": 0.13517174999999781
                },
                {
                    "name": "C5",
                    "midi": 72,
                    "time": 126.52075799999966,
                    "velocity": 0.5196850393700787,
                    "duration": 0.27034349999999563
                },
                {
                    "name": "D#5",
                    "midi": 75,
                    "time": 126.52075799999966,
                    "velocity": 0.5354330708661418,
                    "duration": 0.13517174999999781
                },
                {
                    "name": "F5",
                    "midi": 77,
                    "time": 126.65592974999966,
                    "velocity": 0.3779527559055118,
                    "duration": 0.13517174999999781
                },
                {
                    "name": "D#5",
                    "midi": 75,
                    "time": 126.79110149999966,
                    "velocity": 0.3700787401574803,
                    "duration": 0.13517174999999781
                },
                {
                    "name": "D5",
                    "midi": 74,
                    "time": 126.92627324999965,
                    "velocity": 0.3700787401574803,
                    "duration": 0.13517174999999781
                },
                {
                    "name": "C5",
                    "midi": 72,
                    "time": 127.06144499999965,
                    "velocity": 0.49606299212598426,
                    "duration": 0.27034349999999563
                },
                {
                    "name": "B4",
                    "midi": 71,
                    "time": 127.19661674999965,
                    "velocity": 0.36220472440944884,
                    "duration": 0.13517174999999781
                },
                {
                    "name": "C5",
                    "midi": 72,
                    "time": 127.33178849999965,
                    "velocity": 0.36220472440944884,
                    "duration": 0.13517174999999781
                },
                {
                    "name": "D5",
                    "midi": 74,
                    "time": 127.46696024999964,
                    "velocity": 0.36220472440944884,
                    "duration": 0.13517174999999781
                },
                {
                    "name": "D#5",
                    "midi": 75,
                    "time": 127.60213199999964,
                    "velocity": 0.5826771653543307,
                    "duration": 0.13517174999999781
                },
                {
                    "name": "F5",
                    "midi": 77,
                    "time": 127.73730374999964,
                    "velocity": 0.3779527559055118,
                    "duration": 0.13517174999999781
                },
                {
                    "name": "D#5",
                    "midi": 75,
                    "time": 127.87247549999964,
                    "velocity": 0.3779527559055118,
                    "duration": 0.13517175000001203
                },
                {
                    "name": "D5",
                    "midi": 74,
                    "time": 128.00764724999965,
                    "velocity": 0.3779527559055118,
                    "duration": 0.13517175000001203
                },
                {
                    "name": "C5",
                    "midi": 72,
                    "time": 128.14281899999966,
                    "velocity": 0.5354330708661418,
                    "duration": 0.13517175000001203
                },
                {
                    "name": "D5",
                    "midi": 74,
                    "time": 128.27799074999967,
                    "velocity": 0.3779527559055118,
                    "duration": 0.13517175000001203
                },
                {
                    "name": "C5",
                    "midi": 72,
                    "time": 128.4131624999997,
                    "velocity": 0.3700787401574803,
                    "duration": 0.13517175000001203
                },
                {
                    "name": "A#4",
                    "midi": 70,
                    "time": 128.5483342499997,
                    "velocity": 0.3700787401574803,
                    "duration": 0.13517175000001203
                },
                {
                    "name": "A4",
                    "midi": 69,
                    "time": 128.6835059999997,
                    "velocity": 0.49606299212598426,
                    "duration": 0.13517175000001203
                },
                {
                    "name": "A#4",
                    "midi": 70,
                    "time": 128.81867774999972,
                    "velocity": 0.36220472440944884,
                    "duration": 0.13517175000001203
                },
                {
                    "name": "A4",
                    "midi": 69,
                    "time": 128.95384949999973,
                    "velocity": 0.36220472440944884,
                    "duration": 0.13517175000001203
                },
                {
                    "name": "G4",
                    "midi": 67,
                    "time": 129.08902124999975,
                    "velocity": 0.36220472440944884,
                    "duration": 0.13517175000001203
                },
                {
                    "name": "D5",
                    "midi": 74,
                    "time": 129.22419299999976,
                    "velocity": 0.5826771653543307,
                    "duration": 0.13517175000001203
                },
                {
                    "name": "F#4",
                    "midi": 66,
                    "time": 129.22419299999976,
                    "velocity": 0.6220472440944882,
                    "duration": 0.5406870000000481
                },
                {
                    "name": "D#5",
                    "midi": 75,
                    "time": 129.35936474999977,
                    "velocity": 0.3779527559055118,
                    "duration": 0.13517175000001203
                },
                {
                    "name": "D5",
                    "midi": 74,
                    "time": 129.49453649999978,
                    "velocity": 0.3779527559055118,
                    "duration": 0.13517175000001203
                },
                {
                    "name": "C5",
                    "midi": 72,
                    "time": 129.6297082499998,
                    "velocity": 0.3779527559055118,
                    "duration": 0.13517175000001203
                },
                {
                    "name": "G4",
                    "midi": 67,
                    "time": 129.7648799999998,
                    "velocity": 0.5196850393700787,
                    "duration": 0.27034350000002405
                },
                {
                    "name": "A#4",
                    "midi": 70,
                    "time": 129.7648799999998,
                    "velocity": 0.5354330708661418,
                    "duration": 0.13517175000001203
                },
                {
                    "name": "C5",
                    "midi": 72,
                    "time": 129.90005174999982,
                    "velocity": 0.3779527559055118,
                    "duration": 0.13517175000001203
                },
                {
                    "name": "A#4",
                    "midi": 70,
                    "time": 130.03522349999983,
                    "velocity": 0.3700787401574803,
                    "duration": 0.13517175000001203
                },
                {
                    "name": "A4",
                    "midi": 69,
                    "time": 130.17039524999984,
                    "velocity": 0.3700787401574803,
                    "duration": 0.13517175000001203
                },
                {
                    "name": "G4",
                    "midi": 67,
                    "time": 130.30556699999985,
                    "velocity": 0.49606299212598426,
                    "duration": 0.13517175000001203
                },
                {
                    "name": "F#4",
                    "midi": 66,
                    "time": 130.44073874999987,
                    "velocity": 0.36220472440944884,
                    "duration": 0.13517175000001203
                },
                {
                    "name": "G4",
                    "midi": 67,
                    "time": 130.57591049999988,
                    "velocity": 0.36220472440944884,
                    "duration": 0.13517175000001203
                },
                {
                    "name": "A4",
                    "midi": 69,
                    "time": 130.7110822499999,
                    "velocity": 0.36220472440944884,
                    "duration": 0.13517175000001203
                },
                {
                    "name": "G4",
                    "midi": 67,
                    "time": 130.8462539999999,
                    "velocity": 0.4645669291338583,
                    "duration": 1.081374000000011
                },
                {
                    "name": "A#4",
                    "midi": 70,
                    "time": 130.8462539999999,
                    "velocity": 0.4645669291338583,
                    "duration": 1.081374000000011
                },
                {
                    "name": "D5",
                    "midi": 74,
                    "time": 130.8462539999999,
                    "velocity": 0.6062992125984252,
                    "duration": 1.081374000000011
                },
                {
                    "name": "G4",
                    "midi": 67,
                    "time": 131.9276279999999,
                    "velocity": 0.48031496062992124,
                    "duration": 1.6107966875000272
                },
                {
                    "name": "A#4",
                    "midi": 70,
                    "time": 131.9276279999999,
                    "velocity": 0.48031496062992124,
                    "duration": 1.6220610000000306
                },
                {
                    "name": "D5",
                    "midi": 74,
                    "time": 131.9276279999999,
                    "velocity": 0.48031496062992124,
                    "duration": 1.081374000000011
                },
                {
                    "name": "G5",
                    "midi": 79,
                    "time": 131.9276279999999,
                    "velocity": 0.6771653543307087,
                    "duration": 1.6107966875000272
                },
                {
                    "name": "C5",
                    "midi": 72,
                    "time": 133.00900199999992,
                    "velocity": 0.5590551181102362,
                    "duration": 0.13517175000001203
                },
                {
                    "name": "D#5",
                    "midi": 75,
                    "time": 133.00900199999992,
                    "velocity": 0.6299212598425197,
                    "duration": 0.13517175000001203
                },
                {
                    "name": "C6",
                    "midi": 84,
                    "time": 133.54968899999994,
                    "velocity": 0.6771653543307087,
                    "duration": 1.2165457499999945
                },
                {
                    "name": "D#5",
                    "midi": 75,
                    "time": 133.54968899999994,
                    "velocity": 0.4645669291338583,
                    "duration": 0.5406869999999913
                },
                {
                    "name": "C5",
                    "midi": 72,
                    "time": 133.54968899999994,
                    "velocity": 0.5196850393700787,
                    "duration": 1.2165457499999945
                },
                {
                    "name": "A5",
                    "midi": 81,
                    "time": 134.09037599999994,
                    "velocity": 0.5433070866141733,
                    "duration": 0.5294226874999879
                },
                {
                    "name": "F#5",
                    "midi": 78,
                    "time": 134.63106299999993,
                    "velocity": 0.5826771653543307,
                    "duration": 0.13517175000001203
                },
                {
                    "name": "A5",
                    "midi": 81,
                    "time": 134.63106299999993,
                    "velocity": 0.5196850393700787,
                    "duration": 0.13517175000001203
                },
                {
                    "name": "G5",
                    "midi": 79,
                    "time": 135.17174999999995,
                    "velocity": 0.5826771653543307,
                    "duration": 0.27034349999999563
                },
                {
                    "name": "A#4",
                    "midi": 70,
                    "time": 135.17174999999995,
                    "velocity": 0.5275590551181102,
                    "duration": 0.27034349999999563
                },
                {
                    "name": "D5",
                    "midi": 74,
                    "time": 135.17174999999995,
                    "velocity": 0.5275590551181102,
                    "duration": 0.27034349999999563
                },
                {
                    "name": "A#5",
                    "midi": 82,
                    "time": 135.17174999999995,
                    "velocity": 0.6929133858267716,
                    "duration": 0.27034349999999563
                },
                {
                    "name": "A4",
                    "midi": 69,
                    "time": 135.71243699999994,
                    "velocity": 0.4881889763779528,
                    "duration": 0.27034349999999563
                },
                {
                    "name": "F#4",
                    "midi": 66,
                    "time": 135.71243699999994,
                    "velocity": 0.4881889763779528,
                    "duration": 0.27034349999999563
                },
                {
                    "name": "D5",
                    "midi": 74,
                    "time": 135.71243699999994,
                    "velocity": 0.5511811023622047,
                    "duration": 0.27034349999999563
                },
                {
                    "name": "F#5",
                    "midi": 78,
                    "time": 135.71243699999994,
                    "velocity": 0.6535433070866141,
                    "duration": 0.27034349999999563
                },
                {
                    "name": "A#4",
                    "midi": 70,
                    "time": 136.25312399999993,
                    "velocity": 0.5275590551181102,
                    "duration": 0.5406869999999913
                },
                {
                    "name": "G4",
                    "midi": 67,
                    "time": 136.25312399999993,
                    "velocity": 0.5275590551181102,
                    "duration": 0.5406869999999913
                },
                {
                    "name": "D5",
                    "midi": 74,
                    "time": 136.25312399999993,
                    "velocity": 0.5826771653543307,
                    "duration": 0.5406869999999913
                },
                {
                    "name": "G5",
                    "midi": 79,
                    "time": 136.25312399999993,
                    "velocity": 0.6929133858267716,
                    "duration": 0.5406869999999913
                },
                {
                    "name": "G#5",
                    "midi": 80,
                    "time": 137.3344979999999,
                    "velocity": 0.5826771653543307,
                    "duration": 0.13517175000001203
                },
                {
                    "name": "A#5",
                    "midi": 82,
                    "time": 137.46966974999992,
                    "velocity": 0.3779527559055118,
                    "duration": 0.13517175000001203
                },
                {
                    "name": "G#5",
                    "midi": 80,
                    "time": 137.60484149999994,
                    "velocity": 0.3779527559055118,
                    "duration": 0.13517175000001203
                },
                {
                    "name": "G5",
                    "midi": 79,
                    "time": 137.74001324999995,
                    "velocity": 0.3779527559055118,
                    "duration": 0.13517175000001203
                },
                {
                    "name": "F5",
                    "midi": 77,
                    "time": 137.87518499999996,
                    "velocity": 0.5354330708661418,
                    "duration": 0.13517175000001203
                },
                {
                    "name": "G5",
                    "midi": 79,
                    "time": 138.01035674999997,
                    "velocity": 0.3779527559055118,
                    "duration": 0.13517175000001203
                },
                {
                    "name": "F5",
                    "midi": 77,
                    "time": 138.14552849999998,
                    "velocity": 0.3700787401574803,
                    "duration": 0.13517175000001203
                },
                {
                    "name": "D#5",
                    "midi": 75,
                    "time": 138.28070025,
                    "velocity": 0.3700787401574803,
                    "duration": 0.13517175000001203
                },
                {
                    "name": "D5",
                    "midi": 74,
                    "time": 138.415872,
                    "velocity": 0.49606299212598426,
                    "duration": 0.13517175000001203
                },
                {
                    "name": "D#5",
                    "midi": 75,
                    "time": 138.55104375000002,
                    "velocity": 0.36220472440944884,
                    "duration": 0.13517175000001203
                },
                {
                    "name": "D5",
                    "midi": 74,
                    "time": 138.68621550000003,
                    "velocity": 0.36220472440944884,
                    "duration": 0.13517175000001203
                },
                {
                    "name": "C5",
                    "midi": 72,
                    "time": 138.82138725000004,
                    "velocity": 0.36220472440944884,
                    "duration": 0.13517175000001203
                },
                {
                    "name": "G5",
                    "midi": 79,
                    "time": 138.95655900000006,
                    "velocity": 0.5826771653543307,
                    "duration": 0.13517175000001203
                },
                {
                    "name": "B4",
                    "midi": 71,
                    "time": 138.95655900000006,
                    "velocity": 0.6614173228346457,
                    "duration": 0.5406870000000481
                },
                {
                    "name": "G#5",
                    "midi": 80,
                    "time": 139.09173075000007,
                    "velocity": 0.3779527559055118,
                    "duration": 0.13517175000001203
                },
                {
                    "name": "G5",
                    "midi": 79,
                    "time": 139.22690250000008,
                    "velocity": 0.3779527559055118,
                    "duration": 0.13517175000001203
                },
                {
                    "name": "F5",
                    "midi": 77,
                    "time": 139.3620742500001,
                    "velocity": 0.3779527559055118,
                    "duration": 0.13517175000001203
                },
                {
                    "name": "C5",
                    "midi": 72,
                    "time": 139.4972460000001,
                    "velocity": 0.5196850393700787,
                    "duration": 0.27034350000002405
                },
                {
                    "name": "D#5",
                    "midi": 75,
                    "time": 139.4972460000001,
                    "velocity": 0.5354330708661418,
                    "duration": 0.13517175000001203
                },
                {
                    "name": "F5",
                    "midi": 77,
                    "time": 139.63241775000012,
                    "velocity": 0.3779527559055118,
                    "duration": 0.13517175000001203
                },
                {
                    "name": "D#5",
                    "midi": 75,
                    "time": 139.76758950000013,
                    "velocity": 0.3700787401574803,
                    "duration": 0.13517175000001203
                },
                {
                    "name": "D5",
                    "midi": 74,
                    "time": 139.90276125000014,
                    "velocity": 0.3700787401574803,
                    "duration": 0.13517175000001203
                },
                {
                    "name": "C5",
                    "midi": 72,
                    "time": 140.03793300000015,
                    "velocity": 0.49606299212598426,
                    "duration": 0.27034350000002405
                },
                {
                    "name": "B4",
                    "midi": 71,
                    "time": 140.17310475000016,
                    "velocity": 0.36220472440944884,
                    "duration": 0.13517175000001203
                },
                {
                    "name": "C5",
                    "midi": 72,
                    "time": 140.30827650000018,
                    "velocity": 0.36220472440944884,
                    "duration": 0.13517175000001203
                },
                {
                    "name": "D5",
                    "midi": 74,
                    "time": 140.4434482500002,
                    "velocity": 0.36220472440944884,
                    "duration": 0.13517175000001203
                },
                {
                    "name": "D#5",
                    "midi": 75,
                    "time": 140.5786200000002,
                    "velocity": 0.5826771653543307,
                    "duration": 0.13517175000001203
                },
                {
                    "name": "F5",
                    "midi": 77,
                    "time": 140.7137917500002,
                    "velocity": 0.3779527559055118,
                    "duration": 0.13517175000001203
                },
                {
                    "name": "D#5",
                    "midi": 75,
                    "time": 140.84896350000022,
                    "velocity": 0.3779527559055118,
                    "duration": 0.13517175000001203
                },
                {
                    "name": "D5",
                    "midi": 74,
                    "time": 140.98413525000024,
                    "velocity": 0.3779527559055118,
                    "duration": 0.13517175000001203
                },
                {
                    "name": "C5",
                    "midi": 72,
                    "time": 141.11930700000025,
                    "velocity": 0.5354330708661418,
                    "duration": 0.13517175000001203
                },
                {
                    "name": "D5",
                    "midi": 74,
                    "time": 141.25447875000026,
                    "velocity": 0.3779527559055118,
                    "duration": 0.13517175000001203
                },
                {
                    "name": "C5",
                    "midi": 72,
                    "time": 141.38965050000027,
                    "velocity": 0.3700787401574803,
                    "duration": 0.13517175000001203
                },
                {
                    "name": "A#4",
                    "midi": 70,
                    "time": 141.52482225000028,
                    "velocity": 0.3700787401574803,
                    "duration": 0.13517175000001203
                },
                {
                    "name": "A4",
                    "midi": 69,
                    "time": 141.6599940000003,
                    "velocity": 0.49606299212598426,
                    "duration": 0.13517175000001203
                },
                {
                    "name": "A#4",
                    "midi": 70,
                    "time": 141.7951657500003,
                    "velocity": 0.36220472440944884,
                    "duration": 0.13517175000001203
                },
                {
                    "name": "A4",
                    "midi": 69,
                    "time": 141.93033750000032,
                    "velocity": 0.36220472440944884,
                    "duration": 0.13517175000001203
                },
                {
                    "name": "G4",
                    "midi": 67,
                    "time": 142.06550925000033,
                    "velocity": 0.36220472440944884,
                    "duration": 0.13517175000001203
                },
                {
                    "name": "D5",
                    "midi": 74,
                    "time": 142.20068100000034,
                    "velocity": 0.5826771653543307,
                    "duration": 0.13517175000001203
                },
                {
                    "name": "F#4",
                    "midi": 66,
                    "time": 142.20068100000034,
                    "velocity": 0.6220472440944882,
                    "duration": 0.5406870000000481
                },
                {
                    "name": "D#5",
                    "midi": 75,
                    "time": 142.33585275000036,
                    "velocity": 0.3779527559055118,
                    "duration": 0.13517175000001203
                },
                {
                    "name": "D5",
                    "midi": 74,
                    "time": 142.47102450000037,
                    "velocity": 0.3779527559055118,
                    "duration": 0.13517175000001203
                },
                {
                    "name": "C5",
                    "midi": 72,
                    "time": 142.60619625000038,
                    "velocity": 0.3779527559055118,
                    "duration": 0.13517175000001203
                },
                {
                    "name": "G4",
                    "midi": 67,
                    "time": 142.7413680000004,
                    "velocity": 0.5196850393700787,
                    "duration": 0.27034350000002405
                },
                {
                    "name": "A#4",
                    "midi": 70,
                    "time": 142.7413680000004,
                    "velocity": 0.5354330708661418,
                    "duration": 0.13517175000001203
                },
                {
                    "name": "C5",
                    "midi": 72,
                    "time": 142.8765397500004,
                    "velocity": 0.3779527559055118,
                    "duration": 0.13517175000001203
                },
                {
                    "name": "A#4",
                    "midi": 70,
                    "time": 143.01171150000042,
                    "velocity": 0.3700787401574803,
                    "duration": 0.13517175000001203
                },
                {
                    "name": "A4",
                    "midi": 69,
                    "time": 143.14688325000043,
                    "velocity": 0.3700787401574803,
                    "duration": 0.13517175000001203
                },
                {
                    "name": "G4",
                    "midi": 67,
                    "time": 143.28205500000044,
                    "velocity": 0.49606299212598426,
                    "duration": 0.13517175000001203
                },
                {
                    "name": "F#4",
                    "midi": 66,
                    "time": 143.41722675000045,
                    "velocity": 0.36220472440944884,
                    "duration": 0.13517175000001203
                },
                {
                    "name": "G4",
                    "midi": 67,
                    "time": 143.55239850000046,
                    "velocity": 0.36220472440944884,
                    "duration": 0.13517175000001203
                },
                {
                    "name": "A4",
                    "midi": 69,
                    "time": 143.68757025000048,
                    "velocity": 0.36220472440944884,
                    "duration": 0.13517175000001203
                },
                {
                    "name": "G4",
                    "midi": 67,
                    "time": 143.8227420000005,
                    "velocity": 0.4645669291338583,
                    "duration": 1.081374000000011
                },
                {
                    "name": "A#4",
                    "midi": 70,
                    "time": 143.8227420000005,
                    "velocity": 0.4645669291338583,
                    "duration": 1.081374000000011
                },
                {
                    "name": "D5",
                    "midi": 74,
                    "time": 143.8227420000005,
                    "velocity": 0.6062992125984252,
                    "duration": 1.081374000000011
                },
                {
                    "name": "G4",
                    "midi": 67,
                    "time": 144.9041160000005,
                    "velocity": 0.48031496062992124,
                    "duration": 1.6107966875000272
                },
                {
                    "name": "A#4",
                    "midi": 70,
                    "time": 144.9041160000005,
                    "velocity": 0.48031496062992124,
                    "duration": 1.6220610000000306
                },
                {
                    "name": "D5",
                    "midi": 74,
                    "time": 144.9041160000005,
                    "velocity": 0.48031496062992124,
                    "duration": 1.081374000000011
                },
                {
                    "name": "G5",
                    "midi": 79,
                    "time": 144.9041160000005,
                    "velocity": 0.6771653543307087,
                    "duration": 1.6107966875000272
                },
                {
                    "name": "C5",
                    "midi": 72,
                    "time": 145.9854900000005,
                    "velocity": 0.5590551181102362,
                    "duration": 0.13517175000001203
                },
                {
                    "name": "D#5",
                    "midi": 75,
                    "time": 145.9854900000005,
                    "velocity": 0.6299212598425197,
                    "duration": 0.13517175000001203
                },
                {
                    "name": "C6",
                    "midi": 84,
                    "time": 146.52617700000053,
                    "velocity": 0.6771653543307087,
                    "duration": 1.2165457499999945
                },
                {
                    "name": "D#5",
                    "midi": 75,
                    "time": 146.52617700000053,
                    "velocity": 0.4645669291338583,
                    "duration": 0.5406869999999913
                },
                {
                    "name": "C5",
                    "midi": 72,
                    "time": 146.52617700000053,
                    "velocity": 0.5196850393700787,
                    "duration": 1.2165457499999945
                },
                {
                    "name": "A5",
                    "midi": 81,
                    "time": 147.06686400000052,
                    "velocity": 0.5433070866141733,
                    "duration": 0.5294226874999879
                },
                {
                    "name": "F#5",
                    "midi": 78,
                    "time": 147.6075510000005,
                    "velocity": 0.5826771653543307,
                    "duration": 0.13517175000001203
                },
                {
                    "name": "A5",
                    "midi": 81,
                    "time": 147.6075510000005,
                    "velocity": 0.5196850393700787,
                    "duration": 0.13517175000001203
                },
                {
                    "name": "G5",
                    "midi": 79,
                    "time": 148.14823800000053,
                    "velocity": 0.5826771653543307,
                    "duration": 0.27034349999999563
                },
                {
                    "name": "A#4",
                    "midi": 70,
                    "time": 148.14823800000053,
                    "velocity": 0.5275590551181102,
                    "duration": 0.27034349999999563
                },
                {
                    "name": "D5",
                    "midi": 74,
                    "time": 148.14823800000053,
                    "velocity": 0.5275590551181102,
                    "duration": 0.27034349999999563
                },
                {
                    "name": "A#5",
                    "midi": 82,
                    "time": 148.14823800000053,
                    "velocity": 0.6929133858267716,
                    "duration": 0.27034349999999563
                },
                {
                    "name": "A4",
                    "midi": 69,
                    "time": 148.68892500000052,
                    "velocity": 0.4881889763779528,
                    "duration": 0.27034349999999563
                },
                {
                    "name": "F#4",
                    "midi": 66,
                    "time": 148.68892500000052,
                    "velocity": 0.4881889763779528,
                    "duration": 0.27034349999999563
                },
                {
                    "name": "D5",
                    "midi": 74,
                    "time": 148.68892500000052,
                    "velocity": 0.5511811023622047,
                    "duration": 0.27034349999999563
                },
                {
                    "name": "F#5",
                    "midi": 78,
                    "time": 148.68892500000052,
                    "velocity": 0.6535433070866141,
                    "duration": 0.27034349999999563
                },
                {
                    "name": "A#4",
                    "midi": 70,
                    "time": 149.22961200000051,
                    "velocity": 0.5275590551181102,
                    "duration": 0.5406869999999913
                },
                {
                    "name": "G4",
                    "midi": 67,
                    "time": 149.22961200000051,
                    "velocity": 0.5275590551181102,
                    "duration": 0.5406869999999913
                },
                {
                    "name": "D5",
                    "midi": 74,
                    "time": 149.22961200000051,
                    "velocity": 0.5826771653543307,
                    "duration": 0.5406869999999913
                },
                {
                    "name": "G5",
                    "midi": 79,
                    "time": 149.22961200000051,
                    "velocity": 0.6929133858267716,
                    "duration": 0.5406869999999913
                },
                {
                    "name": "D4",
                    "midi": 62,
                    "time": 150.3109860000005,
                    "velocity": 0.3937007874015748,
                    "duration": 0.40551525000000765
                },
                {
                    "name": "D#4",
                    "midi": 63,
                    "time": 150.7165012500005,
                    "velocity": 0.36220472440944884,
                    "duration": 0.13517175000001203
                },
                {
                    "name": "F4",
                    "midi": 65,
                    "time": 150.85167300000052,
                    "velocity": 0.3937007874015748,
                    "duration": 1.0475810625000008
                },
                {
                    "name": "A4",
                    "midi": 69,
                    "time": 151.89925406250052,
                    "velocity": 0.36220472440944884,
                    "duration": 0.03379293750001011
                },
                {
                    "name": "G4",
                    "midi": 67,
                    "time": 151.93304700000053,
                    "velocity": 0.3937007874015748,
                    "duration": 0.13517175000001203
                },
                {
                    "name": "F4",
                    "midi": 65,
                    "time": 152.06821875000054,
                    "velocity": 0.3543307086614173,
                    "duration": 0.13517175000001203
                },
                {
                    "name": "G4",
                    "midi": 67,
                    "time": 152.20339050000055,
                    "velocity": 0.3937007874015748,
                    "duration": 0.13517175000001203
                },
                {
                    "name": "A4",
                    "midi": 69,
                    "time": 152.33856225000056,
                    "velocity": 0.33858267716535434,
                    "duration": 0.13517175000001203
                },
                {
                    "name": "A#4",
                    "midi": 70,
                    "time": 152.47373400000058,
                    "velocity": 0.3937007874015748,
                    "duration": 0.5406869999999913
                },
                {
                    "name": "F4",
                    "midi": 65,
                    "time": 153.01442100000057,
                    "velocity": 0.3228346456692913,
                    "duration": 0.47310112499999946
                },
                {
                    "name": "A4",
                    "midi": 69,
                    "time": 153.52131506250058,
                    "velocity": 0.33858267716535434,
                    "duration": 0.03379293750001011
                },
                {
                    "name": "G4",
                    "midi": 67,
                    "time": 153.5551080000006,
                    "velocity": 0.3937007874015748,
                    "duration": 0.13517175000001203
                },
                {
                    "name": "F4",
                    "midi": 65,
                    "time": 153.6902797500006,
                    "velocity": 0.36220472440944884,
                    "duration": 0.13517175000001203
                },
                {
                    "name": "G4",
                    "midi": 67,
                    "time": 153.8254515000006,
                    "velocity": 0.3937007874015748,
                    "duration": 0.13517175000001203
                },
                {
                    "name": "A4",
                    "midi": 69,
                    "time": 153.96062325000062,
                    "velocity": 0.3937007874015748,
                    "duration": 0.13517175000001203
                },
                {
                    "name": "A#4",
                    "midi": 70,
                    "time": 154.09579500000063,
                    "velocity": 0.3937007874015748,
                    "duration": 0.0675858749999918
                },
                {
                    "name": "A4",
                    "midi": 69,
                    "time": 154.5013102500006,
                    "velocity": 0.36220472440944884,
                    "duration": 0.0675858749999918
                },
                {
                    "name": "A#4",
                    "midi": 70,
                    "time": 154.6364820000006,
                    "velocity": 0.4409448818897638,
                    "duration": 0.0675858749999918
                },
                {
                    "name": "C5",
                    "midi": 72,
                    "time": 155.04199725000058,
                    "velocity": 0.3779527559055118,
                    "duration": 0.0675858749999918
                },
                {
                    "name": "D5",
                    "midi": 74,
                    "time": 155.17716900000056,
                    "velocity": 0.4330708661417323,
                    "duration": 0.0675858749999918
                },
                {
                    "name": "E5",
                    "midi": 76,
                    "time": 155.58268425000054,
                    "velocity": 0.4645669291338583,
                    "duration": 0.0675858749999918
                },
                {
                    "name": "A#4",
                    "midi": 70,
                    "time": 155.71785600000052,
                    "velocity": 0.41732283464566927,
                    "duration": 0.5406869999999913
                },
                {
                    "name": "E5",
                    "midi": 76,
                    "time": 155.71785600000052,
                    "velocity": 0.49606299212598426,
                    "duration": 0.5406869999999913
                },
                {
                    "name": "A4",
                    "midi": 69,
                    "time": 156.25854300000051,
                    "velocity": 0.3779527559055118,
                    "duration": 0.27034349999999563
                },
                {
                    "name": "F5",
                    "midi": 77,
                    "time": 156.25854300000051,
                    "velocity": 0.44881889763779526,
                    "duration": 0.27034349999999563
                },
                {
                    "name": "F5",
                    "midi": 77,
                    "time": 156.76543706250052,
                    "velocity": 0.33858267716535434,
                    "duration": 0.03379293750001011
                },
                {
                    "name": "D#5",
                    "midi": 75,
                    "time": 156.79923000000053,
                    "velocity": 0.3937007874015748,
                    "duration": 0.13517175000001203
                },
                {
                    "name": "D5",
                    "midi": 74,
                    "time": 156.93440175000055,
                    "velocity": 0.36220472440944884,
                    "duration": 0.13517175000001203
                },
                {
                    "name": "D#5",
                    "midi": 75,
                    "time": 157.06957350000056,
                    "velocity": 0.4251968503937008,
                    "duration": 0.13517175000001203
                },
                {
                    "name": "F5",
                    "midi": 77,
                    "time": 157.20474525000057,
                    "velocity": 0.4015748031496063,
                    "duration": 0.13517175000001203
                },
                {
                    "name": "G5",
                    "midi": 79,
                    "time": 157.33991700000058,
                    "velocity": 0.4645669291338583,
                    "duration": 0.5406869999999913
                },
                {
                    "name": "C5",
                    "midi": 72,
                    "time": 157.88060400000057,
                    "velocity": 0.3937007874015748,
                    "duration": 0.47310112499999946
                },
                {
                    "name": "D5",
                    "midi": 74,
                    "time": 158.38749806250058,
                    "velocity": 0.33858267716535434,
                    "duration": 0.03379293750001011
                },
                {
                    "name": "C5",
                    "midi": 72,
                    "time": 158.4212910000006,
                    "velocity": 0.3937007874015748,
                    "duration": 0.13517175000001203
                },
                {
                    "name": "B4",
                    "midi": 71,
                    "time": 158.5564627500006,
                    "velocity": 0.36220472440944884,
                    "duration": 0.13517175000001203
                },
                {
                    "name": "C5",
                    "midi": 72,
                    "time": 158.69163450000062,
                    "velocity": 0.4251968503937008,
                    "duration": 0.13517175000001203
                },
                {
                    "name": "D5",
                    "midi": 74,
                    "time": 158.82680625000063,
                    "velocity": 0.4015748031496063,
                    "duration": 0.13517175000001203
                },
                {
                    "name": "D#5",
                    "midi": 75,
                    "time": 158.96197800000064,
                    "velocity": 0.4645669291338583,
                    "duration": 0.5406869999999913
                },
                {
                    "name": "A4",
                    "midi": 69,
                    "time": 159.50266500000063,
                    "velocity": 0.3937007874015748,
                    "duration": 0.47310112499999946
                },
                {
                    "name": "A#4",
                    "midi": 70,
                    "time": 160.00955906250064,
                    "velocity": 0.33858267716535434,
                    "duration": 0.03379293750001011
                },
                {
                    "name": "A4",
                    "midi": 69,
                    "time": 160.04335200000065,
                    "velocity": 0.3937007874015748,
                    "duration": 0.13517175000001203
                },
                {
                    "name": "G4",
                    "midi": 67,
                    "time": 160.17852375000066,
                    "velocity": 0.36220472440944884,
                    "duration": 0.13517175000001203
                },
                {
                    "name": "A4",
                    "midi": 69,
                    "time": 160.31369550000068,
                    "velocity": 0.4094488188976378,
                    "duration": 0.13517175000001203
                },
                {
                    "name": "A#4",
                    "midi": 70,
                    "time": 160.4488672500007,
                    "velocity": 0.3779527559055118,
                    "duration": 0.09011449999999854
                },
                {
                    "name": "D5",
                    "midi": 74,
                    "time": 160.5502460625007,
                    "velocity": 0.33858267716535434,
                    "duration": 0.03379293750001011
                },
                {
                    "name": "C5",
                    "midi": 72,
                    "time": 160.5840390000007,
                    "velocity": 0.41732283464566927,
                    "duration": 0.13517175000001203
                },
                {
                    "name": "B4",
                    "midi": 71,
                    "time": 160.7192107500007,
                    "velocity": 0.3937007874015748,
                    "duration": 0.13517175000001203
                },
                {
                    "name": "C5",
                    "midi": 72,
                    "time": 160.85438250000072,
                    "velocity": 0.4251968503937008,
                    "duration": 0.13517175000001203
                },
                {
                    "name": "D5",
                    "midi": 74,
                    "time": 160.98955425000074,
                    "velocity": 0.4015748031496063,
                    "duration": 0.09011449999999854
                },
                {
                    "name": "F5",
                    "midi": 77,
                    "time": 161.09093306250074,
                    "velocity": 0.33858267716535434,
                    "duration": 0.03379293750001011
                },
                {
                    "name": "D#5",
                    "midi": 75,
                    "time": 161.12472600000075,
                    "velocity": 0.44881889763779526,
                    "duration": 0.13517175000001203
                },
                {
                    "name": "D5",
                    "midi": 74,
                    "time": 161.25989775000076,
                    "velocity": 0.4094488188976378,
                    "duration": 0.13517175000001203
                },
                {
                    "name": "D#5",
                    "midi": 75,
                    "time": 161.39506950000077,
                    "velocity": 0.4566929133858268,
                    "duration": 0.13517175000001203
                },
                {
                    "name": "F5",
                    "midi": 77,
                    "time": 161.53024125000078,
                    "velocity": 0.4330708661417323,
                    "duration": 0.13517175000001203
                },
                {
                    "name": "G5",
                    "midi": 79,
                    "time": 161.6654130000008,
                    "velocity": 0.5039370078740157,
                    "duration": 0.0675858749999918
                },
                {
                    "name": "A4",
                    "midi": 69,
                    "time": 162.07092825000078,
                    "velocity": 0.33070866141732286,
                    "duration": 0.13517175000001203
                },
                {
                    "name": "C5",
                    "midi": 72,
                    "time": 162.2061000000008,
                    "velocity": 0.3937007874015748,
                    "duration": 0.5406869999999913
                },
                {
                    "name": "A#4",
                    "midi": 70,
                    "time": 162.74678700000078,
                    "velocity": 0.3464566929133858,
                    "duration": 0.27034349999999563
                },
                {
                    "name": "A4",
                    "midi": 69,
                    "time": 163.28747400000077,
                    "velocity": 0.2992125984251969,
                    "duration": 0.13517175000001203
                },
                {
                    "name": "D5",
                    "midi": 74,
                    "time": 163.28747400000077,
                    "velocity": 0.36220472440944884,
                    "duration": 0.13517175000001203
                },
                {
                    "name": "A#4",
                    "midi": 70,
                    "time": 163.42264575000078,
                    "velocity": 0.2677165354330709,
                    "duration": 0.13517175000001203
                },
                {
                    "name": "C#5",
                    "midi": 73,
                    "time": 163.42264575000078,
                    "velocity": 0.3228346456692913,
                    "duration": 0.13517175000001203
                },
                {
                    "name": "A4",
                    "midi": 69,
                    "time": 163.5578175000008,
                    "velocity": 0.3228346456692913,
                    "duration": 0.13517175000001203
                },
                {
                    "name": "D5",
                    "midi": 74,
                    "time": 163.5578175000008,
                    "velocity": 0.3858267716535433,
                    "duration": 0.13517175000001203
                },
                {
                    "name": "A#4",
                    "midi": 70,
                    "time": 163.6929892500008,
                    "velocity": 0.2677165354330709,
                    "duration": 0.13517175000001203
                },
                {
                    "name": "C#5",
                    "midi": 73,
                    "time": 163.6929892500008,
                    "velocity": 0.31496062992125984,
                    "duration": 0.13517175000001203
                },
                {
                    "name": "A4",
                    "midi": 69,
                    "time": 163.82816100000082,
                    "velocity": 0.3543307086614173,
                    "duration": 0.13517175000001203
                },
                {
                    "name": "D5",
                    "midi": 74,
                    "time": 163.82816100000082,
                    "velocity": 0.41732283464566927,
                    "duration": 0.13517175000001203
                },
                {
                    "name": "A#4",
                    "midi": 70,
                    "time": 163.96333275000083,
                    "velocity": 0.31496062992125984,
                    "duration": 0.13517175000001203
                },
                {
                    "name": "C#5",
                    "midi": 73,
                    "time": 163.96333275000083,
                    "velocity": 0.3858267716535433,
                    "duration": 0.13517175000001203
                },
                {
                    "name": "A4",
                    "midi": 69,
                    "time": 164.09850450000084,
                    "velocity": 0.3779527559055118,
                    "duration": 0.13517175000001203
                },
                {
                    "name": "D5",
                    "midi": 74,
                    "time": 164.09850450000084,
                    "velocity": 0.44881889763779526,
                    "duration": 0.13517175000001203
                },
                {
                    "name": "A#4",
                    "midi": 70,
                    "time": 164.23367625000085,
                    "velocity": 0.30708661417322836,
                    "duration": 0.13517175000001203
                },
                {
                    "name": "C#5",
                    "midi": 73,
                    "time": 164.23367625000085,
                    "velocity": 0.36220472440944884,
                    "duration": 0.13517175000001203
                },
                {
                    "name": "A4",
                    "midi": 69,
                    "time": 164.36884800000087,
                    "velocity": 0.4094488188976378,
                    "duration": 0.13517175000001203
                },
                {
                    "name": "D5",
                    "midi": 74,
                    "time": 164.36884800000087,
                    "velocity": 0.4881889763779528,
                    "duration": 0.13517175000001203
                },
                {
                    "name": "A#4",
                    "midi": 70,
                    "time": 164.50401975000088,
                    "velocity": 0.3700787401574803,
                    "duration": 0.13517175000001203
                },
                {
                    "name": "C#5",
                    "midi": 73,
                    "time": 164.50401975000088,
                    "velocity": 0.4409448818897638,
                    "duration": 0.13517175000001203
                },
                {
                    "name": "A4",
                    "midi": 69,
                    "time": 164.6391915000009,
                    "velocity": 0.4330708661417323,
                    "duration": 0.13517175000001203
                },
                {
                    "name": "D5",
                    "midi": 74,
                    "time": 164.6391915000009,
                    "velocity": 0.5196850393700787,
                    "duration": 0.13517175000001203
                },
                {
                    "name": "A#4",
                    "midi": 70,
                    "time": 164.7743632500009,
                    "velocity": 0.36220472440944884,
                    "duration": 0.13517175000001203
                },
                {
                    "name": "C#5",
                    "midi": 73,
                    "time": 164.7743632500009,
                    "velocity": 0.4251968503937008,
                    "duration": 0.13517175000001203
                },
                {
                    "name": "A4",
                    "midi": 69,
                    "time": 164.90953500000091,
                    "velocity": 0.4645669291338583,
                    "duration": 0.13517175000001203
                },
                {
                    "name": "D5",
                    "midi": 74,
                    "time": 164.90953500000091,
                    "velocity": 0.5511811023622047,
                    "duration": 0.13517175000001203
                },
                {
                    "name": "A#4",
                    "midi": 70,
                    "time": 165.04470675000093,
                    "velocity": 0.41732283464566927,
                    "duration": 0.13517175000001203
                },
                {
                    "name": "C#5",
                    "midi": 73,
                    "time": 165.04470675000093,
                    "velocity": 0.49606299212598426,
                    "duration": 0.13517175000001203
                },
                {
                    "name": "A4",
                    "midi": 69,
                    "time": 165.17987850000094,
                    "velocity": 0.49606299212598426,
                    "duration": 0.13517175000001203
                },
                {
                    "name": "D5",
                    "midi": 74,
                    "time": 165.17987850000094,
                    "velocity": 0.5826771653543307,
                    "duration": 0.13517175000001203
                },
                {
                    "name": "A#4",
                    "midi": 70,
                    "time": 165.31505025000095,
                    "velocity": 0.4094488188976378,
                    "duration": 0.13517175000001203
                },
                {
                    "name": "C#5",
                    "midi": 73,
                    "time": 165.31505025000095,
                    "velocity": 0.48031496062992124,
                    "duration": 0.13517175000001203
                },
                {
                    "name": "A4",
                    "midi": 69,
                    "time": 165.45022200000096,
                    "velocity": 0.6456692913385826,
                    "duration": 0.27034349999999563
                },
                {
                    "name": "D5",
                    "midi": 74,
                    "time": 165.45022200000096,
                    "velocity": 0.6456692913385826,
                    "duration": 0.27034349999999563
                },
                {
                    "name": "D6",
                    "midi": 86,
                    "time": 165.99090900000095,
                    "velocity": 0.7874015748031497,
                    "duration": 0.8110304999999869
                },
                {
                    "name": "F#5",
                    "midi": 78,
                    "time": 165.99090900000095,
                    "velocity": 0.6614173228346457,
                    "duration": 0.8110304999999869
                },
                {
                    "name": "C6",
                    "midi": 84,
                    "time": 166.80193950000094,
                    "velocity": 0.5905511811023622,
                    "duration": 0.13517175000001203
                },
                {
                    "name": "F#5",
                    "midi": 78,
                    "time": 166.80193950000094,
                    "velocity": 0.49606299212598426,
                    "duration": 0.13517175000001203
                },
                {
                    "name": "A#5",
                    "midi": 82,
                    "time": 167.07228300000097,
                    "velocity": 0.7165354330708661,
                    "duration": 0.27034349999999563
                },
                {
                    "name": "G5",
                    "midi": 79,
                    "time": 167.07228300000097,
                    "velocity": 0.6062992125984252,
                    "duration": 0.27034349999999563
                },
                {
                    "name": "A5",
                    "midi": 81,
                    "time": 167.47779825000097,
                    "velocity": 0.5748031496062992,
                    "duration": 0.0675858749999918
                },
                {
                    "name": "D#5",
                    "midi": 75,
                    "time": 167.47779825000097,
                    "velocity": 0.48031496062992124,
                    "duration": 0.0675858749999918
                },
                {
                    "name": "A#4",
                    "midi": 70,
                    "time": 167.61297000000096,
                    "velocity": 0.5669291338582677,
                    "duration": 0.27034349999999563
                },
                {
                    "name": "G5",
                    "midi": 79,
                    "time": 167.61297000000096,
                    "velocity": 0.6692913385826772,
                    "duration": 0.27034349999999563
                },
                {
                    "name": "C5",
                    "midi": 72,
                    "time": 168.15365700000095,
                    "velocity": 0.5433070866141733,
                    "duration": 0.27034349999999563
                },
                {
                    "name": "F#5",
                    "midi": 78,
                    "time": 168.15365700000095,
                    "velocity": 0.6377952755905512,
                    "duration": 0.27034349999999563
                },
                {
                    "name": "C5",
                    "midi": 72,
                    "time": 168.69434400000094,
                    "velocity": 0.5433070866141733,
                    "duration": 0.5406869999999913
                },
                {
                    "name": "A5",
                    "midi": 81,
                    "time": 168.69434400000094,
                    "velocity": 0.6456692913385826,
                    "duration": 0.5406869999999913
                },
                {
                    "name": "A#4",
                    "midi": 70,
                    "time": 169.23503100000093,
                    "velocity": 0.48031496062992124,
                    "duration": 0.27034349999999563
                },
                {
                    "name": "G5",
                    "midi": 79,
                    "time": 169.23503100000093,
                    "velocity": 0.5669291338582677,
                    "duration": 0.27034349999999563
                },
                {
                    "name": "G#3",
                    "midi": 56,
                    "time": 169.77571800000092,
                    "velocity": 0.1968503937007874,
                    "duration": 0.13629818124999815
                },
                {
                    "name": "A#3",
                    "midi": 58,
                    "time": 169.77571800000092,
                    "velocity": 0.23622047244094488,
                    "duration": 0.13629818124999815
                },
                {
                    "name": "B3",
                    "midi": 59,
                    "time": 169.91088975000093,
                    "velocity": 0.2125984251968504,
                    "duration": 0.13629818124996973
                },
                {
                    "name": "G#3",
                    "midi": 56,
                    "time": 170.04606150000092,
                    "velocity": 0.2125984251968504,
                    "duration": 0.13629818124996973
                },
                {
                    "name": "A#3",
                    "midi": 58,
                    "time": 170.04606150000092,
                    "velocity": 0.25984251968503935,
                    "duration": 0.13629818124996973
                },
                {
                    "name": "B3",
                    "midi": 59,
                    "time": 170.1812332500009,
                    "velocity": 0.2125984251968504,
                    "duration": 0.13629818124996973
                },
                {
                    "name": "G#3",
                    "midi": 56,
                    "time": 170.31640500000088,
                    "velocity": 0.2283464566929134,
                    "duration": 0.13629818124996973
                },
                {
                    "name": "A#3",
                    "midi": 58,
                    "time": 170.31640500000088,
                    "velocity": 0.2755905511811024,
                    "duration": 0.13629818124996973
                },
                {
                    "name": "B3",
                    "midi": 59,
                    "time": 170.45157675000087,
                    "velocity": 0.25196850393700787,
                    "duration": 0.13629818124996973
                },
                {
                    "name": "G#3",
                    "midi": 56,
                    "time": 170.58674850000085,
                    "velocity": 0.25196850393700787,
                    "duration": 0.13629818124996973
                },
                {
                    "name": "A#3",
                    "midi": 58,
                    "time": 170.58674850000085,
                    "velocity": 0.29133858267716534,
                    "duration": 0.13629818124996973
                },
                {
                    "name": "B3",
                    "midi": 59,
                    "time": 170.72192025000084,
                    "velocity": 0.23622047244094488,
                    "duration": 0.13629818124996973
                },
                {
                    "name": "G#3",
                    "midi": 56,
                    "time": 170.85709200000082,
                    "velocity": 0.2677165354330709,
                    "duration": 0.13629818124996973
                },
                {
                    "name": "A#3",
                    "midi": 58,
                    "time": 170.85709200000082,
                    "velocity": 0.3228346456692913,
                    "duration": 0.13629818124996973
                },
                {
                    "name": "B3",
                    "midi": 59,
                    "time": 170.9922637500008,
                    "velocity": 0.2992125984251969,
                    "duration": 0.13629818124996973
                },
                {
                    "name": "G#3",
                    "midi": 56,
                    "time": 171.1274355000008,
                    "velocity": 0.29133858267716534,
                    "duration": 0.13629818124996973
                },
                {
                    "name": "A#3",
                    "midi": 58,
                    "time": 171.1274355000008,
                    "velocity": 0.3464566929133858,
                    "duration": 0.13629818124996973
                },
                {
                    "name": "B3",
                    "midi": 59,
                    "time": 171.26260725000077,
                    "velocity": 0.2755905511811024,
                    "duration": 0.13629818124996973
                },
                {
                    "name": "G#3",
                    "midi": 56,
                    "time": 171.39777900000075,
                    "velocity": 0.30708661417322836,
                    "duration": 0.13629818124996973
                },
                {
                    "name": "A#3",
                    "midi": 58,
                    "time": 171.39777900000075,
                    "velocity": 0.36220472440944884,
                    "duration": 0.13629818124996973
                },
                {
                    "name": "B3",
                    "midi": 59,
                    "time": 171.53295075000074,
                    "velocity": 0.33070866141732286,
                    "duration": 0.13629818124996973
                },
                {
                    "name": "G#3",
                    "midi": 56,
                    "time": 171.66812250000072,
                    "velocity": 0.3228346456692913,
                    "duration": 0.13629818124996973
                },
                {
                    "name": "A#3",
                    "midi": 58,
                    "time": 171.66812250000072,
                    "velocity": 0.3858267716535433,
                    "duration": 0.13629818124996973
                },
                {
                    "name": "B3",
                    "midi": 59,
                    "time": 171.8032942500007,
                    "velocity": 0.3228346456692913,
                    "duration": 0.13629818124996973
                },
                {
                    "name": "G#3",
                    "midi": 56,
                    "time": 171.9384660000007,
                    "velocity": 0.5118110236220472,
                    "duration": 0.27034349999999563
                },
                {
                    "name": "A#3",
                    "midi": 58,
                    "time": 171.9384660000007,
                    "velocity": 0.5118110236220472,
                    "duration": 0.27034349999999563
                },
                {
                    "name": "G#5",
                    "midi": 80,
                    "time": 172.47915300000068,
                    "velocity": 0.6692913385826772,
                    "duration": 0.8110304999999869
                },
                {
                    "name": "B4",
                    "midi": 71,
                    "time": 172.47915300000068,
                    "velocity": 0.5669291338582677,
                    "duration": 0.8110304999999869
                },
                {
                    "name": "G5",
                    "midi": 79,
                    "time": 173.29018350000067,
                    "velocity": 0.4645669291338583,
                    "duration": 0.27034349999999563
                },
                {
                    "name": "C5",
                    "midi": 72,
                    "time": 173.29018350000067,
                    "velocity": 0.3858267716535433,
                    "duration": 0.27034349999999563
                },
                {
                    "name": "F5",
                    "midi": 77,
                    "time": 173.56052700000066,
                    "velocity": 0.5511811023622047,
                    "duration": 0.40551525000000765
                },
                {
                    "name": "G#4",
                    "midi": 68,
                    "time": 173.56052700000066,
                    "velocity": 0.4566929133858268,
                    "duration": 0.40551525000000765
                },
                {
                    "name": "D#5",
                    "midi": 75,
                    "time": 173.96604225000067,
                    "velocity": 0.41732283464566927,
                    "duration": 0.13517175000001203
                },
                {
                    "name": "G4",
                    "midi": 67,
                    "time": 173.96604225000067,
                    "velocity": 0.3543307086614173,
                    "duration": 0.13517175000001203
                },
                {
                    "name": "F4",
                    "midi": 65,
                    "time": 174.10121400000068,
                    "velocity": 0.4094488188976378,
                    "duration": 0.5406869999999913
                },
                {
                    "name": "D5",
                    "midi": 74,
                    "time": 174.10121400000068,
                    "velocity": 0.48031496062992124,
                    "duration": 0.5406869999999913
                },
                {
                    "name": "D#4",
                    "midi": 63,
                    "time": 174.64190100000067,
                    "velocity": 0.36220472440944884,
                    "duration": 0.5406869999999913
                },
                {
                    "name": "C5",
                    "midi": 72,
                    "time": 174.64190100000067,
                    "velocity": 0.4251968503937008,
                    "duration": 0.5406869999999913
                },
                {
                    "name": "D4",
                    "midi": 62,
                    "time": 175.18258800000066,
                    "velocity": 0.31496062992125984,
                    "duration": 0.5406869999999913
                },
                {
                    "name": "A#4",
                    "midi": 70,
                    "time": 175.18258800000066,
                    "velocity": 0.3779527559055118,
                    "duration": 0.5406869999999913
                },
                {
                    "name": "C4",
                    "midi": 60,
                    "time": 175.72327500000065,
                    "velocity": 0.28346456692913385,
                    "duration": 0.27034349999999563
                },
                {
                    "name": "A4",
                    "midi": 69,
                    "time": 175.72327500000065,
                    "velocity": 0.33070866141732286,
                    "duration": 0.27034349999999563
                },
                {
                    "name": "D4",
                    "midi": 62,
                    "time": 176.26396200000065,
                    "velocity": 0.3937007874015748,
                    "duration": 0.40551525000000765
                },
                {
                    "name": "D#4",
                    "midi": 63,
                    "time": 176.66947725000065,
                    "velocity": 0.36220472440944884,
                    "duration": 0.13517175000001203
                },
                {
                    "name": "F4",
                    "midi": 65,
                    "time": 176.80464900000067,
                    "velocity": 0.3937007874015748,
                    "duration": 1.0475810625000008
                },
                {
                    "name": "A4",
                    "midi": 69,
                    "time": 177.85223006250067,
                    "velocity": 0.36220472440944884,
                    "duration": 0.03379293750001011
                },
                {
                    "name": "G4",
                    "midi": 67,
                    "time": 177.88602300000068,
                    "velocity": 0.3937007874015748,
                    "duration": 0.13517175000001203
                },
                {
                    "name": "F4",
                    "midi": 65,
                    "time": 178.0211947500007,
                    "velocity": 0.3543307086614173,
                    "duration": 0.13517175000001203
                },
                {
                    "name": "G4",
                    "midi": 67,
                    "time": 178.1563665000007,
                    "velocity": 0.3937007874015748,
                    "duration": 0.13517175000001203
                },
                {
                    "name": "A4",
                    "midi": 69,
                    "time": 178.2915382500007,
                    "velocity": 0.33858267716535434,
                    "duration": 0.13517175000001203
                },
                {
                    "name": "A#4",
                    "midi": 70,
                    "time": 178.42671000000072,
                    "velocity": 0.3937007874015748,
                    "duration": 0.5406869999999913
                },
                {
                    "name": "F4",
                    "midi": 65,
                    "time": 178.96739700000072,
                    "velocity": 0.3228346456692913,
                    "duration": 0.47310112499999946
                },
                {
                    "name": "A4",
                    "midi": 69,
                    "time": 179.47429106250073,
                    "velocity": 0.33858267716535434,
                    "duration": 0.03379293750001011
                },
                {
                    "name": "G4",
                    "midi": 67,
                    "time": 179.50808400000074,
                    "velocity": 0.3937007874015748,
                    "duration": 0.13517175000001203
                },
                {
                    "name": "F4",
                    "midi": 65,
                    "time": 179.64325575000075,
                    "velocity": 0.36220472440944884,
                    "duration": 0.13517175000001203
                },
                {
                    "name": "G4",
                    "midi": 67,
                    "time": 179.77842750000076,
                    "velocity": 0.3937007874015748,
                    "duration": 0.13517175000001203
                },
                {
                    "name": "A4",
                    "midi": 69,
                    "time": 179.91359925000077,
                    "velocity": 0.3937007874015748,
                    "duration": 0.13517175000001203
                },
                {
                    "name": "A#4",
                    "midi": 70,
                    "time": 180.04877100000078,
                    "velocity": 0.3937007874015748,
                    "duration": 0.0675858749999918
                },
                {
                    "name": "A4",
                    "midi": 69,
                    "time": 180.45428625000076,
                    "velocity": 0.36220472440944884,
                    "duration": 0.0675858749999918
                },
                {
                    "name": "A#4",
                    "midi": 70,
                    "time": 180.58945800000075,
                    "velocity": 0.4409448818897638,
                    "duration": 0.0675858749999918
                },
                {
                    "name": "C5",
                    "midi": 72,
                    "time": 180.99497325000073,
                    "velocity": 0.3779527559055118,
                    "duration": 0.0675858749999918
                },
                {
                    "name": "D5",
                    "midi": 74,
                    "time": 181.1301450000007,
                    "velocity": 0.4330708661417323,
                    "duration": 0.0675858749999918
                },
                {
                    "name": "E5",
                    "midi": 76,
                    "time": 181.5356602500007,
                    "velocity": 0.4645669291338583,
                    "duration": 0.0675858749999918
                },
                {
                    "name": "A#4",
                    "midi": 70,
                    "time": 181.67083200000067,
                    "velocity": 0.41732283464566927,
                    "duration": 0.5406869999999913
                },
                {
                    "name": "E5",
                    "midi": 76,
                    "time": 181.67083200000067,
                    "velocity": 0.49606299212598426,
                    "duration": 0.5406869999999913
                },
                {
                    "name": "A4",
                    "midi": 69,
                    "time": 182.21151900000066,
                    "velocity": 0.3779527559055118,
                    "duration": 0.27034349999999563
                },
                {
                    "name": "F5",
                    "midi": 77,
                    "time": 182.21151900000066,
                    "velocity": 0.44881889763779526,
                    "duration": 0.27034349999999563
                },
                {
                    "name": "F5",
                    "midi": 77,
                    "time": 182.71841306250067,
                    "velocity": 0.33858267716535434,
                    "duration": 0.03379293750001011
                },
                {
                    "name": "D#5",
                    "midi": 75,
                    "time": 182.75220600000068,
                    "velocity": 0.3937007874015748,
                    "duration": 0.13517175000001203
                },
                {
                    "name": "D5",
                    "midi": 74,
                    "time": 182.8873777500007,
                    "velocity": 0.36220472440944884,
                    "duration": 0.13517175000001203
                },
                {
                    "name": "D#5",
                    "midi": 75,
                    "time": 183.0225495000007,
                    "velocity": 0.4251968503937008,
                    "duration": 0.13517175000001203
                },
                {
                    "name": "F5",
                    "midi": 77,
                    "time": 183.15772125000072,
                    "velocity": 0.4015748031496063,
                    "duration": 0.13517175000001203
                },
                {
                    "name": "G5",
                    "midi": 79,
                    "time": 183.29289300000073,
                    "velocity": 0.4645669291338583,
                    "duration": 0.5406869999999913
                },
                {
                    "name": "C5",
                    "midi": 72,
                    "time": 183.83358000000072,
                    "velocity": 0.3937007874015748,
                    "duration": 0.47310112499999946
                },
                {
                    "name": "D5",
                    "midi": 74,
                    "time": 184.34047406250073,
                    "velocity": 0.33858267716535434,
                    "duration": 0.03379293750001011
                },
                {
                    "name": "C5",
                    "midi": 72,
                    "time": 184.37426700000074,
                    "velocity": 0.3937007874015748,
                    "duration": 0.13517175000001203
                },
                {
                    "name": "B4",
                    "midi": 71,
                    "time": 184.50943875000075,
                    "velocity": 0.36220472440944884,
                    "duration": 0.13517175000001203
                },
                {
                    "name": "C5",
                    "midi": 72,
                    "time": 184.64461050000077,
                    "velocity": 0.4251968503937008,
                    "duration": 0.13517175000001203
                },
                {
                    "name": "D5",
                    "midi": 74,
                    "time": 184.77978225000078,
                    "velocity": 0.4015748031496063,
                    "duration": 0.13517175000001203
                },
                {
                    "name": "D#5",
                    "midi": 75,
                    "time": 184.9149540000008,
                    "velocity": 0.4645669291338583,
                    "duration": 0.5406869999999913
                },
                {
                    "name": "A4",
                    "midi": 69,
                    "time": 185.45564100000078,
                    "velocity": 0.3937007874015748,
                    "duration": 0.47310112499999946
                },
                {
                    "name": "A#4",
                    "midi": 70,
                    "time": 185.9625350625008,
                    "velocity": 0.33858267716535434,
                    "duration": 0.03379293750001011
                },
                {
                    "name": "A4",
                    "midi": 69,
                    "time": 185.9963280000008,
                    "velocity": 0.3937007874015748,
                    "duration": 0.13517175000001203
                },
                {
                    "name": "G4",
                    "midi": 67,
                    "time": 186.1314997500008,
                    "velocity": 0.36220472440944884,
                    "duration": 0.13517175000001203
                },
                {
                    "name": "A4",
                    "midi": 69,
                    "time": 186.26667150000083,
                    "velocity": 0.4094488188976378,
                    "duration": 0.13517175000001203
                },
                {
                    "name": "A#4",
                    "midi": 70,
                    "time": 186.40184325000084,
                    "velocity": 0.3779527559055118,
                    "duration": 0.09011449999999854
                },
                {
                    "name": "D5",
                    "midi": 74,
                    "time": 186.50322206250084,
                    "velocity": 0.33858267716535434,
                    "duration": 0.03379293750001011
                },
                {
                    "name": "C5",
                    "midi": 72,
                    "time": 186.53701500000085,
                    "velocity": 0.41732283464566927,
                    "duration": 0.13517175000001203
                },
                {
                    "name": "B4",
                    "midi": 71,
                    "time": 186.67218675000086,
                    "velocity": 0.3937007874015748,
                    "duration": 0.13517175000001203
                },
                {
                    "name": "C5",
                    "midi": 72,
                    "time": 186.80735850000087,
                    "velocity": 0.4251968503937008,
                    "duration": 0.13517175000001203
                },
                {
                    "name": "D5",
                    "midi": 74,
                    "time": 186.94253025000089,
                    "velocity": 0.4015748031496063,
                    "duration": 0.09011449999999854
                },
                {
                    "name": "F5",
                    "midi": 77,
                    "time": 187.0439090625009,
                    "velocity": 0.33858267716535434,
                    "duration": 0.03379293750001011
                },
                {
                    "name": "D#5",
                    "midi": 75,
                    "time": 187.0777020000009,
                    "velocity": 0.44881889763779526,
                    "duration": 0.13517175000001203
                },
                {
                    "name": "D5",
                    "midi": 74,
                    "time": 187.2128737500009,
                    "velocity": 0.4094488188976378,
                    "duration": 0.13517175000001203
                },
                {
                    "name": "D#5",
                    "midi": 75,
                    "time": 187.34804550000092,
                    "velocity": 0.4566929133858268,
                    "duration": 0.13517175000001203
                },
                {
                    "name": "F5",
                    "midi": 77,
                    "time": 187.48321725000093,
                    "velocity": 0.4330708661417323,
                    "duration": 0.13517175000001203
                },
                {
                    "name": "G5",
                    "midi": 79,
                    "time": 187.61838900000095,
                    "velocity": 0.48031496062992124,
                    "duration": 0.13517175000001203
                },
                {
                    "name": "D#5",
                    "midi": 75,
                    "time": 187.75356075000096,
                    "velocity": 0.4645669291338583,
                    "duration": 0.13517175000001203
                },
                {
                    "name": "C5",
                    "midi": 72,
                    "time": 187.88873250000097,
                    "velocity": 0.4094488188976378,
                    "duration": 0.13517175000001203
                },
                {
                    "name": "A4",
                    "midi": 69,
                    "time": 188.02390425000098,
                    "velocity": 0.33070866141732286,
                    "duration": 0.13517175000001203
                },
                {
                    "name": "A#4",
                    "midi": 70,
                    "time": 188.159076000001,
                    "velocity": 0.3937007874015748,
                    "duration": 0.5406869999999913
                },
                {
                    "name": "A5",
                    "midi": 81,
                    "time": 189.206657062501,
                    "velocity": 0.36220472440944884,
                    "duration": 0.03379293750001011
                },
                {
                    "name": "G5",
                    "midi": 79,
                    "time": 189.240450000001,
                    "velocity": 0.3937007874015748,
                    "duration": 0.13517175000001203
                },
                {
                    "name": "F#5",
                    "midi": 78,
                    "time": 189.37562175000102,
                    "velocity": 0.3543307086614173,
                    "duration": 0.13517175000001203
                },
                {
                    "name": "G5",
                    "midi": 79,
                    "time": 189.51079350000103,
                    "velocity": 0.3937007874015748,
                    "duration": 0.13517175000001203
                },
                {
                    "name": "A5",
                    "midi": 81,
                    "time": 189.64596525000104,
                    "velocity": 0.33858267716535434,
                    "duration": 0.13517175000001203
                },
                {
                    "name": "A#5",
                    "midi": 82,
                    "time": 189.78113700000105,
                    "velocity": 0.3937007874015748,
                    "duration": 0.5406869999999913
                },
                {
                    "name": "F5",
                    "midi": 77,
                    "time": 190.32182400000104,
                    "velocity": 0.3228346456692913,
                    "duration": 0.47310112499999946
                },
                {
                    "name": "A4",
                    "midi": 69,
                    "time": 190.82871806250105,
                    "velocity": 0.33858267716535434,
                    "duration": 0.03379293750001011
                },
                {
                    "name": "D#5",
                    "midi": 75,
                    "time": 190.86251100000106,
                    "velocity": 0.3228346456692913,
                    "duration": 0.5406870000000481
                },
                {
                    "name": "G4",
                    "midi": 67,
                    "time": 190.86251100000106,
                    "velocity": 0.3937007874015748,
                    "duration": 0.13517175000001203
                },
                {
                    "name": "F4",
                    "midi": 65,
                    "time": 190.99768275000108,
                    "velocity": 0.36220472440944884,
                    "duration": 0.13517175000001203
                },
                {
                    "name": "G4",
                    "midi": 67,
                    "time": 191.1328545000011,
                    "velocity": 0.3937007874015748,
                    "duration": 0.13517175000001203
                },
                {
                    "name": "A4",
                    "midi": 69,
                    "time": 191.2680262500011,
                    "velocity": 0.36220472440944884,
                    "duration": 0.13517175000001203
                },
                {
                    "name": "D5",
                    "midi": 74,
                    "time": 191.4031980000011,
                    "velocity": 0.3464566929133858,
                    "duration": 0.5406869999999913
                },
                {
                    "name": "A#4",
                    "midi": 70,
                    "time": 191.4031980000011,
                    "velocity": 0.3937007874015748,
                    "duration": 0.5406869999999913
                },
                {
                    "name": "F4",
                    "midi": 65,
                    "time": 191.9438850000011,
                    "velocity": 0.3228346456692913,
                    "duration": 0.27034349999999563
                },
                {
                    "name": "A4",
                    "midi": 69,
                    "time": 192.4507790625011,
                    "velocity": 0.33858267716535434,
                    "duration": 0.03379293750001011
                },
                {
                    "name": "G4",
                    "midi": 67,
                    "time": 192.48457200000112,
                    "velocity": 0.3937007874015748,
                    "duration": 0.13517175000001203
                },
                {
                    "name": "F#4",
                    "midi": 66,
                    "time": 192.61974375000113,
                    "velocity": 0.36220472440944884,
                    "duration": 0.13517175000001203
                },
                {
                    "name": "G4",
                    "midi": 67,
                    "time": 192.75491550000115,
                    "velocity": 0.3937007874015748,
                    "duration": 0.13517175000001203
                },
                {
                    "name": "A4",
                    "midi": 69,
                    "time": 192.89008725000116,
                    "velocity": 0.36220472440944884,
                    "duration": 0.13517175000001203
                },
                {
                    "name": "A#4",
                    "midi": 70,
                    "time": 193.02525900000117,
                    "velocity": 0.3937007874015748,
                    "duration": 0.5406869999999913
                },
                {
                    "name": "F4",
                    "midi": 65,
                    "time": 193.56594600000116,
                    "velocity": 0.3228346456692913,
                    "duration": 0.47310112499999946
                },
                {
                    "name": "A3",
                    "midi": 57,
                    "time": 194.07284006250117,
                    "velocity": 0.28346456692913385,
                    "duration": 0.03379293750001011
                },
                {
                    "name": "D#4",
                    "midi": 63,
                    "time": 194.10663300000118,
                    "velocity": 0.2677165354330709,
                    "duration": 0.5406870000000481
                },
                {
                    "name": "G3",
                    "midi": 55,
                    "time": 194.10663300000118,
                    "velocity": 0.33070866141732286,
                    "duration": 0.13517175000001203
                },
                {
                    "name": "F3",
                    "midi": 53,
                    "time": 194.2418047500012,
                    "velocity": 0.30708661417322836,
                    "duration": 0.13517175000001203
                },
                {
                    "name": "G3",
                    "midi": 55,
                    "time": 194.3769765000012,
                    "velocity": 0.33070866141732286,
                    "duration": 0.13517175000001203
                },
                {
                    "name": "A3",
                    "midi": 57,
                    "time": 194.51214825000122,
                    "velocity": 0.30708661417322836,
                    "duration": 0.13517175000001203
                },
                {
                    "name": "D4",
                    "midi": 62,
                    "time": 194.64732000000123,
                    "velocity": 0.2677165354330709,
                    "duration": 0.5406870000000197
                },
                {
                    "name": "A#3",
                    "midi": 58,
                    "time": 194.64732000000123,
                    "velocity": 0.33070866141732286,
                    "duration": 0.27034349999999563
                },
                {
                    "name": "F3",
                    "midi": 53,
                    "time": 194.91766350000123,
                    "velocity": 0.25984251968503935,
                    "duration": 0.22528625000001057
                },
                {
                    "name": "A3",
                    "midi": 57,
                    "time": 195.15421406250124,
                    "velocity": 0.29133858267716534,
                    "duration": 0.03379293750001011
                },
                {
                    "name": "D#4",
                    "midi": 63,
                    "time": 195.18800700000125,
                    "velocity": 0.30708661417322836,
                    "duration": 0.5406870000000481
                },
                {
                    "name": "G3",
                    "midi": 55,
                    "time": 195.18800700000125,
                    "velocity": 0.33858267716535434,
                    "duration": 0.13517175000001203
                },
                {
                    "name": "F3",
                    "midi": 53,
                    "time": 195.32317875000126,
                    "velocity": 0.31496062992125984,
                    "duration": 0.13517175000001203
                },
                {
                    "name": "G3",
                    "midi": 55,
                    "time": 195.45835050000127,
                    "velocity": 0.3464566929133858,
                    "duration": 0.13517175000001203
                },
                {
                    "name": "A3",
                    "midi": 57,
                    "time": 195.59352225000129,
                    "velocity": 0.31496062992125984,
                    "duration": 0.13517175000001203
                },
                {
                    "name": "D4",
                    "midi": 62,
                    "time": 195.7286940000013,
                    "velocity": 0.28346456692913385,
                    "duration": 0.5406870000000197
                },
                {
                    "name": "A#3",
                    "midi": 58,
                    "time": 195.7286940000013,
                    "velocity": 0.3464566929133858,
                    "duration": 0.27034349999999563
                },
                {
                    "name": "F3",
                    "midi": 53,
                    "time": 195.9990375000013,
                    "velocity": 0.2677165354330709,
                    "duration": 0.20275762500000383
                },
                {
                    "name": "A3",
                    "midi": 57,
                    "time": 196.2355880625013,
                    "velocity": 0.30708661417322836,
                    "duration": 0.03379293750001011
                },
                {
                    "name": "D#4",
                    "midi": 63,
                    "time": 196.26938100000132,
                    "velocity": 0.3464566929133858,
                    "duration": 0.5406870000000481
                },
                {
                    "name": "G3",
                    "midi": 55,
                    "time": 196.26938100000132,
                    "velocity": 0.36220472440944884,
                    "duration": 0.13517175000001203
                },
                {
                    "name": "F3",
                    "midi": 53,
                    "time": 196.40455275000133,
                    "velocity": 0.33858267716535434,
                    "duration": 0.13517175000001203
                },
                {
                    "name": "G3",
                    "midi": 55,
                    "time": 196.53972450000134,
                    "velocity": 0.3700787401574803,
                    "duration": 0.13517175000001203
                },
                {
                    "name": "A3",
                    "midi": 57,
                    "time": 196.67489625000135,
                    "velocity": 0.3464566929133858,
                    "duration": 0.13517175000001203
                },
                {
                    "name": "D4",
                    "midi": 62,
                    "time": 196.81006800000137,
                    "velocity": 0.33070866141732286,
                    "duration": 0.27034350000002405
                },
                {
                    "name": "A#3",
                    "midi": 58,
                    "time": 196.81006800000137,
                    "velocity": 0.3779527559055118,
                    "duration": 0.13517175000001203
                },
                {
                    "name": "F3",
                    "midi": 53,
                    "time": 196.94523975000138,
                    "velocity": 0.3228346456692913,
                    "duration": 0.13517175000001203
                },
                {
                    "name": "D#4",
                    "midi": 63,
                    "time": 197.0804115000014,
                    "velocity": 0.31496062992125984,
                    "duration": 0.27034350000002405
                },
                {
                    "name": "A3",
                    "midi": 57,
                    "time": 197.0804115000014,
                    "velocity": 0.3937007874015748,
                    "duration": 0.13517175000001203
                },
                {
                    "name": "F3",
                    "midi": 53,
                    "time": 197.2155832500014,
                    "velocity": 0.33858267716535434,
                    "duration": 0.13517175000001203
                },
                {
                    "name": "D4",
                    "midi": 62,
                    "time": 197.3507550000014,
                    "velocity": 0.3858267716535433,
                    "duration": 0.27034350000002405
                },
                {
                    "name": "A#3",
                    "midi": 58,
                    "time": 197.3507550000014,
                    "velocity": 0.4015748031496063,
                    "duration": 0.13517175000001203
                },
                {
                    "name": "F3",
                    "midi": 53,
                    "time": 197.48592675000143,
                    "velocity": 0.36220472440944884,
                    "duration": 0.13517175000001203
                },
                {
                    "name": "D#4",
                    "midi": 63,
                    "time": 197.62109850000144,
                    "velocity": 0.33070866141732286,
                    "duration": 0.27034350000002405
                },
                {
                    "name": "A3",
                    "midi": 57,
                    "time": 197.62109850000144,
                    "velocity": 0.4094488188976378,
                    "duration": 0.13517175000001203
                },
                {
                    "name": "F3",
                    "midi": 53,
                    "time": 197.75627025000145,
                    "velocity": 0.3700787401574803,
                    "duration": 0.13517175000001203
                },
                {
                    "name": "A#3",
                    "midi": 58,
                    "time": 197.89144200000146,
                    "velocity": 0.2677165354330709,
                    "duration": 0.13517175000001203
                },
                {
                    "name": "D4",
                    "midi": 62,
                    "time": 197.89144200000146,
                    "velocity": 0.31496062992125984,
                    "duration": 0.13517175000001203
                },
                {
                    "name": "D4",
                    "midi": 62,
                    "time": 198.43212900000148,
                    "velocity": 0.2677165354330709,
                    "duration": 0.13517175000001203
                },
                {
                    "name": "A#4",
                    "midi": 70,
                    "time": 198.43212900000148,
                    "velocity": 0.31496062992125984,
                    "duration": 0.13517175000001203
                }
            ],
            "controlChanges": {},
            "id": 1,
            "name": "Piano right",
            "instrumentNumber": 0,
            "instrument": "acoustic grand piano",
            "instrumentFamily": "piano",
            "channelNumber": 0,
            "isPercussion": false
        },
        {
            "startTime": 1.622061,
            "duration": 198.5673007500004,
            "length": 867,
            "notes": [
                {
                    "name": "A#2",
                    "midi": 46,
                    "time": 1.622061,
                    "velocity": 0.31496062992125984,
                    "duration": 0.13517175000000003
                },
                {
                    "name": "A#3",
                    "midi": 58,
                    "time": 1.8924045,
                    "velocity": 0.2283464566929134,
                    "duration": 0.27034350000000007
                },
                {
                    "name": "D4",
                    "midi": 62,
                    "time": 2.162748,
                    "velocity": 0.2677165354330709,
                    "duration": 0.27034350000000007
                },
                {
                    "name": "A#3",
                    "midi": 58,
                    "time": 2.4330915,
                    "velocity": 0.2283464566929134,
                    "duration": 0.27034350000000007
                },
                {
                    "name": "D#4",
                    "midi": 63,
                    "time": 2.7034350000000003,
                    "velocity": 0.2677165354330709,
                    "duration": 0.27034350000000007
                },
                {
                    "name": "C4",
                    "midi": 60,
                    "time": 2.9737785000000003,
                    "velocity": 0.2440944881889764,
                    "duration": 0.27034350000000007
                },
                {
                    "name": "D4",
                    "midi": 62,
                    "time": 3.2441220000000004,
                    "velocity": 0.31496062992125984,
                    "duration": 0.27034350000000007
                },
                {
                    "name": "C#4",
                    "midi": 61,
                    "time": 3.5144655000000005,
                    "velocity": 0.23622047244094488,
                    "duration": 0.27034350000000007
                },
                {
                    "name": "D4",
                    "midi": 62,
                    "time": 3.7848090000000005,
                    "velocity": 0.2677165354330709,
                    "duration": 0.2703434999999996
                },
                {
                    "name": "A#3",
                    "midi": 58,
                    "time": 4.0551525,
                    "velocity": 0.23622047244094488,
                    "duration": 0.27034350000000007
                },
                {
                    "name": "D#4",
                    "midi": 63,
                    "time": 4.325496,
                    "velocity": 0.2677165354330709,
                    "duration": 0.27034350000000007
                },
                {
                    "name": "C4",
                    "midi": 60,
                    "time": 4.5958395,
                    "velocity": 0.2283464566929134,
                    "duration": 0.27034350000000007
                },
                {
                    "name": "D4",
                    "midi": 62,
                    "time": 4.866183,
                    "velocity": 0.31496062992125984,
                    "duration": 0.27034350000000007
                },
                {
                    "name": "C#4",
                    "midi": 61,
                    "time": 5.1365265,
                    "velocity": 0.23622047244094488,
                    "duration": 0.27034350000000007
                },
                {
                    "name": "D4",
                    "midi": 62,
                    "time": 5.4068700000000005,
                    "velocity": 0.2677165354330709,
                    "duration": 0.27034350000000007
                },
                {
                    "name": "A3",
                    "midi": 57,
                    "time": 5.677213500000001,
                    "velocity": 0.23622047244094488,
                    "duration": 0.27034350000000007
                },
                {
                    "name": "A#3",
                    "midi": 58,
                    "time": 5.947557000000001,
                    "velocity": 0.2677165354330709,
                    "duration": 0.27034350000000007
                },
                {
                    "name": "G3",
                    "midi": 55,
                    "time": 6.217900500000001,
                    "velocity": 0.23622047244094488,
                    "duration": 0.25907918750000025
                },
                {
                    "name": "F3",
                    "midi": 53,
                    "time": 6.488244000000001,
                    "velocity": 0.31496062992125984,
                    "duration": 0.8110305000000002
                },
                {
                    "name": "F4",
                    "midi": 65,
                    "time": 7.028931000000001,
                    "velocity": 0.2755905511811024,
                    "duration": 0.27034350000000007
                },
                {
                    "name": "F3",
                    "midi": 53,
                    "time": 8.380648500000001,
                    "velocity": 0.28346456692913385,
                    "duration": 1.6220609999999969
                },
                {
                    "name": "A3",
                    "midi": 57,
                    "time": 8.650992,
                    "velocity": 0.31496062992125984,
                    "duration": 0.2703434999999992
                },
                {
                    "name": "C4",
                    "midi": 60,
                    "time": 8.9213355,
                    "velocity": 0.29133858267716534,
                    "duration": 0.2703434999999992
                },
                {
                    "name": "D#4",
                    "midi": 63,
                    "time": 9.191678999999999,
                    "velocity": 0.31496062992125984,
                    "duration": 0.8110304999999993
                },
                {
                    "name": "F3",
                    "midi": 53,
                    "time": 10.002709499999998,
                    "velocity": 0.33070866141732286,
                    "duration": 1.8924044999999978
                },
                {
                    "name": "C4",
                    "midi": 60,
                    "time": 10.273052999999997,
                    "velocity": 0.3779527559055118,
                    "duration": 0.2703434999999992
                },
                {
                    "name": "D#4",
                    "midi": 63,
                    "time": 10.543396499999997,
                    "velocity": 0.3228346456692913,
                    "duration": 0.2703434999999992
                },
                {
                    "name": "F#4",
                    "midi": 66,
                    "time": 10.813739999999996,
                    "velocity": 0.4330708661417323,
                    "duration": 1.0813740000000003
                },
                {
                    "name": "F4",
                    "midi": 65,
                    "time": 11.895113999999996,
                    "velocity": 0.2992125984251969,
                    "duration": 0.5406870000000001
                },
                {
                    "name": "F3",
                    "midi": 53,
                    "time": 11.895113999999996,
                    "velocity": 0.2992125984251969,
                    "duration": 0.5406870000000001
                },
                {
                    "name": "F3",
                    "midi": 53,
                    "time": 12.435800999999996,
                    "velocity": 0.25196850393700787,
                    "duration": 0.5406870000000001
                },
                {
                    "name": "D#4",
                    "midi": 63,
                    "time": 12.435800999999996,
                    "velocity": 0.25196850393700787,
                    "duration": 0.5406870000000001
                },
                {
                    "name": "A#3",
                    "midi": 58,
                    "time": 12.976487999999996,
                    "velocity": 0.23622047244094488,
                    "duration": 0.8110304999999993
                },
                {
                    "name": "D#4",
                    "midi": 63,
                    "time": 12.976487999999996,
                    "velocity": 0.28346456692913385,
                    "duration": 0.5406870000000001
                },
                {
                    "name": "D4",
                    "midi": 62,
                    "time": 13.517174999999996,
                    "velocity": 0.25196850393700787,
                    "duration": 0.2703434999999992
                },
                {
                    "name": "A#2",
                    "midi": 46,
                    "time": 14.598548999999995,
                    "velocity": 0.31496062992125984,
                    "duration": 0.1351717499999996
                },
                {
                    "name": "A#3",
                    "midi": 58,
                    "time": 14.868892499999994,
                    "velocity": 0.2283464566929134,
                    "duration": 0.2703434999999992
                },
                {
                    "name": "D4",
                    "midi": 62,
                    "time": 15.139235999999993,
                    "velocity": 0.2677165354330709,
                    "duration": 0.2703434999999992
                },
                {
                    "name": "A#3",
                    "midi": 58,
                    "time": 15.409579499999992,
                    "velocity": 0.2283464566929134,
                    "duration": 0.2703434999999992
                },
                {
                    "name": "D#4",
                    "midi": 63,
                    "time": 15.679922999999992,
                    "velocity": 0.2677165354330709,
                    "duration": 0.2703434999999992
                },
                {
                    "name": "C4",
                    "midi": 60,
                    "time": 15.95026649999999,
                    "velocity": 0.2440944881889764,
                    "duration": 0.2703434999999992
                },
                {
                    "name": "D4",
                    "midi": 62,
                    "time": 16.22060999999999,
                    "velocity": 0.31496062992125984,
                    "duration": 0.2703434999999992
                },
                {
                    "name": "C#4",
                    "midi": 61,
                    "time": 16.49095349999999,
                    "velocity": 0.23622047244094488,
                    "duration": 0.2703434999999992
                },
                {
                    "name": "D4",
                    "midi": 62,
                    "time": 16.76129699999999,
                    "velocity": 0.2677165354330709,
                    "duration": 0.2703434999999992
                },
                {
                    "name": "A#3",
                    "midi": 58,
                    "time": 17.031640499999988,
                    "velocity": 0.23622047244094488,
                    "duration": 0.2703434999999992
                },
                {
                    "name": "D#4",
                    "midi": 63,
                    "time": 17.301983999999987,
                    "velocity": 0.2677165354330709,
                    "duration": 0.2703434999999992
                },
                {
                    "name": "C4",
                    "midi": 60,
                    "time": 17.572327499999986,
                    "velocity": 0.2283464566929134,
                    "duration": 0.2703434999999992
                },
                {
                    "name": "D4",
                    "midi": 62,
                    "time": 17.842670999999985,
                    "velocity": 0.31496062992125984,
                    "duration": 0.2703434999999992
                },
                {
                    "name": "C#4",
                    "midi": 61,
                    "time": 18.113014499999984,
                    "velocity": 0.23622047244094488,
                    "duration": 0.2703434999999992
                },
                {
                    "name": "D4",
                    "midi": 62,
                    "time": 18.383357999999983,
                    "velocity": 0.2677165354330709,
                    "duration": 0.2703434999999992
                },
                {
                    "name": "A3",
                    "midi": 57,
                    "time": 18.653701499999983,
                    "velocity": 0.23622047244094488,
                    "duration": 0.2703434999999992
                },
                {
                    "name": "A#3",
                    "midi": 58,
                    "time": 18.924044999999982,
                    "velocity": 0.2677165354330709,
                    "duration": 0.2703434999999992
                },
                {
                    "name": "G3",
                    "midi": 55,
                    "time": 19.19438849999998,
                    "velocity": 0.23622047244094488,
                    "duration": 0.25907918749999936
                },
                {
                    "name": "F3",
                    "midi": 53,
                    "time": 19.46473199999998,
                    "velocity": 0.31496062992125984,
                    "duration": 0.8110304999999975
                },
                {
                    "name": "F4",
                    "midi": 65,
                    "time": 20.00541899999998,
                    "velocity": 0.2755905511811024,
                    "duration": 0.2703434999999992
                },
                {
                    "name": "F3",
                    "midi": 53,
                    "time": 21.357136499999978,
                    "velocity": 0.28346456692913385,
                    "duration": 1.6220609999999986
                },
                {
                    "name": "A3",
                    "midi": 57,
                    "time": 21.627479999999977,
                    "velocity": 0.31496062992125984,
                    "duration": 0.2703434999999992
                },
                {
                    "name": "C4",
                    "midi": 60,
                    "time": 21.897823499999976,
                    "velocity": 0.29133858267716534,
                    "duration": 0.2703434999999992
                },
                {
                    "name": "D#4",
                    "midi": 63,
                    "time": 22.168166999999976,
                    "velocity": 0.31496062992125984,
                    "duration": 0.8110305000000011
                },
                {
                    "name": "F3",
                    "midi": 53,
                    "time": 22.979197499999977,
                    "velocity": 0.33070866141732286,
                    "duration": 1.8924044999999978
                },
                {
                    "name": "C4",
                    "midi": 60,
                    "time": 23.249540999999976,
                    "velocity": 0.3779527559055118,
                    "duration": 0.2703434999999992
                },
                {
                    "name": "D#4",
                    "midi": 63,
                    "time": 23.519884499999975,
                    "velocity": 0.3228346456692913,
                    "duration": 0.2703434999999992
                },
                {
                    "name": "F#4",
                    "midi": 66,
                    "time": 23.790227999999974,
                    "velocity": 0.4330708661417323,
                    "duration": 1.0813740000000003
                },
                {
                    "name": "F4",
                    "midi": 65,
                    "time": 24.871601999999974,
                    "velocity": 0.2992125984251969,
                    "duration": 0.5406869999999984
                },
                {
                    "name": "F3",
                    "midi": 53,
                    "time": 24.871601999999974,
                    "velocity": 0.2992125984251969,
                    "duration": 0.5406869999999984
                },
                {
                    "name": "F3",
                    "midi": 53,
                    "time": 25.412288999999973,
                    "velocity": 0.25196850393700787,
                    "duration": 0.5406869999999984
                },
                {
                    "name": "D#4",
                    "midi": 63,
                    "time": 25.412288999999973,
                    "velocity": 0.25196850393700787,
                    "duration": 0.5406869999999984
                },
                {
                    "name": "A#3",
                    "midi": 58,
                    "time": 25.95297599999997,
                    "velocity": 0.23622047244094488,
                    "duration": 0.8110304999999975
                },
                {
                    "name": "D#4",
                    "midi": 63,
                    "time": 25.95297599999997,
                    "velocity": 0.28346456692913385,
                    "duration": 0.5406869999999984
                },
                {
                    "name": "D4",
                    "midi": 62,
                    "time": 26.49366299999997,
                    "velocity": 0.25196850393700787,
                    "duration": 0.2703434999999992
                },
                {
                    "name": "F#4",
                    "midi": 66,
                    "time": 27.034349999999968,
                    "velocity": 0.2992125984251969,
                    "duration": 0.13517175000000137
                },
                {
                    "name": "G4",
                    "midi": 67,
                    "time": 27.16952174999997,
                    "velocity": 0.25984251968503935,
                    "duration": 0.13517175000000137
                },
                {
                    "name": "F#4",
                    "midi": 66,
                    "time": 27.30469349999997,
                    "velocity": 0.33070866141732286,
                    "duration": 0.13517175000000137
                },
                {
                    "name": "G4",
                    "midi": 67,
                    "time": 27.439865249999972,
                    "velocity": 0.2992125984251969,
                    "duration": 0.13517175000000137
                },
                {
                    "name": "F#4",
                    "midi": 66,
                    "time": 27.575036999999973,
                    "velocity": 0.3543307086614173,
                    "duration": 0.13517175000000137
                },
                {
                    "name": "G4",
                    "midi": 67,
                    "time": 27.710208749999975,
                    "velocity": 0.30708661417322836,
                    "duration": 0.13517175000000137
                },
                {
                    "name": "F#4",
                    "midi": 66,
                    "time": 27.845380499999976,
                    "velocity": 0.3858267716535433,
                    "duration": 0.13517175000000137
                },
                {
                    "name": "G4",
                    "midi": 67,
                    "time": 27.980552249999977,
                    "velocity": 0.3543307086614173,
                    "duration": 0.13517175000000137
                },
                {
                    "name": "F#4",
                    "midi": 66,
                    "time": 28.11572399999998,
                    "velocity": 0.4094488188976378,
                    "duration": 0.13517175000000137
                },
                {
                    "name": "G4",
                    "midi": 67,
                    "time": 28.25089574999998,
                    "velocity": 0.3543307086614173,
                    "duration": 0.13517175000000137
                },
                {
                    "name": "F#4",
                    "midi": 66,
                    "time": 28.38606749999998,
                    "velocity": 0.4330708661417323,
                    "duration": 0.13517175000000137
                },
                {
                    "name": "G4",
                    "midi": 67,
                    "time": 28.521239249999983,
                    "velocity": 0.4094488188976378,
                    "duration": 0.13517175000000137
                },
                {
                    "name": "F#4",
                    "midi": 66,
                    "time": 28.656410999999984,
                    "velocity": 0.4645669291338583,
                    "duration": 0.13517175000000137
                },
                {
                    "name": "G4",
                    "midi": 67,
                    "time": 28.791582749999986,
                    "velocity": 0.4094488188976378,
                    "duration": 0.13517175000000137
                },
                {
                    "name": "F#4",
                    "midi": 66,
                    "time": 28.926754499999987,
                    "velocity": 0.49606299212598426,
                    "duration": 0.13517175000000137
                },
                {
                    "name": "G4",
                    "midi": 67,
                    "time": 29.06192624999999,
                    "velocity": 0.4566929133858268,
                    "duration": 0.13517175000000137
                },
                {
                    "name": "F#4",
                    "midi": 66,
                    "time": 29.19709799999999,
                    "velocity": 0.5511811023622047,
                    "duration": 0.2703434999999992
                },
                {
                    "name": "D3",
                    "midi": 50,
                    "time": 29.737784999999988,
                    "velocity": 0.4881889763779528,
                    "duration": 0.8110305000000011
                },
                {
                    "name": "D4",
                    "midi": 62,
                    "time": 29.737784999999988,
                    "velocity": 0.5826771653543307,
                    "duration": 0.8110305000000011
                },
                {
                    "name": "D3",
                    "midi": 50,
                    "time": 30.54881549999999,
                    "velocity": 0.36220472440944884,
                    "duration": 0.13517175000000137
                },
                {
                    "name": "D4",
                    "midi": 62,
                    "time": 30.54881549999999,
                    "velocity": 0.4409448818897638,
                    "duration": 0.13517175000000137
                },
                {
                    "name": "D#3",
                    "midi": 51,
                    "time": 30.819158999999992,
                    "velocity": 0.44881889763779526,
                    "duration": 0.2703434999999992
                },
                {
                    "name": "D#4",
                    "midi": 63,
                    "time": 30.819158999999992,
                    "velocity": 0.5354330708661418,
                    "duration": 0.2703434999999992
                },
                {
                    "name": "C3",
                    "midi": 48,
                    "time": 31.224674249999993,
                    "velocity": 0.3543307086614173,
                    "duration": 0.06758587499999891
                },
                {
                    "name": "C4",
                    "midi": 60,
                    "time": 31.224674249999993,
                    "velocity": 0.41732283464566927,
                    "duration": 0.06758587499999891
                },
                {
                    "name": "D3",
                    "midi": 50,
                    "time": 31.35984599999999,
                    "velocity": 0.41732283464566927,
                    "duration": 0.2703434999999992
                },
                {
                    "name": "D4",
                    "midi": 62,
                    "time": 31.35984599999999,
                    "velocity": 0.49606299212598426,
                    "duration": 0.2703434999999992
                },
                {
                    "name": "D2",
                    "midi": 38,
                    "time": 31.90053299999999,
                    "velocity": 0.4015748031496063,
                    "duration": 0.27034350000000273
                },
                {
                    "name": "D3",
                    "midi": 50,
                    "time": 31.90053299999999,
                    "velocity": 0.48031496062992124,
                    "duration": 0.27034350000000273
                },
                {
                    "name": "G2",
                    "midi": 43,
                    "time": 32.441219999999994,
                    "velocity": 0.4015748031496063,
                    "duration": 0.8110305000000011
                },
                {
                    "name": "G3",
                    "midi": 55,
                    "time": 32.441219999999994,
                    "velocity": 0.48031496062992124,
                    "duration": 0.8110305000000011
                },
                {
                    "name": "D3",
                    "midi": 50,
                    "time": 33.522594,
                    "velocity": 0.1968503937007874,
                    "duration": 0.13629818124999815
                },
                {
                    "name": "D#3",
                    "midi": 51,
                    "time": 33.657765749999996,
                    "velocity": 0.1732283464566929,
                    "duration": 0.13629818124999815
                },
                {
                    "name": "D3",
                    "midi": 50,
                    "time": 33.792937499999994,
                    "velocity": 0.2125984251968504,
                    "duration": 0.13629818124999815
                },
                {
                    "name": "D#3",
                    "midi": 51,
                    "time": 33.92810924999999,
                    "velocity": 0.1889763779527559,
                    "duration": 0.13629818124999815
                },
                {
                    "name": "D3",
                    "midi": 50,
                    "time": 34.06328099999999,
                    "velocity": 0.2204724409448819,
                    "duration": 0.13629818124999815
                },
                {
                    "name": "D#3",
                    "midi": 51,
                    "time": 34.19845274999999,
                    "velocity": 0.1889763779527559,
                    "duration": 0.13629818124999815
                },
                {
                    "name": "D3",
                    "midi": 50,
                    "time": 34.333624499999985,
                    "velocity": 0.23622047244094488,
                    "duration": 0.13629818124999815
                },
                {
                    "name": "D#3",
                    "midi": 51,
                    "time": 34.46879624999998,
                    "velocity": 0.2204724409448819,
                    "duration": 0.13629818124999815
                },
                {
                    "name": "D3",
                    "midi": 50,
                    "time": 34.60396799999998,
                    "velocity": 0.25984251968503935,
                    "duration": 0.13629818124999815
                },
                {
                    "name": "D#3",
                    "midi": 51,
                    "time": 34.73913974999998,
                    "velocity": 0.2283464566929134,
                    "duration": 0.13629818124999815
                },
                {
                    "name": "D3",
                    "midi": 50,
                    "time": 34.874311499999976,
                    "velocity": 0.28346456692913385,
                    "duration": 0.13629818124999815
                },
                {
                    "name": "D#3",
                    "midi": 51,
                    "time": 35.009483249999974,
                    "velocity": 0.25984251968503935,
                    "duration": 0.13629818124999815
                },
                {
                    "name": "D3",
                    "midi": 50,
                    "time": 35.14465499999997,
                    "velocity": 0.2992125984251969,
                    "duration": 0.13629818124999815
                },
                {
                    "name": "D#3",
                    "midi": 51,
                    "time": 35.27982674999997,
                    "velocity": 0.25984251968503935,
                    "duration": 0.13629818124999815
                },
                {
                    "name": "D3",
                    "midi": 50,
                    "time": 35.41499849999997,
                    "velocity": 0.31496062992125984,
                    "duration": 0.13629818124999815
                },
                {
                    "name": "D#3",
                    "midi": 51,
                    "time": 35.550170249999965,
                    "velocity": 0.2992125984251969,
                    "duration": 0.13629818124999815
                },
                {
                    "name": "D3",
                    "midi": 50,
                    "time": 35.68534199999996,
                    "velocity": 0.4251968503937008,
                    "duration": 0.27034350000000273
                },
                {
                    "name": "D3",
                    "midi": 50,
                    "time": 36.22602899999997,
                    "velocity": 0.41732283464566927,
                    "duration": 0.8110305000000011
                },
                {
                    "name": "F3",
                    "midi": 53,
                    "time": 36.22602899999997,
                    "velocity": 0.5039370078740157,
                    "duration": 0.8110305000000011
                },
                {
                    "name": "D#3",
                    "midi": 51,
                    "time": 37.03705949999997,
                    "velocity": 0.28346456692913385,
                    "duration": 0.27034350000000273
                },
                {
                    "name": "G3",
                    "midi": 55,
                    "time": 37.03705949999997,
                    "velocity": 0.33858267716535434,
                    "duration": 0.27034350000000273
                },
                {
                    "name": "B2",
                    "midi": 47,
                    "time": 37.30740299999997,
                    "velocity": 0.33858267716535434,
                    "duration": 0.40551525000000055
                },
                {
                    "name": "D3",
                    "midi": 50,
                    "time": 37.30740299999997,
                    "velocity": 0.4015748031496063,
                    "duration": 0.40551525000000055
                },
                {
                    "name": "C3",
                    "midi": 48,
                    "time": 37.71291824999997,
                    "velocity": 0.25196850393700787,
                    "duration": 0.13517174999999781
                },
                {
                    "name": "D#3",
                    "midi": 51,
                    "time": 37.71291824999997,
                    "velocity": 0.30708661417322836,
                    "duration": 0.13517174999999781
                },
                {
                    "name": "D3",
                    "midi": 50,
                    "time": 37.84808999999997,
                    "velocity": 0.2992125984251969,
                    "duration": 0.5406869999999984
                },
                {
                    "name": "F3",
                    "midi": 53,
                    "time": 37.84808999999997,
                    "velocity": 0.3543307086614173,
                    "duration": 0.5406869999999984
                },
                {
                    "name": "D#3",
                    "midi": 51,
                    "time": 38.38877699999997,
                    "velocity": 0.2677165354330709,
                    "duration": 0.5406869999999984
                },
                {
                    "name": "G3",
                    "midi": 55,
                    "time": 38.38877699999997,
                    "velocity": 0.3228346456692913,
                    "duration": 0.5406869999999984
                },
                {
                    "name": "F3",
                    "midi": 53,
                    "time": 38.92946399999997,
                    "velocity": 0.28346456692913385,
                    "duration": 0.5406869999999984
                },
                {
                    "name": "F2",
                    "midi": 41,
                    "time": 39.470150999999966,
                    "velocity": 0.23622047244094488,
                    "duration": 0.27034350000000273
                },
                {
                    "name": "A#2",
                    "midi": 46,
                    "time": 40.55152499999997,
                    "velocity": 0.31496062992125984,
                    "duration": 0.13517174999999781
                },
                {
                    "name": "A#3",
                    "midi": 58,
                    "time": 40.821868499999965,
                    "velocity": 0.2283464566929134,
                    "duration": 0.27034350000000273
                },
                {
                    "name": "D4",
                    "midi": 62,
                    "time": 41.09221199999997,
                    "velocity": 0.2677165354330709,
                    "duration": 0.27034350000000273
                },
                {
                    "name": "A#3",
                    "midi": 58,
                    "time": 41.36255549999997,
                    "velocity": 0.2283464566929134,
                    "duration": 0.27034350000000273
                },
                {
                    "name": "D#4",
                    "midi": 63,
                    "time": 41.63289899999997,
                    "velocity": 0.2677165354330709,
                    "duration": 0.27034350000000273
                },
                {
                    "name": "C4",
                    "midi": 60,
                    "time": 41.903242499999976,
                    "velocity": 0.2440944881889764,
                    "duration": 0.27034350000000273
                },
                {
                    "name": "D4",
                    "midi": 62,
                    "time": 42.17358599999998,
                    "velocity": 0.31496062992125984,
                    "duration": 0.27034350000000273
                },
                {
                    "name": "C#4",
                    "midi": 61,
                    "time": 42.44392949999998,
                    "velocity": 0.23622047244094488,
                    "duration": 0.27034350000000273
                },
                {
                    "name": "D4",
                    "midi": 62,
                    "time": 42.714272999999984,
                    "velocity": 0.2677165354330709,
                    "duration": 0.27034350000000273
                },
                {
                    "name": "A#3",
                    "midi": 58,
                    "time": 42.98461649999999,
                    "velocity": 0.23622047244094488,
                    "duration": 0.27034350000000273
                },
                {
                    "name": "D#4",
                    "midi": 63,
                    "time": 43.25495999999999,
                    "velocity": 0.2677165354330709,
                    "duration": 0.27034350000000273
                },
                {
                    "name": "C4",
                    "midi": 60,
                    "time": 43.52530349999999,
                    "velocity": 0.2283464566929134,
                    "duration": 0.27034350000000273
                },
                {
                    "name": "D4",
                    "midi": 62,
                    "time": 43.795646999999995,
                    "velocity": 0.31496062992125984,
                    "duration": 0.27034350000000273
                },
                {
                    "name": "C#4",
                    "midi": 61,
                    "time": 44.0659905,
                    "velocity": 0.23622047244094488,
                    "duration": 0.27034350000000273
                },
                {
                    "name": "D4",
                    "midi": 62,
                    "time": 44.336334,
                    "velocity": 0.2677165354330709,
                    "duration": 0.27034350000000273
                },
                {
                    "name": "A3",
                    "midi": 57,
                    "time": 44.6066775,
                    "velocity": 0.23622047244094488,
                    "duration": 0.27034350000000273
                },
                {
                    "name": "A#3",
                    "midi": 58,
                    "time": 44.877021000000006,
                    "velocity": 0.2677165354330709,
                    "duration": 0.27034350000000273
                },
                {
                    "name": "G3",
                    "midi": 55,
                    "time": 45.14736450000001,
                    "velocity": 0.23622047244094488,
                    "duration": 0.25907918749999936
                },
                {
                    "name": "F3",
                    "midi": 53,
                    "time": 45.41770800000001,
                    "velocity": 0.31496062992125984,
                    "duration": 0.8110305000000011
                },
                {
                    "name": "F4",
                    "midi": 65,
                    "time": 45.95839500000001,
                    "velocity": 0.2755905511811024,
                    "duration": 0.27034350000000273
                },
                {
                    "name": "F2",
                    "midi": 41,
                    "time": 47.17494075000001,
                    "velocity": 0.29133858267716534,
                    "duration": 0.13517174999999781
                },
                {
                    "name": "A2",
                    "midi": 45,
                    "time": 47.31011250000001,
                    "velocity": 0.2992125984251969,
                    "duration": 0.13517174999999781
                },
                {
                    "name": "C3",
                    "midi": 48,
                    "time": 47.44528425000001,
                    "velocity": 0.30708661417322836,
                    "duration": 0.13517174999999781
                },
                {
                    "name": "F3",
                    "midi": 53,
                    "time": 47.580456000000005,
                    "velocity": 0.31496062992125984,
                    "duration": 0.13517174999999781
                },
                {
                    "name": "A3",
                    "midi": 57,
                    "time": 47.71562775,
                    "velocity": 0.3228346456692913,
                    "duration": 0.13517174999999781
                },
                {
                    "name": "C4",
                    "midi": 60,
                    "time": 47.8507995,
                    "velocity": 0.33070866141732286,
                    "duration": 0.13517174999999781
                },
                {
                    "name": "D4",
                    "midi": 62,
                    "time": 47.98597125,
                    "velocity": 0.33858267716535434,
                    "duration": 0.13517174999999781
                },
                {
                    "name": "D#4",
                    "midi": 63,
                    "time": 48.121143,
                    "velocity": 0.3779527559055118,
                    "duration": 0.6758587500000033
                },
                {
                    "name": "F2",
                    "midi": 41,
                    "time": 48.79700175,
                    "velocity": 0.29133858267716534,
                    "duration": 0.13517174999999781
                },
                {
                    "name": "A2",
                    "midi": 45,
                    "time": 48.9321735,
                    "velocity": 0.3228346456692913,
                    "duration": 0.13517174999999781
                },
                {
                    "name": "C3",
                    "midi": 48,
                    "time": 49.067345249999995,
                    "velocity": 0.33858267716535434,
                    "duration": 0.13517174999999781
                },
                {
                    "name": "F3",
                    "midi": 53,
                    "time": 49.20251699999999,
                    "velocity": 0.3464566929133858,
                    "duration": 0.13517174999999781
                },
                {
                    "name": "A3",
                    "midi": 57,
                    "time": 49.33768874999999,
                    "velocity": 0.36220472440944884,
                    "duration": 0.13517174999999781
                },
                {
                    "name": "C4",
                    "midi": 60,
                    "time": 49.47286049999999,
                    "velocity": 0.3779527559055118,
                    "duration": 0.13517174999999781
                },
                {
                    "name": "D#4",
                    "midi": 63,
                    "time": 49.60803224999999,
                    "velocity": 0.3858267716535433,
                    "duration": 0.13517174999999781
                },
                {
                    "name": "F#4",
                    "midi": 66,
                    "time": 49.743203999999984,
                    "velocity": 0.4330708661417323,
                    "duration": 1.0813739999999967
                },
                {
                    "name": "F4",
                    "midi": 65,
                    "time": 50.82457799999998,
                    "velocity": 0.2992125984251969,
                    "duration": 0.5406869999999984
                },
                {
                    "name": "F3",
                    "midi": 53,
                    "time": 50.82457799999998,
                    "velocity": 0.2992125984251969,
                    "duration": 0.5406869999999984
                },
                {
                    "name": "F3",
                    "midi": 53,
                    "time": 51.36526499999998,
                    "velocity": 0.25196850393700787,
                    "duration": 0.5406869999999984
                },
                {
                    "name": "D#4",
                    "midi": 63,
                    "time": 51.36526499999998,
                    "velocity": 0.25196850393700787,
                    "duration": 0.5406869999999984
                },
                {
                    "name": "A#2",
                    "midi": 46,
                    "time": 51.90595199999998,
                    "velocity": 0.31496062992125984,
                    "duration": 0.13517174999999781
                },
                {
                    "name": "A#3",
                    "midi": 58,
                    "time": 52.17629549999997,
                    "velocity": 0.2283464566929134,
                    "duration": 0.27034350000000273
                },
                {
                    "name": "D4",
                    "midi": 62,
                    "time": 52.446638999999976,
                    "velocity": 0.2677165354330709,
                    "duration": 0.27034350000000273
                },
                {
                    "name": "A#3",
                    "midi": 58,
                    "time": 52.71698249999998,
                    "velocity": 0.2283464566929134,
                    "duration": 0.27034350000000273
                },
                {
                    "name": "D#4",
                    "midi": 63,
                    "time": 52.98732599999998,
                    "velocity": 0.2677165354330709,
                    "duration": 0.27034350000000273
                },
                {
                    "name": "A#3",
                    "midi": 58,
                    "time": 53.257669499999984,
                    "velocity": 0.2440944881889764,
                    "duration": 0.27034350000000273
                },
                {
                    "name": "D4",
                    "midi": 62,
                    "time": 53.52801299999999,
                    "velocity": 0.31496062992125984,
                    "duration": 0.27034350000000273
                },
                {
                    "name": "C#4",
                    "midi": 61,
                    "time": 53.79835649999999,
                    "velocity": 0.23622047244094488,
                    "duration": 0.27034350000000273
                },
                {
                    "name": "D4",
                    "midi": 62,
                    "time": 54.06869999999999,
                    "velocity": 0.2677165354330709,
                    "duration": 0.27034350000000273
                },
                {
                    "name": "A#3",
                    "midi": 58,
                    "time": 54.339043499999995,
                    "velocity": 0.23622047244094488,
                    "duration": 0.27034350000000273
                },
                {
                    "name": "C4",
                    "midi": 60,
                    "time": 54.609387,
                    "velocity": 0.2677165354330709,
                    "duration": 0.27034350000000273
                },
                {
                    "name": "F3",
                    "midi": 53,
                    "time": 54.8797305,
                    "velocity": 0.2283464566929134,
                    "duration": 0.27034350000000273
                },
                {
                    "name": "A#3",
                    "midi": 58,
                    "time": 55.150074000000004,
                    "velocity": 0.31496062992125984,
                    "duration": 0.27034350000000273
                },
                {
                    "name": "A#2",
                    "midi": 46,
                    "time": 55.420417500000006,
                    "velocity": 0.23622047244094488,
                    "duration": 0.27034350000000273
                },
                {
                    "name": "D3",
                    "midi": 50,
                    "time": 55.69076100000001,
                    "velocity": 0.2677165354330709,
                    "duration": 0.27034350000000273
                },
                {
                    "name": "A#2",
                    "midi": 46,
                    "time": 55.96110450000001,
                    "velocity": 0.23622047244094488,
                    "duration": 0.27034350000000273
                },
                {
                    "name": "D#3",
                    "midi": 51,
                    "time": 56.231448000000015,
                    "velocity": 0.2677165354330709,
                    "duration": 0.27034350000000273
                },
                {
                    "name": "A#2",
                    "midi": 46,
                    "time": 56.50179150000002,
                    "velocity": 0.2283464566929134,
                    "duration": 0.27034350000000273
                },
                {
                    "name": "D3",
                    "midi": 50,
                    "time": 56.77213500000002,
                    "velocity": 0.31496062992125984,
                    "duration": 0.27034350000000273
                },
                {
                    "name": "C#3",
                    "midi": 49,
                    "time": 57.04247850000002,
                    "velocity": 0.23622047244094488,
                    "duration": 0.27034350000000273
                },
                {
                    "name": "D3",
                    "midi": 50,
                    "time": 57.312822000000025,
                    "velocity": 0.2677165354330709,
                    "duration": 0.27034350000000273
                },
                {
                    "name": "A#2",
                    "midi": 46,
                    "time": 57.58316550000003,
                    "velocity": 0.23622047244094488,
                    "duration": 0.27034350000000273
                },
                {
                    "name": "C3",
                    "midi": 48,
                    "time": 57.85350900000003,
                    "velocity": 0.2677165354330709,
                    "duration": 0.27034350000000273
                },
                {
                    "name": "F2",
                    "midi": 41,
                    "time": 58.123852500000034,
                    "velocity": 0.2283464566929134,
                    "duration": 0.27034350000000273
                },
                {
                    "name": "A#2",
                    "midi": 46,
                    "time": 58.394196000000036,
                    "velocity": 0.31496062992125984,
                    "duration": 0.27034350000000273
                },
                {
                    "name": "D3",
                    "midi": 50,
                    "time": 58.66453950000004,
                    "velocity": 0.23622047244094488,
                    "duration": 0.27034350000000273
                },
                {
                    "name": "C3",
                    "midi": 48,
                    "time": 58.93488300000004,
                    "velocity": 0.2755905511811024,
                    "duration": 0.27034350000000273
                },
                {
                    "name": "F2",
                    "midi": 41,
                    "time": 59.205226500000045,
                    "velocity": 0.2440944881889764,
                    "duration": 0.27034350000000273
                },
                {
                    "name": "A#2",
                    "midi": 46,
                    "time": 59.47557000000005,
                    "velocity": 0.28346456692913385,
                    "duration": 0.27034350000000273
                },
                {
                    "name": "D3",
                    "midi": 50,
                    "time": 59.74591350000005,
                    "velocity": 0.2440944881889764,
                    "duration": 0.27034350000000273
                },
                {
                    "name": "C3",
                    "midi": 48,
                    "time": 60.01625700000005,
                    "velocity": 0.3464566929133858,
                    "duration": 0.27034350000000273
                },
                {
                    "name": "F2",
                    "midi": 41,
                    "time": 60.286600500000056,
                    "velocity": 0.25984251968503935,
                    "duration": 0.27034350000000273
                },
                {
                    "name": "A#2",
                    "midi": 46,
                    "time": 60.55694400000006,
                    "velocity": 0.3543307086614173,
                    "duration": 0.13517174999999781
                },
                {
                    "name": "D3",
                    "midi": 50,
                    "time": 60.692115750000056,
                    "velocity": 0.29133858267716534,
                    "duration": 0.13517174999999781
                },
                {
                    "name": "F2",
                    "midi": 41,
                    "time": 60.827287500000054,
                    "velocity": 0.36220472440944884,
                    "duration": 0.13517174999999781
                },
                {
                    "name": "C3",
                    "midi": 48,
                    "time": 60.96245925000005,
                    "velocity": 0.30708661417322836,
                    "duration": 0.13517174999999781
                },
                {
                    "name": "A#2",
                    "midi": 46,
                    "time": 61.09763100000005,
                    "velocity": 0.3700787401574803,
                    "duration": 0.13517174999999781
                },
                {
                    "name": "D3",
                    "midi": 50,
                    "time": 61.23280275000005,
                    "velocity": 0.3228346456692913,
                    "duration": 0.13517174999999781
                },
                {
                    "name": "F2",
                    "midi": 41,
                    "time": 61.367974500000045,
                    "velocity": 0.3858267716535433,
                    "duration": 0.13517174999999781
                },
                {
                    "name": "C3",
                    "midi": 48,
                    "time": 61.50314625000004,
                    "velocity": 0.33858267716535434,
                    "duration": 0.13517174999999781
                },
                {
                    "name": "A#2",
                    "midi": 46,
                    "time": 61.63831800000004,
                    "velocity": 0.1889763779527559,
                    "duration": 0.13517174999999781
                },
                {
                    "name": "D3",
                    "midi": 50,
                    "time": 61.63831800000004,
                    "velocity": 0.23622047244094488,
                    "duration": 0.13517174999999781
                },
                {
                    "name": "A#1",
                    "midi": 34,
                    "time": 62.17900500000004,
                    "velocity": 0.1889763779527559,
                    "duration": 0.13517174999999781
                },
                {
                    "name": "A#2",
                    "midi": 46,
                    "time": 62.17900500000004,
                    "velocity": 0.23622047244094488,
                    "duration": 0.13517174999999781
                },
                {
                    "name": "F#4",
                    "midi": 66,
                    "time": 62.71969200000004,
                    "velocity": 0.2992125984251969,
                    "duration": 0.13517174999999781
                },
                {
                    "name": "G4",
                    "midi": 67,
                    "time": 62.854863750000035,
                    "velocity": 0.25984251968503935,
                    "duration": 0.13517174999999781
                },
                {
                    "name": "F#4",
                    "midi": 66,
                    "time": 62.99003550000003,
                    "velocity": 0.33070866141732286,
                    "duration": 0.13517174999999781
                },
                {
                    "name": "G4",
                    "midi": 67,
                    "time": 63.12520725000003,
                    "velocity": 0.2992125984251969,
                    "duration": 0.13517174999999781
                },
                {
                    "name": "F#4",
                    "midi": 66,
                    "time": 63.26037900000003,
                    "velocity": 0.3543307086614173,
                    "duration": 0.13517174999999781
                },
                {
                    "name": "G4",
                    "midi": 67,
                    "time": 63.39555075000003,
                    "velocity": 0.30708661417322836,
                    "duration": 0.13517174999999781
                },
                {
                    "name": "F#4",
                    "midi": 66,
                    "time": 63.530722500000024,
                    "velocity": 0.3779527559055118,
                    "duration": 0.13517174999999781
                },
                {
                    "name": "G4",
                    "midi": 67,
                    "time": 63.66589425000002,
                    "velocity": 0.3543307086614173,
                    "duration": 0.13517174999999781
                },
                {
                    "name": "F#4",
                    "midi": 66,
                    "time": 63.80106600000002,
                    "velocity": 0.4094488188976378,
                    "duration": 0.13517174999999781
                },
                {
                    "name": "G4",
                    "midi": 67,
                    "time": 63.93623775000002,
                    "velocity": 0.3543307086614173,
                    "duration": 0.13517174999999781
                },
                {
                    "name": "F#4",
                    "midi": 66,
                    "time": 64.07140950000002,
                    "velocity": 0.4330708661417323,
                    "duration": 0.13517174999999781
                },
                {
                    "name": "G4",
                    "midi": 67,
                    "time": 64.20658125000001,
                    "velocity": 0.4094488188976378,
                    "duration": 0.13517174999999781
                },
                {
                    "name": "F#4",
                    "midi": 66,
                    "time": 64.34175300000001,
                    "velocity": 0.4645669291338583,
                    "duration": 0.13517174999999781
                },
                {
                    "name": "G4",
                    "midi": 67,
                    "time": 64.47692475000001,
                    "velocity": 0.4015748031496063,
                    "duration": 0.13517174999999781
                },
                {
                    "name": "F#4",
                    "midi": 66,
                    "time": 64.6120965,
                    "velocity": 0.49606299212598426,
                    "duration": 0.13517174999999781
                },
                {
                    "name": "G4",
                    "midi": 67,
                    "time": 64.74726825,
                    "velocity": 0.4566929133858268,
                    "duration": 0.13517174999999781
                },
                {
                    "name": "F#4",
                    "midi": 66,
                    "time": 64.88244,
                    "velocity": 0.5511811023622047,
                    "duration": 0.27034349999999563
                },
                {
                    "name": "D3",
                    "midi": 50,
                    "time": 65.423127,
                    "velocity": 0.4881889763779528,
                    "duration": 0.8110305000000011
                },
                {
                    "name": "D4",
                    "midi": 62,
                    "time": 65.423127,
                    "velocity": 0.5826771653543307,
                    "duration": 0.8110305000000011
                },
                {
                    "name": "D3",
                    "midi": 50,
                    "time": 66.2341575,
                    "velocity": 0.36220472440944884,
                    "duration": 0.13517174999999781
                },
                {
                    "name": "D4",
                    "midi": 62,
                    "time": 66.2341575,
                    "velocity": 0.4409448818897638,
                    "duration": 0.13517174999999781
                },
                {
                    "name": "D#3",
                    "midi": 51,
                    "time": 66.50450099999999,
                    "velocity": 0.44881889763779526,
                    "duration": 0.27034349999999563
                },
                {
                    "name": "D#4",
                    "midi": 63,
                    "time": 66.50450099999999,
                    "velocity": 0.5354330708661418,
                    "duration": 0.27034349999999563
                },
                {
                    "name": "C3",
                    "midi": 48,
                    "time": 66.91001624999998,
                    "velocity": 0.3543307086614173,
                    "duration": 0.06758587500000601
                },
                {
                    "name": "C4",
                    "midi": 60,
                    "time": 66.91001624999998,
                    "velocity": 0.41732283464566927,
                    "duration": 0.06758587500000601
                },
                {
                    "name": "D3",
                    "midi": 50,
                    "time": 67.045188,
                    "velocity": 0.41732283464566927,
                    "duration": 0.27034349999999563
                },
                {
                    "name": "D4",
                    "midi": 62,
                    "time": 67.045188,
                    "velocity": 0.49606299212598426,
                    "duration": 0.27034349999999563
                },
                {
                    "name": "D2",
                    "midi": 38,
                    "time": 67.58587499999999,
                    "velocity": 0.4015748031496063,
                    "duration": 0.27034349999999563
                },
                {
                    "name": "D3",
                    "midi": 50,
                    "time": 67.58587499999999,
                    "velocity": 0.48031496062992124,
                    "duration": 0.27034349999999563
                },
                {
                    "name": "G2",
                    "midi": 43,
                    "time": 68.12656199999998,
                    "velocity": 0.4015748031496063,
                    "duration": 0.8110305000000011
                },
                {
                    "name": "G3",
                    "midi": 55,
                    "time": 68.12656199999998,
                    "velocity": 0.48031496062992124,
                    "duration": 0.8110305000000011
                },
                {
                    "name": "D3",
                    "midi": 50,
                    "time": 69.20793599999998,
                    "velocity": 0.1968503937007874,
                    "duration": 0.13629818124999815
                },
                {
                    "name": "D#3",
                    "midi": 51,
                    "time": 69.34310774999997,
                    "velocity": 0.1732283464566929,
                    "duration": 0.13629818124999815
                },
                {
                    "name": "D3",
                    "midi": 50,
                    "time": 69.47827949999997,
                    "velocity": 0.2125984251968504,
                    "duration": 0.13629818124999815
                },
                {
                    "name": "D#3",
                    "midi": 51,
                    "time": 69.61345124999997,
                    "velocity": 0.1889763779527559,
                    "duration": 0.13629818124999815
                },
                {
                    "name": "D3",
                    "midi": 50,
                    "time": 69.74862299999997,
                    "velocity": 0.2283464566929134,
                    "duration": 0.13629818124999815
                },
                {
                    "name": "D#3",
                    "midi": 51,
                    "time": 69.88379474999996,
                    "velocity": 0.1968503937007874,
                    "duration": 0.13629818124999815
                },
                {
                    "name": "D3",
                    "midi": 50,
                    "time": 70.01896649999996,
                    "velocity": 0.25196850393700787,
                    "duration": 0.13629818124999815
                },
                {
                    "name": "D#3",
                    "midi": 51,
                    "time": 70.15413824999996,
                    "velocity": 0.2283464566929134,
                    "duration": 0.13629818124999815
                },
                {
                    "name": "D3",
                    "midi": 50,
                    "time": 70.28930999999996,
                    "velocity": 0.2677165354330709,
                    "duration": 0.13629818124999815
                },
                {
                    "name": "D#3",
                    "midi": 51,
                    "time": 70.42448174999996,
                    "velocity": 0.23622047244094488,
                    "duration": 0.13629818124999815
                },
                {
                    "name": "D3",
                    "midi": 50,
                    "time": 70.55965349999995,
                    "velocity": 0.29133858267716534,
                    "duration": 0.13629818124999815
                },
                {
                    "name": "D#3",
                    "midi": 51,
                    "time": 70.69482524999995,
                    "velocity": 0.2677165354330709,
                    "duration": 0.13629818124999815
                },
                {
                    "name": "D3",
                    "midi": 50,
                    "time": 70.82999699999995,
                    "velocity": 0.30708661417322836,
                    "duration": 0.13629818124999815
                },
                {
                    "name": "D#3",
                    "midi": 51,
                    "time": 70.96516874999995,
                    "velocity": 0.2677165354330709,
                    "duration": 0.13629818124999815
                },
                {
                    "name": "D3",
                    "midi": 50,
                    "time": 71.10034049999994,
                    "velocity": 0.33070866141732286,
                    "duration": 0.13629818124999815
                },
                {
                    "name": "D#3",
                    "midi": 51,
                    "time": 71.23551224999994,
                    "velocity": 0.2992125984251969,
                    "duration": 0.13629818124999815
                },
                {
                    "name": "D3",
                    "midi": 50,
                    "time": 71.37068399999994,
                    "velocity": 0.4251968503937008,
                    "duration": 0.27034349999999563
                },
                {
                    "name": "D3",
                    "midi": 50,
                    "time": 71.91137099999993,
                    "velocity": 0.41732283464566927,
                    "duration": 0.8110305000000011
                },
                {
                    "name": "F3",
                    "midi": 53,
                    "time": 71.91137099999993,
                    "velocity": 0.5039370078740157,
                    "duration": 0.8110305000000011
                },
                {
                    "name": "D#3",
                    "midi": 51,
                    "time": 72.72240149999993,
                    "velocity": 0.28346456692913385,
                    "duration": 0.27034349999999563
                },
                {
                    "name": "G3",
                    "midi": 55,
                    "time": 72.72240149999993,
                    "velocity": 0.33858267716535434,
                    "duration": 0.27034349999999563
                },
                {
                    "name": "B2",
                    "midi": 47,
                    "time": 72.99274499999993,
                    "velocity": 0.33858267716535434,
                    "duration": 0.40551524999999344
                },
                {
                    "name": "D3",
                    "midi": 50,
                    "time": 72.99274499999993,
                    "velocity": 0.4015748031496063,
                    "duration": 0.40551524999999344
                },
                {
                    "name": "C3",
                    "midi": 48,
                    "time": 73.39826024999992,
                    "velocity": 0.25196850393700787,
                    "duration": 0.13517174999999781
                },
                {
                    "name": "D#3",
                    "midi": 51,
                    "time": 73.39826024999992,
                    "velocity": 0.30708661417322836,
                    "duration": 0.13517174999999781
                },
                {
                    "name": "D3",
                    "midi": 50,
                    "time": 73.53343199999992,
                    "velocity": 0.2992125984251969,
                    "duration": 0.5406870000000055
                },
                {
                    "name": "F3",
                    "midi": 53,
                    "time": 73.53343199999992,
                    "velocity": 0.3543307086614173,
                    "duration": 0.5406870000000055
                },
                {
                    "name": "D#3",
                    "midi": 51,
                    "time": 74.07411899999992,
                    "velocity": 0.2677165354330709,
                    "duration": 0.5406870000000055
                },
                {
                    "name": "G3",
                    "midi": 55,
                    "time": 74.07411899999992,
                    "velocity": 0.3228346456692913,
                    "duration": 0.5406870000000055
                },
                {
                    "name": "F3",
                    "midi": 53,
                    "time": 74.61480599999993,
                    "velocity": 0.28346456692913385,
                    "duration": 0.5406870000000055
                },
                {
                    "name": "F2",
                    "midi": 41,
                    "time": 75.15549299999994,
                    "velocity": 0.23622047244094488,
                    "duration": 0.27034349999999563
                },
                {
                    "name": "A#2",
                    "midi": 46,
                    "time": 76.23686699999993,
                    "velocity": 0.31496062992125984,
                    "duration": 0.13517174999999781
                },
                {
                    "name": "A#3",
                    "midi": 58,
                    "time": 76.50721049999993,
                    "velocity": 0.2283464566929134,
                    "duration": 0.27034349999999563
                },
                {
                    "name": "D4",
                    "midi": 62,
                    "time": 76.77755399999992,
                    "velocity": 0.2677165354330709,
                    "duration": 0.27034349999999563
                },
                {
                    "name": "A#3",
                    "midi": 58,
                    "time": 77.04789749999992,
                    "velocity": 0.2283464566929134,
                    "duration": 0.27034349999999563
                },
                {
                    "name": "D#4",
                    "midi": 63,
                    "time": 77.31824099999992,
                    "velocity": 0.2677165354330709,
                    "duration": 0.27034349999999563
                },
                {
                    "name": "C4",
                    "midi": 60,
                    "time": 77.58858449999991,
                    "velocity": 0.2440944881889764,
                    "duration": 0.27034349999999563
                },
                {
                    "name": "D4",
                    "midi": 62,
                    "time": 77.8589279999999,
                    "velocity": 0.31496062992125984,
                    "duration": 0.27034349999999563
                },
                {
                    "name": "C#4",
                    "midi": 61,
                    "time": 78.1292714999999,
                    "velocity": 0.23622047244094488,
                    "duration": 0.27034349999999563
                },
                {
                    "name": "D4",
                    "midi": 62,
                    "time": 78.3996149999999,
                    "velocity": 0.2677165354330709,
                    "duration": 0.27034349999999563
                },
                {
                    "name": "A#3",
                    "midi": 58,
                    "time": 78.6699584999999,
                    "velocity": 0.23622047244094488,
                    "duration": 0.27034349999999563
                },
                {
                    "name": "D#4",
                    "midi": 63,
                    "time": 78.94030199999989,
                    "velocity": 0.2677165354330709,
                    "duration": 0.27034349999999563
                },
                {
                    "name": "C4",
                    "midi": 60,
                    "time": 79.21064549999988,
                    "velocity": 0.2283464566929134,
                    "duration": 0.27034349999999563
                },
                {
                    "name": "D4",
                    "midi": 62,
                    "time": 79.48098899999988,
                    "velocity": 0.31496062992125984,
                    "duration": 0.27034349999999563
                },
                {
                    "name": "C#4",
                    "midi": 61,
                    "time": 79.75133249999988,
                    "velocity": 0.23622047244094488,
                    "duration": 0.27034349999999563
                },
                {
                    "name": "D4",
                    "midi": 62,
                    "time": 80.02167599999987,
                    "velocity": 0.2677165354330709,
                    "duration": 0.27034349999999563
                },
                {
                    "name": "A3",
                    "midi": 57,
                    "time": 80.29201949999987,
                    "velocity": 0.23622047244094488,
                    "duration": 0.27034349999999563
                },
                {
                    "name": "A#3",
                    "midi": 58,
                    "time": 80.56236299999986,
                    "velocity": 0.2677165354330709,
                    "duration": 0.27034349999999563
                },
                {
                    "name": "G3",
                    "midi": 55,
                    "time": 80.83270649999986,
                    "velocity": 0.23622047244094488,
                    "duration": 0.25907918750000647
                },
                {
                    "name": "F3",
                    "midi": 53,
                    "time": 81.10304999999987,
                    "velocity": 0.31496062992125984,
                    "duration": 0.8110305000000011
                },
                {
                    "name": "F4",
                    "midi": 65,
                    "time": 81.64373699999987,
                    "velocity": 0.2755905511811024,
                    "duration": 0.27034349999999563
                },
                {
                    "name": "F2",
                    "midi": 41,
                    "time": 82.86028274999987,
                    "velocity": 0.29133858267716534,
                    "duration": 0.13517174999999781
                },
                {
                    "name": "A2",
                    "midi": 45,
                    "time": 82.99545449999987,
                    "velocity": 0.2992125984251969,
                    "duration": 0.13517174999999781
                },
                {
                    "name": "C3",
                    "midi": 48,
                    "time": 83.13062624999986,
                    "velocity": 0.30708661417322836,
                    "duration": 0.13517174999999781
                },
                {
                    "name": "F3",
                    "midi": 53,
                    "time": 83.26579799999986,
                    "velocity": 0.31496062992125984,
                    "duration": 0.13517174999999781
                },
                {
                    "name": "A3",
                    "midi": 57,
                    "time": 83.40096974999986,
                    "velocity": 0.3228346456692913,
                    "duration": 0.13517174999999781
                },
                {
                    "name": "C4",
                    "midi": 60,
                    "time": 83.53614149999986,
                    "velocity": 0.33070866141732286,
                    "duration": 0.13517174999999781
                },
                {
                    "name": "D4",
                    "midi": 62,
                    "time": 83.67131324999986,
                    "velocity": 0.33858267716535434,
                    "duration": 0.13517174999999781
                },
                {
                    "name": "D#4",
                    "midi": 63,
                    "time": 83.80648499999985,
                    "velocity": 0.3779527559055118,
                    "duration": 0.6758587500000033
                },
                {
                    "name": "F2",
                    "midi": 41,
                    "time": 84.48234374999986,
                    "velocity": 0.29133858267716534,
                    "duration": 0.13517174999999781
                },
                {
                    "name": "A2",
                    "midi": 45,
                    "time": 84.61751549999985,
                    "velocity": 0.3228346456692913,
                    "duration": 0.13517174999999781
                },
                {
                    "name": "C3",
                    "midi": 48,
                    "time": 84.75268724999985,
                    "velocity": 0.33858267716535434,
                    "duration": 0.13517174999999781
                },
                {
                    "name": "F3",
                    "midi": 53,
                    "time": 84.88785899999985,
                    "velocity": 0.3464566929133858,
                    "duration": 0.13517174999999781
                },
                {
                    "name": "A3",
                    "midi": 57,
                    "time": 85.02303074999985,
                    "velocity": 0.36220472440944884,
                    "duration": 0.13517174999999781
                },
                {
                    "name": "C4",
                    "midi": 60,
                    "time": 85.15820249999985,
                    "velocity": 0.3779527559055118,
                    "duration": 0.13517174999999781
                },
                {
                    "name": "D#4",
                    "midi": 63,
                    "time": 85.29337424999984,
                    "velocity": 0.3858267716535433,
                    "duration": 0.13517174999999781
                },
                {
                    "name": "F#4",
                    "midi": 66,
                    "time": 85.42854599999984,
                    "velocity": 0.4330708661417323,
                    "duration": 1.0813739999999967
                },
                {
                    "name": "F4",
                    "midi": 65,
                    "time": 86.50991999999984,
                    "velocity": 0.2992125984251969,
                    "duration": 0.5406870000000055
                },
                {
                    "name": "F3",
                    "midi": 53,
                    "time": 86.50991999999984,
                    "velocity": 0.2992125984251969,
                    "duration": 0.5406870000000055
                },
                {
                    "name": "F3",
                    "midi": 53,
                    "time": 87.05060699999984,
                    "velocity": 0.25196850393700787,
                    "duration": 0.5406870000000055
                },
                {
                    "name": "D#4",
                    "midi": 63,
                    "time": 87.05060699999984,
                    "velocity": 0.25196850393700787,
                    "duration": 0.5406870000000055
                },
                {
                    "name": "A#2",
                    "midi": 46,
                    "time": 87.59129399999985,
                    "velocity": 0.31496062992125984,
                    "duration": 0.13517174999999781
                },
                {
                    "name": "A#3",
                    "midi": 58,
                    "time": 87.86163749999984,
                    "velocity": 0.2283464566929134,
                    "duration": 0.27034349999999563
                },
                {
                    "name": "D4",
                    "midi": 62,
                    "time": 88.13198099999984,
                    "velocity": 0.2677165354330709,
                    "duration": 0.27034349999999563
                },
                {
                    "name": "A#3",
                    "midi": 58,
                    "time": 88.40232449999984,
                    "velocity": 0.2283464566929134,
                    "duration": 0.27034349999999563
                },
                {
                    "name": "D#4",
                    "midi": 63,
                    "time": 88.67266799999983,
                    "velocity": 0.2677165354330709,
                    "duration": 0.27034349999999563
                },
                {
                    "name": "A#3",
                    "midi": 58,
                    "time": 88.94301149999983,
                    "velocity": 0.2440944881889764,
                    "duration": 0.27034349999999563
                },
                {
                    "name": "D4",
                    "midi": 62,
                    "time": 89.21335499999982,
                    "velocity": 0.31496062992125984,
                    "duration": 0.27034349999999563
                },
                {
                    "name": "C#4",
                    "midi": 61,
                    "time": 89.48369849999982,
                    "velocity": 0.23622047244094488,
                    "duration": 0.27034349999999563
                },
                {
                    "name": "D4",
                    "midi": 62,
                    "time": 89.75404199999981,
                    "velocity": 0.2677165354330709,
                    "duration": 0.27034349999999563
                },
                {
                    "name": "A#3",
                    "midi": 58,
                    "time": 90.02438549999981,
                    "velocity": 0.23622047244094488,
                    "duration": 0.27034349999999563
                },
                {
                    "name": "C4",
                    "midi": 60,
                    "time": 90.2947289999998,
                    "velocity": 0.2677165354330709,
                    "duration": 0.27034349999999563
                },
                {
                    "name": "F3",
                    "midi": 53,
                    "time": 90.5650724999998,
                    "velocity": 0.2283464566929134,
                    "duration": 0.27034349999999563
                },
                {
                    "name": "A#3",
                    "midi": 58,
                    "time": 90.8354159999998,
                    "velocity": 0.31496062992125984,
                    "duration": 0.27034349999999563
                },
                {
                    "name": "A#2",
                    "midi": 46,
                    "time": 91.10575949999979,
                    "velocity": 0.23622047244094488,
                    "duration": 0.27034349999999563
                },
                {
                    "name": "D3",
                    "midi": 50,
                    "time": 91.37610299999979,
                    "velocity": 0.2677165354330709,
                    "duration": 0.27034349999999563
                },
                {
                    "name": "A#2",
                    "midi": 46,
                    "time": 91.64644649999978,
                    "velocity": 0.23622047244094488,
                    "duration": 0.27034349999999563
                },
                {
                    "name": "D#3",
                    "midi": 51,
                    "time": 91.91678999999978,
                    "velocity": 0.2677165354330709,
                    "duration": 0.27034349999999563
                },
                {
                    "name": "A#2",
                    "midi": 46,
                    "time": 92.18713349999977,
                    "velocity": 0.2283464566929134,
                    "duration": 0.27034349999999563
                },
                {
                    "name": "D3",
                    "midi": 50,
                    "time": 92.45747699999977,
                    "velocity": 0.31496062992125984,
                    "duration": 0.27034349999999563
                },
                {
                    "name": "C#3",
                    "midi": 49,
                    "time": 92.72782049999977,
                    "velocity": 0.23622047244094488,
                    "duration": 0.27034349999999563
                },
                {
                    "name": "D3",
                    "midi": 50,
                    "time": 92.99816399999976,
                    "velocity": 0.2677165354330709,
                    "duration": 0.27034349999999563
                },
                {
                    "name": "A#2",
                    "midi": 46,
                    "time": 93.26850749999976,
                    "velocity": 0.23622047244094488,
                    "duration": 0.27034349999999563
                },
                {
                    "name": "C3",
                    "midi": 48,
                    "time": 93.53885099999975,
                    "velocity": 0.2677165354330709,
                    "duration": 0.27034349999999563
                },
                {
                    "name": "F2",
                    "midi": 41,
                    "time": 93.80919449999975,
                    "velocity": 0.2283464566929134,
                    "duration": 0.27034349999999563
                },
                {
                    "name": "A#2",
                    "midi": 46,
                    "time": 94.07953799999974,
                    "velocity": 0.31496062992125984,
                    "duration": 0.27034349999999563
                },
                {
                    "name": "D3",
                    "midi": 50,
                    "time": 94.34988149999974,
                    "velocity": 0.23622047244094488,
                    "duration": 0.27034349999999563
                },
                {
                    "name": "C3",
                    "midi": 48,
                    "time": 94.62022499999973,
                    "velocity": 0.2755905511811024,
                    "duration": 0.27034349999999563
                },
                {
                    "name": "F2",
                    "midi": 41,
                    "time": 94.89056849999973,
                    "velocity": 0.2440944881889764,
                    "duration": 0.27034349999999563
                },
                {
                    "name": "A#2",
                    "midi": 46,
                    "time": 95.16091199999973,
                    "velocity": 0.28346456692913385,
                    "duration": 0.27034349999999563
                },
                {
                    "name": "D3",
                    "midi": 50,
                    "time": 95.43125549999972,
                    "velocity": 0.2440944881889764,
                    "duration": 0.27034349999999563
                },
                {
                    "name": "C3",
                    "midi": 48,
                    "time": 95.70159899999972,
                    "velocity": 0.3464566929133858,
                    "duration": 0.27034349999999563
                },
                {
                    "name": "F2",
                    "midi": 41,
                    "time": 95.97194249999971,
                    "velocity": 0.25984251968503935,
                    "duration": 0.27034349999999563
                },
                {
                    "name": "A#2",
                    "midi": 46,
                    "time": 96.24228599999971,
                    "velocity": 0.3543307086614173,
                    "duration": 0.13517174999999781
                },
                {
                    "name": "D3",
                    "midi": 50,
                    "time": 96.3774577499997,
                    "velocity": 0.29133858267716534,
                    "duration": 0.13517174999999781
                },
                {
                    "name": "F2",
                    "midi": 41,
                    "time": 96.5126294999997,
                    "velocity": 0.36220472440944884,
                    "duration": 0.13517174999999781
                },
                {
                    "name": "C3",
                    "midi": 48,
                    "time": 96.6478012499997,
                    "velocity": 0.30708661417322836,
                    "duration": 0.13517174999999781
                },
                {
                    "name": "A#2",
                    "midi": 46,
                    "time": 96.7829729999997,
                    "velocity": 0.3700787401574803,
                    "duration": 0.13517174999999781
                },
                {
                    "name": "D3",
                    "midi": 50,
                    "time": 96.9181447499997,
                    "velocity": 0.3228346456692913,
                    "duration": 0.13517174999999781
                },
                {
                    "name": "F2",
                    "midi": 41,
                    "time": 97.0533164999997,
                    "velocity": 0.3858267716535433,
                    "duration": 0.13517174999999781
                },
                {
                    "name": "C3",
                    "midi": 48,
                    "time": 97.1884882499997,
                    "velocity": 0.33858267716535434,
                    "duration": 0.13517174999999781
                },
                {
                    "name": "A#2",
                    "midi": 46,
                    "time": 97.32365999999969,
                    "velocity": 0.1889763779527559,
                    "duration": 0.13517174999999781
                },
                {
                    "name": "D3",
                    "midi": 50,
                    "time": 97.32365999999969,
                    "velocity": 0.23622047244094488,
                    "duration": 0.13517174999999781
                },
                {
                    "name": "A#1",
                    "midi": 34,
                    "time": 97.86434699999968,
                    "velocity": 0.1889763779527559,
                    "duration": 0.13517174999999781
                },
                {
                    "name": "A#2",
                    "midi": 46,
                    "time": 97.86434699999968,
                    "velocity": 0.23622047244094488,
                    "duration": 0.13517174999999781
                },
                {
                    "name": "D4",
                    "midi": 62,
                    "time": 98.40503399999967,
                    "velocity": 0.4881889763779528,
                    "duration": 0.13517174999999781
                },
                {
                    "name": "D#4",
                    "midi": 63,
                    "time": 98.54020574999967,
                    "velocity": 0.3779527559055118,
                    "duration": 0.13517174999999781
                },
                {
                    "name": "D4",
                    "midi": 62,
                    "time": 98.67537749999967,
                    "velocity": 0.3779527559055118,
                    "duration": 0.13517174999999781
                },
                {
                    "name": "C4",
                    "midi": 60,
                    "time": 98.81054924999967,
                    "velocity": 0.3779527559055118,
                    "duration": 0.13517174999999781
                },
                {
                    "name": "A#3",
                    "midi": 58,
                    "time": 98.94572099999966,
                    "velocity": 0.4881889763779528,
                    "duration": 0.13517174999999781
                },
                {
                    "name": "C4",
                    "midi": 60,
                    "time": 99.08089274999966,
                    "velocity": 0.3779527559055118,
                    "duration": 0.13517174999999781
                },
                {
                    "name": "A#3",
                    "midi": 58,
                    "time": 99.21606449999966,
                    "velocity": 0.3700787401574803,
                    "duration": 0.13517174999999781
                },
                {
                    "name": "A3",
                    "midi": 57,
                    "time": 99.35123624999966,
                    "velocity": 0.3700787401574803,
                    "duration": 0.13517174999999781
                },
                {
                    "name": "G3",
                    "midi": 55,
                    "time": 99.48640799999966,
                    "velocity": 0.49606299212598426,
                    "duration": 0.13517174999999781
                },
                {
                    "name": "A3",
                    "midi": 57,
                    "time": 99.62157974999965,
                    "velocity": 0.36220472440944884,
                    "duration": 0.13517174999999781
                },
                {
                    "name": "A#3",
                    "midi": 58,
                    "time": 99.75675149999965,
                    "velocity": 0.36220472440944884,
                    "duration": 0.13517174999999781
                },
                {
                    "name": "A3",
                    "midi": 57,
                    "time": 99.89192324999965,
                    "velocity": 0.36220472440944884,
                    "duration": 0.13517174999999781
                },
                {
                    "name": "G3",
                    "midi": 55,
                    "time": 100.02709499999965,
                    "velocity": 0.4566929133858268,
                    "duration": 0.13517174999999781
                },
                {
                    "name": "A#3",
                    "midi": 58,
                    "time": 100.16226674999965,
                    "velocity": 0.36220472440944884,
                    "duration": 0.13517174999999781
                },
                {
                    "name": "A3",
                    "midi": 57,
                    "time": 100.29743849999964,
                    "velocity": 0.36220472440944884,
                    "duration": 0.13517174999999781
                },
                {
                    "name": "G3",
                    "midi": 55,
                    "time": 100.43261024999964,
                    "velocity": 0.3543307086614173,
                    "duration": 0.13517174999999781
                },
                {
                    "name": "F#3",
                    "midi": 54,
                    "time": 100.56778199999964,
                    "velocity": 0.4645669291338583,
                    "duration": 0.13517174999999781
                },
                {
                    "name": "G3",
                    "midi": 55,
                    "time": 100.70295374999964,
                    "velocity": 0.3543307086614173,
                    "duration": 0.13517174999999781
                },
                {
                    "name": "F#3",
                    "midi": 54,
                    "time": 100.83812549999963,
                    "velocity": 0.3543307086614173,
                    "duration": 0.13517174999999781
                },
                {
                    "name": "D#3",
                    "midi": 51,
                    "time": 100.97329724999963,
                    "velocity": 0.3464566929133858,
                    "duration": 0.13517174999999781
                },
                {
                    "name": "D3",
                    "midi": 50,
                    "time": 101.10846899999963,
                    "velocity": 0.44881889763779526,
                    "duration": 0.13517174999999781
                },
                {
                    "name": "D#3",
                    "midi": 51,
                    "time": 101.24364074999963,
                    "velocity": 0.3464566929133858,
                    "duration": 0.13517174999999781
                },
                {
                    "name": "D3",
                    "midi": 50,
                    "time": 101.37881249999963,
                    "velocity": 0.33070866141732286,
                    "duration": 0.13517174999999781
                },
                {
                    "name": "C3",
                    "midi": 48,
                    "time": 101.51398424999962,
                    "velocity": 0.33070866141732286,
                    "duration": 0.13517174999999781
                },
                {
                    "name": "A#2",
                    "midi": 46,
                    "time": 101.64915599999962,
                    "velocity": 0.4330708661417323,
                    "duration": 0.13517174999999781
                },
                {
                    "name": "C3",
                    "midi": 48,
                    "time": 101.78432774999962,
                    "velocity": 0.3228346456692913,
                    "duration": 0.13517174999999781
                },
                {
                    "name": "A#2",
                    "midi": 46,
                    "time": 101.91949949999962,
                    "velocity": 0.3228346456692913,
                    "duration": 0.13517174999999781
                },
                {
                    "name": "A2",
                    "midi": 45,
                    "time": 102.05467124999961,
                    "velocity": 0.3228346456692913,
                    "duration": 0.13517174999999781
                },
                {
                    "name": "G2",
                    "midi": 43,
                    "time": 102.18984299999961,
                    "velocity": 0.4409448818897638,
                    "duration": 0.13517174999999781
                },
                {
                    "name": "F#2",
                    "midi": 42,
                    "time": 102.32501474999961,
                    "velocity": 0.33070866141732286,
                    "duration": 0.13517174999999781
                },
                {
                    "name": "G2",
                    "midi": 43,
                    "time": 102.46018649999961,
                    "velocity": 0.33070866141732286,
                    "duration": 0.13517174999999781
                },
                {
                    "name": "A2",
                    "midi": 45,
                    "time": 102.5953582499996,
                    "velocity": 0.33070866141732286,
                    "duration": 0.13517174999999781
                },
                {
                    "name": "A#2",
                    "midi": 46,
                    "time": 102.7305299999996,
                    "velocity": 0.4330708661417323,
                    "duration": 0.13517174999999781
                },
                {
                    "name": "A2",
                    "midi": 45,
                    "time": 102.8657017499996,
                    "velocity": 0.33070866141732286,
                    "duration": 0.13517174999999781
                },
                {
                    "name": "A#2",
                    "midi": 46,
                    "time": 103.0008734999996,
                    "velocity": 0.3228346456692913,
                    "duration": 0.13517174999999781
                },
                {
                    "name": "B2",
                    "midi": 47,
                    "time": 103.1360452499996,
                    "velocity": 0.3228346456692913,
                    "duration": 0.13517174999999781
                },
                {
                    "name": "C3",
                    "midi": 48,
                    "time": 103.2712169999996,
                    "velocity": 0.4645669291338583,
                    "duration": 0.13517174999999781
                },
                {
                    "name": "B2",
                    "midi": 47,
                    "time": 103.40638874999959,
                    "velocity": 0.3700787401574803,
                    "duration": 0.13517174999999781
                },
                {
                    "name": "C3",
                    "midi": 48,
                    "time": 103.54156049999959,
                    "velocity": 0.3779527559055118,
                    "duration": 0.13517174999999781
                },
                {
                    "name": "C#3",
                    "midi": 49,
                    "time": 103.66997366249959,
                    "velocity": 0.3779527559055118,
                    "duration": 0.13517174999999781
                },
                {
                    "name": "D3",
                    "midi": 50,
                    "time": 103.81190399999959,
                    "velocity": 0.47244094488188976,
                    "duration": 0.13517174999999781
                },
                {
                    "name": "D2",
                    "midi": 38,
                    "time": 103.94707574999958,
                    "velocity": 0.36220472440944884,
                    "duration": 0.13517174999999781
                },
                {
                    "name": "F#2",
                    "midi": 42,
                    "time": 104.08224749999958,
                    "velocity": 0.36220472440944884,
                    "duration": 0.13517174999999781
                },
                {
                    "name": "A2",
                    "midi": 45,
                    "time": 104.21741924999958,
                    "velocity": 0.33070866141732286,
                    "duration": 0.13517174999999781
                },
                {
                    "name": "D3",
                    "midi": 50,
                    "time": 104.35259099999958,
                    "velocity": 0.44881889763779526,
                    "duration": 0.13517174999999781
                },
                {
                    "name": "F#3",
                    "midi": 54,
                    "time": 104.48776274999958,
                    "velocity": 0.41732283464566927,
                    "duration": 0.13517174999999781
                },
                {
                    "name": "A3",
                    "midi": 57,
                    "time": 104.62969308749958,
                    "velocity": 0.4409448818897638,
                    "duration": 0.13517174999999781
                },
                {
                    "name": "C#4",
                    "midi": 61,
                    "time": 104.75810624999957,
                    "velocity": 0.4566929133858268,
                    "duration": 0.13517174999999781
                },
                {
                    "name": "D4",
                    "midi": 62,
                    "time": 104.89327799999957,
                    "velocity": 0.5196850393700787,
                    "duration": 0.13517174999999781
                },
                {
                    "name": "D#4",
                    "midi": 63,
                    "time": 105.02844974999957,
                    "velocity": 0.4645669291338583,
                    "duration": 0.13517174999999781
                },
                {
                    "name": "D4",
                    "midi": 62,
                    "time": 105.16362149999956,
                    "velocity": 0.44881889763779526,
                    "duration": 0.13517174999999781
                },
                {
                    "name": "C4",
                    "midi": 60,
                    "time": 105.29879324999956,
                    "velocity": 0.4409448818897638,
                    "duration": 0.13517174999999781
                },
                {
                    "name": "A#3",
                    "midi": 58,
                    "time": 105.43396499999956,
                    "velocity": 0.4881889763779528,
                    "duration": 0.13517174999999781
                },
                {
                    "name": "C4",
                    "midi": 60,
                    "time": 105.56913674999956,
                    "velocity": 0.3779527559055118,
                    "duration": 0.13517174999999781
                },
                {
                    "name": "A#3",
                    "midi": 58,
                    "time": 105.70430849999956,
                    "velocity": 0.3700787401574803,
                    "duration": 0.13517174999999781
                },
                {
                    "name": "A3",
                    "midi": 57,
                    "time": 105.83948024999955,
                    "velocity": 0.3700787401574803,
                    "duration": 0.13517174999999781
                },
                {
                    "name": "G3",
                    "midi": 55,
                    "time": 105.97465199999955,
                    "velocity": 0.49606299212598426,
                    "duration": 0.13517174999999781
                },
                {
                    "name": "A3",
                    "midi": 57,
                    "time": 106.10982374999955,
                    "velocity": 0.36220472440944884,
                    "duration": 0.13517174999999781
                },
                {
                    "name": "G3",
                    "midi": 55,
                    "time": 106.24499549999955,
                    "velocity": 0.36220472440944884,
                    "duration": 0.13517174999999781
                },
                {
                    "name": "F3",
                    "midi": 53,
                    "time": 106.38016724999954,
                    "velocity": 0.36220472440944884,
                    "duration": 0.13517174999999781
                },
                {
                    "name": "E3",
                    "midi": 52,
                    "time": 106.51533899999954,
                    "velocity": 0.4566929133858268,
                    "duration": 0.13517174999999781
                },
                {
                    "name": "F3",
                    "midi": 53,
                    "time": 106.65051074999954,
                    "velocity": 0.36220472440944884,
                    "duration": 0.13517174999999781
                },
                {
                    "name": "E3",
                    "midi": 52,
                    "time": 106.78568249999954,
                    "velocity": 0.36220472440944884,
                    "duration": 0.13517174999999781
                },
                {
                    "name": "D3",
                    "midi": 50,
                    "time": 106.92085424999954,
                    "velocity": 0.3543307086614173,
                    "duration": 0.13517174999999781
                },
                {
                    "name": "C#3",
                    "midi": 49,
                    "time": 107.05602599999953,
                    "velocity": 0.4645669291338583,
                    "duration": 0.13517174999999781
                },
                {
                    "name": "D3",
                    "midi": 50,
                    "time": 107.19119774999953,
                    "velocity": 0.3543307086614173,
                    "duration": 0.13517174999999781
                },
                {
                    "name": "C#3",
                    "midi": 49,
                    "time": 107.32636949999953,
                    "velocity": 0.3543307086614173,
                    "duration": 0.13517174999999781
                },
                {
                    "name": "A#2",
                    "midi": 46,
                    "time": 107.46154124999953,
                    "velocity": 0.3464566929133858,
                    "duration": 0.13517174999999781
                },
                {
                    "name": "A2",
                    "midi": 45,
                    "time": 107.59671299999953,
                    "velocity": 0.44881889763779526,
                    "duration": 0.13517174999999781
                },
                {
                    "name": "A#2",
                    "midi": 46,
                    "time": 107.73188474999952,
                    "velocity": 0.3464566929133858,
                    "duration": 0.13517174999999781
                },
                {
                    "name": "A2",
                    "midi": 45,
                    "time": 107.86705649999952,
                    "velocity": 0.33070866141732286,
                    "duration": 0.13517174999999781
                },
                {
                    "name": "G2",
                    "midi": 43,
                    "time": 108.00222824999952,
                    "velocity": 0.33070866141732286,
                    "duration": 0.13517174999999781
                },
                {
                    "name": "F2",
                    "midi": 41,
                    "time": 108.13739999999952,
                    "velocity": 0.4330708661417323,
                    "duration": 0.13517174999999781
                },
                {
                    "name": "G2",
                    "midi": 43,
                    "time": 108.27257174999951,
                    "velocity": 0.3228346456692913,
                    "duration": 0.13517174999999781
                },
                {
                    "name": "F2",
                    "midi": 41,
                    "time": 108.40774349999951,
                    "velocity": 0.3228346456692913,
                    "duration": 0.13517174999999781
                },
                {
                    "name": "E2",
                    "midi": 40,
                    "time": 108.54291524999951,
                    "velocity": 0.3228346456692913,
                    "duration": 0.13517174999999781
                },
                {
                    "name": "D2",
                    "midi": 38,
                    "time": 108.67808699999951,
                    "velocity": 0.4409448818897638,
                    "duration": 0.13517174999999781
                },
                {
                    "name": "E2",
                    "midi": 40,
                    "time": 108.8132587499995,
                    "velocity": 0.33070866141732286,
                    "duration": 0.13517174999999781
                },
                {
                    "name": "F2",
                    "midi": 41,
                    "time": 108.9484304999995,
                    "velocity": 0.33070866141732286,
                    "duration": 0.13517174999999781
                },
                {
                    "name": "D2",
                    "midi": 38,
                    "time": 109.0836022499995,
                    "velocity": 0.33070866141732286,
                    "duration": 0.13517174999999781
                },
                {
                    "name": "G2",
                    "midi": 43,
                    "time": 109.2187739999995,
                    "velocity": 0.4330708661417323,
                    "duration": 0.13517174999999781
                },
                {
                    "name": "A2",
                    "midi": 45,
                    "time": 109.3539457499995,
                    "velocity": 0.33070866141732286,
                    "duration": 0.13517174999999781
                },
                {
                    "name": "A#2",
                    "midi": 46,
                    "time": 109.4891174999995,
                    "velocity": 0.3228346456692913,
                    "duration": 0.13517174999999781
                },
                {
                    "name": "G2",
                    "midi": 43,
                    "time": 109.62428924999949,
                    "velocity": 0.3228346456692913,
                    "duration": 0.13517174999999781
                },
                {
                    "name": "A2",
                    "midi": 45,
                    "time": 109.75946099999949,
                    "velocity": 0.44881889763779526,
                    "duration": 0.13517174999999781
                },
                {
                    "name": "G#2",
                    "midi": 44,
                    "time": 109.89463274999949,
                    "velocity": 0.3543307086614173,
                    "duration": 0.13517174999999781
                },
                {
                    "name": "A2",
                    "midi": 45,
                    "time": 110.02980449999949,
                    "velocity": 0.3543307086614173,
                    "duration": 0.13517174999999781
                },
                {
                    "name": "A1",
                    "midi": 33,
                    "time": 110.16497624999948,
                    "velocity": 0.3543307086614173,
                    "duration": 0.13517174999999781
                },
                {
                    "name": "D2",
                    "midi": 38,
                    "time": 110.30014799999948,
                    "velocity": 0.47244094488188976,
                    "duration": 0.13517174999999781
                },
                {
                    "name": "F2",
                    "midi": 41,
                    "time": 110.43531974999948,
                    "velocity": 0.36220472440944884,
                    "duration": 0.13517174999999781
                },
                {
                    "name": "A2",
                    "midi": 45,
                    "time": 110.57049149999948,
                    "velocity": 0.36220472440944884,
                    "duration": 0.13517174999999781
                },
                {
                    "name": "D3",
                    "midi": 50,
                    "time": 110.70566324999947,
                    "velocity": 0.33070866141732286,
                    "duration": 0.13517174999999781
                },
                {
                    "name": "D2",
                    "midi": 38,
                    "time": 110.84083499999947,
                    "velocity": 0.44881889763779526,
                    "duration": 0.5068940624999954
                },
                {
                    "name": "D4",
                    "midi": 62,
                    "time": 111.38152199999946,
                    "velocity": 0.4881889763779528,
                    "duration": 0.13517174999999781
                },
                {
                    "name": "D#4",
                    "midi": 63,
                    "time": 111.51669374999946,
                    "velocity": 0.3779527559055118,
                    "duration": 0.13517174999999781
                },
                {
                    "name": "D4",
                    "midi": 62,
                    "time": 111.65186549999946,
                    "velocity": 0.3779527559055118,
                    "duration": 0.13517174999999781
                },
                {
                    "name": "C4",
                    "midi": 60,
                    "time": 111.78703724999946,
                    "velocity": 0.3779527559055118,
                    "duration": 0.13517174999999781
                },
                {
                    "name": "A#3",
                    "midi": 58,
                    "time": 111.92220899999946,
                    "velocity": 0.4881889763779528,
                    "duration": 0.13517174999999781
                },
                {
                    "name": "C4",
                    "midi": 60,
                    "time": 112.05738074999945,
                    "velocity": 0.3779527559055118,
                    "duration": 0.13517174999999781
                },
                {
                    "name": "A#3",
                    "midi": 58,
                    "time": 112.19255249999945,
                    "velocity": 0.3700787401574803,
                    "duration": 0.13517174999999781
                },
                {
                    "name": "A3",
                    "midi": 57,
                    "time": 112.32772424999945,
                    "velocity": 0.3700787401574803,
                    "duration": 0.13517174999999781
                },
                {
                    "name": "G3",
                    "midi": 55,
                    "time": 112.46289599999945,
                    "velocity": 0.49606299212598426,
                    "duration": 0.13517174999999781
                },
                {
                    "name": "A3",
                    "midi": 57,
                    "time": 112.59806774999944,
                    "velocity": 0.36220472440944884,
                    "duration": 0.13517174999999781
                },
                {
                    "name": "A#3",
                    "midi": 58,
                    "time": 112.73323949999944,
                    "velocity": 0.36220472440944884,
                    "duration": 0.13517174999999781
                },
                {
                    "name": "A3",
                    "midi": 57,
                    "time": 112.86841124999944,
                    "velocity": 0.36220472440944884,
                    "duration": 0.13517174999999781
                },
                {
                    "name": "G3",
                    "midi": 55,
                    "time": 113.00358299999944,
                    "velocity": 0.4566929133858268,
                    "duration": 0.13517174999999781
                },
                {
                    "name": "A#3",
                    "midi": 58,
                    "time": 113.13875474999944,
                    "velocity": 0.36220472440944884,
                    "duration": 0.13517174999999781
                },
                {
                    "name": "A3",
                    "midi": 57,
                    "time": 113.27392649999943,
                    "velocity": 0.36220472440944884,
                    "duration": 0.13517174999999781
                },
                {
                    "name": "G3",
                    "midi": 55,
                    "time": 113.40909824999943,
                    "velocity": 0.3543307086614173,
                    "duration": 0.13517174999999781
                },
                {
                    "name": "F#3",
                    "midi": 54,
                    "time": 113.54426999999943,
                    "velocity": 0.4645669291338583,
                    "duration": 0.13517174999999781
                },
                {
                    "name": "G3",
                    "midi": 55,
                    "time": 113.67944174999943,
                    "velocity": 0.3543307086614173,
                    "duration": 0.13517174999999781
                },
                {
                    "name": "F#3",
                    "midi": 54,
                    "time": 113.81461349999942,
                    "velocity": 0.3543307086614173,
                    "duration": 0.13517174999999781
                },
                {
                    "name": "D#3",
                    "midi": 51,
                    "time": 113.94978524999942,
                    "velocity": 0.3464566929133858,
                    "duration": 0.13517174999999781
                },
                {
                    "name": "D3",
                    "midi": 50,
                    "time": 114.08495699999942,
                    "velocity": 0.44881889763779526,
                    "duration": 0.13517174999999781
                },
                {
                    "name": "D#3",
                    "midi": 51,
                    "time": 114.22012874999942,
                    "velocity": 0.3464566929133858,
                    "duration": 0.13517174999999781
                },
                {
                    "name": "D3",
                    "midi": 50,
                    "time": 114.35530049999942,
                    "velocity": 0.33070866141732286,
                    "duration": 0.13517174999999781
                },
                {
                    "name": "C3",
                    "midi": 48,
                    "time": 114.49047224999941,
                    "velocity": 0.33070866141732286,
                    "duration": 0.13517174999999781
                },
                {
                    "name": "A#2",
                    "midi": 46,
                    "time": 114.62564399999941,
                    "velocity": 0.4330708661417323,
                    "duration": 0.13517174999999781
                },
                {
                    "name": "C3",
                    "midi": 48,
                    "time": 114.76081574999941,
                    "velocity": 0.3228346456692913,
                    "duration": 0.13517174999999781
                },
                {
                    "name": "A#2",
                    "midi": 46,
                    "time": 114.8959874999994,
                    "velocity": 0.3228346456692913,
                    "duration": 0.13517174999999781
                },
                {
                    "name": "A2",
                    "midi": 45,
                    "time": 115.0311592499994,
                    "velocity": 0.3228346456692913,
                    "duration": 0.13517174999999781
                },
                {
                    "name": "G2",
                    "midi": 43,
                    "time": 115.1663309999994,
                    "velocity": 0.4409448818897638,
                    "duration": 0.13517174999999781
                },
                {
                    "name": "F#2",
                    "midi": 42,
                    "time": 115.3015027499994,
                    "velocity": 0.33070866141732286,
                    "duration": 0.13517174999999781
                },
                {
                    "name": "G2",
                    "midi": 43,
                    "time": 115.4366744999994,
                    "velocity": 0.33070866141732286,
                    "duration": 0.13517174999999781
                },
                {
                    "name": "A2",
                    "midi": 45,
                    "time": 115.5718462499994,
                    "velocity": 0.33070866141732286,
                    "duration": 0.13517174999999781
                },
                {
                    "name": "A#2",
                    "midi": 46,
                    "time": 115.7070179999994,
                    "velocity": 0.4330708661417323,
                    "duration": 0.13517174999999781
                },
                {
                    "name": "A2",
                    "midi": 45,
                    "time": 115.84218974999939,
                    "velocity": 0.33070866141732286,
                    "duration": 0.13517174999999781
                },
                {
                    "name": "A#2",
                    "midi": 46,
                    "time": 115.97736149999939,
                    "velocity": 0.3228346456692913,
                    "duration": 0.13517174999999781
                },
                {
                    "name": "B2",
                    "midi": 47,
                    "time": 116.11253324999939,
                    "velocity": 0.3228346456692913,
                    "duration": 0.13517174999999781
                },
                {
                    "name": "C3",
                    "midi": 48,
                    "time": 116.24770499999939,
                    "velocity": 0.4645669291338583,
                    "duration": 0.13517174999999781
                },
                {
                    "name": "B2",
                    "midi": 47,
                    "time": 116.38287674999938,
                    "velocity": 0.3700787401574803,
                    "duration": 0.13517174999999781
                },
                {
                    "name": "C3",
                    "midi": 48,
                    "time": 116.51804849999938,
                    "velocity": 0.3779527559055118,
                    "duration": 0.13517174999999781
                },
                {
                    "name": "C#3",
                    "midi": 49,
                    "time": 116.65322024999938,
                    "velocity": 0.3779527559055118,
                    "duration": 0.13517174999999781
                },
                {
                    "name": "D3",
                    "midi": 50,
                    "time": 116.78839199999938,
                    "velocity": 0.47244094488188976,
                    "duration": 0.13517174999999781
                },
                {
                    "name": "D2",
                    "midi": 38,
                    "time": 116.92356374999937,
                    "velocity": 0.36220472440944884,
                    "duration": 0.13517174999999781
                },
                {
                    "name": "F#2",
                    "midi": 42,
                    "time": 117.05873549999937,
                    "velocity": 0.3700787401574803,
                    "duration": 0.13517174999999781
                },
                {
                    "name": "A2",
                    "midi": 45,
                    "time": 117.19390724999937,
                    "velocity": 0.3779527559055118,
                    "duration": 0.13517174999999781
                },
                {
                    "name": "D3",
                    "midi": 50,
                    "time": 117.32907899999937,
                    "velocity": 0.44881889763779526,
                    "duration": 0.13517174999999781
                },
                {
                    "name": "F#3",
                    "midi": 54,
                    "time": 117.46425074999937,
                    "velocity": 0.3858267716535433,
                    "duration": 0.13517174999999781
                },
                {
                    "name": "A3",
                    "midi": 57,
                    "time": 117.60618108749937,
                    "velocity": 0.41732283464566927,
                    "duration": 0.13517174999999781
                },
                {
                    "name": "C#4",
                    "midi": 61,
                    "time": 117.73459424999936,
                    "velocity": 0.44881889763779526,
                    "duration": 0.13517174999999781
                },
                {
                    "name": "D4",
                    "midi": 62,
                    "time": 117.86976599999936,
                    "velocity": 0.4881889763779528,
                    "duration": 0.13517174999999781
                },
                {
                    "name": "D#4",
                    "midi": 63,
                    "time": 118.00493774999936,
                    "velocity": 0.44881889763779526,
                    "duration": 0.13517174999999781
                },
                {
                    "name": "D4",
                    "midi": 62,
                    "time": 118.14010949999935,
                    "velocity": 0.4094488188976378,
                    "duration": 0.13517174999999781
                },
                {
                    "name": "C4",
                    "midi": 60,
                    "time": 118.27528124999935,
                    "velocity": 0.3858267716535433,
                    "duration": 0.13517174999999781
                },
                {
                    "name": "A#3",
                    "midi": 58,
                    "time": 118.41045299999935,
                    "velocity": 0.4881889763779528,
                    "duration": 0.13517174999999781
                },
                {
                    "name": "C4",
                    "midi": 60,
                    "time": 118.54562474999935,
                    "velocity": 0.3779527559055118,
                    "duration": 0.13517174999999781
                },
                {
                    "name": "A#3",
                    "midi": 58,
                    "time": 118.68079649999935,
                    "velocity": 0.3700787401574803,
                    "duration": 0.13517174999999781
                },
                {
                    "name": "A3",
                    "midi": 57,
                    "time": 118.81596824999934,
                    "velocity": 0.3700787401574803,
                    "duration": 0.13517174999999781
                },
                {
                    "name": "G3",
                    "midi": 55,
                    "time": 118.95113999999934,
                    "velocity": 0.49606299212598426,
                    "duration": 0.13517174999999781
                },
                {
                    "name": "A3",
                    "midi": 57,
                    "time": 119.08631174999934,
                    "velocity": 0.36220472440944884,
                    "duration": 0.13517174999999781
                },
                {
                    "name": "G3",
                    "midi": 55,
                    "time": 119.22148349999934,
                    "velocity": 0.36220472440944884,
                    "duration": 0.13517174999999781
                },
                {
                    "name": "F3",
                    "midi": 53,
                    "time": 119.35665524999933,
                    "velocity": 0.36220472440944884,
                    "duration": 0.13517174999999781
                },
                {
                    "name": "E3",
                    "midi": 52,
                    "time": 119.49182699999933,
                    "velocity": 0.4566929133858268,
                    "duration": 0.13517174999999781
                },
                {
                    "name": "F3",
                    "midi": 53,
                    "time": 119.62699874999933,
                    "velocity": 0.36220472440944884,
                    "duration": 0.13517174999999781
                },
                {
                    "name": "E3",
                    "midi": 52,
                    "time": 119.76217049999933,
                    "velocity": 0.36220472440944884,
                    "duration": 0.13517174999999781
                },
                {
                    "name": "D3",
                    "midi": 50,
                    "time": 119.89734224999933,
                    "velocity": 0.3543307086614173,
                    "duration": 0.13517174999999781
                },
                {
                    "name": "C#3",
                    "midi": 49,
                    "time": 120.03251399999932,
                    "velocity": 0.4645669291338583,
                    "duration": 0.13517174999999781
                },
                {
                    "name": "D3",
                    "midi": 50,
                    "time": 120.16768574999932,
                    "velocity": 0.3543307086614173,
                    "duration": 0.13517174999999781
                },
                {
                    "name": "C#3",
                    "midi": 49,
                    "time": 120.30285749999932,
                    "velocity": 0.3543307086614173,
                    "duration": 0.13517174999999781
                },
                {
                    "name": "A#2",
                    "midi": 46,
                    "time": 120.43802924999932,
                    "velocity": 0.3464566929133858,
                    "duration": 0.13517174999999781
                },
                {
                    "name": "A2",
                    "midi": 45,
                    "time": 120.57320099999932,
                    "velocity": 0.44881889763779526,
                    "duration": 0.13517174999999781
                },
                {
                    "name": "A#2",
                    "midi": 46,
                    "time": 120.70837274999931,
                    "velocity": 0.3464566929133858,
                    "duration": 0.13517174999999781
                },
                {
                    "name": "A2",
                    "midi": 45,
                    "time": 120.84354449999931,
                    "velocity": 0.33070866141732286,
                    "duration": 0.13517174999999781
                },
                {
                    "name": "G2",
                    "midi": 43,
                    "time": 120.97871624999931,
                    "velocity": 0.33070866141732286,
                    "duration": 0.13517174999999781
                },
                {
                    "name": "F2",
                    "midi": 41,
                    "time": 121.1138879999993,
                    "velocity": 0.4330708661417323,
                    "duration": 0.13517174999999781
                },
                {
                    "name": "G2",
                    "midi": 43,
                    "time": 121.2490597499993,
                    "velocity": 0.3228346456692913,
                    "duration": 0.13517174999999781
                },
                {
                    "name": "F2",
                    "midi": 41,
                    "time": 121.3842314999993,
                    "velocity": 0.3228346456692913,
                    "duration": 0.13517174999999781
                },
                {
                    "name": "E2",
                    "midi": 40,
                    "time": 121.5194032499993,
                    "velocity": 0.3228346456692913,
                    "duration": 0.13517174999999781
                },
                {
                    "name": "D2",
                    "midi": 38,
                    "time": 121.6545749999993,
                    "velocity": 0.4409448818897638,
                    "duration": 0.13517174999999781
                },
                {
                    "name": "E2",
                    "midi": 40,
                    "time": 121.7897467499993,
                    "velocity": 0.33070866141732286,
                    "duration": 0.13517174999999781
                },
                {
                    "name": "F2",
                    "midi": 41,
                    "time": 121.9249184999993,
                    "velocity": 0.33070866141732286,
                    "duration": 0.13517174999999781
                },
                {
                    "name": "D2",
                    "midi": 38,
                    "time": 122.06009024999929,
                    "velocity": 0.33070866141732286,
                    "duration": 0.13517174999999781
                },
                {
                    "name": "G2",
                    "midi": 43,
                    "time": 122.19526199999929,
                    "velocity": 0.4330708661417323,
                    "duration": 0.13517174999999781
                },
                {
                    "name": "A2",
                    "midi": 45,
                    "time": 122.33043374999929,
                    "velocity": 0.33070866141732286,
                    "duration": 0.13517174999999781
                },
                {
                    "name": "A#2",
                    "midi": 46,
                    "time": 122.46560549999928,
                    "velocity": 0.3228346456692913,
                    "duration": 0.13517174999999781
                },
                {
                    "name": "G2",
                    "midi": 43,
                    "time": 122.60077724999928,
                    "velocity": 0.3228346456692913,
                    "duration": 0.13517174999999781
                },
                {
                    "name": "A2",
                    "midi": 45,
                    "time": 122.73594899999928,
                    "velocity": 0.44881889763779526,
                    "duration": 0.13517174999999781
                },
                {
                    "name": "G#2",
                    "midi": 44,
                    "time": 122.87112074999928,
                    "velocity": 0.3543307086614173,
                    "duration": 0.13517174999999781
                },
                {
                    "name": "A2",
                    "midi": 45,
                    "time": 123.00629249999928,
                    "velocity": 0.3543307086614173,
                    "duration": 0.13517174999999781
                },
                {
                    "name": "A1",
                    "midi": 33,
                    "time": 123.14146424999927,
                    "velocity": 0.3543307086614173,
                    "duration": 0.13517174999999781
                },
                {
                    "name": "D2",
                    "midi": 38,
                    "time": 123.27663599999927,
                    "velocity": 0.47244094488188976,
                    "duration": 0.13517174999999781
                },
                {
                    "name": "F2",
                    "midi": 41,
                    "time": 123.41180774999927,
                    "velocity": 0.36220472440944884,
                    "duration": 0.13517174999999781
                },
                {
                    "name": "A2",
                    "midi": 45,
                    "time": 123.54697949999927,
                    "velocity": 0.36220472440944884,
                    "duration": 0.13517174999999781
                },
                {
                    "name": "D3",
                    "midi": 50,
                    "time": 123.68215124999927,
                    "velocity": 0.33070866141732286,
                    "duration": 0.13517174999999781
                },
                {
                    "name": "D2",
                    "midi": 38,
                    "time": 123.81732299999926,
                    "velocity": 0.44881889763779526,
                    "duration": 0.5068940624999954
                },
                {
                    "name": "G#4",
                    "midi": 68,
                    "time": 124.89869699999926,
                    "velocity": 0.5275590551181102,
                    "duration": 0.13517174999999781
                },
                {
                    "name": "A#4",
                    "midi": 70,
                    "time": 125.03386874999926,
                    "velocity": 0.36220472440944884,
                    "duration": 0.13517174999999781
                },
                {
                    "name": "G#4",
                    "midi": 68,
                    "time": 125.16904049999926,
                    "velocity": 0.36220472440944884,
                    "duration": 0.13517174999999781
                },
                {
                    "name": "G4",
                    "midi": 67,
                    "time": 125.30421224999925,
                    "velocity": 0.36220472440944884,
                    "duration": 0.13517174999999781
                },
                {
                    "name": "F4",
                    "midi": 65,
                    "time": 125.43938399999925,
                    "velocity": 0.4645669291338583,
                    "duration": 0.13517174999999781
                },
                {
                    "name": "G4",
                    "midi": 67,
                    "time": 125.57455574999925,
                    "velocity": 0.36220472440944884,
                    "duration": 0.13517174999999781
                },
                {
                    "name": "F4",
                    "midi": 65,
                    "time": 125.70972749999925,
                    "velocity": 0.36220472440944884,
                    "duration": 0.13517174999999781
                },
                {
                    "name": "D#4",
                    "midi": 63,
                    "time": 125.84489924999924,
                    "velocity": 0.36220472440944884,
                    "duration": 0.13517174999999781
                },
                {
                    "name": "G3",
                    "midi": 55,
                    "time": 125.98007099999924,
                    "velocity": 0.4409448818897638,
                    "duration": 0.5406870000000055
                },
                {
                    "name": "D4",
                    "midi": 62,
                    "time": 125.98007099999924,
                    "velocity": 0.5275590551181102,
                    "duration": 0.5406870000000055
                },
                {
                    "name": "C4",
                    "midi": 60,
                    "time": 126.52075799999925,
                    "velocity": 0.4409448818897638,
                    "duration": 0.27034349999999563
                },
                {
                    "name": "D#4",
                    "midi": 63,
                    "time": 126.52075799999925,
                    "velocity": 0.5275590551181102,
                    "duration": 0.27034349999999563
                },
                {
                    "name": "D#4",
                    "midi": 63,
                    "time": 128.14281899999924,
                    "velocity": 0.5275590551181102,
                    "duration": 0.13517175000001203
                },
                {
                    "name": "F4",
                    "midi": 65,
                    "time": 128.27799074999925,
                    "velocity": 0.36220472440944884,
                    "duration": 0.13517175000001203
                },
                {
                    "name": "D#4",
                    "midi": 63,
                    "time": 128.41316249999926,
                    "velocity": 0.36220472440944884,
                    "duration": 0.13517175000001203
                },
                {
                    "name": "D4",
                    "midi": 62,
                    "time": 128.54833424999927,
                    "velocity": 0.36220472440944884,
                    "duration": 0.13517175000001203
                },
                {
                    "name": "C4",
                    "midi": 60,
                    "time": 128.68350599999928,
                    "velocity": 0.4645669291338583,
                    "duration": 0.13517175000001203
                },
                {
                    "name": "D4",
                    "midi": 62,
                    "time": 128.8186777499993,
                    "velocity": 0.36220472440944884,
                    "duration": 0.13517175000001203
                },
                {
                    "name": "C4",
                    "midi": 60,
                    "time": 128.9538494999993,
                    "velocity": 0.36220472440944884,
                    "duration": 0.13517175000001203
                },
                {
                    "name": "A#3",
                    "midi": 58,
                    "time": 129.08902124999932,
                    "velocity": 0.36220472440944884,
                    "duration": 0.13517175000001203
                },
                {
                    "name": "D3",
                    "midi": 50,
                    "time": 129.22419299999933,
                    "velocity": 0.4409448818897638,
                    "duration": 0.5406869999999913
                },
                {
                    "name": "A3",
                    "midi": 57,
                    "time": 129.22419299999933,
                    "velocity": 0.5275590551181102,
                    "duration": 0.5406869999999913
                },
                {
                    "name": "G3",
                    "midi": 55,
                    "time": 129.76487999999932,
                    "velocity": 0.4409448818897638,
                    "duration": 0.27034349999999563
                },
                {
                    "name": "A#3",
                    "midi": 58,
                    "time": 129.76487999999932,
                    "velocity": 0.5275590551181102,
                    "duration": 0.27034349999999563
                },
                {
                    "name": "D4",
                    "midi": 62,
                    "time": 130.8462539999993,
                    "velocity": 0.4881889763779528,
                    "duration": 0.13517175000001203
                },
                {
                    "name": "D#4",
                    "midi": 63,
                    "time": 130.98142574999932,
                    "velocity": 0.3779527559055118,
                    "duration": 0.13517175000001203
                },
                {
                    "name": "D4",
                    "midi": 62,
                    "time": 131.11659749999933,
                    "velocity": 0.3779527559055118,
                    "duration": 0.13517175000001203
                },
                {
                    "name": "C4",
                    "midi": 60,
                    "time": 131.25176924999934,
                    "velocity": 0.3779527559055118,
                    "duration": 0.13517175000001203
                },
                {
                    "name": "A#3",
                    "midi": 58,
                    "time": 131.38694099999935,
                    "velocity": 0.4881889763779528,
                    "duration": 0.13517175000001203
                },
                {
                    "name": "C4",
                    "midi": 60,
                    "time": 131.52211274999937,
                    "velocity": 0.3779527559055118,
                    "duration": 0.13517175000001203
                },
                {
                    "name": "A#3",
                    "midi": 58,
                    "time": 131.65728449999938,
                    "velocity": 0.3700787401574803,
                    "duration": 0.13517175000001203
                },
                {
                    "name": "A3",
                    "midi": 57,
                    "time": 131.7924562499994,
                    "velocity": 0.3700787401574803,
                    "duration": 0.13517175000001203
                },
                {
                    "name": "G3",
                    "midi": 55,
                    "time": 131.9276279999994,
                    "velocity": 0.49606299212598426,
                    "duration": 0.13517175000001203
                },
                {
                    "name": "A3",
                    "midi": 57,
                    "time": 132.0627997499994,
                    "velocity": 0.36220472440944884,
                    "duration": 0.13517175000001203
                },
                {
                    "name": "G3",
                    "midi": 55,
                    "time": 132.19797149999943,
                    "velocity": 0.36220472440944884,
                    "duration": 0.13517175000001203
                },
                {
                    "name": "F3",
                    "midi": 53,
                    "time": 132.33314324999944,
                    "velocity": 0.36220472440944884,
                    "duration": 0.13517175000001203
                },
                {
                    "name": "D#3",
                    "midi": 51,
                    "time": 132.46831499999945,
                    "velocity": 0.4566929133858268,
                    "duration": 0.13517175000001203
                },
                {
                    "name": "F3",
                    "midi": 53,
                    "time": 132.60348674999946,
                    "velocity": 0.36220472440944884,
                    "duration": 0.13517175000001203
                },
                {
                    "name": "D#3",
                    "midi": 51,
                    "time": 132.73865849999947,
                    "velocity": 0.36220472440944884,
                    "duration": 0.13517175000001203
                },
                {
                    "name": "D3",
                    "midi": 50,
                    "time": 132.8738302499995,
                    "velocity": 0.3543307086614173,
                    "duration": 0.13517175000001203
                },
                {
                    "name": "C3",
                    "midi": 48,
                    "time": 133.0090019999995,
                    "velocity": 0.4645669291338583,
                    "duration": 0.13517175000001203
                },
                {
                    "name": "D3",
                    "midi": 50,
                    "time": 133.1441737499995,
                    "velocity": 0.3543307086614173,
                    "duration": 0.13517175000001203
                },
                {
                    "name": "C3",
                    "midi": 48,
                    "time": 133.27934549999952,
                    "velocity": 0.3543307086614173,
                    "duration": 0.13517175000001203
                },
                {
                    "name": "A#2",
                    "midi": 46,
                    "time": 133.41451724999953,
                    "velocity": 0.3464566929133858,
                    "duration": 0.13517175000001203
                },
                {
                    "name": "G#2",
                    "midi": 44,
                    "time": 133.54968899999955,
                    "velocity": 0.44881889763779526,
                    "duration": 0.13517175000001203
                },
                {
                    "name": "A#2",
                    "midi": 46,
                    "time": 133.68486074999956,
                    "velocity": 0.3464566929133858,
                    "duration": 0.13517175000001203
                },
                {
                    "name": "G#2",
                    "midi": 44,
                    "time": 133.82003249999957,
                    "velocity": 0.33070866141732286,
                    "duration": 0.13517175000001203
                },
                {
                    "name": "G2",
                    "midi": 43,
                    "time": 133.95520424999958,
                    "velocity": 0.33070866141732286,
                    "duration": 0.13517175000001203
                },
                {
                    "name": "F#2",
                    "midi": 42,
                    "time": 134.0903759999996,
                    "velocity": 0.4330708661417323,
                    "duration": 0.13517175000001203
                },
                {
                    "name": "G2",
                    "midi": 43,
                    "time": 134.2255477499996,
                    "velocity": 0.3228346456692913,
                    "duration": 0.13517175000001203
                },
                {
                    "name": "F#2",
                    "midi": 42,
                    "time": 134.36071949999962,
                    "velocity": 0.3228346456692913,
                    "duration": 0.13517175000001203
                },
                {
                    "name": "E2",
                    "midi": 40,
                    "time": 134.49589124999963,
                    "velocity": 0.3228346456692913,
                    "duration": 0.13517175000001203
                },
                {
                    "name": "D2",
                    "midi": 38,
                    "time": 134.63106299999964,
                    "velocity": 0.4409448818897638,
                    "duration": 0.13517175000001203
                },
                {
                    "name": "E2",
                    "midi": 40,
                    "time": 134.76623474999965,
                    "velocity": 0.33070866141732286,
                    "duration": 0.13517175000001203
                },
                {
                    "name": "F#2",
                    "midi": 42,
                    "time": 134.90140649999967,
                    "velocity": 0.33070866141732286,
                    "duration": 0.13517175000001203
                },
                {
                    "name": "D2",
                    "midi": 38,
                    "time": 135.03657824999968,
                    "velocity": 0.33070866141732286,
                    "duration": 0.13517175000001203
                },
                {
                    "name": "G2",
                    "midi": 43,
                    "time": 135.1717499999997,
                    "velocity": 0.4330708661417323,
                    "duration": 0.13517175000001203
                },
                {
                    "name": "A2",
                    "midi": 45,
                    "time": 135.3069217499997,
                    "velocity": 0.33070866141732286,
                    "duration": 0.13517175000001203
                },
                {
                    "name": "A#2",
                    "midi": 46,
                    "time": 135.44209349999971,
                    "velocity": 0.3228346456692913,
                    "duration": 0.13517175000001203
                },
                {
                    "name": "G2",
                    "midi": 43,
                    "time": 135.57726524999973,
                    "velocity": 0.3228346456692913,
                    "duration": 0.13517175000001203
                },
                {
                    "name": "D3",
                    "midi": 50,
                    "time": 135.71243699999974,
                    "velocity": 0.44881889763779526,
                    "duration": 0.13517175000001203
                },
                {
                    "name": "C3",
                    "midi": 48,
                    "time": 135.84760874999975,
                    "velocity": 0.3543307086614173,
                    "duration": 0.13517175000001203
                },
                {
                    "name": "A#2",
                    "midi": 46,
                    "time": 135.98278049999976,
                    "velocity": 0.3543307086614173,
                    "duration": 0.13517175000001203
                },
                {
                    "name": "A2",
                    "midi": 45,
                    "time": 136.11795224999977,
                    "velocity": 0.3543307086614173,
                    "duration": 0.13517175000001203
                },
                {
                    "name": "G2",
                    "midi": 43,
                    "time": 136.2531239999998,
                    "velocity": 0.47244094488188976,
                    "duration": 0.13517175000001203
                },
                {
                    "name": "A#2",
                    "midi": 46,
                    "time": 136.3882957499998,
                    "velocity": 0.36220472440944884,
                    "duration": 0.13517175000001203
                },
                {
                    "name": "D3",
                    "midi": 50,
                    "time": 136.5234674999998,
                    "velocity": 0.36220472440944884,
                    "duration": 0.13517175000001203
                },
                {
                    "name": "G3",
                    "midi": 55,
                    "time": 136.65863924999982,
                    "velocity": 0.33070866141732286,
                    "duration": 0.13517175000001203
                },
                {
                    "name": "G2",
                    "midi": 43,
                    "time": 136.79381099999983,
                    "velocity": 0.44881889763779526,
                    "duration": 0.5068940625000096
                },
                {
                    "name": "G#4",
                    "midi": 68,
                    "time": 137.87518499999985,
                    "velocity": 0.5275590551181102,
                    "duration": 0.13517175000001203
                },
                {
                    "name": "A#4",
                    "midi": 70,
                    "time": 138.01035674999986,
                    "velocity": 0.36220472440944884,
                    "duration": 0.13517175000001203
                },
                {
                    "name": "G#4",
                    "midi": 68,
                    "time": 138.14552849999987,
                    "velocity": 0.36220472440944884,
                    "duration": 0.13517175000001203
                },
                {
                    "name": "G4",
                    "midi": 67,
                    "time": 138.28070024999988,
                    "velocity": 0.36220472440944884,
                    "duration": 0.13517175000001203
                },
                {
                    "name": "F4",
                    "midi": 65,
                    "time": 138.4158719999999,
                    "velocity": 0.4645669291338583,
                    "duration": 0.13517175000001203
                },
                {
                    "name": "G4",
                    "midi": 67,
                    "time": 138.5510437499999,
                    "velocity": 0.36220472440944884,
                    "duration": 0.13517175000001203
                },
                {
                    "name": "F4",
                    "midi": 65,
                    "time": 138.68621549999992,
                    "velocity": 0.36220472440944884,
                    "duration": 0.13517175000001203
                },
                {
                    "name": "D#4",
                    "midi": 63,
                    "time": 138.82138724999993,
                    "velocity": 0.36220472440944884,
                    "duration": 0.13517175000001203
                },
                {
                    "name": "G3",
                    "midi": 55,
                    "time": 138.95655899999994,
                    "velocity": 0.4409448818897638,
                    "duration": 0.5406869999999913
                },
                {
                    "name": "D4",
                    "midi": 62,
                    "time": 138.95655899999994,
                    "velocity": 0.5275590551181102,
                    "duration": 0.5406869999999913
                },
                {
                    "name": "C4",
                    "midi": 60,
                    "time": 139.49724599999993,
                    "velocity": 0.4409448818897638,
                    "duration": 0.27034349999999563
                },
                {
                    "name": "D#4",
                    "midi": 63,
                    "time": 139.49724599999993,
                    "velocity": 0.5275590551181102,
                    "duration": 0.27034349999999563
                },
                {
                    "name": "D#4",
                    "midi": 63,
                    "time": 141.11930699999994,
                    "velocity": 0.5275590551181102,
                    "duration": 0.13517175000001203
                },
                {
                    "name": "F4",
                    "midi": 65,
                    "time": 141.25447874999995,
                    "velocity": 0.36220472440944884,
                    "duration": 0.13517175000001203
                },
                {
                    "name": "D#4",
                    "midi": 63,
                    "time": 141.38965049999996,
                    "velocity": 0.36220472440944884,
                    "duration": 0.13517175000001203
                },
                {
                    "name": "D4",
                    "midi": 62,
                    "time": 141.52482224999997,
                    "velocity": 0.36220472440944884,
                    "duration": 0.13517175000001203
                },
                {
                    "name": "C4",
                    "midi": 60,
                    "time": 141.65999399999998,
                    "velocity": 0.4645669291338583,
                    "duration": 0.13517175000001203
                },
                {
                    "name": "D4",
                    "midi": 62,
                    "time": 141.79516575,
                    "velocity": 0.36220472440944884,
                    "duration": 0.13517175000001203
                },
                {
                    "name": "C4",
                    "midi": 60,
                    "time": 141.9303375,
                    "velocity": 0.36220472440944884,
                    "duration": 0.13517175000001203
                },
                {
                    "name": "A#3",
                    "midi": 58,
                    "time": 142.06550925000002,
                    "velocity": 0.36220472440944884,
                    "duration": 0.13517175000001203
                },
                {
                    "name": "D3",
                    "midi": 50,
                    "time": 142.20068100000003,
                    "velocity": 0.4409448818897638,
                    "duration": 0.5406869999999913
                },
                {
                    "name": "A3",
                    "midi": 57,
                    "time": 142.20068100000003,
                    "velocity": 0.5275590551181102,
                    "duration": 0.5406869999999913
                },
                {
                    "name": "G3",
                    "midi": 55,
                    "time": 142.74136800000002,
                    "velocity": 0.4409448818897638,
                    "duration": 0.27034349999999563
                },
                {
                    "name": "A#3",
                    "midi": 58,
                    "time": 142.74136800000002,
                    "velocity": 0.5275590551181102,
                    "duration": 0.27034349999999563
                },
                {
                    "name": "D4",
                    "midi": 62,
                    "time": 143.822742,
                    "velocity": 0.4881889763779528,
                    "duration": 0.13517175000001203
                },
                {
                    "name": "D#4",
                    "midi": 63,
                    "time": 143.95791375000002,
                    "velocity": 0.3779527559055118,
                    "duration": 0.13517175000001203
                },
                {
                    "name": "D4",
                    "midi": 62,
                    "time": 144.09308550000003,
                    "velocity": 0.3779527559055118,
                    "duration": 0.13517175000001203
                },
                {
                    "name": "C4",
                    "midi": 60,
                    "time": 144.22825725000004,
                    "velocity": 0.3779527559055118,
                    "duration": 0.13517175000001203
                },
                {
                    "name": "A#3",
                    "midi": 58,
                    "time": 144.36342900000005,
                    "velocity": 0.4881889763779528,
                    "duration": 0.13517175000001203
                },
                {
                    "name": "C4",
                    "midi": 60,
                    "time": 144.49860075000007,
                    "velocity": 0.3779527559055118,
                    "duration": 0.13517175000001203
                },
                {
                    "name": "A#3",
                    "midi": 58,
                    "time": 144.63377250000008,
                    "velocity": 0.3700787401574803,
                    "duration": 0.13517175000001203
                },
                {
                    "name": "A3",
                    "midi": 57,
                    "time": 144.7689442500001,
                    "velocity": 0.3700787401574803,
                    "duration": 0.13517175000001203
                },
                {
                    "name": "G3",
                    "midi": 55,
                    "time": 144.9041160000001,
                    "velocity": 0.49606299212598426,
                    "duration": 0.13517175000001203
                },
                {
                    "name": "A3",
                    "midi": 57,
                    "time": 145.0392877500001,
                    "velocity": 0.36220472440944884,
                    "duration": 0.13517175000001203
                },
                {
                    "name": "G3",
                    "midi": 55,
                    "time": 145.17445950000013,
                    "velocity": 0.36220472440944884,
                    "duration": 0.13517175000001203
                },
                {
                    "name": "F3",
                    "midi": 53,
                    "time": 145.30963125000014,
                    "velocity": 0.36220472440944884,
                    "duration": 0.13517175000001203
                },
                {
                    "name": "D#3",
                    "midi": 51,
                    "time": 145.44480300000015,
                    "velocity": 0.4566929133858268,
                    "duration": 0.13517175000001203
                },
                {
                    "name": "F3",
                    "midi": 53,
                    "time": 145.57997475000016,
                    "velocity": 0.36220472440944884,
                    "duration": 0.13517175000001203
                },
                {
                    "name": "D#3",
                    "midi": 51,
                    "time": 145.71514650000017,
                    "velocity": 0.36220472440944884,
                    "duration": 0.13517175000001203
                },
                {
                    "name": "D3",
                    "midi": 50,
                    "time": 145.85031825000019,
                    "velocity": 0.3543307086614173,
                    "duration": 0.13517175000001203
                },
                {
                    "name": "C3",
                    "midi": 48,
                    "time": 145.9854900000002,
                    "velocity": 0.4645669291338583,
                    "duration": 0.13517175000001203
                },
                {
                    "name": "D3",
                    "midi": 50,
                    "time": 146.1206617500002,
                    "velocity": 0.3543307086614173,
                    "duration": 0.13517175000001203
                },
                {
                    "name": "C3",
                    "midi": 48,
                    "time": 146.25583350000022,
                    "velocity": 0.3543307086614173,
                    "duration": 0.13517175000001203
                },
                {
                    "name": "A#2",
                    "midi": 46,
                    "time": 146.39100525000023,
                    "velocity": 0.3464566929133858,
                    "duration": 0.13517175000001203
                },
                {
                    "name": "G#2",
                    "midi": 44,
                    "time": 146.52617700000025,
                    "velocity": 0.44881889763779526,
                    "duration": 0.13517175000001203
                },
                {
                    "name": "A#2",
                    "midi": 46,
                    "time": 146.66134875000026,
                    "velocity": 0.3464566929133858,
                    "duration": 0.13517175000001203
                },
                {
                    "name": "G#2",
                    "midi": 44,
                    "time": 146.79652050000027,
                    "velocity": 0.33070866141732286,
                    "duration": 0.13517175000001203
                },
                {
                    "name": "G2",
                    "midi": 43,
                    "time": 146.93169225000028,
                    "velocity": 0.33070866141732286,
                    "duration": 0.13517175000001203
                },
                {
                    "name": "F#2",
                    "midi": 42,
                    "time": 147.0668640000003,
                    "velocity": 0.4330708661417323,
                    "duration": 0.13517175000001203
                },
                {
                    "name": "G2",
                    "midi": 43,
                    "time": 147.2020357500003,
                    "velocity": 0.3228346456692913,
                    "duration": 0.13517175000001203
                },
                {
                    "name": "F#2",
                    "midi": 42,
                    "time": 147.33720750000032,
                    "velocity": 0.3228346456692913,
                    "duration": 0.13517175000001203
                },
                {
                    "name": "E2",
                    "midi": 40,
                    "time": 147.47237925000033,
                    "velocity": 0.3228346456692913,
                    "duration": 0.13517175000001203
                },
                {
                    "name": "D2",
                    "midi": 38,
                    "time": 147.60755100000034,
                    "velocity": 0.4409448818897638,
                    "duration": 0.13517175000001203
                },
                {
                    "name": "E2",
                    "midi": 40,
                    "time": 147.74272275000035,
                    "velocity": 0.33070866141732286,
                    "duration": 0.13517175000001203
                },
                {
                    "name": "F#2",
                    "midi": 42,
                    "time": 147.87789450000037,
                    "velocity": 0.33070866141732286,
                    "duration": 0.13517175000001203
                },
                {
                    "name": "D2",
                    "midi": 38,
                    "time": 148.01306625000038,
                    "velocity": 0.33070866141732286,
                    "duration": 0.13517175000001203
                },
                {
                    "name": "G2",
                    "midi": 43,
                    "time": 148.1482380000004,
                    "velocity": 0.4330708661417323,
                    "duration": 0.13517175000001203
                },
                {
                    "name": "A2",
                    "midi": 45,
                    "time": 148.2834097500004,
                    "velocity": 0.33070866141732286,
                    "duration": 0.13517175000001203
                },
                {
                    "name": "A#2",
                    "midi": 46,
                    "time": 148.4185815000004,
                    "velocity": 0.3228346456692913,
                    "duration": 0.13517175000001203
                },
                {
                    "name": "G2",
                    "midi": 43,
                    "time": 148.55375325000043,
                    "velocity": 0.3228346456692913,
                    "duration": 0.13517175000001203
                },
                {
                    "name": "D3",
                    "midi": 50,
                    "time": 148.68892500000044,
                    "velocity": 0.44881889763779526,
                    "duration": 0.13517175000001203
                },
                {
                    "name": "C3",
                    "midi": 48,
                    "time": 148.82409675000045,
                    "velocity": 0.3543307086614173,
                    "duration": 0.13517175000001203
                },
                {
                    "name": "A#2",
                    "midi": 46,
                    "time": 148.95926850000046,
                    "velocity": 0.3543307086614173,
                    "duration": 0.13517175000001203
                },
                {
                    "name": "A2",
                    "midi": 45,
                    "time": 149.09444025000047,
                    "velocity": 0.3543307086614173,
                    "duration": 0.13517175000001203
                },
                {
                    "name": "G2",
                    "midi": 43,
                    "time": 149.2296120000005,
                    "velocity": 0.47244094488188976,
                    "duration": 0.13517175000001203
                },
                {
                    "name": "A#2",
                    "midi": 46,
                    "time": 149.3647837500005,
                    "velocity": 0.36220472440944884,
                    "duration": 0.13517175000001203
                },
                {
                    "name": "D3",
                    "midi": 50,
                    "time": 149.4999555000005,
                    "velocity": 0.36220472440944884,
                    "duration": 0.13517175000001203
                },
                {
                    "name": "G3",
                    "midi": 55,
                    "time": 149.63512725000052,
                    "velocity": 0.33070866141732286,
                    "duration": 0.13517175000001203
                },
                {
                    "name": "G2",
                    "midi": 43,
                    "time": 149.77029900000053,
                    "velocity": 0.44881889763779526,
                    "duration": 0.5068940625000096
                },
                {
                    "name": "A#2",
                    "midi": 46,
                    "time": 150.85167300000055,
                    "velocity": 0.31496062992125984,
                    "duration": 0.13517175000001203
                },
                {
                    "name": "A#3",
                    "midi": 58,
                    "time": 151.12201650000057,
                    "velocity": 0.2283464566929134,
                    "duration": 0.27034349999999563
                },
                {
                    "name": "D4",
                    "midi": 62,
                    "time": 151.39236000000056,
                    "velocity": 0.2677165354330709,
                    "duration": 0.27034349999999563
                },
                {
                    "name": "A#3",
                    "midi": 58,
                    "time": 151.66270350000056,
                    "velocity": 0.2283464566929134,
                    "duration": 0.27034349999999563
                },
                {
                    "name": "D#4",
                    "midi": 63,
                    "time": 151.93304700000056,
                    "velocity": 0.2677165354330709,
                    "duration": 0.27034349999999563
                },
                {
                    "name": "C4",
                    "midi": 60,
                    "time": 152.20339050000055,
                    "velocity": 0.2440944881889764,
                    "duration": 0.27034349999999563
                },
                {
                    "name": "D4",
                    "midi": 62,
                    "time": 152.47373400000055,
                    "velocity": 0.31496062992125984,
                    "duration": 0.27034349999999563
                },
                {
                    "name": "C#4",
                    "midi": 61,
                    "time": 152.74407750000054,
                    "velocity": 0.23622047244094488,
                    "duration": 0.27034349999999563
                },
                {
                    "name": "D4",
                    "midi": 62,
                    "time": 153.01442100000054,
                    "velocity": 0.2677165354330709,
                    "duration": 0.27034349999999563
                },
                {
                    "name": "A#3",
                    "midi": 58,
                    "time": 153.28476450000053,
                    "velocity": 0.23622047244094488,
                    "duration": 0.27034349999999563
                },
                {
                    "name": "D#4",
                    "midi": 63,
                    "time": 153.55510800000053,
                    "velocity": 0.2677165354330709,
                    "duration": 0.27034349999999563
                },
                {
                    "name": "C4",
                    "midi": 60,
                    "time": 153.82545150000053,
                    "velocity": 0.2283464566929134,
                    "duration": 0.27034349999999563
                },
                {
                    "name": "D4",
                    "midi": 62,
                    "time": 154.09579500000052,
                    "velocity": 0.31496062992125984,
                    "duration": 0.27034349999999563
                },
                {
                    "name": "C#4",
                    "midi": 61,
                    "time": 154.36613850000052,
                    "velocity": 0.23622047244094488,
                    "duration": 0.27034349999999563
                },
                {
                    "name": "D4",
                    "midi": 62,
                    "time": 154.6364820000005,
                    "velocity": 0.2677165354330709,
                    "duration": 0.27034349999999563
                },
                {
                    "name": "A3",
                    "midi": 57,
                    "time": 154.9068255000005,
                    "velocity": 0.23622047244094488,
                    "duration": 0.27034349999999563
                },
                {
                    "name": "A#3",
                    "midi": 58,
                    "time": 155.1771690000005,
                    "velocity": 0.2677165354330709,
                    "duration": 0.27034349999999563
                },
                {
                    "name": "G3",
                    "midi": 55,
                    "time": 155.4475125000005,
                    "velocity": 0.23622047244094488,
                    "duration": 0.25907918749999226
                },
                {
                    "name": "F3",
                    "midi": 53,
                    "time": 155.7178560000005,
                    "velocity": 0.31496062992125984,
                    "duration": 0.8110304999999869
                },
                {
                    "name": "F4",
                    "midi": 65,
                    "time": 156.2585430000005,
                    "velocity": 0.2755905511811024,
                    "duration": 0.27034349999999563
                },
                {
                    "name": "F3",
                    "midi": 53,
                    "time": 157.6102605000005,
                    "velocity": 0.28346456692913385,
                    "duration": 1.6220609999999738
                },
                {
                    "name": "A3",
                    "midi": 57,
                    "time": 157.8806040000005,
                    "velocity": 0.31496062992125984,
                    "duration": 0.27034349999999563
                },
                {
                    "name": "C4",
                    "midi": 60,
                    "time": 158.15094750000048,
                    "velocity": 0.29133858267716534,
                    "duration": 0.27034349999999563
                },
                {
                    "name": "D#4",
                    "midi": 63,
                    "time": 158.42129100000048,
                    "velocity": 0.31496062992125984,
                    "duration": 0.8110304999999869
                },
                {
                    "name": "F3",
                    "midi": 53,
                    "time": 159.23232150000047,
                    "velocity": 0.33070866141732286,
                    "duration": 1.8924044999999978
                },
                {
                    "name": "C4",
                    "midi": 60,
                    "time": 159.50266500000046,
                    "velocity": 0.3779527559055118,
                    "duration": 0.27034349999999563
                },
                {
                    "name": "D#4",
                    "midi": 63,
                    "time": 159.77300850000046,
                    "velocity": 0.3228346456692913,
                    "duration": 0.27034349999999563
                },
                {
                    "name": "F#4",
                    "midi": 66,
                    "time": 160.04335200000045,
                    "velocity": 0.4330708661417323,
                    "duration": 1.081374000000011
                },
                {
                    "name": "F4",
                    "midi": 65,
                    "time": 161.12472600000046,
                    "velocity": 0.2992125984251969,
                    "duration": 0.5406869999999913
                },
                {
                    "name": "F3",
                    "midi": 53,
                    "time": 161.12472600000046,
                    "velocity": 0.2992125984251969,
                    "duration": 0.5406869999999913
                },
                {
                    "name": "F3",
                    "midi": 53,
                    "time": 161.66541300000046,
                    "velocity": 0.25196850393700787,
                    "duration": 0.5406869999999913
                },
                {
                    "name": "D#4",
                    "midi": 63,
                    "time": 161.66541300000046,
                    "velocity": 0.25196850393700787,
                    "duration": 0.5406869999999913
                },
                {
                    "name": "A#3",
                    "midi": 58,
                    "time": 162.20610000000045,
                    "velocity": 0.23622047244094488,
                    "duration": 0.8110304999999869
                },
                {
                    "name": "D#4",
                    "midi": 63,
                    "time": 162.20610000000045,
                    "velocity": 0.28346456692913385,
                    "duration": 0.5406869999999913
                },
                {
                    "name": "D4",
                    "midi": 62,
                    "time": 162.74678700000044,
                    "velocity": 0.25196850393700787,
                    "duration": 0.27034349999999563
                },
                {
                    "name": "F#4",
                    "midi": 66,
                    "time": 163.28747400000043,
                    "velocity": 0.2992125984251969,
                    "duration": 0.13517175000001203
                },
                {
                    "name": "G4",
                    "midi": 67,
                    "time": 163.42264575000044,
                    "velocity": 0.25984251968503935,
                    "duration": 0.13517175000001203
                },
                {
                    "name": "F#4",
                    "midi": 66,
                    "time": 163.55781750000045,
                    "velocity": 0.3228346456692913,
                    "duration": 0.13517175000001203
                },
                {
                    "name": "G4",
                    "midi": 67,
                    "time": 163.69298925000047,
                    "velocity": 0.2992125984251969,
                    "duration": 0.13517175000001203
                },
                {
                    "name": "F#4",
                    "midi": 66,
                    "time": 163.82816100000048,
                    "velocity": 0.3543307086614173,
                    "duration": 0.13517175000001203
                },
                {
                    "name": "G4",
                    "midi": 67,
                    "time": 163.9633327500005,
                    "velocity": 0.30708661417322836,
                    "duration": 0.13517175000001203
                },
                {
                    "name": "F#4",
                    "midi": 66,
                    "time": 164.0985045000005,
                    "velocity": 0.3779527559055118,
                    "duration": 0.13517175000001203
                },
                {
                    "name": "G4",
                    "midi": 67,
                    "time": 164.2336762500005,
                    "velocity": 0.3464566929133858,
                    "duration": 0.13517175000001203
                },
                {
                    "name": "F#4",
                    "midi": 66,
                    "time": 164.36884800000053,
                    "velocity": 0.4094488188976378,
                    "duration": 0.13517175000001203
                },
                {
                    "name": "G4",
                    "midi": 67,
                    "time": 164.50401975000054,
                    "velocity": 0.3464566929133858,
                    "duration": 0.13517175000001203
                },
                {
                    "name": "F#4",
                    "midi": 66,
                    "time": 164.63919150000055,
                    "velocity": 0.4330708661417323,
                    "duration": 0.13517175000001203
                },
                {
                    "name": "G4",
                    "midi": 67,
                    "time": 164.77436325000056,
                    "velocity": 0.4015748031496063,
                    "duration": 0.13517175000001203
                },
                {
                    "name": "F#4",
                    "midi": 66,
                    "time": 164.90953500000057,
                    "velocity": 0.4645669291338583,
                    "duration": 0.13517175000001203
                },
                {
                    "name": "G4",
                    "midi": 67,
                    "time": 165.04470675000059,
                    "velocity": 0.4015748031496063,
                    "duration": 0.13517175000001203
                },
                {
                    "name": "F#4",
                    "midi": 66,
                    "time": 165.1798785000006,
                    "velocity": 0.49606299212598426,
                    "duration": 0.13517175000001203
                },
                {
                    "name": "G4",
                    "midi": 67,
                    "time": 165.3150502500006,
                    "velocity": 0.4566929133858268,
                    "duration": 0.13517175000001203
                },
                {
                    "name": "F#4",
                    "midi": 66,
                    "time": 165.45022200000062,
                    "velocity": 0.5433070866141733,
                    "duration": 0.27034349999999563
                },
                {
                    "name": "D3",
                    "midi": 50,
                    "time": 165.9909090000006,
                    "velocity": 0.4881889763779528,
                    "duration": 0.8110304999999869
                },
                {
                    "name": "D4",
                    "midi": 62,
                    "time": 165.9909090000006,
                    "velocity": 0.5826771653543307,
                    "duration": 0.8110304999999869
                },
                {
                    "name": "D3",
                    "midi": 50,
                    "time": 166.8019395000006,
                    "velocity": 0.36220472440944884,
                    "duration": 0.13517175000001203
                },
                {
                    "name": "D4",
                    "midi": 62,
                    "time": 166.8019395000006,
                    "velocity": 0.4409448818897638,
                    "duration": 0.13517175000001203
                },
                {
                    "name": "D#3",
                    "midi": 51,
                    "time": 167.07228300000062,
                    "velocity": 0.44881889763779526,
                    "duration": 0.27034349999999563
                },
                {
                    "name": "D#4",
                    "midi": 63,
                    "time": 167.07228300000062,
                    "velocity": 0.5354330708661418,
                    "duration": 0.27034349999999563
                },
                {
                    "name": "C3",
                    "midi": 48,
                    "time": 167.47779825000063,
                    "velocity": 0.3543307086614173,
                    "duration": 0.0675858749999918
                },
                {
                    "name": "C4",
                    "midi": 60,
                    "time": 167.47779825000063,
                    "velocity": 0.41732283464566927,
                    "duration": 0.0675858749999918
                },
                {
                    "name": "D3",
                    "midi": 50,
                    "time": 167.61297000000062,
                    "velocity": 0.41732283464566927,
                    "duration": 0.27034349999999563
                },
                {
                    "name": "D4",
                    "midi": 62,
                    "time": 167.61297000000062,
                    "velocity": 0.49606299212598426,
                    "duration": 0.27034349999999563
                },
                {
                    "name": "D2",
                    "midi": 38,
                    "time": 168.1536570000006,
                    "velocity": 0.4015748031496063,
                    "duration": 0.27034349999999563
                },
                {
                    "name": "D3",
                    "midi": 50,
                    "time": 168.1536570000006,
                    "velocity": 0.48031496062992124,
                    "duration": 0.27034349999999563
                },
                {
                    "name": "G2",
                    "midi": 43,
                    "time": 168.6943440000006,
                    "velocity": 0.4015748031496063,
                    "duration": 0.8110304999999869
                },
                {
                    "name": "G3",
                    "midi": 55,
                    "time": 168.6943440000006,
                    "velocity": 0.48031496062992124,
                    "duration": 0.8110304999999869
                },
                {
                    "name": "D3",
                    "midi": 50,
                    "time": 169.77571800000058,
                    "velocity": 0.1968503937007874,
                    "duration": 0.13629818124999815
                },
                {
                    "name": "D#3",
                    "midi": 51,
                    "time": 169.9108897500006,
                    "velocity": 0.1732283464566929,
                    "duration": 0.13629818124996973
                },
                {
                    "name": "D3",
                    "midi": 50,
                    "time": 170.04606150000058,
                    "velocity": 0.2125984251968504,
                    "duration": 0.13629818124996973
                },
                {
                    "name": "D#3",
                    "midi": 51,
                    "time": 170.18123325000056,
                    "velocity": 0.1889763779527559,
                    "duration": 0.13629818124996973
                },
                {
                    "name": "D3",
                    "midi": 50,
                    "time": 170.31640500000054,
                    "velocity": 0.2283464566929134,
                    "duration": 0.13629818124996973
                },
                {
                    "name": "D#3",
                    "midi": 51,
                    "time": 170.45157675000053,
                    "velocity": 0.1968503937007874,
                    "duration": 0.13629818124996973
                },
                {
                    "name": "D3",
                    "midi": 50,
                    "time": 170.5867485000005,
                    "velocity": 0.25196850393700787,
                    "duration": 0.13629818124996973
                },
                {
                    "name": "D#3",
                    "midi": 51,
                    "time": 170.7219202500005,
                    "velocity": 0.2283464566929134,
                    "duration": 0.13629818124996973
                },
                {
                    "name": "D3",
                    "midi": 50,
                    "time": 170.85709200000048,
                    "velocity": 0.2677165354330709,
                    "duration": 0.13629818124996973
                },
                {
                    "name": "D#3",
                    "midi": 51,
                    "time": 170.99226375000046,
                    "velocity": 0.23622047244094488,
                    "duration": 0.13629818124996973
                },
                {
                    "name": "D3",
                    "midi": 50,
                    "time": 171.12743550000044,
                    "velocity": 0.29133858267716534,
                    "duration": 0.13629818124996973
                },
                {
                    "name": "D#3",
                    "midi": 51,
                    "time": 171.26260725000043,
                    "velocity": 0.2677165354330709,
                    "duration": 0.13629818124996973
                },
                {
                    "name": "D3",
                    "midi": 50,
                    "time": 171.3977790000004,
                    "velocity": 0.30708661417322836,
                    "duration": 0.13629818124996973
                },
                {
                    "name": "D#3",
                    "midi": 51,
                    "time": 171.5329507500004,
                    "velocity": 0.2677165354330709,
                    "duration": 0.13629818124996973
                },
                {
                    "name": "D3",
                    "midi": 50,
                    "time": 171.66812250000038,
                    "velocity": 0.3228346456692913,
                    "duration": 0.13629818124996973
                },
                {
                    "name": "D#3",
                    "midi": 51,
                    "time": 171.80329425000036,
                    "velocity": 0.2992125984251969,
                    "duration": 0.13629818124996973
                },
                {
                    "name": "D3",
                    "midi": 50,
                    "time": 171.93846600000035,
                    "velocity": 0.4251968503937008,
                    "duration": 0.27034349999999563
                },
                {
                    "name": "D3",
                    "midi": 50,
                    "time": 172.47915300000034,
                    "velocity": 0.41732283464566927,
                    "duration": 0.8110304999999869
                },
                {
                    "name": "F3",
                    "midi": 53,
                    "time": 172.47915300000034,
                    "velocity": 0.5039370078740157,
                    "duration": 0.8110304999999869
                },
                {
                    "name": "D#3",
                    "midi": 51,
                    "time": 173.29018350000032,
                    "velocity": 0.28346456692913385,
                    "duration": 0.27034349999999563
                },
                {
                    "name": "G3",
                    "midi": 55,
                    "time": 173.29018350000032,
                    "velocity": 0.33858267716535434,
                    "duration": 0.27034349999999563
                },
                {
                    "name": "B2",
                    "midi": 47,
                    "time": 173.56052700000032,
                    "velocity": 0.33858267716535434,
                    "duration": 0.40551525000000765
                },
                {
                    "name": "D3",
                    "midi": 50,
                    "time": 173.56052700000032,
                    "velocity": 0.4015748031496063,
                    "duration": 0.40551525000000765
                },
                {
                    "name": "C3",
                    "midi": 48,
                    "time": 173.96604225000033,
                    "velocity": 0.25196850393700787,
                    "duration": 0.13517175000001203
                },
                {
                    "name": "D#3",
                    "midi": 51,
                    "time": 173.96604225000033,
                    "velocity": 0.30708661417322836,
                    "duration": 0.13517175000001203
                },
                {
                    "name": "D3",
                    "midi": 50,
                    "time": 174.10121400000034,
                    "velocity": 0.2992125984251969,
                    "duration": 0.5406869999999913
                },
                {
                    "name": "F3",
                    "midi": 53,
                    "time": 174.10121400000034,
                    "velocity": 0.3543307086614173,
                    "duration": 0.5406869999999913
                },
                {
                    "name": "D#3",
                    "midi": 51,
                    "time": 174.64190100000033,
                    "velocity": 0.2677165354330709,
                    "duration": 0.5406869999999913
                },
                {
                    "name": "G3",
                    "midi": 55,
                    "time": 174.64190100000033,
                    "velocity": 0.3228346456692913,
                    "duration": 0.5406869999999913
                },
                {
                    "name": "F3",
                    "midi": 53,
                    "time": 175.18258800000032,
                    "velocity": 0.28346456692913385,
                    "duration": 0.5406869999999913
                },
                {
                    "name": "F2",
                    "midi": 41,
                    "time": 175.7232750000003,
                    "velocity": 0.23622047244094488,
                    "duration": 0.27034349999999563
                },
                {
                    "name": "A#2",
                    "midi": 46,
                    "time": 176.8046490000003,
                    "velocity": 0.31496062992125984,
                    "duration": 0.13517175000001203
                },
                {
                    "name": "A#3",
                    "midi": 58,
                    "time": 177.07499250000032,
                    "velocity": 0.2283464566929134,
                    "duration": 0.27034349999999563
                },
                {
                    "name": "D4",
                    "midi": 62,
                    "time": 177.34533600000032,
                    "velocity": 0.2677165354330709,
                    "duration": 0.27034349999999563
                },
                {
                    "name": "A#3",
                    "midi": 58,
                    "time": 177.6156795000003,
                    "velocity": 0.2283464566929134,
                    "duration": 0.27034349999999563
                },
                {
                    "name": "D#4",
                    "midi": 63,
                    "time": 177.8860230000003,
                    "velocity": 0.2677165354330709,
                    "duration": 0.27034349999999563
                },
                {
                    "name": "C4",
                    "midi": 60,
                    "time": 178.1563665000003,
                    "velocity": 0.2440944881889764,
                    "duration": 0.27034349999999563
                },
                {
                    "name": "D4",
                    "midi": 62,
                    "time": 178.4267100000003,
                    "velocity": 0.31496062992125984,
                    "duration": 0.27034349999999563
                },
                {
                    "name": "C#4",
                    "midi": 61,
                    "time": 178.6970535000003,
                    "velocity": 0.23622047244094488,
                    "duration": 0.27034349999999563
                },
                {
                    "name": "D4",
                    "midi": 62,
                    "time": 178.9673970000003,
                    "velocity": 0.2677165354330709,
                    "duration": 0.27034349999999563
                },
                {
                    "name": "A#3",
                    "midi": 58,
                    "time": 179.23774050000029,
                    "velocity": 0.23622047244094488,
                    "duration": 0.27034349999999563
                },
                {
                    "name": "D#4",
                    "midi": 63,
                    "time": 179.50808400000028,
                    "velocity": 0.2677165354330709,
                    "duration": 0.27034349999999563
                },
                {
                    "name": "C4",
                    "midi": 60,
                    "time": 179.77842750000028,
                    "velocity": 0.2283464566929134,
                    "duration": 0.27034349999999563
                },
                {
                    "name": "D4",
                    "midi": 62,
                    "time": 180.04877100000027,
                    "velocity": 0.31496062992125984,
                    "duration": 0.27034349999999563
                },
                {
                    "name": "C#4",
                    "midi": 61,
                    "time": 180.31911450000027,
                    "velocity": 0.23622047244094488,
                    "duration": 0.27034349999999563
                },
                {
                    "name": "D4",
                    "midi": 62,
                    "time": 180.58945800000026,
                    "velocity": 0.2677165354330709,
                    "duration": 0.27034349999999563
                },
                {
                    "name": "A3",
                    "midi": 57,
                    "time": 180.85980150000026,
                    "velocity": 0.23622047244094488,
                    "duration": 0.27034349999999563
                },
                {
                    "name": "A#3",
                    "midi": 58,
                    "time": 181.13014500000025,
                    "velocity": 0.2677165354330709,
                    "duration": 0.27034349999999563
                },
                {
                    "name": "G3",
                    "midi": 55,
                    "time": 181.40048850000025,
                    "velocity": 0.23622047244094488,
                    "duration": 0.25907918749999226
                },
                {
                    "name": "F3",
                    "midi": 53,
                    "time": 181.67083200000025,
                    "velocity": 0.31496062992125984,
                    "duration": 0.8110304999999869
                },
                {
                    "name": "F4",
                    "midi": 65,
                    "time": 182.21151900000024,
                    "velocity": 0.2755905511811024,
                    "duration": 0.27034349999999563
                },
                {
                    "name": "F2",
                    "midi": 41,
                    "time": 183.42806475000023,
                    "velocity": 0.29133858267716534,
                    "duration": 0.13517175000001203
                },
                {
                    "name": "A2",
                    "midi": 45,
                    "time": 183.56323650000024,
                    "velocity": 0.2992125984251969,
                    "duration": 0.13517175000001203
                },
                {
                    "name": "C3",
                    "midi": 48,
                    "time": 183.69840825000026,
                    "velocity": 0.30708661417322836,
                    "duration": 0.13517175000001203
                },
                {
                    "name": "F3",
                    "midi": 53,
                    "time": 183.83358000000027,
                    "velocity": 0.31496062992125984,
                    "duration": 0.13517175000001203
                },
                {
                    "name": "A3",
                    "midi": 57,
                    "time": 183.96875175000028,
                    "velocity": 0.3228346456692913,
                    "duration": 0.13517175000001203
                },
                {
                    "name": "C4",
                    "midi": 60,
                    "time": 184.1039235000003,
                    "velocity": 0.33070866141732286,
                    "duration": 0.13517175000001203
                },
                {
                    "name": "D4",
                    "midi": 62,
                    "time": 184.2390952500003,
                    "velocity": 0.33858267716535434,
                    "duration": 0.13517175000001203
                },
                {
                    "name": "D#4",
                    "midi": 63,
                    "time": 184.37426700000032,
                    "velocity": 0.3779527559055118,
                    "duration": 0.6758587500000033
                },
                {
                    "name": "F2",
                    "midi": 41,
                    "time": 185.05012575000032,
                    "velocity": 0.29133858267716534,
                    "duration": 0.13517175000001203
                },
                {
                    "name": "A2",
                    "midi": 45,
                    "time": 185.18529750000033,
                    "velocity": 0.3228346456692913,
                    "duration": 0.13517175000001203
                },
                {
                    "name": "C3",
                    "midi": 48,
                    "time": 185.32046925000034,
                    "velocity": 0.33858267716535434,
                    "duration": 0.13517175000001203
                },
                {
                    "name": "F3",
                    "midi": 53,
                    "time": 185.45564100000036,
                    "velocity": 0.3464566929133858,
                    "duration": 0.13517175000001203
                },
                {
                    "name": "A3",
                    "midi": 57,
                    "time": 185.59081275000037,
                    "velocity": 0.36220472440944884,
                    "duration": 0.13517175000001203
                },
                {
                    "name": "C4",
                    "midi": 60,
                    "time": 185.72598450000038,
                    "velocity": 0.3779527559055118,
                    "duration": 0.13517175000001203
                },
                {
                    "name": "D#4",
                    "midi": 63,
                    "time": 185.8611562500004,
                    "velocity": 0.3858267716535433,
                    "duration": 0.13517175000001203
                },
                {
                    "name": "F#4",
                    "midi": 66,
                    "time": 185.9963280000004,
                    "velocity": 0.4330708661417323,
                    "duration": 1.081374000000011
                },
                {
                    "name": "F4",
                    "midi": 65,
                    "time": 187.07770200000041,
                    "velocity": 0.2992125984251969,
                    "duration": 0.5406869999999913
                },
                {
                    "name": "F3",
                    "midi": 53,
                    "time": 187.07770200000041,
                    "velocity": 0.2992125984251969,
                    "duration": 0.5406869999999913
                },
                {
                    "name": "F3",
                    "midi": 53,
                    "time": 187.6183890000004,
                    "velocity": 0.25196850393700787,
                    "duration": 0.5406869999999913
                },
                {
                    "name": "D#4",
                    "midi": 63,
                    "time": 187.6183890000004,
                    "velocity": 0.25196850393700787,
                    "duration": 0.5406869999999913
                },
                {
                    "name": "A#2",
                    "midi": 46,
                    "time": 188.1590760000004,
                    "velocity": 0.31496062992125984,
                    "duration": 0.13517175000001203
                },
                {
                    "name": "A#3",
                    "midi": 58,
                    "time": 188.42941950000042,
                    "velocity": 0.2283464566929134,
                    "duration": 0.27034349999999563
                },
                {
                    "name": "D4",
                    "midi": 62,
                    "time": 188.69976300000042,
                    "velocity": 0.2677165354330709,
                    "duration": 0.27034349999999563
                },
                {
                    "name": "A#3",
                    "midi": 58,
                    "time": 188.9701065000004,
                    "velocity": 0.2283464566929134,
                    "duration": 0.27034349999999563
                },
                {
                    "name": "D#4",
                    "midi": 63,
                    "time": 189.2404500000004,
                    "velocity": 0.2677165354330709,
                    "duration": 0.27034349999999563
                },
                {
                    "name": "A#3",
                    "midi": 58,
                    "time": 189.5107935000004,
                    "velocity": 0.2440944881889764,
                    "duration": 0.27034349999999563
                },
                {
                    "name": "D4",
                    "midi": 62,
                    "time": 189.7811370000004,
                    "velocity": 0.31496062992125984,
                    "duration": 0.27034349999999563
                },
                {
                    "name": "C#4",
                    "midi": 61,
                    "time": 190.0514805000004,
                    "velocity": 0.23622047244094488,
                    "duration": 0.27034349999999563
                },
                {
                    "name": "D4",
                    "midi": 62,
                    "time": 190.3218240000004,
                    "velocity": 0.2677165354330709,
                    "duration": 0.27034349999999563
                },
                {
                    "name": "A#3",
                    "midi": 58,
                    "time": 190.5921675000004,
                    "velocity": 0.23622047244094488,
                    "duration": 0.27034349999999563
                },
                {
                    "name": "C4",
                    "midi": 60,
                    "time": 190.86251100000038,
                    "velocity": 0.2677165354330709,
                    "duration": 0.27034349999999563
                },
                {
                    "name": "F3",
                    "midi": 53,
                    "time": 191.13285450000038,
                    "velocity": 0.2283464566929134,
                    "duration": 0.27034349999999563
                },
                {
                    "name": "A#3",
                    "midi": 58,
                    "time": 191.40319800000037,
                    "velocity": 0.31496062992125984,
                    "duration": 0.27034349999999563
                },
                {
                    "name": "A#2",
                    "midi": 46,
                    "time": 191.67354150000037,
                    "velocity": 0.23622047244094488,
                    "duration": 0.27034349999999563
                },
                {
                    "name": "D3",
                    "midi": 50,
                    "time": 191.94388500000036,
                    "velocity": 0.2677165354330709,
                    "duration": 0.27034349999999563
                },
                {
                    "name": "A#2",
                    "midi": 46,
                    "time": 192.21422850000036,
                    "velocity": 0.23622047244094488,
                    "duration": 0.27034349999999563
                },
                {
                    "name": "D#3",
                    "midi": 51,
                    "time": 192.48457200000036,
                    "velocity": 0.2677165354330709,
                    "duration": 0.27034349999999563
                },
                {
                    "name": "A#2",
                    "midi": 46,
                    "time": 192.75491550000035,
                    "velocity": 0.2283464566929134,
                    "duration": 0.27034349999999563
                },
                {
                    "name": "D3",
                    "midi": 50,
                    "time": 193.02525900000035,
                    "velocity": 0.31496062992125984,
                    "duration": 0.27034349999999563
                },
                {
                    "name": "C#3",
                    "midi": 49,
                    "time": 193.29560250000034,
                    "velocity": 0.23622047244094488,
                    "duration": 0.27034349999999563
                },
                {
                    "name": "D3",
                    "midi": 50,
                    "time": 193.56594600000034,
                    "velocity": 0.2677165354330709,
                    "duration": 0.27034349999999563
                },
                {
                    "name": "A#2",
                    "midi": 46,
                    "time": 193.83628950000033,
                    "velocity": 0.23622047244094488,
                    "duration": 0.27034349999999563
                },
                {
                    "name": "C3",
                    "midi": 48,
                    "time": 194.10663300000033,
                    "velocity": 0.2677165354330709,
                    "duration": 0.27034349999999563
                },
                {
                    "name": "F2",
                    "midi": 41,
                    "time": 194.37697650000032,
                    "velocity": 0.2283464566929134,
                    "duration": 0.27034349999999563
                },
                {
                    "name": "A#2",
                    "midi": 46,
                    "time": 194.64732000000032,
                    "velocity": 0.31496062992125984,
                    "duration": 0.27034349999999563
                },
                {
                    "name": "D3",
                    "midi": 50,
                    "time": 194.91766350000032,
                    "velocity": 0.23622047244094488,
                    "duration": 0.27034349999999563
                },
                {
                    "name": "C3",
                    "midi": 48,
                    "time": 195.1880070000003,
                    "velocity": 0.2755905511811024,
                    "duration": 0.27034349999999563
                },
                {
                    "name": "F2",
                    "midi": 41,
                    "time": 195.4583505000003,
                    "velocity": 0.2440944881889764,
                    "duration": 0.27034349999999563
                },
                {
                    "name": "A#2",
                    "midi": 46,
                    "time": 195.7286940000003,
                    "velocity": 0.28346456692913385,
                    "duration": 0.27034349999999563
                },
                {
                    "name": "D3",
                    "midi": 50,
                    "time": 195.9990375000003,
                    "velocity": 0.2440944881889764,
                    "duration": 0.27034349999999563
                },
                {
                    "name": "C3",
                    "midi": 48,
                    "time": 196.2693810000003,
                    "velocity": 0.3464566929133858,
                    "duration": 0.27034349999999563
                },
                {
                    "name": "F2",
                    "midi": 41,
                    "time": 196.5397245000003,
                    "velocity": 0.25984251968503935,
                    "duration": 0.27034349999999563
                },
                {
                    "name": "A#2",
                    "midi": 46,
                    "time": 196.81006800000029,
                    "velocity": 0.3543307086614173,
                    "duration": 0.13517175000001203
                },
                {
                    "name": "D3",
                    "midi": 50,
                    "time": 196.9452397500003,
                    "velocity": 0.29133858267716534,
                    "duration": 0.13517175000001203
                },
                {
                    "name": "F2",
                    "midi": 41,
                    "time": 197.0804115000003,
                    "velocity": 0.36220472440944884,
                    "duration": 0.13517175000001203
                },
                {
                    "name": "C3",
                    "midi": 48,
                    "time": 197.21558325000032,
                    "velocity": 0.30708661417322836,
                    "duration": 0.13517175000001203
                },
                {
                    "name": "A#2",
                    "midi": 46,
                    "time": 197.35075500000033,
                    "velocity": 0.3700787401574803,
                    "duration": 0.13517175000001203
                },
                {
                    "name": "D3",
                    "midi": 50,
                    "time": 197.48592675000035,
                    "velocity": 0.3228346456692913,
                    "duration": 0.13517175000001203
                },
                {
                    "name": "F2",
                    "midi": 41,
                    "time": 197.62109850000036,
                    "velocity": 0.3858267716535433,
                    "duration": 0.13517175000001203
                },
                {
                    "name": "C3",
                    "midi": 48,
                    "time": 197.75627025000037,
                    "velocity": 0.33858267716535434,
                    "duration": 0.13517175000001203
                },
                {
                    "name": "A#2",
                    "midi": 46,
                    "time": 197.89144200000038,
                    "velocity": 0.1889763779527559,
                    "duration": 0.13517175000001203
                },
                {
                    "name": "D3",
                    "midi": 50,
                    "time": 197.89144200000038,
                    "velocity": 0.23622047244094488,
                    "duration": 0.13517175000001203
                },
                {
                    "name": "A#1",
                    "midi": 34,
                    "time": 198.4321290000004,
                    "velocity": 0.1889763779527559,
                    "duration": 0.13517175000001203
                },
                {
                    "name": "A#2",
                    "midi": 46,
                    "time": 198.4321290000004,
                    "velocity": 0.23622047244094488,
                    "duration": 0.13517175000001203
                }
            ],
            "controlChanges": {},
            "id": 2,
            "name": "Piano left",
            "instrumentNumber": 0,
            "instrument": "acoustic grand piano",
            "instrumentFamily": "piano",
            "channelNumber": 0,
            "isPercussion": false
        },
        {
            "startTime": 0,
            "duration": 0,
            "length": 0,
            "notes": [],
            "controlChanges": {
                "64": [
                    {
                        "number": 64,
                        "time": 1.68626758125,
                        "value": 1
                    },
                    {
                        "number": 64,
                        "time": 2.1751387437500003,
                        "value": 0
                    },
                    {
                        "number": 64,
                        "time": 2.2303338750000004,
                        "value": 1
                    },
                    {
                        "number": 64,
                        "time": 2.7203314687500004,
                        "value": 0
                    },
                    {
                        "number": 64,
                        "time": 3.8523948750000008,
                        "value": 1
                    },
                    {
                        "number": 64,
                        "time": 4.34689819375,
                        "value": 0
                    },
                    {
                        "number": 64,
                        "time": 6.488244,
                        "value": 1
                    },
                    {
                        "number": 64,
                        "time": 7.0469539,
                        "value": 0
                    },
                    {
                        "number": 64,
                        "time": 8.17451158125,
                        "value": 1
                    },
                    {
                        "number": 64,
                        "time": 9.1984375875,
                        "value": 0
                    },
                    {
                        "number": 64,
                        "time": 9.79206685625,
                        "value": 1
                    },
                    {
                        "number": 64,
                        "time": 10.8295100375,
                        "value": 0
                    },
                    {
                        "number": 64,
                        "time": 13.088004693750001,
                        "value": 1
                    },
                    {
                        "number": 64,
                        "time": 13.53181860625,
                        "value": 0
                    },
                    {
                        "number": 64,
                        "time": 13.66023176875,
                        "value": 1
                    },
                    {
                        "number": 64,
                        "time": 13.94634530625,
                        "value": 0
                    },
                    {
                        "number": 64,
                        "time": 14.66275558125,
                        "value": 1
                    },
                    {
                        "number": 64,
                        "time": 15.15162674375,
                        "value": 0
                    },
                    {
                        "number": 64,
                        "time": 15.206821875000001,
                        "value": 1
                    },
                    {
                        "number": 64,
                        "time": 15.69681946875,
                        "value": 0
                    },
                    {
                        "number": 64,
                        "time": 16.828882875,
                        "value": 1
                    },
                    {
                        "number": 64,
                        "time": 17.32338619375,
                        "value": 0
                    },
                    {
                        "number": 64,
                        "time": 19.464732,
                        "value": 1
                    },
                    {
                        "number": 64,
                        "time": 20.0234419,
                        "value": 0
                    },
                    {
                        "number": 64,
                        "time": 21.15099958125,
                        "value": 1
                    },
                    {
                        "number": 64,
                        "time": 22.174925587500002,
                        "value": 0
                    },
                    {
                        "number": 64,
                        "time": 22.768554856250002,
                        "value": 1
                    },
                    {
                        "number": 64,
                        "time": 23.805998037500004,
                        "value": 0
                    },
                    {
                        "number": 64,
                        "time": 26.064492693750005,
                        "value": 1
                    },
                    {
                        "number": 64,
                        "time": 26.508306606250006,
                        "value": 0
                    },
                    {
                        "number": 64,
                        "time": 26.636719768750005,
                        "value": 1
                    },
                    {
                        "number": 64,
                        "time": 26.922833306250006,
                        "value": 0
                    },
                    {
                        "number": 64,
                        "time": 27.118832343750004,
                        "value": 1
                    },
                    {
                        "number": 64,
                        "time": 27.582922018750004,
                        "value": 0
                    },
                    {
                        "number": 64,
                        "time": 27.631358562500004,
                        "value": 1
                    },
                    {
                        "number": 64,
                        "time": 28.140505487500004,
                        "value": 0
                    },
                    {
                        "number": 64,
                        "time": 28.195700618750003,
                        "value": 1
                    },
                    {
                        "number": 64,
                        "time": 28.674433900000004,
                        "value": 0
                    },
                    {
                        "number": 64,
                        "time": 28.740893343750002,
                        "value": 1
                    },
                    {
                        "number": 64,
                        "time": 29.197098000000004,
                        "value": 0
                    },
                    {
                        "number": 64,
                        "time": 29.857186712500003,
                        "value": 1
                    },
                    {
                        "number": 64,
                        "time": 30.5668384,
                        "value": 0
                    },
                    {
                        "number": 64,
                        "time": 30.886744875,
                        "value": 1
                    },
                    {
                        "number": 64,
                        "time": 31.089502500000002,
                        "value": 0
                    },
                    {
                        "number": 64,
                        "time": 31.4161675625,
                        "value": 1
                    },
                    {
                        "number": 64,
                        "time": 31.68989035625,
                        "value": 0
                    },
                    {
                        "number": 64,
                        "time": 32.60004680625,
                        "value": 1
                    },
                    {
                        "number": 64,
                        "time": 33.00105633125,
                        "value": 0
                    },
                    {
                        "number": 64,
                        "time": 33.59581203125,
                        "value": 1
                    },
                    {
                        "number": 64,
                        "time": 34.07229245,
                        "value": 0
                    },
                    {
                        "number": 64,
                        "time": 34.11847613125,
                        "value": 1
                    },
                    {
                        "number": 64,
                        "time": 34.61410588125,
                        "value": 0
                    },
                    {
                        "number": 64,
                        "time": 34.67042744375,
                        "value": 1
                    },
                    {
                        "number": 64,
                        "time": 35.16605719375,
                        "value": 0
                    },
                    {
                        "number": 64,
                        "time": 35.225758049999996,
                        "value": 1
                    },
                    {
                        "number": 64,
                        "time": 35.685342,
                        "value": 0
                    },
                    {
                        "number": 64,
                        "time": 36.3454307125,
                        "value": 1
                    },
                    {
                        "number": 64,
                        "time": 37.055082399999996,
                        "value": 0
                    },
                    {
                        "number": 64,
                        "time": 37.374988875,
                        "value": 1
                    },
                    {
                        "number": 64,
                        "time": 37.72080326875,
                        "value": 0
                    },
                    {
                        "number": 64,
                        "time": 37.975376731249995,
                        "value": 1
                    },
                    {
                        "number": 64,
                        "time": 38.456362874999996,
                        "value": 0
                    },
                    {
                        "number": 64,
                        "time": 39.088290806249994,
                        "value": 1
                    },
                    {
                        "number": 64,
                        "time": 39.48930033124999,
                        "value": 0
                    },
                    {
                        "number": 64,
                        "time": 40.615731581249996,
                        "value": 1
                    },
                    {
                        "number": 64,
                        "time": 41.10460274374999,
                        "value": 0
                    },
                    {
                        "number": 64,
                        "time": 41.159797874999995,
                        "value": 1
                    },
                    {
                        "number": 64,
                        "time": 41.64979546874999,
                        "value": 0
                    },
                    {
                        "number": 64,
                        "time": 42.78185887499999,
                        "value": 1
                    },
                    {
                        "number": 64,
                        "time": 43.27636219374999,
                        "value": 0
                    },
                    {
                        "number": 64,
                        "time": 45.41770799999999,
                        "value": 1
                    },
                    {
                        "number": 64,
                        "time": 45.97641789999999,
                        "value": 0
                    },
                    {
                        "number": 64,
                        "time": 47.10397558124999,
                        "value": 1
                    },
                    {
                        "number": 64,
                        "time": 48.12790158749999,
                        "value": 0
                    },
                    {
                        "number": 64,
                        "time": 48.72153085624999,
                        "value": 1
                    },
                    {
                        "number": 64,
                        "time": 49.75897403749999,
                        "value": 0
                    },
                    {
                        "number": 64,
                        "time": 51.97015858124999,
                        "value": 1
                    },
                    {
                        "number": 64,
                        "time": 52.45902974374999,
                        "value": 0
                    },
                    {
                        "number": 64,
                        "time": 52.51422487499999,
                        "value": 1
                    },
                    {
                        "number": 64,
                        "time": 53.00422246874999,
                        "value": 0
                    },
                    {
                        "number": 64,
                        "time": 54.136285874999984,
                        "value": 1
                    },
                    {
                        "number": 64,
                        "time": 54.63078919374998,
                        "value": 0
                    },
                    {
                        "number": 64,
                        "time": 55.75834687499999,
                        "value": 1
                    },
                    {
                        "number": 64,
                        "time": 56.252850193749985,
                        "value": 0
                    },
                    {
                        "number": 64,
                        "time": 57.38040787499999,
                        "value": 1
                    },
                    {
                        "number": 64,
                        "time": 57.87491119374999,
                        "value": 0
                    },
                    {
                        "number": 64,
                        "time": 58.50233339999999,
                        "value": 1
                    },
                    {
                        "number": 64,
                        "time": 58.87518214374999,
                        "value": 0
                    },
                    {
                        "number": 64,
                        "time": 59.579201674999986,
                        "value": 1
                    },
                    {
                        "number": 64,
                        "time": 59.94867112499998,
                        "value": 0
                    },
                    {
                        "number": 64,
                        "time": 60.648184931249986,
                        "value": 1
                    },
                    {
                        "number": 64,
                        "time": 60.84193110624999,
                        "value": 0
                    },
                    {
                        "number": 64,
                        "time": 60.89937909999999,
                        "value": 1
                    },
                    {
                        "number": 64,
                        "time": 61.11452746874999,
                        "value": 0
                    },
                    {
                        "number": 64,
                        "time": 61.16521687499999,
                        "value": 1
                    },
                    {
                        "number": 64,
                        "time": 61.37585951874999,
                        "value": 0
                    },
                    {
                        "number": 64,
                        "time": 61.43556037499999,
                        "value": 1
                    },
                    {
                        "number": 64,
                        "time": 61.638317999999984,
                        "value": 0
                    },
                    {
                        "number": 64,
                        "time": 62.804174343749985,
                        "value": 1
                    },
                    {
                        "number": 64,
                        "time": 63.26826401874998,
                        "value": 0
                    },
                    {
                        "number": 64,
                        "time": 63.31670056249998,
                        "value": 1
                    },
                    {
                        "number": 64,
                        "time": 63.825847487499985,
                        "value": 0
                    },
                    {
                        "number": 64,
                        "time": 63.88104261874999,
                        "value": 1
                    },
                    {
                        "number": 64,
                        "time": 64.35977589999999,
                        "value": 0
                    },
                    {
                        "number": 64,
                        "time": 64.42623534375,
                        "value": 1
                    },
                    {
                        "number": 64,
                        "time": 64.88243999999999,
                        "value": 0
                    },
                    {
                        "number": 64,
                        "time": 65.54252871249999,
                        "value": 1
                    },
                    {
                        "number": 64,
                        "time": 66.25218039999999,
                        "value": 0
                    },
                    {
                        "number": 64,
                        "time": 66.57208687499998,
                        "value": 1
                    },
                    {
                        "number": 64,
                        "time": 66.77484449999999,
                        "value": 0
                    },
                    {
                        "number": 64,
                        "time": 67.10150956249998,
                        "value": 1
                    },
                    {
                        "number": 64,
                        "time": 67.37523235624998,
                        "value": 0
                    },
                    {
                        "number": 64,
                        "time": 68.28538880624998,
                        "value": 1
                    },
                    {
                        "number": 64,
                        "time": 68.68639833124999,
                        "value": 0
                    },
                    {
                        "number": 64,
                        "time": 69.28115403124998,
                        "value": 1
                    },
                    {
                        "number": 64,
                        "time": 69.75763444999998,
                        "value": 0
                    },
                    {
                        "number": 64,
                        "time": 69.80381813124998,
                        "value": 1
                    },
                    {
                        "number": 64,
                        "time": 70.29944788124999,
                        "value": 0
                    },
                    {
                        "number": 64,
                        "time": 70.35576944374999,
                        "value": 1
                    },
                    {
                        "number": 64,
                        "time": 70.85139919375,
                        "value": 0
                    },
                    {
                        "number": 64,
                        "time": 70.91110005,
                        "value": 1
                    },
                    {
                        "number": 64,
                        "time": 71.370684,
                        "value": 0
                    },
                    {
                        "number": 64,
                        "time": 72.0307727125,
                        "value": 1
                    },
                    {
                        "number": 64,
                        "time": 72.7404244,
                        "value": 0
                    },
                    {
                        "number": 64,
                        "time": 73.06033087499999,
                        "value": 1
                    },
                    {
                        "number": 64,
                        "time": 73.40614526875,
                        "value": 0
                    },
                    {
                        "number": 64,
                        "time": 73.66071873125,
                        "value": 1
                    },
                    {
                        "number": 64,
                        "time": 74.141704875,
                        "value": 0
                    },
                    {
                        "number": 64,
                        "time": 74.77363280625,
                        "value": 1
                    },
                    {
                        "number": 64,
                        "time": 75.17464233125001,
                        "value": 0
                    },
                    {
                        "number": 64,
                        "time": 76.30107358125001,
                        "value": 1
                    },
                    {
                        "number": 64,
                        "time": 76.78994474375001,
                        "value": 0
                    },
                    {
                        "number": 64,
                        "time": 76.84513987500002,
                        "value": 1
                    },
                    {
                        "number": 64,
                        "time": 77.33513746875002,
                        "value": 0
                    },
                    {
                        "number": 64,
                        "time": 78.46720087500002,
                        "value": 1
                    },
                    {
                        "number": 64,
                        "time": 78.96170419375002,
                        "value": 0
                    },
                    {
                        "number": 64,
                        "time": 81.10305000000002,
                        "value": 1
                    },
                    {
                        "number": 64,
                        "time": 81.66175990000002,
                        "value": 0
                    },
                    {
                        "number": 64,
                        "time": 82.78931758125002,
                        "value": 1
                    },
                    {
                        "number": 64,
                        "time": 83.81324358750001,
                        "value": 0
                    },
                    {
                        "number": 64,
                        "time": 84.40687285625,
                        "value": 1
                    },
                    {
                        "number": 64,
                        "time": 85.4443160375,
                        "value": 0
                    },
                    {
                        "number": 64,
                        "time": 87.65550058125,
                        "value": 1
                    },
                    {
                        "number": 64,
                        "time": 88.14437174375,
                        "value": 0
                    },
                    {
                        "number": 64,
                        "time": 88.199566875,
                        "value": 1
                    },
                    {
                        "number": 64,
                        "time": 88.68956446875,
                        "value": 0
                    },
                    {
                        "number": 64,
                        "time": 89.821627875,
                        "value": 1
                    },
                    {
                        "number": 64,
                        "time": 90.31613119375001,
                        "value": 0
                    },
                    {
                        "number": 64,
                        "time": 91.443688875,
                        "value": 1
                    },
                    {
                        "number": 64,
                        "time": 91.93819219375001,
                        "value": 0
                    },
                    {
                        "number": 64,
                        "time": 93.06574987500001,
                        "value": 1
                    },
                    {
                        "number": 64,
                        "time": 93.56025319375001,
                        "value": 0
                    },
                    {
                        "number": 64,
                        "time": 94.18767540000002,
                        "value": 1
                    },
                    {
                        "number": 64,
                        "time": 94.56052414375002,
                        "value": 0
                    },
                    {
                        "number": 64,
                        "time": 95.26454367500001,
                        "value": 1
                    },
                    {
                        "number": 64,
                        "time": 95.63401312500001,
                        "value": 0
                    },
                    {
                        "number": 64,
                        "time": 96.33352693125,
                        "value": 1
                    },
                    {
                        "number": 64,
                        "time": 96.52727310625001,
                        "value": 0
                    },
                    {
                        "number": 64,
                        "time": 96.58472110000001,
                        "value": 1
                    },
                    {
                        "number": 64,
                        "time": 96.79986946875,
                        "value": 0
                    },
                    {
                        "number": 64,
                        "time": 96.850558875,
                        "value": 1
                    },
                    {
                        "number": 64,
                        "time": 97.06120151875001,
                        "value": 0
                    },
                    {
                        "number": 64,
                        "time": 97.12090237500001,
                        "value": 1
                    },
                    {
                        "number": 64,
                        "time": 97.32366000000002,
                        "value": 0
                    },
                    {
                        "number": 64,
                        "time": 98.94572100000002,
                        "value": 0
                    },
                    {
                        "number": 64,
                        "time": 99.53484454375003,
                        "value": 1
                    },
                    {
                        "number": 64,
                        "time": 100.03498001875002,
                        "value": 0
                    },
                    {
                        "number": 64,
                        "time": 100.14649671250002,
                        "value": 1
                    },
                    {
                        "number": 64,
                        "time": 100.57454058750002,
                        "value": 0
                    },
                    {
                        "number": 64,
                        "time": 101.17943416875002,
                        "value": 1
                    },
                    {
                        "number": 64,
                        "time": 101.66605246875002,
                        "value": 0
                    },
                    {
                        "number": 64,
                        "time": 101.78432775000003,
                        "value": 1
                    },
                    {
                        "number": 64,
                        "time": 102.18984300000002,
                        "value": 0
                    },
                    {
                        "number": 64,
                        "time": 102.86006959375003,
                        "value": 1
                    },
                    {
                        "number": 64,
                        "time": 103.28811346875003,
                        "value": 0
                    },
                    {
                        "number": 64,
                        "time": 103.40075659375003,
                        "value": 1
                    },
                    {
                        "number": 64,
                        "time": 103.82542117500003,
                        "value": 0
                    },
                    {
                        "number": 64,
                        "time": 103.92116783125003,
                        "value": 1
                    },
                    {
                        "number": 64,
                        "time": 104.93833525000004,
                        "value": 0
                    },
                    {
                        "number": 64,
                        "time": 106.05913434375003,
                        "value": 1
                    },
                    {
                        "number": 64,
                        "time": 106.52322401875003,
                        "value": 0
                    },
                    {
                        "number": 64,
                        "time": 106.63474071250003,
                        "value": 1
                    },
                    {
                        "number": 64,
                        "time": 107.06278458750003,
                        "value": 0
                    },
                    {
                        "number": 64,
                        "time": 107.68682750000004,
                        "value": 1
                    },
                    {
                        "number": 64,
                        "time": 108.15429646875003,
                        "value": 0
                    },
                    {
                        "number": 64,
                        "time": 108.27257175000004,
                        "value": 1
                    },
                    {
                        "number": 64,
                        "time": 108.67808700000003,
                        "value": 0
                    },
                    {
                        "number": 64,
                        "time": 109.34831359375004,
                        "value": 1
                    },
                    {
                        "number": 64,
                        "time": 109.50150824375004,
                        "value": 0
                    },
                    {
                        "number": 64,
                        "time": 109.88900059375004,
                        "value": 1
                    },
                    {
                        "number": 64,
                        "time": 110.30014800000004,
                        "value": 0
                    },
                    {
                        "number": 64,
                        "time": 110.43531975000003,
                        "value": 1
                    },
                    {
                        "number": 64,
                        "time": 111.30943040000004,
                        "value": 0
                    },
                    {
                        "number": 64,
                        "time": 112.51133254375004,
                        "value": 1
                    },
                    {
                        "number": 64,
                        "time": 113.01146801875004,
                        "value": 0
                    },
                    {
                        "number": 64,
                        "time": 113.12298471250004,
                        "value": 1
                    },
                    {
                        "number": 64,
                        "time": 113.55102858750004,
                        "value": 0
                    },
                    {
                        "number": 64,
                        "time": 114.15592216875004,
                        "value": 1
                    },
                    {
                        "number": 64,
                        "time": 114.64254046875004,
                        "value": 0
                    },
                    {
                        "number": 64,
                        "time": 114.76081575000005,
                        "value": 1
                    },
                    {
                        "number": 64,
                        "time": 115.16633100000004,
                        "value": 0
                    },
                    {
                        "number": 64,
                        "time": 115.83655759375004,
                        "value": 1
                    },
                    {
                        "number": 64,
                        "time": 116.26460146875004,
                        "value": 0
                    },
                    {
                        "number": 64,
                        "time": 116.37724459375005,
                        "value": 1
                    },
                    {
                        "number": 64,
                        "time": 116.80190917500005,
                        "value": 0
                    },
                    {
                        "number": 64,
                        "time": 116.89765583125005,
                        "value": 1
                    },
                    {
                        "number": 64,
                        "time": 117.91482325000005,
                        "value": 0
                    },
                    {
                        "number": 64,
                        "time": 119.03562234375005,
                        "value": 1
                    },
                    {
                        "number": 64,
                        "time": 119.49971201875005,
                        "value": 0
                    },
                    {
                        "number": 64,
                        "time": 119.61122871250005,
                        "value": 1
                    },
                    {
                        "number": 64,
                        "time": 120.03927258750005,
                        "value": 0
                    },
                    {
                        "number": 64,
                        "time": 120.66331550000005,
                        "value": 1
                    },
                    {
                        "number": 64,
                        "time": 121.13078446875005,
                        "value": 0
                    },
                    {
                        "number": 64,
                        "time": 121.24905975000006,
                        "value": 1
                    },
                    {
                        "number": 64,
                        "time": 121.65457500000005,
                        "value": 0
                    },
                    {
                        "number": 64,
                        "time": 122.32480159375005,
                        "value": 1
                    },
                    {
                        "number": 64,
                        "time": 122.47799624375006,
                        "value": 0
                    },
                    {
                        "number": 64,
                        "time": 122.86548859375006,
                        "value": 1
                    },
                    {
                        "number": 64,
                        "time": 123.27663600000005,
                        "value": 0
                    },
                    {
                        "number": 64,
                        "time": 123.41180775000005,
                        "value": 1
                    },
                    {
                        "number": 64,
                        "time": 124.26338977500005,
                        "value": 0
                    },
                    {
                        "number": 64,
                        "time": 130.89131125000006,
                        "value": 0
                    },
                    {
                        "number": 64,
                        "time": 132.01211034375007,
                        "value": 1
                    },
                    {
                        "number": 64,
                        "time": 132.47620001875006,
                        "value": 0
                    },
                    {
                        "number": 64,
                        "time": 132.58771671250005,
                        "value": 1
                    },
                    {
                        "number": 64,
                        "time": 133.01576058750004,
                        "value": 0
                    },
                    {
                        "number": 64,
                        "time": 133.63980350000003,
                        "value": 1
                    },
                    {
                        "number": 64,
                        "time": 134.10727246875004,
                        "value": 0
                    },
                    {
                        "number": 64,
                        "time": 134.22554775000003,
                        "value": 1
                    },
                    {
                        "number": 64,
                        "time": 134.63106300000004,
                        "value": 0
                    },
                    {
                        "number": 64,
                        "time": 135.30128959375003,
                        "value": 1
                    },
                    {
                        "number": 64,
                        "time": 135.45448424375002,
                        "value": 0
                    },
                    {
                        "number": 64,
                        "time": 135.84197659375002,
                        "value": 1
                    },
                    {
                        "number": 64,
                        "time": 136.00192983125,
                        "value": 0
                    },
                    {
                        "number": 64,
                        "time": 136.38829575,
                        "value": 1
                    },
                    {
                        "number": 64,
                        "time": 137.3187279625,
                        "value": 0
                    },
                    {
                        "number": 64,
                        "time": 143.86779925,
                        "value": 0
                    },
                    {
                        "number": 64,
                        "time": 144.98859834375,
                        "value": 1
                    },
                    {
                        "number": 64,
                        "time": 145.45268801875,
                        "value": 0
                    },
                    {
                        "number": 64,
                        "time": 145.5642047125,
                        "value": 1
                    },
                    {
                        "number": 64,
                        "time": 145.99224858749997,
                        "value": 0
                    },
                    {
                        "number": 64,
                        "time": 146.61629149999996,
                        "value": 1
                    },
                    {
                        "number": 64,
                        "time": 147.08376046874997,
                        "value": 0
                    },
                    {
                        "number": 64,
                        "time": 147.20203574999996,
                        "value": 1
                    },
                    {
                        "number": 64,
                        "time": 147.60755099999997,
                        "value": 0
                    },
                    {
                        "number": 64,
                        "time": 148.27777759374996,
                        "value": 1
                    },
                    {
                        "number": 64,
                        "time": 148.43097224374995,
                        "value": 0
                    },
                    {
                        "number": 64,
                        "time": 148.81846459374995,
                        "value": 1
                    },
                    {
                        "number": 64,
                        "time": 148.97841783124994,
                        "value": 0
                    },
                    {
                        "number": 64,
                        "time": 149.36478374999993,
                        "value": 1
                    },
                    {
                        "number": 64,
                        "time": 150.29521596249992,
                        "value": 0
                    },
                    {
                        "number": 64,
                        "time": 150.91587958124992,
                        "value": 1
                    },
                    {
                        "number": 64,
                        "time": 151.40475074374993,
                        "value": 0
                    },
                    {
                        "number": 64,
                        "time": 151.45994587499993,
                        "value": 1
                    },
                    {
                        "number": 64,
                        "time": 151.94994346874992,
                        "value": 0
                    },
                    {
                        "number": 64,
                        "time": 153.08200687499993,
                        "value": 1
                    },
                    {
                        "number": 64,
                        "time": 153.57651019374993,
                        "value": 0
                    },
                    {
                        "number": 64,
                        "time": 155.71785599999993,
                        "value": 1
                    },
                    {
                        "number": 64,
                        "time": 156.27656589999992,
                        "value": 0
                    },
                    {
                        "number": 64,
                        "time": 157.40412358124993,
                        "value": 1
                    },
                    {
                        "number": 64,
                        "time": 158.42804958749994,
                        "value": 0
                    },
                    {
                        "number": 64,
                        "time": 159.02167885624993,
                        "value": 1
                    },
                    {
                        "number": 64,
                        "time": 160.05912203749995,
                        "value": 0
                    },
                    {
                        "number": 64,
                        "time": 162.31761669374995,
                        "value": 1
                    },
                    {
                        "number": 64,
                        "time": 162.76143060624995,
                        "value": 0
                    },
                    {
                        "number": 64,
                        "time": 162.88984376874996,
                        "value": 1
                    },
                    {
                        "number": 64,
                        "time": 163.17595730624996,
                        "value": 0
                    },
                    {
                        "number": 64,
                        "time": 163.37195634374996,
                        "value": 1
                    },
                    {
                        "number": 64,
                        "time": 163.83604601874995,
                        "value": 0
                    },
                    {
                        "number": 64,
                        "time": 163.88448256249995,
                        "value": 1
                    },
                    {
                        "number": 64,
                        "time": 164.39362948749996,
                        "value": 0
                    },
                    {
                        "number": 64,
                        "time": 164.44882461874997,
                        "value": 1
                    },
                    {
                        "number": 64,
                        "time": 164.92755789999995,
                        "value": 0
                    },
                    {
                        "number": 64,
                        "time": 164.99401734374996,
                        "value": 1
                    },
                    {
                        "number": 64,
                        "time": 165.45022199999997,
                        "value": 0
                    },
                    {
                        "number": 64,
                        "time": 166.11031071249997,
                        "value": 1
                    },
                    {
                        "number": 64,
                        "time": 166.81996239999998,
                        "value": 0
                    },
                    {
                        "number": 64,
                        "time": 167.139868875,
                        "value": 1
                    },
                    {
                        "number": 64,
                        "time": 167.3426265,
                        "value": 0
                    },
                    {
                        "number": 64,
                        "time": 167.6692915625,
                        "value": 1
                    },
                    {
                        "number": 64,
                        "time": 167.94301435625002,
                        "value": 0
                    },
                    {
                        "number": 64,
                        "time": 168.85317080625,
                        "value": 1
                    },
                    {
                        "number": 64,
                        "time": 169.25418033125,
                        "value": 0
                    },
                    {
                        "number": 64,
                        "time": 169.84893603125002,
                        "value": 1
                    },
                    {
                        "number": 64,
                        "time": 170.32541645,
                        "value": 0
                    },
                    {
                        "number": 64,
                        "time": 170.37160013125,
                        "value": 1
                    },
                    {
                        "number": 64,
                        "time": 170.86722988125,
                        "value": 0
                    },
                    {
                        "number": 64,
                        "time": 170.92355144375,
                        "value": 1
                    },
                    {
                        "number": 64,
                        "time": 171.41918119375,
                        "value": 0
                    },
                    {
                        "number": 64,
                        "time": 171.47888205,
                        "value": 1
                    },
                    {
                        "number": 64,
                        "time": 171.938466,
                        "value": 0
                    },
                    {
                        "number": 64,
                        "time": 172.5985547125,
                        "value": 1
                    },
                    {
                        "number": 64,
                        "time": 173.30820640000002,
                        "value": 0
                    },
                    {
                        "number": 64,
                        "time": 173.62811287500003,
                        "value": 1
                    },
                    {
                        "number": 64,
                        "time": 173.97392726875003,
                        "value": 0
                    },
                    {
                        "number": 64,
                        "time": 174.22850073125002,
                        "value": 1
                    },
                    {
                        "number": 64,
                        "time": 174.709486875,
                        "value": 0
                    },
                    {
                        "number": 64,
                        "time": 175.34141480625001,
                        "value": 1
                    },
                    {
                        "number": 64,
                        "time": 175.74242433125002,
                        "value": 0
                    },
                    {
                        "number": 64,
                        "time": 176.86885558125002,
                        "value": 1
                    },
                    {
                        "number": 64,
                        "time": 177.35772674375002,
                        "value": 0
                    },
                    {
                        "number": 64,
                        "time": 177.41292187500002,
                        "value": 1
                    },
                    {
                        "number": 64,
                        "time": 177.90291946875,
                        "value": 0
                    },
                    {
                        "number": 64,
                        "time": 179.03498287500003,
                        "value": 1
                    },
                    {
                        "number": 64,
                        "time": 179.52948619375002,
                        "value": 0
                    },
                    {
                        "number": 64,
                        "time": 181.67083200000002,
                        "value": 1
                    },
                    {
                        "number": 64,
                        "time": 182.22954190000002,
                        "value": 0
                    },
                    {
                        "number": 64,
                        "time": 183.35709958125003,
                        "value": 1
                    },
                    {
                        "number": 64,
                        "time": 184.38102558750003,
                        "value": 0
                    },
                    {
                        "number": 64,
                        "time": 184.97465485625003,
                        "value": 1
                    },
                    {
                        "number": 64,
                        "time": 186.01209803750004,
                        "value": 0
                    },
                    {
                        "number": 64,
                        "time": 188.22328258125003,
                        "value": 1
                    },
                    {
                        "number": 64,
                        "time": 188.71215374375004,
                        "value": 0
                    },
                    {
                        "number": 64,
                        "time": 188.76734887500004,
                        "value": 1
                    },
                    {
                        "number": 64,
                        "time": 189.25734646875003,
                        "value": 0
                    },
                    {
                        "number": 64,
                        "time": 190.38940987500004,
                        "value": 1
                    },
                    {
                        "number": 64,
                        "time": 190.88391319375003,
                        "value": 0
                    },
                    {
                        "number": 64,
                        "time": 192.01147087500004,
                        "value": 1
                    },
                    {
                        "number": 64,
                        "time": 192.50597419375003,
                        "value": 0
                    },
                    {
                        "number": 64,
                        "time": 193.63353187500005,
                        "value": 1
                    },
                    {
                        "number": 64,
                        "time": 194.12803519375004,
                        "value": 0
                    },
                    {
                        "number": 64,
                        "time": 194.75545740000004,
                        "value": 1
                    },
                    {
                        "number": 64,
                        "time": 195.12830614375005,
                        "value": 0
                    },
                    {
                        "number": 64,
                        "time": 195.83232567500005,
                        "value": 1
                    },
                    {
                        "number": 64,
                        "time": 196.26938100000004,
                        "value": 0
                    },
                    {
                        "number": 64,
                        "time": 196.90130893125004,
                        "value": 1
                    },
                    {
                        "number": 64,
                        "time": 197.09505510625004,
                        "value": 0
                    },
                    {
                        "number": 64,
                        "time": 197.15250310000005,
                        "value": 1
                    },
                    {
                        "number": 64,
                        "time": 197.36765146875004,
                        "value": 0
                    },
                    {
                        "number": 64,
                        "time": 197.41834087500004,
                        "value": 1
                    },
                    {
                        "number": 64,
                        "time": 197.62898351875003,
                        "value": 0
                    },
                    {
                        "number": 64,
                        "time": 197.68868437500004,
                        "value": 1
                    },
                    {
                        "number": 64,
                        "time": 197.89144200000004,
                        "value": 0
                    }
                ]
            },
            "id": 3,
            "name": "Pedale",
            "instrumentNumber": 0,
            "instrument": "acoustic grand piano",
            "instrumentFamily": "piano",
            "channelNumber": 0,
            "isPercussion": false
        },
        {
            "startTime": 0,
            "duration": 0,
            "length": 0,
            "notes": [],
            "controlChanges": {},
            "id": 4,
            "name": "Beethoven: Grande Sonate Opus 22 - 3. movement"
        },
        {
            "startTime": 0,
            "duration": 0,
            "length": 0,
            "notes": [],
            "controlChanges": {},
            "id": 5,
            "name": "Copyright  2009 by Bernd Krueger"
        },
        {
            "startTime": 0,
            "duration": 0,
            "length": 0,
            "notes": [],
            "controlChanges": {},
            "id": 6,
            "name": "http://www.piano-midi.de/"
        },
        {
            "startTime": 0,
            "duration": 0,
            "length": 0,
            "notes": [],
            "controlChanges": {},
            "id": 7,
            "name": "Edition: 2012-05-29"
        },
        {
            "startTime": 0,
            "duration": 0,
            "length": 0,
            "notes": [],
            "controlChanges": {},
            "id": 8,
            "name": "Spur 8"
        },
        {
            "startTime": 0,
            "duration": 0,
            "length": 0,
            "notes": [],
            "controlChanges": {},
            "id": 9,
            "name": "Spur 9"
        },
        {
            "startTime": 0,
            "duration": 0,
            "length": 0,
            "notes": [],
            "controlChanges": {},
            "id": 10,
            "name": "Spur 10"
        },
        {
            "startTime": 0,
            "duration": 0,
            "length": 0,
            "notes": [],
            "controlChanges": {},
            "id": 11,
            "name": "Spur 11"
        },
        {
            "startTime": 0,
            "duration": 0,
            "length": 0,
            "notes": [],
            "controlChanges": {},
            "id": 12,
            "name": "Spur 12"
        },
        {
            "startTime": 0,
            "duration": 0,
            "length": 0,
            "notes": [],
            "controlChanges": {},
            "id": 13,
            "name": "Spur 13"
        },
        {
            "startTime": 0,
            "duration": 0,
            "length": 0,
            "notes": [],
            "controlChanges": {},
            "id": 14,
            "name": "Spur 14"
        },
        {
            "startTime": 0,
            "duration": 0,
            "length": 0,
            "notes": [],
            "controlChanges": {},
            "id": 15,
            "name": "Spur 15"
        },
        {
            "startTime": 0,
            "duration": 0,
            "length": 0,
            "notes": [],
            "controlChanges": {},
            "id": 16,
            "name": "Spur 16"
        }
    ]
}