{
    "header": {
        "PPQ": 480,
        "timeSignature": [
            9,
            8
        ],
        "bpm": 65.09999902350002,
        "name": "Grande Sonata Opus 22 2. movement"
    },
    "startTime": 0,
    "duration": 317.5115255000002,
    "tracks": [
        {
            "startTime": 0,
            "duration": 0,
            "length": 0,
            "notes": [],
            "controlChanges": {},
            "id": 0,
            "name": "Grande Sonata Opus 22 2. movement"
        },
        {
            "startTime": 2.7649769999999996,
            "duration": 317.5115255000002,
            "length": 1089,
            "notes": [
                {
                    "name": "G4",
                    "midi": 67,
                    "time": 2.7649769999999996,
                    "velocity": 0.2992125984251969,
                    "duration": 0.3456221249999998
                },
                {
                    "name": "G#4",
                    "midi": 68,
                    "time": 3.1105991249999994,
                    "velocity": 0.28346456692913385,
                    "duration": 0.11520737499999978
                },
                {
                    "name": "G4",
                    "midi": 67,
                    "time": 3.225806499999999,
                    "velocity": 0.30708661417322836,
                    "duration": 0.23041475
                },
                {
                    "name": "F4",
                    "midi": 65,
                    "time": 3.456221249999999,
                    "velocity": 0.28346456692913385,
                    "duration": 0.23041475
                },
                {
                    "name": "G4",
                    "midi": 67,
                    "time": 3.686635999999999,
                    "velocity": 0.31496062992125984,
                    "duration": 0.23041475
                },
                {
                    "name": "G#4",
                    "midi": 68,
                    "time": 3.917050749999999,
                    "velocity": 0.28346456692913385,
                    "duration": 0.23041475
                },
                {
                    "name": "A4",
                    "midi": 69,
                    "time": 4.147465499999999,
                    "velocity": 0.3464566929133858,
                    "duration": 1.3824885
                },
                {
                    "name": "A#4",
                    "midi": 70,
                    "time": 5.529953999999999,
                    "velocity": 0.4015748031496063,
                    "duration": 1.7281106250000002
                },
                {
                    "name": "C5",
                    "midi": 72,
                    "time": 7.258064624999999,
                    "velocity": 0.30708661417322836,
                    "duration": 0.11520737499999978
                },
                {
                    "name": "A#4",
                    "midi": 70,
                    "time": 7.373271999999999,
                    "velocity": 0.3858267716535433,
                    "duration": 0.23041474999999956
                },
                {
                    "name": "A4",
                    "midi": 69,
                    "time": 7.603686749999999,
                    "velocity": 0.33070866141732286,
                    "duration": 0.23041474999999956
                },
                {
                    "name": "A#4",
                    "midi": 70,
                    "time": 7.834101499999998,
                    "velocity": 0.4015748031496063,
                    "duration": 0.23041475000000045
                },
                {
                    "name": "B4",
                    "midi": 71,
                    "time": 8.064516249999999,
                    "velocity": 0.36220472440944884,
                    "duration": 0.23041474999999956
                },
                {
                    "name": "B4",
                    "midi": 71,
                    "time": 8.294930999999998,
                    "velocity": 0.3937007874015748,
                    "duration": 0.8064516250000011
                },
                {
                    "name": "C5",
                    "midi": 72,
                    "time": 8.986175249999999,
                    "velocity": 0.30708661417322836,
                    "duration": 0.05760368750000033
                },
                {
                    "name": "B4",
                    "midi": 71,
                    "time": 9.043778937499999,
                    "velocity": 0.25984251968503935,
                    "duration": 0.05760368750000033
                },
                {
                    "name": "A4",
                    "midi": 69,
                    "time": 9.101382625,
                    "velocity": 0.3228346456692913,
                    "duration": 0.05760368750000033
                },
                {
                    "name": "B4",
                    "midi": 71,
                    "time": 9.1589863125,
                    "velocity": 0.29133858267716534,
                    "duration": 0.05760368750000033
                },
                {
                    "name": "D5",
                    "midi": 74,
                    "time": 9.21659,
                    "velocity": 0.41732283464566927,
                    "duration": 0.3456221250000002
                },
                {
                    "name": "C5",
                    "midi": 72,
                    "time": 9.562212125,
                    "velocity": 0.3464566929133858,
                    "duration": 0.11520737500000067
                },
                {
                    "name": "F4",
                    "midi": 65,
                    "time": 9.677419500000001,
                    "velocity": 0.4330708661417323,
                    "duration": 1.7281106249999993
                },
                {
                    "name": "G4",
                    "midi": 67,
                    "time": 11.405530125,
                    "velocity": 0.30708661417322836,
                    "duration": 0.11520737500000067
                },
                {
                    "name": "F4",
                    "midi": 65,
                    "time": 11.520737500000001,
                    "velocity": 0.36220472440944884,
                    "duration": 0.23041474999999956
                },
                {
                    "name": "E4",
                    "midi": 64,
                    "time": 11.75115225,
                    "velocity": 0.33070866141732286,
                    "duration": 0.23041474999999956
                },
                {
                    "name": "F4",
                    "midi": 65,
                    "time": 11.981567,
                    "velocity": 0.3858267716535433,
                    "duration": 0.23041474999999956
                },
                {
                    "name": "G4",
                    "midi": 67,
                    "time": 12.21198175,
                    "velocity": 0.36220472440944884,
                    "duration": 0.23041474999999956
                },
                {
                    "name": "G#4",
                    "midi": 68,
                    "time": 12.4423965,
                    "velocity": 0.4330708661417323,
                    "duration": 1.6129032500000005
                },
                {
                    "name": "G4",
                    "midi": 67,
                    "time": 14.05529975,
                    "velocity": 0.3700787401574803,
                    "duration": 0.23041474999999956
                },
                {
                    "name": "F4",
                    "midi": 65,
                    "time": 14.2857145,
                    "velocity": 0.3779527559055118,
                    "duration": 0.23041474999999956
                },
                {
                    "name": "E4",
                    "midi": 64,
                    "time": 14.516129249999999,
                    "velocity": 0.3464566929133858,
                    "duration": 0.23041474999999956
                },
                {
                    "name": "F4",
                    "midi": 65,
                    "time": 14.746543999999998,
                    "velocity": 0.3858267716535433,
                    "duration": 0.23041474999999956
                },
                {
                    "name": "G4",
                    "midi": 67,
                    "time": 14.976958749999998,
                    "velocity": 0.3464566929133858,
                    "duration": 0.23041474999999956
                },
                {
                    "name": "G#4",
                    "midi": 68,
                    "time": 15.207373499999997,
                    "velocity": 0.3937007874015748,
                    "duration": 0.23041474999999956
                },
                {
                    "name": "A#4",
                    "midi": 70,
                    "time": 15.437788249999997,
                    "velocity": 0.3543307086614173,
                    "duration": 0.23041474999999956
                },
                {
                    "name": "C5",
                    "midi": 72,
                    "time": 15.668202999999997,
                    "velocity": 0.4251968503937008,
                    "duration": 0.23041474999999956
                },
                {
                    "name": "B4",
                    "midi": 71,
                    "time": 15.898617749999996,
                    "velocity": 0.3543307086614173,
                    "duration": 0.23041475000000133
                },
                {
                    "name": "C5",
                    "midi": 72,
                    "time": 16.129032499999997,
                    "velocity": 0.3779527559055118,
                    "duration": 0.23041475000000133
                },
                {
                    "name": "G#4",
                    "midi": 68,
                    "time": 16.35944725,
                    "velocity": 0.30708661417322836,
                    "duration": 0.23041475000000133
                },
                {
                    "name": "F#4",
                    "midi": 66,
                    "time": 16.589862,
                    "velocity": 0.4566929133858268,
                    "duration": 1.382488500000001
                },
                {
                    "name": "G4",
                    "midi": 67,
                    "time": 17.9723505,
                    "velocity": 0.4330708661417323,
                    "duration": 1.6129032499999987
                },
                {
                    "name": "D#4",
                    "midi": 63,
                    "time": 19.58525375,
                    "velocity": 0.4330708661417323,
                    "duration": 0.23041475000000133
                },
                {
                    "name": "G4",
                    "midi": 67,
                    "time": 19.8156685,
                    "velocity": 0.4645669291338583,
                    "duration": 0.23041475000000133
                },
                {
                    "name": "A#4",
                    "midi": 70,
                    "time": 20.046083250000002,
                    "velocity": 0.4881889763779528,
                    "duration": 0.23041475000000133
                },
                {
                    "name": "D#5",
                    "midi": 75,
                    "time": 20.276498000000004,
                    "velocity": 0.5196850393700787,
                    "duration": 0.23041475000000133
                },
                {
                    "name": "G5",
                    "midi": 79,
                    "time": 20.506912750000005,
                    "velocity": 0.5433070866141733,
                    "duration": 0.23041475000000133
                },
                {
                    "name": "A#5",
                    "midi": 82,
                    "time": 20.737327500000006,
                    "velocity": 0.5669291338582677,
                    "duration": 1.843318
                },
                {
                    "name": "G5",
                    "midi": 79,
                    "time": 22.580645500000006,
                    "velocity": 0.5433070866141733,
                    "duration": 0.4608294999999991
                },
                {
                    "name": "D#5",
                    "midi": 75,
                    "time": 23.041475000000005,
                    "velocity": 0.5118110236220472,
                    "duration": 0.4608294999999991
                },
                {
                    "name": "A#4",
                    "midi": 70,
                    "time": 23.502304500000005,
                    "velocity": 0.5118110236220472,
                    "duration": 0.4608294999999991
                },
                {
                    "name": "G4",
                    "midi": 67,
                    "time": 23.963134000000004,
                    "velocity": 0.5354330708661418,
                    "duration": 0.4608294999999991
                },
                {
                    "name": "D#4",
                    "midi": 63,
                    "time": 24.423963500000003,
                    "velocity": 0.5196850393700787,
                    "duration": 0.4608294999999991
                },
                {
                    "name": "C4",
                    "midi": 60,
                    "time": 24.884793000000002,
                    "velocity": 0.5669291338582677,
                    "duration": 1.382488500000001
                },
                {
                    "name": "C6",
                    "midi": 84,
                    "time": 26.267281500000003,
                    "velocity": 0.5669291338582677,
                    "duration": 1.843318
                },
                {
                    "name": "A#5",
                    "midi": 82,
                    "time": 28.110599500000003,
                    "velocity": 0.5275590551181102,
                    "duration": 0.23041475000000133
                },
                {
                    "name": "G#5",
                    "midi": 80,
                    "time": 28.341014250000004,
                    "velocity": 0.48031496062992124,
                    "duration": 0.23041475000000133
                },
                {
                    "name": "G5",
                    "midi": 79,
                    "time": 28.571429000000006,
                    "velocity": 0.5275590551181102,
                    "duration": 0.23041475000000133
                },
                {
                    "name": "F5",
                    "midi": 77,
                    "time": 28.801843750000007,
                    "velocity": 0.47244094488188976,
                    "duration": 0.21121352083333278
                },
                {
                    "name": "F5",
                    "midi": 77,
                    "time": 29.032258500000005,
                    "velocity": 0.5275590551181102,
                    "duration": 0.4608294999999991
                },
                {
                    "name": "D#5",
                    "midi": 75,
                    "time": 29.493088000000004,
                    "velocity": 0.47244094488188976,
                    "duration": 1.382488500000001
                },
                {
                    "name": "D#5",
                    "midi": 75,
                    "time": 30.875576500000005,
                    "velocity": 0.4409448818897638,
                    "duration": 0.4608294999999991
                },
                {
                    "name": "D#5",
                    "midi": 75,
                    "time": 31.336406000000004,
                    "velocity": 0.4251968503937008,
                    "duration": 0.4608294999999991
                },
                {
                    "name": "D#5",
                    "midi": 75,
                    "time": 31.797235500000003,
                    "velocity": 0.41732283464566927,
                    "duration": 0.05760368749999856
                },
                {
                    "name": "F5",
                    "midi": 77,
                    "time": 31.8548391875,
                    "velocity": 0.33858267716535434,
                    "duration": 0.05760368749999856
                },
                {
                    "name": "D#5",
                    "midi": 75,
                    "time": 31.912442875,
                    "velocity": 0.4251968503937008,
                    "duration": 0.05760368749999856
                },
                {
                    "name": "F5",
                    "midi": 77,
                    "time": 31.9700465625,
                    "velocity": 0.36220472440944884,
                    "duration": 0.05760368750000211
                },
                {
                    "name": "D#5",
                    "midi": 75,
                    "time": 32.02765025,
                    "velocity": 0.4094488188976378,
                    "duration": 0.05760368749999856
                },
                {
                    "name": "F5",
                    "midi": 77,
                    "time": 32.0852539375,
                    "velocity": 0.3464566929133858,
                    "duration": 0.05760368749999856
                },
                {
                    "name": "D#5",
                    "midi": 75,
                    "time": 32.142857625,
                    "velocity": 0.4015748031496063,
                    "duration": 0.03840245833333
                },
                {
                    "name": "D5",
                    "midi": 74,
                    "time": 32.18126008333333,
                    "velocity": 0.33858267716535434,
                    "duration": 0.03840245833333
                },
                {
                    "name": "D#5",
                    "midi": 75,
                    "time": 32.21966254166666,
                    "velocity": 0.33858267716535434,
                    "duration": 0.03840245833333
                },
                {
                    "name": "F5",
                    "midi": 77,
                    "time": 32.25806499999999,
                    "velocity": 0.4251968503937008,
                    "duration": 0.46082950000000267
                },
                {
                    "name": "D5",
                    "midi": 74,
                    "time": 32.71889449999999,
                    "velocity": 0.3700787401574803,
                    "duration": 0.46082950000000267
                },
                {
                    "name": "D#5",
                    "midi": 75,
                    "time": 33.17972399999999,
                    "velocity": 0.3700787401574803,
                    "duration": 0.46082950000000267
                },
                {
                    "name": "A#4",
                    "midi": 70,
                    "time": 33.640553499999996,
                    "velocity": 0.33858267716535434,
                    "duration": 0.4147465499999967
                },
                {
                    "name": "A#4",
                    "midi": 70,
                    "time": 34.10138299999999,
                    "velocity": 0.33858267716535434,
                    "duration": 0.4147465499999967
                },
                {
                    "name": "A#4",
                    "midi": 70,
                    "time": 34.56221249999999,
                    "velocity": 0.3858267716535433,
                    "duration": 0.46082950000000267
                },
                {
                    "name": "C5",
                    "midi": 72,
                    "time": 35.02304199999999,
                    "velocity": 0.3228346456692913,
                    "duration": 0.46082950000000267
                },
                {
                    "name": "G#4",
                    "midi": 68,
                    "time": 35.48387149999999,
                    "velocity": 0.25196850393700787,
                    "duration": 0.46082950000000267
                },
                {
                    "name": "D#4",
                    "midi": 63,
                    "time": 35.944700999999995,
                    "velocity": 0.28346456692913385,
                    "duration": 0.9216590000000053
                },
                {
                    "name": "G4",
                    "midi": 67,
                    "time": 35.944700999999995,
                    "velocity": 0.33858267716535434,
                    "duration": 0.46082950000000267
                },
                {
                    "name": "G#4",
                    "midi": 68,
                    "time": 36.4055305,
                    "velocity": 0.29133858267716534,
                    "duration": 0.46082950000000267
                },
                {
                    "name": "D4",
                    "midi": 62,
                    "time": 36.86636,
                    "velocity": 0.2125984251968504,
                    "duration": 0.46082950000000267
                },
                {
                    "name": "F4",
                    "midi": 65,
                    "time": 36.86636,
                    "velocity": 0.25196850393700787,
                    "duration": 0.46082950000000267
                },
                {
                    "name": "D#4",
                    "midi": 63,
                    "time": 37.3271895,
                    "velocity": 0.3700787401574803,
                    "duration": 0.46082950000000267
                },
                {
                    "name": "A#3",
                    "midi": 58,
                    "time": 37.788019000000006,
                    "velocity": 0.2992125984251969,
                    "duration": 0.4147465499999967
                },
                {
                    "name": "A#3",
                    "midi": 58,
                    "time": 38.2488485,
                    "velocity": 0.2992125984251969,
                    "duration": 0.4147465499999967
                },
                {
                    "name": "A#3",
                    "midi": 58,
                    "time": 38.709678,
                    "velocity": 0.2677165354330709,
                    "duration": 0.05760368749999856
                },
                {
                    "name": "C4",
                    "midi": 60,
                    "time": 38.767281687499995,
                    "velocity": 0.2125984251968504,
                    "duration": 0.05760368749999856
                },
                {
                    "name": "A#3",
                    "midi": 58,
                    "time": 38.824885374999994,
                    "velocity": 0.2677165354330709,
                    "duration": 0.05760368749999856
                },
                {
                    "name": "C4",
                    "midi": 60,
                    "time": 38.88248906249999,
                    "velocity": 0.2283464566929134,
                    "duration": 0.05760368749999856
                },
                {
                    "name": "A#3",
                    "midi": 58,
                    "time": 38.94009274999999,
                    "velocity": 0.25984251968503935,
                    "duration": 0.05760368749999856
                },
                {
                    "name": "C4",
                    "midi": 60,
                    "time": 38.99769643749999,
                    "velocity": 0.2125984251968504,
                    "duration": 0.05760368749999856
                },
                {
                    "name": "A#3",
                    "midi": 58,
                    "time": 39.05530012499999,
                    "velocity": 0.25196850393700787,
                    "duration": 0.03840245833333
                },
                {
                    "name": "A3",
                    "midi": 57,
                    "time": 39.09370258333332,
                    "velocity": 0.2125984251968504,
                    "duration": 0.03840245833333
                },
                {
                    "name": "A#3",
                    "midi": 58,
                    "time": 39.13210504166665,
                    "velocity": 0.2125984251968504,
                    "duration": 0.03840245833333
                },
                {
                    "name": "C4",
                    "midi": 60,
                    "time": 39.17050749999998,
                    "velocity": 0.2677165354330709,
                    "duration": 0.46082950000000267
                },
                {
                    "name": "G#3",
                    "midi": 56,
                    "time": 39.63133699999998,
                    "velocity": 0.2204724409448819,
                    "duration": 0.46082950000000267
                },
                {
                    "name": "D#3",
                    "midi": 51,
                    "time": 40.09216649999998,
                    "velocity": 0.2204724409448819,
                    "duration": 0.921658999999984
                },
                {
                    "name": "G3",
                    "midi": 55,
                    "time": 40.09216649999998,
                    "velocity": 0.2677165354330709,
                    "duration": 0.05760368749999856
                },
                {
                    "name": "G#3",
                    "midi": 56,
                    "time": 40.14977018749998,
                    "velocity": 0.2125984251968504,
                    "duration": 0.05760368749999856
                },
                {
                    "name": "G3",
                    "midi": 55,
                    "time": 40.20737387499998,
                    "velocity": 0.2677165354330709,
                    "duration": 0.05760368749999856
                },
                {
                    "name": "G#3",
                    "midi": 56,
                    "time": 40.26497756249998,
                    "velocity": 0.2283464566929134,
                    "duration": 0.05760368749999856
                },
                {
                    "name": "G3",
                    "midi": 55,
                    "time": 40.32258124999998,
                    "velocity": 0.25984251968503935,
                    "duration": 0.05760368749999856
                },
                {
                    "name": "G#3",
                    "midi": 56,
                    "time": 40.380184937499976,
                    "velocity": 0.2125984251968504,
                    "duration": 0.05760368749999856
                },
                {
                    "name": "G3",
                    "midi": 55,
                    "time": 40.437788624999975,
                    "velocity": 0.25196850393700787,
                    "duration": 0.03840245833333
                },
                {
                    "name": "F3",
                    "midi": 53,
                    "time": 40.476191083333305,
                    "velocity": 0.2125984251968504,
                    "duration": 0.03840245833333
                },
                {
                    "name": "G3",
                    "midi": 55,
                    "time": 40.514593541666635,
                    "velocity": 0.2125984251968504,
                    "duration": 0.03840245833333
                },
                {
                    "name": "G#3",
                    "midi": 56,
                    "time": 40.552995999999965,
                    "velocity": 0.2677165354330709,
                    "duration": 0.46082950000000267
                },
                {
                    "name": "F3",
                    "midi": 53,
                    "time": 41.00422488541663,
                    "velocity": 0.2204724409448819,
                    "duration": 0.46082950000000267
                },
                {
                    "name": "D#3",
                    "midi": 51,
                    "time": 41.47465499999997,
                    "velocity": 0.2204724409448819,
                    "duration": 0.9216589999999982
                },
                {
                    "name": "D3",
                    "midi": 50,
                    "time": 42.39631399999997,
                    "velocity": 0.25984251968503935,
                    "duration": 0.46082950000000267
                },
                {
                    "name": "F3",
                    "midi": 53,
                    "time": 42.39631399999997,
                    "velocity": 0.30708661417322836,
                    "duration": 0.46082950000000267
                },
                {
                    "name": "D#3",
                    "midi": 51,
                    "time": 42.85714349999997,
                    "velocity": 0.2204724409448819,
                    "duration": 0.9216589999999982
                },
                {
                    "name": "D3",
                    "midi": 50,
                    "time": 43.77880249999997,
                    "velocity": 0.2677165354330709,
                    "duration": 0.46082950000000267
                },
                {
                    "name": "F3",
                    "midi": 53,
                    "time": 43.77880249999997,
                    "velocity": 0.31496062992125984,
                    "duration": 0.46082950000000267
                },
                {
                    "name": "D#3",
                    "midi": 51,
                    "time": 44.23963199999997,
                    "velocity": 0.2204724409448819,
                    "duration": 0.9216589999999982
                },
                {
                    "name": "D3",
                    "midi": 50,
                    "time": 45.16129099999997,
                    "velocity": 0.28346456692913385,
                    "duration": 0.42242704166666556
                },
                {
                    "name": "F3",
                    "midi": 53,
                    "time": 45.16129099999997,
                    "velocity": 0.28346456692913385,
                    "duration": 0.42242704166666556
                },
                {
                    "name": "A#3",
                    "midi": 58,
                    "time": 45.16129099999997,
                    "velocity": 0.33858267716535434,
                    "duration": 0.42242704166666556
                },
                {
                    "name": "D3",
                    "midi": 50,
                    "time": 45.622120499999966,
                    "velocity": 0.18110236220472442,
                    "duration": 1.382488500000001
                },
                {
                    "name": "F3",
                    "midi": 53,
                    "time": 45.622120499999966,
                    "velocity": 0.18110236220472442,
                    "duration": 1.382488500000001
                },
                {
                    "name": "A#3",
                    "midi": 58,
                    "time": 45.622120499999966,
                    "velocity": 0.2204724409448819,
                    "duration": 1.382488500000001
                },
                {
                    "name": "D#3",
                    "midi": 51,
                    "time": 47.00460899999997,
                    "velocity": 0.1968503937007874,
                    "duration": 0.9216589999999982
                },
                {
                    "name": "G3",
                    "midi": 55,
                    "time": 48.38709749999997,
                    "velocity": 0.25196850393700787,
                    "duration": 0.46082950000000267
                },
                {
                    "name": "A#3",
                    "midi": 58,
                    "time": 48.84792699999997,
                    "velocity": 0.29133858267716534,
                    "duration": 0.46082950000000267
                },
                {
                    "name": "D#4",
                    "midi": 63,
                    "time": 49.30875649999997,
                    "velocity": 0.33070866141732286,
                    "duration": 0.4416282708333341
                },
                {
                    "name": "G3",
                    "midi": 55,
                    "time": 49.769585999999975,
                    "velocity": 0.2992125984251969,
                    "duration": 1.824116770833335
                },
                {
                    "name": "A#3",
                    "midi": 58,
                    "time": 49.769585999999975,
                    "velocity": 0.2992125984251969,
                    "duration": 1.824116770833335
                },
                {
                    "name": "D#4",
                    "midi": 63,
                    "time": 49.769585999999975,
                    "velocity": 0.2992125984251969,
                    "duration": 1.824116770833335
                },
                {
                    "name": "G4",
                    "midi": 67,
                    "time": 49.769585999999975,
                    "velocity": 0.3543307086614173,
                    "duration": 1.824116770833335
                },
                {
                    "name": "A#3",
                    "midi": 58,
                    "time": 51.61290399999998,
                    "velocity": 0.28346456692913385,
                    "duration": 0.4416282708333341
                },
                {
                    "name": "D#4",
                    "midi": 63,
                    "time": 51.61290399999998,
                    "velocity": 0.28346456692913385,
                    "duration": 0.4416282708333341
                },
                {
                    "name": "G4",
                    "midi": 67,
                    "time": 51.61290399999998,
                    "velocity": 0.33858267716535434,
                    "duration": 0.4416282708333341
                },
                {
                    "name": "D#4",
                    "midi": 63,
                    "time": 52.07373349999998,
                    "velocity": 0.2755905511811024,
                    "duration": 0.4416282708333341
                },
                {
                    "name": "G4",
                    "midi": 67,
                    "time": 52.07373349999998,
                    "velocity": 0.33070866141732286,
                    "duration": 0.4416282708333341
                },
                {
                    "name": "D#4",
                    "midi": 63,
                    "time": 52.534562999999984,
                    "velocity": 0.18110236220472442,
                    "duration": 0.921658999999984
                },
                {
                    "name": "G4",
                    "midi": 67,
                    "time": 52.534562999999984,
                    "velocity": 0.2677165354330709,
                    "duration": 0.05760368749999856
                },
                {
                    "name": "G#4",
                    "midi": 68,
                    "time": 52.59216668749998,
                    "velocity": 0.2125984251968504,
                    "duration": 0.05760368749999856
                },
                {
                    "name": "G4",
                    "midi": 67,
                    "time": 52.64977037499998,
                    "velocity": 0.2677165354330709,
                    "duration": 0.05760368749999856
                },
                {
                    "name": "G#4",
                    "midi": 68,
                    "time": 52.70737406249998,
                    "velocity": 0.2283464566929134,
                    "duration": 0.05760368749999856
                },
                {
                    "name": "G4",
                    "midi": 67,
                    "time": 52.76497774999998,
                    "velocity": 0.25984251968503935,
                    "duration": 0.05760368749999856
                },
                {
                    "name": "G#4",
                    "midi": 68,
                    "time": 52.82258143749998,
                    "velocity": 0.2125984251968504,
                    "duration": 0.05760368749999856
                },
                {
                    "name": "G4",
                    "midi": 67,
                    "time": 52.880185124999976,
                    "velocity": 0.25196850393700787,
                    "duration": 0.03840245833333
                },
                {
                    "name": "F4",
                    "midi": 65,
                    "time": 52.918587583333306,
                    "velocity": 0.2125984251968504,
                    "duration": 0.03840245833333
                },
                {
                    "name": "G4",
                    "midi": 67,
                    "time": 52.956990041666636,
                    "velocity": 0.2125984251968504,
                    "duration": 0.03840245833333
                },
                {
                    "name": "F4",
                    "midi": 65,
                    "time": 52.995392499999966,
                    "velocity": 0.2992125984251969,
                    "duration": 0.46082950000000267
                },
                {
                    "name": "G#4",
                    "midi": 68,
                    "time": 52.995392499999966,
                    "velocity": 0.3543307086614173,
                    "duration": 0.46082950000000267
                },
                {
                    "name": "A#3",
                    "midi": 58,
                    "time": 53.45622199999997,
                    "velocity": 0.25196850393700787,
                    "duration": 0.4416282708333341
                },
                {
                    "name": "D4",
                    "midi": 62,
                    "time": 53.45622199999997,
                    "velocity": 0.25196850393700787,
                    "duration": 0.4416282708333341
                },
                {
                    "name": "F4",
                    "midi": 65,
                    "time": 53.45622199999997,
                    "velocity": 0.2992125984251969,
                    "duration": 0.4416282708333341
                },
                {
                    "name": "A#3",
                    "midi": 58,
                    "time": 53.91705149999997,
                    "velocity": 0.2204724409448819,
                    "duration": 1.8433180000000036
                },
                {
                    "name": "D4",
                    "midi": 62,
                    "time": 53.91705149999997,
                    "velocity": 0.2204724409448819,
                    "duration": 1.382488500000001
                },
                {
                    "name": "F4",
                    "midi": 65,
                    "time": 53.91705149999997,
                    "velocity": 0.2677165354330709,
                    "duration": 1.382488500000001
                },
                {
                    "name": "D#4",
                    "midi": 63,
                    "time": 55.29953999999997,
                    "velocity": 0.25196850393700787,
                    "duration": 0.46082950000000267
                },
                {
                    "name": "G3",
                    "midi": 55,
                    "time": 56.68202849999997,
                    "velocity": 0.28346456692913385,
                    "duration": 0.46082950000000267
                },
                {
                    "name": "A#3",
                    "midi": 58,
                    "time": 56.68202849999997,
                    "velocity": 0.33858267716535434,
                    "duration": 0.46082950000000267
                },
                {
                    "name": "A#3",
                    "midi": 58,
                    "time": 57.142857999999976,
                    "velocity": 0.31496062992125984,
                    "duration": 0.46082950000000267
                },
                {
                    "name": "D#4",
                    "midi": 63,
                    "time": 57.142857999999976,
                    "velocity": 0.3779527559055118,
                    "duration": 0.46082950000000267
                },
                {
                    "name": "D#4",
                    "midi": 63,
                    "time": 57.60368749999998,
                    "velocity": 0.3543307086614173,
                    "duration": 0.46082950000000267
                },
                {
                    "name": "G4",
                    "midi": 67,
                    "time": 57.60368749999998,
                    "velocity": 0.4251968503937008,
                    "duration": 0.4416282708333341
                },
                {
                    "name": "G4",
                    "midi": 67,
                    "time": 58.06451699999998,
                    "velocity": 0.4015748031496063,
                    "duration": 3.2258065000000045
                },
                {
                    "name": "A#4",
                    "midi": 70,
                    "time": 58.06451699999998,
                    "velocity": 0.47244094488188976,
                    "duration": 3.2258065000000045
                },
                {
                    "name": "D#5",
                    "midi": 75,
                    "time": 59.90783499999998,
                    "velocity": 0.5511811023622047,
                    "duration": 0.4205069187500001
                },
                {
                    "name": "D#5",
                    "midi": 75,
                    "time": 60.36866449999998,
                    "velocity": 0.5039370078740157,
                    "duration": 0.4205069187500001
                },
                {
                    "name": "D#5",
                    "midi": 75,
                    "time": 60.82949399999998,
                    "velocity": 0.5275590551181102,
                    "duration": 0.43778802500000324
                },
                {
                    "name": "F#4",
                    "midi": 66,
                    "time": 61.290323499999985,
                    "velocity": 0.3464566929133858,
                    "duration": 0.46082950000000267
                },
                {
                    "name": "A4",
                    "midi": 69,
                    "time": 61.290323499999985,
                    "velocity": 0.3464566929133858,
                    "duration": 0.46082950000000267
                },
                {
                    "name": "D#5",
                    "midi": 75,
                    "time": 61.290323499999985,
                    "velocity": 0.44881889763779526,
                    "duration": 0.43778802500000324
                },
                {
                    "name": "D#5",
                    "midi": 75,
                    "time": 61.75115299999999,
                    "velocity": 0.5039370078740157,
                    "duration": 0.43778802500000324
                },
                {
                    "name": "F#4",
                    "midi": 66,
                    "time": 61.75115299999999,
                    "velocity": 0.3937007874015748,
                    "duration": 0.4416282708333341
                },
                {
                    "name": "A#4",
                    "midi": 70,
                    "time": 61.75115299999999,
                    "velocity": 0.3937007874015748,
                    "duration": 0.4416282708333341
                },
                {
                    "name": "F#4",
                    "midi": 66,
                    "time": 62.21198249999999,
                    "velocity": 0.3543307086614173,
                    "duration": 0.9216589999999982
                },
                {
                    "name": "C5",
                    "midi": 72,
                    "time": 62.21198249999999,
                    "velocity": 0.3543307086614173,
                    "duration": 1.382488500000001
                },
                {
                    "name": "D#5",
                    "midi": 75,
                    "time": 62.21198249999999,
                    "velocity": 0.5354330708661418,
                    "duration": 1.382488500000001
                },
                {
                    "name": "F4",
                    "midi": 65,
                    "time": 63.13364149999999,
                    "velocity": 0.2992125984251969,
                    "duration": 0.46082950000000267
                },
                {
                    "name": "F#4",
                    "midi": 66,
                    "time": 64.05530049999999,
                    "velocity": 0.2677165354330709,
                    "duration": 0.46082950000000267
                },
                {
                    "name": "C5",
                    "midi": 72,
                    "time": 64.05530049999999,
                    "velocity": 0.2677165354330709,
                    "duration": 0.9216590000000053
                },
                {
                    "name": "D#5",
                    "midi": 75,
                    "time": 64.05530049999999,
                    "velocity": 0.31496062992125984,
                    "duration": 0.9216590000000053
                },
                {
                    "name": "F4",
                    "midi": 65,
                    "time": 64.51612999999999,
                    "velocity": 0.2283464566929134,
                    "duration": 0.46082950000000267
                },
                {
                    "name": "F#4",
                    "midi": 66,
                    "time": 65.437789,
                    "velocity": 0.2677165354330709,
                    "duration": 0.46082950000000267
                },
                {
                    "name": "A#4",
                    "midi": 70,
                    "time": 65.437789,
                    "velocity": 0.2677165354330709,
                    "duration": 0.9216590000000053
                },
                {
                    "name": "C#5",
                    "midi": 73,
                    "time": 65.437789,
                    "velocity": 0.31496062992125984,
                    "duration": 0.9216590000000053
                },
                {
                    "name": "F4",
                    "midi": 65,
                    "time": 65.8986185,
                    "velocity": 0.2125984251968504,
                    "duration": 0.46082950000000267
                },
                {
                    "name": "C#5",
                    "midi": 73,
                    "time": 66.8202775,
                    "velocity": 0.2677165354330709,
                    "duration": 0.46082950000000267
                },
                {
                    "name": "D#4",
                    "midi": 63,
                    "time": 66.8202775,
                    "velocity": 0.2677165354330709,
                    "duration": 0.9216590000000053
                },
                {
                    "name": "F#4",
                    "midi": 66,
                    "time": 66.8202775,
                    "velocity": 0.31496062992125984,
                    "duration": 0.9216590000000053
                },
                {
                    "name": "B4",
                    "midi": 71,
                    "time": 67.281107,
                    "velocity": 0.2677165354330709,
                    "duration": 0.46082950000000267
                },
                {
                    "name": "B4",
                    "midi": 71,
                    "time": 68.20276600000001,
                    "velocity": 0.2677165354330709,
                    "duration": 0.46082950000000267
                },
                {
                    "name": "C#4",
                    "midi": 61,
                    "time": 68.20276600000001,
                    "velocity": 0.2677165354330709,
                    "duration": 0.9216590000000053
                },
                {
                    "name": "G4",
                    "midi": 67,
                    "time": 68.20276600000001,
                    "velocity": 0.31496062992125984,
                    "duration": 0.9216590000000053
                },
                {
                    "name": "A#4",
                    "midi": 70,
                    "time": 68.66359550000001,
                    "velocity": 0.2677165354330709,
                    "duration": 0.46082950000000267
                },
                {
                    "name": "A#4",
                    "midi": 70,
                    "time": 69.58525450000002,
                    "velocity": 0.2677165354330709,
                    "duration": 0.46082950000000267
                },
                {
                    "name": "C4",
                    "midi": 60,
                    "time": 69.58525450000002,
                    "velocity": 0.2677165354330709,
                    "duration": 0.9216590000000053
                },
                {
                    "name": "D#4",
                    "midi": 63,
                    "time": 69.58525450000002,
                    "velocity": 0.31496062992125984,
                    "duration": 0.9216590000000053
                },
                {
                    "name": "A4",
                    "midi": 69,
                    "time": 70.04608400000002,
                    "velocity": 0.2677165354330709,
                    "duration": 0.46082950000000267
                },
                {
                    "name": "D4",
                    "midi": 62,
                    "time": 70.50691350000002,
                    "velocity": 0.2677165354330709,
                    "duration": 0.9216590000000053
                },
                {
                    "name": "A#4",
                    "midi": 70,
                    "time": 70.50691350000002,
                    "velocity": 0.2677165354330709,
                    "duration": 0.9216590000000053
                },
                {
                    "name": "D5",
                    "midi": 74,
                    "time": 73.27189050000003,
                    "velocity": 0.44881889763779526,
                    "duration": 0.9216590000000053
                },
                {
                    "name": "C5",
                    "midi": 72,
                    "time": 74.19354950000003,
                    "velocity": 0.3779527559055118,
                    "duration": 0.23041474999999423
                },
                {
                    "name": "A#4",
                    "midi": 70,
                    "time": 74.42396425000003,
                    "velocity": 0.3700787401574803,
                    "duration": 0.23041474999999423
                },
                {
                    "name": "C4",
                    "midi": 60,
                    "time": 74.65437900000002,
                    "velocity": 0.23622047244094488,
                    "duration": 0.9216590000000053
                },
                {
                    "name": "D#4",
                    "midi": 63,
                    "time": 74.65437900000002,
                    "velocity": 0.2755905511811024,
                    "duration": 0.9024577708333368
                },
                {
                    "name": "A#4",
                    "midi": 70,
                    "time": 74.65437900000002,
                    "velocity": 0.4251968503937008,
                    "duration": 0.46082950000000267
                },
                {
                    "name": "A4",
                    "midi": 69,
                    "time": 75.11520850000002,
                    "velocity": 0.3700787401574803,
                    "duration": 0.46082950000000267
                },
                {
                    "name": "A#3",
                    "midi": 58,
                    "time": 75.57603800000003,
                    "velocity": 0.33858267716535434,
                    "duration": 0.23041474999999423
                },
                {
                    "name": "D#4",
                    "midi": 63,
                    "time": 75.57603800000003,
                    "velocity": 0.29133858267716534,
                    "duration": 0.4416282708333341
                },
                {
                    "name": "G4",
                    "midi": 67,
                    "time": 75.57603800000003,
                    "velocity": 0.4015748031496063,
                    "duration": 0.23041474999999423
                },
                {
                    "name": "A3",
                    "midi": 57,
                    "time": 75.80645275000002,
                    "velocity": 0.28346456692913385,
                    "duration": 0.21121352083333989
                },
                {
                    "name": "F4",
                    "midi": 65,
                    "time": 75.80645275000002,
                    "velocity": 0.33858267716535434,
                    "duration": 0.21121352083333989
                },
                {
                    "name": "A3",
                    "midi": 57,
                    "time": 76.03686750000003,
                    "velocity": 0.3779527559055118,
                    "duration": 0.9216590000000053
                },
                {
                    "name": "D#4",
                    "midi": 63,
                    "time": 76.03686750000003,
                    "velocity": 0.2755905511811024,
                    "duration": 2.7649769999999876
                },
                {
                    "name": "F4",
                    "midi": 65,
                    "time": 76.03686750000003,
                    "velocity": 0.3937007874015748,
                    "duration": 1.8433180000000107
                },
                {
                    "name": "G3",
                    "midi": 55,
                    "time": 76.95852650000003,
                    "velocity": 0.3543307086614173,
                    "duration": 0.23041474999999423
                },
                {
                    "name": "F3",
                    "midi": 53,
                    "time": 77.18894125000003,
                    "velocity": 0.2992125984251969,
                    "duration": 0.21121352083333989
                },
                {
                    "name": "F3",
                    "midi": 53,
                    "time": 77.41935600000004,
                    "velocity": 0.4015748031496063,
                    "duration": 0.6912442499999969
                },
                {
                    "name": "G4",
                    "midi": 67,
                    "time": 77.88018550000004,
                    "velocity": 0.3464566929133858,
                    "duration": 0.46082949999998846
                },
                {
                    "name": "D#3",
                    "midi": 51,
                    "time": 78.11060025000003,
                    "velocity": 0.2992125984251969,
                    "duration": 0.23041474999999423
                },
                {
                    "name": "D3",
                    "midi": 50,
                    "time": 78.34101500000003,
                    "velocity": 0.2992125984251969,
                    "duration": 0.23041474999999423
                },
                {
                    "name": "A4",
                    "midi": 69,
                    "time": 78.34101500000003,
                    "velocity": 0.36220472440944884,
                    "duration": 0.46082949999998846
                },
                {
                    "name": "D#3",
                    "midi": 51,
                    "time": 78.57142975000002,
                    "velocity": 0.2992125984251969,
                    "duration": 0.23041474999999423
                },
                {
                    "name": "A#4",
                    "midi": 70,
                    "time": 78.80184450000002,
                    "velocity": 0.4015748031496063,
                    "duration": 0.23041474999999423
                },
                {
                    "name": "D3",
                    "midi": 50,
                    "time": 78.80184450000002,
                    "velocity": 0.4015748031496063,
                    "duration": 0.9216589999999627
                },
                {
                    "name": "C5",
                    "midi": 72,
                    "time": 79.03225925000001,
                    "velocity": 0.3464566929133858,
                    "duration": 0.07680491666666
                },
                {
                    "name": "A#4",
                    "midi": 70,
                    "time": 79.10906416666667,
                    "velocity": 0.2992125984251969,
                    "duration": 0.07680491666666
                },
                {
                    "name": "A4",
                    "midi": 69,
                    "time": 79.18586908333333,
                    "velocity": 0.2992125984251969,
                    "duration": 0.07680491666666
                },
                {
                    "name": "A#4",
                    "midi": 70,
                    "time": 79.26267399999999,
                    "velocity": 0.4015748031496063,
                    "duration": 0.23041474999999423
                },
                {
                    "name": "C5",
                    "midi": 72,
                    "time": 79.49308874999998,
                    "velocity": 0.3700787401574803,
                    "duration": 0.23041474999999423
                },
                {
                    "name": "D5",
                    "midi": 74,
                    "time": 79.72350349999998,
                    "velocity": 0.3858267716535433,
                    "duration": 0.23041474999999423
                },
                {
                    "name": "D#5",
                    "midi": 75,
                    "time": 79.95391824999997,
                    "velocity": 0.3937007874015748,
                    "duration": 0.17281106250000278
                },
                {
                    "name": "D5",
                    "midi": 74,
                    "time": 80.12672931249998,
                    "velocity": 0.3779527559055118,
                    "duration": 0.05760368750000566
                },
                {
                    "name": "F5",
                    "midi": 77,
                    "time": 80.18433299999998,
                    "velocity": 0.44881889763779526,
                    "duration": 1.3824884999999938
                },
                {
                    "name": "E5",
                    "midi": 76,
                    "time": 81.56682149999997,
                    "velocity": 0.3700787401574803,
                    "duration": 0.23041474999999423
                },
                {
                    "name": "F5",
                    "midi": 77,
                    "time": 81.79723624999997,
                    "velocity": 0.4094488188976378,
                    "duration": 0.23041474999999423
                },
                {
                    "name": "G5",
                    "midi": 79,
                    "time": 82.02765099999996,
                    "velocity": 0.41732283464566927,
                    "duration": 0.23041474999999423
                },
                {
                    "name": "F5",
                    "midi": 77,
                    "time": 82.25806574999996,
                    "velocity": 0.4015748031496063,
                    "duration": 0.23041474999999423
                },
                {
                    "name": "D#5",
                    "midi": 75,
                    "time": 82.48848049999995,
                    "velocity": 0.41732283464566927,
                    "duration": 0.23041474999999423
                },
                {
                    "name": "D5",
                    "midi": 74,
                    "time": 82.71889524999995,
                    "velocity": 0.4015748031496063,
                    "duration": 0.21121352083333989
                },
                {
                    "name": "D#4",
                    "midi": 63,
                    "time": 82.94930999999995,
                    "velocity": 0.23622047244094488,
                    "duration": 0.9216590000000053
                },
                {
                    "name": "G4",
                    "midi": 67,
                    "time": 82.94930999999995,
                    "velocity": 0.2755905511811024,
                    "duration": 0.9024577708333368
                },
                {
                    "name": "D5",
                    "midi": 74,
                    "time": 82.94930999999995,
                    "velocity": 0.44881889763779526,
                    "duration": 0.46082950000000267
                },
                {
                    "name": "C5",
                    "midi": 72,
                    "time": 83.41013949999996,
                    "velocity": 0.3700787401574803,
                    "duration": 0.46082950000000267
                },
                {
                    "name": "D4",
                    "midi": 62,
                    "time": 83.87096899999996,
                    "velocity": 0.28346456692913385,
                    "duration": 0.23041474999999423
                },
                {
                    "name": "A#4",
                    "midi": 70,
                    "time": 83.87096899999996,
                    "velocity": 0.4015748031496063,
                    "duration": 0.23041474999999423
                },
                {
                    "name": "F4",
                    "midi": 65,
                    "time": 83.87096899999996,
                    "velocity": 0.33858267716535434,
                    "duration": 0.23041474999999423
                },
                {
                    "name": "C4",
                    "midi": 60,
                    "time": 84.10138374999995,
                    "velocity": 0.23622047244094488,
                    "duration": 0.21121352083333989
                },
                {
                    "name": "A4",
                    "midi": 69,
                    "time": 84.10138374999995,
                    "velocity": 0.33858267716535434,
                    "duration": 0.21121352083333989
                },
                {
                    "name": "D#4",
                    "midi": 63,
                    "time": 84.10138374999995,
                    "velocity": 0.28346456692913385,
                    "duration": 0.21121352083333989
                },
                {
                    "name": "C4",
                    "midi": 60,
                    "time": 84.33179849999996,
                    "velocity": 0.31496062992125984,
                    "duration": 0.9216590000000053
                },
                {
                    "name": "A4",
                    "midi": 69,
                    "time": 84.33179849999996,
                    "velocity": 0.3937007874015748,
                    "duration": 0.9216590000000053
                },
                {
                    "name": "D#4",
                    "midi": 63,
                    "time": 84.33179849999996,
                    "velocity": 0.2755905511811024,
                    "duration": 0.9024577708333368
                },
                {
                    "name": "D#4",
                    "midi": 63,
                    "time": 85.25345749999997,
                    "velocity": 0.2755905511811024,
                    "duration": 0.4416282708333341
                },
                {
                    "name": "A#3",
                    "midi": 58,
                    "time": 85.25345749999997,
                    "velocity": 0.3543307086614173,
                    "duration": 0.23041474999999423
                },
                {
                    "name": "G4",
                    "midi": 67,
                    "time": 85.25345749999997,
                    "velocity": 0.4015748031496063,
                    "duration": 0.23041474999999423
                },
                {
                    "name": "F4",
                    "midi": 65,
                    "time": 85.48387224999996,
                    "velocity": 0.33858267716535434,
                    "duration": 0.23041475000000844
                },
                {
                    "name": "A3",
                    "midi": 57,
                    "time": 85.48387224999996,
                    "velocity": 0.2992125984251969,
                    "duration": 0.21121352083333989
                },
                {
                    "name": "D#4",
                    "midi": 63,
                    "time": 85.71428699999997,
                    "velocity": 0.2755905511811024,
                    "duration": 1.3824884999999654
                },
                {
                    "name": "F4",
                    "midi": 65,
                    "time": 85.71428699999997,
                    "velocity": 0.4251968503937008,
                    "duration": 0.46082949999998846
                },
                {
                    "name": "A3",
                    "midi": 57,
                    "time": 85.71428699999997,
                    "velocity": 0.4015748031496063,
                    "duration": 0.23041474999999423
                },
                {
                    "name": "G3",
                    "midi": 55,
                    "time": 85.94470174999996,
                    "velocity": 0.2992125984251969,
                    "duration": 0.23041474999999423
                },
                {
                    "name": "F3",
                    "midi": 53,
                    "time": 86.17511649999996,
                    "velocity": 0.2992125984251969,
                    "duration": 0.23041474999999423
                },
                {
                    "name": "G4",
                    "midi": 67,
                    "time": 86.17511649999996,
                    "velocity": 0.3464566929133858,
                    "duration": 0.46082949999998846
                },
                {
                    "name": "D#3",
                    "midi": 51,
                    "time": 86.40553124999995,
                    "velocity": 0.2992125984251969,
                    "duration": 0.23041474999999423
                },
                {
                    "name": "D3",
                    "midi": 50,
                    "time": 86.63594599999995,
                    "velocity": 0.2992125984251969,
                    "duration": 0.23041474999999423
                },
                {
                    "name": "A4",
                    "midi": 69,
                    "time": 86.63594599999995,
                    "velocity": 0.36220472440944884,
                    "duration": 0.46082949999998846
                },
                {
                    "name": "C3",
                    "midi": 48,
                    "time": 86.86636074999994,
                    "velocity": 0.2992125984251969,
                    "duration": 0.23041474999999423
                },
                {
                    "name": "D4",
                    "midi": 62,
                    "time": 87.09677549999994,
                    "velocity": 0.4251968503937008,
                    "duration": 0.46082950000000267
                },
                {
                    "name": "A#4",
                    "midi": 70,
                    "time": 87.09677549999994,
                    "velocity": 0.4251968503937008,
                    "duration": 0.46082950000000267
                },
                {
                    "name": "C#5",
                    "midi": 73,
                    "time": 87.55760499999994,
                    "velocity": 0.31496062992125984,
                    "duration": 0.46082950000000267
                },
                {
                    "name": "D5",
                    "midi": 74,
                    "time": 88.01843449999994,
                    "velocity": 0.3464566929133858,
                    "duration": 0.46082950000000267
                },
                {
                    "name": "E5",
                    "midi": 76,
                    "time": 88.94009349999995,
                    "velocity": 0.3228346456692913,
                    "duration": 0.46082950000000267
                },
                {
                    "name": "F5",
                    "midi": 77,
                    "time": 89.40092299999995,
                    "velocity": 0.3464566929133858,
                    "duration": 0.46082950000000267
                },
                {
                    "name": "A5",
                    "midi": 81,
                    "time": 90.32258199999995,
                    "velocity": 0.31496062992125984,
                    "duration": 0.46082950000000267
                },
                {
                    "name": "A#5",
                    "midi": 82,
                    "time": 90.78341149999996,
                    "velocity": 0.3464566929133858,
                    "duration": 0.46082950000000267
                },
                {
                    "name": "F#5",
                    "midi": 78,
                    "time": 91.70507049999996,
                    "velocity": 0.3228346456692913,
                    "duration": 0.46082950000000267
                },
                {
                    "name": "G5",
                    "midi": 79,
                    "time": 92.16589999999997,
                    "velocity": 0.3464566929133858,
                    "duration": 0.46082950000000267
                },
                {
                    "name": "D5",
                    "midi": 74,
                    "time": 93.08755899999997,
                    "velocity": 0.31496062992125984,
                    "duration": 0.46082950000000267
                },
                {
                    "name": "D#5",
                    "midi": 75,
                    "time": 93.54838849999997,
                    "velocity": 0.33070866141732286,
                    "duration": 0.46082950000000267
                },
                {
                    "name": "B4",
                    "midi": 71,
                    "time": 94.47004749999998,
                    "velocity": 0.2992125984251969,
                    "duration": 0.46082950000000267
                },
                {
                    "name": "C5",
                    "midi": 72,
                    "time": 94.93087699999998,
                    "velocity": 0.33070866141732286,
                    "duration": 0.46082950000000267
                },
                {
                    "name": "F5",
                    "midi": 77,
                    "time": 95.85253599999999,
                    "velocity": 0.4645669291338583,
                    "duration": 1.1520737499999996
                },
                {
                    "name": "G5",
                    "midi": 79,
                    "time": 97.00460974999999,
                    "velocity": 0.47244094488188976,
                    "duration": 0.11520737499999711
                },
                {
                    "name": "A5",
                    "midi": 81,
                    "time": 97.11981712499998,
                    "velocity": 0.4881889763779528,
                    "duration": 0.11520737499999711
                },
                {
                    "name": "A#5",
                    "midi": 82,
                    "time": 97.23502449999998,
                    "velocity": 0.5039370078740157,
                    "duration": 0.11520737499999711
                },
                {
                    "name": "C6",
                    "midi": 84,
                    "time": 97.35023187499998,
                    "velocity": 0.5196850393700787,
                    "duration": 0.11520737499999711
                },
                {
                    "name": "D6",
                    "midi": 86,
                    "time": 97.46543924999997,
                    "velocity": 0.5354330708661418,
                    "duration": 0.11520737499999711
                },
                {
                    "name": "D#6",
                    "midi": 87,
                    "time": 97.58064662499997,
                    "velocity": 0.5511811023622047,
                    "duration": 0.11520737499999711
                },
                {
                    "name": "F6",
                    "midi": 89,
                    "time": 97.69585399999997,
                    "velocity": 0.5669291338582677,
                    "duration": 0.9216590000000053
                },
                {
                    "name": "D#6",
                    "midi": 87,
                    "time": 98.61751299999997,
                    "velocity": 0.5511811023622047,
                    "duration": 0.46082950000000267
                },
                {
                    "name": "C6",
                    "midi": 84,
                    "time": 99.07834249999998,
                    "velocity": 0.5196850393700787,
                    "duration": 0.46082950000000267
                },
                {
                    "name": "A#5",
                    "midi": 82,
                    "time": 99.53917199999998,
                    "velocity": 0.4566929133858268,
                    "duration": 0.5760368749999998
                },
                {
                    "name": "A5",
                    "midi": 81,
                    "time": 100.11520887499998,
                    "velocity": 0.3937007874015748,
                    "duration": 0.11520737499999711
                },
                {
                    "name": "D6",
                    "midi": 86,
                    "time": 100.23041624999998,
                    "velocity": 0.44881889763779526,
                    "duration": 0.12672811250000393
                },
                {
                    "name": "C6",
                    "midi": 84,
                    "time": 100.34562362499997,
                    "velocity": 0.4251968503937008,
                    "duration": 0.12672811250001814
                },
                {
                    "name": "A#5",
                    "midi": 82,
                    "time": 100.46083099999998,
                    "velocity": 0.41732283464566927,
                    "duration": 0.12672811250001814
                },
                {
                    "name": "A5",
                    "midi": 81,
                    "time": 100.576038375,
                    "velocity": 0.4015748031496063,
                    "duration": 0.12672811250001814
                },
                {
                    "name": "G5",
                    "midi": 79,
                    "time": 100.69124575000001,
                    "velocity": 0.3858267716535433,
                    "duration": 0.12672811250001814
                },
                {
                    "name": "F5",
                    "midi": 77,
                    "time": 100.80645312500002,
                    "velocity": 0.3700787401574803,
                    "duration": 0.12672811250001814
                },
                {
                    "name": "E5",
                    "midi": 76,
                    "time": 100.92166050000003,
                    "velocity": 0.41732283464566927,
                    "duration": 0.12672811250001814
                },
                {
                    "name": "F5",
                    "midi": 77,
                    "time": 101.03686787500004,
                    "velocity": 0.4015748031496063,
                    "duration": 0.12672811250001814
                },
                {
                    "name": "A#5",
                    "midi": 82,
                    "time": 101.15207525000005,
                    "velocity": 0.4645669291338583,
                    "duration": 0.12672811250001814
                },
                {
                    "name": "A5",
                    "midi": 81,
                    "time": 101.26728262500006,
                    "velocity": 0.4251968503937008,
                    "duration": 0.12672811250001814
                },
                {
                    "name": "G5",
                    "midi": 79,
                    "time": 101.38249000000008,
                    "velocity": 0.4251968503937008,
                    "duration": 0.12672811250001814
                },
                {
                    "name": "F5",
                    "midi": 77,
                    "time": 101.49769737500009,
                    "velocity": 0.4094488188976378,
                    "duration": 0.12672811250001814
                },
                {
                    "name": "D#5",
                    "midi": 75,
                    "time": 101.6129047500001,
                    "velocity": 0.3937007874015748,
                    "duration": 0.12672811250001814
                },
                {
                    "name": "D5",
                    "midi": 74,
                    "time": 101.72811212500011,
                    "velocity": 0.3937007874015748,
                    "duration": 0.12672811250001814
                },
                {
                    "name": "C#5",
                    "midi": 73,
                    "time": 101.84331950000012,
                    "velocity": 0.4094488188976378,
                    "duration": 0.12672811250001814
                },
                {
                    "name": "D5",
                    "midi": 74,
                    "time": 101.95852687500013,
                    "velocity": 0.36220472440944884,
                    "duration": 0.12672811250001814
                },
                {
                    "name": "G5",
                    "midi": 79,
                    "time": 102.07373425000014,
                    "velocity": 0.4409448818897638,
                    "duration": 0.12672811250001814
                },
                {
                    "name": "F5",
                    "midi": 77,
                    "time": 102.18894162500015,
                    "velocity": 0.4330708661417323,
                    "duration": 0.12672811250001814
                },
                {
                    "name": "D#5",
                    "midi": 75,
                    "time": 102.30414900000017,
                    "velocity": 0.4251968503937008,
                    "duration": 0.12672811250001814
                },
                {
                    "name": "D5",
                    "midi": 74,
                    "time": 102.41935637500018,
                    "velocity": 0.4094488188976378,
                    "duration": 0.12672811250001814
                },
                {
                    "name": "C5",
                    "midi": 72,
                    "time": 102.53456375000019,
                    "velocity": 0.3937007874015748,
                    "duration": 0.12672811250001814
                },
                {
                    "name": "A#4",
                    "midi": 70,
                    "time": 102.6497711250002,
                    "velocity": 0.3779527559055118,
                    "duration": 0.12672811250001814
                },
                {
                    "name": "A4",
                    "midi": 69,
                    "time": 102.76497850000021,
                    "velocity": 0.36220472440944884,
                    "duration": 0.12672811250001814
                },
                {
                    "name": "A#4",
                    "midi": 70,
                    "time": 102.88018587500022,
                    "velocity": 0.3543307086614173,
                    "duration": 0.12672811250001814
                },
                {
                    "name": "D#5",
                    "midi": 75,
                    "time": 102.99539325000023,
                    "velocity": 0.4094488188976378,
                    "duration": 0.12672811250001814
                },
                {
                    "name": "D5",
                    "midi": 74,
                    "time": 103.11060062500025,
                    "velocity": 0.4015748031496063,
                    "duration": 0.12672811250001814
                },
                {
                    "name": "C5",
                    "midi": 72,
                    "time": 103.22580800000026,
                    "velocity": 0.3858267716535433,
                    "duration": 0.12672811250001814
                },
                {
                    "name": "A#4",
                    "midi": 70,
                    "time": 103.34101537500027,
                    "velocity": 0.3700787401574803,
                    "duration": 0.12672811250001814
                },
                {
                    "name": "A4",
                    "midi": 69,
                    "time": 103.45622275000028,
                    "velocity": 0.3464566929133858,
                    "duration": 0.12672811250001814
                },
                {
                    "name": "G4",
                    "midi": 67,
                    "time": 103.57143012500029,
                    "velocity": 0.33070866141732286,
                    "duration": 0.12672811250001814
                },
                {
                    "name": "E4",
                    "midi": 64,
                    "time": 103.6866375000003,
                    "velocity": 0.30708661417322836,
                    "duration": 0.11520737500001133
                },
                {
                    "name": "F4",
                    "midi": 65,
                    "time": 103.80184487500031,
                    "velocity": 0.30708661417322836,
                    "duration": 0.11520737499999711
                },
                {
                    "name": "F#4",
                    "midi": 66,
                    "time": 103.91705225000031,
                    "velocity": 0.31496062992125984,
                    "duration": 0.11520737499999711
                },
                {
                    "name": "G4",
                    "midi": 67,
                    "time": 104.03225962500031,
                    "velocity": 0.3228346456692913,
                    "duration": 0.11520737499999711
                },
                {
                    "name": "G#4",
                    "midi": 68,
                    "time": 104.1474670000003,
                    "velocity": 0.33070866141732286,
                    "duration": 0.11520737499999711
                },
                {
                    "name": "A4",
                    "midi": 69,
                    "time": 104.2626743750003,
                    "velocity": 0.33070866141732286,
                    "duration": 0.11520737499999711
                },
                {
                    "name": "A#4",
                    "midi": 70,
                    "time": 104.3778817500003,
                    "velocity": 0.33858267716535434,
                    "duration": 0.11520737499999711
                },
                {
                    "name": "B4",
                    "midi": 71,
                    "time": 104.4930891250003,
                    "velocity": 0.3464566929133858,
                    "duration": 0.11520737499999711
                },
                {
                    "name": "C5",
                    "midi": 72,
                    "time": 104.6082965000003,
                    "velocity": 0.3543307086614173,
                    "duration": 0.11520737499999711
                },
                {
                    "name": "C#5",
                    "midi": 73,
                    "time": 104.72350387500029,
                    "velocity": 0.3543307086614173,
                    "duration": 0.11520737499999711
                },
                {
                    "name": "D5",
                    "midi": 74,
                    "time": 104.83871125000029,
                    "velocity": 0.36220472440944884,
                    "duration": 0.11520737499999711
                },
                {
                    "name": "D#5",
                    "midi": 75,
                    "time": 104.95391862500028,
                    "velocity": 0.3700787401574803,
                    "duration": 0.11520737499999711
                },
                {
                    "name": "E5",
                    "midi": 76,
                    "time": 105.06912600000028,
                    "velocity": 0.3858267716535433,
                    "duration": 0.11520737499999711
                },
                {
                    "name": "F5",
                    "midi": 77,
                    "time": 105.18433337500028,
                    "velocity": 0.3937007874015748,
                    "duration": 0.11520737499999711
                },
                {
                    "name": "F#5",
                    "midi": 78,
                    "time": 105.29954075000028,
                    "velocity": 0.4094488188976378,
                    "duration": 0.11520737499999711
                },
                {
                    "name": "G5",
                    "midi": 79,
                    "time": 105.41474812500027,
                    "velocity": 0.4251968503937008,
                    "duration": 0.11520737499999711
                },
                {
                    "name": "G#5",
                    "midi": 80,
                    "time": 105.52995550000027,
                    "velocity": 0.4409448818897638,
                    "duration": 0.11520737499999711
                },
                {
                    "name": "A5",
                    "midi": 81,
                    "time": 105.64516287500027,
                    "velocity": 0.4566929133858268,
                    "duration": 0.11520737499999711
                },
                {
                    "name": "A#5",
                    "midi": 82,
                    "time": 105.76037025000026,
                    "velocity": 0.47244094488188976,
                    "duration": 0.11520737499999711
                },
                {
                    "name": "B5",
                    "midi": 83,
                    "time": 105.87557762500026,
                    "velocity": 0.48031496062992124,
                    "duration": 0.11520737499999711
                },
                {
                    "name": "C6",
                    "midi": 84,
                    "time": 105.99078500000026,
                    "velocity": 0.5039370078740157,
                    "duration": 0.09216589999999769
                },
                {
                    "name": "C#6",
                    "midi": 85,
                    "time": 106.08295090000026,
                    "velocity": 0.5118110236220472,
                    "duration": 0.09216589999999769
                },
                {
                    "name": "D6",
                    "midi": 86,
                    "time": 106.17511680000025,
                    "velocity": 0.5275590551181102,
                    "duration": 0.09216589999999769
                },
                {
                    "name": "D#6",
                    "midi": 87,
                    "time": 106.26728270000025,
                    "velocity": 0.5433070866141733,
                    "duration": 0.09216589999999769
                },
                {
                    "name": "E6",
                    "midi": 88,
                    "time": 106.35944860000025,
                    "velocity": 0.5511811023622047,
                    "duration": 0.09216589999999769
                },
                {
                    "name": "F6",
                    "midi": 89,
                    "time": 106.45161450000025,
                    "velocity": 0.6299212598425197,
                    "duration": 0.5760368749999998
                },
                {
                    "name": "D#6",
                    "midi": 87,
                    "time": 107.02765137500025,
                    "velocity": 0.5433070866141733,
                    "duration": 0.11520737499999711
                },
                {
                    "name": "C6",
                    "midi": 84,
                    "time": 107.14285875000024,
                    "velocity": 0.5196850393700787,
                    "duration": 0.11520737499999711
                },
                {
                    "name": "A5",
                    "midi": 81,
                    "time": 107.25806612500024,
                    "velocity": 0.49606299212598426,
                    "duration": 0.11520737499999711
                },
                {
                    "name": "F5",
                    "midi": 77,
                    "time": 107.37327350000024,
                    "velocity": 0.47244094488188976,
                    "duration": 0.11520737499999711
                },
                {
                    "name": "D#5",
                    "midi": 75,
                    "time": 107.48848087500023,
                    "velocity": 0.44881889763779526,
                    "duration": 0.11520737499999711
                },
                {
                    "name": "C5",
                    "midi": 72,
                    "time": 107.60368825000023,
                    "velocity": 0.4251968503937008,
                    "duration": 0.11520737499999711
                },
                {
                    "name": "A4",
                    "midi": 69,
                    "time": 107.71889562500023,
                    "velocity": 0.4015748031496063,
                    "duration": 0.11520737499999711
                },
                {
                    "name": "A#4",
                    "midi": 70,
                    "time": 107.83410300000023,
                    "velocity": 0.4409448818897638,
                    "duration": 0.9216590000000053
                },
                {
                    "name": "A#4",
                    "midi": 70,
                    "time": 110.13825050000023,
                    "velocity": 0.4409448818897638,
                    "duration": 1.382488500000008
                },
                {
                    "name": "C#5",
                    "midi": 73,
                    "time": 110.13825050000023,
                    "velocity": 0.5275590551181102,
                    "duration": 0.9216590000000053
                },
                {
                    "name": "D5",
                    "midi": 74,
                    "time": 111.05990950000023,
                    "velocity": 0.4251968503937008,
                    "duration": 0.46082950000000267
                },
                {
                    "name": "A4",
                    "midi": 69,
                    "time": 111.52073900000023,
                    "velocity": 0.3937007874015748,
                    "duration": 0.46082950000000267
                },
                {
                    "name": "D#5",
                    "midi": 75,
                    "time": 111.52073900000023,
                    "velocity": 0.4645669291338583,
                    "duration": 0.34562212500000555
                },
                {
                    "name": "C5",
                    "midi": 72,
                    "time": 111.86636112500024,
                    "velocity": 0.41732283464566927,
                    "duration": 0.11520737499999711
                },
                {
                    "name": "D4",
                    "midi": 62,
                    "time": 111.98156850000024,
                    "velocity": 0.36220472440944884,
                    "duration": 0.9216590000000053
                },
                {
                    "name": "A#4",
                    "midi": 70,
                    "time": 111.98156850000024,
                    "velocity": 0.4409448818897638,
                    "duration": 0.9216590000000053
                },
                {
                    "name": "C#4",
                    "midi": 61,
                    "time": 114.28571600000024,
                    "velocity": 0.47244094488188976,
                    "duration": 0.9216590000000053
                },
                {
                    "name": "A#3",
                    "midi": 58,
                    "time": 114.28571600000024,
                    "velocity": 0.3937007874015748,
                    "duration": 1.382488500000008
                },
                {
                    "name": "D4",
                    "midi": 62,
                    "time": 115.20737500000024,
                    "velocity": 0.3779527559055118,
                    "duration": 0.46082950000000267
                },
                {
                    "name": "D#4",
                    "midi": 63,
                    "time": 115.66820450000024,
                    "velocity": 0.41732283464566927,
                    "duration": 0.34562212500000555
                },
                {
                    "name": "A3",
                    "midi": 57,
                    "time": 115.66820450000024,
                    "velocity": 0.3543307086614173,
                    "duration": 0.46082950000000267
                },
                {
                    "name": "C4",
                    "midi": 60,
                    "time": 116.01382662500025,
                    "velocity": 0.33858267716535434,
                    "duration": 0.11520737499999711
                },
                {
                    "name": "A#3",
                    "midi": 58,
                    "time": 116.12903400000025,
                    "velocity": 0.3779527559055118,
                    "duration": 0.46082950000000267
                },
                {
                    "name": "A3",
                    "midi": 57,
                    "time": 116.58986350000025,
                    "velocity": 0.33858267716535434,
                    "duration": 0.9216589999999911
                },
                {
                    "name": "D#4",
                    "midi": 63,
                    "time": 116.58986350000025,
                    "velocity": 0.4015748031496063,
                    "duration": 0.6912442499999969
                },
                {
                    "name": "C4",
                    "midi": 60,
                    "time": 117.28110775000025,
                    "velocity": 0.3464566929133858,
                    "duration": 0.23041474999999423
                },
                {
                    "name": "A#3",
                    "midi": 58,
                    "time": 117.51152250000024,
                    "velocity": 0.3779527559055118,
                    "duration": 0.46082950000000267
                },
                {
                    "name": "A3",
                    "midi": 57,
                    "time": 117.97235200000024,
                    "velocity": 0.33858267716535434,
                    "duration": 0.9216589999999911
                },
                {
                    "name": "D#4",
                    "midi": 63,
                    "time": 117.97235200000024,
                    "velocity": 0.4015748031496063,
                    "duration": 0.6912442499999969
                },
                {
                    "name": "C4",
                    "midi": 60,
                    "time": 118.66359625000024,
                    "velocity": 0.3464566929133858,
                    "duration": 0.23041474999999423
                },
                {
                    "name": "A#3",
                    "midi": 58,
                    "time": 118.89401100000023,
                    "velocity": 0.3779527559055118,
                    "duration": 0.46082950000000267
                },
                {
                    "name": "D#4",
                    "midi": 63,
                    "time": 119.35484050000024,
                    "velocity": 0.4645669291338583,
                    "duration": 0.23041474999999423
                },
                {
                    "name": "A3",
                    "midi": 57,
                    "time": 119.35484050000024,
                    "velocity": 0.3937007874015748,
                    "duration": 0.46082949999998846
                },
                {
                    "name": "D4",
                    "midi": 62,
                    "time": 119.58525525000023,
                    "velocity": 0.4330708661417323,
                    "duration": 0.23041474999999423
                },
                {
                    "name": "D#4",
                    "midi": 63,
                    "time": 119.81567000000022,
                    "velocity": 0.5433070866141733,
                    "duration": 0.23041474999999423
                },
                {
                    "name": "A3",
                    "midi": 57,
                    "time": 119.81567000000022,
                    "velocity": 0.4015748031496063,
                    "duration": 0.46082949999998846
                },
                {
                    "name": "C4",
                    "midi": 60,
                    "time": 120.04608475000022,
                    "velocity": 0.4881889763779528,
                    "duration": 0.23041474999999423
                },
                {
                    "name": "B3",
                    "midi": 59,
                    "time": 120.27649950000021,
                    "velocity": 0.30708661417322836,
                    "duration": 0.07680491666666
                },
                {
                    "name": "C4",
                    "midi": 60,
                    "time": 120.35330441666687,
                    "velocity": 0.2992125984251969,
                    "duration": 0.07680491666666
                },
                {
                    "name": "D4",
                    "midi": 62,
                    "time": 120.43010933333353,
                    "velocity": 0.25196850393700787,
                    "duration": 0.07680491666666
                },
                {
                    "name": "C4",
                    "midi": 60,
                    "time": 120.5069142500002,
                    "velocity": 0.33070866141732286,
                    "duration": 1.1520737499999996
                },
                {
                    "name": "A3",
                    "midi": 57,
                    "time": 120.5069142500002,
                    "velocity": 0.2755905511811024,
                    "duration": 1.1520737499999996
                },
                {
                    "name": "A#3",
                    "midi": 58,
                    "time": 121.65898800000019,
                    "velocity": 0.30708661417322836,
                    "duration": 0.9216590000000053
                },
                {
                    "name": "B3",
                    "midi": 59,
                    "time": 127.1889420000002,
                    "velocity": 0.25984251968503935,
                    "duration": 0.34562212500000555
                },
                {
                    "name": "C4",
                    "midi": 60,
                    "time": 127.5345641250002,
                    "velocity": 0.2204724409448819,
                    "duration": 0.11520737499999711
                },
                {
                    "name": "B3",
                    "midi": 59,
                    "time": 127.6497715000002,
                    "velocity": 0.2677165354330709,
                    "duration": 0.23041474999999423
                },
                {
                    "name": "A3",
                    "midi": 57,
                    "time": 127.8801862500002,
                    "velocity": 0.2283464566929134,
                    "duration": 0.23041475000000844
                },
                {
                    "name": "B3",
                    "midi": 59,
                    "time": 128.1106010000002,
                    "velocity": 0.2992125984251969,
                    "duration": 0.23041474999999423
                },
                {
                    "name": "C4",
                    "midi": 60,
                    "time": 128.3410157500002,
                    "velocity": 0.29133858267716534,
                    "duration": 0.23041474999999423
                },
                {
                    "name": "F3",
                    "midi": 53,
                    "time": 128.5714305000002,
                    "velocity": 0.1968503937007874,
                    "duration": 2.304147499999999
                },
                {
                    "name": "C#4",
                    "midi": 61,
                    "time": 128.5714305000002,
                    "velocity": 0.2677165354330709,
                    "duration": 1.3824884999999938
                },
                {
                    "name": "G#3",
                    "midi": 56,
                    "time": 128.5714305000002,
                    "velocity": 0.1968503937007874,
                    "duration": 2.304147499999999
                },
                {
                    "name": "B3",
                    "midi": 59,
                    "time": 128.5714305000002,
                    "velocity": 0.1968503937007874,
                    "duration": 2.304147499999999
                },
                {
                    "name": "D4",
                    "midi": 62,
                    "time": 129.95391900000018,
                    "velocity": 0.2677165354330709,
                    "duration": 0.9216590000000053
                },
                {
                    "name": "D#4",
                    "midi": 63,
                    "time": 131.68202962500018,
                    "velocity": 0.2204724409448819,
                    "duration": 0.11520737500001133
                },
                {
                    "name": "D4",
                    "midi": 62,
                    "time": 131.7972370000002,
                    "velocity": 0.2992125984251969,
                    "duration": 0.23041474999999423
                },
                {
                    "name": "C#4",
                    "midi": 61,
                    "time": 132.0276517500002,
                    "velocity": 0.25984251968503935,
                    "duration": 0.23041474999999423
                },
                {
                    "name": "D4",
                    "midi": 62,
                    "time": 132.25806650000018,
                    "velocity": 0.30708661417322836,
                    "duration": 0.23041474999999423
                },
                {
                    "name": "D#4",
                    "midi": 63,
                    "time": 132.48848125000018,
                    "velocity": 0.3228346456692913,
                    "duration": 0.23041474999999423
                },
                {
                    "name": "D4",
                    "midi": 62,
                    "time": 132.71889600000017,
                    "velocity": 0.1968503937007874,
                    "duration": 2.304147499999999
                },
                {
                    "name": "E4",
                    "midi": 64,
                    "time": 132.71889600000017,
                    "velocity": 0.2677165354330709,
                    "duration": 1.3824884999999938
                },
                {
                    "name": "G#3",
                    "midi": 56,
                    "time": 132.71889600000017,
                    "velocity": 0.1968503937007874,
                    "duration": 2.304147499999999
                },
                {
                    "name": "B3",
                    "midi": 59,
                    "time": 132.71889600000017,
                    "velocity": 0.1968503937007874,
                    "duration": 2.304147499999999
                },
                {
                    "name": "F4",
                    "midi": 65,
                    "time": 134.10138450000017,
                    "velocity": 0.2677165354330709,
                    "duration": 0.9216590000000053
                },
                {
                    "name": "C5",
                    "midi": 72,
                    "time": 135.82949512500016,
                    "velocity": 0.3543307086614173,
                    "duration": 0.11520737500001133
                },
                {
                    "name": "C4",
                    "midi": 60,
                    "time": 135.82949512500016,
                    "velocity": 0.2992125984251969,
                    "duration": 0.11520737500001133
                },
                {
                    "name": "B3",
                    "midi": 59,
                    "time": 135.94470250000018,
                    "velocity": 0.3464566929133858,
                    "duration": 0.23041474999999423
                },
                {
                    "name": "B4",
                    "midi": 71,
                    "time": 135.94470250000018,
                    "velocity": 0.4094488188976378,
                    "duration": 0.23041474999999423
                },
                {
                    "name": "A3",
                    "midi": 57,
                    "time": 136.17511725000017,
                    "velocity": 0.33858267716535434,
                    "duration": 0.23041474999999423
                },
                {
                    "name": "A4",
                    "midi": 69,
                    "time": 136.17511725000017,
                    "velocity": 0.4015748031496063,
                    "duration": 0.23041474999999423
                },
                {
                    "name": "B3",
                    "midi": 59,
                    "time": 136.40553200000016,
                    "velocity": 0.3937007874015748,
                    "duration": 0.23041474999999423
                },
                {
                    "name": "B4",
                    "midi": 71,
                    "time": 136.40553200000016,
                    "velocity": 0.4645669291338583,
                    "duration": 0.23041474999999423
                },
                {
                    "name": "C5",
                    "midi": 72,
                    "time": 136.63594675000016,
                    "velocity": 0.48031496062992124,
                    "duration": 0.23041474999999423
                },
                {
                    "name": "C4",
                    "midi": 60,
                    "time": 136.63594675000016,
                    "velocity": 0.4015748031496063,
                    "duration": 0.23041474999999423
                },
                {
                    "name": "C#5",
                    "midi": 73,
                    "time": 136.86636150000015,
                    "velocity": 0.5511811023622047,
                    "duration": 1.3824884999999938
                },
                {
                    "name": "C#4",
                    "midi": 61,
                    "time": 136.86636150000015,
                    "velocity": 0.4645669291338583,
                    "duration": 1.3824884999999938
                },
                {
                    "name": "D4",
                    "midi": 62,
                    "time": 138.24885000000015,
                    "velocity": 0.3228346456692913,
                    "duration": 0.34562212500000555
                },
                {
                    "name": "D5",
                    "midi": 74,
                    "time": 138.24885000000015,
                    "velocity": 0.3858267716535433,
                    "duration": 0.34562212500000555
                },
                {
                    "name": "D#5",
                    "midi": 75,
                    "time": 138.59447212500015,
                    "velocity": 0.4094488188976378,
                    "duration": 0.11520737500001133
                },
                {
                    "name": "D5",
                    "midi": 74,
                    "time": 138.70967950000016,
                    "velocity": 0.44881889763779526,
                    "duration": 0.23041474999999423
                },
                {
                    "name": "C#5",
                    "midi": 73,
                    "time": 138.94009425000016,
                    "velocity": 0.4094488188976378,
                    "duration": 0.23041474999999423
                },
                {
                    "name": "D5",
                    "midi": 74,
                    "time": 139.17050900000015,
                    "velocity": 0.4094488188976378,
                    "duration": 0.23041474999999423
                },
                {
                    "name": "D#5",
                    "midi": 75,
                    "time": 139.40092375000015,
                    "velocity": 0.4094488188976378,
                    "duration": 0.23041474999999423
                },
                {
                    "name": "F5",
                    "midi": 77,
                    "time": 139.63133850000014,
                    "velocity": 0.4566929133858268,
                    "duration": 0.23041474999999423
                },
                {
                    "name": "G5",
                    "midi": 79,
                    "time": 139.86175325000013,
                    "velocity": 0.4330708661417323,
                    "duration": 0.23041474999999423
                },
                {
                    "name": "G#5",
                    "midi": 80,
                    "time": 140.09216800000013,
                    "velocity": 0.4881889763779528,
                    "duration": 0.23041474999999423
                },
                {
                    "name": "G5",
                    "midi": 79,
                    "time": 140.32258275000012,
                    "velocity": 0.4330708661417323,
                    "duration": 0.23041474999999423
                },
                {
                    "name": "G#5",
                    "midi": 80,
                    "time": 140.55299750000012,
                    "velocity": 0.5196850393700787,
                    "duration": 0.23041474999999423
                },
                {
                    "name": "F5",
                    "midi": 77,
                    "time": 140.7834122500001,
                    "velocity": 0.47244094488188976,
                    "duration": 0.23041474999999423
                },
                {
                    "name": "F5",
                    "midi": 77,
                    "time": 141.0138270000001,
                    "velocity": 0.5511811023622047,
                    "duration": 1.3824884999999938
                },
                {
                    "name": "G4",
                    "midi": 67,
                    "time": 142.3963155000001,
                    "velocity": 0.3228346456692913,
                    "duration": 0.34562212500000555
                },
                {
                    "name": "E5",
                    "midi": 76,
                    "time": 142.3963155000001,
                    "velocity": 0.3858267716535433,
                    "duration": 0.34562212500000555
                },
                {
                    "name": "G#4",
                    "midi": 68,
                    "time": 142.7419376250001,
                    "velocity": 0.3779527559055118,
                    "duration": 0.11520737500001133
                },
                {
                    "name": "G4",
                    "midi": 67,
                    "time": 142.85714500000012,
                    "velocity": 0.4094488188976378,
                    "duration": 0.23041474999999423
                },
                {
                    "name": "F#4",
                    "midi": 66,
                    "time": 143.0875597500001,
                    "velocity": 0.3779527559055118,
                    "duration": 0.23041474999999423
                },
                {
                    "name": "G4",
                    "midi": 67,
                    "time": 143.3179745000001,
                    "velocity": 0.3779527559055118,
                    "duration": 0.23041474999999423
                },
                {
                    "name": "A4",
                    "midi": 69,
                    "time": 143.5483892500001,
                    "velocity": 0.3779527559055118,
                    "duration": 0.23041474999999423
                },
                {
                    "name": "A#4",
                    "midi": 70,
                    "time": 143.7788040000001,
                    "velocity": 0.4330708661417323,
                    "duration": 0.23041474999999423
                },
                {
                    "name": "C5",
                    "midi": 72,
                    "time": 144.0092187500001,
                    "velocity": 0.3937007874015748,
                    "duration": 0.23041474999999423
                },
                {
                    "name": "C#5",
                    "midi": 73,
                    "time": 144.23963350000008,
                    "velocity": 0.5039370078740157,
                    "duration": 0.23041474999999423
                },
                {
                    "name": "C5",
                    "midi": 72,
                    "time": 144.47004825000008,
                    "velocity": 0.47244094488188976,
                    "duration": 0.23041474999999423
                },
                {
                    "name": "C#5",
                    "midi": 73,
                    "time": 144.70046300000007,
                    "velocity": 0.5354330708661418,
                    "duration": 0.23041474999999423
                },
                {
                    "name": "A#4",
                    "midi": 70,
                    "time": 144.93087775000006,
                    "velocity": 0.5039370078740157,
                    "duration": 0.23041474999999423
                },
                {
                    "name": "A#4",
                    "midi": 70,
                    "time": 145.16129250000006,
                    "velocity": 0.5511811023622047,
                    "duration": 1.3824884999999938
                },
                {
                    "name": "C5",
                    "midi": 72,
                    "time": 146.54378100000005,
                    "velocity": 0.3858267716535433,
                    "duration": 0.34562212500000555
                },
                {
                    "name": "A4",
                    "midi": 69,
                    "time": 146.54378100000005,
                    "velocity": 0.3228346456692913,
                    "duration": 0.34562212500000555
                },
                {
                    "name": "C#5",
                    "midi": 73,
                    "time": 146.88940312500006,
                    "velocity": 0.3779527559055118,
                    "duration": 0.11520737500001133
                },
                {
                    "name": "C5",
                    "midi": 72,
                    "time": 147.00461050000007,
                    "velocity": 0.4094488188976378,
                    "duration": 0.23041474999999423
                },
                {
                    "name": "B4",
                    "midi": 71,
                    "time": 147.23502525000006,
                    "velocity": 0.3779527559055118,
                    "duration": 0.23041474999999423
                },
                {
                    "name": "C5",
                    "midi": 72,
                    "time": 147.46544000000006,
                    "velocity": 0.3779527559055118,
                    "duration": 0.23041474999999423
                },
                {
                    "name": "D5",
                    "midi": 74,
                    "time": 147.69585475000005,
                    "velocity": 0.3779527559055118,
                    "duration": 0.23041474999999423
                },
                {
                    "name": "D#5",
                    "midi": 75,
                    "time": 147.92626950000005,
                    "velocity": 0.47244094488188976,
                    "duration": 0.23041474999999423
                },
                {
                    "name": "F5",
                    "midi": 77,
                    "time": 148.15668425000004,
                    "velocity": 0.4409448818897638,
                    "duration": 0.23041474999999423
                },
                {
                    "name": "F#5",
                    "midi": 78,
                    "time": 148.38709900000003,
                    "velocity": 0.5039370078740157,
                    "duration": 0.23041474999999423
                },
                {
                    "name": "F5",
                    "midi": 77,
                    "time": 148.61751375000003,
                    "velocity": 0.4566929133858268,
                    "duration": 0.23041474999999423
                },
                {
                    "name": "F#5",
                    "midi": 78,
                    "time": 148.84792850000002,
                    "velocity": 0.5275590551181102,
                    "duration": 0.23041474999999423
                },
                {
                    "name": "D#5",
                    "midi": 75,
                    "time": 149.07834325000002,
                    "velocity": 0.5039370078740157,
                    "duration": 0.23041474999999423
                },
                {
                    "name": "D#5",
                    "midi": 75,
                    "time": 149.308758,
                    "velocity": 0.5511811023622047,
                    "duration": 1.3824884999999938
                },
                {
                    "name": "F4",
                    "midi": 65,
                    "time": 150.6912465,
                    "velocity": 0.3228346456692913,
                    "duration": 0.34562212500000555
                },
                {
                    "name": "D5",
                    "midi": 74,
                    "time": 150.6912465,
                    "velocity": 0.3858267716535433,
                    "duration": 0.34562212500000555
                },
                {
                    "name": "F#4",
                    "midi": 66,
                    "time": 151.036868625,
                    "velocity": 0.3779527559055118,
                    "duration": 0.11520737500001133
                },
                {
                    "name": "F4",
                    "midi": 65,
                    "time": 151.15207600000002,
                    "velocity": 0.4094488188976378,
                    "duration": 0.23041474999999423
                },
                {
                    "name": "E4",
                    "midi": 64,
                    "time": 151.38249075000002,
                    "velocity": 0.3779527559055118,
                    "duration": 0.23041474999999423
                },
                {
                    "name": "F4",
                    "midi": 65,
                    "time": 151.6129055,
                    "velocity": 0.3779527559055118,
                    "duration": 0.23041474999999423
                },
                {
                    "name": "G4",
                    "midi": 67,
                    "time": 151.84332025,
                    "velocity": 0.3779527559055118,
                    "duration": 0.23041474999999423
                },
                {
                    "name": "G#4",
                    "midi": 68,
                    "time": 152.073735,
                    "velocity": 0.47244094488188976,
                    "duration": 0.23041474999999423
                },
                {
                    "name": "A#4",
                    "midi": 70,
                    "time": 152.30414975,
                    "velocity": 0.4251968503937008,
                    "duration": 0.23041474999999423
                },
                {
                    "name": "B4",
                    "midi": 71,
                    "time": 152.5345645,
                    "velocity": 0.5039370078740157,
                    "duration": 0.23041474999999423
                },
                {
                    "name": "A#4",
                    "midi": 70,
                    "time": 152.76497924999998,
                    "velocity": 0.4409448818897638,
                    "duration": 0.23041474999999423
                },
                {
                    "name": "B4",
                    "midi": 71,
                    "time": 152.99539399999998,
                    "velocity": 0.5275590551181102,
                    "duration": 0.23041474999999423
                },
                {
                    "name": "G#4",
                    "midi": 68,
                    "time": 153.22580874999997,
                    "velocity": 0.4645669291338583,
                    "duration": 0.23041474999999423
                },
                {
                    "name": "G#4",
                    "midi": 68,
                    "time": 153.45622349999996,
                    "velocity": 0.5511811023622047,
                    "duration": 1.3824884999999938
                },
                {
                    "name": "G4",
                    "midi": 67,
                    "time": 154.83871199999996,
                    "velocity": 0.3228346456692913,
                    "duration": 1.8241167708333137
                },
                {
                    "name": "A#4",
                    "midi": 70,
                    "time": 154.83871199999996,
                    "velocity": 0.3858267716535433,
                    "duration": 0.34562212500000555
                },
                {
                    "name": "B4",
                    "midi": 71,
                    "time": 155.18433412499996,
                    "velocity": 0.3779527559055118,
                    "duration": 0.11520737500001133
                },
                {
                    "name": "A#4",
                    "midi": 70,
                    "time": 155.29954149999998,
                    "velocity": 0.41732283464566927,
                    "duration": 0.23041474999999423
                },
                {
                    "name": "A4",
                    "midi": 69,
                    "time": 155.52995624999997,
                    "velocity": 0.3858267716535433,
                    "duration": 0.23041474999999423
                },
                {
                    "name": "A#4",
                    "midi": 70,
                    "time": 155.76037099999996,
                    "velocity": 0.3937007874015748,
                    "duration": 0.23041474999999423
                },
                {
                    "name": "B4",
                    "midi": 71,
                    "time": 155.99078574999996,
                    "velocity": 0.3937007874015748,
                    "duration": 0.23041474999999423
                },
                {
                    "name": "C#5",
                    "midi": 73,
                    "time": 156.22120049999995,
                    "velocity": 0.5039370078740157,
                    "duration": 0.23041474999999423
                },
                {
                    "name": "D#5",
                    "midi": 75,
                    "time": 156.45161524999995,
                    "velocity": 0.47244094488188976,
                    "duration": 0.23041474999999423
                },
                {
                    "name": "E5",
                    "midi": 76,
                    "time": 156.68202999999994,
                    "velocity": 0.5511811023622047,
                    "duration": 0.23041474999999423
                },
                {
                    "name": "G4",
                    "midi": 67,
                    "time": 156.68202999999994,
                    "velocity": 0.3543307086614173,
                    "duration": 0.4147465499999896
                },
                {
                    "name": "D#5",
                    "midi": 75,
                    "time": 156.91244474999993,
                    "velocity": 0.5039370078740157,
                    "duration": 0.23041474999999423
                },
                {
                    "name": "G4",
                    "midi": 67,
                    "time": 157.14285949999993,
                    "velocity": 0.3543307086614173,
                    "duration": 0.46082949999998846
                },
                {
                    "name": "E5",
                    "midi": 76,
                    "time": 157.14285949999993,
                    "velocity": 0.5905511811023622,
                    "duration": 0.23041474999999423
                },
                {
                    "name": "C#5",
                    "midi": 73,
                    "time": 157.37327424999992,
                    "velocity": 0.5433070866141733,
                    "duration": 0.23041474999999423
                },
                {
                    "name": "G#4",
                    "midi": 68,
                    "time": 157.60368899999992,
                    "velocity": 0.3858267716535433,
                    "duration": 0.9216589999999769
                },
                {
                    "name": "B4",
                    "midi": 71,
                    "time": 157.60368899999992,
                    "velocity": 0.3858267716535433,
                    "duration": 0.23041474999999423
                },
                {
                    "name": "C#5",
                    "midi": 73,
                    "time": 157.8341037499999,
                    "velocity": 0.36220472440944884,
                    "duration": 0.23041474999999423
                },
                {
                    "name": "D#5",
                    "midi": 75,
                    "time": 158.0645184999999,
                    "velocity": 0.4094488188976378,
                    "duration": 0.23041474999999423
                },
                {
                    "name": "C#5",
                    "midi": 73,
                    "time": 158.2949332499999,
                    "velocity": 0.3543307086614173,
                    "duration": 0.23041474999999423
                },
                {
                    "name": "D#5",
                    "midi": 75,
                    "time": 158.5253479999999,
                    "velocity": 0.4015748031496063,
                    "duration": 0.23041474999999423
                },
                {
                    "name": "B4",
                    "midi": 71,
                    "time": 158.7557627499999,
                    "velocity": 0.3779527559055118,
                    "duration": 0.23041474999999423
                },
                {
                    "name": "A#4",
                    "midi": 70,
                    "time": 158.98617749999988,
                    "velocity": 0.3858267716535433,
                    "duration": 0.23041474999999423
                },
                {
                    "name": "B4",
                    "midi": 71,
                    "time": 159.21659224999988,
                    "velocity": 0.3464566929133858,
                    "duration": 0.23041474999999423
                },
                {
                    "name": "C#5",
                    "midi": 73,
                    "time": 159.44700699999987,
                    "velocity": 0.4094488188976378,
                    "duration": 0.23041474999999423
                },
                {
                    "name": "B4",
                    "midi": 71,
                    "time": 159.67742174999987,
                    "velocity": 0.36220472440944884,
                    "duration": 0.23041474999999423
                },
                {
                    "name": "C#5",
                    "midi": 73,
                    "time": 159.90783649999986,
                    "velocity": 0.3858267716535433,
                    "duration": 0.23041474999999423
                },
                {
                    "name": "A#4",
                    "midi": 70,
                    "time": 160.13825124999985,
                    "velocity": 0.33070866141732286,
                    "duration": 0.23041474999999423
                },
                {
                    "name": "G#4",
                    "midi": 68,
                    "time": 160.36866599999985,
                    "velocity": 0.3858267716535433,
                    "duration": 0.23041474999999423
                },
                {
                    "name": "A#4",
                    "midi": 70,
                    "time": 160.59908074999984,
                    "velocity": 0.3543307086614173,
                    "duration": 0.23041474999999423
                },
                {
                    "name": "B4",
                    "midi": 71,
                    "time": 160.82949549999984,
                    "velocity": 0.3858267716535433,
                    "duration": 0.23041474999999423
                },
                {
                    "name": "D#5",
                    "midi": 75,
                    "time": 160.82949549999984,
                    "velocity": 0.47244094488188976,
                    "duration": 0.4416282708333199
                },
                {
                    "name": "A#4",
                    "midi": 70,
                    "time": 161.05991024999983,
                    "velocity": 0.3543307086614173,
                    "duration": 0.23041474999999423
                },
                {
                    "name": "B4",
                    "midi": 71,
                    "time": 161.29032499999983,
                    "velocity": 0.3858267716535433,
                    "duration": 0.23041474999999423
                },
                {
                    "name": "D#5",
                    "midi": 75,
                    "time": 161.29032499999983,
                    "velocity": 0.47244094488188976,
                    "duration": 0.46082949999998846
                },
                {
                    "name": "G#4",
                    "midi": 68,
                    "time": 161.52073974999982,
                    "velocity": 0.3543307086614173,
                    "duration": 0.23041474999999423
                },
                {
                    "name": "E5",
                    "midi": 76,
                    "time": 161.7511544999998,
                    "velocity": 0.5118110236220472,
                    "duration": 0.9216589999999769
                },
                {
                    "name": "G4",
                    "midi": 67,
                    "time": 161.7511544999998,
                    "velocity": 0.3464566929133858,
                    "duration": 0.23041474999999423
                },
                {
                    "name": "G#4",
                    "midi": 68,
                    "time": 161.9815692499998,
                    "velocity": 0.3228346456692913,
                    "duration": 0.23041474999999423
                },
                {
                    "name": "A#4",
                    "midi": 70,
                    "time": 162.2119839999998,
                    "velocity": 0.36220472440944884,
                    "duration": 0.23041474999999423
                },
                {
                    "name": "G#4",
                    "midi": 68,
                    "time": 162.4423987499998,
                    "velocity": 0.31496062992125984,
                    "duration": 0.23041474999999423
                },
                {
                    "name": "A#4",
                    "midi": 70,
                    "time": 162.6728134999998,
                    "velocity": 0.3543307086614173,
                    "duration": 0.23041474999999423
                },
                {
                    "name": "D#5",
                    "midi": 75,
                    "time": 162.6728134999998,
                    "velocity": 0.47244094488188976,
                    "duration": 0.46082949999998846
                },
                {
                    "name": "G4",
                    "midi": 67,
                    "time": 162.90322824999978,
                    "velocity": 0.33858267716535434,
                    "duration": 0.23041474999999423
                },
                {
                    "name": "G#4",
                    "midi": 68,
                    "time": 163.13364299999978,
                    "velocity": 0.3464566929133858,
                    "duration": 0.23041474999999423
                },
                {
                    "name": "A#4",
                    "midi": 70,
                    "time": 163.36405774999977,
                    "velocity": 0.30708661417322836,
                    "duration": 0.23041474999999423
                },
                {
                    "name": "B4",
                    "midi": 71,
                    "time": 163.59447249999977,
                    "velocity": 0.36220472440944884,
                    "duration": 0.23041474999999423
                },
                {
                    "name": "A#4",
                    "midi": 70,
                    "time": 163.82488724999976,
                    "velocity": 0.3228346456692913,
                    "duration": 0.23041474999999423
                },
                {
                    "name": "B4",
                    "midi": 71,
                    "time": 164.05530199999976,
                    "velocity": 0.3464566929133858,
                    "duration": 0.23041474999999423
                },
                {
                    "name": "G#4",
                    "midi": 68,
                    "time": 164.28571674999975,
                    "velocity": 0.29133858267716534,
                    "duration": 0.23041474999999423
                },
                {
                    "name": "F4",
                    "midi": 65,
                    "time": 164.51613149999974,
                    "velocity": 0.3464566929133858,
                    "duration": 0.23041474999999423
                },
                {
                    "name": "F#4",
                    "midi": 66,
                    "time": 164.74654624999974,
                    "velocity": 0.31496062992125984,
                    "duration": 0.23041474999999423
                },
                {
                    "name": "D5",
                    "midi": 74,
                    "time": 164.97696099999973,
                    "velocity": 0.47244094488188976,
                    "duration": 0.4416282708333199
                },
                {
                    "name": "G#4",
                    "midi": 68,
                    "time": 164.97696099999973,
                    "velocity": 0.3464566929133858,
                    "duration": 0.23041474999999423
                },
                {
                    "name": "F#4",
                    "midi": 66,
                    "time": 165.20737574999973,
                    "velocity": 0.31496062992125984,
                    "duration": 0.23041474999999423
                },
                {
                    "name": "D5",
                    "midi": 74,
                    "time": 165.43779049999972,
                    "velocity": 0.47244094488188976,
                    "duration": 0.46082949999998846
                },
                {
                    "name": "G#4",
                    "midi": 68,
                    "time": 165.43779049999972,
                    "velocity": 0.3464566929133858,
                    "duration": 0.23041474999999423
                },
                {
                    "name": "F4",
                    "midi": 65,
                    "time": 165.66820524999972,
                    "velocity": 0.31496062992125984,
                    "duration": 0.23041474999999423
                },
                {
                    "name": "D#5",
                    "midi": 75,
                    "time": 165.8986199999997,
                    "velocity": 0.5118110236220472,
                    "duration": 0.9216589999999769
                },
                {
                    "name": "D#4",
                    "midi": 63,
                    "time": 165.8986199999997,
                    "velocity": 0.3464566929133858,
                    "duration": 0.23041474999999423
                },
                {
                    "name": "F4",
                    "midi": 65,
                    "time": 166.1290347499997,
                    "velocity": 0.3228346456692913,
                    "duration": 0.23041474999999423
                },
                {
                    "name": "F#4",
                    "midi": 66,
                    "time": 166.3594494999997,
                    "velocity": 0.36220472440944884,
                    "duration": 0.23041474999999423
                },
                {
                    "name": "F4",
                    "midi": 65,
                    "time": 166.5898642499997,
                    "velocity": 0.31496062992125984,
                    "duration": 0.23041474999999423
                },
                {
                    "name": "A#4",
                    "midi": 70,
                    "time": 166.8202789999997,
                    "velocity": 0.47244094488188976,
                    "duration": 0.46082949999998846
                },
                {
                    "name": "F#4",
                    "midi": 66,
                    "time": 166.8202789999997,
                    "velocity": 0.3543307086614173,
                    "duration": 0.23041474999999423
                },
                {
                    "name": "D#4",
                    "midi": 63,
                    "time": 167.05069374999968,
                    "velocity": 0.33858267716535434,
                    "duration": 0.23041474999999423
                },
                {
                    "name": "D4",
                    "midi": 62,
                    "time": 167.28110849999968,
                    "velocity": 0.3464566929133858,
                    "duration": 0.23041474999999423
                },
                {
                    "name": "D#4",
                    "midi": 63,
                    "time": 167.51152324999967,
                    "velocity": 0.30708661417322836,
                    "duration": 0.23041474999999423
                },
                {
                    "name": "F4",
                    "midi": 65,
                    "time": 167.74193799999966,
                    "velocity": 0.36220472440944884,
                    "duration": 0.23041474999999423
                },
                {
                    "name": "D#4",
                    "midi": 63,
                    "time": 167.97235274999966,
                    "velocity": 0.3228346456692913,
                    "duration": 0.23041474999999423
                },
                {
                    "name": "F4",
                    "midi": 65,
                    "time": 168.20276749999965,
                    "velocity": 0.3464566929133858,
                    "duration": 0.23041474999999423
                },
                {
                    "name": "D4",
                    "midi": 62,
                    "time": 168.43318224999965,
                    "velocity": 0.29133858267716534,
                    "duration": 0.23041474999999423
                },
                {
                    "name": "D#4",
                    "midi": 63,
                    "time": 168.66359699999964,
                    "velocity": 0.3464566929133858,
                    "duration": 0.23041474999999423
                },
                {
                    "name": "F4",
                    "midi": 65,
                    "time": 168.89401174999963,
                    "velocity": 0.31496062992125984,
                    "duration": 0.23041474999999423
                },
                {
                    "name": "F#4",
                    "midi": 66,
                    "time": 169.12442649999963,
                    "velocity": 0.3464566929133858,
                    "duration": 0.23041474999999423
                },
                {
                    "name": "A#4",
                    "midi": 70,
                    "time": 169.12442649999963,
                    "velocity": 0.47244094488188976,
                    "duration": 0.4416282708333199
                },
                {
                    "name": "F4",
                    "midi": 65,
                    "time": 169.35484124999962,
                    "velocity": 0.31496062992125984,
                    "duration": 0.23041474999999423
                },
                {
                    "name": "A#4",
                    "midi": 70,
                    "time": 169.58525599999962,
                    "velocity": 0.47244094488188976,
                    "duration": 0.46082949999998846
                },
                {
                    "name": "F#4",
                    "midi": 66,
                    "time": 169.58525599999962,
                    "velocity": 0.3464566929133858,
                    "duration": 0.23041474999999423
                },
                {
                    "name": "D#4",
                    "midi": 63,
                    "time": 169.8156707499996,
                    "velocity": 0.31496062992125984,
                    "duration": 0.23041474999999423
                },
                {
                    "name": "B4",
                    "midi": 71,
                    "time": 170.0460854999996,
                    "velocity": 0.5118110236220472,
                    "duration": 0.9216589999999769
                },
                {
                    "name": "F4",
                    "midi": 65,
                    "time": 170.0460854999996,
                    "velocity": 0.3464566929133858,
                    "duration": 0.23041474999999423
                },
                {
                    "name": "F#4",
                    "midi": 66,
                    "time": 170.2765002499996,
                    "velocity": 0.3228346456692913,
                    "duration": 0.23041474999999423
                },
                {
                    "name": "G#4",
                    "midi": 68,
                    "time": 170.5069149999996,
                    "velocity": 0.36220472440944884,
                    "duration": 0.23041474999999423
                },
                {
                    "name": "F#4",
                    "midi": 66,
                    "time": 170.7373297499996,
                    "velocity": 0.31496062992125984,
                    "duration": 0.23041474999999423
                },
                {
                    "name": "A#4",
                    "midi": 70,
                    "time": 170.96774449999958,
                    "velocity": 0.47244094488188976,
                    "duration": 0.46082949999998846
                },
                {
                    "name": "G#4",
                    "midi": 68,
                    "time": 170.96774449999958,
                    "velocity": 0.3543307086614173,
                    "duration": 0.23041474999999423
                },
                {
                    "name": "F4",
                    "midi": 65,
                    "time": 171.19815924999958,
                    "velocity": 0.33858267716535434,
                    "duration": 0.23041474999999423
                },
                {
                    "name": "F#4",
                    "midi": 66,
                    "time": 171.42857399999957,
                    "velocity": 0.3464566929133858,
                    "duration": 0.23041474999999423
                },
                {
                    "name": "G#4",
                    "midi": 68,
                    "time": 171.65898874999957,
                    "velocity": 0.30708661417322836,
                    "duration": 0.23041474999999423
                },
                {
                    "name": "A#4",
                    "midi": 70,
                    "time": 171.88940349999956,
                    "velocity": 0.36220472440944884,
                    "duration": 0.23041474999999423
                },
                {
                    "name": "G#4",
                    "midi": 68,
                    "time": 172.11981824999955,
                    "velocity": 0.3228346456692913,
                    "duration": 0.23041474999999423
                },
                {
                    "name": "A#4",
                    "midi": 70,
                    "time": 172.35023299999955,
                    "velocity": 0.3464566929133858,
                    "duration": 0.23041474999999423
                },
                {
                    "name": "F#4",
                    "midi": 66,
                    "time": 172.58064774999954,
                    "velocity": 0.29133858267716534,
                    "duration": 0.23041474999999423
                },
                {
                    "name": "D#4",
                    "midi": 63,
                    "time": 172.81106249999954,
                    "velocity": 0.3464566929133858,
                    "duration": 0.23041474999999423
                },
                {
                    "name": "F4",
                    "midi": 65,
                    "time": 173.04147724999953,
                    "velocity": 0.31496062992125984,
                    "duration": 0.23041474999999423
                },
                {
                    "name": "F#4",
                    "midi": 66,
                    "time": 173.27189199999953,
                    "velocity": 0.3464566929133858,
                    "duration": 0.23041474999999423
                },
                {
                    "name": "A4",
                    "midi": 69,
                    "time": 173.27189199999953,
                    "velocity": 0.47244094488188976,
                    "duration": 0.4416282708333199
                },
                {
                    "name": "F4",
                    "midi": 65,
                    "time": 173.50230674999952,
                    "velocity": 0.31496062992125984,
                    "duration": 0.23041474999999423
                },
                {
                    "name": "F#4",
                    "midi": 66,
                    "time": 173.7327214999995,
                    "velocity": 0.3464566929133858,
                    "duration": 0.23041474999999423
                },
                {
                    "name": "A4",
                    "midi": 69,
                    "time": 173.7327214999995,
                    "velocity": 0.47244094488188976,
                    "duration": 0.46082949999998846
                },
                {
                    "name": "D#4",
                    "midi": 63,
                    "time": 173.9631362499995,
                    "velocity": 0.31496062992125984,
                    "duration": 0.23041474999999423
                },
                {
                    "name": "A#4",
                    "midi": 70,
                    "time": 174.1935509999995,
                    "velocity": 0.5118110236220472,
                    "duration": 3.225806499999919
                },
                {
                    "name": "D4",
                    "midi": 62,
                    "time": 174.1935509999995,
                    "velocity": 0.3464566929133858,
                    "duration": 0.23041474999999423
                },
                {
                    "name": "D#4",
                    "midi": 63,
                    "time": 174.4239657499995,
                    "velocity": 0.3228346456692913,
                    "duration": 0.23041474999999423
                },
                {
                    "name": "F4",
                    "midi": 65,
                    "time": 174.6543804999995,
                    "velocity": 0.36220472440944884,
                    "duration": 0.23041474999999423
                },
                {
                    "name": "D#4",
                    "midi": 63,
                    "time": 174.88479524999948,
                    "velocity": 0.31496062992125984,
                    "duration": 0.23041474999999423
                },
                {
                    "name": "D4",
                    "midi": 62,
                    "time": 175.11520999999948,
                    "velocity": 0.3543307086614173,
                    "duration": 0.23041474999999423
                },
                {
                    "name": "D#4",
                    "midi": 63,
                    "time": 175.34562474999947,
                    "velocity": 0.33858267716535434,
                    "duration": 0.23041474999999423
                },
                {
                    "name": "F4",
                    "midi": 65,
                    "time": 175.57603949999947,
                    "velocity": 0.3464566929133858,
                    "duration": 0.23041474999999423
                },
                {
                    "name": "F#4",
                    "midi": 66,
                    "time": 175.80645424999946,
                    "velocity": 0.30708661417322836,
                    "duration": 0.23041474999999423
                },
                {
                    "name": "G#4",
                    "midi": 68,
                    "time": 176.03686899999946,
                    "velocity": 0.36220472440944884,
                    "duration": 0.23041474999999423
                },
                {
                    "name": "F#4",
                    "midi": 66,
                    "time": 176.26728374999945,
                    "velocity": 0.3228346456692913,
                    "duration": 0.23041474999999423
                },
                {
                    "name": "F4",
                    "midi": 65,
                    "time": 176.49769849999944,
                    "velocity": 0.3464566929133858,
                    "duration": 0.23041474999999423
                },
                {
                    "name": "G#4",
                    "midi": 68,
                    "time": 176.72811324999944,
                    "velocity": 0.29133858267716534,
                    "duration": 0.23041474999999423
                },
                {
                    "name": "F#4",
                    "midi": 66,
                    "time": 176.95852799999943,
                    "velocity": 0.3464566929133858,
                    "duration": 0.23041474999999423
                },
                {
                    "name": "F4",
                    "midi": 65,
                    "time": 177.18894274999943,
                    "velocity": 0.31496062992125984,
                    "duration": 0.23041474999999423
                },
                {
                    "name": "A4",
                    "midi": 69,
                    "time": 177.41935749999942,
                    "velocity": 0.47244094488188976,
                    "duration": 0.4416282708333199
                },
                {
                    "name": "D#4",
                    "midi": 63,
                    "time": 177.41935749999942,
                    "velocity": 0.3464566929133858,
                    "duration": 0.23041474999999423
                },
                {
                    "name": "F4",
                    "midi": 65,
                    "time": 177.64977224999942,
                    "velocity": 0.31496062992125984,
                    "duration": 0.23041474999999423
                },
                {
                    "name": "A4",
                    "midi": 69,
                    "time": 177.8801869999994,
                    "velocity": 0.47244094488188976,
                    "duration": 0.46082949999998846
                },
                {
                    "name": "F#4",
                    "midi": 66,
                    "time": 177.8801869999994,
                    "velocity": 0.3464566929133858,
                    "duration": 0.23041474999999423
                },
                {
                    "name": "D#4",
                    "midi": 63,
                    "time": 178.1106017499994,
                    "velocity": 0.31496062992125984,
                    "duration": 0.23041474999999423
                },
                {
                    "name": "A#3",
                    "midi": 58,
                    "time": 178.3410164999994,
                    "velocity": 0.3464566929133858,
                    "duration": 0.23041474999999423
                },
                {
                    "name": "A#4",
                    "midi": 70,
                    "time": 178.3410164999994,
                    "velocity": 0.5118110236220472,
                    "duration": 3.225806499999919
                },
                {
                    "name": "C4",
                    "midi": 60,
                    "time": 178.5714312499994,
                    "velocity": 0.3228346456692913,
                    "duration": 0.23041474999999423
                },
                {
                    "name": "D4",
                    "midi": 62,
                    "time": 178.8018459999994,
                    "velocity": 0.36220472440944884,
                    "duration": 0.23041474999999423
                },
                {
                    "name": "C4",
                    "midi": 60,
                    "time": 179.03226074999938,
                    "velocity": 0.31496062992125984,
                    "duration": 0.23041474999999423
                },
                {
                    "name": "A#3",
                    "midi": 58,
                    "time": 179.26267549999938,
                    "velocity": 0.3543307086614173,
                    "duration": 0.23041474999999423
                },
                {
                    "name": "C4",
                    "midi": 60,
                    "time": 179.49309024999937,
                    "velocity": 0.33858267716535434,
                    "duration": 0.23041474999999423
                },
                {
                    "name": "D4",
                    "midi": 62,
                    "time": 179.72350499999936,
                    "velocity": 0.3464566929133858,
                    "duration": 0.23041474999999423
                },
                {
                    "name": "D#4",
                    "midi": 63,
                    "time": 179.95391974999936,
                    "velocity": 0.30708661417322836,
                    "duration": 0.23041474999999423
                },
                {
                    "name": "F4",
                    "midi": 65,
                    "time": 180.18433449999935,
                    "velocity": 0.36220472440944884,
                    "duration": 0.23041474999999423
                },
                {
                    "name": "D#4",
                    "midi": 63,
                    "time": 180.41474924999935,
                    "velocity": 0.3228346456692913,
                    "duration": 0.23041474999999423
                },
                {
                    "name": "D4",
                    "midi": 62,
                    "time": 180.64516399999934,
                    "velocity": 0.3464566929133858,
                    "duration": 0.23041474999999423
                },
                {
                    "name": "F4",
                    "midi": 65,
                    "time": 180.87557874999933,
                    "velocity": 0.29133858267716534,
                    "duration": 0.23041474999999423
                },
                {
                    "name": "D#4",
                    "midi": 63,
                    "time": 181.10599349999933,
                    "velocity": 0.3464566929133858,
                    "duration": 0.23041474999999423
                },
                {
                    "name": "D4",
                    "midi": 62,
                    "time": 181.33640824999932,
                    "velocity": 0.31496062992125984,
                    "duration": 0.23041474999999423
                },
                {
                    "name": "A4",
                    "midi": 69,
                    "time": 181.56682299999932,
                    "velocity": 0.47244094488188976,
                    "duration": 0.4416282708333199
                },
                {
                    "name": "C4",
                    "midi": 60,
                    "time": 181.56682299999932,
                    "velocity": 0.3464566929133858,
                    "duration": 0.23041474999999423
                },
                {
                    "name": "D4",
                    "midi": 62,
                    "time": 181.7972377499993,
                    "velocity": 0.31496062992125984,
                    "duration": 0.23041474999999423
                },
                {
                    "name": "D#4",
                    "midi": 63,
                    "time": 182.0276524999993,
                    "velocity": 0.3464566929133858,
                    "duration": 0.23041474999999423
                },
                {
                    "name": "A4",
                    "midi": 69,
                    "time": 182.0276524999993,
                    "velocity": 0.47244094488188976,
                    "duration": 0.46082949999998846
                },
                {
                    "name": "C4",
                    "midi": 60,
                    "time": 182.2580672499993,
                    "velocity": 0.31496062992125984,
                    "duration": 0.23041474999999423
                },
                {
                    "name": "A#3",
                    "midi": 58,
                    "time": 182.4884819999993,
                    "velocity": 0.3464566929133858,
                    "duration": 0.23041474999999423
                },
                {
                    "name": "C4",
                    "midi": 60,
                    "time": 182.7188967499993,
                    "velocity": 0.29133858267716534,
                    "duration": 0.23041474999999423
                },
                {
                    "name": "D4",
                    "midi": 62,
                    "time": 182.94931149999928,
                    "velocity": 0.3464566929133858,
                    "duration": 0.23041474999999423
                },
                {
                    "name": "C#4",
                    "midi": 61,
                    "time": 183.17972624999928,
                    "velocity": 0.2992125984251969,
                    "duration": 0.23041474999999423
                },
                {
                    "name": "D4",
                    "midi": 62,
                    "time": 183.41014099999927,
                    "velocity": 0.3228346456692913,
                    "duration": 0.23041474999999423
                },
                {
                    "name": "A#3",
                    "midi": 58,
                    "time": 183.64055574999927,
                    "velocity": 0.2677165354330709,
                    "duration": 0.23041474999999423
                },
                {
                    "name": "D4",
                    "midi": 62,
                    "time": 183.87097049999926,
                    "velocity": 0.3464566929133858,
                    "duration": 0.25345622500000786
                },
                {
                    "name": "E4",
                    "midi": 64,
                    "time": 184.10138524999925,
                    "velocity": 0.30708661417322836,
                    "duration": 0.2534562250000363
                },
                {
                    "name": "F4",
                    "midi": 65,
                    "time": 184.33179999999928,
                    "velocity": 0.31496062992125984,
                    "duration": 0.2534562250000363
                },
                {
                    "name": "E4",
                    "midi": 64,
                    "time": 184.5622147499993,
                    "velocity": 0.25984251968503935,
                    "duration": 0.2534562250000363
                },
                {
                    "name": "F4",
                    "midi": 65,
                    "time": 184.79262949999932,
                    "velocity": 0.30708661417322836,
                    "duration": 0.2534562250000363
                },
                {
                    "name": "D4",
                    "midi": 62,
                    "time": 185.02304424999934,
                    "velocity": 0.2677165354330709,
                    "duration": 0.2534562250000363
                },
                {
                    "name": "F4",
                    "midi": 65,
                    "time": 185.25345899999937,
                    "velocity": 0.3700787401574803,
                    "duration": 0.2534562250000363
                },
                {
                    "name": "G4",
                    "midi": 67,
                    "time": 185.4838737499994,
                    "velocity": 0.33858267716535434,
                    "duration": 0.2534562250000363
                },
                {
                    "name": "G#4",
                    "midi": 68,
                    "time": 185.7142884999994,
                    "velocity": 0.3937007874015748,
                    "duration": 0.2534562250000363
                },
                {
                    "name": "G4",
                    "midi": 67,
                    "time": 185.94470324999944,
                    "velocity": 0.33070866141732286,
                    "duration": 0.2534562250000363
                },
                {
                    "name": "G#4",
                    "midi": 68,
                    "time": 186.17511799999946,
                    "velocity": 0.41732283464566927,
                    "duration": 0.2534562250000363
                },
                {
                    "name": "F4",
                    "midi": 65,
                    "time": 186.40553274999948,
                    "velocity": 0.29133858267716534,
                    "duration": 0.2534562250000363
                },
                {
                    "name": "G#4",
                    "midi": 68,
                    "time": 186.6359474999995,
                    "velocity": 0.3228346456692913,
                    "duration": 0.2534562250000363
                },
                {
                    "name": "B4",
                    "midi": 71,
                    "time": 186.86636224999953,
                    "velocity": 0.28346456692913385,
                    "duration": 0.2534562250000363
                },
                {
                    "name": "C5",
                    "midi": 72,
                    "time": 187.09677699999955,
                    "velocity": 0.3228346456692913,
                    "duration": 0.2534562250000363
                },
                {
                    "name": "B4",
                    "midi": 71,
                    "time": 187.32719174999957,
                    "velocity": 0.29133858267716534,
                    "duration": 0.2534562250000363
                },
                {
                    "name": "D5",
                    "midi": 74,
                    "time": 187.5576064999996,
                    "velocity": 0.3228346456692913,
                    "duration": 0.2534562250000363
                },
                {
                    "name": "C5",
                    "midi": 72,
                    "time": 187.78802124999962,
                    "velocity": 0.28346456692913385,
                    "duration": 0.2534562250000363
                },
                {
                    "name": "A#4",
                    "midi": 70,
                    "time": 188.01843599999964,
                    "velocity": 0.3228346456692913,
                    "duration": 0.2534562250000363
                },
                {
                    "name": "G#4",
                    "midi": 68,
                    "time": 188.24885074999966,
                    "velocity": 0.28346456692913385,
                    "duration": 0.2534562250000363
                },
                {
                    "name": "G4",
                    "midi": 67,
                    "time": 188.47926549999968,
                    "velocity": 0.3228346456692913,
                    "duration": 0.2534562250000363
                },
                {
                    "name": "F4",
                    "midi": 65,
                    "time": 188.7096802499997,
                    "velocity": 0.2755905511811024,
                    "duration": 0.2534562250000363
                },
                {
                    "name": "E4",
                    "midi": 64,
                    "time": 188.94009499999973,
                    "velocity": 0.2755905511811024,
                    "duration": 0.2534562250000363
                },
                {
                    "name": "F4",
                    "midi": 65,
                    "time": 189.17050974999975,
                    "velocity": 0.2283464566929134,
                    "duration": 0.2534562250000363
                },
                {
                    "name": "G4",
                    "midi": 67,
                    "time": 189.40092449999977,
                    "velocity": 0.3228346456692913,
                    "duration": 0.2534562250000363
                },
                {
                    "name": "F4",
                    "midi": 65,
                    "time": 189.6313392499998,
                    "velocity": 0.28346456692913385,
                    "duration": 0.2534562250000363
                },
                {
                    "name": "G#4",
                    "midi": 68,
                    "time": 189.86175399999982,
                    "velocity": 0.3228346456692913,
                    "duration": 0.2534562250000363
                },
                {
                    "name": "F4",
                    "midi": 65,
                    "time": 190.09216874999984,
                    "velocity": 0.25196850393700787,
                    "duration": 0.2534562250000363
                },
                {
                    "name": "C4",
                    "midi": 60,
                    "time": 190.32258349999987,
                    "velocity": 0.2992125984251969,
                    "duration": 0.2534562250000363
                },
                {
                    "name": "D4",
                    "midi": 62,
                    "time": 190.5529982499999,
                    "velocity": 0.25196850393700787,
                    "duration": 0.23041475000002265
                },
                {
                    "name": "D#4",
                    "midi": 63,
                    "time": 190.7834129999999,
                    "velocity": 0.2992125984251969,
                    "duration": 0.9216590000000053
                },
                {
                    "name": "G4",
                    "midi": 67,
                    "time": 193.54838999999993,
                    "velocity": 0.2992125984251969,
                    "duration": 0.34562212500000555
                },
                {
                    "name": "G#4",
                    "midi": 68,
                    "time": 193.89401212499993,
                    "velocity": 0.28346456692913385,
                    "duration": 0.11520737500001133
                },
                {
                    "name": "G4",
                    "midi": 67,
                    "time": 194.00921949999994,
                    "velocity": 0.30708661417322836,
                    "duration": 0.23041474999999423
                },
                {
                    "name": "F4",
                    "midi": 65,
                    "time": 194.23963424999994,
                    "velocity": 0.28346456692913385,
                    "duration": 0.23041474999999423
                },
                {
                    "name": "G4",
                    "midi": 67,
                    "time": 194.47004899999993,
                    "velocity": 0.31496062992125984,
                    "duration": 0.23041474999999423
                },
                {
                    "name": "G#4",
                    "midi": 68,
                    "time": 194.70046374999993,
                    "velocity": 0.28346456692913385,
                    "duration": 0.23041474999999423
                },
                {
                    "name": "A4",
                    "midi": 69,
                    "time": 194.93087849999992,
                    "velocity": 0.3464566929133858,
                    "duration": 1.3824884999999938
                },
                {
                    "name": "A#4",
                    "midi": 70,
                    "time": 196.31336699999991,
                    "velocity": 0.4015748031496063,
                    "duration": 1.7281106249999993
                },
                {
                    "name": "C5",
                    "midi": 72,
                    "time": 198.0414776249999,
                    "velocity": 0.30708661417322836,
                    "duration": 0.11520737500001133
                },
                {
                    "name": "A#4",
                    "midi": 70,
                    "time": 198.15668499999992,
                    "velocity": 0.3858267716535433,
                    "duration": 0.23041474999999423
                },
                {
                    "name": "A4",
                    "midi": 69,
                    "time": 198.38709974999992,
                    "velocity": 0.33070866141732286,
                    "duration": 0.23041474999999423
                },
                {
                    "name": "A#4",
                    "midi": 70,
                    "time": 198.6175144999999,
                    "velocity": 0.4015748031496063,
                    "duration": 0.23041474999999423
                },
                {
                    "name": "B4",
                    "midi": 71,
                    "time": 198.8479292499999,
                    "velocity": 0.36220472440944884,
                    "duration": 0.23041474999999423
                },
                {
                    "name": "B4",
                    "midi": 71,
                    "time": 199.0783439999999,
                    "velocity": 0.3937007874015748,
                    "duration": 0.8064516250000224
                },
                {
                    "name": "C5",
                    "midi": 72,
                    "time": 199.7695882499999,
                    "velocity": 0.30708661417322836,
                    "duration": 0.05760368750000566
                },
                {
                    "name": "B4",
                    "midi": 71,
                    "time": 199.82719193749992,
                    "velocity": 0.25984251968503935,
                    "duration": 0.05760368750000566
                },
                {
                    "name": "A4",
                    "midi": 69,
                    "time": 199.88479562499992,
                    "velocity": 0.3228346456692913,
                    "duration": 0.05760368750000566
                },
                {
                    "name": "B4",
                    "midi": 71,
                    "time": 199.94239931249993,
                    "velocity": 0.29133858267716534,
                    "duration": 0.05760368750000566
                },
                {
                    "name": "D5",
                    "midi": 74,
                    "time": 200.00000299999994,
                    "velocity": 0.41732283464566927,
                    "duration": 0.34562212500000555
                },
                {
                    "name": "C5",
                    "midi": 72,
                    "time": 200.34562512499994,
                    "velocity": 0.3464566929133858,
                    "duration": 0.11520737500001133
                },
                {
                    "name": "F4",
                    "midi": 65,
                    "time": 200.46083249999995,
                    "velocity": 0.4330708661417323,
                    "duration": 1.7281106249999993
                },
                {
                    "name": "G4",
                    "midi": 67,
                    "time": 202.18894312499995,
                    "velocity": 0.30708661417322836,
                    "duration": 0.11520737500001133
                },
                {
                    "name": "F4",
                    "midi": 65,
                    "time": 202.30415049999996,
                    "velocity": 0.36220472440944884,
                    "duration": 0.23041474999999423
                },
                {
                    "name": "E4",
                    "midi": 64,
                    "time": 202.53456524999996,
                    "velocity": 0.33070866141732286,
                    "duration": 0.23041474999999423
                },
                {
                    "name": "F4",
                    "midi": 65,
                    "time": 202.76497999999995,
                    "velocity": 0.3858267716535433,
                    "duration": 0.23041474999999423
                },
                {
                    "name": "G4",
                    "midi": 67,
                    "time": 202.99539474999995,
                    "velocity": 0.36220472440944884,
                    "duration": 0.23041474999999423
                },
                {
                    "name": "G#4",
                    "midi": 68,
                    "time": 203.22580949999994,
                    "velocity": 0.4330708661417323,
                    "duration": 1.4976958750000051
                },
                {
                    "name": "G4",
                    "midi": 67,
                    "time": 204.72350537499995,
                    "velocity": 0.3700787401574803,
                    "duration": 0.11520737500001133
                },
                {
                    "name": "F4",
                    "midi": 65,
                    "time": 204.83871274999996,
                    "velocity": 0.3779527559055118,
                    "duration": 0.11520737500001133
                },
                {
                    "name": "E4",
                    "midi": 64,
                    "time": 204.95392012499997,
                    "velocity": 0.3779527559055118,
                    "duration": 0.11520737500001133
                },
                {
                    "name": "F4",
                    "midi": 65,
                    "time": 205.06912749999998,
                    "velocity": 0.3858267716535433,
                    "duration": 0.11520737500001133
                },
                {
                    "name": "G4",
                    "midi": 67,
                    "time": 205.184334875,
                    "velocity": 0.3937007874015748,
                    "duration": 0.11520737500001133
                },
                {
                    "name": "G#4",
                    "midi": 68,
                    "time": 205.29954225,
                    "velocity": 0.3937007874015748,
                    "duration": 0.11520737500001133
                },
                {
                    "name": "A#4",
                    "midi": 70,
                    "time": 205.414749625,
                    "velocity": 0.4015748031496063,
                    "duration": 0.11520737500001133
                },
                {
                    "name": "C5",
                    "midi": 72,
                    "time": 205.52995700000002,
                    "velocity": 0.4094488188976378,
                    "duration": 0.11520737500001133
                },
                {
                    "name": "D5",
                    "midi": 74,
                    "time": 205.64516437500004,
                    "velocity": 0.4015748031496063,
                    "duration": 0.11520737500001133
                },
                {
                    "name": "D#5",
                    "midi": 75,
                    "time": 205.76037175000005,
                    "velocity": 0.41732283464566927,
                    "duration": 0.11520737500001133
                },
                {
                    "name": "E5",
                    "midi": 76,
                    "time": 205.87557912500006,
                    "velocity": 0.4251968503937008,
                    "duration": 0.11520737500001133
                },
                {
                    "name": "F5",
                    "midi": 77,
                    "time": 205.99078650000007,
                    "velocity": 0.4409448818897638,
                    "duration": 0.11520737500001133
                },
                {
                    "name": "G5",
                    "midi": 79,
                    "time": 206.10599387500008,
                    "velocity": 0.44881889763779526,
                    "duration": 0.11520737500001133
                },
                {
                    "name": "G#5",
                    "midi": 80,
                    "time": 206.2212012500001,
                    "velocity": 0.4645669291338583,
                    "duration": 0.11520737500001133
                },
                {
                    "name": "A#5",
                    "midi": 82,
                    "time": 206.3364086250001,
                    "velocity": 0.47244094488188976,
                    "duration": 0.11520737500001133
                },
                {
                    "name": "C6",
                    "midi": 84,
                    "time": 206.45161600000012,
                    "velocity": 0.49606299212598426,
                    "duration": 0.11520737500001133
                },
                {
                    "name": "B5",
                    "midi": 83,
                    "time": 206.56682337500013,
                    "velocity": 0.4645669291338583,
                    "duration": 0.11520737500001133
                },
                {
                    "name": "D6",
                    "midi": 86,
                    "time": 206.68203075000014,
                    "velocity": 0.49606299212598426,
                    "duration": 0.11520737500001133
                },
                {
                    "name": "C6",
                    "midi": 84,
                    "time": 206.79723812500015,
                    "velocity": 0.48031496062992124,
                    "duration": 0.11520737500001133
                },
                {
                    "name": "A#5",
                    "midi": 82,
                    "time": 206.91244550000016,
                    "velocity": 0.47244094488188976,
                    "duration": 0.11520737500001133
                },
                {
                    "name": "G#5",
                    "midi": 80,
                    "time": 207.02765287500017,
                    "velocity": 0.4566929133858268,
                    "duration": 0.11520737500001133
                },
                {
                    "name": "G5",
                    "midi": 79,
                    "time": 207.14286025000018,
                    "velocity": 0.4409448818897638,
                    "duration": 0.11520737500001133
                },
                {
                    "name": "F5",
                    "midi": 77,
                    "time": 207.2580676250002,
                    "velocity": 0.41732283464566927,
                    "duration": 0.11520737500001133
                },
                {
                    "name": "F#5",
                    "midi": 78,
                    "time": 207.3732750000002,
                    "velocity": 0.4566929133858268,
                    "duration": 1.3824884999999938
                },
                {
                    "name": "G5",
                    "midi": 79,
                    "time": 208.7557635000002,
                    "velocity": 0.4330708661417323,
                    "duration": 1.612903249999988
                },
                {
                    "name": "D#4",
                    "midi": 63,
                    "time": 210.3686667500002,
                    "velocity": 0.4330708661417323,
                    "duration": 0.23041474999999423
                },
                {
                    "name": "G4",
                    "midi": 67,
                    "time": 210.59908150000018,
                    "velocity": 0.4645669291338583,
                    "duration": 0.23041474999999423
                },
                {
                    "name": "A#4",
                    "midi": 70,
                    "time": 210.82949625000018,
                    "velocity": 0.4881889763779528,
                    "duration": 0.23041474999999423
                },
                {
                    "name": "D#5",
                    "midi": 75,
                    "time": 211.05991100000017,
                    "velocity": 0.5196850393700787,
                    "duration": 0.23041474999999423
                },
                {
                    "name": "G5",
                    "midi": 79,
                    "time": 211.29032575000016,
                    "velocity": 0.5433070866141733,
                    "duration": 0.23041474999999423
                },
                {
                    "name": "A#5",
                    "midi": 82,
                    "time": 211.52074050000016,
                    "velocity": 0.5669291338582677,
                    "duration": 1.612903249999988
                },
                {
                    "name": "F#5",
                    "midi": 78,
                    "time": 213.13364375000015,
                    "velocity": 0.4330708661417323,
                    "duration": 0.23041474999999423
                },
                {
                    "name": "G5",
                    "midi": 79,
                    "time": 213.36405850000014,
                    "velocity": 0.4881889763779528,
                    "duration": 0.23041474999999423
                },
                {
                    "name": "D5",
                    "midi": 74,
                    "time": 213.59447325000014,
                    "velocity": 0.44881889763779526,
                    "duration": 0.23041474999999423
                },
                {
                    "name": "D#5",
                    "midi": 75,
                    "time": 213.82488800000013,
                    "velocity": 0.5039370078740157,
                    "duration": 0.23041474999999423
                },
                {
                    "name": "A4",
                    "midi": 69,
                    "time": 214.05530275000012,
                    "velocity": 0.44881889763779526,
                    "duration": 0.23041474999999423
                },
                {
                    "name": "A#4",
                    "midi": 70,
                    "time": 214.28571750000012,
                    "velocity": 0.5196850393700787,
                    "duration": 0.23041474999999423
                },
                {
                    "name": "F#4",
                    "midi": 66,
                    "time": 214.5161322500001,
                    "velocity": 0.44881889763779526,
                    "duration": 0.23041474999999423
                },
                {
                    "name": "G4",
                    "midi": 67,
                    "time": 214.7465470000001,
                    "velocity": 0.5354330708661418,
                    "duration": 0.23041474999999423
                },
                {
                    "name": "D4",
                    "midi": 62,
                    "time": 214.9769617500001,
                    "velocity": 0.4645669291338583,
                    "duration": 0.23041474999999423
                },
                {
                    "name": "D#4",
                    "midi": 63,
                    "time": 215.2073765000001,
                    "velocity": 0.5433070866141733,
                    "duration": 0.23041474999999423
                },
                {
                    "name": "G4",
                    "midi": 67,
                    "time": 215.4377912500001,
                    "velocity": 0.44881889763779526,
                    "duration": 0.23041474999999423
                },
                {
                    "name": "G4",
                    "midi": 67,
                    "time": 215.66820600000008,
                    "velocity": 0.5433070866141733,
                    "duration": 0.46082949999998846
                },
                {
                    "name": "C4",
                    "midi": 60,
                    "time": 216.12903550000007,
                    "velocity": 0.49606299212598426,
                    "duration": 1.3824884999999938
                },
                {
                    "name": "C5",
                    "midi": 72,
                    "time": 217.51152400000007,
                    "velocity": 0.5433070866141733,
                    "duration": 1.3824884999999938
                },
                {
                    "name": "C6",
                    "midi": 84,
                    "time": 218.89401250000006,
                    "velocity": 0.5433070866141733,
                    "duration": 0.11520737500001133
                },
                {
                    "name": "B5",
                    "midi": 83,
                    "time": 219.00921987500007,
                    "velocity": 0.4881889763779528,
                    "duration": 0.11520737500001133
                },
                {
                    "name": "D6",
                    "midi": 86,
                    "time": 219.12442725000008,
                    "velocity": 0.5433070866141733,
                    "duration": 0.11520737500001133
                },
                {
                    "name": "C6",
                    "midi": 84,
                    "time": 219.2396346250001,
                    "velocity": 0.5354330708661418,
                    "duration": 0.11520737500001133
                },
                {
                    "name": "A#5",
                    "midi": 82,
                    "time": 219.3548420000001,
                    "velocity": 0.5275590551181102,
                    "duration": 0.11520737500001133
                },
                {
                    "name": "G#5",
                    "midi": 80,
                    "time": 219.47004937500012,
                    "velocity": 0.5118110236220472,
                    "duration": 0.11520737500001133
                },
                {
                    "name": "G5",
                    "midi": 79,
                    "time": 219.58525675000013,
                    "velocity": 0.5039370078740157,
                    "duration": 0.11520737500001133
                },
                {
                    "name": "F5",
                    "midi": 77,
                    "time": 219.70046412500014,
                    "velocity": 0.4881889763779528,
                    "duration": 0.09600614583334277
                },
                {
                    "name": "F5",
                    "midi": 77,
                    "time": 219.81567150000015,
                    "velocity": 0.5275590551181102,
                    "duration": 0.46082949999998846
                },
                {
                    "name": "D#5",
                    "midi": 75,
                    "time": 220.27650100000014,
                    "velocity": 0.47244094488188976,
                    "duration": 1.3824884999999938
                },
                {
                    "name": "D#5",
                    "midi": 75,
                    "time": 221.65898950000013,
                    "velocity": 0.4409448818897638,
                    "duration": 0.46082949999998846
                },
                {
                    "name": "D#5",
                    "midi": 75,
                    "time": 222.11981900000012,
                    "velocity": 0.4251968503937008,
                    "duration": 0.46082949999998846
                },
                {
                    "name": "D#5",
                    "midi": 75,
                    "time": 222.5806485000001,
                    "velocity": 0.41732283464566927,
                    "duration": 0.05760368750000566
                },
                {
                    "name": "F5",
                    "midi": 77,
                    "time": 222.63825218750011,
                    "velocity": 0.33858267716535434,
                    "duration": 0.05760368750000566
                },
                {
                    "name": "D#5",
                    "midi": 75,
                    "time": 222.69585587500012,
                    "velocity": 0.4251968503937008,
                    "duration": 0.05760368750000566
                },
                {
                    "name": "F5",
                    "midi": 77,
                    "time": 222.75345956250013,
                    "velocity": 0.36220472440944884,
                    "duration": 0.05760368750000566
                },
                {
                    "name": "D#5",
                    "midi": 75,
                    "time": 222.81106325000013,
                    "velocity": 0.4094488188976378,
                    "duration": 0.05760368750000566
                },
                {
                    "name": "F5",
                    "midi": 77,
                    "time": 222.86866693750014,
                    "velocity": 0.3464566929133858,
                    "duration": 0.05760368750000566
                },
                {
                    "name": "D#5",
                    "midi": 75,
                    "time": 222.92627062500014,
                    "velocity": 0.4015748031496063,
                    "duration": 0.03840245833333711
                },
                {
                    "name": "D5",
                    "midi": 74,
                    "time": 222.96467308333348,
                    "velocity": 0.33858267716535434,
                    "duration": 0.03840245833333711
                },
                {
                    "name": "D#5",
                    "midi": 75,
                    "time": 223.00307554166682,
                    "velocity": 0.33858267716535434,
                    "duration": 0.03840245833333711
                },
                {
                    "name": "F5",
                    "midi": 77,
                    "time": 223.04147800000015,
                    "velocity": 0.4251968503937008,
                    "duration": 0.46082949999998846
                },
                {
                    "name": "D5",
                    "midi": 74,
                    "time": 223.50230750000014,
                    "velocity": 0.3700787401574803,
                    "duration": 0.46082949999998846
                },
                {
                    "name": "D#5",
                    "midi": 75,
                    "time": 223.96313700000013,
                    "velocity": 0.3700787401574803,
                    "duration": 0.46082949999998846
                },
                {
                    "name": "A#4",
                    "midi": 70,
                    "time": 224.42396650000012,
                    "velocity": 0.33858267716535434,
                    "duration": 0.4147465499999896
                },
                {
                    "name": "A#4",
                    "midi": 70,
                    "time": 224.8847960000001,
                    "velocity": 0.33858267716535434,
                    "duration": 0.4147465499999896
                },
                {
                    "name": "A#4",
                    "midi": 70,
                    "time": 225.3456255000001,
                    "velocity": 0.3858267716535433,
                    "duration": 0.46082949999998846
                },
                {
                    "name": "C5",
                    "midi": 72,
                    "time": 225.80645500000008,
                    "velocity": 0.3228346456692913,
                    "duration": 0.46082949999998846
                },
                {
                    "name": "G#4",
                    "midi": 68,
                    "time": 226.26728450000007,
                    "velocity": 0.25196850393700787,
                    "duration": 0.46082949999998846
                },
                {
                    "name": "G4",
                    "midi": 67,
                    "time": 226.72811400000006,
                    "velocity": 0.33858267716535434,
                    "duration": 0.46082949999998846
                },
                {
                    "name": "D#4",
                    "midi": 63,
                    "time": 226.72811400000006,
                    "velocity": 0.28346456692913385,
                    "duration": 0.9216589999999769
                },
                {
                    "name": "G#4",
                    "midi": 68,
                    "time": 227.18894350000005,
                    "velocity": 0.29133858267716534,
                    "duration": 0.46082949999998846
                },
                {
                    "name": "F4",
                    "midi": 65,
                    "time": 227.64977300000004,
                    "velocity": 0.25196850393700787,
                    "duration": 0.46082949999998846
                },
                {
                    "name": "D4",
                    "midi": 62,
                    "time": 227.64977300000004,
                    "velocity": 0.2125984251968504,
                    "duration": 0.46082949999998846
                },
                {
                    "name": "D#4",
                    "midi": 63,
                    "time": 228.11060250000003,
                    "velocity": 0.3700787401574803,
                    "duration": 0.46082949999998846
                },
                {
                    "name": "A#3",
                    "midi": 58,
                    "time": 228.57143200000002,
                    "velocity": 0.2992125984251969,
                    "duration": 0.4147465499999896
                },
                {
                    "name": "A#3",
                    "midi": 58,
                    "time": 229.0322615,
                    "velocity": 0.2992125984251969,
                    "duration": 0.4147465499999896
                },
                {
                    "name": "A#3",
                    "midi": 58,
                    "time": 229.493091,
                    "velocity": 0.2677165354330709,
                    "duration": 0.05760368750000566
                },
                {
                    "name": "C4",
                    "midi": 60,
                    "time": 229.5506946875,
                    "velocity": 0.2125984251968504,
                    "duration": 0.05760368750000566
                },
                {
                    "name": "A#3",
                    "midi": 58,
                    "time": 229.608298375,
                    "velocity": 0.2677165354330709,
                    "duration": 0.05760368750000566
                },
                {
                    "name": "C4",
                    "midi": 60,
                    "time": 229.6659020625,
                    "velocity": 0.2283464566929134,
                    "duration": 0.05760368750000566
                },
                {
                    "name": "A#3",
                    "midi": 58,
                    "time": 229.72350575000002,
                    "velocity": 0.25984251968503935,
                    "duration": 0.05760368750000566
                },
                {
                    "name": "C4",
                    "midi": 60,
                    "time": 229.78110943750002,
                    "velocity": 0.2125984251968504,
                    "duration": 0.05760368750000566
                },
                {
                    "name": "A#3",
                    "midi": 58,
                    "time": 229.83871312500003,
                    "velocity": 0.25196850393700787,
                    "duration": 0.03840245833333711
                },
                {
                    "name": "A3",
                    "midi": 57,
                    "time": 229.87711558333336,
                    "velocity": 0.2125984251968504,
                    "duration": 0.03840245833333711
                },
                {
                    "name": "A#3",
                    "midi": 58,
                    "time": 229.9155180416667,
                    "velocity": 0.2125984251968504,
                    "duration": 0.03840245833333711
                },
                {
                    "name": "C4",
                    "midi": 60,
                    "time": 229.95392050000004,
                    "velocity": 0.2677165354330709,
                    "duration": 0.46082949999998846
                },
                {
                    "name": "G#3",
                    "midi": 56,
                    "time": 230.41475000000003,
                    "velocity": 0.2204724409448819,
                    "duration": 0.46082949999998846
                },
                {
                    "name": "D#3",
                    "midi": 51,
                    "time": 230.87557950000001,
                    "velocity": 0.2204724409448819,
                    "duration": 0.9216590000000338
                },
                {
                    "name": "G3",
                    "midi": 55,
                    "time": 230.87557950000001,
                    "velocity": 0.2677165354330709,
                    "duration": 0.05760368750000566
                },
                {
                    "name": "G#3",
                    "midi": 56,
                    "time": 230.93318318750002,
                    "velocity": 0.2125984251968504,
                    "duration": 0.05760368750000566
                },
                {
                    "name": "G3",
                    "midi": 55,
                    "time": 230.99078687500003,
                    "velocity": 0.2677165354330709,
                    "duration": 0.05760368750000566
                },
                {
                    "name": "G#3",
                    "midi": 56,
                    "time": 231.04839056250003,
                    "velocity": 0.2283464566929134,
                    "duration": 0.05760368750000566
                },
                {
                    "name": "G3",
                    "midi": 55,
                    "time": 231.10599425000004,
                    "velocity": 0.25984251968503935,
                    "duration": 0.05760368750000566
                },
                {
                    "name": "G#3",
                    "midi": 56,
                    "time": 231.16359793750004,
                    "velocity": 0.2125984251968504,
                    "duration": 0.05760368750000566
                },
                {
                    "name": "G3",
                    "midi": 55,
                    "time": 231.22120162500005,
                    "velocity": 0.25196850393700787,
                    "duration": 0.03840245833333711
                },
                {
                    "name": "F3",
                    "midi": 53,
                    "time": 231.2596040833334,
                    "velocity": 0.2125984251968504,
                    "duration": 0.03840245833333711
                },
                {
                    "name": "G3",
                    "midi": 55,
                    "time": 231.29800654166672,
                    "velocity": 0.2125984251968504,
                    "duration": 0.03840245833333711
                },
                {
                    "name": "G#3",
                    "midi": 56,
                    "time": 231.33640900000006,
                    "velocity": 0.2677165354330709,
                    "duration": 0.46082949999998846
                },
                {
                    "name": "F3",
                    "midi": 53,
                    "time": 231.78763788541673,
                    "velocity": 0.2204724409448819,
                    "duration": 0.46082949999998846
                },
                {
                    "name": "D#3",
                    "midi": 51,
                    "time": 232.25806800000004,
                    "velocity": 0.23622047244094488,
                    "duration": 0.46082949999998846
                },
                {
                    "name": "G3",
                    "midi": 55,
                    "time": 232.71889750000003,
                    "velocity": 0.2204724409448819,
                    "duration": 0.46082949999998846
                },
                {
                    "name": "A#3",
                    "midi": 58,
                    "time": 233.179727,
                    "velocity": 0.2283464566929134,
                    "duration": 0.46082949999998846
                },
                {
                    "name": "G3",
                    "midi": 55,
                    "time": 233.6405565,
                    "velocity": 0.2677165354330709,
                    "duration": 0.46082949999998846
                },
                {
                    "name": "A#3",
                    "midi": 58,
                    "time": 234.101386,
                    "velocity": 0.2440944881889764,
                    "duration": 0.46082949999998846
                },
                {
                    "name": "D#4",
                    "midi": 63,
                    "time": 234.56221549999998,
                    "velocity": 0.2440944881889764,
                    "duration": 0.46082949999998846
                },
                {
                    "name": "A#3",
                    "midi": 58,
                    "time": 235.02304499999997,
                    "velocity": 0.25196850393700787,
                    "duration": 0.46082949999998846
                },
                {
                    "name": "D#4",
                    "midi": 63,
                    "time": 235.48387449999996,
                    "velocity": 0.29133858267716534,
                    "duration": 0.46082949999998846
                },
                {
                    "name": "G4",
                    "midi": 67,
                    "time": 235.94470399999994,
                    "velocity": 0.33070866141732286,
                    "duration": 0.4416282708333199
                },
                {
                    "name": "G4",
                    "midi": 67,
                    "time": 236.40553349999993,
                    "velocity": 0.3543307086614173,
                    "duration": 1.8241167708333421
                },
                {
                    "name": "A#3",
                    "midi": 58,
                    "time": 236.40553349999993,
                    "velocity": 0.2992125984251969,
                    "duration": 1.8241167708333421
                },
                {
                    "name": "D#4",
                    "midi": 63,
                    "time": 236.40553349999993,
                    "velocity": 0.2992125984251969,
                    "duration": 1.8241167708333421
                },
                {
                    "name": "G3",
                    "midi": 55,
                    "time": 236.40553349999993,
                    "velocity": 0.2992125984251969,
                    "duration": 1.8241167708333421
                },
                {
                    "name": "G4",
                    "midi": 67,
                    "time": 238.24885149999994,
                    "velocity": 0.33858267716535434,
                    "duration": 0.4416282708333199
                },
                {
                    "name": "D#4",
                    "midi": 63,
                    "time": 238.24885149999994,
                    "velocity": 0.28346456692913385,
                    "duration": 0.4416282708333199
                },
                {
                    "name": "A#3",
                    "midi": 58,
                    "time": 238.24885149999994,
                    "velocity": 0.28346456692913385,
                    "duration": 0.4416282708333199
                },
                {
                    "name": "D#4",
                    "midi": 63,
                    "time": 238.70968099999993,
                    "velocity": 0.2755905511811024,
                    "duration": 0.4416282708333199
                },
                {
                    "name": "G4",
                    "midi": 67,
                    "time": 238.70968099999993,
                    "velocity": 0.33070866141732286,
                    "duration": 0.4416282708333199
                },
                {
                    "name": "D#4",
                    "midi": 63,
                    "time": 239.17051049999992,
                    "velocity": 0.18110236220472442,
                    "duration": 0.9216590000000338
                },
                {
                    "name": "G4",
                    "midi": 67,
                    "time": 239.17051049999992,
                    "velocity": 0.2677165354330709,
                    "duration": 0.05760368750000566
                },
                {
                    "name": "G#4",
                    "midi": 68,
                    "time": 239.22811418749993,
                    "velocity": 0.2125984251968504,
                    "duration": 0.05760368750000566
                },
                {
                    "name": "G4",
                    "midi": 67,
                    "time": 239.28571787499993,
                    "velocity": 0.2677165354330709,
                    "duration": 0.05760368750000566
                },
                {
                    "name": "G#4",
                    "midi": 68,
                    "time": 239.34332156249994,
                    "velocity": 0.2283464566929134,
                    "duration": 0.05760368750000566
                },
                {
                    "name": "G4",
                    "midi": 67,
                    "time": 239.40092524999994,
                    "velocity": 0.25984251968503935,
                    "duration": 0.05760368750000566
                },
                {
                    "name": "G#4",
                    "midi": 68,
                    "time": 239.45852893749995,
                    "velocity": 0.2125984251968504,
                    "duration": 0.05760368750000566
                },
                {
                    "name": "G4",
                    "midi": 67,
                    "time": 239.51613262499995,
                    "velocity": 0.25196850393700787,
                    "duration": 0.03840245833333711
                },
                {
                    "name": "F4",
                    "midi": 65,
                    "time": 239.5545350833333,
                    "velocity": 0.2125984251968504,
                    "duration": 0.03840245833333711
                },
                {
                    "name": "G4",
                    "midi": 67,
                    "time": 239.59293754166663,
                    "velocity": 0.2125984251968504,
                    "duration": 0.03840245833333711
                },
                {
                    "name": "F4",
                    "midi": 65,
                    "time": 239.63133999999997,
                    "velocity": 0.2992125984251969,
                    "duration": 0.46082949999998846
                },
                {
                    "name": "G#4",
                    "midi": 68,
                    "time": 239.63133999999997,
                    "velocity": 0.3543307086614173,
                    "duration": 0.46082949999998846
                },
                {
                    "name": "D4",
                    "midi": 62,
                    "time": 240.09216949999995,
                    "velocity": 0.25196850393700787,
                    "duration": 0.4416282708333199
                },
                {
                    "name": "F4",
                    "midi": 65,
                    "time": 240.09216949999995,
                    "velocity": 0.2992125984251969,
                    "duration": 0.4416282708333199
                },
                {
                    "name": "A#3",
                    "midi": 58,
                    "time": 240.09216949999995,
                    "velocity": 0.25196850393700787,
                    "duration": 0.4416282708333199
                },
                {
                    "name": "D4",
                    "midi": 62,
                    "time": 240.55299899999994,
                    "velocity": 0.2204724409448819,
                    "duration": 1.3824884999999938
                },
                {
                    "name": "F4",
                    "midi": 65,
                    "time": 240.55299899999994,
                    "velocity": 0.2677165354330709,
                    "duration": 1.3824884999999938
                },
                {
                    "name": "A#3",
                    "midi": 58,
                    "time": 240.55299899999994,
                    "velocity": 0.2204724409448819,
                    "duration": 1.8433179999999822
                },
                {
                    "name": "D#4",
                    "midi": 63,
                    "time": 241.93548749999994,
                    "velocity": 0.25196850393700787,
                    "duration": 0.46082949999998846
                },
                {
                    "name": "A#3",
                    "midi": 58,
                    "time": 243.31797599999993,
                    "velocity": 0.33858267716535434,
                    "duration": 0.46082949999998846
                },
                {
                    "name": "F#3",
                    "midi": 54,
                    "time": 243.31797599999993,
                    "velocity": 0.28346456692913385,
                    "duration": 0.46082949999998846
                },
                {
                    "name": "A#3",
                    "midi": 58,
                    "time": 243.77880549999992,
                    "velocity": 0.31496062992125984,
                    "duration": 0.46082949999998846
                },
                {
                    "name": "D#4",
                    "midi": 63,
                    "time": 243.77880549999992,
                    "velocity": 0.3779527559055118,
                    "duration": 0.46082949999998846
                },
                {
                    "name": "F#4",
                    "midi": 66,
                    "time": 244.2396349999999,
                    "velocity": 0.4251968503937008,
                    "duration": 0.4416282708333199
                },
                {
                    "name": "D#4",
                    "midi": 63,
                    "time": 244.2396349999999,
                    "velocity": 0.3543307086614173,
                    "duration": 0.46082949999998846
                },
                {
                    "name": "F#4",
                    "midi": 66,
                    "time": 244.7004644999999,
                    "velocity": 0.4015748031496063,
                    "duration": 3.2258065000000045
                },
                {
                    "name": "A#4",
                    "midi": 70,
                    "time": 244.7004644999999,
                    "velocity": 0.47244094488188976,
                    "duration": 3.2258065000000045
                },
                {
                    "name": "D#5",
                    "midi": 75,
                    "time": 246.5437824999999,
                    "velocity": 0.5511811023622047,
                    "duration": 0.420506918749993
                },
                {
                    "name": "D#5",
                    "midi": 75,
                    "time": 247.0046119999999,
                    "velocity": 0.5039370078740157,
                    "duration": 0.420506918749993
                },
                {
                    "name": "D#5",
                    "midi": 75,
                    "time": 247.46544149999988,
                    "velocity": 0.5275590551181102,
                    "duration": 0.43778802500000324
                },
                {
                    "name": "G#4",
                    "midi": 68,
                    "time": 247.9262709999999,
                    "velocity": 0.3464566929133858,
                    "duration": 0.4608295000000169
                },
                {
                    "name": "D#5",
                    "midi": 75,
                    "time": 247.9262709999999,
                    "velocity": 0.44881889763779526,
                    "duration": 0.43778802500000324
                },
                {
                    "name": "A#4",
                    "midi": 70,
                    "time": 248.38710049999992,
                    "velocity": 0.3937007874015748,
                    "duration": 0.4416282708333483
                },
                {
                    "name": "F#4",
                    "midi": 66,
                    "time": 248.38710049999992,
                    "velocity": 0.3937007874015748,
                    "duration": 0.4416282708333483
                },
                {
                    "name": "D#5",
                    "midi": 75,
                    "time": 248.38710049999992,
                    "velocity": 0.5039370078740157,
                    "duration": 0.43778802500000324
                },
                {
                    "name": "D#5",
                    "midi": 75,
                    "time": 248.84792999999993,
                    "velocity": 0.5354330708661418,
                    "duration": 0.9216590000000053
                },
                {
                    "name": "B4",
                    "midi": 71,
                    "time": 248.84792999999993,
                    "velocity": 0.3543307086614173,
                    "duration": 1.3824884999999938
                },
                {
                    "name": "F4",
                    "midi": 65,
                    "time": 248.84792999999993,
                    "velocity": 0.3543307086614173,
                    "duration": 1.3824884999999938
                },
                {
                    "name": "C#5",
                    "midi": 73,
                    "time": 249.76958899999994,
                    "velocity": 0.2992125984251969,
                    "duration": 0.46082949999998846
                },
                {
                    "name": "G#4",
                    "midi": 68,
                    "time": 250.69124799999992,
                    "velocity": 0.2677165354330709,
                    "duration": 0.9216589999999769
                },
                {
                    "name": "D#5",
                    "midi": 75,
                    "time": 250.69124799999992,
                    "velocity": 0.31496062992125984,
                    "duration": 0.46082949999998846
                },
                {
                    "name": "B4",
                    "midi": 71,
                    "time": 250.69124799999992,
                    "velocity": 0.2677165354330709,
                    "duration": 0.9216589999999769
                },
                {
                    "name": "C#5",
                    "midi": 73,
                    "time": 251.1520774999999,
                    "velocity": 0.2283464566929134,
                    "duration": 0.46082949999998846
                },
                {
                    "name": "D#5",
                    "midi": 75,
                    "time": 252.07373649999988,
                    "velocity": 0.31496062992125984,
                    "duration": 0.46082949999998846
                },
                {
                    "name": "F#4",
                    "midi": 66,
                    "time": 252.07373649999988,
                    "velocity": 0.2677165354330709,
                    "duration": 0.9216589999999769
                },
                {
                    "name": "A#4",
                    "midi": 70,
                    "time": 252.07373649999988,
                    "velocity": 0.2677165354330709,
                    "duration": 0.9216589999999769
                },
                {
                    "name": "C#5",
                    "midi": 73,
                    "time": 252.53456599999987,
                    "velocity": 0.2125984251968504,
                    "duration": 0.46082949999998846
                },
                {
                    "name": "C#5",
                    "midi": 73,
                    "time": 253.45622499999985,
                    "velocity": 0.31496062992125984,
                    "duration": 0.46082949999998846
                },
                {
                    "name": "G#4",
                    "midi": 68,
                    "time": 253.45622499999985,
                    "velocity": 0.2677165354330709,
                    "duration": 0.9216589999999769
                },
                {
                    "name": "D#4",
                    "midi": 63,
                    "time": 253.45622499999985,
                    "velocity": 0.2677165354330709,
                    "duration": 0.9216589999999769
                },
                {
                    "name": "B4",
                    "midi": 71,
                    "time": 253.91705449999984,
                    "velocity": 0.2125984251968504,
                    "duration": 0.46082949999998846
                },
                {
                    "name": "C#4",
                    "midi": 61,
                    "time": 254.8387134999998,
                    "velocity": 0.2677165354330709,
                    "duration": 0.9216589999999769
                },
                {
                    "name": "B4",
                    "midi": 71,
                    "time": 254.8387134999998,
                    "velocity": 0.31496062992125984,
                    "duration": 0.46082949999998846
                },
                {
                    "name": "F#4",
                    "midi": 66,
                    "time": 254.8387134999998,
                    "velocity": 0.2677165354330709,
                    "duration": 0.9216589999999769
                },
                {
                    "name": "A#4",
                    "midi": 70,
                    "time": 255.2995429999998,
                    "velocity": 0.2125984251968504,
                    "duration": 0.46082949999998846
                },
                {
                    "name": "A#4",
                    "midi": 70,
                    "time": 256.2212019999998,
                    "velocity": 0.31496062992125984,
                    "duration": 0.46082949999998846
                },
                {
                    "name": "F4",
                    "midi": 65,
                    "time": 256.2212019999998,
                    "velocity": 0.2677165354330709,
                    "duration": 0.9024577708333368
                },
                {
                    "name": "B3",
                    "midi": 59,
                    "time": 256.2212019999998,
                    "velocity": 0.2677165354330709,
                    "duration": 0.9216589999999769
                },
                {
                    "name": "G#4",
                    "midi": 68,
                    "time": 256.68203149999977,
                    "velocity": 0.2125984251968504,
                    "duration": 0.46082949999998846
                },
                {
                    "name": "G#4",
                    "midi": 68,
                    "time": 257.14286099999975,
                    "velocity": 0.3543307086614173,
                    "duration": 1.3824884999999654
                },
                {
                    "name": "B3",
                    "midi": 59,
                    "time": 257.14286099999975,
                    "velocity": 0.5354330708661418,
                    "duration": 0.9216589999999769
                },
                {
                    "name": "F4",
                    "midi": 65,
                    "time": 257.14286099999975,
                    "velocity": 0.3543307086614173,
                    "duration": 1.3824884999999654
                },
                {
                    "name": "A#3",
                    "midi": 58,
                    "time": 258.06451999999973,
                    "velocity": 0.2992125984251969,
                    "duration": 0.46082949999998846
                },
                {
                    "name": "G#4",
                    "midi": 68,
                    "time": 258.9861789999997,
                    "velocity": 0.2677165354330709,
                    "duration": 0.9216589999999769
                },
                {
                    "name": "B3",
                    "midi": 59,
                    "time": 258.9861789999997,
                    "velocity": 0.31496062992125984,
                    "duration": 0.46082949999998846
                },
                {
                    "name": "F4",
                    "midi": 65,
                    "time": 258.9861789999997,
                    "velocity": 0.2677165354330709,
                    "duration": 0.9216589999999769
                },
                {
                    "name": "A#3",
                    "midi": 58,
                    "time": 259.4470084999997,
                    "velocity": 0.2283464566929134,
                    "duration": 0.46082949999998846
                },
                {
                    "name": "F#4",
                    "midi": 66,
                    "time": 260.3686674999997,
                    "velocity": 0.2677165354330709,
                    "duration": 0.9216589999999769
                },
                {
                    "name": "B3",
                    "midi": 59,
                    "time": 260.3686674999997,
                    "velocity": 0.31496062992125984,
                    "duration": 0.46082949999998846
                },
                {
                    "name": "D#4",
                    "midi": 63,
                    "time": 260.3686674999997,
                    "velocity": 0.2677165354330709,
                    "duration": 0.9216589999999769
                },
                {
                    "name": "A#3",
                    "midi": 58,
                    "time": 260.82949699999966,
                    "velocity": 0.2125984251968504,
                    "duration": 0.46082949999998846
                },
                {
                    "name": "F#4",
                    "midi": 66,
                    "time": 261.75115599999964,
                    "velocity": 0.31496062992125984,
                    "duration": 0.46082949999998846
                },
                {
                    "name": "G#3",
                    "midi": 56,
                    "time": 261.75115599999964,
                    "velocity": 0.2677165354330709,
                    "duration": 0.9216589999999769
                },
                {
                    "name": "B3",
                    "midi": 59,
                    "time": 261.75115599999964,
                    "velocity": 0.2677165354330709,
                    "duration": 0.9216589999999769
                },
                {
                    "name": "E4",
                    "midi": 64,
                    "time": 262.2119854999996,
                    "velocity": 0.2125984251968504,
                    "duration": 0.46082949999998846
                },
                {
                    "name": "F#3",
                    "midi": 54,
                    "time": 263.1336444999996,
                    "velocity": 0.2677165354330709,
                    "duration": 0.9216589999999769
                },
                {
                    "name": "E4",
                    "midi": 64,
                    "time": 263.1336444999996,
                    "velocity": 0.31496062992125984,
                    "duration": 0.46082949999998846
                },
                {
                    "name": "C4",
                    "midi": 60,
                    "time": 263.1336444999996,
                    "velocity": 0.2677165354330709,
                    "duration": 0.9216589999999769
                },
                {
                    "name": "D#4",
                    "midi": 63,
                    "time": 263.5944739999996,
                    "velocity": 0.2125984251968504,
                    "duration": 0.46082949999998846
                },
                {
                    "name": "F3",
                    "midi": 53,
                    "time": 264.51613299999957,
                    "velocity": 0.2677165354330709,
                    "duration": 0.9216589999999769
                },
                {
                    "name": "D#4",
                    "midi": 63,
                    "time": 264.51613299999957,
                    "velocity": 0.31496062992125984,
                    "duration": 0.46082949999998846
                },
                {
                    "name": "G#3",
                    "midi": 56,
                    "time": 264.51613299999957,
                    "velocity": 0.2677165354330709,
                    "duration": 0.9216589999999769
                },
                {
                    "name": "D4",
                    "midi": 62,
                    "time": 264.97696249999956,
                    "velocity": 0.2125984251968504,
                    "duration": 0.46082949999998846
                },
                {
                    "name": "D#4",
                    "midi": 63,
                    "time": 265.43779199999955,
                    "velocity": 0.2677165354330709,
                    "duration": 0.9216589999999769
                },
                {
                    "name": "G3",
                    "midi": 55,
                    "time": 265.43779199999955,
                    "velocity": 0.2677165354330709,
                    "duration": 0.9216589999999769
                },
                {
                    "name": "G5",
                    "midi": 79,
                    "time": 268.20276899999953,
                    "velocity": 0.44881889763779526,
                    "duration": 0.9216589999999769
                },
                {
                    "name": "F5",
                    "midi": 77,
                    "time": 269.1244279999995,
                    "velocity": 0.3779527559055118,
                    "duration": 0.23041475000002265
                },
                {
                    "name": "D#5",
                    "midi": 75,
                    "time": 269.35484274999953,
                    "velocity": 0.3700787401574803,
                    "duration": 0.23041475000002265
                },
                {
                    "name": "F4",
                    "midi": 65,
                    "time": 269.58525749999956,
                    "velocity": 0.23622047244094488,
                    "duration": 0.9216589999999769
                },
                {
                    "name": "D#5",
                    "midi": 75,
                    "time": 269.58525749999956,
                    "velocity": 0.4251968503937008,
                    "duration": 0.46082949999998846
                },
                {
                    "name": "G#4",
                    "midi": 68,
                    "time": 269.58525749999956,
                    "velocity": 0.2755905511811024,
                    "duration": 0.9024577708333368
                },
                {
                    "name": "D5",
                    "midi": 74,
                    "time": 270.04608699999955,
                    "velocity": 0.3700787401574803,
                    "duration": 0.46082949999998846
                },
                {
                    "name": "C5",
                    "midi": 72,
                    "time": 270.50691649999953,
                    "velocity": 0.4015748031496063,
                    "duration": 0.23041475000002265
                },
                {
                    "name": "G#4",
                    "midi": 68,
                    "time": 270.50691649999953,
                    "velocity": 0.29133858267716534,
                    "duration": 0.4416282708333483
                },
                {
                    "name": "D#4",
                    "midi": 63,
                    "time": 270.50691649999953,
                    "velocity": 0.33858267716535434,
                    "duration": 0.23041475000002265
                },
                {
                    "name": "A#4",
                    "midi": 70,
                    "time": 270.73733124999956,
                    "velocity": 0.33858267716535434,
                    "duration": 0.21121352083332567
                },
                {
                    "name": "D4",
                    "midi": 62,
                    "time": 270.73733124999956,
                    "velocity": 0.28346456692913385,
                    "duration": 0.21121352083332567
                },
                {
                    "name": "G#4",
                    "midi": 68,
                    "time": 270.9677459999995,
                    "velocity": 0.2755905511811024,
                    "duration": 2.7649770000000444
                },
                {
                    "name": "A#4",
                    "midi": 70,
                    "time": 270.9677459999995,
                    "velocity": 0.3937007874015748,
                    "duration": 1.8433179999999538
                },
                {
                    "name": "D4",
                    "midi": 62,
                    "time": 270.9677459999995,
                    "velocity": 0.3779527559055118,
                    "duration": 0.9216589999999769
                },
                {
                    "name": "C4",
                    "midi": 60,
                    "time": 271.8894049999995,
                    "velocity": 0.3543307086614173,
                    "duration": 0.23041475000002265
                },
                {
                    "name": "A#3",
                    "midi": 58,
                    "time": 272.1198197499995,
                    "velocity": 0.2992125984251969,
                    "duration": 0.21121352083332567
                },
                {
                    "name": "A#3",
                    "midi": 58,
                    "time": 272.3502344999995,
                    "velocity": 0.4015748031496063,
                    "duration": 0.6912442500000111
                },
                {
                    "name": "C5",
                    "midi": 72,
                    "time": 272.8110639999995,
                    "velocity": 0.3464566929133858,
                    "duration": 0.4608295000000453
                },
                {
                    "name": "G#3",
                    "midi": 56,
                    "time": 273.0414787499995,
                    "velocity": 0.2992125984251969,
                    "duration": 0.23041475000002265
                },
                {
                    "name": "G3",
                    "midi": 55,
                    "time": 273.2718934999995,
                    "velocity": 0.2992125984251969,
                    "duration": 0.23041475000002265
                },
                {
                    "name": "D5",
                    "midi": 74,
                    "time": 273.2718934999995,
                    "velocity": 0.36220472440944884,
                    "duration": 0.4608295000000453
                },
                {
                    "name": "G#3",
                    "midi": 56,
                    "time": 273.50230824999954,
                    "velocity": 0.2992125984251969,
                    "duration": 0.23041475000002265
                },
                {
                    "name": "G3",
                    "midi": 55,
                    "time": 273.73272299999957,
                    "velocity": 0.4015748031496063,
                    "duration": 0.9216590000000906
                },
                {
                    "name": "D#5",
                    "midi": 75,
                    "time": 273.73272299999957,
                    "velocity": 0.4015748031496063,
                    "duration": 0.23041475000002265
                },
                {
                    "name": "F5",
                    "midi": 77,
                    "time": 273.9631377499996,
                    "velocity": 0.3464566929133858,
                    "duration": 0.07680491666667422
                },
                {
                    "name": "D#5",
                    "midi": 75,
                    "time": 274.03994266666626,
                    "velocity": 0.2992125984251969,
                    "duration": 0.07680491666667422
                },
                {
                    "name": "D5",
                    "midi": 74,
                    "time": 274.11674758333294,
                    "velocity": 0.2992125984251969,
                    "duration": 0.07680491666667422
                },
                {
                    "name": "D#5",
                    "midi": 75,
                    "time": 274.1935524999996,
                    "velocity": 0.4015748031496063,
                    "duration": 0.23041475000002265
                },
                {
                    "name": "F5",
                    "midi": 77,
                    "time": 274.42396724999963,
                    "velocity": 0.3700787401574803,
                    "duration": 0.23041475000002265
                },
                {
                    "name": "G5",
                    "midi": 79,
                    "time": 274.65438199999966,
                    "velocity": 0.3858267716535433,
                    "duration": 0.23041475000002265
                },
                {
                    "name": "G#5",
                    "midi": 80,
                    "time": 274.8847967499997,
                    "velocity": 0.3937007874015748,
                    "duration": 0.17281106249998857
                },
                {
                    "name": "G5",
                    "midi": 79,
                    "time": 275.05760781249967,
                    "velocity": 0.3779527559055118,
                    "duration": 0.05760368749997724
                },
                {
                    "name": "A#5",
                    "midi": 82,
                    "time": 275.11521149999965,
                    "velocity": 0.44881889763779526,
                    "duration": 1.3824885000000222
                },
                {
                    "name": "A5",
                    "midi": 81,
                    "time": 276.49769999999967,
                    "velocity": 0.3700787401574803,
                    "duration": 0.23041475000002265
                },
                {
                    "name": "A#5",
                    "midi": 82,
                    "time": 276.7281147499997,
                    "velocity": 0.4094488188976378,
                    "duration": 0.23041475000002265
                },
                {
                    "name": "C6",
                    "midi": 84,
                    "time": 276.9585294999997,
                    "velocity": 0.41732283464566927,
                    "duration": 0.23041475000002265
                },
                {
                    "name": "A#5",
                    "midi": 82,
                    "time": 277.18894424999974,
                    "velocity": 0.4015748031496063,
                    "duration": 0.23041475000002265
                },
                {
                    "name": "G#5",
                    "midi": 80,
                    "time": 277.41935899999976,
                    "velocity": 0.41732283464566927,
                    "duration": 0.23041475000002265
                },
                {
                    "name": "G5",
                    "midi": 79,
                    "time": 277.6497737499998,
                    "velocity": 0.4015748031496063,
                    "duration": 0.21121352083332567
                },
                {
                    "name": "G#4",
                    "midi": 68,
                    "time": 277.88018849999975,
                    "velocity": 0.23622047244094488,
                    "duration": 0.9216589999999769
                },
                {
                    "name": "C5",
                    "midi": 72,
                    "time": 277.88018849999975,
                    "velocity": 0.2755905511811024,
                    "duration": 0.9024577708333368
                },
                {
                    "name": "G5",
                    "midi": 79,
                    "time": 277.88018849999975,
                    "velocity": 0.44881889763779526,
                    "duration": 0.46082949999998846
                },
                {
                    "name": "F5",
                    "midi": 77,
                    "time": 278.34101799999974,
                    "velocity": 0.3700787401574803,
                    "duration": 0.46082949999998846
                },
                {
                    "name": "A#4",
                    "midi": 70,
                    "time": 278.8018474999997,
                    "velocity": 0.33858267716535434,
                    "duration": 0.23041475000002265
                },
                {
                    "name": "D#5",
                    "midi": 75,
                    "time": 278.8018474999997,
                    "velocity": 0.4015748031496063,
                    "duration": 0.23041475000002265
                },
                {
                    "name": "G4",
                    "midi": 67,
                    "time": 278.8018474999997,
                    "velocity": 0.28346456692913385,
                    "duration": 0.23041475000002265
                },
                {
                    "name": "D5",
                    "midi": 74,
                    "time": 279.03226224999975,
                    "velocity": 0.33858267716535434,
                    "duration": 0.2304147499999658
                },
                {
                    "name": "F4",
                    "midi": 65,
                    "time": 279.03226224999975,
                    "velocity": 0.23622047244094488,
                    "duration": 0.2304147499999658
                },
                {
                    "name": "G#4",
                    "midi": 68,
                    "time": 279.03226224999975,
                    "velocity": 0.28346456692913385,
                    "duration": 0.21121352083332567
                },
                {
                    "name": "F4",
                    "midi": 65,
                    "time": 279.2626769999997,
                    "velocity": 0.31496062992125984,
                    "duration": 0.9216589999999769
                },
                {
                    "name": "D5",
                    "midi": 74,
                    "time": 279.2626769999997,
                    "velocity": 0.3937007874015748,
                    "duration": 0.9216589999999769
                },
                {
                    "name": "G#4",
                    "midi": 68,
                    "time": 279.2626769999997,
                    "velocity": 0.2755905511811024,
                    "duration": 0.9024577708333368
                },
                {
                    "name": "D#4",
                    "midi": 63,
                    "time": 280.1843359999997,
                    "velocity": 0.3543307086614173,
                    "duration": 0.23041475000002265
                },
                {
                    "name": "C5",
                    "midi": 72,
                    "time": 280.1843359999997,
                    "velocity": 0.4015748031496063,
                    "duration": 0.23041475000002265
                },
                {
                    "name": "G#4",
                    "midi": 68,
                    "time": 280.1843359999997,
                    "velocity": 0.2755905511811024,
                    "duration": 0.4416282708333483
                },
                {
                    "name": "A#4",
                    "midi": 70,
                    "time": 280.4147507499997,
                    "velocity": 0.33858267716535434,
                    "duration": 0.2304147499999658
                },
                {
                    "name": "D4",
                    "midi": 62,
                    "time": 280.4147507499997,
                    "velocity": 0.2992125984251969,
                    "duration": 0.21121352083332567
                },
                {
                    "name": "G#4",
                    "midi": 68,
                    "time": 280.6451654999997,
                    "velocity": 0.2755905511811024,
                    "duration": 1.382488500000136
                },
                {
                    "name": "D4",
                    "midi": 62,
                    "time": 280.6451654999997,
                    "velocity": 0.4015748031496063,
                    "duration": 0.23041475000002265
                },
                {
                    "name": "A#4",
                    "midi": 70,
                    "time": 280.6451654999997,
                    "velocity": 0.4251968503937008,
                    "duration": 0.4608295000000453
                },
                {
                    "name": "C4",
                    "midi": 60,
                    "time": 280.8755802499997,
                    "velocity": 0.2992125984251969,
                    "duration": 0.23041475000002265
                },
                {
                    "name": "A#3",
                    "midi": 58,
                    "time": 281.1059949999997,
                    "velocity": 0.2992125984251969,
                    "duration": 0.23041475000002265
                },
                {
                    "name": "C5",
                    "midi": 72,
                    "time": 281.1059949999997,
                    "velocity": 0.3464566929133858,
                    "duration": 0.4608295000000453
                },
                {
                    "name": "G#3",
                    "midi": 56,
                    "time": 281.33640974999975,
                    "velocity": 0.2992125984251969,
                    "duration": 0.23041475000002265
                },
                {
                    "name": "D5",
                    "midi": 74,
                    "time": 281.56682449999977,
                    "velocity": 0.36220472440944884,
                    "duration": 0.4608295000000453
                },
                {
                    "name": "G3",
                    "midi": 55,
                    "time": 281.56682449999977,
                    "velocity": 0.2992125984251969,
                    "duration": 0.23041475000002265
                },
                {
                    "name": "F3",
                    "midi": 53,
                    "time": 281.7972392499998,
                    "velocity": 0.2992125984251969,
                    "duration": 0.23041475000002265
                },
                {
                    "name": "D#5",
                    "midi": 75,
                    "time": 282.0276539999998,
                    "velocity": 0.4251968503937008,
                    "duration": 0.46082949999998846
                },
                {
                    "name": "G4",
                    "midi": 67,
                    "time": 282.0276539999998,
                    "velocity": 0.4251968503937008,
                    "duration": 0.46082949999998846
                },
                {
                    "name": "F#5",
                    "midi": 78,
                    "time": 282.4884834999998,
                    "velocity": 0.31496062992125984,
                    "duration": 0.46082949999998846
                },
                {
                    "name": "G5",
                    "midi": 79,
                    "time": 282.9493129999998,
                    "velocity": 0.3464566929133858,
                    "duration": 0.46082949999998846
                },
                {
                    "name": "A5",
                    "midi": 81,
                    "time": 283.87097199999977,
                    "velocity": 0.3228346456692913,
                    "duration": 0.46082949999998846
                },
                {
                    "name": "A#5",
                    "midi": 82,
                    "time": 284.33180149999976,
                    "velocity": 0.3464566929133858,
                    "duration": 0.46082949999998846
                },
                {
                    "name": "D6",
                    "midi": 86,
                    "time": 285.25346049999973,
                    "velocity": 0.31496062992125984,
                    "duration": 0.46082949999998846
                },
                {
                    "name": "D#6",
                    "midi": 87,
                    "time": 285.7142899999997,
                    "velocity": 0.3464566929133858,
                    "duration": 0.46082949999998846
                },
                {
                    "name": "B5",
                    "midi": 83,
                    "time": 286.6359489999997,
                    "velocity": 0.3228346456692913,
                    "duration": 0.46082949999998846
                },
                {
                    "name": "C6",
                    "midi": 84,
                    "time": 287.0967784999997,
                    "velocity": 0.3464566929133858,
                    "duration": 0.46082949999998846
                },
                {
                    "name": "B4",
                    "midi": 71,
                    "time": 288.01843749999966,
                    "velocity": 0.31496062992125984,
                    "duration": 0.46082949999998846
                },
                {
                    "name": "C5",
                    "midi": 72,
                    "time": 288.47926699999965,
                    "velocity": 0.33070866141732286,
                    "duration": 0.46082949999998846
                },
                {
                    "name": "E4",
                    "midi": 64,
                    "time": 289.40092599999963,
                    "velocity": 0.2992125984251969,
                    "duration": 0.46082949999998846
                },
                {
                    "name": "F4",
                    "midi": 65,
                    "time": 289.8617554999996,
                    "velocity": 0.33070866141732286,
                    "duration": 0.46082949999998846
                },
                {
                    "name": "A#4",
                    "midi": 70,
                    "time": 290.7834144999996,
                    "velocity": 0.4645669291338583,
                    "duration": 1.1520737499999996
                },
                {
                    "name": "C5",
                    "midi": 72,
                    "time": 291.9354882499996,
                    "velocity": 0.47244094488188976,
                    "duration": 0.11520737500001133
                },
                {
                    "name": "D5",
                    "midi": 74,
                    "time": 292.0506956249996,
                    "velocity": 0.4881889763779528,
                    "duration": 0.11520737500001133
                },
                {
                    "name": "D#5",
                    "midi": 75,
                    "time": 292.1659029999996,
                    "velocity": 0.5039370078740157,
                    "duration": 0.11520737500001133
                },
                {
                    "name": "F5",
                    "midi": 77,
                    "time": 292.2811103749996,
                    "velocity": 0.5196850393700787,
                    "duration": 0.11520737500001133
                },
                {
                    "name": "G5",
                    "midi": 79,
                    "time": 292.39631774999964,
                    "velocity": 0.5354330708661418,
                    "duration": 0.11520737500001133
                },
                {
                    "name": "G#5",
                    "midi": 80,
                    "time": 292.51152512499965,
                    "velocity": 0.5511811023622047,
                    "duration": 0.11520737500001133
                },
                {
                    "name": "A#5",
                    "midi": 82,
                    "time": 292.62673249999966,
                    "velocity": 0.5669291338582677,
                    "duration": 0.9216589999999769
                },
                {
                    "name": "G#5",
                    "midi": 80,
                    "time": 293.54839149999964,
                    "velocity": 0.5511811023622047,
                    "duration": 0.46082949999998846
                },
                {
                    "name": "F5",
                    "midi": 77,
                    "time": 294.0092209999996,
                    "velocity": 0.5196850393700787,
                    "duration": 0.46082949999998846
                },
                {
                    "name": "D#5",
                    "midi": 75,
                    "time": 294.4700504999996,
                    "velocity": 0.4566929133858268,
                    "duration": 0.5760368749999998
                },
                {
                    "name": "D5",
                    "midi": 74,
                    "time": 295.0460873749996,
                    "velocity": 0.3937007874015748,
                    "duration": 0.11520737500001133
                },
                {
                    "name": "G5",
                    "midi": 79,
                    "time": 295.1612947499996,
                    "velocity": 0.44881889763779526,
                    "duration": 0.12672811250001814
                },
                {
                    "name": "F5",
                    "midi": 77,
                    "time": 295.27650212499964,
                    "velocity": 0.4251968503937008,
                    "duration": 0.12672811250001814
                },
                {
                    "name": "D#5",
                    "midi": 75,
                    "time": 295.39170949999965,
                    "velocity": 0.41732283464566927,
                    "duration": 0.12672811250001814
                },
                {
                    "name": "D5",
                    "midi": 74,
                    "time": 295.50691687499966,
                    "velocity": 0.4015748031496063,
                    "duration": 0.12672811250001814
                },
                {
                    "name": "C5",
                    "midi": 72,
                    "time": 295.6221242499997,
                    "velocity": 0.3858267716535433,
                    "duration": 0.12672811250001814
                },
                {
                    "name": "A#4",
                    "midi": 70,
                    "time": 295.7373316249997,
                    "velocity": 0.3700787401574803,
                    "duration": 0.12672811250001814
                },
                {
                    "name": "A4",
                    "midi": 69,
                    "time": 295.8525389999997,
                    "velocity": 0.41732283464566927,
                    "duration": 0.12672811250001814
                },
                {
                    "name": "A#4",
                    "midi": 70,
                    "time": 295.9677463749997,
                    "velocity": 0.4015748031496063,
                    "duration": 0.12672811250001814
                },
                {
                    "name": "D#5",
                    "midi": 75,
                    "time": 296.0829537499997,
                    "velocity": 0.4645669291338583,
                    "duration": 0.12672811250001814
                },
                {
                    "name": "D5",
                    "midi": 74,
                    "time": 296.19816112499973,
                    "velocity": 0.4251968503937008,
                    "duration": 0.12672811250001814
                },
                {
                    "name": "C5",
                    "midi": 72,
                    "time": 296.31336849999974,
                    "velocity": 0.4251968503937008,
                    "duration": 0.12672811250001814
                },
                {
                    "name": "A#4",
                    "midi": 70,
                    "time": 296.42857587499975,
                    "velocity": 0.4094488188976378,
                    "duration": 0.12672811250001814
                },
                {
                    "name": "G#4",
                    "midi": 68,
                    "time": 296.54378324999976,
                    "velocity": 0.3937007874015748,
                    "duration": 0.12672811250001814
                },
                {
                    "name": "G4",
                    "midi": 67,
                    "time": 296.6589906249998,
                    "velocity": 0.3937007874015748,
                    "duration": 0.12672811250001814
                },
                {
                    "name": "F#4",
                    "midi": 66,
                    "time": 296.7741979999998,
                    "velocity": 0.4094488188976378,
                    "duration": 0.12672811250001814
                },
                {
                    "name": "G4",
                    "midi": 67,
                    "time": 296.8894053749998,
                    "velocity": 0.36220472440944884,
                    "duration": 0.12672811250001814
                },
                {
                    "name": "C5",
                    "midi": 72,
                    "time": 297.0046127499998,
                    "velocity": 0.4409448818897638,
                    "duration": 0.12672811250001814
                },
                {
                    "name": "A#4",
                    "midi": 70,
                    "time": 297.1198201249998,
                    "velocity": 0.4330708661417323,
                    "duration": 0.12672811250001814
                },
                {
                    "name": "G#4",
                    "midi": 68,
                    "time": 297.23502749999983,
                    "velocity": 0.4251968503937008,
                    "duration": 0.12672811250001814
                },
                {
                    "name": "G4",
                    "midi": 67,
                    "time": 297.35023487499984,
                    "velocity": 0.4094488188976378,
                    "duration": 0.12672811250001814
                },
                {
                    "name": "F4",
                    "midi": 65,
                    "time": 297.46544224999985,
                    "velocity": 0.3937007874015748,
                    "duration": 0.12672811250001814
                },
                {
                    "name": "D#4",
                    "midi": 63,
                    "time": 297.58064962499986,
                    "velocity": 0.3779527559055118,
                    "duration": 0.12672811250001814
                },
                {
                    "name": "D4",
                    "midi": 62,
                    "time": 297.6958569999999,
                    "velocity": 0.36220472440944884,
                    "duration": 0.12672811250001814
                },
                {
                    "name": "D#4",
                    "midi": 63,
                    "time": 297.8110643749999,
                    "velocity": 0.3543307086614173,
                    "duration": 0.12672811250001814
                },
                {
                    "name": "G#4",
                    "midi": 68,
                    "time": 297.9262717499999,
                    "velocity": 0.4094488188976378,
                    "duration": 0.12672811250001814
                },
                {
                    "name": "G4",
                    "midi": 67,
                    "time": 298.0414791249999,
                    "velocity": 0.4015748031496063,
                    "duration": 0.12672811250001814
                },
                {
                    "name": "F4",
                    "midi": 65,
                    "time": 298.1566864999999,
                    "velocity": 0.3858267716535433,
                    "duration": 0.12672811250001814
                },
                {
                    "name": "D#4",
                    "midi": 63,
                    "time": 298.27189387499993,
                    "velocity": 0.3700787401574803,
                    "duration": 0.12672811250001814
                },
                {
                    "name": "D4",
                    "midi": 62,
                    "time": 298.38710124999994,
                    "velocity": 0.3464566929133858,
                    "duration": 0.12672811250001814
                },
                {
                    "name": "C4",
                    "midi": 60,
                    "time": 298.50230862499996,
                    "velocity": 0.33070866141732286,
                    "duration": 0.12672811250001814
                },
                {
                    "name": "A3",
                    "midi": 57,
                    "time": 298.61751599999997,
                    "velocity": 0.30708661417322836,
                    "duration": 0.11520737500001133
                },
                {
                    "name": "A#3",
                    "midi": 58,
                    "time": 298.732723375,
                    "velocity": 0.30708661417322836,
                    "duration": 0.11520737500001133
                },
                {
                    "name": "B3",
                    "midi": 59,
                    "time": 298.84793075,
                    "velocity": 0.31496062992125984,
                    "duration": 0.11520737500001133
                },
                {
                    "name": "C4",
                    "midi": 60,
                    "time": 298.963138125,
                    "velocity": 0.3228346456692913,
                    "duration": 0.11520737500001133
                },
                {
                    "name": "C#4",
                    "midi": 61,
                    "time": 299.0783455,
                    "velocity": 0.33070866141732286,
                    "duration": 0.11520737500001133
                },
                {
                    "name": "D4",
                    "midi": 62,
                    "time": 299.193552875,
                    "velocity": 0.33070866141732286,
                    "duration": 0.11520737500001133
                },
                {
                    "name": "D#4",
                    "midi": 63,
                    "time": 299.30876025000003,
                    "velocity": 0.33858267716535434,
                    "duration": 0.11520737500001133
                },
                {
                    "name": "E4",
                    "midi": 64,
                    "time": 299.42396762500005,
                    "velocity": 0.3464566929133858,
                    "duration": 0.11520737500001133
                },
                {
                    "name": "F4",
                    "midi": 65,
                    "time": 299.53917500000006,
                    "velocity": 0.3543307086614173,
                    "duration": 0.11520737500001133
                },
                {
                    "name": "F#4",
                    "midi": 66,
                    "time": 299.65438237500007,
                    "velocity": 0.3543307086614173,
                    "duration": 0.11520737500001133
                },
                {
                    "name": "G4",
                    "midi": 67,
                    "time": 299.7695897500001,
                    "velocity": 0.36220472440944884,
                    "duration": 0.11520737500001133
                },
                {
                    "name": "G#4",
                    "midi": 68,
                    "time": 299.8847971250001,
                    "velocity": 0.3700787401574803,
                    "duration": 0.11520737500001133
                },
                {
                    "name": "A4",
                    "midi": 69,
                    "time": 300.0000045000001,
                    "velocity": 0.3858267716535433,
                    "duration": 0.11520737500001133
                },
                {
                    "name": "A#4",
                    "midi": 70,
                    "time": 300.1152118750001,
                    "velocity": 0.3937007874015748,
                    "duration": 0.11520737500001133
                },
                {
                    "name": "B4",
                    "midi": 71,
                    "time": 300.2304192500001,
                    "velocity": 0.4094488188976378,
                    "duration": 0.11520737500001133
                },
                {
                    "name": "C5",
                    "midi": 72,
                    "time": 300.34562662500014,
                    "velocity": 0.4251968503937008,
                    "duration": 0.11520737500001133
                },
                {
                    "name": "C#5",
                    "midi": 73,
                    "time": 300.46083400000015,
                    "velocity": 0.4409448818897638,
                    "duration": 0.11520737500001133
                },
                {
                    "name": "D5",
                    "midi": 74,
                    "time": 300.57604137500016,
                    "velocity": 0.4566929133858268,
                    "duration": 0.11520737500001133
                },
                {
                    "name": "D#5",
                    "midi": 75,
                    "time": 300.69124875000017,
                    "velocity": 0.47244094488188976,
                    "duration": 0.11520737500001133
                },
                {
                    "name": "E5",
                    "midi": 76,
                    "time": 300.8064561250002,
                    "velocity": 0.48031496062992124,
                    "duration": 0.11520737500001133
                },
                {
                    "name": "F5",
                    "midi": 77,
                    "time": 300.9216635000002,
                    "velocity": 0.5039370078740157,
                    "duration": 0.09216589999999769
                },
                {
                    "name": "F#5",
                    "midi": 78,
                    "time": 301.0138294000002,
                    "velocity": 0.5118110236220472,
                    "duration": 0.09216589999999769
                },
                {
                    "name": "G5",
                    "midi": 79,
                    "time": 301.1059953000002,
                    "velocity": 0.5275590551181102,
                    "duration": 0.09216589999999769
                },
                {
                    "name": "G#5",
                    "midi": 80,
                    "time": 301.1981612000002,
                    "velocity": 0.5433070866141733,
                    "duration": 0.09216589999999769
                },
                {
                    "name": "A5",
                    "midi": 81,
                    "time": 301.2903271000002,
                    "velocity": 0.5511811023622047,
                    "duration": 0.09216589999999769
                },
                {
                    "name": "A#5",
                    "midi": 82,
                    "time": 301.3824930000002,
                    "velocity": 0.6299212598425197,
                    "duration": 0.5760368749999998
                },
                {
                    "name": "G#5",
                    "midi": 80,
                    "time": 301.9585298750002,
                    "velocity": 0.5433070866141733,
                    "duration": 0.11520737500001133
                },
                {
                    "name": "F5",
                    "midi": 77,
                    "time": 302.0737372500002,
                    "velocity": 0.5196850393700787,
                    "duration": 0.11520737500001133
                },
                {
                    "name": "D5",
                    "midi": 74,
                    "time": 302.1889446250002,
                    "velocity": 0.49606299212598426,
                    "duration": 0.11520737500001133
                },
                {
                    "name": "A#4",
                    "midi": 70,
                    "time": 302.3041520000002,
                    "velocity": 0.47244094488188976,
                    "duration": 0.11520737500001133
                },
                {
                    "name": "G#4",
                    "midi": 68,
                    "time": 302.4193593750002,
                    "velocity": 0.44881889763779526,
                    "duration": 0.11520737500001133
                },
                {
                    "name": "F4",
                    "midi": 65,
                    "time": 302.53456675000024,
                    "velocity": 0.4251968503937008,
                    "duration": 0.11520737500001133
                },
                {
                    "name": "D4",
                    "midi": 62,
                    "time": 302.64977412500025,
                    "velocity": 0.4015748031496063,
                    "duration": 0.11520737500001133
                },
                {
                    "name": "D#4",
                    "midi": 63,
                    "time": 302.76498150000026,
                    "velocity": 0.4409448818897638,
                    "duration": 0.9216589999999769
                },
                {
                    "name": "D#5",
                    "midi": 75,
                    "time": 305.06912900000026,
                    "velocity": 0.4409448818897638,
                    "duration": 1.3824884999999654
                },
                {
                    "name": "F#5",
                    "midi": 78,
                    "time": 305.06912900000026,
                    "velocity": 0.5275590551181102,
                    "duration": 0.9216589999999769
                },
                {
                    "name": "G5",
                    "midi": 79,
                    "time": 305.99078800000024,
                    "velocity": 0.4251968503937008,
                    "duration": 0.46082949999998846
                },
                {
                    "name": "G#5",
                    "midi": 80,
                    "time": 306.4516175000002,
                    "velocity": 0.4645669291338583,
                    "duration": 0.34562212499997713
                },
                {
                    "name": "D5",
                    "midi": 74,
                    "time": 306.4516175000002,
                    "velocity": 0.3937007874015748,
                    "duration": 0.46082949999998846
                },
                {
                    "name": "F5",
                    "midi": 77,
                    "time": 306.7972396250002,
                    "velocity": 0.41732283464566927,
                    "duration": 0.11520737500001133
                },
                {
                    "name": "G4",
                    "midi": 67,
                    "time": 306.9124470000002,
                    "velocity": 0.3779527559055118,
                    "duration": 0.9216589999999769
                },
                {
                    "name": "D#5",
                    "midi": 75,
                    "time": 306.9124470000002,
                    "velocity": 0.4409448818897638,
                    "duration": 0.9216589999999769
                },
                {
                    "name": "F#4",
                    "midi": 66,
                    "time": 309.2165945000002,
                    "velocity": 0.47244094488188976,
                    "duration": 0.9216589999999769
                },
                {
                    "name": "D#4",
                    "midi": 63,
                    "time": 309.2165945000002,
                    "velocity": 0.3937007874015748,
                    "duration": 1.3824884999999654
                },
                {
                    "name": "G4",
                    "midi": 67,
                    "time": 310.1382535000002,
                    "velocity": 0.3779527559055118,
                    "duration": 0.46082949999998846
                },
                {
                    "name": "G#4",
                    "midi": 68,
                    "time": 310.5990830000002,
                    "velocity": 0.41732283464566927,
                    "duration": 0.34562212499997713
                },
                {
                    "name": "D4",
                    "midi": 62,
                    "time": 310.5990830000002,
                    "velocity": 0.3543307086614173,
                    "duration": 0.46082949999998846
                },
                {
                    "name": "F4",
                    "midi": 65,
                    "time": 310.94470512500016,
                    "velocity": 0.33858267716535434,
                    "duration": 0.11520737500001133
                },
                {
                    "name": "D#4",
                    "midi": 63,
                    "time": 311.05991250000017,
                    "velocity": 0.3779527559055118,
                    "duration": 0.46082949999998846
                },
                {
                    "name": "G#4",
                    "midi": 68,
                    "time": 311.52074200000015,
                    "velocity": 0.4015748031496063,
                    "duration": 0.6912442500000111
                },
                {
                    "name": "D4",
                    "midi": 62,
                    "time": 311.52074200000015,
                    "velocity": 0.33858267716535434,
                    "duration": 0.9216590000000338
                },
                {
                    "name": "F4",
                    "midi": 65,
                    "time": 312.21198625000017,
                    "velocity": 0.3464566929133858,
                    "duration": 0.23041475000002265
                },
                {
                    "name": "D#4",
                    "midi": 63,
                    "time": 312.4424010000002,
                    "velocity": 0.3779527559055118,
                    "duration": 0.46082949999998846
                },
                {
                    "name": "G#4",
                    "midi": 68,
                    "time": 312.9032305000002,
                    "velocity": 0.4015748031496063,
                    "duration": 0.6912442500000111
                },
                {
                    "name": "D4",
                    "midi": 62,
                    "time": 312.9032305000002,
                    "velocity": 0.33858267716535434,
                    "duration": 0.9216590000000338
                },
                {
                    "name": "F4",
                    "midi": 65,
                    "time": 313.5944747500002,
                    "velocity": 0.3464566929133858,
                    "duration": 0.23041475000002265
                },
                {
                    "name": "D#4",
                    "midi": 63,
                    "time": 313.8248895000002,
                    "velocity": 0.3779527559055118,
                    "duration": 0.46082949999998846
                },
                {
                    "name": "G#4",
                    "midi": 68,
                    "time": 314.2857190000002,
                    "velocity": 0.47244094488188976,
                    "duration": 0.23041475000002265
                },
                {
                    "name": "G#3",
                    "midi": 56,
                    "time": 314.2857190000002,
                    "velocity": 0.3937007874015748,
                    "duration": 0.4416282708333483
                },
                {
                    "name": "G4",
                    "midi": 67,
                    "time": 314.5161337500002,
                    "velocity": 0.4409448818897638,
                    "duration": 0.2304147499999658
                },
                {
                    "name": "G#3",
                    "midi": 56,
                    "time": 314.7465485000002,
                    "velocity": 0.3858267716535433,
                    "duration": 0.4416282708333483
                },
                {
                    "name": "G#4",
                    "midi": 68,
                    "time": 314.7465485000002,
                    "velocity": 0.5196850393700787,
                    "duration": 0.23041475000002265
                },
                {
                    "name": "F4",
                    "midi": 65,
                    "time": 314.9769632500002,
                    "velocity": 0.48031496062992124,
                    "duration": 0.2304147499999658
                },
                {
                    "name": "E4",
                    "midi": 64,
                    "time": 315.2073780000002,
                    "velocity": 0.2755905511811024,
                    "duration": 0.07680491666667422
                },
                {
                    "name": "F4",
                    "midi": 65,
                    "time": 315.28418291666685,
                    "velocity": 0.2677165354330709,
                    "duration": 0.07680491666667422
                },
                {
                    "name": "G4",
                    "midi": 67,
                    "time": 315.3609878333335,
                    "velocity": 0.2204724409448819,
                    "duration": 0.07680491666667422
                },
                {
                    "name": "G#3",
                    "midi": 56,
                    "time": 315.4377927500002,
                    "velocity": 0.2440944881889764,
                    "duration": 1.1520737499999996
                },
                {
                    "name": "F4",
                    "midi": 65,
                    "time": 315.4377927500002,
                    "velocity": 0.29133858267716534,
                    "duration": 1.1520737499999996
                },
                {
                    "name": "G3",
                    "midi": 55,
                    "time": 316.5898665000002,
                    "velocity": 0.2125984251968504,
                    "duration": 0.9216589999999769
                },
                {
                    "name": "D#4",
                    "midi": 63,
                    "time": 316.5898665000002,
                    "velocity": 0.2125984251968504,
                    "duration": 0.9216589999999769
                }
            ],
            "controlChanges": {},
            "id": 1,
            "name": "Piano right",
            "instrumentNumber": 0,
            "instrument": "acoustic grand piano",
            "instrumentFamily": "piano",
            "channelNumber": 0,
            "isPercussion": false
        },
        {
            "startTime": 0,
            "duration": 317.511525499999,
            "length": 1102,
            "notes": [
                {
                    "name": "D#3",
                    "midi": 51,
                    "time": 0,
                    "velocity": 0.14173228346456693,
                    "duration": 0.41474654999999994
                },
                {
                    "name": "G3",
                    "midi": 55,
                    "time": 0,
                    "velocity": 0.14173228346456693,
                    "duration": 0.41474654999999994
                },
                {
                    "name": "A#3",
                    "midi": 58,
                    "time": 0,
                    "velocity": 0.1732283464566929,
                    "duration": 0.41474654999999994
                },
                {
                    "name": "D#3",
                    "midi": 51,
                    "time": 0.46082949999999995,
                    "velocity": 0.11811023622047244,
                    "duration": 0.4147465499999999
                },
                {
                    "name": "G3",
                    "midi": 55,
                    "time": 0.46082949999999995,
                    "velocity": 0.11811023622047244,
                    "duration": 0.4147465499999999
                },
                {
                    "name": "A#3",
                    "midi": 58,
                    "time": 0.46082949999999995,
                    "velocity": 0.14173228346456693,
                    "duration": 0.4147465499999999
                },
                {
                    "name": "D#3",
                    "midi": 51,
                    "time": 0.9216589999999998,
                    "velocity": 0.11811023622047244,
                    "duration": 0.41474655000000005
                },
                {
                    "name": "G3",
                    "midi": 55,
                    "time": 0.9216589999999998,
                    "velocity": 0.11811023622047244,
                    "duration": 0.41474655000000005
                },
                {
                    "name": "A#3",
                    "midi": 58,
                    "time": 0.9216589999999998,
                    "velocity": 0.14173228346456693,
                    "duration": 0.41474655000000005
                },
                {
                    "name": "D#3",
                    "midi": 51,
                    "time": 1.3824884999999998,
                    "velocity": 0.13385826771653545,
                    "duration": 0.41474655000000005
                },
                {
                    "name": "G3",
                    "midi": 55,
                    "time": 1.3824884999999998,
                    "velocity": 0.13385826771653545,
                    "duration": 0.41474655000000005
                },
                {
                    "name": "A#3",
                    "midi": 58,
                    "time": 1.3824884999999998,
                    "velocity": 0.15748031496062992,
                    "duration": 0.41474655000000005
                },
                {
                    "name": "D#3",
                    "midi": 51,
                    "time": 1.8433179999999998,
                    "velocity": 0.11811023622047244,
                    "duration": 0.41474655000000005
                },
                {
                    "name": "G3",
                    "midi": 55,
                    "time": 1.8433179999999998,
                    "velocity": 0.11811023622047244,
                    "duration": 0.41474655000000005
                },
                {
                    "name": "A#3",
                    "midi": 58,
                    "time": 1.8433179999999998,
                    "velocity": 0.14173228346456693,
                    "duration": 0.41474655000000005
                },
                {
                    "name": "D#3",
                    "midi": 51,
                    "time": 2.3041475,
                    "velocity": 0.11811023622047244,
                    "duration": 0.4147465499999998
                },
                {
                    "name": "G3",
                    "midi": 55,
                    "time": 2.3041475,
                    "velocity": 0.11811023622047244,
                    "duration": 0.4147465499999998
                },
                {
                    "name": "A#3",
                    "midi": 58,
                    "time": 2.3041475,
                    "velocity": 0.14173228346456693,
                    "duration": 0.4147465499999998
                },
                {
                    "name": "D#3",
                    "midi": 51,
                    "time": 2.764977,
                    "velocity": 0.14173228346456693,
                    "duration": 0.4147465499999998
                },
                {
                    "name": "G3",
                    "midi": 55,
                    "time": 2.764977,
                    "velocity": 0.14173228346456693,
                    "duration": 0.4147465499999998
                },
                {
                    "name": "A#3",
                    "midi": 58,
                    "time": 2.764977,
                    "velocity": 0.16535433070866143,
                    "duration": 0.4147465499999998
                },
                {
                    "name": "D#3",
                    "midi": 51,
                    "time": 3.2258065,
                    "velocity": 0.11811023622047244,
                    "duration": 0.4147465499999998
                },
                {
                    "name": "G3",
                    "midi": 55,
                    "time": 3.2258065,
                    "velocity": 0.11811023622047244,
                    "duration": 0.4147465499999998
                },
                {
                    "name": "A#3",
                    "midi": 58,
                    "time": 3.2258065,
                    "velocity": 0.14173228346456693,
                    "duration": 0.4147465499999998
                },
                {
                    "name": "D#3",
                    "midi": 51,
                    "time": 3.686636,
                    "velocity": 0.11811023622047244,
                    "duration": 0.41474655000000027
                },
                {
                    "name": "G3",
                    "midi": 55,
                    "time": 3.686636,
                    "velocity": 0.11811023622047244,
                    "duration": 0.41474655000000027
                },
                {
                    "name": "A#3",
                    "midi": 58,
                    "time": 3.686636,
                    "velocity": 0.14173228346456693,
                    "duration": 0.41474655000000027
                },
                {
                    "name": "D#3",
                    "midi": 51,
                    "time": 4.1474655,
                    "velocity": 0.14173228346456693,
                    "duration": 0.41474655000000027
                },
                {
                    "name": "G3",
                    "midi": 55,
                    "time": 4.1474655,
                    "velocity": 0.14173228346456693,
                    "duration": 0.41474655000000027
                },
                {
                    "name": "A#3",
                    "midi": 58,
                    "time": 4.1474655,
                    "velocity": 0.1732283464566929,
                    "duration": 0.41474655000000027
                },
                {
                    "name": "D#3",
                    "midi": 51,
                    "time": 4.608295,
                    "velocity": 0.11811023622047244,
                    "duration": 0.41474655000000027
                },
                {
                    "name": "G3",
                    "midi": 55,
                    "time": 4.608295,
                    "velocity": 0.11811023622047244,
                    "duration": 0.41474655000000027
                },
                {
                    "name": "A#3",
                    "midi": 58,
                    "time": 4.608295,
                    "velocity": 0.14173228346456693,
                    "duration": 0.41474655000000027
                },
                {
                    "name": "D#3",
                    "midi": 51,
                    "time": 5.0691245,
                    "velocity": 0.11811023622047244,
                    "duration": 0.41474655000000027
                },
                {
                    "name": "G3",
                    "midi": 55,
                    "time": 5.0691245,
                    "velocity": 0.11811023622047244,
                    "duration": 0.41474655000000027
                },
                {
                    "name": "A#3",
                    "midi": 58,
                    "time": 5.0691245,
                    "velocity": 0.14173228346456693,
                    "duration": 0.41474655000000027
                },
                {
                    "name": "D#3",
                    "midi": 51,
                    "time": 5.529954,
                    "velocity": 0.13385826771653545,
                    "duration": 0.41474655000000027
                },
                {
                    "name": "G3",
                    "midi": 55,
                    "time": 5.529954,
                    "velocity": 0.13385826771653545,
                    "duration": 0.41474655000000027
                },
                {
                    "name": "A#3",
                    "midi": 58,
                    "time": 5.529954,
                    "velocity": 0.15748031496062992,
                    "duration": 0.41474655000000027
                },
                {
                    "name": "D#3",
                    "midi": 51,
                    "time": 5.9907835,
                    "velocity": 0.11811023622047244,
                    "duration": 0.41474655000000027
                },
                {
                    "name": "G3",
                    "midi": 55,
                    "time": 5.9907835,
                    "velocity": 0.11811023622047244,
                    "duration": 0.41474655000000027
                },
                {
                    "name": "A#3",
                    "midi": 58,
                    "time": 5.9907835,
                    "velocity": 0.14173228346456693,
                    "duration": 0.41474655000000027
                },
                {
                    "name": "D#3",
                    "midi": 51,
                    "time": 6.451613,
                    "velocity": 0.11811023622047244,
                    "duration": 0.41474655000000027
                },
                {
                    "name": "G3",
                    "midi": 55,
                    "time": 6.451613,
                    "velocity": 0.11811023622047244,
                    "duration": 0.41474655000000027
                },
                {
                    "name": "A#3",
                    "midi": 58,
                    "time": 6.451613,
                    "velocity": 0.14173228346456693,
                    "duration": 0.41474655000000027
                },
                {
                    "name": "D#3",
                    "midi": 51,
                    "time": 6.9124425,
                    "velocity": 0.14173228346456693,
                    "duration": 0.41474655000000027
                },
                {
                    "name": "G3",
                    "midi": 55,
                    "time": 6.9124425,
                    "velocity": 0.14173228346456693,
                    "duration": 0.41474655000000027
                },
                {
                    "name": "A#3",
                    "midi": 58,
                    "time": 6.9124425,
                    "velocity": 0.16535433070866143,
                    "duration": 0.41474655000000027
                },
                {
                    "name": "D#3",
                    "midi": 51,
                    "time": 7.373272,
                    "velocity": 0.11811023622047244,
                    "duration": 0.41474655000000027
                },
                {
                    "name": "G3",
                    "midi": 55,
                    "time": 7.373272,
                    "velocity": 0.11811023622047244,
                    "duration": 0.41474655000000027
                },
                {
                    "name": "A#3",
                    "midi": 58,
                    "time": 7.373272,
                    "velocity": 0.14173228346456693,
                    "duration": 0.41474655000000027
                },
                {
                    "name": "D#3",
                    "midi": 51,
                    "time": 7.8341015,
                    "velocity": 0.11811023622047244,
                    "duration": 0.4147465499999994
                },
                {
                    "name": "G3",
                    "midi": 55,
                    "time": 7.8341015,
                    "velocity": 0.11811023622047244,
                    "duration": 0.4147465499999994
                },
                {
                    "name": "A#3",
                    "midi": 58,
                    "time": 7.8341015,
                    "velocity": 0.14173228346456693,
                    "duration": 0.4147465499999994
                },
                {
                    "name": "D3",
                    "midi": 50,
                    "time": 8.294931,
                    "velocity": 0.14173228346456693,
                    "duration": 0.41474655000000027
                },
                {
                    "name": "G#3",
                    "midi": 56,
                    "time": 8.294931,
                    "velocity": 0.14173228346456693,
                    "duration": 0.41474655000000027
                },
                {
                    "name": "A#3",
                    "midi": 58,
                    "time": 8.294931,
                    "velocity": 0.1732283464566929,
                    "duration": 0.41474655000000027
                },
                {
                    "name": "D3",
                    "midi": 50,
                    "time": 8.755760500000001,
                    "velocity": 0.11811023622047244,
                    "duration": 0.41474655000000027
                },
                {
                    "name": "G#3",
                    "midi": 56,
                    "time": 8.755760500000001,
                    "velocity": 0.11811023622047244,
                    "duration": 0.41474655000000027
                },
                {
                    "name": "A#3",
                    "midi": 58,
                    "time": 8.755760500000001,
                    "velocity": 0.14173228346456693,
                    "duration": 0.41474655000000027
                },
                {
                    "name": "D3",
                    "midi": 50,
                    "time": 9.216590000000002,
                    "velocity": 0.11811023622047244,
                    "duration": 0.41474655000000027
                },
                {
                    "name": "G#3",
                    "midi": 56,
                    "time": 9.216590000000002,
                    "velocity": 0.11811023622047244,
                    "duration": 0.41474655000000027
                },
                {
                    "name": "A#3",
                    "midi": 58,
                    "time": 9.216590000000002,
                    "velocity": 0.14173228346456693,
                    "duration": 0.41474655000000027
                },
                {
                    "name": "D3",
                    "midi": 50,
                    "time": 9.677419500000003,
                    "velocity": 0.13385826771653545,
                    "duration": 0.41474655000000027
                },
                {
                    "name": "G#3",
                    "midi": 56,
                    "time": 9.677419500000003,
                    "velocity": 0.13385826771653545,
                    "duration": 0.41474655000000027
                },
                {
                    "name": "A#3",
                    "midi": 58,
                    "time": 9.677419500000003,
                    "velocity": 0.15748031496062992,
                    "duration": 0.41474655000000027
                },
                {
                    "name": "D3",
                    "midi": 50,
                    "time": 10.138249000000004,
                    "velocity": 0.11811023622047244,
                    "duration": 0.41474655000000027
                },
                {
                    "name": "G#3",
                    "midi": 56,
                    "time": 10.138249000000004,
                    "velocity": 0.11811023622047244,
                    "duration": 0.41474655000000027
                },
                {
                    "name": "A#3",
                    "midi": 58,
                    "time": 10.138249000000004,
                    "velocity": 0.14173228346456693,
                    "duration": 0.41474655000000027
                },
                {
                    "name": "D3",
                    "midi": 50,
                    "time": 10.599078500000005,
                    "velocity": 0.11811023622047244,
                    "duration": 0.41474655000000027
                },
                {
                    "name": "G#3",
                    "midi": 56,
                    "time": 10.599078500000005,
                    "velocity": 0.11811023622047244,
                    "duration": 0.41474655000000027
                },
                {
                    "name": "A#3",
                    "midi": 58,
                    "time": 10.599078500000005,
                    "velocity": 0.14173228346456693,
                    "duration": 0.41474655000000027
                },
                {
                    "name": "D3",
                    "midi": 50,
                    "time": 11.059908000000005,
                    "velocity": 0.14173228346456693,
                    "duration": 0.41474655000000027
                },
                {
                    "name": "G#3",
                    "midi": 56,
                    "time": 11.059908000000005,
                    "velocity": 0.14173228346456693,
                    "duration": 0.41474655000000027
                },
                {
                    "name": "A#3",
                    "midi": 58,
                    "time": 11.059908000000005,
                    "velocity": 0.16535433070866143,
                    "duration": 0.41474655000000027
                },
                {
                    "name": "D3",
                    "midi": 50,
                    "time": 11.520737500000006,
                    "velocity": 0.11811023622047244,
                    "duration": 0.41474655000000027
                },
                {
                    "name": "G#3",
                    "midi": 56,
                    "time": 11.520737500000006,
                    "velocity": 0.11811023622047244,
                    "duration": 0.41474655000000027
                },
                {
                    "name": "A#3",
                    "midi": 58,
                    "time": 11.520737500000006,
                    "velocity": 0.14173228346456693,
                    "duration": 0.41474655000000027
                },
                {
                    "name": "D3",
                    "midi": 50,
                    "time": 11.981567000000007,
                    "velocity": 0.11811023622047244,
                    "duration": 0.41474655000000027
                },
                {
                    "name": "G#3",
                    "midi": 56,
                    "time": 11.981567000000007,
                    "velocity": 0.11811023622047244,
                    "duration": 0.41474655000000027
                },
                {
                    "name": "A#3",
                    "midi": 58,
                    "time": 11.981567000000007,
                    "velocity": 0.14173228346456693,
                    "duration": 0.41474655000000027
                },
                {
                    "name": "F3",
                    "midi": 53,
                    "time": 12.442396500000008,
                    "velocity": 0.14173228346456693,
                    "duration": 0.41474655000000027
                },
                {
                    "name": "D3",
                    "midi": 50,
                    "time": 12.442396500000008,
                    "velocity": 0.14173228346456693,
                    "duration": 0.41474655000000027
                },
                {
                    "name": "G#3",
                    "midi": 56,
                    "time": 12.442396500000008,
                    "velocity": 0.14173228346456693,
                    "duration": 0.41474655000000027
                },
                {
                    "name": "A#3",
                    "midi": 58,
                    "time": 12.442396500000008,
                    "velocity": 0.1732283464566929,
                    "duration": 0.41474655000000027
                },
                {
                    "name": "F3",
                    "midi": 53,
                    "time": 12.903226000000009,
                    "velocity": 0.11811023622047244,
                    "duration": 0.41474655000000027
                },
                {
                    "name": "D3",
                    "midi": 50,
                    "time": 12.903226000000009,
                    "velocity": 0.11811023622047244,
                    "duration": 0.41474655000000027
                },
                {
                    "name": "G#3",
                    "midi": 56,
                    "time": 12.903226000000009,
                    "velocity": 0.11811023622047244,
                    "duration": 0.41474655000000027
                },
                {
                    "name": "A#3",
                    "midi": 58,
                    "time": 12.903226000000009,
                    "velocity": 0.14173228346456693,
                    "duration": 0.41474655000000027
                },
                {
                    "name": "F3",
                    "midi": 53,
                    "time": 13.36405550000001,
                    "velocity": 0.11811023622047244,
                    "duration": 0.41474655000000027
                },
                {
                    "name": "D3",
                    "midi": 50,
                    "time": 13.36405550000001,
                    "velocity": 0.11811023622047244,
                    "duration": 0.41474655000000027
                },
                {
                    "name": "G#3",
                    "midi": 56,
                    "time": 13.36405550000001,
                    "velocity": 0.11811023622047244,
                    "duration": 0.41474655000000027
                },
                {
                    "name": "A#3",
                    "midi": 58,
                    "time": 13.36405550000001,
                    "velocity": 0.14173228346456693,
                    "duration": 0.41474655000000027
                },
                {
                    "name": "F3",
                    "midi": 53,
                    "time": 13.82488500000001,
                    "velocity": 0.13385826771653545,
                    "duration": 0.41474655000000027
                },
                {
                    "name": "D3",
                    "midi": 50,
                    "time": 13.82488500000001,
                    "velocity": 0.13385826771653545,
                    "duration": 0.41474655000000027
                },
                {
                    "name": "G#3",
                    "midi": 56,
                    "time": 13.82488500000001,
                    "velocity": 0.13385826771653545,
                    "duration": 0.41474655000000027
                },
                {
                    "name": "A#3",
                    "midi": 58,
                    "time": 13.82488500000001,
                    "velocity": 0.15748031496062992,
                    "duration": 0.41474655000000027
                },
                {
                    "name": "F3",
                    "midi": 53,
                    "time": 14.285714500000012,
                    "velocity": 0.11811023622047244,
                    "duration": 0.41474655000000027
                },
                {
                    "name": "D3",
                    "midi": 50,
                    "time": 14.285714500000012,
                    "velocity": 0.11811023622047244,
                    "duration": 0.41474655000000027
                },
                {
                    "name": "G#3",
                    "midi": 56,
                    "time": 14.285714500000012,
                    "velocity": 0.11811023622047244,
                    "duration": 0.41474655000000027
                },
                {
                    "name": "A#3",
                    "midi": 58,
                    "time": 14.285714500000012,
                    "velocity": 0.14173228346456693,
                    "duration": 0.41474655000000027
                },
                {
                    "name": "F3",
                    "midi": 53,
                    "time": 14.746544000000013,
                    "velocity": 0.11811023622047244,
                    "duration": 0.41474655000000027
                },
                {
                    "name": "D3",
                    "midi": 50,
                    "time": 14.746544000000013,
                    "velocity": 0.11811023622047244,
                    "duration": 0.41474655000000027
                },
                {
                    "name": "G#3",
                    "midi": 56,
                    "time": 14.746544000000013,
                    "velocity": 0.11811023622047244,
                    "duration": 0.41474655000000027
                },
                {
                    "name": "A#3",
                    "midi": 58,
                    "time": 14.746544000000013,
                    "velocity": 0.14173228346456693,
                    "duration": 0.41474655000000027
                },
                {
                    "name": "F3",
                    "midi": 53,
                    "time": 15.207373500000013,
                    "velocity": 0.14173228346456693,
                    "duration": 0.41474655000000027
                },
                {
                    "name": "D3",
                    "midi": 50,
                    "time": 15.207373500000013,
                    "velocity": 0.14173228346456693,
                    "duration": 0.41474655000000027
                },
                {
                    "name": "G#3",
                    "midi": 56,
                    "time": 15.207373500000013,
                    "velocity": 0.14173228346456693,
                    "duration": 0.41474655000000027
                },
                {
                    "name": "A#3",
                    "midi": 58,
                    "time": 15.207373500000013,
                    "velocity": 0.16535433070866143,
                    "duration": 0.41474655000000027
                },
                {
                    "name": "F3",
                    "midi": 53,
                    "time": 15.668203000000014,
                    "velocity": 0.11811023622047244,
                    "duration": 0.4147465499999985
                },
                {
                    "name": "D3",
                    "midi": 50,
                    "time": 15.668203000000014,
                    "velocity": 0.11811023622047244,
                    "duration": 0.4147465499999985
                },
                {
                    "name": "G#3",
                    "midi": 56,
                    "time": 15.668203000000014,
                    "velocity": 0.11811023622047244,
                    "duration": 0.4147465499999985
                },
                {
                    "name": "A#3",
                    "midi": 58,
                    "time": 15.668203000000014,
                    "velocity": 0.14173228346456693,
                    "duration": 0.4147465499999985
                },
                {
                    "name": "F3",
                    "midi": 53,
                    "time": 16.12903250000001,
                    "velocity": 0.11811023622047244,
                    "duration": 0.41474655000000027
                },
                {
                    "name": "D3",
                    "midi": 50,
                    "time": 16.12903250000001,
                    "velocity": 0.11811023622047244,
                    "duration": 0.41474655000000027
                },
                {
                    "name": "G#3",
                    "midi": 56,
                    "time": 16.12903250000001,
                    "velocity": 0.11811023622047244,
                    "duration": 0.41474655000000027
                },
                {
                    "name": "A#3",
                    "midi": 58,
                    "time": 16.12903250000001,
                    "velocity": 0.14173228346456693,
                    "duration": 0.41474655000000027
                },
                {
                    "name": "D#3",
                    "midi": 51,
                    "time": 16.58986200000001,
                    "velocity": 0.14173228346456693,
                    "duration": 0.41474655000000027
                },
                {
                    "name": "G#3",
                    "midi": 56,
                    "time": 16.58986200000001,
                    "velocity": 0.14173228346456693,
                    "duration": 0.41474655000000027
                },
                {
                    "name": "A#3",
                    "midi": 58,
                    "time": 16.58986200000001,
                    "velocity": 0.1732283464566929,
                    "duration": 0.41474655000000027
                },
                {
                    "name": "D#3",
                    "midi": 51,
                    "time": 17.05069150000001,
                    "velocity": 0.11811023622047244,
                    "duration": 0.41474655000000027
                },
                {
                    "name": "G#3",
                    "midi": 56,
                    "time": 17.05069150000001,
                    "velocity": 0.11811023622047244,
                    "duration": 0.41474655000000027
                },
                {
                    "name": "A#3",
                    "midi": 58,
                    "time": 17.05069150000001,
                    "velocity": 0.14173228346456693,
                    "duration": 0.41474655000000027
                },
                {
                    "name": "D#3",
                    "midi": 51,
                    "time": 17.51152100000001,
                    "velocity": 0.11811023622047244,
                    "duration": 0.41474655000000027
                },
                {
                    "name": "G#3",
                    "midi": 56,
                    "time": 17.51152100000001,
                    "velocity": 0.11811023622047244,
                    "duration": 0.41474655000000027
                },
                {
                    "name": "A#3",
                    "midi": 58,
                    "time": 17.51152100000001,
                    "velocity": 0.14173228346456693,
                    "duration": 0.41474655000000027
                },
                {
                    "name": "D#3",
                    "midi": 51,
                    "time": 17.972350500000008,
                    "velocity": 0.13385826771653545,
                    "duration": 0.41474655000000027
                },
                {
                    "name": "G3",
                    "midi": 55,
                    "time": 17.972350500000008,
                    "velocity": 0.13385826771653545,
                    "duration": 0.41474655000000027
                },
                {
                    "name": "A#3",
                    "midi": 58,
                    "time": 17.972350500000008,
                    "velocity": 0.15748031496062992,
                    "duration": 0.41474655000000027
                },
                {
                    "name": "D#3",
                    "midi": 51,
                    "time": 18.433180000000007,
                    "velocity": 0.11811023622047244,
                    "duration": 0.41474655000000027
                },
                {
                    "name": "G3",
                    "midi": 55,
                    "time": 18.433180000000007,
                    "velocity": 0.11811023622047244,
                    "duration": 0.41474655000000027
                },
                {
                    "name": "A#3",
                    "midi": 58,
                    "time": 18.433180000000007,
                    "velocity": 0.14173228346456693,
                    "duration": 0.41474655000000027
                },
                {
                    "name": "D#3",
                    "midi": 51,
                    "time": 18.894009500000006,
                    "velocity": 0.11811023622047244,
                    "duration": 0.41474655000000027
                },
                {
                    "name": "G3",
                    "midi": 55,
                    "time": 18.894009500000006,
                    "velocity": 0.11811023622047244,
                    "duration": 0.41474655000000027
                },
                {
                    "name": "A#3",
                    "midi": 58,
                    "time": 18.894009500000006,
                    "velocity": 0.14173228346456693,
                    "duration": 0.41474655000000027
                },
                {
                    "name": "D#3",
                    "midi": 51,
                    "time": 19.354839000000005,
                    "velocity": 0.28346456692913385,
                    "duration": 0.4608294999999991
                },
                {
                    "name": "A#2",
                    "midi": 46,
                    "time": 19.815668500000005,
                    "velocity": 0.31496062992125984,
                    "duration": 0.4608294999999991
                },
                {
                    "name": "G#2",
                    "midi": 44,
                    "time": 20.276498000000004,
                    "velocity": 0.33858267716535434,
                    "duration": 0.4608294999999991
                },
                {
                    "name": "G2",
                    "midi": 43,
                    "time": 20.737327500000003,
                    "velocity": 0.3779527559055118,
                    "duration": 0.4608294999999991
                },
                {
                    "name": "G2",
                    "midi": 43,
                    "time": 21.198157000000002,
                    "velocity": 0.2283464566929134,
                    "duration": 0.41474655000000027
                },
                {
                    "name": "A#2",
                    "midi": 46,
                    "time": 21.198157000000002,
                    "velocity": 0.2283464566929134,
                    "duration": 0.41474655000000027
                },
                {
                    "name": "D#3",
                    "midi": 51,
                    "time": 21.198157000000002,
                    "velocity": 0.2755905511811024,
                    "duration": 0.41474655000000027
                },
                {
                    "name": "G2",
                    "midi": 43,
                    "time": 21.6589865,
                    "velocity": 0.2283464566929134,
                    "duration": 0.41474655000000027
                },
                {
                    "name": "A#2",
                    "midi": 46,
                    "time": 21.6589865,
                    "velocity": 0.2283464566929134,
                    "duration": 0.41474655000000027
                },
                {
                    "name": "D#3",
                    "midi": 51,
                    "time": 21.6589865,
                    "velocity": 0.2755905511811024,
                    "duration": 0.41474655000000027
                },
                {
                    "name": "G2",
                    "midi": 43,
                    "time": 22.119816,
                    "velocity": 0.2283464566929134,
                    "duration": 0.41474655000000027
                },
                {
                    "name": "A#2",
                    "midi": 46,
                    "time": 22.119816,
                    "velocity": 0.2283464566929134,
                    "duration": 0.41474655000000027
                },
                {
                    "name": "D#3",
                    "midi": 51,
                    "time": 22.119816,
                    "velocity": 0.2755905511811024,
                    "duration": 0.41474655000000027
                },
                {
                    "name": "G2",
                    "midi": 43,
                    "time": 22.5806455,
                    "velocity": 0.2125984251968504,
                    "duration": 0.41474655000000027
                },
                {
                    "name": "A#2",
                    "midi": 46,
                    "time": 22.5806455,
                    "velocity": 0.2125984251968504,
                    "duration": 0.41474655000000027
                },
                {
                    "name": "D#3",
                    "midi": 51,
                    "time": 22.5806455,
                    "velocity": 0.25196850393700787,
                    "duration": 0.41474655000000027
                },
                {
                    "name": "G2",
                    "midi": 43,
                    "time": 23.041475,
                    "velocity": 0.2125984251968504,
                    "duration": 0.41474655000000027
                },
                {
                    "name": "A#2",
                    "midi": 46,
                    "time": 23.041475,
                    "velocity": 0.2125984251968504,
                    "duration": 0.41474655000000027
                },
                {
                    "name": "D#3",
                    "midi": 51,
                    "time": 23.041475,
                    "velocity": 0.25196850393700787,
                    "duration": 0.41474655000000027
                },
                {
                    "name": "G2",
                    "midi": 43,
                    "time": 23.502304499999997,
                    "velocity": 0.2283464566929134,
                    "duration": 0.41474655000000027
                },
                {
                    "name": "A#2",
                    "midi": 46,
                    "time": 23.502304499999997,
                    "velocity": 0.2283464566929134,
                    "duration": 0.41474655000000027
                },
                {
                    "name": "D#3",
                    "midi": 51,
                    "time": 23.502304499999997,
                    "velocity": 0.2755905511811024,
                    "duration": 0.41474655000000027
                },
                {
                    "name": "G2",
                    "midi": 43,
                    "time": 23.963133999999997,
                    "velocity": 0.1968503937007874,
                    "duration": 0.41474655000000027
                },
                {
                    "name": "A#2",
                    "midi": 46,
                    "time": 23.963133999999997,
                    "velocity": 0.1968503937007874,
                    "duration": 0.41474655000000027
                },
                {
                    "name": "D#3",
                    "midi": 51,
                    "time": 23.963133999999997,
                    "velocity": 0.23622047244094488,
                    "duration": 0.41474655000000027
                },
                {
                    "name": "G2",
                    "midi": 43,
                    "time": 24.423963499999996,
                    "velocity": 0.1968503937007874,
                    "duration": 0.41474655000000027
                },
                {
                    "name": "A#2",
                    "midi": 46,
                    "time": 24.423963499999996,
                    "velocity": 0.1968503937007874,
                    "duration": 0.41474655000000027
                },
                {
                    "name": "D#3",
                    "midi": 51,
                    "time": 24.423963499999996,
                    "velocity": 0.23622047244094488,
                    "duration": 0.41474655000000027
                },
                {
                    "name": "G#2",
                    "midi": 44,
                    "time": 24.884792999999995,
                    "velocity": 0.2440944881889764,
                    "duration": 0.41474655000000027
                },
                {
                    "name": "C3",
                    "midi": 48,
                    "time": 24.884792999999995,
                    "velocity": 0.2440944881889764,
                    "duration": 0.41474655000000027
                },
                {
                    "name": "D#3",
                    "midi": 51,
                    "time": 24.884792999999995,
                    "velocity": 0.2992125984251969,
                    "duration": 0.41474655000000027
                },
                {
                    "name": "G#2",
                    "midi": 44,
                    "time": 25.345622499999994,
                    "velocity": 0.2125984251968504,
                    "duration": 0.41474655000000027
                },
                {
                    "name": "C3",
                    "midi": 48,
                    "time": 25.345622499999994,
                    "velocity": 0.2125984251968504,
                    "duration": 0.41474655000000027
                },
                {
                    "name": "D#3",
                    "midi": 51,
                    "time": 25.345622499999994,
                    "velocity": 0.25984251968503935,
                    "duration": 0.41474655000000027
                },
                {
                    "name": "G#2",
                    "midi": 44,
                    "time": 25.806451999999993,
                    "velocity": 0.2125984251968504,
                    "duration": 0.41474655000000027
                },
                {
                    "name": "C3",
                    "midi": 48,
                    "time": 25.806451999999993,
                    "velocity": 0.2125984251968504,
                    "duration": 0.41474655000000027
                },
                {
                    "name": "D#3",
                    "midi": 51,
                    "time": 25.806451999999993,
                    "velocity": 0.25984251968503935,
                    "duration": 0.41474655000000027
                },
                {
                    "name": "G#2",
                    "midi": 44,
                    "time": 26.267281499999992,
                    "velocity": 0.2440944881889764,
                    "duration": 0.41474655000000027
                },
                {
                    "name": "C3",
                    "midi": 48,
                    "time": 26.267281499999992,
                    "velocity": 0.2440944881889764,
                    "duration": 0.41474655000000027
                },
                {
                    "name": "E3",
                    "midi": 52,
                    "time": 26.267281499999992,
                    "velocity": 0.2992125984251969,
                    "duration": 0.41474655000000027
                },
                {
                    "name": "G#2",
                    "midi": 44,
                    "time": 26.72811099999999,
                    "velocity": 0.2125984251968504,
                    "duration": 0.41474655000000027
                },
                {
                    "name": "C3",
                    "midi": 48,
                    "time": 26.72811099999999,
                    "velocity": 0.2125984251968504,
                    "duration": 0.41474655000000027
                },
                {
                    "name": "E3",
                    "midi": 52,
                    "time": 26.72811099999999,
                    "velocity": 0.25984251968503935,
                    "duration": 0.41474655000000027
                },
                {
                    "name": "G#2",
                    "midi": 44,
                    "time": 27.18894049999999,
                    "velocity": 0.2125984251968504,
                    "duration": 0.41474655000000027
                },
                {
                    "name": "C3",
                    "midi": 48,
                    "time": 27.18894049999999,
                    "velocity": 0.2125984251968504,
                    "duration": 0.41474655000000027
                },
                {
                    "name": "E3",
                    "midi": 52,
                    "time": 27.18894049999999,
                    "velocity": 0.25984251968503935,
                    "duration": 0.41474655000000027
                },
                {
                    "name": "G#2",
                    "midi": 44,
                    "time": 27.64976999999999,
                    "velocity": 0.2440944881889764,
                    "duration": 0.41474655000000027
                },
                {
                    "name": "C3",
                    "midi": 48,
                    "time": 27.64976999999999,
                    "velocity": 0.2440944881889764,
                    "duration": 0.41474655000000027
                },
                {
                    "name": "F3",
                    "midi": 53,
                    "time": 27.64976999999999,
                    "velocity": 0.2992125984251969,
                    "duration": 0.41474655000000027
                },
                {
                    "name": "G#2",
                    "midi": 44,
                    "time": 28.11059949999999,
                    "velocity": 0.1968503937007874,
                    "duration": 0.41474655000000027
                },
                {
                    "name": "C3",
                    "midi": 48,
                    "time": 28.11059949999999,
                    "velocity": 0.1968503937007874,
                    "duration": 0.41474655000000027
                },
                {
                    "name": "F3",
                    "midi": 53,
                    "time": 28.11059949999999,
                    "velocity": 0.23622047244094488,
                    "duration": 0.41474655000000027
                },
                {
                    "name": "G#2",
                    "midi": 44,
                    "time": 28.571428999999988,
                    "velocity": 0.1968503937007874,
                    "duration": 0.41474655000000027
                },
                {
                    "name": "C3",
                    "midi": 48,
                    "time": 28.571428999999988,
                    "velocity": 0.1968503937007874,
                    "duration": 0.41474655000000027
                },
                {
                    "name": "F3",
                    "midi": 53,
                    "time": 28.571428999999988,
                    "velocity": 0.23622047244094488,
                    "duration": 0.41474655000000027
                },
                {
                    "name": "A#2",
                    "midi": 46,
                    "time": 29.032258499999987,
                    "velocity": 0.2283464566929134,
                    "duration": 0.41474655000000027
                },
                {
                    "name": "D#3",
                    "midi": 51,
                    "time": 29.032258499999987,
                    "velocity": 0.2283464566929134,
                    "duration": 0.41474655000000027
                },
                {
                    "name": "G3",
                    "midi": 55,
                    "time": 29.032258499999987,
                    "velocity": 0.2755905511811024,
                    "duration": 0.41474655000000027
                },
                {
                    "name": "A#2",
                    "midi": 46,
                    "time": 29.493087999999986,
                    "velocity": 0.18110236220472442,
                    "duration": 0.41474655000000027
                },
                {
                    "name": "D#3",
                    "midi": 51,
                    "time": 29.493087999999986,
                    "velocity": 0.18110236220472442,
                    "duration": 0.41474655000000027
                },
                {
                    "name": "G3",
                    "midi": 55,
                    "time": 29.493087999999986,
                    "velocity": 0.2204724409448819,
                    "duration": 0.41474655000000027
                },
                {
                    "name": "A#2",
                    "midi": 46,
                    "time": 29.953917499999985,
                    "velocity": 0.18110236220472442,
                    "duration": 0.41474655000000027
                },
                {
                    "name": "D#3",
                    "midi": 51,
                    "time": 29.953917499999985,
                    "velocity": 0.18110236220472442,
                    "duration": 0.41474655000000027
                },
                {
                    "name": "G3",
                    "midi": 55,
                    "time": 29.953917499999985,
                    "velocity": 0.2204724409448819,
                    "duration": 0.41474655000000027
                },
                {
                    "name": "A#2",
                    "midi": 46,
                    "time": 30.414746999999984,
                    "velocity": 0.15748031496062992,
                    "duration": 0.41474655000000027
                },
                {
                    "name": "D#3",
                    "midi": 51,
                    "time": 30.414746999999984,
                    "velocity": 0.15748031496062992,
                    "duration": 0.41474655000000027
                },
                {
                    "name": "G3",
                    "midi": 55,
                    "time": 30.414746999999984,
                    "velocity": 0.1968503937007874,
                    "duration": 0.41474655000000027
                },
                {
                    "name": "A#2",
                    "midi": 46,
                    "time": 30.875576499999983,
                    "velocity": 0.14173228346456693,
                    "duration": 0.41474655000000027
                },
                {
                    "name": "D#3",
                    "midi": 51,
                    "time": 30.875576499999983,
                    "velocity": 0.14173228346456693,
                    "duration": 0.41474655000000027
                },
                {
                    "name": "G3",
                    "midi": 55,
                    "time": 30.875576499999983,
                    "velocity": 0.16535433070866143,
                    "duration": 0.41474655000000027
                },
                {
                    "name": "A#2",
                    "midi": 46,
                    "time": 31.336405999999982,
                    "velocity": 0.13385826771653545,
                    "duration": 0.41474655000000027
                },
                {
                    "name": "D#3",
                    "midi": 51,
                    "time": 31.336405999999982,
                    "velocity": 0.13385826771653545,
                    "duration": 0.41474655000000027
                },
                {
                    "name": "G3",
                    "midi": 55,
                    "time": 31.336405999999982,
                    "velocity": 0.16535433070866143,
                    "duration": 0.41474655000000027
                },
                {
                    "name": "A#2",
                    "midi": 46,
                    "time": 31.79723549999998,
                    "velocity": 0.15748031496062992,
                    "duration": 0.41474655000000027
                },
                {
                    "name": "F3",
                    "midi": 53,
                    "time": 31.79723549999998,
                    "velocity": 0.15748031496062992,
                    "duration": 0.41474655000000027
                },
                {
                    "name": "G#3",
                    "midi": 56,
                    "time": 31.79723549999998,
                    "velocity": 0.1889763779527559,
                    "duration": 0.41474655000000027
                },
                {
                    "name": "A#2",
                    "midi": 46,
                    "time": 32.25806499999998,
                    "velocity": 0.13385826771653545,
                    "duration": 0.4147465499999967
                },
                {
                    "name": "F3",
                    "midi": 53,
                    "time": 32.25806499999998,
                    "velocity": 0.13385826771653545,
                    "duration": 0.4147465499999967
                },
                {
                    "name": "G#3",
                    "midi": 56,
                    "time": 32.25806499999998,
                    "velocity": 0.15748031496062992,
                    "duration": 0.4147465499999967
                },
                {
                    "name": "A#2",
                    "midi": 46,
                    "time": 32.718894499999976,
                    "velocity": 0.12598425196850394,
                    "duration": 0.4147465499999967
                },
                {
                    "name": "F3",
                    "midi": 53,
                    "time": 32.718894499999976,
                    "velocity": 0.12598425196850394,
                    "duration": 0.4147465499999967
                },
                {
                    "name": "G#3",
                    "midi": 56,
                    "time": 32.718894499999976,
                    "velocity": 0.15748031496062992,
                    "duration": 0.4147465499999967
                },
                {
                    "name": "D#3",
                    "midi": 51,
                    "time": 33.17972399999997,
                    "velocity": 0.2047244094488189,
                    "duration": 0.9216589999999982
                },
                {
                    "name": "G3",
                    "midi": 55,
                    "time": 33.17972399999997,
                    "velocity": 0.2440944881889764,
                    "duration": 0.9216589999999982
                },
                {
                    "name": "A#2",
                    "midi": 46,
                    "time": 35.94470099999997,
                    "velocity": 0.2047244094488189,
                    "duration": 1.382488500000001
                },
                {
                    "name": "A#3",
                    "midi": 58,
                    "time": 35.94470099999997,
                    "velocity": 0.2440944881889764,
                    "duration": 0.9216589999999982
                },
                {
                    "name": "G#3",
                    "midi": 56,
                    "time": 36.866359999999965,
                    "velocity": 0.2283464566929134,
                    "duration": 0.46082950000000267
                },
                {
                    "name": "D#3",
                    "midi": 51,
                    "time": 37.32718949999997,
                    "velocity": 0.2047244094488189,
                    "duration": 0.9216589999999982
                },
                {
                    "name": "G3",
                    "midi": 55,
                    "time": 37.32718949999997,
                    "velocity": 0.2440944881889764,
                    "duration": 0.9216589999999982
                },
                {
                    "name": "A#2",
                    "midi": 46,
                    "time": 40.09216649999996,
                    "velocity": 0.2440944881889764,
                    "duration": 0.9216589999999982
                },
                {
                    "name": "A#1",
                    "midi": 34,
                    "time": 40.09216649999996,
                    "velocity": 0.2047244094488189,
                    "duration": 1.382488500000001
                },
                {
                    "name": "G#2",
                    "midi": 44,
                    "time": 41.01382549999996,
                    "velocity": 0.1732283464566929,
                    "duration": 0.46082950000000267
                },
                {
                    "name": "F3",
                    "midi": 53,
                    "time": 41.01382549999996,
                    "velocity": 0.2125984251968504,
                    "duration": 0.46082950000000267
                },
                {
                    "name": "D#2",
                    "midi": 39,
                    "time": 41.47465499999996,
                    "velocity": 0.15748031496062992,
                    "duration": 0.9216589999999982
                },
                {
                    "name": "G2",
                    "midi": 43,
                    "time": 41.47465499999996,
                    "velocity": 0.1889763779527559,
                    "duration": 0.9216589999999982
                },
                {
                    "name": "A#1",
                    "midi": 34,
                    "time": 42.39631399999996,
                    "velocity": 0.2125984251968504,
                    "duration": 0.46082950000000267
                },
                {
                    "name": "G#2",
                    "midi": 44,
                    "time": 42.39631399999996,
                    "velocity": 0.25196850393700787,
                    "duration": 0.46082950000000267
                },
                {
                    "name": "D#2",
                    "midi": 39,
                    "time": 42.857143499999964,
                    "velocity": 0.1732283464566929,
                    "duration": 0.9216589999999982
                },
                {
                    "name": "G2",
                    "midi": 43,
                    "time": 42.857143499999964,
                    "velocity": 0.2047244094488189,
                    "duration": 0.9216589999999982
                },
                {
                    "name": "A#1",
                    "midi": 34,
                    "time": 43.77880249999996,
                    "velocity": 0.2204724409448819,
                    "duration": 0.46082950000000267
                },
                {
                    "name": "G#2",
                    "midi": 44,
                    "time": 43.77880249999996,
                    "velocity": 0.2677165354330709,
                    "duration": 0.46082950000000267
                },
                {
                    "name": "D#2",
                    "midi": 39,
                    "time": 44.239631999999965,
                    "velocity": 0.16535433070866143,
                    "duration": 0.9216589999999982
                },
                {
                    "name": "G2",
                    "midi": 43,
                    "time": 44.239631999999965,
                    "velocity": 0.1968503937007874,
                    "duration": 0.9216589999999982
                },
                {
                    "name": "A#1",
                    "midi": 34,
                    "time": 45.16129099999996,
                    "velocity": 0.2283464566929134,
                    "duration": 0.42242704166666556
                },
                {
                    "name": "G#2",
                    "midi": 44,
                    "time": 45.16129099999996,
                    "velocity": 0.2755905511811024,
                    "duration": 0.42242704166666556
                },
                {
                    "name": "D#2",
                    "midi": 39,
                    "time": 45.62212049999996,
                    "velocity": 0.16535433070866143,
                    "duration": 1.3632872708333323
                },
                {
                    "name": "G#2",
                    "midi": 44,
                    "time": 45.62212049999996,
                    "velocity": 0.1968503937007874,
                    "duration": 1.382488500000001
                },
                {
                    "name": "D#2",
                    "midi": 39,
                    "time": 47.00460899999996,
                    "velocity": 0.14960629921259844,
                    "duration": 0.9216589999999982
                },
                {
                    "name": "G2",
                    "midi": 43,
                    "time": 47.00460899999996,
                    "velocity": 0.18110236220472442,
                    "duration": 0.9216589999999982
                },
                {
                    "name": "D#2",
                    "midi": 39,
                    "time": 49.769585999999954,
                    "velocity": 0.25196850393700787,
                    "duration": 0.46082950000000267
                },
                {
                    "name": "G2",
                    "midi": 43,
                    "time": 50.23041549999996,
                    "velocity": 0.25196850393700787,
                    "duration": 0.46082950000000267
                },
                {
                    "name": "A#2",
                    "midi": 46,
                    "time": 50.69124499999996,
                    "velocity": 0.25196850393700787,
                    "duration": 0.46082950000000267
                },
                {
                    "name": "D#3",
                    "midi": 51,
                    "time": 51.15207449999996,
                    "velocity": 0.28346456692913385,
                    "duration": 0.46082950000000267
                },
                {
                    "name": "G3",
                    "midi": 55,
                    "time": 51.612903999999965,
                    "velocity": 0.2992125984251969,
                    "duration": 0.46082950000000267
                },
                {
                    "name": "A#3",
                    "midi": 58,
                    "time": 52.07373349999997,
                    "velocity": 0.31496062992125984,
                    "duration": 0.4416282708333341
                },
                {
                    "name": "A#2",
                    "midi": 46,
                    "time": 52.53456299999997,
                    "velocity": 0.28346456692913385,
                    "duration": 0.9216589999999982
                },
                {
                    "name": "A#3",
                    "midi": 58,
                    "time": 52.53456299999997,
                    "velocity": 0.33858267716535434,
                    "duration": 0.9216589999999982
                },
                {
                    "name": "A#2",
                    "midi": 46,
                    "time": 53.45622199999997,
                    "velocity": 0.25984251968503935,
                    "duration": 0.4416282708333341
                },
                {
                    "name": "G#3",
                    "midi": 56,
                    "time": 53.45622199999997,
                    "velocity": 0.30708661417322836,
                    "duration": 0.4416282708333341
                },
                {
                    "name": "D#3",
                    "midi": 51,
                    "time": 53.91705149999997,
                    "velocity": 0.25196850393700787,
                    "duration": 1.8433180000000036
                },
                {
                    "name": "G#3",
                    "midi": 56,
                    "time": 53.91705149999997,
                    "velocity": 0.2992125984251969,
                    "duration": 1.382488500000001
                },
                {
                    "name": "G3",
                    "midi": 55,
                    "time": 55.29953999999997,
                    "velocity": 0.23622047244094488,
                    "duration": 0.46082950000000267
                },
                {
                    "name": "D#2",
                    "midi": 39,
                    "time": 58.064516999999974,
                    "velocity": 0.29133858267716534,
                    "duration": 0.46082950000000267
                },
                {
                    "name": "G2",
                    "midi": 43,
                    "time": 58.525346499999976,
                    "velocity": 0.31496062992125984,
                    "duration": 0.46082950000000267
                },
                {
                    "name": "A#2",
                    "midi": 46,
                    "time": 58.98617599999998,
                    "velocity": 0.3464566929133858,
                    "duration": 0.46082950000000267
                },
                {
                    "name": "D#3",
                    "midi": 51,
                    "time": 59.44700549999998,
                    "velocity": 0.3858267716535433,
                    "duration": 0.46082950000000267
                },
                {
                    "name": "G3",
                    "midi": 55,
                    "time": 59.907834999999984,
                    "velocity": 0.41732283464566927,
                    "duration": 0.46082950000000267
                },
                {
                    "name": "A#3",
                    "midi": 58,
                    "time": 60.36866449999999,
                    "velocity": 0.44881889763779526,
                    "duration": 0.4416282708333341
                },
                {
                    "name": "D#4",
                    "midi": 63,
                    "time": 60.82949399999999,
                    "velocity": 0.4881889763779528,
                    "duration": 0.46082950000000267
                },
                {
                    "name": "C4",
                    "midi": 60,
                    "time": 61.29032349999999,
                    "velocity": 0.4566929133858268,
                    "duration": 0.46082950000000267
                },
                {
                    "name": "A#3",
                    "midi": 58,
                    "time": 61.751152999999995,
                    "velocity": 0.4251968503937008,
                    "duration": 0.4416282708333341
                },
                {
                    "name": "A3",
                    "midi": 57,
                    "time": 62.2119825,
                    "velocity": 0.41732283464566927,
                    "duration": 1.382488500000001
                },
                {
                    "name": "G#3",
                    "midi": 56,
                    "time": 63.594471,
                    "velocity": 0.33858267716535434,
                    "duration": 1.3824884999999938
                },
                {
                    "name": "A#3",
                    "midi": 58,
                    "time": 64.97695949999999,
                    "velocity": 0.31496062992125984,
                    "duration": 1.3824884999999938
                },
                {
                    "name": "D#3",
                    "midi": 51,
                    "time": 66.35944799999999,
                    "velocity": 0.2755905511811024,
                    "duration": 1.3824884999999938
                },
                {
                    "name": "E3",
                    "midi": 52,
                    "time": 67.74193649999998,
                    "velocity": 0.2755905511811024,
                    "duration": 1.3824884999999938
                },
                {
                    "name": "F3",
                    "midi": 53,
                    "time": 69.12442499999997,
                    "velocity": 0.2755905511811024,
                    "duration": 1.3824884999999938
                },
                {
                    "name": "A#1",
                    "midi": 34,
                    "time": 70.50691349999997,
                    "velocity": 0.2755905511811024,
                    "duration": 4.147465500000024
                },
                {
                    "name": "A#2",
                    "midi": 46,
                    "time": 70.96774299999997,
                    "velocity": 0.2283464566929134,
                    "duration": 0.4147465500000038
                },
                {
                    "name": "A#2",
                    "midi": 46,
                    "time": 71.42857249999997,
                    "velocity": 0.2283464566929134,
                    "duration": 0.4147465500000038
                },
                {
                    "name": "A#2",
                    "midi": 46,
                    "time": 71.88940199999998,
                    "velocity": 0.25196850393700787,
                    "duration": 0.4147465500000038
                },
                {
                    "name": "A#2",
                    "midi": 46,
                    "time": 72.35023149999998,
                    "velocity": 0.2283464566929134,
                    "duration": 0.4147465500000038
                },
                {
                    "name": "A#2",
                    "midi": 46,
                    "time": 72.81106099999998,
                    "velocity": 0.2283464566929134,
                    "duration": 0.4147465500000038
                },
                {
                    "name": "A#2",
                    "midi": 46,
                    "time": 73.27189049999998,
                    "velocity": 0.25196850393700787,
                    "duration": 0.4147465500000038
                },
                {
                    "name": "A#2",
                    "midi": 46,
                    "time": 73.73271999999999,
                    "velocity": 0.2125984251968504,
                    "duration": 0.4147465500000038
                },
                {
                    "name": "A#2",
                    "midi": 46,
                    "time": 74.19354949999999,
                    "velocity": 0.2125984251968504,
                    "duration": 0.4147465500000038
                },
                {
                    "name": "A#2",
                    "midi": 46,
                    "time": 74.65437899999999,
                    "velocity": 0.25196850393700787,
                    "duration": 0.4147465500000038
                },
                {
                    "name": "A#2",
                    "midi": 46,
                    "time": 75.1152085,
                    "velocity": 0.2204724409448819,
                    "duration": 0.4147465500000038
                },
                {
                    "name": "A#2",
                    "midi": 46,
                    "time": 75.576038,
                    "velocity": 0.2204724409448819,
                    "duration": 0.4147465500000038
                },
                {
                    "name": "A#2",
                    "midi": 46,
                    "time": 76.0368675,
                    "velocity": 0.25196850393700787,
                    "duration": 0.4147465500000038
                },
                {
                    "name": "A#2",
                    "midi": 46,
                    "time": 76.497697,
                    "velocity": 0.2204724409448819,
                    "duration": 0.4147465500000038
                },
                {
                    "name": "A#2",
                    "midi": 46,
                    "time": 76.9585265,
                    "velocity": 0.2204724409448819,
                    "duration": 0.4147465500000038
                },
                {
                    "name": "A#2",
                    "midi": 46,
                    "time": 77.41935600000001,
                    "velocity": 0.25196850393700787,
                    "duration": 0.4147465500000038
                },
                {
                    "name": "A#2",
                    "midi": 46,
                    "time": 77.88018550000001,
                    "velocity": 0.2204724409448819,
                    "duration": 0.4147465500000038
                },
                {
                    "name": "A#2",
                    "midi": 46,
                    "time": 78.34101500000001,
                    "velocity": 0.2204724409448819,
                    "duration": 0.4147465500000038
                },
                {
                    "name": "A#2",
                    "midi": 46,
                    "time": 78.80184450000002,
                    "velocity": 0.25196850393700787,
                    "duration": 0.4147465500000038
                },
                {
                    "name": "A#2",
                    "midi": 46,
                    "time": 79.26267400000002,
                    "velocity": 0.2204724409448819,
                    "duration": 0.4147465500000038
                },
                {
                    "name": "A#2",
                    "midi": 46,
                    "time": 79.72350350000002,
                    "velocity": 0.2204724409448819,
                    "duration": 0.4147465500000038
                },
                {
                    "name": "A#2",
                    "midi": 46,
                    "time": 80.18433300000002,
                    "velocity": 0.25196850393700787,
                    "duration": 0.4147465500000038
                },
                {
                    "name": "A#2",
                    "midi": 46,
                    "time": 80.64516250000003,
                    "velocity": 0.2204724409448819,
                    "duration": 0.4147465500000038
                },
                {
                    "name": "A#2",
                    "midi": 46,
                    "time": 81.10599200000003,
                    "velocity": 0.2204724409448819,
                    "duration": 0.4147465500000038
                },
                {
                    "name": "A#2",
                    "midi": 46,
                    "time": 81.56682150000003,
                    "velocity": 0.25196850393700787,
                    "duration": 0.4147465500000038
                },
                {
                    "name": "A#2",
                    "midi": 46,
                    "time": 82.02765100000003,
                    "velocity": 0.2204724409448819,
                    "duration": 0.4147465500000038
                },
                {
                    "name": "A#2",
                    "midi": 46,
                    "time": 82.48848050000004,
                    "velocity": 0.2204724409448819,
                    "duration": 0.4147465500000038
                },
                {
                    "name": "A#2",
                    "midi": 46,
                    "time": 82.94931000000004,
                    "velocity": 0.25196850393700787,
                    "duration": 0.4147465500000038
                },
                {
                    "name": "A#2",
                    "midi": 46,
                    "time": 83.41013950000004,
                    "velocity": 0.2204724409448819,
                    "duration": 0.4147465500000038
                },
                {
                    "name": "A#2",
                    "midi": 46,
                    "time": 83.87096900000004,
                    "velocity": 0.2204724409448819,
                    "duration": 0.4147465500000038
                },
                {
                    "name": "A#2",
                    "midi": 46,
                    "time": 84.33179850000005,
                    "velocity": 0.25196850393700787,
                    "duration": 0.4147465500000038
                },
                {
                    "name": "A#2",
                    "midi": 46,
                    "time": 84.79262800000005,
                    "velocity": 0.2204724409448819,
                    "duration": 0.4147465500000038
                },
                {
                    "name": "A#2",
                    "midi": 46,
                    "time": 85.25345750000005,
                    "velocity": 0.2204724409448819,
                    "duration": 0.4147465500000038
                },
                {
                    "name": "A#2",
                    "midi": 46,
                    "time": 85.71428700000006,
                    "velocity": 0.25196850393700787,
                    "duration": 0.4147465500000038
                },
                {
                    "name": "A#2",
                    "midi": 46,
                    "time": 86.17511650000006,
                    "velocity": 0.2204724409448819,
                    "duration": 0.4147465500000038
                },
                {
                    "name": "A#2",
                    "midi": 46,
                    "time": 86.63594600000006,
                    "velocity": 0.2204724409448819,
                    "duration": 0.4147465500000038
                },
                {
                    "name": "A#2",
                    "midi": 46,
                    "time": 87.09677550000006,
                    "velocity": 0.25196850393700787,
                    "duration": 0.9216590000000053
                },
                {
                    "name": "A#3",
                    "midi": 58,
                    "time": 88.47926400000007,
                    "velocity": 0.2204724409448819,
                    "duration": 0.9216590000000053
                },
                {
                    "name": "F3",
                    "midi": 53,
                    "time": 88.47926400000007,
                    "velocity": 0.18110236220472442,
                    "duration": 0.9216590000000053
                },
                {
                    "name": "D3",
                    "midi": 50,
                    "time": 88.47926400000007,
                    "velocity": 0.18110236220472442,
                    "duration": 0.9216590000000053
                },
                {
                    "name": "D4",
                    "midi": 62,
                    "time": 89.86175250000008,
                    "velocity": 0.18110236220472442,
                    "duration": 0.9216590000000053
                },
                {
                    "name": "F4",
                    "midi": 65,
                    "time": 89.86175250000008,
                    "velocity": 0.18110236220472442,
                    "duration": 0.9216590000000053
                },
                {
                    "name": "A#4",
                    "midi": 70,
                    "time": 89.86175250000008,
                    "velocity": 0.2204724409448819,
                    "duration": 0.9216590000000053
                },
                {
                    "name": "D#4",
                    "midi": 63,
                    "time": 91.24424100000009,
                    "velocity": 0.18110236220472442,
                    "duration": 0.9216590000000053
                },
                {
                    "name": "G4",
                    "midi": 67,
                    "time": 91.24424100000009,
                    "velocity": 0.18110236220472442,
                    "duration": 0.9216590000000053
                },
                {
                    "name": "A#4",
                    "midi": 70,
                    "time": 91.24424100000009,
                    "velocity": 0.2204724409448819,
                    "duration": 0.9216590000000053
                },
                {
                    "name": "D#4",
                    "midi": 63,
                    "time": 92.6267295000001,
                    "velocity": 0.2204724409448819,
                    "duration": 0.9216590000000053
                },
                {
                    "name": "A#3",
                    "midi": 58,
                    "time": 92.6267295000001,
                    "velocity": 0.18110236220472442,
                    "duration": 0.9216590000000053
                },
                {
                    "name": "G3",
                    "midi": 55,
                    "time": 92.6267295000001,
                    "velocity": 0.18110236220472442,
                    "duration": 0.9216590000000053
                },
                {
                    "name": "E3",
                    "midi": 52,
                    "time": 94.0092180000001,
                    "velocity": 0.18110236220472442,
                    "duration": 0.9216590000000053
                },
                {
                    "name": "C4",
                    "midi": 60,
                    "time": 94.0092180000001,
                    "velocity": 0.2204724409448819,
                    "duration": 0.9216590000000053
                },
                {
                    "name": "A#3",
                    "midi": 58,
                    "time": 94.0092180000001,
                    "velocity": 0.18110236220472442,
                    "duration": 0.9216590000000053
                },
                {
                    "name": "F3",
                    "midi": 53,
                    "time": 95.39170650000011,
                    "velocity": 0.2755905511811024,
                    "duration": 2.7457757708333475
                },
                {
                    "name": "D4",
                    "midi": 62,
                    "time": 95.85253600000011,
                    "velocity": 0.2283464566929134,
                    "duration": 0.46082950000000267
                },
                {
                    "name": "A#3",
                    "midi": 58,
                    "time": 95.85253600000011,
                    "velocity": 0.1889763779527559,
                    "duration": 0.46082950000000267
                },
                {
                    "name": "D4",
                    "midi": 62,
                    "time": 96.31336550000012,
                    "velocity": 0.2440944881889764,
                    "duration": 0.46082950000000267
                },
                {
                    "name": "A#3",
                    "midi": 58,
                    "time": 96.31336550000012,
                    "velocity": 0.1968503937007874,
                    "duration": 0.46082950000000267
                },
                {
                    "name": "A#3",
                    "midi": 58,
                    "time": 96.77419500000012,
                    "velocity": 0.25196850393700787,
                    "duration": 0.46082950000000267
                },
                {
                    "name": "D4",
                    "midi": 62,
                    "time": 96.77419500000012,
                    "velocity": 0.30708661417322836,
                    "duration": 0.46082950000000267
                },
                {
                    "name": "A#3",
                    "midi": 58,
                    "time": 97.23502450000012,
                    "velocity": 0.2755905511811024,
                    "duration": 0.46082950000000267
                },
                {
                    "name": "D4",
                    "midi": 62,
                    "time": 97.23502450000012,
                    "velocity": 0.33070866141732286,
                    "duration": 0.46082950000000267
                },
                {
                    "name": "A#3",
                    "midi": 58,
                    "time": 97.69585400000012,
                    "velocity": 0.30708661417322836,
                    "duration": 0.46082950000000267
                },
                {
                    "name": "D4",
                    "midi": 62,
                    "time": 97.69585400000012,
                    "velocity": 0.36220472440944884,
                    "duration": 0.46082950000000267
                },
                {
                    "name": "F3",
                    "midi": 53,
                    "time": 98.15668350000013,
                    "velocity": 0.29133858267716534,
                    "duration": 1.382488500000008
                },
                {
                    "name": "D#4",
                    "midi": 63,
                    "time": 98.15668350000013,
                    "velocity": 0.3464566929133858,
                    "duration": 0.46082950000000267
                },
                {
                    "name": "A3",
                    "midi": 57,
                    "time": 98.15668350000013,
                    "velocity": 0.29133858267716534,
                    "duration": 0.46082950000000267
                },
                {
                    "name": "A3",
                    "midi": 57,
                    "time": 98.61751300000013,
                    "velocity": 0.25984251968503935,
                    "duration": 0.46082950000000267
                },
                {
                    "name": "D#4",
                    "midi": 63,
                    "time": 98.61751300000013,
                    "velocity": 0.30708661417322836,
                    "duration": 0.46082950000000267
                },
                {
                    "name": "A3",
                    "midi": 57,
                    "time": 99.07834250000013,
                    "velocity": 0.25196850393700787,
                    "duration": 0.46082950000000267
                },
                {
                    "name": "D#4",
                    "midi": 63,
                    "time": 99.07834250000013,
                    "velocity": 0.2992125984251969,
                    "duration": 0.46082950000000267
                },
                {
                    "name": "D4",
                    "midi": 62,
                    "time": 99.53917200000014,
                    "velocity": 0.31496062992125984,
                    "duration": 0.9216590000000053
                },
                {
                    "name": "A#3",
                    "midi": 58,
                    "time": 99.53917200000014,
                    "velocity": 0.2992125984251969,
                    "duration": 0.9216590000000053
                },
                {
                    "name": "F2",
                    "midi": 41,
                    "time": 103.68663750000015,
                    "velocity": 0.2755905511811024,
                    "duration": 2.7457757708333475
                },
                {
                    "name": "D3",
                    "midi": 50,
                    "time": 104.14746700000015,
                    "velocity": 0.2283464566929134,
                    "duration": 0.46082950000000267
                },
                {
                    "name": "A#2",
                    "midi": 46,
                    "time": 104.14746700000015,
                    "velocity": 0.1889763779527559,
                    "duration": 0.46082950000000267
                },
                {
                    "name": "D3",
                    "midi": 50,
                    "time": 104.60829650000015,
                    "velocity": 0.23622047244094488,
                    "duration": 0.46082950000000267
                },
                {
                    "name": "A#2",
                    "midi": 46,
                    "time": 104.60829650000015,
                    "velocity": 0.1968503937007874,
                    "duration": 0.46082950000000267
                },
                {
                    "name": "A#2",
                    "midi": 46,
                    "time": 105.06912600000015,
                    "velocity": 0.2440944881889764,
                    "duration": 0.46082950000000267
                },
                {
                    "name": "D3",
                    "midi": 50,
                    "time": 105.06912600000015,
                    "velocity": 0.2992125984251969,
                    "duration": 0.46082950000000267
                },
                {
                    "name": "A#2",
                    "midi": 46,
                    "time": 105.52995550000016,
                    "velocity": 0.2677165354330709,
                    "duration": 0.46082950000000267
                },
                {
                    "name": "D3",
                    "midi": 50,
                    "time": 105.52995550000016,
                    "velocity": 0.3228346456692913,
                    "duration": 0.46082950000000267
                },
                {
                    "name": "A#2",
                    "midi": 46,
                    "time": 105.99078500000016,
                    "velocity": 0.2992125984251969,
                    "duration": 0.46082950000000267
                },
                {
                    "name": "D3",
                    "midi": 50,
                    "time": 105.99078500000016,
                    "velocity": 0.3543307086614173,
                    "duration": 0.46082950000000267
                },
                {
                    "name": "F2",
                    "midi": 41,
                    "time": 106.45161450000016,
                    "velocity": 0.3543307086614173,
                    "duration": 1.382488500000008
                },
                {
                    "name": "D#3",
                    "midi": 51,
                    "time": 106.45161450000016,
                    "velocity": 0.4251968503937008,
                    "duration": 0.46082950000000267
                },
                {
                    "name": "A2",
                    "midi": 45,
                    "time": 106.45161450000016,
                    "velocity": 0.3543307086614173,
                    "duration": 0.46082950000000267
                },
                {
                    "name": "C3",
                    "midi": 48,
                    "time": 106.91244400000016,
                    "velocity": 0.25984251968503935,
                    "duration": 0.46082950000000267
                },
                {
                    "name": "D#3",
                    "midi": 51,
                    "time": 106.91244400000016,
                    "velocity": 0.30708661417322836,
                    "duration": 0.46082950000000267
                },
                {
                    "name": "C3",
                    "midi": 48,
                    "time": 107.37327350000017,
                    "velocity": 0.25196850393700787,
                    "duration": 0.46082950000000267
                },
                {
                    "name": "D#3",
                    "midi": 51,
                    "time": 107.37327350000017,
                    "velocity": 0.2992125984251969,
                    "duration": 0.46082950000000267
                },
                {
                    "name": "A#2",
                    "midi": 46,
                    "time": 107.83410300000017,
                    "velocity": 0.3464566929133858,
                    "duration": 0.46082950000000267
                },
                {
                    "name": "D3",
                    "midi": 50,
                    "time": 108.29493250000017,
                    "velocity": 0.30708661417322836,
                    "duration": 0.46082950000000267
                },
                {
                    "name": "F3",
                    "midi": 53,
                    "time": 108.75576200000017,
                    "velocity": 0.30708661417322836,
                    "duration": 0.46082950000000267
                },
                {
                    "name": "A#3",
                    "midi": 58,
                    "time": 109.21659150000018,
                    "velocity": 0.3464566929133858,
                    "duration": 0.46082950000000267
                },
                {
                    "name": "D4",
                    "midi": 62,
                    "time": 109.67742100000018,
                    "velocity": 0.2992125984251969,
                    "duration": 0.46082950000000267
                },
                {
                    "name": "E4",
                    "midi": 64,
                    "time": 110.13825050000018,
                    "velocity": 0.2992125984251969,
                    "duration": 0.46082950000000267
                },
                {
                    "name": "F4",
                    "midi": 65,
                    "time": 110.59908000000019,
                    "velocity": 0.3464566929133858,
                    "duration": 0.9216590000000053
                },
                {
                    "name": "C4",
                    "midi": 60,
                    "time": 111.52073900000019,
                    "velocity": 0.3464566929133858,
                    "duration": 0.34562212500000555
                },
                {
                    "name": "F3",
                    "midi": 53,
                    "time": 111.52073900000019,
                    "velocity": 0.29133858267716534,
                    "duration": 0.46082950000000267
                },
                {
                    "name": "D#4",
                    "midi": 63,
                    "time": 111.8663611250002,
                    "velocity": 0.31496062992125984,
                    "duration": 0.11520737499999711
                },
                {
                    "name": "A#1",
                    "midi": 34,
                    "time": 111.9815685000002,
                    "velocity": 0.3464566929133858,
                    "duration": 0.46082950000000267
                },
                {
                    "name": "D2",
                    "midi": 38,
                    "time": 112.4423980000002,
                    "velocity": 0.30708661417322836,
                    "duration": 0.46082950000000267
                },
                {
                    "name": "F2",
                    "midi": 41,
                    "time": 112.9032275000002,
                    "velocity": 0.30708661417322836,
                    "duration": 0.46082950000000267
                },
                {
                    "name": "A#2",
                    "midi": 46,
                    "time": 113.3640570000002,
                    "velocity": 0.3464566929133858,
                    "duration": 0.46082950000000267
                },
                {
                    "name": "D3",
                    "midi": 50,
                    "time": 113.8248865000002,
                    "velocity": 0.2992125984251969,
                    "duration": 0.46082950000000267
                },
                {
                    "name": "E3",
                    "midi": 52,
                    "time": 114.2857160000002,
                    "velocity": 0.2677165354330709,
                    "duration": 0.46082950000000267
                },
                {
                    "name": "F3",
                    "midi": 53,
                    "time": 114.74654550000021,
                    "velocity": 0.30708661417322836,
                    "duration": 0.9216590000000053
                },
                {
                    "name": "C3",
                    "midi": 48,
                    "time": 115.66820450000021,
                    "velocity": 0.30708661417322836,
                    "duration": 0.34562212500000555
                },
                {
                    "name": "F2",
                    "midi": 41,
                    "time": 115.66820450000021,
                    "velocity": 0.25984251968503935,
                    "duration": 0.46082950000000267
                },
                {
                    "name": "D#3",
                    "midi": 51,
                    "time": 116.01382662500022,
                    "velocity": 0.28346456692913385,
                    "duration": 0.11520737499999711
                },
                {
                    "name": "A#2",
                    "midi": 46,
                    "time": 116.12903400000022,
                    "velocity": 0.2677165354330709,
                    "duration": 0.46082950000000267
                },
                {
                    "name": "D3",
                    "midi": 50,
                    "time": 116.12903400000022,
                    "velocity": 0.31496062992125984,
                    "duration": 0.46082950000000267
                },
                {
                    "name": "F2",
                    "midi": 41,
                    "time": 116.58986350000022,
                    "velocity": 0.25984251968503935,
                    "duration": 0.9216589999999911
                },
                {
                    "name": "C3",
                    "midi": 48,
                    "time": 116.58986350000022,
                    "velocity": 0.30708661417322836,
                    "duration": 0.6912442499999969
                },
                {
                    "name": "D#3",
                    "midi": 51,
                    "time": 117.28110775000022,
                    "velocity": 0.2677165354330709,
                    "duration": 0.23041474999999423
                },
                {
                    "name": "A#2",
                    "midi": 46,
                    "time": 117.51152250000021,
                    "velocity": 0.2677165354330709,
                    "duration": 0.46082950000000267
                },
                {
                    "name": "D3",
                    "midi": 50,
                    "time": 117.51152250000021,
                    "velocity": 0.31496062992125984,
                    "duration": 0.46082950000000267
                },
                {
                    "name": "F2",
                    "midi": 41,
                    "time": 117.97235200000021,
                    "velocity": 0.25984251968503935,
                    "duration": 0.9216589999999911
                },
                {
                    "name": "C3",
                    "midi": 48,
                    "time": 117.97235200000021,
                    "velocity": 0.30708661417322836,
                    "duration": 0.6912442499999969
                },
                {
                    "name": "D#3",
                    "midi": 51,
                    "time": 118.66359625000021,
                    "velocity": 0.2677165354330709,
                    "duration": 0.23041474999999423
                },
                {
                    "name": "A#2",
                    "midi": 46,
                    "time": 118.8940110000002,
                    "velocity": 0.2677165354330709,
                    "duration": 0.46082950000000267
                },
                {
                    "name": "D3",
                    "midi": 50,
                    "time": 118.8940110000002,
                    "velocity": 0.31496062992125984,
                    "duration": 0.46082950000000267
                },
                {
                    "name": "F2",
                    "midi": 41,
                    "time": 119.35484050000021,
                    "velocity": 0.2992125984251969,
                    "duration": 0.46082949999998846
                },
                {
                    "name": "C3",
                    "midi": 48,
                    "time": 119.35484050000021,
                    "velocity": 0.3543307086614173,
                    "duration": 0.23041474999999423
                },
                {
                    "name": "B2",
                    "midi": 47,
                    "time": 119.5852552500002,
                    "velocity": 0.33070866141732286,
                    "duration": 0.23041474999999423
                },
                {
                    "name": "F2",
                    "midi": 41,
                    "time": 119.8156700000002,
                    "velocity": 0.30708661417322836,
                    "duration": 0.46082949999998846
                },
                {
                    "name": "C3",
                    "midi": 48,
                    "time": 119.8156700000002,
                    "velocity": 0.4094488188976378,
                    "duration": 0.23041474999999423
                },
                {
                    "name": "D#3",
                    "midi": 51,
                    "time": 120.04608475000019,
                    "velocity": 0.3779527559055118,
                    "duration": 0.23041474999999423
                },
                {
                    "name": "A#2",
                    "midi": 46,
                    "time": 120.50691425000018,
                    "velocity": 0.2283464566929134,
                    "duration": 2.073732750000005
                },
                {
                    "name": "D#3",
                    "midi": 51,
                    "time": 120.50691425000018,
                    "velocity": 0.2755905511811024,
                    "duration": 1.1520737499999996
                },
                {
                    "name": "D3",
                    "midi": 50,
                    "time": 121.65898800000018,
                    "velocity": 0.2755905511811024,
                    "duration": 0.9216590000000053
                },
                {
                    "name": "G2",
                    "midi": 43,
                    "time": 124.42396500000018,
                    "velocity": 0.1968503937007874,
                    "duration": 0.4147465500000038
                },
                {
                    "name": "G1",
                    "midi": 31,
                    "time": 124.42396500000018,
                    "velocity": 0.16535433070866143,
                    "duration": 0.4147465500000038
                },
                {
                    "name": "G1",
                    "midi": 31,
                    "time": 124.88479450000018,
                    "velocity": 0.13385826771653545,
                    "duration": 0.4147465500000038
                },
                {
                    "name": "G2",
                    "midi": 43,
                    "time": 124.88479450000018,
                    "velocity": 0.16535433070866143,
                    "duration": 0.4147465500000038
                },
                {
                    "name": "G1",
                    "midi": 31,
                    "time": 125.34562400000019,
                    "velocity": 0.13385826771653545,
                    "duration": 0.4147465500000038
                },
                {
                    "name": "G2",
                    "midi": 43,
                    "time": 125.34562400000019,
                    "velocity": 0.16535433070866143,
                    "duration": 0.4147465500000038
                },
                {
                    "name": "G1",
                    "midi": 31,
                    "time": 125.80645350000019,
                    "velocity": 0.13385826771653545,
                    "duration": 0.4147465500000038
                },
                {
                    "name": "G2",
                    "midi": 43,
                    "time": 125.80645350000019,
                    "velocity": 0.16535433070866143,
                    "duration": 0.4147465500000038
                },
                {
                    "name": "G1",
                    "midi": 31,
                    "time": 126.26728300000019,
                    "velocity": 0.13385826771653545,
                    "duration": 0.4147465500000038
                },
                {
                    "name": "G2",
                    "midi": 43,
                    "time": 126.26728300000019,
                    "velocity": 0.16535433070866143,
                    "duration": 0.4147465500000038
                },
                {
                    "name": "G1",
                    "midi": 31,
                    "time": 126.7281125000002,
                    "velocity": 0.13385826771653545,
                    "duration": 0.4147465500000038
                },
                {
                    "name": "G2",
                    "midi": 43,
                    "time": 126.7281125000002,
                    "velocity": 0.16535433070866143,
                    "duration": 0.4147465500000038
                },
                {
                    "name": "G1",
                    "midi": 31,
                    "time": 127.1889420000002,
                    "velocity": 0.13385826771653545,
                    "duration": 0.4147465500000038
                },
                {
                    "name": "G2",
                    "midi": 43,
                    "time": 127.1889420000002,
                    "velocity": 0.16535433070866143,
                    "duration": 0.4147465500000038
                },
                {
                    "name": "G1",
                    "midi": 31,
                    "time": 127.6497715000002,
                    "velocity": 0.13385826771653545,
                    "duration": 0.4147465500000038
                },
                {
                    "name": "G2",
                    "midi": 43,
                    "time": 127.6497715000002,
                    "velocity": 0.16535433070866143,
                    "duration": 0.4147465500000038
                },
                {
                    "name": "G1",
                    "midi": 31,
                    "time": 128.1106010000002,
                    "velocity": 0.13385826771653545,
                    "duration": 0.4147465499999896
                },
                {
                    "name": "G2",
                    "midi": 43,
                    "time": 128.1106010000002,
                    "velocity": 0.16535433070866143,
                    "duration": 0.4147465499999896
                },
                {
                    "name": "G2",
                    "midi": 43,
                    "time": 128.5714305000002,
                    "velocity": 0.1968503937007874,
                    "duration": 0.4147465499999896
                },
                {
                    "name": "G1",
                    "midi": 31,
                    "time": 128.5714305000002,
                    "velocity": 0.16535433070866143,
                    "duration": 0.4147465499999896
                },
                {
                    "name": "G1",
                    "midi": 31,
                    "time": 129.03226000000018,
                    "velocity": 0.13385826771653545,
                    "duration": 0.4147465499999896
                },
                {
                    "name": "G2",
                    "midi": 43,
                    "time": 129.03226000000018,
                    "velocity": 0.16535433070866143,
                    "duration": 0.4147465499999896
                },
                {
                    "name": "G1",
                    "midi": 31,
                    "time": 129.49308950000017,
                    "velocity": 0.13385826771653545,
                    "duration": 0.4147465499999896
                },
                {
                    "name": "G2",
                    "midi": 43,
                    "time": 129.49308950000017,
                    "velocity": 0.16535433070866143,
                    "duration": 0.4147465499999896
                },
                {
                    "name": "G1",
                    "midi": 31,
                    "time": 129.95391900000016,
                    "velocity": 0.13385826771653545,
                    "duration": 0.4147465499999896
                },
                {
                    "name": "G2",
                    "midi": 43,
                    "time": 129.95391900000016,
                    "velocity": 0.16535433070866143,
                    "duration": 0.4147465499999896
                },
                {
                    "name": "G1",
                    "midi": 31,
                    "time": 130.41474850000014,
                    "velocity": 0.13385826771653545,
                    "duration": 0.4147465499999896
                },
                {
                    "name": "G2",
                    "midi": 43,
                    "time": 130.41474850000014,
                    "velocity": 0.16535433070866143,
                    "duration": 0.4147465499999896
                },
                {
                    "name": "G1",
                    "midi": 31,
                    "time": 130.87557800000013,
                    "velocity": 0.13385826771653545,
                    "duration": 0.4147465499999896
                },
                {
                    "name": "G2",
                    "midi": 43,
                    "time": 130.87557800000013,
                    "velocity": 0.16535433070866143,
                    "duration": 0.4147465499999896
                },
                {
                    "name": "G1",
                    "midi": 31,
                    "time": 131.33640750000012,
                    "velocity": 0.13385826771653545,
                    "duration": 0.4147465499999896
                },
                {
                    "name": "G2",
                    "midi": 43,
                    "time": 131.33640750000012,
                    "velocity": 0.16535433070866143,
                    "duration": 0.4147465499999896
                },
                {
                    "name": "G1",
                    "midi": 31,
                    "time": 131.7972370000001,
                    "velocity": 0.13385826771653545,
                    "duration": 0.4147465499999896
                },
                {
                    "name": "G2",
                    "midi": 43,
                    "time": 131.7972370000001,
                    "velocity": 0.16535433070866143,
                    "duration": 0.4147465499999896
                },
                {
                    "name": "G1",
                    "midi": 31,
                    "time": 132.2580665000001,
                    "velocity": 0.13385826771653545,
                    "duration": 0.4147465499999896
                },
                {
                    "name": "G2",
                    "midi": 43,
                    "time": 132.2580665000001,
                    "velocity": 0.16535433070866143,
                    "duration": 0.4147465499999896
                },
                {
                    "name": "G2",
                    "midi": 43,
                    "time": 132.7188960000001,
                    "velocity": 0.1968503937007874,
                    "duration": 0.4147465499999896
                },
                {
                    "name": "G1",
                    "midi": 31,
                    "time": 132.7188960000001,
                    "velocity": 0.16535433070866143,
                    "duration": 0.4147465499999896
                },
                {
                    "name": "G1",
                    "midi": 31,
                    "time": 133.17972550000007,
                    "velocity": 0.13385826771653545,
                    "duration": 0.4147465499999896
                },
                {
                    "name": "G2",
                    "midi": 43,
                    "time": 133.17972550000007,
                    "velocity": 0.16535433070866143,
                    "duration": 0.4147465499999896
                },
                {
                    "name": "G1",
                    "midi": 31,
                    "time": 133.64055500000006,
                    "velocity": 0.13385826771653545,
                    "duration": 0.4147465499999896
                },
                {
                    "name": "G2",
                    "midi": 43,
                    "time": 133.64055500000006,
                    "velocity": 0.16535433070866143,
                    "duration": 0.4147465499999896
                },
                {
                    "name": "G1",
                    "midi": 31,
                    "time": 134.10138450000005,
                    "velocity": 0.13385826771653545,
                    "duration": 0.4147465499999896
                },
                {
                    "name": "G2",
                    "midi": 43,
                    "time": 134.10138450000005,
                    "velocity": 0.16535433070866143,
                    "duration": 0.4147465499999896
                },
                {
                    "name": "G1",
                    "midi": 31,
                    "time": 134.56221400000004,
                    "velocity": 0.13385826771653545,
                    "duration": 0.4147465499999896
                },
                {
                    "name": "G2",
                    "midi": 43,
                    "time": 134.56221400000004,
                    "velocity": 0.16535433070866143,
                    "duration": 0.4147465499999896
                },
                {
                    "name": "G1",
                    "midi": 31,
                    "time": 135.02304350000003,
                    "velocity": 0.13385826771653545,
                    "duration": 0.4147465499999896
                },
                {
                    "name": "G2",
                    "midi": 43,
                    "time": 135.02304350000003,
                    "velocity": 0.16535433070866143,
                    "duration": 0.4147465499999896
                },
                {
                    "name": "G1",
                    "midi": 31,
                    "time": 135.48387300000002,
                    "velocity": 0.13385826771653545,
                    "duration": 0.4147465499999896
                },
                {
                    "name": "G2",
                    "midi": 43,
                    "time": 135.48387300000002,
                    "velocity": 0.16535433070866143,
                    "duration": 0.4147465499999896
                },
                {
                    "name": "G1",
                    "midi": 31,
                    "time": 135.9447025,
                    "velocity": 0.13385826771653545,
                    "duration": 0.4147465499999896
                },
                {
                    "name": "G2",
                    "midi": 43,
                    "time": 135.9447025,
                    "velocity": 0.16535433070866143,
                    "duration": 0.4147465499999896
                },
                {
                    "name": "G1",
                    "midi": 31,
                    "time": 136.405532,
                    "velocity": 0.13385826771653545,
                    "duration": 0.4147465499999896
                },
                {
                    "name": "G2",
                    "midi": 43,
                    "time": 136.405532,
                    "velocity": 0.16535433070866143,
                    "duration": 0.4147465499999896
                },
                {
                    "name": "G1",
                    "midi": 31,
                    "time": 136.86636149999998,
                    "velocity": 0.3779527559055118,
                    "duration": 0.46082949999998846
                },
                {
                    "name": "G2",
                    "midi": 43,
                    "time": 136.86636149999998,
                    "velocity": 0.47244094488188976,
                    "duration": 0.46082949999998846
                },
                {
                    "name": "G2",
                    "midi": 43,
                    "time": 137.32719099999997,
                    "velocity": 0.15748031496062992,
                    "duration": 0.4147465499999896
                },
                {
                    "name": "B2",
                    "midi": 47,
                    "time": 137.32719099999997,
                    "velocity": 0.15748031496062992,
                    "duration": 0.4147465499999896
                },
                {
                    "name": "D3",
                    "midi": 50,
                    "time": 137.32719099999997,
                    "velocity": 0.15748031496062992,
                    "duration": 0.4147465499999896
                },
                {
                    "name": "F3",
                    "midi": 53,
                    "time": 137.32719099999997,
                    "velocity": 0.2047244094488189,
                    "duration": 0.4147465499999896
                },
                {
                    "name": "G2",
                    "midi": 43,
                    "time": 137.78802049999996,
                    "velocity": 0.15748031496062992,
                    "duration": 0.4147465499999896
                },
                {
                    "name": "B2",
                    "midi": 47,
                    "time": 137.78802049999996,
                    "velocity": 0.15748031496062992,
                    "duration": 0.4147465499999896
                },
                {
                    "name": "D3",
                    "midi": 50,
                    "time": 137.78802049999996,
                    "velocity": 0.15748031496062992,
                    "duration": 0.4147465499999896
                },
                {
                    "name": "F3",
                    "midi": 53,
                    "time": 137.78802049999996,
                    "velocity": 0.2047244094488189,
                    "duration": 0.4147465499999896
                },
                {
                    "name": "G2",
                    "midi": 43,
                    "time": 138.24884999999995,
                    "velocity": 0.18110236220472442,
                    "duration": 0.4147465499999896
                },
                {
                    "name": "B2",
                    "midi": 47,
                    "time": 138.24884999999995,
                    "velocity": 0.18110236220472442,
                    "duration": 0.4147465499999896
                },
                {
                    "name": "D3",
                    "midi": 50,
                    "time": 138.24884999999995,
                    "velocity": 0.18110236220472442,
                    "duration": 0.4147465499999896
                },
                {
                    "name": "F3",
                    "midi": 53,
                    "time": 138.24884999999995,
                    "velocity": 0.2283464566929134,
                    "duration": 0.4147465499999896
                },
                {
                    "name": "G2",
                    "midi": 43,
                    "time": 138.70967949999994,
                    "velocity": 0.15748031496062992,
                    "duration": 0.4147465499999896
                },
                {
                    "name": "B2",
                    "midi": 47,
                    "time": 138.70967949999994,
                    "velocity": 0.15748031496062992,
                    "duration": 0.4147465499999896
                },
                {
                    "name": "D3",
                    "midi": 50,
                    "time": 138.70967949999994,
                    "velocity": 0.15748031496062992,
                    "duration": 0.4147465499999896
                },
                {
                    "name": "F3",
                    "midi": 53,
                    "time": 138.70967949999994,
                    "velocity": 0.2047244094488189,
                    "duration": 0.4147465499999896
                },
                {
                    "name": "G2",
                    "midi": 43,
                    "time": 139.17050899999992,
                    "velocity": 0.15748031496062992,
                    "duration": 0.4147465499999896
                },
                {
                    "name": "B2",
                    "midi": 47,
                    "time": 139.17050899999992,
                    "velocity": 0.15748031496062992,
                    "duration": 0.4147465499999896
                },
                {
                    "name": "D3",
                    "midi": 50,
                    "time": 139.17050899999992,
                    "velocity": 0.15748031496062992,
                    "duration": 0.4147465499999896
                },
                {
                    "name": "F3",
                    "midi": 53,
                    "time": 139.17050899999992,
                    "velocity": 0.2047244094488189,
                    "duration": 0.4147465499999896
                },
                {
                    "name": "G2",
                    "midi": 43,
                    "time": 139.6313384999999,
                    "velocity": 0.1889763779527559,
                    "duration": 0.4147465499999896
                },
                {
                    "name": "B2",
                    "midi": 47,
                    "time": 139.6313384999999,
                    "velocity": 0.1889763779527559,
                    "duration": 0.4147465499999896
                },
                {
                    "name": "D3",
                    "midi": 50,
                    "time": 139.6313384999999,
                    "velocity": 0.1889763779527559,
                    "duration": 0.4147465499999896
                },
                {
                    "name": "F3",
                    "midi": 53,
                    "time": 139.6313384999999,
                    "velocity": 0.23622047244094488,
                    "duration": 0.4147465499999896
                },
                {
                    "name": "G2",
                    "midi": 43,
                    "time": 140.0921679999999,
                    "velocity": 0.18110236220472442,
                    "duration": 0.4147465499999896
                },
                {
                    "name": "B2",
                    "midi": 47,
                    "time": 140.0921679999999,
                    "velocity": 0.18110236220472442,
                    "duration": 0.4147465499999896
                },
                {
                    "name": "D3",
                    "midi": 50,
                    "time": 140.0921679999999,
                    "velocity": 0.18110236220472442,
                    "duration": 0.4147465499999896
                },
                {
                    "name": "F3",
                    "midi": 53,
                    "time": 140.0921679999999,
                    "velocity": 0.23622047244094488,
                    "duration": 0.4147465499999896
                },
                {
                    "name": "G2",
                    "midi": 43,
                    "time": 140.5529974999999,
                    "velocity": 0.1889763779527559,
                    "duration": 0.4147465499999896
                },
                {
                    "name": "B2",
                    "midi": 47,
                    "time": 140.5529974999999,
                    "velocity": 0.1889763779527559,
                    "duration": 0.4147465499999896
                },
                {
                    "name": "D3",
                    "midi": 50,
                    "time": 140.5529974999999,
                    "velocity": 0.1889763779527559,
                    "duration": 0.4147465499999896
                },
                {
                    "name": "F3",
                    "midi": 53,
                    "time": 140.5529974999999,
                    "velocity": 0.2440944881889764,
                    "duration": 0.4147465499999896
                },
                {
                    "name": "C2",
                    "midi": 36,
                    "time": 141.01382699999988,
                    "velocity": 0.3779527559055118,
                    "duration": 0.46082949999998846
                },
                {
                    "name": "C3",
                    "midi": 48,
                    "time": 141.01382699999988,
                    "velocity": 0.47244094488188976,
                    "duration": 0.46082949999998846
                },
                {
                    "name": "C3",
                    "midi": 48,
                    "time": 141.47465649999987,
                    "velocity": 0.15748031496062992,
                    "duration": 0.4147465499999896
                },
                {
                    "name": "G3",
                    "midi": 55,
                    "time": 141.47465649999987,
                    "velocity": 0.15748031496062992,
                    "duration": 0.4147465499999896
                },
                {
                    "name": "A#3",
                    "midi": 58,
                    "time": 141.47465649999987,
                    "velocity": 0.2047244094488189,
                    "duration": 0.4147465499999896
                },
                {
                    "name": "C3",
                    "midi": 48,
                    "time": 141.93548599999986,
                    "velocity": 0.15748031496062992,
                    "duration": 0.4147465499999896
                },
                {
                    "name": "G3",
                    "midi": 55,
                    "time": 141.93548599999986,
                    "velocity": 0.15748031496062992,
                    "duration": 0.4147465499999896
                },
                {
                    "name": "A#3",
                    "midi": 58,
                    "time": 141.93548599999986,
                    "velocity": 0.2047244094488189,
                    "duration": 0.4147465499999896
                },
                {
                    "name": "C3",
                    "midi": 48,
                    "time": 142.39631549999984,
                    "velocity": 0.18110236220472442,
                    "duration": 0.4147465499999896
                },
                {
                    "name": "G3",
                    "midi": 55,
                    "time": 142.39631549999984,
                    "velocity": 0.18110236220472442,
                    "duration": 0.4147465499999896
                },
                {
                    "name": "A#3",
                    "midi": 58,
                    "time": 142.39631549999984,
                    "velocity": 0.2283464566929134,
                    "duration": 0.4147465499999896
                },
                {
                    "name": "C3",
                    "midi": 48,
                    "time": 142.85714499999983,
                    "velocity": 0.15748031496062992,
                    "duration": 0.4147465499999896
                },
                {
                    "name": "G3",
                    "midi": 55,
                    "time": 142.85714499999983,
                    "velocity": 0.15748031496062992,
                    "duration": 0.4147465499999896
                },
                {
                    "name": "A#3",
                    "midi": 58,
                    "time": 142.85714499999983,
                    "velocity": 0.2047244094488189,
                    "duration": 0.4147465499999896
                },
                {
                    "name": "C3",
                    "midi": 48,
                    "time": 143.31797449999982,
                    "velocity": 0.15748031496062992,
                    "duration": 0.4147465499999896
                },
                {
                    "name": "G3",
                    "midi": 55,
                    "time": 143.31797449999982,
                    "velocity": 0.15748031496062992,
                    "duration": 0.4147465499999896
                },
                {
                    "name": "A#3",
                    "midi": 58,
                    "time": 143.31797449999982,
                    "velocity": 0.2047244094488189,
                    "duration": 0.4147465499999896
                },
                {
                    "name": "C3",
                    "midi": 48,
                    "time": 143.7788039999998,
                    "velocity": 0.1889763779527559,
                    "duration": 0.4147465499999896
                },
                {
                    "name": "G3",
                    "midi": 55,
                    "time": 143.7788039999998,
                    "velocity": 0.1889763779527559,
                    "duration": 0.4147465499999896
                },
                {
                    "name": "A#3",
                    "midi": 58,
                    "time": 143.7788039999998,
                    "velocity": 0.23622047244094488,
                    "duration": 0.4147465499999896
                },
                {
                    "name": "C3",
                    "midi": 48,
                    "time": 144.2396334999998,
                    "velocity": 0.18110236220472442,
                    "duration": 0.4147465499999896
                },
                {
                    "name": "G3",
                    "midi": 55,
                    "time": 144.2396334999998,
                    "velocity": 0.18110236220472442,
                    "duration": 0.4147465499999896
                },
                {
                    "name": "A#3",
                    "midi": 58,
                    "time": 144.2396334999998,
                    "velocity": 0.23622047244094488,
                    "duration": 0.4147465499999896
                },
                {
                    "name": "C3",
                    "midi": 48,
                    "time": 144.7004629999998,
                    "velocity": 0.1889763779527559,
                    "duration": 0.4147465499999896
                },
                {
                    "name": "G3",
                    "midi": 55,
                    "time": 144.7004629999998,
                    "velocity": 0.1889763779527559,
                    "duration": 0.4147465499999896
                },
                {
                    "name": "A#3",
                    "midi": 58,
                    "time": 144.7004629999998,
                    "velocity": 0.2440944881889764,
                    "duration": 0.4147465499999896
                },
                {
                    "name": "F2",
                    "midi": 41,
                    "time": 145.16129249999977,
                    "velocity": 0.3779527559055118,
                    "duration": 0.46082949999998846
                },
                {
                    "name": "F3",
                    "midi": 53,
                    "time": 145.16129249999977,
                    "velocity": 0.47244094488188976,
                    "duration": 0.46082949999998846
                },
                {
                    "name": "F3",
                    "midi": 53,
                    "time": 145.62212199999976,
                    "velocity": 0.15748031496062992,
                    "duration": 0.4147465499999896
                },
                {
                    "name": "C4",
                    "midi": 60,
                    "time": 145.62212199999976,
                    "velocity": 0.15748031496062992,
                    "duration": 0.4147465499999896
                },
                {
                    "name": "D#4",
                    "midi": 63,
                    "time": 145.62212199999976,
                    "velocity": 0.2047244094488189,
                    "duration": 0.4147465499999896
                },
                {
                    "name": "F3",
                    "midi": 53,
                    "time": 146.08295149999975,
                    "velocity": 0.15748031496062992,
                    "duration": 0.4147465499999896
                },
                {
                    "name": "C4",
                    "midi": 60,
                    "time": 146.08295149999975,
                    "velocity": 0.15748031496062992,
                    "duration": 0.4147465499999896
                },
                {
                    "name": "D#4",
                    "midi": 63,
                    "time": 146.08295149999975,
                    "velocity": 0.2047244094488189,
                    "duration": 0.4147465499999896
                },
                {
                    "name": "F3",
                    "midi": 53,
                    "time": 146.54378099999974,
                    "velocity": 0.18110236220472442,
                    "duration": 0.4147465499999896
                },
                {
                    "name": "C4",
                    "midi": 60,
                    "time": 146.54378099999974,
                    "velocity": 0.18110236220472442,
                    "duration": 0.4147465499999896
                },
                {
                    "name": "D#4",
                    "midi": 63,
                    "time": 146.54378099999974,
                    "velocity": 0.2283464566929134,
                    "duration": 0.4147465499999896
                },
                {
                    "name": "F3",
                    "midi": 53,
                    "time": 147.00461049999973,
                    "velocity": 0.15748031496062992,
                    "duration": 0.4147465499999896
                },
                {
                    "name": "C4",
                    "midi": 60,
                    "time": 147.00461049999973,
                    "velocity": 0.15748031496062992,
                    "duration": 0.4147465499999896
                },
                {
                    "name": "D#4",
                    "midi": 63,
                    "time": 147.00461049999973,
                    "velocity": 0.2047244094488189,
                    "duration": 0.4147465499999896
                },
                {
                    "name": "F3",
                    "midi": 53,
                    "time": 147.46543999999972,
                    "velocity": 0.15748031496062992,
                    "duration": 0.4147465499999896
                },
                {
                    "name": "C4",
                    "midi": 60,
                    "time": 147.46543999999972,
                    "velocity": 0.15748031496062992,
                    "duration": 0.4147465499999896
                },
                {
                    "name": "D#4",
                    "midi": 63,
                    "time": 147.46543999999972,
                    "velocity": 0.2047244094488189,
                    "duration": 0.4147465499999896
                },
                {
                    "name": "F3",
                    "midi": 53,
                    "time": 147.9262694999997,
                    "velocity": 0.1889763779527559,
                    "duration": 0.4147465499999896
                },
                {
                    "name": "C4",
                    "midi": 60,
                    "time": 147.9262694999997,
                    "velocity": 0.1889763779527559,
                    "duration": 0.4147465499999896
                },
                {
                    "name": "D#4",
                    "midi": 63,
                    "time": 147.9262694999997,
                    "velocity": 0.23622047244094488,
                    "duration": 0.4147465499999896
                },
                {
                    "name": "F3",
                    "midi": 53,
                    "time": 148.3870989999997,
                    "velocity": 0.1889763779527559,
                    "duration": 0.4147465499999896
                },
                {
                    "name": "C4",
                    "midi": 60,
                    "time": 148.3870989999997,
                    "velocity": 0.1889763779527559,
                    "duration": 0.4147465499999896
                },
                {
                    "name": "D#4",
                    "midi": 63,
                    "time": 148.3870989999997,
                    "velocity": 0.2440944881889764,
                    "duration": 0.4147465499999896
                },
                {
                    "name": "F3",
                    "midi": 53,
                    "time": 148.84792849999968,
                    "velocity": 0.2047244094488189,
                    "duration": 0.4147465499999896
                },
                {
                    "name": "C4",
                    "midi": 60,
                    "time": 148.84792849999968,
                    "velocity": 0.2047244094488189,
                    "duration": 0.4147465499999896
                },
                {
                    "name": "D#4",
                    "midi": 63,
                    "time": 148.84792849999968,
                    "velocity": 0.25984251968503935,
                    "duration": 0.4147465499999896
                },
                {
                    "name": "A#1",
                    "midi": 34,
                    "time": 149.30875799999967,
                    "velocity": 0.3779527559055118,
                    "duration": 0.46082949999998846
                },
                {
                    "name": "A#2",
                    "midi": 46,
                    "time": 149.30875799999967,
                    "velocity": 0.47244094488188976,
                    "duration": 0.46082949999998846
                },
                {
                    "name": "A#2",
                    "midi": 46,
                    "time": 149.76958749999966,
                    "velocity": 0.15748031496062992,
                    "duration": 0.4147465499999896
                },
                {
                    "name": "F3",
                    "midi": 53,
                    "time": 149.76958749999966,
                    "velocity": 0.15748031496062992,
                    "duration": 0.4147465499999896
                },
                {
                    "name": "G#3",
                    "midi": 56,
                    "time": 149.76958749999966,
                    "velocity": 0.2047244094488189,
                    "duration": 0.4147465499999896
                },
                {
                    "name": "A#2",
                    "midi": 46,
                    "time": 150.23041699999965,
                    "velocity": 0.15748031496062992,
                    "duration": 0.4147465499999896
                },
                {
                    "name": "F3",
                    "midi": 53,
                    "time": 150.23041699999965,
                    "velocity": 0.15748031496062992,
                    "duration": 0.4147465499999896
                },
                {
                    "name": "G#3",
                    "midi": 56,
                    "time": 150.23041699999965,
                    "velocity": 0.2047244094488189,
                    "duration": 0.4147465499999896
                },
                {
                    "name": "A#2",
                    "midi": 46,
                    "time": 150.69124649999964,
                    "velocity": 0.18110236220472442,
                    "duration": 0.4147465499999896
                },
                {
                    "name": "F3",
                    "midi": 53,
                    "time": 150.69124649999964,
                    "velocity": 0.18110236220472442,
                    "duration": 0.4147465499999896
                },
                {
                    "name": "G#3",
                    "midi": 56,
                    "time": 150.69124649999964,
                    "velocity": 0.2283464566929134,
                    "duration": 0.4147465499999896
                },
                {
                    "name": "A#2",
                    "midi": 46,
                    "time": 151.15207599999962,
                    "velocity": 0.15748031496062992,
                    "duration": 0.4147465499999896
                },
                {
                    "name": "F3",
                    "midi": 53,
                    "time": 151.15207599999962,
                    "velocity": 0.15748031496062992,
                    "duration": 0.4147465499999896
                },
                {
                    "name": "G#3",
                    "midi": 56,
                    "time": 151.15207599999962,
                    "velocity": 0.2047244094488189,
                    "duration": 0.4147465499999896
                },
                {
                    "name": "A#2",
                    "midi": 46,
                    "time": 151.6129054999996,
                    "velocity": 0.15748031496062992,
                    "duration": 0.4147465499999896
                },
                {
                    "name": "F3",
                    "midi": 53,
                    "time": 151.6129054999996,
                    "velocity": 0.15748031496062992,
                    "duration": 0.4147465499999896
                },
                {
                    "name": "G#3",
                    "midi": 56,
                    "time": 151.6129054999996,
                    "velocity": 0.2047244094488189,
                    "duration": 0.4147465499999896
                },
                {
                    "name": "A#2",
                    "midi": 46,
                    "time": 152.0737349999996,
                    "velocity": 0.1889763779527559,
                    "duration": 0.4147465499999896
                },
                {
                    "name": "F3",
                    "midi": 53,
                    "time": 152.0737349999996,
                    "velocity": 0.1889763779527559,
                    "duration": 0.4147465499999896
                },
                {
                    "name": "G#3",
                    "midi": 56,
                    "time": 152.0737349999996,
                    "velocity": 0.23622047244094488,
                    "duration": 0.4147465499999896
                },
                {
                    "name": "A#2",
                    "midi": 46,
                    "time": 152.5345644999996,
                    "velocity": 0.18110236220472442,
                    "duration": 0.4147465499999896
                },
                {
                    "name": "F3",
                    "midi": 53,
                    "time": 152.5345644999996,
                    "velocity": 0.18110236220472442,
                    "duration": 0.4147465499999896
                },
                {
                    "name": "G#3",
                    "midi": 56,
                    "time": 152.5345644999996,
                    "velocity": 0.23622047244094488,
                    "duration": 0.4147465499999896
                },
                {
                    "name": "A#2",
                    "midi": 46,
                    "time": 152.99539399999958,
                    "velocity": 0.1889763779527559,
                    "duration": 0.4147465499999896
                },
                {
                    "name": "F3",
                    "midi": 53,
                    "time": 152.99539399999958,
                    "velocity": 0.1889763779527559,
                    "duration": 0.4147465499999896
                },
                {
                    "name": "G#3",
                    "midi": 56,
                    "time": 152.99539399999958,
                    "velocity": 0.2440944881889764,
                    "duration": 0.4147465499999896
                },
                {
                    "name": "D#2",
                    "midi": 39,
                    "time": 153.45622349999957,
                    "velocity": 0.3779527559055118,
                    "duration": 0.46082949999998846
                },
                {
                    "name": "D#3",
                    "midi": 51,
                    "time": 153.45622349999957,
                    "velocity": 0.47244094488188976,
                    "duration": 0.46082949999998846
                },
                {
                    "name": "D#3",
                    "midi": 51,
                    "time": 153.91705299999956,
                    "velocity": 0.15748031496062992,
                    "duration": 0.4147465499999896
                },
                {
                    "name": "A#3",
                    "midi": 58,
                    "time": 153.91705299999956,
                    "velocity": 0.15748031496062992,
                    "duration": 0.4147465499999896
                },
                {
                    "name": "C#4",
                    "midi": 61,
                    "time": 153.91705299999956,
                    "velocity": 0.2047244094488189,
                    "duration": 0.4147465499999896
                },
                {
                    "name": "D#3",
                    "midi": 51,
                    "time": 154.37788249999954,
                    "velocity": 0.15748031496062992,
                    "duration": 0.4147465499999896
                },
                {
                    "name": "A#3",
                    "midi": 58,
                    "time": 154.37788249999954,
                    "velocity": 0.15748031496062992,
                    "duration": 0.4147465499999896
                },
                {
                    "name": "C#4",
                    "midi": 61,
                    "time": 154.37788249999954,
                    "velocity": 0.2047244094488189,
                    "duration": 0.4147465499999896
                },
                {
                    "name": "D#3",
                    "midi": 51,
                    "time": 154.83871199999953,
                    "velocity": 0.18110236220472442,
                    "duration": 0.4147465499999896
                },
                {
                    "name": "A#3",
                    "midi": 58,
                    "time": 154.83871199999953,
                    "velocity": 0.18110236220472442,
                    "duration": 0.4147465499999896
                },
                {
                    "name": "C#4",
                    "midi": 61,
                    "time": 154.83871199999953,
                    "velocity": 0.2283464566929134,
                    "duration": 0.4147465499999896
                },
                {
                    "name": "D#3",
                    "midi": 51,
                    "time": 155.29954149999952,
                    "velocity": 0.15748031496062992,
                    "duration": 0.4147465499999896
                },
                {
                    "name": "A#3",
                    "midi": 58,
                    "time": 155.29954149999952,
                    "velocity": 0.15748031496062992,
                    "duration": 0.4147465499999896
                },
                {
                    "name": "C#4",
                    "midi": 61,
                    "time": 155.29954149999952,
                    "velocity": 0.2047244094488189,
                    "duration": 0.4147465499999896
                },
                {
                    "name": "D#3",
                    "midi": 51,
                    "time": 155.7603709999995,
                    "velocity": 0.16535433070866143,
                    "duration": 0.4147465499999896
                },
                {
                    "name": "A#3",
                    "midi": 58,
                    "time": 155.7603709999995,
                    "velocity": 0.16535433070866143,
                    "duration": 0.4147465499999896
                },
                {
                    "name": "C#4",
                    "midi": 61,
                    "time": 155.7603709999995,
                    "velocity": 0.2125984251968504,
                    "duration": 0.4147465499999896
                },
                {
                    "name": "D#3",
                    "midi": 51,
                    "time": 156.2212004999995,
                    "velocity": 0.2047244094488189,
                    "duration": 0.4147465499999896
                },
                {
                    "name": "A#3",
                    "midi": 58,
                    "time": 156.2212004999995,
                    "velocity": 0.2047244094488189,
                    "duration": 0.4147465499999896
                },
                {
                    "name": "C#4",
                    "midi": 61,
                    "time": 156.2212004999995,
                    "velocity": 0.25984251968503935,
                    "duration": 0.4147465499999896
                },
                {
                    "name": "D#3",
                    "midi": 51,
                    "time": 156.6820299999995,
                    "velocity": 0.2125984251968504,
                    "duration": 0.4147465499999896
                },
                {
                    "name": "A#3",
                    "midi": 58,
                    "time": 156.6820299999995,
                    "velocity": 0.2125984251968504,
                    "duration": 0.4147465499999896
                },
                {
                    "name": "C#4",
                    "midi": 61,
                    "time": 156.6820299999995,
                    "velocity": 0.2755905511811024,
                    "duration": 0.4147465499999896
                },
                {
                    "name": "D#3",
                    "midi": 51,
                    "time": 157.14285949999947,
                    "velocity": 0.2283464566929134,
                    "duration": 0.4147465499999896
                },
                {
                    "name": "A#3",
                    "midi": 58,
                    "time": 157.14285949999947,
                    "velocity": 0.2283464566929134,
                    "duration": 0.4147465499999896
                },
                {
                    "name": "C#4",
                    "midi": 61,
                    "time": 157.14285949999947,
                    "velocity": 0.30708661417322836,
                    "duration": 0.4147465499999896
                },
                {
                    "name": "D#3",
                    "midi": 51,
                    "time": 157.60368899999946,
                    "velocity": 0.1889763779527559,
                    "duration": 0.9216590000000053
                },
                {
                    "name": "B3",
                    "midi": 59,
                    "time": 157.60368899999946,
                    "velocity": 0.1889763779527559,
                    "duration": 0.9216590000000053
                },
                {
                    "name": "D#4",
                    "midi": 63,
                    "time": 157.60368899999946,
                    "velocity": 0.2283464566929134,
                    "duration": 0.9216590000000053
                },
                {
                    "name": "C#4",
                    "midi": 61,
                    "time": 158.98617749999946,
                    "velocity": 0.3228346456692913,
                    "duration": 0.23041474999999423
                },
                {
                    "name": "D#4",
                    "midi": 63,
                    "time": 159.21659224999945,
                    "velocity": 0.2677165354330709,
                    "duration": 0.23041474999999423
                },
                {
                    "name": "E4",
                    "midi": 64,
                    "time": 159.44700699999945,
                    "velocity": 0.3228346456692913,
                    "duration": 0.23041474999999423
                },
                {
                    "name": "D#4",
                    "midi": 63,
                    "time": 159.67742174999944,
                    "velocity": 0.28346456692913385,
                    "duration": 0.23041474999999423
                },
                {
                    "name": "E4",
                    "midi": 64,
                    "time": 159.90783649999943,
                    "velocity": 0.3228346456692913,
                    "duration": 0.23041474999999423
                },
                {
                    "name": "C#4",
                    "midi": 61,
                    "time": 160.13825124999943,
                    "velocity": 0.29133858267716534,
                    "duration": 0.23041474999999423
                },
                {
                    "name": "B3",
                    "midi": 59,
                    "time": 160.36866599999942,
                    "velocity": 0.3228346456692913,
                    "duration": 0.23041474999999423
                },
                {
                    "name": "C#4",
                    "midi": 61,
                    "time": 160.59908074999942,
                    "velocity": 0.2992125984251969,
                    "duration": 0.23041474999999423
                },
                {
                    "name": "D#4",
                    "midi": 63,
                    "time": 160.8294954999994,
                    "velocity": 0.3228346456692913,
                    "duration": 0.23041474999999423
                },
                {
                    "name": "C#4",
                    "midi": 61,
                    "time": 161.0599102499994,
                    "velocity": 0.2755905511811024,
                    "duration": 0.23041474999999423
                },
                {
                    "name": "D#4",
                    "midi": 63,
                    "time": 161.2903249999994,
                    "velocity": 0.3228346456692913,
                    "duration": 0.23041474999999423
                },
                {
                    "name": "B3",
                    "midi": 59,
                    "time": 161.5207397499994,
                    "velocity": 0.2755905511811024,
                    "duration": 0.23041474999999423
                },
                {
                    "name": "A#3",
                    "midi": 58,
                    "time": 161.7511544999994,
                    "velocity": 0.3228346456692913,
                    "duration": 0.23041474999999423
                },
                {
                    "name": "B3",
                    "midi": 59,
                    "time": 161.98156924999938,
                    "velocity": 0.2677165354330709,
                    "duration": 0.23041474999999423
                },
                {
                    "name": "C#4",
                    "midi": 61,
                    "time": 162.21198399999938,
                    "velocity": 0.3228346456692913,
                    "duration": 0.23041474999999423
                },
                {
                    "name": "B3",
                    "midi": 59,
                    "time": 162.44239874999937,
                    "velocity": 0.28346456692913385,
                    "duration": 0.23041474999999423
                },
                {
                    "name": "C#4",
                    "midi": 61,
                    "time": 162.67281349999936,
                    "velocity": 0.3228346456692913,
                    "duration": 0.23041474999999423
                },
                {
                    "name": "A#3",
                    "midi": 58,
                    "time": 162.90322824999936,
                    "velocity": 0.29133858267716534,
                    "duration": 0.23041474999999423
                },
                {
                    "name": "B3",
                    "midi": 59,
                    "time": 163.13364299999935,
                    "velocity": 0.3228346456692913,
                    "duration": 0.23041474999999423
                },
                {
                    "name": "C#4",
                    "midi": 61,
                    "time": 163.36405774999935,
                    "velocity": 0.2677165354330709,
                    "duration": 0.23041474999999423
                },
                {
                    "name": "D#4",
                    "midi": 63,
                    "time": 163.59447249999934,
                    "velocity": 0.3228346456692913,
                    "duration": 0.23041474999999423
                },
                {
                    "name": "C#4",
                    "midi": 61,
                    "time": 163.82488724999934,
                    "velocity": 0.28346456692913385,
                    "duration": 0.23041474999999423
                },
                {
                    "name": "D#4",
                    "midi": 63,
                    "time": 164.05530199999933,
                    "velocity": 0.3228346456692913,
                    "duration": 0.23041474999999423
                },
                {
                    "name": "B3",
                    "midi": 59,
                    "time": 164.28571674999932,
                    "velocity": 0.29133858267716534,
                    "duration": 0.23041474999999423
                },
                {
                    "name": "G#3",
                    "midi": 56,
                    "time": 164.51613149999932,
                    "velocity": 0.3228346456692913,
                    "duration": 0.23041474999999423
                },
                {
                    "name": "A#3",
                    "midi": 58,
                    "time": 164.7465462499993,
                    "velocity": 0.2992125984251969,
                    "duration": 0.23041474999999423
                },
                {
                    "name": "B3",
                    "midi": 59,
                    "time": 164.9769609999993,
                    "velocity": 0.3228346456692913,
                    "duration": 0.23041474999999423
                },
                {
                    "name": "A#3",
                    "midi": 58,
                    "time": 165.2073757499993,
                    "velocity": 0.2755905511811024,
                    "duration": 0.23041474999999423
                },
                {
                    "name": "B3",
                    "midi": 59,
                    "time": 165.4377904999993,
                    "velocity": 0.3228346456692913,
                    "duration": 0.23041474999999423
                },
                {
                    "name": "G#3",
                    "midi": 56,
                    "time": 165.6682052499993,
                    "velocity": 0.2755905511811024,
                    "duration": 0.23041474999999423
                },
                {
                    "name": "F#3",
                    "midi": 54,
                    "time": 165.89861999999928,
                    "velocity": 0.3228346456692913,
                    "duration": 0.23041474999999423
                },
                {
                    "name": "G#3",
                    "midi": 56,
                    "time": 166.12903474999928,
                    "velocity": 0.2677165354330709,
                    "duration": 0.23041474999999423
                },
                {
                    "name": "A#3",
                    "midi": 58,
                    "time": 166.35944949999927,
                    "velocity": 0.3228346456692913,
                    "duration": 0.23041474999999423
                },
                {
                    "name": "G#3",
                    "midi": 56,
                    "time": 166.58986424999927,
                    "velocity": 0.28346456692913385,
                    "duration": 0.23041474999999423
                },
                {
                    "name": "A#3",
                    "midi": 58,
                    "time": 166.82027899999926,
                    "velocity": 0.3228346456692913,
                    "duration": 0.23041474999999423
                },
                {
                    "name": "F#3",
                    "midi": 54,
                    "time": 167.05069374999925,
                    "velocity": 0.29133858267716534,
                    "duration": 0.23041474999999423
                },
                {
                    "name": "F3",
                    "midi": 53,
                    "time": 167.28110849999925,
                    "velocity": 0.3228346456692913,
                    "duration": 0.23041474999999423
                },
                {
                    "name": "F#3",
                    "midi": 54,
                    "time": 167.51152324999924,
                    "velocity": 0.2677165354330709,
                    "duration": 0.23041474999999423
                },
                {
                    "name": "G#3",
                    "midi": 56,
                    "time": 167.74193799999924,
                    "velocity": 0.3228346456692913,
                    "duration": 0.23041474999999423
                },
                {
                    "name": "F#3",
                    "midi": 54,
                    "time": 167.97235274999923,
                    "velocity": 0.28346456692913385,
                    "duration": 0.23041474999999423
                },
                {
                    "name": "G#3",
                    "midi": 56,
                    "time": 168.20276749999923,
                    "velocity": 0.3228346456692913,
                    "duration": 0.23041474999999423
                },
                {
                    "name": "F3",
                    "midi": 53,
                    "time": 168.43318224999922,
                    "velocity": 0.29133858267716534,
                    "duration": 0.23041474999999423
                },
                {
                    "name": "F#3",
                    "midi": 54,
                    "time": 168.6635969999992,
                    "velocity": 0.3228346456692913,
                    "duration": 0.23041474999999423
                },
                {
                    "name": "G#3",
                    "midi": 56,
                    "time": 168.8940117499992,
                    "velocity": 0.2992125984251969,
                    "duration": 0.23041474999999423
                },
                {
                    "name": "A#3",
                    "midi": 58,
                    "time": 169.1244264999992,
                    "velocity": 0.3228346456692913,
                    "duration": 0.23041474999999423
                },
                {
                    "name": "G#3",
                    "midi": 56,
                    "time": 169.3548412499992,
                    "velocity": 0.2755905511811024,
                    "duration": 0.23041474999999423
                },
                {
                    "name": "A#3",
                    "midi": 58,
                    "time": 169.5852559999992,
                    "velocity": 0.3228346456692913,
                    "duration": 0.23041474999999423
                },
                {
                    "name": "F#3",
                    "midi": 54,
                    "time": 169.81567074999919,
                    "velocity": 0.2755905511811024,
                    "duration": 0.23041474999999423
                },
                {
                    "name": "D3",
                    "midi": 50,
                    "time": 170.04608549999918,
                    "velocity": 0.3228346456692913,
                    "duration": 0.23041474999999423
                },
                {
                    "name": "D#3",
                    "midi": 51,
                    "time": 170.27650024999917,
                    "velocity": 0.2677165354330709,
                    "duration": 0.23041474999999423
                },
                {
                    "name": "F3",
                    "midi": 53,
                    "time": 170.50691499999917,
                    "velocity": 0.3228346456692913,
                    "duration": 0.23041474999999423
                },
                {
                    "name": "D#3",
                    "midi": 51,
                    "time": 170.73732974999916,
                    "velocity": 0.28346456692913385,
                    "duration": 0.23041474999999423
                },
                {
                    "name": "F3",
                    "midi": 53,
                    "time": 170.96774449999916,
                    "velocity": 0.3228346456692913,
                    "duration": 0.23041474999999423
                },
                {
                    "name": "D3",
                    "midi": 50,
                    "time": 171.19815924999915,
                    "velocity": 0.29133858267716534,
                    "duration": 0.23041474999999423
                },
                {
                    "name": "D#3",
                    "midi": 51,
                    "time": 171.42857399999914,
                    "velocity": 0.3228346456692913,
                    "duration": 0.23041474999999423
                },
                {
                    "name": "F3",
                    "midi": 53,
                    "time": 171.65898874999914,
                    "velocity": 0.2677165354330709,
                    "duration": 0.23041474999999423
                },
                {
                    "name": "F#3",
                    "midi": 54,
                    "time": 171.88940349999913,
                    "velocity": 0.3228346456692913,
                    "duration": 0.23041474999999423
                },
                {
                    "name": "F3",
                    "midi": 53,
                    "time": 172.11981824999913,
                    "velocity": 0.28346456692913385,
                    "duration": 0.23041474999999423
                },
                {
                    "name": "F#3",
                    "midi": 54,
                    "time": 172.35023299999912,
                    "velocity": 0.3228346456692913,
                    "duration": 0.23041474999999423
                },
                {
                    "name": "D#3",
                    "midi": 51,
                    "time": 172.58064774999912,
                    "velocity": 0.29133858267716534,
                    "duration": 0.23041474999999423
                },
                {
                    "name": "C3",
                    "midi": 48,
                    "time": 172.8110624999991,
                    "velocity": 0.3228346456692913,
                    "duration": 0.23041474999999423
                },
                {
                    "name": "D3",
                    "midi": 50,
                    "time": 173.0414772499991,
                    "velocity": 0.2992125984251969,
                    "duration": 0.23041474999999423
                },
                {
                    "name": "D#3",
                    "midi": 51,
                    "time": 173.2718919999991,
                    "velocity": 0.3228346456692913,
                    "duration": 0.23041474999999423
                },
                {
                    "name": "D3",
                    "midi": 50,
                    "time": 173.5023067499991,
                    "velocity": 0.2755905511811024,
                    "duration": 0.23041474999999423
                },
                {
                    "name": "D#3",
                    "midi": 51,
                    "time": 173.7327214999991,
                    "velocity": 0.3228346456692913,
                    "duration": 0.23041474999999423
                },
                {
                    "name": "B2",
                    "midi": 47,
                    "time": 173.96313624999908,
                    "velocity": 0.2755905511811024,
                    "duration": 0.23041474999999423
                },
                {
                    "name": "A#2",
                    "midi": 46,
                    "time": 174.19355099999908,
                    "velocity": 0.3228346456692913,
                    "duration": 1.1520737499999711
                },
                {
                    "name": "C3",
                    "midi": 48,
                    "time": 174.42396574999907,
                    "velocity": 0.2677165354330709,
                    "duration": 0.23041474999999423
                },
                {
                    "name": "D3",
                    "midi": 50,
                    "time": 174.65438049999906,
                    "velocity": 0.3228346456692913,
                    "duration": 0.23041474999999423
                },
                {
                    "name": "C3",
                    "midi": 48,
                    "time": 174.88479524999906,
                    "velocity": 0.28346456692913385,
                    "duration": 0.23041474999999423
                },
                {
                    "name": "A#2",
                    "midi": 46,
                    "time": 175.11520999999905,
                    "velocity": 0.3228346456692913,
                    "duration": 2.2849462708332737
                },
                {
                    "name": "C3",
                    "midi": 48,
                    "time": 175.34562474999905,
                    "velocity": 0.29133858267716534,
                    "duration": 0.23041474999999423
                },
                {
                    "name": "D3",
                    "midi": 50,
                    "time": 175.57603949999904,
                    "velocity": 0.3228346456692913,
                    "duration": 0.23041474999999423
                },
                {
                    "name": "D#3",
                    "midi": 51,
                    "time": 175.80645424999904,
                    "velocity": 0.2677165354330709,
                    "duration": 0.23041474999999423
                },
                {
                    "name": "F3",
                    "midi": 53,
                    "time": 176.03686899999903,
                    "velocity": 0.3228346456692913,
                    "duration": 0.23041474999999423
                },
                {
                    "name": "D#3",
                    "midi": 51,
                    "time": 176.26728374999902,
                    "velocity": 0.28346456692913385,
                    "duration": 0.23041474999999423
                },
                {
                    "name": "D3",
                    "midi": 50,
                    "time": 176.49769849999902,
                    "velocity": 0.3228346456692913,
                    "duration": 0.23041474999999423
                },
                {
                    "name": "F3",
                    "midi": 53,
                    "time": 176.728113249999,
                    "velocity": 0.29133858267716534,
                    "duration": 0.23041474999999423
                },
                {
                    "name": "D#3",
                    "midi": 51,
                    "time": 176.958527999999,
                    "velocity": 0.3228346456692913,
                    "duration": 0.23041474999999423
                },
                {
                    "name": "D3",
                    "midi": 50,
                    "time": 177.188942749999,
                    "velocity": 0.2992125984251969,
                    "duration": 0.23041474999999423
                },
                {
                    "name": "A#2",
                    "midi": 46,
                    "time": 177.419357499999,
                    "velocity": 0.30708661417322836,
                    "duration": 0.4416282708333199
                },
                {
                    "name": "C3",
                    "midi": 48,
                    "time": 177.419357499999,
                    "velocity": 0.3228346456692913,
                    "duration": 0.23041474999999423
                },
                {
                    "name": "D3",
                    "midi": 50,
                    "time": 177.649772249999,
                    "velocity": 0.2755905511811024,
                    "duration": 0.23041474999999423
                },
                {
                    "name": "A#2",
                    "midi": 46,
                    "time": 177.88018699999898,
                    "velocity": 0.30708661417322836,
                    "duration": 0.4416282708333199
                },
                {
                    "name": "D#3",
                    "midi": 51,
                    "time": 177.88018699999898,
                    "velocity": 0.3228346456692913,
                    "duration": 0.23041474999999423
                },
                {
                    "name": "C3",
                    "midi": 48,
                    "time": 178.11060174999898,
                    "velocity": 0.2755905511811024,
                    "duration": 0.23041474999999423
                },
                {
                    "name": "D3",
                    "midi": 50,
                    "time": 178.34101649999897,
                    "velocity": 0.3228346456692913,
                    "duration": 0.23041474999999423
                },
                {
                    "name": "A#2",
                    "midi": 46,
                    "time": 178.34101649999897,
                    "velocity": 0.3228346456692913,
                    "duration": 3.2066052708332506
                },
                {
                    "name": "D#3",
                    "midi": 51,
                    "time": 178.57143124999897,
                    "velocity": 0.2677165354330709,
                    "duration": 0.23041474999999423
                },
                {
                    "name": "F3",
                    "midi": 53,
                    "time": 178.80184599999896,
                    "velocity": 0.3228346456692913,
                    "duration": 0.23041474999999423
                },
                {
                    "name": "D#3",
                    "midi": 51,
                    "time": 179.03226074999895,
                    "velocity": 0.28346456692913385,
                    "duration": 0.23041474999999423
                },
                {
                    "name": "D3",
                    "midi": 50,
                    "time": 179.26267549999895,
                    "velocity": 0.3228346456692913,
                    "duration": 0.23041474999999423
                },
                {
                    "name": "D#3",
                    "midi": 51,
                    "time": 179.49309024999894,
                    "velocity": 0.29133858267716534,
                    "duration": 0.23041474999999423
                },
                {
                    "name": "F3",
                    "midi": 53,
                    "time": 179.72350499999894,
                    "velocity": 0.3228346456692913,
                    "duration": 0.23041474999999423
                },
                {
                    "name": "F#3",
                    "midi": 54,
                    "time": 179.95391974999893,
                    "velocity": 0.2677165354330709,
                    "duration": 0.23041474999999423
                },
                {
                    "name": "G#3",
                    "midi": 56,
                    "time": 180.18433449999893,
                    "velocity": 0.3228346456692913,
                    "duration": 0.23041474999999423
                },
                {
                    "name": "F#3",
                    "midi": 54,
                    "time": 180.41474924999892,
                    "velocity": 0.28346456692913385,
                    "duration": 0.23041474999999423
                },
                {
                    "name": "F3",
                    "midi": 53,
                    "time": 180.6451639999989,
                    "velocity": 0.3228346456692913,
                    "duration": 0.23041474999999423
                },
                {
                    "name": "G#3",
                    "midi": 56,
                    "time": 180.8755787499989,
                    "velocity": 0.29133858267716534,
                    "duration": 0.23041474999999423
                },
                {
                    "name": "F#3",
                    "midi": 54,
                    "time": 181.1059934999989,
                    "velocity": 0.3228346456692913,
                    "duration": 0.23041474999999423
                },
                {
                    "name": "F3",
                    "midi": 53,
                    "time": 181.3364082499989,
                    "velocity": 0.2992125984251969,
                    "duration": 0.23041474999999423
                },
                {
                    "name": "A#2",
                    "midi": 46,
                    "time": 181.5668229999989,
                    "velocity": 0.30708661417322836,
                    "duration": 0.4416282708333199
                },
                {
                    "name": "D#3",
                    "midi": 51,
                    "time": 181.5668229999989,
                    "velocity": 0.3228346456692913,
                    "duration": 0.23041474999999423
                },
                {
                    "name": "F3",
                    "midi": 53,
                    "time": 181.79723774999889,
                    "velocity": 0.2755905511811024,
                    "duration": 0.23041474999999423
                },
                {
                    "name": "A#2",
                    "midi": 46,
                    "time": 182.02765249999888,
                    "velocity": 0.30708661417322836,
                    "duration": 0.4416282708333199
                },
                {
                    "name": "F#3",
                    "midi": 54,
                    "time": 182.02765249999888,
                    "velocity": 0.3228346456692913,
                    "duration": 0.23041474999999423
                },
                {
                    "name": "D#3",
                    "midi": 51,
                    "time": 182.25806724999887,
                    "velocity": 0.2755905511811024,
                    "duration": 0.23041474999999423
                },
                {
                    "name": "A#2",
                    "midi": 46,
                    "time": 182.48848199999887,
                    "velocity": 0.30708661417322836,
                    "duration": 0.9216590000000053
                },
                {
                    "name": "D3",
                    "midi": 50,
                    "time": 182.48848199999887,
                    "velocity": 0.30708661417322836,
                    "duration": 0.9216590000000053
                },
                {
                    "name": "F3",
                    "midi": 53,
                    "time": 182.48848199999887,
                    "velocity": 0.30708661417322836,
                    "duration": 0.9216590000000053
                },
                {
                    "name": "D#2",
                    "midi": 39,
                    "time": 190.78341299999886,
                    "velocity": 0.1968503937007874,
                    "duration": 0.4147465499999896
                },
                {
                    "name": "A#3",
                    "midi": 58,
                    "time": 191.24424249999885,
                    "velocity": 0.15748031496062992,
                    "duration": 0.4147465499999896
                },
                {
                    "name": "G3",
                    "midi": 55,
                    "time": 191.24424249999885,
                    "velocity": 0.13385826771653545,
                    "duration": 0.4147465499999896
                },
                {
                    "name": "D#3",
                    "midi": 51,
                    "time": 191.24424249999885,
                    "velocity": 0.13385826771653545,
                    "duration": 0.4147465499999896
                },
                {
                    "name": "D#3",
                    "midi": 51,
                    "time": 191.70507199999884,
                    "velocity": 0.13385826771653545,
                    "duration": 0.4147465499999896
                },
                {
                    "name": "G3",
                    "midi": 55,
                    "time": 191.70507199999884,
                    "velocity": 0.13385826771653545,
                    "duration": 0.4147465499999896
                },
                {
                    "name": "A#3",
                    "midi": 58,
                    "time": 191.70507199999884,
                    "velocity": 0.15748031496062992,
                    "duration": 0.4147465499999896
                },
                {
                    "name": "D#3",
                    "midi": 51,
                    "time": 192.16590149999882,
                    "velocity": 0.14960629921259844,
                    "duration": 0.4147465499999896
                },
                {
                    "name": "G3",
                    "midi": 55,
                    "time": 192.16590149999882,
                    "velocity": 0.14960629921259844,
                    "duration": 0.4147465499999896
                },
                {
                    "name": "A#3",
                    "midi": 58,
                    "time": 192.16590149999882,
                    "velocity": 0.18110236220472442,
                    "duration": 0.4147465499999896
                },
                {
                    "name": "G3",
                    "midi": 55,
                    "time": 192.6267309999988,
                    "velocity": 0.13385826771653545,
                    "duration": 0.4147465499999896
                },
                {
                    "name": "D#3",
                    "midi": 51,
                    "time": 192.6267309999988,
                    "velocity": 0.13385826771653545,
                    "duration": 0.4147465499999896
                },
                {
                    "name": "A#3",
                    "midi": 58,
                    "time": 192.6267309999988,
                    "velocity": 0.15748031496062992,
                    "duration": 0.4147465499999896
                },
                {
                    "name": "D#3",
                    "midi": 51,
                    "time": 193.0875604999988,
                    "velocity": 0.13385826771653545,
                    "duration": 0.4147465499999896
                },
                {
                    "name": "G3",
                    "midi": 55,
                    "time": 193.0875604999988,
                    "velocity": 0.13385826771653545,
                    "duration": 0.4147465499999896
                },
                {
                    "name": "A#3",
                    "midi": 58,
                    "time": 193.0875604999988,
                    "velocity": 0.15748031496062992,
                    "duration": 0.4147465499999896
                },
                {
                    "name": "A#3",
                    "midi": 58,
                    "time": 193.5483899999988,
                    "velocity": 0.1889763779527559,
                    "duration": 0.4147465499999896
                },
                {
                    "name": "G3",
                    "midi": 55,
                    "time": 193.5483899999988,
                    "velocity": 0.15748031496062992,
                    "duration": 0.4147465499999896
                },
                {
                    "name": "D#3",
                    "midi": 51,
                    "time": 193.5483899999988,
                    "velocity": 0.15748031496062992,
                    "duration": 0.4147465499999896
                },
                {
                    "name": "D#3",
                    "midi": 51,
                    "time": 194.00921949999878,
                    "velocity": 0.13385826771653545,
                    "duration": 0.4147465499999896
                },
                {
                    "name": "G3",
                    "midi": 55,
                    "time": 194.00921949999878,
                    "velocity": 0.13385826771653545,
                    "duration": 0.4147465499999896
                },
                {
                    "name": "A#3",
                    "midi": 58,
                    "time": 194.00921949999878,
                    "velocity": 0.16535433070866143,
                    "duration": 0.4147465499999896
                },
                {
                    "name": "D#3",
                    "midi": 51,
                    "time": 194.47004899999877,
                    "velocity": 0.13385826771653545,
                    "duration": 0.4147465499999896
                },
                {
                    "name": "G3",
                    "midi": 55,
                    "time": 194.47004899999877,
                    "velocity": 0.13385826771653545,
                    "duration": 0.4147465499999896
                },
                {
                    "name": "A#3",
                    "midi": 58,
                    "time": 194.47004899999877,
                    "velocity": 0.16535433070866143,
                    "duration": 0.4147465499999896
                },
                {
                    "name": "G3",
                    "midi": 55,
                    "time": 194.93087849999876,
                    "velocity": 0.16535433070866143,
                    "duration": 0.4147465499999896
                },
                {
                    "name": "D#3",
                    "midi": 51,
                    "time": 194.93087849999876,
                    "velocity": 0.16535433070866143,
                    "duration": 0.4147465499999896
                },
                {
                    "name": "A#3",
                    "midi": 58,
                    "time": 194.93087849999876,
                    "velocity": 0.1968503937007874,
                    "duration": 0.4147465499999896
                },
                {
                    "name": "D#3",
                    "midi": 51,
                    "time": 195.39170799999874,
                    "velocity": 0.13385826771653545,
                    "duration": 0.4147465499999896
                },
                {
                    "name": "G3",
                    "midi": 55,
                    "time": 195.39170799999874,
                    "velocity": 0.13385826771653545,
                    "duration": 0.4147465499999896
                },
                {
                    "name": "A#3",
                    "midi": 58,
                    "time": 195.39170799999874,
                    "velocity": 0.15748031496062992,
                    "duration": 0.4147465499999896
                },
                {
                    "name": "A#3",
                    "midi": 58,
                    "time": 195.85253749999873,
                    "velocity": 0.15748031496062992,
                    "duration": 0.4147465499999896
                },
                {
                    "name": "G3",
                    "midi": 55,
                    "time": 195.85253749999873,
                    "velocity": 0.13385826771653545,
                    "duration": 0.4147465499999896
                },
                {
                    "name": "D#3",
                    "midi": 51,
                    "time": 195.85253749999873,
                    "velocity": 0.13385826771653545,
                    "duration": 0.4147465499999896
                },
                {
                    "name": "D#3",
                    "midi": 51,
                    "time": 196.31336699999872,
                    "velocity": 0.14960629921259844,
                    "duration": 0.4147465499999896
                },
                {
                    "name": "G3",
                    "midi": 55,
                    "time": 196.31336699999872,
                    "velocity": 0.14960629921259844,
                    "duration": 0.4147465499999896
                },
                {
                    "name": "A#3",
                    "midi": 58,
                    "time": 196.31336699999872,
                    "velocity": 0.18110236220472442,
                    "duration": 0.4147465499999896
                },
                {
                    "name": "D#3",
                    "midi": 51,
                    "time": 196.7741964999987,
                    "velocity": 0.13385826771653545,
                    "duration": 0.4147465499999896
                },
                {
                    "name": "G3",
                    "midi": 55,
                    "time": 196.7741964999987,
                    "velocity": 0.13385826771653545,
                    "duration": 0.4147465499999896
                },
                {
                    "name": "A#3",
                    "midi": 58,
                    "time": 196.7741964999987,
                    "velocity": 0.15748031496062992,
                    "duration": 0.4147465499999896
                },
                {
                    "name": "G3",
                    "midi": 55,
                    "time": 197.2350259999987,
                    "velocity": 0.13385826771653545,
                    "duration": 0.4147465499999896
                },
                {
                    "name": "D#3",
                    "midi": 51,
                    "time": 197.2350259999987,
                    "velocity": 0.13385826771653545,
                    "duration": 0.4147465499999896
                },
                {
                    "name": "A#3",
                    "midi": 58,
                    "time": 197.2350259999987,
                    "velocity": 0.15748031496062992,
                    "duration": 0.4147465499999896
                },
                {
                    "name": "D#3",
                    "midi": 51,
                    "time": 197.6958554999987,
                    "velocity": 0.15748031496062992,
                    "duration": 0.4147465499999896
                },
                {
                    "name": "G3",
                    "midi": 55,
                    "time": 197.6958554999987,
                    "velocity": 0.15748031496062992,
                    "duration": 0.4147465499999896
                },
                {
                    "name": "A#3",
                    "midi": 58,
                    "time": 197.6958554999987,
                    "velocity": 0.1889763779527559,
                    "duration": 0.4147465499999896
                },
                {
                    "name": "A#3",
                    "midi": 58,
                    "time": 198.15668499999867,
                    "velocity": 0.16535433070866143,
                    "duration": 0.4147465499999896
                },
                {
                    "name": "G3",
                    "midi": 55,
                    "time": 198.15668499999867,
                    "velocity": 0.13385826771653545,
                    "duration": 0.4147465499999896
                },
                {
                    "name": "D#3",
                    "midi": 51,
                    "time": 198.15668499999867,
                    "velocity": 0.13385826771653545,
                    "duration": 0.4147465499999896
                },
                {
                    "name": "D#3",
                    "midi": 51,
                    "time": 198.61751449999866,
                    "velocity": 0.13385826771653545,
                    "duration": 0.4147465499999896
                },
                {
                    "name": "G3",
                    "midi": 55,
                    "time": 198.61751449999866,
                    "velocity": 0.13385826771653545,
                    "duration": 0.4147465499999896
                },
                {
                    "name": "A#3",
                    "midi": 58,
                    "time": 198.61751449999866,
                    "velocity": 0.16535433070866143,
                    "duration": 0.4147465499999896
                },
                {
                    "name": "D3",
                    "midi": 50,
                    "time": 199.07834399999865,
                    "velocity": 0.16535433070866143,
                    "duration": 0.4147465499999896
                },
                {
                    "name": "G#3",
                    "midi": 56,
                    "time": 199.07834399999865,
                    "velocity": 0.16535433070866143,
                    "duration": 0.4147465499999896
                },
                {
                    "name": "A#3",
                    "midi": 58,
                    "time": 199.07834399999865,
                    "velocity": 0.1968503937007874,
                    "duration": 0.4147465499999896
                },
                {
                    "name": "G#3",
                    "midi": 56,
                    "time": 199.53917349999864,
                    "velocity": 0.13385826771653545,
                    "duration": 0.4147465499999896
                },
                {
                    "name": "D3",
                    "midi": 50,
                    "time": 199.53917349999864,
                    "velocity": 0.13385826771653545,
                    "duration": 0.4147465499999896
                },
                {
                    "name": "A#3",
                    "midi": 58,
                    "time": 199.53917349999864,
                    "velocity": 0.15748031496062992,
                    "duration": 0.4147465499999896
                },
                {
                    "name": "D3",
                    "midi": 50,
                    "time": 200.00000299999863,
                    "velocity": 0.13385826771653545,
                    "duration": 0.4147465499999896
                },
                {
                    "name": "G#3",
                    "midi": 56,
                    "time": 200.00000299999863,
                    "velocity": 0.13385826771653545,
                    "duration": 0.4147465499999896
                },
                {
                    "name": "A#3",
                    "midi": 58,
                    "time": 200.00000299999863,
                    "velocity": 0.15748031496062992,
                    "duration": 0.4147465499999896
                },
                {
                    "name": "A#3",
                    "midi": 58,
                    "time": 200.46083249999862,
                    "velocity": 0.18110236220472442,
                    "duration": 0.4147465499999896
                },
                {
                    "name": "G#3",
                    "midi": 56,
                    "time": 200.46083249999862,
                    "velocity": 0.14960629921259844,
                    "duration": 0.4147465499999896
                },
                {
                    "name": "D3",
                    "midi": 50,
                    "time": 200.46083249999862,
                    "velocity": 0.14960629921259844,
                    "duration": 0.4147465499999896
                },
                {
                    "name": "D3",
                    "midi": 50,
                    "time": 200.9216619999986,
                    "velocity": 0.13385826771653545,
                    "duration": 0.4147465499999896
                },
                {
                    "name": "G#3",
                    "midi": 56,
                    "time": 200.9216619999986,
                    "velocity": 0.13385826771653545,
                    "duration": 0.4147465499999896
                },
                {
                    "name": "A#3",
                    "midi": 58,
                    "time": 200.9216619999986,
                    "velocity": 0.15748031496062992,
                    "duration": 0.4147465499999896
                },
                {
                    "name": "D3",
                    "midi": 50,
                    "time": 201.3824914999986,
                    "velocity": 0.13385826771653545,
                    "duration": 0.4147465499999896
                },
                {
                    "name": "G#3",
                    "midi": 56,
                    "time": 201.3824914999986,
                    "velocity": 0.13385826771653545,
                    "duration": 0.4147465499999896
                },
                {
                    "name": "A#3",
                    "midi": 58,
                    "time": 201.3824914999986,
                    "velocity": 0.15748031496062992,
                    "duration": 0.4147465499999896
                },
                {
                    "name": "G#3",
                    "midi": 56,
                    "time": 201.84332099999858,
                    "velocity": 0.15748031496062992,
                    "duration": 0.4147465499999896
                },
                {
                    "name": "D3",
                    "midi": 50,
                    "time": 201.84332099999858,
                    "velocity": 0.15748031496062992,
                    "duration": 0.4147465499999896
                },
                {
                    "name": "A#3",
                    "midi": 58,
                    "time": 201.84332099999858,
                    "velocity": 0.1889763779527559,
                    "duration": 0.4147465499999896
                },
                {
                    "name": "D3",
                    "midi": 50,
                    "time": 202.30415049999857,
                    "velocity": 0.13385826771653545,
                    "duration": 0.4147465499999896
                },
                {
                    "name": "G#3",
                    "midi": 56,
                    "time": 202.30415049999857,
                    "velocity": 0.13385826771653545,
                    "duration": 0.4147465499999896
                },
                {
                    "name": "A#3",
                    "midi": 58,
                    "time": 202.30415049999857,
                    "velocity": 0.16535433070866143,
                    "duration": 0.4147465499999896
                },
                {
                    "name": "A#3",
                    "midi": 58,
                    "time": 202.76497999999856,
                    "velocity": 0.16535433070866143,
                    "duration": 0.4147465499999896
                },
                {
                    "name": "G#3",
                    "midi": 56,
                    "time": 202.76497999999856,
                    "velocity": 0.13385826771653545,
                    "duration": 0.4147465499999896
                },
                {
                    "name": "D3",
                    "midi": 50,
                    "time": 202.76497999999856,
                    "velocity": 0.13385826771653545,
                    "duration": 0.4147465499999896
                },
                {
                    "name": "F3",
                    "midi": 53,
                    "time": 203.22580949999855,
                    "velocity": 0.16535433070866143,
                    "duration": 0.4147465499999896
                },
                {
                    "name": "D3",
                    "midi": 50,
                    "time": 203.22580949999855,
                    "velocity": 0.16535433070866143,
                    "duration": 0.4147465499999896
                },
                {
                    "name": "G#3",
                    "midi": 56,
                    "time": 203.22580949999855,
                    "velocity": 0.16535433070866143,
                    "duration": 0.4147465499999896
                },
                {
                    "name": "A#3",
                    "midi": 58,
                    "time": 203.22580949999855,
                    "velocity": 0.1968503937007874,
                    "duration": 0.4147465499999896
                },
                {
                    "name": "A#3",
                    "midi": 58,
                    "time": 203.68663899999854,
                    "velocity": 0.15748031496062992,
                    "duration": 0.4147465499999896
                },
                {
                    "name": "F3",
                    "midi": 53,
                    "time": 203.68663899999854,
                    "velocity": 0.13385826771653545,
                    "duration": 0.4147465499999896
                },
                {
                    "name": "D3",
                    "midi": 50,
                    "time": 203.68663899999854,
                    "velocity": 0.13385826771653545,
                    "duration": 0.4147465499999896
                },
                {
                    "name": "G#3",
                    "midi": 56,
                    "time": 203.68663899999854,
                    "velocity": 0.13385826771653545,
                    "duration": 0.4147465499999896
                },
                {
                    "name": "F3",
                    "midi": 53,
                    "time": 204.14746849999852,
                    "velocity": 0.13385826771653545,
                    "duration": 0.4147465499999896
                },
                {
                    "name": "D3",
                    "midi": 50,
                    "time": 204.14746849999852,
                    "velocity": 0.13385826771653545,
                    "duration": 0.4147465499999896
                },
                {
                    "name": "G#3",
                    "midi": 56,
                    "time": 204.14746849999852,
                    "velocity": 0.13385826771653545,
                    "duration": 0.4147465499999896
                },
                {
                    "name": "A#3",
                    "midi": 58,
                    "time": 204.14746849999852,
                    "velocity": 0.15748031496062992,
                    "duration": 0.4147465499999896
                },
                {
                    "name": "G#3",
                    "midi": 56,
                    "time": 204.6082979999985,
                    "velocity": 0.15748031496062992,
                    "duration": 0.4147465499999896
                },
                {
                    "name": "A#3",
                    "midi": 58,
                    "time": 204.6082979999985,
                    "velocity": 0.1968503937007874,
                    "duration": 0.4147465499999896
                },
                {
                    "name": "F3",
                    "midi": 53,
                    "time": 204.6082979999985,
                    "velocity": 0.15748031496062992,
                    "duration": 0.4147465499999896
                },
                {
                    "name": "D3",
                    "midi": 50,
                    "time": 204.6082979999985,
                    "velocity": 0.15748031496062992,
                    "duration": 0.4147465499999896
                },
                {
                    "name": "F3",
                    "midi": 53,
                    "time": 205.0691274999985,
                    "velocity": 0.14960629921259844,
                    "duration": 0.4147465499999896
                },
                {
                    "name": "D3",
                    "midi": 50,
                    "time": 205.0691274999985,
                    "velocity": 0.14960629921259844,
                    "duration": 0.4147465499999896
                },
                {
                    "name": "G#3",
                    "midi": 56,
                    "time": 205.0691274999985,
                    "velocity": 0.14960629921259844,
                    "duration": 0.4147465499999896
                },
                {
                    "name": "A#3",
                    "midi": 58,
                    "time": 205.0691274999985,
                    "velocity": 0.18110236220472442,
                    "duration": 0.4147465499999896
                },
                {
                    "name": "G#3",
                    "midi": 56,
                    "time": 205.5299569999985,
                    "velocity": 0.15748031496062992,
                    "duration": 0.4147465499999896
                },
                {
                    "name": "F3",
                    "midi": 53,
                    "time": 205.5299569999985,
                    "velocity": 0.15748031496062992,
                    "duration": 0.4147465499999896
                },
                {
                    "name": "D3",
                    "midi": 50,
                    "time": 205.5299569999985,
                    "velocity": 0.15748031496062992,
                    "duration": 0.4147465499999896
                },
                {
                    "name": "A#3",
                    "midi": 58,
                    "time": 205.5299569999985,
                    "velocity": 0.1889763779527559,
                    "duration": 0.4147465499999896
                },
                {
                    "name": "F3",
                    "midi": 53,
                    "time": 205.99078649999848,
                    "velocity": 0.1968503937007874,
                    "duration": 0.4147465499999896
                },
                {
                    "name": "D3",
                    "midi": 50,
                    "time": 205.99078649999848,
                    "velocity": 0.1968503937007874,
                    "duration": 0.4147465499999896
                },
                {
                    "name": "A#3",
                    "midi": 58,
                    "time": 205.99078649999848,
                    "velocity": 0.23622047244094488,
                    "duration": 0.4147465499999896
                },
                {
                    "name": "G#3",
                    "midi": 56,
                    "time": 205.99078649999848,
                    "velocity": 0.1968503937007874,
                    "duration": 0.4147465499999896
                },
                {
                    "name": "G#3",
                    "midi": 56,
                    "time": 206.45161599999847,
                    "velocity": 0.1732283464566929,
                    "duration": 0.4147465499999896
                },
                {
                    "name": "D3",
                    "midi": 50,
                    "time": 206.45161599999847,
                    "velocity": 0.1732283464566929,
                    "duration": 0.4147465499999896
                },
                {
                    "name": "F3",
                    "midi": 53,
                    "time": 206.45161599999847,
                    "velocity": 0.1732283464566929,
                    "duration": 0.4147465499999896
                },
                {
                    "name": "A#3",
                    "midi": 58,
                    "time": 206.45161599999847,
                    "velocity": 0.2125984251968504,
                    "duration": 0.4147465499999896
                },
                {
                    "name": "F3",
                    "midi": 53,
                    "time": 206.91244549999846,
                    "velocity": 0.1732283464566929,
                    "duration": 0.4147465499999896
                },
                {
                    "name": "D3",
                    "midi": 50,
                    "time": 206.91244549999846,
                    "velocity": 0.1732283464566929,
                    "duration": 0.4147465499999896
                },
                {
                    "name": "G#3",
                    "midi": 56,
                    "time": 206.91244549999846,
                    "velocity": 0.1732283464566929,
                    "duration": 0.4147465499999896
                },
                {
                    "name": "A#3",
                    "midi": 58,
                    "time": 206.91244549999846,
                    "velocity": 0.2204724409448819,
                    "duration": 0.4147465499999896
                },
                {
                    "name": "G#3",
                    "midi": 56,
                    "time": 207.37327499999844,
                    "velocity": 0.16535433070866143,
                    "duration": 0.4147465499999896
                },
                {
                    "name": "D#3",
                    "midi": 51,
                    "time": 207.37327499999844,
                    "velocity": 0.16535433070866143,
                    "duration": 0.4147465499999896
                },
                {
                    "name": "A#3",
                    "midi": 58,
                    "time": 207.37327499999844,
                    "velocity": 0.1968503937007874,
                    "duration": 0.4147465499999896
                },
                {
                    "name": "D#3",
                    "midi": 51,
                    "time": 207.83410449999843,
                    "velocity": 0.13385826771653545,
                    "duration": 0.4147465499999896
                },
                {
                    "name": "G#3",
                    "midi": 56,
                    "time": 207.83410449999843,
                    "velocity": 0.13385826771653545,
                    "duration": 0.4147465499999896
                },
                {
                    "name": "A#3",
                    "midi": 58,
                    "time": 207.83410449999843,
                    "velocity": 0.15748031496062992,
                    "duration": 0.4147465499999896
                },
                {
                    "name": "A#3",
                    "midi": 58,
                    "time": 208.29493399999842,
                    "velocity": 0.15748031496062992,
                    "duration": 0.4147465499999896
                },
                {
                    "name": "G#3",
                    "midi": 56,
                    "time": 208.29493399999842,
                    "velocity": 0.13385826771653545,
                    "duration": 0.4147465499999896
                },
                {
                    "name": "D#3",
                    "midi": 51,
                    "time": 208.29493399999842,
                    "velocity": 0.13385826771653545,
                    "duration": 0.4147465499999896
                },
                {
                    "name": "D#3",
                    "midi": 51,
                    "time": 208.7557634999984,
                    "velocity": 0.14960629921259844,
                    "duration": 0.4147465499999896
                },
                {
                    "name": "G3",
                    "midi": 55,
                    "time": 208.7557634999984,
                    "velocity": 0.14960629921259844,
                    "duration": 0.4147465499999896
                },
                {
                    "name": "A#3",
                    "midi": 58,
                    "time": 208.7557634999984,
                    "velocity": 0.18110236220472442,
                    "duration": 0.4147465499999896
                },
                {
                    "name": "D#3",
                    "midi": 51,
                    "time": 209.2165929999984,
                    "velocity": 0.13385826771653545,
                    "duration": 0.4147465499999896
                },
                {
                    "name": "G3",
                    "midi": 55,
                    "time": 209.2165929999984,
                    "velocity": 0.13385826771653545,
                    "duration": 0.4147465499999896
                },
                {
                    "name": "A#3",
                    "midi": 58,
                    "time": 209.2165929999984,
                    "velocity": 0.15748031496062992,
                    "duration": 0.4147465499999896
                },
                {
                    "name": "G3",
                    "midi": 55,
                    "time": 209.67742249999839,
                    "velocity": 0.13385826771653545,
                    "duration": 0.4147465499999896
                },
                {
                    "name": "D#3",
                    "midi": 51,
                    "time": 209.67742249999839,
                    "velocity": 0.13385826771653545,
                    "duration": 0.4147465499999896
                },
                {
                    "name": "A#3",
                    "midi": 58,
                    "time": 209.67742249999839,
                    "velocity": 0.15748031496062992,
                    "duration": 0.4147465499999896
                },
                {
                    "name": "D#3",
                    "midi": 51,
                    "time": 210.13825199999837,
                    "velocity": 0.28346456692913385,
                    "duration": 0.46082949999998846
                },
                {
                    "name": "A#2",
                    "midi": 46,
                    "time": 210.59908149999836,
                    "velocity": 0.31496062992125984,
                    "duration": 0.46082949999998846
                },
                {
                    "name": "G#2",
                    "midi": 44,
                    "time": 211.05991099999835,
                    "velocity": 0.33858267716535434,
                    "duration": 0.46082949999998846
                },
                {
                    "name": "G2",
                    "midi": 43,
                    "time": 211.52074049999834,
                    "velocity": 0.3779527559055118,
                    "duration": 0.46082949999998846
                },
                {
                    "name": "D#3",
                    "midi": 51,
                    "time": 211.98156999999833,
                    "velocity": 0.2755905511811024,
                    "duration": 0.4147465499999896
                },
                {
                    "name": "A#2",
                    "midi": 46,
                    "time": 211.98156999999833,
                    "velocity": 0.2283464566929134,
                    "duration": 0.4147465499999896
                },
                {
                    "name": "G2",
                    "midi": 43,
                    "time": 211.98156999999833,
                    "velocity": 0.2283464566929134,
                    "duration": 0.4147465499999896
                },
                {
                    "name": "G2",
                    "midi": 43,
                    "time": 212.44239949999832,
                    "velocity": 0.2283464566929134,
                    "duration": 0.4147465499999896
                },
                {
                    "name": "A#2",
                    "midi": 46,
                    "time": 212.44239949999832,
                    "velocity": 0.2283464566929134,
                    "duration": 0.4147465499999896
                },
                {
                    "name": "D#3",
                    "midi": 51,
                    "time": 212.44239949999832,
                    "velocity": 0.2755905511811024,
                    "duration": 0.4147465499999896
                },
                {
                    "name": "D#3",
                    "midi": 51,
                    "time": 212.9032289999983,
                    "velocity": 0.2755905511811024,
                    "duration": 0.4147465499999896
                },
                {
                    "name": "G2",
                    "midi": 43,
                    "time": 212.9032289999983,
                    "velocity": 0.2283464566929134,
                    "duration": 0.4147465499999896
                },
                {
                    "name": "A#2",
                    "midi": 46,
                    "time": 212.9032289999983,
                    "velocity": 0.2283464566929134,
                    "duration": 0.4147465499999896
                },
                {
                    "name": "G2",
                    "midi": 43,
                    "time": 213.3640584999983,
                    "velocity": 0.2125984251968504,
                    "duration": 0.4147465499999896
                },
                {
                    "name": "A#2",
                    "midi": 46,
                    "time": 213.3640584999983,
                    "velocity": 0.2125984251968504,
                    "duration": 0.4147465499999896
                },
                {
                    "name": "D#3",
                    "midi": 51,
                    "time": 213.3640584999983,
                    "velocity": 0.25196850393700787,
                    "duration": 0.4147465499999896
                },
                {
                    "name": "G2",
                    "midi": 43,
                    "time": 213.82488799999828,
                    "velocity": 0.2125984251968504,
                    "duration": 0.4147465499999896
                },
                {
                    "name": "D#3",
                    "midi": 51,
                    "time": 213.82488799999828,
                    "velocity": 0.25196850393700787,
                    "duration": 0.4147465499999896
                },
                {
                    "name": "A#2",
                    "midi": 46,
                    "time": 213.82488799999828,
                    "velocity": 0.2125984251968504,
                    "duration": 0.4147465499999896
                },
                {
                    "name": "D#3",
                    "midi": 51,
                    "time": 214.28571749999827,
                    "velocity": 0.2755905511811024,
                    "duration": 0.4147465499999896
                },
                {
                    "name": "A#2",
                    "midi": 46,
                    "time": 214.28571749999827,
                    "velocity": 0.2283464566929134,
                    "duration": 0.4147465499999896
                },
                {
                    "name": "G2",
                    "midi": 43,
                    "time": 214.28571749999827,
                    "velocity": 0.2283464566929134,
                    "duration": 0.4147465499999896
                },
                {
                    "name": "G2",
                    "midi": 43,
                    "time": 214.74654699999826,
                    "velocity": 0.1968503937007874,
                    "duration": 0.4147465499999896
                },
                {
                    "name": "A#2",
                    "midi": 46,
                    "time": 214.74654699999826,
                    "velocity": 0.1968503937007874,
                    "duration": 0.4147465499999896
                },
                {
                    "name": "D#3",
                    "midi": 51,
                    "time": 214.74654699999826,
                    "velocity": 0.23622047244094488,
                    "duration": 0.4147465499999896
                },
                {
                    "name": "D#3",
                    "midi": 51,
                    "time": 215.20737649999825,
                    "velocity": 0.23622047244094488,
                    "duration": 0.4147465499999896
                },
                {
                    "name": "G2",
                    "midi": 43,
                    "time": 215.20737649999825,
                    "velocity": 0.1968503937007874,
                    "duration": 0.4147465499999896
                },
                {
                    "name": "A#2",
                    "midi": 46,
                    "time": 215.20737649999825,
                    "velocity": 0.1968503937007874,
                    "duration": 0.4147465499999896
                },
                {
                    "name": "G#2",
                    "midi": 44,
                    "time": 215.66820599999824,
                    "velocity": 0.25196850393700787,
                    "duration": 0.46082949999998846
                },
                {
                    "name": "C3",
                    "midi": 48,
                    "time": 215.66820599999824,
                    "velocity": 0.2677165354330709,
                    "duration": 0.46082949999998846
                },
                {
                    "name": "D#3",
                    "midi": 51,
                    "time": 215.66820599999824,
                    "velocity": 0.3779527559055118,
                    "duration": 0.46082949999998846
                },
                {
                    "name": "G#2",
                    "midi": 44,
                    "time": 216.12903549999822,
                    "velocity": 0.2283464566929134,
                    "duration": 0.4147465499999896
                },
                {
                    "name": "D#3",
                    "midi": 51,
                    "time": 216.12903549999822,
                    "velocity": 0.2755905511811024,
                    "duration": 0.4147465499999896
                },
                {
                    "name": "C3",
                    "midi": 48,
                    "time": 216.12903549999822,
                    "velocity": 0.2283464566929134,
                    "duration": 0.4147465499999896
                },
                {
                    "name": "D#3",
                    "midi": 51,
                    "time": 216.5898649999982,
                    "velocity": 0.2755905511811024,
                    "duration": 0.4147465499999896
                },
                {
                    "name": "C3",
                    "midi": 48,
                    "time": 216.5898649999982,
                    "velocity": 0.2283464566929134,
                    "duration": 0.4147465499999896
                },
                {
                    "name": "G#2",
                    "midi": 44,
                    "time": 216.5898649999982,
                    "velocity": 0.2283464566929134,
                    "duration": 0.4147465499999896
                },
                {
                    "name": "G#2",
                    "midi": 44,
                    "time": 217.0506944999982,
                    "velocity": 0.2677165354330709,
                    "duration": 0.4147465499999896
                },
                {
                    "name": "C3",
                    "midi": 48,
                    "time": 217.0506944999982,
                    "velocity": 0.2677165354330709,
                    "duration": 0.4147465499999896
                },
                {
                    "name": "E3",
                    "midi": 52,
                    "time": 217.0506944999982,
                    "velocity": 0.3228346456692913,
                    "duration": 0.4147465499999896
                },
                {
                    "name": "E3",
                    "midi": 52,
                    "time": 217.5115239999982,
                    "velocity": 0.2755905511811024,
                    "duration": 0.4147465499999896
                },
                {
                    "name": "G#2",
                    "midi": 44,
                    "time": 217.5115239999982,
                    "velocity": 0.2283464566929134,
                    "duration": 0.4147465499999896
                },
                {
                    "name": "C3",
                    "midi": 48,
                    "time": 217.5115239999982,
                    "velocity": 0.2283464566929134,
                    "duration": 0.4147465499999896
                },
                {
                    "name": "G#2",
                    "midi": 44,
                    "time": 217.97235349999818,
                    "velocity": 0.25984251968503935,
                    "duration": 0.4147465499999896
                },
                {
                    "name": "C3",
                    "midi": 48,
                    "time": 217.97235349999818,
                    "velocity": 0.25984251968503935,
                    "duration": 0.4147465499999896
                },
                {
                    "name": "E3",
                    "midi": 52,
                    "time": 217.97235349999818,
                    "velocity": 0.30708661417322836,
                    "duration": 0.4147465499999896
                },
                {
                    "name": "G#2",
                    "midi": 44,
                    "time": 218.43318299999817,
                    "velocity": 0.29133858267716534,
                    "duration": 0.4147465499999896
                },
                {
                    "name": "F3",
                    "midi": 53,
                    "time": 218.43318299999817,
                    "velocity": 0.3464566929133858,
                    "duration": 0.4147465499999896
                },
                {
                    "name": "C3",
                    "midi": 48,
                    "time": 218.43318299999817,
                    "velocity": 0.29133858267716534,
                    "duration": 0.4147465499999896
                },
                {
                    "name": "F3",
                    "midi": 53,
                    "time": 218.89401249999815,
                    "velocity": 0.28346456692913385,
                    "duration": 0.4147465499999896
                },
                {
                    "name": "C3",
                    "midi": 48,
                    "time": 218.89401249999815,
                    "velocity": 0.23622047244094488,
                    "duration": 0.4147465499999896
                },
                {
                    "name": "G#2",
                    "midi": 44,
                    "time": 218.89401249999815,
                    "velocity": 0.23622047244094488,
                    "duration": 0.4147465499999896
                },
                {
                    "name": "G#2",
                    "midi": 44,
                    "time": 219.35484199999814,
                    "velocity": 0.23622047244094488,
                    "duration": 0.4147465499999896
                },
                {
                    "name": "C3",
                    "midi": 48,
                    "time": 219.35484199999814,
                    "velocity": 0.23622047244094488,
                    "duration": 0.4147465499999896
                },
                {
                    "name": "F3",
                    "midi": 53,
                    "time": 219.35484199999814,
                    "velocity": 0.28346456692913385,
                    "duration": 0.4147465499999896
                },
                {
                    "name": "G3",
                    "midi": 55,
                    "time": 219.81567149999813,
                    "velocity": 0.2755905511811024,
                    "duration": 0.4147465499999896
                },
                {
                    "name": "A#2",
                    "midi": 46,
                    "time": 219.81567149999813,
                    "velocity": 0.2283464566929134,
                    "duration": 0.4147465499999896
                },
                {
                    "name": "D#3",
                    "midi": 51,
                    "time": 219.81567149999813,
                    "velocity": 0.2283464566929134,
                    "duration": 0.4147465499999896
                },
                {
                    "name": "A#2",
                    "midi": 46,
                    "time": 220.27650099999812,
                    "velocity": 0.18110236220472442,
                    "duration": 0.4147465499999896
                },
                {
                    "name": "D#3",
                    "midi": 51,
                    "time": 220.27650099999812,
                    "velocity": 0.18110236220472442,
                    "duration": 0.4147465499999896
                },
                {
                    "name": "G3",
                    "midi": 55,
                    "time": 220.27650099999812,
                    "velocity": 0.2204724409448819,
                    "duration": 0.4147465499999896
                },
                {
                    "name": "A#2",
                    "midi": 46,
                    "time": 220.7373304999981,
                    "velocity": 0.18110236220472442,
                    "duration": 0.4147465499999896
                },
                {
                    "name": "G3",
                    "midi": 55,
                    "time": 220.7373304999981,
                    "velocity": 0.2204724409448819,
                    "duration": 0.4147465499999896
                },
                {
                    "name": "D#3",
                    "midi": 51,
                    "time": 220.7373304999981,
                    "velocity": 0.18110236220472442,
                    "duration": 0.4147465499999896
                },
                {
                    "name": "G3",
                    "midi": 55,
                    "time": 221.1981599999981,
                    "velocity": 0.25196850393700787,
                    "duration": 0.4147465499999896
                },
                {
                    "name": "D#3",
                    "midi": 51,
                    "time": 221.1981599999981,
                    "velocity": 0.2047244094488189,
                    "duration": 0.4147465499999896
                },
                {
                    "name": "A#2",
                    "midi": 46,
                    "time": 221.1981599999981,
                    "velocity": 0.2047244094488189,
                    "duration": 0.4147465499999896
                },
                {
                    "name": "A#2",
                    "midi": 46,
                    "time": 221.65898949999809,
                    "velocity": 0.18110236220472442,
                    "duration": 0.4147465499999896
                },
                {
                    "name": "D#3",
                    "midi": 51,
                    "time": 221.65898949999809,
                    "velocity": 0.18110236220472442,
                    "duration": 0.4147465499999896
                },
                {
                    "name": "G3",
                    "midi": 55,
                    "time": 221.65898949999809,
                    "velocity": 0.2125984251968504,
                    "duration": 0.4147465499999896
                },
                {
                    "name": "G3",
                    "midi": 55,
                    "time": 222.11981899999807,
                    "velocity": 0.2125984251968504,
                    "duration": 0.4147465499999896
                },
                {
                    "name": "A#2",
                    "midi": 46,
                    "time": 222.11981899999807,
                    "velocity": 0.1732283464566929,
                    "duration": 0.4147465499999896
                },
                {
                    "name": "D#3",
                    "midi": 51,
                    "time": 222.11981899999807,
                    "velocity": 0.1732283464566929,
                    "duration": 0.4147465499999896
                },
                {
                    "name": "A#2",
                    "midi": 46,
                    "time": 222.58064849999806,
                    "velocity": 0.1968503937007874,
                    "duration": 0.4147465499999896
                },
                {
                    "name": "F3",
                    "midi": 53,
                    "time": 222.58064849999806,
                    "velocity": 0.1968503937007874,
                    "duration": 0.4147465499999896
                },
                {
                    "name": "G#3",
                    "midi": 56,
                    "time": 222.58064849999806,
                    "velocity": 0.2440944881889764,
                    "duration": 0.4147465499999896
                },
                {
                    "name": "A#2",
                    "midi": 46,
                    "time": 223.04147799999805,
                    "velocity": 0.1732283464566929,
                    "duration": 0.4147465499999896
                },
                {
                    "name": "G#3",
                    "midi": 56,
                    "time": 223.04147799999805,
                    "velocity": 0.2047244094488189,
                    "duration": 0.4147465499999896
                },
                {
                    "name": "F3",
                    "midi": 53,
                    "time": 223.04147799999805,
                    "velocity": 0.1732283464566929,
                    "duration": 0.4147465499999896
                },
                {
                    "name": "G#3",
                    "midi": 56,
                    "time": 223.50230749999804,
                    "velocity": 0.2047244094488189,
                    "duration": 0.4147465499999896
                },
                {
                    "name": "F3",
                    "midi": 53,
                    "time": 223.50230749999804,
                    "velocity": 0.16535433070866143,
                    "duration": 0.4147465499999896
                },
                {
                    "name": "A#2",
                    "midi": 46,
                    "time": 223.50230749999804,
                    "velocity": 0.16535433070866143,
                    "duration": 0.4147465499999896
                },
                {
                    "name": "D#3",
                    "midi": 51,
                    "time": 223.96313699999803,
                    "velocity": 0.2047244094488189,
                    "duration": 0.9216590000000053
                },
                {
                    "name": "G3",
                    "midi": 55,
                    "time": 223.96313699999803,
                    "velocity": 0.2440944881889764,
                    "duration": 0.9216590000000053
                },
                {
                    "name": "A#2",
                    "midi": 46,
                    "time": 226.72811399999804,
                    "velocity": 0.2047244094488189,
                    "duration": 1.3824884999999938
                },
                {
                    "name": "A#3",
                    "midi": 58,
                    "time": 226.72811399999804,
                    "velocity": 0.2440944881889764,
                    "duration": 0.9216590000000053
                },
                {
                    "name": "G#3",
                    "midi": 56,
                    "time": 227.64977299999805,
                    "velocity": 0.2283464566929134,
                    "duration": 0.46082949999998846
                },
                {
                    "name": "G3",
                    "midi": 55,
                    "time": 228.11060249999804,
                    "velocity": 0.2440944881889764,
                    "duration": 0.9216590000000053
                },
                {
                    "name": "D#3",
                    "midi": 51,
                    "time": 228.11060249999804,
                    "velocity": 0.2047244094488189,
                    "duration": 0.9216590000000053
                },
                {
                    "name": "A#2",
                    "midi": 46,
                    "time": 230.87557949999805,
                    "velocity": 0.2440944881889764,
                    "duration": 0.9216590000000053
                },
                {
                    "name": "A#1",
                    "midi": 34,
                    "time": 230.87557949999805,
                    "velocity": 0.2047244094488189,
                    "duration": 1.3824884999999938
                },
                {
                    "name": "G#2",
                    "midi": 44,
                    "time": 231.79723849999806,
                    "velocity": 0.1732283464566929,
                    "duration": 0.46082949999998846
                },
                {
                    "name": "F3",
                    "midi": 53,
                    "time": 231.79723849999806,
                    "velocity": 0.2125984251968504,
                    "duration": 0.46082949999998846
                },
                {
                    "name": "D#2",
                    "midi": 39,
                    "time": 232.25806799999805,
                    "velocity": 0.2125984251968504,
                    "duration": 0.9216590000000053
                },
                {
                    "name": "G2",
                    "midi": 43,
                    "time": 232.25806799999805,
                    "velocity": 0.2125984251968504,
                    "duration": 0.9216590000000053
                },
                {
                    "name": "D#2",
                    "midi": 39,
                    "time": 236.40553349999806,
                    "velocity": 0.25196850393700787,
                    "duration": 0.46082949999998846
                },
                {
                    "name": "G2",
                    "midi": 43,
                    "time": 236.86636299999805,
                    "velocity": 0.25196850393700787,
                    "duration": 0.46082949999998846
                },
                {
                    "name": "A#2",
                    "midi": 46,
                    "time": 237.32719249999803,
                    "velocity": 0.25196850393700787,
                    "duration": 0.46082949999998846
                },
                {
                    "name": "D#3",
                    "midi": 51,
                    "time": 237.78802199999802,
                    "velocity": 0.28346456692913385,
                    "duration": 0.46082949999998846
                },
                {
                    "name": "G3",
                    "midi": 55,
                    "time": 238.248851499998,
                    "velocity": 0.2992125984251969,
                    "duration": 0.46082949999998846
                },
                {
                    "name": "A#3",
                    "midi": 58,
                    "time": 238.709680999998,
                    "velocity": 0.31496062992125984,
                    "duration": 0.4416282708333199
                },
                {
                    "name": "A#2",
                    "midi": 46,
                    "time": 239.170510499998,
                    "velocity": 0.28346456692913385,
                    "duration": 0.9216590000000053
                },
                {
                    "name": "A#3",
                    "midi": 58,
                    "time": 239.170510499998,
                    "velocity": 0.33858267716535434,
                    "duration": 0.9216590000000053
                },
                {
                    "name": "A#2",
                    "midi": 46,
                    "time": 240.092169499998,
                    "velocity": 0.25984251968503935,
                    "duration": 0.4416282708333199
                },
                {
                    "name": "G#3",
                    "midi": 56,
                    "time": 240.092169499998,
                    "velocity": 0.30708661417322836,
                    "duration": 0.4416282708333199
                },
                {
                    "name": "G#3",
                    "midi": 56,
                    "time": 240.55299899999798,
                    "velocity": 0.2992125984251969,
                    "duration": 1.3824884999999938
                },
                {
                    "name": "D#3",
                    "midi": 51,
                    "time": 240.55299899999798,
                    "velocity": 0.25196850393700787,
                    "duration": 1.8433179999999822
                },
                {
                    "name": "G3",
                    "midi": 55,
                    "time": 241.93548749999798,
                    "velocity": 0.23622047244094488,
                    "duration": 0.46082949999998846
                },
                {
                    "name": "D#2",
                    "midi": 39,
                    "time": 244.70046449999796,
                    "velocity": 0.29133858267716534,
                    "duration": 0.46082949999998846
                },
                {
                    "name": "F#2",
                    "midi": 42,
                    "time": 245.16129399999795,
                    "velocity": 0.31496062992125984,
                    "duration": 0.46082949999998846
                },
                {
                    "name": "A#2",
                    "midi": 46,
                    "time": 245.62212349999794,
                    "velocity": 0.3464566929133858,
                    "duration": 0.46082949999998846
                },
                {
                    "name": "D#3",
                    "midi": 51,
                    "time": 246.08295299999793,
                    "velocity": 0.3858267716535433,
                    "duration": 0.46082949999998846
                },
                {
                    "name": "F#3",
                    "midi": 54,
                    "time": 246.54378249999792,
                    "velocity": 0.41732283464566927,
                    "duration": 0.46082949999998846
                },
                {
                    "name": "A#3",
                    "midi": 58,
                    "time": 247.0046119999979,
                    "velocity": 0.44881889763779526,
                    "duration": 0.4416282708333199
                },
                {
                    "name": "D#4",
                    "midi": 63,
                    "time": 247.4654414999979,
                    "velocity": 0.4881889763779528,
                    "duration": 0.46082949999998846
                },
                {
                    "name": "B3",
                    "midi": 59,
                    "time": 247.92627099999788,
                    "velocity": 0.4566929133858268,
                    "duration": 0.46082949999998846
                },
                {
                    "name": "A#3",
                    "midi": 58,
                    "time": 248.38710049999787,
                    "velocity": 0.4251968503937008,
                    "duration": 0.4416282708333199
                },
                {
                    "name": "G#3",
                    "midi": 56,
                    "time": 248.84792999999786,
                    "velocity": 0.41732283464566927,
                    "duration": 1.3824884999999938
                },
                {
                    "name": "F3",
                    "midi": 53,
                    "time": 250.23041849999785,
                    "velocity": 0.33858267716535434,
                    "duration": 1.3824884999999938
                },
                {
                    "name": "F#3",
                    "midi": 54,
                    "time": 251.61290699999785,
                    "velocity": 0.31496062992125984,
                    "duration": 1.3824884999999938
                },
                {
                    "name": "B2",
                    "midi": 47,
                    "time": 252.99539549999784,
                    "velocity": 0.25196850393700787,
                    "duration": 1.3824884999999938
                },
                {
                    "name": "C#3",
                    "midi": 49,
                    "time": 254.37788399999783,
                    "velocity": 0.25196850393700787,
                    "duration": 1.3824884999999938
                },
                {
                    "name": "C#2",
                    "midi": 37,
                    "time": 255.76037249999783,
                    "velocity": 0.25196850393700787,
                    "duration": 1.3824884999999938
                },
                {
                    "name": "D2",
                    "midi": 38,
                    "time": 257.1428609999978,
                    "velocity": 0.41732283464566927,
                    "duration": 1.3824885000000222
                },
                {
                    "name": "D3",
                    "midi": 50,
                    "time": 258.52534949999784,
                    "velocity": 0.33858267716535434,
                    "duration": 1.3824885000000222
                },
                {
                    "name": "D#3",
                    "midi": 51,
                    "time": 259.90783799999787,
                    "velocity": 0.31496062992125984,
                    "duration": 1.3824885000000222
                },
                {
                    "name": "G#2",
                    "midi": 44,
                    "time": 261.2903264999979,
                    "velocity": 0.25196850393700787,
                    "duration": 1.3824885000000222
                },
                {
                    "name": "A2",
                    "midi": 45,
                    "time": 262.6728149999979,
                    "velocity": 0.25196850393700787,
                    "duration": 1.3824885000000222
                },
                {
                    "name": "A#2",
                    "midi": 46,
                    "time": 264.05530349999793,
                    "velocity": 0.25196850393700787,
                    "duration": 1.3824885000000222
                },
                {
                    "name": "D#2",
                    "midi": 39,
                    "time": 265.43779199999796,
                    "velocity": 0.2755905511811024,
                    "duration": 4.147465500000351
                },
                {
                    "name": "D#3",
                    "midi": 51,
                    "time": 265.89862149999794,
                    "velocity": 0.2283464566929134,
                    "duration": 0.41474655000001803
                },
                {
                    "name": "D#3",
                    "midi": 51,
                    "time": 266.359450999998,
                    "velocity": 0.2283464566929134,
                    "duration": 0.41474655000001803
                },
                {
                    "name": "D#3",
                    "midi": 51,
                    "time": 266.82028049999803,
                    "velocity": 0.25196850393700787,
                    "duration": 0.41474655000001803
                },
                {
                    "name": "D#3",
                    "midi": 51,
                    "time": 267.2811099999981,
                    "velocity": 0.2283464566929134,
                    "duration": 0.41474655000001803
                },
                {
                    "name": "D#3",
                    "midi": 51,
                    "time": 267.7419394999981,
                    "velocity": 0.2283464566929134,
                    "duration": 0.41474655000001803
                },
                {
                    "name": "D#3",
                    "midi": 51,
                    "time": 268.20276899999817,
                    "velocity": 0.25196850393700787,
                    "duration": 0.41474655000001803
                },
                {
                    "name": "D#3",
                    "midi": 51,
                    "time": 268.6635984999982,
                    "velocity": 0.2125984251968504,
                    "duration": 0.41474655000001803
                },
                {
                    "name": "D#3",
                    "midi": 51,
                    "time": 269.12442799999826,
                    "velocity": 0.2125984251968504,
                    "duration": 0.41474655000001803
                },
                {
                    "name": "D#3",
                    "midi": 51,
                    "time": 269.5852574999983,
                    "velocity": 0.25196850393700787,
                    "duration": 0.41474655000001803
                },
                {
                    "name": "D#3",
                    "midi": 51,
                    "time": 270.04608699999835,
                    "velocity": 0.2204724409448819,
                    "duration": 0.41474655000001803
                },
                {
                    "name": "D#3",
                    "midi": 51,
                    "time": 270.5069164999984,
                    "velocity": 0.2204724409448819,
                    "duration": 0.41474655000001803
                },
                {
                    "name": "D#3",
                    "midi": 51,
                    "time": 270.96774599999844,
                    "velocity": 0.25196850393700787,
                    "duration": 0.41474655000001803
                },
                {
                    "name": "D#3",
                    "midi": 51,
                    "time": 271.4285754999985,
                    "velocity": 0.2204724409448819,
                    "duration": 0.41474655000001803
                },
                {
                    "name": "D#3",
                    "midi": 51,
                    "time": 271.88940499999853,
                    "velocity": 0.2204724409448819,
                    "duration": 0.41474655000001803
                },
                {
                    "name": "D#3",
                    "midi": 51,
                    "time": 272.3502344999986,
                    "velocity": 0.25196850393700787,
                    "duration": 0.41474655000001803
                },
                {
                    "name": "D#3",
                    "midi": 51,
                    "time": 272.8110639999986,
                    "velocity": 0.2204724409448819,
                    "duration": 0.41474655000001803
                },
                {
                    "name": "D#3",
                    "midi": 51,
                    "time": 273.27189349999867,
                    "velocity": 0.2204724409448819,
                    "duration": 0.41474655000001803
                },
                {
                    "name": "D#3",
                    "midi": 51,
                    "time": 273.7327229999987,
                    "velocity": 0.25196850393700787,
                    "duration": 0.41474655000001803
                },
                {
                    "name": "D#3",
                    "midi": 51,
                    "time": 274.19355249999876,
                    "velocity": 0.2204724409448819,
                    "duration": 0.41474655000001803
                },
                {
                    "name": "D#3",
                    "midi": 51,
                    "time": 274.6543819999988,
                    "velocity": 0.2204724409448819,
                    "duration": 0.41474655000001803
                },
                {
                    "name": "D#3",
                    "midi": 51,
                    "time": 275.11521149999885,
                    "velocity": 0.25196850393700787,
                    "duration": 0.41474655000001803
                },
                {
                    "name": "D#3",
                    "midi": 51,
                    "time": 275.5760409999989,
                    "velocity": 0.2204724409448819,
                    "duration": 0.41474655000001803
                },
                {
                    "name": "D#3",
                    "midi": 51,
                    "time": 276.03687049999894,
                    "velocity": 0.2204724409448819,
                    "duration": 0.41474655000001803
                },
                {
                    "name": "D#3",
                    "midi": 51,
                    "time": 276.497699999999,
                    "velocity": 0.25196850393700787,
                    "duration": 0.41474655000001803
                },
                {
                    "name": "D#3",
                    "midi": 51,
                    "time": 276.95852949999903,
                    "velocity": 0.2204724409448819,
                    "duration": 0.41474655000001803
                },
                {
                    "name": "D#3",
                    "midi": 51,
                    "time": 277.4193589999991,
                    "velocity": 0.2204724409448819,
                    "duration": 0.41474655000001803
                },
                {
                    "name": "D#3",
                    "midi": 51,
                    "time": 277.8801884999991,
                    "velocity": 0.25196850393700787,
                    "duration": 0.41474655000001803
                },
                {
                    "name": "D#3",
                    "midi": 51,
                    "time": 278.34101799999917,
                    "velocity": 0.2204724409448819,
                    "duration": 0.41474655000001803
                },
                {
                    "name": "D#3",
                    "midi": 51,
                    "time": 278.8018474999992,
                    "velocity": 0.2204724409448819,
                    "duration": 0.41474655000001803
                },
                {
                    "name": "D#3",
                    "midi": 51,
                    "time": 279.26267699999926,
                    "velocity": 0.25196850393700787,
                    "duration": 0.41474655000001803
                },
                {
                    "name": "D#3",
                    "midi": 51,
                    "time": 279.7235064999993,
                    "velocity": 0.2204724409448819,
                    "duration": 0.41474655000001803
                },
                {
                    "name": "D#3",
                    "midi": 51,
                    "time": 280.18433599999935,
                    "velocity": 0.2204724409448819,
                    "duration": 0.41474655000001803
                },
                {
                    "name": "D#3",
                    "midi": 51,
                    "time": 280.6451654999994,
                    "velocity": 0.25196850393700787,
                    "duration": 0.41474655000001803
                },
                {
                    "name": "D#3",
                    "midi": 51,
                    "time": 281.10599499999944,
                    "velocity": 0.2204724409448819,
                    "duration": 0.41474655000001803
                },
                {
                    "name": "D#3",
                    "midi": 51,
                    "time": 281.5668244999995,
                    "velocity": 0.2204724409448819,
                    "duration": 0.41474655000001803
                },
                {
                    "name": "D#3",
                    "midi": 51,
                    "time": 282.02765399999953,
                    "velocity": 0.25196850393700787,
                    "duration": 0.9216589999999769
                },
                {
                    "name": "D#4",
                    "midi": 63,
                    "time": 283.4101424999995,
                    "velocity": 0.2204724409448819,
                    "duration": 0.9216589999999769
                },
                {
                    "name": "A#3",
                    "midi": 58,
                    "time": 283.4101424999995,
                    "velocity": 0.18110236220472442,
                    "duration": 0.9216589999999769
                },
                {
                    "name": "G3",
                    "midi": 55,
                    "time": 283.4101424999995,
                    "velocity": 0.18110236220472442,
                    "duration": 0.9216589999999769
                },
                {
                    "name": "G4",
                    "midi": 67,
                    "time": 284.79263099999946,
                    "velocity": 0.18110236220472442,
                    "duration": 0.9216589999999769
                },
                {
                    "name": "A#4",
                    "midi": 70,
                    "time": 284.79263099999946,
                    "velocity": 0.18110236220472442,
                    "duration": 0.9216589999999769
                },
                {
                    "name": "D#5",
                    "midi": 75,
                    "time": 284.79263099999946,
                    "velocity": 0.2204724409448819,
                    "duration": 0.9216589999999769
                },
                {
                    "name": "G#4",
                    "midi": 68,
                    "time": 286.1751194999994,
                    "velocity": 0.18110236220472442,
                    "duration": 0.9216589999999769
                },
                {
                    "name": "C5",
                    "midi": 72,
                    "time": 286.1751194999994,
                    "velocity": 0.18110236220472442,
                    "duration": 0.9216589999999769
                },
                {
                    "name": "D#5",
                    "midi": 75,
                    "time": 286.1751194999994,
                    "velocity": 0.2204724409448819,
                    "duration": 0.9216589999999769
                },
                {
                    "name": "D#4",
                    "midi": 63,
                    "time": 287.5576079999994,
                    "velocity": 0.2204724409448819,
                    "duration": 0.9216589999999769
                },
                {
                    "name": "C4",
                    "midi": 60,
                    "time": 287.5576079999994,
                    "velocity": 0.18110236220472442,
                    "duration": 0.9216589999999769
                },
                {
                    "name": "G#3",
                    "midi": 56,
                    "time": 287.5576079999994,
                    "velocity": 0.18110236220472442,
                    "duration": 0.9216589999999769
                },
                {
                    "name": "A3",
                    "midi": 57,
                    "time": 288.94009649999936,
                    "velocity": 0.18110236220472442,
                    "duration": 0.9216589999999769
                },
                {
                    "name": "D#4",
                    "midi": 63,
                    "time": 288.94009649999936,
                    "velocity": 0.2204724409448819,
                    "duration": 0.9216589999999769
                },
                {
                    "name": "C4",
                    "midi": 60,
                    "time": 288.94009649999936,
                    "velocity": 0.18110236220472442,
                    "duration": 0.9216589999999769
                },
                {
                    "name": "A#3",
                    "midi": 58,
                    "time": 290.3225849999993,
                    "velocity": 0.2755905511811024,
                    "duration": 2.7457757708332906
                },
                {
                    "name": "G4",
                    "midi": 67,
                    "time": 290.7834144999993,
                    "velocity": 0.2283464566929134,
                    "duration": 0.46082949999998846
                },
                {
                    "name": "D#4",
                    "midi": 63,
                    "time": 290.7834144999993,
                    "velocity": 0.1889763779527559,
                    "duration": 0.46082949999998846
                },
                {
                    "name": "G4",
                    "midi": 67,
                    "time": 291.2442439999993,
                    "velocity": 0.23622047244094488,
                    "duration": 0.46082949999998846
                },
                {
                    "name": "D#4",
                    "midi": 63,
                    "time": 291.2442439999993,
                    "velocity": 0.1968503937007874,
                    "duration": 0.46082949999998846
                },
                {
                    "name": "D#4",
                    "midi": 63,
                    "time": 291.7050734999993,
                    "velocity": 0.2440944881889764,
                    "duration": 0.46082949999998846
                },
                {
                    "name": "G4",
                    "midi": 67,
                    "time": 291.7050734999993,
                    "velocity": 0.2992125984251969,
                    "duration": 0.46082949999998846
                },
                {
                    "name": "D#4",
                    "midi": 63,
                    "time": 292.1659029999993,
                    "velocity": 0.2755905511811024,
                    "duration": 0.46082949999998846
                },
                {
                    "name": "G4",
                    "midi": 67,
                    "time": 292.1659029999993,
                    "velocity": 0.33070866141732286,
                    "duration": 0.46082949999998846
                },
                {
                    "name": "D#4",
                    "midi": 63,
                    "time": 292.62673249999926,
                    "velocity": 0.30708661417322836,
                    "duration": 0.46082949999998846
                },
                {
                    "name": "G4",
                    "midi": 67,
                    "time": 292.62673249999926,
                    "velocity": 0.36220472440944884,
                    "duration": 0.46082949999998846
                },
                {
                    "name": "A#3",
                    "midi": 58,
                    "time": 293.08756199999925,
                    "velocity": 0.29133858267716534,
                    "duration": 1.3824884999999654
                },
                {
                    "name": "G#4",
                    "midi": 68,
                    "time": 293.08756199999925,
                    "velocity": 0.3464566929133858,
                    "duration": 0.46082949999998846
                },
                {
                    "name": "D4",
                    "midi": 62,
                    "time": 293.08756199999925,
                    "velocity": 0.29133858267716534,
                    "duration": 0.46082949999998846
                },
                {
                    "name": "D4",
                    "midi": 62,
                    "time": 293.54839149999924,
                    "velocity": 0.25984251968503935,
                    "duration": 0.46082949999998846
                },
                {
                    "name": "G#4",
                    "midi": 68,
                    "time": 293.54839149999924,
                    "velocity": 0.30708661417322836,
                    "duration": 0.46082949999998846
                },
                {
                    "name": "D4",
                    "midi": 62,
                    "time": 294.00922099999923,
                    "velocity": 0.25196850393700787,
                    "duration": 0.46082949999998846
                },
                {
                    "name": "G#4",
                    "midi": 68,
                    "time": 294.00922099999923,
                    "velocity": 0.2992125984251969,
                    "duration": 0.46082949999998846
                },
                {
                    "name": "G4",
                    "midi": 67,
                    "time": 294.4700504999992,
                    "velocity": 0.31496062992125984,
                    "duration": 0.9216589999999769
                },
                {
                    "name": "D#4",
                    "midi": 63,
                    "time": 294.4700504999992,
                    "velocity": 0.2992125984251969,
                    "duration": 0.9216589999999769
                },
                {
                    "name": "A#2",
                    "midi": 46,
                    "time": 298.61751599999917,
                    "velocity": 0.2755905511811024,
                    "duration": 2.7457757708332906
                },
                {
                    "name": "G3",
                    "midi": 55,
                    "time": 299.07834549999916,
                    "velocity": 0.2283464566929134,
                    "duration": 0.46082949999998846
                },
                {
                    "name": "D#3",
                    "midi": 51,
                    "time": 299.07834549999916,
                    "velocity": 0.1889763779527559,
                    "duration": 0.46082949999998846
                },
                {
                    "name": "G3",
                    "midi": 55,
                    "time": 299.53917499999915,
                    "velocity": 0.25196850393700787,
                    "duration": 0.46082949999998846
                },
                {
                    "name": "D#3",
                    "midi": 51,
                    "time": 299.53917499999915,
                    "velocity": 0.2125984251968504,
                    "duration": 0.46082949999998846
                },
                {
                    "name": "D#3",
                    "midi": 51,
                    "time": 300.00000449999914,
                    "velocity": 0.2755905511811024,
                    "duration": 0.46082949999998846
                },
                {
                    "name": "G3",
                    "midi": 55,
                    "time": 300.00000449999914,
                    "velocity": 0.33858267716535434,
                    "duration": 0.46082949999998846
                },
                {
                    "name": "D#3",
                    "midi": 51,
                    "time": 300.4608339999991,
                    "velocity": 0.3228346456692913,
                    "duration": 0.46082949999998846
                },
                {
                    "name": "G3",
                    "midi": 55,
                    "time": 300.4608339999991,
                    "velocity": 0.3858267716535433,
                    "duration": 0.46082949999998846
                },
                {
                    "name": "D#3",
                    "midi": 51,
                    "time": 300.9216634999991,
                    "velocity": 0.3700787401574803,
                    "duration": 0.46082949999998846
                },
                {
                    "name": "G3",
                    "midi": 55,
                    "time": 300.9216634999991,
                    "velocity": 0.4330708661417323,
                    "duration": 0.46082949999998846
                },
                {
                    "name": "A#2",
                    "midi": 46,
                    "time": 301.3824929999991,
                    "velocity": 0.3543307086614173,
                    "duration": 1.3824884999999654
                },
                {
                    "name": "G#3",
                    "midi": 56,
                    "time": 301.3824929999991,
                    "velocity": 0.4881889763779528,
                    "duration": 0.46082949999998846
                },
                {
                    "name": "D3",
                    "midi": 50,
                    "time": 301.3824929999991,
                    "velocity": 0.4094488188976378,
                    "duration": 0.46082949999998846
                },
                {
                    "name": "D3",
                    "midi": 50,
                    "time": 301.8433224999991,
                    "velocity": 0.25984251968503935,
                    "duration": 0.46082949999998846
                },
                {
                    "name": "G#3",
                    "midi": 56,
                    "time": 301.8433224999991,
                    "velocity": 0.30708661417322836,
                    "duration": 0.46082949999998846
                },
                {
                    "name": "D3",
                    "midi": 50,
                    "time": 302.3041519999991,
                    "velocity": 0.25196850393700787,
                    "duration": 0.46082949999998846
                },
                {
                    "name": "G#3",
                    "midi": 56,
                    "time": 302.3041519999991,
                    "velocity": 0.2992125984251969,
                    "duration": 0.46082949999998846
                },
                {
                    "name": "D#3",
                    "midi": 51,
                    "time": 302.76498149999907,
                    "velocity": 0.3464566929133858,
                    "duration": 0.46082949999998846
                },
                {
                    "name": "G3",
                    "midi": 55,
                    "time": 303.22581099999906,
                    "velocity": 0.30708661417322836,
                    "duration": 0.46082949999998846
                },
                {
                    "name": "A#3",
                    "midi": 58,
                    "time": 303.68664049999904,
                    "velocity": 0.30708661417322836,
                    "duration": 0.46082949999998846
                },
                {
                    "name": "D#4",
                    "midi": 63,
                    "time": 304.14746999999903,
                    "velocity": 0.3464566929133858,
                    "duration": 0.46082949999998846
                },
                {
                    "name": "G4",
                    "midi": 67,
                    "time": 304.608299499999,
                    "velocity": 0.2992125984251969,
                    "duration": 0.46082949999998846
                },
                {
                    "name": "A4",
                    "midi": 69,
                    "time": 305.069128999999,
                    "velocity": 0.2992125984251969,
                    "duration": 0.46082949999998846
                },
                {
                    "name": "A#4",
                    "midi": 70,
                    "time": 305.529958499999,
                    "velocity": 0.3464566929133858,
                    "duration": 0.9216589999999769
                },
                {
                    "name": "F4",
                    "midi": 65,
                    "time": 306.451617499999,
                    "velocity": 0.3464566929133858,
                    "duration": 0.34562212499997713
                },
                {
                    "name": "A#3",
                    "midi": 58,
                    "time": 306.451617499999,
                    "velocity": 0.29133858267716534,
                    "duration": 0.46082949999998846
                },
                {
                    "name": "G#4",
                    "midi": 68,
                    "time": 306.79723962499895,
                    "velocity": 0.31496062992125984,
                    "duration": 0.11520737500001133
                },
                {
                    "name": "D#2",
                    "midi": 39,
                    "time": 306.91244699999896,
                    "velocity": 0.3464566929133858,
                    "duration": 0.46082949999998846
                },
                {
                    "name": "G2",
                    "midi": 43,
                    "time": 307.37327649999895,
                    "velocity": 0.30708661417322836,
                    "duration": 0.46082949999998846
                },
                {
                    "name": "A#2",
                    "midi": 46,
                    "time": 307.83410599999894,
                    "velocity": 0.30708661417322836,
                    "duration": 0.46082949999998846
                },
                {
                    "name": "D#3",
                    "midi": 51,
                    "time": 308.2949354999989,
                    "velocity": 0.3464566929133858,
                    "duration": 0.46082949999998846
                },
                {
                    "name": "G3",
                    "midi": 55,
                    "time": 308.7557649999989,
                    "velocity": 0.2992125984251969,
                    "duration": 0.46082949999998846
                },
                {
                    "name": "A3",
                    "midi": 57,
                    "time": 309.2165944999989,
                    "velocity": 0.2677165354330709,
                    "duration": 0.46082949999998846
                },
                {
                    "name": "A#3",
                    "midi": 58,
                    "time": 309.6774239999989,
                    "velocity": 0.30708661417322836,
                    "duration": 0.9216589999999769
                },
                {
                    "name": "F3",
                    "midi": 53,
                    "time": 310.59908299999887,
                    "velocity": 0.30708661417322836,
                    "duration": 0.34562212499997713
                },
                {
                    "name": "A#2",
                    "midi": 46,
                    "time": 310.59908299999887,
                    "velocity": 0.25984251968503935,
                    "duration": 0.46082949999998846
                },
                {
                    "name": "G#3",
                    "midi": 56,
                    "time": 310.94470512499885,
                    "velocity": 0.28346456692913385,
                    "duration": 0.11520737500001133
                },
                {
                    "name": "D#3",
                    "midi": 51,
                    "time": 311.05991249999886,
                    "velocity": 0.2677165354330709,
                    "duration": 0.46082949999998846
                },
                {
                    "name": "G3",
                    "midi": 55,
                    "time": 311.05991249999886,
                    "velocity": 0.31496062992125984,
                    "duration": 0.46082949999998846
                },
                {
                    "name": "A#2",
                    "midi": 46,
                    "time": 311.52074199999885,
                    "velocity": 0.25984251968503935,
                    "duration": 0.9216590000000338
                },
                {
                    "name": "F3",
                    "midi": 53,
                    "time": 311.52074199999885,
                    "velocity": 0.30708661417322836,
                    "duration": 0.6912442500000111
                },
                {
                    "name": "G#3",
                    "midi": 56,
                    "time": 312.21198624999886,
                    "velocity": 0.2677165354330709,
                    "duration": 0.23041475000002265
                },
                {
                    "name": "D#3",
                    "midi": 51,
                    "time": 312.4424009999989,
                    "velocity": 0.2677165354330709,
                    "duration": 0.46082949999998846
                },
                {
                    "name": "G3",
                    "midi": 55,
                    "time": 312.4424009999989,
                    "velocity": 0.31496062992125984,
                    "duration": 0.46082949999998846
                },
                {
                    "name": "A#2",
                    "midi": 46,
                    "time": 312.90323049999887,
                    "velocity": 0.25984251968503935,
                    "duration": 0.9216590000000338
                },
                {
                    "name": "F3",
                    "midi": 53,
                    "time": 312.90323049999887,
                    "velocity": 0.30708661417322836,
                    "duration": 0.6912442500000111
                },
                {
                    "name": "G#3",
                    "midi": 56,
                    "time": 313.5944747499989,
                    "velocity": 0.2677165354330709,
                    "duration": 0.23041475000002265
                },
                {
                    "name": "D#3",
                    "midi": 51,
                    "time": 313.8248894999989,
                    "velocity": 0.2677165354330709,
                    "duration": 0.46082949999998846
                },
                {
                    "name": "G3",
                    "midi": 55,
                    "time": 313.8248894999989,
                    "velocity": 0.31496062992125984,
                    "duration": 0.46082949999998846
                },
                {
                    "name": "A#2",
                    "midi": 46,
                    "time": 314.2857189999989,
                    "velocity": 0.2992125984251969,
                    "duration": 0.4608295000000453
                },
                {
                    "name": "F3",
                    "midi": 53,
                    "time": 314.2857189999989,
                    "velocity": 0.36220472440944884,
                    "duration": 0.23041475000002265
                },
                {
                    "name": "E3",
                    "midi": 52,
                    "time": 314.5161337499989,
                    "velocity": 0.33858267716535434,
                    "duration": 0.23041475000002265
                },
                {
                    "name": "A#2",
                    "midi": 46,
                    "time": 314.74654849999894,
                    "velocity": 0.2992125984251969,
                    "duration": 0.4608295000000453
                },
                {
                    "name": "F3",
                    "midi": 53,
                    "time": 314.74654849999894,
                    "velocity": 0.4015748031496063,
                    "duration": 0.23041475000002265
                },
                {
                    "name": "D3",
                    "midi": 50,
                    "time": 314.97696324999896,
                    "velocity": 0.3700787401574803,
                    "duration": 0.23041475000002265
                },
                {
                    "name": "D#2",
                    "midi": 39,
                    "time": 315.437792749999,
                    "velocity": 0.2047244094488189,
                    "duration": 2.0737327499999765
                },
                {
                    "name": "D3",
                    "midi": 50,
                    "time": 315.437792749999,
                    "velocity": 0.2440944881889764,
                    "duration": 1.1520737499999996
                },
                {
                    "name": "A#2",
                    "midi": 46,
                    "time": 315.437792749999,
                    "velocity": 0.2047244094488189,
                    "duration": 2.0737327499999765
                },
                {
                    "name": "D#3",
                    "midi": 51,
                    "time": 316.589866499999,
                    "velocity": 0.1968503937007874,
                    "duration": 0.9216589999999769
                }
            ],
            "controlChanges": {},
            "id": 2,
            "name": "Piano left",
            "instrumentNumber": 0,
            "instrument": "acoustic grand piano",
            "instrumentFamily": "piano",
            "channelNumber": 0,
            "isPercussion": false
        },
        {
            "startTime": 0,
            "duration": 0,
            "length": 0,
            "notes": [],
            "controlChanges": {
                "64": [
                    {
                        "number": 64,
                        "time": 4.25691250625,
                        "value": 1
                    },
                    {
                        "number": 64,
                        "time": 5.599078425,
                        "value": 0
                    },
                    {
                        "number": 64,
                        "time": 5.698924816666667,
                        "value": 1
                    },
                    {
                        "number": 64,
                        "time": 6.95276508125,
                        "value": 0
                    },
                    {
                        "number": 64,
                        "time": 8.364055425,
                        "value": 1
                    },
                    {
                        "number": 64,
                        "time": 9.226190614583333,
                        "value": 0
                    },
                    {
                        "number": 64,
                        "time": 9.285714425,
                        "value": 1
                    },
                    {
                        "number": 64,
                        "time": 9.710061589583333,
                        "value": 0
                    },
                    {
                        "number": 64,
                        "time": 9.81566835,
                        "value": 1
                    },
                    {
                        "number": 64,
                        "time": 11.08870984375,
                        "value": 0
                    },
                    {
                        "number": 64,
                        "time": 12.596006333333332,
                        "value": 1
                    },
                    {
                        "number": 64,
                        "time": 13.859447212499997,
                        "value": 0
                    },
                    {
                        "number": 64,
                        "time": 16.739631587499996,
                        "value": 1
                    },
                    {
                        "number": 64,
                        "time": 18.001152343749997,
                        "value": 0
                    },
                    {
                        "number": 64,
                        "time": 18.202765249999995,
                        "value": 1
                    },
                    {
                        "number": 64,
                        "time": 19.383640843749994,
                        "value": 0
                    },
                    {
                        "number": 64,
                        "time": 19.571812889583327,
                        "value": 1
                    },
                    {
                        "number": 64,
                        "time": 20.737327499999992,
                        "value": 0
                    },
                    {
                        "number": 64,
                        "time": 21.117511837499993,
                        "value": 1
                    },
                    {
                        "number": 64,
                        "time": 24.89631373749999,
                        "value": 0
                    },
                    {
                        "number": 64,
                        "time": 25.061444308333325,
                        "value": 1
                    },
                    {
                        "number": 64,
                        "time": 26.29608334374999,
                        "value": 0
                    },
                    {
                        "number": 64,
                        "time": 26.524577970833324,
                        "value": 1
                    },
                    {
                        "number": 64,
                        "time": 27.680491966666658,
                        "value": 0
                    },
                    {
                        "number": 64,
                        "time": 27.907066470833325,
                        "value": 1
                    },
                    {
                        "number": 64,
                        "time": 29.03225849999999,
                        "value": 0
                    },
                    {
                        "number": 64,
                        "time": 29.58525389999999,
                        "value": 1
                    },
                    {
                        "number": 64,
                        "time": 31.864439802083325,
                        "value": 0
                    },
                    {
                        "number": 64,
                        "time": 31.968126439583326,
                        "value": 1
                    },
                    {
                        "number": 64,
                        "time": 32.331029670833324,
                        "value": 0
                    },
                    {
                        "number": 64,
                        "time": 33.36981616874999,
                        "value": 1
                    },
                    {
                        "number": 64,
                        "time": 34.59101434374999,
                        "value": 0
                    },
                    {
                        "number": 64,
                        "time": 37.51728166874999,
                        "value": 1
                    },
                    {
                        "number": 64,
                        "time": 38.738479843749985,
                        "value": 0
                    },
                    {
                        "number": 64,
                        "time": 38.78264267083332,
                        "value": 1
                    },
                    {
                        "number": 64,
                        "time": 39.18394836041665,
                        "value": 0
                    },
                    {
                        "number": 64,
                        "time": 40.11136772916665,
                        "value": 0
                    },
                    {
                        "number": 64,
                        "time": 40.155530556249985,
                        "value": 1
                    },
                    {
                        "number": 64,
                        "time": 40.55683624583332,
                        "value": 0
                    },
                    {
                        "number": 64,
                        "time": 41.63786544791665,
                        "value": 1
                    },
                    {
                        "number": 64,
                        "time": 42.41167498333332,
                        "value": 0
                    },
                    {
                        "number": 64,
                        "time": 42.640169610416656,
                        "value": 1
                    },
                    {
                        "number": 64,
                        "time": 42.876344729166654,
                        "value": 0
                    },
                    {
                        "number": 64,
                        "time": 43.156682674999985,
                        "value": 1
                    },
                    {
                        "number": 64,
                        "time": 43.80184397499998,
                        "value": 0
                    },
                    {
                        "number": 64,
                        "time": 44.04953983124998,
                        "value": 1
                    },
                    {
                        "number": 64,
                        "time": 44.25883322916665,
                        "value": 0
                    },
                    {
                        "number": 64,
                        "time": 44.483487610416645,
                        "value": 1
                    },
                    {
                        "number": 64,
                        "time": 45.188172720833315,
                        "value": 0
                    },
                    {
                        "number": 64,
                        "time": 45.35138316874998,
                        "value": 1
                    },
                    {
                        "number": 64,
                        "time": 45.62212049999998,
                        "value": 0
                    },
                    {
                        "number": 64,
                        "time": 45.92165967499998,
                        "value": 1
                    },
                    {
                        "number": 64,
                        "time": 47.03149072083331,
                        "value": 0
                    },
                    {
                        "number": 64,
                        "time": 47.27534633124998,
                        "value": 1
                    },
                    {
                        "number": 64,
                        "time": 47.95314972083331,
                        "value": 0
                    },
                    {
                        "number": 64,
                        "time": 48.84792699999998,
                        "value": 1
                    },
                    {
                        "number": 64,
                        "time": 52.55952459791664,
                        "value": 0
                    },
                    {
                        "number": 64,
                        "time": 52.649770374999974,
                        "value": 1
                    },
                    {
                        "number": 64,
                        "time": 53.01459372916664,
                        "value": 0
                    },
                    {
                        "number": 64,
                        "time": 53.08755839999998,
                        "value": 1
                    },
                    {
                        "number": 64,
                        "time": 53.475423229166644,
                        "value": 0
                    },
                    {
                        "number": 64,
                        "time": 53.55990863749998,
                        "value": 1
                    },
                    {
                        "number": 64,
                        "time": 53.91705149999998,
                        "value": 0
                    },
                    {
                        "number": 64,
                        "time": 54.40476272083331,
                        "value": 1
                    },
                    {
                        "number": 64,
                        "time": 55.328341843749975,
                        "value": 0
                    },
                    {
                        "number": 64,
                        "time": 57.142857999999976,
                        "value": 1
                    },
                    {
                        "number": 64,
                        "time": 60.85445559791664,
                        "value": 0
                    },
                    {
                        "number": 64,
                        "time": 60.94470137499997,
                        "value": 1
                    },
                    {
                        "number": 64,
                        "time": 61.30952472916664,
                        "value": 0
                    },
                    {
                        "number": 64,
                        "time": 61.382489399999976,
                        "value": 1
                    },
                    {
                        "number": 64,
                        "time": 61.77035422916664,
                        "value": 0
                    },
                    {
                        "number": 64,
                        "time": 61.85483963749998,
                        "value": 1
                    },
                    {
                        "number": 64,
                        "time": 62.211982499999976,
                        "value": 0
                    },
                    {
                        "number": 64,
                        "time": 62.69969372083331,
                        "value": 1
                    },
                    {
                        "number": 64,
                        "time": 63.62327284374997,
                        "value": 0
                    },
                    {
                        "number": 64,
                        "time": 63.92089189583331,
                        "value": 1
                    },
                    {
                        "number": 64,
                        "time": 64.98271986874997,
                        "value": 0
                    },
                    {
                        "number": 64,
                        "time": 65.19393338958331,
                        "value": 1
                    },
                    {
                        "number": 64,
                        "time": 66.37288886041664,
                        "value": 0
                    },
                    {
                        "number": 64,
                        "time": 66.6455463145833,
                        "value": 1
                    },
                    {
                        "number": 64,
                        "time": 67.7688182208333,
                        "value": 0
                    },
                    {
                        "number": 64,
                        "time": 68.0280348145833,
                        "value": 1
                    },
                    {
                        "number": 64,
                        "time": 69.15322684374996,
                        "value": 0
                    },
                    {
                        "number": 64,
                        "time": 69.3874818395833,
                        "value": 1
                    },
                    {
                        "number": 64,
                        "time": 70.50691349999997,
                        "value": 0
                    },
                    {
                        "number": 64,
                        "time": 70.7238873895833,
                        "value": 1
                    },
                    {
                        "number": 64,
                        "time": 71.92972458124996,
                        "value": 0
                    },
                    {
                        "number": 64,
                        "time": 72.11981674999996,
                        "value": 1
                    },
                    {
                        "number": 64,
                        "time": 74.2031501145833,
                        "value": 0
                    },
                    {
                        "number": 64,
                        "time": 74.34331908749996,
                        "value": 1
                    },
                    {
                        "number": 64,
                        "time": 74.66589973749997,
                        "value": 0
                    },
                    {
                        "number": 64,
                        "time": 74.8079888333333,
                        "value": 1
                    },
                    {
                        "number": 64,
                        "time": 75.13440972916663,
                        "value": 0
                    },
                    {
                        "number": 64,
                        "time": 75.23617624374997,
                        "value": 1
                    },
                    {
                        "number": 64,
                        "time": 75.61252033541663,
                        "value": 0
                    },
                    {
                        "number": 64,
                        "time": 75.7296478333333,
                        "value": 1
                    },
                    {
                        "number": 64,
                        "time": 75.82565397916663,
                        "value": 0
                    },
                    {
                        "number": 64,
                        "time": 76.18087671874997,
                        "value": 1
                    },
                    {
                        "number": 64,
                        "time": 76.97196736041664,
                        "value": 0
                    },
                    {
                        "number": 64,
                        "time": 77.07949424374998,
                        "value": 1
                    },
                    {
                        "number": 64,
                        "time": 77.45199808958331,
                        "value": 0
                    },
                    {
                        "number": 64,
                        "time": 77.60560792291665,
                        "value": 1
                    },
                    {
                        "number": 64,
                        "time": 77.90898734374998,
                        "value": 0
                    },
                    {
                        "number": 64,
                        "time": 78.85176769583332,
                        "value": 1
                    },
                    {
                        "number": 64,
                        "time": 79.28187522916664,
                        "value": 0
                    },
                    {
                        "number": 64,
                        "time": 79.36828076041664,
                        "value": 1
                    },
                    {
                        "number": 64,
                        "time": 79.7446248520833,
                        "value": 0
                    },
                    {
                        "number": 64,
                        "time": 79.80606878541664,
                        "value": 1
                    },
                    {
                        "number": 64,
                        "time": 80.21121472083331,
                        "value": 0
                    },
                    {
                        "number": 64,
                        "time": 80.31682148124997,
                        "value": 1
                    },
                    {
                        "number": 64,
                        "time": 81.57642211458331,
                        "value": 0
                    },
                    {
                        "number": 64,
                        "time": 81.63402580208331,
                        "value": 1
                    },
                    {
                        "number": 64,
                        "time": 82.06221321249998,
                        "value": 0
                    },
                    {
                        "number": 64,
                        "time": 82.14861874374998,
                        "value": 1
                    },
                    {
                        "number": 64,
                        "time": 82.50384148333332,
                        "value": 0
                    },
                    {
                        "number": 64,
                        "time": 82.58832689166665,
                        "value": 1
                    },
                    {
                        "number": 64,
                        "time": 82.98771245833332,
                        "value": 0
                    },
                    {
                        "number": 64,
                        "time": 83.08179848124999,
                        "value": 1
                    },
                    {
                        "number": 64,
                        "time": 83.43702122083333,
                        "value": 0
                    },
                    {
                        "number": 64,
                        "time": 83.56374933333333,
                        "value": 1
                    },
                    {
                        "number": 64,
                        "time": 83.91897207291667,
                        "value": 0
                    },
                    {
                        "number": 64,
                        "time": 84.48540833333334,
                        "value": 1
                    },
                    {
                        "number": 64,
                        "time": 85.29185995833333,
                        "value": 0
                    },
                    {
                        "number": 64,
                        "time": 87.31758963541667,
                        "value": 1
                    },
                    {
                        "number": 64,
                        "time": 88.04723634375,
                        "value": 0
                    },
                    {
                        "number": 64,
                        "time": 88.70007813541666,
                        "value": 1
                    },
                    {
                        "number": 64,
                        "time": 89.42972484375,
                        "value": 0
                    },
                    {
                        "number": 64,
                        "time": 90.05952516041665,
                        "value": 1
                    },
                    {
                        "number": 64,
                        "time": 90.81605358958332,
                        "value": 0
                    },
                    {
                        "number": 64,
                        "time": 91.33256665416665,
                        "value": 1
                    },
                    {
                        "number": 64,
                        "time": 92.20046221249999,
                        "value": 0
                    },
                    {
                        "number": 64,
                        "time": 92.91282781458332,
                        "value": 1
                    },
                    {
                        "number": 64,
                        "time": 93.58103058958332,
                        "value": 0
                    },
                    {
                        "number": 64,
                        "time": 94.40476332083333,
                        "value": 1
                    },
                    {
                        "number": 64,
                        "time": 94.95775872083333,
                        "value": 0
                    },
                    {
                        "number": 64,
                        "time": 95.44739006458333,
                        "value": 1
                    },
                    {
                        "number": 64,
                        "time": 96.82987856458332,
                        "value": 0
                    },
                    {
                        "number": 64,
                        "time": 96.89516274374999,
                        "value": 1
                    },
                    {
                        "number": 64,
                        "time": 98.17780485208333,
                        "value": 0
                    },
                    {
                        "number": 64,
                        "time": 98.28917198124999,
                        "value": 1
                    },
                    {
                        "number": 64,
                        "time": 99.539172,
                        "value": 0
                    },
                    {
                        "number": 64,
                        "time": 103.74040094166666,
                        "value": 1
                    },
                    {
                        "number": 64,
                        "time": 105.08640710625,
                        "value": 0
                    },
                    {
                        "number": 64,
                        "time": 105.12864981041666,
                        "value": 1
                    },
                    {
                        "number": 64,
                        "time": 106.46889560625,
                        "value": 0
                    },
                    {
                        "number": 64,
                        "time": 106.51689867916667,
                        "value": 1
                    },
                    {
                        "number": 64,
                        "time": 107.834103,
                        "value": 0
                    },
                    {
                        "number": 64,
                        "time": 108.03187566041666,
                        "value": 1
                    },
                    {
                        "number": 64,
                        "time": 108.77304310624999,
                        "value": 0
                    },
                    {
                        "number": 64,
                        "time": 108.88249011249998,
                        "value": 1
                    },
                    {
                        "number": 64,
                        "time": 110.14977123749998,
                        "value": 0
                    },
                    {
                        "number": 64,
                        "time": 110.25345787499998,
                        "value": 1
                    },
                    {
                        "number": 64,
                        "time": 110.61252086041665,
                        "value": 0
                    },
                    {
                        "number": 64,
                        "time": 111.59178354791665,
                        "value": 1
                    },
                    {
                        "number": 64,
                        "time": 111.98156849999998,
                        "value": 0
                    },
                    {
                        "number": 64,
                        "time": 112.17934116041664,
                        "value": 1
                    },
                    {
                        "number": 64,
                        "time": 112.92050860624997,
                        "value": 0
                    },
                    {
                        "number": 64,
                        "time": 113.02995561249996,
                        "value": 1
                    },
                    {
                        "number": 64,
                        "time": 114.29723673749996,
                        "value": 0
                    },
                    {
                        "number": 64,
                        "time": 114.40092337499996,
                        "value": 1
                    },
                    {
                        "number": 64,
                        "time": 114.75998636041663,
                        "value": 0
                    },
                    {
                        "number": 64,
                        "time": 115.73924904791663,
                        "value": 1
                    },
                    {
                        "number": 64,
                        "time": 116.16935658124996,
                        "value": 0
                    },
                    {
                        "number": 64,
                        "time": 116.84331972499996,
                        "value": 1
                    },
                    {
                        "number": 64,
                        "time": 117.54608471249996,
                        "value": 0
                    },
                    {
                        "number": 64,
                        "time": 118.18164539791663,
                        "value": 1
                    },
                    {
                        "number": 64,
                        "time": 118.93049333541663,
                        "value": 0
                    },
                    {
                        "number": 64,
                        "time": 119.5199710708333,
                        "value": 1
                    },
                    {
                        "number": 64,
                        "time": 119.84447184374996,
                        "value": 0
                    },
                    {
                        "number": 64,
                        "time": 119.92511700624996,
                        "value": 1
                    },
                    {
                        "number": 64,
                        "time": 120.27649949999996,
                        "value": 0
                    },
                    {
                        "number": 64,
                        "time": 120.56259781458328,
                        "value": 1
                    },
                    {
                        "number": 64,
                        "time": 121.68010935208328,
                        "value": 0
                    },
                    {
                        "number": 64,
                        "time": 121.73771303958328,
                        "value": 1
                    },
                    {
                        "number": 64,
                        "time": 122.60560859791661,
                        "value": 0
                    },
                    {
                        "number": 64,
                        "time": 136.89324322083328,
                        "value": 1
                    },
                    {
                        "number": 64,
                        "time": 138.3026134416666,
                        "value": 0
                    },
                    {
                        "number": 64,
                        "time": 138.39861958749995,
                        "value": 1
                    },
                    {
                        "number": 64,
                        "time": 138.7365612208333,
                        "value": 0
                    },
                    {
                        "number": 64,
                        "time": 138.81912650624997,
                        "value": 1
                    },
                    {
                        "number": 64,
                        "time": 139.18779010624996,
                        "value": 0
                    },
                    {
                        "number": 64,
                        "time": 139.2722755145833,
                        "value": 1
                    },
                    {
                        "number": 64,
                        "time": 139.6639805895833,
                        "value": 0
                    },
                    {
                        "number": 64,
                        "time": 139.75998673541665,
                        "value": 1
                    },
                    {
                        "number": 64,
                        "time": 140.12096984374998,
                        "value": 0
                    },
                    {
                        "number": 64,
                        "time": 140.21505586666663,
                        "value": 1
                    },
                    {
                        "number": 64,
                        "time": 140.59332008124997,
                        "value": 0
                    },
                    {
                        "number": 64,
                        "time": 140.67588536666665,
                        "value": 1
                    },
                    {
                        "number": 64,
                        "time": 141.013827,
                        "value": 0
                    },
                    {
                        "number": 64,
                        "time": 141.12327400625,
                        "value": 1
                    },
                    {
                        "number": 64,
                        "time": 142.40975636041668,
                        "value": 0
                    },
                    {
                        "number": 64,
                        "time": 142.51152287500003,
                        "value": 1
                    },
                    {
                        "number": 64,
                        "time": 142.87442610625,
                        "value": 0
                    },
                    {
                        "number": 64,
                        "time": 142.99347372708334,
                        "value": 1
                    },
                    {
                        "number": 64,
                        "time": 143.341015975,
                        "value": 0
                    },
                    {
                        "number": 64,
                        "time": 143.41974101458334,
                        "value": 1
                    },
                    {
                        "number": 64,
                        "time": 143.81528633541666,
                        "value": 0
                    },
                    {
                        "number": 64,
                        "time": 143.88825100625,
                        "value": 1
                    },
                    {
                        "number": 64,
                        "time": 144.26843534374999,
                        "value": 0
                    },
                    {
                        "number": 64,
                        "time": 144.36252136666664,
                        "value": 1
                    },
                    {
                        "number": 64,
                        "time": 144.72350447499997,
                        "value": 0
                    },
                    {
                        "number": 64,
                        "time": 144.81567037499997,
                        "value": 1
                    },
                    {
                        "number": 64,
                        "time": 145.19009434374996,
                        "value": 0
                    },
                    {
                        "number": 64,
                        "time": 145.25537852291663,
                        "value": 1
                    },
                    {
                        "number": 64,
                        "time": 146.5706627208333,
                        "value": 0
                    },
                    {
                        "number": 64,
                        "time": 146.63210665416662,
                        "value": 1
                    },
                    {
                        "number": 64,
                        "time": 147.02573185208328,
                        "value": 0
                    },
                    {
                        "number": 64,
                        "time": 147.10445689166662,
                        "value": 1
                    },
                    {
                        "number": 64,
                        "time": 147.49808208958328,
                        "value": 0
                    },
                    {
                        "number": 64,
                        "time": 147.55376565416663,
                        "value": 1
                    },
                    {
                        "number": 64,
                        "time": 147.95507134374995,
                        "value": 0
                    },
                    {
                        "number": 64,
                        "time": 148.0145951541666,
                        "value": 1
                    },
                    {
                        "number": 64,
                        "time": 148.4235813354166,
                        "value": 0
                    },
                    {
                        "number": 64,
                        "time": 148.4869453916666,
                        "value": 1
                    },
                    {
                        "number": 64,
                        "time": 148.86904985208326,
                        "value": 0
                    },
                    {
                        "number": 64,
                        "time": 148.9477748916666,
                        "value": 1
                    },
                    {
                        "number": 64,
                        "time": 149.30875799999993,
                        "value": 0
                    },
                    {
                        "number": 64,
                        "time": 149.3798025479166,
                        "value": 1
                    },
                    {
                        "number": 64,
                        "time": 150.71236785208328,
                        "value": 0
                    },
                    {
                        "number": 64,
                        "time": 150.76805141666662,
                        "value": 1
                    },
                    {
                        "number": 64,
                        "time": 151.16935710624995,
                        "value": 0
                    },
                    {
                        "number": 64,
                        "time": 151.2288809166666,
                        "value": 1
                    },
                    {
                        "number": 64,
                        "time": 151.63018660624994,
                        "value": 0
                    },
                    {
                        "number": 64,
                        "time": 151.7185122604166,
                        "value": 1
                    },
                    {
                        "number": 64,
                        "time": 152.10061672083324,
                        "value": 0
                    },
                    {
                        "number": 64,
                        "time": 152.2004631124999,
                        "value": 1
                    },
                    {
                        "number": 64,
                        "time": 152.54992548333323,
                        "value": 0
                    },
                    {
                        "number": 64,
                        "time": 152.61712978541655,
                        "value": 1
                    },
                    {
                        "number": 64,
                        "time": 153.01075498333321,
                        "value": 0
                    },
                    {
                        "number": 64,
                        "time": 153.08371965416654,
                        "value": 1
                    },
                    {
                        "number": 64,
                        "time": 153.48502534374987,
                        "value": 0
                    },
                    {
                        "number": 64,
                        "time": 153.55030952291654,
                        "value": 1
                    },
                    {
                        "number": 64,
                        "time": 154.8655937208332,
                        "value": 0
                    },
                    {
                        "number": 64,
                        "time": 154.92703765416653,
                        "value": 1
                    },
                    {
                        "number": 64,
                        "time": 155.3206628520832,
                        "value": 0
                    },
                    {
                        "number": 64,
                        "time": 155.39938789166652,
                        "value": 1
                    },
                    {
                        "number": 64,
                        "time": 155.79301308958318,
                        "value": 0
                    },
                    {
                        "number": 64,
                        "time": 155.84869665416653,
                        "value": 1
                    },
                    {
                        "number": 64,
                        "time": 156.25000234374986,
                        "value": 0
                    },
                    {
                        "number": 64,
                        "time": 156.30952615416652,
                        "value": 1
                    },
                    {
                        "number": 64,
                        "time": 156.7185123354165,
                        "value": 0
                    },
                    {
                        "number": 64,
                        "time": 156.78187639166651,
                        "value": 1
                    },
                    {
                        "number": 64,
                        "time": 157.16398085208317,
                        "value": 0
                    },
                    {
                        "number": 64,
                        "time": 157.2427058916665,
                        "value": 1
                    },
                    {
                        "number": 64,
                        "time": 157.60368899999983,
                        "value": 0
                    },
                    {
                        "number": 64,
                        "time": 157.74769821874983,
                        "value": 1
                    },
                    {
                        "number": 64,
                        "time": 158.54070898333316,
                        "value": 0
                    },
                    {
                        "number": 64,
                        "time": 158.64631574374982,
                        "value": 1
                    },
                    {
                        "number": 64,
                        "time": 158.9996183604165,
                        "value": 0
                    },
                    {
                        "number": 64,
                        "time": 159.09562450624983,
                        "value": 1
                    },
                    {
                        "number": 64,
                        "time": 159.46236798333317,
                        "value": 0
                    },
                    {
                        "number": 64,
                        "time": 159.57949548124984,
                        "value": 1
                    },
                    {
                        "number": 64,
                        "time": 159.93471822083316,
                        "value": 0
                    },
                    {
                        "number": 64,
                        "time": 160.07296707083316,
                        "value": 1
                    },
                    {
                        "number": 64,
                        "time": 160.4032282124998,
                        "value": 0
                    },
                    {
                        "number": 64,
                        "time": 160.4896337437498,
                        "value": 1
                    },
                    {
                        "number": 64,
                        "time": 160.85061685208314,
                        "value": 0
                    },
                    {
                        "number": 64,
                        "time": 160.9504632437498,
                        "value": 1
                    },
                    {
                        "number": 64,
                        "time": 161.30376586041646,
                        "value": 0
                    },
                    {
                        "number": 64,
                        "time": 161.4228134812498,
                        "value": 1
                    },
                    {
                        "number": 64,
                        "time": 161.75115449999979,
                        "value": 0
                    },
                    {
                        "number": 64,
                        "time": 161.89516371874979,
                        "value": 1
                    },
                    {
                        "number": 64,
                        "time": 162.22734498333313,
                        "value": 0
                    },
                    {
                        "number": 64,
                        "time": 162.32143100624978,
                        "value": 1
                    },
                    {
                        "number": 64,
                        "time": 162.6881744833331,
                        "value": 0
                    },
                    {
                        "number": 64,
                        "time": 162.79378124374978,
                        "value": 1
                    },
                    {
                        "number": 64,
                        "time": 163.14708386041644,
                        "value": 0
                    },
                    {
                        "number": 64,
                        "time": 163.2430900062498,
                        "value": 1
                    },
                    {
                        "number": 64,
                        "time": 163.60983348333312,
                        "value": 0
                    },
                    {
                        "number": 64,
                        "time": 163.7269609812498,
                        "value": 1
                    },
                    {
                        "number": 64,
                        "time": 164.08218372083311,
                        "value": 0
                    },
                    {
                        "number": 64,
                        "time": 164.2204325708331,
                        "value": 1
                    },
                    {
                        "number": 64,
                        "time": 164.55069371249976,
                        "value": 0
                    },
                    {
                        "number": 64,
                        "time": 164.63709924374976,
                        "value": 1
                    },
                    {
                        "number": 64,
                        "time": 164.9980823520831,
                        "value": 0
                    },
                    {
                        "number": 64,
                        "time": 165.09792874374975,
                        "value": 1
                    },
                    {
                        "number": 64,
                        "time": 165.45123136041641,
                        "value": 0
                    },
                    {
                        "number": 64,
                        "time": 165.57027898124974,
                        "value": 1
                    },
                    {
                        "number": 64,
                        "time": 165.89861999999974,
                        "value": 0
                    },
                    {
                        "number": 64,
                        "time": 166.04262921874974,
                        "value": 1
                    },
                    {
                        "number": 64,
                        "time": 166.37481048333308,
                        "value": 0
                    },
                    {
                        "number": 64,
                        "time": 166.46889650624973,
                        "value": 1
                    },
                    {
                        "number": 64,
                        "time": 166.83563998333307,
                        "value": 0
                    },
                    {
                        "number": 64,
                        "time": 166.94124674374973,
                        "value": 1
                    },
                    {
                        "number": 64,
                        "time": 167.2945493604164,
                        "value": 0
                    },
                    {
                        "number": 64,
                        "time": 167.39055550624974,
                        "value": 1
                    },
                    {
                        "number": 64,
                        "time": 167.75729898333307,
                        "value": 0
                    },
                    {
                        "number": 64,
                        "time": 167.87442648124974,
                        "value": 1
                    },
                    {
                        "number": 64,
                        "time": 168.22964922083307,
                        "value": 0
                    },
                    {
                        "number": 64,
                        "time": 168.36789807083306,
                        "value": 1
                    },
                    {
                        "number": 64,
                        "time": 168.69815921249972,
                        "value": 0
                    },
                    {
                        "number": 64,
                        "time": 168.7845647437497,
                        "value": 1
                    },
                    {
                        "number": 64,
                        "time": 169.14554785208304,
                        "value": 0
                    },
                    {
                        "number": 64,
                        "time": 169.2453942437497,
                        "value": 1
                    },
                    {
                        "number": 64,
                        "time": 169.59869686041637,
                        "value": 0
                    },
                    {
                        "number": 64,
                        "time": 169.7177444812497,
                        "value": 1
                    },
                    {
                        "number": 64,
                        "time": 170.0460854999997,
                        "value": 0
                    },
                    {
                        "number": 64,
                        "time": 170.1900947187497,
                        "value": 1
                    },
                    {
                        "number": 64,
                        "time": 170.52227598333303,
                        "value": 0
                    },
                    {
                        "number": 64,
                        "time": 170.6163620062497,
                        "value": 1
                    },
                    {
                        "number": 64,
                        "time": 170.98310548333302,
                        "value": 0
                    },
                    {
                        "number": 64,
                        "time": 171.08871224374968,
                        "value": 1
                    },
                    {
                        "number": 64,
                        "time": 171.44201486041635,
                        "value": 0
                    },
                    {
                        "number": 64,
                        "time": 171.5380210062497,
                        "value": 1
                    },
                    {
                        "number": 64,
                        "time": 171.90476448333303,
                        "value": 0
                    },
                    {
                        "number": 64,
                        "time": 172.0218919812497,
                        "value": 1
                    },
                    {
                        "number": 64,
                        "time": 172.37711472083302,
                        "value": 0
                    },
                    {
                        "number": 64,
                        "time": 172.51536357083302,
                        "value": 1
                    },
                    {
                        "number": 64,
                        "time": 172.84562471249967,
                        "value": 0
                    },
                    {
                        "number": 64,
                        "time": 172.93203024374967,
                        "value": 1
                    },
                    {
                        "number": 64,
                        "time": 173.293013352083,
                        "value": 0
                    },
                    {
                        "number": 64,
                        "time": 173.39285974374965,
                        "value": 1
                    },
                    {
                        "number": 64,
                        "time": 173.74616236041632,
                        "value": 0
                    },
                    {
                        "number": 64,
                        "time": 173.86520998124965,
                        "value": 1
                    },
                    {
                        "number": 64,
                        "time": 174.19355099999964,
                        "value": 0
                    },
                    {
                        "number": 64,
                        "time": 174.33756021874964,
                        "value": 1
                    },
                    {
                        "number": 64,
                        "time": 174.66974148333298,
                        "value": 0
                    },
                    {
                        "number": 64,
                        "time": 174.76382750624964,
                        "value": 1
                    },
                    {
                        "number": 64,
                        "time": 175.13057098333297,
                        "value": 0
                    },
                    {
                        "number": 64,
                        "time": 175.23617774374964,
                        "value": 1
                    },
                    {
                        "number": 64,
                        "time": 175.5894803604163,
                        "value": 0
                    },
                    {
                        "number": 64,
                        "time": 175.68548650624965,
                        "value": 1
                    },
                    {
                        "number": 64,
                        "time": 176.05222998333298,
                        "value": 0
                    },
                    {
                        "number": 64,
                        "time": 176.16935748124965,
                        "value": 1
                    },
                    {
                        "number": 64,
                        "time": 176.52458022083297,
                        "value": 0
                    },
                    {
                        "number": 64,
                        "time": 176.66282907083297,
                        "value": 1
                    },
                    {
                        "number": 64,
                        "time": 176.99309021249962,
                        "value": 0
                    },
                    {
                        "number": 64,
                        "time": 177.07949574374962,
                        "value": 1
                    },
                    {
                        "number": 64,
                        "time": 177.44047885208295,
                        "value": 0
                    },
                    {
                        "number": 64,
                        "time": 177.5403252437496,
                        "value": 1
                    },
                    {
                        "number": 64,
                        "time": 177.89362786041627,
                        "value": 0
                    },
                    {
                        "number": 64,
                        "time": 178.0126754812496,
                        "value": 1
                    },
                    {
                        "number": 64,
                        "time": 178.3410164999996,
                        "value": 0
                    },
                    {
                        "number": 64,
                        "time": 178.4850257187496,
                        "value": 1
                    },
                    {
                        "number": 64,
                        "time": 178.81720698333294,
                        "value": 0
                    },
                    {
                        "number": 64,
                        "time": 178.9112930062496,
                        "value": 1
                    },
                    {
                        "number": 64,
                        "time": 179.27803648333293,
                        "value": 0
                    },
                    {
                        "number": 64,
                        "time": 179.3836432437496,
                        "value": 1
                    },
                    {
                        "number": 64,
                        "time": 179.73694586041626,
                        "value": 0
                    },
                    {
                        "number": 64,
                        "time": 179.8329520062496,
                        "value": 1
                    },
                    {
                        "number": 64,
                        "time": 180.19969548333293,
                        "value": 0
                    },
                    {
                        "number": 64,
                        "time": 180.3168229812496,
                        "value": 1
                    },
                    {
                        "number": 64,
                        "time": 180.67204572083293,
                        "value": 0
                    },
                    {
                        "number": 64,
                        "time": 180.81029457083292,
                        "value": 1
                    },
                    {
                        "number": 64,
                        "time": 181.14055571249958,
                        "value": 0
                    },
                    {
                        "number": 64,
                        "time": 181.22696124374957,
                        "value": 1
                    },
                    {
                        "number": 64,
                        "time": 181.5879443520829,
                        "value": 0
                    },
                    {
                        "number": 64,
                        "time": 181.68779074374956,
                        "value": 1
                    },
                    {
                        "number": 64,
                        "time": 182.04109336041623,
                        "value": 0
                    },
                    {
                        "number": 64,
                        "time": 182.16014098124955,
                        "value": 1
                    },
                    {
                        "number": 64,
                        "time": 182.48848199999955,
                        "value": 0
                    },
                    {
                        "number": 64,
                        "time": 182.59792900624956,
                        "value": 1
                    },
                    {
                        "number": 64,
                        "time": 182.97811334374956,
                        "value": 0
                    },
                    {
                        "number": 64,
                        "time": 183.09332071874957,
                        "value": 1
                    },
                    {
                        "number": 64,
                        "time": 183.43894284374957,
                        "value": 0
                    },
                    {
                        "number": 64,
                        "time": 183.55415021874958,
                        "value": 1
                    },
                    {
                        "number": 64,
                        "time": 183.79416558333293,
                        "value": 0
                    },
                    {
                        "number": 64,
                        "time": 195.0403255062496,
                        "value": 1
                    },
                    {
                        "number": 64,
                        "time": 196.38249142499959,
                        "value": 0
                    },
                    {
                        "number": 64,
                        "time": 196.48233781666625,
                        "value": 1
                    },
                    {
                        "number": 64,
                        "time": 197.7361780812496,
                        "value": 0
                    },
                    {
                        "number": 64,
                        "time": 199.1474684249996,
                        "value": 1
                    },
                    {
                        "number": 64,
                        "time": 200.00960361458294,
                        "value": 0
                    },
                    {
                        "number": 64,
                        "time": 200.0691274249996,
                        "value": 1
                    },
                    {
                        "number": 64,
                        "time": 200.49347458958295,
                        "value": 0
                    },
                    {
                        "number": 64,
                        "time": 200.5990813499996,
                        "value": 1
                    },
                    {
                        "number": 64,
                        "time": 201.8721228437496,
                        "value": 0
                    },
                    {
                        "number": 64,
                        "time": 203.37941933333292,
                        "value": 1
                    },
                    {
                        "number": 64,
                        "time": 204.64286021249958,
                        "value": 0
                    },
                    {
                        "number": 64,
                        "time": 204.70814439166625,
                        "value": 1
                    },
                    {
                        "number": 64,
                        "time": 206.0061474833329,
                        "value": 0
                    },
                    {
                        "number": 64,
                        "time": 206.08487252291624,
                        "value": 1
                    },
                    {
                        "number": 64,
                        "time": 207.37327499999958,
                        "value": 0
                    },
                    {
                        "number": 64,
                        "time": 207.6305714708329,
                        "value": 1
                    },
                    {
                        "number": 64,
                        "time": 208.78456534374956,
                        "value": 0
                    },
                    {
                        "number": 64,
                        "time": 208.98617824999957,
                        "value": 1
                    },
                    {
                        "number": 64,
                        "time": 210.16705384374956,
                        "value": 0
                    },
                    {
                        "number": 64,
                        "time": 210.3552258895829,
                        "value": 1
                    },
                    {
                        "number": 64,
                        "time": 211.52074049999956,
                        "value": 0
                    },
                    {
                        "number": 64,
                        "time": 211.90092483749956,
                        "value": 1
                    },
                    {
                        "number": 64,
                        "time": 215.66820599999957,
                        "value": 0
                    },
                    {
                        "number": 64,
                        "time": 215.77765300624958,
                        "value": 1
                    },
                    {
                        "number": 64,
                        "time": 217.05069449999957,
                        "value": 0
                    },
                    {
                        "number": 64,
                        "time": 217.1985439645829,
                        "value": 1
                    },
                    {
                        "number": 64,
                        "time": 218.46390496666623,
                        "value": 0
                    },
                    {
                        "number": 64,
                        "time": 218.55991111249958,
                        "value": 1
                    },
                    {
                        "number": 64,
                        "time": 219.8271922374996,
                        "value": 0
                    },
                    {
                        "number": 64,
                        "time": 220.3686668999996,
                        "value": 1
                    },
                    {
                        "number": 64,
                        "time": 222.64785280208292,
                        "value": 0
                    },
                    {
                        "number": 64,
                        "time": 222.75153943958293,
                        "value": 1
                    },
                    {
                        "number": 64,
                        "time": 223.11444267083291,
                        "value": 0
                    },
                    {
                        "number": 64,
                        "time": 224.1532291687496,
                        "value": 1
                    },
                    {
                        "number": 64,
                        "time": 225.3744273437496,
                        "value": 0
                    },
                    {
                        "number": 64,
                        "time": 228.3006946687496,
                        "value": 1
                    },
                    {
                        "number": 64,
                        "time": 229.5218928437496,
                        "value": 0
                    },
                    {
                        "number": 64,
                        "time": 229.56605567083295,
                        "value": 1
                    },
                    {
                        "number": 64,
                        "time": 229.96736136041628,
                        "value": 0
                    },
                    {
                        "number": 64,
                        "time": 230.89478072916629,
                        "value": 0
                    },
                    {
                        "number": 64,
                        "time": 230.93894355624963,
                        "value": 1
                    },
                    {
                        "number": 64,
                        "time": 231.34024924583295,
                        "value": 0
                    },
                    {
                        "number": 64,
                        "time": 232.71889749999963,
                        "value": 1
                    },
                    {
                        "number": 64,
                        "time": 239.19547209791628,
                        "value": 0
                    },
                    {
                        "number": 64,
                        "time": 239.28571787499962,
                        "value": 1
                    },
                    {
                        "number": 64,
                        "time": 239.6505412291663,
                        "value": 0
                    },
                    {
                        "number": 64,
                        "time": 239.72350589999962,
                        "value": 1
                    },
                    {
                        "number": 64,
                        "time": 240.11137072916628,
                        "value": 0
                    },
                    {
                        "number": 64,
                        "time": 240.19585613749962,
                        "value": 1
                    },
                    {
                        "number": 64,
                        "time": 240.55299899999963,
                        "value": 0
                    },
                    {
                        "number": 64,
                        "time": 241.04071022083298,
                        "value": 1
                    },
                    {
                        "number": 64,
                        "time": 241.96428934374964,
                        "value": 0
                    },
                    {
                        "number": 64,
                        "time": 243.77880549999963,
                        "value": 1
                    },
                    {
                        "number": 64,
                        "time": 247.4904030979163,
                        "value": 0
                    },
                    {
                        "number": 64,
                        "time": 247.58064887499964,
                        "value": 1
                    },
                    {
                        "number": 64,
                        "time": 247.9454722291663,
                        "value": 0
                    },
                    {
                        "number": 64,
                        "time": 248.01843689999964,
                        "value": 1
                    },
                    {
                        "number": 64,
                        "time": 248.4063017291663,
                        "value": 0
                    },
                    {
                        "number": 64,
                        "time": 248.49078713749964,
                        "value": 1
                    },
                    {
                        "number": 64,
                        "time": 248.84792999999965,
                        "value": 0
                    },
                    {
                        "number": 64,
                        "time": 249.335641220833,
                        "value": 1
                    },
                    {
                        "number": 64,
                        "time": 250.25922034374966,
                        "value": 0
                    },
                    {
                        "number": 64,
                        "time": 250.55683939583298,
                        "value": 1
                    },
                    {
                        "number": 64,
                        "time": 251.61866736874964,
                        "value": 0
                    },
                    {
                        "number": 64,
                        "time": 251.82988088958297,
                        "value": 1
                    },
                    {
                        "number": 64,
                        "time": 253.00115586874963,
                        "value": 0
                    },
                    {
                        "number": 64,
                        "time": 253.21236938958296,
                        "value": 1
                    },
                    {
                        "number": 64,
                        "time": 254.38364436874963,
                        "value": 0
                    },
                    {
                        "number": 64,
                        "time": 254.59485788958295,
                        "value": 1
                    },
                    {
                        "number": 64,
                        "time": 255.76613286874962,
                        "value": 0
                    },
                    {
                        "number": 64,
                        "time": 255.97734638958295,
                        "value": 1
                    },
                    {
                        "number": 64,
                        "time": 257.14286099999964,
                        "value": 0
                    },
                    {
                        "number": 64,
                        "time": 257.63057222083296,
                        "value": 1
                    },
                    {
                        "number": 64,
                        "time": 258.0933218437496,
                        "value": 0
                    },
                    {
                        "number": 64,
                        "time": 258.85177039583294,
                        "value": 1
                    },
                    {
                        "number": 64,
                        "time": 259.9135983687496,
                        "value": 0
                    },
                    {
                        "number": 64,
                        "time": 260.12481188958293,
                        "value": 1
                    },
                    {
                        "number": 64,
                        "time": 261.29608686874957,
                        "value": 0
                    },
                    {
                        "number": 64,
                        "time": 261.5073003895829,
                        "value": 1
                    },
                    {
                        "number": 64,
                        "time": 262.67857536874953,
                        "value": 0
                    },
                    {
                        "number": 64,
                        "time": 262.88978888958286,
                        "value": 1
                    },
                    {
                        "number": 64,
                        "time": 264.0610638687495,
                        "value": 0
                    },
                    {
                        "number": 64,
                        "time": 264.2722773895828,
                        "value": 1
                    },
                    {
                        "number": 64,
                        "time": 265.4377919999995,
                        "value": 0
                    },
                    {
                        "number": 64,
                        "time": 265.65476588958285,
                        "value": 1
                    },
                    {
                        "number": 64,
                        "time": 266.8606030812495,
                        "value": 0
                    },
                    {
                        "number": 64,
                        "time": 267.05069524999954,
                        "value": 1
                    },
                    {
                        "number": 64,
                        "time": 269.13402861458286,
                        "value": 0
                    },
                    {
                        "number": 64,
                        "time": 269.27419758749954,
                        "value": 1
                    },
                    {
                        "number": 64,
                        "time": 269.59677823749956,
                        "value": 0
                    },
                    {
                        "number": 64,
                        "time": 269.7388673333329,
                        "value": 1
                    },
                    {
                        "number": 64,
                        "time": 270.06528822916624,
                        "value": 0
                    },
                    {
                        "number": 64,
                        "time": 270.1670547437496,
                        "value": 1
                    },
                    {
                        "number": 64,
                        "time": 270.54339883541627,
                        "value": 0
                    },
                    {
                        "number": 64,
                        "time": 270.66052633333294,
                        "value": 1
                    },
                    {
                        "number": 64,
                        "time": 270.75653247916625,
                        "value": 0
                    },
                    {
                        "number": 64,
                        "time": 271.1117552187496,
                        "value": 1
                    },
                    {
                        "number": 64,
                        "time": 271.9028458604162,
                        "value": 0
                    },
                    {
                        "number": 64,
                        "time": 272.01037274374954,
                        "value": 1
                    },
                    {
                        "number": 64,
                        "time": 272.38287658958285,
                        "value": 0
                    },
                    {
                        "number": 64,
                        "time": 272.5364864229162,
                        "value": 1
                    },
                    {
                        "number": 64,
                        "time": 272.8398658437495,
                        "value": 0
                    },
                    {
                        "number": 64,
                        "time": 273.78264619583285,
                        "value": 1
                    },
                    {
                        "number": 64,
                        "time": 274.2127537291662,
                        "value": 0
                    },
                    {
                        "number": 64,
                        "time": 274.2991592604162,
                        "value": 1
                    },
                    {
                        "number": 64,
                        "time": 274.6755033520829,
                        "value": 0
                    },
                    {
                        "number": 64,
                        "time": 274.73694728541625,
                        "value": 1
                    },
                    {
                        "number": 64,
                        "time": 275.1420932208329,
                        "value": 0
                    },
                    {
                        "number": 64,
                        "time": 275.2476999812496,
                        "value": 1
                    },
                    {
                        "number": 64,
                        "time": 276.5073006145829,
                        "value": 0
                    },
                    {
                        "number": 64,
                        "time": 276.5649043020829,
                        "value": 1
                    },
                    {
                        "number": 64,
                        "time": 276.99309171249956,
                        "value": 0
                    },
                    {
                        "number": 64,
                        "time": 277.0794972437496,
                        "value": 1
                    },
                    {
                        "number": 64,
                        "time": 277.4347199833329,
                        "value": 0
                    },
                    {
                        "number": 64,
                        "time": 277.5192053916662,
                        "value": 1
                    },
                    {
                        "number": 64,
                        "time": 277.9185909583329,
                        "value": 0
                    },
                    {
                        "number": 64,
                        "time": 278.01267698124957,
                        "value": 1
                    },
                    {
                        "number": 64,
                        "time": 278.3678997208329,
                        "value": 0
                    },
                    {
                        "number": 64,
                        "time": 278.4946278333329,
                        "value": 1
                    },
                    {
                        "number": 64,
                        "time": 278.84985057291624,
                        "value": 0
                    },
                    {
                        "number": 64,
                        "time": 279.4162868333329,
                        "value": 1
                    },
                    {
                        "number": 64,
                        "time": 280.2227384583329,
                        "value": 0
                    },
                    {
                        "number": 64,
                        "time": 282.24846813541626,
                        "value": 1
                    },
                    {
                        "number": 64,
                        "time": 282.9781148437496,
                        "value": 0
                    },
                    {
                        "number": 64,
                        "time": 283.6309566354163,
                        "value": 1
                    },
                    {
                        "number": 64,
                        "time": 284.36060334374963,
                        "value": 0
                    },
                    {
                        "number": 64,
                        "time": 284.9904036604163,
                        "value": 1
                    },
                    {
                        "number": 64,
                        "time": 285.74693208958297,
                        "value": 0
                    },
                    {
                        "number": 64,
                        "time": 286.2634451541663,
                        "value": 1
                    },
                    {
                        "number": 64,
                        "time": 287.1313407124996,
                        "value": 0
                    },
                    {
                        "number": 64,
                        "time": 287.8437063145829,
                        "value": 1
                    },
                    {
                        "number": 64,
                        "time": 288.5119090895829,
                        "value": 0
                    },
                    {
                        "number": 64,
                        "time": 289.3356418208329,
                        "value": 1
                    },
                    {
                        "number": 64,
                        "time": 289.8886372208329,
                        "value": 0
                    },
                    {
                        "number": 64,
                        "time": 290.37826856458287,
                        "value": 1
                    },
                    {
                        "number": 64,
                        "time": 291.7607570645829,
                        "value": 0
                    },
                    {
                        "number": 64,
                        "time": 291.82604124374956,
                        "value": 1
                    },
                    {
                        "number": 64,
                        "time": 293.1086833520829,
                        "value": 0
                    },
                    {
                        "number": 64,
                        "time": 293.2200504812496,
                        "value": 1
                    },
                    {
                        "number": 64,
                        "time": 294.47005049999956,
                        "value": 0
                    },
                    {
                        "number": 64,
                        "time": 298.6405574749996,
                        "value": 1
                    },
                    {
                        "number": 64,
                        "time": 300.0172856062496,
                        "value": 0
                    },
                    {
                        "number": 64,
                        "time": 300.0595283104162,
                        "value": 1
                    },
                    {
                        "number": 64,
                        "time": 301.39977410624954,
                        "value": 0
                    },
                    {
                        "number": 64,
                        "time": 301.4477771791662,
                        "value": 1
                    },
                    {
                        "number": 64,
                        "time": 302.7649814999996,
                        "value": 0
                    },
                    {
                        "number": 64,
                        "time": 302.9473931770829,
                        "value": 1
                    },
                    {
                        "number": 64,
                        "time": 303.7039216062496,
                        "value": 0
                    },
                    {
                        "number": 64,
                        "time": 303.8133686124996,
                        "value": 1
                    },
                    {
                        "number": 64,
                        "time": 305.0806497374996,
                        "value": 0
                    },
                    {
                        "number": 64,
                        "time": 305.1843363749996,
                        "value": 1
                    },
                    {
                        "number": 64,
                        "time": 305.54339936041623,
                        "value": 0
                    },
                    {
                        "number": 64,
                        "time": 306.52266204791624,
                        "value": 1
                    },
                    {
                        "number": 64,
                        "time": 306.9124469999996,
                        "value": 0
                    },
                    {
                        "number": 64,
                        "time": 307.1044592916663,
                        "value": 1
                    },
                    {
                        "number": 64,
                        "time": 307.8513871062496,
                        "value": 0
                    },
                    {
                        "number": 64,
                        "time": 307.9608341124996,
                        "value": 1
                    },
                    {
                        "number": 64,
                        "time": 309.2281152374996,
                        "value": 0
                    },
                    {
                        "number": 64,
                        "time": 309.3318018749996,
                        "value": 1
                    },
                    {
                        "number": 64,
                        "time": 309.69086486041624,
                        "value": 0
                    },
                    {
                        "number": 64,
                        "time": 310.67012754791625,
                        "value": 1
                    },
                    {
                        "number": 64,
                        "time": 311.1002350812496,
                        "value": 0
                    },
                    {
                        "number": 64,
                        "time": 311.77419822499957,
                        "value": 1
                    },
                    {
                        "number": 64,
                        "time": 312.4769632124996,
                        "value": 0
                    },
                    {
                        "number": 64,
                        "time": 313.1125238979163,
                        "value": 1
                    },
                    {
                        "number": 64,
                        "time": 313.86137183541626,
                        "value": 0
                    },
                    {
                        "number": 64,
                        "time": 314.45084957083293,
                        "value": 1
                    },
                    {
                        "number": 64,
                        "time": 314.7753503437496,
                        "value": 0
                    },
                    {
                        "number": 64,
                        "time": 314.8559955062496,
                        "value": 1
                    },
                    {
                        "number": 64,
                        "time": 315.2073779999996,
                        "value": 0
                    },
                    {
                        "number": 64,
                        "time": 315.49347631458295,
                        "value": 1
                    },
                    {
                        "number": 64,
                        "time": 316.6109878520829,
                        "value": 0
                    },
                    {
                        "number": 64,
                        "time": 316.6685915395829,
                        "value": 1
                    },
                    {
                        "number": 64,
                        "time": 317.5364870979162,
                        "value": 0
                    }
                ]
            },
            "id": 3,
            "name": "Pedale",
            "instrumentNumber": 0,
            "instrument": "acoustic grand piano",
            "instrumentFamily": "piano",
            "channelNumber": 0,
            "isPercussion": false
        },
        {
            "startTime": 0,
            "duration": 0,
            "length": 0,
            "notes": [],
            "controlChanges": {},
            "id": 4,
            "name": "Beethoven: Grande Sonate Opus 22 - 2. movement"
        },
        {
            "startTime": 0,
            "duration": 0,
            "length": 0,
            "notes": [],
            "controlChanges": {},
            "id": 5,
            "name": "Copyright  2009 by Bernd Krueger"
        },
        {
            "startTime": 0,
            "duration": 0,
            "length": 0,
            "notes": [],
            "controlChanges": {},
            "id": 6,
            "name": "http://www.piano-midi.de/"
        },
        {
            "startTime": 0,
            "duration": 0,
            "length": 0,
            "notes": [],
            "controlChanges": {},
            "id": 7,
            "name": "Edition: 2012-05-28"
        },
        {
            "startTime": 0,
            "duration": 0,
            "length": 0,
            "notes": [],
            "controlChanges": {},
            "id": 8,
            "name": "Spur 8"
        },
        {
            "startTime": 0,
            "duration": 0,
            "length": 0,
            "notes": [],
            "controlChanges": {},
            "id": 9,
            "name": "Spur 9"
        },
        {
            "startTime": 0,
            "duration": 0,
            "length": 0,
            "notes": [],
            "controlChanges": {},
            "id": 10,
            "name": "Spur 10"
        },
        {
            "startTime": 0,
            "duration": 0,
            "length": 0,
            "notes": [],
            "controlChanges": {},
            "id": 11,
            "name": "Spur 11"
        },
        {
            "startTime": 0,
            "duration": 0,
            "length": 0,
            "notes": [],
            "controlChanges": {},
            "id": 12,
            "name": "Spur 12"
        },
        {
            "startTime": 0,
            "duration": 0,
            "length": 0,
            "notes": [],
            "controlChanges": {},
            "id": 13,
            "name": "Spur 13"
        },
        {
            "startTime": 0,
            "duration": 0,
            "length": 0,
            "notes": [],
            "controlChanges": {},
            "id": 14,
            "name": "Spur 14"
        },
        {
            "startTime": 0,
            "duration": 0,
            "length": 0,
            "notes": [],
            "controlChanges": {},
            "id": 15,
            "name": "Spur 15"
        },
        {
            "startTime": 0,
            "duration": 0,
            "length": 0,
            "notes": [],
            "controlChanges": {},
            "id": 16,
            "name": "Spur 16"
        }
    ]
}