{
    "header": {
        "PPQ": 480,
        "timeSignature": [
            4,
            8
        ],
        "bpm": 137.99987580011177,
        "name": "Hammerklaviersonate 1. Satz"
    },
    "startTime": 0,
    "duration": 461.73954600000076,
    "tracks": [
        {
            "startTime": 0,
            "duration": 0,
            "length": 0,
            "notes": [],
            "controlChanges": {},
            "id": 0,
            "name": "Hammerklaviersonate 1. Satz"
        },
        {
            "startTime": 1.1956532500000001,
            "duration": 461.73954599999627,
            "length": 4499,
            "notes": [
                {
                    "name": "D5",
                    "midi": 74,
                    "time": 1.1956532500000001,
                    "velocity": 0.6929133858267716,
                    "duration": 0.10869575000000009
                },
                {
                    "name": "F5",
                    "midi": 77,
                    "time": 1.1956532500000001,
                    "velocity": 0.6929133858267716,
                    "duration": 0.10869575000000009
                },
                {
                    "name": "A#5",
                    "midi": 82,
                    "time": 1.1956532500000001,
                    "velocity": 0.6929133858267716,
                    "duration": 0.10869575000000009
                },
                {
                    "name": "D6",
                    "midi": 86,
                    "time": 1.1956532500000001,
                    "velocity": 0.8267716535433071,
                    "duration": 0.10869575000000009
                },
                {
                    "name": "F5",
                    "midi": 77,
                    "time": 1.3043490000000002,
                    "velocity": 0.6220472440944882,
                    "duration": 0.16304362500000003
                },
                {
                    "name": "A#5",
                    "midi": 82,
                    "time": 1.3043490000000002,
                    "velocity": 0.6220472440944882,
                    "duration": 0.16304362500000003
                },
                {
                    "name": "D5",
                    "midi": 74,
                    "time": 1.3043490000000002,
                    "velocity": 0.6220472440944882,
                    "duration": 0.16304362500000003
                },
                {
                    "name": "D6",
                    "midi": 86,
                    "time": 1.3043490000000002,
                    "velocity": 0.7401574803149606,
                    "duration": 0.16304362500000003
                },
                {
                    "name": "D5",
                    "midi": 74,
                    "time": 1.5217405000000002,
                    "velocity": 0.6299212598425197,
                    "duration": 0.04076090625000006
                },
                {
                    "name": "D#6",
                    "midi": 87,
                    "time": 1.5217405000000002,
                    "velocity": 0.7874015748031497,
                    "duration": 0.04076090625000006
                },
                {
                    "name": "F5",
                    "midi": 77,
                    "time": 1.5217405000000002,
                    "velocity": 0.6299212598425197,
                    "duration": 0.04076090625000006
                },
                {
                    "name": "A#5",
                    "midi": 82,
                    "time": 1.5217405000000002,
                    "velocity": 0.6299212598425197,
                    "duration": 0.04076090625000006
                },
                {
                    "name": "D6",
                    "midi": 86,
                    "time": 1.6304362500000003,
                    "velocity": 0.7637795275590551,
                    "duration": 0.04076090625000006
                },
                {
                    "name": "D5",
                    "midi": 74,
                    "time": 1.6304362500000003,
                    "velocity": 0.6456692913385826,
                    "duration": 0.04076090625000006
                },
                {
                    "name": "A#5",
                    "midi": 82,
                    "time": 1.6304362500000003,
                    "velocity": 0.6456692913385826,
                    "duration": 0.04076090625000006
                },
                {
                    "name": "F5",
                    "midi": 77,
                    "time": 1.6304362500000003,
                    "velocity": 0.6456692913385826,
                    "duration": 0.04076090625000006
                },
                {
                    "name": "F5",
                    "midi": 77,
                    "time": 1.7391320000000003,
                    "velocity": 0.6929133858267716,
                    "duration": 0.10869575000000009
                },
                {
                    "name": "D5",
                    "midi": 74,
                    "time": 1.7391320000000003,
                    "velocity": 0.6929133858267716,
                    "duration": 0.10869575000000009
                },
                {
                    "name": "A#5",
                    "midi": 82,
                    "time": 1.7391320000000003,
                    "velocity": 0.6929133858267716,
                    "duration": 0.10869575000000009
                },
                {
                    "name": "D6",
                    "midi": 86,
                    "time": 1.7391320000000003,
                    "velocity": 0.8267716535433071,
                    "duration": 0.10869575000000009
                },
                {
                    "name": "D5",
                    "midi": 74,
                    "time": 1.9565235000000005,
                    "velocity": 0.6299212598425197,
                    "duration": 0.10869575000000009
                },
                {
                    "name": "A#4",
                    "midi": 70,
                    "time": 1.9565235000000005,
                    "velocity": 0.6299212598425197,
                    "duration": 0.10869575000000009
                },
                {
                    "name": "F5",
                    "midi": 77,
                    "time": 1.9565235000000005,
                    "velocity": 0.6299212598425197,
                    "duration": 0.10869575000000009
                },
                {
                    "name": "A#5",
                    "midi": 82,
                    "time": 1.9565235000000005,
                    "velocity": 0.7559055118110236,
                    "duration": 0.10869575000000009
                },
                {
                    "name": "A#5",
                    "midi": 82,
                    "time": 2.934785250000001,
                    "velocity": 0.6929133858267716,
                    "duration": 0.10869574999999987
                },
                {
                    "name": "D6",
                    "midi": 86,
                    "time": 2.934785250000001,
                    "velocity": 0.6929133858267716,
                    "duration": 0.10869574999999987
                },
                {
                    "name": "F5",
                    "midi": 77,
                    "time": 2.934785250000001,
                    "velocity": 0.6929133858267716,
                    "duration": 0.10869574999999987
                },
                {
                    "name": "F6",
                    "midi": 89,
                    "time": 2.934785250000001,
                    "velocity": 0.8267716535433071,
                    "duration": 0.10869574999999987
                },
                {
                    "name": "F5",
                    "midi": 77,
                    "time": 3.0434810000000008,
                    "velocity": 0.6220472440944882,
                    "duration": 0.16304362500000025
                },
                {
                    "name": "A#5",
                    "midi": 82,
                    "time": 3.0434810000000008,
                    "velocity": 0.6220472440944882,
                    "duration": 0.16304362500000025
                },
                {
                    "name": "D6",
                    "midi": 86,
                    "time": 3.0434810000000008,
                    "velocity": 0.6220472440944882,
                    "duration": 0.16304362500000025
                },
                {
                    "name": "F6",
                    "midi": 89,
                    "time": 3.0434810000000008,
                    "velocity": 0.7401574803149606,
                    "duration": 0.16304362500000025
                },
                {
                    "name": "A#5",
                    "midi": 82,
                    "time": 3.260872500000001,
                    "velocity": 0.6299212598425197,
                    "duration": 0.04076090625000006
                },
                {
                    "name": "D6",
                    "midi": 86,
                    "time": 3.260872500000001,
                    "velocity": 0.6299212598425197,
                    "duration": 0.04076090625000006
                },
                {
                    "name": "G6",
                    "midi": 91,
                    "time": 3.260872500000001,
                    "velocity": 0.7874015748031497,
                    "duration": 0.04076090625000006
                },
                {
                    "name": "F5",
                    "midi": 77,
                    "time": 3.260872500000001,
                    "velocity": 0.6299212598425197,
                    "duration": 0.04076090625000006
                },
                {
                    "name": "F5",
                    "midi": 77,
                    "time": 3.369568250000001,
                    "velocity": 0.6456692913385826,
                    "duration": 0.04076090625000006
                },
                {
                    "name": "A#5",
                    "midi": 82,
                    "time": 3.369568250000001,
                    "velocity": 0.6456692913385826,
                    "duration": 0.04076090625000006
                },
                {
                    "name": "F6",
                    "midi": 89,
                    "time": 3.369568250000001,
                    "velocity": 0.7637795275590551,
                    "duration": 0.04076090625000006
                },
                {
                    "name": "D6",
                    "midi": 86,
                    "time": 3.369568250000001,
                    "velocity": 0.6456692913385826,
                    "duration": 0.04076090625000006
                },
                {
                    "name": "F6",
                    "midi": 89,
                    "time": 3.4782640000000007,
                    "velocity": 0.8267716535433071,
                    "duration": 0.10869574999999987
                },
                {
                    "name": "F5",
                    "midi": 77,
                    "time": 3.4782640000000007,
                    "velocity": 0.6929133858267716,
                    "duration": 0.10869574999999987
                },
                {
                    "name": "A#5",
                    "midi": 82,
                    "time": 3.4782640000000007,
                    "velocity": 0.6929133858267716,
                    "duration": 0.10869574999999987
                },
                {
                    "name": "D6",
                    "midi": 86,
                    "time": 3.4782640000000007,
                    "velocity": 0.6929133858267716,
                    "duration": 0.10869574999999987
                },
                {
                    "name": "D5",
                    "midi": 74,
                    "time": 3.6956555000000004,
                    "velocity": 0.6299212598425197,
                    "duration": 0.10869574999999987
                },
                {
                    "name": "F5",
                    "midi": 77,
                    "time": 3.6956555000000004,
                    "velocity": 0.6299212598425197,
                    "duration": 0.10869574999999987
                },
                {
                    "name": "A#5",
                    "midi": 82,
                    "time": 3.6956555000000004,
                    "velocity": 0.6299212598425197,
                    "duration": 0.10869574999999987
                },
                {
                    "name": "D6",
                    "midi": 86,
                    "time": 3.6956555000000004,
                    "velocity": 0.7559055118110236,
                    "duration": 0.10869574999999987
                },
                {
                    "name": "A#4",
                    "midi": 70,
                    "time": 4.1304385,
                    "velocity": 0.3937007874015748,
                    "duration": 0.10869574999999987
                },
                {
                    "name": "C5",
                    "midi": 72,
                    "time": 4.23913425,
                    "velocity": 0.3543307086614173,
                    "duration": 0.10869574999999987
                },
                {
                    "name": "D5",
                    "midi": 74,
                    "time": 4.34783,
                    "velocity": 0.3937007874015748,
                    "duration": 0.4347829999999995
                },
                {
                    "name": "G4",
                    "midi": 67,
                    "time": 4.5652215,
                    "velocity": 0.30708661417322836,
                    "duration": 0.21739149999999974
                },
                {
                    "name": "A4",
                    "midi": 69,
                    "time": 4.782613,
                    "velocity": 0.25984251968503935,
                    "duration": 0.21739149999999974
                },
                {
                    "name": "C5",
                    "midi": 72,
                    "time": 4.782613,
                    "velocity": 0.30708661417322836,
                    "duration": 0.21739149999999974
                },
                {
                    "name": "G#4",
                    "midi": 68,
                    "time": 5.000004499999999,
                    "velocity": 0.33070866141732286,
                    "duration": 0.21739149999999974
                },
                {
                    "name": "C5",
                    "midi": 72,
                    "time": 5.000004499999999,
                    "velocity": 0.3937007874015748,
                    "duration": 0.10869574999999987
                },
                {
                    "name": "D5",
                    "midi": 74,
                    "time": 5.108700249999999,
                    "velocity": 0.36220472440944884,
                    "duration": 0.10869574999999987
                },
                {
                    "name": "D#5",
                    "midi": 75,
                    "time": 5.217395999999999,
                    "velocity": 0.4330708661417323,
                    "duration": 0.4347829999999995
                },
                {
                    "name": "G4",
                    "midi": 67,
                    "time": 5.217395999999999,
                    "velocity": 0.36220472440944884,
                    "duration": 0.21739149999999974
                },
                {
                    "name": "A4",
                    "midi": 69,
                    "time": 5.434787499999999,
                    "velocity": 0.3543307086614173,
                    "duration": 0.21739149999999974
                },
                {
                    "name": "A#4",
                    "midi": 70,
                    "time": 5.6521789999999985,
                    "velocity": 0.2992125984251969,
                    "duration": 0.21739149999999974
                },
                {
                    "name": "D5",
                    "midi": 74,
                    "time": 5.6521789999999985,
                    "velocity": 0.3543307086614173,
                    "duration": 0.21739149999999974
                },
                {
                    "name": "G4",
                    "midi": 67,
                    "time": 5.869570499999998,
                    "velocity": 0.30708661417322836,
                    "duration": 0.21739149999999974
                },
                {
                    "name": "D5",
                    "midi": 74,
                    "time": 5.869570499999998,
                    "velocity": 0.3700787401574803,
                    "duration": 0.10869574999999987
                },
                {
                    "name": "D#5",
                    "midi": 75,
                    "time": 5.978266249999998,
                    "velocity": 0.3937007874015748,
                    "duration": 0.10869574999999987
                },
                {
                    "name": "F4",
                    "midi": 65,
                    "time": 6.086961999999998,
                    "velocity": 0.3543307086614173,
                    "duration": 0.21739149999999974
                },
                {
                    "name": "F5",
                    "midi": 77,
                    "time": 6.086961999999998,
                    "velocity": 0.4251968503937008,
                    "duration": 0.3260872499999996
                },
                {
                    "name": "A#4",
                    "midi": 70,
                    "time": 6.304353499999998,
                    "velocity": 0.3543307086614173,
                    "duration": 0.21739149999999974
                },
                {
                    "name": "G5",
                    "midi": 79,
                    "time": 6.413049249999998,
                    "velocity": 0.4094488188976378,
                    "duration": 0.10869574999999987
                },
                {
                    "name": "G4",
                    "midi": 67,
                    "time": 6.5217449999999975,
                    "velocity": 0.33070866141732286,
                    "duration": 0.21739149999999974
                },
                {
                    "name": "F5",
                    "midi": 77,
                    "time": 6.5217449999999975,
                    "velocity": 0.3937007874015748,
                    "duration": 0.10869574999999987
                },
                {
                    "name": "D#5",
                    "midi": 75,
                    "time": 6.630440749999997,
                    "velocity": 0.33858267716535434,
                    "duration": 0.21739149999999974
                },
                {
                    "name": "A4",
                    "midi": 69,
                    "time": 6.739136499999997,
                    "velocity": 0.33858267716535434,
                    "duration": 0.21739149999999974
                },
                {
                    "name": "F5",
                    "midi": 77,
                    "time": 6.847832249999997,
                    "velocity": 0.3543307086614173,
                    "duration": 0.10869574999999987
                },
                {
                    "name": "A#4",
                    "midi": 70,
                    "time": 6.956527999999997,
                    "velocity": 0.2755905511811024,
                    "duration": 0.21739149999999974
                },
                {
                    "name": "F4",
                    "midi": 65,
                    "time": 6.956527999999997,
                    "velocity": 0.2755905511811024,
                    "duration": 0.21739149999999974
                },
                {
                    "name": "D#5",
                    "midi": 75,
                    "time": 6.956527999999997,
                    "velocity": 0.3858267716535433,
                    "duration": 0.10869574999999987
                },
                {
                    "name": "D5",
                    "midi": 74,
                    "time": 7.065223749999997,
                    "velocity": 0.3228346456692913,
                    "duration": 0.10869574999999987
                },
                {
                    "name": "C5",
                    "midi": 72,
                    "time": 7.173919499999997,
                    "velocity": 0.23622047244094488,
                    "duration": 0.21739149999999974
                },
                {
                    "name": "F5",
                    "midi": 77,
                    "time": 7.173919499999997,
                    "velocity": 0.33858267716535434,
                    "duration": 0.10869574999999987
                },
                {
                    "name": "G4",
                    "midi": 67,
                    "time": 7.173919499999997,
                    "velocity": 0.23622047244094488,
                    "duration": 0.21739149999999974
                },
                {
                    "name": "D#5",
                    "midi": 75,
                    "time": 7.2826152499999965,
                    "velocity": 0.29133858267716534,
                    "duration": 0.10869574999999987
                },
                {
                    "name": "A4",
                    "midi": 69,
                    "time": 7.391310999999996,
                    "velocity": 0.23622047244094488,
                    "duration": 0.21739149999999974
                },
                {
                    "name": "C5",
                    "midi": 72,
                    "time": 7.391310999999996,
                    "velocity": 0.2755905511811024,
                    "duration": 0.21739149999999974
                },
                {
                    "name": "A#5",
                    "midi": 82,
                    "time": 7.608702499999996,
                    "velocity": 0.3937007874015748,
                    "duration": 0.10869574999999987
                },
                {
                    "name": "C6",
                    "midi": 84,
                    "time": 7.717398249999996,
                    "velocity": 0.3543307086614173,
                    "duration": 0.10869574999999987
                },
                {
                    "name": "D6",
                    "midi": 86,
                    "time": 7.826093999999996,
                    "velocity": 0.3937007874015748,
                    "duration": 0.4347829999999995
                },
                {
                    "name": "G5",
                    "midi": 79,
                    "time": 8.043485499999996,
                    "velocity": 0.30708661417322836,
                    "duration": 0.21739149999999974
                },
                {
                    "name": "A5",
                    "midi": 81,
                    "time": 8.260876999999995,
                    "velocity": 0.25984251968503935,
                    "duration": 0.21739149999999974
                },
                {
                    "name": "C6",
                    "midi": 84,
                    "time": 8.260876999999995,
                    "velocity": 0.30708661417322836,
                    "duration": 0.21739149999999974
                },
                {
                    "name": "C6",
                    "midi": 84,
                    "time": 8.478268499999995,
                    "velocity": 0.3937007874015748,
                    "duration": 0.10869575000000076
                },
                {
                    "name": "G#5",
                    "midi": 80,
                    "time": 8.478268499999995,
                    "velocity": 0.33070866141732286,
                    "duration": 0.21739150000000151
                },
                {
                    "name": "D6",
                    "midi": 86,
                    "time": 8.586964249999996,
                    "velocity": 0.36220472440944884,
                    "duration": 0.10869575000000076
                },
                {
                    "name": "G5",
                    "midi": 79,
                    "time": 8.695659999999997,
                    "velocity": 0.36220472440944884,
                    "duration": 0.21739149999999974
                },
                {
                    "name": "D#6",
                    "midi": 87,
                    "time": 8.695659999999997,
                    "velocity": 0.4330708661417323,
                    "duration": 0.4347829999999995
                },
                {
                    "name": "A5",
                    "midi": 81,
                    "time": 8.913051499999996,
                    "velocity": 0.3543307086614173,
                    "duration": 0.21739149999999974
                },
                {
                    "name": "D6",
                    "midi": 86,
                    "time": 9.130442999999996,
                    "velocity": 0.3543307086614173,
                    "duration": 0.21739149999999974
                },
                {
                    "name": "A#5",
                    "midi": 82,
                    "time": 9.130442999999996,
                    "velocity": 0.2992125984251969,
                    "duration": 0.21739149999999974
                },
                {
                    "name": "G5",
                    "midi": 79,
                    "time": 9.347834499999996,
                    "velocity": 0.30708661417322836,
                    "duration": 0.21739150000000151
                },
                {
                    "name": "D6",
                    "midi": 86,
                    "time": 9.347834499999996,
                    "velocity": 0.4015748031496063,
                    "duration": 0.10869575000000076
                },
                {
                    "name": "D#6",
                    "midi": 87,
                    "time": 9.456530249999997,
                    "velocity": 0.4330708661417323,
                    "duration": 0.10869575000000076
                },
                {
                    "name": "F6",
                    "midi": 89,
                    "time": 9.565225999999997,
                    "velocity": 0.4645669291338583,
                    "duration": 0.3260872500000005
                },
                {
                    "name": "F5",
                    "midi": 77,
                    "time": 9.565225999999997,
                    "velocity": 0.3543307086614173,
                    "duration": 0.21739149999999974
                },
                {
                    "name": "A#5",
                    "midi": 82,
                    "time": 9.782617499999997,
                    "velocity": 0.3543307086614173,
                    "duration": 0.21739150000000151
                },
                {
                    "name": "G6",
                    "midi": 91,
                    "time": 9.891313249999998,
                    "velocity": 0.44881889763779526,
                    "duration": 0.10869575000000076
                },
                {
                    "name": "F6",
                    "midi": 89,
                    "time": 10.000008999999999,
                    "velocity": 0.4330708661417323,
                    "duration": 0.10869575000000076
                },
                {
                    "name": "G5",
                    "midi": 79,
                    "time": 10.000008999999999,
                    "velocity": 0.33070866141732286,
                    "duration": 0.21739150000000151
                },
                {
                    "name": "D#6",
                    "midi": 87,
                    "time": 10.10870475,
                    "velocity": 0.3700787401574803,
                    "duration": 0.21739150000000151
                },
                {
                    "name": "A5",
                    "midi": 81,
                    "time": 10.2174005,
                    "velocity": 0.33858267716535434,
                    "duration": 0.21739150000000151
                },
                {
                    "name": "F6",
                    "midi": 89,
                    "time": 10.32609625,
                    "velocity": 0.3937007874015748,
                    "duration": 0.10869575000000076
                },
                {
                    "name": "D#6",
                    "midi": 87,
                    "time": 10.434792000000002,
                    "velocity": 0.44881889763779526,
                    "duration": 0.10869575000000076
                },
                {
                    "name": "F5",
                    "midi": 77,
                    "time": 10.434792000000002,
                    "velocity": 0.3464566929133858,
                    "duration": 0.21739150000000151
                },
                {
                    "name": "D6",
                    "midi": 86,
                    "time": 10.543487750000002,
                    "velocity": 0.3858267716535433,
                    "duration": 0.21739150000000151
                },
                {
                    "name": "A#5",
                    "midi": 82,
                    "time": 10.652183500000003,
                    "velocity": 0.36220472440944884,
                    "duration": 0.43478300000000303
                },
                {
                    "name": "D#6",
                    "midi": 87,
                    "time": 10.760879250000004,
                    "velocity": 0.41732283464566927,
                    "duration": 0.10869575000000076
                },
                {
                    "name": "D6",
                    "midi": 86,
                    "time": 10.869575000000005,
                    "velocity": 0.47244094488188976,
                    "duration": 0.10869575000000076
                },
                {
                    "name": "C6",
                    "midi": 84,
                    "time": 10.978270750000005,
                    "velocity": 0.3858267716535433,
                    "duration": 0.10869575000000076
                },
                {
                    "name": "D6",
                    "midi": 86,
                    "time": 11.086966500000006,
                    "velocity": 0.4330708661417323,
                    "duration": 0.10869575000000076
                },
                {
                    "name": "A5",
                    "midi": 81,
                    "time": 11.086966500000006,
                    "velocity": 0.3700787401574803,
                    "duration": 0.21739150000000151
                },
                {
                    "name": "F5",
                    "midi": 77,
                    "time": 11.086966500000006,
                    "velocity": 0.3700787401574803,
                    "duration": 0.21739150000000151
                },
                {
                    "name": "D#6",
                    "midi": 87,
                    "time": 11.195662250000007,
                    "velocity": 0.4015748031496063,
                    "duration": 0.10869575000000076
                },
                {
                    "name": "F5",
                    "midi": 77,
                    "time": 11.304358000000008,
                    "velocity": 0.4094488188976378,
                    "duration": 0.21739150000000151
                },
                {
                    "name": "G6",
                    "midi": 91,
                    "time": 11.304358000000008,
                    "velocity": 0.5275590551181102,
                    "duration": 0.10869575000000076
                },
                {
                    "name": "A#5",
                    "midi": 82,
                    "time": 11.304358000000008,
                    "velocity": 0.4094488188976378,
                    "duration": 0.21739150000000151
                },
                {
                    "name": "F6",
                    "midi": 89,
                    "time": 11.413053750000008,
                    "velocity": 0.41732283464566927,
                    "duration": 0.10869575000000076
                },
                {
                    "name": "G6",
                    "midi": 91,
                    "time": 11.52174950000001,
                    "velocity": 0.4566929133858268,
                    "duration": 0.10869575000000076
                },
                {
                    "name": "A#5",
                    "midi": 82,
                    "time": 11.52174950000001,
                    "velocity": 0.3228346456692913,
                    "duration": 0.21739150000000151
                },
                {
                    "name": "F6",
                    "midi": 89,
                    "time": 11.63044525000001,
                    "velocity": 0.4645669291338583,
                    "duration": 0.10869575000000076
                },
                {
                    "name": "F6",
                    "midi": 89,
                    "time": 11.73914100000001,
                    "velocity": 0.5433070866141733,
                    "duration": 0.10869575000000076
                },
                {
                    "name": "G5",
                    "midi": 79,
                    "time": 11.73914100000001,
                    "velocity": 0.41732283464566927,
                    "duration": 0.21739150000000151
                },
                {
                    "name": "D#6",
                    "midi": 87,
                    "time": 11.847836750000011,
                    "velocity": 0.4330708661417323,
                    "duration": 0.10869575000000076
                },
                {
                    "name": "A5",
                    "midi": 81,
                    "time": 11.956532500000012,
                    "velocity": 0.33858267716535434,
                    "duration": 0.21739150000000151
                },
                {
                    "name": "F6",
                    "midi": 89,
                    "time": 11.956532500000012,
                    "velocity": 0.48031496062992124,
                    "duration": 0.10869575000000076
                },
                {
                    "name": "D#6",
                    "midi": 87,
                    "time": 12.065228250000013,
                    "velocity": 0.4409448818897638,
                    "duration": 0.10869575000000076
                },
                {
                    "name": "D#6",
                    "midi": 87,
                    "time": 12.173924000000014,
                    "velocity": 0.5826771653543307,
                    "duration": 0.10869575000000076
                },
                {
                    "name": "F5",
                    "midi": 77,
                    "time": 12.173924000000014,
                    "velocity": 0.44881889763779526,
                    "duration": 0.21739150000000151
                },
                {
                    "name": "D6",
                    "midi": 86,
                    "time": 12.282619750000014,
                    "velocity": 0.44881889763779526,
                    "duration": 0.10869575000000076
                },
                {
                    "name": "D#6",
                    "midi": 87,
                    "time": 12.391315500000015,
                    "velocity": 0.49606299212598426,
                    "duration": 0.10869575000000076
                },
                {
                    "name": "A#5",
                    "midi": 82,
                    "time": 12.391315500000015,
                    "velocity": 0.3543307086614173,
                    "duration": 0.43478300000000303
                },
                {
                    "name": "D6",
                    "midi": 86,
                    "time": 12.500011250000016,
                    "velocity": 0.4566929133858268,
                    "duration": 0.10597835625000052
                },
                {
                    "name": "D6",
                    "midi": 86,
                    "time": 12.608707000000017,
                    "velocity": 0.5905511811023622,
                    "duration": 0.10869575000000076
                },
                {
                    "name": "C6",
                    "midi": 84,
                    "time": 12.717402750000018,
                    "velocity": 0.48031496062992124,
                    "duration": 0.10869575000000076
                },
                {
                    "name": "D6",
                    "midi": 86,
                    "time": 12.826098500000018,
                    "velocity": 0.5275590551181102,
                    "duration": 0.10869575000000076
                },
                {
                    "name": "F5",
                    "midi": 77,
                    "time": 12.826098500000018,
                    "velocity": 0.3700787401574803,
                    "duration": 0.21739150000000151
                },
                {
                    "name": "A5",
                    "midi": 81,
                    "time": 12.826098500000018,
                    "velocity": 0.3700787401574803,
                    "duration": 0.21739150000000151
                },
                {
                    "name": "D#6",
                    "midi": 87,
                    "time": 12.934794250000019,
                    "velocity": 0.5511811023622047,
                    "duration": 0.10869575000000076
                },
                {
                    "name": "G6",
                    "midi": 91,
                    "time": 13.04349000000002,
                    "velocity": 0.5433070866141733,
                    "duration": 0.10869575000000076
                },
                {
                    "name": "F5",
                    "midi": 77,
                    "time": 13.04349000000002,
                    "velocity": 0.4566929133858268,
                    "duration": 0.21739150000000151
                },
                {
                    "name": "A#5",
                    "midi": 82,
                    "time": 13.04349000000002,
                    "velocity": 0.4566929133858268,
                    "duration": 0.21739150000000151
                },
                {
                    "name": "F6",
                    "midi": 89,
                    "time": 13.15218575000002,
                    "velocity": 0.5511811023622047,
                    "duration": 0.10869575000000076
                },
                {
                    "name": "A#5",
                    "midi": 82,
                    "time": 13.260881500000021,
                    "velocity": 0.47244094488188976,
                    "duration": 0.21739150000000151
                },
                {
                    "name": "E6",
                    "midi": 88,
                    "time": 13.260881500000021,
                    "velocity": 0.5984251968503937,
                    "duration": 0.21739150000000151
                },
                {
                    "name": "G6",
                    "midi": 91,
                    "time": 13.369577250000022,
                    "velocity": 0.5669291338582677,
                    "duration": 0.21739150000000151
                },
                {
                    "name": "D#6",
                    "midi": 87,
                    "time": 13.478273000000023,
                    "velocity": 0.5275590551181102,
                    "duration": 0.21739150000000151
                },
                {
                    "name": "G#6",
                    "midi": 92,
                    "time": 13.586968750000024,
                    "velocity": 0.5826771653543307,
                    "duration": 0.21739150000000151
                },
                {
                    "name": "C6",
                    "midi": 84,
                    "time": 13.695664500000024,
                    "velocity": 0.5039370078740157,
                    "duration": 0.21739150000000151
                },
                {
                    "name": "D#6",
                    "midi": 87,
                    "time": 13.695664500000024,
                    "velocity": 0.5984251968503937,
                    "duration": 0.21739150000000151
                },
                {
                    "name": "A6",
                    "midi": 93,
                    "time": 13.804360250000025,
                    "velocity": 0.6062992125984252,
                    "duration": 0.10869575000000076
                },
                {
                    "name": "A#5",
                    "midi": 82,
                    "time": 13.913056000000026,
                    "velocity": 0.5748031496062992,
                    "duration": 0.21739150000000151
                },
                {
                    "name": "C7",
                    "midi": 96,
                    "time": 13.913056000000026,
                    "velocity": 0.6771653543307087,
                    "duration": 0.10869575000000076
                },
                {
                    "name": "D6",
                    "midi": 86,
                    "time": 13.913056000000026,
                    "velocity": 0.5748031496062992,
                    "duration": 0.21739150000000151
                },
                {
                    "name": "A#6",
                    "midi": 94,
                    "time": 14.021751750000027,
                    "velocity": 0.5669291338582677,
                    "duration": 0.10869575000000076
                },
                {
                    "name": "A#5",
                    "midi": 82,
                    "time": 14.130447500000027,
                    "velocity": 0.5590551181102362,
                    "duration": 0.21739150000000151
                },
                {
                    "name": "A6",
                    "midi": 93,
                    "time": 14.130447500000027,
                    "velocity": 0.6614173228346457,
                    "duration": 0.10869575000000076
                },
                {
                    "name": "D#6",
                    "midi": 87,
                    "time": 14.130447500000027,
                    "velocity": 0.5590551181102362,
                    "duration": 0.21739150000000151
                },
                {
                    "name": "G6",
                    "midi": 91,
                    "time": 14.239143250000028,
                    "velocity": 0.5826771653543307,
                    "duration": 0.10869575000000076
                },
                {
                    "name": "F6",
                    "midi": 89,
                    "time": 14.347839000000029,
                    "velocity": 0.6771653543307087,
                    "duration": 0.10869575000000076
                },
                {
                    "name": "D6",
                    "midi": 86,
                    "time": 14.347839000000029,
                    "velocity": 0.5669291338582677,
                    "duration": 0.10869575000000076
                },
                {
                    "name": "A#5",
                    "midi": 82,
                    "time": 14.347839000000029,
                    "velocity": 0.5669291338582677,
                    "duration": 0.10869575000000076
                },
                {
                    "name": "F6",
                    "midi": 89,
                    "time": 14.56523050000003,
                    "velocity": 0.6299212598425197,
                    "duration": 0.10869575000000076
                },
                {
                    "name": "A6",
                    "midi": 93,
                    "time": 14.56523050000003,
                    "velocity": 0.6299212598425197,
                    "duration": 0.10869575000000076
                },
                {
                    "name": "C6",
                    "midi": 84,
                    "time": 14.56523050000003,
                    "velocity": 0.5275590551181102,
                    "duration": 0.10869575000000076
                },
                {
                    "name": "A5",
                    "midi": 81,
                    "time": 14.56523050000003,
                    "velocity": 0.5275590551181102,
                    "duration": 0.10869575000000076
                },
                {
                    "name": "A#5",
                    "midi": 82,
                    "time": 14.782622000000032,
                    "velocity": 0.6692913385826772,
                    "duration": 0.4347829999999995
                },
                {
                    "name": "F6",
                    "midi": 89,
                    "time": 14.782622000000032,
                    "velocity": 0.6692913385826772,
                    "duration": 0.4347829999999995
                },
                {
                    "name": "D6",
                    "midi": 86,
                    "time": 14.782622000000032,
                    "velocity": 0.6692913385826772,
                    "duration": 0.4347829999999995
                },
                {
                    "name": "A#6",
                    "midi": 94,
                    "time": 14.782622000000032,
                    "velocity": 0.7952755905511811,
                    "duration": 0.4347829999999995
                },
                {
                    "name": "A#4",
                    "midi": 70,
                    "time": 15.217405000000031,
                    "velocity": 0.49606299212598426,
                    "duration": 0.4347829999999995
                },
                {
                    "name": "A#5",
                    "midi": 82,
                    "time": 15.217405000000031,
                    "velocity": 0.5905511811023622,
                    "duration": 0.4347829999999995
                },
                {
                    "name": "D5",
                    "midi": 74,
                    "time": 15.217405000000031,
                    "velocity": 0.49606299212598426,
                    "duration": 0.4347829999999995
                },
                {
                    "name": "F5",
                    "midi": 77,
                    "time": 15.65218800000003,
                    "velocity": 0.3937007874015748,
                    "duration": 0.05434787499999949
                },
                {
                    "name": "D6",
                    "midi": 86,
                    "time": 15.65218800000003,
                    "velocity": 0.4645669291338583,
                    "duration": 0.05434787499999949
                },
                {
                    "name": "D5",
                    "midi": 74,
                    "time": 15.65218800000003,
                    "velocity": 0.3937007874015748,
                    "duration": 0.05434787499999949
                },
                {
                    "name": "A#5",
                    "midi": 82,
                    "time": 15.86957950000003,
                    "velocity": 0.48031496062992124,
                    "duration": 0.05434787499999949
                },
                {
                    "name": "D5",
                    "midi": 74,
                    "time": 15.86957950000003,
                    "velocity": 0.4015748031496063,
                    "duration": 0.05434787499999949
                },
                {
                    "name": "A#4",
                    "midi": 70,
                    "time": 15.86957950000003,
                    "velocity": 0.4015748031496063,
                    "duration": 0.05434787499999949
                },
                {
                    "name": "D5",
                    "midi": 74,
                    "time": 16.08697100000003,
                    "velocity": 0.4015748031496063,
                    "duration": 0.05434787500000127
                },
                {
                    "name": "F5",
                    "midi": 77,
                    "time": 16.08697100000003,
                    "velocity": 0.4015748031496063,
                    "duration": 0.05434787500000127
                },
                {
                    "name": "D6",
                    "midi": 86,
                    "time": 16.08697100000003,
                    "velocity": 0.48031496062992124,
                    "duration": 0.05434787500000127
                },
                {
                    "name": "C5",
                    "midi": 72,
                    "time": 16.304362500000032,
                    "velocity": 0.4015748031496063,
                    "duration": 0.05434787500000127
                },
                {
                    "name": "D#5",
                    "midi": 75,
                    "time": 16.304362500000032,
                    "velocity": 0.4015748031496063,
                    "duration": 0.05434787500000127
                },
                {
                    "name": "C6",
                    "midi": 84,
                    "time": 16.304362500000032,
                    "velocity": 0.48031496062992124,
                    "duration": 0.05434787500000127
                },
                {
                    "name": "D#6",
                    "midi": 87,
                    "time": 16.521754000000033,
                    "velocity": 0.9133858267716536,
                    "duration": 0.4347829999999995
                },
                {
                    "name": "G5",
                    "midi": 79,
                    "time": 16.521754000000033,
                    "velocity": 0.7637795275590551,
                    "duration": 0.4347829999999995
                },
                {
                    "name": "D#5",
                    "midi": 75,
                    "time": 16.521754000000033,
                    "velocity": 0.7637795275590551,
                    "duration": 0.4347829999999995
                },
                {
                    "name": "C6",
                    "midi": 84,
                    "time": 16.956537000000033,
                    "velocity": 0.5905511811023622,
                    "duration": 0.4347829999999995
                },
                {
                    "name": "D#5",
                    "midi": 75,
                    "time": 16.956537000000033,
                    "velocity": 0.49606299212598426,
                    "duration": 0.4347829999999995
                },
                {
                    "name": "C5",
                    "midi": 72,
                    "time": 16.956537000000033,
                    "velocity": 0.49606299212598426,
                    "duration": 0.4347829999999995
                },
                {
                    "name": "D#6",
                    "midi": 87,
                    "time": 17.391320000000032,
                    "velocity": 0.4645669291338583,
                    "duration": 0.05434787500000127
                },
                {
                    "name": "D#5",
                    "midi": 75,
                    "time": 17.391320000000032,
                    "velocity": 0.3937007874015748,
                    "duration": 0.05434787500000127
                },
                {
                    "name": "G5",
                    "midi": 79,
                    "time": 17.391320000000032,
                    "velocity": 0.3937007874015748,
                    "duration": 0.05434787500000127
                },
                {
                    "name": "C#5",
                    "midi": 73,
                    "time": 17.608711500000034,
                    "velocity": 0.4015748031496063,
                    "duration": 0.05434787500000127
                },
                {
                    "name": "E5",
                    "midi": 76,
                    "time": 17.608711500000034,
                    "velocity": 0.4015748031496063,
                    "duration": 0.05434787500000127
                },
                {
                    "name": "C#6",
                    "midi": 85,
                    "time": 17.608711500000034,
                    "velocity": 0.48031496062992124,
                    "duration": 0.05434787500000127
                },
                {
                    "name": "F#5",
                    "midi": 78,
                    "time": 17.826103000000035,
                    "velocity": 0.4015748031496063,
                    "duration": 0.05434787500000127
                },
                {
                    "name": "D#6",
                    "midi": 87,
                    "time": 17.826103000000035,
                    "velocity": 0.48031496062992124,
                    "duration": 0.05434787500000127
                },
                {
                    "name": "D#5",
                    "midi": 75,
                    "time": 17.826103000000035,
                    "velocity": 0.4015748031496063,
                    "duration": 0.05434787500000127
                },
                {
                    "name": "F5",
                    "midi": 77,
                    "time": 18.043494500000037,
                    "velocity": 0.4015748031496063,
                    "duration": 0.05434787500000127
                },
                {
                    "name": "D5",
                    "midi": 74,
                    "time": 18.043494500000037,
                    "velocity": 0.4015748031496063,
                    "duration": 0.05434787500000127
                },
                {
                    "name": "D6",
                    "midi": 86,
                    "time": 18.043494500000037,
                    "velocity": 0.48031496062992124,
                    "duration": 0.05434787500000127
                },
                {
                    "name": "F6",
                    "midi": 89,
                    "time": 18.26088600000004,
                    "velocity": 0.8740157480314961,
                    "duration": 0.4347829999999995
                },
                {
                    "name": "G#5",
                    "midi": 80,
                    "time": 18.26088600000004,
                    "velocity": 0.7322834645669292,
                    "duration": 0.4347829999999995
                },
                {
                    "name": "F5",
                    "midi": 77,
                    "time": 18.26088600000004,
                    "velocity": 0.7322834645669292,
                    "duration": 0.4347829999999995
                },
                {
                    "name": "D6",
                    "midi": 86,
                    "time": 18.695669000000038,
                    "velocity": 0.5905511811023622,
                    "duration": 0.4347829999999995
                },
                {
                    "name": "D5",
                    "midi": 74,
                    "time": 18.695669000000038,
                    "velocity": 0.49606299212598426,
                    "duration": 0.4347829999999995
                },
                {
                    "name": "F5",
                    "midi": 77,
                    "time": 18.695669000000038,
                    "velocity": 0.49606299212598426,
                    "duration": 0.4347829999999995
                },
                {
                    "name": "G#5",
                    "midi": 80,
                    "time": 19.130452000000037,
                    "velocity": 0.3937007874015748,
                    "duration": 0.05434787500000127
                },
                {
                    "name": "F5",
                    "midi": 77,
                    "time": 19.130452000000037,
                    "velocity": 0.3937007874015748,
                    "duration": 0.05434787500000127
                },
                {
                    "name": "F6",
                    "midi": 89,
                    "time": 19.130452000000037,
                    "velocity": 0.4645669291338583,
                    "duration": 0.05434787500000127
                },
                {
                    "name": "D5",
                    "midi": 74,
                    "time": 19.34784350000004,
                    "velocity": 0.4015748031496063,
                    "duration": 0.05434787500000127
                },
                {
                    "name": "F#5",
                    "midi": 78,
                    "time": 19.34784350000004,
                    "velocity": 0.4015748031496063,
                    "duration": 0.05434787500000127
                },
                {
                    "name": "D6",
                    "midi": 86,
                    "time": 19.34784350000004,
                    "velocity": 0.48031496062992124,
                    "duration": 0.05434787500000127
                },
                {
                    "name": "G#5",
                    "midi": 80,
                    "time": 19.56523500000004,
                    "velocity": 0.4015748031496063,
                    "duration": 0.05434787500000127
                },
                {
                    "name": "F6",
                    "midi": 89,
                    "time": 19.56523500000004,
                    "velocity": 0.48031496062992124,
                    "duration": 0.05434787500000127
                },
                {
                    "name": "F5",
                    "midi": 77,
                    "time": 19.56523500000004,
                    "velocity": 0.4015748031496063,
                    "duration": 0.05434787500000127
                },
                {
                    "name": "G5",
                    "midi": 79,
                    "time": 19.782626500000042,
                    "velocity": 0.4015748031496063,
                    "duration": 0.05434787500000127
                },
                {
                    "name": "D#5",
                    "midi": 75,
                    "time": 19.782626500000042,
                    "velocity": 0.4015748031496063,
                    "duration": 0.05434787500000127
                },
                {
                    "name": "D#6",
                    "midi": 87,
                    "time": 19.782626500000042,
                    "velocity": 0.48031496062992124,
                    "duration": 0.05434787500000127
                },
                {
                    "name": "G6",
                    "midi": 91,
                    "time": 20.000018000000043,
                    "velocity": 0.8740157480314961,
                    "duration": 0.4347829999999995
                },
                {
                    "name": "G5",
                    "midi": 79,
                    "time": 20.000018000000043,
                    "velocity": 0.7322834645669292,
                    "duration": 0.4347829999999995
                },
                {
                    "name": "A#5",
                    "midi": 82,
                    "time": 20.000018000000043,
                    "velocity": 0.7322834645669292,
                    "duration": 0.4347829999999995
                },
                {
                    "name": "D#6",
                    "midi": 87,
                    "time": 20.434801000000043,
                    "velocity": 0.5905511811023622,
                    "duration": 0.4347829999999995
                },
                {
                    "name": "G5",
                    "midi": 79,
                    "time": 20.434801000000043,
                    "velocity": 0.49606299212598426,
                    "duration": 0.4347829999999995
                },
                {
                    "name": "D#5",
                    "midi": 75,
                    "time": 20.434801000000043,
                    "velocity": 0.49606299212598426,
                    "duration": 0.4347829999999995
                },
                {
                    "name": "A#5",
                    "midi": 82,
                    "time": 20.434801000000043,
                    "velocity": 0.49606299212598426,
                    "duration": 0.4347829999999995
                },
                {
                    "name": "G5",
                    "midi": 79,
                    "time": 20.869584000000042,
                    "velocity": 0.3937007874015748,
                    "duration": 0.05434787500000127
                },
                {
                    "name": "G6",
                    "midi": 91,
                    "time": 20.869584000000042,
                    "velocity": 0.4645669291338583,
                    "duration": 0.05434787500000127
                },
                {
                    "name": "A#5",
                    "midi": 82,
                    "time": 20.869584000000042,
                    "velocity": 0.3937007874015748,
                    "duration": 0.05434787500000127
                },
                {
                    "name": "E5",
                    "midi": 76,
                    "time": 21.086975500000044,
                    "velocity": 0.4015748031496063,
                    "duration": 0.05434787500000127
                },
                {
                    "name": "A#5",
                    "midi": 82,
                    "time": 21.086975500000044,
                    "velocity": 0.4015748031496063,
                    "duration": 0.05434787500000127
                },
                {
                    "name": "E6",
                    "midi": 88,
                    "time": 21.086975500000044,
                    "velocity": 0.48031496062992124,
                    "duration": 0.05434787500000127
                },
                {
                    "name": "A#5",
                    "midi": 82,
                    "time": 21.304367000000045,
                    "velocity": 0.4409448818897638,
                    "duration": 0.05434787500000127
                },
                {
                    "name": "F#5",
                    "midi": 78,
                    "time": 21.304367000000045,
                    "velocity": 0.4409448818897638,
                    "duration": 0.05434787500000127
                },
                {
                    "name": "F#6",
                    "midi": 90,
                    "time": 21.304367000000045,
                    "velocity": 0.5275590551181102,
                    "duration": 0.05434787500000127
                },
                {
                    "name": "F6",
                    "midi": 89,
                    "time": 21.521758500000047,
                    "velocity": 0.5433070866141733,
                    "duration": 0.05434787500000127
                },
                {
                    "name": "A#5",
                    "midi": 82,
                    "time": 21.521758500000047,
                    "velocity": 0.4566929133858268,
                    "duration": 0.05434787500000127
                },
                {
                    "name": "F5",
                    "midi": 77,
                    "time": 21.521758500000047,
                    "velocity": 0.4566929133858268,
                    "duration": 0.05434787500000127
                },
                {
                    "name": "G#6",
                    "midi": 92,
                    "time": 21.73915000000005,
                    "velocity": 0.5433070866141733,
                    "duration": 0.05434787500000127
                },
                {
                    "name": "A#5",
                    "midi": 82,
                    "time": 21.73915000000005,
                    "velocity": 0.4645669291338583,
                    "duration": 0.05434787500000127
                },
                {
                    "name": "G#5",
                    "midi": 80,
                    "time": 21.73915000000005,
                    "velocity": 0.4645669291338583,
                    "duration": 0.05434787500000127
                },
                {
                    "name": "F#5",
                    "midi": 78,
                    "time": 21.95654150000005,
                    "velocity": 0.4881889763779528,
                    "duration": 0.05434787500000127
                },
                {
                    "name": "F#6",
                    "midi": 90,
                    "time": 21.95654150000005,
                    "velocity": 0.5826771653543307,
                    "duration": 0.05434787500000127
                },
                {
                    "name": "A#5",
                    "midi": 82,
                    "time": 21.95654150000005,
                    "velocity": 0.4881889763779528,
                    "duration": 0.05434787500000127
                },
                {
                    "name": "G#6",
                    "midi": 92,
                    "time": 22.17393300000005,
                    "velocity": 0.5984251968503937,
                    "duration": 0.05434787500000127
                },
                {
                    "name": "A#5",
                    "midi": 82,
                    "time": 22.17393300000005,
                    "velocity": 0.5039370078740157,
                    "duration": 0.05434787500000127
                },
                {
                    "name": "G#5",
                    "midi": 80,
                    "time": 22.17393300000005,
                    "velocity": 0.5039370078740157,
                    "duration": 0.05434787500000127
                },
                {
                    "name": "A#5",
                    "midi": 82,
                    "time": 22.391324500000053,
                    "velocity": 0.5196850393700787,
                    "duration": 0.05434787500000127
                },
                {
                    "name": "G6",
                    "midi": 91,
                    "time": 22.391324500000053,
                    "velocity": 0.6220472440944882,
                    "duration": 0.05434787500000127
                },
                {
                    "name": "G5",
                    "midi": 79,
                    "time": 22.391324500000053,
                    "velocity": 0.5196850393700787,
                    "duration": 0.05434787500000127
                },
                {
                    "name": "A#5",
                    "midi": 82,
                    "time": 22.608716000000054,
                    "velocity": 0.5275590551181102,
                    "duration": 0.05434787500000127
                },
                {
                    "name": "D#6",
                    "midi": 87,
                    "time": 22.608716000000054,
                    "velocity": 0.5275590551181102,
                    "duration": 0.05434787500000127
                },
                {
                    "name": "A#6",
                    "midi": 94,
                    "time": 22.608716000000054,
                    "velocity": 0.6220472440944882,
                    "duration": 0.05434787500000127
                },
                {
                    "name": "G6",
                    "midi": 91,
                    "time": 22.608716000000054,
                    "velocity": 0.5275590551181102,
                    "duration": 0.05434787500000127
                },
                {
                    "name": "G#5",
                    "midi": 80,
                    "time": 22.826107500000056,
                    "velocity": 0.5511811023622047,
                    "duration": 0.05434787500000127
                },
                {
                    "name": "G#6",
                    "midi": 92,
                    "time": 22.826107500000056,
                    "velocity": 0.6614173228346457,
                    "duration": 0.05434787500000127
                },
                {
                    "name": "A#5",
                    "midi": 82,
                    "time": 23.043499000000057,
                    "velocity": 0.5669291338582677,
                    "duration": 0.05434787500000127
                },
                {
                    "name": "A#6",
                    "midi": 94,
                    "time": 23.043499000000057,
                    "velocity": 0.6771653543307087,
                    "duration": 0.05434787500000127
                },
                {
                    "name": "A6",
                    "midi": 93,
                    "time": 23.26089050000006,
                    "velocity": 0.7007874015748031,
                    "duration": 0.05434787500000127
                },
                {
                    "name": "A5",
                    "midi": 81,
                    "time": 23.26089050000006,
                    "velocity": 0.5826771653543307,
                    "duration": 0.05434787500000127
                },
                {
                    "name": "C6",
                    "midi": 84,
                    "time": 23.47828200000006,
                    "velocity": 0.6614173228346457,
                    "duration": 0.10869574999999898
                },
                {
                    "name": "C7",
                    "midi": 96,
                    "time": 23.47828200000006,
                    "velocity": 0.7795275590551181,
                    "duration": 0.10869574999999898
                },
                {
                    "name": "A#5",
                    "midi": 82,
                    "time": 23.69567350000006,
                    "velocity": 0.5826771653543307,
                    "duration": 0.10869574999999898
                },
                {
                    "name": "A#6",
                    "midi": 94,
                    "time": 23.69567350000006,
                    "velocity": 0.6929133858267716,
                    "duration": 0.10869574999999898
                },
                {
                    "name": "G5",
                    "midi": 79,
                    "time": 23.913065000000056,
                    "velocity": 0.6456692913385826,
                    "duration": 0.10869574999999898
                },
                {
                    "name": "G6",
                    "midi": 91,
                    "time": 23.913065000000056,
                    "velocity": 0.7637795275590551,
                    "duration": 0.10869574999999898
                },
                {
                    "name": "F6",
                    "midi": 89,
                    "time": 24.130456500000054,
                    "velocity": 0.7086614173228346,
                    "duration": 0.10869574999999898
                },
                {
                    "name": "F5",
                    "midi": 77,
                    "time": 24.130456500000054,
                    "velocity": 0.5984251968503937,
                    "duration": 0.10869574999999898
                },
                {
                    "name": "D#6",
                    "midi": 87,
                    "time": 24.347848000000052,
                    "velocity": 0.7637795275590551,
                    "duration": 0.10869574999999898
                },
                {
                    "name": "D#5",
                    "midi": 75,
                    "time": 24.347848000000052,
                    "velocity": 0.6692913385826772,
                    "duration": 0.10869574999999898
                },
                {
                    "name": "D6",
                    "midi": 86,
                    "time": 24.56523950000005,
                    "velocity": 0.6456692913385826,
                    "duration": 0.10869574999999898
                },
                {
                    "name": "D5",
                    "midi": 74,
                    "time": 24.56523950000005,
                    "velocity": 0.5433070866141733,
                    "duration": 0.10869574999999898
                },
                {
                    "name": "C6",
                    "midi": 84,
                    "time": 24.78263100000005,
                    "velocity": 0.6850393700787402,
                    "duration": 0.10869574999999898
                },
                {
                    "name": "C5",
                    "midi": 72,
                    "time": 24.78263100000005,
                    "velocity": 0.5748031496062992,
                    "duration": 0.10869574999999898
                },
                {
                    "name": "A#4",
                    "midi": 70,
                    "time": 25.000022500000046,
                    "velocity": 0.5354330708661418,
                    "duration": 0.10869574999999898
                },
                {
                    "name": "A#5",
                    "midi": 82,
                    "time": 25.000022500000046,
                    "velocity": 0.6377952755905512,
                    "duration": 0.10869574999999898
                },
                {
                    "name": "G4",
                    "midi": 67,
                    "time": 25.217414000000044,
                    "velocity": 0.5905511811023622,
                    "duration": 0.10869574999999898
                },
                {
                    "name": "G5",
                    "midi": 79,
                    "time": 25.217414000000044,
                    "velocity": 0.7007874015748031,
                    "duration": 0.10869574999999898
                },
                {
                    "name": "F4",
                    "midi": 65,
                    "time": 25.434805500000042,
                    "velocity": 0.5196850393700787,
                    "duration": 0.10869574999999898
                },
                {
                    "name": "F5",
                    "midi": 77,
                    "time": 25.434805500000042,
                    "velocity": 0.6220472440944882,
                    "duration": 0.10869574999999898
                },
                {
                    "name": "D#5",
                    "midi": 75,
                    "time": 25.65219700000004,
                    "velocity": 0.6456692913385826,
                    "duration": 0.10869574999999898
                },
                {
                    "name": "D#4",
                    "midi": 63,
                    "time": 25.65219700000004,
                    "velocity": 0.5433070866141733,
                    "duration": 0.10869574999999898
                },
                {
                    "name": "D4",
                    "midi": 62,
                    "time": 25.869588500000038,
                    "velocity": 0.5039370078740157,
                    "duration": 0.10869574999999898
                },
                {
                    "name": "D5",
                    "midi": 74,
                    "time": 25.869588500000038,
                    "velocity": 0.5984251968503937,
                    "duration": 0.10869574999999898
                },
                {
                    "name": "C5",
                    "midi": 72,
                    "time": 26.086980000000036,
                    "velocity": 0.6299212598425197,
                    "duration": 0.10869574999999898
                },
                {
                    "name": "C4",
                    "midi": 60,
                    "time": 26.086980000000036,
                    "velocity": 0.5275590551181102,
                    "duration": 0.10869574999999898
                },
                {
                    "name": "A#4",
                    "midi": 70,
                    "time": 26.304371500000034,
                    "velocity": 0.5590551181102362,
                    "duration": 0.10869574999999898
                },
                {
                    "name": "A#3",
                    "midi": 58,
                    "time": 26.304371500000034,
                    "velocity": 0.4645669291338583,
                    "duration": 0.10869574999999898
                },
                {
                    "name": "G4",
                    "midi": 67,
                    "time": 26.521763000000032,
                    "velocity": 0.6141732283464567,
                    "duration": 0.10869574999999898
                },
                {
                    "name": "G3",
                    "midi": 55,
                    "time": 26.521763000000032,
                    "velocity": 0.5118110236220472,
                    "duration": 0.10869574999999898
                },
                {
                    "name": "F4",
                    "midi": 65,
                    "time": 26.73915450000003,
                    "velocity": 0.5669291338582677,
                    "duration": 0.10869574999999898
                },
                {
                    "name": "F3",
                    "midi": 53,
                    "time": 26.73915450000003,
                    "velocity": 0.48031496062992124,
                    "duration": 0.10869574999999898
                },
                {
                    "name": "A4",
                    "midi": 69,
                    "time": 26.956546000000028,
                    "velocity": 0.6062992125984252,
                    "duration": 0.21739150000000151
                },
                {
                    "name": "F4",
                    "midi": 65,
                    "time": 27.17393750000003,
                    "velocity": 0.5275590551181102,
                    "duration": 0.21739150000000151
                },
                {
                    "name": "C5",
                    "midi": 72,
                    "time": 27.39132900000003,
                    "velocity": 0.5748031496062992,
                    "duration": 0.21739150000000151
                },
                {
                    "name": "F4",
                    "midi": 65,
                    "time": 27.608720500000032,
                    "velocity": 0.5275590551181102,
                    "duration": 0.21739150000000151
                },
                {
                    "name": "F5",
                    "midi": 77,
                    "time": 27.826112000000034,
                    "velocity": 0.5590551181102362,
                    "duration": 0.21739150000000151
                },
                {
                    "name": "F4",
                    "midi": 65,
                    "time": 28.043503500000035,
                    "velocity": 0.4645669291338583,
                    "duration": 0.21739150000000151
                },
                {
                    "name": "A5",
                    "midi": 81,
                    "time": 28.260895000000037,
                    "velocity": 0.5354330708661418,
                    "duration": 0.21739150000000151
                },
                {
                    "name": "F4",
                    "midi": 65,
                    "time": 28.47828650000004,
                    "velocity": 0.4409448818897638,
                    "duration": 0.21739150000000151
                },
                {
                    "name": "C6",
                    "midi": 84,
                    "time": 28.69567800000004,
                    "velocity": 0.4881889763779528,
                    "duration": 0.21739150000000151
                },
                {
                    "name": "F4",
                    "midi": 65,
                    "time": 28.91306950000004,
                    "velocity": 0.3858267716535433,
                    "duration": 0.21739150000000151
                },
                {
                    "name": "F6",
                    "midi": 89,
                    "time": 29.130461000000043,
                    "velocity": 0.4251968503937008,
                    "duration": 0.21739150000000151
                },
                {
                    "name": "F4",
                    "midi": 65,
                    "time": 29.347852500000045,
                    "velocity": 0.3543307086614173,
                    "duration": 0.21739150000000151
                },
                {
                    "name": "F6",
                    "midi": 89,
                    "time": 29.565244000000046,
                    "velocity": 0.4094488188976378,
                    "duration": 0.21739150000000151
                },
                {
                    "name": "F4",
                    "midi": 65,
                    "time": 29.782635500000048,
                    "velocity": 0.3228346456692913,
                    "duration": 0.21739150000000151
                },
                {
                    "name": "F6",
                    "midi": 89,
                    "time": 30.00002700000005,
                    "velocity": 0.3779527559055118,
                    "duration": 0.21739150000000151
                },
                {
                    "name": "A#5",
                    "midi": 82,
                    "time": 30.76089725000005,
                    "velocity": 0.6062992125984252,
                    "duration": 0.10869574999999898
                },
                {
                    "name": "D6",
                    "midi": 86,
                    "time": 30.76089725000005,
                    "velocity": 0.7244094488188977,
                    "duration": 0.10869574999999898
                },
                {
                    "name": "D5",
                    "midi": 74,
                    "time": 30.76089725000005,
                    "velocity": 0.6062992125984252,
                    "duration": 0.10869574999999898
                },
                {
                    "name": "F5",
                    "midi": 77,
                    "time": 30.76089725000005,
                    "velocity": 0.6062992125984252,
                    "duration": 0.10869574999999898
                },
                {
                    "name": "D5",
                    "midi": 74,
                    "time": 30.869593000000048,
                    "velocity": 0.5433070866141733,
                    "duration": 0.21739150000000151
                },
                {
                    "name": "F5",
                    "midi": 77,
                    "time": 30.869593000000048,
                    "velocity": 0.5433070866141733,
                    "duration": 0.21739150000000151
                },
                {
                    "name": "D6",
                    "midi": 86,
                    "time": 30.869593000000048,
                    "velocity": 0.6456692913385826,
                    "duration": 0.21739150000000151
                },
                {
                    "name": "A#5",
                    "midi": 82,
                    "time": 30.869593000000048,
                    "velocity": 0.5433070866141733,
                    "duration": 0.21739150000000151
                },
                {
                    "name": "D5",
                    "midi": 74,
                    "time": 31.08698450000005,
                    "velocity": 0.5511811023622047,
                    "duration": 0.04076090625000006
                },
                {
                    "name": "A#5",
                    "midi": 82,
                    "time": 31.08698450000005,
                    "velocity": 0.5511811023622047,
                    "duration": 0.04076090625000006
                },
                {
                    "name": "F5",
                    "midi": 77,
                    "time": 31.08698450000005,
                    "velocity": 0.5511811023622047,
                    "duration": 0.04076090625000006
                },
                {
                    "name": "D#6",
                    "midi": 87,
                    "time": 31.08698450000005,
                    "velocity": 0.7007874015748031,
                    "duration": 0.04076090625000006
                },
                {
                    "name": "F5",
                    "midi": 77,
                    "time": 31.19568025000005,
                    "velocity": 0.5669291338582677,
                    "duration": 0.04076090625000006
                },
                {
                    "name": "D5",
                    "midi": 74,
                    "time": 31.19568025000005,
                    "velocity": 0.5669291338582677,
                    "duration": 0.04076090625000006
                },
                {
                    "name": "D6",
                    "midi": 86,
                    "time": 31.19568025000005,
                    "velocity": 0.6692913385826772,
                    "duration": 0.04076090625000006
                },
                {
                    "name": "A#5",
                    "midi": 82,
                    "time": 31.19568025000005,
                    "velocity": 0.5669291338582677,
                    "duration": 0.04076090625000006
                },
                {
                    "name": "D6",
                    "midi": 86,
                    "time": 31.304376000000047,
                    "velocity": 0.7244094488188977,
                    "duration": 0.10869574999999898
                },
                {
                    "name": "A#5",
                    "midi": 82,
                    "time": 31.304376000000047,
                    "velocity": 0.6062992125984252,
                    "duration": 0.10869574999999898
                },
                {
                    "name": "F5",
                    "midi": 77,
                    "time": 31.304376000000047,
                    "velocity": 0.6062992125984252,
                    "duration": 0.10869574999999898
                },
                {
                    "name": "D5",
                    "midi": 74,
                    "time": 31.304376000000047,
                    "velocity": 0.6062992125984252,
                    "duration": 0.10869574999999898
                },
                {
                    "name": "A#4",
                    "midi": 70,
                    "time": 31.521767500000045,
                    "velocity": 0.5511811023622047,
                    "duration": 0.10869574999999898
                },
                {
                    "name": "A#5",
                    "midi": 82,
                    "time": 31.521767500000045,
                    "velocity": 0.6614173228346457,
                    "duration": 0.10869574999999898
                },
                {
                    "name": "F5",
                    "midi": 77,
                    "time": 31.521767500000045,
                    "velocity": 0.5511811023622047,
                    "duration": 0.10869574999999898
                },
                {
                    "name": "D5",
                    "midi": 74,
                    "time": 31.521767500000045,
                    "velocity": 0.5511811023622047,
                    "duration": 0.10869574999999898
                },
                {
                    "name": "A#5",
                    "midi": 82,
                    "time": 32.50002925000005,
                    "velocity": 0.6062992125984252,
                    "duration": 0.10869575000000253
                },
                {
                    "name": "F5",
                    "midi": 77,
                    "time": 32.50002925000005,
                    "velocity": 0.6062992125984252,
                    "duration": 0.10869575000000253
                },
                {
                    "name": "D6",
                    "midi": 86,
                    "time": 32.50002925000005,
                    "velocity": 0.7244094488188977,
                    "duration": 0.10869575000000253
                },
                {
                    "name": "D5",
                    "midi": 74,
                    "time": 32.50636983541671,
                    "velocity": 0.6062992125984252,
                    "duration": 0.10869575000000253
                },
                {
                    "name": "D5",
                    "midi": 74,
                    "time": 32.60872500000005,
                    "velocity": 0.6456692913385826,
                    "duration": 0.21739149999999796
                },
                {
                    "name": "D6",
                    "midi": 86,
                    "time": 32.60872500000005,
                    "velocity": 0.7795275590551181,
                    "duration": 0.21739149999999796
                },
                {
                    "name": "F#5",
                    "midi": 78,
                    "time": 32.82611650000005,
                    "velocity": 0.5511811023622047,
                    "duration": 0.04076090625000006
                },
                {
                    "name": "D5",
                    "midi": 74,
                    "time": 32.82611650000005,
                    "velocity": 0.5511811023622047,
                    "duration": 0.04076090625000006
                },
                {
                    "name": "A5",
                    "midi": 81,
                    "time": 32.82611650000005,
                    "velocity": 0.5511811023622047,
                    "duration": 0.04076090625000006
                },
                {
                    "name": "D6",
                    "midi": 86,
                    "time": 32.82611650000005,
                    "velocity": 0.6614173228346457,
                    "duration": 0.04076090625000006
                },
                {
                    "name": "D6",
                    "midi": 86,
                    "time": 32.93481225000005,
                    "velocity": 0.6692913385826772,
                    "duration": 0.04076090625000006
                },
                {
                    "name": "F#5",
                    "midi": 78,
                    "time": 32.93481225000005,
                    "velocity": 0.5511811023622047,
                    "duration": 0.04076090625000006
                },
                {
                    "name": "D5",
                    "midi": 74,
                    "time": 32.93481225000005,
                    "velocity": 0.5669291338582677,
                    "duration": 0.04076090625000006
                },
                {
                    "name": "A5",
                    "midi": 81,
                    "time": 32.93481225000005,
                    "velocity": 0.5669291338582677,
                    "duration": 0.04076090625000006
                },
                {
                    "name": "A5",
                    "midi": 81,
                    "time": 33.04350800000005,
                    "velocity": 0.6062992125984252,
                    "duration": 0.10869575000000253
                },
                {
                    "name": "D5",
                    "midi": 74,
                    "time": 33.04350800000005,
                    "velocity": 0.6062992125984252,
                    "duration": 0.10869575000000253
                },
                {
                    "name": "D6",
                    "midi": 86,
                    "time": 33.04350800000005,
                    "velocity": 0.7244094488188977,
                    "duration": 0.10869575000000253
                },
                {
                    "name": "F#5",
                    "midi": 78,
                    "time": 33.04350800000005,
                    "velocity": 0.6062992125984252,
                    "duration": 0.10869575000000253
                },
                {
                    "name": "A5",
                    "midi": 81,
                    "time": 33.26089950000006,
                    "velocity": 0.5511811023622047,
                    "duration": 0.10869575000000253
                },
                {
                    "name": "F#5",
                    "midi": 78,
                    "time": 33.26089950000006,
                    "velocity": 0.5511811023622047,
                    "duration": 0.10869575000000253
                },
                {
                    "name": "D5",
                    "midi": 74,
                    "time": 33.26089950000006,
                    "velocity": 0.5511811023622047,
                    "duration": 0.10869575000000253
                },
                {
                    "name": "D6",
                    "midi": 86,
                    "time": 33.26089950000006,
                    "velocity": 0.6614173228346457,
                    "duration": 0.10869575000000253
                },
                {
                    "name": "F#4",
                    "midi": 66,
                    "time": 34.130465500000064,
                    "velocity": 0.25984251968503935,
                    "duration": 0.10869575000000253
                },
                {
                    "name": "D5",
                    "midi": 74,
                    "time": 34.130465500000064,
                    "velocity": 0.30708661417322836,
                    "duration": 0.10869575000000253
                },
                {
                    "name": "A4",
                    "midi": 69,
                    "time": 34.130465500000064,
                    "velocity": 0.25984251968503935,
                    "duration": 0.10869575000000253
                },
                {
                    "name": "D5",
                    "midi": 74,
                    "time": 34.56524850000007,
                    "velocity": 0.33070866141732286,
                    "duration": 0.10869575000000253
                },
                {
                    "name": "A4",
                    "midi": 69,
                    "time": 34.56524850000007,
                    "velocity": 0.2755905511811024,
                    "duration": 0.10869575000000253
                },
                {
                    "name": "F#4",
                    "midi": 66,
                    "time": 34.56524850000007,
                    "velocity": 0.2755905511811024,
                    "duration": 0.10869575000000253
                },
                {
                    "name": "A4",
                    "midi": 69,
                    "time": 35.00003150000007,
                    "velocity": 0.29133858267716534,
                    "duration": 0.10869575000000253
                },
                {
                    "name": "D5",
                    "midi": 74,
                    "time": 35.00003150000007,
                    "velocity": 0.3464566929133858,
                    "duration": 0.10869575000000253
                },
                {
                    "name": "F#4",
                    "midi": 66,
                    "time": 35.00003150000007,
                    "velocity": 0.29133858267716534,
                    "duration": 0.10869575000000253
                },
                {
                    "name": "F#4",
                    "midi": 66,
                    "time": 35.43481450000007,
                    "velocity": 0.30708661417322836,
                    "duration": 0.10869575000000253
                },
                {
                    "name": "A4",
                    "midi": 69,
                    "time": 35.43481450000007,
                    "velocity": 0.30708661417322836,
                    "duration": 0.10869575000000253
                },
                {
                    "name": "D5",
                    "midi": 74,
                    "time": 35.43481450000007,
                    "velocity": 0.36220472440944884,
                    "duration": 0.10869575000000253
                },
                {
                    "name": "D5",
                    "midi": 74,
                    "time": 35.869597500000076,
                    "velocity": 0.3228346456692913,
                    "duration": 0.10869575000000253
                },
                {
                    "name": "C5",
                    "midi": 72,
                    "time": 35.869597500000076,
                    "velocity": 0.3228346456692913,
                    "duration": 0.10869575000000253
                },
                {
                    "name": "F#5",
                    "midi": 78,
                    "time": 35.869597500000076,
                    "velocity": 0.3858267716535433,
                    "duration": 0.10869575000000253
                },
                {
                    "name": "A4",
                    "midi": 69,
                    "time": 35.869597500000076,
                    "velocity": 0.3228346456692913,
                    "duration": 0.10869575000000253
                },
                {
                    "name": "A4",
                    "midi": 69,
                    "time": 36.30438050000008,
                    "velocity": 0.33858267716535434,
                    "duration": 0.10869575000000253
                },
                {
                    "name": "D5",
                    "midi": 74,
                    "time": 36.30438050000008,
                    "velocity": 0.33858267716535434,
                    "duration": 0.10869575000000253
                },
                {
                    "name": "F#5",
                    "midi": 78,
                    "time": 36.30438050000008,
                    "velocity": 0.4015748031496063,
                    "duration": 0.10869575000000253
                },
                {
                    "name": "C5",
                    "midi": 72,
                    "time": 36.30438050000008,
                    "velocity": 0.33858267716535434,
                    "duration": 0.10869575000000253
                },
                {
                    "name": "A5",
                    "midi": 81,
                    "time": 36.73916350000008,
                    "velocity": 0.47244094488188976,
                    "duration": 0.10869575000000253
                },
                {
                    "name": "F#5",
                    "midi": 78,
                    "time": 36.73916350000008,
                    "velocity": 0.3937007874015748,
                    "duration": 0.10869575000000253
                },
                {
                    "name": "C5",
                    "midi": 72,
                    "time": 36.73916350000008,
                    "velocity": 0.3937007874015748,
                    "duration": 0.10869575000000253
                },
                {
                    "name": "A4",
                    "midi": 69,
                    "time": 36.73916350000008,
                    "velocity": 0.3937007874015748,
                    "duration": 0.10869575000000253
                },
                {
                    "name": "C6",
                    "midi": 84,
                    "time": 37.173946500000085,
                    "velocity": 0.5354330708661418,
                    "duration": 0.10869575000000253
                },
                {
                    "name": "F#5",
                    "midi": 78,
                    "time": 37.173946500000085,
                    "velocity": 0.44881889763779526,
                    "duration": 0.10869575000000253
                },
                {
                    "name": "C5",
                    "midi": 72,
                    "time": 37.173946500000085,
                    "velocity": 0.44881889763779526,
                    "duration": 0.10869575000000253
                },
                {
                    "name": "A5",
                    "midi": 81,
                    "time": 37.173946500000085,
                    "velocity": 0.44881889763779526,
                    "duration": 0.10869575000000253
                },
                {
                    "name": "F#5",
                    "midi": 78,
                    "time": 37.60872950000009,
                    "velocity": 0.5039370078740157,
                    "duration": 0.10869575000000253
                },
                {
                    "name": "C6",
                    "midi": 84,
                    "time": 37.60872950000009,
                    "velocity": 0.5039370078740157,
                    "duration": 0.10869575000000253
                },
                {
                    "name": "F#6",
                    "midi": 90,
                    "time": 37.60872950000009,
                    "velocity": 0.5905511811023622,
                    "duration": 0.10869575000000253
                },
                {
                    "name": "A5",
                    "midi": 81,
                    "time": 37.60872950000009,
                    "velocity": 0.5039370078740157,
                    "duration": 0.10869575000000253
                },
                {
                    "name": "A6",
                    "midi": 93,
                    "time": 38.04351250000009,
                    "velocity": 0.6220472440944882,
                    "duration": 0.10869575000000253
                },
                {
                    "name": "C6",
                    "midi": 84,
                    "time": 38.04351250000009,
                    "velocity": 0.5196850393700787,
                    "duration": 0.10869575000000253
                },
                {
                    "name": "A5",
                    "midi": 81,
                    "time": 38.04351250000009,
                    "velocity": 0.5196850393700787,
                    "duration": 0.10869575000000253
                },
                {
                    "name": "C6",
                    "midi": 84,
                    "time": 38.478295500000094,
                    "velocity": 0.5433070866141733,
                    "duration": 0.10869575000000253
                },
                {
                    "name": "A6",
                    "midi": 93,
                    "time": 38.478295500000094,
                    "velocity": 0.5433070866141733,
                    "duration": 0.10869575000000253
                },
                {
                    "name": "C7",
                    "midi": 96,
                    "time": 38.478295500000094,
                    "velocity": 0.6456692913385826,
                    "duration": 0.10869575000000253
                },
                {
                    "name": "C7",
                    "midi": 96,
                    "time": 38.9130785000001,
                    "velocity": 0.6692913385826772,
                    "duration": 0.10869575000000253
                },
                {
                    "name": "F#6",
                    "midi": 90,
                    "time": 38.9130785000001,
                    "velocity": 0.5590551181102362,
                    "duration": 0.10869575000000253
                },
                {
                    "name": "C6",
                    "midi": 84,
                    "time": 38.9130785000001,
                    "velocity": 0.5590551181102362,
                    "duration": 0.10869575000000253
                },
                {
                    "name": "A6",
                    "midi": 93,
                    "time": 38.9130785000001,
                    "velocity": 0.5590551181102362,
                    "duration": 0.10869575000000253
                },
                {
                    "name": "A6",
                    "midi": 93,
                    "time": 39.1304700000001,
                    "velocity": 0.5590551181102362,
                    "duration": 0.10869575000000253
                },
                {
                    "name": "C7",
                    "midi": 96,
                    "time": 39.1304700000001,
                    "velocity": 0.6692913385826772,
                    "duration": 0.10869575000000253
                },
                {
                    "name": "C6",
                    "midi": 84,
                    "time": 39.1304700000001,
                    "velocity": 0.5590551181102362,
                    "duration": 0.10869575000000253
                },
                {
                    "name": "F#6",
                    "midi": 90,
                    "time": 39.1304700000001,
                    "velocity": 0.5590551181102362,
                    "duration": 0.10869575000000253
                },
                {
                    "name": "C6",
                    "midi": 84,
                    "time": 39.34786150000011,
                    "velocity": 0.44881889763779526,
                    "duration": 0.10869575000000253
                },
                {
                    "name": "A5",
                    "midi": 81,
                    "time": 39.34786150000011,
                    "velocity": 0.44881889763779526,
                    "duration": 0.10869575000000253
                },
                {
                    "name": "B5",
                    "midi": 83,
                    "time": 39.45655725000011,
                    "velocity": 0.44881889763779526,
                    "duration": 0.10869575000000253
                },
                {
                    "name": "G#5",
                    "midi": 80,
                    "time": 39.45655725000011,
                    "velocity": 0.44881889763779526,
                    "duration": 0.10869575000000253
                },
                {
                    "name": "C6",
                    "midi": 84,
                    "time": 39.56525300000011,
                    "velocity": 0.49606299212598426,
                    "duration": 0.21739149999999796
                },
                {
                    "name": "A5",
                    "midi": 81,
                    "time": 39.56525300000011,
                    "velocity": 0.49606299212598426,
                    "duration": 0.21739149999999796
                },
                {
                    "name": "F#4",
                    "midi": 66,
                    "time": 39.78264450000011,
                    "velocity": 0.4094488188976378,
                    "duration": 0.10869575000000253
                },
                {
                    "name": "A4",
                    "midi": 69,
                    "time": 39.78264450000011,
                    "velocity": 0.4094488188976378,
                    "duration": 0.10869575000000253
                },
                {
                    "name": "A#4",
                    "midi": 70,
                    "time": 39.89134025000011,
                    "velocity": 0.4094488188976378,
                    "duration": 0.10869575000000253
                },
                {
                    "name": "G4",
                    "midi": 67,
                    "time": 39.89134025000011,
                    "velocity": 0.4094488188976378,
                    "duration": 0.10869575000000253
                },
                {
                    "name": "A4",
                    "midi": 69,
                    "time": 40.000036000000115,
                    "velocity": 0.4566929133858268,
                    "duration": 0.21739149999999796
                },
                {
                    "name": "F#4",
                    "midi": 66,
                    "time": 40.000036000000115,
                    "velocity": 0.4566929133858268,
                    "duration": 0.21739149999999796
                },
                {
                    "name": "A5",
                    "midi": 81,
                    "time": 40.21742750000011,
                    "velocity": 0.3700787401574803,
                    "duration": 0.10869575000000253
                },
                {
                    "name": "C6",
                    "midi": 84,
                    "time": 40.21742750000011,
                    "velocity": 0.3700787401574803,
                    "duration": 0.10869575000000253
                },
                {
                    "name": "B5",
                    "midi": 83,
                    "time": 40.326123250000116,
                    "velocity": 0.3700787401574803,
                    "duration": 0.10869575000000253
                },
                {
                    "name": "G#5",
                    "midi": 80,
                    "time": 40.326123250000116,
                    "velocity": 0.3700787401574803,
                    "duration": 0.10869575000000253
                },
                {
                    "name": "C6",
                    "midi": 84,
                    "time": 40.43481900000012,
                    "velocity": 0.4409448818897638,
                    "duration": 0.21739149999999796
                },
                {
                    "name": "A5",
                    "midi": 81,
                    "time": 40.43481900000012,
                    "velocity": 0.4409448818897638,
                    "duration": 0.21739149999999796
                },
                {
                    "name": "F#6",
                    "midi": 90,
                    "time": 40.652210500000116,
                    "velocity": 0.3700787401574803,
                    "duration": 0.10869575000000253
                },
                {
                    "name": "A6",
                    "midi": 93,
                    "time": 40.76090625000012,
                    "velocity": 0.3700787401574803,
                    "duration": 0.10869575000000253
                },
                {
                    "name": "C7",
                    "midi": 96,
                    "time": 40.86960200000012,
                    "velocity": 0.44881889763779526,
                    "duration": 0.10869575000000253
                },
                {
                    "name": "D7",
                    "midi": 98,
                    "time": 40.978297750000124,
                    "velocity": 0.3779527559055118,
                    "duration": 0.10869575000000253
                },
                {
                    "name": "C7",
                    "midi": 96,
                    "time": 41.086993500000126,
                    "velocity": 0.3858267716535433,
                    "duration": 0.10869575000000253
                },
                {
                    "name": "B6",
                    "midi": 95,
                    "time": 41.19568925000013,
                    "velocity": 0.3937007874015748,
                    "duration": 0.10869575000000253
                },
                {
                    "name": "C7",
                    "midi": 96,
                    "time": 41.30438500000013,
                    "velocity": 0.5118110236220472,
                    "duration": 0.10869575000000253
                },
                {
                    "name": "D7",
                    "midi": 98,
                    "time": 41.413080750000134,
                    "velocity": 0.44881889763779526,
                    "duration": 0.10869575000000253
                },
                {
                    "name": "E7",
                    "midi": 100,
                    "time": 41.521776500000136,
                    "velocity": 0.5196850393700787,
                    "duration": 0.10869575000000253
                },
                {
                    "name": "C7",
                    "midi": 96,
                    "time": 41.63047225000014,
                    "velocity": 0.4566929133858268,
                    "duration": 0.10869575000000253
                },
                {
                    "name": "A6",
                    "midi": 93,
                    "time": 41.73916800000014,
                    "velocity": 0.5433070866141733,
                    "duration": 0.10869575000000253
                },
                {
                    "name": "B6",
                    "midi": 95,
                    "time": 41.847863750000144,
                    "velocity": 0.4409448818897638,
                    "duration": 0.10869575000000253
                },
                {
                    "name": "C7",
                    "midi": 96,
                    "time": 41.95655950000015,
                    "velocity": 0.5196850393700787,
                    "duration": 0.10869575000000253
                },
                {
                    "name": "A6",
                    "midi": 93,
                    "time": 42.06525525000015,
                    "velocity": 0.4251968503937008,
                    "duration": 0.10869575000000253
                },
                {
                    "name": "F#6",
                    "midi": 90,
                    "time": 42.17395100000015,
                    "velocity": 0.5196850393700787,
                    "duration": 0.10869575000000253
                },
                {
                    "name": "G6",
                    "midi": 91,
                    "time": 42.282646750000154,
                    "velocity": 0.41732283464566927,
                    "duration": 0.10869575000000253
                },
                {
                    "name": "A6",
                    "midi": 93,
                    "time": 42.39134250000016,
                    "velocity": 0.48031496062992124,
                    "duration": 0.10869575000000253
                },
                {
                    "name": "F#6",
                    "midi": 90,
                    "time": 42.50003825000016,
                    "velocity": 0.41732283464566927,
                    "duration": 0.10869575000000253
                },
                {
                    "name": "C6",
                    "midi": 84,
                    "time": 42.60873400000016,
                    "velocity": 0.3700787401574803,
                    "duration": 0.10869575000000253
                },
                {
                    "name": "D6",
                    "midi": 86,
                    "time": 42.717429750000164,
                    "velocity": 0.3700787401574803,
                    "duration": 0.10869575000000253
                },
                {
                    "name": "E6",
                    "midi": 88,
                    "time": 42.82612550000017,
                    "velocity": 0.4566929133858268,
                    "duration": 0.10869575000000253
                },
                {
                    "name": "C6",
                    "midi": 84,
                    "time": 42.93482125000017,
                    "velocity": 0.3700787401574803,
                    "duration": 0.10869575000000253
                },
                {
                    "name": "A5",
                    "midi": 81,
                    "time": 43.04351700000017,
                    "velocity": 0.3700787401574803,
                    "duration": 0.10869575000000253
                },
                {
                    "name": "B5",
                    "midi": 83,
                    "time": 43.152212750000174,
                    "velocity": 0.3700787401574803,
                    "duration": 0.10869575000000253
                },
                {
                    "name": "C6",
                    "midi": 84,
                    "time": 43.26090850000018,
                    "velocity": 0.41732283464566927,
                    "duration": 0.10869575000000253
                },
                {
                    "name": "A5",
                    "midi": 81,
                    "time": 43.36960425000018,
                    "velocity": 0.3700787401574803,
                    "duration": 0.10869575000000253
                },
                {
                    "name": "F#5",
                    "midi": 78,
                    "time": 43.47830000000018,
                    "velocity": 0.3700787401574803,
                    "duration": 0.10869575000000253
                },
                {
                    "name": "G5",
                    "midi": 79,
                    "time": 43.586995750000185,
                    "velocity": 0.3700787401574803,
                    "duration": 0.10869575000000253
                },
                {
                    "name": "A5",
                    "midi": 81,
                    "time": 43.69569150000019,
                    "velocity": 0.4094488188976378,
                    "duration": 0.10869575000000253
                },
                {
                    "name": "F#5",
                    "midi": 78,
                    "time": 43.80438725000019,
                    "velocity": 0.3700787401574803,
                    "duration": 0.10869575000000253
                },
                {
                    "name": "D5",
                    "midi": 74,
                    "time": 43.91308300000019,
                    "velocity": 0.3700787401574803,
                    "duration": 0.21739149999999796
                },
                {
                    "name": "C5",
                    "midi": 72,
                    "time": 43.91308300000019,
                    "velocity": 0.3700787401574803,
                    "duration": 0.21739149999999796
                },
                {
                    "name": "A4",
                    "midi": 69,
                    "time": 43.91308300000019,
                    "velocity": 0.3700787401574803,
                    "duration": 0.21739149999999796
                },
                {
                    "name": "B6",
                    "midi": 95,
                    "time": 44.34786600000019,
                    "velocity": 0.44881889763779526,
                    "duration": 0.10869575000000253
                },
                {
                    "name": "C7",
                    "midi": 96,
                    "time": 44.45656175000019,
                    "velocity": 0.3779527559055118,
                    "duration": 0.10869575000000253
                },
                {
                    "name": "B6",
                    "midi": 95,
                    "time": 44.56525750000019,
                    "velocity": 0.3858267716535433,
                    "duration": 0.10869575000000253
                },
                {
                    "name": "A6",
                    "midi": 93,
                    "time": 44.673953250000196,
                    "velocity": 0.3937007874015748,
                    "duration": 0.10869575000000253
                },
                {
                    "name": "B6",
                    "midi": 95,
                    "time": 44.7826490000002,
                    "velocity": 0.5118110236220472,
                    "duration": 0.10869575000000253
                },
                {
                    "name": "C7",
                    "midi": 96,
                    "time": 44.8913447500002,
                    "velocity": 0.44881889763779526,
                    "duration": 0.10869575000000253
                },
                {
                    "name": "D7",
                    "midi": 98,
                    "time": 45.0000405000002,
                    "velocity": 0.5196850393700787,
                    "duration": 0.10869575000000253
                },
                {
                    "name": "B6",
                    "midi": 95,
                    "time": 45.108736250000206,
                    "velocity": 0.4566929133858268,
                    "duration": 0.10869575000000253
                },
                {
                    "name": "G6",
                    "midi": 91,
                    "time": 45.21743200000021,
                    "velocity": 0.5433070866141733,
                    "duration": 0.10869575000000253
                },
                {
                    "name": "A6",
                    "midi": 93,
                    "time": 45.32612775000021,
                    "velocity": 0.4409448818897638,
                    "duration": 0.10869575000000253
                },
                {
                    "name": "B6",
                    "midi": 95,
                    "time": 45.43482350000021,
                    "velocity": 0.5196850393700787,
                    "duration": 0.10869575000000253
                },
                {
                    "name": "G6",
                    "midi": 91,
                    "time": 45.543519250000216,
                    "velocity": 0.4251968503937008,
                    "duration": 0.10869575000000253
                },
                {
                    "name": "D6",
                    "midi": 86,
                    "time": 45.65221500000022,
                    "velocity": 0.5196850393700787,
                    "duration": 0.10869575000000253
                },
                {
                    "name": "F#6",
                    "midi": 90,
                    "time": 45.76091075000022,
                    "velocity": 0.41732283464566927,
                    "duration": 0.10869575000000253
                },
                {
                    "name": "G6",
                    "midi": 91,
                    "time": 45.86960650000022,
                    "velocity": 0.48031496062992124,
                    "duration": 0.10869575000000253
                },
                {
                    "name": "D6",
                    "midi": 86,
                    "time": 45.978302250000226,
                    "velocity": 0.41732283464566927,
                    "duration": 0.10869575000000253
                },
                {
                    "name": "B5",
                    "midi": 83,
                    "time": 46.08699800000023,
                    "velocity": 0.3700787401574803,
                    "duration": 0.10869575000000253
                },
                {
                    "name": "C6",
                    "midi": 84,
                    "time": 46.19569375000023,
                    "velocity": 0.3700787401574803,
                    "duration": 0.10869575000000253
                },
                {
                    "name": "D6",
                    "midi": 86,
                    "time": 46.304389500000234,
                    "velocity": 0.4566929133858268,
                    "duration": 0.10869575000000253
                },
                {
                    "name": "B5",
                    "midi": 83,
                    "time": 46.413085250000236,
                    "velocity": 0.3700787401574803,
                    "duration": 0.10869575000000253
                },
                {
                    "name": "G5",
                    "midi": 79,
                    "time": 46.52178100000024,
                    "velocity": 0.3700787401574803,
                    "duration": 0.10869575000000253
                },
                {
                    "name": "A5",
                    "midi": 81,
                    "time": 46.63047675000024,
                    "velocity": 0.3700787401574803,
                    "duration": 0.10869575000000253
                },
                {
                    "name": "B5",
                    "midi": 83,
                    "time": 46.739172500000244,
                    "velocity": 0.41732283464566927,
                    "duration": 0.10869575000000253
                },
                {
                    "name": "G5",
                    "midi": 79,
                    "time": 46.847868250000246,
                    "velocity": 0.3700787401574803,
                    "duration": 0.10869575000000253
                },
                {
                    "name": "D5",
                    "midi": 74,
                    "time": 46.95656400000025,
                    "velocity": 0.3700787401574803,
                    "duration": 0.10869575000000253
                },
                {
                    "name": "F#5",
                    "midi": 78,
                    "time": 47.06525975000025,
                    "velocity": 0.3700787401574803,
                    "duration": 0.10869575000000253
                },
                {
                    "name": "G5",
                    "midi": 79,
                    "time": 47.173955500000254,
                    "velocity": 0.4094488188976378,
                    "duration": 0.10869575000000253
                },
                {
                    "name": "B4",
                    "midi": 71,
                    "time": 47.28265125000026,
                    "velocity": 0.3700787401574803,
                    "duration": 0.1068841541666643
                },
                {
                    "name": "G4",
                    "midi": 67,
                    "time": 47.39134700000025,
                    "velocity": 0.31496062992125984,
                    "duration": 0.10869575000000253
                },
                {
                    "name": "A4",
                    "midi": 69,
                    "time": 47.500042750000254,
                    "velocity": 0.31496062992125984,
                    "duration": 0.10869575000000253
                },
                {
                    "name": "B4",
                    "midi": 71,
                    "time": 47.60873850000026,
                    "velocity": 0.3543307086614173,
                    "duration": 0.1068841541666643
                },
                {
                    "name": "G4",
                    "midi": 67,
                    "time": 47.71743425000025,
                    "velocity": 0.31496062992125984,
                    "duration": 0.10869575000000253
                },
                {
                    "name": "D4",
                    "midi": 62,
                    "time": 47.826130000000255,
                    "velocity": 0.31496062992125984,
                    "duration": 0.21739149999999796
                },
                {
                    "name": "A4",
                    "midi": 69,
                    "time": 47.826130000000255,
                    "velocity": 0.36220472440944884,
                    "duration": 0.21739149999999796
                },
                {
                    "name": "F#4",
                    "midi": 66,
                    "time": 47.826130000000255,
                    "velocity": 0.31496062992125984,
                    "duration": 0.21739149999999796
                },
                {
                    "name": "E6",
                    "midi": 88,
                    "time": 48.04352150000025,
                    "velocity": 0.4094488188976378,
                    "duration": 0.10869575000000253
                },
                {
                    "name": "D6",
                    "midi": 86,
                    "time": 48.152217250000255,
                    "velocity": 0.3700787401574803,
                    "duration": 0.10869575000000253
                },
                {
                    "name": "E6",
                    "midi": 88,
                    "time": 48.26091300000026,
                    "velocity": 0.31496062992125984,
                    "duration": 0.10869575000000253
                },
                {
                    "name": "D6",
                    "midi": 86,
                    "time": 48.36960875000026,
                    "velocity": 0.31496062992125984,
                    "duration": 0.10869575000000253
                },
                {
                    "name": "C6",
                    "midi": 84,
                    "time": 48.47830450000026,
                    "velocity": 0.3543307086614173,
                    "duration": 0.10869575000000253
                },
                {
                    "name": "E6",
                    "midi": 88,
                    "time": 48.587000250000266,
                    "velocity": 0.31496062992125984,
                    "duration": 0.10869575000000253
                },
                {
                    "name": "C6",
                    "midi": 84,
                    "time": 48.69569600000027,
                    "velocity": 0.4094488188976378,
                    "duration": 0.10869575000000253
                },
                {
                    "name": "B5",
                    "midi": 83,
                    "time": 48.80439175000027,
                    "velocity": 0.33070866141732286,
                    "duration": 0.10869575000000253
                },
                {
                    "name": "A5",
                    "midi": 81,
                    "time": 48.91308750000027,
                    "velocity": 0.3858267716535433,
                    "duration": 0.10869575000000253
                },
                {
                    "name": "C6",
                    "midi": 84,
                    "time": 49.021783250000276,
                    "velocity": 0.33858267716535434,
                    "duration": 0.10869575000000253
                },
                {
                    "name": "A5",
                    "midi": 81,
                    "time": 49.13047900000028,
                    "velocity": 0.3779527559055118,
                    "duration": 0.10869575000000253
                },
                {
                    "name": "G5",
                    "midi": 79,
                    "time": 49.23917475000028,
                    "velocity": 0.31496062992125984,
                    "duration": 0.10869575000000253
                },
                {
                    "name": "F#5",
                    "midi": 78,
                    "time": 49.34787050000028,
                    "velocity": 0.3543307086614173,
                    "duration": 0.10869575000000253
                },
                {
                    "name": "A5",
                    "midi": 81,
                    "time": 49.456566250000286,
                    "velocity": 0.31496062992125984,
                    "duration": 0.10869575000000253
                },
                {
                    "name": "E5",
                    "midi": 76,
                    "time": 49.56526200000029,
                    "velocity": 0.4094488188976378,
                    "duration": 0.10869575000000253
                },
                {
                    "name": "D5",
                    "midi": 74,
                    "time": 49.67395775000029,
                    "velocity": 0.33070866141732286,
                    "duration": 0.10869575000000253
                },
                {
                    "name": "C5",
                    "midi": 72,
                    "time": 49.78265350000029,
                    "velocity": 0.3858267716535433,
                    "duration": 0.10869575000000253
                },
                {
                    "name": "E5",
                    "midi": 76,
                    "time": 49.891349250000296,
                    "velocity": 0.33858267716535434,
                    "duration": 0.10869575000000253
                },
                {
                    "name": "C5",
                    "midi": 72,
                    "time": 50.0000450000003,
                    "velocity": 0.3779527559055118,
                    "duration": 0.10869575000000253
                },
                {
                    "name": "B4",
                    "midi": 71,
                    "time": 50.1087407500003,
                    "velocity": 0.31496062992125984,
                    "duration": 0.10869575000000253
                },
                {
                    "name": "A4",
                    "midi": 69,
                    "time": 50.217436500000304,
                    "velocity": 0.3543307086614173,
                    "duration": 0.10869575000000253
                },
                {
                    "name": "C5",
                    "midi": 72,
                    "time": 50.326132250000306,
                    "velocity": 0.31496062992125984,
                    "duration": 0.10869575000000253
                },
                {
                    "name": "A4",
                    "midi": 69,
                    "time": 50.43482800000031,
                    "velocity": 0.4094488188976378,
                    "duration": 0.10869575000000253
                },
                {
                    "name": "G4",
                    "midi": 67,
                    "time": 50.54352375000031,
                    "velocity": 0.33070866141732286,
                    "duration": 0.10869575000000253
                },
                {
                    "name": "F#4",
                    "midi": 66,
                    "time": 50.652219500000314,
                    "velocity": 0.3858267716535433,
                    "duration": 0.10869575000000253
                },
                {
                    "name": "A4",
                    "midi": 69,
                    "time": 50.760915250000316,
                    "velocity": 0.33858267716535434,
                    "duration": 0.10869575000000253
                },
                {
                    "name": "C5",
                    "midi": 72,
                    "time": 50.86961100000032,
                    "velocity": 0.3779527559055118,
                    "duration": 0.10869575000000253
                },
                {
                    "name": "B4",
                    "midi": 71,
                    "time": 50.97830675000032,
                    "velocity": 0.31496062992125984,
                    "duration": 0.10869575000000253
                },
                {
                    "name": "A4",
                    "midi": 69,
                    "time": 51.087002500000324,
                    "velocity": 0.3543307086614173,
                    "duration": 0.10869575000000253
                },
                {
                    "name": "C5",
                    "midi": 72,
                    "time": 51.195698250000326,
                    "velocity": 0.31496062992125984,
                    "duration": 0.10869575000000253
                },
                {
                    "name": "D4",
                    "midi": 62,
                    "time": 51.30439400000033,
                    "velocity": 0.31496062992125984,
                    "duration": 0.21739149999999796
                },
                {
                    "name": "G4",
                    "midi": 67,
                    "time": 51.30439400000033,
                    "velocity": 0.36220472440944884,
                    "duration": 0.21739149999999796
                },
                {
                    "name": "D7",
                    "midi": 98,
                    "time": 51.52178550000033,
                    "velocity": 0.4094488188976378,
                    "duration": 0.10869575000000253
                },
                {
                    "name": "C7",
                    "midi": 96,
                    "time": 51.63048125000033,
                    "velocity": 0.3700787401574803,
                    "duration": 0.10869575000000253
                },
                {
                    "name": "D7",
                    "midi": 98,
                    "time": 51.73917700000033,
                    "velocity": 0.31496062992125984,
                    "duration": 0.10869575000000253
                },
                {
                    "name": "C7",
                    "midi": 96,
                    "time": 51.847872750000334,
                    "velocity": 0.31496062992125984,
                    "duration": 0.10869575000000253
                },
                {
                    "name": "B6",
                    "midi": 95,
                    "time": 51.95656850000034,
                    "velocity": 0.3543307086614173,
                    "duration": 0.10869575000000253
                },
                {
                    "name": "D7",
                    "midi": 98,
                    "time": 52.06526425000034,
                    "velocity": 0.31496062992125984,
                    "duration": 0.10869575000000253
                },
                {
                    "name": "B6",
                    "midi": 95,
                    "time": 52.17396000000034,
                    "velocity": 0.4094488188976378,
                    "duration": 0.10869575000000253
                },
                {
                    "name": "A6",
                    "midi": 93,
                    "time": 52.282655750000345,
                    "velocity": 0.33070866141732286,
                    "duration": 0.10869575000000253
                },
                {
                    "name": "G6",
                    "midi": 91,
                    "time": 52.39135150000035,
                    "velocity": 0.3858267716535433,
                    "duration": 0.10869575000000253
                },
                {
                    "name": "B6",
                    "midi": 95,
                    "time": 52.50004725000035,
                    "velocity": 0.33858267716535434,
                    "duration": 0.10869575000000253
                },
                {
                    "name": "B5",
                    "midi": 83,
                    "time": 52.60874300000035,
                    "velocity": 0.3779527559055118,
                    "duration": 0.10869575000000253
                },
                {
                    "name": "A5",
                    "midi": 81,
                    "time": 52.717438750000355,
                    "velocity": 0.31496062992125984,
                    "duration": 0.10869575000000253
                },
                {
                    "name": "G5",
                    "midi": 79,
                    "time": 52.82613450000036,
                    "velocity": 0.3543307086614173,
                    "duration": 0.10869575000000253
                },
                {
                    "name": "B5",
                    "midi": 83,
                    "time": 52.93483025000036,
                    "velocity": 0.31496062992125984,
                    "duration": 0.10869575000000253
                },
                {
                    "name": "D5",
                    "midi": 74,
                    "time": 53.04352600000036,
                    "velocity": 0.4094488188976378,
                    "duration": 0.10869575000000253
                },
                {
                    "name": "C5",
                    "midi": 72,
                    "time": 53.152221750000365,
                    "velocity": 0.33070866141732286,
                    "duration": 0.10869575000000253
                },
                {
                    "name": "B4",
                    "midi": 71,
                    "time": 53.26091750000037,
                    "velocity": 0.3858267716535433,
                    "duration": 0.10869575000000253
                },
                {
                    "name": "D5",
                    "midi": 74,
                    "time": 53.36961325000037,
                    "velocity": 0.33858267716535434,
                    "duration": 0.10869575000000253
                },
                {
                    "name": "B5",
                    "midi": 83,
                    "time": 53.47830900000037,
                    "velocity": 0.3779527559055118,
                    "duration": 0.10869575000000253
                },
                {
                    "name": "A5",
                    "midi": 81,
                    "time": 53.587004750000375,
                    "velocity": 0.31496062992125984,
                    "duration": 0.10869575000000253
                },
                {
                    "name": "G5",
                    "midi": 79,
                    "time": 53.69570050000038,
                    "velocity": 0.3543307086614173,
                    "duration": 0.10869575000000253
                },
                {
                    "name": "B5",
                    "midi": 83,
                    "time": 53.80439625000038,
                    "velocity": 0.31496062992125984,
                    "duration": 0.10869575000000253
                },
                {
                    "name": "D6",
                    "midi": 86,
                    "time": 53.91309200000038,
                    "velocity": 0.4881889763779528,
                    "duration": 0.10869575000000253
                },
                {
                    "name": "C6",
                    "midi": 84,
                    "time": 54.021787750000385,
                    "velocity": 0.4015748031496063,
                    "duration": 0.10869575000000253
                },
                {
                    "name": "B5",
                    "midi": 83,
                    "time": 54.13048350000039,
                    "velocity": 0.48031496062992124,
                    "duration": 0.10869575000000253
                },
                {
                    "name": "C6",
                    "midi": 84,
                    "time": 54.23917925000039,
                    "velocity": 0.4094488188976378,
                    "duration": 0.10869575000000253
                },
                {
                    "name": "E6",
                    "midi": 88,
                    "time": 54.34787500000039,
                    "velocity": 0.4881889763779528,
                    "duration": 0.21739149999999796
                },
                {
                    "name": "F#6",
                    "midi": 90,
                    "time": 54.56526650000039,
                    "velocity": 0.4015748031496063,
                    "duration": 0.21739149999999796
                },
                {
                    "name": "A5",
                    "midi": 81,
                    "time": 54.56526650000039,
                    "velocity": 0.4015748031496063,
                    "duration": 0.21739149999999796
                },
                {
                    "name": "D6",
                    "midi": 86,
                    "time": 54.56526650000039,
                    "velocity": 0.4015748031496063,
                    "duration": 0.21739149999999796
                },
                {
                    "name": "G6",
                    "midi": 91,
                    "time": 54.78265800000039,
                    "velocity": 0.4015748031496063,
                    "duration": 0.21739149999999796
                },
                {
                    "name": "G5",
                    "midi": 79,
                    "time": 54.78265800000039,
                    "velocity": 0.4015748031496063,
                    "duration": 0.21739149999999796
                },
                {
                    "name": "D6",
                    "midi": 86,
                    "time": 54.78265800000039,
                    "velocity": 0.4015748031496063,
                    "duration": 0.21739149999999796
                },
                {
                    "name": "A4",
                    "midi": 69,
                    "time": 55.869615500000386,
                    "velocity": 0.31496062992125984,
                    "duration": 0.21739149999999796
                },
                {
                    "name": "F#4",
                    "midi": 66,
                    "time": 55.869615500000386,
                    "velocity": 0.2677165354330709,
                    "duration": 0.21739149999999796
                },
                {
                    "name": "G4",
                    "midi": 67,
                    "time": 56.08700700000038,
                    "velocity": 0.25196850393700787,
                    "duration": 0.10869575000000253
                },
                {
                    "name": "B4",
                    "midi": 71,
                    "time": 56.08700700000038,
                    "velocity": 0.2992125984251969,
                    "duration": 0.10869575000000253
                },
                {
                    "name": "G6",
                    "midi": 91,
                    "time": 56.30439850000039,
                    "velocity": 0.3700787401574803,
                    "duration": 0.10869575000000253
                },
                {
                    "name": "B5",
                    "midi": 83,
                    "time": 56.30439850000039,
                    "velocity": 0.30708661417322836,
                    "duration": 0.10869575000000253
                },
                {
                    "name": "F#6",
                    "midi": 90,
                    "time": 56.41309425000039,
                    "velocity": 0.3464566929133858,
                    "duration": 0.10869575000000253
                },
                {
                    "name": "A5",
                    "midi": 81,
                    "time": 56.41309425000039,
                    "velocity": 0.29133858267716534,
                    "duration": 0.10869575000000253
                },
                {
                    "name": "G6",
                    "midi": 91,
                    "time": 56.521790000000394,
                    "velocity": 0.3700787401574803,
                    "duration": 0.21739149999999796
                },
                {
                    "name": "B5",
                    "midi": 83,
                    "time": 56.521790000000394,
                    "velocity": 0.30708661417322836,
                    "duration": 0.21739149999999796
                },
                {
                    "name": "B5",
                    "midi": 83,
                    "time": 56.73918150000039,
                    "velocity": 0.25984251968503935,
                    "duration": 0.21739149999999796
                },
                {
                    "name": "G5",
                    "midi": 79,
                    "time": 56.73918150000039,
                    "velocity": 0.25984251968503935,
                    "duration": 0.21739149999999796
                },
                {
                    "name": "E6",
                    "midi": 88,
                    "time": 56.73918150000039,
                    "velocity": 0.30708661417322836,
                    "duration": 0.21739149999999796
                },
                {
                    "name": "D6",
                    "midi": 86,
                    "time": 56.95657300000039,
                    "velocity": 0.33070866141732286,
                    "duration": 0.21739149999999796
                },
                {
                    "name": "A5",
                    "midi": 81,
                    "time": 56.95657300000039,
                    "velocity": 0.2755905511811024,
                    "duration": 0.21739149999999796
                },
                {
                    "name": "F#5",
                    "midi": 78,
                    "time": 56.95657300000039,
                    "velocity": 0.2755905511811024,
                    "duration": 0.21739149999999796
                },
                {
                    "name": "C#6",
                    "midi": 85,
                    "time": 57.17396450000039,
                    "velocity": 0.31496062992125984,
                    "duration": 0.21739149999999796
                },
                {
                    "name": "G5",
                    "midi": 79,
                    "time": 57.17396450000039,
                    "velocity": 0.23622047244094488,
                    "duration": 0.21739149999999796
                },
                {
                    "name": "E5",
                    "midi": 76,
                    "time": 57.17396450000039,
                    "velocity": 0.23622047244094488,
                    "duration": 0.21739149999999796
                },
                {
                    "name": "G5",
                    "midi": 79,
                    "time": 57.391356000000386,
                    "velocity": 0.2992125984251969,
                    "duration": 0.21739149999999796
                },
                {
                    "name": "E6",
                    "midi": 88,
                    "time": 57.391356000000386,
                    "velocity": 0.3543307086614173,
                    "duration": 0.21739149999999796
                },
                {
                    "name": "F#5",
                    "midi": 78,
                    "time": 57.60874750000038,
                    "velocity": 0.23622047244094488,
                    "duration": 0.21557990416666684
                },
                {
                    "name": "D6",
                    "midi": 86,
                    "time": 57.60874750000038,
                    "velocity": 0.28346456692913385,
                    "duration": 0.21557990416666684
                },
                {
                    "name": "D6",
                    "midi": 86,
                    "time": 57.82613900000038,
                    "velocity": 0.28346456692913385,
                    "duration": 0.21739149999999796
                },
                {
                    "name": "F#5",
                    "midi": 78,
                    "time": 57.82613900000038,
                    "velocity": 0.23622047244094488,
                    "duration": 0.21739149999999796
                },
                {
                    "name": "G5",
                    "midi": 79,
                    "time": 58.04353050000038,
                    "velocity": 0.2992125984251969,
                    "duration": 0.10869575000000253
                },
                {
                    "name": "D6",
                    "midi": 86,
                    "time": 58.04353050000038,
                    "velocity": 0.3543307086614173,
                    "duration": 0.10869575000000253
                },
                {
                    "name": "C6",
                    "midi": 84,
                    "time": 58.15222625000038,
                    "velocity": 0.31496062992125984,
                    "duration": 0.10869575000000253
                },
                {
                    "name": "A5",
                    "midi": 81,
                    "time": 58.15222625000038,
                    "velocity": 0.2677165354330709,
                    "duration": 0.10869575000000253
                },
                {
                    "name": "B5",
                    "midi": 83,
                    "time": 58.260922000000384,
                    "velocity": 0.36220472440944884,
                    "duration": 0.21739149999999796
                },
                {
                    "name": "G5",
                    "midi": 79,
                    "time": 58.47831350000038,
                    "velocity": 0.33858267716535434,
                    "duration": 0.3260872500000076
                },
                {
                    "name": "G6",
                    "midi": 91,
                    "time": 58.47831350000038,
                    "velocity": 0.4015748031496063,
                    "duration": 0.10869575000000253
                },
                {
                    "name": "E6",
                    "midi": 88,
                    "time": 58.69570500000039,
                    "velocity": 0.36220472440944884,
                    "duration": 0.10869575000000253
                },
                {
                    "name": "C7",
                    "midi": 96,
                    "time": 58.91309650000039,
                    "velocity": 0.4015748031496063,
                    "duration": 0.10869575000000253
                },
                {
                    "name": "C6",
                    "midi": 84,
                    "time": 58.91309650000039,
                    "velocity": 0.33858267716535434,
                    "duration": 0.10869575000000253
                },
                {
                    "name": "A6",
                    "midi": 93,
                    "time": 59.021792250000395,
                    "velocity": 0.3464566929133858,
                    "duration": 0.10869575000000253
                },
                {
                    "name": "E6",
                    "midi": 88,
                    "time": 59.021792250000395,
                    "velocity": 0.29133858267716534,
                    "duration": 0.10869575000000253
                },
                {
                    "name": "F#6",
                    "midi": 90,
                    "time": 59.1304880000004,
                    "velocity": 0.4015748031496063,
                    "duration": 0.21739149999999796
                },
                {
                    "name": "D6",
                    "midi": 86,
                    "time": 59.347879500000396,
                    "velocity": 0.3700787401574803,
                    "duration": 0.3260872500000005
                },
                {
                    "name": "D7",
                    "midi": 98,
                    "time": 59.347879500000396,
                    "velocity": 0.4409448818897638,
                    "duration": 0.21739149999999796
                },
                {
                    "name": "B6",
                    "midi": 95,
                    "time": 59.56527100000039,
                    "velocity": 0.41732283464566927,
                    "duration": 0.10869575000000253
                },
                {
                    "name": "G6",
                    "midi": 91,
                    "time": 59.7826625000004,
                    "velocity": 0.4094488188976378,
                    "duration": 0.10869575000000253
                },
                {
                    "name": "F#6",
                    "midi": 90,
                    "time": 59.8913582500004,
                    "velocity": 0.3543307086614173,
                    "duration": 0.10869575000000253
                },
                {
                    "name": "G6",
                    "midi": 91,
                    "time": 60.000054000000404,
                    "velocity": 0.4094488188976378,
                    "duration": 0.21739149999999796
                },
                {
                    "name": "E6",
                    "midi": 88,
                    "time": 60.2174455000004,
                    "velocity": 0.3700787401574803,
                    "duration": 0.21739149999999796
                },
                {
                    "name": "C6",
                    "midi": 84,
                    "time": 60.4348370000004,
                    "velocity": 0.4015748031496063,
                    "duration": 0.21739149999999796
                },
                {
                    "name": "F#5",
                    "midi": 78,
                    "time": 60.6522285000004,
                    "velocity": 0.29133858267716534,
                    "duration": 0.21739149999999796
                },
                {
                    "name": "B5",
                    "midi": 83,
                    "time": 60.6522285000004,
                    "velocity": 0.3464566929133858,
                    "duration": 0.21739149999999796
                },
                {
                    "name": "B5",
                    "midi": 83,
                    "time": 60.869620000000396,
                    "velocity": 0.3464566929133858,
                    "duration": 0.6521744999999939
                },
                {
                    "name": "F#5",
                    "midi": 78,
                    "time": 60.869620000000396,
                    "velocity": 0.3464566929133858,
                    "duration": 0.21739149999999796
                },
                {
                    "name": "A5",
                    "midi": 81,
                    "time": 61.08701150000039,
                    "velocity": 0.3937007874015748,
                    "duration": 0.10869575000000253
                },
                {
                    "name": "G5",
                    "midi": 79,
                    "time": 61.195707250000396,
                    "velocity": 0.3464566929133858,
                    "duration": 0.1068841541666643
                },
                {
                    "name": "G5",
                    "midi": 79,
                    "time": 61.30440300000039,
                    "velocity": 0.3858267716535433,
                    "duration": 0.21739149999999796
                },
                {
                    "name": "E6",
                    "midi": 88,
                    "time": 61.52179450000039,
                    "velocity": 0.4330708661417323,
                    "duration": 0.21739149999999796
                },
                {
                    "name": "G5",
                    "midi": 79,
                    "time": 61.52179450000039,
                    "velocity": 0.36220472440944884,
                    "duration": 0.4347829999999959
                },
                {
                    "name": "A#5",
                    "midi": 82,
                    "time": 61.52179450000039,
                    "velocity": 0.36220472440944884,
                    "duration": 0.21739149999999796
                },
                {
                    "name": "A5",
                    "midi": 81,
                    "time": 61.73918600000039,
                    "velocity": 0.3464566929133858,
                    "duration": 0.652174500000001
                },
                {
                    "name": "G5",
                    "midi": 79,
                    "time": 61.956577500000385,
                    "velocity": 0.3937007874015748,
                    "duration": 0.10869575000000253
                },
                {
                    "name": "F5",
                    "midi": 77,
                    "time": 62.06527325000039,
                    "velocity": 0.3464566929133858,
                    "duration": 0.10869575000000253
                },
                {
                    "name": "F5",
                    "midi": 77,
                    "time": 62.17396900000039,
                    "velocity": 0.3858267716535433,
                    "duration": 0.21739149999999796
                },
                {
                    "name": "F5",
                    "midi": 77,
                    "time": 62.39136050000039,
                    "velocity": 0.4330708661417323,
                    "duration": 0.4347829999999959
                },
                {
                    "name": "G#5",
                    "midi": 80,
                    "time": 62.39136050000039,
                    "velocity": 0.4330708661417323,
                    "duration": 0.21739149999999796
                },
                {
                    "name": "D6",
                    "midi": 86,
                    "time": 62.39136050000039,
                    "velocity": 0.4330708661417323,
                    "duration": 0.21739149999999796
                },
                {
                    "name": "G5",
                    "midi": 79,
                    "time": 62.608752000000386,
                    "velocity": 0.3464566929133858,
                    "duration": 0.6521744999999939
                },
                {
                    "name": "F5",
                    "midi": 77,
                    "time": 62.826143500000384,
                    "velocity": 0.3937007874015748,
                    "duration": 0.10869575000000253
                },
                {
                    "name": "E5",
                    "midi": 76,
                    "time": 62.93483925000039,
                    "velocity": 0.3464566929133858,
                    "duration": 0.1068841541666643
                },
                {
                    "name": "E5",
                    "midi": 76,
                    "time": 63.04353500000038,
                    "velocity": 0.3858267716535433,
                    "duration": 0.21739149999999796
                },
                {
                    "name": "C#6",
                    "midi": 85,
                    "time": 63.26092650000038,
                    "velocity": 0.4330708661417323,
                    "duration": 0.21739149999999796
                },
                {
                    "name": "E5",
                    "midi": 76,
                    "time": 63.26092650000038,
                    "velocity": 0.36220472440944884,
                    "duration": 0.4347829999999959
                },
                {
                    "name": "G5",
                    "midi": 79,
                    "time": 63.26092650000038,
                    "velocity": 0.36220472440944884,
                    "duration": 0.21739149999999796
                },
                {
                    "name": "F#5",
                    "midi": 78,
                    "time": 63.47831800000038,
                    "velocity": 0.3464566929133858,
                    "duration": 0.6521745000000081
                },
                {
                    "name": "E5",
                    "midi": 76,
                    "time": 63.695709500000376,
                    "velocity": 0.3937007874015748,
                    "duration": 0.10869575000000253
                },
                {
                    "name": "D#5",
                    "midi": 75,
                    "time": 63.80440525000038,
                    "velocity": 0.3464566929133858,
                    "duration": 0.10869575000000253
                },
                {
                    "name": "D5",
                    "midi": 74,
                    "time": 63.91310100000038,
                    "velocity": 0.3858267716535433,
                    "duration": 0.21739150000000507
                },
                {
                    "name": "F5",
                    "midi": 77,
                    "time": 64.13049250000039,
                    "velocity": 0.36220472440944884,
                    "duration": 0.21739150000000507
                },
                {
                    "name": "D5",
                    "midi": 74,
                    "time": 64.13049250000039,
                    "velocity": 0.36220472440944884,
                    "duration": 0.21739150000000507
                },
                {
                    "name": "B5",
                    "midi": 83,
                    "time": 64.13049250000039,
                    "velocity": 0.4330708661417323,
                    "duration": 0.21739150000000507
                },
                {
                    "name": "D5",
                    "midi": 74,
                    "time": 64.34788400000039,
                    "velocity": 0.36220472440944884,
                    "duration": 0.21739149999999086
                },
                {
                    "name": "F5",
                    "midi": 77,
                    "time": 64.34788400000039,
                    "velocity": 0.4330708661417323,
                    "duration": 0.10869574999999543
                },
                {
                    "name": "E5",
                    "midi": 76,
                    "time": 64.45657975000039,
                    "velocity": 0.36220472440944884,
                    "duration": 0.21739149999999086
                },
                {
                    "name": "C#5",
                    "midi": 73,
                    "time": 64.56527550000038,
                    "velocity": 0.36220472440944884,
                    "duration": 0.21739149999999086
                },
                {
                    "name": "A5",
                    "midi": 81,
                    "time": 64.67397125000038,
                    "velocity": 0.3779527559055118,
                    "duration": 0.10869574999999543
                },
                {
                    "name": "C5",
                    "midi": 72,
                    "time": 64.78266700000037,
                    "velocity": 0.36220472440944884,
                    "duration": 0.21739149999999086
                },
                {
                    "name": "D#5",
                    "midi": 75,
                    "time": 64.78266700000037,
                    "velocity": 0.4330708661417323,
                    "duration": 0.10869574999999543
                },
                {
                    "name": "D5",
                    "midi": 74,
                    "time": 64.89136275000037,
                    "velocity": 0.3700787401574803,
                    "duration": 0.21739149999999086
                },
                {
                    "name": "B4",
                    "midi": 71,
                    "time": 65.00005850000036,
                    "velocity": 0.36220472440944884,
                    "duration": 0.21739149999999086
                },
                {
                    "name": "G5",
                    "midi": 79,
                    "time": 65.10875425000036,
                    "velocity": 0.3858267716535433,
                    "duration": 0.10869574999999543
                },
                {
                    "name": "D5",
                    "midi": 74,
                    "time": 65.21745000000035,
                    "velocity": 0.4409448818897638,
                    "duration": 0.10869574999999543
                },
                {
                    "name": "D6",
                    "midi": 86,
                    "time": 65.32614575000035,
                    "velocity": 0.3464566929133858,
                    "duration": 0.10869574999999543
                },
                {
                    "name": "C#6",
                    "midi": 85,
                    "time": 65.43484150000035,
                    "velocity": 0.3543307086614173,
                    "duration": 0.10869574999999543
                },
                {
                    "name": "C6",
                    "midi": 84,
                    "time": 65.54353725000034,
                    "velocity": 0.36220472440944884,
                    "duration": 0.10869574999999543
                },
                {
                    "name": "A5",
                    "midi": 81,
                    "time": 65.65223300000034,
                    "velocity": 0.3700787401574803,
                    "duration": 0.10869574999999543
                },
                {
                    "name": "F#5",
                    "midi": 78,
                    "time": 65.76092875000033,
                    "velocity": 0.3700787401574803,
                    "duration": 0.10869574999999543
                },
                {
                    "name": "D#5",
                    "midi": 75,
                    "time": 65.86962450000033,
                    "velocity": 0.3779527559055118,
                    "duration": 0.10869574999999543
                },
                {
                    "name": "D5",
                    "midi": 74,
                    "time": 65.97832025000032,
                    "velocity": 0.3858267716535433,
                    "duration": 0.10869574999999543
                },
                {
                    "name": "C#5",
                    "midi": 73,
                    "time": 66.08701600000032,
                    "velocity": 0.3937007874015748,
                    "duration": 0.10869574999999543
                },
                {
                    "name": "C5",
                    "midi": 72,
                    "time": 66.19571175000031,
                    "velocity": 0.4015748031496063,
                    "duration": 0.10869574999999543
                },
                {
                    "name": "A4",
                    "midi": 69,
                    "time": 66.30440750000031,
                    "velocity": 0.4094488188976378,
                    "duration": 0.10869574999999543
                },
                {
                    "name": "F#4",
                    "midi": 66,
                    "time": 66.4131032500003,
                    "velocity": 0.41732283464566927,
                    "duration": 0.10869574999999543
                },
                {
                    "name": "D#4",
                    "midi": 63,
                    "time": 66.5217990000003,
                    "velocity": 0.48031496062992124,
                    "duration": 0.10869574999999543
                },
                {
                    "name": "G4",
                    "midi": 67,
                    "time": 66.5217990000003,
                    "velocity": 0.4015748031496063,
                    "duration": 0.21739149999999086
                },
                {
                    "name": "D4",
                    "midi": 62,
                    "time": 66.6304947500003,
                    "velocity": 0.3700787401574803,
                    "duration": 0.10869574999999543
                },
                {
                    "name": "E5",
                    "midi": 76,
                    "time": 66.73919050000029,
                    "velocity": 0.4566929133858268,
                    "duration": 0.10869574999999543
                },
                {
                    "name": "G4",
                    "midi": 67,
                    "time": 66.73919050000029,
                    "velocity": 0.3858267716535433,
                    "duration": 0.21739149999999086
                },
                {
                    "name": "D5",
                    "midi": 74,
                    "time": 66.84788625000029,
                    "velocity": 0.3700787401574803,
                    "duration": 0.10869574999999543
                },
                {
                    "name": "D5",
                    "midi": 74,
                    "time": 66.95658200000028,
                    "velocity": 0.4409448818897638,
                    "duration": 0.10869574999999543
                },
                {
                    "name": "D6",
                    "midi": 86,
                    "time": 67.06527775000028,
                    "velocity": 0.3464566929133858,
                    "duration": 0.10869574999999543
                },
                {
                    "name": "C#6",
                    "midi": 85,
                    "time": 67.17397350000027,
                    "velocity": 0.3543307086614173,
                    "duration": 0.10869574999999543
                },
                {
                    "name": "C6",
                    "midi": 84,
                    "time": 67.28266925000027,
                    "velocity": 0.36220472440944884,
                    "duration": 0.10869574999999543
                },
                {
                    "name": "A5",
                    "midi": 81,
                    "time": 67.39136500000026,
                    "velocity": 0.3700787401574803,
                    "duration": 0.10869574999999543
                },
                {
                    "name": "F#5",
                    "midi": 78,
                    "time": 67.50006075000026,
                    "velocity": 0.3700787401574803,
                    "duration": 0.10869574999999543
                },
                {
                    "name": "D#5",
                    "midi": 75,
                    "time": 67.60875650000025,
                    "velocity": 0.3779527559055118,
                    "duration": 0.10869574999999543
                },
                {
                    "name": "D5",
                    "midi": 74,
                    "time": 67.71745225000025,
                    "velocity": 0.3858267716535433,
                    "duration": 0.10869574999999543
                },
                {
                    "name": "C#5",
                    "midi": 73,
                    "time": 67.82614800000025,
                    "velocity": 0.3937007874015748,
                    "duration": 0.10869574999999543
                },
                {
                    "name": "C5",
                    "midi": 72,
                    "time": 67.93484375000024,
                    "velocity": 0.4015748031496063,
                    "duration": 0.10869574999999543
                },
                {
                    "name": "A4",
                    "midi": 69,
                    "time": 68.04353950000024,
                    "velocity": 0.4094488188976378,
                    "duration": 0.10869574999999543
                },
                {
                    "name": "F#4",
                    "midi": 66,
                    "time": 68.15223525000023,
                    "velocity": 0.41732283464566927,
                    "duration": 0.10869574999999543
                },
                {
                    "name": "G4",
                    "midi": 67,
                    "time": 68.26093100000023,
                    "velocity": 0.4015748031496063,
                    "duration": 0.21739149999999086
                },
                {
                    "name": "D#4",
                    "midi": 63,
                    "time": 68.26093100000023,
                    "velocity": 0.48031496062992124,
                    "duration": 0.10869574999999543
                },
                {
                    "name": "D4",
                    "midi": 62,
                    "time": 68.36962675000022,
                    "velocity": 0.3700787401574803,
                    "duration": 0.10869574999999543
                },
                {
                    "name": "E5",
                    "midi": 76,
                    "time": 68.47832250000022,
                    "velocity": 0.4566929133858268,
                    "duration": 0.10869574999999543
                },
                {
                    "name": "G4",
                    "midi": 67,
                    "time": 68.47832250000022,
                    "velocity": 0.3858267716535433,
                    "duration": 0.21739149999999086
                },
                {
                    "name": "D5",
                    "midi": 74,
                    "time": 68.58701825000021,
                    "velocity": 0.3700787401574803,
                    "duration": 0.10869574999999543
                },
                {
                    "name": "D5",
                    "midi": 74,
                    "time": 68.69571400000021,
                    "velocity": 0.4094488188976378,
                    "duration": 0.10869574999999543
                },
                {
                    "name": "B4",
                    "midi": 71,
                    "time": 68.8044097500002,
                    "velocity": 0.3543307086614173,
                    "duration": 0.10869574999999543
                },
                {
                    "name": "G5",
                    "midi": 79,
                    "time": 68.8044097500002,
                    "velocity": 0.4251968503937008,
                    "duration": 0.10869574999999543
                },
                {
                    "name": "B5",
                    "midi": 83,
                    "time": 68.9131055000002,
                    "velocity": 0.4566929133858268,
                    "duration": 0.10869574999999543
                },
                {
                    "name": "D5",
                    "midi": 74,
                    "time": 68.9131055000002,
                    "velocity": 0.3858267716535433,
                    "duration": 0.10869574999999543
                },
                {
                    "name": "C5",
                    "midi": 72,
                    "time": 69.0218012500002,
                    "velocity": 0.3464566929133858,
                    "duration": 0.10869574999999543
                },
                {
                    "name": "A5",
                    "midi": 81,
                    "time": 69.0218012500002,
                    "velocity": 0.4094488188976378,
                    "duration": 0.10869574999999543
                },
                {
                    "name": "B4",
                    "midi": 71,
                    "time": 69.13049700000019,
                    "velocity": 0.4566929133858268,
                    "duration": 0.10869574999999543
                },
                {
                    "name": "G5",
                    "midi": 79,
                    "time": 69.13049700000019,
                    "velocity": 0.4566929133858268,
                    "duration": 0.8695659999999634
                },
                {
                    "name": "D#5",
                    "midi": 75,
                    "time": 69.23919275000019,
                    "velocity": 0.3937007874015748,
                    "duration": 0.10869574999999543
                },
                {
                    "name": "E5",
                    "midi": 76,
                    "time": 69.34788850000018,
                    "velocity": 0.4330708661417323,
                    "duration": 0.10869574999999543
                },
                {
                    "name": "B4",
                    "midi": 71,
                    "time": 69.45658425000018,
                    "velocity": 0.3937007874015748,
                    "duration": 0.10869574999999543
                },
                {
                    "name": "A#4",
                    "midi": 70,
                    "time": 69.56528000000017,
                    "velocity": 0.4251968503937008,
                    "duration": 0.10869574999999543
                },
                {
                    "name": "D#5",
                    "midi": 75,
                    "time": 69.67397575000017,
                    "velocity": 0.4566929133858268,
                    "duration": 0.10869574999999543
                },
                {
                    "name": "E5",
                    "midi": 76,
                    "time": 69.78267150000016,
                    "velocity": 0.4566929133858268,
                    "duration": 0.10869574999999543
                },
                {
                    "name": "A#4",
                    "midi": 70,
                    "time": 69.89136725000016,
                    "velocity": 0.41732283464566927,
                    "duration": 0.10869574999999543
                },
                {
                    "name": "A4",
                    "midi": 69,
                    "time": 70.00006300000015,
                    "velocity": 0.4409448818897638,
                    "duration": 0.10869574999999543
                },
                {
                    "name": "C#5",
                    "midi": 73,
                    "time": 70.10875875000015,
                    "velocity": 0.3937007874015748,
                    "duration": 0.10869574999999543
                },
                {
                    "name": "D5",
                    "midi": 74,
                    "time": 70.21745450000014,
                    "velocity": 0.47244094488188976,
                    "duration": 0.10869574999999543
                },
                {
                    "name": "D6",
                    "midi": 86,
                    "time": 70.32615025000014,
                    "velocity": 0.4251968503937008,
                    "duration": 0.10869574999999543
                },
                {
                    "name": "D6",
                    "midi": 86,
                    "time": 70.43484600000014,
                    "velocity": 0.48031496062992124,
                    "duration": 0.10869574999999543
                },
                {
                    "name": "D7",
                    "midi": 98,
                    "time": 70.54354175000013,
                    "velocity": 0.3779527559055118,
                    "duration": 0.10869574999999543
                },
                {
                    "name": "C#7",
                    "midi": 97,
                    "time": 70.65223750000013,
                    "velocity": 0.3858267716535433,
                    "duration": 0.10869574999999543
                },
                {
                    "name": "C7",
                    "midi": 96,
                    "time": 70.76093325000012,
                    "velocity": 0.3937007874015748,
                    "duration": 0.10869574999999543
                },
                {
                    "name": "A6",
                    "midi": 93,
                    "time": 70.86962900000012,
                    "velocity": 0.4015748031496063,
                    "duration": 0.10869574999999543
                },
                {
                    "name": "F#6",
                    "midi": 90,
                    "time": 70.97832475000011,
                    "velocity": 0.4015748031496063,
                    "duration": 0.10869574999999543
                },
                {
                    "name": "D#6",
                    "midi": 87,
                    "time": 71.08702050000011,
                    "velocity": 0.4094488188976378,
                    "duration": 0.10869574999999543
                },
                {
                    "name": "D6",
                    "midi": 86,
                    "time": 71.1957162500001,
                    "velocity": 0.41732283464566927,
                    "duration": 0.10869574999999543
                },
                {
                    "name": "C#6",
                    "midi": 85,
                    "time": 71.3044120000001,
                    "velocity": 0.4330708661417323,
                    "duration": 0.10869574999999543
                },
                {
                    "name": "C6",
                    "midi": 84,
                    "time": 71.4131077500001,
                    "velocity": 0.47244094488188976,
                    "duration": 0.10869574999999543
                },
                {
                    "name": "A5",
                    "midi": 81,
                    "time": 71.52180350000009,
                    "velocity": 0.5039370078740157,
                    "duration": 0.10869574999999543
                },
                {
                    "name": "F#5",
                    "midi": 78,
                    "time": 71.63049925000008,
                    "velocity": 0.5275590551181102,
                    "duration": 0.10869574999999543
                },
                {
                    "name": "D#5",
                    "midi": 75,
                    "time": 71.73919500000008,
                    "velocity": 0.5669291338582677,
                    "duration": 0.10869574999999543
                },
                {
                    "name": "G5",
                    "midi": 79,
                    "time": 71.73919500000008,
                    "velocity": 0.47244094488188976,
                    "duration": 0.21739149999999086
                },
                {
                    "name": "D5",
                    "midi": 74,
                    "time": 71.84789075000008,
                    "velocity": 0.4015748031496063,
                    "duration": 0.10869574999999543
                },
                {
                    "name": "G5",
                    "midi": 79,
                    "time": 71.95658650000007,
                    "velocity": 0.41732283464566927,
                    "duration": 0.21739149999999086
                },
                {
                    "name": "E6",
                    "midi": 88,
                    "time": 71.95658650000007,
                    "velocity": 0.49606299212598426,
                    "duration": 0.10869574999999543
                },
                {
                    "name": "D6",
                    "midi": 86,
                    "time": 72.06528225000007,
                    "velocity": 0.4015748031496063,
                    "duration": 0.10869574999999543
                },
                {
                    "name": "D6",
                    "midi": 86,
                    "time": 72.17397800000006,
                    "velocity": 0.48031496062992124,
                    "duration": 0.10869574999999543
                },
                {
                    "name": "D7",
                    "midi": 98,
                    "time": 72.28267375000006,
                    "velocity": 0.3779527559055118,
                    "duration": 0.10869574999999543
                },
                {
                    "name": "C#7",
                    "midi": 97,
                    "time": 72.39136950000005,
                    "velocity": 0.3858267716535433,
                    "duration": 0.10869574999999543
                },
                {
                    "name": "C7",
                    "midi": 96,
                    "time": 72.50006525000005,
                    "velocity": 0.3937007874015748,
                    "duration": 0.10869574999999543
                },
                {
                    "name": "A6",
                    "midi": 93,
                    "time": 72.60876100000004,
                    "velocity": 0.4015748031496063,
                    "duration": 0.10869574999999543
                },
                {
                    "name": "F#6",
                    "midi": 90,
                    "time": 72.71745675000004,
                    "velocity": 0.4015748031496063,
                    "duration": 0.10869574999999543
                },
                {
                    "name": "D#6",
                    "midi": 87,
                    "time": 72.82615250000003,
                    "velocity": 0.4094488188976378,
                    "duration": 0.10869574999999543
                },
                {
                    "name": "D6",
                    "midi": 86,
                    "time": 72.93484825000003,
                    "velocity": 0.41732283464566927,
                    "duration": 0.10869574999999543
                },
                {
                    "name": "C#6",
                    "midi": 85,
                    "time": 73.04354400000003,
                    "velocity": 0.44881889763779526,
                    "duration": 0.10869574999999543
                },
                {
                    "name": "C6",
                    "midi": 84,
                    "time": 73.15223975000002,
                    "velocity": 0.4645669291338583,
                    "duration": 0.10869574999999543
                },
                {
                    "name": "A5",
                    "midi": 81,
                    "time": 73.26093550000002,
                    "velocity": 0.48031496062992124,
                    "duration": 0.10869574999999543
                },
                {
                    "name": "F#5",
                    "midi": 78,
                    "time": 73.36963125000001,
                    "velocity": 0.49606299212598426,
                    "duration": 0.10869574999999543
                },
                {
                    "name": "G5",
                    "midi": 79,
                    "time": 73.47832700000001,
                    "velocity": 0.4251968503937008,
                    "duration": 0.21739149999999086
                },
                {
                    "name": "D#5",
                    "midi": 75,
                    "time": 73.47832700000001,
                    "velocity": 0.5275590551181102,
                    "duration": 0.10869574999999543
                },
                {
                    "name": "D5",
                    "midi": 74,
                    "time": 73.58702275,
                    "velocity": 0.4015748031496063,
                    "duration": 0.10869574999999543
                },
                {
                    "name": "G5",
                    "midi": 79,
                    "time": 73.6957185,
                    "velocity": 0.41732283464566927,
                    "duration": 0.21739149999999086
                },
                {
                    "name": "E6",
                    "midi": 88,
                    "time": 73.6957185,
                    "velocity": 0.49606299212598426,
                    "duration": 0.10869574999999543
                },
                {
                    "name": "D6",
                    "midi": 86,
                    "time": 73.80441425,
                    "velocity": 0.4015748031496063,
                    "duration": 0.10869574999999543
                },
                {
                    "name": "D6",
                    "midi": 86,
                    "time": 73.91310999999999,
                    "velocity": 0.4409448818897638,
                    "duration": 0.10869574999999543
                },
                {
                    "name": "G5",
                    "midi": 79,
                    "time": 74.02180574999998,
                    "velocity": 0.4251968503937008,
                    "duration": 0.10869574999999543
                },
                {
                    "name": "B4",
                    "midi": 71,
                    "time": 74.02180574999998,
                    "velocity": 0.3543307086614173,
                    "duration": 0.10869574999999543
                },
                {
                    "name": "D5",
                    "midi": 74,
                    "time": 74.13050149999998,
                    "velocity": 0.3858267716535433,
                    "duration": 0.10869574999999543
                },
                {
                    "name": "B5",
                    "midi": 83,
                    "time": 74.13050149999998,
                    "velocity": 0.4566929133858268,
                    "duration": 0.10869574999999543
                },
                {
                    "name": "A5",
                    "midi": 81,
                    "time": 74.23919724999998,
                    "velocity": 0.4094488188976378,
                    "duration": 0.10869574999999543
                },
                {
                    "name": "C5",
                    "midi": 72,
                    "time": 74.23919724999998,
                    "velocity": 0.3464566929133858,
                    "duration": 0.10869574999999543
                },
                {
                    "name": "B4",
                    "midi": 71,
                    "time": 74.34789299999997,
                    "velocity": 0.4566929133858268,
                    "duration": 0.10869574999999543
                },
                {
                    "name": "G5",
                    "midi": 79,
                    "time": 74.34789299999997,
                    "velocity": 0.4566929133858268,
                    "duration": 0.8695659999999634
                },
                {
                    "name": "D#5",
                    "midi": 75,
                    "time": 74.45658874999997,
                    "velocity": 0.3937007874015748,
                    "duration": 0.10869574999999543
                },
                {
                    "name": "E5",
                    "midi": 76,
                    "time": 74.56528449999996,
                    "velocity": 0.4330708661417323,
                    "duration": 0.10869574999999543
                },
                {
                    "name": "B4",
                    "midi": 71,
                    "time": 74.67398024999996,
                    "velocity": 0.3937007874015748,
                    "duration": 0.10869574999999543
                },
                {
                    "name": "A#4",
                    "midi": 70,
                    "time": 74.78267599999995,
                    "velocity": 0.4251968503937008,
                    "duration": 0.10869574999999543
                },
                {
                    "name": "D#5",
                    "midi": 75,
                    "time": 74.89137174999995,
                    "velocity": 0.4566929133858268,
                    "duration": 0.10869574999999543
                },
                {
                    "name": "E5",
                    "midi": 76,
                    "time": 75.00006749999994,
                    "velocity": 0.4566929133858268,
                    "duration": 0.10869574999999543
                },
                {
                    "name": "A#4",
                    "midi": 70,
                    "time": 75.10876324999994,
                    "velocity": 0.41732283464566927,
                    "duration": 0.10869574999999543
                },
                {
                    "name": "A4",
                    "midi": 69,
                    "time": 75.21745899999993,
                    "velocity": 0.4409448818897638,
                    "duration": 0.10869574999999543
                },
                {
                    "name": "F#5",
                    "midi": 78,
                    "time": 75.21745899999993,
                    "velocity": 0.4251968503937008,
                    "duration": 0.21739149999999086
                },
                {
                    "name": "D5",
                    "midi": 74,
                    "time": 75.32615474999993,
                    "velocity": 0.3937007874015748,
                    "duration": 0.10869574999999543
                },
                {
                    "name": "G5",
                    "midi": 79,
                    "time": 75.43485049999992,
                    "velocity": 0.4251968503937008,
                    "duration": 0.21739149999999086
                },
                {
                    "name": "G4",
                    "midi": 67,
                    "time": 75.43485049999992,
                    "velocity": 0.47244094488188976,
                    "duration": 0.10869574999999543
                },
                {
                    "name": "C5",
                    "midi": 72,
                    "time": 75.54354624999992,
                    "velocity": 0.3937007874015748,
                    "duration": 0.10869574999999543
                },
                {
                    "name": "G5",
                    "midi": 79,
                    "time": 75.65224199999992,
                    "velocity": 0.4251968503937008,
                    "duration": 0.10869574999999543
                },
                {
                    "name": "E5",
                    "midi": 76,
                    "time": 75.76093774999991,
                    "velocity": 0.3700787401574803,
                    "duration": 0.10869574999999543
                },
                {
                    "name": "C6",
                    "midi": 84,
                    "time": 75.76093774999991,
                    "velocity": 0.44881889763779526,
                    "duration": 0.10869574999999543
                },
                {
                    "name": "E6",
                    "midi": 88,
                    "time": 75.8696334999999,
                    "velocity": 0.4881889763779528,
                    "duration": 0.10869574999999543
                },
                {
                    "name": "G5",
                    "midi": 79,
                    "time": 75.8696334999999,
                    "velocity": 0.4094488188976378,
                    "duration": 0.10869574999999543
                },
                {
                    "name": "F5",
                    "midi": 77,
                    "time": 75.9783292499999,
                    "velocity": 0.3700787401574803,
                    "duration": 0.10869574999999543
                },
                {
                    "name": "D6",
                    "midi": 86,
                    "time": 75.9783292499999,
                    "velocity": 0.4409448818897638,
                    "duration": 0.10869574999999543
                },
                {
                    "name": "E5",
                    "midi": 76,
                    "time": 76.0870249999999,
                    "velocity": 0.49606299212598426,
                    "duration": 0.10869574999999543
                },
                {
                    "name": "C6",
                    "midi": 84,
                    "time": 76.0870249999999,
                    "velocity": 0.49606299212598426,
                    "duration": 0.8695659999999634
                },
                {
                    "name": "G#5",
                    "midi": 80,
                    "time": 76.1957207499999,
                    "velocity": 0.4330708661417323,
                    "duration": 0.10869574999999543
                },
                {
                    "name": "A5",
                    "midi": 81,
                    "time": 76.30441649999989,
                    "velocity": 0.48031496062992124,
                    "duration": 0.10869574999999543
                },
                {
                    "name": "D#5",
                    "midi": 75,
                    "time": 76.41311224999988,
                    "velocity": 0.4409448818897638,
                    "duration": 0.10869574999999543
                },
                {
                    "name": "D#5",
                    "midi": 75,
                    "time": 76.52180799999988,
                    "velocity": 0.48031496062992124,
                    "duration": 0.10869574999999543
                },
                {
                    "name": "G#5",
                    "midi": 80,
                    "time": 76.63050374999987,
                    "velocity": 0.5196850393700787,
                    "duration": 0.10869574999999543
                },
                {
                    "name": "A5",
                    "midi": 81,
                    "time": 76.73919949999987,
                    "velocity": 0.5196850393700787,
                    "duration": 0.10869574999999543
                },
                {
                    "name": "D#5",
                    "midi": 75,
                    "time": 76.84789524999987,
                    "velocity": 0.4881889763779528,
                    "duration": 0.10869574999999543
                },
                {
                    "name": "D5",
                    "midi": 74,
                    "time": 76.95659099999986,
                    "velocity": 0.5196850393700787,
                    "duration": 0.10869574999999543
                },
                {
                    "name": "B5",
                    "midi": 83,
                    "time": 76.95659099999986,
                    "velocity": 0.49606299212598426,
                    "duration": 0.21739149999999086
                },
                {
                    "name": "G5",
                    "midi": 79,
                    "time": 77.06528674999986,
                    "velocity": 0.4645669291338583,
                    "duration": 0.10869574999999543
                },
                {
                    "name": "C6",
                    "midi": 84,
                    "time": 77.17398249999985,
                    "velocity": 0.5039370078740157,
                    "duration": 0.21739149999999086
                },
                {
                    "name": "C5",
                    "midi": 72,
                    "time": 77.17398249999985,
                    "velocity": 0.5669291338582677,
                    "duration": 0.10869574999999543
                },
                {
                    "name": "F5",
                    "midi": 77,
                    "time": 77.28267824999985,
                    "velocity": 0.47244094488188976,
                    "duration": 0.10869574999999543
                },
                {
                    "name": "C6",
                    "midi": 84,
                    "time": 77.39137399999984,
                    "velocity": 0.49606299212598426,
                    "duration": 0.10869574999999543
                },
                {
                    "name": "A5",
                    "midi": 81,
                    "time": 77.50006974999984,
                    "velocity": 0.4330708661417323,
                    "duration": 0.10869574999999543
                },
                {
                    "name": "F6",
                    "midi": 89,
                    "time": 77.50006974999984,
                    "velocity": 0.5196850393700787,
                    "duration": 0.10869574999999543
                },
                {
                    "name": "C6",
                    "midi": 84,
                    "time": 77.60876549999983,
                    "velocity": 0.47244094488188976,
                    "duration": 0.10869574999999543
                },
                {
                    "name": "A6",
                    "midi": 93,
                    "time": 77.60876549999983,
                    "velocity": 0.5590551181102362,
                    "duration": 0.10869574999999543
                },
                {
                    "name": "A#5",
                    "midi": 82,
                    "time": 77.71746124999983,
                    "velocity": 0.4330708661417323,
                    "duration": 0.10869574999999543
                },
                {
                    "name": "G6",
                    "midi": 91,
                    "time": 77.71746124999983,
                    "velocity": 0.5118110236220472,
                    "duration": 0.10869574999999543
                },
                {
                    "name": "F6",
                    "midi": 89,
                    "time": 77.82615699999982,
                    "velocity": 0.5748031496062992,
                    "duration": 0.8695659999999634
                },
                {
                    "name": "G#5",
                    "midi": 80,
                    "time": 77.82615699999982,
                    "velocity": 0.5748031496062992,
                    "duration": 0.10869574999999543
                },
                {
                    "name": "F5",
                    "midi": 77,
                    "time": 77.93485274999982,
                    "velocity": 0.49606299212598426,
                    "duration": 0.10869574999999543
                },
                {
                    "name": "G#5",
                    "midi": 80,
                    "time": 78.04354849999982,
                    "velocity": 0.5511811023622047,
                    "duration": 0.10869574999999543
                },
                {
                    "name": "G5",
                    "midi": 79,
                    "time": 78.15224424999981,
                    "velocity": 0.5118110236220472,
                    "duration": 0.10869574999999543
                },
                {
                    "name": "G#5",
                    "midi": 80,
                    "time": 78.2609399999998,
                    "velocity": 0.5511811023622047,
                    "duration": 0.10869574999999543
                },
                {
                    "name": "C#6",
                    "midi": 85,
                    "time": 78.3696357499998,
                    "velocity": 0.5590551181102362,
                    "duration": 0.10869574999999543
                },
                {
                    "name": "D6",
                    "midi": 86,
                    "time": 78.4783314999998,
                    "velocity": 0.6062992125984252,
                    "duration": 0.10869574999999543
                },
                {
                    "name": "G#5",
                    "midi": 80,
                    "time": 78.58702724999979,
                    "velocity": 0.5590551181102362,
                    "duration": 0.10869574999999543
                },
                {
                    "name": "G5",
                    "midi": 79,
                    "time": 78.69572299999979,
                    "velocity": 0.5905511811023622,
                    "duration": 0.10869574999999543
                },
                {
                    "name": "E6",
                    "midi": 88,
                    "time": 78.69572299999979,
                    "velocity": 0.6141732283464567,
                    "duration": 0.6521744999999868
                },
                {
                    "name": "B5",
                    "midi": 83,
                    "time": 78.80441874999978,
                    "velocity": 0.5354330708661418,
                    "duration": 0.10869574999999543
                },
                {
                    "name": "C6",
                    "midi": 84,
                    "time": 78.91311449999978,
                    "velocity": 0.6456692913385826,
                    "duration": 0.10869574999999543
                },
                {
                    "name": "G5",
                    "midi": 79,
                    "time": 79.02181024999977,
                    "velocity": 0.5433070866141733,
                    "duration": 0.10869574999999543
                },
                {
                    "name": "C6",
                    "midi": 84,
                    "time": 79.13050599999977,
                    "velocity": 0.5826771653543307,
                    "duration": 0.21739150000000507
                },
                {
                    "name": "E5",
                    "midi": 76,
                    "time": 79.34789749999977,
                    "velocity": 0.6220472440944882,
                    "duration": 0.21739150000000507
                },
                {
                    "name": "E6",
                    "midi": 88,
                    "time": 79.34789749999977,
                    "velocity": 0.7322834645669292,
                    "duration": 0.21739150000000507
                },
                {
                    "name": "C6",
                    "midi": 84,
                    "time": 79.34789749999977,
                    "velocity": 0.6220472440944882,
                    "duration": 0.21739150000000507
                },
                {
                    "name": "G5",
                    "midi": 79,
                    "time": 79.34789749999977,
                    "velocity": 0.6220472440944882,
                    "duration": 0.21739150000000507
                },
                {
                    "name": "B5",
                    "midi": 83,
                    "time": 79.56528899999978,
                    "velocity": 0.5826771653543307,
                    "duration": 0.21739150000000507
                },
                {
                    "name": "D6",
                    "midi": 86,
                    "time": 79.56528899999978,
                    "velocity": 0.6929133858267716,
                    "duration": 0.21739150000000507
                },
                {
                    "name": "C6",
                    "midi": 84,
                    "time": 79.78268049999978,
                    "velocity": 0.5826771653543307,
                    "duration": 0.10869574999999543
                },
                {
                    "name": "E6",
                    "midi": 88,
                    "time": 79.78268049999978,
                    "velocity": 0.6771653543307087,
                    "duration": 0.10869574999999543
                },
                {
                    "name": "F6",
                    "midi": 89,
                    "time": 79.89137624999978,
                    "velocity": 0.7244094488188977,
                    "duration": 0.10869574999999543
                },
                {
                    "name": "D6",
                    "midi": 86,
                    "time": 79.89137624999978,
                    "velocity": 0.6141732283464567,
                    "duration": 0.10869574999999543
                },
                {
                    "name": "E6",
                    "midi": 88,
                    "time": 80.00007199999978,
                    "velocity": 0.6377952755905512,
                    "duration": 0.10869574999999543
                },
                {
                    "name": "G6",
                    "midi": 91,
                    "time": 80.00007199999978,
                    "velocity": 0.7559055118110236,
                    "duration": 0.10869574999999543
                },
                {
                    "name": "C6",
                    "midi": 84,
                    "time": 80.21746349999977,
                    "velocity": 0.6062992125984252,
                    "duration": 0.10869574999999543
                },
                {
                    "name": "E6",
                    "midi": 88,
                    "time": 80.21746349999977,
                    "velocity": 0.7165354330708661,
                    "duration": 0.10869574999999543
                },
                {
                    "name": "G5",
                    "midi": 79,
                    "time": 81.08702949999976,
                    "velocity": 0.6220472440944882,
                    "duration": 0.21739150000000507
                },
                {
                    "name": "E5",
                    "midi": 76,
                    "time": 81.08702949999976,
                    "velocity": 0.6220472440944882,
                    "duration": 0.21739150000000507
                },
                {
                    "name": "E6",
                    "midi": 88,
                    "time": 81.08702949999976,
                    "velocity": 0.7322834645669292,
                    "duration": 0.21739150000000507
                },
                {
                    "name": "C6",
                    "midi": 84,
                    "time": 81.08702949999976,
                    "velocity": 0.6220472440944882,
                    "duration": 0.21739150000000507
                },
                {
                    "name": "D6",
                    "midi": 86,
                    "time": 81.30442099999976,
                    "velocity": 0.6929133858267716,
                    "duration": 0.21739150000000507
                },
                {
                    "name": "B5",
                    "midi": 83,
                    "time": 81.30442099999976,
                    "velocity": 0.5826771653543307,
                    "duration": 0.21739150000000507
                },
                {
                    "name": "E6",
                    "midi": 88,
                    "time": 81.52181249999977,
                    "velocity": 0.6771653543307087,
                    "duration": 0.10869574999999543
                },
                {
                    "name": "C6",
                    "midi": 84,
                    "time": 81.52181249999977,
                    "velocity": 0.5826771653543307,
                    "duration": 0.10869574999999543
                },
                {
                    "name": "D6",
                    "midi": 86,
                    "time": 81.63050824999976,
                    "velocity": 0.6141732283464567,
                    "duration": 0.10869574999999543
                },
                {
                    "name": "F6",
                    "midi": 89,
                    "time": 81.63050824999976,
                    "velocity": 0.7244094488188977,
                    "duration": 0.10869574999999543
                },
                {
                    "name": "E6",
                    "midi": 88,
                    "time": 81.73920399999976,
                    "velocity": 0.6377952755905512,
                    "duration": 0.10869574999999543
                },
                {
                    "name": "G6",
                    "midi": 91,
                    "time": 81.73920399999976,
                    "velocity": 0.7559055118110236,
                    "duration": 0.10869574999999543
                },
                {
                    "name": "E6",
                    "midi": 88,
                    "time": 81.95659549999975,
                    "velocity": 0.6771653543307087,
                    "duration": 0.21739150000000507
                },
                {
                    "name": "G5",
                    "midi": 79,
                    "time": 81.95659549999975,
                    "velocity": 0.6771653543307087,
                    "duration": 0.21739150000000507
                },
                {
                    "name": "A5",
                    "midi": 81,
                    "time": 81.95659549999975,
                    "velocity": 0.6771653543307087,
                    "duration": 0.21739150000000507
                },
                {
                    "name": "G6",
                    "midi": 91,
                    "time": 81.95659549999975,
                    "velocity": 0.8110236220472441,
                    "duration": 0.21739150000000507
                },
                {
                    "name": "E6",
                    "midi": 88,
                    "time": 82.39137849999976,
                    "velocity": 0.6771653543307087,
                    "duration": 0.21739150000000507
                },
                {
                    "name": "C#6",
                    "midi": 85,
                    "time": 82.39137849999976,
                    "velocity": 0.6771653543307087,
                    "duration": 0.21739150000000507
                },
                {
                    "name": "G6",
                    "midi": 91,
                    "time": 82.39137849999976,
                    "velocity": 0.8110236220472441,
                    "duration": 0.21739150000000507
                },
                {
                    "name": "G5",
                    "midi": 79,
                    "time": 82.39137849999976,
                    "velocity": 0.6771653543307087,
                    "duration": 0.21739150000000507
                },
                {
                    "name": "G6",
                    "midi": 91,
                    "time": 82.82616149999977,
                    "velocity": 0.8110236220472441,
                    "duration": 0.21739150000000507
                },
                {
                    "name": "D6",
                    "midi": 86,
                    "time": 82.82616149999977,
                    "velocity": 0.6771653543307087,
                    "duration": 0.21739150000000507
                },
                {
                    "name": "B5",
                    "midi": 83,
                    "time": 82.82616149999977,
                    "velocity": 0.6771653543307087,
                    "duration": 0.21739150000000507
                },
                {
                    "name": "G5",
                    "midi": 79,
                    "time": 82.82616149999977,
                    "velocity": 0.6771653543307087,
                    "duration": 0.21739150000000507
                },
                {
                    "name": "G5",
                    "midi": 79,
                    "time": 83.26094449999978,
                    "velocity": 0.6771653543307087,
                    "duration": 0.21739150000000507
                },
                {
                    "name": "G6",
                    "midi": 91,
                    "time": 83.26094449999978,
                    "velocity": 0.8110236220472441,
                    "duration": 0.21739150000000507
                },
                {
                    "name": "C#6",
                    "midi": 85,
                    "time": 83.26094449999978,
                    "velocity": 0.6771653543307087,
                    "duration": 0.21739150000000507
                },
                {
                    "name": "A5",
                    "midi": 81,
                    "time": 83.26094449999978,
                    "velocity": 0.6771653543307087,
                    "duration": 0.21739150000000507
                },
                {
                    "name": "G6",
                    "midi": 91,
                    "time": 83.47833599999979,
                    "velocity": 0.6062992125984252,
                    "duration": 0.4347829999999959
                },
                {
                    "name": "B5",
                    "midi": 83,
                    "time": 83.47833599999979,
                    "velocity": 0.5118110236220472,
                    "duration": 0.4347829999999959
                },
                {
                    "name": "D6",
                    "midi": 86,
                    "time": 83.47833599999979,
                    "velocity": 0.5118110236220472,
                    "duration": 0.4347829999999959
                },
                {
                    "name": "G5",
                    "midi": 79,
                    "time": 83.47833599999979,
                    "velocity": 0.5118110236220472,
                    "duration": 0.4347829999999959
                },
                {
                    "name": "G5",
                    "midi": 79,
                    "time": 83.91311899999978,
                    "velocity": 0.4251968503937008,
                    "duration": 0.652174500000001
                },
                {
                    "name": "D6",
                    "midi": 86,
                    "time": 83.91311899999978,
                    "velocity": 0.5039370078740157,
                    "duration": 0.652174500000001
                },
                {
                    "name": "B5",
                    "midi": 83,
                    "time": 83.91311899999978,
                    "velocity": 0.4251968503937008,
                    "duration": 0.652174500000001
                },
                {
                    "name": "D5",
                    "midi": 74,
                    "time": 84.56529349999978,
                    "velocity": 0.41732283464566927,
                    "duration": 0.21739150000000507
                },
                {
                    "name": "B5",
                    "midi": 83,
                    "time": 84.56529349999978,
                    "velocity": 0.49606299212598426,
                    "duration": 0.21739150000000507
                },
                {
                    "name": "G5",
                    "midi": 79,
                    "time": 84.56529349999978,
                    "velocity": 0.41732283464566927,
                    "duration": 0.21739150000000507
                },
                {
                    "name": "D5",
                    "midi": 74,
                    "time": 84.78268499999979,
                    "velocity": 0.4409448818897638,
                    "duration": 0.10869574999999543
                },
                {
                    "name": "F#5",
                    "midi": 78,
                    "time": 84.89138074999978,
                    "velocity": 0.44881889763779526,
                    "duration": 0.10869574999999543
                },
                {
                    "name": "G5",
                    "midi": 79,
                    "time": 85.00007649999978,
                    "velocity": 0.4566929133858268,
                    "duration": 0.10869574999999543
                },
                {
                    "name": "B5",
                    "midi": 83,
                    "time": 85.10877224999977,
                    "velocity": 0.4645669291338583,
                    "duration": 0.10869574999999543
                },
                {
                    "name": "C#6",
                    "midi": 85,
                    "time": 85.21746799999977,
                    "velocity": 0.47244094488188976,
                    "duration": 0.10869574999999543
                },
                {
                    "name": "D6",
                    "midi": 86,
                    "time": 85.32616374999976,
                    "velocity": 0.48031496062992124,
                    "duration": 0.10869574999999543
                },
                {
                    "name": "E6",
                    "midi": 88,
                    "time": 85.43485949999976,
                    "velocity": 0.4881889763779528,
                    "duration": 0.10869574999999543
                },
                {
                    "name": "D6",
                    "midi": 86,
                    "time": 85.54355524999976,
                    "velocity": 0.4881889763779528,
                    "duration": 0.10869574999999543
                },
                {
                    "name": "F#6",
                    "midi": 90,
                    "time": 85.65225099999975,
                    "velocity": 0.49606299212598426,
                    "duration": 0.10869574999999543
                },
                {
                    "name": "G6",
                    "midi": 91,
                    "time": 85.76094674999975,
                    "velocity": 0.5039370078740157,
                    "duration": 0.10869574999999543
                },
                {
                    "name": "A6",
                    "midi": 93,
                    "time": 85.86964249999974,
                    "velocity": 0.5118110236220472,
                    "duration": 0.10869574999999543
                },
                {
                    "name": "G6",
                    "midi": 91,
                    "time": 85.97833824999974,
                    "velocity": 0.5196850393700787,
                    "duration": 0.10869574999999543
                },
                {
                    "name": "A#6",
                    "midi": 94,
                    "time": 86.08703399999973,
                    "velocity": 0.5275590551181102,
                    "duration": 0.10869574999999543
                },
                {
                    "name": "B6",
                    "midi": 95,
                    "time": 86.19572974999973,
                    "velocity": 0.5354330708661418,
                    "duration": 0.10869574999999543
                },
                {
                    "name": "C7",
                    "midi": 96,
                    "time": 86.30442549999972,
                    "velocity": 0.5433070866141733,
                    "duration": 0.10869574999999543
                },
                {
                    "name": "B6",
                    "midi": 95,
                    "time": 86.41312124999972,
                    "velocity": 0.5511811023622047,
                    "duration": 0.10869574999999543
                },
                {
                    "name": "D7",
                    "midi": 98,
                    "time": 86.52181699999971,
                    "velocity": 0.5590551181102362,
                    "duration": 0.21739150000000507
                },
                {
                    "name": "C6",
                    "midi": 84,
                    "time": 86.73920849999972,
                    "velocity": 0.5511811023622047,
                    "duration": 0.21739150000000507
                },
                {
                    "name": "A5",
                    "midi": 81,
                    "time": 86.73920849999972,
                    "velocity": 0.4645669291338583,
                    "duration": 0.21739150000000507
                },
                {
                    "name": "D5",
                    "midi": 74,
                    "time": 86.73920849999972,
                    "velocity": 0.4645669291338583,
                    "duration": 0.21739150000000507
                },
                {
                    "name": "D5",
                    "midi": 74,
                    "time": 86.95659999999972,
                    "velocity": 0.3858267716535433,
                    "duration": 0.8695660000000061
                },
                {
                    "name": "B5",
                    "midi": 83,
                    "time": 86.95659999999972,
                    "velocity": 0.4566929133858268,
                    "duration": 0.8695660000000061
                },
                {
                    "name": "G5",
                    "midi": 79,
                    "time": 86.95659999999972,
                    "velocity": 0.3858267716535433,
                    "duration": 0.8695660000000061
                },
                {
                    "name": "C6",
                    "midi": 84,
                    "time": 87.82616599999973,
                    "velocity": 0.44881889763779526,
                    "duration": 0.4347829999999959
                },
                {
                    "name": "G5",
                    "midi": 79,
                    "time": 87.82616599999973,
                    "velocity": 0.3779527559055118,
                    "duration": 0.4347829999999959
                },
                {
                    "name": "C6",
                    "midi": 84,
                    "time": 88.26094899999973,
                    "velocity": 0.4015748031496063,
                    "duration": 0.4347829999999959
                },
                {
                    "name": "D#6",
                    "midi": 87,
                    "time": 88.26094899999973,
                    "velocity": 0.48031496062992124,
                    "duration": 0.4347829999999959
                },
                {
                    "name": "G5",
                    "midi": 79,
                    "time": 88.26094899999973,
                    "velocity": 0.4015748031496063,
                    "duration": 0.4347829999999959
                },
                {
                    "name": "G6",
                    "midi": 91,
                    "time": 88.69573199999972,
                    "velocity": 0.4409448818897638,
                    "duration": 0.8695659999999918
                },
                {
                    "name": "G5",
                    "midi": 79,
                    "time": 88.69573199999972,
                    "velocity": 0.4409448818897638,
                    "duration": 0.8695659999999918
                },
                {
                    "name": "D6",
                    "midi": 86,
                    "time": 88.69573199999972,
                    "velocity": 0.5275590551181102,
                    "duration": 0.4347829999999959
                },
                {
                    "name": "B5",
                    "midi": 83,
                    "time": 89.13051499999972,
                    "velocity": 0.48031496062992124,
                    "duration": 0.4347829999999959
                },
                {
                    "name": "C6",
                    "midi": 84,
                    "time": 89.56529799999971,
                    "velocity": 0.4015748031496063,
                    "duration": 0.4347829999999959
                },
                {
                    "name": "G5",
                    "midi": 79,
                    "time": 89.56529799999971,
                    "velocity": 0.4015748031496063,
                    "duration": 0.4347829999999959
                },
                {
                    "name": "D#6",
                    "midi": 87,
                    "time": 89.56529799999971,
                    "velocity": 0.47244094488188976,
                    "duration": 0.4347829999999959
                },
                {
                    "name": "C6",
                    "midi": 84,
                    "time": 90.00008099999971,
                    "velocity": 0.49606299212598426,
                    "duration": 0.4347829999999959
                },
                {
                    "name": "G5",
                    "midi": 79,
                    "time": 90.00008099999971,
                    "velocity": 0.41732283464566927,
                    "duration": 0.4347829999999959
                },
                {
                    "name": "G5",
                    "midi": 79,
                    "time": 90.4348639999997,
                    "velocity": 0.4409448818897638,
                    "duration": 0.8695659999999918
                },
                {
                    "name": "A#5",
                    "midi": 82,
                    "time": 90.4348639999997,
                    "velocity": 0.5196850393700787,
                    "duration": 0.4347829999999959
                },
                {
                    "name": "B5",
                    "midi": 83,
                    "time": 90.8696469999997,
                    "velocity": 0.4645669291338583,
                    "duration": 0.4347829999999959
                },
                {
                    "name": "D6",
                    "midi": 86,
                    "time": 91.3044299999997,
                    "velocity": 0.5039370078740157,
                    "duration": 0.4347829999999959
                },
                {
                    "name": "F#5",
                    "midi": 78,
                    "time": 91.3044299999997,
                    "velocity": 0.4251968503937008,
                    "duration": 0.4347829999999959
                },
                {
                    "name": "A5",
                    "midi": 81,
                    "time": 91.7392129999997,
                    "velocity": 0.41732283464566927,
                    "duration": 0.3260872500000005
                },
                {
                    "name": "C6",
                    "midi": 84,
                    "time": 91.7392129999997,
                    "velocity": 0.49606299212598426,
                    "duration": 0.3260872500000005
                },
                {
                    "name": "D5",
                    "midi": 74,
                    "time": 91.9566044999997,
                    "velocity": 0.4094488188976378,
                    "duration": 0.21739149999999086
                },
                {
                    "name": "A5",
                    "midi": 81,
                    "time": 92.0653002499997,
                    "velocity": 0.44881889763779526,
                    "duration": 0.10869574999999543
                },
                {
                    "name": "F#5",
                    "midi": 78,
                    "time": 92.0653002499997,
                    "velocity": 0.3779527559055118,
                    "duration": 0.10869574999999543
                },
                {
                    "name": "B5",
                    "midi": 83,
                    "time": 92.17399599999969,
                    "velocity": 0.4566929133858268,
                    "duration": 0.8695660000000061
                },
                {
                    "name": "D5",
                    "midi": 74,
                    "time": 92.17399599999969,
                    "velocity": 0.3858267716535433,
                    "duration": 0.21739150000000507
                },
                {
                    "name": "G5",
                    "midi": 79,
                    "time": 92.17399599999969,
                    "velocity": 0.3858267716535433,
                    "duration": 0.07336963125000295
                },
                {
                    "name": "A5",
                    "midi": 81,
                    "time": 92.24736563124969,
                    "velocity": 0.33070866141732286,
                    "duration": 0.07246383333333029
                },
                {
                    "name": "G5",
                    "midi": 79,
                    "time": 92.31982946458302,
                    "velocity": 0.3858267716535433,
                    "duration": 0.07336963125001716
                },
                {
                    "name": "A5",
                    "midi": 81,
                    "time": 92.39229329791637,
                    "velocity": 0.3464566929133858,
                    "duration": 0.07336963125000295
                },
                {
                    "name": "G5",
                    "midi": 79,
                    "time": 92.46566292916637,
                    "velocity": 0.3858267716535433,
                    "duration": 0.07246383333333029
                },
                {
                    "name": "A5",
                    "midi": 81,
                    "time": 92.5381267624997,
                    "velocity": 0.3464566929133858,
                    "duration": 0.07336963125000295
                },
                {
                    "name": "G5",
                    "midi": 79,
                    "time": 92.6087789999997,
                    "velocity": 0.3937007874015748,
                    "duration": 0.07336963125000295
                },
                {
                    "name": "A5",
                    "midi": 81,
                    "time": 92.6821486312497,
                    "velocity": 0.3464566929133858,
                    "duration": 0.07246383333333029
                },
                {
                    "name": "G5",
                    "midi": 79,
                    "time": 92.75461246458303,
                    "velocity": 0.3937007874015748,
                    "duration": 0.07336963125000295
                },
                {
                    "name": "A5",
                    "midi": 81,
                    "time": 92.82707629791636,
                    "velocity": 0.36220472440944884,
                    "duration": 0.07336963125000295
                },
                {
                    "name": "G5",
                    "midi": 79,
                    "time": 92.90044592916637,
                    "velocity": 0.4015748031496063,
                    "duration": 0.07246383333333029
                },
                {
                    "name": "A5",
                    "midi": 81,
                    "time": 92.9729097624997,
                    "velocity": 0.3543307086614173,
                    "duration": 0.07336963125000295
                },
                {
                    "name": "C6",
                    "midi": 84,
                    "time": 93.0435619999997,
                    "velocity": 0.5275590551181102,
                    "duration": 0.4347829999999959
                },
                {
                    "name": "G5",
                    "midi": 79,
                    "time": 93.0435619999997,
                    "velocity": 0.4015748031496063,
                    "duration": 0.07336963125000295
                },
                {
                    "name": "A5",
                    "midi": 81,
                    "time": 93.1169316312497,
                    "velocity": 0.3464566929133858,
                    "duration": 0.07246383333333029
                },
                {
                    "name": "G5",
                    "midi": 79,
                    "time": 93.18939546458303,
                    "velocity": 0.4094488188976378,
                    "duration": 0.07336963125000295
                },
                {
                    "name": "A5",
                    "midi": 81,
                    "time": 93.26185929791636,
                    "velocity": 0.3700787401574803,
                    "duration": 0.07336963125000295
                },
                {
                    "name": "G5",
                    "midi": 79,
                    "time": 93.33522892916636,
                    "velocity": 0.4094488188976378,
                    "duration": 0.07246383333333029
                },
                {
                    "name": "A5",
                    "midi": 81,
                    "time": 93.40769276249969,
                    "velocity": 0.3700787401574803,
                    "duration": 0.07336963125000295
                },
                {
                    "name": "G5",
                    "midi": 79,
                    "time": 93.47834499999969,
                    "velocity": 0.41732283464566927,
                    "duration": 0.07336963125000295
                },
                {
                    "name": "E6",
                    "midi": 88,
                    "time": 93.47834499999969,
                    "velocity": 0.5748031496062992,
                    "duration": 0.4347829999999959
                },
                {
                    "name": "A5",
                    "midi": 81,
                    "time": 93.5517146312497,
                    "velocity": 0.3700787401574803,
                    "duration": 0.07246383333333029
                },
                {
                    "name": "G5",
                    "midi": 79,
                    "time": 93.62417846458303,
                    "velocity": 0.4251968503937008,
                    "duration": 0.07336963125000295
                },
                {
                    "name": "A5",
                    "midi": 81,
                    "time": 93.69664229791636,
                    "velocity": 0.3779527559055118,
                    "duration": 0.07336963125000295
                },
                {
                    "name": "G5",
                    "midi": 79,
                    "time": 93.77001192916636,
                    "velocity": 0.4251968503937008,
                    "duration": 0.07246383333333029
                },
                {
                    "name": "A5",
                    "midi": 81,
                    "time": 93.84247576249969,
                    "velocity": 0.3779527559055118,
                    "duration": 0.07336963125000295
                },
                {
                    "name": "G5",
                    "midi": 79,
                    "time": 93.91312799999969,
                    "velocity": 0.4330708661417323,
                    "duration": 0.07336963125000295
                },
                {
                    "name": "G6",
                    "midi": 91,
                    "time": 93.91312799999969,
                    "velocity": 0.5275590551181102,
                    "duration": 0.8695659999999918
                },
                {
                    "name": "A5",
                    "midi": 81,
                    "time": 93.98649763124969,
                    "velocity": 0.3700787401574803,
                    "duration": 0.07246383333333029
                },
                {
                    "name": "G5",
                    "midi": 79,
                    "time": 94.05896146458302,
                    "velocity": 0.4330708661417323,
                    "duration": 0.07336963125000295
                },
                {
                    "name": "A5",
                    "midi": 81,
                    "time": 94.13142529791635,
                    "velocity": 0.3937007874015748,
                    "duration": 0.07336963125000295
                },
                {
                    "name": "G5",
                    "midi": 79,
                    "time": 94.20479492916635,
                    "velocity": 0.4409448818897638,
                    "duration": 0.07246383333333029
                },
                {
                    "name": "A5",
                    "midi": 81,
                    "time": 94.27725876249968,
                    "velocity": 0.4015748031496063,
                    "duration": 0.07336963125000295
                },
                {
                    "name": "G5",
                    "midi": 79,
                    "time": 94.34791099999968,
                    "velocity": 0.4409448818897638,
                    "duration": 0.07336963125000295
                },
                {
                    "name": "A5",
                    "midi": 81,
                    "time": 94.42128063124969,
                    "velocity": 0.3937007874015748,
                    "duration": 0.07246383333333029
                },
                {
                    "name": "G5",
                    "midi": 79,
                    "time": 94.49374446458302,
                    "velocity": 0.44881889763779526,
                    "duration": 0.07336963125000295
                },
                {
                    "name": "A5",
                    "midi": 81,
                    "time": 94.56620829791635,
                    "velocity": 0.4015748031496063,
                    "duration": 0.07336963125000295
                },
                {
                    "name": "G5",
                    "midi": 79,
                    "time": 94.63957792916635,
                    "velocity": 0.44881889763779526,
                    "duration": 0.07246383333333029
                },
                {
                    "name": "A5",
                    "midi": 81,
                    "time": 94.71204176249968,
                    "velocity": 0.4015748031496063,
                    "duration": 0.07336963125000295
                },
                {
                    "name": "E6",
                    "midi": 88,
                    "time": 94.78269399999968,
                    "velocity": 0.5669291338582677,
                    "duration": 0.4347829999999959
                },
                {
                    "name": "G5",
                    "midi": 79,
                    "time": 94.78269399999968,
                    "velocity": 0.4566929133858268,
                    "duration": 0.07336963125000295
                },
                {
                    "name": "A5",
                    "midi": 81,
                    "time": 94.85606363124968,
                    "velocity": 0.3937007874015748,
                    "duration": 0.07246383333333029
                },
                {
                    "name": "G5",
                    "midi": 79,
                    "time": 94.92852746458301,
                    "velocity": 0.4645669291338583,
                    "duration": 0.07336963125000295
                },
                {
                    "name": "A5",
                    "midi": 81,
                    "time": 95.00099129791634,
                    "velocity": 0.41732283464566927,
                    "duration": 0.07336963125000295
                },
                {
                    "name": "G5",
                    "midi": 79,
                    "time": 95.07436092916635,
                    "velocity": 0.4645669291338583,
                    "duration": 0.07246383333333029
                },
                {
                    "name": "A5",
                    "midi": 81,
                    "time": 95.14682476249968,
                    "velocity": 0.41732283464566927,
                    "duration": 0.07336963125000295
                },
                {
                    "name": "C6",
                    "midi": 84,
                    "time": 95.21747699999968,
                    "velocity": 0.6062992125984252,
                    "duration": 0.4347829999999959
                },
                {
                    "name": "G5",
                    "midi": 79,
                    "time": 95.21747699999968,
                    "velocity": 0.47244094488188976,
                    "duration": 0.07336963125000295
                },
                {
                    "name": "A5",
                    "midi": 81,
                    "time": 95.29084663124968,
                    "velocity": 0.4094488188976378,
                    "duration": 0.07246383333333029
                },
                {
                    "name": "G5",
                    "midi": 79,
                    "time": 95.36331046458301,
                    "velocity": 0.47244094488188976,
                    "duration": 0.07336963125000295
                },
                {
                    "name": "A5",
                    "midi": 81,
                    "time": 95.43577429791634,
                    "velocity": 0.4330708661417323,
                    "duration": 0.07336963125000295
                },
                {
                    "name": "G5",
                    "midi": 79,
                    "time": 95.50914392916634,
                    "velocity": 0.48031496062992124,
                    "duration": 0.07246383333333029
                },
                {
                    "name": "A5",
                    "midi": 81,
                    "time": 95.58160776249967,
                    "velocity": 0.4251968503937008,
                    "duration": 0.07336963125000295
                },
                {
                    "name": "G5",
                    "midi": 79,
                    "time": 95.65225999999967,
                    "velocity": 0.48031496062992124,
                    "duration": 0.07336963125000295
                },
                {
                    "name": "A#5",
                    "midi": 82,
                    "time": 95.65225999999967,
                    "velocity": 0.6535433070866141,
                    "duration": 0.21739150000000507
                },
                {
                    "name": "A5",
                    "midi": 81,
                    "time": 95.72562963124967,
                    "velocity": 0.41732283464566927,
                    "duration": 0.07246383333333029
                },
                {
                    "name": "G5",
                    "midi": 79,
                    "time": 95.798093464583,
                    "velocity": 0.4881889763779528,
                    "duration": 0.07336963125001716
                },
                {
                    "name": "B5",
                    "midi": 83,
                    "time": 95.86965149999968,
                    "velocity": 0.5905511811023622,
                    "duration": 0.43478300000001013
                },
                {
                    "name": "A5",
                    "midi": 81,
                    "time": 95.87055729791635,
                    "velocity": 0.4409448818897638,
                    "duration": 0.07336963125000295
                },
                {
                    "name": "G5",
                    "midi": 79,
                    "time": 95.94392692916635,
                    "velocity": 0.4881889763779528,
                    "duration": 0.07246383333333029
                },
                {
                    "name": "A5",
                    "midi": 81,
                    "time": 96.01639076249968,
                    "velocity": 0.4409448818897638,
                    "duration": 0.07336963125000295
                },
                {
                    "name": "G5",
                    "midi": 79,
                    "time": 96.08704299999968,
                    "velocity": 0.49606299212598426,
                    "duration": 0.07336963125000295
                },
                {
                    "name": "A5",
                    "midi": 81,
                    "time": 96.16041263124968,
                    "velocity": 0.4330708661417323,
                    "duration": 0.07246383333333029
                },
                {
                    "name": "G5",
                    "midi": 79,
                    "time": 96.23287646458301,
                    "velocity": 0.5039370078740157,
                    "duration": 0.07336963125001716
                },
                {
                    "name": "D6",
                    "midi": 86,
                    "time": 96.30443449999969,
                    "velocity": 0.6771653543307087,
                    "duration": 0.21739150000000507
                },
                {
                    "name": "A5",
                    "midi": 81,
                    "time": 96.30534029791636,
                    "velocity": 0.44881889763779526,
                    "duration": 0.07336963125000295
                },
                {
                    "name": "G5",
                    "midi": 79,
                    "time": 96.37870992916636,
                    "velocity": 0.5039370078740157,
                    "duration": 0.07246383333333029
                },
                {
                    "name": "A5",
                    "midi": 81,
                    "time": 96.45117376249969,
                    "velocity": 0.4409448818897638,
                    "duration": 0.07336963125000295
                },
                {
                    "name": "D6",
                    "midi": 86,
                    "time": 96.52182599999969,
                    "velocity": 0.5905511811023622,
                    "duration": 0.07336963125000295
                },
                {
                    "name": "E6",
                    "midi": 88,
                    "time": 96.5951956312497,
                    "velocity": 0.5196850393700787,
                    "duration": 0.07246383333333029
                },
                {
                    "name": "D6",
                    "midi": 86,
                    "time": 96.66765946458302,
                    "velocity": 0.5905511811023622,
                    "duration": 0.07336963125001716
                },
                {
                    "name": "D5",
                    "midi": 74,
                    "time": 96.7392174999997,
                    "velocity": 0.47244094488188976,
                    "duration": 0.21739150000000507
                },
                {
                    "name": "E6",
                    "midi": 88,
                    "time": 96.74012329791637,
                    "velocity": 0.5039370078740157,
                    "duration": 0.07336963125000295
                },
                {
                    "name": "D6",
                    "midi": 86,
                    "time": 96.81349292916637,
                    "velocity": 0.5905511811023622,
                    "duration": 0.07246383333333029
                },
                {
                    "name": "E6",
                    "midi": 88,
                    "time": 96.8859567624997,
                    "velocity": 0.5354330708661418,
                    "duration": 0.07336963125000295
                },
                {
                    "name": "D6",
                    "midi": 86,
                    "time": 96.9566089999997,
                    "velocity": 0.6141732283464567,
                    "duration": 0.07336963125000295
                },
                {
                    "name": "E6",
                    "midi": 88,
                    "time": 97.0299786312497,
                    "velocity": 0.5433070866141733,
                    "duration": 0.07246383333333029
                },
                {
                    "name": "D6",
                    "midi": 86,
                    "time": 97.10244246458304,
                    "velocity": 0.5905511811023622,
                    "duration": 0.07336963125000295
                },
                {
                    "name": "C#6",
                    "midi": 85,
                    "time": 97.1740004999997,
                    "velocity": 0.5905511811023622,
                    "duration": 0.10869574999999543
                },
                {
                    "name": "D6",
                    "midi": 86,
                    "time": 97.2826962499997,
                    "velocity": 0.6220472440944882,
                    "duration": 0.10869574999999543
                },
                {
                    "name": "F6",
                    "midi": 89,
                    "time": 97.3913919999997,
                    "velocity": 0.5748031496062992,
                    "duration": 0.10869574999999543
                },
                {
                    "name": "D6",
                    "midi": 86,
                    "time": 97.3913919999997,
                    "velocity": 0.5748031496062992,
                    "duration": 0.10869574999999543
                },
                {
                    "name": "B6",
                    "midi": 95,
                    "time": 97.3913919999997,
                    "velocity": 0.5748031496062992,
                    "duration": 0.10869574999999543
                },
                {
                    "name": "D7",
                    "midi": 98,
                    "time": 97.3913919999997,
                    "velocity": 0.6771653543307087,
                    "duration": 0.10869574999999543
                },
                {
                    "name": "D6",
                    "midi": 86,
                    "time": 97.60878349999969,
                    "velocity": 0.5196850393700787,
                    "duration": 0.4347829999999959
                },
                {
                    "name": "F6",
                    "midi": 89,
                    "time": 97.60878349999969,
                    "velocity": 0.5196850393700787,
                    "duration": 0.4347829999999959
                },
                {
                    "name": "B6",
                    "midi": 95,
                    "time": 97.60878349999969,
                    "velocity": 0.5196850393700787,
                    "duration": 0.4347829999999959
                },
                {
                    "name": "D7",
                    "midi": 98,
                    "time": 97.60878349999969,
                    "velocity": 0.6141732283464567,
                    "duration": 0.4347829999999959
                },
                {
                    "name": "D6",
                    "midi": 86,
                    "time": 98.04356649999968,
                    "velocity": 0.5196850393700787,
                    "duration": 0.10869574999999543
                },
                {
                    "name": "C6",
                    "midi": 84,
                    "time": 98.04356649999968,
                    "velocity": 0.5196850393700787,
                    "duration": 0.10869574999999543
                },
                {
                    "name": "F6",
                    "midi": 89,
                    "time": 98.04356649999968,
                    "velocity": 0.5196850393700787,
                    "duration": 0.10869574999999543
                },
                {
                    "name": "C7",
                    "midi": 96,
                    "time": 98.04356649999968,
                    "velocity": 0.6141732283464567,
                    "duration": 0.10869574999999543
                },
                {
                    "name": "F6",
                    "midi": 89,
                    "time": 98.26095799999968,
                    "velocity": 0.5275590551181102,
                    "duration": 0.10869574999999543
                },
                {
                    "name": "B6",
                    "midi": 95,
                    "time": 98.26095799999968,
                    "velocity": 0.6220472440944882,
                    "duration": 0.10869574999999543
                },
                {
                    "name": "B5",
                    "midi": 83,
                    "time": 98.26095799999968,
                    "velocity": 0.5275590551181102,
                    "duration": 0.10869574999999543
                },
                {
                    "name": "D6",
                    "midi": 86,
                    "time": 98.26095799999968,
                    "velocity": 0.5275590551181102,
                    "duration": 0.10869574999999543
                },
                {
                    "name": "D6",
                    "midi": 86,
                    "time": 98.47834949999967,
                    "velocity": 0.5511811023622047,
                    "duration": 0.10869574999999543
                },
                {
                    "name": "C7",
                    "midi": 96,
                    "time": 98.47834949999967,
                    "velocity": 0.6535433070866141,
                    "duration": 0.10869574999999543
                },
                {
                    "name": "F6",
                    "midi": 89,
                    "time": 98.47834949999967,
                    "velocity": 0.5511811023622047,
                    "duration": 0.10869574999999543
                },
                {
                    "name": "C6",
                    "midi": 84,
                    "time": 98.47834949999967,
                    "velocity": 0.5511811023622047,
                    "duration": 0.10869574999999543
                },
                {
                    "name": "D7",
                    "midi": 98,
                    "time": 98.69574099999966,
                    "velocity": 0.6456692913385826,
                    "duration": 0.10869574999999543
                },
                {
                    "name": "D6",
                    "midi": 86,
                    "time": 98.69574099999966,
                    "velocity": 0.5433070866141733,
                    "duration": 0.10869574999999543
                },
                {
                    "name": "F6",
                    "midi": 89,
                    "time": 98.69574099999966,
                    "velocity": 0.5433070866141733,
                    "duration": 0.10869574999999543
                },
                {
                    "name": "B6",
                    "midi": 95,
                    "time": 98.91313249999965,
                    "velocity": 0.5433070866141733,
                    "duration": 0.10869574999999543
                },
                {
                    "name": "B5",
                    "midi": 83,
                    "time": 98.91313249999965,
                    "velocity": 0.4566929133858268,
                    "duration": 0.10869574999999543
                },
                {
                    "name": "D6",
                    "midi": 86,
                    "time": 98.91313249999965,
                    "velocity": 0.4566929133858268,
                    "duration": 0.10869574999999543
                },
                {
                    "name": "E6",
                    "midi": 88,
                    "time": 98.91313249999965,
                    "velocity": 0.4566929133858268,
                    "duration": 0.10869574999999543
                },
                {
                    "name": "E6",
                    "midi": 88,
                    "time": 99.13052399999964,
                    "velocity": 0.3937007874015748,
                    "duration": 0.10869574999999543
                },
                {
                    "name": "C7",
                    "midi": 96,
                    "time": 99.13052399999964,
                    "velocity": 0.4645669291338583,
                    "duration": 0.10869574999999543
                },
                {
                    "name": "C6",
                    "midi": 84,
                    "time": 99.13052399999964,
                    "velocity": 0.3937007874015748,
                    "duration": 0.10869574999999543
                },
                {
                    "name": "B5",
                    "midi": 83,
                    "time": 99.34791549999963,
                    "velocity": 0.3543307086614173,
                    "duration": 0.10869574999999543
                },
                {
                    "name": "D6",
                    "midi": 86,
                    "time": 99.34791549999963,
                    "velocity": 0.3543307086614173,
                    "duration": 0.10869574999999543
                },
                {
                    "name": "E6",
                    "midi": 88,
                    "time": 99.34791549999963,
                    "velocity": 0.3543307086614173,
                    "duration": 0.10869574999999543
                },
                {
                    "name": "B6",
                    "midi": 95,
                    "time": 99.34791549999963,
                    "velocity": 0.41732283464566927,
                    "duration": 0.10869574999999543
                },
                {
                    "name": "C7",
                    "midi": 96,
                    "time": 99.56530699999962,
                    "velocity": 0.4645669291338583,
                    "duration": 0.10869574999999543
                },
                {
                    "name": "E6",
                    "midi": 88,
                    "time": 99.56530699999962,
                    "velocity": 0.3937007874015748,
                    "duration": 0.10869574999999543
                },
                {
                    "name": "C6",
                    "midi": 84,
                    "time": 99.56530699999962,
                    "velocity": 0.3937007874015748,
                    "duration": 0.10869574999999543
                },
                {
                    "name": "C6",
                    "midi": 84,
                    "time": 99.78269849999961,
                    "velocity": 0.3543307086614173,
                    "duration": 0.10869574999999543
                },
                {
                    "name": "A6",
                    "midi": 93,
                    "time": 99.78269849999961,
                    "velocity": 0.41732283464566927,
                    "duration": 0.10869574999999543
                },
                {
                    "name": "E6",
                    "midi": 88,
                    "time": 99.78269849999961,
                    "velocity": 0.3543307086614173,
                    "duration": 0.10869574999999543
                },
                {
                    "name": "A5",
                    "midi": 81,
                    "time": 99.78269849999961,
                    "velocity": 0.3543307086614173,
                    "duration": 0.10869574999999543
                },
                {
                    "name": "A5",
                    "midi": 81,
                    "time": 100.0000899999996,
                    "velocity": 0.3937007874015748,
                    "duration": 0.10869574999999543
                },
                {
                    "name": "E6",
                    "midi": 88,
                    "time": 100.0000899999996,
                    "velocity": 0.3937007874015748,
                    "duration": 0.10869574999999543
                },
                {
                    "name": "G6",
                    "midi": 91,
                    "time": 100.0000899999996,
                    "velocity": 0.4645669291338583,
                    "duration": 0.10869574999999543
                },
                {
                    "name": "G6",
                    "midi": 91,
                    "time": 100.2174814999996,
                    "velocity": 0.41732283464566927,
                    "duration": 0.10869574999999543
                },
                {
                    "name": "A5",
                    "midi": 81,
                    "time": 100.2174814999996,
                    "velocity": 0.3543307086614173,
                    "duration": 0.10869574999999543
                },
                {
                    "name": "C#6",
                    "midi": 85,
                    "time": 100.2174814999996,
                    "velocity": 0.3543307086614173,
                    "duration": 0.10869574999999543
                },
                {
                    "name": "F#6",
                    "midi": 90,
                    "time": 100.43487299999958,
                    "velocity": 0.4645669291338583,
                    "duration": 0.10869574999999543
                },
                {
                    "name": "A5",
                    "midi": 81,
                    "time": 100.43487299999958,
                    "velocity": 0.3937007874015748,
                    "duration": 0.10869574999999543
                },
                {
                    "name": "C6",
                    "midi": 84,
                    "time": 100.43487299999958,
                    "velocity": 0.3937007874015748,
                    "duration": 0.10869574999999543
                },
                {
                    "name": "C6",
                    "midi": 84,
                    "time": 100.65226449999957,
                    "velocity": 0.3543307086614173,
                    "duration": 0.10869574999999543
                },
                {
                    "name": "A6",
                    "midi": 93,
                    "time": 100.65226449999957,
                    "velocity": 0.41732283464566927,
                    "duration": 0.10869574999999543
                },
                {
                    "name": "A5",
                    "midi": 81,
                    "time": 100.65226449999957,
                    "velocity": 0.3543307086614173,
                    "duration": 0.10869574999999543
                },
                {
                    "name": "G6",
                    "midi": 91,
                    "time": 100.86965599999957,
                    "velocity": 0.5039370078740157,
                    "duration": 0.10869574999999543
                },
                {
                    "name": "B5",
                    "midi": 83,
                    "time": 100.86965599999957,
                    "velocity": 0.4330708661417323,
                    "duration": 0.10869574999999543
                },
                {
                    "name": "G5",
                    "midi": 79,
                    "time": 100.86965599999957,
                    "velocity": 0.4330708661417323,
                    "duration": 0.10869574999999543
                },
                {
                    "name": "B5",
                    "midi": 83,
                    "time": 101.08704749999956,
                    "velocity": 0.3937007874015748,
                    "duration": 0.10869574999999543
                },
                {
                    "name": "D6",
                    "midi": 86,
                    "time": 101.08704749999956,
                    "velocity": 0.4645669291338583,
                    "duration": 0.10869574999999543
                },
                {
                    "name": "D5",
                    "midi": 74,
                    "time": 101.08704749999956,
                    "velocity": 0.3937007874015748,
                    "duration": 0.10869574999999543
                },
                {
                    "name": "C6",
                    "midi": 84,
                    "time": 101.30443899999955,
                    "velocity": 0.4566929133858268,
                    "duration": 0.10869574999999543
                },
                {
                    "name": "F#5",
                    "midi": 78,
                    "time": 101.30443899999955,
                    "velocity": 0.4566929133858268,
                    "duration": 0.10869574999999543
                },
                {
                    "name": "F#6",
                    "midi": 90,
                    "time": 101.30443899999955,
                    "velocity": 0.5433070866141733,
                    "duration": 0.10869574999999543
                },
                {
                    "name": "F#6",
                    "midi": 90,
                    "time": 101.52183049999954,
                    "velocity": 0.4330708661417323,
                    "duration": 0.10869574999999543
                },
                {
                    "name": "C6",
                    "midi": 84,
                    "time": 101.52183049999954,
                    "velocity": 0.4330708661417323,
                    "duration": 0.10869574999999543
                },
                {
                    "name": "A6",
                    "midi": 93,
                    "time": 101.52183049999954,
                    "velocity": 0.5118110236220472,
                    "duration": 0.10869574999999543
                },
                {
                    "name": "A5",
                    "midi": 81,
                    "time": 101.52183049999954,
                    "velocity": 0.4330708661417323,
                    "duration": 0.10869574999999543
                },
                {
                    "name": "B5",
                    "midi": 83,
                    "time": 101.73922199999953,
                    "velocity": 0.49606299212598426,
                    "duration": 0.10869574999999543
                },
                {
                    "name": "G5",
                    "midi": 79,
                    "time": 101.73922199999953,
                    "velocity": 0.49606299212598426,
                    "duration": 0.10869574999999543
                },
                {
                    "name": "G6",
                    "midi": 91,
                    "time": 101.73922199999953,
                    "velocity": 0.5905511811023622,
                    "duration": 0.10869574999999543
                },
                {
                    "name": "B5",
                    "midi": 83,
                    "time": 101.95661349999952,
                    "velocity": 0.4645669291338583,
                    "duration": 0.10869574999999543
                },
                {
                    "name": "D5",
                    "midi": 74,
                    "time": 101.95661349999952,
                    "velocity": 0.4645669291338583,
                    "duration": 0.10869574999999543
                },
                {
                    "name": "D6",
                    "midi": 86,
                    "time": 101.95661349999952,
                    "velocity": 0.5433070866141733,
                    "duration": 0.10869574999999543
                },
                {
                    "name": "C6",
                    "midi": 84,
                    "time": 102.17400499999951,
                    "velocity": 0.5433070866141733,
                    "duration": 0.10869574999999543
                },
                {
                    "name": "F#6",
                    "midi": 90,
                    "time": 102.17400499999951,
                    "velocity": 0.6299212598425197,
                    "duration": 0.10869574999999543
                },
                {
                    "name": "F#5",
                    "midi": 78,
                    "time": 102.17400499999951,
                    "velocity": 0.5433070866141733,
                    "duration": 0.10869574999999543
                },
                {
                    "name": "F#6",
                    "midi": 90,
                    "time": 102.3913964999995,
                    "velocity": 0.5039370078740157,
                    "duration": 0.10869574999999543
                },
                {
                    "name": "C6",
                    "midi": 84,
                    "time": 102.3913964999995,
                    "velocity": 0.5039370078740157,
                    "duration": 0.10869574999999543
                },
                {
                    "name": "A5",
                    "midi": 81,
                    "time": 102.3913964999995,
                    "velocity": 0.5039370078740157,
                    "duration": 0.10869574999999543
                },
                {
                    "name": "A6",
                    "midi": 93,
                    "time": 102.3913964999995,
                    "velocity": 0.5984251968503937,
                    "duration": 0.10869574999999543
                },
                {
                    "name": "G5",
                    "midi": 79,
                    "time": 102.60878799999949,
                    "velocity": 0.6062992125984252,
                    "duration": 0.10869574999999543
                },
                {
                    "name": "G6",
                    "midi": 91,
                    "time": 102.71748374999949,
                    "velocity": 0.5511811023622047,
                    "duration": 0.10869574999999543
                },
                {
                    "name": "D5",
                    "midi": 74,
                    "time": 102.82617949999948,
                    "velocity": 0.6220472440944882,
                    "duration": 0.10869574999999543
                },
                {
                    "name": "D6",
                    "midi": 86,
                    "time": 102.93487524999948,
                    "velocity": 0.5748031496062992,
                    "duration": 0.10869574999999543
                },
                {
                    "name": "F#5",
                    "midi": 78,
                    "time": 103.04357099999947,
                    "velocity": 0.6456692913385826,
                    "duration": 0.10869574999999543
                },
                {
                    "name": "F#6",
                    "midi": 90,
                    "time": 103.15226674999947,
                    "velocity": 0.5984251968503937,
                    "duration": 0.10869574999999543
                },
                {
                    "name": "A5",
                    "midi": 81,
                    "time": 103.26096249999947,
                    "velocity": 0.6692913385826772,
                    "duration": 0.10869574999999543
                },
                {
                    "name": "A6",
                    "midi": 93,
                    "time": 103.36965824999946,
                    "velocity": 0.6220472440944882,
                    "duration": 0.10869574999999543
                },
                {
                    "name": "G5",
                    "midi": 79,
                    "time": 103.47835399999946,
                    "velocity": 0.6929133858267716,
                    "duration": 0.10869574999999543
                },
                {
                    "name": "G6",
                    "midi": 91,
                    "time": 103.58704974999945,
                    "velocity": 0.6456692913385826,
                    "duration": 0.10869574999999543
                },
                {
                    "name": "D5",
                    "midi": 74,
                    "time": 103.69574549999945,
                    "velocity": 0.7165354330708661,
                    "duration": 0.10869574999999543
                },
                {
                    "name": "D6",
                    "midi": 86,
                    "time": 103.80444124999944,
                    "velocity": 0.6771653543307087,
                    "duration": 0.10869574999999543
                },
                {
                    "name": "F#5",
                    "midi": 78,
                    "time": 103.91313699999944,
                    "velocity": 0.7401574803149606,
                    "duration": 0.10869574999999543
                },
                {
                    "name": "F#6",
                    "midi": 90,
                    "time": 104.02183274999943,
                    "velocity": 0.7086614173228346,
                    "duration": 0.10869574999999543
                },
                {
                    "name": "A5",
                    "midi": 81,
                    "time": 104.13052849999943,
                    "velocity": 0.7795275590551181,
                    "duration": 0.10869574999999543
                },
                {
                    "name": "A6",
                    "midi": 93,
                    "time": 104.23922424999942,
                    "velocity": 0.7244094488188977,
                    "duration": 0.10869574999999543
                },
                {
                    "name": "G6",
                    "midi": 91,
                    "time": 104.34791999999942,
                    "velocity": 0.8661417322834646,
                    "duration": 0.16304362500000025
                },
                {
                    "name": "G5",
                    "midi": 79,
                    "time": 104.34791999999942,
                    "velocity": 0.7165354330708661,
                    "duration": 0.16304362500000025
                },
                {
                    "name": "A6",
                    "midi": 93,
                    "time": 104.78270299999942,
                    "velocity": 0.8818897637795275,
                    "duration": 0.16304362500000025
                },
                {
                    "name": "A5",
                    "midi": 81,
                    "time": 104.78270299999942,
                    "velocity": 0.7401574803149606,
                    "duration": 0.16304362500000025
                },
                {
                    "name": "A#5",
                    "midi": 82,
                    "time": 105.21748599999941,
                    "velocity": 0.7795275590551181,
                    "duration": 0.7608702499999964
                },
                {
                    "name": "A#6",
                    "midi": 94,
                    "time": 105.21748599999941,
                    "velocity": 0.9291338582677166,
                    "duration": 0.7608702499999964
                },
                {
                    "name": "A#3",
                    "midi": 58,
                    "time": 107.7174882499994,
                    "velocity": 0.44881889763779526,
                    "duration": 0.10869574999999543
                },
                {
                    "name": "A#4",
                    "midi": 70,
                    "time": 107.8261839999994,
                    "velocity": 0.6377952755905512,
                    "duration": 0.3260872500000005
                },
                {
                    "name": "A#4",
                    "midi": 70,
                    "time": 108.1522712499994,
                    "velocity": 0.5590551181102362,
                    "duration": 0.10869574999999543
                },
                {
                    "name": "A#4",
                    "midi": 70,
                    "time": 108.2609669999994,
                    "velocity": 0.6141732283464567,
                    "duration": 0.21739150000000507
                },
                {
                    "name": "F5",
                    "midi": 77,
                    "time": 109.8914032499994,
                    "velocity": 0.6929133858267716,
                    "duration": 0.10869574999999543
                },
                {
                    "name": "D6",
                    "midi": 86,
                    "time": 109.8914032499994,
                    "velocity": 0.8267716535433071,
                    "duration": 0.10869574999999543
                },
                {
                    "name": "A#5",
                    "midi": 82,
                    "time": 109.8914032499994,
                    "velocity": 0.6929133858267716,
                    "duration": 0.10869574999999543
                },
                {
                    "name": "D5",
                    "midi": 74,
                    "time": 109.8914032499994,
                    "velocity": 0.6929133858267716,
                    "duration": 0.10869574999999543
                },
                {
                    "name": "D6",
                    "midi": 86,
                    "time": 110.0000989999994,
                    "velocity": 0.7401574803149606,
                    "duration": 0.16304362500000025
                },
                {
                    "name": "D5",
                    "midi": 74,
                    "time": 110.0000989999994,
                    "velocity": 0.6220472440944882,
                    "duration": 0.16304362500000025
                },
                {
                    "name": "A#5",
                    "midi": 82,
                    "time": 110.0000989999994,
                    "velocity": 0.6220472440944882,
                    "duration": 0.16304362500000025
                },
                {
                    "name": "F5",
                    "midi": 77,
                    "time": 110.0000989999994,
                    "velocity": 0.6220472440944882,
                    "duration": 0.16304362500000025
                },
                {
                    "name": "D5",
                    "midi": 74,
                    "time": 110.2174904999994,
                    "velocity": 0.6299212598425197,
                    "duration": 0.04076090625000006
                },
                {
                    "name": "F5",
                    "midi": 77,
                    "time": 110.2174904999994,
                    "velocity": 0.6299212598425197,
                    "duration": 0.04076090625000006
                },
                {
                    "name": "D#6",
                    "midi": 87,
                    "time": 110.2174904999994,
                    "velocity": 0.7874015748031497,
                    "duration": 0.04076090625000006
                },
                {
                    "name": "A#5",
                    "midi": 82,
                    "time": 110.2174904999994,
                    "velocity": 0.6299212598425197,
                    "duration": 0.04076090625000006
                },
                {
                    "name": "D5",
                    "midi": 74,
                    "time": 110.3261862499994,
                    "velocity": 0.6456692913385826,
                    "duration": 0.04076090625000006
                },
                {
                    "name": "F5",
                    "midi": 77,
                    "time": 110.3261862499994,
                    "velocity": 0.6456692913385826,
                    "duration": 0.04076090625000006
                },
                {
                    "name": "A#5",
                    "midi": 82,
                    "time": 110.3261862499994,
                    "velocity": 0.6456692913385826,
                    "duration": 0.04076090625000006
                },
                {
                    "name": "D6",
                    "midi": 86,
                    "time": 110.3261862499994,
                    "velocity": 0.7637795275590551,
                    "duration": 0.04076090625000006
                },
                {
                    "name": "F5",
                    "midi": 77,
                    "time": 110.43488199999939,
                    "velocity": 0.6929133858267716,
                    "duration": 0.10869574999999543
                },
                {
                    "name": "D6",
                    "midi": 86,
                    "time": 110.43488199999939,
                    "velocity": 0.8267716535433071,
                    "duration": 0.10869574999999543
                },
                {
                    "name": "A#5",
                    "midi": 82,
                    "time": 110.43488199999939,
                    "velocity": 0.6929133858267716,
                    "duration": 0.10869574999999543
                },
                {
                    "name": "D5",
                    "midi": 74,
                    "time": 110.43488199999939,
                    "velocity": 0.6929133858267716,
                    "duration": 0.10869574999999543
                },
                {
                    "name": "A#4",
                    "midi": 70,
                    "time": 110.65227349999938,
                    "velocity": 0.6299212598425197,
                    "duration": 0.10869574999999543
                },
                {
                    "name": "A#5",
                    "midi": 82,
                    "time": 110.65227349999938,
                    "velocity": 0.7559055118110236,
                    "duration": 0.10869574999999543
                },
                {
                    "name": "F5",
                    "midi": 77,
                    "time": 110.65227349999938,
                    "velocity": 0.6299212598425197,
                    "duration": 0.10869574999999543
                },
                {
                    "name": "D5",
                    "midi": 74,
                    "time": 110.65227349999938,
                    "velocity": 0.6299212598425197,
                    "duration": 0.10869574999999543
                },
                {
                    "name": "F5",
                    "midi": 77,
                    "time": 111.63053524999938,
                    "velocity": 0.6929133858267716,
                    "duration": 0.10869574999999543
                },
                {
                    "name": "A#5",
                    "midi": 82,
                    "time": 111.63053524999938,
                    "velocity": 0.6929133858267716,
                    "duration": 0.10869574999999543
                },
                {
                    "name": "D6",
                    "midi": 86,
                    "time": 111.63053524999938,
                    "velocity": 0.6929133858267716,
                    "duration": 0.10869574999999543
                },
                {
                    "name": "F6",
                    "midi": 89,
                    "time": 111.63053524999938,
                    "velocity": 0.8267716535433071,
                    "duration": 0.10869574999999543
                },
                {
                    "name": "F6",
                    "midi": 89,
                    "time": 111.73923099999938,
                    "velocity": 0.7401574803149606,
                    "duration": 0.16304362500000025
                },
                {
                    "name": "D6",
                    "midi": 86,
                    "time": 111.73923099999938,
                    "velocity": 0.6220472440944882,
                    "duration": 0.16304362500000025
                },
                {
                    "name": "A#5",
                    "midi": 82,
                    "time": 111.73923099999938,
                    "velocity": 0.6220472440944882,
                    "duration": 0.16304362500000025
                },
                {
                    "name": "F5",
                    "midi": 77,
                    "time": 111.73923099999938,
                    "velocity": 0.6220472440944882,
                    "duration": 0.16304362500000025
                },
                {
                    "name": "A#5",
                    "midi": 82,
                    "time": 111.95662249999938,
                    "velocity": 0.6299212598425197,
                    "duration": 0.04076090625000006
                },
                {
                    "name": "G6",
                    "midi": 91,
                    "time": 111.95662249999938,
                    "velocity": 0.7874015748031497,
                    "duration": 0.04076090625000006
                },
                {
                    "name": "F5",
                    "midi": 77,
                    "time": 111.95662249999938,
                    "velocity": 0.6299212598425197,
                    "duration": 0.04076090625000006
                },
                {
                    "name": "D6",
                    "midi": 86,
                    "time": 111.95662249999938,
                    "velocity": 0.6299212598425197,
                    "duration": 0.04076090625000006
                },
                {
                    "name": "A#5",
                    "midi": 82,
                    "time": 112.06531824999938,
                    "velocity": 0.6456692913385826,
                    "duration": 0.04076090625000006
                },
                {
                    "name": "D6",
                    "midi": 86,
                    "time": 112.06531824999938,
                    "velocity": 0.6456692913385826,
                    "duration": 0.04076090625000006
                },
                {
                    "name": "F6",
                    "midi": 89,
                    "time": 112.06531824999938,
                    "velocity": 0.7637795275590551,
                    "duration": 0.04076090625000006
                },
                {
                    "name": "F5",
                    "midi": 77,
                    "time": 112.06531824999938,
                    "velocity": 0.6456692913385826,
                    "duration": 0.04076090625000006
                },
                {
                    "name": "F6",
                    "midi": 89,
                    "time": 112.17401399999937,
                    "velocity": 0.8267716535433071,
                    "duration": 0.10869574999999543
                },
                {
                    "name": "F5",
                    "midi": 77,
                    "time": 112.17401399999937,
                    "velocity": 0.6929133858267716,
                    "duration": 0.10869574999999543
                },
                {
                    "name": "A#5",
                    "midi": 82,
                    "time": 112.17401399999937,
                    "velocity": 0.6929133858267716,
                    "duration": 0.10869574999999543
                },
                {
                    "name": "D6",
                    "midi": 86,
                    "time": 112.17401399999937,
                    "velocity": 0.6929133858267716,
                    "duration": 0.10869574999999543
                },
                {
                    "name": "D6",
                    "midi": 86,
                    "time": 112.39140549999937,
                    "velocity": 0.7559055118110236,
                    "duration": 0.10869574999999543
                },
                {
                    "name": "A#5",
                    "midi": 82,
                    "time": 112.39140549999937,
                    "velocity": 0.6299212598425197,
                    "duration": 0.10869574999999543
                },
                {
                    "name": "D5",
                    "midi": 74,
                    "time": 112.39140549999937,
                    "velocity": 0.6299212598425197,
                    "duration": 0.10869574999999543
                },
                {
                    "name": "F5",
                    "midi": 77,
                    "time": 112.39140549999937,
                    "velocity": 0.6299212598425197,
                    "duration": 0.10869574999999543
                },
                {
                    "name": "A#4",
                    "midi": 70,
                    "time": 112.82618849999936,
                    "velocity": 0.3937007874015748,
                    "duration": 0.10869574999999543
                },
                {
                    "name": "C5",
                    "midi": 72,
                    "time": 112.93488424999936,
                    "velocity": 0.3543307086614173,
                    "duration": 0.10869574999999543
                },
                {
                    "name": "D5",
                    "midi": 74,
                    "time": 113.04357999999935,
                    "velocity": 0.3937007874015748,
                    "duration": 0.43478300000001013
                },
                {
                    "name": "G4",
                    "midi": 67,
                    "time": 113.26097149999936,
                    "velocity": 0.30708661417322836,
                    "duration": 0.21739150000000507
                },
                {
                    "name": "C5",
                    "midi": 72,
                    "time": 113.47836299999936,
                    "velocity": 0.30708661417322836,
                    "duration": 0.21739150000000507
                },
                {
                    "name": "A4",
                    "midi": 69,
                    "time": 113.47836299999936,
                    "velocity": 0.25984251968503935,
                    "duration": 0.21739150000000507
                },
                {
                    "name": "C5",
                    "midi": 72,
                    "time": 113.69575449999937,
                    "velocity": 0.3937007874015748,
                    "duration": 0.10869574999999543
                },
                {
                    "name": "G#4",
                    "midi": 68,
                    "time": 113.69575449999937,
                    "velocity": 0.33070866141732286,
                    "duration": 0.21739149999999086
                },
                {
                    "name": "D5",
                    "midi": 74,
                    "time": 113.80445024999936,
                    "velocity": 0.36220472440944884,
                    "duration": 0.10869574999999543
                },
                {
                    "name": "G4",
                    "midi": 67,
                    "time": 113.91314599999936,
                    "velocity": 0.36220472440944884,
                    "duration": 0.21739150000000507
                },
                {
                    "name": "D#5",
                    "midi": 75,
                    "time": 113.91314599999936,
                    "velocity": 0.4330708661417323,
                    "duration": 0.43478300000001013
                },
                {
                    "name": "A4",
                    "midi": 69,
                    "time": 114.13053749999936,
                    "velocity": 0.3543307086614173,
                    "duration": 0.21739150000000507
                },
                {
                    "name": "A#4",
                    "midi": 70,
                    "time": 114.34792899999937,
                    "velocity": 0.2992125984251969,
                    "duration": 0.21739150000000507
                },
                {
                    "name": "D5",
                    "midi": 74,
                    "time": 114.34792899999937,
                    "velocity": 0.3543307086614173,
                    "duration": 0.21739150000000507
                },
                {
                    "name": "G4",
                    "midi": 67,
                    "time": 114.56532049999937,
                    "velocity": 0.30708661417322836,
                    "duration": 0.21739149999999086
                },
                {
                    "name": "D5",
                    "midi": 74,
                    "time": 114.56532049999937,
                    "velocity": 0.3700787401574803,
                    "duration": 0.10869574999999543
                },
                {
                    "name": "D#5",
                    "midi": 75,
                    "time": 114.67401624999937,
                    "velocity": 0.3937007874015748,
                    "duration": 0.10869574999999543
                },
                {
                    "name": "F5",
                    "midi": 77,
                    "time": 114.78271199999936,
                    "velocity": 0.4251968503937008,
                    "duration": 0.3260872500000005
                },
                {
                    "name": "F4",
                    "midi": 65,
                    "time": 114.78271199999936,
                    "velocity": 0.3543307086614173,
                    "duration": 0.21739150000000507
                },
                {
                    "name": "A#4",
                    "midi": 70,
                    "time": 115.00010349999937,
                    "velocity": 0.3543307086614173,
                    "duration": 0.21739149999999086
                },
                {
                    "name": "G5",
                    "midi": 79,
                    "time": 115.10879924999936,
                    "velocity": 0.4094488188976378,
                    "duration": 0.10869574999999543
                },
                {
                    "name": "G4",
                    "midi": 67,
                    "time": 115.21749499999936,
                    "velocity": 0.33070866141732286,
                    "duration": 0.21739149999999086
                },
                {
                    "name": "F5",
                    "midi": 77,
                    "time": 115.21749499999936,
                    "velocity": 0.3937007874015748,
                    "duration": 0.10869574999999543
                },
                {
                    "name": "D#5",
                    "midi": 75,
                    "time": 115.32619074999936,
                    "velocity": 0.33858267716535434,
                    "duration": 0.21739149999999086
                },
                {
                    "name": "A4",
                    "midi": 69,
                    "time": 115.43488649999935,
                    "velocity": 0.33858267716535434,
                    "duration": 0.21739149999999086
                },
                {
                    "name": "F5",
                    "midi": 77,
                    "time": 115.54358224999935,
                    "velocity": 0.3543307086614173,
                    "duration": 0.10869574999999543
                },
                {
                    "name": "D#5",
                    "midi": 75,
                    "time": 115.65227799999934,
                    "velocity": 0.3858267716535433,
                    "duration": 0.10869574999999543
                },
                {
                    "name": "F4",
                    "midi": 65,
                    "time": 115.65227799999934,
                    "velocity": 0.2755905511811024,
                    "duration": 0.21739149999999086
                },
                {
                    "name": "A#4",
                    "midi": 70,
                    "time": 115.65227799999934,
                    "velocity": 0.2755905511811024,
                    "duration": 0.21739149999999086
                },
                {
                    "name": "D5",
                    "midi": 74,
                    "time": 115.76097374999934,
                    "velocity": 0.3228346456692913,
                    "duration": 0.10869574999999543
                },
                {
                    "name": "C5",
                    "midi": 72,
                    "time": 115.86966949999933,
                    "velocity": 0.23622047244094488,
                    "duration": 0.21739149999999086
                },
                {
                    "name": "G4",
                    "midi": 67,
                    "time": 115.86966949999933,
                    "velocity": 0.23622047244094488,
                    "duration": 0.21739149999999086
                },
                {
                    "name": "F5",
                    "midi": 77,
                    "time": 115.86966949999933,
                    "velocity": 0.33858267716535434,
                    "duration": 0.10869574999999543
                },
                {
                    "name": "D#5",
                    "midi": 75,
                    "time": 115.97836524999933,
                    "velocity": 0.29133858267716534,
                    "duration": 0.10869574999999543
                },
                {
                    "name": "A4",
                    "midi": 69,
                    "time": 116.08706099999932,
                    "velocity": 0.23622047244094488,
                    "duration": 0.21739150000000507
                },
                {
                    "name": "C5",
                    "midi": 72,
                    "time": 116.08706099999932,
                    "velocity": 0.2755905511811024,
                    "duration": 0.21739150000000507
                },
                {
                    "name": "A#5",
                    "midi": 82,
                    "time": 116.30445249999933,
                    "velocity": 0.3937007874015748,
                    "duration": 0.10869574999999543
                },
                {
                    "name": "C6",
                    "midi": 84,
                    "time": 116.41314824999932,
                    "velocity": 0.3543307086614173,
                    "duration": 0.10869574999999543
                },
                {
                    "name": "D6",
                    "midi": 86,
                    "time": 116.52184399999932,
                    "velocity": 0.3937007874015748,
                    "duration": 0.43478300000001013
                },
                {
                    "name": "G5",
                    "midi": 79,
                    "time": 116.73923549999932,
                    "velocity": 0.30708661417322836,
                    "duration": 0.21739150000000507
                },
                {
                    "name": "A5",
                    "midi": 81,
                    "time": 116.95662699999933,
                    "velocity": 0.25984251968503935,
                    "duration": 0.21739150000000507
                },
                {
                    "name": "C6",
                    "midi": 84,
                    "time": 116.95662699999933,
                    "velocity": 0.30708661417322836,
                    "duration": 0.21739150000000507
                },
                {
                    "name": "G#5",
                    "midi": 80,
                    "time": 117.17401849999933,
                    "velocity": 0.33070866141732286,
                    "duration": 0.21739149999999086
                },
                {
                    "name": "C6",
                    "midi": 84,
                    "time": 117.17401849999933,
                    "velocity": 0.3937007874015748,
                    "duration": 0.10869574999999543
                },
                {
                    "name": "D6",
                    "midi": 86,
                    "time": 117.28271424999933,
                    "velocity": 0.36220472440944884,
                    "duration": 0.10869574999999543
                },
                {
                    "name": "G5",
                    "midi": 79,
                    "time": 117.39140999999933,
                    "velocity": 0.36220472440944884,
                    "duration": 0.21739150000000507
                },
                {
                    "name": "D#6",
                    "midi": 87,
                    "time": 117.39140999999933,
                    "velocity": 0.4330708661417323,
                    "duration": 0.43478300000001013
                },
                {
                    "name": "A5",
                    "midi": 81,
                    "time": 117.60880149999933,
                    "velocity": 0.3543307086614173,
                    "duration": 0.21739150000000507
                },
                {
                    "name": "A#5",
                    "midi": 82,
                    "time": 117.82619299999934,
                    "velocity": 0.2992125984251969,
                    "duration": 0.21739150000000507
                },
                {
                    "name": "D6",
                    "midi": 86,
                    "time": 117.82619299999934,
                    "velocity": 0.3543307086614173,
                    "duration": 0.21739150000000507
                },
                {
                    "name": "D6",
                    "midi": 86,
                    "time": 118.04358449999934,
                    "velocity": 0.4015748031496063,
                    "duration": 0.10869574999999543
                },
                {
                    "name": "G5",
                    "midi": 79,
                    "time": 118.04358449999934,
                    "velocity": 0.30708661417322836,
                    "duration": 0.21739149999999086
                },
                {
                    "name": "D#6",
                    "midi": 87,
                    "time": 118.15228024999934,
                    "velocity": 0.4330708661417323,
                    "duration": 0.10869574999999543
                },
                {
                    "name": "F5",
                    "midi": 77,
                    "time": 118.26097599999933,
                    "velocity": 0.3543307086614173,
                    "duration": 0.21739150000000507
                },
                {
                    "name": "F6",
                    "midi": 89,
                    "time": 118.26097599999933,
                    "velocity": 0.4645669291338583,
                    "duration": 0.3260872500000005
                },
                {
                    "name": "A#5",
                    "midi": 82,
                    "time": 118.47836749999934,
                    "velocity": 0.3543307086614173,
                    "duration": 0.21739149999999086
                },
                {
                    "name": "G6",
                    "midi": 91,
                    "time": 118.58706324999933,
                    "velocity": 0.44881889763779526,
                    "duration": 0.10869574999999543
                },
                {
                    "name": "G5",
                    "midi": 79,
                    "time": 118.69575899999933,
                    "velocity": 0.33070866141732286,
                    "duration": 0.21739149999999086
                },
                {
                    "name": "F6",
                    "midi": 89,
                    "time": 118.69575899999933,
                    "velocity": 0.4330708661417323,
                    "duration": 0.10869574999999543
                },
                {
                    "name": "D#6",
                    "midi": 87,
                    "time": 118.80445474999932,
                    "velocity": 0.3700787401574803,
                    "duration": 0.21739149999999086
                },
                {
                    "name": "A5",
                    "midi": 81,
                    "time": 118.91315049999932,
                    "velocity": 0.33858267716535434,
                    "duration": 0.21739149999999086
                },
                {
                    "name": "F6",
                    "midi": 89,
                    "time": 119.02184624999931,
                    "velocity": 0.3937007874015748,
                    "duration": 0.10869574999999543
                },
                {
                    "name": "D#6",
                    "midi": 87,
                    "time": 119.13054199999931,
                    "velocity": 0.44881889763779526,
                    "duration": 0.10869574999999543
                },
                {
                    "name": "F5",
                    "midi": 77,
                    "time": 119.13054199999931,
                    "velocity": 0.3464566929133858,
                    "duration": 0.21739149999999086
                },
                {
                    "name": "D6",
                    "midi": 86,
                    "time": 119.2392377499993,
                    "velocity": 0.3858267716535433,
                    "duration": 0.21739149999999086
                },
                {
                    "name": "A#5",
                    "midi": 82,
                    "time": 119.3479334999993,
                    "velocity": 0.36220472440944884,
                    "duration": 0.4347829999999817
                },
                {
                    "name": "D#6",
                    "midi": 87,
                    "time": 119.4566292499993,
                    "velocity": 0.41732283464566927,
                    "duration": 0.10869574999999543
                },
                {
                    "name": "D6",
                    "midi": 86,
                    "time": 119.56532499999929,
                    "velocity": 0.47244094488188976,
                    "duration": 0.10869574999999543
                },
                {
                    "name": "C6",
                    "midi": 84,
                    "time": 119.67402074999929,
                    "velocity": 0.3858267716535433,
                    "duration": 0.10869574999999543
                },
                {
                    "name": "F5",
                    "midi": 77,
                    "time": 119.78271649999928,
                    "velocity": 0.3700787401574803,
                    "duration": 0.21739149999999086
                },
                {
                    "name": "D6",
                    "midi": 86,
                    "time": 119.78271649999928,
                    "velocity": 0.4330708661417323,
                    "duration": 0.10869574999999543
                },
                {
                    "name": "A5",
                    "midi": 81,
                    "time": 119.78271649999928,
                    "velocity": 0.3700787401574803,
                    "duration": 0.21739149999999086
                },
                {
                    "name": "D#6",
                    "midi": 87,
                    "time": 119.89141224999928,
                    "velocity": 0.4015748031496063,
                    "duration": 0.10869574999999543
                },
                {
                    "name": "G6",
                    "midi": 91,
                    "time": 120.00010799999927,
                    "velocity": 0.5275590551181102,
                    "duration": 0.10869574999999543
                },
                {
                    "name": "F5",
                    "midi": 77,
                    "time": 120.00010799999927,
                    "velocity": 0.4094488188976378,
                    "duration": 0.21739149999999086
                },
                {
                    "name": "A#5",
                    "midi": 82,
                    "time": 120.00010799999927,
                    "velocity": 0.4094488188976378,
                    "duration": 0.21739149999999086
                },
                {
                    "name": "F6",
                    "midi": 89,
                    "time": 120.10880374999927,
                    "velocity": 0.41732283464566927,
                    "duration": 0.10869574999999543
                },
                {
                    "name": "A#5",
                    "midi": 82,
                    "time": 120.21749949999926,
                    "velocity": 0.3228346456692913,
                    "duration": 0.21739149999999086
                },
                {
                    "name": "G6",
                    "midi": 91,
                    "time": 120.21749949999926,
                    "velocity": 0.4566929133858268,
                    "duration": 0.10869574999999543
                },
                {
                    "name": "F6",
                    "midi": 89,
                    "time": 120.32619524999926,
                    "velocity": 0.4645669291338583,
                    "duration": 0.1068841541666643
                },
                {
                    "name": "G5",
                    "midi": 79,
                    "time": 120.43489099999925,
                    "velocity": 0.41732283464566927,
                    "duration": 0.21739149999999086
                },
                {
                    "name": "F6",
                    "midi": 89,
                    "time": 120.43489099999925,
                    "velocity": 0.5433070866141733,
                    "duration": 0.10869574999999543
                },
                {
                    "name": "D#6",
                    "midi": 87,
                    "time": 120.54358674999925,
                    "velocity": 0.4330708661417323,
                    "duration": 0.10869574999999543
                },
                {
                    "name": "F6",
                    "midi": 89,
                    "time": 120.65228249999925,
                    "velocity": 0.48031496062992124,
                    "duration": 0.10869574999999543
                },
                {
                    "name": "A5",
                    "midi": 81,
                    "time": 120.65228249999925,
                    "velocity": 0.33858267716535434,
                    "duration": 0.21739149999999086
                },
                {
                    "name": "D#6",
                    "midi": 87,
                    "time": 120.76097824999924,
                    "velocity": 0.4409448818897638,
                    "duration": 0.10869574999999543
                },
                {
                    "name": "F5",
                    "midi": 77,
                    "time": 120.86967399999924,
                    "velocity": 0.44881889763779526,
                    "duration": 0.21739149999999086
                },
                {
                    "name": "D#6",
                    "midi": 87,
                    "time": 120.86967399999924,
                    "velocity": 0.5826771653543307,
                    "duration": 0.10869574999999543
                },
                {
                    "name": "D6",
                    "midi": 86,
                    "time": 120.97836974999923,
                    "velocity": 0.44881889763779526,
                    "duration": 0.10869574999999543
                },
                {
                    "name": "A#5",
                    "midi": 82,
                    "time": 121.08706549999923,
                    "velocity": 0.3543307086614173,
                    "duration": 0.4347829999999817
                },
                {
                    "name": "D#6",
                    "midi": 87,
                    "time": 121.08706549999923,
                    "velocity": 0.49606299212598426,
                    "duration": 0.10869574999999543
                },
                {
                    "name": "D6",
                    "midi": 86,
                    "time": 121.19576124999922,
                    "velocity": 0.4566929133858268,
                    "duration": 0.1068841541666643
                },
                {
                    "name": "D6",
                    "midi": 86,
                    "time": 121.30445699999922,
                    "velocity": 0.5905511811023622,
                    "duration": 0.10869574999999543
                },
                {
                    "name": "C6",
                    "midi": 84,
                    "time": 121.41315274999921,
                    "velocity": 0.48031496062992124,
                    "duration": 0.10869574999999543
                },
                {
                    "name": "D6",
                    "midi": 86,
                    "time": 121.52184849999921,
                    "velocity": 0.5275590551181102,
                    "duration": 0.10869574999999543
                },
                {
                    "name": "A5",
                    "midi": 81,
                    "time": 121.52184849999921,
                    "velocity": 0.3700787401574803,
                    "duration": 0.21739149999999086
                },
                {
                    "name": "F5",
                    "midi": 77,
                    "time": 121.52184849999921,
                    "velocity": 0.3700787401574803,
                    "duration": 0.21739149999999086
                },
                {
                    "name": "D#6",
                    "midi": 87,
                    "time": 121.6305442499992,
                    "velocity": 0.5511811023622047,
                    "duration": 0.10869574999999543
                },
                {
                    "name": "A#5",
                    "midi": 82,
                    "time": 121.7392399999992,
                    "velocity": 0.4566929133858268,
                    "duration": 0.21739149999999086
                },
                {
                    "name": "G6",
                    "midi": 91,
                    "time": 121.7392399999992,
                    "velocity": 0.5433070866141733,
                    "duration": 0.10869574999999543
                },
                {
                    "name": "F5",
                    "midi": 77,
                    "time": 121.7392399999992,
                    "velocity": 0.4566929133858268,
                    "duration": 0.21739149999999086
                },
                {
                    "name": "F6",
                    "midi": 89,
                    "time": 121.8479357499992,
                    "velocity": 0.5511811023622047,
                    "duration": 0.10869574999999543
                },
                {
                    "name": "A#5",
                    "midi": 82,
                    "time": 121.95663149999919,
                    "velocity": 0.47244094488188976,
                    "duration": 0.21739149999999086
                },
                {
                    "name": "E6",
                    "midi": 88,
                    "time": 121.95663149999919,
                    "velocity": 0.5984251968503937,
                    "duration": 0.21739149999999086
                },
                {
                    "name": "G6",
                    "midi": 91,
                    "time": 122.06532724999919,
                    "velocity": 0.5669291338582677,
                    "duration": 0.21739149999999086
                },
                {
                    "name": "D#6",
                    "midi": 87,
                    "time": 122.17402299999918,
                    "velocity": 0.5275590551181102,
                    "duration": 0.21739149999999086
                },
                {
                    "name": "G#6",
                    "midi": 92,
                    "time": 122.28271874999918,
                    "velocity": 0.5826771653543307,
                    "duration": 0.21739149999999086
                },
                {
                    "name": "D#6",
                    "midi": 87,
                    "time": 122.39141449999917,
                    "velocity": 0.5984251968503937,
                    "duration": 0.21739149999999086
                },
                {
                    "name": "C6",
                    "midi": 84,
                    "time": 122.39141449999917,
                    "velocity": 0.5039370078740157,
                    "duration": 0.21739149999999086
                },
                {
                    "name": "A6",
                    "midi": 93,
                    "time": 122.50011024999917,
                    "velocity": 0.6062992125984252,
                    "duration": 0.10869574999999543
                },
                {
                    "name": "D6",
                    "midi": 86,
                    "time": 122.60880599999916,
                    "velocity": 0.5748031496062992,
                    "duration": 0.21739149999999086
                },
                {
                    "name": "A#5",
                    "midi": 82,
                    "time": 122.60880599999916,
                    "velocity": 0.5748031496062992,
                    "duration": 0.21739149999999086
                },
                {
                    "name": "C7",
                    "midi": 96,
                    "time": 122.60880599999916,
                    "velocity": 0.6771653543307087,
                    "duration": 0.10869574999999543
                },
                {
                    "name": "A#6",
                    "midi": 94,
                    "time": 122.71750174999916,
                    "velocity": 0.5669291338582677,
                    "duration": 0.10869574999999543
                },
                {
                    "name": "A6",
                    "midi": 93,
                    "time": 122.82619749999915,
                    "velocity": 0.6614173228346457,
                    "duration": 0.10869574999999543
                },
                {
                    "name": "A#5",
                    "midi": 82,
                    "time": 122.82619749999915,
                    "velocity": 0.5590551181102362,
                    "duration": 0.21739149999999086
                },
                {
                    "name": "D#6",
                    "midi": 87,
                    "time": 122.82619749999915,
                    "velocity": 0.5590551181102362,
                    "duration": 0.21739149999999086
                },
                {
                    "name": "G6",
                    "midi": 91,
                    "time": 122.93489324999915,
                    "velocity": 0.5826771653543307,
                    "duration": 0.10869574999999543
                },
                {
                    "name": "F6",
                    "midi": 89,
                    "time": 123.04358899999914,
                    "velocity": 0.6771653543307087,
                    "duration": 0.10869574999999543
                },
                {
                    "name": "D6",
                    "midi": 86,
                    "time": 123.04358899999914,
                    "velocity": 0.5669291338582677,
                    "duration": 0.10869574999999543
                },
                {
                    "name": "A#5",
                    "midi": 82,
                    "time": 123.04358899999914,
                    "velocity": 0.5669291338582677,
                    "duration": 0.10869574999999543
                },
                {
                    "name": "A6",
                    "midi": 93,
                    "time": 123.26098049999914,
                    "velocity": 0.6299212598425197,
                    "duration": 0.10869574999999543
                },
                {
                    "name": "C6",
                    "midi": 84,
                    "time": 123.26098049999914,
                    "velocity": 0.5275590551181102,
                    "duration": 0.10869574999999543
                },
                {
                    "name": "F6",
                    "midi": 89,
                    "time": 123.26098049999914,
                    "velocity": 0.6299212598425197,
                    "duration": 0.10869574999999543
                },
                {
                    "name": "A5",
                    "midi": 81,
                    "time": 123.26098049999914,
                    "velocity": 0.5275590551181102,
                    "duration": 0.10869574999999543
                },
                {
                    "name": "A#6",
                    "midi": 94,
                    "time": 123.47837199999913,
                    "velocity": 0.7952755905511811,
                    "duration": 0.4347829999999959
                },
                {
                    "name": "D6",
                    "midi": 86,
                    "time": 123.47837199999913,
                    "velocity": 0.6692913385826772,
                    "duration": 0.4347829999999959
                },
                {
                    "name": "F6",
                    "midi": 89,
                    "time": 123.47837199999913,
                    "velocity": 0.6692913385826772,
                    "duration": 0.4347829999999959
                },
                {
                    "name": "A#5",
                    "midi": 82,
                    "time": 123.47837199999913,
                    "velocity": 0.6692913385826772,
                    "duration": 0.4347829999999959
                },
                {
                    "name": "D5",
                    "midi": 74,
                    "time": 123.91315499999912,
                    "velocity": 0.49606299212598426,
                    "duration": 0.4347829999999959
                },
                {
                    "name": "A#4",
                    "midi": 70,
                    "time": 123.91315499999912,
                    "velocity": 0.49606299212598426,
                    "duration": 0.4347829999999959
                },
                {
                    "name": "A#5",
                    "midi": 82,
                    "time": 123.91315499999912,
                    "velocity": 0.5905511811023622,
                    "duration": 0.4347829999999959
                },
                {
                    "name": "D5",
                    "midi": 74,
                    "time": 124.34793799999912,
                    "velocity": 0.3937007874015748,
                    "duration": 0.05434787500000482
                },
                {
                    "name": "F5",
                    "midi": 77,
                    "time": 124.34793799999912,
                    "velocity": 0.3937007874015748,
                    "duration": 0.05434787500000482
                },
                {
                    "name": "D6",
                    "midi": 86,
                    "time": 124.34793799999912,
                    "velocity": 0.4645669291338583,
                    "duration": 0.05434787500000482
                },
                {
                    "name": "A#5",
                    "midi": 82,
                    "time": 124.56532949999912,
                    "velocity": 0.48031496062992124,
                    "duration": 0.05434787500000482
                },
                {
                    "name": "D5",
                    "midi": 74,
                    "time": 124.56532949999912,
                    "velocity": 0.4015748031496063,
                    "duration": 0.05434787500000482
                },
                {
                    "name": "A#4",
                    "midi": 70,
                    "time": 124.56532949999912,
                    "velocity": 0.4015748031496063,
                    "duration": 0.05434787500000482
                },
                {
                    "name": "F5",
                    "midi": 77,
                    "time": 124.78272099999913,
                    "velocity": 0.4015748031496063,
                    "duration": 0.05434787500000482
                },
                {
                    "name": "D5",
                    "midi": 74,
                    "time": 124.78272099999913,
                    "velocity": 0.4015748031496063,
                    "duration": 0.05434787500000482
                },
                {
                    "name": "D6",
                    "midi": 86,
                    "time": 124.78272099999913,
                    "velocity": 0.48031496062992124,
                    "duration": 0.05434787500000482
                },
                {
                    "name": "C5",
                    "midi": 72,
                    "time": 125.00011249999913,
                    "velocity": 0.4015748031496063,
                    "duration": 0.05434787500000482
                },
                {
                    "name": "C6",
                    "midi": 84,
                    "time": 125.00011249999913,
                    "velocity": 0.48031496062992124,
                    "duration": 0.05434787500000482
                },
                {
                    "name": "D#5",
                    "midi": 75,
                    "time": 125.00011249999913,
                    "velocity": 0.4015748031496063,
                    "duration": 0.05434787500000482
                },
                {
                    "name": "D#5",
                    "midi": 75,
                    "time": 125.21750399999914,
                    "velocity": 0.7637795275590551,
                    "duration": 0.4347829999999959
                },
                {
                    "name": "G5",
                    "midi": 79,
                    "time": 125.21750399999914,
                    "velocity": 0.7637795275590551,
                    "duration": 0.4347829999999959
                },
                {
                    "name": "D#6",
                    "midi": 87,
                    "time": 125.21750399999914,
                    "velocity": 0.9133858267716536,
                    "duration": 0.4347829999999959
                },
                {
                    "name": "C6",
                    "midi": 84,
                    "time": 125.65228699999913,
                    "velocity": 0.5905511811023622,
                    "duration": 0.4347829999999959
                },
                {
                    "name": "D#5",
                    "midi": 75,
                    "time": 125.65228699999913,
                    "velocity": 0.49606299212598426,
                    "duration": 0.4347829999999959
                },
                {
                    "name": "C5",
                    "midi": 72,
                    "time": 125.65228699999913,
                    "velocity": 0.49606299212598426,
                    "duration": 0.4347829999999959
                },
                {
                    "name": "D#6",
                    "midi": 87,
                    "time": 126.08706999999913,
                    "velocity": 0.4645669291338583,
                    "duration": 0.05434787500000482
                },
                {
                    "name": "D#5",
                    "midi": 75,
                    "time": 126.08706999999913,
                    "velocity": 0.3937007874015748,
                    "duration": 0.05434787500000482
                },
                {
                    "name": "G5",
                    "midi": 79,
                    "time": 126.08706999999913,
                    "velocity": 0.3937007874015748,
                    "duration": 0.05434787500000482
                },
                {
                    "name": "C#5",
                    "midi": 73,
                    "time": 126.30446149999914,
                    "velocity": 0.4015748031496063,
                    "duration": 0.05434787500000482
                },
                {
                    "name": "E5",
                    "midi": 76,
                    "time": 126.30446149999914,
                    "velocity": 0.4015748031496063,
                    "duration": 0.05434787500000482
                },
                {
                    "name": "C#6",
                    "midi": 85,
                    "time": 126.30446149999914,
                    "velocity": 0.48031496062992124,
                    "duration": 0.05434787500000482
                },
                {
                    "name": "D#6",
                    "midi": 87,
                    "time": 126.52185299999914,
                    "velocity": 0.48031496062992124,
                    "duration": 0.05434787500000482
                },
                {
                    "name": "D#5",
                    "midi": 75,
                    "time": 126.52185299999914,
                    "velocity": 0.4015748031496063,
                    "duration": 0.05434787500000482
                },
                {
                    "name": "F#5",
                    "midi": 78,
                    "time": 126.52185299999914,
                    "velocity": 0.4015748031496063,
                    "duration": 0.05434787500000482
                },
                {
                    "name": "D6",
                    "midi": 86,
                    "time": 126.73924449999915,
                    "velocity": 0.48031496062992124,
                    "duration": 0.05434787500000482
                },
                {
                    "name": "F5",
                    "midi": 77,
                    "time": 126.73924449999915,
                    "velocity": 0.4015748031496063,
                    "duration": 0.05434787500000482
                },
                {
                    "name": "D5",
                    "midi": 74,
                    "time": 126.73924449999915,
                    "velocity": 0.4015748031496063,
                    "duration": 0.05434787500000482
                },
                {
                    "name": "F6",
                    "midi": 89,
                    "time": 126.95663599999915,
                    "velocity": 0.8740157480314961,
                    "duration": 0.4347829999999959
                },
                {
                    "name": "G#5",
                    "midi": 80,
                    "time": 126.95663599999915,
                    "velocity": 0.7322834645669292,
                    "duration": 0.4347829999999959
                },
                {
                    "name": "F5",
                    "midi": 77,
                    "time": 126.95663599999915,
                    "velocity": 0.7322834645669292,
                    "duration": 0.4347829999999959
                },
                {
                    "name": "D5",
                    "midi": 74,
                    "time": 127.39141899999915,
                    "velocity": 0.49606299212598426,
                    "duration": 0.4347829999999959
                },
                {
                    "name": "D6",
                    "midi": 86,
                    "time": 127.39141899999915,
                    "velocity": 0.5905511811023622,
                    "duration": 0.4347829999999959
                },
                {
                    "name": "F5",
                    "midi": 77,
                    "time": 127.39141899999915,
                    "velocity": 0.49606299212598426,
                    "duration": 0.4347829999999959
                },
                {
                    "name": "G#5",
                    "midi": 80,
                    "time": 127.82620199999914,
                    "velocity": 0.3937007874015748,
                    "duration": 0.05434787500000482
                },
                {
                    "name": "F5",
                    "midi": 77,
                    "time": 127.82620199999914,
                    "velocity": 0.3937007874015748,
                    "duration": 0.05434787500000482
                },
                {
                    "name": "F6",
                    "midi": 89,
                    "time": 127.82620199999914,
                    "velocity": 0.4645669291338583,
                    "duration": 0.05434787500000482
                },
                {
                    "name": "D6",
                    "midi": 86,
                    "time": 128.04359349999913,
                    "velocity": 0.48031496062992124,
                    "duration": 0.05434787499999061
                },
                {
                    "name": "D5",
                    "midi": 74,
                    "time": 128.04359349999913,
                    "velocity": 0.4015748031496063,
                    "duration": 0.05434787499999061
                },
                {
                    "name": "F#5",
                    "midi": 78,
                    "time": 128.04359349999913,
                    "velocity": 0.4015748031496063,
                    "duration": 0.05434787499999061
                },
                {
                    "name": "F6",
                    "midi": 89,
                    "time": 128.26098499999912,
                    "velocity": 0.48031496062992124,
                    "duration": 0.05434787499999061
                },
                {
                    "name": "G#5",
                    "midi": 80,
                    "time": 128.26098499999912,
                    "velocity": 0.4015748031496063,
                    "duration": 0.05434787499999061
                },
                {
                    "name": "F5",
                    "midi": 77,
                    "time": 128.26098499999912,
                    "velocity": 0.4015748031496063,
                    "duration": 0.05434787499999061
                },
                {
                    "name": "D#6",
                    "midi": 87,
                    "time": 128.47837649999911,
                    "velocity": 0.48031496062992124,
                    "duration": 0.05434787499999061
                },
                {
                    "name": "D#5",
                    "midi": 75,
                    "time": 128.47837649999911,
                    "velocity": 0.4015748031496063,
                    "duration": 0.05434787499999061
                },
                {
                    "name": "G5",
                    "midi": 79,
                    "time": 128.47837649999911,
                    "velocity": 0.4015748031496063,
                    "duration": 0.05434787499999061
                },
                {
                    "name": "G5",
                    "midi": 79,
                    "time": 128.6957679999991,
                    "velocity": 0.7322834645669292,
                    "duration": 0.43478300000001013
                },
                {
                    "name": "A#5",
                    "midi": 82,
                    "time": 128.6957679999991,
                    "velocity": 0.7322834645669292,
                    "duration": 0.43478300000001013
                },
                {
                    "name": "G6",
                    "midi": 91,
                    "time": 128.6957679999991,
                    "velocity": 0.8740157480314961,
                    "duration": 0.43478300000001013
                },
                {
                    "name": "D#5",
                    "midi": 75,
                    "time": 129.13055099999912,
                    "velocity": 0.49606299212598426,
                    "duration": 0.43478300000001013
                },
                {
                    "name": "G5",
                    "midi": 79,
                    "time": 129.13055099999912,
                    "velocity": 0.49606299212598426,
                    "duration": 0.43478300000001013
                },
                {
                    "name": "A#5",
                    "midi": 82,
                    "time": 129.13055099999912,
                    "velocity": 0.49606299212598426,
                    "duration": 0.43478300000001013
                },
                {
                    "name": "D#6",
                    "midi": 87,
                    "time": 129.13055099999912,
                    "velocity": 0.5905511811023622,
                    "duration": 0.43478300000001013
                },
                {
                    "name": "A#5",
                    "midi": 82,
                    "time": 129.56533399999913,
                    "velocity": 0.3937007874015748,
                    "duration": 0.05434787499999061
                },
                {
                    "name": "G5",
                    "midi": 79,
                    "time": 129.56533399999913,
                    "velocity": 0.3937007874015748,
                    "duration": 0.05434787499999061
                },
                {
                    "name": "G6",
                    "midi": 91,
                    "time": 129.56533399999913,
                    "velocity": 0.4645669291338583,
                    "duration": 0.05434787499999061
                },
                {
                    "name": "A#5",
                    "midi": 82,
                    "time": 129.78272549999912,
                    "velocity": 0.4015748031496063,
                    "duration": 0.05434787499999061
                },
                {
                    "name": "E6",
                    "midi": 88,
                    "time": 129.78272549999912,
                    "velocity": 0.48031496062992124,
                    "duration": 0.05434787499999061
                },
                {
                    "name": "E5",
                    "midi": 76,
                    "time": 129.78272549999912,
                    "velocity": 0.4015748031496063,
                    "duration": 0.05434787499999061
                },
                {
                    "name": "F#5",
                    "midi": 78,
                    "time": 130.0001169999991,
                    "velocity": 0.4409448818897638,
                    "duration": 0.05434787499999061
                },
                {
                    "name": "A#5",
                    "midi": 82,
                    "time": 130.0001169999991,
                    "velocity": 0.4409448818897638,
                    "duration": 0.05434787499999061
                },
                {
                    "name": "F#6",
                    "midi": 90,
                    "time": 130.0001169999991,
                    "velocity": 0.5275590551181102,
                    "duration": 0.05434787499999061
                },
                {
                    "name": "A#5",
                    "midi": 82,
                    "time": 130.2175084999991,
                    "velocity": 0.4566929133858268,
                    "duration": 0.05434787499999061
                },
                {
                    "name": "F6",
                    "midi": 89,
                    "time": 130.2175084999991,
                    "velocity": 0.5433070866141733,
                    "duration": 0.05434787499999061
                },
                {
                    "name": "F5",
                    "midi": 77,
                    "time": 130.2175084999991,
                    "velocity": 0.4566929133858268,
                    "duration": 0.05434787499999061
                },
                {
                    "name": "G#5",
                    "midi": 80,
                    "time": 130.4348999999991,
                    "velocity": 0.4645669291338583,
                    "duration": 0.05434787499999061
                },
                {
                    "name": "A#5",
                    "midi": 82,
                    "time": 130.4348999999991,
                    "velocity": 0.4645669291338583,
                    "duration": 0.05434787499999061
                },
                {
                    "name": "G#6",
                    "midi": 92,
                    "time": 130.4348999999991,
                    "velocity": 0.5433070866141733,
                    "duration": 0.05434787499999061
                },
                {
                    "name": "F#5",
                    "midi": 78,
                    "time": 130.65229149999908,
                    "velocity": 0.4881889763779528,
                    "duration": 0.05434787499999061
                },
                {
                    "name": "A#5",
                    "midi": 82,
                    "time": 130.65229149999908,
                    "velocity": 0.4881889763779528,
                    "duration": 0.05434787499999061
                },
                {
                    "name": "F#6",
                    "midi": 90,
                    "time": 130.65229149999908,
                    "velocity": 0.5826771653543307,
                    "duration": 0.05434787499999061
                },
                {
                    "name": "G#5",
                    "midi": 80,
                    "time": 130.86968299999907,
                    "velocity": 0.5039370078740157,
                    "duration": 0.05434787499999061
                },
                {
                    "name": "A#5",
                    "midi": 82,
                    "time": 130.86968299999907,
                    "velocity": 0.5039370078740157,
                    "duration": 0.05434787499999061
                },
                {
                    "name": "G#6",
                    "midi": 92,
                    "time": 130.86968299999907,
                    "velocity": 0.5984251968503937,
                    "duration": 0.05434787499999061
                },
                {
                    "name": "G6",
                    "midi": 91,
                    "time": 131.08707449999906,
                    "velocity": 0.6220472440944882,
                    "duration": 0.05434787499999061
                },
                {
                    "name": "A#5",
                    "midi": 82,
                    "time": 131.08707449999906,
                    "velocity": 0.5196850393700787,
                    "duration": 0.05434787499999061
                },
                {
                    "name": "G5",
                    "midi": 79,
                    "time": 131.08707449999906,
                    "velocity": 0.5196850393700787,
                    "duration": 0.05434787499999061
                },
                {
                    "name": "G6",
                    "midi": 91,
                    "time": 131.30446599999905,
                    "velocity": 0.5275590551181102,
                    "duration": 0.05434787499999061
                },
                {
                    "name": "A#5",
                    "midi": 82,
                    "time": 131.30446599999905,
                    "velocity": 0.5275590551181102,
                    "duration": 0.05434787499999061
                },
                {
                    "name": "A#6",
                    "midi": 94,
                    "time": 131.30446599999905,
                    "velocity": 0.6220472440944882,
                    "duration": 0.05434787499999061
                },
                {
                    "name": "D#6",
                    "midi": 87,
                    "time": 131.30446599999905,
                    "velocity": 0.5275590551181102,
                    "duration": 0.05434787499999061
                },
                {
                    "name": "G#6",
                    "midi": 92,
                    "time": 131.52185749999904,
                    "velocity": 0.6614173228346457,
                    "duration": 0.05434787499999061
                },
                {
                    "name": "G#5",
                    "midi": 80,
                    "time": 131.52185749999904,
                    "velocity": 0.5511811023622047,
                    "duration": 0.05434787499999061
                },
                {
                    "name": "A#5",
                    "midi": 82,
                    "time": 131.73924899999903,
                    "velocity": 0.5669291338582677,
                    "duration": 0.05434787499999061
                },
                {
                    "name": "A#6",
                    "midi": 94,
                    "time": 131.73924899999903,
                    "velocity": 0.6771653543307087,
                    "duration": 0.05434787499999061
                },
                {
                    "name": "A6",
                    "midi": 93,
                    "time": 131.95664049999903,
                    "velocity": 0.7007874015748031,
                    "duration": 0.05434787499999061
                },
                {
                    "name": "A5",
                    "midi": 81,
                    "time": 131.95664049999903,
                    "velocity": 0.5826771653543307,
                    "duration": 0.05434787499999061
                },
                {
                    "name": "C6",
                    "midi": 84,
                    "time": 132.17403199999902,
                    "velocity": 0.6614173228346457,
                    "duration": 0.10869575000000964
                },
                {
                    "name": "C7",
                    "midi": 96,
                    "time": 132.17403199999902,
                    "velocity": 0.7795275590551181,
                    "duration": 0.10869575000000964
                },
                {
                    "name": "A#6",
                    "midi": 94,
                    "time": 132.39142349999904,
                    "velocity": 0.6929133858267716,
                    "duration": 0.10869575000000964
                },
                {
                    "name": "A#5",
                    "midi": 82,
                    "time": 132.39142349999904,
                    "velocity": 0.5826771653543307,
                    "duration": 0.10869575000000964
                },
                {
                    "name": "G6",
                    "midi": 91,
                    "time": 132.60881499999905,
                    "velocity": 0.7637795275590551,
                    "duration": 0.10869575000000964
                },
                {
                    "name": "G5",
                    "midi": 79,
                    "time": 132.60881499999905,
                    "velocity": 0.6456692913385826,
                    "duration": 0.10869575000000964
                },
                {
                    "name": "F5",
                    "midi": 77,
                    "time": 132.82620649999907,
                    "velocity": 0.5984251968503937,
                    "duration": 0.10869575000000964
                },
                {
                    "name": "F6",
                    "midi": 89,
                    "time": 132.82620649999907,
                    "velocity": 0.7086614173228346,
                    "duration": 0.10869575000000964
                },
                {
                    "name": "D#5",
                    "midi": 75,
                    "time": 133.0435979999991,
                    "velocity": 0.6692913385826772,
                    "duration": 0.10869575000000964
                },
                {
                    "name": "D#6",
                    "midi": 87,
                    "time": 133.0435979999991,
                    "velocity": 0.7637795275590551,
                    "duration": 0.10869575000000964
                },
                {
                    "name": "D6",
                    "midi": 86,
                    "time": 133.2609894999991,
                    "velocity": 0.6456692913385826,
                    "duration": 0.10869575000000964
                },
                {
                    "name": "D5",
                    "midi": 74,
                    "time": 133.2609894999991,
                    "velocity": 0.5433070866141733,
                    "duration": 0.10869575000000964
                },
                {
                    "name": "C5",
                    "midi": 72,
                    "time": 133.47838099999913,
                    "velocity": 0.5748031496062992,
                    "duration": 0.10869575000000964
                },
                {
                    "name": "C6",
                    "midi": 84,
                    "time": 133.47838099999913,
                    "velocity": 0.6850393700787402,
                    "duration": 0.10869575000000964
                },
                {
                    "name": "A#5",
                    "midi": 82,
                    "time": 133.69577249999915,
                    "velocity": 0.6377952755905512,
                    "duration": 0.10869575000000964
                },
                {
                    "name": "A#4",
                    "midi": 70,
                    "time": 133.69577249999915,
                    "velocity": 0.5354330708661418,
                    "duration": 0.10869575000000964
                },
                {
                    "name": "G5",
                    "midi": 79,
                    "time": 133.91316399999917,
                    "velocity": 0.7007874015748031,
                    "duration": 0.10869575000000964
                },
                {
                    "name": "G4",
                    "midi": 67,
                    "time": 133.91316399999917,
                    "velocity": 0.5905511811023622,
                    "duration": 0.10869575000000964
                },
                {
                    "name": "F5",
                    "midi": 77,
                    "time": 134.1305554999992,
                    "velocity": 0.6220472440944882,
                    "duration": 0.10869575000000964
                },
                {
                    "name": "F4",
                    "midi": 65,
                    "time": 134.1305554999992,
                    "velocity": 0.5196850393700787,
                    "duration": 0.10869575000000964
                },
                {
                    "name": "D#4",
                    "midi": 63,
                    "time": 134.3479469999992,
                    "velocity": 0.5433070866141733,
                    "duration": 0.10869575000000964
                },
                {
                    "name": "D#5",
                    "midi": 75,
                    "time": 134.3479469999992,
                    "velocity": 0.6456692913385826,
                    "duration": 0.10869575000000964
                },
                {
                    "name": "D4",
                    "midi": 62,
                    "time": 134.56533849999923,
                    "velocity": 0.5039370078740157,
                    "duration": 0.10869575000000964
                },
                {
                    "name": "D5",
                    "midi": 74,
                    "time": 134.56533849999923,
                    "velocity": 0.5984251968503937,
                    "duration": 0.10869575000000964
                },
                {
                    "name": "C4",
                    "midi": 60,
                    "time": 134.78272999999925,
                    "velocity": 0.5275590551181102,
                    "duration": 0.10869575000000964
                },
                {
                    "name": "C5",
                    "midi": 72,
                    "time": 134.78272999999925,
                    "velocity": 0.6299212598425197,
                    "duration": 0.10869575000000964
                },
                {
                    "name": "A#4",
                    "midi": 70,
                    "time": 135.00012149999927,
                    "velocity": 0.5590551181102362,
                    "duration": 0.10869575000000964
                },
                {
                    "name": "A#3",
                    "midi": 58,
                    "time": 135.00012149999927,
                    "velocity": 0.4645669291338583,
                    "duration": 0.10869575000000964
                },
                {
                    "name": "G4",
                    "midi": 67,
                    "time": 135.2175129999993,
                    "velocity": 0.6141732283464567,
                    "duration": 0.10869575000000964
                },
                {
                    "name": "G3",
                    "midi": 55,
                    "time": 135.2175129999993,
                    "velocity": 0.5118110236220472,
                    "duration": 0.10869575000000964
                },
                {
                    "name": "F4",
                    "midi": 65,
                    "time": 135.4349044999993,
                    "velocity": 0.5669291338582677,
                    "duration": 0.10869575000000964
                },
                {
                    "name": "F3",
                    "midi": 53,
                    "time": 135.4349044999993,
                    "velocity": 0.48031496062992124,
                    "duration": 0.10869575000000964
                },
                {
                    "name": "A4",
                    "midi": 69,
                    "time": 135.65229599999932,
                    "velocity": 0.6062992125984252,
                    "duration": 0.21739149999999086
                },
                {
                    "name": "F4",
                    "midi": 65,
                    "time": 135.86968749999932,
                    "velocity": 0.5275590551181102,
                    "duration": 0.21739149999999086
                },
                {
                    "name": "C5",
                    "midi": 72,
                    "time": 136.0870789999993,
                    "velocity": 0.5748031496062992,
                    "duration": 0.21739149999999086
                },
                {
                    "name": "F4",
                    "midi": 65,
                    "time": 136.3044704999993,
                    "velocity": 0.5275590551181102,
                    "duration": 0.21739149999999086
                },
                {
                    "name": "F5",
                    "midi": 77,
                    "time": 136.5218619999993,
                    "velocity": 0.5590551181102362,
                    "duration": 0.21739149999999086
                },
                {
                    "name": "F4",
                    "midi": 65,
                    "time": 136.73925349999928,
                    "velocity": 0.4645669291338583,
                    "duration": 0.21739149999999086
                },
                {
                    "name": "A5",
                    "midi": 81,
                    "time": 136.95664499999927,
                    "velocity": 0.5354330708661418,
                    "duration": 0.21739149999999086
                },
                {
                    "name": "F4",
                    "midi": 65,
                    "time": 137.17403649999926,
                    "velocity": 0.4409448818897638,
                    "duration": 0.21739149999999086
                },
                {
                    "name": "C6",
                    "midi": 84,
                    "time": 137.39142799999925,
                    "velocity": 0.4881889763779528,
                    "duration": 0.21739149999999086
                },
                {
                    "name": "F4",
                    "midi": 65,
                    "time": 137.60881949999924,
                    "velocity": 0.3858267716535433,
                    "duration": 0.21739149999999086
                },
                {
                    "name": "F6",
                    "midi": 89,
                    "time": 137.82621099999923,
                    "velocity": 0.4251968503937008,
                    "duration": 0.21739149999999086
                },
                {
                    "name": "F4",
                    "midi": 65,
                    "time": 138.04360249999922,
                    "velocity": 0.3543307086614173,
                    "duration": 0.21739149999999086
                },
                {
                    "name": "F6",
                    "midi": 89,
                    "time": 138.26099399999922,
                    "velocity": 0.4094488188976378,
                    "duration": 0.21739149999999086
                },
                {
                    "name": "F4",
                    "midi": 65,
                    "time": 138.4783854999992,
                    "velocity": 0.3228346456692913,
                    "duration": 0.21739149999999086
                },
                {
                    "name": "F6",
                    "midi": 89,
                    "time": 138.6957769999992,
                    "velocity": 0.3779527559055118,
                    "duration": 0.21739149999999086
                },
                {
                    "name": "A#5",
                    "midi": 82,
                    "time": 139.45664724999918,
                    "velocity": 0.6062992125984252,
                    "duration": 0.10869575000000964
                },
                {
                    "name": "D6",
                    "midi": 86,
                    "time": 139.45664724999918,
                    "velocity": 0.7244094488188977,
                    "duration": 0.10869575000000964
                },
                {
                    "name": "F5",
                    "midi": 77,
                    "time": 139.45664724999918,
                    "velocity": 0.6062992125984252,
                    "duration": 0.10869575000000964
                },
                {
                    "name": "D5",
                    "midi": 74,
                    "time": 139.45664724999918,
                    "velocity": 0.6062992125984252,
                    "duration": 0.10869575000000964
                },
                {
                    "name": "A#5",
                    "midi": 82,
                    "time": 139.5653429999992,
                    "velocity": 0.5433070866141733,
                    "duration": 0.21739149999999086
                },
                {
                    "name": "F5",
                    "midi": 77,
                    "time": 139.5653429999992,
                    "velocity": 0.5433070866141733,
                    "duration": 0.21739149999999086
                },
                {
                    "name": "D6",
                    "midi": 86,
                    "time": 139.5653429999992,
                    "velocity": 0.6456692913385826,
                    "duration": 0.21739149999999086
                },
                {
                    "name": "D5",
                    "midi": 74,
                    "time": 139.5653429999992,
                    "velocity": 0.5433070866141733,
                    "duration": 0.21739149999999086
                },
                {
                    "name": "A#5",
                    "midi": 82,
                    "time": 139.78273449999918,
                    "velocity": 0.5511811023622047,
                    "duration": 0.04076090625000006
                },
                {
                    "name": "F5",
                    "midi": 77,
                    "time": 139.78273449999918,
                    "velocity": 0.5511811023622047,
                    "duration": 0.04076090625000006
                },
                {
                    "name": "D#6",
                    "midi": 87,
                    "time": 139.78273449999918,
                    "velocity": 0.7007874015748031,
                    "duration": 0.04076090625000006
                },
                {
                    "name": "D5",
                    "midi": 74,
                    "time": 139.78273449999918,
                    "velocity": 0.5511811023622047,
                    "duration": 0.04076090625000006
                },
                {
                    "name": "A#5",
                    "midi": 82,
                    "time": 139.8914302499992,
                    "velocity": 0.5669291338582677,
                    "duration": 0.04076090625000006
                },
                {
                    "name": "D5",
                    "midi": 74,
                    "time": 139.8914302499992,
                    "velocity": 0.5669291338582677,
                    "duration": 0.04076090625000006
                },
                {
                    "name": "F5",
                    "midi": 77,
                    "time": 139.8914302499992,
                    "velocity": 0.5669291338582677,
                    "duration": 0.04076090625000006
                },
                {
                    "name": "D6",
                    "midi": 86,
                    "time": 139.8914302499992,
                    "velocity": 0.6692913385826772,
                    "duration": 0.04076090625000006
                },
                {
                    "name": "A#5",
                    "midi": 82,
                    "time": 140.0001259999992,
                    "velocity": 0.6062992125984252,
                    "duration": 0.10869575000000964
                },
                {
                    "name": "D5",
                    "midi": 74,
                    "time": 140.0001259999992,
                    "velocity": 0.6062992125984252,
                    "duration": 0.10869575000000964
                },
                {
                    "name": "F5",
                    "midi": 77,
                    "time": 140.0001259999992,
                    "velocity": 0.6062992125984252,
                    "duration": 0.10869575000000964
                },
                {
                    "name": "D6",
                    "midi": 86,
                    "time": 140.0001259999992,
                    "velocity": 0.7244094488188977,
                    "duration": 0.10869575000000964
                },
                {
                    "name": "A#5",
                    "midi": 82,
                    "time": 140.21751749999922,
                    "velocity": 0.6614173228346457,
                    "duration": 0.10869575000000964
                },
                {
                    "name": "D5",
                    "midi": 74,
                    "time": 140.21751749999922,
                    "velocity": 0.5511811023622047,
                    "duration": 0.10869575000000964
                },
                {
                    "name": "F5",
                    "midi": 77,
                    "time": 140.21751749999922,
                    "velocity": 0.5511811023622047,
                    "duration": 0.10869575000000964
                },
                {
                    "name": "A#4",
                    "midi": 70,
                    "time": 140.21751749999922,
                    "velocity": 0.5511811023622047,
                    "duration": 0.10869575000000964
                },
                {
                    "name": "F5",
                    "midi": 77,
                    "time": 141.19577924999922,
                    "velocity": 0.6062992125984252,
                    "duration": 0.10869575000000964
                },
                {
                    "name": "D6",
                    "midi": 86,
                    "time": 141.19577924999922,
                    "velocity": 0.7244094488188977,
                    "duration": 0.10869575000000964
                },
                {
                    "name": "A#5",
                    "midi": 82,
                    "time": 141.19577924999922,
                    "velocity": 0.6062992125984252,
                    "duration": 0.10869575000000964
                },
                {
                    "name": "D5",
                    "midi": 74,
                    "time": 141.20211983541589,
                    "velocity": 0.6062992125984252,
                    "duration": 0.10869575000000964
                },
                {
                    "name": "D6",
                    "midi": 86,
                    "time": 141.30447499999923,
                    "velocity": 0.7795275590551181,
                    "duration": 0.21739149999999086
                },
                {
                    "name": "D5",
                    "midi": 74,
                    "time": 141.30447499999923,
                    "velocity": 0.6456692913385826,
                    "duration": 0.21739149999999086
                },
                {
                    "name": "A5",
                    "midi": 81,
                    "time": 141.52186649999922,
                    "velocity": 0.5511811023622047,
                    "duration": 0.04076090625000006
                },
                {
                    "name": "D5",
                    "midi": 74,
                    "time": 141.52186649999922,
                    "velocity": 0.5511811023622047,
                    "duration": 0.04076090625000006
                },
                {
                    "name": "F#5",
                    "midi": 78,
                    "time": 141.52186649999922,
                    "velocity": 0.5511811023622047,
                    "duration": 0.04076090625000006
                },
                {
                    "name": "D6",
                    "midi": 86,
                    "time": 141.52186649999922,
                    "velocity": 0.6614173228346457,
                    "duration": 0.04076090625000006
                },
                {
                    "name": "D6",
                    "midi": 86,
                    "time": 141.63056224999923,
                    "velocity": 0.6692913385826772,
                    "duration": 0.04076090625000006
                },
                {
                    "name": "F#5",
                    "midi": 78,
                    "time": 141.63056224999923,
                    "velocity": 0.5511811023622047,
                    "duration": 0.04076090625000006
                },
                {
                    "name": "D5",
                    "midi": 74,
                    "time": 141.63056224999923,
                    "velocity": 0.5669291338582677,
                    "duration": 0.04076090625000006
                },
                {
                    "name": "A5",
                    "midi": 81,
                    "time": 141.63056224999923,
                    "velocity": 0.5669291338582677,
                    "duration": 0.04076090625000006
                },
                {
                    "name": "A5",
                    "midi": 81,
                    "time": 141.73925799999924,
                    "velocity": 0.6062992125984252,
                    "duration": 0.10869575000000964
                },
                {
                    "name": "D6",
                    "midi": 86,
                    "time": 141.73925799999924,
                    "velocity": 0.7244094488188977,
                    "duration": 0.10869575000000964
                },
                {
                    "name": "D5",
                    "midi": 74,
                    "time": 141.73925799999924,
                    "velocity": 0.6062992125984252,
                    "duration": 0.10869575000000964
                },
                {
                    "name": "F#5",
                    "midi": 78,
                    "time": 141.73925799999924,
                    "velocity": 0.6062992125984252,
                    "duration": 0.10869575000000964
                },
                {
                    "name": "D6",
                    "midi": 86,
                    "time": 141.95664949999926,
                    "velocity": 0.6614173228346457,
                    "duration": 0.10869575000000964
                },
                {
                    "name": "A5",
                    "midi": 81,
                    "time": 141.95664949999926,
                    "velocity": 0.5511811023622047,
                    "duration": 0.10869575000000964
                },
                {
                    "name": "D5",
                    "midi": 74,
                    "time": 141.95664949999926,
                    "velocity": 0.5511811023622047,
                    "duration": 0.10869575000000964
                },
                {
                    "name": "F#5",
                    "midi": 78,
                    "time": 141.95664949999926,
                    "velocity": 0.5511811023622047,
                    "duration": 0.10869575000000964
                },
                {
                    "name": "F#4",
                    "midi": 66,
                    "time": 142.82621549999928,
                    "velocity": 0.25984251968503935,
                    "duration": 0.10869575000000964
                },
                {
                    "name": "D5",
                    "midi": 74,
                    "time": 142.82621549999928,
                    "velocity": 0.30708661417322836,
                    "duration": 0.10869575000000964
                },
                {
                    "name": "A4",
                    "midi": 69,
                    "time": 142.82621549999928,
                    "velocity": 0.25984251968503935,
                    "duration": 0.10869575000000964
                },
                {
                    "name": "F#4",
                    "midi": 66,
                    "time": 143.2609984999993,
                    "velocity": 0.2755905511811024,
                    "duration": 0.10869575000000964
                },
                {
                    "name": "A4",
                    "midi": 69,
                    "time": 143.2609984999993,
                    "velocity": 0.2755905511811024,
                    "duration": 0.10869575000000964
                },
                {
                    "name": "D5",
                    "midi": 74,
                    "time": 143.2609984999993,
                    "velocity": 0.33070866141732286,
                    "duration": 0.10869575000000964
                },
                {
                    "name": "A4",
                    "midi": 69,
                    "time": 143.6957814999993,
                    "velocity": 0.29133858267716534,
                    "duration": 0.10869575000000964
                },
                {
                    "name": "F#4",
                    "midi": 66,
                    "time": 143.6957814999993,
                    "velocity": 0.29133858267716534,
                    "duration": 0.10869575000000964
                },
                {
                    "name": "D5",
                    "midi": 74,
                    "time": 143.6957814999993,
                    "velocity": 0.3464566929133858,
                    "duration": 0.10869575000000964
                },
                {
                    "name": "F#4",
                    "midi": 66,
                    "time": 144.1305644999993,
                    "velocity": 0.30708661417322836,
                    "duration": 0.10869575000000964
                },
                {
                    "name": "A4",
                    "midi": 69,
                    "time": 144.1305644999993,
                    "velocity": 0.30708661417322836,
                    "duration": 0.10869575000000964
                },
                {
                    "name": "D5",
                    "midi": 74,
                    "time": 144.1305644999993,
                    "velocity": 0.36220472440944884,
                    "duration": 0.10869575000000964
                },
                {
                    "name": "D5",
                    "midi": 74,
                    "time": 144.56534749999932,
                    "velocity": 0.3228346456692913,
                    "duration": 0.10869575000000964
                },
                {
                    "name": "C5",
                    "midi": 72,
                    "time": 144.56534749999932,
                    "velocity": 0.3228346456692913,
                    "duration": 0.10869575000000964
                },
                {
                    "name": "F#5",
                    "midi": 78,
                    "time": 144.56534749999932,
                    "velocity": 0.3858267716535433,
                    "duration": 0.10869575000000964
                },
                {
                    "name": "A4",
                    "midi": 69,
                    "time": 144.56534749999932,
                    "velocity": 0.3228346456692913,
                    "duration": 0.10869575000000964
                },
                {
                    "name": "A4",
                    "midi": 69,
                    "time": 145.00013049999933,
                    "velocity": 0.33858267716535434,
                    "duration": 0.10869575000000964
                },
                {
                    "name": "F#5",
                    "midi": 78,
                    "time": 145.00013049999933,
                    "velocity": 0.4015748031496063,
                    "duration": 0.10869575000000964
                },
                {
                    "name": "C5",
                    "midi": 72,
                    "time": 145.00013049999933,
                    "velocity": 0.33858267716535434,
                    "duration": 0.10869575000000964
                },
                {
                    "name": "D5",
                    "midi": 74,
                    "time": 145.00013049999933,
                    "velocity": 0.33858267716535434,
                    "duration": 0.10869575000000964
                },
                {
                    "name": "A4",
                    "midi": 69,
                    "time": 145.43491349999934,
                    "velocity": 0.3937007874015748,
                    "duration": 0.10869575000000964
                },
                {
                    "name": "C5",
                    "midi": 72,
                    "time": 145.43491349999934,
                    "velocity": 0.3937007874015748,
                    "duration": 0.10869575000000964
                },
                {
                    "name": "A5",
                    "midi": 81,
                    "time": 145.43491349999934,
                    "velocity": 0.47244094488188976,
                    "duration": 0.10869575000000964
                },
                {
                    "name": "F#5",
                    "midi": 78,
                    "time": 145.43491349999934,
                    "velocity": 0.3937007874015748,
                    "duration": 0.10869575000000964
                },
                {
                    "name": "F#5",
                    "midi": 78,
                    "time": 145.86969649999935,
                    "velocity": 0.44881889763779526,
                    "duration": 0.10869575000000964
                },
                {
                    "name": "C6",
                    "midi": 84,
                    "time": 145.86969649999935,
                    "velocity": 0.5354330708661418,
                    "duration": 0.10869575000000964
                },
                {
                    "name": "C5",
                    "midi": 72,
                    "time": 145.86969649999935,
                    "velocity": 0.44881889763779526,
                    "duration": 0.10869575000000964
                },
                {
                    "name": "A5",
                    "midi": 81,
                    "time": 145.86969649999935,
                    "velocity": 0.44881889763779526,
                    "duration": 0.10869575000000964
                },
                {
                    "name": "C6",
                    "midi": 84,
                    "time": 146.30447949999936,
                    "velocity": 0.5039370078740157,
                    "duration": 0.10869575000000964
                },
                {
                    "name": "F#5",
                    "midi": 78,
                    "time": 146.30447949999936,
                    "velocity": 0.5039370078740157,
                    "duration": 0.10869575000000964
                },
                {
                    "name": "F#6",
                    "midi": 90,
                    "time": 146.30447949999936,
                    "velocity": 0.5905511811023622,
                    "duration": 0.10869575000000964
                },
                {
                    "name": "A5",
                    "midi": 81,
                    "time": 146.30447949999936,
                    "velocity": 0.5039370078740157,
                    "duration": 0.10869575000000964
                },
                {
                    "name": "C6",
                    "midi": 84,
                    "time": 146.73926249999937,
                    "velocity": 0.5196850393700787,
                    "duration": 0.10869575000000964
                },
                {
                    "name": "A5",
                    "midi": 81,
                    "time": 146.73926249999937,
                    "velocity": 0.5196850393700787,
                    "duration": 0.10869575000000964
                },
                {
                    "name": "A6",
                    "midi": 93,
                    "time": 146.73926249999937,
                    "velocity": 0.6220472440944882,
                    "duration": 0.10869575000000964
                },
                {
                    "name": "A6",
                    "midi": 93,
                    "time": 147.17404549999938,
                    "velocity": 0.5433070866141733,
                    "duration": 0.10869575000000964
                },
                {
                    "name": "C6",
                    "midi": 84,
                    "time": 147.17404549999938,
                    "velocity": 0.5433070866141733,
                    "duration": 0.10869575000000964
                },
                {
                    "name": "C7",
                    "midi": 96,
                    "time": 147.17404549999938,
                    "velocity": 0.6456692913385826,
                    "duration": 0.10869575000000964
                },
                {
                    "name": "C6",
                    "midi": 84,
                    "time": 147.6088284999994,
                    "velocity": 0.5590551181102362,
                    "duration": 0.10869575000000964
                },
                {
                    "name": "C7",
                    "midi": 96,
                    "time": 147.6088284999994,
                    "velocity": 0.6692913385826772,
                    "duration": 0.10869575000000964
                },
                {
                    "name": "F#6",
                    "midi": 90,
                    "time": 147.6088284999994,
                    "velocity": 0.5590551181102362,
                    "duration": 0.10869575000000964
                },
                {
                    "name": "A6",
                    "midi": 93,
                    "time": 147.6088284999994,
                    "velocity": 0.5590551181102362,
                    "duration": 0.10869575000000964
                },
                {
                    "name": "A6",
                    "midi": 93,
                    "time": 147.8262199999994,
                    "velocity": 0.5590551181102362,
                    "duration": 0.10869575000000964
                },
                {
                    "name": "C7",
                    "midi": 96,
                    "time": 147.8262199999994,
                    "velocity": 0.6692913385826772,
                    "duration": 0.10869575000000964
                },
                {
                    "name": "C6",
                    "midi": 84,
                    "time": 147.8262199999994,
                    "velocity": 0.5590551181102362,
                    "duration": 0.10869575000000964
                },
                {
                    "name": "F#6",
                    "midi": 90,
                    "time": 147.8262199999994,
                    "velocity": 0.5590551181102362,
                    "duration": 0.10869575000000964
                },
                {
                    "name": "C6",
                    "midi": 84,
                    "time": 148.04361149999943,
                    "velocity": 0.44881889763779526,
                    "duration": 0.10869575000000964
                },
                {
                    "name": "A5",
                    "midi": 81,
                    "time": 148.04361149999943,
                    "velocity": 0.44881889763779526,
                    "duration": 0.10869575000000964
                },
                {
                    "name": "G#5",
                    "midi": 80,
                    "time": 148.15230724999944,
                    "velocity": 0.44881889763779526,
                    "duration": 0.10869575000000964
                },
                {
                    "name": "B5",
                    "midi": 83,
                    "time": 148.15230724999944,
                    "velocity": 0.44881889763779526,
                    "duration": 0.10869575000000964
                },
                {
                    "name": "A5",
                    "midi": 81,
                    "time": 148.26100299999945,
                    "velocity": 0.49606299212598426,
                    "duration": 0.21739149999999086
                },
                {
                    "name": "C6",
                    "midi": 84,
                    "time": 148.26100299999945,
                    "velocity": 0.49606299212598426,
                    "duration": 0.21739149999999086
                },
                {
                    "name": "F#4",
                    "midi": 66,
                    "time": 148.47839449999944,
                    "velocity": 0.4094488188976378,
                    "duration": 0.10869575000000964
                },
                {
                    "name": "A4",
                    "midi": 69,
                    "time": 148.47839449999944,
                    "velocity": 0.4094488188976378,
                    "duration": 0.10869575000000964
                },
                {
                    "name": "A#4",
                    "midi": 70,
                    "time": 148.58709024999945,
                    "velocity": 0.4094488188976378,
                    "duration": 0.10869575000000964
                },
                {
                    "name": "G4",
                    "midi": 67,
                    "time": 148.58709024999945,
                    "velocity": 0.4094488188976378,
                    "duration": 0.10869575000000964
                },
                {
                    "name": "A4",
                    "midi": 69,
                    "time": 148.69578599999946,
                    "velocity": 0.4566929133858268,
                    "duration": 0.21739149999999086
                },
                {
                    "name": "F#4",
                    "midi": 66,
                    "time": 148.69578599999946,
                    "velocity": 0.4566929133858268,
                    "duration": 0.21739149999999086
                },
                {
                    "name": "C6",
                    "midi": 84,
                    "time": 148.91317749999945,
                    "velocity": 0.3700787401574803,
                    "duration": 0.10869575000000964
                },
                {
                    "name": "A5",
                    "midi": 81,
                    "time": 148.91317749999945,
                    "velocity": 0.3700787401574803,
                    "duration": 0.10869575000000964
                },
                {
                    "name": "G#5",
                    "midi": 80,
                    "time": 149.02187324999946,
                    "velocity": 0.3700787401574803,
                    "duration": 0.10869575000000964
                },
                {
                    "name": "B5",
                    "midi": 83,
                    "time": 149.02187324999946,
                    "velocity": 0.3700787401574803,
                    "duration": 0.10869575000000964
                },
                {
                    "name": "A5",
                    "midi": 81,
                    "time": 149.13056899999947,
                    "velocity": 0.4409448818897638,
                    "duration": 0.21739149999999086
                },
                {
                    "name": "C6",
                    "midi": 84,
                    "time": 149.13056899999947,
                    "velocity": 0.4409448818897638,
                    "duration": 0.21739149999999086
                },
                {
                    "name": "F#6",
                    "midi": 90,
                    "time": 149.34796049999946,
                    "velocity": 0.3700787401574803,
                    "duration": 0.10869575000000964
                },
                {
                    "name": "A6",
                    "midi": 93,
                    "time": 149.45665624999947,
                    "velocity": 0.3700787401574803,
                    "duration": 0.10869575000000964
                },
                {
                    "name": "C7",
                    "midi": 96,
                    "time": 149.56535199999948,
                    "velocity": 0.44881889763779526,
                    "duration": 0.10869575000000964
                },
                {
                    "name": "D7",
                    "midi": 98,
                    "time": 149.6740477499995,
                    "velocity": 0.3779527559055118,
                    "duration": 0.10869575000000964
                },
                {
                    "name": "C7",
                    "midi": 96,
                    "time": 149.7827434999995,
                    "velocity": 0.3858267716535433,
                    "duration": 0.10869575000000964
                },
                {
                    "name": "B6",
                    "midi": 95,
                    "time": 149.8914392499995,
                    "velocity": 0.3937007874015748,
                    "duration": 0.10869575000000964
                },
                {
                    "name": "C7",
                    "midi": 96,
                    "time": 150.00013499999952,
                    "velocity": 0.5118110236220472,
                    "duration": 0.10869575000000964
                },
                {
                    "name": "D7",
                    "midi": 98,
                    "time": 150.10883074999953,
                    "velocity": 0.44881889763779526,
                    "duration": 0.10869575000000964
                },
                {
                    "name": "E7",
                    "midi": 100,
                    "time": 150.21752649999954,
                    "velocity": 0.5196850393700787,
                    "duration": 0.10869575000000964
                },
                {
                    "name": "C7",
                    "midi": 96,
                    "time": 150.32622224999955,
                    "velocity": 0.4566929133858268,
                    "duration": 0.10869575000000964
                },
                {
                    "name": "A6",
                    "midi": 93,
                    "time": 150.43491799999956,
                    "velocity": 0.5433070866141733,
                    "duration": 0.10869575000000964
                },
                {
                    "name": "B6",
                    "midi": 95,
                    "time": 150.54361374999957,
                    "velocity": 0.4409448818897638,
                    "duration": 0.10869575000000964
                },
                {
                    "name": "C7",
                    "midi": 96,
                    "time": 150.65230949999957,
                    "velocity": 0.5196850393700787,
                    "duration": 0.10869575000000964
                },
                {
                    "name": "A6",
                    "midi": 93,
                    "time": 150.76100524999958,
                    "velocity": 0.4251968503937008,
                    "duration": 0.10869575000000964
                },
                {
                    "name": "F#6",
                    "midi": 90,
                    "time": 150.8697009999996,
                    "velocity": 0.5196850393700787,
                    "duration": 0.10869575000000964
                },
                {
                    "name": "G6",
                    "midi": 91,
                    "time": 150.9783967499996,
                    "velocity": 0.41732283464566927,
                    "duration": 0.10869575000000964
                },
                {
                    "name": "A6",
                    "midi": 93,
                    "time": 151.0870924999996,
                    "velocity": 0.48031496062992124,
                    "duration": 0.10869575000000964
                },
                {
                    "name": "F#6",
                    "midi": 90,
                    "time": 151.19578824999962,
                    "velocity": 0.41732283464566927,
                    "duration": 0.10869575000000964
                },
                {
                    "name": "C6",
                    "midi": 84,
                    "time": 151.30448399999963,
                    "velocity": 0.3700787401574803,
                    "duration": 0.10869575000000964
                },
                {
                    "name": "D6",
                    "midi": 86,
                    "time": 151.41317974999964,
                    "velocity": 0.3700787401574803,
                    "duration": 0.10869575000000964
                },
                {
                    "name": "E6",
                    "midi": 88,
                    "time": 151.52187549999965,
                    "velocity": 0.4566929133858268,
                    "duration": 0.10869575000000964
                },
                {
                    "name": "C6",
                    "midi": 84,
                    "time": 151.63057124999966,
                    "velocity": 0.3700787401574803,
                    "duration": 0.10869575000000964
                },
                {
                    "name": "A5",
                    "midi": 81,
                    "time": 151.73926699999967,
                    "velocity": 0.3700787401574803,
                    "duration": 0.10869575000000964
                },
                {
                    "name": "B5",
                    "midi": 83,
                    "time": 151.84796274999968,
                    "velocity": 0.3700787401574803,
                    "duration": 0.10869575000000964
                },
                {
                    "name": "C6",
                    "midi": 84,
                    "time": 151.9566584999997,
                    "velocity": 0.41732283464566927,
                    "duration": 0.10869575000000964
                },
                {
                    "name": "A5",
                    "midi": 81,
                    "time": 152.0653542499997,
                    "velocity": 0.3700787401574803,
                    "duration": 0.10869575000000964
                },
                {
                    "name": "F#5",
                    "midi": 78,
                    "time": 152.1740499999997,
                    "velocity": 0.3700787401574803,
                    "duration": 0.10869575000000964
                },
                {
                    "name": "G5",
                    "midi": 79,
                    "time": 152.28274574999972,
                    "velocity": 0.3700787401574803,
                    "duration": 0.10869575000000964
                },
                {
                    "name": "A5",
                    "midi": 81,
                    "time": 152.39144149999973,
                    "velocity": 0.4094488188976378,
                    "duration": 0.10869575000000964
                },
                {
                    "name": "F#5",
                    "midi": 78,
                    "time": 152.50013724999974,
                    "velocity": 0.3700787401574803,
                    "duration": 0.10869575000000964
                },
                {
                    "name": "C5",
                    "midi": 72,
                    "time": 152.60883299999975,
                    "velocity": 0.3700787401574803,
                    "duration": 0.21739149999999086
                },
                {
                    "name": "A4",
                    "midi": 69,
                    "time": 152.60883299999975,
                    "velocity": 0.3700787401574803,
                    "duration": 0.21739149999999086
                },
                {
                    "name": "D5",
                    "midi": 74,
                    "time": 152.60883299999975,
                    "velocity": 0.3700787401574803,
                    "duration": 0.21739149999999086
                },
                {
                    "name": "B6",
                    "midi": 95,
                    "time": 153.04361599999973,
                    "velocity": 0.44881889763779526,
                    "duration": 0.10869575000000964
                },
                {
                    "name": "C7",
                    "midi": 96,
                    "time": 153.15231174999974,
                    "velocity": 0.3779527559055118,
                    "duration": 0.10869575000000964
                },
                {
                    "name": "B6",
                    "midi": 95,
                    "time": 153.26100749999975,
                    "velocity": 0.3858267716535433,
                    "duration": 0.10869575000000964
                },
                {
                    "name": "A6",
                    "midi": 93,
                    "time": 153.36970324999976,
                    "velocity": 0.3937007874015748,
                    "duration": 0.10869575000000964
                },
                {
                    "name": "B6",
                    "midi": 95,
                    "time": 153.47839899999977,
                    "velocity": 0.5118110236220472,
                    "duration": 0.10869575000000964
                },
                {
                    "name": "C7",
                    "midi": 96,
                    "time": 153.58709474999978,
                    "velocity": 0.44881889763779526,
                    "duration": 0.10869575000000964
                },
                {
                    "name": "D7",
                    "midi": 98,
                    "time": 153.6957904999998,
                    "velocity": 0.5196850393700787,
                    "duration": 0.10869575000000964
                },
                {
                    "name": "B6",
                    "midi": 95,
                    "time": 153.8044862499998,
                    "velocity": 0.4566929133858268,
                    "duration": 0.10869575000000964
                },
                {
                    "name": "G6",
                    "midi": 91,
                    "time": 153.9131819999998,
                    "velocity": 0.5433070866141733,
                    "duration": 0.10869575000000964
                },
                {
                    "name": "A6",
                    "midi": 93,
                    "time": 154.02187774999982,
                    "velocity": 0.4409448818897638,
                    "duration": 0.10869575000000964
                },
                {
                    "name": "B6",
                    "midi": 95,
                    "time": 154.13057349999983,
                    "velocity": 0.5196850393700787,
                    "duration": 0.10869575000000964
                },
                {
                    "name": "G6",
                    "midi": 91,
                    "time": 154.23926924999984,
                    "velocity": 0.4251968503937008,
                    "duration": 0.10869575000000964
                },
                {
                    "name": "D6",
                    "midi": 86,
                    "time": 154.34796499999985,
                    "velocity": 0.5196850393700787,
                    "duration": 0.10869575000000964
                },
                {
                    "name": "F#6",
                    "midi": 90,
                    "time": 154.45666074999986,
                    "velocity": 0.41732283464566927,
                    "duration": 0.10869575000000964
                },
                {
                    "name": "G6",
                    "midi": 91,
                    "time": 154.56535649999987,
                    "velocity": 0.48031496062992124,
                    "duration": 0.10869575000000964
                },
                {
                    "name": "D6",
                    "midi": 86,
                    "time": 154.67405224999987,
                    "velocity": 0.41732283464566927,
                    "duration": 0.10869575000000964
                },
                {
                    "name": "B5",
                    "midi": 83,
                    "time": 154.78274799999988,
                    "velocity": 0.3700787401574803,
                    "duration": 0.10869575000000964
                },
                {
                    "name": "C6",
                    "midi": 84,
                    "time": 154.8914437499999,
                    "velocity": 0.3700787401574803,
                    "duration": 0.10869575000000964
                },
                {
                    "name": "D6",
                    "midi": 86,
                    "time": 155.0001394999999,
                    "velocity": 0.4566929133858268,
                    "duration": 0.10869575000000964
                },
                {
                    "name": "B5",
                    "midi": 83,
                    "time": 155.1088352499999,
                    "velocity": 0.3700787401574803,
                    "duration": 0.10869575000000964
                },
                {
                    "name": "G5",
                    "midi": 79,
                    "time": 155.21753099999992,
                    "velocity": 0.3700787401574803,
                    "duration": 0.10869575000000964
                },
                {
                    "name": "A5",
                    "midi": 81,
                    "time": 155.32622674999993,
                    "velocity": 0.3700787401574803,
                    "duration": 0.10869575000000964
                },
                {
                    "name": "B5",
                    "midi": 83,
                    "time": 155.43492249999994,
                    "velocity": 0.41732283464566927,
                    "duration": 0.10869575000000964
                },
                {
                    "name": "G5",
                    "midi": 79,
                    "time": 155.54361824999995,
                    "velocity": 0.3700787401574803,
                    "duration": 0.10869575000000964
                },
                {
                    "name": "D5",
                    "midi": 74,
                    "time": 155.65231399999996,
                    "velocity": 0.3700787401574803,
                    "duration": 0.10869575000000964
                },
                {
                    "name": "F#5",
                    "midi": 78,
                    "time": 155.76100974999997,
                    "velocity": 0.3700787401574803,
                    "duration": 0.10869575000000964
                },
                {
                    "name": "G5",
                    "midi": 79,
                    "time": 155.86970549999998,
                    "velocity": 0.4094488188976378,
                    "duration": 0.10869575000000964
                },
                {
                    "name": "B4",
                    "midi": 71,
                    "time": 155.97840125,
                    "velocity": 0.3700787401574803,
                    "duration": 0.10869575000000964
                },
                {
                    "name": "G4",
                    "midi": 67,
                    "time": 156.087097,
                    "velocity": 0.31496062992125984,
                    "duration": 0.10869575000000964
                },
                {
                    "name": "A4",
                    "midi": 69,
                    "time": 156.19579275,
                    "velocity": 0.31496062992125984,
                    "duration": 0.10869575000000964
                },
                {
                    "name": "B4",
                    "midi": 71,
                    "time": 156.30448850000002,
                    "velocity": 0.3543307086614173,
                    "duration": 0.1068841541666643
                },
                {
                    "name": "G4",
                    "midi": 67,
                    "time": 156.41318425000003,
                    "velocity": 0.31496062992125984,
                    "duration": 0.10869575000000964
                },
                {
                    "name": "F#4",
                    "midi": 66,
                    "time": 156.52188000000004,
                    "velocity": 0.31496062992125984,
                    "duration": 0.21739149999999086
                },
                {
                    "name": "A4",
                    "midi": 69,
                    "time": 156.52188000000004,
                    "velocity": 0.36220472440944884,
                    "duration": 0.21739149999999086
                },
                {
                    "name": "D4",
                    "midi": 62,
                    "time": 156.52188000000004,
                    "velocity": 0.31496062992125984,
                    "duration": 0.21739149999999086
                },
                {
                    "name": "E6",
                    "midi": 88,
                    "time": 156.73927150000003,
                    "velocity": 0.4094488188976378,
                    "duration": 0.10869575000000964
                },
                {
                    "name": "D6",
                    "midi": 86,
                    "time": 156.84796725000004,
                    "velocity": 0.3700787401574803,
                    "duration": 0.10869575000000964
                },
                {
                    "name": "E6",
                    "midi": 88,
                    "time": 156.95666300000005,
                    "velocity": 0.31496062992125984,
                    "duration": 0.10869575000000964
                },
                {
                    "name": "D6",
                    "midi": 86,
                    "time": 157.06535875000006,
                    "velocity": 0.31496062992125984,
                    "duration": 0.10869575000000964
                },
                {
                    "name": "C6",
                    "midi": 84,
                    "time": 157.17405450000007,
                    "velocity": 0.3543307086614173,
                    "duration": 0.10869575000000964
                },
                {
                    "name": "E6",
                    "midi": 88,
                    "time": 157.28275025000008,
                    "velocity": 0.31496062992125984,
                    "duration": 0.10869575000000964
                },
                {
                    "name": "C6",
                    "midi": 84,
                    "time": 157.3914460000001,
                    "velocity": 0.4094488188976378,
                    "duration": 0.10869575000000964
                },
                {
                    "name": "B5",
                    "midi": 83,
                    "time": 157.5001417500001,
                    "velocity": 0.33070866141732286,
                    "duration": 0.10869575000000964
                },
                {
                    "name": "A5",
                    "midi": 81,
                    "time": 157.6088375000001,
                    "velocity": 0.3858267716535433,
                    "duration": 0.10869575000000964
                },
                {
                    "name": "C6",
                    "midi": 84,
                    "time": 157.71753325000012,
                    "velocity": 0.33858267716535434,
                    "duration": 0.10869575000000964
                },
                {
                    "name": "A5",
                    "midi": 81,
                    "time": 157.82622900000013,
                    "velocity": 0.3779527559055118,
                    "duration": 0.10869575000000964
                },
                {
                    "name": "G5",
                    "midi": 79,
                    "time": 157.93492475000014,
                    "velocity": 0.31496062992125984,
                    "duration": 0.10869575000000964
                },
                {
                    "name": "F#5",
                    "midi": 78,
                    "time": 158.04362050000015,
                    "velocity": 0.3543307086614173,
                    "duration": 0.10869575000000964
                },
                {
                    "name": "A5",
                    "midi": 81,
                    "time": 158.15231625000015,
                    "velocity": 0.31496062992125984,
                    "duration": 0.10869575000000964
                },
                {
                    "name": "E5",
                    "midi": 76,
                    "time": 158.26101200000016,
                    "velocity": 0.4094488188976378,
                    "duration": 0.10869575000000964
                },
                {
                    "name": "D5",
                    "midi": 74,
                    "time": 158.36970775000017,
                    "velocity": 0.33070866141732286,
                    "duration": 0.10869575000000964
                },
                {
                    "name": "C5",
                    "midi": 72,
                    "time": 158.47840350000018,
                    "velocity": 0.3858267716535433,
                    "duration": 0.10869575000000964
                },
                {
                    "name": "E5",
                    "midi": 76,
                    "time": 158.5870992500002,
                    "velocity": 0.33858267716535434,
                    "duration": 0.10869575000000964
                },
                {
                    "name": "C5",
                    "midi": 72,
                    "time": 158.6957950000002,
                    "velocity": 0.3779527559055118,
                    "duration": 0.10869575000000964
                },
                {
                    "name": "B4",
                    "midi": 71,
                    "time": 158.8044907500002,
                    "velocity": 0.31496062992125984,
                    "duration": 0.10869575000000964
                },
                {
                    "name": "A4",
                    "midi": 69,
                    "time": 158.91318650000022,
                    "velocity": 0.3543307086614173,
                    "duration": 0.10869575000000964
                },
                {
                    "name": "C5",
                    "midi": 72,
                    "time": 159.02188225000023,
                    "velocity": 0.31496062992125984,
                    "duration": 0.10869575000000964
                },
                {
                    "name": "A4",
                    "midi": 69,
                    "time": 159.13057800000024,
                    "velocity": 0.4094488188976378,
                    "duration": 0.10869575000000964
                },
                {
                    "name": "G4",
                    "midi": 67,
                    "time": 159.23927375000025,
                    "velocity": 0.33070866141732286,
                    "duration": 0.10869575000000964
                },
                {
                    "name": "F#4",
                    "midi": 66,
                    "time": 159.34796950000026,
                    "velocity": 0.3858267716535433,
                    "duration": 0.10869575000000964
                },
                {
                    "name": "A4",
                    "midi": 69,
                    "time": 159.45666525000027,
                    "velocity": 0.33858267716535434,
                    "duration": 0.10869575000000964
                },
                {
                    "name": "C5",
                    "midi": 72,
                    "time": 159.56536100000028,
                    "velocity": 0.3779527559055118,
                    "duration": 0.10869575000000964
                },
                {
                    "name": "B4",
                    "midi": 71,
                    "time": 159.6740567500003,
                    "velocity": 0.31496062992125984,
                    "duration": 0.10869575000000964
                },
                {
                    "name": "A4",
                    "midi": 69,
                    "time": 159.7827525000003,
                    "velocity": 0.3543307086614173,
                    "duration": 0.10869575000000964
                },
                {
                    "name": "C5",
                    "midi": 72,
                    "time": 159.8914482500003,
                    "velocity": 0.31496062992125984,
                    "duration": 0.10869575000000964
                },
                {
                    "name": "D4",
                    "midi": 62,
                    "time": 160.00014400000032,
                    "velocity": 0.31496062992125984,
                    "duration": 0.21739149999999086
                },
                {
                    "name": "G4",
                    "midi": 67,
                    "time": 160.00014400000032,
                    "velocity": 0.36220472440944884,
                    "duration": 0.21739149999999086
                },
                {
                    "name": "D7",
                    "midi": 98,
                    "time": 160.2175355000003,
                    "velocity": 0.4094488188976378,
                    "duration": 0.10869575000000964
                },
                {
                    "name": "C7",
                    "midi": 96,
                    "time": 160.32623125000032,
                    "velocity": 0.3700787401574803,
                    "duration": 0.10869575000000964
                },
                {
                    "name": "D7",
                    "midi": 98,
                    "time": 160.43492700000033,
                    "velocity": 0.31496062992125984,
                    "duration": 0.10869575000000964
                },
                {
                    "name": "C7",
                    "midi": 96,
                    "time": 160.54362275000034,
                    "velocity": 0.31496062992125984,
                    "duration": 0.10869575000000964
                },
                {
                    "name": "B6",
                    "midi": 95,
                    "time": 160.65231850000035,
                    "velocity": 0.3543307086614173,
                    "duration": 0.10869575000000964
                },
                {
                    "name": "D7",
                    "midi": 98,
                    "time": 160.76101425000036,
                    "velocity": 0.31496062992125984,
                    "duration": 0.10869575000000964
                },
                {
                    "name": "B6",
                    "midi": 95,
                    "time": 160.86971000000037,
                    "velocity": 0.4094488188976378,
                    "duration": 0.10869575000000964
                },
                {
                    "name": "A6",
                    "midi": 93,
                    "time": 160.97840575000038,
                    "velocity": 0.33070866141732286,
                    "duration": 0.10869575000000964
                },
                {
                    "name": "G6",
                    "midi": 91,
                    "time": 161.0871015000004,
                    "velocity": 0.3858267716535433,
                    "duration": 0.10869575000000964
                },
                {
                    "name": "B6",
                    "midi": 95,
                    "time": 161.1957972500004,
                    "velocity": 0.33858267716535434,
                    "duration": 0.10869575000000964
                },
                {
                    "name": "B5",
                    "midi": 83,
                    "time": 161.3044930000004,
                    "velocity": 0.3779527559055118,
                    "duration": 0.10869575000000964
                },
                {
                    "name": "A5",
                    "midi": 81,
                    "time": 161.41318875000042,
                    "velocity": 0.31496062992125984,
                    "duration": 0.10869575000000964
                },
                {
                    "name": "G5",
                    "midi": 79,
                    "time": 161.52188450000043,
                    "velocity": 0.3543307086614173,
                    "duration": 0.10869575000000964
                },
                {
                    "name": "B5",
                    "midi": 83,
                    "time": 161.63058025000043,
                    "velocity": 0.31496062992125984,
                    "duration": 0.10869575000000964
                },
                {
                    "name": "D5",
                    "midi": 74,
                    "time": 161.73927600000044,
                    "velocity": 0.4094488188976378,
                    "duration": 0.10869575000000964
                },
                {
                    "name": "C5",
                    "midi": 72,
                    "time": 161.84797175000045,
                    "velocity": 0.33070866141732286,
                    "duration": 0.10869575000000964
                },
                {
                    "name": "B4",
                    "midi": 71,
                    "time": 161.95666750000046,
                    "velocity": 0.3858267716535433,
                    "duration": 0.10869575000000964
                },
                {
                    "name": "D5",
                    "midi": 74,
                    "time": 162.06536325000047,
                    "velocity": 0.33858267716535434,
                    "duration": 0.10869575000000964
                },
                {
                    "name": "B5",
                    "midi": 83,
                    "time": 162.17405900000048,
                    "velocity": 0.3779527559055118,
                    "duration": 0.10869575000000964
                },
                {
                    "name": "A5",
                    "midi": 81,
                    "time": 162.2827547500005,
                    "velocity": 0.31496062992125984,
                    "duration": 0.10869575000000964
                },
                {
                    "name": "G5",
                    "midi": 79,
                    "time": 162.3914505000005,
                    "velocity": 0.3543307086614173,
                    "duration": 0.10869575000000964
                },
                {
                    "name": "B5",
                    "midi": 83,
                    "time": 162.5001462500005,
                    "velocity": 0.31496062992125984,
                    "duration": 0.10869575000000964
                },
                {
                    "name": "D6",
                    "midi": 86,
                    "time": 162.60884200000052,
                    "velocity": 0.4881889763779528,
                    "duration": 0.10869575000000964
                },
                {
                    "name": "C6",
                    "midi": 84,
                    "time": 162.71753775000053,
                    "velocity": 0.4015748031496063,
                    "duration": 0.10869575000000964
                },
                {
                    "name": "B5",
                    "midi": 83,
                    "time": 162.82623350000054,
                    "velocity": 0.48031496062992124,
                    "duration": 0.10869575000000964
                },
                {
                    "name": "C6",
                    "midi": 84,
                    "time": 162.93492925000055,
                    "velocity": 0.4094488188976378,
                    "duration": 0.10869575000000964
                },
                {
                    "name": "E6",
                    "midi": 88,
                    "time": 163.04362500000056,
                    "velocity": 0.4881889763779528,
                    "duration": 0.21739149999999086
                },
                {
                    "name": "D6",
                    "midi": 86,
                    "time": 163.26101650000055,
                    "velocity": 0.4015748031496063,
                    "duration": 0.21739149999999086
                },
                {
                    "name": "A5",
                    "midi": 81,
                    "time": 163.26101650000055,
                    "velocity": 0.4015748031496063,
                    "duration": 0.21739149999999086
                },
                {
                    "name": "F#6",
                    "midi": 90,
                    "time": 163.26101650000055,
                    "velocity": 0.4015748031496063,
                    "duration": 0.21739149999999086
                },
                {
                    "name": "G5",
                    "midi": 79,
                    "time": 163.47840800000054,
                    "velocity": 0.4015748031496063,
                    "duration": 0.21739149999999086
                },
                {
                    "name": "G6",
                    "midi": 91,
                    "time": 163.47840800000054,
                    "velocity": 0.4015748031496063,
                    "duration": 0.21739149999999086
                },
                {
                    "name": "D6",
                    "midi": 86,
                    "time": 163.47840800000054,
                    "velocity": 0.4015748031496063,
                    "duration": 0.21739149999999086
                },
                {
                    "name": "A4",
                    "midi": 69,
                    "time": 164.56536550000052,
                    "velocity": 0.31496062992125984,
                    "duration": 0.21739149999999086
                },
                {
                    "name": "F#4",
                    "midi": 66,
                    "time": 164.56536550000052,
                    "velocity": 0.2677165354330709,
                    "duration": 0.21739149999999086
                },
                {
                    "name": "G4",
                    "midi": 67,
                    "time": 164.78275700000052,
                    "velocity": 0.25196850393700787,
                    "duration": 0.10869575000000964
                },
                {
                    "name": "B4",
                    "midi": 71,
                    "time": 164.78275700000052,
                    "velocity": 0.2992125984251969,
                    "duration": 0.10869575000000964
                },
                {
                    "name": "G6",
                    "midi": 91,
                    "time": 165.00014850000053,
                    "velocity": 0.3700787401574803,
                    "duration": 0.10869575000000964
                },
                {
                    "name": "B5",
                    "midi": 83,
                    "time": 165.00014850000053,
                    "velocity": 0.30708661417322836,
                    "duration": 0.10869575000000964
                },
                {
                    "name": "F#6",
                    "midi": 90,
                    "time": 165.10884425000054,
                    "velocity": 0.3464566929133858,
                    "duration": 0.10869575000000964
                },
                {
                    "name": "A5",
                    "midi": 81,
                    "time": 165.10884425000054,
                    "velocity": 0.29133858267716534,
                    "duration": 0.10869575000000964
                },
                {
                    "name": "B5",
                    "midi": 83,
                    "time": 165.21754000000055,
                    "velocity": 0.30708661417322836,
                    "duration": 0.21739149999999086
                },
                {
                    "name": "G6",
                    "midi": 91,
                    "time": 165.21754000000055,
                    "velocity": 0.3700787401574803,
                    "duration": 0.21739149999999086
                },
                {
                    "name": "G5",
                    "midi": 79,
                    "time": 165.43493150000054,
                    "velocity": 0.25984251968503935,
                    "duration": 0.21739149999999086
                },
                {
                    "name": "B5",
                    "midi": 83,
                    "time": 165.43493150000054,
                    "velocity": 0.25984251968503935,
                    "duration": 0.21739149999999086
                },
                {
                    "name": "E6",
                    "midi": 88,
                    "time": 165.43493150000054,
                    "velocity": 0.30708661417322836,
                    "duration": 0.21739149999999086
                },
                {
                    "name": "A5",
                    "midi": 81,
                    "time": 165.65232300000054,
                    "velocity": 0.2755905511811024,
                    "duration": 0.21739149999999086
                },
                {
                    "name": "D6",
                    "midi": 86,
                    "time": 165.65232300000054,
                    "velocity": 0.33070866141732286,
                    "duration": 0.21739149999999086
                },
                {
                    "name": "F#5",
                    "midi": 78,
                    "time": 165.65232300000054,
                    "velocity": 0.2755905511811024,
                    "duration": 0.21739149999999086
                },
                {
                    "name": "G5",
                    "midi": 79,
                    "time": 165.86971450000053,
                    "velocity": 0.23622047244094488,
                    "duration": 0.21739149999999086
                },
                {
                    "name": "E5",
                    "midi": 76,
                    "time": 165.86971450000053,
                    "velocity": 0.23622047244094488,
                    "duration": 0.21739149999999086
                },
                {
                    "name": "C#6",
                    "midi": 85,
                    "time": 165.86971450000053,
                    "velocity": 0.31496062992125984,
                    "duration": 0.21739149999999086
                },
                {
                    "name": "E6",
                    "midi": 88,
                    "time": 166.08710600000052,
                    "velocity": 0.3543307086614173,
                    "duration": 0.21739149999999086
                },
                {
                    "name": "G5",
                    "midi": 79,
                    "time": 166.08710600000052,
                    "velocity": 0.2992125984251969,
                    "duration": 0.21739149999999086
                },
                {
                    "name": "D6",
                    "midi": 86,
                    "time": 166.3044975000005,
                    "velocity": 0.28346456692913385,
                    "duration": 0.21557990416667394
                },
                {
                    "name": "F#5",
                    "midi": 78,
                    "time": 166.3044975000005,
                    "velocity": 0.23622047244094488,
                    "duration": 0.21557990416667394
                },
                {
                    "name": "F#5",
                    "midi": 78,
                    "time": 166.52188900000053,
                    "velocity": 0.23622047244094488,
                    "duration": 0.21739149999999086
                },
                {
                    "name": "D6",
                    "midi": 86,
                    "time": 166.52188900000053,
                    "velocity": 0.28346456692913385,
                    "duration": 0.21739149999999086
                },
                {
                    "name": "G5",
                    "midi": 79,
                    "time": 166.73928050000052,
                    "velocity": 0.2992125984251969,
                    "duration": 0.10869575000000964
                },
                {
                    "name": "D6",
                    "midi": 86,
                    "time": 166.73928050000052,
                    "velocity": 0.3543307086614173,
                    "duration": 0.10869575000000964
                },
                {
                    "name": "A5",
                    "midi": 81,
                    "time": 166.84797625000053,
                    "velocity": 0.2677165354330709,
                    "duration": 0.10869575000000964
                },
                {
                    "name": "C6",
                    "midi": 84,
                    "time": 166.84797625000053,
                    "velocity": 0.31496062992125984,
                    "duration": 0.10869575000000964
                },
                {
                    "name": "B5",
                    "midi": 83,
                    "time": 166.95667200000054,
                    "velocity": 0.36220472440944884,
                    "duration": 0.21739149999999086
                },
                {
                    "name": "G6",
                    "midi": 91,
                    "time": 167.17406350000053,
                    "velocity": 0.4015748031496063,
                    "duration": 0.10869575000000964
                },
                {
                    "name": "G5",
                    "midi": 79,
                    "time": 167.17406350000053,
                    "velocity": 0.33858267716535434,
                    "duration": 0.3260872500000289
                },
                {
                    "name": "E6",
                    "midi": 88,
                    "time": 167.39145500000055,
                    "velocity": 0.36220472440944884,
                    "duration": 0.10869575000000964
                },
                {
                    "name": "C7",
                    "midi": 96,
                    "time": 167.60884650000057,
                    "velocity": 0.4015748031496063,
                    "duration": 0.10869575000000964
                },
                {
                    "name": "C6",
                    "midi": 84,
                    "time": 167.60884650000057,
                    "velocity": 0.33858267716535434,
                    "duration": 0.10869575000000964
                },
                {
                    "name": "E6",
                    "midi": 88,
                    "time": 167.71754225000058,
                    "velocity": 0.29133858267716534,
                    "duration": 0.10869575000000964
                },
                {
                    "name": "A6",
                    "midi": 93,
                    "time": 167.71754225000058,
                    "velocity": 0.3464566929133858,
                    "duration": 0.10869575000000964
                },
                {
                    "name": "F#6",
                    "midi": 90,
                    "time": 167.8262380000006,
                    "velocity": 0.4015748031496063,
                    "duration": 0.21739149999999086
                },
                {
                    "name": "D6",
                    "midi": 86,
                    "time": 168.04362950000058,
                    "velocity": 0.3700787401574803,
                    "duration": 0.3260872500000005
                },
                {
                    "name": "D7",
                    "midi": 98,
                    "time": 168.04362950000058,
                    "velocity": 0.4409448818897638,
                    "duration": 0.21739149999999086
                },
                {
                    "name": "B6",
                    "midi": 95,
                    "time": 168.26102100000057,
                    "velocity": 0.41732283464566927,
                    "duration": 0.10869575000000964
                },
                {
                    "name": "G6",
                    "midi": 91,
                    "time": 168.4784125000006,
                    "velocity": 0.4094488188976378,
                    "duration": 0.10869575000000964
                },
                {
                    "name": "F#6",
                    "midi": 90,
                    "time": 168.5871082500006,
                    "velocity": 0.3543307086614173,
                    "duration": 0.10869575000000964
                },
                {
                    "name": "G6",
                    "midi": 91,
                    "time": 168.6958040000006,
                    "velocity": 0.4094488188976378,
                    "duration": 0.21739149999999086
                },
                {
                    "name": "E6",
                    "midi": 88,
                    "time": 168.9131955000006,
                    "velocity": 0.3700787401574803,
                    "duration": 0.21739149999999086
                },
                {
                    "name": "C6",
                    "midi": 84,
                    "time": 169.1305870000006,
                    "velocity": 0.4015748031496063,
                    "duration": 0.21739149999999086
                },
                {
                    "name": "F#5",
                    "midi": 78,
                    "time": 169.34797850000058,
                    "velocity": 0.29133858267716534,
                    "duration": 0.21739149999999086
                },
                {
                    "name": "B5",
                    "midi": 83,
                    "time": 169.34797850000058,
                    "velocity": 0.3464566929133858,
                    "duration": 0.21739149999999086
                },
                {
                    "name": "F#5",
                    "midi": 78,
                    "time": 169.56537000000057,
                    "velocity": 0.3464566929133858,
                    "duration": 0.21739149999999086
                },
                {
                    "name": "B5",
                    "midi": 83,
                    "time": 169.56537000000057,
                    "velocity": 0.3464566929133858,
                    "duration": 0.652174500000001
                },
                {
                    "name": "A5",
                    "midi": 81,
                    "time": 169.78276150000056,
                    "velocity": 0.3937007874015748,
                    "duration": 0.10869575000000964
                },
                {
                    "name": "G5",
                    "midi": 79,
                    "time": 169.89145725000057,
                    "velocity": 0.3464566929133858,
                    "duration": 0.1068841541666643
                },
                {
                    "name": "G5",
                    "midi": 79,
                    "time": 170.00015300000058,
                    "velocity": 0.3858267716535433,
                    "duration": 0.21739149999999086
                },
                {
                    "name": "A#5",
                    "midi": 82,
                    "time": 170.21754450000057,
                    "velocity": 0.36220472440944884,
                    "duration": 0.21739149999999086
                },
                {
                    "name": "E6",
                    "midi": 88,
                    "time": 170.21754450000057,
                    "velocity": 0.4330708661417323,
                    "duration": 0.21739149999999086
                },
                {
                    "name": "G5",
                    "midi": 79,
                    "time": 170.21754450000057,
                    "velocity": 0.36220472440944884,
                    "duration": 0.4347829999999817
                },
                {
                    "name": "A5",
                    "midi": 81,
                    "time": 170.43493600000056,
                    "velocity": 0.3464566929133858,
                    "duration": 0.652174500000001
                },
                {
                    "name": "G5",
                    "midi": 79,
                    "time": 170.65232750000055,
                    "velocity": 0.3937007874015748,
                    "duration": 0.10869575000000964
                },
                {
                    "name": "F5",
                    "midi": 77,
                    "time": 170.76102325000056,
                    "velocity": 0.3464566929133858,
                    "duration": 0.10869575000000964
                },
                {
                    "name": "F5",
                    "midi": 77,
                    "time": 170.86971900000057,
                    "velocity": 0.3858267716535433,
                    "duration": 0.21739149999999086
                },
                {
                    "name": "F5",
                    "midi": 77,
                    "time": 171.08711050000056,
                    "velocity": 0.4330708661417323,
                    "duration": 0.4347829999999817
                },
                {
                    "name": "D6",
                    "midi": 86,
                    "time": 171.08711050000056,
                    "velocity": 0.4330708661417323,
                    "duration": 0.21739149999999086
                },
                {
                    "name": "G#5",
                    "midi": 80,
                    "time": 171.08711050000056,
                    "velocity": 0.4330708661417323,
                    "duration": 0.21739149999999086
                },
                {
                    "name": "G5",
                    "midi": 79,
                    "time": 171.30450200000055,
                    "velocity": 0.3464566929133858,
                    "duration": 0.652174500000001
                },
                {
                    "name": "F5",
                    "midi": 77,
                    "time": 171.52189350000054,
                    "velocity": 0.3937007874015748,
                    "duration": 0.10869575000000964
                },
                {
                    "name": "E5",
                    "midi": 76,
                    "time": 171.63058925000055,
                    "velocity": 0.3464566929133858,
                    "duration": 0.1068841541666643
                },
                {
                    "name": "E5",
                    "midi": 76,
                    "time": 171.73928500000056,
                    "velocity": 0.3858267716535433,
                    "duration": 0.21739149999999086
                },
                {
                    "name": "G5",
                    "midi": 79,
                    "time": 171.95667650000055,
                    "velocity": 0.36220472440944884,
                    "duration": 0.21739149999999086
                },
                {
                    "name": "E5",
                    "midi": 76,
                    "time": 171.95667650000055,
                    "velocity": 0.36220472440944884,
                    "duration": 0.4347829999999817
                },
                {
                    "name": "C#6",
                    "midi": 85,
                    "time": 171.95667650000055,
                    "velocity": 0.4330708661417323,
                    "duration": 0.21739149999999086
                },
                {
                    "name": "F#5",
                    "midi": 78,
                    "time": 172.17406800000055,
                    "velocity": 0.3464566929133858,
                    "duration": 0.652174500000001
                },
                {
                    "name": "E5",
                    "midi": 76,
                    "time": 172.39145950000054,
                    "velocity": 0.3937007874015748,
                    "duration": 0.10869575000000964
                },
                {
                    "name": "D#5",
                    "midi": 75,
                    "time": 172.50015525000055,
                    "velocity": 0.3464566929133858,
                    "duration": 0.10869575000000964
                },
                {
                    "name": "D5",
                    "midi": 74,
                    "time": 172.60885100000056,
                    "velocity": 0.3858267716535433,
                    "duration": 0.21739149999999086
                },
                {
                    "name": "F5",
                    "midi": 77,
                    "time": 172.82624250000055,
                    "velocity": 0.36220472440944884,
                    "duration": 0.21739149999999086
                },
                {
                    "name": "B5",
                    "midi": 83,
                    "time": 172.82624250000055,
                    "velocity": 0.4330708661417323,
                    "duration": 0.21739149999999086
                },
                {
                    "name": "D5",
                    "midi": 74,
                    "time": 172.82624250000055,
                    "velocity": 0.36220472440944884,
                    "duration": 0.21739149999999086
                },
                {
                    "name": "F5",
                    "midi": 77,
                    "time": 173.04363400000054,
                    "velocity": 0.4330708661417323,
                    "duration": 0.10869575000000964
                },
                {
                    "name": "D5",
                    "midi": 74,
                    "time": 173.04363400000054,
                    "velocity": 0.36220472440944884,
                    "duration": 0.21739150000001928
                },
                {
                    "name": "E5",
                    "midi": 76,
                    "time": 173.15232975000055,
                    "velocity": 0.36220472440944884,
                    "duration": 0.21739150000001928
                },
                {
                    "name": "C#5",
                    "midi": 73,
                    "time": 173.26102550000056,
                    "velocity": 0.36220472440944884,
                    "duration": 0.21739150000001928
                },
                {
                    "name": "A5",
                    "midi": 81,
                    "time": 173.36972125000057,
                    "velocity": 0.3779527559055118,
                    "duration": 0.10869575000000964
                },
                {
                    "name": "D#5",
                    "midi": 75,
                    "time": 173.47841700000058,
                    "velocity": 0.4330708661417323,
                    "duration": 0.10869575000000964
                },
                {
                    "name": "C5",
                    "midi": 72,
                    "time": 173.47841700000058,
                    "velocity": 0.36220472440944884,
                    "duration": 0.21739150000001928
                },
                {
                    "name": "D5",
                    "midi": 74,
                    "time": 173.58711275000059,
                    "velocity": 0.3700787401574803,
                    "duration": 0.21739150000001928
                },
                {
                    "name": "B4",
                    "midi": 71,
                    "time": 173.6958085000006,
                    "velocity": 0.36220472440944884,
                    "duration": 0.21739150000001928
                },
                {
                    "name": "G5",
                    "midi": 79,
                    "time": 173.8045042500006,
                    "velocity": 0.3858267716535433,
                    "duration": 0.10869575000000964
                },
                {
                    "name": "D5",
                    "midi": 74,
                    "time": 173.91320000000061,
                    "velocity": 0.4409448818897638,
                    "duration": 0.10869575000000964
                },
                {
                    "name": "D6",
                    "midi": 86,
                    "time": 174.02189575000062,
                    "velocity": 0.3464566929133858,
                    "duration": 0.10869575000000964
                },
                {
                    "name": "C#6",
                    "midi": 85,
                    "time": 174.13059150000063,
                    "velocity": 0.3543307086614173,
                    "duration": 0.10869575000000964
                },
                {
                    "name": "C6",
                    "midi": 84,
                    "time": 174.23928725000064,
                    "velocity": 0.36220472440944884,
                    "duration": 0.10869575000000964
                },
                {
                    "name": "A5",
                    "midi": 81,
                    "time": 174.34798300000065,
                    "velocity": 0.3700787401574803,
                    "duration": 0.10869575000000964
                },
                {
                    "name": "F#5",
                    "midi": 78,
                    "time": 174.45667875000066,
                    "velocity": 0.3700787401574803,
                    "duration": 0.10869575000000964
                },
                {
                    "name": "D#5",
                    "midi": 75,
                    "time": 174.56537450000067,
                    "velocity": 0.3779527559055118,
                    "duration": 0.10869575000000964
                },
                {
                    "name": "D5",
                    "midi": 74,
                    "time": 174.67407025000068,
                    "velocity": 0.3858267716535433,
                    "duration": 0.10869575000000964
                },
                {
                    "name": "C#5",
                    "midi": 73,
                    "time": 174.7827660000007,
                    "velocity": 0.3937007874015748,
                    "duration": 0.10869575000000964
                },
                {
                    "name": "C5",
                    "midi": 72,
                    "time": 174.8914617500007,
                    "velocity": 0.4015748031496063,
                    "duration": 0.10869575000000964
                },
                {
                    "name": "A4",
                    "midi": 69,
                    "time": 175.0001575000007,
                    "velocity": 0.4094488188976378,
                    "duration": 0.10869575000000964
                },
                {
                    "name": "F#4",
                    "midi": 66,
                    "time": 175.10885325000072,
                    "velocity": 0.41732283464566927,
                    "duration": 0.10869575000000964
                },
                {
                    "name": "G4",
                    "midi": 67,
                    "time": 175.21754900000073,
                    "velocity": 0.4015748031496063,
                    "duration": 0.21739150000001928
                },
                {
                    "name": "D#4",
                    "midi": 63,
                    "time": 175.21754900000073,
                    "velocity": 0.48031496062992124,
                    "duration": 0.10869575000000964
                },
                {
                    "name": "D4",
                    "midi": 62,
                    "time": 175.32624475000074,
                    "velocity": 0.3700787401574803,
                    "duration": 0.10869575000000964
                },
                {
                    "name": "G4",
                    "midi": 67,
                    "time": 175.43494050000075,
                    "velocity": 0.3858267716535433,
                    "duration": 0.21739150000001928
                },
                {
                    "name": "E5",
                    "midi": 76,
                    "time": 175.43494050000075,
                    "velocity": 0.4566929133858268,
                    "duration": 0.10869575000000964
                },
                {
                    "name": "D5",
                    "midi": 74,
                    "time": 175.54363625000076,
                    "velocity": 0.3700787401574803,
                    "duration": 0.10869575000000964
                },
                {
                    "name": "D5",
                    "midi": 74,
                    "time": 175.65233200000077,
                    "velocity": 0.4409448818897638,
                    "duration": 0.10869575000000964
                },
                {
                    "name": "D6",
                    "midi": 86,
                    "time": 175.76102775000078,
                    "velocity": 0.3464566929133858,
                    "duration": 0.10869575000000964
                },
                {
                    "name": "C#6",
                    "midi": 85,
                    "time": 175.8697235000008,
                    "velocity": 0.3543307086614173,
                    "duration": 0.10869575000000964
                },
                {
                    "name": "C6",
                    "midi": 84,
                    "time": 175.9784192500008,
                    "velocity": 0.36220472440944884,
                    "duration": 0.10869575000000964
                },
                {
                    "name": "A5",
                    "midi": 81,
                    "time": 176.0871150000008,
                    "velocity": 0.3700787401574803,
                    "duration": 0.10869575000000964
                },
                {
                    "name": "F#5",
                    "midi": 78,
                    "time": 176.19581075000082,
                    "velocity": 0.3700787401574803,
                    "duration": 0.10869575000000964
                },
                {
                    "name": "D#5",
                    "midi": 75,
                    "time": 176.30450650000083,
                    "velocity": 0.3779527559055118,
                    "duration": 0.10869575000000964
                },
                {
                    "name": "D5",
                    "midi": 74,
                    "time": 176.41320225000084,
                    "velocity": 0.3858267716535433,
                    "duration": 0.10869575000000964
                },
                {
                    "name": "C#5",
                    "midi": 73,
                    "time": 176.52189800000085,
                    "velocity": 0.3937007874015748,
                    "duration": 0.10869575000000964
                },
                {
                    "name": "C5",
                    "midi": 72,
                    "time": 176.63059375000086,
                    "velocity": 0.4015748031496063,
                    "duration": 0.10869575000000964
                },
                {
                    "name": "A4",
                    "midi": 69,
                    "time": 176.73928950000087,
                    "velocity": 0.4094488188976378,
                    "duration": 0.10869575000000964
                },
                {
                    "name": "F#4",
                    "midi": 66,
                    "time": 176.84798525000087,
                    "velocity": 0.41732283464566927,
                    "duration": 0.10869575000000964
                },
                {
                    "name": "G4",
                    "midi": 67,
                    "time": 176.95668100000088,
                    "velocity": 0.4015748031496063,
                    "duration": 0.21739150000001928
                },
                {
                    "name": "D#4",
                    "midi": 63,
                    "time": 176.95668100000088,
                    "velocity": 0.48031496062992124,
                    "duration": 0.10869575000000964
                },
                {
                    "name": "D4",
                    "midi": 62,
                    "time": 177.0653767500009,
                    "velocity": 0.3700787401574803,
                    "duration": 0.10869575000000964
                },
                {
                    "name": "G4",
                    "midi": 67,
                    "time": 177.1740725000009,
                    "velocity": 0.3858267716535433,
                    "duration": 0.21739150000001928
                },
                {
                    "name": "E5",
                    "midi": 76,
                    "time": 177.1740725000009,
                    "velocity": 0.4566929133858268,
                    "duration": 0.10869575000000964
                },
                {
                    "name": "D5",
                    "midi": 74,
                    "time": 177.2827682500009,
                    "velocity": 0.3700787401574803,
                    "duration": 0.10869575000000964
                },
                {
                    "name": "D5",
                    "midi": 74,
                    "time": 177.39146400000092,
                    "velocity": 0.4094488188976378,
                    "duration": 0.10869575000000964
                },
                {
                    "name": "B4",
                    "midi": 71,
                    "time": 177.50015975000093,
                    "velocity": 0.3543307086614173,
                    "duration": 0.10869575000000964
                },
                {
                    "name": "G5",
                    "midi": 79,
                    "time": 177.50015975000093,
                    "velocity": 0.4251968503937008,
                    "duration": 0.10869575000000964
                },
                {
                    "name": "B5",
                    "midi": 83,
                    "time": 177.60885550000094,
                    "velocity": 0.4566929133858268,
                    "duration": 0.10869575000000964
                },
                {
                    "name": "D5",
                    "midi": 74,
                    "time": 177.60885550000094,
                    "velocity": 0.3858267716535433,
                    "duration": 0.10869575000000964
                },
                {
                    "name": "C5",
                    "midi": 72,
                    "time": 177.71755125000095,
                    "velocity": 0.3464566929133858,
                    "duration": 0.10869575000000964
                },
                {
                    "name": "A5",
                    "midi": 81,
                    "time": 177.71755125000095,
                    "velocity": 0.4094488188976378,
                    "duration": 0.10869575000000964
                },
                {
                    "name": "B4",
                    "midi": 71,
                    "time": 177.82624700000096,
                    "velocity": 0.4566929133858268,
                    "duration": 0.10869575000000964
                },
                {
                    "name": "G5",
                    "midi": 79,
                    "time": 177.82624700000096,
                    "velocity": 0.4566929133858268,
                    "duration": 0.8695660000000771
                },
                {
                    "name": "D#5",
                    "midi": 75,
                    "time": 177.93494275000097,
                    "velocity": 0.3937007874015748,
                    "duration": 0.10869575000000964
                },
                {
                    "name": "E5",
                    "midi": 76,
                    "time": 178.04363850000098,
                    "velocity": 0.4330708661417323,
                    "duration": 0.10869575000000964
                },
                {
                    "name": "B4",
                    "midi": 71,
                    "time": 178.152334250001,
                    "velocity": 0.3937007874015748,
                    "duration": 0.10869575000000964
                },
                {
                    "name": "A#4",
                    "midi": 70,
                    "time": 178.261030000001,
                    "velocity": 0.4251968503937008,
                    "duration": 0.10869575000000964
                },
                {
                    "name": "D#5",
                    "midi": 75,
                    "time": 178.369725750001,
                    "velocity": 0.4566929133858268,
                    "duration": 0.10869575000000964
                },
                {
                    "name": "E5",
                    "midi": 76,
                    "time": 178.47842150000102,
                    "velocity": 0.4566929133858268,
                    "duration": 0.10869575000000964
                },
                {
                    "name": "A#4",
                    "midi": 70,
                    "time": 178.58711725000103,
                    "velocity": 0.41732283464566927,
                    "duration": 0.10869575000000964
                },
                {
                    "name": "A4",
                    "midi": 69,
                    "time": 178.69581300000104,
                    "velocity": 0.4409448818897638,
                    "duration": 0.10869575000000964
                },
                {
                    "name": "C#5",
                    "midi": 73,
                    "time": 178.80450875000105,
                    "velocity": 0.3937007874015748,
                    "duration": 0.10869575000000964
                },
                {
                    "name": "D5",
                    "midi": 74,
                    "time": 178.91320450000106,
                    "velocity": 0.47244094488188976,
                    "duration": 0.10869575000000964
                },
                {
                    "name": "D6",
                    "midi": 86,
                    "time": 179.02190025000107,
                    "velocity": 0.4251968503937008,
                    "duration": 0.10869575000000964
                },
                {
                    "name": "D6",
                    "midi": 86,
                    "time": 179.13059600000108,
                    "velocity": 0.48031496062992124,
                    "duration": 0.10869575000000964
                },
                {
                    "name": "D7",
                    "midi": 98,
                    "time": 179.2392917500011,
                    "velocity": 0.3779527559055118,
                    "duration": 0.10869575000000964
                },
                {
                    "name": "C#7",
                    "midi": 97,
                    "time": 179.3479875000011,
                    "velocity": 0.3858267716535433,
                    "duration": 0.10869575000000964
                },
                {
                    "name": "C7",
                    "midi": 96,
                    "time": 179.4566832500011,
                    "velocity": 0.3937007874015748,
                    "duration": 0.10869575000000964
                },
                {
                    "name": "A6",
                    "midi": 93,
                    "time": 179.56537900000112,
                    "velocity": 0.4015748031496063,
                    "duration": 0.10869575000000964
                },
                {
                    "name": "F#6",
                    "midi": 90,
                    "time": 179.67407475000113,
                    "velocity": 0.4015748031496063,
                    "duration": 0.10869575000000964
                },
                {
                    "name": "D#6",
                    "midi": 87,
                    "time": 179.78277050000113,
                    "velocity": 0.4094488188976378,
                    "duration": 0.10869575000000964
                },
                {
                    "name": "D6",
                    "midi": 86,
                    "time": 179.89146625000114,
                    "velocity": 0.41732283464566927,
                    "duration": 0.10869575000000964
                },
                {
                    "name": "C#6",
                    "midi": 85,
                    "time": 180.00016200000115,
                    "velocity": 0.4330708661417323,
                    "duration": 0.10869575000000964
                },
                {
                    "name": "C6",
                    "midi": 84,
                    "time": 180.10885775000116,
                    "velocity": 0.4409448818897638,
                    "duration": 0.10869575000000964
                },
                {
                    "name": "A5",
                    "midi": 81,
                    "time": 180.21755350000117,
                    "velocity": 0.5039370078740157,
                    "duration": 0.10869575000000964
                },
                {
                    "name": "F#5",
                    "midi": 78,
                    "time": 180.32624925000118,
                    "velocity": 0.5275590551181102,
                    "duration": 0.10869575000000964
                },
                {
                    "name": "D#5",
                    "midi": 75,
                    "time": 180.4349450000012,
                    "velocity": 0.5669291338582677,
                    "duration": 0.10869575000000964
                },
                {
                    "name": "G5",
                    "midi": 79,
                    "time": 180.4349450000012,
                    "velocity": 0.47244094488188976,
                    "duration": 0.21739150000001928
                },
                {
                    "name": "D5",
                    "midi": 74,
                    "time": 180.5436407500012,
                    "velocity": 0.4015748031496063,
                    "duration": 0.10869575000000964
                },
                {
                    "name": "G5",
                    "midi": 79,
                    "time": 180.6523365000012,
                    "velocity": 0.41732283464566927,
                    "duration": 0.21739150000001928
                },
                {
                    "name": "E6",
                    "midi": 88,
                    "time": 180.6523365000012,
                    "velocity": 0.49606299212598426,
                    "duration": 0.10869575000000964
                },
                {
                    "name": "D6",
                    "midi": 86,
                    "time": 180.76103225000122,
                    "velocity": 0.4015748031496063,
                    "duration": 0.10869575000000964
                },
                {
                    "name": "D6",
                    "midi": 86,
                    "time": 180.86972800000123,
                    "velocity": 0.48031496062992124,
                    "duration": 0.10869575000000964
                },
                {
                    "name": "D7",
                    "midi": 98,
                    "time": 180.97842375000124,
                    "velocity": 0.3779527559055118,
                    "duration": 0.10869575000000964
                },
                {
                    "name": "C#7",
                    "midi": 97,
                    "time": 181.08711950000125,
                    "velocity": 0.3858267716535433,
                    "duration": 0.10869575000000964
                },
                {
                    "name": "C7",
                    "midi": 96,
                    "time": 181.19581525000126,
                    "velocity": 0.3937007874015748,
                    "duration": 0.10869575000000964
                },
                {
                    "name": "A6",
                    "midi": 93,
                    "time": 181.30451100000127,
                    "velocity": 0.4015748031496063,
                    "duration": 0.10869575000000964
                },
                {
                    "name": "F#6",
                    "midi": 90,
                    "time": 181.41320675000128,
                    "velocity": 0.4015748031496063,
                    "duration": 0.10869575000000964
                },
                {
                    "name": "D#6",
                    "midi": 87,
                    "time": 181.5219025000013,
                    "velocity": 0.4094488188976378,
                    "duration": 0.10869575000000964
                },
                {
                    "name": "D6",
                    "midi": 86,
                    "time": 181.6305982500013,
                    "velocity": 0.41732283464566927,
                    "duration": 0.10869575000000964
                },
                {
                    "name": "C#6",
                    "midi": 85,
                    "time": 181.7392940000013,
                    "velocity": 0.44881889763779526,
                    "duration": 0.10869575000000964
                },
                {
                    "name": "C6",
                    "midi": 84,
                    "time": 181.84798975000132,
                    "velocity": 0.41732283464566927,
                    "duration": 0.10869575000000964
                },
                {
                    "name": "A5",
                    "midi": 81,
                    "time": 181.95668550000133,
                    "velocity": 0.48031496062992124,
                    "duration": 0.10869575000000964
                },
                {
                    "name": "F#5",
                    "midi": 78,
                    "time": 182.06538125000134,
                    "velocity": 0.49606299212598426,
                    "duration": 0.10869575000000964
                },
                {
                    "name": "D#5",
                    "midi": 75,
                    "time": 182.17407700000135,
                    "velocity": 0.5275590551181102,
                    "duration": 0.10869575000000964
                },
                {
                    "name": "G5",
                    "midi": 79,
                    "time": 182.17407700000135,
                    "velocity": 0.4251968503937008,
                    "duration": 0.21739150000001928
                },
                {
                    "name": "D5",
                    "midi": 74,
                    "time": 182.28277275000136,
                    "velocity": 0.4015748031496063,
                    "duration": 0.10869575000000964
                },
                {
                    "name": "E6",
                    "midi": 88,
                    "time": 182.39146850000137,
                    "velocity": 0.49606299212598426,
                    "duration": 0.10869575000000964
                },
                {
                    "name": "G5",
                    "midi": 79,
                    "time": 182.39146850000137,
                    "velocity": 0.41732283464566927,
                    "duration": 0.21739150000001928
                },
                {
                    "name": "D6",
                    "midi": 86,
                    "time": 182.50016425000138,
                    "velocity": 0.4015748031496063,
                    "duration": 0.10869575000000964
                },
                {
                    "name": "D6",
                    "midi": 86,
                    "time": 182.60886000000139,
                    "velocity": 0.4409448818897638,
                    "duration": 0.10869575000000964
                },
                {
                    "name": "G5",
                    "midi": 79,
                    "time": 182.7175557500014,
                    "velocity": 0.4251968503937008,
                    "duration": 0.10869575000000964
                },
                {
                    "name": "B4",
                    "midi": 71,
                    "time": 182.7175557500014,
                    "velocity": 0.3543307086614173,
                    "duration": 0.10869575000000964
                },
                {
                    "name": "D5",
                    "midi": 74,
                    "time": 182.8262515000014,
                    "velocity": 0.3858267716535433,
                    "duration": 0.10869575000000964
                },
                {
                    "name": "B5",
                    "midi": 83,
                    "time": 182.8262515000014,
                    "velocity": 0.4566929133858268,
                    "duration": 0.10869575000000964
                },
                {
                    "name": "C5",
                    "midi": 72,
                    "time": 182.93494725000141,
                    "velocity": 0.3464566929133858,
                    "duration": 0.10869575000000964
                },
                {
                    "name": "A5",
                    "midi": 81,
                    "time": 182.93494725000141,
                    "velocity": 0.4094488188976378,
                    "duration": 0.10869575000000964
                },
                {
                    "name": "G5",
                    "midi": 79,
                    "time": 183.04364300000142,
                    "velocity": 0.4566929133858268,
                    "duration": 0.8695660000000771
                },
                {
                    "name": "B4",
                    "midi": 71,
                    "time": 183.04364300000142,
                    "velocity": 0.4566929133858268,
                    "duration": 0.10869575000000964
                },
                {
                    "name": "D#5",
                    "midi": 75,
                    "time": 183.15233875000143,
                    "velocity": 0.3937007874015748,
                    "duration": 0.10869575000000964
                },
                {
                    "name": "E5",
                    "midi": 76,
                    "time": 183.26103450000144,
                    "velocity": 0.4330708661417323,
                    "duration": 0.10869575000000964
                },
                {
                    "name": "B4",
                    "midi": 71,
                    "time": 183.36973025000145,
                    "velocity": 0.3937007874015748,
                    "duration": 0.10869575000000964
                },
                {
                    "name": "A#4",
                    "midi": 70,
                    "time": 183.47842600000146,
                    "velocity": 0.4251968503937008,
                    "duration": 0.10869575000000964
                },
                {
                    "name": "D#5",
                    "midi": 75,
                    "time": 183.58712175000147,
                    "velocity": 0.4566929133858268,
                    "duration": 0.10869575000000964
                },
                {
                    "name": "E5",
                    "midi": 76,
                    "time": 183.69581750000148,
                    "velocity": 0.4566929133858268,
                    "duration": 0.10869575000000964
                },
                {
                    "name": "A#4",
                    "midi": 70,
                    "time": 183.8045132500015,
                    "velocity": 0.41732283464566927,
                    "duration": 0.10869575000000964
                },
                {
                    "name": "F#5",
                    "midi": 78,
                    "time": 183.9132090000015,
                    "velocity": 0.4251968503937008,
                    "duration": 0.21739150000001928
                },
                {
                    "name": "A4",
                    "midi": 69,
                    "time": 183.9132090000015,
                    "velocity": 0.4409448818897638,
                    "duration": 0.10869575000000964
                },
                {
                    "name": "D5",
                    "midi": 74,
                    "time": 184.0219047500015,
                    "velocity": 0.3937007874015748,
                    "duration": 0.10869575000000964
                },
                {
                    "name": "G5",
                    "midi": 79,
                    "time": 184.13060050000152,
                    "velocity": 0.4251968503937008,
                    "duration": 0.21739150000001928
                },
                {
                    "name": "G4",
                    "midi": 67,
                    "time": 184.13060050000152,
                    "velocity": 0.47244094488188976,
                    "duration": 0.10869575000000964
                },
                {
                    "name": "C5",
                    "midi": 72,
                    "time": 184.23929625000153,
                    "velocity": 0.3937007874015748,
                    "duration": 0.10869575000000964
                },
                {
                    "name": "G5",
                    "midi": 79,
                    "time": 184.34799200000154,
                    "velocity": 0.4251968503937008,
                    "duration": 0.10869575000000964
                },
                {
                    "name": "E5",
                    "midi": 76,
                    "time": 184.45668775000155,
                    "velocity": 0.3700787401574803,
                    "duration": 0.10869575000000964
                },
                {
                    "name": "C6",
                    "midi": 84,
                    "time": 184.45668775000155,
                    "velocity": 0.44881889763779526,
                    "duration": 0.10869575000000964
                },
                {
                    "name": "G5",
                    "midi": 79,
                    "time": 184.56538350000156,
                    "velocity": 0.4094488188976378,
                    "duration": 0.10869575000000964
                },
                {
                    "name": "E6",
                    "midi": 88,
                    "time": 184.56538350000156,
                    "velocity": 0.4881889763779528,
                    "duration": 0.10869575000000964
                },
                {
                    "name": "D6",
                    "midi": 86,
                    "time": 184.67407925000157,
                    "velocity": 0.4409448818897638,
                    "duration": 0.10869575000000964
                },
                {
                    "name": "F5",
                    "midi": 77,
                    "time": 184.67407925000157,
                    "velocity": 0.3700787401574803,
                    "duration": 0.10869575000000964
                },
                {
                    "name": "C6",
                    "midi": 84,
                    "time": 184.78277500000158,
                    "velocity": 0.49606299212598426,
                    "duration": 0.8695660000000771
                },
                {
                    "name": "E5",
                    "midi": 76,
                    "time": 184.78277500000158,
                    "velocity": 0.49606299212598426,
                    "duration": 0.10869575000000964
                },
                {
                    "name": "G#5",
                    "midi": 80,
                    "time": 184.8914707500016,
                    "velocity": 0.4330708661417323,
                    "duration": 0.10869575000000964
                },
                {
                    "name": "A5",
                    "midi": 81,
                    "time": 185.0001665000016,
                    "velocity": 0.48031496062992124,
                    "duration": 0.10869575000000964
                },
                {
                    "name": "D#5",
                    "midi": 75,
                    "time": 185.1088622500016,
                    "velocity": 0.4409448818897638,
                    "duration": 0.10869575000000964
                },
                {
                    "name": "D#5",
                    "midi": 75,
                    "time": 185.21755800000162,
                    "velocity": 0.48031496062992124,
                    "duration": 0.10869575000000964
                },
                {
                    "name": "G#5",
                    "midi": 80,
                    "time": 185.32625375000163,
                    "velocity": 0.5196850393700787,
                    "duration": 0.10869575000000964
                },
                {
                    "name": "A5",
                    "midi": 81,
                    "time": 185.43494950000164,
                    "velocity": 0.5196850393700787,
                    "duration": 0.10869575000000964
                },
                {
                    "name": "D#5",
                    "midi": 75,
                    "time": 185.54364525000165,
                    "velocity": 0.4881889763779528,
                    "duration": 0.10869575000000964
                },
                {
                    "name": "B5",
                    "midi": 83,
                    "time": 185.65234100000166,
                    "velocity": 0.49606299212598426,
                    "duration": 0.21739150000001928
                },
                {
                    "name": "D5",
                    "midi": 74,
                    "time": 185.65234100000166,
                    "velocity": 0.5196850393700787,
                    "duration": 0.10869575000000964
                },
                {
                    "name": "G5",
                    "midi": 79,
                    "time": 185.76103675000167,
                    "velocity": 0.4645669291338583,
                    "duration": 0.10869575000000964
                },
                {
                    "name": "C5",
                    "midi": 72,
                    "time": 185.86973250000167,
                    "velocity": 0.5669291338582677,
                    "duration": 0.10869575000000964
                },
                {
                    "name": "C6",
                    "midi": 84,
                    "time": 185.86973250000167,
                    "velocity": 0.5039370078740157,
                    "duration": 0.21739150000001928
                },
                {
                    "name": "F5",
                    "midi": 77,
                    "time": 185.97842825000168,
                    "velocity": 0.47244094488188976,
                    "duration": 0.10869575000000964
                },
                {
                    "name": "C6",
                    "midi": 84,
                    "time": 186.0871240000017,
                    "velocity": 0.49606299212598426,
                    "duration": 0.10869575000000964
                },
                {
                    "name": "A5",
                    "midi": 81,
                    "time": 186.1958197500017,
                    "velocity": 0.4330708661417323,
                    "duration": 0.10869575000000964
                },
                {
                    "name": "F6",
                    "midi": 89,
                    "time": 186.1958197500017,
                    "velocity": 0.5196850393700787,
                    "duration": 0.10869575000000964
                },
                {
                    "name": "A6",
                    "midi": 93,
                    "time": 186.3045155000017,
                    "velocity": 0.5590551181102362,
                    "duration": 0.10869575000000964
                },
                {
                    "name": "C6",
                    "midi": 84,
                    "time": 186.3045155000017,
                    "velocity": 0.47244094488188976,
                    "duration": 0.10869575000000964
                },
                {
                    "name": "G6",
                    "midi": 91,
                    "time": 186.41321125000172,
                    "velocity": 0.5118110236220472,
                    "duration": 0.10869575000000964
                },
                {
                    "name": "A#5",
                    "midi": 82,
                    "time": 186.41321125000172,
                    "velocity": 0.4330708661417323,
                    "duration": 0.10869575000000964
                },
                {
                    "name": "F6",
                    "midi": 89,
                    "time": 186.52190700000173,
                    "velocity": 0.5748031496062992,
                    "duration": 0.8695660000000771
                },
                {
                    "name": "G#5",
                    "midi": 80,
                    "time": 186.52190700000173,
                    "velocity": 0.5748031496062992,
                    "duration": 0.10869575000000964
                },
                {
                    "name": "F5",
                    "midi": 77,
                    "time": 186.63060275000174,
                    "velocity": 0.49606299212598426,
                    "duration": 0.10869575000000964
                },
                {
                    "name": "G#5",
                    "midi": 80,
                    "time": 186.73929850000175,
                    "velocity": 0.5511811023622047,
                    "duration": 0.10869575000000964
                },
                {
                    "name": "G5",
                    "midi": 79,
                    "time": 186.84799425000176,
                    "velocity": 0.5118110236220472,
                    "duration": 0.10869575000000964
                },
                {
                    "name": "G#5",
                    "midi": 80,
                    "time": 186.95669000000177,
                    "velocity": 0.5511811023622047,
                    "duration": 0.10869575000000964
                },
                {
                    "name": "C#6",
                    "midi": 85,
                    "time": 187.06538575000178,
                    "velocity": 0.5748031496062992,
                    "duration": 0.10869575000000964
                },
                {
                    "name": "D6",
                    "midi": 86,
                    "time": 187.1740815000018,
                    "velocity": 0.6062992125984252,
                    "duration": 0.10869575000000964
                },
                {
                    "name": "G#5",
                    "midi": 80,
                    "time": 187.2827772500018,
                    "velocity": 0.5590551181102362,
                    "duration": 0.10869575000000964
                },
                {
                    "name": "G5",
                    "midi": 79,
                    "time": 187.3914730000018,
                    "velocity": 0.5905511811023622,
                    "duration": 0.10869575000000964
                },
                {
                    "name": "E6",
                    "midi": 88,
                    "time": 187.3914730000018,
                    "velocity": 0.6141732283464567,
                    "duration": 0.6521745000000294
                },
                {
                    "name": "B5",
                    "midi": 83,
                    "time": 187.50016875000182,
                    "velocity": 0.5354330708661418,
                    "duration": 0.10869575000000964
                },
                {
                    "name": "C6",
                    "midi": 84,
                    "time": 187.60886450000183,
                    "velocity": 0.6456692913385826,
                    "duration": 0.10869575000000964
                },
                {
                    "name": "G5",
                    "midi": 79,
                    "time": 187.71756025000184,
                    "velocity": 0.5433070866141733,
                    "duration": 0.10869575000000964
                },
                {
                    "name": "C6",
                    "midi": 84,
                    "time": 187.82625600000185,
                    "velocity": 0.5826771653543307,
                    "duration": 0.21739149999999086
                },
                {
                    "name": "E5",
                    "midi": 76,
                    "time": 188.04364750000184,
                    "velocity": 0.6220472440944882,
                    "duration": 0.21739149999999086
                },
                {
                    "name": "C6",
                    "midi": 84,
                    "time": 188.04364750000184,
                    "velocity": 0.6220472440944882,
                    "duration": 0.21739149999999086
                },
                {
                    "name": "G5",
                    "midi": 79,
                    "time": 188.04364750000184,
                    "velocity": 0.6220472440944882,
                    "duration": 0.21739149999999086
                },
                {
                    "name": "E6",
                    "midi": 88,
                    "time": 188.04364750000184,
                    "velocity": 0.7322834645669292,
                    "duration": 0.21739149999999086
                },
                {
                    "name": "B5",
                    "midi": 83,
                    "time": 188.26103900000183,
                    "velocity": 0.5826771653543307,
                    "duration": 0.21739149999999086
                },
                {
                    "name": "D6",
                    "midi": 86,
                    "time": 188.26103900000183,
                    "velocity": 0.6929133858267716,
                    "duration": 0.21739149999999086
                },
                {
                    "name": "C6",
                    "midi": 84,
                    "time": 188.47843050000182,
                    "velocity": 0.5826771653543307,
                    "duration": 0.10869575000000964
                },
                {
                    "name": "E6",
                    "midi": 88,
                    "time": 188.47843050000182,
                    "velocity": 0.6771653543307087,
                    "duration": 0.10869575000000964
                },
                {
                    "name": "F6",
                    "midi": 89,
                    "time": 188.58712625000183,
                    "velocity": 0.7244094488188977,
                    "duration": 0.10869575000000964
                },
                {
                    "name": "D6",
                    "midi": 86,
                    "time": 188.58712625000183,
                    "velocity": 0.6141732283464567,
                    "duration": 0.10869575000000964
                },
                {
                    "name": "G6",
                    "midi": 91,
                    "time": 188.69582200000184,
                    "velocity": 0.7559055118110236,
                    "duration": 0.10869575000000964
                },
                {
                    "name": "E6",
                    "midi": 88,
                    "time": 188.69582200000184,
                    "velocity": 0.6377952755905512,
                    "duration": 0.10869575000000964
                },
                {
                    "name": "C6",
                    "midi": 84,
                    "time": 188.91321350000186,
                    "velocity": 0.6062992125984252,
                    "duration": 0.10869575000000964
                },
                {
                    "name": "E6",
                    "midi": 88,
                    "time": 188.91321350000186,
                    "velocity": 0.7165354330708661,
                    "duration": 0.10869575000000964
                },
                {
                    "name": "E6",
                    "midi": 88,
                    "time": 189.78277950000188,
                    "velocity": 0.7322834645669292,
                    "duration": 0.21739149999999086
                },
                {
                    "name": "G5",
                    "midi": 79,
                    "time": 189.78277950000188,
                    "velocity": 0.6220472440944882,
                    "duration": 0.21739149999999086
                },
                {
                    "name": "C6",
                    "midi": 84,
                    "time": 189.78277950000188,
                    "velocity": 0.6220472440944882,
                    "duration": 0.21739149999999086
                },
                {
                    "name": "E5",
                    "midi": 76,
                    "time": 189.78277950000188,
                    "velocity": 0.6220472440944882,
                    "duration": 0.21739149999999086
                },
                {
                    "name": "B5",
                    "midi": 83,
                    "time": 190.00017100000187,
                    "velocity": 0.5826771653543307,
                    "duration": 0.21739149999999086
                },
                {
                    "name": "D6",
                    "midi": 86,
                    "time": 190.00017100000187,
                    "velocity": 0.6929133858267716,
                    "duration": 0.21739149999999086
                },
                {
                    "name": "E6",
                    "midi": 88,
                    "time": 190.21756250000186,
                    "velocity": 0.6771653543307087,
                    "duration": 0.10869575000000964
                },
                {
                    "name": "C6",
                    "midi": 84,
                    "time": 190.21756250000186,
                    "velocity": 0.5826771653543307,
                    "duration": 0.10869575000000964
                },
                {
                    "name": "D6",
                    "midi": 86,
                    "time": 190.32625825000187,
                    "velocity": 0.6141732283464567,
                    "duration": 0.10869575000000964
                },
                {
                    "name": "F6",
                    "midi": 89,
                    "time": 190.32625825000187,
                    "velocity": 0.7244094488188977,
                    "duration": 0.10869575000000964
                },
                {
                    "name": "G6",
                    "midi": 91,
                    "time": 190.43495400000188,
                    "velocity": 0.7559055118110236,
                    "duration": 0.10869575000000964
                },
                {
                    "name": "E6",
                    "midi": 88,
                    "time": 190.43495400000188,
                    "velocity": 0.6377952755905512,
                    "duration": 0.10869575000000964
                },
                {
                    "name": "G6",
                    "midi": 91,
                    "time": 190.6523455000019,
                    "velocity": 0.8110236220472441,
                    "duration": 0.21739149999999086
                },
                {
                    "name": "E6",
                    "midi": 88,
                    "time": 190.6523455000019,
                    "velocity": 0.6771653543307087,
                    "duration": 0.21739149999999086
                },
                {
                    "name": "A5",
                    "midi": 81,
                    "time": 190.6523455000019,
                    "velocity": 0.6771653543307087,
                    "duration": 0.21739149999999086
                },
                {
                    "name": "G5",
                    "midi": 79,
                    "time": 190.6523455000019,
                    "velocity": 0.6771653543307087,
                    "duration": 0.21739149999999086
                },
                {
                    "name": "C#6",
                    "midi": 85,
                    "time": 191.08712850000188,
                    "velocity": 0.6771653543307087,
                    "duration": 0.21739149999999086
                },
                {
                    "name": "E6",
                    "midi": 88,
                    "time": 191.08712850000188,
                    "velocity": 0.6771653543307087,
                    "duration": 0.21739149999999086
                },
                {
                    "name": "G6",
                    "midi": 91,
                    "time": 191.08712850000188,
                    "velocity": 0.8110236220472441,
                    "duration": 0.21739149999999086
                },
                {
                    "name": "G5",
                    "midi": 79,
                    "time": 191.08712850000188,
                    "velocity": 0.6771653543307087,
                    "duration": 0.21739149999999086
                },
                {
                    "name": "G6",
                    "midi": 91,
                    "time": 191.52191150000186,
                    "velocity": 0.8110236220472441,
                    "duration": 0.21739149999999086
                },
                {
                    "name": "B5",
                    "midi": 83,
                    "time": 191.52191150000186,
                    "velocity": 0.6771653543307087,
                    "duration": 0.21739149999999086
                },
                {
                    "name": "D6",
                    "midi": 86,
                    "time": 191.52191150000186,
                    "velocity": 0.6771653543307087,
                    "duration": 0.21739149999999086
                },
                {
                    "name": "G5",
                    "midi": 79,
                    "time": 191.52191150000186,
                    "velocity": 0.6771653543307087,
                    "duration": 0.21739149999999086
                },
                {
                    "name": "G5",
                    "midi": 79,
                    "time": 191.95669450000184,
                    "velocity": 0.6771653543307087,
                    "duration": 0.21739149999999086
                },
                {
                    "name": "C#6",
                    "midi": 85,
                    "time": 191.95669450000184,
                    "velocity": 0.6771653543307087,
                    "duration": 0.21739149999999086
                },
                {
                    "name": "A5",
                    "midi": 81,
                    "time": 191.95669450000184,
                    "velocity": 0.6771653543307087,
                    "duration": 0.21739149999999086
                },
                {
                    "name": "G6",
                    "midi": 91,
                    "time": 191.95669450000184,
                    "velocity": 0.8110236220472441,
                    "duration": 0.21739149999999086
                },
                {
                    "name": "G6",
                    "midi": 91,
                    "time": 192.17408600000184,
                    "velocity": 0.6062992125984252,
                    "duration": 0.43478300000001013
                },
                {
                    "name": "G5",
                    "midi": 79,
                    "time": 192.17408600000184,
                    "velocity": 0.5118110236220472,
                    "duration": 0.43478300000001013
                },
                {
                    "name": "B5",
                    "midi": 83,
                    "time": 192.17408600000184,
                    "velocity": 0.5118110236220472,
                    "duration": 0.43478300000001013
                },
                {
                    "name": "D6",
                    "midi": 86,
                    "time": 192.17408600000184,
                    "velocity": 0.5118110236220472,
                    "duration": 0.43478300000001013
                },
                {
                    "name": "D6",
                    "midi": 86,
                    "time": 192.60886900000185,
                    "velocity": 0.5039370078740157,
                    "duration": 0.652174500000001
                },
                {
                    "name": "G5",
                    "midi": 79,
                    "time": 192.60886900000185,
                    "velocity": 0.4251968503937008,
                    "duration": 0.652174500000001
                },
                {
                    "name": "B5",
                    "midi": 83,
                    "time": 192.60886900000185,
                    "velocity": 0.4251968503937008,
                    "duration": 0.652174500000001
                },
                {
                    "name": "D5",
                    "midi": 74,
                    "time": 193.26104350000185,
                    "velocity": 0.41732283464566927,
                    "duration": 0.21739149999999086
                },
                {
                    "name": "G5",
                    "midi": 79,
                    "time": 193.26104350000185,
                    "velocity": 0.41732283464566927,
                    "duration": 0.21739149999999086
                },
                {
                    "name": "B5",
                    "midi": 83,
                    "time": 193.26104350000185,
                    "velocity": 0.49606299212598426,
                    "duration": 0.21739149999999086
                },
                {
                    "name": "D5",
                    "midi": 74,
                    "time": 193.47843500000184,
                    "velocity": 0.4409448818897638,
                    "duration": 0.10869575000000964
                },
                {
                    "name": "F#5",
                    "midi": 78,
                    "time": 193.58713075000185,
                    "velocity": 0.44881889763779526,
                    "duration": 0.10869575000000964
                },
                {
                    "name": "G5",
                    "midi": 79,
                    "time": 193.69582650000186,
                    "velocity": 0.4566929133858268,
                    "duration": 0.10869575000000964
                },
                {
                    "name": "B5",
                    "midi": 83,
                    "time": 193.80452225000187,
                    "velocity": 0.4645669291338583,
                    "duration": 0.10869575000000964
                },
                {
                    "name": "C#6",
                    "midi": 85,
                    "time": 193.91321800000188,
                    "velocity": 0.47244094488188976,
                    "duration": 0.10869575000000964
                },
                {
                    "name": "D6",
                    "midi": 86,
                    "time": 194.0219137500019,
                    "velocity": 0.48031496062992124,
                    "duration": 0.10869575000000964
                },
                {
                    "name": "E6",
                    "midi": 88,
                    "time": 194.1306095000019,
                    "velocity": 0.4881889763779528,
                    "duration": 0.10869575000000964
                },
                {
                    "name": "D6",
                    "midi": 86,
                    "time": 194.2393052500019,
                    "velocity": 0.4881889763779528,
                    "duration": 0.10869575000000964
                },
                {
                    "name": "F#6",
                    "midi": 90,
                    "time": 194.34800100000191,
                    "velocity": 0.49606299212598426,
                    "duration": 0.10869575000000964
                },
                {
                    "name": "G6",
                    "midi": 91,
                    "time": 194.45669675000192,
                    "velocity": 0.5039370078740157,
                    "duration": 0.10869575000000964
                },
                {
                    "name": "A6",
                    "midi": 93,
                    "time": 194.56539250000193,
                    "velocity": 0.5118110236220472,
                    "duration": 0.10869575000000964
                },
                {
                    "name": "G6",
                    "midi": 91,
                    "time": 194.67408825000194,
                    "velocity": 0.5196850393700787,
                    "duration": 0.10869575000000964
                },
                {
                    "name": "A#6",
                    "midi": 94,
                    "time": 194.78278400000195,
                    "velocity": 0.5275590551181102,
                    "duration": 0.10869575000000964
                },
                {
                    "name": "B6",
                    "midi": 95,
                    "time": 194.89147975000196,
                    "velocity": 0.5354330708661418,
                    "duration": 0.10869575000000964
                },
                {
                    "name": "C7",
                    "midi": 96,
                    "time": 195.00017550000197,
                    "velocity": 0.5433070866141733,
                    "duration": 0.10869575000000964
                },
                {
                    "name": "B6",
                    "midi": 95,
                    "time": 195.10887125000198,
                    "velocity": 0.5511811023622047,
                    "duration": 0.10869575000000964
                },
                {
                    "name": "D7",
                    "midi": 98,
                    "time": 195.217567000002,
                    "velocity": 0.5590551181102362,
                    "duration": 0.21739149999999086
                },
                {
                    "name": "A5",
                    "midi": 81,
                    "time": 195.43495850000198,
                    "velocity": 0.4645669291338583,
                    "duration": 0.21739149999999086
                },
                {
                    "name": "D5",
                    "midi": 74,
                    "time": 195.43495850000198,
                    "velocity": 0.4645669291338583,
                    "duration": 0.21739149999999086
                },
                {
                    "name": "C6",
                    "midi": 84,
                    "time": 195.43495850000198,
                    "velocity": 0.5511811023622047,
                    "duration": 0.21739149999999086
                },
                {
                    "name": "B5",
                    "midi": 83,
                    "time": 195.65235000000197,
                    "velocity": 0.4566929133858268,
                    "duration": 0.8695659999999918
                },
                {
                    "name": "G5",
                    "midi": 79,
                    "time": 195.65235000000197,
                    "velocity": 0.3858267716535433,
                    "duration": 0.8695659999999918
                },
                {
                    "name": "D5",
                    "midi": 74,
                    "time": 195.65235000000197,
                    "velocity": 0.3858267716535433,
                    "duration": 0.8695659999999918
                },
                {
                    "name": "C6",
                    "midi": 84,
                    "time": 196.52191600000197,
                    "velocity": 0.44881889763779526,
                    "duration": 0.43478300000001013
                },
                {
                    "name": "G5",
                    "midi": 79,
                    "time": 196.52191600000197,
                    "velocity": 0.3779527559055118,
                    "duration": 0.43478300000001013
                },
                {
                    "name": "C6",
                    "midi": 84,
                    "time": 196.95669900000198,
                    "velocity": 0.4015748031496063,
                    "duration": 0.43478300000001013
                },
                {
                    "name": "G5",
                    "midi": 79,
                    "time": 196.95669900000198,
                    "velocity": 0.4015748031496063,
                    "duration": 0.43478300000001013
                },
                {
                    "name": "D#6",
                    "midi": 87,
                    "time": 196.95669900000198,
                    "velocity": 0.48031496062992124,
                    "duration": 0.43478300000001013
                },
                {
                    "name": "G6",
                    "midi": 91,
                    "time": 197.391482000002,
                    "velocity": 0.4409448818897638,
                    "duration": 0.8695660000000203
                },
                {
                    "name": "D6",
                    "midi": 86,
                    "time": 197.391482000002,
                    "velocity": 0.5275590551181102,
                    "duration": 0.43478300000001013
                },
                {
                    "name": "G5",
                    "midi": 79,
                    "time": 197.391482000002,
                    "velocity": 0.4409448818897638,
                    "duration": 0.8695660000000203
                },
                {
                    "name": "B5",
                    "midi": 83,
                    "time": 197.826265000002,
                    "velocity": 0.48031496062992124,
                    "duration": 0.43478300000001013
                },
                {
                    "name": "C6",
                    "midi": 84,
                    "time": 198.261048000002,
                    "velocity": 0.4015748031496063,
                    "duration": 0.43478300000001013
                },
                {
                    "name": "G5",
                    "midi": 79,
                    "time": 198.261048000002,
                    "velocity": 0.4015748031496063,
                    "duration": 0.43478300000001013
                },
                {
                    "name": "D#6",
                    "midi": 87,
                    "time": 198.261048000002,
                    "velocity": 0.47244094488188976,
                    "duration": 0.43478300000001013
                },
                {
                    "name": "G5",
                    "midi": 79,
                    "time": 198.69583100000202,
                    "velocity": 0.41732283464566927,
                    "duration": 0.43478300000001013
                },
                {
                    "name": "C6",
                    "midi": 84,
                    "time": 198.69583100000202,
                    "velocity": 0.49606299212598426,
                    "duration": 0.43478300000001013
                },
                {
                    "name": "A#5",
                    "midi": 82,
                    "time": 199.13061400000203,
                    "velocity": 0.5196850393700787,
                    "duration": 0.43478300000001013
                },
                {
                    "name": "G5",
                    "midi": 79,
                    "time": 199.13061400000203,
                    "velocity": 0.4409448818897638,
                    "duration": 0.8695660000000203
                },
                {
                    "name": "B5",
                    "midi": 83,
                    "time": 199.56539700000204,
                    "velocity": 0.4645669291338583,
                    "duration": 0.43478300000001013
                },
                {
                    "name": "F#5",
                    "midi": 78,
                    "time": 200.00018000000205,
                    "velocity": 0.4251968503937008,
                    "duration": 0.43478300000001013
                },
                {
                    "name": "D6",
                    "midi": 86,
                    "time": 200.00018000000205,
                    "velocity": 0.5039370078740157,
                    "duration": 0.43478300000001013
                },
                {
                    "name": "C6",
                    "midi": 84,
                    "time": 200.43496300000206,
                    "velocity": 0.49606299212598426,
                    "duration": 0.3260872500000005
                },
                {
                    "name": "A5",
                    "midi": 81,
                    "time": 200.43496300000206,
                    "velocity": 0.41732283464566927,
                    "duration": 0.3260872500000005
                },
                {
                    "name": "D5",
                    "midi": 74,
                    "time": 200.65235450000205,
                    "velocity": 0.4094488188976378,
                    "duration": 0.21739150000001928
                },
                {
                    "name": "F#5",
                    "midi": 78,
                    "time": 200.76105025000206,
                    "velocity": 0.3779527559055118,
                    "duration": 0.10869575000000964
                },
                {
                    "name": "A5",
                    "midi": 81,
                    "time": 200.76105025000206,
                    "velocity": 0.44881889763779526,
                    "duration": 0.10869575000000964
                },
                {
                    "name": "G5",
                    "midi": 79,
                    "time": 200.86974600000207,
                    "velocity": 0.3858267716535433,
                    "duration": 0.07336963124998874
                },
                {
                    "name": "D5",
                    "midi": 74,
                    "time": 200.86974600000207,
                    "velocity": 0.3858267716535433,
                    "duration": 0.21739149999999086
                },
                {
                    "name": "B5",
                    "midi": 83,
                    "time": 200.86974600000207,
                    "velocity": 0.4566929133858268,
                    "duration": 0.8695659999999918
                },
                {
                    "name": "A5",
                    "midi": 81,
                    "time": 200.94311563125206,
                    "velocity": 0.33070866141732286,
                    "duration": 0.07246383333333029
                },
                {
                    "name": "G5",
                    "midi": 79,
                    "time": 201.0155794645854,
                    "velocity": 0.3858267716535433,
                    "duration": 0.07336963124998874
                },
                {
                    "name": "A5",
                    "midi": 81,
                    "time": 201.08804329791872,
                    "velocity": 0.3464566929133858,
                    "duration": 0.07336963124998874
                },
                {
                    "name": "G5",
                    "midi": 79,
                    "time": 201.1614129291687,
                    "velocity": 0.3858267716535433,
                    "duration": 0.07246383333333029
                },
                {
                    "name": "A5",
                    "midi": 81,
                    "time": 201.23387676250204,
                    "velocity": 0.3464566929133858,
                    "duration": 0.07336963125001716
                },
                {
                    "name": "G5",
                    "midi": 79,
                    "time": 201.30452900000205,
                    "velocity": 0.3937007874015748,
                    "duration": 0.07336963125001716
                },
                {
                    "name": "A5",
                    "midi": 81,
                    "time": 201.37789863125207,
                    "velocity": 0.3464566929133858,
                    "duration": 0.07246383333333029
                },
                {
                    "name": "G5",
                    "midi": 79,
                    "time": 201.4503624645854,
                    "velocity": 0.3937007874015748,
                    "duration": 0.07336963124998874
                },
                {
                    "name": "A5",
                    "midi": 81,
                    "time": 201.52282629791873,
                    "velocity": 0.36220472440944884,
                    "duration": 0.07336963124998874
                },
                {
                    "name": "G5",
                    "midi": 79,
                    "time": 201.59619592916872,
                    "velocity": 0.4015748031496063,
                    "duration": 0.07246383333333029
                },
                {
                    "name": "A5",
                    "midi": 81,
                    "time": 201.66865976250205,
                    "velocity": 0.3543307086614173,
                    "duration": 0.07336963125001716
                },
                {
                    "name": "C6",
                    "midi": 84,
                    "time": 201.73931200000206,
                    "velocity": 0.5275590551181102,
                    "duration": 0.43478300000001013
                },
                {
                    "name": "G5",
                    "midi": 79,
                    "time": 201.73931200000206,
                    "velocity": 0.4015748031496063,
                    "duration": 0.07336963125001716
                },
                {
                    "name": "A5",
                    "midi": 81,
                    "time": 201.81268163125208,
                    "velocity": 0.3464566929133858,
                    "duration": 0.07246383333333029
                },
                {
                    "name": "G5",
                    "midi": 79,
                    "time": 201.8851454645854,
                    "velocity": 0.4094488188976378,
                    "duration": 0.07336963124998874
                },
                {
                    "name": "A5",
                    "midi": 81,
                    "time": 201.95760929791874,
                    "velocity": 0.3700787401574803,
                    "duration": 0.07336963124998874
                },
                {
                    "name": "G5",
                    "midi": 79,
                    "time": 202.03097892916873,
                    "velocity": 0.4094488188976378,
                    "duration": 0.07246383333333029
                },
                {
                    "name": "A5",
                    "midi": 81,
                    "time": 202.10344276250206,
                    "velocity": 0.3700787401574803,
                    "duration": 0.07336963125001716
                },
                {
                    "name": "G5",
                    "midi": 79,
                    "time": 202.17409500000207,
                    "velocity": 0.41732283464566927,
                    "duration": 0.07336963125001716
                },
                {
                    "name": "E6",
                    "midi": 88,
                    "time": 202.17409500000207,
                    "velocity": 0.5748031496062992,
                    "duration": 0.43478300000001013
                },
                {
                    "name": "A5",
                    "midi": 81,
                    "time": 202.2474646312521,
                    "velocity": 0.3700787401574803,
                    "duration": 0.07246383333333029
                },
                {
                    "name": "G5",
                    "midi": 79,
                    "time": 202.31992846458542,
                    "velocity": 0.4251968503937008,
                    "duration": 0.07336963124998874
                },
                {
                    "name": "A5",
                    "midi": 81,
                    "time": 202.39239229791875,
                    "velocity": 0.3779527559055118,
                    "duration": 0.07336963124998874
                },
                {
                    "name": "G5",
                    "midi": 79,
                    "time": 202.46576192916874,
                    "velocity": 0.4251968503937008,
                    "duration": 0.07246383333333029
                },
                {
                    "name": "A5",
                    "midi": 81,
                    "time": 202.53822576250207,
                    "velocity": 0.3779527559055118,
                    "duration": 0.07336963125001716
                },
                {
                    "name": "G6",
                    "midi": 91,
                    "time": 202.60887800000208,
                    "velocity": 0.5275590551181102,
                    "duration": 0.8695660000000203
                },
                {
                    "name": "G5",
                    "midi": 79,
                    "time": 202.60887800000208,
                    "velocity": 0.4330708661417323,
                    "duration": 0.07336963125001716
                },
                {
                    "name": "A5",
                    "midi": 81,
                    "time": 202.6822476312521,
                    "velocity": 0.3700787401574803,
                    "duration": 0.07246383333333029
                },
                {
                    "name": "G5",
                    "midi": 79,
                    "time": 202.75471146458543,
                    "velocity": 0.4330708661417323,
                    "duration": 0.07336963124998874
                },
                {
                    "name": "A5",
                    "midi": 81,
                    "time": 202.82717529791876,
                    "velocity": 0.3937007874015748,
                    "duration": 0.07336963124998874
                },
                {
                    "name": "G5",
                    "midi": 79,
                    "time": 202.90054492916875,
                    "velocity": 0.4409448818897638,
                    "duration": 0.07246383333333029
                },
                {
                    "name": "A5",
                    "midi": 81,
                    "time": 202.97300876250208,
                    "velocity": 0.4015748031496063,
                    "duration": 0.07336963125001716
                },
                {
                    "name": "G5",
                    "midi": 79,
                    "time": 203.0436610000021,
                    "velocity": 0.4409448818897638,
                    "duration": 0.07336963125001716
                },
                {
                    "name": "A5",
                    "midi": 81,
                    "time": 203.1170306312521,
                    "velocity": 0.3937007874015748,
                    "duration": 0.07246383333333029
                },
                {
                    "name": "G5",
                    "midi": 79,
                    "time": 203.18949446458544,
                    "velocity": 0.44881889763779526,
                    "duration": 0.07336963124998874
                },
                {
                    "name": "A5",
                    "midi": 81,
                    "time": 203.26195829791877,
                    "velocity": 0.4015748031496063,
                    "duration": 0.07336963124998874
                },
                {
                    "name": "G5",
                    "midi": 79,
                    "time": 203.33532792916876,
                    "velocity": 0.44881889763779526,
                    "duration": 0.07246383333333029
                },
                {
                    "name": "A5",
                    "midi": 81,
                    "time": 203.4077917625021,
                    "velocity": 0.4015748031496063,
                    "duration": 0.07336963125001716
                },
                {
                    "name": "E6",
                    "midi": 88,
                    "time": 203.4784440000021,
                    "velocity": 0.5669291338582677,
                    "duration": 0.43478300000001013
                },
                {
                    "name": "G5",
                    "midi": 79,
                    "time": 203.4784440000021,
                    "velocity": 0.4566929133858268,
                    "duration": 0.07336963125001716
                },
                {
                    "name": "A5",
                    "midi": 81,
                    "time": 203.55181363125212,
                    "velocity": 0.3937007874015748,
                    "duration": 0.07246383333333029
                },
                {
                    "name": "G5",
                    "midi": 79,
                    "time": 203.62427746458545,
                    "velocity": 0.4645669291338583,
                    "duration": 0.07336963124998874
                },
                {
                    "name": "A5",
                    "midi": 81,
                    "time": 203.69674129791878,
                    "velocity": 0.41732283464566927,
                    "duration": 0.07336963124998874
                },
                {
                    "name": "G5",
                    "midi": 79,
                    "time": 203.77011092916877,
                    "velocity": 0.4645669291338583,
                    "duration": 0.07246383333333029
                },
                {
                    "name": "A5",
                    "midi": 81,
                    "time": 203.8425747625021,
                    "velocity": 0.41732283464566927,
                    "duration": 0.07336963125001716
                },
                {
                    "name": "G5",
                    "midi": 79,
                    "time": 203.9132270000021,
                    "velocity": 0.47244094488188976,
                    "duration": 0.07336963125001716
                },
                {
                    "name": "C6",
                    "midi": 84,
                    "time": 203.9132270000021,
                    "velocity": 0.6062992125984252,
                    "duration": 0.43478300000001013
                },
                {
                    "name": "A5",
                    "midi": 81,
                    "time": 203.98659663125213,
                    "velocity": 0.4094488188976378,
                    "duration": 0.07246383333333029
                },
                {
                    "name": "G5",
                    "midi": 79,
                    "time": 204.05906046458546,
                    "velocity": 0.47244094488188976,
                    "duration": 0.07336963124998874
                },
                {
                    "name": "A5",
                    "midi": 81,
                    "time": 204.1315242979188,
                    "velocity": 0.4330708661417323,
                    "duration": 0.07336963124998874
                },
                {
                    "name": "G5",
                    "midi": 79,
                    "time": 204.20489392916878,
                    "velocity": 0.48031496062992124,
                    "duration": 0.07246383333333029
                },
                {
                    "name": "A5",
                    "midi": 81,
                    "time": 204.2773577625021,
                    "velocity": 0.4251968503937008,
                    "duration": 0.07336963125001716
                },
                {
                    "name": "A#5",
                    "midi": 82,
                    "time": 204.34801000000212,
                    "velocity": 0.6535433070866141,
                    "duration": 0.21739150000001928
                },
                {
                    "name": "G5",
                    "midi": 79,
                    "time": 204.34801000000212,
                    "velocity": 0.48031496062992124,
                    "duration": 0.07336963125001716
                },
                {
                    "name": "A5",
                    "midi": 81,
                    "time": 204.42137963125214,
                    "velocity": 0.41732283464566927,
                    "duration": 0.07246383333333029
                },
                {
                    "name": "G5",
                    "midi": 79,
                    "time": 204.49384346458547,
                    "velocity": 0.4881889763779528,
                    "duration": 0.07336963124998874
                },
                {
                    "name": "B5",
                    "midi": 83,
                    "time": 204.56540150000214,
                    "velocity": 0.5905511811023622,
                    "duration": 0.43478300000001013
                },
                {
                    "name": "A5",
                    "midi": 81,
                    "time": 204.5663072979188,
                    "velocity": 0.4409448818897638,
                    "duration": 0.07336963124998874
                },
                {
                    "name": "G5",
                    "midi": 79,
                    "time": 204.6396769291688,
                    "velocity": 0.4881889763779528,
                    "duration": 0.07246383333333029
                },
                {
                    "name": "A5",
                    "midi": 81,
                    "time": 204.71214076250212,
                    "velocity": 0.4409448818897638,
                    "duration": 0.07336963125001716
                },
                {
                    "name": "G5",
                    "midi": 79,
                    "time": 204.78279300000213,
                    "velocity": 0.49606299212598426,
                    "duration": 0.07336963125001716
                },
                {
                    "name": "A5",
                    "midi": 81,
                    "time": 204.85616263125215,
                    "velocity": 0.4330708661417323,
                    "duration": 0.07246383333333029
                },
                {
                    "name": "G5",
                    "midi": 79,
                    "time": 204.92862646458548,
                    "velocity": 0.5039370078740157,
                    "duration": 0.07336963124998874
                },
                {
                    "name": "D6",
                    "midi": 86,
                    "time": 205.00018450000215,
                    "velocity": 0.6771653543307087,
                    "duration": 0.21739149999999086
                },
                {
                    "name": "A5",
                    "midi": 81,
                    "time": 205.0010902979188,
                    "velocity": 0.44881889763779526,
                    "duration": 0.07336963124998874
                },
                {
                    "name": "G5",
                    "midi": 79,
                    "time": 205.0744599291688,
                    "velocity": 0.5039370078740157,
                    "duration": 0.07246383333333029
                },
                {
                    "name": "A5",
                    "midi": 81,
                    "time": 205.14692376250213,
                    "velocity": 0.4409448818897638,
                    "duration": 0.07336963125001716
                },
                {
                    "name": "D6",
                    "midi": 86,
                    "time": 205.21757600000214,
                    "velocity": 0.5905511811023622,
                    "duration": 0.07336963125001716
                },
                {
                    "name": "E6",
                    "midi": 88,
                    "time": 205.29094563125216,
                    "velocity": 0.5196850393700787,
                    "duration": 0.07246383333333029
                },
                {
                    "name": "D6",
                    "midi": 86,
                    "time": 205.3634094645855,
                    "velocity": 0.5905511811023622,
                    "duration": 0.07336963124998874
                },
                {
                    "name": "D5",
                    "midi": 74,
                    "time": 205.43496750000216,
                    "velocity": 0.47244094488188976,
                    "duration": 0.21739149999999086
                },
                {
                    "name": "E6",
                    "midi": 88,
                    "time": 205.43587329791882,
                    "velocity": 0.5039370078740157,
                    "duration": 0.07336963124998874
                },
                {
                    "name": "D6",
                    "midi": 86,
                    "time": 205.5092429291688,
                    "velocity": 0.5905511811023622,
                    "duration": 0.07246383333333029
                },
                {
                    "name": "E6",
                    "midi": 88,
                    "time": 205.58170676250214,
                    "velocity": 0.5354330708661418,
                    "duration": 0.07336963125001716
                },
                {
                    "name": "D6",
                    "midi": 86,
                    "time": 205.65235900000215,
                    "velocity": 0.6141732283464567,
                    "duration": 0.07336963125001716
                },
                {
                    "name": "E6",
                    "midi": 88,
                    "time": 205.72572863125217,
                    "velocity": 0.5433070866141733,
                    "duration": 0.07246383333333029
                },
                {
                    "name": "D6",
                    "midi": 86,
                    "time": 205.7981924645855,
                    "velocity": 0.5905511811023622,
                    "duration": 0.07336963125001716
                },
                {
                    "name": "C#6",
                    "midi": 85,
                    "time": 205.86975050000217,
                    "velocity": 0.5905511811023622,
                    "duration": 0.10869575000000964
                },
                {
                    "name": "D6",
                    "midi": 86,
                    "time": 205.97844625000218,
                    "velocity": 0.6220472440944882,
                    "duration": 0.10869575000000964
                },
                {
                    "name": "D6",
                    "midi": 86,
                    "time": 206.0871420000022,
                    "velocity": 0.5748031496062992,
                    "duration": 0.10869575000000964
                },
                {
                    "name": "B6",
                    "midi": 95,
                    "time": 206.0871420000022,
                    "velocity": 0.5748031496062992,
                    "duration": 0.10869575000000964
                },
                {
                    "name": "D7",
                    "midi": 98,
                    "time": 206.0871420000022,
                    "velocity": 0.6771653543307087,
                    "duration": 0.10869575000000964
                },
                {
                    "name": "F6",
                    "midi": 89,
                    "time": 206.0871420000022,
                    "velocity": 0.5748031496062992,
                    "duration": 0.10869575000000964
                },
                {
                    "name": "F6",
                    "midi": 89,
                    "time": 206.3045335000022,
                    "velocity": 0.5196850393700787,
                    "duration": 0.43478300000001013
                },
                {
                    "name": "B6",
                    "midi": 95,
                    "time": 206.3045335000022,
                    "velocity": 0.5196850393700787,
                    "duration": 0.43478300000001013
                },
                {
                    "name": "D6",
                    "midi": 86,
                    "time": 206.3045335000022,
                    "velocity": 0.5196850393700787,
                    "duration": 0.43478300000001013
                },
                {
                    "name": "D7",
                    "midi": 98,
                    "time": 206.3045335000022,
                    "velocity": 0.6141732283464567,
                    "duration": 0.43478300000001013
                },
                {
                    "name": "D6",
                    "midi": 86,
                    "time": 206.73931650000222,
                    "velocity": 0.5196850393700787,
                    "duration": 0.10869575000000964
                },
                {
                    "name": "C6",
                    "midi": 84,
                    "time": 206.73931650000222,
                    "velocity": 0.5196850393700787,
                    "duration": 0.10869575000000964
                },
                {
                    "name": "C7",
                    "midi": 96,
                    "time": 206.73931650000222,
                    "velocity": 0.6141732283464567,
                    "duration": 0.10869575000000964
                },
                {
                    "name": "F6",
                    "midi": 89,
                    "time": 206.73931650000222,
                    "velocity": 0.5196850393700787,
                    "duration": 0.10869575000000964
                },
                {
                    "name": "D6",
                    "midi": 86,
                    "time": 206.95670800000224,
                    "velocity": 0.5275590551181102,
                    "duration": 0.10869575000000964
                },
                {
                    "name": "B6",
                    "midi": 95,
                    "time": 206.95670800000224,
                    "velocity": 0.6220472440944882,
                    "duration": 0.10869575000000964
                },
                {
                    "name": "B5",
                    "midi": 83,
                    "time": 206.95670800000224,
                    "velocity": 0.5275590551181102,
                    "duration": 0.10869575000000964
                },
                {
                    "name": "F6",
                    "midi": 89,
                    "time": 206.95670800000224,
                    "velocity": 0.5275590551181102,
                    "duration": 0.10869575000000964
                },
                {
                    "name": "C7",
                    "midi": 96,
                    "time": 207.17409950000226,
                    "velocity": 0.6535433070866141,
                    "duration": 0.10869575000000964
                },
                {
                    "name": "F6",
                    "midi": 89,
                    "time": 207.17409950000226,
                    "velocity": 0.5511811023622047,
                    "duration": 0.10869575000000964
                },
                {
                    "name": "C6",
                    "midi": 84,
                    "time": 207.17409950000226,
                    "velocity": 0.5511811023622047,
                    "duration": 0.10869575000000964
                },
                {
                    "name": "D6",
                    "midi": 86,
                    "time": 207.17409950000226,
                    "velocity": 0.5511811023622047,
                    "duration": 0.10869575000000964
                },
                {
                    "name": "F6",
                    "midi": 89,
                    "time": 207.39149100000228,
                    "velocity": 0.5433070866141733,
                    "duration": 0.10869575000000964
                },
                {
                    "name": "D6",
                    "midi": 86,
                    "time": 207.39149100000228,
                    "velocity": 0.5433070866141733,
                    "duration": 0.10869575000000964
                },
                {
                    "name": "D7",
                    "midi": 98,
                    "time": 207.39149100000228,
                    "velocity": 0.6456692913385826,
                    "duration": 0.10869575000000964
                },
                {
                    "name": "E6",
                    "midi": 88,
                    "time": 207.6088825000023,
                    "velocity": 0.4566929133858268,
                    "duration": 0.10869575000000964
                },
                {
                    "name": "B6",
                    "midi": 95,
                    "time": 207.6088825000023,
                    "velocity": 0.5433070866141733,
                    "duration": 0.10869575000000964
                },
                {
                    "name": "B5",
                    "midi": 83,
                    "time": 207.6088825000023,
                    "velocity": 0.4566929133858268,
                    "duration": 0.10869575000000964
                },
                {
                    "name": "D6",
                    "midi": 86,
                    "time": 207.6088825000023,
                    "velocity": 0.4566929133858268,
                    "duration": 0.10869575000000964
                },
                {
                    "name": "C6",
                    "midi": 84,
                    "time": 207.82627400000231,
                    "velocity": 0.3937007874015748,
                    "duration": 0.10869575000000964
                },
                {
                    "name": "E6",
                    "midi": 88,
                    "time": 207.82627400000231,
                    "velocity": 0.3937007874015748,
                    "duration": 0.10869575000000964
                },
                {
                    "name": "C7",
                    "midi": 96,
                    "time": 207.82627400000231,
                    "velocity": 0.4645669291338583,
                    "duration": 0.10869575000000964
                },
                {
                    "name": "E6",
                    "midi": 88,
                    "time": 208.04366550000233,
                    "velocity": 0.3543307086614173,
                    "duration": 0.10869575000000964
                },
                {
                    "name": "D6",
                    "midi": 86,
                    "time": 208.04366550000233,
                    "velocity": 0.3543307086614173,
                    "duration": 0.10869575000000964
                },
                {
                    "name": "B5",
                    "midi": 83,
                    "time": 208.04366550000233,
                    "velocity": 0.3543307086614173,
                    "duration": 0.10869575000000964
                },
                {
                    "name": "B6",
                    "midi": 95,
                    "time": 208.04366550000233,
                    "velocity": 0.41732283464566927,
                    "duration": 0.10869575000000964
                },
                {
                    "name": "C6",
                    "midi": 84,
                    "time": 208.26105700000235,
                    "velocity": 0.3937007874015748,
                    "duration": 0.10869575000000964
                },
                {
                    "name": "E6",
                    "midi": 88,
                    "time": 208.26105700000235,
                    "velocity": 0.3937007874015748,
                    "duration": 0.10869575000000964
                },
                {
                    "name": "C7",
                    "midi": 96,
                    "time": 208.26105700000235,
                    "velocity": 0.4645669291338583,
                    "duration": 0.10869575000000964
                },
                {
                    "name": "C6",
                    "midi": 84,
                    "time": 208.47844850000237,
                    "velocity": 0.3543307086614173,
                    "duration": 0.10869575000000964
                },
                {
                    "name": "A5",
                    "midi": 81,
                    "time": 208.47844850000237,
                    "velocity": 0.3543307086614173,
                    "duration": 0.10869575000000964
                },
                {
                    "name": "A6",
                    "midi": 93,
                    "time": 208.47844850000237,
                    "velocity": 0.41732283464566927,
                    "duration": 0.10869575000000964
                },
                {
                    "name": "E6",
                    "midi": 88,
                    "time": 208.47844850000237,
                    "velocity": 0.3543307086614173,
                    "duration": 0.10869575000000964
                },
                {
                    "name": "G6",
                    "midi": 91,
                    "time": 208.6958400000024,
                    "velocity": 0.4645669291338583,
                    "duration": 0.10869575000000964
                },
                {
                    "name": "E6",
                    "midi": 88,
                    "time": 208.6958400000024,
                    "velocity": 0.3937007874015748,
                    "duration": 0.10869575000000964
                },
                {
                    "name": "A5",
                    "midi": 81,
                    "time": 208.6958400000024,
                    "velocity": 0.3937007874015748,
                    "duration": 0.10869575000000964
                },
                {
                    "name": "C#6",
                    "midi": 85,
                    "time": 208.9132315000024,
                    "velocity": 0.3543307086614173,
                    "duration": 0.10869575000000964
                },
                {
                    "name": "G6",
                    "midi": 91,
                    "time": 208.9132315000024,
                    "velocity": 0.41732283464566927,
                    "duration": 0.10869575000000964
                },
                {
                    "name": "A5",
                    "midi": 81,
                    "time": 208.9132315000024,
                    "velocity": 0.3543307086614173,
                    "duration": 0.10869575000000964
                },
                {
                    "name": "A5",
                    "midi": 81,
                    "time": 209.13062300000243,
                    "velocity": 0.3937007874015748,
                    "duration": 0.10869575000000964
                },
                {
                    "name": "C6",
                    "midi": 84,
                    "time": 209.13062300000243,
                    "velocity": 0.3937007874015748,
                    "duration": 0.10869575000000964
                },
                {
                    "name": "F#6",
                    "midi": 90,
                    "time": 209.13062300000243,
                    "velocity": 0.4645669291338583,
                    "duration": 0.10869575000000964
                },
                {
                    "name": "A5",
                    "midi": 81,
                    "time": 209.34801450000245,
                    "velocity": 0.3543307086614173,
                    "duration": 0.10869575000000964
                },
                {
                    "name": "A6",
                    "midi": 93,
                    "time": 209.34801450000245,
                    "velocity": 0.41732283464566927,
                    "duration": 0.10869575000000964
                },
                {
                    "name": "C6",
                    "midi": 84,
                    "time": 209.34801450000245,
                    "velocity": 0.3543307086614173,
                    "duration": 0.10869575000000964
                },
                {
                    "name": "G5",
                    "midi": 79,
                    "time": 209.56540600000247,
                    "velocity": 0.4330708661417323,
                    "duration": 0.10869575000000964
                },
                {
                    "name": "B5",
                    "midi": 83,
                    "time": 209.56540600000247,
                    "velocity": 0.4330708661417323,
                    "duration": 0.10869575000000964
                },
                {
                    "name": "G6",
                    "midi": 91,
                    "time": 209.56540600000247,
                    "velocity": 0.5039370078740157,
                    "duration": 0.10869575000000964
                },
                {
                    "name": "D6",
                    "midi": 86,
                    "time": 209.7827975000025,
                    "velocity": 0.4645669291338583,
                    "duration": 0.10869575000000964
                },
                {
                    "name": "D5",
                    "midi": 74,
                    "time": 209.7827975000025,
                    "velocity": 0.3937007874015748,
                    "duration": 0.10869575000000964
                },
                {
                    "name": "B5",
                    "midi": 83,
                    "time": 209.7827975000025,
                    "velocity": 0.3937007874015748,
                    "duration": 0.10869575000000964
                },
                {
                    "name": "F#6",
                    "midi": 90,
                    "time": 210.0001890000025,
                    "velocity": 0.5433070866141733,
                    "duration": 0.10869575000000964
                },
                {
                    "name": "C6",
                    "midi": 84,
                    "time": 210.0001890000025,
                    "velocity": 0.4566929133858268,
                    "duration": 0.10869575000000964
                },
                {
                    "name": "F#5",
                    "midi": 78,
                    "time": 210.0001890000025,
                    "velocity": 0.4566929133858268,
                    "duration": 0.10869575000000964
                },
                {
                    "name": "C6",
                    "midi": 84,
                    "time": 210.21758050000253,
                    "velocity": 0.4330708661417323,
                    "duration": 0.10869575000000964
                },
                {
                    "name": "A6",
                    "midi": 93,
                    "time": 210.21758050000253,
                    "velocity": 0.5118110236220472,
                    "duration": 0.10869575000000964
                },
                {
                    "name": "F#6",
                    "midi": 90,
                    "time": 210.21758050000253,
                    "velocity": 0.4330708661417323,
                    "duration": 0.10869575000000964
                },
                {
                    "name": "A5",
                    "midi": 81,
                    "time": 210.21758050000253,
                    "velocity": 0.4330708661417323,
                    "duration": 0.10869575000000964
                },
                {
                    "name": "G5",
                    "midi": 79,
                    "time": 210.43497200000255,
                    "velocity": 0.49606299212598426,
                    "duration": 0.10869575000000964
                },
                {
                    "name": "G6",
                    "midi": 91,
                    "time": 210.43497200000255,
                    "velocity": 0.5905511811023622,
                    "duration": 0.10869575000000964
                },
                {
                    "name": "B5",
                    "midi": 83,
                    "time": 210.43497200000255,
                    "velocity": 0.49606299212598426,
                    "duration": 0.10869575000000964
                },
                {
                    "name": "D5",
                    "midi": 74,
                    "time": 210.65236350000256,
                    "velocity": 0.4645669291338583,
                    "duration": 0.10869575000000964
                },
                {
                    "name": "B5",
                    "midi": 83,
                    "time": 210.65236350000256,
                    "velocity": 0.4645669291338583,
                    "duration": 0.10869575000000964
                },
                {
                    "name": "D6",
                    "midi": 86,
                    "time": 210.65236350000256,
                    "velocity": 0.5433070866141733,
                    "duration": 0.10869575000000964
                },
                {
                    "name": "C6",
                    "midi": 84,
                    "time": 210.86975500000258,
                    "velocity": 0.5433070866141733,
                    "duration": 0.10869575000000964
                },
                {
                    "name": "F#5",
                    "midi": 78,
                    "time": 210.86975500000258,
                    "velocity": 0.5433070866141733,
                    "duration": 0.10869575000000964
                },
                {
                    "name": "F#6",
                    "midi": 90,
                    "time": 210.86975500000258,
                    "velocity": 0.6299212598425197,
                    "duration": 0.10869575000000964
                },
                {
                    "name": "F#6",
                    "midi": 90,
                    "time": 211.0871465000026,
                    "velocity": 0.5039370078740157,
                    "duration": 0.10869575000000964
                },
                {
                    "name": "A6",
                    "midi": 93,
                    "time": 211.0871465000026,
                    "velocity": 0.5984251968503937,
                    "duration": 0.10869575000000964
                },
                {
                    "name": "C6",
                    "midi": 84,
                    "time": 211.0871465000026,
                    "velocity": 0.5039370078740157,
                    "duration": 0.10869575000000964
                },
                {
                    "name": "A5",
                    "midi": 81,
                    "time": 211.0871465000026,
                    "velocity": 0.5039370078740157,
                    "duration": 0.10869575000000964
                },
                {
                    "name": "G5",
                    "midi": 79,
                    "time": 211.30453800000262,
                    "velocity": 0.6062992125984252,
                    "duration": 0.10869575000000964
                },
                {
                    "name": "G6",
                    "midi": 91,
                    "time": 211.41323375000263,
                    "velocity": 0.5511811023622047,
                    "duration": 0.10869575000000964
                },
                {
                    "name": "D5",
                    "midi": 74,
                    "time": 211.52192950000264,
                    "velocity": 0.6220472440944882,
                    "duration": 0.10869575000000964
                },
                {
                    "name": "D6",
                    "midi": 86,
                    "time": 211.63062525000265,
                    "velocity": 0.5748031496062992,
                    "duration": 0.10869575000000964
                },
                {
                    "name": "F#5",
                    "midi": 78,
                    "time": 211.73932100000266,
                    "velocity": 0.6456692913385826,
                    "duration": 0.10869575000000964
                },
                {
                    "name": "F#6",
                    "midi": 90,
                    "time": 211.84801675000267,
                    "velocity": 0.5984251968503937,
                    "duration": 0.10869575000000964
                },
                {
                    "name": "A5",
                    "midi": 81,
                    "time": 211.95671250000268,
                    "velocity": 0.6692913385826772,
                    "duration": 0.10869575000000964
                },
                {
                    "name": "A6",
                    "midi": 93,
                    "time": 212.0654082500027,
                    "velocity": 0.6220472440944882,
                    "duration": 0.10869575000000964
                },
                {
                    "name": "G5",
                    "midi": 79,
                    "time": 212.1741040000027,
                    "velocity": 0.6929133858267716,
                    "duration": 0.10869575000000964
                },
                {
                    "name": "G6",
                    "midi": 91,
                    "time": 212.2827997500027,
                    "velocity": 0.6456692913385826,
                    "duration": 0.10869575000000964
                },
                {
                    "name": "D5",
                    "midi": 74,
                    "time": 212.39149550000272,
                    "velocity": 0.7165354330708661,
                    "duration": 0.10869575000000964
                },
                {
                    "name": "D6",
                    "midi": 86,
                    "time": 212.50019125000273,
                    "velocity": 0.6771653543307087,
                    "duration": 0.10869575000000964
                },
                {
                    "name": "F#5",
                    "midi": 78,
                    "time": 212.60888700000274,
                    "velocity": 0.7401574803149606,
                    "duration": 0.10869575000000964
                },
                {
                    "name": "F#6",
                    "midi": 90,
                    "time": 212.71758275000275,
                    "velocity": 0.7086614173228346,
                    "duration": 0.10869575000000964
                },
                {
                    "name": "A5",
                    "midi": 81,
                    "time": 212.82627850000276,
                    "velocity": 0.7795275590551181,
                    "duration": 0.10869575000000964
                },
                {
                    "name": "A6",
                    "midi": 93,
                    "time": 212.93497425000277,
                    "velocity": 0.7244094488188977,
                    "duration": 0.10869575000000964
                },
                {
                    "name": "G5",
                    "midi": 79,
                    "time": 213.04367000000278,
                    "velocity": 0.7165354330708661,
                    "duration": 0.16304362500000025
                },
                {
                    "name": "G6",
                    "midi": 91,
                    "time": 213.04367000000278,
                    "velocity": 0.8661417322834646,
                    "duration": 0.16304362500000025
                },
                {
                    "name": "A5",
                    "midi": 81,
                    "time": 213.4784530000028,
                    "velocity": 0.7401574803149606,
                    "duration": 0.16304362500000025
                },
                {
                    "name": "A6",
                    "midi": 93,
                    "time": 213.4784530000028,
                    "velocity": 0.8818897637795275,
                    "duration": 0.16304362500000025
                },
                {
                    "name": "B5",
                    "midi": 83,
                    "time": 213.9132360000028,
                    "velocity": 0.7795275590551181,
                    "duration": 0.8695659999999918
                },
                {
                    "name": "B6",
                    "midi": 95,
                    "time": 213.9132360000028,
                    "velocity": 0.9291338582677166,
                    "duration": 0.8695659999999918
                },
                {
                    "name": "B5",
                    "midi": 83,
                    "time": 214.7828020000028,
                    "velocity": 0.7165354330708661,
                    "duration": 0.16304362500000025
                },
                {
                    "name": "B6",
                    "midi": 95,
                    "time": 214.7828020000028,
                    "velocity": 0.8661417322834646,
                    "duration": 0.16304362500000025
                },
                {
                    "name": "C6",
                    "midi": 84,
                    "time": 215.2175850000028,
                    "velocity": 0.7401574803149606,
                    "duration": 0.16304362500000025
                },
                {
                    "name": "C7",
                    "midi": 96,
                    "time": 215.2175850000028,
                    "velocity": 0.8818897637795275,
                    "duration": 0.16304362500000025
                },
                {
                    "name": "D6",
                    "midi": 86,
                    "time": 215.6523680000028,
                    "velocity": 0.7795275590551181,
                    "duration": 0.8695659999999918
                },
                {
                    "name": "D7",
                    "midi": 98,
                    "time": 215.6523680000028,
                    "velocity": 0.9291338582677166,
                    "duration": 0.8695659999999918
                },
                {
                    "name": "D5",
                    "midi": 74,
                    "time": 216.5219340000028,
                    "velocity": 0.33858267716535434,
                    "duration": 0.05434787499999061
                },
                {
                    "name": "G5",
                    "midi": 79,
                    "time": 216.5219340000028,
                    "velocity": 0.33858267716535434,
                    "duration": 0.05434787499999061
                },
                {
                    "name": "D6",
                    "midi": 86,
                    "time": 216.5219340000028,
                    "velocity": 0.4015748031496063,
                    "duration": 0.05434787499999061
                },
                {
                    "name": "D6",
                    "midi": 86,
                    "time": 216.7393255000028,
                    "velocity": 0.36220472440944884,
                    "duration": 0.43478300000001013
                },
                {
                    "name": "G5",
                    "midi": 79,
                    "time": 216.7393255000028,
                    "velocity": 0.30708661417322836,
                    "duration": 0.43478300000001013
                },
                {
                    "name": "D5",
                    "midi": 74,
                    "time": 216.7393255000028,
                    "velocity": 0.30708661417322836,
                    "duration": 0.43478300000001013
                },
                {
                    "name": "G5",
                    "midi": 79,
                    "time": 217.1741085000028,
                    "velocity": 0.30708661417322836,
                    "duration": 0.10869575000000964
                },
                {
                    "name": "D#5",
                    "midi": 75,
                    "time": 217.1741085000028,
                    "velocity": 0.30708661417322836,
                    "duration": 0.10869575000000964
                },
                {
                    "name": "C6",
                    "midi": 84,
                    "time": 217.1741085000028,
                    "velocity": 0.36220472440944884,
                    "duration": 0.10869575000000964
                },
                {
                    "name": "B5",
                    "midi": 83,
                    "time": 217.39150000000282,
                    "velocity": 0.3700787401574803,
                    "duration": 0.10869575000000964
                },
                {
                    "name": "F5",
                    "midi": 77,
                    "time": 217.39150000000282,
                    "velocity": 0.31496062992125984,
                    "duration": 0.10869575000000964
                },
                {
                    "name": "G5",
                    "midi": 79,
                    "time": 217.39150000000282,
                    "velocity": 0.31496062992125984,
                    "duration": 0.10869575000000964
                },
                {
                    "name": "C6",
                    "midi": 84,
                    "time": 217.60889150000284,
                    "velocity": 0.3858267716535433,
                    "duration": 0.10869575000000964
                },
                {
                    "name": "G5",
                    "midi": 79,
                    "time": 217.60889150000284,
                    "velocity": 0.33070866141732286,
                    "duration": 0.10869575000000964
                },
                {
                    "name": "D#5",
                    "midi": 75,
                    "time": 217.60889150000284,
                    "velocity": 0.33070866141732286,
                    "duration": 0.10869575000000964
                },
                {
                    "name": "D5",
                    "midi": 74,
                    "time": 217.82628300000286,
                    "velocity": 0.3228346456692913,
                    "duration": 0.10869575000000964
                },
                {
                    "name": "D6",
                    "midi": 86,
                    "time": 217.82628300000286,
                    "velocity": 0.3858267716535433,
                    "duration": 0.10869575000000964
                },
                {
                    "name": "G5",
                    "midi": 79,
                    "time": 217.82628300000286,
                    "velocity": 0.3228346456692913,
                    "duration": 0.10869575000000964
                },
                {
                    "name": "G5",
                    "midi": 79,
                    "time": 218.04367450000288,
                    "velocity": 0.2677165354330709,
                    "duration": 0.10869575000000964
                },
                {
                    "name": "F5",
                    "midi": 77,
                    "time": 218.04367450000288,
                    "velocity": 0.2677165354330709,
                    "duration": 0.10869575000000964
                },
                {
                    "name": "B5",
                    "midi": 83,
                    "time": 218.04367450000288,
                    "velocity": 0.3228346456692913,
                    "duration": 0.10869575000000964
                },
                {
                    "name": "G5",
                    "midi": 79,
                    "time": 218.2610660000029,
                    "velocity": 0.33858267716535434,
                    "duration": 0.05434787499999061
                },
                {
                    "name": "D#5",
                    "midi": 75,
                    "time": 218.2610660000029,
                    "velocity": 0.33858267716535434,
                    "duration": 0.05434787499999061
                },
                {
                    "name": "D#6",
                    "midi": 87,
                    "time": 218.2610660000029,
                    "velocity": 0.4015748031496063,
                    "duration": 0.05434787499999061
                },
                {
                    "name": "G5",
                    "midi": 79,
                    "time": 218.4784575000029,
                    "velocity": 0.30708661417322836,
                    "duration": 0.43478300000001013
                },
                {
                    "name": "D#5",
                    "midi": 75,
                    "time": 218.4784575000029,
                    "velocity": 0.30708661417322836,
                    "duration": 0.43478300000001013
                },
                {
                    "name": "D#6",
                    "midi": 87,
                    "time": 218.4784575000029,
                    "velocity": 0.36220472440944884,
                    "duration": 0.43478300000001013
                },
                {
                    "name": "F5",
                    "midi": 77,
                    "time": 218.9132405000029,
                    "velocity": 0.30708661417322836,
                    "duration": 0.10869575000000964
                },
                {
                    "name": "G5",
                    "midi": 79,
                    "time": 218.9132405000029,
                    "velocity": 0.30708661417322836,
                    "duration": 0.10869575000000964
                },
                {
                    "name": "D6",
                    "midi": 86,
                    "time": 218.9132405000029,
                    "velocity": 0.36220472440944884,
                    "duration": 0.10869575000000964
                },
                {
                    "name": "D5",
                    "midi": 74,
                    "time": 218.9132405000029,
                    "velocity": 0.30708661417322836,
                    "duration": 0.10869575000000964
                },
                {
                    "name": "D#5",
                    "midi": 75,
                    "time": 219.13063200000292,
                    "velocity": 0.31496062992125984,
                    "duration": 0.10869575000000964
                },
                {
                    "name": "G5",
                    "midi": 79,
                    "time": 219.13063200000292,
                    "velocity": 0.31496062992125984,
                    "duration": 0.10869575000000964
                },
                {
                    "name": "C6",
                    "midi": 84,
                    "time": 219.13063200000292,
                    "velocity": 0.3700787401574803,
                    "duration": 0.10869575000000964
                },
                {
                    "name": "F5",
                    "midi": 77,
                    "time": 219.34802350000294,
                    "velocity": 0.33070866141732286,
                    "duration": 0.10869575000000964
                },
                {
                    "name": "D5",
                    "midi": 74,
                    "time": 219.34802350000294,
                    "velocity": 0.33070866141732286,
                    "duration": 0.10869575000000964
                },
                {
                    "name": "G5",
                    "midi": 79,
                    "time": 219.34802350000294,
                    "velocity": 0.33070866141732286,
                    "duration": 0.10869575000000964
                },
                {
                    "name": "D6",
                    "midi": 86,
                    "time": 219.34802350000294,
                    "velocity": 0.3858267716535433,
                    "duration": 0.10869575000000964
                },
                {
                    "name": "D#6",
                    "midi": 87,
                    "time": 219.56541500000296,
                    "velocity": 0.3858267716535433,
                    "duration": 0.10869575000000964
                },
                {
                    "name": "D#5",
                    "midi": 75,
                    "time": 219.56541500000296,
                    "velocity": 0.3228346456692913,
                    "duration": 0.10869575000000964
                },
                {
                    "name": "G5",
                    "midi": 79,
                    "time": 219.56541500000296,
                    "velocity": 0.3228346456692913,
                    "duration": 0.10869575000000964
                },
                {
                    "name": "C6",
                    "midi": 84,
                    "time": 219.78280650000298,
                    "velocity": 0.3228346456692913,
                    "duration": 0.10869575000000964
                },
                {
                    "name": "G5",
                    "midi": 79,
                    "time": 219.78280650000298,
                    "velocity": 0.2677165354330709,
                    "duration": 0.10869575000000964
                },
                {
                    "name": "D#5",
                    "midi": 75,
                    "time": 219.78280650000298,
                    "velocity": 0.2677165354330709,
                    "duration": 0.10869575000000964
                },
                {
                    "name": "G#5",
                    "midi": 80,
                    "time": 220.000198000003,
                    "velocity": 0.3700787401574803,
                    "duration": 0.05434787499999061
                },
                {
                    "name": "F6",
                    "midi": 89,
                    "time": 220.000198000003,
                    "velocity": 0.4409448818897638,
                    "duration": 0.05434787499999061
                },
                {
                    "name": "F5",
                    "midi": 77,
                    "time": 220.000198000003,
                    "velocity": 0.3700787401574803,
                    "duration": 0.05434787499999061
                },
                {
                    "name": "G#5",
                    "midi": 80,
                    "time": 220.217589500003,
                    "velocity": 0.3464566929133858,
                    "duration": 0.43478300000001013
                },
                {
                    "name": "F5",
                    "midi": 77,
                    "time": 220.217589500003,
                    "velocity": 0.3464566929133858,
                    "duration": 0.43478300000001013
                },
                {
                    "name": "F6",
                    "midi": 89,
                    "time": 220.217589500003,
                    "velocity": 0.4094488188976378,
                    "duration": 0.43478300000001013
                },
                {
                    "name": "G5",
                    "midi": 79,
                    "time": 220.652372500003,
                    "velocity": 0.3779527559055118,
                    "duration": 0.10869575000000964
                },
                {
                    "name": "D#5",
                    "midi": 75,
                    "time": 220.652372500003,
                    "velocity": 0.3779527559055118,
                    "duration": 0.10869575000000964
                },
                {
                    "name": "D#6",
                    "midi": 87,
                    "time": 220.652372500003,
                    "velocity": 0.44881889763779526,
                    "duration": 0.10869575000000964
                },
                {
                    "name": "D6",
                    "midi": 86,
                    "time": 220.86976400000302,
                    "velocity": 0.48031496062992124,
                    "duration": 0.10869575000000964
                },
                {
                    "name": "F5",
                    "midi": 77,
                    "time": 220.86976400000302,
                    "velocity": 0.4094488188976378,
                    "duration": 0.10869575000000964
                },
                {
                    "name": "D5",
                    "midi": 74,
                    "time": 220.86976400000302,
                    "velocity": 0.4094488188976378,
                    "duration": 0.10869575000000964
                },
                {
                    "name": "D#6",
                    "midi": 87,
                    "time": 221.08715550000304,
                    "velocity": 0.5196850393700787,
                    "duration": 0.10869575000000964
                },
                {
                    "name": "G5",
                    "midi": 79,
                    "time": 221.08715550000304,
                    "velocity": 0.4409448818897638,
                    "duration": 0.10869575000000964
                },
                {
                    "name": "D#5",
                    "midi": 75,
                    "time": 221.08715550000304,
                    "velocity": 0.4409448818897638,
                    "duration": 0.10869575000000964
                },
                {
                    "name": "G#5",
                    "midi": 80,
                    "time": 221.30454700000305,
                    "velocity": 0.44881889763779526,
                    "duration": 0.10869575000000964
                },
                {
                    "name": "F5",
                    "midi": 77,
                    "time": 221.30454700000305,
                    "velocity": 0.44881889763779526,
                    "duration": 0.10869575000000964
                },
                {
                    "name": "F6",
                    "midi": 89,
                    "time": 221.30454700000305,
                    "velocity": 0.5354330708661418,
                    "duration": 0.10869575000000964
                },
                {
                    "name": "D6",
                    "midi": 86,
                    "time": 221.52193850000307,
                    "velocity": 0.5275590551181102,
                    "duration": 0.10869575000000964
                },
                {
                    "name": "A#5",
                    "midi": 82,
                    "time": 221.52193850000307,
                    "velocity": 0.4409448818897638,
                    "duration": 0.10869575000000964
                },
                {
                    "name": "D5",
                    "midi": 74,
                    "time": 221.52193850000307,
                    "velocity": 0.4409448818897638,
                    "duration": 0.10869575000000964
                },
                {
                    "name": "F5",
                    "midi": 77,
                    "time": 221.52193850000307,
                    "velocity": 0.4409448818897638,
                    "duration": 0.10869575000000964
                },
                {
                    "name": "G6",
                    "midi": 91,
                    "time": 221.7393300000031,
                    "velocity": 0.8267716535433071,
                    "duration": 0.16304362500000025
                },
                {
                    "name": "G5",
                    "midi": 79,
                    "time": 221.7393300000031,
                    "velocity": 0.6850393700787402,
                    "duration": 0.16304362500000025
                },
                {
                    "name": "D#6",
                    "midi": 87,
                    "time": 221.7393300000031,
                    "velocity": 0.6850393700787402,
                    "duration": 0.16304362500000025
                },
                {
                    "name": "G#6",
                    "midi": 92,
                    "time": 222.1741130000031,
                    "velocity": 0.84251968503937,
                    "duration": 0.16304362500000025
                },
                {
                    "name": "G#5",
                    "midi": 80,
                    "time": 222.1741130000031,
                    "velocity": 0.7086614173228346,
                    "duration": 0.16304362500000025
                },
                {
                    "name": "F6",
                    "midi": 89,
                    "time": 222.1741130000031,
                    "velocity": 0.7086614173228346,
                    "duration": 0.16304362500000025
                },
                {
                    "name": "A#6",
                    "midi": 94,
                    "time": 222.6088960000031,
                    "velocity": 0.889763779527559,
                    "duration": 0.8695659999999918
                },
                {
                    "name": "A#5",
                    "midi": 82,
                    "time": 222.6088960000031,
                    "velocity": 0.7401574803149606,
                    "duration": 0.8695659999999918
                },
                {
                    "name": "G6",
                    "midi": 91,
                    "time": 222.6088960000031,
                    "velocity": 0.7401574803149606,
                    "duration": 0.8695659999999918
                },
                {
                    "name": "G4",
                    "midi": 67,
                    "time": 223.4784620000031,
                    "velocity": 0.3937007874015748,
                    "duration": 0.16304362500000025
                },
                {
                    "name": "D#4",
                    "midi": 63,
                    "time": 223.4784620000031,
                    "velocity": 0.33070866141732286,
                    "duration": 0.16304362500000025
                },
                {
                    "name": "G#4",
                    "midi": 68,
                    "time": 223.91324500000312,
                    "velocity": 0.4094488188976378,
                    "duration": 0.16304362500000025
                },
                {
                    "name": "F4",
                    "midi": 65,
                    "time": 223.91324500000312,
                    "velocity": 0.3464566929133858,
                    "duration": 0.16304362500000025
                },
                {
                    "name": "A#4",
                    "midi": 70,
                    "time": 224.34802800000313,
                    "velocity": 0.41732283464566927,
                    "duration": 0.7608702500000106
                },
                {
                    "name": "G4",
                    "midi": 67,
                    "time": 224.34802800000313,
                    "velocity": 0.3543307086614173,
                    "duration": 0.7608702500000106
                },
                {
                    "name": "D#3",
                    "midi": 51,
                    "time": 226.84803025000315,
                    "velocity": 0.44881889763779526,
                    "duration": 0.10869575000000964
                },
                {
                    "name": "D#4",
                    "midi": 63,
                    "time": 226.95672600000316,
                    "velocity": 0.6062992125984252,
                    "duration": 0.3233698562499967
                },
                {
                    "name": "D#4",
                    "midi": 63,
                    "time": 227.28281325000316,
                    "velocity": 0.4409448818897638,
                    "duration": 0.1068841541666643
                },
                {
                    "name": "D#4",
                    "midi": 63,
                    "time": 227.39150900000317,
                    "velocity": 0.49606299212598426,
                    "duration": 0.21739149999999086
                },
                {
                    "name": "A#2",
                    "midi": 46,
                    "time": 228.58716225000316,
                    "velocity": 0.31496062992125984,
                    "duration": 0.10869575000000964
                },
                {
                    "name": "D#3",
                    "midi": 51,
                    "time": 228.69585800000317,
                    "velocity": 0.3464566929133858,
                    "duration": 0.32427565416665516
                },
                {
                    "name": "D#3",
                    "midi": 51,
                    "time": 229.02194525000317,
                    "velocity": 0.31496062992125984,
                    "duration": 0.1068841541666643
                },
                {
                    "name": "D#3",
                    "midi": 51,
                    "time": 229.13064100000318,
                    "velocity": 0.33858267716535434,
                    "duration": 0.21739149999999086
                },
                {
                    "name": "F3",
                    "midi": 53,
                    "time": 229.34803250000317,
                    "velocity": 0.3464566929133858,
                    "duration": 0.08152181250000012
                },
                {
                    "name": "D#3",
                    "midi": 51,
                    "time": 229.45672825000318,
                    "velocity": 0.31496062992125984,
                    "duration": 0.08152181250000012
                },
                {
                    "name": "D#3",
                    "midi": 51,
                    "time": 229.5654240000032,
                    "velocity": 0.3464566929133858,
                    "duration": 0.08152181250000012
                },
                {
                    "name": "C3",
                    "midi": 48,
                    "time": 229.78281550000318,
                    "velocity": 0.30708661417322836,
                    "duration": 0.08152181250000012
                },
                {
                    "name": "C3",
                    "midi": 48,
                    "time": 230.00020700000317,
                    "velocity": 0.30708661417322836,
                    "duration": 0.43478300000001013
                },
                {
                    "name": "G#3",
                    "midi": 56,
                    "time": 230.43499000000318,
                    "velocity": 0.3700787401574803,
                    "duration": 0.08152181250000012
                },
                {
                    "name": "G#3",
                    "midi": 56,
                    "time": 230.65238150000317,
                    "velocity": 0.33070866141732286,
                    "duration": 0.08152181250000012
                },
                {
                    "name": "G3",
                    "midi": 55,
                    "time": 230.76107725000318,
                    "velocity": 0.33070866141732286,
                    "duration": 0.08152181250000012
                },
                {
                    "name": "F3",
                    "midi": 53,
                    "time": 230.8697730000032,
                    "velocity": 0.3700787401574803,
                    "duration": 0.10869575000000964
                },
                {
                    "name": "F3",
                    "midi": 53,
                    "time": 231.0871645000032,
                    "velocity": 0.3464566929133858,
                    "duration": 0.08152181250000012
                },
                {
                    "name": "D#3",
                    "midi": 51,
                    "time": 231.19586025000322,
                    "velocity": 0.3464566929133858,
                    "duration": 0.08152181250000012
                },
                {
                    "name": "D3",
                    "midi": 50,
                    "time": 231.30455600000323,
                    "velocity": 0.3700787401574803,
                    "duration": 0.21739149999999086
                },
                {
                    "name": "D3",
                    "midi": 50,
                    "time": 231.7393390000032,
                    "velocity": 0.30708661417322836,
                    "duration": 0.43478300000001013
                },
                {
                    "name": "A#3",
                    "midi": 58,
                    "time": 232.17412200000322,
                    "velocity": 0.3937007874015748,
                    "duration": 0.08152181250000012
                },
                {
                    "name": "A#3",
                    "midi": 58,
                    "time": 232.3915135000032,
                    "velocity": 0.3464566929133858,
                    "duration": 0.08152181250000012
                },
                {
                    "name": "G#3",
                    "midi": 56,
                    "time": 232.50020925000322,
                    "velocity": 0.3464566929133858,
                    "duration": 0.08152181250000012
                },
                {
                    "name": "G3",
                    "midi": 55,
                    "time": 232.60890500000323,
                    "velocity": 0.3779527559055118,
                    "duration": 0.10869575000000964
                },
                {
                    "name": "G3",
                    "midi": 55,
                    "time": 232.82629650000325,
                    "velocity": 0.3464566929133858,
                    "duration": 0.08152181250000012
                },
                {
                    "name": "F3",
                    "midi": 53,
                    "time": 232.93499225000326,
                    "velocity": 0.3464566929133858,
                    "duration": 0.08152181250000012
                },
                {
                    "name": "E3",
                    "midi": 52,
                    "time": 233.04368800000327,
                    "velocity": 0.3779527559055118,
                    "duration": 0.21739149999999086
                },
                {
                    "name": "E3",
                    "midi": 52,
                    "time": 233.47847100000325,
                    "velocity": 0.30708661417322836,
                    "duration": 0.43478300000001013
                },
                {
                    "name": "C4",
                    "midi": 60,
                    "time": 233.91325400000326,
                    "velocity": 0.3779527559055118,
                    "duration": 0.08152181250000012
                },
                {
                    "name": "C4",
                    "midi": 60,
                    "time": 234.13064550000325,
                    "velocity": 0.3464566929133858,
                    "duration": 0.08152181250000012
                },
                {
                    "name": "A#3",
                    "midi": 58,
                    "time": 234.23934125000326,
                    "velocity": 0.3464566929133858,
                    "duration": 0.08152181250000012
                },
                {
                    "name": "G#3",
                    "midi": 56,
                    "time": 234.34803700000327,
                    "velocity": 0.3858267716535433,
                    "duration": 0.10869575000000964
                },
                {
                    "name": "G#3",
                    "midi": 56,
                    "time": 234.5654285000033,
                    "velocity": 0.3543307086614173,
                    "duration": 0.08152181250000012
                },
                {
                    "name": "G3",
                    "midi": 55,
                    "time": 234.6741242500033,
                    "velocity": 0.36220472440944884,
                    "duration": 0.08152181250000012
                },
                {
                    "name": "F3",
                    "midi": 53,
                    "time": 234.7828200000033,
                    "velocity": 0.3937007874015748,
                    "duration": 0.08152181250000012
                },
                {
                    "name": "F3",
                    "midi": 53,
                    "time": 235.0002115000033,
                    "velocity": 0.3700787401574803,
                    "duration": 0.08152181250000012
                },
                {
                    "name": "G3",
                    "midi": 55,
                    "time": 235.1089072500033,
                    "velocity": 0.3700787401574803,
                    "duration": 0.08152181250000012
                },
                {
                    "name": "G#3",
                    "midi": 56,
                    "time": 235.21760300000332,
                    "velocity": 0.4015748031496063,
                    "duration": 0.10869575000000964
                },
                {
                    "name": "G#3",
                    "midi": 56,
                    "time": 235.43499450000334,
                    "velocity": 0.3779527559055118,
                    "duration": 0.08152181250000012
                },
                {
                    "name": "A#3",
                    "midi": 58,
                    "time": 235.54369025000335,
                    "velocity": 0.3779527559055118,
                    "duration": 0.08152181250000012
                },
                {
                    "name": "G3",
                    "midi": 55,
                    "time": 235.65238600000336,
                    "velocity": 0.4015748031496063,
                    "duration": 0.10869575000000964
                },
                {
                    "name": "G3",
                    "midi": 55,
                    "time": 235.86977750000338,
                    "velocity": 0.3858267716535433,
                    "duration": 0.08152181250000012
                },
                {
                    "name": "F3",
                    "midi": 53,
                    "time": 235.9784732500034,
                    "velocity": 0.3858267716535433,
                    "duration": 0.08152181250000012
                },
                {
                    "name": "D#3",
                    "midi": 51,
                    "time": 236.0871690000034,
                    "velocity": 0.4330708661417323,
                    "duration": 0.21739149999999086
                },
                {
                    "name": "F4",
                    "midi": 65,
                    "time": 236.4132562500034,
                    "velocity": 0.36220472440944884,
                    "duration": 0.10869575000000964
                },
                {
                    "name": "A#4",
                    "midi": 70,
                    "time": 236.5219520000034,
                    "velocity": 0.4409448818897638,
                    "duration": 0.32427565416665516
                },
                {
                    "name": "A#4",
                    "midi": 70,
                    "time": 236.8480392500034,
                    "velocity": 0.3700787401574803,
                    "duration": 0.1068841541666643
                },
                {
                    "name": "A#4",
                    "midi": 70,
                    "time": 236.95673500000342,
                    "velocity": 0.4330708661417323,
                    "duration": 0.21739149999999086
                },
                {
                    "name": "C5",
                    "midi": 72,
                    "time": 237.1741265000034,
                    "velocity": 0.41732283464566927,
                    "duration": 0.08152181250000012
                },
                {
                    "name": "A#4",
                    "midi": 70,
                    "time": 237.28282225000342,
                    "velocity": 0.3779527559055118,
                    "duration": 0.08152181250000012
                },
                {
                    "name": "A#4",
                    "midi": 70,
                    "time": 237.39151800000343,
                    "velocity": 0.44881889763779526,
                    "duration": 0.08152181250000012
                },
                {
                    "name": "G4",
                    "midi": 67,
                    "time": 237.60890950000342,
                    "velocity": 0.3779527559055118,
                    "duration": 0.08152181250000012
                },
                {
                    "name": "G4",
                    "midi": 67,
                    "time": 237.8263010000034,
                    "velocity": 0.3858267716535433,
                    "duration": 0.43478300000001013
                },
                {
                    "name": "D#5",
                    "midi": 75,
                    "time": 238.26108400000342,
                    "velocity": 0.48031496062992124,
                    "duration": 0.08152181250000012
                },
                {
                    "name": "D#5",
                    "midi": 75,
                    "time": 238.4784755000034,
                    "velocity": 0.44881889763779526,
                    "duration": 0.08152181250000012
                },
                {
                    "name": "D5",
                    "midi": 74,
                    "time": 238.58717125000342,
                    "velocity": 0.44881889763779526,
                    "duration": 0.08152181250000012
                },
                {
                    "name": "C5",
                    "midi": 72,
                    "time": 238.69586700000343,
                    "velocity": 0.4881889763779528,
                    "duration": 0.10869575000000964
                },
                {
                    "name": "C5",
                    "midi": 72,
                    "time": 238.91325850000345,
                    "velocity": 0.4566929133858268,
                    "duration": 0.08152181250000012
                },
                {
                    "name": "A#4",
                    "midi": 70,
                    "time": 239.02195425000346,
                    "velocity": 0.4566929133858268,
                    "duration": 0.08152181250000012
                },
                {
                    "name": "A4",
                    "midi": 69,
                    "time": 239.13065000000347,
                    "velocity": 0.5039370078740157,
                    "duration": 0.21739149999999086
                },
                {
                    "name": "A4",
                    "midi": 69,
                    "time": 239.56543300000345,
                    "velocity": 0.41732283464566927,
                    "duration": 0.43478300000001013
                },
                {
                    "name": "F5",
                    "midi": 77,
                    "time": 240.00021600000346,
                    "velocity": 0.5118110236220472,
                    "duration": 0.08152181250000012
                },
                {
                    "name": "F5",
                    "midi": 77,
                    "time": 240.21760750000345,
                    "velocity": 0.4881889763779528,
                    "duration": 0.08152181250000012
                },
                {
                    "name": "D#5",
                    "midi": 75,
                    "time": 240.32630325000346,
                    "velocity": 0.4881889763779528,
                    "duration": 0.08152181250000012
                },
                {
                    "name": "D5",
                    "midi": 74,
                    "time": 240.43499900000347,
                    "velocity": 0.5196850393700787,
                    "duration": 0.10869575000000964
                },
                {
                    "name": "D5",
                    "midi": 74,
                    "time": 240.6523905000035,
                    "velocity": 0.49606299212598426,
                    "duration": 0.08152181250000012
                },
                {
                    "name": "C5",
                    "midi": 72,
                    "time": 240.7610862500035,
                    "velocity": 0.49606299212598426,
                    "duration": 0.08152181250000012
                },
                {
                    "name": "B4",
                    "midi": 71,
                    "time": 240.8697820000035,
                    "velocity": 0.5275590551181102,
                    "duration": 0.21739149999999086
                },
                {
                    "name": "B4",
                    "midi": 71,
                    "time": 241.3045650000035,
                    "velocity": 0.41732283464566927,
                    "duration": 0.43478300000001013
                },
                {
                    "name": "G5",
                    "midi": 79,
                    "time": 241.7393480000035,
                    "velocity": 0.5590551181102362,
                    "duration": 0.08152181250000012
                },
                {
                    "name": "G5",
                    "midi": 79,
                    "time": 241.9567395000035,
                    "velocity": 0.5275590551181102,
                    "duration": 0.08152181250000012
                },
                {
                    "name": "F5",
                    "midi": 77,
                    "time": 242.0654352500035,
                    "velocity": 0.5275590551181102,
                    "duration": 0.08152181250000012
                },
                {
                    "name": "D#5",
                    "midi": 75,
                    "time": 242.1741310000035,
                    "velocity": 0.5354330708661418,
                    "duration": 0.10869575000000964
                },
                {
                    "name": "D#5",
                    "midi": 75,
                    "time": 242.39152250000353,
                    "velocity": 0.5354330708661418,
                    "duration": 0.08152181250000012
                },
                {
                    "name": "D5",
                    "midi": 74,
                    "time": 242.50021825000354,
                    "velocity": 0.5433070866141733,
                    "duration": 0.08152181250000012
                },
                {
                    "name": "C5",
                    "midi": 72,
                    "time": 242.60891400000355,
                    "velocity": 0.5590551181102362,
                    "duration": 0.08152181250000012
                },
                {
                    "name": "C5",
                    "midi": 72,
                    "time": 242.82630550000354,
                    "velocity": 0.5433070866141733,
                    "duration": 0.08152181250000012
                },
                {
                    "name": "A#4",
                    "midi": 70,
                    "time": 242.93500125000355,
                    "velocity": 0.5511811023622047,
                    "duration": 0.08152181250000012
                },
                {
                    "name": "G#4",
                    "midi": 68,
                    "time": 243.04369700000356,
                    "velocity": 0.5826771653543307,
                    "duration": 0.10869575000000964
                },
                {
                    "name": "G#4",
                    "midi": 68,
                    "time": 243.26108850000358,
                    "velocity": 0.5590551181102362,
                    "duration": 0.08152181250000012
                },
                {
                    "name": "G4",
                    "midi": 67,
                    "time": 243.3697842500036,
                    "velocity": 0.5590551181102362,
                    "duration": 0.08152181250000012
                },
                {
                    "name": "F4",
                    "midi": 65,
                    "time": 243.4784800000036,
                    "velocity": 0.5984251968503937,
                    "duration": 0.10869575000000964
                },
                {
                    "name": "F4",
                    "midi": 65,
                    "time": 243.69587150000362,
                    "velocity": 0.5669291338582677,
                    "duration": 0.08152181250000012
                },
                {
                    "name": "G4",
                    "midi": 67,
                    "time": 243.80456725000363,
                    "velocity": 0.5748031496062992,
                    "duration": 0.08152181250000012
                },
                {
                    "name": "G#4",
                    "midi": 68,
                    "time": 243.91326300000364,
                    "velocity": 0.5984251968503937,
                    "duration": 0.21739149999999086
                },
                {
                    "name": "A#4",
                    "midi": 70,
                    "time": 244.13065450000363,
                    "velocity": 0.5748031496062992,
                    "duration": 0.21739149999999086
                },
                {
                    "name": "D#4",
                    "midi": 63,
                    "time": 244.34804600000362,
                    "velocity": 0.4881889763779528,
                    "duration": 0.21739149999999086
                },
                {
                    "name": "A#4",
                    "midi": 70,
                    "time": 244.34804600000362,
                    "velocity": 0.4881889763779528,
                    "duration": 0.21739149999999086
                },
                {
                    "name": "G4",
                    "midi": 67,
                    "time": 244.34804600000362,
                    "velocity": 0.5826771653543307,
                    "duration": 0.32427565416665516
                },
                {
                    "name": "G4",
                    "midi": 67,
                    "time": 244.67413325000362,
                    "velocity": 0.5039370078740157,
                    "duration": 0.1068841541666643
                },
                {
                    "name": "G4",
                    "midi": 67,
                    "time": 244.78282900000363,
                    "velocity": 0.5984251968503937,
                    "duration": 0.21739149999999086
                },
                {
                    "name": "G#4",
                    "midi": 68,
                    "time": 245.00022050000362,
                    "velocity": 0.5826771653543307,
                    "duration": 0.08152181250000012
                },
                {
                    "name": "A#4",
                    "midi": 70,
                    "time": 245.10891625000363,
                    "velocity": 0.5511811023622047,
                    "duration": 0.08152181250000012
                },
                {
                    "name": "G4",
                    "midi": 67,
                    "time": 245.10891625000363,
                    "velocity": 0.5511811023622047,
                    "duration": 0.08152181250000012
                },
                {
                    "name": "D#5",
                    "midi": 75,
                    "time": 245.21761200000364,
                    "velocity": 0.5826771653543307,
                    "duration": 0.32427565416665516
                },
                {
                    "name": "G4",
                    "midi": 67,
                    "time": 245.21761200000364,
                    "velocity": 0.4881889763779528,
                    "duration": 0.21739149999999086
                },
                {
                    "name": "D#4",
                    "midi": 63,
                    "time": 245.43500350000363,
                    "velocity": 0.41732283464566927,
                    "duration": 0.21739150000001928
                },
                {
                    "name": "D#5",
                    "midi": 75,
                    "time": 245.54369925000364,
                    "velocity": 0.5039370078740157,
                    "duration": 0.10869575000000964
                },
                {
                    "name": "D#4",
                    "midi": 63,
                    "time": 245.65239500000365,
                    "velocity": 0.5039370078740157,
                    "duration": 0.43478300000001013
                },
                {
                    "name": "D#5",
                    "midi": 75,
                    "time": 245.65239500000365,
                    "velocity": 0.5984251968503937,
                    "duration": 0.21739149999999086
                },
                {
                    "name": "F5",
                    "midi": 77,
                    "time": 245.86978650000364,
                    "velocity": 0.5826771653543307,
                    "duration": 0.08152181250000012
                },
                {
                    "name": "D#5",
                    "midi": 75,
                    "time": 245.97848225000365,
                    "velocity": 0.5511811023622047,
                    "duration": 0.08152181250000012
                },
                {
                    "name": "D#4",
                    "midi": 63,
                    "time": 246.08717800000366,
                    "velocity": 0.4881889763779528,
                    "duration": 0.08152181250000012
                },
                {
                    "name": "D#5",
                    "midi": 75,
                    "time": 246.08717800000366,
                    "velocity": 0.5826771653543307,
                    "duration": 0.08152181250000012
                },
                {
                    "name": "C5",
                    "midi": 72,
                    "time": 246.30456950000365,
                    "velocity": 0.5354330708661418,
                    "duration": 0.19021756250000976
                },
                {
                    "name": "A#4",
                    "midi": 70,
                    "time": 246.41326525000366,
                    "velocity": 0.44881889763779526,
                    "duration": 0.08152181250000012
                },
                {
                    "name": "G#4",
                    "midi": 68,
                    "time": 246.52196100000367,
                    "velocity": 0.4881889763779528,
                    "duration": 0.08152181250000012
                },
                {
                    "name": "C5",
                    "midi": 72,
                    "time": 246.52196100000367,
                    "velocity": 0.5826771653543307,
                    "duration": 0.43478300000001013
                },
                {
                    "name": "G#4",
                    "midi": 68,
                    "time": 246.73935250000366,
                    "velocity": 0.5748031496062992,
                    "duration": 0.08152181250000012
                },
                {
                    "name": "G4",
                    "midi": 67,
                    "time": 246.84804825000367,
                    "velocity": 0.5039370078740157,
                    "duration": 0.08152181250000012
                },
                {
                    "name": "F4",
                    "midi": 65,
                    "time": 246.95674400000368,
                    "velocity": 0.4881889763779528,
                    "duration": 0.21739149999999086
                },
                {
                    "name": "G#5",
                    "midi": 80,
                    "time": 246.95674400000368,
                    "velocity": 0.6377952755905512,
                    "duration": 0.08152181250000012
                },
                {
                    "name": "G#5",
                    "midi": 80,
                    "time": 247.17413550000367,
                    "velocity": 0.5590551181102362,
                    "duration": 0.08152181250000012
                },
                {
                    "name": "G5",
                    "midi": 79,
                    "time": 247.28283125000368,
                    "velocity": 0.5275590551181102,
                    "duration": 0.08152181250000012
                },
                {
                    "name": "F5",
                    "midi": 77,
                    "time": 247.3915270000037,
                    "velocity": 0.6141732283464567,
                    "duration": 0.10869575000000964
                },
                {
                    "name": "F4",
                    "midi": 65,
                    "time": 247.3915270000037,
                    "velocity": 0.5039370078740157,
                    "duration": 0.43478300000003856
                },
                {
                    "name": "F5",
                    "midi": 77,
                    "time": 247.6089185000037,
                    "velocity": 0.5826771653543307,
                    "duration": 0.08152181250000012
                },
                {
                    "name": "D#5",
                    "midi": 75,
                    "time": 247.71761425000372,
                    "velocity": 0.5354330708661418,
                    "duration": 0.08152181250000012
                },
                {
                    "name": "D5",
                    "midi": 74,
                    "time": 247.82631000000373,
                    "velocity": 0.5826771653543307,
                    "duration": 0.08152181250000012
                },
                {
                    "name": "D5",
                    "midi": 74,
                    "time": 248.04370150000372,
                    "velocity": 0.5354330708661418,
                    "duration": 0.08152181250000012
                },
                {
                    "name": "C5",
                    "midi": 72,
                    "time": 248.15239725000373,
                    "velocity": 0.44881889763779526,
                    "duration": 0.08152181250000012
                },
                {
                    "name": "A#4",
                    "midi": 70,
                    "time": 248.26109300000374,
                    "velocity": 0.4881889763779528,
                    "duration": 0.08152181250000012
                },
                {
                    "name": "D5",
                    "midi": 74,
                    "time": 248.26109300000374,
                    "velocity": 0.5826771653543307,
                    "duration": 0.43478300000001013
                },
                {
                    "name": "A#4",
                    "midi": 70,
                    "time": 248.47848450000373,
                    "velocity": 0.5748031496062992,
                    "duration": 0.08152181250000012
                },
                {
                    "name": "G#4",
                    "midi": 68,
                    "time": 248.58718025000374,
                    "velocity": 0.5039370078740157,
                    "duration": 0.08152181250000012
                },
                {
                    "name": "A#5",
                    "midi": 82,
                    "time": 248.69587600000375,
                    "velocity": 0.6220472440944882,
                    "duration": 0.08152181250000012
                },
                {
                    "name": "G4",
                    "midi": 67,
                    "time": 248.69587600000375,
                    "velocity": 0.4881889763779528,
                    "duration": 0.21739149999999086
                },
                {
                    "name": "A#5",
                    "midi": 82,
                    "time": 248.91326750000374,
                    "velocity": 0.5590551181102362,
                    "duration": 0.08152181250000012
                },
                {
                    "name": "G#5",
                    "midi": 80,
                    "time": 249.02196325000375,
                    "velocity": 0.5275590551181102,
                    "duration": 0.08152181250000012
                },
                {
                    "name": "G5",
                    "midi": 79,
                    "time": 249.13065900000376,
                    "velocity": 0.6141732283464567,
                    "duration": 0.10869575000000964
                },
                {
                    "name": "G4",
                    "midi": 67,
                    "time": 249.13065900000376,
                    "velocity": 0.5039370078740157,
                    "duration": 0.6521745000000294
                },
                {
                    "name": "G5",
                    "midi": 79,
                    "time": 249.34805050000378,
                    "velocity": 0.5826771653543307,
                    "duration": 0.08152181250000012
                },
                {
                    "name": "F5",
                    "midi": 77,
                    "time": 249.4567462500038,
                    "velocity": 0.5354330708661418,
                    "duration": 0.08152181250000012
                },
                {
                    "name": "E5",
                    "midi": 76,
                    "time": 249.5654420000038,
                    "velocity": 0.5826771653543307,
                    "duration": 0.21739149999999086
                },
                {
                    "name": "E4",
                    "midi": 64,
                    "time": 249.7828335000038,
                    "velocity": 0.4409448818897638,
                    "duration": 0.21739149999999086
                },
                {
                    "name": "F4",
                    "midi": 65,
                    "time": 250.00022500000378,
                    "velocity": 0.4645669291338583,
                    "duration": 0.21739149999999086
                },
                {
                    "name": "G4",
                    "midi": 67,
                    "time": 250.21761650000377,
                    "velocity": 0.4881889763779528,
                    "duration": 0.21739150000001928
                },
                {
                    "name": "C4",
                    "midi": 60,
                    "time": 250.21761650000377,
                    "velocity": 0.4015748031496063,
                    "duration": 0.08152181250000012
                },
                {
                    "name": "A#3",
                    "midi": 58,
                    "time": 250.32631225000378,
                    "velocity": 0.3858267716535433,
                    "duration": 0.08152181250000012
                },
                {
                    "name": "G#3",
                    "midi": 56,
                    "time": 250.4350080000038,
                    "velocity": 0.4566929133858268,
                    "duration": 0.10869575000000964
                },
                {
                    "name": "G#4",
                    "midi": 68,
                    "time": 250.4350080000038,
                    "velocity": 0.4566929133858268,
                    "duration": 0.6521745000000578
                },
                {
                    "name": "F4",
                    "midi": 65,
                    "time": 250.6523995000038,
                    "velocity": 0.4015748031496063,
                    "duration": 0.10869575000000964
                },
                {
                    "name": "D#4",
                    "midi": 63,
                    "time": 250.76109525000382,
                    "velocity": 0.3464566929133858,
                    "duration": 0.10869575000000964
                },
                {
                    "name": "D4",
                    "midi": 62,
                    "time": 250.86979100000383,
                    "velocity": 0.4015748031496063,
                    "duration": 0.10869575000000964
                },
                {
                    "name": "D4",
                    "midi": 62,
                    "time": 251.08718250000385,
                    "velocity": 0.4094488188976378,
                    "duration": 0.10869575000000964
                },
                {
                    "name": "A4",
                    "midi": 69,
                    "time": 251.08718250000385,
                    "velocity": 0.4094488188976378,
                    "duration": 0.21739150000001928
                },
                {
                    "name": "C4",
                    "midi": 60,
                    "time": 251.19587825000386,
                    "velocity": 0.3543307086614173,
                    "duration": 0.10869575000000964
                },
                {
                    "name": "A#4",
                    "midi": 70,
                    "time": 251.30457400000387,
                    "velocity": 0.49606299212598426,
                    "duration": 0.08152181250000012
                },
                {
                    "name": "A#3",
                    "midi": 58,
                    "time": 251.30457400000387,
                    "velocity": 0.49606299212598426,
                    "duration": 0.21739149999999086
                },
                {
                    "name": "G5",
                    "midi": 79,
                    "time": 251.52196550000386,
                    "velocity": 0.4881889763779528,
                    "duration": 0.08152181250000012
                },
                {
                    "name": "F5",
                    "midi": 77,
                    "time": 251.63066125000387,
                    "velocity": 0.44881889763779526,
                    "duration": 0.08152181250000012
                },
                {
                    "name": "D#5",
                    "midi": 75,
                    "time": 251.73935700000388,
                    "velocity": 0.5275590551181102,
                    "duration": 0.10869575000000964
                },
                {
                    "name": "D#5",
                    "midi": 75,
                    "time": 251.9567485000039,
                    "velocity": 0.49606299212598426,
                    "duration": 0.08152181250000012
                },
                {
                    "name": "D5",
                    "midi": 74,
                    "time": 252.0654442500039,
                    "velocity": 0.44881889763779526,
                    "duration": 0.08152181250000012
                },
                {
                    "name": "C5",
                    "midi": 72,
                    "time": 252.17414000000392,
                    "velocity": 0.5354330708661418,
                    "duration": 0.6521744999999726
                },
                {
                    "name": "C4",
                    "midi": 60,
                    "time": 252.3915315000039,
                    "velocity": 0.3700787401574803,
                    "duration": 0.21739149999999086
                },
                {
                    "name": "F4",
                    "midi": 65,
                    "time": 252.6089230000039,
                    "velocity": 0.47244094488188976,
                    "duration": 0.4347829999999817
                },
                {
                    "name": "C#5",
                    "midi": 73,
                    "time": 252.8263145000039,
                    "velocity": 0.48031496062992124,
                    "duration": 0.21739149999999086
                },
                {
                    "name": "F4",
                    "midi": 65,
                    "time": 253.04370600000388,
                    "velocity": 0.5669291338582677,
                    "duration": 0.08152181250000012
                },
                {
                    "name": "D5",
                    "midi": 74,
                    "time": 253.04370600000388,
                    "velocity": 0.5669291338582677,
                    "duration": 0.08152181250000012
                },
                {
                    "name": "G4",
                    "midi": 67,
                    "time": 253.26109750000387,
                    "velocity": 0.5196850393700787,
                    "duration": 0.08152181250000012
                },
                {
                    "name": "D#5",
                    "midi": 75,
                    "time": 253.26109750000387,
                    "velocity": 0.5196850393700787,
                    "duration": 0.08152181250000012
                },
                {
                    "name": "D5",
                    "midi": 74,
                    "time": 253.36979325000388,
                    "velocity": 0.4645669291338583,
                    "duration": 0.08152181250000012
                },
                {
                    "name": "F4",
                    "midi": 65,
                    "time": 253.36979325000388,
                    "velocity": 0.4645669291338583,
                    "duration": 0.08152181250000012
                },
                {
                    "name": "C5",
                    "midi": 72,
                    "time": 253.4784890000039,
                    "velocity": 0.5984251968503937,
                    "duration": 0.10869575000000964
                },
                {
                    "name": "D#4",
                    "midi": 63,
                    "time": 253.4784890000039,
                    "velocity": 0.5984251968503937,
                    "duration": 0.10869575000000964
                },
                {
                    "name": "B4",
                    "midi": 71,
                    "time": 253.6958805000039,
                    "velocity": 0.5748031496062992,
                    "duration": 0.08152181250000012
                },
                {
                    "name": "D4",
                    "midi": 62,
                    "time": 253.6958805000039,
                    "velocity": 0.5984251968503937,
                    "duration": 0.10869575000000964
                },
                {
                    "name": "G4",
                    "midi": 67,
                    "time": 253.80457625000392,
                    "velocity": 0.5196850393700787,
                    "duration": 0.08152181250000012
                },
                {
                    "name": "C5",
                    "midi": 72,
                    "time": 253.91327200000393,
                    "velocity": 0.5275590551181102,
                    "duration": 0.3233698562499967
                },
                {
                    "name": "D#5",
                    "midi": 75,
                    "time": 253.91327200000393,
                    "velocity": 0.6220472440944882,
                    "duration": 0.3233698562499967
                },
                {
                    "name": "D#5",
                    "midi": 75,
                    "time": 254.23935925000393,
                    "velocity": 0.5669291338582677,
                    "duration": 0.10778995208332276
                },
                {
                    "name": "C5",
                    "midi": 72,
                    "time": 254.23935925000393,
                    "velocity": 0.48031496062992124,
                    "duration": 0.10778995208332276
                },
                {
                    "name": "C5",
                    "midi": 72,
                    "time": 254.3480550000039,
                    "velocity": 0.5039370078740157,
                    "duration": 0.21739149999999086
                },
                {
                    "name": "D#5",
                    "midi": 75,
                    "time": 254.3480550000039,
                    "velocity": 0.5984251968503937,
                    "duration": 0.21739149999999086
                },
                {
                    "name": "D5",
                    "midi": 74,
                    "time": 254.5654465000039,
                    "velocity": 0.5275590551181102,
                    "duration": 0.08152181250000012
                },
                {
                    "name": "F5",
                    "midi": 77,
                    "time": 254.5654465000039,
                    "velocity": 0.6220472440944882,
                    "duration": 0.08152181250000012
                },
                {
                    "name": "D#5",
                    "midi": 75,
                    "time": 254.6741422500039,
                    "velocity": 0.5354330708661418,
                    "duration": 0.08152181250000012
                },
                {
                    "name": "C5",
                    "midi": 72,
                    "time": 254.6741422500039,
                    "velocity": 0.44881889763779526,
                    "duration": 0.08152181250000012
                },
                {
                    "name": "C5",
                    "midi": 72,
                    "time": 254.78283800000392,
                    "velocity": 0.5275590551181102,
                    "duration": 0.08152181250000012
                },
                {
                    "name": "D#5",
                    "midi": 75,
                    "time": 254.78283800000392,
                    "velocity": 0.6220472440944882,
                    "duration": 0.08152181250000012
                },
                {
                    "name": "C5",
                    "midi": 72,
                    "time": 255.0002295000039,
                    "velocity": 0.5433070866141733,
                    "duration": 0.08152181250000012
                },
                {
                    "name": "G#4",
                    "midi": 68,
                    "time": 255.0002295000039,
                    "velocity": 0.4566929133858268,
                    "duration": 0.08152181250000012
                },
                {
                    "name": "G#4",
                    "midi": 68,
                    "time": 255.2176210000039,
                    "velocity": 0.4566929133858268,
                    "duration": 0.43478300000001013
                },
                {
                    "name": "C5",
                    "midi": 72,
                    "time": 255.2176210000039,
                    "velocity": 0.5433070866141733,
                    "duration": 0.43478300000001013
                },
                {
                    "name": "G#5",
                    "midi": 80,
                    "time": 255.6524040000039,
                    "velocity": 0.6220472440944882,
                    "duration": 0.08152181250000012
                },
                {
                    "name": "F5",
                    "midi": 77,
                    "time": 255.6524040000039,
                    "velocity": 0.5275590551181102,
                    "duration": 0.08152181250000012
                },
                {
                    "name": "G#5",
                    "midi": 80,
                    "time": 255.8697955000039,
                    "velocity": 0.6220472440944882,
                    "duration": 0.08152181250000012
                },
                {
                    "name": "F5",
                    "midi": 77,
                    "time": 255.8697955000039,
                    "velocity": 0.5275590551181102,
                    "duration": 0.08152181250000012
                },
                {
                    "name": "G5",
                    "midi": 79,
                    "time": 255.9784912500039,
                    "velocity": 0.5905511811023622,
                    "duration": 0.08152181250000012
                },
                {
                    "name": "D#5",
                    "midi": 75,
                    "time": 255.9784912500039,
                    "velocity": 0.49606299212598426,
                    "duration": 0.08152181250000012
                },
                {
                    "name": "F5",
                    "midi": 77,
                    "time": 256.0871870000039,
                    "velocity": 0.6220472440944882,
                    "duration": 0.10869574999998122
                },
                {
                    "name": "C#5",
                    "midi": 73,
                    "time": 256.0871870000039,
                    "velocity": 0.5275590551181102,
                    "duration": 0.10869574999998122
                },
                {
                    "name": "C#5",
                    "midi": 73,
                    "time": 256.30457850000386,
                    "velocity": 0.5275590551181102,
                    "duration": 0.08152181250000012
                },
                {
                    "name": "F5",
                    "midi": 77,
                    "time": 256.30457850000386,
                    "velocity": 0.6220472440944882,
                    "duration": 0.08152181250000012
                },
                {
                    "name": "D#5",
                    "midi": 75,
                    "time": 256.41327425000384,
                    "velocity": 0.5905511811023622,
                    "duration": 0.08152181250000012
                },
                {
                    "name": "C5",
                    "midi": 72,
                    "time": 256.41327425000384,
                    "velocity": 0.49606299212598426,
                    "duration": 0.08152181250000012
                },
                {
                    "name": "C#5",
                    "midi": 73,
                    "time": 256.5219700000038,
                    "velocity": 0.6220472440944882,
                    "duration": 0.21739150000001928
                },
                {
                    "name": "A#4",
                    "midi": 70,
                    "time": 256.5219700000038,
                    "velocity": 0.5275590551181102,
                    "duration": 0.21739150000001928
                },
                {
                    "name": "A#4",
                    "midi": 70,
                    "time": 256.95675300000386,
                    "velocity": 0.4566929133858268,
                    "duration": 0.4347829999999817
                },
                {
                    "name": "C#5",
                    "midi": 73,
                    "time": 256.95675300000386,
                    "velocity": 0.5433070866141733,
                    "duration": 0.4347829999999817
                },
                {
                    "name": "G5",
                    "midi": 79,
                    "time": 257.39153600000384,
                    "velocity": 0.5275590551181102,
                    "duration": 0.08152181250000012
                },
                {
                    "name": "A#5",
                    "midi": 82,
                    "time": 257.39153600000384,
                    "velocity": 0.6220472440944882,
                    "duration": 0.08152181250000012
                },
                {
                    "name": "G5",
                    "midi": 79,
                    "time": 257.60892750000386,
                    "velocity": 0.5275590551181102,
                    "duration": 0.08152181250000012
                },
                {
                    "name": "A#5",
                    "midi": 82,
                    "time": 257.60892750000386,
                    "velocity": 0.6220472440944882,
                    "duration": 0.08152181250000012
                },
                {
                    "name": "F5",
                    "midi": 77,
                    "time": 257.71762325000384,
                    "velocity": 0.49606299212598426,
                    "duration": 0.08152181250000012
                },
                {
                    "name": "G#5",
                    "midi": 80,
                    "time": 257.71762325000384,
                    "velocity": 0.5905511811023622,
                    "duration": 0.08152181250000012
                },
                {
                    "name": "E5",
                    "midi": 76,
                    "time": 257.8263190000038,
                    "velocity": 0.5275590551181102,
                    "duration": 0.10869574999998122
                },
                {
                    "name": "G5",
                    "midi": 79,
                    "time": 257.8263190000038,
                    "velocity": 0.6220472440944882,
                    "duration": 0.10869574999998122
                },
                {
                    "name": "G5",
                    "midi": 79,
                    "time": 258.0437105000038,
                    "velocity": 0.6220472440944882,
                    "duration": 0.08152181250000012
                },
                {
                    "name": "E5",
                    "midi": 76,
                    "time": 258.0437105000038,
                    "velocity": 0.5275590551181102,
                    "duration": 0.08152181250000012
                },
                {
                    "name": "D5",
                    "midi": 74,
                    "time": 258.15240625000376,
                    "velocity": 0.49606299212598426,
                    "duration": 0.08152181250000012
                },
                {
                    "name": "F5",
                    "midi": 77,
                    "time": 258.15240625000376,
                    "velocity": 0.5905511811023622,
                    "duration": 0.08152181250000012
                },
                {
                    "name": "E5",
                    "midi": 76,
                    "time": 258.26110200000375,
                    "velocity": 0.6220472440944882,
                    "duration": 0.21739150000001928
                },
                {
                    "name": "C5",
                    "midi": 72,
                    "time": 258.26110200000375,
                    "velocity": 0.5275590551181102,
                    "duration": 0.21739150000001928
                },
                {
                    "name": "C5",
                    "midi": 72,
                    "time": 258.6958850000038,
                    "velocity": 0.4566929133858268,
                    "duration": 0.4347829999999817
                },
                {
                    "name": "F5",
                    "midi": 77,
                    "time": 258.6958850000038,
                    "velocity": 0.5433070866141733,
                    "duration": 0.4347829999999817
                },
                {
                    "name": "C6",
                    "midi": 84,
                    "time": 259.13066800000377,
                    "velocity": 0.6220472440944882,
                    "duration": 0.08152181250000012
                },
                {
                    "name": "G#5",
                    "midi": 80,
                    "time": 259.13066800000377,
                    "velocity": 0.5275590551181102,
                    "duration": 0.08152181250000012
                },
                {
                    "name": "G#5",
                    "midi": 80,
                    "time": 259.3480595000038,
                    "velocity": 0.5275590551181102,
                    "duration": 0.08152181250000012
                },
                {
                    "name": "C6",
                    "midi": 84,
                    "time": 259.3480595000038,
                    "velocity": 0.6220472440944882,
                    "duration": 0.08152181250000012
                },
                {
                    "name": "G5",
                    "midi": 79,
                    "time": 259.45675525000377,
                    "velocity": 0.49606299212598426,
                    "duration": 0.08152181250000012
                },
                {
                    "name": "A#5",
                    "midi": 82,
                    "time": 259.45675525000377,
                    "velocity": 0.5905511811023622,
                    "duration": 0.08152181250000012
                },
                {
                    "name": "G#5",
                    "midi": 80,
                    "time": 259.56545100000375,
                    "velocity": 0.6220472440944882,
                    "duration": 0.10869574999998122
                },
                {
                    "name": "F5",
                    "midi": 77,
                    "time": 259.56545100000375,
                    "velocity": 0.5275590551181102,
                    "duration": 0.10869574999998122
                },
                {
                    "name": "G5",
                    "midi": 79,
                    "time": 259.7828425000037,
                    "velocity": 0.5354330708661418,
                    "duration": 0.08152181250000012
                },
                {
                    "name": "A#5",
                    "midi": 82,
                    "time": 259.7828425000037,
                    "velocity": 0.6299212598425197,
                    "duration": 0.08152181250000012
                },
                {
                    "name": "F5",
                    "midi": 77,
                    "time": 259.8915382500037,
                    "velocity": 0.5118110236220472,
                    "duration": 0.08152181250000012
                },
                {
                    "name": "G#5",
                    "midi": 80,
                    "time": 259.8915382500037,
                    "velocity": 0.6062992125984252,
                    "duration": 0.08152181250000012
                },
                {
                    "name": "G5",
                    "midi": 79,
                    "time": 260.0002340000037,
                    "velocity": 0.6220472440944882,
                    "duration": 0.08152181250000012
                },
                {
                    "name": "D#5",
                    "midi": 75,
                    "time": 260.0002340000037,
                    "velocity": 0.5275590551181102,
                    "duration": 0.08152181250000012
                },
                {
                    "name": "G#5",
                    "midi": 80,
                    "time": 260.2176255000037,
                    "velocity": 0.6220472440944882,
                    "duration": 0.08152181250000012
                },
                {
                    "name": "F6",
                    "midi": 89,
                    "time": 260.2176255000037,
                    "velocity": 0.6220472440944882,
                    "duration": 0.08152181250000012
                },
                {
                    "name": "D#6",
                    "midi": 87,
                    "time": 260.3263212500037,
                    "velocity": 0.5905511811023622,
                    "duration": 0.08152181250000012
                },
                {
                    "name": "G5",
                    "midi": 79,
                    "time": 260.3263212500037,
                    "velocity": 0.49606299212598426,
                    "duration": 0.08152181250000012
                },
                {
                    "name": "F5",
                    "midi": 77,
                    "time": 260.43501700000365,
                    "velocity": 0.5275590551181102,
                    "duration": 0.10869574999998122
                },
                {
                    "name": "D6",
                    "midi": 86,
                    "time": 260.43501700000365,
                    "velocity": 0.6220472440944882,
                    "duration": 0.10869574999998122
                },
                {
                    "name": "D#6",
                    "midi": 87,
                    "time": 260.6524085000036,
                    "velocity": 0.6299212598425197,
                    "duration": 0.08152181250000012
                },
                {
                    "name": "G5",
                    "midi": 79,
                    "time": 260.6524085000036,
                    "velocity": 0.5354330708661418,
                    "duration": 0.08152181250000012
                },
                {
                    "name": "F5",
                    "midi": 77,
                    "time": 260.7611042500036,
                    "velocity": 0.5118110236220472,
                    "duration": 0.08152181250000012
                },
                {
                    "name": "D6",
                    "midi": 86,
                    "time": 260.7611042500036,
                    "velocity": 0.6062992125984252,
                    "duration": 0.08152181250000012
                },
                {
                    "name": "D#5",
                    "midi": 75,
                    "time": 260.8698000000036,
                    "velocity": 0.5275590551181102,
                    "duration": 0.08152181250000012
                },
                {
                    "name": "C6",
                    "midi": 84,
                    "time": 260.8698000000036,
                    "velocity": 0.6220472440944882,
                    "duration": 0.08152181250000012
                },
                {
                    "name": "G5",
                    "midi": 79,
                    "time": 261.0871915000036,
                    "velocity": 0.5275590551181102,
                    "duration": 0.08152181250000012
                },
                {
                    "name": "A#5",
                    "midi": 82,
                    "time": 261.0871915000036,
                    "velocity": 0.6220472440944882,
                    "duration": 0.08152181250000012
                },
                {
                    "name": "G#5",
                    "midi": 80,
                    "time": 261.1958872500036,
                    "velocity": 0.49606299212598426,
                    "duration": 0.08152181250000012
                },
                {
                    "name": "C6",
                    "midi": 84,
                    "time": 261.1958872500036,
                    "velocity": 0.5905511811023622,
                    "duration": 0.08152181250000012
                },
                {
                    "name": "C#6",
                    "midi": 85,
                    "time": 261.30458300000356,
                    "velocity": 0.6299212598425197,
                    "duration": 0.10869574999998122
                },
                {
                    "name": "A#5",
                    "midi": 82,
                    "time": 261.30458300000356,
                    "velocity": 0.5354330708661418,
                    "duration": 0.10869574999998122
                },
                {
                    "name": "F5",
                    "midi": 77,
                    "time": 261.5219745000035,
                    "velocity": 0.5511811023622047,
                    "duration": 0.08152181250000012
                },
                {
                    "name": "G#5",
                    "midi": 80,
                    "time": 261.5219745000035,
                    "velocity": 0.6456692913385826,
                    "duration": 0.08152181250000012
                },
                {
                    "name": "G5",
                    "midi": 79,
                    "time": 261.6306702500035,
                    "velocity": 0.5275590551181102,
                    "duration": 0.08152181250000012
                },
                {
                    "name": "A#5",
                    "midi": 82,
                    "time": 261.6306702500035,
                    "velocity": 0.6299212598425197,
                    "duration": 0.08152181250000012
                },
                {
                    "name": "G#5",
                    "midi": 80,
                    "time": 261.7393660000035,
                    "velocity": 0.5511811023622047,
                    "duration": 0.08152181250000012
                },
                {
                    "name": "C6",
                    "midi": 84,
                    "time": 261.7393660000035,
                    "velocity": 0.6456692913385826,
                    "duration": 0.08152181250000012
                },
                {
                    "name": "C5",
                    "midi": 72,
                    "time": 261.9567575000035,
                    "velocity": 0.5590551181102362,
                    "duration": 0.21739149999996243
                },
                {
                    "name": "D#5",
                    "midi": 75,
                    "time": 261.9567575000035,
                    "velocity": 0.6535433070866141,
                    "duration": 0.08152181250000012
                },
                {
                    "name": "F5",
                    "midi": 77,
                    "time": 262.0654532500035,
                    "velocity": 0.6299212598425197,
                    "duration": 0.08152181250000012
                },
                {
                    "name": "G5",
                    "midi": 79,
                    "time": 262.17414900000347,
                    "velocity": 0.6614173228346457,
                    "duration": 0.21739150000001928
                },
                {
                    "name": "B4",
                    "midi": 71,
                    "time": 262.17414900000347,
                    "velocity": 0.5590551181102362,
                    "duration": 0.21739150000001928
                },
                {
                    "name": "B4",
                    "midi": 71,
                    "time": 262.50023625000347,
                    "velocity": 0.6220472440944882,
                    "duration": 0.10869574999998122
                },
                {
                    "name": "D5",
                    "midi": 74,
                    "time": 262.50023625000347,
                    "velocity": 0.7401574803149606,
                    "duration": 0.10869574999998122
                },
                {
                    "name": "G5",
                    "midi": 79,
                    "time": 262.60893200000345,
                    "velocity": 0.6771653543307087,
                    "duration": 0.7608702499999822
                },
                {
                    "name": "B5",
                    "midi": 83,
                    "time": 262.60893200000345,
                    "velocity": 0.8031496062992126,
                    "duration": 0.7608702499999822
                },
                {
                    "name": "B4",
                    "midi": 71,
                    "time": 263.36980225000343,
                    "velocity": 0.5748031496062992,
                    "duration": 0.10869574999998122
                },
                {
                    "name": "D5",
                    "midi": 74,
                    "time": 263.36980225000343,
                    "velocity": 0.6850393700787402,
                    "duration": 0.10869574999998122
                },
                {
                    "name": "G5",
                    "midi": 79,
                    "time": 263.4784980000034,
                    "velocity": 0.6771653543307087,
                    "duration": 0.652174500000001
                },
                {
                    "name": "B5",
                    "midi": 83,
                    "time": 263.4784980000034,
                    "velocity": 0.8031496062992126,
                    "duration": 0.652174500000001
                },
                {
                    "name": "B5",
                    "midi": 83,
                    "time": 264.1306725000034,
                    "velocity": 0.41732283464566927,
                    "duration": 0.21739149999996243
                },
                {
                    "name": "G5",
                    "midi": 79,
                    "time": 264.1306725000034,
                    "velocity": 0.3543307086614173,
                    "duration": 0.21739149999996243
                },
                {
                    "name": "D#6",
                    "midi": 87,
                    "time": 264.1306725000034,
                    "velocity": 0.41732283464566927,
                    "duration": 0.10869574999998122
                },
                {
                    "name": "D6",
                    "midi": 86,
                    "time": 264.2393682500034,
                    "velocity": 0.3543307086614173,
                    "duration": 0.10869574999998122
                },
                {
                    "name": "D6",
                    "midi": 86,
                    "time": 264.3480640000034,
                    "velocity": 0.3543307086614173,
                    "duration": 0.21739149999996243
                },
                {
                    "name": "B5",
                    "midi": 83,
                    "time": 264.3480640000034,
                    "velocity": 0.3543307086614173,
                    "duration": 0.21739149999996243
                },
                {
                    "name": "G6",
                    "midi": 91,
                    "time": 264.3480640000034,
                    "velocity": 0.41732283464566927,
                    "duration": 0.10869574999998122
                },
                {
                    "name": "F6",
                    "midi": 89,
                    "time": 264.45675975000336,
                    "velocity": 0.3543307086614173,
                    "duration": 0.10869574999998122
                },
                {
                    "name": "B4",
                    "midi": 71,
                    "time": 264.78284700000336,
                    "velocity": 0.3543307086614173,
                    "duration": 0.21739149999996243
                },
                {
                    "name": "G5",
                    "midi": 79,
                    "time": 264.78284700000336,
                    "velocity": 0.41732283464566927,
                    "duration": 0.10869574999998122
                },
                {
                    "name": "D5",
                    "midi": 74,
                    "time": 264.78284700000336,
                    "velocity": 0.3543307086614173,
                    "duration": 0.21739149999996243
                },
                {
                    "name": "F5",
                    "midi": 77,
                    "time": 264.89154275000334,
                    "velocity": 0.3543307086614173,
                    "duration": 0.10869574999998122
                },
                {
                    "name": "G4",
                    "midi": 67,
                    "time": 265.21763000000334,
                    "velocity": 0.41732283464566927,
                    "duration": 0.10869574999998122
                },
                {
                    "name": "B3",
                    "midi": 59,
                    "time": 265.21763000000334,
                    "velocity": 0.3543307086614173,
                    "duration": 0.21739149999996243
                },
                {
                    "name": "D4",
                    "midi": 62,
                    "time": 265.21763000000334,
                    "velocity": 0.3543307086614173,
                    "duration": 0.21739149999996243
                },
                {
                    "name": "F4",
                    "midi": 65,
                    "time": 265.3263257500033,
                    "velocity": 0.3543307086614173,
                    "duration": 0.10869574999998122
                },
                {
                    "name": "D5",
                    "midi": 74,
                    "time": 265.6524130000033,
                    "velocity": 0.3543307086614173,
                    "duration": 0.21739149999996243
                },
                {
                    "name": "B4",
                    "midi": 71,
                    "time": 265.6524130000033,
                    "velocity": 0.3543307086614173,
                    "duration": 0.21739149999996243
                },
                {
                    "name": "G5",
                    "midi": 79,
                    "time": 265.6524130000033,
                    "velocity": 0.41732283464566927,
                    "duration": 0.10869574999998122
                },
                {
                    "name": "F5",
                    "midi": 77,
                    "time": 265.7611087500033,
                    "velocity": 0.3543307086614173,
                    "duration": 0.10869574999998122
                },
                {
                    "name": "G5",
                    "midi": 79,
                    "time": 266.0871960000033,
                    "velocity": 0.6771653543307087,
                    "duration": 0.7608702499999822
                },
                {
                    "name": "D#6",
                    "midi": 87,
                    "time": 266.0871960000033,
                    "velocity": 0.8031496062992126,
                    "duration": 0.7608702499999822
                },
                {
                    "name": "C6",
                    "midi": 84,
                    "time": 266.0871960000033,
                    "velocity": 0.6771653543307087,
                    "duration": 0.7608702499999822
                },
                {
                    "name": "G5",
                    "midi": 79,
                    "time": 266.8480662500033,
                    "velocity": 0.5748031496062992,
                    "duration": 0.7608702499999822
                },
                {
                    "name": "D#5",
                    "midi": 75,
                    "time": 266.8480662500033,
                    "velocity": 0.6850393700787402,
                    "duration": 0.7608702499999822
                },
                {
                    "name": "C6",
                    "midi": 84,
                    "time": 266.95676200000327,
                    "velocity": 0.6771653543307087,
                    "duration": 0.652174500000001
                },
                {
                    "name": "D#6",
                    "midi": 87,
                    "time": 266.95676200000327,
                    "velocity": 0.8031496062992126,
                    "duration": 0.652174500000001
                },
                {
                    "name": "C6",
                    "midi": 84,
                    "time": 267.60893650000327,
                    "velocity": 0.41732283464566927,
                    "duration": 0.21739149999996243
                },
                {
                    "name": "G5",
                    "midi": 79,
                    "time": 267.60893650000327,
                    "velocity": 0.3543307086614173,
                    "duration": 0.21739149999996243
                },
                {
                    "name": "F6",
                    "midi": 89,
                    "time": 267.60893650000327,
                    "velocity": 0.41732283464566927,
                    "duration": 0.10869574999998122
                },
                {
                    "name": "D#6",
                    "midi": 87,
                    "time": 267.71763225000325,
                    "velocity": 0.3543307086614173,
                    "duration": 0.10869574999998122
                },
                {
                    "name": "D#6",
                    "midi": 87,
                    "time": 267.82632800000323,
                    "velocity": 0.3543307086614173,
                    "duration": 0.21739149999996243
                },
                {
                    "name": "C6",
                    "midi": 84,
                    "time": 267.82632800000323,
                    "velocity": 0.3543307086614173,
                    "duration": 0.21739149999996243
                },
                {
                    "name": "G#6",
                    "midi": 92,
                    "time": 267.82632800000323,
                    "velocity": 0.41732283464566927,
                    "duration": 0.10869574999998122
                },
                {
                    "name": "G6",
                    "midi": 91,
                    "time": 267.9350237500032,
                    "velocity": 0.3543307086614173,
                    "duration": 0.10869574999998122
                },
                {
                    "name": "C5",
                    "midi": 72,
                    "time": 268.2611110000032,
                    "velocity": 0.3543307086614173,
                    "duration": 0.21739150000007612
                },
                {
                    "name": "D#5",
                    "midi": 75,
                    "time": 268.2611110000032,
                    "velocity": 0.3543307086614173,
                    "duration": 0.21739150000007612
                },
                {
                    "name": "G#5",
                    "midi": 80,
                    "time": 268.2611110000032,
                    "velocity": 0.41732283464566927,
                    "duration": 0.10869575000003806
                },
                {
                    "name": "G5",
                    "midi": 79,
                    "time": 268.36346616458655,
                    "velocity": 0.3543307086614173,
                    "duration": 0.10869575000003806
                },
                {
                    "name": "D#4",
                    "midi": 63,
                    "time": 268.6958940000033,
                    "velocity": 0.3543307086614173,
                    "duration": 0.21739149999996243
                },
                {
                    "name": "C4",
                    "midi": 60,
                    "time": 268.6958940000033,
                    "velocity": 0.3543307086614173,
                    "duration": 0.21739149999996243
                },
                {
                    "name": "G#4",
                    "midi": 68,
                    "time": 268.6958940000033,
                    "velocity": 0.41732283464566927,
                    "duration": 0.10869574999998122
                },
                {
                    "name": "G4",
                    "midi": 67,
                    "time": 268.8045897500033,
                    "velocity": 0.3543307086614173,
                    "duration": 0.10869574999998122
                },
                {
                    "name": "D#5",
                    "midi": 75,
                    "time": 269.1306770000033,
                    "velocity": 0.3543307086614173,
                    "duration": 0.21739149999996243
                },
                {
                    "name": "G#5",
                    "midi": 80,
                    "time": 269.1306770000033,
                    "velocity": 0.41732283464566927,
                    "duration": 0.10869574999998122
                },
                {
                    "name": "C5",
                    "midi": 72,
                    "time": 269.1306770000033,
                    "velocity": 0.3543307086614173,
                    "duration": 0.21739149999996243
                },
                {
                    "name": "G5",
                    "midi": 79,
                    "time": 269.23937275000327,
                    "velocity": 0.3543307086614173,
                    "duration": 0.10869574999998122
                },
                {
                    "name": "F5",
                    "midi": 77,
                    "time": 269.56546000000327,
                    "velocity": 0.6771653543307087,
                    "duration": 0.7608702499999822
                },
                {
                    "name": "D6",
                    "midi": 86,
                    "time": 269.56546000000327,
                    "velocity": 0.6771653543307087,
                    "duration": 0.7608702499999822
                },
                {
                    "name": "F6",
                    "midi": 89,
                    "time": 269.56546000000327,
                    "velocity": 0.8031496062992126,
                    "duration": 0.7608702499999822
                },
                {
                    "name": "D5",
                    "midi": 74,
                    "time": 270.32633025000325,
                    "velocity": 0.6850393700787402,
                    "duration": 0.10869574999998122
                },
                {
                    "name": "F5",
                    "midi": 77,
                    "time": 270.32633025000325,
                    "velocity": 0.5748031496062992,
                    "duration": 0.10869574999998122
                },
                {
                    "name": "F6",
                    "midi": 89,
                    "time": 270.43502600000323,
                    "velocity": 0.8031496062992126,
                    "duration": 0.652174500000001
                },
                {
                    "name": "D6",
                    "midi": 86,
                    "time": 270.43502600000323,
                    "velocity": 0.6771653543307087,
                    "duration": 0.652174500000001
                },
                {
                    "name": "F5",
                    "midi": 77,
                    "time": 270.76111325000323,
                    "velocity": 0.5748031496062992,
                    "duration": 0.10869574999998122
                },
                {
                    "name": "A#5",
                    "midi": 82,
                    "time": 270.8698090000032,
                    "velocity": 0.5275590551181102,
                    "duration": 0.21739150000001928
                },
                {
                    "name": "D6",
                    "midi": 86,
                    "time": 271.08720050000323,
                    "velocity": 0.41732283464566927,
                    "duration": 0.21739149999996243
                },
                {
                    "name": "A#5",
                    "midi": 82,
                    "time": 271.08720050000323,
                    "velocity": 0.3543307086614173,
                    "duration": 0.21739149999996243
                },
                {
                    "name": "G6",
                    "midi": 91,
                    "time": 271.08720050000323,
                    "velocity": 0.41732283464566927,
                    "duration": 0.10869574999998122
                },
                {
                    "name": "F6",
                    "midi": 89,
                    "time": 271.1958962500032,
                    "velocity": 0.3543307086614173,
                    "duration": 0.10869574999998122
                },
                {
                    "name": "D6",
                    "midi": 86,
                    "time": 271.3045920000032,
                    "velocity": 0.3858267716535433,
                    "duration": 0.21739149999996243
                },
                {
                    "name": "F6",
                    "midi": 89,
                    "time": 271.3045920000032,
                    "velocity": 0.3858267716535433,
                    "duration": 0.21739149999996243
                },
                {
                    "name": "A#6",
                    "midi": 94,
                    "time": 271.3045920000032,
                    "velocity": 0.4566929133858268,
                    "duration": 0.10869574999998122
                },
                {
                    "name": "G#6",
                    "midi": 92,
                    "time": 271.4132877500032,
                    "velocity": 0.3937007874015748,
                    "duration": 0.10869574999998122
                },
                {
                    "name": "A#5",
                    "midi": 82,
                    "time": 271.7393750000032,
                    "velocity": 0.49606299212598426,
                    "duration": 0.10869575000003806
                },
                {
                    "name": "F5",
                    "midi": 77,
                    "time": 271.7393750000032,
                    "velocity": 0.4251968503937008,
                    "duration": 0.21739150000007612
                },
                {
                    "name": "D5",
                    "midi": 74,
                    "time": 271.7393750000032,
                    "velocity": 0.4251968503937008,
                    "duration": 0.21739150000007612
                },
                {
                    "name": "G#5",
                    "midi": 80,
                    "time": 271.8417301645865,
                    "velocity": 0.4251968503937008,
                    "duration": 0.10869575000003806
                },
                {
                    "name": "F4",
                    "midi": 65,
                    "time": 272.1741580000033,
                    "velocity": 0.4566929133858268,
                    "duration": 0.21739149999996243
                },
                {
                    "name": "D4",
                    "midi": 62,
                    "time": 272.1741580000033,
                    "velocity": 0.4566929133858268,
                    "duration": 0.21739149999996243
                },
                {
                    "name": "A#4",
                    "midi": 70,
                    "time": 272.1741580000033,
                    "velocity": 0.5354330708661418,
                    "duration": 0.10869574999998122
                },
                {
                    "name": "G#4",
                    "midi": 68,
                    "time": 272.28285375000326,
                    "velocity": 0.4645669291338583,
                    "duration": 0.10869574999998122
                },
                {
                    "name": "F5",
                    "midi": 77,
                    "time": 272.60894100000326,
                    "velocity": 0.49606299212598426,
                    "duration": 0.21739149999996243
                },
                {
                    "name": "D5",
                    "midi": 74,
                    "time": 272.60894100000326,
                    "velocity": 0.49606299212598426,
                    "duration": 0.21739149999996243
                },
                {
                    "name": "A#5",
                    "midi": 82,
                    "time": 272.60894100000326,
                    "velocity": 0.5826771653543307,
                    "duration": 0.10869574999998122
                },
                {
                    "name": "G#5",
                    "midi": 80,
                    "time": 272.71763675000324,
                    "velocity": 0.49606299212598426,
                    "duration": 0.10869574999998122
                },
                {
                    "name": "D#6",
                    "midi": 87,
                    "time": 273.04372400000324,
                    "velocity": 0.6771653543307087,
                    "duration": 0.7608702499999822
                },
                {
                    "name": "G6",
                    "midi": 91,
                    "time": 273.04372400000324,
                    "velocity": 0.8031496062992126,
                    "duration": 0.7608702499999822
                },
                {
                    "name": "G5",
                    "midi": 79,
                    "time": 273.8045942500032,
                    "velocity": 0.5748031496062992,
                    "duration": 0.10869574999998122
                },
                {
                    "name": "A#5",
                    "midi": 82,
                    "time": 273.8045942500032,
                    "velocity": 0.5748031496062992,
                    "duration": 0.10869574999998122
                },
                {
                    "name": "G6",
                    "midi": 91,
                    "time": 273.9132900000032,
                    "velocity": 0.8031496062992126,
                    "duration": 0.652174500000001
                },
                {
                    "name": "D#6",
                    "midi": 87,
                    "time": 273.9132900000032,
                    "velocity": 0.6771653543307087,
                    "duration": 0.652174500000001
                },
                {
                    "name": "G5",
                    "midi": 79,
                    "time": 274.2393772500032,
                    "velocity": 0.6850393700787402,
                    "duration": 0.10869574999998122
                },
                {
                    "name": "C6",
                    "midi": 84,
                    "time": 274.3480730000032,
                    "velocity": 0.6299212598425197,
                    "duration": 0.21739150000001928
                },
                {
                    "name": "F#5",
                    "midi": 78,
                    "time": 274.6741602500032,
                    "velocity": 0.5748031496062992,
                    "duration": 0.10869574999998122
                },
                {
                    "name": "A5",
                    "midi": 81,
                    "time": 274.6741602500032,
                    "velocity": 0.6850393700787402,
                    "duration": 0.10869574999998122
                },
                {
                    "name": "A6",
                    "midi": 93,
                    "time": 274.78285600000316,
                    "velocity": 0.8346456692913385,
                    "duration": 0.7608702499999822
                },
                {
                    "name": "F#6",
                    "midi": 90,
                    "time": 274.78285600000316,
                    "velocity": 0.7086614173228346,
                    "duration": 0.7608702499999822
                },
                {
                    "name": "A5",
                    "midi": 81,
                    "time": 275.54372625000315,
                    "velocity": 0.5984251968503937,
                    "duration": 0.10869574999998122
                },
                {
                    "name": "F#5",
                    "midi": 78,
                    "time": 275.54372625000315,
                    "velocity": 0.5984251968503937,
                    "duration": 0.10869574999998122
                },
                {
                    "name": "A6",
                    "midi": 93,
                    "time": 275.6524220000031,
                    "velocity": 0.8346456692913385,
                    "duration": 0.652174500000001
                },
                {
                    "name": "F#6",
                    "midi": 90,
                    "time": 275.6524220000031,
                    "velocity": 0.7086614173228346,
                    "duration": 0.652174500000001
                },
                {
                    "name": "A5",
                    "midi": 81,
                    "time": 275.9785092500031,
                    "velocity": 0.7165354330708661,
                    "duration": 0.10869574999998122
                },
                {
                    "name": "D6",
                    "midi": 86,
                    "time": 276.0872050000031,
                    "velocity": 0.6614173228346457,
                    "duration": 0.21739150000001928
                },
                {
                    "name": "F#6",
                    "midi": 90,
                    "time": 276.0872050000031,
                    "velocity": 0.7086614173228346,
                    "duration": 0.21739150000001928
                },
                {
                    "name": "G#5",
                    "midi": 80,
                    "time": 276.4132922500031,
                    "velocity": 0.5984251968503937,
                    "duration": 0.10869574999998122
                },
                {
                    "name": "B5",
                    "midi": 83,
                    "time": 276.4132922500031,
                    "velocity": 0.7165354330708661,
                    "duration": 0.10869574999998122
                },
                {
                    "name": "B6",
                    "midi": 95,
                    "time": 276.5219880000031,
                    "velocity": 0.7637795275590551,
                    "duration": 0.7608702499999822
                },
                {
                    "name": "D6",
                    "midi": 86,
                    "time": 276.5219880000031,
                    "velocity": 0.6456692913385826,
                    "duration": 0.7608702499999822
                },
                {
                    "name": "F6",
                    "midi": 89,
                    "time": 276.5219880000031,
                    "velocity": 0.6456692913385826,
                    "duration": 0.7608702499999822
                },
                {
                    "name": "G#6",
                    "midi": 92,
                    "time": 276.5219880000031,
                    "velocity": 0.6456692913385826,
                    "duration": 0.7608702499999822
                },
                {
                    "name": "B5",
                    "midi": 83,
                    "time": 276.5219880000031,
                    "velocity": 0.6456692913385826,
                    "duration": 0.7608702499999822
                },
                {
                    "name": "G#5",
                    "midi": 80,
                    "time": 277.2828582500031,
                    "velocity": 0.5984251968503937,
                    "duration": 0.10869574999998122
                },
                {
                    "name": "B5",
                    "midi": 83,
                    "time": 277.2828582500031,
                    "velocity": 0.5984251968503937,
                    "duration": 0.10869574999998122
                },
                {
                    "name": "F6",
                    "midi": 89,
                    "time": 277.39155400000305,
                    "velocity": 0.6456692913385826,
                    "duration": 0.7608702499999822
                },
                {
                    "name": "B5",
                    "midi": 83,
                    "time": 277.39155400000305,
                    "velocity": 0.6456692913385826,
                    "duration": 0.7608702499999822
                },
                {
                    "name": "D6",
                    "midi": 86,
                    "time": 277.39155400000305,
                    "velocity": 0.6456692913385826,
                    "duration": 0.7608702499999822
                },
                {
                    "name": "G#6",
                    "midi": 92,
                    "time": 277.39155400000305,
                    "velocity": 0.6456692913385826,
                    "duration": 0.7608702499999822
                },
                {
                    "name": "B6",
                    "midi": 95,
                    "time": 277.39155400000305,
                    "velocity": 0.7637795275590551,
                    "duration": 0.7608702499999822
                },
                {
                    "name": "A#5",
                    "midi": 82,
                    "time": 278.15242425000304,
                    "velocity": 0.5984251968503937,
                    "duration": 0.10869574999998122
                },
                {
                    "name": "E5",
                    "midi": 76,
                    "time": 278.15242425000304,
                    "velocity": 0.5984251968503937,
                    "duration": 0.10869574999998122
                },
                {
                    "name": "G5",
                    "midi": 79,
                    "time": 278.15242425000304,
                    "velocity": 0.5984251968503937,
                    "duration": 0.10869574999998122
                },
                {
                    "name": "C#6",
                    "midi": 85,
                    "time": 278.15242425000304,
                    "velocity": 0.5984251968503937,
                    "duration": 0.10869574999998122
                },
                {
                    "name": "A#6",
                    "midi": 94,
                    "time": 278.261120000003,
                    "velocity": 0.6456692913385826,
                    "duration": 0.7608702499999822
                },
                {
                    "name": "G6",
                    "midi": 91,
                    "time": 278.261120000003,
                    "velocity": 0.6456692913385826,
                    "duration": 0.7608702499999822
                },
                {
                    "name": "C#7",
                    "midi": 97,
                    "time": 278.261120000003,
                    "velocity": 0.7637795275590551,
                    "duration": 0.7608702499999822
                },
                {
                    "name": "E6",
                    "midi": 88,
                    "time": 278.261120000003,
                    "velocity": 0.6456692913385826,
                    "duration": 0.7608702499999822
                },
                {
                    "name": "A#5",
                    "midi": 82,
                    "time": 279.021990250003,
                    "velocity": 0.5984251968503937,
                    "duration": 0.10869574999998122
                },
                {
                    "name": "C#6",
                    "midi": 85,
                    "time": 279.021990250003,
                    "velocity": 0.5984251968503937,
                    "duration": 0.10869574999998122
                },
                {
                    "name": "G5",
                    "midi": 79,
                    "time": 279.021990250003,
                    "velocity": 0.5984251968503937,
                    "duration": 0.10869574999998122
                },
                {
                    "name": "E5",
                    "midi": 76,
                    "time": 279.021990250003,
                    "velocity": 0.5984251968503937,
                    "duration": 0.10869574999998122
                },
                {
                    "name": "G6",
                    "midi": 91,
                    "time": 279.130686000003,
                    "velocity": 0.6456692913385826,
                    "duration": 0.7608702499999822
                },
                {
                    "name": "E6",
                    "midi": 88,
                    "time": 279.130686000003,
                    "velocity": 0.6456692913385826,
                    "duration": 0.7608702499999822
                },
                {
                    "name": "A#6",
                    "midi": 94,
                    "time": 279.130686000003,
                    "velocity": 0.6456692913385826,
                    "duration": 0.7608702499999822
                },
                {
                    "name": "C#7",
                    "midi": 97,
                    "time": 279.130686000003,
                    "velocity": 0.7637795275590551,
                    "duration": 0.7608702499999822
                },
                {
                    "name": "D6",
                    "midi": 86,
                    "time": 279.89155625000296,
                    "velocity": 0.6535433070866141,
                    "duration": 0.10869574999998122
                },
                {
                    "name": "A5",
                    "midi": 81,
                    "time": 279.89155625000296,
                    "velocity": 0.6535433070866141,
                    "duration": 0.10869574999998122
                },
                {
                    "name": "F#5",
                    "midi": 78,
                    "time": 279.89155625000296,
                    "velocity": 0.6535433070866141,
                    "duration": 0.10869574999998122
                },
                {
                    "name": "D6",
                    "midi": 86,
                    "time": 280.00025200000294,
                    "velocity": 0.7086614173228346,
                    "duration": 0.3260872500000005
                },
                {
                    "name": "F#6",
                    "midi": 90,
                    "time": 280.00025200000294,
                    "velocity": 0.7086614173228346,
                    "duration": 0.3260872500000005
                },
                {
                    "name": "A6",
                    "midi": 93,
                    "time": 280.00025200000294,
                    "velocity": 0.7086614173228346,
                    "duration": 0.3260872500000005
                },
                {
                    "name": "D7",
                    "midi": 98,
                    "time": 280.00025200000294,
                    "velocity": 0.8346456692913385,
                    "duration": 0.3260872500000005
                },
                {
                    "name": "D6",
                    "midi": 86,
                    "time": 280.32633925000295,
                    "velocity": 0.6299212598425197,
                    "duration": 0.10869574999998122
                },
                {
                    "name": "D7",
                    "midi": 98,
                    "time": 280.4350350000029,
                    "velocity": 0.7874015748031497,
                    "duration": 0.3260872500000005
                },
                {
                    "name": "D5",
                    "midi": 74,
                    "time": 280.7611222500029,
                    "velocity": 0.5826771653543307,
                    "duration": 0.10869574999998122
                },
                {
                    "name": "D6",
                    "midi": 86,
                    "time": 280.8698180000029,
                    "velocity": 0.7322834645669292,
                    "duration": 0.3260872500000005
                },
                {
                    "name": "D5",
                    "midi": 74,
                    "time": 281.1959052500029,
                    "velocity": 0.5354330708661418,
                    "duration": 0.10869574999998122
                },
                {
                    "name": "D6",
                    "midi": 86,
                    "time": 281.3046010000029,
                    "velocity": 0.6692913385826772,
                    "duration": 0.3260872500000005
                },
                {
                    "name": "D5",
                    "midi": 74,
                    "time": 281.6306882500029,
                    "velocity": 0.4881889763779528,
                    "duration": 0.10869574999998122
                },
                {
                    "name": "D6",
                    "midi": 86,
                    "time": 281.7393840000029,
                    "velocity": 0.6141732283464567,
                    "duration": 0.3260872500000005
                },
                {
                    "name": "D5",
                    "midi": 74,
                    "time": 282.0654712500029,
                    "velocity": 0.4409448818897638,
                    "duration": 0.10869574999998122
                },
                {
                    "name": "D6",
                    "midi": 86,
                    "time": 282.17416700000285,
                    "velocity": 0.5511811023622047,
                    "duration": 0.3260872500000005
                },
                {
                    "name": "D5",
                    "midi": 74,
                    "time": 282.50025425000285,
                    "velocity": 0.4015748031496063,
                    "duration": 0.10869574999998122
                },
                {
                    "name": "D6",
                    "midi": 86,
                    "time": 282.60895000000284,
                    "velocity": 0.49606299212598426,
                    "duration": 0.3260872500000005
                },
                {
                    "name": "D5",
                    "midi": 74,
                    "time": 282.93503725000284,
                    "velocity": 0.3543307086614173,
                    "duration": 0.10869574999998122
                },
                {
                    "name": "D6",
                    "midi": 86,
                    "time": 283.0437330000028,
                    "velocity": 0.4330708661417323,
                    "duration": 0.3260872500000005
                },
                {
                    "name": "D#5",
                    "midi": 75,
                    "time": 283.3698202500028,
                    "velocity": 0.30708661417322836,
                    "duration": 0.10869574999998122
                },
                {
                    "name": "D#6",
                    "midi": 87,
                    "time": 283.4785160000028,
                    "velocity": 0.4566929133858268,
                    "duration": 0.8695659999999634
                },
                {
                    "name": "D#5",
                    "midi": 75,
                    "time": 283.9132990000028,
                    "velocity": 0.3858267716535433,
                    "duration": 0.4347829999999817
                },
                {
                    "name": "E6",
                    "midi": 88,
                    "time": 284.34808200000276,
                    "velocity": 0.44881889763779526,
                    "duration": 0.4347829999999817
                },
                {
                    "name": "E5",
                    "midi": 76,
                    "time": 284.34808200000276,
                    "velocity": 0.3779527559055118,
                    "duration": 0.8695659999999634
                },
                {
                    "name": "G5",
                    "midi": 79,
                    "time": 284.78286500000274,
                    "velocity": 0.48031496062992124,
                    "duration": 0.4347829999999817
                },
                {
                    "name": "F#5",
                    "midi": 78,
                    "time": 285.2176480000027,
                    "velocity": 0.5275590551181102,
                    "duration": 0.4347829999999817
                },
                {
                    "name": "B5",
                    "midi": 83,
                    "time": 285.2176480000027,
                    "velocity": 0.4409448818897638,
                    "duration": 0.8695659999999634
                },
                {
                    "name": "D#5",
                    "midi": 75,
                    "time": 285.6524310000027,
                    "velocity": 0.48031496062992124,
                    "duration": 0.4347829999999817
                },
                {
                    "name": "E5",
                    "midi": 76,
                    "time": 286.0872140000027,
                    "velocity": 0.4015748031496063,
                    "duration": 0.4347829999999817
                },
                {
                    "name": "B4",
                    "midi": 71,
                    "time": 286.0872140000027,
                    "velocity": 0.4015748031496063,
                    "duration": 0.4347829999999817
                },
                {
                    "name": "G5",
                    "midi": 79,
                    "time": 286.0872140000027,
                    "velocity": 0.47244094488188976,
                    "duration": 0.4347829999999817
                },
                {
                    "name": "B4",
                    "midi": 71,
                    "time": 286.52199700000267,
                    "velocity": 0.41732283464566927,
                    "duration": 0.4347829999999817
                },
                {
                    "name": "E5",
                    "midi": 76,
                    "time": 286.52199700000267,
                    "velocity": 0.49606299212598426,
                    "duration": 0.4347829999999817
                },
                {
                    "name": "D5",
                    "midi": 74,
                    "time": 286.95678000000265,
                    "velocity": 0.5196850393700787,
                    "duration": 0.4347829999999817
                },
                {
                    "name": "D#5",
                    "midi": 75,
                    "time": 287.39156300000263,
                    "velocity": 0.4645669291338583,
                    "duration": 0.4347829999999817
                },
                {
                    "name": "F#5",
                    "midi": 78,
                    "time": 287.8263460000026,
                    "velocity": 0.5039370078740157,
                    "duration": 0.4347829999999817
                },
                {
                    "name": "E5",
                    "midi": 76,
                    "time": 288.2611290000026,
                    "velocity": 0.49606299212598426,
                    "duration": 0.21739150000001928
                },
                {
                    "name": "C#5",
                    "midi": 73,
                    "time": 288.4785205000026,
                    "velocity": 0.44881889763779526,
                    "duration": 0.21739150000001928
                },
                {
                    "name": "D#5",
                    "midi": 75,
                    "time": 288.69591200000264,
                    "velocity": 0.5196850393700787,
                    "duration": 0.21739150000001928
                },
                {
                    "name": "D4",
                    "midi": 62,
                    "time": 288.91330350000266,
                    "velocity": 0.3779527559055118,
                    "duration": 0.21739150000001928
                },
                {
                    "name": "D#4",
                    "midi": 63,
                    "time": 289.1306950000027,
                    "velocity": 0.4409448818897638,
                    "duration": 0.4347829999999817
                },
                {
                    "name": "F#4",
                    "midi": 66,
                    "time": 289.56547800000266,
                    "velocity": 0.5039370078740157,
                    "duration": 0.4347829999999817
                },
                {
                    "name": "E4",
                    "midi": 64,
                    "time": 290.00026100000264,
                    "velocity": 0.4094488188976378,
                    "duration": 0.21739150000001928
                },
                {
                    "name": "C#4",
                    "midi": 61,
                    "time": 290.21765250000266,
                    "velocity": 0.3779527559055118,
                    "duration": 0.21739150000001928
                },
                {
                    "name": "B4",
                    "midi": 71,
                    "time": 290.4350440000027,
                    "velocity": 0.4645669291338583,
                    "duration": 0.10869574999998122
                },
                {
                    "name": "D#5",
                    "midi": 75,
                    "time": 290.4350440000027,
                    "velocity": 0.4645669291338583,
                    "duration": 0.10869574999998122
                },
                {
                    "name": "E5",
                    "midi": 76,
                    "time": 290.54373975000266,
                    "velocity": 0.3779527559055118,
                    "duration": 0.10869574999998122
                },
                {
                    "name": "D#5",
                    "midi": 75,
                    "time": 290.65243550000264,
                    "velocity": 0.3779527559055118,
                    "duration": 0.10869574999998122
                },
                {
                    "name": "D5",
                    "midi": 74,
                    "time": 290.7611312500026,
                    "velocity": 0.3779527559055118,
                    "duration": 0.10869574999998122
                },
                {
                    "name": "D#5",
                    "midi": 75,
                    "time": 290.8698270000026,
                    "velocity": 0.4330708661417323,
                    "duration": 0.10869574999998122
                },
                {
                    "name": "E5",
                    "midi": 76,
                    "time": 290.9785227500026,
                    "velocity": 0.3779527559055118,
                    "duration": 0.10869574999998122
                },
                {
                    "name": "F#5",
                    "midi": 78,
                    "time": 291.08721850000256,
                    "velocity": 0.3779527559055118,
                    "duration": 0.10869574999998122
                },
                {
                    "name": "F5",
                    "midi": 77,
                    "time": 291.19591425000255,
                    "velocity": 0.3779527559055118,
                    "duration": 0.10869574999998122
                },
                {
                    "name": "G#5",
                    "midi": 80,
                    "time": 291.3046100000025,
                    "velocity": 0.44881889763779526,
                    "duration": 0.10869574999998122
                },
                {
                    "name": "F#5",
                    "midi": 78,
                    "time": 291.4133057500025,
                    "velocity": 0.4251968503937008,
                    "duration": 0.10869574999998122
                },
                {
                    "name": "F5",
                    "midi": 77,
                    "time": 291.5220015000025,
                    "velocity": 0.4251968503937008,
                    "duration": 0.10869574999998122
                },
                {
                    "name": "F#5",
                    "midi": 78,
                    "time": 291.63069725000247,
                    "velocity": 0.4251968503937008,
                    "duration": 0.10869574999998122
                },
                {
                    "name": "E5",
                    "midi": 76,
                    "time": 291.73939300000245,
                    "velocity": 0.4409448818897638,
                    "duration": 0.10869574999998122
                },
                {
                    "name": "D#5",
                    "midi": 75,
                    "time": 291.84808875000243,
                    "velocity": 0.41732283464566927,
                    "duration": 0.10869574999998122
                },
                {
                    "name": "E5",
                    "midi": 76,
                    "time": 291.9567845000024,
                    "velocity": 0.4015748031496063,
                    "duration": 0.10869574999998122
                },
                {
                    "name": "C#5",
                    "midi": 73,
                    "time": 292.0654802500024,
                    "velocity": 0.3543307086614173,
                    "duration": 0.10869574999998122
                },
                {
                    "name": "D#4",
                    "midi": 63,
                    "time": 292.1741760000024,
                    "velocity": 0.4645669291338583,
                    "duration": 0.10869574999998122
                },
                {
                    "name": "D#5",
                    "midi": 75,
                    "time": 292.1741760000024,
                    "velocity": 0.4645669291338583,
                    "duration": 0.21739149999996243
                },
                {
                    "name": "E4",
                    "midi": 64,
                    "time": 292.28287175000236,
                    "velocity": 0.3779527559055118,
                    "duration": 0.10869574999998122
                },
                {
                    "name": "D#4",
                    "midi": 63,
                    "time": 292.39156750000234,
                    "velocity": 0.3779527559055118,
                    "duration": 0.10869574999998122
                },
                {
                    "name": "D4",
                    "midi": 62,
                    "time": 292.5002632500023,
                    "velocity": 0.3779527559055118,
                    "duration": 0.10869574999998122
                },
                {
                    "name": "D#4",
                    "midi": 63,
                    "time": 292.6089590000023,
                    "velocity": 0.4330708661417323,
                    "duration": 0.10869574999998122
                },
                {
                    "name": "E4",
                    "midi": 64,
                    "time": 292.7176547500023,
                    "velocity": 0.3779527559055118,
                    "duration": 0.10869574999998122
                },
                {
                    "name": "F#4",
                    "midi": 66,
                    "time": 292.82635050000226,
                    "velocity": 0.3779527559055118,
                    "duration": 0.10869574999998122
                },
                {
                    "name": "F4",
                    "midi": 65,
                    "time": 292.93504625000224,
                    "velocity": 0.3779527559055118,
                    "duration": 0.10869574999998122
                },
                {
                    "name": "G#4",
                    "midi": 68,
                    "time": 293.0437420000022,
                    "velocity": 0.44881889763779526,
                    "duration": 0.10869574999998122
                },
                {
                    "name": "F#4",
                    "midi": 66,
                    "time": 293.1524377500022,
                    "velocity": 0.4251968503937008,
                    "duration": 0.10869574999998122
                },
                {
                    "name": "F4",
                    "midi": 65,
                    "time": 293.2611335000022,
                    "velocity": 0.4251968503937008,
                    "duration": 0.10869574999998122
                },
                {
                    "name": "F#4",
                    "midi": 66,
                    "time": 293.36982925000217,
                    "velocity": 0.4251968503937008,
                    "duration": 0.10869574999998122
                },
                {
                    "name": "E4",
                    "midi": 64,
                    "time": 293.47852500000215,
                    "velocity": 0.4409448818897638,
                    "duration": 0.10869574999998122
                },
                {
                    "name": "D#4",
                    "midi": 63,
                    "time": 293.58722075000213,
                    "velocity": 0.41732283464566927,
                    "duration": 0.10869574999998122
                },
                {
                    "name": "E4",
                    "midi": 64,
                    "time": 293.6959165000021,
                    "velocity": 0.4015748031496063,
                    "duration": 0.10869574999998122
                },
                {
                    "name": "F#4",
                    "midi": 66,
                    "time": 293.8046122500021,
                    "velocity": 0.3543307086614173,
                    "duration": 0.10869574999998122
                },
                {
                    "name": "C#4",
                    "midi": 61,
                    "time": 293.9133080000021,
                    "velocity": 0.4015748031496063,
                    "duration": 0.21739150000001928
                },
                {
                    "name": "F#3",
                    "midi": 54,
                    "time": 293.9133080000021,
                    "velocity": 0.4015748031496063,
                    "duration": 0.21739150000001928
                },
                {
                    "name": "E4",
                    "midi": 64,
                    "time": 293.9133080000021,
                    "velocity": 0.48031496062992124,
                    "duration": 0.21739150000001928
                },
                {
                    "name": "F#4",
                    "midi": 66,
                    "time": 295.5437442500021,
                    "velocity": 0.49606299212598426,
                    "duration": 0.08152181250000012
                },
                {
                    "name": "C#5",
                    "midi": 73,
                    "time": 295.65244000000206,
                    "velocity": 0.48031496062992124,
                    "duration": 0.3242756541666836
                },
                {
                    "name": "C#5",
                    "midi": 73,
                    "time": 295.97852725000206,
                    "velocity": 0.4251968503937008,
                    "duration": 0.1068841541666643
                },
                {
                    "name": "C#5",
                    "midi": 73,
                    "time": 296.08722300000204,
                    "velocity": 0.48031496062992124,
                    "duration": 0.16304362500000025
                },
                {
                    "name": "D#5",
                    "midi": 75,
                    "time": 296.30461450000206,
                    "velocity": 0.3779527559055118,
                    "duration": 0.08152181250000012
                },
                {
                    "name": "C#4",
                    "midi": 61,
                    "time": 296.41331025000204,
                    "velocity": 0.49606299212598426,
                    "duration": 0.08152181250000012
                },
                {
                    "name": "C#5",
                    "midi": 73,
                    "time": 296.41331025000204,
                    "velocity": 0.4015748031496063,
                    "duration": 0.08152181250000012
                },
                {
                    "name": "C#5",
                    "midi": 73,
                    "time": 296.522006000002,
                    "velocity": 0.4015748031496063,
                    "duration": 0.10869574999998122
                },
                {
                    "name": "E4",
                    "midi": 64,
                    "time": 296.522006000002,
                    "velocity": 0.48031496062992124,
                    "duration": 0.32427565416662674
                },
                {
                    "name": "A#4",
                    "midi": 70,
                    "time": 296.739397500002,
                    "velocity": 0.4015748031496063,
                    "duration": 0.10869574999998122
                },
                {
                    "name": "E4",
                    "midi": 64,
                    "time": 296.84809325000197,
                    "velocity": 0.4251968503937008,
                    "duration": 0.1068841541666643
                },
                {
                    "name": "E4",
                    "midi": 64,
                    "time": 296.95678900000195,
                    "velocity": 0.48031496062992124,
                    "duration": 0.16304362500000025
                },
                {
                    "name": "F#4",
                    "midi": 66,
                    "time": 297.17418050000197,
                    "velocity": 0.3779527559055118,
                    "duration": 0.08152181250000012
                },
                {
                    "name": "E4",
                    "midi": 64,
                    "time": 297.28287625000195,
                    "velocity": 0.4015748031496063,
                    "duration": 0.08152181250000012
                },
                {
                    "name": "E4",
                    "midi": 64,
                    "time": 297.39157200000193,
                    "velocity": 0.4015748031496063,
                    "duration": 0.10869574999998122
                },
                {
                    "name": "C#4",
                    "midi": 61,
                    "time": 297.6089635000019,
                    "velocity": 0.4015748031496063,
                    "duration": 0.10869574999998122
                },
                {
                    "name": "F#4",
                    "midi": 66,
                    "time": 298.15244225000185,
                    "velocity": 0.49606299212598426,
                    "duration": 0.08152181250000012
                },
                {
                    "name": "E5",
                    "midi": 76,
                    "time": 298.26113800000184,
                    "velocity": 0.5275590551181102,
                    "duration": 0.3242756541666836
                },
                {
                    "name": "E4",
                    "midi": 64,
                    "time": 298.58722525000184,
                    "velocity": 0.49606299212598426,
                    "duration": 0.08152181250000012
                },
                {
                    "name": "E5",
                    "midi": 76,
                    "time": 298.58722525000184,
                    "velocity": 0.4251968503937008,
                    "duration": 0.1068841541666643
                },
                {
                    "name": "C#5",
                    "midi": 73,
                    "time": 298.6959210000018,
                    "velocity": 0.48031496062992124,
                    "duration": 0.3260872500000005
                },
                {
                    "name": "E5",
                    "midi": 76,
                    "time": 298.6959210000018,
                    "velocity": 0.48031496062992124,
                    "duration": 0.16304362500000025
                },
                {
                    "name": "C#5",
                    "midi": 73,
                    "time": 299.0220082500018,
                    "velocity": 0.4251968503937008,
                    "duration": 0.10869574999998122
                },
                {
                    "name": "C#5",
                    "midi": 73,
                    "time": 299.1307040000018,
                    "velocity": 0.48031496062992124,
                    "duration": 0.16304362500000025
                },
                {
                    "name": "C#5",
                    "midi": 73,
                    "time": 299.8915742500018,
                    "velocity": 0.49606299212598426,
                    "duration": 0.08152181250000012
                },
                {
                    "name": "A#5",
                    "midi": 82,
                    "time": 300.00027000000176,
                    "velocity": 0.5275590551181102,
                    "duration": 0.3242756541666836
                },
                {
                    "name": "C#4",
                    "midi": 61,
                    "time": 300.32635725000176,
                    "velocity": 0.49606299212598426,
                    "duration": 0.08152181250000012
                },
                {
                    "name": "A#5",
                    "midi": 82,
                    "time": 300.32635725000176,
                    "velocity": 0.4251968503937008,
                    "duration": 0.1068841541666643
                },
                {
                    "name": "A#4",
                    "midi": 70,
                    "time": 300.43505300000174,
                    "velocity": 0.48031496062992124,
                    "duration": 0.3260872500000005
                },
                {
                    "name": "A#5",
                    "midi": 82,
                    "time": 300.43505300000174,
                    "velocity": 0.48031496062992124,
                    "duration": 0.16304362500000025
                },
                {
                    "name": "A#4",
                    "midi": 70,
                    "time": 300.76114025000174,
                    "velocity": 0.4251968503937008,
                    "duration": 0.1068841541666643
                },
                {
                    "name": "A#4",
                    "midi": 70,
                    "time": 300.8698360000017,
                    "velocity": 0.48031496062992124,
                    "duration": 0.16304362500000025
                },
                {
                    "name": "E3",
                    "midi": 52,
                    "time": 301.1959232500017,
                    "velocity": 0.5039370078740157,
                    "duration": 0.08152181250000012
                },
                {
                    "name": "C#4",
                    "midi": 61,
                    "time": 301.3046190000017,
                    "velocity": 0.4881889763779528,
                    "duration": 0.7608702499999822
                },
                {
                    "name": "G3",
                    "midi": 55,
                    "time": 302.0654892500017,
                    "velocity": 0.5354330708661418,
                    "duration": 0.08152181250000012
                },
                {
                    "name": "E4",
                    "midi": 64,
                    "time": 302.17418500000167,
                    "velocity": 0.5590551181102362,
                    "duration": 0.5434787500000198
                },
                {
                    "name": "G3",
                    "midi": 55,
                    "time": 302.7176637500017,
                    "velocity": 0.5511811023622047,
                    "duration": 0.08152181250000012
                },
                {
                    "name": "E4",
                    "midi": 64,
                    "time": 302.8263595000017,
                    "velocity": 0.5984251968503937,
                    "duration": 0.3260872500000005
                },
                {
                    "name": "G5",
                    "midi": 79,
                    "time": 303.1524467500017,
                    "velocity": 0.5669291338582677,
                    "duration": 0.08152181250000012
                },
                {
                    "name": "E6",
                    "midi": 88,
                    "time": 303.26114250000165,
                    "velocity": 0.6141732283464567,
                    "duration": 0.3260872500000005
                },
                {
                    "name": "G#3",
                    "midi": 56,
                    "time": 303.58722975000165,
                    "velocity": 0.5826771653543307,
                    "duration": 0.08152181250000012
                },
                {
                    "name": "E4",
                    "midi": 64,
                    "time": 303.69592550000164,
                    "velocity": 0.6220472440944882,
                    "duration": 0.3260872500000005
                },
                {
                    "name": "G#5",
                    "midi": 80,
                    "time": 304.02201275000164,
                    "velocity": 0.5984251968503937,
                    "duration": 0.08152181250000012
                },
                {
                    "name": "E6",
                    "midi": 88,
                    "time": 304.1307085000016,
                    "velocity": 0.6535433070866141,
                    "duration": 0.3260872500000005
                },
                {
                    "name": "A3",
                    "midi": 57,
                    "time": 304.4567957500016,
                    "velocity": 0.6141732283464567,
                    "duration": 0.08152181250000012
                },
                {
                    "name": "E4",
                    "midi": 64,
                    "time": 304.5654915000016,
                    "velocity": 0.6614173228346457,
                    "duration": 0.3260872500000005
                },
                {
                    "name": "A5",
                    "midi": 81,
                    "time": 304.8915787500016,
                    "velocity": 0.6377952755905512,
                    "duration": 0.08152181250000012
                },
                {
                    "name": "E6",
                    "midi": 88,
                    "time": 305.0002745000016,
                    "velocity": 0.6929133858267716,
                    "duration": 0.3260872500000005
                },
                {
                    "name": "A3",
                    "midi": 57,
                    "time": 305.3263617500016,
                    "velocity": 0.6692913385826772,
                    "duration": 0.08152181250000012
                },
                {
                    "name": "F4",
                    "midi": 65,
                    "time": 305.43505750000156,
                    "velocity": 0.7322834645669292,
                    "duration": 0.3260872500000005
                },
                {
                    "name": "A5",
                    "midi": 81,
                    "time": 305.76114475000156,
                    "velocity": 0.7007874015748031,
                    "duration": 0.08152181250000012
                },
                {
                    "name": "F6",
                    "midi": 89,
                    "time": 305.86984050000154,
                    "velocity": 0.7952755905511811,
                    "duration": 0.21739150000001928
                },
                {
                    "name": "D5",
                    "midi": 74,
                    "time": 306.08723200000156,
                    "velocity": 0.6456692913385826,
                    "duration": 0.16304362500000025
                },
                {
                    "name": "A#5",
                    "midi": 82,
                    "time": 306.08723200000156,
                    "velocity": 0.6456692913385826,
                    "duration": 0.16304362500000025
                },
                {
                    "name": "F5",
                    "midi": 77,
                    "time": 306.08723200000156,
                    "velocity": 0.6456692913385826,
                    "duration": 0.16304362500000025
                },
                {
                    "name": "D6",
                    "midi": 86,
                    "time": 306.0971957770849,
                    "velocity": 0.7795275590551181,
                    "duration": 0.16304362500000025
                },
                {
                    "name": "D5",
                    "midi": 74,
                    "time": 306.41331925000156,
                    "velocity": 0.7165354330708661,
                    "duration": 0.10869574999998122
                },
                {
                    "name": "A#5",
                    "midi": 82,
                    "time": 306.41331925000156,
                    "velocity": 0.7165354330708661,
                    "duration": 0.10869574999998122
                },
                {
                    "name": "D6",
                    "midi": 86,
                    "time": 306.41331925000156,
                    "velocity": 0.8740157480314961,
                    "duration": 0.10869574999998122
                },
                {
                    "name": "F5",
                    "midi": 77,
                    "time": 306.41331925000156,
                    "velocity": 0.7165354330708661,
                    "duration": 0.10869574999998122
                },
                {
                    "name": "F5",
                    "midi": 77,
                    "time": 306.52201500000155,
                    "velocity": 0.6456692913385826,
                    "duration": 0.16304362500000025
                },
                {
                    "name": "D6",
                    "midi": 86,
                    "time": 306.52201500000155,
                    "velocity": 0.7795275590551181,
                    "duration": 0.16304362500000025
                },
                {
                    "name": "A#5",
                    "midi": 82,
                    "time": 306.52201500000155,
                    "velocity": 0.6456692913385826,
                    "duration": 0.16304362500000025
                },
                {
                    "name": "D5",
                    "midi": 74,
                    "time": 306.52201500000155,
                    "velocity": 0.6456692913385826,
                    "duration": 0.16304362500000025
                },
                {
                    "name": "D5",
                    "midi": 74,
                    "time": 306.73940650000156,
                    "velocity": 0.6614173228346457,
                    "duration": 0.04076090625000006
                },
                {
                    "name": "D#6",
                    "midi": 87,
                    "time": 306.73940650000156,
                    "velocity": 0.8188976377952756,
                    "duration": 0.04076090625000006
                },
                {
                    "name": "A#5",
                    "midi": 82,
                    "time": 306.73940650000156,
                    "velocity": 0.6614173228346457,
                    "duration": 0.04076090625000006
                },
                {
                    "name": "F5",
                    "midi": 77,
                    "time": 306.73940650000156,
                    "velocity": 0.6614173228346457,
                    "duration": 0.04076090625000006
                },
                {
                    "name": "D5",
                    "midi": 74,
                    "time": 306.84810225000155,
                    "velocity": 0.6771653543307087,
                    "duration": 0.04076090625000006
                },
                {
                    "name": "D6",
                    "midi": 86,
                    "time": 306.84810225000155,
                    "velocity": 0.8031496062992126,
                    "duration": 0.04076090625000006
                },
                {
                    "name": "F5",
                    "midi": 77,
                    "time": 306.84810225000155,
                    "velocity": 0.6771653543307087,
                    "duration": 0.04076090625000006
                },
                {
                    "name": "A#5",
                    "midi": 82,
                    "time": 306.84810225000155,
                    "velocity": 0.6771653543307087,
                    "duration": 0.04076090625000006
                },
                {
                    "name": "F5",
                    "midi": 77,
                    "time": 306.9567980000015,
                    "velocity": 0.7165354330708661,
                    "duration": 0.10869574999998122
                },
                {
                    "name": "D5",
                    "midi": 74,
                    "time": 306.9567980000015,
                    "velocity": 0.7165354330708661,
                    "duration": 0.10869574999998122
                },
                {
                    "name": "A#5",
                    "midi": 82,
                    "time": 306.9567980000015,
                    "velocity": 0.7165354330708661,
                    "duration": 0.10869574999998122
                },
                {
                    "name": "D6",
                    "midi": 86,
                    "time": 306.9567980000015,
                    "velocity": 0.8740157480314961,
                    "duration": 0.10869574999998122
                },
                {
                    "name": "D5",
                    "midi": 74,
                    "time": 307.1741895000015,
                    "velocity": 0.6614173228346457,
                    "duration": 0.10869574999998122
                },
                {
                    "name": "A#4",
                    "midi": 70,
                    "time": 307.1741895000015,
                    "velocity": 0.6614173228346457,
                    "duration": 0.10869574999998122
                },
                {
                    "name": "F5",
                    "midi": 77,
                    "time": 307.1741895000015,
                    "velocity": 0.6614173228346457,
                    "duration": 0.10869574999998122
                },
                {
                    "name": "A#5",
                    "midi": 82,
                    "time": 307.1741895000015,
                    "velocity": 0.7952755905511811,
                    "duration": 0.10869574999998122
                },
                {
                    "name": "F5",
                    "midi": 77,
                    "time": 307.71766825000145,
                    "velocity": 0.7952755905511811,
                    "duration": 0.10869574999998122
                },
                {
                    "name": "D5",
                    "midi": 74,
                    "time": 307.71766825000145,
                    "velocity": 0.7322834645669292,
                    "duration": 0.10869574999998122
                },
                {
                    "name": "A#5",
                    "midi": 82,
                    "time": 307.82636400000143,
                    "velocity": 0.6456692913385826,
                    "duration": 0.16304362500000025
                },
                {
                    "name": "F5",
                    "midi": 77,
                    "time": 307.82636400000143,
                    "velocity": 0.6456692913385826,
                    "duration": 0.16304362500000025
                },
                {
                    "name": "F6",
                    "midi": 89,
                    "time": 307.82636400000143,
                    "velocity": 0.7795275590551181,
                    "duration": 0.16304362500000025
                },
                {
                    "name": "A#5",
                    "midi": 82,
                    "time": 308.15245125000143,
                    "velocity": 0.7165354330708661,
                    "duration": 0.10869574999998122
                },
                {
                    "name": "F5",
                    "midi": 77,
                    "time": 308.15245125000143,
                    "velocity": 0.7165354330708661,
                    "duration": 0.10869574999998122
                },
                {
                    "name": "F6",
                    "midi": 89,
                    "time": 308.15245125000143,
                    "velocity": 0.8740157480314961,
                    "duration": 0.10869574999998122
                },
                {
                    "name": "D6",
                    "midi": 86,
                    "time": 308.15245125000143,
                    "velocity": 0.7165354330708661,
                    "duration": 0.10869574999998122
                },
                {
                    "name": "D6",
                    "midi": 86,
                    "time": 308.2611470000014,
                    "velocity": 0.6456692913385826,
                    "duration": 0.16304362500000025
                },
                {
                    "name": "A#5",
                    "midi": 82,
                    "time": 308.2611470000014,
                    "velocity": 0.6456692913385826,
                    "duration": 0.16304362500000025
                },
                {
                    "name": "F5",
                    "midi": 77,
                    "time": 308.2611470000014,
                    "velocity": 0.6456692913385826,
                    "duration": 0.16304362500000025
                },
                {
                    "name": "F6",
                    "midi": 89,
                    "time": 308.2611470000014,
                    "velocity": 0.7795275590551181,
                    "duration": 0.16304362500000025
                },
                {
                    "name": "G6",
                    "midi": 91,
                    "time": 308.47853850000143,
                    "velocity": 0.8188976377952756,
                    "duration": 0.04076090625000006
                },
                {
                    "name": "D6",
                    "midi": 86,
                    "time": 308.47853850000143,
                    "velocity": 0.6614173228346457,
                    "duration": 0.04076090625000006
                },
                {
                    "name": "A#5",
                    "midi": 82,
                    "time": 308.47853850000143,
                    "velocity": 0.6614173228346457,
                    "duration": 0.04076090625000006
                },
                {
                    "name": "F5",
                    "midi": 77,
                    "time": 308.47853850000143,
                    "velocity": 0.6614173228346457,
                    "duration": 0.04076090625000006
                },
                {
                    "name": "F6",
                    "midi": 89,
                    "time": 308.5872342500014,
                    "velocity": 0.8031496062992126,
                    "duration": 0.04076090625000006
                },
                {
                    "name": "D6",
                    "midi": 86,
                    "time": 308.5872342500014,
                    "velocity": 0.6771653543307087,
                    "duration": 0.04076090625000006
                },
                {
                    "name": "F5",
                    "midi": 77,
                    "time": 308.5872342500014,
                    "velocity": 0.6771653543307087,
                    "duration": 0.04076090625000006
                },
                {
                    "name": "A#5",
                    "midi": 82,
                    "time": 308.5872342500014,
                    "velocity": 0.6771653543307087,
                    "duration": 0.04076090625000006
                },
                {
                    "name": "F6",
                    "midi": 89,
                    "time": 308.6959300000014,
                    "velocity": 0.8740157480314961,
                    "duration": 0.10869574999998122
                },
                {
                    "name": "D6",
                    "midi": 86,
                    "time": 308.6959300000014,
                    "velocity": 0.7165354330708661,
                    "duration": 0.10869574999998122
                },
                {
                    "name": "A#5",
                    "midi": 82,
                    "time": 308.6959300000014,
                    "velocity": 0.7165354330708661,
                    "duration": 0.10869574999998122
                },
                {
                    "name": "F5",
                    "midi": 77,
                    "time": 308.6959300000014,
                    "velocity": 0.7165354330708661,
                    "duration": 0.10869574999998122
                },
                {
                    "name": "D6",
                    "midi": 86,
                    "time": 308.91332150000136,
                    "velocity": 0.7952755905511811,
                    "duration": 0.10869574999998122
                },
                {
                    "name": "D5",
                    "midi": 74,
                    "time": 308.91332150000136,
                    "velocity": 0.6614173228346457,
                    "duration": 0.10869574999998122
                },
                {
                    "name": "F5",
                    "midi": 77,
                    "time": 308.91332150000136,
                    "velocity": 0.6614173228346457,
                    "duration": 0.10869574999998122
                },
                {
                    "name": "A#5",
                    "midi": 82,
                    "time": 308.91332150000136,
                    "velocity": 0.6614173228346457,
                    "duration": 0.10869574999998122
                },
                {
                    "name": "G5",
                    "midi": 79,
                    "time": 309.34810450000134,
                    "velocity": 0.3543307086614173,
                    "duration": 0.10869574999998122
                },
                {
                    "name": "A#5",
                    "midi": 82,
                    "time": 309.34810450000134,
                    "velocity": 0.4251968503937008,
                    "duration": 0.10869574999998122
                },
                {
                    "name": "A5",
                    "midi": 81,
                    "time": 309.4568002500013,
                    "velocity": 0.33858267716535434,
                    "duration": 0.10869574999998122
                },
                {
                    "name": "C6",
                    "midi": 84,
                    "time": 309.4568002500013,
                    "velocity": 0.4015748031496063,
                    "duration": 0.10869574999998122
                },
                {
                    "name": "F5",
                    "midi": 77,
                    "time": 309.5654960000013,
                    "velocity": 0.4015748031496063,
                    "duration": 0.4347829999999817
                },
                {
                    "name": "D6",
                    "midi": 86,
                    "time": 309.5654960000013,
                    "velocity": 0.48031496062992124,
                    "duration": 0.4347829999999817
                },
                {
                    "name": "A#5",
                    "midi": 82,
                    "time": 309.5654960000013,
                    "velocity": 0.4015748031496063,
                    "duration": 0.4347829999999817
                },
                {
                    "name": "F5",
                    "midi": 77,
                    "time": 310.0002790000013,
                    "velocity": 0.3700787401574803,
                    "duration": 0.21739150000001928
                },
                {
                    "name": "C6",
                    "midi": 84,
                    "time": 310.0002790000013,
                    "velocity": 0.4409448818897638,
                    "duration": 0.21739150000001928
                },
                {
                    "name": "A5",
                    "midi": 81,
                    "time": 310.0002790000013,
                    "velocity": 0.3700787401574803,
                    "duration": 0.21739150000001928
                },
                {
                    "name": "A4",
                    "midi": 69,
                    "time": 310.2176705000013,
                    "velocity": 0.3700787401574803,
                    "duration": 0.10869574999998122
                },
                {
                    "name": "C5",
                    "midi": 72,
                    "time": 310.2176705000013,
                    "velocity": 0.4409448818897638,
                    "duration": 0.10869574999998122
                },
                {
                    "name": "F4",
                    "midi": 65,
                    "time": 310.2176705000013,
                    "velocity": 0.3228346456692913,
                    "duration": 0.21739149999996243
                },
                {
                    "name": "B4",
                    "midi": 71,
                    "time": 310.3263662500013,
                    "velocity": 0.2755905511811024,
                    "duration": 0.10869574999998122
                },
                {
                    "name": "D5",
                    "midi": 74,
                    "time": 310.3263662500013,
                    "velocity": 0.36220472440944884,
                    "duration": 0.10869574999998122
                },
                {
                    "name": "G4",
                    "midi": 67,
                    "time": 310.43506200000127,
                    "velocity": 0.3858267716535433,
                    "duration": 0.4347829999999817
                },
                {
                    "name": "C5",
                    "midi": 72,
                    "time": 310.43506200000127,
                    "velocity": 0.3858267716535433,
                    "duration": 0.4347829999999817
                },
                {
                    "name": "D#5",
                    "midi": 75,
                    "time": 310.43506200000127,
                    "velocity": 0.4566929133858268,
                    "duration": 0.4347829999999817
                },
                {
                    "name": "G4",
                    "midi": 67,
                    "time": 310.86984500000125,
                    "velocity": 0.33858267716535434,
                    "duration": 0.21739150000001928
                },
                {
                    "name": "D5",
                    "midi": 74,
                    "time": 310.86984500000125,
                    "velocity": 0.4015748031496063,
                    "duration": 0.21739150000001928
                },
                {
                    "name": "A#4",
                    "midi": 70,
                    "time": 310.86984500000125,
                    "velocity": 0.33858267716535434,
                    "duration": 0.21739150000001928
                },
                {
                    "name": "D5",
                    "midi": 74,
                    "time": 311.08723650000127,
                    "velocity": 0.4566929133858268,
                    "duration": 0.10869574999998122
                },
                {
                    "name": "A#4",
                    "midi": 70,
                    "time": 311.08723650000127,
                    "velocity": 0.3858267716535433,
                    "duration": 0.4347829999999817
                },
                {
                    "name": "D#5",
                    "midi": 75,
                    "time": 311.19593225000125,
                    "velocity": 0.47244094488188976,
                    "duration": 0.10869574999998122
                },
                {
                    "name": "F5",
                    "midi": 77,
                    "time": 311.30462800000123,
                    "velocity": 0.49606299212598426,
                    "duration": 0.3260872500000005
                },
                {
                    "name": "G4",
                    "midi": 67,
                    "time": 311.52201950000125,
                    "velocity": 0.3543307086614173,
                    "duration": 0.21739149999996243
                },
                {
                    "name": "A#4",
                    "midi": 70,
                    "time": 311.52201950000125,
                    "velocity": 0.4251968503937008,
                    "duration": 0.21739149999996243
                },
                {
                    "name": "G5",
                    "midi": 79,
                    "time": 311.63071525000123,
                    "velocity": 0.47244094488188976,
                    "duration": 0.10869574999998122
                },
                {
                    "name": "G4",
                    "midi": 67,
                    "time": 311.7394110000012,
                    "velocity": 0.4881889763779528,
                    "duration": 0.21739149999996243
                },
                {
                    "name": "F5",
                    "midi": 77,
                    "time": 311.7394110000012,
                    "velocity": 0.4881889763779528,
                    "duration": 0.10869574999998122
                },
                {
                    "name": "D#5",
                    "midi": 75,
                    "time": 311.8481067500012,
                    "velocity": 0.4015748031496063,
                    "duration": 0.21739149999996243
                },
                {
                    "name": "A4",
                    "midi": 69,
                    "time": 311.9568025000012,
                    "velocity": 0.44881889763779526,
                    "duration": 0.21739149999996243
                },
                {
                    "name": "F5",
                    "midi": 77,
                    "time": 312.06549825000116,
                    "velocity": 0.3937007874015748,
                    "duration": 0.10869574999998122
                },
                {
                    "name": "A#4",
                    "midi": 70,
                    "time": 312.17419400000114,
                    "velocity": 0.4015748031496063,
                    "duration": 0.21739149999996243
                },
                {
                    "name": "D#5",
                    "midi": 75,
                    "time": 312.17419400000114,
                    "velocity": 0.47244094488188976,
                    "duration": 0.10869574999998122
                },
                {
                    "name": "D5",
                    "midi": 74,
                    "time": 312.2828897500011,
                    "velocity": 0.36220472440944884,
                    "duration": 0.10869574999998122
                },
                {
                    "name": "F4",
                    "midi": 65,
                    "time": 312.3915855000011,
                    "velocity": 0.3228346456692913,
                    "duration": 0.10869574999998122
                },
                {
                    "name": "G#4",
                    "midi": 68,
                    "time": 312.3915855000011,
                    "velocity": 0.3228346456692913,
                    "duration": 0.10869574999998122
                },
                {
                    "name": "D5",
                    "midi": 74,
                    "time": 312.3915855000011,
                    "velocity": 0.3858267716535433,
                    "duration": 0.10869574999998122
                },
                {
                    "name": "F5",
                    "midi": 77,
                    "time": 312.3915855000011,
                    "velocity": 0.3858267716535433,
                    "duration": 0.10869574999998122
                },
                {
                    "name": "G4",
                    "midi": 67,
                    "time": 312.5002812500011,
                    "velocity": 0.29133858267716534,
                    "duration": 0.10869574999998122
                },
                {
                    "name": "C5",
                    "midi": 72,
                    "time": 312.5002812500011,
                    "velocity": 0.3464566929133858,
                    "duration": 0.10869574999998122
                },
                {
                    "name": "D#5",
                    "midi": 75,
                    "time": 312.5002812500011,
                    "velocity": 0.3464566929133858,
                    "duration": 0.10869574999998122
                },
                {
                    "name": "D#4",
                    "midi": 63,
                    "time": 312.5002812500011,
                    "velocity": 0.29133858267716534,
                    "duration": 0.10869574999998122
                },
                {
                    "name": "C4",
                    "midi": 60,
                    "time": 312.60897700000106,
                    "velocity": 0.2677165354330709,
                    "duration": 0.21739150000001928
                },
                {
                    "name": "C5",
                    "midi": 72,
                    "time": 312.60897700000106,
                    "velocity": 0.31496062992125984,
                    "duration": 0.21739150000001928
                },
                {
                    "name": "A4",
                    "midi": 69,
                    "time": 312.60897700000106,
                    "velocity": 0.31496062992125984,
                    "duration": 0.21739150000001928
                },
                {
                    "name": "D5",
                    "midi": 74,
                    "time": 312.8263685000011,
                    "velocity": 0.4566929133858268,
                    "duration": 0.10869574999998122
                },
                {
                    "name": "D#5",
                    "midi": 75,
                    "time": 312.93506425000106,
                    "velocity": 0.47244094488188976,
                    "duration": 0.10869574999998122
                },
                {
                    "name": "F5",
                    "midi": 77,
                    "time": 313.04376000000104,
                    "velocity": 0.49606299212598426,
                    "duration": 0.32608724999994365
                },
                {
                    "name": "A4",
                    "midi": 69,
                    "time": 313.152455750001,
                    "velocity": 0.3543307086614173,
                    "duration": 0.10869574999998122
                },
                {
                    "name": "A#4",
                    "midi": 70,
                    "time": 313.261151500001,
                    "velocity": 0.4251968503937008,
                    "duration": 0.32608724999994365
                },
                {
                    "name": "G5",
                    "midi": 79,
                    "time": 313.369847250001,
                    "velocity": 0.47244094488188976,
                    "duration": 0.10869574999998122
                },
                {
                    "name": "D#5",
                    "midi": 75,
                    "time": 313.47854300000097,
                    "velocity": 0.5039370078740157,
                    "duration": 0.32608724999994365
                },
                {
                    "name": "F#4",
                    "midi": 66,
                    "time": 313.58723875000095,
                    "velocity": 0.3700787401574803,
                    "duration": 0.10869574999998122
                },
                {
                    "name": "A4",
                    "midi": 69,
                    "time": 313.69593450000093,
                    "velocity": 0.41732283464566927,
                    "duration": 0.32608724999994365
                },
                {
                    "name": "F5",
                    "midi": 77,
                    "time": 313.8046302500009,
                    "velocity": 0.3937007874015748,
                    "duration": 0.10869574999998122
                },
                {
                    "name": "D#5",
                    "midi": 75,
                    "time": 313.9133260000009,
                    "velocity": 0.47244094488188976,
                    "duration": 0.10869574999998122
                },
                {
                    "name": "A#4",
                    "midi": 70,
                    "time": 314.0220217500009,
                    "velocity": 0.3937007874015748,
                    "duration": 0.10869574999998122
                },
                {
                    "name": "D5",
                    "midi": 74,
                    "time": 314.0220217500009,
                    "velocity": 0.3937007874015748,
                    "duration": 0.10869574999998122
                },
                {
                    "name": "F5",
                    "midi": 77,
                    "time": 314.13071750000086,
                    "velocity": 0.44881889763779526,
                    "duration": 0.10869574999998122
                },
                {
                    "name": "F4",
                    "midi": 65,
                    "time": 314.13071750000086,
                    "velocity": 0.2755905511811024,
                    "duration": 0.4347829999999817
                },
                {
                    "name": "D#5",
                    "midi": 75,
                    "time": 314.23941325000084,
                    "velocity": 0.4330708661417323,
                    "duration": 0.10869574999998122
                },
                {
                    "name": "C5",
                    "midi": 72,
                    "time": 314.3481090000008,
                    "velocity": 0.3937007874015748,
                    "duration": 0.21739150000001928
                },
                {
                    "name": "D#5",
                    "midi": 75,
                    "time": 314.56550050000084,
                    "velocity": 0.4566929133858268,
                    "duration": 0.10869574999998122
                },
                {
                    "name": "D#4",
                    "midi": 63,
                    "time": 314.56550050000084,
                    "velocity": 0.3858267716535433,
                    "duration": 0.10869574999998122
                },
                {
                    "name": "F5",
                    "midi": 77,
                    "time": 314.6741962500008,
                    "velocity": 0.47244094488188976,
                    "duration": 0.10869574999998122
                },
                {
                    "name": "F4",
                    "midi": 65,
                    "time": 314.6741962500008,
                    "velocity": 0.4015748031496063,
                    "duration": 0.10869574999998122
                },
                {
                    "name": "G5",
                    "midi": 79,
                    "time": 314.7828920000008,
                    "velocity": 0.49606299212598426,
                    "duration": 0.32608724999994365
                },
                {
                    "name": "G4",
                    "midi": 67,
                    "time": 314.7828920000008,
                    "velocity": 0.3543307086614173,
                    "duration": 0.10869574999998122
                },
                {
                    "name": "A4",
                    "midi": 69,
                    "time": 314.8915877500008,
                    "velocity": 0.3543307086614173,
                    "duration": 0.10869574999998122
                },
                {
                    "name": "A#4",
                    "midi": 70,
                    "time": 315.00028350000076,
                    "velocity": 0.4251968503937008,
                    "duration": 0.32608724999994365
                },
                {
                    "name": "G#5",
                    "midi": 80,
                    "time": 315.10897925000074,
                    "velocity": 0.47244094488188976,
                    "duration": 0.10869574999998122
                },
                {
                    "name": "F5",
                    "midi": 77,
                    "time": 315.2176750000007,
                    "velocity": 0.5039370078740157,
                    "duration": 0.32608724999994365
                },
                {
                    "name": "A4",
                    "midi": 69,
                    "time": 315.3263707500007,
                    "velocity": 0.3700787401574803,
                    "duration": 0.10869574999998122
                },
                {
                    "name": "A#4",
                    "midi": 70,
                    "time": 315.4350665000007,
                    "velocity": 0.41732283464566927,
                    "duration": 0.43478299999992487
                },
                {
                    "name": "G5",
                    "midi": 79,
                    "time": 315.54376225000067,
                    "velocity": 0.3937007874015748,
                    "duration": 0.10869574999998122
                },
                {
                    "name": "F5",
                    "midi": 77,
                    "time": 315.65245800000065,
                    "velocity": 0.47244094488188976,
                    "duration": 0.10869574999998122
                },
                {
                    "name": "D#5",
                    "midi": 75,
                    "time": 315.76115375000063,
                    "velocity": 0.3937007874015748,
                    "duration": 0.10869574999998122
                },
                {
                    "name": "A#4",
                    "midi": 70,
                    "time": 315.8698495000006,
                    "velocity": 0.2755905511811024,
                    "duration": 0.4347829999999817
                },
                {
                    "name": "G5",
                    "midi": 79,
                    "time": 315.8698495000006,
                    "velocity": 0.44881889763779526,
                    "duration": 0.10869574999998122
                },
                {
                    "name": "F5",
                    "midi": 77,
                    "time": 315.9785452500006,
                    "velocity": 0.4330708661417323,
                    "duration": 0.10869574999998122
                },
                {
                    "name": "D5",
                    "midi": 74,
                    "time": 316.0872410000006,
                    "velocity": 0.3937007874015748,
                    "duration": 0.21739150000001928
                },
                {
                    "name": "F5",
                    "midi": 77,
                    "time": 316.3046325000006,
                    "velocity": 0.4566929133858268,
                    "duration": 0.10869574999998122
                },
                {
                    "name": "F#5",
                    "midi": 78,
                    "time": 316.4133282500006,
                    "velocity": 0.47244094488188976,
                    "duration": 0.10869574999998122
                },
                {
                    "name": "G#5",
                    "midi": 80,
                    "time": 316.52202400000056,
                    "velocity": 0.49606299212598426,
                    "duration": 0.32608724999994365
                },
                {
                    "name": "A4",
                    "midi": 69,
                    "time": 316.63071975000054,
                    "velocity": 0.3543307086614173,
                    "duration": 0.10869574999998122
                },
                {
                    "name": "A#4",
                    "midi": 70,
                    "time": 316.7394155000005,
                    "velocity": 0.4251968503937008,
                    "duration": 0.4347829999999817
                },
                {
                    "name": "A#5",
                    "midi": 82,
                    "time": 316.8481112500005,
                    "velocity": 0.47244094488188976,
                    "duration": 0.10869574999998122
                },
                {
                    "name": "F#5",
                    "midi": 78,
                    "time": 316.9568070000005,
                    "velocity": 0.5039370078740157,
                    "duration": 0.21739150000001928
                },
                {
                    "name": "F#4",
                    "midi": 66,
                    "time": 317.1741985000005,
                    "velocity": 0.3858267716535433,
                    "duration": 0.10869574999998122
                },
                {
                    "name": "F#5",
                    "midi": 78,
                    "time": 317.1741985000005,
                    "velocity": 0.4566929133858268,
                    "duration": 0.10869574999998122
                },
                {
                    "name": "G#4",
                    "midi": 68,
                    "time": 317.2828942500005,
                    "velocity": 0.4015748031496063,
                    "duration": 0.10869574999998122
                },
                {
                    "name": "G#5",
                    "midi": 80,
                    "time": 317.2828942500005,
                    "velocity": 0.47244094488188976,
                    "duration": 0.10869574999998122
                },
                {
                    "name": "A#5",
                    "midi": 82,
                    "time": 317.39159000000046,
                    "velocity": 0.49606299212598426,
                    "duration": 0.32608724999994365
                },
                {
                    "name": "A#4",
                    "midi": 70,
                    "time": 317.39159000000046,
                    "velocity": 0.2992125984251969,
                    "duration": 0.10869574999998122
                },
                {
                    "name": "C5",
                    "midi": 72,
                    "time": 317.50028575000044,
                    "velocity": 0.3543307086614173,
                    "duration": 0.10869574999998122
                },
                {
                    "name": "C#5",
                    "midi": 73,
                    "time": 317.6089815000004,
                    "velocity": 0.4251968503937008,
                    "duration": 0.32608724999994365
                },
                {
                    "name": "B5",
                    "midi": 83,
                    "time": 317.7176772500004,
                    "velocity": 0.47244094488188976,
                    "duration": 0.10869574999998122
                },
                {
                    "name": "G#5",
                    "midi": 80,
                    "time": 317.8263730000004,
                    "velocity": 0.5039370078740157,
                    "duration": 0.21739149999996243
                },
                {
                    "name": "F5",
                    "midi": 77,
                    "time": 317.93506875000037,
                    "velocity": 0.3543307086614173,
                    "duration": 0.10869574999998122
                },
                {
                    "name": "F#5",
                    "midi": 78,
                    "time": 318.04376450000035,
                    "velocity": 0.3700787401574803,
                    "duration": 0.10869574999998122
                },
                {
                    "name": "A#5",
                    "midi": 82,
                    "time": 318.04376450000035,
                    "velocity": 0.4409448818897638,
                    "duration": 0.10869574999998122
                },
                {
                    "name": "B5",
                    "midi": 83,
                    "time": 318.15246025000033,
                    "velocity": 0.47244094488188976,
                    "duration": 0.10869574999998122
                },
                {
                    "name": "G#5",
                    "midi": 80,
                    "time": 318.15246025000033,
                    "velocity": 0.4015748031496063,
                    "duration": 0.10869574999998122
                },
                {
                    "name": "A#5",
                    "midi": 82,
                    "time": 318.2611560000003,
                    "velocity": 0.5118110236220472,
                    "duration": 0.21739150000001928
                },
                {
                    "name": "C#6",
                    "midi": 85,
                    "time": 318.2611560000003,
                    "velocity": 0.5118110236220472,
                    "duration": 0.3260872500000005
                },
                {
                    "name": "F#5",
                    "midi": 78,
                    "time": 318.47854750000033,
                    "velocity": 0.4251968503937008,
                    "duration": 0.43478299999992487
                },
                {
                    "name": "D#6",
                    "midi": 87,
                    "time": 318.5872432500003,
                    "velocity": 0.5039370078740157,
                    "duration": 0.10869574999998122
                },
                {
                    "name": "C#6",
                    "midi": 85,
                    "time": 318.6959390000003,
                    "velocity": 0.47244094488188976,
                    "duration": 0.10869574999998122
                },
                {
                    "name": "B5",
                    "midi": 83,
                    "time": 318.8046347500003,
                    "velocity": 0.33858267716535434,
                    "duration": 0.21739149999996243
                },
                {
                    "name": "F5",
                    "midi": 77,
                    "time": 318.91333050000026,
                    "velocity": 0.41732283464566927,
                    "duration": 0.43478299999992487
                },
                {
                    "name": "C#6",
                    "midi": 85,
                    "time": 319.02202625000024,
                    "velocity": 0.49606299212598426,
                    "duration": 0.10869574999998122
                },
                {
                    "name": "B5",
                    "midi": 83,
                    "time": 319.1307220000002,
                    "velocity": 0.47244094488188976,
                    "duration": 0.10869574999998122
                },
                {
                    "name": "A#5",
                    "midi": 82,
                    "time": 319.2394177500002,
                    "velocity": 0.36220472440944884,
                    "duration": 0.21739149999996243
                },
                {
                    "name": "F#5",
                    "midi": 78,
                    "time": 319.3481135000002,
                    "velocity": 0.41732283464566927,
                    "duration": 0.32608724999994365
                },
                {
                    "name": "B5",
                    "midi": 83,
                    "time": 319.45680925000016,
                    "velocity": 0.4881889763779528,
                    "duration": 0.10869574999998122
                },
                {
                    "name": "A#5",
                    "midi": 82,
                    "time": 319.56550500000014,
                    "velocity": 0.4566929133858268,
                    "duration": 0.10869574999998122
                },
                {
                    "name": "F5",
                    "midi": 77,
                    "time": 319.6742007500001,
                    "velocity": 0.3228346456692913,
                    "duration": 0.10869574999998122
                },
                {
                    "name": "G#5",
                    "midi": 80,
                    "time": 319.6742007500001,
                    "velocity": 0.3779527559055118,
                    "duration": 0.10869574999998122
                },
                {
                    "name": "F#5",
                    "midi": 78,
                    "time": 319.7828965000001,
                    "velocity": 0.3779527559055118,
                    "duration": 0.10869574999998122
                },
                {
                    "name": "A#5",
                    "midi": 82,
                    "time": 319.7828965000001,
                    "velocity": 0.4409448818897638,
                    "duration": 0.10869574999998122
                },
                {
                    "name": "B5",
                    "midi": 83,
                    "time": 319.8915922500001,
                    "velocity": 0.47244094488188976,
                    "duration": 0.10869574999998122
                },
                {
                    "name": "G#5",
                    "midi": 80,
                    "time": 319.8915922500001,
                    "velocity": 0.3937007874015748,
                    "duration": 0.10869574999998122
                },
                {
                    "name": "D#6",
                    "midi": 87,
                    "time": 320.00028800000007,
                    "velocity": 0.5039370078740157,
                    "duration": 0.10869574999998122
                },
                {
                    "name": "G#5",
                    "midi": 80,
                    "time": 320.00028800000007,
                    "velocity": 0.4015748031496063,
                    "duration": 0.10869574999998122
                },
                {
                    "name": "C#6",
                    "midi": 85,
                    "time": 320.10898375000005,
                    "velocity": 0.4566929133858268,
                    "duration": 0.10869574999998122
                },
                {
                    "name": "F5",
                    "midi": 77,
                    "time": 320.10898375000005,
                    "velocity": 0.36220472440944884,
                    "duration": 0.10869574999998122
                },
                {
                    "name": "D#6",
                    "midi": 87,
                    "time": 320.21767950000003,
                    "velocity": 0.5118110236220472,
                    "duration": 0.10869574999998122
                },
                {
                    "name": "F#5",
                    "midi": 78,
                    "time": 320.21767950000003,
                    "velocity": 0.4094488188976378,
                    "duration": 0.32608724999994365
                },
                {
                    "name": "C#6",
                    "midi": 85,
                    "time": 320.32637525,
                    "velocity": 0.4566929133858268,
                    "duration": 0.10869574999998122
                },
                {
                    "name": "C#6",
                    "midi": 85,
                    "time": 320.435071,
                    "velocity": 0.5196850393700787,
                    "duration": 0.10869574999998122
                },
                {
                    "name": "B5",
                    "midi": 83,
                    "time": 320.54376675,
                    "velocity": 0.4566929133858268,
                    "duration": 0.10869574999998122
                },
                {
                    "name": "E5",
                    "midi": 76,
                    "time": 320.54376675,
                    "velocity": 0.36220472440944884,
                    "duration": 0.10869574999998122
                },
                {
                    "name": "C#6",
                    "midi": 85,
                    "time": 320.65246249999996,
                    "velocity": 0.5275590551181102,
                    "duration": 0.10869574999998122
                },
                {
                    "name": "F5",
                    "midi": 77,
                    "time": 320.65246249999996,
                    "velocity": 0.41732283464566927,
                    "duration": 0.32608724999994365
                },
                {
                    "name": "B5",
                    "midi": 83,
                    "time": 320.76115824999994,
                    "velocity": 0.47244094488188976,
                    "duration": 0.10869574999998122
                },
                {
                    "name": "B5",
                    "midi": 83,
                    "time": 320.8698539999999,
                    "velocity": 0.5275590551181102,
                    "duration": 0.10869574999998122
                },
                {
                    "name": "A#5",
                    "midi": 82,
                    "time": 320.9785497499999,
                    "velocity": 0.48031496062992124,
                    "duration": 0.10869574999998122
                },
                {
                    "name": "C#5",
                    "midi": 73,
                    "time": 320.9785497499999,
                    "velocity": 0.3779527559055118,
                    "duration": 0.10869574999998122
                },
                {
                    "name": "B5",
                    "midi": 83,
                    "time": 321.0872454999999,
                    "velocity": 0.5354330708661418,
                    "duration": 0.10869574999998122
                },
                {
                    "name": "F#5",
                    "midi": 78,
                    "time": 321.0872454999999,
                    "velocity": 0.4251968503937008,
                    "duration": 0.32608724999994365
                },
                {
                    "name": "A#5",
                    "midi": 82,
                    "time": 321.19594124999986,
                    "velocity": 0.48031496062992124,
                    "duration": 0.10869574999998122
                },
                {
                    "name": "A#5",
                    "midi": 82,
                    "time": 321.30463699999984,
                    "velocity": 0.5433070866141733,
                    "duration": 0.10869574999998122
                },
                {
                    "name": "G#5",
                    "midi": 80,
                    "time": 321.4133327499998,
                    "velocity": 0.4881889763779528,
                    "duration": 0.10869574999998122
                },
                {
                    "name": "F5",
                    "midi": 77,
                    "time": 321.4133327499998,
                    "velocity": 0.3858267716535433,
                    "duration": 0.10869574999998122
                },
                {
                    "name": "A#5",
                    "midi": 82,
                    "time": 321.5220284999998,
                    "velocity": 0.5433070866141733,
                    "duration": 0.10869574999998122
                },
                {
                    "name": "F#5",
                    "midi": 78,
                    "time": 321.5220284999998,
                    "velocity": 0.4330708661417323,
                    "duration": 0.10869574999998122
                },
                {
                    "name": "G#5",
                    "midi": 80,
                    "time": 321.6307242499998,
                    "velocity": 0.4015748031496063,
                    "duration": 0.10869574999998122
                },
                {
                    "name": "B5",
                    "midi": 83,
                    "time": 321.6307242499998,
                    "velocity": 0.49606299212598426,
                    "duration": 0.10869574999998122
                },
                {
                    "name": "F5",
                    "midi": 77,
                    "time": 321.73941999999977,
                    "velocity": 0.4409448818897638,
                    "duration": 0.10869574999998122
                },
                {
                    "name": "D#6",
                    "midi": 87,
                    "time": 321.73941999999977,
                    "velocity": 0.5511811023622047,
                    "duration": 0.10869574999998122
                },
                {
                    "name": "F#5",
                    "midi": 78,
                    "time": 321.84811574999975,
                    "velocity": 0.3779527559055118,
                    "duration": 0.10869574999998122
                },
                {
                    "name": "C#6",
                    "midi": 85,
                    "time": 321.84811574999975,
                    "velocity": 0.48031496062992124,
                    "duration": 0.10869574999998122
                },
                {
                    "name": "F#5",
                    "midi": 78,
                    "time": 321.95681149999973,
                    "velocity": 0.3779527559055118,
                    "duration": 0.21739149999996243
                },
                {
                    "name": "C#5",
                    "midi": 73,
                    "time": 321.95681149999973,
                    "velocity": 0.48031496062992124,
                    "duration": 0.10869574999998122
                },
                {
                    "name": "C#6",
                    "midi": 85,
                    "time": 322.0655072499997,
                    "velocity": 0.49606299212598426,
                    "duration": 0.1068841541666643
                },
                {
                    "name": "C#6",
                    "midi": 85,
                    "time": 322.1742029999997,
                    "velocity": 0.5590551181102362,
                    "duration": 0.10869574999998122
                },
                {
                    "name": "E5",
                    "midi": 76,
                    "time": 322.1742029999997,
                    "velocity": 0.44881889763779526,
                    "duration": 0.10869574999998122
                },
                {
                    "name": "B5",
                    "midi": 83,
                    "time": 322.2828987499997,
                    "velocity": 0.4881889763779528,
                    "duration": 0.10869574999998122
                },
                {
                    "name": "F5",
                    "midi": 77,
                    "time": 322.2828987499997,
                    "velocity": 0.3858267716535433,
                    "duration": 0.10869574999998122
                },
                {
                    "name": "B4",
                    "midi": 71,
                    "time": 322.39159449999966,
                    "velocity": 0.4881889763779528,
                    "duration": 0.10869574999998122
                },
                {
                    "name": "F5",
                    "midi": 77,
                    "time": 322.39159449999966,
                    "velocity": 0.3858267716535433,
                    "duration": 0.21739149999996243
                },
                {
                    "name": "B5",
                    "midi": 83,
                    "time": 322.50029024999964,
                    "velocity": 0.4881889763779528,
                    "duration": 0.10869574999998122
                },
                {
                    "name": "B5",
                    "midi": 83,
                    "time": 322.6089859999996,
                    "velocity": 0.5669291338582677,
                    "duration": 0.10869574999998122
                },
                {
                    "name": "F5",
                    "midi": 77,
                    "time": 322.6089859999996,
                    "velocity": 0.4566929133858268,
                    "duration": 0.10869574999998122
                },
                {
                    "name": "A#5",
                    "midi": 82,
                    "time": 322.7176817499996,
                    "velocity": 0.5118110236220472,
                    "duration": 0.10869574999998122
                },
                {
                    "name": "F#5",
                    "midi": 78,
                    "time": 322.7176817499996,
                    "velocity": 0.4094488188976378,
                    "duration": 0.10869574999998122
                },
                {
                    "name": "F#5",
                    "midi": 78,
                    "time": 322.8263774999996,
                    "velocity": 0.4094488188976378,
                    "duration": 0.21739149999996243
                },
                {
                    "name": "A#4",
                    "midi": 70,
                    "time": 322.8263774999996,
                    "velocity": 0.5118110236220472,
                    "duration": 0.10869574999998122
                },
                {
                    "name": "A#5",
                    "midi": 82,
                    "time": 322.93507324999956,
                    "velocity": 0.5275590551181102,
                    "duration": 0.1068841541666643
                },
                {
                    "name": "A#5",
                    "midi": 82,
                    "time": 323.04376899999954,
                    "velocity": 0.5905511811023622,
                    "duration": 0.10869574999998122
                },
                {
                    "name": "G#5",
                    "midi": 80,
                    "time": 323.1524647499995,
                    "velocity": 0.5433070866141733,
                    "duration": 0.10869574999998122
                },
                {
                    "name": "A#5",
                    "midi": 82,
                    "time": 323.2611604999995,
                    "velocity": 0.5511811023622047,
                    "duration": 0.10869574999998122
                },
                {
                    "name": "C#5",
                    "midi": 73,
                    "time": 323.2611604999995,
                    "velocity": 0.41732283464566927,
                    "duration": 0.21739149999996243
                },
                {
                    "name": "B5",
                    "midi": 83,
                    "time": 323.3698562499995,
                    "velocity": 0.5511811023622047,
                    "duration": 0.10869574999998122
                },
                {
                    "name": "C#5",
                    "midi": 73,
                    "time": 323.47855199999947,
                    "velocity": 0.5118110236220472,
                    "duration": 0.10869574999998122
                },
                {
                    "name": "D#6",
                    "midi": 87,
                    "time": 323.47855199999947,
                    "velocity": 0.6377952755905512,
                    "duration": 0.10869574999998122
                },
                {
                    "name": "F#5",
                    "midi": 78,
                    "time": 323.58724774999945,
                    "velocity": 0.47244094488188976,
                    "duration": 0.10869574999998122
                },
                {
                    "name": "C#6",
                    "midi": 85,
                    "time": 323.58724774999945,
                    "velocity": 0.5905511811023622,
                    "duration": 0.21739149999996243
                },
                {
                    "name": "B5",
                    "midi": 83,
                    "time": 323.69594349999943,
                    "velocity": 0.5984251968503937,
                    "duration": 0.21739149999996243
                },
                {
                    "name": "F5",
                    "midi": 77,
                    "time": 323.69594349999943,
                    "velocity": 0.47244094488188976,
                    "duration": 0.21739149999996243
                },
                {
                    "name": "D6",
                    "midi": 86,
                    "time": 323.8046392499994,
                    "velocity": 0.6377952755905512,
                    "duration": 0.21739149999996243
                },
                {
                    "name": "A#5",
                    "midi": 82,
                    "time": 323.9133349999994,
                    "velocity": 0.48031496062992124,
                    "duration": 0.21739149999996243
                },
                {
                    "name": "F#5",
                    "midi": 78,
                    "time": 323.9133349999994,
                    "velocity": 0.48031496062992124,
                    "duration": 0.21739149999996243
                },
                {
                    "name": "D#6",
                    "midi": 87,
                    "time": 324.0220307499994,
                    "velocity": 0.6299212598425197,
                    "duration": 0.10869574999998122
                },
                {
                    "name": "E6",
                    "midi": 88,
                    "time": 324.13072649999935,
                    "velocity": 0.6535433070866141,
                    "duration": 0.10869574999998122
                },
                {
                    "name": "A#5",
                    "midi": 82,
                    "time": 324.13072649999935,
                    "velocity": 0.48031496062992124,
                    "duration": 0.21739149999996243
                },
                {
                    "name": "F5",
                    "midi": 77,
                    "time": 324.13072649999935,
                    "velocity": 0.48031496062992124,
                    "duration": 0.21739149999996243
                },
                {
                    "name": "F6",
                    "midi": 89,
                    "time": 324.23942224999934,
                    "velocity": 0.6850393700787402,
                    "duration": 0.10869574999998122
                },
                {
                    "name": "F#5",
                    "midi": 78,
                    "time": 324.3481179999993,
                    "velocity": 0.5590551181102362,
                    "duration": 0.21739149999996243
                },
                {
                    "name": "G#6",
                    "midi": 92,
                    "time": 324.3481179999993,
                    "velocity": 0.7007874015748031,
                    "duration": 0.10869574999998122
                },
                {
                    "name": "A#5",
                    "midi": 82,
                    "time": 324.3481179999993,
                    "velocity": 0.5590551181102362,
                    "duration": 0.21739149999996243
                },
                {
                    "name": "F#6",
                    "midi": 90,
                    "time": 324.4568137499993,
                    "velocity": 0.6692913385826772,
                    "duration": 0.10869574999998122
                },
                {
                    "name": "F#5",
                    "midi": 78,
                    "time": 324.5655094999993,
                    "velocity": 0.5826771653543307,
                    "duration": 0.21739149999996243
                },
                {
                    "name": "F6",
                    "midi": 89,
                    "time": 324.5655094999993,
                    "velocity": 0.7165354330708661,
                    "duration": 0.10869574999998122
                },
                {
                    "name": "A#5",
                    "midi": 82,
                    "time": 324.5655094999993,
                    "velocity": 0.5826771653543307,
                    "duration": 0.21739149999996243
                },
                {
                    "name": "D#6",
                    "midi": 87,
                    "time": 324.67420524999926,
                    "velocity": 0.6456692913385826,
                    "duration": 0.10869574999998122
                },
                {
                    "name": "C#6",
                    "midi": 85,
                    "time": 324.78290099999924,
                    "velocity": 0.7716535433070866,
                    "duration": 0.10869574999998122
                },
                {
                    "name": "G#5",
                    "midi": 80,
                    "time": 324.78290099999924,
                    "velocity": 0.6062992125984252,
                    "duration": 0.10869574999998122
                },
                {
                    "name": "F5",
                    "midi": 77,
                    "time": 324.78290099999924,
                    "velocity": 0.6062992125984252,
                    "duration": 0.10869574999998122
                },
                {
                    "name": "F5",
                    "midi": 77,
                    "time": 325.0002924999992,
                    "velocity": 0.6377952755905512,
                    "duration": 0.10869574999998122
                },
                {
                    "name": "C#6",
                    "midi": 85,
                    "time": 325.0002924999992,
                    "velocity": 0.6377952755905512,
                    "duration": 0.10869574999998122
                },
                {
                    "name": "G#5",
                    "midi": 80,
                    "time": 325.0002924999992,
                    "velocity": 0.6377952755905512,
                    "duration": 0.10869574999998122
                },
                {
                    "name": "F6",
                    "midi": 89,
                    "time": 325.0002924999992,
                    "velocity": 0.8110236220472441,
                    "duration": 0.10869574999998122
                },
                {
                    "name": "F#5",
                    "midi": 78,
                    "time": 325.21768399999917,
                    "velocity": 0.7637795275590551,
                    "duration": 0.4347829999999817
                },
                {
                    "name": "C#6",
                    "midi": 85,
                    "time": 325.21768399999917,
                    "velocity": 0.7637795275590551,
                    "duration": 0.4347829999999817
                },
                {
                    "name": "A#5",
                    "midi": 82,
                    "time": 325.21768399999917,
                    "velocity": 0.7637795275590551,
                    "duration": 0.4347829999999817
                },
                {
                    "name": "F#6",
                    "midi": 90,
                    "time": 325.21768399999917,
                    "velocity": 0.905511811023622,
                    "duration": 0.4347829999999817
                },
                {
                    "name": "A#3",
                    "midi": 58,
                    "time": 325.65246699999915,
                    "velocity": 0.49606299212598426,
                    "duration": 0.4347829999999817
                },
                {
                    "name": "F#4",
                    "midi": 66,
                    "time": 325.65246699999915,
                    "velocity": 0.5905511811023622,
                    "duration": 0.4347829999999817
                },
                {
                    "name": "C#4",
                    "midi": 61,
                    "time": 325.65246699999915,
                    "velocity": 0.49606299212598426,
                    "duration": 0.4347829999999817
                },
                {
                    "name": "F#4",
                    "midi": 66,
                    "time": 326.08724999999913,
                    "velocity": 0.3937007874015748,
                    "duration": 0.05434787500001903
                },
                {
                    "name": "A#4",
                    "midi": 70,
                    "time": 326.08724999999913,
                    "velocity": 0.4645669291338583,
                    "duration": 0.05434787500001903
                },
                {
                    "name": "C#4",
                    "midi": 61,
                    "time": 326.08724999999913,
                    "velocity": 0.3937007874015748,
                    "duration": 0.05434787500001903
                },
                {
                    "name": "F#4",
                    "midi": 66,
                    "time": 326.30464149999915,
                    "velocity": 0.48031496062992124,
                    "duration": 0.05434787500001903
                },
                {
                    "name": "C#4",
                    "midi": 61,
                    "time": 326.30464149999915,
                    "velocity": 0.4015748031496063,
                    "duration": 0.05434787500001903
                },
                {
                    "name": "A#3",
                    "midi": 58,
                    "time": 326.30464149999915,
                    "velocity": 0.4015748031496063,
                    "duration": 0.05434787500001903
                },
                {
                    "name": "C#4",
                    "midi": 61,
                    "time": 326.52203299999917,
                    "velocity": 0.4015748031496063,
                    "duration": 0.05434787500001903
                },
                {
                    "name": "F#4",
                    "midi": 66,
                    "time": 326.52203299999917,
                    "velocity": 0.4015748031496063,
                    "duration": 0.05434787500001903
                },
                {
                    "name": "A#4",
                    "midi": 70,
                    "time": 326.52203299999917,
                    "velocity": 0.48031496062992124,
                    "duration": 0.05434787500001903
                },
                {
                    "name": "F4",
                    "midi": 65,
                    "time": 326.7394244999992,
                    "velocity": 0.4015748031496063,
                    "duration": 0.05434787500001903
                },
                {
                    "name": "B3",
                    "midi": 59,
                    "time": 326.7394244999992,
                    "velocity": 0.4015748031496063,
                    "duration": 0.05434787500001903
                },
                {
                    "name": "D4",
                    "midi": 62,
                    "time": 326.7394244999992,
                    "velocity": 0.4015748031496063,
                    "duration": 0.05434787500001903
                },
                {
                    "name": "G#4",
                    "midi": 68,
                    "time": 326.7394244999992,
                    "velocity": 0.48031496062992124,
                    "duration": 0.05434787500001903
                },
                {
                    "name": "B5",
                    "midi": 83,
                    "time": 326.9568159999992,
                    "velocity": 0.7007874015748031,
                    "duration": 0.4347829999999817
                },
                {
                    "name": "G#6",
                    "midi": 92,
                    "time": 326.9568159999992,
                    "velocity": 0.8267716535433071,
                    "duration": 0.4347829999999817
                },
                {
                    "name": "D6",
                    "midi": 86,
                    "time": 326.9568159999992,
                    "velocity": 0.7007874015748031,
                    "duration": 0.4347829999999817
                },
                {
                    "name": "F6",
                    "midi": 89,
                    "time": 326.9568159999992,
                    "velocity": 0.7007874015748031,
                    "duration": 0.4347829999999817
                },
                {
                    "name": "G#5",
                    "midi": 80,
                    "time": 326.9568159999992,
                    "velocity": 0.7007874015748031,
                    "duration": 0.4347829999999817
                },
                {
                    "name": "D4",
                    "midi": 62,
                    "time": 327.3915989999992,
                    "velocity": 0.49606299212598426,
                    "duration": 0.4347829999999817
                },
                {
                    "name": "G#4",
                    "midi": 68,
                    "time": 327.3915989999992,
                    "velocity": 0.5905511811023622,
                    "duration": 0.4347829999999817
                },
                {
                    "name": "F4",
                    "midi": 65,
                    "time": 327.3915989999992,
                    "velocity": 0.49606299212598426,
                    "duration": 0.4347829999999817
                },
                {
                    "name": "B3",
                    "midi": 59,
                    "time": 327.3915989999992,
                    "velocity": 0.49606299212598426,
                    "duration": 0.4347829999999817
                },
                {
                    "name": "F4",
                    "midi": 65,
                    "time": 327.82638199999917,
                    "velocity": 0.3937007874015748,
                    "duration": 0.05434787500001903
                },
                {
                    "name": "G#4",
                    "midi": 68,
                    "time": 327.82638199999917,
                    "velocity": 0.3937007874015748,
                    "duration": 0.05434787500001903
                },
                {
                    "name": "D4",
                    "midi": 62,
                    "time": 327.82638199999917,
                    "velocity": 0.3937007874015748,
                    "duration": 0.05434787500001903
                },
                {
                    "name": "B4",
                    "midi": 71,
                    "time": 327.82638199999917,
                    "velocity": 0.4645669291338583,
                    "duration": 0.05434787500001903
                },
                {
                    "name": "D4",
                    "midi": 62,
                    "time": 328.0437734999992,
                    "velocity": 0.4015748031496063,
                    "duration": 0.05434787500001903
                },
                {
                    "name": "G#4",
                    "midi": 68,
                    "time": 328.0437734999992,
                    "velocity": 0.48031496062992124,
                    "duration": 0.05434787500001903
                },
                {
                    "name": "F4",
                    "midi": 65,
                    "time": 328.0437734999992,
                    "velocity": 0.4015748031496063,
                    "duration": 0.05434787500001903
                },
                {
                    "name": "B3",
                    "midi": 59,
                    "time": 328.0437734999992,
                    "velocity": 0.4015748031496063,
                    "duration": 0.05434787500001903
                },
                {
                    "name": "G#4",
                    "midi": 68,
                    "time": 328.2611649999992,
                    "velocity": 0.4015748031496063,
                    "duration": 0.05434787500001903
                },
                {
                    "name": "D4",
                    "midi": 62,
                    "time": 328.2611649999992,
                    "velocity": 0.4015748031496063,
                    "duration": 0.05434787500001903
                },
                {
                    "name": "F4",
                    "midi": 65,
                    "time": 328.2611649999992,
                    "velocity": 0.4015748031496063,
                    "duration": 0.05434787500001903
                },
                {
                    "name": "B4",
                    "midi": 71,
                    "time": 328.2611649999992,
                    "velocity": 0.48031496062992124,
                    "duration": 0.05434787500001903
                },
                {
                    "name": "G4",
                    "midi": 67,
                    "time": 328.47855649999923,
                    "velocity": 0.4015748031496063,
                    "duration": 0.05434787500001903
                },
                {
                    "name": "C#4",
                    "midi": 61,
                    "time": 328.47855649999923,
                    "velocity": 0.4015748031496063,
                    "duration": 0.05434787500001903
                },
                {
                    "name": "E4",
                    "midi": 64,
                    "time": 328.47855649999923,
                    "velocity": 0.4015748031496063,
                    "duration": 0.05434787500001903
                },
                {
                    "name": "A#4",
                    "midi": 70,
                    "time": 328.47855649999923,
                    "velocity": 0.48031496062992124,
                    "duration": 0.05434787500001903
                },
                {
                    "name": "A#5",
                    "midi": 82,
                    "time": 328.69594799999925,
                    "velocity": 0.7007874015748031,
                    "duration": 0.4347829999999817
                },
                {
                    "name": "C#6",
                    "midi": 85,
                    "time": 328.69594799999925,
                    "velocity": 0.7007874015748031,
                    "duration": 0.4347829999999817
                },
                {
                    "name": "E6",
                    "midi": 88,
                    "time": 328.69594799999925,
                    "velocity": 0.7007874015748031,
                    "duration": 0.4347829999999817
                },
                {
                    "name": "A#6",
                    "midi": 94,
                    "time": 328.69594799999925,
                    "velocity": 0.8267716535433071,
                    "duration": 0.4347829999999817
                },
                {
                    "name": "C#4",
                    "midi": 61,
                    "time": 329.13073099999923,
                    "velocity": 0.49606299212598426,
                    "duration": 0.4347829999999817
                },
                {
                    "name": "G4",
                    "midi": 67,
                    "time": 329.13073099999923,
                    "velocity": 0.49606299212598426,
                    "duration": 0.4347829999999817
                },
                {
                    "name": "E4",
                    "midi": 64,
                    "time": 329.13073099999923,
                    "velocity": 0.49606299212598426,
                    "duration": 0.4347829999999817
                },
                {
                    "name": "A#4",
                    "midi": 70,
                    "time": 329.13073099999923,
                    "velocity": 0.5905511811023622,
                    "duration": 0.4347829999999817
                },
                {
                    "name": "A#4",
                    "midi": 70,
                    "time": 329.5655139999992,
                    "velocity": 0.3937007874015748,
                    "duration": 0.05434787500001903
                },
                {
                    "name": "G4",
                    "midi": 67,
                    "time": 329.5655139999992,
                    "velocity": 0.3937007874015748,
                    "duration": 0.05434787500001903
                },
                {
                    "name": "C#5",
                    "midi": 73,
                    "time": 329.5655139999992,
                    "velocity": 0.4645669291338583,
                    "duration": 0.05434787500001903
                },
                {
                    "name": "E4",
                    "midi": 64,
                    "time": 329.5655139999992,
                    "velocity": 0.3937007874015748,
                    "duration": 0.05434787500001903
                },
                {
                    "name": "G4",
                    "midi": 67,
                    "time": 329.78290549999923,
                    "velocity": 0.4015748031496063,
                    "duration": 0.05434787500001903
                },
                {
                    "name": "E4",
                    "midi": 64,
                    "time": 329.78290549999923,
                    "velocity": 0.4015748031496063,
                    "duration": 0.05434787500001903
                },
                {
                    "name": "A#4",
                    "midi": 70,
                    "time": 329.78290549999923,
                    "velocity": 0.48031496062992124,
                    "duration": 0.05434787500001903
                },
                {
                    "name": "C#4",
                    "midi": 61,
                    "time": 329.78290549999923,
                    "velocity": 0.4015748031496063,
                    "duration": 0.05434787500001903
                },
                {
                    "name": "G4",
                    "midi": 67,
                    "time": 330.00029699999925,
                    "velocity": 0.4015748031496063,
                    "duration": 0.05434787500001903
                },
                {
                    "name": "A#4",
                    "midi": 70,
                    "time": 330.00029699999925,
                    "velocity": 0.4015748031496063,
                    "duration": 0.05434787500001903
                },
                {
                    "name": "E4",
                    "midi": 64,
                    "time": 330.00029699999925,
                    "velocity": 0.4015748031496063,
                    "duration": 0.05434787500001903
                },
                {
                    "name": "C#5",
                    "midi": 73,
                    "time": 330.00029699999925,
                    "velocity": 0.48031496062992124,
                    "duration": 0.05434787500001903
                },
                {
                    "name": "D4",
                    "midi": 62,
                    "time": 330.21768849999927,
                    "velocity": 0.4015748031496063,
                    "duration": 0.05434787500001903
                },
                {
                    "name": "B4",
                    "midi": 71,
                    "time": 330.21768849999927,
                    "velocity": 0.48031496062992124,
                    "duration": 0.05434787500001903
                },
                {
                    "name": "F#4",
                    "midi": 66,
                    "time": 330.21768849999927,
                    "velocity": 0.4015748031496063,
                    "duration": 0.05434787500001903
                },
                {
                    "name": "B5",
                    "midi": 83,
                    "time": 330.4350799999993,
                    "velocity": 0.7007874015748031,
                    "duration": 0.4347829999999817
                },
                {
                    "name": "D6",
                    "midi": 86,
                    "time": 330.4350799999993,
                    "velocity": 0.7007874015748031,
                    "duration": 0.4347829999999817
                },
                {
                    "name": "B6",
                    "midi": 95,
                    "time": 330.4350799999993,
                    "velocity": 0.8267716535433071,
                    "duration": 0.4347829999999817
                },
                {
                    "name": "F#6",
                    "midi": 90,
                    "time": 330.4350799999993,
                    "velocity": 0.7007874015748031,
                    "duration": 0.4347829999999817
                },
                {
                    "name": "B4",
                    "midi": 71,
                    "time": 330.86986299999927,
                    "velocity": 0.5905511811023622,
                    "duration": 0.4347829999999817
                },
                {
                    "name": "F#4",
                    "midi": 66,
                    "time": 330.86986299999927,
                    "velocity": 0.49606299212598426,
                    "duration": 0.4347829999999817
                },
                {
                    "name": "D4",
                    "midi": 62,
                    "time": 330.86986299999927,
                    "velocity": 0.49606299212598426,
                    "duration": 0.4347829999999817
                },
                {
                    "name": "G#4",
                    "midi": 68,
                    "time": 331.30464599999925,
                    "velocity": 0.3937007874015748,
                    "duration": 0.05434787500001903
                },
                {
                    "name": "F4",
                    "midi": 65,
                    "time": 331.30464599999925,
                    "velocity": 0.3937007874015748,
                    "duration": 0.05434787500001903
                },
                {
                    "name": "B4",
                    "midi": 71,
                    "time": 331.30464599999925,
                    "velocity": 0.3937007874015748,
                    "duration": 0.05434787500001903
                },
                {
                    "name": "D5",
                    "midi": 74,
                    "time": 331.30464599999925,
                    "velocity": 0.4645669291338583,
                    "duration": 0.05434787500001903
                },
                {
                    "name": "G#4",
                    "midi": 68,
                    "time": 331.52203749999927,
                    "velocity": 0.4015748031496063,
                    "duration": 0.05434787500001903
                },
                {
                    "name": "B4",
                    "midi": 71,
                    "time": 331.52203749999927,
                    "velocity": 0.48031496062992124,
                    "duration": 0.05434787500001903
                },
                {
                    "name": "F4",
                    "midi": 65,
                    "time": 331.52203749999927,
                    "velocity": 0.4015748031496063,
                    "duration": 0.05434787500001903
                },
                {
                    "name": "D4",
                    "midi": 62,
                    "time": 331.52203749999927,
                    "velocity": 0.4015748031496063,
                    "duration": 0.05434787500001903
                },
                {
                    "name": "B4",
                    "midi": 71,
                    "time": 331.7394289999993,
                    "velocity": 0.4409448818897638,
                    "duration": 0.05434787500001903
                },
                {
                    "name": "D5",
                    "midi": 74,
                    "time": 331.7394289999993,
                    "velocity": 0.5275590551181102,
                    "duration": 0.05434787500001903
                },
                {
                    "name": "G#4",
                    "midi": 68,
                    "time": 331.7394289999993,
                    "velocity": 0.4409448818897638,
                    "duration": 0.05434787500001903
                },
                {
                    "name": "F4",
                    "midi": 65,
                    "time": 331.7394289999993,
                    "velocity": 0.4409448818897638,
                    "duration": 0.05434787500001903
                },
                {
                    "name": "A#4",
                    "midi": 70,
                    "time": 331.9568204999993,
                    "velocity": 0.4566929133858268,
                    "duration": 0.05434787500001903
                },
                {
                    "name": "C#5",
                    "midi": 73,
                    "time": 331.9568204999993,
                    "velocity": 0.5433070866141733,
                    "duration": 0.05434787500001903
                },
                {
                    "name": "G4",
                    "midi": 67,
                    "time": 331.9568204999993,
                    "velocity": 0.4566929133858268,
                    "duration": 0.05434787500001903
                },
                {
                    "name": "E4",
                    "midi": 64,
                    "time": 331.9568204999993,
                    "velocity": 0.4566929133858268,
                    "duration": 0.05434787500001903
                },
                {
                    "name": "A#4",
                    "midi": 70,
                    "time": 332.17421199999933,
                    "velocity": 0.4645669291338583,
                    "duration": 0.05434787500001903
                },
                {
                    "name": "E5",
                    "midi": 76,
                    "time": 332.17421199999933,
                    "velocity": 0.5433070866141733,
                    "duration": 0.05434787500001903
                },
                {
                    "name": "G4",
                    "midi": 67,
                    "time": 332.17421199999933,
                    "velocity": 0.4645669291338583,
                    "duration": 0.05434787500001903
                },
                {
                    "name": "C#5",
                    "midi": 73,
                    "time": 332.17421199999933,
                    "velocity": 0.4645669291338583,
                    "duration": 0.05434787500001903
                },
                {
                    "name": "G4",
                    "midi": 67,
                    "time": 332.39160349999935,
                    "velocity": 0.4881889763779528,
                    "duration": 0.05434787500001903
                },
                {
                    "name": "A#4",
                    "midi": 70,
                    "time": 332.39160349999935,
                    "velocity": 0.4881889763779528,
                    "duration": 0.05434787500001903
                },
                {
                    "name": "E4",
                    "midi": 64,
                    "time": 332.39160349999935,
                    "velocity": 0.4881889763779528,
                    "duration": 0.05434787500001903
                },
                {
                    "name": "C#5",
                    "midi": 73,
                    "time": 332.39160349999935,
                    "velocity": 0.5826771653543307,
                    "duration": 0.05434787500001903
                },
                {
                    "name": "G4",
                    "midi": 67,
                    "time": 332.60899499999937,
                    "velocity": 0.5118110236220472,
                    "duration": 0.05434787500001903
                },
                {
                    "name": "C#5",
                    "midi": 73,
                    "time": 332.60899499999937,
                    "velocity": 0.5118110236220472,
                    "duration": 0.05434787500001903
                },
                {
                    "name": "A#4",
                    "midi": 70,
                    "time": 332.60899499999937,
                    "velocity": 0.5118110236220472,
                    "duration": 0.05434787500001903
                },
                {
                    "name": "E5",
                    "midi": 76,
                    "time": 332.60899499999937,
                    "velocity": 0.6062992125984252,
                    "duration": 0.05434787500001903
                },
                {
                    "name": "F#4",
                    "midi": 66,
                    "time": 332.8263864999994,
                    "velocity": 0.5275590551181102,
                    "duration": 0.05434787500001903
                },
                {
                    "name": "D5",
                    "midi": 74,
                    "time": 332.8263864999994,
                    "velocity": 0.6377952755905512,
                    "duration": 0.05434787500001903
                },
                {
                    "name": "B4",
                    "midi": 71,
                    "time": 332.8263864999994,
                    "velocity": 0.5275590551181102,
                    "duration": 0.05434787500001903
                },
                {
                    "name": "F#5",
                    "midi": 78,
                    "time": 333.0437779999994,
                    "velocity": 0.6456692913385826,
                    "duration": 0.05434787500001903
                },
                {
                    "name": "D5",
                    "midi": 74,
                    "time": 333.0437779999994,
                    "velocity": 0.5511811023622047,
                    "duration": 0.05434787500001903
                },
                {
                    "name": "F#4",
                    "midi": 66,
                    "time": 333.0437779999994,
                    "velocity": 0.5511811023622047,
                    "duration": 0.05434787500001903
                },
                {
                    "name": "B4",
                    "midi": 71,
                    "time": 333.0437779999994,
                    "velocity": 0.5511811023622047,
                    "duration": 0.05434787500001903
                },
                {
                    "name": "B4",
                    "midi": 71,
                    "time": 333.2611694999994,
                    "velocity": 0.5826771653543307,
                    "duration": 0.05434787500001903
                },
                {
                    "name": "D5",
                    "midi": 74,
                    "time": 333.2611694999994,
                    "velocity": 0.7007874015748031,
                    "duration": 0.05434787500001903
                },
                {
                    "name": "F#4",
                    "midi": 66,
                    "time": 333.2611694999994,
                    "velocity": 0.5826771653543307,
                    "duration": 0.05434787500001903
                },
                {
                    "name": "D5",
                    "midi": 74,
                    "time": 333.47856099999944,
                    "velocity": 0.6062992125984252,
                    "duration": 0.05434787500001903
                },
                {
                    "name": "B4",
                    "midi": 71,
                    "time": 333.47856099999944,
                    "velocity": 0.6062992125984252,
                    "duration": 0.05434787500001903
                },
                {
                    "name": "F#5",
                    "midi": 78,
                    "time": 333.47856099999944,
                    "velocity": 0.7244094488188977,
                    "duration": 0.05434787500001903
                },
                {
                    "name": "F#4",
                    "midi": 66,
                    "time": 333.47856099999944,
                    "velocity": 0.6062992125984252,
                    "duration": 0.05434787500001903
                },
                {
                    "name": "B4",
                    "midi": 71,
                    "time": 333.69595249999946,
                    "velocity": 0.6299212598425197,
                    "duration": 0.05434787500001903
                },
                {
                    "name": "G#4",
                    "midi": 68,
                    "time": 333.69595249999946,
                    "velocity": 0.6299212598425197,
                    "duration": 0.05434787500001903
                },
                {
                    "name": "F5",
                    "midi": 77,
                    "time": 333.69595249999946,
                    "velocity": 0.7637795275590551,
                    "duration": 0.05434787500001903
                },
                {
                    "name": "C#5",
                    "midi": 73,
                    "time": 333.69595249999946,
                    "velocity": 0.6299212598425197,
                    "duration": 0.05434787500001903
                },
                {
                    "name": "G#5",
                    "midi": 80,
                    "time": 333.9133439999995,
                    "velocity": 0.7244094488188977,
                    "duration": 0.21739150000001928
                },
                {
                    "name": "G#6",
                    "midi": 92,
                    "time": 333.9133439999995,
                    "velocity": 0.8503937007874016,
                    "duration": 0.21739150000001928
                },
                {
                    "name": "F#5",
                    "midi": 78,
                    "time": 334.1307354999995,
                    "velocity": 0.6377952755905512,
                    "duration": 0.21739150000001928
                },
                {
                    "name": "F#6",
                    "midi": 90,
                    "time": 334.1307354999995,
                    "velocity": 0.7559055118110236,
                    "duration": 0.21739150000001928
                },
                {
                    "name": "D#6",
                    "midi": 87,
                    "time": 334.3481269999995,
                    "velocity": 0.8346456692913385,
                    "duration": 0.21739150000001928
                },
                {
                    "name": "D#5",
                    "midi": 75,
                    "time": 334.3481269999995,
                    "velocity": 0.7086614173228346,
                    "duration": 0.21739150000001928
                },
                {
                    "name": "C#5",
                    "midi": 73,
                    "time": 334.56551849999954,
                    "velocity": 0.6535433070866141,
                    "duration": 0.21739150000001928
                },
                {
                    "name": "C#6",
                    "midi": 85,
                    "time": 334.56551849999954,
                    "velocity": 0.7795275590551181,
                    "duration": 0.21739150000001928
                },
                {
                    "name": "B4",
                    "midi": 71,
                    "time": 334.78290999999956,
                    "velocity": 0.7322834645669292,
                    "duration": 0.21739150000001928
                },
                {
                    "name": "B5",
                    "midi": 83,
                    "time": 334.78290999999956,
                    "velocity": 0.8346456692913385,
                    "duration": 0.21739150000001928
                },
                {
                    "name": "A#4",
                    "midi": 70,
                    "time": 335.0003014999996,
                    "velocity": 0.5905511811023622,
                    "duration": 0.21739150000001928
                },
                {
                    "name": "A#5",
                    "midi": 82,
                    "time": 335.0003014999996,
                    "velocity": 0.7086614173228346,
                    "duration": 0.21739150000001928
                },
                {
                    "name": "G#4",
                    "midi": 68,
                    "time": 335.2176929999996,
                    "velocity": 0.6299212598425197,
                    "duration": 0.21739150000001928
                },
                {
                    "name": "G#5",
                    "midi": 80,
                    "time": 335.2176929999996,
                    "velocity": 0.7480314960629921,
                    "duration": 0.21739150000001928
                },
                {
                    "name": "F#4",
                    "midi": 66,
                    "time": 335.4350844999996,
                    "velocity": 0.5826771653543307,
                    "duration": 0.21739150000001928
                },
                {
                    "name": "F#5",
                    "midi": 78,
                    "time": 335.4350844999996,
                    "velocity": 0.7007874015748031,
                    "duration": 0.21739150000001928
                },
                {
                    "name": "D#5",
                    "midi": 75,
                    "time": 335.65247599999964,
                    "velocity": 0.7637795275590551,
                    "duration": 0.21739150000001928
                },
                {
                    "name": "D#4",
                    "midi": 63,
                    "time": 335.65247599999964,
                    "velocity": 0.6456692913385826,
                    "duration": 0.21739150000001928
                },
                {
                    "name": "C#4",
                    "midi": 61,
                    "time": 335.86986749999966,
                    "velocity": 0.5669291338582677,
                    "duration": 0.21739150000001928
                },
                {
                    "name": "C#5",
                    "midi": 73,
                    "time": 335.86986749999966,
                    "velocity": 0.6771653543307087,
                    "duration": 0.21739150000001928
                },
                {
                    "name": "B3",
                    "midi": 59,
                    "time": 336.0872589999997,
                    "velocity": 0.5905511811023622,
                    "duration": 0.21739150000001928
                },
                {
                    "name": "B4",
                    "midi": 71,
                    "time": 336.0872589999997,
                    "velocity": 0.7086614173228346,
                    "duration": 0.21739150000001928
                },
                {
                    "name": "A#3",
                    "midi": 58,
                    "time": 336.3046504999997,
                    "velocity": 0.5511811023622047,
                    "duration": 0.21739150000001928
                },
                {
                    "name": "A#4",
                    "midi": 70,
                    "time": 336.3046504999997,
                    "velocity": 0.6535433070866141,
                    "duration": 0.21739150000001928
                },
                {
                    "name": "G#4",
                    "midi": 68,
                    "time": 336.5220419999997,
                    "velocity": 0.6929133858267716,
                    "duration": 0.21739150000001928
                },
                {
                    "name": "G#3",
                    "midi": 56,
                    "time": 336.5220419999997,
                    "velocity": 0.5748031496062992,
                    "duration": 0.21739150000001928
                },
                {
                    "name": "F#4",
                    "midi": 66,
                    "time": 336.73943349999973,
                    "velocity": 0.5984251968503937,
                    "duration": 0.21739150000001928
                },
                {
                    "name": "F#3",
                    "midi": 54,
                    "time": 336.73943349999973,
                    "velocity": 0.49606299212598426,
                    "duration": 0.21739150000001928
                },
                {
                    "name": "D#4",
                    "midi": 63,
                    "time": 336.95682499999975,
                    "velocity": 0.6377952755905512,
                    "duration": 0.21739150000001928
                },
                {
                    "name": "D#3",
                    "midi": 51,
                    "time": 336.95682499999975,
                    "velocity": 0.5354330708661418,
                    "duration": 0.21739150000001928
                },
                {
                    "name": "C#4",
                    "midi": 61,
                    "time": 337.1742164999998,
                    "velocity": 0.5826771653543307,
                    "duration": 0.21739150000001928
                },
                {
                    "name": "C#3",
                    "midi": 49,
                    "time": 337.1742164999998,
                    "velocity": 0.4881889763779528,
                    "duration": 0.21739150000001928
                },
                {
                    "name": "F4",
                    "midi": 65,
                    "time": 337.3916079999998,
                    "velocity": 0.6062992125984252,
                    "duration": 0.21739150000001928
                },
                {
                    "name": "C#4",
                    "midi": 61,
                    "time": 337.6089994999998,
                    "velocity": 0.5275590551181102,
                    "duration": 0.21739150000001928
                },
                {
                    "name": "G#4",
                    "midi": 68,
                    "time": 337.82639099999983,
                    "velocity": 0.5748031496062992,
                    "duration": 0.21739150000001928
                },
                {
                    "name": "C#4",
                    "midi": 61,
                    "time": 338.04378249999985,
                    "velocity": 0.5275590551181102,
                    "duration": 0.21739150000001928
                },
                {
                    "name": "C#5",
                    "midi": 73,
                    "time": 338.26117399999987,
                    "velocity": 0.5590551181102362,
                    "duration": 0.21739150000001928
                },
                {
                    "name": "C#4",
                    "midi": 61,
                    "time": 338.4785654999999,
                    "velocity": 0.4645669291338583,
                    "duration": 0.21739150000001928
                },
                {
                    "name": "F5",
                    "midi": 77,
                    "time": 338.6959569999999,
                    "velocity": 0.5354330708661418,
                    "duration": 0.21739150000001928
                },
                {
                    "name": "C#4",
                    "midi": 61,
                    "time": 338.9133484999999,
                    "velocity": 0.4409448818897638,
                    "duration": 0.21739150000001928
                },
                {
                    "name": "G#5",
                    "midi": 80,
                    "time": 339.13073999999995,
                    "velocity": 0.4881889763779528,
                    "duration": 0.21739150000001928
                },
                {
                    "name": "C#4",
                    "midi": 61,
                    "time": 339.34813149999997,
                    "velocity": 0.3858267716535433,
                    "duration": 0.21739150000001928
                },
                {
                    "name": "C#6",
                    "midi": 85,
                    "time": 339.565523,
                    "velocity": 0.4251968503937008,
                    "duration": 0.21739150000001928
                },
                {
                    "name": "C#4",
                    "midi": 61,
                    "time": 339.7829145,
                    "velocity": 0.3543307086614173,
                    "duration": 0.21739150000001928
                },
                {
                    "name": "C#6",
                    "midi": 85,
                    "time": 340.000306,
                    "velocity": 0.4094488188976378,
                    "duration": 0.21739150000001928
                },
                {
                    "name": "C#4",
                    "midi": 61,
                    "time": 340.21769750000004,
                    "velocity": 0.3228346456692913,
                    "duration": 0.21739150000001928
                },
                {
                    "name": "C#6",
                    "midi": 85,
                    "time": 340.43508900000006,
                    "velocity": 0.3779527559055118,
                    "duration": 0.21739150000001928
                },
                {
                    "name": "B5",
                    "midi": 83,
                    "time": 341.1959592500001,
                    "velocity": 0.7165354330708661,
                    "duration": 0.10778995208335118
                },
                {
                    "name": "F#5",
                    "midi": 78,
                    "time": 341.1959592500001,
                    "velocity": 0.7165354330708661,
                    "duration": 0.10778995208335118
                },
                {
                    "name": "D6",
                    "midi": 86,
                    "time": 341.1959592500001,
                    "velocity": 0.8740157480314961,
                    "duration": 0.10778995208335118
                },
                {
                    "name": "D5",
                    "midi": 74,
                    "time": 341.1959592500001,
                    "velocity": 0.7165354330708661,
                    "duration": 0.10778995208335118
                },
                {
                    "name": "F#5",
                    "midi": 78,
                    "time": 341.30465500000014,
                    "velocity": 0.6456692913385826,
                    "duration": 0.21739150000001928
                },
                {
                    "name": "D6",
                    "midi": 86,
                    "time": 341.30465500000014,
                    "velocity": 0.7795275590551181,
                    "duration": 0.21739150000001928
                },
                {
                    "name": "D5",
                    "midi": 74,
                    "time": 341.30465500000014,
                    "velocity": 0.6456692913385826,
                    "duration": 0.21739150000001928
                },
                {
                    "name": "B5",
                    "midi": 83,
                    "time": 341.30465500000014,
                    "velocity": 0.6456692913385826,
                    "duration": 0.21739150000001928
                },
                {
                    "name": "B5",
                    "midi": 83,
                    "time": 341.52204650000016,
                    "velocity": 0.6614173228346457,
                    "duration": 0.04076090625000006
                },
                {
                    "name": "E6",
                    "midi": 88,
                    "time": 341.52204650000016,
                    "velocity": 0.8267716535433071,
                    "duration": 0.04076090625000006
                },
                {
                    "name": "D5",
                    "midi": 74,
                    "time": 341.52204650000016,
                    "velocity": 0.6614173228346457,
                    "duration": 0.04076090625000006
                },
                {
                    "name": "F#5",
                    "midi": 78,
                    "time": 341.52204650000016,
                    "velocity": 0.6614173228346457,
                    "duration": 0.04076090625000006
                },
                {
                    "name": "F#5",
                    "midi": 78,
                    "time": 341.63074225000014,
                    "velocity": 0.6771653543307087,
                    "duration": 0.04076090625000006
                },
                {
                    "name": "D5",
                    "midi": 74,
                    "time": 341.63074225000014,
                    "velocity": 0.6771653543307087,
                    "duration": 0.04076090625000006
                },
                {
                    "name": "B5",
                    "midi": 83,
                    "time": 341.63074225000014,
                    "velocity": 0.6771653543307087,
                    "duration": 0.04076090625000006
                },
                {
                    "name": "D6",
                    "midi": 86,
                    "time": 341.63074225000014,
                    "velocity": 0.8031496062992126,
                    "duration": 0.04076090625000006
                },
                {
                    "name": "D6",
                    "midi": 86,
                    "time": 341.7394380000001,
                    "velocity": 0.8740157480314961,
                    "duration": 0.10869574999998122
                },
                {
                    "name": "F#5",
                    "midi": 78,
                    "time": 341.7394380000001,
                    "velocity": 0.7165354330708661,
                    "duration": 0.10869574999998122
                },
                {
                    "name": "B5",
                    "midi": 83,
                    "time": 341.7394380000001,
                    "velocity": 0.7165354330708661,
                    "duration": 0.10869574999998122
                },
                {
                    "name": "D5",
                    "midi": 74,
                    "time": 341.7394380000001,
                    "velocity": 0.7165354330708661,
                    "duration": 0.10869574999998122
                },
                {
                    "name": "B5",
                    "midi": 83,
                    "time": 341.9568295000001,
                    "velocity": 0.7952755905511811,
                    "duration": 0.10869574999998122
                },
                {
                    "name": "D5",
                    "midi": 74,
                    "time": 341.9568295000001,
                    "velocity": 0.6614173228346457,
                    "duration": 0.10869574999998122
                },
                {
                    "name": "F#5",
                    "midi": 78,
                    "time": 341.9568295000001,
                    "velocity": 0.6614173228346457,
                    "duration": 0.10869574999998122
                },
                {
                    "name": "B4",
                    "midi": 71,
                    "time": 341.9568295000001,
                    "velocity": 0.6614173228346457,
                    "duration": 0.10869574999998122
                },
                {
                    "name": "F#5",
                    "midi": 78,
                    "time": 342.82639550000005,
                    "velocity": 0.25984251968503935,
                    "duration": 0.10869574999998122
                },
                {
                    "name": "B5",
                    "midi": 83,
                    "time": 342.82639550000005,
                    "velocity": 0.25984251968503935,
                    "duration": 0.10869574999998122
                },
                {
                    "name": "D5",
                    "midi": 74,
                    "time": 342.82639550000005,
                    "velocity": 0.25984251968503935,
                    "duration": 0.10869574999998122
                },
                {
                    "name": "D6",
                    "midi": 86,
                    "time": 342.82639550000005,
                    "velocity": 0.30708661417322836,
                    "duration": 0.10869574999998122
                },
                {
                    "name": "D6",
                    "midi": 86,
                    "time": 343.2611785,
                    "velocity": 0.3543307086614173,
                    "duration": 0.10869574999998122
                },
                {
                    "name": "F#5",
                    "midi": 78,
                    "time": 343.2611785,
                    "velocity": 0.29133858267716534,
                    "duration": 0.10869574999998122
                },
                {
                    "name": "B5",
                    "midi": 83,
                    "time": 343.2611785,
                    "velocity": 0.29133858267716534,
                    "duration": 0.10869574999998122
                },
                {
                    "name": "D5",
                    "midi": 74,
                    "time": 343.2611785,
                    "velocity": 0.29133858267716534,
                    "duration": 0.10869574999998122
                },
                {
                    "name": "B5",
                    "midi": 83,
                    "time": 343.6959615,
                    "velocity": 0.33070866141732286,
                    "duration": 0.10869574999998122
                },
                {
                    "name": "D6",
                    "midi": 86,
                    "time": 343.6959615,
                    "velocity": 0.3937007874015748,
                    "duration": 0.10869574999998122
                },
                {
                    "name": "G5",
                    "midi": 79,
                    "time": 343.6959615,
                    "velocity": 0.33070866141732286,
                    "duration": 0.10869574999998122
                },
                {
                    "name": "D5",
                    "midi": 74,
                    "time": 343.6959615,
                    "velocity": 0.33070866141732286,
                    "duration": 0.10869574999998122
                },
                {
                    "name": "D6",
                    "midi": 86,
                    "time": 344.1307445,
                    "velocity": 0.4251968503937008,
                    "duration": 0.10869574999998122
                },
                {
                    "name": "B5",
                    "midi": 83,
                    "time": 344.1307445,
                    "velocity": 0.36220472440944884,
                    "duration": 0.10869574999998122
                },
                {
                    "name": "G5",
                    "midi": 79,
                    "time": 344.1307445,
                    "velocity": 0.36220472440944884,
                    "duration": 0.10869574999998122
                },
                {
                    "name": "D5",
                    "midi": 74,
                    "time": 344.1307445,
                    "velocity": 0.36220472440944884,
                    "duration": 0.10869574999998122
                },
                {
                    "name": "B5",
                    "midi": 83,
                    "time": 344.5655275,
                    "velocity": 0.36220472440944884,
                    "duration": 0.10869574999998122
                },
                {
                    "name": "D5",
                    "midi": 74,
                    "time": 344.5655275,
                    "velocity": 0.36220472440944884,
                    "duration": 0.10869574999998122
                },
                {
                    "name": "G5",
                    "midi": 79,
                    "time": 344.5655275,
                    "velocity": 0.36220472440944884,
                    "duration": 0.10869574999998122
                },
                {
                    "name": "D6",
                    "midi": 86,
                    "time": 344.5655275,
                    "velocity": 0.4330708661417323,
                    "duration": 0.10869574999998122
                },
                {
                    "name": "G5",
                    "midi": 79,
                    "time": 345.00031049999996,
                    "velocity": 0.4015748031496063,
                    "duration": 0.10869574999998122
                },
                {
                    "name": "D5",
                    "midi": 74,
                    "time": 345.00031049999996,
                    "velocity": 0.4015748031496063,
                    "duration": 0.10869574999998122
                },
                {
                    "name": "D6",
                    "midi": 86,
                    "time": 345.00031049999996,
                    "velocity": 0.47244094488188976,
                    "duration": 0.10869574999998122
                },
                {
                    "name": "B5",
                    "midi": 83,
                    "time": 345.00031049999996,
                    "velocity": 0.4015748031496063,
                    "duration": 0.10869574999998122
                },
                {
                    "name": "C6",
                    "midi": 84,
                    "time": 345.43509349999994,
                    "velocity": 0.3937007874015748,
                    "duration": 0.10869574999998122
                },
                {
                    "name": "D#5",
                    "midi": 75,
                    "time": 345.43509349999994,
                    "velocity": 0.3937007874015748,
                    "duration": 0.10869574999998122
                },
                {
                    "name": "G5",
                    "midi": 79,
                    "time": 345.43509349999994,
                    "velocity": 0.3937007874015748,
                    "duration": 0.10869574999998122
                },
                {
                    "name": "D#6",
                    "midi": 87,
                    "time": 345.43509349999994,
                    "velocity": 0.47244094488188976,
                    "duration": 0.10869574999998122
                },
                {
                    "name": "G5",
                    "midi": 79,
                    "time": 345.8698764999999,
                    "velocity": 0.4330708661417323,
                    "duration": 0.10869574999998122
                },
                {
                    "name": "D#5",
                    "midi": 75,
                    "time": 345.8698764999999,
                    "velocity": 0.4330708661417323,
                    "duration": 0.10869574999998122
                },
                {
                    "name": "D#6",
                    "midi": 87,
                    "time": 345.8698764999999,
                    "velocity": 0.5118110236220472,
                    "duration": 0.10869574999998122
                },
                {
                    "name": "C6",
                    "midi": 84,
                    "time": 345.8698764999999,
                    "velocity": 0.4330708661417323,
                    "duration": 0.10869574999998122
                },
                {
                    "name": "D#6",
                    "midi": 87,
                    "time": 346.3046594999999,
                    "velocity": 0.5118110236220472,
                    "duration": 0.10869574999998122
                },
                {
                    "name": "C6",
                    "midi": 84,
                    "time": 346.3046594999999,
                    "velocity": 0.4330708661417323,
                    "duration": 0.10869574999998122
                },
                {
                    "name": "D#5",
                    "midi": 75,
                    "time": 346.3046594999999,
                    "velocity": 0.4330708661417323,
                    "duration": 0.10869574999998122
                },
                {
                    "name": "G5",
                    "midi": 79,
                    "time": 346.3046594999999,
                    "velocity": 0.4330708661417323,
                    "duration": 0.10869574999998122
                },
                {
                    "name": "C6",
                    "midi": 84,
                    "time": 346.7394424999999,
                    "velocity": 0.47244094488188976,
                    "duration": 0.10869574999998122
                },
                {
                    "name": "G5",
                    "midi": 79,
                    "time": 346.7394424999999,
                    "velocity": 0.47244094488188976,
                    "duration": 0.10869574999998122
                },
                {
                    "name": "D#5",
                    "midi": 75,
                    "time": 346.7394424999999,
                    "velocity": 0.47244094488188976,
                    "duration": 0.10869574999998122
                },
                {
                    "name": "D#6",
                    "midi": 87,
                    "time": 346.7394424999999,
                    "velocity": 0.5590551181102362,
                    "duration": 0.10869574999998122
                },
                {
                    "name": "D#5",
                    "midi": 75,
                    "time": 347.17422549999986,
                    "velocity": 0.4645669291338583,
                    "duration": 0.10869574999998122
                },
                {
                    "name": "D#6",
                    "midi": 87,
                    "time": 347.17422549999986,
                    "velocity": 0.5511811023622047,
                    "duration": 0.10869574999998122
                },
                {
                    "name": "C6",
                    "midi": 84,
                    "time": 347.17422549999986,
                    "velocity": 0.4645669291338583,
                    "duration": 0.10869574999998122
                },
                {
                    "name": "A5",
                    "midi": 81,
                    "time": 347.17422549999986,
                    "velocity": 0.4645669291338583,
                    "duration": 0.10869574999998122
                },
                {
                    "name": "D#5",
                    "midi": 75,
                    "time": 347.60900849999985,
                    "velocity": 0.5039370078740157,
                    "duration": 0.10869574999998122
                },
                {
                    "name": "C6",
                    "midi": 84,
                    "time": 347.60900849999985,
                    "velocity": 0.5118110236220472,
                    "duration": 0.10869574999998122
                },
                {
                    "name": "A5",
                    "midi": 81,
                    "time": 347.60900849999985,
                    "velocity": 0.5118110236220472,
                    "duration": 0.10869574999998122
                },
                {
                    "name": "D#6",
                    "midi": 87,
                    "time": 347.60900849999985,
                    "velocity": 0.5984251968503937,
                    "duration": 0.10869574999998122
                },
                {
                    "name": "D#6",
                    "midi": 87,
                    "time": 348.0437914999998,
                    "velocity": 0.5905511811023622,
                    "duration": 0.10869574999998122
                },
                {
                    "name": "D#5",
                    "midi": 75,
                    "time": 348.0437914999998,
                    "velocity": 0.49606299212598426,
                    "duration": 0.10869574999998122
                },
                {
                    "name": "A5",
                    "midi": 81,
                    "time": 348.0437914999998,
                    "velocity": 0.49606299212598426,
                    "duration": 0.10869574999998122
                },
                {
                    "name": "C6",
                    "midi": 84,
                    "time": 348.0437914999998,
                    "velocity": 0.49606299212598426,
                    "duration": 0.10869574999998122
                },
                {
                    "name": "A5",
                    "midi": 81,
                    "time": 348.4785744999998,
                    "velocity": 0.5433070866141733,
                    "duration": 0.10869574999998122
                },
                {
                    "name": "D#6",
                    "midi": 87,
                    "time": 348.4785744999998,
                    "velocity": 0.5433070866141733,
                    "duration": 0.10869574999998122
                },
                {
                    "name": "C6",
                    "midi": 84,
                    "time": 348.4785744999998,
                    "velocity": 0.5433070866141733,
                    "duration": 0.10869574999998122
                },
                {
                    "name": "A6",
                    "midi": 93,
                    "time": 348.4785744999998,
                    "velocity": 0.6377952755905512,
                    "duration": 0.10869574999998122
                },
                {
                    "name": "C6",
                    "midi": 84,
                    "time": 348.9133574999998,
                    "velocity": 0.5354330708661418,
                    "duration": 0.10869574999998122
                },
                {
                    "name": "C7",
                    "midi": 96,
                    "time": 348.9133574999998,
                    "velocity": 0.6299212598425197,
                    "duration": 0.10869574999998122
                },
                {
                    "name": "D#6",
                    "midi": 87,
                    "time": 348.9133574999998,
                    "velocity": 0.5354330708661418,
                    "duration": 0.10869574999998122
                },
                {
                    "name": "A6",
                    "midi": 93,
                    "time": 348.9133574999998,
                    "velocity": 0.5354330708661418,
                    "duration": 0.10869574999998122
                },
                {
                    "name": "D#6",
                    "midi": 87,
                    "time": 349.3481404999998,
                    "velocity": 0.5826771653543307,
                    "duration": 0.10869574999998122
                },
                {
                    "name": "C7",
                    "midi": 96,
                    "time": 349.3481404999998,
                    "velocity": 0.5826771653543307,
                    "duration": 0.10869574999998122
                },
                {
                    "name": "D#7",
                    "midi": 99,
                    "time": 349.3481404999998,
                    "velocity": 0.6850393700787402,
                    "duration": 0.10869574999998122
                },
                {
                    "name": "A6",
                    "midi": 93,
                    "time": 349.3481404999998,
                    "velocity": 0.5826771653543307,
                    "duration": 0.10869574999998122
                },
                {
                    "name": "D#6",
                    "midi": 87,
                    "time": 349.56553199999973,
                    "velocity": 0.5905511811023622,
                    "duration": 0.21739150000001928
                },
                {
                    "name": "D#7",
                    "midi": 99,
                    "time": 349.56553199999973,
                    "velocity": 0.6929133858267716,
                    "duration": 0.21739150000001928
                },
                {
                    "name": "A6",
                    "midi": 93,
                    "time": 349.56553199999973,
                    "velocity": 0.5905511811023622,
                    "duration": 0.21739150000001928
                },
                {
                    "name": "C7",
                    "midi": 96,
                    "time": 349.56553199999973,
                    "velocity": 0.5905511811023622,
                    "duration": 0.21739150000001928
                },
                {
                    "name": "C6",
                    "midi": 84,
                    "time": 349.78292349999975,
                    "velocity": 0.44881889763779526,
                    "duration": 0.10869574999998122
                },
                {
                    "name": "D#6",
                    "midi": 87,
                    "time": 349.78292349999975,
                    "velocity": 0.44881889763779526,
                    "duration": 0.10869574999998122
                },
                {
                    "name": "B5",
                    "midi": 83,
                    "time": 349.89161924999974,
                    "velocity": 0.44881889763779526,
                    "duration": 0.10869574999998122
                },
                {
                    "name": "D6",
                    "midi": 86,
                    "time": 349.89161924999974,
                    "velocity": 0.44881889763779526,
                    "duration": 0.10869574999998122
                },
                {
                    "name": "C6",
                    "midi": 84,
                    "time": 350.0003149999997,
                    "velocity": 0.49606299212598426,
                    "duration": 0.21739150000001928
                },
                {
                    "name": "D#6",
                    "midi": 87,
                    "time": 350.0003149999997,
                    "velocity": 0.49606299212598426,
                    "duration": 0.21739150000001928
                },
                {
                    "name": "A4",
                    "midi": 69,
                    "time": 350.21770649999974,
                    "velocity": 0.4094488188976378,
                    "duration": 0.10869574999998122
                },
                {
                    "name": "C5",
                    "midi": 72,
                    "time": 350.21770649999974,
                    "velocity": 0.4094488188976378,
                    "duration": 0.10869574999998122
                },
                {
                    "name": "C#5",
                    "midi": 73,
                    "time": 350.3264022499997,
                    "velocity": 0.4094488188976378,
                    "duration": 0.10869574999998122
                },
                {
                    "name": "A#4",
                    "midi": 70,
                    "time": 350.3264022499997,
                    "velocity": 0.4094488188976378,
                    "duration": 0.10869574999998122
                },
                {
                    "name": "C5",
                    "midi": 72,
                    "time": 350.4350979999997,
                    "velocity": 0.4566929133858268,
                    "duration": 0.21739150000001928
                },
                {
                    "name": "A4",
                    "midi": 69,
                    "time": 350.4350979999997,
                    "velocity": 0.4566929133858268,
                    "duration": 0.21739150000001928
                },
                {
                    "name": "C5",
                    "midi": 72,
                    "time": 350.6524894999997,
                    "velocity": 0.3700787401574803,
                    "duration": 0.10869574999998122
                },
                {
                    "name": "D#5",
                    "midi": 75,
                    "time": 350.6524894999997,
                    "velocity": 0.3700787401574803,
                    "duration": 0.10869574999998122
                },
                {
                    "name": "D5",
                    "midi": 74,
                    "time": 350.7611852499997,
                    "velocity": 0.3700787401574803,
                    "duration": 0.10869574999998122
                },
                {
                    "name": "B4",
                    "midi": 71,
                    "time": 350.7611852499997,
                    "velocity": 0.3700787401574803,
                    "duration": 0.10869574999998122
                },
                {
                    "name": "D#5",
                    "midi": 75,
                    "time": 350.8698809999997,
                    "velocity": 0.4409448818897638,
                    "duration": 0.21739150000001928
                },
                {
                    "name": "C5",
                    "midi": 72,
                    "time": 350.8698809999997,
                    "velocity": 0.4409448818897638,
                    "duration": 0.21739150000001928
                },
                {
                    "name": "A5",
                    "midi": 81,
                    "time": 351.0872724999997,
                    "velocity": 0.3700787401574803,
                    "duration": 0.10869574999998122
                },
                {
                    "name": "C6",
                    "midi": 84,
                    "time": 351.1959682499997,
                    "velocity": 0.3700787401574803,
                    "duration": 0.10869574999998122
                },
                {
                    "name": "D#6",
                    "midi": 87,
                    "time": 351.30466399999966,
                    "velocity": 0.44881889763779526,
                    "duration": 0.10869574999998122
                },
                {
                    "name": "F6",
                    "midi": 89,
                    "time": 351.41335974999964,
                    "velocity": 0.3779527559055118,
                    "duration": 0.10869574999998122
                },
                {
                    "name": "D#6",
                    "midi": 87,
                    "time": 351.5220554999996,
                    "velocity": 0.3858267716535433,
                    "duration": 0.10869574999998122
                },
                {
                    "name": "D6",
                    "midi": 86,
                    "time": 351.6307512499996,
                    "velocity": 0.3937007874015748,
                    "duration": 0.10869574999998122
                },
                {
                    "name": "D#6",
                    "midi": 87,
                    "time": 351.7394469999996,
                    "velocity": 0.5118110236220472,
                    "duration": 0.10869574999998122
                },
                {
                    "name": "F6",
                    "midi": 89,
                    "time": 351.84814274999957,
                    "velocity": 0.44881889763779526,
                    "duration": 0.10869574999998122
                },
                {
                    "name": "G6",
                    "midi": 91,
                    "time": 351.95683849999955,
                    "velocity": 0.5196850393700787,
                    "duration": 0.10869574999998122
                },
                {
                    "name": "D#6",
                    "midi": 87,
                    "time": 352.06553424999953,
                    "velocity": 0.4566929133858268,
                    "duration": 0.10869574999998122
                },
                {
                    "name": "C6",
                    "midi": 84,
                    "time": 352.1742299999995,
                    "velocity": 0.5433070866141733,
                    "duration": 0.10869574999998122
                },
                {
                    "name": "D6",
                    "midi": 86,
                    "time": 352.2829257499995,
                    "velocity": 0.4409448818897638,
                    "duration": 0.10869574999998122
                },
                {
                    "name": "D#6",
                    "midi": 87,
                    "time": 352.3916214999995,
                    "velocity": 0.5196850393700787,
                    "duration": 0.10869574999998122
                },
                {
                    "name": "C6",
                    "midi": 84,
                    "time": 352.50031724999945,
                    "velocity": 0.4251968503937008,
                    "duration": 0.10869574999998122
                },
                {
                    "name": "A5",
                    "midi": 81,
                    "time": 352.60901299999944,
                    "velocity": 0.5196850393700787,
                    "duration": 0.10869574999998122
                },
                {
                    "name": "A#5",
                    "midi": 82,
                    "time": 352.7177087499994,
                    "velocity": 0.41732283464566927,
                    "duration": 0.10869574999998122
                },
                {
                    "name": "C6",
                    "midi": 84,
                    "time": 352.8264044999994,
                    "velocity": 0.48031496062992124,
                    "duration": 0.10869574999998122
                },
                {
                    "name": "A5",
                    "midi": 81,
                    "time": 352.9351002499994,
                    "velocity": 0.41732283464566927,
                    "duration": 0.10869574999998122
                },
                {
                    "name": "D#5",
                    "midi": 75,
                    "time": 353.04379599999936,
                    "velocity": 0.3700787401574803,
                    "duration": 0.10869574999998122
                },
                {
                    "name": "F5",
                    "midi": 77,
                    "time": 353.15249174999934,
                    "velocity": 0.3700787401574803,
                    "duration": 0.10869574999998122
                },
                {
                    "name": "G5",
                    "midi": 79,
                    "time": 353.2611874999993,
                    "velocity": 0.4566929133858268,
                    "duration": 0.10869574999998122
                },
                {
                    "name": "D#5",
                    "midi": 75,
                    "time": 353.3698832499993,
                    "velocity": 0.3700787401574803,
                    "duration": 0.10869574999998122
                },
                {
                    "name": "C5",
                    "midi": 72,
                    "time": 353.4785789999993,
                    "velocity": 0.3700787401574803,
                    "duration": 0.10869574999998122
                },
                {
                    "name": "D5",
                    "midi": 74,
                    "time": 353.58727474999927,
                    "velocity": 0.3700787401574803,
                    "duration": 0.10869574999998122
                },
                {
                    "name": "D#5",
                    "midi": 75,
                    "time": 353.69597049999925,
                    "velocity": 0.41732283464566927,
                    "duration": 0.10869574999998122
                },
                {
                    "name": "C5",
                    "midi": 72,
                    "time": 353.80466624999923,
                    "velocity": 0.3700787401574803,
                    "duration": 0.10869574999998122
                },
                {
                    "name": "A4",
                    "midi": 69,
                    "time": 353.9133619999992,
                    "velocity": 0.3700787401574803,
                    "duration": 0.10869574999998122
                },
                {
                    "name": "A#4",
                    "midi": 70,
                    "time": 354.0220577499992,
                    "velocity": 0.3700787401574803,
                    "duration": 0.10869574999998122
                },
                {
                    "name": "C5",
                    "midi": 72,
                    "time": 354.1307534999992,
                    "velocity": 0.4094488188976378,
                    "duration": 0.10869574999998122
                },
                {
                    "name": "A4",
                    "midi": 69,
                    "time": 354.23944924999915,
                    "velocity": 0.3700787401574803,
                    "duration": 0.10869574999998122
                },
                {
                    "name": "F4",
                    "midi": 65,
                    "time": 354.34814499999914,
                    "velocity": 0.3700787401574803,
                    "duration": 0.21739150000001928
                },
                {
                    "name": "D#4",
                    "midi": 63,
                    "time": 354.34814499999914,
                    "velocity": 0.3700787401574803,
                    "duration": 0.21739150000001928
                },
                {
                    "name": "C4",
                    "midi": 60,
                    "time": 354.34814499999914,
                    "velocity": 0.3700787401574803,
                    "duration": 0.21739150000001928
                },
                {
                    "name": "D6",
                    "midi": 86,
                    "time": 354.7829279999992,
                    "velocity": 0.44881889763779526,
                    "duration": 0.10869574999998122
                },
                {
                    "name": "D#6",
                    "midi": 87,
                    "time": 354.89162374999916,
                    "velocity": 0.3779527559055118,
                    "duration": 0.10869574999998122
                },
                {
                    "name": "D6",
                    "midi": 86,
                    "time": 355.00031949999914,
                    "velocity": 0.3858267716535433,
                    "duration": 0.10869574999998122
                },
                {
                    "name": "C6",
                    "midi": 84,
                    "time": 355.1090152499991,
                    "velocity": 0.3937007874015748,
                    "duration": 0.10869574999998122
                },
                {
                    "name": "D6",
                    "midi": 86,
                    "time": 355.2177109999991,
                    "velocity": 0.5118110236220472,
                    "duration": 0.10869574999998122
                },
                {
                    "name": "D#6",
                    "midi": 87,
                    "time": 355.3264067499991,
                    "velocity": 0.44881889763779526,
                    "duration": 0.10869574999998122
                },
                {
                    "name": "F6",
                    "midi": 89,
                    "time": 355.43510249999906,
                    "velocity": 0.5196850393700787,
                    "duration": 0.10869574999998122
                },
                {
                    "name": "D6",
                    "midi": 86,
                    "time": 355.54379824999904,
                    "velocity": 0.4566929133858268,
                    "duration": 0.10869574999998122
                },
                {
                    "name": "A#5",
                    "midi": 82,
                    "time": 355.652493999999,
                    "velocity": 0.5433070866141733,
                    "duration": 0.10869574999998122
                },
                {
                    "name": "C6",
                    "midi": 84,
                    "time": 355.761189749999,
                    "velocity": 0.4409448818897638,
                    "duration": 0.10869574999998122
                },
                {
                    "name": "D6",
                    "midi": 86,
                    "time": 355.869885499999,
                    "velocity": 0.5196850393700787,
                    "duration": 0.10869574999998122
                },
                {
                    "name": "A#5",
                    "midi": 82,
                    "time": 355.97858124999897,
                    "velocity": 0.4251968503937008,
                    "duration": 0.10869574999998122
                },
                {
                    "name": "F5",
                    "midi": 77,
                    "time": 356.08727699999895,
                    "velocity": 0.5196850393700787,
                    "duration": 0.10869574999998122
                },
                {
                    "name": "A5",
                    "midi": 81,
                    "time": 356.19597274999893,
                    "velocity": 0.41732283464566927,
                    "duration": 0.10869574999998122
                },
                {
                    "name": "A#5",
                    "midi": 82,
                    "time": 356.3046684999989,
                    "velocity": 0.48031496062992124,
                    "duration": 0.10869574999998122
                },
                {
                    "name": "F5",
                    "midi": 77,
                    "time": 356.4133642499989,
                    "velocity": 0.41732283464566927,
                    "duration": 0.10869574999998122
                },
                {
                    "name": "D5",
                    "midi": 74,
                    "time": 356.5220599999989,
                    "velocity": 0.3700787401574803,
                    "duration": 0.10869574999998122
                },
                {
                    "name": "D#5",
                    "midi": 75,
                    "time": 356.63075574999885,
                    "velocity": 0.3700787401574803,
                    "duration": 0.10869574999998122
                },
                {
                    "name": "F5",
                    "midi": 77,
                    "time": 356.73945149999884,
                    "velocity": 0.4566929133858268,
                    "duration": 0.10869574999998122
                },
                {
                    "name": "D5",
                    "midi": 74,
                    "time": 356.8481472499988,
                    "velocity": 0.3700787401574803,
                    "duration": 0.10869574999998122
                },
                {
                    "name": "A#4",
                    "midi": 70,
                    "time": 356.9568429999988,
                    "velocity": 0.3700787401574803,
                    "duration": 0.10869574999998122
                },
                {
                    "name": "C5",
                    "midi": 72,
                    "time": 357.0655387499988,
                    "velocity": 0.3700787401574803,
                    "duration": 0.10869574999998122
                },
                {
                    "name": "D5",
                    "midi": 74,
                    "time": 357.17423449999876,
                    "velocity": 0.41732283464566927,
                    "duration": 0.10869574999998122
                },
                {
                    "name": "A#4",
                    "midi": 70,
                    "time": 357.28293024999874,
                    "velocity": 0.3700787401574803,
                    "duration": 0.10869574999998122
                },
                {
                    "name": "F4",
                    "midi": 65,
                    "time": 357.3916259999987,
                    "velocity": 0.3700787401574803,
                    "duration": 0.10869574999998122
                },
                {
                    "name": "A4",
                    "midi": 69,
                    "time": 357.5003217499987,
                    "velocity": 0.3700787401574803,
                    "duration": 0.10869574999998122
                },
                {
                    "name": "A#4",
                    "midi": 70,
                    "time": 357.6090174999987,
                    "velocity": 0.4094488188976378,
                    "duration": 0.10869574999998122
                },
                {
                    "name": "D4",
                    "midi": 62,
                    "time": 357.71771324999867,
                    "velocity": 0.3700787401574803,
                    "duration": 0.10869574999998122
                },
                {
                    "name": "A#4",
                    "midi": 70,
                    "time": 357.82640899999865,
                    "velocity": 0.31496062992125984,
                    "duration": 0.10869574999998122
                },
                {
                    "name": "C5",
                    "midi": 72,
                    "time": 357.93510474999863,
                    "velocity": 0.31496062992125984,
                    "duration": 0.10869574999998122
                },
                {
                    "name": "D5",
                    "midi": 74,
                    "time": 358.0438004999986,
                    "velocity": 0.3543307086614173,
                    "duration": 0.1068841541666643
                },
                {
                    "name": "A#4",
                    "midi": 70,
                    "time": 358.1524962499986,
                    "velocity": 0.31496062992125984,
                    "duration": 0.10869574999998122
                },
                {
                    "name": "F4",
                    "midi": 65,
                    "time": 358.2611919999986,
                    "velocity": 0.31496062992125984,
                    "duration": 0.21739150000001928
                },
                {
                    "name": "C5",
                    "midi": 72,
                    "time": 358.2611919999986,
                    "velocity": 0.36220472440944884,
                    "duration": 0.21739150000001928
                },
                {
                    "name": "A4",
                    "midi": 69,
                    "time": 358.2611919999986,
                    "velocity": 0.31496062992125984,
                    "duration": 0.21739150000001928
                },
                {
                    "name": "G6",
                    "midi": 91,
                    "time": 358.4785834999986,
                    "velocity": 0.4094488188976378,
                    "duration": 0.10869574999998122
                },
                {
                    "name": "F6",
                    "midi": 89,
                    "time": 358.5872792499986,
                    "velocity": 0.3700787401574803,
                    "duration": 0.10869574999998122
                },
                {
                    "name": "G6",
                    "midi": 91,
                    "time": 358.69597499999855,
                    "velocity": 0.31496062992125984,
                    "duration": 0.10869574999998122
                },
                {
                    "name": "F6",
                    "midi": 89,
                    "time": 358.80467074999854,
                    "velocity": 0.31496062992125984,
                    "duration": 0.10869574999998122
                },
                {
                    "name": "D#6",
                    "midi": 87,
                    "time": 358.9133664999985,
                    "velocity": 0.3543307086614173,
                    "duration": 0.10869574999998122
                },
                {
                    "name": "G6",
                    "midi": 91,
                    "time": 359.0220622499985,
                    "velocity": 0.31496062992125984,
                    "duration": 0.10869574999998122
                },
                {
                    "name": "D#6",
                    "midi": 87,
                    "time": 359.1307579999985,
                    "velocity": 0.4094488188976378,
                    "duration": 0.10869574999998122
                },
                {
                    "name": "D6",
                    "midi": 86,
                    "time": 359.23945374999846,
                    "velocity": 0.33070866141732286,
                    "duration": 0.10869574999998122
                },
                {
                    "name": "C6",
                    "midi": 84,
                    "time": 359.34814949999844,
                    "velocity": 0.3858267716535433,
                    "duration": 0.10869574999998122
                },
                {
                    "name": "D#6",
                    "midi": 87,
                    "time": 359.4568452499984,
                    "velocity": 0.33858267716535434,
                    "duration": 0.10869574999998122
                },
                {
                    "name": "C6",
                    "midi": 84,
                    "time": 359.5655409999984,
                    "velocity": 0.3779527559055118,
                    "duration": 0.10869574999998122
                },
                {
                    "name": "A#5",
                    "midi": 82,
                    "time": 359.6742367499984,
                    "velocity": 0.31496062992125984,
                    "duration": 0.10869574999998122
                },
                {
                    "name": "A5",
                    "midi": 81,
                    "time": 359.78293249999837,
                    "velocity": 0.3543307086614173,
                    "duration": 0.10869574999998122
                },
                {
                    "name": "C6",
                    "midi": 84,
                    "time": 359.89162824999835,
                    "velocity": 0.31496062992125984,
                    "duration": 0.10869574999998122
                },
                {
                    "name": "F#5",
                    "midi": 78,
                    "time": 360.00032399999833,
                    "velocity": 0.4094488188976378,
                    "duration": 0.10869574999998122
                },
                {
                    "name": "F5",
                    "midi": 77,
                    "time": 360.1090197499983,
                    "velocity": 0.33070866141732286,
                    "duration": 0.10869574999998122
                },
                {
                    "name": "D#5",
                    "midi": 75,
                    "time": 360.2177154999983,
                    "velocity": 0.3858267716535433,
                    "duration": 0.10869574999998122
                },
                {
                    "name": "F#5",
                    "midi": 78,
                    "time": 360.3264112499983,
                    "velocity": 0.33858267716535434,
                    "duration": 0.10869574999998122
                },
                {
                    "name": "D#5",
                    "midi": 75,
                    "time": 360.43510699999825,
                    "velocity": 0.3779527559055118,
                    "duration": 0.10869574999998122
                },
                {
                    "name": "D5",
                    "midi": 74,
                    "time": 360.54380274999824,
                    "velocity": 0.31496062992125984,
                    "duration": 0.10869574999998122
                },
                {
                    "name": "C5",
                    "midi": 72,
                    "time": 360.6524984999982,
                    "velocity": 0.3543307086614173,
                    "duration": 0.10869574999998122
                },
                {
                    "name": "D#5",
                    "midi": 75,
                    "time": 360.7611942499982,
                    "velocity": 0.31496062992125984,
                    "duration": 0.10869574999998122
                },
                {
                    "name": "C5",
                    "midi": 72,
                    "time": 360.8698899999982,
                    "velocity": 0.4094488188976378,
                    "duration": 0.10869574999998122
                },
                {
                    "name": "A#4",
                    "midi": 70,
                    "time": 360.97858574999816,
                    "velocity": 0.33070866141732286,
                    "duration": 0.10869574999998122
                },
                {
                    "name": "A4",
                    "midi": 69,
                    "time": 361.08728149999814,
                    "velocity": 0.3858267716535433,
                    "duration": 0.10869574999998122
                },
                {
                    "name": "C5",
                    "midi": 72,
                    "time": 361.1959772499981,
                    "velocity": 0.33858267716535434,
                    "duration": 0.10869574999998122
                },
                {
                    "name": "D#4",
                    "midi": 63,
                    "time": 361.3046729999981,
                    "velocity": 0.3779527559055118,
                    "duration": 0.10869574999998122
                },
                {
                    "name": "D4",
                    "midi": 62,
                    "time": 361.4133687499981,
                    "velocity": 0.31496062992125984,
                    "duration": 0.10869574999998122
                },
                {
                    "name": "C4",
                    "midi": 60,
                    "time": 361.52206449999807,
                    "velocity": 0.3543307086614173,
                    "duration": 0.10869574999998122
                },
                {
                    "name": "D#4",
                    "midi": 63,
                    "time": 361.63076024999805,
                    "velocity": 0.31496062992125984,
                    "duration": 0.10869574999998122
                },
                {
                    "name": "F4",
                    "midi": 65,
                    "time": 361.73945599999803,
                    "velocity": 0.31496062992125984,
                    "duration": 0.21739150000001928
                },
                {
                    "name": "A#4",
                    "midi": 70,
                    "time": 361.73945599999803,
                    "velocity": 0.36220472440944884,
                    "duration": 0.21739150000001928
                },
                {
                    "name": "F6",
                    "midi": 89,
                    "time": 361.95684749999805,
                    "velocity": 0.4094488188976378,
                    "duration": 0.10869574999998122
                },
                {
                    "name": "D#6",
                    "midi": 87,
                    "time": 362.06554324999803,
                    "velocity": 0.3700787401574803,
                    "duration": 0.10869574999998122
                },
                {
                    "name": "F6",
                    "midi": 89,
                    "time": 362.174238999998,
                    "velocity": 0.31496062992125984,
                    "duration": 0.10869574999998122
                },
                {
                    "name": "D#6",
                    "midi": 87,
                    "time": 362.282934749998,
                    "velocity": 0.31496062992125984,
                    "duration": 0.10869574999998122
                },
                {
                    "name": "D6",
                    "midi": 86,
                    "time": 362.391630499998,
                    "velocity": 0.3543307086614173,
                    "duration": 0.10869574999998122
                },
                {
                    "name": "F6",
                    "midi": 89,
                    "time": 362.50032624999795,
                    "velocity": 0.31496062992125984,
                    "duration": 0.10869574999998122
                },
                {
                    "name": "D6",
                    "midi": 86,
                    "time": 362.60902199999794,
                    "velocity": 0.4094488188976378,
                    "duration": 0.10869574999998122
                },
                {
                    "name": "C6",
                    "midi": 84,
                    "time": 362.7177177499979,
                    "velocity": 0.33070866141732286,
                    "duration": 0.10869574999998122
                },
                {
                    "name": "A#5",
                    "midi": 82,
                    "time": 362.8264134999979,
                    "velocity": 0.3858267716535433,
                    "duration": 0.10869574999998122
                },
                {
                    "name": "D6",
                    "midi": 86,
                    "time": 362.9351092499979,
                    "velocity": 0.33858267716535434,
                    "duration": 0.10869574999998122
                },
                {
                    "name": "F5",
                    "midi": 77,
                    "time": 363.04380499999786,
                    "velocity": 0.3779527559055118,
                    "duration": 0.10869574999998122
                },
                {
                    "name": "D#5",
                    "midi": 75,
                    "time": 363.15250074999784,
                    "velocity": 0.31496062992125984,
                    "duration": 0.10869574999998122
                },
                {
                    "name": "D5",
                    "midi": 74,
                    "time": 363.2611964999978,
                    "velocity": 0.3543307086614173,
                    "duration": 0.10869574999998122
                },
                {
                    "name": "F5",
                    "midi": 77,
                    "time": 363.3698922499978,
                    "velocity": 0.31496062992125984,
                    "duration": 0.10869574999998122
                },
                {
                    "name": "A#5",
                    "midi": 82,
                    "time": 363.4785879999978,
                    "velocity": 0.4094488188976378,
                    "duration": 0.10869574999998122
                },
                {
                    "name": "G5",
                    "midi": 79,
                    "time": 363.58728374999777,
                    "velocity": 0.33070866141732286,
                    "duration": 0.10869574999998122
                },
                {
                    "name": "F5",
                    "midi": 77,
                    "time": 363.69597949999775,
                    "velocity": 0.3858267716535433,
                    "duration": 0.10869574999998122
                },
                {
                    "name": "A#5",
                    "midi": 82,
                    "time": 363.80467524999773,
                    "velocity": 0.33858267716535434,
                    "duration": 0.10869574999998122
                },
                {
                    "name": "D5",
                    "midi": 74,
                    "time": 363.9133709999977,
                    "velocity": 0.3779527559055118,
                    "duration": 0.10869574999998122
                },
                {
                    "name": "C5",
                    "midi": 72,
                    "time": 364.0220667499977,
                    "velocity": 0.31496062992125984,
                    "duration": 0.10869574999998122
                },
                {
                    "name": "A#4",
                    "midi": 70,
                    "time": 364.1307624999977,
                    "velocity": 0.3543307086614173,
                    "duration": 0.10869574999998122
                },
                {
                    "name": "D5",
                    "midi": 74,
                    "time": 364.23945824999765,
                    "velocity": 0.31496062992125984,
                    "duration": 0.10869574999998122
                },
                {
                    "name": "D6",
                    "midi": 86,
                    "time": 364.34815399999763,
                    "velocity": 0.4881889763779528,
                    "duration": 0.10869574999998122
                },
                {
                    "name": "D5",
                    "midi": 74,
                    "time": 364.34815399999763,
                    "velocity": 0.4881889763779528,
                    "duration": 0.43478299999992487
                },
                {
                    "name": "C6",
                    "midi": 84,
                    "time": 364.4568497499976,
                    "velocity": 0.4015748031496063,
                    "duration": 0.10869574999998122
                },
                {
                    "name": "A#5",
                    "midi": 82,
                    "time": 364.5655454999976,
                    "velocity": 0.48031496062992124,
                    "duration": 0.10869574999998122
                },
                {
                    "name": "D6",
                    "midi": 86,
                    "time": 364.6742412499976,
                    "velocity": 0.4094488188976378,
                    "duration": 0.10869574999998122
                },
                {
                    "name": "D#6",
                    "midi": 87,
                    "time": 364.78293699999756,
                    "velocity": 0.4094488188976378,
                    "duration": 0.10869574999998122
                },
                {
                    "name": "F#5",
                    "midi": 78,
                    "time": 364.78293699999756,
                    "velocity": 0.4881889763779528,
                    "duration": 0.43478299999992487
                },
                {
                    "name": "D6",
                    "midi": 86,
                    "time": 364.89163274999754,
                    "velocity": 0.4645669291338583,
                    "duration": 0.10869574999998122
                },
                {
                    "name": "D#6",
                    "midi": 87,
                    "time": 365.0003284999975,
                    "velocity": 0.4881889763779528,
                    "duration": 0.10869574999998122
                },
                {
                    "name": "F6",
                    "midi": 89,
                    "time": 365.1090242499975,
                    "velocity": 0.5118110236220472,
                    "duration": 0.10869574999998122
                },
                {
                    "name": "F5",
                    "midi": 77,
                    "time": 365.2177199999975,
                    "velocity": 0.4015748031496063,
                    "duration": 0.21739150000001928
                },
                {
                    "name": "F6",
                    "midi": 89,
                    "time": 365.2177199999975,
                    "velocity": 0.4015748031496063,
                    "duration": 0.21739150000001928
                },
                {
                    "name": "C5",
                    "midi": 72,
                    "time": 366.3046774999975,
                    "velocity": 0.31496062992125984,
                    "duration": 0.21739150000001928
                },
                {
                    "name": "A4",
                    "midi": 69,
                    "time": 366.3046774999975,
                    "velocity": 0.2677165354330709,
                    "duration": 0.21739150000001928
                },
                {
                    "name": "D5",
                    "midi": 74,
                    "time": 366.52206899999754,
                    "velocity": 0.2992125984251969,
                    "duration": 0.10869574999998122
                },
                {
                    "name": "A#4",
                    "midi": 70,
                    "time": 366.52206899999754,
                    "velocity": 0.25196850393700787,
                    "duration": 0.10869574999998122
                },
                {
                    "name": "A#6",
                    "midi": 94,
                    "time": 366.7394604999975,
                    "velocity": 0.3700787401574803,
                    "duration": 0.10869574999998122
                },
                {
                    "name": "A6",
                    "midi": 93,
                    "time": 366.8481562499975,
                    "velocity": 0.3464566929133858,
                    "duration": 0.10869574999998122
                },
                {
                    "name": "A#6",
                    "midi": 94,
                    "time": 366.95685199999747,
                    "velocity": 0.3700787401574803,
                    "duration": 0.21739150000001928
                },
                {
                    "name": "G6",
                    "midi": 91,
                    "time": 367.1742434999975,
                    "velocity": 0.30708661417322836,
                    "duration": 0.21739150000001928
                },
                {
                    "name": "A#5",
                    "midi": 82,
                    "time": 367.1742434999975,
                    "velocity": 0.25984251968503935,
                    "duration": 0.21739150000001928
                },
                {
                    "name": "G5",
                    "midi": 79,
                    "time": 367.1742434999975,
                    "velocity": 0.25984251968503935,
                    "duration": 0.21739150000001928
                },
                {
                    "name": "A5",
                    "midi": 81,
                    "time": 367.3916349999975,
                    "velocity": 0.2755905511811024,
                    "duration": 0.21739150000001928
                },
                {
                    "name": "F6",
                    "midi": 89,
                    "time": 367.3916349999975,
                    "velocity": 0.33070866141732286,
                    "duration": 0.21739150000001928
                },
                {
                    "name": "F5",
                    "midi": 77,
                    "time": 367.3916349999975,
                    "velocity": 0.2755905511811024,
                    "duration": 0.21739150000001928
                },
                {
                    "name": "E6",
                    "midi": 88,
                    "time": 367.6090264999975,
                    "velocity": 0.31496062992125984,
                    "duration": 0.21739150000001928
                },
                {
                    "name": "G5",
                    "midi": 79,
                    "time": 367.6090264999975,
                    "velocity": 0.23622047244094488,
                    "duration": 0.21739150000001928
                },
                {
                    "name": "E5",
                    "midi": 76,
                    "time": 367.6090264999975,
                    "velocity": 0.23622047244094488,
                    "duration": 0.21739150000001928
                },
                {
                    "name": "G5",
                    "midi": 79,
                    "time": 367.82641799999755,
                    "velocity": 0.2992125984251969,
                    "duration": 0.21739150000001928
                },
                {
                    "name": "G6",
                    "midi": 91,
                    "time": 367.82641799999755,
                    "velocity": 0.3543307086614173,
                    "duration": 0.21739150000001928
                },
                {
                    "name": "A#5",
                    "midi": 82,
                    "time": 367.82641799999755,
                    "velocity": 0.2992125984251969,
                    "duration": 0.21739150000001928
                },
                {
                    "name": "A5",
                    "midi": 81,
                    "time": 368.04380949999756,
                    "velocity": 0.23622047244094488,
                    "duration": 0.21739150000001928
                },
                {
                    "name": "F5",
                    "midi": 77,
                    "time": 368.04380949999756,
                    "velocity": 0.23622047244094488,
                    "duration": 0.21739150000001928
                },
                {
                    "name": "F6",
                    "midi": 89,
                    "time": 368.04380949999756,
                    "velocity": 0.28346456692913385,
                    "duration": 0.21739150000001928
                },
                {
                    "name": "A5",
                    "midi": 81,
                    "time": 368.2612009999976,
                    "velocity": 0.23622047244094488,
                    "duration": 0.21739150000001928
                },
                {
                    "name": "F6",
                    "midi": 89,
                    "time": 368.2612009999976,
                    "velocity": 0.28346456692913385,
                    "duration": 0.21739150000001928
                },
                {
                    "name": "A#4",
                    "midi": 70,
                    "time": 368.4785924999976,
                    "velocity": 0.2992125984251969,
                    "duration": 0.10869574999998122
                },
                {
                    "name": "F5",
                    "midi": 77,
                    "time": 368.4785924999976,
                    "velocity": 0.3543307086614173,
                    "duration": 0.10869574999998122
                },
                {
                    "name": "D#5",
                    "midi": 75,
                    "time": 368.5872882499976,
                    "velocity": 0.31496062992125984,
                    "duration": 0.10869574999998122
                },
                {
                    "name": "C5",
                    "midi": 72,
                    "time": 368.5872882499976,
                    "velocity": 0.2677165354330709,
                    "duration": 0.10869574999998122
                },
                {
                    "name": "D5",
                    "midi": 74,
                    "time": 368.69598399999757,
                    "velocity": 0.36220472440944884,
                    "duration": 0.21739150000001928
                },
                {
                    "name": "A#5",
                    "midi": 82,
                    "time": 368.9133754999976,
                    "velocity": 0.4015748031496063,
                    "duration": 0.21739150000001928
                },
                {
                    "name": "A#4",
                    "midi": 70,
                    "time": 368.9133754999976,
                    "velocity": 0.33858267716535434,
                    "duration": 0.3260872500000005
                },
                {
                    "name": "G5",
                    "midi": 79,
                    "time": 369.1307669999976,
                    "velocity": 0.36220472440944884,
                    "duration": 0.10869574999998122
                },
                {
                    "name": "D#5",
                    "midi": 75,
                    "time": 369.34815849999757,
                    "velocity": 0.33858267716535434,
                    "duration": 0.10869574999998122
                },
                {
                    "name": "D#6",
                    "midi": 87,
                    "time": 369.34815849999757,
                    "velocity": 0.4015748031496063,
                    "duration": 0.10869574999998122
                },
                {
                    "name": "G5",
                    "midi": 79,
                    "time": 369.45685424999755,
                    "velocity": 0.29133858267716534,
                    "duration": 0.10869574999998122
                },
                {
                    "name": "C6",
                    "midi": 84,
                    "time": 369.45685424999755,
                    "velocity": 0.3464566929133858,
                    "duration": 0.10869574999998122
                },
                {
                    "name": "A5",
                    "midi": 81,
                    "time": 369.56554999999753,
                    "velocity": 0.4015748031496063,
                    "duration": 0.21739150000001928
                },
                {
                    "name": "F5",
                    "midi": 77,
                    "time": 369.78294149999755,
                    "velocity": 0.3700787401574803,
                    "duration": 0.3260872500000005
                },
                {
                    "name": "F6",
                    "midi": 89,
                    "time": 369.78294149999755,
                    "velocity": 0.4409448818897638,
                    "duration": 0.21739150000001928
                },
                {
                    "name": "D6",
                    "midi": 86,
                    "time": 370.00033299999757,
                    "velocity": 0.41732283464566927,
                    "duration": 0.10869574999998122
                },
                {
                    "name": "A#5",
                    "midi": 82,
                    "time": 370.21772449999753,
                    "velocity": 0.4094488188976378,
                    "duration": 0.10869574999998122
                },
                {
                    "name": "A5",
                    "midi": 81,
                    "time": 370.3264202499975,
                    "velocity": 0.3543307086614173,
                    "duration": 0.10869574999998122
                },
                {
                    "name": "A#5",
                    "midi": 82,
                    "time": 370.4351159999975,
                    "velocity": 0.4094488188976378,
                    "duration": 0.21739150000001928
                },
                {
                    "name": "G5",
                    "midi": 79,
                    "time": 370.6525074999975,
                    "velocity": 0.29133858267716534,
                    "duration": 0.21739150000001928
                },
                {
                    "name": "G6",
                    "midi": 91,
                    "time": 370.6525074999975,
                    "velocity": 0.3700787401574803,
                    "duration": 0.21739150000001928
                },
                {
                    "name": "D#6",
                    "midi": 87,
                    "time": 370.86989899999753,
                    "velocity": 0.4015748031496063,
                    "duration": 0.21739150000001928
                },
                {
                    "name": "D#5",
                    "midi": 75,
                    "time": 370.86989899999753,
                    "velocity": 0.29133858267716534,
                    "duration": 0.21739150000001928
                },
                {
                    "name": "G5",
                    "midi": 79,
                    "time": 370.86989899999753,
                    "velocity": 0.29133858267716534,
                    "duration": 0.21739150000001928
                },
                {
                    "name": "D6",
                    "midi": 86,
                    "time": 371.08729049999755,
                    "velocity": 0.3464566929133858,
                    "duration": 0.21557990416664552
                },
                {
                    "name": "A5",
                    "midi": 81,
                    "time": 371.08729049999755,
                    "velocity": 0.29133858267716534,
                    "duration": 0.21557990416664552
                },
                {
                    "name": "D5",
                    "midi": 74,
                    "time": 371.08729049999755,
                    "velocity": 0.29133858267716534,
                    "duration": 0.21557990416664552
                },
                {
                    "name": "D5",
                    "midi": 74,
                    "time": 371.3046819999975,
                    "velocity": 0.28346456692913385,
                    "duration": 0.21739150000001928
                },
                {
                    "name": "A5",
                    "midi": 81,
                    "time": 371.3046819999975,
                    "velocity": 0.3464566929133858,
                    "duration": 0.21739150000001928
                },
                {
                    "name": "D6",
                    "midi": 86,
                    "time": 371.3046819999975,
                    "velocity": 0.3464566929133858,
                    "duration": 0.652174500000001
                },
                {
                    "name": "C6",
                    "midi": 84,
                    "time": 371.52207349999753,
                    "velocity": 0.3937007874015748,
                    "duration": 0.10869574999998122
                },
                {
                    "name": "A#5",
                    "midi": 82,
                    "time": 371.6307692499975,
                    "velocity": 0.3464566929133858,
                    "duration": 0.1068841541666643
                },
                {
                    "name": "A#5",
                    "midi": 82,
                    "time": 371.7394649999975,
                    "velocity": 0.3858267716535433,
                    "duration": 0.21739150000001928
                },
                {
                    "name": "G6",
                    "midi": 91,
                    "time": 371.9568564999975,
                    "velocity": 0.4330708661417323,
                    "duration": 0.21739150000001928
                },
                {
                    "name": "A#5",
                    "midi": 82,
                    "time": 371.9568564999975,
                    "velocity": 0.36220472440944884,
                    "duration": 0.43478300000003856
                },
                {
                    "name": "C#6",
                    "midi": 85,
                    "time": 371.9568564999975,
                    "velocity": 0.36220472440944884,
                    "duration": 0.21739150000001928
                },
                {
                    "name": "C6",
                    "midi": 84,
                    "time": 372.17424799999753,
                    "velocity": 0.3464566929133858,
                    "duration": 0.652174500000001
                },
                {
                    "name": "A#5",
                    "midi": 82,
                    "time": 372.39163949999755,
                    "velocity": 0.3937007874015748,
                    "duration": 0.10869574999998122
                },
                {
                    "name": "G#5",
                    "midi": 80,
                    "time": 372.50033524999753,
                    "velocity": 0.3464566929133858,
                    "duration": 0.1068841541666643
                },
                {
                    "name": "G#5",
                    "midi": 80,
                    "time": 372.6090309999975,
                    "velocity": 0.3858267716535433,
                    "duration": 0.21739150000001928
                },
                {
                    "name": "G#5",
                    "midi": 80,
                    "time": 372.82642249999753,
                    "velocity": 0.4330708661417323,
                    "duration": 0.43478300000003856
                },
                {
                    "name": "F6",
                    "midi": 89,
                    "time": 372.82642249999753,
                    "velocity": 0.4330708661417323,
                    "duration": 0.21739150000001928
                },
                {
                    "name": "B5",
                    "midi": 83,
                    "time": 372.82642249999753,
                    "velocity": 0.4330708661417323,
                    "duration": 0.21739150000001928
                },
                {
                    "name": "A#5",
                    "midi": 82,
                    "time": 373.04381399999755,
                    "velocity": 0.3464566929133858,
                    "duration": 0.652174500000001
                },
                {
                    "name": "G#5",
                    "midi": 80,
                    "time": 373.2612054999976,
                    "velocity": 0.3937007874015748,
                    "duration": 0.10869574999998122
                },
                {
                    "name": "G5",
                    "midi": 79,
                    "time": 373.36990124999755,
                    "velocity": 0.3464566929133858,
                    "duration": 0.1068841541666643
                },
                {
                    "name": "G5",
                    "midi": 79,
                    "time": 373.47859699999754,
                    "velocity": 0.3858267716535433,
                    "duration": 0.21739150000001928
                },
                {
                    "name": "G5",
                    "midi": 79,
                    "time": 373.69598849999755,
                    "velocity": 0.36220472440944884,
                    "duration": 0.43478300000003856
                },
                {
                    "name": "E6",
                    "midi": 88,
                    "time": 373.69598849999755,
                    "velocity": 0.4330708661417323,
                    "duration": 0.21739150000001928
                },
                {
                    "name": "A#5",
                    "midi": 82,
                    "time": 373.69598849999755,
                    "velocity": 0.36220472440944884,
                    "duration": 0.21739150000001928
                },
                {
                    "name": "A5",
                    "midi": 81,
                    "time": 373.9133799999976,
                    "velocity": 0.3464566929133858,
                    "duration": 0.652174500000001
                },
                {
                    "name": "G5",
                    "midi": 79,
                    "time": 374.1307714999976,
                    "velocity": 0.3937007874015748,
                    "duration": 0.10869574999998122
                },
                {
                    "name": "F5",
                    "midi": 77,
                    "time": 374.2394672499976,
                    "velocity": 0.3464566929133858,
                    "duration": 0.1068841541666643
                },
                {
                    "name": "F5",
                    "midi": 77,
                    "time": 374.34816299999756,
                    "velocity": 0.3858267716535433,
                    "duration": 0.21739150000001928
                },
                {
                    "name": "G#5",
                    "midi": 80,
                    "time": 374.5655544999976,
                    "velocity": 0.36220472440944884,
                    "duration": 0.21739150000001928
                },
                {
                    "name": "D6",
                    "midi": 86,
                    "time": 374.5655544999976,
                    "velocity": 0.4330708661417323,
                    "duration": 0.21739150000001928
                },
                {
                    "name": "F5",
                    "midi": 77,
                    "time": 374.5655544999976,
                    "velocity": 0.36220472440944884,
                    "duration": 0.21739150000001928
                },
                {
                    "name": "G#5",
                    "midi": 80,
                    "time": 374.7829459999976,
                    "velocity": 0.4330708661417323,
                    "duration": 0.10869574999998122
                },
                {
                    "name": "F5",
                    "midi": 77,
                    "time": 374.7829459999976,
                    "velocity": 0.36220472440944884,
                    "duration": 0.21739149999996243
                },
                {
                    "name": "G5",
                    "midi": 79,
                    "time": 374.8916417499976,
                    "velocity": 0.36220472440944884,
                    "duration": 0.21739149999996243
                },
                {
                    "name": "D#5",
                    "midi": 75,
                    "time": 375.00033749999756,
                    "velocity": 0.36220472440944884,
                    "duration": 0.21739149999996243
                },
                {
                    "name": "C6",
                    "midi": 84,
                    "time": 375.10903324999754,
                    "velocity": 0.3779527559055118,
                    "duration": 0.10869574999998122
                },
                {
                    "name": "F#5",
                    "midi": 78,
                    "time": 375.2177289999975,
                    "velocity": 0.4330708661417323,
                    "duration": 0.10869574999998122
                },
                {
                    "name": "D#5",
                    "midi": 75,
                    "time": 375.2177289999975,
                    "velocity": 0.36220472440944884,
                    "duration": 0.21739149999996243
                },
                {
                    "name": "F5",
                    "midi": 77,
                    "time": 375.3264247499975,
                    "velocity": 0.3700787401574803,
                    "duration": 0.21739149999996243
                },
                {
                    "name": "D5",
                    "midi": 74,
                    "time": 375.4351204999975,
                    "velocity": 0.36220472440944884,
                    "duration": 0.21739149999996243
                },
                {
                    "name": "A#5",
                    "midi": 82,
                    "time": 375.54381624999746,
                    "velocity": 0.3858267716535433,
                    "duration": 0.10869574999998122
                },
                {
                    "name": "F5",
                    "midi": 77,
                    "time": 375.65251199999744,
                    "velocity": 0.4409448818897638,
                    "duration": 0.10869574999998122
                },
                {
                    "name": "F6",
                    "midi": 89,
                    "time": 375.7612077499974,
                    "velocity": 0.3858267716535433,
                    "duration": 0.10869574999998122
                },
                {
                    "name": "E6",
                    "midi": 88,
                    "time": 375.8699034999974,
                    "velocity": 0.3937007874015748,
                    "duration": 0.10869574999998122
                },
                {
                    "name": "D#6",
                    "midi": 87,
                    "time": 375.9785992499974,
                    "velocity": 0.3937007874015748,
                    "duration": 0.10869574999998122
                },
                {
                    "name": "C6",
                    "midi": 84,
                    "time": 376.08729499999737,
                    "velocity": 0.4015748031496063,
                    "duration": 0.10869574999998122
                },
                {
                    "name": "A5",
                    "midi": 81,
                    "time": 376.19599074999735,
                    "velocity": 0.4094488188976378,
                    "duration": 0.10869574999998122
                },
                {
                    "name": "F#5",
                    "midi": 78,
                    "time": 376.30468649999733,
                    "velocity": 0.41732283464566927,
                    "duration": 0.10869574999998122
                },
                {
                    "name": "F5",
                    "midi": 77,
                    "time": 376.4133822499973,
                    "velocity": 0.4251968503937008,
                    "duration": 0.10869574999998122
                },
                {
                    "name": "E5",
                    "midi": 76,
                    "time": 376.5220779999973,
                    "velocity": 0.4330708661417323,
                    "duration": 0.10869574999998122
                },
                {
                    "name": "D#5",
                    "midi": 75,
                    "time": 376.6307737499973,
                    "velocity": 0.4409448818897638,
                    "duration": 0.10869574999998122
                },
                {
                    "name": "C5",
                    "midi": 72,
                    "time": 376.73946949999726,
                    "velocity": 0.4409448818897638,
                    "duration": 0.10869574999998122
                },
                {
                    "name": "A4",
                    "midi": 69,
                    "time": 376.84816524999724,
                    "velocity": 0.44881889763779526,
                    "duration": 0.10869574999998122
                },
                {
                    "name": "F#4",
                    "midi": 66,
                    "time": 376.9568609999972,
                    "velocity": 0.48031496062992124,
                    "duration": 0.10869574999998122
                },
                {
                    "name": "A#4",
                    "midi": 70,
                    "time": 376.9568609999972,
                    "velocity": 0.4015748031496063,
                    "duration": 0.21739149999996243
                },
                {
                    "name": "F4",
                    "midi": 65,
                    "time": 377.0655567499972,
                    "velocity": 0.3700787401574803,
                    "duration": 0.10869574999998122
                },
                {
                    "name": "G5",
                    "midi": 79,
                    "time": 377.1742524999972,
                    "velocity": 0.4566929133858268,
                    "duration": 0.10869574999998122
                },
                {
                    "name": "A#4",
                    "midi": 70,
                    "time": 377.1742524999972,
                    "velocity": 0.3858267716535433,
                    "duration": 0.21739149999996243
                },
                {
                    "name": "F5",
                    "midi": 77,
                    "time": 377.28294824999716,
                    "velocity": 0.3700787401574803,
                    "duration": 0.10869574999998122
                },
                {
                    "name": "F5",
                    "midi": 77,
                    "time": 377.39164399999714,
                    "velocity": 0.4409448818897638,
                    "duration": 0.10869574999998122
                },
                {
                    "name": "F6",
                    "midi": 89,
                    "time": 377.5003397499971,
                    "velocity": 0.3937007874015748,
                    "duration": 0.10869574999998122
                },
                {
                    "name": "E6",
                    "midi": 88,
                    "time": 377.6090354999971,
                    "velocity": 0.4015748031496063,
                    "duration": 0.10869574999998122
                },
                {
                    "name": "D#6",
                    "midi": 87,
                    "time": 377.7177312499971,
                    "velocity": 0.4094488188976378,
                    "duration": 0.10869574999998122
                },
                {
                    "name": "C6",
                    "midi": 84,
                    "time": 377.82642699999707,
                    "velocity": 0.41732283464566927,
                    "duration": 0.10869574999998122
                },
                {
                    "name": "A5",
                    "midi": 81,
                    "time": 377.93512274999705,
                    "velocity": 0.4251968503937008,
                    "duration": 0.10869574999998122
                },
                {
                    "name": "F#5",
                    "midi": 78,
                    "time": 378.04381849999703,
                    "velocity": 0.4330708661417323,
                    "duration": 0.10869574999998122
                },
                {
                    "name": "F5",
                    "midi": 77,
                    "time": 378.152514249997,
                    "velocity": 0.44881889763779526,
                    "duration": 0.10869574999998122
                },
                {
                    "name": "E5",
                    "midi": 76,
                    "time": 378.261209999997,
                    "velocity": 0.4566929133858268,
                    "duration": 0.10869574999998122
                },
                {
                    "name": "D#5",
                    "midi": 75,
                    "time": 378.369905749997,
                    "velocity": 0.4645669291338583,
                    "duration": 0.10869574999998122
                },
                {
                    "name": "C5",
                    "midi": 72,
                    "time": 378.47860149999696,
                    "velocity": 0.47244094488188976,
                    "duration": 0.10869574999998122
                },
                {
                    "name": "A4",
                    "midi": 69,
                    "time": 378.58729724999694,
                    "velocity": 0.48031496062992124,
                    "duration": 0.10869574999998122
                },
                {
                    "name": "F#4",
                    "midi": 66,
                    "time": 378.6959929999969,
                    "velocity": 0.5039370078740157,
                    "duration": 0.10869574999998122
                },
                {
                    "name": "A#4",
                    "midi": 70,
                    "time": 378.6959929999969,
                    "velocity": 0.5039370078740157,
                    "duration": 0.21739149999996243
                },
                {
                    "name": "F4",
                    "midi": 65,
                    "time": 378.8046887499969,
                    "velocity": 0.3700787401574803,
                    "duration": 0.10869574999998122
                },
                {
                    "name": "A#4",
                    "midi": 70,
                    "time": 378.9133844999969,
                    "velocity": 0.3858267716535433,
                    "duration": 0.21739149999996243
                },
                {
                    "name": "G5",
                    "midi": 79,
                    "time": 378.9133844999969,
                    "velocity": 0.4566929133858268,
                    "duration": 0.10869574999998122
                },
                {
                    "name": "F5",
                    "midi": 77,
                    "time": 379.02208024999686,
                    "velocity": 0.3700787401574803,
                    "duration": 0.10869574999998122
                },
                {
                    "name": "F5",
                    "midi": 77,
                    "time": 379.13077599999684,
                    "velocity": 0.4094488188976378,
                    "duration": 0.10869574999998122
                },
                {
                    "name": "D5",
                    "midi": 74,
                    "time": 379.2394717499968,
                    "velocity": 0.3543307086614173,
                    "duration": 0.10869574999998122
                },
                {
                    "name": "A#5",
                    "midi": 82,
                    "time": 379.2394717499968,
                    "velocity": 0.4251968503937008,
                    "duration": 0.10869574999998122
                },
                {
                    "name": "F5",
                    "midi": 77,
                    "time": 379.3481674999968,
                    "velocity": 0.3858267716535433,
                    "duration": 0.10869574999998122
                },
                {
                    "name": "D6",
                    "midi": 86,
                    "time": 379.3481674999968,
                    "velocity": 0.4566929133858268,
                    "duration": 0.10869574999998122
                },
                {
                    "name": "C6",
                    "midi": 84,
                    "time": 379.4568632499968,
                    "velocity": 0.4094488188976378,
                    "duration": 0.10869574999998122
                },
                {
                    "name": "D#5",
                    "midi": 75,
                    "time": 379.4568632499968,
                    "velocity": 0.3464566929133858,
                    "duration": 0.10869574999998122
                },
                {
                    "name": "A#5",
                    "midi": 82,
                    "time": 379.56555899999677,
                    "velocity": 0.4566929133858268,
                    "duration": 0.8695659999998497
                },
                {
                    "name": "D5",
                    "midi": 74,
                    "time": 379.56555899999677,
                    "velocity": 0.4566929133858268,
                    "duration": 0.10869574999998122
                },
                {
                    "name": "F#5",
                    "midi": 78,
                    "time": 379.67425474999675,
                    "velocity": 0.3937007874015748,
                    "duration": 0.10869574999998122
                },
                {
                    "name": "G5",
                    "midi": 79,
                    "time": 379.78295049999673,
                    "velocity": 0.4330708661417323,
                    "duration": 0.10869574999998122
                },
                {
                    "name": "D5",
                    "midi": 74,
                    "time": 379.8916462499967,
                    "velocity": 0.3937007874015748,
                    "duration": 0.10869574999998122
                },
                {
                    "name": "C#5",
                    "midi": 73,
                    "time": 380.0003419999967,
                    "velocity": 0.4251968503937008,
                    "duration": 0.10869574999998122
                },
                {
                    "name": "F#5",
                    "midi": 78,
                    "time": 380.1090377499967,
                    "velocity": 0.4566929133858268,
                    "duration": 0.10869574999998122
                },
                {
                    "name": "G5",
                    "midi": 79,
                    "time": 380.21773349999665,
                    "velocity": 0.4566929133858268,
                    "duration": 0.10869574999998122
                },
                {
                    "name": "C#5",
                    "midi": 73,
                    "time": 380.32642924999664,
                    "velocity": 0.41732283464566927,
                    "duration": 0.10869574999998122
                },
                {
                    "name": "C5",
                    "midi": 72,
                    "time": 380.4351249999966,
                    "velocity": 0.4409448818897638,
                    "duration": 0.10869574999998122
                },
                {
                    "name": "E5",
                    "midi": 76,
                    "time": 380.5438207499966,
                    "velocity": 0.3937007874015748,
                    "duration": 0.10869574999998122
                },
                {
                    "name": "F5",
                    "midi": 77,
                    "time": 380.6525164999966,
                    "velocity": 0.47244094488188976,
                    "duration": 0.10869574999998122
                },
                {
                    "name": "F6",
                    "midi": 89,
                    "time": 380.76121224999656,
                    "velocity": 0.4251968503937008,
                    "duration": 0.10869574999998122
                },
                {
                    "name": "F6",
                    "midi": 89,
                    "time": 380.86990799999654,
                    "velocity": 0.48031496062992124,
                    "duration": 0.10869574999998122
                },
                {
                    "name": "F7",
                    "midi": 101,
                    "time": 380.9786037499965,
                    "velocity": 0.3779527559055118,
                    "duration": 0.10869574999998122
                },
                {
                    "name": "E7",
                    "midi": 100,
                    "time": 381.0872994999965,
                    "velocity": 0.3858267716535433,
                    "duration": 0.10869574999998122
                },
                {
                    "name": "D#7",
                    "midi": 99,
                    "time": 381.1959952499965,
                    "velocity": 0.3937007874015748,
                    "duration": 0.10869574999998122
                },
                {
                    "name": "C7",
                    "midi": 96,
                    "time": 381.30469099999647,
                    "velocity": 0.4015748031496063,
                    "duration": 0.10869574999998122
                },
                {
                    "name": "A6",
                    "midi": 93,
                    "time": 381.41338674999645,
                    "velocity": 0.4015748031496063,
                    "duration": 0.10869574999998122
                },
                {
                    "name": "F#6",
                    "midi": 90,
                    "time": 381.52208249999643,
                    "velocity": 0.4094488188976378,
                    "duration": 0.10869574999998122
                },
                {
                    "name": "F6",
                    "midi": 89,
                    "time": 381.6307782499964,
                    "velocity": 0.41732283464566927,
                    "duration": 0.10869574999998122
                },
                {
                    "name": "E6",
                    "midi": 88,
                    "time": 381.7394739999964,
                    "velocity": 0.4330708661417323,
                    "duration": 0.10869574999998122
                },
                {
                    "name": "D#6",
                    "midi": 87,
                    "time": 381.8481697499964,
                    "velocity": 0.47244094488188976,
                    "duration": 0.10869574999998122
                },
                {
                    "name": "C6",
                    "midi": 84,
                    "time": 381.95686549999635,
                    "velocity": 0.5039370078740157,
                    "duration": 0.10869574999998122
                },
                {
                    "name": "A5",
                    "midi": 81,
                    "time": 382.06556124999634,
                    "velocity": 0.5275590551181102,
                    "duration": 0.10869574999998122
                },
                {
                    "name": "A#5",
                    "midi": 82,
                    "time": 382.1742569999963,
                    "velocity": 0.47244094488188976,
                    "duration": 0.21739149999996243
                },
                {
                    "name": "F#5",
                    "midi": 78,
                    "time": 382.1742569999963,
                    "velocity": 0.5669291338582677,
                    "duration": 0.10869574999998122
                },
                {
                    "name": "F5",
                    "midi": 77,
                    "time": 382.2829527499963,
                    "velocity": 0.4015748031496063,
                    "duration": 0.10869574999998122
                },
                {
                    "name": "G6",
                    "midi": 91,
                    "time": 382.3916484999963,
                    "velocity": 0.49606299212598426,
                    "duration": 0.10869574999998122
                },
                {
                    "name": "A#5",
                    "midi": 82,
                    "time": 382.3916484999963,
                    "velocity": 0.41732283464566927,
                    "duration": 0.21739149999996243
                },
                {
                    "name": "F6",
                    "midi": 89,
                    "time": 382.50034424999626,
                    "velocity": 0.4015748031496063,
                    "duration": 0.10869574999998122
                },
                {
                    "name": "F6",
                    "midi": 89,
                    "time": 382.7177357499962,
                    "velocity": 0.3779527559055118,
                    "duration": 0.10869574999998122
                },
                {
                    "name": "E6",
                    "midi": 88,
                    "time": 382.8264314999962,
                    "velocity": 0.3858267716535433,
                    "duration": 0.10869574999998122
                },
                {
                    "name": "D#6",
                    "midi": 87,
                    "time": 382.9351272499962,
                    "velocity": 0.3937007874015748,
                    "duration": 0.10869574999998122
                },
                {
                    "name": "C6",
                    "midi": 84,
                    "time": 383.04382299999617,
                    "velocity": 0.4015748031496063,
                    "duration": 0.10869574999998122
                },
                {
                    "name": "A5",
                    "midi": 81,
                    "time": 383.15251874999615,
                    "velocity": 0.4015748031496063,
                    "duration": 0.10869574999998122
                },
                {
                    "name": "F#5",
                    "midi": 78,
                    "time": 383.26121449999613,
                    "velocity": 0.4094488188976378,
                    "duration": 0.10869574999998122
                },
                {
                    "name": "F5",
                    "midi": 77,
                    "time": 383.3699102499961,
                    "velocity": 0.41732283464566927,
                    "duration": 0.10869574999998122
                },
                {
                    "name": "E5",
                    "midi": 76,
                    "time": 383.4786059999961,
                    "velocity": 0.44881889763779526,
                    "duration": 0.10869574999998122
                },
                {
                    "name": "D#5",
                    "midi": 75,
                    "time": 383.5873017499961,
                    "velocity": 0.4645669291338583,
                    "duration": 0.10869574999998122
                },
                {
                    "name": "C5",
                    "midi": 72,
                    "time": 383.69599749999605,
                    "velocity": 0.48031496062992124,
                    "duration": 0.10869574999998122
                },
                {
                    "name": "A4",
                    "midi": 69,
                    "time": 383.80469324999603,
                    "velocity": 0.49606299212598426,
                    "duration": 0.10869574999998122
                },
                {
                    "name": "A#4",
                    "midi": 70,
                    "time": 383.913388999996,
                    "velocity": 0.4251968503937008,
                    "duration": 0.21739149999996243
                },
                {
                    "name": "F#4",
                    "midi": 66,
                    "time": 383.913388999996,
                    "velocity": 0.5275590551181102,
                    "duration": 0.10869574999998122
                },
                {
                    "name": "F4",
                    "midi": 65,
                    "time": 384.022084749996,
                    "velocity": 0.4015748031496063,
                    "duration": 0.10869574999998122
                },
                {
                    "name": "G5",
                    "midi": 79,
                    "time": 384.130780499996,
                    "velocity": 0.49606299212598426,
                    "duration": 0.10869574999998122
                },
                {
                    "name": "A#4",
                    "midi": 70,
                    "time": 384.130780499996,
                    "velocity": 0.41732283464566927,
                    "duration": 0.21739149999996243
                },
                {
                    "name": "F5",
                    "midi": 77,
                    "time": 384.23947624999596,
                    "velocity": 0.4015748031496063,
                    "duration": 0.10869574999998122
                },
                {
                    "name": "F5",
                    "midi": 77,
                    "time": 384.34817199999594,
                    "velocity": 0.4409448818897638,
                    "duration": 0.10869574999998122
                },
                {
                    "name": "A#5",
                    "midi": 82,
                    "time": 384.4568677499959,
                    "velocity": 0.4251968503937008,
                    "duration": 0.10869574999998122
                },
                {
                    "name": "D5",
                    "midi": 74,
                    "time": 384.4568677499959,
                    "velocity": 0.3543307086614173,
                    "duration": 0.10869574999998122
                },
                {
                    "name": "F5",
                    "midi": 77,
                    "time": 384.5655634999959,
                    "velocity": 0.3858267716535433,
                    "duration": 0.10869574999998122
                },
                {
                    "name": "D6",
                    "midi": 86,
                    "time": 384.5655634999959,
                    "velocity": 0.4566929133858268,
                    "duration": 0.10869574999998122
                },
                {
                    "name": "C6",
                    "midi": 84,
                    "time": 384.6742592499959,
                    "velocity": 0.4094488188976378,
                    "duration": 0.10869574999998122
                },
                {
                    "name": "D#5",
                    "midi": 75,
                    "time": 384.6742592499959,
                    "velocity": 0.3464566929133858,
                    "duration": 0.10869574999998122
                },
                {
                    "name": "D5",
                    "midi": 74,
                    "time": 384.78295499999587,
                    "velocity": 0.4566929133858268,
                    "duration": 0.10869574999998122
                },
                {
                    "name": "A#5",
                    "midi": 82,
                    "time": 384.78295499999587,
                    "velocity": 0.4566929133858268,
                    "duration": 0.8695659999998497
                },
                {
                    "name": "F#5",
                    "midi": 78,
                    "time": 384.89165074999585,
                    "velocity": 0.3937007874015748,
                    "duration": 0.10869574999998122
                },
                {
                    "name": "G5",
                    "midi": 79,
                    "time": 385.0003464999958,
                    "velocity": 0.4330708661417323,
                    "duration": 0.10869574999998122
                },
                {
                    "name": "D5",
                    "midi": 74,
                    "time": 385.1090422499958,
                    "velocity": 0.3937007874015748,
                    "duration": 0.10869574999998122
                },
                {
                    "name": "C#5",
                    "midi": 73,
                    "time": 385.2177379999958,
                    "velocity": 0.4251968503937008,
                    "duration": 0.10869574999998122
                },
                {
                    "name": "F#5",
                    "midi": 78,
                    "time": 385.3264337499958,
                    "velocity": 0.4566929133858268,
                    "duration": 0.10869574999998122
                },
                {
                    "name": "G5",
                    "midi": 79,
                    "time": 385.43512949999575,
                    "velocity": 0.4566929133858268,
                    "duration": 0.10869574999998122
                },
                {
                    "name": "C#5",
                    "midi": 73,
                    "time": 385.54382524999573,
                    "velocity": 0.41732283464566927,
                    "duration": 0.10869574999998122
                },
                {
                    "name": "C5",
                    "midi": 72,
                    "time": 385.6525209999957,
                    "velocity": 0.4409448818897638,
                    "duration": 0.10869574999998122
                },
                {
                    "name": "A5",
                    "midi": 81,
                    "time": 385.6525209999957,
                    "velocity": 0.4251968503937008,
                    "duration": 0.21739149999996243
                },
                {
                    "name": "F5",
                    "midi": 77,
                    "time": 385.7612167499957,
                    "velocity": 0.3937007874015748,
                    "duration": 0.10869574999998122
                },
                {
                    "name": "A#5",
                    "midi": 82,
                    "time": 385.8699124999957,
                    "velocity": 0.4251968503937008,
                    "duration": 0.21739149999996243
                },
                {
                    "name": "A#4",
                    "midi": 70,
                    "time": 385.8699124999957,
                    "velocity": 0.47244094488188976,
                    "duration": 0.10869574999998122
                },
                {
                    "name": "D#5",
                    "midi": 75,
                    "time": 385.97860824999566,
                    "velocity": 0.3937007874015748,
                    "duration": 0.10869574999998122
                },
                {
                    "name": "A#5",
                    "midi": 82,
                    "time": 386.08730399999564,
                    "velocity": 0.4251968503937008,
                    "duration": 0.10869574999998122
                },
                {
                    "name": "D#6",
                    "midi": 87,
                    "time": 386.1959997499956,
                    "velocity": 0.44881889763779526,
                    "duration": 0.10869574999998122
                },
                {
                    "name": "G5",
                    "midi": 79,
                    "time": 386.1959997499956,
                    "velocity": 0.3700787401574803,
                    "duration": 0.10869574999998122
                },
                {
                    "name": "A#5",
                    "midi": 82,
                    "time": 386.3046954999956,
                    "velocity": 0.4094488188976378,
                    "duration": 0.10869574999998122
                },
                {
                    "name": "G6",
                    "midi": 91,
                    "time": 386.3046954999956,
                    "velocity": 0.4881889763779528,
                    "duration": 0.10869574999998122
                },
                {
                    "name": "F6",
                    "midi": 89,
                    "time": 386.4133912499956,
                    "velocity": 0.4409448818897638,
                    "duration": 0.10869574999998122
                },
                {
                    "name": "G#5",
                    "midi": 80,
                    "time": 386.4133912499956,
                    "velocity": 0.3700787401574803,
                    "duration": 0.10869574999998122
                },
                {
                    "name": "D#6",
                    "midi": 87,
                    "time": 386.52208699999557,
                    "velocity": 0.49606299212598426,
                    "duration": 0.8695659999998497
                },
                {
                    "name": "G5",
                    "midi": 79,
                    "time": 386.52208699999557,
                    "velocity": 0.49606299212598426,
                    "duration": 0.10869574999998122
                },
                {
                    "name": "B5",
                    "midi": 83,
                    "time": 386.63078274999555,
                    "velocity": 0.4330708661417323,
                    "duration": 0.10869574999998122
                },
                {
                    "name": "C6",
                    "midi": 84,
                    "time": 386.7394784999955,
                    "velocity": 0.48031496062992124,
                    "duration": 0.10869574999998122
                },
                {
                    "name": "G5",
                    "midi": 79,
                    "time": 386.8481742499955,
                    "velocity": 0.4409448818897638,
                    "duration": 0.10869574999998122
                },
                {
                    "name": "F#5",
                    "midi": 78,
                    "time": 386.9568699999955,
                    "velocity": 0.48031496062992124,
                    "duration": 0.10869574999998122
                },
                {
                    "name": "B5",
                    "midi": 83,
                    "time": 387.06556574999547,
                    "velocity": 0.5039370078740157,
                    "duration": 0.10869574999998122
                },
                {
                    "name": "C6",
                    "midi": 84,
                    "time": 387.17426149999545,
                    "velocity": 0.5196850393700787,
                    "duration": 0.10869574999998122
                },
                {
                    "name": "F#5",
                    "midi": 78,
                    "time": 387.28295724999543,
                    "velocity": 0.4881889763779528,
                    "duration": 0.10869574999998122
                },
                {
                    "name": "F5",
                    "midi": 77,
                    "time": 387.3916529999954,
                    "velocity": 0.5196850393700787,
                    "duration": 0.10869574999998122
                },
                {
                    "name": "D6",
                    "midi": 86,
                    "time": 387.3916529999954,
                    "velocity": 0.49606299212598426,
                    "duration": 0.21739149999996243
                },
                {
                    "name": "A#5",
                    "midi": 82,
                    "time": 387.5003487499954,
                    "velocity": 0.4645669291338583,
                    "duration": 0.10869574999998122
                },
                {
                    "name": "D#5",
                    "midi": 75,
                    "time": 387.6090444999954,
                    "velocity": 0.5196850393700787,
                    "duration": 0.10869574999998122
                },
                {
                    "name": "D#6",
                    "midi": 87,
                    "time": 387.6090444999954,
                    "velocity": 0.5039370078740157,
                    "duration": 0.21739149999996243
                },
                {
                    "name": "G#5",
                    "midi": 80,
                    "time": 387.71774024999536,
                    "velocity": 0.47244094488188976,
                    "duration": 0.10869574999998122
                },
                {
                    "name": "D#6",
                    "midi": 87,
                    "time": 387.82643599999534,
                    "velocity": 0.49606299212598426,
                    "duration": 0.21739149999996243
                },
                {
                    "name": "C6",
                    "midi": 84,
                    "time": 387.9351317499953,
                    "velocity": 0.4330708661417323,
                    "duration": 0.10869574999998122
                },
                {
                    "name": "D#6",
                    "midi": 87,
                    "time": 388.0438274999953,
                    "velocity": 0.47244094488188976,
                    "duration": 0.10869574999998122
                },
                {
                    "name": "G#6",
                    "midi": 92,
                    "time": 388.0438274999953,
                    "velocity": 0.5590551181102362,
                    "duration": 0.21739149999996243
                },
                {
                    "name": "C#6",
                    "midi": 85,
                    "time": 388.1525232499953,
                    "velocity": 0.4330708661417323,
                    "duration": 0.10869574999998122
                },
                {
                    "name": "C#6",
                    "midi": 85,
                    "time": 388.26121899999526,
                    "velocity": 0.5354330708661418,
                    "duration": 0.10869574999998122
                },
                {
                    "name": "G#6",
                    "midi": 92,
                    "time": 388.26121899999526,
                    "velocity": 0.5748031496062992,
                    "duration": 0.8695659999998497
                },
                {
                    "name": "B5",
                    "midi": 83,
                    "time": 388.36991474999525,
                    "velocity": 0.49606299212598426,
                    "duration": 0.10869574999998122
                },
                {
                    "name": "A#5",
                    "midi": 82,
                    "time": 388.4786104999952,
                    "velocity": 0.5511811023622047,
                    "duration": 0.10869574999998122
                },
                {
                    "name": "B5",
                    "midi": 83,
                    "time": 388.5873062499952,
                    "velocity": 0.5118110236220472,
                    "duration": 0.10869574999998122
                },
                {
                    "name": "B5",
                    "midi": 83,
                    "time": 388.6960019999952,
                    "velocity": 0.5511811023622047,
                    "duration": 0.10869574999998122
                },
                {
                    "name": "E6",
                    "midi": 88,
                    "time": 388.80469774999517,
                    "velocity": 0.5748031496062992,
                    "duration": 0.10869574999998122
                },
                {
                    "name": "F6",
                    "midi": 89,
                    "time": 388.91339349999515,
                    "velocity": 0.6062992125984252,
                    "duration": 0.10869574999998122
                },
                {
                    "name": "B5",
                    "midi": 83,
                    "time": 389.02208924999513,
                    "velocity": 0.5590551181102362,
                    "duration": 0.10869574999998122
                },
                {
                    "name": "G6",
                    "midi": 91,
                    "time": 389.1307849999951,
                    "velocity": 0.6141732283464567,
                    "duration": 0.6521744999999441
                },
                {
                    "name": "A#5",
                    "midi": 82,
                    "time": 389.1307849999951,
                    "velocity": 0.5905511811023622,
                    "duration": 0.10869574999998122
                },
                {
                    "name": "D6",
                    "midi": 86,
                    "time": 389.2394807499951,
                    "velocity": 0.5354330708661418,
                    "duration": 0.10869574999998122
                },
                {
                    "name": "D#6",
                    "midi": 87,
                    "time": 389.3481764999951,
                    "velocity": 0.6456692913385826,
                    "duration": 0.10869574999998122
                },
                {
                    "name": "A#5",
                    "midi": 82,
                    "time": 389.45687224999506,
                    "velocity": 0.5433070866141733,
                    "duration": 0.10869574999998122
                },
                {
                    "name": "G5",
                    "midi": 79,
                    "time": 389.56556799999504,
                    "velocity": 0.6535433070866141,
                    "duration": 0.21739150000001928
                },
                {
                    "name": "G6",
                    "midi": 91,
                    "time": 389.78295949999506,
                    "velocity": 0.7322834645669292,
                    "duration": 0.21739150000001928
                },
                {
                    "name": "D#6",
                    "midi": 87,
                    "time": 389.78295949999506,
                    "velocity": 0.6220472440944882,
                    "duration": 0.21739150000001928
                },
                {
                    "name": "G5",
                    "midi": 79,
                    "time": 389.78295949999506,
                    "velocity": 0.6220472440944882,
                    "duration": 0.21739150000001928
                },
                {
                    "name": "A#5",
                    "midi": 82,
                    "time": 389.78295949999506,
                    "velocity": 0.6220472440944882,
                    "duration": 0.21739150000001928
                },
                {
                    "name": "D6",
                    "midi": 86,
                    "time": 390.0003509999951,
                    "velocity": 0.5826771653543307,
                    "duration": 0.21739150000001928
                },
                {
                    "name": "F6",
                    "midi": 89,
                    "time": 390.0003509999951,
                    "velocity": 0.6929133858267716,
                    "duration": 0.21739150000001928
                },
                {
                    "name": "G6",
                    "midi": 91,
                    "time": 390.2177424999951,
                    "velocity": 0.6771653543307087,
                    "duration": 0.10869574999998122
                },
                {
                    "name": "D#6",
                    "midi": 87,
                    "time": 390.2177424999951,
                    "velocity": 0.5826771653543307,
                    "duration": 0.10869574999998122
                },
                {
                    "name": "F6",
                    "midi": 89,
                    "time": 390.3264382499951,
                    "velocity": 0.6141732283464567,
                    "duration": 0.10869574999998122
                },
                {
                    "name": "G#6",
                    "midi": 92,
                    "time": 390.3264382499951,
                    "velocity": 0.7244094488188977,
                    "duration": 0.10869574999998122
                },
                {
                    "name": "A#6",
                    "midi": 94,
                    "time": 390.43513399999506,
                    "velocity": 0.7559055118110236,
                    "duration": 0.10869574999998122
                },
                {
                    "name": "G6",
                    "midi": 91,
                    "time": 390.43513399999506,
                    "velocity": 0.6377952755905512,
                    "duration": 0.10869574999998122
                },
                {
                    "name": "G6",
                    "midi": 91,
                    "time": 390.652525499995,
                    "velocity": 0.7165354330708661,
                    "duration": 0.10869574999998122
                },
                {
                    "name": "D#6",
                    "midi": 87,
                    "time": 390.652525499995,
                    "velocity": 0.6062992125984252,
                    "duration": 0.10869574999998122
                },
                {
                    "name": "G6",
                    "midi": 91,
                    "time": 391.522091499995,
                    "velocity": 0.7322834645669292,
                    "duration": 0.21739150000001928
                },
                {
                    "name": "G5",
                    "midi": 79,
                    "time": 391.522091499995,
                    "velocity": 0.6220472440944882,
                    "duration": 0.21739150000001928
                },
                {
                    "name": "A#5",
                    "midi": 82,
                    "time": 391.522091499995,
                    "velocity": 0.6220472440944882,
                    "duration": 0.21739150000001928
                },
                {
                    "name": "D#6",
                    "midi": 87,
                    "time": 391.522091499995,
                    "velocity": 0.6220472440944882,
                    "duration": 0.21739150000001928
                },
                {
                    "name": "F6",
                    "midi": 89,
                    "time": 391.739482999995,
                    "velocity": 0.6929133858267716,
                    "duration": 0.21739150000001928
                },
                {
                    "name": "D6",
                    "midi": 86,
                    "time": 391.739482999995,
                    "velocity": 0.5826771653543307,
                    "duration": 0.21739150000001928
                },
                {
                    "name": "D#6",
                    "midi": 87,
                    "time": 391.956874499995,
                    "velocity": 0.5826771653543307,
                    "duration": 0.10869574999998122
                },
                {
                    "name": "G6",
                    "midi": 91,
                    "time": 391.956874499995,
                    "velocity": 0.6771653543307087,
                    "duration": 0.10869574999998122
                },
                {
                    "name": "F6",
                    "midi": 89,
                    "time": 392.065570249995,
                    "velocity": 0.6141732283464567,
                    "duration": 0.10869574999998122
                },
                {
                    "name": "G#6",
                    "midi": 92,
                    "time": 392.065570249995,
                    "velocity": 0.7244094488188977,
                    "duration": 0.10869574999998122
                },
                {
                    "name": "G6",
                    "midi": 91,
                    "time": 392.174265999995,
                    "velocity": 0.6377952755905512,
                    "duration": 0.10869574999998122
                },
                {
                    "name": "A#6",
                    "midi": 94,
                    "time": 392.174265999995,
                    "velocity": 0.7559055118110236,
                    "duration": 0.10869574999998122
                },
                {
                    "name": "G5",
                    "midi": 79,
                    "time": 392.39165749999495,
                    "velocity": 0.6771653543307087,
                    "duration": 0.21739150000001928
                },
                {
                    "name": "A#4",
                    "midi": 70,
                    "time": 392.39165749999495,
                    "velocity": 0.6771653543307087,
                    "duration": 0.21739150000001928
                },
                {
                    "name": "C5",
                    "midi": 72,
                    "time": 392.39165749999495,
                    "velocity": 0.6771653543307087,
                    "duration": 0.21739150000001928
                },
                {
                    "name": "A#5",
                    "midi": 82,
                    "time": 392.39165749999495,
                    "velocity": 0.8110236220472441,
                    "duration": 0.21739150000001928
                },
                {
                    "name": "E5",
                    "midi": 76,
                    "time": 392.826440499995,
                    "velocity": 0.6771653543307087,
                    "duration": 0.21739150000001928
                },
                {
                    "name": "A#4",
                    "midi": 70,
                    "time": 392.826440499995,
                    "velocity": 0.6771653543307087,
                    "duration": 0.21739150000001928
                },
                {
                    "name": "G5",
                    "midi": 79,
                    "time": 392.826440499995,
                    "velocity": 0.6771653543307087,
                    "duration": 0.21739150000001928
                },
                {
                    "name": "A#5",
                    "midi": 82,
                    "time": 392.826440499995,
                    "velocity": 0.8110236220472441,
                    "duration": 0.21739150000001928
                },
                {
                    "name": "A#5",
                    "midi": 82,
                    "time": 393.261223499995,
                    "velocity": 0.8110236220472441,
                    "duration": 0.21739150000001928
                },
                {
                    "name": "D5",
                    "midi": 74,
                    "time": 393.261223499995,
                    "velocity": 0.6771653543307087,
                    "duration": 0.21739150000001928
                },
                {
                    "name": "F5",
                    "midi": 77,
                    "time": 393.261223499995,
                    "velocity": 0.6771653543307087,
                    "duration": 0.21739150000001928
                },
                {
                    "name": "A#4",
                    "midi": 70,
                    "time": 393.261223499995,
                    "velocity": 0.6771653543307087,
                    "duration": 0.21739150000001928
                },
                {
                    "name": "C5",
                    "midi": 72,
                    "time": 393.69600649999506,
                    "velocity": 0.6220472440944882,
                    "duration": 0.21739150000001928
                },
                {
                    "name": "A#5",
                    "midi": 82,
                    "time": 393.69600649999506,
                    "velocity": 0.7401574803149606,
                    "duration": 0.21739150000001928
                },
                {
                    "name": "A#4",
                    "midi": 70,
                    "time": 393.69600649999506,
                    "velocity": 0.6220472440944882,
                    "duration": 0.21739150000001928
                },
                {
                    "name": "E5",
                    "midi": 76,
                    "time": 393.69600649999506,
                    "velocity": 0.6220472440944882,
                    "duration": 0.21739150000001928
                },
                {
                    "name": "D5",
                    "midi": 74,
                    "time": 393.9133979999951,
                    "velocity": 0.5118110236220472,
                    "duration": 0.4347829999999817
                },
                {
                    "name": "A#5",
                    "midi": 82,
                    "time": 393.9133979999951,
                    "velocity": 0.6062992125984252,
                    "duration": 0.4347829999999817
                },
                {
                    "name": "A#4",
                    "midi": 70,
                    "time": 393.9133979999951,
                    "velocity": 0.5118110236220472,
                    "duration": 0.4347829999999817
                },
                {
                    "name": "F5",
                    "midi": 77,
                    "time": 393.9133979999951,
                    "velocity": 0.5118110236220472,
                    "duration": 0.4347829999999817
                },
                {
                    "name": "F5",
                    "midi": 77,
                    "time": 394.34818099999507,
                    "velocity": 0.5039370078740157,
                    "duration": 0.652174500000001
                },
                {
                    "name": "D5",
                    "midi": 74,
                    "time": 394.34818099999507,
                    "velocity": 0.4251968503937008,
                    "duration": 0.652174500000001
                },
                {
                    "name": "D5",
                    "midi": 74,
                    "time": 395.00035549999507,
                    "velocity": 0.49606299212598426,
                    "duration": 0.1068841541666643
                },
                {
                    "name": "F5",
                    "midi": 77,
                    "time": 395.2177469999951,
                    "velocity": 0.4409448818897638,
                    "duration": 0.10869574999998122
                },
                {
                    "name": "A5",
                    "midi": 81,
                    "time": 395.32644274999507,
                    "velocity": 0.44881889763779526,
                    "duration": 0.10869574999998122
                },
                {
                    "name": "A#5",
                    "midi": 82,
                    "time": 395.43513849999505,
                    "velocity": 0.4566929133858268,
                    "duration": 0.10869574999998122
                },
                {
                    "name": "D6",
                    "midi": 86,
                    "time": 395.54383424999503,
                    "velocity": 0.4645669291338583,
                    "duration": 0.10869574999998122
                },
                {
                    "name": "E6",
                    "midi": 88,
                    "time": 395.652529999995,
                    "velocity": 0.47244094488188976,
                    "duration": 0.10869574999998122
                },
                {
                    "name": "F6",
                    "midi": 89,
                    "time": 395.761225749995,
                    "velocity": 0.48031496062992124,
                    "duration": 0.10869574999998122
                },
                {
                    "name": "G6",
                    "midi": 91,
                    "time": 395.869921499995,
                    "velocity": 0.4881889763779528,
                    "duration": 0.10869574999998122
                },
                {
                    "name": "F6",
                    "midi": 89,
                    "time": 395.97861724999495,
                    "velocity": 0.4881889763779528,
                    "duration": 0.10869574999998122
                },
                {
                    "name": "A6",
                    "midi": 93,
                    "time": 396.08731299999494,
                    "velocity": 0.49606299212598426,
                    "duration": 0.10869574999998122
                },
                {
                    "name": "A#6",
                    "midi": 94,
                    "time": 396.1960087499949,
                    "velocity": 0.5039370078740157,
                    "duration": 0.10869574999998122
                },
                {
                    "name": "C7",
                    "midi": 96,
                    "time": 396.3047044999949,
                    "velocity": 0.5118110236220472,
                    "duration": 0.10869574999998122
                },
                {
                    "name": "A#6",
                    "midi": 94,
                    "time": 396.4134002499949,
                    "velocity": 0.5196850393700787,
                    "duration": 0.10869574999998122
                },
                {
                    "name": "C#7",
                    "midi": 97,
                    "time": 396.52209599999486,
                    "velocity": 0.5275590551181102,
                    "duration": 0.10869574999998122
                },
                {
                    "name": "D7",
                    "midi": 98,
                    "time": 396.63079174999484,
                    "velocity": 0.5354330708661418,
                    "duration": 0.10869574999998122
                },
                {
                    "name": "D#7",
                    "midi": 99,
                    "time": 396.7394874999948,
                    "velocity": 0.5433070866141733,
                    "duration": 0.10869574999998122
                },
                {
                    "name": "D7",
                    "midi": 98,
                    "time": 396.8481832499948,
                    "velocity": 0.5511811023622047,
                    "duration": 0.10869574999998122
                },
                {
                    "name": "F7",
                    "midi": 101,
                    "time": 396.9568789999948,
                    "velocity": 0.5590551181102362,
                    "duration": 0.21739150000001928
                },
                {
                    "name": "D#5",
                    "midi": 75,
                    "time": 397.1742704999948,
                    "velocity": 0.5511811023622047,
                    "duration": 0.21739150000001928
                },
                {
                    "name": "C5",
                    "midi": 72,
                    "time": 397.1742704999948,
                    "velocity": 0.4645669291338583,
                    "duration": 0.21739150000001928
                },
                {
                    "name": "D5",
                    "midi": 74,
                    "time": 397.3916619999948,
                    "velocity": 0.4566929133858268,
                    "duration": 0.8695659999999634
                },
                {
                    "name": "D6",
                    "midi": 86,
                    "time": 397.8264449999948,
                    "velocity": 0.4645669291338583,
                    "duration": 0.4347829999999817
                },
                {
                    "name": "D#6",
                    "midi": 87,
                    "time": 398.2612279999948,
                    "velocity": 0.44881889763779526,
                    "duration": 0.4347829999999817
                },
                {
                    "name": "D#5",
                    "midi": 75,
                    "time": 398.2612279999948,
                    "velocity": 0.3779527559055118,
                    "duration": 0.4347829999999817
                },
                {
                    "name": "F#6",
                    "midi": 90,
                    "time": 398.69601099999477,
                    "velocity": 0.48031496062992124,
                    "duration": 0.4347829999999817
                },
                {
                    "name": "F#5",
                    "midi": 78,
                    "time": 398.69601099999477,
                    "velocity": 0.4015748031496063,
                    "duration": 0.4347829999999817
                },
                {
                    "name": "A#5",
                    "midi": 82,
                    "time": 399.13079399999475,
                    "velocity": 0.4881889763779528,
                    "duration": 0.8695659999999634
                },
                {
                    "name": "F5",
                    "midi": 77,
                    "time": 399.56557699999473,
                    "velocity": 0.44881889763779526,
                    "duration": 0.4347829999999817
                },
                {
                    "name": "D5",
                    "midi": 74,
                    "time": 399.56557699999473,
                    "velocity": 0.4015748031496063,
                    "duration": 0.4347829999999817
                },
                {
                    "name": "F#5",
                    "midi": 78,
                    "time": 400.0003599999947,
                    "velocity": 0.4645669291338583,
                    "duration": 0.43478300000003856
                },
                {
                    "name": "F#6",
                    "midi": 90,
                    "time": 400.21775149999473,
                    "velocity": 0.47244094488188976,
                    "duration": 0.21739150000001928
                },
                {
                    "name": "D#6",
                    "midi": 87,
                    "time": 400.43514299999475,
                    "velocity": 0.49606299212598426,
                    "duration": 0.4347829999999817
                },
                {
                    "name": "D#5",
                    "midi": 75,
                    "time": 400.43514299999475,
                    "velocity": 0.41732283464566927,
                    "duration": 0.4347829999999817
                },
                {
                    "name": "C#5",
                    "midi": 73,
                    "time": 400.86992599999473,
                    "velocity": 0.4409448818897638,
                    "duration": 0.4347829999999817
                },
                {
                    "name": "C#6",
                    "midi": 85,
                    "time": 400.86992599999473,
                    "velocity": 0.5196850393700787,
                    "duration": 0.4347829999999817
                },
                {
                    "name": "D6",
                    "midi": 86,
                    "time": 401.3047089999947,
                    "velocity": 0.4645669291338583,
                    "duration": 0.4347829999999817
                },
                {
                    "name": "D5",
                    "midi": 74,
                    "time": 401.3047089999947,
                    "velocity": 0.4409448818897638,
                    "duration": 0.4347829999999817
                },
                {
                    "name": "F5",
                    "midi": 77,
                    "time": 401.7394919999947,
                    "velocity": 0.4251968503937008,
                    "duration": 0.4347829999999817
                },
                {
                    "name": "F6",
                    "midi": 89,
                    "time": 401.7394919999947,
                    "velocity": 0.5039370078740157,
                    "duration": 0.4347829999999817
                },
                {
                    "name": "D#6",
                    "midi": 87,
                    "time": 402.1742749999947,
                    "velocity": 0.49606299212598426,
                    "duration": 0.3260872500000005
                },
                {
                    "name": "D#5",
                    "midi": 75,
                    "time": 402.1742749999947,
                    "velocity": 0.41732283464566927,
                    "duration": 0.3260872500000005
                },
                {
                    "name": "C5",
                    "midi": 72,
                    "time": 402.5003622499947,
                    "velocity": 0.3779527559055118,
                    "duration": 0.10869574999998122
                },
                {
                    "name": "C6",
                    "midi": 84,
                    "time": 402.5003622499947,
                    "velocity": 0.44881889763779526,
                    "duration": 0.10869574999998122
                },
                {
                    "name": "D6",
                    "midi": 86,
                    "time": 402.60905799999466,
                    "velocity": 0.4566929133858268,
                    "duration": 0.8695660000001908
                },
                {
                    "name": "A#5",
                    "midi": 82,
                    "time": 402.60905799999466,
                    "velocity": 0.3858267716535433,
                    "duration": 0.07336963124998874
                },
                {
                    "name": "F5",
                    "midi": 77,
                    "time": 402.60905799999466,
                    "velocity": 0.3858267716535433,
                    "duration": 0.8695660000001908
                },
                {
                    "name": "C6",
                    "midi": 84,
                    "time": 402.68242763124465,
                    "velocity": 0.33070866141732286,
                    "duration": 0.07246383333335871
                },
                {
                    "name": "A#5",
                    "midi": 82,
                    "time": 402.754891464578,
                    "velocity": 0.3858267716535433,
                    "duration": 0.07336963125004559
                },
                {
                    "name": "C6",
                    "midi": 84,
                    "time": 402.82735529791137,
                    "velocity": 0.3464566929133858,
                    "duration": 0.07336963125004559
                },
                {
                    "name": "A#5",
                    "midi": 82,
                    "time": 402.9007249291614,
                    "velocity": 0.3858267716535433,
                    "duration": 0.07246383333335871
                },
                {
                    "name": "C6",
                    "midi": 84,
                    "time": 402.9731887624948,
                    "velocity": 0.3464566929133858,
                    "duration": 0.07336963124998874
                },
                {
                    "name": "A#5",
                    "midi": 82,
                    "time": 403.04384099999476,
                    "velocity": 0.3937007874015748,
                    "duration": 0.07336963124998874
                },
                {
                    "name": "C6",
                    "midi": 84,
                    "time": 403.11721063124475,
                    "velocity": 0.3464566929133858,
                    "duration": 0.07246383333335871
                },
                {
                    "name": "A#5",
                    "midi": 82,
                    "time": 403.1896744645781,
                    "velocity": 0.3937007874015748,
                    "duration": 0.07336963125004559
                },
                {
                    "name": "C6",
                    "midi": 84,
                    "time": 403.26213829791146,
                    "velocity": 0.36220472440944884,
                    "duration": 0.07336963125004559
                },
                {
                    "name": "A#5",
                    "midi": 82,
                    "time": 403.3355079291615,
                    "velocity": 0.4015748031496063,
                    "duration": 0.07246383333335871
                },
                {
                    "name": "C6",
                    "midi": 84,
                    "time": 403.40797176249487,
                    "velocity": 0.3543307086614173,
                    "duration": 0.07336963124998874
                },
                {
                    "name": "D#5",
                    "midi": 75,
                    "time": 403.47862399999485,
                    "velocity": 0.4409448818897638,
                    "duration": 0.4347830000000954
                },
                {
                    "name": "A#5",
                    "midi": 82,
                    "time": 403.47862399999485,
                    "velocity": 0.4015748031496063,
                    "duration": 0.07336963124998874
                },
                {
                    "name": "D#6",
                    "midi": 87,
                    "time": 403.47862399999485,
                    "velocity": 0.5275590551181102,
                    "duration": 0.4347830000000954
                },
                {
                    "name": "C6",
                    "midi": 84,
                    "time": 403.55199363124484,
                    "velocity": 0.3464566929133858,
                    "duration": 0.07246383333335871
                },
                {
                    "name": "A#5",
                    "midi": 82,
                    "time": 403.6244574645782,
                    "velocity": 0.4094488188976378,
                    "duration": 0.07336963125004559
                },
                {
                    "name": "C6",
                    "midi": 84,
                    "time": 403.69692129791156,
                    "velocity": 0.3700787401574803,
                    "duration": 0.07336963125004559
                },
                {
                    "name": "A#5",
                    "midi": 82,
                    "time": 403.7702909291616,
                    "velocity": 0.4094488188976378,
                    "duration": 0.07246383333335871
                },
                {
                    "name": "C6",
                    "midi": 84,
                    "time": 403.84275476249496,
                    "velocity": 0.3700787401574803,
                    "duration": 0.07336963124998874
                },
                {
                    "name": "G5",
                    "midi": 79,
                    "time": 403.91340699999495,
                    "velocity": 0.4881889763779528,
                    "duration": 0.4347830000000954
                },
                {
                    "name": "A#5",
                    "midi": 82,
                    "time": 403.91340699999495,
                    "velocity": 0.41732283464566927,
                    "duration": 0.07336963124998874
                },
                {
                    "name": "G6",
                    "midi": 91,
                    "time": 403.91340699999495,
                    "velocity": 0.5748031496062992,
                    "duration": 0.4347830000000954
                },
                {
                    "name": "C6",
                    "midi": 84,
                    "time": 403.98677663124494,
                    "velocity": 0.3700787401574803,
                    "duration": 0.07246383333335871
                },
                {
                    "name": "A#5",
                    "midi": 82,
                    "time": 404.0592404645783,
                    "velocity": 0.4251968503937008,
                    "duration": 0.07336963125004559
                },
                {
                    "name": "C6",
                    "midi": 84,
                    "time": 404.13170429791165,
                    "velocity": 0.3779527559055118,
                    "duration": 0.07336963125004559
                },
                {
                    "name": "A#5",
                    "midi": 82,
                    "time": 404.2050739291617,
                    "velocity": 0.4251968503937008,
                    "duration": 0.07246383333335871
                },
                {
                    "name": "C6",
                    "midi": 84,
                    "time": 404.27753776249506,
                    "velocity": 0.3779527559055118,
                    "duration": 0.07336963124998874
                },
                {
                    "name": "A#5",
                    "midi": 82,
                    "time": 404.34818999999504,
                    "velocity": 0.4330708661417323,
                    "duration": 0.07336963124998874
                },
                {
                    "name": "A#6",
                    "midi": 94,
                    "time": 404.34818999999504,
                    "velocity": 0.6692913385826772,
                    "duration": 0.8695660000001908
                },
                {
                    "name": "C6",
                    "midi": 84,
                    "time": 404.42155963124503,
                    "velocity": 0.3700787401574803,
                    "duration": 0.07246383333335871
                },
                {
                    "name": "A#5",
                    "midi": 82,
                    "time": 404.4940234645784,
                    "velocity": 0.4330708661417323,
                    "duration": 0.07336963125004559
                },
                {
                    "name": "C6",
                    "midi": 84,
                    "time": 404.56648729791175,
                    "velocity": 0.3937007874015748,
                    "duration": 0.07336963125004559
                },
                {
                    "name": "A#5",
                    "midi": 82,
                    "time": 404.6398569291618,
                    "velocity": 0.4409448818897638,
                    "duration": 0.07246383333335871
                },
                {
                    "name": "C6",
                    "midi": 84,
                    "time": 404.71232076249515,
                    "velocity": 0.4015748031496063,
                    "duration": 0.07336963124998874
                },
                {
                    "name": "A#5",
                    "midi": 82,
                    "time": 404.78297299999514,
                    "velocity": 0.4409448818897638,
                    "duration": 0.07336963124998874
                },
                {
                    "name": "C6",
                    "midi": 84,
                    "time": 404.8563426312451,
                    "velocity": 0.3937007874015748,
                    "duration": 0.07246383333335871
                },
                {
                    "name": "A#5",
                    "midi": 82,
                    "time": 404.9288064645785,
                    "velocity": 0.44881889763779526,
                    "duration": 0.07336963125004559
                },
                {
                    "name": "C6",
                    "midi": 84,
                    "time": 405.00127029791184,
                    "velocity": 0.4015748031496063,
                    "duration": 0.07336963125004559
                },
                {
                    "name": "A#5",
                    "midi": 82,
                    "time": 405.0746399291619,
                    "velocity": 0.44881889763779526,
                    "duration": 0.07246383333335871
                },
                {
                    "name": "C6",
                    "midi": 84,
                    "time": 405.14710376249525,
                    "velocity": 0.4015748031496063,
                    "duration": 0.07336963124998874
                },
                {
                    "name": "G5",
                    "midi": 79,
                    "time": 405.21775599999523,
                    "velocity": 0.48031496062992124,
                    "duration": 0.4347830000000954
                },
                {
                    "name": "A#5",
                    "midi": 82,
                    "time": 405.21775599999523,
                    "velocity": 0.4566929133858268,
                    "duration": 0.07336963124998874
                },
                {
                    "name": "G6",
                    "midi": 91,
                    "time": 405.21775599999523,
                    "velocity": 0.5669291338582677,
                    "duration": 0.4347830000000954
                },
                {
                    "name": "C6",
                    "midi": 84,
                    "time": 405.2911256312452,
                    "velocity": 0.3937007874015748,
                    "duration": 0.07246383333335871
                },
                {
                    "name": "A#5",
                    "midi": 82,
                    "time": 405.3635894645786,
                    "velocity": 0.4645669291338583,
                    "duration": 0.07336963125004559
                },
                {
                    "name": "C6",
                    "midi": 84,
                    "time": 405.43605329791194,
                    "velocity": 0.41732283464566927,
                    "duration": 0.07336963125004559
                },
                {
                    "name": "A#5",
                    "midi": 82,
                    "time": 405.509422929162,
                    "velocity": 0.4645669291338583,
                    "duration": 0.07246383333335871
                },
                {
                    "name": "C6",
                    "midi": 84,
                    "time": 405.58188676249534,
                    "velocity": 0.41732283464566927,
                    "duration": 0.07336963124998874
                },
                {
                    "name": "D#5",
                    "midi": 75,
                    "time": 405.65253899999533,
                    "velocity": 0.5118110236220472,
                    "duration": 0.4347830000000954
                },
                {
                    "name": "D#6",
                    "midi": 87,
                    "time": 405.65253899999533,
                    "velocity": 0.6062992125984252,
                    "duration": 0.4347830000000954
                },
                {
                    "name": "A#5",
                    "midi": 82,
                    "time": 405.65253899999533,
                    "velocity": 0.47244094488188976,
                    "duration": 0.07336963124998874
                },
                {
                    "name": "C6",
                    "midi": 84,
                    "time": 405.7259086312453,
                    "velocity": 0.4094488188976378,
                    "duration": 0.07246383333335871
                },
                {
                    "name": "A#5",
                    "midi": 82,
                    "time": 405.7983724645787,
                    "velocity": 0.47244094488188976,
                    "duration": 0.07336963125004559
                },
                {
                    "name": "C6",
                    "midi": 84,
                    "time": 405.87083629791204,
                    "velocity": 0.4330708661417323,
                    "duration": 0.07336963125004559
                },
                {
                    "name": "A#5",
                    "midi": 82,
                    "time": 405.9442059291621,
                    "velocity": 0.48031496062992124,
                    "duration": 0.07246383333335871
                },
                {
                    "name": "C6",
                    "midi": 84,
                    "time": 406.01666976249544,
                    "velocity": 0.4251968503937008,
                    "duration": 0.07336963124998874
                },
                {
                    "name": "A#5",
                    "midi": 82,
                    "time": 406.0873219999954,
                    "velocity": 0.48031496062992124,
                    "duration": 0.07336963124998874
                },
                {
                    "name": "C#5",
                    "midi": 73,
                    "time": 406.0873219999954,
                    "velocity": 0.5118110236220472,
                    "duration": 0.21739150000001928
                },
                {
                    "name": "C#6",
                    "midi": 85,
                    "time": 406.0873219999954,
                    "velocity": 0.6535433070866141,
                    "duration": 0.21739150000001928
                },
                {
                    "name": "C6",
                    "midi": 84,
                    "time": 406.1606916312454,
                    "velocity": 0.41732283464566927,
                    "duration": 0.07246383333335871
                },
                {
                    "name": "A#5",
                    "midi": 82,
                    "time": 406.2331554645788,
                    "velocity": 0.4881889763779528,
                    "duration": 0.07336963125004559
                },
                {
                    "name": "D6",
                    "midi": 86,
                    "time": 406.30471349999544,
                    "velocity": 0.5905511811023622,
                    "duration": 0.4347830000000954
                },
                {
                    "name": "D5",
                    "midi": 74,
                    "time": 406.30471349999544,
                    "velocity": 0.5118110236220472,
                    "duration": 0.4347830000000954
                },
                {
                    "name": "C6",
                    "midi": 84,
                    "time": 406.30561929791213,
                    "velocity": 0.4409448818897638,
                    "duration": 0.07336963125004559
                },
                {
                    "name": "A#5",
                    "midi": 82,
                    "time": 406.3789889291622,
                    "velocity": 0.4881889763779528,
                    "duration": 0.07246383333335871
                },
                {
                    "name": "C6",
                    "midi": 84,
                    "time": 406.45145276249553,
                    "velocity": 0.4409448818897638,
                    "duration": 0.07336963124998874
                },
                {
                    "name": "A#5",
                    "midi": 82,
                    "time": 406.5221049999955,
                    "velocity": 0.49606299212598426,
                    "duration": 0.07336963124998874
                },
                {
                    "name": "C6",
                    "midi": 84,
                    "time": 406.5954746312455,
                    "velocity": 0.4330708661417323,
                    "duration": 0.07246383333335871
                },
                {
                    "name": "A#5",
                    "midi": 82,
                    "time": 406.66793846457887,
                    "velocity": 0.5039370078740157,
                    "duration": 0.07336963125004559
                },
                {
                    "name": "F5",
                    "midi": 77,
                    "time": 406.73949649999554,
                    "velocity": 0.5826771653543307,
                    "duration": 0.21739150000007612
                },
                {
                    "name": "F6",
                    "midi": 89,
                    "time": 406.73949649999554,
                    "velocity": 0.6771653543307087,
                    "duration": 0.21739150000007612
                },
                {
                    "name": "C6",
                    "midi": 84,
                    "time": 406.7404022979122,
                    "velocity": 0.44881889763779526,
                    "duration": 0.07336963125004559
                },
                {
                    "name": "A#5",
                    "midi": 82,
                    "time": 406.8137719291623,
                    "velocity": 0.5039370078740157,
                    "duration": 0.07246383333335871
                },
                {
                    "name": "C6",
                    "midi": 84,
                    "time": 406.88623576249563,
                    "velocity": 0.4409448818897638,
                    "duration": 0.07336963124998874
                },
                {
                    "name": "F6",
                    "midi": 89,
                    "time": 406.9568879999956,
                    "velocity": 0.6771653543307087,
                    "duration": 0.5434787500000766
                },
                {
                    "name": "A5",
                    "midi": 81,
                    "time": 406.9568879999956,
                    "velocity": 0.5905511811023622,
                    "duration": 0.07336963124998874
                },
                {
                    "name": "A#5",
                    "midi": 82,
                    "time": 407.0302576312456,
                    "velocity": 0.5196850393700787,
                    "duration": 0.07246383333335871
                },
                {
                    "name": "A5",
                    "midi": 81,
                    "time": 407.10272146457896,
                    "velocity": 0.5905511811023622,
                    "duration": 0.07336963125004559
                },
                {
                    "name": "A#5",
                    "midi": 82,
                    "time": 407.1751852979123,
                    "velocity": 0.5039370078740157,
                    "duration": 0.07336963125004559
                },
                {
                    "name": "A5",
                    "midi": 81,
                    "time": 407.24855492916237,
                    "velocity": 0.5905511811023622,
                    "duration": 0.07246383333335871
                },
                {
                    "name": "A#5",
                    "midi": 82,
                    "time": 407.3210187624957,
                    "velocity": 0.5354330708661418,
                    "duration": 0.07336963124998874
                },
                {
                    "name": "A5",
                    "midi": 81,
                    "time": 407.3916709999957,
                    "velocity": 0.6141732283464567,
                    "duration": 0.07336963124998874
                },
                {
                    "name": "A#5",
                    "midi": 82,
                    "time": 407.4650406312457,
                    "velocity": 0.5433070866141733,
                    "duration": 0.07246383333330186
                },
                {
                    "name": "D#6",
                    "midi": 87,
                    "time": 407.5003667499957,
                    "velocity": 0.6771653543307087,
                    "duration": 0.10869574999998122
                },
                {
                    "name": "A5",
                    "midi": 81,
                    "time": 407.537504464579,
                    "velocity": 0.5905511811023622,
                    "duration": 0.07336963124998874
                },
                {
                    "name": "G5",
                    "midi": 79,
                    "time": 407.6090624999957,
                    "velocity": 0.6220472440944882,
                    "duration": 0.10869574999998122
                },
                {
                    "name": "C6",
                    "midi": 84,
                    "time": 407.6090624999957,
                    "velocity": 0.6220472440944882,
                    "duration": 0.10869574999998122
                },
                {
                    "name": "A5",
                    "midi": 81,
                    "time": 407.71775824999565,
                    "velocity": 0.6220472440944882,
                    "duration": 0.10869574999998122
                },
                {
                    "name": "F6",
                    "midi": 89,
                    "time": 407.71775824999565,
                    "velocity": 0.6220472440944882,
                    "duration": 0.10869574999998122
                },
                {
                    "name": "G#5",
                    "midi": 80,
                    "time": 407.82645399999564,
                    "velocity": 0.6850393700787402,
                    "duration": 0.10869574999998122
                },
                {
                    "name": "F5",
                    "midi": 77,
                    "time": 407.82645399999564,
                    "velocity": 0.6850393700787402,
                    "duration": 0.10869574999998122
                },
                {
                    "name": "D6",
                    "midi": 86,
                    "time": 407.82645399999564,
                    "velocity": 0.6850393700787402,
                    "duration": 0.10869574999998122
                },
                {
                    "name": "F6",
                    "midi": 89,
                    "time": 407.82645399999564,
                    "velocity": 0.8110236220472441,
                    "duration": 0.10869574999998122
                },
                {
                    "name": "F6",
                    "midi": 89,
                    "time": 408.0438454999956,
                    "velocity": 0.6220472440944882,
                    "duration": 0.4347829999999817
                },
                {
                    "name": "G#6",
                    "midi": 92,
                    "time": 408.0438454999956,
                    "velocity": 0.6220472440944882,
                    "duration": 0.4347829999999817
                },
                {
                    "name": "F7",
                    "midi": 101,
                    "time": 408.0438454999956,
                    "velocity": 0.7322834645669292,
                    "duration": 0.4347829999999817
                },
                {
                    "name": "D7",
                    "midi": 98,
                    "time": 408.0438454999956,
                    "velocity": 0.6220472440944882,
                    "duration": 0.4347829999999817
                },
                {
                    "name": "D#7",
                    "midi": 99,
                    "time": 408.4786284999956,
                    "velocity": 0.6141732283464567,
                    "duration": 0.10869574999998122
                },
                {
                    "name": "G#6",
                    "midi": 92,
                    "time": 408.4786284999956,
                    "velocity": 0.5196850393700787,
                    "duration": 0.10869574999998122
                },
                {
                    "name": "D#6",
                    "midi": 87,
                    "time": 408.4786284999956,
                    "velocity": 0.5196850393700787,
                    "duration": 0.10869574999998122
                },
                {
                    "name": "F6",
                    "midi": 89,
                    "time": 408.4786284999956,
                    "velocity": 0.5196850393700787,
                    "duration": 0.10869574999998122
                },
                {
                    "name": "D6",
                    "midi": 86,
                    "time": 408.69601999999554,
                    "velocity": 0.5275590551181102,
                    "duration": 0.10869574999998122
                },
                {
                    "name": "D7",
                    "midi": 98,
                    "time": 408.69601999999554,
                    "velocity": 0.6220472440944882,
                    "duration": 0.10869574999998122
                },
                {
                    "name": "F6",
                    "midi": 89,
                    "time": 408.69601999999554,
                    "velocity": 0.5275590551181102,
                    "duration": 0.10869574999998122
                },
                {
                    "name": "G#6",
                    "midi": 92,
                    "time": 408.69601999999554,
                    "velocity": 0.5275590551181102,
                    "duration": 0.10869574999998122
                },
                {
                    "name": "D#6",
                    "midi": 87,
                    "time": 408.9134114999955,
                    "velocity": 0.5511811023622047,
                    "duration": 0.10869574999998122
                },
                {
                    "name": "F6",
                    "midi": 89,
                    "time": 408.9134114999955,
                    "velocity": 0.5511811023622047,
                    "duration": 0.10869574999998122
                },
                {
                    "name": "D#7",
                    "midi": 99,
                    "time": 408.9134114999955,
                    "velocity": 0.6535433070866141,
                    "duration": 0.10869574999998122
                },
                {
                    "name": "G#6",
                    "midi": 92,
                    "time": 408.9134114999955,
                    "velocity": 0.5511811023622047,
                    "duration": 0.10869574999998122
                },
                {
                    "name": "G#6",
                    "midi": 92,
                    "time": 409.13080299999547,
                    "velocity": 0.5433070866141733,
                    "duration": 0.10869574999998122
                },
                {
                    "name": "F7",
                    "midi": 101,
                    "time": 409.13080299999547,
                    "velocity": 0.6456692913385826,
                    "duration": 0.10869574999998122
                },
                {
                    "name": "F6",
                    "midi": 89,
                    "time": 409.13080299999547,
                    "velocity": 0.5433070866141733,
                    "duration": 0.10869574999998122
                },
                {
                    "name": "D7",
                    "midi": 98,
                    "time": 409.34819449999543,
                    "velocity": 0.5433070866141733,
                    "duration": 0.10869574999998122
                },
                {
                    "name": "G6",
                    "midi": 91,
                    "time": 409.34819449999543,
                    "velocity": 0.4566929133858268,
                    "duration": 0.10869574999998122
                },
                {
                    "name": "F6",
                    "midi": 89,
                    "time": 409.34819449999543,
                    "velocity": 0.4566929133858268,
                    "duration": 0.10869574999998122
                },
                {
                    "name": "D6",
                    "midi": 86,
                    "time": 409.34819449999543,
                    "velocity": 0.4566929133858268,
                    "duration": 0.10869574999998122
                },
                {
                    "name": "D#6",
                    "midi": 87,
                    "time": 409.5655859999954,
                    "velocity": 0.3937007874015748,
                    "duration": 0.10869574999998122
                },
                {
                    "name": "D#7",
                    "midi": 99,
                    "time": 409.5655859999954,
                    "velocity": 0.4645669291338583,
                    "duration": 0.10869574999998122
                },
                {
                    "name": "G6",
                    "midi": 91,
                    "time": 409.5655859999954,
                    "velocity": 0.3937007874015748,
                    "duration": 0.10869574999998122
                },
                {
                    "name": "D6",
                    "midi": 86,
                    "time": 409.78297749999535,
                    "velocity": 0.3543307086614173,
                    "duration": 0.10869574999998122
                },
                {
                    "name": "D7",
                    "midi": 98,
                    "time": 409.78297749999535,
                    "velocity": 0.41732283464566927,
                    "duration": 0.10869574999998122
                },
                {
                    "name": "G6",
                    "midi": 91,
                    "time": 409.78297749999535,
                    "velocity": 0.3543307086614173,
                    "duration": 0.10869574999998122
                },
                {
                    "name": "F6",
                    "midi": 89,
                    "time": 409.78297749999535,
                    "velocity": 0.3543307086614173,
                    "duration": 0.10869574999998122
                },
                {
                    "name": "D#7",
                    "midi": 99,
                    "time": 410.0003689999953,
                    "velocity": 0.4645669291338583,
                    "duration": 0.10869574999998122
                },
                {
                    "name": "D#6",
                    "midi": 87,
                    "time": 410.0003689999953,
                    "velocity": 0.3937007874015748,
                    "duration": 0.10869574999998122
                },
                {
                    "name": "G6",
                    "midi": 91,
                    "time": 410.0003689999953,
                    "velocity": 0.3937007874015748,
                    "duration": 0.10869574999998122
                },
                {
                    "name": "G6",
                    "midi": 91,
                    "time": 410.2177604999953,
                    "velocity": 0.3543307086614173,
                    "duration": 0.10869574999998122
                },
                {
                    "name": "C6",
                    "midi": 84,
                    "time": 410.2177604999953,
                    "velocity": 0.3543307086614173,
                    "duration": 0.10869574999998122
                },
                {
                    "name": "C7",
                    "midi": 96,
                    "time": 410.2177604999953,
                    "velocity": 0.41732283464566927,
                    "duration": 0.10869574999998122
                },
                {
                    "name": "C6",
                    "midi": 84,
                    "time": 410.43515199999524,
                    "velocity": 0.3937007874015748,
                    "duration": 0.10869574999998122
                },
                {
                    "name": "A#6",
                    "midi": 94,
                    "time": 410.43515199999524,
                    "velocity": 0.4645669291338583,
                    "duration": 0.10869574999998122
                },
                {
                    "name": "G6",
                    "midi": 91,
                    "time": 410.43515199999524,
                    "velocity": 0.3937007874015748,
                    "duration": 0.10869574999998122
                },
                {
                    "name": "E6",
                    "midi": 88,
                    "time": 410.6525434999952,
                    "velocity": 0.3543307086614173,
                    "duration": 0.10869574999998122
                },
                {
                    "name": "C6",
                    "midi": 84,
                    "time": 410.6525434999952,
                    "velocity": 0.3543307086614173,
                    "duration": 0.10869574999998122
                },
                {
                    "name": "A#6",
                    "midi": 94,
                    "time": 410.6525434999952,
                    "velocity": 0.41732283464566927,
                    "duration": 0.10869574999998122
                },
                {
                    "name": "D#6",
                    "midi": 87,
                    "time": 410.86993499999517,
                    "velocity": 0.3937007874015748,
                    "duration": 0.10869574999998122
                },
                {
                    "name": "C6",
                    "midi": 84,
                    "time": 410.86993499999517,
                    "velocity": 0.3937007874015748,
                    "duration": 0.10869574999998122
                },
                {
                    "name": "A6",
                    "midi": 93,
                    "time": 410.86993499999517,
                    "velocity": 0.4645669291338583,
                    "duration": 0.10869574999998122
                },
                {
                    "name": "C6",
                    "midi": 84,
                    "time": 411.08732649999513,
                    "velocity": 0.3543307086614173,
                    "duration": 0.10869574999998122
                },
                {
                    "name": "C7",
                    "midi": 96,
                    "time": 411.08732649999513,
                    "velocity": 0.41732283464566927,
                    "duration": 0.10869574999998122
                },
                {
                    "name": "D#6",
                    "midi": 87,
                    "time": 411.08732649999513,
                    "velocity": 0.3543307086614173,
                    "duration": 0.10869574999998122
                },
                {
                    "name": "D6",
                    "midi": 86,
                    "time": 411.3047179999951,
                    "velocity": 0.4330708661417323,
                    "duration": 0.10869574999998122
                },
                {
                    "name": "A#5",
                    "midi": 82,
                    "time": 411.3047179999951,
                    "velocity": 0.4330708661417323,
                    "duration": 0.10869574999998122
                },
                {
                    "name": "A#6",
                    "midi": 94,
                    "time": 411.3047179999951,
                    "velocity": 0.5039370078740157,
                    "duration": 0.10869574999998122
                },
                {
                    "name": "F5",
                    "midi": 77,
                    "time": 411.52210949999505,
                    "velocity": 0.3937007874015748,
                    "duration": 0.10869574999998122
                },
                {
                    "name": "D6",
                    "midi": 86,
                    "time": 411.52210949999505,
                    "velocity": 0.3937007874015748,
                    "duration": 0.10869574999998122
                },
                {
                    "name": "F6",
                    "midi": 89,
                    "time": 411.52210949999505,
                    "velocity": 0.4645669291338583,
                    "duration": 0.10869574999998122
                },
                {
                    "name": "F6",
                    "midi": 89,
                    "time": 411.739500999995,
                    "velocity": 0.4566929133858268,
                    "duration": 0.10869574999998122
                },
                {
                    "name": "A5",
                    "midi": 81,
                    "time": 411.739500999995,
                    "velocity": 0.4566929133858268,
                    "duration": 0.10869574999998122
                },
                {
                    "name": "A6",
                    "midi": 93,
                    "time": 411.739500999995,
                    "velocity": 0.5433070866141733,
                    "duration": 0.10869574999998122
                },
                {
                    "name": "D#6",
                    "midi": 87,
                    "time": 411.739500999995,
                    "velocity": 0.4566929133858268,
                    "duration": 0.10869574999998122
                },
                {
                    "name": "C7",
                    "midi": 96,
                    "time": 411.956892499995,
                    "velocity": 0.5118110236220472,
                    "duration": 0.10869574999998122
                },
                {
                    "name": "F6",
                    "midi": 89,
                    "time": 411.956892499995,
                    "velocity": 0.4330708661417323,
                    "duration": 0.10869574999998122
                },
                {
                    "name": "D#6",
                    "midi": 87,
                    "time": 411.956892499995,
                    "velocity": 0.4330708661417323,
                    "duration": 0.10869574999998122
                },
                {
                    "name": "C6",
                    "midi": 84,
                    "time": 411.956892499995,
                    "velocity": 0.4330708661417323,
                    "duration": 0.10869574999998122
                },
                {
                    "name": "D6",
                    "midi": 86,
                    "time": 412.17428399999494,
                    "velocity": 0.49606299212598426,
                    "duration": 0.10869574999998122
                },
                {
                    "name": "A#6",
                    "midi": 94,
                    "time": 412.17428399999494,
                    "velocity": 0.5905511811023622,
                    "duration": 0.10869574999998122
                },
                {
                    "name": "A#5",
                    "midi": 82,
                    "time": 412.17428399999494,
                    "velocity": 0.49606299212598426,
                    "duration": 0.10869574999998122
                },
                {
                    "name": "F6",
                    "midi": 89,
                    "time": 412.3916754999949,
                    "velocity": 0.5433070866141733,
                    "duration": 0.10869574999998122
                },
                {
                    "name": "D6",
                    "midi": 86,
                    "time": 412.3916754999949,
                    "velocity": 0.4645669291338583,
                    "duration": 0.10869574999998122
                },
                {
                    "name": "F5",
                    "midi": 77,
                    "time": 412.3916754999949,
                    "velocity": 0.4645669291338583,
                    "duration": 0.10869574999998122
                },
                {
                    "name": "A5",
                    "midi": 81,
                    "time": 412.60906699999487,
                    "velocity": 0.5433070866141733,
                    "duration": 0.10869574999998122
                },
                {
                    "name": "D#6",
                    "midi": 87,
                    "time": 412.60906699999487,
                    "velocity": 0.5433070866141733,
                    "duration": 0.10869574999998122
                },
                {
                    "name": "F6",
                    "midi": 89,
                    "time": 412.60906699999487,
                    "velocity": 0.5433070866141733,
                    "duration": 0.10869574999998122
                },
                {
                    "name": "A6",
                    "midi": 93,
                    "time": 412.60906699999487,
                    "velocity": 0.6299212598425197,
                    "duration": 0.10869574999998122
                },
                {
                    "name": "D#6",
                    "midi": 87,
                    "time": 412.8264584999948,
                    "velocity": 0.5039370078740157,
                    "duration": 0.10869574999998122
                },
                {
                    "name": "F6",
                    "midi": 89,
                    "time": 412.8264584999948,
                    "velocity": 0.5039370078740157,
                    "duration": 0.10869574999998122
                },
                {
                    "name": "C7",
                    "midi": 96,
                    "time": 412.8264584999948,
                    "velocity": 0.5984251968503937,
                    "duration": 0.10869574999998122
                },
                {
                    "name": "C6",
                    "midi": 84,
                    "time": 412.8264584999948,
                    "velocity": 0.5039370078740157,
                    "duration": 0.10869574999998122
                },
                {
                    "name": "A#5",
                    "midi": 82,
                    "time": 413.0438499999948,
                    "velocity": 0.6062992125984252,
                    "duration": 0.10869574999998122
                },
                {
                    "name": "A#6",
                    "midi": 94,
                    "time": 413.1525457499948,
                    "velocity": 0.5511811023622047,
                    "duration": 0.10869574999998122
                },
                {
                    "name": "F5",
                    "midi": 77,
                    "time": 413.26124149999475,
                    "velocity": 0.6220472440944882,
                    "duration": 0.10869574999998122
                },
                {
                    "name": "F6",
                    "midi": 89,
                    "time": 413.36993724999473,
                    "velocity": 0.5748031496062992,
                    "duration": 0.10869574999998122
                },
                {
                    "name": "A5",
                    "midi": 81,
                    "time": 413.4786329999947,
                    "velocity": 0.6456692913385826,
                    "duration": 0.10869574999998122
                },
                {
                    "name": "A6",
                    "midi": 93,
                    "time": 413.5873287499947,
                    "velocity": 0.5984251968503937,
                    "duration": 0.10869574999998122
                },
                {
                    "name": "C6",
                    "midi": 84,
                    "time": 413.6960244999947,
                    "velocity": 0.6692913385826772,
                    "duration": 0.10869574999998122
                },
                {
                    "name": "C7",
                    "midi": 96,
                    "time": 413.80472024999466,
                    "velocity": 0.6220472440944882,
                    "duration": 0.10869574999998122
                },
                {
                    "name": "A#5",
                    "midi": 82,
                    "time": 413.91341599999464,
                    "velocity": 0.6929133858267716,
                    "duration": 0.10869574999998122
                },
                {
                    "name": "A#6",
                    "midi": 94,
                    "time": 414.0221117499946,
                    "velocity": 0.6456692913385826,
                    "duration": 0.10869574999998122
                },
                {
                    "name": "F5",
                    "midi": 77,
                    "time": 414.1308074999946,
                    "velocity": 0.7165354330708661,
                    "duration": 0.10869574999998122
                },
                {
                    "name": "F6",
                    "midi": 89,
                    "time": 414.2395032499946,
                    "velocity": 0.6377952755905512,
                    "duration": 0.10869574999998122
                },
                {
                    "name": "A4",
                    "midi": 69,
                    "time": 414.34819899999457,
                    "velocity": 0.7007874015748031,
                    "duration": 0.10869574999998122
                },
                {
                    "name": "A5",
                    "midi": 81,
                    "time": 414.45689474999455,
                    "velocity": 0.6377952755905512,
                    "duration": 0.10869574999998122
                },
                {
                    "name": "C5",
                    "midi": 72,
                    "time": 414.5655904999945,
                    "velocity": 0.7086614173228346,
                    "duration": 0.10869574999998122
                },
                {
                    "name": "C6",
                    "midi": 84,
                    "time": 414.6742862499945,
                    "velocity": 0.6299212598425197,
                    "duration": 0.10869574999998122
                },
                {
                    "name": "A#4",
                    "midi": 70,
                    "time": 414.7829819999945,
                    "velocity": 0.6929133858267716,
                    "duration": 0.10869574999998122
                },
                {
                    "name": "A#5",
                    "midi": 82,
                    "time": 414.89167774999447,
                    "velocity": 0.6456692913385826,
                    "duration": 0.10869574999998122
                },
                {
                    "name": "F4",
                    "midi": 65,
                    "time": 415.00037349999445,
                    "velocity": 0.7165354330708661,
                    "duration": 0.10869574999998122
                },
                {
                    "name": "F5",
                    "midi": 77,
                    "time": 415.10906924999443,
                    "velocity": 0.6377952755905512,
                    "duration": 0.10869574999998122
                },
                {
                    "name": "B4",
                    "midi": 71,
                    "time": 415.2177649999944,
                    "velocity": 0.7007874015748031,
                    "duration": 0.10869574999998122
                },
                {
                    "name": "B5",
                    "midi": 83,
                    "time": 415.3264607499944,
                    "velocity": 0.6377952755905512,
                    "duration": 0.10869574999998122
                },
                {
                    "name": "D5",
                    "midi": 74,
                    "time": 415.4351564999944,
                    "velocity": 0.7086614173228346,
                    "duration": 0.10869574999998122
                },
                {
                    "name": "D6",
                    "midi": 86,
                    "time": 415.54385224999436,
                    "velocity": 0.6299212598425197,
                    "duration": 0.10869574999998122
                },
                {
                    "name": "C5",
                    "midi": 72,
                    "time": 415.65254799999434,
                    "velocity": 0.6929133858267716,
                    "duration": 0.10869574999998122
                },
                {
                    "name": "C6",
                    "midi": 84,
                    "time": 415.7612437499943,
                    "velocity": 0.6456692913385826,
                    "duration": 0.10869574999998122
                },
                {
                    "name": "G4",
                    "midi": 67,
                    "time": 415.8699394999943,
                    "velocity": 0.7165354330708661,
                    "duration": 0.10869574999998122
                },
                {
                    "name": "G5",
                    "midi": 79,
                    "time": 415.9786352499943,
                    "velocity": 0.6377952755905512,
                    "duration": 0.10869574999998122
                },
                {
                    "name": "B4",
                    "midi": 71,
                    "time": 416.08733099999426,
                    "velocity": 0.7007874015748031,
                    "duration": 0.10869574999998122
                },
                {
                    "name": "B5",
                    "midi": 83,
                    "time": 416.19602674999425,
                    "velocity": 0.6377952755905512,
                    "duration": 0.10869574999998122
                },
                {
                    "name": "D5",
                    "midi": 74,
                    "time": 416.3047224999942,
                    "velocity": 0.7086614173228346,
                    "duration": 0.10869574999998122
                },
                {
                    "name": "D6",
                    "midi": 86,
                    "time": 416.4134182499942,
                    "velocity": 0.6299212598425197,
                    "duration": 0.10869574999998122
                },
                {
                    "name": "C5",
                    "midi": 72,
                    "time": 416.5221139999942,
                    "velocity": 0.6929133858267716,
                    "duration": 0.10869574999998122
                },
                {
                    "name": "C6",
                    "midi": 84,
                    "time": 416.63080974999417,
                    "velocity": 0.6456692913385826,
                    "duration": 0.10869574999998122
                },
                {
                    "name": "G4",
                    "midi": 67,
                    "time": 416.73950549999415,
                    "velocity": 0.7165354330708661,
                    "duration": 0.10869574999998122
                },
                {
                    "name": "G5",
                    "midi": 79,
                    "time": 416.84820124999413,
                    "velocity": 0.6377952755905512,
                    "duration": 0.10869574999998122
                },
                {
                    "name": "C5",
                    "midi": 72,
                    "time": 416.9568969999941,
                    "velocity": 0.7007874015748031,
                    "duration": 0.10869574999998122
                },
                {
                    "name": "C6",
                    "midi": 84,
                    "time": 417.0655927499941,
                    "velocity": 0.6377952755905512,
                    "duration": 0.10869574999998122
                },
                {
                    "name": "D#5",
                    "midi": 75,
                    "time": 417.1742884999941,
                    "velocity": 0.7086614173228346,
                    "duration": 0.10869574999998122
                },
                {
                    "name": "D#6",
                    "midi": 87,
                    "time": 417.28298424999406,
                    "velocity": 0.6299212598425197,
                    "duration": 0.10869574999998122
                },
                {
                    "name": "D5",
                    "midi": 74,
                    "time": 417.39167999999404,
                    "velocity": 0.6929133858267716,
                    "duration": 0.10869574999998122
                },
                {
                    "name": "D6",
                    "midi": 86,
                    "time": 417.500375749994,
                    "velocity": 0.6456692913385826,
                    "duration": 0.10869574999998122
                },
                {
                    "name": "A4",
                    "midi": 69,
                    "time": 417.609071499994,
                    "velocity": 0.7165354330708661,
                    "duration": 0.10869574999998122
                },
                {
                    "name": "A5",
                    "midi": 81,
                    "time": 417.717767249994,
                    "velocity": 0.6299212598425197,
                    "duration": 0.10869574999998122
                },
                {
                    "name": "C#5",
                    "midi": 73,
                    "time": 417.82646299999396,
                    "velocity": 0.6929133858267716,
                    "duration": 0.10869574999998122
                },
                {
                    "name": "C#6",
                    "midi": 85,
                    "time": 417.93515874999395,
                    "velocity": 0.6299212598425197,
                    "duration": 0.10869574999998122
                },
                {
                    "name": "E5",
                    "midi": 76,
                    "time": 418.0438544999939,
                    "velocity": 0.6929133858267716,
                    "duration": 0.10869574999998122
                },
                {
                    "name": "E6",
                    "midi": 88,
                    "time": 418.1525502499939,
                    "velocity": 0.6141732283464567,
                    "duration": 0.10869574999998122
                },
                {
                    "name": "D5",
                    "midi": 74,
                    "time": 418.2612459999939,
                    "velocity": 0.6771653543307087,
                    "duration": 0.10869574999998122
                },
                {
                    "name": "D6",
                    "midi": 86,
                    "time": 418.36994174999387,
                    "velocity": 0.6220472440944882,
                    "duration": 0.10869574999998122
                },
                {
                    "name": "A4",
                    "midi": 69,
                    "time": 418.47863749999385,
                    "velocity": 0.6929133858267716,
                    "duration": 0.10869574999998122
                },
                {
                    "name": "A5",
                    "midi": 81,
                    "time": 418.58733324999383,
                    "velocity": 0.6141732283464567,
                    "duration": 0.10869574999998122
                },
                {
                    "name": "D5",
                    "midi": 74,
                    "time": 418.6960289999938,
                    "velocity": 0.6692913385826772,
                    "duration": 0.10869574999998122
                },
                {
                    "name": "D6",
                    "midi": 86,
                    "time": 418.8047247499938,
                    "velocity": 0.6062992125984252,
                    "duration": 0.10869574999998122
                },
                {
                    "name": "F5",
                    "midi": 77,
                    "time": 418.9134204999938,
                    "velocity": 0.6692913385826772,
                    "duration": 0.10869574999998122
                },
                {
                    "name": "F6",
                    "midi": 89,
                    "time": 419.02211624999376,
                    "velocity": 0.5984251968503937,
                    "duration": 0.10869574999998122
                },
                {
                    "name": "D#5",
                    "midi": 75,
                    "time": 419.13081199999374,
                    "velocity": 0.6535433070866141,
                    "duration": 0.10869574999998122
                },
                {
                    "name": "D#6",
                    "midi": 87,
                    "time": 419.2395077499937,
                    "velocity": 0.6062992125984252,
                    "duration": 0.10869574999998122
                },
                {
                    "name": "A#4",
                    "midi": 70,
                    "time": 419.3482034999937,
                    "velocity": 0.6692913385826772,
                    "duration": 0.10869574999998122
                },
                {
                    "name": "A#5",
                    "midi": 82,
                    "time": 419.4568992499937,
                    "velocity": 0.5984251968503937,
                    "duration": 0.10869574999998122
                },
                {
                    "name": "D5",
                    "midi": 74,
                    "time": 419.56559499999366,
                    "velocity": 0.6456692913385826,
                    "duration": 0.10869574999998122
                },
                {
                    "name": "D6",
                    "midi": 86,
                    "time": 419.67429074999365,
                    "velocity": 0.5905511811023622,
                    "duration": 0.10869574999998122
                },
                {
                    "name": "F5",
                    "midi": 77,
                    "time": 419.7829864999936,
                    "velocity": 0.6535433070866141,
                    "duration": 0.10869574999998122
                },
                {
                    "name": "F6",
                    "midi": 89,
                    "time": 419.8916822499936,
                    "velocity": 0.5748031496062992,
                    "duration": 0.10869574999998122
                },
                {
                    "name": "D#5",
                    "midi": 75,
                    "time": 420.0003779999936,
                    "velocity": 0.6299212598425197,
                    "duration": 0.10869574999998122
                },
                {
                    "name": "D#6",
                    "midi": 87,
                    "time": 420.10907374999357,
                    "velocity": 0.5905511811023622,
                    "duration": 0.10869574999998122
                },
                {
                    "name": "A#4",
                    "midi": 70,
                    "time": 420.21776949999355,
                    "velocity": 0.6456692913385826,
                    "duration": 0.10869574999998122
                },
                {
                    "name": "A#5",
                    "midi": 82,
                    "time": 420.32646524999353,
                    "velocity": 0.5748031496062992,
                    "duration": 0.10869574999998122
                },
                {
                    "name": "D#5",
                    "midi": 75,
                    "time": 420.4351609999935,
                    "velocity": 0.6299212598425197,
                    "duration": 0.10869574999998122
                },
                {
                    "name": "D#6",
                    "midi": 87,
                    "time": 420.5438567499935,
                    "velocity": 0.5669291338582677,
                    "duration": 0.10869574999998122
                },
                {
                    "name": "F#5",
                    "midi": 78,
                    "time": 420.6525524999935,
                    "velocity": 0.6377952755905512,
                    "duration": 0.10869574999998122
                },
                {
                    "name": "F#6",
                    "midi": 90,
                    "time": 420.76124824999346,
                    "velocity": 0.5590551181102362,
                    "duration": 0.10869574999998122
                },
                {
                    "name": "F5",
                    "midi": 77,
                    "time": 420.86994399999344,
                    "velocity": 0.6141732283464567,
                    "duration": 0.10869574999998122
                },
                {
                    "name": "F6",
                    "midi": 89,
                    "time": 420.9786397499934,
                    "velocity": 0.5669291338582677,
                    "duration": 0.10869574999998122
                },
                {
                    "name": "C5",
                    "midi": 72,
                    "time": 421.0873354999934,
                    "velocity": 0.6299212598425197,
                    "duration": 0.10869574999998122
                },
                {
                    "name": "C6",
                    "midi": 84,
                    "time": 421.1960312499934,
                    "velocity": 0.5590551181102362,
                    "duration": 0.10869574999998122
                },
                {
                    "name": "D#5",
                    "midi": 75,
                    "time": 421.30472699999336,
                    "velocity": 0.6141732283464567,
                    "duration": 0.10869574999998122
                },
                {
                    "name": "D#6",
                    "midi": 87,
                    "time": 421.41342274999334,
                    "velocity": 0.5511811023622047,
                    "duration": 0.10869574999998122
                },
                {
                    "name": "F#5",
                    "midi": 78,
                    "time": 421.5221184999933,
                    "velocity": 0.6141732283464567,
                    "duration": 0.10869574999998122
                },
                {
                    "name": "F#6",
                    "midi": 90,
                    "time": 421.6308142499933,
                    "velocity": 0.5433070866141733,
                    "duration": 0.10869574999998122
                },
                {
                    "name": "C#5",
                    "midi": 73,
                    "time": 421.7395099999933,
                    "velocity": 0.5905511811023622,
                    "duration": 0.10869574999998122
                },
                {
                    "name": "C#6",
                    "midi": 85,
                    "time": 421.84820574999327,
                    "velocity": 0.5511811023622047,
                    "duration": 0.10869574999998122
                },
                {
                    "name": "A4",
                    "midi": 69,
                    "time": 421.95690149999325,
                    "velocity": 0.6062992125984252,
                    "duration": 0.10869574999998122
                },
                {
                    "name": "A5",
                    "midi": 81,
                    "time": 422.06559724999323,
                    "velocity": 0.5354330708661418,
                    "duration": 0.10869574999998122
                },
                {
                    "name": "C5",
                    "midi": 72,
                    "time": 422.1742929999932,
                    "velocity": 0.5905511811023622,
                    "duration": 0.10869574999998122
                },
                {
                    "name": "C6",
                    "midi": 84,
                    "time": 422.2829887499932,
                    "velocity": 0.5354330708661418,
                    "duration": 0.10869574999998122
                },
                {
                    "name": "D#5",
                    "midi": 75,
                    "time": 422.3916844999932,
                    "velocity": 0.5905511811023622,
                    "duration": 0.10869574999998122
                },
                {
                    "name": "D#6",
                    "midi": 87,
                    "time": 422.50038024999316,
                    "velocity": 0.5275590551181102,
                    "duration": 0.10869574999998122
                },
                {
                    "name": "F#4",
                    "midi": 66,
                    "time": 422.60907599999314,
                    "velocity": 0.5748031496062992,
                    "duration": 0.10869574999998122
                },
                {
                    "name": "F#5",
                    "midi": 78,
                    "time": 422.7177717499931,
                    "velocity": 0.5354330708661418,
                    "duration": 0.10869574999998122
                },
                {
                    "name": "F4",
                    "midi": 65,
                    "time": 422.8264674999931,
                    "velocity": 0.5905511811023622,
                    "duration": 0.10869574999998122
                },
                {
                    "name": "F5",
                    "midi": 77,
                    "time": 422.9351632499931,
                    "velocity": 0.5196850393700787,
                    "duration": 0.10869574999998122
                },
                {
                    "name": "A4",
                    "midi": 69,
                    "time": 423.04385899999306,
                    "velocity": 0.5669291338582677,
                    "duration": 0.10869574999998122
                },
                {
                    "name": "A5",
                    "midi": 81,
                    "time": 423.15255474999304,
                    "velocity": 0.5196850393700787,
                    "duration": 0.10869574999998122
                },
                {
                    "name": "D#5",
                    "midi": 75,
                    "time": 423.261250499993,
                    "velocity": 0.5669291338582677,
                    "duration": 0.10869574999998122
                },
                {
                    "name": "D#6",
                    "midi": 87,
                    "time": 423.369946249993,
                    "velocity": 0.5039370078740157,
                    "duration": 0.10869574999998122
                },
                {
                    "name": "B4",
                    "midi": 71,
                    "time": 423.478641999993,
                    "velocity": 0.31496062992125984,
                    "duration": 0.10869574999998122
                },
                {
                    "name": "D5",
                    "midi": 74,
                    "time": 423.478641999993,
                    "velocity": 0.4566929133858268,
                    "duration": 0.8695659999998497
                },
                {
                    "name": "A#4",
                    "midi": 70,
                    "time": 423.58733774999297,
                    "velocity": 0.2677165354330709,
                    "duration": 0.10869574999998122
                },
                {
                    "name": "B4",
                    "midi": 71,
                    "time": 423.69603349999295,
                    "velocity": 0.31496062992125984,
                    "duration": 0.10869574999998122
                },
                {
                    "name": "A#4",
                    "midi": 70,
                    "time": 423.80472924999293,
                    "velocity": 0.2755905511811024,
                    "duration": 0.10869574999998122
                },
                {
                    "name": "B4",
                    "midi": 71,
                    "time": 423.9134249999929,
                    "velocity": 0.31496062992125984,
                    "duration": 0.10869574999998122
                },
                {
                    "name": "A#4",
                    "midi": 70,
                    "time": 424.0221207499929,
                    "velocity": 0.2755905511811024,
                    "duration": 0.10869574999998122
                },
                {
                    "name": "B4",
                    "midi": 71,
                    "time": 424.1308164999929,
                    "velocity": 0.31496062992125984,
                    "duration": 0.10869574999998122
                },
                {
                    "name": "A#4",
                    "midi": 70,
                    "time": 424.23951224999286,
                    "velocity": 0.28346456692913385,
                    "duration": 0.10869574999998122
                },
                {
                    "name": "B4",
                    "midi": 71,
                    "time": 424.34820799999284,
                    "velocity": 0.31496062992125984,
                    "duration": 0.10869574999998122
                },
                {
                    "name": "D#5",
                    "midi": 75,
                    "time": 424.34820799999284,
                    "velocity": 0.3779527559055118,
                    "duration": 0.43478299999992487
                },
                {
                    "name": "A#4",
                    "midi": 70,
                    "time": 424.4569037499928,
                    "velocity": 0.2677165354330709,
                    "duration": 0.10869574999998122
                },
                {
                    "name": "B4",
                    "midi": 71,
                    "time": 424.5655994999928,
                    "velocity": 0.31496062992125984,
                    "duration": 0.10869574999998122
                },
                {
                    "name": "A#4",
                    "midi": 70,
                    "time": 424.6742952499928,
                    "velocity": 0.2755905511811024,
                    "duration": 0.10869574999998122
                },
                {
                    "name": "F#5",
                    "midi": 78,
                    "time": 424.78299099999276,
                    "velocity": 0.4015748031496063,
                    "duration": 0.43478299999992487
                },
                {
                    "name": "B4",
                    "midi": 71,
                    "time": 424.78299099999276,
                    "velocity": 0.31496062992125984,
                    "duration": 0.10869574999998122
                },
                {
                    "name": "A#4",
                    "midi": 70,
                    "time": 424.89168674999274,
                    "velocity": 0.2755905511811024,
                    "duration": 0.10869574999998122
                },
                {
                    "name": "B4",
                    "midi": 71,
                    "time": 425.0003824999927,
                    "velocity": 0.31496062992125984,
                    "duration": 0.10869574999998122
                },
                {
                    "name": "A#4",
                    "midi": 70,
                    "time": 425.1090782499927,
                    "velocity": 0.28346456692913385,
                    "duration": 0.10869574999998122
                },
                {
                    "name": "A#5",
                    "midi": 82,
                    "time": 425.2177739999927,
                    "velocity": 0.47244094488188976,
                    "duration": 0.8695659999998497
                },
                {
                    "name": "B4",
                    "midi": 71,
                    "time": 425.2177739999927,
                    "velocity": 0.31496062992125984,
                    "duration": 0.10869574999998122
                },
                {
                    "name": "A#4",
                    "midi": 70,
                    "time": 425.32646974999267,
                    "velocity": 0.2677165354330709,
                    "duration": 0.10869574999998122
                },
                {
                    "name": "B4",
                    "midi": 71,
                    "time": 425.43516549999265,
                    "velocity": 0.31496062992125984,
                    "duration": 0.10869574999998122
                },
                {
                    "name": "A#4",
                    "midi": 70,
                    "time": 425.54386124999263,
                    "velocity": 0.2755905511811024,
                    "duration": 0.10869574999998122
                },
                {
                    "name": "B4",
                    "midi": 71,
                    "time": 425.6525569999926,
                    "velocity": 0.31496062992125984,
                    "duration": 0.10869574999998122
                },
                {
                    "name": "A#4",
                    "midi": 70,
                    "time": 425.7612527499926,
                    "velocity": 0.2755905511811024,
                    "duration": 0.10869574999998122
                },
                {
                    "name": "B4",
                    "midi": 71,
                    "time": 425.8699484999926,
                    "velocity": 0.31496062992125984,
                    "duration": 0.10869574999998122
                },
                {
                    "name": "A#4",
                    "midi": 70,
                    "time": 425.97864424999256,
                    "velocity": 0.28346456692913385,
                    "duration": 0.10869574999998122
                },
                {
                    "name": "B4",
                    "midi": 71,
                    "time": 426.08733999999254,
                    "velocity": 0.31496062992125984,
                    "duration": 0.10869574999998122
                },
                {
                    "name": "F#5",
                    "midi": 78,
                    "time": 426.08733999999254,
                    "velocity": 0.4881889763779528,
                    "duration": 0.43478299999992487
                },
                {
                    "name": "A#4",
                    "midi": 70,
                    "time": 426.1960357499925,
                    "velocity": 0.2677165354330709,
                    "duration": 0.10869574999998122
                },
                {
                    "name": "B4",
                    "midi": 71,
                    "time": 426.3047314999925,
                    "velocity": 0.31496062992125984,
                    "duration": 0.10869574999998122
                },
                {
                    "name": "A#4",
                    "midi": 70,
                    "time": 426.4134272499925,
                    "velocity": 0.2755905511811024,
                    "duration": 0.10869574999998122
                },
                {
                    "name": "B4",
                    "midi": 71,
                    "time": 426.52212299999246,
                    "velocity": 0.31496062992125984,
                    "duration": 0.10869574999998122
                },
                {
                    "name": "D#5",
                    "midi": 75,
                    "time": 426.52212299999246,
                    "velocity": 0.4015748031496063,
                    "duration": 0.43478299999992487
                },
                {
                    "name": "A#4",
                    "midi": 70,
                    "time": 426.63081874999244,
                    "velocity": 0.2755905511811024,
                    "duration": 0.10869574999998122
                },
                {
                    "name": "A#4",
                    "midi": 70,
                    "time": 426.7395144999924,
                    "velocity": 0.31496062992125984,
                    "duration": 0.10869574999998122
                },
                {
                    "name": "C5",
                    "midi": 72,
                    "time": 426.8482102499924,
                    "velocity": 0.28346456692913385,
                    "duration": 0.10869574999998122
                },
                {
                    "name": "D5",
                    "midi": 74,
                    "time": 426.9569059999924,
                    "velocity": 0.4094488188976378,
                    "duration": 0.8695660000001908
                },
                {
                    "name": "A#4",
                    "midi": 70,
                    "time": 426.9569059999924,
                    "velocity": 0.30708661417322836,
                    "duration": 0.07336963124998874
                },
                {
                    "name": "C5",
                    "midi": 72,
                    "time": 427.0302756312424,
                    "velocity": 0.25984251968503935,
                    "duration": 0.07246383333335871
                },
                {
                    "name": "A#4",
                    "midi": 70,
                    "time": 427.10273946457573,
                    "velocity": 0.30708661417322836,
                    "duration": 0.07336963125004559
                },
                {
                    "name": "C5",
                    "midi": 72,
                    "time": 427.1752032979091,
                    "velocity": 0.2755905511811024,
                    "duration": 0.07336963125004559
                },
                {
                    "name": "A#4",
                    "midi": 70,
                    "time": 427.24857292915914,
                    "velocity": 0.30708661417322836,
                    "duration": 0.07246383333335871
                },
                {
                    "name": "C5",
                    "midi": 72,
                    "time": 427.3210367624925,
                    "velocity": 0.2755905511811024,
                    "duration": 0.07336963124998874
                },
                {
                    "name": "A#4",
                    "midi": 70,
                    "time": 427.3916889999925,
                    "velocity": 0.31496062992125984,
                    "duration": 0.07336963124998874
                },
                {
                    "name": "C5",
                    "midi": 72,
                    "time": 427.46505863124247,
                    "velocity": 0.2755905511811024,
                    "duration": 0.07246383333335871
                },
                {
                    "name": "A#4",
                    "midi": 70,
                    "time": 427.53752246457583,
                    "velocity": 0.31496062992125984,
                    "duration": 0.07336963125004559
                },
                {
                    "name": "C5",
                    "midi": 72,
                    "time": 427.6099862979092,
                    "velocity": 0.28346456692913385,
                    "duration": 0.07336963125004559
                },
                {
                    "name": "A#4",
                    "midi": 70,
                    "time": 427.68335592915923,
                    "velocity": 0.31496062992125984,
                    "duration": 0.07246383333335871
                },
                {
                    "name": "C5",
                    "midi": 72,
                    "time": 427.7558197624926,
                    "velocity": 0.28346456692913385,
                    "duration": 0.07336963124998874
                },
                {
                    "name": "D#5",
                    "midi": 75,
                    "time": 427.8264719999926,
                    "velocity": 0.47244094488188976,
                    "duration": 0.6521745000001147
                },
                {
                    "name": "A#4",
                    "midi": 70,
                    "time": 427.8264719999926,
                    "velocity": 0.31496062992125984,
                    "duration": 0.07336963124998874
                },
                {
                    "name": "C5",
                    "midi": 72,
                    "time": 427.89984163124257,
                    "velocity": 0.2755905511811024,
                    "duration": 0.07246383333335871
                },
                {
                    "name": "A#4",
                    "midi": 70,
                    "time": 427.9723054645759,
                    "velocity": 0.3228346456692913,
                    "duration": 0.07336963125004559
                },
                {
                    "name": "C5",
                    "midi": 72,
                    "time": 428.0447692979093,
                    "velocity": 0.29133858267716534,
                    "duration": 0.07336963125004559
                },
                {
                    "name": "A#4",
                    "midi": 70,
                    "time": 428.11813892915933,
                    "velocity": 0.3228346456692913,
                    "duration": 0.07246383333335871
                },
                {
                    "name": "C5",
                    "midi": 72,
                    "time": 428.1906027624927,
                    "velocity": 0.29133858267716534,
                    "duration": 0.07336963124998874
                },
                {
                    "name": "A#4",
                    "midi": 70,
                    "time": 428.2612549999927,
                    "velocity": 0.33070866141732286,
                    "duration": 0.07336963124998874
                },
                {
                    "name": "C5",
                    "midi": 72,
                    "time": 428.33462463124266,
                    "velocity": 0.29133858267716534,
                    "duration": 0.07246383333335871
                },
                {
                    "name": "A#4",
                    "midi": 70,
                    "time": 428.407088464576,
                    "velocity": 0.33858267716535434,
                    "duration": 0.07336963125004559
                },
                {
                    "name": "G5",
                    "midi": 79,
                    "time": 428.4786464999927,
                    "velocity": 0.5118110236220472,
                    "duration": 0.21739150000007612
                },
                {
                    "name": "C5",
                    "midi": 72,
                    "time": 428.4795522979094,
                    "velocity": 0.2992125984251969,
                    "duration": 0.07336963125004559
                },
                {
                    "name": "A#4",
                    "midi": 70,
                    "time": 428.5529219291594,
                    "velocity": 0.33858267716535434,
                    "duration": 0.07246383333335871
                },
                {
                    "name": "C5",
                    "midi": 72,
                    "time": 428.6253857624928,
                    "velocity": 0.2992125984251969,
                    "duration": 0.07336963124998874
                },
                {
                    "name": "A#5",
                    "midi": 82,
                    "time": 428.69603799999277,
                    "velocity": 0.5826771653543307,
                    "duration": 0.6521745000001147
                },
                {
                    "name": "A#4",
                    "midi": 70,
                    "time": 428.69603799999277,
                    "velocity": 0.3464566929133858,
                    "duration": 0.07336963124998874
                },
                {
                    "name": "C5",
                    "midi": 72,
                    "time": 428.76940763124276,
                    "velocity": 0.29133858267716534,
                    "duration": 0.07246383333335871
                },
                {
                    "name": "A#4",
                    "midi": 70,
                    "time": 428.8418714645761,
                    "velocity": 0.3464566929133858,
                    "duration": 0.07336963125004559
                },
                {
                    "name": "C5",
                    "midi": 72,
                    "time": 428.9143352979095,
                    "velocity": 0.31496062992125984,
                    "duration": 0.07336963125004559
                },
                {
                    "name": "A#4",
                    "midi": 70,
                    "time": 428.9877049291595,
                    "velocity": 0.3543307086614173,
                    "duration": 0.07246383333335871
                },
                {
                    "name": "C5",
                    "midi": 72,
                    "time": 429.0601687624929,
                    "velocity": 0.31496062992125984,
                    "duration": 0.07336963124998874
                },
                {
                    "name": "A#4",
                    "midi": 70,
                    "time": 429.13082099999286,
                    "velocity": 0.3543307086614173,
                    "duration": 0.07336963124998874
                },
                {
                    "name": "C5",
                    "midi": 72,
                    "time": 429.20419063124285,
                    "velocity": 0.31496062992125984,
                    "duration": 0.07246383333335871
                },
                {
                    "name": "A#4",
                    "midi": 70,
                    "time": 429.2766544645762,
                    "velocity": 0.3543307086614173,
                    "duration": 0.07336963125004559
                },
                {
                    "name": "G#5",
                    "midi": 80,
                    "time": 429.3482124999929,
                    "velocity": 0.5118110236220472,
                    "duration": 0.21739150000007612
                },
                {
                    "name": "C5",
                    "midi": 72,
                    "time": 429.34911829790957,
                    "velocity": 0.31496062992125984,
                    "duration": 0.07336963125004559
                },
                {
                    "name": "A#4",
                    "midi": 70,
                    "time": 429.4224879291596,
                    "velocity": 0.3543307086614173,
                    "duration": 0.07246383333335871
                },
                {
                    "name": "C5",
                    "midi": 72,
                    "time": 429.494951762493,
                    "velocity": 0.31496062992125984,
                    "duration": 0.07336963124998874
                },
                {
                    "name": "A#4",
                    "midi": 70,
                    "time": 429.56560399999296,
                    "velocity": 0.36220472440944884,
                    "duration": 0.07336963124998874
                },
                {
                    "name": "G5",
                    "midi": 79,
                    "time": 429.56560399999296,
                    "velocity": 0.5039370078740157,
                    "duration": 0.21739150000001928
                },
                {
                    "name": "C5",
                    "midi": 72,
                    "time": 429.63897363124295,
                    "velocity": 0.31496062992125984,
                    "duration": 0.07246383333335871
                },
                {
                    "name": "A#4",
                    "midi": 70,
                    "time": 429.7114374645763,
                    "velocity": 0.3700787401574803,
                    "duration": 0.07336963125004559
                },
                {
                    "name": "F5",
                    "midi": 77,
                    "time": 429.782995499993,
                    "velocity": 0.5039370078740157,
                    "duration": 0.21739150000007612
                },
                {
                    "name": "C5",
                    "midi": 72,
                    "time": 429.78390129790967,
                    "velocity": 0.33070866141732286,
                    "duration": 0.07336963125004559
                },
                {
                    "name": "A#4",
                    "midi": 70,
                    "time": 429.8572709291597,
                    "velocity": 0.3700787401574803,
                    "duration": 0.07246383333335871
                },
                {
                    "name": "C5",
                    "midi": 72,
                    "time": 429.92973476249307,
                    "velocity": 0.33070866141732286,
                    "duration": 0.07336963124998874
                },
                {
                    "name": "A#4",
                    "midi": 70,
                    "time": 430.00038699999305,
                    "velocity": 0.3779527559055118,
                    "duration": 0.07336963124998874
                },
                {
                    "name": "D#5",
                    "midi": 75,
                    "time": 430.00038699999305,
                    "velocity": 0.5433070866141733,
                    "duration": 0.21739150000001928
                },
                {
                    "name": "C5",
                    "midi": 72,
                    "time": 430.07375663124304,
                    "velocity": 0.3228346456692913,
                    "duration": 0.07246383333335871
                },
                {
                    "name": "A#4",
                    "midi": 70,
                    "time": 430.1462204645764,
                    "velocity": 0.3779527559055118,
                    "duration": 0.07336963125004559
                },
                {
                    "name": "D5",
                    "midi": 74,
                    "time": 430.2177784999931,
                    "velocity": 0.5433070866141733,
                    "duration": 0.21739150000007612
                },
                {
                    "name": "C5",
                    "midi": 72,
                    "time": 430.21868429790976,
                    "velocity": 0.3464566929133858,
                    "duration": 0.07336963125004559
                },
                {
                    "name": "A#4",
                    "midi": 70,
                    "time": 430.2920539291598,
                    "velocity": 0.3779527559055118,
                    "duration": 0.07246383333335871
                },
                {
                    "name": "C5",
                    "midi": 72,
                    "time": 430.36451776249316,
                    "velocity": 0.33858267716535434,
                    "duration": 0.07336963124998874
                },
                {
                    "name": "D#5",
                    "midi": 75,
                    "time": 430.43516999999315,
                    "velocity": 0.5196850393700787,
                    "duration": 0.6521745000001147
                },
                {
                    "name": "A#4",
                    "midi": 70,
                    "time": 430.43516999999315,
                    "velocity": 0.33858267716535434,
                    "duration": 0.07336963124998874
                },
                {
                    "name": "C5",
                    "midi": 72,
                    "time": 430.50853963124314,
                    "velocity": 0.29133858267716534,
                    "duration": 0.07246383333335871
                },
                {
                    "name": "A#4",
                    "midi": 70,
                    "time": 430.5810034645765,
                    "velocity": 0.3464566929133858,
                    "duration": 0.07336963125004559
                },
                {
                    "name": "C5",
                    "midi": 72,
                    "time": 430.65346729790986,
                    "velocity": 0.30708661417322836,
                    "duration": 0.07336963125004559
                },
                {
                    "name": "A#4",
                    "midi": 70,
                    "time": 430.7268369291599,
                    "velocity": 0.33070866141732286,
                    "duration": 0.07246383333335871
                },
                {
                    "name": "C5",
                    "midi": 72,
                    "time": 430.79930076249326,
                    "velocity": 0.2992125984251969,
                    "duration": 0.07336963124998874
                },
                {
                    "name": "A#4",
                    "midi": 70,
                    "time": 430.86995299999325,
                    "velocity": 0.33858267716535434,
                    "duration": 0.07336963124998874
                },
                {
                    "name": "C5",
                    "midi": 72,
                    "time": 430.94332263124323,
                    "velocity": 0.28346456692913385,
                    "duration": 0.07246383333335871
                },
                {
                    "name": "A#4",
                    "midi": 70,
                    "time": 431.0157864645766,
                    "velocity": 0.33070866141732286,
                    "duration": 0.07336963125004559
                },
                {
                    "name": "D5",
                    "midi": 74,
                    "time": 431.08734449999326,
                    "velocity": 0.49606299212598426,
                    "duration": 0.21739150000007612
                },
                {
                    "name": "C5",
                    "midi": 72,
                    "time": 431.08825029790995,
                    "velocity": 0.29133858267716534,
                    "duration": 0.07336963125004559
                },
                {
                    "name": "A#4",
                    "midi": 70,
                    "time": 431.16161992916,
                    "velocity": 0.3228346456692913,
                    "duration": 0.07246383333335871
                },
                {
                    "name": "C5",
                    "midi": 72,
                    "time": 431.23408376249336,
                    "velocity": 0.28346456692913385,
                    "duration": 0.07336963124998874
                },
                {
                    "name": "F5",
                    "midi": 77,
                    "time": 431.30473599999334,
                    "velocity": 0.47244094488188976,
                    "duration": 0.21739150000001928
                },
                {
                    "name": "A#4",
                    "midi": 70,
                    "time": 431.30473599999334,
                    "velocity": 0.30708661417322836,
                    "duration": 0.07336963124998874
                },
                {
                    "name": "C5",
                    "midi": 72,
                    "time": 431.37810563124333,
                    "velocity": 0.25984251968503935,
                    "duration": 0.07246383333335871
                },
                {
                    "name": "A#4",
                    "midi": 70,
                    "time": 431.4505694645767,
                    "velocity": 0.2992125984251969,
                    "duration": 0.07336963125004559
                },
                {
                    "name": "D#5",
                    "midi": 75,
                    "time": 431.52212749999336,
                    "velocity": 0.44881889763779526,
                    "duration": 0.4347830000000954
                },
                {
                    "name": "C5",
                    "midi": 72,
                    "time": 431.52303329791005,
                    "velocity": 0.2677165354330709,
                    "duration": 0.07336963125004559
                },
                {
                    "name": "A#4",
                    "midi": 70,
                    "time": 431.5964029291601,
                    "velocity": 0.29133858267716534,
                    "duration": 0.07246383333335871
                },
                {
                    "name": "C5",
                    "midi": 72,
                    "time": 431.66886676249345,
                    "velocity": 0.25984251968503935,
                    "duration": 0.07336963124998874
                },
                {
                    "name": "A#4",
                    "midi": 70,
                    "time": 431.73951899999344,
                    "velocity": 0.29133858267716534,
                    "duration": 0.07336963124998874
                },
                {
                    "name": "C5",
                    "midi": 72,
                    "time": 431.8128886312434,
                    "velocity": 0.25196850393700787,
                    "duration": 0.07246383333335871
                },
                {
                    "name": "A#4",
                    "midi": 70,
                    "time": 431.8853524645768,
                    "velocity": 0.29133858267716534,
                    "duration": 0.07336963125004559
                },
                {
                    "name": "D5",
                    "midi": 74,
                    "time": 431.95691049999346,
                    "velocity": 0.4330708661417323,
                    "duration": 0.21739150000007612
                },
                {
                    "name": "C5",
                    "midi": 72,
                    "time": 431.95781629791014,
                    "velocity": 0.25196850393700787,
                    "duration": 0.07336963125004559
                },
                {
                    "name": "A#4",
                    "midi": 70,
                    "time": 432.0311859291602,
                    "velocity": 0.28346456692913385,
                    "duration": 0.07246383333335871
                },
                {
                    "name": "C5",
                    "midi": 72,
                    "time": 432.10364976249355,
                    "velocity": 0.2440944881889764,
                    "duration": 0.07336963124998874
                },
                {
                    "name": "A#4",
                    "midi": 70,
                    "time": 432.17430199999353,
                    "velocity": 0.3937007874015748,
                    "duration": 0.8695660000000771
                },
                {
                    "name": "D5",
                    "midi": 74,
                    "time": 432.17430199999353,
                    "velocity": 0.30708661417322836,
                    "duration": 0.055253672916649066
                },
                {
                    "name": "D#5",
                    "midi": 75,
                    "time": 432.2295556729102,
                    "velocity": 0.25984251968503935,
                    "duration": 0.05434787500001903
                },
                {
                    "name": "D5",
                    "midi": 74,
                    "time": 432.2839035479102,
                    "velocity": 0.2992125984251969,
                    "duration": 0.05434787500001903
                },
                {
                    "name": "D#5",
                    "midi": 75,
                    "time": 432.3382514229102,
                    "velocity": 0.2677165354330709,
                    "duration": 0.05525367291670591
                },
                {
                    "name": "D5",
                    "midi": 74,
                    "time": 432.39259929791024,
                    "velocity": 0.29133858267716534,
                    "duration": 0.05525367291670591
                },
                {
                    "name": "D#5",
                    "midi": 75,
                    "time": 432.44785297082694,
                    "velocity": 0.25984251968503935,
                    "duration": 0.05434787499996219
                },
                {
                    "name": "D5",
                    "midi": 74,
                    "time": 432.5003892499936,
                    "velocity": 0.29133858267716534,
                    "duration": 0.055253672916649066
                },
                {
                    "name": "D#5",
                    "midi": 75,
                    "time": 432.55564292291024,
                    "velocity": 0.25196850393700787,
                    "duration": 0.05434787500001903
                },
                {
                    "name": "D5",
                    "midi": 74,
                    "time": 432.60999079791026,
                    "velocity": 0.29133858267716534,
                    "duration": 0.05434787500001903
                },
                {
                    "name": "D#5",
                    "midi": 75,
                    "time": 432.6643386729103,
                    "velocity": 0.25196850393700787,
                    "duration": 0.05525367291670591
                },
                {
                    "name": "D5",
                    "midi": 74,
                    "time": 432.7186865479103,
                    "velocity": 0.28346456692913385,
                    "duration": 0.05525367291670591
                },
                {
                    "name": "D#5",
                    "midi": 75,
                    "time": 432.773940220827,
                    "velocity": 0.2440944881889764,
                    "duration": 0.05434787499996219
                },
                {
                    "name": "D5",
                    "midi": 74,
                    "time": 432.82647649999365,
                    "velocity": 0.29133858267716534,
                    "duration": 0.05434787499996219
                },
                {
                    "name": "D#5",
                    "midi": 75,
                    "time": 432.8871649604103,
                    "velocity": 0.25196850393700787,
                    "duration": 0.05434787500001903
                },
                {
                    "name": "D5",
                    "midi": 74,
                    "time": 432.9351722499936,
                    "velocity": 0.28346456692913385,
                    "duration": 0.05434787500001903
                },
                {
                    "name": "C5",
                    "midi": 72,
                    "time": 432.980462145827,
                    "velocity": 0.25196850393700787,
                    "duration": 0.05434787499996219
                },
                {
                    "name": "D5",
                    "midi": 74,
                    "time": 433.0438679999936,
                    "velocity": 0.3228346456692913,
                    "duration": 0.11956532499999639
                },
                {
                    "name": "D#5",
                    "midi": 75,
                    "time": 433.1525637499936,
                    "velocity": 0.29133858267716534,
                    "duration": 0.11956532500005324
                },
                {
                    "name": "D5",
                    "midi": 74,
                    "time": 433.2612594999936,
                    "velocity": 0.3228346456692913,
                    "duration": 0.11956532500005324
                },
                {
                    "name": "C5",
                    "midi": 72,
                    "time": 433.36995524999367,
                    "velocity": 0.29133858267716534,
                    "duration": 0.11956532500005324
                },
                {
                    "name": "A#4",
                    "midi": 70,
                    "time": 433.4786509999937,
                    "velocity": 0.33070866141732286,
                    "duration": 0.11956532500005324
                },
                {
                    "name": "A4",
                    "midi": 69,
                    "time": 433.58734674999374,
                    "velocity": 0.29133858267716534,
                    "duration": 0.11956532500005324
                },
                {
                    "name": "A#4",
                    "midi": 70,
                    "time": 433.6960424999938,
                    "velocity": 0.31496062992125984,
                    "duration": 0.11956532500005324
                },
                {
                    "name": "C5",
                    "midi": 72,
                    "time": 433.8047382499938,
                    "velocity": 0.29133858267716534,
                    "duration": 0.11956532500005324
                },
                {
                    "name": "D5",
                    "midi": 74,
                    "time": 433.91343399999386,
                    "velocity": 0.3228346456692913,
                    "duration": 0.11956532500005324
                },
                {
                    "name": "D#5",
                    "midi": 75,
                    "time": 434.0221297499939,
                    "velocity": 0.33070866141732286,
                    "duration": 0.11956532500005324
                },
                {
                    "name": "F5",
                    "midi": 77,
                    "time": 434.13082549999393,
                    "velocity": 0.33858267716535434,
                    "duration": 0.11956532500005324
                },
                {
                    "name": "G5",
                    "midi": 79,
                    "time": 434.23952124999397,
                    "velocity": 0.3464566929133858,
                    "duration": 0.11956532500005324
                },
                {
                    "name": "A5",
                    "midi": 81,
                    "time": 434.348216999994,
                    "velocity": 0.3543307086614173,
                    "duration": 0.11956532500005324
                },
                {
                    "name": "A#5",
                    "midi": 82,
                    "time": 434.45691274999405,
                    "velocity": 0.36220472440944884,
                    "duration": 0.11956532500005324
                },
                {
                    "name": "C6",
                    "midi": 84,
                    "time": 434.5656084999941,
                    "velocity": 0.3700787401574803,
                    "duration": 0.11956532500005324
                },
                {
                    "name": "D6",
                    "midi": 86,
                    "time": 434.6743042499941,
                    "velocity": 0.3779527559055118,
                    "duration": 0.11956532500005324
                },
                {
                    "name": "D#6",
                    "midi": 87,
                    "time": 434.78299999999416,
                    "velocity": 0.3858267716535433,
                    "duration": 0.11956532500005324
                },
                {
                    "name": "F6",
                    "midi": 89,
                    "time": 434.8916957499942,
                    "velocity": 0.36220472440944884,
                    "duration": 0.11956532500005324
                },
                {
                    "name": "D#6",
                    "midi": 87,
                    "time": 435.00039149999424,
                    "velocity": 0.3779527559055118,
                    "duration": 0.11956532500005324
                },
                {
                    "name": "D6",
                    "midi": 86,
                    "time": 435.1090872499943,
                    "velocity": 0.3700787401574803,
                    "duration": 0.11956532500005324
                },
                {
                    "name": "C6",
                    "midi": 84,
                    "time": 435.2177829999943,
                    "velocity": 0.36220472440944884,
                    "duration": 0.11956532500005324
                },
                {
                    "name": "A#5",
                    "midi": 82,
                    "time": 435.32647874999435,
                    "velocity": 0.3543307086614173,
                    "duration": 0.11956532500005324
                },
                {
                    "name": "A5",
                    "midi": 81,
                    "time": 435.4351744999944,
                    "velocity": 0.3464566929133858,
                    "duration": 0.11956532500005324
                },
                {
                    "name": "G5",
                    "midi": 79,
                    "time": 435.5438702499944,
                    "velocity": 0.33858267716535434,
                    "duration": 0.11956532500005324
                },
                {
                    "name": "F5",
                    "midi": 77,
                    "time": 435.65256599999447,
                    "velocity": 0.33070866141732286,
                    "duration": 0.11956532500005324
                },
                {
                    "name": "D#5",
                    "midi": 75,
                    "time": 435.7612617499945,
                    "velocity": 0.3228346456692913,
                    "duration": 0.11956532500005324
                },
                {
                    "name": "D5",
                    "midi": 74,
                    "time": 435.86995749999454,
                    "velocity": 0.31496062992125984,
                    "duration": 0.11956532500005324
                },
                {
                    "name": "C5",
                    "midi": 72,
                    "time": 435.9786532499946,
                    "velocity": 0.30708661417322836,
                    "duration": 0.11956532500005324
                },
                {
                    "name": "A#4",
                    "midi": 70,
                    "time": 436.0873489999946,
                    "velocity": 0.2992125984251969,
                    "duration": 0.11956532500005324
                },
                {
                    "name": "A4",
                    "midi": 69,
                    "time": 436.19604474999466,
                    "velocity": 0.29133858267716534,
                    "duration": 0.11956532500005324
                },
                {
                    "name": "G4",
                    "midi": 67,
                    "time": 436.3047404999947,
                    "velocity": 0.2755905511811024,
                    "duration": 0.11956532500005324
                },
                {
                    "name": "F4",
                    "midi": 65,
                    "time": 436.41343624999473,
                    "velocity": 0.2677165354330709,
                    "duration": 0.10869575000003806
                },
                {
                    "name": "D5",
                    "midi": 74,
                    "time": 436.52213199999477,
                    "velocity": 0.29133858267716534,
                    "duration": 0.3233698562499967
                },
                {
                    "name": "F4",
                    "midi": 65,
                    "time": 436.52213199999477,
                    "velocity": 0.2440944881889764,
                    "duration": 0.3233698562499967
                },
                {
                    "name": "F4",
                    "midi": 65,
                    "time": 436.84821924999477,
                    "velocity": 0.1968503937007874,
                    "duration": 0.10778995208335118
                },
                {
                    "name": "D5",
                    "midi": 74,
                    "time": 436.84821924999477,
                    "velocity": 0.23622047244094488,
                    "duration": 0.10778995208335118
                },
                {
                    "name": "D5",
                    "midi": 74,
                    "time": 436.9569149999948,
                    "velocity": 0.30708661417322836,
                    "duration": 0.21739150000001928
                },
                {
                    "name": "F4",
                    "midi": 65,
                    "time": 436.9569149999948,
                    "velocity": 0.25984251968503935,
                    "duration": 0.21739150000001928
                },
                {
                    "name": "D4",
                    "midi": 62,
                    "time": 437.2830022499948,
                    "velocity": 0.5590551181102362,
                    "duration": 0.10869574999998122
                },
                {
                    "name": "F4",
                    "midi": 65,
                    "time": 437.2830022499948,
                    "velocity": 0.5590551181102362,
                    "duration": 0.10869574999998122
                },
                {
                    "name": "G4",
                    "midi": 67,
                    "time": 437.2830022499948,
                    "velocity": 0.6692913385826772,
                    "duration": 0.10869574999998122
                },
                {
                    "name": "D#4",
                    "midi": 63,
                    "time": 437.3916979999948,
                    "velocity": 0.6929133858267716,
                    "duration": 0.3233698562499967
                },
                {
                    "name": "D#5",
                    "midi": 75,
                    "time": 437.3916979999948,
                    "velocity": 0.8267716535433071,
                    "duration": 0.3233698562499967
                },
                {
                    "name": "G4",
                    "midi": 67,
                    "time": 437.3916979999948,
                    "velocity": 0.6929133858267716,
                    "duration": 0.3233698562499967
                },
                {
                    "name": "D#4",
                    "midi": 63,
                    "time": 437.7177852499948,
                    "velocity": 0.4645669291338583,
                    "duration": 0.10778995208335118
                },
                {
                    "name": "G4",
                    "midi": 67,
                    "time": 437.7177852499948,
                    "velocity": 0.4645669291338583,
                    "duration": 0.10778995208335118
                },
                {
                    "name": "D#5",
                    "midi": 75,
                    "time": 437.7177852499948,
                    "velocity": 0.5669291338582677,
                    "duration": 0.10778995208335118
                },
                {
                    "name": "D#5",
                    "midi": 75,
                    "time": 437.8264809999948,
                    "velocity": 0.7401574803149606,
                    "duration": 0.21739150000001928
                },
                {
                    "name": "G4",
                    "midi": 67,
                    "time": 437.8264809999948,
                    "velocity": 0.6220472440944882,
                    "duration": 0.21739150000001928
                },
                {
                    "name": "D#4",
                    "midi": 63,
                    "time": 437.8264809999948,
                    "velocity": 0.6220472440944882,
                    "duration": 0.21739150000001928
                },
                {
                    "name": "G4",
                    "midi": 67,
                    "time": 438.15256824999483,
                    "velocity": 0.23622047244094488,
                    "duration": 0.10869574999998122
                },
                {
                    "name": "F4",
                    "midi": 65,
                    "time": 438.15256824999483,
                    "velocity": 0.1968503937007874,
                    "duration": 0.10869574999998122
                },
                {
                    "name": "G4",
                    "midi": 67,
                    "time": 438.2612639999948,
                    "velocity": 0.2440944881889764,
                    "duration": 0.3233698562499967
                },
                {
                    "name": "D#5",
                    "midi": 75,
                    "time": 438.2612639999948,
                    "velocity": 0.29133858267716534,
                    "duration": 0.3233698562499967
                },
                {
                    "name": "D#5",
                    "midi": 75,
                    "time": 438.5873512499948,
                    "velocity": 0.23622047244094488,
                    "duration": 0.10778995208335118
                },
                {
                    "name": "G4",
                    "midi": 67,
                    "time": 438.5873512499948,
                    "velocity": 0.1968503937007874,
                    "duration": 0.10778995208335118
                },
                {
                    "name": "D#5",
                    "midi": 75,
                    "time": 438.69604699999485,
                    "velocity": 0.30708661417322836,
                    "duration": 0.21739150000001928
                },
                {
                    "name": "G4",
                    "midi": 67,
                    "time": 438.69604699999485,
                    "velocity": 0.25984251968503935,
                    "duration": 0.21739150000001928
                },
                {
                    "name": "E4",
                    "midi": 64,
                    "time": 439.02213424999485,
                    "velocity": 0.5590551181102362,
                    "duration": 0.10869574999998122
                },
                {
                    "name": "G4",
                    "midi": 67,
                    "time": 439.02213424999485,
                    "velocity": 0.5590551181102362,
                    "duration": 0.10869574999998122
                },
                {
                    "name": "A4",
                    "midi": 69,
                    "time": 439.02213424999485,
                    "velocity": 0.6692913385826772,
                    "duration": 0.10869574999998122
                },
                {
                    "name": "F4",
                    "midi": 65,
                    "time": 439.13082999999483,
                    "velocity": 0.6929133858267716,
                    "duration": 0.3233698562499967
                },
                {
                    "name": "F5",
                    "midi": 77,
                    "time": 439.13082999999483,
                    "velocity": 0.8267716535433071,
                    "duration": 0.3233698562499967
                },
                {
                    "name": "A4",
                    "midi": 69,
                    "time": 439.13082999999483,
                    "velocity": 0.6929133858267716,
                    "duration": 0.3233698562499967
                },
                {
                    "name": "F5",
                    "midi": 77,
                    "time": 439.45691724999483,
                    "velocity": 0.5669291338582677,
                    "duration": 0.10778995208335118
                },
                {
                    "name": "A4",
                    "midi": 69,
                    "time": 439.45691724999483,
                    "velocity": 0.4645669291338583,
                    "duration": 0.10778995208335118
                },
                {
                    "name": "F4",
                    "midi": 65,
                    "time": 439.45691724999483,
                    "velocity": 0.4645669291338583,
                    "duration": 0.10778995208335118
                },
                {
                    "name": "A4",
                    "midi": 69,
                    "time": 439.56561299999487,
                    "velocity": 0.6220472440944882,
                    "duration": 0.21739150000001928
                },
                {
                    "name": "F5",
                    "midi": 77,
                    "time": 439.56561299999487,
                    "velocity": 0.7401574803149606,
                    "duration": 0.21739150000001928
                },
                {
                    "name": "F4",
                    "midi": 65,
                    "time": 439.56561299999487,
                    "velocity": 0.6220472440944882,
                    "duration": 0.21739150000001928
                },
                {
                    "name": "G4",
                    "midi": 67,
                    "time": 439.89170024999487,
                    "velocity": 0.1968503937007874,
                    "duration": 0.10869574999998122
                },
                {
                    "name": "A4",
                    "midi": 69,
                    "time": 439.89170024999487,
                    "velocity": 0.23622047244094488,
                    "duration": 0.10869574999998122
                },
                {
                    "name": "F5",
                    "midi": 77,
                    "time": 440.00039599999485,
                    "velocity": 0.29133858267716534,
                    "duration": 0.3233698562499967
                },
                {
                    "name": "A4",
                    "midi": 69,
                    "time": 440.00039599999485,
                    "velocity": 0.2440944881889764,
                    "duration": 0.3233698562499967
                },
                {
                    "name": "A4",
                    "midi": 69,
                    "time": 440.32648324999485,
                    "velocity": 0.1968503937007874,
                    "duration": 0.10778995208335118
                },
                {
                    "name": "F5",
                    "midi": 77,
                    "time": 440.32648324999485,
                    "velocity": 0.23622047244094488,
                    "duration": 0.10778995208335118
                },
                {
                    "name": "F5",
                    "midi": 77,
                    "time": 440.4351789999949,
                    "velocity": 0.30708661417322836,
                    "duration": 0.21739150000001928
                },
                {
                    "name": "A4",
                    "midi": 69,
                    "time": 440.4351789999949,
                    "velocity": 0.25984251968503935,
                    "duration": 0.21739150000001928
                },
                {
                    "name": "F4",
                    "midi": 65,
                    "time": 440.7612662499949,
                    "velocity": 0.5118110236220472,
                    "duration": 0.10869574999998122
                },
                {
                    "name": "G#4",
                    "midi": 68,
                    "time": 440.7612662499949,
                    "velocity": 0.5118110236220472,
                    "duration": 0.10869574999998122
                },
                {
                    "name": "A#4",
                    "midi": 70,
                    "time": 440.7612662499949,
                    "velocity": 0.6141732283464567,
                    "duration": 0.10869574999998122
                },
                {
                    "name": "G4",
                    "midi": 67,
                    "time": 440.86996199999487,
                    "velocity": 0.6299212598425197,
                    "duration": 0.3233698562499967
                },
                {
                    "name": "A#4",
                    "midi": 70,
                    "time": 440.86996199999487,
                    "velocity": 0.6299212598425197,
                    "duration": 0.3233698562499967
                },
                {
                    "name": "G5",
                    "midi": 79,
                    "time": 440.86996199999487,
                    "velocity": 0.7559055118110236,
                    "duration": 0.3233698562499967
                },
                {
                    "name": "G4",
                    "midi": 67,
                    "time": 441.19604924999487,
                    "velocity": 0.4251968503937008,
                    "duration": 0.10778995208335118
                },
                {
                    "name": "G5",
                    "midi": 79,
                    "time": 441.19604924999487,
                    "velocity": 0.5196850393700787,
                    "duration": 0.10778995208335118
                },
                {
                    "name": "A#4",
                    "midi": 70,
                    "time": 441.19604924999487,
                    "velocity": 0.4251968503937008,
                    "duration": 0.10778995208335118
                },
                {
                    "name": "G5",
                    "midi": 79,
                    "time": 441.3047449999949,
                    "velocity": 0.6771653543307087,
                    "duration": 0.21739150000001928
                },
                {
                    "name": "A#4",
                    "midi": 70,
                    "time": 441.3047449999949,
                    "velocity": 0.5669291338582677,
                    "duration": 0.21739150000001928
                },
                {
                    "name": "G4",
                    "midi": 67,
                    "time": 441.3047449999949,
                    "velocity": 0.5669291338582677,
                    "duration": 0.21739150000001928
                },
                {
                    "name": "G4",
                    "midi": 67,
                    "time": 442.50039824999493,
                    "velocity": 0.5826771653543307,
                    "duration": 0.10869574999998122
                },
                {
                    "name": "D#5",
                    "midi": 75,
                    "time": 442.50039824999493,
                    "velocity": 0.7086614173228346,
                    "duration": 0.10869574999998122
                },
                {
                    "name": "A4",
                    "midi": 69,
                    "time": 442.6090939999949,
                    "velocity": 0.7244094488188977,
                    "duration": 0.3233698562499967
                },
                {
                    "name": "C5",
                    "midi": 72,
                    "time": 442.6090939999949,
                    "velocity": 0.7244094488188977,
                    "duration": 0.3233698562499967
                },
                {
                    "name": "A5",
                    "midi": 81,
                    "time": 442.6090939999949,
                    "velocity": 0.8661417322834646,
                    "duration": 0.3233698562499967
                },
                {
                    "name": "D#5",
                    "midi": 75,
                    "time": 442.6090939999949,
                    "velocity": 0.7244094488188977,
                    "duration": 0.3233698562499967
                },
                {
                    "name": "A4",
                    "midi": 69,
                    "time": 442.9351812499949,
                    "velocity": 0.5275590551181102,
                    "duration": 0.10778995208335118
                },
                {
                    "name": "C5",
                    "midi": 72,
                    "time": 442.9351812499949,
                    "velocity": 0.5275590551181102,
                    "duration": 0.10778995208335118
                },
                {
                    "name": "D#5",
                    "midi": 75,
                    "time": 442.9351812499949,
                    "velocity": 0.5275590551181102,
                    "duration": 0.10778995208335118
                },
                {
                    "name": "A5",
                    "midi": 81,
                    "time": 442.9351812499949,
                    "velocity": 0.6456692913385826,
                    "duration": 0.10778995208335118
                },
                {
                    "name": "A5",
                    "midi": 81,
                    "time": 443.04387699999495,
                    "velocity": 0.8503937007874016,
                    "duration": 0.21739150000001928
                },
                {
                    "name": "C5",
                    "midi": 72,
                    "time": 443.04387699999495,
                    "velocity": 0.7086614173228346,
                    "duration": 0.21739150000001928
                },
                {
                    "name": "A4",
                    "midi": 69,
                    "time": 443.04387699999495,
                    "velocity": 0.7086614173228346,
                    "duration": 0.21739150000001928
                },
                {
                    "name": "D#5",
                    "midi": 75,
                    "time": 443.04387699999495,
                    "velocity": 0.7086614173228346,
                    "duration": 0.21739150000001928
                },
                {
                    "name": "D6",
                    "midi": 86,
                    "time": 444.67431324999495,
                    "velocity": 0.44881889763779526,
                    "duration": 0.10869574999998122
                },
                {
                    "name": "A#5",
                    "midi": 82,
                    "time": 444.67431324999495,
                    "velocity": 0.3700787401574803,
                    "duration": 0.10869574999998122
                },
                {
                    "name": "F5",
                    "midi": 77,
                    "time": 444.67431324999495,
                    "velocity": 0.3700787401574803,
                    "duration": 0.10869574999998122
                },
                {
                    "name": "D5",
                    "midi": 74,
                    "time": 444.67431324999495,
                    "velocity": 0.3700787401574803,
                    "duration": 0.10869574999998122
                },
                {
                    "name": "A#5",
                    "midi": 82,
                    "time": 444.78300899999493,
                    "velocity": 0.33070866141732286,
                    "duration": 0.16304362500000025
                },
                {
                    "name": "D5",
                    "midi": 74,
                    "time": 444.78300899999493,
                    "velocity": 0.33070866141732286,
                    "duration": 0.16304362500000025
                },
                {
                    "name": "D6",
                    "midi": 86,
                    "time": 444.78300899999493,
                    "velocity": 0.4015748031496063,
                    "duration": 0.16304362500000025
                },
                {
                    "name": "F5",
                    "midi": 77,
                    "time": 444.78300899999493,
                    "velocity": 0.33070866141732286,
                    "duration": 0.16304362500000025
                },
                {
                    "name": "F5",
                    "midi": 77,
                    "time": 445.00040049999495,
                    "velocity": 0.3543307086614173,
                    "duration": 0.05434787500001903
                },
                {
                    "name": "A#5",
                    "midi": 82,
                    "time": 445.00040049999495,
                    "velocity": 0.3543307086614173,
                    "duration": 0.05434787500001903
                },
                {
                    "name": "D5",
                    "midi": 74,
                    "time": 445.00040049999495,
                    "velocity": 0.3543307086614173,
                    "duration": 0.05434787500001903
                },
                {
                    "name": "D#6",
                    "midi": 87,
                    "time": 445.00040049999495,
                    "velocity": 0.4330708661417323,
                    "duration": 0.05434787500001903
                },
                {
                    "name": "A#5",
                    "midi": 82,
                    "time": 445.109096249995,
                    "velocity": 0.3700787401574803,
                    "duration": 0.05434787500001903
                },
                {
                    "name": "D6",
                    "midi": 86,
                    "time": 445.109096249995,
                    "velocity": 0.4330708661417323,
                    "duration": 0.05434787500001903
                },
                {
                    "name": "F5",
                    "midi": 77,
                    "time": 445.109096249995,
                    "velocity": 0.3700787401574803,
                    "duration": 0.05434787500001903
                },
                {
                    "name": "D5",
                    "midi": 74,
                    "time": 445.109096249995,
                    "velocity": 0.3700787401574803,
                    "duration": 0.05434787500001903
                },
                {
                    "name": "D6",
                    "midi": 86,
                    "time": 445.21779199999503,
                    "velocity": 0.4881889763779528,
                    "duration": 0.05434787500001903
                },
                {
                    "name": "F5",
                    "midi": 77,
                    "time": 445.21779199999503,
                    "velocity": 0.4015748031496063,
                    "duration": 0.05434787500001903
                },
                {
                    "name": "D5",
                    "midi": 74,
                    "time": 445.21779199999503,
                    "velocity": 0.4015748031496063,
                    "duration": 0.05434787500001903
                },
                {
                    "name": "A#5",
                    "midi": 82,
                    "time": 445.21779199999503,
                    "velocity": 0.4015748031496063,
                    "duration": 0.05434787500001903
                },
                {
                    "name": "D5",
                    "midi": 74,
                    "time": 445.43518349999505,
                    "velocity": 0.3858267716535433,
                    "duration": 0.05434787500001903
                },
                {
                    "name": "A#4",
                    "midi": 70,
                    "time": 445.43518349999505,
                    "velocity": 0.3858267716535433,
                    "duration": 0.05434787500001903
                },
                {
                    "name": "F5",
                    "midi": 77,
                    "time": 445.43518349999505,
                    "velocity": 0.3858267716535433,
                    "duration": 0.05434787500001903
                },
                {
                    "name": "A#5",
                    "midi": 82,
                    "time": 445.43518349999505,
                    "velocity": 0.4645669291338583,
                    "duration": 0.05434787500001903
                },
                {
                    "name": "F4",
                    "midi": 65,
                    "time": 445.65257499999507,
                    "velocity": 0.5984251968503937,
                    "duration": 0.05434787500001903
                },
                {
                    "name": "A#4",
                    "midi": 70,
                    "time": 445.65257499999507,
                    "velocity": 0.5984251968503937,
                    "duration": 0.05434787500001903
                },
                {
                    "name": "D4",
                    "midi": 62,
                    "time": 445.65257499999507,
                    "velocity": 0.5984251968503937,
                    "duration": 0.05434787500001903
                },
                {
                    "name": "D5",
                    "midi": 74,
                    "time": 445.65257499999507,
                    "velocity": 0.7244094488188977,
                    "duration": 0.05434787500001903
                },
                {
                    "name": "D4",
                    "midi": 62,
                    "time": 445.8699664999951,
                    "velocity": 0.5511811023622047,
                    "duration": 0.05434787500001903
                },
                {
                    "name": "F4",
                    "midi": 65,
                    "time": 445.8699664999951,
                    "velocity": 0.5511811023622047,
                    "duration": 0.05434787500001903
                },
                {
                    "name": "A#3",
                    "midi": 58,
                    "time": 445.8699664999951,
                    "velocity": 0.5511811023622047,
                    "duration": 0.05434787500001903
                },
                {
                    "name": "A#4",
                    "midi": 70,
                    "time": 445.8699664999951,
                    "velocity": 0.6614173228346457,
                    "duration": 0.05434787500001903
                },
                {
                    "name": "F5",
                    "midi": 77,
                    "time": 446.0873579999951,
                    "velocity": 0.33070866141732286,
                    "duration": 0.3233698562499967
                },
                {
                    "name": "D6",
                    "midi": 86,
                    "time": 446.0873579999951,
                    "velocity": 0.33070866141732286,
                    "duration": 0.3233698562499967
                },
                {
                    "name": "A#5",
                    "midi": 82,
                    "time": 446.0873579999951,
                    "velocity": 0.33070866141732286,
                    "duration": 0.3233698562499967
                },
                {
                    "name": "F6",
                    "midi": 89,
                    "time": 446.0873579999951,
                    "velocity": 0.4015748031496063,
                    "duration": 0.3233698562499967
                },
                {
                    "name": "D6",
                    "midi": 86,
                    "time": 446.4134452499951,
                    "velocity": 0.3700787401574803,
                    "duration": 0.10869574999998122
                },
                {
                    "name": "F5",
                    "midi": 77,
                    "time": 446.4134452499951,
                    "velocity": 0.3700787401574803,
                    "duration": 0.10869574999998122
                },
                {
                    "name": "F6",
                    "midi": 89,
                    "time": 446.4134452499951,
                    "velocity": 0.44881889763779526,
                    "duration": 0.10869574999998122
                },
                {
                    "name": "A#5",
                    "midi": 82,
                    "time": 446.4134452499951,
                    "velocity": 0.3700787401574803,
                    "duration": 0.10869574999998122
                },
                {
                    "name": "A#5",
                    "midi": 82,
                    "time": 446.5221409999951,
                    "velocity": 0.33070866141732286,
                    "duration": 0.16304362500000025
                },
                {
                    "name": "F5",
                    "midi": 77,
                    "time": 446.5221409999951,
                    "velocity": 0.33070866141732286,
                    "duration": 0.16304362500000025
                },
                {
                    "name": "D6",
                    "midi": 86,
                    "time": 446.5221409999951,
                    "velocity": 0.33070866141732286,
                    "duration": 0.16304362500000025
                },
                {
                    "name": "F6",
                    "midi": 89,
                    "time": 446.5221409999951,
                    "velocity": 0.4015748031496063,
                    "duration": 0.16304362500000025
                },
                {
                    "name": "G6",
                    "midi": 91,
                    "time": 446.7395324999951,
                    "velocity": 0.4330708661417323,
                    "duration": 0.05434787500001903
                },
                {
                    "name": "D6",
                    "midi": 86,
                    "time": 446.7395324999951,
                    "velocity": 0.3543307086614173,
                    "duration": 0.05434787500001903
                },
                {
                    "name": "F5",
                    "midi": 77,
                    "time": 446.7395324999951,
                    "velocity": 0.3543307086614173,
                    "duration": 0.05434787500001903
                },
                {
                    "name": "A#5",
                    "midi": 82,
                    "time": 446.7395324999951,
                    "velocity": 0.3543307086614173,
                    "duration": 0.05434787500001903
                },
                {
                    "name": "F5",
                    "midi": 77,
                    "time": 446.84822824999515,
                    "velocity": 0.3700787401574803,
                    "duration": 0.05434787500001903
                },
                {
                    "name": "F6",
                    "midi": 89,
                    "time": 446.84822824999515,
                    "velocity": 0.4330708661417323,
                    "duration": 0.05434787500001903
                },
                {
                    "name": "A#5",
                    "midi": 82,
                    "time": 446.84822824999515,
                    "velocity": 0.3700787401574803,
                    "duration": 0.05434787500001903
                },
                {
                    "name": "D6",
                    "midi": 86,
                    "time": 446.84822824999515,
                    "velocity": 0.3700787401574803,
                    "duration": 0.05434787500001903
                },
                {
                    "name": "F6",
                    "midi": 89,
                    "time": 446.9569239999952,
                    "velocity": 0.4881889763779528,
                    "duration": 0.05434787500001903
                },
                {
                    "name": "A#5",
                    "midi": 82,
                    "time": 446.9569239999952,
                    "velocity": 0.4015748031496063,
                    "duration": 0.05434787500001903
                },
                {
                    "name": "F5",
                    "midi": 77,
                    "time": 446.9569239999952,
                    "velocity": 0.4015748031496063,
                    "duration": 0.05434787500001903
                },
                {
                    "name": "D6",
                    "midi": 86,
                    "time": 446.9569239999952,
                    "velocity": 0.4015748031496063,
                    "duration": 0.05434787500001903
                },
                {
                    "name": "F5",
                    "midi": 77,
                    "time": 447.1743154999952,
                    "velocity": 0.3858267716535433,
                    "duration": 0.05434787500001903
                },
                {
                    "name": "D5",
                    "midi": 74,
                    "time": 447.1743154999952,
                    "velocity": 0.3858267716535433,
                    "duration": 0.05434787500001903
                },
                {
                    "name": "A#5",
                    "midi": 82,
                    "time": 447.1743154999952,
                    "velocity": 0.3858267716535433,
                    "duration": 0.05434787500001903
                },
                {
                    "name": "D6",
                    "midi": 86,
                    "time": 447.1743154999952,
                    "velocity": 0.4645669291338583,
                    "duration": 0.05434787500001903
                },
                {
                    "name": "F5",
                    "midi": 77,
                    "time": 447.3917069999952,
                    "velocity": 0.7244094488188977,
                    "duration": 0.05434787500001903
                },
                {
                    "name": "A#4",
                    "midi": 70,
                    "time": 447.3917069999952,
                    "velocity": 0.5984251968503937,
                    "duration": 0.05434787500001903
                },
                {
                    "name": "F4",
                    "midi": 65,
                    "time": 447.3917069999952,
                    "velocity": 0.5984251968503937,
                    "duration": 0.05434787500001903
                },
                {
                    "name": "D5",
                    "midi": 74,
                    "time": 447.3917069999952,
                    "velocity": 0.5984251968503937,
                    "duration": 0.05434787500001903
                },
                {
                    "name": "D5",
                    "midi": 74,
                    "time": 447.60909849999524,
                    "velocity": 0.6614173228346457,
                    "duration": 0.05434787500001903
                },
                {
                    "name": "F4",
                    "midi": 65,
                    "time": 447.60909849999524,
                    "velocity": 0.5511811023622047,
                    "duration": 0.05434787500001903
                },
                {
                    "name": "D4",
                    "midi": 62,
                    "time": 447.60909849999524,
                    "velocity": 0.5511811023622047,
                    "duration": 0.05434787500001903
                },
                {
                    "name": "A#4",
                    "midi": 70,
                    "time": 447.60909849999524,
                    "velocity": 0.5511811023622047,
                    "duration": 0.05434787500001903
                },
                {
                    "name": "F6",
                    "midi": 89,
                    "time": 447.82648999999526,
                    "velocity": 0.4330708661417323,
                    "duration": 0.05434787500001903
                },
                {
                    "name": "D6",
                    "midi": 86,
                    "time": 447.82648999999526,
                    "velocity": 0.3543307086614173,
                    "duration": 0.05434787500001903
                },
                {
                    "name": "D6",
                    "midi": 86,
                    "time": 448.0438814999953,
                    "velocity": 0.41732283464566927,
                    "duration": 0.05434787500001903
                },
                {
                    "name": "A#5",
                    "midi": 82,
                    "time": 448.0438814999953,
                    "velocity": 0.3464566929133858,
                    "duration": 0.05434787500001903
                },
                {
                    "name": "F5",
                    "midi": 77,
                    "time": 448.2612729999953,
                    "velocity": 0.7086614173228346,
                    "duration": 0.05434787500001903
                },
                {
                    "name": "D5",
                    "midi": 74,
                    "time": 448.2612729999953,
                    "velocity": 0.5826771653543307,
                    "duration": 0.05434787500001903
                },
                {
                    "name": "D5",
                    "midi": 74,
                    "time": 448.4786644999953,
                    "velocity": 0.5905511811023622,
                    "duration": 0.05434787500001903
                },
                {
                    "name": "A#4",
                    "midi": 70,
                    "time": 448.4786644999953,
                    "velocity": 0.49606299212598426,
                    "duration": 0.05434787500001903
                },
                {
                    "name": "D6",
                    "midi": 86,
                    "time": 448.69605599999534,
                    "velocity": 0.4330708661417323,
                    "duration": 0.05434787500001903
                },
                {
                    "name": "A#5",
                    "midi": 82,
                    "time": 448.69605599999534,
                    "velocity": 0.3543307086614173,
                    "duration": 0.05434787500001903
                },
                {
                    "name": "A#5",
                    "midi": 82,
                    "time": 448.91344749999536,
                    "velocity": 0.41732283464566927,
                    "duration": 0.05434787500001903
                },
                {
                    "name": "F5",
                    "midi": 77,
                    "time": 448.91344749999536,
                    "velocity": 0.3464566929133858,
                    "duration": 0.05434787500001903
                },
                {
                    "name": "D5",
                    "midi": 74,
                    "time": 449.1308389999954,
                    "velocity": 0.7086614173228346,
                    "duration": 0.05434787500001903
                },
                {
                    "name": "A#4",
                    "midi": 70,
                    "time": 449.1308389999954,
                    "velocity": 0.5826771653543307,
                    "duration": 0.05434787500001903
                },
                {
                    "name": "A#4",
                    "midi": 70,
                    "time": 449.3482304999954,
                    "velocity": 0.5905511811023622,
                    "duration": 0.05434787500001903
                },
                {
                    "name": "F4",
                    "midi": 65,
                    "time": 449.3482304999954,
                    "velocity": 0.49606299212598426,
                    "duration": 0.05434787500001903
                },
                {
                    "name": "A#5",
                    "midi": 82,
                    "time": 449.5656219999954,
                    "velocity": 0.4330708661417323,
                    "duration": 0.05434787500001903
                },
                {
                    "name": "F5",
                    "midi": 77,
                    "time": 449.5656219999954,
                    "velocity": 0.3543307086614173,
                    "duration": 0.05434787500001903
                },
                {
                    "name": "F5",
                    "midi": 77,
                    "time": 449.78301349999543,
                    "velocity": 0.41732283464566927,
                    "duration": 0.05434787500001903
                },
                {
                    "name": "D5",
                    "midi": 74,
                    "time": 449.78301349999543,
                    "velocity": 0.3464566929133858,
                    "duration": 0.05434787500001903
                },
                {
                    "name": "A#4",
                    "midi": 70,
                    "time": 450.00040499999545,
                    "velocity": 0.7086614173228346,
                    "duration": 0.05434787500001903
                },
                {
                    "name": "F4",
                    "midi": 65,
                    "time": 450.00040499999545,
                    "velocity": 0.5826771653543307,
                    "duration": 0.05434787500001903
                },
                {
                    "name": "D4",
                    "midi": 62,
                    "time": 450.2177964999955,
                    "velocity": 0.49606299212598426,
                    "duration": 0.05434787500001903
                },
                {
                    "name": "F4",
                    "midi": 65,
                    "time": 450.2177964999955,
                    "velocity": 0.5905511811023622,
                    "duration": 0.05434787500001903
                },
                {
                    "name": "A4",
                    "midi": 69,
                    "time": 450.4351879999955,
                    "velocity": 0.33070866141732286,
                    "duration": 0.8695660000000203
                },
                {
                    "name": "D#5",
                    "midi": 75,
                    "time": 450.4351879999955,
                    "velocity": 0.4094488188976378,
                    "duration": 0.8695660000000203
                },
                {
                    "name": "D5",
                    "midi": 74,
                    "time": 451.3047539999955,
                    "velocity": 0.3543307086614173,
                    "duration": 0.05434787500001903
                },
                {
                    "name": "F5",
                    "midi": 77,
                    "time": 451.3047539999955,
                    "velocity": 0.4330708661417323,
                    "duration": 0.05434787500001903
                },
                {
                    "name": "A#4",
                    "midi": 70,
                    "time": 451.52214549999553,
                    "velocity": 0.3464566929133858,
                    "duration": 0.05434787500001903
                },
                {
                    "name": "D5",
                    "midi": 74,
                    "time": 451.52214549999553,
                    "velocity": 0.41732283464566927,
                    "duration": 0.05434787500001903
                },
                {
                    "name": "D4",
                    "midi": 62,
                    "time": 451.73953699999555,
                    "velocity": 0.48031496062992124,
                    "duration": 0.05434787500001903
                },
                {
                    "name": "F4",
                    "midi": 65,
                    "time": 451.73953699999555,
                    "velocity": 0.5905511811023622,
                    "duration": 0.05434787500001903
                },
                {
                    "name": "A#3",
                    "midi": 58,
                    "time": 451.95692849999557,
                    "velocity": 0.44881889763779526,
                    "duration": 0.05434787500001903
                },
                {
                    "name": "D4",
                    "midi": 62,
                    "time": 451.95692849999557,
                    "velocity": 0.5354330708661418,
                    "duration": 0.05434787500001903
                },
                {
                    "name": "A#4",
                    "midi": 70,
                    "time": 452.1743199999956,
                    "velocity": 0.4015748031496063,
                    "duration": 0.05434787500001903
                },
                {
                    "name": "D5",
                    "midi": 74,
                    "time": 452.1743199999956,
                    "velocity": 0.4881889763779528,
                    "duration": 0.05434787500001903
                },
                {
                    "name": "F4",
                    "midi": 65,
                    "time": 452.3917114999956,
                    "velocity": 0.3858267716535433,
                    "duration": 0.05434787500001903
                },
                {
                    "name": "A#4",
                    "midi": 70,
                    "time": 452.3917114999956,
                    "velocity": 0.4645669291338583,
                    "duration": 0.05434787500001903
                },
                {
                    "name": "D4",
                    "midi": 62,
                    "time": 452.6091029999956,
                    "velocity": 0.6220472440944882,
                    "duration": 0.05434787500001903
                },
                {
                    "name": "A#3",
                    "midi": 58,
                    "time": 452.6091029999956,
                    "velocity": 0.5118110236220472,
                    "duration": 0.05434787500001903
                },
                {
                    "name": "A#3",
                    "midi": 58,
                    "time": 452.82649449999565,
                    "velocity": 0.5669291338582677,
                    "duration": 0.05434787500001903
                },
                {
                    "name": "F3",
                    "midi": 53,
                    "time": 452.82649449999565,
                    "velocity": 0.47244094488188976,
                    "duration": 0.05434787500001903
                },
                {
                    "name": "F4",
                    "midi": 65,
                    "time": 453.04388599999567,
                    "velocity": 0.4015748031496063,
                    "duration": 0.05434787500001903
                },
                {
                    "name": "A#4",
                    "midi": 70,
                    "time": 453.04388599999567,
                    "velocity": 0.4881889763779528,
                    "duration": 0.05434787500001903
                },
                {
                    "name": "D4",
                    "midi": 62,
                    "time": 453.2612774999957,
                    "velocity": 0.3858267716535433,
                    "duration": 0.05434787500001903
                },
                {
                    "name": "F4",
                    "midi": 65,
                    "time": 453.2612774999957,
                    "velocity": 0.4645669291338583,
                    "duration": 0.05434787500001903
                },
                {
                    "name": "F3",
                    "midi": 53,
                    "time": 453.4786689999957,
                    "velocity": 0.5118110236220472,
                    "duration": 0.05434787500001903
                },
                {
                    "name": "A#3",
                    "midi": 58,
                    "time": 453.4786689999957,
                    "velocity": 0.6220472440944882,
                    "duration": 0.05434787500001903
                },
                {
                    "name": "D3",
                    "midi": 50,
                    "time": 453.6960604999957,
                    "velocity": 0.47244094488188976,
                    "duration": 0.05434787500001903
                },
                {
                    "name": "F3",
                    "midi": 53,
                    "time": 453.6960604999957,
                    "velocity": 0.5669291338582677,
                    "duration": 0.05434787500001903
                },
                {
                    "name": "A3",
                    "midi": 57,
                    "time": 453.91345199999574,
                    "velocity": 0.33070866141732286,
                    "duration": 0.8695660000000203
                },
                {
                    "name": "D#4",
                    "midi": 63,
                    "time": 453.91345199999574,
                    "velocity": 0.4094488188976378,
                    "duration": 0.8695660000000203
                },
                {
                    "name": "A3",
                    "midi": 57,
                    "time": 455.10910524999576,
                    "velocity": 0.33070866141732286,
                    "duration": 0.05434787500001903
                },
                {
                    "name": "F#4",
                    "midi": 66,
                    "time": 455.10910524999576,
                    "velocity": 0.4015748031496063,
                    "duration": 0.05434787500001903
                },
                {
                    "name": "D#4",
                    "midi": 63,
                    "time": 455.10910524999576,
                    "velocity": 0.33070866141732286,
                    "duration": 0.05434787500001903
                },
                {
                    "name": "F#4",
                    "midi": 66,
                    "time": 455.2178009999958,
                    "velocity": 0.3543307086614173,
                    "duration": 0.05434787500001903
                },
                {
                    "name": "D#4",
                    "midi": 63,
                    "time": 455.2178009999958,
                    "velocity": 0.29133858267716534,
                    "duration": 0.05434787500001903
                },
                {
                    "name": "A3",
                    "midi": 57,
                    "time": 455.2178009999958,
                    "velocity": 0.29133858267716534,
                    "duration": 0.05434787500001903
                },
                {
                    "name": "A#3",
                    "midi": 58,
                    "time": 455.4351924999958,
                    "velocity": 0.31496062992125984,
                    "duration": 0.05434787500001903
                },
                {
                    "name": "F4",
                    "midi": 65,
                    "time": 455.4351924999958,
                    "velocity": 0.3858267716535433,
                    "duration": 0.05434787500001903
                },
                {
                    "name": "D4",
                    "midi": 62,
                    "time": 455.4351924999958,
                    "velocity": 0.31496062992125984,
                    "duration": 0.05434787500001903
                },
                {
                    "name": "F#3",
                    "midi": 54,
                    "time": 455.97867124999584,
                    "velocity": 0.3228346456692913,
                    "duration": 0.05434787500001903
                },
                {
                    "name": "C4",
                    "midi": 60,
                    "time": 455.97867124999584,
                    "velocity": 0.3228346456692913,
                    "duration": 0.05434787500001903
                },
                {
                    "name": "A3",
                    "midi": 57,
                    "time": 455.97867124999584,
                    "velocity": 0.3228346456692913,
                    "duration": 0.05434787500001903
                },
                {
                    "name": "D#4",
                    "midi": 63,
                    "time": 455.97867124999584,
                    "velocity": 0.3858267716535433,
                    "duration": 0.05434787500001903
                },
                {
                    "name": "F#3",
                    "midi": 54,
                    "time": 456.0873669999959,
                    "velocity": 0.2755905511811024,
                    "duration": 0.05434787500001903
                },
                {
                    "name": "A3",
                    "midi": 57,
                    "time": 456.0873669999959,
                    "velocity": 0.2755905511811024,
                    "duration": 0.05434787500001903
                },
                {
                    "name": "C4",
                    "midi": 60,
                    "time": 456.0873669999959,
                    "velocity": 0.2755905511811024,
                    "duration": 0.05434787500001903
                },
                {
                    "name": "D#4",
                    "midi": 63,
                    "time": 456.0873669999959,
                    "velocity": 0.33858267716535434,
                    "duration": 0.05434787500001903
                },
                {
                    "name": "F3",
                    "midi": 53,
                    "time": 456.3047584999959,
                    "velocity": 0.2992125984251969,
                    "duration": 0.05434787500001903
                },
                {
                    "name": "A#3",
                    "midi": 58,
                    "time": 456.3047584999959,
                    "velocity": 0.2992125984251969,
                    "duration": 0.05434787500001903
                },
                {
                    "name": "D4",
                    "midi": 62,
                    "time": 456.3047584999959,
                    "velocity": 0.36220472440944884,
                    "duration": 0.05434787500001903
                },
                {
                    "name": "D#4",
                    "midi": 63,
                    "time": 456.8482372499959,
                    "velocity": 0.36220472440944884,
                    "duration": 0.05434787500001903
                },
                {
                    "name": "F#3",
                    "midi": 54,
                    "time": 456.8482372499959,
                    "velocity": 0.2992125984251969,
                    "duration": 0.05434787500001903
                },
                {
                    "name": "A3",
                    "midi": 57,
                    "time": 456.8482372499959,
                    "velocity": 0.2992125984251969,
                    "duration": 0.05434787500001903
                },
                {
                    "name": "C4",
                    "midi": 60,
                    "time": 456.8482372499959,
                    "velocity": 0.2992125984251969,
                    "duration": 0.05434787500001903
                },
                {
                    "name": "C4",
                    "midi": 60,
                    "time": 456.95693299999596,
                    "velocity": 0.25984251968503935,
                    "duration": 0.05434787500001903
                },
                {
                    "name": "A3",
                    "midi": 57,
                    "time": 456.95693299999596,
                    "velocity": 0.25984251968503935,
                    "duration": 0.05434787500001903
                },
                {
                    "name": "D#4",
                    "midi": 63,
                    "time": 456.95693299999596,
                    "velocity": 0.31496062992125984,
                    "duration": 0.05434787500001903
                },
                {
                    "name": "F#3",
                    "midi": 54,
                    "time": 456.95693299999596,
                    "velocity": 0.25984251968503935,
                    "duration": 0.05434787500001903
                },
                {
                    "name": "D4",
                    "midi": 62,
                    "time": 457.174324499996,
                    "velocity": 0.33858267716535434,
                    "duration": 0.05434787500001903
                },
                {
                    "name": "F3",
                    "midi": 53,
                    "time": 457.174324499996,
                    "velocity": 0.2755905511811024,
                    "duration": 0.05434787500001903
                },
                {
                    "name": "A#3",
                    "midi": 58,
                    "time": 457.174324499996,
                    "velocity": 0.2755905511811024,
                    "duration": 0.05434787500001903
                },
                {
                    "name": "D#3",
                    "midi": 51,
                    "time": 457.717803249996,
                    "velocity": 0.2755905511811024,
                    "duration": 0.05434787500001903
                },
                {
                    "name": "A#3",
                    "midi": 58,
                    "time": 457.717803249996,
                    "velocity": 0.2755905511811024,
                    "duration": 0.05434787500001903
                },
                {
                    "name": "F#3",
                    "midi": 54,
                    "time": 457.717803249996,
                    "velocity": 0.2755905511811024,
                    "duration": 0.05434787500001903
                },
                {
                    "name": "C4",
                    "midi": 60,
                    "time": 457.717803249996,
                    "velocity": 0.33858267716535434,
                    "duration": 0.05434787500001903
                },
                {
                    "name": "D#3",
                    "midi": 51,
                    "time": 457.82649899999603,
                    "velocity": 0.2440944881889764,
                    "duration": 0.05434787500001903
                },
                {
                    "name": "F#3",
                    "midi": 54,
                    "time": 457.82649899999603,
                    "velocity": 0.2440944881889764,
                    "duration": 0.05434787500001903
                },
                {
                    "name": "A#3",
                    "midi": 58,
                    "time": 457.82649899999603,
                    "velocity": 0.2440944881889764,
                    "duration": 0.05434787500001903
                },
                {
                    "name": "C4",
                    "midi": 60,
                    "time": 457.82649899999603,
                    "velocity": 0.29133858267716534,
                    "duration": 0.05434787500001903
                },
                {
                    "name": "A#3",
                    "midi": 58,
                    "time": 458.04389049999605,
                    "velocity": 0.31496062992125984,
                    "duration": 0.05434787500001903
                },
                {
                    "name": "D3",
                    "midi": 50,
                    "time": 458.04389049999605,
                    "velocity": 0.25196850393700787,
                    "duration": 0.05434787500001903
                },
                {
                    "name": "F3",
                    "midi": 53,
                    "time": 458.04389049999605,
                    "velocity": 0.25196850393700787,
                    "duration": 0.05434787500001903
                },
                {
                    "name": "D3",
                    "midi": 50,
                    "time": 458.5873692499961,
                    "velocity": 0.25984251968503935,
                    "duration": 0.05434787500001903
                },
                {
                    "name": "F3",
                    "midi": 53,
                    "time": 458.5873692499961,
                    "velocity": 0.25984251968503935,
                    "duration": 0.05434787500001903
                },
                {
                    "name": "A#3",
                    "midi": 58,
                    "time": 458.5873692499961,
                    "velocity": 0.25984251968503935,
                    "duration": 0.05434787500001903
                },
                {
                    "name": "D4",
                    "midi": 62,
                    "time": 458.5873692499961,
                    "velocity": 0.31496062992125984,
                    "duration": 0.05434787500001903
                },
                {
                    "name": "F3",
                    "midi": 53,
                    "time": 458.6960649999961,
                    "velocity": 0.2283464566929134,
                    "duration": 0.05434787500001903
                },
                {
                    "name": "D3",
                    "midi": 50,
                    "time": 458.6960649999961,
                    "velocity": 0.2283464566929134,
                    "duration": 0.05434787500001903
                },
                {
                    "name": "A#3",
                    "midi": 58,
                    "time": 458.6960649999961,
                    "velocity": 0.2283464566929134,
                    "duration": 0.05434787500001903
                },
                {
                    "name": "D4",
                    "midi": 62,
                    "time": 458.6960649999961,
                    "velocity": 0.28346456692913385,
                    "duration": 0.05434787500001903
                },
                {
                    "name": "F3",
                    "midi": 53,
                    "time": 458.91345649999613,
                    "velocity": 0.25196850393700787,
                    "duration": 0.05434787500001903
                },
                {
                    "name": "D3",
                    "midi": 50,
                    "time": 458.91345649999613,
                    "velocity": 0.25196850393700787,
                    "duration": 0.05434787500001903
                },
                {
                    "name": "A#3",
                    "midi": 58,
                    "time": 458.91345649999613,
                    "velocity": 0.30708661417322836,
                    "duration": 0.05434787500001903
                },
                {
                    "name": "F3",
                    "midi": 53,
                    "time": 459.34823949999617,
                    "velocity": 0.2047244094488189,
                    "duration": 0.21739150000001928
                },
                {
                    "name": "D4",
                    "midi": 62,
                    "time": 459.34823949999617,
                    "velocity": 0.25196850393700787,
                    "duration": 0.21739150000001928
                },
                {
                    "name": "A#3",
                    "midi": 58,
                    "time": 459.34823949999617,
                    "velocity": 0.2047244094488189,
                    "duration": 0.21739150000001928
                },
                {
                    "name": "D3",
                    "midi": 50,
                    "time": 459.34823949999617,
                    "velocity": 0.2047244094488189,
                    "duration": 0.21739150000001928
                },
                {
                    "name": "F6",
                    "midi": 89,
                    "time": 460.4351969999962,
                    "velocity": 0.7874015748031497,
                    "duration": 0.21739150000001928
                },
                {
                    "name": "D6",
                    "midi": 86,
                    "time": 460.4351969999962,
                    "velocity": 0.7874015748031497,
                    "duration": 0.21739150000001928
                },
                {
                    "name": "A#5",
                    "midi": 82,
                    "time": 460.4351969999962,
                    "velocity": 0.7874015748031497,
                    "duration": 0.21739150000001928
                },
                {
                    "name": "A#6",
                    "midi": 94,
                    "time": 460.4351969999962,
                    "velocity": 0.937007874015748,
                    "duration": 0.21739150000001928
                },
                {
                    "name": "A#4",
                    "midi": 70,
                    "time": 460.86997999999625,
                    "velocity": 0.937007874015748,
                    "duration": 0.8695660000000203
                },
                {
                    "name": "A#3",
                    "midi": 58,
                    "time": 460.86997999999625,
                    "velocity": 0.7874015748031497,
                    "duration": 0.8695660000000203
                }
            ],
            "controlChanges": {},
            "id": 1,
            "name": "Piano right",
            "instrumentNumber": 0,
            "instrument": "acoustic grand piano",
            "instrumentFamily": "piano",
            "channelNumber": 0,
            "isPercussion": false
        },
        {
            "startTime": 0.7608702500000001,
            "duration": 461.73954600000076,
            "length": 3791,
            "notes": [
                {
                    "name": "A#1",
                    "midi": 34,
                    "time": 0.7608702500000001,
                    "velocity": 0.7559055118110236,
                    "duration": 0.10869574999999998
                },
                {
                    "name": "D4",
                    "midi": 62,
                    "time": 0.8695660000000001,
                    "velocity": 0.7322834645669292,
                    "duration": 0.32608725000000005
                },
                {
                    "name": "F3",
                    "midi": 53,
                    "time": 0.8695660000000001,
                    "velocity": 0.6141732283464567,
                    "duration": 0.32608725000000005
                },
                {
                    "name": "A#3",
                    "midi": 58,
                    "time": 0.8695660000000001,
                    "velocity": 0.6141732283464567,
                    "duration": 0.32608725000000005
                },
                {
                    "name": "F3",
                    "midi": 53,
                    "time": 1.1956532500000001,
                    "velocity": 0.5433070866141733,
                    "duration": 0.10869575000000009
                },
                {
                    "name": "D4",
                    "midi": 62,
                    "time": 1.1956532500000001,
                    "velocity": 0.6614173228346457,
                    "duration": 0.10869575000000009
                },
                {
                    "name": "A#3",
                    "midi": 58,
                    "time": 1.1956532500000001,
                    "velocity": 0.5433070866141733,
                    "duration": 0.10869575000000009
                },
                {
                    "name": "D4",
                    "midi": 62,
                    "time": 1.3043490000000002,
                    "velocity": 0.7322834645669292,
                    "duration": 0.16304362500000003
                },
                {
                    "name": "A#3",
                    "midi": 58,
                    "time": 1.3043490000000002,
                    "velocity": 0.6141732283464567,
                    "duration": 0.16304362500000003
                },
                {
                    "name": "F3",
                    "midi": 53,
                    "time": 1.3043490000000002,
                    "velocity": 0.6141732283464567,
                    "duration": 0.16304362500000003
                },
                {
                    "name": "D4",
                    "midi": 62,
                    "time": 1.5217405000000002,
                    "velocity": 0.6929133858267716,
                    "duration": 0.04076090625000006
                },
                {
                    "name": "A#3",
                    "midi": 58,
                    "time": 1.5217405000000002,
                    "velocity": 0.5905511811023622,
                    "duration": 0.04076090625000006
                },
                {
                    "name": "F3",
                    "midi": 53,
                    "time": 1.5217405000000002,
                    "velocity": 0.5905511811023622,
                    "duration": 0.04076090625000006
                },
                {
                    "name": "A#3",
                    "midi": 58,
                    "time": 1.6304362500000003,
                    "velocity": 0.6141732283464567,
                    "duration": 0.04076090625000006
                },
                {
                    "name": "D4",
                    "midi": 62,
                    "time": 1.6304362500000003,
                    "velocity": 0.7322834645669292,
                    "duration": 0.04076090625000006
                },
                {
                    "name": "F3",
                    "midi": 53,
                    "time": 1.6304362500000003,
                    "velocity": 0.6141732283464567,
                    "duration": 0.04076090625000006
                },
                {
                    "name": "D4",
                    "midi": 62,
                    "time": 1.7391320000000003,
                    "velocity": 0.7322834645669292,
                    "duration": 0.10869575000000009
                },
                {
                    "name": "F3",
                    "midi": 53,
                    "time": 1.7391320000000003,
                    "velocity": 0.6141732283464567,
                    "duration": 0.10869575000000009
                },
                {
                    "name": "A#3",
                    "midi": 58,
                    "time": 1.7391320000000003,
                    "velocity": 0.6141732283464567,
                    "duration": 0.10869575000000009
                },
                {
                    "name": "F3",
                    "midi": 53,
                    "time": 1.9565235000000005,
                    "velocity": 0.6141732283464567,
                    "duration": 0.10869575000000009
                },
                {
                    "name": "D3",
                    "midi": 50,
                    "time": 1.9565235000000005,
                    "velocity": 0.6141732283464567,
                    "duration": 0.10869575000000009
                },
                {
                    "name": "A#3",
                    "midi": 58,
                    "time": 1.9565235000000005,
                    "velocity": 0.7322834645669292,
                    "duration": 0.10869575000000009
                },
                {
                    "name": "A#1",
                    "midi": 34,
                    "time": 2.5000022500000005,
                    "velocity": 0.7559055118110236,
                    "duration": 0.10869574999999987
                },
                {
                    "name": "A#3",
                    "midi": 58,
                    "time": 2.6086980000000004,
                    "velocity": 0.6141732283464567,
                    "duration": 0.32608725000000005
                },
                {
                    "name": "F3",
                    "midi": 53,
                    "time": 2.6086980000000004,
                    "velocity": 0.6141732283464567,
                    "duration": 0.32608725000000005
                },
                {
                    "name": "D4",
                    "midi": 62,
                    "time": 2.6086980000000004,
                    "velocity": 0.6141732283464567,
                    "duration": 0.32608725000000005
                },
                {
                    "name": "F4",
                    "midi": 65,
                    "time": 2.6086980000000004,
                    "velocity": 0.7322834645669292,
                    "duration": 0.32608725000000005
                },
                {
                    "name": "A#3",
                    "midi": 58,
                    "time": 2.9347852500000005,
                    "velocity": 0.5433070866141733,
                    "duration": 0.10869574999999987
                },
                {
                    "name": "F3",
                    "midi": 53,
                    "time": 2.9347852500000005,
                    "velocity": 0.5433070866141733,
                    "duration": 0.10869574999999987
                },
                {
                    "name": "D4",
                    "midi": 62,
                    "time": 2.9347852500000005,
                    "velocity": 0.5433070866141733,
                    "duration": 0.10869574999999987
                },
                {
                    "name": "F4",
                    "midi": 65,
                    "time": 2.9347852500000005,
                    "velocity": 0.6614173228346457,
                    "duration": 0.10869574999999987
                },
                {
                    "name": "A#3",
                    "midi": 58,
                    "time": 3.0434810000000003,
                    "velocity": 0.6141732283464567,
                    "duration": 0.1630436249999998
                },
                {
                    "name": "F4",
                    "midi": 65,
                    "time": 3.0434810000000003,
                    "velocity": 0.7322834645669292,
                    "duration": 0.1630436249999998
                },
                {
                    "name": "D4",
                    "midi": 62,
                    "time": 3.0434810000000003,
                    "velocity": 0.6141732283464567,
                    "duration": 0.1630436249999998
                },
                {
                    "name": "F3",
                    "midi": 53,
                    "time": 3.0434810000000003,
                    "velocity": 0.6141732283464567,
                    "duration": 0.1630436249999998
                },
                {
                    "name": "D4",
                    "midi": 62,
                    "time": 3.2608725,
                    "velocity": 0.5905511811023622,
                    "duration": 0.04076090625000006
                },
                {
                    "name": "A#3",
                    "midi": 58,
                    "time": 3.2608725,
                    "velocity": 0.5905511811023622,
                    "duration": 0.04076090625000006
                },
                {
                    "name": "F4",
                    "midi": 65,
                    "time": 3.2608725,
                    "velocity": 0.6929133858267716,
                    "duration": 0.04076090625000006
                },
                {
                    "name": "F3",
                    "midi": 53,
                    "time": 3.2608725,
                    "velocity": 0.5905511811023622,
                    "duration": 0.04076090625000006
                },
                {
                    "name": "D4",
                    "midi": 62,
                    "time": 3.36956825,
                    "velocity": 0.6141732283464567,
                    "duration": 0.04076090625000006
                },
                {
                    "name": "A#3",
                    "midi": 58,
                    "time": 3.36956825,
                    "velocity": 0.6141732283464567,
                    "duration": 0.04076090625000006
                },
                {
                    "name": "F4",
                    "midi": 65,
                    "time": 3.36956825,
                    "velocity": 0.7322834645669292,
                    "duration": 0.04076090625000006
                },
                {
                    "name": "F3",
                    "midi": 53,
                    "time": 3.36956825,
                    "velocity": 0.6141732283464567,
                    "duration": 0.04076090625000006
                },
                {
                    "name": "A#3",
                    "midi": 58,
                    "time": 3.478264,
                    "velocity": 0.6141732283464567,
                    "duration": 0.10869574999999987
                },
                {
                    "name": "F4",
                    "midi": 65,
                    "time": 3.478264,
                    "velocity": 0.7322834645669292,
                    "duration": 0.10869574999999987
                },
                {
                    "name": "F3",
                    "midi": 53,
                    "time": 3.478264,
                    "velocity": 0.6141732283464567,
                    "duration": 0.10869574999999987
                },
                {
                    "name": "D4",
                    "midi": 62,
                    "time": 3.478264,
                    "velocity": 0.6141732283464567,
                    "duration": 0.10869574999999987
                },
                {
                    "name": "A#3",
                    "midi": 58,
                    "time": 3.6956554999999995,
                    "velocity": 0.6141732283464567,
                    "duration": 0.10869574999999987
                },
                {
                    "name": "D4",
                    "midi": 62,
                    "time": 3.6956554999999995,
                    "velocity": 0.7322834645669292,
                    "duration": 0.10869574999999987
                },
                {
                    "name": "F3",
                    "midi": 53,
                    "time": 3.6956554999999995,
                    "velocity": 0.6141732283464567,
                    "duration": 0.10869574999999987
                },
                {
                    "name": "E4",
                    "midi": 64,
                    "time": 4.5652215,
                    "velocity": 0.2283464566929134,
                    "duration": 0.21739149999999974
                },
                {
                    "name": "F4",
                    "midi": 65,
                    "time": 4.782613,
                    "velocity": 0.2283464566929134,
                    "duration": 0.21739149999999974
                },
                {
                    "name": "B3",
                    "midi": 59,
                    "time": 5.000004499999999,
                    "velocity": 0.31496062992125984,
                    "duration": 0.21739149999999974
                },
                {
                    "name": "C4",
                    "midi": 60,
                    "time": 5.217395999999999,
                    "velocity": 0.31496062992125984,
                    "duration": 0.21739149999999974
                },
                {
                    "name": "F#3",
                    "midi": 54,
                    "time": 5.434787499999999,
                    "velocity": 0.28346456692913385,
                    "duration": 0.21739149999999974
                },
                {
                    "name": "G3",
                    "midi": 55,
                    "time": 5.6521789999999985,
                    "velocity": 0.28346456692913385,
                    "duration": 0.21739149999999974
                },
                {
                    "name": "D#3",
                    "midi": 51,
                    "time": 5.869570499999998,
                    "velocity": 0.31496062992125984,
                    "duration": 0.21739149999999974
                },
                {
                    "name": "D3",
                    "midi": 50,
                    "time": 6.086961999999998,
                    "velocity": 0.31496062992125984,
                    "duration": 0.21739149999999974
                },
                {
                    "name": "C#3",
                    "midi": 49,
                    "time": 6.304353499999998,
                    "velocity": 0.2755905511811024,
                    "duration": 0.21739149999999974
                },
                {
                    "name": "C3",
                    "midi": 48,
                    "time": 6.5217449999999975,
                    "velocity": 0.2755905511811024,
                    "duration": 0.21739149999999974
                },
                {
                    "name": "F2",
                    "midi": 41,
                    "time": 6.739136499999997,
                    "velocity": 0.31496062992125984,
                    "duration": 0.21739149999999974
                },
                {
                    "name": "A#2",
                    "midi": 46,
                    "time": 6.956527999999997,
                    "velocity": 0.2992125984251969,
                    "duration": 0.21739149999999974
                },
                {
                    "name": "D#2",
                    "midi": 39,
                    "time": 7.173919499999997,
                    "velocity": 0.23622047244094488,
                    "duration": 0.21739149999999974
                },
                {
                    "name": "F2",
                    "midi": 41,
                    "time": 7.391310999999996,
                    "velocity": 0.2125984251968504,
                    "duration": 0.21739149999999974
                },
                {
                    "name": "E5",
                    "midi": 76,
                    "time": 8.043485499999996,
                    "velocity": 0.2283464566929134,
                    "duration": 0.21739149999999974
                },
                {
                    "name": "F5",
                    "midi": 77,
                    "time": 8.260876999999995,
                    "velocity": 0.2283464566929134,
                    "duration": 0.21739149999999974
                },
                {
                    "name": "B4",
                    "midi": 71,
                    "time": 8.478268499999995,
                    "velocity": 0.31496062992125984,
                    "duration": 0.21739149999999974
                },
                {
                    "name": "C5",
                    "midi": 72,
                    "time": 8.695659999999995,
                    "velocity": 0.31496062992125984,
                    "duration": 0.21739149999999974
                },
                {
                    "name": "F#4",
                    "midi": 66,
                    "time": 8.913051499999995,
                    "velocity": 0.28346456692913385,
                    "duration": 0.21739149999999974
                },
                {
                    "name": "G4",
                    "midi": 67,
                    "time": 9.130442999999994,
                    "velocity": 0.28346456692913385,
                    "duration": 0.21739149999999974
                },
                {
                    "name": "D#4",
                    "midi": 63,
                    "time": 9.347834499999994,
                    "velocity": 0.31496062992125984,
                    "duration": 0.21739149999999974
                },
                {
                    "name": "D4",
                    "midi": 62,
                    "time": 9.565225999999994,
                    "velocity": 0.31496062992125984,
                    "duration": 0.21739149999999974
                },
                {
                    "name": "C#4",
                    "midi": 61,
                    "time": 9.782617499999994,
                    "velocity": 0.2755905511811024,
                    "duration": 0.21739149999999974
                },
                {
                    "name": "C4",
                    "midi": 60,
                    "time": 10.000008999999993,
                    "velocity": 0.2755905511811024,
                    "duration": 0.21739149999999974
                },
                {
                    "name": "F3",
                    "midi": 53,
                    "time": 10.217400499999993,
                    "velocity": 0.31496062992125984,
                    "duration": 0.21739149999999974
                },
                {
                    "name": "A#3",
                    "midi": 58,
                    "time": 10.434791999999993,
                    "velocity": 0.28346456692913385,
                    "duration": 0.21739149999999974
                },
                {
                    "name": "F#3",
                    "midi": 54,
                    "time": 10.652183499999992,
                    "velocity": 0.33858267716535434,
                    "duration": 0.21739149999999974
                },
                {
                    "name": "F3",
                    "midi": 53,
                    "time": 10.869574999999992,
                    "velocity": 0.3464566929133858,
                    "duration": 0.21739149999999974
                },
                {
                    "name": "D#3",
                    "midi": 51,
                    "time": 11.086966499999992,
                    "velocity": 0.3543307086614173,
                    "duration": 0.21739149999999974
                },
                {
                    "name": "D3",
                    "midi": 50,
                    "time": 11.304357999999992,
                    "velocity": 0.36220472440944884,
                    "duration": 0.21739149999999974
                },
                {
                    "name": "C#3",
                    "midi": 49,
                    "time": 11.521749499999991,
                    "velocity": 0.3700787401574803,
                    "duration": 0.21739149999999974
                },
                {
                    "name": "C3",
                    "midi": 48,
                    "time": 11.739140999999991,
                    "velocity": 0.3779527559055118,
                    "duration": 0.21739149999999974
                },
                {
                    "name": "F2",
                    "midi": 41,
                    "time": 11.956532499999991,
                    "velocity": 0.3937007874015748,
                    "duration": 0.21739149999999974
                },
                {
                    "name": "A#2",
                    "midi": 46,
                    "time": 12.17392399999999,
                    "velocity": 0.3937007874015748,
                    "duration": 0.21739149999999974
                },
                {
                    "name": "F#2",
                    "midi": 42,
                    "time": 12.39131549999999,
                    "velocity": 0.4094488188976378,
                    "duration": 0.21739149999999974
                },
                {
                    "name": "F2",
                    "midi": 41,
                    "time": 12.60870699999999,
                    "velocity": 0.41732283464566927,
                    "duration": 0.21739149999999974
                },
                {
                    "name": "D#2",
                    "midi": 39,
                    "time": 12.82609849999999,
                    "velocity": 0.4251968503937008,
                    "duration": 0.21739149999999974
                },
                {
                    "name": "D2",
                    "midi": 38,
                    "time": 13.04348999999999,
                    "velocity": 0.4330708661417323,
                    "duration": 0.21739149999999974
                },
                {
                    "name": "C#2",
                    "midi": 37,
                    "time": 13.26088149999999,
                    "velocity": 0.4409448818897638,
                    "duration": 0.21739149999999974
                },
                {
                    "name": "C2",
                    "midi": 36,
                    "time": 13.478272999999989,
                    "velocity": 0.44881889763779526,
                    "duration": 0.21739149999999974
                },
                {
                    "name": "F#1",
                    "midi": 30,
                    "time": 13.695664499999989,
                    "velocity": 0.4566929133858268,
                    "duration": 0.21739149999999974
                },
                {
                    "name": "G1",
                    "midi": 31,
                    "time": 13.913055999999989,
                    "velocity": 0.5275590551181102,
                    "duration": 0.21739149999999974
                },
                {
                    "name": "D#2",
                    "midi": 39,
                    "time": 14.130447499999988,
                    "velocity": 0.48031496062992124,
                    "duration": 0.21739149999999974
                },
                {
                    "name": "F2",
                    "midi": 41,
                    "time": 14.347838999999988,
                    "velocity": 0.5511811023622047,
                    "duration": 0.10869575000000076
                },
                {
                    "name": "F1",
                    "midi": 29,
                    "time": 14.56523049999999,
                    "velocity": 0.5196850393700787,
                    "duration": 0.10869575000000076
                },
                {
                    "name": "F2",
                    "midi": 41,
                    "time": 14.56523049999999,
                    "velocity": 0.5196850393700787,
                    "duration": 0.10869575000000076
                },
                {
                    "name": "A#2",
                    "midi": 46,
                    "time": 14.782621999999991,
                    "velocity": 0.5354330708661418,
                    "duration": 0.10869575000000076
                },
                {
                    "name": "A#1",
                    "midi": 34,
                    "time": 14.782621999999991,
                    "velocity": 0.44881889763779526,
                    "duration": 0.10869575000000076
                },
                {
                    "name": "F3",
                    "midi": 53,
                    "time": 14.891317749999992,
                    "velocity": 0.3700787401574803,
                    "duration": 0.10869575000000076
                },
                {
                    "name": "A#3",
                    "midi": 58,
                    "time": 14.891317749999992,
                    "velocity": 0.3700787401574803,
                    "duration": 0.10869575000000076
                },
                {
                    "name": "D4",
                    "midi": 62,
                    "time": 14.891317749999992,
                    "velocity": 0.4409448818897638,
                    "duration": 0.10869575000000076
                },
                {
                    "name": "D4",
                    "midi": 62,
                    "time": 15.000013499999993,
                    "velocity": 0.4409448818897638,
                    "duration": 0.10869575000000076
                },
                {
                    "name": "A#3",
                    "midi": 58,
                    "time": 15.000013499999993,
                    "velocity": 0.3700787401574803,
                    "duration": 0.10869575000000076
                },
                {
                    "name": "F3",
                    "midi": 53,
                    "time": 15.000013499999993,
                    "velocity": 0.3700787401574803,
                    "duration": 0.10869575000000076
                },
                {
                    "name": "F3",
                    "midi": 53,
                    "time": 15.108709249999993,
                    "velocity": 0.3700787401574803,
                    "duration": 0.10869575000000076
                },
                {
                    "name": "D4",
                    "midi": 62,
                    "time": 15.108709249999993,
                    "velocity": 0.4409448818897638,
                    "duration": 0.10869575000000076
                },
                {
                    "name": "A#3",
                    "midi": 58,
                    "time": 15.108709249999993,
                    "velocity": 0.3700787401574803,
                    "duration": 0.10869575000000076
                },
                {
                    "name": "D4",
                    "midi": 62,
                    "time": 15.326100749999995,
                    "velocity": 0.41732283464566927,
                    "duration": 0.10869575000000076
                },
                {
                    "name": "F3",
                    "midi": 53,
                    "time": 15.326100749999995,
                    "velocity": 0.3543307086614173,
                    "duration": 0.10869575000000076
                },
                {
                    "name": "A#3",
                    "midi": 58,
                    "time": 15.326100749999995,
                    "velocity": 0.3543307086614173,
                    "duration": 0.10869575000000076
                },
                {
                    "name": "A#3",
                    "midi": 58,
                    "time": 15.434796499999996,
                    "velocity": 0.3543307086614173,
                    "duration": 0.10869575000000076
                },
                {
                    "name": "F3",
                    "midi": 53,
                    "time": 15.434796499999996,
                    "velocity": 0.3543307086614173,
                    "duration": 0.10869575000000076
                },
                {
                    "name": "D4",
                    "midi": 62,
                    "time": 15.434796499999996,
                    "velocity": 0.4251968503937008,
                    "duration": 0.10869575000000076
                },
                {
                    "name": "A#3",
                    "midi": 58,
                    "time": 15.543492249999996,
                    "velocity": 0.3543307086614173,
                    "duration": 0.10869575000000076
                },
                {
                    "name": "F3",
                    "midi": 53,
                    "time": 15.543492249999996,
                    "velocity": 0.3543307086614173,
                    "duration": 0.10869575000000076
                },
                {
                    "name": "D4",
                    "midi": 62,
                    "time": 15.543492249999996,
                    "velocity": 0.4251968503937008,
                    "duration": 0.10869575000000076
                },
                {
                    "name": "F3",
                    "midi": 53,
                    "time": 15.760883749999998,
                    "velocity": 0.29133858267716534,
                    "duration": 0.05434787499999949
                },
                {
                    "name": "A#3",
                    "midi": 58,
                    "time": 15.760883749999998,
                    "velocity": 0.29133858267716534,
                    "duration": 0.05434787499999949
                },
                {
                    "name": "D4",
                    "midi": 62,
                    "time": 15.760883749999998,
                    "velocity": 0.3464566929133858,
                    "duration": 0.05434787499999949
                },
                {
                    "name": "A#3",
                    "midi": 58,
                    "time": 15.978275249999998,
                    "velocity": 0.3464566929133858,
                    "duration": 0.05434787499999949
                },
                {
                    "name": "D3",
                    "midi": 50,
                    "time": 15.978275249999998,
                    "velocity": 0.29133858267716534,
                    "duration": 0.05434787499999949
                },
                {
                    "name": "F3",
                    "midi": 53,
                    "time": 16.195666749999997,
                    "velocity": 0.29133858267716534,
                    "duration": 0.05434787500000127
                },
                {
                    "name": "A#3",
                    "midi": 58,
                    "time": 16.195666749999997,
                    "velocity": 0.29133858267716534,
                    "duration": 0.05434787500000127
                },
                {
                    "name": "D4",
                    "midi": 62,
                    "time": 16.195666749999997,
                    "velocity": 0.3464566929133858,
                    "duration": 0.05434787500000127
                },
                {
                    "name": "C4",
                    "midi": 60,
                    "time": 16.41305825,
                    "velocity": 0.3464566929133858,
                    "duration": 0.05434787500000127
                },
                {
                    "name": "D#3",
                    "midi": 51,
                    "time": 16.41305825,
                    "velocity": 0.29133858267716534,
                    "duration": 0.05434787500000127
                },
                {
                    "name": "A#3",
                    "midi": 58,
                    "time": 16.41305825,
                    "velocity": 0.29133858267716534,
                    "duration": 0.05434787500000127
                },
                {
                    "name": "A#2",
                    "midi": 46,
                    "time": 16.521754,
                    "velocity": 0.6141732283464567,
                    "duration": 0.10869574999999898
                },
                {
                    "name": "A#1",
                    "midi": 34,
                    "time": 16.521754,
                    "velocity": 0.5118110236220472,
                    "duration": 0.10869574999999898
                },
                {
                    "name": "A#3",
                    "midi": 58,
                    "time": 16.63044975,
                    "velocity": 0.4251968503937008,
                    "duration": 0.10869574999999898
                },
                {
                    "name": "D#4",
                    "midi": 63,
                    "time": 16.63044975,
                    "velocity": 0.5039370078740157,
                    "duration": 0.10869574999999898
                },
                {
                    "name": "G3",
                    "midi": 55,
                    "time": 16.63044975,
                    "velocity": 0.4251968503937008,
                    "duration": 0.10869574999999898
                },
                {
                    "name": "D#4",
                    "midi": 63,
                    "time": 16.7391455,
                    "velocity": 0.5039370078740157,
                    "duration": 0.10869574999999898
                },
                {
                    "name": "G3",
                    "midi": 55,
                    "time": 16.7391455,
                    "velocity": 0.4251968503937008,
                    "duration": 0.10869574999999898
                },
                {
                    "name": "A#3",
                    "midi": 58,
                    "time": 16.7391455,
                    "velocity": 0.4251968503937008,
                    "duration": 0.10869574999999898
                },
                {
                    "name": "D#4",
                    "midi": 63,
                    "time": 16.84784125,
                    "velocity": 0.5039370078740157,
                    "duration": 0.10869574999999898
                },
                {
                    "name": "A#3",
                    "midi": 58,
                    "time": 16.84784125,
                    "velocity": 0.4251968503937008,
                    "duration": 0.10869574999999898
                },
                {
                    "name": "G3",
                    "midi": 55,
                    "time": 16.84784125,
                    "velocity": 0.4251968503937008,
                    "duration": 0.10869574999999898
                },
                {
                    "name": "A#3",
                    "midi": 58,
                    "time": 17.065232749999996,
                    "velocity": 0.3543307086614173,
                    "duration": 0.10869574999999898
                },
                {
                    "name": "C4",
                    "midi": 60,
                    "time": 17.065232749999996,
                    "velocity": 0.41732283464566927,
                    "duration": 0.10869574999999898
                },
                {
                    "name": "D#3",
                    "midi": 51,
                    "time": 17.065232749999996,
                    "velocity": 0.3543307086614173,
                    "duration": 0.10869574999999898
                },
                {
                    "name": "A#3",
                    "midi": 58,
                    "time": 17.173928499999995,
                    "velocity": 0.3543307086614173,
                    "duration": 0.10869574999999898
                },
                {
                    "name": "C4",
                    "midi": 60,
                    "time": 17.173928499999995,
                    "velocity": 0.4251968503937008,
                    "duration": 0.10869574999999898
                },
                {
                    "name": "D#3",
                    "midi": 51,
                    "time": 17.173928499999995,
                    "velocity": 0.3543307086614173,
                    "duration": 0.10869574999999898
                },
                {
                    "name": "C4",
                    "midi": 60,
                    "time": 17.282624249999994,
                    "velocity": 0.4251968503937008,
                    "duration": 0.10869574999999898
                },
                {
                    "name": "A#3",
                    "midi": 58,
                    "time": 17.282624249999994,
                    "velocity": 0.3543307086614173,
                    "duration": 0.10869574999999898
                },
                {
                    "name": "D#3",
                    "midi": 51,
                    "time": 17.282624249999994,
                    "velocity": 0.3543307086614173,
                    "duration": 0.10869574999999898
                },
                {
                    "name": "A#3",
                    "midi": 58,
                    "time": 17.500015749999992,
                    "velocity": 0.29133858267716534,
                    "duration": 0.05434787500000127
                },
                {
                    "name": "D#4",
                    "midi": 63,
                    "time": 17.500015749999992,
                    "velocity": 0.3464566929133858,
                    "duration": 0.05434787500000127
                },
                {
                    "name": "G3",
                    "midi": 55,
                    "time": 17.500015749999992,
                    "velocity": 0.29133858267716534,
                    "duration": 0.05434787500000127
                },
                {
                    "name": "E3",
                    "midi": 52,
                    "time": 17.717407249999994,
                    "velocity": 0.29133858267716534,
                    "duration": 0.05434787500000127
                },
                {
                    "name": "A#3",
                    "midi": 58,
                    "time": 17.717407249999994,
                    "velocity": 0.29133858267716534,
                    "duration": 0.05434787500000127
                },
                {
                    "name": "C#4",
                    "midi": 61,
                    "time": 17.717407249999994,
                    "velocity": 0.3464566929133858,
                    "duration": 0.05434787500000127
                },
                {
                    "name": "F#3",
                    "midi": 54,
                    "time": 17.934798749999995,
                    "velocity": 0.29133858267716534,
                    "duration": 0.05434787500000127
                },
                {
                    "name": "D#4",
                    "midi": 63,
                    "time": 17.934798749999995,
                    "velocity": 0.3464566929133858,
                    "duration": 0.05434787500000127
                },
                {
                    "name": "A#3",
                    "midi": 58,
                    "time": 17.934798749999995,
                    "velocity": 0.29133858267716534,
                    "duration": 0.05434787500000127
                },
                {
                    "name": "D4",
                    "midi": 62,
                    "time": 18.152190249999997,
                    "velocity": 0.3464566929133858,
                    "duration": 0.05434787500000127
                },
                {
                    "name": "F3",
                    "midi": 53,
                    "time": 18.152190249999997,
                    "velocity": 0.29133858267716534,
                    "duration": 0.05434787500000127
                },
                {
                    "name": "A#3",
                    "midi": 58,
                    "time": 18.152190249999997,
                    "velocity": 0.29133858267716534,
                    "duration": 0.05434787500000127
                },
                {
                    "name": "A#2",
                    "midi": 46,
                    "time": 18.260886,
                    "velocity": 0.5826771653543307,
                    "duration": 0.10869574999999898
                },
                {
                    "name": "A#1",
                    "midi": 34,
                    "time": 18.260886,
                    "velocity": 0.4881889763779528,
                    "duration": 0.10869574999999898
                },
                {
                    "name": "A#3",
                    "midi": 58,
                    "time": 18.36958175,
                    "velocity": 0.4015748031496063,
                    "duration": 0.10869574999999898
                },
                {
                    "name": "G#3",
                    "midi": 56,
                    "time": 18.36958175,
                    "velocity": 0.4015748031496063,
                    "duration": 0.10869574999999898
                },
                {
                    "name": "F4",
                    "midi": 65,
                    "time": 18.36958175,
                    "velocity": 0.48031496062992124,
                    "duration": 0.10869574999999898
                },
                {
                    "name": "F4",
                    "midi": 65,
                    "time": 18.478277499999997,
                    "velocity": 0.48031496062992124,
                    "duration": 0.10869574999999898
                },
                {
                    "name": "G#3",
                    "midi": 56,
                    "time": 18.478277499999997,
                    "velocity": 0.4015748031496063,
                    "duration": 0.10869574999999898
                },
                {
                    "name": "A#3",
                    "midi": 58,
                    "time": 18.478277499999997,
                    "velocity": 0.4015748031496063,
                    "duration": 0.10869574999999898
                },
                {
                    "name": "F4",
                    "midi": 65,
                    "time": 18.586973249999996,
                    "velocity": 0.48031496062992124,
                    "duration": 0.10869574999999898
                },
                {
                    "name": "G#3",
                    "midi": 56,
                    "time": 18.586973249999996,
                    "velocity": 0.4015748031496063,
                    "duration": 0.10869574999999898
                },
                {
                    "name": "A#3",
                    "midi": 58,
                    "time": 18.586973249999996,
                    "velocity": 0.4015748031496063,
                    "duration": 0.10869574999999898
                },
                {
                    "name": "A#3",
                    "midi": 58,
                    "time": 18.804364749999994,
                    "velocity": 0.3543307086614173,
                    "duration": 0.10869574999999898
                },
                {
                    "name": "F3",
                    "midi": 53,
                    "time": 18.804364749999994,
                    "velocity": 0.3543307086614173,
                    "duration": 0.10869574999999898
                },
                {
                    "name": "D4",
                    "midi": 62,
                    "time": 18.804364749999994,
                    "velocity": 0.41732283464566927,
                    "duration": 0.10869574999999898
                },
                {
                    "name": "D4",
                    "midi": 62,
                    "time": 18.913060499999993,
                    "velocity": 0.4251968503937008,
                    "duration": 0.10869574999999898
                },
                {
                    "name": "A#3",
                    "midi": 58,
                    "time": 18.913060499999993,
                    "velocity": 0.3543307086614173,
                    "duration": 0.10869574999999898
                },
                {
                    "name": "F3",
                    "midi": 53,
                    "time": 18.913060499999993,
                    "velocity": 0.3543307086614173,
                    "duration": 0.10869574999999898
                },
                {
                    "name": "A#3",
                    "midi": 58,
                    "time": 19.021756249999992,
                    "velocity": 0.3543307086614173,
                    "duration": 0.10869574999999898
                },
                {
                    "name": "D4",
                    "midi": 62,
                    "time": 19.021756249999992,
                    "velocity": 0.4251968503937008,
                    "duration": 0.10869574999999898
                },
                {
                    "name": "F3",
                    "midi": 53,
                    "time": 19.021756249999992,
                    "velocity": 0.3543307086614173,
                    "duration": 0.10869574999999898
                },
                {
                    "name": "A#3",
                    "midi": 58,
                    "time": 19.23914774999999,
                    "velocity": 0.29133858267716534,
                    "duration": 0.05434787500000127
                },
                {
                    "name": "F4",
                    "midi": 65,
                    "time": 19.23914774999999,
                    "velocity": 0.3464566929133858,
                    "duration": 0.05434787500000127
                },
                {
                    "name": "G#3",
                    "midi": 56,
                    "time": 19.23914774999999,
                    "velocity": 0.29133858267716534,
                    "duration": 0.05434787500000127
                },
                {
                    "name": "A#3",
                    "midi": 58,
                    "time": 19.45653924999999,
                    "velocity": 0.29133858267716534,
                    "duration": 0.05434787500000127
                },
                {
                    "name": "F#3",
                    "midi": 54,
                    "time": 19.45653924999999,
                    "velocity": 0.29133858267716534,
                    "duration": 0.05434787500000127
                },
                {
                    "name": "D4",
                    "midi": 62,
                    "time": 19.45653924999999,
                    "velocity": 0.3464566929133858,
                    "duration": 0.05434787500000127
                },
                {
                    "name": "A#3",
                    "midi": 58,
                    "time": 19.673930749999993,
                    "velocity": 0.29133858267716534,
                    "duration": 0.05434787500000127
                },
                {
                    "name": "F4",
                    "midi": 65,
                    "time": 19.673930749999993,
                    "velocity": 0.3464566929133858,
                    "duration": 0.05434787500000127
                },
                {
                    "name": "G#3",
                    "midi": 56,
                    "time": 19.673930749999993,
                    "velocity": 0.29133858267716534,
                    "duration": 0.05434787500000127
                },
                {
                    "name": "A#3",
                    "midi": 58,
                    "time": 19.891322249999995,
                    "velocity": 0.29133858267716534,
                    "duration": 0.05434787500000127
                },
                {
                    "name": "D#4",
                    "midi": 63,
                    "time": 19.891322249999995,
                    "velocity": 0.3464566929133858,
                    "duration": 0.05434787500000127
                },
                {
                    "name": "G3",
                    "midi": 55,
                    "time": 19.891322249999995,
                    "velocity": 0.29133858267716534,
                    "duration": 0.05434787500000127
                },
                {
                    "name": "A#2",
                    "midi": 46,
                    "time": 20.000017999999997,
                    "velocity": 0.5826771653543307,
                    "duration": 0.10869574999999898
                },
                {
                    "name": "A#1",
                    "midi": 34,
                    "time": 20.000017999999997,
                    "velocity": 0.4881889763779528,
                    "duration": 0.10869574999999898
                },
                {
                    "name": "D#4",
                    "midi": 63,
                    "time": 20.108713749999996,
                    "velocity": 0.4015748031496063,
                    "duration": 0.10869574999999898
                },
                {
                    "name": "G4",
                    "midi": 67,
                    "time": 20.108713749999996,
                    "velocity": 0.48031496062992124,
                    "duration": 0.10869574999999898
                },
                {
                    "name": "A#3",
                    "midi": 58,
                    "time": 20.108713749999996,
                    "velocity": 0.4015748031496063,
                    "duration": 0.10869574999999898
                },
                {
                    "name": "G4",
                    "midi": 67,
                    "time": 20.217409499999995,
                    "velocity": 0.48031496062992124,
                    "duration": 0.10869574999999898
                },
                {
                    "name": "A#3",
                    "midi": 58,
                    "time": 20.217409499999995,
                    "velocity": 0.4015748031496063,
                    "duration": 0.10869574999999898
                },
                {
                    "name": "D#4",
                    "midi": 63,
                    "time": 20.217409499999995,
                    "velocity": 0.4015748031496063,
                    "duration": 0.10869574999999898
                },
                {
                    "name": "G4",
                    "midi": 67,
                    "time": 20.326105249999994,
                    "velocity": 0.48031496062992124,
                    "duration": 0.10869574999999898
                },
                {
                    "name": "A#3",
                    "midi": 58,
                    "time": 20.326105249999994,
                    "velocity": 0.4015748031496063,
                    "duration": 0.10869574999999898
                },
                {
                    "name": "D#4",
                    "midi": 63,
                    "time": 20.326105249999994,
                    "velocity": 0.4015748031496063,
                    "duration": 0.10869574999999898
                },
                {
                    "name": "A#3",
                    "midi": 58,
                    "time": 20.543496749999992,
                    "velocity": 0.3543307086614173,
                    "duration": 0.10869574999999898
                },
                {
                    "name": "D#4",
                    "midi": 63,
                    "time": 20.543496749999992,
                    "velocity": 0.41732283464566927,
                    "duration": 0.10869574999999898
                },
                {
                    "name": "G3",
                    "midi": 55,
                    "time": 20.543496749999992,
                    "velocity": 0.3543307086614173,
                    "duration": 0.10869574999999898
                },
                {
                    "name": "D#4",
                    "midi": 63,
                    "time": 20.65219249999999,
                    "velocity": 0.4251968503937008,
                    "duration": 0.10869574999999898
                },
                {
                    "name": "A#3",
                    "midi": 58,
                    "time": 20.65219249999999,
                    "velocity": 0.3543307086614173,
                    "duration": 0.10869574999999898
                },
                {
                    "name": "G3",
                    "midi": 55,
                    "time": 20.65219249999999,
                    "velocity": 0.3543307086614173,
                    "duration": 0.10869574999999898
                },
                {
                    "name": "A#3",
                    "midi": 58,
                    "time": 20.76088824999999,
                    "velocity": 0.3543307086614173,
                    "duration": 0.10869574999999898
                },
                {
                    "name": "D#4",
                    "midi": 63,
                    "time": 20.76088824999999,
                    "velocity": 0.4251968503937008,
                    "duration": 0.10869574999999898
                },
                {
                    "name": "G3",
                    "midi": 55,
                    "time": 20.76088824999999,
                    "velocity": 0.3543307086614173,
                    "duration": 0.10869574999999898
                },
                {
                    "name": "A#3",
                    "midi": 58,
                    "time": 20.978279749999988,
                    "velocity": 0.25984251968503935,
                    "duration": 0.05434787500000127
                },
                {
                    "name": "G4",
                    "midi": 67,
                    "time": 20.978279749999988,
                    "velocity": 0.30708661417322836,
                    "duration": 0.05434787500000127
                },
                {
                    "name": "D#4",
                    "midi": 63,
                    "time": 20.978279749999988,
                    "velocity": 0.25984251968503935,
                    "duration": 0.05434787500000127
                },
                {
                    "name": "E4",
                    "midi": 64,
                    "time": 21.19567124999999,
                    "velocity": 0.30708661417322836,
                    "duration": 0.05434787500000127
                },
                {
                    "name": "A#3",
                    "midi": 58,
                    "time": 21.19567124999999,
                    "velocity": 0.25984251968503935,
                    "duration": 0.05434787500000127
                },
                {
                    "name": "C#4",
                    "midi": 61,
                    "time": 21.19567124999999,
                    "velocity": 0.25984251968503935,
                    "duration": 0.05434787500000127
                },
                {
                    "name": "D#4",
                    "midi": 63,
                    "time": 21.41306274999999,
                    "velocity": 0.28346456692913385,
                    "duration": 0.05434787500000127
                },
                {
                    "name": "A#3",
                    "midi": 58,
                    "time": 21.41306274999999,
                    "velocity": 0.28346456692913385,
                    "duration": 0.05434787500000127
                },
                {
                    "name": "F#4",
                    "midi": 66,
                    "time": 21.41306274999999,
                    "velocity": 0.3464566929133858,
                    "duration": 0.05434787500000127
                },
                {
                    "name": "D4",
                    "midi": 62,
                    "time": 21.630454249999993,
                    "velocity": 0.29133858267716534,
                    "duration": 0.05434787500000127
                },
                {
                    "name": "A#3",
                    "midi": 58,
                    "time": 21.630454249999993,
                    "velocity": 0.29133858267716534,
                    "duration": 0.05434787500000127
                },
                {
                    "name": "F4",
                    "midi": 65,
                    "time": 21.630454249999993,
                    "velocity": 0.3543307086614173,
                    "duration": 0.05434787500000127
                },
                {
                    "name": "A#3",
                    "midi": 58,
                    "time": 21.847845749999994,
                    "velocity": 0.30708661417322836,
                    "duration": 0.05434787500000127
                },
                {
                    "name": "F4",
                    "midi": 65,
                    "time": 21.847845749999994,
                    "velocity": 0.30708661417322836,
                    "duration": 0.05434787500000127
                },
                {
                    "name": "G#4",
                    "midi": 68,
                    "time": 21.847845749999994,
                    "velocity": 0.36220472440944884,
                    "duration": 0.05434787500000127
                },
                {
                    "name": "A#3",
                    "midi": 58,
                    "time": 22.065237249999996,
                    "velocity": 0.31496062992125984,
                    "duration": 0.05434787500000127
                },
                {
                    "name": "F#4",
                    "midi": 66,
                    "time": 22.065237249999996,
                    "velocity": 0.3779527559055118,
                    "duration": 0.05434787500000127
                },
                {
                    "name": "D4",
                    "midi": 62,
                    "time": 22.065237249999996,
                    "velocity": 0.31496062992125984,
                    "duration": 0.05434787500000127
                },
                {
                    "name": "G#4",
                    "midi": 68,
                    "time": 22.282628749999997,
                    "velocity": 0.3937007874015748,
                    "duration": 0.05434787500000127
                },
                {
                    "name": "F4",
                    "midi": 65,
                    "time": 22.282628749999997,
                    "velocity": 0.33070866141732286,
                    "duration": 0.05434787500000127
                },
                {
                    "name": "A#3",
                    "midi": 58,
                    "time": 22.282628749999997,
                    "velocity": 0.33070866141732286,
                    "duration": 0.05434787500000127
                },
                {
                    "name": "A#3",
                    "midi": 58,
                    "time": 22.50002025,
                    "velocity": 0.33858267716535434,
                    "duration": 0.05434787500000127
                },
                {
                    "name": "G4",
                    "midi": 67,
                    "time": 22.50002025,
                    "velocity": 0.4094488188976378,
                    "duration": 0.05434787500000127
                },
                {
                    "name": "D#4",
                    "midi": 63,
                    "time": 22.50002025,
                    "velocity": 0.33858267716535434,
                    "duration": 0.05434787500000127
                },
                {
                    "name": "C4",
                    "midi": 60,
                    "time": 22.71741175,
                    "velocity": 0.3543307086614173,
                    "duration": 0.05434787500000127
                },
                {
                    "name": "G4",
                    "midi": 67,
                    "time": 22.71741175,
                    "velocity": 0.41732283464566927,
                    "duration": 0.05434787500000127
                },
                {
                    "name": "D#4",
                    "midi": 63,
                    "time": 22.71741175,
                    "velocity": 0.3543307086614173,
                    "duration": 0.05434787500000127
                },
                {
                    "name": "A#3",
                    "midi": 58,
                    "time": 22.71741175,
                    "velocity": 0.3543307086614173,
                    "duration": 0.05434787500000127
                },
                {
                    "name": "G#4",
                    "midi": 68,
                    "time": 22.93480325,
                    "velocity": 0.4251968503937008,
                    "duration": 0.05434787500000127
                },
                {
                    "name": "A#3",
                    "midi": 58,
                    "time": 22.93480325,
                    "velocity": 0.3543307086614173,
                    "duration": 0.05434787500000127
                },
                {
                    "name": "D#4",
                    "midi": 63,
                    "time": 22.93480325,
                    "velocity": 0.3543307086614173,
                    "duration": 0.05434787500000127
                },
                {
                    "name": "C4",
                    "midi": 60,
                    "time": 22.93480325,
                    "velocity": 0.3543307086614173,
                    "duration": 0.05434787500000127
                },
                {
                    "name": "A#4",
                    "midi": 70,
                    "time": 23.152194750000003,
                    "velocity": 0.4409448818897638,
                    "duration": 0.05434787500000127
                },
                {
                    "name": "A#3",
                    "midi": 58,
                    "time": 23.152194750000003,
                    "velocity": 0.3700787401574803,
                    "duration": 0.05434787500000127
                },
                {
                    "name": "C4",
                    "midi": 60,
                    "time": 23.152194750000003,
                    "velocity": 0.3700787401574803,
                    "duration": 0.05434787500000127
                },
                {
                    "name": "D#4",
                    "midi": 63,
                    "time": 23.152194750000003,
                    "velocity": 0.3700787401574803,
                    "duration": 0.05434787500000127
                },
                {
                    "name": "C4",
                    "midi": 60,
                    "time": 23.369586250000005,
                    "velocity": 0.3779527559055118,
                    "duration": 0.05434787500000127
                },
                {
                    "name": "D#4",
                    "midi": 63,
                    "time": 23.369586250000005,
                    "velocity": 0.3779527559055118,
                    "duration": 0.05434787500000127
                },
                {
                    "name": "A#3",
                    "midi": 58,
                    "time": 23.369586250000005,
                    "velocity": 0.3779527559055118,
                    "duration": 0.05434787500000127
                },
                {
                    "name": "A4",
                    "midi": 69,
                    "time": 23.369586250000005,
                    "velocity": 0.4566929133858268,
                    "duration": 0.05434787500000127
                },
                {
                    "name": "C5",
                    "midi": 72,
                    "time": 23.586977750000006,
                    "velocity": 0.5196850393700787,
                    "duration": 0.05434787500000127
                },
                {
                    "name": "C4",
                    "midi": 60,
                    "time": 23.586977750000006,
                    "velocity": 0.4409448818897638,
                    "duration": 0.05434787500000127
                },
                {
                    "name": "A#4",
                    "midi": 70,
                    "time": 23.804369250000008,
                    "velocity": 0.5196850393700787,
                    "duration": 0.05434787500000127
                },
                {
                    "name": "A#3",
                    "midi": 58,
                    "time": 23.804369250000008,
                    "velocity": 0.4409448818897638,
                    "duration": 0.05434787500000127
                },
                {
                    "name": "G3",
                    "midi": 55,
                    "time": 24.02176075000001,
                    "velocity": 0.4409448818897638,
                    "duration": 0.05434787500000127
                },
                {
                    "name": "G4",
                    "midi": 67,
                    "time": 24.02176075000001,
                    "velocity": 0.5196850393700787,
                    "duration": 0.05434787500000127
                },
                {
                    "name": "F4",
                    "midi": 65,
                    "time": 24.23915225000001,
                    "velocity": 0.5196850393700787,
                    "duration": 0.05434787500000127
                },
                {
                    "name": "F3",
                    "midi": 53,
                    "time": 24.23915225000001,
                    "velocity": 0.4409448818897638,
                    "duration": 0.05434787500000127
                },
                {
                    "name": "D#3",
                    "midi": 51,
                    "time": 24.456543750000012,
                    "velocity": 0.3937007874015748,
                    "duration": 0.05434787500000127
                },
                {
                    "name": "D#4",
                    "midi": 63,
                    "time": 24.456543750000012,
                    "velocity": 0.4645669291338583,
                    "duration": 0.05434787500000127
                },
                {
                    "name": "D4",
                    "midi": 62,
                    "time": 24.673935250000014,
                    "velocity": 0.4645669291338583,
                    "duration": 0.05434787500000127
                },
                {
                    "name": "D3",
                    "midi": 50,
                    "time": 24.673935250000014,
                    "velocity": 0.3937007874015748,
                    "duration": 0.05434787500000127
                },
                {
                    "name": "C3",
                    "midi": 48,
                    "time": 24.891326750000015,
                    "velocity": 0.3937007874015748,
                    "duration": 0.05434787500000127
                },
                {
                    "name": "C4",
                    "midi": 60,
                    "time": 24.891326750000015,
                    "velocity": 0.4645669291338583,
                    "duration": 0.05434787500000127
                },
                {
                    "name": "A#3",
                    "midi": 58,
                    "time": 25.108718250000017,
                    "velocity": 0.4645669291338583,
                    "duration": 0.05434787500000127
                },
                {
                    "name": "A#2",
                    "midi": 46,
                    "time": 25.108718250000017,
                    "velocity": 0.3937007874015748,
                    "duration": 0.05434787500000127
                },
                {
                    "name": "G3",
                    "midi": 55,
                    "time": 25.32610975000002,
                    "velocity": 0.4645669291338583,
                    "duration": 0.05434787500000127
                },
                {
                    "name": "G2",
                    "midi": 43,
                    "time": 25.32610975000002,
                    "velocity": 0.3937007874015748,
                    "duration": 0.05434787500000127
                },
                {
                    "name": "F2",
                    "midi": 41,
                    "time": 25.54350125000002,
                    "velocity": 0.3937007874015748,
                    "duration": 0.05434787500000127
                },
                {
                    "name": "F3",
                    "midi": 53,
                    "time": 25.54350125000002,
                    "velocity": 0.4645669291338583,
                    "duration": 0.05434787500000127
                },
                {
                    "name": "D#2",
                    "midi": 39,
                    "time": 25.76089275000002,
                    "velocity": 0.3700787401574803,
                    "duration": 0.05434787500000127
                },
                {
                    "name": "D#3",
                    "midi": 51,
                    "time": 25.76089275000002,
                    "velocity": 0.4409448818897638,
                    "duration": 0.05434787500000127
                },
                {
                    "name": "D3",
                    "midi": 50,
                    "time": 25.978284250000023,
                    "velocity": 0.4409448818897638,
                    "duration": 0.05434787500000127
                },
                {
                    "name": "D2",
                    "midi": 38,
                    "time": 25.978284250000023,
                    "velocity": 0.3700787401574803,
                    "duration": 0.05434787500000127
                },
                {
                    "name": "C3",
                    "midi": 48,
                    "time": 26.195675750000024,
                    "velocity": 0.41732283464566927,
                    "duration": 0.05434787500000127
                },
                {
                    "name": "C2",
                    "midi": 36,
                    "time": 26.195675750000024,
                    "velocity": 0.3543307086614173,
                    "duration": 0.05434787500000127
                },
                {
                    "name": "A#1",
                    "midi": 34,
                    "time": 26.413067250000026,
                    "velocity": 0.3543307086614173,
                    "duration": 0.05434787500000127
                },
                {
                    "name": "A#2",
                    "midi": 46,
                    "time": 26.413067250000026,
                    "velocity": 0.41732283464566927,
                    "duration": 0.05434787500000127
                },
                {
                    "name": "G1",
                    "midi": 31,
                    "time": 26.630458750000027,
                    "velocity": 0.3543307086614173,
                    "duration": 0.05434787500000127
                },
                {
                    "name": "G2",
                    "midi": 43,
                    "time": 26.630458750000027,
                    "velocity": 0.41732283464566927,
                    "duration": 0.05434787500000127
                },
                {
                    "name": "F1",
                    "midi": 29,
                    "time": 26.84785025000003,
                    "velocity": 0.3543307086614173,
                    "duration": 0.05434787500000127
                },
                {
                    "name": "F2",
                    "midi": 41,
                    "time": 26.84785025000003,
                    "velocity": 0.41732283464566927,
                    "duration": 0.05434787500000127
                },
                {
                    "name": "A1",
                    "midi": 33,
                    "time": 27.06524175000003,
                    "velocity": 0.33070866141732286,
                    "duration": 0.10869574999999898
                },
                {
                    "name": "F1",
                    "midi": 29,
                    "time": 27.28263325000003,
                    "velocity": 0.2204724409448819,
                    "duration": 0.10869574999999898
                },
                {
                    "name": "C2",
                    "midi": 36,
                    "time": 27.500024750000026,
                    "velocity": 0.30708661417322836,
                    "duration": 0.10869574999999898
                },
                {
                    "name": "F1",
                    "midi": 29,
                    "time": 27.717416250000024,
                    "velocity": 0.2125984251968504,
                    "duration": 0.10869574999999898
                },
                {
                    "name": "F2",
                    "midi": 41,
                    "time": 27.934807750000022,
                    "velocity": 0.29133858267716534,
                    "duration": 0.10869574999999898
                },
                {
                    "name": "F1",
                    "midi": 29,
                    "time": 28.15219925000002,
                    "velocity": 0.2047244094488189,
                    "duration": 0.10869574999999898
                },
                {
                    "name": "A2",
                    "midi": 45,
                    "time": 28.369590750000018,
                    "velocity": 0.2677165354330709,
                    "duration": 0.10869574999999898
                },
                {
                    "name": "F1",
                    "midi": 29,
                    "time": 28.586982250000016,
                    "velocity": 0.1889763779527559,
                    "duration": 0.10869574999999898
                },
                {
                    "name": "C3",
                    "midi": 48,
                    "time": 28.804373750000014,
                    "velocity": 0.25196850393700787,
                    "duration": 0.10869574999999898
                },
                {
                    "name": "F1",
                    "midi": 29,
                    "time": 29.021765250000012,
                    "velocity": 0.18110236220472442,
                    "duration": 0.10869574999999898
                },
                {
                    "name": "F3",
                    "midi": 53,
                    "time": 29.23915675000001,
                    "velocity": 0.2283464566929134,
                    "duration": 0.10869574999999898
                },
                {
                    "name": "F1",
                    "midi": 29,
                    "time": 29.456548250000008,
                    "velocity": 0.1889763779527559,
                    "duration": 0.10869574999999898
                },
                {
                    "name": "F3",
                    "midi": 53,
                    "time": 29.673939750000006,
                    "velocity": 0.2204724409448819,
                    "duration": 0.10869574999999898
                },
                {
                    "name": "F1",
                    "midi": 29,
                    "time": 29.891331250000004,
                    "velocity": 0.16535433070866143,
                    "duration": 0.10869574999999898
                },
                {
                    "name": "F3",
                    "midi": 53,
                    "time": 30.108722750000002,
                    "velocity": 0.16535433070866143,
                    "duration": 0.10869574999999898
                },
                {
                    "name": "A#1",
                    "midi": 34,
                    "time": 30.32611425,
                    "velocity": 0.6062992125984252,
                    "duration": 0.10869574999999898
                },
                {
                    "name": "D4",
                    "midi": 62,
                    "time": 30.43481,
                    "velocity": 0.6377952755905512,
                    "duration": 0.3260872500000005
                },
                {
                    "name": "F3",
                    "midi": 53,
                    "time": 30.43481,
                    "velocity": 0.5354330708661418,
                    "duration": 0.3260872500000005
                },
                {
                    "name": "A#3",
                    "midi": 58,
                    "time": 30.43481,
                    "velocity": 0.5354330708661418,
                    "duration": 0.3260872500000005
                },
                {
                    "name": "D4",
                    "midi": 62,
                    "time": 30.76089725,
                    "velocity": 0.5748031496062992,
                    "duration": 0.10869574999999898
                },
                {
                    "name": "A#3",
                    "midi": 58,
                    "time": 30.76089725,
                    "velocity": 0.48031496062992124,
                    "duration": 0.10869574999999898
                },
                {
                    "name": "F3",
                    "midi": 53,
                    "time": 30.76089725,
                    "velocity": 0.48031496062992124,
                    "duration": 0.10869574999999898
                },
                {
                    "name": "F3",
                    "midi": 53,
                    "time": 30.869593,
                    "velocity": 0.5354330708661418,
                    "duration": 0.21739150000000151
                },
                {
                    "name": "A#3",
                    "midi": 58,
                    "time": 30.869593,
                    "velocity": 0.5354330708661418,
                    "duration": 0.21739150000000151
                },
                {
                    "name": "D4",
                    "midi": 62,
                    "time": 30.869593,
                    "velocity": 0.6377952755905512,
                    "duration": 0.21739150000000151
                },
                {
                    "name": "F3",
                    "midi": 53,
                    "time": 31.0869845,
                    "velocity": 0.5196850393700787,
                    "duration": 0.04076090625000006
                },
                {
                    "name": "D4",
                    "midi": 62,
                    "time": 31.0869845,
                    "velocity": 0.6062992125984252,
                    "duration": 0.04076090625000006
                },
                {
                    "name": "A#3",
                    "midi": 58,
                    "time": 31.0869845,
                    "velocity": 0.5196850393700787,
                    "duration": 0.04076090625000006
                },
                {
                    "name": "F3",
                    "midi": 53,
                    "time": 31.19568025,
                    "velocity": 0.5354330708661418,
                    "duration": 0.04076090625000006
                },
                {
                    "name": "D4",
                    "midi": 62,
                    "time": 31.19568025,
                    "velocity": 0.6377952755905512,
                    "duration": 0.04076090625000006
                },
                {
                    "name": "A#3",
                    "midi": 58,
                    "time": 31.19568025,
                    "velocity": 0.5354330708661418,
                    "duration": 0.04076090625000006
                },
                {
                    "name": "F3",
                    "midi": 53,
                    "time": 31.304375999999998,
                    "velocity": 0.5354330708661418,
                    "duration": 0.10869574999999898
                },
                {
                    "name": "D4",
                    "midi": 62,
                    "time": 31.304375999999998,
                    "velocity": 0.6377952755905512,
                    "duration": 0.10869574999999898
                },
                {
                    "name": "A#3",
                    "midi": 58,
                    "time": 31.304375999999998,
                    "velocity": 0.5354330708661418,
                    "duration": 0.10869574999999898
                },
                {
                    "name": "D3",
                    "midi": 50,
                    "time": 31.521767499999996,
                    "velocity": 0.5354330708661418,
                    "duration": 0.10869574999999898
                },
                {
                    "name": "A#3",
                    "midi": 58,
                    "time": 31.521767499999996,
                    "velocity": 0.6377952755905512,
                    "duration": 0.10869574999999898
                },
                {
                    "name": "F3",
                    "midi": 53,
                    "time": 31.521767499999996,
                    "velocity": 0.5354330708661418,
                    "duration": 0.10869574999999898
                },
                {
                    "name": "A#1",
                    "midi": 34,
                    "time": 32.065246249999994,
                    "velocity": 0.6614173228346457,
                    "duration": 0.10869575000000253
                },
                {
                    "name": "D4",
                    "midi": 62,
                    "time": 32.173942,
                    "velocity": 0.6377952755905512,
                    "duration": 0.3260872500000005
                },
                {
                    "name": "D3",
                    "midi": 50,
                    "time": 32.173942,
                    "velocity": 0.5354330708661418,
                    "duration": 0.3260872500000005
                },
                {
                    "name": "A#3",
                    "midi": 58,
                    "time": 32.173942,
                    "velocity": 0.5354330708661418,
                    "duration": 0.3260872500000005
                },
                {
                    "name": "F3",
                    "midi": 53,
                    "time": 32.173942,
                    "velocity": 0.5354330708661418,
                    "duration": 0.3260872500000005
                },
                {
                    "name": "A#3",
                    "midi": 58,
                    "time": 32.50002925,
                    "velocity": 0.48031496062992124,
                    "duration": 0.10869575000000253
                },
                {
                    "name": "D3",
                    "midi": 50,
                    "time": 32.50002925,
                    "velocity": 0.48031496062992124,
                    "duration": 0.10869575000000253
                },
                {
                    "name": "F3",
                    "midi": 53,
                    "time": 32.50002925,
                    "velocity": 0.48031496062992124,
                    "duration": 0.10869575000000253
                },
                {
                    "name": "D4",
                    "midi": 62,
                    "time": 32.50002925,
                    "velocity": 0.5748031496062992,
                    "duration": 0.10869575000000253
                },
                {
                    "name": "D4",
                    "midi": 62,
                    "time": 32.608725,
                    "velocity": 0.7637795275590551,
                    "duration": 0.21739149999999796
                },
                {
                    "name": "D3",
                    "midi": 50,
                    "time": 32.608725,
                    "velocity": 0.6377952755905512,
                    "duration": 0.21739149999999796
                },
                {
                    "name": "A3",
                    "midi": 57,
                    "time": 32.8261165,
                    "velocity": 0.5196850393700787,
                    "duration": 0.04076090625000006
                },
                {
                    "name": "D4",
                    "midi": 62,
                    "time": 32.8261165,
                    "velocity": 0.6062992125984252,
                    "duration": 0.04076090625000006
                },
                {
                    "name": "D3",
                    "midi": 50,
                    "time": 32.8261165,
                    "velocity": 0.5196850393700787,
                    "duration": 0.04076090625000006
                },
                {
                    "name": "F#3",
                    "midi": 54,
                    "time": 32.8261165,
                    "velocity": 0.5196850393700787,
                    "duration": 0.04076090625000006
                },
                {
                    "name": "D4",
                    "midi": 62,
                    "time": 32.93481225,
                    "velocity": 0.6377952755905512,
                    "duration": 0.04076090625000006
                },
                {
                    "name": "F#3",
                    "midi": 54,
                    "time": 32.93481225,
                    "velocity": 0.5354330708661418,
                    "duration": 0.04076090625000006
                },
                {
                    "name": "A3",
                    "midi": 57,
                    "time": 32.93481225,
                    "velocity": 0.5354330708661418,
                    "duration": 0.04076090625000006
                },
                {
                    "name": "D3",
                    "midi": 50,
                    "time": 32.93481225,
                    "velocity": 0.5354330708661418,
                    "duration": 0.04076090625000006
                },
                {
                    "name": "A3",
                    "midi": 57,
                    "time": 33.043508,
                    "velocity": 0.5354330708661418,
                    "duration": 0.10869575000000253
                },
                {
                    "name": "F#3",
                    "midi": 54,
                    "time": 33.043508,
                    "velocity": 0.5354330708661418,
                    "duration": 0.10869575000000253
                },
                {
                    "name": "D4",
                    "midi": 62,
                    "time": 33.043508,
                    "velocity": 0.6377952755905512,
                    "duration": 0.10869575000000253
                },
                {
                    "name": "D3",
                    "midi": 50,
                    "time": 33.043508,
                    "velocity": 0.5354330708661418,
                    "duration": 0.10869575000000253
                },
                {
                    "name": "A3",
                    "midi": 57,
                    "time": 33.26089950000001,
                    "velocity": 0.5354330708661418,
                    "duration": 0.10869575000000253
                },
                {
                    "name": "D3",
                    "midi": 50,
                    "time": 33.26089950000001,
                    "velocity": 0.5354330708661418,
                    "duration": 0.10869575000000253
                },
                {
                    "name": "F#3",
                    "midi": 54,
                    "time": 33.26089950000001,
                    "velocity": 0.5354330708661418,
                    "duration": 0.10869575000000253
                },
                {
                    "name": "D4",
                    "midi": 62,
                    "time": 33.26089950000001,
                    "velocity": 0.6377952755905512,
                    "duration": 0.10869575000000253
                },
                {
                    "name": "D3",
                    "midi": 50,
                    "time": 33.80437825000001,
                    "velocity": 0.30708661417322836,
                    "duration": 0.10869575000000253
                },
                {
                    "name": "D4",
                    "midi": 62,
                    "time": 33.913074000000016,
                    "velocity": 0.3543307086614173,
                    "duration": 0.3260872500000005
                },
                {
                    "name": "D3",
                    "midi": 50,
                    "time": 34.239161250000016,
                    "velocity": 0.31496062992125984,
                    "duration": 0.10869575000000253
                },
                {
                    "name": "D4",
                    "midi": 62,
                    "time": 34.34785700000002,
                    "velocity": 0.3700787401574803,
                    "duration": 0.3260872500000005
                },
                {
                    "name": "D3",
                    "midi": 50,
                    "time": 34.67394425000002,
                    "velocity": 0.33070866141732286,
                    "duration": 0.10869575000000253
                },
                {
                    "name": "D4",
                    "midi": 62,
                    "time": 34.78264000000002,
                    "velocity": 0.3858267716535433,
                    "duration": 0.3260872500000005
                },
                {
                    "name": "D3",
                    "midi": 50,
                    "time": 35.10872725000002,
                    "velocity": 0.3228346456692913,
                    "duration": 0.10869575000000253
                },
                {
                    "name": "D4",
                    "midi": 62,
                    "time": 35.217423000000025,
                    "velocity": 0.4094488188976378,
                    "duration": 0.3260872500000005
                },
                {
                    "name": "D3",
                    "midi": 50,
                    "time": 35.543510250000026,
                    "velocity": 0.3464566929133858,
                    "duration": 0.10869575000000253
                },
                {
                    "name": "A3",
                    "midi": 57,
                    "time": 35.65220600000003,
                    "velocity": 0.4330708661417323,
                    "duration": 0.3260872500000005
                },
                {
                    "name": "C4",
                    "midi": 60,
                    "time": 35.65220600000003,
                    "velocity": 0.4330708661417323,
                    "duration": 0.3260872500000005
                },
                {
                    "name": "D3",
                    "midi": 50,
                    "time": 35.97829325000003,
                    "velocity": 0.36220472440944884,
                    "duration": 0.10869575000000253
                },
                {
                    "name": "C4",
                    "midi": 60,
                    "time": 36.08698900000003,
                    "velocity": 0.4566929133858268,
                    "duration": 0.3260872500000005
                },
                {
                    "name": "A3",
                    "midi": 57,
                    "time": 36.08698900000003,
                    "velocity": 0.4566929133858268,
                    "duration": 0.3260872500000005
                },
                {
                    "name": "D3",
                    "midi": 50,
                    "time": 36.41307625000003,
                    "velocity": 0.3937007874015748,
                    "duration": 0.10869575000000253
                },
                {
                    "name": "A3",
                    "midi": 57,
                    "time": 36.521772000000034,
                    "velocity": 0.47244094488188976,
                    "duration": 0.3260872500000005
                },
                {
                    "name": "F#3",
                    "midi": 54,
                    "time": 36.521772000000034,
                    "velocity": 0.47244094488188976,
                    "duration": 0.3260872500000005
                },
                {
                    "name": "D3",
                    "midi": 50,
                    "time": 36.847859250000035,
                    "velocity": 0.4094488188976378,
                    "duration": 0.10869575000000253
                },
                {
                    "name": "A2",
                    "midi": 45,
                    "time": 36.95655500000004,
                    "velocity": 0.49606299212598426,
                    "duration": 0.3260872500000005
                },
                {
                    "name": "D3",
                    "midi": 50,
                    "time": 37.28264225000004,
                    "velocity": 0.4094488188976378,
                    "duration": 0.10869575000000253
                },
                {
                    "name": "A2",
                    "midi": 45,
                    "time": 37.39133800000004,
                    "velocity": 0.5118110236220472,
                    "duration": 0.3260872500000005
                },
                {
                    "name": "D3",
                    "midi": 50,
                    "time": 37.71742525000004,
                    "velocity": 0.44881889763779526,
                    "duration": 0.10869575000000253
                },
                {
                    "name": "G2",
                    "midi": 43,
                    "time": 37.82612100000004,
                    "velocity": 0.5354330708661418,
                    "duration": 0.3260872500000005
                },
                {
                    "name": "D3",
                    "midi": 50,
                    "time": 38.152208250000044,
                    "velocity": 0.44881889763779526,
                    "duration": 0.10869575000000253
                },
                {
                    "name": "F#2",
                    "midi": 42,
                    "time": 38.260904000000046,
                    "velocity": 0.5590551181102362,
                    "duration": 0.3260872500000005
                },
                {
                    "name": "D3",
                    "midi": 50,
                    "time": 38.58699125000005,
                    "velocity": 0.4645669291338583,
                    "duration": 0.10869575000000253
                },
                {
                    "name": "D#2",
                    "midi": 39,
                    "time": 38.69568700000005,
                    "velocity": 0.5748031496062992,
                    "duration": 0.3260872500000005
                },
                {
                    "name": "D3",
                    "midi": 50,
                    "time": 39.02177425000005,
                    "velocity": 0.5275590551181102,
                    "duration": 0.10869575000000253
                },
                {
                    "name": "D2",
                    "midi": 38,
                    "time": 39.13047000000005,
                    "velocity": 0.5275590551181102,
                    "duration": 0.21739149999999796
                },
                {
                    "name": "D3",
                    "midi": 50,
                    "time": 39.13047000000005,
                    "velocity": 0.5748031496062992,
                    "duration": 0.21739149999999796
                },
                {
                    "name": "D#5",
                    "midi": 75,
                    "time": 39.34786150000005,
                    "velocity": 0.3779527559055118,
                    "duration": 0.10869575000000253
                },
                {
                    "name": "D5",
                    "midi": 74,
                    "time": 39.45655725000005,
                    "velocity": 0.3779527559055118,
                    "duration": 0.10869575000000253
                },
                {
                    "name": "D#5",
                    "midi": 75,
                    "time": 39.565253000000055,
                    "velocity": 0.4251968503937008,
                    "duration": 0.21739149999999796
                },
                {
                    "name": "D5",
                    "midi": 74,
                    "time": 39.78264450000005,
                    "velocity": 0.3464566929133858,
                    "duration": 0.10869575000000253
                },
                {
                    "name": "C#5",
                    "midi": 73,
                    "time": 39.891340250000056,
                    "velocity": 0.3464566929133858,
                    "duration": 0.10869575000000253
                },
                {
                    "name": "D5",
                    "midi": 74,
                    "time": 40.00003600000006,
                    "velocity": 0.3464566929133858,
                    "duration": 0.21739149999999796
                },
                {
                    "name": "D#4",
                    "midi": 63,
                    "time": 40.217427500000056,
                    "velocity": 0.33858267716535434,
                    "duration": 0.10869575000000253
                },
                {
                    "name": "D4",
                    "midi": 62,
                    "time": 40.32612325000006,
                    "velocity": 0.33858267716535434,
                    "duration": 0.10869575000000253
                },
                {
                    "name": "D#4",
                    "midi": 63,
                    "time": 40.43481900000006,
                    "velocity": 0.4015748031496063,
                    "duration": 0.21739149999999796
                },
                {
                    "name": "D4",
                    "midi": 62,
                    "time": 40.65221050000006,
                    "velocity": 0.33858267716535434,
                    "duration": 0.10869575000000253
                },
                {
                    "name": "C#4",
                    "midi": 61,
                    "time": 40.76090625000006,
                    "velocity": 0.33858267716535434,
                    "duration": 0.10869575000000253
                },
                {
                    "name": "D4",
                    "midi": 62,
                    "time": 40.869602000000064,
                    "velocity": 0.4015748031496063,
                    "duration": 0.21739149999999796
                },
                {
                    "name": "D3",
                    "midi": 50,
                    "time": 41.195689250000065,
                    "velocity": 0.33070866141732286,
                    "duration": 0.10869575000000253
                },
                {
                    "name": "F#3",
                    "midi": 54,
                    "time": 41.30438500000007,
                    "velocity": 0.4015748031496063,
                    "duration": 0.21739149999999796
                },
                {
                    "name": "A3",
                    "midi": 57,
                    "time": 41.63047225000007,
                    "velocity": 0.31496062992125984,
                    "duration": 0.10869575000000253
                },
                {
                    "name": "C4",
                    "midi": 60,
                    "time": 41.73916800000007,
                    "velocity": 0.4015748031496063,
                    "duration": 0.21739149999999796
                },
                {
                    "name": "F#4",
                    "midi": 66,
                    "time": 42.06525525000007,
                    "velocity": 0.33858267716535434,
                    "duration": 0.10869575000000253
                },
                {
                    "name": "A4",
                    "midi": 69,
                    "time": 42.17395100000007,
                    "velocity": 0.4015748031496063,
                    "duration": 0.21739149999999796
                },
                {
                    "name": "C5",
                    "midi": 72,
                    "time": 42.39134250000007,
                    "velocity": 0.3543307086614173,
                    "duration": 0.10869575000000253
                },
                {
                    "name": "A4",
                    "midi": 69,
                    "time": 42.500038250000074,
                    "velocity": 0.3543307086614173,
                    "duration": 0.10869575000000253
                },
                {
                    "name": "A5",
                    "midi": 81,
                    "time": 42.60873400000008,
                    "velocity": 0.31496062992125984,
                    "duration": 0.10869575000000253
                },
                {
                    "name": "B5",
                    "midi": 83,
                    "time": 42.71742975000008,
                    "velocity": 0.31496062992125984,
                    "duration": 0.10869575000000253
                },
                {
                    "name": "C6",
                    "midi": 84,
                    "time": 42.82612550000008,
                    "velocity": 0.3464566929133858,
                    "duration": 0.10869575000000253
                },
                {
                    "name": "A5",
                    "midi": 81,
                    "time": 42.934821250000084,
                    "velocity": 0.31496062992125984,
                    "duration": 0.10869575000000253
                },
                {
                    "name": "C5",
                    "midi": 72,
                    "time": 43.04351700000009,
                    "velocity": 0.31496062992125984,
                    "duration": 0.10869575000000253
                },
                {
                    "name": "D5",
                    "midi": 74,
                    "time": 43.15221275000009,
                    "velocity": 0.31496062992125984,
                    "duration": 0.10869575000000253
                },
                {
                    "name": "E5",
                    "midi": 76,
                    "time": 43.26090850000009,
                    "velocity": 0.3543307086614173,
                    "duration": 0.10869575000000253
                },
                {
                    "name": "C5",
                    "midi": 72,
                    "time": 43.369604250000094,
                    "velocity": 0.31496062992125984,
                    "duration": 0.10869575000000253
                },
                {
                    "name": "A4",
                    "midi": 69,
                    "time": 43.4783000000001,
                    "velocity": 0.31496062992125984,
                    "duration": 0.10869575000000253
                },
                {
                    "name": "B4",
                    "midi": 71,
                    "time": 43.5869957500001,
                    "velocity": 0.31496062992125984,
                    "duration": 0.10869575000000253
                },
                {
                    "name": "C5",
                    "midi": 72,
                    "time": 43.6956915000001,
                    "velocity": 0.3543307086614173,
                    "duration": 0.10869575000000253
                },
                {
                    "name": "A4",
                    "midi": 69,
                    "time": 43.804387250000104,
                    "velocity": 0.31496062992125984,
                    "duration": 0.1068841541666643
                },
                {
                    "name": "F#4",
                    "midi": 66,
                    "time": 43.9130830000001,
                    "velocity": 0.31496062992125984,
                    "duration": 0.10869575000000253
                },
                {
                    "name": "G4",
                    "midi": 67,
                    "time": 44.0217787500001,
                    "velocity": 0.31496062992125984,
                    "duration": 0.10869575000000253
                },
                {
                    "name": "A4",
                    "midi": 69,
                    "time": 44.130474500000105,
                    "velocity": 0.3543307086614173,
                    "duration": 0.10869575000000253
                },
                {
                    "name": "F#4",
                    "midi": 66,
                    "time": 44.23917025000011,
                    "velocity": 0.31496062992125984,
                    "duration": 0.10869575000000253
                },
                {
                    "name": "B4",
                    "midi": 71,
                    "time": 44.34786600000011,
                    "velocity": 0.4015748031496063,
                    "duration": 0.21739149999999796
                },
                {
                    "name": "D4",
                    "midi": 62,
                    "time": 44.34786600000011,
                    "velocity": 0.3779527559055118,
                    "duration": 0.21739149999999796
                },
                {
                    "name": "G4",
                    "midi": 67,
                    "time": 44.34786600000011,
                    "velocity": 0.3779527559055118,
                    "duration": 0.21739149999999796
                },
                {
                    "name": "D3",
                    "midi": 50,
                    "time": 44.67395325000011,
                    "velocity": 0.33070866141732286,
                    "duration": 0.10869575000000253
                },
                {
                    "name": "G3",
                    "midi": 55,
                    "time": 44.78264900000011,
                    "velocity": 0.4015748031496063,
                    "duration": 0.21739149999999796
                },
                {
                    "name": "B3",
                    "midi": 59,
                    "time": 45.10873625000011,
                    "velocity": 0.31496062992125984,
                    "duration": 0.10869575000000253
                },
                {
                    "name": "D4",
                    "midi": 62,
                    "time": 45.217432000000116,
                    "velocity": 0.4015748031496063,
                    "duration": 0.21739149999999796
                },
                {
                    "name": "G4",
                    "midi": 67,
                    "time": 45.54351925000012,
                    "velocity": 0.33858267716535434,
                    "duration": 0.10869575000000253
                },
                {
                    "name": "B4",
                    "midi": 71,
                    "time": 45.65221500000012,
                    "velocity": 0.4015748031496063,
                    "duration": 0.21739149999999796
                },
                {
                    "name": "D5",
                    "midi": 74,
                    "time": 45.97830225000012,
                    "velocity": 0.3543307086614173,
                    "duration": 0.10869575000000253
                },
                {
                    "name": "G5",
                    "midi": 79,
                    "time": 46.08699800000012,
                    "velocity": 0.31496062992125984,
                    "duration": 0.10869575000000253
                },
                {
                    "name": "A5",
                    "midi": 81,
                    "time": 46.195693750000125,
                    "velocity": 0.31496062992125984,
                    "duration": 0.10869575000000253
                },
                {
                    "name": "B5",
                    "midi": 83,
                    "time": 46.30438950000013,
                    "velocity": 0.3464566929133858,
                    "duration": 0.10869575000000253
                },
                {
                    "name": "G5",
                    "midi": 79,
                    "time": 46.41308525000013,
                    "velocity": 0.31496062992125984,
                    "duration": 0.1068841541666643
                },
                {
                    "name": "B4",
                    "midi": 71,
                    "time": 46.521781000000125,
                    "velocity": 0.31496062992125984,
                    "duration": 0.10869575000000253
                },
                {
                    "name": "C5",
                    "midi": 72,
                    "time": 46.63047675000013,
                    "velocity": 0.31496062992125984,
                    "duration": 0.10869575000000253
                },
                {
                    "name": "D5",
                    "midi": 74,
                    "time": 46.73917250000013,
                    "velocity": 0.3543307086614173,
                    "duration": 0.10869575000000253
                },
                {
                    "name": "B4",
                    "midi": 71,
                    "time": 46.84786825000013,
                    "velocity": 0.31496062992125984,
                    "duration": 0.10869575000000253
                },
                {
                    "name": "G4",
                    "midi": 67,
                    "time": 46.956564000000135,
                    "velocity": 0.31496062992125984,
                    "duration": 0.10869575000000253
                },
                {
                    "name": "A4",
                    "midi": 69,
                    "time": 47.06525975000014,
                    "velocity": 0.31496062992125984,
                    "duration": 0.10869575000000253
                },
                {
                    "name": "B4",
                    "midi": 71,
                    "time": 47.17395550000014,
                    "velocity": 0.3543307086614173,
                    "duration": 0.1068841541666643
                },
                {
                    "name": "G4",
                    "midi": 67,
                    "time": 47.282651250000136,
                    "velocity": 0.31496062992125984,
                    "duration": 0.1068841541666643
                },
                {
                    "name": "B4",
                    "midi": 71,
                    "time": 47.39134700000013,
                    "velocity": 0.31496062992125984,
                    "duration": 0.10869575000000253
                },
                {
                    "name": "C5",
                    "midi": 72,
                    "time": 47.500042750000134,
                    "velocity": 0.31496062992125984,
                    "duration": 0.10869575000000253
                },
                {
                    "name": "D5",
                    "midi": 74,
                    "time": 47.608738500000136,
                    "velocity": 0.3543307086614173,
                    "duration": 0.10869575000000253
                },
                {
                    "name": "B4",
                    "midi": 71,
                    "time": 47.71743425000014,
                    "velocity": 0.31496062992125984,
                    "duration": 0.10869575000000253
                },
                {
                    "name": "C5",
                    "midi": 72,
                    "time": 47.82613000000014,
                    "velocity": 0.31496062992125984,
                    "duration": 0.10869575000000253
                },
                {
                    "name": "D5",
                    "midi": 74,
                    "time": 47.934825750000144,
                    "velocity": 0.31496062992125984,
                    "duration": 0.10869575000000253
                },
                {
                    "name": "C5",
                    "midi": 72,
                    "time": 48.043521500000146,
                    "velocity": 0.3543307086614173,
                    "duration": 0.10869575000000253
                },
                {
                    "name": "B4",
                    "midi": 71,
                    "time": 48.15221725000015,
                    "velocity": 0.31496062992125984,
                    "duration": 0.10869575000000253
                },
                {
                    "name": "C5",
                    "midi": 72,
                    "time": 48.26091300000015,
                    "velocity": 0.31496062992125984,
                    "duration": 0.10869575000000253
                },
                {
                    "name": "D5",
                    "midi": 74,
                    "time": 48.369608750000154,
                    "velocity": 0.31496062992125984,
                    "duration": 0.10869575000000253
                },
                {
                    "name": "E5",
                    "midi": 76,
                    "time": 48.47830450000016,
                    "velocity": 0.3543307086614173,
                    "duration": 0.10869575000000253
                },
                {
                    "name": "C5",
                    "midi": 72,
                    "time": 48.58700025000016,
                    "velocity": 0.31496062992125984,
                    "duration": 0.10869575000000253
                },
                {
                    "name": "A4",
                    "midi": 69,
                    "time": 48.69569600000016,
                    "velocity": 0.36220472440944884,
                    "duration": 0.10869575000000253
                },
                {
                    "name": "B4",
                    "midi": 71,
                    "time": 48.804391750000164,
                    "velocity": 0.2992125984251969,
                    "duration": 0.10869575000000253
                },
                {
                    "name": "C5",
                    "midi": 72,
                    "time": 48.91308750000017,
                    "velocity": 0.3543307086614173,
                    "duration": 0.10869575000000253
                },
                {
                    "name": "A4",
                    "midi": 69,
                    "time": 49.02178325000017,
                    "velocity": 0.31496062992125984,
                    "duration": 0.10869575000000253
                },
                {
                    "name": "F#4",
                    "midi": 66,
                    "time": 49.13047900000017,
                    "velocity": 0.3543307086614173,
                    "duration": 0.10869575000000253
                },
                {
                    "name": "G4",
                    "midi": 67,
                    "time": 49.239174750000174,
                    "velocity": 0.28346456692913385,
                    "duration": 0.10869575000000253
                },
                {
                    "name": "A4",
                    "midi": 69,
                    "time": 49.34787050000018,
                    "velocity": 0.3228346456692913,
                    "duration": 0.10869575000000253
                },
                {
                    "name": "F#4",
                    "midi": 66,
                    "time": 49.45656625000018,
                    "velocity": 0.28346456692913385,
                    "duration": 0.10869575000000253
                },
                {
                    "name": "C4",
                    "midi": 60,
                    "time": 49.56526200000018,
                    "velocity": 0.36220472440944884,
                    "duration": 0.10869575000000253
                },
                {
                    "name": "D4",
                    "midi": 62,
                    "time": 49.673957750000184,
                    "velocity": 0.2992125984251969,
                    "duration": 0.10869575000000253
                },
                {
                    "name": "E4",
                    "midi": 64,
                    "time": 49.78265350000019,
                    "velocity": 0.3543307086614173,
                    "duration": 0.10869575000000253
                },
                {
                    "name": "C4",
                    "midi": 60,
                    "time": 49.89134925000019,
                    "velocity": 0.31496062992125984,
                    "duration": 0.10869575000000253
                },
                {
                    "name": "A3",
                    "midi": 57,
                    "time": 50.00004500000019,
                    "velocity": 0.3543307086614173,
                    "duration": 0.10869575000000253
                },
                {
                    "name": "B3",
                    "midi": 59,
                    "time": 50.108740750000194,
                    "velocity": 0.28346456692913385,
                    "duration": 0.10869575000000253
                },
                {
                    "name": "C4",
                    "midi": 60,
                    "time": 50.2174365000002,
                    "velocity": 0.3228346456692913,
                    "duration": 0.10869575000000253
                },
                {
                    "name": "A3",
                    "midi": 57,
                    "time": 50.3261322500002,
                    "velocity": 0.28346456692913385,
                    "duration": 0.10869575000000253
                },
                {
                    "name": "F#3",
                    "midi": 54,
                    "time": 50.4348280000002,
                    "velocity": 0.36220472440944884,
                    "duration": 0.10869575000000253
                },
                {
                    "name": "G3",
                    "midi": 55,
                    "time": 50.543523750000205,
                    "velocity": 0.2992125984251969,
                    "duration": 0.10869575000000253
                },
                {
                    "name": "A3",
                    "midi": 57,
                    "time": 50.65221950000021,
                    "velocity": 0.3543307086614173,
                    "duration": 0.10869575000000253
                },
                {
                    "name": "F#3",
                    "midi": 54,
                    "time": 50.76091525000021,
                    "velocity": 0.31496062992125984,
                    "duration": 0.10869575000000253
                },
                {
                    "name": "A4",
                    "midi": 69,
                    "time": 50.86961100000021,
                    "velocity": 0.3543307086614173,
                    "duration": 0.10869575000000253
                },
                {
                    "name": "G4",
                    "midi": 67,
                    "time": 50.978306750000215,
                    "velocity": 0.28346456692913385,
                    "duration": 0.10869575000000253
                },
                {
                    "name": "F#4",
                    "midi": 66,
                    "time": 51.08700250000022,
                    "velocity": 0.3228346456692913,
                    "duration": 0.10869575000000253
                },
                {
                    "name": "A4",
                    "midi": 69,
                    "time": 51.19569825000022,
                    "velocity": 0.28346456692913385,
                    "duration": 0.10869575000000253
                },
                {
                    "name": "B4",
                    "midi": 71,
                    "time": 51.30439400000022,
                    "velocity": 0.31496062992125984,
                    "duration": 0.10869575000000253
                },
                {
                    "name": "C5",
                    "midi": 72,
                    "time": 51.413089750000225,
                    "velocity": 0.31496062992125984,
                    "duration": 0.10869575000000253
                },
                {
                    "name": "B4",
                    "midi": 71,
                    "time": 51.52178550000023,
                    "velocity": 0.3543307086614173,
                    "duration": 0.10869575000000253
                },
                {
                    "name": "A4",
                    "midi": 69,
                    "time": 51.63048125000023,
                    "velocity": 0.31496062992125984,
                    "duration": 0.10869575000000253
                },
                {
                    "name": "B4",
                    "midi": 71,
                    "time": 51.73917700000023,
                    "velocity": 0.31496062992125984,
                    "duration": 0.10869575000000253
                },
                {
                    "name": "C5",
                    "midi": 72,
                    "time": 51.847872750000235,
                    "velocity": 0.31496062992125984,
                    "duration": 0.10869575000000253
                },
                {
                    "name": "D5",
                    "midi": 74,
                    "time": 51.95656850000024,
                    "velocity": 0.3543307086614173,
                    "duration": 0.10869575000000253
                },
                {
                    "name": "B4",
                    "midi": 71,
                    "time": 52.06526425000024,
                    "velocity": 0.31496062992125984,
                    "duration": 0.10869575000000253
                },
                {
                    "name": "G4",
                    "midi": 67,
                    "time": 52.17396000000024,
                    "velocity": 0.36220472440944884,
                    "duration": 0.10869575000000253
                },
                {
                    "name": "A4",
                    "midi": 69,
                    "time": 52.282655750000245,
                    "velocity": 0.2992125984251969,
                    "duration": 0.10869575000000253
                },
                {
                    "name": "B4",
                    "midi": 71,
                    "time": 52.39135150000025,
                    "velocity": 0.3543307086614173,
                    "duration": 0.10869575000000253
                },
                {
                    "name": "G4",
                    "midi": 67,
                    "time": 52.50004725000025,
                    "velocity": 0.31496062992125984,
                    "duration": 0.10869575000000253
                },
                {
                    "name": "D4",
                    "midi": 62,
                    "time": 52.60874300000025,
                    "velocity": 0.3543307086614173,
                    "duration": 0.10869575000000253
                },
                {
                    "name": "F#4",
                    "midi": 66,
                    "time": 52.717438750000255,
                    "velocity": 0.28346456692913385,
                    "duration": 0.10869575000000253
                },
                {
                    "name": "G4",
                    "midi": 67,
                    "time": 52.82613450000026,
                    "velocity": 0.3228346456692913,
                    "duration": 0.10869575000000253
                },
                {
                    "name": "D4",
                    "midi": 62,
                    "time": 52.93483025000026,
                    "velocity": 0.28346456692913385,
                    "duration": 0.10869575000000253
                },
                {
                    "name": "B3",
                    "midi": 59,
                    "time": 53.04352600000026,
                    "velocity": 0.36220472440944884,
                    "duration": 0.10869575000000253
                },
                {
                    "name": "C4",
                    "midi": 60,
                    "time": 53.152221750000265,
                    "velocity": 0.2992125984251969,
                    "duration": 0.10869575000000253
                },
                {
                    "name": "D4",
                    "midi": 62,
                    "time": 53.26091750000027,
                    "velocity": 0.3543307086614173,
                    "duration": 0.10869575000000253
                },
                {
                    "name": "B3",
                    "midi": 59,
                    "time": 53.36961325000027,
                    "velocity": 0.31496062992125984,
                    "duration": 0.10869575000000253
                },
                {
                    "name": "G3",
                    "midi": 55,
                    "time": 53.47830900000027,
                    "velocity": 0.3543307086614173,
                    "duration": 0.10869575000000253
                },
                {
                    "name": "A3",
                    "midi": 57,
                    "time": 53.587004750000276,
                    "velocity": 0.28346456692913385,
                    "duration": 0.10869575000000253
                },
                {
                    "name": "B3",
                    "midi": 59,
                    "time": 53.69570050000028,
                    "velocity": 0.3228346456692913,
                    "duration": 0.10869575000000253
                },
                {
                    "name": "G3",
                    "midi": 55,
                    "time": 53.80439625000028,
                    "velocity": 0.28346456692913385,
                    "duration": 0.10869575000000253
                },
                {
                    "name": "D3",
                    "midi": 50,
                    "time": 53.91309200000028,
                    "velocity": 0.36220472440944884,
                    "duration": 0.10869575000000253
                },
                {
                    "name": "F#3",
                    "midi": 54,
                    "time": 54.021787750000286,
                    "velocity": 0.2992125984251969,
                    "duration": 0.10869575000000253
                },
                {
                    "name": "G3",
                    "midi": 55,
                    "time": 54.13048350000029,
                    "velocity": 0.3543307086614173,
                    "duration": 0.10869575000000253
                },
                {
                    "name": "D3",
                    "midi": 50,
                    "time": 54.23917925000029,
                    "velocity": 0.31496062992125984,
                    "duration": 0.10869575000000253
                },
                {
                    "name": "C3",
                    "midi": 48,
                    "time": 54.34787500000029,
                    "velocity": 0.3543307086614173,
                    "duration": 0.10869575000000253
                },
                {
                    "name": "G3",
                    "midi": 55,
                    "time": 54.456570750000296,
                    "velocity": 0.28346456692913385,
                    "duration": 0.10869575000000253
                },
                {
                    "name": "D3",
                    "midi": 50,
                    "time": 54.5652665000003,
                    "velocity": 0.3228346456692913,
                    "duration": 0.10869575000000253
                },
                {
                    "name": "C3",
                    "midi": 48,
                    "time": 54.6739622500003,
                    "velocity": 0.28346456692913385,
                    "duration": 0.10869575000000253
                },
                {
                    "name": "B2",
                    "midi": 47,
                    "time": 54.7826580000003,
                    "velocity": 0.28346456692913385,
                    "duration": 0.21739149999999796
                },
                {
                    "name": "G2",
                    "midi": 43,
                    "time": 55.0000495000003,
                    "velocity": 0.2677165354330709,
                    "duration": 0.21739149999999796
                },
                {
                    "name": "G3",
                    "midi": 55,
                    "time": 55.0000495000003,
                    "velocity": 0.31496062992125984,
                    "duration": 0.21739149999999796
                },
                {
                    "name": "E3",
                    "midi": 52,
                    "time": 55.2174410000003,
                    "velocity": 0.28346456692913385,
                    "duration": 0.10869575000000253
                },
                {
                    "name": "C3",
                    "midi": 48,
                    "time": 55.2174410000003,
                    "velocity": 0.23622047244094488,
                    "duration": 0.10869575000000253
                },
                {
                    "name": "C4",
                    "midi": 60,
                    "time": 55.434832500000304,
                    "velocity": 0.31496062992125984,
                    "duration": 0.10869575000000253
                },
                {
                    "name": "A3",
                    "midi": 57,
                    "time": 55.54352825000031,
                    "velocity": 0.28346456692913385,
                    "duration": 0.10869575000000253
                },
                {
                    "name": "F#3",
                    "midi": 54,
                    "time": 55.65222400000031,
                    "velocity": 0.28346456692913385,
                    "duration": 0.21739149999999796
                },
                {
                    "name": "D3",
                    "midi": 50,
                    "time": 55.86961550000031,
                    "velocity": 0.2440944881889764,
                    "duration": 0.21739149999999796
                },
                {
                    "name": "D4",
                    "midi": 62,
                    "time": 55.86961550000031,
                    "velocity": 0.28346456692913385,
                    "duration": 0.21739149999999796
                },
                {
                    "name": "B3",
                    "midi": 59,
                    "time": 56.087007000000305,
                    "velocity": 0.28346456692913385,
                    "duration": 0.10869575000000253
                },
                {
                    "name": "G3",
                    "midi": 55,
                    "time": 56.087007000000305,
                    "velocity": 0.23622047244094488,
                    "duration": 0.10869575000000253
                },
                {
                    "name": "E4",
                    "midi": 64,
                    "time": 56.30439850000031,
                    "velocity": 0.28346456692913385,
                    "duration": 0.43478300000000303
                },
                {
                    "name": "G3",
                    "midi": 55,
                    "time": 56.30439850000031,
                    "velocity": 0.23622047244094488,
                    "duration": 0.43478300000000303
                },
                {
                    "name": "G3",
                    "midi": 55,
                    "time": 56.73918150000031,
                    "velocity": 0.23622047244094488,
                    "duration": 0.21739149999999796
                },
                {
                    "name": "E4",
                    "midi": 64,
                    "time": 56.73918150000031,
                    "velocity": 0.28346456692913385,
                    "duration": 0.21739149999999796
                },
                {
                    "name": "F#4",
                    "midi": 66,
                    "time": 56.95657300000031,
                    "velocity": 0.31496062992125984,
                    "duration": 0.21739149999999796
                },
                {
                    "name": "A3",
                    "midi": 57,
                    "time": 56.95657300000031,
                    "velocity": 0.2677165354330709,
                    "duration": 0.21739149999999796
                },
                {
                    "name": "A3",
                    "midi": 57,
                    "time": 57.17396450000031,
                    "velocity": 0.1968503937007874,
                    "duration": 0.21739150000000507
                },
                {
                    "name": "G4",
                    "midi": 67,
                    "time": 57.17396450000031,
                    "velocity": 0.23622047244094488,
                    "duration": 0.10869575000000253
                },
                {
                    "name": "A4",
                    "midi": 69,
                    "time": 57.28266025000031,
                    "velocity": 0.28346456692913385,
                    "duration": 0.10869575000000253
                },
                {
                    "name": "A4",
                    "midi": 69,
                    "time": 57.391356000000314,
                    "velocity": 0.28346456692913385,
                    "duration": 0.21739149999999796
                },
                {
                    "name": "D4",
                    "midi": 62,
                    "time": 57.391356000000314,
                    "velocity": 0.23622047244094488,
                    "duration": 0.6521744999999939
                },
                {
                    "name": "B4",
                    "midi": 71,
                    "time": 57.60874750000031,
                    "velocity": 0.28346456692913385,
                    "duration": 0.16304362500000025
                },
                {
                    "name": "C#5",
                    "midi": 73,
                    "time": 57.77179112500031,
                    "velocity": 0.2440944881889764,
                    "duration": 0.054347874999997714
                },
                {
                    "name": "D5",
                    "midi": 74,
                    "time": 57.82613900000031,
                    "velocity": 0.28346456692913385,
                    "duration": 0.21739149999999796
                },
                {
                    "name": "E5",
                    "midi": 76,
                    "time": 58.04353050000031,
                    "velocity": 0.29133858267716534,
                    "duration": 0.10869575000000253
                },
                {
                    "name": "F#5",
                    "midi": 78,
                    "time": 58.15222625000031,
                    "velocity": 0.28346456692913385,
                    "duration": 0.10869575000000253
                },
                {
                    "name": "G5",
                    "midi": 79,
                    "time": 58.26092200000031,
                    "velocity": 0.28346456692913385,
                    "duration": 0.21739149999999796
                },
                {
                    "name": "D5",
                    "midi": 74,
                    "time": 58.47831350000031,
                    "velocity": 0.28346456692913385,
                    "duration": 0.21739149999999796
                },
                {
                    "name": "B4",
                    "midi": 71,
                    "time": 58.47831350000031,
                    "velocity": 0.23622047244094488,
                    "duration": 0.21739149999999796
                },
                {
                    "name": "C5",
                    "midi": 72,
                    "time": 58.69570500000031,
                    "velocity": 0.23622047244094488,
                    "duration": 0.10869575000000253
                },
                {
                    "name": "E5",
                    "midi": 76,
                    "time": 58.69570500000031,
                    "velocity": 0.28346456692913385,
                    "duration": 0.10869575000000253
                },
                {
                    "name": "A4",
                    "midi": 69,
                    "time": 58.913096500000314,
                    "velocity": 0.28346456692913385,
                    "duration": 0.10869575000000253
                },
                {
                    "name": "C5",
                    "midi": 72,
                    "time": 59.02179225000032,
                    "velocity": 0.25196850393700787,
                    "duration": 0.10869575000000253
                },
                {
                    "name": "D5",
                    "midi": 74,
                    "time": 59.13048800000032,
                    "velocity": 0.28346456692913385,
                    "duration": 0.21739149999999796
                },
                {
                    "name": "F#4",
                    "midi": 66,
                    "time": 59.34787950000032,
                    "velocity": 0.23622047244094488,
                    "duration": 0.21739149999999796
                },
                {
                    "name": "A4",
                    "midi": 69,
                    "time": 59.34787950000032,
                    "velocity": 0.28346456692913385,
                    "duration": 0.21739149999999796
                },
                {
                    "name": "G4",
                    "midi": 67,
                    "time": 59.565271000000315,
                    "velocity": 0.25984251968503935,
                    "duration": 0.10869575000000253
                },
                {
                    "name": "B4",
                    "midi": 71,
                    "time": 59.565271000000315,
                    "velocity": 0.28346456692913385,
                    "duration": 0.10869575000000253
                },
                {
                    "name": "G4",
                    "midi": 67,
                    "time": 60.00005400000032,
                    "velocity": 0.23622047244094488,
                    "duration": 0.21739149999999796
                },
                {
                    "name": "E4",
                    "midi": 64,
                    "time": 60.00005400000032,
                    "velocity": 0.23622047244094488,
                    "duration": 0.21739149999999796
                },
                {
                    "name": "B4",
                    "midi": 71,
                    "time": 60.00005400000032,
                    "velocity": 0.28346456692913385,
                    "duration": 0.21739149999999796
                },
                {
                    "name": "C5",
                    "midi": 72,
                    "time": 60.217445500000316,
                    "velocity": 0.28346456692913385,
                    "duration": 0.21739149999999796
                },
                {
                    "name": "G4",
                    "midi": 67,
                    "time": 60.217445500000316,
                    "velocity": 0.23622047244094488,
                    "duration": 0.21739149999999796
                },
                {
                    "name": "E4",
                    "midi": 64,
                    "time": 60.217445500000316,
                    "velocity": 0.23622047244094488,
                    "duration": 0.21739149999999796
                },
                {
                    "name": "E4",
                    "midi": 64,
                    "time": 60.434837000000314,
                    "velocity": 0.23622047244094488,
                    "duration": 0.21739150000000507
                },
                {
                    "name": "G4",
                    "midi": 67,
                    "time": 60.434837000000314,
                    "velocity": 0.28346456692913385,
                    "duration": 0.10869575000000253
                },
                {
                    "name": "C5",
                    "midi": 72,
                    "time": 60.434837000000314,
                    "velocity": 0.28346456692913385,
                    "duration": 0.21739150000000507
                },
                {
                    "name": "A4",
                    "midi": 69,
                    "time": 60.54353275000032,
                    "velocity": 0.23622047244094488,
                    "duration": 0.10869575000000253
                },
                {
                    "name": "F#4",
                    "midi": 66,
                    "time": 60.65222850000032,
                    "velocity": 0.23622047244094488,
                    "duration": 0.21739149999999796
                },
                {
                    "name": "D#4",
                    "midi": 63,
                    "time": 60.65222850000032,
                    "velocity": 0.23622047244094488,
                    "duration": 0.21739149999999796
                },
                {
                    "name": "B4",
                    "midi": 71,
                    "time": 60.65222850000032,
                    "velocity": 0.28346456692913385,
                    "duration": 0.21739149999999796
                },
                {
                    "name": "B4",
                    "midi": 71,
                    "time": 60.86962000000032,
                    "velocity": 0.28346456692913385,
                    "duration": 0.21739149999999796
                },
                {
                    "name": "F#4",
                    "midi": 66,
                    "time": 60.86962000000032,
                    "velocity": 0.23622047244094488,
                    "duration": 0.21739149999999796
                },
                {
                    "name": "D#4",
                    "midi": 63,
                    "time": 60.86962000000032,
                    "velocity": 0.23622047244094488,
                    "duration": 0.21739149999999796
                },
                {
                    "name": "D#4",
                    "midi": 63,
                    "time": 61.087011500000315,
                    "velocity": 0.2440944881889764,
                    "duration": 0.21739149999999796
                },
                {
                    "name": "B3",
                    "midi": 59,
                    "time": 61.087011500000315,
                    "velocity": 0.2047244094488189,
                    "duration": 0.21739149999999796
                },
                {
                    "name": "E4",
                    "midi": 64,
                    "time": 61.30440300000031,
                    "velocity": 0.23622047244094488,
                    "duration": 0.21739149999999796
                },
                {
                    "name": "G4",
                    "midi": 67,
                    "time": 61.30440300000031,
                    "velocity": 0.28346456692913385,
                    "duration": 0.21739149999999796
                },
                {
                    "name": "D4",
                    "midi": 62,
                    "time": 61.52179450000031,
                    "velocity": 0.2677165354330709,
                    "duration": 0.10869575000000253
                },
                {
                    "name": "F4",
                    "midi": 65,
                    "time": 61.52179450000031,
                    "velocity": 0.31496062992125984,
                    "duration": 0.10869575000000253
                },
                {
                    "name": "E4",
                    "midi": 64,
                    "time": 61.630490250000314,
                    "velocity": 0.28346456692913385,
                    "duration": 0.10869575000000253
                },
                {
                    "name": "C#4",
                    "midi": 61,
                    "time": 61.630490250000314,
                    "velocity": 0.23622047244094488,
                    "duration": 0.10869575000000253
                },
                {
                    "name": "C#4",
                    "midi": 61,
                    "time": 61.739186000000316,
                    "velocity": 0.23622047244094488,
                    "duration": 0.21739149999999796
                },
                {
                    "name": "E4",
                    "midi": 64,
                    "time": 61.739186000000316,
                    "velocity": 0.28346456692913385,
                    "duration": 0.21739149999999796
                },
                {
                    "name": "A3",
                    "midi": 57,
                    "time": 61.956577500000314,
                    "velocity": 0.2047244094488189,
                    "duration": 0.21739149999999796
                },
                {
                    "name": "C#4",
                    "midi": 61,
                    "time": 61.956577500000314,
                    "velocity": 0.2440944881889764,
                    "duration": 0.21739149999999796
                },
                {
                    "name": "D4",
                    "midi": 62,
                    "time": 62.17396900000031,
                    "velocity": 0.23622047244094488,
                    "duration": 0.21739149999999796
                },
                {
                    "name": "F4",
                    "midi": 65,
                    "time": 62.17396900000031,
                    "velocity": 0.28346456692913385,
                    "duration": 0.21739149999999796
                },
                {
                    "name": "D#4",
                    "midi": 63,
                    "time": 62.39136050000031,
                    "velocity": 0.31496062992125984,
                    "duration": 0.10869575000000253
                },
                {
                    "name": "C4",
                    "midi": 60,
                    "time": 62.39136050000031,
                    "velocity": 0.2677165354330709,
                    "duration": 0.10869575000000253
                },
                {
                    "name": "D4",
                    "midi": 62,
                    "time": 62.50005625000031,
                    "velocity": 0.28346456692913385,
                    "duration": 0.10778995208332987
                },
                {
                    "name": "B3",
                    "midi": 59,
                    "time": 62.50005625000031,
                    "velocity": 0.23622047244094488,
                    "duration": 0.10778995208332987
                },
                {
                    "name": "B3",
                    "midi": 59,
                    "time": 62.60875200000031,
                    "velocity": 0.23622047244094488,
                    "duration": 0.21739149999999796
                },
                {
                    "name": "D4",
                    "midi": 62,
                    "time": 62.60875200000031,
                    "velocity": 0.28346456692913385,
                    "duration": 0.21739149999999796
                },
                {
                    "name": "B3",
                    "midi": 59,
                    "time": 62.826143500000306,
                    "velocity": 0.2440944881889764,
                    "duration": 0.21739149999999796
                },
                {
                    "name": "G3",
                    "midi": 55,
                    "time": 62.826143500000306,
                    "velocity": 0.2047244094488189,
                    "duration": 0.21739149999999796
                },
                {
                    "name": "C4",
                    "midi": 60,
                    "time": 63.043535000000304,
                    "velocity": 0.23622047244094488,
                    "duration": 0.21739149999999796
                },
                {
                    "name": "E4",
                    "midi": 64,
                    "time": 63.043535000000304,
                    "velocity": 0.28346456692913385,
                    "duration": 0.21739149999999796
                },
                {
                    "name": "D#4",
                    "midi": 63,
                    "time": 63.2609265000003,
                    "velocity": 0.31496062992125984,
                    "duration": 0.10869575000000253
                },
                {
                    "name": "B3",
                    "midi": 59,
                    "time": 63.2609265000003,
                    "velocity": 0.2677165354330709,
                    "duration": 0.10869575000000253
                },
                {
                    "name": "A#3",
                    "midi": 58,
                    "time": 63.369622250000305,
                    "velocity": 0.23622047244094488,
                    "duration": 0.10778995208332987
                },
                {
                    "name": "C#4",
                    "midi": 61,
                    "time": 63.369622250000305,
                    "velocity": 0.28346456692913385,
                    "duration": 0.10778995208332987
                },
                {
                    "name": "A#3",
                    "midi": 58,
                    "time": 63.4783180000003,
                    "velocity": 0.23622047244094488,
                    "duration": 0.21739149999999796
                },
                {
                    "name": "C#4",
                    "midi": 61,
                    "time": 63.4783180000003,
                    "velocity": 0.28346456692913385,
                    "duration": 0.21739149999999796
                },
                {
                    "name": "A#3",
                    "midi": 58,
                    "time": 63.6957095000003,
                    "velocity": 0.2440944881889764,
                    "duration": 0.21739149999999796
                },
                {
                    "name": "F#3",
                    "midi": 54,
                    "time": 63.6957095000003,
                    "velocity": 0.2047244094488189,
                    "duration": 0.21739149999999796
                },
                {
                    "name": "D4",
                    "midi": 62,
                    "time": 63.913101000000296,
                    "velocity": 0.28346456692913385,
                    "duration": 0.21739150000000507
                },
                {
                    "name": "B3",
                    "midi": 59,
                    "time": 63.913101000000296,
                    "velocity": 0.23622047244094488,
                    "duration": 0.21739150000000507
                },
                {
                    "name": "C#4",
                    "midi": 61,
                    "time": 64.1304925000003,
                    "velocity": 0.31496062992125984,
                    "duration": 0.10869574999999543
                },
                {
                    "name": "A3",
                    "midi": 57,
                    "time": 64.1304925000003,
                    "velocity": 0.2677165354330709,
                    "duration": 0.10869574999999543
                },
                {
                    "name": "B3",
                    "midi": 59,
                    "time": 64.2391882500003,
                    "velocity": 0.28346456692913385,
                    "duration": 0.10869574999999543
                },
                {
                    "name": "G#3",
                    "midi": 56,
                    "time": 64.2391882500003,
                    "velocity": 0.23622047244094488,
                    "duration": 0.10869574999999543
                },
                {
                    "name": "B3",
                    "midi": 59,
                    "time": 64.34788400000029,
                    "velocity": 0.28346456692913385,
                    "duration": 0.21739150000000507
                },
                {
                    "name": "G#3",
                    "midi": 56,
                    "time": 64.34788400000029,
                    "velocity": 0.23622047244094488,
                    "duration": 0.21739150000000507
                },
                {
                    "name": "A3",
                    "midi": 57,
                    "time": 64.5652755000003,
                    "velocity": 0.28346456692913385,
                    "duration": 0.10869574999999543
                },
                {
                    "name": "E4",
                    "midi": 64,
                    "time": 64.5652755000003,
                    "velocity": 0.23622047244094488,
                    "duration": 0.21739149999999086
                },
                {
                    "name": "G3",
                    "midi": 55,
                    "time": 64.67397125000029,
                    "velocity": 0.23622047244094488,
                    "duration": 0.10869574999999543
                },
                {
                    "name": "F#3",
                    "midi": 54,
                    "time": 64.78266700000029,
                    "velocity": 0.23622047244094488,
                    "duration": 0.21739150000000507
                },
                {
                    "name": "A3",
                    "midi": 57,
                    "time": 64.78266700000029,
                    "velocity": 0.28346456692913385,
                    "duration": 0.21739150000000507
                },
                {
                    "name": "G3",
                    "midi": 55,
                    "time": 65.00005850000029,
                    "velocity": 0.28346456692913385,
                    "duration": 0.10869574999999543
                },
                {
                    "name": "B3",
                    "midi": 59,
                    "time": 65.00005850000029,
                    "velocity": 0.23622047244094488,
                    "duration": 0.21739149999999086
                },
                {
                    "name": "B2",
                    "midi": 47,
                    "time": 65.10875425000029,
                    "velocity": 0.25196850393700787,
                    "duration": 0.10869574999999543
                },
                {
                    "name": "D3",
                    "midi": 50,
                    "time": 65.21745000000028,
                    "velocity": 0.1968503937007874,
                    "duration": 1.304349000000002
                },
                {
                    "name": "C4",
                    "midi": 60,
                    "time": 65.21745000000028,
                    "velocity": 0.23622047244094488,
                    "duration": 1.304349000000002
                },
                {
                    "name": "A2",
                    "midi": 45,
                    "time": 65.21745000000028,
                    "velocity": 0.1968503937007874,
                    "duration": 1.304349000000002
                },
                {
                    "name": "B3",
                    "midi": 59,
                    "time": 66.52179900000029,
                    "velocity": 0.23622047244094488,
                    "duration": 0.4347829999999959
                },
                {
                    "name": "B2",
                    "midi": 47,
                    "time": 66.52179900000029,
                    "velocity": 0.1968503937007874,
                    "duration": 0.4347829999999959
                },
                {
                    "name": "D3",
                    "midi": 50,
                    "time": 66.52179900000029,
                    "velocity": 0.1968503937007874,
                    "duration": 0.4347829999999959
                },
                {
                    "name": "A2",
                    "midi": 45,
                    "time": 66.95658200000028,
                    "velocity": 0.1968503937007874,
                    "duration": 1.304349000000002
                },
                {
                    "name": "C4",
                    "midi": 60,
                    "time": 66.95658200000028,
                    "velocity": 0.23622047244094488,
                    "duration": 1.304349000000002
                },
                {
                    "name": "D3",
                    "midi": 50,
                    "time": 66.95658200000028,
                    "velocity": 0.1968503937007874,
                    "duration": 1.304349000000002
                },
                {
                    "name": "B2",
                    "midi": 47,
                    "time": 68.26093100000028,
                    "velocity": 0.1968503937007874,
                    "duration": 0.4347829999999959
                },
                {
                    "name": "D3",
                    "midi": 50,
                    "time": 68.26093100000028,
                    "velocity": 0.1968503937007874,
                    "duration": 0.4347829999999959
                },
                {
                    "name": "B3",
                    "midi": 59,
                    "time": 68.26093100000028,
                    "velocity": 0.23622047244094488,
                    "duration": 0.4347829999999959
                },
                {
                    "name": "B2",
                    "midi": 47,
                    "time": 68.69571400000028,
                    "velocity": 0.23622047244094488,
                    "duration": 0.4347829999999959
                },
                {
                    "name": "B1",
                    "midi": 35,
                    "time": 68.69571400000028,
                    "velocity": 0.1968503937007874,
                    "duration": 0.4347829999999959
                },
                {
                    "name": "E2",
                    "midi": 40,
                    "time": 69.13049700000028,
                    "velocity": 0.18110236220472442,
                    "duration": 0.4347829999999959
                },
                {
                    "name": "E3",
                    "midi": 52,
                    "time": 69.13049700000028,
                    "velocity": 0.2204724409448819,
                    "duration": 0.4347829999999959
                },
                {
                    "name": "C#3",
                    "midi": 49,
                    "time": 69.56528000000027,
                    "velocity": 0.23622047244094488,
                    "duration": 0.4347829999999959
                },
                {
                    "name": "C#2",
                    "midi": 37,
                    "time": 69.56528000000027,
                    "velocity": 0.1968503937007874,
                    "duration": 0.4347829999999959
                },
                {
                    "name": "D3",
                    "midi": 50,
                    "time": 70.00006300000027,
                    "velocity": 0.2283464566929134,
                    "duration": 0.21739150000000507
                },
                {
                    "name": "D2",
                    "midi": 38,
                    "time": 70.00006300000027,
                    "velocity": 0.1889763779527559,
                    "duration": 0.21739150000000507
                },
                {
                    "name": "A3",
                    "midi": 57,
                    "time": 70.43484600000028,
                    "velocity": 0.1968503937007874,
                    "duration": 1.304349000000002
                },
                {
                    "name": "C5",
                    "midi": 72,
                    "time": 70.43484600000028,
                    "velocity": 0.23622047244094488,
                    "duration": 1.304349000000002
                },
                {
                    "name": "D4",
                    "midi": 62,
                    "time": 70.43484600000028,
                    "velocity": 0.1968503937007874,
                    "duration": 1.304349000000002
                },
                {
                    "name": "B4",
                    "midi": 71,
                    "time": 71.73919500000028,
                    "velocity": 0.23622047244094488,
                    "duration": 0.4347829999999959
                },
                {
                    "name": "B3",
                    "midi": 59,
                    "time": 71.73919500000028,
                    "velocity": 0.1968503937007874,
                    "duration": 0.4347829999999959
                },
                {
                    "name": "D4",
                    "midi": 62,
                    "time": 71.73919500000028,
                    "velocity": 0.1968503937007874,
                    "duration": 0.4347829999999959
                },
                {
                    "name": "C4",
                    "midi": 60,
                    "time": 72.17397800000028,
                    "velocity": 0.23622047244094488,
                    "duration": 1.304349000000002
                },
                {
                    "name": "A2",
                    "midi": 45,
                    "time": 72.17397800000028,
                    "velocity": 0.1968503937007874,
                    "duration": 1.304349000000002
                },
                {
                    "name": "D3",
                    "midi": 50,
                    "time": 72.17397800000028,
                    "velocity": 0.1968503937007874,
                    "duration": 1.304349000000002
                },
                {
                    "name": "B2",
                    "midi": 47,
                    "time": 73.47832700000028,
                    "velocity": 0.1968503937007874,
                    "duration": 0.21739150000000507
                },
                {
                    "name": "B3",
                    "midi": 59,
                    "time": 73.47832700000028,
                    "velocity": 0.23622047244094488,
                    "duration": 0.21739150000000507
                },
                {
                    "name": "D3",
                    "midi": 50,
                    "time": 73.47832700000028,
                    "velocity": 0.1968503937007874,
                    "duration": 0.21739150000000507
                },
                {
                    "name": "B3",
                    "midi": 59,
                    "time": 73.69571850000028,
                    "velocity": 0.23622047244094488,
                    "duration": 0.21739150000000507
                },
                {
                    "name": "B3",
                    "midi": 59,
                    "time": 73.91311000000029,
                    "velocity": 0.23622047244094488,
                    "duration": 0.4347829999999959
                },
                {
                    "name": "E4",
                    "midi": 64,
                    "time": 74.34789300000028,
                    "velocity": 0.2204724409448819,
                    "duration": 0.4347829999999959
                },
                {
                    "name": "C#4",
                    "midi": 61,
                    "time": 74.78267600000028,
                    "velocity": 0.23622047244094488,
                    "duration": 0.4347829999999959
                },
                {
                    "name": "D4",
                    "midi": 62,
                    "time": 75.21745900000028,
                    "velocity": 0.2283464566929134,
                    "duration": 0.21739150000000507
                },
                {
                    "name": "D#4",
                    "midi": 63,
                    "time": 75.43485050000028,
                    "velocity": 0.2283464566929134,
                    "duration": 0.21739150000000507
                },
                {
                    "name": "E4",
                    "midi": 64,
                    "time": 75.65224200000029,
                    "velocity": 0.2440944881889764,
                    "duration": 0.4347829999999959
                },
                {
                    "name": "A4",
                    "midi": 69,
                    "time": 76.08702500000028,
                    "velocity": 0.23622047244094488,
                    "duration": 0.4347829999999959
                },
                {
                    "name": "F#4",
                    "midi": 66,
                    "time": 76.52180800000028,
                    "velocity": 0.25984251968503935,
                    "duration": 0.4347829999999959
                },
                {
                    "name": "G4",
                    "midi": 67,
                    "time": 76.95659100000027,
                    "velocity": 0.2677165354330709,
                    "duration": 0.21739150000000507
                },
                {
                    "name": "G#4",
                    "midi": 68,
                    "time": 77.17398250000028,
                    "velocity": 0.2677165354330709,
                    "duration": 0.21739150000000507
                },
                {
                    "name": "A4",
                    "midi": 69,
                    "time": 77.39137400000028,
                    "velocity": 0.28346456692913385,
                    "duration": 0.4347829999999959
                },
                {
                    "name": "C#5",
                    "midi": 73,
                    "time": 77.82615700000028,
                    "velocity": 0.2755905511811024,
                    "duration": 0.4347829999999959
                },
                {
                    "name": "B4",
                    "midi": 71,
                    "time": 78.26094000000028,
                    "velocity": 0.30708661417322836,
                    "duration": 0.4347829999999959
                },
                {
                    "name": "C4",
                    "midi": 60,
                    "time": 78.69572300000027,
                    "velocity": 0.30708661417322836,
                    "duration": 0.652174500000001
                },
                {
                    "name": "C5",
                    "midi": 72,
                    "time": 78.69572300000027,
                    "velocity": 0.30708661417322836,
                    "duration": 0.652174500000001
                },
                {
                    "name": "C2",
                    "midi": 36,
                    "time": 79.34789750000027,
                    "velocity": 0.4409448818897638,
                    "duration": 0.21739150000000507
                },
                {
                    "name": "C3",
                    "midi": 48,
                    "time": 79.34789750000027,
                    "velocity": 0.5196850393700787,
                    "duration": 0.21739150000000507
                },
                {
                    "name": "E4",
                    "midi": 64,
                    "time": 80.21746350000028,
                    "velocity": 0.6456692913385826,
                    "duration": 0.10869574999999543
                },
                {
                    "name": "C4",
                    "midi": 60,
                    "time": 80.21746350000028,
                    "velocity": 0.5433070866141733,
                    "duration": 0.10869574999999543
                },
                {
                    "name": "B3",
                    "midi": 59,
                    "time": 80.43485500000027,
                    "velocity": 0.5275590551181102,
                    "duration": 0.21739150000000507
                },
                {
                    "name": "D4",
                    "midi": 62,
                    "time": 80.43485500000027,
                    "velocity": 0.6220472440944882,
                    "duration": 0.21739150000000507
                },
                {
                    "name": "C4",
                    "midi": 60,
                    "time": 80.65224650000027,
                    "velocity": 0.5354330708661418,
                    "duration": 0.10869574999999543
                },
                {
                    "name": "E4",
                    "midi": 64,
                    "time": 80.65224650000027,
                    "velocity": 0.6377952755905512,
                    "duration": 0.10869574999999543
                },
                {
                    "name": "F4",
                    "midi": 65,
                    "time": 80.76094225000027,
                    "velocity": 0.6614173228346457,
                    "duration": 0.10869574999999543
                },
                {
                    "name": "D4",
                    "midi": 62,
                    "time": 80.76094225000027,
                    "velocity": 0.5590551181102362,
                    "duration": 0.10869574999999543
                },
                {
                    "name": "G4",
                    "midi": 67,
                    "time": 80.86963800000026,
                    "velocity": 0.6929133858267716,
                    "duration": 0.10869574999999543
                },
                {
                    "name": "E4",
                    "midi": 64,
                    "time": 80.86963800000026,
                    "velocity": 0.5826771653543307,
                    "duration": 0.10869574999999543
                },
                {
                    "name": "C3",
                    "midi": 48,
                    "time": 81.08702950000026,
                    "velocity": 0.5196850393700787,
                    "duration": 0.21739150000000507
                },
                {
                    "name": "C2",
                    "midi": 36,
                    "time": 81.08702950000026,
                    "velocity": 0.4409448818897638,
                    "duration": 0.21739150000000507
                },
                {
                    "name": "C#2",
                    "midi": 37,
                    "time": 81.95659550000026,
                    "velocity": 0.4881889763779528,
                    "duration": 0.21739150000000507
                },
                {
                    "name": "C#3",
                    "midi": 49,
                    "time": 81.95659550000026,
                    "velocity": 0.5826771653543307,
                    "duration": 0.21739150000000507
                },
                {
                    "name": "A2",
                    "midi": 45,
                    "time": 82.39137850000027,
                    "velocity": 0.6220472440944882,
                    "duration": 0.21739150000000507
                },
                {
                    "name": "A1",
                    "midi": 33,
                    "time": 82.39137850000027,
                    "velocity": 0.5275590551181102,
                    "duration": 0.21739150000000507
                },
                {
                    "name": "D3",
                    "midi": 50,
                    "time": 82.82616150000028,
                    "velocity": 0.5826771653543307,
                    "duration": 0.21739150000000507
                },
                {
                    "name": "D2",
                    "midi": 38,
                    "time": 82.82616150000028,
                    "velocity": 0.4881889763779528,
                    "duration": 0.21739150000000507
                },
                {
                    "name": "E3",
                    "midi": 52,
                    "time": 83.26094450000029,
                    "velocity": 0.6220472440944882,
                    "duration": 0.21739150000000507
                },
                {
                    "name": "E2",
                    "midi": 40,
                    "time": 83.26094450000029,
                    "velocity": 0.5275590551181102,
                    "duration": 0.21739150000000507
                },
                {
                    "name": "D2",
                    "midi": 38,
                    "time": 83.4783360000003,
                    "velocity": 0.3937007874015748,
                    "duration": 0.10869574999999543
                },
                {
                    "name": "F#2",
                    "midi": 42,
                    "time": 83.58703175000029,
                    "velocity": 0.3937007874015748,
                    "duration": 0.10869574999999543
                },
                {
                    "name": "G2",
                    "midi": 43,
                    "time": 83.69572750000029,
                    "velocity": 0.3937007874015748,
                    "duration": 0.10869574999999543
                },
                {
                    "name": "B2",
                    "midi": 47,
                    "time": 83.80442325000028,
                    "velocity": 0.3937007874015748,
                    "duration": 0.10869574999999543
                },
                {
                    "name": "D3",
                    "midi": 50,
                    "time": 83.91311900000028,
                    "velocity": 0.3937007874015748,
                    "duration": 0.10869574999999543
                },
                {
                    "name": "F#3",
                    "midi": 54,
                    "time": 84.02181475000027,
                    "velocity": 0.3937007874015748,
                    "duration": 0.10869574999999543
                },
                {
                    "name": "G3",
                    "midi": 55,
                    "time": 84.13051050000027,
                    "velocity": 0.3937007874015748,
                    "duration": 0.10869574999999543
                },
                {
                    "name": "B3",
                    "midi": 59,
                    "time": 84.23920625000027,
                    "velocity": 0.3937007874015748,
                    "duration": 0.10869574999999543
                },
                {
                    "name": "D4",
                    "midi": 62,
                    "time": 84.34790200000026,
                    "velocity": 0.3937007874015748,
                    "duration": 0.10869574999999543
                },
                {
                    "name": "F#4",
                    "midi": 66,
                    "time": 84.45659775000026,
                    "velocity": 0.3937007874015748,
                    "duration": 0.10869574999999543
                },
                {
                    "name": "G4",
                    "midi": 67,
                    "time": 84.56529350000025,
                    "velocity": 0.3937007874015748,
                    "duration": 0.10869574999999543
                },
                {
                    "name": "B4",
                    "midi": 71,
                    "time": 84.67398925000025,
                    "velocity": 0.3937007874015748,
                    "duration": 0.10869574999999543
                },
                {
                    "name": "G4",
                    "midi": 67,
                    "time": 85.00007650000025,
                    "velocity": 0.33858267716535434,
                    "duration": 0.10869574999999543
                },
                {
                    "name": "B4",
                    "midi": 71,
                    "time": 85.10877225000024,
                    "velocity": 0.3464566929133858,
                    "duration": 0.10869574999999543
                },
                {
                    "name": "C#5",
                    "midi": 73,
                    "time": 85.21746800000024,
                    "velocity": 0.3543307086614173,
                    "duration": 0.10869574999999543
                },
                {
                    "name": "D5",
                    "midi": 74,
                    "time": 85.32616375000023,
                    "velocity": 0.36220472440944884,
                    "duration": 0.10869574999999543
                },
                {
                    "name": "E5",
                    "midi": 76,
                    "time": 85.43485950000023,
                    "velocity": 0.3700787401574803,
                    "duration": 0.10869574999999543
                },
                {
                    "name": "D5",
                    "midi": 74,
                    "time": 85.54355525000022,
                    "velocity": 0.3779527559055118,
                    "duration": 0.10869574999999543
                },
                {
                    "name": "F#5",
                    "midi": 78,
                    "time": 85.65225100000022,
                    "velocity": 0.3937007874015748,
                    "duration": 0.10869574999999543
                },
                {
                    "name": "G5",
                    "midi": 79,
                    "time": 85.76094675000022,
                    "velocity": 0.4015748031496063,
                    "duration": 0.10869574999999543
                },
                {
                    "name": "A5",
                    "midi": 81,
                    "time": 85.86964250000021,
                    "velocity": 0.4094488188976378,
                    "duration": 0.10869574999999543
                },
                {
                    "name": "G5",
                    "midi": 79,
                    "time": 85.9783382500002,
                    "velocity": 0.41732283464566927,
                    "duration": 0.10869574999999543
                },
                {
                    "name": "A#5",
                    "midi": 82,
                    "time": 86.0870340000002,
                    "velocity": 0.4251968503937008,
                    "duration": 0.10869574999999543
                },
                {
                    "name": "B5",
                    "midi": 83,
                    "time": 86.1957297500002,
                    "velocity": 0.4330708661417323,
                    "duration": 0.10869574999999543
                },
                {
                    "name": "C6",
                    "midi": 84,
                    "time": 86.30442550000019,
                    "velocity": 0.4409448818897638,
                    "duration": 0.10869574999999543
                },
                {
                    "name": "B5",
                    "midi": 83,
                    "time": 86.41312125000019,
                    "velocity": 0.4566929133858268,
                    "duration": 0.10869574999999543
                },
                {
                    "name": "D6",
                    "midi": 86,
                    "time": 86.52181700000018,
                    "velocity": 0.4645669291338583,
                    "duration": 0.21739150000000507
                },
                {
                    "name": "D4",
                    "midi": 62,
                    "time": 86.73920850000019,
                    "velocity": 0.47244094488188976,
                    "duration": 0.07246383333333029
                },
                {
                    "name": "E4",
                    "midi": 64,
                    "time": 86.81167233333352,
                    "velocity": 0.49606299212598426,
                    "duration": 0.07246383333333029
                },
                {
                    "name": "F#4",
                    "midi": 66,
                    "time": 86.88413616666685,
                    "velocity": 0.5196850393700787,
                    "duration": 0.07246383333333029
                },
                {
                    "name": "G3",
                    "midi": 55,
                    "time": 86.95660000000018,
                    "velocity": 0.31496062992125984,
                    "duration": 0.14492766666666057
                },
                {
                    "name": "B4",
                    "midi": 71,
                    "time": 87.10152766666684,
                    "velocity": 0.25196850393700787,
                    "duration": 0.14492766666666057
                },
                {
                    "name": "G4",
                    "midi": 67,
                    "time": 87.2464553333335,
                    "velocity": 0.25196850393700787,
                    "duration": 0.14492766666666057
                },
                {
                    "name": "F#4",
                    "midi": 66,
                    "time": 87.39138300000016,
                    "velocity": 0.31496062992125984,
                    "duration": 0.14492766666666057
                },
                {
                    "name": "B4",
                    "midi": 71,
                    "time": 87.53631066666682,
                    "velocity": 0.25984251968503935,
                    "duration": 0.14492766666666057
                },
                {
                    "name": "G4",
                    "midi": 67,
                    "time": 87.68123833333348,
                    "velocity": 0.25984251968503935,
                    "duration": 0.14492766666666057
                },
                {
                    "name": "D#4",
                    "midi": 63,
                    "time": 87.82616600000014,
                    "velocity": 0.31496062992125984,
                    "duration": 0.14492766666666057
                },
                {
                    "name": "C5",
                    "midi": 72,
                    "time": 87.9710936666668,
                    "velocity": 0.2440944881889764,
                    "duration": 0.14492766666666057
                },
                {
                    "name": "G4",
                    "midi": 67,
                    "time": 88.11602133333346,
                    "velocity": 0.2440944881889764,
                    "duration": 0.14492766666666057
                },
                {
                    "name": "C4",
                    "midi": 60,
                    "time": 88.26094900000012,
                    "velocity": 0.31496062992125984,
                    "duration": 0.14492766666666057
                },
                {
                    "name": "C5",
                    "midi": 72,
                    "time": 88.40587666666679,
                    "velocity": 0.25984251968503935,
                    "duration": 0.14492766666666057
                },
                {
                    "name": "G4",
                    "midi": 67,
                    "time": 88.55080433333345,
                    "velocity": 0.25984251968503935,
                    "duration": 0.14492766666666057
                },
                {
                    "name": "B3",
                    "midi": 59,
                    "time": 88.6957320000001,
                    "velocity": 0.31496062992125984,
                    "duration": 0.14492766666666057
                },
                {
                    "name": "B4",
                    "midi": 71,
                    "time": 88.84065966666677,
                    "velocity": 0.2440944881889764,
                    "duration": 0.14492766666666057
                },
                {
                    "name": "G4",
                    "midi": 67,
                    "time": 88.98558733333343,
                    "velocity": 0.2440944881889764,
                    "duration": 0.14492766666666057
                },
                {
                    "name": "G3",
                    "midi": 55,
                    "time": 89.13051500000009,
                    "velocity": 0.31496062992125984,
                    "duration": 0.14492766666666057
                },
                {
                    "name": "B4",
                    "midi": 71,
                    "time": 89.27544266666675,
                    "velocity": 0.25196850393700787,
                    "duration": 0.14492766666666057
                },
                {
                    "name": "G4",
                    "midi": 67,
                    "time": 89.42037033333341,
                    "velocity": 0.25196850393700787,
                    "duration": 0.14492766666666057
                },
                {
                    "name": "C4",
                    "midi": 60,
                    "time": 89.56529800000007,
                    "velocity": 0.31496062992125984,
                    "duration": 0.14492766666666057
                },
                {
                    "name": "C5",
                    "midi": 72,
                    "time": 89.71022566666673,
                    "velocity": 0.25984251968503935,
                    "duration": 0.14492766666666057
                },
                {
                    "name": "G4",
                    "midi": 67,
                    "time": 89.85515333333339,
                    "velocity": 0.25984251968503935,
                    "duration": 0.14492766666666057
                },
                {
                    "name": "D#4",
                    "midi": 63,
                    "time": 90.00008100000005,
                    "velocity": 0.31496062992125984,
                    "duration": 0.14492766666666057
                },
                {
                    "name": "C5",
                    "midi": 72,
                    "time": 90.14500866666671,
                    "velocity": 0.25196850393700787,
                    "duration": 0.14492766666666057
                },
                {
                    "name": "G4",
                    "midi": 67,
                    "time": 90.28993633333337,
                    "velocity": 0.25196850393700787,
                    "duration": 0.14492766666666057
                },
                {
                    "name": "D4",
                    "midi": 62,
                    "time": 90.43486400000003,
                    "velocity": 0.31496062992125984,
                    "duration": 0.14492766666666057
                },
                {
                    "name": "A#4",
                    "midi": 70,
                    "time": 90.5797916666667,
                    "velocity": 0.25196850393700787,
                    "duration": 0.14492766666666057
                },
                {
                    "name": "G4",
                    "midi": 67,
                    "time": 90.72471933333335,
                    "velocity": 0.25196850393700787,
                    "duration": 0.14492766666666057
                },
                {
                    "name": "D4",
                    "midi": 62,
                    "time": 90.86964700000001,
                    "velocity": 0.31496062992125984,
                    "duration": 0.14492766666666057
                },
                {
                    "name": "B4",
                    "midi": 71,
                    "time": 91.01457466666668,
                    "velocity": 0.28346456692913385,
                    "duration": 0.14492766666666057
                },
                {
                    "name": "G4",
                    "midi": 67,
                    "time": 91.15950233333334,
                    "velocity": 0.28346456692913385,
                    "duration": 0.14492766666666057
                },
                {
                    "name": "D4",
                    "midi": 62,
                    "time": 91.30443,
                    "velocity": 0.31496062992125984,
                    "duration": 0.14492766666666057
                },
                {
                    "name": "C5",
                    "midi": 72,
                    "time": 91.44935766666666,
                    "velocity": 0.25984251968503935,
                    "duration": 0.14492766666666057
                },
                {
                    "name": "A4",
                    "midi": 69,
                    "time": 91.59428533333332,
                    "velocity": 0.25984251968503935,
                    "duration": 0.14492766666666057
                },
                {
                    "name": "D3",
                    "midi": 50,
                    "time": 91.73921299999998,
                    "velocity": 0.31496062992125984,
                    "duration": 0.14492766666666057
                },
                {
                    "name": "D4",
                    "midi": 62,
                    "time": 91.88414066666664,
                    "velocity": 0.2677165354330709,
                    "duration": 0.14492766666666057
                },
                {
                    "name": "C4",
                    "midi": 60,
                    "time": 92.0290683333333,
                    "velocity": 0.2677165354330709,
                    "duration": 0.14492766666666057
                },
                {
                    "name": "G2",
                    "midi": 43,
                    "time": 92.17399599999996,
                    "velocity": 0.31496062992125984,
                    "duration": 0.10869574999999543
                },
                {
                    "name": "G3",
                    "midi": 55,
                    "time": 92.28269174999996,
                    "velocity": 0.25984251968503935,
                    "duration": 0.10869574999999543
                },
                {
                    "name": "B3",
                    "midi": 59,
                    "time": 92.39138749999995,
                    "velocity": 0.25984251968503935,
                    "duration": 0.10869574999999543
                },
                {
                    "name": "G3",
                    "midi": 55,
                    "time": 92.50008324999995,
                    "velocity": 0.25984251968503935,
                    "duration": 0.10869574999999543
                },
                {
                    "name": "F#3",
                    "midi": 54,
                    "time": 92.60877899999994,
                    "velocity": 0.3228346456692913,
                    "duration": 0.10869574999999543
                },
                {
                    "name": "G3",
                    "midi": 55,
                    "time": 92.71747474999994,
                    "velocity": 0.2755905511811024,
                    "duration": 0.10869574999999543
                },
                {
                    "name": "G4",
                    "midi": 67,
                    "time": 92.82617049999993,
                    "velocity": 0.2755905511811024,
                    "duration": 0.10869574999999543
                },
                {
                    "name": "G3",
                    "midi": 55,
                    "time": 92.93486624999993,
                    "velocity": 0.2755905511811024,
                    "duration": 0.10869574999999543
                },
                {
                    "name": "E3",
                    "midi": 52,
                    "time": 93.04356199999992,
                    "velocity": 0.33070866141732286,
                    "duration": 0.10869574999999543
                },
                {
                    "name": "G3",
                    "midi": 55,
                    "time": 93.15225774999992,
                    "velocity": 0.28346456692913385,
                    "duration": 0.10869574999999543
                },
                {
                    "name": "G4",
                    "midi": 67,
                    "time": 93.26095349999991,
                    "velocity": 0.28346456692913385,
                    "duration": 0.10869574999999543
                },
                {
                    "name": "G3",
                    "midi": 55,
                    "time": 93.36964924999991,
                    "velocity": 0.29133858267716534,
                    "duration": 0.10869574999999543
                },
                {
                    "name": "C3",
                    "midi": 48,
                    "time": 93.4783449999999,
                    "velocity": 0.3464566929133858,
                    "duration": 0.10869574999999543
                },
                {
                    "name": "G3",
                    "midi": 55,
                    "time": 93.5870407499999,
                    "velocity": 0.29133858267716534,
                    "duration": 0.10869574999999543
                },
                {
                    "name": "E4",
                    "midi": 64,
                    "time": 93.6957364999999,
                    "velocity": 0.29133858267716534,
                    "duration": 0.10869574999999543
                },
                {
                    "name": "G3",
                    "midi": 55,
                    "time": 93.80443224999989,
                    "velocity": 0.2992125984251969,
                    "duration": 0.10869574999999543
                },
                {
                    "name": "B2",
                    "midi": 47,
                    "time": 93.91312799999989,
                    "velocity": 0.3543307086614173,
                    "duration": 0.10869574999999543
                },
                {
                    "name": "G3",
                    "midi": 55,
                    "time": 94.02182374999988,
                    "velocity": 0.29133858267716534,
                    "duration": 0.10869574999999543
                },
                {
                    "name": "D4",
                    "midi": 62,
                    "time": 94.13051949999988,
                    "velocity": 0.29133858267716534,
                    "duration": 0.10869574999999543
                },
                {
                    "name": "G3",
                    "midi": 55,
                    "time": 94.23921524999987,
                    "velocity": 0.29133858267716534,
                    "duration": 0.10869574999999543
                },
                {
                    "name": "G2",
                    "midi": 43,
                    "time": 94.34791099999987,
                    "velocity": 0.36220472440944884,
                    "duration": 0.10869574999999543
                },
                {
                    "name": "G3",
                    "midi": 55,
                    "time": 94.45660674999986,
                    "velocity": 0.30708661417322836,
                    "duration": 0.10869574999999543
                },
                {
                    "name": "B3",
                    "midi": 59,
                    "time": 94.56530249999986,
                    "velocity": 0.31496062992125984,
                    "duration": 0.10869574999999543
                },
                {
                    "name": "G3",
                    "midi": 55,
                    "time": 94.67399824999985,
                    "velocity": 0.31496062992125984,
                    "duration": 0.10869574999999543
                },
                {
                    "name": "C3",
                    "midi": 48,
                    "time": 94.78269399999985,
                    "velocity": 0.3779527559055118,
                    "duration": 0.10869574999999543
                },
                {
                    "name": "G3",
                    "midi": 55,
                    "time": 94.89138974999985,
                    "velocity": 0.33070866141732286,
                    "duration": 0.10869574999999543
                },
                {
                    "name": "E4",
                    "midi": 64,
                    "time": 95.00008549999984,
                    "velocity": 0.33070866141732286,
                    "duration": 0.10869574999999543
                },
                {
                    "name": "G3",
                    "midi": 55,
                    "time": 95.10878124999984,
                    "velocity": 0.33070866141732286,
                    "duration": 0.10869574999999543
                },
                {
                    "name": "E3",
                    "midi": 52,
                    "time": 95.21747699999983,
                    "velocity": 0.4015748031496063,
                    "duration": 0.10869574999999543
                },
                {
                    "name": "G3",
                    "midi": 55,
                    "time": 95.32617274999983,
                    "velocity": 0.33858267716535434,
                    "duration": 0.10869574999999543
                },
                {
                    "name": "G4",
                    "midi": 67,
                    "time": 95.43486849999982,
                    "velocity": 0.33858267716535434,
                    "duration": 0.10869574999999543
                },
                {
                    "name": "G3",
                    "midi": 55,
                    "time": 95.54356424999982,
                    "velocity": 0.33858267716535434,
                    "duration": 0.10869574999999543
                },
                {
                    "name": "D3",
                    "midi": 50,
                    "time": 95.65225999999981,
                    "velocity": 0.3937007874015748,
                    "duration": 0.10869574999999543
                },
                {
                    "name": "E3",
                    "midi": 52,
                    "time": 95.76095574999981,
                    "velocity": 0.3464566929133858,
                    "duration": 0.10869574999999543
                },
                {
                    "name": "F#3",
                    "midi": 54,
                    "time": 95.8696514999998,
                    "velocity": 0.3779527559055118,
                    "duration": 0.10869574999999543
                },
                {
                    "name": "G3",
                    "midi": 55,
                    "time": 95.9783472499998,
                    "velocity": 0.4015748031496063,
                    "duration": 0.10869574999999543
                },
                {
                    "name": "A3",
                    "midi": 57,
                    "time": 96.0870429999998,
                    "velocity": 0.4251968503937008,
                    "duration": 0.10869574999999543
                },
                {
                    "name": "B3",
                    "midi": 59,
                    "time": 96.19573874999979,
                    "velocity": 0.4330708661417323,
                    "duration": 0.10869574999999543
                },
                {
                    "name": "A3",
                    "midi": 57,
                    "time": 96.30443449999979,
                    "velocity": 0.4330708661417323,
                    "duration": 0.10869574999999543
                },
                {
                    "name": "G3",
                    "midi": 55,
                    "time": 96.41313024999978,
                    "velocity": 0.4251968503937008,
                    "duration": 0.10869574999999543
                },
                {
                    "name": "F#3",
                    "midi": 54,
                    "time": 96.52182599999978,
                    "velocity": 0.4251968503937008,
                    "duration": 0.10869574999999543
                },
                {
                    "name": "G3",
                    "midi": 55,
                    "time": 96.63052174999977,
                    "velocity": 0.3858267716535433,
                    "duration": 0.10869574999999543
                },
                {
                    "name": "F#3",
                    "midi": 54,
                    "time": 96.73921749999977,
                    "velocity": 0.3858267716535433,
                    "duration": 0.10869574999999543
                },
                {
                    "name": "E3",
                    "midi": 52,
                    "time": 96.84791324999976,
                    "velocity": 0.3858267716535433,
                    "duration": 0.10869574999999543
                },
                {
                    "name": "D3",
                    "midi": 50,
                    "time": 96.95660899999976,
                    "velocity": 0.4251968503937008,
                    "duration": 0.10869574999999543
                },
                {
                    "name": "C3",
                    "midi": 48,
                    "time": 97.06530474999975,
                    "velocity": 0.3937007874015748,
                    "duration": 0.10869574999999543
                },
                {
                    "name": "B2",
                    "midi": 47,
                    "time": 97.17400049999975,
                    "velocity": 0.4645669291338583,
                    "duration": 0.10869574999999543
                },
                {
                    "name": "A2",
                    "midi": 45,
                    "time": 97.28269624999974,
                    "velocity": 0.5196850393700787,
                    "duration": 0.10869574999999543
                },
                {
                    "name": "G1",
                    "midi": 31,
                    "time": 97.39139199999974,
                    "velocity": 0.5196850393700787,
                    "duration": 0.10869574999999543
                },
                {
                    "name": "G2",
                    "midi": 43,
                    "time": 97.50008774999974,
                    "velocity": 0.4409448818897638,
                    "duration": 0.10869574999999543
                },
                {
                    "name": "G1",
                    "midi": 31,
                    "time": 97.60878349999973,
                    "velocity": 0.5196850393700787,
                    "duration": 0.10869574999999543
                },
                {
                    "name": "G2",
                    "midi": 43,
                    "time": 97.71747924999973,
                    "velocity": 0.4409448818897638,
                    "duration": 0.10869574999999543
                },
                {
                    "name": "G1",
                    "midi": 31,
                    "time": 97.82617499999972,
                    "velocity": 0.5196850393700787,
                    "duration": 0.10869574999999543
                },
                {
                    "name": "G2",
                    "midi": 43,
                    "time": 97.93487074999972,
                    "velocity": 0.44881889763779526,
                    "duration": 0.10869574999999543
                },
                {
                    "name": "G1",
                    "midi": 31,
                    "time": 98.04356649999971,
                    "velocity": 0.5196850393700787,
                    "duration": 0.10869574999999543
                },
                {
                    "name": "G2",
                    "midi": 43,
                    "time": 98.15226224999971,
                    "velocity": 0.44881889763779526,
                    "duration": 0.10869574999999543
                },
                {
                    "name": "G1",
                    "midi": 31,
                    "time": 98.2609579999997,
                    "velocity": 0.5196850393700787,
                    "duration": 0.10869574999999543
                },
                {
                    "name": "G2",
                    "midi": 43,
                    "time": 98.3696537499997,
                    "velocity": 0.44881889763779526,
                    "duration": 0.10869574999999543
                },
                {
                    "name": "G1",
                    "midi": 31,
                    "time": 98.4783494999997,
                    "velocity": 0.5196850393700787,
                    "duration": 0.10869574999999543
                },
                {
                    "name": "G2",
                    "midi": 43,
                    "time": 98.58704524999969,
                    "velocity": 0.4566929133858268,
                    "duration": 0.10869574999999543
                },
                {
                    "name": "G1",
                    "midi": 31,
                    "time": 98.69574099999969,
                    "velocity": 0.5196850393700787,
                    "duration": 0.10869574999999543
                },
                {
                    "name": "G2",
                    "midi": 43,
                    "time": 98.80443674999968,
                    "velocity": 0.4645669291338583,
                    "duration": 0.10869574999999543
                },
                {
                    "name": "G#1",
                    "midi": 32,
                    "time": 98.91313249999968,
                    "velocity": 0.3543307086614173,
                    "duration": 0.10869574999999543
                },
                {
                    "name": "G#2",
                    "midi": 44,
                    "time": 99.02182824999967,
                    "velocity": 0.2677165354330709,
                    "duration": 0.10869574999999543
                },
                {
                    "name": "A1",
                    "midi": 33,
                    "time": 99.13052399999967,
                    "velocity": 0.33858267716535434,
                    "duration": 0.10869574999999543
                },
                {
                    "name": "A2",
                    "midi": 45,
                    "time": 99.23921974999966,
                    "velocity": 0.25984251968503935,
                    "duration": 0.10869574999999543
                },
                {
                    "name": "G#1",
                    "midi": 32,
                    "time": 99.34791549999966,
                    "velocity": 0.33858267716535434,
                    "duration": 0.10869574999999543
                },
                {
                    "name": "G#2",
                    "midi": 44,
                    "time": 99.45661124999965,
                    "velocity": 0.25984251968503935,
                    "duration": 0.10869574999999543
                },
                {
                    "name": "A1",
                    "midi": 33,
                    "time": 99.56530699999965,
                    "velocity": 0.33858267716535434,
                    "duration": 0.10869574999999543
                },
                {
                    "name": "A2",
                    "midi": 45,
                    "time": 99.67400274999964,
                    "velocity": 0.2677165354330709,
                    "duration": 0.10869574999999543
                },
                {
                    "name": "C2",
                    "midi": 36,
                    "time": 99.78269849999964,
                    "velocity": 0.33858267716535434,
                    "duration": 0.10869574999999543
                },
                {
                    "name": "C3",
                    "midi": 48,
                    "time": 99.89139424999964,
                    "velocity": 0.2755905511811024,
                    "duration": 0.10869574999999543
                },
                {
                    "name": "C#2",
                    "midi": 37,
                    "time": 100.00008999999963,
                    "velocity": 0.33858267716535434,
                    "duration": 0.10869574999999543
                },
                {
                    "name": "C#3",
                    "midi": 49,
                    "time": 100.10878574999963,
                    "velocity": 0.25984251968503935,
                    "duration": 0.10869574999999543
                },
                {
                    "name": "E2",
                    "midi": 40,
                    "time": 100.21748149999962,
                    "velocity": 0.33858267716535434,
                    "duration": 0.10869574999999543
                },
                {
                    "name": "E3",
                    "midi": 52,
                    "time": 100.32617724999962,
                    "velocity": 0.25984251968503935,
                    "duration": 0.10869574999999543
                },
                {
                    "name": "D2",
                    "midi": 38,
                    "time": 100.43487299999961,
                    "velocity": 0.33858267716535434,
                    "duration": 0.10869574999999543
                },
                {
                    "name": "D3",
                    "midi": 50,
                    "time": 100.54356874999961,
                    "velocity": 0.2677165354330709,
                    "duration": 0.10869574999999543
                },
                {
                    "name": "D2",
                    "midi": 38,
                    "time": 100.6522644999996,
                    "velocity": 0.33858267716535434,
                    "duration": 0.10869574999999543
                },
                {
                    "name": "D3",
                    "midi": 50,
                    "time": 100.7609602499996,
                    "velocity": 0.2755905511811024,
                    "duration": 0.10869574999999543
                },
                {
                    "name": "D2",
                    "midi": 38,
                    "time": 100.8696559999996,
                    "velocity": 0.3700787401574803,
                    "duration": 0.10869574999999543
                },
                {
                    "name": "D3",
                    "midi": 50,
                    "time": 100.97835174999959,
                    "velocity": 0.28346456692913385,
                    "duration": 0.10869574999999543
                },
                {
                    "name": "G2",
                    "midi": 43,
                    "time": 101.08704749999958,
                    "velocity": 0.3779527559055118,
                    "duration": 0.10869574999999543
                },
                {
                    "name": "G3",
                    "midi": 55,
                    "time": 101.19574324999958,
                    "velocity": 0.29133858267716534,
                    "duration": 0.10869574999999543
                },
                {
                    "name": "D2",
                    "midi": 38,
                    "time": 101.30443899999958,
                    "velocity": 0.3937007874015748,
                    "duration": 0.10869574999999543
                },
                {
                    "name": "D3",
                    "midi": 50,
                    "time": 101.41313474999957,
                    "velocity": 0.31496062992125984,
                    "duration": 0.1068841541666643
                },
                {
                    "name": "D3",
                    "midi": 50,
                    "time": 101.52183049999957,
                    "velocity": 0.41732283464566927,
                    "duration": 0.10869574999999543
                },
                {
                    "name": "D4",
                    "midi": 62,
                    "time": 101.63052624999956,
                    "velocity": 0.3464566929133858,
                    "duration": 0.10869574999999543
                },
                {
                    "name": "D2",
                    "midi": 38,
                    "time": 101.73922199999956,
                    "velocity": 0.4251968503937008,
                    "duration": 0.10869574999999543
                },
                {
                    "name": "D3",
                    "midi": 50,
                    "time": 101.84791774999955,
                    "velocity": 0.33070866141732286,
                    "duration": 0.10869574999999543
                },
                {
                    "name": "G2",
                    "midi": 43,
                    "time": 101.95661349999955,
                    "velocity": 0.44881889763779526,
                    "duration": 0.10869574999999543
                },
                {
                    "name": "G3",
                    "midi": 55,
                    "time": 102.06530924999954,
                    "velocity": 0.3464566929133858,
                    "duration": 0.10869574999999543
                },
                {
                    "name": "D2",
                    "midi": 38,
                    "time": 102.17400499999954,
                    "velocity": 0.4566929133858268,
                    "duration": 0.10869574999999543
                },
                {
                    "name": "D3",
                    "midi": 50,
                    "time": 102.28270074999953,
                    "velocity": 0.3700787401574803,
                    "duration": 0.1068841541666643
                },
                {
                    "name": "D3",
                    "midi": 50,
                    "time": 102.39139649999953,
                    "velocity": 0.48031496062992124,
                    "duration": 0.10869574999999543
                },
                {
                    "name": "D4",
                    "midi": 62,
                    "time": 102.50009224999953,
                    "velocity": 0.4015748031496063,
                    "duration": 0.10869574999999543
                },
                {
                    "name": "G2",
                    "midi": 43,
                    "time": 102.60878799999952,
                    "velocity": 0.4645669291338583,
                    "duration": 0.10869574999999543
                },
                {
                    "name": "G3",
                    "midi": 55,
                    "time": 102.71748374999952,
                    "velocity": 0.3937007874015748,
                    "duration": 0.10869574999999543
                },
                {
                    "name": "D2",
                    "midi": 38,
                    "time": 102.82617949999951,
                    "velocity": 0.48031496062992124,
                    "duration": 0.10869574999999543
                },
                {
                    "name": "D3",
                    "midi": 50,
                    "time": 102.93487524999951,
                    "velocity": 0.4015748031496063,
                    "duration": 0.10869574999999543
                },
                {
                    "name": "F#2",
                    "midi": 42,
                    "time": 103.0435709999995,
                    "velocity": 0.5039370078740157,
                    "duration": 0.10869574999999543
                },
                {
                    "name": "F#3",
                    "midi": 54,
                    "time": 103.1522667499995,
                    "velocity": 0.4330708661417323,
                    "duration": 0.10869574999999543
                },
                {
                    "name": "A2",
                    "midi": 45,
                    "time": 103.2609624999995,
                    "velocity": 0.5275590551181102,
                    "duration": 0.10869574999999543
                },
                {
                    "name": "A3",
                    "midi": 57,
                    "time": 103.36965824999949,
                    "velocity": 0.4566929133858268,
                    "duration": 0.10869574999999543
                },
                {
                    "name": "G2",
                    "midi": 43,
                    "time": 103.47835399999948,
                    "velocity": 0.5354330708661418,
                    "duration": 0.10869574999999543
                },
                {
                    "name": "G3",
                    "midi": 55,
                    "time": 103.58704974999948,
                    "velocity": 0.49606299212598426,
                    "duration": 0.10869574999999543
                },
                {
                    "name": "D2",
                    "midi": 38,
                    "time": 103.69574549999948,
                    "velocity": 0.5590551181102362,
                    "duration": 0.10869574999999543
                },
                {
                    "name": "D3",
                    "midi": 50,
                    "time": 103.80444124999947,
                    "velocity": 0.49606299212598426,
                    "duration": 0.10869574999999543
                },
                {
                    "name": "F#1",
                    "midi": 30,
                    "time": 103.91313699999947,
                    "velocity": 0.5826771653543307,
                    "duration": 0.10869574999999543
                },
                {
                    "name": "F#2",
                    "midi": 42,
                    "time": 104.02183274999946,
                    "velocity": 0.5039370078740157,
                    "duration": 0.10869574999999543
                },
                {
                    "name": "A1",
                    "midi": 33,
                    "time": 104.13052849999946,
                    "velocity": 0.5984251968503937,
                    "duration": 0.10869574999999543
                },
                {
                    "name": "A2",
                    "midi": 45,
                    "time": 104.23922424999945,
                    "velocity": 0.5275590551181102,
                    "duration": 0.10869574999999543
                },
                {
                    "name": "G1",
                    "midi": 31,
                    "time": 104.34791999999945,
                    "velocity": 0.5433070866141733,
                    "duration": 0.16304362500000025
                },
                {
                    "name": "G2",
                    "midi": 43,
                    "time": 104.34791999999945,
                    "velocity": 0.6377952755905512,
                    "duration": 0.16304362500000025
                },
                {
                    "name": "A1",
                    "midi": 33,
                    "time": 104.78270299999944,
                    "velocity": 0.5433070866141733,
                    "duration": 0.16304362500000025
                },
                {
                    "name": "A2",
                    "midi": 45,
                    "time": 104.78270299999944,
                    "velocity": 0.6377952755905512,
                    "duration": 0.16304362500000025
                },
                {
                    "name": "A#1",
                    "midi": 34,
                    "time": 105.21748599999944,
                    "velocity": 0.5669291338582677,
                    "duration": 0.7608702499999964
                },
                {
                    "name": "A#2",
                    "midi": 46,
                    "time": 105.21748599999944,
                    "velocity": 0.6771653543307087,
                    "duration": 0.7608702499999964
                },
                {
                    "name": "A#2",
                    "midi": 46,
                    "time": 105.97835624999944,
                    "velocity": 0.3937007874015748,
                    "duration": 0.10869574999999543
                },
                {
                    "name": "A#3",
                    "midi": 58,
                    "time": 106.08705199999943,
                    "velocity": 0.5590551181102362,
                    "duration": 0.3260872500000005
                },
                {
                    "name": "A#3",
                    "midi": 58,
                    "time": 106.41313924999943,
                    "velocity": 0.4566929133858268,
                    "duration": 0.10869574999999543
                },
                {
                    "name": "A#3",
                    "midi": 58,
                    "time": 106.52183499999943,
                    "velocity": 0.5118110236220472,
                    "duration": 0.21739150000000507
                },
                {
                    "name": "D3",
                    "midi": 50,
                    "time": 107.71748824999943,
                    "velocity": 0.3937007874015748,
                    "duration": 0.10869574999999543
                },
                {
                    "name": "D4",
                    "midi": 62,
                    "time": 107.82618399999943,
                    "velocity": 0.5590551181102362,
                    "duration": 0.3260872500000005
                },
                {
                    "name": "D4",
                    "midi": 62,
                    "time": 108.15227124999943,
                    "velocity": 0.4566929133858268,
                    "duration": 0.10869574999999543
                },
                {
                    "name": "D4",
                    "midi": 62,
                    "time": 108.26096699999943,
                    "velocity": 0.5039370078740157,
                    "duration": 0.21739150000000507
                },
                {
                    "name": "A#1",
                    "midi": 34,
                    "time": 109.45662024999943,
                    "velocity": 0.7559055118110236,
                    "duration": 0.10869574999999543
                },
                {
                    "name": "F3",
                    "midi": 53,
                    "time": 109.56531599999943,
                    "velocity": 0.6141732283464567,
                    "duration": 0.3260872500000005
                },
                {
                    "name": "D4",
                    "midi": 62,
                    "time": 109.56531599999943,
                    "velocity": 0.7322834645669292,
                    "duration": 0.3260872500000005
                },
                {
                    "name": "A#3",
                    "midi": 58,
                    "time": 109.56531599999943,
                    "velocity": 0.6141732283464567,
                    "duration": 0.3260872500000005
                },
                {
                    "name": "A#3",
                    "midi": 58,
                    "time": 109.89140324999943,
                    "velocity": 0.5433070866141733,
                    "duration": 0.10869574999999543
                },
                {
                    "name": "D4",
                    "midi": 62,
                    "time": 109.89140324999943,
                    "velocity": 0.6614173228346457,
                    "duration": 0.10869574999999543
                },
                {
                    "name": "F3",
                    "midi": 53,
                    "time": 109.89140324999943,
                    "velocity": 0.5433070866141733,
                    "duration": 0.10869574999999543
                },
                {
                    "name": "A#3",
                    "midi": 58,
                    "time": 110.00009899999942,
                    "velocity": 0.6141732283464567,
                    "duration": 0.16304362500000025
                },
                {
                    "name": "F3",
                    "midi": 53,
                    "time": 110.00009899999942,
                    "velocity": 0.6141732283464567,
                    "duration": 0.16304362500000025
                },
                {
                    "name": "D4",
                    "midi": 62,
                    "time": 110.00009899999942,
                    "velocity": 0.7322834645669292,
                    "duration": 0.16304362500000025
                },
                {
                    "name": "A#3",
                    "midi": 58,
                    "time": 110.21749049999943,
                    "velocity": 0.5905511811023622,
                    "duration": 0.04076090625000006
                },
                {
                    "name": "D4",
                    "midi": 62,
                    "time": 110.21749049999943,
                    "velocity": 0.6929133858267716,
                    "duration": 0.04076090625000006
                },
                {
                    "name": "F3",
                    "midi": 53,
                    "time": 110.21749049999943,
                    "velocity": 0.5905511811023622,
                    "duration": 0.04076090625000006
                },
                {
                    "name": "A#3",
                    "midi": 58,
                    "time": 110.32618624999942,
                    "velocity": 0.6141732283464567,
                    "duration": 0.04076090625000006
                },
                {
                    "name": "F3",
                    "midi": 53,
                    "time": 110.32618624999942,
                    "velocity": 0.6141732283464567,
                    "duration": 0.04076090625000006
                },
                {
                    "name": "D4",
                    "midi": 62,
                    "time": 110.32618624999942,
                    "velocity": 0.7322834645669292,
                    "duration": 0.04076090625000006
                },
                {
                    "name": "D4",
                    "midi": 62,
                    "time": 110.43488199999942,
                    "velocity": 0.7322834645669292,
                    "duration": 0.10869574999999543
                },
                {
                    "name": "F3",
                    "midi": 53,
                    "time": 110.43488199999942,
                    "velocity": 0.6141732283464567,
                    "duration": 0.10869574999999543
                },
                {
                    "name": "A#3",
                    "midi": 58,
                    "time": 110.43488199999942,
                    "velocity": 0.6141732283464567,
                    "duration": 0.10869574999999543
                },
                {
                    "name": "D3",
                    "midi": 50,
                    "time": 110.65227349999941,
                    "velocity": 0.6141732283464567,
                    "duration": 0.10869574999999543
                },
                {
                    "name": "A#3",
                    "midi": 58,
                    "time": 110.65227349999941,
                    "velocity": 0.7322834645669292,
                    "duration": 0.10869574999999543
                },
                {
                    "name": "F3",
                    "midi": 53,
                    "time": 110.65227349999941,
                    "velocity": 0.6141732283464567,
                    "duration": 0.10869574999999543
                },
                {
                    "name": "A#1",
                    "midi": 34,
                    "time": 111.1957522499994,
                    "velocity": 0.7559055118110236,
                    "duration": 0.10869574999999543
                },
                {
                    "name": "D4",
                    "midi": 62,
                    "time": 111.3044479999994,
                    "velocity": 0.6141732283464567,
                    "duration": 0.3260872500000005
                },
                {
                    "name": "A#3",
                    "midi": 58,
                    "time": 111.3044479999994,
                    "velocity": 0.6141732283464567,
                    "duration": 0.3260872500000005
                },
                {
                    "name": "F4",
                    "midi": 65,
                    "time": 111.3044479999994,
                    "velocity": 0.7322834645669292,
                    "duration": 0.3260872500000005
                },
                {
                    "name": "F3",
                    "midi": 53,
                    "time": 111.3044479999994,
                    "velocity": 0.6141732283464567,
                    "duration": 0.3260872500000005
                },
                {
                    "name": "F3",
                    "midi": 53,
                    "time": 111.6305352499994,
                    "velocity": 0.5433070866141733,
                    "duration": 0.10869574999999543
                },
                {
                    "name": "F4",
                    "midi": 65,
                    "time": 111.6305352499994,
                    "velocity": 0.6614173228346457,
                    "duration": 0.10869574999999543
                },
                {
                    "name": "D4",
                    "midi": 62,
                    "time": 111.6305352499994,
                    "velocity": 0.5433070866141733,
                    "duration": 0.10869574999999543
                },
                {
                    "name": "A#3",
                    "midi": 58,
                    "time": 111.6305352499994,
                    "velocity": 0.5433070866141733,
                    "duration": 0.10869574999999543
                },
                {
                    "name": "A#3",
                    "midi": 58,
                    "time": 111.73923099999939,
                    "velocity": 0.6141732283464567,
                    "duration": 0.16304362500000025
                },
                {
                    "name": "F4",
                    "midi": 65,
                    "time": 111.73923099999939,
                    "velocity": 0.7322834645669292,
                    "duration": 0.16304362500000025
                },
                {
                    "name": "D4",
                    "midi": 62,
                    "time": 111.73923099999939,
                    "velocity": 0.6141732283464567,
                    "duration": 0.16304362500000025
                },
                {
                    "name": "F3",
                    "midi": 53,
                    "time": 111.73923099999939,
                    "velocity": 0.6141732283464567,
                    "duration": 0.16304362500000025
                },
                {
                    "name": "F3",
                    "midi": 53,
                    "time": 111.9566224999994,
                    "velocity": 0.5905511811023622,
                    "duration": 0.04076090625000006
                },
                {
                    "name": "A#3",
                    "midi": 58,
                    "time": 111.9566224999994,
                    "velocity": 0.5905511811023622,
                    "duration": 0.04076090625000006
                },
                {
                    "name": "F4",
                    "midi": 65,
                    "time": 111.9566224999994,
                    "velocity": 0.6929133858267716,
                    "duration": 0.04076090625000006
                },
                {
                    "name": "D4",
                    "midi": 62,
                    "time": 111.9566224999994,
                    "velocity": 0.5905511811023622,
                    "duration": 0.04076090625000006
                },
                {
                    "name": "A#3",
                    "midi": 58,
                    "time": 112.0653182499994,
                    "velocity": 0.6141732283464567,
                    "duration": 0.04076090625000006
                },
                {
                    "name": "F4",
                    "midi": 65,
                    "time": 112.0653182499994,
                    "velocity": 0.7322834645669292,
                    "duration": 0.04076090625000006
                },
                {
                    "name": "F3",
                    "midi": 53,
                    "time": 112.0653182499994,
                    "velocity": 0.6141732283464567,
                    "duration": 0.04076090625000006
                },
                {
                    "name": "D4",
                    "midi": 62,
                    "time": 112.0653182499994,
                    "velocity": 0.6141732283464567,
                    "duration": 0.04076090625000006
                },
                {
                    "name": "F3",
                    "midi": 53,
                    "time": 112.17401399999939,
                    "velocity": 0.6141732283464567,
                    "duration": 0.10869574999999543
                },
                {
                    "name": "D4",
                    "midi": 62,
                    "time": 112.17401399999939,
                    "velocity": 0.6141732283464567,
                    "duration": 0.10869574999999543
                },
                {
                    "name": "F4",
                    "midi": 65,
                    "time": 112.17401399999939,
                    "velocity": 0.7322834645669292,
                    "duration": 0.10869574999999543
                },
                {
                    "name": "A#3",
                    "midi": 58,
                    "time": 112.17401399999939,
                    "velocity": 0.6141732283464567,
                    "duration": 0.10869574999999543
                },
                {
                    "name": "A#3",
                    "midi": 58,
                    "time": 112.39140549999938,
                    "velocity": 0.6141732283464567,
                    "duration": 0.10869574999999543
                },
                {
                    "name": "D4",
                    "midi": 62,
                    "time": 112.39140549999938,
                    "velocity": 0.7322834645669292,
                    "duration": 0.10869574999999543
                },
                {
                    "name": "F3",
                    "midi": 53,
                    "time": 112.39140549999938,
                    "velocity": 0.6141732283464567,
                    "duration": 0.10869574999999543
                },
                {
                    "name": "E4",
                    "midi": 64,
                    "time": 113.26097149999937,
                    "velocity": 0.2283464566929134,
                    "duration": 0.21739150000000507
                },
                {
                    "name": "F4",
                    "midi": 65,
                    "time": 113.47836299999938,
                    "velocity": 0.2283464566929134,
                    "duration": 0.21739150000000507
                },
                {
                    "name": "B3",
                    "midi": 59,
                    "time": 113.69575449999938,
                    "velocity": 0.31496062992125984,
                    "duration": 0.21739150000000507
                },
                {
                    "name": "C4",
                    "midi": 60,
                    "time": 113.91314599999939,
                    "velocity": 0.31496062992125984,
                    "duration": 0.21739150000000507
                },
                {
                    "name": "F#3",
                    "midi": 54,
                    "time": 114.13053749999939,
                    "velocity": 0.28346456692913385,
                    "duration": 0.21739150000000507
                },
                {
                    "name": "G3",
                    "midi": 55,
                    "time": 114.3479289999994,
                    "velocity": 0.28346456692913385,
                    "duration": 0.21739150000000507
                },
                {
                    "name": "D#3",
                    "midi": 51,
                    "time": 114.5653204999994,
                    "velocity": 0.31496062992125984,
                    "duration": 0.21739150000000507
                },
                {
                    "name": "D3",
                    "midi": 50,
                    "time": 114.7827119999994,
                    "velocity": 0.31496062992125984,
                    "duration": 0.21739150000000507
                },
                {
                    "name": "C#3",
                    "midi": 49,
                    "time": 115.00010349999941,
                    "velocity": 0.2755905511811024,
                    "duration": 0.21739150000000507
                },
                {
                    "name": "C3",
                    "midi": 48,
                    "time": 115.21749499999942,
                    "velocity": 0.2755905511811024,
                    "duration": 0.21739150000000507
                },
                {
                    "name": "F2",
                    "midi": 41,
                    "time": 115.43488649999942,
                    "velocity": 0.31496062992125984,
                    "duration": 0.21739150000000507
                },
                {
                    "name": "A#2",
                    "midi": 46,
                    "time": 115.65227799999943,
                    "velocity": 0.2992125984251969,
                    "duration": 0.21739150000000507
                },
                {
                    "name": "D#2",
                    "midi": 39,
                    "time": 115.86966949999943,
                    "velocity": 0.23622047244094488,
                    "duration": 0.21739150000000507
                },
                {
                    "name": "F2",
                    "midi": 41,
                    "time": 116.08706099999944,
                    "velocity": 0.2125984251968504,
                    "duration": 0.21739150000000507
                },
                {
                    "name": "E5",
                    "midi": 76,
                    "time": 116.73923549999944,
                    "velocity": 0.2283464566929134,
                    "duration": 0.21739150000000507
                },
                {
                    "name": "F5",
                    "midi": 77,
                    "time": 116.95662699999944,
                    "velocity": 0.2283464566929134,
                    "duration": 0.21739150000000507
                },
                {
                    "name": "B4",
                    "midi": 71,
                    "time": 117.17401849999945,
                    "velocity": 0.31496062992125984,
                    "duration": 0.21739150000000507
                },
                {
                    "name": "C5",
                    "midi": 72,
                    "time": 117.39140999999945,
                    "velocity": 0.31496062992125984,
                    "duration": 0.21739150000000507
                },
                {
                    "name": "F#4",
                    "midi": 66,
                    "time": 117.60880149999946,
                    "velocity": 0.28346456692913385,
                    "duration": 0.21739150000000507
                },
                {
                    "name": "G4",
                    "midi": 67,
                    "time": 117.82619299999946,
                    "velocity": 0.28346456692913385,
                    "duration": 0.21739150000000507
                },
                {
                    "name": "D#4",
                    "midi": 63,
                    "time": 118.04358449999947,
                    "velocity": 0.31496062992125984,
                    "duration": 0.21739150000000507
                },
                {
                    "name": "D4",
                    "midi": 62,
                    "time": 118.26097599999947,
                    "velocity": 0.31496062992125984,
                    "duration": 0.21739150000000507
                },
                {
                    "name": "C#4",
                    "midi": 61,
                    "time": 118.47836749999948,
                    "velocity": 0.2755905511811024,
                    "duration": 0.21739150000000507
                },
                {
                    "name": "C4",
                    "midi": 60,
                    "time": 118.69575899999948,
                    "velocity": 0.2755905511811024,
                    "duration": 0.21739150000000507
                },
                {
                    "name": "F3",
                    "midi": 53,
                    "time": 118.91315049999949,
                    "velocity": 0.31496062992125984,
                    "duration": 0.21739150000000507
                },
                {
                    "name": "A#3",
                    "midi": 58,
                    "time": 119.1305419999995,
                    "velocity": 0.28346456692913385,
                    "duration": 0.21739150000000507
                },
                {
                    "name": "F#3",
                    "midi": 54,
                    "time": 119.3479334999995,
                    "velocity": 0.33858267716535434,
                    "duration": 0.21739150000000507
                },
                {
                    "name": "F3",
                    "midi": 53,
                    "time": 119.5653249999995,
                    "velocity": 0.3464566929133858,
                    "duration": 0.21739150000000507
                },
                {
                    "name": "D#3",
                    "midi": 51,
                    "time": 119.78271649999951,
                    "velocity": 0.3543307086614173,
                    "duration": 0.21739150000000507
                },
                {
                    "name": "D3",
                    "midi": 50,
                    "time": 120.00010799999951,
                    "velocity": 0.36220472440944884,
                    "duration": 0.21739150000000507
                },
                {
                    "name": "C#3",
                    "midi": 49,
                    "time": 120.21749949999952,
                    "velocity": 0.3700787401574803,
                    "duration": 0.21739150000000507
                },
                {
                    "name": "C3",
                    "midi": 48,
                    "time": 120.43489099999952,
                    "velocity": 0.3779527559055118,
                    "duration": 0.21739150000000507
                },
                {
                    "name": "F2",
                    "midi": 41,
                    "time": 120.65228249999953,
                    "velocity": 0.3937007874015748,
                    "duration": 0.21739150000000507
                },
                {
                    "name": "A#2",
                    "midi": 46,
                    "time": 120.86967399999953,
                    "velocity": 0.3937007874015748,
                    "duration": 0.21739150000000507
                },
                {
                    "name": "F#2",
                    "midi": 42,
                    "time": 121.08706549999954,
                    "velocity": 0.4094488188976378,
                    "duration": 0.21739150000000507
                },
                {
                    "name": "F2",
                    "midi": 41,
                    "time": 121.30445699999954,
                    "velocity": 0.41732283464566927,
                    "duration": 0.21739150000000507
                },
                {
                    "name": "D#2",
                    "midi": 39,
                    "time": 121.52184849999955,
                    "velocity": 0.4251968503937008,
                    "duration": 0.21739150000000507
                },
                {
                    "name": "D2",
                    "midi": 38,
                    "time": 121.73923999999955,
                    "velocity": 0.4330708661417323,
                    "duration": 0.21739150000000507
                },
                {
                    "name": "C#2",
                    "midi": 37,
                    "time": 121.95663149999956,
                    "velocity": 0.4409448818897638,
                    "duration": 0.21739150000000507
                },
                {
                    "name": "C2",
                    "midi": 36,
                    "time": 122.17402299999956,
                    "velocity": 0.44881889763779526,
                    "duration": 0.21739150000000507
                },
                {
                    "name": "F#1",
                    "midi": 30,
                    "time": 122.39141449999957,
                    "velocity": 0.4566929133858268,
                    "duration": 0.21739150000000507
                },
                {
                    "name": "G1",
                    "midi": 31,
                    "time": 122.60880599999957,
                    "velocity": 0.5275590551181102,
                    "duration": 0.21739150000000507
                },
                {
                    "name": "D#2",
                    "midi": 39,
                    "time": 122.82619749999958,
                    "velocity": 0.48031496062992124,
                    "duration": 0.21739150000000507
                },
                {
                    "name": "F2",
                    "midi": 41,
                    "time": 123.04358899999959,
                    "velocity": 0.5511811023622047,
                    "duration": 0.10869574999999543
                },
                {
                    "name": "F1",
                    "midi": 29,
                    "time": 123.26098049999958,
                    "velocity": 0.5196850393700787,
                    "duration": 0.10869574999999543
                },
                {
                    "name": "F2",
                    "midi": 41,
                    "time": 123.26098049999958,
                    "velocity": 0.5196850393700787,
                    "duration": 0.10869574999999543
                },
                {
                    "name": "A#1",
                    "midi": 34,
                    "time": 123.47837199999957,
                    "velocity": 0.44881889763779526,
                    "duration": 0.10869574999999543
                },
                {
                    "name": "A#2",
                    "midi": 46,
                    "time": 123.47837199999957,
                    "velocity": 0.5354330708661418,
                    "duration": 0.10869574999999543
                },
                {
                    "name": "D4",
                    "midi": 62,
                    "time": 123.58706774999956,
                    "velocity": 0.4409448818897638,
                    "duration": 0.10869574999999543
                },
                {
                    "name": "F3",
                    "midi": 53,
                    "time": 123.58706774999956,
                    "velocity": 0.3700787401574803,
                    "duration": 0.10869574999999543
                },
                {
                    "name": "A#3",
                    "midi": 58,
                    "time": 123.58706774999956,
                    "velocity": 0.3700787401574803,
                    "duration": 0.10869574999999543
                },
                {
                    "name": "F3",
                    "midi": 53,
                    "time": 123.69576349999956,
                    "velocity": 0.3700787401574803,
                    "duration": 0.10869574999999543
                },
                {
                    "name": "D4",
                    "midi": 62,
                    "time": 123.69576349999956,
                    "velocity": 0.4409448818897638,
                    "duration": 0.10869574999999543
                },
                {
                    "name": "A#3",
                    "midi": 58,
                    "time": 123.69576349999956,
                    "velocity": 0.3700787401574803,
                    "duration": 0.10869574999999543
                },
                {
                    "name": "D4",
                    "midi": 62,
                    "time": 123.80445924999955,
                    "velocity": 0.4409448818897638,
                    "duration": 0.10869574999999543
                },
                {
                    "name": "F3",
                    "midi": 53,
                    "time": 123.80445924999955,
                    "velocity": 0.3700787401574803,
                    "duration": 0.10869574999999543
                },
                {
                    "name": "A#3",
                    "midi": 58,
                    "time": 123.80445924999955,
                    "velocity": 0.3700787401574803,
                    "duration": 0.10869574999999543
                },
                {
                    "name": "F3",
                    "midi": 53,
                    "time": 124.02185074999954,
                    "velocity": 0.3543307086614173,
                    "duration": 0.10869574999999543
                },
                {
                    "name": "A#3",
                    "midi": 58,
                    "time": 124.02185074999954,
                    "velocity": 0.3543307086614173,
                    "duration": 0.10869574999999543
                },
                {
                    "name": "D4",
                    "midi": 62,
                    "time": 124.02185074999954,
                    "velocity": 0.41732283464566927,
                    "duration": 0.10869574999999543
                },
                {
                    "name": "A#3",
                    "midi": 58,
                    "time": 124.13054649999954,
                    "velocity": 0.3543307086614173,
                    "duration": 0.10869574999999543
                },
                {
                    "name": "F3",
                    "midi": 53,
                    "time": 124.13054649999954,
                    "velocity": 0.3543307086614173,
                    "duration": 0.10869574999999543
                },
                {
                    "name": "D4",
                    "midi": 62,
                    "time": 124.13054649999954,
                    "velocity": 0.4251968503937008,
                    "duration": 0.10869574999999543
                },
                {
                    "name": "D4",
                    "midi": 62,
                    "time": 124.23924224999953,
                    "velocity": 0.4251968503937008,
                    "duration": 0.10869574999999543
                },
                {
                    "name": "F3",
                    "midi": 53,
                    "time": 124.23924224999953,
                    "velocity": 0.3543307086614173,
                    "duration": 0.10869574999999543
                },
                {
                    "name": "A#3",
                    "midi": 58,
                    "time": 124.23924224999953,
                    "velocity": 0.3543307086614173,
                    "duration": 0.10869574999999543
                },
                {
                    "name": "F3",
                    "midi": 53,
                    "time": 124.45663374999953,
                    "velocity": 0.29133858267716534,
                    "duration": 0.05434787500000482
                },
                {
                    "name": "D4",
                    "midi": 62,
                    "time": 124.45663374999953,
                    "velocity": 0.3464566929133858,
                    "duration": 0.05434787500000482
                },
                {
                    "name": "A#3",
                    "midi": 58,
                    "time": 124.45663374999953,
                    "velocity": 0.29133858267716534,
                    "duration": 0.05434787500000482
                },
                {
                    "name": "A#3",
                    "midi": 58,
                    "time": 124.67402524999953,
                    "velocity": 0.3464566929133858,
                    "duration": 0.05434787500000482
                },
                {
                    "name": "D3",
                    "midi": 50,
                    "time": 124.67402524999953,
                    "velocity": 0.29133858267716534,
                    "duration": 0.05434787500000482
                },
                {
                    "name": "D4",
                    "midi": 62,
                    "time": 124.89141674999954,
                    "velocity": 0.3464566929133858,
                    "duration": 0.05434787500000482
                },
                {
                    "name": "A#3",
                    "midi": 58,
                    "time": 124.89141674999954,
                    "velocity": 0.29133858267716534,
                    "duration": 0.05434787500000482
                },
                {
                    "name": "F3",
                    "midi": 53,
                    "time": 124.89141674999954,
                    "velocity": 0.29133858267716534,
                    "duration": 0.05434787500000482
                },
                {
                    "name": "A#3",
                    "midi": 58,
                    "time": 125.10880824999954,
                    "velocity": 0.29133858267716534,
                    "duration": 0.05434787500000482
                },
                {
                    "name": "C4",
                    "midi": 60,
                    "time": 125.10880824999954,
                    "velocity": 0.3464566929133858,
                    "duration": 0.05434787500000482
                },
                {
                    "name": "D#3",
                    "midi": 51,
                    "time": 125.10880824999954,
                    "velocity": 0.29133858267716534,
                    "duration": 0.05434787500000482
                },
                {
                    "name": "A#1",
                    "midi": 34,
                    "time": 125.21750399999955,
                    "velocity": 0.5118110236220472,
                    "duration": 0.10869574999999543
                },
                {
                    "name": "A#2",
                    "midi": 46,
                    "time": 125.21750399999955,
                    "velocity": 0.6141732283464567,
                    "duration": 0.10869574999999543
                },
                {
                    "name": "G3",
                    "midi": 55,
                    "time": 125.32619974999955,
                    "velocity": 0.4251968503937008,
                    "duration": 0.10869574999999543
                },
                {
                    "name": "D#4",
                    "midi": 63,
                    "time": 125.32619974999955,
                    "velocity": 0.5039370078740157,
                    "duration": 0.10869574999999543
                },
                {
                    "name": "A#3",
                    "midi": 58,
                    "time": 125.32619974999955,
                    "velocity": 0.4251968503937008,
                    "duration": 0.10869574999999543
                },
                {
                    "name": "G3",
                    "midi": 55,
                    "time": 125.43489549999954,
                    "velocity": 0.4251968503937008,
                    "duration": 0.10869574999999543
                },
                {
                    "name": "A#3",
                    "midi": 58,
                    "time": 125.43489549999954,
                    "velocity": 0.4251968503937008,
                    "duration": 0.10869574999999543
                },
                {
                    "name": "D#4",
                    "midi": 63,
                    "time": 125.43489549999954,
                    "velocity": 0.5039370078740157,
                    "duration": 0.10869574999999543
                },
                {
                    "name": "A#3",
                    "midi": 58,
                    "time": 125.54359124999954,
                    "velocity": 0.4251968503937008,
                    "duration": 0.10869574999999543
                },
                {
                    "name": "D#4",
                    "midi": 63,
                    "time": 125.54359124999954,
                    "velocity": 0.5039370078740157,
                    "duration": 0.10869574999999543
                },
                {
                    "name": "G3",
                    "midi": 55,
                    "time": 125.54359124999954,
                    "velocity": 0.4251968503937008,
                    "duration": 0.10869574999999543
                },
                {
                    "name": "C4",
                    "midi": 60,
                    "time": 125.76098274999953,
                    "velocity": 0.41732283464566927,
                    "duration": 0.10869574999999543
                },
                {
                    "name": "D#3",
                    "midi": 51,
                    "time": 125.76098274999953,
                    "velocity": 0.3543307086614173,
                    "duration": 0.10869574999999543
                },
                {
                    "name": "A#3",
                    "midi": 58,
                    "time": 125.76098274999953,
                    "velocity": 0.3543307086614173,
                    "duration": 0.10869574999999543
                },
                {
                    "name": "D#3",
                    "midi": 51,
                    "time": 125.86967849999952,
                    "velocity": 0.3543307086614173,
                    "duration": 0.10869574999999543
                },
                {
                    "name": "A#3",
                    "midi": 58,
                    "time": 125.86967849999952,
                    "velocity": 0.3543307086614173,
                    "duration": 0.10869574999999543
                },
                {
                    "name": "C4",
                    "midi": 60,
                    "time": 125.86967849999952,
                    "velocity": 0.4251968503937008,
                    "duration": 0.10869574999999543
                },
                {
                    "name": "C4",
                    "midi": 60,
                    "time": 125.97837424999952,
                    "velocity": 0.4251968503937008,
                    "duration": 0.10869574999999543
                },
                {
                    "name": "D#3",
                    "midi": 51,
                    "time": 125.97837424999952,
                    "velocity": 0.3543307086614173,
                    "duration": 0.10869574999999543
                },
                {
                    "name": "A#3",
                    "midi": 58,
                    "time": 125.97837424999952,
                    "velocity": 0.3543307086614173,
                    "duration": 0.10869574999999543
                },
                {
                    "name": "G3",
                    "midi": 55,
                    "time": 126.19576574999951,
                    "velocity": 0.29133858267716534,
                    "duration": 0.05434787500000482
                },
                {
                    "name": "D#4",
                    "midi": 63,
                    "time": 126.19576574999951,
                    "velocity": 0.3464566929133858,
                    "duration": 0.05434787500000482
                },
                {
                    "name": "A#3",
                    "midi": 58,
                    "time": 126.19576574999951,
                    "velocity": 0.29133858267716534,
                    "duration": 0.05434787500000482
                },
                {
                    "name": "A#3",
                    "midi": 58,
                    "time": 126.41315724999951,
                    "velocity": 0.29133858267716534,
                    "duration": 0.05434787500000482
                },
                {
                    "name": "C#4",
                    "midi": 61,
                    "time": 126.41315724999951,
                    "velocity": 0.3464566929133858,
                    "duration": 0.05434787500000482
                },
                {
                    "name": "E3",
                    "midi": 52,
                    "time": 126.41315724999951,
                    "velocity": 0.29133858267716534,
                    "duration": 0.05434787500000482
                },
                {
                    "name": "A#3",
                    "midi": 58,
                    "time": 126.63054874999952,
                    "velocity": 0.29133858267716534,
                    "duration": 0.05434787500000482
                },
                {
                    "name": "D#4",
                    "midi": 63,
                    "time": 126.63054874999952,
                    "velocity": 0.3464566929133858,
                    "duration": 0.05434787500000482
                },
                {
                    "name": "F#3",
                    "midi": 54,
                    "time": 126.63054874999952,
                    "velocity": 0.29133858267716534,
                    "duration": 0.05434787500000482
                },
                {
                    "name": "A#3",
                    "midi": 58,
                    "time": 126.84794024999952,
                    "velocity": 0.29133858267716534,
                    "duration": 0.05434787500000482
                },
                {
                    "name": "F3",
                    "midi": 53,
                    "time": 126.84794024999952,
                    "velocity": 0.29133858267716534,
                    "duration": 0.05434787500000482
                },
                {
                    "name": "D4",
                    "midi": 62,
                    "time": 126.84794024999952,
                    "velocity": 0.3464566929133858,
                    "duration": 0.05434787500000482
                },
                {
                    "name": "A#1",
                    "midi": 34,
                    "time": 126.95663599999953,
                    "velocity": 0.4881889763779528,
                    "duration": 0.10869574999999543
                },
                {
                    "name": "A#2",
                    "midi": 46,
                    "time": 126.95663599999953,
                    "velocity": 0.5826771653543307,
                    "duration": 0.10869574999999543
                },
                {
                    "name": "A#3",
                    "midi": 58,
                    "time": 127.06533174999953,
                    "velocity": 0.4015748031496063,
                    "duration": 0.10869574999999543
                },
                {
                    "name": "G#3",
                    "midi": 56,
                    "time": 127.06533174999953,
                    "velocity": 0.4015748031496063,
                    "duration": 0.10869574999999543
                },
                {
                    "name": "F4",
                    "midi": 65,
                    "time": 127.06533174999953,
                    "velocity": 0.48031496062992124,
                    "duration": 0.10869574999999543
                },
                {
                    "name": "G#3",
                    "midi": 56,
                    "time": 127.17402749999953,
                    "velocity": 0.4015748031496063,
                    "duration": 0.10869574999999543
                },
                {
                    "name": "A#3",
                    "midi": 58,
                    "time": 127.17402749999953,
                    "velocity": 0.4015748031496063,
                    "duration": 0.10869574999999543
                },
                {
                    "name": "F4",
                    "midi": 65,
                    "time": 127.17402749999953,
                    "velocity": 0.48031496062992124,
                    "duration": 0.10869574999999543
                },
                {
                    "name": "F4",
                    "midi": 65,
                    "time": 127.28272324999952,
                    "velocity": 0.48031496062992124,
                    "duration": 0.10869574999999543
                },
                {
                    "name": "A#3",
                    "midi": 58,
                    "time": 127.28272324999952,
                    "velocity": 0.4015748031496063,
                    "duration": 0.10869574999999543
                },
                {
                    "name": "G#3",
                    "midi": 56,
                    "time": 127.28272324999952,
                    "velocity": 0.4015748031496063,
                    "duration": 0.10869574999999543
                },
                {
                    "name": "A#3",
                    "midi": 58,
                    "time": 127.50011474999951,
                    "velocity": 0.3543307086614173,
                    "duration": 0.10869574999999543
                },
                {
                    "name": "D4",
                    "midi": 62,
                    "time": 127.50011474999951,
                    "velocity": 0.41732283464566927,
                    "duration": 0.10869574999999543
                },
                {
                    "name": "F3",
                    "midi": 53,
                    "time": 127.50011474999951,
                    "velocity": 0.3543307086614173,
                    "duration": 0.10869574999999543
                },
                {
                    "name": "A#3",
                    "midi": 58,
                    "time": 127.6088104999995,
                    "velocity": 0.3543307086614173,
                    "duration": 0.10869574999999543
                },
                {
                    "name": "D4",
                    "midi": 62,
                    "time": 127.6088104999995,
                    "velocity": 0.4251968503937008,
                    "duration": 0.10869574999999543
                },
                {
                    "name": "F3",
                    "midi": 53,
                    "time": 127.6088104999995,
                    "velocity": 0.3543307086614173,
                    "duration": 0.10869574999999543
                },
                {
                    "name": "F3",
                    "midi": 53,
                    "time": 127.7175062499995,
                    "velocity": 0.3543307086614173,
                    "duration": 0.10869574999999543
                },
                {
                    "name": "D4",
                    "midi": 62,
                    "time": 127.7175062499995,
                    "velocity": 0.4251968503937008,
                    "duration": 0.10869574999999543
                },
                {
                    "name": "A#3",
                    "midi": 58,
                    "time": 127.7175062499995,
                    "velocity": 0.3543307086614173,
                    "duration": 0.10869574999999543
                },
                {
                    "name": "A#3",
                    "midi": 58,
                    "time": 127.9348977499995,
                    "velocity": 0.29133858267716534,
                    "duration": 0.05434787500000482
                },
                {
                    "name": "F4",
                    "midi": 65,
                    "time": 127.9348977499995,
                    "velocity": 0.3464566929133858,
                    "duration": 0.05434787500000482
                },
                {
                    "name": "G#3",
                    "midi": 56,
                    "time": 127.9348977499995,
                    "velocity": 0.29133858267716534,
                    "duration": 0.05434787500000482
                },
                {
                    "name": "D4",
                    "midi": 62,
                    "time": 128.15228924999948,
                    "velocity": 0.3464566929133858,
                    "duration": 0.05434787499999061
                },
                {
                    "name": "F#3",
                    "midi": 54,
                    "time": 128.15228924999948,
                    "velocity": 0.29133858267716534,
                    "duration": 0.05434787499999061
                },
                {
                    "name": "A#3",
                    "midi": 58,
                    "time": 128.15228924999948,
                    "velocity": 0.29133858267716534,
                    "duration": 0.05434787499999061
                },
                {
                    "name": "G#3",
                    "midi": 56,
                    "time": 128.36968074999947,
                    "velocity": 0.29133858267716534,
                    "duration": 0.05434787499999061
                },
                {
                    "name": "A#3",
                    "midi": 58,
                    "time": 128.36968074999947,
                    "velocity": 0.29133858267716534,
                    "duration": 0.05434787499999061
                },
                {
                    "name": "F4",
                    "midi": 65,
                    "time": 128.36968074999947,
                    "velocity": 0.3464566929133858,
                    "duration": 0.05434787499999061
                },
                {
                    "name": "D#4",
                    "midi": 63,
                    "time": 128.58707224999947,
                    "velocity": 0.3464566929133858,
                    "duration": 0.05434787499999061
                },
                {
                    "name": "A#3",
                    "midi": 58,
                    "time": 128.58707224999947,
                    "velocity": 0.29133858267716534,
                    "duration": 0.05434787499999061
                },
                {
                    "name": "G3",
                    "midi": 55,
                    "time": 128.58707224999947,
                    "velocity": 0.29133858267716534,
                    "duration": 0.05434787499999061
                },
                {
                    "name": "A#2",
                    "midi": 46,
                    "time": 128.69576799999945,
                    "velocity": 0.5826771653543307,
                    "duration": 0.10869575000000964
                },
                {
                    "name": "A#1",
                    "midi": 34,
                    "time": 128.69576799999945,
                    "velocity": 0.4881889763779528,
                    "duration": 0.10869575000000964
                },
                {
                    "name": "G4",
                    "midi": 67,
                    "time": 128.80446374999946,
                    "velocity": 0.48031496062992124,
                    "duration": 0.10869575000000964
                },
                {
                    "name": "A#3",
                    "midi": 58,
                    "time": 128.80446374999946,
                    "velocity": 0.4015748031496063,
                    "duration": 0.10869575000000964
                },
                {
                    "name": "D#4",
                    "midi": 63,
                    "time": 128.80446374999946,
                    "velocity": 0.4015748031496063,
                    "duration": 0.10869575000000964
                },
                {
                    "name": "A#3",
                    "midi": 58,
                    "time": 128.91315949999947,
                    "velocity": 0.4015748031496063,
                    "duration": 0.10869575000000964
                },
                {
                    "name": "G4",
                    "midi": 67,
                    "time": 128.91315949999947,
                    "velocity": 0.48031496062992124,
                    "duration": 0.10869575000000964
                },
                {
                    "name": "D#4",
                    "midi": 63,
                    "time": 128.91315949999947,
                    "velocity": 0.4015748031496063,
                    "duration": 0.10869575000000964
                },
                {
                    "name": "G4",
                    "midi": 67,
                    "time": 129.02185524999948,
                    "velocity": 0.48031496062992124,
                    "duration": 0.10869575000000964
                },
                {
                    "name": "D#4",
                    "midi": 63,
                    "time": 129.02185524999948,
                    "velocity": 0.4015748031496063,
                    "duration": 0.10869575000000964
                },
                {
                    "name": "A#3",
                    "midi": 58,
                    "time": 129.02185524999948,
                    "velocity": 0.4015748031496063,
                    "duration": 0.10869575000000964
                },
                {
                    "name": "G3",
                    "midi": 55,
                    "time": 129.2392467499995,
                    "velocity": 0.3543307086614173,
                    "duration": 0.10869575000000964
                },
                {
                    "name": "A#3",
                    "midi": 58,
                    "time": 129.2392467499995,
                    "velocity": 0.3543307086614173,
                    "duration": 0.10869575000000964
                },
                {
                    "name": "D#4",
                    "midi": 63,
                    "time": 129.2392467499995,
                    "velocity": 0.41732283464566927,
                    "duration": 0.10869575000000964
                },
                {
                    "name": "G3",
                    "midi": 55,
                    "time": 129.3479424999995,
                    "velocity": 0.3543307086614173,
                    "duration": 0.10869575000000964
                },
                {
                    "name": "A#3",
                    "midi": 58,
                    "time": 129.3479424999995,
                    "velocity": 0.3543307086614173,
                    "duration": 0.10869575000000964
                },
                {
                    "name": "D#4",
                    "midi": 63,
                    "time": 129.3479424999995,
                    "velocity": 0.4251968503937008,
                    "duration": 0.10869575000000964
                },
                {
                    "name": "G3",
                    "midi": 55,
                    "time": 129.45663824999951,
                    "velocity": 0.3543307086614173,
                    "duration": 0.10869575000000964
                },
                {
                    "name": "D#4",
                    "midi": 63,
                    "time": 129.45663824999951,
                    "velocity": 0.4251968503937008,
                    "duration": 0.10869575000000964
                },
                {
                    "name": "A#3",
                    "midi": 58,
                    "time": 129.45663824999951,
                    "velocity": 0.3543307086614173,
                    "duration": 0.10869575000000964
                },
                {
                    "name": "D#4",
                    "midi": 63,
                    "time": 129.67402974999953,
                    "velocity": 0.25984251968503935,
                    "duration": 0.05434787499999061
                },
                {
                    "name": "G4",
                    "midi": 67,
                    "time": 129.67402974999953,
                    "velocity": 0.30708661417322836,
                    "duration": 0.05434787499999061
                },
                {
                    "name": "A#3",
                    "midi": 58,
                    "time": 129.67402974999953,
                    "velocity": 0.25984251968503935,
                    "duration": 0.05434787499999061
                },
                {
                    "name": "E4",
                    "midi": 64,
                    "time": 129.89142124999952,
                    "velocity": 0.30708661417322836,
                    "duration": 0.05434787499999061
                },
                {
                    "name": "C#4",
                    "midi": 61,
                    "time": 129.89142124999952,
                    "velocity": 0.25984251968503935,
                    "duration": 0.05434787499999061
                },
                {
                    "name": "A#3",
                    "midi": 58,
                    "time": 129.89142124999952,
                    "velocity": 0.25984251968503935,
                    "duration": 0.05434787499999061
                },
                {
                    "name": "D#4",
                    "midi": 63,
                    "time": 130.10881274999952,
                    "velocity": 0.28346456692913385,
                    "duration": 0.05434787499999061
                },
                {
                    "name": "F#4",
                    "midi": 66,
                    "time": 130.10881274999952,
                    "velocity": 0.3464566929133858,
                    "duration": 0.05434787499999061
                },
                {
                    "name": "A#3",
                    "midi": 58,
                    "time": 130.10881274999952,
                    "velocity": 0.28346456692913385,
                    "duration": 0.05434787499999061
                },
                {
                    "name": "A#3",
                    "midi": 58,
                    "time": 130.3262042499995,
                    "velocity": 0.29133858267716534,
                    "duration": 0.05434787499999061
                },
                {
                    "name": "F4",
                    "midi": 65,
                    "time": 130.3262042499995,
                    "velocity": 0.3543307086614173,
                    "duration": 0.05434787499999061
                },
                {
                    "name": "D4",
                    "midi": 62,
                    "time": 130.3262042499995,
                    "velocity": 0.29133858267716534,
                    "duration": 0.05434787499999061
                },
                {
                    "name": "A#3",
                    "midi": 58,
                    "time": 130.5435957499995,
                    "velocity": 0.30708661417322836,
                    "duration": 0.05434787499999061
                },
                {
                    "name": "G#4",
                    "midi": 68,
                    "time": 130.5435957499995,
                    "velocity": 0.36220472440944884,
                    "duration": 0.05434787499999061
                },
                {
                    "name": "F4",
                    "midi": 65,
                    "time": 130.5435957499995,
                    "velocity": 0.30708661417322836,
                    "duration": 0.05434787499999061
                },
                {
                    "name": "A#3",
                    "midi": 58,
                    "time": 130.7609872499995,
                    "velocity": 0.31496062992125984,
                    "duration": 0.05434787499999061
                },
                {
                    "name": "D4",
                    "midi": 62,
                    "time": 130.7609872499995,
                    "velocity": 0.31496062992125984,
                    "duration": 0.05434787499999061
                },
                {
                    "name": "F#4",
                    "midi": 66,
                    "time": 130.7609872499995,
                    "velocity": 0.3779527559055118,
                    "duration": 0.05434787499999061
                },
                {
                    "name": "F4",
                    "midi": 65,
                    "time": 130.97837874999948,
                    "velocity": 0.33070866141732286,
                    "duration": 0.05434787499999061
                },
                {
                    "name": "A#3",
                    "midi": 58,
                    "time": 130.97837874999948,
                    "velocity": 0.33070866141732286,
                    "duration": 0.05434787499999061
                },
                {
                    "name": "G#4",
                    "midi": 68,
                    "time": 130.97837874999948,
                    "velocity": 0.3937007874015748,
                    "duration": 0.05434787499999061
                },
                {
                    "name": "A#3",
                    "midi": 58,
                    "time": 131.19577024999947,
                    "velocity": 0.33858267716535434,
                    "duration": 0.05434787499999061
                },
                {
                    "name": "D#4",
                    "midi": 63,
                    "time": 131.19577024999947,
                    "velocity": 0.33858267716535434,
                    "duration": 0.05434787499999061
                },
                {
                    "name": "G4",
                    "midi": 67,
                    "time": 131.19577024999947,
                    "velocity": 0.4094488188976378,
                    "duration": 0.05434787499999061
                },
                {
                    "name": "G4",
                    "midi": 67,
                    "time": 131.41316174999946,
                    "velocity": 0.41732283464566927,
                    "duration": 0.05434787499999061
                },
                {
                    "name": "A#3",
                    "midi": 58,
                    "time": 131.41316174999946,
                    "velocity": 0.3543307086614173,
                    "duration": 0.05434787499999061
                },
                {
                    "name": "D#4",
                    "midi": 63,
                    "time": 131.41316174999946,
                    "velocity": 0.3543307086614173,
                    "duration": 0.05434787499999061
                },
                {
                    "name": "C4",
                    "midi": 60,
                    "time": 131.41316174999946,
                    "velocity": 0.3543307086614173,
                    "duration": 0.05434787499999061
                },
                {
                    "name": "D#4",
                    "midi": 63,
                    "time": 131.63055324999945,
                    "velocity": 0.3543307086614173,
                    "duration": 0.05434787499999061
                },
                {
                    "name": "C4",
                    "midi": 60,
                    "time": 131.63055324999945,
                    "velocity": 0.3543307086614173,
                    "duration": 0.05434787499999061
                },
                {
                    "name": "G#4",
                    "midi": 68,
                    "time": 131.63055324999945,
                    "velocity": 0.4251968503937008,
                    "duration": 0.05434787499999061
                },
                {
                    "name": "A#3",
                    "midi": 58,
                    "time": 131.63055324999945,
                    "velocity": 0.3543307086614173,
                    "duration": 0.05434787499999061
                },
                {
                    "name": "A#3",
                    "midi": 58,
                    "time": 131.84794474999944,
                    "velocity": 0.3700787401574803,
                    "duration": 0.05434787499999061
                },
                {
                    "name": "C4",
                    "midi": 60,
                    "time": 131.84794474999944,
                    "velocity": 0.3700787401574803,
                    "duration": 0.05434787499999061
                },
                {
                    "name": "D#4",
                    "midi": 63,
                    "time": 131.84794474999944,
                    "velocity": 0.3700787401574803,
                    "duration": 0.05434787499999061
                },
                {
                    "name": "A#4",
                    "midi": 70,
                    "time": 131.84794474999944,
                    "velocity": 0.4409448818897638,
                    "duration": 0.05434787499999061
                },
                {
                    "name": "C4",
                    "midi": 60,
                    "time": 132.06533624999943,
                    "velocity": 0.3779527559055118,
                    "duration": 0.05434787499999061
                },
                {
                    "name": "A#3",
                    "midi": 58,
                    "time": 132.06533624999943,
                    "velocity": 0.3779527559055118,
                    "duration": 0.05434787499999061
                },
                {
                    "name": "A4",
                    "midi": 69,
                    "time": 132.06533624999943,
                    "velocity": 0.4566929133858268,
                    "duration": 0.05434787499999061
                },
                {
                    "name": "D#4",
                    "midi": 63,
                    "time": 132.06533624999943,
                    "velocity": 0.3779527559055118,
                    "duration": 0.05434787499999061
                },
                {
                    "name": "C4",
                    "midi": 60,
                    "time": 132.28272774999942,
                    "velocity": 0.4409448818897638,
                    "duration": 0.05434787499999061
                },
                {
                    "name": "C5",
                    "midi": 72,
                    "time": 132.28272774999942,
                    "velocity": 0.5196850393700787,
                    "duration": 0.05434787499999061
                },
                {
                    "name": "A#3",
                    "midi": 58,
                    "time": 132.50011924999941,
                    "velocity": 0.4409448818897638,
                    "duration": 0.05434787499999061
                },
                {
                    "name": "A#4",
                    "midi": 70,
                    "time": 132.50011924999941,
                    "velocity": 0.5196850393700787,
                    "duration": 0.05434787499999061
                },
                {
                    "name": "G4",
                    "midi": 67,
                    "time": 132.7175107499994,
                    "velocity": 0.5196850393700787,
                    "duration": 0.05434787499999061
                },
                {
                    "name": "G3",
                    "midi": 55,
                    "time": 132.7175107499994,
                    "velocity": 0.4409448818897638,
                    "duration": 0.05434787499999061
                },
                {
                    "name": "F3",
                    "midi": 53,
                    "time": 132.9349022499994,
                    "velocity": 0.4409448818897638,
                    "duration": 0.05434787499999061
                },
                {
                    "name": "F4",
                    "midi": 65,
                    "time": 132.9349022499994,
                    "velocity": 0.5196850393700787,
                    "duration": 0.05434787499999061
                },
                {
                    "name": "D#4",
                    "midi": 63,
                    "time": 133.1522937499994,
                    "velocity": 0.4645669291338583,
                    "duration": 0.05434787499999061
                },
                {
                    "name": "D#3",
                    "midi": 51,
                    "time": 133.1522937499994,
                    "velocity": 0.3937007874015748,
                    "duration": 0.05434787499999061
                },
                {
                    "name": "D4",
                    "midi": 62,
                    "time": 133.36968524999938,
                    "velocity": 0.4645669291338583,
                    "duration": 0.05434787499999061
                },
                {
                    "name": "D3",
                    "midi": 50,
                    "time": 133.36968524999938,
                    "velocity": 0.3937007874015748,
                    "duration": 0.05434787499999061
                },
                {
                    "name": "C4",
                    "midi": 60,
                    "time": 133.58707674999937,
                    "velocity": 0.4645669291338583,
                    "duration": 0.05434787499999061
                },
                {
                    "name": "C3",
                    "midi": 48,
                    "time": 133.58707674999937,
                    "velocity": 0.3937007874015748,
                    "duration": 0.05434787499999061
                },
                {
                    "name": "A#2",
                    "midi": 46,
                    "time": 133.80446824999936,
                    "velocity": 0.3937007874015748,
                    "duration": 0.05434787499999061
                },
                {
                    "name": "A#3",
                    "midi": 58,
                    "time": 133.80446824999936,
                    "velocity": 0.4645669291338583,
                    "duration": 0.05434787499999061
                },
                {
                    "name": "G2",
                    "midi": 43,
                    "time": 134.02185974999935,
                    "velocity": 0.3937007874015748,
                    "duration": 0.05434787499999061
                },
                {
                    "name": "G3",
                    "midi": 55,
                    "time": 134.02185974999935,
                    "velocity": 0.4645669291338583,
                    "duration": 0.05434787499999061
                },
                {
                    "name": "F3",
                    "midi": 53,
                    "time": 134.23925124999934,
                    "velocity": 0.4645669291338583,
                    "duration": 0.05434787499999061
                },
                {
                    "name": "F2",
                    "midi": 41,
                    "time": 134.23925124999934,
                    "velocity": 0.3937007874015748,
                    "duration": 0.05434787499999061
                },
                {
                    "name": "D#3",
                    "midi": 51,
                    "time": 134.45664274999933,
                    "velocity": 0.4409448818897638,
                    "duration": 0.05434787499999061
                },
                {
                    "name": "D#2",
                    "midi": 39,
                    "time": 134.45664274999933,
                    "velocity": 0.3700787401574803,
                    "duration": 0.05434787499999061
                },
                {
                    "name": "D2",
                    "midi": 38,
                    "time": 134.67403424999932,
                    "velocity": 0.3700787401574803,
                    "duration": 0.05434787499999061
                },
                {
                    "name": "D3",
                    "midi": 50,
                    "time": 134.67403424999932,
                    "velocity": 0.4409448818897638,
                    "duration": 0.05434787499999061
                },
                {
                    "name": "C2",
                    "midi": 36,
                    "time": 134.8914257499993,
                    "velocity": 0.3543307086614173,
                    "duration": 0.05434787499999061
                },
                {
                    "name": "C3",
                    "midi": 48,
                    "time": 134.8914257499993,
                    "velocity": 0.41732283464566927,
                    "duration": 0.05434787499999061
                },
                {
                    "name": "A#2",
                    "midi": 46,
                    "time": 135.1088172499993,
                    "velocity": 0.41732283464566927,
                    "duration": 0.05434787499999061
                },
                {
                    "name": "A#1",
                    "midi": 34,
                    "time": 135.1088172499993,
                    "velocity": 0.3543307086614173,
                    "duration": 0.05434787499999061
                },
                {
                    "name": "G1",
                    "midi": 31,
                    "time": 135.3262087499993,
                    "velocity": 0.3543307086614173,
                    "duration": 0.05434787499999061
                },
                {
                    "name": "G2",
                    "midi": 43,
                    "time": 135.3262087499993,
                    "velocity": 0.41732283464566927,
                    "duration": 0.05434787499999061
                },
                {
                    "name": "F2",
                    "midi": 41,
                    "time": 135.5436002499993,
                    "velocity": 0.41732283464566927,
                    "duration": 0.05434787499999061
                },
                {
                    "name": "F1",
                    "midi": 29,
                    "time": 135.5436002499993,
                    "velocity": 0.3543307086614173,
                    "duration": 0.05434787499999061
                },
                {
                    "name": "A1",
                    "midi": 33,
                    "time": 135.76099174999928,
                    "velocity": 0.33070866141732286,
                    "duration": 0.10869575000000964
                },
                {
                    "name": "F1",
                    "midi": 29,
                    "time": 135.9783832499993,
                    "velocity": 0.2204724409448819,
                    "duration": 0.10869575000000964
                },
                {
                    "name": "C2",
                    "midi": 36,
                    "time": 136.19577474999932,
                    "velocity": 0.30708661417322836,
                    "duration": 0.10869575000000964
                },
                {
                    "name": "F1",
                    "midi": 29,
                    "time": 136.41316624999934,
                    "velocity": 0.2125984251968504,
                    "duration": 0.10869575000000964
                },
                {
                    "name": "F2",
                    "midi": 41,
                    "time": 136.63055774999935,
                    "velocity": 0.29133858267716534,
                    "duration": 0.10869575000000964
                },
                {
                    "name": "F1",
                    "midi": 29,
                    "time": 136.84794924999937,
                    "velocity": 0.2047244094488189,
                    "duration": 0.10869575000000964
                },
                {
                    "name": "A2",
                    "midi": 45,
                    "time": 137.0653407499994,
                    "velocity": 0.2677165354330709,
                    "duration": 0.10869575000000964
                },
                {
                    "name": "F1",
                    "midi": 29,
                    "time": 137.2827322499994,
                    "velocity": 0.1889763779527559,
                    "duration": 0.10869575000000964
                },
                {
                    "name": "C3",
                    "midi": 48,
                    "time": 137.50012374999943,
                    "velocity": 0.25196850393700787,
                    "duration": 0.10869575000000964
                },
                {
                    "name": "F1",
                    "midi": 29,
                    "time": 137.71751524999945,
                    "velocity": 0.18110236220472442,
                    "duration": 0.10869575000000964
                },
                {
                    "name": "F3",
                    "midi": 53,
                    "time": 137.93490674999947,
                    "velocity": 0.2283464566929134,
                    "duration": 0.10869575000000964
                },
                {
                    "name": "F1",
                    "midi": 29,
                    "time": 138.1522982499995,
                    "velocity": 0.1889763779527559,
                    "duration": 0.10869575000000964
                },
                {
                    "name": "F3",
                    "midi": 53,
                    "time": 138.3696897499995,
                    "velocity": 0.2204724409448819,
                    "duration": 0.10869575000000964
                },
                {
                    "name": "F1",
                    "midi": 29,
                    "time": 138.58708124999953,
                    "velocity": 0.16535433070866143,
                    "duration": 0.10869575000000964
                },
                {
                    "name": "F3",
                    "midi": 53,
                    "time": 138.80447274999955,
                    "velocity": 0.16535433070866143,
                    "duration": 0.10869575000000964
                },
                {
                    "name": "A#1",
                    "midi": 34,
                    "time": 139.02186424999957,
                    "velocity": 0.6614173228346457,
                    "duration": 0.10869575000000964
                },
                {
                    "name": "F3",
                    "midi": 53,
                    "time": 139.13055999999958,
                    "velocity": 0.5354330708661418,
                    "duration": 0.3260872500000005
                },
                {
                    "name": "A#3",
                    "midi": 58,
                    "time": 139.13055999999958,
                    "velocity": 0.5354330708661418,
                    "duration": 0.3260872500000005
                },
                {
                    "name": "D4",
                    "midi": 62,
                    "time": 139.13055999999958,
                    "velocity": 0.6377952755905512,
                    "duration": 0.3260872500000005
                },
                {
                    "name": "F3",
                    "midi": 53,
                    "time": 139.45664724999958,
                    "velocity": 0.48031496062992124,
                    "duration": 0.10869575000000964
                },
                {
                    "name": "A#3",
                    "midi": 58,
                    "time": 139.45664724999958,
                    "velocity": 0.48031496062992124,
                    "duration": 0.10869575000000964
                },
                {
                    "name": "D4",
                    "midi": 62,
                    "time": 139.45664724999958,
                    "velocity": 0.5748031496062992,
                    "duration": 0.10869575000000964
                },
                {
                    "name": "D4",
                    "midi": 62,
                    "time": 139.5653429999996,
                    "velocity": 0.6377952755905512,
                    "duration": 0.21739149999999086
                },
                {
                    "name": "A#3",
                    "midi": 58,
                    "time": 139.5653429999996,
                    "velocity": 0.5354330708661418,
                    "duration": 0.21739149999999086
                },
                {
                    "name": "F3",
                    "midi": 53,
                    "time": 139.5653429999996,
                    "velocity": 0.5354330708661418,
                    "duration": 0.21739149999999086
                },
                {
                    "name": "D4",
                    "midi": 62,
                    "time": 139.78273449999958,
                    "velocity": 0.6062992125984252,
                    "duration": 0.04076090625000006
                },
                {
                    "name": "A#3",
                    "midi": 58,
                    "time": 139.78273449999958,
                    "velocity": 0.5196850393700787,
                    "duration": 0.04076090625000006
                },
                {
                    "name": "F3",
                    "midi": 53,
                    "time": 139.78273449999958,
                    "velocity": 0.5196850393700787,
                    "duration": 0.04076090625000006
                },
                {
                    "name": "F3",
                    "midi": 53,
                    "time": 139.8914302499996,
                    "velocity": 0.5354330708661418,
                    "duration": 0.04076090625000006
                },
                {
                    "name": "D4",
                    "midi": 62,
                    "time": 139.8914302499996,
                    "velocity": 0.6377952755905512,
                    "duration": 0.04076090625000006
                },
                {
                    "name": "A#3",
                    "midi": 58,
                    "time": 139.8914302499996,
                    "velocity": 0.5354330708661418,
                    "duration": 0.04076090625000006
                },
                {
                    "name": "A#3",
                    "midi": 58,
                    "time": 140.0001259999996,
                    "velocity": 0.5354330708661418,
                    "duration": 0.10869575000000964
                },
                {
                    "name": "D4",
                    "midi": 62,
                    "time": 140.0001259999996,
                    "velocity": 0.6377952755905512,
                    "duration": 0.10869575000000964
                },
                {
                    "name": "F3",
                    "midi": 53,
                    "time": 140.0001259999996,
                    "velocity": 0.5354330708661418,
                    "duration": 0.10869575000000964
                },
                {
                    "name": "D3",
                    "midi": 50,
                    "time": 140.21751749999962,
                    "velocity": 0.5354330708661418,
                    "duration": 0.10869575000000964
                },
                {
                    "name": "F3",
                    "midi": 53,
                    "time": 140.21751749999962,
                    "velocity": 0.5354330708661418,
                    "duration": 0.10869575000000964
                },
                {
                    "name": "A#3",
                    "midi": 58,
                    "time": 140.21751749999962,
                    "velocity": 0.6377952755905512,
                    "duration": 0.10869575000000964
                },
                {
                    "name": "A#1",
                    "midi": 34,
                    "time": 140.76099624999964,
                    "velocity": 0.6614173228346457,
                    "duration": 0.10869575000000964
                },
                {
                    "name": "F3",
                    "midi": 53,
                    "time": 140.86969199999965,
                    "velocity": 0.5354330708661418,
                    "duration": 0.3260872500000005
                },
                {
                    "name": "D3",
                    "midi": 50,
                    "time": 140.86969199999965,
                    "velocity": 0.5354330708661418,
                    "duration": 0.3260872500000005
                },
                {
                    "name": "A#3",
                    "midi": 58,
                    "time": 140.86969199999965,
                    "velocity": 0.5354330708661418,
                    "duration": 0.3260872500000005
                },
                {
                    "name": "D4",
                    "midi": 62,
                    "time": 140.86969199999965,
                    "velocity": 0.6377952755905512,
                    "duration": 0.3260872500000005
                },
                {
                    "name": "F3",
                    "midi": 53,
                    "time": 141.19577924999965,
                    "velocity": 0.48031496062992124,
                    "duration": 0.10869575000000964
                },
                {
                    "name": "D4",
                    "midi": 62,
                    "time": 141.19577924999965,
                    "velocity": 0.5748031496062992,
                    "duration": 0.10869575000000964
                },
                {
                    "name": "D3",
                    "midi": 50,
                    "time": 141.19577924999965,
                    "velocity": 0.48031496062992124,
                    "duration": 0.10869575000000964
                },
                {
                    "name": "A#3",
                    "midi": 58,
                    "time": 141.19577924999965,
                    "velocity": 0.48031496062992124,
                    "duration": 0.10869575000000964
                },
                {
                    "name": "D3",
                    "midi": 50,
                    "time": 141.30447499999966,
                    "velocity": 0.6377952755905512,
                    "duration": 0.21739149999999086
                },
                {
                    "name": "D4",
                    "midi": 62,
                    "time": 141.30447499999966,
                    "velocity": 0.7637795275590551,
                    "duration": 0.21739149999999086
                },
                {
                    "name": "D3",
                    "midi": 50,
                    "time": 141.52186649999965,
                    "velocity": 0.5196850393700787,
                    "duration": 0.04076090625000006
                },
                {
                    "name": "D4",
                    "midi": 62,
                    "time": 141.52186649999965,
                    "velocity": 0.6062992125984252,
                    "duration": 0.04076090625000006
                },
                {
                    "name": "F#3",
                    "midi": 54,
                    "time": 141.52186649999965,
                    "velocity": 0.5196850393700787,
                    "duration": 0.04076090625000006
                },
                {
                    "name": "A3",
                    "midi": 57,
                    "time": 141.52186649999965,
                    "velocity": 0.5196850393700787,
                    "duration": 0.04076090625000006
                },
                {
                    "name": "D3",
                    "midi": 50,
                    "time": 141.63056224999966,
                    "velocity": 0.5354330708661418,
                    "duration": 0.04076090625000006
                },
                {
                    "name": "A3",
                    "midi": 57,
                    "time": 141.63056224999966,
                    "velocity": 0.5354330708661418,
                    "duration": 0.04076090625000006
                },
                {
                    "name": "F#3",
                    "midi": 54,
                    "time": 141.63056224999966,
                    "velocity": 0.5354330708661418,
                    "duration": 0.04076090625000006
                },
                {
                    "name": "D4",
                    "midi": 62,
                    "time": 141.63056224999966,
                    "velocity": 0.6377952755905512,
                    "duration": 0.04076090625000006
                },
                {
                    "name": "F#3",
                    "midi": 54,
                    "time": 141.73925799999967,
                    "velocity": 0.5354330708661418,
                    "duration": 0.10869575000000964
                },
                {
                    "name": "A3",
                    "midi": 57,
                    "time": 141.73925799999967,
                    "velocity": 0.5354330708661418,
                    "duration": 0.10869575000000964
                },
                {
                    "name": "D3",
                    "midi": 50,
                    "time": 141.73925799999967,
                    "velocity": 0.5354330708661418,
                    "duration": 0.10869575000000964
                },
                {
                    "name": "D4",
                    "midi": 62,
                    "time": 141.73925799999967,
                    "velocity": 0.6377952755905512,
                    "duration": 0.10869575000000964
                },
                {
                    "name": "D3",
                    "midi": 50,
                    "time": 141.95664949999968,
                    "velocity": 0.5354330708661418,
                    "duration": 0.10869575000000964
                },
                {
                    "name": "D4",
                    "midi": 62,
                    "time": 141.95664949999968,
                    "velocity": 0.6377952755905512,
                    "duration": 0.10869575000000964
                },
                {
                    "name": "F#3",
                    "midi": 54,
                    "time": 141.95664949999968,
                    "velocity": 0.5354330708661418,
                    "duration": 0.10869575000000964
                },
                {
                    "name": "A3",
                    "midi": 57,
                    "time": 141.95664949999968,
                    "velocity": 0.5354330708661418,
                    "duration": 0.10869575000000964
                },
                {
                    "name": "D3",
                    "midi": 50,
                    "time": 142.5001282499997,
                    "velocity": 0.30708661417322836,
                    "duration": 0.10869575000000964
                },
                {
                    "name": "D4",
                    "midi": 62,
                    "time": 142.60882399999971,
                    "velocity": 0.3543307086614173,
                    "duration": 0.3260872500000005
                },
                {
                    "name": "D3",
                    "midi": 50,
                    "time": 142.93491124999971,
                    "velocity": 0.31496062992125984,
                    "duration": 0.10869575000000964
                },
                {
                    "name": "D4",
                    "midi": 62,
                    "time": 143.04360699999972,
                    "velocity": 0.3700787401574803,
                    "duration": 0.3260872500000005
                },
                {
                    "name": "D3",
                    "midi": 50,
                    "time": 143.36969424999972,
                    "velocity": 0.33070866141732286,
                    "duration": 0.10869575000000964
                },
                {
                    "name": "D4",
                    "midi": 62,
                    "time": 143.47838999999973,
                    "velocity": 0.3858267716535433,
                    "duration": 0.3260872500000005
                },
                {
                    "name": "D3",
                    "midi": 50,
                    "time": 143.80447724999974,
                    "velocity": 0.3228346456692913,
                    "duration": 0.10869575000000964
                },
                {
                    "name": "D4",
                    "midi": 62,
                    "time": 143.91317299999974,
                    "velocity": 0.4094488188976378,
                    "duration": 0.3260872500000005
                },
                {
                    "name": "D3",
                    "midi": 50,
                    "time": 144.23926024999975,
                    "velocity": 0.3464566929133858,
                    "duration": 0.10869575000000964
                },
                {
                    "name": "C4",
                    "midi": 60,
                    "time": 144.34795599999975,
                    "velocity": 0.4330708661417323,
                    "duration": 0.3260872500000005
                },
                {
                    "name": "A3",
                    "midi": 57,
                    "time": 144.34795599999975,
                    "velocity": 0.4330708661417323,
                    "duration": 0.3260872500000005
                },
                {
                    "name": "D3",
                    "midi": 50,
                    "time": 144.67404324999976,
                    "velocity": 0.36220472440944884,
                    "duration": 0.10869575000000964
                },
                {
                    "name": "C4",
                    "midi": 60,
                    "time": 144.78273899999976,
                    "velocity": 0.4566929133858268,
                    "duration": 0.3260872500000005
                },
                {
                    "name": "A3",
                    "midi": 57,
                    "time": 144.78273899999976,
                    "velocity": 0.4566929133858268,
                    "duration": 0.3260872500000005
                },
                {
                    "name": "D3",
                    "midi": 50,
                    "time": 145.10882624999977,
                    "velocity": 0.3937007874015748,
                    "duration": 0.10869575000000964
                },
                {
                    "name": "A3",
                    "midi": 57,
                    "time": 145.21752199999978,
                    "velocity": 0.47244094488188976,
                    "duration": 0.3260872500000005
                },
                {
                    "name": "F#3",
                    "midi": 54,
                    "time": 145.21752199999978,
                    "velocity": 0.47244094488188976,
                    "duration": 0.3260872500000005
                },
                {
                    "name": "D3",
                    "midi": 50,
                    "time": 145.54360924999978,
                    "velocity": 0.4094488188976378,
                    "duration": 0.10869575000000964
                },
                {
                    "name": "A2",
                    "midi": 45,
                    "time": 145.65230499999979,
                    "velocity": 0.49606299212598426,
                    "duration": 0.3260872500000005
                },
                {
                    "name": "D3",
                    "midi": 50,
                    "time": 145.97839224999979,
                    "velocity": 0.4094488188976378,
                    "duration": 0.10869575000000964
                },
                {
                    "name": "A2",
                    "midi": 45,
                    "time": 146.0870879999998,
                    "velocity": 0.5118110236220472,
                    "duration": 0.3260872500000005
                },
                {
                    "name": "D3",
                    "midi": 50,
                    "time": 146.4131752499998,
                    "velocity": 0.44881889763779526,
                    "duration": 0.10869575000000964
                },
                {
                    "name": "G2",
                    "midi": 43,
                    "time": 146.5218709999998,
                    "velocity": 0.5354330708661418,
                    "duration": 0.3260872500000005
                },
                {
                    "name": "D3",
                    "midi": 50,
                    "time": 146.8479582499998,
                    "velocity": 0.44881889763779526,
                    "duration": 0.10869575000000964
                },
                {
                    "name": "F#2",
                    "midi": 42,
                    "time": 146.95665399999982,
                    "velocity": 0.5590551181102362,
                    "duration": 0.3260872500000005
                },
                {
                    "name": "D3",
                    "midi": 50,
                    "time": 147.28274124999982,
                    "velocity": 0.4645669291338583,
                    "duration": 0.10869575000000964
                },
                {
                    "name": "D#2",
                    "midi": 39,
                    "time": 147.39143699999983,
                    "velocity": 0.5748031496062992,
                    "duration": 0.3260872500000005
                },
                {
                    "name": "D3",
                    "midi": 50,
                    "time": 147.71752424999983,
                    "velocity": 0.5275590551181102,
                    "duration": 0.10869575000000964
                },
                {
                    "name": "D3",
                    "midi": 50,
                    "time": 147.82621999999984,
                    "velocity": 0.5748031496062992,
                    "duration": 0.21739149999999086
                },
                {
                    "name": "D2",
                    "midi": 38,
                    "time": 147.82621999999984,
                    "velocity": 0.5275590551181102,
                    "duration": 0.21739149999999086
                },
                {
                    "name": "D#5",
                    "midi": 75,
                    "time": 148.04361149999983,
                    "velocity": 0.3779527559055118,
                    "duration": 0.10869575000000964
                },
                {
                    "name": "D5",
                    "midi": 74,
                    "time": 148.15230724999984,
                    "velocity": 0.3779527559055118,
                    "duration": 0.10869575000000964
                },
                {
                    "name": "D#5",
                    "midi": 75,
                    "time": 148.26100299999985,
                    "velocity": 0.4251968503937008,
                    "duration": 0.21739149999999086
                },
                {
                    "name": "D5",
                    "midi": 74,
                    "time": 148.47839449999984,
                    "velocity": 0.3464566929133858,
                    "duration": 0.10869575000000964
                },
                {
                    "name": "C#5",
                    "midi": 73,
                    "time": 148.58709024999985,
                    "velocity": 0.3464566929133858,
                    "duration": 0.10869575000000964
                },
                {
                    "name": "D5",
                    "midi": 74,
                    "time": 148.69578599999986,
                    "velocity": 0.3464566929133858,
                    "duration": 0.21739149999999086
                },
                {
                    "name": "D#4",
                    "midi": 63,
                    "time": 148.91317749999985,
                    "velocity": 0.33858267716535434,
                    "duration": 0.10869575000000964
                },
                {
                    "name": "D4",
                    "midi": 62,
                    "time": 149.02187324999986,
                    "velocity": 0.33858267716535434,
                    "duration": 0.10869575000000964
                },
                {
                    "name": "D#4",
                    "midi": 63,
                    "time": 149.13056899999987,
                    "velocity": 0.4015748031496063,
                    "duration": 0.21739149999999086
                },
                {
                    "name": "D4",
                    "midi": 62,
                    "time": 149.34796049999986,
                    "velocity": 0.33858267716535434,
                    "duration": 0.10869575000000964
                },
                {
                    "name": "C#4",
                    "midi": 61,
                    "time": 149.45665624999987,
                    "velocity": 0.33858267716535434,
                    "duration": 0.10869575000000964
                },
                {
                    "name": "D4",
                    "midi": 62,
                    "time": 149.56535199999988,
                    "velocity": 0.4015748031496063,
                    "duration": 0.21739149999999086
                },
                {
                    "name": "D3",
                    "midi": 50,
                    "time": 149.89143924999988,
                    "velocity": 0.33070866141732286,
                    "duration": 0.10869575000000964
                },
                {
                    "name": "F#3",
                    "midi": 54,
                    "time": 150.0001349999999,
                    "velocity": 0.4015748031496063,
                    "duration": 0.21739149999999086
                },
                {
                    "name": "A3",
                    "midi": 57,
                    "time": 150.3262222499999,
                    "velocity": 0.31496062992125984,
                    "duration": 0.10869575000000964
                },
                {
                    "name": "C4",
                    "midi": 60,
                    "time": 150.4349179999999,
                    "velocity": 0.4015748031496063,
                    "duration": 0.21739149999999086
                },
                {
                    "name": "F#4",
                    "midi": 66,
                    "time": 150.7610052499999,
                    "velocity": 0.33858267716535434,
                    "duration": 0.10869575000000964
                },
                {
                    "name": "A4",
                    "midi": 69,
                    "time": 150.8697009999999,
                    "velocity": 0.4015748031496063,
                    "duration": 0.21739149999999086
                },
                {
                    "name": "C5",
                    "midi": 72,
                    "time": 151.0870924999999,
                    "velocity": 0.3543307086614173,
                    "duration": 0.10869575000000964
                },
                {
                    "name": "A4",
                    "midi": 69,
                    "time": 151.1957882499999,
                    "velocity": 0.3543307086614173,
                    "duration": 0.10869575000000964
                },
                {
                    "name": "A5",
                    "midi": 81,
                    "time": 151.30448399999992,
                    "velocity": 0.31496062992125984,
                    "duration": 0.10869575000000964
                },
                {
                    "name": "B5",
                    "midi": 83,
                    "time": 151.41317974999993,
                    "velocity": 0.31496062992125984,
                    "duration": 0.10869575000000964
                },
                {
                    "name": "C6",
                    "midi": 84,
                    "time": 151.52187549999994,
                    "velocity": 0.3464566929133858,
                    "duration": 0.10869575000000964
                },
                {
                    "name": "A5",
                    "midi": 81,
                    "time": 151.63057124999995,
                    "velocity": 0.31496062992125984,
                    "duration": 0.10869575000000964
                },
                {
                    "name": "C5",
                    "midi": 72,
                    "time": 151.73926699999996,
                    "velocity": 0.31496062992125984,
                    "duration": 0.10869575000000964
                },
                {
                    "name": "D5",
                    "midi": 74,
                    "time": 151.84796274999997,
                    "velocity": 0.31496062992125984,
                    "duration": 0.10869575000000964
                },
                {
                    "name": "E5",
                    "midi": 76,
                    "time": 151.95665849999997,
                    "velocity": 0.3543307086614173,
                    "duration": 0.10869575000000964
                },
                {
                    "name": "C5",
                    "midi": 72,
                    "time": 152.06535424999998,
                    "velocity": 0.31496062992125984,
                    "duration": 0.10869575000000964
                },
                {
                    "name": "A4",
                    "midi": 69,
                    "time": 152.17405,
                    "velocity": 0.31496062992125984,
                    "duration": 0.10869575000000964
                },
                {
                    "name": "B4",
                    "midi": 71,
                    "time": 152.28274575,
                    "velocity": 0.31496062992125984,
                    "duration": 0.10869575000000964
                },
                {
                    "name": "C5",
                    "midi": 72,
                    "time": 152.3914415,
                    "velocity": 0.3543307086614173,
                    "duration": 0.10869575000000964
                },
                {
                    "name": "A4",
                    "midi": 69,
                    "time": 152.50013725000002,
                    "velocity": 0.31496062992125984,
                    "duration": 0.1068841541666643
                },
                {
                    "name": "F#4",
                    "midi": 66,
                    "time": 152.60883300000003,
                    "velocity": 0.31496062992125984,
                    "duration": 0.10869575000000964
                },
                {
                    "name": "G4",
                    "midi": 67,
                    "time": 152.71752875000004,
                    "velocity": 0.31496062992125984,
                    "duration": 0.10869575000000964
                },
                {
                    "name": "A4",
                    "midi": 69,
                    "time": 152.82622450000005,
                    "velocity": 0.3543307086614173,
                    "duration": 0.10869575000000964
                },
                {
                    "name": "F#4",
                    "midi": 66,
                    "time": 152.93492025000006,
                    "velocity": 0.31496062992125984,
                    "duration": 0.10869575000000964
                },
                {
                    "name": "G4",
                    "midi": 67,
                    "time": 153.04361600000007,
                    "velocity": 0.3779527559055118,
                    "duration": 0.21739149999999086
                },
                {
                    "name": "B4",
                    "midi": 71,
                    "time": 153.04361600000007,
                    "velocity": 0.4015748031496063,
                    "duration": 0.21739149999999086
                },
                {
                    "name": "D4",
                    "midi": 62,
                    "time": 153.04361600000007,
                    "velocity": 0.3779527559055118,
                    "duration": 0.21739149999999086
                },
                {
                    "name": "D3",
                    "midi": 50,
                    "time": 153.36970325000007,
                    "velocity": 0.33070866141732286,
                    "duration": 0.10869575000000964
                },
                {
                    "name": "G3",
                    "midi": 55,
                    "time": 153.47839900000008,
                    "velocity": 0.4015748031496063,
                    "duration": 0.21739149999999086
                },
                {
                    "name": "B3",
                    "midi": 59,
                    "time": 153.80448625000008,
                    "velocity": 0.31496062992125984,
                    "duration": 0.10869575000000964
                },
                {
                    "name": "D4",
                    "midi": 62,
                    "time": 153.9131820000001,
                    "velocity": 0.4015748031496063,
                    "duration": 0.21739149999999086
                },
                {
                    "name": "G4",
                    "midi": 67,
                    "time": 154.2392692500001,
                    "velocity": 0.33858267716535434,
                    "duration": 0.10869575000000964
                },
                {
                    "name": "B4",
                    "midi": 71,
                    "time": 154.3479650000001,
                    "velocity": 0.4015748031496063,
                    "duration": 0.21739149999999086
                },
                {
                    "name": "D5",
                    "midi": 74,
                    "time": 154.6740522500001,
                    "velocity": 0.3543307086614173,
                    "duration": 0.10869575000000964
                },
                {
                    "name": "G5",
                    "midi": 79,
                    "time": 154.7827480000001,
                    "velocity": 0.31496062992125984,
                    "duration": 0.10869575000000964
                },
                {
                    "name": "A5",
                    "midi": 81,
                    "time": 154.89144375000012,
                    "velocity": 0.31496062992125984,
                    "duration": 0.10869575000000964
                },
                {
                    "name": "B5",
                    "midi": 83,
                    "time": 155.00013950000013,
                    "velocity": 0.3464566929133858,
                    "duration": 0.10869575000000964
                },
                {
                    "name": "G5",
                    "midi": 79,
                    "time": 155.10883525000014,
                    "velocity": 0.31496062992125984,
                    "duration": 0.1068841541666643
                },
                {
                    "name": "B4",
                    "midi": 71,
                    "time": 155.21753100000015,
                    "velocity": 0.31496062992125984,
                    "duration": 0.10869575000000964
                },
                {
                    "name": "C5",
                    "midi": 72,
                    "time": 155.32622675000016,
                    "velocity": 0.31496062992125984,
                    "duration": 0.10869575000000964
                },
                {
                    "name": "D5",
                    "midi": 74,
                    "time": 155.43492250000017,
                    "velocity": 0.3543307086614173,
                    "duration": 0.10869575000000964
                },
                {
                    "name": "B4",
                    "midi": 71,
                    "time": 155.54361825000018,
                    "velocity": 0.31496062992125984,
                    "duration": 0.10869575000000964
                },
                {
                    "name": "G4",
                    "midi": 67,
                    "time": 155.6523140000002,
                    "velocity": 0.31496062992125984,
                    "duration": 0.10869575000000964
                },
                {
                    "name": "A4",
                    "midi": 69,
                    "time": 155.7610097500002,
                    "velocity": 0.31496062992125984,
                    "duration": 0.10869575000000964
                },
                {
                    "name": "B4",
                    "midi": 71,
                    "time": 155.8697055000002,
                    "velocity": 0.3543307086614173,
                    "duration": 0.1068841541666643
                },
                {
                    "name": "G4",
                    "midi": 67,
                    "time": 155.97840125000022,
                    "velocity": 0.31496062992125984,
                    "duration": 0.1068841541666643
                },
                {
                    "name": "B4",
                    "midi": 71,
                    "time": 156.08709700000023,
                    "velocity": 0.31496062992125984,
                    "duration": 0.10869575000000964
                },
                {
                    "name": "C5",
                    "midi": 72,
                    "time": 156.19579275000024,
                    "velocity": 0.31496062992125984,
                    "duration": 0.10869575000000964
                },
                {
                    "name": "D5",
                    "midi": 74,
                    "time": 156.30448850000025,
                    "velocity": 0.3543307086614173,
                    "duration": 0.10869575000000964
                },
                {
                    "name": "B4",
                    "midi": 71,
                    "time": 156.41318425000026,
                    "velocity": 0.31496062992125984,
                    "duration": 0.10869575000000964
                },
                {
                    "name": "C5",
                    "midi": 72,
                    "time": 156.52188000000027,
                    "velocity": 0.31496062992125984,
                    "duration": 0.10869575000000964
                },
                {
                    "name": "D5",
                    "midi": 74,
                    "time": 156.63057575000028,
                    "velocity": 0.31496062992125984,
                    "duration": 0.10869575000000964
                },
                {
                    "name": "C5",
                    "midi": 72,
                    "time": 156.73927150000029,
                    "velocity": 0.3543307086614173,
                    "duration": 0.10869575000000964
                },
                {
                    "name": "B4",
                    "midi": 71,
                    "time": 156.8479672500003,
                    "velocity": 0.31496062992125984,
                    "duration": 0.10869575000000964
                },
                {
                    "name": "C5",
                    "midi": 72,
                    "time": 156.9566630000003,
                    "velocity": 0.31496062992125984,
                    "duration": 0.10869575000000964
                },
                {
                    "name": "D5",
                    "midi": 74,
                    "time": 157.0653587500003,
                    "velocity": 0.31496062992125984,
                    "duration": 0.10869575000000964
                },
                {
                    "name": "E5",
                    "midi": 76,
                    "time": 157.17405450000032,
                    "velocity": 0.3543307086614173,
                    "duration": 0.10869575000000964
                },
                {
                    "name": "C5",
                    "midi": 72,
                    "time": 157.28275025000033,
                    "velocity": 0.31496062992125984,
                    "duration": 0.10869575000000964
                },
                {
                    "name": "A4",
                    "midi": 69,
                    "time": 157.39144600000034,
                    "velocity": 0.36220472440944884,
                    "duration": 0.10869575000000964
                },
                {
                    "name": "B4",
                    "midi": 71,
                    "time": 157.50014175000035,
                    "velocity": 0.2992125984251969,
                    "duration": 0.10869575000000964
                },
                {
                    "name": "C5",
                    "midi": 72,
                    "time": 157.60883750000036,
                    "velocity": 0.3543307086614173,
                    "duration": 0.10869575000000964
                },
                {
                    "name": "A4",
                    "midi": 69,
                    "time": 157.71753325000037,
                    "velocity": 0.31496062992125984,
                    "duration": 0.10869575000000964
                },
                {
                    "name": "F#4",
                    "midi": 66,
                    "time": 157.82622900000038,
                    "velocity": 0.3543307086614173,
                    "duration": 0.10869575000000964
                },
                {
                    "name": "G4",
                    "midi": 67,
                    "time": 157.9349247500004,
                    "velocity": 0.28346456692913385,
                    "duration": 0.10869575000000964
                },
                {
                    "name": "A4",
                    "midi": 69,
                    "time": 158.0436205000004,
                    "velocity": 0.3228346456692913,
                    "duration": 0.10869575000000964
                },
                {
                    "name": "F#4",
                    "midi": 66,
                    "time": 158.1523162500004,
                    "velocity": 0.28346456692913385,
                    "duration": 0.10869575000000964
                },
                {
                    "name": "C4",
                    "midi": 60,
                    "time": 158.26101200000042,
                    "velocity": 0.36220472440944884,
                    "duration": 0.10869575000000964
                },
                {
                    "name": "D4",
                    "midi": 62,
                    "time": 158.36970775000043,
                    "velocity": 0.2992125984251969,
                    "duration": 0.10869575000000964
                },
                {
                    "name": "E4",
                    "midi": 64,
                    "time": 158.47840350000044,
                    "velocity": 0.3543307086614173,
                    "duration": 0.10869575000000964
                },
                {
                    "name": "C4",
                    "midi": 60,
                    "time": 158.58709925000045,
                    "velocity": 0.31496062992125984,
                    "duration": 0.10869575000000964
                },
                {
                    "name": "A3",
                    "midi": 57,
                    "time": 158.69579500000046,
                    "velocity": 0.3543307086614173,
                    "duration": 0.10869575000000964
                },
                {
                    "name": "B3",
                    "midi": 59,
                    "time": 158.80449075000047,
                    "velocity": 0.28346456692913385,
                    "duration": 0.10869575000000964
                },
                {
                    "name": "C4",
                    "midi": 60,
                    "time": 158.91318650000048,
                    "velocity": 0.3228346456692913,
                    "duration": 0.10869575000000964
                },
                {
                    "name": "A3",
                    "midi": 57,
                    "time": 159.0218822500005,
                    "velocity": 0.28346456692913385,
                    "duration": 0.10869575000000964
                },
                {
                    "name": "F#3",
                    "midi": 54,
                    "time": 159.1305780000005,
                    "velocity": 0.36220472440944884,
                    "duration": 0.10869575000000964
                },
                {
                    "name": "G3",
                    "midi": 55,
                    "time": 159.2392737500005,
                    "velocity": 0.2992125984251969,
                    "duration": 0.10869575000000964
                },
                {
                    "name": "A3",
                    "midi": 57,
                    "time": 159.34796950000052,
                    "velocity": 0.3543307086614173,
                    "duration": 0.10869575000000964
                },
                {
                    "name": "F#3",
                    "midi": 54,
                    "time": 159.45666525000053,
                    "velocity": 0.31496062992125984,
                    "duration": 0.10869575000000964
                },
                {
                    "name": "A4",
                    "midi": 69,
                    "time": 159.56536100000054,
                    "velocity": 0.3543307086614173,
                    "duration": 0.10869575000000964
                },
                {
                    "name": "G4",
                    "midi": 67,
                    "time": 159.67405675000055,
                    "velocity": 0.28346456692913385,
                    "duration": 0.10869575000000964
                },
                {
                    "name": "F#4",
                    "midi": 66,
                    "time": 159.78275250000056,
                    "velocity": 0.3228346456692913,
                    "duration": 0.10869575000000964
                },
                {
                    "name": "A4",
                    "midi": 69,
                    "time": 159.89144825000056,
                    "velocity": 0.28346456692913385,
                    "duration": 0.10869575000000964
                },
                {
                    "name": "B4",
                    "midi": 71,
                    "time": 160.00014400000057,
                    "velocity": 0.31496062992125984,
                    "duration": 0.10869575000000964
                },
                {
                    "name": "C5",
                    "midi": 72,
                    "time": 160.10883975000058,
                    "velocity": 0.31496062992125984,
                    "duration": 0.10869575000000964
                },
                {
                    "name": "B4",
                    "midi": 71,
                    "time": 160.2175355000006,
                    "velocity": 0.3543307086614173,
                    "duration": 0.10869575000000964
                },
                {
                    "name": "A4",
                    "midi": 69,
                    "time": 160.3262312500006,
                    "velocity": 0.31496062992125984,
                    "duration": 0.10869575000000964
                },
                {
                    "name": "B4",
                    "midi": 71,
                    "time": 160.4349270000006,
                    "velocity": 0.31496062992125984,
                    "duration": 0.10869575000000964
                },
                {
                    "name": "C5",
                    "midi": 72,
                    "time": 160.54362275000062,
                    "velocity": 0.31496062992125984,
                    "duration": 0.10869575000000964
                },
                {
                    "name": "D5",
                    "midi": 74,
                    "time": 160.65231850000063,
                    "velocity": 0.3543307086614173,
                    "duration": 0.10869575000000964
                },
                {
                    "name": "B4",
                    "midi": 71,
                    "time": 160.76101425000064,
                    "velocity": 0.31496062992125984,
                    "duration": 0.10869575000000964
                },
                {
                    "name": "G4",
                    "midi": 67,
                    "time": 160.86971000000065,
                    "velocity": 0.36220472440944884,
                    "duration": 0.10869575000000964
                },
                {
                    "name": "A4",
                    "midi": 69,
                    "time": 160.97840575000066,
                    "velocity": 0.2992125984251969,
                    "duration": 0.10869575000000964
                },
                {
                    "name": "B4",
                    "midi": 71,
                    "time": 161.08710150000067,
                    "velocity": 0.3543307086614173,
                    "duration": 0.10869575000000964
                },
                {
                    "name": "G4",
                    "midi": 67,
                    "time": 161.19579725000068,
                    "velocity": 0.31496062992125984,
                    "duration": 0.10869575000000964
                },
                {
                    "name": "D4",
                    "midi": 62,
                    "time": 161.3044930000007,
                    "velocity": 0.3543307086614173,
                    "duration": 0.10869575000000964
                },
                {
                    "name": "F#4",
                    "midi": 66,
                    "time": 161.4131887500007,
                    "velocity": 0.28346456692913385,
                    "duration": 0.10869575000000964
                },
                {
                    "name": "G4",
                    "midi": 67,
                    "time": 161.5218845000007,
                    "velocity": 0.3228346456692913,
                    "duration": 0.10869575000000964
                },
                {
                    "name": "D4",
                    "midi": 62,
                    "time": 161.63058025000072,
                    "velocity": 0.28346456692913385,
                    "duration": 0.10869575000000964
                },
                {
                    "name": "B3",
                    "midi": 59,
                    "time": 161.73927600000073,
                    "velocity": 0.36220472440944884,
                    "duration": 0.10869575000000964
                },
                {
                    "name": "C4",
                    "midi": 60,
                    "time": 161.84797175000074,
                    "velocity": 0.2992125984251969,
                    "duration": 0.10869575000000964
                },
                {
                    "name": "D4",
                    "midi": 62,
                    "time": 161.95666750000075,
                    "velocity": 0.3543307086614173,
                    "duration": 0.10869575000000964
                },
                {
                    "name": "B3",
                    "midi": 59,
                    "time": 162.06536325000076,
                    "velocity": 0.31496062992125984,
                    "duration": 0.10869575000000964
                },
                {
                    "name": "G3",
                    "midi": 55,
                    "time": 162.17405900000077,
                    "velocity": 0.3543307086614173,
                    "duration": 0.10869575000000964
                },
                {
                    "name": "A3",
                    "midi": 57,
                    "time": 162.28275475000078,
                    "velocity": 0.28346456692913385,
                    "duration": 0.10869575000000964
                },
                {
                    "name": "B3",
                    "midi": 59,
                    "time": 162.3914505000008,
                    "velocity": 0.3228346456692913,
                    "duration": 0.10869575000000964
                },
                {
                    "name": "G3",
                    "midi": 55,
                    "time": 162.5001462500008,
                    "velocity": 0.28346456692913385,
                    "duration": 0.10869575000000964
                },
                {
                    "name": "D3",
                    "midi": 50,
                    "time": 162.6088420000008,
                    "velocity": 0.36220472440944884,
                    "duration": 0.10869575000000964
                },
                {
                    "name": "F#3",
                    "midi": 54,
                    "time": 162.71753775000082,
                    "velocity": 0.2992125984251969,
                    "duration": 0.10869575000000964
                },
                {
                    "name": "G3",
                    "midi": 55,
                    "time": 162.82623350000082,
                    "velocity": 0.3543307086614173,
                    "duration": 0.10869575000000964
                },
                {
                    "name": "D3",
                    "midi": 50,
                    "time": 162.93492925000083,
                    "velocity": 0.31496062992125984,
                    "duration": 0.10869575000000964
                },
                {
                    "name": "C3",
                    "midi": 48,
                    "time": 163.04362500000084,
                    "velocity": 0.3543307086614173,
                    "duration": 0.10869575000000964
                },
                {
                    "name": "G3",
                    "midi": 55,
                    "time": 163.15232075000085,
                    "velocity": 0.28346456692913385,
                    "duration": 0.10869575000000964
                },
                {
                    "name": "D3",
                    "midi": 50,
                    "time": 163.26101650000086,
                    "velocity": 0.3228346456692913,
                    "duration": 0.10869575000000964
                },
                {
                    "name": "C3",
                    "midi": 48,
                    "time": 163.36971225000087,
                    "velocity": 0.28346456692913385,
                    "duration": 0.10869575000000964
                },
                {
                    "name": "B2",
                    "midi": 47,
                    "time": 163.47840800000088,
                    "velocity": 0.28346456692913385,
                    "duration": 0.21739149999999086
                },
                {
                    "name": "G2",
                    "midi": 43,
                    "time": 163.69579950000087,
                    "velocity": 0.2677165354330709,
                    "duration": 0.21739149999999086
                },
                {
                    "name": "G3",
                    "midi": 55,
                    "time": 163.69579950000087,
                    "velocity": 0.31496062992125984,
                    "duration": 0.21739149999999086
                },
                {
                    "name": "E3",
                    "midi": 52,
                    "time": 163.91319100000086,
                    "velocity": 0.28346456692913385,
                    "duration": 0.10869575000000964
                },
                {
                    "name": "C3",
                    "midi": 48,
                    "time": 163.91319100000086,
                    "velocity": 0.23622047244094488,
                    "duration": 0.10869575000000964
                },
                {
                    "name": "C4",
                    "midi": 60,
                    "time": 164.13058250000088,
                    "velocity": 0.31496062992125984,
                    "duration": 0.10869575000000964
                },
                {
                    "name": "A3",
                    "midi": 57,
                    "time": 164.2392782500009,
                    "velocity": 0.28346456692913385,
                    "duration": 0.10869575000000964
                },
                {
                    "name": "F#3",
                    "midi": 54,
                    "time": 164.3479740000009,
                    "velocity": 0.28346456692913385,
                    "duration": 0.21739149999999086
                },
                {
                    "name": "D3",
                    "midi": 50,
                    "time": 164.5653655000009,
                    "velocity": 0.2440944881889764,
                    "duration": 0.21739149999999086
                },
                {
                    "name": "D4",
                    "midi": 62,
                    "time": 164.5653655000009,
                    "velocity": 0.28346456692913385,
                    "duration": 0.21739149999999086
                },
                {
                    "name": "G3",
                    "midi": 55,
                    "time": 164.78275700000088,
                    "velocity": 0.23622047244094488,
                    "duration": 0.10869575000000964
                },
                {
                    "name": "B3",
                    "midi": 59,
                    "time": 164.78275700000088,
                    "velocity": 0.28346456692913385,
                    "duration": 0.10869575000000964
                },
                {
                    "name": "E4",
                    "midi": 64,
                    "time": 165.0001485000009,
                    "velocity": 0.28346456692913385,
                    "duration": 0.43478300000001013
                },
                {
                    "name": "G3",
                    "midi": 55,
                    "time": 165.0001485000009,
                    "velocity": 0.23622047244094488,
                    "duration": 0.43478300000001013
                },
                {
                    "name": "G3",
                    "midi": 55,
                    "time": 165.4349315000009,
                    "velocity": 0.23622047244094488,
                    "duration": 0.21739149999999086
                },
                {
                    "name": "E4",
                    "midi": 64,
                    "time": 165.4349315000009,
                    "velocity": 0.28346456692913385,
                    "duration": 0.21739149999999086
                },
                {
                    "name": "F#4",
                    "midi": 66,
                    "time": 165.6523230000009,
                    "velocity": 0.31496062992125984,
                    "duration": 0.21739149999999086
                },
                {
                    "name": "A3",
                    "midi": 57,
                    "time": 165.6523230000009,
                    "velocity": 0.2677165354330709,
                    "duration": 0.21739149999999086
                },
                {
                    "name": "G4",
                    "midi": 67,
                    "time": 165.8697145000009,
                    "velocity": 0.23622047244094488,
                    "duration": 0.10869575000000964
                },
                {
                    "name": "A3",
                    "midi": 57,
                    "time": 165.8697145000009,
                    "velocity": 0.1968503937007874,
                    "duration": 0.21739150000001928
                },
                {
                    "name": "A4",
                    "midi": 69,
                    "time": 165.9784102500009,
                    "velocity": 0.28346456692913385,
                    "duration": 0.10869575000000964
                },
                {
                    "name": "D4",
                    "midi": 62,
                    "time": 166.08710600000092,
                    "velocity": 0.23622047244094488,
                    "duration": 0.6521744999999726
                },
                {
                    "name": "A4",
                    "midi": 69,
                    "time": 166.08710600000092,
                    "velocity": 0.28346456692913385,
                    "duration": 0.21739149999999086
                },
                {
                    "name": "B4",
                    "midi": 71,
                    "time": 166.3044975000009,
                    "velocity": 0.28346456692913385,
                    "duration": 0.16304362500000025
                },
                {
                    "name": "C#5",
                    "midi": 73,
                    "time": 166.4675411250009,
                    "velocity": 0.2440944881889764,
                    "duration": 0.05434787499999061
                },
                {
                    "name": "D5",
                    "midi": 74,
                    "time": 166.5218890000009,
                    "velocity": 0.28346456692913385,
                    "duration": 0.21739149999999086
                },
                {
                    "name": "E5",
                    "midi": 76,
                    "time": 166.7392805000009,
                    "velocity": 0.29133858267716534,
                    "duration": 0.10869575000000964
                },
                {
                    "name": "F#5",
                    "midi": 78,
                    "time": 166.8479762500009,
                    "velocity": 0.28346456692913385,
                    "duration": 0.10869575000000964
                },
                {
                    "name": "G5",
                    "midi": 79,
                    "time": 166.9566720000009,
                    "velocity": 0.28346456692913385,
                    "duration": 0.21739149999999086
                },
                {
                    "name": "B4",
                    "midi": 71,
                    "time": 167.1740635000009,
                    "velocity": 0.23622047244094488,
                    "duration": 0.21739149999999086
                },
                {
                    "name": "D5",
                    "midi": 74,
                    "time": 167.1740635000009,
                    "velocity": 0.28346456692913385,
                    "duration": 0.21739149999999086
                },
                {
                    "name": "E5",
                    "midi": 76,
                    "time": 167.3914550000009,
                    "velocity": 0.28346456692913385,
                    "duration": 0.10869575000000964
                },
                {
                    "name": "C5",
                    "midi": 72,
                    "time": 167.3914550000009,
                    "velocity": 0.23622047244094488,
                    "duration": 0.10869575000000964
                },
                {
                    "name": "A4",
                    "midi": 69,
                    "time": 167.6088465000009,
                    "velocity": 0.28346456692913385,
                    "duration": 0.10869575000000964
                },
                {
                    "name": "C5",
                    "midi": 72,
                    "time": 167.71754225000092,
                    "velocity": 0.25196850393700787,
                    "duration": 0.10869575000000964
                },
                {
                    "name": "D5",
                    "midi": 74,
                    "time": 167.82623800000093,
                    "velocity": 0.28346456692913385,
                    "duration": 0.21739149999999086
                },
                {
                    "name": "A4",
                    "midi": 69,
                    "time": 168.04362950000092,
                    "velocity": 0.28346456692913385,
                    "duration": 0.21739149999999086
                },
                {
                    "name": "F#4",
                    "midi": 66,
                    "time": 168.04362950000092,
                    "velocity": 0.23622047244094488,
                    "duration": 0.21739149999999086
                },
                {
                    "name": "G4",
                    "midi": 67,
                    "time": 168.2610210000009,
                    "velocity": 0.25984251968503935,
                    "duration": 0.10869575000000964
                },
                {
                    "name": "B4",
                    "midi": 71,
                    "time": 168.2610210000009,
                    "velocity": 0.28346456692913385,
                    "duration": 0.10869575000000964
                },
                {
                    "name": "E4",
                    "midi": 64,
                    "time": 168.69580400000092,
                    "velocity": 0.23622047244094488,
                    "duration": 0.21739149999999086
                },
                {
                    "name": "G4",
                    "midi": 67,
                    "time": 168.69580400000092,
                    "velocity": 0.23622047244094488,
                    "duration": 0.21739149999999086
                },
                {
                    "name": "B4",
                    "midi": 71,
                    "time": 168.69580400000092,
                    "velocity": 0.28346456692913385,
                    "duration": 0.21739149999999086
                },
                {
                    "name": "E4",
                    "midi": 64,
                    "time": 168.9131955000009,
                    "velocity": 0.23622047244094488,
                    "duration": 0.21739149999999086
                },
                {
                    "name": "C5",
                    "midi": 72,
                    "time": 168.9131955000009,
                    "velocity": 0.28346456692913385,
                    "duration": 0.21739149999999086
                },
                {
                    "name": "G4",
                    "midi": 67,
                    "time": 168.9131955000009,
                    "velocity": 0.23622047244094488,
                    "duration": 0.21739149999999086
                },
                {
                    "name": "G4",
                    "midi": 67,
                    "time": 169.1305870000009,
                    "velocity": 0.28346456692913385,
                    "duration": 0.10869575000000964
                },
                {
                    "name": "E4",
                    "midi": 64,
                    "time": 169.1305870000009,
                    "velocity": 0.23622047244094488,
                    "duration": 0.21739150000001928
                },
                {
                    "name": "C5",
                    "midi": 72,
                    "time": 169.1305870000009,
                    "velocity": 0.28346456692913385,
                    "duration": 0.21739150000001928
                },
                {
                    "name": "A4",
                    "midi": 69,
                    "time": 169.2392827500009,
                    "velocity": 0.23622047244094488,
                    "duration": 0.10869575000000964
                },
                {
                    "name": "D#4",
                    "midi": 63,
                    "time": 169.34797850000092,
                    "velocity": 0.23622047244094488,
                    "duration": 0.21739149999999086
                },
                {
                    "name": "F#4",
                    "midi": 66,
                    "time": 169.34797850000092,
                    "velocity": 0.23622047244094488,
                    "duration": 0.21739149999999086
                },
                {
                    "name": "B4",
                    "midi": 71,
                    "time": 169.34797850000092,
                    "velocity": 0.28346456692913385,
                    "duration": 0.21739149999999086
                },
                {
                    "name": "F#4",
                    "midi": 66,
                    "time": 169.5653700000009,
                    "velocity": 0.23622047244094488,
                    "duration": 0.21739149999999086
                },
                {
                    "name": "B4",
                    "midi": 71,
                    "time": 169.5653700000009,
                    "velocity": 0.28346456692913385,
                    "duration": 0.21739149999999086
                },
                {
                    "name": "D#4",
                    "midi": 63,
                    "time": 169.5653700000009,
                    "velocity": 0.23622047244094488,
                    "duration": 0.21739149999999086
                },
                {
                    "name": "D#4",
                    "midi": 63,
                    "time": 169.7827615000009,
                    "velocity": 0.2440944881889764,
                    "duration": 0.21739149999999086
                },
                {
                    "name": "B3",
                    "midi": 59,
                    "time": 169.7827615000009,
                    "velocity": 0.2047244094488189,
                    "duration": 0.21739149999999086
                },
                {
                    "name": "G4",
                    "midi": 67,
                    "time": 170.0001530000009,
                    "velocity": 0.28346456692913385,
                    "duration": 0.21739149999999086
                },
                {
                    "name": "E4",
                    "midi": 64,
                    "time": 170.0001530000009,
                    "velocity": 0.23622047244094488,
                    "duration": 0.21739149999999086
                },
                {
                    "name": "F4",
                    "midi": 65,
                    "time": 170.21754450000088,
                    "velocity": 0.31496062992125984,
                    "duration": 0.10869575000000964
                },
                {
                    "name": "D4",
                    "midi": 62,
                    "time": 170.21754450000088,
                    "velocity": 0.2677165354330709,
                    "duration": 0.10869575000000964
                },
                {
                    "name": "E4",
                    "midi": 64,
                    "time": 170.3262402500009,
                    "velocity": 0.28346456692913385,
                    "duration": 0.10778995208332276
                },
                {
                    "name": "C#4",
                    "midi": 61,
                    "time": 170.3262402500009,
                    "velocity": 0.23622047244094488,
                    "duration": 0.10778995208332276
                },
                {
                    "name": "E4",
                    "midi": 64,
                    "time": 170.43493600000087,
                    "velocity": 0.28346456692913385,
                    "duration": 0.21739149999999086
                },
                {
                    "name": "C#4",
                    "midi": 61,
                    "time": 170.43493600000087,
                    "velocity": 0.23622047244094488,
                    "duration": 0.21739149999999086
                },
                {
                    "name": "C#4",
                    "midi": 61,
                    "time": 170.65232750000087,
                    "velocity": 0.2440944881889764,
                    "duration": 0.21739149999999086
                },
                {
                    "name": "A3",
                    "midi": 57,
                    "time": 170.65232750000087,
                    "velocity": 0.2047244094488189,
                    "duration": 0.21739149999999086
                },
                {
                    "name": "F4",
                    "midi": 65,
                    "time": 170.86971900000086,
                    "velocity": 0.28346456692913385,
                    "duration": 0.21739149999999086
                },
                {
                    "name": "D4",
                    "midi": 62,
                    "time": 170.86971900000086,
                    "velocity": 0.23622047244094488,
                    "duration": 0.21739149999999086
                },
                {
                    "name": "D#4",
                    "midi": 63,
                    "time": 171.08711050000085,
                    "velocity": 0.31496062992125984,
                    "duration": 0.10869575000000964
                },
                {
                    "name": "C4",
                    "midi": 60,
                    "time": 171.08711050000085,
                    "velocity": 0.2677165354330709,
                    "duration": 0.10869575000000964
                },
                {
                    "name": "D4",
                    "midi": 62,
                    "time": 171.19580625000086,
                    "velocity": 0.28346456692913385,
                    "duration": 0.10869575000000964
                },
                {
                    "name": "B3",
                    "midi": 59,
                    "time": 171.19580625000086,
                    "velocity": 0.23622047244094488,
                    "duration": 0.10869575000000964
                },
                {
                    "name": "B3",
                    "midi": 59,
                    "time": 171.30450200000087,
                    "velocity": 0.23622047244094488,
                    "duration": 0.21739149999999086
                },
                {
                    "name": "D4",
                    "midi": 62,
                    "time": 171.30450200000087,
                    "velocity": 0.28346456692913385,
                    "duration": 0.21739149999999086
                },
                {
                    "name": "G3",
                    "midi": 55,
                    "time": 171.52189350000086,
                    "velocity": 0.2047244094488189,
                    "duration": 0.21739149999999086
                },
                {
                    "name": "B3",
                    "midi": 59,
                    "time": 171.52189350000086,
                    "velocity": 0.2440944881889764,
                    "duration": 0.21739149999999086
                },
                {
                    "name": "C4",
                    "midi": 60,
                    "time": 171.73928500000085,
                    "velocity": 0.23622047244094488,
                    "duration": 0.21739149999999086
                },
                {
                    "name": "E4",
                    "midi": 64,
                    "time": 171.73928500000085,
                    "velocity": 0.28346456692913385,
                    "duration": 0.21739149999999086
                },
                {
                    "name": "B3",
                    "midi": 59,
                    "time": 171.95667650000084,
                    "velocity": 0.2677165354330709,
                    "duration": 0.10869575000000964
                },
                {
                    "name": "D#4",
                    "midi": 63,
                    "time": 171.95667650000084,
                    "velocity": 0.31496062992125984,
                    "duration": 0.10869575000000964
                },
                {
                    "name": "A#3",
                    "midi": 58,
                    "time": 172.06537225000085,
                    "velocity": 0.23622047244094488,
                    "duration": 0.10778995208332276
                },
                {
                    "name": "C#4",
                    "midi": 61,
                    "time": 172.06537225000085,
                    "velocity": 0.28346456692913385,
                    "duration": 0.10778995208332276
                },
                {
                    "name": "A#3",
                    "midi": 58,
                    "time": 172.17406800000083,
                    "velocity": 0.23622047244094488,
                    "duration": 0.21739149999999086
                },
                {
                    "name": "C#4",
                    "midi": 61,
                    "time": 172.17406800000083,
                    "velocity": 0.28346456692913385,
                    "duration": 0.21739149999999086
                },
                {
                    "name": "F#3",
                    "midi": 54,
                    "time": 172.39145950000082,
                    "velocity": 0.2047244094488189,
                    "duration": 0.21739149999999086
                },
                {
                    "name": "A#3",
                    "midi": 58,
                    "time": 172.39145950000082,
                    "velocity": 0.2440944881889764,
                    "duration": 0.21739149999999086
                },
                {
                    "name": "B3",
                    "midi": 59,
                    "time": 172.6088510000008,
                    "velocity": 0.23622047244094488,
                    "duration": 0.21739149999999086
                },
                {
                    "name": "D4",
                    "midi": 62,
                    "time": 172.6088510000008,
                    "velocity": 0.28346456692913385,
                    "duration": 0.21739149999999086
                },
                {
                    "name": "A3",
                    "midi": 57,
                    "time": 172.8262425000008,
                    "velocity": 0.2677165354330709,
                    "duration": 0.10869575000000964
                },
                {
                    "name": "C#4",
                    "midi": 61,
                    "time": 172.8262425000008,
                    "velocity": 0.31496062992125984,
                    "duration": 0.10869575000000964
                },
                {
                    "name": "B3",
                    "midi": 59,
                    "time": 172.9349382500008,
                    "velocity": 0.28346456692913385,
                    "duration": 0.10778995208332276
                },
                {
                    "name": "G#3",
                    "midi": 56,
                    "time": 172.9349382500008,
                    "velocity": 0.23622047244094488,
                    "duration": 0.10778995208332276
                },
                {
                    "name": "B3",
                    "midi": 59,
                    "time": 173.0436340000008,
                    "velocity": 0.28346456692913385,
                    "duration": 0.21739149999999086
                },
                {
                    "name": "G#3",
                    "midi": 56,
                    "time": 173.0436340000008,
                    "velocity": 0.23622047244094488,
                    "duration": 0.21739149999999086
                },
                {
                    "name": "A3",
                    "midi": 57,
                    "time": 173.26102550000078,
                    "velocity": 0.28346456692913385,
                    "duration": 0.10869575000000964
                },
                {
                    "name": "E4",
                    "midi": 64,
                    "time": 173.26102550000078,
                    "velocity": 0.23622047244094488,
                    "duration": 0.21739150000001928
                },
                {
                    "name": "G3",
                    "midi": 55,
                    "time": 173.3697212500008,
                    "velocity": 0.23622047244094488,
                    "duration": 0.10869575000000964
                },
                {
                    "name": "A3",
                    "midi": 57,
                    "time": 173.4784170000008,
                    "velocity": 0.28346456692913385,
                    "duration": 0.21739149999999086
                },
                {
                    "name": "F#3",
                    "midi": 54,
                    "time": 173.4784170000008,
                    "velocity": 0.23622047244094488,
                    "duration": 0.21739149999999086
                },
                {
                    "name": "G3",
                    "midi": 55,
                    "time": 173.6958085000008,
                    "velocity": 0.28346456692913385,
                    "duration": 0.10869575000000964
                },
                {
                    "name": "B3",
                    "midi": 59,
                    "time": 173.6958085000008,
                    "velocity": 0.23622047244094488,
                    "duration": 0.21739150000001928
                },
                {
                    "name": "B2",
                    "midi": 47,
                    "time": 173.8045042500008,
                    "velocity": 0.25196850393700787,
                    "duration": 0.10869575000000964
                },
                {
                    "name": "A2",
                    "midi": 45,
                    "time": 173.9132000000008,
                    "velocity": 0.1968503937007874,
                    "duration": 1.304349000000002
                },
                {
                    "name": "D3",
                    "midi": 50,
                    "time": 173.9132000000008,
                    "velocity": 0.1968503937007874,
                    "duration": 1.304349000000002
                },
                {
                    "name": "C4",
                    "midi": 60,
                    "time": 173.9132000000008,
                    "velocity": 0.23622047244094488,
                    "duration": 1.304349000000002
                },
                {
                    "name": "B3",
                    "midi": 59,
                    "time": 175.21754900000082,
                    "velocity": 0.23622047244094488,
                    "duration": 0.43478300000001013
                },
                {
                    "name": "B2",
                    "midi": 47,
                    "time": 175.21754900000082,
                    "velocity": 0.1968503937007874,
                    "duration": 0.43478300000001013
                },
                {
                    "name": "D3",
                    "midi": 50,
                    "time": 175.21754900000082,
                    "velocity": 0.1968503937007874,
                    "duration": 0.43478300000001013
                },
                {
                    "name": "A2",
                    "midi": 45,
                    "time": 175.65233200000083,
                    "velocity": 0.1968503937007874,
                    "duration": 1.304349000000002
                },
                {
                    "name": "C4",
                    "midi": 60,
                    "time": 175.65233200000083,
                    "velocity": 0.23622047244094488,
                    "duration": 1.304349000000002
                },
                {
                    "name": "D3",
                    "midi": 50,
                    "time": 175.65233200000083,
                    "velocity": 0.1968503937007874,
                    "duration": 1.304349000000002
                },
                {
                    "name": "B2",
                    "midi": 47,
                    "time": 176.95668100000083,
                    "velocity": 0.1968503937007874,
                    "duration": 0.43478300000001013
                },
                {
                    "name": "B3",
                    "midi": 59,
                    "time": 176.95668100000083,
                    "velocity": 0.23622047244094488,
                    "duration": 0.43478300000001013
                },
                {
                    "name": "D3",
                    "midi": 50,
                    "time": 176.95668100000083,
                    "velocity": 0.1968503937007874,
                    "duration": 0.43478300000001013
                },
                {
                    "name": "B1",
                    "midi": 35,
                    "time": 177.39146400000084,
                    "velocity": 0.1968503937007874,
                    "duration": 0.43478300000001013
                },
                {
                    "name": "B2",
                    "midi": 47,
                    "time": 177.39146400000084,
                    "velocity": 0.23622047244094488,
                    "duration": 0.43478300000001013
                },
                {
                    "name": "E3",
                    "midi": 52,
                    "time": 177.82624700000085,
                    "velocity": 0.2204724409448819,
                    "duration": 0.43478300000001013
                },
                {
                    "name": "E2",
                    "midi": 40,
                    "time": 177.82624700000085,
                    "velocity": 0.18110236220472442,
                    "duration": 0.43478300000001013
                },
                {
                    "name": "C#2",
                    "midi": 37,
                    "time": 178.26103000000086,
                    "velocity": 0.1968503937007874,
                    "duration": 0.43478300000001013
                },
                {
                    "name": "C#3",
                    "midi": 49,
                    "time": 178.26103000000086,
                    "velocity": 0.23622047244094488,
                    "duration": 0.43478300000001013
                },
                {
                    "name": "D3",
                    "midi": 50,
                    "time": 178.69581300000087,
                    "velocity": 0.2283464566929134,
                    "duration": 0.21739149999999086
                },
                {
                    "name": "D2",
                    "midi": 38,
                    "time": 178.69581300000087,
                    "velocity": 0.1889763779527559,
                    "duration": 0.21739149999999086
                },
                {
                    "name": "D4",
                    "midi": 62,
                    "time": 179.13059600000085,
                    "velocity": 0.1968503937007874,
                    "duration": 1.304349000000002
                },
                {
                    "name": "C5",
                    "midi": 72,
                    "time": 179.13059600000085,
                    "velocity": 0.23622047244094488,
                    "duration": 1.304349000000002
                },
                {
                    "name": "A3",
                    "midi": 57,
                    "time": 179.13059600000085,
                    "velocity": 0.1968503937007874,
                    "duration": 1.304349000000002
                },
                {
                    "name": "B4",
                    "midi": 71,
                    "time": 180.43494500000085,
                    "velocity": 0.23622047244094488,
                    "duration": 0.43478300000001013
                },
                {
                    "name": "B3",
                    "midi": 59,
                    "time": 180.43494500000085,
                    "velocity": 0.1968503937007874,
                    "duration": 0.43478300000001013
                },
                {
                    "name": "D4",
                    "midi": 62,
                    "time": 180.43494500000085,
                    "velocity": 0.1968503937007874,
                    "duration": 0.43478300000001013
                },
                {
                    "name": "A2",
                    "midi": 45,
                    "time": 180.86972800000086,
                    "velocity": 0.1968503937007874,
                    "duration": 1.304349000000002
                },
                {
                    "name": "D3",
                    "midi": 50,
                    "time": 180.86972800000086,
                    "velocity": 0.1968503937007874,
                    "duration": 1.304349000000002
                },
                {
                    "name": "C4",
                    "midi": 60,
                    "time": 180.86972800000086,
                    "velocity": 0.23622047244094488,
                    "duration": 1.304349000000002
                },
                {
                    "name": "D3",
                    "midi": 50,
                    "time": 182.17407700000086,
                    "velocity": 0.1968503937007874,
                    "duration": 0.21739149999999086
                },
                {
                    "name": "B2",
                    "midi": 47,
                    "time": 182.17407700000086,
                    "velocity": 0.1968503937007874,
                    "duration": 0.21739149999999086
                },
                {
                    "name": "B3",
                    "midi": 59,
                    "time": 182.17407700000086,
                    "velocity": 0.23622047244094488,
                    "duration": 0.21739149999999086
                },
                {
                    "name": "B3",
                    "midi": 59,
                    "time": 182.39146850000085,
                    "velocity": 0.23622047244094488,
                    "duration": 0.21557990416667394
                },
                {
                    "name": "B3",
                    "midi": 59,
                    "time": 182.60886000000087,
                    "velocity": 0.23622047244094488,
                    "duration": 0.43478300000001013
                },
                {
                    "name": "E4",
                    "midi": 64,
                    "time": 183.04364300000088,
                    "velocity": 0.2204724409448819,
                    "duration": 0.43478300000001013
                },
                {
                    "name": "C#4",
                    "midi": 61,
                    "time": 183.4784260000009,
                    "velocity": 0.23622047244094488,
                    "duration": 0.43478300000001013
                },
                {
                    "name": "D4",
                    "midi": 62,
                    "time": 183.9132090000009,
                    "velocity": 0.2283464566929134,
                    "duration": 0.21739149999999086
                },
                {
                    "name": "D#4",
                    "midi": 63,
                    "time": 184.1306005000009,
                    "velocity": 0.2283464566929134,
                    "duration": 0.21739149999999086
                },
                {
                    "name": "E4",
                    "midi": 64,
                    "time": 184.3479920000009,
                    "velocity": 0.2440944881889764,
                    "duration": 0.43478300000001013
                },
                {
                    "name": "A4",
                    "midi": 69,
                    "time": 184.7827750000009,
                    "velocity": 0.23622047244094488,
                    "duration": 0.43478300000001013
                },
                {
                    "name": "F#4",
                    "midi": 66,
                    "time": 185.2175580000009,
                    "velocity": 0.25984251968503935,
                    "duration": 0.43478300000001013
                },
                {
                    "name": "G4",
                    "midi": 67,
                    "time": 185.65234100000092,
                    "velocity": 0.2677165354330709,
                    "duration": 0.21739149999999086
                },
                {
                    "name": "G#4",
                    "midi": 68,
                    "time": 185.8697325000009,
                    "velocity": 0.2677165354330709,
                    "duration": 0.21739149999999086
                },
                {
                    "name": "A4",
                    "midi": 69,
                    "time": 186.0871240000009,
                    "velocity": 0.28346456692913385,
                    "duration": 0.43478300000001013
                },
                {
                    "name": "C#5",
                    "midi": 73,
                    "time": 186.5219070000009,
                    "velocity": 0.2755905511811024,
                    "duration": 0.43478300000001013
                },
                {
                    "name": "B4",
                    "midi": 71,
                    "time": 186.95669000000092,
                    "velocity": 0.30708661417322836,
                    "duration": 0.43478300000001013
                },
                {
                    "name": "C4",
                    "midi": 60,
                    "time": 187.39147300000093,
                    "velocity": 0.30708661417322836,
                    "duration": 0.652174500000001
                },
                {
                    "name": "C5",
                    "midi": 72,
                    "time": 187.39147300000093,
                    "velocity": 0.30708661417322836,
                    "duration": 0.652174500000001
                },
                {
                    "name": "C3",
                    "midi": 48,
                    "time": 188.04364750000093,
                    "velocity": 0.5196850393700787,
                    "duration": 0.21739149999999086
                },
                {
                    "name": "C2",
                    "midi": 36,
                    "time": 188.04364750000093,
                    "velocity": 0.4409448818897638,
                    "duration": 0.21739149999999086
                },
                {
                    "name": "C4",
                    "midi": 60,
                    "time": 188.91321350000092,
                    "velocity": 0.5433070866141733,
                    "duration": 0.10869575000000964
                },
                {
                    "name": "E4",
                    "midi": 64,
                    "time": 188.91321350000092,
                    "velocity": 0.6456692913385826,
                    "duration": 0.10869575000000964
                },
                {
                    "name": "B3",
                    "midi": 59,
                    "time": 189.13060500000094,
                    "velocity": 0.5275590551181102,
                    "duration": 0.21739149999999086
                },
                {
                    "name": "D4",
                    "midi": 62,
                    "time": 189.13060500000094,
                    "velocity": 0.6220472440944882,
                    "duration": 0.21739149999999086
                },
                {
                    "name": "C4",
                    "midi": 60,
                    "time": 189.34799650000093,
                    "velocity": 0.5354330708661418,
                    "duration": 0.10869575000000964
                },
                {
                    "name": "E4",
                    "midi": 64,
                    "time": 189.34799650000093,
                    "velocity": 0.6377952755905512,
                    "duration": 0.10869575000000964
                },
                {
                    "name": "D4",
                    "midi": 62,
                    "time": 189.45669225000094,
                    "velocity": 0.5590551181102362,
                    "duration": 0.10869575000000964
                },
                {
                    "name": "F4",
                    "midi": 65,
                    "time": 189.45669225000094,
                    "velocity": 0.6614173228346457,
                    "duration": 0.10869575000000964
                },
                {
                    "name": "E4",
                    "midi": 64,
                    "time": 189.56538800000095,
                    "velocity": 0.5826771653543307,
                    "duration": 0.10869575000000964
                },
                {
                    "name": "G4",
                    "midi": 67,
                    "time": 189.56538800000095,
                    "velocity": 0.6929133858267716,
                    "duration": 0.10869575000000964
                },
                {
                    "name": "C2",
                    "midi": 36,
                    "time": 189.78277950000097,
                    "velocity": 0.4409448818897638,
                    "duration": 0.21739149999999086
                },
                {
                    "name": "C3",
                    "midi": 48,
                    "time": 189.78277950000097,
                    "velocity": 0.5196850393700787,
                    "duration": 0.21739149999999086
                },
                {
                    "name": "C#2",
                    "midi": 37,
                    "time": 190.65234550000096,
                    "velocity": 0.4881889763779528,
                    "duration": 0.21739149999999086
                },
                {
                    "name": "C#3",
                    "midi": 49,
                    "time": 190.65234550000096,
                    "velocity": 0.5826771653543307,
                    "duration": 0.21739149999999086
                },
                {
                    "name": "A2",
                    "midi": 45,
                    "time": 191.08712850000094,
                    "velocity": 0.6220472440944882,
                    "duration": 0.21739149999999086
                },
                {
                    "name": "A1",
                    "midi": 33,
                    "time": 191.08712850000094,
                    "velocity": 0.5275590551181102,
                    "duration": 0.21739149999999086
                },
                {
                    "name": "D2",
                    "midi": 38,
                    "time": 191.52191150000093,
                    "velocity": 0.4881889763779528,
                    "duration": 0.21739149999999086
                },
                {
                    "name": "D3",
                    "midi": 50,
                    "time": 191.52191150000093,
                    "velocity": 0.5826771653543307,
                    "duration": 0.21739149999999086
                },
                {
                    "name": "E2",
                    "midi": 40,
                    "time": 191.9566945000009,
                    "velocity": 0.5275590551181102,
                    "duration": 0.21739149999999086
                },
                {
                    "name": "E3",
                    "midi": 52,
                    "time": 191.9566945000009,
                    "velocity": 0.6220472440944882,
                    "duration": 0.21739149999999086
                },
                {
                    "name": "D2",
                    "midi": 38,
                    "time": 192.1740860000009,
                    "velocity": 0.3937007874015748,
                    "duration": 0.10869575000000964
                },
                {
                    "name": "F#2",
                    "midi": 42,
                    "time": 192.2827817500009,
                    "velocity": 0.3937007874015748,
                    "duration": 0.10869575000000964
                },
                {
                    "name": "G2",
                    "midi": 43,
                    "time": 192.39147750000092,
                    "velocity": 0.3937007874015748,
                    "duration": 0.10869575000000964
                },
                {
                    "name": "B2",
                    "midi": 47,
                    "time": 192.50017325000093,
                    "velocity": 0.3937007874015748,
                    "duration": 0.10869575000000964
                },
                {
                    "name": "D3",
                    "midi": 50,
                    "time": 192.60886900000094,
                    "velocity": 0.3937007874015748,
                    "duration": 0.10869575000000964
                },
                {
                    "name": "F#3",
                    "midi": 54,
                    "time": 192.71756475000095,
                    "velocity": 0.3937007874015748,
                    "duration": 0.10869575000000964
                },
                {
                    "name": "G3",
                    "midi": 55,
                    "time": 192.82626050000096,
                    "velocity": 0.3937007874015748,
                    "duration": 0.10869575000000964
                },
                {
                    "name": "B3",
                    "midi": 59,
                    "time": 192.93495625000097,
                    "velocity": 0.3937007874015748,
                    "duration": 0.10869575000000964
                },
                {
                    "name": "D4",
                    "midi": 62,
                    "time": 193.04365200000098,
                    "velocity": 0.3937007874015748,
                    "duration": 0.10869575000000964
                },
                {
                    "name": "F#4",
                    "midi": 66,
                    "time": 193.15234775000098,
                    "velocity": 0.3937007874015748,
                    "duration": 0.10869575000000964
                },
                {
                    "name": "G4",
                    "midi": 67,
                    "time": 193.261043500001,
                    "velocity": 0.3937007874015748,
                    "duration": 0.10869575000000964
                },
                {
                    "name": "B4",
                    "midi": 71,
                    "time": 193.369739250001,
                    "velocity": 0.3937007874015748,
                    "duration": 0.10869575000000964
                },
                {
                    "name": "G4",
                    "midi": 67,
                    "time": 193.695826500001,
                    "velocity": 0.33858267716535434,
                    "duration": 0.10869575000000964
                },
                {
                    "name": "B4",
                    "midi": 71,
                    "time": 193.804522250001,
                    "velocity": 0.3464566929133858,
                    "duration": 0.10869575000000964
                },
                {
                    "name": "C#5",
                    "midi": 73,
                    "time": 193.91321800000102,
                    "velocity": 0.3543307086614173,
                    "duration": 0.10869575000000964
                },
                {
                    "name": "D5",
                    "midi": 74,
                    "time": 194.02191375000103,
                    "velocity": 0.36220472440944884,
                    "duration": 0.10869575000000964
                },
                {
                    "name": "E5",
                    "midi": 76,
                    "time": 194.13060950000104,
                    "velocity": 0.3700787401574803,
                    "duration": 0.10869575000000964
                },
                {
                    "name": "D5",
                    "midi": 74,
                    "time": 194.23930525000105,
                    "velocity": 0.3779527559055118,
                    "duration": 0.10869575000000964
                },
                {
                    "name": "F#5",
                    "midi": 78,
                    "time": 194.34800100000106,
                    "velocity": 0.3937007874015748,
                    "duration": 0.10869575000000964
                },
                {
                    "name": "G5",
                    "midi": 79,
                    "time": 194.45669675000107,
                    "velocity": 0.4015748031496063,
                    "duration": 0.10869575000000964
                },
                {
                    "name": "A5",
                    "midi": 81,
                    "time": 194.56539250000108,
                    "velocity": 0.4094488188976378,
                    "duration": 0.10869575000000964
                },
                {
                    "name": "G5",
                    "midi": 79,
                    "time": 194.6740882500011,
                    "velocity": 0.41732283464566927,
                    "duration": 0.10869575000000964
                },
                {
                    "name": "A#5",
                    "midi": 82,
                    "time": 194.7827840000011,
                    "velocity": 0.4251968503937008,
                    "duration": 0.10869575000000964
                },
                {
                    "name": "B5",
                    "midi": 83,
                    "time": 194.8914797500011,
                    "velocity": 0.4330708661417323,
                    "duration": 0.10869575000000964
                },
                {
                    "name": "C6",
                    "midi": 84,
                    "time": 195.00017550000112,
                    "velocity": 0.4409448818897638,
                    "duration": 0.10869575000000964
                },
                {
                    "name": "B5",
                    "midi": 83,
                    "time": 195.10887125000113,
                    "velocity": 0.4566929133858268,
                    "duration": 0.10869575000000964
                },
                {
                    "name": "D6",
                    "midi": 86,
                    "time": 195.21756700000114,
                    "velocity": 0.4645669291338583,
                    "duration": 0.21739149999999086
                },
                {
                    "name": "D4",
                    "midi": 62,
                    "time": 195.43495850000113,
                    "velocity": 0.47244094488188976,
                    "duration": 0.07246383333333029
                },
                {
                    "name": "E4",
                    "midi": 64,
                    "time": 195.50742233333446,
                    "velocity": 0.49606299212598426,
                    "duration": 0.07246383333333029
                },
                {
                    "name": "F#4",
                    "midi": 66,
                    "time": 195.5798861666678,
                    "velocity": 0.5196850393700787,
                    "duration": 0.07246383333333029
                },
                {
                    "name": "G3",
                    "midi": 55,
                    "time": 195.65235000000112,
                    "velocity": 0.31496062992125984,
                    "duration": 0.14492766666666057
                },
                {
                    "name": "B4",
                    "midi": 71,
                    "time": 195.79727766666778,
                    "velocity": 0.25196850393700787,
                    "duration": 0.14492766666666057
                },
                {
                    "name": "G4",
                    "midi": 67,
                    "time": 195.94220533333444,
                    "velocity": 0.25196850393700787,
                    "duration": 0.14492766666666057
                },
                {
                    "name": "F#4",
                    "midi": 66,
                    "time": 196.0871330000011,
                    "velocity": 0.31496062992125984,
                    "duration": 0.14492766666666057
                },
                {
                    "name": "B4",
                    "midi": 71,
                    "time": 196.23206066666776,
                    "velocity": 0.25984251968503935,
                    "duration": 0.14492766666666057
                },
                {
                    "name": "G4",
                    "midi": 67,
                    "time": 196.37698833333442,
                    "velocity": 0.25984251968503935,
                    "duration": 0.14492766666666057
                },
                {
                    "name": "D#4",
                    "midi": 63,
                    "time": 196.52191600000108,
                    "velocity": 0.31496062992125984,
                    "duration": 0.14492766666666057
                },
                {
                    "name": "C5",
                    "midi": 72,
                    "time": 196.66684366666775,
                    "velocity": 0.2440944881889764,
                    "duration": 0.14492766666666057
                },
                {
                    "name": "G4",
                    "midi": 67,
                    "time": 196.8117713333344,
                    "velocity": 0.2440944881889764,
                    "duration": 0.14492766666666057
                },
                {
                    "name": "C4",
                    "midi": 60,
                    "time": 196.95669900000107,
                    "velocity": 0.31496062992125984,
                    "duration": 0.14492766666666057
                },
                {
                    "name": "C5",
                    "midi": 72,
                    "time": 197.10162666666773,
                    "velocity": 0.25984251968503935,
                    "duration": 0.14492766666666057
                },
                {
                    "name": "G4",
                    "midi": 67,
                    "time": 197.2465543333344,
                    "velocity": 0.25984251968503935,
                    "duration": 0.14492766666666057
                },
                {
                    "name": "B3",
                    "midi": 59,
                    "time": 197.39148200000105,
                    "velocity": 0.31496062992125984,
                    "duration": 0.14492766666666057
                },
                {
                    "name": "B4",
                    "midi": 71,
                    "time": 197.5364096666677,
                    "velocity": 0.2440944881889764,
                    "duration": 0.14492766666666057
                },
                {
                    "name": "G4",
                    "midi": 67,
                    "time": 197.68133733333437,
                    "velocity": 0.2440944881889764,
                    "duration": 0.14492766666666057
                },
                {
                    "name": "G3",
                    "midi": 55,
                    "time": 197.82626500000103,
                    "velocity": 0.31496062992125984,
                    "duration": 0.14492766666666057
                },
                {
                    "name": "B4",
                    "midi": 71,
                    "time": 197.9711926666677,
                    "velocity": 0.25196850393700787,
                    "duration": 0.14492766666666057
                },
                {
                    "name": "G4",
                    "midi": 67,
                    "time": 198.11612033333435,
                    "velocity": 0.25196850393700787,
                    "duration": 0.14492766666666057
                },
                {
                    "name": "C4",
                    "midi": 60,
                    "time": 198.261048000001,
                    "velocity": 0.31496062992125984,
                    "duration": 0.14492766666666057
                },
                {
                    "name": "C5",
                    "midi": 72,
                    "time": 198.40597566666767,
                    "velocity": 0.25984251968503935,
                    "duration": 0.14492766666666057
                },
                {
                    "name": "G4",
                    "midi": 67,
                    "time": 198.55090333333433,
                    "velocity": 0.25984251968503935,
                    "duration": 0.14492766666666057
                },
                {
                    "name": "D#4",
                    "midi": 63,
                    "time": 198.695831000001,
                    "velocity": 0.31496062992125984,
                    "duration": 0.14492766666666057
                },
                {
                    "name": "C5",
                    "midi": 72,
                    "time": 198.84075866666765,
                    "velocity": 0.25196850393700787,
                    "duration": 0.14492766666666057
                },
                {
                    "name": "G4",
                    "midi": 67,
                    "time": 198.98568633333431,
                    "velocity": 0.25196850393700787,
                    "duration": 0.14492766666666057
                },
                {
                    "name": "D4",
                    "midi": 62,
                    "time": 199.13061400000097,
                    "velocity": 0.31496062992125984,
                    "duration": 0.14492766666666057
                },
                {
                    "name": "A#4",
                    "midi": 70,
                    "time": 199.27554166666764,
                    "velocity": 0.25196850393700787,
                    "duration": 0.14492766666666057
                },
                {
                    "name": "G4",
                    "midi": 67,
                    "time": 199.4204693333343,
                    "velocity": 0.25196850393700787,
                    "duration": 0.14492766666666057
                },
                {
                    "name": "D4",
                    "midi": 62,
                    "time": 199.56539700000096,
                    "velocity": 0.31496062992125984,
                    "duration": 0.14492766666666057
                },
                {
                    "name": "B4",
                    "midi": 71,
                    "time": 199.71032466666762,
                    "velocity": 0.28346456692913385,
                    "duration": 0.14492766666666057
                },
                {
                    "name": "G4",
                    "midi": 67,
                    "time": 199.85525233333428,
                    "velocity": 0.28346456692913385,
                    "duration": 0.14492766666666057
                },
                {
                    "name": "D4",
                    "midi": 62,
                    "time": 200.00018000000094,
                    "velocity": 0.31496062992125984,
                    "duration": 0.14492766666666057
                },
                {
                    "name": "C5",
                    "midi": 72,
                    "time": 200.1451076666676,
                    "velocity": 0.25984251968503935,
                    "duration": 0.14492766666666057
                },
                {
                    "name": "A4",
                    "midi": 69,
                    "time": 200.29003533333426,
                    "velocity": 0.25984251968503935,
                    "duration": 0.14492766666666057
                },
                {
                    "name": "D3",
                    "midi": 50,
                    "time": 200.43496300000092,
                    "velocity": 0.31496062992125984,
                    "duration": 0.14492766666666057
                },
                {
                    "name": "D4",
                    "midi": 62,
                    "time": 200.57989066666758,
                    "velocity": 0.2677165354330709,
                    "duration": 0.14492766666666057
                },
                {
                    "name": "C4",
                    "midi": 60,
                    "time": 200.72481833333424,
                    "velocity": 0.2677165354330709,
                    "duration": 0.14492766666666057
                },
                {
                    "name": "G2",
                    "midi": 43,
                    "time": 200.8697460000009,
                    "velocity": 0.31496062992125984,
                    "duration": 0.10869575000000964
                },
                {
                    "name": "G3",
                    "midi": 55,
                    "time": 200.9784417500009,
                    "velocity": 0.25984251968503935,
                    "duration": 0.10869575000000964
                },
                {
                    "name": "B3",
                    "midi": 59,
                    "time": 201.08713750000092,
                    "velocity": 0.25984251968503935,
                    "duration": 0.10869575000000964
                },
                {
                    "name": "G3",
                    "midi": 55,
                    "time": 201.19583325000093,
                    "velocity": 0.25984251968503935,
                    "duration": 0.10869575000000964
                },
                {
                    "name": "F#3",
                    "midi": 54,
                    "time": 201.30452900000094,
                    "velocity": 0.3228346456692913,
                    "duration": 0.10869575000000964
                },
                {
                    "name": "G3",
                    "midi": 55,
                    "time": 201.41322475000095,
                    "velocity": 0.2755905511811024,
                    "duration": 0.10869575000000964
                },
                {
                    "name": "G4",
                    "midi": 67,
                    "time": 201.52192050000096,
                    "velocity": 0.2755905511811024,
                    "duration": 0.10869575000000964
                },
                {
                    "name": "G3",
                    "midi": 55,
                    "time": 201.63061625000097,
                    "velocity": 0.2755905511811024,
                    "duration": 0.10869575000000964
                },
                {
                    "name": "E3",
                    "midi": 52,
                    "time": 201.73931200000098,
                    "velocity": 0.33070866141732286,
                    "duration": 0.10869575000000964
                },
                {
                    "name": "G3",
                    "midi": 55,
                    "time": 201.848007750001,
                    "velocity": 0.28346456692913385,
                    "duration": 0.10869575000000964
                },
                {
                    "name": "G4",
                    "midi": 67,
                    "time": 201.956703500001,
                    "velocity": 0.28346456692913385,
                    "duration": 0.10869575000000964
                },
                {
                    "name": "G3",
                    "midi": 55,
                    "time": 202.065399250001,
                    "velocity": 0.29133858267716534,
                    "duration": 0.10869575000000964
                },
                {
                    "name": "C3",
                    "midi": 48,
                    "time": 202.17409500000102,
                    "velocity": 0.3464566929133858,
                    "duration": 0.10869575000000964
                },
                {
                    "name": "G3",
                    "midi": 55,
                    "time": 202.28279075000103,
                    "velocity": 0.29133858267716534,
                    "duration": 0.10869575000000964
                },
                {
                    "name": "E4",
                    "midi": 64,
                    "time": 202.39148650000104,
                    "velocity": 0.29133858267716534,
                    "duration": 0.10869575000000964
                },
                {
                    "name": "G3",
                    "midi": 55,
                    "time": 202.50018225000105,
                    "velocity": 0.2992125984251969,
                    "duration": 0.10869575000000964
                },
                {
                    "name": "B2",
                    "midi": 47,
                    "time": 202.60887800000106,
                    "velocity": 0.3543307086614173,
                    "duration": 0.10869575000000964
                },
                {
                    "name": "G3",
                    "midi": 55,
                    "time": 202.71757375000107,
                    "velocity": 0.29133858267716534,
                    "duration": 0.10869575000000964
                },
                {
                    "name": "D4",
                    "midi": 62,
                    "time": 202.82626950000108,
                    "velocity": 0.29133858267716534,
                    "duration": 0.10869575000000964
                },
                {
                    "name": "G3",
                    "midi": 55,
                    "time": 202.93496525000108,
                    "velocity": 0.29133858267716534,
                    "duration": 0.10869575000000964
                },
                {
                    "name": "G2",
                    "midi": 43,
                    "time": 203.0436610000011,
                    "velocity": 0.36220472440944884,
                    "duration": 0.10869575000000964
                },
                {
                    "name": "G3",
                    "midi": 55,
                    "time": 203.1523567500011,
                    "velocity": 0.30708661417322836,
                    "duration": 0.10869575000000964
                },
                {
                    "name": "B3",
                    "midi": 59,
                    "time": 203.2610525000011,
                    "velocity": 0.31496062992125984,
                    "duration": 0.10869575000000964
                },
                {
                    "name": "G3",
                    "midi": 55,
                    "time": 203.36974825000112,
                    "velocity": 0.31496062992125984,
                    "duration": 0.10869575000000964
                },
                {
                    "name": "C3",
                    "midi": 48,
                    "time": 203.47844400000113,
                    "velocity": 0.3779527559055118,
                    "duration": 0.10869575000000964
                },
                {
                    "name": "G3",
                    "midi": 55,
                    "time": 203.58713975000114,
                    "velocity": 0.33070866141732286,
                    "duration": 0.10869575000000964
                },
                {
                    "name": "E4",
                    "midi": 64,
                    "time": 203.69583550000115,
                    "velocity": 0.33070866141732286,
                    "duration": 0.10869575000000964
                },
                {
                    "name": "G3",
                    "midi": 55,
                    "time": 203.80453125000116,
                    "velocity": 0.33070866141732286,
                    "duration": 0.10869575000000964
                },
                {
                    "name": "E3",
                    "midi": 52,
                    "time": 203.91322700000117,
                    "velocity": 0.4015748031496063,
                    "duration": 0.10869575000000964
                },
                {
                    "name": "G3",
                    "midi": 55,
                    "time": 204.02192275000118,
                    "velocity": 0.33858267716535434,
                    "duration": 0.10869575000000964
                },
                {
                    "name": "G4",
                    "midi": 67,
                    "time": 204.1306185000012,
                    "velocity": 0.33858267716535434,
                    "duration": 0.10869575000000964
                },
                {
                    "name": "G3",
                    "midi": 55,
                    "time": 204.2393142500012,
                    "velocity": 0.33858267716535434,
                    "duration": 0.10869575000000964
                },
                {
                    "name": "D3",
                    "midi": 50,
                    "time": 204.3480100000012,
                    "velocity": 0.3937007874015748,
                    "duration": 0.10869575000000964
                },
                {
                    "name": "E3",
                    "midi": 52,
                    "time": 204.45670575000122,
                    "velocity": 0.3464566929133858,
                    "duration": 0.10869575000000964
                },
                {
                    "name": "F#3",
                    "midi": 54,
                    "time": 204.56540150000123,
                    "velocity": 0.3779527559055118,
                    "duration": 0.10869575000000964
                },
                {
                    "name": "G3",
                    "midi": 55,
                    "time": 204.67409725000124,
                    "velocity": 0.4015748031496063,
                    "duration": 0.10869575000000964
                },
                {
                    "name": "A3",
                    "midi": 57,
                    "time": 204.78279300000125,
                    "velocity": 0.4251968503937008,
                    "duration": 0.10869575000000964
                },
                {
                    "name": "B3",
                    "midi": 59,
                    "time": 204.89148875000126,
                    "velocity": 0.4330708661417323,
                    "duration": 0.10869575000000964
                },
                {
                    "name": "A3",
                    "midi": 57,
                    "time": 205.00018450000127,
                    "velocity": 0.4330708661417323,
                    "duration": 0.10869575000000964
                },
                {
                    "name": "G3",
                    "midi": 55,
                    "time": 205.10888025000128,
                    "velocity": 0.4251968503937008,
                    "duration": 0.10869575000000964
                },
                {
                    "name": "F#3",
                    "midi": 54,
                    "time": 205.2175760000013,
                    "velocity": 0.4251968503937008,
                    "duration": 0.10869575000000964
                },
                {
                    "name": "G3",
                    "midi": 55,
                    "time": 205.3262717500013,
                    "velocity": 0.3858267716535433,
                    "duration": 0.10869575000000964
                },
                {
                    "name": "F#3",
                    "midi": 54,
                    "time": 205.4349675000013,
                    "velocity": 0.3858267716535433,
                    "duration": 0.10869575000000964
                },
                {
                    "name": "E3",
                    "midi": 52,
                    "time": 205.54366325000132,
                    "velocity": 0.3858267716535433,
                    "duration": 0.10869575000000964
                },
                {
                    "name": "D3",
                    "midi": 50,
                    "time": 205.65235900000133,
                    "velocity": 0.4251968503937008,
                    "duration": 0.10869575000000964
                },
                {
                    "name": "C3",
                    "midi": 48,
                    "time": 205.76105475000134,
                    "velocity": 0.3937007874015748,
                    "duration": 0.10869575000000964
                },
                {
                    "name": "B2",
                    "midi": 47,
                    "time": 205.86975050000135,
                    "velocity": 0.4645669291338583,
                    "duration": 0.10869575000000964
                },
                {
                    "name": "A2",
                    "midi": 45,
                    "time": 205.97844625000135,
                    "velocity": 0.5196850393700787,
                    "duration": 0.10869575000000964
                },
                {
                    "name": "G1",
                    "midi": 31,
                    "time": 206.08714200000136,
                    "velocity": 0.5196850393700787,
                    "duration": 0.10869575000000964
                },
                {
                    "name": "G2",
                    "midi": 43,
                    "time": 206.19583775000137,
                    "velocity": 0.4409448818897638,
                    "duration": 0.10869575000000964
                },
                {
                    "name": "G1",
                    "midi": 31,
                    "time": 206.30453350000138,
                    "velocity": 0.5196850393700787,
                    "duration": 0.10869575000000964
                },
                {
                    "name": "G2",
                    "midi": 43,
                    "time": 206.4132292500014,
                    "velocity": 0.4409448818897638,
                    "duration": 0.10869575000000964
                },
                {
                    "name": "G1",
                    "midi": 31,
                    "time": 206.5219250000014,
                    "velocity": 0.5196850393700787,
                    "duration": 0.10869575000000964
                },
                {
                    "name": "G2",
                    "midi": 43,
                    "time": 206.6306207500014,
                    "velocity": 0.44881889763779526,
                    "duration": 0.10869575000000964
                },
                {
                    "name": "G1",
                    "midi": 31,
                    "time": 206.73931650000142,
                    "velocity": 0.5196850393700787,
                    "duration": 0.10869575000000964
                },
                {
                    "name": "G2",
                    "midi": 43,
                    "time": 206.84801225000143,
                    "velocity": 0.44881889763779526,
                    "duration": 0.10869575000000964
                },
                {
                    "name": "G1",
                    "midi": 31,
                    "time": 206.95670800000144,
                    "velocity": 0.5196850393700787,
                    "duration": 0.10869575000000964
                },
                {
                    "name": "G2",
                    "midi": 43,
                    "time": 207.06540375000145,
                    "velocity": 0.44881889763779526,
                    "duration": 0.10869575000000964
                },
                {
                    "name": "G1",
                    "midi": 31,
                    "time": 207.17409950000146,
                    "velocity": 0.5196850393700787,
                    "duration": 0.10869575000000964
                },
                {
                    "name": "G2",
                    "midi": 43,
                    "time": 207.28279525000147,
                    "velocity": 0.4566929133858268,
                    "duration": 0.10869575000000964
                },
                {
                    "name": "G1",
                    "midi": 31,
                    "time": 207.39149100000148,
                    "velocity": 0.5196850393700787,
                    "duration": 0.10869575000000964
                },
                {
                    "name": "G2",
                    "midi": 43,
                    "time": 207.5001867500015,
                    "velocity": 0.4645669291338583,
                    "duration": 0.10869575000000964
                },
                {
                    "name": "G#1",
                    "midi": 32,
                    "time": 207.6088825000015,
                    "velocity": 0.3543307086614173,
                    "duration": 0.10869575000000964
                },
                {
                    "name": "G#2",
                    "midi": 44,
                    "time": 207.7175782500015,
                    "velocity": 0.2677165354330709,
                    "duration": 0.10869575000000964
                },
                {
                    "name": "A1",
                    "midi": 33,
                    "time": 207.82627400000152,
                    "velocity": 0.33858267716535434,
                    "duration": 0.10869575000000964
                },
                {
                    "name": "A2",
                    "midi": 45,
                    "time": 207.93496975000153,
                    "velocity": 0.25984251968503935,
                    "duration": 0.10869575000000964
                },
                {
                    "name": "G#1",
                    "midi": 32,
                    "time": 208.04366550000154,
                    "velocity": 0.33858267716535434,
                    "duration": 0.10869575000000964
                },
                {
                    "name": "G#2",
                    "midi": 44,
                    "time": 208.15236125000155,
                    "velocity": 0.25984251968503935,
                    "duration": 0.10869575000000964
                },
                {
                    "name": "A1",
                    "midi": 33,
                    "time": 208.26105700000156,
                    "velocity": 0.33858267716535434,
                    "duration": 0.10869575000000964
                },
                {
                    "name": "A2",
                    "midi": 45,
                    "time": 208.36975275000157,
                    "velocity": 0.2677165354330709,
                    "duration": 0.10869575000000964
                },
                {
                    "name": "C2",
                    "midi": 36,
                    "time": 208.47844850000158,
                    "velocity": 0.33858267716535434,
                    "duration": 0.10869575000000964
                },
                {
                    "name": "C3",
                    "midi": 48,
                    "time": 208.5871442500016,
                    "velocity": 0.2755905511811024,
                    "duration": 0.10869575000000964
                },
                {
                    "name": "C#2",
                    "midi": 37,
                    "time": 208.6958400000016,
                    "velocity": 0.33858267716535434,
                    "duration": 0.10869575000000964
                },
                {
                    "name": "C#3",
                    "midi": 49,
                    "time": 208.8045357500016,
                    "velocity": 0.25984251968503935,
                    "duration": 0.10869575000000964
                },
                {
                    "name": "E2",
                    "midi": 40,
                    "time": 208.91323150000161,
                    "velocity": 0.33858267716535434,
                    "duration": 0.10869575000000964
                },
                {
                    "name": "E3",
                    "midi": 52,
                    "time": 209.02192725000162,
                    "velocity": 0.25984251968503935,
                    "duration": 0.10869575000000964
                },
                {
                    "name": "D2",
                    "midi": 38,
                    "time": 209.13062300000163,
                    "velocity": 0.33858267716535434,
                    "duration": 0.10869575000000964
                },
                {
                    "name": "D3",
                    "midi": 50,
                    "time": 209.23931875000164,
                    "velocity": 0.2677165354330709,
                    "duration": 0.10869575000000964
                },
                {
                    "name": "D2",
                    "midi": 38,
                    "time": 209.34801450000165,
                    "velocity": 0.33858267716535434,
                    "duration": 0.10869575000000964
                },
                {
                    "name": "D3",
                    "midi": 50,
                    "time": 209.45671025000166,
                    "velocity": 0.2755905511811024,
                    "duration": 0.10869575000000964
                },
                {
                    "name": "D2",
                    "midi": 38,
                    "time": 209.56540600000167,
                    "velocity": 0.3700787401574803,
                    "duration": 0.10869575000000964
                },
                {
                    "name": "D3",
                    "midi": 50,
                    "time": 209.67410175000168,
                    "velocity": 0.28346456692913385,
                    "duration": 0.10869575000000964
                },
                {
                    "name": "G2",
                    "midi": 43,
                    "time": 209.7827975000017,
                    "velocity": 0.3779527559055118,
                    "duration": 0.10869575000000964
                },
                {
                    "name": "G3",
                    "midi": 55,
                    "time": 209.8914932500017,
                    "velocity": 0.29133858267716534,
                    "duration": 0.10869575000000964
                },
                {
                    "name": "D2",
                    "midi": 38,
                    "time": 210.0001890000017,
                    "velocity": 0.3937007874015748,
                    "duration": 0.10869575000000964
                },
                {
                    "name": "D3",
                    "midi": 50,
                    "time": 210.10888475000172,
                    "velocity": 0.31496062992125984,
                    "duration": 0.10869575000000964
                },
                {
                    "name": "D3",
                    "midi": 50,
                    "time": 210.21758050000173,
                    "velocity": 0.41732283464566927,
                    "duration": 0.10869575000000964
                },
                {
                    "name": "D4",
                    "midi": 62,
                    "time": 210.32627625000174,
                    "velocity": 0.3464566929133858,
                    "duration": 0.10869575000000964
                },
                {
                    "name": "D2",
                    "midi": 38,
                    "time": 210.43497200000175,
                    "velocity": 0.4251968503937008,
                    "duration": 0.10869575000000964
                },
                {
                    "name": "D3",
                    "midi": 50,
                    "time": 210.54366775000176,
                    "velocity": 0.33070866141732286,
                    "duration": 0.10869575000000964
                },
                {
                    "name": "G2",
                    "midi": 43,
                    "time": 210.65236350000177,
                    "velocity": 0.44881889763779526,
                    "duration": 0.10869575000000964
                },
                {
                    "name": "G3",
                    "midi": 55,
                    "time": 210.76105925000178,
                    "velocity": 0.3464566929133858,
                    "duration": 0.10869575000000964
                },
                {
                    "name": "D2",
                    "midi": 38,
                    "time": 210.8697550000018,
                    "velocity": 0.4566929133858268,
                    "duration": 0.10869575000000964
                },
                {
                    "name": "D3",
                    "midi": 50,
                    "time": 210.9784507500018,
                    "velocity": 0.3700787401574803,
                    "duration": 0.10869575000000964
                },
                {
                    "name": "D3",
                    "midi": 50,
                    "time": 211.0871465000018,
                    "velocity": 0.48031496062992124,
                    "duration": 0.10869575000000964
                },
                {
                    "name": "D4",
                    "midi": 62,
                    "time": 211.19584225000182,
                    "velocity": 0.4015748031496063,
                    "duration": 0.10869575000000964
                },
                {
                    "name": "G2",
                    "midi": 43,
                    "time": 211.30453800000183,
                    "velocity": 0.4645669291338583,
                    "duration": 0.10869575000000964
                },
                {
                    "name": "G3",
                    "midi": 55,
                    "time": 211.41323375000184,
                    "velocity": 0.3937007874015748,
                    "duration": 0.10869575000000964
                },
                {
                    "name": "D2",
                    "midi": 38,
                    "time": 211.52192950000185,
                    "velocity": 0.48031496062992124,
                    "duration": 0.10869575000000964
                },
                {
                    "name": "D3",
                    "midi": 50,
                    "time": 211.63062525000186,
                    "velocity": 0.4015748031496063,
                    "duration": 0.10869575000000964
                },
                {
                    "name": "F#2",
                    "midi": 42,
                    "time": 211.73932100000187,
                    "velocity": 0.5039370078740157,
                    "duration": 0.10869575000000964
                },
                {
                    "name": "F#3",
                    "midi": 54,
                    "time": 211.84801675000188,
                    "velocity": 0.4330708661417323,
                    "duration": 0.10869575000000964
                },
                {
                    "name": "A2",
                    "midi": 45,
                    "time": 211.95671250000188,
                    "velocity": 0.5275590551181102,
                    "duration": 0.10869575000000964
                },
                {
                    "name": "A3",
                    "midi": 57,
                    "time": 212.0654082500019,
                    "velocity": 0.4566929133858268,
                    "duration": 0.10869575000000964
                },
                {
                    "name": "G2",
                    "midi": 43,
                    "time": 212.1741040000019,
                    "velocity": 0.5354330708661418,
                    "duration": 0.10869575000000964
                },
                {
                    "name": "G3",
                    "midi": 55,
                    "time": 212.2827997500019,
                    "velocity": 0.49606299212598426,
                    "duration": 0.10869575000000964
                },
                {
                    "name": "D2",
                    "midi": 38,
                    "time": 212.39149550000192,
                    "velocity": 0.5590551181102362,
                    "duration": 0.10869575000000964
                },
                {
                    "name": "D3",
                    "midi": 50,
                    "time": 212.50019125000193,
                    "velocity": 0.49606299212598426,
                    "duration": 0.10869575000000964
                },
                {
                    "name": "F#1",
                    "midi": 30,
                    "time": 212.60888700000194,
                    "velocity": 0.5826771653543307,
                    "duration": 0.10869575000000964
                },
                {
                    "name": "F#2",
                    "midi": 42,
                    "time": 212.71758275000195,
                    "velocity": 0.5039370078740157,
                    "duration": 0.10869575000000964
                },
                {
                    "name": "A1",
                    "midi": 33,
                    "time": 212.82627850000196,
                    "velocity": 0.5984251968503937,
                    "duration": 0.10869575000000964
                },
                {
                    "name": "A2",
                    "midi": 45,
                    "time": 212.93497425000197,
                    "velocity": 0.5275590551181102,
                    "duration": 0.10869575000000964
                },
                {
                    "name": "G2",
                    "midi": 43,
                    "time": 213.04367000000198,
                    "velocity": 0.6377952755905512,
                    "duration": 0.16304362500000025
                },
                {
                    "name": "G1",
                    "midi": 31,
                    "time": 213.04367000000198,
                    "velocity": 0.5433070866141733,
                    "duration": 0.16304362500000025
                },
                {
                    "name": "A1",
                    "midi": 33,
                    "time": 213.478453000002,
                    "velocity": 0.5433070866141733,
                    "duration": 0.16304362500000025
                },
                {
                    "name": "A2",
                    "midi": 45,
                    "time": 213.478453000002,
                    "velocity": 0.6377952755905512,
                    "duration": 0.16304362500000025
                },
                {
                    "name": "B1",
                    "midi": 35,
                    "time": 213.913236000002,
                    "velocity": 0.5669291338582677,
                    "duration": 0.8695659999999918
                },
                {
                    "name": "B2",
                    "midi": 47,
                    "time": 213.913236000002,
                    "velocity": 0.6771653543307087,
                    "duration": 0.8695659999999918
                },
                {
                    "name": "B2",
                    "midi": 47,
                    "time": 214.782802000002,
                    "velocity": 0.6377952755905512,
                    "duration": 0.16304362500000025
                },
                {
                    "name": "B1",
                    "midi": 35,
                    "time": 214.782802000002,
                    "velocity": 0.5433070866141733,
                    "duration": 0.16304362500000025
                },
                {
                    "name": "C3",
                    "midi": 48,
                    "time": 215.217585000002,
                    "velocity": 0.6377952755905512,
                    "duration": 0.16304362500000025
                },
                {
                    "name": "C2",
                    "midi": 36,
                    "time": 215.217585000002,
                    "velocity": 0.5433070866141733,
                    "duration": 0.16304362500000025
                },
                {
                    "name": "D3",
                    "midi": 50,
                    "time": 215.652368000002,
                    "velocity": 0.6771653543307087,
                    "duration": 0.8695659999999918
                },
                {
                    "name": "D2",
                    "midi": 38,
                    "time": 215.652368000002,
                    "velocity": 0.5669291338582677,
                    "duration": 0.8695659999999918
                },
                {
                    "name": "B4",
                    "midi": 71,
                    "time": 216.521934000002,
                    "velocity": 0.30708661417322836,
                    "duration": 0.10869575000000964
                },
                {
                    "name": "G4",
                    "midi": 67,
                    "time": 216.63062975000202,
                    "velocity": 0.25984251968503935,
                    "duration": 0.10869575000000964
                },
                {
                    "name": "B4",
                    "midi": 71,
                    "time": 216.73932550000202,
                    "velocity": 0.30708661417322836,
                    "duration": 0.10869575000000964
                },
                {
                    "name": "G4",
                    "midi": 67,
                    "time": 216.84802125000203,
                    "velocity": 0.25984251968503935,
                    "duration": 0.10869575000000964
                },
                {
                    "name": "B4",
                    "midi": 71,
                    "time": 216.95671700000204,
                    "velocity": 0.30708661417322836,
                    "duration": 0.10869575000000964
                },
                {
                    "name": "G4",
                    "midi": 67,
                    "time": 217.06541275000205,
                    "velocity": 0.2677165354330709,
                    "duration": 0.10869575000000964
                },
                {
                    "name": "C5",
                    "midi": 72,
                    "time": 217.17410850000206,
                    "velocity": 0.30708661417322836,
                    "duration": 0.10869575000000964
                },
                {
                    "name": "G4",
                    "midi": 67,
                    "time": 217.28280425000207,
                    "velocity": 0.2677165354330709,
                    "duration": 0.10869575000000964
                },
                {
                    "name": "D5",
                    "midi": 74,
                    "time": 217.39150000000208,
                    "velocity": 0.30708661417322836,
                    "duration": 0.10869575000000964
                },
                {
                    "name": "G4",
                    "midi": 67,
                    "time": 217.5001957500021,
                    "velocity": 0.2677165354330709,
                    "duration": 0.10869575000000964
                },
                {
                    "name": "C5",
                    "midi": 72,
                    "time": 217.6088915000021,
                    "velocity": 0.30708661417322836,
                    "duration": 0.10869575000000964
                },
                {
                    "name": "G4",
                    "midi": 67,
                    "time": 217.7175872500021,
                    "velocity": 0.2677165354330709,
                    "duration": 0.10869575000000964
                },
                {
                    "name": "B4",
                    "midi": 71,
                    "time": 217.82628300000212,
                    "velocity": 0.30708661417322836,
                    "duration": 0.10869575000000964
                },
                {
                    "name": "G4",
                    "midi": 67,
                    "time": 217.93497875000213,
                    "velocity": 0.2755905511811024,
                    "duration": 0.10869575000000964
                },
                {
                    "name": "D5",
                    "midi": 74,
                    "time": 218.04367450000214,
                    "velocity": 0.2125984251968504,
                    "duration": 0.10869575000000964
                },
                {
                    "name": "G4",
                    "midi": 67,
                    "time": 218.15237025000215,
                    "velocity": 0.15748031496062992,
                    "duration": 0.10869575000000964
                },
                {
                    "name": "C5",
                    "midi": 72,
                    "time": 218.26106600000216,
                    "velocity": 0.30708661417322836,
                    "duration": 0.10869575000000964
                },
                {
                    "name": "G4",
                    "midi": 67,
                    "time": 218.36976175000217,
                    "velocity": 0.25984251968503935,
                    "duration": 0.10869575000000964
                },
                {
                    "name": "C5",
                    "midi": 72,
                    "time": 218.47845750000218,
                    "velocity": 0.30708661417322836,
                    "duration": 0.10869575000000964
                },
                {
                    "name": "G4",
                    "midi": 67,
                    "time": 218.5871532500022,
                    "velocity": 0.25984251968503935,
                    "duration": 0.10869575000000964
                },
                {
                    "name": "C5",
                    "midi": 72,
                    "time": 218.6958490000022,
                    "velocity": 0.30708661417322836,
                    "duration": 0.10869575000000964
                },
                {
                    "name": "G4",
                    "midi": 67,
                    "time": 218.8045447500022,
                    "velocity": 0.2677165354330709,
                    "duration": 0.10869575000000964
                },
                {
                    "name": "B4",
                    "midi": 71,
                    "time": 218.91324050000222,
                    "velocity": 0.30708661417322836,
                    "duration": 0.10869575000000964
                },
                {
                    "name": "G4",
                    "midi": 67,
                    "time": 219.02193625000223,
                    "velocity": 0.2677165354330709,
                    "duration": 0.10869575000000964
                },
                {
                    "name": "C5",
                    "midi": 72,
                    "time": 219.13063200000224,
                    "velocity": 0.30708661417322836,
                    "duration": 0.10869575000000964
                },
                {
                    "name": "G4",
                    "midi": 67,
                    "time": 219.23932775000225,
                    "velocity": 0.2677165354330709,
                    "duration": 0.10869575000000964
                },
                {
                    "name": "B4",
                    "midi": 71,
                    "time": 219.34802350000226,
                    "velocity": 0.30708661417322836,
                    "duration": 0.10869575000000964
                },
                {
                    "name": "G4",
                    "midi": 67,
                    "time": 219.45671925000227,
                    "velocity": 0.2677165354330709,
                    "duration": 0.10869575000000964
                },
                {
                    "name": "C5",
                    "midi": 72,
                    "time": 219.56541500000228,
                    "velocity": 0.30708661417322836,
                    "duration": 0.10869575000000964
                },
                {
                    "name": "G4",
                    "midi": 67,
                    "time": 219.67411075000228,
                    "velocity": 0.2755905511811024,
                    "duration": 0.10869575000000964
                },
                {
                    "name": "C5",
                    "midi": 72,
                    "time": 219.7828065000023,
                    "velocity": 0.2125984251968504,
                    "duration": 0.10869575000000964
                },
                {
                    "name": "C4",
                    "midi": 60,
                    "time": 219.8915022500023,
                    "velocity": 0.15748031496062992,
                    "duration": 0.10869575000000964
                },
                {
                    "name": "A#4",
                    "midi": 70,
                    "time": 220.0001980000023,
                    "velocity": 0.33070866141732286,
                    "duration": 0.10869575000000964
                },
                {
                    "name": "A#3",
                    "midi": 58,
                    "time": 220.10889375000232,
                    "velocity": 0.28346456692913385,
                    "duration": 0.10869575000000964
                },
                {
                    "name": "D4",
                    "midi": 62,
                    "time": 220.21758950000233,
                    "velocity": 0.3464566929133858,
                    "duration": 0.10869575000000964
                },
                {
                    "name": "A#4",
                    "midi": 70,
                    "time": 220.21758950000233,
                    "velocity": 0.3464566929133858,
                    "duration": 0.10869575000000964
                },
                {
                    "name": "A#3",
                    "midi": 58,
                    "time": 220.32628525000234,
                    "velocity": 0.2992125984251969,
                    "duration": 0.10869575000000964
                },
                {
                    "name": "A#4",
                    "midi": 70,
                    "time": 220.43498100000235,
                    "velocity": 0.36220472440944884,
                    "duration": 0.10869575000000964
                },
                {
                    "name": "D4",
                    "midi": 62,
                    "time": 220.43498100000235,
                    "velocity": 0.36220472440944884,
                    "duration": 0.10869575000000964
                },
                {
                    "name": "A#3",
                    "midi": 58,
                    "time": 220.54367675000236,
                    "velocity": 0.3228346456692913,
                    "duration": 0.10869575000000964
                },
                {
                    "name": "A#4",
                    "midi": 70,
                    "time": 220.65237250000237,
                    "velocity": 0.3779527559055118,
                    "duration": 0.10869575000000964
                },
                {
                    "name": "D#4",
                    "midi": 63,
                    "time": 220.65237250000237,
                    "velocity": 0.3779527559055118,
                    "duration": 0.10869575000000964
                },
                {
                    "name": "A#3",
                    "midi": 58,
                    "time": 220.76106825000238,
                    "velocity": 0.33858267716535434,
                    "duration": 0.10869575000000964
                },
                {
                    "name": "F4",
                    "midi": 65,
                    "time": 220.8697640000024,
                    "velocity": 0.3937007874015748,
                    "duration": 0.10869575000000964
                },
                {
                    "name": "A#4",
                    "midi": 70,
                    "time": 220.8697640000024,
                    "velocity": 0.3937007874015748,
                    "duration": 0.10869575000000964
                },
                {
                    "name": "A#3",
                    "midi": 58,
                    "time": 220.9784597500024,
                    "velocity": 0.3464566929133858,
                    "duration": 0.10869575000000964
                },
                {
                    "name": "A#4",
                    "midi": 70,
                    "time": 221.0871555000024,
                    "velocity": 0.4094488188976378,
                    "duration": 0.10869575000000964
                },
                {
                    "name": "D#4",
                    "midi": 63,
                    "time": 221.0871555000024,
                    "velocity": 0.4094488188976378,
                    "duration": 0.10869575000000964
                },
                {
                    "name": "A#3",
                    "midi": 58,
                    "time": 221.19585125000242,
                    "velocity": 0.36220472440944884,
                    "duration": 0.10869575000000964
                },
                {
                    "name": "A#4",
                    "midi": 70,
                    "time": 221.30454700000243,
                    "velocity": 0.4251968503937008,
                    "duration": 0.10869575000000964
                },
                {
                    "name": "D4",
                    "midi": 62,
                    "time": 221.30454700000243,
                    "velocity": 0.4251968503937008,
                    "duration": 0.10869575000000964
                },
                {
                    "name": "A#3",
                    "midi": 58,
                    "time": 221.41324275000244,
                    "velocity": 0.3858267716535433,
                    "duration": 0.10869575000000964
                },
                {
                    "name": "G#2",
                    "midi": 44,
                    "time": 221.52193850000245,
                    "velocity": 0.3464566929133858,
                    "duration": 0.10869575000000964
                },
                {
                    "name": "G#3",
                    "midi": 56,
                    "time": 221.63063425000246,
                    "velocity": 0.25984251968503935,
                    "duration": 0.10869575000000964
                },
                {
                    "name": "G2",
                    "midi": 43,
                    "time": 221.73933000000247,
                    "velocity": 0.6062992125984252,
                    "duration": 0.10869575000000964
                },
                {
                    "name": "G3",
                    "midi": 55,
                    "time": 221.84802575000248,
                    "velocity": 0.5511811023622047,
                    "duration": 0.10326096250000205
                },
                {
                    "name": "G3",
                    "midi": 55,
                    "time": 221.9567215000025,
                    "velocity": 0.5511811023622047,
                    "duration": 0.10869575000000964
                },
                {
                    "name": "G4",
                    "midi": 67,
                    "time": 222.0654172500025,
                    "velocity": 0.5511811023622047,
                    "duration": 0.10869575000000964
                },
                {
                    "name": "F2",
                    "midi": 41,
                    "time": 222.1741130000025,
                    "velocity": 0.6062992125984252,
                    "duration": 0.10869575000000964
                },
                {
                    "name": "F3",
                    "midi": 53,
                    "time": 222.28280875000252,
                    "velocity": 0.5433070866141733,
                    "duration": 0.10326096250000205
                },
                {
                    "name": "F3",
                    "midi": 53,
                    "time": 222.39150450000253,
                    "velocity": 0.5433070866141733,
                    "duration": 0.10869575000000964
                },
                {
                    "name": "F4",
                    "midi": 65,
                    "time": 222.50020025000254,
                    "velocity": 0.5433070866141733,
                    "duration": 0.10869575000000964
                },
                {
                    "name": "D#2",
                    "midi": 39,
                    "time": 222.60889600000255,
                    "velocity": 0.6692913385826772,
                    "duration": 0.10869575000000964
                },
                {
                    "name": "D#3",
                    "midi": 51,
                    "time": 222.71759175000255,
                    "velocity": 0.5275590551181102,
                    "duration": 0.10326096250000205
                },
                {
                    "name": "D#4",
                    "midi": 63,
                    "time": 222.82628750000256,
                    "velocity": 0.6456692913385826,
                    "duration": 0.652174500000001
                },
                {
                    "name": "D#3",
                    "midi": 51,
                    "time": 222.82628750000256,
                    "velocity": 0.5433070866141733,
                    "duration": 0.652174500000001
                },
                {
                    "name": "G3",
                    "midi": 55,
                    "time": 223.69585350000256,
                    "velocity": 0.31496062992125984,
                    "duration": 0.10869575000000964
                },
                {
                    "name": "A#3",
                    "midi": 58,
                    "time": 223.80454925000257,
                    "velocity": 0.2755905511811024,
                    "duration": 0.10869575000000964
                },
                {
                    "name": "F3",
                    "midi": 53,
                    "time": 224.13063650000257,
                    "velocity": 0.31496062992125984,
                    "duration": 0.10869575000000964
                },
                {
                    "name": "G#3",
                    "midi": 56,
                    "time": 224.23933225000258,
                    "velocity": 0.2677165354330709,
                    "duration": 0.10869575000000964
                },
                {
                    "name": "G3",
                    "midi": 55,
                    "time": 224.56541950000258,
                    "velocity": 0.31496062992125984,
                    "duration": 0.5434787499999914
                },
                {
                    "name": "D#3",
                    "midi": 51,
                    "time": 225.10889825000257,
                    "velocity": 0.7322834645669292,
                    "duration": 0.10869575000000964
                },
                {
                    "name": "D#4",
                    "midi": 63,
                    "time": 225.21759400000258,
                    "velocity": 0.7086614173228346,
                    "duration": 0.3233698562499967
                },
                {
                    "name": "D#4",
                    "midi": 63,
                    "time": 225.54368125000258,
                    "velocity": 0.48031496062992124,
                    "duration": 0.10597835625000585
                },
                {
                    "name": "D#4",
                    "midi": 63,
                    "time": 225.6523770000026,
                    "velocity": 0.5196850393700787,
                    "duration": 0.21739149999999086
                },
                {
                    "name": "G3",
                    "midi": 55,
                    "time": 226.84803025000258,
                    "velocity": 0.7165354330708661,
                    "duration": 0.10869575000000964
                },
                {
                    "name": "G4",
                    "midi": 67,
                    "time": 226.9567260000026,
                    "velocity": 0.6299212598425197,
                    "duration": 0.3233698562499967
                },
                {
                    "name": "G4",
                    "midi": 67,
                    "time": 227.2828132500026,
                    "velocity": 0.49606299212598426,
                    "duration": 0.10597835625000585
                },
                {
                    "name": "G4",
                    "midi": 67,
                    "time": 227.3915090000026,
                    "velocity": 0.5433070866141733,
                    "duration": 0.21739149999999086
                },
                {
                    "name": "D#2",
                    "midi": 39,
                    "time": 229.45672825000258,
                    "velocity": 0.31496062992125984,
                    "duration": 0.10869575000000964
                },
                {
                    "name": "G#2",
                    "midi": 44,
                    "time": 229.5654240000026,
                    "velocity": 0.3464566929133858,
                    "duration": 0.32427565416665516
                },
                {
                    "name": "G#2",
                    "midi": 44,
                    "time": 229.8915112500026,
                    "velocity": 0.31496062992125984,
                    "duration": 0.1068841541666643
                },
                {
                    "name": "G#2",
                    "midi": 44,
                    "time": 230.0002070000026,
                    "velocity": 0.33858267716535434,
                    "duration": 0.21739149999999086
                },
                {
                    "name": "A#2",
                    "midi": 46,
                    "time": 230.2175985000026,
                    "velocity": 0.3464566929133858,
                    "duration": 0.08152181250000012
                },
                {
                    "name": "G#2",
                    "midi": 44,
                    "time": 230.3262942500026,
                    "velocity": 0.31496062992125984,
                    "duration": 0.08152181250000012
                },
                {
                    "name": "G#2",
                    "midi": 44,
                    "time": 230.4349900000026,
                    "velocity": 0.3464566929133858,
                    "duration": 0.06159425833334353
                },
                {
                    "name": "F2",
                    "midi": 41,
                    "time": 230.65238150000263,
                    "velocity": 0.30708661417322836,
                    "duration": 0.08152181250000012
                },
                {
                    "name": "F2",
                    "midi": 41,
                    "time": 230.86977300000262,
                    "velocity": 0.30708661417322836,
                    "duration": 0.43478300000001013
                },
                {
                    "name": "A#2",
                    "midi": 46,
                    "time": 231.30455600000263,
                    "velocity": 0.3464566929133858,
                    "duration": 0.08152181250000012
                },
                {
                    "name": "A#2",
                    "midi": 46,
                    "time": 231.52194750000263,
                    "velocity": 0.3464566929133858,
                    "duration": 0.08152181250000012
                },
                {
                    "name": "G#2",
                    "midi": 44,
                    "time": 231.63064325000263,
                    "velocity": 0.3464566929133858,
                    "duration": 0.08152181250000012
                },
                {
                    "name": "G2",
                    "midi": 43,
                    "time": 231.73933900000264,
                    "velocity": 0.3464566929133858,
                    "duration": 0.10869575000000964
                },
                {
                    "name": "G2",
                    "midi": 43,
                    "time": 231.95673050000266,
                    "velocity": 0.3464566929133858,
                    "duration": 0.08152181250000012
                },
                {
                    "name": "F2",
                    "midi": 41,
                    "time": 232.06542625000267,
                    "velocity": 0.3464566929133858,
                    "duration": 0.08152181250000012
                },
                {
                    "name": "E2",
                    "midi": 40,
                    "time": 232.17412200000268,
                    "velocity": 0.3464566929133858,
                    "duration": 0.21739149999999086
                },
                {
                    "name": "E2",
                    "midi": 40,
                    "time": 232.60890500000266,
                    "velocity": 0.30708661417322836,
                    "duration": 0.43478300000001013
                },
                {
                    "name": "C3",
                    "midi": 48,
                    "time": 233.04368800000267,
                    "velocity": 0.3464566929133858,
                    "duration": 0.08152181250000012
                },
                {
                    "name": "C3",
                    "midi": 48,
                    "time": 233.26107950000267,
                    "velocity": 0.3464566929133858,
                    "duration": 0.08152181250000012
                },
                {
                    "name": "A#2",
                    "midi": 46,
                    "time": 233.36977525000268,
                    "velocity": 0.3464566929133858,
                    "duration": 0.08152181250000012
                },
                {
                    "name": "G#2",
                    "midi": 44,
                    "time": 233.47847100000268,
                    "velocity": 0.3464566929133858,
                    "duration": 0.10869575000000964
                },
                {
                    "name": "G#2",
                    "midi": 44,
                    "time": 233.6958625000027,
                    "velocity": 0.3464566929133858,
                    "duration": 0.08152181250000012
                },
                {
                    "name": "G2",
                    "midi": 43,
                    "time": 233.8045582500027,
                    "velocity": 0.3464566929133858,
                    "duration": 0.08152181250000012
                },
                {
                    "name": "F2",
                    "midi": 41,
                    "time": 233.91325400000272,
                    "velocity": 0.3464566929133858,
                    "duration": 0.21739149999999086
                },
                {
                    "name": "C3",
                    "midi": 48,
                    "time": 234.23934125000272,
                    "velocity": 0.29133858267716534,
                    "duration": 0.08152181250000012
                },
                {
                    "name": "F3",
                    "midi": 53,
                    "time": 234.34803700000273,
                    "velocity": 0.29133858267716534,
                    "duration": 0.10869575000000964
                },
                {
                    "name": "F3",
                    "midi": 53,
                    "time": 234.56542850000275,
                    "velocity": 0.2992125984251969,
                    "duration": 0.08152181250000012
                },
                {
                    "name": "D#3",
                    "midi": 51,
                    "time": 234.67412425000276,
                    "velocity": 0.2992125984251969,
                    "duration": 0.08152181250000012
                },
                {
                    "name": "D3",
                    "midi": 50,
                    "time": 234.78282000000277,
                    "velocity": 0.36220472440944884,
                    "duration": 0.08152181250000012
                },
                {
                    "name": "D3",
                    "midi": 50,
                    "time": 235.00021150000276,
                    "velocity": 0.30708661417322836,
                    "duration": 0.08152181250000012
                },
                {
                    "name": "C3",
                    "midi": 48,
                    "time": 235.10890725000277,
                    "velocity": 0.30708661417322836,
                    "duration": 0.08152181250000012
                },
                {
                    "name": "A#2",
                    "midi": 46,
                    "time": 235.21760300000278,
                    "velocity": 0.30708661417322836,
                    "duration": 0.10869575000000964
                },
                {
                    "name": "C3",
                    "midi": 48,
                    "time": 235.4349945000028,
                    "velocity": 0.31496062992125984,
                    "duration": 0.08152181250000012
                },
                {
                    "name": "D3",
                    "midi": 50,
                    "time": 235.5436902500028,
                    "velocity": 0.31496062992125984,
                    "duration": 0.08152181250000012
                },
                {
                    "name": "D#3",
                    "midi": 51,
                    "time": 235.65238600000282,
                    "velocity": 0.3779527559055118,
                    "duration": 0.10869575000000964
                },
                {
                    "name": "G2",
                    "midi": 43,
                    "time": 235.86977750000284,
                    "velocity": 0.3228346456692913,
                    "duration": 0.21739149999999086
                },
                {
                    "name": "A2",
                    "midi": 45,
                    "time": 236.08716900000283,
                    "velocity": 0.33070866141732286,
                    "duration": 0.21739149999999086
                },
                {
                    "name": "C3",
                    "midi": 48,
                    "time": 236.30456050000282,
                    "velocity": 0.33070866141732286,
                    "duration": 0.21739150000001928
                },
                {
                    "name": "F3",
                    "midi": 53,
                    "time": 236.30456050000282,
                    "velocity": 0.3700787401574803,
                    "duration": 0.10869575000000964
                },
                {
                    "name": "D#3",
                    "midi": 51,
                    "time": 236.41325625000283,
                    "velocity": 0.3700787401574803,
                    "duration": 0.10869575000000964
                },
                {
                    "name": "A#2",
                    "midi": 46,
                    "time": 236.52195200000284,
                    "velocity": 0.4015748031496063,
                    "duration": 0.08152181250000012
                },
                {
                    "name": "D3",
                    "midi": 50,
                    "time": 236.52195200000284,
                    "velocity": 0.33858267716535434,
                    "duration": 0.21739149999999086
                },
                {
                    "name": "A#2",
                    "midi": 46,
                    "time": 236.73934350000283,
                    "velocity": 0.33858267716535434,
                    "duration": 0.08152181250000012
                },
                {
                    "name": "C3",
                    "midi": 48,
                    "time": 236.84803925000284,
                    "velocity": 0.3464566929133858,
                    "duration": 0.08152181250000012
                },
                {
                    "name": "D3",
                    "midi": 50,
                    "time": 236.95673500000285,
                    "velocity": 0.3464566929133858,
                    "duration": 0.10869575000000964
                },
                {
                    "name": "D#3",
                    "midi": 51,
                    "time": 237.17412650000287,
                    "velocity": 0.3464566929133858,
                    "duration": 0.08152181250000012
                },
                {
                    "name": "A#3",
                    "midi": 58,
                    "time": 237.28282225000288,
                    "velocity": 0.3779527559055118,
                    "duration": 0.10869575000000964
                },
                {
                    "name": "F3",
                    "midi": 53,
                    "time": 237.28282225000288,
                    "velocity": 0.3543307086614173,
                    "duration": 0.08152181250000012
                },
                {
                    "name": "D#3",
                    "midi": 51,
                    "time": 237.3915180000029,
                    "velocity": 0.4251968503937008,
                    "duration": 0.10869575000000964
                },
                {
                    "name": "D#4",
                    "midi": 63,
                    "time": 237.3915180000029,
                    "velocity": 0.4251968503937008,
                    "duration": 0.3242756541666836
                },
                {
                    "name": "D#4",
                    "midi": 63,
                    "time": 237.71760525000292,
                    "velocity": 0.3937007874015748,
                    "duration": 0.1068841541666643
                },
                {
                    "name": "D#4",
                    "midi": 63,
                    "time": 237.82630100000293,
                    "velocity": 0.4251968503937008,
                    "duration": 0.21739149999999086
                },
                {
                    "name": "F4",
                    "midi": 65,
                    "time": 238.04369250000292,
                    "velocity": 0.4330708661417323,
                    "duration": 0.08152181250000012
                },
                {
                    "name": "D#4",
                    "midi": 63,
                    "time": 238.15238825000293,
                    "velocity": 0.4015748031496063,
                    "duration": 0.08152181250000012
                },
                {
                    "name": "C3",
                    "midi": 48,
                    "time": 238.26108400000294,
                    "velocity": 0.4409448818897638,
                    "duration": 0.08152181250000012
                },
                {
                    "name": "D#4",
                    "midi": 63,
                    "time": 238.26108400000294,
                    "velocity": 0.4409448818897638,
                    "duration": 0.06159425833334353
                },
                {
                    "name": "C4",
                    "midi": 60,
                    "time": 238.47847550000293,
                    "velocity": 0.3937007874015748,
                    "duration": 0.08152181250000012
                },
                {
                    "name": "C3",
                    "midi": 48,
                    "time": 238.47847550000293,
                    "velocity": 0.3779527559055118,
                    "duration": 0.08152181250000012
                },
                {
                    "name": "D3",
                    "midi": 50,
                    "time": 238.58717125000294,
                    "velocity": 0.3779527559055118,
                    "duration": 0.08152181250000012
                },
                {
                    "name": "E3",
                    "midi": 52,
                    "time": 238.69586700000295,
                    "velocity": 0.3779527559055118,
                    "duration": 0.10869575000000964
                },
                {
                    "name": "C4",
                    "midi": 60,
                    "time": 238.69586700000295,
                    "velocity": 0.4015748031496063,
                    "duration": 0.43478300000003856
                },
                {
                    "name": "F3",
                    "midi": 53,
                    "time": 238.91325850000297,
                    "velocity": 0.3858267716535433,
                    "duration": 0.08152181250000012
                },
                {
                    "name": "G3",
                    "midi": 55,
                    "time": 239.02195425000298,
                    "velocity": 0.3858267716535433,
                    "duration": 0.08152181250000012
                },
                {
                    "name": "F4",
                    "midi": 65,
                    "time": 239.130650000003,
                    "velocity": 0.4645669291338583,
                    "duration": 0.08152181250000012
                },
                {
                    "name": "F3",
                    "midi": 53,
                    "time": 239.130650000003,
                    "velocity": 0.4645669291338583,
                    "duration": 0.10869575000000964
                },
                {
                    "name": "F4",
                    "midi": 65,
                    "time": 239.348041500003,
                    "velocity": 0.4645669291338583,
                    "duration": 0.08152181250000012
                },
                {
                    "name": "D#4",
                    "midi": 63,
                    "time": 239.45673725000302,
                    "velocity": 0.47244094488188976,
                    "duration": 0.08152181250000012
                },
                {
                    "name": "F3",
                    "midi": 53,
                    "time": 239.56543300000303,
                    "velocity": 0.3937007874015748,
                    "duration": 0.10869575000000964
                },
                {
                    "name": "D4",
                    "midi": 62,
                    "time": 239.56543300000303,
                    "velocity": 0.47244094488188976,
                    "duration": 0.10869575000000964
                },
                {
                    "name": "F3",
                    "midi": 53,
                    "time": 239.78282450000304,
                    "velocity": 0.4015748031496063,
                    "duration": 0.08152181250000012
                },
                {
                    "name": "D4",
                    "midi": 62,
                    "time": 239.78282450000304,
                    "velocity": 0.48031496062992124,
                    "duration": 0.08152181250000012
                },
                {
                    "name": "D#3",
                    "midi": 51,
                    "time": 239.89152025000305,
                    "velocity": 0.4015748031496063,
                    "duration": 0.08152181250000012
                },
                {
                    "name": "C4",
                    "midi": 60,
                    "time": 239.89152025000305,
                    "velocity": 0.48031496062992124,
                    "duration": 0.08152181250000012
                },
                {
                    "name": "D3",
                    "midi": 50,
                    "time": 240.00021600000306,
                    "velocity": 0.48031496062992124,
                    "duration": 0.08152181250000012
                },
                {
                    "name": "B3",
                    "midi": 59,
                    "time": 240.00021600000306,
                    "velocity": 0.48031496062992124,
                    "duration": 0.21739149999999086
                },
                {
                    "name": "D3",
                    "midi": 50,
                    "time": 240.21760750000306,
                    "velocity": 0.4094488188976378,
                    "duration": 0.08152181250000012
                },
                {
                    "name": "D#3",
                    "midi": 51,
                    "time": 240.32630325000306,
                    "velocity": 0.4094488188976378,
                    "duration": 0.08152181250000012
                },
                {
                    "name": "B3",
                    "midi": 59,
                    "time": 240.43499900000307,
                    "velocity": 0.4330708661417323,
                    "duration": 0.43478300000003856
                },
                {
                    "name": "F3",
                    "midi": 53,
                    "time": 240.43499900000307,
                    "velocity": 0.4094488188976378,
                    "duration": 0.10869575000000964
                },
                {
                    "name": "G3",
                    "midi": 55,
                    "time": 240.6523905000031,
                    "velocity": 0.41732283464566927,
                    "duration": 0.08152181250000012
                },
                {
                    "name": "G#3",
                    "midi": 56,
                    "time": 240.7610862500031,
                    "velocity": 0.41732283464566927,
                    "duration": 0.08152181250000012
                },
                {
                    "name": "G4",
                    "midi": 67,
                    "time": 240.8697820000031,
                    "velocity": 0.5039370078740157,
                    "duration": 0.08152181250000012
                },
                {
                    "name": "G3",
                    "midi": 55,
                    "time": 240.8697820000031,
                    "velocity": 0.5039370078740157,
                    "duration": 0.10869575000000964
                },
                {
                    "name": "G4",
                    "midi": 67,
                    "time": 241.08717350000313,
                    "velocity": 0.5118110236220472,
                    "duration": 0.08152181250000012
                },
                {
                    "name": "F4",
                    "midi": 65,
                    "time": 241.19586925000314,
                    "velocity": 0.5118110236220472,
                    "duration": 0.08152181250000012
                },
                {
                    "name": "D#4",
                    "midi": 63,
                    "time": 241.30456500000315,
                    "velocity": 0.5118110236220472,
                    "duration": 0.10869575000000964
                },
                {
                    "name": "G3",
                    "midi": 55,
                    "time": 241.30456500000315,
                    "velocity": 0.4330708661417323,
                    "duration": 0.10869575000000964
                },
                {
                    "name": "D#4",
                    "midi": 63,
                    "time": 241.52195650000317,
                    "velocity": 0.5196850393700787,
                    "duration": 0.08152181250000012
                },
                {
                    "name": "G3",
                    "midi": 55,
                    "time": 241.52195650000317,
                    "velocity": 0.4330708661417323,
                    "duration": 0.08152181250000012
                },
                {
                    "name": "D4",
                    "midi": 62,
                    "time": 241.63065225000318,
                    "velocity": 0.5196850393700787,
                    "duration": 0.08152181250000012
                },
                {
                    "name": "F3",
                    "midi": 53,
                    "time": 241.63065225000318,
                    "velocity": 0.4330708661417323,
                    "duration": 0.08152181250000012
                },
                {
                    "name": "D#3",
                    "midi": 51,
                    "time": 241.7393480000032,
                    "velocity": 0.5196850393700787,
                    "duration": 0.08152181250000012
                },
                {
                    "name": "C4",
                    "midi": 60,
                    "time": 241.7393480000032,
                    "velocity": 0.5196850393700787,
                    "duration": 0.08152181250000012
                },
                {
                    "name": "D#3",
                    "midi": 51,
                    "time": 241.95673950000318,
                    "velocity": 0.4409448818897638,
                    "duration": 0.08152181250000012
                },
                {
                    "name": "C4",
                    "midi": 60,
                    "time": 241.95673950000318,
                    "velocity": 0.4645669291338583,
                    "duration": 0.43478300000003856
                },
                {
                    "name": "F3",
                    "midi": 53,
                    "time": 242.0654352500032,
                    "velocity": 0.4409448818897638,
                    "duration": 0.08152181250000012
                },
                {
                    "name": "G3",
                    "midi": 55,
                    "time": 242.1741310000032,
                    "velocity": 0.44881889763779526,
                    "duration": 0.10869575000000964
                },
                {
                    "name": "A3",
                    "midi": 57,
                    "time": 242.39152250000322,
                    "velocity": 0.44881889763779526,
                    "duration": 0.08152181250000012
                },
                {
                    "name": "G4",
                    "midi": 67,
                    "time": 242.39152250000322,
                    "velocity": 0.44881889763779526,
                    "duration": 0.08152181250000012
                },
                {
                    "name": "F4",
                    "midi": 65,
                    "time": 242.50021825000323,
                    "velocity": 0.4566929133858268,
                    "duration": 0.08152181250000012
                },
                {
                    "name": "B3",
                    "midi": 59,
                    "time": 242.50021825000323,
                    "velocity": 0.4566929133858268,
                    "duration": 0.08152181250000012
                },
                {
                    "name": "C4",
                    "midi": 60,
                    "time": 242.60891400000324,
                    "velocity": 0.5433070866141733,
                    "duration": 0.08152181250000012
                },
                {
                    "name": "D#4",
                    "midi": 63,
                    "time": 242.60891400000324,
                    "velocity": 0.5433070866141733,
                    "duration": 0.08152181250000012
                },
                {
                    "name": "F4",
                    "midi": 65,
                    "time": 242.82630550000323,
                    "velocity": 0.4566929133858268,
                    "duration": 0.08152181250000012
                },
                {
                    "name": "D3",
                    "midi": 50,
                    "time": 242.82630550000323,
                    "velocity": 0.4566929133858268,
                    "duration": 0.08152181250000012
                },
                {
                    "name": "G4",
                    "midi": 67,
                    "time": 242.93500125000324,
                    "velocity": 0.4645669291338583,
                    "duration": 0.08152181250000012
                },
                {
                    "name": "E3",
                    "midi": 52,
                    "time": 242.93500125000324,
                    "velocity": 0.4645669291338583,
                    "duration": 0.08152181250000012
                },
                {
                    "name": "F3",
                    "midi": 53,
                    "time": 243.04369700000325,
                    "velocity": 0.4645669291338583,
                    "duration": 0.10869575000000964
                },
                {
                    "name": "C4",
                    "midi": 60,
                    "time": 243.04369700000325,
                    "velocity": 0.4645669291338583,
                    "duration": 0.10869575000000964
                },
                {
                    "name": "C4",
                    "midi": 60,
                    "time": 243.26108850000327,
                    "velocity": 0.4645669291338583,
                    "duration": 0.08152181250000012
                },
                {
                    "name": "F2",
                    "midi": 41,
                    "time": 243.26108850000327,
                    "velocity": 0.4645669291338583,
                    "duration": 0.08152181250000012
                },
                {
                    "name": "G2",
                    "midi": 43,
                    "time": 243.36978425000328,
                    "velocity": 0.4330708661417323,
                    "duration": 0.08152181250000012
                },
                {
                    "name": "A#3",
                    "midi": 58,
                    "time": 243.36978425000328,
                    "velocity": 0.47244094488188976,
                    "duration": 0.08152181250000012
                },
                {
                    "name": "C4",
                    "midi": 60,
                    "time": 243.4784800000033,
                    "velocity": 0.5669291338582677,
                    "duration": 0.10869575000000964
                },
                {
                    "name": "G#2",
                    "midi": 44,
                    "time": 243.4784800000033,
                    "velocity": 0.5669291338582677,
                    "duration": 0.10869575000000964
                },
                {
                    "name": "A#2",
                    "midi": 46,
                    "time": 243.6958715000033,
                    "velocity": 0.4015748031496063,
                    "duration": 0.21739149999999086
                },
                {
                    "name": "D4",
                    "midi": 62,
                    "time": 243.6958715000033,
                    "velocity": 0.48031496062992124,
                    "duration": 0.21739149999999086
                },
                {
                    "name": "B2",
                    "midi": 47,
                    "time": 243.9132630000033,
                    "velocity": 0.4015748031496063,
                    "duration": 0.21739149999999086
                },
                {
                    "name": "D#4",
                    "midi": 63,
                    "time": 243.9132630000033,
                    "velocity": 0.48031496062992124,
                    "duration": 0.21739149999999086
                },
                {
                    "name": "D4",
                    "midi": 62,
                    "time": 244.1306545000033,
                    "velocity": 0.4881889763779528,
                    "duration": 0.08152181250000012
                },
                {
                    "name": "A#2",
                    "midi": 46,
                    "time": 244.1306545000033,
                    "velocity": 0.4881889763779528,
                    "duration": 0.08152181250000012
                },
                {
                    "name": "D4",
                    "midi": 62,
                    "time": 244.2393502500033,
                    "velocity": 0.4881889763779528,
                    "duration": 0.08152181250000012
                },
                {
                    "name": "A#1",
                    "midi": 34,
                    "time": 244.2393502500033,
                    "velocity": 0.4881889763779528,
                    "duration": 0.08152181250000012
                },
                {
                    "name": "F4",
                    "midi": 65,
                    "time": 244.2393502500033,
                    "velocity": 0.4881889763779528,
                    "duration": 0.08152181250000012
                },
                {
                    "name": "D#2",
                    "midi": 39,
                    "time": 244.3480460000033,
                    "velocity": 0.48031496062992124,
                    "duration": 0.32427565416665516
                },
                {
                    "name": "D#2",
                    "midi": 39,
                    "time": 244.6741332500033,
                    "velocity": 0.4251968503937008,
                    "duration": 0.08152181250000012
                },
                {
                    "name": "D#2",
                    "midi": 39,
                    "time": 244.78282900000332,
                    "velocity": 0.4251968503937008,
                    "duration": 0.21739149999999086
                },
                {
                    "name": "F2",
                    "midi": 41,
                    "time": 245.0002205000033,
                    "velocity": 0.48031496062992124,
                    "duration": 0.08152181250000012
                },
                {
                    "name": "D#2",
                    "midi": 39,
                    "time": 245.10891625000332,
                    "velocity": 0.4251968503937008,
                    "duration": 0.08152181250000012
                },
                {
                    "name": "C3",
                    "midi": 48,
                    "time": 245.21761200000333,
                    "velocity": 0.48031496062992124,
                    "duration": 0.32427565416665516
                },
                {
                    "name": "D#2",
                    "midi": 39,
                    "time": 245.21761200000333,
                    "velocity": 0.4015748031496063,
                    "duration": 0.21739149999999086
                },
                {
                    "name": "C2",
                    "midi": 36,
                    "time": 245.43500350000332,
                    "velocity": 0.33858267716535434,
                    "duration": 0.21739150000001928
                },
                {
                    "name": "C3",
                    "midi": 48,
                    "time": 245.54369925000333,
                    "velocity": 0.4251968503937008,
                    "duration": 0.08152181250000012
                },
                {
                    "name": "C3",
                    "midi": 48,
                    "time": 245.65239500000334,
                    "velocity": 0.4881889763779528,
                    "duration": 0.21739149999999086
                },
                {
                    "name": "C2",
                    "midi": 36,
                    "time": 245.65239500000334,
                    "velocity": 0.4094488188976378,
                    "duration": 0.43478300000001013
                },
                {
                    "name": "D3",
                    "midi": 50,
                    "time": 245.86978650000333,
                    "velocity": 0.48031496062992124,
                    "duration": 0.08152181250000012
                },
                {
                    "name": "C3",
                    "midi": 48,
                    "time": 245.97848225000334,
                    "velocity": 0.4251968503937008,
                    "duration": 0.08152181250000012
                },
                {
                    "name": "C3",
                    "midi": 48,
                    "time": 246.08717800000335,
                    "velocity": 0.48031496062992124,
                    "duration": 0.10869575000000964
                },
                {
                    "name": "G#2",
                    "midi": 44,
                    "time": 246.08717800000335,
                    "velocity": 0.4015748031496063,
                    "duration": 0.08152181250000012
                },
                {
                    "name": "G#2",
                    "midi": 44,
                    "time": 246.30456950000337,
                    "velocity": 0.4881889763779528,
                    "duration": 0.19021756250000976
                },
                {
                    "name": "G2",
                    "midi": 43,
                    "time": 246.41326525000338,
                    "velocity": 0.44881889763779526,
                    "duration": 0.08152181250000012
                },
                {
                    "name": "F2",
                    "midi": 41,
                    "time": 246.5219610000034,
                    "velocity": 0.41732283464566927,
                    "duration": 0.08152181250000012
                },
                {
                    "name": "G#2",
                    "midi": 44,
                    "time": 246.5219610000034,
                    "velocity": 0.49606299212598426,
                    "duration": 0.43478300000001013
                },
                {
                    "name": "F2",
                    "midi": 41,
                    "time": 246.73935250000338,
                    "velocity": 0.4251968503937008,
                    "duration": 0.08152181250000012
                },
                {
                    "name": "D#2",
                    "midi": 39,
                    "time": 246.8480482500034,
                    "velocity": 0.4251968503937008,
                    "duration": 0.08152181250000012
                },
                {
                    "name": "D2",
                    "midi": 38,
                    "time": 246.9567440000034,
                    "velocity": 0.4015748031496063,
                    "duration": 0.21739149999999086
                },
                {
                    "name": "F3",
                    "midi": 53,
                    "time": 246.9567440000034,
                    "velocity": 0.4409448818897638,
                    "duration": 0.08152181250000012
                },
                {
                    "name": "F3",
                    "midi": 53,
                    "time": 247.1741355000034,
                    "velocity": 0.4409448818897638,
                    "duration": 0.08152181250000012
                },
                {
                    "name": "D#3",
                    "midi": 51,
                    "time": 247.2828312500034,
                    "velocity": 0.4645669291338583,
                    "duration": 0.08152181250000012
                },
                {
                    "name": "D3",
                    "midi": 50,
                    "time": 247.3915270000034,
                    "velocity": 0.4645669291338583,
                    "duration": 0.10869575000000964
                },
                {
                    "name": "D2",
                    "midi": 38,
                    "time": 247.3915270000034,
                    "velocity": 0.4094488188976378,
                    "duration": 0.43478300000003856
                },
                {
                    "name": "D3",
                    "midi": 50,
                    "time": 247.60891850000343,
                    "velocity": 0.4409448818897638,
                    "duration": 0.08152181250000012
                },
                {
                    "name": "C3",
                    "midi": 48,
                    "time": 247.71761425000344,
                    "velocity": 0.4094488188976378,
                    "duration": 0.08152181250000012
                },
                {
                    "name": "A#2",
                    "midi": 46,
                    "time": 247.82631000000345,
                    "velocity": 0.48031496062992124,
                    "duration": 0.10869575000000964
                },
                {
                    "name": "A#2",
                    "midi": 46,
                    "time": 248.04370150000346,
                    "velocity": 0.4881889763779528,
                    "duration": 0.08152181250000012
                },
                {
                    "name": "G#2",
                    "midi": 44,
                    "time": 248.15239725000347,
                    "velocity": 0.44881889763779526,
                    "duration": 0.08152181250000012
                },
                {
                    "name": "A#2",
                    "midi": 46,
                    "time": 248.26109300000348,
                    "velocity": 0.49606299212598426,
                    "duration": 0.43478300000001013
                },
                {
                    "name": "G2",
                    "midi": 43,
                    "time": 248.26109300000348,
                    "velocity": 0.41732283464566927,
                    "duration": 0.08152181250000012
                },
                {
                    "name": "G2",
                    "midi": 43,
                    "time": 248.47848450000347,
                    "velocity": 0.4251968503937008,
                    "duration": 0.08152181250000012
                },
                {
                    "name": "F2",
                    "midi": 41,
                    "time": 248.58718025000348,
                    "velocity": 0.4251968503937008,
                    "duration": 0.08152181250000012
                },
                {
                    "name": "E2",
                    "midi": 40,
                    "time": 248.6958760000035,
                    "velocity": 0.4015748031496063,
                    "duration": 0.21739149999999086
                },
                {
                    "name": "G3",
                    "midi": 55,
                    "time": 248.6958760000035,
                    "velocity": 0.4409448818897638,
                    "duration": 0.08152181250000012
                },
                {
                    "name": "G3",
                    "midi": 55,
                    "time": 248.91326750000349,
                    "velocity": 0.4409448818897638,
                    "duration": 0.08152181250000012
                },
                {
                    "name": "F3",
                    "midi": 53,
                    "time": 249.0219632500035,
                    "velocity": 0.4645669291338583,
                    "duration": 0.08152181250000012
                },
                {
                    "name": "E2",
                    "midi": 40,
                    "time": 249.1306590000035,
                    "velocity": 0.4094488188976378,
                    "duration": 0.43478300000003856
                },
                {
                    "name": "E3",
                    "midi": 52,
                    "time": 249.1306590000035,
                    "velocity": 0.4645669291338583,
                    "duration": 0.10869575000000964
                },
                {
                    "name": "E3",
                    "midi": 52,
                    "time": 249.34805050000352,
                    "velocity": 0.4409448818897638,
                    "duration": 0.08152181250000012
                },
                {
                    "name": "D3",
                    "midi": 50,
                    "time": 249.45674625000353,
                    "velocity": 0.4094488188976378,
                    "duration": 0.08152181250000012
                },
                {
                    "name": "C3",
                    "midi": 48,
                    "time": 249.56544200000354,
                    "velocity": 0.48031496062992124,
                    "duration": 0.10869575000000964
                },
                {
                    "name": "G3",
                    "midi": 55,
                    "time": 249.78283350000356,
                    "velocity": 0.4015748031496063,
                    "duration": 0.08152181250000012
                },
                {
                    "name": "C3",
                    "midi": 48,
                    "time": 249.78283350000356,
                    "velocity": 0.33858267716535434,
                    "duration": 0.08152181250000012
                },
                {
                    "name": "C#4",
                    "midi": 61,
                    "time": 249.89152925000357,
                    "velocity": 0.3228346456692913,
                    "duration": 0.08152181250000012
                },
                {
                    "name": "A#2",
                    "midi": 46,
                    "time": 249.89152925000357,
                    "velocity": 0.2677165354330709,
                    "duration": 0.08152181250000012
                },
                {
                    "name": "C3",
                    "midi": 48,
                    "time": 250.00022500000358,
                    "velocity": 0.4015748031496063,
                    "duration": 0.08152181250000012
                },
                {
                    "name": "C4",
                    "midi": 60,
                    "time": 250.00022500000358,
                    "velocity": 0.4015748031496063,
                    "duration": 0.08152181250000012
                },
                {
                    "name": "G#2",
                    "midi": 44,
                    "time": 250.00022500000358,
                    "velocity": 0.33858267716535434,
                    "duration": 0.08152181250000012
                },
                {
                    "name": "G2",
                    "midi": 43,
                    "time": 250.21761650000357,
                    "velocity": 0.3543307086614173,
                    "duration": 0.08152181250000012
                },
                {
                    "name": "E3",
                    "midi": 52,
                    "time": 250.21761650000357,
                    "velocity": 0.4251968503937008,
                    "duration": 0.08152181250000012
                },
                {
                    "name": "F2",
                    "midi": 41,
                    "time": 250.43500800000356,
                    "velocity": 0.3937007874015748,
                    "duration": 0.6521744999999726
                },
                {
                    "name": "F3",
                    "midi": 53,
                    "time": 250.43500800000356,
                    "velocity": 0.3937007874015748,
                    "duration": 0.21739149999999086
                },
                {
                    "name": "C3",
                    "midi": 48,
                    "time": 250.65239950000355,
                    "velocity": 0.33070866141732286,
                    "duration": 0.21739149999999086
                },
                {
                    "name": "F3",
                    "midi": 53,
                    "time": 250.86979100000354,
                    "velocity": 0.4094488188976378,
                    "duration": 0.21739149999999086
                },
                {
                    "name": "D#3",
                    "midi": 51,
                    "time": 251.08718250000354,
                    "velocity": 0.33070866141732286,
                    "duration": 0.21739149999999086
                },
                {
                    "name": "F#2",
                    "midi": 42,
                    "time": 251.08718250000354,
                    "velocity": 0.33070866141732286,
                    "duration": 0.21739149999999086
                },
                {
                    "name": "D3",
                    "midi": 50,
                    "time": 251.30457400000353,
                    "velocity": 0.4409448818897638,
                    "duration": 0.08152181250000012
                },
                {
                    "name": "G2",
                    "midi": 43,
                    "time": 251.30457400000353,
                    "velocity": 0.4015748031496063,
                    "duration": 0.6521744999999726
                },
                {
                    "name": "D3",
                    "midi": 50,
                    "time": 251.52196550000352,
                    "velocity": 0.4251968503937008,
                    "duration": 0.21739149999999086
                },
                {
                    "name": "G3",
                    "midi": 55,
                    "time": 251.7393570000035,
                    "velocity": 0.4645669291338583,
                    "duration": 0.21739149999999086
                },
                {
                    "name": "G2",
                    "midi": 43,
                    "time": 251.9567485000035,
                    "velocity": 0.3700787401574803,
                    "duration": 0.21739149999999086
                },
                {
                    "name": "F3",
                    "midi": 53,
                    "time": 251.9567485000035,
                    "velocity": 0.4409448818897638,
                    "duration": 0.21739149999999086
                },
                {
                    "name": "G#2",
                    "midi": 44,
                    "time": 252.1741400000035,
                    "velocity": 0.36220472440944884,
                    "duration": 0.6521745000000294
                },
                {
                    "name": "D#3",
                    "midi": 51,
                    "time": 252.1741400000035,
                    "velocity": 0.4330708661417323,
                    "duration": 0.21739149999999086
                },
                {
                    "name": "G#3",
                    "midi": 56,
                    "time": 252.39153150000348,
                    "velocity": 0.4566929133858268,
                    "duration": 0.10869575000000964
                },
                {
                    "name": "G3",
                    "midi": 55,
                    "time": 252.5002272500035,
                    "velocity": 0.3937007874015748,
                    "duration": 0.10869575000000964
                },
                {
                    "name": "F3",
                    "midi": 53,
                    "time": 252.6089230000035,
                    "velocity": 0.4645669291338583,
                    "duration": 0.10869575000000964
                },
                {
                    "name": "F3",
                    "midi": 53,
                    "time": 252.82631450000352,
                    "velocity": 0.48031496062992124,
                    "duration": 0.10869575000000964
                },
                {
                    "name": "A2",
                    "midi": 45,
                    "time": 252.82631450000352,
                    "velocity": 0.3228346456692913,
                    "duration": 0.21739150000001928
                },
                {
                    "name": "D#3",
                    "midi": 51,
                    "time": 252.93501025000353,
                    "velocity": 0.41732283464566927,
                    "duration": 0.10869575000000964
                },
                {
                    "name": "D3",
                    "midi": 50,
                    "time": 253.04370600000354,
                    "velocity": 0.5275590551181102,
                    "duration": 0.08152181250000012
                },
                {
                    "name": "A#2",
                    "midi": 46,
                    "time": 253.04370600000354,
                    "velocity": 0.4015748031496063,
                    "duration": 0.08152181250000012
                },
                {
                    "name": "B2",
                    "midi": 47,
                    "time": 253.26109750000353,
                    "velocity": 0.41732283464566927,
                    "duration": 0.21739150000001928
                },
                {
                    "name": "A#3",
                    "midi": 58,
                    "time": 253.26109750000353,
                    "velocity": 0.4094488188976378,
                    "duration": 0.08152181250000012
                },
                {
                    "name": "G#3",
                    "midi": 56,
                    "time": 253.36979325000354,
                    "velocity": 0.3700787401574803,
                    "duration": 0.08152181250000012
                },
                {
                    "name": "G3",
                    "midi": 55,
                    "time": 253.47848900000355,
                    "velocity": 0.47244094488188976,
                    "duration": 0.10869575000000964
                },
                {
                    "name": "C3",
                    "midi": 48,
                    "time": 253.47848900000355,
                    "velocity": 0.4645669291338583,
                    "duration": 0.10869575000000964
                },
                {
                    "name": "F3",
                    "midi": 53,
                    "time": 253.69588050000357,
                    "velocity": 0.5196850393700787,
                    "duration": 0.21739149999999086
                },
                {
                    "name": "D3",
                    "midi": 50,
                    "time": 253.69588050000357,
                    "velocity": 0.4409448818897638,
                    "duration": 0.21739149999999086
                },
                {
                    "name": "D#3",
                    "midi": 51,
                    "time": 253.91327200000356,
                    "velocity": 0.5196850393700787,
                    "duration": 0.21739149999999086
                },
                {
                    "name": "C3",
                    "midi": 48,
                    "time": 253.91327200000356,
                    "velocity": 0.3700787401574803,
                    "duration": 0.21739149999999086
                },
                {
                    "name": "D#3",
                    "midi": 51,
                    "time": 254.67414225000354,
                    "velocity": 0.48031496062992124,
                    "duration": 0.10869575000000964
                },
                {
                    "name": "C3",
                    "midi": 48,
                    "time": 254.67414225000354,
                    "velocity": 0.4015748031496063,
                    "duration": 0.08152181250000012
                },
                {
                    "name": "G#3",
                    "midi": 56,
                    "time": 254.78283800000355,
                    "velocity": 0.5275590551181102,
                    "duration": 0.3233698562499967
                },
                {
                    "name": "F3",
                    "midi": 53,
                    "time": 254.78283800000355,
                    "velocity": 0.4409448818897638,
                    "duration": 0.3233698562499967
                },
                {
                    "name": "F3",
                    "midi": 53,
                    "time": 255.10892525000355,
                    "velocity": 0.4015748031496063,
                    "duration": 0.10778995208332276
                },
                {
                    "name": "G#3",
                    "midi": 56,
                    "time": 255.10892525000355,
                    "velocity": 0.48031496062992124,
                    "duration": 0.10778995208332276
                },
                {
                    "name": "F3",
                    "midi": 53,
                    "time": 255.21762100000353,
                    "velocity": 0.4251968503937008,
                    "duration": 0.21739149999999086
                },
                {
                    "name": "G#3",
                    "midi": 56,
                    "time": 255.21762100000353,
                    "velocity": 0.5039370078740157,
                    "duration": 0.21739149999999086
                },
                {
                    "name": "G3",
                    "midi": 55,
                    "time": 255.43501250000352,
                    "velocity": 0.4409448818897638,
                    "duration": 0.08152181250000012
                },
                {
                    "name": "A#3",
                    "midi": 58,
                    "time": 255.43501250000352,
                    "velocity": 0.5275590551181102,
                    "duration": 0.08152181250000012
                },
                {
                    "name": "F3",
                    "midi": 53,
                    "time": 255.54370825000353,
                    "velocity": 0.3779527559055118,
                    "duration": 0.08152181250000012
                },
                {
                    "name": "G#3",
                    "midi": 56,
                    "time": 255.54370825000353,
                    "velocity": 0.44881889763779526,
                    "duration": 0.08152181250000012
                },
                {
                    "name": "G#3",
                    "midi": 56,
                    "time": 255.65240400000354,
                    "velocity": 0.5275590551181102,
                    "duration": 0.08152181250000012
                },
                {
                    "name": "F3",
                    "midi": 53,
                    "time": 255.65240400000354,
                    "velocity": 0.4409448818897638,
                    "duration": 0.08152181250000012
                },
                {
                    "name": "F3",
                    "midi": 53,
                    "time": 255.86979550000353,
                    "velocity": 0.4566929133858268,
                    "duration": 0.08152181250000012
                },
                {
                    "name": "C#3",
                    "midi": 49,
                    "time": 255.86979550000353,
                    "velocity": 0.3858267716535433,
                    "duration": 0.08152181250000012
                },
                {
                    "name": "C#3",
                    "midi": 49,
                    "time": 256.08718700000355,
                    "velocity": 0.3858267716535433,
                    "duration": 0.4347829999999817
                },
                {
                    "name": "F3",
                    "midi": 53,
                    "time": 256.08718700000355,
                    "velocity": 0.4566929133858268,
                    "duration": 0.4347829999999817
                },
                {
                    "name": "C#4",
                    "midi": 61,
                    "time": 256.52197000000353,
                    "velocity": 0.5275590551181102,
                    "duration": 0.08152181250000012
                },
                {
                    "name": "A#3",
                    "midi": 58,
                    "time": 256.52197000000353,
                    "velocity": 0.4409448818897638,
                    "duration": 0.08152181250000012
                },
                {
                    "name": "C#4",
                    "midi": 61,
                    "time": 256.73936150000355,
                    "velocity": 0.5275590551181102,
                    "duration": 0.08152181250000012
                },
                {
                    "name": "A#3",
                    "midi": 58,
                    "time": 256.73936150000355,
                    "velocity": 0.4409448818897638,
                    "duration": 0.08152181250000012
                },
                {
                    "name": "C4",
                    "midi": 60,
                    "time": 256.84805725000354,
                    "velocity": 0.49606299212598426,
                    "duration": 0.08152181250000012
                },
                {
                    "name": "G#3",
                    "midi": 56,
                    "time": 256.84805725000354,
                    "velocity": 0.41732283464566927,
                    "duration": 0.08152181250000012
                },
                {
                    "name": "G3",
                    "midi": 55,
                    "time": 256.9567530000035,
                    "velocity": 0.4409448818897638,
                    "duration": 0.10869574999998122
                },
                {
                    "name": "A#3",
                    "midi": 58,
                    "time": 256.9567530000035,
                    "velocity": 0.5275590551181102,
                    "duration": 0.10869574999998122
                },
                {
                    "name": "A#3",
                    "midi": 58,
                    "time": 257.1741445000035,
                    "velocity": 0.5275590551181102,
                    "duration": 0.08152181250000012
                },
                {
                    "name": "G3",
                    "midi": 55,
                    "time": 257.1741445000035,
                    "velocity": 0.4409448818897638,
                    "duration": 0.08152181250000012
                },
                {
                    "name": "G#3",
                    "midi": 56,
                    "time": 257.28284025000346,
                    "velocity": 0.49606299212598426,
                    "duration": 0.08152181250000012
                },
                {
                    "name": "F3",
                    "midi": 53,
                    "time": 257.28284025000346,
                    "velocity": 0.41732283464566927,
                    "duration": 0.08152181250000012
                },
                {
                    "name": "G3",
                    "midi": 55,
                    "time": 257.39153600000344,
                    "velocity": 0.5275590551181102,
                    "duration": 0.21739150000001928
                },
                {
                    "name": "E3",
                    "midi": 52,
                    "time": 257.39153600000344,
                    "velocity": 0.4409448818897638,
                    "duration": 0.21739150000001928
                },
                {
                    "name": "G3",
                    "midi": 55,
                    "time": 257.8263190000035,
                    "velocity": 0.4566929133858268,
                    "duration": 0.4347829999999817
                },
                {
                    "name": "E3",
                    "midi": 52,
                    "time": 257.8263190000035,
                    "velocity": 0.3858267716535433,
                    "duration": 0.4347829999999817
                },
                {
                    "name": "C4",
                    "midi": 60,
                    "time": 258.26110200000346,
                    "velocity": 0.4409448818897638,
                    "duration": 0.08152181250000012
                },
                {
                    "name": "E4",
                    "midi": 64,
                    "time": 258.26110200000346,
                    "velocity": 0.5275590551181102,
                    "duration": 0.08152181250000012
                },
                {
                    "name": "C4",
                    "midi": 60,
                    "time": 258.4784935000035,
                    "velocity": 0.4409448818897638,
                    "duration": 0.08152181250000012
                },
                {
                    "name": "D#4",
                    "midi": 63,
                    "time": 258.4784935000035,
                    "velocity": 0.5275590551181102,
                    "duration": 0.08152181250000012
                },
                {
                    "name": "C#4",
                    "midi": 61,
                    "time": 258.58718925000346,
                    "velocity": 0.49606299212598426,
                    "duration": 0.08152181250000012
                },
                {
                    "name": "A#3",
                    "midi": 58,
                    "time": 258.58718925000346,
                    "velocity": 0.41732283464566927,
                    "duration": 0.08152181250000012
                },
                {
                    "name": "C4",
                    "midi": 60,
                    "time": 258.69588500000344,
                    "velocity": 0.5275590551181102,
                    "duration": 0.10869574999998122
                },
                {
                    "name": "G#3",
                    "midi": 56,
                    "time": 258.69588500000344,
                    "velocity": 0.4409448818897638,
                    "duration": 0.10869574999998122
                },
                {
                    "name": "G#3",
                    "midi": 56,
                    "time": 258.9132765000034,
                    "velocity": 0.4409448818897638,
                    "duration": 0.08152181250000012
                },
                {
                    "name": "C4",
                    "midi": 60,
                    "time": 258.9132765000034,
                    "velocity": 0.5275590551181102,
                    "duration": 0.08152181250000012
                },
                {
                    "name": "G3",
                    "midi": 55,
                    "time": 259.0219722500034,
                    "velocity": 0.41732283464566927,
                    "duration": 0.08152181250000012
                },
                {
                    "name": "A#3",
                    "midi": 58,
                    "time": 259.0219722500034,
                    "velocity": 0.49606299212598426,
                    "duration": 0.08152181250000012
                },
                {
                    "name": "G#3",
                    "midi": 56,
                    "time": 259.13066800000337,
                    "velocity": 0.5275590551181102,
                    "duration": 0.08152181250000012
                },
                {
                    "name": "F3",
                    "midi": 53,
                    "time": 259.13066800000337,
                    "velocity": 0.4409448818897638,
                    "duration": 0.08152181250000012
                },
                {
                    "name": "D3",
                    "midi": 50,
                    "time": 259.3480595000034,
                    "velocity": 0.4409448818897638,
                    "duration": 0.08152181250000012
                },
                {
                    "name": "F3",
                    "midi": 53,
                    "time": 259.3480595000034,
                    "velocity": 0.5275590551181102,
                    "duration": 0.08152181250000012
                },
                {
                    "name": "D#3",
                    "midi": 51,
                    "time": 259.45675525000337,
                    "velocity": 0.41732283464566927,
                    "duration": 0.08152181250000012
                },
                {
                    "name": "G3",
                    "midi": 55,
                    "time": 259.45675525000337,
                    "velocity": 0.49606299212598426,
                    "duration": 0.08152181250000012
                },
                {
                    "name": "G#3",
                    "midi": 56,
                    "time": 259.56545100000335,
                    "velocity": 0.5275590551181102,
                    "duration": 0.10869574999998122
                },
                {
                    "name": "F3",
                    "midi": 53,
                    "time": 259.56545100000335,
                    "velocity": 0.4409448818897638,
                    "duration": 0.10869574999998122
                },
                {
                    "name": "C3",
                    "midi": 48,
                    "time": 259.7828425000033,
                    "velocity": 0.4409448818897638,
                    "duration": 0.08152181250000012
                },
                {
                    "name": "D#3",
                    "midi": 51,
                    "time": 259.7828425000033,
                    "velocity": 0.5275590551181102,
                    "duration": 0.08152181250000012
                },
                {
                    "name": "D3",
                    "midi": 50,
                    "time": 259.8915382500033,
                    "velocity": 0.41732283464566927,
                    "duration": 0.08152181250000012
                },
                {
                    "name": "F3",
                    "midi": 53,
                    "time": 259.8915382500033,
                    "velocity": 0.49606299212598426,
                    "duration": 0.08152181250000012
                },
                {
                    "name": "G3",
                    "midi": 55,
                    "time": 260.0002340000033,
                    "velocity": 0.5275590551181102,
                    "duration": 0.08152181250000012
                },
                {
                    "name": "D#3",
                    "midi": 51,
                    "time": 260.0002340000033,
                    "velocity": 0.4409448818897638,
                    "duration": 0.08152181250000012
                },
                {
                    "name": "B2",
                    "midi": 47,
                    "time": 260.2176255000033,
                    "velocity": 0.4409448818897638,
                    "duration": 0.08152181250000012
                },
                {
                    "name": "D3",
                    "midi": 50,
                    "time": 260.2176255000033,
                    "velocity": 0.5275590551181102,
                    "duration": 0.08152181250000012
                },
                {
                    "name": "D#3",
                    "midi": 51,
                    "time": 260.3263212500033,
                    "velocity": 0.49606299212598426,
                    "duration": 0.08152181250000012
                },
                {
                    "name": "C3",
                    "midi": 48,
                    "time": 260.3263212500033,
                    "velocity": 0.41732283464566927,
                    "duration": 0.08152181250000012
                },
                {
                    "name": "D3",
                    "midi": 50,
                    "time": 260.43501700000326,
                    "velocity": 0.4409448818897638,
                    "duration": 0.10869574999998122
                },
                {
                    "name": "F3",
                    "midi": 53,
                    "time": 260.43501700000326,
                    "velocity": 0.5275590551181102,
                    "duration": 0.10869574999998122
                },
                {
                    "name": "C3",
                    "midi": 48,
                    "time": 260.6524085000032,
                    "velocity": 0.5275590551181102,
                    "duration": 0.08152181250000012
                },
                {
                    "name": "A2",
                    "midi": 45,
                    "time": 260.6524085000032,
                    "velocity": 0.4409448818897638,
                    "duration": 0.08152181250000012
                },
                {
                    "name": "B2",
                    "midi": 47,
                    "time": 260.7611042500032,
                    "velocity": 0.41732283464566927,
                    "duration": 0.08152181250000012
                },
                {
                    "name": "D3",
                    "midi": 50,
                    "time": 260.7611042500032,
                    "velocity": 0.49606299212598426,
                    "duration": 0.08152181250000012
                },
                {
                    "name": "D#3",
                    "midi": 51,
                    "time": 260.8698000000032,
                    "velocity": 0.5275590551181102,
                    "duration": 0.08152181250000012
                },
                {
                    "name": "C3",
                    "midi": 48,
                    "time": 260.8698000000032,
                    "velocity": 0.4409448818897638,
                    "duration": 0.08152181250000012
                },
                {
                    "name": "C#4",
                    "midi": 61,
                    "time": 261.0871915000032,
                    "velocity": 0.4409448818897638,
                    "duration": 0.08152181250000012
                },
                {
                    "name": "F4",
                    "midi": 65,
                    "time": 261.0871915000032,
                    "velocity": 0.5275590551181102,
                    "duration": 0.08152181250000012
                },
                {
                    "name": "D#4",
                    "midi": 63,
                    "time": 261.1958872500032,
                    "velocity": 0.49606299212598426,
                    "duration": 0.08152181250000012
                },
                {
                    "name": "C4",
                    "midi": 60,
                    "time": 261.1958872500032,
                    "velocity": 0.41732283464566927,
                    "duration": 0.08152181250000012
                },
                {
                    "name": "C#4",
                    "midi": 61,
                    "time": 261.30458300000316,
                    "velocity": 0.5354330708661418,
                    "duration": 0.10869574999998122
                },
                {
                    "name": "A#3",
                    "midi": 58,
                    "time": 261.30458300000316,
                    "velocity": 0.44881889763779526,
                    "duration": 0.10869574999998122
                },
                {
                    "name": "C4",
                    "midi": 60,
                    "time": 261.5219745000031,
                    "velocity": 0.44881889763779526,
                    "duration": 0.08152181250000012
                },
                {
                    "name": "D#4",
                    "midi": 63,
                    "time": 261.5219745000031,
                    "velocity": 0.5433070866141733,
                    "duration": 0.08152181250000012
                },
                {
                    "name": "C#4",
                    "midi": 61,
                    "time": 261.6306702500031,
                    "velocity": 0.5118110236220472,
                    "duration": 0.08152181250000012
                },
                {
                    "name": "A#3",
                    "midi": 58,
                    "time": 261.6306702500031,
                    "velocity": 0.4330708661417323,
                    "duration": 0.08152181250000012
                },
                {
                    "name": "C4",
                    "midi": 60,
                    "time": 261.7393660000031,
                    "velocity": 0.5511811023622047,
                    "duration": 0.08152181250000012
                },
                {
                    "name": "G#3",
                    "midi": 56,
                    "time": 261.7393660000031,
                    "velocity": 0.4566929133858268,
                    "duration": 0.08152181250000012
                },
                {
                    "name": "G#3",
                    "midi": 56,
                    "time": 261.9567575000031,
                    "velocity": 0.4645669291338583,
                    "duration": 0.08152181250000012
                },
                {
                    "name": "C4",
                    "midi": 60,
                    "time": 261.9567575000031,
                    "velocity": 0.5590551181102362,
                    "duration": 0.08152181250000012
                },
                {
                    "name": "G3",
                    "midi": 55,
                    "time": 262.1741490000031,
                    "velocity": 0.4645669291338583,
                    "duration": 0.21739150000001928
                },
                {
                    "name": "D4",
                    "midi": 62,
                    "time": 262.1741490000031,
                    "velocity": 0.5590551181102362,
                    "duration": 0.21739150000001928
                },
                {
                    "name": "G4",
                    "midi": 67,
                    "time": 262.93501925000317,
                    "velocity": 0.5039370078740157,
                    "duration": 0.10778995208335118
                },
                {
                    "name": "B4",
                    "midi": 71,
                    "time": 262.93501925000317,
                    "velocity": 0.5984251968503937,
                    "duration": 0.10778995208335118
                },
                {
                    "name": "G4",
                    "midi": 67,
                    "time": 263.0437150000032,
                    "velocity": 0.5590551181102362,
                    "duration": 0.3260872500000005
                },
                {
                    "name": "B4",
                    "midi": 71,
                    "time": 263.0437150000032,
                    "velocity": 0.6614173228346457,
                    "duration": 0.3260872500000005
                },
                {
                    "name": "B3",
                    "midi": 59,
                    "time": 263.3698022500032,
                    "velocity": 0.5354330708661418,
                    "duration": 0.10778995208335118
                },
                {
                    "name": "G3",
                    "midi": 55,
                    "time": 263.3698022500032,
                    "velocity": 0.44881889763779526,
                    "duration": 0.10778995208335118
                },
                {
                    "name": "G3",
                    "midi": 55,
                    "time": 263.47849800000324,
                    "velocity": 0.49606299212598426,
                    "duration": 0.3260872500000005
                },
                {
                    "name": "B3",
                    "midi": 59,
                    "time": 263.47849800000324,
                    "velocity": 0.5905511811023622,
                    "duration": 0.3260872500000005
                },
                {
                    "name": "G2",
                    "midi": 43,
                    "time": 263.80458525000324,
                    "velocity": 0.4015748031496063,
                    "duration": 0.10778995208335118
                },
                {
                    "name": "B2",
                    "midi": 47,
                    "time": 263.80458525000324,
                    "velocity": 0.47244094488188976,
                    "duration": 0.10778995208335118
                },
                {
                    "name": "G2",
                    "midi": 43,
                    "time": 263.9132810000033,
                    "velocity": 0.4409448818897638,
                    "duration": 0.21739150000001928
                },
                {
                    "name": "B2",
                    "midi": 47,
                    "time": 263.9132810000033,
                    "velocity": 0.5275590551181102,
                    "duration": 0.21739150000001928
                },
                {
                    "name": "D#6",
                    "midi": 87,
                    "time": 264.5654555000033,
                    "velocity": 0.41732283464566927,
                    "duration": 0.10869574999998122
                },
                {
                    "name": "D6",
                    "midi": 86,
                    "time": 264.67415125000326,
                    "velocity": 0.3700787401574803,
                    "duration": 0.10869574999998122
                },
                {
                    "name": "D#5",
                    "midi": 75,
                    "time": 265.00023850000326,
                    "velocity": 0.41732283464566927,
                    "duration": 0.10869574999998122
                },
                {
                    "name": "D5",
                    "midi": 74,
                    "time": 265.10893425000324,
                    "velocity": 0.3700787401574803,
                    "duration": 0.10869574999998122
                },
                {
                    "name": "D#4",
                    "midi": 63,
                    "time": 265.43502150000324,
                    "velocity": 0.41732283464566927,
                    "duration": 0.10869574999998122
                },
                {
                    "name": "D4",
                    "midi": 62,
                    "time": 265.5437172500032,
                    "velocity": 0.3700787401574803,
                    "duration": 0.10869574999998122
                },
                {
                    "name": "D#5",
                    "midi": 75,
                    "time": 265.8698045000032,
                    "velocity": 0.41732283464566927,
                    "duration": 0.10869574999998122
                },
                {
                    "name": "D5",
                    "midi": 74,
                    "time": 265.9785002500032,
                    "velocity": 0.3700787401574803,
                    "duration": 0.10869574999998122
                },
                {
                    "name": "C4",
                    "midi": 60,
                    "time": 266.0871960000032,
                    "velocity": 0.5905511811023622,
                    "duration": 0.3260872500000005
                },
                {
                    "name": "D#5",
                    "midi": 75,
                    "time": 266.4132832500032,
                    "velocity": 0.5984251968503937,
                    "duration": 0.10778995208335118
                },
                {
                    "name": "C5",
                    "midi": 72,
                    "time": 266.4132832500032,
                    "velocity": 0.5039370078740157,
                    "duration": 0.10778995208335118
                },
                {
                    "name": "C5",
                    "midi": 72,
                    "time": 266.5219790000032,
                    "velocity": 0.5590551181102362,
                    "duration": 0.3260872500000005
                },
                {
                    "name": "D#5",
                    "midi": 75,
                    "time": 266.5219790000032,
                    "velocity": 0.6614173228346457,
                    "duration": 0.3260872500000005
                },
                {
                    "name": "C4",
                    "midi": 60,
                    "time": 266.8480662500032,
                    "velocity": 0.44881889763779526,
                    "duration": 0.10778995208335118
                },
                {
                    "name": "D#4",
                    "midi": 63,
                    "time": 266.8480662500032,
                    "velocity": 0.5354330708661418,
                    "duration": 0.10778995208335118
                },
                {
                    "name": "C4",
                    "midi": 60,
                    "time": 266.95676200000327,
                    "velocity": 0.49606299212598426,
                    "duration": 0.3260872500000005
                },
                {
                    "name": "D#4",
                    "midi": 63,
                    "time": 266.95676200000327,
                    "velocity": 0.5905511811023622,
                    "duration": 0.3260872500000005
                },
                {
                    "name": "C3",
                    "midi": 48,
                    "time": 267.28284925000327,
                    "velocity": 0.4015748031496063,
                    "duration": 0.10778995208335118
                },
                {
                    "name": "D#3",
                    "midi": 51,
                    "time": 267.28284925000327,
                    "velocity": 0.47244094488188976,
                    "duration": 0.10778995208335118
                },
                {
                    "name": "D#3",
                    "midi": 51,
                    "time": 267.3915450000033,
                    "velocity": 0.5275590551181102,
                    "duration": 0.21739150000001928
                },
                {
                    "name": "C3",
                    "midi": 48,
                    "time": 267.3915450000033,
                    "velocity": 0.4409448818897638,
                    "duration": 0.21739150000001928
                },
                {
                    "name": "F6",
                    "midi": 89,
                    "time": 268.0437195000033,
                    "velocity": 0.41732283464566927,
                    "duration": 0.10869574999998122
                },
                {
                    "name": "D#6",
                    "midi": 87,
                    "time": 268.1524152500033,
                    "velocity": 0.3700787401574803,
                    "duration": 0.10869574999998122
                },
                {
                    "name": "F5",
                    "midi": 77,
                    "time": 268.4785025000033,
                    "velocity": 0.41732283464566927,
                    "duration": 0.10869574999998122
                },
                {
                    "name": "D#5",
                    "midi": 75,
                    "time": 268.58719825000327,
                    "velocity": 0.3700787401574803,
                    "duration": 0.10869574999998122
                },
                {
                    "name": "F4",
                    "midi": 65,
                    "time": 268.91328550000327,
                    "velocity": 0.41732283464566927,
                    "duration": 0.10869574999998122
                },
                {
                    "name": "D#4",
                    "midi": 63,
                    "time": 269.02198125000325,
                    "velocity": 0.3700787401574803,
                    "duration": 0.10869574999998122
                },
                {
                    "name": "F5",
                    "midi": 77,
                    "time": 269.34806850000325,
                    "velocity": 0.41732283464566927,
                    "duration": 0.10869574999998122
                },
                {
                    "name": "D#5",
                    "midi": 75,
                    "time": 269.45676425000323,
                    "velocity": 0.3700787401574803,
                    "duration": 0.10869574999998122
                },
                {
                    "name": "A#3",
                    "midi": 58,
                    "time": 269.5654600000032,
                    "velocity": 0.5905511811023622,
                    "duration": 0.3260872500000005
                },
                {
                    "name": "D5",
                    "midi": 74,
                    "time": 269.8915472500032,
                    "velocity": 0.5984251968503937,
                    "duration": 0.10778995208335118
                },
                {
                    "name": "A#4",
                    "midi": 70,
                    "time": 269.8915472500032,
                    "velocity": 0.5039370078740157,
                    "duration": 0.10778995208335118
                },
                {
                    "name": "D5",
                    "midi": 74,
                    "time": 270.00024300000325,
                    "velocity": 0.6614173228346457,
                    "duration": 0.3260872500000005
                },
                {
                    "name": "A#4",
                    "midi": 70,
                    "time": 270.00024300000325,
                    "velocity": 0.5590551181102362,
                    "duration": 0.3260872500000005
                },
                {
                    "name": "D4",
                    "midi": 62,
                    "time": 270.32633025000325,
                    "velocity": 0.5354330708661418,
                    "duration": 0.10778995208335118
                },
                {
                    "name": "A#3",
                    "midi": 58,
                    "time": 270.32633025000325,
                    "velocity": 0.44881889763779526,
                    "duration": 0.10778995208335118
                },
                {
                    "name": "A#3",
                    "midi": 58,
                    "time": 270.4350260000033,
                    "velocity": 0.49606299212598426,
                    "duration": 0.3260872500000005
                },
                {
                    "name": "D4",
                    "midi": 62,
                    "time": 270.4350260000033,
                    "velocity": 0.5905511811023622,
                    "duration": 0.3260872500000005
                },
                {
                    "name": "A#2",
                    "midi": 46,
                    "time": 270.7611132500033,
                    "velocity": 0.4015748031496063,
                    "duration": 0.10778995208335118
                },
                {
                    "name": "D3",
                    "midi": 50,
                    "time": 270.7611132500033,
                    "velocity": 0.47244094488188976,
                    "duration": 0.10778995208335118
                },
                {
                    "name": "A#2",
                    "midi": 46,
                    "time": 270.86980900000333,
                    "velocity": 0.4409448818897638,
                    "duration": 0.21739150000001928
                },
                {
                    "name": "D3",
                    "midi": 50,
                    "time": 270.86980900000333,
                    "velocity": 0.5275590551181102,
                    "duration": 0.21739150000001928
                },
                {
                    "name": "G6",
                    "midi": 91,
                    "time": 271.52198350000333,
                    "velocity": 0.47244094488188976,
                    "duration": 0.10869574999998122
                },
                {
                    "name": "F6",
                    "midi": 89,
                    "time": 271.6306792500033,
                    "velocity": 0.4251968503937008,
                    "duration": 0.10869574999998122
                },
                {
                    "name": "G5",
                    "midi": 79,
                    "time": 271.9567665000033,
                    "velocity": 0.5196850393700787,
                    "duration": 0.10869574999998122
                },
                {
                    "name": "F5",
                    "midi": 77,
                    "time": 272.0654622500033,
                    "velocity": 0.4645669291338583,
                    "duration": 0.10869574999998122
                },
                {
                    "name": "G4",
                    "midi": 67,
                    "time": 272.3915495000033,
                    "velocity": 0.5590551181102362,
                    "duration": 0.10869574999998122
                },
                {
                    "name": "F4",
                    "midi": 65,
                    "time": 272.5002452500033,
                    "velocity": 0.5039370078740157,
                    "duration": 0.10869574999998122
                },
                {
                    "name": "G5",
                    "midi": 79,
                    "time": 272.8263325000033,
                    "velocity": 0.5984251968503937,
                    "duration": 0.10869574999998122
                },
                {
                    "name": "F5",
                    "midi": 77,
                    "time": 272.93502825000326,
                    "velocity": 0.5433070866141733,
                    "duration": 0.10869574999998122
                },
                {
                    "name": "D#4",
                    "midi": 63,
                    "time": 273.04372400000324,
                    "velocity": 0.5905511811023622,
                    "duration": 0.3260872500000005
                },
                {
                    "name": "D#5",
                    "midi": 75,
                    "time": 273.04372400000324,
                    "velocity": 0.5905511811023622,
                    "duration": 0.3260872500000005
                },
                {
                    "name": "G5",
                    "midi": 79,
                    "time": 273.36981125000324,
                    "velocity": 0.5984251968503937,
                    "duration": 0.10778995208335118
                },
                {
                    "name": "D#5",
                    "midi": 75,
                    "time": 273.36981125000324,
                    "velocity": 0.5039370078740157,
                    "duration": 0.10778995208335118
                },
                {
                    "name": "D#5",
                    "midi": 75,
                    "time": 273.4785070000033,
                    "velocity": 0.5590551181102362,
                    "duration": 0.3260872500000005
                },
                {
                    "name": "G5",
                    "midi": 79,
                    "time": 273.4785070000033,
                    "velocity": 0.6614173228346457,
                    "duration": 0.3260872500000005
                },
                {
                    "name": "G4",
                    "midi": 67,
                    "time": 273.8045942500033,
                    "velocity": 0.5354330708661418,
                    "duration": 0.10778995208335118
                },
                {
                    "name": "D#4",
                    "midi": 63,
                    "time": 273.8045942500033,
                    "velocity": 0.44881889763779526,
                    "duration": 0.10778995208335118
                },
                {
                    "name": "D#4",
                    "midi": 63,
                    "time": 273.9132900000033,
                    "velocity": 0.49606299212598426,
                    "duration": 0.3260872500000005
                },
                {
                    "name": "G4",
                    "midi": 67,
                    "time": 273.9132900000033,
                    "velocity": 0.5905511811023622,
                    "duration": 0.3260872500000005
                },
                {
                    "name": "D#3",
                    "midi": 51,
                    "time": 274.2393772500033,
                    "velocity": 0.4566929133858268,
                    "duration": 0.10778995208335118
                },
                {
                    "name": "D#4",
                    "midi": 63,
                    "time": 274.2393772500033,
                    "velocity": 0.5433070866141733,
                    "duration": 0.10778995208335118
                },
                {
                    "name": "D#4",
                    "midi": 63,
                    "time": 274.34807300000335,
                    "velocity": 0.6062992125984252,
                    "duration": 0.21739150000001928
                },
                {
                    "name": "D#3",
                    "midi": 51,
                    "time": 274.34807300000335,
                    "velocity": 0.5039370078740157,
                    "duration": 0.21739150000001928
                },
                {
                    "name": "D5",
                    "midi": 74,
                    "time": 275.1089432500034,
                    "velocity": 0.6220472440944882,
                    "duration": 0.10778995208335118
                },
                {
                    "name": "D4",
                    "midi": 62,
                    "time": 275.1089432500034,
                    "velocity": 0.5275590551181102,
                    "duration": 0.10778995208335118
                },
                {
                    "name": "D5",
                    "midi": 74,
                    "time": 275.21763900000343,
                    "velocity": 0.6929133858267716,
                    "duration": 0.3260872500000005
                },
                {
                    "name": "D4",
                    "midi": 62,
                    "time": 275.21763900000343,
                    "velocity": 0.5826771653543307,
                    "duration": 0.3260872500000005
                },
                {
                    "name": "D3",
                    "midi": 50,
                    "time": 275.54372625000343,
                    "velocity": 0.4645669291338583,
                    "duration": 0.10778995208335118
                },
                {
                    "name": "D4",
                    "midi": 62,
                    "time": 275.54372625000343,
                    "velocity": 0.5590551181102362,
                    "duration": 0.10778995208335118
                },
                {
                    "name": "D4",
                    "midi": 62,
                    "time": 275.65242200000347,
                    "velocity": 0.6141732283464567,
                    "duration": 0.3260872500000005
                },
                {
                    "name": "D3",
                    "midi": 50,
                    "time": 275.65242200000347,
                    "velocity": 0.5196850393700787,
                    "duration": 0.3260872500000005
                },
                {
                    "name": "D3",
                    "midi": 50,
                    "time": 275.97850925000347,
                    "velocity": 0.5669291338582677,
                    "duration": 0.10778995208335118
                },
                {
                    "name": "D2",
                    "midi": 38,
                    "time": 275.97850925000347,
                    "velocity": 0.47244094488188976,
                    "duration": 0.10778995208335118
                },
                {
                    "name": "D3",
                    "midi": 50,
                    "time": 276.0872050000035,
                    "velocity": 0.6299212598425197,
                    "duration": 0.21739150000001928
                },
                {
                    "name": "D2",
                    "midi": 38,
                    "time": 276.0872050000035,
                    "velocity": 0.5275590551181102,
                    "duration": 0.21739150000001928
                },
                {
                    "name": "D4",
                    "midi": 62,
                    "time": 276.84807525000355,
                    "velocity": 0.4645669291338583,
                    "duration": 0.10778995208335118
                },
                {
                    "name": "F4",
                    "midi": 65,
                    "time": 276.84807525000355,
                    "velocity": 0.4645669291338583,
                    "duration": 0.10778995208335118
                },
                {
                    "name": "G#4",
                    "midi": 68,
                    "time": 276.84807525000355,
                    "velocity": 0.4645669291338583,
                    "duration": 0.10778995208335118
                },
                {
                    "name": "D5",
                    "midi": 74,
                    "time": 276.84807525000355,
                    "velocity": 0.5590551181102362,
                    "duration": 0.10778995208335118
                },
                {
                    "name": "B4",
                    "midi": 71,
                    "time": 276.84807525000355,
                    "velocity": 0.4645669291338583,
                    "duration": 0.10778995208335118
                },
                {
                    "name": "G#4",
                    "midi": 68,
                    "time": 276.9567710000036,
                    "velocity": 0.5196850393700787,
                    "duration": 0.3260872500000005
                },
                {
                    "name": "B4",
                    "midi": 71,
                    "time": 276.9567710000036,
                    "velocity": 0.5196850393700787,
                    "duration": 0.3260872500000005
                },
                {
                    "name": "D4",
                    "midi": 62,
                    "time": 276.9567710000036,
                    "velocity": 0.5196850393700787,
                    "duration": 0.3260872500000005
                },
                {
                    "name": "D5",
                    "midi": 74,
                    "time": 276.9567710000036,
                    "velocity": 0.6141732283464567,
                    "duration": 0.3260872500000005
                },
                {
                    "name": "F4",
                    "midi": 65,
                    "time": 276.9567710000036,
                    "velocity": 0.5196850393700787,
                    "duration": 0.3260872500000005
                },
                {
                    "name": "G#3",
                    "midi": 56,
                    "time": 277.2828582500036,
                    "velocity": 0.41732283464566927,
                    "duration": 0.10778995208335118
                },
                {
                    "name": "F3",
                    "midi": 53,
                    "time": 277.2828582500036,
                    "velocity": 0.41732283464566927,
                    "duration": 0.10778995208335118
                },
                {
                    "name": "D3",
                    "midi": 50,
                    "time": 277.2828582500036,
                    "velocity": 0.41732283464566927,
                    "duration": 0.10778995208335118
                },
                {
                    "name": "B3",
                    "midi": 59,
                    "time": 277.2828582500036,
                    "velocity": 0.41732283464566927,
                    "duration": 0.10778995208335118
                },
                {
                    "name": "D4",
                    "midi": 62,
                    "time": 277.2828582500036,
                    "velocity": 0.5039370078740157,
                    "duration": 0.10778995208335118
                },
                {
                    "name": "D4",
                    "midi": 62,
                    "time": 277.3915540000036,
                    "velocity": 0.6141732283464567,
                    "duration": 0.3260872500000005
                },
                {
                    "name": "D3",
                    "midi": 50,
                    "time": 277.3915540000036,
                    "velocity": 0.5196850393700787,
                    "duration": 0.3260872500000005
                },
                {
                    "name": "B3",
                    "midi": 59,
                    "time": 277.3915540000036,
                    "velocity": 0.5196850393700787,
                    "duration": 0.3260872500000005
                },
                {
                    "name": "G#3",
                    "midi": 56,
                    "time": 277.3915540000036,
                    "velocity": 0.5196850393700787,
                    "duration": 0.3260872500000005
                },
                {
                    "name": "F3",
                    "midi": 53,
                    "time": 277.3915540000036,
                    "velocity": 0.5196850393700787,
                    "duration": 0.3260872500000005
                },
                {
                    "name": "G#2",
                    "midi": 44,
                    "time": 277.7176412500036,
                    "velocity": 0.41732283464566927,
                    "duration": 0.10778995208335118
                },
                {
                    "name": "D2",
                    "midi": 38,
                    "time": 277.7176412500036,
                    "velocity": 0.41732283464566927,
                    "duration": 0.10778995208335118
                },
                {
                    "name": "F2",
                    "midi": 41,
                    "time": 277.7176412500036,
                    "velocity": 0.41732283464566927,
                    "duration": 0.10778995208335118
                },
                {
                    "name": "B2",
                    "midi": 47,
                    "time": 277.7176412500036,
                    "velocity": 0.41732283464566927,
                    "duration": 0.10778995208335118
                },
                {
                    "name": "D3",
                    "midi": 50,
                    "time": 277.7176412500036,
                    "velocity": 0.5039370078740157,
                    "duration": 0.10778995208335118
                },
                {
                    "name": "B2",
                    "midi": 47,
                    "time": 277.82633700000366,
                    "velocity": 0.5196850393700787,
                    "duration": 0.3260872500000005
                },
                {
                    "name": "D3",
                    "midi": 50,
                    "time": 277.82633700000366,
                    "velocity": 0.6141732283464567,
                    "duration": 0.3260872500000005
                },
                {
                    "name": "D2",
                    "midi": 38,
                    "time": 277.82633700000366,
                    "velocity": 0.5196850393700787,
                    "duration": 0.3260872500000005
                },
                {
                    "name": "F2",
                    "midi": 41,
                    "time": 277.82633700000366,
                    "velocity": 0.5196850393700787,
                    "duration": 0.3260872500000005
                },
                {
                    "name": "G#2",
                    "midi": 44,
                    "time": 277.82633700000366,
                    "velocity": 0.5196850393700787,
                    "duration": 0.3260872500000005
                },
                {
                    "name": "G4",
                    "midi": 67,
                    "time": 278.58720725000364,
                    "velocity": 0.4645669291338583,
                    "duration": 0.10778995208335118
                },
                {
                    "name": "D4",
                    "midi": 62,
                    "time": 278.58720725000364,
                    "velocity": 0.4645669291338583,
                    "duration": 0.10778995208335118
                },
                {
                    "name": "A#4",
                    "midi": 70,
                    "time": 278.58720725000364,
                    "velocity": 0.4645669291338583,
                    "duration": 0.10778995208335118
                },
                {
                    "name": "E5",
                    "midi": 76,
                    "time": 278.58720725000364,
                    "velocity": 0.5590551181102362,
                    "duration": 0.10778995208335118
                },
                {
                    "name": "E5",
                    "midi": 76,
                    "time": 278.6959030000037,
                    "velocity": 0.6141732283464567,
                    "duration": 0.3260872500000005
                },
                {
                    "name": "D4",
                    "midi": 62,
                    "time": 278.6959030000037,
                    "velocity": 0.5196850393700787,
                    "duration": 0.3260872500000005
                },
                {
                    "name": "A#4",
                    "midi": 70,
                    "time": 278.6959030000037,
                    "velocity": 0.5196850393700787,
                    "duration": 0.3260872500000005
                },
                {
                    "name": "G4",
                    "midi": 67,
                    "time": 278.6959030000037,
                    "velocity": 0.5196850393700787,
                    "duration": 0.3260872500000005
                },
                {
                    "name": "A#3",
                    "midi": 58,
                    "time": 279.0219902500037,
                    "velocity": 0.41732283464566927,
                    "duration": 0.10778995208335118
                },
                {
                    "name": "D3",
                    "midi": 50,
                    "time": 279.0219902500037,
                    "velocity": 0.41732283464566927,
                    "duration": 0.10778995208335118
                },
                {
                    "name": "E4",
                    "midi": 64,
                    "time": 279.0219902500037,
                    "velocity": 0.5039370078740157,
                    "duration": 0.10778995208335118
                },
                {
                    "name": "G3",
                    "midi": 55,
                    "time": 279.0219902500037,
                    "velocity": 0.41732283464566927,
                    "duration": 0.10778995208335118
                },
                {
                    "name": "A#3",
                    "midi": 58,
                    "time": 279.1306860000037,
                    "velocity": 0.5196850393700787,
                    "duration": 0.3260872500000005
                },
                {
                    "name": "D3",
                    "midi": 50,
                    "time": 279.1306860000037,
                    "velocity": 0.5196850393700787,
                    "duration": 0.3260872500000005
                },
                {
                    "name": "E4",
                    "midi": 64,
                    "time": 279.1306860000037,
                    "velocity": 0.6141732283464567,
                    "duration": 0.3260872500000005
                },
                {
                    "name": "G3",
                    "midi": 55,
                    "time": 279.1306860000037,
                    "velocity": 0.5196850393700787,
                    "duration": 0.3260872500000005
                },
                {
                    "name": "A#2",
                    "midi": 46,
                    "time": 279.4567732500037,
                    "velocity": 0.41732283464566927,
                    "duration": 0.10778995208335118
                },
                {
                    "name": "G2",
                    "midi": 43,
                    "time": 279.4567732500037,
                    "velocity": 0.41732283464566927,
                    "duration": 0.10778995208335118
                },
                {
                    "name": "E3",
                    "midi": 52,
                    "time": 279.4567732500037,
                    "velocity": 0.5039370078740157,
                    "duration": 0.10778995208335118
                },
                {
                    "name": "D2",
                    "midi": 38,
                    "time": 279.4567732500037,
                    "velocity": 0.41732283464566927,
                    "duration": 0.10778995208335118
                },
                {
                    "name": "G2",
                    "midi": 43,
                    "time": 279.56546900000376,
                    "velocity": 0.5196850393700787,
                    "duration": 0.3260872500000005
                },
                {
                    "name": "D2",
                    "midi": 38,
                    "time": 279.56546900000376,
                    "velocity": 0.5196850393700787,
                    "duration": 0.3260872500000005
                },
                {
                    "name": "E3",
                    "midi": 52,
                    "time": 279.56546900000376,
                    "velocity": 0.6141732283464567,
                    "duration": 0.3260872500000005
                },
                {
                    "name": "A#2",
                    "midi": 46,
                    "time": 279.56546900000376,
                    "velocity": 0.5196850393700787,
                    "duration": 0.3260872500000005
                },
                {
                    "name": "D5",
                    "midi": 74,
                    "time": 280.32633925000374,
                    "velocity": 0.5275590551181102,
                    "duration": 0.10778995208335118
                },
                {
                    "name": "D4",
                    "midi": 62,
                    "time": 280.32633925000374,
                    "velocity": 0.4409448818897638,
                    "duration": 0.10778995208335118
                },
                {
                    "name": "F#4",
                    "midi": 66,
                    "time": 280.32633925000374,
                    "velocity": 0.4409448818897638,
                    "duration": 0.10778995208335118
                },
                {
                    "name": "A4",
                    "midi": 69,
                    "time": 280.32633925000374,
                    "velocity": 0.4409448818897638,
                    "duration": 0.10778995208335118
                },
                {
                    "name": "D5",
                    "midi": 74,
                    "time": 280.4350350000038,
                    "velocity": 0.6377952755905512,
                    "duration": 0.3233698562499967
                },
                {
                    "name": "A4",
                    "midi": 69,
                    "time": 280.4350350000038,
                    "velocity": 0.5354330708661418,
                    "duration": 0.3233698562499967
                },
                {
                    "name": "F#4",
                    "midi": 66,
                    "time": 280.4350350000038,
                    "velocity": 0.5354330708661418,
                    "duration": 0.3233698562499967
                },
                {
                    "name": "D4",
                    "midi": 62,
                    "time": 280.4350350000038,
                    "velocity": 0.5354330708661418,
                    "duration": 0.3233698562499967
                },
                {
                    "name": "D3",
                    "midi": 50,
                    "time": 280.7611222500038,
                    "velocity": 0.4094488188976378,
                    "duration": 0.10778995208335118
                },
                {
                    "name": "D4",
                    "midi": 62,
                    "time": 280.7611222500038,
                    "velocity": 0.4881889763779528,
                    "duration": 0.10778995208335118
                },
                {
                    "name": "D4",
                    "midi": 62,
                    "time": 280.8698180000038,
                    "velocity": 0.5433070866141733,
                    "duration": 0.3260872500000005
                },
                {
                    "name": "D3",
                    "midi": 50,
                    "time": 280.8698180000038,
                    "velocity": 0.4566929133858268,
                    "duration": 0.3260872500000005
                },
                {
                    "name": "D3",
                    "midi": 50,
                    "time": 281.1959052500038,
                    "velocity": 0.44881889763779526,
                    "duration": 0.10778995208335118
                },
                {
                    "name": "D2",
                    "midi": 38,
                    "time": 281.1959052500038,
                    "velocity": 0.3700787401574803,
                    "duration": 0.10778995208335118
                },
                {
                    "name": "D2",
                    "midi": 38,
                    "time": 281.30460100000386,
                    "velocity": 0.4251968503937008,
                    "duration": 0.3260872500000005
                },
                {
                    "name": "D3",
                    "midi": 50,
                    "time": 281.30460100000386,
                    "velocity": 0.5039370078740157,
                    "duration": 0.3260872500000005
                },
                {
                    "name": "D3",
                    "midi": 50,
                    "time": 281.63068825000386,
                    "velocity": 0.4094488188976378,
                    "duration": 0.10869574999998122
                },
                {
                    "name": "D2",
                    "midi": 38,
                    "time": 281.73938400000384,
                    "velocity": 0.4645669291338583,
                    "duration": 0.3260872500000005
                },
                {
                    "name": "D4",
                    "midi": 62,
                    "time": 282.06547125000384,
                    "velocity": 0.3700787401574803,
                    "duration": 0.10869574999998122
                },
                {
                    "name": "D3",
                    "midi": 50,
                    "time": 282.1741670000038,
                    "velocity": 0.41732283464566927,
                    "duration": 0.3260872500000005
                },
                {
                    "name": "D4",
                    "midi": 62,
                    "time": 282.5002542500038,
                    "velocity": 0.33070866141732286,
                    "duration": 0.10869574999998122
                },
                {
                    "name": "D3",
                    "midi": 50,
                    "time": 282.6089500000038,
                    "velocity": 0.36220472440944884,
                    "duration": 0.3260872500000005
                },
                {
                    "name": "D4",
                    "midi": 62,
                    "time": 282.9350372500038,
                    "velocity": 0.29133858267716534,
                    "duration": 0.10869574999998122
                },
                {
                    "name": "D3",
                    "midi": 50,
                    "time": 283.0437330000038,
                    "velocity": 0.33070866141732286,
                    "duration": 0.3260872500000005
                },
                {
                    "name": "B4",
                    "midi": 71,
                    "time": 283.3698202500038,
                    "velocity": 0.25196850393700787,
                    "duration": 0.10869574999998122
                },
                {
                    "name": "B3",
                    "midi": 59,
                    "time": 283.47851600000376,
                    "velocity": 0.31496062992125984,
                    "duration": 0.14492766666666057
                },
                {
                    "name": "B4",
                    "midi": 71,
                    "time": 283.6234436666704,
                    "velocity": 0.25196850393700787,
                    "duration": 0.14492766666666057
                },
                {
                    "name": "A#4",
                    "midi": 70,
                    "time": 283.7683713333371,
                    "velocity": 0.25196850393700787,
                    "duration": 0.14492766666666057
                },
                {
                    "name": "B4",
                    "midi": 71,
                    "time": 283.91329900000375,
                    "velocity": 0.31496062992125984,
                    "duration": 0.14492766666666057
                },
                {
                    "name": "F#4",
                    "midi": 66,
                    "time": 284.0582266666704,
                    "velocity": 0.25984251968503935,
                    "duration": 0.14492766666666057
                },
                {
                    "name": "B4",
                    "midi": 71,
                    "time": 284.20315433333707,
                    "velocity": 0.25984251968503935,
                    "duration": 0.14492766666666057
                },
                {
                    "name": "G4",
                    "midi": 67,
                    "time": 284.3480820000037,
                    "velocity": 0.31496062992125984,
                    "duration": 0.14492766666666057
                },
                {
                    "name": "B4",
                    "midi": 71,
                    "time": 284.4930096666704,
                    "velocity": 0.2440944881889764,
                    "duration": 0.14492766666666057
                },
                {
                    "name": "G4",
                    "midi": 67,
                    "time": 284.63793733333705,
                    "velocity": 0.2440944881889764,
                    "duration": 0.14492766666666057
                },
                {
                    "name": "B4",
                    "midi": 71,
                    "time": 284.7828650000037,
                    "velocity": 0.31496062992125984,
                    "duration": 0.14492766666666057
                },
                {
                    "name": "E4",
                    "midi": 64,
                    "time": 284.92779266667037,
                    "velocity": 0.25984251968503935,
                    "duration": 0.14492766666666057
                },
                {
                    "name": "B4",
                    "midi": 71,
                    "time": 285.07272033333703,
                    "velocity": 0.25984251968503935,
                    "duration": 0.14492766666666057
                },
                {
                    "name": "D#4",
                    "midi": 63,
                    "time": 285.2176480000037,
                    "velocity": 0.31496062992125984,
                    "duration": 0.14492766666666057
                },
                {
                    "name": "B4",
                    "midi": 71,
                    "time": 285.36257566667035,
                    "velocity": 0.2440944881889764,
                    "duration": 0.14492766666666057
                },
                {
                    "name": "D#4",
                    "midi": 63,
                    "time": 285.507503333337,
                    "velocity": 0.2440944881889764,
                    "duration": 0.14492766666666057
                },
                {
                    "name": "B4",
                    "midi": 71,
                    "time": 285.6524310000037,
                    "velocity": 0.31496062992125984,
                    "duration": 0.14492766666666057
                },
                {
                    "name": "B3",
                    "midi": 59,
                    "time": 285.79735866667033,
                    "velocity": 0.25196850393700787,
                    "duration": 0.14492766666666057
                },
                {
                    "name": "B4",
                    "midi": 71,
                    "time": 285.942286333337,
                    "velocity": 0.25196850393700787,
                    "duration": 0.14492766666666057
                },
                {
                    "name": "B3",
                    "midi": 59,
                    "time": 286.08721400000366,
                    "velocity": 0.31496062992125984,
                    "duration": 0.14492766666666057
                },
                {
                    "name": "E4",
                    "midi": 64,
                    "time": 286.2321416666703,
                    "velocity": 0.25984251968503935,
                    "duration": 0.14492766666666057
                },
                {
                    "name": "B3",
                    "midi": 59,
                    "time": 286.377069333337,
                    "velocity": 0.25984251968503935,
                    "duration": 0.14492766666666057
                },
                {
                    "name": "G4",
                    "midi": 67,
                    "time": 286.52199700000364,
                    "velocity": 0.31496062992125984,
                    "duration": 0.14492766666666057
                },
                {
                    "name": "E4",
                    "midi": 64,
                    "time": 286.6669246666703,
                    "velocity": 0.25196850393700787,
                    "duration": 0.14492766666666057
                },
                {
                    "name": "G4",
                    "midi": 67,
                    "time": 286.81185233333696,
                    "velocity": 0.25196850393700787,
                    "duration": 0.14492766666666057
                },
                {
                    "name": "F#4",
                    "midi": 66,
                    "time": 286.9567800000036,
                    "velocity": 0.31496062992125984,
                    "duration": 0.14492766666666057
                },
                {
                    "name": "B4",
                    "midi": 71,
                    "time": 287.1017076666703,
                    "velocity": 0.25196850393700787,
                    "duration": 0.14492766666666057
                },
                {
                    "name": "F#4",
                    "midi": 66,
                    "time": 287.24663533333694,
                    "velocity": 0.25196850393700787,
                    "duration": 0.14492766666666057
                },
                {
                    "name": "B4",
                    "midi": 71,
                    "time": 287.3915630000036,
                    "velocity": 0.31496062992125984,
                    "duration": 0.14492766666666057
                },
                {
                    "name": "F#4",
                    "midi": 66,
                    "time": 287.53649066667026,
                    "velocity": 0.28346456692913385,
                    "duration": 0.14492766666666057
                },
                {
                    "name": "B4",
                    "midi": 71,
                    "time": 287.6814183333369,
                    "velocity": 0.28346456692913385,
                    "duration": 0.14492766666666057
                },
                {
                    "name": "F#4",
                    "midi": 66,
                    "time": 287.8263460000036,
                    "velocity": 0.31496062992125984,
                    "duration": 0.14492766666666057
                },
                {
                    "name": "A#4",
                    "midi": 70,
                    "time": 287.97127366667024,
                    "velocity": 0.25984251968503935,
                    "duration": 0.14492766666666057
                },
                {
                    "name": "F#4",
                    "midi": 66,
                    "time": 288.1162013333369,
                    "velocity": 0.25984251968503935,
                    "duration": 0.14492766666666057
                },
                {
                    "name": "A#4",
                    "midi": 70,
                    "time": 288.26112900000356,
                    "velocity": 0.31496062992125984,
                    "duration": 0.14492766666666057
                },
                {
                    "name": "F#4",
                    "midi": 66,
                    "time": 288.4060566666702,
                    "velocity": 0.2677165354330709,
                    "duration": 0.14492766666666057
                },
                {
                    "name": "A#4",
                    "midi": 70,
                    "time": 288.5509843333369,
                    "velocity": 0.2677165354330709,
                    "duration": 0.14492766666666057
                },
                {
                    "name": "F#4",
                    "midi": 66,
                    "time": 288.69591200000355,
                    "velocity": 0.31496062992125984,
                    "duration": 0.14492766666666057
                },
                {
                    "name": "B4",
                    "midi": 71,
                    "time": 288.8408396666702,
                    "velocity": 0.25196850393700787,
                    "duration": 0.14492766666666057
                },
                {
                    "name": "F#4",
                    "midi": 66,
                    "time": 288.98576733333687,
                    "velocity": 0.25196850393700787,
                    "duration": 0.14492766666666057
                },
                {
                    "name": "B4",
                    "midi": 71,
                    "time": 289.1306950000035,
                    "velocity": 0.31496062992125984,
                    "duration": 0.14492766666666057
                },
                {
                    "name": "F#4",
                    "midi": 66,
                    "time": 289.2756226666702,
                    "velocity": 0.28346456692913385,
                    "duration": 0.14492766666666057
                },
                {
                    "name": "B4",
                    "midi": 71,
                    "time": 289.42055033333685,
                    "velocity": 0.28346456692913385,
                    "duration": 0.14492766666666057
                },
                {
                    "name": "A#4",
                    "midi": 70,
                    "time": 289.5654780000035,
                    "velocity": 0.31496062992125984,
                    "duration": 0.14492766666666057
                },
                {
                    "name": "C#5",
                    "midi": 73,
                    "time": 289.71040566667017,
                    "velocity": 0.25984251968503935,
                    "duration": 0.14492766666666057
                },
                {
                    "name": "A#4",
                    "midi": 70,
                    "time": 289.85533333333683,
                    "velocity": 0.25984251968503935,
                    "duration": 0.14492766666666057
                },
                {
                    "name": "C#5",
                    "midi": 73,
                    "time": 290.0002610000035,
                    "velocity": 0.31496062992125984,
                    "duration": 0.14492766666666057
                },
                {
                    "name": "A#4",
                    "midi": 70,
                    "time": 290.14518866667015,
                    "velocity": 0.2677165354330709,
                    "duration": 0.14492766666666057
                },
                {
                    "name": "C#5",
                    "midi": 73,
                    "time": 290.2901163333368,
                    "velocity": 0.2677165354330709,
                    "duration": 0.14492766666666057
                },
                {
                    "name": "F#4",
                    "midi": 66,
                    "time": 290.4350440000035,
                    "velocity": 0.31496062992125984,
                    "duration": 0.14492766666666057
                },
                {
                    "name": "B4",
                    "midi": 71,
                    "time": 290.57997166667013,
                    "velocity": 0.25196850393700787,
                    "duration": 0.14492766666666057
                },
                {
                    "name": "F#4",
                    "midi": 66,
                    "time": 290.7248993333368,
                    "velocity": 0.25196850393700787,
                    "duration": 0.14492766666666057
                },
                {
                    "name": "B4",
                    "midi": 71,
                    "time": 290.86982700000345,
                    "velocity": 0.31496062992125984,
                    "duration": 0.14492766666666057
                },
                {
                    "name": "F#4",
                    "midi": 66,
                    "time": 291.0147546666701,
                    "velocity": 0.28346456692913385,
                    "duration": 0.14492766666666057
                },
                {
                    "name": "B4",
                    "midi": 71,
                    "time": 291.1596823333368,
                    "velocity": 0.28346456692913385,
                    "duration": 0.14492766666666057
                },
                {
                    "name": "F#4",
                    "midi": 66,
                    "time": 291.30461000000344,
                    "velocity": 0.31496062992125984,
                    "duration": 0.14492766666666057
                },
                {
                    "name": "A#4",
                    "midi": 70,
                    "time": 291.4495376666701,
                    "velocity": 0.25984251968503935,
                    "duration": 0.14492766666666057
                },
                {
                    "name": "F#4",
                    "midi": 66,
                    "time": 291.59446533333676,
                    "velocity": 0.25984251968503935,
                    "duration": 0.14492766666666057
                },
                {
                    "name": "A#4",
                    "midi": 70,
                    "time": 291.7393930000034,
                    "velocity": 0.31496062992125984,
                    "duration": 0.14492766666666057
                },
                {
                    "name": "F#4",
                    "midi": 66,
                    "time": 291.8843206666701,
                    "velocity": 0.2677165354330709,
                    "duration": 0.14492766666666057
                },
                {
                    "name": "A#4",
                    "midi": 70,
                    "time": 292.02924833333674,
                    "velocity": 0.2677165354330709,
                    "duration": 0.14492766666666057
                },
                {
                    "name": "F#4",
                    "midi": 66,
                    "time": 292.1741760000034,
                    "velocity": 0.31496062992125984,
                    "duration": 0.14492766666666057
                },
                {
                    "name": "B4",
                    "midi": 71,
                    "time": 292.31910366667006,
                    "velocity": 0.25196850393700787,
                    "duration": 0.14492766666666057
                },
                {
                    "name": "F#4",
                    "midi": 66,
                    "time": 292.4640313333367,
                    "velocity": 0.25196850393700787,
                    "duration": 0.14492766666666057
                },
                {
                    "name": "B4",
                    "midi": 71,
                    "time": 292.6089590000034,
                    "velocity": 0.31496062992125984,
                    "duration": 0.14492766666666057
                },
                {
                    "name": "F#4",
                    "midi": 66,
                    "time": 292.75388666667004,
                    "velocity": 0.28346456692913385,
                    "duration": 0.14492766666666057
                },
                {
                    "name": "B4",
                    "midi": 71,
                    "time": 292.8988143333367,
                    "velocity": 0.28346456692913385,
                    "duration": 0.14492766666666057
                },
                {
                    "name": "A#4",
                    "midi": 70,
                    "time": 293.04374200000336,
                    "velocity": 0.31496062992125984,
                    "duration": 0.14492766666666057
                },
                {
                    "name": "C#5",
                    "midi": 73,
                    "time": 293.18866966667,
                    "velocity": 0.25984251968503935,
                    "duration": 0.14492766666666057
                },
                {
                    "name": "A#4",
                    "midi": 70,
                    "time": 293.3335973333367,
                    "velocity": 0.25984251968503935,
                    "duration": 0.14492766666666057
                },
                {
                    "name": "C#5",
                    "midi": 73,
                    "time": 293.47852500000334,
                    "velocity": 0.31496062992125984,
                    "duration": 0.14492766666666057
                },
                {
                    "name": "F#1",
                    "midi": 30,
                    "time": 293.80461225000334,
                    "velocity": 0.5511811023622047,
                    "duration": 0.10869574999998122
                },
                {
                    "name": "A#1",
                    "midi": 34,
                    "time": 293.9133080000033,
                    "velocity": 0.5354330708661418,
                    "duration": 0.3242756541666836
                },
                {
                    "name": "A#1",
                    "midi": 34,
                    "time": 294.2393952500033,
                    "velocity": 0.48031496062992124,
                    "duration": 0.1068841541666643
                },
                {
                    "name": "A#1",
                    "midi": 34,
                    "time": 294.3480910000033,
                    "velocity": 0.5354330708661418,
                    "duration": 0.16304362500000025
                },
                {
                    "name": "B1",
                    "midi": 35,
                    "time": 294.5654825000033,
                    "velocity": 0.5039370078740157,
                    "duration": 0.08152181250000012
                },
                {
                    "name": "F#3",
                    "midi": 54,
                    "time": 294.6741782500033,
                    "velocity": 0.49606299212598426,
                    "duration": 0.08152181250000012
                },
                {
                    "name": "A#1",
                    "midi": 34,
                    "time": 294.6741782500033,
                    "velocity": 0.48031496062992124,
                    "duration": 0.08152181250000012
                },
                {
                    "name": "A#1",
                    "midi": 34,
                    "time": 294.7828740000033,
                    "velocity": 0.48031496062992124,
                    "duration": 0.16304362500000025
                },
                {
                    "name": "A#3",
                    "midi": 58,
                    "time": 294.7828740000033,
                    "velocity": 0.48031496062992124,
                    "duration": 0.3242756541666836
                },
                {
                    "name": "F#1",
                    "midi": 30,
                    "time": 295.0002655000033,
                    "velocity": 0.48031496062992124,
                    "duration": 0.16304362500000025
                },
                {
                    "name": "A#3",
                    "midi": 58,
                    "time": 295.1089612500033,
                    "velocity": 0.4251968503937008,
                    "duration": 0.1068841541666643
                },
                {
                    "name": "A#3",
                    "midi": 58,
                    "time": 295.21765700000327,
                    "velocity": 0.48031496062992124,
                    "duration": 0.16304362500000025
                },
                {
                    "name": "B3",
                    "midi": 59,
                    "time": 295.4350485000033,
                    "velocity": 0.3779527559055118,
                    "duration": 0.04076090625000006
                },
                {
                    "name": "A#3",
                    "midi": 58,
                    "time": 295.5437442500033,
                    "velocity": 0.4015748031496063,
                    "duration": 0.08152181250000012
                },
                {
                    "name": "A#3",
                    "midi": 58,
                    "time": 295.65244000000325,
                    "velocity": 0.4015748031496063,
                    "duration": 0.10869574999998122
                },
                {
                    "name": "F#3",
                    "midi": 54,
                    "time": 295.8698315000032,
                    "velocity": 0.4015748031496063,
                    "duration": 0.10869574999998122
                },
                {
                    "name": "F#1",
                    "midi": 30,
                    "time": 297.2828762500032,
                    "velocity": 0.49606299212598426,
                    "duration": 0.10869574999998122
                },
                {
                    "name": "E2",
                    "midi": 40,
                    "time": 297.3915720000032,
                    "velocity": 0.48031496062992124,
                    "duration": 0.3242756541666836
                },
                {
                    "name": "F#2",
                    "midi": 42,
                    "time": 297.7176592500032,
                    "velocity": 0.49606299212598426,
                    "duration": 0.10869574999998122
                },
                {
                    "name": "E2",
                    "midi": 40,
                    "time": 297.7176592500032,
                    "velocity": 0.4251968503937008,
                    "duration": 0.1068841541666643
                },
                {
                    "name": "E3",
                    "midi": 52,
                    "time": 297.82635500000316,
                    "velocity": 0.48031496062992124,
                    "duration": 0.3260872500000005
                },
                {
                    "name": "E2",
                    "midi": 40,
                    "time": 297.82635500000316,
                    "velocity": 0.48031496062992124,
                    "duration": 0.16304362500000025
                },
                {
                    "name": "E3",
                    "midi": 52,
                    "time": 298.15244225000316,
                    "velocity": 0.4251968503937008,
                    "duration": 0.10869574999998122
                },
                {
                    "name": "E3",
                    "midi": 52,
                    "time": 298.26113800000314,
                    "velocity": 0.48031496062992124,
                    "duration": 0.16304362500000025
                },
                {
                    "name": "C#2",
                    "midi": 37,
                    "time": 299.0220082500031,
                    "velocity": 0.49606299212598426,
                    "duration": 0.10869574999998122
                },
                {
                    "name": "A#2",
                    "midi": 46,
                    "time": 299.1307040000031,
                    "velocity": 0.48031496062992124,
                    "duration": 0.3242756541666836
                },
                {
                    "name": "C#3",
                    "midi": 49,
                    "time": 299.4567912500031,
                    "velocity": 0.49606299212598426,
                    "duration": 0.10869574999998122
                },
                {
                    "name": "A#2",
                    "midi": 46,
                    "time": 299.4567912500031,
                    "velocity": 0.4251968503937008,
                    "duration": 0.1068841541666643
                },
                {
                    "name": "A#3",
                    "midi": 58,
                    "time": 299.5654870000031,
                    "velocity": 0.48031496062992124,
                    "duration": 0.3260872500000005
                },
                {
                    "name": "A#2",
                    "midi": 46,
                    "time": 299.5654870000031,
                    "velocity": 0.48031496062992124,
                    "duration": 0.16304362500000025
                },
                {
                    "name": "A#3",
                    "midi": 58,
                    "time": 299.8915742500031,
                    "velocity": 0.4251968503937008,
                    "duration": 0.1068841541666643
                },
                {
                    "name": "A#3",
                    "midi": 58,
                    "time": 300.00027000000307,
                    "velocity": 0.48031496062992124,
                    "duration": 0.16304362500000025
                },
                {
                    "name": "E2",
                    "midi": 40,
                    "time": 300.76114025000305,
                    "velocity": 0.49606299212598426,
                    "duration": 0.08152181250000012
                },
                {
                    "name": "C#3",
                    "midi": 49,
                    "time": 300.86983600000303,
                    "velocity": 0.5669291338582677,
                    "duration": 0.7608702499999822
                },
                {
                    "name": "G2",
                    "midi": 43,
                    "time": 301.630706250003,
                    "velocity": 0.5196850393700787,
                    "duration": 0.08152181250000012
                },
                {
                    "name": "E3",
                    "midi": 52,
                    "time": 301.739402000003,
                    "velocity": 0.5905511811023622,
                    "duration": 0.7608702499999822
                },
                {
                    "name": "G2",
                    "midi": 43,
                    "time": 302.500272250003,
                    "velocity": 0.5433070866141733,
                    "duration": 0.08152181250000012
                },
                {
                    "name": "E3",
                    "midi": 52,
                    "time": 302.60896800000296,
                    "velocity": 0.6062992125984252,
                    "duration": 0.3260872500000005
                },
                {
                    "name": "G4",
                    "midi": 67,
                    "time": 302.93505525000296,
                    "velocity": 0.5590551181102362,
                    "duration": 0.08152181250000012
                },
                {
                    "name": "E5",
                    "midi": 76,
                    "time": 303.04375100000294,
                    "velocity": 0.6062992125984252,
                    "duration": 0.3260872500000005
                },
                {
                    "name": "G#2",
                    "midi": 44,
                    "time": 303.36983825000294,
                    "velocity": 0.5748031496062992,
                    "duration": 0.08152181250000012
                },
                {
                    "name": "E3",
                    "midi": 52,
                    "time": 303.4785340000029,
                    "velocity": 0.5590551181102362,
                    "duration": 0.3260872500000005
                },
                {
                    "name": "G#4",
                    "midi": 68,
                    "time": 303.8046212500029,
                    "velocity": 0.5826771653543307,
                    "duration": 0.08152181250000012
                },
                {
                    "name": "E5",
                    "midi": 76,
                    "time": 303.9133170000029,
                    "velocity": 0.6220472440944882,
                    "duration": 0.3260872500000005
                },
                {
                    "name": "A2",
                    "midi": 45,
                    "time": 304.2394042500029,
                    "velocity": 0.5984251968503937,
                    "duration": 0.08152181250000012
                },
                {
                    "name": "E3",
                    "midi": 52,
                    "time": 304.3481000000029,
                    "velocity": 0.5905511811023622,
                    "duration": 0.3260872500000005
                },
                {
                    "name": "A4",
                    "midi": 69,
                    "time": 304.6741872500029,
                    "velocity": 0.6141732283464567,
                    "duration": 0.08152181250000012
                },
                {
                    "name": "E5",
                    "midi": 76,
                    "time": 304.78288300000287,
                    "velocity": 0.6771653543307087,
                    "duration": 0.3260872500000005
                },
                {
                    "name": "A2",
                    "midi": 45,
                    "time": 305.10897025000287,
                    "velocity": 0.6535433070866141,
                    "duration": 0.08152181250000012
                },
                {
                    "name": "F3",
                    "midi": 53,
                    "time": 305.21766600000285,
                    "velocity": 0.7322834645669292,
                    "duration": 0.3260872500000005
                },
                {
                    "name": "A4",
                    "midi": 69,
                    "time": 305.54375325000285,
                    "velocity": 0.6771653543307087,
                    "duration": 0.08152181250000012
                },
                {
                    "name": "F5",
                    "midi": 77,
                    "time": 305.65244900000283,
                    "velocity": 0.7637795275590551,
                    "duration": 0.3260872500000005
                },
                {
                    "name": "A#2",
                    "midi": 46,
                    "time": 305.97853625000283,
                    "velocity": 0.7874015748031497,
                    "duration": 0.10869574999998122
                },
                {
                    "name": "A#1",
                    "midi": 34,
                    "time": 305.97853625000283,
                    "velocity": 0.6929133858267716,
                    "duration": 0.10869574999998122
                },
                {
                    "name": "A#2",
                    "midi": 46,
                    "time": 306.0872320000028,
                    "velocity": 0.8661417322834646,
                    "duration": 0.21739150000001928
                },
                {
                    "name": "A#3",
                    "midi": 58,
                    "time": 306.0872320000028,
                    "velocity": 0.8661417322834646,
                    "duration": 0.21739150000001928
                },
                {
                    "name": "C4",
                    "midi": 60,
                    "time": 306.30462350000283,
                    "velocity": 0.7637795275590551,
                    "duration": 0.10869574999998122
                },
                {
                    "name": "A#3",
                    "midi": 58,
                    "time": 306.4133192500028,
                    "velocity": 0.6929133858267716,
                    "duration": 0.10869574999998122
                },
                {
                    "name": "F3",
                    "midi": 53,
                    "time": 306.5220150000028,
                    "velocity": 0.7637795275590551,
                    "duration": 0.21739150000001928
                },
                {
                    "name": "G3",
                    "midi": 55,
                    "time": 306.7394065000028,
                    "velocity": 0.7637795275590551,
                    "duration": 0.10869574999998122
                },
                {
                    "name": "F3",
                    "midi": 53,
                    "time": 306.8481022500028,
                    "velocity": 0.7086614173228346,
                    "duration": 0.10869574999998122
                },
                {
                    "name": "D3",
                    "midi": 50,
                    "time": 306.9567980000028,
                    "velocity": 0.7637795275590551,
                    "duration": 0.21739150000001928
                },
                {
                    "name": "D#3",
                    "midi": 51,
                    "time": 307.1741895000028,
                    "velocity": 0.7637795275590551,
                    "duration": 0.10869574999998122
                },
                {
                    "name": "D3",
                    "midi": 50,
                    "time": 307.2828852500028,
                    "velocity": 0.7165354330708661,
                    "duration": 0.10869574999998122
                },
                {
                    "name": "A#2",
                    "midi": 46,
                    "time": 307.39158100000276,
                    "velocity": 0.7637795275590551,
                    "duration": 0.21739150000001928
                },
                {
                    "name": "C3",
                    "midi": 48,
                    "time": 307.6089725000028,
                    "velocity": 0.7637795275590551,
                    "duration": 0.10869574999998122
                },
                {
                    "name": "A#2",
                    "midi": 46,
                    "time": 307.71766825000276,
                    "velocity": 0.7637795275590551,
                    "duration": 0.05434787500001903
                },
                {
                    "name": "D2",
                    "midi": 38,
                    "time": 307.7720161250028,
                    "velocity": 0.6929133858267716,
                    "duration": 0.027173937499981093
                },
                {
                    "name": "D3",
                    "midi": 50,
                    "time": 307.79919006250276,
                    "velocity": 0.7007874015748031,
                    "duration": 0.027173937499981093
                },
                {
                    "name": "D4",
                    "midi": 62,
                    "time": 307.82636400000274,
                    "velocity": 0.8661417322834646,
                    "duration": 0.21739150000001928
                },
                {
                    "name": "D#4",
                    "midi": 63,
                    "time": 308.04375550000276,
                    "velocity": 0.7637795275590551,
                    "duration": 0.10869574999998122
                },
                {
                    "name": "D4",
                    "midi": 62,
                    "time": 308.15245125000274,
                    "velocity": 0.6929133858267716,
                    "duration": 0.10869574999998122
                },
                {
                    "name": "A#3",
                    "midi": 58,
                    "time": 308.2611470000027,
                    "velocity": 0.7637795275590551,
                    "duration": 0.21739150000001928
                },
                {
                    "name": "D4",
                    "midi": 62,
                    "time": 308.47853850000274,
                    "velocity": 0.7637795275590551,
                    "duration": 0.10869574999998122
                },
                {
                    "name": "A#3",
                    "midi": 58,
                    "time": 308.5872342500027,
                    "velocity": 0.7086614173228346,
                    "duration": 0.10869574999998122
                },
                {
                    "name": "F3",
                    "midi": 53,
                    "time": 308.6959300000027,
                    "velocity": 0.7637795275590551,
                    "duration": 0.21739150000001928
                },
                {
                    "name": "A#3",
                    "midi": 58,
                    "time": 308.9133215000027,
                    "velocity": 0.7322834645669292,
                    "duration": 0.10869574999998122
                },
                {
                    "name": "F3",
                    "midi": 53,
                    "time": 309.0220172500027,
                    "velocity": 0.6929133858267716,
                    "duration": 0.10869574999998122
                },
                {
                    "name": "D3",
                    "midi": 50,
                    "time": 309.1307130000027,
                    "velocity": 0.6141732283464567,
                    "duration": 0.10869574999998122
                },
                {
                    "name": "A#2",
                    "midi": 46,
                    "time": 309.23940875000267,
                    "velocity": 0.5748031496062992,
                    "duration": 0.10869574999998122
                },
                {
                    "name": "D#3",
                    "midi": 51,
                    "time": 309.34810450000265,
                    "velocity": 0.31496062992125984,
                    "duration": 0.10869574999998122
                },
                {
                    "name": "C3",
                    "midi": 48,
                    "time": 309.45680025000263,
                    "velocity": 0.2755905511811024,
                    "duration": 0.10869574999998122
                },
                {
                    "name": "A#2",
                    "midi": 46,
                    "time": 309.5654960000026,
                    "velocity": 0.2283464566929134,
                    "duration": 0.21739150000001928
                },
                {
                    "name": "C3",
                    "midi": 48,
                    "time": 309.78288750000263,
                    "velocity": 0.2677165354330709,
                    "duration": 0.10869574999998122
                },
                {
                    "name": "A#2",
                    "midi": 46,
                    "time": 309.8915832500026,
                    "velocity": 0.2440944881889764,
                    "duration": 0.10869574999998122
                },
                {
                    "name": "F2",
                    "midi": 41,
                    "time": 310.0002790000026,
                    "velocity": 0.23622047244094488,
                    "duration": 0.21739150000001928
                },
                {
                    "name": "F3",
                    "midi": 53,
                    "time": 310.0002790000026,
                    "velocity": 0.28346456692913385,
                    "duration": 0.21739150000001928
                },
                {
                    "name": "D#3",
                    "midi": 51,
                    "time": 310.2176705000026,
                    "velocity": 0.25984251968503935,
                    "duration": 0.10869574999998122
                },
                {
                    "name": "D3",
                    "midi": 50,
                    "time": 310.3263662500026,
                    "velocity": 0.23622047244094488,
                    "duration": 0.10869574999998122
                },
                {
                    "name": "C3",
                    "midi": 48,
                    "time": 310.4350620000026,
                    "velocity": 0.2755905511811024,
                    "duration": 0.21739150000001928
                },
                {
                    "name": "D3",
                    "midi": 50,
                    "time": 310.6524535000026,
                    "velocity": 0.25984251968503935,
                    "duration": 0.10869574999998122
                },
                {
                    "name": "C3",
                    "midi": 48,
                    "time": 310.7611492500026,
                    "velocity": 0.2283464566929134,
                    "duration": 0.10869574999998122
                },
                {
                    "name": "G2",
                    "midi": 43,
                    "time": 310.86984500000256,
                    "velocity": 0.2204724409448819,
                    "duration": 0.21739150000001928
                },
                {
                    "name": "G3",
                    "midi": 55,
                    "time": 310.86984500000256,
                    "velocity": 0.2677165354330709,
                    "duration": 0.21739150000001928
                },
                {
                    "name": "F3",
                    "midi": 53,
                    "time": 311.0872365000026,
                    "velocity": 0.2204724409448819,
                    "duration": 0.10869574999998122
                },
                {
                    "name": "G#3",
                    "midi": 56,
                    "time": 311.0872365000026,
                    "velocity": 0.25984251968503935,
                    "duration": 0.10869574999998122
                },
                {
                    "name": "D#3",
                    "midi": 51,
                    "time": 311.19593225000256,
                    "velocity": 0.2204724409448819,
                    "duration": 0.10869574999998122
                },
                {
                    "name": "G3",
                    "midi": 55,
                    "time": 311.19593225000256,
                    "velocity": 0.25984251968503935,
                    "duration": 0.10869574999998122
                },
                {
                    "name": "D3",
                    "midi": 50,
                    "time": 311.30462800000254,
                    "velocity": 0.2440944881889764,
                    "duration": 0.21739150000001928
                },
                {
                    "name": "F3",
                    "midi": 53,
                    "time": 311.30462800000254,
                    "velocity": 0.29133858267716534,
                    "duration": 0.21739150000001928
                },
                {
                    "name": "C#3",
                    "midi": 49,
                    "time": 311.52201950000256,
                    "velocity": 0.2125984251968504,
                    "duration": 0.21739150000001928
                },
                {
                    "name": "E3",
                    "midi": 52,
                    "time": 311.52201950000256,
                    "velocity": 0.25196850393700787,
                    "duration": 0.21739150000001928
                },
                {
                    "name": "C3",
                    "midi": 48,
                    "time": 311.7394110000026,
                    "velocity": 0.25196850393700787,
                    "duration": 0.21739150000001928
                },
                {
                    "name": "D#3",
                    "midi": 51,
                    "time": 311.7394110000026,
                    "velocity": 0.2992125984251969,
                    "duration": 0.21739150000001928
                },
                {
                    "name": "F2",
                    "midi": 41,
                    "time": 311.9568025000026,
                    "velocity": 0.1968503937007874,
                    "duration": 0.21739150000001928
                },
                {
                    "name": "C3",
                    "midi": 48,
                    "time": 311.9568025000026,
                    "velocity": 0.23622047244094488,
                    "duration": 0.21739150000001928
                },
                {
                    "name": "G2",
                    "midi": 43,
                    "time": 312.1741940000026,
                    "velocity": 0.2204724409448819,
                    "duration": 0.21739150000001928
                },
                {
                    "name": "A#2",
                    "midi": 46,
                    "time": 312.1741940000026,
                    "velocity": 0.25984251968503935,
                    "duration": 0.21739150000001928
                },
                {
                    "name": "D2",
                    "midi": 38,
                    "time": 312.39158550000263,
                    "velocity": 0.2204724409448819,
                    "duration": 0.10869574999998122
                },
                {
                    "name": "B2",
                    "midi": 47,
                    "time": 312.39158550000263,
                    "velocity": 0.25984251968503935,
                    "duration": 0.10869574999998122
                },
                {
                    "name": "D#2",
                    "midi": 39,
                    "time": 312.5002812500026,
                    "velocity": 0.1889763779527559,
                    "duration": 0.10869574999998122
                },
                {
                    "name": "C3",
                    "midi": 48,
                    "time": 312.5002812500026,
                    "velocity": 0.2283464566929134,
                    "duration": 0.10869574999998122
                },
                {
                    "name": "F2",
                    "midi": 41,
                    "time": 312.6089770000026,
                    "velocity": 0.1889763779527559,
                    "duration": 0.21739150000001928
                },
                {
                    "name": "C3",
                    "midi": 48,
                    "time": 312.6089770000026,
                    "velocity": 0.2283464566929134,
                    "duration": 0.21739150000001928
                },
                {
                    "name": "F3",
                    "midi": 53,
                    "time": 312.8263685000026,
                    "velocity": 0.2204724409448819,
                    "duration": 0.21739149999996243
                },
                {
                    "name": "A#3",
                    "midi": 58,
                    "time": 312.8263685000026,
                    "velocity": 0.25984251968503935,
                    "duration": 0.10869574999998122
                },
                {
                    "name": "C4",
                    "midi": 60,
                    "time": 312.9350642500026,
                    "velocity": 0.25984251968503935,
                    "duration": 0.10869574999998122
                },
                {
                    "name": "F3",
                    "midi": 53,
                    "time": 313.0437600000026,
                    "velocity": 0.2440944881889764,
                    "duration": 1.5217404999999076
                },
                {
                    "name": "D4",
                    "midi": 62,
                    "time": 313.0437600000026,
                    "velocity": 0.29133858267716534,
                    "duration": 0.3260872500000005
                },
                {
                    "name": "D#4",
                    "midi": 63,
                    "time": 313.3698472500026,
                    "velocity": 0.25196850393700787,
                    "duration": 0.10869574999998122
                },
                {
                    "name": "C4",
                    "midi": 60,
                    "time": 313.47854300000256,
                    "velocity": 0.2992125984251969,
                    "duration": 0.3260872500000005
                },
                {
                    "name": "D4",
                    "midi": 62,
                    "time": 313.80463025000256,
                    "velocity": 0.23622047244094488,
                    "duration": 0.10869574999998122
                },
                {
                    "name": "C4",
                    "midi": 60,
                    "time": 313.91332600000254,
                    "velocity": 0.28346456692913385,
                    "duration": 0.10869574999998122
                },
                {
                    "name": "A#3",
                    "midi": 58,
                    "time": 314.0220217500025,
                    "velocity": 0.23622047244094488,
                    "duration": 0.10869574999998122
                },
                {
                    "name": "D4",
                    "midi": 62,
                    "time": 314.1307175000025,
                    "velocity": 0.2755905511811024,
                    "duration": 0.10869574999998122
                },
                {
                    "name": "C4",
                    "midi": 60,
                    "time": 314.2394132500025,
                    "velocity": 0.23622047244094488,
                    "duration": 0.10869574999998122
                },
                {
                    "name": "A3",
                    "midi": 57,
                    "time": 314.34810900000247,
                    "velocity": 0.28346456692913385,
                    "duration": 0.21739150000001928
                },
                {
                    "name": "A#3",
                    "midi": 58,
                    "time": 314.5655005000025,
                    "velocity": 0.2204724409448819,
                    "duration": 0.21739149999996243
                },
                {
                    "name": "C4",
                    "midi": 60,
                    "time": 314.5655005000025,
                    "velocity": 0.25984251968503935,
                    "duration": 0.10869574999998122
                },
                {
                    "name": "D4",
                    "midi": 62,
                    "time": 314.67419625000247,
                    "velocity": 0.25984251968503935,
                    "duration": 0.10869574999998122
                },
                {
                    "name": "A#3",
                    "midi": 58,
                    "time": 314.78289200000245,
                    "velocity": 0.2440944881889764,
                    "duration": 1.0869574999999259
                },
                {
                    "name": "D#4",
                    "midi": 63,
                    "time": 314.78289200000245,
                    "velocity": 0.29133858267716534,
                    "duration": 0.3260872500000005
                },
                {
                    "name": "F4",
                    "midi": 65,
                    "time": 315.10897925000245,
                    "velocity": 0.25196850393700787,
                    "duration": 0.10869574999998122
                },
                {
                    "name": "D4",
                    "midi": 62,
                    "time": 315.21767500000243,
                    "velocity": 0.2992125984251969,
                    "duration": 0.3260872500000005
                },
                {
                    "name": "D#4",
                    "midi": 63,
                    "time": 315.54376225000243,
                    "velocity": 0.23622047244094488,
                    "duration": 0.10869574999998122
                },
                {
                    "name": "D4",
                    "midi": 62,
                    "time": 315.6524580000024,
                    "velocity": 0.28346456692913385,
                    "duration": 0.10869574999998122
                },
                {
                    "name": "C4",
                    "midi": 60,
                    "time": 315.7611537500024,
                    "velocity": 0.23622047244094488,
                    "duration": 0.10869574999998122
                },
                {
                    "name": "A#3",
                    "midi": 58,
                    "time": 315.8698495000024,
                    "velocity": 0.2440944881889764,
                    "duration": 0.4347829999999817
                },
                {
                    "name": "D#4",
                    "midi": 63,
                    "time": 315.8698495000024,
                    "velocity": 0.2755905511811024,
                    "duration": 0.10869574999998122
                },
                {
                    "name": "D4",
                    "midi": 62,
                    "time": 315.97854525000236,
                    "velocity": 0.23622047244094488,
                    "duration": 0.10869574999998122
                },
                {
                    "name": "A#3",
                    "midi": 58,
                    "time": 316.30463250000236,
                    "velocity": 0.2204724409448819,
                    "duration": 0.21739149999996243
                },
                {
                    "name": "D4",
                    "midi": 62,
                    "time": 316.30463250000236,
                    "velocity": 0.25984251968503935,
                    "duration": 0.10869574999998122
                },
                {
                    "name": "D#4",
                    "midi": 63,
                    "time": 316.41332825000234,
                    "velocity": 0.25984251968503935,
                    "duration": 0.10869574999998122
                },
                {
                    "name": "A#3",
                    "midi": 58,
                    "time": 316.5220240000023,
                    "velocity": 0.2440944881889764,
                    "duration": 0.4347829999999817
                },
                {
                    "name": "F4",
                    "midi": 65,
                    "time": 316.5220240000023,
                    "velocity": 0.29133858267716534,
                    "duration": 0.3260872500000005
                },
                {
                    "name": "F#4",
                    "midi": 66,
                    "time": 316.8481112500023,
                    "velocity": 0.25196850393700787,
                    "duration": 0.10869574999998122
                },
                {
                    "name": "D#4",
                    "midi": 63,
                    "time": 316.9568070000023,
                    "velocity": 0.2992125984251969,
                    "duration": 0.21739150000001928
                },
                {
                    "name": "C#4",
                    "midi": 61,
                    "time": 317.1741985000023,
                    "velocity": 0.2204724409448819,
                    "duration": 0.21739149999996243
                },
                {
                    "name": "D#4",
                    "midi": 63,
                    "time": 317.1741985000023,
                    "velocity": 0.25984251968503935,
                    "duration": 0.10869574999998122
                },
                {
                    "name": "F4",
                    "midi": 65,
                    "time": 317.2828942500023,
                    "velocity": 0.25984251968503935,
                    "duration": 0.10869574999998122
                },
                {
                    "name": "C#4",
                    "midi": 61,
                    "time": 317.3915900000023,
                    "velocity": 0.2440944881889764,
                    "duration": 0.8695659999999066
                },
                {
                    "name": "F#4",
                    "midi": 66,
                    "time": 317.3915900000023,
                    "velocity": 0.29133858267716534,
                    "duration": 0.3260872500000005
                },
                {
                    "name": "G#4",
                    "midi": 68,
                    "time": 317.7176772500023,
                    "velocity": 0.25196850393700787,
                    "duration": 0.10869574999998122
                },
                {
                    "name": "F4",
                    "midi": 65,
                    "time": 317.82637300000226,
                    "velocity": 0.2992125984251969,
                    "duration": 0.10869574999998122
                },
                {
                    "name": "B4",
                    "midi": 71,
                    "time": 317.93506875000224,
                    "velocity": 0.2992125984251969,
                    "duration": 0.10869574999998122
                },
                {
                    "name": "A#4",
                    "midi": 70,
                    "time": 318.0437645000022,
                    "velocity": 0.31496062992125984,
                    "duration": 0.10869574999998122
                },
                {
                    "name": "G#4",
                    "midi": 68,
                    "time": 318.1524602500022,
                    "velocity": 0.31496062992125984,
                    "duration": 0.10869574999998122
                },
                {
                    "name": "C#4",
                    "midi": 61,
                    "time": 318.2611560000022,
                    "velocity": 0.2440944881889764,
                    "duration": 0.8695660000000203
                },
                {
                    "name": "F#4",
                    "midi": 66,
                    "time": 318.2611560000022,
                    "velocity": 0.31496062992125984,
                    "duration": 0.21739150000001928
                },
                {
                    "name": "A#4",
                    "midi": 70,
                    "time": 318.4785475000022,
                    "velocity": 0.2755905511811024,
                    "duration": 0.4347829999999817
                },
                {
                    "name": "G#4",
                    "midi": 68,
                    "time": 318.9133305000022,
                    "velocity": 0.3228346456692913,
                    "duration": 0.43478300000003856
                },
                {
                    "name": "C#4",
                    "midi": 61,
                    "time": 319.1307220000022,
                    "velocity": 0.3543307086614173,
                    "duration": 0.8695660000000771
                },
                {
                    "name": "F#4",
                    "midi": 66,
                    "time": 319.3481135000022,
                    "velocity": 0.30708661417322836,
                    "duration": 0.21739150000001928
                },
                {
                    "name": "C#5",
                    "midi": 73,
                    "time": 319.56550500000225,
                    "velocity": 0.36220472440944884,
                    "duration": 0.21739150000001928
                },
                {
                    "name": "B4",
                    "midi": 71,
                    "time": 319.78289650000227,
                    "velocity": 0.33858267716535434,
                    "duration": 0.21739150000001928
                },
                {
                    "name": "C#4",
                    "midi": 61,
                    "time": 320.0002880000023,
                    "velocity": 0.3700787401574803,
                    "duration": 0.8695659999998497
                },
                {
                    "name": "B4",
                    "midi": 71,
                    "time": 320.0002880000023,
                    "velocity": 0.4330708661417323,
                    "duration": 0.10869574999998122
                },
                {
                    "name": "A#4",
                    "midi": 70,
                    "time": 320.10898375000227,
                    "velocity": 0.3858267716535433,
                    "duration": 0.10869574999998122
                },
                {
                    "name": "B4",
                    "midi": 71,
                    "time": 320.21767950000225,
                    "velocity": 0.4251968503937008,
                    "duration": 0.10869574999998122
                },
                {
                    "name": "A#4",
                    "midi": 70,
                    "time": 320.32637525000223,
                    "velocity": 0.3937007874015748,
                    "duration": 0.10869574999998122
                },
                {
                    "name": "A#4",
                    "midi": 70,
                    "time": 320.4350710000022,
                    "velocity": 0.4330708661417323,
                    "duration": 0.10869574999998122
                },
                {
                    "name": "G#4",
                    "midi": 68,
                    "time": 320.5437667500022,
                    "velocity": 0.3700787401574803,
                    "duration": 0.10869574999998122
                },
                {
                    "name": "A#4",
                    "midi": 70,
                    "time": 320.6524625000022,
                    "velocity": 0.4409448818897638,
                    "duration": 0.10869574999998122
                },
                {
                    "name": "G#4",
                    "midi": 68,
                    "time": 320.76115825000215,
                    "velocity": 0.3858267716535433,
                    "duration": 0.10869574999998122
                },
                {
                    "name": "C#4",
                    "midi": 61,
                    "time": 320.86985400000214,
                    "velocity": 0.3858267716535433,
                    "duration": 0.8695659999999634
                },
                {
                    "name": "G#4",
                    "midi": 68,
                    "time": 320.86985400000214,
                    "velocity": 0.4409448818897638,
                    "duration": 0.10869574999998122
                },
                {
                    "name": "G4",
                    "midi": 67,
                    "time": 320.9785497500021,
                    "velocity": 0.3858267716535433,
                    "duration": 0.10869574999998122
                },
                {
                    "name": "D#5",
                    "midi": 75,
                    "time": 321.0872455000021,
                    "velocity": 0.44881889763779526,
                    "duration": 0.10869574999998122
                },
                {
                    "name": "C#5",
                    "midi": 73,
                    "time": 321.1959412500021,
                    "velocity": 0.3937007874015748,
                    "duration": 0.10869574999998122
                },
                {
                    "name": "C#5",
                    "midi": 73,
                    "time": 321.30463700000206,
                    "velocity": 0.44881889763779526,
                    "duration": 0.21739150000001928
                },
                {
                    "name": "B4",
                    "midi": 71,
                    "time": 321.5220285000021,
                    "velocity": 0.4015748031496063,
                    "duration": 0.21739150000001928
                },
                {
                    "name": "C#4",
                    "midi": 61,
                    "time": 321.7394200000021,
                    "velocity": 0.4015748031496063,
                    "duration": 0.43478299999992487
                },
                {
                    "name": "A4",
                    "midi": 69,
                    "time": 321.7394200000021,
                    "velocity": 0.4566929133858268,
                    "duration": 0.10869574999998122
                },
                {
                    "name": "A#4",
                    "midi": 70,
                    "time": 321.8481157500021,
                    "velocity": 0.4251968503937008,
                    "duration": 0.10869574999998122
                },
                {
                    "name": "B4",
                    "midi": 71,
                    "time": 321.95681150000206,
                    "velocity": 0.4251968503937008,
                    "duration": 0.10869574999998122
                },
                {
                    "name": "A#4",
                    "midi": 70,
                    "time": 322.06550725000204,
                    "velocity": 0.4251968503937008,
                    "duration": 0.10869574999998122
                },
                {
                    "name": "C#4",
                    "midi": 61,
                    "time": 322.174203000002,
                    "velocity": 0.4094488188976378,
                    "duration": 0.43478299999992487
                },
                {
                    "name": "G4",
                    "midi": 67,
                    "time": 322.174203000002,
                    "velocity": 0.4645669291338583,
                    "duration": 0.10869574999998122
                },
                {
                    "name": "G#4",
                    "midi": 68,
                    "time": 322.282898750002,
                    "velocity": 0.4094488188976378,
                    "duration": 0.10869574999998122
                },
                {
                    "name": "A#4",
                    "midi": 70,
                    "time": 322.391594500002,
                    "velocity": 0.4094488188976378,
                    "duration": 0.10869574999998122
                },
                {
                    "name": "G#4",
                    "midi": 68,
                    "time": 322.50029025000197,
                    "velocity": 0.41732283464566927,
                    "duration": 0.10869574999998122
                },
                {
                    "name": "C#4",
                    "midi": 61,
                    "time": 322.60898600000195,
                    "velocity": 0.41732283464566927,
                    "duration": 0.43478299999992487
                },
                {
                    "name": "F4",
                    "midi": 65,
                    "time": 322.60898600000195,
                    "velocity": 0.47244094488188976,
                    "duration": 0.10869574999998122
                },
                {
                    "name": "F#4",
                    "midi": 66,
                    "time": 322.71768175000193,
                    "velocity": 0.44881889763779526,
                    "duration": 0.10869574999998122
                },
                {
                    "name": "G#4",
                    "midi": 68,
                    "time": 322.8263775000019,
                    "velocity": 0.4409448818897638,
                    "duration": 0.10869574999998122
                },
                {
                    "name": "F#4",
                    "midi": 66,
                    "time": 322.9350732500019,
                    "velocity": 0.4409448818897638,
                    "duration": 0.10869574999998122
                },
                {
                    "name": "C#4",
                    "midi": 61,
                    "time": 323.0437690000019,
                    "velocity": 0.4251968503937008,
                    "duration": 0.21739149999996243
                },
                {
                    "name": "F#4",
                    "midi": 66,
                    "time": 323.0437690000019,
                    "velocity": 0.4881889763779528,
                    "duration": 0.10869574999998122
                },
                {
                    "name": "F4",
                    "midi": 65,
                    "time": 323.15246475000185,
                    "velocity": 0.44881889763779526,
                    "duration": 0.10869574999998122
                },
                {
                    "name": "B3",
                    "midi": 59,
                    "time": 323.26116050000184,
                    "velocity": 0.4330708661417323,
                    "duration": 0.21739149999996243
                },
                {
                    "name": "F#4",
                    "midi": 66,
                    "time": 323.26116050000184,
                    "velocity": 0.44881889763779526,
                    "duration": 0.10869574999998122
                },
                {
                    "name": "G#4",
                    "midi": 68,
                    "time": 323.3698562500018,
                    "velocity": 0.44881889763779526,
                    "duration": 0.10869574999998122
                },
                {
                    "name": "A#3",
                    "midi": 58,
                    "time": 323.4785520000018,
                    "velocity": 0.36220472440944884,
                    "duration": 0.21739150000001928
                },
                {
                    "name": "A#4",
                    "midi": 70,
                    "time": 323.4785520000018,
                    "velocity": 0.4645669291338583,
                    "duration": 0.21739150000001928
                },
                {
                    "name": "G#3",
                    "midi": 56,
                    "time": 323.6959435000018,
                    "velocity": 0.3464566929133858,
                    "duration": 0.21739150000001928
                },
                {
                    "name": "G#4",
                    "midi": 68,
                    "time": 323.6959435000018,
                    "velocity": 0.4330708661417323,
                    "duration": 0.21739150000001928
                },
                {
                    "name": "D#4",
                    "midi": 63,
                    "time": 323.91333500000184,
                    "velocity": 0.48031496062992124,
                    "duration": 0.21739150000001928
                },
                {
                    "name": "D#3",
                    "midi": 51,
                    "time": 323.91333500000184,
                    "velocity": 0.3779527559055118,
                    "duration": 0.21739150000001928
                },
                {
                    "name": "D4",
                    "midi": 62,
                    "time": 324.13072650000186,
                    "velocity": 0.4409448818897638,
                    "duration": 0.21739150000001928
                },
                {
                    "name": "D3",
                    "midi": 50,
                    "time": 324.13072650000186,
                    "velocity": 0.3543307086614173,
                    "duration": 0.21739150000001928
                },
                {
                    "name": "C#3",
                    "midi": 49,
                    "time": 324.3481180000019,
                    "velocity": 0.3858267716535433,
                    "duration": 0.21739150000001928
                },
                {
                    "name": "C#4",
                    "midi": 61,
                    "time": 324.3481180000019,
                    "velocity": 0.4881889763779528,
                    "duration": 0.21739150000001928
                },
                {
                    "name": "C#2",
                    "midi": 37,
                    "time": 324.5655095000019,
                    "velocity": 0.3779527559055118,
                    "duration": 0.4347829999999817
                },
                {
                    "name": "C#3",
                    "midi": 49,
                    "time": 324.5655095000019,
                    "velocity": 0.48031496062992124,
                    "duration": 0.3260872500000005
                },
                {
                    "name": "B2",
                    "midi": 47,
                    "time": 324.8915967500019,
                    "velocity": 0.5590551181102362,
                    "duration": 0.10869574999998122
                },
                {
                    "name": "A#2",
                    "midi": 46,
                    "time": 325.0002925000019,
                    "velocity": 0.5748031496062992,
                    "duration": 0.10869574999998122
                },
                {
                    "name": "C#2",
                    "midi": 37,
                    "time": 325.0002925000019,
                    "velocity": 0.4566929133858268,
                    "duration": 0.21739149999996243
                },
                {
                    "name": "G#2",
                    "midi": 44,
                    "time": 325.10898825000186,
                    "velocity": 0.6141732283464567,
                    "duration": 0.10869574999998122
                },
                {
                    "name": "F#2",
                    "midi": 42,
                    "time": 325.21768400000184,
                    "velocity": 0.6141732283464567,
                    "duration": 0.10869574999998122
                },
                {
                    "name": "F#1",
                    "midi": 30,
                    "time": 325.21768400000184,
                    "velocity": 0.5039370078740157,
                    "duration": 0.10869574999998122
                },
                {
                    "name": "C#3",
                    "midi": 49,
                    "time": 325.3263797500018,
                    "velocity": 0.4015748031496063,
                    "duration": 0.10778995208335118
                },
                {
                    "name": "F#3",
                    "midi": 54,
                    "time": 325.3263797500018,
                    "velocity": 0.4015748031496063,
                    "duration": 0.10778995208335118
                },
                {
                    "name": "A#3",
                    "midi": 58,
                    "time": 325.3263797500018,
                    "velocity": 0.48031496062992124,
                    "duration": 0.10778995208335118
                },
                {
                    "name": "A#3",
                    "midi": 58,
                    "time": 325.43507550000186,
                    "velocity": 0.48031496062992124,
                    "duration": 0.10778995208335118
                },
                {
                    "name": "F#3",
                    "midi": 54,
                    "time": 325.43507550000186,
                    "velocity": 0.4015748031496063,
                    "duration": 0.10778995208335118
                },
                {
                    "name": "C#3",
                    "midi": 49,
                    "time": 325.43507550000186,
                    "velocity": 0.4015748031496063,
                    "duration": 0.10778995208335118
                },
                {
                    "name": "C#3",
                    "midi": 49,
                    "time": 325.5437712500019,
                    "velocity": 0.4015748031496063,
                    "duration": 0.10869574999998122
                },
                {
                    "name": "A#3",
                    "midi": 58,
                    "time": 325.5437712500019,
                    "velocity": 0.48031496062992124,
                    "duration": 0.1068841541666643
                },
                {
                    "name": "F#3",
                    "midi": 54,
                    "time": 325.5437712500019,
                    "velocity": 0.4015748031496063,
                    "duration": 0.10869574999998122
                },
                {
                    "name": "F#3",
                    "midi": 54,
                    "time": 325.76116275000186,
                    "velocity": 0.41732283464566927,
                    "duration": 0.10778995208335118
                },
                {
                    "name": "A#2",
                    "midi": 46,
                    "time": 325.76116275000186,
                    "velocity": 0.3543307086614173,
                    "duration": 0.10778995208335118
                },
                {
                    "name": "C#3",
                    "midi": 49,
                    "time": 325.76116275000186,
                    "velocity": 0.3543307086614173,
                    "duration": 0.10778995208335118
                },
                {
                    "name": "C#3",
                    "midi": 49,
                    "time": 325.8698585000019,
                    "velocity": 0.3543307086614173,
                    "duration": 0.10778995208335118
                },
                {
                    "name": "A#2",
                    "midi": 46,
                    "time": 325.8698585000019,
                    "velocity": 0.3543307086614173,
                    "duration": 0.10778995208335118
                },
                {
                    "name": "F#3",
                    "midi": 54,
                    "time": 325.8698585000019,
                    "velocity": 0.4251968503937008,
                    "duration": 0.10778995208335118
                },
                {
                    "name": "C#3",
                    "midi": 49,
                    "time": 325.97855425000193,
                    "velocity": 0.3543307086614173,
                    "duration": 0.10869574999998122
                },
                {
                    "name": "A#2",
                    "midi": 46,
                    "time": 325.97855425000193,
                    "velocity": 0.3543307086614173,
                    "duration": 0.10869574999998122
                },
                {
                    "name": "F#3",
                    "midi": 54,
                    "time": 325.97855425000193,
                    "velocity": 0.4251968503937008,
                    "duration": 0.10869574999998122
                },
                {
                    "name": "C#3",
                    "midi": 49,
                    "time": 326.1959457500019,
                    "velocity": 0.29133858267716534,
                    "duration": 0.05434787500001903
                },
                {
                    "name": "F#3",
                    "midi": 54,
                    "time": 326.1959457500019,
                    "velocity": 0.29133858267716534,
                    "duration": 0.05434787500001903
                },
                {
                    "name": "A#3",
                    "midi": 58,
                    "time": 326.1959457500019,
                    "velocity": 0.3464566929133858,
                    "duration": 0.05434787500001903
                },
                {
                    "name": "C#3",
                    "midi": 49,
                    "time": 326.4133372500019,
                    "velocity": 0.29133858267716534,
                    "duration": 0.05434787500001903
                },
                {
                    "name": "F#3",
                    "midi": 54,
                    "time": 326.4133372500019,
                    "velocity": 0.3464566929133858,
                    "duration": 0.05434787500001903
                },
                {
                    "name": "A#2",
                    "midi": 46,
                    "time": 326.4133372500019,
                    "velocity": 0.29133858267716534,
                    "duration": 0.05434787500001903
                },
                {
                    "name": "C#3",
                    "midi": 49,
                    "time": 326.63072875000194,
                    "velocity": 0.29133858267716534,
                    "duration": 0.05434787500001903
                },
                {
                    "name": "F#3",
                    "midi": 54,
                    "time": 326.63072875000194,
                    "velocity": 0.29133858267716534,
                    "duration": 0.05434787500001903
                },
                {
                    "name": "A#3",
                    "midi": 58,
                    "time": 326.63072875000194,
                    "velocity": 0.3464566929133858,
                    "duration": 0.05434787500001903
                },
                {
                    "name": "D3",
                    "midi": 50,
                    "time": 326.84812025000195,
                    "velocity": 0.29133858267716534,
                    "duration": 0.05434787500001903
                },
                {
                    "name": "G#3",
                    "midi": 56,
                    "time": 326.84812025000195,
                    "velocity": 0.3464566929133858,
                    "duration": 0.05434787500001903
                },
                {
                    "name": "B2",
                    "midi": 47,
                    "time": 326.84812025000195,
                    "velocity": 0.29133858267716534,
                    "duration": 0.05434787500001903
                },
                {
                    "name": "F3",
                    "midi": 53,
                    "time": 326.84812025000195,
                    "velocity": 0.29133858267716534,
                    "duration": 0.05434787500001903
                },
                {
                    "name": "F#2",
                    "midi": 42,
                    "time": 326.956816000002,
                    "velocity": 0.5590551181102362,
                    "duration": 0.10869574999998122
                },
                {
                    "name": "F#1",
                    "midi": 30,
                    "time": 326.956816000002,
                    "velocity": 0.4645669291338583,
                    "duration": 0.10869574999998122
                },
                {
                    "name": "G#3",
                    "midi": 56,
                    "time": 327.065511750002,
                    "velocity": 0.4015748031496063,
                    "duration": 0.10778995208335118
                },
                {
                    "name": "F3",
                    "midi": 53,
                    "time": 327.065511750002,
                    "velocity": 0.4015748031496063,
                    "duration": 0.10778995208335118
                },
                {
                    "name": "B3",
                    "midi": 59,
                    "time": 327.065511750002,
                    "velocity": 0.48031496062992124,
                    "duration": 0.10778995208335118
                },
                {
                    "name": "D3",
                    "midi": 50,
                    "time": 327.065511750002,
                    "velocity": 0.4015748031496063,
                    "duration": 0.10778995208335118
                },
                {
                    "name": "G#3",
                    "midi": 56,
                    "time": 327.174207500002,
                    "velocity": 0.4015748031496063,
                    "duration": 0.10778995208335118
                },
                {
                    "name": "B3",
                    "midi": 59,
                    "time": 327.174207500002,
                    "velocity": 0.48031496062992124,
                    "duration": 0.10778995208335118
                },
                {
                    "name": "D3",
                    "midi": 50,
                    "time": 327.174207500002,
                    "velocity": 0.4015748031496063,
                    "duration": 0.10778995208335118
                },
                {
                    "name": "F3",
                    "midi": 53,
                    "time": 327.174207500002,
                    "velocity": 0.4015748031496063,
                    "duration": 0.10778995208335118
                },
                {
                    "name": "G#3",
                    "midi": 56,
                    "time": 327.28290325000205,
                    "velocity": 0.4015748031496063,
                    "duration": 0.10869574999998122
                },
                {
                    "name": "B3",
                    "midi": 59,
                    "time": 327.28290325000205,
                    "velocity": 0.48031496062992124,
                    "duration": 0.10869574999998122
                },
                {
                    "name": "F3",
                    "midi": 53,
                    "time": 327.28290325000205,
                    "velocity": 0.4015748031496063,
                    "duration": 0.10869574999998122
                },
                {
                    "name": "D3",
                    "midi": 50,
                    "time": 327.28290325000205,
                    "velocity": 0.4015748031496063,
                    "duration": 0.10869574999998122
                },
                {
                    "name": "D3",
                    "midi": 50,
                    "time": 327.500294750002,
                    "velocity": 0.3543307086614173,
                    "duration": 0.10778995208335118
                },
                {
                    "name": "F3",
                    "midi": 53,
                    "time": 327.500294750002,
                    "velocity": 0.3543307086614173,
                    "duration": 0.10778995208335118
                },
                {
                    "name": "G#3",
                    "midi": 56,
                    "time": 327.500294750002,
                    "velocity": 0.41732283464566927,
                    "duration": 0.10778995208335118
                },
                {
                    "name": "B2",
                    "midi": 47,
                    "time": 327.500294750002,
                    "velocity": 0.3543307086614173,
                    "duration": 0.10778995208335118
                },
                {
                    "name": "D3",
                    "midi": 50,
                    "time": 327.60899050000205,
                    "velocity": 0.3543307086614173,
                    "duration": 0.10778995208335118
                },
                {
                    "name": "F3",
                    "midi": 53,
                    "time": 327.60899050000205,
                    "velocity": 0.3543307086614173,
                    "duration": 0.10778995208335118
                },
                {
                    "name": "G#3",
                    "midi": 56,
                    "time": 327.60899050000205,
                    "velocity": 0.4251968503937008,
                    "duration": 0.10778995208335118
                },
                {
                    "name": "B2",
                    "midi": 47,
                    "time": 327.60899050000205,
                    "velocity": 0.3543307086614173,
                    "duration": 0.10778995208335118
                },
                {
                    "name": "D3",
                    "midi": 50,
                    "time": 327.7176862500021,
                    "velocity": 0.3543307086614173,
                    "duration": 0.10869574999998122
                },
                {
                    "name": "G#3",
                    "midi": 56,
                    "time": 327.7176862500021,
                    "velocity": 0.4251968503937008,
                    "duration": 0.10869574999998122
                },
                {
                    "name": "F3",
                    "midi": 53,
                    "time": 327.7176862500021,
                    "velocity": 0.3543307086614173,
                    "duration": 0.10869574999998122
                },
                {
                    "name": "B2",
                    "midi": 47,
                    "time": 327.7176862500021,
                    "velocity": 0.3543307086614173,
                    "duration": 0.10869574999998122
                },
                {
                    "name": "G#3",
                    "midi": 56,
                    "time": 327.93507775000205,
                    "velocity": 0.29133858267716534,
                    "duration": 0.05434787500001903
                },
                {
                    "name": "F3",
                    "midi": 53,
                    "time": 327.93507775000205,
                    "velocity": 0.29133858267716534,
                    "duration": 0.05434787500001903
                },
                {
                    "name": "B3",
                    "midi": 59,
                    "time": 327.93507775000205,
                    "velocity": 0.3464566929133858,
                    "duration": 0.05434787500001903
                },
                {
                    "name": "D3",
                    "midi": 50,
                    "time": 327.93507775000205,
                    "velocity": 0.29133858267716534,
                    "duration": 0.05434787500001903
                },
                {
                    "name": "D3",
                    "midi": 50,
                    "time": 328.15246925000207,
                    "velocity": 0.29133858267716534,
                    "duration": 0.05434787500001903
                },
                {
                    "name": "B2",
                    "midi": 47,
                    "time": 328.15246925000207,
                    "velocity": 0.29133858267716534,
                    "duration": 0.05434787500001903
                },
                {
                    "name": "F3",
                    "midi": 53,
                    "time": 328.15246925000207,
                    "velocity": 0.29133858267716534,
                    "duration": 0.05434787500001903
                },
                {
                    "name": "G#3",
                    "midi": 56,
                    "time": 328.15246925000207,
                    "velocity": 0.3464566929133858,
                    "duration": 0.05434787500001903
                },
                {
                    "name": "G#3",
                    "midi": 56,
                    "time": 328.3698607500021,
                    "velocity": 0.29133858267716534,
                    "duration": 0.05434787500001903
                },
                {
                    "name": "D3",
                    "midi": 50,
                    "time": 328.3698607500021,
                    "velocity": 0.29133858267716534,
                    "duration": 0.05434787500001903
                },
                {
                    "name": "B3",
                    "midi": 59,
                    "time": 328.3698607500021,
                    "velocity": 0.3464566929133858,
                    "duration": 0.05434787500001903
                },
                {
                    "name": "F3",
                    "midi": 53,
                    "time": 328.3698607500021,
                    "velocity": 0.29133858267716534,
                    "duration": 0.05434787500001903
                },
                {
                    "name": "G3",
                    "midi": 55,
                    "time": 328.5872522500021,
                    "velocity": 0.29133858267716534,
                    "duration": 0.05434787500001903
                },
                {
                    "name": "A#3",
                    "midi": 58,
                    "time": 328.5872522500021,
                    "velocity": 0.3464566929133858,
                    "duration": 0.05434787500001903
                },
                {
                    "name": "C#3",
                    "midi": 49,
                    "time": 328.5872522500021,
                    "velocity": 0.29133858267716534,
                    "duration": 0.05434787500001903
                },
                {
                    "name": "E3",
                    "midi": 52,
                    "time": 328.5872522500021,
                    "velocity": 0.29133858267716534,
                    "duration": 0.05434787500001903
                },
                {
                    "name": "F#2",
                    "midi": 42,
                    "time": 328.69594800000215,
                    "velocity": 0.5590551181102362,
                    "duration": 0.10869574999998122
                },
                {
                    "name": "F#1",
                    "midi": 30,
                    "time": 328.69594800000215,
                    "velocity": 0.4645669291338583,
                    "duration": 0.10869574999998122
                },
                {
                    "name": "A#3",
                    "midi": 58,
                    "time": 328.8046437500021,
                    "velocity": 0.4015748031496063,
                    "duration": 0.10778995208335118
                },
                {
                    "name": "E3",
                    "midi": 52,
                    "time": 328.8046437500021,
                    "velocity": 0.4015748031496063,
                    "duration": 0.10778995208335118
                },
                {
                    "name": "C#4",
                    "midi": 61,
                    "time": 328.8046437500021,
                    "velocity": 0.48031496062992124,
                    "duration": 0.10778995208335118
                },
                {
                    "name": "C#4",
                    "midi": 61,
                    "time": 328.91333950000217,
                    "velocity": 0.48031496062992124,
                    "duration": 0.10778995208335118
                },
                {
                    "name": "E3",
                    "midi": 52,
                    "time": 328.91333950000217,
                    "velocity": 0.4015748031496063,
                    "duration": 0.10778995208335118
                },
                {
                    "name": "A#3",
                    "midi": 58,
                    "time": 328.91333950000217,
                    "velocity": 0.4015748031496063,
                    "duration": 0.10778995208335118
                },
                {
                    "name": "C#4",
                    "midi": 61,
                    "time": 329.0220352500022,
                    "velocity": 0.48031496062992124,
                    "duration": 0.10869574999998122
                },
                {
                    "name": "E3",
                    "midi": 52,
                    "time": 329.0220352500022,
                    "velocity": 0.4015748031496063,
                    "duration": 0.10869574999998122
                },
                {
                    "name": "A#3",
                    "midi": 58,
                    "time": 329.0220352500022,
                    "velocity": 0.4015748031496063,
                    "duration": 0.10869574999998122
                },
                {
                    "name": "G3",
                    "midi": 55,
                    "time": 329.23942675000217,
                    "velocity": 0.3543307086614173,
                    "duration": 0.10778995208335118
                },
                {
                    "name": "E3",
                    "midi": 52,
                    "time": 329.23942675000217,
                    "velocity": 0.3543307086614173,
                    "duration": 0.10778995208335118
                },
                {
                    "name": "C#3",
                    "midi": 49,
                    "time": 329.23942675000217,
                    "velocity": 0.3543307086614173,
                    "duration": 0.10778995208335118
                },
                {
                    "name": "A#3",
                    "midi": 58,
                    "time": 329.23942675000217,
                    "velocity": 0.41732283464566927,
                    "duration": 0.10778995208335118
                },
                {
                    "name": "G3",
                    "midi": 55,
                    "time": 329.3481225000022,
                    "velocity": 0.3543307086614173,
                    "duration": 0.10778995208335118
                },
                {
                    "name": "A#3",
                    "midi": 58,
                    "time": 329.3481225000022,
                    "velocity": 0.4251968503937008,
                    "duration": 0.10778995208335118
                },
                {
                    "name": "E3",
                    "midi": 52,
                    "time": 329.3481225000022,
                    "velocity": 0.3543307086614173,
                    "duration": 0.10778995208335118
                },
                {
                    "name": "C#3",
                    "midi": 49,
                    "time": 329.3481225000022,
                    "velocity": 0.3543307086614173,
                    "duration": 0.10778995208335118
                },
                {
                    "name": "G3",
                    "midi": 55,
                    "time": 329.45681825000224,
                    "velocity": 0.3543307086614173,
                    "duration": 0.10869574999998122
                },
                {
                    "name": "E3",
                    "midi": 52,
                    "time": 329.45681825000224,
                    "velocity": 0.3543307086614173,
                    "duration": 0.10869574999998122
                },
                {
                    "name": "A#3",
                    "midi": 58,
                    "time": 329.45681825000224,
                    "velocity": 0.4251968503937008,
                    "duration": 0.10869574999998122
                },
                {
                    "name": "C#3",
                    "midi": 49,
                    "time": 329.45681825000224,
                    "velocity": 0.3543307086614173,
                    "duration": 0.10869574999998122
                },
                {
                    "name": "A#3",
                    "midi": 58,
                    "time": 329.6742097500022,
                    "velocity": 0.29133858267716534,
                    "duration": 0.05434787500001903
                },
                {
                    "name": "G3",
                    "midi": 55,
                    "time": 329.6742097500022,
                    "velocity": 0.29133858267716534,
                    "duration": 0.05434787500001903
                },
                {
                    "name": "C#4",
                    "midi": 61,
                    "time": 329.6742097500022,
                    "velocity": 0.3464566929133858,
                    "duration": 0.05434787500001903
                },
                {
                    "name": "E3",
                    "midi": 52,
                    "time": 329.6742097500022,
                    "velocity": 0.29133858267716534,
                    "duration": 0.05434787500001903
                },
                {
                    "name": "G3",
                    "midi": 55,
                    "time": 329.8916012500022,
                    "velocity": 0.29133858267716534,
                    "duration": 0.05434787500001903
                },
                {
                    "name": "E3",
                    "midi": 52,
                    "time": 329.8916012500022,
                    "velocity": 0.29133858267716534,
                    "duration": 0.05434787500001903
                },
                {
                    "name": "C#3",
                    "midi": 49,
                    "time": 329.8916012500022,
                    "velocity": 0.29133858267716534,
                    "duration": 0.05434787500001903
                },
                {
                    "name": "A#3",
                    "midi": 58,
                    "time": 329.8916012500022,
                    "velocity": 0.3464566929133858,
                    "duration": 0.05434787500001903
                },
                {
                    "name": "A#3",
                    "midi": 58,
                    "time": 330.10899275000224,
                    "velocity": 0.29133858267716534,
                    "duration": 0.05434787500001903
                },
                {
                    "name": "E3",
                    "midi": 52,
                    "time": 330.10899275000224,
                    "velocity": 0.29133858267716534,
                    "duration": 0.05434787500001903
                },
                {
                    "name": "C#4",
                    "midi": 61,
                    "time": 330.10899275000224,
                    "velocity": 0.3464566929133858,
                    "duration": 0.05434787500001903
                },
                {
                    "name": "G3",
                    "midi": 55,
                    "time": 330.10899275000224,
                    "velocity": 0.29133858267716534,
                    "duration": 0.05434787500001903
                },
                {
                    "name": "F#3",
                    "midi": 54,
                    "time": 330.32638425000226,
                    "velocity": 0.29133858267716534,
                    "duration": 0.05434787500001903
                },
                {
                    "name": "B3",
                    "midi": 59,
                    "time": 330.32638425000226,
                    "velocity": 0.3464566929133858,
                    "duration": 0.05434787500001903
                },
                {
                    "name": "D3",
                    "midi": 50,
                    "time": 330.32638425000226,
                    "velocity": 0.29133858267716534,
                    "duration": 0.05434787500001903
                },
                {
                    "name": "F#2",
                    "midi": 42,
                    "time": 330.4350800000023,
                    "velocity": 0.5590551181102362,
                    "duration": 0.10869574999998122
                },
                {
                    "name": "F#1",
                    "midi": 30,
                    "time": 330.4350800000023,
                    "velocity": 0.4645669291338583,
                    "duration": 0.10869574999998122
                },
                {
                    "name": "B3",
                    "midi": 59,
                    "time": 330.5437757500023,
                    "velocity": 0.4015748031496063,
                    "duration": 0.10778995208335118
                },
                {
                    "name": "D4",
                    "midi": 62,
                    "time": 330.5437757500023,
                    "velocity": 0.48031496062992124,
                    "duration": 0.10778995208335118
                },
                {
                    "name": "F#3",
                    "midi": 54,
                    "time": 330.5437757500023,
                    "velocity": 0.4015748031496063,
                    "duration": 0.10778995208335118
                },
                {
                    "name": "D4",
                    "midi": 62,
                    "time": 330.6524715000023,
                    "velocity": 0.48031496062992124,
                    "duration": 0.10778995208335118
                },
                {
                    "name": "F#3",
                    "midi": 54,
                    "time": 330.6524715000023,
                    "velocity": 0.4015748031496063,
                    "duration": 0.10778995208335118
                },
                {
                    "name": "B3",
                    "midi": 59,
                    "time": 330.6524715000023,
                    "velocity": 0.4015748031496063,
                    "duration": 0.10778995208335118
                },
                {
                    "name": "D4",
                    "midi": 62,
                    "time": 330.76116725000236,
                    "velocity": 0.48031496062992124,
                    "duration": 0.10869574999998122
                },
                {
                    "name": "F#3",
                    "midi": 54,
                    "time": 330.76116725000236,
                    "velocity": 0.4015748031496063,
                    "duration": 0.10869574999998122
                },
                {
                    "name": "B3",
                    "midi": 59,
                    "time": 330.76116725000236,
                    "velocity": 0.4015748031496063,
                    "duration": 0.10869574999998122
                },
                {
                    "name": "F#3",
                    "midi": 54,
                    "time": 330.9785587500023,
                    "velocity": 0.3543307086614173,
                    "duration": 0.10778995208335118
                },
                {
                    "name": "B3",
                    "midi": 59,
                    "time": 330.9785587500023,
                    "velocity": 0.41732283464566927,
                    "duration": 0.10778995208335118
                },
                {
                    "name": "D3",
                    "midi": 50,
                    "time": 330.9785587500023,
                    "velocity": 0.3543307086614173,
                    "duration": 0.10778995208335118
                },
                {
                    "name": "B3",
                    "midi": 59,
                    "time": 331.08725450000236,
                    "velocity": 0.4251968503937008,
                    "duration": 0.10778995208335118
                },
                {
                    "name": "F#3",
                    "midi": 54,
                    "time": 331.08725450000236,
                    "velocity": 0.3543307086614173,
                    "duration": 0.10778995208335118
                },
                {
                    "name": "D3",
                    "midi": 50,
                    "time": 331.08725450000236,
                    "velocity": 0.3543307086614173,
                    "duration": 0.10778995208335118
                },
                {
                    "name": "F#3",
                    "midi": 54,
                    "time": 331.1959502500024,
                    "velocity": 0.3543307086614173,
                    "duration": 0.10869574999998122
                },
                {
                    "name": "B3",
                    "midi": 59,
                    "time": 331.1959502500024,
                    "velocity": 0.4251968503937008,
                    "duration": 0.10869574999998122
                },
                {
                    "name": "D3",
                    "midi": 50,
                    "time": 331.1959502500024,
                    "velocity": 0.3543307086614173,
                    "duration": 0.10869574999998122
                },
                {
                    "name": "G#3",
                    "midi": 56,
                    "time": 331.41334175000236,
                    "velocity": 0.29133858267716534,
                    "duration": 0.05434787500001903
                },
                {
                    "name": "F3",
                    "midi": 53,
                    "time": 331.41334175000236,
                    "velocity": 0.29133858267716534,
                    "duration": 0.05434787500001903
                },
                {
                    "name": "D4",
                    "midi": 62,
                    "time": 331.41334175000236,
                    "velocity": 0.3464566929133858,
                    "duration": 0.05434787500001903
                },
                {
                    "name": "B3",
                    "midi": 59,
                    "time": 331.41334175000236,
                    "velocity": 0.29133858267716534,
                    "duration": 0.05434787500001903
                },
                {
                    "name": "G#3",
                    "midi": 56,
                    "time": 331.6307332500024,
                    "velocity": 0.29133858267716534,
                    "duration": 0.05434787500001903
                },
                {
                    "name": "B3",
                    "midi": 59,
                    "time": 331.6307332500024,
                    "velocity": 0.3464566929133858,
                    "duration": 0.05434787500001903
                },
                {
                    "name": "D3",
                    "midi": 50,
                    "time": 331.6307332500024,
                    "velocity": 0.29133858267716534,
                    "duration": 0.05434787500001903
                },
                {
                    "name": "F3",
                    "midi": 53,
                    "time": 331.6307332500024,
                    "velocity": 0.29133858267716534,
                    "duration": 0.05434787500001903
                },
                {
                    "name": "F3",
                    "midi": 53,
                    "time": 331.8481247500024,
                    "velocity": 0.3228346456692913,
                    "duration": 0.05434787500001903
                },
                {
                    "name": "B3",
                    "midi": 59,
                    "time": 331.8481247500024,
                    "velocity": 0.3228346456692913,
                    "duration": 0.05434787500001903
                },
                {
                    "name": "G#3",
                    "midi": 56,
                    "time": 331.8481247500024,
                    "velocity": 0.3228346456692913,
                    "duration": 0.05434787500001903
                },
                {
                    "name": "D4",
                    "midi": 62,
                    "time": 331.8481247500024,
                    "velocity": 0.3858267716535433,
                    "duration": 0.05434787500001903
                },
                {
                    "name": "G3",
                    "midi": 55,
                    "time": 332.0655162500024,
                    "velocity": 0.33070866141732286,
                    "duration": 0.05434787500001903
                },
                {
                    "name": "A#3",
                    "midi": 58,
                    "time": 332.0655162500024,
                    "velocity": 0.33070866141732286,
                    "duration": 0.05434787500001903
                },
                {
                    "name": "E3",
                    "midi": 52,
                    "time": 332.0655162500024,
                    "velocity": 0.33070866141732286,
                    "duration": 0.05434787500001903
                },
                {
                    "name": "C#4",
                    "midi": 61,
                    "time": 332.0655162500024,
                    "velocity": 0.4015748031496063,
                    "duration": 0.05434787500001903
                },
                {
                    "name": "A#3",
                    "midi": 58,
                    "time": 332.28290775000244,
                    "velocity": 0.3464566929133858,
                    "duration": 0.05434787500001903
                },
                {
                    "name": "G3",
                    "midi": 55,
                    "time": 332.28290775000244,
                    "velocity": 0.3464566929133858,
                    "duration": 0.05434787500001903
                },
                {
                    "name": "C#4",
                    "midi": 61,
                    "time": 332.28290775000244,
                    "velocity": 0.3464566929133858,
                    "duration": 0.05434787500001903
                },
                {
                    "name": "E4",
                    "midi": 64,
                    "time": 332.28290775000244,
                    "velocity": 0.4094488188976378,
                    "duration": 0.05434787500001903
                },
                {
                    "name": "G3",
                    "midi": 55,
                    "time": 332.50029925000246,
                    "velocity": 0.3543307086614173,
                    "duration": 0.05434787500001903
                },
                {
                    "name": "E3",
                    "midi": 52,
                    "time": 332.50029925000246,
                    "velocity": 0.3543307086614173,
                    "duration": 0.05434787500001903
                },
                {
                    "name": "C#4",
                    "midi": 61,
                    "time": 332.50029925000246,
                    "velocity": 0.4251968503937008,
                    "duration": 0.05434787500001903
                },
                {
                    "name": "A#3",
                    "midi": 58,
                    "time": 332.50029925000246,
                    "velocity": 0.3543307086614173,
                    "duration": 0.05434787500001903
                },
                {
                    "name": "A#3",
                    "midi": 58,
                    "time": 332.7176907500025,
                    "velocity": 0.3779527559055118,
                    "duration": 0.05434787500001903
                },
                {
                    "name": "E4",
                    "midi": 64,
                    "time": 332.7176907500025,
                    "velocity": 0.44881889763779526,
                    "duration": 0.05434787500001903
                },
                {
                    "name": "C#4",
                    "midi": 61,
                    "time": 332.7176907500025,
                    "velocity": 0.3779527559055118,
                    "duration": 0.05434787500001903
                },
                {
                    "name": "F#3",
                    "midi": 54,
                    "time": 332.7176907500025,
                    "velocity": 0.3779527559055118,
                    "duration": 0.05434787500001903
                },
                {
                    "name": "F#3",
                    "midi": 54,
                    "time": 332.9350822500025,
                    "velocity": 0.3858267716535433,
                    "duration": 0.05434787500001903
                },
                {
                    "name": "D4",
                    "midi": 62,
                    "time": 332.9350822500025,
                    "velocity": 0.47244094488188976,
                    "duration": 0.05434787500001903
                },
                {
                    "name": "B3",
                    "midi": 59,
                    "time": 332.9350822500025,
                    "velocity": 0.3858267716535433,
                    "duration": 0.05434787500001903
                },
                {
                    "name": "F#3",
                    "midi": 54,
                    "time": 333.1524737500025,
                    "velocity": 0.4094488188976378,
                    "duration": 0.05434787500001903
                },
                {
                    "name": "D4",
                    "midi": 62,
                    "time": 333.1524737500025,
                    "velocity": 0.48031496062992124,
                    "duration": 0.05434787500001903
                },
                {
                    "name": "B3",
                    "midi": 59,
                    "time": 333.1524737500025,
                    "velocity": 0.4094488188976378,
                    "duration": 0.05434787500001903
                },
                {
                    "name": "D4",
                    "midi": 62,
                    "time": 333.36986525000253,
                    "velocity": 0.5118110236220472,
                    "duration": 0.05434787500001903
                },
                {
                    "name": "F#3",
                    "midi": 54,
                    "time": 333.36986525000253,
                    "velocity": 0.4251968503937008,
                    "duration": 0.05434787500001903
                },
                {
                    "name": "B3",
                    "midi": 59,
                    "time": 333.36986525000253,
                    "velocity": 0.4251968503937008,
                    "duration": 0.05434787500001903
                },
                {
                    "name": "D4",
                    "midi": 62,
                    "time": 333.58725675000255,
                    "velocity": 0.5354330708661418,
                    "duration": 0.05434787500001903
                },
                {
                    "name": "F#3",
                    "midi": 54,
                    "time": 333.58725675000255,
                    "velocity": 0.44881889763779526,
                    "duration": 0.05434787500001903
                },
                {
                    "name": "B3",
                    "midi": 59,
                    "time": 333.58725675000255,
                    "velocity": 0.44881889763779526,
                    "duration": 0.05434787500001903
                },
                {
                    "name": "B3",
                    "midi": 59,
                    "time": 333.8046482500026,
                    "velocity": 0.4566929133858268,
                    "duration": 0.05434787500001903
                },
                {
                    "name": "C#4",
                    "midi": 61,
                    "time": 333.8046482500026,
                    "velocity": 0.4566929133858268,
                    "duration": 0.05434787500001903
                },
                {
                    "name": "G#3",
                    "midi": 56,
                    "time": 333.8046482500026,
                    "velocity": 0.4566929133858268,
                    "duration": 0.05434787500001903
                },
                {
                    "name": "F4",
                    "midi": 65,
                    "time": 333.8046482500026,
                    "velocity": 0.5511811023622047,
                    "duration": 0.05434787500001903
                },
                {
                    "name": "G#4",
                    "midi": 68,
                    "time": 334.0220397500026,
                    "velocity": 0.5669291338582677,
                    "duration": 0.05434787500001903
                },
                {
                    "name": "G#3",
                    "midi": 56,
                    "time": 334.0220397500026,
                    "velocity": 0.48031496062992124,
                    "duration": 0.05434787500001903
                },
                {
                    "name": "F#4",
                    "midi": 66,
                    "time": 334.2394312500026,
                    "velocity": 0.5669291338582677,
                    "duration": 0.05434787500001903
                },
                {
                    "name": "F#3",
                    "midi": 54,
                    "time": 334.2394312500026,
                    "velocity": 0.48031496062992124,
                    "duration": 0.05434787500001903
                },
                {
                    "name": "D#3",
                    "midi": 51,
                    "time": 334.45682275000263,
                    "velocity": 0.48031496062992124,
                    "duration": 0.05434787500001903
                },
                {
                    "name": "D#4",
                    "midi": 63,
                    "time": 334.45682275000263,
                    "velocity": 0.5669291338582677,
                    "duration": 0.05434787500001903
                },
                {
                    "name": "C#4",
                    "midi": 61,
                    "time": 334.67421425000265,
                    "velocity": 0.5669291338582677,
                    "duration": 0.05434787500001903
                },
                {
                    "name": "C#3",
                    "midi": 49,
                    "time": 334.67421425000265,
                    "velocity": 0.48031496062992124,
                    "duration": 0.05434787500001903
                },
                {
                    "name": "B2",
                    "midi": 47,
                    "time": 334.89160575000267,
                    "velocity": 0.4330708661417323,
                    "duration": 0.05434787500001903
                },
                {
                    "name": "B3",
                    "midi": 59,
                    "time": 334.89160575000267,
                    "velocity": 0.5039370078740157,
                    "duration": 0.05434787500001903
                },
                {
                    "name": "A#3",
                    "midi": 58,
                    "time": 335.1089972500027,
                    "velocity": 0.5039370078740157,
                    "duration": 0.05434787500001903
                },
                {
                    "name": "A#2",
                    "midi": 46,
                    "time": 335.1089972500027,
                    "velocity": 0.4330708661417323,
                    "duration": 0.05434787500001903
                },
                {
                    "name": "G#2",
                    "midi": 44,
                    "time": 335.3263887500027,
                    "velocity": 0.4330708661417323,
                    "duration": 0.05434787500001903
                },
                {
                    "name": "G#3",
                    "midi": 56,
                    "time": 335.3263887500027,
                    "velocity": 0.5039370078740157,
                    "duration": 0.05434787500001903
                },
                {
                    "name": "F#3",
                    "midi": 54,
                    "time": 335.5437802500027,
                    "velocity": 0.5039370078740157,
                    "duration": 0.05434787500001903
                },
                {
                    "name": "F#2",
                    "midi": 42,
                    "time": 335.5437802500027,
                    "velocity": 0.4330708661417323,
                    "duration": 0.05434787500001903
                },
                {
                    "name": "D#3",
                    "midi": 51,
                    "time": 335.76117175000275,
                    "velocity": 0.5039370078740157,
                    "duration": 0.05434787500001903
                },
                {
                    "name": "D#2",
                    "midi": 39,
                    "time": 335.76117175000275,
                    "velocity": 0.4330708661417323,
                    "duration": 0.05434787500001903
                },
                {
                    "name": "C#2",
                    "midi": 37,
                    "time": 335.97856325000276,
                    "velocity": 0.4330708661417323,
                    "duration": 0.05434787500001903
                },
                {
                    "name": "C#3",
                    "midi": 49,
                    "time": 335.97856325000276,
                    "velocity": 0.5039370078740157,
                    "duration": 0.05434787500001903
                },
                {
                    "name": "B1",
                    "midi": 35,
                    "time": 336.1959547500028,
                    "velocity": 0.4015748031496063,
                    "duration": 0.05434787500001903
                },
                {
                    "name": "B2",
                    "midi": 47,
                    "time": 336.1959547500028,
                    "velocity": 0.48031496062992124,
                    "duration": 0.05434787500001903
                },
                {
                    "name": "A#2",
                    "midi": 46,
                    "time": 336.4133462500028,
                    "velocity": 0.48031496062992124,
                    "duration": 0.05434787500001903
                },
                {
                    "name": "A#1",
                    "midi": 34,
                    "time": 336.4133462500028,
                    "velocity": 0.4015748031496063,
                    "duration": 0.05434787500001903
                },
                {
                    "name": "G#2",
                    "midi": 44,
                    "time": 336.6307377500028,
                    "velocity": 0.44881889763779526,
                    "duration": 0.05434787500001903
                },
                {
                    "name": "G#1",
                    "midi": 32,
                    "time": 336.6307377500028,
                    "velocity": 0.3858267716535433,
                    "duration": 0.05434787500001903
                },
                {
                    "name": "F#1",
                    "midi": 30,
                    "time": 336.84812925000284,
                    "velocity": 0.3779527559055118,
                    "duration": 0.05434787500001903
                },
                {
                    "name": "F#2",
                    "midi": 42,
                    "time": 336.84812925000284,
                    "velocity": 0.4409448818897638,
                    "duration": 0.05434787500001903
                },
                {
                    "name": "D#2",
                    "midi": 39,
                    "time": 337.06552075000286,
                    "velocity": 0.4330708661417323,
                    "duration": 0.05434787500001903
                },
                {
                    "name": "C#2",
                    "midi": 37,
                    "time": 337.2829122500029,
                    "velocity": 0.4251968503937008,
                    "duration": 0.05434787500001903
                },
                {
                    "name": "F2",
                    "midi": 41,
                    "time": 337.5003037500029,
                    "velocity": 0.33070866141732286,
                    "duration": 0.10869574999998122
                },
                {
                    "name": "C#2",
                    "midi": 37,
                    "time": 337.71769525000286,
                    "velocity": 0.2204724409448819,
                    "duration": 0.10869574999998122
                },
                {
                    "name": "G#2",
                    "midi": 44,
                    "time": 337.9350867500028,
                    "velocity": 0.30708661417322836,
                    "duration": 0.10869574999998122
                },
                {
                    "name": "C#2",
                    "midi": 37,
                    "time": 338.1524782500028,
                    "velocity": 0.2125984251968504,
                    "duration": 0.10869574999998122
                },
                {
                    "name": "C#3",
                    "midi": 49,
                    "time": 338.36986975000275,
                    "velocity": 0.29133858267716534,
                    "duration": 0.10869574999998122
                },
                {
                    "name": "C#2",
                    "midi": 37,
                    "time": 338.5872612500027,
                    "velocity": 0.2047244094488189,
                    "duration": 0.10869574999998122
                },
                {
                    "name": "F3",
                    "midi": 53,
                    "time": 338.8046527500027,
                    "velocity": 0.2677165354330709,
                    "duration": 0.10869574999998122
                },
                {
                    "name": "C#2",
                    "midi": 37,
                    "time": 339.02204425000264,
                    "velocity": 0.1889763779527559,
                    "duration": 0.10869574999998122
                },
                {
                    "name": "G#3",
                    "midi": 56,
                    "time": 339.2394357500026,
                    "velocity": 0.25196850393700787,
                    "duration": 0.10869574999998122
                },
                {
                    "name": "C#2",
                    "midi": 37,
                    "time": 339.45682725000256,
                    "velocity": 0.18110236220472442,
                    "duration": 0.10869574999998122
                },
                {
                    "name": "C#4",
                    "midi": 61,
                    "time": 339.6742187500025,
                    "velocity": 0.2283464566929134,
                    "duration": 0.1068841541666643
                },
                {
                    "name": "C#2",
                    "midi": 37,
                    "time": 339.89161025000254,
                    "velocity": 0.1889763779527559,
                    "duration": 0.10869574999998122
                },
                {
                    "name": "C#4",
                    "midi": 61,
                    "time": 340.1090017500025,
                    "velocity": 0.2204724409448819,
                    "duration": 0.1068841541666643
                },
                {
                    "name": "C#2",
                    "midi": 37,
                    "time": 340.3263932500025,
                    "velocity": 0.16535433070866143,
                    "duration": 0.10869574999998122
                },
                {
                    "name": "F#3",
                    "midi": 54,
                    "time": 340.5437847500025,
                    "velocity": 0.16535433070866143,
                    "duration": 0.10869574999998122
                },
                {
                    "name": "C#4",
                    "midi": 61,
                    "time": 340.5437847500025,
                    "velocity": 0.16535433070866143,
                    "duration": 0.10869574999998122
                },
                {
                    "name": "B1",
                    "midi": 35,
                    "time": 340.76117625000245,
                    "velocity": 0.7952755905511811,
                    "duration": 0.10869574999998122
                },
                {
                    "name": "D4",
                    "midi": 62,
                    "time": 340.86987200000243,
                    "velocity": 0.7637795275590551,
                    "duration": 0.3233698562499967
                },
                {
                    "name": "F#3",
                    "midi": 54,
                    "time": 340.86987200000243,
                    "velocity": 0.6377952755905512,
                    "duration": 0.3233698562499967
                },
                {
                    "name": "B3",
                    "midi": 59,
                    "time": 340.86987200000243,
                    "velocity": 0.6377952755905512,
                    "duration": 0.3233698562499967
                },
                {
                    "name": "D4",
                    "midi": 62,
                    "time": 341.19595925000243,
                    "velocity": 0.6929133858267716,
                    "duration": 0.10778995208335118
                },
                {
                    "name": "B3",
                    "midi": 59,
                    "time": 341.19595925000243,
                    "velocity": 0.5748031496062992,
                    "duration": 0.10778995208335118
                },
                {
                    "name": "F#3",
                    "midi": 54,
                    "time": 341.19595925000243,
                    "velocity": 0.5748031496062992,
                    "duration": 0.10778995208335118
                },
                {
                    "name": "F#3",
                    "midi": 54,
                    "time": 341.30465500000247,
                    "velocity": 0.6377952755905512,
                    "duration": 0.21739150000001928
                },
                {
                    "name": "B3",
                    "midi": 59,
                    "time": 341.30465500000247,
                    "velocity": 0.6377952755905512,
                    "duration": 0.21739150000001928
                },
                {
                    "name": "D4",
                    "midi": 62,
                    "time": 341.30465500000247,
                    "velocity": 0.7637795275590551,
                    "duration": 0.21739150000001928
                },
                {
                    "name": "F#3",
                    "midi": 54,
                    "time": 341.5220465000025,
                    "velocity": 0.6220472440944882,
                    "duration": 0.04076090625000006
                },
                {
                    "name": "D4",
                    "midi": 62,
                    "time": 341.5220465000025,
                    "velocity": 0.7165354330708661,
                    "duration": 0.04076090625000006
                },
                {
                    "name": "B3",
                    "midi": 59,
                    "time": 341.5220465000025,
                    "velocity": 0.6220472440944882,
                    "duration": 0.04076090625000006
                },
                {
                    "name": "F#3",
                    "midi": 54,
                    "time": 341.63074225000247,
                    "velocity": 0.6377952755905512,
                    "duration": 0.04076090625000006
                },
                {
                    "name": "D4",
                    "midi": 62,
                    "time": 341.63074225000247,
                    "velocity": 0.7637795275590551,
                    "duration": 0.04076090625000006
                },
                {
                    "name": "B3",
                    "midi": 59,
                    "time": 341.63074225000247,
                    "velocity": 0.6377952755905512,
                    "duration": 0.04076090625000006
                },
                {
                    "name": "F#3",
                    "midi": 54,
                    "time": 341.73943800000245,
                    "velocity": 0.6377952755905512,
                    "duration": 0.10869574999998122
                },
                {
                    "name": "D4",
                    "midi": 62,
                    "time": 341.73943800000245,
                    "velocity": 0.7637795275590551,
                    "duration": 0.10869574999998122
                },
                {
                    "name": "B3",
                    "midi": 59,
                    "time": 341.73943800000245,
                    "velocity": 0.6377952755905512,
                    "duration": 0.10869574999998122
                },
                {
                    "name": "D3",
                    "midi": 50,
                    "time": 341.9568295000024,
                    "velocity": 0.6377952755905512,
                    "duration": 0.10869574999998122
                },
                {
                    "name": "B3",
                    "midi": 59,
                    "time": 341.9568295000024,
                    "velocity": 0.7637795275590551,
                    "duration": 0.10869574999998122
                },
                {
                    "name": "F#3",
                    "midi": 54,
                    "time": 341.9568295000024,
                    "velocity": 0.6377952755905512,
                    "duration": 0.10869574999998122
                },
                {
                    "name": "B2",
                    "midi": 47,
                    "time": 342.5003082500024,
                    "velocity": 0.30708661417322836,
                    "duration": 0.10869574999998122
                },
                {
                    "name": "D4",
                    "midi": 62,
                    "time": 342.60900400000236,
                    "velocity": 0.3543307086614173,
                    "duration": 0.3260872500000005
                },
                {
                    "name": "B2",
                    "midi": 47,
                    "time": 342.93509125000236,
                    "velocity": 0.33070866141732286,
                    "duration": 0.10869574999998122
                },
                {
                    "name": "D4",
                    "midi": 62,
                    "time": 343.04378700000234,
                    "velocity": 0.3858267716535433,
                    "duration": 0.3260872500000005
                },
                {
                    "name": "B2",
                    "midi": 47,
                    "time": 343.36987425000234,
                    "velocity": 0.3543307086614173,
                    "duration": 0.10869574999998122
                },
                {
                    "name": "D4",
                    "midi": 62,
                    "time": 343.4785700000023,
                    "velocity": 0.41732283464566927,
                    "duration": 0.3260872500000005
                },
                {
                    "name": "G2",
                    "midi": 43,
                    "time": 343.8046572500023,
                    "velocity": 0.3543307086614173,
                    "duration": 0.10869574999998122
                },
                {
                    "name": "B3",
                    "midi": 59,
                    "time": 343.9133530000023,
                    "velocity": 0.4566929133858268,
                    "duration": 0.3260872500000005
                },
                {
                    "name": "G2",
                    "midi": 43,
                    "time": 344.2394402500023,
                    "velocity": 0.4015748031496063,
                    "duration": 0.10869574999998122
                },
                {
                    "name": "B3",
                    "midi": 59,
                    "time": 344.3481360000023,
                    "velocity": 0.44881889763779526,
                    "duration": 0.3260872500000005
                },
                {
                    "name": "G2",
                    "midi": 43,
                    "time": 344.6742232500023,
                    "velocity": 0.3858267716535433,
                    "duration": 0.10869574999998122
                },
                {
                    "name": "B3",
                    "midi": 59,
                    "time": 344.78291900000227,
                    "velocity": 0.4881889763779528,
                    "duration": 0.3260872500000005
                },
                {
                    "name": "G2",
                    "midi": 43,
                    "time": 345.10900625000227,
                    "velocity": 0.4251968503937008,
                    "duration": 0.10869574999998122
                },
                {
                    "name": "B3",
                    "midi": 59,
                    "time": 345.21770200000225,
                    "velocity": 0.48031496062992124,
                    "duration": 0.3260872500000005
                },
                {
                    "name": "C2",
                    "midi": 36,
                    "time": 345.54378925000225,
                    "velocity": 0.4094488188976378,
                    "duration": 0.10869574999998122
                },
                {
                    "name": "D#3",
                    "midi": 51,
                    "time": 345.65248500000223,
                    "velocity": 0.5275590551181102,
                    "duration": 0.3260872500000005
                },
                {
                    "name": "C2",
                    "midi": 36,
                    "time": 345.97857225000223,
                    "velocity": 0.4566929133858268,
                    "duration": 0.10869574999998122
                },
                {
                    "name": "D#3",
                    "midi": 51,
                    "time": 346.0872680000022,
                    "velocity": 0.5118110236220472,
                    "duration": 0.3260872500000005
                },
                {
                    "name": "C2",
                    "midi": 36,
                    "time": 346.4133552500022,
                    "velocity": 0.4330708661417323,
                    "duration": 0.10869574999998122
                },
                {
                    "name": "D#3",
                    "midi": 51,
                    "time": 346.5220510000022,
                    "velocity": 0.5590551181102362,
                    "duration": 0.3260872500000005
                },
                {
                    "name": "C2",
                    "midi": 36,
                    "time": 346.8481382500022,
                    "velocity": 0.48031496062992124,
                    "duration": 0.10869574999998122
                },
                {
                    "name": "D#3",
                    "midi": 51,
                    "time": 346.9568340000022,
                    "velocity": 0.5433070866141733,
                    "duration": 0.3260872500000005
                },
                {
                    "name": "F1",
                    "midi": 29,
                    "time": 347.2829212500022,
                    "velocity": 0.4566929133858268,
                    "duration": 0.10869574999998122
                },
                {
                    "name": "A2",
                    "midi": 45,
                    "time": 347.39161700000216,
                    "velocity": 0.5826771653543307,
                    "duration": 0.3260872500000005
                },
                {
                    "name": "F1",
                    "midi": 29,
                    "time": 347.71770425000216,
                    "velocity": 0.5039370078740157,
                    "duration": 0.10869574999998122
                },
                {
                    "name": "A2",
                    "midi": 45,
                    "time": 347.82640000000214,
                    "velocity": 0.5669291338582677,
                    "duration": 0.3260872500000005
                },
                {
                    "name": "F2",
                    "midi": 41,
                    "time": 348.15248725000214,
                    "velocity": 0.48031496062992124,
                    "duration": 0.10869574999998122
                },
                {
                    "name": "C2",
                    "midi": 36,
                    "time": 348.2611830000021,
                    "velocity": 0.6220472440944882,
                    "duration": 0.3260872500000005
                },
                {
                    "name": "F2",
                    "midi": 41,
                    "time": 348.5872702500021,
                    "velocity": 0.5354330708661418,
                    "duration": 0.10869574999998122
                },
                {
                    "name": "A1",
                    "midi": 33,
                    "time": 348.6959660000021,
                    "velocity": 0.5984251968503937,
                    "duration": 0.3260872500000005
                },
                {
                    "name": "F2",
                    "midi": 41,
                    "time": 349.0220532500021,
                    "velocity": 0.5118110236220472,
                    "duration": 0.10869574999998122
                },
                {
                    "name": "F#1",
                    "midi": 30,
                    "time": 349.1307490000021,
                    "velocity": 0.6535433070866141,
                    "duration": 0.3260872500000005
                },
                {
                    "name": "F2",
                    "midi": 41,
                    "time": 349.4568362500021,
                    "velocity": 0.5590551181102362,
                    "duration": 0.10869574999998122
                },
                {
                    "name": "F1",
                    "midi": 29,
                    "time": 349.56553200000207,
                    "velocity": 0.6141732283464567,
                    "duration": 0.21739150000001928
                },
                {
                    "name": "F2",
                    "midi": 41,
                    "time": 349.56553200000207,
                    "velocity": 0.6692913385826772,
                    "duration": 0.21739150000001928
                },
                {
                    "name": "F#5",
                    "midi": 78,
                    "time": 349.7829235000021,
                    "velocity": 0.3779527559055118,
                    "duration": 0.10869574999998122
                },
                {
                    "name": "F5",
                    "midi": 77,
                    "time": 349.89161925000207,
                    "velocity": 0.3779527559055118,
                    "duration": 0.10869574999998122
                },
                {
                    "name": "F#5",
                    "midi": 78,
                    "time": 350.00031500000205,
                    "velocity": 0.4251968503937008,
                    "duration": 0.21739150000001928
                },
                {
                    "name": "F5",
                    "midi": 77,
                    "time": 350.21770650000207,
                    "velocity": 0.3464566929133858,
                    "duration": 0.10869574999998122
                },
                {
                    "name": "E5",
                    "midi": 76,
                    "time": 350.32640225000205,
                    "velocity": 0.3464566929133858,
                    "duration": 0.10869574999998122
                },
                {
                    "name": "F5",
                    "midi": 77,
                    "time": 350.43509800000203,
                    "velocity": 0.3464566929133858,
                    "duration": 0.21739150000001928
                },
                {
                    "name": "F#4",
                    "midi": 66,
                    "time": 350.65248950000205,
                    "velocity": 0.33858267716535434,
                    "duration": 0.10869574999998122
                },
                {
                    "name": "F4",
                    "midi": 65,
                    "time": 350.76118525000203,
                    "velocity": 0.33858267716535434,
                    "duration": 0.10869574999998122
                },
                {
                    "name": "F#4",
                    "midi": 66,
                    "time": 350.869881000002,
                    "velocity": 0.4015748031496063,
                    "duration": 0.21739150000001928
                },
                {
                    "name": "F4",
                    "midi": 65,
                    "time": 351.08727250000203,
                    "velocity": 0.33858267716535434,
                    "duration": 0.10869574999998122
                },
                {
                    "name": "E4",
                    "midi": 64,
                    "time": 351.195968250002,
                    "velocity": 0.33858267716535434,
                    "duration": 0.10869574999998122
                },
                {
                    "name": "F3",
                    "midi": 53,
                    "time": 351.304664000002,
                    "velocity": 0.31496062992125984,
                    "duration": 0.21739150000001928
                },
                {
                    "name": "A3",
                    "midi": 57,
                    "time": 351.304664000002,
                    "velocity": 0.31496062992125984,
                    "duration": 0.21739150000001928
                },
                {
                    "name": "C4",
                    "midi": 60,
                    "time": 351.304664000002,
                    "velocity": 0.31496062992125984,
                    "duration": 0.21739150000001928
                },
                {
                    "name": "D#4",
                    "midi": 63,
                    "time": 351.304664000002,
                    "velocity": 0.4015748031496063,
                    "duration": 0.21739150000001928
                },
                {
                    "name": "F3",
                    "midi": 53,
                    "time": 351.630751250002,
                    "velocity": 0.33070866141732286,
                    "duration": 0.10869574999998122
                },
                {
                    "name": "A3",
                    "midi": 57,
                    "time": 351.739447000002,
                    "velocity": 0.4015748031496063,
                    "duration": 0.21739150000001928
                },
                {
                    "name": "C4",
                    "midi": 60,
                    "time": 352.065534250002,
                    "velocity": 0.31496062992125984,
                    "duration": 0.10869574999998122
                },
                {
                    "name": "F4",
                    "midi": 65,
                    "time": 352.17423000000196,
                    "velocity": 0.4015748031496063,
                    "duration": 0.21739150000001928
                },
                {
                    "name": "A4",
                    "midi": 69,
                    "time": 352.50031725000196,
                    "velocity": 0.33858267716535434,
                    "duration": 0.10869574999998122
                },
                {
                    "name": "C5",
                    "midi": 72,
                    "time": 352.60901300000194,
                    "velocity": 0.4015748031496063,
                    "duration": 0.21739150000001928
                },
                {
                    "name": "D#5",
                    "midi": 75,
                    "time": 352.82640450000196,
                    "velocity": 0.3543307086614173,
                    "duration": 0.10869574999998122
                },
                {
                    "name": "C5",
                    "midi": 72,
                    "time": 352.93510025000194,
                    "velocity": 0.3543307086614173,
                    "duration": 0.10869574999998122
                },
                {
                    "name": "G4",
                    "midi": 67,
                    "time": 353.0437960000019,
                    "velocity": 0.31496062992125984,
                    "duration": 0.10869574999998122
                },
                {
                    "name": "A4",
                    "midi": 69,
                    "time": 353.1524917500019,
                    "velocity": 0.31496062992125984,
                    "duration": 0.10869574999998122
                },
                {
                    "name": "A#4",
                    "midi": 70,
                    "time": 353.2611875000019,
                    "velocity": 0.3464566929133858,
                    "duration": 0.10869574999998122
                },
                {
                    "name": "G4",
                    "midi": 67,
                    "time": 353.36988325000186,
                    "velocity": 0.31496062992125984,
                    "duration": 0.10869574999998122
                },
                {
                    "name": "D#4",
                    "midi": 63,
                    "time": 353.47857900000184,
                    "velocity": 0.31496062992125984,
                    "duration": 0.10869574999998122
                },
                {
                    "name": "F4",
                    "midi": 65,
                    "time": 353.5872747500018,
                    "velocity": 0.31496062992125984,
                    "duration": 0.10869574999998122
                },
                {
                    "name": "G4",
                    "midi": 67,
                    "time": 353.6959705000018,
                    "velocity": 0.3543307086614173,
                    "duration": 0.10869574999998122
                },
                {
                    "name": "D#4",
                    "midi": 63,
                    "time": 353.8046662500018,
                    "velocity": 0.31496062992125984,
                    "duration": 0.10869574999998122
                },
                {
                    "name": "C4",
                    "midi": 60,
                    "time": 353.91336200000177,
                    "velocity": 0.31496062992125984,
                    "duration": 0.10869574999998122
                },
                {
                    "name": "D4",
                    "midi": 62,
                    "time": 354.02205775000175,
                    "velocity": 0.31496062992125984,
                    "duration": 0.10869574999998122
                },
                {
                    "name": "D#4",
                    "midi": 63,
                    "time": 354.13075350000173,
                    "velocity": 0.3543307086614173,
                    "duration": 0.10869574999998122
                },
                {
                    "name": "C4",
                    "midi": 60,
                    "time": 354.2394492500017,
                    "velocity": 0.31496062992125984,
                    "duration": 0.10869574999998122
                },
                {
                    "name": "A3",
                    "midi": 57,
                    "time": 354.3481450000017,
                    "velocity": 0.31496062992125984,
                    "duration": 0.10869574999998122
                },
                {
                    "name": "A#3",
                    "midi": 58,
                    "time": 354.4568407500017,
                    "velocity": 0.31496062992125984,
                    "duration": 0.10869574999998122
                },
                {
                    "name": "C4",
                    "midi": 60,
                    "time": 354.56553650000166,
                    "velocity": 0.3543307086614173,
                    "duration": 0.10869574999998122
                },
                {
                    "name": "A3",
                    "midi": 57,
                    "time": 354.67423225000164,
                    "velocity": 0.31496062992125984,
                    "duration": 0.10869574999998122
                },
                {
                    "name": "D4",
                    "midi": 62,
                    "time": 354.7829280000016,
                    "velocity": 0.4015748031496063,
                    "duration": 0.21739150000001928
                },
                {
                    "name": "F3",
                    "midi": 53,
                    "time": 354.7829280000016,
                    "velocity": 0.3779527559055118,
                    "duration": 0.21739150000001928
                },
                {
                    "name": "A#3",
                    "midi": 58,
                    "time": 354.7829280000016,
                    "velocity": 0.3779527559055118,
                    "duration": 0.21739150000001928
                },
                {
                    "name": "F3",
                    "midi": 53,
                    "time": 355.1090152500016,
                    "velocity": 0.33070866141732286,
                    "duration": 0.10869574999998122
                },
                {
                    "name": "A#3",
                    "midi": 58,
                    "time": 355.2177110000016,
                    "velocity": 0.4015748031496063,
                    "duration": 0.21739150000001928
                },
                {
                    "name": "D4",
                    "midi": 62,
                    "time": 355.5437982500016,
                    "velocity": 0.31496062992125984,
                    "duration": 0.10869574999998122
                },
                {
                    "name": "F4",
                    "midi": 65,
                    "time": 355.6524940000016,
                    "velocity": 0.4015748031496063,
                    "duration": 0.21739150000001928
                },
                {
                    "name": "A#4",
                    "midi": 70,
                    "time": 355.9785812500016,
                    "velocity": 0.33858267716535434,
                    "duration": 0.10869574999998122
                },
                {
                    "name": "D5",
                    "midi": 74,
                    "time": 356.08727700000156,
                    "velocity": 0.4015748031496063,
                    "duration": 0.21739150000001928
                },
                {
                    "name": "D4",
                    "midi": 62,
                    "time": 356.3046685000016,
                    "velocity": 0.3543307086614173,
                    "duration": 0.10869574999998122
                },
                {
                    "name": "A#3",
                    "midi": 58,
                    "time": 356.41336425000156,
                    "velocity": 0.3543307086614173,
                    "duration": 0.10869574999998122
                },
                {
                    "name": "A#4",
                    "midi": 70,
                    "time": 356.52206000000155,
                    "velocity": 0.31496062992125984,
                    "duration": 0.10869574999998122
                },
                {
                    "name": "C5",
                    "midi": 72,
                    "time": 356.6307557500015,
                    "velocity": 0.31496062992125984,
                    "duration": 0.10869574999998122
                },
                {
                    "name": "D5",
                    "midi": 74,
                    "time": 356.7394515000015,
                    "velocity": 0.3464566929133858,
                    "duration": 0.10869574999998122
                },
                {
                    "name": "A#4",
                    "midi": 70,
                    "time": 356.8481472500015,
                    "velocity": 0.31496062992125984,
                    "duration": 0.10869574999998122
                },
                {
                    "name": "D4",
                    "midi": 62,
                    "time": 356.95684300000147,
                    "velocity": 0.31496062992125984,
                    "duration": 0.10869574999998122
                },
                {
                    "name": "D#4",
                    "midi": 63,
                    "time": 357.06553875000145,
                    "velocity": 0.31496062992125984,
                    "duration": 0.10869574999998122
                },
                {
                    "name": "F4",
                    "midi": 65,
                    "time": 357.17423450000143,
                    "velocity": 0.3543307086614173,
                    "duration": 0.10869574999998122
                },
                {
                    "name": "D4",
                    "midi": 62,
                    "time": 357.2829302500014,
                    "velocity": 0.31496062992125984,
                    "duration": 0.10869574999998122
                },
                {
                    "name": "A#3",
                    "midi": 58,
                    "time": 357.3916260000014,
                    "velocity": 0.31496062992125984,
                    "duration": 0.10869574999998122
                },
                {
                    "name": "C4",
                    "midi": 60,
                    "time": 357.5003217500014,
                    "velocity": 0.31496062992125984,
                    "duration": 0.10869574999998122
                },
                {
                    "name": "D4",
                    "midi": 62,
                    "time": 357.60901750000136,
                    "velocity": 0.3543307086614173,
                    "duration": 0.10869574999998122
                },
                {
                    "name": "A#3",
                    "midi": 58,
                    "time": 357.71771325000134,
                    "velocity": 0.31496062992125984,
                    "duration": 0.1068841541666643
                },
                {
                    "name": "D5",
                    "midi": 74,
                    "time": 357.8264090000013,
                    "velocity": 0.31496062992125984,
                    "duration": 0.10869574999998122
                },
                {
                    "name": "D#5",
                    "midi": 75,
                    "time": 357.9351047500013,
                    "velocity": 0.31496062992125984,
                    "duration": 0.10869574999998122
                },
                {
                    "name": "F5",
                    "midi": 77,
                    "time": 358.0438005000013,
                    "velocity": 0.3543307086614173,
                    "duration": 0.10869574999998122
                },
                {
                    "name": "D5",
                    "midi": 74,
                    "time": 358.15249625000126,
                    "velocity": 0.31496062992125984,
                    "duration": 0.10869574999998122
                },
                {
                    "name": "D#5",
                    "midi": 75,
                    "time": 358.26119200000124,
                    "velocity": 0.31496062992125984,
                    "duration": 0.10869574999998122
                },
                {
                    "name": "F5",
                    "midi": 77,
                    "time": 358.3698877500012,
                    "velocity": 0.31496062992125984,
                    "duration": 0.10869574999998122
                },
                {
                    "name": "D#5",
                    "midi": 75,
                    "time": 358.4785835000012,
                    "velocity": 0.3543307086614173,
                    "duration": 0.10869574999998122
                },
                {
                    "name": "D5",
                    "midi": 74,
                    "time": 358.5872792500012,
                    "velocity": 0.31496062992125984,
                    "duration": 0.10869574999998122
                },
                {
                    "name": "D#5",
                    "midi": 75,
                    "time": 358.69597500000117,
                    "velocity": 0.31496062992125984,
                    "duration": 0.10869574999998122
                },
                {
                    "name": "F5",
                    "midi": 77,
                    "time": 358.80467075000115,
                    "velocity": 0.31496062992125984,
                    "duration": 0.10869574999998122
                },
                {
                    "name": "G5",
                    "midi": 79,
                    "time": 358.91336650000113,
                    "velocity": 0.3543307086614173,
                    "duration": 0.10869574999998122
                },
                {
                    "name": "D#5",
                    "midi": 75,
                    "time": 359.0220622500011,
                    "velocity": 0.31496062992125984,
                    "duration": 0.10869574999998122
                },
                {
                    "name": "C5",
                    "midi": 72,
                    "time": 359.1307580000011,
                    "velocity": 0.36220472440944884,
                    "duration": 0.10869574999998122
                },
                {
                    "name": "D5",
                    "midi": 74,
                    "time": 359.2394537500011,
                    "velocity": 0.2992125984251969,
                    "duration": 0.10869574999998122
                },
                {
                    "name": "D#5",
                    "midi": 75,
                    "time": 359.34814950000106,
                    "velocity": 0.3543307086614173,
                    "duration": 0.10869574999998122
                },
                {
                    "name": "C5",
                    "midi": 72,
                    "time": 359.45684525000104,
                    "velocity": 0.31496062992125984,
                    "duration": 0.10869574999998122
                },
                {
                    "name": "A4",
                    "midi": 69,
                    "time": 359.565541000001,
                    "velocity": 0.3543307086614173,
                    "duration": 0.10869574999998122
                },
                {
                    "name": "A#4",
                    "midi": 70,
                    "time": 359.674236750001,
                    "velocity": 0.28346456692913385,
                    "duration": 0.10869574999998122
                },
                {
                    "name": "C5",
                    "midi": 72,
                    "time": 359.782932500001,
                    "velocity": 0.3228346456692913,
                    "duration": 0.10869574999998122
                },
                {
                    "name": "A4",
                    "midi": 69,
                    "time": 359.89162825000096,
                    "velocity": 0.28346456692913385,
                    "duration": 0.10869574999998122
                },
                {
                    "name": "D#4",
                    "midi": 63,
                    "time": 360.00032400000094,
                    "velocity": 0.36220472440944884,
                    "duration": 0.10869574999998122
                },
                {
                    "name": "F4",
                    "midi": 65,
                    "time": 360.1090197500009,
                    "velocity": 0.2992125984251969,
                    "duration": 0.10869574999998122
                },
                {
                    "name": "F#4",
                    "midi": 66,
                    "time": 360.2177155000009,
                    "velocity": 0.3543307086614173,
                    "duration": 0.10869574999998122
                },
                {
                    "name": "D#4",
                    "midi": 63,
                    "time": 360.3264112500009,
                    "velocity": 0.31496062992125984,
                    "duration": 0.10869574999998122
                },
                {
                    "name": "C4",
                    "midi": 60,
                    "time": 360.43510700000087,
                    "velocity": 0.3543307086614173,
                    "duration": 0.10869574999998122
                },
                {
                    "name": "D4",
                    "midi": 62,
                    "time": 360.54380275000085,
                    "velocity": 0.28346456692913385,
                    "duration": 0.10869574999998122
                },
                {
                    "name": "D#4",
                    "midi": 63,
                    "time": 360.65249850000083,
                    "velocity": 0.3228346456692913,
                    "duration": 0.10869574999998122
                },
                {
                    "name": "C4",
                    "midi": 60,
                    "time": 360.7611942500008,
                    "velocity": 0.28346456692913385,
                    "duration": 0.10869574999998122
                },
                {
                    "name": "A3",
                    "midi": 57,
                    "time": 360.8698900000008,
                    "velocity": 0.36220472440944884,
                    "duration": 0.10869574999998122
                },
                {
                    "name": "A#3",
                    "midi": 58,
                    "time": 360.9785857500008,
                    "velocity": 0.2992125984251969,
                    "duration": 0.10869574999998122
                },
                {
                    "name": "C4",
                    "midi": 60,
                    "time": 361.08728150000076,
                    "velocity": 0.3543307086614173,
                    "duration": 0.10869574999998122
                },
                {
                    "name": "A3",
                    "midi": 57,
                    "time": 361.19597725000074,
                    "velocity": 0.31496062992125984,
                    "duration": 0.10869574999998122
                },
                {
                    "name": "C5",
                    "midi": 72,
                    "time": 361.3046730000007,
                    "velocity": 0.3543307086614173,
                    "duration": 0.10869574999998122
                },
                {
                    "name": "A#4",
                    "midi": 70,
                    "time": 361.4133687500007,
                    "velocity": 0.28346456692913385,
                    "duration": 0.10869574999998122
                },
                {
                    "name": "A4",
                    "midi": 69,
                    "time": 361.5220645000007,
                    "velocity": 0.3228346456692913,
                    "duration": 0.10869574999998122
                },
                {
                    "name": "C5",
                    "midi": 72,
                    "time": 361.63076025000066,
                    "velocity": 0.28346456692913385,
                    "duration": 0.10869574999998122
                },
                {
                    "name": "D5",
                    "midi": 74,
                    "time": 361.73945600000064,
                    "velocity": 0.31496062992125984,
                    "duration": 0.10869574999998122
                },
                {
                    "name": "D#5",
                    "midi": 75,
                    "time": 361.8481517500006,
                    "velocity": 0.31496062992125984,
                    "duration": 0.10869574999998122
                },
                {
                    "name": "D5",
                    "midi": 74,
                    "time": 361.9568475000006,
                    "velocity": 0.3543307086614173,
                    "duration": 0.10869574999998122
                },
                {
                    "name": "C5",
                    "midi": 72,
                    "time": 362.0655432500006,
                    "velocity": 0.31496062992125984,
                    "duration": 0.10869574999998122
                },
                {
                    "name": "D5",
                    "midi": 74,
                    "time": 362.17423900000057,
                    "velocity": 0.31496062992125984,
                    "duration": 0.10869574999998122
                },
                {
                    "name": "D#5",
                    "midi": 75,
                    "time": 362.28293475000055,
                    "velocity": 0.31496062992125984,
                    "duration": 0.10869574999998122
                },
                {
                    "name": "F5",
                    "midi": 77,
                    "time": 362.39163050000053,
                    "velocity": 0.3543307086614173,
                    "duration": 0.10869574999998122
                },
                {
                    "name": "D5",
                    "midi": 74,
                    "time": 362.5003262500005,
                    "velocity": 0.31496062992125984,
                    "duration": 0.10869574999998122
                },
                {
                    "name": "A#4",
                    "midi": 70,
                    "time": 362.6090220000005,
                    "velocity": 0.36220472440944884,
                    "duration": 0.10869574999998122
                },
                {
                    "name": "C5",
                    "midi": 72,
                    "time": 362.7177177500005,
                    "velocity": 0.2992125984251969,
                    "duration": 0.10869574999998122
                },
                {
                    "name": "D5",
                    "midi": 74,
                    "time": 362.82641350000046,
                    "velocity": 0.3543307086614173,
                    "duration": 0.10869574999998122
                },
                {
                    "name": "A#4",
                    "midi": 70,
                    "time": 362.93510925000044,
                    "velocity": 0.31496062992125984,
                    "duration": 0.10869574999998122
                },
                {
                    "name": "F4",
                    "midi": 65,
                    "time": 363.0438050000004,
                    "velocity": 0.3543307086614173,
                    "duration": 0.10869574999998122
                },
                {
                    "name": "A4",
                    "midi": 69,
                    "time": 363.1525007500004,
                    "velocity": 0.28346456692913385,
                    "duration": 0.10869574999998122
                },
                {
                    "name": "A#4",
                    "midi": 70,
                    "time": 363.2611965000004,
                    "velocity": 0.3228346456692913,
                    "duration": 0.10869574999998122
                },
                {
                    "name": "F4",
                    "midi": 65,
                    "time": 363.36989225000036,
                    "velocity": 0.28346456692913385,
                    "duration": 0.10869574999998122
                },
                {
                    "name": "D4",
                    "midi": 62,
                    "time": 363.47858800000034,
                    "velocity": 0.36220472440944884,
                    "duration": 0.10869574999998122
                },
                {
                    "name": "D#4",
                    "midi": 63,
                    "time": 363.5872837500003,
                    "velocity": 0.2992125984251969,
                    "duration": 0.10869574999998122
                },
                {
                    "name": "F4",
                    "midi": 65,
                    "time": 363.6959795000003,
                    "velocity": 0.3543307086614173,
                    "duration": 0.10869574999998122
                },
                {
                    "name": "D4",
                    "midi": 62,
                    "time": 363.8046752500003,
                    "velocity": 0.31496062992125984,
                    "duration": 0.10869574999998122
                },
                {
                    "name": "A#3",
                    "midi": 58,
                    "time": 363.91337100000027,
                    "velocity": 0.3543307086614173,
                    "duration": 0.10869574999998122
                },
                {
                    "name": "C4",
                    "midi": 60,
                    "time": 364.02206675000025,
                    "velocity": 0.28346456692913385,
                    "duration": 0.10869574999998122
                },
                {
                    "name": "D4",
                    "midi": 62,
                    "time": 364.13076250000023,
                    "velocity": 0.3228346456692913,
                    "duration": 0.10869574999998122
                },
                {
                    "name": "A#3",
                    "midi": 58,
                    "time": 364.2394582500002,
                    "velocity": 0.28346456692913385,
                    "duration": 0.10869574999998122
                },
                {
                    "name": "F3",
                    "midi": 53,
                    "time": 364.3481540000002,
                    "velocity": 0.36220472440944884,
                    "duration": 0.10869574999998122
                },
                {
                    "name": "A3",
                    "midi": 57,
                    "time": 364.4568497500002,
                    "velocity": 0.2992125984251969,
                    "duration": 0.10869574999998122
                },
                {
                    "name": "A#3",
                    "midi": 58,
                    "time": 364.56554550000016,
                    "velocity": 0.3543307086614173,
                    "duration": 0.10869574999998122
                },
                {
                    "name": "F3",
                    "midi": 53,
                    "time": 364.67424125000014,
                    "velocity": 0.31496062992125984,
                    "duration": 0.10869574999998122
                },
                {
                    "name": "D#3",
                    "midi": 51,
                    "time": 364.7829370000001,
                    "velocity": 0.3543307086614173,
                    "duration": 0.10869574999998122
                },
                {
                    "name": "A#3",
                    "midi": 58,
                    "time": 364.8916327500001,
                    "velocity": 0.28346456692913385,
                    "duration": 0.10869574999998122
                },
                {
                    "name": "F3",
                    "midi": 53,
                    "time": 365.0003285000001,
                    "velocity": 0.3228346456692913,
                    "duration": 0.10869574999998122
                },
                {
                    "name": "D#3",
                    "midi": 51,
                    "time": 365.10902425000006,
                    "velocity": 0.28346456692913385,
                    "duration": 0.10869574999998122
                },
                {
                    "name": "D3",
                    "midi": 50,
                    "time": 365.21772000000004,
                    "velocity": 0.28346456692913385,
                    "duration": 0.21739150000001928
                },
                {
                    "name": "A#2",
                    "midi": 46,
                    "time": 365.43511150000006,
                    "velocity": 0.2677165354330709,
                    "duration": 0.21739150000001928
                },
                {
                    "name": "A#3",
                    "midi": 58,
                    "time": 365.43511150000006,
                    "velocity": 0.31496062992125984,
                    "duration": 0.21739150000001928
                },
                {
                    "name": "G3",
                    "midi": 55,
                    "time": 365.6525030000001,
                    "velocity": 0.28346456692913385,
                    "duration": 0.10869574999998122
                },
                {
                    "name": "D#3",
                    "midi": 51,
                    "time": 365.6525030000001,
                    "velocity": 0.23622047244094488,
                    "duration": 0.10869574999998122
                },
                {
                    "name": "D#4",
                    "midi": 63,
                    "time": 365.86989450000004,
                    "velocity": 0.31496062992125984,
                    "duration": 0.10869574999998122
                },
                {
                    "name": "C4",
                    "midi": 60,
                    "time": 365.97859025,
                    "velocity": 0.28346456692913385,
                    "duration": 0.10869574999998122
                },
                {
                    "name": "A3",
                    "midi": 57,
                    "time": 366.087286,
                    "velocity": 0.28346456692913385,
                    "duration": 0.21739150000001928
                },
                {
                    "name": "F3",
                    "midi": 53,
                    "time": 366.3046775,
                    "velocity": 0.2677165354330709,
                    "duration": 0.21739150000001928
                },
                {
                    "name": "F4",
                    "midi": 65,
                    "time": 366.3046775,
                    "velocity": 0.28346456692913385,
                    "duration": 0.21739150000001928
                },
                {
                    "name": "D4",
                    "midi": 62,
                    "time": 366.52206900000004,
                    "velocity": 0.28346456692913385,
                    "duration": 0.10869574999998122
                },
                {
                    "name": "A#3",
                    "midi": 58,
                    "time": 366.52206900000004,
                    "velocity": 0.23622047244094488,
                    "duration": 0.10869574999998122
                },
                {
                    "name": "E4",
                    "midi": 64,
                    "time": 367.17424350000005,
                    "velocity": 0.23622047244094488,
                    "duration": 0.21739150000001928
                },
                {
                    "name": "C#4",
                    "midi": 61,
                    "time": 367.17424350000005,
                    "velocity": 0.2047244094488189,
                    "duration": 0.21739150000001928
                },
                {
                    "name": "A#3",
                    "midi": 58,
                    "time": 367.17424350000005,
                    "velocity": 0.2047244094488189,
                    "duration": 0.21739150000001928
                },
                {
                    "name": "G4",
                    "midi": 67,
                    "time": 367.17424350000005,
                    "velocity": 0.28346456692913385,
                    "duration": 0.21739150000001928
                },
                {
                    "name": "F4",
                    "midi": 65,
                    "time": 367.39163500000006,
                    "velocity": 0.2677165354330709,
                    "duration": 0.21739150000001928
                },
                {
                    "name": "A4",
                    "midi": 69,
                    "time": 367.39163500000006,
                    "velocity": 0.31496062992125984,
                    "duration": 0.21739150000001928
                },
                {
                    "name": "C4",
                    "midi": 60,
                    "time": 367.39163500000006,
                    "velocity": 0.2677165354330709,
                    "duration": 0.21739150000001928
                },
                {
                    "name": "G4",
                    "midi": 67,
                    "time": 367.6090265000001,
                    "velocity": 0.2125984251968504,
                    "duration": 0.10869574999998122
                },
                {
                    "name": "C4",
                    "midi": 60,
                    "time": 367.6090265000001,
                    "velocity": 0.1968503937007874,
                    "duration": 0.21739149999996243
                },
                {
                    "name": "A#4",
                    "midi": 70,
                    "time": 367.6090265000001,
                    "velocity": 0.23622047244094488,
                    "duration": 0.10869574999998122
                },
                {
                    "name": "C5",
                    "midi": 72,
                    "time": 367.71772225000007,
                    "velocity": 0.28346456692913385,
                    "duration": 0.10869574999998122
                },
                {
                    "name": "C5",
                    "midi": 72,
                    "time": 367.82641800000005,
                    "velocity": 0.28346456692913385,
                    "duration": 0.21739150000001928
                },
                {
                    "name": "F4",
                    "midi": 65,
                    "time": 367.82641800000005,
                    "velocity": 0.23622047244094488,
                    "duration": 0.21739150000001928
                },
                {
                    "name": "F4",
                    "midi": 65,
                    "time": 368.04380950000007,
                    "velocity": 0.23622047244094488,
                    "duration": 0.21739150000001928
                },
                {
                    "name": "D5",
                    "midi": 74,
                    "time": 368.04380950000007,
                    "velocity": 0.28346456692913385,
                    "duration": 0.16304362500000025
                },
                {
                    "name": "E5",
                    "midi": 76,
                    "time": 368.20685312500007,
                    "velocity": 0.2440944881889764,
                    "duration": 0.05434787500001903
                },
                {
                    "name": "F4",
                    "midi": 65,
                    "time": 368.2612010000001,
                    "velocity": 0.23622047244094488,
                    "duration": 0.21739150000001928
                },
                {
                    "name": "F5",
                    "midi": 77,
                    "time": 368.2612010000001,
                    "velocity": 0.28346456692913385,
                    "duration": 0.21739150000001928
                },
                {
                    "name": "G4",
                    "midi": 67,
                    "time": 368.4785925000001,
                    "velocity": 0.29133858267716534,
                    "duration": 0.10869574999998122
                },
                {
                    "name": "A4",
                    "midi": 69,
                    "time": 368.5872882500001,
                    "velocity": 0.28346456692913385,
                    "duration": 0.10869574999998122
                },
                {
                    "name": "A#4",
                    "midi": 70,
                    "time": 368.69598400000007,
                    "velocity": 0.28346456692913385,
                    "duration": 0.21557990416664552
                },
                {
                    "name": "F4",
                    "midi": 65,
                    "time": 368.91337550000003,
                    "velocity": 0.28346456692913385,
                    "duration": 0.21739150000001928
                },
                {
                    "name": "D4",
                    "midi": 62,
                    "time": 368.91337550000003,
                    "velocity": 0.23622047244094488,
                    "duration": 0.21739150000001928
                },
                {
                    "name": "D#4",
                    "midi": 63,
                    "time": 369.13076700000005,
                    "velocity": 0.23622047244094488,
                    "duration": 0.10869574999998122
                },
                {
                    "name": "G4",
                    "midi": 67,
                    "time": 369.13076700000005,
                    "velocity": 0.28346456692913385,
                    "duration": 0.10869574999998122
                },
                {
                    "name": "C5",
                    "midi": 72,
                    "time": 369.3481585,
                    "velocity": 0.28346456692913385,
                    "duration": 0.10869574999998122
                },
                {
                    "name": "D#5",
                    "midi": 75,
                    "time": 369.45685425,
                    "velocity": 0.25196850393700787,
                    "duration": 0.10869574999998122
                },
                {
                    "name": "F5",
                    "midi": 77,
                    "time": 369.56555,
                    "velocity": 0.28346456692913385,
                    "duration": 0.21557990416664552
                },
                {
                    "name": "A4",
                    "midi": 69,
                    "time": 369.78294149999994,
                    "velocity": 0.23622047244094488,
                    "duration": 0.21739150000001928
                },
                {
                    "name": "C5",
                    "midi": 72,
                    "time": 369.78294149999994,
                    "velocity": 0.28346456692913385,
                    "duration": 0.21739150000001928
                },
                {
                    "name": "A#4",
                    "midi": 70,
                    "time": 370.00033299999996,
                    "velocity": 0.23622047244094488,
                    "duration": 0.10869574999998122
                },
                {
                    "name": "D5",
                    "midi": 74,
                    "time": 370.00033299999996,
                    "velocity": 0.28346456692913385,
                    "duration": 0.10869574999998122
                },
                {
                    "name": "G4",
                    "midi": 67,
                    "time": 370.2177244999999,
                    "velocity": 0.3228346456692913,
                    "duration": 0.10869574999998122
                },
                {
                    "name": "F#4",
                    "midi": 66,
                    "time": 370.3264202499999,
                    "velocity": 0.28346456692913385,
                    "duration": 0.10869574999998122
                },
                {
                    "name": "G4",
                    "midi": 67,
                    "time": 370.4351159999999,
                    "velocity": 0.28346456692913385,
                    "duration": 0.21739150000001928
                },
                {
                    "name": "D#5",
                    "midi": 75,
                    "time": 370.6525074999999,
                    "velocity": 0.28346456692913385,
                    "duration": 0.21739150000001928
                },
                {
                    "name": "A#4",
                    "midi": 70,
                    "time": 370.6525074999999,
                    "velocity": 0.23622047244094488,
                    "duration": 0.21739150000001928
                },
                {
                    "name": "G4",
                    "midi": 67,
                    "time": 370.6525074999999,
                    "velocity": 0.23622047244094488,
                    "duration": 0.21739150000001928
                },
                {
                    "name": "G4",
                    "midi": 67,
                    "time": 370.8698989999999,
                    "velocity": 0.23622047244094488,
                    "duration": 0.21739150000001928
                },
                {
                    "name": "C5",
                    "midi": 72,
                    "time": 370.8698989999999,
                    "velocity": 0.28346456692913385,
                    "duration": 0.21739150000001928
                },
                {
                    "name": "A4",
                    "midi": 69,
                    "time": 371.08729049999994,
                    "velocity": 0.23622047244094488,
                    "duration": 0.21557990416664552
                },
                {
                    "name": "F#4",
                    "midi": 66,
                    "time": 371.08729049999994,
                    "velocity": 0.23622047244094488,
                    "duration": 0.21557990416664552
                },
                {
                    "name": "A4",
                    "midi": 69,
                    "time": 371.3046819999999,
                    "velocity": 0.23622047244094488,
                    "duration": 0.21739150000001928
                },
                {
                    "name": "F#4",
                    "midi": 66,
                    "time": 371.3046819999999,
                    "velocity": 0.23622047244094488,
                    "duration": 0.21739150000001928
                },
                {
                    "name": "F#4",
                    "midi": 66,
                    "time": 371.5220734999999,
                    "velocity": 0.2440944881889764,
                    "duration": 0.21739150000001928
                },
                {
                    "name": "D4",
                    "midi": 62,
                    "time": 371.5220734999999,
                    "velocity": 0.2047244094488189,
                    "duration": 0.21739150000001928
                },
                {
                    "name": "G4",
                    "midi": 67,
                    "time": 371.73946499999994,
                    "velocity": 0.23622047244094488,
                    "duration": 0.21739150000001928
                },
                {
                    "name": "A#4",
                    "midi": 70,
                    "time": 371.73946499999994,
                    "velocity": 0.28346456692913385,
                    "duration": 0.21739150000001928
                },
                {
                    "name": "F4",
                    "midi": 65,
                    "time": 371.95685649999996,
                    "velocity": 0.2677165354330709,
                    "duration": 0.10869574999998122
                },
                {
                    "name": "G#4",
                    "midi": 68,
                    "time": 371.95685649999996,
                    "velocity": 0.31496062992125984,
                    "duration": 0.10869574999998122
                },
                {
                    "name": "G4",
                    "midi": 67,
                    "time": 372.06555224999994,
                    "velocity": 0.28346456692913385,
                    "duration": 0.10778995208335118
                },
                {
                    "name": "E4",
                    "midi": 64,
                    "time": 372.06555224999994,
                    "velocity": 0.23622047244094488,
                    "duration": 0.10778995208335118
                },
                {
                    "name": "E4",
                    "midi": 64,
                    "time": 372.174248,
                    "velocity": 0.23622047244094488,
                    "duration": 0.21739150000001928
                },
                {
                    "name": "G4",
                    "midi": 67,
                    "time": 372.174248,
                    "velocity": 0.28346456692913385,
                    "duration": 0.21739150000001928
                },
                {
                    "name": "C4",
                    "midi": 60,
                    "time": 372.3916395,
                    "velocity": 0.2047244094488189,
                    "duration": 0.21739150000001928
                },
                {
                    "name": "E4",
                    "midi": 64,
                    "time": 372.3916395,
                    "velocity": 0.2440944881889764,
                    "duration": 0.21739150000001928
                },
                {
                    "name": "F4",
                    "midi": 65,
                    "time": 372.609031,
                    "velocity": 0.23622047244094488,
                    "duration": 0.21739150000001928
                },
                {
                    "name": "G#4",
                    "midi": 68,
                    "time": 372.609031,
                    "velocity": 0.28346456692913385,
                    "duration": 0.21739150000001928
                },
                {
                    "name": "F#4",
                    "midi": 66,
                    "time": 372.82642250000004,
                    "velocity": 0.31496062992125984,
                    "duration": 0.10869574999998122
                },
                {
                    "name": "D#4",
                    "midi": 63,
                    "time": 372.82642250000004,
                    "velocity": 0.2677165354330709,
                    "duration": 0.10869574999998122
                },
                {
                    "name": "F4",
                    "midi": 65,
                    "time": 372.93511825,
                    "velocity": 0.28346456692913385,
                    "duration": 0.10778995208335118
                },
                {
                    "name": "D4",
                    "midi": 62,
                    "time": 372.93511825,
                    "velocity": 0.23622047244094488,
                    "duration": 0.10778995208335118
                },
                {
                    "name": "D4",
                    "midi": 62,
                    "time": 373.04381400000005,
                    "velocity": 0.23622047244094488,
                    "duration": 0.21739150000001928
                },
                {
                    "name": "F4",
                    "midi": 65,
                    "time": 373.04381400000005,
                    "velocity": 0.28346456692913385,
                    "duration": 0.21739150000001928
                },
                {
                    "name": "D4",
                    "midi": 62,
                    "time": 373.2612055000001,
                    "velocity": 0.2440944881889764,
                    "duration": 0.21739150000001928
                },
                {
                    "name": "A#3",
                    "midi": 58,
                    "time": 373.2612055000001,
                    "velocity": 0.2047244094488189,
                    "duration": 0.21739150000001928
                },
                {
                    "name": "D#4",
                    "midi": 63,
                    "time": 373.4785970000001,
                    "velocity": 0.23622047244094488,
                    "duration": 0.21739150000001928
                },
                {
                    "name": "G4",
                    "midi": 67,
                    "time": 373.4785970000001,
                    "velocity": 0.28346456692913385,
                    "duration": 0.21739150000001928
                },
                {
                    "name": "F4",
                    "midi": 65,
                    "time": 373.6959885000001,
                    "velocity": 0.31496062992125984,
                    "duration": 0.10869574999998122
                },
                {
                    "name": "D4",
                    "midi": 62,
                    "time": 373.6959885000001,
                    "velocity": 0.2677165354330709,
                    "duration": 0.10869574999998122
                },
                {
                    "name": "C#4",
                    "midi": 61,
                    "time": 373.8046842500001,
                    "velocity": 0.23622047244094488,
                    "duration": 0.10778995208335118
                },
                {
                    "name": "E4",
                    "midi": 64,
                    "time": 373.8046842500001,
                    "velocity": 0.28346456692913385,
                    "duration": 0.10778995208335118
                },
                {
                    "name": "C#4",
                    "midi": 61,
                    "time": 373.91338000000013,
                    "velocity": 0.23622047244094488,
                    "duration": 0.21739150000001928
                },
                {
                    "name": "E4",
                    "midi": 64,
                    "time": 373.91338000000013,
                    "velocity": 0.28346456692913385,
                    "duration": 0.21739150000001928
                },
                {
                    "name": "C#4",
                    "midi": 61,
                    "time": 374.13077150000015,
                    "velocity": 0.2440944881889764,
                    "duration": 0.21739150000001928
                },
                {
                    "name": "A3",
                    "midi": 57,
                    "time": 374.13077150000015,
                    "velocity": 0.2047244094488189,
                    "duration": 0.21739150000001928
                },
                {
                    "name": "F4",
                    "midi": 65,
                    "time": 374.34816300000017,
                    "velocity": 0.28346456692913385,
                    "duration": 0.21739150000001928
                },
                {
                    "name": "D4",
                    "midi": 62,
                    "time": 374.34816300000017,
                    "velocity": 0.23622047244094488,
                    "duration": 0.21739150000001928
                },
                {
                    "name": "D#4",
                    "midi": 63,
                    "time": 374.5655545000002,
                    "velocity": 0.31496062992125984,
                    "duration": 0.10869574999998122
                },
                {
                    "name": "C4",
                    "midi": 60,
                    "time": 374.5655545000002,
                    "velocity": 0.2677165354330709,
                    "duration": 0.10869574999998122
                },
                {
                    "name": "D4",
                    "midi": 62,
                    "time": 374.67425025000017,
                    "velocity": 0.28346456692913385,
                    "duration": 0.10778995208335118
                },
                {
                    "name": "B3",
                    "midi": 59,
                    "time": 374.67425025000017,
                    "velocity": 0.23622047244094488,
                    "duration": 0.10778995208335118
                },
                {
                    "name": "D4",
                    "midi": 62,
                    "time": 374.7829460000002,
                    "velocity": 0.28346456692913385,
                    "duration": 0.21739150000001928
                },
                {
                    "name": "B3",
                    "midi": 59,
                    "time": 374.7829460000002,
                    "velocity": 0.23622047244094488,
                    "duration": 0.21739150000001928
                },
                {
                    "name": "C4",
                    "midi": 60,
                    "time": 375.0003375000002,
                    "velocity": 0.28346456692913385,
                    "duration": 0.10869574999998122
                },
                {
                    "name": "D#4",
                    "midi": 63,
                    "time": 375.0003375000002,
                    "velocity": 0.23622047244094488,
                    "duration": 0.21739149999996243
                },
                {
                    "name": "A#3",
                    "midi": 58,
                    "time": 375.1090332500002,
                    "velocity": 0.23622047244094488,
                    "duration": 0.10869574999998122
                },
                {
                    "name": "A3",
                    "midi": 57,
                    "time": 375.2177290000002,
                    "velocity": 0.23622047244094488,
                    "duration": 0.21739150000001928
                },
                {
                    "name": "C4",
                    "midi": 60,
                    "time": 375.2177290000002,
                    "velocity": 0.28346456692913385,
                    "duration": 0.21739150000001928
                },
                {
                    "name": "A#3",
                    "midi": 58,
                    "time": 375.4351205000002,
                    "velocity": 0.28346456692913385,
                    "duration": 0.10869574999998122
                },
                {
                    "name": "D4",
                    "midi": 62,
                    "time": 375.4351205000002,
                    "velocity": 0.23622047244094488,
                    "duration": 0.21739149999996243
                },
                {
                    "name": "D3",
                    "midi": 50,
                    "time": 375.5438162500002,
                    "velocity": 0.25196850393700787,
                    "duration": 0.10869574999998122
                },
                {
                    "name": "F3",
                    "midi": 53,
                    "time": 375.6525120000002,
                    "velocity": 0.1968503937007874,
                    "duration": 1.304349000000002
                },
                {
                    "name": "D#4",
                    "midi": 63,
                    "time": 375.6525120000002,
                    "velocity": 0.23622047244094488,
                    "duration": 1.304349000000002
                },
                {
                    "name": "C3",
                    "midi": 48,
                    "time": 375.6525120000002,
                    "velocity": 0.1968503937007874,
                    "duration": 1.304349000000002
                },
                {
                    "name": "D4",
                    "midi": 62,
                    "time": 376.9568610000002,
                    "velocity": 0.23622047244094488,
                    "duration": 0.4347829999999817
                },
                {
                    "name": "D3",
                    "midi": 50,
                    "time": 376.9568610000002,
                    "velocity": 0.1968503937007874,
                    "duration": 0.4347829999999817
                },
                {
                    "name": "F3",
                    "midi": 53,
                    "time": 376.9568610000002,
                    "velocity": 0.1968503937007874,
                    "duration": 0.4347829999999817
                },
                {
                    "name": "C2",
                    "midi": 36,
                    "time": 377.39164400000016,
                    "velocity": 0.1968503937007874,
                    "duration": 1.304349000000002
                },
                {
                    "name": "D#3",
                    "midi": 51,
                    "time": 377.39164400000016,
                    "velocity": 0.23622047244094488,
                    "duration": 1.304349000000002
                },
                {
                    "name": "F2",
                    "midi": 41,
                    "time": 377.39164400000016,
                    "velocity": 0.1968503937007874,
                    "duration": 1.304349000000002
                },
                {
                    "name": "D2",
                    "midi": 38,
                    "time": 378.69599300000016,
                    "velocity": 0.1968503937007874,
                    "duration": 0.4347829999999817
                },
                {
                    "name": "F2",
                    "midi": 41,
                    "time": 378.69599300000016,
                    "velocity": 0.1968503937007874,
                    "duration": 0.4347829999999817
                },
                {
                    "name": "D3",
                    "midi": 50,
                    "time": 378.69599300000016,
                    "velocity": 0.23622047244094488,
                    "duration": 0.4347829999999817
                },
                {
                    "name": "D3",
                    "midi": 50,
                    "time": 379.13077600000014,
                    "velocity": 0.23622047244094488,
                    "duration": 0.4347829999999817
                },
                {
                    "name": "D2",
                    "midi": 38,
                    "time": 379.13077600000014,
                    "velocity": 0.1968503937007874,
                    "duration": 0.4347829999999817
                },
                {
                    "name": "G2",
                    "midi": 43,
                    "time": 379.5655590000001,
                    "velocity": 0.18110236220472442,
                    "duration": 0.4347829999999817
                },
                {
                    "name": "G3",
                    "midi": 55,
                    "time": 379.5655590000001,
                    "velocity": 0.2204724409448819,
                    "duration": 0.4347829999999817
                },
                {
                    "name": "E3",
                    "midi": 52,
                    "time": 380.0003420000001,
                    "velocity": 0.23622047244094488,
                    "duration": 0.4347829999999817
                },
                {
                    "name": "E2",
                    "midi": 40,
                    "time": 380.0003420000001,
                    "velocity": 0.1968503937007874,
                    "duration": 0.4347829999999817
                },
                {
                    "name": "F3",
                    "midi": 53,
                    "time": 380.4351250000001,
                    "velocity": 0.2283464566929134,
                    "duration": 0.21739150000001928
                },
                {
                    "name": "F2",
                    "midi": 41,
                    "time": 380.4351250000001,
                    "velocity": 0.1889763779527559,
                    "duration": 0.21739150000001928
                },
                {
                    "name": "C4",
                    "midi": 60,
                    "time": 380.8699080000001,
                    "velocity": 0.1968503937007874,
                    "duration": 1.304349000000002
                },
                {
                    "name": "D#5",
                    "midi": 75,
                    "time": 380.8699080000001,
                    "velocity": 0.23622047244094488,
                    "duration": 1.304349000000002
                },
                {
                    "name": "F4",
                    "midi": 65,
                    "time": 380.8699080000001,
                    "velocity": 0.1968503937007874,
                    "duration": 1.304349000000002
                },
                {
                    "name": "D5",
                    "midi": 74,
                    "time": 382.1742570000001,
                    "velocity": 0.23622047244094488,
                    "duration": 0.4347829999999817
                },
                {
                    "name": "D4",
                    "midi": 62,
                    "time": 382.1742570000001,
                    "velocity": 0.1968503937007874,
                    "duration": 0.4347829999999817
                },
                {
                    "name": "F4",
                    "midi": 65,
                    "time": 382.1742570000001,
                    "velocity": 0.1968503937007874,
                    "duration": 0.4347829999999817
                },
                {
                    "name": "D#4",
                    "midi": 63,
                    "time": 382.6090400000001,
                    "velocity": 0.23622047244094488,
                    "duration": 1.304349000000002
                },
                {
                    "name": "C3",
                    "midi": 48,
                    "time": 382.6090400000001,
                    "velocity": 0.1968503937007874,
                    "duration": 1.304349000000002
                },
                {
                    "name": "F3",
                    "midi": 53,
                    "time": 382.6090400000001,
                    "velocity": 0.1968503937007874,
                    "duration": 1.304349000000002
                },
                {
                    "name": "D3",
                    "midi": 50,
                    "time": 383.9133890000001,
                    "velocity": 0.1968503937007874,
                    "duration": 0.4347829999999817
                },
                {
                    "name": "D4",
                    "midi": 62,
                    "time": 383.9133890000001,
                    "velocity": 0.23622047244094488,
                    "duration": 0.4347829999999817
                },
                {
                    "name": "F3",
                    "midi": 53,
                    "time": 383.9133890000001,
                    "velocity": 0.1968503937007874,
                    "duration": 0.4347829999999817
                },
                {
                    "name": "D3",
                    "midi": 50,
                    "time": 384.3481720000001,
                    "velocity": 0.1968503937007874,
                    "duration": 0.4347829999999817
                },
                {
                    "name": "D4",
                    "midi": 62,
                    "time": 384.3481720000001,
                    "velocity": 0.23622047244094488,
                    "duration": 0.4347829999999817
                },
                {
                    "name": "G3",
                    "midi": 55,
                    "time": 384.7829550000001,
                    "velocity": 0.18110236220472442,
                    "duration": 0.4347829999999817
                },
                {
                    "name": "G4",
                    "midi": 67,
                    "time": 384.7829550000001,
                    "velocity": 0.2204724409448819,
                    "duration": 0.4347829999999817
                },
                {
                    "name": "E3",
                    "midi": 52,
                    "time": 385.21773800000005,
                    "velocity": 0.1968503937007874,
                    "duration": 0.4347829999999817
                },
                {
                    "name": "E4",
                    "midi": 64,
                    "time": 385.21773800000005,
                    "velocity": 0.23622047244094488,
                    "duration": 0.4347829999999817
                },
                {
                    "name": "F3",
                    "midi": 53,
                    "time": 385.65252100000004,
                    "velocity": 0.1889763779527559,
                    "duration": 0.21739150000001928
                },
                {
                    "name": "F4",
                    "midi": 65,
                    "time": 385.65252100000004,
                    "velocity": 0.2283464566929134,
                    "duration": 0.21739150000001928
                },
                {
                    "name": "F#3",
                    "midi": 54,
                    "time": 385.86991250000005,
                    "velocity": 0.1889763779527559,
                    "duration": 0.21739150000001928
                },
                {
                    "name": "F#4",
                    "midi": 66,
                    "time": 385.86991250000005,
                    "velocity": 0.2283464566929134,
                    "duration": 0.21739150000001928
                },
                {
                    "name": "G3",
                    "midi": 55,
                    "time": 386.0873040000001,
                    "velocity": 0.2047244094488189,
                    "duration": 0.4347829999999817
                },
                {
                    "name": "G4",
                    "midi": 67,
                    "time": 386.0873040000001,
                    "velocity": 0.2440944881889764,
                    "duration": 0.4347829999999817
                },
                {
                    "name": "C4",
                    "midi": 60,
                    "time": 386.52208700000006,
                    "velocity": 0.1968503937007874,
                    "duration": 0.4347829999999817
                },
                {
                    "name": "C5",
                    "midi": 72,
                    "time": 386.52208700000006,
                    "velocity": 0.23622047244094488,
                    "duration": 0.4347829999999817
                },
                {
                    "name": "A3",
                    "midi": 57,
                    "time": 386.95687000000004,
                    "velocity": 0.2204724409448819,
                    "duration": 0.4347829999999817
                },
                {
                    "name": "A4",
                    "midi": 69,
                    "time": 386.95687000000004,
                    "velocity": 0.25984251968503935,
                    "duration": 0.4347829999999817
                },
                {
                    "name": "A#3",
                    "midi": 58,
                    "time": 387.391653,
                    "velocity": 0.2204724409448819,
                    "duration": 0.21739150000001928
                },
                {
                    "name": "A#4",
                    "midi": 70,
                    "time": 387.391653,
                    "velocity": 0.2677165354330709,
                    "duration": 0.21739150000001928
                },
                {
                    "name": "B3",
                    "midi": 59,
                    "time": 387.60904450000004,
                    "velocity": 0.2204724409448819,
                    "duration": 0.21739150000001928
                },
                {
                    "name": "B4",
                    "midi": 71,
                    "time": 387.60904450000004,
                    "velocity": 0.2677165354330709,
                    "duration": 0.21739150000001928
                },
                {
                    "name": "C4",
                    "midi": 60,
                    "time": 387.82643600000006,
                    "velocity": 0.23622047244094488,
                    "duration": 0.4347829999999817
                },
                {
                    "name": "C5",
                    "midi": 72,
                    "time": 387.82643600000006,
                    "velocity": 0.28346456692913385,
                    "duration": 0.4347829999999817
                },
                {
                    "name": "E4",
                    "midi": 64,
                    "time": 388.26121900000004,
                    "velocity": 0.2283464566929134,
                    "duration": 0.4347829999999817
                },
                {
                    "name": "E5",
                    "midi": 76,
                    "time": 388.26121900000004,
                    "velocity": 0.2755905511811024,
                    "duration": 0.4347829999999817
                },
                {
                    "name": "D4",
                    "midi": 62,
                    "time": 388.696002,
                    "velocity": 0.2677165354330709,
                    "duration": 0.4347829999999817
                },
                {
                    "name": "D5",
                    "midi": 74,
                    "time": 388.696002,
                    "velocity": 0.30708661417322836,
                    "duration": 0.4347829999999817
                },
                {
                    "name": "D#4",
                    "midi": 63,
                    "time": 389.130785,
                    "velocity": 0.30708661417322836,
                    "duration": 0.652174500000001
                },
                {
                    "name": "D#5",
                    "midi": 75,
                    "time": 389.130785,
                    "velocity": 0.30708661417322836,
                    "duration": 0.652174500000001
                },
                {
                    "name": "D#2",
                    "midi": 39,
                    "time": 389.7829595,
                    "velocity": 0.4409448818897638,
                    "duration": 0.21739150000001928
                },
                {
                    "name": "D#3",
                    "midi": 51,
                    "time": 389.7829595,
                    "velocity": 0.5196850393700787,
                    "duration": 0.21739150000001928
                },
                {
                    "name": "G4",
                    "midi": 67,
                    "time": 390.6525255,
                    "velocity": 0.6456692913385826,
                    "duration": 0.10869574999998122
                },
                {
                    "name": "D#4",
                    "midi": 63,
                    "time": 390.6525255,
                    "velocity": 0.5433070866141733,
                    "duration": 0.10869574999998122
                },
                {
                    "name": "D4",
                    "midi": 62,
                    "time": 390.869917,
                    "velocity": 0.5275590551181102,
                    "duration": 0.21739150000001928
                },
                {
                    "name": "F4",
                    "midi": 65,
                    "time": 390.869917,
                    "velocity": 0.6220472440944882,
                    "duration": 0.21739150000001928
                },
                {
                    "name": "D#4",
                    "midi": 63,
                    "time": 391.0873085,
                    "velocity": 0.5354330708661418,
                    "duration": 0.10869574999998122
                },
                {
                    "name": "G4",
                    "midi": 67,
                    "time": 391.0873085,
                    "velocity": 0.6377952755905512,
                    "duration": 0.10869574999998122
                },
                {
                    "name": "G#4",
                    "midi": 68,
                    "time": 391.19600425,
                    "velocity": 0.6614173228346457,
                    "duration": 0.10869574999998122
                },
                {
                    "name": "F4",
                    "midi": 65,
                    "time": 391.19600425,
                    "velocity": 0.5590551181102362,
                    "duration": 0.10869574999998122
                },
                {
                    "name": "A#4",
                    "midi": 70,
                    "time": 391.30469999999997,
                    "velocity": 0.6929133858267716,
                    "duration": 0.10869574999998122
                },
                {
                    "name": "G4",
                    "midi": 67,
                    "time": 391.30469999999997,
                    "velocity": 0.5826771653543307,
                    "duration": 0.10869574999998122
                },
                {
                    "name": "D#3",
                    "midi": 51,
                    "time": 391.52209149999993,
                    "velocity": 0.5196850393700787,
                    "duration": 0.21739150000001928
                },
                {
                    "name": "D#2",
                    "midi": 39,
                    "time": 391.52209149999993,
                    "velocity": 0.4409448818897638,
                    "duration": 0.21739150000001928
                },
                {
                    "name": "E2",
                    "midi": 40,
                    "time": 392.39165749999995,
                    "velocity": 0.4881889763779528,
                    "duration": 0.21739150000001928
                },
                {
                    "name": "E3",
                    "midi": 52,
                    "time": 392.39165749999995,
                    "velocity": 0.5826771653543307,
                    "duration": 0.21739150000001928
                },
                {
                    "name": "C3",
                    "midi": 48,
                    "time": 392.8264405,
                    "velocity": 0.6220472440944882,
                    "duration": 0.21739150000001928
                },
                {
                    "name": "C2",
                    "midi": 36,
                    "time": 392.8264405,
                    "velocity": 0.5275590551181102,
                    "duration": 0.21739150000001928
                },
                {
                    "name": "F3",
                    "midi": 53,
                    "time": 393.2612235,
                    "velocity": 0.5826771653543307,
                    "duration": 0.21739150000001928
                },
                {
                    "name": "F2",
                    "midi": 41,
                    "time": 393.2612235,
                    "velocity": 0.4881889763779528,
                    "duration": 0.21739150000001928
                },
                {
                    "name": "G3",
                    "midi": 55,
                    "time": 393.69600650000007,
                    "velocity": 0.5669291338582677,
                    "duration": 0.21739150000001928
                },
                {
                    "name": "G2",
                    "midi": 43,
                    "time": 393.69600650000007,
                    "velocity": 0.48031496062992124,
                    "duration": 0.21739150000001928
                },
                {
                    "name": "F2",
                    "midi": 41,
                    "time": 393.9133980000001,
                    "velocity": 0.3937007874015748,
                    "duration": 0.10869574999998122
                },
                {
                    "name": "A2",
                    "midi": 45,
                    "time": 394.02209375000007,
                    "velocity": 0.3937007874015748,
                    "duration": 0.10869574999998122
                },
                {
                    "name": "A#2",
                    "midi": 46,
                    "time": 394.13078950000005,
                    "velocity": 0.3937007874015748,
                    "duration": 0.10869574999998122
                },
                {
                    "name": "D3",
                    "midi": 50,
                    "time": 394.23948525000003,
                    "velocity": 0.3937007874015748,
                    "duration": 0.10869574999998122
                },
                {
                    "name": "F3",
                    "midi": 53,
                    "time": 394.348181,
                    "velocity": 0.3937007874015748,
                    "duration": 0.10869574999998122
                },
                {
                    "name": "A3",
                    "midi": 57,
                    "time": 394.45687675,
                    "velocity": 0.3937007874015748,
                    "duration": 0.10869574999998122
                },
                {
                    "name": "A#3",
                    "midi": 58,
                    "time": 394.5655725,
                    "velocity": 0.3937007874015748,
                    "duration": 0.10869574999998122
                },
                {
                    "name": "D4",
                    "midi": 62,
                    "time": 394.67426824999995,
                    "velocity": 0.3937007874015748,
                    "duration": 0.10869574999998122
                },
                {
                    "name": "F4",
                    "midi": 65,
                    "time": 394.78296399999994,
                    "velocity": 0.3937007874015748,
                    "duration": 0.10869574999998122
                },
                {
                    "name": "A4",
                    "midi": 69,
                    "time": 394.8916597499999,
                    "velocity": 0.3937007874015748,
                    "duration": 0.10869574999998122
                },
                {
                    "name": "A#4",
                    "midi": 70,
                    "time": 395.0003554999999,
                    "velocity": 0.3937007874015748,
                    "duration": 0.10869574999998122
                },
                {
                    "name": "D5",
                    "midi": 74,
                    "time": 395.1090512499999,
                    "velocity": 0.3937007874015748,
                    "duration": 0.10869574999998122
                },
                {
                    "name": "A#4",
                    "midi": 70,
                    "time": 395.4351384999999,
                    "velocity": 0.33858267716535434,
                    "duration": 0.10869574999998122
                },
                {
                    "name": "D5",
                    "midi": 74,
                    "time": 395.54383424999986,
                    "velocity": 0.3464566929133858,
                    "duration": 0.10869574999998122
                },
                {
                    "name": "E5",
                    "midi": 76,
                    "time": 395.65252999999984,
                    "velocity": 0.3543307086614173,
                    "duration": 0.10869574999998122
                },
                {
                    "name": "F5",
                    "midi": 77,
                    "time": 395.7612257499998,
                    "velocity": 0.36220472440944884,
                    "duration": 0.10869574999998122
                },
                {
                    "name": "G5",
                    "midi": 79,
                    "time": 395.8699214999998,
                    "velocity": 0.3700787401574803,
                    "duration": 0.10869574999998122
                },
                {
                    "name": "F5",
                    "midi": 77,
                    "time": 395.9786172499998,
                    "velocity": 0.3779527559055118,
                    "duration": 0.10869574999998122
                },
                {
                    "name": "A5",
                    "midi": 81,
                    "time": 396.08731299999977,
                    "velocity": 0.3937007874015748,
                    "duration": 0.10869574999998122
                },
                {
                    "name": "A#5",
                    "midi": 82,
                    "time": 396.19600874999975,
                    "velocity": 0.4015748031496063,
                    "duration": 0.10869574999998122
                },
                {
                    "name": "C6",
                    "midi": 84,
                    "time": 396.30470449999973,
                    "velocity": 0.4094488188976378,
                    "duration": 0.10869574999998122
                },
                {
                    "name": "A#5",
                    "midi": 82,
                    "time": 396.4134002499997,
                    "velocity": 0.41732283464566927,
                    "duration": 0.10869574999998122
                },
                {
                    "name": "C#6",
                    "midi": 85,
                    "time": 396.5220959999997,
                    "velocity": 0.4251968503937008,
                    "duration": 0.10869574999998122
                },
                {
                    "name": "D6",
                    "midi": 86,
                    "time": 396.6307917499997,
                    "velocity": 0.4330708661417323,
                    "duration": 0.10869574999998122
                },
                {
                    "name": "D#6",
                    "midi": 87,
                    "time": 396.73948749999965,
                    "velocity": 0.4409448818897638,
                    "duration": 0.10869574999998122
                },
                {
                    "name": "D6",
                    "midi": 86,
                    "time": 396.84818324999964,
                    "velocity": 0.4566929133858268,
                    "duration": 0.10869574999998122
                },
                {
                    "name": "F6",
                    "midi": 89,
                    "time": 396.9568789999996,
                    "velocity": 0.4645669291338583,
                    "duration": 0.21739150000001928
                },
                {
                    "name": "F4",
                    "midi": 65,
                    "time": 397.17427049999964,
                    "velocity": 0.47244094488188976,
                    "duration": 0.07246383333335871
                },
                {
                    "name": "G4",
                    "midi": 67,
                    "time": 397.246734333333,
                    "velocity": 0.49606299212598426,
                    "duration": 0.07246383333335871
                },
                {
                    "name": "A4",
                    "midi": 69,
                    "time": 397.31919816666635,
                    "velocity": 0.5196850393700787,
                    "duration": 0.07246383333335871
                },
                {
                    "name": "A#3",
                    "midi": 58,
                    "time": 397.3916619999997,
                    "velocity": 0.31496062992125984,
                    "duration": 0.14492766666666057
                },
                {
                    "name": "A#4",
                    "midi": 70,
                    "time": 397.5365896666664,
                    "velocity": 0.25196850393700787,
                    "duration": 0.14492766666666057
                },
                {
                    "name": "A4",
                    "midi": 69,
                    "time": 397.68151733333303,
                    "velocity": 0.25196850393700787,
                    "duration": 0.14492766666666057
                },
                {
                    "name": "A#4",
                    "midi": 70,
                    "time": 397.8264449999997,
                    "velocity": 0.31496062992125984,
                    "duration": 0.14492766666666057
                },
                {
                    "name": "A4",
                    "midi": 69,
                    "time": 397.97137266666635,
                    "velocity": 0.25984251968503935,
                    "duration": 0.14492766666666057
                },
                {
                    "name": "A#4",
                    "midi": 70,
                    "time": 398.116300333333,
                    "velocity": 0.25984251968503935,
                    "duration": 0.14492766666666057
                },
                {
                    "name": "F#4",
                    "midi": 66,
                    "time": 398.2612279999997,
                    "velocity": 0.31496062992125984,
                    "duration": 0.14492766666666057
                },
                {
                    "name": "A#4",
                    "midi": 70,
                    "time": 398.40615566666634,
                    "velocity": 0.2440944881889764,
                    "duration": 0.14492766666666057
                },
                {
                    "name": "F#4",
                    "midi": 66,
                    "time": 398.551083333333,
                    "velocity": 0.2440944881889764,
                    "duration": 0.14492766666666057
                },
                {
                    "name": "A#4",
                    "midi": 70,
                    "time": 398.69601099999966,
                    "velocity": 0.31496062992125984,
                    "duration": 0.14492766666666057
                },
                {
                    "name": "D#4",
                    "midi": 63,
                    "time": 398.8409386666663,
                    "velocity": 0.25984251968503935,
                    "duration": 0.14492766666666057
                },
                {
                    "name": "A#4",
                    "midi": 70,
                    "time": 398.985866333333,
                    "velocity": 0.25984251968503935,
                    "duration": 0.14492766666666057
                },
                {
                    "name": "D4",
                    "midi": 62,
                    "time": 399.13079399999964,
                    "velocity": 0.31496062992125984,
                    "duration": 0.14492766666666057
                },
                {
                    "name": "A#4",
                    "midi": 70,
                    "time": 399.2757216666663,
                    "velocity": 0.2440944881889764,
                    "duration": 0.14492766666666057
                },
                {
                    "name": "F4",
                    "midi": 65,
                    "time": 399.42064933333296,
                    "velocity": 0.2440944881889764,
                    "duration": 0.14492766666666057
                },
                {
                    "name": "A#3",
                    "midi": 58,
                    "time": 399.5655769999996,
                    "velocity": 0.31496062992125984,
                    "duration": 0.14492766666666057
                },
                {
                    "name": "A#4",
                    "midi": 70,
                    "time": 399.7105046666663,
                    "velocity": 0.25196850393700787,
                    "duration": 0.14492766666666057
                },
                {
                    "name": "F4",
                    "midi": 65,
                    "time": 399.85543233333294,
                    "velocity": 0.25196850393700787,
                    "duration": 0.14492766666666057
                },
                {
                    "name": "D#4",
                    "midi": 63,
                    "time": 400.0003599999996,
                    "velocity": 0.31496062992125984,
                    "duration": 0.14492766666666057
                },
                {
                    "name": "A#4",
                    "midi": 70,
                    "time": 400.14528766666626,
                    "velocity": 0.25984251968503935,
                    "duration": 0.14492766666666057
                },
                {
                    "name": "D#4",
                    "midi": 63,
                    "time": 400.2902153333329,
                    "velocity": 0.25984251968503935,
                    "duration": 0.14492766666666057
                },
                {
                    "name": "F#4",
                    "midi": 66,
                    "time": 400.4351429999996,
                    "velocity": 0.31496062992125984,
                    "duration": 0.14492766666666057
                },
                {
                    "name": "A#4",
                    "midi": 70,
                    "time": 400.58007066666624,
                    "velocity": 0.25196850393700787,
                    "duration": 0.14492766666666057
                },
                {
                    "name": "F#4",
                    "midi": 66,
                    "time": 400.7249983333329,
                    "velocity": 0.25196850393700787,
                    "duration": 0.14492766666666057
                },
                {
                    "name": "F4",
                    "midi": 65,
                    "time": 400.86992599999957,
                    "velocity": 0.31496062992125984,
                    "duration": 0.14492766666666057
                },
                {
                    "name": "A#4",
                    "midi": 70,
                    "time": 401.0148536666662,
                    "velocity": 0.25196850393700787,
                    "duration": 0.14492766666666057
                },
                {
                    "name": "F4",
                    "midi": 65,
                    "time": 401.1597813333329,
                    "velocity": 0.25196850393700787,
                    "duration": 0.14492766666666057
                },
                {
                    "name": "B4",
                    "midi": 71,
                    "time": 401.30470899999955,
                    "velocity": 0.31496062992125984,
                    "duration": 0.14492766666666057
                },
                {
                    "name": "F4",
                    "midi": 65,
                    "time": 401.4496366666662,
                    "velocity": 0.28346456692913385,
                    "duration": 0.14492766666666057
                },
                {
                    "name": "B4",
                    "midi": 71,
                    "time": 401.59456433333287,
                    "velocity": 0.28346456692913385,
                    "duration": 0.14492766666666057
                },
                {
                    "name": "F4",
                    "midi": 65,
                    "time": 401.73949199999953,
                    "velocity": 0.31496062992125984,
                    "duration": 0.14492766666666057
                },
                {
                    "name": "C5",
                    "midi": 72,
                    "time": 401.8844196666662,
                    "velocity": 0.25984251968503935,
                    "duration": 0.14492766666666057
                },
                {
                    "name": "A4",
                    "midi": 69,
                    "time": 402.02934733333285,
                    "velocity": 0.25984251968503935,
                    "duration": 0.14492766666666057
                },
                {
                    "name": "F3",
                    "midi": 53,
                    "time": 402.1742749999995,
                    "velocity": 0.31496062992125984,
                    "duration": 0.14492766666666057
                },
                {
                    "name": "C4",
                    "midi": 60,
                    "time": 402.3192026666662,
                    "velocity": 0.2677165354330709,
                    "duration": 0.14492766666666057
                },
                {
                    "name": "A3",
                    "midi": 57,
                    "time": 402.46413033333283,
                    "velocity": 0.2677165354330709,
                    "duration": 0.14492766666666057
                },
                {
                    "name": "A#2",
                    "midi": 46,
                    "time": 402.6090579999995,
                    "velocity": 0.31496062992125984,
                    "duration": 0.10869574999998122
                },
                {
                    "name": "A#3",
                    "midi": 58,
                    "time": 402.7177537499995,
                    "velocity": 0.25984251968503935,
                    "duration": 0.10869574999998122
                },
                {
                    "name": "D4",
                    "midi": 62,
                    "time": 402.82644949999946,
                    "velocity": 0.25984251968503935,
                    "duration": 0.10869574999998122
                },
                {
                    "name": "A#3",
                    "midi": 58,
                    "time": 402.93514524999944,
                    "velocity": 0.25984251968503935,
                    "duration": 0.10869574999998122
                },
                {
                    "name": "F3",
                    "midi": 53,
                    "time": 403.0438409999994,
                    "velocity": 0.3228346456692913,
                    "duration": 0.10869574999998122
                },
                {
                    "name": "A#3",
                    "midi": 58,
                    "time": 403.1525367499994,
                    "velocity": 0.2755905511811024,
                    "duration": 0.10869574999998122
                },
                {
                    "name": "G#4",
                    "midi": 68,
                    "time": 403.2612324999994,
                    "velocity": 0.2755905511811024,
                    "duration": 0.10869574999998122
                },
                {
                    "name": "A#3",
                    "midi": 58,
                    "time": 403.36992824999936,
                    "velocity": 0.2755905511811024,
                    "duration": 0.10869574999998122
                },
                {
                    "name": "G3",
                    "midi": 55,
                    "time": 403.47862399999934,
                    "velocity": 0.33070866141732286,
                    "duration": 0.10869574999998122
                },
                {
                    "name": "A#3",
                    "midi": 58,
                    "time": 403.5873197499993,
                    "velocity": 0.28346456692913385,
                    "duration": 0.10869574999998122
                },
                {
                    "name": "A#4",
                    "midi": 70,
                    "time": 403.6960154999993,
                    "velocity": 0.28346456692913385,
                    "duration": 0.10869574999998122
                },
                {
                    "name": "A#3",
                    "midi": 58,
                    "time": 403.8047112499993,
                    "velocity": 0.29133858267716534,
                    "duration": 0.10869574999998122
                },
                {
                    "name": "D#3",
                    "midi": 51,
                    "time": 403.91340699999927,
                    "velocity": 0.3464566929133858,
                    "duration": 0.10869574999998122
                },
                {
                    "name": "A#3",
                    "midi": 58,
                    "time": 404.02210274999925,
                    "velocity": 0.29133858267716534,
                    "duration": 0.10869574999998122
                },
                {
                    "name": "G4",
                    "midi": 67,
                    "time": 404.13079849999923,
                    "velocity": 0.29133858267716534,
                    "duration": 0.10869574999998122
                },
                {
                    "name": "A#3",
                    "midi": 58,
                    "time": 404.2394942499992,
                    "velocity": 0.2992125984251969,
                    "duration": 0.10869574999998122
                },
                {
                    "name": "D3",
                    "midi": 50,
                    "time": 404.3481899999992,
                    "velocity": 0.3543307086614173,
                    "duration": 0.10869574999998122
                },
                {
                    "name": "A#3",
                    "midi": 58,
                    "time": 404.4568857499992,
                    "velocity": 0.29133858267716534,
                    "duration": 0.10869574999998122
                },
                {
                    "name": "F4",
                    "midi": 65,
                    "time": 404.56558149999915,
                    "velocity": 0.29133858267716534,
                    "duration": 0.10869574999998122
                },
                {
                    "name": "A#3",
                    "midi": 58,
                    "time": 404.67427724999914,
                    "velocity": 0.29133858267716534,
                    "duration": 0.10869574999998122
                },
                {
                    "name": "A#2",
                    "midi": 46,
                    "time": 404.7829729999991,
                    "velocity": 0.36220472440944884,
                    "duration": 0.10869574999998122
                },
                {
                    "name": "A#3",
                    "midi": 58,
                    "time": 404.8916687499991,
                    "velocity": 0.30708661417322836,
                    "duration": 0.10869574999998122
                },
                {
                    "name": "D4",
                    "midi": 62,
                    "time": 405.0003644999991,
                    "velocity": 0.31496062992125984,
                    "duration": 0.10869574999998122
                },
                {
                    "name": "A#3",
                    "midi": 58,
                    "time": 405.10906024999906,
                    "velocity": 0.31496062992125984,
                    "duration": 0.10869574999998122
                },
                {
                    "name": "D#3",
                    "midi": 51,
                    "time": 405.21775599999904,
                    "velocity": 0.3779527559055118,
                    "duration": 0.10869574999998122
                },
                {
                    "name": "A#3",
                    "midi": 58,
                    "time": 405.326451749999,
                    "velocity": 0.33070866141732286,
                    "duration": 0.10869574999998122
                },
                {
                    "name": "G4",
                    "midi": 67,
                    "time": 405.435147499999,
                    "velocity": 0.33070866141732286,
                    "duration": 0.10869574999998122
                },
                {
                    "name": "A#3",
                    "midi": 58,
                    "time": 405.543843249999,
                    "velocity": 0.33070866141732286,
                    "duration": 0.10869574999998122
                },
                {
                    "name": "G3",
                    "midi": 55,
                    "time": 405.65253899999897,
                    "velocity": 0.4015748031496063,
                    "duration": 0.10869574999998122
                },
                {
                    "name": "A#3",
                    "midi": 58,
                    "time": 405.76123474999895,
                    "velocity": 0.33858267716535434,
                    "duration": 0.10869574999998122
                },
                {
                    "name": "A#4",
                    "midi": 70,
                    "time": 405.86993049999893,
                    "velocity": 0.33858267716535434,
                    "duration": 0.10869574999998122
                },
                {
                    "name": "A#3",
                    "midi": 58,
                    "time": 405.9786262499989,
                    "velocity": 0.33858267716535434,
                    "duration": 0.10869574999998122
                },
                {
                    "name": "F3",
                    "midi": 53,
                    "time": 406.0873219999989,
                    "velocity": 0.3937007874015748,
                    "duration": 0.10869574999998122
                },
                {
                    "name": "A#3",
                    "midi": 58,
                    "time": 406.1960177499989,
                    "velocity": 0.3464566929133858,
                    "duration": 0.10869574999998122
                },
                {
                    "name": "A3",
                    "midi": 57,
                    "time": 406.30471349999885,
                    "velocity": 0.3779527559055118,
                    "duration": 0.10869574999998122
                },
                {
                    "name": "A#3",
                    "midi": 58,
                    "time": 406.41340924999884,
                    "velocity": 0.4015748031496063,
                    "duration": 0.10869574999998122
                },
                {
                    "name": "F3",
                    "midi": 53,
                    "time": 406.5221049999988,
                    "velocity": 0.4251968503937008,
                    "duration": 0.10869574999998122
                },
                {
                    "name": "D3",
                    "midi": 50,
                    "time": 406.6308007499988,
                    "velocity": 0.4330708661417323,
                    "duration": 0.10869574999998122
                },
                {
                    "name": "C3",
                    "midi": 48,
                    "time": 406.7394964999988,
                    "velocity": 0.4330708661417323,
                    "duration": 0.10869574999998122
                },
                {
                    "name": "A#2",
                    "midi": 46,
                    "time": 406.84819224999876,
                    "velocity": 0.4251968503937008,
                    "duration": 0.10869574999998122
                },
                {
                    "name": "F2",
                    "midi": 41,
                    "time": 406.95688799999874,
                    "velocity": 0.4251968503937008,
                    "duration": 0.10869574999998122
                },
                {
                    "name": "G2",
                    "midi": 43,
                    "time": 407.0655837499987,
                    "velocity": 0.3858267716535433,
                    "duration": 0.10869574999998122
                },
                {
                    "name": "A2",
                    "midi": 45,
                    "time": 407.1742794999987,
                    "velocity": 0.3858267716535433,
                    "duration": 0.10869574999998122
                },
                {
                    "name": "A#2",
                    "midi": 46,
                    "time": 407.2829752499987,
                    "velocity": 0.3858267716535433,
                    "duration": 0.10869574999998122
                },
                {
                    "name": "C3",
                    "midi": 48,
                    "time": 407.39167099999867,
                    "velocity": 0.4251968503937008,
                    "duration": 0.10869574999998122
                },
                {
                    "name": "D3",
                    "midi": 50,
                    "time": 407.50036674999865,
                    "velocity": 0.3937007874015748,
                    "duration": 0.10869574999998122
                },
                {
                    "name": "D#3",
                    "midi": 51,
                    "time": 407.60906249999863,
                    "velocity": 0.4645669291338583,
                    "duration": 0.10869574999998122
                },
                {
                    "name": "F3",
                    "midi": 53,
                    "time": 407.7177582499986,
                    "velocity": 0.5196850393700787,
                    "duration": 0.10869574999998122
                },
                {
                    "name": "A#1",
                    "midi": 34,
                    "time": 407.8264539999986,
                    "velocity": 0.5196850393700787,
                    "duration": 0.10869574999998122
                },
                {
                    "name": "A#2",
                    "midi": 46,
                    "time": 407.9351497499986,
                    "velocity": 0.4409448818897638,
                    "duration": 0.10869574999998122
                },
                {
                    "name": "A#1",
                    "midi": 34,
                    "time": 408.04384549999855,
                    "velocity": 0.5196850393700787,
                    "duration": 0.10869574999998122
                },
                {
                    "name": "A#2",
                    "midi": 46,
                    "time": 408.15254124999854,
                    "velocity": 0.4409448818897638,
                    "duration": 0.10869574999998122
                },
                {
                    "name": "A#1",
                    "midi": 34,
                    "time": 408.2612369999985,
                    "velocity": 0.5196850393700787,
                    "duration": 0.10869574999998122
                },
                {
                    "name": "A#2",
                    "midi": 46,
                    "time": 408.3699327499985,
                    "velocity": 0.44881889763779526,
                    "duration": 0.10869574999998122
                },
                {
                    "name": "A#1",
                    "midi": 34,
                    "time": 408.4786284999985,
                    "velocity": 0.5196850393700787,
                    "duration": 0.10869574999998122
                },
                {
                    "name": "A#2",
                    "midi": 46,
                    "time": 408.58732424999846,
                    "velocity": 0.44881889763779526,
                    "duration": 0.10869574999998122
                },
                {
                    "name": "A#1",
                    "midi": 34,
                    "time": 408.69601999999844,
                    "velocity": 0.5196850393700787,
                    "duration": 0.10869574999998122
                },
                {
                    "name": "A#2",
                    "midi": 46,
                    "time": 408.8047157499984,
                    "velocity": 0.44881889763779526,
                    "duration": 0.10869574999998122
                },
                {
                    "name": "A#1",
                    "midi": 34,
                    "time": 408.9134114999984,
                    "velocity": 0.5196850393700787,
                    "duration": 0.10869574999998122
                },
                {
                    "name": "A#2",
                    "midi": 46,
                    "time": 409.0221072499984,
                    "velocity": 0.4566929133858268,
                    "duration": 0.10869574999998122
                },
                {
                    "name": "A#1",
                    "midi": 34,
                    "time": 409.13080299999837,
                    "velocity": 0.5196850393700787,
                    "duration": 0.10869574999998122
                },
                {
                    "name": "A#2",
                    "midi": 46,
                    "time": 409.23949874999835,
                    "velocity": 0.4645669291338583,
                    "duration": 0.10869574999998122
                },
                {
                    "name": "B1",
                    "midi": 35,
                    "time": 409.3481944999983,
                    "velocity": 0.3543307086614173,
                    "duration": 0.10869574999998122
                },
                {
                    "name": "B2",
                    "midi": 47,
                    "time": 409.4568902499983,
                    "velocity": 0.2677165354330709,
                    "duration": 0.10869574999998122
                },
                {
                    "name": "C2",
                    "midi": 36,
                    "time": 409.5655859999983,
                    "velocity": 0.33858267716535434,
                    "duration": 0.10869574999998122
                },
                {
                    "name": "C3",
                    "midi": 48,
                    "time": 409.6742817499983,
                    "velocity": 0.25984251968503935,
                    "duration": 0.10869574999998122
                },
                {
                    "name": "B1",
                    "midi": 35,
                    "time": 409.78297749999825,
                    "velocity": 0.33858267716535434,
                    "duration": 0.10869574999998122
                },
                {
                    "name": "B2",
                    "midi": 47,
                    "time": 409.89167324999823,
                    "velocity": 0.25984251968503935,
                    "duration": 0.10869574999998122
                },
                {
                    "name": "C2",
                    "midi": 36,
                    "time": 410.0003689999982,
                    "velocity": 0.33858267716535434,
                    "duration": 0.10869574999998122
                },
                {
                    "name": "C3",
                    "midi": 48,
                    "time": 410.1090647499982,
                    "velocity": 0.2677165354330709,
                    "duration": 0.10869574999998122
                },
                {
                    "name": "D#2",
                    "midi": 39,
                    "time": 410.2177604999982,
                    "velocity": 0.33858267716535434,
                    "duration": 0.10869574999998122
                },
                {
                    "name": "D#3",
                    "midi": 51,
                    "time": 410.32645624999816,
                    "velocity": 0.2755905511811024,
                    "duration": 0.10869574999998122
                },
                {
                    "name": "E2",
                    "midi": 40,
                    "time": 410.43515199999814,
                    "velocity": 0.33858267716535434,
                    "duration": 0.10869574999998122
                },
                {
                    "name": "E3",
                    "midi": 52,
                    "time": 410.5438477499981,
                    "velocity": 0.25984251968503935,
                    "duration": 0.10869574999998122
                },
                {
                    "name": "G2",
                    "midi": 43,
                    "time": 410.6525434999981,
                    "velocity": 0.33858267716535434,
                    "duration": 0.10869574999998122
                },
                {
                    "name": "G3",
                    "midi": 55,
                    "time": 410.7612392499981,
                    "velocity": 0.25984251968503935,
                    "duration": 0.10869574999998122
                },
                {
                    "name": "F2",
                    "midi": 41,
                    "time": 410.86993499999807,
                    "velocity": 0.33858267716535434,
                    "duration": 0.10869574999998122
                },
                {
                    "name": "F3",
                    "midi": 53,
                    "time": 410.97863074999805,
                    "velocity": 0.2677165354330709,
                    "duration": 0.10869574999998122
                },
                {
                    "name": "F2",
                    "midi": 41,
                    "time": 411.087326499998,
                    "velocity": 0.33858267716535434,
                    "duration": 0.10869574999998122
                },
                {
                    "name": "F3",
                    "midi": 53,
                    "time": 411.196022249998,
                    "velocity": 0.2755905511811024,
                    "duration": 0.10869574999998122
                },
                {
                    "name": "F2",
                    "midi": 41,
                    "time": 411.304717999998,
                    "velocity": 0.3700787401574803,
                    "duration": 0.10869574999998122
                },
                {
                    "name": "F3",
                    "midi": 53,
                    "time": 411.41341374999797,
                    "velocity": 0.28346456692913385,
                    "duration": 0.10869574999998122
                },
                {
                    "name": "A#2",
                    "midi": 46,
                    "time": 411.52210949999795,
                    "velocity": 0.3779527559055118,
                    "duration": 0.10869574999998122
                },
                {
                    "name": "A#3",
                    "midi": 58,
                    "time": 411.63080524999793,
                    "velocity": 0.29133858267716534,
                    "duration": 0.10869574999998122
                },
                {
                    "name": "F2",
                    "midi": 41,
                    "time": 411.7395009999979,
                    "velocity": 0.3937007874015748,
                    "duration": 0.10869574999998122
                },
                {
                    "name": "F3",
                    "midi": 53,
                    "time": 411.8481967499979,
                    "velocity": 0.31496062992125984,
                    "duration": 0.1068841541666643
                },
                {
                    "name": "F3",
                    "midi": 53,
                    "time": 411.9568924999979,
                    "velocity": 0.41732283464566927,
                    "duration": 0.10869574999998122
                },
                {
                    "name": "F4",
                    "midi": 65,
                    "time": 412.06558824999786,
                    "velocity": 0.3464566929133858,
                    "duration": 0.10869574999998122
                },
                {
                    "name": "F2",
                    "midi": 41,
                    "time": 412.17428399999784,
                    "velocity": 0.4251968503937008,
                    "duration": 0.10869574999998122
                },
                {
                    "name": "F3",
                    "midi": 53,
                    "time": 412.2829797499978,
                    "velocity": 0.33070866141732286,
                    "duration": 0.10869574999998122
                },
                {
                    "name": "A#2",
                    "midi": 46,
                    "time": 412.3916754999978,
                    "velocity": 0.44881889763779526,
                    "duration": 0.10869574999998122
                },
                {
                    "name": "A#3",
                    "midi": 58,
                    "time": 412.5003712499978,
                    "velocity": 0.3464566929133858,
                    "duration": 0.10869574999998122
                },
                {
                    "name": "F2",
                    "midi": 41,
                    "time": 412.60906699999776,
                    "velocity": 0.4566929133858268,
                    "duration": 0.10869574999998122
                },
                {
                    "name": "F3",
                    "midi": 53,
                    "time": 412.71776274999775,
                    "velocity": 0.3700787401574803,
                    "duration": 0.1068841541666643
                },
                {
                    "name": "F3",
                    "midi": 53,
                    "time": 412.8264584999977,
                    "velocity": 0.48031496062992124,
                    "duration": 0.10869574999998122
                },
                {
                    "name": "F4",
                    "midi": 65,
                    "time": 412.9351542499977,
                    "velocity": 0.4015748031496063,
                    "duration": 0.10869574999998122
                },
                {
                    "name": "A#2",
                    "midi": 46,
                    "time": 413.0438499999977,
                    "velocity": 0.4645669291338583,
                    "duration": 0.10869574999998122
                },
                {
                    "name": "A#3",
                    "midi": 58,
                    "time": 413.15254574999767,
                    "velocity": 0.3937007874015748,
                    "duration": 0.10869574999998122
                },
                {
                    "name": "F2",
                    "midi": 41,
                    "time": 413.26124149999765,
                    "velocity": 0.48031496062992124,
                    "duration": 0.10869574999998122
                },
                {
                    "name": "F3",
                    "midi": 53,
                    "time": 413.36993724999763,
                    "velocity": 0.4015748031496063,
                    "duration": 0.10869574999998122
                },
                {
                    "name": "A2",
                    "midi": 45,
                    "time": 413.4786329999976,
                    "velocity": 0.5039370078740157,
                    "duration": 0.10869574999998122
                },
                {
                    "name": "A3",
                    "midi": 57,
                    "time": 413.5873287499976,
                    "velocity": 0.4330708661417323,
                    "duration": 0.10869574999998122
                },
                {
                    "name": "C3",
                    "midi": 48,
                    "time": 413.6960244999976,
                    "velocity": 0.5275590551181102,
                    "duration": 0.10869574999998122
                },
                {
                    "name": "C4",
                    "midi": 60,
                    "time": 413.80472024999756,
                    "velocity": 0.4566929133858268,
                    "duration": 0.10869574999998122
                },
                {
                    "name": "A#2",
                    "midi": 46,
                    "time": 413.91341599999754,
                    "velocity": 0.5354330708661418,
                    "duration": 0.10869574999998122
                },
                {
                    "name": "A#3",
                    "midi": 58,
                    "time": 414.0221117499975,
                    "velocity": 0.49606299212598426,
                    "duration": 0.10869574999998122
                },
                {
                    "name": "F2",
                    "midi": 41,
                    "time": 414.1308074999975,
                    "velocity": 0.5590551181102362,
                    "duration": 0.10869574999998122
                },
                {
                    "name": "F3",
                    "midi": 53,
                    "time": 414.2395032499975,
                    "velocity": 0.49606299212598426,
                    "duration": 0.10869574999998122
                },
                {
                    "name": "A1",
                    "midi": 33,
                    "time": 414.34819899999746,
                    "velocity": 0.5590551181102362,
                    "duration": 0.10869574999998122
                },
                {
                    "name": "A2",
                    "midi": 45,
                    "time": 414.45689474999745,
                    "velocity": 0.47244094488188976,
                    "duration": 0.10869574999998122
                },
                {
                    "name": "C2",
                    "midi": 36,
                    "time": 414.5655904999974,
                    "velocity": 0.5590551181102362,
                    "duration": 0.10869574999998122
                },
                {
                    "name": "C3",
                    "midi": 48,
                    "time": 414.6742862499974,
                    "velocity": 0.49606299212598426,
                    "duration": 0.10869574999998122
                },
                {
                    "name": "A#1",
                    "midi": 34,
                    "time": 414.7829819999974,
                    "velocity": 0.5354330708661418,
                    "duration": 0.10869574999998122
                },
                {
                    "name": "A#2",
                    "midi": 46,
                    "time": 414.89167774999737,
                    "velocity": 0.49606299212598426,
                    "duration": 0.10869574999998122
                },
                {
                    "name": "F1",
                    "midi": 29,
                    "time": 415.00037349999735,
                    "velocity": 0.5590551181102362,
                    "duration": 0.10869574999998122
                },
                {
                    "name": "F2",
                    "midi": 41,
                    "time": 415.10906924999733,
                    "velocity": 0.49606299212598426,
                    "duration": 0.10869574999998122
                },
                {
                    "name": "B1",
                    "midi": 35,
                    "time": 415.2177649999973,
                    "velocity": 0.5590551181102362,
                    "duration": 0.10869574999998122
                },
                {
                    "name": "B2",
                    "midi": 47,
                    "time": 415.3264607499973,
                    "velocity": 0.47244094488188976,
                    "duration": 0.10869574999998122
                },
                {
                    "name": "D2",
                    "midi": 38,
                    "time": 415.4351564999973,
                    "velocity": 0.5590551181102362,
                    "duration": 0.10869574999998122
                },
                {
                    "name": "D3",
                    "midi": 50,
                    "time": 415.54385224999726,
                    "velocity": 0.49606299212598426,
                    "duration": 0.10869574999998122
                },
                {
                    "name": "C2",
                    "midi": 36,
                    "time": 415.65254799999724,
                    "velocity": 0.5354330708661418,
                    "duration": 0.10869574999998122
                },
                {
                    "name": "C3",
                    "midi": 48,
                    "time": 415.7612437499972,
                    "velocity": 0.49606299212598426,
                    "duration": 0.10869574999998122
                },
                {
                    "name": "G1",
                    "midi": 31,
                    "time": 415.8699394999972,
                    "velocity": 0.5590551181102362,
                    "duration": 0.10869574999998122
                },
                {
                    "name": "G2",
                    "midi": 43,
                    "time": 415.9786352499972,
                    "velocity": 0.49606299212598426,
                    "duration": 0.10869574999998122
                },
                {
                    "name": "B1",
                    "midi": 35,
                    "time": 416.08733099999716,
                    "velocity": 0.5590551181102362,
                    "duration": 0.10869574999998122
                },
                {
                    "name": "B2",
                    "midi": 47,
                    "time": 416.19602674999715,
                    "velocity": 0.47244094488188976,
                    "duration": 0.10869574999998122
                },
                {
                    "name": "D2",
                    "midi": 38,
                    "time": 416.3047224999971,
                    "velocity": 0.5590551181102362,
                    "duration": 0.10869574999998122
                },
                {
                    "name": "D3",
                    "midi": 50,
                    "time": 416.4134182499971,
                    "velocity": 0.49606299212598426,
                    "duration": 0.10869574999998122
                },
                {
                    "name": "C2",
                    "midi": 36,
                    "time": 416.5221139999971,
                    "velocity": 0.5354330708661418,
                    "duration": 0.10869574999998122
                },
                {
                    "name": "C3",
                    "midi": 48,
                    "time": 416.63080974999707,
                    "velocity": 0.49606299212598426,
                    "duration": 0.10869574999998122
                },
                {
                    "name": "G1",
                    "midi": 31,
                    "time": 416.73950549999705,
                    "velocity": 0.5590551181102362,
                    "duration": 0.10869574999998122
                },
                {
                    "name": "G2",
                    "midi": 43,
                    "time": 416.84820124999703,
                    "velocity": 0.49606299212598426,
                    "duration": 0.10869574999998122
                },
                {
                    "name": "C2",
                    "midi": 36,
                    "time": 416.956896999997,
                    "velocity": 0.5590551181102362,
                    "duration": 0.10869574999998122
                },
                {
                    "name": "C3",
                    "midi": 48,
                    "time": 417.065592749997,
                    "velocity": 0.47244094488188976,
                    "duration": 0.10869574999998122
                },
                {
                    "name": "D#2",
                    "midi": 39,
                    "time": 417.174288499997,
                    "velocity": 0.5590551181102362,
                    "duration": 0.10869574999998122
                },
                {
                    "name": "D#3",
                    "midi": 51,
                    "time": 417.28298424999696,
                    "velocity": 0.49606299212598426,
                    "duration": 0.10869574999998122
                },
                {
                    "name": "D2",
                    "midi": 38,
                    "time": 417.39167999999694,
                    "velocity": 0.5354330708661418,
                    "duration": 0.10869574999998122
                },
                {
                    "name": "D3",
                    "midi": 50,
                    "time": 417.5003757499969,
                    "velocity": 0.49606299212598426,
                    "duration": 0.10869574999998122
                },
                {
                    "name": "A1",
                    "midi": 33,
                    "time": 417.6090714999969,
                    "velocity": 0.5590551181102362,
                    "duration": 0.10869574999998122
                },
                {
                    "name": "A2",
                    "midi": 45,
                    "time": 417.7177672499969,
                    "velocity": 0.4881889763779528,
                    "duration": 0.10869574999998122
                },
                {
                    "name": "C#2",
                    "midi": 37,
                    "time": 417.82646299999686,
                    "velocity": 0.5511811023622047,
                    "duration": 0.10869574999998122
                },
                {
                    "name": "C#3",
                    "midi": 49,
                    "time": 417.93515874999684,
                    "velocity": 0.4645669291338583,
                    "duration": 0.10869574999998122
                },
                {
                    "name": "E2",
                    "midi": 40,
                    "time": 418.0438544999968,
                    "velocity": 0.5433070866141733,
                    "duration": 0.10869574999998122
                },
                {
                    "name": "E3",
                    "midi": 52,
                    "time": 418.1525502499968,
                    "velocity": 0.48031496062992124,
                    "duration": 0.10869574999998122
                },
                {
                    "name": "D2",
                    "midi": 38,
                    "time": 418.2612459999968,
                    "velocity": 0.5196850393700787,
                    "duration": 0.10869574999998122
                },
                {
                    "name": "D3",
                    "midi": 50,
                    "time": 418.36994174999677,
                    "velocity": 0.48031496062992124,
                    "duration": 0.10869574999998122
                },
                {
                    "name": "A1",
                    "midi": 33,
                    "time": 418.47863749999675,
                    "velocity": 0.5354330708661418,
                    "duration": 0.10869574999998122
                },
                {
                    "name": "A2",
                    "midi": 45,
                    "time": 418.58733324999673,
                    "velocity": 0.48031496062992124,
                    "duration": 0.10869574999998122
                },
                {
                    "name": "D2",
                    "midi": 38,
                    "time": 418.6960289999967,
                    "velocity": 0.5354330708661418,
                    "duration": 0.10869574999998122
                },
                {
                    "name": "D3",
                    "midi": 50,
                    "time": 418.8047247499967,
                    "velocity": 0.44881889763779526,
                    "duration": 0.10869574999998122
                },
                {
                    "name": "F2",
                    "midi": 41,
                    "time": 418.9134204999967,
                    "velocity": 0.5275590551181102,
                    "duration": 0.10869574999998122
                },
                {
                    "name": "F3",
                    "midi": 53,
                    "time": 419.02211624999666,
                    "velocity": 0.4645669291338583,
                    "duration": 0.10869574999998122
                },
                {
                    "name": "D#2",
                    "midi": 39,
                    "time": 419.13081199999664,
                    "velocity": 0.5039370078740157,
                    "duration": 0.10869574999998122
                },
                {
                    "name": "D#3",
                    "midi": 51,
                    "time": 419.2395077499966,
                    "velocity": 0.4645669291338583,
                    "duration": 0.10869574999998122
                },
                {
                    "name": "A#1",
                    "midi": 34,
                    "time": 419.3482034999966,
                    "velocity": 0.5196850393700787,
                    "duration": 0.10869574999998122
                },
                {
                    "name": "A#2",
                    "midi": 46,
                    "time": 419.4568992499966,
                    "velocity": 0.4645669291338583,
                    "duration": 0.10869574999998122
                },
                {
                    "name": "D2",
                    "midi": 38,
                    "time": 419.56559499999656,
                    "velocity": 0.5196850393700787,
                    "duration": 0.10869574999998122
                },
                {
                    "name": "D3",
                    "midi": 50,
                    "time": 419.67429074999654,
                    "velocity": 0.4330708661417323,
                    "duration": 0.10869574999998122
                },
                {
                    "name": "F2",
                    "midi": 41,
                    "time": 419.7829864999965,
                    "velocity": 0.5196850393700787,
                    "duration": 0.10869574999998122
                },
                {
                    "name": "F3",
                    "midi": 53,
                    "time": 419.8916822499965,
                    "velocity": 0.44881889763779526,
                    "duration": 0.10869574999998122
                },
                {
                    "name": "D#2",
                    "midi": 39,
                    "time": 420.0003779999965,
                    "velocity": 0.4881889763779528,
                    "duration": 0.10869574999998122
                },
                {
                    "name": "D#3",
                    "midi": 51,
                    "time": 420.10907374999647,
                    "velocity": 0.44881889763779526,
                    "duration": 0.10869574999998122
                },
                {
                    "name": "A#1",
                    "midi": 34,
                    "time": 420.21776949999645,
                    "velocity": 0.5039370078740157,
                    "duration": 0.10869574999998122
                },
                {
                    "name": "A#2",
                    "midi": 46,
                    "time": 420.32646524999643,
                    "velocity": 0.44881889763779526,
                    "duration": 0.10869574999998122
                },
                {
                    "name": "D#2",
                    "midi": 39,
                    "time": 420.4351609999964,
                    "velocity": 0.49606299212598426,
                    "duration": 0.10869574999998122
                },
                {
                    "name": "D#3",
                    "midi": 51,
                    "time": 420.5438567499964,
                    "velocity": 0.4251968503937008,
                    "duration": 0.10869574999998122
                },
                {
                    "name": "F#2",
                    "midi": 42,
                    "time": 420.6525524999964,
                    "velocity": 0.49606299212598426,
                    "duration": 0.10869574999998122
                },
                {
                    "name": "F#3",
                    "midi": 54,
                    "time": 420.76124824999636,
                    "velocity": 0.4409448818897638,
                    "duration": 0.10869574999998122
                },
                {
                    "name": "F2",
                    "midi": 41,
                    "time": 420.86994399999634,
                    "velocity": 0.47244094488188976,
                    "duration": 0.10869574999998122
                },
                {
                    "name": "F3",
                    "midi": 53,
                    "time": 420.9786397499963,
                    "velocity": 0.4409448818897638,
                    "duration": 0.10869574999998122
                },
                {
                    "name": "C2",
                    "midi": 36,
                    "time": 421.0873354999963,
                    "velocity": 0.4881889763779528,
                    "duration": 0.10869574999998122
                },
                {
                    "name": "C3",
                    "midi": 48,
                    "time": 421.1960312499963,
                    "velocity": 0.4330708661417323,
                    "duration": 0.10869574999998122
                },
                {
                    "name": "D#2",
                    "midi": 39,
                    "time": 421.30472699999626,
                    "velocity": 0.4881889763779528,
                    "duration": 0.10869574999998122
                },
                {
                    "name": "D#3",
                    "midi": 51,
                    "time": 421.41342274999624,
                    "velocity": 0.4094488188976378,
                    "duration": 0.10869574999998122
                },
                {
                    "name": "F#2",
                    "midi": 42,
                    "time": 421.5221184999962,
                    "velocity": 0.48031496062992124,
                    "duration": 0.10869574999998122
                },
                {
                    "name": "F#3",
                    "midi": 54,
                    "time": 421.6308142499962,
                    "velocity": 0.4251968503937008,
                    "duration": 0.10869574999998122
                },
                {
                    "name": "C#2",
                    "midi": 37,
                    "time": 421.7395099999962,
                    "velocity": 0.4566929133858268,
                    "duration": 0.10869574999998122
                },
                {
                    "name": "C#3",
                    "midi": 49,
                    "time": 421.84820574999617,
                    "velocity": 0.4251968503937008,
                    "duration": 0.10869574999998122
                },
                {
                    "name": "A1",
                    "midi": 33,
                    "time": 421.95690149999615,
                    "velocity": 0.47244094488188976,
                    "duration": 0.10869574999998122
                },
                {
                    "name": "A2",
                    "midi": 45,
                    "time": 422.06559724999613,
                    "velocity": 0.41732283464566927,
                    "duration": 0.10869574999998122
                },
                {
                    "name": "C2",
                    "midi": 36,
                    "time": 422.1742929999961,
                    "velocity": 0.47244094488188976,
                    "duration": 0.10869574999998122
                },
                {
                    "name": "C3",
                    "midi": 48,
                    "time": 422.2829887499961,
                    "velocity": 0.3937007874015748,
                    "duration": 0.10869574999998122
                },
                {
                    "name": "D#2",
                    "midi": 39,
                    "time": 422.3916844999961,
                    "velocity": 0.4645669291338583,
                    "duration": 0.10869574999998122
                },
                {
                    "name": "D#3",
                    "midi": 51,
                    "time": 422.50038024999606,
                    "velocity": 0.4094488188976378,
                    "duration": 0.10869574999998122
                },
                {
                    "name": "F#1",
                    "midi": 30,
                    "time": 422.60907599999604,
                    "velocity": 0.4409448818897638,
                    "duration": 0.10869574999998122
                },
                {
                    "name": "F#2",
                    "midi": 42,
                    "time": 422.717771749996,
                    "velocity": 0.4094488188976378,
                    "duration": 0.10869574999998122
                },
                {
                    "name": "F1",
                    "midi": 29,
                    "time": 422.826467499996,
                    "velocity": 0.4566929133858268,
                    "duration": 0.10869574999998122
                },
                {
                    "name": "F2",
                    "midi": 41,
                    "time": 422.935163249996,
                    "velocity": 0.4015748031496063,
                    "duration": 0.10869574999998122
                },
                {
                    "name": "A1",
                    "midi": 33,
                    "time": 423.04385899999596,
                    "velocity": 0.4566929133858268,
                    "duration": 0.10869574999998122
                },
                {
                    "name": "A2",
                    "midi": 45,
                    "time": 423.15255474999594,
                    "velocity": 0.3858267716535433,
                    "duration": 0.10869574999998122
                },
                {
                    "name": "D#2",
                    "midi": 39,
                    "time": 423.2612504999959,
                    "velocity": 0.44881889763779526,
                    "duration": 0.10869574999998122
                },
                {
                    "name": "D#3",
                    "midi": 51,
                    "time": 423.3699462499959,
                    "velocity": 0.4015748031496063,
                    "duration": 0.10869574999998122
                },
                {
                    "name": "A#1",
                    "midi": 34,
                    "time": 423.4786419999959,
                    "velocity": 0.29133858267716534,
                    "duration": 0.4347829999999817
                },
                {
                    "name": "A#2",
                    "midi": 46,
                    "time": 423.4786419999959,
                    "velocity": 0.3464566929133858,
                    "duration": 0.4347829999999817
                },
                {
                    "name": "G#2",
                    "midi": 44,
                    "time": 423.91342499999587,
                    "velocity": 0.25196850393700787,
                    "duration": 0.4347829999999817
                },
                {
                    "name": "G#3",
                    "midi": 56,
                    "time": 423.91342499999587,
                    "velocity": 0.2992125984251969,
                    "duration": 0.4347829999999817
                },
                {
                    "name": "F#2",
                    "midi": 42,
                    "time": 424.34820799999585,
                    "velocity": 0.25984251968503935,
                    "duration": 0.4347829999999817
                },
                {
                    "name": "F#3",
                    "midi": 54,
                    "time": 424.34820799999585,
                    "velocity": 0.30708661417322836,
                    "duration": 0.4347829999999817
                },
                {
                    "name": "D#2",
                    "midi": 39,
                    "time": 424.78299099999583,
                    "velocity": 0.1889763779527559,
                    "duration": 0.4347829999999817
                },
                {
                    "name": "D#3",
                    "midi": 51,
                    "time": 424.78299099999583,
                    "velocity": 0.2283464566929134,
                    "duration": 0.4347829999999817
                },
                {
                    "name": "D2",
                    "midi": 38,
                    "time": 425.2177739999958,
                    "velocity": 0.2677165354330709,
                    "duration": 0.4347829999999817
                },
                {
                    "name": "D3",
                    "midi": 50,
                    "time": 425.2177739999958,
                    "velocity": 0.31496062992125984,
                    "duration": 0.4347829999999817
                },
                {
                    "name": "A#1",
                    "midi": 34,
                    "time": 425.6525569999958,
                    "velocity": 0.2047244094488189,
                    "duration": 0.4347829999999817
                },
                {
                    "name": "A#2",
                    "midi": 46,
                    "time": 425.6525569999958,
                    "velocity": 0.2440944881889764,
                    "duration": 0.4347829999999817
                },
                {
                    "name": "D#2",
                    "midi": 39,
                    "time": 426.0873399999958,
                    "velocity": 0.2677165354330709,
                    "duration": 0.4347829999999817
                },
                {
                    "name": "D#3",
                    "midi": 51,
                    "time": 426.0873399999958,
                    "velocity": 0.31496062992125984,
                    "duration": 0.4347829999999817
                },
                {
                    "name": "F#3",
                    "midi": 54,
                    "time": 426.52212299999576,
                    "velocity": 0.23622047244094488,
                    "duration": 0.21739150000001928
                },
                {
                    "name": "A#3",
                    "midi": 58,
                    "time": 426.52212299999576,
                    "velocity": 0.29133858267716534,
                    "duration": 0.21739150000001928
                },
                {
                    "name": "G3",
                    "midi": 55,
                    "time": 426.7395144999958,
                    "velocity": 0.23622047244094488,
                    "duration": 0.21739149999996243
                },
                {
                    "name": "A#3",
                    "midi": 58,
                    "time": 426.7395144999958,
                    "velocity": 0.30708661417322836,
                    "duration": 0.10869574999998122
                },
                {
                    "name": "C4",
                    "midi": 60,
                    "time": 426.84821024999576,
                    "velocity": 0.30708661417322836,
                    "duration": 0.10869574999998122
                },
                {
                    "name": "F3",
                    "midi": 53,
                    "time": 426.95690599999574,
                    "velocity": 0.36220472440944884,
                    "duration": 0.21739150000001928
                },
                {
                    "name": "A#3",
                    "midi": 58,
                    "time": 426.95690599999574,
                    "velocity": 0.2440944881889764,
                    "duration": 0.07336963124998874
                },
                {
                    "name": "C4",
                    "midi": 60,
                    "time": 427.03027563124573,
                    "velocity": 0.2047244094488189,
                    "duration": 0.07246383333335871
                },
                {
                    "name": "A#3",
                    "midi": 58,
                    "time": 427.1027394645791,
                    "velocity": 0.2440944881889764,
                    "duration": 0.07336963125004559
                },
                {
                    "name": "G3",
                    "midi": 55,
                    "time": 427.17429749999576,
                    "velocity": 0.31496062992125984,
                    "duration": 0.21739150000007612
                },
                {
                    "name": "C4",
                    "midi": 60,
                    "time": 427.17520329791245,
                    "velocity": 0.2125984251968504,
                    "duration": 0.07336963125004559
                },
                {
                    "name": "A#3",
                    "midi": 58,
                    "time": 427.2485729291625,
                    "velocity": 0.2440944881889764,
                    "duration": 0.07246383333335871
                },
                {
                    "name": "C4",
                    "midi": 60,
                    "time": 427.32103676249585,
                    "velocity": 0.2125984251968504,
                    "duration": 0.07336963124998874
                },
                {
                    "name": "G#3",
                    "midi": 56,
                    "time": 427.39168899999584,
                    "velocity": 0.36220472440944884,
                    "duration": 0.21739150000001928
                },
                {
                    "name": "A#3",
                    "midi": 58,
                    "time": 427.39168899999584,
                    "velocity": 0.25196850393700787,
                    "duration": 0.07336963124998874
                },
                {
                    "name": "C4",
                    "midi": 60,
                    "time": 427.4650586312458,
                    "velocity": 0.2125984251968504,
                    "duration": 0.07246383333335871
                },
                {
                    "name": "A#3",
                    "midi": 58,
                    "time": 427.5375224645792,
                    "velocity": 0.25196850393700787,
                    "duration": 0.07336963125004559
                },
                {
                    "name": "F3",
                    "midi": 53,
                    "time": 427.60908049999586,
                    "velocity": 0.31496062992125984,
                    "duration": 0.21739150000007612
                },
                {
                    "name": "C4",
                    "midi": 60,
                    "time": 427.60998629791254,
                    "velocity": 0.2204724409448819,
                    "duration": 0.07336963125004559
                },
                {
                    "name": "A#3",
                    "midi": 58,
                    "time": 427.6833559291626,
                    "velocity": 0.25196850393700787,
                    "duration": 0.07246383333335871
                },
                {
                    "name": "C4",
                    "midi": 60,
                    "time": 427.75581976249595,
                    "velocity": 0.2204724409448819,
                    "duration": 0.07336963124998874
                },
                {
                    "name": "A#3",
                    "midi": 58,
                    "time": 427.82647199999593,
                    "velocity": 0.25196850393700787,
                    "duration": 0.07336963124998874
                },
                {
                    "name": "G3",
                    "midi": 55,
                    "time": 427.82647199999593,
                    "velocity": 0.36220472440944884,
                    "duration": 0.21739150000001928
                },
                {
                    "name": "C4",
                    "midi": 60,
                    "time": 427.8998416312459,
                    "velocity": 0.2125984251968504,
                    "duration": 0.07246383333335871
                },
                {
                    "name": "A#3",
                    "midi": 58,
                    "time": 427.9723054645793,
                    "velocity": 0.25196850393700787,
                    "duration": 0.07336963125004559
                },
                {
                    "name": "G#3",
                    "midi": 56,
                    "time": 428.04386349999595,
                    "velocity": 0.31496062992125984,
                    "duration": 0.21739150000007612
                },
                {
                    "name": "C4",
                    "midi": 60,
                    "time": 428.04476929791264,
                    "velocity": 0.2283464566929134,
                    "duration": 0.07336963125004559
                },
                {
                    "name": "A#3",
                    "midi": 58,
                    "time": 428.1181389291627,
                    "velocity": 0.25196850393700787,
                    "duration": 0.07246383333335871
                },
                {
                    "name": "C4",
                    "midi": 60,
                    "time": 428.19060276249604,
                    "velocity": 0.2283464566929134,
                    "duration": 0.07336963124998874
                },
                {
                    "name": "G3",
                    "midi": 55,
                    "time": 428.261254999996,
                    "velocity": 0.36220472440944884,
                    "duration": 0.21739150000001928
                },
                {
                    "name": "A#3",
                    "midi": 58,
                    "time": 428.261254999996,
                    "velocity": 0.25984251968503935,
                    "duration": 0.07336963124998874
                },
                {
                    "name": "C4",
                    "midi": 60,
                    "time": 428.334624631246,
                    "velocity": 0.2283464566929134,
                    "duration": 0.07246383333335871
                },
                {
                    "name": "A#3",
                    "midi": 58,
                    "time": 428.4070884645794,
                    "velocity": 0.2677165354330709,
                    "duration": 0.07336963125004559
                },
                {
                    "name": "D#3",
                    "midi": 51,
                    "time": 428.47864649999605,
                    "velocity": 0.31496062992125984,
                    "duration": 0.21739150000007612
                },
                {
                    "name": "C4",
                    "midi": 60,
                    "time": 428.47955229791273,
                    "velocity": 0.23622047244094488,
                    "duration": 0.07336963125004559
                },
                {
                    "name": "A#3",
                    "midi": 58,
                    "time": 428.5529219291628,
                    "velocity": 0.2677165354330709,
                    "duration": 0.07246383333335871
                },
                {
                    "name": "C4",
                    "midi": 60,
                    "time": 428.62538576249614,
                    "velocity": 0.23622047244094488,
                    "duration": 0.07336963124998874
                },
                {
                    "name": "A#3",
                    "midi": 58,
                    "time": 428.6960379999961,
                    "velocity": 0.2755905511811024,
                    "duration": 0.07336963124998874
                },
                {
                    "name": "D3",
                    "midi": 50,
                    "time": 428.6960379999961,
                    "velocity": 0.36220472440944884,
                    "duration": 0.21739150000001928
                },
                {
                    "name": "C4",
                    "midi": 60,
                    "time": 428.7694076312461,
                    "velocity": 0.2283464566929134,
                    "duration": 0.07246383333335871
                },
                {
                    "name": "A#3",
                    "midi": 58,
                    "time": 428.84187146457947,
                    "velocity": 0.2755905511811024,
                    "duration": 0.07336963125004559
                },
                {
                    "name": "D#3",
                    "midi": 51,
                    "time": 428.91342949999614,
                    "velocity": 0.31496062992125984,
                    "duration": 0.21739150000007612
                },
                {
                    "name": "C4",
                    "midi": 60,
                    "time": 428.9143352979128,
                    "velocity": 0.25196850393700787,
                    "duration": 0.07336963125004559
                },
                {
                    "name": "A#3",
                    "midi": 58,
                    "time": 428.9877049291629,
                    "velocity": 0.2755905511811024,
                    "duration": 0.07246383333335871
                },
                {
                    "name": "C4",
                    "midi": 60,
                    "time": 429.06016876249623,
                    "velocity": 0.25196850393700787,
                    "duration": 0.07336963124998874
                },
                {
                    "name": "F3",
                    "midi": 53,
                    "time": 429.1308209999962,
                    "velocity": 0.36220472440944884,
                    "duration": 0.21739150000001928
                },
                {
                    "name": "A#3",
                    "midi": 58,
                    "time": 429.1308209999962,
                    "velocity": 0.2755905511811024,
                    "duration": 0.07336963124998874
                },
                {
                    "name": "C4",
                    "midi": 60,
                    "time": 429.2041906312462,
                    "velocity": 0.25196850393700787,
                    "duration": 0.07246383333335871
                },
                {
                    "name": "A#3",
                    "midi": 58,
                    "time": 429.27665446457956,
                    "velocity": 0.28346456692913385,
                    "duration": 0.07336963125004559
                },
                {
                    "name": "D3",
                    "midi": 50,
                    "time": 429.34821249999624,
                    "velocity": 0.31496062992125984,
                    "duration": 0.21739150000007612
                },
                {
                    "name": "C4",
                    "midi": 60,
                    "time": 429.3491182979129,
                    "velocity": 0.25196850393700787,
                    "duration": 0.07336963125004559
                },
                {
                    "name": "A#3",
                    "midi": 58,
                    "time": 429.42248792916297,
                    "velocity": 0.28346456692913385,
                    "duration": 0.07246383333335871
                },
                {
                    "name": "C4",
                    "midi": 60,
                    "time": 429.4949517624963,
                    "velocity": 0.25196850393700787,
                    "duration": 0.07336963124998874
                },
                {
                    "name": "D#3",
                    "midi": 51,
                    "time": 429.5656039999963,
                    "velocity": 0.36220472440944884,
                    "duration": 0.21739150000001928
                },
                {
                    "name": "A#3",
                    "midi": 58,
                    "time": 429.5656039999963,
                    "velocity": 0.28346456692913385,
                    "duration": 0.07336963124998874
                },
                {
                    "name": "C4",
                    "midi": 60,
                    "time": 429.6389736312463,
                    "velocity": 0.25196850393700787,
                    "duration": 0.07246383333335871
                },
                {
                    "name": "A#3",
                    "midi": 58,
                    "time": 429.71143746457966,
                    "velocity": 0.29133858267716534,
                    "duration": 0.07336963125004559
                },
                {
                    "name": "F3",
                    "midi": 53,
                    "time": 429.78299549999633,
                    "velocity": 0.31496062992125984,
                    "duration": 0.21739150000007612
                },
                {
                    "name": "C4",
                    "midi": 60,
                    "time": 429.783901297913,
                    "velocity": 0.25984251968503935,
                    "duration": 0.07336963125004559
                },
                {
                    "name": "A#3",
                    "midi": 58,
                    "time": 429.85727092916306,
                    "velocity": 0.29133858267716534,
                    "duration": 0.07246383333335871
                },
                {
                    "name": "C4",
                    "midi": 60,
                    "time": 429.9297347624964,
                    "velocity": 0.25984251968503935,
                    "duration": 0.07336963124998874
                },
                {
                    "name": "G3",
                    "midi": 55,
                    "time": 430.0003869999964,
                    "velocity": 0.36220472440944884,
                    "duration": 0.21739150000001928
                },
                {
                    "name": "A#3",
                    "midi": 58,
                    "time": 430.0003869999964,
                    "velocity": 0.2992125984251969,
                    "duration": 0.07336963124998874
                },
                {
                    "name": "C4",
                    "midi": 60,
                    "time": 430.0737566312464,
                    "velocity": 0.25196850393700787,
                    "duration": 0.07246383333335871
                },
                {
                    "name": "A#3",
                    "midi": 58,
                    "time": 430.14622046457976,
                    "velocity": 0.2992125984251969,
                    "duration": 0.07336963125004559
                },
                {
                    "name": "G#3",
                    "midi": 56,
                    "time": 430.2177784999964,
                    "velocity": 0.31496062992125984,
                    "duration": 0.21739150000007612
                },
                {
                    "name": "C4",
                    "midi": 60,
                    "time": 430.2186842979131,
                    "velocity": 0.2755905511811024,
                    "duration": 0.07336963125004559
                },
                {
                    "name": "A#3",
                    "midi": 58,
                    "time": 430.29205392916316,
                    "velocity": 0.2992125984251969,
                    "duration": 0.07246383333335871
                },
                {
                    "name": "C4",
                    "midi": 60,
                    "time": 430.3645177624965,
                    "velocity": 0.2677165354330709,
                    "duration": 0.07336963124998874
                },
                {
                    "name": "G3",
                    "midi": 55,
                    "time": 430.4351699999965,
                    "velocity": 0.31496062992125984,
                    "duration": 0.6521745000001147
                },
                {
                    "name": "A#3",
                    "midi": 58,
                    "time": 430.4351699999965,
                    "velocity": 0.2677165354330709,
                    "duration": 0.07336963124998874
                },
                {
                    "name": "C4",
                    "midi": 60,
                    "time": 430.5085396312465,
                    "velocity": 0.2283464566929134,
                    "duration": 0.07246383333335871
                },
                {
                    "name": "A#3",
                    "midi": 58,
                    "time": 430.58100346457985,
                    "velocity": 0.2677165354330709,
                    "duration": 0.07336963125004559
                },
                {
                    "name": "C4",
                    "midi": 60,
                    "time": 430.6534672979132,
                    "velocity": 0.23622047244094488,
                    "duration": 0.07336963125004559
                },
                {
                    "name": "A#3",
                    "midi": 58,
                    "time": 430.72683692916326,
                    "velocity": 0.25984251968503935,
                    "duration": 0.07246383333335871
                },
                {
                    "name": "C4",
                    "midi": 60,
                    "time": 430.7993007624966,
                    "velocity": 0.2283464566929134,
                    "duration": 0.07336963124998874
                },
                {
                    "name": "A#3",
                    "midi": 58,
                    "time": 430.8699529999966,
                    "velocity": 0.2677165354330709,
                    "duration": 0.07336963124998874
                },
                {
                    "name": "C4",
                    "midi": 60,
                    "time": 430.9433226312466,
                    "velocity": 0.2283464566929134,
                    "duration": 0.07246383333335871
                },
                {
                    "name": "A#3",
                    "midi": 58,
                    "time": 431.01578646457995,
                    "velocity": 0.25984251968503935,
                    "duration": 0.07336963125004559
                },
                {
                    "name": "G#3",
                    "midi": 56,
                    "time": 431.0873444999966,
                    "velocity": 0.2440944881889764,
                    "duration": 0.21739150000007612
                },
                {
                    "name": "C4",
                    "midi": 60,
                    "time": 431.0882502979133,
                    "velocity": 0.2283464566929134,
                    "duration": 0.07336963125004559
                },
                {
                    "name": "A#3",
                    "midi": 58,
                    "time": 431.16161992916335,
                    "velocity": 0.25196850393700787,
                    "duration": 0.07246383333335871
                },
                {
                    "name": "C4",
                    "midi": 60,
                    "time": 431.2340837624967,
                    "velocity": 0.2125984251968504,
                    "duration": 0.07336963124998874
                },
                {
                    "name": "G3",
                    "midi": 55,
                    "time": 431.3047359999967,
                    "velocity": 0.29133858267716534,
                    "duration": 0.6521745000001147
                },
                {
                    "name": "A#3",
                    "midi": 58,
                    "time": 431.3047359999967,
                    "velocity": 0.23622047244094488,
                    "duration": 0.07336963124998874
                },
                {
                    "name": "C4",
                    "midi": 60,
                    "time": 431.3781056312467,
                    "velocity": 0.2047244094488189,
                    "duration": 0.07246383333335871
                },
                {
                    "name": "A#3",
                    "midi": 58,
                    "time": 431.45056946458004,
                    "velocity": 0.23622047244094488,
                    "duration": 0.07336963125004559
                },
                {
                    "name": "C4",
                    "midi": 60,
                    "time": 431.5230332979134,
                    "velocity": 0.2125984251968504,
                    "duration": 0.07336963125004559
                },
                {
                    "name": "A#3",
                    "midi": 58,
                    "time": 431.59640292916345,
                    "velocity": 0.2283464566929134,
                    "duration": 0.07246383333335871
                },
                {
                    "name": "C4",
                    "midi": 60,
                    "time": 431.6688667624968,
                    "velocity": 0.2047244094488189,
                    "duration": 0.07336963124998874
                },
                {
                    "name": "A#3",
                    "midi": 58,
                    "time": 431.7395189999968,
                    "velocity": 0.23622047244094488,
                    "duration": 0.07336963124998874
                },
                {
                    "name": "C4",
                    "midi": 60,
                    "time": 431.8128886312468,
                    "velocity": 0.2047244094488189,
                    "duration": 0.07246383333335871
                },
                {
                    "name": "A#3",
                    "midi": 58,
                    "time": 431.88535246458014,
                    "velocity": 0.2283464566929134,
                    "duration": 0.07336963125004559
                },
                {
                    "name": "F3",
                    "midi": 53,
                    "time": 431.9569104999968,
                    "velocity": 0.2125984251968504,
                    "duration": 0.21739150000007612
                },
                {
                    "name": "C4",
                    "midi": 60,
                    "time": 431.9578162979135,
                    "velocity": 0.1968503937007874,
                    "duration": 0.07336963125004559
                },
                {
                    "name": "A#3",
                    "midi": 58,
                    "time": 432.03118592916354,
                    "velocity": 0.2204724409448819,
                    "duration": 0.07246383333335871
                },
                {
                    "name": "C4",
                    "midi": 60,
                    "time": 432.1036497624969,
                    "velocity": 0.1889763779527559,
                    "duration": 0.07336963124998874
                },
                {
                    "name": "F3",
                    "midi": 53,
                    "time": 432.1743019999969,
                    "velocity": 0.23622047244094488,
                    "duration": 0.8695660000000203
                },
                {
                    "name": "D4",
                    "midi": 62,
                    "time": 432.1743019999969,
                    "velocity": 0.28346456692913385,
                    "duration": 0.8695660000000203
                },
                {
                    "name": "A#3",
                    "midi": 58,
                    "time": 432.1806425854136,
                    "velocity": 0.23622047244094488,
                    "duration": 0.8695660000000203
                },
                {
                    "name": "A#4",
                    "midi": 70,
                    "time": 433.2612594999969,
                    "velocity": 0.28346456692913385,
                    "duration": 0.11956532499999639
                },
                {
                    "name": "A4",
                    "midi": 69,
                    "time": 433.3699552499969,
                    "velocity": 0.25984251968503935,
                    "duration": 0.11956532500005324
                },
                {
                    "name": "G4",
                    "midi": 67,
                    "time": 433.47865099999694,
                    "velocity": 0.29133858267716534,
                    "duration": 0.11956532500005324
                },
                {
                    "name": "F4",
                    "midi": 65,
                    "time": 433.587346749997,
                    "velocity": 0.25984251968503935,
                    "duration": 0.11956532500005324
                },
                {
                    "name": "G4",
                    "midi": 67,
                    "time": 433.696042499997,
                    "velocity": 0.28346456692913385,
                    "duration": 0.11956532500005324
                },
                {
                    "name": "A4",
                    "midi": 69,
                    "time": 433.80473824999706,
                    "velocity": 0.25984251968503935,
                    "duration": 0.11956532500005324
                },
                {
                    "name": "A#4",
                    "midi": 70,
                    "time": 433.9134339999971,
                    "velocity": 0.28346456692913385,
                    "duration": 0.11956532500005324
                },
                {
                    "name": "C5",
                    "midi": 72,
                    "time": 434.02212974999713,
                    "velocity": 0.29133858267716534,
                    "duration": 0.11956532500005324
                },
                {
                    "name": "D5",
                    "midi": 74,
                    "time": 434.1308254999972,
                    "velocity": 0.2992125984251969,
                    "duration": 0.11956532500005324
                },
                {
                    "name": "D#5",
                    "midi": 75,
                    "time": 434.2395212499972,
                    "velocity": 0.30708661417322836,
                    "duration": 0.11956532500005324
                },
                {
                    "name": "F5",
                    "midi": 77,
                    "time": 434.34821699999725,
                    "velocity": 0.31496062992125984,
                    "duration": 0.11956532500005324
                },
                {
                    "name": "G5",
                    "midi": 79,
                    "time": 434.4569127499973,
                    "velocity": 0.3228346456692913,
                    "duration": 0.11956532500005324
                },
                {
                    "name": "A5",
                    "midi": 81,
                    "time": 434.5656084999973,
                    "velocity": 0.33070866141732286,
                    "duration": 0.11956532500005324
                },
                {
                    "name": "A#5",
                    "midi": 82,
                    "time": 434.67430424999736,
                    "velocity": 0.33858267716535434,
                    "duration": 0.11956532499999639
                },
                {
                    "name": "F2",
                    "midi": 41,
                    "time": 434.8916957499974,
                    "velocity": 0.25984251968503935,
                    "duration": 0.11956532499999639
                },
                {
                    "name": "G2",
                    "midi": 43,
                    "time": 435.00039149999736,
                    "velocity": 0.25984251968503935,
                    "duration": 0.11956532500005324
                },
                {
                    "name": "A2",
                    "midi": 45,
                    "time": 435.1090872499974,
                    "velocity": 0.25196850393700787,
                    "duration": 0.11956532500005324
                },
                {
                    "name": "A#2",
                    "midi": 46,
                    "time": 435.21778299999744,
                    "velocity": 0.25196850393700787,
                    "duration": 0.11956532500005324
                },
                {
                    "name": "C3",
                    "midi": 48,
                    "time": 435.3264787499975,
                    "velocity": 0.2440944881889764,
                    "duration": 0.11956532500005324
                },
                {
                    "name": "D3",
                    "midi": 50,
                    "time": 435.4351744999975,
                    "velocity": 0.2440944881889764,
                    "duration": 0.11956532500005324
                },
                {
                    "name": "D#3",
                    "midi": 51,
                    "time": 435.54387024999755,
                    "velocity": 0.23622047244094488,
                    "duration": 0.11956532500005324
                },
                {
                    "name": "F3",
                    "midi": 53,
                    "time": 435.6525659999976,
                    "velocity": 0.23622047244094488,
                    "duration": 0.11956532500005324
                },
                {
                    "name": "G3",
                    "midi": 55,
                    "time": 435.76126174999763,
                    "velocity": 0.23622047244094488,
                    "duration": 0.11956532500005324
                },
                {
                    "name": "A3",
                    "midi": 57,
                    "time": 435.86995749999767,
                    "velocity": 0.2283464566929134,
                    "duration": 0.11956532500005324
                },
                {
                    "name": "A#3",
                    "midi": 58,
                    "time": 435.9786532499977,
                    "velocity": 0.2283464566929134,
                    "duration": 0.11956532500005324
                },
                {
                    "name": "C4",
                    "midi": 60,
                    "time": 436.08734899999774,
                    "velocity": 0.2204724409448819,
                    "duration": 0.11956532500005324
                },
                {
                    "name": "D4",
                    "midi": 62,
                    "time": 436.1960447499978,
                    "velocity": 0.2204724409448819,
                    "duration": 0.11956532500005324
                },
                {
                    "name": "D#4",
                    "midi": 63,
                    "time": 436.3047404999978,
                    "velocity": 0.2125984251968504,
                    "duration": 0.11956532500005324
                },
                {
                    "name": "D4",
                    "midi": 62,
                    "time": 436.41343624999786,
                    "velocity": 0.2125984251968504,
                    "duration": 0.10869575000003806
                },
                {
                    "name": "D4",
                    "midi": 62,
                    "time": 436.5221319999979,
                    "velocity": 0.25196850393700787,
                    "duration": 0.3233698562499967
                },
                {
                    "name": "A#3",
                    "midi": 58,
                    "time": 436.5221319999979,
                    "velocity": 0.2125984251968504,
                    "duration": 0.3233698562499967
                },
                {
                    "name": "D4",
                    "midi": 62,
                    "time": 436.8482192499979,
                    "velocity": 0.2047244094488189,
                    "duration": 0.10778995208335118
                },
                {
                    "name": "A#3",
                    "midi": 58,
                    "time": 436.8482192499979,
                    "velocity": 0.1732283464566929,
                    "duration": 0.10778995208335118
                },
                {
                    "name": "D4",
                    "midi": 62,
                    "time": 436.95691499999793,
                    "velocity": 0.25196850393700787,
                    "duration": 0.21739150000001928
                },
                {
                    "name": "A#3",
                    "midi": 58,
                    "time": 436.95691499999793,
                    "velocity": 0.2125984251968504,
                    "duration": 0.21739150000001928
                },
                {
                    "name": "B1",
                    "midi": 35,
                    "time": 437.28300224999793,
                    "velocity": 0.4881889763779528,
                    "duration": 0.10869574999998122
                },
                {
                    "name": "B2",
                    "midi": 47,
                    "time": 437.28300224999793,
                    "velocity": 0.5826771653543307,
                    "duration": 0.10869574999998122
                },
                {
                    "name": "C3",
                    "midi": 48,
                    "time": 437.3916979999979,
                    "velocity": 0.7244094488188977,
                    "duration": 0.3233698562499967
                },
                {
                    "name": "C2",
                    "midi": 36,
                    "time": 437.3916979999979,
                    "velocity": 0.6062992125984252,
                    "duration": 0.3233698562499967
                },
                {
                    "name": "C3",
                    "midi": 48,
                    "time": 437.7177852499979,
                    "velocity": 0.4881889763779528,
                    "duration": 0.10778995208335118
                },
                {
                    "name": "C2",
                    "midi": 36,
                    "time": 437.7177852499979,
                    "velocity": 0.4094488188976378,
                    "duration": 0.10778995208335118
                },
                {
                    "name": "C3",
                    "midi": 48,
                    "time": 437.82648099999795,
                    "velocity": 0.6141732283464567,
                    "duration": 0.21739150000001928
                },
                {
                    "name": "C2",
                    "midi": 36,
                    "time": 437.82648099999795,
                    "velocity": 0.49606299212598426,
                    "duration": 0.21739150000001928
                },
                {
                    "name": "B3",
                    "midi": 59,
                    "time": 438.15256824999796,
                    "velocity": 0.1732283464566929,
                    "duration": 0.10869574999998122
                },
                {
                    "name": "D4",
                    "midi": 62,
                    "time": 438.15256824999796,
                    "velocity": 0.2047244094488189,
                    "duration": 0.10869574999998122
                },
                {
                    "name": "D#4",
                    "midi": 63,
                    "time": 438.26126399999794,
                    "velocity": 0.25196850393700787,
                    "duration": 0.3233698562499967
                },
                {
                    "name": "C4",
                    "midi": 60,
                    "time": 438.26126399999794,
                    "velocity": 0.2125984251968504,
                    "duration": 0.3233698562499967
                },
                {
                    "name": "D#4",
                    "midi": 63,
                    "time": 438.58735124999794,
                    "velocity": 0.2047244094488189,
                    "duration": 0.10778995208335118
                },
                {
                    "name": "C4",
                    "midi": 60,
                    "time": 438.58735124999794,
                    "velocity": 0.1732283464566929,
                    "duration": 0.10778995208335118
                },
                {
                    "name": "D#4",
                    "midi": 63,
                    "time": 438.696046999998,
                    "velocity": 0.25196850393700787,
                    "duration": 0.21739150000001928
                },
                {
                    "name": "C4",
                    "midi": 60,
                    "time": 438.696046999998,
                    "velocity": 0.2125984251968504,
                    "duration": 0.21739150000001928
                },
                {
                    "name": "C#2",
                    "midi": 37,
                    "time": 439.022134249998,
                    "velocity": 0.4881889763779528,
                    "duration": 0.10869574999998122
                },
                {
                    "name": "C#3",
                    "midi": 49,
                    "time": 439.022134249998,
                    "velocity": 0.5826771653543307,
                    "duration": 0.10869574999998122
                },
                {
                    "name": "D3",
                    "midi": 50,
                    "time": 439.13082999999796,
                    "velocity": 0.7244094488188977,
                    "duration": 0.3233698562499967
                },
                {
                    "name": "D2",
                    "midi": 38,
                    "time": 439.13082999999796,
                    "velocity": 0.6062992125984252,
                    "duration": 0.3233698562499967
                },
                {
                    "name": "D3",
                    "midi": 50,
                    "time": 439.45691724999796,
                    "velocity": 0.4881889763779528,
                    "duration": 0.10778995208335118
                },
                {
                    "name": "D2",
                    "midi": 38,
                    "time": 439.45691724999796,
                    "velocity": 0.4094488188976378,
                    "duration": 0.10778995208335118
                },
                {
                    "name": "D3",
                    "midi": 50,
                    "time": 439.565612999998,
                    "velocity": 0.6141732283464567,
                    "duration": 0.21739150000001928
                },
                {
                    "name": "D2",
                    "midi": 38,
                    "time": 439.565612999998,
                    "velocity": 0.49606299212598426,
                    "duration": 0.21739150000001928
                },
                {
                    "name": "C#4",
                    "midi": 61,
                    "time": 439.891700249998,
                    "velocity": 0.1732283464566929,
                    "duration": 0.10869574999998122
                },
                {
                    "name": "E4",
                    "midi": 64,
                    "time": 439.891700249998,
                    "velocity": 0.2047244094488189,
                    "duration": 0.10869574999998122
                },
                {
                    "name": "F4",
                    "midi": 65,
                    "time": 440.000395999998,
                    "velocity": 0.25196850393700787,
                    "duration": 0.3233698562499967
                },
                {
                    "name": "D4",
                    "midi": 62,
                    "time": 440.000395999998,
                    "velocity": 0.2125984251968504,
                    "duration": 0.3233698562499967
                },
                {
                    "name": "F4",
                    "midi": 65,
                    "time": 440.326483249998,
                    "velocity": 0.2047244094488189,
                    "duration": 0.10778995208335118
                },
                {
                    "name": "D4",
                    "midi": 62,
                    "time": 440.326483249998,
                    "velocity": 0.1732283464566929,
                    "duration": 0.10778995208335118
                },
                {
                    "name": "F4",
                    "midi": 65,
                    "time": 440.435178999998,
                    "velocity": 0.25196850393700787,
                    "duration": 0.21739150000001928
                },
                {
                    "name": "D4",
                    "midi": 62,
                    "time": 440.435178999998,
                    "velocity": 0.2125984251968504,
                    "duration": 0.21739150000001928
                },
                {
                    "name": "D2",
                    "midi": 38,
                    "time": 440.761266249998,
                    "velocity": 0.44881889763779526,
                    "duration": 0.10869574999998122
                },
                {
                    "name": "D3",
                    "midi": 50,
                    "time": 440.761266249998,
                    "velocity": 0.5354330708661418,
                    "duration": 0.10869574999998122
                },
                {
                    "name": "D#3",
                    "midi": 51,
                    "time": 440.869961999998,
                    "velocity": 0.6614173228346457,
                    "duration": 0.3233698562499967
                },
                {
                    "name": "D#2",
                    "midi": 39,
                    "time": 440.869961999998,
                    "velocity": 0.5511811023622047,
                    "duration": 0.3233698562499967
                },
                {
                    "name": "D#3",
                    "midi": 51,
                    "time": 441.196049249998,
                    "velocity": 0.44881889763779526,
                    "duration": 0.10778995208335118
                },
                {
                    "name": "D#2",
                    "midi": 39,
                    "time": 441.196049249998,
                    "velocity": 0.3779527559055118,
                    "duration": 0.10778995208335118
                },
                {
                    "name": "D#3",
                    "midi": 51,
                    "time": 441.30474499999804,
                    "velocity": 0.5590551181102362,
                    "duration": 0.21739150000001928
                },
                {
                    "name": "D#2",
                    "midi": 39,
                    "time": 441.30474499999804,
                    "velocity": 0.4566929133858268,
                    "duration": 0.21739150000001928
                },
                {
                    "name": "D#2",
                    "midi": 39,
                    "time": 442.50039824999806,
                    "velocity": 0.5196850393700787,
                    "duration": 0.10869574999998122
                },
                {
                    "name": "D#3",
                    "midi": 51,
                    "time": 442.50039824999806,
                    "velocity": 0.6062992125984252,
                    "duration": 0.10869574999998122
                },
                {
                    "name": "F2",
                    "midi": 41,
                    "time": 442.60909399999804,
                    "velocity": 0.7559055118110236,
                    "duration": 0.3233698562499967
                },
                {
                    "name": "F1",
                    "midi": 29,
                    "time": 442.60909399999804,
                    "velocity": 0.6299212598425197,
                    "duration": 0.3233698562499967
                },
                {
                    "name": "F2",
                    "midi": 41,
                    "time": 442.93518124999804,
                    "velocity": 0.5669291338582677,
                    "duration": 0.10778995208335118
                },
                {
                    "name": "F1",
                    "midi": 29,
                    "time": 442.93518124999804,
                    "velocity": 0.4645669291338583,
                    "duration": 0.10778995208335118
                },
                {
                    "name": "F2",
                    "midi": 41,
                    "time": 443.0438769999981,
                    "velocity": 0.7007874015748031,
                    "duration": 0.21739150000001928
                },
                {
                    "name": "F1",
                    "midi": 29,
                    "time": 443.0438769999981,
                    "velocity": 0.5748031496062992,
                    "duration": 0.21739150000001928
                },
                {
                    "name": "F#1",
                    "midi": 30,
                    "time": 444.1308344999981,
                    "velocity": 0.25984251968503935,
                    "duration": 0.11956532499999639
                },
                {
                    "name": "F1",
                    "midi": 29,
                    "time": 444.2395302499981,
                    "velocity": 0.2283464566929134,
                    "duration": 0.11956532500005324
                },
                {
                    "name": "F#1",
                    "midi": 30,
                    "time": 444.34822599999814,
                    "velocity": 0.25984251968503935,
                    "duration": 0.11956532500005324
                },
                {
                    "name": "F1",
                    "midi": 29,
                    "time": 444.4569217499982,
                    "velocity": 0.2283464566929134,
                    "duration": 0.11956532500005324
                },
                {
                    "name": "F#1",
                    "midi": 30,
                    "time": 444.5656174999982,
                    "velocity": 0.25984251968503935,
                    "duration": 0.11956532500005324
                },
                {
                    "name": "F1",
                    "midi": 29,
                    "time": 444.67431324999825,
                    "velocity": 0.2283464566929134,
                    "duration": 0.11956532500005324
                },
                {
                    "name": "A1",
                    "midi": 33,
                    "time": 444.7830089999983,
                    "velocity": 0.25984251968503935,
                    "duration": 0.11956532500005324
                },
                {
                    "name": "A#1",
                    "midi": 34,
                    "time": 444.8917047499983,
                    "velocity": 0.2204724409448819,
                    "duration": 0.11956532500005324
                },
                {
                    "name": "A1",
                    "midi": 33,
                    "time": 445.00040049999836,
                    "velocity": 0.2755905511811024,
                    "duration": 0.11956532500005324
                },
                {
                    "name": "A#1",
                    "midi": 34,
                    "time": 445.1090962499984,
                    "velocity": 0.23622047244094488,
                    "duration": 0.11956532500005324
                },
                {
                    "name": "F#1",
                    "midi": 30,
                    "time": 445.21779199999844,
                    "velocity": 0.28346456692913385,
                    "duration": 0.11956532500005324
                },
                {
                    "name": "F1",
                    "midi": 29,
                    "time": 445.3264877499985,
                    "velocity": 0.25196850393700787,
                    "duration": 0.11956532500005324
                },
                {
                    "name": "F#1",
                    "midi": 30,
                    "time": 445.4351834999985,
                    "velocity": 0.2992125984251969,
                    "duration": 0.11956532500005324
                },
                {
                    "name": "F1",
                    "midi": 29,
                    "time": 445.54387924999855,
                    "velocity": 0.33858267716535434,
                    "duration": 0.11956532500005324
                },
                {
                    "name": "A#1",
                    "midi": 34,
                    "time": 445.6525749999986,
                    "velocity": 0.49606299212598426,
                    "duration": 0.4347829999999817
                },
                {
                    "name": "F#2",
                    "midi": 42,
                    "time": 445.6525749999986,
                    "velocity": 0.49606299212598426,
                    "duration": 0.10869575000003806
                },
                {
                    "name": "F2",
                    "midi": 41,
                    "time": 445.76127074999863,
                    "velocity": 0.41732283464566927,
                    "duration": 0.10869574999998122
                },
                {
                    "name": "F#2",
                    "midi": 42,
                    "time": 445.8699664999986,
                    "velocity": 0.48031496062992124,
                    "duration": 0.10869574999998122
                },
                {
                    "name": "F2",
                    "midi": 41,
                    "time": 445.9786622499986,
                    "velocity": 0.4330708661417323,
                    "duration": 0.10869574999998122
                },
                {
                    "name": "F#1",
                    "midi": 30,
                    "time": 446.0873579999986,
                    "velocity": 0.33070866141732286,
                    "duration": 0.11956532499999639
                },
                {
                    "name": "F1",
                    "midi": 29,
                    "time": 446.19605374999855,
                    "velocity": 0.2283464566929134,
                    "duration": 0.11956532500005324
                },
                {
                    "name": "F#1",
                    "midi": 30,
                    "time": 446.3047494999986,
                    "velocity": 0.25984251968503935,
                    "duration": 0.11956532500005324
                },
                {
                    "name": "F1",
                    "midi": 29,
                    "time": 446.41344524999863,
                    "velocity": 0.2283464566929134,
                    "duration": 0.11956532500005324
                },
                {
                    "name": "A1",
                    "midi": 33,
                    "time": 446.52214099999867,
                    "velocity": 0.25984251968503935,
                    "duration": 0.11956532500005324
                },
                {
                    "name": "A#1",
                    "midi": 34,
                    "time": 446.6308367499987,
                    "velocity": 0.2204724409448819,
                    "duration": 0.11956532500005324
                },
                {
                    "name": "A1",
                    "midi": 33,
                    "time": 446.73953249999875,
                    "velocity": 0.2755905511811024,
                    "duration": 0.11956532500005324
                },
                {
                    "name": "A#1",
                    "midi": 34,
                    "time": 446.8482282499988,
                    "velocity": 0.23622047244094488,
                    "duration": 0.11956532500005324
                },
                {
                    "name": "F#1",
                    "midi": 30,
                    "time": 446.9569239999988,
                    "velocity": 0.28346456692913385,
                    "duration": 0.11956532500005324
                },
                {
                    "name": "F1",
                    "midi": 29,
                    "time": 447.06561974999886,
                    "velocity": 0.25196850393700787,
                    "duration": 0.11956532500005324
                },
                {
                    "name": "F#1",
                    "midi": 30,
                    "time": 447.1743154999989,
                    "velocity": 0.2992125984251969,
                    "duration": 0.11956532500005324
                },
                {
                    "name": "F1",
                    "midi": 29,
                    "time": 447.28301124999894,
                    "velocity": 0.2677165354330709,
                    "duration": 0.11956532500005324
                },
                {
                    "name": "A#1",
                    "midi": 34,
                    "time": 447.391706999999,
                    "velocity": 0.49606299212598426,
                    "duration": 0.4347829999999817
                },
                {
                    "name": "F#2",
                    "midi": 42,
                    "time": 447.391706999999,
                    "velocity": 0.49606299212598426,
                    "duration": 0.10869575000003806
                },
                {
                    "name": "F2",
                    "midi": 41,
                    "time": 447.500402749999,
                    "velocity": 0.41732283464566927,
                    "duration": 0.10869574999998122
                },
                {
                    "name": "F#2",
                    "midi": 42,
                    "time": 447.609098499999,
                    "velocity": 0.48031496062992124,
                    "duration": 0.10869574999998122
                },
                {
                    "name": "F2",
                    "midi": 41,
                    "time": 447.717794249999,
                    "velocity": 0.4330708661417323,
                    "duration": 0.10869574999998122
                },
                {
                    "name": "F#1",
                    "midi": 30,
                    "time": 447.82648999999896,
                    "velocity": 0.28346456692913385,
                    "duration": 0.11956532499999639
                },
                {
                    "name": "F1",
                    "midi": 29,
                    "time": 447.93518574999894,
                    "velocity": 0.25196850393700787,
                    "duration": 0.11956532500005324
                },
                {
                    "name": "F#1",
                    "midi": 30,
                    "time": 448.043881499999,
                    "velocity": 0.2992125984251969,
                    "duration": 0.11956532500005324
                },
                {
                    "name": "F1",
                    "midi": 29,
                    "time": 448.152577249999,
                    "velocity": 0.2677165354330709,
                    "duration": 0.11956532500005324
                },
                {
                    "name": "A#1",
                    "midi": 34,
                    "time": 448.26127299999905,
                    "velocity": 0.3937007874015748,
                    "duration": 0.4347829999999817
                },
                {
                    "name": "F#2",
                    "midi": 42,
                    "time": 448.26127299999905,
                    "velocity": 0.3937007874015748,
                    "duration": 0.10869575000003806
                },
                {
                    "name": "F2",
                    "midi": 41,
                    "time": 448.3699687499991,
                    "velocity": 0.41732283464566927,
                    "duration": 0.10869574999998122
                },
                {
                    "name": "F#2",
                    "midi": 42,
                    "time": 448.47866449999907,
                    "velocity": 0.48031496062992124,
                    "duration": 0.10869574999998122
                },
                {
                    "name": "F2",
                    "midi": 41,
                    "time": 448.58736024999905,
                    "velocity": 0.4330708661417323,
                    "duration": 0.10869574999998122
                },
                {
                    "name": "F#1",
                    "midi": 30,
                    "time": 448.69605599999903,
                    "velocity": 0.28346456692913385,
                    "duration": 0.11956532499999639
                },
                {
                    "name": "F1",
                    "midi": 29,
                    "time": 448.804751749999,
                    "velocity": 0.25196850393700787,
                    "duration": 0.11956532500005324
                },
                {
                    "name": "F#1",
                    "midi": 30,
                    "time": 448.91344749999905,
                    "velocity": 0.2992125984251969,
                    "duration": 0.11956532500005324
                },
                {
                    "name": "F1",
                    "midi": 29,
                    "time": 449.0221432499991,
                    "velocity": 0.2677165354330709,
                    "duration": 0.11956532500005324
                },
                {
                    "name": "A#1",
                    "midi": 34,
                    "time": 449.1308389999991,
                    "velocity": 0.49606299212598426,
                    "duration": 0.4347829999999817
                },
                {
                    "name": "F#2",
                    "midi": 42,
                    "time": 449.1308389999991,
                    "velocity": 0.49606299212598426,
                    "duration": 0.10869575000003806
                },
                {
                    "name": "F2",
                    "midi": 41,
                    "time": 449.23953474999917,
                    "velocity": 0.41732283464566927,
                    "duration": 0.10869574999998122
                },
                {
                    "name": "F#2",
                    "midi": 42,
                    "time": 449.34823049999915,
                    "velocity": 0.48031496062992124,
                    "duration": 0.10869574999998122
                },
                {
                    "name": "F2",
                    "midi": 41,
                    "time": 449.4569262499991,
                    "velocity": 0.4330708661417323,
                    "duration": 0.10869574999998122
                },
                {
                    "name": "F#1",
                    "midi": 30,
                    "time": 449.5656219999991,
                    "velocity": 0.36220472440944884,
                    "duration": 0.11956532499999639
                },
                {
                    "name": "F1",
                    "midi": 29,
                    "time": 449.6743177499991,
                    "velocity": 0.25196850393700787,
                    "duration": 0.11956532500005324
                },
                {
                    "name": "F#1",
                    "midi": 30,
                    "time": 449.78301349999913,
                    "velocity": 0.2992125984251969,
                    "duration": 0.11956532500005324
                },
                {
                    "name": "F1",
                    "midi": 29,
                    "time": 449.89170924999917,
                    "velocity": 0.2677165354330709,
                    "duration": 0.11956532500005324
                },
                {
                    "name": "A#1",
                    "midi": 34,
                    "time": 450.0004049999992,
                    "velocity": 0.49606299212598426,
                    "duration": 0.4347829999999817
                },
                {
                    "name": "F#2",
                    "midi": 42,
                    "time": 450.0004049999992,
                    "velocity": 0.49606299212598426,
                    "duration": 0.10869575000003806
                },
                {
                    "name": "F2",
                    "midi": 41,
                    "time": 450.10910074999924,
                    "velocity": 0.41732283464566927,
                    "duration": 0.10869574999998122
                },
                {
                    "name": "F#2",
                    "midi": 42,
                    "time": 450.2177964999992,
                    "velocity": 0.48031496062992124,
                    "duration": 0.10869574999998122
                },
                {
                    "name": "F2",
                    "midi": 41,
                    "time": 450.3264922499992,
                    "velocity": 0.4330708661417323,
                    "duration": 0.10869574999998122
                },
                {
                    "name": "A#2",
                    "midi": 46,
                    "time": 450.4351879999992,
                    "velocity": 0.2755905511811024,
                    "duration": 0.4347830000000954
                },
                {
                    "name": "F#3",
                    "midi": 54,
                    "time": 450.4351879999992,
                    "velocity": 0.30708661417322836,
                    "duration": 0.11956532499999639
                },
                {
                    "name": "F3",
                    "midi": 53,
                    "time": 450.54388374999917,
                    "velocity": 0.2677165354330709,
                    "duration": 0.11956532500005324
                },
                {
                    "name": "F#3",
                    "midi": 54,
                    "time": 450.6525794999992,
                    "velocity": 0.31496062992125984,
                    "duration": 0.11956532500005324
                },
                {
                    "name": "F3",
                    "midi": 53,
                    "time": 450.76127524999924,
                    "velocity": 0.28346456692913385,
                    "duration": 0.11956532500005324
                },
                {
                    "name": "F#3",
                    "midi": 54,
                    "time": 450.8699709999993,
                    "velocity": 0.30708661417322836,
                    "duration": 0.11956532500005324
                },
                {
                    "name": "F3",
                    "midi": 53,
                    "time": 450.9786667499993,
                    "velocity": 0.2677165354330709,
                    "duration": 0.11956532500005324
                },
                {
                    "name": "F#3",
                    "midi": 54,
                    "time": 451.08736249999936,
                    "velocity": 0.31496062992125984,
                    "duration": 0.11956532500005324
                },
                {
                    "name": "F3",
                    "midi": 53,
                    "time": 451.1960582499994,
                    "velocity": 0.28346456692913385,
                    "duration": 0.11956532499999639
                },
                {
                    "name": "F#1",
                    "midi": 30,
                    "time": 451.5221454999994,
                    "velocity": 0.3779527559055118,
                    "duration": 0.10869574999998122
                },
                {
                    "name": "F1",
                    "midi": 29,
                    "time": 451.6308412499994,
                    "velocity": 0.33858267716535434,
                    "duration": 0.10869574999998122
                },
                {
                    "name": "A#1",
                    "midi": 34,
                    "time": 451.73953699999936,
                    "velocity": 0.47244094488188976,
                    "duration": 0.43478299999992487
                },
                {
                    "name": "F#2",
                    "midi": 42,
                    "time": 451.73953699999936,
                    "velocity": 0.47244094488188976,
                    "duration": 0.10869574999998122
                },
                {
                    "name": "F2",
                    "midi": 41,
                    "time": 451.84823274999934,
                    "velocity": 0.4015748031496063,
                    "duration": 0.10869574999998122
                },
                {
                    "name": "F#2",
                    "midi": 42,
                    "time": 451.9569284999993,
                    "velocity": 0.4645669291338583,
                    "duration": 0.10869574999998122
                },
                {
                    "name": "F2",
                    "midi": 41,
                    "time": 452.0656242499993,
                    "velocity": 0.41732283464566927,
                    "duration": 0.10869574999998122
                },
                {
                    "name": "F#1",
                    "midi": 30,
                    "time": 452.1743199999993,
                    "velocity": 0.36220472440944884,
                    "duration": 0.11956532499999639
                },
                {
                    "name": "F1",
                    "midi": 29,
                    "time": 452.28301574999927,
                    "velocity": 0.3228346456692913,
                    "duration": 0.11956532500005324
                },
                {
                    "name": "F#1",
                    "midi": 30,
                    "time": 452.3917114999993,
                    "velocity": 0.3779527559055118,
                    "duration": 0.11956532500005324
                },
                {
                    "name": "F1",
                    "midi": 29,
                    "time": 452.50040724999934,
                    "velocity": 0.33858267716535434,
                    "duration": 0.11956532500005324
                },
                {
                    "name": "A#1",
                    "midi": 34,
                    "time": 452.6091029999994,
                    "velocity": 0.47244094488188976,
                    "duration": 0.4347829999999817
                },
                {
                    "name": "F#2",
                    "midi": 42,
                    "time": 452.6091029999994,
                    "velocity": 0.47244094488188976,
                    "duration": 0.10869575000003806
                },
                {
                    "name": "F2",
                    "midi": 41,
                    "time": 452.7177987499994,
                    "velocity": 0.4015748031496063,
                    "duration": 0.10869574999998122
                },
                {
                    "name": "F#2",
                    "midi": 42,
                    "time": 452.8264944999994,
                    "velocity": 0.4645669291338583,
                    "duration": 0.10869574999998122
                },
                {
                    "name": "F2",
                    "midi": 41,
                    "time": 452.9351902499994,
                    "velocity": 0.41732283464566927,
                    "duration": 0.10869574999998122
                },
                {
                    "name": "F#1",
                    "midi": 30,
                    "time": 453.04388599999936,
                    "velocity": 0.36220472440944884,
                    "duration": 0.11956532499999639
                },
                {
                    "name": "F1",
                    "midi": 29,
                    "time": 453.15258174999934,
                    "velocity": 0.3228346456692913,
                    "duration": 0.11956532500005324
                },
                {
                    "name": "F#1",
                    "midi": 30,
                    "time": 453.2612774999994,
                    "velocity": 0.3779527559055118,
                    "duration": 0.11956532500005324
                },
                {
                    "name": "F1",
                    "midi": 29,
                    "time": 453.3699732499994,
                    "velocity": 0.33858267716535434,
                    "duration": 0.11956532500005324
                },
                {
                    "name": "A#1",
                    "midi": 34,
                    "time": 453.47866899999946,
                    "velocity": 0.47244094488188976,
                    "duration": 0.4347829999999817
                },
                {
                    "name": "F#2",
                    "midi": 42,
                    "time": 453.47866899999946,
                    "velocity": 0.47244094488188976,
                    "duration": 0.10869575000003806
                },
                {
                    "name": "F2",
                    "midi": 41,
                    "time": 453.5873647499995,
                    "velocity": 0.4015748031496063,
                    "duration": 0.10869574999998122
                },
                {
                    "name": "F#2",
                    "midi": 42,
                    "time": 453.6960604999995,
                    "velocity": 0.4645669291338583,
                    "duration": 0.10869574999998122
                },
                {
                    "name": "F2",
                    "midi": 41,
                    "time": 453.80475624999946,
                    "velocity": 0.41732283464566927,
                    "duration": 0.10869574999998122
                },
                {
                    "name": "A#1",
                    "midi": 34,
                    "time": 453.91345199999944,
                    "velocity": 0.2755905511811024,
                    "duration": 0.8695660000002476
                },
                {
                    "name": "F#2",
                    "midi": 42,
                    "time": 453.91345199999944,
                    "velocity": 0.30708661417322836,
                    "duration": 0.11956532499999639
                },
                {
                    "name": "F2",
                    "midi": 41,
                    "time": 454.0221477499994,
                    "velocity": 0.2677165354330709,
                    "duration": 0.11956532500005324
                },
                {
                    "name": "F#2",
                    "midi": 42,
                    "time": 454.13084349999946,
                    "velocity": 0.31496062992125984,
                    "duration": 0.11956532500005324
                },
                {
                    "name": "F2",
                    "midi": 41,
                    "time": 454.2395392499995,
                    "velocity": 0.28346456692913385,
                    "duration": 0.11956532500005324
                },
                {
                    "name": "F#2",
                    "midi": 42,
                    "time": 454.34823499999953,
                    "velocity": 0.30708661417322836,
                    "duration": 0.11956532500005324
                },
                {
                    "name": "F2",
                    "midi": 41,
                    "time": 454.4569307499996,
                    "velocity": 0.2677165354330709,
                    "duration": 0.11956532500005324
                },
                {
                    "name": "F#2",
                    "midi": 42,
                    "time": 454.5656264999996,
                    "velocity": 0.31496062992125984,
                    "duration": 0.11956532500005324
                },
                {
                    "name": "F2",
                    "midi": 41,
                    "time": 454.67432224999965,
                    "velocity": 0.28346456692913385,
                    "duration": 0.10869575000003806
                },
                {
                    "name": "A2",
                    "midi": 45,
                    "time": 454.7830179999997,
                    "velocity": 0.30708661417322836,
                    "duration": 0.11956532499999639
                },
                {
                    "name": "A#2",
                    "midi": 46,
                    "time": 454.89171374999967,
                    "velocity": 0.2677165354330709,
                    "duration": 0.11956532500005324
                },
                {
                    "name": "A2",
                    "midi": 45,
                    "time": 455.0004094999997,
                    "velocity": 0.31496062992125984,
                    "duration": 0.11956532500005324
                },
                {
                    "name": "A#2",
                    "midi": 46,
                    "time": 455.10910524999974,
                    "velocity": 0.28346456692913385,
                    "duration": 0.11956532500005324
                },
                {
                    "name": "A2",
                    "midi": 45,
                    "time": 455.2178009999998,
                    "velocity": 0.30708661417322836,
                    "duration": 0.11956532500005324
                },
                {
                    "name": "A#2",
                    "midi": 46,
                    "time": 455.3264967499998,
                    "velocity": 0.2677165354330709,
                    "duration": 0.11956532500005324
                },
                {
                    "name": "A2",
                    "midi": 45,
                    "time": 455.43519249999986,
                    "velocity": 0.31496062992125984,
                    "duration": 0.11956532500005324
                },
                {
                    "name": "A#2",
                    "midi": 46,
                    "time": 455.5438882499999,
                    "velocity": 0.28346456692913385,
                    "duration": 0.10869575000003806
                },
                {
                    "name": "A#1",
                    "midi": 34,
                    "time": 455.65258399999993,
                    "velocity": 0.2755905511811024,
                    "duration": 0.8695660000002476
                },
                {
                    "name": "F#2",
                    "midi": 42,
                    "time": 455.65258399999993,
                    "velocity": 0.30708661417322836,
                    "duration": 0.11956532499999639
                },
                {
                    "name": "F2",
                    "midi": 41,
                    "time": 455.7612797499999,
                    "velocity": 0.2677165354330709,
                    "duration": 0.11956532500005324
                },
                {
                    "name": "F#2",
                    "midi": 42,
                    "time": 455.86997549999995,
                    "velocity": 0.30708661417322836,
                    "duration": 0.11956532500005324
                },
                {
                    "name": "F2",
                    "midi": 41,
                    "time": 455.97867125,
                    "velocity": 0.2755905511811024,
                    "duration": 0.11956532500005324
                },
                {
                    "name": "F#2",
                    "midi": 42,
                    "time": 456.08736700000003,
                    "velocity": 0.29133858267716534,
                    "duration": 0.11956532500005324
                },
                {
                    "name": "F2",
                    "midi": 41,
                    "time": 456.19606275000007,
                    "velocity": 0.25196850393700787,
                    "duration": 0.11956532500005324
                },
                {
                    "name": "F#2",
                    "midi": 42,
                    "time": 456.3047585000001,
                    "velocity": 0.2992125984251969,
                    "duration": 0.11956532500005324
                },
                {
                    "name": "F2",
                    "midi": 41,
                    "time": 456.41345425000014,
                    "velocity": 0.2677165354330709,
                    "duration": 0.10869575000003806
                },
                {
                    "name": "A1",
                    "midi": 33,
                    "time": 456.5221500000002,
                    "velocity": 0.28346456692913385,
                    "duration": 0.11956532499999639
                },
                {
                    "name": "A#1",
                    "midi": 34,
                    "time": 456.63084575000016,
                    "velocity": 0.2440944881889764,
                    "duration": 0.11956532500005324
                },
                {
                    "name": "A1",
                    "midi": 33,
                    "time": 456.7395415000002,
                    "velocity": 0.28346456692913385,
                    "duration": 0.11956532500005324
                },
                {
                    "name": "A#1",
                    "midi": 34,
                    "time": 456.84823725000024,
                    "velocity": 0.25196850393700787,
                    "duration": 0.11956532500005324
                },
                {
                    "name": "A1",
                    "midi": 33,
                    "time": 456.9569330000003,
                    "velocity": 0.2755905511811024,
                    "duration": 0.11956532500005324
                },
                {
                    "name": "A#1",
                    "midi": 34,
                    "time": 457.0656287500003,
                    "velocity": 0.23622047244094488,
                    "duration": 0.11956532500005324
                },
                {
                    "name": "A1",
                    "midi": 33,
                    "time": 457.17432450000035,
                    "velocity": 0.2755905511811024,
                    "duration": 0.11956532500005324
                },
                {
                    "name": "A#1",
                    "midi": 34,
                    "time": 457.2830202500004,
                    "velocity": 0.2440944881889764,
                    "duration": 0.10869575000003806
                },
                {
                    "name": "F#1",
                    "midi": 30,
                    "time": 457.39171600000043,
                    "velocity": 0.25984251968503935,
                    "duration": 0.11956532499999639
                },
                {
                    "name": "F1",
                    "midi": 29,
                    "time": 457.5004117500004,
                    "velocity": 0.2283464566929134,
                    "duration": 0.11956532500005324
                },
                {
                    "name": "F#1",
                    "midi": 30,
                    "time": 457.60910750000045,
                    "velocity": 0.2677165354330709,
                    "duration": 0.11956532500005324
                },
                {
                    "name": "F1",
                    "midi": 29,
                    "time": 457.7178032500005,
                    "velocity": 0.23622047244094488,
                    "duration": 0.11956532500005324
                },
                {
                    "name": "F#1",
                    "midi": 30,
                    "time": 457.8264990000005,
                    "velocity": 0.25196850393700787,
                    "duration": 0.11956532500005324
                },
                {
                    "name": "F1",
                    "midi": 29,
                    "time": 457.93519475000056,
                    "velocity": 0.2204724409448819,
                    "duration": 0.11956532500005324
                },
                {
                    "name": "F2",
                    "midi": 41,
                    "time": 458.0438905000006,
                    "velocity": 0.25196850393700787,
                    "duration": 0.11956532500005324
                },
                {
                    "name": "A#1",
                    "midi": 34,
                    "time": 458.0438905000006,
                    "velocity": 0.25196850393700787,
                    "duration": 0.11956532500005324
                },
                {
                    "name": "F1",
                    "midi": 29,
                    "time": 458.15258625000064,
                    "velocity": 0.2283464566929134,
                    "duration": 0.10869575000003806
                },
                {
                    "name": "F2",
                    "midi": 41,
                    "time": 458.2612820000007,
                    "velocity": 0.25196850393700787,
                    "duration": 0.11956532499999639
                },
                {
                    "name": "A#1",
                    "midi": 34,
                    "time": 458.2612820000007,
                    "velocity": 0.2440944881889764,
                    "duration": 0.11956532499999639
                },
                {
                    "name": "F1",
                    "midi": 29,
                    "time": 458.36997775000066,
                    "velocity": 0.2125984251968504,
                    "duration": 0.11956532500005324
                },
                {
                    "name": "F2",
                    "midi": 41,
                    "time": 458.4786735000007,
                    "velocity": 0.25196850393700787,
                    "duration": 0.11956532500005324
                },
                {
                    "name": "A#1",
                    "midi": 34,
                    "time": 458.4786735000007,
                    "velocity": 0.25196850393700787,
                    "duration": 0.11956532500005324
                },
                {
                    "name": "F1",
                    "midi": 29,
                    "time": 458.58736925000073,
                    "velocity": 0.2204724409448819,
                    "duration": 0.11956532500005324
                },
                {
                    "name": "F2",
                    "midi": 41,
                    "time": 458.6960650000008,
                    "velocity": 0.25196850393700787,
                    "duration": 0.11956532500005324
                },
                {
                    "name": "A#1",
                    "midi": 34,
                    "time": 458.6960650000008,
                    "velocity": 0.2440944881889764,
                    "duration": 0.11956532500005324
                },
                {
                    "name": "F1",
                    "midi": 29,
                    "time": 458.8047607500008,
                    "velocity": 0.2125984251968504,
                    "duration": 0.11956532500005324
                },
                {
                    "name": "F2",
                    "midi": 41,
                    "time": 458.91345650000085,
                    "velocity": 0.25196850393700787,
                    "duration": 0.11956532500005324
                },
                {
                    "name": "A#1",
                    "midi": 34,
                    "time": 458.91345650000085,
                    "velocity": 0.25196850393700787,
                    "duration": 0.11956532500005324
                },
                {
                    "name": "F1",
                    "midi": 29,
                    "time": 459.0221522500009,
                    "velocity": 0.2204724409448819,
                    "duration": 0.10869575000003806
                },
                {
                    "name": "F2",
                    "midi": 41,
                    "time": 459.1308480000009,
                    "velocity": 0.2125984251968504,
                    "duration": 0.10869574999998122
                },
                {
                    "name": "A#1",
                    "midi": 34,
                    "time": 459.2395437500009,
                    "velocity": 0.18110236220472442,
                    "duration": 0.10869574999998122
                },
                {
                    "name": "F2",
                    "midi": 41,
                    "time": 459.3482395000009,
                    "velocity": 0.2125984251968504,
                    "duration": 0.10869574999998122
                },
                {
                    "name": "A#1",
                    "midi": 34,
                    "time": 459.45693525000087,
                    "velocity": 0.1889763779527559,
                    "duration": 0.10869574999998122
                },
                {
                    "name": "F2",
                    "midi": 41,
                    "time": 459.56563100000085,
                    "velocity": 0.3464566929133858,
                    "duration": 0.10869574999998122
                },
                {
                    "name": "A#1",
                    "midi": 34,
                    "time": 459.67432675000083,
                    "velocity": 0.3858267716535433,
                    "duration": 0.10869574999998122
                },
                {
                    "name": "A#2",
                    "midi": 46,
                    "time": 459.7830225000008,
                    "velocity": 0.4330708661417323,
                    "duration": 0.10869574999998122
                },
                {
                    "name": "F2",
                    "midi": 41,
                    "time": 459.7830225000008,
                    "velocity": 0.4330708661417323,
                    "duration": 0.10869574999998122
                },
                {
                    "name": "A#1",
                    "midi": 34,
                    "time": 459.8917182500008,
                    "velocity": 0.47244094488188976,
                    "duration": 0.10869574999998122
                },
                {
                    "name": "F2",
                    "midi": 41,
                    "time": 460.0004140000008,
                    "velocity": 0.5196850393700787,
                    "duration": 0.10869574999998122
                },
                {
                    "name": "A#2",
                    "midi": 46,
                    "time": 460.0004140000008,
                    "velocity": 0.5196850393700787,
                    "duration": 0.10869574999998122
                },
                {
                    "name": "A#1",
                    "midi": 34,
                    "time": 460.10910975000075,
                    "velocity": 0.5511811023622047,
                    "duration": 0.10869574999998122
                },
                {
                    "name": "F2",
                    "midi": 41,
                    "time": 460.21780550000074,
                    "velocity": 0.5905511811023622,
                    "duration": 0.10869574999998122
                },
                {
                    "name": "A#2",
                    "midi": 46,
                    "time": 460.21780550000074,
                    "velocity": 0.5905511811023622,
                    "duration": 0.10869574999998122
                },
                {
                    "name": "A#1",
                    "midi": 34,
                    "time": 460.3265012500007,
                    "velocity": 0.6377952755905512,
                    "duration": 0.10869574999998122
                },
                {
                    "name": "A#2",
                    "midi": 46,
                    "time": 460.4351970000007,
                    "velocity": 0.6377952755905512,
                    "duration": 0.21739150000001928
                },
                {
                    "name": "D3",
                    "midi": 50,
                    "time": 460.4351970000007,
                    "velocity": 0.6377952755905512,
                    "duration": 0.21739150000001928
                },
                {
                    "name": "F3",
                    "midi": 53,
                    "time": 460.4351970000007,
                    "velocity": 0.6377952755905512,
                    "duration": 0.21739150000001928
                },
                {
                    "name": "A#3",
                    "midi": 58,
                    "time": 460.4351970000007,
                    "velocity": 0.7637795275590551,
                    "duration": 0.21739150000001928
                },
                {
                    "name": "A#1",
                    "midi": 34,
                    "time": 460.86998000000074,
                    "velocity": 0.5984251968503937,
                    "duration": 0.8695660000000203
                },
                {
                    "name": "A#2",
                    "midi": 46,
                    "time": 460.86998000000074,
                    "velocity": 0.7244094488188977,
                    "duration": 0.8695660000000203
                }
            ],
            "controlChanges": {},
            "id": 2,
            "name": "Piano left",
            "instrumentNumber": 0,
            "instrument": "acoustic grand piano",
            "instrumentFamily": "piano",
            "channelNumber": 0,
            "isPercussion": false
        },
        {
            "startTime": 0,
            "duration": 0,
            "length": 0,
            "notes": [],
            "controlChanges": {
                "64": [
                    {
                        "number": 64,
                        "time": 0.7726456229166667,
                        "value": 1
                    },
                    {
                        "number": 64,
                        "time": 1.7391320000000001,
                        "value": 0
                    },
                    {
                        "number": 64,
                        "time": 1.8351465791666668,
                        "value": 1
                    },
                    {
                        "number": 64,
                        "time": 2.1675744145833336,
                        "value": 0
                    },
                    {
                        "number": 64,
                        "time": 2.4682993229166668,
                        "value": 1
                    },
                    {
                        "number": 64,
                        "time": 3.4782640000000002,
                        "value": 0
                    },
                    {
                        "number": 64,
                        "time": 3.574278579166667,
                        "value": 1
                    },
                    {
                        "number": 64,
                        "time": 3.9067064145833337,
                        "value": 0
                    },
                    {
                        "number": 64,
                        "time": 4.36685175625,
                        "value": 1
                    },
                    {
                        "number": 64,
                        "time": 4.7445694875,
                        "value": 0
                    },
                    {
                        "number": 64,
                        "time": 4.840584066666667,
                        "value": 1
                    },
                    {
                        "number": 64,
                        "time": 5.006345085416666,
                        "value": 0
                    },
                    {
                        "number": 64,
                        "time": 5.275367066666666,
                        "value": 1
                    },
                    {
                        "number": 64,
                        "time": 5.437504893749999,
                        "value": 0
                    },
                    {
                        "number": 64,
                        "time": 5.499099152083333,
                        "value": 1
                    },
                    {
                        "number": 64,
                        "time": 5.6630485749999995,
                        "value": 0
                    },
                    {
                        "number": 64,
                        "time": 6.13859248125,
                        "value": 1
                    },
                    {
                        "number": 64,
                        "time": 6.31250568125,
                        "value": 0
                    },
                    {
                        "number": 64,
                        "time": 6.41304925,
                        "value": 1
                    },
                    {
                        "number": 64,
                        "time": 6.532614575,
                        "value": 0
                    },
                    {
                        "number": 64,
                        "time": 6.981890341666667,
                        "value": 1
                    },
                    {
                        "number": 64,
                        "time": 7.183883277083334,
                        "value": 0
                    },
                    {
                        "number": 64,
                        "time": 7.26359349375,
                        "value": 1
                    },
                    {
                        "number": 64,
                        "time": 7.402180575,
                        "value": 0
                    },
                    {
                        "number": 64,
                        "time": 7.84511575625,
                        "value": 1
                    },
                    {
                        "number": 64,
                        "time": 8.2228334875,
                        "value": 0
                    },
                    {
                        "number": 64,
                        "time": 8.318848066666668,
                        "value": 1
                    },
                    {
                        "number": 64,
                        "time": 8.484609085416668,
                        "value": 0
                    },
                    {
                        "number": 64,
                        "time": 8.753631066666669,
                        "value": 1
                    },
                    {
                        "number": 64,
                        "time": 8.915768893750002,
                        "value": 0
                    },
                    {
                        "number": 64,
                        "time": 8.977363152083335,
                        "value": 1
                    },
                    {
                        "number": 64,
                        "time": 9.175732895833335,
                        "value": 0
                    },
                    {
                        "number": 64,
                        "time": 9.616856481250002,
                        "value": 1
                    },
                    {
                        "number": 64,
                        "time": 9.790769681250001,
                        "value": 0
                    },
                    {
                        "number": 64,
                        "time": 9.891313250000001,
                        "value": 1
                    },
                    {
                        "number": 64,
                        "time": 10.038958310416668,
                        "value": 0
                    },
                    {
                        "number": 64,
                        "time": 10.436603595833335,
                        "value": 0
                    },
                    {
                        "number": 64,
                        "time": 10.499103652083335,
                        "value": 1
                    },
                    {
                        "number": 64,
                        "time": 10.863234414583335,
                        "value": 0
                    },
                    {
                        "number": 64,
                        "time": 10.940227237500002,
                        "value": 1
                    },
                    {
                        "number": 64,
                        "time": 11.304358000000002,
                        "value": 0
                    },
                    {
                        "number": 64,
                        "time": 11.413053750000003,
                        "value": 1
                    },
                    {
                        "number": 64,
                        "time": 11.75091637291667,
                        "value": 0
                    },
                    {
                        "number": 64,
                        "time": 11.83515557916667,
                        "value": 1
                    },
                    {
                        "number": 64,
                        "time": 12.173924000000003,
                        "value": 0
                    },
                    {
                        "number": 64,
                        "time": 12.263597993750004,
                        "value": 1
                    },
                    {
                        "number": 64,
                        "time": 12.621388170833336,
                        "value": 0
                    },
                    {
                        "number": 64,
                        "time": 12.692040408333336,
                        "value": 1
                    },
                    {
                        "number": 64,
                        "time": 13.048018989583335,
                        "value": 0
                    },
                    {
                        "number": 64,
                        "time": 13.126823408333335,
                        "value": 1
                    },
                    {
                        "number": 64,
                        "time": 13.489142575000002,
                        "value": 0
                    },
                    {
                        "number": 64,
                        "time": 13.56613539791667,
                        "value": 1
                    },
                    {
                        "number": 64,
                        "time": 13.918490787500003,
                        "value": 0
                    },
                    {
                        "number": 64,
                        "time": 14.00907057916667,
                        "value": 1
                    },
                    {
                        "number": 64,
                        "time": 14.358708575000003,
                        "value": 0
                    },
                    {
                        "number": 64,
                        "time": 14.85961482291667,
                        "value": 1
                    },
                    {
                        "number": 64,
                        "time": 15.67755034166667,
                        "value": 0
                    },
                    {
                        "number": 64,
                        "time": 16.59874682291667,
                        "value": 1
                    },
                    {
                        "number": 64,
                        "time": 17.41668234166667,
                        "value": 0
                    },
                    {
                        "number": 64,
                        "time": 18.33787882291667,
                        "value": 1
                    },
                    {
                        "number": 64,
                        "time": 19.155814341666673,
                        "value": 0
                    },
                    {
                        "number": 64,
                        "time": 20.077010822916673,
                        "value": 1
                    },
                    {
                        "number": 64,
                        "time": 20.894946341666675,
                        "value": 0
                    },
                    {
                        "number": 64,
                        "time": 23.478282000000007,
                        "value": 1
                    },
                    {
                        "number": 64,
                        "time": 23.676651743750007,
                        "value": 0
                    },
                    {
                        "number": 64,
                        "time": 23.728282225000008,
                        "value": 1
                    },
                    {
                        "number": 64,
                        "time": 23.925746170833342,
                        "value": 0
                    },
                    {
                        "number": 64,
                        "time": 23.973753460416674,
                        "value": 1
                    },
                    {
                        "number": 64,
                        "time": 24.127739106250008,
                        "value": 0
                    },
                    {
                        "number": 64,
                        "time": 24.172123204166674,
                        "value": 1
                    },
                    {
                        "number": 64,
                        "time": 24.299840710416674,
                        "value": 0
                    },
                    {
                        "number": 64,
                        "time": 24.38317411875001,
                        "value": 1
                    },
                    {
                        "number": 64,
                        "time": 24.568862691666677,
                        "value": 0
                    },
                    {
                        "number": 64,
                        "time": 24.62592796041668,
                        "value": 1
                    },
                    {
                        "number": 64,
                        "time": 24.782631000000013,
                        "value": 0
                    },
                    {
                        "number": 64,
                        "time": 24.836978875000014,
                        "value": 1
                    },
                    {
                        "number": 64,
                        "time": 24.961978987500014,
                        "value": 0
                    },
                    {
                        "number": 64,
                        "time": 25.05799356666668,
                        "value": 1
                    },
                    {
                        "number": 64,
                        "time": 25.163066125000014,
                        "value": 0
                    },
                    {
                        "number": 64,
                        "time": 25.24277634166668,
                        "value": 1
                    },
                    {
                        "number": 64,
                        "time": 25.432088106250013,
                        "value": 0
                    },
                    {
                        "number": 64,
                        "time": 25.482812789583345,
                        "value": 1
                    },
                    {
                        "number": 64,
                        "time": 25.65219700000001,
                        "value": 0
                    },
                    {
                        "number": 64,
                        "time": 25.71016806666668,
                        "value": 1
                    },
                    {
                        "number": 64,
                        "time": 25.856907329166678,
                        "value": 0
                    },
                    {
                        "number": 64,
                        "time": 25.91125520416668,
                        "value": 1
                    },
                    {
                        "number": 64,
                        "time": 26.042595902083345,
                        "value": 0
                    },
                    {
                        "number": 64,
                        "time": 26.12592931041668,
                        "value": 1
                    },
                    {
                        "number": 64,
                        "time": 26.27266857291668,
                        "value": 0
                    },
                    {
                        "number": 64,
                        "time": 26.34603820416668,
                        "value": 1
                    },
                    {
                        "number": 64,
                        "time": 26.48643688125001,
                        "value": 0
                    },
                    {
                        "number": 64,
                        "time": 26.567052895833346,
                        "value": 1
                    },
                    {
                        "number": 64,
                        "time": 26.739154500000012,
                        "value": 0
                    },
                    {
                        "number": 64,
                        "time": 26.81252413125001,
                        "value": 1
                    },
                    {
                        "number": 64,
                        "time": 26.95654600000001,
                        "value": 0
                    },
                    {
                        "number": 64,
                        "time": 27.06524175000001,
                        "value": 1
                    },
                    {
                        "number": 64,
                        "time": 30.19839674375001,
                        "value": 0
                    },
                    {
                        "number": 64,
                        "time": 30.294411322916677,
                        "value": 1
                    },
                    {
                        "number": 64,
                        "time": 31.30437600000001,
                        "value": 0
                    },
                    {
                        "number": 64,
                        "time": 31.400390579166675,
                        "value": 1
                    },
                    {
                        "number": 64,
                        "time": 32.61144239375001,
                        "value": 0
                    },
                    {
                        "number": 64,
                        "time": 32.72285553750001,
                        "value": 1
                    },
                    {
                        "number": 64,
                        "time": 33.04350800000001,
                        "value": 0
                    },
                    {
                        "number": 64,
                        "time": 33.13952257916667,
                        "value": 1
                    },
                    {
                        "number": 64,
                        "time": 33.47195041458334,
                        "value": 0
                    },
                    {
                        "number": 64,
                        "time": 33.91307400000001,
                        "value": 1
                    },
                    {
                        "number": 64,
                        "time": 34.35238598958334,
                        "value": 0
                    },
                    {
                        "number": 64,
                        "time": 34.42032083333334,
                        "value": 1
                    },
                    {
                        "number": 64,
                        "time": 34.78264000000001,
                        "value": 0
                    },
                    {
                        "number": 64,
                        "time": 34.86053862083334,
                        "value": 1
                    },
                    {
                        "number": 64,
                        "time": 35.22738677708334,
                        "value": 0
                    },
                    {
                        "number": 64,
                        "time": 35.29532162083334,
                        "value": 1
                    },
                    {
                        "number": 64,
                        "time": 35.65673498958334,
                        "value": 0
                    },
                    {
                        "number": 64,
                        "time": 35.71651765208334,
                        "value": 1
                    },
                    {
                        "number": 64,
                        "time": 36.098764372916676,
                        "value": 0
                    },
                    {
                        "number": 64,
                        "time": 36.158547035416674,
                        "value": 1
                    },
                    {
                        "number": 64,
                        "time": 36.521772000000006,
                        "value": 0
                    },
                    {
                        "number": 64,
                        "time": 36.61506918541667,
                        "value": 1
                    },
                    {
                        "number": 64,
                        "time": 36.968330372916675,
                        "value": 0
                    },
                    {
                        "number": 64,
                        "time": 37.055286972916676,
                        "value": 1
                    },
                    {
                        "number": 64,
                        "time": 37.39767858541668,
                        "value": 0
                    },
                    {
                        "number": 64,
                        "time": 37.48463518541668,
                        "value": 1
                    },
                    {
                        "number": 64,
                        "time": 37.83699057500001,
                        "value": 0
                    },
                    {
                        "number": 64,
                        "time": 37.930287760416675,
                        "value": 1
                    },
                    {
                        "number": 64,
                        "time": 38.26724458541668,
                        "value": 0
                    },
                    {
                        "number": 64,
                        "time": 38.32883884375001,
                        "value": 1
                    },
                    {
                        "number": 64,
                        "time": 38.706556575000015,
                        "value": 0
                    },
                    {
                        "number": 64,
                        "time": 38.78898418541668,
                        "value": 1
                    },
                    {
                        "number": 64,
                        "time": 39.20293383333335,
                        "value": 0
                    },
                    {
                        "number": 64,
                        "time": 39.399491981250016,
                        "value": 1
                    },
                    {
                        "number": 64,
                        "time": 39.571593585416686,
                        "value": 0
                    },
                    {
                        "number": 64,
                        "time": 39.83427498125002,
                        "value": 1
                    },
                    {
                        "number": 64,
                        "time": 40.00818818125002,
                        "value": 0
                    },
                    {
                        "number": 64,
                        "time": 40.27992755625002,
                        "value": 1
                    },
                    {
                        "number": 64,
                        "time": 40.44568857500002,
                        "value": 0
                    },
                    {
                        "number": 64,
                        "time": 40.683913427083354,
                        "value": 1
                    },
                    {
                        "number": 64,
                        "time": 40.86960200000002,
                        "value": 0
                    },
                    {
                        "number": 64,
                        "time": 40.95293540833335,
                        "value": 1
                    },
                    {
                        "number": 64,
                        "time": 41.31525457500002,
                        "value": 0
                    },
                    {
                        "number": 64,
                        "time": 41.39405899375002,
                        "value": 1
                    },
                    {
                        "number": 64,
                        "time": 41.74550858541669,
                        "value": 0
                    },
                    {
                        "number": 64,
                        "time": 41.835182579166684,
                        "value": 1
                    },
                    {
                        "number": 64,
                        "time": 42.18572637291668,
                        "value": 0
                    },
                    {
                        "number": 64,
                        "time": 42.27630616458335,
                        "value": 1
                    },
                    {
                        "number": 64,
                        "time": 42.611451393750016,
                        "value": 0
                    },
                    {
                        "number": 64,
                        "time": 42.69206740833335,
                        "value": 1
                    },
                    {
                        "number": 64,
                        "time": 43.05438657500002,
                        "value": 0
                    },
                    {
                        "number": 64,
                        "time": 43.139531579166686,
                        "value": 1
                    },
                    {
                        "number": 64,
                        "time": 43.48101739375002,
                        "value": 0
                    },
                    {
                        "number": 64,
                        "time": 43.57431457916669,
                        "value": 1
                    },
                    {
                        "number": 64,
                        "time": 43.925764170833354,
                        "value": 0
                    },
                    {
                        "number": 64,
                        "time": 44.01543816458335,
                        "value": 1
                    },
                    {
                        "number": 64,
                        "time": 44.34786600000002,
                        "value": 0
                    },
                    {
                        "number": 64,
                        "time": 44.43119940833335,
                        "value": 1
                    },
                    {
                        "number": 64,
                        "time": 44.793518575000014,
                        "value": 0
                    },
                    {
                        "number": 64,
                        "time": 44.87232299375002,
                        "value": 1
                    },
                    {
                        "number": 64,
                        "time": 45.22377258541668,
                        "value": 0
                    },
                    {
                        "number": 64,
                        "time": 45.31344657916668,
                        "value": 1
                    },
                    {
                        "number": 64,
                        "time": 45.66399037291668,
                        "value": 0
                    },
                    {
                        "number": 64,
                        "time": 45.75457016458335,
                        "value": 1
                    },
                    {
                        "number": 64,
                        "time": 46.08971539375001,
                        "value": 0
                    },
                    {
                        "number": 64,
                        "time": 46.17033140833335,
                        "value": 1
                    },
                    {
                        "number": 64,
                        "time": 46.53265057500001,
                        "value": 0
                    },
                    {
                        "number": 64,
                        "time": 46.61779557916668,
                        "value": 1
                    },
                    {
                        "number": 64,
                        "time": 46.95928139375002,
                        "value": 0
                    },
                    {
                        "number": 64,
                        "time": 47.052578579166685,
                        "value": 1
                    },
                    {
                        "number": 64,
                        "time": 47.40402817083335,
                        "value": 0
                    },
                    {
                        "number": 64,
                        "time": 47.49370216458335,
                        "value": 1
                    },
                    {
                        "number": 64,
                        "time": 47.82884739375001,
                        "value": 0
                    },
                    {
                        "number": 64,
                        "time": 47.92848516458334,
                        "value": 1
                    },
                    {
                        "number": 64,
                        "time": 48.27359417083334,
                        "value": 0
                    },
                    {
                        "number": 64,
                        "time": 48.36326816458334,
                        "value": 1
                    },
                    {
                        "number": 64,
                        "time": 48.69841339375,
                        "value": 0
                    },
                    {
                        "number": 64,
                        "time": 48.798051164583335,
                        "value": 1
                    },
                    {
                        "number": 64,
                        "time": 49.14316017083333,
                        "value": 0
                    },
                    {
                        "number": 64,
                        "time": 49.23283416458333,
                        "value": 1
                    },
                    {
                        "number": 64,
                        "time": 49.567979393749994,
                        "value": 0
                    },
                    {
                        "number": 64,
                        "time": 49.667617164583326,
                        "value": 1
                    },
                    {
                        "number": 64,
                        "time": 50.012726170833325,
                        "value": 0
                    },
                    {
                        "number": 64,
                        "time": 50.10240016458332,
                        "value": 1
                    },
                    {
                        "number": 64,
                        "time": 50.437545393749986,
                        "value": 0
                    },
                    {
                        "number": 64,
                        "time": 50.53718316458332,
                        "value": 1
                    },
                    {
                        "number": 64,
                        "time": 50.88229217083332,
                        "value": 0
                    },
                    {
                        "number": 64,
                        "time": 50.971966164583314,
                        "value": 1
                    },
                    {
                        "number": 64,
                        "time": 51.30711139374998,
                        "value": 0
                    },
                    {
                        "number": 64,
                        "time": 51.40674916458331,
                        "value": 1
                    },
                    {
                        "number": 64,
                        "time": 51.75185817083331,
                        "value": 0
                    },
                    {
                        "number": 64,
                        "time": 51.841532164583306,
                        "value": 1
                    },
                    {
                        "number": 64,
                        "time": 52.17667739374997,
                        "value": 0
                    },
                    {
                        "number": 64,
                        "time": 52.2763151645833,
                        "value": 1
                    },
                    {
                        "number": 64,
                        "time": 52.6214241708333,
                        "value": 0
                    },
                    {
                        "number": 64,
                        "time": 52.7110981645833,
                        "value": 1
                    },
                    {
                        "number": 64,
                        "time": 53.04624339374996,
                        "value": 0
                    },
                    {
                        "number": 64,
                        "time": 53.145881164583294,
                        "value": 1
                    },
                    {
                        "number": 64,
                        "time": 53.49099017083329,
                        "value": 0
                    },
                    {
                        "number": 64,
                        "time": 53.58066416458329,
                        "value": 1
                    },
                    {
                        "number": 64,
                        "time": 53.91580939374995,
                        "value": 0
                    },
                    {
                        "number": 64,
                        "time": 54.015447164583286,
                        "value": 1
                    },
                    {
                        "number": 64,
                        "time": 54.360556170833284,
                        "value": 0
                    },
                    {
                        "number": 64,
                        "time": 54.45023016458328,
                        "value": 1
                    },
                    {
                        "number": 64,
                        "time": 54.78265799999995,
                        "value": 0
                    },
                    {
                        "number": 64,
                        "time": 55.01907125624995,
                        "value": 1
                    },
                    {
                        "number": 64,
                        "time": 55.242803341666615,
                        "value": 0
                    },
                    {
                        "number": 64,
                        "time": 55.441173085416615,
                        "value": 1
                    },
                    {
                        "number": 64,
                        "time": 55.65222399999995,
                        "value": 0
                    },
                    {
                        "number": 64,
                        "time": 56.310739085416614,
                        "value": 1
                    },
                    {
                        "number": 64,
                        "time": 56.521789999999946,
                        "value": 0
                    },
                    {
                        "number": 64,
                        "time": 56.61780457916661,
                        "value": 1
                    },
                    {
                        "number": 64,
                        "time": 56.750051074999945,
                        "value": 0
                    },
                    {
                        "number": 64,
                        "time": 56.822514908333275,
                        "value": 1
                    },
                    {
                        "number": 64,
                        "time": 56.96291358541661,
                        "value": 0
                    },
                    {
                        "number": 64,
                        "time": 57.03990640833327,
                        "value": 1
                    },
                    {
                        "number": 64,
                        "time": 57.180305085416606,
                        "value": 0
                    },
                    {
                        "number": 64,
                        "time": 57.2699790791666,
                        "value": 1
                    },
                    {
                        "number": 64,
                        "time": 57.39135599999994,
                        "value": 0
                    },
                    {
                        "number": 64,
                        "time": 57.43574009791661,
                        "value": 1
                    },
                    {
                        "number": 64,
                        "time": 57.619617074999944,
                        "value": 0
                    },
                    {
                        "number": 64,
                        "time": 57.64769681041661,
                        "value": 1
                    },
                    {
                        "number": 64,
                        "time": 57.83700857499994,
                        "value": 0
                    },
                    {
                        "number": 64,
                        "time": 57.87595788541661,
                        "value": 1
                    },
                    {
                        "number": 64,
                        "time": 58.05621167083328,
                        "value": 0
                    },
                    {
                        "number": 64,
                        "time": 58.10603055624995,
                        "value": 1
                    },
                    {
                        "number": 64,
                        "time": 58.26726258541662,
                        "value": 0
                    },
                    {
                        "number": 64,
                        "time": 58.34425540833328,
                        "value": 1
                    },
                    {
                        "number": 64,
                        "time": 58.488277277083284,
                        "value": 0
                    },
                    {
                        "number": 64,
                        "time": 58.56164690833329,
                        "value": 1
                    },
                    {
                        "number": 64,
                        "time": 58.701139787499955,
                        "value": 0
                    },
                    {
                        "number": 64,
                        "time": 58.91943708541662,
                        "value": 1
                    },
                    {
                        "number": 64,
                        "time": 59.13048799999995,
                        "value": 0
                    },
                    {
                        "number": 64,
                        "time": 59.41219115208328,
                        "value": 1
                    },
                    {
                        "number": 64,
                        "time": 59.57704637291661,
                        "value": 0
                    },
                    {
                        "number": 64,
                        "time": 59.82795239583328,
                        "value": 1
                    },
                    {
                        "number": 64,
                        "time": 60.00005399999995,
                        "value": 0
                    },
                    {
                        "number": 64,
                        "time": 60.10874974999995,
                        "value": 1
                    },
                    {
                        "number": 64,
                        "time": 60.228315074999955,
                        "value": 0
                    },
                    {
                        "number": 64,
                        "time": 60.30711949374996,
                        "value": 1
                    },
                    {
                        "number": 64,
                        "time": 60.444800777083294,
                        "value": 0
                    },
                    {
                        "number": 64,
                        "time": 60.49914865208329,
                        "value": 1
                    },
                    {
                        "number": 64,
                        "time": 60.659474883333296,
                        "value": 0
                    },
                    {
                        "number": 64,
                        "time": 60.7165401520833,
                        "value": 1
                    },
                    {
                        "number": 64,
                        "time": 60.8741489895833,
                        "value": 0
                    },
                    {
                        "number": 64,
                        "time": 60.9420838333333,
                        "value": 1
                    },
                    {
                        "number": 64,
                        "time": 61.0915404895833,
                        "value": 0
                    },
                    {
                        "number": 64,
                        "time": 61.14951155624997,
                        "value": 1
                    },
                    {
                        "number": 64,
                        "time": 61.30712039374997,
                        "value": 0
                    },
                    {
                        "number": 64,
                        "time": 61.39770018541664,
                        "value": 1
                    },
                    {
                        "number": 64,
                        "time": 61.53266407499997,
                        "value": 0
                    },
                    {
                        "number": 64,
                        "time": 61.7437149895833,
                        "value": 0
                    },
                    {
                        "number": 64,
                        "time": 61.811649833333306,
                        "value": 1
                    },
                    {
                        "number": 64,
                        "time": 61.96110648958331,
                        "value": 0
                    },
                    {
                        "number": 64,
                        "time": 62.019077556249975,
                        "value": 1
                    },
                    {
                        "number": 64,
                        "time": 62.176686393749975,
                        "value": 0
                    },
                    {
                        "number": 64,
                        "time": 62.267266185416645,
                        "value": 1
                    },
                    {
                        "number": 64,
                        "time": 62.40223007499998,
                        "value": 0
                    },
                    {
                        "number": 64,
                        "time": 62.612375191666644,
                        "value": 0
                    },
                    {
                        "number": 64,
                        "time": 62.68121583333331,
                        "value": 1
                    },
                    {
                        "number": 64,
                        "time": 62.830672489583314,
                        "value": 0
                    },
                    {
                        "number": 64,
                        "time": 62.88864355624998,
                        "value": 1
                    },
                    {
                        "number": 64,
                        "time": 63.04625239374998,
                        "value": 0
                    },
                    {
                        "number": 64,
                        "time": 63.13683218541665,
                        "value": 1
                    },
                    {
                        "number": 64,
                        "time": 63.27179607499998,
                        "value": 0
                    },
                    {
                        "number": 64,
                        "time": 63.481035393749984,
                        "value": 0
                    },
                    {
                        "number": 64,
                        "time": 63.55078183333332,
                        "value": 1
                    },
                    {
                        "number": 64,
                        "time": 63.70023848958332,
                        "value": 0
                    },
                    {
                        "number": 64,
                        "time": 63.75820955624999,
                        "value": 1
                    },
                    {
                        "number": 64,
                        "time": 63.91581839374999,
                        "value": 0
                    },
                    {
                        "number": 64,
                        "time": 64.00639818541666,
                        "value": 1
                    },
                    {
                        "number": 64,
                        "time": 64.14136207499999,
                        "value": 0
                    },
                    {
                        "number": 64,
                        "time": 64.347884,
                        "value": 1
                    },
                    {
                        "number": 64,
                        "time": 64.5652755,
                        "value": 0
                    },
                    {
                        "number": 64,
                        "time": 64.62777555625,
                        "value": 1
                    },
                    {
                        "number": 64,
                        "time": 64.79263077708333,
                        "value": 0
                    },
                    {
                        "number": 64,
                        "time": 64.85060184375,
                        "value": 1
                    },
                    {
                        "number": 64,
                        "time": 65.00458748958333,
                        "value": 0
                    },
                    {
                        "number": 64,
                        "time": 65.05168898125,
                        "value": 1
                    },
                    {
                        "number": 64,
                        "time": 65.22288478749999,
                        "value": 0
                    },
                    {
                        "number": 64,
                        "time": 65.29534862083332,
                        "value": 1
                    },
                    {
                        "number": 64,
                        "time": 65.66129097916665,
                        "value": 0
                    },
                    {
                        "number": 64,
                        "time": 65.75096497291665,
                        "value": 1
                    },
                    {
                        "number": 64,
                        "time": 66.09154498958331,
                        "value": 0
                    },
                    {
                        "number": 64,
                        "time": 66.17034940833331,
                        "value": 1
                    },
                    {
                        "number": 64,
                        "time": 66.53266857499997,
                        "value": 0
                    },
                    {
                        "number": 64,
                        "time": 66.61509618541665,
                        "value": 1
                    },
                    {
                        "number": 64,
                        "time": 66.75006007499998,
                        "value": 0
                    },
                    {
                        "number": 64,
                        "time": 66.80169055624998,
                        "value": 1
                    },
                    {
                        "number": 64,
                        "time": 66.96201678749998,
                        "value": 0
                    },
                    {
                        "number": 64,
                        "time": 67.0344806208333,
                        "value": 1
                    },
                    {
                        "number": 64,
                        "time": 67.40042297916663,
                        "value": 0
                    },
                    {
                        "number": 64,
                        "time": 67.49009697291663,
                        "value": 1
                    },
                    {
                        "number": 64,
                        "time": 67.8306769895833,
                        "value": 0
                    },
                    {
                        "number": 64,
                        "time": 67.90948140833329,
                        "value": 1
                    },
                    {
                        "number": 64,
                        "time": 68.27180057499996,
                        "value": 0
                    },
                    {
                        "number": 64,
                        "time": 68.35422818541663,
                        "value": 1
                    },
                    {
                        "number": 64,
                        "time": 68.48919207499996,
                        "value": 0
                    },
                    {
                        "number": 64,
                        "time": 68.54082255624996,
                        "value": 1
                    },
                    {
                        "number": 64,
                        "time": 68.69571399999997,
                        "value": 0
                    },
                    {
                        "number": 64,
                        "time": 68.7790474083333,
                        "value": 1
                    },
                    {
                        "number": 64,
                        "time": 69.14046077708329,
                        "value": 0
                    },
                    {
                        "number": 64,
                        "time": 69.2029608333333,
                        "value": 1
                    },
                    {
                        "number": 64,
                        "time": 69.56527999999996,
                        "value": 0
                    },
                    {
                        "number": 64,
                        "time": 69.65857718541663,
                        "value": 1
                    },
                    {
                        "number": 64,
                        "time": 70.01183837291663,
                        "value": 0
                    },
                    {
                        "number": 64,
                        "time": 70.06256305624996,
                        "value": 1
                    },
                    {
                        "number": 64,
                        "time": 70.22470088333328,
                        "value": 0
                    },
                    {
                        "number": 64,
                        "time": 70.28538934374996,
                        "value": 1
                    },
                    {
                        "number": 64,
                        "time": 70.44028078749996,
                        "value": 0
                    },
                    {
                        "number": 64,
                        "time": 70.51274462083329,
                        "value": 1
                    },
                    {
                        "number": 64,
                        "time": 70.87868697916662,
                        "value": 0
                    },
                    {
                        "number": 64,
                        "time": 70.96836097291661,
                        "value": 1
                    },
                    {
                        "number": 64,
                        "time": 71.30894098958328,
                        "value": 0
                    },
                    {
                        "number": 64,
                        "time": 71.38774540833327,
                        "value": 1
                    },
                    {
                        "number": 64,
                        "time": 71.75006457499994,
                        "value": 0
                    },
                    {
                        "number": 64,
                        "time": 71.83249218541661,
                        "value": 1
                    },
                    {
                        "number": 64,
                        "time": 71.96745607499994,
                        "value": 0
                    },
                    {
                        "number": 64,
                        "time": 72.01908655624995,
                        "value": 1
                    },
                    {
                        "number": 64,
                        "time": 72.17941278749994,
                        "value": 0
                    },
                    {
                        "number": 64,
                        "time": 72.25187662083327,
                        "value": 1
                    },
                    {
                        "number": 64,
                        "time": 72.6178189791666,
                        "value": 0
                    },
                    {
                        "number": 64,
                        "time": 72.7074929729166,
                        "value": 1
                    },
                    {
                        "number": 64,
                        "time": 73.04807298958326,
                        "value": 0
                    },
                    {
                        "number": 64,
                        "time": 73.12687740833326,
                        "value": 1
                    },
                    {
                        "number": 64,
                        "time": 73.48919657499992,
                        "value": 0
                    },
                    {
                        "number": 64,
                        "time": 73.5716241854166,
                        "value": 1
                    },
                    {
                        "number": 64,
                        "time": 73.70658807499993,
                        "value": 0
                    },
                    {
                        "number": 64,
                        "time": 73.75821855624993,
                        "value": 1
                    },
                    {
                        "number": 64,
                        "time": 73.91310999999993,
                        "value": 0
                    },
                    {
                        "number": 64,
                        "time": 73.99644340833326,
                        "value": 1
                    },
                    {
                        "number": 64,
                        "time": 74.35785677708326,
                        "value": 0
                    },
                    {
                        "number": 64,
                        "time": 74.42035683333326,
                        "value": 1
                    },
                    {
                        "number": 64,
                        "time": 74.78267599999992,
                        "value": 0
                    },
                    {
                        "number": 64,
                        "time": 74.8759731854166,
                        "value": 1
                    },
                    {
                        "number": 64,
                        "time": 75.2292343729166,
                        "value": 0
                    },
                    {
                        "number": 64,
                        "time": 75.27995905624992,
                        "value": 1
                    },
                    {
                        "number": 64,
                        "time": 75.44209688333325,
                        "value": 0
                    },
                    {
                        "number": 64,
                        "time": 75.50278534374992,
                        "value": 1
                    },
                    {
                        "number": 64,
                        "time": 75.65224199999992,
                        "value": 0
                    },
                    {
                        "number": 64,
                        "time": 75.73557540833325,
                        "value": 1
                    },
                    {
                        "number": 64,
                        "time": 76.09698877708324,
                        "value": 0
                    },
                    {
                        "number": 64,
                        "time": 76.15948883333324,
                        "value": 1
                    },
                    {
                        "number": 64,
                        "time": 76.52180799999991,
                        "value": 0
                    },
                    {
                        "number": 64,
                        "time": 76.61510518541658,
                        "value": 1
                    },
                    {
                        "number": 64,
                        "time": 76.96836637291658,
                        "value": 0
                    },
                    {
                        "number": 64,
                        "time": 77.0190910562499,
                        "value": 1
                    },
                    {
                        "number": 64,
                        "time": 77.18122888333323,
                        "value": 0
                    },
                    {
                        "number": 64,
                        "time": 77.2419173437499,
                        "value": 1
                    },
                    {
                        "number": 64,
                        "time": 77.3913739999999,
                        "value": 0
                    },
                    {
                        "number": 64,
                        "time": 77.47470740833323,
                        "value": 1
                    },
                    {
                        "number": 64,
                        "time": 77.83612077708322,
                        "value": 0
                    },
                    {
                        "number": 64,
                        "time": 77.89862083333323,
                        "value": 1
                    },
                    {
                        "number": 64,
                        "time": 78.26093999999989,
                        "value": 0
                    },
                    {
                        "number": 64,
                        "time": 78.35423718541657,
                        "value": 1
                    },
                    {
                        "number": 64,
                        "time": 78.70749837291656,
                        "value": 0
                    },
                    {
                        "number": 64,
                        "time": 78.75822305624989,
                        "value": 1
                    },
                    {
                        "number": 64,
                        "time": 79.1495277562499,
                        "value": 0
                    },
                    {
                        "number": 64,
                        "time": 79.4049627687499,
                        "value": 1
                    },
                    {
                        "number": 64,
                        "time": 79.61239049166656,
                        "value": 0
                    },
                    {
                        "number": 64,
                        "time": 79.84970954583322,
                        "value": 1
                    },
                    {
                        "number": 64,
                        "time": 80.00007199999989,
                        "value": 0
                    },
                    {
                        "number": 64,
                        "time": 80.70931176874988,
                        "value": 1
                    },
                    {
                        "number": 64,
                        "time": 80.86963799999988,
                        "value": 0
                    },
                    {
                        "number": 64,
                        "time": 81.14409476874988,
                        "value": 1
                    },
                    {
                        "number": 64,
                        "time": 81.35152249166654,
                        "value": 0
                    },
                    {
                        "number": 64,
                        "time": 81.5888415458332,
                        "value": 1
                    },
                    {
                        "number": 64,
                        "time": 81.73920399999987,
                        "value": 0
                    },
                    {
                        "number": 64,
                        "time": 83.51728531041654,
                        "value": 1
                    },
                    {
                        "number": 64,
                        "time": 83.70025648958321,
                        "value": 0
                    },
                    {
                        "number": 64,
                        "time": 83.76003915208321,
                        "value": 1
                    },
                    {
                        "number": 64,
                        "time": 83.91945958541655,
                        "value": 0
                    },
                    {
                        "number": 64,
                        "time": 84.00913357916654,
                        "value": 1
                    },
                    {
                        "number": 64,
                        "time": 84.34790199999988,
                        "value": 0
                    },
                    {
                        "number": 64,
                        "time": 84.4502571645832,
                        "value": 1
                    },
                    {
                        "number": 64,
                        "time": 84.78902558541654,
                        "value": 0
                    },
                    {
                        "number": 64,
                        "time": 84.87235899374987,
                        "value": 1
                    },
                    {
                        "number": 64,
                        "time": 85.21746799999987,
                        "value": 0
                    },
                    {
                        "number": 64,
                        "time": 85.2899318333332,
                        "value": 1
                    },
                    {
                        "number": 64,
                        "time": 85.6622147770832,
                        "value": 0
                    },
                    {
                        "number": 64,
                        "time": 85.72018584374986,
                        "value": 1
                    },
                    {
                        "number": 64,
                        "time": 86.0942803833332,
                        "value": 0
                    },
                    {
                        "number": 64,
                        "time": 86.12870070416653,
                        "value": 1
                    },
                    {
                        "number": 64,
                        "time": 86.53268657499987,
                        "value": 0
                    },
                    {
                        "number": 64,
                        "time": 86.58884604583321,
                        "value": 1
                    },
                    {
                        "number": 64,
                        "time": 86.75007807499988,
                        "value": 0
                    },
                    {
                        "number": 64,
                        "time": 86.79355637499988,
                        "value": 1
                    },
                    {
                        "number": 64,
                        "time": 86.95659999999988,
                        "value": 0
                    },
                    {
                        "number": 64,
                        "time": 87.06529574999988,
                        "value": 1
                    },
                    {
                        "number": 64,
                        "time": 87.82616599999987,
                        "value": 0
                    },
                    {
                        "number": 64,
                        "time": 87.90406462083321,
                        "value": 1
                    },
                    {
                        "number": 64,
                        "time": 88.26728958541655,
                        "value": 0
                    },
                    {
                        "number": 64,
                        "time": 88.34881139791655,
                        "value": 1
                    },
                    {
                        "number": 64,
                        "time": 88.70660157499988,
                        "value": 0
                    },
                    {
                        "number": 64,
                        "time": 88.8171089208332,
                        "value": 1
                    },
                    {
                        "number": 64,
                        "time": 89.13142079791653,
                        "value": 0
                    },
                    {
                        "number": 64,
                        "time": 89.20750782291654,
                        "value": 1
                    },
                    {
                        "number": 64,
                        "time": 89.5698269895832,
                        "value": 0
                    },
                    {
                        "number": 64,
                        "time": 89.64319662083321,
                        "value": 1
                    },
                    {
                        "number": 64,
                        "time": 90.00642158541655,
                        "value": 0
                    },
                    {
                        "number": 64,
                        "time": 90.08341440833321,
                        "value": 1
                    },
                    {
                        "number": 64,
                        "time": 90.44211038333322,
                        "value": 0
                    },
                    {
                        "number": 64,
                        "time": 90.51819740833322,
                        "value": 1
                    },
                    {
                        "number": 64,
                        "time": 90.88142237291656,
                        "value": 0
                    },
                    {
                        "number": 64,
                        "time": 90.95298040833323,
                        "value": 1
                    },
                    {
                        "number": 64,
                        "time": 91.3044299999999,
                        "value": 0
                    },
                    {
                        "number": 64,
                        "time": 91.40044457916656,
                        "value": 1
                    },
                    {
                        "number": 64,
                        "time": 91.74555358541656,
                        "value": 0
                    },
                    {
                        "number": 64,
                        "time": 91.84156816458322,
                        "value": 1
                    },
                    {
                        "number": 64,
                        "time": 92.17399599999989,
                        "value": 0
                    },
                    {
                        "number": 64,
                        "time": 92.23830765208322,
                        "value": 1
                    },
                    {
                        "number": 64,
                        "time": 93.05986636249989,
                        "value": 0
                    },
                    {
                        "number": 64,
                        "time": 93.09156928958322,
                        "value": 1
                    },
                    {
                        "number": 64,
                        "time": 93.91584539374989,
                        "value": 0
                    },
                    {
                        "number": 64,
                        "time": 93.96475848124989,
                        "value": 1
                    },
                    {
                        "number": 64,
                        "time": 94.79899836249989,
                        "value": 0
                    },
                    {
                        "number": 64,
                        "time": 94.82436070416655,
                        "value": 1
                    },
                    {
                        "number": 64,
                        "time": 95.65225999999988,
                        "value": 0
                    },
                    {
                        "number": 64,
                        "time": 95.71023106666655,
                        "value": 1
                    },
                    {
                        "number": 64,
                        "time": 95.87780368124989,
                        "value": 0
                    },
                    {
                        "number": 64,
                        "time": 95.94030373749989,
                        "value": 1
                    },
                    {
                        "number": 64,
                        "time": 96.52182599999989,
                        "value": 0
                    },
                    {
                        "number": 64,
                        "time": 96.57979706666656,
                        "value": 1
                    },
                    {
                        "number": 64,
                        "time": 96.96023219166656,
                        "value": 0
                    },
                    {
                        "number": 64,
                        "time": 97.00461628958323,
                        "value": 1
                    },
                    {
                        "number": 64,
                        "time": 97.39773258541656,
                        "value": 0
                    },
                    {
                        "number": 64,
                        "time": 97.48468918541656,
                        "value": 1
                    },
                    {
                        "number": 64,
                        "time": 98.04900128749989,
                        "value": 0
                    },
                    {
                        "number": 64,
                        "time": 98.12689990833323,
                        "value": 1
                    },
                    {
                        "number": 64,
                        "time": 98.2038927312499,
                        "value": 0
                    },
                    {
                        "number": 64,
                        "time": 98.26095799999989,
                        "value": 1
                    },
                    {
                        "number": 64,
                        "time": 98.38505231458322,
                        "value": 0
                    },
                    {
                        "number": 64,
                        "time": 98.53541476874989,
                        "value": 1
                    },
                    {
                        "number": 64,
                        "time": 98.62327716666655,
                        "value": 0
                    },
                    {
                        "number": 64,
                        "time": 98.7528062687499,
                        "value": 1
                    },
                    {
                        "number": 64,
                        "time": 98.8669368062499,
                        "value": 0
                    },
                    {
                        "number": 64,
                        "time": 98.9810673437499,
                        "value": 1
                    },
                    {
                        "number": 64,
                        "time": 99.05806016666656,
                        "value": 0
                    },
                    {
                        "number": 64,
                        "time": 99.1305239999999,
                        "value": 1
                    },
                    {
                        "number": 64,
                        "time": 99.26005310208323,
                        "value": 0
                    },
                    {
                        "number": 64,
                        "time": 99.38414741666656,
                        "value": 1
                    },
                    {
                        "number": 64,
                        "time": 99.48287938958323,
                        "value": 0
                    },
                    {
                        "number": 64,
                        "time": 99.61240849166657,
                        "value": 1
                    },
                    {
                        "number": 64,
                        "time": 99.71566945416657,
                        "value": 0
                    },
                    {
                        "number": 64,
                        "time": 99.83432898124991,
                        "value": 1
                    },
                    {
                        "number": 64,
                        "time": 99.91766238958324,
                        "value": 0
                    },
                    {
                        "number": 64,
                        "time": 100.00008999999991,
                        "value": 1
                    },
                    {
                        "number": 64,
                        "time": 100.12961910208325,
                        "value": 0
                    },
                    {
                        "number": 64,
                        "time": 100.25371341666659,
                        "value": 1
                    },
                    {
                        "number": 64,
                        "time": 100.35788017708325,
                        "value": 0
                    },
                    {
                        "number": 64,
                        "time": 100.48650348124991,
                        "value": 1
                    },
                    {
                        "number": 64,
                        "time": 100.57980066666659,
                        "value": 0
                    },
                    {
                        "number": 64,
                        "time": 100.71476455624992,
                        "value": 1
                    },
                    {
                        "number": 64,
                        "time": 100.79266317708326,
                        "value": 0
                    },
                    {
                        "number": 64,
                        "time": 100.91494589583326,
                        "value": 1
                    },
                    {
                        "number": 64,
                        "time": 101.53451167083325,
                        "value": 0
                    },
                    {
                        "number": 64,
                        "time": 101.64320742083325,
                        "value": 1
                    },
                    {
                        "number": 64,
                        "time": 101.73922199999991,
                        "value": 0
                    },
                    {
                        "number": 64,
                        "time": 101.83523657916658,
                        "value": 1
                    },
                    {
                        "number": 64,
                        "time": 102.39773708541658,
                        "value": 0
                    },
                    {
                        "number": 64,
                        "time": 102.48107049374991,
                        "value": 1
                    },
                    {
                        "number": 64,
                        "time": 102.63324454374991,
                        "value": 0
                    },
                    {
                        "number": 64,
                        "time": 102.73650550624991,
                        "value": 1
                    },
                    {
                        "number": 64,
                        "time": 103.05172318124991,
                        "value": 0
                    },
                    {
                        "number": 64,
                        "time": 103.11422323749991,
                        "value": 1
                    },
                    {
                        "number": 64,
                        "time": 103.47835399999991,
                        "value": 0
                    },
                    {
                        "number": 64,
                        "time": 103.55534682291658,
                        "value": 1
                    },
                    {
                        "number": 64,
                        "time": 103.9212891812499,
                        "value": 0
                    },
                    {
                        "number": 64,
                        "time": 104.0218327499999,
                        "value": 1
                    },
                    {
                        "number": 64,
                        "time": 104.3479199999999,
                        "value": 0
                    },
                    {
                        "number": 64,
                        "time": 105.26277589583323,
                        "value": 1
                    },
                    {
                        "number": 64,
                        "time": 105.9022692249999,
                        "value": 0
                    },
                    {
                        "number": 64,
                        "time": 105.99103742083324,
                        "value": 1
                    },
                    {
                        "number": 64,
                        "time": 109.38415641666657,
                        "value": 0
                    },
                    {
                        "number": 64,
                        "time": 109.46839562291657,
                        "value": 1
                    },
                    {
                        "number": 64,
                        "time": 110.4348819999999,
                        "value": 0
                    },
                    {
                        "number": 64,
                        "time": 110.53089657916657,
                        "value": 1
                    },
                    {
                        "number": 64,
                        "time": 110.86332441458323,
                        "value": 0
                    },
                    {
                        "number": 64,
                        "time": 111.16404932291657,
                        "value": 1
                    },
                    {
                        "number": 64,
                        "time": 112.1740139999999,
                        "value": 0
                    },
                    {
                        "number": 64,
                        "time": 112.27002857916656,
                        "value": 1
                    },
                    {
                        "number": 64,
                        "time": 112.60245641458323,
                        "value": 0
                    },
                    {
                        "number": 64,
                        "time": 113.06260175624989,
                        "value": 1
                    },
                    {
                        "number": 64,
                        "time": 113.44031948749989,
                        "value": 0
                    },
                    {
                        "number": 64,
                        "time": 113.53633406666656,
                        "value": 1
                    },
                    {
                        "number": 64,
                        "time": 113.70209508541656,
                        "value": 0
                    },
                    {
                        "number": 64,
                        "time": 113.97111706666657,
                        "value": 1
                    },
                    {
                        "number": 64,
                        "time": 114.13325489374989,
                        "value": 0
                    },
                    {
                        "number": 64,
                        "time": 114.19484915208322,
                        "value": 1
                    },
                    {
                        "number": 64,
                        "time": 114.3587985749999,
                        "value": 0
                    },
                    {
                        "number": 64,
                        "time": 114.83434248124989,
                        "value": 1
                    },
                    {
                        "number": 64,
                        "time": 115.00825568124989,
                        "value": 0
                    },
                    {
                        "number": 64,
                        "time": 115.10879924999989,
                        "value": 1
                    },
                    {
                        "number": 64,
                        "time": 115.22836457499989,
                        "value": 0
                    },
                    {
                        "number": 64,
                        "time": 115.67764034166656,
                        "value": 1
                    },
                    {
                        "number": 64,
                        "time": 115.87963327708323,
                        "value": 0
                    },
                    {
                        "number": 64,
                        "time": 115.9593434937499,
                        "value": 1
                    },
                    {
                        "number": 64,
                        "time": 116.09793057499989,
                        "value": 0
                    },
                    {
                        "number": 64,
                        "time": 116.54086575624989,
                        "value": 1
                    },
                    {
                        "number": 64,
                        "time": 116.91858348749989,
                        "value": 0
                    },
                    {
                        "number": 64,
                        "time": 117.01459806666655,
                        "value": 1
                    },
                    {
                        "number": 64,
                        "time": 117.18035908541655,
                        "value": 0
                    },
                    {
                        "number": 64,
                        "time": 117.44938106666656,
                        "value": 1
                    },
                    {
                        "number": 64,
                        "time": 117.61151889374989,
                        "value": 0
                    },
                    {
                        "number": 64,
                        "time": 117.67311315208322,
                        "value": 1
                    },
                    {
                        "number": 64,
                        "time": 117.87148289583322,
                        "value": 0
                    },
                    {
                        "number": 64,
                        "time": 118.31260648124989,
                        "value": 1
                    },
                    {
                        "number": 64,
                        "time": 118.48651968124989,
                        "value": 0
                    },
                    {
                        "number": 64,
                        "time": 118.58706324999989,
                        "value": 1
                    },
                    {
                        "number": 64,
                        "time": 118.73470831041655,
                        "value": 0
                    },
                    {
                        "number": 64,
                        "time": 119.13235359583322,
                        "value": 0
                    },
                    {
                        "number": 64,
                        "time": 119.19485365208322,
                        "value": 1
                    },
                    {
                        "number": 64,
                        "time": 119.55898441458322,
                        "value": 0
                    },
                    {
                        "number": 64,
                        "time": 119.63597723749989,
                        "value": 1
                    },
                    {
                        "number": 64,
                        "time": 120.00010799999988,
                        "value": 0
                    },
                    {
                        "number": 64,
                        "time": 120.10880374999988,
                        "value": 1
                    },
                    {
                        "number": 64,
                        "time": 120.44666637291654,
                        "value": 0
                    },
                    {
                        "number": 64,
                        "time": 120.53090557916654,
                        "value": 1
                    },
                    {
                        "number": 64,
                        "time": 120.86967399999988,
                        "value": 0
                    },
                    {
                        "number": 64,
                        "time": 120.95934799374987,
                        "value": 1
                    },
                    {
                        "number": 64,
                        "time": 121.3171381708332,
                        "value": 0
                    },
                    {
                        "number": 64,
                        "time": 121.3877904083332,
                        "value": 1
                    },
                    {
                        "number": 64,
                        "time": 121.7437689895832,
                        "value": 0
                    },
                    {
                        "number": 64,
                        "time": 121.8225734083332,
                        "value": 1
                    },
                    {
                        "number": 64,
                        "time": 122.18489257499986,
                        "value": 0
                    },
                    {
                        "number": 64,
                        "time": 122.26188539791653,
                        "value": 1
                    },
                    {
                        "number": 64,
                        "time": 122.61424078749987,
                        "value": 0
                    },
                    {
                        "number": 64,
                        "time": 122.70482057916654,
                        "value": 1
                    },
                    {
                        "number": 64,
                        "time": 123.05445857499987,
                        "value": 0
                    },
                    {
                        "number": 64,
                        "time": 123.55536482291653,
                        "value": 1
                    },
                    {
                        "number": 64,
                        "time": 124.37330034166654,
                        "value": 0
                    },
                    {
                        "number": 64,
                        "time": 125.29449682291653,
                        "value": 1
                    },
                    {
                        "number": 64,
                        "time": 126.11243234166653,
                        "value": 0
                    },
                    {
                        "number": 64,
                        "time": 127.03362882291654,
                        "value": 1
                    },
                    {
                        "number": 64,
                        "time": 127.85156434166655,
                        "value": 0
                    },
                    {
                        "number": 64,
                        "time": 128.77276082291655,
                        "value": 1
                    },
                    {
                        "number": 64,
                        "time": 129.59069634166656,
                        "value": 0
                    },
                    {
                        "number": 64,
                        "time": 132.1767493937499,
                        "value": 1
                    },
                    {
                        "number": 64,
                        "time": 132.37602493541658,
                        "value": 0
                    },
                    {
                        "number": 64,
                        "time": 132.4267496187499,
                        "value": 1
                    },
                    {
                        "number": 64,
                        "time": 132.61515558541657,
                        "value": 0
                    },
                    {
                        "number": 64,
                        "time": 132.67222085416657,
                        "value": 1
                    },
                    {
                        "number": 64,
                        "time": 132.81986591458323,
                        "value": 0
                    },
                    {
                        "number": 64,
                        "time": 132.87059059791656,
                        "value": 1
                    },
                    {
                        "number": 64,
                        "time": 132.99921390208323,
                        "value": 0
                    },
                    {
                        "number": 64,
                        "time": 133.08164151249989,
                        "value": 1
                    },
                    {
                        "number": 64,
                        "time": 133.26098949999988,
                        "value": 0
                    },
                    {
                        "number": 64,
                        "time": 133.32439535416654,
                        "value": 1
                    },
                    {
                        "number": 64,
                        "time": 133.47566360624987,
                        "value": 0
                    },
                    {
                        "number": 64,
                        "time": 133.53544626874987,
                        "value": 1
                    },
                    {
                        "number": 64,
                        "time": 133.69939569166652,
                        "value": 0
                    },
                    {
                        "number": 64,
                        "time": 133.75646096041652,
                        "value": 1
                    },
                    {
                        "number": 64,
                        "time": 133.8524755395832,
                        "value": 0
                    },
                    {
                        "number": 64,
                        "time": 133.94124373541652,
                        "value": 1
                    },
                    {
                        "number": 64,
                        "time": 134.12149752083317,
                        "value": 0
                    },
                    {
                        "number": 64,
                        "time": 134.18128018333317,
                        "value": 1
                    },
                    {
                        "number": 64,
                        "time": 134.34522960624983,
                        "value": 0
                    },
                    {
                        "number": 64,
                        "time": 134.4086354604165,
                        "value": 1
                    },
                    {
                        "number": 64,
                        "time": 134.5526573291665,
                        "value": 0
                    },
                    {
                        "number": 64,
                        "time": 134.6097225979165,
                        "value": 1
                    },
                    {
                        "number": 64,
                        "time": 134.7347227104165,
                        "value": 0
                    },
                    {
                        "number": 64,
                        "time": 134.8243967041665,
                        "value": 1
                    },
                    {
                        "number": 64,
                        "time": 134.9684185729165,
                        "value": 0
                    },
                    {
                        "number": 64,
                        "time": 135.0445055979165,
                        "value": 1
                    },
                    {
                        "number": 64,
                        "time": 135.19849124374983,
                        "value": 0
                    },
                    {
                        "number": 64,
                        "time": 135.26552028958315,
                        "value": 1
                    },
                    {
                        "number": 64,
                        "time": 135.44758567083315,
                        "value": 0
                    },
                    {
                        "number": 64,
                        "time": 135.5109915249998,
                        "value": 1
                    },
                    {
                        "number": 64,
                        "time": 135.6550133937498,
                        "value": 0
                    },
                    {
                        "number": 64,
                        "time": 135.76099174999982,
                        "value": 1
                    },
                    {
                        "number": 64,
                        "time": 138.89414674374981,
                        "value": 0
                    },
                    {
                        "number": 64,
                        "time": 138.9901613229165,
                        "value": 1
                    },
                    {
                        "number": 64,
                        "time": 140.00012599999982,
                        "value": 0
                    },
                    {
                        "number": 64,
                        "time": 140.0961405791665,
                        "value": 1
                    },
                    {
                        "number": 64,
                        "time": 141.30719239374983,
                        "value": 0
                    },
                    {
                        "number": 64,
                        "time": 141.41860553749984,
                        "value": 1
                    },
                    {
                        "number": 64,
                        "time": 141.73925799999984,
                        "value": 0
                    },
                    {
                        "number": 64,
                        "time": 141.8352725791665,
                        "value": 1
                    },
                    {
                        "number": 64,
                        "time": 142.16770041458318,
                        "value": 0
                    },
                    {
                        "number": 64,
                        "time": 142.60882399999986,
                        "value": 1
                    },
                    {
                        "number": 64,
                        "time": 143.0481359895832,
                        "value": 0
                    },
                    {
                        "number": 64,
                        "time": 143.1160708333332,
                        "value": 1
                    },
                    {
                        "number": 64,
                        "time": 143.47838999999988,
                        "value": 0
                    },
                    {
                        "number": 64,
                        "time": 143.55628862083321,
                        "value": 1
                    },
                    {
                        "number": 64,
                        "time": 143.92313677708322,
                        "value": 0
                    },
                    {
                        "number": 64,
                        "time": 143.99107162083322,
                        "value": 1
                    },
                    {
                        "number": 64,
                        "time": 144.35248498958322,
                        "value": 0
                    },
                    {
                        "number": 64,
                        "time": 144.41226765208322,
                        "value": 1
                    },
                    {
                        "number": 64,
                        "time": 144.79451437291655,
                        "value": 0
                    },
                    {
                        "number": 64,
                        "time": 144.85429703541655,
                        "value": 1
                    },
                    {
                        "number": 64,
                        "time": 145.2175219999999,
                        "value": 0
                    },
                    {
                        "number": 64,
                        "time": 145.31081918541656,
                        "value": 1
                    },
                    {
                        "number": 64,
                        "time": 145.66408037291657,
                        "value": 0
                    },
                    {
                        "number": 64,
                        "time": 145.75103697291658,
                        "value": 1
                    },
                    {
                        "number": 64,
                        "time": 146.09342858541658,
                        "value": 0
                    },
                    {
                        "number": 64,
                        "time": 146.18038518541658,
                        "value": 1
                    },
                    {
                        "number": 64,
                        "time": 146.5327405749999,
                        "value": 0
                    },
                    {
                        "number": 64,
                        "time": 146.62603776041658,
                        "value": 1
                    },
                    {
                        "number": 64,
                        "time": 146.96299458541657,
                        "value": 0
                    },
                    {
                        "number": 64,
                        "time": 147.0245888437499,
                        "value": 1
                    },
                    {
                        "number": 64,
                        "time": 147.4023065749999,
                        "value": 0
                    },
                    {
                        "number": 64,
                        "time": 147.48473418541656,
                        "value": 1
                    },
                    {
                        "number": 64,
                        "time": 147.89868383333322,
                        "value": 0
                    },
                    {
                        "number": 64,
                        "time": 148.0952419812499,
                        "value": 1
                    },
                    {
                        "number": 64,
                        "time": 148.26734358541657,
                        "value": 0
                    },
                    {
                        "number": 64,
                        "time": 148.5300249812499,
                        "value": 1
                    },
                    {
                        "number": 64,
                        "time": 148.7039381812499,
                        "value": 0
                    },
                    {
                        "number": 64,
                        "time": 148.9756775562499,
                        "value": 1
                    },
                    {
                        "number": 64,
                        "time": 149.1414385749999,
                        "value": 0
                    },
                    {
                        "number": 64,
                        "time": 149.37966342708324,
                        "value": 1
                    },
                    {
                        "number": 64,
                        "time": 149.5653519999999,
                        "value": 0
                    },
                    {
                        "number": 64,
                        "time": 149.64868540833325,
                        "value": 1
                    },
                    {
                        "number": 64,
                        "time": 150.01100457499993,
                        "value": 0
                    },
                    {
                        "number": 64,
                        "time": 150.08980899374993,
                        "value": 1
                    },
                    {
                        "number": 64,
                        "time": 150.4412585854166,
                        "value": 0
                    },
                    {
                        "number": 64,
                        "time": 150.5309325791666,
                        "value": 1
                    },
                    {
                        "number": 64,
                        "time": 150.8814763729166,
                        "value": 0
                    },
                    {
                        "number": 64,
                        "time": 150.97205616458328,
                        "value": 1
                    },
                    {
                        "number": 64,
                        "time": 151.30720139374995,
                        "value": 0
                    },
                    {
                        "number": 64,
                        "time": 151.3878174083333,
                        "value": 1
                    },
                    {
                        "number": 64,
                        "time": 151.75013657499997,
                        "value": 0
                    },
                    {
                        "number": 64,
                        "time": 151.83528157916663,
                        "value": 1
                    },
                    {
                        "number": 64,
                        "time": 152.17676739374997,
                        "value": 0
                    },
                    {
                        "number": 64,
                        "time": 152.27006457916664,
                        "value": 1
                    },
                    {
                        "number": 64,
                        "time": 152.6215141708333,
                        "value": 0
                    },
                    {
                        "number": 64,
                        "time": 152.71118816458332,
                        "value": 1
                    },
                    {
                        "number": 64,
                        "time": 153.043616,
                        "value": 0
                    },
                    {
                        "number": 64,
                        "time": 153.12694940833333,
                        "value": 1
                    },
                    {
                        "number": 64,
                        "time": 153.489268575,
                        "value": 0
                    },
                    {
                        "number": 64,
                        "time": 153.56807299375,
                        "value": 1
                    },
                    {
                        "number": 64,
                        "time": 153.91952258541667,
                        "value": 0
                    },
                    {
                        "number": 64,
                        "time": 154.00919657916668,
                        "value": 1
                    },
                    {
                        "number": 64,
                        "time": 154.3597403729167,
                        "value": 0
                    },
                    {
                        "number": 64,
                        "time": 154.45032016458336,
                        "value": 1
                    },
                    {
                        "number": 64,
                        "time": 154.78546539375003,
                        "value": 0
                    },
                    {
                        "number": 64,
                        "time": 154.86608140833337,
                        "value": 1
                    },
                    {
                        "number": 64,
                        "time": 155.22840057500005,
                        "value": 0
                    },
                    {
                        "number": 64,
                        "time": 155.3135455791667,
                        "value": 1
                    },
                    {
                        "number": 64,
                        "time": 155.65503139375005,
                        "value": 0
                    },
                    {
                        "number": 64,
                        "time": 155.74832857916672,
                        "value": 1
                    },
                    {
                        "number": 64,
                        "time": 156.0997781708334,
                        "value": 0
                    },
                    {
                        "number": 64,
                        "time": 156.1894521645834,
                        "value": 1
                    },
                    {
                        "number": 64,
                        "time": 156.52459739375007,
                        "value": 0
                    },
                    {
                        "number": 64,
                        "time": 156.6242351645834,
                        "value": 1
                    },
                    {
                        "number": 64,
                        "time": 156.9693441708334,
                        "value": 0
                    },
                    {
                        "number": 64,
                        "time": 157.05901816458342,
                        "value": 1
                    },
                    {
                        "number": 64,
                        "time": 157.3941633937501,
                        "value": 0
                    },
                    {
                        "number": 64,
                        "time": 157.49380116458343,
                        "value": 1
                    },
                    {
                        "number": 64,
                        "time": 157.83891017083343,
                        "value": 0
                    },
                    {
                        "number": 64,
                        "time": 157.92858416458344,
                        "value": 1
                    },
                    {
                        "number": 64,
                        "time": 158.2637293937501,
                        "value": 0
                    },
                    {
                        "number": 64,
                        "time": 158.36336716458345,
                        "value": 1
                    },
                    {
                        "number": 64,
                        "time": 158.70847617083345,
                        "value": 0
                    },
                    {
                        "number": 64,
                        "time": 158.79815016458346,
                        "value": 1
                    },
                    {
                        "number": 64,
                        "time": 159.13329539375013,
                        "value": 0
                    },
                    {
                        "number": 64,
                        "time": 159.23293316458347,
                        "value": 1
                    },
                    {
                        "number": 64,
                        "time": 159.57804217083347,
                        "value": 0
                    },
                    {
                        "number": 64,
                        "time": 159.66771616458348,
                        "value": 1
                    },
                    {
                        "number": 64,
                        "time": 160.00286139375015,
                        "value": 0
                    },
                    {
                        "number": 64,
                        "time": 160.1024991645835,
                        "value": 1
                    },
                    {
                        "number": 64,
                        "time": 160.4476081708335,
                        "value": 0
                    },
                    {
                        "number": 64,
                        "time": 160.5372821645835,
                        "value": 1
                    },
                    {
                        "number": 64,
                        "time": 160.87242739375017,
                        "value": 0
                    },
                    {
                        "number": 64,
                        "time": 160.9720651645835,
                        "value": 1
                    },
                    {
                        "number": 64,
                        "time": 161.3171741708335,
                        "value": 0
                    },
                    {
                        "number": 64,
                        "time": 161.40684816458352,
                        "value": 1
                    },
                    {
                        "number": 64,
                        "time": 161.7419933937502,
                        "value": 0
                    },
                    {
                        "number": 64,
                        "time": 161.84163116458353,
                        "value": 1
                    },
                    {
                        "number": 64,
                        "time": 162.18674017083353,
                        "value": 0
                    },
                    {
                        "number": 64,
                        "time": 162.27641416458354,
                        "value": 1
                    },
                    {
                        "number": 64,
                        "time": 162.6115593937502,
                        "value": 0
                    },
                    {
                        "number": 64,
                        "time": 162.71119716458355,
                        "value": 1
                    },
                    {
                        "number": 64,
                        "time": 163.05630617083355,
                        "value": 0
                    },
                    {
                        "number": 64,
                        "time": 163.14598016458356,
                        "value": 1
                    },
                    {
                        "number": 64,
                        "time": 163.47840800000023,
                        "value": 0
                    },
                    {
                        "number": 64,
                        "time": 163.71482125625022,
                        "value": 1
                    },
                    {
                        "number": 64,
                        "time": 163.93855334166687,
                        "value": 0
                    },
                    {
                        "number": 64,
                        "time": 164.13692308541687,
                        "value": 1
                    },
                    {
                        "number": 64,
                        "time": 164.3479740000002,
                        "value": 0
                    },
                    {
                        "number": 64,
                        "time": 165.00648908541686,
                        "value": 1
                    },
                    {
                        "number": 64,
                        "time": 165.21754000000018,
                        "value": 0
                    },
                    {
                        "number": 64,
                        "time": 165.31355457916686,
                        "value": 1
                    },
                    {
                        "number": 64,
                        "time": 165.4458010750002,
                        "value": 0
                    },
                    {
                        "number": 64,
                        "time": 165.51826490833352,
                        "value": 1
                    },
                    {
                        "number": 64,
                        "time": 165.65866358541686,
                        "value": 0
                    },
                    {
                        "number": 64,
                        "time": 165.73565640833354,
                        "value": 1
                    },
                    {
                        "number": 64,
                        "time": 165.87605508541688,
                        "value": 0
                    },
                    {
                        "number": 64,
                        "time": 165.9657290791669,
                        "value": 1
                    },
                    {
                        "number": 64,
                        "time": 166.08710600000023,
                        "value": 0
                    },
                    {
                        "number": 64,
                        "time": 166.1314900979169,
                        "value": 1
                    },
                    {
                        "number": 64,
                        "time": 166.31536707500024,
                        "value": 0
                    },
                    {
                        "number": 64,
                        "time": 166.3434468104169,
                        "value": 1
                    },
                    {
                        "number": 64,
                        "time": 166.53275857500023,
                        "value": 0
                    },
                    {
                        "number": 64,
                        "time": 166.57170788541688,
                        "value": 1
                    },
                    {
                        "number": 64,
                        "time": 166.75196167083354,
                        "value": 0
                    },
                    {
                        "number": 64,
                        "time": 166.8017805562502,
                        "value": 1
                    },
                    {
                        "number": 64,
                        "time": 166.96301258541686,
                        "value": 0
                    },
                    {
                        "number": 64,
                        "time": 167.04000540833354,
                        "value": 1
                    },
                    {
                        "number": 64,
                        "time": 167.18402727708354,
                        "value": 0
                    },
                    {
                        "number": 64,
                        "time": 167.25739690833353,
                        "value": 1
                    },
                    {
                        "number": 64,
                        "time": 167.39688978750019,
                        "value": 0
                    },
                    {
                        "number": 64,
                        "time": 167.61518708541686,
                        "value": 1
                    },
                    {
                        "number": 64,
                        "time": 167.8262380000002,
                        "value": 0
                    },
                    {
                        "number": 64,
                        "time": 168.10794115208353,
                        "value": 1
                    },
                    {
                        "number": 64,
                        "time": 168.27279637291687,
                        "value": 0
                    },
                    {
                        "number": 64,
                        "time": 168.52370239583354,
                        "value": 1
                    },
                    {
                        "number": 64,
                        "time": 168.6958040000002,
                        "value": 0
                    },
                    {
                        "number": 64,
                        "time": 168.80449975000022,
                        "value": 1
                    },
                    {
                        "number": 64,
                        "time": 168.92406507500021,
                        "value": 0
                    },
                    {
                        "number": 64,
                        "time": 169.0028694937502,
                        "value": 1
                    },
                    {
                        "number": 64,
                        "time": 169.14055077708355,
                        "value": 0
                    },
                    {
                        "number": 64,
                        "time": 169.19489865208354,
                        "value": 1
                    },
                    {
                        "number": 64,
                        "time": 169.35522488333353,
                        "value": 0
                    },
                    {
                        "number": 64,
                        "time": 169.41229015208353,
                        "value": 1
                    },
                    {
                        "number": 64,
                        "time": 169.56989898958352,
                        "value": 0
                    },
                    {
                        "number": 64,
                        "time": 169.63783383333353,
                        "value": 1
                    },
                    {
                        "number": 64,
                        "time": 169.78729048958354,
                        "value": 0
                    },
                    {
                        "number": 64,
                        "time": 169.8452615562502,
                        "value": 1
                    },
                    {
                        "number": 64,
                        "time": 170.0028703937502,
                        "value": 0
                    },
                    {
                        "number": 64,
                        "time": 170.09345018541686,
                        "value": 1
                    },
                    {
                        "number": 64,
                        "time": 170.2284140750002,
                        "value": 0
                    },
                    {
                        "number": 64,
                        "time": 170.4394649895835,
                        "value": 0
                    },
                    {
                        "number": 64,
                        "time": 170.50739983333352,
                        "value": 1
                    },
                    {
                        "number": 64,
                        "time": 170.65685648958353,
                        "value": 0
                    },
                    {
                        "number": 64,
                        "time": 170.71482755625019,
                        "value": 1
                    },
                    {
                        "number": 64,
                        "time": 170.87243639375018,
                        "value": 0
                    },
                    {
                        "number": 64,
                        "time": 170.96301618541685,
                        "value": 1
                    },
                    {
                        "number": 64,
                        "time": 171.09798007500018,
                        "value": 0
                    },
                    {
                        "number": 64,
                        "time": 171.30812519166685,
                        "value": 0
                    },
                    {
                        "number": 64,
                        "time": 171.37696583333351,
                        "value": 1
                    },
                    {
                        "number": 64,
                        "time": 171.52642248958352,
                        "value": 0
                    },
                    {
                        "number": 64,
                        "time": 171.58439355625018,
                        "value": 1
                    },
                    {
                        "number": 64,
                        "time": 171.74200239375017,
                        "value": 0
                    },
                    {
                        "number": 64,
                        "time": 171.83258218541684,
                        "value": 1
                    },
                    {
                        "number": 64,
                        "time": 171.96754607500017,
                        "value": 0
                    },
                    {
                        "number": 64,
                        "time": 172.17678539375018,
                        "value": 0
                    },
                    {
                        "number": 64,
                        "time": 172.2465318333335,
                        "value": 1
                    },
                    {
                        "number": 64,
                        "time": 172.39598848958352,
                        "value": 0
                    },
                    {
                        "number": 64,
                        "time": 172.45395955625017,
                        "value": 1
                    },
                    {
                        "number": 64,
                        "time": 172.61156839375016,
                        "value": 0
                    },
                    {
                        "number": 64,
                        "time": 172.70214818541683,
                        "value": 1
                    },
                    {
                        "number": 64,
                        "time": 172.83711207500016,
                        "value": 0
                    },
                    {
                        "number": 64,
                        "time": 173.04363400000017,
                        "value": 1
                    },
                    {
                        "number": 64,
                        "time": 173.26102550000016,
                        "value": 0
                    },
                    {
                        "number": 64,
                        "time": 173.32352555625016,
                        "value": 1
                    },
                    {
                        "number": 64,
                        "time": 173.4883807770835,
                        "value": 0
                    },
                    {
                        "number": 64,
                        "time": 173.54635184375016,
                        "value": 1
                    },
                    {
                        "number": 64,
                        "time": 173.7003374895835,
                        "value": 0
                    },
                    {
                        "number": 64,
                        "time": 173.74743898125016,
                        "value": 1
                    },
                    {
                        "number": 64,
                        "time": 173.91863478750017,
                        "value": 0
                    },
                    {
                        "number": 64,
                        "time": 173.9910986208335,
                        "value": 1
                    },
                    {
                        "number": 64,
                        "time": 174.35704097916684,
                        "value": 0
                    },
                    {
                        "number": 64,
                        "time": 174.44671497291685,
                        "value": 1
                    },
                    {
                        "number": 64,
                        "time": 174.78729498958353,
                        "value": 0
                    },
                    {
                        "number": 64,
                        "time": 174.86609940833353,
                        "value": 1
                    },
                    {
                        "number": 64,
                        "time": 175.2284185750002,
                        "value": 0
                    },
                    {
                        "number": 64,
                        "time": 175.31084618541686,
                        "value": 1
                    },
                    {
                        "number": 64,
                        "time": 175.4458100750002,
                        "value": 0
                    },
                    {
                        "number": 64,
                        "time": 175.49744055625018,
                        "value": 1
                    },
                    {
                        "number": 64,
                        "time": 175.65776678750018,
                        "value": 0
                    },
                    {
                        "number": 64,
                        "time": 175.7302306208335,
                        "value": 1
                    },
                    {
                        "number": 64,
                        "time": 176.09617297916685,
                        "value": 0
                    },
                    {
                        "number": 64,
                        "time": 176.18584697291686,
                        "value": 1
                    },
                    {
                        "number": 64,
                        "time": 176.52642698958354,
                        "value": 0
                    },
                    {
                        "number": 64,
                        "time": 176.60523140833354,
                        "value": 1
                    },
                    {
                        "number": 64,
                        "time": 176.96755057500022,
                        "value": 0
                    },
                    {
                        "number": 64,
                        "time": 177.04997818541688,
                        "value": 1
                    },
                    {
                        "number": 64,
                        "time": 177.1849420750002,
                        "value": 0
                    },
                    {
                        "number": 64,
                        "time": 177.2365725562502,
                        "value": 1
                    },
                    {
                        "number": 64,
                        "time": 177.39146400000018,
                        "value": 0
                    },
                    {
                        "number": 64,
                        "time": 177.47479740833353,
                        "value": 1
                    },
                    {
                        "number": 64,
                        "time": 177.83621077708352,
                        "value": 0
                    },
                    {
                        "number": 64,
                        "time": 177.89871083333352,
                        "value": 1
                    },
                    {
                        "number": 64,
                        "time": 178.2610300000002,
                        "value": 0
                    },
                    {
                        "number": 64,
                        "time": 178.35432718541688,
                        "value": 1
                    },
                    {
                        "number": 64,
                        "time": 178.7075883729169,
                        "value": 0
                    },
                    {
                        "number": 64,
                        "time": 178.75831305625022,
                        "value": 1
                    },
                    {
                        "number": 64,
                        "time": 178.92045088333356,
                        "value": 0
                    },
                    {
                        "number": 64,
                        "time": 178.98113934375021,
                        "value": 1
                    },
                    {
                        "number": 64,
                        "time": 179.1360307875002,
                        "value": 0
                    },
                    {
                        "number": 64,
                        "time": 179.20849462083353,
                        "value": 1
                    },
                    {
                        "number": 64,
                        "time": 179.57443697916688,
                        "value": 0
                    },
                    {
                        "number": 64,
                        "time": 179.6641109729169,
                        "value": 1
                    },
                    {
                        "number": 64,
                        "time": 180.00469098958357,
                        "value": 0
                    },
                    {
                        "number": 64,
                        "time": 180.08349540833356,
                        "value": 1
                    },
                    {
                        "number": 64,
                        "time": 180.44581457500024,
                        "value": 0
                    },
                    {
                        "number": 64,
                        "time": 180.5282421854169,
                        "value": 1
                    },
                    {
                        "number": 64,
                        "time": 180.66320607500023,
                        "value": 0
                    },
                    {
                        "number": 64,
                        "time": 180.71483655625022,
                        "value": 1
                    },
                    {
                        "number": 64,
                        "time": 180.87516278750022,
                        "value": 0
                    },
                    {
                        "number": 64,
                        "time": 180.94762662083355,
                        "value": 1
                    },
                    {
                        "number": 64,
                        "time": 181.3135689791669,
                        "value": 0
                    },
                    {
                        "number": 64,
                        "time": 181.4032429729169,
                        "value": 1
                    },
                    {
                        "number": 64,
                        "time": 181.74382298958358,
                        "value": 0
                    },
                    {
                        "number": 64,
                        "time": 181.82262740833357,
                        "value": 1
                    },
                    {
                        "number": 64,
                        "time": 182.18494657500025,
                        "value": 0
                    },
                    {
                        "number": 64,
                        "time": 182.2673741854169,
                        "value": 1
                    },
                    {
                        "number": 64,
                        "time": 182.40233807500024,
                        "value": 0
                    },
                    {
                        "number": 64,
                        "time": 182.45396855625023,
                        "value": 1
                    },
                    {
                        "number": 64,
                        "time": 182.60886000000022,
                        "value": 0
                    },
                    {
                        "number": 64,
                        "time": 182.69219340833357,
                        "value": 1
                    },
                    {
                        "number": 64,
                        "time": 183.05360677708356,
                        "value": 0
                    },
                    {
                        "number": 64,
                        "time": 183.11610683333356,
                        "value": 1
                    },
                    {
                        "number": 64,
                        "time": 183.47842600000024,
                        "value": 0
                    },
                    {
                        "number": 64,
                        "time": 183.57172318541691,
                        "value": 1
                    },
                    {
                        "number": 64,
                        "time": 183.92498437291692,
                        "value": 0
                    },
                    {
                        "number": 64,
                        "time": 183.97570905625025,
                        "value": 1
                    },
                    {
                        "number": 64,
                        "time": 184.1378468833336,
                        "value": 0
                    },
                    {
                        "number": 64,
                        "time": 184.19853534375025,
                        "value": 1
                    },
                    {
                        "number": 64,
                        "time": 184.34799200000026,
                        "value": 0
                    },
                    {
                        "number": 64,
                        "time": 184.4313254083336,
                        "value": 1
                    },
                    {
                        "number": 64,
                        "time": 184.7927387770836,
                        "value": 0
                    },
                    {
                        "number": 64,
                        "time": 184.8552388333336,
                        "value": 1
                    },
                    {
                        "number": 64,
                        "time": 185.21755800000028,
                        "value": 0
                    },
                    {
                        "number": 64,
                        "time": 185.31085518541695,
                        "value": 1
                    },
                    {
                        "number": 64,
                        "time": 185.66411637291696,
                        "value": 0
                    },
                    {
                        "number": 64,
                        "time": 185.7148410562503,
                        "value": 1
                    },
                    {
                        "number": 64,
                        "time": 185.87697888333363,
                        "value": 0
                    },
                    {
                        "number": 64,
                        "time": 185.9376673437503,
                        "value": 1
                    },
                    {
                        "number": 64,
                        "time": 186.0871240000003,
                        "value": 0
                    },
                    {
                        "number": 64,
                        "time": 186.17045740833365,
                        "value": 1
                    },
                    {
                        "number": 64,
                        "time": 186.53187077708364,
                        "value": 0
                    },
                    {
                        "number": 64,
                        "time": 186.59437083333364,
                        "value": 1
                    },
                    {
                        "number": 64,
                        "time": 186.95669000000032,
                        "value": 0
                    },
                    {
                        "number": 64,
                        "time": 187.049987185417,
                        "value": 1
                    },
                    {
                        "number": 64,
                        "time": 187.403248372917,
                        "value": 0
                    },
                    {
                        "number": 64,
                        "time": 187.45397305625033,
                        "value": 1
                    },
                    {
                        "number": 64,
                        "time": 187.84527775625034,
                        "value": 0
                    },
                    {
                        "number": 64,
                        "time": 188.10071276875033,
                        "value": 1
                    },
                    {
                        "number": 64,
                        "time": 188.308140491667,
                        "value": 0
                    },
                    {
                        "number": 64,
                        "time": 188.54545954583367,
                        "value": 1
                    },
                    {
                        "number": 64,
                        "time": 188.69582200000033,
                        "value": 0
                    },
                    {
                        "number": 64,
                        "time": 189.40506176875033,
                        "value": 1
                    },
                    {
                        "number": 64,
                        "time": 189.56538800000033,
                        "value": 0
                    },
                    {
                        "number": 64,
                        "time": 189.83984476875034,
                        "value": 1
                    },
                    {
                        "number": 64,
                        "time": 190.047272491667,
                        "value": 0
                    },
                    {
                        "number": 64,
                        "time": 190.28459154583368,
                        "value": 1
                    },
                    {
                        "number": 64,
                        "time": 190.43495400000035,
                        "value": 0
                    },
                    {
                        "number": 64,
                        "time": 192.213035310417,
                        "value": 1
                    },
                    {
                        "number": 64,
                        "time": 192.39600648958367,
                        "value": 0
                    },
                    {
                        "number": 64,
                        "time": 192.45578915208367,
                        "value": 1
                    },
                    {
                        "number": 64,
                        "time": 192.615209585417,
                        "value": 0
                    },
                    {
                        "number": 64,
                        "time": 192.70488357916702,
                        "value": 1
                    },
                    {
                        "number": 64,
                        "time": 193.04365200000035,
                        "value": 0
                    },
                    {
                        "number": 64,
                        "time": 193.1460071645837,
                        "value": 1
                    },
                    {
                        "number": 64,
                        "time": 193.48477558541703,
                        "value": 0
                    },
                    {
                        "number": 64,
                        "time": 193.56810899375037,
                        "value": 1
                    },
                    {
                        "number": 64,
                        "time": 193.91321800000037,
                        "value": 0
                    },
                    {
                        "number": 64,
                        "time": 193.9856818333337,
                        "value": 1
                    },
                    {
                        "number": 64,
                        "time": 194.3579647770837,
                        "value": 0
                    },
                    {
                        "number": 64,
                        "time": 194.41593584375036,
                        "value": 1
                    },
                    {
                        "number": 64,
                        "time": 194.7900303833337,
                        "value": 0
                    },
                    {
                        "number": 64,
                        "time": 194.82445070416702,
                        "value": 1
                    },
                    {
                        "number": 64,
                        "time": 195.22843657500036,
                        "value": 0
                    },
                    {
                        "number": 64,
                        "time": 195.2845960458337,
                        "value": 1
                    },
                    {
                        "number": 64,
                        "time": 195.44582807500035,
                        "value": 0
                    },
                    {
                        "number": 64,
                        "time": 195.48930637500035,
                        "value": 1
                    },
                    {
                        "number": 64,
                        "time": 195.65235000000035,
                        "value": 0
                    },
                    {
                        "number": 64,
                        "time": 195.76104575000036,
                        "value": 1
                    },
                    {
                        "number": 64,
                        "time": 196.52191600000037,
                        "value": 0
                    },
                    {
                        "number": 64,
                        "time": 196.5998146208337,
                        "value": 1
                    },
                    {
                        "number": 64,
                        "time": 196.96303958541705,
                        "value": 0
                    },
                    {
                        "number": 64,
                        "time": 197.04456139791705,
                        "value": 1
                    },
                    {
                        "number": 64,
                        "time": 197.40235157500038,
                        "value": 0
                    },
                    {
                        "number": 64,
                        "time": 197.5128589208337,
                        "value": 1
                    },
                    {
                        "number": 64,
                        "time": 197.82717079791703,
                        "value": 0
                    },
                    {
                        "number": 64,
                        "time": 197.90325782291703,
                        "value": 1
                    },
                    {
                        "number": 64,
                        "time": 198.2655769895837,
                        "value": 0
                    },
                    {
                        "number": 64,
                        "time": 198.3389466208337,
                        "value": 1
                    },
                    {
                        "number": 64,
                        "time": 198.70217158541703,
                        "value": 0
                    },
                    {
                        "number": 64,
                        "time": 198.7791644083337,
                        "value": 1
                    },
                    {
                        "number": 64,
                        "time": 199.1378603833337,
                        "value": 0
                    },
                    {
                        "number": 64,
                        "time": 199.2139474083337,
                        "value": 1
                    },
                    {
                        "number": 64,
                        "time": 199.57717237291703,
                        "value": 0
                    },
                    {
                        "number": 64,
                        "time": 199.6487304083337,
                        "value": 1
                    },
                    {
                        "number": 64,
                        "time": 200.00018000000037,
                        "value": 0
                    },
                    {
                        "number": 64,
                        "time": 200.09619457916705,
                        "value": 1
                    },
                    {
                        "number": 64,
                        "time": 200.44130358541705,
                        "value": 0
                    },
                    {
                        "number": 64,
                        "time": 200.53731816458372,
                        "value": 1
                    },
                    {
                        "number": 64,
                        "time": 200.8697460000004,
                        "value": 0
                    },
                    {
                        "number": 64,
                        "time": 200.93405765208374,
                        "value": 1
                    },
                    {
                        "number": 64,
                        "time": 201.7556163625004,
                        "value": 0
                    },
                    {
                        "number": 64,
                        "time": 201.78731928958373,
                        "value": 1
                    },
                    {
                        "number": 64,
                        "time": 202.6115953937504,
                        "value": 0
                    },
                    {
                        "number": 64,
                        "time": 202.66050848125042,
                        "value": 1
                    },
                    {
                        "number": 64,
                        "time": 203.49474836250042,
                        "value": 0
                    },
                    {
                        "number": 64,
                        "time": 203.52011070416708,
                        "value": 1
                    },
                    {
                        "number": 64,
                        "time": 204.34801000000041,
                        "value": 0
                    },
                    {
                        "number": 64,
                        "time": 204.40598106666707,
                        "value": 1
                    },
                    {
                        "number": 64,
                        "time": 204.57174208541707,
                        "value": 0
                    },
                    {
                        "number": 64,
                        "time": 204.61340878958373,
                        "value": 1
                    },
                    {
                        "number": 64,
                        "time": 205.2175760000004,
                        "value": 0
                    },
                    {
                        "number": 64,
                        "time": 205.27554706666706,
                        "value": 1
                    },
                    {
                        "number": 64,
                        "time": 205.65598219166705,
                        "value": 0
                    },
                    {
                        "number": 64,
                        "time": 205.7003662895837,
                        "value": 1
                    },
                    {
                        "number": 64,
                        "time": 206.09348258541704,
                        "value": 0
                    },
                    {
                        "number": 64,
                        "time": 206.18043918541704,
                        "value": 1
                    },
                    {
                        "number": 64,
                        "time": 206.74475128750038,
                        "value": 0
                    },
                    {
                        "number": 64,
                        "time": 206.82264990833372,
                        "value": 1
                    },
                    {
                        "number": 64,
                        "time": 206.8996427312504,
                        "value": 0
                    },
                    {
                        "number": 64,
                        "time": 206.9567080000004,
                        "value": 1
                    },
                    {
                        "number": 64,
                        "time": 207.08080231458374,
                        "value": 0
                    },
                    {
                        "number": 64,
                        "time": 207.2311647687504,
                        "value": 1
                    },
                    {
                        "number": 64,
                        "time": 207.31902716666707,
                        "value": 0
                    },
                    {
                        "number": 64,
                        "time": 207.4485562687504,
                        "value": 1
                    },
                    {
                        "number": 64,
                        "time": 207.56268680625038,
                        "value": 0
                    },
                    {
                        "number": 64,
                        "time": 207.67681734375037,
                        "value": 1
                    },
                    {
                        "number": 64,
                        "time": 207.75381016666705,
                        "value": 0
                    },
                    {
                        "number": 64,
                        "time": 207.82627400000038,
                        "value": 1
                    },
                    {
                        "number": 64,
                        "time": 207.9558031020837,
                        "value": 0
                    },
                    {
                        "number": 64,
                        "time": 208.07989741666705,
                        "value": 1
                    },
                    {
                        "number": 64,
                        "time": 208.1786293895837,
                        "value": 0
                    },
                    {
                        "number": 64,
                        "time": 208.30815849166703,
                        "value": 1
                    },
                    {
                        "number": 64,
                        "time": 208.41141945416703,
                        "value": 0
                    },
                    {
                        "number": 64,
                        "time": 208.53007898125037,
                        "value": 1
                    },
                    {
                        "number": 64,
                        "time": 208.61341238958371,
                        "value": 0
                    },
                    {
                        "number": 64,
                        "time": 208.69584000000037,
                        "value": 1
                    },
                    {
                        "number": 64,
                        "time": 208.8253691020837,
                        "value": 0
                    },
                    {
                        "number": 64,
                        "time": 208.94946341666704,
                        "value": 1
                    },
                    {
                        "number": 64,
                        "time": 209.0536301770837,
                        "value": 0
                    },
                    {
                        "number": 64,
                        "time": 209.18225348125037,
                        "value": 1
                    },
                    {
                        "number": 64,
                        "time": 209.27555066666704,
                        "value": 0
                    },
                    {
                        "number": 64,
                        "time": 209.41051455625038,
                        "value": 1
                    },
                    {
                        "number": 64,
                        "time": 209.48841317708371,
                        "value": 0
                    },
                    {
                        "number": 64,
                        "time": 209.61069589583371,
                        "value": 1
                    },
                    {
                        "number": 64,
                        "time": 210.23026167083373,
                        "value": 0
                    },
                    {
                        "number": 64,
                        "time": 210.33895742083374,
                        "value": 1
                    },
                    {
                        "number": 64,
                        "time": 210.4349720000004,
                        "value": 0
                    },
                    {
                        "number": 64,
                        "time": 210.5309865791671,
                        "value": 1
                    },
                    {
                        "number": 64,
                        "time": 211.09348708541708,
                        "value": 0
                    },
                    {
                        "number": 64,
                        "time": 211.17682049375043,
                        "value": 1
                    },
                    {
                        "number": 64,
                        "time": 211.32899454375044,
                        "value": 0
                    },
                    {
                        "number": 64,
                        "time": 211.43225550625044,
                        "value": 1
                    },
                    {
                        "number": 64,
                        "time": 211.74747318125046,
                        "value": 0
                    },
                    {
                        "number": 64,
                        "time": 211.80997323750046,
                        "value": 1
                    },
                    {
                        "number": 64,
                        "time": 212.17410400000045,
                        "value": 0
                    },
                    {
                        "number": 64,
                        "time": 212.25109682291713,
                        "value": 1
                    },
                    {
                        "number": 64,
                        "time": 212.61703918125048,
                        "value": 0
                    },
                    {
                        "number": 64,
                        "time": 212.71758275000047,
                        "value": 1
                    },
                    {
                        "number": 64,
                        "time": 213.04367000000047,
                        "value": 0
                    },
                    {
                        "number": 64,
                        "time": 213.95852589583382,
                        "value": 1
                    },
                    {
                        "number": 64,
                        "time": 214.7828020000005,
                        "value": 0
                    },
                    {
                        "number": 64,
                        "time": 215.69765789583383,
                        "value": 1
                    },
                    {
                        "number": 64,
                        "time": 216.3371512250005,
                        "value": 0
                    },
                    {
                        "number": 64,
                        "time": 216.52827458541717,
                        "value": 0
                    },
                    {
                        "number": 64,
                        "time": 216.76015885208383,
                        "value": 1
                    },
                    {
                        "number": 64,
                        "time": 217.1795432875005,
                        "value": 0
                    },
                    {
                        "number": 64,
                        "time": 217.25744190833385,
                        "value": 1
                    },
                    {
                        "number": 64,
                        "time": 217.33443473125052,
                        "value": 0
                    },
                    {
                        "number": 64,
                        "time": 217.39150000000052,
                        "value": 1
                    },
                    {
                        "number": 64,
                        "time": 217.4893261750005,
                        "value": 0
                    },
                    {
                        "number": 64,
                        "time": 217.6659567687505,
                        "value": 1
                    },
                    {
                        "number": 64,
                        "time": 217.72664522916716,
                        "value": 0
                    },
                    {
                        "number": 64,
                        "time": 217.8833482687505,
                        "value": 1
                    },
                    {
                        "number": 64,
                        "time": 217.9485657187505,
                        "value": 0
                    },
                    {
                        "number": 64,
                        "time": 218.1116093437505,
                        "value": 1
                    },
                    {
                        "number": 64,
                        "time": 218.16142822916717,
                        "value": 0
                    },
                    {
                        "number": 64,
                        "time": 218.26740658541718,
                        "value": 0
                    },
                    {
                        "number": 64,
                        "time": 218.49929085208385,
                        "value": 1
                    },
                    {
                        "number": 64,
                        "time": 218.91867528750052,
                        "value": 0
                    },
                    {
                        "number": 64,
                        "time": 218.99657390833386,
                        "value": 1
                    },
                    {
                        "number": 64,
                        "time": 219.07356673125054,
                        "value": 0
                    },
                    {
                        "number": 64,
                        "time": 219.13063200000053,
                        "value": 1
                    },
                    {
                        "number": 64,
                        "time": 219.22845817500053,
                        "value": 0
                    },
                    {
                        "number": 64,
                        "time": 219.40508876875052,
                        "value": 1
                    },
                    {
                        "number": 64,
                        "time": 219.46577722916717,
                        "value": 0
                    },
                    {
                        "number": 64,
                        "time": 219.6224802687505,
                        "value": 1
                    },
                    {
                        "number": 64,
                        "time": 219.6876977187505,
                        "value": 0
                    },
                    {
                        "number": 64,
                        "time": 219.8507413437505,
                        "value": 1
                    },
                    {
                        "number": 64,
                        "time": 219.90056022916718,
                        "value": 0
                    },
                    {
                        "number": 64,
                        "time": 220.0065385854172,
                        "value": 0
                    },
                    {
                        "number": 64,
                        "time": 220.23842285208386,
                        "value": 1
                    },
                    {
                        "number": 64,
                        "time": 220.65780728750053,
                        "value": 0
                    },
                    {
                        "number": 64,
                        "time": 220.73570590833387,
                        "value": 1
                    },
                    {
                        "number": 64,
                        "time": 220.81269873125055,
                        "value": 0
                    },
                    {
                        "number": 64,
                        "time": 220.86976400000054,
                        "value": 1
                    },
                    {
                        "number": 64,
                        "time": 220.96759017500054,
                        "value": 0
                    },
                    {
                        "number": 64,
                        "time": 221.14422076875053,
                        "value": 1
                    },
                    {
                        "number": 64,
                        "time": 221.20490922916719,
                        "value": 0
                    },
                    {
                        "number": 64,
                        "time": 221.36161226875052,
                        "value": 1
                    },
                    {
                        "number": 64,
                        "time": 221.42682971875053,
                        "value": 0
                    },
                    {
                        "number": 64,
                        "time": 221.58987334375053,
                        "value": 1
                    },
                    {
                        "number": 64,
                        "time": 221.6396922291672,
                        "value": 0
                    },
                    {
                        "number": 64,
                        "time": 221.73933000000054,
                        "value": 0
                    },
                    {
                        "number": 64,
                        "time": 221.79367787500053,
                        "value": 1
                    },
                    {
                        "number": 64,
                        "time": 222.18679417083385,
                        "value": 0
                    },
                    {
                        "number": 64,
                        "time": 222.24114204583384,
                        "value": 1
                    },
                    {
                        "number": 64,
                        "time": 222.61251919166716,
                        "value": 0
                    },
                    {
                        "number": 64,
                        "time": 222.7366135062505,
                        "value": 1
                    },
                    {
                        "number": 64,
                        "time": 223.47846200000052,
                        "value": 0
                    },
                    {
                        "number": 64,
                        "time": 223.58715775000053,
                        "value": 1
                    },
                    {
                        "number": 64,
                        "time": 223.92592617083386,
                        "value": 0
                    },
                    {
                        "number": 64,
                        "time": 224.02194075000054,
                        "value": 1
                    },
                    {
                        "number": 64,
                        "time": 224.35074539375054,
                        "value": 0
                    },
                    {
                        "number": 64,
                        "time": 224.50835423125054,
                        "value": 1
                    },
                    {
                        "number": 64,
                        "time": 225.10889825000055,
                        "value": 0
                    },
                    {
                        "number": 64,
                        "time": 225.16324612500054,
                        "value": 1
                    },
                    {
                        "number": 64,
                        "time": 228.49114767083387,
                        "value": 0
                    },
                    {
                        "number": 64,
                        "time": 236.64966950625055,
                        "value": 1
                    },
                    {
                        "number": 64,
                        "time": 236.94405382916722,
                        "value": 0
                    },
                    {
                        "number": 64,
                        "time": 237.2384381520839,
                        "value": 1
                    },
                    {
                        "number": 64,
                        "time": 237.39151800000056,
                        "value": 0
                    },
                    {
                        "number": 64,
                        "time": 238.08264181041721,
                        "value": 1
                    },
                    {
                        "number": 64,
                        "time": 238.26108400000055,
                        "value": 0
                    },
                    {
                        "number": 64,
                        "time": 238.5237653958339,
                        "value": 1
                    },
                    {
                        "number": 64,
                        "time": 238.70220758541723,
                        "value": 0
                    },
                    {
                        "number": 64,
                        "time": 238.95492520416724,
                        "value": 1
                    },
                    {
                        "number": 64,
                        "time": 239.14514276666725,
                        "value": 0
                    },
                    {
                        "number": 64,
                        "time": 239.42503432291724,
                        "value": 1
                    },
                    {
                        "number": 64,
                        "time": 239.57630257500057,
                        "value": 0
                    },
                    {
                        "number": 64,
                        "time": 239.80184625625057,
                        "value": 1
                    },
                    {
                        "number": 64,
                        "time": 240.00383919166723,
                        "value": 0
                    },
                    {
                        "number": 64,
                        "time": 240.3009409083339,
                        "value": 1
                    },
                    {
                        "number": 64,
                        "time": 240.4449627770839,
                        "value": 0
                    },
                    {
                        "number": 64,
                        "time": 240.70402098125058,
                        "value": 1
                    },
                    {
                        "number": 64,
                        "time": 240.8724993937506,
                        "value": 0
                    },
                    {
                        "number": 64,
                        "time": 241.17684749375059,
                        "value": 1
                    },
                    {
                        "number": 64,
                        "time": 241.31634037291724,
                        "value": 0
                    },
                    {
                        "number": 64,
                        "time": 241.57358698125057,
                        "value": 1
                    },
                    {
                        "number": 64,
                        "time": 241.75112337291725,
                        "value": 0
                    },
                    {
                        "number": 64,
                        "time": 242.02467434375058,
                        "value": 1
                    },
                    {
                        "number": 64,
                        "time": 242.18500057500057,
                        "value": 0
                    },
                    {
                        "number": 64,
                        "time": 242.42775441666723,
                        "value": 1
                    },
                    {
                        "number": 64,
                        "time": 242.61525458541723,
                        "value": 0
                    },
                    {
                        "number": 64,
                        "time": 242.8987693333339,
                        "value": 1
                    },
                    {
                        "number": 64,
                        "time": 243.05547237291722,
                        "value": 0
                    },
                    {
                        "number": 64,
                        "time": 243.31815376875056,
                        "value": 1
                    },
                    {
                        "number": 64,
                        "time": 243.48210319166722,
                        "value": 0
                    },
                    {
                        "number": 64,
                        "time": 243.75384256666723,
                        "value": 1
                    },
                    {
                        "number": 64,
                        "time": 243.93228475625057,
                        "value": 0
                    },
                    {
                        "number": 64,
                        "time": 244.16326322500058,
                        "value": 1
                    },
                    {
                        "number": 64,
                        "time": 244.34804600000058,
                        "value": 0
                    },
                    {
                        "number": 64,
                        "time": 244.4757635062506,
                        "value": 1
                    },
                    {
                        "number": 64,
                        "time": 244.7873579895839,
                        "value": 0
                    },
                    {
                        "number": 64,
                        "time": 244.89152475000057,
                        "value": 1
                    },
                    {
                        "number": 64,
                        "time": 245.21761200000057,
                        "value": 0
                    },
                    {
                        "number": 64,
                        "time": 245.34532950625058,
                        "value": 1
                    },
                    {
                        "number": 64,
                        "time": 245.63971382916725,
                        "value": 0
                    },
                    {
                        "number": 64,
                        "time": 245.75475016458392,
                        "value": 1
                    },
                    {
                        "number": 64,
                        "time": 246.0871780000006,
                        "value": 0
                    },
                    {
                        "number": 64,
                        "time": 246.32359125625058,
                        "value": 1
                    },
                    {
                        "number": 64,
                        "time": 246.52920738333393,
                        "value": 0
                    },
                    {
                        "number": 64,
                        "time": 246.6632654750006,
                        "value": 1
                    },
                    {
                        "number": 64,
                        "time": 246.9567440000006,
                        "value": 0
                    },
                    {
                        "number": 64,
                        "time": 247.21942539583395,
                        "value": 1
                    },
                    {
                        "number": 64,
                        "time": 247.3978675854173,
                        "value": 0
                    },
                    {
                        "number": 64,
                        "time": 247.6505852041673,
                        "value": 1
                    },
                    {
                        "number": 64,
                        "time": 247.82631000000063,
                        "value": 0
                    },
                    {
                        "number": 64,
                        "time": 248.06272325625062,
                        "value": 1
                    },
                    {
                        "number": 64,
                        "time": 248.26833938333397,
                        "value": 0
                    },
                    {
                        "number": 64,
                        "time": 248.40239747500064,
                        "value": 1
                    },
                    {
                        "number": 64,
                        "time": 248.69587600000065,
                        "value": 0
                    },
                    {
                        "number": 64,
                        "time": 248.958557395834,
                        "value": 1
                    },
                    {
                        "number": 64,
                        "time": 249.13699958541733,
                        "value": 0
                    },
                    {
                        "number": 64,
                        "time": 249.38971720416734,
                        "value": 1
                    },
                    {
                        "number": 64,
                        "time": 249.56544200000067,
                        "value": 0
                    },
                    {
                        "number": 64,
                        "time": 249.79370307500068,
                        "value": 1
                    },
                    {
                        "number": 64,
                        "time": 250.007471383334,
                        "value": 0
                    },
                    {
                        "number": 64,
                        "time": 250.25384841666735,
                        "value": 1
                    },
                    {
                        "number": 64,
                        "time": 250.4377253937507,
                        "value": 0
                    },
                    {
                        "number": 64,
                        "time": 250.73573290833403,
                        "value": 1
                    },
                    {
                        "number": 64,
                        "time": 250.8806605750007,
                        "value": 0
                    },
                    {
                        "number": 64,
                        "time": 251.09805207500068,
                        "value": 1
                    },
                    {
                        "number": 64,
                        "time": 251.30457400000068,
                        "value": 0
                    },
                    {
                        "number": 64,
                        "time": 251.56725539583402,
                        "value": 1
                    },
                    {
                        "number": 64,
                        "time": 251.74569758541736,
                        "value": 0
                    },
                    {
                        "number": 64,
                        "time": 251.99841520416737,
                        "value": 1
                    },
                    {
                        "number": 64,
                        "time": 252.1768573937507,
                        "value": 0
                    },
                    {
                        "number": 64,
                        "time": 252.47486490833404,
                        "value": 1
                    },
                    {
                        "number": 64,
                        "time": 252.6197925750007,
                        "value": 0
                    },
                    {
                        "number": 64,
                        "time": 252.8371840750007,
                        "value": 1
                    },
                    {
                        "number": 64,
                        "time": 253.0437060000007,
                        "value": 0
                    },
                    {
                        "number": 64,
                        "time": 253.30638739583404,
                        "value": 1
                    },
                    {
                        "number": 64,
                        "time": 253.48482958541737,
                        "value": 0
                    },
                    {
                        "number": 64,
                        "time": 253.73754720416738,
                        "value": 1
                    },
                    {
                        "number": 64,
                        "time": 253.92595317083405,
                        "value": 0
                    },
                    {
                        "number": 64,
                        "time": 253.99660540833406,
                        "value": 1
                    },
                    {
                        "number": 64,
                        "time": 254.56816389375072,
                        "value": 0
                    },
                    {
                        "number": 64,
                        "time": 254.6234175666674,
                        "value": 1
                    },
                    {
                        "number": 64,
                        "time": 254.7891785854174,
                        "value": 0
                    },
                    {
                        "number": 64,
                        "time": 254.89153375000075,
                        "value": 1
                    },
                    {
                        "number": 64,
                        "time": 255.01109907500074,
                        "value": 0
                    },
                    {
                        "number": 64,
                        "time": 255.47396181041742,
                        "value": 1
                    },
                    {
                        "number": 64,
                        "time": 255.65512139375076,
                        "value": 0
                    },
                    {
                        "number": 64,
                        "time": 255.93773034375076,
                        "value": 1
                    },
                    {
                        "number": 64,
                        "time": 256.0917159895841,
                        "value": 0
                    },
                    {
                        "number": 64,
                        "time": 256.36164376875075,
                        "value": 1
                    },
                    {
                        "number": 64,
                        "time": 256.52559319166744,
                        "value": 0
                    },
                    {
                        "number": 64,
                        "time": 256.7656296395841,
                        "value": 1
                    },
                    {
                        "number": 64,
                        "time": 256.9667167770841,
                        "value": 0
                    },
                    {
                        "number": 64,
                        "time": 257.2312097687508,
                        "value": 1
                    },
                    {
                        "number": 64,
                        "time": 257.4014997770841,
                        "value": 0
                    },
                    {
                        "number": 64,
                        "time": 257.6451594166674,
                        "value": 1
                    },
                    {
                        "number": 64,
                        "time": 257.8362827770841,
                        "value": 0
                    },
                    {
                        "number": 64,
                        "time": 258.1161743333341,
                        "value": 1
                    },
                    {
                        "number": 64,
                        "time": 258.2674425854174,
                        "value": 0
                    },
                    {
                        "number": 64,
                        "time": 258.5047616395841,
                        "value": 1
                    },
                    {
                        "number": 64,
                        "time": 258.7040371812508,
                        "value": 0
                    },
                    {
                        "number": 64,
                        "time": 258.9649069812508,
                        "value": 1
                    },
                    {
                        "number": 64,
                        "time": 259.14063177708414,
                        "value": 0
                    },
                    {
                        "number": 64,
                        "time": 259.42505232291745,
                        "value": 1
                    },
                    {
                        "number": 64,
                        "time": 259.5736031812508,
                        "value": 0
                    },
                    {
                        "number": 64,
                        "time": 259.8217918104175,
                        "value": 1
                    },
                    {
                        "number": 64,
                        "time": 260.00295139375083,
                        "value": 0
                    },
                    {
                        "number": 64,
                        "time": 260.28556034375083,
                        "value": 1
                    },
                    {
                        "number": 64,
                        "time": 260.44226338333414,
                        "value": 0
                    },
                    {
                        "number": 64,
                        "time": 260.68864041666745,
                        "value": 1
                    },
                    {
                        "number": 64,
                        "time": 260.8743289895841,
                        "value": 0
                    },
                    {
                        "number": 64,
                        "time": 261.13429299166745,
                        "value": 1
                    },
                    {
                        "number": 64,
                        "time": 261.3154525750008,
                        "value": 0
                    },
                    {
                        "number": 64,
                        "time": 261.56907599166743,
                        "value": 1
                    },
                    {
                        "number": 64,
                        "time": 261.74208339375076,
                        "value": 0
                    },
                    {
                        "number": 64,
                        "time": 262.00838798125073,
                        "value": 1
                    },
                    {
                        "number": 64,
                        "time": 262.1859243729174,
                        "value": 0
                    },
                    {
                        "number": 64,
                        "time": 262.4431709812507,
                        "value": 1
                    },
                    {
                        "number": 64,
                        "time": 264.1415420750007,
                        "value": 0
                    },
                    {
                        "number": 64,
                        "time": 266.15965983333405,
                        "value": 1
                    },
                    {
                        "number": 64,
                        "time": 267.6198060750007,
                        "value": 0
                    },
                    {
                        "number": 64,
                        "time": 269.63792383333407,
                        "value": 1
                    },
                    {
                        "number": 64,
                        "time": 271.09807007500075,
                        "value": 0
                    },
                    {
                        "number": 64,
                        "time": 273.1161878333341,
                        "value": 1
                    },
                    {
                        "number": 64,
                        "time": 274.6234355666674,
                        "value": 0
                    },
                    {
                        "number": 64,
                        "time": 274.7004283895841,
                        "value": 1
                    },
                    {
                        "number": 64,
                        "time": 276.36256756666745,
                        "value": 0
                    },
                    {
                        "number": 64,
                        "time": 276.45495895416747,
                        "value": 1
                    },
                    {
                        "number": 64,
                        "time": 278.08901839583416,
                        "value": 0
                    },
                    {
                        "number": 64,
                        "time": 278.20677212500084,
                        "value": 1
                    },
                    {
                        "number": 64,
                        "time": 279.8281503958342,
                        "value": 0
                    },
                    {
                        "number": 64,
                        "time": 279.92778816666754,
                        "value": 1
                    },
                    {
                        "number": 64,
                        "time": 283.3752550375009,
                        "value": 0
                    },
                    {
                        "number": 64,
                        "time": 283.5872117500009,
                        "value": 1
                    },
                    {
                        "number": 64,
                        "time": 284.3480820000009,
                        "value": 0
                    },
                    {
                        "number": 64,
                        "time": 284.4259806208342,
                        "value": 1
                    },
                    {
                        "number": 64,
                        "time": 285.22851757500086,
                        "value": 0
                    },
                    {
                        "number": 64,
                        "time": 285.3390249208342,
                        "value": 1
                    },
                    {
                        "number": 64,
                        "time": 286.09174298958425,
                        "value": 0
                    },
                    {
                        "number": 64,
                        "time": 286.16511262083424,
                        "value": 1
                    },
                    {
                        "number": 64,
                        "time": 286.9640263833342,
                        "value": 0
                    },
                    {
                        "number": 64,
                        "time": 287.0401134083342,
                        "value": 1
                    },
                    {
                        "number": 64,
                        "time": 287.4033383729175,
                        "value": 0
                    },
                    {
                        "number": 64,
                        "time": 287.4748964083342,
                        "value": 1
                    },
                    {
                        "number": 64,
                        "time": 287.82634600000085,
                        "value": 0
                    },
                    {
                        "number": 64,
                        "time": 287.9223605791675,
                        "value": 1
                    },
                    {
                        "number": 64,
                        "time": 288.26746958541753,
                        "value": 0
                    },
                    {
                        "number": 64,
                        "time": 288.3634841645842,
                        "value": 1
                    },
                    {
                        "number": 64,
                        "time": 288.7031583833342,
                        "value": 0
                    },
                    {
                        "number": 64,
                        "time": 288.7792454083342,
                        "value": 1
                    },
                    {
                        "number": 64,
                        "time": 289.1424703729175,
                        "value": 0
                    },
                    {
                        "number": 64,
                        "time": 289.2140284083342,
                        "value": 1
                    },
                    {
                        "number": 64,
                        "time": 289.56547800000084,
                        "value": 0
                    },
                    {
                        "number": 64,
                        "time": 289.6614925791675,
                        "value": 1
                    },
                    {
                        "number": 64,
                        "time": 290.0066015854175,
                        "value": 0
                    },
                    {
                        "number": 64,
                        "time": 290.10261616458416,
                        "value": 1
                    },
                    {
                        "number": 64,
                        "time": 290.4422903833342,
                        "value": 0
                    },
                    {
                        "number": 64,
                        "time": 290.5183774083342,
                        "value": 1
                    },
                    {
                        "number": 64,
                        "time": 290.8816023729175,
                        "value": 0
                    },
                    {
                        "number": 64,
                        "time": 290.95316040833416,
                        "value": 1
                    },
                    {
                        "number": 64,
                        "time": 291.3046100000008,
                        "value": 0
                    },
                    {
                        "number": 64,
                        "time": 291.40062457916747,
                        "value": 1
                    },
                    {
                        "number": 64,
                        "time": 291.7457335854175,
                        "value": 0
                    },
                    {
                        "number": 64,
                        "time": 291.84174816458415,
                        "value": 1
                    },
                    {
                        "number": 64,
                        "time": 292.18142238333417,
                        "value": 0
                    },
                    {
                        "number": 64,
                        "time": 292.25750940833416,
                        "value": 1
                    },
                    {
                        "number": 64,
                        "time": 292.62073437291747,
                        "value": 0
                    },
                    {
                        "number": 64,
                        "time": 292.69229240833414,
                        "value": 1
                    },
                    {
                        "number": 64,
                        "time": 293.0437420000008,
                        "value": 0
                    },
                    {
                        "number": 64,
                        "time": 293.13975657916745,
                        "value": 1
                    },
                    {
                        "number": 64,
                        "time": 293.4848655854175,
                        "value": 0
                    },
                    {
                        "number": 64,
                        "time": 293.58088016458413,
                        "value": 1
                    },
                    {
                        "number": 64,
                        "time": 293.8136702291675,
                        "value": 0
                    },
                    {
                        "number": 64,
                        "time": 293.85261953958417,
                        "value": 1
                    },
                    {
                        "number": 64,
                        "time": 293.9133080000008,
                        "value": 0
                    },
                    {
                        "number": 64,
                        "time": 293.97309066250085,
                        "value": 1
                    },
                    {
                        "number": 64,
                        "time": 294.26204019791754,
                        "value": 0
                    },
                    {
                        "number": 64,
                        "time": 294.4051562687509,
                        "value": 1
                    },
                    {
                        "number": 64,
                        "time": 294.56095351041756,
                        "value": 0
                    },
                    {
                        "number": 64,
                        "time": 294.8372218750009,
                        "value": 1
                    },
                    {
                        "number": 64,
                        "time": 295.38070062500094,
                        "value": 0
                    },
                    {
                        "number": 64,
                        "time": 295.70678787500094,
                        "value": 1
                    },
                    {
                        "number": 64,
                        "time": 296.3046145000009,
                        "value": 0
                    },
                    {
                        "number": 64,
                        "time": 296.55461472500093,
                        "value": 1
                    },
                    {
                        "number": 64,
                        "time": 296.9441078291676,
                        "value": 0
                    },
                    {
                        "number": 64,
                        "time": 297.43957928958423,
                        "value": 1
                    },
                    {
                        "number": 64,
                        "time": 297.8716448958342,
                        "value": 0
                    },
                    {
                        "number": 64,
                        "time": 297.93867394166756,
                        "value": 1
                    },
                    {
                        "number": 64,
                        "time": 298.2774423625009,
                        "value": 0
                    },
                    {
                        "number": 64,
                        "time": 298.3317902375009,
                        "value": 1
                    },
                    {
                        "number": 64,
                        "time": 298.6959210000009,
                        "value": 0
                    },
                    {
                        "number": 64,
                        "time": 298.75660946041756,
                        "value": 1
                    },
                    {
                        "number": 64,
                        "time": 299.1307040000009,
                        "value": 0
                    },
                    {
                        "number": 64,
                        "time": 299.1850518750009,
                        "value": 1
                    },
                    {
                        "number": 64,
                        "time": 299.61077689583425,
                        "value": 0
                    },
                    {
                        "number": 64,
                        "time": 299.6778059416676,
                        "value": 1
                    },
                    {
                        "number": 64,
                        "time": 300.01657436250093,
                        "value": 0
                    },
                    {
                        "number": 64,
                        "time": 300.07092223750095,
                        "value": 1
                    },
                    {
                        "number": 64,
                        "time": 300.43505300000095,
                        "value": 0
                    },
                    {
                        "number": 64,
                        "time": 300.4957414604176,
                        "value": 1
                    },
                    {
                        "number": 64,
                        "time": 300.86983600000093,
                        "value": 0
                    },
                    {
                        "number": 64,
                        "time": 300.9404882375009,
                        "value": 1
                    },
                    {
                        "number": 64,
                        "time": 301.6307062500009,
                        "value": 0
                    },
                    {
                        "number": 64,
                        "time": 301.68867731666757,
                        "value": 1
                    },
                    {
                        "number": 64,
                        "time": 303.3743672395842,
                        "value": 0
                    },
                    {
                        "number": 64,
                        "time": 303.43233830625087,
                        "value": 1
                    },
                    {
                        "number": 64,
                        "time": 304.24212164375086,
                        "value": 0
                    },
                    {
                        "number": 64,
                        "time": 304.2910347312509,
                        "value": 1
                    },
                    {
                        "number": 64,
                        "time": 305.1162166333342,
                        "value": 0
                    },
                    {
                        "number": 64,
                        "time": 305.1606007312509,
                        "value": 1
                    },
                    {
                        "number": 64,
                        "time": 305.9830652395842,
                        "value": 0
                    },
                    {
                        "number": 64,
                        "time": 306.0301667312509,
                        "value": 1
                    },
                    {
                        "number": 64,
                        "time": 306.52835558541756,
                        "value": 0
                    },
                    {
                        "number": 64,
                        "time": 306.57002228958424,
                        "value": 1
                    },
                    {
                        "number": 64,
                        "time": 306.9567980000009,
                        "value": 0
                    },
                    {
                        "number": 64,
                        "time": 307.05281257916755,
                        "value": 1
                    },
                    {
                        "number": 64,
                        "time": 307.38524041458425,
                        "value": 0
                    },
                    {
                        "number": 64,
                        "time": 307.7720161250009,
                        "value": 1
                    },
                    {
                        "number": 64,
                        "time": 308.27020497916754,
                        "value": 0
                    },
                    {
                        "number": 64,
                        "time": 308.31549487500087,
                        "value": 1
                    },
                    {
                        "number": 64,
                        "time": 308.6959300000009,
                        "value": 0
                    },
                    {
                        "number": 64,
                        "time": 308.79194457916753,
                        "value": 1
                    },
                    {
                        "number": 64,
                        "time": 309.12437241458423,
                        "value": 0
                    },
                    {
                        "number": 64,
                        "time": 309.3607856708342,
                        "value": 1
                    },
                    {
                        "number": 64,
                        "time": 309.5709307875009,
                        "value": 0
                    },
                    {
                        "number": 64,
                        "time": 309.6334308437509,
                        "value": 1
                    },
                    {
                        "number": 64,
                        "time": 309.7937570750009,
                        "value": 0
                    },
                    {
                        "number": 64,
                        "time": 309.86622090833424,
                        "value": 1
                    },
                    {
                        "number": 64,
                        "time": 310.0111485750009,
                        "value": 0
                    },
                    {
                        "number": 64,
                        "time": 310.2955691208342,
                        "value": 1
                    },
                    {
                        "number": 64,
                        "time": 310.44140258541756,
                        "value": 0
                    },
                    {
                        "number": 64,
                        "time": 310.4930330666676,
                        "value": 1
                    },
                    {
                        "number": 64,
                        "time": 310.6551708937509,
                        "value": 0
                    },
                    {
                        "number": 64,
                        "time": 310.71676515208424,
                        "value": 1
                    },
                    {
                        "number": 64,
                        "time": 310.8807145750009,
                        "value": 0
                    },
                    {
                        "number": 64,
                        "time": 311.13433799166756,
                        "value": 1
                    },
                    {
                        "number": 64,
                        "time": 311.3046280000009,
                        "value": 0
                    },
                    {
                        "number": 64,
                        "time": 311.3562584812509,
                        "value": 1
                    },
                    {
                        "number": 64,
                        "time": 311.5301716812509,
                        "value": 0
                    },
                    {
                        "number": 64,
                        "time": 311.63071525000095,
                        "value": 1
                    },
                    {
                        "number": 64,
                        "time": 311.75028057500094,
                        "value": 0
                    },
                    {
                        "number": 64,
                        "time": 312.19955634166763,
                        "value": 1
                    },
                    {
                        "number": 64,
                        "time": 312.4015492770843,
                        "value": 0
                    },
                    {
                        "number": 64,
                        "time": 312.481259493751,
                        "value": 1
                    },
                    {
                        "number": 64,
                        "time": 312.619846575001,
                        "value": 0
                    },
                    {
                        "number": 64,
                        "time": 312.87346999166766,
                        "value": 1
                    },
                    {
                        "number": 64,
                        "time": 313.043760000001,
                        "value": 0
                    },
                    {
                        "number": 64,
                        "time": 313.095390481251,
                        "value": 1
                    },
                    {
                        "number": 64,
                        "time": 313.483977787501,
                        "value": 0
                    },
                    {
                        "number": 64,
                        "time": 313.58723875000095,
                        "value": 1
                    },
                    {
                        "number": 64,
                        "time": 313.91332600000095,
                        "value": 0
                    },
                    {
                        "number": 64,
                        "time": 313.99031882291763,
                        "value": 1
                    },
                    {
                        "number": 64,
                        "time": 314.138869681251,
                        "value": 0
                    },
                    {
                        "number": 64,
                        "time": 314.2267320791677,
                        "value": 1
                    },
                    {
                        "number": 64,
                        "time": 314.35263798958437,
                        "value": 0
                    },
                    {
                        "number": 64,
                        "time": 314.6126019916677,
                        "value": 1
                    },
                    {
                        "number": 64,
                        "time": 314.782892000001,
                        "value": 0
                    },
                    {
                        "number": 64,
                        "time": 314.83452248125104,
                        "value": 1
                    },
                    {
                        "number": 64,
                        "time": 315.223109787501,
                        "value": 0
                    },
                    {
                        "number": 64,
                        "time": 315.326370750001,
                        "value": 1
                    },
                    {
                        "number": 64,
                        "time": 315.652458000001,
                        "value": 0
                    },
                    {
                        "number": 64,
                        "time": 315.72945082291767,
                        "value": 1
                    },
                    {
                        "number": 64,
                        "time": 315.878001681251,
                        "value": 0
                    },
                    {
                        "number": 64,
                        "time": 315.9658640791677,
                        "value": 1
                    },
                    {
                        "number": 64,
                        "time": 316.0917699895844,
                        "value": 0
                    },
                    {
                        "number": 64,
                        "time": 316.35173399166774,
                        "value": 1
                    },
                    {
                        "number": 64,
                        "time": 316.52202400000107,
                        "value": 0
                    },
                    {
                        "number": 64,
                        "time": 316.5736544812511,
                        "value": 1
                    },
                    {
                        "number": 64,
                        "time": 316.96224178750106,
                        "value": 0
                    },
                    {
                        "number": 64,
                        "time": 317.2212999916677,
                        "value": 1
                    },
                    {
                        "number": 64,
                        "time": 317.39159000000103,
                        "value": 0
                    },
                    {
                        "number": 64,
                        "time": 317.44322048125105,
                        "value": 1
                    },
                    {
                        "number": 64,
                        "time": 317.831807787501,
                        "value": 0
                    },
                    {
                        "number": 64,
                        "time": 318.312786481251,
                        "value": 1
                    },
                    {
                        "number": 64,
                        "time": 318.706808575001,
                        "value": 0
                    },
                    {
                        "number": 64,
                        "time": 318.804634750001,
                        "value": 1
                    },
                    {
                        "number": 64,
                        "time": 319.13253359583433,
                        "value": 0
                    },
                    {
                        "number": 64,
                        "time": 319.1950336520843,
                        "value": 1
                    },
                    {
                        "number": 64,
                        "time": 319.57637457500095,
                        "value": 0
                    },
                    {
                        "number": 64,
                        "time": 319.6488384083343,
                        "value": 1
                    },
                    {
                        "number": 64,
                        "time": 320.000288000001,
                        "value": 0
                    },
                    {
                        "number": 64,
                        "time": 320.06822284375096,
                        "value": 1
                    },
                    {
                        "number": 64,
                        "time": 320.2222084895843,
                        "value": 0
                    },
                    {
                        "number": 64,
                        "time": 320.269309981251,
                        "value": 1
                    },
                    {
                        "number": 64,
                        "time": 320.44594057500103,
                        "value": 0
                    },
                    {
                        "number": 64,
                        "time": 320.5129696208344,
                        "value": 1
                    },
                    {
                        "number": 64,
                        "time": 320.65789728750104,
                        "value": 0
                    },
                    {
                        "number": 64,
                        "time": 320.70409298125105,
                        "value": 1
                    },
                    {
                        "number": 64,
                        "time": 320.86985400000106,
                        "value": 0
                    },
                    {
                        "number": 64,
                        "time": 320.93778884375104,
                        "value": 1
                    },
                    {
                        "number": 64,
                        "time": 321.0917744895844,
                        "value": 0
                    },
                    {
                        "number": 64,
                        "time": 321.1388759812511,
                        "value": 1
                    },
                    {
                        "number": 64,
                        "time": 321.3155065750011,
                        "value": 0
                    },
                    {
                        "number": 64,
                        "time": 321.38253562083446,
                        "value": 1
                    },
                    {
                        "number": 64,
                        "time": 321.5274632875011,
                        "value": 0
                    },
                    {
                        "number": 64,
                        "time": 321.5736589812511,
                        "value": 1
                    },
                    {
                        "number": 64,
                        "time": 321.73942000000113,
                        "value": 0
                    },
                    {
                        "number": 64,
                        "time": 321.8073548437511,
                        "value": 1
                    },
                    {
                        "number": 64,
                        "time": 321.9613404895845,
                        "value": 0
                    },
                    {
                        "number": 64,
                        "time": 322.00844198125117,
                        "value": 1
                    },
                    {
                        "number": 64,
                        "time": 322.1850725750012,
                        "value": 0
                    },
                    {
                        "number": 64,
                        "time": 322.25210162083454,
                        "value": 1
                    },
                    {
                        "number": 64,
                        "time": 322.3970292875012,
                        "value": 0
                    },
                    {
                        "number": 64,
                        "time": 322.4432249812512,
                        "value": 1
                    },
                    {
                        "number": 64,
                        "time": 322.6089860000012,
                        "value": 0
                    },
                    {
                        "number": 64,
                        "time": 322.6769208437512,
                        "value": 1
                    },
                    {
                        "number": 64,
                        "time": 322.83090648958455,
                        "value": 0
                    },
                    {
                        "number": 64,
                        "time": 322.87800798125124,
                        "value": 1
                    },
                    {
                        "number": 64,
                        "time": 323.05463857500126,
                        "value": 0
                    },
                    {
                        "number": 64,
                        "time": 323.1216676208346,
                        "value": 1
                    },
                    {
                        "number": 64,
                        "time": 323.2665952875013,
                        "value": 0
                    },
                    {
                        "number": 64,
                        "time": 323.3127909812513,
                        "value": 1
                    },
                    {
                        "number": 64,
                        "time": 323.4785520000013,
                        "value": 0
                    },
                    {
                        "number": 64,
                        "time": 323.54648684375127,
                        "value": 1
                    },
                    {
                        "number": 64,
                        "time": 323.7004724895846,
                        "value": 0
                    },
                    {
                        "number": 64,
                        "time": 323.7475739812513,
                        "value": 1
                    },
                    {
                        "number": 64,
                        "time": 323.92420457500134,
                        "value": 0
                    },
                    {
                        "number": 64,
                        "time": 323.9912336208347,
                        "value": 1
                    },
                    {
                        "number": 64,
                        "time": 324.13616128750135,
                        "value": 0
                    },
                    {
                        "number": 64,
                        "time": 324.18235698125136,
                        "value": 1
                    },
                    {
                        "number": 64,
                        "time": 324.34811800000136,
                        "value": 0
                    },
                    {
                        "number": 64,
                        "time": 324.41605284375134,
                        "value": 1
                    },
                    {
                        "number": 64,
                        "time": 324.5700384895847,
                        "value": 0
                    },
                    {
                        "number": 64,
                        "time": 324.6171399812514,
                        "value": 1
                    },
                    {
                        "number": 64,
                        "time": 324.7937705750014,
                        "value": 0
                    },
                    {
                        "number": 64,
                        "time": 324.86079962083477,
                        "value": 1
                    },
                    {
                        "number": 64,
                        "time": 325.00572728750143,
                        "value": 0
                    },
                    {
                        "number": 64,
                        "time": 325.05192298125144,
                        "value": 1
                    },
                    {
                        "number": 64,
                        "time": 325.21768400000144,
                        "value": 0
                    },
                    {
                        "number": 64,
                        "time": 325.2946768229181,
                        "value": 1
                    },
                    {
                        "number": 64,
                        "time": 326.1126123416681,
                        "value": 0
                    },
                    {
                        "number": 64,
                        "time": 327.0338088229181,
                        "value": 1
                    },
                    {
                        "number": 64,
                        "time": 327.8517443416681,
                        "value": 0
                    },
                    {
                        "number": 64,
                        "time": 328.7729408229181,
                        "value": 1
                    },
                    {
                        "number": 64,
                        "time": 329.5908763416681,
                        "value": 0
                    },
                    {
                        "number": 64,
                        "time": 330.51207282291807,
                        "value": 1
                    },
                    {
                        "number": 64,
                        "time": 331.3300083416681,
                        "value": 0
                    },
                    {
                        "number": 64,
                        "time": 337.5003037500014,
                        "value": 1
                    },
                    {
                        "number": 64,
                        "time": 340.6334587437514,
                        "value": 0
                    },
                    {
                        "number": 64,
                        "time": 340.77929220833477,
                        "value": 1
                    },
                    {
                        "number": 64,
                        "time": 341.7394380000014,
                        "value": 0
                    },
                    {
                        "number": 64,
                        "time": 341.8354525791681,
                        "value": 1
                    },
                    {
                        "number": 64,
                        "time": 342.14885865833475,
                        "value": 0
                    },
                    {
                        "number": 64,
                        "time": 342.6090040000014,
                        "value": 1
                    },
                    {
                        "number": 64,
                        "time": 343.04831598958475,
                        "value": 0
                    },
                    {
                        "number": 64,
                        "time": 343.11625083333473,
                        "value": 1
                    },
                    {
                        "number": 64,
                        "time": 343.4785700000014,
                        "value": 0
                    },
                    {
                        "number": 64,
                        "time": 343.5564686208347,
                        "value": 1
                    },
                    {
                        "number": 64,
                        "time": 343.9233167770847,
                        "value": 0
                    },
                    {
                        "number": 64,
                        "time": 343.9912516208347,
                        "value": 1
                    },
                    {
                        "number": 64,
                        "time": 344.3481360000014,
                        "value": 0
                    },
                    {
                        "number": 64,
                        "time": 344.4260346208347,
                        "value": 1
                    },
                    {
                        "number": 64,
                        "time": 344.7928827770847,
                        "value": 0
                    },
                    {
                        "number": 64,
                        "time": 344.86081762083467,
                        "value": 1
                    },
                    {
                        "number": 64,
                        "time": 345.21770200000134,
                        "value": 0
                    },
                    {
                        "number": 64,
                        "time": 345.29560062083465,
                        "value": 1
                    },
                    {
                        "number": 64,
                        "time": 345.66244877708465,
                        "value": 0
                    },
                    {
                        "number": 64,
                        "time": 345.73038362083463,
                        "value": 1
                    },
                    {
                        "number": 64,
                        "time": 346.0872680000013,
                        "value": 0
                    },
                    {
                        "number": 64,
                        "time": 346.1651666208346,
                        "value": 1
                    },
                    {
                        "number": 64,
                        "time": 346.5320147770846,
                        "value": 0
                    },
                    {
                        "number": 64,
                        "time": 346.5999496208346,
                        "value": 1
                    },
                    {
                        "number": 64,
                        "time": 346.95683400000127,
                        "value": 0
                    },
                    {
                        "number": 64,
                        "time": 347.0347326208346,
                        "value": 1
                    },
                    {
                        "number": 64,
                        "time": 347.4015807770846,
                        "value": 0
                    },
                    {
                        "number": 64,
                        "time": 347.46951562083456,
                        "value": 1
                    },
                    {
                        "number": 64,
                        "time": 347.82640000000123,
                        "value": 0
                    },
                    {
                        "number": 64,
                        "time": 347.90429862083454,
                        "value": 1
                    },
                    {
                        "number": 64,
                        "time": 348.27114677708454,
                        "value": 0
                    },
                    {
                        "number": 64,
                        "time": 348.3390816208345,
                        "value": 1
                    },
                    {
                        "number": 64,
                        "time": 348.6959660000012,
                        "value": 0
                    },
                    {
                        "number": 64,
                        "time": 348.7738646208345,
                        "value": 1
                    },
                    {
                        "number": 64,
                        "time": 349.1407127770845,
                        "value": 0
                    },
                    {
                        "number": 64,
                        "time": 349.2086476208345,
                        "value": 1
                    },
                    {
                        "number": 64,
                        "time": 349.60176391666784,
                        "value": 0
                    },
                    {
                        "number": 64,
                        "time": 349.8345539812512,
                        "value": 1
                    },
                    {
                        "number": 64,
                        "time": 350.00665558541783,
                        "value": 0
                    },
                    {
                        "number": 64,
                        "time": 350.2693369812512,
                        "value": 1
                    },
                    {
                        "number": 64,
                        "time": 350.4432501812512,
                        "value": 0
                    },
                    {
                        "number": 64,
                        "time": 350.71498955625117,
                        "value": 1
                    },
                    {
                        "number": 64,
                        "time": 350.8807505750012,
                        "value": 0
                    },
                    {
                        "number": 64,
                        "time": 351.1189754270845,
                        "value": 1
                    },
                    {
                        "number": 64,
                        "time": 351.30466400000114,
                        "value": 0
                    },
                    {
                        "number": 64,
                        "time": 351.38799740833446,
                        "value": 1
                    },
                    {
                        "number": 64,
                        "time": 351.75031657500114,
                        "value": 0
                    },
                    {
                        "number": 64,
                        "time": 351.82912099375113,
                        "value": 1
                    },
                    {
                        "number": 64,
                        "time": 352.1805705854178,
                        "value": 0
                    },
                    {
                        "number": 64,
                        "time": 352.2702445791678,
                        "value": 1
                    },
                    {
                        "number": 64,
                        "time": 352.6207883729178,
                        "value": 0
                    },
                    {
                        "number": 64,
                        "time": 352.7113681645844,
                        "value": 1
                    },
                    {
                        "number": 64,
                        "time": 353.04651339375107,
                        "value": 0
                    },
                    {
                        "number": 64,
                        "time": 353.1271294083344,
                        "value": 1
                    },
                    {
                        "number": 64,
                        "time": 353.48944857500106,
                        "value": 0
                    },
                    {
                        "number": 64,
                        "time": 353.57459357916775,
                        "value": 1
                    },
                    {
                        "number": 64,
                        "time": 353.9160793937511,
                        "value": 0
                    },
                    {
                        "number": 64,
                        "time": 354.00937657916774,
                        "value": 1
                    },
                    {
                        "number": 64,
                        "time": 354.3608261708344,
                        "value": 0
                    },
                    {
                        "number": 64,
                        "time": 354.4505001645844,
                        "value": 1
                    },
                    {
                        "number": 64,
                        "time": 354.7829280000011,
                        "value": 0
                    },
                    {
                        "number": 64,
                        "time": 354.8662614083344,
                        "value": 1
                    },
                    {
                        "number": 64,
                        "time": 355.2285805750011,
                        "value": 0
                    },
                    {
                        "number": 64,
                        "time": 355.3073849937511,
                        "value": 1
                    },
                    {
                        "number": 64,
                        "time": 355.65883458541776,
                        "value": 0
                    },
                    {
                        "number": 64,
                        "time": 355.7485085791678,
                        "value": 1
                    },
                    {
                        "number": 64,
                        "time": 356.09905237291775,
                        "value": 0
                    },
                    {
                        "number": 64,
                        "time": 356.1896321645844,
                        "value": 1
                    },
                    {
                        "number": 64,
                        "time": 356.52477739375104,
                        "value": 0
                    },
                    {
                        "number": 64,
                        "time": 356.60539340833435,
                        "value": 1
                    },
                    {
                        "number": 64,
                        "time": 356.96771257500103,
                        "value": 0
                    },
                    {
                        "number": 64,
                        "time": 357.0528575791677,
                        "value": 1
                    },
                    {
                        "number": 64,
                        "time": 357.39434339375106,
                        "value": 0
                    },
                    {
                        "number": 64,
                        "time": 357.4876405791677,
                        "value": 1
                    },
                    {
                        "number": 64,
                        "time": 357.83909017083437,
                        "value": 0
                    },
                    {
                        "number": 64,
                        "time": 357.9287641645844,
                        "value": 1
                    },
                    {
                        "number": 64,
                        "time": 358.263909393751,
                        "value": 0
                    },
                    {
                        "number": 64,
                        "time": 358.36354716458436,
                        "value": 1
                    },
                    {
                        "number": 64,
                        "time": 358.7086561708344,
                        "value": 0
                    },
                    {
                        "number": 64,
                        "time": 358.7983301645844,
                        "value": 1
                    },
                    {
                        "number": 64,
                        "time": 359.13347539375104,
                        "value": 0
                    },
                    {
                        "number": 64,
                        "time": 359.2331131645844,
                        "value": 1
                    },
                    {
                        "number": 64,
                        "time": 359.5782221708344,
                        "value": 0
                    },
                    {
                        "number": 64,
                        "time": 359.6678961645844,
                        "value": 1
                    },
                    {
                        "number": 64,
                        "time": 360.00304139375106,
                        "value": 0
                    },
                    {
                        "number": 64,
                        "time": 360.1026791645844,
                        "value": 1
                    },
                    {
                        "number": 64,
                        "time": 360.44778817083443,
                        "value": 0
                    },
                    {
                        "number": 64,
                        "time": 360.53746216458444,
                        "value": 1
                    },
                    {
                        "number": 64,
                        "time": 360.8726073937511,
                        "value": 0
                    },
                    {
                        "number": 64,
                        "time": 360.9722451645844,
                        "value": 1
                    },
                    {
                        "number": 64,
                        "time": 361.31735417083445,
                        "value": 0
                    },
                    {
                        "number": 64,
                        "time": 361.40702816458446,
                        "value": 1
                    },
                    {
                        "number": 64,
                        "time": 361.7421733937511,
                        "value": 0
                    },
                    {
                        "number": 64,
                        "time": 361.84181116458444,
                        "value": 1
                    },
                    {
                        "number": 64,
                        "time": 362.18692017083447,
                        "value": 0
                    },
                    {
                        "number": 64,
                        "time": 362.2765941645845,
                        "value": 1
                    },
                    {
                        "number": 64,
                        "time": 362.6117393937511,
                        "value": 0
                    },
                    {
                        "number": 64,
                        "time": 362.71137716458446,
                        "value": 1
                    },
                    {
                        "number": 64,
                        "time": 363.0564861708345,
                        "value": 0
                    },
                    {
                        "number": 64,
                        "time": 363.1461601645845,
                        "value": 1
                    },
                    {
                        "number": 64,
                        "time": 363.48130539375114,
                        "value": 0
                    },
                    {
                        "number": 64,
                        "time": 363.5809431645845,
                        "value": 1
                    },
                    {
                        "number": 64,
                        "time": 363.9260521708345,
                        "value": 0
                    },
                    {
                        "number": 64,
                        "time": 364.0157261645845,
                        "value": 1
                    },
                    {
                        "number": 64,
                        "time": 364.35087139375116,
                        "value": 0
                    },
                    {
                        "number": 64,
                        "time": 364.4505091645845,
                        "value": 1
                    },
                    {
                        "number": 64,
                        "time": 364.79561817083453,
                        "value": 0
                    },
                    {
                        "number": 64,
                        "time": 364.88529216458454,
                        "value": 1
                    },
                    {
                        "number": 64,
                        "time": 365.21772000000124,
                        "value": 0
                    },
                    {
                        "number": 64,
                        "time": 365.4541332562512,
                        "value": 1
                    },
                    {
                        "number": 64,
                        "time": 365.6778653416679,
                        "value": 0
                    },
                    {
                        "number": 64,
                        "time": 365.8762350854179,
                        "value": 1
                    },
                    {
                        "number": 64,
                        "time": 366.0872860000012,
                        "value": 0
                    },
                    {
                        "number": 64,
                        "time": 366.74580108541784,
                        "value": 1
                    },
                    {
                        "number": 64,
                        "time": 366.95685200000116,
                        "value": 0
                    },
                    {
                        "number": 64,
                        "time": 367.0528665791678,
                        "value": 1
                    },
                    {
                        "number": 64,
                        "time": 367.18511307500114,
                        "value": 0
                    },
                    {
                        "number": 64,
                        "time": 367.2575769083345,
                        "value": 1
                    },
                    {
                        "number": 64,
                        "time": 367.39797558541784,
                        "value": 0
                    },
                    {
                        "number": 64,
                        "time": 367.4749684083345,
                        "value": 1
                    },
                    {
                        "number": 64,
                        "time": 367.61536708541786,
                        "value": 0
                    },
                    {
                        "number": 64,
                        "time": 367.70504107916787,
                        "value": 1
                    },
                    {
                        "number": 64,
                        "time": 367.8264180000012,
                        "value": 0
                    },
                    {
                        "number": 64,
                        "time": 367.8708020979179,
                        "value": 1
                    },
                    {
                        "number": 64,
                        "time": 368.0546790750012,
                        "value": 0
                    },
                    {
                        "number": 64,
                        "time": 368.0827588104179,
                        "value": 1
                    },
                    {
                        "number": 64,
                        "time": 368.27207057500124,
                        "value": 0
                    },
                    {
                        "number": 64,
                        "time": 368.3110198854179,
                        "value": 1
                    },
                    {
                        "number": 64,
                        "time": 368.4912736708346,
                        "value": 0
                    },
                    {
                        "number": 64,
                        "time": 368.5410925562512,
                        "value": 1
                    },
                    {
                        "number": 64,
                        "time": 368.7023245854179,
                        "value": 0
                    },
                    {
                        "number": 64,
                        "time": 368.7793174083346,
                        "value": 1
                    },
                    {
                        "number": 64,
                        "time": 368.92333927708455,
                        "value": 0
                    },
                    {
                        "number": 64,
                        "time": 368.99670890833454,
                        "value": 1
                    },
                    {
                        "number": 64,
                        "time": 369.1362017875012,
                        "value": 0
                    },
                    {
                        "number": 64,
                        "time": 369.35449908541784,
                        "value": 1
                    },
                    {
                        "number": 64,
                        "time": 369.56555000000117,
                        "value": 0
                    },
                    {
                        "number": 64,
                        "time": 369.8472531520845,
                        "value": 1
                    },
                    {
                        "number": 64,
                        "time": 370.0121083729178,
                        "value": 0
                    },
                    {
                        "number": 64,
                        "time": 370.2630143958345,
                        "value": 1
                    },
                    {
                        "number": 64,
                        "time": 370.43511600000113,
                        "value": 0
                    },
                    {
                        "number": 64,
                        "time": 370.5438117500011,
                        "value": 1
                    },
                    {
                        "number": 64,
                        "time": 370.6633770750011,
                        "value": 0
                    },
                    {
                        "number": 64,
                        "time": 370.7421814937511,
                        "value": 1
                    },
                    {
                        "number": 64,
                        "time": 370.87986277708444,
                        "value": 0
                    },
                    {
                        "number": 64,
                        "time": 370.93421065208446,
                        "value": 1
                    },
                    {
                        "number": 64,
                        "time": 371.09453688333446,
                        "value": 0
                    },
                    {
                        "number": 64,
                        "time": 371.1516021520845,
                        "value": 1
                    },
                    {
                        "number": 64,
                        "time": 371.30921098958447,
                        "value": 0
                    },
                    {
                        "number": 64,
                        "time": 371.37714583333445,
                        "value": 1
                    },
                    {
                        "number": 64,
                        "time": 371.52660248958443,
                        "value": 0
                    },
                    {
                        "number": 64,
                        "time": 371.5845735562511,
                        "value": 1
                    },
                    {
                        "number": 64,
                        "time": 371.7421823937511,
                        "value": 0
                    },
                    {
                        "number": 64,
                        "time": 371.8327621854177,
                        "value": 1
                    },
                    {
                        "number": 64,
                        "time": 371.96772607500105,
                        "value": 0
                    },
                    {
                        "number": 64,
                        "time": 372.1787769895844,
                        "value": 0
                    },
                    {
                        "number": 64,
                        "time": 372.24671183333436,
                        "value": 1
                    },
                    {
                        "number": 64,
                        "time": 372.39616848958434,
                        "value": 0
                    },
                    {
                        "number": 64,
                        "time": 372.454139556251,
                        "value": 1
                    },
                    {
                        "number": 64,
                        "time": 372.611748393751,
                        "value": 0
                    },
                    {
                        "number": 64,
                        "time": 372.7023281854176,
                        "value": 1
                    },
                    {
                        "number": 64,
                        "time": 372.83729207500096,
                        "value": 0
                    },
                    {
                        "number": 64,
                        "time": 373.04743719166765,
                        "value": 0
                    },
                    {
                        "number": 64,
                        "time": 373.1162778333343,
                        "value": 1
                    },
                    {
                        "number": 64,
                        "time": 373.2657344895843,
                        "value": 0
                    },
                    {
                        "number": 64,
                        "time": 373.32370555625096,
                        "value": 1
                    },
                    {
                        "number": 64,
                        "time": 373.48131439375095,
                        "value": 0
                    },
                    {
                        "number": 64,
                        "time": 373.5718941854176,
                        "value": 1
                    },
                    {
                        "number": 64,
                        "time": 373.7068580750009,
                        "value": 0
                    },
                    {
                        "number": 64,
                        "time": 373.91609739375093,
                        "value": 0
                    },
                    {
                        "number": 64,
                        "time": 373.9858438333343,
                        "value": 1
                    },
                    {
                        "number": 64,
                        "time": 374.13530048958427,
                        "value": 0
                    },
                    {
                        "number": 64,
                        "time": 374.1932715562509,
                        "value": 1
                    },
                    {
                        "number": 64,
                        "time": 374.3508803937509,
                        "value": 0
                    },
                    {
                        "number": 64,
                        "time": 374.44146018541755,
                        "value": 1
                    },
                    {
                        "number": 64,
                        "time": 374.5764240750009,
                        "value": 0
                    },
                    {
                        "number": 64,
                        "time": 374.7829460000009,
                        "value": 1
                    },
                    {
                        "number": 64,
                        "time": 375.0003375000009,
                        "value": 0
                    },
                    {
                        "number": 64,
                        "time": 375.0628375562509,
                        "value": 1
                    },
                    {
                        "number": 64,
                        "time": 375.2276927770842,
                        "value": 0
                    },
                    {
                        "number": 64,
                        "time": 375.28566384375085,
                        "value": 1
                    },
                    {
                        "number": 64,
                        "time": 375.4396494895842,
                        "value": 0
                    },
                    {
                        "number": 64,
                        "time": 375.4867509812509,
                        "value": 1
                    },
                    {
                        "number": 64,
                        "time": 375.6579467875009,
                        "value": 0
                    },
                    {
                        "number": 64,
                        "time": 375.7304106208343,
                        "value": 1
                    },
                    {
                        "number": 64,
                        "time": 376.0963529791676,
                        "value": 0
                    },
                    {
                        "number": 64,
                        "time": 376.1860269729176,
                        "value": 1
                    },
                    {
                        "number": 64,
                        "time": 376.52660698958425,
                        "value": 0
                    },
                    {
                        "number": 64,
                        "time": 376.60541140833425,
                        "value": 1
                    },
                    {
                        "number": 64,
                        "time": 376.9677305750009,
                        "value": 0
                    },
                    {
                        "number": 64,
                        "time": 377.0501581854176,
                        "value": 1
                    },
                    {
                        "number": 64,
                        "time": 377.18512207500095,
                        "value": 0
                    },
                    {
                        "number": 64,
                        "time": 377.23675255625096,
                        "value": 1
                    },
                    {
                        "number": 64,
                        "time": 377.39707878750096,
                        "value": 0
                    },
                    {
                        "number": 64,
                        "time": 377.4695426208343,
                        "value": 1
                    },
                    {
                        "number": 64,
                        "time": 377.83548497916763,
                        "value": 0
                    },
                    {
                        "number": 64,
                        "time": 377.92515897291764,
                        "value": 1
                    },
                    {
                        "number": 64,
                        "time": 378.2657389895843,
                        "value": 0
                    },
                    {
                        "number": 64,
                        "time": 378.3445434083343,
                        "value": 1
                    },
                    {
                        "number": 64,
                        "time": 378.70686257500097,
                        "value": 0
                    },
                    {
                        "number": 64,
                        "time": 378.78929018541766,
                        "value": 1
                    },
                    {
                        "number": 64,
                        "time": 378.924254075001,
                        "value": 0
                    },
                    {
                        "number": 64,
                        "time": 378.975884556251,
                        "value": 1
                    },
                    {
                        "number": 64,
                        "time": 379.130776000001,
                        "value": 0
                    },
                    {
                        "number": 64,
                        "time": 379.2141094083343,
                        "value": 1
                    },
                    {
                        "number": 64,
                        "time": 379.5755227770843,
                        "value": 0
                    },
                    {
                        "number": 64,
                        "time": 379.6380228333343,
                        "value": 1
                    },
                    {
                        "number": 64,
                        "time": 380.00034200000096,
                        "value": 0
                    },
                    {
                        "number": 64,
                        "time": 380.0936391854176,
                        "value": 1
                    },
                    {
                        "number": 64,
                        "time": 380.4469003729176,
                        "value": 0
                    },
                    {
                        "number": 64,
                        "time": 380.4976250562509,
                        "value": 1
                    },
                    {
                        "number": 64,
                        "time": 380.6597628833342,
                        "value": 0
                    },
                    {
                        "number": 64,
                        "time": 380.7204513437509,
                        "value": 1
                    },
                    {
                        "number": 64,
                        "time": 380.87534278750087,
                        "value": 0
                    },
                    {
                        "number": 64,
                        "time": 380.9478066208342,
                        "value": 1
                    },
                    {
                        "number": 64,
                        "time": 381.31374897916754,
                        "value": 0
                    },
                    {
                        "number": 64,
                        "time": 381.40342297291755,
                        "value": 1
                    },
                    {
                        "number": 64,
                        "time": 381.7440029895842,
                        "value": 0
                    },
                    {
                        "number": 64,
                        "time": 381.8228074083342,
                        "value": 1
                    },
                    {
                        "number": 64,
                        "time": 382.1851265750009,
                        "value": 0
                    },
                    {
                        "number": 64,
                        "time": 382.26755418541757,
                        "value": 1
                    },
                    {
                        "number": 64,
                        "time": 382.4025180750009,
                        "value": 0
                    },
                    {
                        "number": 64,
                        "time": 382.4541485562509,
                        "value": 1
                    },
                    {
                        "number": 64,
                        "time": 382.6144747875009,
                        "value": 0
                    },
                    {
                        "number": 64,
                        "time": 382.68693862083427,
                        "value": 1
                    },
                    {
                        "number": 64,
                        "time": 383.0528809791676,
                        "value": 0
                    },
                    {
                        "number": 64,
                        "time": 383.1425549729176,
                        "value": 1
                    },
                    {
                        "number": 64,
                        "time": 383.48313498958424,
                        "value": 0
                    },
                    {
                        "number": 64,
                        "time": 383.56193940833424,
                        "value": 1
                    },
                    {
                        "number": 64,
                        "time": 383.9242585750009,
                        "value": 0
                    },
                    {
                        "number": 64,
                        "time": 384.0066861854176,
                        "value": 1
                    },
                    {
                        "number": 64,
                        "time": 384.14165007500094,
                        "value": 0
                    },
                    {
                        "number": 64,
                        "time": 384.19328055625095,
                        "value": 1
                    },
                    {
                        "number": 64,
                        "time": 384.34817200000094,
                        "value": 0
                    },
                    {
                        "number": 64,
                        "time": 384.43150540833426,
                        "value": 1
                    },
                    {
                        "number": 64,
                        "time": 384.79291877708425,
                        "value": 0
                    },
                    {
                        "number": 64,
                        "time": 384.8554188333342,
                        "value": 1
                    },
                    {
                        "number": 64,
                        "time": 385.2177380000009,
                        "value": 0
                    },
                    {
                        "number": 64,
                        "time": 385.31103518541755,
                        "value": 1
                    },
                    {
                        "number": 64,
                        "time": 385.66429637291753,
                        "value": 0
                    },
                    {
                        "number": 64,
                        "time": 385.71502105625086,
                        "value": 1
                    },
                    {
                        "number": 64,
                        "time": 385.8771588833342,
                        "value": 0
                    },
                    {
                        "number": 64,
                        "time": 385.93784734375083,
                        "value": 1
                    },
                    {
                        "number": 64,
                        "time": 386.0873040000008,
                        "value": 0
                    },
                    {
                        "number": 64,
                        "time": 386.17063740833413,
                        "value": 1
                    },
                    {
                        "number": 64,
                        "time": 386.5320507770841,
                        "value": 0
                    },
                    {
                        "number": 64,
                        "time": 386.5945508333341,
                        "value": 1
                    },
                    {
                        "number": 64,
                        "time": 386.9568700000008,
                        "value": 0
                    },
                    {
                        "number": 64,
                        "time": 387.0501671854174,
                        "value": 1
                    },
                    {
                        "number": 64,
                        "time": 387.4034283729174,
                        "value": 0
                    },
                    {
                        "number": 64,
                        "time": 387.45415305625073,
                        "value": 1
                    },
                    {
                        "number": 64,
                        "time": 387.61629088333405,
                        "value": 0
                    },
                    {
                        "number": 64,
                        "time": 387.6769793437507,
                        "value": 1
                    },
                    {
                        "number": 64,
                        "time": 387.8264360000007,
                        "value": 0
                    },
                    {
                        "number": 64,
                        "time": 387.909769408334,
                        "value": 1
                    },
                    {
                        "number": 64,
                        "time": 388.271182777084,
                        "value": 0
                    },
                    {
                        "number": 64,
                        "time": 388.33368283333397,
                        "value": 1
                    },
                    {
                        "number": 64,
                        "time": 388.69600200000065,
                        "value": 0
                    },
                    {
                        "number": 64,
                        "time": 388.7892991854173,
                        "value": 1
                    },
                    {
                        "number": 64,
                        "time": 389.1425603729173,
                        "value": 0
                    },
                    {
                        "number": 64,
                        "time": 389.1932850562506,
                        "value": 1
                    },
                    {
                        "number": 64,
                        "time": 389.5845897562506,
                        "value": 0
                    },
                    {
                        "number": 64,
                        "time": 389.8400247687506,
                        "value": 1
                    },
                    {
                        "number": 64,
                        "time": 390.0474524916673,
                        "value": 0
                    },
                    {
                        "number": 64,
                        "time": 390.28477154583396,
                        "value": 1
                    },
                    {
                        "number": 64,
                        "time": 390.43513400000063,
                        "value": 0
                    },
                    {
                        "number": 64,
                        "time": 391.14437376875065,
                        "value": 1
                    },
                    {
                        "number": 64,
                        "time": 391.30470000000065,
                        "value": 0
                    },
                    {
                        "number": 64,
                        "time": 391.57915676875064,
                        "value": 1
                    },
                    {
                        "number": 64,
                        "time": 391.7865844916673,
                        "value": 0
                    },
                    {
                        "number": 64,
                        "time": 392.023903545834,
                        "value": 1
                    },
                    {
                        "number": 64,
                        "time": 392.17426600000067,
                        "value": 0
                    },
                    {
                        "number": 64,
                        "time": 393.95234731041734,
                        "value": 1
                    },
                    {
                        "number": 64,
                        "time": 394.135318489584,
                        "value": 0
                    },
                    {
                        "number": 64,
                        "time": 394.195101152084,
                        "value": 1
                    },
                    {
                        "number": 64,
                        "time": 394.35452158541733,
                        "value": 0
                    },
                    {
                        "number": 64,
                        "time": 394.44419557916734,
                        "value": 1
                    },
                    {
                        "number": 64,
                        "time": 394.7829640000007,
                        "value": 0
                    },
                    {
                        "number": 64,
                        "time": 394.885319164584,
                        "value": 1
                    },
                    {
                        "number": 64,
                        "time": 395.22408758541735,
                        "value": 0
                    },
                    {
                        "number": 64,
                        "time": 395.30742099375067,
                        "value": 1
                    },
                    {
                        "number": 64,
                        "time": 395.6525300000007,
                        "value": 0
                    },
                    {
                        "number": 64,
                        "time": 395.72499383333405,
                        "value": 1
                    },
                    {
                        "number": 64,
                        "time": 396.09727677708406,
                        "value": 0
                    },
                    {
                        "number": 64,
                        "time": 396.1552478437507,
                        "value": 1
                    },
                    {
                        "number": 64,
                        "time": 396.52934238333404,
                        "value": 0
                    },
                    {
                        "number": 64,
                        "time": 396.56376270416735,
                        "value": 1
                    },
                    {
                        "number": 64,
                        "time": 396.96774857500066,
                        "value": 0
                    },
                    {
                        "number": 64,
                        "time": 397.023908045834,
                        "value": 1
                    },
                    {
                        "number": 64,
                        "time": 397.1851400750007,
                        "value": 0
                    },
                    {
                        "number": 64,
                        "time": 397.2286183750007,
                        "value": 1
                    },
                    {
                        "number": 64,
                        "time": 397.3916620000007,
                        "value": 0
                    },
                    {
                        "number": 64,
                        "time": 397.50035775000066,
                        "value": 1
                    },
                    {
                        "number": 64,
                        "time": 398.26122800000064,
                        "value": 0
                    },
                    {
                        "number": 64,
                        "time": 398.33912662083395,
                        "value": 1
                    },
                    {
                        "number": 64,
                        "time": 398.70235158541726,
                        "value": 0
                    },
                    {
                        "number": 64,
                        "time": 398.78387339791726,
                        "value": 1
                    },
                    {
                        "number": 64,
                        "time": 399.1416635750006,
                        "value": 0
                    },
                    {
                        "number": 64,
                        "time": 399.252170920834,
                        "value": 1
                    },
                    {
                        "number": 64,
                        "time": 399.56648279791733,
                        "value": 0
                    },
                    {
                        "number": 64,
                        "time": 399.6425698229173,
                        "value": 1
                    },
                    {
                        "number": 64,
                        "time": 400.004888989584,
                        "value": 0
                    },
                    {
                        "number": 64,
                        "time": 400.078258620834,
                        "value": 1
                    },
                    {
                        "number": 64,
                        "time": 400.4414835854173,
                        "value": 0
                    },
                    {
                        "number": 64,
                        "time": 400.518476408334,
                        "value": 1
                    },
                    {
                        "number": 64,
                        "time": 400.87717238333397,
                        "value": 0
                    },
                    {
                        "number": 64,
                        "time": 400.95325940833396,
                        "value": 1
                    },
                    {
                        "number": 64,
                        "time": 401.3164843729173,
                        "value": 0
                    },
                    {
                        "number": 64,
                        "time": 401.38804240833394,
                        "value": 1
                    },
                    {
                        "number": 64,
                        "time": 401.7394920000006,
                        "value": 0
                    },
                    {
                        "number": 64,
                        "time": 401.83550657916726,
                        "value": 1
                    },
                    {
                        "number": 64,
                        "time": 402.1806155854173,
                        "value": 0
                    },
                    {
                        "number": 64,
                        "time": 402.27663016458393,
                        "value": 1
                    },
                    {
                        "number": 64,
                        "time": 402.60905800000063,
                        "value": 0
                    },
                    {
                        "number": 64,
                        "time": 402.673369652084,
                        "value": 1
                    },
                    {
                        "number": 64,
                        "time": 403.4949283625006,
                        "value": 0
                    },
                    {
                        "number": 64,
                        "time": 403.526631289584,
                        "value": 1
                    },
                    {
                        "number": 64,
                        "time": 404.3509073937506,
                        "value": 0
                    },
                    {
                        "number": 64,
                        "time": 404.39982048125063,
                        "value": 1
                    },
                    {
                        "number": 64,
                        "time": 405.23406036250066,
                        "value": 0
                    },
                    {
                        "number": 64,
                        "time": 405.2594227041673,
                        "value": 1
                    },
                    {
                        "number": 64,
                        "time": 406.08732200000065,
                        "value": 0
                    },
                    {
                        "number": 64,
                        "time": 406.1452930666673,
                        "value": 1
                    },
                    {
                        "number": 64,
                        "time": 406.3110540854173,
                        "value": 0
                    },
                    {
                        "number": 64,
                        "time": 406.35906137500064,
                        "value": 1
                    },
                    {
                        "number": 64,
                        "time": 406.9568880000006,
                        "value": 0
                    },
                    {
                        "number": 64,
                        "time": 407.01485906666727,
                        "value": 1
                    },
                    {
                        "number": 64,
                        "time": 407.3952941916673,
                        "value": 0
                    },
                    {
                        "number": 64,
                        "time": 407.439678289584,
                        "value": 1
                    },
                    {
                        "number": 64,
                        "time": 407.83279458541733,
                        "value": 0
                    },
                    {
                        "number": 64,
                        "time": 407.91975118541734,
                        "value": 1
                    },
                    {
                        "number": 64,
                        "time": 408.48406328750065,
                        "value": 0
                    },
                    {
                        "number": 64,
                        "time": 408.56196190833396,
                        "value": 1
                    },
                    {
                        "number": 64,
                        "time": 408.63895473125064,
                        "value": 0
                    },
                    {
                        "number": 64,
                        "time": 408.69602000000066,
                        "value": 1
                    },
                    {
                        "number": 64,
                        "time": 408.820114314584,
                        "value": 0
                    },
                    {
                        "number": 64,
                        "time": 408.97047676875064,
                        "value": 1
                    },
                    {
                        "number": 64,
                        "time": 409.05833916666734,
                        "value": 0
                    },
                    {
                        "number": 64,
                        "time": 409.18786826875066,
                        "value": 1
                    },
                    {
                        "number": 64,
                        "time": 409.30199880625065,
                        "value": 0
                    },
                    {
                        "number": 64,
                        "time": 409.41612934375064,
                        "value": 1
                    },
                    {
                        "number": 64,
                        "time": 409.4931221666673,
                        "value": 0
                    },
                    {
                        "number": 64,
                        "time": 409.5655860000007,
                        "value": 1
                    },
                    {
                        "number": 64,
                        "time": 409.695115102084,
                        "value": 0
                    },
                    {
                        "number": 64,
                        "time": 409.8192094166673,
                        "value": 1
                    },
                    {
                        "number": 64,
                        "time": 409.917941389584,
                        "value": 0
                    },
                    {
                        "number": 64,
                        "time": 410.0474704916673,
                        "value": 1
                    },
                    {
                        "number": 64,
                        "time": 410.15073145416727,
                        "value": 0
                    },
                    {
                        "number": 64,
                        "time": 410.2693909812506,
                        "value": 1
                    },
                    {
                        "number": 64,
                        "time": 410.3527243895839,
                        "value": 0
                    },
                    {
                        "number": 64,
                        "time": 410.4351520000006,
                        "value": 1
                    },
                    {
                        "number": 64,
                        "time": 410.5646811020839,
                        "value": 0
                    },
                    {
                        "number": 64,
                        "time": 410.6887754166672,
                        "value": 1
                    },
                    {
                        "number": 64,
                        "time": 410.7929421770839,
                        "value": 0
                    },
                    {
                        "number": 64,
                        "time": 410.9215654812506,
                        "value": 1
                    },
                    {
                        "number": 64,
                        "time": 411.0148626666672,
                        "value": 0
                    },
                    {
                        "number": 64,
                        "time": 411.14982655625056,
                        "value": 1
                    },
                    {
                        "number": 64,
                        "time": 411.22772517708387,
                        "value": 0
                    },
                    {
                        "number": 64,
                        "time": 411.35000789583387,
                        "value": 1
                    },
                    {
                        "number": 64,
                        "time": 411.9695736708339,
                        "value": 0
                    },
                    {
                        "number": 64,
                        "time": 412.07826942083386,
                        "value": 1
                    },
                    {
                        "number": 64,
                        "time": 412.1742840000005,
                        "value": 0
                    },
                    {
                        "number": 64,
                        "time": 412.27029857916716,
                        "value": 1
                    },
                    {
                        "number": 64,
                        "time": 412.83279908541715,
                        "value": 0
                    },
                    {
                        "number": 64,
                        "time": 412.91613249375047,
                        "value": 1
                    },
                    {
                        "number": 64,
                        "time": 413.06830654375045,
                        "value": 0
                    },
                    {
                        "number": 64,
                        "time": 413.1715675062504,
                        "value": 1
                    },
                    {
                        "number": 64,
                        "time": 413.4867851812504,
                        "value": 0
                    },
                    {
                        "number": 64,
                        "time": 413.5492852375004,
                        "value": 1
                    },
                    {
                        "number": 64,
                        "time": 413.9134160000004,
                        "value": 0
                    },
                    {
                        "number": 64,
                        "time": 413.99040882291706,
                        "value": 1
                    },
                    {
                        "number": 64,
                        "time": 414.3563511812504,
                        "value": 0
                    },
                    {
                        "number": 64,
                        "time": 414.4568947500004,
                        "value": 1
                    },
                    {
                        "number": 64,
                        "time": 414.7829820000004,
                        "value": 0
                    },
                    {
                        "number": 64,
                        "time": 414.8599748229171,
                        "value": 1
                    },
                    {
                        "number": 64,
                        "time": 415.2259171812504,
                        "value": 0
                    },
                    {
                        "number": 64,
                        "time": 415.3264607500004,
                        "value": 1
                    },
                    {
                        "number": 64,
                        "time": 415.6525480000004,
                        "value": 0
                    },
                    {
                        "number": 64,
                        "time": 415.7295408229171,
                        "value": 1
                    },
                    {
                        "number": 64,
                        "time": 416.0954831812504,
                        "value": 0
                    },
                    {
                        "number": 64,
                        "time": 416.19602675000044,
                        "value": 1
                    },
                    {
                        "number": 64,
                        "time": 416.52211400000044,
                        "value": 0
                    },
                    {
                        "number": 64,
                        "time": 416.5991068229171,
                        "value": 1
                    },
                    {
                        "number": 64,
                        "time": 416.96504918125044,
                        "value": 0
                    },
                    {
                        "number": 64,
                        "time": 417.06559275000046,
                        "value": 1
                    },
                    {
                        "number": 64,
                        "time": 417.39168000000046,
                        "value": 0
                    },
                    {
                        "number": 64,
                        "time": 417.46867282291714,
                        "value": 1
                    },
                    {
                        "number": 64,
                        "time": 417.83461518125046,
                        "value": 0
                    },
                    {
                        "number": 64,
                        "time": 417.9351587500005,
                        "value": 1
                    },
                    {
                        "number": 64,
                        "time": 418.2612460000005,
                        "value": 0
                    },
                    {
                        "number": 64,
                        "time": 418.33823882291716,
                        "value": 1
                    },
                    {
                        "number": 64,
                        "time": 418.7041811812505,
                        "value": 0
                    },
                    {
                        "number": 64,
                        "time": 418.8047247500005,
                        "value": 1
                    },
                    {
                        "number": 64,
                        "time": 419.1308120000005,
                        "value": 0
                    },
                    {
                        "number": 64,
                        "time": 419.2078048229172,
                        "value": 1
                    },
                    {
                        "number": 64,
                        "time": 419.5737471812505,
                        "value": 0
                    },
                    {
                        "number": 64,
                        "time": 419.6742907500005,
                        "value": 1
                    },
                    {
                        "number": 64,
                        "time": 420.0003780000005,
                        "value": 0
                    },
                    {
                        "number": 64,
                        "time": 420.0773708229172,
                        "value": 1
                    },
                    {
                        "number": 64,
                        "time": 420.4433131812505,
                        "value": 0
                    },
                    {
                        "number": 64,
                        "time": 420.54385675000054,
                        "value": 1
                    },
                    {
                        "number": 64,
                        "time": 420.86994400000054,
                        "value": 0
                    },
                    {
                        "number": 64,
                        "time": 420.9469368229172,
                        "value": 1
                    },
                    {
                        "number": 64,
                        "time": 421.31287918125054,
                        "value": 0
                    },
                    {
                        "number": 64,
                        "time": 421.41342275000056,
                        "value": 1
                    },
                    {
                        "number": 64,
                        "time": 421.73951000000056,
                        "value": 0
                    },
                    {
                        "number": 64,
                        "time": 421.81650282291724,
                        "value": 1
                    },
                    {
                        "number": 64,
                        "time": 422.18244518125056,
                        "value": 0
                    },
                    {
                        "number": 64,
                        "time": 422.2829887500006,
                        "value": 1
                    },
                    {
                        "number": 64,
                        "time": 422.6090760000006,
                        "value": 0
                    },
                    {
                        "number": 64,
                        "time": 422.68606882291726,
                        "value": 1
                    },
                    {
                        "number": 64,
                        "time": 423.0520111812506,
                        "value": 0
                    },
                    {
                        "number": 64,
                        "time": 423.1525547500006,
                        "value": 1
                    },
                    {
                        "number": 64,
                        "time": 423.4786420000006,
                        "value": 0
                    },
                    {
                        "number": 64,
                        "time": 423.5873377500006,
                        "value": 1
                    },
                    {
                        "number": 64,
                        "time": 424.34820800000057,
                        "value": 0
                    },
                    {
                        "number": 64,
                        "time": 424.4261066208339,
                        "value": 1
                    },
                    {
                        "number": 64,
                        "time": 424.7893315854172,
                        "value": 0
                    },
                    {
                        "number": 64,
                        "time": 424.8708533979172,
                        "value": 1
                    },
                    {
                        "number": 64,
                        "time": 425.22864357500055,
                        "value": 0
                    },
                    {
                        "number": 64,
                        "time": 425.3391509208339,
                        "value": 1
                    },
                    {
                        "number": 64,
                        "time": 425.65346279791726,
                        "value": 0
                    },
                    {
                        "number": 64,
                        "time": 425.72954982291725,
                        "value": 1
                    },
                    {
                        "number": 64,
                        "time": 426.09820957500057,
                        "value": 0
                    },
                    {
                        "number": 64,
                        "time": 426.2087169208339,
                        "value": 1
                    },
                    {
                        "number": 64,
                        "time": 426.74585508541725,
                        "value": 0
                    },
                    {
                        "number": 64,
                        "time": 426.8119783333339,
                        "value": 1
                    },
                    {
                        "number": 64,
                        "time": 426.9569060000006,
                        "value": 0
                    },
                    {
                        "number": 64,
                        "time": 427.0212176520839,
                        "value": 1
                    },
                    {
                        "number": 64,
                        "time": 427.84277636250056,
                        "value": 0
                    },
                    {
                        "number": 64,
                        "time": 427.8744792895839,
                        "value": 1
                    },
                    {
                        "number": 64,
                        "time": 428.69875539375056,
                        "value": 0
                    },
                    {
                        "number": 64,
                        "time": 428.74766848125057,
                        "value": 1
                    },
                    {
                        "number": 64,
                        "time": 429.5819083625006,
                        "value": 0
                    },
                    {
                        "number": 64,
                        "time": 429.60727070416726,
                        "value": 1
                    },
                    {
                        "number": 64,
                        "time": 430.4351700000006,
                        "value": 0
                    },
                    {
                        "number": 64,
                        "time": 430.49314106666725,
                        "value": 1
                    },
                    {
                        "number": 64,
                        "time": 430.8699530000006,
                        "value": 0
                    },
                    {
                        "number": 64,
                        "time": 430.90256172500057,
                        "value": 1
                    },
                    {
                        "number": 64,
                        "time": 431.30473600000056,
                        "value": 0
                    },
                    {
                        "number": 64,
                        "time": 431.3627070666672,
                        "value": 1
                    },
                    {
                        "number": 64,
                        "time": 431.73951900000054,
                        "value": 0
                    },
                    {
                        "number": 64,
                        "time": 431.77212772500053,
                        "value": 1
                    },
                    {
                        "number": 64,
                        "time": 432.1743020000005,
                        "value": 0
                    },
                    {
                        "number": 64,
                        "time": 432.22230928958385,
                        "value": 1
                    },
                    {
                        "number": 64,
                        "time": 433.1045564604172,
                        "value": 0
                    },
                    {
                        "number": 64,
                        "time": 436.63626253750056,
                        "value": 1
                    },
                    {
                        "number": 64,
                        "time": 437.0982194750006,
                        "value": 0
                    },
                    {
                        "number": 64,
                        "time": 437.4623502375006,
                        "value": 1
                    },
                    {
                        "number": 64,
                        "time": 437.9677854750006,
                        "value": 0
                    },
                    {
                        "number": 64,
                        "time": 438.3699597500006,
                        "value": 1
                    },
                    {
                        "number": 64,
                        "time": 438.8373514750006,
                        "value": 0
                    },
                    {
                        "number": 64,
                        "time": 439.2014822375006,
                        "value": 1
                    },
                    {
                        "number": 64,
                        "time": 439.70691747500064,
                        "value": 0
                    },
                    {
                        "number": 64,
                        "time": 440.10909175000063,
                        "value": 1
                    },
                    {
                        "number": 64,
                        "time": 440.57648347500066,
                        "value": 0
                    },
                    {
                        "number": 64,
                        "time": 440.94061423750065,
                        "value": 1
                    },
                    {
                        "number": 64,
                        "time": 441.5801075666673,
                        "value": 0
                    },
                    {
                        "number": 64,
                        "time": 442.67974623750064,
                        "value": 1
                    },
                    {
                        "number": 64,
                        "time": 443.3192395666673,
                        "value": 0
                    },
                    {
                        "number": 64,
                        "time": 445.93246655625063,
                        "value": 1
                    },
                    {
                        "number": 64,
                        "time": 446.0257637416673,
                        "value": 0
                    },
                    {
                        "number": 64,
                        "time": 447.6715985562506,
                        "value": 1
                    },
                    {
                        "number": 64,
                        "time": 447.76489574166726,
                        "value": 0
                    },
                    {
                        "number": 64,
                        "time": 448.5411645562506,
                        "value": 1
                    },
                    {
                        "number": 64,
                        "time": 448.6344617416672,
                        "value": 0
                    },
                    {
                        "number": 64,
                        "time": 449.41073055625054,
                        "value": 1
                    },
                    {
                        "number": 64,
                        "time": 449.5040277416672,
                        "value": 0
                    },
                    {
                        "number": 64,
                        "time": 450.2802965562505,
                        "value": 1
                    },
                    {
                        "number": 64,
                        "time": 450.37359374166715,
                        "value": 0
                    },
                    {
                        "number": 64,
                        "time": 452.0194285562505,
                        "value": 1
                    },
                    {
                        "number": 64,
                        "time": 452.11272574166713,
                        "value": 0
                    },
                    {
                        "number": 64,
                        "time": 452.88899455625045,
                        "value": 1
                    },
                    {
                        "number": 64,
                        "time": 452.9822917416671,
                        "value": 0
                    },
                    {
                        "number": 64,
                        "time": 453.7585605562504,
                        "value": 1
                    },
                    {
                        "number": 64,
                        "time": 453.85185774166706,
                        "value": 0
                    },
                    {
                        "number": 64,
                        "time": 459.2015002375004,
                        "value": 1
                    },
                    {
                        "number": 64,
                        "time": 462.31925666666706,
                        "value": 0
                    }
                ]
            },
            "id": 3,
            "name": "Pedale",
            "instrumentNumber": 0,
            "instrument": "acoustic grand piano",
            "instrumentFamily": "piano",
            "channelNumber": 0,
            "isPercussion": false
        },
        {
            "startTime": 0,
            "duration": 0,
            "length": 0,
            "notes": [],
            "controlChanges": {},
            "id": 4,
            "name": "Beethoven: Hammerklaviersonate 1. Satz"
        },
        {
            "startTime": 0,
            "duration": 0,
            "length": 0,
            "notes": [],
            "controlChanges": {},
            "id": 5,
            "name": "Copyright  2008 by Bernd Krueger"
        },
        {
            "startTime": 0,
            "duration": 0,
            "length": 0,
            "notes": [],
            "controlChanges": {},
            "id": 6,
            "name": "http://www.piano-midi.de/"
        },
        {
            "startTime": 0,
            "duration": 0,
            "length": 0,
            "notes": [],
            "controlChanges": {},
            "id": 7,
            "name": "Edition: 2012-08-15"
        },
        {
            "startTime": 0,
            "duration": 0,
            "length": 0,
            "notes": [],
            "controlChanges": {},
            "id": 8,
            "name": "Spur 8"
        },
        {
            "startTime": 0,
            "duration": 0,
            "length": 0,
            "notes": [],
            "controlChanges": {},
            "id": 9,
            "name": "Spur 9"
        },
        {
            "startTime": 0,
            "duration": 0,
            "length": 0,
            "notes": [],
            "controlChanges": {},
            "id": 10,
            "name": "Spur 10"
        },
        {
            "startTime": 0,
            "duration": 0,
            "length": 0,
            "notes": [],
            "controlChanges": {},
            "id": 11,
            "name": "Spur 11"
        },
        {
            "startTime": 0,
            "duration": 0,
            "length": 0,
            "notes": [],
            "controlChanges": {},
            "id": 12,
            "name": "Spur 12"
        },
        {
            "startTime": 0,
            "duration": 0,
            "length": 0,
            "notes": [],
            "controlChanges": {},
            "id": 13,
            "name": "Spur 13"
        },
        {
            "startTime": 0,
            "duration": 0,
            "length": 0,
            "notes": [],
            "controlChanges": {},
            "id": 14,
            "name": "Spur 14"
        },
        {
            "startTime": 0,
            "duration": 0,
            "length": 0,
            "notes": [],
            "controlChanges": {},
            "id": 15,
            "name": "Spur 15"
        },
        {
            "startTime": 0,
            "duration": 0,
            "length": 0,
            "notes": [],
            "controlChanges": {},
            "id": 16,
            "name": "Spur 16"
        }
    ]
}