{
    "header": {
        "PPQ": 480,
        "timeSignature": [
            4,
            4
        ],
        "bpm": 56.249982421880496,
        "name": "Sonate Les adieux 2. Satz"
    },
    "startTime": 0,
    "duration": 179.2000560000015,
    "tracks": [
        {
            "startTime": 0,
            "duration": 0,
            "length": 0,
            "notes": [],
            "controlChanges": {},
            "id": 0,
            "name": "Sonate Les adieux 2. Satz"
        },
        {
            "startTime": 0,
            "duration": 179.20005600000042,
            "length": 438,
            "notes": [
                {
                    "name": "G4",
                    "midi": 67,
                    "time": 0,
                    "velocity": 0.31496062992125984,
                    "duration": 0.8000002500000001
                },
                {
                    "name": "F#4",
                    "midi": 66,
                    "time": 0.8000002500000001,
                    "velocity": 0.28346456692913385,
                    "duration": 0.26666674999999995
                },
                {
                    "name": "A4",
                    "midi": 69,
                    "time": 1.066667,
                    "velocity": 0.31496062992125984,
                    "duration": 3.2000010000000003
                },
                {
                    "name": "G4",
                    "midi": 67,
                    "time": 4.266668,
                    "velocity": 0.31496062992125984,
                    "duration": 0.8000002500000001
                },
                {
                    "name": "F#4",
                    "midi": 66,
                    "time": 5.06666825,
                    "velocity": 0.28346456692913385,
                    "duration": 0.26666674999999973
                },
                {
                    "name": "A4",
                    "midi": 69,
                    "time": 5.333335,
                    "velocity": 0.31496062992125984,
                    "duration": 2.9333342499999997
                },
                {
                    "name": "A4",
                    "midi": 69,
                    "time": 7.466669,
                    "velocity": 0.36220472440944884,
                    "duration": 1.0666670000000007
                },
                {
                    "name": "D#5",
                    "midi": 75,
                    "time": 8.26666925,
                    "velocity": 0.33070866141732286,
                    "duration": 0.25333341249999997
                },
                {
                    "name": "D#5",
                    "midi": 75,
                    "time": 8.533336,
                    "velocity": 0.4094488188976378,
                    "duration": 1.0666670000000007
                },
                {
                    "name": "D4",
                    "midi": 62,
                    "time": 9.600003000000001,
                    "velocity": 0.2283464566929134,
                    "duration": 1.0666670000000007
                },
                {
                    "name": "D5",
                    "midi": 74,
                    "time": 9.600003000000001,
                    "velocity": 0.31496062992125984,
                    "duration": 0.8000002500000001
                },
                {
                    "name": "G4",
                    "midi": 67,
                    "time": 10.400003250000001,
                    "velocity": 0.28346456692913385,
                    "duration": 0.25333341249999997
                },
                {
                    "name": "G4",
                    "midi": 67,
                    "time": 10.666670000000002,
                    "velocity": 0.3228346456692913,
                    "duration": 1.0666670000000007
                },
                {
                    "name": "C4",
                    "midi": 60,
                    "time": 11.733337000000002,
                    "velocity": 0.2283464566929134,
                    "duration": 1.0666670000000007
                },
                {
                    "name": "F#4",
                    "midi": 66,
                    "time": 11.733337000000002,
                    "velocity": 0.31496062992125984,
                    "duration": 0.8000002500000001
                },
                {
                    "name": "A4",
                    "midi": 69,
                    "time": 12.533337250000002,
                    "velocity": 0.28346456692913385,
                    "duration": 0.25333341249999997
                },
                {
                    "name": "A4",
                    "midi": 69,
                    "time": 12.800004000000003,
                    "velocity": 0.3464566929133858,
                    "duration": 0.8000002500000001
                },
                {
                    "name": "B4",
                    "midi": 71,
                    "time": 13.600004250000003,
                    "velocity": 0.31496062992125984,
                    "duration": 2.2222229166666683
                },
                {
                    "name": "B3",
                    "midi": 59,
                    "time": 13.866671000000004,
                    "velocity": 0.1968503937007874,
                    "duration": 1.0666670000000007
                },
                {
                    "name": "D4",
                    "midi": 62,
                    "time": 13.866671000000004,
                    "velocity": 0.23622047244094488,
                    "duration": 1.0666670000000007
                },
                {
                    "name": "B3",
                    "midi": 59,
                    "time": 14.933338000000004,
                    "velocity": 0.15748031496062992,
                    "duration": 1.0666670000000007
                },
                {
                    "name": "D4",
                    "midi": 62,
                    "time": 14.933338000000004,
                    "velocity": 0.1889763779527559,
                    "duration": 1.0666670000000007
                },
                {
                    "name": "C5",
                    "midi": 72,
                    "time": 15.466671500000004,
                    "velocity": 0.2677165354330709,
                    "duration": 0.17777783333333375
                },
                {
                    "name": "B4",
                    "midi": 71,
                    "time": 15.644449333333338,
                    "velocity": 0.23622047244094488,
                    "duration": 0.3555556666666675
                },
                {
                    "name": "A4",
                    "midi": 69,
                    "time": 15.822227166666671,
                    "velocity": 0.23622047244094488,
                    "duration": 0.17777783333333375
                },
                {
                    "name": "B4",
                    "midi": 71,
                    "time": 16.000005000000005,
                    "velocity": 0.30708661417322836,
                    "duration": 0.5333335000000012
                },
                {
                    "name": "C5",
                    "midi": 72,
                    "time": 16.533338500000006,
                    "velocity": 0.36220472440944884,
                    "duration": 0.5333335000000012
                },
                {
                    "name": "D#5",
                    "midi": 75,
                    "time": 17.066672000000008,
                    "velocity": 0.4566929133858268,
                    "duration": 0.8000002500000001
                },
                {
                    "name": "D5",
                    "midi": 74,
                    "time": 17.866672250000008,
                    "velocity": 0.4094488188976378,
                    "duration": 0.26666674999999884
                },
                {
                    "name": "F5",
                    "midi": 77,
                    "time": 18.133339000000007,
                    "velocity": 0.47244094488188976,
                    "duration": 2.9333342500000015
                },
                {
                    "name": "D5",
                    "midi": 74,
                    "time": 21.066673250000008,
                    "velocity": 0.3228346456692913,
                    "duration": 0.13333337499999942
                },
                {
                    "name": "F5",
                    "midi": 77,
                    "time": 21.200006625000007,
                    "velocity": 0.33070866141732286,
                    "duration": 0.13333337499999942
                },
                {
                    "name": "D#5",
                    "midi": 75,
                    "time": 21.333340000000007,
                    "velocity": 0.4566929133858268,
                    "duration": 0.8000002500000001
                },
                {
                    "name": "D5",
                    "midi": 74,
                    "time": 22.133340250000007,
                    "velocity": 0.41732283464566927,
                    "duration": 0.26666674999999884
                },
                {
                    "name": "F5",
                    "midi": 77,
                    "time": 22.400007000000006,
                    "velocity": 0.48031496062992124,
                    "duration": 3.200001000000004
                },
                {
                    "name": "D5",
                    "midi": 74,
                    "time": 24.533341000000007,
                    "velocity": 0.49606299212598426,
                    "duration": 0.8000002500000001
                },
                {
                    "name": "G#5",
                    "midi": 80,
                    "time": 25.333341250000007,
                    "velocity": 0.48031496062992124,
                    "duration": 0.25333341250000174
                },
                {
                    "name": "G#5",
                    "midi": 80,
                    "time": 25.60000800000001,
                    "velocity": 0.5511811023622047,
                    "duration": 1.066666999999999
                },
                {
                    "name": "G4",
                    "midi": 67,
                    "time": 26.66667500000001,
                    "velocity": 0.25984251968503935,
                    "duration": 1.0666670000000025
                },
                {
                    "name": "G5",
                    "midi": 79,
                    "time": 26.66667500000001,
                    "velocity": 0.3779527559055118,
                    "duration": 0.8000002500000001
                },
                {
                    "name": "C5",
                    "midi": 72,
                    "time": 27.46667525000001,
                    "velocity": 0.3228346456692913,
                    "duration": 0.25333341250000174
                },
                {
                    "name": "C5",
                    "midi": 72,
                    "time": 27.73334200000001,
                    "velocity": 0.3700787401574803,
                    "duration": 1.066666999999999
                },
                {
                    "name": "F4",
                    "midi": 65,
                    "time": 28.80000900000001,
                    "velocity": 0.25984251968503935,
                    "duration": 1.0666670000000025
                },
                {
                    "name": "B4",
                    "midi": 71,
                    "time": 28.80000900000001,
                    "velocity": 0.36220472440944884,
                    "duration": 0.8000002500000001
                },
                {
                    "name": "D5",
                    "midi": 74,
                    "time": 29.60000925000001,
                    "velocity": 0.3228346456692913,
                    "duration": 0.25333341250000174
                },
                {
                    "name": "D5",
                    "midi": 74,
                    "time": 29.866676000000012,
                    "velocity": 0.3937007874015748,
                    "duration": 0.8000002500000001
                },
                {
                    "name": "D#5",
                    "midi": 75,
                    "time": 30.666676250000013,
                    "velocity": 0.36220472440944884,
                    "duration": 2.400000749999993
                },
                {
                    "name": "D#4",
                    "midi": 63,
                    "time": 30.93334300000001,
                    "velocity": 0.28346456692913385,
                    "duration": 1.066666999999999
                },
                {
                    "name": "D#4",
                    "midi": 63,
                    "time": 32.00001000000001,
                    "velocity": 0.2283464566929134,
                    "duration": 0.5333334999999977
                },
                {
                    "name": "G#4",
                    "midi": 68,
                    "time": 32.53334350000001,
                    "velocity": 0.2992125984251969,
                    "duration": 0.5333334999999977
                },
                {
                    "name": "G4",
                    "midi": 67,
                    "time": 33.066677000000006,
                    "velocity": 0.33858267716535434,
                    "duration": 0.5333334999999977
                },
                {
                    "name": "G#4",
                    "midi": 68,
                    "time": 33.6000105,
                    "velocity": 0.3858267716535433,
                    "duration": 0.5333334999999977
                },
                {
                    "name": "C5",
                    "midi": 72,
                    "time": 34.133344,
                    "velocity": 0.4645669291338583,
                    "duration": 0.5333334999999977
                },
                {
                    "name": "A#4",
                    "midi": 70,
                    "time": 34.6666775,
                    "velocity": 0.3464566929133858,
                    "duration": 0.13333337499999942
                },
                {
                    "name": "C5",
                    "midi": 72,
                    "time": 34.800010875,
                    "velocity": 0.3464566929133858,
                    "duration": 0.13333337499999942
                },
                {
                    "name": "A#4",
                    "midi": 70,
                    "time": 34.93334425,
                    "velocity": 0.3464566929133858,
                    "duration": 0.13333337499999942
                },
                {
                    "name": "A4",
                    "midi": 69,
                    "time": 35.066677625,
                    "velocity": 0.3464566929133858,
                    "duration": 0.13333337499999942
                },
                {
                    "name": "A#4",
                    "midi": 70,
                    "time": 35.200010999999996,
                    "velocity": 0.4094488188976378,
                    "duration": 0.8000002500000036
                },
                {
                    "name": "C5",
                    "midi": 72,
                    "time": 36.00001125,
                    "velocity": 0.4330708661417323,
                    "duration": 0.26666674999999884
                },
                {
                    "name": "C#5",
                    "midi": 73,
                    "time": 36.266678,
                    "velocity": 0.48031496062992124,
                    "duration": 1.3333337500000013
                },
                {
                    "name": "C5",
                    "midi": 72,
                    "time": 37.60001175,
                    "velocity": 0.4409448818897638,
                    "duration": 0.26666674999999884
                },
                {
                    "name": "A#5",
                    "midi": 82,
                    "time": 37.8666785,
                    "velocity": 0.5039370078740157,
                    "duration": 0.26666674999999884
                },
                {
                    "name": "G5",
                    "midi": 79,
                    "time": 38.13334525,
                    "velocity": 0.4566929133858268,
                    "duration": 0.2533334124999982
                },
                {
                    "name": "G5",
                    "midi": 79,
                    "time": 38.400012,
                    "velocity": 0.5275590551181102,
                    "duration": 1.6000005000000002
                },
                {
                    "name": "A#5",
                    "midi": 82,
                    "time": 40.0000125,
                    "velocity": 0.3543307086614173,
                    "duration": 0.26666674999999884
                },
                {
                    "name": "G#5",
                    "midi": 80,
                    "time": 40.266679249999996,
                    "velocity": 0.3543307086614173,
                    "duration": 0.26666674999999884
                },
                {
                    "name": "G#4",
                    "midi": 68,
                    "time": 41.600013,
                    "velocity": 0.3543307086614173,
                    "duration": 0.5333334999999977
                },
                {
                    "name": "G4",
                    "midi": 67,
                    "time": 42.133346499999995,
                    "velocity": 0.30708661417322836,
                    "duration": 0.5222223854166685
                },
                {
                    "name": "A3",
                    "midi": 57,
                    "time": 42.66668,
                    "velocity": 0.29133858267716534,
                    "duration": 3.200000999999993
                },
                {
                    "name": "C4",
                    "midi": 60,
                    "time": 42.66668,
                    "velocity": 0.29133858267716534,
                    "duration": 3.200000999999993
                },
                {
                    "name": "G4",
                    "midi": 67,
                    "time": 42.66668,
                    "velocity": 0.4094488188976378,
                    "duration": 0.8000002499999965
                },
                {
                    "name": "F#4",
                    "midi": 66,
                    "time": 43.466680249999996,
                    "velocity": 0.3543307086614173,
                    "duration": 0.26666674999999884
                },
                {
                    "name": "A4",
                    "midi": 69,
                    "time": 43.733346999999995,
                    "velocity": 0.4566929133858268,
                    "duration": 2.133333999999998
                },
                {
                    "name": "D4",
                    "midi": 62,
                    "time": 45.86668099999999,
                    "velocity": 0.4015748031496063,
                    "duration": 1.0666670000000025
                },
                {
                    "name": "A4",
                    "midi": 69,
                    "time": 45.86668099999999,
                    "velocity": 0.47244094488188976,
                    "duration": 0.8000002500000036
                },
                {
                    "name": "G4",
                    "midi": 67,
                    "time": 46.666681249999996,
                    "velocity": 0.4094488188976378,
                    "duration": 0.2533334124999982
                },
                {
                    "name": "C4",
                    "midi": 60,
                    "time": 46.933347999999995,
                    "velocity": 0.4094488188976378,
                    "duration": 1.0666669999999954
                },
                {
                    "name": "D4",
                    "midi": 62,
                    "time": 46.933347999999995,
                    "velocity": 0.4094488188976378,
                    "duration": 1.0666669999999954
                },
                {
                    "name": "G4",
                    "midi": 67,
                    "time": 46.933347999999995,
                    "velocity": 0.4881889763779528,
                    "duration": 0.8000002499999965
                },
                {
                    "name": "F#4",
                    "midi": 66,
                    "time": 47.73334824999999,
                    "velocity": 0.3937007874015748,
                    "duration": 0.26666674999999884
                },
                {
                    "name": "A#3",
                    "midi": 58,
                    "time": 48.00001499999999,
                    "velocity": 0.4251968503937008,
                    "duration": 1.0666669999999954
                },
                {
                    "name": "D4",
                    "midi": 62,
                    "time": 48.00001499999999,
                    "velocity": 0.4251968503937008,
                    "duration": 1.0666669999999954
                },
                {
                    "name": "A4",
                    "midi": 69,
                    "time": 48.00001499999999,
                    "velocity": 0.5039370078740157,
                    "duration": 0.8000002499999965
                },
                {
                    "name": "G4",
                    "midi": 67,
                    "time": 48.80001524999999,
                    "velocity": 0.4251968503937008,
                    "duration": 0.26666674999999884
                },
                {
                    "name": "A3",
                    "midi": 57,
                    "time": 49.066681999999986,
                    "velocity": 0.4566929133858268,
                    "duration": 1.0666669999999954
                },
                {
                    "name": "D4",
                    "midi": 62,
                    "time": 49.066681999999986,
                    "velocity": 0.4566929133858268,
                    "duration": 1.0666669999999954
                },
                {
                    "name": "A#4",
                    "midi": 70,
                    "time": 49.066681999999986,
                    "velocity": 0.5433070866141733,
                    "duration": 0.8000002499999965
                },
                {
                    "name": "A4",
                    "midi": 69,
                    "time": 49.86668224999998,
                    "velocity": 0.3543307086614173,
                    "duration": 0.26666674999999884
                },
                {
                    "name": "F#4",
                    "midi": 66,
                    "time": 50.13334899999998,
                    "velocity": 0.4015748031496063,
                    "duration": 0.26666674999999884
                },
                {
                    "name": "A4",
                    "midi": 69,
                    "time": 50.40001574999998,
                    "velocity": 0.36220472440944884,
                    "duration": 0.26666674999999884
                },
                {
                    "name": "C5",
                    "midi": 72,
                    "time": 50.66668249999998,
                    "velocity": 0.33070866141732286,
                    "duration": 0.26666674999999884
                },
                {
                    "name": "D#5",
                    "midi": 75,
                    "time": 50.93334924999998,
                    "velocity": 0.3779527559055118,
                    "duration": 0.26666674999999884
                },
                {
                    "name": "D5",
                    "midi": 74,
                    "time": 51.20001599999998,
                    "velocity": 0.4251968503937008,
                    "duration": 0.26666674999999884
                },
                {
                    "name": "C5",
                    "midi": 72,
                    "time": 51.466682749999975,
                    "velocity": 0.33858267716535434,
                    "duration": 0.26666674999999884
                },
                {
                    "name": "A#4",
                    "midi": 70,
                    "time": 51.733349499999974,
                    "velocity": 0.33858267716535434,
                    "duration": 0.26666674999999884
                },
                {
                    "name": "A4",
                    "midi": 69,
                    "time": 52.00001624999997,
                    "velocity": 0.33858267716535434,
                    "duration": 0.26666674999999884
                },
                {
                    "name": "C5",
                    "midi": 72,
                    "time": 52.26668299999997,
                    "velocity": 0.41732283464566927,
                    "duration": 0.26666674999999884
                },
                {
                    "name": "F#5",
                    "midi": 78,
                    "time": 52.53334974999997,
                    "velocity": 0.3543307086614173,
                    "duration": 0.26666674999999884
                },
                {
                    "name": "A5",
                    "midi": 81,
                    "time": 52.80001649999997,
                    "velocity": 0.3543307086614173,
                    "duration": 0.26666674999999884
                },
                {
                    "name": "C6",
                    "midi": 84,
                    "time": 53.06668324999997,
                    "velocity": 0.3543307086614173,
                    "duration": 0.26666674999999884
                },
                {
                    "name": "A#5",
                    "midi": 82,
                    "time": 53.33334999999997,
                    "velocity": 0.4251968503937008,
                    "duration": 0.26666674999999884
                },
                {
                    "name": "A5",
                    "midi": 81,
                    "time": 53.600016749999966,
                    "velocity": 0.3543307086614173,
                    "duration": 0.26666674999999884
                },
                {
                    "name": "G5",
                    "midi": 79,
                    "time": 53.866683499999965,
                    "velocity": 0.3543307086614173,
                    "duration": 0.26666674999999884
                },
                {
                    "name": "F#5",
                    "midi": 78,
                    "time": 54.133350249999964,
                    "velocity": 0.3543307086614173,
                    "duration": 0.26666674999999884
                },
                {
                    "name": "A5",
                    "midi": 81,
                    "time": 54.40001699999996,
                    "velocity": 0.4015748031496063,
                    "duration": 0.26666674999999884
                },
                {
                    "name": "C6",
                    "midi": 84,
                    "time": 54.66668374999996,
                    "velocity": 0.41732283464566927,
                    "duration": 0.26666674999999884
                },
                {
                    "name": "D6",
                    "midi": 86,
                    "time": 54.93335049999996,
                    "velocity": 0.4330708661417323,
                    "duration": 0.26666674999999884
                },
                {
                    "name": "D#6",
                    "midi": 87,
                    "time": 55.20001724999996,
                    "velocity": 0.44881889763779526,
                    "duration": 0.26666674999999884
                },
                {
                    "name": "D6",
                    "midi": 86,
                    "time": 55.46668399999996,
                    "velocity": 0.47244094488188976,
                    "duration": 0.26666674999999884
                },
                {
                    "name": "C6",
                    "midi": 84,
                    "time": 55.73335074999996,
                    "velocity": 0.4015748031496063,
                    "duration": 0.26666674999999884
                },
                {
                    "name": "A#5",
                    "midi": 82,
                    "time": 56.000017499999956,
                    "velocity": 0.4094488188976378,
                    "duration": 0.26666674999999884
                },
                {
                    "name": "A5",
                    "midi": 81,
                    "time": 56.266684249999955,
                    "velocity": 0.4094488188976378,
                    "duration": 0.26666674999999884
                },
                {
                    "name": "C6",
                    "midi": 84,
                    "time": 56.53335099999995,
                    "velocity": 0.4566929133858268,
                    "duration": 0.26666674999999884
                },
                {
                    "name": "A5",
                    "midi": 81,
                    "time": 56.80001774999995,
                    "velocity": 0.3779527559055118,
                    "duration": 0.26666674999999884
                },
                {
                    "name": "G5",
                    "midi": 79,
                    "time": 57.06668449999995,
                    "velocity": 0.3858267716535433,
                    "duration": 0.26666674999999884
                },
                {
                    "name": "F#5",
                    "midi": 78,
                    "time": 57.33335124999995,
                    "velocity": 0.3858267716535433,
                    "duration": 0.26666674999999884
                },
                {
                    "name": "C6",
                    "midi": 84,
                    "time": 57.60001799999995,
                    "velocity": 0.47244094488188976,
                    "duration": 0.26666674999999884
                },
                {
                    "name": "A5",
                    "midi": 81,
                    "time": 57.86668474999995,
                    "velocity": 0.41732283464566927,
                    "duration": 0.26666674999999884
                },
                {
                    "name": "G5",
                    "midi": 79,
                    "time": 58.13335149999995,
                    "velocity": 0.4330708661417323,
                    "duration": 0.26666674999999884
                },
                {
                    "name": "F#5",
                    "midi": 78,
                    "time": 58.400018249999945,
                    "velocity": 0.4409448818897638,
                    "duration": 0.26666674999999884
                },
                {
                    "name": "A5",
                    "midi": 81,
                    "time": 58.666684999999944,
                    "velocity": 0.5433070866141733,
                    "duration": 0.20000006250000268
                },
                {
                    "name": "F#5",
                    "midi": 78,
                    "time": 58.93335174999995,
                    "velocity": 0.4645669291338583,
                    "duration": 0.20000006250000268
                },
                {
                    "name": "D#5",
                    "midi": 75,
                    "time": 59.200018499999956,
                    "velocity": 0.49606299212598426,
                    "duration": 0.20000006250000268
                },
                {
                    "name": "D5",
                    "midi": 74,
                    "time": 59.46668524999996,
                    "velocity": 0.5118110236220472,
                    "duration": 0.20000006250000268
                },
                {
                    "name": "D5",
                    "midi": 74,
                    "time": 59.73335199999997,
                    "velocity": 0.5039370078740157,
                    "duration": 1.0666670000000025
                },
                {
                    "name": "A4",
                    "midi": 69,
                    "time": 60.80001899999997,
                    "velocity": 0.4566929133858268,
                    "duration": 2.133333999999998
                },
                {
                    "name": "B4",
                    "midi": 71,
                    "time": 62.93335299999997,
                    "velocity": 0.5039370078740157,
                    "duration": 0.5333334999999977
                },
                {
                    "name": "G4",
                    "midi": 67,
                    "time": 63.466686499999966,
                    "velocity": 0.41732283464566927,
                    "duration": 0.5266668312499974
                },
                {
                    "name": "G4",
                    "midi": 67,
                    "time": 64.00001999999996,
                    "velocity": 0.5039370078740157,
                    "duration": 0.5333334999999977
                },
                {
                    "name": "F#4",
                    "midi": 66,
                    "time": 64.53335349999996,
                    "velocity": 0.4330708661417323,
                    "duration": 0.13333337500000653
                },
                {
                    "name": "G4",
                    "midi": 67,
                    "time": 64.66668687499997,
                    "velocity": 0.4330708661417323,
                    "duration": 0.13333337500000653
                },
                {
                    "name": "F#4",
                    "midi": 66,
                    "time": 64.80002024999997,
                    "velocity": 0.4330708661417323,
                    "duration": 0.13333337500000653
                },
                {
                    "name": "E4",
                    "midi": 64,
                    "time": 64.93335362499998,
                    "velocity": 0.4330708661417323,
                    "duration": 0.13333337500000653
                },
                {
                    "name": "F#4",
                    "midi": 66,
                    "time": 65.06668699999999,
                    "velocity": 0.5039370078740157,
                    "duration": 0.5333334999999977
                },
                {
                    "name": "G4",
                    "midi": 67,
                    "time": 65.60002049999999,
                    "velocity": 0.4645669291338583,
                    "duration": 0.5333334999999977
                },
                {
                    "name": "A4",
                    "midi": 69,
                    "time": 66.13335399999998,
                    "velocity": 0.44881889763779526,
                    "duration": 0.5333334999999977
                },
                {
                    "name": "B4",
                    "midi": 71,
                    "time": 66.66668749999998,
                    "velocity": 0.4881889763779528,
                    "duration": 0.5333334999999977
                },
                {
                    "name": "C5",
                    "midi": 72,
                    "time": 67.20002099999998,
                    "velocity": 0.5039370078740157,
                    "duration": 0.26666674999999884
                },
                {
                    "name": "C#5",
                    "midi": 73,
                    "time": 67.46668774999998,
                    "velocity": 0.44881889763779526,
                    "duration": 0.2555556354166697
                },
                {
                    "name": "C#5",
                    "midi": 73,
                    "time": 67.73335449999998,
                    "velocity": 0.5039370078740157,
                    "duration": 0.26666674999999884
                },
                {
                    "name": "D5",
                    "midi": 74,
                    "time": 68.00002124999997,
                    "velocity": 0.4645669291338583,
                    "duration": 0.26666674999999884
                },
                {
                    "name": "C#5",
                    "midi": 73,
                    "time": 68.26668799999997,
                    "velocity": 0.5039370078740157,
                    "duration": 0.26666674999999884
                },
                {
                    "name": "D5",
                    "midi": 74,
                    "time": 68.53335474999997,
                    "velocity": 0.44881889763779526,
                    "duration": 0.26666674999999884
                },
                {
                    "name": "E5",
                    "midi": 76,
                    "time": 68.80002149999997,
                    "velocity": 0.44881889763779526,
                    "duration": 0.26666674999999884
                },
                {
                    "name": "D5",
                    "midi": 74,
                    "time": 69.06668824999997,
                    "velocity": 0.44881889763779526,
                    "duration": 0.26666674999999884
                },
                {
                    "name": "A4",
                    "midi": 69,
                    "time": 69.33335499999997,
                    "velocity": 0.5039370078740157,
                    "duration": 1.3333337499999942
                },
                {
                    "name": "B4",
                    "midi": 71,
                    "time": 70.66668874999996,
                    "velocity": 0.5039370078740157,
                    "duration": 0.13333337500000653
                },
                {
                    "name": "A4",
                    "midi": 69,
                    "time": 70.80002212499997,
                    "velocity": 0.4330708661417323,
                    "duration": 0.13333337500000653
                },
                {
                    "name": "B4",
                    "midi": 71,
                    "time": 70.93335549999998,
                    "velocity": 0.5039370078740157,
                    "duration": 0.13333337500000653
                },
                {
                    "name": "A4",
                    "midi": 69,
                    "time": 71.06668887499998,
                    "velocity": 0.4251968503937008,
                    "duration": 0.13333337500000653
                },
                {
                    "name": "C5",
                    "midi": 72,
                    "time": 71.20002224999999,
                    "velocity": 0.5039370078740157,
                    "duration": 0.13333337500000653
                },
                {
                    "name": "B4",
                    "midi": 71,
                    "time": 71.333355625,
                    "velocity": 0.4330708661417323,
                    "duration": 0.13333337500000653
                },
                {
                    "name": "C5",
                    "midi": 72,
                    "time": 71.466689,
                    "velocity": 0.5039370078740157,
                    "duration": 0.13333337500000653
                },
                {
                    "name": "B4",
                    "midi": 71,
                    "time": 71.60002237500001,
                    "velocity": 0.4409448818897638,
                    "duration": 0.13333337500000653
                },
                {
                    "name": "D5",
                    "midi": 74,
                    "time": 71.73335575000002,
                    "velocity": 0.5039370078740157,
                    "duration": 0.13333337500000653
                },
                {
                    "name": "C#5",
                    "midi": 73,
                    "time": 71.86668912500002,
                    "velocity": 0.44881889763779526,
                    "duration": 0.13333337500000653
                },
                {
                    "name": "D5",
                    "midi": 74,
                    "time": 72.00002250000003,
                    "velocity": 0.4094488188976378,
                    "duration": 0.06666668750000326
                },
                {
                    "name": "C#5",
                    "midi": 73,
                    "time": 72.06668918750003,
                    "velocity": 0.4094488188976378,
                    "duration": 0.06666668750000326
                },
                {
                    "name": "E5",
                    "midi": 76,
                    "time": 72.13335587500003,
                    "velocity": 0.4094488188976378,
                    "duration": 0.06666668750000326
                },
                {
                    "name": "D5",
                    "midi": 74,
                    "time": 72.20002256250004,
                    "velocity": 0.4094488188976378,
                    "duration": 0.06666668750000326
                },
                {
                    "name": "G4",
                    "midi": 67,
                    "time": 72.26668925000004,
                    "velocity": 0.47244094488188976,
                    "duration": 0.2600000812499985
                },
                {
                    "name": "G4",
                    "midi": 67,
                    "time": 72.53335600000004,
                    "velocity": 0.5039370078740157,
                    "duration": 1.0666669999999954
                },
                {
                    "name": "F#4",
                    "midi": 66,
                    "time": 73.60002300000004,
                    "velocity": 0.4409448818897638,
                    "duration": 0.07555557916666089
                },
                {
                    "name": "G4",
                    "midi": 67,
                    "time": 73.6755785791667,
                    "velocity": 0.3937007874015748,
                    "duration": 0.07555557916666089
                },
                {
                    "name": "F#4",
                    "midi": 66,
                    "time": 73.75335638125003,
                    "velocity": 0.4409448818897638,
                    "duration": 0.07555557916666089
                },
                {
                    "name": "G4",
                    "midi": 67,
                    "time": 73.82891196041669,
                    "velocity": 0.3858267716535433,
                    "duration": 0.07555557916666089
                },
                {
                    "name": "F#4",
                    "midi": 66,
                    "time": 73.90446753958335,
                    "velocity": 0.4409448818897638,
                    "duration": 0.07555557916666089
                },
                {
                    "name": "E4",
                    "midi": 64,
                    "time": 73.98002311875001,
                    "velocity": 0.4015748031496063,
                    "duration": 0.07555557916666089
                },
                {
                    "name": "F#4",
                    "midi": 66,
                    "time": 74.05557869791667,
                    "velocity": 0.4015748031496063,
                    "duration": 0.07555557916666089
                },
                {
                    "name": "G4",
                    "midi": 67,
                    "time": 74.1333565,
                    "velocity": 0.44881889763779526,
                    "duration": 0.5333334999999977
                },
                {
                    "name": "A4",
                    "midi": 69,
                    "time": 74.66669,
                    "velocity": 0.4645669291338583,
                    "duration": 0.5333334999999977
                },
                {
                    "name": "A#4",
                    "midi": 70,
                    "time": 75.2000235,
                    "velocity": 0.5039370078740157,
                    "duration": 0.5333334999999977
                },
                {
                    "name": "C5",
                    "midi": 72,
                    "time": 75.733357,
                    "velocity": 0.5039370078740157,
                    "duration": 0.26666674999999884
                },
                {
                    "name": "C#5",
                    "midi": 73,
                    "time": 76.00002375,
                    "velocity": 0.4566929133858268,
                    "duration": 0.257777858333327
                },
                {
                    "name": "C#5",
                    "midi": 73,
                    "time": 76.2666905,
                    "velocity": 0.5039370078740157,
                    "duration": 0.26666674999999884
                },
                {
                    "name": "D5",
                    "midi": 74,
                    "time": 76.53335725,
                    "velocity": 0.4409448818897638,
                    "duration": 0.2555556354166697
                },
                {
                    "name": "D5",
                    "midi": 74,
                    "time": 76.800024,
                    "velocity": 0.5590551181102362,
                    "duration": 0.5333334999999977
                },
                {
                    "name": "A#5",
                    "midi": 82,
                    "time": 77.33335749999999,
                    "velocity": 0.5984251968503937,
                    "duration": 0.5333334999999977
                },
                {
                    "name": "D5",
                    "midi": 74,
                    "time": 77.33335749999999,
                    "velocity": 0.5039370078740157,
                    "duration": 0.5333334999999977
                },
                {
                    "name": "A#5",
                    "midi": 82,
                    "time": 78.40002449999999,
                    "velocity": 0.5748031496062992,
                    "duration": 0.5333334999999977
                },
                {
                    "name": "D5",
                    "midi": 74,
                    "time": 78.40002449999999,
                    "velocity": 0.4881889763779528,
                    "duration": 0.5333334999999977
                },
                {
                    "name": "A5",
                    "midi": 81,
                    "time": 79.46669149999998,
                    "velocity": 0.5275590551181102,
                    "duration": 0.5333334999999977
                },
                {
                    "name": "C5",
                    "midi": 72,
                    "time": 79.46669149999998,
                    "velocity": 0.4409448818897638,
                    "duration": 0.5333334999999977
                },
                {
                    "name": "G5",
                    "midi": 79,
                    "time": 80.53335849999998,
                    "velocity": 0.48031496062992124,
                    "duration": 0.5333334999999977
                },
                {
                    "name": "A#4",
                    "midi": 70,
                    "time": 80.53335849999998,
                    "velocity": 0.4015748031496063,
                    "duration": 0.5333334999999977
                },
                {
                    "name": "G5",
                    "midi": 79,
                    "time": 81.60002549999997,
                    "velocity": 0.5196850393700787,
                    "duration": 0.5333334999999977
                },
                {
                    "name": "A#4",
                    "midi": 70,
                    "time": 81.60002549999997,
                    "velocity": 0.4409448818897638,
                    "duration": 0.5333334999999977
                },
                {
                    "name": "G4",
                    "midi": 67,
                    "time": 81.60002549999997,
                    "velocity": 0.4409448818897638,
                    "duration": 0.5333334999999977
                },
                {
                    "name": "G5",
                    "midi": 79,
                    "time": 82.66669249999997,
                    "velocity": 0.5039370078740157,
                    "duration": 0.5333334999999977
                },
                {
                    "name": "D#5",
                    "midi": 75,
                    "time": 82.66669249999997,
                    "velocity": 0.4251968503937008,
                    "duration": 0.5333334999999977
                },
                {
                    "name": "G4",
                    "midi": 67,
                    "time": 82.66669249999997,
                    "velocity": 0.4251968503937008,
                    "duration": 0.5333334999999977
                },
                {
                    "name": "F5",
                    "midi": 77,
                    "time": 83.73335949999996,
                    "velocity": 0.4409448818897638,
                    "duration": 0.5333334999999977
                },
                {
                    "name": "D5",
                    "midi": 74,
                    "time": 83.73335949999996,
                    "velocity": 0.3700787401574803,
                    "duration": 0.5333334999999977
                },
                {
                    "name": "G4",
                    "midi": 67,
                    "time": 83.73335949999996,
                    "velocity": 0.3700787401574803,
                    "duration": 0.5333334999999977
                },
                {
                    "name": "D#5",
                    "midi": 75,
                    "time": 84.80002649999996,
                    "velocity": 0.3779527559055118,
                    "duration": 0.5333334999999977
                },
                {
                    "name": "C5",
                    "midi": 72,
                    "time": 84.80002649999996,
                    "velocity": 0.31496062992125984,
                    "duration": 0.5333334999999977
                },
                {
                    "name": "G4",
                    "midi": 67,
                    "time": 84.80002649999996,
                    "velocity": 0.2755905511811024,
                    "duration": 0.5333334999999977
                },
                {
                    "name": "C#5",
                    "midi": 73,
                    "time": 85.33335999999996,
                    "velocity": 0.23622047244094488,
                    "duration": 4.266667999999996
                },
                {
                    "name": "A#4",
                    "midi": 70,
                    "time": 85.33335999999996,
                    "velocity": 0.23622047244094488,
                    "duration": 4.266667999999996
                },
                {
                    "name": "G4",
                    "midi": 67,
                    "time": 85.33335999999996,
                    "velocity": 0.23622047244094488,
                    "duration": 4.266667999999996
                },
                {
                    "name": "F5",
                    "midi": 77,
                    "time": 85.33335999999996,
                    "velocity": 0.3937007874015748,
                    "duration": 0.8000002499999965
                },
                {
                    "name": "E5",
                    "midi": 76,
                    "time": 86.13336024999995,
                    "velocity": 0.3543307086614173,
                    "duration": 0.26666674999999884
                },
                {
                    "name": "G5",
                    "midi": 79,
                    "time": 86.40002699999995,
                    "velocity": 0.3937007874015748,
                    "duration": 3.2000010000000003
                },
                {
                    "name": "C#5",
                    "midi": 73,
                    "time": 89.60002799999995,
                    "velocity": 0.23622047244094488,
                    "duration": 3.2000010000000003
                },
                {
                    "name": "A#4",
                    "midi": 70,
                    "time": 89.60002799999995,
                    "velocity": 0.23622047244094488,
                    "duration": 3.2000010000000003
                },
                {
                    "name": "G4",
                    "midi": 67,
                    "time": 89.60002799999995,
                    "velocity": 0.23622047244094488,
                    "duration": 3.2000010000000003
                },
                {
                    "name": "F5",
                    "midi": 77,
                    "time": 89.60002799999995,
                    "velocity": 0.3937007874015748,
                    "duration": 0.8000002499999965
                },
                {
                    "name": "E5",
                    "midi": 76,
                    "time": 90.40002824999995,
                    "velocity": 0.3543307086614173,
                    "duration": 0.26666674999999884
                },
                {
                    "name": "G5",
                    "midi": 79,
                    "time": 90.66669499999995,
                    "velocity": 0.3937007874015748,
                    "duration": 2.9333342500000015
                },
                {
                    "name": "C#5",
                    "midi": 73,
                    "time": 92.80002899999995,
                    "velocity": 0.23622047244094488,
                    "duration": 1.0666669999999954
                },
                {
                    "name": "G5",
                    "midi": 79,
                    "time": 92.80002899999995,
                    "velocity": 0.47244094488188976,
                    "duration": 1.0666669999999954
                },
                {
                    "name": "C#6",
                    "midi": 85,
                    "time": 93.60002924999995,
                    "velocity": 0.4094488188976378,
                    "duration": 0.257777858333327
                },
                {
                    "name": "C#6",
                    "midi": 85,
                    "time": 93.86669599999995,
                    "velocity": 0.5118110236220472,
                    "duration": 1.0666669999999954
                },
                {
                    "name": "C5",
                    "midi": 72,
                    "time": 94.93336299999994,
                    "velocity": 0.2283464566929134,
                    "duration": 1.0666669999999954
                },
                {
                    "name": "C6",
                    "midi": 84,
                    "time": 94.93336299999994,
                    "velocity": 0.3937007874015748,
                    "duration": 0.8000002499999965
                },
                {
                    "name": "F5",
                    "midi": 77,
                    "time": 95.73336324999994,
                    "velocity": 0.3543307086614173,
                    "duration": 0.2533334124999982
                },
                {
                    "name": "F5",
                    "midi": 77,
                    "time": 96.00002999999994,
                    "velocity": 0.4015748031496063,
                    "duration": 1.0666669999999954
                },
                {
                    "name": "A#4",
                    "midi": 70,
                    "time": 97.06669699999993,
                    "velocity": 0.2283464566929134,
                    "duration": 1.0666669999999954
                },
                {
                    "name": "E5",
                    "midi": 76,
                    "time": 97.06669699999993,
                    "velocity": 0.3937007874015748,
                    "duration": 0.8000002499999965
                },
                {
                    "name": "G5",
                    "midi": 79,
                    "time": 97.86669724999993,
                    "velocity": 0.3543307086614173,
                    "duration": 0.2533334124999982
                },
                {
                    "name": "G5",
                    "midi": 79,
                    "time": 98.13336399999993,
                    "velocity": 0.4330708661417323,
                    "duration": 0.8000002499999965
                },
                {
                    "name": "G#5",
                    "midi": 80,
                    "time": 98.93336424999993,
                    "velocity": 0.3937007874015748,
                    "duration": 2.1333339999999907
                },
                {
                    "name": "C5",
                    "midi": 72,
                    "time": 99.20003099999992,
                    "velocity": 0.23622047244094488,
                    "duration": 1.0666669999999954
                },
                {
                    "name": "C5",
                    "midi": 72,
                    "time": 100.26669799999992,
                    "velocity": 0.1889763779527559,
                    "duration": 0.5333334999999977
                },
                {
                    "name": "C#5",
                    "midi": 73,
                    "time": 100.80225372291659,
                    "velocity": 0.2992125984251969,
                    "duration": 0.5333334999999977
                },
                {
                    "name": "C5",
                    "midi": 72,
                    "time": 101.33558722291659,
                    "velocity": 0.33858267716535434,
                    "duration": 0.5333334999999977
                },
                {
                    "name": "C#5",
                    "midi": 73,
                    "time": 101.86892072291658,
                    "velocity": 0.3858267716535433,
                    "duration": 0.5333334999999977
                },
                {
                    "name": "F5",
                    "midi": 77,
                    "time": 102.40225422291658,
                    "velocity": 0.4645669291338583,
                    "duration": 0.5333334999999977
                },
                {
                    "name": "D#5",
                    "midi": 75,
                    "time": 102.93558772291658,
                    "velocity": 0.3464566929133858,
                    "duration": 0.13333337500000653
                },
                {
                    "name": "F5",
                    "midi": 77,
                    "time": 103.06892109791659,
                    "velocity": 0.3464566929133858,
                    "duration": 0.13333337500000653
                },
                {
                    "name": "D#5",
                    "midi": 75,
                    "time": 103.2022544729166,
                    "velocity": 0.3464566929133858,
                    "duration": 0.13333337500000653
                },
                {
                    "name": "D5",
                    "midi": 74,
                    "time": 103.3355878479166,
                    "velocity": 0.3464566929133858,
                    "duration": 0.13333337500000653
                },
                {
                    "name": "D#5",
                    "midi": 75,
                    "time": 103.4689212229166,
                    "velocity": 0.4094488188976378,
                    "duration": 0.8000002499999965
                },
                {
                    "name": "F5",
                    "midi": 77,
                    "time": 104.2689214729166,
                    "velocity": 0.4330708661417323,
                    "duration": 0.26666674999999884
                },
                {
                    "name": "F#5",
                    "midi": 78,
                    "time": 104.5355882229166,
                    "velocity": 0.48031496062992124,
                    "duration": 1.3333337499999942
                },
                {
                    "name": "F5",
                    "midi": 77,
                    "time": 105.8689219729166,
                    "velocity": 0.4409448818897638,
                    "duration": 0.26666674999999884
                },
                {
                    "name": "D#6",
                    "midi": 87,
                    "time": 106.1355887229166,
                    "velocity": 0.5039370078740157,
                    "duration": 0.26666674999999884
                },
                {
                    "name": "C6",
                    "midi": 84,
                    "time": 106.4022554729166,
                    "velocity": 0.4566929133858268,
                    "duration": 0.26222230416667003
                },
                {
                    "name": "C6",
                    "midi": 84,
                    "time": 106.66892222291659,
                    "velocity": 0.5275590551181102,
                    "duration": 1.600000499999993
                },
                {
                    "name": "D#6",
                    "midi": 87,
                    "time": 108.26892272291659,
                    "velocity": 0.3543307086614173,
                    "duration": 0.26666674999999884
                },
                {
                    "name": "C#6",
                    "midi": 85,
                    "time": 108.53558947291658,
                    "velocity": 0.3543307086614173,
                    "duration": 0.26666674999999884
                },
                {
                    "name": "F#4",
                    "midi": 66,
                    "time": 109.86892322291658,
                    "velocity": 0.3543307086614173,
                    "duration": 0.5333334999999977
                },
                {
                    "name": "F4",
                    "midi": 65,
                    "time": 110.40225672291658,
                    "velocity": 0.30708661417322836,
                    "duration": 0.5333335000000119
                },
                {
                    "name": "C#4",
                    "midi": 61,
                    "time": 110.93336799999992,
                    "velocity": 0.29133858267716534,
                    "duration": 1.6000005000000215
                },
                {
                    "name": "F4",
                    "midi": 65,
                    "time": 110.93559022291659,
                    "velocity": 0.4094488188976378,
                    "duration": 0.8000002500000107
                },
                {
                    "name": "G3",
                    "midi": 55,
                    "time": 110.93559022291659,
                    "velocity": 0.25196850393700787,
                    "duration": 1.6000005000000215
                },
                {
                    "name": "A#3",
                    "midi": 58,
                    "time": 110.93559022291659,
                    "velocity": 0.25196850393700787,
                    "duration": 1.6000005000000215
                },
                {
                    "name": "E4",
                    "midi": 64,
                    "time": 111.73336824999993,
                    "velocity": 0.3543307086614173,
                    "duration": 0.26666674999999884
                },
                {
                    "name": "G4",
                    "midi": 67,
                    "time": 112.0022572229166,
                    "velocity": 0.4566929133858268,
                    "duration": 2.133334000000019
                },
                {
                    "name": "G#3",
                    "midi": 56,
                    "time": 114.13336899999995,
                    "velocity": 0.30708661417322836,
                    "duration": 1.0666669999999954
                },
                {
                    "name": "C4",
                    "midi": 60,
                    "time": 114.13559122291662,
                    "velocity": 0.4015748031496063,
                    "duration": 1.0666669999999954
                },
                {
                    "name": "G4",
                    "midi": 67,
                    "time": 114.13559122291662,
                    "velocity": 0.47244094488188976,
                    "duration": 0.8000002499999965
                },
                {
                    "name": "F4",
                    "midi": 65,
                    "time": 114.93559147291661,
                    "velocity": 0.4094488188976378,
                    "duration": 0.2533334124999982
                },
                {
                    "name": "A#3",
                    "midi": 58,
                    "time": 115.20225822291661,
                    "velocity": 0.4094488188976378,
                    "duration": 1.0666670000000096
                },
                {
                    "name": "C4",
                    "midi": 60,
                    "time": 115.20225822291661,
                    "velocity": 0.4094488188976378,
                    "duration": 1.0666670000000096
                },
                {
                    "name": "F4",
                    "midi": 65,
                    "time": 115.20225822291661,
                    "velocity": 0.4881889763779528,
                    "duration": 0.8000002500000107
                },
                {
                    "name": "E4",
                    "midi": 64,
                    "time": 116.00003624999995,
                    "velocity": 0.3937007874015748,
                    "duration": 0.2533334124999982
                },
                {
                    "name": "G#3",
                    "midi": 56,
                    "time": 116.26892522291662,
                    "velocity": 0.4251968503937008,
                    "duration": 1.0666669999999954
                },
                {
                    "name": "C4",
                    "midi": 60,
                    "time": 116.26892522291662,
                    "velocity": 0.4251968503937008,
                    "duration": 1.0666669999999954
                },
                {
                    "name": "G4",
                    "midi": 67,
                    "time": 116.26892522291662,
                    "velocity": 0.5039370078740157,
                    "duration": 0.8000002499999965
                },
                {
                    "name": "F4",
                    "midi": 65,
                    "time": 117.06892547291662,
                    "velocity": 0.4251968503937008,
                    "duration": 0.2533334124999982
                },
                {
                    "name": "G3",
                    "midi": 55,
                    "time": 117.33559222291662,
                    "velocity": 0.4566929133858268,
                    "duration": 1.0666669999999954
                },
                {
                    "name": "C4",
                    "midi": 60,
                    "time": 117.33559222291662,
                    "velocity": 0.4566929133858268,
                    "duration": 1.0666669999999954
                },
                {
                    "name": "G#4",
                    "midi": 68,
                    "time": 117.33559222291662,
                    "velocity": 0.5433070866141733,
                    "duration": 0.8000002499999965
                },
                {
                    "name": "G4",
                    "midi": 67,
                    "time": 118.13559247291661,
                    "velocity": 0.3543307086614173,
                    "duration": 0.2533334124999982
                },
                {
                    "name": "E4",
                    "midi": 64,
                    "time": 118.40003699999994,
                    "velocity": 0.4015748031496063,
                    "duration": 0.26666674999999884
                },
                {
                    "name": "G4",
                    "midi": 67,
                    "time": 118.66892597291661,
                    "velocity": 0.36220472440944884,
                    "duration": 0.26666674999999884
                },
                {
                    "name": "A#4",
                    "midi": 70,
                    "time": 118.93559272291661,
                    "velocity": 0.33070866141732286,
                    "duration": 0.26666674999999884
                },
                {
                    "name": "C#5",
                    "midi": 73,
                    "time": 119.20225947291661,
                    "velocity": 0.3779527559055118,
                    "duration": 0.26666674999999884
                },
                {
                    "name": "C5",
                    "midi": 72,
                    "time": 119.46892622291661,
                    "velocity": 0.4251968503937008,
                    "duration": 0.26666674999999884
                },
                {
                    "name": "A#4",
                    "midi": 70,
                    "time": 119.7355929729166,
                    "velocity": 0.33858267716535434,
                    "duration": 0.26666674999999884
                },
                {
                    "name": "G#4",
                    "midi": 68,
                    "time": 120.0022597229166,
                    "velocity": 0.33858267716535434,
                    "duration": 0.26666674999999884
                },
                {
                    "name": "G4",
                    "midi": 67,
                    "time": 120.2689264729166,
                    "velocity": 0.33858267716535434,
                    "duration": 0.26666674999999884
                },
                {
                    "name": "A#4",
                    "midi": 70,
                    "time": 120.5355932229166,
                    "velocity": 0.41732283464566927,
                    "duration": 0.26666674999999884
                },
                {
                    "name": "E5",
                    "midi": 76,
                    "time": 120.80003774999993,
                    "velocity": 0.3543307086614173,
                    "duration": 0.26666674999999884
                },
                {
                    "name": "G5",
                    "midi": 79,
                    "time": 121.0689267229166,
                    "velocity": 0.3543307086614173,
                    "duration": 0.26666674999999884
                },
                {
                    "name": "A#5",
                    "midi": 82,
                    "time": 121.3355934729166,
                    "velocity": 0.3543307086614173,
                    "duration": 0.26666674999999884
                },
                {
                    "name": "G#5",
                    "midi": 80,
                    "time": 121.6022602229166,
                    "velocity": 0.4251968503937008,
                    "duration": 0.26666674999999884
                },
                {
                    "name": "G5",
                    "midi": 79,
                    "time": 121.8689269729166,
                    "velocity": 0.3543307086614173,
                    "duration": 0.26666674999999884
                },
                {
                    "name": "F5",
                    "midi": 77,
                    "time": 122.1355937229166,
                    "velocity": 0.3543307086614173,
                    "duration": 0.26666674999999884
                },
                {
                    "name": "E5",
                    "midi": 76,
                    "time": 122.40003824999992,
                    "velocity": 0.3543307086614173,
                    "duration": 0.26666674999999884
                },
                {
                    "name": "G5",
                    "midi": 79,
                    "time": 122.6689272229166,
                    "velocity": 0.4015748031496063,
                    "duration": 0.26666674999999884
                },
                {
                    "name": "A#5",
                    "midi": 82,
                    "time": 122.93559397291659,
                    "velocity": 0.41732283464566927,
                    "duration": 0.26666674999999884
                },
                {
                    "name": "C6",
                    "midi": 84,
                    "time": 123.20226072291659,
                    "velocity": 0.4330708661417323,
                    "duration": 0.26666674999999884
                },
                {
                    "name": "C#6",
                    "midi": 85,
                    "time": 123.46892747291659,
                    "velocity": 0.44881889763779526,
                    "duration": 0.26666674999999884
                },
                {
                    "name": "C6",
                    "midi": 84,
                    "time": 123.73559422291659,
                    "velocity": 0.47244094488188976,
                    "duration": 0.26666674999999884
                },
                {
                    "name": "A#5",
                    "midi": 82,
                    "time": 124.00226097291659,
                    "velocity": 0.4015748031496063,
                    "duration": 0.26666674999999884
                },
                {
                    "name": "G#5",
                    "midi": 80,
                    "time": 124.26892772291659,
                    "velocity": 0.4094488188976378,
                    "duration": 0.26666674999999884
                },
                {
                    "name": "G5",
                    "midi": 79,
                    "time": 124.53559447291659,
                    "velocity": 0.4094488188976378,
                    "duration": 0.26666674999999884
                },
                {
                    "name": "A#5",
                    "midi": 82,
                    "time": 124.80226122291658,
                    "velocity": 0.4566929133858268,
                    "duration": 0.26666674999999884
                },
                {
                    "name": "G5",
                    "midi": 79,
                    "time": 125.06892797291658,
                    "velocity": 0.3779527559055118,
                    "duration": 0.26666674999999884
                },
                {
                    "name": "F5",
                    "midi": 77,
                    "time": 125.33559472291658,
                    "velocity": 0.3858267716535433,
                    "duration": 0.26666674999999884
                },
                {
                    "name": "E5",
                    "midi": 76,
                    "time": 125.60003924999991,
                    "velocity": 0.3858267716535433,
                    "duration": 0.26666674999999884
                },
                {
                    "name": "A#5",
                    "midi": 82,
                    "time": 125.86892822291658,
                    "velocity": 0.47244094488188976,
                    "duration": 0.26666674999999884
                },
                {
                    "name": "G5",
                    "midi": 79,
                    "time": 126.13559497291658,
                    "velocity": 0.41732283464566927,
                    "duration": 0.26666674999999884
                },
                {
                    "name": "F5",
                    "midi": 77,
                    "time": 126.40226172291658,
                    "velocity": 0.4330708661417323,
                    "duration": 0.26666674999999884
                },
                {
                    "name": "E5",
                    "midi": 76,
                    "time": 126.6667062499999,
                    "velocity": 0.4409448818897638,
                    "duration": 0.26666674999999884
                },
                {
                    "name": "G6",
                    "midi": 91,
                    "time": 126.9333729999999,
                    "velocity": 0.5433070866141733,
                    "duration": 0.2000000625000098
                },
                {
                    "name": "G5",
                    "midi": 79,
                    "time": 126.93559522291658,
                    "velocity": 0.5433070866141733,
                    "duration": 0.2000000625000098
                },
                {
                    "name": "E6",
                    "midi": 88,
                    "time": 127.20003974999992,
                    "velocity": 0.4645669291338583,
                    "duration": 0.20000006249999558
                },
                {
                    "name": "E5",
                    "midi": 76,
                    "time": 127.20003974999992,
                    "velocity": 0.4645669291338583,
                    "duration": 0.20000006249999558
                },
                {
                    "name": "C#6",
                    "midi": 85,
                    "time": 127.46670649999992,
                    "velocity": 0.49606299212598426,
                    "duration": 0.2000000625000098
                },
                {
                    "name": "C#5",
                    "midi": 73,
                    "time": 127.46892872291659,
                    "velocity": 0.49606299212598426,
                    "duration": 0.2000000625000098
                },
                {
                    "name": "C6",
                    "midi": 84,
                    "time": 127.73337324999993,
                    "velocity": 0.5118110236220472,
                    "duration": 0.2000000625000098
                },
                {
                    "name": "C5",
                    "midi": 72,
                    "time": 127.7355954729166,
                    "velocity": 0.5118110236220472,
                    "duration": 0.2000000625000098
                },
                {
                    "name": "C6",
                    "midi": 84,
                    "time": 128.00003999999996,
                    "velocity": 0.5039370078740157,
                    "duration": 1.0666669999999954
                },
                {
                    "name": "C5",
                    "midi": 72,
                    "time": 128.00003999999996,
                    "velocity": 0.4251968503937008,
                    "duration": 1.0666669999999954
                },
                {
                    "name": "G5",
                    "midi": 79,
                    "time": 129.06670699999995,
                    "velocity": 0.4566929133858268,
                    "duration": 2.1333339999999907
                },
                {
                    "name": "G4",
                    "midi": 67,
                    "time": 129.06670699999995,
                    "velocity": 0.3858267716535433,
                    "duration": 2.1333339999999907
                },
                {
                    "name": "A5",
                    "midi": 81,
                    "time": 131.20004099999994,
                    "velocity": 0.5039370078740157,
                    "duration": 0.5333334999999977
                },
                {
                    "name": "A4",
                    "midi": 69,
                    "time": 131.20004099999994,
                    "velocity": 0.4251968503937008,
                    "duration": 0.5333334999999977
                },
                {
                    "name": "F5",
                    "midi": 77,
                    "time": 131.73337449999994,
                    "velocity": 0.41732283464566927,
                    "duration": 0.5222223854166543
                },
                {
                    "name": "F4",
                    "midi": 65,
                    "time": 131.73337449999994,
                    "velocity": 0.3543307086614173,
                    "duration": 0.5222223854166543
                },
                {
                    "name": "F5",
                    "midi": 77,
                    "time": 132.26670799999994,
                    "velocity": 0.5039370078740157,
                    "duration": 0.5333334999999977
                },
                {
                    "name": "F4",
                    "midi": 65,
                    "time": 132.26670799999994,
                    "velocity": 0.4251968503937008,
                    "duration": 1.0666670000000238
                },
                {
                    "name": "E5",
                    "midi": 76,
                    "time": 132.80004149999994,
                    "velocity": 0.4330708661417323,
                    "duration": 0.13333337500000653
                },
                {
                    "name": "F5",
                    "midi": 77,
                    "time": 132.93337487499994,
                    "velocity": 0.4330708661417323,
                    "duration": 0.13333337500000653
                },
                {
                    "name": "E5",
                    "midi": 76,
                    "time": 133.06670824999995,
                    "velocity": 0.4330708661417323,
                    "duration": 0.13333337500000653
                },
                {
                    "name": "D5",
                    "midi": 74,
                    "time": 133.20004162499995,
                    "velocity": 0.4330708661417323,
                    "duration": 0.13333337500000653
                },
                {
                    "name": "E5",
                    "midi": 76,
                    "time": 133.33337499999996,
                    "velocity": 0.5039370078740157,
                    "duration": 0.5333334999999977
                },
                {
                    "name": "E4",
                    "midi": 64,
                    "time": 133.33337499999996,
                    "velocity": 0.4251968503937008,
                    "duration": 0.5333334999999977
                },
                {
                    "name": "F5",
                    "midi": 77,
                    "time": 133.86670849999996,
                    "velocity": 0.4645669291338583,
                    "duration": 0.5333334999999977
                },
                {
                    "name": "F4",
                    "midi": 65,
                    "time": 133.86670849999996,
                    "velocity": 0.3937007874015748,
                    "duration": 0.5333334999999977
                },
                {
                    "name": "G5",
                    "midi": 79,
                    "time": 134.40004199999996,
                    "velocity": 0.4881889763779528,
                    "duration": 0.5333334999999977
                },
                {
                    "name": "G4",
                    "midi": 67,
                    "time": 134.40004199999996,
                    "velocity": 0.3779527559055118,
                    "duration": 0.5333334999999977
                },
                {
                    "name": "A5",
                    "midi": 81,
                    "time": 134.93337549999995,
                    "velocity": 0.4881889763779528,
                    "duration": 0.5333334999999977
                },
                {
                    "name": "A4",
                    "midi": 69,
                    "time": 134.93337549999995,
                    "velocity": 0.4094488188976378,
                    "duration": 0.5333334999999977
                },
                {
                    "name": "A#5",
                    "midi": 82,
                    "time": 135.46670899999995,
                    "velocity": 0.5039370078740157,
                    "duration": 0.26666675000001305
                },
                {
                    "name": "A#4",
                    "midi": 70,
                    "time": 135.46670899999995,
                    "velocity": 0.4251968503937008,
                    "duration": 0.26666675000001305
                },
                {
                    "name": "B5",
                    "midi": 83,
                    "time": 135.73337574999996,
                    "velocity": 0.44881889763779526,
                    "duration": 0.2533334125000124
                },
                {
                    "name": "B4",
                    "midi": 71,
                    "time": 135.73337574999996,
                    "velocity": 0.3779527559055118,
                    "duration": 0.2533334125000124
                },
                {
                    "name": "B5",
                    "midi": 83,
                    "time": 136.00004249999998,
                    "velocity": 0.5039370078740157,
                    "duration": 0.26666675000001305
                },
                {
                    "name": "B4",
                    "midi": 71,
                    "time": 136.00004249999998,
                    "velocity": 0.4251968503937008,
                    "duration": 0.26666675000001305
                },
                {
                    "name": "C6",
                    "midi": 84,
                    "time": 136.26670925,
                    "velocity": 0.4645669291338583,
                    "duration": 0.26666675000001305
                },
                {
                    "name": "C5",
                    "midi": 72,
                    "time": 136.26670925,
                    "velocity": 0.3937007874015748,
                    "duration": 0.26666675000001305
                },
                {
                    "name": "B5",
                    "midi": 83,
                    "time": 136.533376,
                    "velocity": 0.5039370078740157,
                    "duration": 0.26666675000001305
                },
                {
                    "name": "C6",
                    "midi": 84,
                    "time": 136.80004275000002,
                    "velocity": 0.44881889763779526,
                    "duration": 0.26666675000001305
                },
                {
                    "name": "D6",
                    "midi": 86,
                    "time": 137.06670950000003,
                    "velocity": 0.44881889763779526,
                    "duration": 0.26666675000001305
                },
                {
                    "name": "C6",
                    "midi": 84,
                    "time": 137.33337625000004,
                    "velocity": 0.44881889763779526,
                    "duration": 0.26666675000001305
                },
                {
                    "name": "G5",
                    "midi": 79,
                    "time": 137.60004300000006,
                    "velocity": 0.5039370078740157,
                    "duration": 1.3333337500000084
                },
                {
                    "name": "A5",
                    "midi": 81,
                    "time": 138.93337675000006,
                    "velocity": 0.5039370078740157,
                    "duration": 0.13333337500000653
                },
                {
                    "name": "G5",
                    "midi": 79,
                    "time": 139.06671012500007,
                    "velocity": 0.4330708661417323,
                    "duration": 0.13333337500000653
                },
                {
                    "name": "A5",
                    "midi": 81,
                    "time": 139.20004350000008,
                    "velocity": 0.5039370078740157,
                    "duration": 0.13333337500000653
                },
                {
                    "name": "G5",
                    "midi": 79,
                    "time": 139.33337687500008,
                    "velocity": 0.4251968503937008,
                    "duration": 0.13333337500000653
                },
                {
                    "name": "A#5",
                    "midi": 82,
                    "time": 139.4667102500001,
                    "velocity": 0.5039370078740157,
                    "duration": 0.13333337500000653
                },
                {
                    "name": "A5",
                    "midi": 81,
                    "time": 139.6000436250001,
                    "velocity": 0.4330708661417323,
                    "duration": 0.13333337500000653
                },
                {
                    "name": "A#5",
                    "midi": 82,
                    "time": 139.7333770000001,
                    "velocity": 0.5039370078740157,
                    "duration": 0.13333337500000653
                },
                {
                    "name": "A5",
                    "midi": 81,
                    "time": 139.8667103750001,
                    "velocity": 0.4409448818897638,
                    "duration": 0.13333337500000653
                },
                {
                    "name": "C6",
                    "midi": 84,
                    "time": 140.00004375000012,
                    "velocity": 0.5039370078740157,
                    "duration": 0.13333337500000653
                },
                {
                    "name": "B5",
                    "midi": 83,
                    "time": 140.13337712500012,
                    "velocity": 0.44881889763779526,
                    "duration": 0.13333337500000653
                },
                {
                    "name": "C6",
                    "midi": 84,
                    "time": 140.26671050000013,
                    "velocity": 0.4094488188976378,
                    "duration": 0.06666668750000326
                },
                {
                    "name": "B5",
                    "midi": 83,
                    "time": 140.33337718750013,
                    "velocity": 0.3543307086614173,
                    "duration": 0.06666668750000326
                },
                {
                    "name": "D6",
                    "midi": 86,
                    "time": 140.40004387500014,
                    "velocity": 0.4094488188976378,
                    "duration": 0.06666668750000326
                },
                {
                    "name": "C6",
                    "midi": 84,
                    "time": 140.46671056250014,
                    "velocity": 0.3779527559055118,
                    "duration": 0.06666668750000326
                },
                {
                    "name": "F6",
                    "midi": 89,
                    "time": 140.53337725000014,
                    "velocity": 0.47244094488188976,
                    "duration": 0.13333337500000653
                },
                {
                    "name": "F5",
                    "midi": 77,
                    "time": 140.66671062500015,
                    "velocity": 0.4251968503937008,
                    "duration": 0.1266667062500062
                },
                {
                    "name": "F5",
                    "midi": 77,
                    "time": 140.80004400000016,
                    "velocity": 0.5039370078740157,
                    "duration": 0.5333334999999977
                },
                {
                    "name": "F4",
                    "midi": 65,
                    "time": 140.80004400000016,
                    "velocity": 0.4251968503937008,
                    "duration": 1.0666670000000238
                },
                {
                    "name": "E5",
                    "midi": 76,
                    "time": 141.33337750000015,
                    "velocity": 0.4330708661417323,
                    "duration": 0.13333337500000653
                },
                {
                    "name": "F5",
                    "midi": 77,
                    "time": 141.46671087500016,
                    "velocity": 0.4330708661417323,
                    "duration": 0.13333337500000653
                },
                {
                    "name": "E5",
                    "midi": 76,
                    "time": 141.60004425000017,
                    "velocity": 0.4330708661417323,
                    "duration": 0.13333337500000653
                },
                {
                    "name": "D5",
                    "midi": 74,
                    "time": 141.73337762500017,
                    "velocity": 0.4330708661417323,
                    "duration": 0.13333337500000653
                },
                {
                    "name": "E5",
                    "midi": 76,
                    "time": 141.86671100000018,
                    "velocity": 0.5039370078740157,
                    "duration": 0.5333334999999977
                },
                {
                    "name": "E4",
                    "midi": 64,
                    "time": 141.86671100000018,
                    "velocity": 0.4251968503937008,
                    "duration": 0.5333334999999977
                },
                {
                    "name": "F5",
                    "midi": 77,
                    "time": 142.40004450000018,
                    "velocity": 0.4645669291338583,
                    "duration": 0.5333334999999977
                },
                {
                    "name": "F4",
                    "midi": 65,
                    "time": 142.40004450000018,
                    "velocity": 0.3937007874015748,
                    "duration": 0.5333334999999977
                },
                {
                    "name": "G5",
                    "midi": 79,
                    "time": 142.93337800000018,
                    "velocity": 0.4645669291338583,
                    "duration": 0.5333334999999977
                },
                {
                    "name": "G4",
                    "midi": 67,
                    "time": 142.93337800000018,
                    "velocity": 0.3937007874015748,
                    "duration": 0.5333334999999977
                },
                {
                    "name": "G#5",
                    "midi": 80,
                    "time": 143.46671150000017,
                    "velocity": 0.5039370078740157,
                    "duration": 0.5333334999999977
                },
                {
                    "name": "G#4",
                    "midi": 68,
                    "time": 143.46671150000017,
                    "velocity": 0.4251968503937008,
                    "duration": 0.5333334999999977
                },
                {
                    "name": "A#5",
                    "midi": 82,
                    "time": 144.00004500000017,
                    "velocity": 0.5039370078740157,
                    "duration": 0.26666675000001305
                },
                {
                    "name": "A#4",
                    "midi": 70,
                    "time": 144.00004500000017,
                    "velocity": 0.4251968503937008,
                    "duration": 0.26666675000001305
                },
                {
                    "name": "B5",
                    "midi": 83,
                    "time": 144.26671175000018,
                    "velocity": 0.4566929133858268,
                    "duration": 0.2533334125000124
                },
                {
                    "name": "B4",
                    "midi": 71,
                    "time": 144.26671175000018,
                    "velocity": 0.3858267716535433,
                    "duration": 0.2533334125000124
                },
                {
                    "name": "B5",
                    "midi": 83,
                    "time": 144.5333785000002,
                    "velocity": 0.5039370078740157,
                    "duration": 0.26666675000001305
                },
                {
                    "name": "B4",
                    "midi": 71,
                    "time": 144.5333785000002,
                    "velocity": 0.4251968503937008,
                    "duration": 0.26666675000001305
                },
                {
                    "name": "C6",
                    "midi": 84,
                    "time": 144.8000452500002,
                    "velocity": 0.4409448818897638,
                    "duration": 0.2533334125000124
                },
                {
                    "name": "C5",
                    "midi": 72,
                    "time": 144.8000452500002,
                    "velocity": 0.3700787401574803,
                    "duration": 0.2533334125000124
                },
                {
                    "name": "C6",
                    "midi": 84,
                    "time": 145.06671200000022,
                    "velocity": 0.5590551181102362,
                    "duration": 0.5333334999999977
                },
                {
                    "name": "G#5",
                    "midi": 80,
                    "time": 145.06671200000022,
                    "velocity": 0.47244094488188976,
                    "duration": 0.5333334999999977
                },
                {
                    "name": "C5",
                    "midi": 72,
                    "time": 145.06671200000022,
                    "velocity": 0.47244094488188976,
                    "duration": 0.5333334999999977
                },
                {
                    "name": "C6",
                    "midi": 84,
                    "time": 145.60004550000022,
                    "velocity": 0.5039370078740157,
                    "duration": 0.5333334999999977
                },
                {
                    "name": "G#5",
                    "midi": 80,
                    "time": 145.60004550000022,
                    "velocity": 0.5039370078740157,
                    "duration": 0.5333334999999977
                },
                {
                    "name": "G#6",
                    "midi": 92,
                    "time": 145.60004550000022,
                    "velocity": 0.5984251968503937,
                    "duration": 0.5333334999999977
                },
                {
                    "name": "G#5",
                    "midi": 80,
                    "time": 146.66671250000022,
                    "velocity": 0.5748031496062992,
                    "duration": 0.5333334999999977
                },
                {
                    "name": "C5",
                    "midi": 72,
                    "time": 146.66671250000022,
                    "velocity": 0.4881889763779528,
                    "duration": 0.5333334999999977
                },
                {
                    "name": "G5",
                    "midi": 79,
                    "time": 147.7333795000002,
                    "velocity": 0.5275590551181102,
                    "duration": 0.5333334999999977
                },
                {
                    "name": "A#4",
                    "midi": 70,
                    "time": 147.7333795000002,
                    "velocity": 0.4409448818897638,
                    "duration": 0.5333334999999977
                },
                {
                    "name": "G#4",
                    "midi": 68,
                    "time": 148.8000465000002,
                    "velocity": 0.4015748031496063,
                    "duration": 0.5333334999999977
                },
                {
                    "name": "F5",
                    "midi": 77,
                    "time": 148.8000465000002,
                    "velocity": 0.48031496062992124,
                    "duration": 0.5333334999999977
                },
                {
                    "name": "F5",
                    "midi": 77,
                    "time": 149.3333800000002,
                    "velocity": 0.5590551181102362,
                    "duration": 0.5333334999999977
                },
                {
                    "name": "G#4",
                    "midi": 68,
                    "time": 149.3333800000002,
                    "velocity": 0.49606299212598426,
                    "duration": 0.5333334999999977
                },
                {
                    "name": "G#5",
                    "midi": 80,
                    "time": 149.8667135000002,
                    "velocity": 0.5039370078740157,
                    "duration": 0.5333334999999977
                },
                {
                    "name": "F5",
                    "midi": 77,
                    "time": 149.8667135000002,
                    "velocity": 0.5039370078740157,
                    "duration": 0.5333334999999977
                },
                {
                    "name": "F6",
                    "midi": 89,
                    "time": 149.8667135000002,
                    "velocity": 0.5984251968503937,
                    "duration": 0.5333334999999977
                },
                {
                    "name": "F4",
                    "midi": 65,
                    "time": 150.9333805000002,
                    "velocity": 0.4645669291338583,
                    "duration": 0.5333334999999977
                },
                {
                    "name": "F5",
                    "midi": 77,
                    "time": 150.9333805000002,
                    "velocity": 0.5511811023622047,
                    "duration": 0.5333334999999977
                },
                {
                    "name": "G#4",
                    "midi": 68,
                    "time": 150.9333805000002,
                    "velocity": 0.4645669291338583,
                    "duration": 0.5333334999999977
                },
                {
                    "name": "F4",
                    "midi": 65,
                    "time": 152.0000475000002,
                    "velocity": 0.41732283464566927,
                    "duration": 0.5333334999999977
                },
                {
                    "name": "D#5",
                    "midi": 75,
                    "time": 152.0000475000002,
                    "velocity": 0.49606299212598426,
                    "duration": 0.5333334999999977
                },
                {
                    "name": "C5",
                    "midi": 72,
                    "time": 152.0000475000002,
                    "velocity": 0.41732283464566927,
                    "duration": 0.5333334999999977
                },
                {
                    "name": "F4",
                    "midi": 65,
                    "time": 153.0667145000002,
                    "velocity": 0.3700787401574803,
                    "duration": 0.5333334999999977
                },
                {
                    "name": "C#5",
                    "midi": 73,
                    "time": 153.0667145000002,
                    "velocity": 0.4409448818897638,
                    "duration": 0.5333334999999977
                },
                {
                    "name": "A#4",
                    "midi": 70,
                    "time": 153.0667145000002,
                    "velocity": 0.3700787401574803,
                    "duration": 0.5333334999999977
                },
                {
                    "name": "G#4",
                    "midi": 68,
                    "time": 153.60004800000019,
                    "velocity": 0.23622047244094488,
                    "duration": 4.266668000000038
                },
                {
                    "name": "F4",
                    "midi": 65,
                    "time": 153.60004800000019,
                    "velocity": 0.23622047244094488,
                    "duration": 4.266668000000038
                },
                {
                    "name": "D4",
                    "midi": 62,
                    "time": 153.60004800000019,
                    "velocity": 0.23622047244094488,
                    "duration": 4.266668000000038
                },
                {
                    "name": "C5",
                    "midi": 72,
                    "time": 153.60004800000019,
                    "velocity": 0.3937007874015748,
                    "duration": 0.8000002500000107
                },
                {
                    "name": "B4",
                    "midi": 71,
                    "time": 154.4000482500002,
                    "velocity": 0.3543307086614173,
                    "duration": 0.26666675000001305
                },
                {
                    "name": "D5",
                    "midi": 74,
                    "time": 154.6667150000002,
                    "velocity": 0.3937007874015748,
                    "duration": 3.2000010000000145
                },
                {
                    "name": "C5",
                    "midi": 72,
                    "time": 157.86671600000022,
                    "velocity": 0.3937007874015748,
                    "duration": 0.8000002500000107
                },
                {
                    "name": "B4",
                    "midi": 71,
                    "time": 158.66671625000023,
                    "velocity": 0.3543307086614173,
                    "duration": 0.26666675000001305
                },
                {
                    "name": "D5",
                    "midi": 74,
                    "time": 158.93338300000025,
                    "velocity": 0.3937007874015748,
                    "duration": 0.5333334999999977
                },
                {
                    "name": "D5",
                    "midi": 74,
                    "time": 160.00005000000024,
                    "velocity": 0.3937007874015748,
                    "duration": 0.8000002500000107
                },
                {
                    "name": "C5",
                    "midi": 72,
                    "time": 160.80005025000025,
                    "velocity": 0.3543307086614173,
                    "duration": 0.26666675000001305
                },
                {
                    "name": "D#5",
                    "midi": 75,
                    "time": 161.06671700000027,
                    "velocity": 0.3937007874015748,
                    "duration": 0.5333334999999977
                },
                {
                    "name": "G#4",
                    "midi": 68,
                    "time": 162.13338400000026,
                    "velocity": 0.23622047244094488,
                    "duration": 4.266668000000038
                },
                {
                    "name": "F4",
                    "midi": 65,
                    "time": 162.13338400000026,
                    "velocity": 0.23622047244094488,
                    "duration": 4.266668000000038
                },
                {
                    "name": "D#5",
                    "midi": 75,
                    "time": 162.13338400000026,
                    "velocity": 0.3937007874015748,
                    "duration": 0.8000002500000107
                },
                {
                    "name": "D5",
                    "midi": 74,
                    "time": 162.93338425000027,
                    "velocity": 0.3543307086614173,
                    "duration": 0.26666675000001305
                },
                {
                    "name": "F5",
                    "midi": 77,
                    "time": 163.2000510000003,
                    "velocity": 0.3937007874015748,
                    "duration": 3.2000010000000145
                },
                {
                    "name": "D#5",
                    "midi": 75,
                    "time": 166.4000520000003,
                    "velocity": 0.3937007874015748,
                    "duration": 0.8000002500000107
                },
                {
                    "name": "D5",
                    "midi": 74,
                    "time": 167.2000522500003,
                    "velocity": 0.3543307086614173,
                    "duration": 0.26666675000001305
                },
                {
                    "name": "F5",
                    "midi": 77,
                    "time": 167.46671900000032,
                    "velocity": 0.3937007874015748,
                    "duration": 0.5333334999999977
                },
                {
                    "name": "F5",
                    "midi": 77,
                    "time": 168.53338600000032,
                    "velocity": 0.3937007874015748,
                    "duration": 0.8000002500000107
                },
                {
                    "name": "D#5",
                    "midi": 75,
                    "time": 169.33338625000033,
                    "velocity": 0.3543307086614173,
                    "duration": 0.26666675000001305
                },
                {
                    "name": "G5",
                    "midi": 79,
                    "time": 169.60005300000034,
                    "velocity": 0.3937007874015748,
                    "duration": 0.5333334999999977
                },
                {
                    "name": "G#4",
                    "midi": 68,
                    "time": 170.66672000000034,
                    "velocity": 0.31496062992125984,
                    "duration": 0.8000002500000107
                },
                {
                    "name": "D5",
                    "midi": 74,
                    "time": 170.66672000000034,
                    "velocity": 0.31496062992125984,
                    "duration": 0.8000002500000107
                },
                {
                    "name": "G5",
                    "midi": 79,
                    "time": 170.66672000000034,
                    "velocity": 0.3937007874015748,
                    "duration": 0.8000002500000107
                },
                {
                    "name": "F5",
                    "midi": 77,
                    "time": 171.46672025000035,
                    "velocity": 0.3543307086614173,
                    "duration": 0.26666675000001305
                },
                {
                    "name": "G#5",
                    "midi": 80,
                    "time": 171.73338700000036,
                    "velocity": 0.3937007874015748,
                    "duration": 1.866667250000006
                },
                {
                    "name": "F5",
                    "midi": 77,
                    "time": 173.60005425000037,
                    "velocity": 0.3543307086614173,
                    "duration": 0.26666675000001305
                },
                {
                    "name": "D6",
                    "midi": 86,
                    "time": 173.86672100000038,
                    "velocity": 0.3937007874015748,
                    "duration": 1.866667250000006
                },
                {
                    "name": "G#5",
                    "midi": 80,
                    "time": 175.7333882500004,
                    "velocity": 0.3543307086614173,
                    "duration": 0.26666675000001305
                },
                {
                    "name": "F6",
                    "midi": 89,
                    "time": 176.0000550000004,
                    "velocity": 0.3937007874015748,
                    "duration": 1.866667250000006
                },
                {
                    "name": "D6",
                    "midi": 86,
                    "time": 177.8667222500004,
                    "velocity": 0.3543307086614173,
                    "duration": 0.26666675000001305
                },
                {
                    "name": "G#6",
                    "midi": 92,
                    "time": 178.13338900000042,
                    "velocity": 0.41732283464566927,
                    "duration": 1.0666669999999954
                }
            ],
            "controlChanges": {},
            "id": 1,
            "name": "Piano right",
            "instrumentNumber": 0,
            "instrument": "acoustic grand piano",
            "instrumentFamily": "piano",
            "channelNumber": 0,
            "isPercussion": false
        },
        {
            "startTime": 0,
            "duration": 179.2000560000015,
            "length": 430,
            "notes": [
                {
                    "name": "C3",
                    "midi": 48,
                    "time": 0,
                    "velocity": 0.23622047244094488,
                    "duration": 4.266668
                },
                {
                    "name": "D#4",
                    "midi": 63,
                    "time": 0,
                    "velocity": 0.23622047244094488,
                    "duration": 4.266668
                },
                {
                    "name": "F#3",
                    "midi": 54,
                    "time": 1.066667,
                    "velocity": 0.18110236220472442,
                    "duration": 1.066667
                },
                {
                    "name": "A3",
                    "midi": 57,
                    "time": 2.133334,
                    "velocity": 0.2283464566929134,
                    "duration": 1.0666670000000003
                },
                {
                    "name": "F#3",
                    "midi": 54,
                    "time": 3.2000010000000003,
                    "velocity": 0.18110236220472442,
                    "duration": 1.0666669999999998
                },
                {
                    "name": "C3",
                    "midi": 48,
                    "time": 4.266668,
                    "velocity": 0.23622047244094488,
                    "duration": 4.266668
                },
                {
                    "name": "D#4",
                    "midi": 63,
                    "time": 4.266668,
                    "velocity": 0.23622047244094488,
                    "duration": 4.266668
                },
                {
                    "name": "F#3",
                    "midi": 54,
                    "time": 5.333335,
                    "velocity": 0.18110236220472442,
                    "duration": 1.0666669999999998
                },
                {
                    "name": "A3",
                    "midi": 57,
                    "time": 6.400002,
                    "velocity": 0.2283464566929134,
                    "duration": 1.0666669999999998
                },
                {
                    "name": "F#3",
                    "midi": 54,
                    "time": 7.466669,
                    "velocity": 0.18110236220472442,
                    "duration": 1.0666670000000007
                },
                {
                    "name": "B2",
                    "midi": 47,
                    "time": 9.600003000000001,
                    "velocity": 0.1889763779527559,
                    "duration": 1.0666670000000007
                },
                {
                    "name": "G3",
                    "midi": 55,
                    "time": 9.600003000000001,
                    "velocity": 0.2283464566929134,
                    "duration": 1.0666670000000007
                },
                {
                    "name": "D3",
                    "midi": 50,
                    "time": 11.733337000000002,
                    "velocity": 0.1889763779527559,
                    "duration": 1.0666670000000007
                },
                {
                    "name": "A3",
                    "midi": 57,
                    "time": 11.733337000000002,
                    "velocity": 0.2283464566929134,
                    "duration": 1.0666670000000007
                },
                {
                    "name": "G2",
                    "midi": 43,
                    "time": 13.866671000000004,
                    "velocity": 0.15748031496062992,
                    "duration": 1.0666670000000007
                },
                {
                    "name": "G3",
                    "midi": 55,
                    "time": 13.866671000000004,
                    "velocity": 0.1889763779527559,
                    "duration": 1.0666670000000007
                },
                {
                    "name": "G2",
                    "midi": 43,
                    "time": 14.933338000000004,
                    "velocity": 0.15748031496062992,
                    "duration": 1.0666670000000007
                },
                {
                    "name": "G3",
                    "midi": 55,
                    "time": 14.933338000000004,
                    "velocity": 0.1889763779527559,
                    "duration": 1.0666670000000007
                },
                {
                    "name": "F3",
                    "midi": 53,
                    "time": 17.066672000000004,
                    "velocity": 0.23622047244094488,
                    "duration": 4.266667999999996
                },
                {
                    "name": "G#4",
                    "midi": 68,
                    "time": 17.066672000000004,
                    "velocity": 0.23622047244094488,
                    "duration": 4.266667999999996
                },
                {
                    "name": "B3",
                    "midi": 59,
                    "time": 18.133339000000003,
                    "velocity": 0.2440944881889764,
                    "duration": 1.066666999999999
                },
                {
                    "name": "D4",
                    "midi": 62,
                    "time": 19.200006000000002,
                    "velocity": 0.28346456692913385,
                    "duration": 1.066666999999999
                },
                {
                    "name": "B3",
                    "midi": 59,
                    "time": 20.266673,
                    "velocity": 0.25196850393700787,
                    "duration": 1.066666999999999
                },
                {
                    "name": "F3",
                    "midi": 53,
                    "time": 21.33334,
                    "velocity": 0.2677165354330709,
                    "duration": 4.266667999999996
                },
                {
                    "name": "G#4",
                    "midi": 68,
                    "time": 21.33334,
                    "velocity": 0.2677165354330709,
                    "duration": 4.266667999999996
                },
                {
                    "name": "B3",
                    "midi": 59,
                    "time": 22.400007,
                    "velocity": 0.28346456692913385,
                    "duration": 1.066666999999999
                },
                {
                    "name": "D4",
                    "midi": 62,
                    "time": 23.466673999999998,
                    "velocity": 0.31496062992125984,
                    "duration": 1.066666999999999
                },
                {
                    "name": "B3",
                    "midi": 59,
                    "time": 24.533340999999997,
                    "velocity": 0.2677165354330709,
                    "duration": 1.066666999999999
                },
                {
                    "name": "D#3",
                    "midi": 51,
                    "time": 26.666674999999994,
                    "velocity": 0.2125984251968504,
                    "duration": 1.066666999999999
                },
                {
                    "name": "C4",
                    "midi": 60,
                    "time": 26.666674999999994,
                    "velocity": 0.25984251968503935,
                    "duration": 1.066666999999999
                },
                {
                    "name": "G3",
                    "midi": 55,
                    "time": 28.800008999999992,
                    "velocity": 0.2125984251968504,
                    "duration": 1.066666999999999
                },
                {
                    "name": "D4",
                    "midi": 62,
                    "time": 28.800008999999992,
                    "velocity": 0.25984251968503935,
                    "duration": 1.066666999999999
                },
                {
                    "name": "C3",
                    "midi": 48,
                    "time": 30.93334299999999,
                    "velocity": 0.1889763779527559,
                    "duration": 1.066666999999999
                },
                {
                    "name": "C4",
                    "midi": 60,
                    "time": 30.93334299999999,
                    "velocity": 0.2283464566929134,
                    "duration": 1.066666999999999
                },
                {
                    "name": "C3",
                    "midi": 48,
                    "time": 32.00000999999999,
                    "velocity": 0.25984251968503935,
                    "duration": 0.5333334999999977
                },
                {
                    "name": "C4",
                    "midi": 60,
                    "time": 32.00000999999999,
                    "velocity": 0.25984251968503935,
                    "duration": 0.5333334999999977
                },
                {
                    "name": "D#4",
                    "midi": 63,
                    "time": 32.53334349999999,
                    "velocity": 0.2755905511811024,
                    "duration": 0.5333334999999977
                },
                {
                    "name": "C4",
                    "midi": 60,
                    "time": 32.53334349999999,
                    "velocity": 0.2283464566929134,
                    "duration": 0.5333334999999977
                },
                {
                    "name": "A#3",
                    "midi": 58,
                    "time": 33.066676999999984,
                    "velocity": 0.2440944881889764,
                    "duration": 0.5333334999999977
                },
                {
                    "name": "C#4",
                    "midi": 61,
                    "time": 33.066676999999984,
                    "velocity": 0.2440944881889764,
                    "duration": 0.5333334999999977
                },
                {
                    "name": "D#4",
                    "midi": 63,
                    "time": 33.066676999999984,
                    "velocity": 0.29133858267716534,
                    "duration": 0.5333334999999977
                },
                {
                    "name": "D#4",
                    "midi": 63,
                    "time": 33.60001049999998,
                    "velocity": 0.31496062992125984,
                    "duration": 0.5333334999999977
                },
                {
                    "name": "C4",
                    "midi": 60,
                    "time": 33.60001049999998,
                    "velocity": 0.2677165354330709,
                    "duration": 0.5333334999999977
                },
                {
                    "name": "G#3",
                    "midi": 56,
                    "time": 33.60001049999998,
                    "velocity": 0.2677165354330709,
                    "duration": 0.5333334999999977
                },
                {
                    "name": "G3",
                    "midi": 55,
                    "time": 34.13334399999998,
                    "velocity": 0.2992125984251969,
                    "duration": 1.0666670000000025
                },
                {
                    "name": "A#3",
                    "midi": 58,
                    "time": 34.13334399999998,
                    "velocity": 0.2992125984251969,
                    "duration": 1.0666670000000025
                },
                {
                    "name": "D#4",
                    "midi": 63,
                    "time": 34.13334399999998,
                    "velocity": 0.36220472440944884,
                    "duration": 1.0666670000000025
                },
                {
                    "name": "G3",
                    "midi": 55,
                    "time": 35.20001099999998,
                    "velocity": 0.28346456692913385,
                    "duration": 1.6000005000000002
                },
                {
                    "name": "A#3",
                    "midi": 58,
                    "time": 35.20001099999998,
                    "velocity": 0.28346456692913385,
                    "duration": 1.6000005000000002
                },
                {
                    "name": "E4",
                    "midi": 64,
                    "time": 35.20001099999998,
                    "velocity": 0.33858267716535434,
                    "duration": 1.6000005000000002
                },
                {
                    "name": "F3",
                    "midi": 53,
                    "time": 36.80001149999998,
                    "velocity": 0.2677165354330709,
                    "duration": 0.5333334999999977
                },
                {
                    "name": "G#3",
                    "midi": 56,
                    "time": 36.80001149999998,
                    "velocity": 0.2677165354330709,
                    "duration": 0.5333334999999977
                },
                {
                    "name": "C#4",
                    "midi": 61,
                    "time": 36.80001149999998,
                    "velocity": 0.31496062992125984,
                    "duration": 0.5333334999999977
                },
                {
                    "name": "E3",
                    "midi": 52,
                    "time": 37.33334499999998,
                    "velocity": 0.33070866141732286,
                    "duration": 0.5333334999999977
                },
                {
                    "name": "G3",
                    "midi": 55,
                    "time": 37.33334499999998,
                    "velocity": 0.33070866141732286,
                    "duration": 0.5333334999999977
                },
                {
                    "name": "C4",
                    "midi": 60,
                    "time": 37.33334499999998,
                    "velocity": 0.3937007874015748,
                    "duration": 0.5333334999999977
                },
                {
                    "name": "E3",
                    "midi": 52,
                    "time": 37.86667849999998,
                    "velocity": 0.2677165354330709,
                    "duration": 0.5333334999999977
                },
                {
                    "name": "G3",
                    "midi": 55,
                    "time": 37.86667849999998,
                    "velocity": 0.2677165354330709,
                    "duration": 0.5333334999999977
                },
                {
                    "name": "C4",
                    "midi": 60,
                    "time": 37.86667849999998,
                    "velocity": 0.31496062992125984,
                    "duration": 0.5333334999999977
                },
                {
                    "name": "E3",
                    "midi": 52,
                    "time": 38.400011999999975,
                    "velocity": 0.2677165354330709,
                    "duration": 1.0666670000000025
                },
                {
                    "name": "G3",
                    "midi": 55,
                    "time": 38.400011999999975,
                    "velocity": 0.2677165354330709,
                    "duration": 1.0666670000000025
                },
                {
                    "name": "C4",
                    "midi": 60,
                    "time": 38.400011999999975,
                    "velocity": 0.31496062992125984,
                    "duration": 1.0666670000000025
                },
                {
                    "name": "F3",
                    "midi": 53,
                    "time": 39.46667899999998,
                    "velocity": 0.1889763779527559,
                    "duration": 1.0666670000000025
                },
                {
                    "name": "G#3",
                    "midi": 56,
                    "time": 39.46667899999998,
                    "velocity": 0.1889763779527559,
                    "duration": 1.0666670000000025
                },
                {
                    "name": "C4",
                    "midi": 60,
                    "time": 39.46667899999998,
                    "velocity": 0.2283464566929134,
                    "duration": 1.0666670000000025
                },
                {
                    "name": "D2",
                    "midi": 38,
                    "time": 42.66667999999998,
                    "velocity": 0.2125984251968504,
                    "duration": 3.2000010000000074
                },
                {
                    "name": "D#3",
                    "midi": 51,
                    "time": 42.66667999999998,
                    "velocity": 0.2992125984251969,
                    "duration": 1.0666670000000025
                },
                {
                    "name": "F#2",
                    "midi": 42,
                    "time": 43.73334699999998,
                    "velocity": 0.33858267716535434,
                    "duration": 1.0666670000000025
                },
                {
                    "name": "A2",
                    "midi": 45,
                    "time": 44.80001399999998,
                    "velocity": 0.33858267716535434,
                    "duration": 1.0666670000000025
                },
                {
                    "name": "A#2",
                    "midi": 46,
                    "time": 45.866680999999986,
                    "velocity": 0.25196850393700787,
                    "duration": 1.0666670000000025
                },
                {
                    "name": "D3",
                    "midi": 50,
                    "time": 45.866680999999986,
                    "velocity": 0.25196850393700787,
                    "duration": 1.0666670000000025
                },
                {
                    "name": "A#3",
                    "midi": 58,
                    "time": 45.866680999999986,
                    "velocity": 0.3543307086614173,
                    "duration": 1.0666670000000025
                },
                {
                    "name": "A2",
                    "midi": 45,
                    "time": 46.93334799999999,
                    "velocity": 0.25196850393700787,
                    "duration": 1.0666670000000025
                },
                {
                    "name": "D3",
                    "midi": 50,
                    "time": 46.93334799999999,
                    "velocity": 0.25196850393700787,
                    "duration": 1.0666670000000025
                },
                {
                    "name": "A3",
                    "midi": 57,
                    "time": 46.93334799999999,
                    "velocity": 0.3543307086614173,
                    "duration": 1.0666670000000025
                },
                {
                    "name": "G2",
                    "midi": 43,
                    "time": 48.00001499999999,
                    "velocity": 0.25196850393700787,
                    "duration": 1.0666670000000025
                },
                {
                    "name": "D3",
                    "midi": 50,
                    "time": 48.00001499999999,
                    "velocity": 0.25196850393700787,
                    "duration": 1.0666670000000025
                },
                {
                    "name": "G3",
                    "midi": 55,
                    "time": 48.00001499999999,
                    "velocity": 0.3543307086614173,
                    "duration": 1.0666670000000025
                },
                {
                    "name": "F#2",
                    "midi": 42,
                    "time": 49.06668199999999,
                    "velocity": 0.25196850393700787,
                    "duration": 1.0666670000000025
                },
                {
                    "name": "D3",
                    "midi": 50,
                    "time": 49.06668199999999,
                    "velocity": 0.25196850393700787,
                    "duration": 1.0666670000000025
                },
                {
                    "name": "F#3",
                    "midi": 54,
                    "time": 49.06668199999999,
                    "velocity": 0.3543307086614173,
                    "duration": 1.0666670000000025
                },
                {
                    "name": "F#3",
                    "midi": 54,
                    "time": 59.733352,
                    "velocity": 0.2992125984251969,
                    "duration": 0.26666674999999884
                },
                {
                    "name": "A3",
                    "midi": 57,
                    "time": 59.733352,
                    "velocity": 0.3543307086614173,
                    "duration": 0.26666674999999884
                },
                {
                    "name": "D4",
                    "midi": 62,
                    "time": 60.000018749999995,
                    "velocity": 0.2440944881889764,
                    "duration": 0.26666674999999884
                },
                {
                    "name": "F#3",
                    "midi": 54,
                    "time": 60.266685499999994,
                    "velocity": 0.2047244094488189,
                    "duration": 0.26666674999999884
                },
                {
                    "name": "A3",
                    "midi": 57,
                    "time": 60.266685499999994,
                    "velocity": 0.2440944881889764,
                    "duration": 0.26666674999999884
                },
                {
                    "name": "D4",
                    "midi": 62,
                    "time": 60.53335224999999,
                    "velocity": 0.2440944881889764,
                    "duration": 0.26666674999999884
                },
                {
                    "name": "F#3",
                    "midi": 54,
                    "time": 60.80001899999999,
                    "velocity": 0.28346456692913385,
                    "duration": 0.26666674999999884
                },
                {
                    "name": "A3",
                    "midi": 57,
                    "time": 60.80001899999999,
                    "velocity": 0.33858267716535434,
                    "duration": 0.26666674999999884
                },
                {
                    "name": "D4",
                    "midi": 62,
                    "time": 61.06668574999999,
                    "velocity": 0.25196850393700787,
                    "duration": 0.26666674999999884
                },
                {
                    "name": "F#3",
                    "midi": 54,
                    "time": 61.33335249999999,
                    "velocity": 0.2125984251968504,
                    "duration": 0.26666674999999884
                },
                {
                    "name": "A3",
                    "midi": 57,
                    "time": 61.33335249999999,
                    "velocity": 0.25196850393700787,
                    "duration": 0.26666674999999884
                },
                {
                    "name": "D4",
                    "midi": 62,
                    "time": 61.60001924999999,
                    "velocity": 0.25196850393700787,
                    "duration": 0.26666674999999884
                },
                {
                    "name": "F#3",
                    "midi": 54,
                    "time": 61.86668599999999,
                    "velocity": 0.2755905511811024,
                    "duration": 0.26666674999999884
                },
                {
                    "name": "A3",
                    "midi": 57,
                    "time": 61.86668599999999,
                    "velocity": 0.33070866141732286,
                    "duration": 0.26666674999999884
                },
                {
                    "name": "D4",
                    "midi": 62,
                    "time": 62.133352749999986,
                    "velocity": 0.25984251968503935,
                    "duration": 0.26666674999999884
                },
                {
                    "name": "F#3",
                    "midi": 54,
                    "time": 62.400019499999985,
                    "velocity": 0.2204724409448819,
                    "duration": 0.26666674999999884
                },
                {
                    "name": "A3",
                    "midi": 57,
                    "time": 62.400019499999985,
                    "velocity": 0.25984251968503935,
                    "duration": 0.26666674999999884
                },
                {
                    "name": "D4",
                    "midi": 62,
                    "time": 62.666686249999984,
                    "velocity": 0.25984251968503935,
                    "duration": 0.26666674999999884
                },
                {
                    "name": "G3",
                    "midi": 55,
                    "time": 62.93335299999998,
                    "velocity": 0.28346456692913385,
                    "duration": 0.26666674999999884
                },
                {
                    "name": "B3",
                    "midi": 59,
                    "time": 62.93335299999998,
                    "velocity": 0.33858267716535434,
                    "duration": 0.26666674999999884
                },
                {
                    "name": "D4",
                    "midi": 62,
                    "time": 63.20001974999998,
                    "velocity": 0.23622047244094488,
                    "duration": 0.26666674999999884
                },
                {
                    "name": "G3",
                    "midi": 55,
                    "time": 63.46668649999998,
                    "velocity": 0.1968503937007874,
                    "duration": 0.26666674999999884
                },
                {
                    "name": "B3",
                    "midi": 59,
                    "time": 63.46668649999998,
                    "velocity": 0.23622047244094488,
                    "duration": 0.26666674999999884
                },
                {
                    "name": "D4",
                    "midi": 62,
                    "time": 63.73335324999998,
                    "velocity": 0.23622047244094488,
                    "duration": 0.26666674999999884
                },
                {
                    "name": "A3",
                    "midi": 57,
                    "time": 64.00001999999998,
                    "velocity": 0.2992125984251969,
                    "duration": 0.26666674999999884
                },
                {
                    "name": "C4",
                    "midi": 60,
                    "time": 64.00001999999998,
                    "velocity": 0.3543307086614173,
                    "duration": 0.26666674999999884
                },
                {
                    "name": "D4",
                    "midi": 62,
                    "time": 64.26668674999998,
                    "velocity": 0.25196850393700787,
                    "duration": 0.26666674999999884
                },
                {
                    "name": "A3",
                    "midi": 57,
                    "time": 64.53335349999998,
                    "velocity": 0.2125984251968504,
                    "duration": 0.26666674999999884
                },
                {
                    "name": "C4",
                    "midi": 60,
                    "time": 64.53335349999998,
                    "velocity": 0.25196850393700787,
                    "duration": 0.26666674999999884
                },
                {
                    "name": "D4",
                    "midi": 62,
                    "time": 64.80002024999997,
                    "velocity": 0.25196850393700787,
                    "duration": 0.26666674999999884
                },
                {
                    "name": "A3",
                    "midi": 57,
                    "time": 65.06668699999997,
                    "velocity": 0.2992125984251969,
                    "duration": 0.26666674999999884
                },
                {
                    "name": "C4",
                    "midi": 60,
                    "time": 65.06668699999997,
                    "velocity": 0.3543307086614173,
                    "duration": 0.26666674999999884
                },
                {
                    "name": "D4",
                    "midi": 62,
                    "time": 65.33335374999997,
                    "velocity": 0.2440944881889764,
                    "duration": 0.26666674999999884
                },
                {
                    "name": "A3",
                    "midi": 57,
                    "time": 65.60002049999997,
                    "velocity": 0.2047244094488189,
                    "duration": 0.26666674999999884
                },
                {
                    "name": "C4",
                    "midi": 60,
                    "time": 65.60002049999997,
                    "velocity": 0.2440944881889764,
                    "duration": 0.26666674999999884
                },
                {
                    "name": "D4",
                    "midi": 62,
                    "time": 65.86668724999997,
                    "velocity": 0.2440944881889764,
                    "duration": 0.26666674999999884
                },
                {
                    "name": "A3",
                    "midi": 57,
                    "time": 66.13335399999997,
                    "velocity": 0.2992125984251969,
                    "duration": 0.26666674999999884
                },
                {
                    "name": "C4",
                    "midi": 60,
                    "time": 66.13335399999997,
                    "velocity": 0.3543307086614173,
                    "duration": 0.26666674999999884
                },
                {
                    "name": "D4",
                    "midi": 62,
                    "time": 66.40002074999997,
                    "velocity": 0.25984251968503935,
                    "duration": 0.26666674999999884
                },
                {
                    "name": "G3",
                    "midi": 55,
                    "time": 66.66668749999997,
                    "velocity": 0.2204724409448819,
                    "duration": 0.26666674999999884
                },
                {
                    "name": "B3",
                    "midi": 59,
                    "time": 66.66668749999997,
                    "velocity": 0.25984251968503935,
                    "duration": 0.26666674999999884
                },
                {
                    "name": "D4",
                    "midi": 62,
                    "time": 66.93335424999997,
                    "velocity": 0.25984251968503935,
                    "duration": 0.26666674999999884
                },
                {
                    "name": "F#3",
                    "midi": 54,
                    "time": 67.20002099999996,
                    "velocity": 0.2992125984251969,
                    "duration": 0.26666674999999884
                },
                {
                    "name": "A3",
                    "midi": 57,
                    "time": 67.20002099999996,
                    "velocity": 0.3543307086614173,
                    "duration": 0.26666674999999884
                },
                {
                    "name": "D4",
                    "midi": 62,
                    "time": 67.46668774999996,
                    "velocity": 0.25984251968503935,
                    "duration": 0.26666674999999884
                },
                {
                    "name": "F#3",
                    "midi": 54,
                    "time": 67.73335449999996,
                    "velocity": 0.2204724409448819,
                    "duration": 0.26666674999999884
                },
                {
                    "name": "A3",
                    "midi": 57,
                    "time": 67.73335449999996,
                    "velocity": 0.25984251968503935,
                    "duration": 0.26666674999999884
                },
                {
                    "name": "D4",
                    "midi": 62,
                    "time": 68.00002124999996,
                    "velocity": 0.25984251968503935,
                    "duration": 0.26666674999999884
                },
                {
                    "name": "F#3",
                    "midi": 54,
                    "time": 68.26668799999996,
                    "velocity": 0.2992125984251969,
                    "duration": 0.26666674999999884
                },
                {
                    "name": "A3",
                    "midi": 57,
                    "time": 68.26668799999996,
                    "velocity": 0.3543307086614173,
                    "duration": 0.26666674999999884
                },
                {
                    "name": "D4",
                    "midi": 62,
                    "time": 68.53335474999996,
                    "velocity": 0.2677165354330709,
                    "duration": 0.26666674999999884
                },
                {
                    "name": "F#3",
                    "midi": 54,
                    "time": 68.80002149999996,
                    "velocity": 0.2204724409448819,
                    "duration": 0.26666674999999884
                },
                {
                    "name": "A3",
                    "midi": 57,
                    "time": 68.80002149999996,
                    "velocity": 0.2677165354330709,
                    "duration": 0.26666674999999884
                },
                {
                    "name": "D4",
                    "midi": 62,
                    "time": 69.06668824999996,
                    "velocity": 0.2677165354330709,
                    "duration": 0.26666674999999884
                },
                {
                    "name": "F#3",
                    "midi": 54,
                    "time": 69.33335499999995,
                    "velocity": 0.29133858267716534,
                    "duration": 0.26666674999999884
                },
                {
                    "name": "A3",
                    "midi": 57,
                    "time": 69.33335499999995,
                    "velocity": 0.3464566929133858,
                    "duration": 0.26666674999999884
                },
                {
                    "name": "D4",
                    "midi": 62,
                    "time": 69.60002174999995,
                    "velocity": 0.25984251968503935,
                    "duration": 0.26666674999999884
                },
                {
                    "name": "F#3",
                    "midi": 54,
                    "time": 69.86668849999995,
                    "velocity": 0.2204724409448819,
                    "duration": 0.26666674999999884
                },
                {
                    "name": "A3",
                    "midi": 57,
                    "time": 69.86668849999995,
                    "velocity": 0.25984251968503935,
                    "duration": 0.26666674999999884
                },
                {
                    "name": "D4",
                    "midi": 62,
                    "time": 70.13335524999995,
                    "velocity": 0.25984251968503935,
                    "duration": 0.26666674999999884
                },
                {
                    "name": "F#3",
                    "midi": 54,
                    "time": 70.40002199999995,
                    "velocity": 0.2992125984251969,
                    "duration": 0.26666674999999884
                },
                {
                    "name": "A3",
                    "midi": 57,
                    "time": 70.40002199999995,
                    "velocity": 0.3543307086614173,
                    "duration": 0.26666674999999884
                },
                {
                    "name": "D4",
                    "midi": 62,
                    "time": 70.66668874999995,
                    "velocity": 0.2677165354330709,
                    "duration": 0.26666674999999884
                },
                {
                    "name": "F#3",
                    "midi": 54,
                    "time": 70.93335549999995,
                    "velocity": 0.2204724409448819,
                    "duration": 0.26666674999999884
                },
                {
                    "name": "A3",
                    "midi": 57,
                    "time": 70.93335549999995,
                    "velocity": 0.2677165354330709,
                    "duration": 0.26666674999999884
                },
                {
                    "name": "D4",
                    "midi": 62,
                    "time": 71.20002224999995,
                    "velocity": 0.2677165354330709,
                    "duration": 0.26666674999999884
                },
                {
                    "name": "G3",
                    "midi": 55,
                    "time": 71.46668899999995,
                    "velocity": 0.2992125984251969,
                    "duration": 0.26666674999999884
                },
                {
                    "name": "B3",
                    "midi": 59,
                    "time": 71.46668899999995,
                    "velocity": 0.3543307086614173,
                    "duration": 0.26666674999999884
                },
                {
                    "name": "D4",
                    "midi": 62,
                    "time": 71.73335574999994,
                    "velocity": 0.2677165354330709,
                    "duration": 0.26666674999999884
                },
                {
                    "name": "G3",
                    "midi": 55,
                    "time": 72.00002249999994,
                    "velocity": 0.2204724409448819,
                    "duration": 0.26666674999999884
                },
                {
                    "name": "B3",
                    "midi": 59,
                    "time": 72.00002249999994,
                    "velocity": 0.2677165354330709,
                    "duration": 0.26666674999999884
                },
                {
                    "name": "D4",
                    "midi": 62,
                    "time": 72.26668924999994,
                    "velocity": 0.2677165354330709,
                    "duration": 0.26666674999999884
                },
                {
                    "name": "A3",
                    "midi": 57,
                    "time": 72.53335599999994,
                    "velocity": 0.2992125984251969,
                    "duration": 0.26666674999999884
                },
                {
                    "name": "C4",
                    "midi": 60,
                    "time": 72.53335599999994,
                    "velocity": 0.3543307086614173,
                    "duration": 0.26666674999999884
                },
                {
                    "name": "D4",
                    "midi": 62,
                    "time": 72.80002274999994,
                    "velocity": 0.25984251968503935,
                    "duration": 0.26666674999999884
                },
                {
                    "name": "A3",
                    "midi": 57,
                    "time": 73.06668949999994,
                    "velocity": 0.2204724409448819,
                    "duration": 0.26666674999999884
                },
                {
                    "name": "C4",
                    "midi": 60,
                    "time": 73.06668949999994,
                    "velocity": 0.25984251968503935,
                    "duration": 0.26666674999999884
                },
                {
                    "name": "D4",
                    "midi": 62,
                    "time": 73.33335624999994,
                    "velocity": 0.2677165354330709,
                    "duration": 0.26666674999999884
                },
                {
                    "name": "A3",
                    "midi": 57,
                    "time": 73.60002299999994,
                    "velocity": 0.30708661417322836,
                    "duration": 0.26666674999999884
                },
                {
                    "name": "C4",
                    "midi": 60,
                    "time": 73.60002299999994,
                    "velocity": 0.36220472440944884,
                    "duration": 0.26666674999999884
                },
                {
                    "name": "D4",
                    "midi": 62,
                    "time": 73.86668974999994,
                    "velocity": 0.2755905511811024,
                    "duration": 0.26666674999999884
                },
                {
                    "name": "A3",
                    "midi": 57,
                    "time": 74.13335649999993,
                    "velocity": 0.2283464566929134,
                    "duration": 0.26666674999999884
                },
                {
                    "name": "C4",
                    "midi": 60,
                    "time": 74.13335649999993,
                    "velocity": 0.2755905511811024,
                    "duration": 0.26666674999999884
                },
                {
                    "name": "D4",
                    "midi": 62,
                    "time": 74.40002324999993,
                    "velocity": 0.2755905511811024,
                    "duration": 0.26666674999999884
                },
                {
                    "name": "A3",
                    "midi": 57,
                    "time": 74.66668999999993,
                    "velocity": 0.2992125984251969,
                    "duration": 0.26666674999999884
                },
                {
                    "name": "C4",
                    "midi": 60,
                    "time": 74.66668999999993,
                    "velocity": 0.3543307086614173,
                    "duration": 0.26666674999999884
                },
                {
                    "name": "D4",
                    "midi": 62,
                    "time": 74.93335674999993,
                    "velocity": 0.2755905511811024,
                    "duration": 0.26666674999999884
                },
                {
                    "name": "G3",
                    "midi": 55,
                    "time": 75.20002349999993,
                    "velocity": 0.2283464566929134,
                    "duration": 0.26666674999999884
                },
                {
                    "name": "A#3",
                    "midi": 58,
                    "time": 75.20002349999993,
                    "velocity": 0.2755905511811024,
                    "duration": 0.26666674999999884
                },
                {
                    "name": "D4",
                    "midi": 62,
                    "time": 75.46669024999993,
                    "velocity": 0.2755905511811024,
                    "duration": 0.26666674999999884
                },
                {
                    "name": "F#3",
                    "midi": 54,
                    "time": 75.73335699999993,
                    "velocity": 0.30708661417322836,
                    "duration": 0.26666674999999884
                },
                {
                    "name": "A3",
                    "midi": 57,
                    "time": 75.73335699999993,
                    "velocity": 0.3700787401574803,
                    "duration": 0.26666674999999884
                },
                {
                    "name": "D4",
                    "midi": 62,
                    "time": 76.00002374999993,
                    "velocity": 0.28346456692913385,
                    "duration": 0.26666674999999884
                },
                {
                    "name": "F#3",
                    "midi": 54,
                    "time": 76.26669049999992,
                    "velocity": 0.23622047244094488,
                    "duration": 0.26666674999999884
                },
                {
                    "name": "A3",
                    "midi": 57,
                    "time": 76.26669049999992,
                    "velocity": 0.28346456692913385,
                    "duration": 0.26666674999999884
                },
                {
                    "name": "D4",
                    "midi": 62,
                    "time": 76.53335724999992,
                    "velocity": 0.28346456692913385,
                    "duration": 0.26666674999999884
                },
                {
                    "name": "A#3",
                    "midi": 58,
                    "time": 76.80002399999992,
                    "velocity": 0.4409448818897638,
                    "duration": 0.13333337500000653
                },
                {
                    "name": "G3",
                    "midi": 55,
                    "time": 76.80002399999992,
                    "velocity": 0.4409448818897638,
                    "duration": 0.13333337500000653
                },
                {
                    "name": "D4",
                    "midi": 62,
                    "time": 77.06669074999994,
                    "velocity": 0.3700787401574803,
                    "duration": 0.13333337500000653
                },
                {
                    "name": "F#4",
                    "midi": 66,
                    "time": 77.33335749999995,
                    "velocity": 0.3700787401574803,
                    "duration": 0.13333337500000653
                },
                {
                    "name": "G4",
                    "midi": 67,
                    "time": 77.60002424999996,
                    "velocity": 0.3700787401574803,
                    "duration": 0.13333337500000653
                },
                {
                    "name": "D4",
                    "midi": 62,
                    "time": 77.86669099999997,
                    "velocity": 0.4409448818897638,
                    "duration": 0.13333337500000653
                },
                {
                    "name": "A#3",
                    "midi": 58,
                    "time": 78.13335774999999,
                    "velocity": 0.33070866141732286,
                    "duration": 0.13333337500000653
                },
                {
                    "name": "A3",
                    "midi": 57,
                    "time": 78.4000245,
                    "velocity": 0.33070866141732286,
                    "duration": 0.13333337500000653
                },
                {
                    "name": "G3",
                    "midi": 55,
                    "time": 78.66669125000001,
                    "velocity": 0.33070866141732286,
                    "duration": 0.13333337500000653
                },
                {
                    "name": "D3",
                    "midi": 50,
                    "time": 78.93335800000003,
                    "velocity": 0.3700787401574803,
                    "duration": 0.13333337500000653
                },
                {
                    "name": "F#3",
                    "midi": 54,
                    "time": 78.93335800000003,
                    "velocity": 0.4409448818897638,
                    "duration": 0.13333337500000653
                },
                {
                    "name": "A3",
                    "midi": 57,
                    "time": 79.20002475000004,
                    "velocity": 0.31496062992125984,
                    "duration": 0.13333337500000653
                },
                {
                    "name": "C4",
                    "midi": 60,
                    "time": 79.46669150000005,
                    "velocity": 0.31496062992125984,
                    "duration": 0.13333337500000653
                },
                {
                    "name": "D3",
                    "midi": 50,
                    "time": 79.73335825000007,
                    "velocity": 0.31496062992125984,
                    "duration": 0.13333337500000653
                },
                {
                    "name": "D#3",
                    "midi": 51,
                    "time": 80.00002500000008,
                    "velocity": 0.4094488188976378,
                    "duration": 0.13333337500000653
                },
                {
                    "name": "G3",
                    "midi": 55,
                    "time": 80.26669175000009,
                    "velocity": 0.28346456692913385,
                    "duration": 0.13333337500000653
                },
                {
                    "name": "A#3",
                    "midi": 58,
                    "time": 80.5333585000001,
                    "velocity": 0.28346456692913385,
                    "duration": 0.13333337500000653
                },
                {
                    "name": "G3",
                    "midi": 55,
                    "time": 80.80002525000012,
                    "velocity": 0.28346456692913385,
                    "duration": 0.13333337500000653
                },
                {
                    "name": "D#3",
                    "midi": 51,
                    "time": 81.06669200000013,
                    "velocity": 0.3464566929133858,
                    "duration": 0.13333337500000653
                },
                {
                    "name": "G3",
                    "midi": 55,
                    "time": 81.06669200000013,
                    "velocity": 0.3779527559055118,
                    "duration": 0.13333337500000653
                },
                {
                    "name": "A#3",
                    "midi": 58,
                    "time": 81.33335875000014,
                    "velocity": 0.28346456692913385,
                    "duration": 0.13333337500000653
                },
                {
                    "name": "D4",
                    "midi": 62,
                    "time": 81.60002550000016,
                    "velocity": 0.2755905511811024,
                    "duration": 0.13333337500000653
                },
                {
                    "name": "D#4",
                    "midi": 63,
                    "time": 81.86669225000017,
                    "velocity": 0.2755905511811024,
                    "duration": 0.13333337500000653
                },
                {
                    "name": "A#3",
                    "midi": 58,
                    "time": 82.13335900000018,
                    "velocity": 0.33858267716535434,
                    "duration": 0.13333337500000653
                },
                {
                    "name": "G3",
                    "midi": 55,
                    "time": 82.4000257500002,
                    "velocity": 0.23622047244094488,
                    "duration": 0.13333337500000653
                },
                {
                    "name": "F3",
                    "midi": 53,
                    "time": 82.66669250000021,
                    "velocity": 0.23622047244094488,
                    "duration": 0.13333337500000653
                },
                {
                    "name": "D#3",
                    "midi": 51,
                    "time": 82.93335925000022,
                    "velocity": 0.23622047244094488,
                    "duration": 0.13333337500000653
                },
                {
                    "name": "G2",
                    "midi": 43,
                    "time": 83.20002600000024,
                    "velocity": 0.30708661417322836,
                    "duration": 0.13333337500000653
                },
                {
                    "name": "B2",
                    "midi": 47,
                    "time": 83.20002600000024,
                    "velocity": 0.30708661417322836,
                    "duration": 0.13333337500000653
                },
                {
                    "name": "D3",
                    "midi": 50,
                    "time": 83.46669275000025,
                    "velocity": 0.2283464566929134,
                    "duration": 0.13333337500000653
                },
                {
                    "name": "G3",
                    "midi": 55,
                    "time": 83.73335950000026,
                    "velocity": 0.2283464566929134,
                    "duration": 0.13333337500000653
                },
                {
                    "name": "B2",
                    "midi": 47,
                    "time": 84.00002625000027,
                    "velocity": 0.2283464566929134,
                    "duration": 0.13333337500000653
                },
                {
                    "name": "C3",
                    "midi": 48,
                    "time": 84.26669300000029,
                    "velocity": 0.2992125984251969,
                    "duration": 0.13333337500000653
                },
                {
                    "name": "D#3",
                    "midi": 51,
                    "time": 84.5333597500003,
                    "velocity": 0.2204724409448819,
                    "duration": 0.13333337500000653
                },
                {
                    "name": "G3",
                    "midi": 55,
                    "time": 84.80002650000031,
                    "velocity": 0.2283464566929134,
                    "duration": 0.13333337500000653
                },
                {
                    "name": "C3",
                    "midi": 48,
                    "time": 85.06669325000033,
                    "velocity": 0.2047244094488189,
                    "duration": 0.13333337500000653
                },
                {
                    "name": "A#2",
                    "midi": 46,
                    "time": 85.33336000000034,
                    "velocity": 0.23622047244094488,
                    "duration": 4.2666679999999815
                },
                {
                    "name": "C#4",
                    "midi": 61,
                    "time": 85.33336000000034,
                    "velocity": 0.23622047244094488,
                    "duration": 4.2666679999999815
                },
                {
                    "name": "E3",
                    "midi": 52,
                    "time": 86.40002700000034,
                    "velocity": 0.18110236220472442,
                    "duration": 1.0666669999999954
                },
                {
                    "name": "G3",
                    "midi": 55,
                    "time": 87.46669400000033,
                    "velocity": 0.2283464566929134,
                    "duration": 1.0666669999999954
                },
                {
                    "name": "E3",
                    "midi": 52,
                    "time": 88.53336100000033,
                    "velocity": 0.18110236220472442,
                    "duration": 1.0666669999999954
                },
                {
                    "name": "A#2",
                    "midi": 46,
                    "time": 89.60002800000032,
                    "velocity": 0.23622047244094488,
                    "duration": 3.200000999999986
                },
                {
                    "name": "C#4",
                    "midi": 61,
                    "time": 89.60002800000032,
                    "velocity": 0.23622047244094488,
                    "duration": 4.2666679999999815
                },
                {
                    "name": "E3",
                    "midi": 52,
                    "time": 90.66669500000032,
                    "velocity": 0.18110236220472442,
                    "duration": 1.0666669999999954
                },
                {
                    "name": "G3",
                    "midi": 55,
                    "time": 91.73336200000031,
                    "velocity": 0.2283464566929134,
                    "duration": 1.0666669999999954
                },
                {
                    "name": "A#2",
                    "midi": 46,
                    "time": 92.80002900000031,
                    "velocity": 0.23622047244094488,
                    "duration": 1.0666669999999954
                },
                {
                    "name": "E3",
                    "midi": 52,
                    "time": 92.80002900000031,
                    "velocity": 0.18110236220472442,
                    "duration": 1.0666669999999954
                },
                {
                    "name": "C3",
                    "midi": 48,
                    "time": 94.9333630000003,
                    "velocity": 0.1889763779527559,
                    "duration": 1.0666669999999954
                },
                {
                    "name": "G#2",
                    "midi": 44,
                    "time": 94.9333630000003,
                    "velocity": 0.1889763779527559,
                    "duration": 1.0666669999999954
                },
                {
                    "name": "F3",
                    "midi": 53,
                    "time": 94.9333630000003,
                    "velocity": 0.2283464566929134,
                    "duration": 1.0666669999999954
                },
                {
                    "name": "E4",
                    "midi": 64,
                    "time": 97.06669700000029,
                    "velocity": 0.2283464566929134,
                    "duration": 1.0666669999999954
                },
                {
                    "name": "C3",
                    "midi": 48,
                    "time": 97.06669700000029,
                    "velocity": 0.1889763779527559,
                    "duration": 1.0666669999999954
                },
                {
                    "name": "G3",
                    "midi": 55,
                    "time": 97.06669700000029,
                    "velocity": 0.2283464566929134,
                    "duration": 1.0666669999999954
                },
                {
                    "name": "F3",
                    "midi": 53,
                    "time": 99.20003100000028,
                    "velocity": 0.15748031496062992,
                    "duration": 1.0666669999999954
                },
                {
                    "name": "F4",
                    "midi": 65,
                    "time": 99.20003100000028,
                    "velocity": 0.1889763779527559,
                    "duration": 1.0666669999999954
                },
                {
                    "name": "F3",
                    "midi": 53,
                    "time": 100.26669800000028,
                    "velocity": 0.15748031496062992,
                    "duration": 0.5333334999999977
                },
                {
                    "name": "F4",
                    "midi": 65,
                    "time": 100.26669800000028,
                    "velocity": 0.1889763779527559,
                    "duration": 0.5333334999999977
                },
                {
                    "name": "G#4",
                    "midi": 68,
                    "time": 100.80225372291694,
                    "velocity": 0.2755905511811024,
                    "duration": 0.5333334999999977
                },
                {
                    "name": "F4",
                    "midi": 65,
                    "time": 100.80225372291694,
                    "velocity": 0.2283464566929134,
                    "duration": 0.5333334999999977
                },
                {
                    "name": "D#4",
                    "midi": 63,
                    "time": 101.33558722291694,
                    "velocity": 0.2440944881889764,
                    "duration": 0.5333334999999977
                },
                {
                    "name": "F#4",
                    "midi": 66,
                    "time": 101.33558722291694,
                    "velocity": 0.2440944881889764,
                    "duration": 0.5333334999999977
                },
                {
                    "name": "G#4",
                    "midi": 68,
                    "time": 101.33558722291694,
                    "velocity": 0.29133858267716534,
                    "duration": 0.5333334999999977
                },
                {
                    "name": "G#4",
                    "midi": 68,
                    "time": 101.86892072291694,
                    "velocity": 0.31496062992125984,
                    "duration": 0.5333334999999977
                },
                {
                    "name": "F4",
                    "midi": 65,
                    "time": 101.86892072291694,
                    "velocity": 0.2677165354330709,
                    "duration": 0.5333334999999977
                },
                {
                    "name": "C#4",
                    "midi": 61,
                    "time": 101.86892072291694,
                    "velocity": 0.2677165354330709,
                    "duration": 0.5333334999999977
                },
                {
                    "name": "C4",
                    "midi": 60,
                    "time": 102.40225422291694,
                    "velocity": 0.2992125984251969,
                    "duration": 1.0666669999999954
                },
                {
                    "name": "D#4",
                    "midi": 63,
                    "time": 102.40225422291694,
                    "velocity": 0.2992125984251969,
                    "duration": 1.0666669999999954
                },
                {
                    "name": "G#4",
                    "midi": 68,
                    "time": 102.40225422291694,
                    "velocity": 0.36220472440944884,
                    "duration": 1.0666669999999954
                },
                {
                    "name": "C4",
                    "midi": 60,
                    "time": 103.46892122291693,
                    "velocity": 0.28346456692913385,
                    "duration": 1.6000005000000073
                },
                {
                    "name": "D#4",
                    "midi": 63,
                    "time": 103.46892122291693,
                    "velocity": 0.28346456692913385,
                    "duration": 1.6000005000000073
                },
                {
                    "name": "A4",
                    "midi": 69,
                    "time": 103.46892122291693,
                    "velocity": 0.33858267716535434,
                    "duration": 1.6000005000000073
                },
                {
                    "name": "A#3",
                    "midi": 58,
                    "time": 105.06892172291694,
                    "velocity": 0.2677165354330709,
                    "duration": 0.5333334999999977
                },
                {
                    "name": "C#4",
                    "midi": 61,
                    "time": 105.06892172291694,
                    "velocity": 0.2677165354330709,
                    "duration": 0.5333334999999977
                },
                {
                    "name": "F#4",
                    "midi": 66,
                    "time": 105.06892172291694,
                    "velocity": 0.31496062992125984,
                    "duration": 0.5333334999999977
                },
                {
                    "name": "A3",
                    "midi": 57,
                    "time": 105.60225522291694,
                    "velocity": 0.33070866141732286,
                    "duration": 0.5333334999999977
                },
                {
                    "name": "C4",
                    "midi": 60,
                    "time": 105.60225522291694,
                    "velocity": 0.33070866141732286,
                    "duration": 0.5333334999999977
                },
                {
                    "name": "F4",
                    "midi": 65,
                    "time": 105.60225522291694,
                    "velocity": 0.3937007874015748,
                    "duration": 0.5333334999999977
                },
                {
                    "name": "A3",
                    "midi": 57,
                    "time": 106.13558872291694,
                    "velocity": 0.2677165354330709,
                    "duration": 0.5333334999999977
                },
                {
                    "name": "C4",
                    "midi": 60,
                    "time": 106.13558872291694,
                    "velocity": 0.2677165354330709,
                    "duration": 0.5333334999999977
                },
                {
                    "name": "F4",
                    "midi": 65,
                    "time": 106.13558872291694,
                    "velocity": 0.31496062992125984,
                    "duration": 0.5333334999999977
                },
                {
                    "name": "A3",
                    "midi": 57,
                    "time": 106.66892222291693,
                    "velocity": 0.2677165354330709,
                    "duration": 1.0666669999999954
                },
                {
                    "name": "C4",
                    "midi": 60,
                    "time": 106.66892222291693,
                    "velocity": 0.2677165354330709,
                    "duration": 1.0666669999999954
                },
                {
                    "name": "F4",
                    "midi": 65,
                    "time": 106.66892222291693,
                    "velocity": 0.31496062992125984,
                    "duration": 1.0666669999999954
                },
                {
                    "name": "A#3",
                    "midi": 58,
                    "time": 107.73558922291693,
                    "velocity": 0.1889763779527559,
                    "duration": 1.0666669999999954
                },
                {
                    "name": "C#4",
                    "midi": 61,
                    "time": 107.73558922291693,
                    "velocity": 0.1889763779527559,
                    "duration": 1.0666669999999954
                },
                {
                    "name": "F4",
                    "midi": 65,
                    "time": 107.73558922291693,
                    "velocity": 0.2283464566929134,
                    "duration": 1.0666669999999954
                },
                {
                    "name": "C2",
                    "midi": 36,
                    "time": 110.93559022291693,
                    "velocity": 0.25196850393700787,
                    "duration": 3.2000010000000145
                },
                {
                    "name": "C#3",
                    "midi": 49,
                    "time": 110.93559022291693,
                    "velocity": 0.2992125984251969,
                    "duration": 1.0666670000000096
                },
                {
                    "name": "E2",
                    "midi": 40,
                    "time": 112.00003500000027,
                    "velocity": 0.33858267716535434,
                    "duration": 1.0666670000000096
                },
                {
                    "name": "G2",
                    "midi": 43,
                    "time": 113.06892422291695,
                    "velocity": 0.33858267716535434,
                    "duration": 1.0666669999999954
                },
                {
                    "name": "G#1",
                    "midi": 32,
                    "time": 114.13559122291694,
                    "velocity": 0.25196850393700787,
                    "duration": 1.0666669999999954
                },
                {
                    "name": "C2",
                    "midi": 36,
                    "time": 114.13559122291694,
                    "velocity": 0.25196850393700787,
                    "duration": 1.0666669999999954
                },
                {
                    "name": "G#2",
                    "midi": 44,
                    "time": 114.13559122291694,
                    "velocity": 0.3543307086614173,
                    "duration": 1.0666669999999954
                },
                {
                    "name": "G1",
                    "midi": 31,
                    "time": 115.20225822291694,
                    "velocity": 0.25196850393700787,
                    "duration": 1.0666669999999954
                },
                {
                    "name": "C2",
                    "midi": 36,
                    "time": 115.20225822291694,
                    "velocity": 0.25196850393700787,
                    "duration": 1.0666669999999954
                },
                {
                    "name": "G2",
                    "midi": 43,
                    "time": 115.20225822291694,
                    "velocity": 0.3543307086614173,
                    "duration": 1.0666669999999954
                },
                {
                    "name": "F1",
                    "midi": 29,
                    "time": 116.26892522291693,
                    "velocity": 0.25196850393700787,
                    "duration": 1.0666670000000096
                },
                {
                    "name": "C2",
                    "midi": 36,
                    "time": 116.26892522291693,
                    "velocity": 0.25196850393700787,
                    "duration": 1.0666670000000096
                },
                {
                    "name": "F2",
                    "midi": 41,
                    "time": 116.26892522291693,
                    "velocity": 0.3543307086614173,
                    "duration": 1.0666670000000096
                },
                {
                    "name": "E2",
                    "midi": 40,
                    "time": 117.33337000000027,
                    "velocity": 0.3543307086614173,
                    "duration": 1.0666670000000096
                },
                {
                    "name": "E1",
                    "midi": 28,
                    "time": 117.33337000000027,
                    "velocity": 0.25196850393700787,
                    "duration": 1.0666670000000096
                },
                {
                    "name": "C2",
                    "midi": 36,
                    "time": 117.33559222291694,
                    "velocity": 0.25196850393700787,
                    "duration": 1.0666670000000096
                },
                {
                    "name": "E3",
                    "midi": 52,
                    "time": 128.0000400000003,
                    "velocity": 0.2992125984251969,
                    "duration": 0.26666675000001305
                },
                {
                    "name": "G3",
                    "midi": 55,
                    "time": 128.0000400000003,
                    "velocity": 0.3543307086614173,
                    "duration": 0.26666675000001305
                },
                {
                    "name": "C4",
                    "midi": 60,
                    "time": 128.2667067500003,
                    "velocity": 0.2440944881889764,
                    "duration": 0.26666675000001305
                },
                {
                    "name": "E3",
                    "midi": 52,
                    "time": 128.53337350000032,
                    "velocity": 0.2047244094488189,
                    "duration": 0.26666675000001305
                },
                {
                    "name": "G3",
                    "midi": 55,
                    "time": 128.53337350000032,
                    "velocity": 0.2440944881889764,
                    "duration": 0.26666675000001305
                },
                {
                    "name": "C4",
                    "midi": 60,
                    "time": 128.80004025000034,
                    "velocity": 0.2440944881889764,
                    "duration": 0.26666675000001305
                },
                {
                    "name": "E3",
                    "midi": 52,
                    "time": 129.06670700000035,
                    "velocity": 0.28346456692913385,
                    "duration": 0.26666675000001305
                },
                {
                    "name": "G3",
                    "midi": 55,
                    "time": 129.06670700000035,
                    "velocity": 0.33858267716535434,
                    "duration": 0.26666675000001305
                },
                {
                    "name": "C4",
                    "midi": 60,
                    "time": 129.33337375000036,
                    "velocity": 0.25196850393700787,
                    "duration": 0.26666675000001305
                },
                {
                    "name": "E3",
                    "midi": 52,
                    "time": 129.60004050000038,
                    "velocity": 0.2125984251968504,
                    "duration": 0.26666675000001305
                },
                {
                    "name": "G3",
                    "midi": 55,
                    "time": 129.60004050000038,
                    "velocity": 0.25196850393700787,
                    "duration": 0.26666675000001305
                },
                {
                    "name": "C4",
                    "midi": 60,
                    "time": 129.8667072500004,
                    "velocity": 0.25196850393700787,
                    "duration": 0.26666675000001305
                },
                {
                    "name": "E3",
                    "midi": 52,
                    "time": 130.1333740000004,
                    "velocity": 0.2755905511811024,
                    "duration": 0.26666675000001305
                },
                {
                    "name": "G3",
                    "midi": 55,
                    "time": 130.1333740000004,
                    "velocity": 0.33070866141732286,
                    "duration": 0.26666675000001305
                },
                {
                    "name": "C4",
                    "midi": 60,
                    "time": 130.40004075000041,
                    "velocity": 0.25984251968503935,
                    "duration": 0.26666675000001305
                },
                {
                    "name": "E3",
                    "midi": 52,
                    "time": 130.66670750000043,
                    "velocity": 0.2204724409448819,
                    "duration": 0.26666675000001305
                },
                {
                    "name": "G3",
                    "midi": 55,
                    "time": 130.66670750000043,
                    "velocity": 0.25984251968503935,
                    "duration": 0.26666675000001305
                },
                {
                    "name": "C4",
                    "midi": 60,
                    "time": 130.93337425000044,
                    "velocity": 0.25984251968503935,
                    "duration": 0.26666675000001305
                },
                {
                    "name": "F3",
                    "midi": 53,
                    "time": 131.20004100000045,
                    "velocity": 0.28346456692913385,
                    "duration": 0.26666675000001305
                },
                {
                    "name": "A3",
                    "midi": 57,
                    "time": 131.20004100000045,
                    "velocity": 0.33858267716535434,
                    "duration": 0.26666675000001305
                },
                {
                    "name": "C4",
                    "midi": 60,
                    "time": 131.46670775000047,
                    "velocity": 0.23622047244094488,
                    "duration": 0.26666675000001305
                },
                {
                    "name": "F3",
                    "midi": 53,
                    "time": 131.73337450000048,
                    "velocity": 0.1968503937007874,
                    "duration": 0.26666675000001305
                },
                {
                    "name": "A3",
                    "midi": 57,
                    "time": 131.73337450000048,
                    "velocity": 0.23622047244094488,
                    "duration": 0.26666675000001305
                },
                {
                    "name": "C4",
                    "midi": 60,
                    "time": 132.0000412500005,
                    "velocity": 0.23622047244094488,
                    "duration": 0.26666675000001305
                },
                {
                    "name": "G3",
                    "midi": 55,
                    "time": 132.2667080000005,
                    "velocity": 0.2992125984251969,
                    "duration": 0.26666675000001305
                },
                {
                    "name": "A#3",
                    "midi": 58,
                    "time": 132.2667080000005,
                    "velocity": 0.3543307086614173,
                    "duration": 0.26666675000001305
                },
                {
                    "name": "C4",
                    "midi": 60,
                    "time": 132.53337475000052,
                    "velocity": 0.25196850393700787,
                    "duration": 0.26666675000001305
                },
                {
                    "name": "G3",
                    "midi": 55,
                    "time": 132.80004150000053,
                    "velocity": 0.2125984251968504,
                    "duration": 0.26666675000001305
                },
                {
                    "name": "A#3",
                    "midi": 58,
                    "time": 132.80004150000053,
                    "velocity": 0.25196850393700787,
                    "duration": 0.26666675000001305
                },
                {
                    "name": "C4",
                    "midi": 60,
                    "time": 133.06670825000054,
                    "velocity": 0.25196850393700787,
                    "duration": 0.26666675000001305
                },
                {
                    "name": "G3",
                    "midi": 55,
                    "time": 133.33337500000056,
                    "velocity": 0.2992125984251969,
                    "duration": 0.26666675000001305
                },
                {
                    "name": "A#3",
                    "midi": 58,
                    "time": 133.33337500000056,
                    "velocity": 0.3543307086614173,
                    "duration": 0.26666675000001305
                },
                {
                    "name": "C4",
                    "midi": 60,
                    "time": 133.60004175000057,
                    "velocity": 0.2440944881889764,
                    "duration": 0.26666675000001305
                },
                {
                    "name": "G3",
                    "midi": 55,
                    "time": 133.86670850000058,
                    "velocity": 0.2047244094488189,
                    "duration": 0.26666675000001305
                },
                {
                    "name": "A#3",
                    "midi": 58,
                    "time": 133.86670850000058,
                    "velocity": 0.2440944881889764,
                    "duration": 0.26666675000001305
                },
                {
                    "name": "C4",
                    "midi": 60,
                    "time": 134.1333752500006,
                    "velocity": 0.2440944881889764,
                    "duration": 0.26666675000001305
                },
                {
                    "name": "G3",
                    "midi": 55,
                    "time": 134.4000420000006,
                    "velocity": 0.2992125984251969,
                    "duration": 0.26666675000001305
                },
                {
                    "name": "A#3",
                    "midi": 58,
                    "time": 134.4000420000006,
                    "velocity": 0.3543307086614173,
                    "duration": 0.26666675000001305
                },
                {
                    "name": "C4",
                    "midi": 60,
                    "time": 134.66670875000062,
                    "velocity": 0.25984251968503935,
                    "duration": 0.26666675000001305
                },
                {
                    "name": "F3",
                    "midi": 53,
                    "time": 134.93337550000064,
                    "velocity": 0.2204724409448819,
                    "duration": 0.26666675000001305
                },
                {
                    "name": "A3",
                    "midi": 57,
                    "time": 134.93337550000064,
                    "velocity": 0.25984251968503935,
                    "duration": 0.26666675000001305
                },
                {
                    "name": "C4",
                    "midi": 60,
                    "time": 135.20004225000065,
                    "velocity": 0.25984251968503935,
                    "duration": 0.26666675000001305
                },
                {
                    "name": "E3",
                    "midi": 52,
                    "time": 135.46670900000066,
                    "velocity": 0.2992125984251969,
                    "duration": 0.26666675000001305
                },
                {
                    "name": "G3",
                    "midi": 55,
                    "time": 135.46670900000066,
                    "velocity": 0.3543307086614173,
                    "duration": 0.26666675000001305
                },
                {
                    "name": "C4",
                    "midi": 60,
                    "time": 135.73337575000068,
                    "velocity": 0.25984251968503935,
                    "duration": 0.26666675000001305
                },
                {
                    "name": "E3",
                    "midi": 52,
                    "time": 136.0000425000007,
                    "velocity": 0.2204724409448819,
                    "duration": 0.26666675000001305
                },
                {
                    "name": "G3",
                    "midi": 55,
                    "time": 136.0000425000007,
                    "velocity": 0.25984251968503935,
                    "duration": 0.26666675000001305
                },
                {
                    "name": "C4",
                    "midi": 60,
                    "time": 136.2667092500007,
                    "velocity": 0.25984251968503935,
                    "duration": 0.26666675000001305
                },
                {
                    "name": "E3",
                    "midi": 52,
                    "time": 136.53337600000071,
                    "velocity": 0.2992125984251969,
                    "duration": 0.26666675000001305
                },
                {
                    "name": "G3",
                    "midi": 55,
                    "time": 136.53337600000071,
                    "velocity": 0.3543307086614173,
                    "duration": 0.26666675000001305
                },
                {
                    "name": "C4",
                    "midi": 60,
                    "time": 136.80004275000073,
                    "velocity": 0.2677165354330709,
                    "duration": 0.26666675000001305
                },
                {
                    "name": "E3",
                    "midi": 52,
                    "time": 137.06670950000074,
                    "velocity": 0.2204724409448819,
                    "duration": 0.26666675000001305
                },
                {
                    "name": "G3",
                    "midi": 55,
                    "time": 137.06670950000074,
                    "velocity": 0.2677165354330709,
                    "duration": 0.26666675000001305
                },
                {
                    "name": "C4",
                    "midi": 60,
                    "time": 137.33337625000075,
                    "velocity": 0.2677165354330709,
                    "duration": 0.26666675000001305
                },
                {
                    "name": "E3",
                    "midi": 52,
                    "time": 137.60004300000077,
                    "velocity": 0.29133858267716534,
                    "duration": 0.26666675000001305
                },
                {
                    "name": "G3",
                    "midi": 55,
                    "time": 137.60004300000077,
                    "velocity": 0.3464566929133858,
                    "duration": 0.26666675000001305
                },
                {
                    "name": "C4",
                    "midi": 60,
                    "time": 137.86670975000078,
                    "velocity": 0.25984251968503935,
                    "duration": 0.26666675000001305
                },
                {
                    "name": "E3",
                    "midi": 52,
                    "time": 138.1333765000008,
                    "velocity": 0.2204724409448819,
                    "duration": 0.26666675000001305
                },
                {
                    "name": "G3",
                    "midi": 55,
                    "time": 138.1333765000008,
                    "velocity": 0.25984251968503935,
                    "duration": 0.26666675000001305
                },
                {
                    "name": "C4",
                    "midi": 60,
                    "time": 138.4000432500008,
                    "velocity": 0.25984251968503935,
                    "duration": 0.26666675000001305
                },
                {
                    "name": "E3",
                    "midi": 52,
                    "time": 138.66671000000082,
                    "velocity": 0.2992125984251969,
                    "duration": 0.26666675000001305
                },
                {
                    "name": "G3",
                    "midi": 55,
                    "time": 138.66671000000082,
                    "velocity": 0.3543307086614173,
                    "duration": 0.26666675000001305
                },
                {
                    "name": "C4",
                    "midi": 60,
                    "time": 138.93337675000083,
                    "velocity": 0.2677165354330709,
                    "duration": 0.26666675000001305
                },
                {
                    "name": "E3",
                    "midi": 52,
                    "time": 139.20004350000085,
                    "velocity": 0.2204724409448819,
                    "duration": 0.26666675000001305
                },
                {
                    "name": "G3",
                    "midi": 55,
                    "time": 139.20004350000085,
                    "velocity": 0.2677165354330709,
                    "duration": 0.26666675000001305
                },
                {
                    "name": "C4",
                    "midi": 60,
                    "time": 139.46671025000086,
                    "velocity": 0.2677165354330709,
                    "duration": 0.26666675000001305
                },
                {
                    "name": "F3",
                    "midi": 53,
                    "time": 139.73337700000087,
                    "velocity": 0.2992125984251969,
                    "duration": 0.26666675000001305
                },
                {
                    "name": "A3",
                    "midi": 57,
                    "time": 139.73337700000087,
                    "velocity": 0.3543307086614173,
                    "duration": 0.26666675000001305
                },
                {
                    "name": "C4",
                    "midi": 60,
                    "time": 140.00004375000088,
                    "velocity": 0.2677165354330709,
                    "duration": 0.26666675000001305
                },
                {
                    "name": "F3",
                    "midi": 53,
                    "time": 140.2667105000009,
                    "velocity": 0.2204724409448819,
                    "duration": 0.26666675000001305
                },
                {
                    "name": "A3",
                    "midi": 57,
                    "time": 140.2667105000009,
                    "velocity": 0.2677165354330709,
                    "duration": 0.26666675000001305
                },
                {
                    "name": "C4",
                    "midi": 60,
                    "time": 140.5333772500009,
                    "velocity": 0.2677165354330709,
                    "duration": 0.26666675000001305
                },
                {
                    "name": "G3",
                    "midi": 55,
                    "time": 140.80004400000092,
                    "velocity": 0.2992125984251969,
                    "duration": 0.26666675000001305
                },
                {
                    "name": "A#3",
                    "midi": 58,
                    "time": 140.80004400000092,
                    "velocity": 0.3543307086614173,
                    "duration": 0.26666675000001305
                },
                {
                    "name": "C4",
                    "midi": 60,
                    "time": 141.06671075000094,
                    "velocity": 0.25984251968503935,
                    "duration": 0.26666675000001305
                },
                {
                    "name": "G3",
                    "midi": 55,
                    "time": 141.33337750000095,
                    "velocity": 0.2204724409448819,
                    "duration": 0.26666675000001305
                },
                {
                    "name": "A#3",
                    "midi": 58,
                    "time": 141.33337750000095,
                    "velocity": 0.25984251968503935,
                    "duration": 0.26666675000001305
                },
                {
                    "name": "C4",
                    "midi": 60,
                    "time": 141.60004425000096,
                    "velocity": 0.2677165354330709,
                    "duration": 0.26666675000001305
                },
                {
                    "name": "G3",
                    "midi": 55,
                    "time": 141.86671100000098,
                    "velocity": 0.30708661417322836,
                    "duration": 0.26666675000001305
                },
                {
                    "name": "A#3",
                    "midi": 58,
                    "time": 141.86671100000098,
                    "velocity": 0.36220472440944884,
                    "duration": 0.26666675000001305
                },
                {
                    "name": "C4",
                    "midi": 60,
                    "time": 142.133377750001,
                    "velocity": 0.2755905511811024,
                    "duration": 0.26666675000001305
                },
                {
                    "name": "G3",
                    "midi": 55,
                    "time": 142.400044500001,
                    "velocity": 0.2283464566929134,
                    "duration": 0.26666675000001305
                },
                {
                    "name": "A#3",
                    "midi": 58,
                    "time": 142.400044500001,
                    "velocity": 0.2755905511811024,
                    "duration": 0.26666675000001305
                },
                {
                    "name": "C4",
                    "midi": 60,
                    "time": 142.66671125000101,
                    "velocity": 0.2755905511811024,
                    "duration": 0.26666675000001305
                },
                {
                    "name": "G3",
                    "midi": 55,
                    "time": 142.93337800000103,
                    "velocity": 0.2992125984251969,
                    "duration": 0.26666675000001305
                },
                {
                    "name": "A#3",
                    "midi": 58,
                    "time": 142.93337800000103,
                    "velocity": 0.3543307086614173,
                    "duration": 0.26666675000001305
                },
                {
                    "name": "C4",
                    "midi": 60,
                    "time": 143.20004475000104,
                    "velocity": 0.2755905511811024,
                    "duration": 0.26666675000001305
                },
                {
                    "name": "F3",
                    "midi": 53,
                    "time": 143.46671150000105,
                    "velocity": 0.2283464566929134,
                    "duration": 0.26666675000001305
                },
                {
                    "name": "G#3",
                    "midi": 56,
                    "time": 143.46671150000105,
                    "velocity": 0.2755905511811024,
                    "duration": 0.26666675000001305
                },
                {
                    "name": "C4",
                    "midi": 60,
                    "time": 143.73337825000107,
                    "velocity": 0.2755905511811024,
                    "duration": 0.26666675000001305
                },
                {
                    "name": "E3",
                    "midi": 52,
                    "time": 144.00004500000108,
                    "velocity": 0.30708661417322836,
                    "duration": 0.26666675000001305
                },
                {
                    "name": "G3",
                    "midi": 55,
                    "time": 144.00004500000108,
                    "velocity": 0.3700787401574803,
                    "duration": 0.26666675000001305
                },
                {
                    "name": "C4",
                    "midi": 60,
                    "time": 144.2667117500011,
                    "velocity": 0.28346456692913385,
                    "duration": 0.26666675000001305
                },
                {
                    "name": "E3",
                    "midi": 52,
                    "time": 144.5333785000011,
                    "velocity": 0.23622047244094488,
                    "duration": 0.26666675000001305
                },
                {
                    "name": "G3",
                    "midi": 55,
                    "time": 144.5333785000011,
                    "velocity": 0.28346456692913385,
                    "duration": 0.26666675000001305
                },
                {
                    "name": "C4",
                    "midi": 60,
                    "time": 144.80004525000112,
                    "velocity": 0.28346456692913385,
                    "duration": 0.26666675000001305
                },
                {
                    "name": "G#3",
                    "midi": 56,
                    "time": 145.06671200000113,
                    "velocity": 0.4409448818897638,
                    "duration": 0.13333337500000653
                },
                {
                    "name": "F3",
                    "midi": 53,
                    "time": 145.06671200000113,
                    "velocity": 0.4409448818897638,
                    "duration": 0.13333337500000653
                },
                {
                    "name": "C4",
                    "midi": 60,
                    "time": 145.33337875000115,
                    "velocity": 0.3700787401574803,
                    "duration": 0.13333337500000653
                },
                {
                    "name": "E4",
                    "midi": 64,
                    "time": 145.60004550000116,
                    "velocity": 0.3700787401574803,
                    "duration": 0.13333337500000653
                },
                {
                    "name": "F4",
                    "midi": 65,
                    "time": 145.86671225000117,
                    "velocity": 0.3700787401574803,
                    "duration": 0.13333337500000653
                },
                {
                    "name": "C4",
                    "midi": 60,
                    "time": 146.13337900000118,
                    "velocity": 0.4409448818897638,
                    "duration": 0.13333337500000653
                },
                {
                    "name": "G#3",
                    "midi": 56,
                    "time": 146.4000457500012,
                    "velocity": 0.33070866141732286,
                    "duration": 0.13333337500000653
                },
                {
                    "name": "G3",
                    "midi": 55,
                    "time": 146.6667125000012,
                    "velocity": 0.33070866141732286,
                    "duration": 0.13333337500000653
                },
                {
                    "name": "F3",
                    "midi": 53,
                    "time": 146.93337925000122,
                    "velocity": 0.33070866141732286,
                    "duration": 0.13333337500000653
                },
                {
                    "name": "C3",
                    "midi": 48,
                    "time": 147.20004600000124,
                    "velocity": 0.4409448818897638,
                    "duration": 0.13333337500000653
                },
                {
                    "name": "E3",
                    "midi": 52,
                    "time": 147.20004600000124,
                    "velocity": 0.4409448818897638,
                    "duration": 0.13333337500000653
                },
                {
                    "name": "G3",
                    "midi": 55,
                    "time": 147.46671275000125,
                    "velocity": 0.31496062992125984,
                    "duration": 0.13333337500000653
                },
                {
                    "name": "A#3",
                    "midi": 58,
                    "time": 147.73337950000126,
                    "velocity": 0.31496062992125984,
                    "duration": 0.13333337500000653
                },
                {
                    "name": "C3",
                    "midi": 48,
                    "time": 148.00004625000128,
                    "velocity": 0.31496062992125984,
                    "duration": 0.13333337500000653
                },
                {
                    "name": "C#3",
                    "midi": 49,
                    "time": 148.2667130000013,
                    "velocity": 0.4094488188976378,
                    "duration": 0.13333337500000653
                },
                {
                    "name": "F3",
                    "midi": 53,
                    "time": 148.5333797500013,
                    "velocity": 0.28346456692913385,
                    "duration": 0.13333337500000653
                },
                {
                    "name": "G#3",
                    "midi": 56,
                    "time": 148.80004650000132,
                    "velocity": 0.28346456692913385,
                    "duration": 0.13333337500000653
                },
                {
                    "name": "F3",
                    "midi": 53,
                    "time": 149.06671325000133,
                    "velocity": 0.28346456692913385,
                    "duration": 0.13333337500000653
                },
                {
                    "name": "C#3",
                    "midi": 49,
                    "time": 149.33338000000134,
                    "velocity": 0.4015748031496063,
                    "duration": 0.13333337500000653
                },
                {
                    "name": "F3",
                    "midi": 53,
                    "time": 149.33338000000134,
                    "velocity": 0.4015748031496063,
                    "duration": 0.13333337500000653
                },
                {
                    "name": "G#3",
                    "midi": 56,
                    "time": 149.60004675000135,
                    "velocity": 0.2992125984251969,
                    "duration": 0.13333337500000653
                },
                {
                    "name": "C4",
                    "midi": 60,
                    "time": 149.86671350000137,
                    "velocity": 0.2992125984251969,
                    "duration": 0.13333337500000653
                },
                {
                    "name": "C#4",
                    "midi": 61,
                    "time": 150.13338025000138,
                    "velocity": 0.2992125984251969,
                    "duration": 0.13333337500000653
                },
                {
                    "name": "G#3",
                    "midi": 56,
                    "time": 150.4000470000014,
                    "velocity": 0.3700787401574803,
                    "duration": 0.13333337500000653
                },
                {
                    "name": "F3",
                    "midi": 53,
                    "time": 150.6667137500014,
                    "velocity": 0.25984251968503935,
                    "duration": 0.13333337500000653
                },
                {
                    "name": "D#3",
                    "midi": 51,
                    "time": 150.93338050000142,
                    "velocity": 0.25984251968503935,
                    "duration": 0.13333337500000653
                },
                {
                    "name": "C#3",
                    "midi": 49,
                    "time": 151.20004725000143,
                    "velocity": 0.25984251968503935,
                    "duration": 0.13333337500000653
                },
                {
                    "name": "F2",
                    "midi": 41,
                    "time": 151.46671400000145,
                    "velocity": 0.3464566929133858,
                    "duration": 0.13333337500000653
                },
                {
                    "name": "A2",
                    "midi": 45,
                    "time": 151.46671400000145,
                    "velocity": 0.3464566929133858,
                    "duration": 0.13333337500000653
                },
                {
                    "name": "C3",
                    "midi": 48,
                    "time": 151.73338075000146,
                    "velocity": 0.25984251968503935,
                    "duration": 0.13333337500000653
                },
                {
                    "name": "F3",
                    "midi": 53,
                    "time": 152.00004750000147,
                    "velocity": 0.25984251968503935,
                    "duration": 0.13333337500000653
                },
                {
                    "name": "A2",
                    "midi": 45,
                    "time": 152.26671425000148,
                    "velocity": 0.25984251968503935,
                    "duration": 0.13333337500000653
                },
                {
                    "name": "A#2",
                    "midi": 46,
                    "time": 152.5333810000015,
                    "velocity": 0.3464566929133858,
                    "duration": 0.13333337500000653
                },
                {
                    "name": "C#3",
                    "midi": 49,
                    "time": 152.8000477500015,
                    "velocity": 0.25984251968503935,
                    "duration": 0.13333337500000653
                },
                {
                    "name": "F3",
                    "midi": 53,
                    "time": 153.06671450000152,
                    "velocity": 0.2677165354330709,
                    "duration": 0.13333337500000653
                },
                {
                    "name": "A#2",
                    "midi": 46,
                    "time": 153.33338125000154,
                    "velocity": 0.2677165354330709,
                    "duration": 0.13333337500000653
                },
                {
                    "name": "G2",
                    "midi": 43,
                    "time": 153.60004800000155,
                    "velocity": 0.23622047244094488,
                    "duration": 4.2666679999999815
                },
                {
                    "name": "G#3",
                    "midi": 56,
                    "time": 153.60004800000155,
                    "velocity": 0.23622047244094488,
                    "duration": 1.0666669999999954
                },
                {
                    "name": "B2",
                    "midi": 47,
                    "time": 154.66671500000155,
                    "velocity": 0.18110236220472442,
                    "duration": 1.0666669999999954
                },
                {
                    "name": "D3",
                    "midi": 50,
                    "time": 155.73338200000154,
                    "velocity": 0.2283464566929134,
                    "duration": 1.0666669999999954
                },
                {
                    "name": "B2",
                    "midi": 47,
                    "time": 156.80004900000154,
                    "velocity": 0.18110236220472442,
                    "duration": 1.0666669999999954
                },
                {
                    "name": "B2",
                    "midi": 47,
                    "time": 162.13338400000154,
                    "velocity": 0.23622047244094488,
                    "duration": 4.2666679999999815
                },
                {
                    "name": "D4",
                    "midi": 62,
                    "time": 162.13338400000154,
                    "velocity": 0.23622047244094488,
                    "duration": 1.0666669999999954
                },
                {
                    "name": "F3",
                    "midi": 53,
                    "time": 163.20005100000154,
                    "velocity": 0.18110236220472442,
                    "duration": 1.0666669999999954
                },
                {
                    "name": "G#3",
                    "midi": 56,
                    "time": 164.26671800000153,
                    "velocity": 0.2283464566929134,
                    "duration": 1.0666669999999954
                },
                {
                    "name": "F3",
                    "midi": 53,
                    "time": 165.33338500000153,
                    "velocity": 0.18110236220472442,
                    "duration": 1.0666669999999954
                },
                {
                    "name": "A#2",
                    "midi": 46,
                    "time": 170.53338662500153,
                    "velocity": 0.25984251968503935,
                    "duration": 0.13333337500000653
                },
                {
                    "name": "D4",
                    "midi": 62,
                    "time": 170.66672000000153,
                    "velocity": 0.25984251968503935,
                    "duration": 1.0666669999999954
                },
                {
                    "name": "F3",
                    "midi": 53,
                    "time": 171.73338700000153,
                    "velocity": 0.2047244094488189,
                    "duration": 1.0666669999999954
                },
                {
                    "name": "D4",
                    "midi": 62,
                    "time": 172.80005400000152,
                    "velocity": 0.2440944881889764,
                    "duration": 1.0666669999999954
                },
                {
                    "name": "F3",
                    "midi": 53,
                    "time": 173.86672100000152,
                    "velocity": 0.1968503937007874,
                    "duration": 1.0666669999999954
                },
                {
                    "name": "F4",
                    "midi": 65,
                    "time": 174.93338800000151,
                    "velocity": 0.25984251968503935,
                    "duration": 1.0666669999999954
                },
                {
                    "name": "D4",
                    "midi": 62,
                    "time": 176.0000550000015,
                    "velocity": 0.2204724409448819,
                    "duration": 1.0666669999999954
                },
                {
                    "name": "G#4",
                    "midi": 68,
                    "time": 177.0667220000015,
                    "velocity": 0.2204724409448819,
                    "duration": 1.0666669999999954
                },
                {
                    "name": "F4",
                    "midi": 65,
                    "time": 178.1333890000015,
                    "velocity": 0.2204724409448819,
                    "duration": 1.0666669999999954
                }
            ],
            "controlChanges": {},
            "id": 2,
            "name": "Piano left",
            "instrumentNumber": 0,
            "instrument": "acoustic grand piano",
            "instrumentFamily": "piano",
            "channelNumber": 0,
            "isPercussion": false
        },
        {
            "startTime": 0,
            "duration": 0,
            "length": 0,
            "notes": [],
            "controlChanges": {
                "64": [
                    {
                        "number": 64,
                        "time": 0.9022225041666667,
                        "value": 1
                    },
                    {
                        "number": 64,
                        "time": 4.317779127083334,
                        "value": 0
                    },
                    {
                        "number": 64,
                        "time": 5.19333495625,
                        "value": 1
                    },
                    {
                        "number": 64,
                        "time": 9.622225229166666,
                        "value": 0
                    },
                    {
                        "number": 64,
                        "time": 9.828891960416666,
                        "value": 1
                    },
                    {
                        "number": 64,
                        "time": 11.755559229166666,
                        "value": 0
                    },
                    {
                        "number": 64,
                        "time": 12.00000375,
                        "value": 1
                    },
                    {
                        "number": 64,
                        "time": 13.611115364583332,
                        "value": 0
                    },
                    {
                        "number": 64,
                        "time": 13.74000429375,
                        "value": 1
                    },
                    {
                        "number": 64,
                        "time": 16.01778278333333,
                        "value": 0
                    },
                    {
                        "number": 64,
                        "time": 18.03111674583333,
                        "value": 1
                    },
                    {
                        "number": 64,
                        "time": 21.38445112708333,
                        "value": 0
                    },
                    {
                        "number": 64,
                        "time": 22.651118189583332,
                        "value": 1
                    },
                    {
                        "number": 64,
                        "time": 26.688897229166667,
                        "value": 0
                    },
                    {
                        "number": 64,
                        "time": 26.895563960416666,
                        "value": 1
                    },
                    {
                        "number": 64,
                        "time": 28.822231229166665,
                        "value": 0
                    },
                    {
                        "number": 64,
                        "time": 29.066675749999998,
                        "value": 1
                    },
                    {
                        "number": 64,
                        "time": 30.67778736458333,
                        "value": 0
                    },
                    {
                        "number": 64,
                        "time": 30.806676293749998,
                        "value": 1
                    },
                    {
                        "number": 64,
                        "time": 32.5333435,
                        "value": 0
                    },
                    {
                        "number": 64,
                        "time": 32.72223244791667,
                        "value": 1
                    },
                    {
                        "number": 64,
                        "time": 33.093343675,
                        "value": 0
                    },
                    {
                        "number": 64,
                        "time": 33.268899285416666,
                        "value": 1
                    },
                    {
                        "number": 64,
                        "time": 33.6133438375,
                        "value": 0
                    },
                    {
                        "number": 64,
                        "time": 33.78889944791666,
                        "value": 1
                    },
                    {
                        "number": 64,
                        "time": 34.133343999999994,
                        "value": 0
                    },
                    {
                        "number": 64,
                        "time": 34.40001074999999,
                        "value": 1
                    },
                    {
                        "number": 64,
                        "time": 35.224455452083326,
                        "value": 0
                    },
                    {
                        "number": 64,
                        "time": 35.371122164583326,
                        "value": 1
                    },
                    {
                        "number": 64,
                        "time": 36.28001133749999,
                        "value": 0
                    },
                    {
                        "number": 64,
                        "time": 36.40667804374999,
                        "value": 1
                    },
                    {
                        "number": 64,
                        "time": 36.828900397916655,
                        "value": 0
                    },
                    {
                        "number": 64,
                        "time": 36.93334487499999,
                        "value": 1
                    },
                    {
                        "number": 64,
                        "time": 37.36001167499999,
                        "value": 0
                    },
                    {
                        "number": 64,
                        "time": 37.47334504374999,
                        "value": 1
                    },
                    {
                        "number": 64,
                        "time": 38.43112312083332,
                        "value": 0
                    },
                    {
                        "number": 64,
                        "time": 38.651123189583316,
                        "value": 1
                    },
                    {
                        "number": 64,
                        "time": 39.49556789791665,
                        "value": 0
                    },
                    {
                        "number": 64,
                        "time": 39.733345749999984,
                        "value": 1
                    },
                    {
                        "number": 64,
                        "time": 40.56001267499998,
                        "value": 0
                    },
                    {
                        "number": 64,
                        "time": 41.55334631874998,
                        "value": 1
                    },
                    {
                        "number": 64,
                        "time": 42.66667999999998,
                        "value": 0
                    },
                    {
                        "number": 64,
                        "time": 42.93334674999998,
                        "value": 1
                    },
                    {
                        "number": 64,
                        "time": 43.748902560416646,
                        "value": 0
                    },
                    {
                        "number": 64,
                        "time": 44.05112487708331,
                        "value": 1
                    },
                    {
                        "number": 64,
                        "time": 45.89112545208331,
                        "value": 0
                    },
                    {
                        "number": 64,
                        "time": 46.10890329791664,
                        "value": 1
                    },
                    {
                        "number": 64,
                        "time": 46.957792452083304,
                        "value": 0
                    },
                    {
                        "number": 64,
                        "time": 47.124459170833305,
                        "value": 1
                    },
                    {
                        "number": 64,
                        "time": 48.028903897916635,
                        "value": 0
                    },
                    {
                        "number": 64,
                        "time": 48.25557063541663,
                        "value": 1
                    },
                    {
                        "number": 64,
                        "time": 49.08223756041663,
                        "value": 0
                    },
                    {
                        "number": 64,
                        "time": 49.30890429791663,
                        "value": 1
                    },
                    {
                        "number": 64,
                        "time": 50.162237897916626,
                        "value": 0
                    },
                    {
                        "number": 64,
                        "time": 50.32446017083329,
                        "value": 1
                    },
                    {
                        "number": 64,
                        "time": 51.200015999999955,
                        "value": 0
                    },
                    {
                        "number": 64,
                        "time": 51.41557162291662,
                        "value": 1
                    },
                    {
                        "number": 64,
                        "time": 52.28890522916662,
                        "value": 0
                    },
                    {
                        "number": 64,
                        "time": 52.482238622916626,
                        "value": 1
                    },
                    {
                        "number": 64,
                        "time": 53.362238897916626,
                        "value": 0
                    },
                    {
                        "number": 64,
                        "time": 53.53779450833329,
                        "value": 1
                    },
                    {
                        "number": 64,
                        "time": 54.42890589791663,
                        "value": 0
                    },
                    {
                        "number": 64,
                        "time": 54.61557262291663,
                        "value": 1
                    },
                    {
                        "number": 64,
                        "time": 55.473350668749966,
                        "value": 0
                    },
                    {
                        "number": 64,
                        "time": 55.657795170833296,
                        "value": 1
                    },
                    {
                        "number": 64,
                        "time": 56.562239897916626,
                        "value": 0
                    },
                    {
                        "number": 64,
                        "time": 56.72446217083329,
                        "value": 1
                    },
                    {
                        "number": 64,
                        "time": 57.62890689791662,
                        "value": 0
                    },
                    {
                        "number": 64,
                        "time": 57.893351424999956,
                        "value": 1
                    },
                    {
                        "number": 64,
                        "time": 58.695573897916624,
                        "value": 0
                    },
                    {
                        "number": 64,
                        "time": 58.882240622916626,
                        "value": 1
                    },
                    {
                        "number": 64,
                        "time": 59.73335199999996,
                        "value": 0
                    },
                    {
                        "number": 64,
                        "time": 60.01335208749996,
                        "value": 1
                    },
                    {
                        "number": 64,
                        "time": 62.96224189791663,
                        "value": 0
                    },
                    {
                        "number": 64,
                        "time": 63.11113083333329,
                        "value": 1
                    },
                    {
                        "number": 64,
                        "time": 64.0244644520833,
                        "value": 0
                    },
                    {
                        "number": 64,
                        "time": 64.11557559166663,
                        "value": 1
                    },
                    {
                        "number": 64,
                        "time": 65.07779811458329,
                        "value": 0
                    },
                    {
                        "number": 64,
                        "time": 65.16224258541662,
                        "value": 1
                    },
                    {
                        "number": 64,
                        "time": 66.15113178333328,
                        "value": 0
                    },
                    {
                        "number": 64,
                        "time": 66.26668737499995,
                        "value": 1
                    },
                    {
                        "number": 64,
                        "time": 66.68446528333328,
                        "value": 0
                    },
                    {
                        "number": 64,
                        "time": 66.80002087499994,
                        "value": 1
                    },
                    {
                        "number": 64,
                        "time": 67.22446545208328,
                        "value": 0
                    },
                    {
                        "number": 64,
                        "time": 67.33335437499994,
                        "value": 1
                    },
                    {
                        "number": 64,
                        "time": 68.29335467499995,
                        "value": 0
                    },
                    {
                        "number": 64,
                        "time": 68.36891025416661,
                        "value": 1
                    },
                    {
                        "number": 64,
                        "time": 69.34002166874994,
                        "value": 0
                    },
                    {
                        "number": 64,
                        "time": 69.46002170624995,
                        "value": 1
                    },
                    {
                        "number": 64,
                        "time": 71.49557789791662,
                        "value": 0
                    },
                    {
                        "number": 64,
                        "time": 71.58891126041662,
                        "value": 1
                    },
                    {
                        "number": 64,
                        "time": 72.55335600624996,
                        "value": 0
                    },
                    {
                        "number": 64,
                        "time": 72.62668936249996,
                        "value": 1
                    },
                    {
                        "number": 64,
                        "time": 73.62224522916662,
                        "value": 0
                    },
                    {
                        "number": 64,
                        "time": 73.69780080833328,
                        "value": 1
                    },
                    {
                        "number": 64,
                        "time": 74.68669000624995,
                        "value": 0
                    },
                    {
                        "number": 64,
                        "time": 74.76446780833328,
                        "value": 1
                    },
                    {
                        "number": 64,
                        "time": 75.75335700624994,
                        "value": 0
                    },
                    {
                        "number": 64,
                        "time": 75.82002369374995,
                        "value": 1
                    },
                    {
                        "number": 64,
                        "time": 76.75335731874995,
                        "value": 0
                    },
                    {
                        "number": 64,
                        "time": 77.31557971666662,
                        "value": 1
                    },
                    {
                        "number": 64,
                        "time": 77.82891321041662,
                        "value": 0
                    },
                    {
                        "number": 64,
                        "time": 78.42002450624994,
                        "value": 1
                    },
                    {
                        "number": 64,
                        "time": 79.01113580208327,
                        "value": 0
                    },
                    {
                        "number": 64,
                        "time": 79.5489137479166,
                        "value": 1
                    },
                    {
                        "number": 64,
                        "time": 80.03335834374994,
                        "value": 0
                    },
                    {
                        "number": 64,
                        "time": 80.59113629583327,
                        "value": 1
                    },
                    {
                        "number": 64,
                        "time": 81.06669199999993,
                        "value": 0
                    },
                    {
                        "number": 64,
                        "time": 81.70224775416659,
                        "value": 1
                    },
                    {
                        "number": 64,
                        "time": 82.16002567499993,
                        "value": 0
                    },
                    {
                        "number": 64,
                        "time": 82.79335920624993,
                        "value": 1
                    },
                    {
                        "number": 64,
                        "time": 83.23335934374992,
                        "value": 0
                    },
                    {
                        "number": 64,
                        "time": 83.88669288124993,
                        "value": 1
                    },
                    {
                        "number": 64,
                        "time": 84.3622485854166,
                        "value": 0
                    },
                    {
                        "number": 64,
                        "time": 84.94002654374992,
                        "value": 1
                    },
                    {
                        "number": 64,
                        "time": 85.33335999999993,
                        "value": 0
                    },
                    {
                        "number": 64,
                        "time": 86.32447142083326,
                        "value": 1
                    },
                    {
                        "number": 64,
                        "time": 89.65113912708327,
                        "value": 0
                    },
                    {
                        "number": 64,
                        "time": 90.6289172104166,
                        "value": 1
                    },
                    {
                        "number": 64,
                        "time": 94.9555852291666,
                        "value": 0
                    },
                    {
                        "number": 64,
                        "time": 95.1622519604166,
                        "value": 1
                    },
                    {
                        "number": 64,
                        "time": 97.08891922916659,
                        "value": 0
                    },
                    {
                        "number": 64,
                        "time": 97.33336374999992,
                        "value": 1
                    },
                    {
                        "number": 64,
                        "time": 98.94447536458325,
                        "value": 0
                    },
                    {
                        "number": 64,
                        "time": 99.07336429374992,
                        "value": 1
                    },
                    {
                        "number": 64,
                        "time": 100.80225372291659,
                        "value": 0
                    },
                    {
                        "number": 64,
                        "time": 100.98892044791658,
                        "value": 1
                    },
                    {
                        "number": 64,
                        "time": 101.36225389791659,
                        "value": 0
                    },
                    {
                        "number": 64,
                        "time": 101.53780950833325,
                        "value": 1
                    },
                    {
                        "number": 64,
                        "time": 101.88225406041659,
                        "value": 0
                    },
                    {
                        "number": 64,
                        "time": 102.05558744791658,
                        "value": 1
                    },
                    {
                        "number": 64,
                        "time": 102.40225422291658,
                        "value": 0
                    },
                    {
                        "number": 64,
                        "time": 102.48447647083324,
                        "value": 1
                    },
                    {
                        "number": 64,
                        "time": 103.49336567499991,
                        "value": 0
                    },
                    {
                        "number": 64,
                        "time": 103.6400323874999,
                        "value": 1
                    },
                    {
                        "number": 64,
                        "time": 104.54892156041657,
                        "value": 0
                    },
                    {
                        "number": 64,
                        "time": 104.67558826666658,
                        "value": 1
                    },
                    {
                        "number": 64,
                        "time": 105.09781062083324,
                        "value": 0
                    },
                    {
                        "number": 64,
                        "time": 105.20225509791658,
                        "value": 1
                    },
                    {
                        "number": 64,
                        "time": 105.62892189791658,
                        "value": 0
                    },
                    {
                        "number": 64,
                        "time": 105.74225526666659,
                        "value": 1
                    },
                    {
                        "number": 64,
                        "time": 106.70003334374992,
                        "value": 0
                    },
                    {
                        "number": 64,
                        "time": 106.92003341249992,
                        "value": 1
                    },
                    {
                        "number": 64,
                        "time": 107.76447812083325,
                        "value": 0
                    },
                    {
                        "number": 64,
                        "time": 108.00225597291659,
                        "value": 1
                    },
                    {
                        "number": 64,
                        "time": 108.82892289791658,
                        "value": 0
                    },
                    {
                        "number": 64,
                        "time": 109.82225654166659,
                        "value": 1
                    },
                    {
                        "number": 64,
                        "time": 110.93559022291659,
                        "value": 0
                    },
                    {
                        "number": 64,
                        "time": 111.10003471874992,
                        "value": 1
                    },
                    {
                        "number": 64,
                        "time": 112.01781278333326,
                        "value": 0
                    },
                    {
                        "number": 64,
                        "time": 112.32003509999993,
                        "value": 1
                    },
                    {
                        "number": 64,
                        "time": 114.16003567499993,
                        "value": 0
                    },
                    {
                        "number": 64,
                        "time": 114.3755912979166,
                        "value": 1
                    },
                    {
                        "number": 64,
                        "time": 115.22670267499993,
                        "value": 0
                    },
                    {
                        "number": 64,
                        "time": 115.39114717083326,
                        "value": 1
                    },
                    {
                        "number": 64,
                        "time": 116.29781412083327,
                        "value": 0
                    },
                    {
                        "number": 64,
                        "time": 116.5222586354166,
                        "value": 1
                    },
                    {
                        "number": 64,
                        "time": 117.35114778333327,
                        "value": 0
                    },
                    {
                        "number": 64,
                        "time": 117.57559229791661,
                        "value": 1
                    },
                    {
                        "number": 64,
                        "time": 118.43114812083329,
                        "value": 0
                    },
                    {
                        "number": 64,
                        "time": 118.59114817083328,
                        "value": 1
                    },
                    {
                        "number": 64,
                        "time": 119.46892622291661,
                        "value": 0
                    },
                    {
                        "number": 64,
                        "time": 119.68448184583328,
                        "value": 1
                    },
                    {
                        "number": 64,
                        "time": 120.55781545208328,
                        "value": 0
                    },
                    {
                        "number": 64,
                        "time": 120.75114884583327,
                        "value": 1
                    },
                    {
                        "number": 64,
                        "time": 121.63114912083327,
                        "value": 0
                    },
                    {
                        "number": 64,
                        "time": 121.80448250833327,
                        "value": 1
                    },
                    {
                        "number": 64,
                        "time": 122.69781612083327,
                        "value": 0
                    },
                    {
                        "number": 64,
                        "time": 122.88448284583326,
                        "value": 1
                    },
                    {
                        "number": 64,
                        "time": 123.74226089166659,
                        "value": 0
                    },
                    {
                        "number": 64,
                        "time": 123.92448317083326,
                        "value": 1
                    },
                    {
                        "number": 64,
                        "time": 124.83115012083326,
                        "value": 0
                    },
                    {
                        "number": 64,
                        "time": 124.99115017083325,
                        "value": 1
                    },
                    {
                        "number": 64,
                        "time": 125.89781712083325,
                        "value": 0
                    },
                    {
                        "number": 64,
                        "time": 126.16003942499992,
                        "value": 1
                    },
                    {
                        "number": 64,
                        "time": 126.96448412083326,
                        "value": 0
                    },
                    {
                        "number": 64,
                        "time": 127.15115084583326,
                        "value": 1
                    },
                    {
                        "number": 64,
                        "time": 128.00003999999993,
                        "value": 0
                    },
                    {
                        "number": 64,
                        "time": 128.28004008749994,
                        "value": 1
                    },
                    {
                        "number": 64,
                        "time": 131.2289298979166,
                        "value": 0
                    },
                    {
                        "number": 64,
                        "time": 131.37781883333327,
                        "value": 1
                    },
                    {
                        "number": 64,
                        "time": 132.29115245208325,
                        "value": 0
                    },
                    {
                        "number": 64,
                        "time": 132.3822635916666,
                        "value": 1
                    },
                    {
                        "number": 64,
                        "time": 133.34448611458328,
                        "value": 0
                    },
                    {
                        "number": 64,
                        "time": 133.42893058541662,
                        "value": 1
                    },
                    {
                        "number": 64,
                        "time": 134.4178197833333,
                        "value": 0
                    },
                    {
                        "number": 64,
                        "time": 134.53337537499996,
                        "value": 1
                    },
                    {
                        "number": 64,
                        "time": 134.9511532833333,
                        "value": 0
                    },
                    {
                        "number": 64,
                        "time": 135.06670887499996,
                        "value": 1
                    },
                    {
                        "number": 64,
                        "time": 135.4911534520833,
                        "value": 0
                    },
                    {
                        "number": 64,
                        "time": 135.60004237499996,
                        "value": 1
                    },
                    {
                        "number": 64,
                        "time": 136.56004267499995,
                        "value": 0
                    },
                    {
                        "number": 64,
                        "time": 136.6355982541666,
                        "value": 1
                    },
                    {
                        "number": 64,
                        "time": 137.60670966874994,
                        "value": 0
                    },
                    {
                        "number": 64,
                        "time": 137.72670970624995,
                        "value": 1
                    },
                    {
                        "number": 64,
                        "time": 139.76226589791662,
                        "value": 0
                    },
                    {
                        "number": 64,
                        "time": 139.85559926041662,
                        "value": 1
                    },
                    {
                        "number": 64,
                        "time": 140.82004400624996,
                        "value": 0
                    },
                    {
                        "number": 64,
                        "time": 140.89337736249996,
                        "value": 1
                    },
                    {
                        "number": 64,
                        "time": 141.88893322916664,
                        "value": 0
                    },
                    {
                        "number": 64,
                        "time": 141.9644888083333,
                        "value": 1
                    },
                    {
                        "number": 64,
                        "time": 142.95337800624998,
                        "value": 0
                    },
                    {
                        "number": 64,
                        "time": 143.03115580833332,
                        "value": 1
                    },
                    {
                        "number": 64,
                        "time": 144.02004500625,
                        "value": 0
                    },
                    {
                        "number": 64,
                        "time": 144.08671169375,
                        "value": 1
                    },
                    {
                        "number": 64,
                        "time": 145.02004531875,
                        "value": 0
                    },
                    {
                        "number": 64,
                        "time": 145.58226771666665,
                        "value": 1
                    },
                    {
                        "number": 64,
                        "time": 146.09560121041665,
                        "value": 0
                    },
                    {
                        "number": 64,
                        "time": 146.68671250625,
                        "value": 1
                    },
                    {
                        "number": 64,
                        "time": 147.27782380208333,
                        "value": 0
                    },
                    {
                        "number": 64,
                        "time": 147.81560174791667,
                        "value": 1
                    },
                    {
                        "number": 64,
                        "time": 148.30004634375,
                        "value": 0
                    },
                    {
                        "number": 64,
                        "time": 148.85782429583335,
                        "value": 1
                    },
                    {
                        "number": 64,
                        "time": 149.33338000000003,
                        "value": 0
                    },
                    {
                        "number": 64,
                        "time": 149.9689357541667,
                        "value": 1
                    },
                    {
                        "number": 64,
                        "time": 150.42671367500003,
                        "value": 0
                    },
                    {
                        "number": 64,
                        "time": 151.06004720625003,
                        "value": 1
                    },
                    {
                        "number": 64,
                        "time": 151.50004734375003,
                        "value": 0
                    },
                    {
                        "number": 64,
                        "time": 152.15338088125003,
                        "value": 1
                    },
                    {
                        "number": 64,
                        "time": 152.6289365854167,
                        "value": 0
                    },
                    {
                        "number": 64,
                        "time": 153.20671454375005,
                        "value": 1
                    },
                    {
                        "number": 64,
                        "time": 153.60004800000004,
                        "value": 0
                    },
                    {
                        "number": 64,
                        "time": 154.4222704791667,
                        "value": 1
                    },
                    {
                        "number": 64,
                        "time": 157.86671600000005,
                        "value": 0
                    },
                    {
                        "number": 64,
                        "time": 158.13338275000007,
                        "value": 1
                    },
                    {
                        "number": 64,
                        "time": 158.95338300625008,
                        "value": 0
                    },
                    {
                        "number": 64,
                        "time": 160.21560562291674,
                        "value": 1
                    },
                    {
                        "number": 64,
                        "time": 161.09338367500007,
                        "value": 0
                    },
                    {
                        "number": 64,
                        "time": 162.13338400000006,
                        "value": 0
                    },
                    {
                        "number": 64,
                        "time": 163.06005095625005,
                        "value": 1
                    },
                    {
                        "number": 64,
                        "time": 166.40005200000004,
                        "value": 0
                    },
                    {
                        "number": 64,
                        "time": 166.66671875000006,
                        "value": 1
                    },
                    {
                        "number": 64,
                        "time": 167.48671900625007,
                        "value": 0
                    },
                    {
                        "number": 64,
                        "time": 168.74894162291673,
                        "value": 1
                    },
                    {
                        "number": 64,
                        "time": 169.62671967500006,
                        "value": 0
                    },
                    {
                        "number": 64,
                        "time": 170.53338662500005,
                        "value": 1
                    },
                    {
                        "number": 64,
                        "time": 179.73338950000004,
                        "value": 0
                    }
                ]
            },
            "id": 3,
            "name": "Pedale",
            "instrumentNumber": 0,
            "instrument": "acoustic grand piano",
            "instrumentFamily": "piano",
            "channelNumber": 0,
            "isPercussion": false
        },
        {
            "startTime": 0,
            "duration": 0,
            "length": 0,
            "notes": [],
            "controlChanges": {},
            "id": 4,
            "name": "Beethoven: Sonate Les adieux No. 2"
        },
        {
            "startTime": 0,
            "duration": 0,
            "length": 0,
            "notes": [],
            "controlChanges": {},
            "id": 5,
            "name": "Copyright  2008 by Bernd Krueger"
        },
        {
            "startTime": 0,
            "duration": 0,
            "length": 0,
            "notes": [],
            "controlChanges": {},
            "id": 6,
            "name": "http://www.piano-midi.de/"
        },
        {
            "startTime": 0,
            "duration": 0,
            "length": 0,
            "notes": [],
            "controlChanges": {},
            "id": 7,
            "name": "Edition: 20012-08-07"
        },
        {
            "startTime": 0,
            "duration": 0,
            "length": 0,
            "notes": [],
            "controlChanges": {},
            "id": 8,
            "name": "Spur 8"
        },
        {
            "startTime": 0,
            "duration": 0,
            "length": 0,
            "notes": [],
            "controlChanges": {},
            "id": 9,
            "name": "Spur 9"
        },
        {
            "startTime": 0,
            "duration": 0,
            "length": 0,
            "notes": [],
            "controlChanges": {},
            "id": 10,
            "name": "Spur 10"
        },
        {
            "startTime": 0,
            "duration": 0,
            "length": 0,
            "notes": [],
            "controlChanges": {},
            "id": 11,
            "name": "Spur 11"
        },
        {
            "startTime": 0,
            "duration": 0,
            "length": 0,
            "notes": [],
            "controlChanges": {},
            "id": 12,
            "name": "Spur 12"
        },
        {
            "startTime": 0,
            "duration": 0,
            "length": 0,
            "notes": [],
            "controlChanges": {},
            "id": 13,
            "name": "Spur 13"
        },
        {
            "startTime": 0,
            "duration": 0,
            "length": 0,
            "notes": [],
            "controlChanges": {},
            "id": 14,
            "name": "Spur 14"
        },
        {
            "startTime": 0,
            "duration": 0,
            "length": 0,
            "notes": [],
            "controlChanges": {},
            "id": 15,
            "name": "Spur 15"
        },
        {
            "startTime": 0,
            "duration": 0,
            "length": 0,
            "notes": [],
            "controlChanges": {},
            "id": 16,
            "name": "Spur 16"
        }
    ]
}