{
    "header": {
        "PPQ": 480,
        "timeSignature": [
            4,
            4
        ],
        "bpm": 68.50003196668159,
        "name": "Sonate Op. 10 No. 1 2. Satz"
    },
    "startTime": 0,
    "duration": 392.40857600000146,
    "tracks": [
        {
            "startTime": 0,
            "duration": 0,
            "length": 0,
            "notes": [],
            "controlChanges": {},
            "id": 0,
            "name": "Sonate Op. 10 No. 1 2. Satz"
        },
        {
            "startTime": 0,
            "duration": 392.4085759999996,
            "length": 915,
            "notes": [
                {
                    "name": "C4",
                    "midi": 60,
                    "time": 0,
                    "velocity": 0.33070866141732286,
                    "duration": 1.7518239999999996
                },
                {
                    "name": "G#4",
                    "midi": 68,
                    "time": 0,
                    "velocity": 0.3937007874015748,
                    "duration": 1.3138679999999998
                },
                {
                    "name": "A#4",
                    "midi": 70,
                    "time": 1.3138679999999998,
                    "velocity": 0.3937007874015748,
                    "duration": 0.10948899999999995
                },
                {
                    "name": "G#4",
                    "midi": 68,
                    "time": 1.4233569999999998,
                    "velocity": 0.36220472440944884,
                    "duration": 0.10948899999999995
                },
                {
                    "name": "G4",
                    "midi": 67,
                    "time": 1.5328459999999997,
                    "velocity": 0.36220472440944884,
                    "duration": 0.10948899999999995
                },
                {
                    "name": "G#4",
                    "midi": 68,
                    "time": 1.6423349999999997,
                    "velocity": 0.36220472440944884,
                    "duration": 0.10948899999999995
                },
                {
                    "name": "C5",
                    "midi": 72,
                    "time": 1.7518239999999996,
                    "velocity": 0.4251968503937008,
                    "duration": 1.3138679999999998
                },
                {
                    "name": "C#4",
                    "midi": 61,
                    "time": 1.7518239999999996,
                    "velocity": 0.3543307086614173,
                    "duration": 1.7518239999999996
                },
                {
                    "name": "A#4",
                    "midi": 70,
                    "time": 3.0656919999999994,
                    "velocity": 0.3543307086614173,
                    "duration": 0.4379559999999998
                },
                {
                    "name": "C4",
                    "midi": 60,
                    "time": 3.503647999999999,
                    "velocity": 0.33070866141732286,
                    "duration": 2.6277359999999996
                },
                {
                    "name": "G#4",
                    "midi": 68,
                    "time": 3.503647999999999,
                    "velocity": 0.3937007874015748,
                    "duration": 2.6277359999999996
                },
                {
                    "name": "A4",
                    "midi": 69,
                    "time": 6.131383999999999,
                    "velocity": 0.3937007874015748,
                    "duration": 0.8759119999999996
                },
                {
                    "name": "D#4",
                    "midi": 63,
                    "time": 7.007295999999998,
                    "velocity": 0.33070866141732286,
                    "duration": 1.7518239999999992
                },
                {
                    "name": "A#4",
                    "midi": 70,
                    "time": 7.007295999999998,
                    "velocity": 0.3937007874015748,
                    "duration": 0.8759119999999996
                },
                {
                    "name": "C5",
                    "midi": 72,
                    "time": 8.321163999999998,
                    "velocity": 0.3937007874015748,
                    "duration": 0.10948899999999995
                },
                {
                    "name": "A#4",
                    "midi": 70,
                    "time": 8.430652999999998,
                    "velocity": 0.36220472440944884,
                    "duration": 0.10948899999999995
                },
                {
                    "name": "A4",
                    "midi": 69,
                    "time": 8.540141999999998,
                    "velocity": 0.36220472440944884,
                    "duration": 0.10948899999999995
                },
                {
                    "name": "A#4",
                    "midi": 70,
                    "time": 8.649630999999998,
                    "velocity": 0.36220472440944884,
                    "duration": 0.10948899999999995
                },
                {
                    "name": "C#5",
                    "midi": 73,
                    "time": 8.759119999999998,
                    "velocity": 0.4251968503937008,
                    "duration": 1.3138679999999994
                },
                {
                    "name": "D#4",
                    "midi": 63,
                    "time": 8.759119999999998,
                    "velocity": 0.3543307086614173,
                    "duration": 0.8759119999999996
                },
                {
                    "name": "G#4",
                    "midi": 68,
                    "time": 9.635031999999997,
                    "velocity": 0.33070866141732286,
                    "duration": 0.8759119999999996
                },
                {
                    "name": "C5",
                    "midi": 72,
                    "time": 10.072987999999997,
                    "velocity": 0.3543307086614173,
                    "duration": 0.4379559999999998
                },
                {
                    "name": "G4",
                    "midi": 67,
                    "time": 10.510943999999997,
                    "velocity": 0.33070866141732286,
                    "duration": 2.6277360000000005
                },
                {
                    "name": "A#4",
                    "midi": 70,
                    "time": 10.510943999999997,
                    "velocity": 0.3937007874015748,
                    "duration": 2.6277360000000005
                },
                {
                    "name": "B4",
                    "midi": 71,
                    "time": 13.138679999999997,
                    "velocity": 0.3937007874015748,
                    "duration": 0.8759119999999996
                },
                {
                    "name": "C5",
                    "midi": 72,
                    "time": 14.014591999999997,
                    "velocity": 0.49606299212598426,
                    "duration": 1.5328459999999993
                },
                {
                    "name": "D#4",
                    "midi": 63,
                    "time": 14.014591999999997,
                    "velocity": 0.49606299212598426,
                    "duration": 1.7518239999999992
                },
                {
                    "name": "G#4",
                    "midi": 68,
                    "time": 15.547437999999996,
                    "velocity": 0.4094488188976378,
                    "duration": 0.2189779999999999
                },
                {
                    "name": "D#5",
                    "midi": 75,
                    "time": 15.766415999999996,
                    "velocity": 0.5039370078740157,
                    "duration": 1.5328459999999993
                },
                {
                    "name": "G#4",
                    "midi": 68,
                    "time": 15.766415999999996,
                    "velocity": 0.5039370078740157,
                    "duration": 1.7518239999999992
                },
                {
                    "name": "D#4",
                    "midi": 63,
                    "time": 15.766415999999996,
                    "velocity": 0.4330708661417323,
                    "duration": 1.7518239999999992
                },
                {
                    "name": "C5",
                    "midi": 72,
                    "time": 17.299261999999995,
                    "velocity": 0.47244094488188976,
                    "duration": 0.2189779999999999
                },
                {
                    "name": "F4",
                    "midi": 65,
                    "time": 17.518239999999995,
                    "velocity": 0.4330708661417323,
                    "duration": 1.7518239999999992
                },
                {
                    "name": "G#4",
                    "midi": 68,
                    "time": 17.518239999999995,
                    "velocity": 0.5039370078740157,
                    "duration": 1.7518239999999992
                },
                {
                    "name": "F5",
                    "midi": 77,
                    "time": 17.518239999999995,
                    "velocity": 0.5511811023622047,
                    "duration": 1.5328459999999993
                },
                {
                    "name": "C#5",
                    "midi": 73,
                    "time": 19.051085999999994,
                    "velocity": 0.5275590551181102,
                    "duration": 0.2189779999999999
                },
                {
                    "name": "G#4",
                    "midi": 68,
                    "time": 19.489041999999994,
                    "velocity": 0.5511811023622047,
                    "duration": 3.2846700000000055
                },
                {
                    "name": "C#5",
                    "midi": 73,
                    "time": 19.543786499999996,
                    "velocity": 0.5905511811023622,
                    "duration": 3.229925500000004
                },
                {
                    "name": "F5",
                    "midi": 77,
                    "time": 19.598530999999998,
                    "velocity": 0.6141732283464567,
                    "duration": 1.4233570000000029
                },
                {
                    "name": "G#5",
                    "midi": 80,
                    "time": 19.6532755,
                    "velocity": 0.6456692913385826,
                    "duration": 1.806568500000001
                },
                {
                    "name": "G5",
                    "midi": 79,
                    "time": 21.459844,
                    "velocity": 0.49606299212598426,
                    "duration": 0.40145966666666766
                },
                {
                    "name": "F5",
                    "midi": 77,
                    "time": 21.8978,
                    "velocity": 0.4645669291338583,
                    "duration": 0.40145966666666766
                },
                {
                    "name": "D#5",
                    "midi": 75,
                    "time": 22.335756,
                    "velocity": 0.4409448818897638,
                    "duration": 0.40145966666666766
                },
                {
                    "name": "A#4",
                    "midi": 70,
                    "time": 22.773712,
                    "velocity": 0.4015748031496063,
                    "duration": 0.8759119999999996
                },
                {
                    "name": "C#5",
                    "midi": 73,
                    "time": 22.773712,
                    "velocity": 0.47244094488188976,
                    "duration": 0.8759119999999996
                },
                {
                    "name": "G#4",
                    "midi": 68,
                    "time": 23.649624,
                    "velocity": 0.3464566929133858,
                    "duration": 0.8759119999999996
                },
                {
                    "name": "C5",
                    "midi": 72,
                    "time": 23.649624,
                    "velocity": 0.4094488188976378,
                    "duration": 0.8759119999999996
                },
                {
                    "name": "D#4",
                    "midi": 63,
                    "time": 24.525536,
                    "velocity": 0.36220472440944884,
                    "duration": 0.8759119999999996
                },
                {
                    "name": "D#5",
                    "midi": 75,
                    "time": 24.525536,
                    "velocity": 0.4330708661417323,
                    "duration": 1.3138679999999994
                },
                {
                    "name": "D#4",
                    "midi": 63,
                    "time": 25.401448,
                    "velocity": 0.30708661417322836,
                    "duration": 0.8759119999999996
                },
                {
                    "name": "C5",
                    "midi": 72,
                    "time": 25.839404,
                    "velocity": 0.4015748031496063,
                    "duration": 0.4379559999999998
                },
                {
                    "name": "D#4",
                    "midi": 63,
                    "time": 26.277359999999998,
                    "velocity": 0.3543307086614173,
                    "duration": 0.8759120000000102
                },
                {
                    "name": "A#4",
                    "midi": 70,
                    "time": 26.277359999999998,
                    "velocity": 0.41732283464566927,
                    "duration": 0.05474450000000175
                },
                {
                    "name": "A#4",
                    "midi": 70,
                    "time": 26.277359999999998,
                    "velocity": 0.4015748031496063,
                    "duration": 0.16423350000000525
                },
                {
                    "name": "C5",
                    "midi": 72,
                    "time": 26.3321045,
                    "velocity": 0.36220472440944884,
                    "duration": 0.05474450000000175
                },
                {
                    "name": "A#4",
                    "midi": 70,
                    "time": 26.386849,
                    "velocity": 0.4015748031496063,
                    "duration": 0.18248166666667132
                },
                {
                    "name": "C5",
                    "midi": 72,
                    "time": 26.441593500000003,
                    "velocity": 0.3543307086614173,
                    "duration": 0.05474450000000175
                },
                {
                    "name": "A#4",
                    "midi": 70,
                    "time": 26.496338000000005,
                    "velocity": 0.4015748031496063,
                    "duration": 0.21897800000000345
                },
                {
                    "name": "A4",
                    "midi": 69,
                    "time": 26.569330666666673,
                    "velocity": 0.36220472440944884,
                    "duration": 0.07299266666666782
                },
                {
                    "name": "A#4",
                    "midi": 70,
                    "time": 26.64232333333334,
                    "velocity": 0.36220472440944884,
                    "duration": 0.5109486666666676
                },
                {
                    "name": "C#5",
                    "midi": 73,
                    "time": 26.71531600000001,
                    "velocity": 0.44881889763779526,
                    "duration": 0.2189779999999999
                },
                {
                    "name": "C5",
                    "midi": 72,
                    "time": 26.93429400000001,
                    "velocity": 0.3779527559055118,
                    "duration": 0.2189779999999999
                },
                {
                    "name": "D#5",
                    "midi": 75,
                    "time": 27.15327200000001,
                    "velocity": 0.4330708661417323,
                    "duration": 0.2189779999999999
                },
                {
                    "name": "C#5",
                    "midi": 73,
                    "time": 27.372250000000008,
                    "velocity": 0.3700787401574803,
                    "duration": 0.2189779999999999
                },
                {
                    "name": "C5",
                    "midi": 72,
                    "time": 27.591228000000008,
                    "velocity": 0.4015748031496063,
                    "duration": 0.14598533333333208
                },
                {
                    "name": "C#5",
                    "midi": 73,
                    "time": 27.73721333333334,
                    "velocity": 0.3700787401574803,
                    "duration": 0.14598533333333208
                },
                {
                    "name": "A#4",
                    "midi": 70,
                    "time": 27.883198666666672,
                    "velocity": 0.3700787401574803,
                    "duration": 0.14598533333333208
                },
                {
                    "name": "C4",
                    "midi": 60,
                    "time": 28.029184000000004,
                    "velocity": 0.2677165354330709,
                    "duration": 1.7518239999999992
                },
                {
                    "name": "G#4",
                    "midi": 68,
                    "time": 28.029184000000004,
                    "velocity": 0.3937007874015748,
                    "duration": 1.3138679999999994
                },
                {
                    "name": "A#4",
                    "midi": 70,
                    "time": 29.343052000000004,
                    "velocity": 0.3937007874015748,
                    "duration": 0.10948899999999995
                },
                {
                    "name": "G#4",
                    "midi": 68,
                    "time": 29.452541000000004,
                    "velocity": 0.36220472440944884,
                    "duration": 0.10948899999999995
                },
                {
                    "name": "G4",
                    "midi": 67,
                    "time": 29.562030000000004,
                    "velocity": 0.36220472440944884,
                    "duration": 0.10948899999999995
                },
                {
                    "name": "G#4",
                    "midi": 68,
                    "time": 29.671519000000004,
                    "velocity": 0.36220472440944884,
                    "duration": 0.10948899999999995
                },
                {
                    "name": "C5",
                    "midi": 72,
                    "time": 29.781008000000003,
                    "velocity": 0.4251968503937008,
                    "duration": 1.3138679999999994
                },
                {
                    "name": "C#4",
                    "midi": 61,
                    "time": 29.781008000000003,
                    "velocity": 0.3543307086614173,
                    "duration": 1.7518239999999992
                },
                {
                    "name": "A#4",
                    "midi": 70,
                    "time": 31.094876000000003,
                    "velocity": 0.3543307086614173,
                    "duration": 0.4379559999999998
                },
                {
                    "name": "C4",
                    "midi": 60,
                    "time": 31.532832000000003,
                    "velocity": 0.33070866141732286,
                    "duration": 1.7518240000000027
                },
                {
                    "name": "G#4",
                    "midi": 68,
                    "time": 31.532832000000003,
                    "velocity": 0.3937007874015748,
                    "duration": 1.7518240000000027
                },
                {
                    "name": "A#4",
                    "midi": 70,
                    "time": 35.036480000000005,
                    "velocity": 0.4645669291338583,
                    "duration": 0.8759119999999996
                },
                {
                    "name": "C5",
                    "midi": 72,
                    "time": 36.350348000000004,
                    "velocity": 0.4251968503937008,
                    "duration": 0.1094890000000035
                },
                {
                    "name": "A#4",
                    "midi": 70,
                    "time": 36.45983700000001,
                    "velocity": 0.36220472440944884,
                    "duration": 0.1094890000000035
                },
                {
                    "name": "A4",
                    "midi": 69,
                    "time": 36.56932600000001,
                    "velocity": 0.3858267716535433,
                    "duration": 0.1094890000000035
                },
                {
                    "name": "A#4",
                    "midi": 70,
                    "time": 36.678815000000014,
                    "velocity": 0.3937007874015748,
                    "duration": 0.1094890000000035
                },
                {
                    "name": "C#5",
                    "midi": 73,
                    "time": 36.78830400000002,
                    "velocity": 0.4881889763779528,
                    "duration": 1.3138679999999994
                },
                {
                    "name": "G#4",
                    "midi": 68,
                    "time": 36.78830400000002,
                    "velocity": 0.4881889763779528,
                    "duration": 1.7518239999999992
                },
                {
                    "name": "C5",
                    "midi": 72,
                    "time": 38.10217200000002,
                    "velocity": 0.3937007874015748,
                    "duration": 0.4379559999999998
                },
                {
                    "name": "G4",
                    "midi": 67,
                    "time": 38.54012800000002,
                    "velocity": 0.44881889763779526,
                    "duration": 1.7518239999999992
                },
                {
                    "name": "A#4",
                    "midi": 70,
                    "time": 38.54012800000002,
                    "velocity": 0.44881889763779526,
                    "duration": 1.7518239999999992
                },
                {
                    "name": "D#4",
                    "midi": 63,
                    "time": 41.98903150000002,
                    "velocity": 0.28346456692913385,
                    "duration": 0.1642335000000017
                },
                {
                    "name": "C5",
                    "midi": 72,
                    "time": 42.043776000000015,
                    "velocity": 0.49606299212598426,
                    "duration": 1.5328460000000064
                },
                {
                    "name": "G#4",
                    "midi": 68,
                    "time": 43.57662200000002,
                    "velocity": 0.4094488188976378,
                    "duration": 0.2189779999999999
                },
                {
                    "name": "D#4",
                    "midi": 63,
                    "time": 43.74085550000002,
                    "velocity": 0.33858267716535434,
                    "duration": 0.2189779999999999
                },
                {
                    "name": "D#5",
                    "midi": 75,
                    "time": 43.79560000000002,
                    "velocity": 0.5039370078740157,
                    "duration": 1.5328459999999993
                },
                {
                    "name": "C5",
                    "midi": 72,
                    "time": 45.32844600000002,
                    "velocity": 0.47244094488188976,
                    "duration": 0.1094890000000035
                },
                {
                    "name": "F4",
                    "midi": 65,
                    "time": 45.49267950000002,
                    "velocity": 0.3464566929133858,
                    "duration": 0.1642335000000017
                },
                {
                    "name": "F5",
                    "midi": 77,
                    "time": 45.54742400000002,
                    "velocity": 0.5748031496062992,
                    "duration": 2.627736000000006
                },
                {
                    "name": "A4",
                    "midi": 69,
                    "time": 48.17516000000003,
                    "velocity": 0.4645669291338583,
                    "duration": 0.4379559999999998
                },
                {
                    "name": "D#5",
                    "midi": 75,
                    "time": 48.17516000000003,
                    "velocity": 0.5511811023622047,
                    "duration": 0.4379559999999998
                },
                {
                    "name": "A#4",
                    "midi": 70,
                    "time": 48.613116000000026,
                    "velocity": 0.4094488188976378,
                    "duration": 0.4379559999999998
                },
                {
                    "name": "C#5",
                    "midi": 73,
                    "time": 48.613116000000026,
                    "velocity": 0.4881889763779528,
                    "duration": 0.4379559999999998
                },
                {
                    "name": "G#4",
                    "midi": 68,
                    "time": 49.051072000000026,
                    "velocity": 0.4645669291338583,
                    "duration": 1.7518239999999992
                },
                {
                    "name": "C5",
                    "midi": 72,
                    "time": 49.051072000000026,
                    "velocity": 0.5511811023622047,
                    "duration": 0.8759119999999996
                },
                {
                    "name": "D#5",
                    "midi": 75,
                    "time": 49.926984000000026,
                    "velocity": 0.49606299212598426,
                    "duration": 0.8759119999999996
                },
                {
                    "name": "G4",
                    "midi": 67,
                    "time": 50.802896000000025,
                    "velocity": 0.4645669291338583,
                    "duration": 1.7518239999999992
                },
                {
                    "name": "C#5",
                    "midi": 73,
                    "time": 50.802896000000025,
                    "velocity": 0.5511811023622047,
                    "duration": 0.8759119999999996
                },
                {
                    "name": "A#4",
                    "midi": 70,
                    "time": 51.678808000000025,
                    "velocity": 0.47244094488188976,
                    "duration": 0.8759119999999996
                },
                {
                    "name": "C#4",
                    "midi": 61,
                    "time": 52.554720000000025,
                    "velocity": 0.4645669291338583,
                    "duration": 0.8759119999999996
                },
                {
                    "name": "A#4",
                    "midi": 70,
                    "time": 52.554720000000025,
                    "velocity": 0.5511811023622047,
                    "duration": 1.7518239999999992
                },
                {
                    "name": "C4",
                    "midi": 60,
                    "time": 53.430632000000024,
                    "velocity": 0.2677165354330709,
                    "duration": 0.2189779999999999
                },
                {
                    "name": "C#4",
                    "midi": 61,
                    "time": 53.649610000000024,
                    "velocity": 0.25196850393700787,
                    "duration": 0.2189779999999999
                },
                {
                    "name": "D#4",
                    "midi": 63,
                    "time": 53.868588000000024,
                    "velocity": 0.28346456692913385,
                    "duration": 0.2189779999999999
                },
                {
                    "name": "C#4",
                    "midi": 61,
                    "time": 54.087566000000024,
                    "velocity": 0.2440944881889764,
                    "duration": 0.2189779999999999
                },
                {
                    "name": "C4",
                    "midi": 60,
                    "time": 54.306544000000024,
                    "velocity": 0.29133858267716534,
                    "duration": 0.8759119999999996
                },
                {
                    "name": "G#4",
                    "midi": 68,
                    "time": 54.306544000000024,
                    "velocity": 0.3543307086614173,
                    "duration": 0.8759119999999996
                },
                {
                    "name": "F5",
                    "midi": 77,
                    "time": 56.003623500000025,
                    "velocity": 0.6141732283464567,
                    "duration": 0.1642335000000017
                },
                {
                    "name": "F6",
                    "midi": 89,
                    "time": 56.05836800000002,
                    "velocity": 0.7165354330708661,
                    "duration": 1.3138680000000065
                },
                {
                    "name": "D#6",
                    "midi": 87,
                    "time": 57.37223600000003,
                    "velocity": 0.5118110236220472,
                    "duration": 0.06386858333333834
                },
                {
                    "name": "C6",
                    "midi": 84,
                    "time": 57.4342797666667,
                    "velocity": 0.49606299212598426,
                    "duration": 0.06386858333333834
                },
                {
                    "name": "A5",
                    "midi": 81,
                    "time": 57.49814835000004,
                    "velocity": 0.4881889763779528,
                    "duration": 0.06204376666666889
                },
                {
                    "name": "F5",
                    "midi": 77,
                    "time": 57.560192116666705,
                    "velocity": 0.48031496062992124,
                    "duration": 0.06204376666666889
                },
                {
                    "name": "D#5",
                    "midi": 75,
                    "time": 57.622235883333374,
                    "velocity": 0.4645669291338583,
                    "duration": 0.06386858333333834
                },
                {
                    "name": "C5",
                    "midi": 72,
                    "time": 57.68427965000004,
                    "velocity": 0.44881889763779526,
                    "duration": 0.06386858333333834
                },
                {
                    "name": "A4",
                    "midi": 69,
                    "time": 57.74632341666671,
                    "velocity": 0.4409448818897638,
                    "duration": 0.06386858333333834
                },
                {
                    "name": "F4",
                    "midi": 65,
                    "time": 57.81019200000005,
                    "velocity": 0.6141732283464567,
                    "duration": 0.4379559999999998
                },
                {
                    "name": "C4",
                    "midi": 60,
                    "time": 59.34303800000005,
                    "velocity": 0.3543307086614173,
                    "duration": 0.20072983333333383
                },
                {
                    "name": "D#4",
                    "midi": 63,
                    "time": 59.34303800000005,
                    "velocity": 0.4251968503937008,
                    "duration": 0.20072983333333383
                },
                {
                    "name": "C4",
                    "midi": 60,
                    "time": 59.56201600000005,
                    "velocity": 0.3779527559055118,
                    "duration": 1.7518239999999992
                },
                {
                    "name": "D#4",
                    "midi": 63,
                    "time": 59.56201600000005,
                    "velocity": 0.44881889763779526,
                    "duration": 1.7518239999999992
                },
                {
                    "name": "A#3",
                    "midi": 58,
                    "time": 61.31384000000005,
                    "velocity": 0.2992125984251969,
                    "duration": 0.8759119999999996
                },
                {
                    "name": "C#4",
                    "midi": 61,
                    "time": 61.31384000000005,
                    "velocity": 0.3543307086614173,
                    "duration": 0.8759119999999996
                },
                {
                    "name": "D#5",
                    "midi": 75,
                    "time": 63.01091950000005,
                    "velocity": 0.6141732283464567,
                    "duration": 0.1642335000000017
                },
                {
                    "name": "D#6",
                    "midi": 87,
                    "time": 63.06566400000005,
                    "velocity": 0.7165354330708661,
                    "duration": 1.3138680000000065
                },
                {
                    "name": "C#6",
                    "midi": 85,
                    "time": 64.37953200000005,
                    "velocity": 0.5118110236220472,
                    "duration": 0.06386858333333123
                },
                {
                    "name": "A#5",
                    "midi": 82,
                    "time": 64.44157576666672,
                    "velocity": 0.49606299212598426,
                    "duration": 0.06386858333333123
                },
                {
                    "name": "G5",
                    "midi": 79,
                    "time": 64.50544435000005,
                    "velocity": 0.4881889763779528,
                    "duration": 0.06204376666666178
                },
                {
                    "name": "D#5",
                    "midi": 75,
                    "time": 64.56748811666671,
                    "velocity": 0.48031496062992124,
                    "duration": 0.06204376666666178
                },
                {
                    "name": "C#5",
                    "midi": 73,
                    "time": 64.62953188333337,
                    "velocity": 0.4645669291338583,
                    "duration": 0.06386858333333123
                },
                {
                    "name": "A#4",
                    "midi": 70,
                    "time": 64.69157565000003,
                    "velocity": 0.44881889763779526,
                    "duration": 0.06386858333334544
                },
                {
                    "name": "G4",
                    "midi": 67,
                    "time": 64.75361941666671,
                    "velocity": 0.4409448818897638,
                    "duration": 0.06386858333333123
                },
                {
                    "name": "D#4",
                    "midi": 63,
                    "time": 64.81748800000004,
                    "velocity": 0.6141732283464567,
                    "duration": 0.4379559999999998
                },
                {
                    "name": "A#3",
                    "midi": 58,
                    "time": 66.35033400000005,
                    "velocity": 0.3543307086614173,
                    "duration": 0.20072983333332672
                },
                {
                    "name": "C#4",
                    "midi": 61,
                    "time": 66.35033400000005,
                    "velocity": 0.4251968503937008,
                    "duration": 0.20072983333332672
                },
                {
                    "name": "A#3",
                    "midi": 58,
                    "time": 66.56931200000004,
                    "velocity": 0.3779527559055118,
                    "duration": 1.7518239999999992
                },
                {
                    "name": "C#4",
                    "midi": 61,
                    "time": 66.56931200000004,
                    "velocity": 0.44881889763779526,
                    "duration": 1.7518239999999992
                },
                {
                    "name": "G#3",
                    "midi": 56,
                    "time": 68.32113600000004,
                    "velocity": 0.2992125984251969,
                    "duration": 0.8759119999999996
                },
                {
                    "name": "C4",
                    "midi": 60,
                    "time": 68.32113600000004,
                    "velocity": 0.3543307086614173,
                    "duration": 0.8759119999999996
                },
                {
                    "name": "D#3",
                    "midi": 51,
                    "time": 73.35763000000004,
                    "velocity": 0.5433070866141733,
                    "duration": 0.20072983333332672
                },
                {
                    "name": "G#3",
                    "midi": 56,
                    "time": 73.35763000000004,
                    "velocity": 0.5433070866141733,
                    "duration": 0.20072983333332672
                },
                {
                    "name": "D#4",
                    "midi": 63,
                    "time": 73.35763000000004,
                    "velocity": 0.5433070866141733,
                    "duration": 0.20072983333332672
                },
                {
                    "name": "D#4",
                    "midi": 63,
                    "time": 73.57660800000004,
                    "velocity": 0.6535433070866141,
                    "duration": 1.7518239999999992
                },
                {
                    "name": "D4",
                    "midi": 62,
                    "time": 75.32843200000003,
                    "velocity": 0.36220472440944884,
                    "duration": 0.4379559999999998
                },
                {
                    "name": "E4",
                    "midi": 64,
                    "time": 75.76638800000003,
                    "velocity": 0.36220472440944884,
                    "duration": 0.45985380000000475
                },
                {
                    "name": "F4",
                    "midi": 65,
                    "time": 76.20434400000003,
                    "velocity": 0.4251968503937008,
                    "duration": 0.4379559999999998
                },
                {
                    "name": "A4",
                    "midi": 69,
                    "time": 76.64230000000003,
                    "velocity": 0.36220472440944884,
                    "duration": 0.45985380000000475
                },
                {
                    "name": "A#4",
                    "midi": 70,
                    "time": 77.08025600000003,
                    "velocity": 0.4251968503937008,
                    "duration": 0.4379559999999998
                },
                {
                    "name": "C#5",
                    "midi": 73,
                    "time": 77.51821200000003,
                    "velocity": 0.36220472440944884,
                    "duration": 0.45985380000000475
                },
                {
                    "name": "D5",
                    "midi": 74,
                    "time": 77.95616800000003,
                    "velocity": 0.4330708661417323,
                    "duration": 0.4379559999999998
                },
                {
                    "name": "E5",
                    "midi": 76,
                    "time": 78.39412400000003,
                    "velocity": 0.36220472440944884,
                    "duration": 0.45985380000000475
                },
                {
                    "name": "F5",
                    "midi": 77,
                    "time": 78.83208000000003,
                    "velocity": 0.4330708661417323,
                    "duration": 0.4379559999999998
                },
                {
                    "name": "G5",
                    "midi": 79,
                    "time": 79.27003600000003,
                    "velocity": 0.36220472440944884,
                    "duration": 0.45985380000000475
                },
                {
                    "name": "G#5",
                    "midi": 80,
                    "time": 79.70799200000003,
                    "velocity": 0.4330708661417323,
                    "duration": 0.4379559999999998
                },
                {
                    "name": "F5",
                    "midi": 77,
                    "time": 80.14594800000003,
                    "velocity": 0.36220472440944884,
                    "duration": 0.4379559999999998
                },
                {
                    "name": "D5",
                    "midi": 74,
                    "time": 80.58390400000003,
                    "velocity": 0.4330708661417323,
                    "duration": 2.189779999999999
                },
                {
                    "name": "D#5",
                    "midi": 75,
                    "time": 82.77368400000003,
                    "velocity": 0.3937007874015748,
                    "duration": 0.1094889999999964
                },
                {
                    "name": "D5",
                    "midi": 74,
                    "time": 82.88317300000003,
                    "velocity": 0.3937007874015748,
                    "duration": 0.1094889999999964
                },
                {
                    "name": "C5",
                    "midi": 72,
                    "time": 82.99266200000002,
                    "velocity": 0.3937007874015748,
                    "duration": 0.1094889999999964
                },
                {
                    "name": "D5",
                    "midi": 74,
                    "time": 83.10215100000002,
                    "velocity": 0.3937007874015748,
                    "duration": 0.1094889999999964
                },
                {
                    "name": "D#5",
                    "midi": 75,
                    "time": 83.21164000000002,
                    "velocity": 0.4330708661417323,
                    "duration": 0.6569340000000068
                },
                {
                    "name": "F5",
                    "midi": 77,
                    "time": 83.86857400000002,
                    "velocity": 0.4330708661417323,
                    "duration": 0.20072983333332672
                },
                {
                    "name": "F5",
                    "midi": 77,
                    "time": 84.08755200000002,
                    "velocity": 0.4330708661417323,
                    "duration": 0.8759119999999996
                },
                {
                    "name": "D#5",
                    "midi": 75,
                    "time": 84.96346400000002,
                    "velocity": 0.4330708661417323,
                    "duration": 1.7518239999999992
                },
                {
                    "name": "E5",
                    "midi": 76,
                    "time": 86.71528800000002,
                    "velocity": 0.4330708661417323,
                    "duration": 0.8759119999999996
                },
                {
                    "name": "F5",
                    "midi": 77,
                    "time": 87.59120000000001,
                    "velocity": 0.4330708661417323,
                    "duration": 2.189779999999999
                },
                {
                    "name": "G5",
                    "midi": 79,
                    "time": 89.78098000000001,
                    "velocity": 0.3937007874015748,
                    "duration": 0.1094889999999964
                },
                {
                    "name": "F5",
                    "midi": 77,
                    "time": 89.89046900000001,
                    "velocity": 0.3700787401574803,
                    "duration": 0.1094889999999964
                },
                {
                    "name": "D#5",
                    "midi": 75,
                    "time": 89.999958,
                    "velocity": 0.3858267716535433,
                    "duration": 0.1094889999999964
                },
                {
                    "name": "F5",
                    "midi": 77,
                    "time": 90.109447,
                    "velocity": 0.4015748031496063,
                    "duration": 0.1094889999999964
                },
                {
                    "name": "G5",
                    "midi": 79,
                    "time": 90.218936,
                    "velocity": 0.41732283464566927,
                    "duration": 0.6569340000000068
                },
                {
                    "name": "G#5",
                    "midi": 80,
                    "time": 90.87587,
                    "velocity": 0.47244094488188976,
                    "duration": 0.20072983333332672
                },
                {
                    "name": "G#5",
                    "midi": 80,
                    "time": 91.094848,
                    "velocity": 0.4566929133858268,
                    "duration": 0.8759119999999996
                },
                {
                    "name": "G5",
                    "midi": 79,
                    "time": 91.97076,
                    "velocity": 0.4330708661417323,
                    "duration": 0.8759119999999996
                },
                {
                    "name": "D4",
                    "midi": 62,
                    "time": 94.67148866666666,
                    "velocity": 0.23622047244094488,
                    "duration": 0.07299266666666426
                },
                {
                    "name": "D#4",
                    "midi": 63,
                    "time": 94.74630615,
                    "velocity": 0.23622047244094488,
                    "duration": 0.07299266666666426
                },
                {
                    "name": "F4",
                    "midi": 65,
                    "time": 94.81929881666666,
                    "velocity": 0.3228346456692913,
                    "duration": 0.07299266666666426
                },
                {
                    "name": "D#4",
                    "midi": 63,
                    "time": 94.89229148333332,
                    "velocity": 0.25984251968503935,
                    "duration": 0.07299266666666426
                },
                {
                    "name": "D4",
                    "midi": 62,
                    "time": 94.96528414999999,
                    "velocity": 0.25984251968503935,
                    "duration": 0.07299266666666426
                },
                {
                    "name": "G#4",
                    "midi": 68,
                    "time": 95.03827681666665,
                    "velocity": 0.33070866141732286,
                    "duration": 0.07299266666666426
                },
                {
                    "name": "G4",
                    "midi": 67,
                    "time": 95.11126948333332,
                    "velocity": 0.2677165354330709,
                    "duration": 0.07299266666666426
                },
                {
                    "name": "F4",
                    "midi": 65,
                    "time": 95.18426214999998,
                    "velocity": 0.2677165354330709,
                    "duration": 0.07299266666666426
                },
                {
                    "name": "D5",
                    "midi": 74,
                    "time": 95.25907963333331,
                    "velocity": 0.4015748031496063,
                    "duration": 0.07299266666666426
                },
                {
                    "name": "C5",
                    "midi": 72,
                    "time": 95.33207229999998,
                    "velocity": 0.29133858267716534,
                    "duration": 0.07299266666666426
                },
                {
                    "name": "A#4",
                    "midi": 70,
                    "time": 95.40506496666664,
                    "velocity": 0.28346456692913385,
                    "duration": 0.07299266666667847
                },
                {
                    "name": "F5",
                    "midi": 77,
                    "time": 95.47440799999998,
                    "velocity": 0.44881889763779526,
                    "duration": 0.07299266666667847
                },
                {
                    "name": "D#5",
                    "midi": 75,
                    "time": 95.54740066666666,
                    "velocity": 0.3228346456692913,
                    "duration": 0.07299266666666426
                },
                {
                    "name": "D5",
                    "midi": 74,
                    "time": 95.62039333333333,
                    "velocity": 0.3464566929133858,
                    "duration": 0.07299266666666426
                },
                {
                    "name": "G#5",
                    "midi": 80,
                    "time": 95.69338599999999,
                    "velocity": 0.4645669291338583,
                    "duration": 0.07299266666666426
                },
                {
                    "name": "G5",
                    "midi": 79,
                    "time": 95.76637866666665,
                    "velocity": 0.36220472440944884,
                    "duration": 0.07299266666666426
                },
                {
                    "name": "F5",
                    "midi": 77,
                    "time": 95.83937133333332,
                    "velocity": 0.3779527559055118,
                    "duration": 0.07299266666666426
                },
                {
                    "name": "C6",
                    "midi": 84,
                    "time": 95.91236399999998,
                    "velocity": 0.5511811023622047,
                    "duration": 1.7518239999999992
                },
                {
                    "name": "C6",
                    "midi": 84,
                    "time": 97.66418799999998,
                    "velocity": 0.4251968503937008,
                    "duration": 0.06204376666666178
                },
                {
                    "name": "A#5",
                    "midi": 82,
                    "time": 97.72623176666664,
                    "velocity": 0.41732283464566927,
                    "duration": 0.06204376666666178
                },
                {
                    "name": "G#5",
                    "midi": 80,
                    "time": 97.79010034999997,
                    "velocity": 0.4094488188976378,
                    "duration": 0.06204376666666178
                },
                {
                    "name": "G5",
                    "midi": 79,
                    "time": 97.85214411666664,
                    "velocity": 0.4094488188976378,
                    "duration": 0.06204376666666178
                },
                {
                    "name": "F5",
                    "midi": 77,
                    "time": 97.9141878833333,
                    "velocity": 0.4015748031496063,
                    "duration": 0.06204376666666178
                },
                {
                    "name": "D#5",
                    "midi": 75,
                    "time": 97.97623164999996,
                    "velocity": 0.3937007874015748,
                    "duration": 0.06204376666666178
                },
                {
                    "name": "D5",
                    "midi": 74,
                    "time": 98.03827541666662,
                    "velocity": 0.3858267716535433,
                    "duration": 0.06204376666666178
                },
                {
                    "name": "F5",
                    "midi": 77,
                    "time": 98.10214399999995,
                    "velocity": 0.4409448818897638,
                    "duration": 0.6569340000000068
                },
                {
                    "name": "D#5",
                    "midi": 75,
                    "time": 98.75907799999996,
                    "velocity": 0.31496062992125984,
                    "duration": 0.218978000000007
                },
                {
                    "name": "D5",
                    "midi": 74,
                    "time": 98.97805599999997,
                    "velocity": 0.33858267716535434,
                    "duration": 0.3284670000000034
                },
                {
                    "name": "D#5",
                    "midi": 75,
                    "time": 99.30652299999997,
                    "velocity": 0.31496062992125984,
                    "duration": 0.1094889999999964
                },
                {
                    "name": "F5",
                    "midi": 77,
                    "time": 99.41601199999997,
                    "velocity": 0.3700787401574803,
                    "duration": 0.3284670000000034
                },
                {
                    "name": "D#5",
                    "midi": 75,
                    "time": 99.74447899999997,
                    "velocity": 0.3228346456692913,
                    "duration": 0.1094889999999964
                },
                {
                    "name": "D#4",
                    "midi": 63,
                    "time": 99.85396799999997,
                    "velocity": 0.4094488188976378,
                    "duration": 0.8759119999999996
                },
                {
                    "name": "F4",
                    "midi": 65,
                    "time": 101.67878466666663,
                    "velocity": 0.23622047244094488,
                    "duration": 0.07299266666666426
                },
                {
                    "name": "G4",
                    "midi": 67,
                    "time": 101.75360214999996,
                    "velocity": 0.23622047244094488,
                    "duration": 0.07299266666666426
                },
                {
                    "name": "G#4",
                    "midi": 68,
                    "time": 101.82659481666663,
                    "velocity": 0.3228346456692913,
                    "duration": 0.07299266666666426
                },
                {
                    "name": "G4",
                    "midi": 67,
                    "time": 101.89958748333329,
                    "velocity": 0.25984251968503935,
                    "duration": 0.07299266666666426
                },
                {
                    "name": "F4",
                    "midi": 65,
                    "time": 101.97258014999996,
                    "velocity": 0.25984251968503935,
                    "duration": 0.07299266666666426
                },
                {
                    "name": "D5",
                    "midi": 74,
                    "time": 102.04557281666662,
                    "velocity": 0.33070866141732286,
                    "duration": 0.07299266666666426
                },
                {
                    "name": "C5",
                    "midi": 72,
                    "time": 102.11856548333328,
                    "velocity": 0.2677165354330709,
                    "duration": 0.07299266666666426
                },
                {
                    "name": "A#4",
                    "midi": 70,
                    "time": 102.19155814999995,
                    "velocity": 0.2677165354330709,
                    "duration": 0.07299266666666426
                },
                {
                    "name": "F5",
                    "midi": 77,
                    "time": 102.26637563333328,
                    "velocity": 0.4015748031496063,
                    "duration": 0.07299266666666426
                },
                {
                    "name": "D#5",
                    "midi": 75,
                    "time": 102.33936829999995,
                    "velocity": 0.29133858267716534,
                    "duration": 0.07299266666666426
                },
                {
                    "name": "D5",
                    "midi": 74,
                    "time": 102.41236096666661,
                    "velocity": 0.28346456692913385,
                    "duration": 0.07299266666667847
                },
                {
                    "name": "G#5",
                    "midi": 80,
                    "time": 102.48170399999995,
                    "velocity": 0.44881889763779526,
                    "duration": 0.07299266666667847
                },
                {
                    "name": "G5",
                    "midi": 79,
                    "time": 102.55469666666663,
                    "velocity": 0.3228346456692913,
                    "duration": 0.07299266666666426
                },
                {
                    "name": "F5",
                    "midi": 77,
                    "time": 102.6276893333333,
                    "velocity": 0.3464566929133858,
                    "duration": 0.07299266666666426
                },
                {
                    "name": "D6",
                    "midi": 86,
                    "time": 102.70068199999996,
                    "velocity": 0.4645669291338583,
                    "duration": 0.07299266666666426
                },
                {
                    "name": "C6",
                    "midi": 84,
                    "time": 102.77367466666662,
                    "velocity": 0.36220472440944884,
                    "duration": 0.07299266666666426
                },
                {
                    "name": "A#5",
                    "midi": 82,
                    "time": 102.84666733333329,
                    "velocity": 0.3779527559055118,
                    "duration": 0.07299266666666426
                },
                {
                    "name": "F6",
                    "midi": 89,
                    "time": 102.91965999999995,
                    "velocity": 0.5433070866141733,
                    "duration": 1.7518239999999992
                },
                {
                    "name": "F6",
                    "midi": 89,
                    "time": 104.67148399999995,
                    "velocity": 0.4251968503937008,
                    "duration": 0.07116784999999481
                },
                {
                    "name": "D#6",
                    "midi": 87,
                    "time": 104.74265184999994,
                    "velocity": 0.41732283464566927,
                    "duration": 0.07116784999999481
                },
                {
                    "name": "D6",
                    "midi": 86,
                    "time": 104.81381969999994,
                    "velocity": 0.4094488188976378,
                    "duration": 0.07116784999999481
                },
                {
                    "name": "C6",
                    "midi": 84,
                    "time": 104.88498754999993,
                    "velocity": 0.4094488188976378,
                    "duration": 0.07116784999999481
                },
                {
                    "name": "A#5",
                    "midi": 82,
                    "time": 104.95615539999993,
                    "velocity": 0.4015748031496063,
                    "duration": 0.07116784999999481
                },
                {
                    "name": "G#5",
                    "midi": 80,
                    "time": 105.02732324999992,
                    "velocity": 0.3937007874015748,
                    "duration": 0.07116784999999481
                },
                {
                    "name": "G5",
                    "midi": 79,
                    "time": 105.10943999999992,
                    "velocity": 0.4881889763779528,
                    "duration": 1.3138679999999994
                },
                {
                    "name": "G5",
                    "midi": 79,
                    "time": 106.64228599999993,
                    "velocity": 0.5039370078740157,
                    "duration": 0.218978000000007
                },
                {
                    "name": "G#5",
                    "midi": 80,
                    "time": 106.86126399999993,
                    "velocity": 0.5590551181102362,
                    "duration": 1.3138679999999994
                },
                {
                    "name": "G#5",
                    "midi": 80,
                    "time": 108.39410999999994,
                    "velocity": 0.5590551181102362,
                    "duration": 0.218978000000007
                },
                {
                    "name": "A#5",
                    "midi": 82,
                    "time": 108.61308799999995,
                    "velocity": 0.6377952755905512,
                    "duration": 1.3138679999999994
                },
                {
                    "name": "A#5",
                    "midi": 82,
                    "time": 110.14593399999995,
                    "velocity": 0.6141732283464567,
                    "duration": 0.218978000000007
                },
                {
                    "name": "B5",
                    "midi": 83,
                    "time": 110.36491199999996,
                    "velocity": 0.7007874015748031,
                    "duration": 1.3138679999999994
                },
                {
                    "name": "B5",
                    "midi": 83,
                    "time": 111.89775799999997,
                    "velocity": 0.6614173228346457,
                    "duration": 0.218978000000007
                },
                {
                    "name": "C6",
                    "midi": 84,
                    "time": 112.11673599999997,
                    "velocity": 0.7244094488188977,
                    "duration": 1.3138679999999994
                },
                {
                    "name": "C6",
                    "midi": 84,
                    "time": 113.64958199999998,
                    "velocity": 0.7086614173228346,
                    "duration": 0.218978000000007
                },
                {
                    "name": "D6",
                    "midi": 86,
                    "time": 113.86855999999999,
                    "velocity": 0.7559055118110236,
                    "duration": 1.3138679999999994
                },
                {
                    "name": "D6",
                    "midi": 86,
                    "time": 115.401406,
                    "velocity": 0.7795275590551181,
                    "duration": 0.218978000000007
                },
                {
                    "name": "D#6",
                    "midi": 87,
                    "time": 115.620384,
                    "velocity": 0.8110236220472441,
                    "duration": 1.3138679999999994
                },
                {
                    "name": "F6",
                    "midi": 89,
                    "time": 117.15323000000001,
                    "velocity": 0.7401574803149606,
                    "duration": 0.0547444999999982
                },
                {
                    "name": "D#6",
                    "midi": 87,
                    "time": 117.2079745,
                    "velocity": 0.7401574803149606,
                    "duration": 0.0547444999999982
                },
                {
                    "name": "D6",
                    "midi": 86,
                    "time": 117.262719,
                    "velocity": 0.7401574803149606,
                    "duration": 0.0547444999999982
                },
                {
                    "name": "D#6",
                    "midi": 87,
                    "time": 117.3174635,
                    "velocity": 0.7401574803149606,
                    "duration": 0.0547444999999982
                },
                {
                    "name": "F6",
                    "midi": 89,
                    "time": 117.372208,
                    "velocity": 0.84251968503937,
                    "duration": 0.4379559999999998
                },
                {
                    "name": "D#6",
                    "midi": 87,
                    "time": 117.810164,
                    "velocity": 0.7086614173228346,
                    "duration": 0.4379559999999998
                },
                {
                    "name": "D6",
                    "midi": 86,
                    "time": 118.24812,
                    "velocity": 0.5826771653543307,
                    "duration": 0.3284670000000034
                },
                {
                    "name": "C6",
                    "midi": 84,
                    "time": 118.686076,
                    "velocity": 0.5275590551181102,
                    "duration": 0.3284670000000034
                },
                {
                    "name": "A#5",
                    "midi": 82,
                    "time": 119.124032,
                    "velocity": 0.47244094488188976,
                    "duration": 0.4379559999999998
                },
                {
                    "name": "A5",
                    "midi": 81,
                    "time": 119.561988,
                    "velocity": 0.4330708661417323,
                    "duration": 0.4379559999999998
                },
                {
                    "name": "C6",
                    "midi": 84,
                    "time": 119.999944,
                    "velocity": 0.47244094488188976,
                    "duration": 0.4379559999999998
                },
                {
                    "name": "A#5",
                    "midi": 82,
                    "time": 120.4379,
                    "velocity": 0.4330708661417323,
                    "duration": 0.4379559999999998
                },
                {
                    "name": "G#5",
                    "midi": 80,
                    "time": 120.875856,
                    "velocity": 0.47244094488188976,
                    "duration": 0.4379559999999998
                },
                {
                    "name": "G5",
                    "midi": 79,
                    "time": 121.313812,
                    "velocity": 0.4409448818897638,
                    "duration": 0.4379559999999998
                },
                {
                    "name": "F5",
                    "midi": 77,
                    "time": 121.751768,
                    "velocity": 0.47244094488188976,
                    "duration": 0.4379559999999998
                },
                {
                    "name": "A#5",
                    "midi": 82,
                    "time": 122.189724,
                    "velocity": 0.44881889763779526,
                    "duration": 0.4379559999999998
                },
                {
                    "name": "F#5",
                    "midi": 78,
                    "time": 122.62768,
                    "velocity": 0.47244094488188976,
                    "duration": 0.29197066666667126
                },
                {
                    "name": "G5",
                    "midi": 79,
                    "time": 122.91965066666667,
                    "velocity": 0.4015748031496063,
                    "duration": 0.29197066666667126
                },
                {
                    "name": "G4",
                    "midi": 67,
                    "time": 123.21162133333334,
                    "velocity": 0.33858267716535434,
                    "duration": 0.29197066666667126
                },
                {
                    "name": "G5",
                    "midi": 79,
                    "time": 123.79556266666668,
                    "velocity": 0.47244094488188976,
                    "duration": 0.29197066666667126
                },
                {
                    "name": "G4",
                    "midi": 67,
                    "time": 124.08753333333335,
                    "velocity": 0.4094488188976378,
                    "duration": 0.29197066666667126
                },
                {
                    "name": "G5",
                    "midi": 79,
                    "time": 124.37950400000003,
                    "velocity": 0.47244094488188976,
                    "duration": 0.29197066666667126
                },
                {
                    "name": "G#5",
                    "midi": 80,
                    "time": 124.6714746666667,
                    "velocity": 0.4015748031496063,
                    "duration": 0.29197066666667126
                },
                {
                    "name": "G#4",
                    "midi": 68,
                    "time": 124.96344533333337,
                    "velocity": 0.33858267716535434,
                    "duration": 0.29197066666667126
                },
                {
                    "name": "G#5",
                    "midi": 80,
                    "time": 125.54738666666671,
                    "velocity": 0.47244094488188976,
                    "duration": 0.29197066666667126
                },
                {
                    "name": "G#4",
                    "midi": 68,
                    "time": 125.83935733333338,
                    "velocity": 0.4251968503937008,
                    "duration": 0.29197066666667126
                },
                {
                    "name": "A5",
                    "midi": 81,
                    "time": 126.13132800000005,
                    "velocity": 0.47244094488188976,
                    "duration": 0.29197066666667126
                },
                {
                    "name": "A#5",
                    "midi": 82,
                    "time": 126.42329866666672,
                    "velocity": 0.4015748031496063,
                    "duration": 0.29197066666667126
                },
                {
                    "name": "A#4",
                    "midi": 70,
                    "time": 126.7152693333334,
                    "velocity": 0.3464566929133858,
                    "duration": 0.29197066666667126
                },
                {
                    "name": "A#5",
                    "midi": 82,
                    "time": 127.29921066666674,
                    "velocity": 0.5039370078740157,
                    "duration": 0.29197066666667126
                },
                {
                    "name": "A#4",
                    "midi": 70,
                    "time": 127.59118133333341,
                    "velocity": 0.4409448818897638,
                    "duration": 0.29197066666667126
                },
                {
                    "name": "A#5",
                    "midi": 82,
                    "time": 127.88315200000008,
                    "velocity": 0.5196850393700787,
                    "duration": 0.29197066666665705
                },
                {
                    "name": "B5",
                    "midi": 83,
                    "time": 128.17512266666674,
                    "velocity": 0.49606299212598426,
                    "duration": 0.29197066666665705
                },
                {
                    "name": "B4",
                    "midi": 71,
                    "time": 128.4670933333334,
                    "velocity": 0.4566929133858268,
                    "duration": 0.29197066666665705
                },
                {
                    "name": "B5",
                    "midi": 83,
                    "time": 129.0510346666667,
                    "velocity": 0.5511811023622047,
                    "duration": 0.29197066666665705
                },
                {
                    "name": "B4",
                    "midi": 71,
                    "time": 129.34300533333337,
                    "velocity": 0.5039370078740157,
                    "duration": 0.29197066666665705
                },
                {
                    "name": "B5",
                    "midi": 83,
                    "time": 129.63497600000002,
                    "velocity": 0.5748031496062992,
                    "duration": 0.29197066666665705
                },
                {
                    "name": "C6",
                    "midi": 84,
                    "time": 129.92694666666668,
                    "velocity": 0.5511811023622047,
                    "duration": 0.29197066666665705
                },
                {
                    "name": "C5",
                    "midi": 72,
                    "time": 130.21891733333334,
                    "velocity": 0.49606299212598426,
                    "duration": 0.29197066666665705
                },
                {
                    "name": "C6",
                    "midi": 84,
                    "time": 130.80285866666665,
                    "velocity": 0.6062992125984252,
                    "duration": 0.29197066666665705
                },
                {
                    "name": "C5",
                    "midi": 72,
                    "time": 131.0948293333333,
                    "velocity": 0.5354330708661418,
                    "duration": 0.29197066666665705
                },
                {
                    "name": "C#6",
                    "midi": 85,
                    "time": 131.38679999999997,
                    "velocity": 0.6220472440944882,
                    "duration": 0.29197066666665705
                },
                {
                    "name": "D6",
                    "midi": 86,
                    "time": 131.67877066666662,
                    "velocity": 0.6062992125984252,
                    "duration": 0.29197066666665705
                },
                {
                    "name": "D5",
                    "midi": 74,
                    "time": 131.97074133333328,
                    "velocity": 0.5433070866141733,
                    "duration": 0.29197066666665705
                },
                {
                    "name": "D6",
                    "midi": 86,
                    "time": 132.5546826666666,
                    "velocity": 0.6614173228346457,
                    "duration": 0.29197066666665705
                },
                {
                    "name": "D5",
                    "midi": 74,
                    "time": 132.84665333333325,
                    "velocity": 0.5984251968503937,
                    "duration": 0.29197066666665705
                },
                {
                    "name": "D6",
                    "midi": 86,
                    "time": 133.1386239999999,
                    "velocity": 0.6771653543307087,
                    "duration": 0.29197066666665705
                },
                {
                    "name": "D#6",
                    "midi": 87,
                    "time": 133.43059466666656,
                    "velocity": 0.6377952755905512,
                    "duration": 0.29197066666665705
                },
                {
                    "name": "D#5",
                    "midi": 75,
                    "time": 133.72256533333322,
                    "velocity": 0.5905511811023622,
                    "duration": 0.29197066666665705
                },
                {
                    "name": "D#6",
                    "midi": 87,
                    "time": 134.30650666666654,
                    "velocity": 0.6850393700787402,
                    "duration": 0.29197066666665705
                },
                {
                    "name": "D#5",
                    "midi": 75,
                    "time": 134.5984773333332,
                    "velocity": 0.6377952755905512,
                    "duration": 0.29197066666665705
                },
                {
                    "name": "D#6",
                    "midi": 87,
                    "time": 134.89044799999985,
                    "velocity": 0.6850393700787402,
                    "duration": 0.29197066666665705
                },
                {
                    "name": "F#5",
                    "midi": 78,
                    "time": 135.1824186666665,
                    "velocity": 0.6220472440944882,
                    "duration": 0.29197066666665705
                },
                {
                    "name": "D#6",
                    "midi": 87,
                    "time": 135.47438933333316,
                    "velocity": 0.6850393700787402,
                    "duration": 0.29197066666665705
                },
                {
                    "name": "A5",
                    "midi": 81,
                    "time": 135.76635999999982,
                    "velocity": 0.6220472440944882,
                    "duration": 0.29197066666665705
                },
                {
                    "name": "D#6",
                    "midi": 87,
                    "time": 136.05833066666648,
                    "velocity": 0.6771653543307087,
                    "duration": 0.29197066666665705
                },
                {
                    "name": "A5",
                    "midi": 81,
                    "time": 136.35030133333314,
                    "velocity": 0.6220472440944882,
                    "duration": 0.29197066666665705
                },
                {
                    "name": "A#5",
                    "midi": 82,
                    "time": 136.6422719999998,
                    "velocity": 0.6929133858267716,
                    "duration": 2.043794666666656
                },
                {
                    "name": "A5",
                    "midi": 81,
                    "time": 138.68606666666645,
                    "velocity": 0.6220472440944882,
                    "duration": 0.29197066666665705
                },
                {
                    "name": "C6",
                    "midi": 84,
                    "time": 138.9780373333331,
                    "velocity": 0.6220472440944882,
                    "duration": 0.29197066666665705
                },
                {
                    "name": "A#5",
                    "midi": 82,
                    "time": 139.27000799999976,
                    "velocity": 0.6692913385826772,
                    "duration": 0.2189779999999928
                },
                {
                    "name": "G#5",
                    "midi": 80,
                    "time": 139.56197866666642,
                    "velocity": 0.6220472440944882,
                    "duration": 0.2189779999999928
                },
                {
                    "name": "G5",
                    "midi": 79,
                    "time": 139.85394933333308,
                    "velocity": 0.6220472440944882,
                    "duration": 0.2189779999999928
                },
                {
                    "name": "D#5",
                    "midi": 75,
                    "time": 140.14591999999973,
                    "velocity": 0.6220472440944882,
                    "duration": 1.751824000000056
                },
                {
                    "name": "F5",
                    "midi": 77,
                    "time": 140.14591999999973,
                    "velocity": 0.6220472440944882,
                    "duration": 1.5328460000000064
                },
                {
                    "name": "F5",
                    "midi": 77,
                    "time": 141.67876599999974,
                    "velocity": 0.5826771653543307,
                    "duration": 0.04379560000000993
                },
                {
                    "name": "G5",
                    "midi": 79,
                    "time": 141.72256159999975,
                    "velocity": 0.5354330708661418,
                    "duration": 0.04379560000000993
                },
                {
                    "name": "F5",
                    "midi": 77,
                    "time": 141.76635719999976,
                    "velocity": 0.5826771653543307,
                    "duration": 0.04379560000000993
                },
                {
                    "name": "E5",
                    "midi": 76,
                    "time": 141.81015279999977,
                    "velocity": 0.5196850393700787,
                    "duration": 0.04379560000000993
                },
                {
                    "name": "F5",
                    "midi": 77,
                    "time": 141.85394839999978,
                    "velocity": 0.5275590551181102,
                    "duration": 0.04379560000000993
                },
                {
                    "name": "D5",
                    "midi": 74,
                    "time": 141.8977439999998,
                    "velocity": 0.6220472440944882,
                    "duration": 1.7518239999999992
                },
                {
                    "name": "A#5",
                    "midi": 82,
                    "time": 141.8977439999998,
                    "velocity": 0.6220472440944882,
                    "duration": 1.5328460000000064
                },
                {
                    "name": "A#5",
                    "midi": 82,
                    "time": 143.4305899999998,
                    "velocity": 0.6220472440944882,
                    "duration": 0.2189779999999928
                },
                {
                    "name": "G4",
                    "midi": 67,
                    "time": 143.6495679999998,
                    "velocity": 0.5826771653543307,
                    "duration": 0.8759119999999996
                },
                {
                    "name": "D#5",
                    "midi": 75,
                    "time": 143.6495679999998,
                    "velocity": 0.6692913385826772,
                    "duration": 0.8759119999999996
                },
                {
                    "name": "A4",
                    "midi": 69,
                    "time": 145.69336266666645,
                    "velocity": 0.6220472440944882,
                    "duration": 0.29197066666665705
                },
                {
                    "name": "C5",
                    "midi": 72,
                    "time": 145.9853333333331,
                    "velocity": 0.6220472440944882,
                    "duration": 0.29197066666665705
                },
                {
                    "name": "A#4",
                    "midi": 70,
                    "time": 146.27730399999976,
                    "velocity": 0.6692913385826772,
                    "duration": 0.2189779999999928
                },
                {
                    "name": "G#4",
                    "midi": 68,
                    "time": 146.56927466666642,
                    "velocity": 0.6220472440944882,
                    "duration": 0.2189779999999928
                },
                {
                    "name": "G4",
                    "midi": 67,
                    "time": 146.86124533333307,
                    "velocity": 0.6220472440944882,
                    "duration": 0.2189779999999928
                },
                {
                    "name": "D#4",
                    "midi": 63,
                    "time": 147.15321599999973,
                    "velocity": 0.6220472440944882,
                    "duration": 1.751824000000056
                },
                {
                    "name": "F4",
                    "midi": 65,
                    "time": 147.15321599999973,
                    "velocity": 0.6220472440944882,
                    "duration": 1.5328460000000064
                },
                {
                    "name": "F4",
                    "midi": 65,
                    "time": 148.68606199999974,
                    "velocity": 0.5826771653543307,
                    "duration": 0.04379560000000993
                },
                {
                    "name": "G4",
                    "midi": 67,
                    "time": 148.72985759999975,
                    "velocity": 0.5354330708661418,
                    "duration": 0.04379560000000993
                },
                {
                    "name": "F4",
                    "midi": 65,
                    "time": 148.77365319999976,
                    "velocity": 0.5826771653543307,
                    "duration": 0.04379560000000993
                },
                {
                    "name": "E4",
                    "midi": 64,
                    "time": 148.81744879999977,
                    "velocity": 0.5196850393700787,
                    "duration": 0.04379560000000993
                },
                {
                    "name": "F4",
                    "midi": 65,
                    "time": 148.86124439999978,
                    "velocity": 0.5275590551181102,
                    "duration": 0.04379560000000993
                },
                {
                    "name": "D4",
                    "midi": 62,
                    "time": 148.9050399999998,
                    "velocity": 0.6220472440944882,
                    "duration": 1.7518239999999992
                },
                {
                    "name": "A#4",
                    "midi": 70,
                    "time": 148.9050399999998,
                    "velocity": 0.6220472440944882,
                    "duration": 1.5328460000000064
                },
                {
                    "name": "A#4",
                    "midi": 70,
                    "time": 150.4378859999998,
                    "velocity": 0.3700787401574803,
                    "duration": 0.2189779999999928
                },
                {
                    "name": "D#4",
                    "midi": 63,
                    "time": 150.65686399999979,
                    "velocity": 0.4015748031496063,
                    "duration": 0.8759119999999996
                },
                {
                    "name": "G3",
                    "midi": 55,
                    "time": 154.0510229999998,
                    "velocity": 0.5826771653543307,
                    "duration": 0.9854010000000528
                },
                {
                    "name": "A#3",
                    "midi": 58,
                    "time": 154.0783952499998,
                    "velocity": 0.6062992125984252,
                    "duration": 0.9580287500000395
                },
                {
                    "name": "C#4",
                    "midi": 61,
                    "time": 154.1057674999998,
                    "velocity": 0.6377952755905512,
                    "duration": 0.9306565000000262
                },
                {
                    "name": "D#4",
                    "midi": 63,
                    "time": 154.13313974999983,
                    "velocity": 0.6771653543307087,
                    "duration": 0.9032842500000129
                },
                {
                    "name": "G4",
                    "midi": 67,
                    "time": 154.16051199999984,
                    "velocity": 0.7086614173228346,
                    "duration": 0.8759119999999996
                },
                {
                    "name": "C4",
                    "midi": 60,
                    "time": 157.66415999999984,
                    "velocity": 0.33070866141732286,
                    "duration": 1.7518239999999992
                },
                {
                    "name": "G#4",
                    "midi": 68,
                    "time": 157.66415999999984,
                    "velocity": 0.3937007874015748,
                    "duration": 1.3138680000000136
                },
                {
                    "name": "A#4",
                    "midi": 70,
                    "time": 158.97802799999985,
                    "velocity": 0.3937007874015748,
                    "duration": 0.1094889999999964
                },
                {
                    "name": "G#4",
                    "midi": 68,
                    "time": 159.08751699999985,
                    "velocity": 0.36220472440944884,
                    "duration": 0.1094889999999964
                },
                {
                    "name": "G4",
                    "midi": 67,
                    "time": 159.19700599999985,
                    "velocity": 0.36220472440944884,
                    "duration": 0.1094889999999964
                },
                {
                    "name": "G#4",
                    "midi": 68,
                    "time": 159.30649499999984,
                    "velocity": 0.36220472440944884,
                    "duration": 0.1094889999999964
                },
                {
                    "name": "C5",
                    "midi": 72,
                    "time": 159.41598399999984,
                    "velocity": 0.4251968503937008,
                    "duration": 1.3138680000000136
                },
                {
                    "name": "C#4",
                    "midi": 61,
                    "time": 159.41598399999984,
                    "velocity": 0.3543307086614173,
                    "duration": 1.7518240000000276
                },
                {
                    "name": "A#4",
                    "midi": 70,
                    "time": 160.72985199999985,
                    "velocity": 0.3543307086614173,
                    "duration": 0.437956000000014
                },
                {
                    "name": "C4",
                    "midi": 60,
                    "time": 161.16780799999987,
                    "velocity": 0.33070866141732286,
                    "duration": 1.7518239999999992
                },
                {
                    "name": "G#4",
                    "midi": 68,
                    "time": 161.16780799999987,
                    "velocity": 0.3937007874015748,
                    "duration": 2.189780000000013
                },
                {
                    "name": "G4",
                    "midi": 67,
                    "time": 163.35758799999988,
                    "velocity": 0.36220472440944884,
                    "duration": 0.437956000000014
                },
                {
                    "name": "G#4",
                    "midi": 68,
                    "time": 163.7955439999999,
                    "velocity": 0.3464566929133858,
                    "duration": 0.437956000000014
                },
                {
                    "name": "A4",
                    "midi": 69,
                    "time": 164.2334999999999,
                    "velocity": 0.3779527559055118,
                    "duration": 0.437956000000014
                },
                {
                    "name": "D#4",
                    "midi": 63,
                    "time": 164.67145599999992,
                    "velocity": 0.4094488188976378,
                    "duration": 1.7518239999999992
                },
                {
                    "name": "A#4",
                    "midi": 70,
                    "time": 164.67145599999992,
                    "velocity": 0.4094488188976378,
                    "duration": 0.8759119999999996
                },
                {
                    "name": "C5",
                    "midi": 72,
                    "time": 165.98532399999993,
                    "velocity": 0.3937007874015748,
                    "duration": 0.1094889999999964
                },
                {
                    "name": "A#4",
                    "midi": 70,
                    "time": 166.09481299999993,
                    "velocity": 0.36220472440944884,
                    "duration": 0.1094889999999964
                },
                {
                    "name": "A4",
                    "midi": 69,
                    "time": 166.20430199999993,
                    "velocity": 0.36220472440944884,
                    "duration": 0.1094889999999964
                },
                {
                    "name": "A#4",
                    "midi": 70,
                    "time": 166.31379099999992,
                    "velocity": 0.36220472440944884,
                    "duration": 0.1094889999999964
                },
                {
                    "name": "C#5",
                    "midi": 73,
                    "time": 166.42327999999992,
                    "velocity": 0.4251968503937008,
                    "duration": 1.3138680000000136
                },
                {
                    "name": "D#4",
                    "midi": 63,
                    "time": 166.42327999999992,
                    "velocity": 0.3543307086614173,
                    "duration": 0.8759119999999996
                },
                {
                    "name": "G#4",
                    "midi": 68,
                    "time": 167.29919199999992,
                    "velocity": 0.3543307086614173,
                    "duration": 0.875912000000028
                },
                {
                    "name": "C5",
                    "midi": 72,
                    "time": 167.73714799999993,
                    "velocity": 0.3543307086614173,
                    "duration": 0.437956000000014
                },
                {
                    "name": "G4",
                    "midi": 67,
                    "time": 168.17510399999995,
                    "velocity": 0.33070866141732286,
                    "duration": 1.7518239999999992
                },
                {
                    "name": "A#4",
                    "midi": 70,
                    "time": 168.17510399999995,
                    "velocity": 0.3937007874015748,
                    "duration": 2.043794666666656
                },
                {
                    "name": "F5",
                    "midi": 77,
                    "time": 170.2188986666666,
                    "velocity": 0.48031496062992124,
                    "duration": 0.29197066666665705
                },
                {
                    "name": "D#5",
                    "midi": 75,
                    "time": 170.51086933333326,
                    "velocity": 0.4330708661417323,
                    "duration": 0.29197066666665705
                },
                {
                    "name": "C#5",
                    "midi": 73,
                    "time": 170.80283999999992,
                    "velocity": 0.4881889763779528,
                    "duration": 0.2189779999999928
                },
                {
                    "name": "C5",
                    "midi": 72,
                    "time": 171.09481066666658,
                    "velocity": 0.47244094488188976,
                    "duration": 0.2189779999999928
                },
                {
                    "name": "B4",
                    "midi": 71,
                    "time": 171.38678133333323,
                    "velocity": 0.44881889763779526,
                    "duration": 0.2189779999999928
                },
                {
                    "name": "C5",
                    "midi": 72,
                    "time": 171.6787519999999,
                    "velocity": 0.49606299212598426,
                    "duration": 1.5328460000000064
                },
                {
                    "name": "G#4",
                    "midi": 68,
                    "time": 173.2115979999999,
                    "velocity": 0.4094488188976378,
                    "duration": 0.2189779999999928
                },
                {
                    "name": "D#5",
                    "midi": 75,
                    "time": 173.4305759999999,
                    "velocity": 0.5039370078740157,
                    "duration": 1.5328460000000064
                },
                {
                    "name": "C5",
                    "midi": 72,
                    "time": 174.9634219999999,
                    "velocity": 0.47244094488188976,
                    "duration": 0.2189779999999928
                },
                {
                    "name": "F5",
                    "midi": 77,
                    "time": 175.1823999999999,
                    "velocity": 0.5511811023622047,
                    "duration": 1.5328460000000064
                },
                {
                    "name": "C#5",
                    "midi": 73,
                    "time": 176.7152459999999,
                    "velocity": 0.5275590551181102,
                    "duration": 0.2189779999999928
                },
                {
                    "name": "G#5",
                    "midi": 80,
                    "time": 176.9342239999999,
                    "velocity": 0.6850393700787402,
                    "duration": 2.189780000000013
                },
                {
                    "name": "G#4",
                    "midi": 68,
                    "time": 178.6860479999999,
                    "velocity": 0.6614173228346457,
                    "duration": 1.7518240000000276
                },
                {
                    "name": "G5",
                    "midi": 79,
                    "time": 179.1240039999999,
                    "velocity": 0.49606299212598426,
                    "duration": 0.437956000000014
                },
                {
                    "name": "F5",
                    "midi": 77,
                    "time": 179.5619599999999,
                    "velocity": 0.4645669291338583,
                    "duration": 0.437956000000014
                },
                {
                    "name": "D#5",
                    "midi": 75,
                    "time": 179.99991599999993,
                    "velocity": 0.4409448818897638,
                    "duration": 0.40145966666665345
                },
                {
                    "name": "D#4",
                    "midi": 63,
                    "time": 180.4378719999999,
                    "velocity": 0.29133858267716534,
                    "duration": 0.8759119999999996
                },
                {
                    "name": "D#5",
                    "midi": 75,
                    "time": 180.4378719999999,
                    "velocity": 0.4645669291338583,
                    "duration": 0.437956000000014
                },
                {
                    "name": "C#5",
                    "midi": 73,
                    "time": 180.87582799999993,
                    "velocity": 0.4409448818897638,
                    "duration": 0.40145966666665345
                },
                {
                    "name": "D#4",
                    "midi": 63,
                    "time": 181.3137839999999,
                    "velocity": 0.29133858267716534,
                    "duration": 0.8759119999999996
                },
                {
                    "name": "C#5",
                    "midi": 73,
                    "time": 181.3137839999999,
                    "velocity": 0.4645669291338583,
                    "duration": 0.437956000000014
                },
                {
                    "name": "C5",
                    "midi": 72,
                    "time": 181.75173999999993,
                    "velocity": 0.4409448818897638,
                    "duration": 0.40145966666665345
                },
                {
                    "name": "D#4",
                    "midi": 63,
                    "time": 182.1896959999999,
                    "velocity": 0.36220472440944884,
                    "duration": 0.8759119999999996
                },
                {
                    "name": "D#5",
                    "midi": 75,
                    "time": 182.1896959999999,
                    "velocity": 0.4330708661417323,
                    "duration": 1.3138680000000136
                },
                {
                    "name": "D#4",
                    "midi": 63,
                    "time": 183.0656079999999,
                    "velocity": 0.30708661417322836,
                    "duration": 0.875912000000028
                },
                {
                    "name": "C5",
                    "midi": 72,
                    "time": 183.50356399999993,
                    "velocity": 0.4015748031496063,
                    "duration": 0.437956000000014
                },
                {
                    "name": "D#4",
                    "midi": 63,
                    "time": 183.94151999999994,
                    "velocity": 0.3543307086614173,
                    "duration": 0.8759119999999712
                },
                {
                    "name": "A#4",
                    "midi": 70,
                    "time": 183.94151999999994,
                    "velocity": 0.41732283464566927,
                    "duration": 0.0547444999999982
                },
                {
                    "name": "A#4",
                    "midi": 70,
                    "time": 183.94151999999994,
                    "velocity": 0.4015748031496063,
                    "duration": 0.1642334999999946
                },
                {
                    "name": "C5",
                    "midi": 72,
                    "time": 183.99626449999994,
                    "velocity": 0.36220472440944884,
                    "duration": 0.0547444999999982
                },
                {
                    "name": "A#4",
                    "midi": 70,
                    "time": 184.05100899999994,
                    "velocity": 0.4015748031496063,
                    "duration": 0.18248166666666066
                },
                {
                    "name": "C5",
                    "midi": 72,
                    "time": 184.10575349999993,
                    "velocity": 0.3543307086614173,
                    "duration": 0.0547444999999982
                },
                {
                    "name": "A#4",
                    "midi": 70,
                    "time": 184.16049799999993,
                    "velocity": 0.4015748031496063,
                    "duration": 0.2189779999999928
                },
                {
                    "name": "A4",
                    "midi": 69,
                    "time": 184.2334906666666,
                    "velocity": 0.36220472440944884,
                    "duration": 0.07299266666666426
                },
                {
                    "name": "A#4",
                    "midi": 70,
                    "time": 184.30648333333326,
                    "velocity": 0.36220472440944884,
                    "duration": 0.5109486666666498
                },
                {
                    "name": "C#5",
                    "midi": 73,
                    "time": 184.37947599999993,
                    "velocity": 0.44881889763779526,
                    "duration": 0.2189779999999928
                },
                {
                    "name": "C5",
                    "midi": 72,
                    "time": 184.59845399999992,
                    "velocity": 0.3779527559055118,
                    "duration": 0.2189779999999928
                },
                {
                    "name": "D#5",
                    "midi": 75,
                    "time": 184.8174319999999,
                    "velocity": 0.4330708661417323,
                    "duration": 0.2189779999999928
                },
                {
                    "name": "C#5",
                    "midi": 73,
                    "time": 185.0364099999999,
                    "velocity": 0.3700787401574803,
                    "duration": 0.2189779999999928
                },
                {
                    "name": "C5",
                    "midi": 72,
                    "time": 185.2553879999999,
                    "velocity": 0.4015748031496063,
                    "duration": 0.1094889999999964
                },
                {
                    "name": "D#5",
                    "midi": 75,
                    "time": 185.3648769999999,
                    "velocity": 0.3700787401574803,
                    "duration": 0.1094889999999964
                },
                {
                    "name": "C#5",
                    "midi": 73,
                    "time": 185.4743659999999,
                    "velocity": 0.3700787401574803,
                    "duration": 0.1094889999999964
                },
                {
                    "name": "A#4",
                    "midi": 70,
                    "time": 185.5838549999999,
                    "velocity": 0.3700787401574803,
                    "duration": 0.1094889999999964
                },
                {
                    "name": "C4",
                    "midi": 60,
                    "time": 185.69334399999988,
                    "velocity": 0.33070866141732286,
                    "duration": 1.7518239999999992
                },
                {
                    "name": "G#4",
                    "midi": 68,
                    "time": 185.69334399999988,
                    "velocity": 0.3937007874015748,
                    "duration": 1.3138680000000136
                },
                {
                    "name": "A#4",
                    "midi": 70,
                    "time": 187.0072119999999,
                    "velocity": 0.3937007874015748,
                    "duration": 0.1094889999999964
                },
                {
                    "name": "G#4",
                    "midi": 68,
                    "time": 187.1167009999999,
                    "velocity": 0.36220472440944884,
                    "duration": 0.1094889999999964
                },
                {
                    "name": "G4",
                    "midi": 67,
                    "time": 187.2261899999999,
                    "velocity": 0.36220472440944884,
                    "duration": 0.1094889999999964
                },
                {
                    "name": "G#4",
                    "midi": 68,
                    "time": 187.33567899999989,
                    "velocity": 0.36220472440944884,
                    "duration": 0.1094889999999964
                },
                {
                    "name": "C5",
                    "midi": 72,
                    "time": 187.44516799999988,
                    "velocity": 0.4251968503937008,
                    "duration": 1.3138680000000136
                },
                {
                    "name": "C#4",
                    "midi": 61,
                    "time": 187.44516799999988,
                    "velocity": 0.3543307086614173,
                    "duration": 1.7518240000000276
                },
                {
                    "name": "A#4",
                    "midi": 70,
                    "time": 188.7590359999999,
                    "velocity": 0.3543307086614173,
                    "duration": 0.437956000000014
                },
                {
                    "name": "C4",
                    "midi": 60,
                    "time": 189.1969919999999,
                    "velocity": 0.33070866141732286,
                    "duration": 1.7518239999999992
                },
                {
                    "name": "G#4",
                    "midi": 68,
                    "time": 189.1969919999999,
                    "velocity": 0.3937007874015748,
                    "duration": 1.7518239999999992
                },
                {
                    "name": "D#4",
                    "midi": 63,
                    "time": 192.7006399999999,
                    "velocity": 0.33070866141732286,
                    "duration": 1.7518239999999992
                },
                {
                    "name": "A#4",
                    "midi": 70,
                    "time": 192.7006399999999,
                    "velocity": 0.3937007874015748,
                    "duration": 0.8759119999999996
                },
                {
                    "name": "C5",
                    "midi": 72,
                    "time": 194.01450799999992,
                    "velocity": 0.3937007874015748,
                    "duration": 0.1094889999999964
                },
                {
                    "name": "A#4",
                    "midi": 70,
                    "time": 194.12399699999992,
                    "velocity": 0.36220472440944884,
                    "duration": 0.1094889999999964
                },
                {
                    "name": "A4",
                    "midi": 69,
                    "time": 194.2334859999999,
                    "velocity": 0.36220472440944884,
                    "duration": 0.1094889999999964
                },
                {
                    "name": "A#4",
                    "midi": 70,
                    "time": 194.3429749999999,
                    "velocity": 0.36220472440944884,
                    "duration": 0.1094889999999964
                },
                {
                    "name": "D#4",
                    "midi": 63,
                    "time": 194.4524639999999,
                    "velocity": 0.3543307086614173,
                    "duration": 1.7518240000000276
                },
                {
                    "name": "C#5",
                    "midi": 73,
                    "time": 194.4524639999999,
                    "velocity": 0.4251968503937008,
                    "duration": 1.3138680000000136
                },
                {
                    "name": "G#4",
                    "midi": 68,
                    "time": 194.4524639999999,
                    "velocity": 0.3543307086614173,
                    "duration": 1.7518240000000276
                },
                {
                    "name": "C5",
                    "midi": 72,
                    "time": 195.76633199999992,
                    "velocity": 0.3543307086614173,
                    "duration": 0.437956000000014
                },
                {
                    "name": "G4",
                    "midi": 67,
                    "time": 196.20428799999993,
                    "velocity": 0.33070866141732286,
                    "duration": 1.7518239999999992
                },
                {
                    "name": "A#4",
                    "midi": 70,
                    "time": 196.20428799999993,
                    "velocity": 0.3937007874015748,
                    "duration": 1.7518239999999992
                },
                {
                    "name": "D#4",
                    "midi": 63,
                    "time": 199.65319149999993,
                    "velocity": 0.28346456692913385,
                    "duration": 0.1642334999999946
                },
                {
                    "name": "C5",
                    "midi": 72,
                    "time": 199.70793599999993,
                    "velocity": 0.49606299212598426,
                    "duration": 1.5328460000000064
                },
                {
                    "name": "G#4",
                    "midi": 68,
                    "time": 201.24078199999994,
                    "velocity": 0.4094488188976378,
                    "duration": 0.2189779999999928
                },
                {
                    "name": "D#4",
                    "midi": 63,
                    "time": 201.40501549999993,
                    "velocity": 0.33858267716535434,
                    "duration": 0.1642334999999946
                },
                {
                    "name": "D#5",
                    "midi": 75,
                    "time": 201.45975999999993,
                    "velocity": 0.5039370078740157,
                    "duration": 1.5328460000000064
                },
                {
                    "name": "C5",
                    "midi": 72,
                    "time": 202.99260599999994,
                    "velocity": 0.47244094488188976,
                    "duration": 0.1642334999999946
                },
                {
                    "name": "F4",
                    "midi": 65,
                    "time": 203.15683949999993,
                    "velocity": 0.3464566929133858,
                    "duration": 2.974451166666654
                },
                {
                    "name": "F5",
                    "midi": 77,
                    "time": 203.21158399999993,
                    "velocity": 0.5511811023622047,
                    "duration": 2.919706666666656
                },
                {
                    "name": "A4",
                    "midi": 69,
                    "time": 206.1312906666666,
                    "velocity": 0.4645669291338583,
                    "duration": 0.29197066666665705
                },
                {
                    "name": "D#5",
                    "midi": 75,
                    "time": 206.1312906666666,
                    "velocity": 0.5511811023622047,
                    "duration": 0.29197066666665705
                },
                {
                    "name": "A#4",
                    "midi": 70,
                    "time": 206.42326133333324,
                    "velocity": 0.4094488188976378,
                    "duration": 0.29197066666665705
                },
                {
                    "name": "C#5",
                    "midi": 73,
                    "time": 206.42326133333324,
                    "velocity": 0.4881889763779528,
                    "duration": 0.29197066666665705
                },
                {
                    "name": "G#4",
                    "midi": 68,
                    "time": 206.7152319999999,
                    "velocity": 0.4645669291338583,
                    "duration": 1.7518239999999992
                },
                {
                    "name": "C5",
                    "midi": 72,
                    "time": 206.7152319999999,
                    "velocity": 0.5511811023622047,
                    "duration": 0.8759119999999996
                },
                {
                    "name": "D#5",
                    "midi": 75,
                    "time": 207.5911439999999,
                    "velocity": 0.49606299212598426,
                    "duration": 0.8759119999999996
                },
                {
                    "name": "G4",
                    "midi": 67,
                    "time": 208.4670559999999,
                    "velocity": 0.4645669291338583,
                    "duration": 1.7518239999999992
                },
                {
                    "name": "C#5",
                    "midi": 73,
                    "time": 208.4670559999999,
                    "velocity": 0.5511811023622047,
                    "duration": 0.8759119999999996
                },
                {
                    "name": "A#4",
                    "midi": 70,
                    "time": 209.3429679999999,
                    "velocity": 0.47244094488188976,
                    "duration": 0.8759119999999996
                },
                {
                    "name": "C#4",
                    "midi": 61,
                    "time": 210.2188799999999,
                    "velocity": 0.4645669291338583,
                    "duration": 1.0948899999999924
                },
                {
                    "name": "A#4",
                    "midi": 70,
                    "time": 210.2188799999999,
                    "velocity": 0.5511811023622047,
                    "duration": 1.7518239999999707
                },
                {
                    "name": "C4",
                    "midi": 60,
                    "time": 211.3137699999999,
                    "velocity": 0.29133858267716534,
                    "duration": 0.1094889999999964
                },
                {
                    "name": "C#4",
                    "midi": 61,
                    "time": 211.4232589999999,
                    "velocity": 0.2677165354330709,
                    "duration": 0.1094889999999964
                },
                {
                    "name": "D#4",
                    "midi": 63,
                    "time": 211.53274799999988,
                    "velocity": 0.2992125984251969,
                    "duration": 0.1094889999999964
                },
                {
                    "name": "C#4",
                    "midi": 61,
                    "time": 211.64223699999988,
                    "velocity": 0.2677165354330709,
                    "duration": 0.1094889999999964
                },
                {
                    "name": "C4",
                    "midi": 60,
                    "time": 211.75172599999988,
                    "velocity": 0.2677165354330709,
                    "duration": 0.1094889999999964
                },
                {
                    "name": "C#4",
                    "midi": 61,
                    "time": 211.86121499999987,
                    "velocity": 0.2677165354330709,
                    "duration": 0.1094889999999964
                },
                {
                    "name": "C4",
                    "midi": 60,
                    "time": 211.97070399999987,
                    "velocity": 0.33070866141732286,
                    "duration": 0.8759119999999996
                },
                {
                    "name": "G#4",
                    "midi": 68,
                    "time": 211.97070399999987,
                    "velocity": 0.4015748031496063,
                    "duration": 0.8759119999999996
                },
                {
                    "name": "F5",
                    "midi": 77,
                    "time": 213.66778349999987,
                    "velocity": 0.6141732283464567,
                    "duration": 0.1642334999999946
                },
                {
                    "name": "F6",
                    "midi": 89,
                    "time": 213.72252799999987,
                    "velocity": 0.7165354330708661,
                    "duration": 1.3138679999999852
                },
                {
                    "name": "D#6",
                    "midi": 87,
                    "time": 215.03639599999985,
                    "velocity": 0.5118110236220472,
                    "duration": 0.06386858333334544
                },
                {
                    "name": "C6",
                    "midi": 84,
                    "time": 215.09843976666653,
                    "velocity": 0.49606299212598426,
                    "duration": 0.06386858333334544
                },
                {
                    "name": "A5",
                    "midi": 81,
                    "time": 215.16230834999988,
                    "velocity": 0.4881889763779528,
                    "duration": 0.06204376666667599
                },
                {
                    "name": "F5",
                    "midi": 77,
                    "time": 215.22435211666655,
                    "velocity": 0.48031496062992124,
                    "duration": 0.06204376666667599
                },
                {
                    "name": "D#5",
                    "midi": 75,
                    "time": 215.28639588333323,
                    "velocity": 0.4645669291338583,
                    "duration": 0.06386858333334544
                },
                {
                    "name": "C5",
                    "midi": 72,
                    "time": 215.3484396499999,
                    "velocity": 0.44881889763779526,
                    "duration": 0.06386858333334544
                },
                {
                    "name": "A4",
                    "midi": 69,
                    "time": 215.41048341666658,
                    "velocity": 0.4409448818897638,
                    "duration": 0.06386858333334544
                },
                {
                    "name": "F4",
                    "midi": 65,
                    "time": 215.47435199999993,
                    "velocity": 0.6141732283464567,
                    "duration": 0.437956000000014
                },
                {
                    "name": "C4",
                    "midi": 60,
                    "time": 217.00719799999993,
                    "velocity": 0.3543307086614173,
                    "duration": 0.20072983333332672
                },
                {
                    "name": "D#4",
                    "midi": 63,
                    "time": 217.00719799999993,
                    "velocity": 0.4251968503937008,
                    "duration": 0.20072983333332672
                },
                {
                    "name": "C4",
                    "midi": 60,
                    "time": 217.22617599999992,
                    "velocity": 0.3779527559055118,
                    "duration": 1.7518239999999992
                },
                {
                    "name": "D#4",
                    "midi": 63,
                    "time": 217.22617599999992,
                    "velocity": 0.44881889763779526,
                    "duration": 1.7518239999999992
                },
                {
                    "name": "A#3",
                    "midi": 58,
                    "time": 218.97799999999992,
                    "velocity": 0.2992125984251969,
                    "duration": 0.8759119999999996
                },
                {
                    "name": "C#4",
                    "midi": 61,
                    "time": 218.97799999999992,
                    "velocity": 0.3543307086614173,
                    "duration": 0.8759119999999996
                },
                {
                    "name": "D#5",
                    "midi": 75,
                    "time": 220.67507949999992,
                    "velocity": 0.6141732283464567,
                    "duration": 0.1642334999999946
                },
                {
                    "name": "D#6",
                    "midi": 87,
                    "time": 220.72982399999992,
                    "velocity": 0.7165354330708661,
                    "duration": 1.3138679999999852
                },
                {
                    "name": "C#6",
                    "midi": 85,
                    "time": 222.0436919999999,
                    "velocity": 0.5118110236220472,
                    "duration": 0.06386858333334544
                },
                {
                    "name": "A#5",
                    "midi": 82,
                    "time": 222.10573576666658,
                    "velocity": 0.49606299212598426,
                    "duration": 0.06386858333334544
                },
                {
                    "name": "G5",
                    "midi": 79,
                    "time": 222.16960434999993,
                    "velocity": 0.4881889763779528,
                    "duration": 0.06204376666667599
                },
                {
                    "name": "D#5",
                    "midi": 75,
                    "time": 222.2316481166666,
                    "velocity": 0.48031496062992124,
                    "duration": 0.06204376666667599
                },
                {
                    "name": "C#5",
                    "midi": 73,
                    "time": 222.29369188333328,
                    "velocity": 0.4645669291338583,
                    "duration": 0.06386858333334544
                },
                {
                    "name": "A#4",
                    "midi": 70,
                    "time": 222.35573564999996,
                    "velocity": 0.44881889763779526,
                    "duration": 0.06386858333334544
                },
                {
                    "name": "G4",
                    "midi": 67,
                    "time": 222.41777941666663,
                    "velocity": 0.4409448818897638,
                    "duration": 0.06386858333334544
                },
                {
                    "name": "D#4",
                    "midi": 63,
                    "time": 222.48164799999998,
                    "velocity": 0.6141732283464567,
                    "duration": 0.437956000000014
                },
                {
                    "name": "A#3",
                    "midi": 58,
                    "time": 224.01449399999998,
                    "velocity": 0.3543307086614173,
                    "duration": 0.20072983333332672
                },
                {
                    "name": "C#4",
                    "midi": 61,
                    "time": 224.01449399999998,
                    "velocity": 0.4251968503937008,
                    "duration": 0.20072983333332672
                },
                {
                    "name": "A#3",
                    "midi": 58,
                    "time": 224.23347199999998,
                    "velocity": 0.3779527559055118,
                    "duration": 1.7518239999999992
                },
                {
                    "name": "C#4",
                    "midi": 61,
                    "time": 224.23347199999998,
                    "velocity": 0.44881889763779526,
                    "duration": 1.7518239999999992
                },
                {
                    "name": "G#3",
                    "midi": 56,
                    "time": 225.98529599999998,
                    "velocity": 0.2992125984251969,
                    "duration": 0.8759119999999996
                },
                {
                    "name": "B3",
                    "midi": 59,
                    "time": 225.98529599999998,
                    "velocity": 0.3543307086614173,
                    "duration": 0.8759119999999996
                },
                {
                    "name": "G#3",
                    "midi": 56,
                    "time": 231.02178999999998,
                    "velocity": 0.5433070866141733,
                    "duration": 0.20072983333332672
                },
                {
                    "name": "E3",
                    "midi": 52,
                    "time": 231.02178999999998,
                    "velocity": 0.5433070866141733,
                    "duration": 0.20072983333332672
                },
                {
                    "name": "E4",
                    "midi": 64,
                    "time": 231.02178999999998,
                    "velocity": 0.5433070866141733,
                    "duration": 0.20072983333332672
                },
                {
                    "name": "F#3",
                    "midi": 54,
                    "time": 231.24076799999997,
                    "velocity": 0.5748031496062992,
                    "duration": 2.6277359999999987
                },
                {
                    "name": "A3",
                    "midi": 57,
                    "time": 231.24076799999997,
                    "velocity": 0.5748031496062992,
                    "duration": 2.6277359999999987
                },
                {
                    "name": "E4",
                    "midi": 64,
                    "time": 231.24076799999997,
                    "velocity": 0.5748031496062992,
                    "duration": 1.7518239999999992
                },
                {
                    "name": "D#4",
                    "midi": 63,
                    "time": 232.99259199999997,
                    "velocity": 0.48031496062992124,
                    "duration": 0.8759119999999996
                },
                {
                    "name": "G#3",
                    "midi": 56,
                    "time": 234.52543799999998,
                    "velocity": 0.5433070866141733,
                    "duration": 0.20072983333332672
                },
                {
                    "name": "F3",
                    "midi": 53,
                    "time": 234.52543799999998,
                    "velocity": 0.5433070866141733,
                    "duration": 0.20072983333332672
                },
                {
                    "name": "D#4",
                    "midi": 63,
                    "time": 234.52543799999998,
                    "velocity": 0.5433070866141733,
                    "duration": 0.20072983333332672
                },
                {
                    "name": "F3",
                    "midi": 53,
                    "time": 234.74441599999997,
                    "velocity": 0.5748031496062992,
                    "duration": 2.6277359999999987
                },
                {
                    "name": "G#3",
                    "midi": 56,
                    "time": 234.74441599999997,
                    "velocity": 0.5748031496062992,
                    "duration": 2.6277359999999987
                },
                {
                    "name": "D#4",
                    "midi": 63,
                    "time": 234.74441599999997,
                    "velocity": 0.5748031496062992,
                    "duration": 1.7518239999999992
                },
                {
                    "name": "D4",
                    "midi": 62,
                    "time": 236.49623999999997,
                    "velocity": 0.48031496062992124,
                    "duration": 0.8759119999999996
                },
                {
                    "name": "G#3",
                    "midi": 56,
                    "time": 238.02908599999998,
                    "velocity": 0.5433070866141733,
                    "duration": 0.20072983333332672
                },
                {
                    "name": "F3",
                    "midi": 53,
                    "time": 238.02908599999998,
                    "velocity": 0.5433070866141733,
                    "duration": 0.20072983333332672
                },
                {
                    "name": "D4",
                    "midi": 62,
                    "time": 238.02908599999998,
                    "velocity": 0.5433070866141733,
                    "duration": 0.20072983333332672
                },
                {
                    "name": "F3",
                    "midi": 53,
                    "time": 238.24806399999997,
                    "velocity": 0.5748031496062992,
                    "duration": 2.627736000000027
                },
                {
                    "name": "G#3",
                    "midi": 56,
                    "time": 238.24806399999997,
                    "velocity": 0.5748031496062992,
                    "duration": 1.7518239999999992
                },
                {
                    "name": "D4",
                    "midi": 62,
                    "time": 238.24806399999997,
                    "velocity": 0.5748031496062992,
                    "duration": 1.7518239999999992
                },
                {
                    "name": "A#3",
                    "midi": 58,
                    "time": 239.99988799999997,
                    "velocity": 0.4251968503937008,
                    "duration": 0.437956000000014
                },
                {
                    "name": "C#4",
                    "midi": 61,
                    "time": 239.99988799999997,
                    "velocity": 0.48031496062992124,
                    "duration": 0.437956000000014
                },
                {
                    "name": "A4",
                    "midi": 69,
                    "time": 240.43784399999998,
                    "velocity": 0.36220472440944884,
                    "duration": 0.45985380000001896
                },
                {
                    "name": "A#4",
                    "midi": 70,
                    "time": 240.8758,
                    "velocity": 0.4251968503937008,
                    "duration": 0.3941604000000041
                },
                {
                    "name": "C5",
                    "midi": 72,
                    "time": 241.313756,
                    "velocity": 0.36220472440944884,
                    "duration": 0.45985380000001896
                },
                {
                    "name": "C#5",
                    "midi": 73,
                    "time": 241.75171200000003,
                    "velocity": 0.4251968503937008,
                    "duration": 0.3941604000000041
                },
                {
                    "name": "F#5",
                    "midi": 78,
                    "time": 242.18966800000004,
                    "velocity": 0.3937007874015748,
                    "duration": 0.437956000000014
                },
                {
                    "name": "G5",
                    "midi": 79,
                    "time": 242.62762400000005,
                    "velocity": 0.47244094488188976,
                    "duration": 0.3941604000000041
                },
                {
                    "name": "A5",
                    "midi": 81,
                    "time": 243.06558000000007,
                    "velocity": 0.3937007874015748,
                    "duration": 0.45985380000001896
                },
                {
                    "name": "A#5",
                    "midi": 82,
                    "time": 243.50353600000008,
                    "velocity": 0.47244094488188976,
                    "duration": 0.3941604000000041
                },
                {
                    "name": "C6",
                    "midi": 84,
                    "time": 243.9414920000001,
                    "velocity": 0.3937007874015748,
                    "duration": 0.45985380000001896
                },
                {
                    "name": "C#6",
                    "midi": 85,
                    "time": 244.3794480000001,
                    "velocity": 0.47244094488188976,
                    "duration": 0.437956000000014
                },
                {
                    "name": "A#5",
                    "midi": 82,
                    "time": 244.81740400000012,
                    "velocity": 0.3937007874015748,
                    "duration": 0.437956000000014
                },
                {
                    "name": "G5",
                    "midi": 79,
                    "time": 245.25536000000014,
                    "velocity": 0.47244094488188976,
                    "duration": 2.189780000000013
                },
                {
                    "name": "G#5",
                    "midi": 80,
                    "time": 247.44514000000015,
                    "velocity": 0.4330708661417323,
                    "duration": 0.1094889999999964
                },
                {
                    "name": "G5",
                    "midi": 79,
                    "time": 247.55462900000015,
                    "velocity": 0.4330708661417323,
                    "duration": 0.1094889999999964
                },
                {
                    "name": "F5",
                    "midi": 77,
                    "time": 247.66411800000014,
                    "velocity": 0.4330708661417323,
                    "duration": 0.1094889999999964
                },
                {
                    "name": "G5",
                    "midi": 79,
                    "time": 247.77360700000014,
                    "velocity": 0.4330708661417323,
                    "duration": 0.1094889999999964
                },
                {
                    "name": "G#5",
                    "midi": 80,
                    "time": 247.88309600000014,
                    "velocity": 0.47244094488188976,
                    "duration": 0.6569340000000068
                },
                {
                    "name": "A#5",
                    "midi": 82,
                    "time": 248.54003000000014,
                    "velocity": 0.47244094488188976,
                    "duration": 0.2189779999999928
                },
                {
                    "name": "A#5",
                    "midi": 82,
                    "time": 248.75900800000014,
                    "velocity": 0.47244094488188976,
                    "duration": 0.8759119999999996
                },
                {
                    "name": "G#5",
                    "midi": 80,
                    "time": 249.63492000000014,
                    "velocity": 0.47244094488188976,
                    "duration": 1.7518239999999992
                },
                {
                    "name": "A5",
                    "midi": 81,
                    "time": 251.38674400000014,
                    "velocity": 0.47244094488188976,
                    "duration": 0.8759119999999996
                },
                {
                    "name": "A#5",
                    "midi": 82,
                    "time": 252.26265600000013,
                    "velocity": 0.47244094488188976,
                    "duration": 2.189780000000013
                },
                {
                    "name": "C6",
                    "midi": 84,
                    "time": 254.45243600000015,
                    "velocity": 0.4330708661417323,
                    "duration": 0.1094889999999964
                },
                {
                    "name": "A#5",
                    "midi": 82,
                    "time": 254.56192500000014,
                    "velocity": 0.4330708661417323,
                    "duration": 0.1094889999999964
                },
                {
                    "name": "A5",
                    "midi": 81,
                    "time": 254.67141400000014,
                    "velocity": 0.4330708661417323,
                    "duration": 0.1094889999999964
                },
                {
                    "name": "A#5",
                    "midi": 82,
                    "time": 254.78090300000014,
                    "velocity": 0.4330708661417323,
                    "duration": 0.1094889999999964
                },
                {
                    "name": "C6",
                    "midi": 84,
                    "time": 254.89039200000013,
                    "velocity": 0.47244094488188976,
                    "duration": 0.6569340000000068
                },
                {
                    "name": "C#6",
                    "midi": 85,
                    "time": 255.54732600000014,
                    "velocity": 0.47244094488188976,
                    "duration": 0.2189779999999928
                },
                {
                    "name": "C#6",
                    "midi": 85,
                    "time": 255.76630400000013,
                    "velocity": 0.47244094488188976,
                    "duration": 0.8759119999999996
                },
                {
                    "name": "C6",
                    "midi": 84,
                    "time": 256.64221600000013,
                    "velocity": 0.47244094488188976,
                    "duration": 0.875912000000028
                },
                {
                    "name": "G4",
                    "midi": 67,
                    "time": 259.3429446666668,
                    "velocity": 0.23622047244094488,
                    "duration": 0.07299266666666426
                },
                {
                    "name": "G#4",
                    "midi": 68,
                    "time": 259.41776215000016,
                    "velocity": 0.23622047244094488,
                    "duration": 0.07299266666666426
                },
                {
                    "name": "A#4",
                    "midi": 70,
                    "time": 259.4907548166668,
                    "velocity": 0.3228346456692913,
                    "duration": 0.07299266666666426
                },
                {
                    "name": "G#4",
                    "midi": 68,
                    "time": 259.5637474833335,
                    "velocity": 0.25984251968503935,
                    "duration": 0.07299266666666426
                },
                {
                    "name": "G4",
                    "midi": 67,
                    "time": 259.63674015000015,
                    "velocity": 0.25984251968503935,
                    "duration": 0.07299266666666426
                },
                {
                    "name": "C#5",
                    "midi": 73,
                    "time": 259.7097328166668,
                    "velocity": 0.33070866141732286,
                    "duration": 0.07299266666666426
                },
                {
                    "name": "C5",
                    "midi": 72,
                    "time": 259.7827254833335,
                    "velocity": 0.28346456692913385,
                    "duration": 0.07299266666666426
                },
                {
                    "name": "A#4",
                    "midi": 70,
                    "time": 259.85571815000014,
                    "velocity": 0.30708661417322836,
                    "duration": 0.07299266666666426
                },
                {
                    "name": "G5",
                    "midi": 79,
                    "time": 259.9305356333335,
                    "velocity": 0.4015748031496063,
                    "duration": 0.07299266666666426
                },
                {
                    "name": "F5",
                    "midi": 77,
                    "time": 260.00352830000014,
                    "velocity": 0.30708661417322836,
                    "duration": 0.07299266666666426
                },
                {
                    "name": "D#5",
                    "midi": 75,
                    "time": 260.0765209666668,
                    "velocity": 0.33070866141732286,
                    "duration": 0.07299266666666426
                },
                {
                    "name": "A#5",
                    "midi": 82,
                    "time": 260.14586400000013,
                    "velocity": 0.44881889763779526,
                    "duration": 0.07299266666666426
                },
                {
                    "name": "G#5",
                    "midi": 80,
                    "time": 260.2188566666668,
                    "velocity": 0.36220472440944884,
                    "duration": 0.07299266666666426
                },
                {
                    "name": "G5",
                    "midi": 79,
                    "time": 260.29184933333346,
                    "velocity": 0.3858267716535433,
                    "duration": 0.07299266666666426
                },
                {
                    "name": "C#6",
                    "midi": 85,
                    "time": 260.3648420000001,
                    "velocity": 0.4645669291338583,
                    "duration": 0.07299266666666426
                },
                {
                    "name": "C6",
                    "midi": 84,
                    "time": 260.4378346666668,
                    "velocity": 0.3937007874015748,
                    "duration": 0.07299266666666426
                },
                {
                    "name": "A#5",
                    "midi": 82,
                    "time": 260.51082733333345,
                    "velocity": 0.4330708661417323,
                    "duration": 0.07299266666666426
                },
                {
                    "name": "F6",
                    "midi": 89,
                    "time": 260.5838200000001,
                    "velocity": 0.5433070866141733,
                    "duration": 1.7518239999999992
                },
                {
                    "name": "F6",
                    "midi": 89,
                    "time": 262.3356440000001,
                    "velocity": 0.4251968503937008,
                    "duration": 0.06204376666664757
                },
                {
                    "name": "D#6",
                    "midi": 87,
                    "time": 262.39768776666676,
                    "velocity": 0.41732283464566927,
                    "duration": 0.06204376666664757
                },
                {
                    "name": "C#6",
                    "midi": 85,
                    "time": 262.4615563500001,
                    "velocity": 0.4094488188976378,
                    "duration": 0.06204376666664757
                },
                {
                    "name": "C6",
                    "midi": 84,
                    "time": 262.5236001166667,
                    "velocity": 0.4094488188976378,
                    "duration": 0.06204376666664757
                },
                {
                    "name": "A#5",
                    "midi": 82,
                    "time": 262.5856438833334,
                    "velocity": 0.4015748031496063,
                    "duration": 0.06204376666664757
                },
                {
                    "name": "G#5",
                    "midi": 80,
                    "time": 262.64768765,
                    "velocity": 0.3937007874015748,
                    "duration": 0.06204376666664757
                },
                {
                    "name": "G5",
                    "midi": 79,
                    "time": 262.70973141666667,
                    "velocity": 0.3858267716535433,
                    "duration": 0.06204376666664757
                },
                {
                    "name": "A#5",
                    "midi": 82,
                    "time": 262.7736,
                    "velocity": 0.4409448818897638,
                    "duration": 0.6569339999999784
                },
                {
                    "name": "G#5",
                    "midi": 80,
                    "time": 263.43053399999997,
                    "velocity": 0.3464566929133858,
                    "duration": 0.2189779999999928
                },
                {
                    "name": "G5",
                    "midi": 79,
                    "time": 263.64951199999996,
                    "velocity": 0.3700787401574803,
                    "duration": 0.3284669999999892
                },
                {
                    "name": "G#5",
                    "midi": 80,
                    "time": 263.97797899999995,
                    "velocity": 0.3464566929133858,
                    "duration": 0.1094889999999964
                },
                {
                    "name": "A#5",
                    "midi": 82,
                    "time": 264.08746799999994,
                    "velocity": 0.4015748031496063,
                    "duration": 0.3284669999999892
                },
                {
                    "name": "G#5",
                    "midi": 80,
                    "time": 264.41593499999993,
                    "velocity": 0.3543307086614173,
                    "duration": 0.1094889999999964
                },
                {
                    "name": "G#4",
                    "midi": 68,
                    "time": 264.52542399999993,
                    "velocity": 0.44881889763779526,
                    "duration": 0.875912000000028
                },
                {
                    "name": "A#4",
                    "midi": 70,
                    "time": 266.35024066666665,
                    "velocity": 0.23622047244094488,
                    "duration": 0.07299266666666426
                },
                {
                    "name": "C5",
                    "midi": 72,
                    "time": 266.42505815,
                    "velocity": 0.23622047244094488,
                    "duration": 0.07299266666666426
                },
                {
                    "name": "C#5",
                    "midi": 73,
                    "time": 266.49805081666665,
                    "velocity": 0.3228346456692913,
                    "duration": 0.07299266666666426
                },
                {
                    "name": "C5",
                    "midi": 72,
                    "time": 266.5710434833333,
                    "velocity": 0.25984251968503935,
                    "duration": 0.07299266666666426
                },
                {
                    "name": "A#4",
                    "midi": 70,
                    "time": 266.64403615,
                    "velocity": 0.25984251968503935,
                    "duration": 0.07299266666666426
                },
                {
                    "name": "G5",
                    "midi": 79,
                    "time": 266.71702881666664,
                    "velocity": 0.3700787401574803,
                    "duration": 0.07299266666666426
                },
                {
                    "name": "F5",
                    "midi": 77,
                    "time": 266.7900214833333,
                    "velocity": 0.2992125984251969,
                    "duration": 0.07299266666666426
                },
                {
                    "name": "D#5",
                    "midi": 75,
                    "time": 266.86301414999997,
                    "velocity": 0.30708661417322836,
                    "duration": 0.07299266666666426
                },
                {
                    "name": "A#5",
                    "midi": 82,
                    "time": 266.9378316333333,
                    "velocity": 0.4015748031496063,
                    "duration": 0.07299266666666426
                },
                {
                    "name": "G#5",
                    "midi": 80,
                    "time": 267.01082429999997,
                    "velocity": 0.36220472440944884,
                    "duration": 0.07299266666666426
                },
                {
                    "name": "G5",
                    "midi": 79,
                    "time": 267.08381696666663,
                    "velocity": 0.3779527559055118,
                    "duration": 0.07299266666666426
                },
                {
                    "name": "C#6",
                    "midi": 85,
                    "time": 267.15315999999996,
                    "velocity": 0.5433070866141733,
                    "duration": 2.1897799999999847
                },
                {
                    "name": "C6",
                    "midi": 84,
                    "time": 269.34293999999994,
                    "velocity": 0.3937007874015748,
                    "duration": 0.04014596666667103
                },
                {
                    "name": "C#6",
                    "midi": 85,
                    "time": 269.3830859666666,
                    "velocity": 0.4094488188976378,
                    "duration": 0.04014596666667103
                },
                {
                    "name": "D#6",
                    "midi": 87,
                    "time": 269.4232319333333,
                    "velocity": 0.4330708661417323,
                    "duration": 0.04014596666667103
                },
                {
                    "name": "C#6",
                    "midi": 85,
                    "time": 269.46337789999995,
                    "velocity": 0.4566929133858268,
                    "duration": 0.04014596666667103
                },
                {
                    "name": "C6",
                    "midi": 84,
                    "time": 269.5035238666666,
                    "velocity": 0.4566929133858268,
                    "duration": 0.04014596666667103
                },
                {
                    "name": "A#5",
                    "midi": 82,
                    "time": 269.5436698333333,
                    "velocity": 0.44881889763779526,
                    "duration": 0.04014596666667103
                },
                {
                    "name": "G#5",
                    "midi": 80,
                    "time": 269.58381579999997,
                    "velocity": 0.4409448818897638,
                    "duration": 0.04014596666667103
                },
                {
                    "name": "G5",
                    "midi": 79,
                    "time": 269.62396176666664,
                    "velocity": 0.4330708661417323,
                    "duration": 0.04014596666667103
                },
                {
                    "name": "F5",
                    "midi": 77,
                    "time": 269.66228291666664,
                    "velocity": 0.4251968503937008,
                    "duration": 0.04014596666667103
                },
                {
                    "name": "D#5",
                    "midi": 75,
                    "time": 269.7024288833333,
                    "velocity": 0.41732283464566927,
                    "duration": 0.04014596666667103
                },
                {
                    "name": "C#5",
                    "midi": 73,
                    "time": 269.74257485,
                    "velocity": 0.4094488188976378,
                    "duration": 0.04014596666667103
                },
                {
                    "name": "C5",
                    "midi": 72,
                    "time": 269.780896,
                    "velocity": 0.4881889763779528,
                    "duration": 1.3138680000000136
                },
                {
                    "name": "C5",
                    "midi": 72,
                    "time": 271.313742,
                    "velocity": 0.5039370078740157,
                    "duration": 0.2189779999999928
                },
                {
                    "name": "C#5",
                    "midi": 73,
                    "time": 271.53272,
                    "velocity": 0.5590551181102362,
                    "duration": 1.3138680000000136
                },
                {
                    "name": "C#5",
                    "midi": 73,
                    "time": 273.065566,
                    "velocity": 0.5590551181102362,
                    "duration": 0.2189779999999928
                },
                {
                    "name": "D#5",
                    "midi": 75,
                    "time": 273.284544,
                    "velocity": 0.6377952755905512,
                    "duration": 1.3138680000000136
                },
                {
                    "name": "D#5",
                    "midi": 75,
                    "time": 274.81739,
                    "velocity": 0.6141732283464567,
                    "duration": 0.2189779999999928
                },
                {
                    "name": "E5",
                    "midi": 76,
                    "time": 275.036368,
                    "velocity": 0.7007874015748031,
                    "duration": 1.3138680000000136
                },
                {
                    "name": "E5",
                    "midi": 76,
                    "time": 276.569214,
                    "velocity": 0.6614173228346457,
                    "duration": 0.2189779999999928
                },
                {
                    "name": "F5",
                    "midi": 77,
                    "time": 276.788192,
                    "velocity": 0.7244094488188977,
                    "duration": 1.3138680000000136
                },
                {
                    "name": "F5",
                    "midi": 77,
                    "time": 278.321038,
                    "velocity": 0.6929133858267716,
                    "duration": 0.2189779999999928
                },
                {
                    "name": "G5",
                    "midi": 79,
                    "time": 278.540016,
                    "velocity": 0.7401574803149606,
                    "duration": 1.3138680000000136
                },
                {
                    "name": "G5",
                    "midi": 79,
                    "time": 280.072862,
                    "velocity": 0.7322834645669292,
                    "duration": 0.2189779999999928
                },
                {
                    "name": "G#5",
                    "midi": 80,
                    "time": 280.29184,
                    "velocity": 0.7874015748031497,
                    "duration": 1.3138680000000136
                },
                {
                    "name": "A#5",
                    "midi": 82,
                    "time": 281.824686,
                    "velocity": 0.6771653543307087,
                    "duration": 0.05474450000002662
                },
                {
                    "name": "G#5",
                    "midi": 80,
                    "time": 281.8794305,
                    "velocity": 0.7007874015748031,
                    "duration": 0.05474450000002662
                },
                {
                    "name": "G5",
                    "midi": 79,
                    "time": 281.93417500000004,
                    "velocity": 0.7165354330708661,
                    "duration": 0.05474450000002662
                },
                {
                    "name": "G#5",
                    "midi": 80,
                    "time": 281.98891950000007,
                    "velocity": 0.7322834645669292,
                    "duration": 0.05474450000002662
                },
                {
                    "name": "A#5",
                    "midi": 82,
                    "time": 282.0436640000001,
                    "velocity": 0.7480314960629921,
                    "duration": 0.4379559999999856
                },
                {
                    "name": "G#5",
                    "midi": 80,
                    "time": 282.4816200000001,
                    "velocity": 0.6850393700787402,
                    "duration": 0.4379559999999856
                },
                {
                    "name": "G5",
                    "midi": 79,
                    "time": 282.91957600000006,
                    "velocity": 0.6062992125984252,
                    "duration": 0.3284669999999892
                },
                {
                    "name": "F5",
                    "midi": 77,
                    "time": 283.35753200000005,
                    "velocity": 0.5275590551181102,
                    "duration": 0.3284669999999892
                },
                {
                    "name": "D#5",
                    "midi": 75,
                    "time": 283.79548800000003,
                    "velocity": 0.47244094488188976,
                    "duration": 0.4598537999999621
                },
                {
                    "name": "D5",
                    "midi": 74,
                    "time": 284.233444,
                    "velocity": 0.4330708661417323,
                    "duration": 0.4598537999999621
                },
                {
                    "name": "F5",
                    "midi": 77,
                    "time": 284.6714,
                    "velocity": 0.47244094488188976,
                    "duration": 0.4598537999999621
                },
                {
                    "name": "D#5",
                    "midi": 75,
                    "time": 285.109356,
                    "velocity": 0.4330708661417323,
                    "duration": 0.4598537999999621
                },
                {
                    "name": "C#5",
                    "midi": 73,
                    "time": 285.547312,
                    "velocity": 0.47244094488188976,
                    "duration": 0.4598537999999621
                },
                {
                    "name": "C5",
                    "midi": 72,
                    "time": 285.98526799999996,
                    "velocity": 0.4409448818897638,
                    "duration": 0.4598537999999621
                },
                {
                    "name": "A#4",
                    "midi": 70,
                    "time": 286.42322399999995,
                    "velocity": 0.47244094488188976,
                    "duration": 0.4598537999999621
                },
                {
                    "name": "D#5",
                    "midi": 75,
                    "time": 286.86117999999993,
                    "velocity": 0.44881889763779526,
                    "duration": 0.4379559999999856
                },
                {
                    "name": "B4",
                    "midi": 71,
                    "time": 287.2991359999999,
                    "velocity": 0.47244094488188976,
                    "duration": 0.29197066666665705
                },
                {
                    "name": "C5",
                    "midi": 72,
                    "time": 287.5911066666666,
                    "velocity": 0.4015748031496063,
                    "duration": 0.29197066666665705
                },
                {
                    "name": "C4",
                    "midi": 60,
                    "time": 287.88307733333323,
                    "velocity": 0.33858267716535434,
                    "duration": 0.29197066666665705
                },
                {
                    "name": "C5",
                    "midi": 72,
                    "time": 288.46701866666655,
                    "velocity": 0.47244094488188976,
                    "duration": 0.29197066666665705
                },
                {
                    "name": "C4",
                    "midi": 60,
                    "time": 288.7589893333332,
                    "velocity": 0.4094488188976378,
                    "duration": 0.29197066666665705
                },
                {
                    "name": "C5",
                    "midi": 72,
                    "time": 289.05095999999986,
                    "velocity": 0.47244094488188976,
                    "duration": 0.29197066666665705
                },
                {
                    "name": "C#5",
                    "midi": 73,
                    "time": 289.3429306666665,
                    "velocity": 0.4015748031496063,
                    "duration": 0.29197066666665705
                },
                {
                    "name": "C#4",
                    "midi": 61,
                    "time": 289.6349013333332,
                    "velocity": 0.33858267716535434,
                    "duration": 0.29197066666665705
                },
                {
                    "name": "C#5",
                    "midi": 73,
                    "time": 290.2188426666665,
                    "velocity": 0.47244094488188976,
                    "duration": 0.29197066666665705
                },
                {
                    "name": "C#4",
                    "midi": 61,
                    "time": 290.51081333333315,
                    "velocity": 0.4251968503937008,
                    "duration": 0.29197066666665705
                },
                {
                    "name": "D5",
                    "midi": 74,
                    "time": 290.8027839999998,
                    "velocity": 0.47244094488188976,
                    "duration": 0.29197066666665705
                },
                {
                    "name": "D#5",
                    "midi": 75,
                    "time": 291.09475466666646,
                    "velocity": 0.4015748031496063,
                    "duration": 0.29197066666665705
                },
                {
                    "name": "D#4",
                    "midi": 63,
                    "time": 291.3867253333331,
                    "velocity": 0.3464566929133858,
                    "duration": 0.29197066666665705
                },
                {
                    "name": "D#5",
                    "midi": 75,
                    "time": 291.97066666666643,
                    "velocity": 0.5039370078740157,
                    "duration": 0.29197066666665705
                },
                {
                    "name": "D#4",
                    "midi": 63,
                    "time": 292.2626373333331,
                    "velocity": 0.4409448818897638,
                    "duration": 0.29197066666665705
                },
                {
                    "name": "D#5",
                    "midi": 75,
                    "time": 292.55460799999975,
                    "velocity": 0.5196850393700787,
                    "duration": 0.29197066666665705
                },
                {
                    "name": "E5",
                    "midi": 76,
                    "time": 292.8465786666664,
                    "velocity": 0.49606299212598426,
                    "duration": 0.29197066666665705
                },
                {
                    "name": "E4",
                    "midi": 64,
                    "time": 293.13854933333306,
                    "velocity": 0.4566929133858268,
                    "duration": 0.29197066666665705
                },
                {
                    "name": "E5",
                    "midi": 76,
                    "time": 293.7224906666664,
                    "velocity": 0.5511811023622047,
                    "duration": 0.29197066666665705
                },
                {
                    "name": "E4",
                    "midi": 64,
                    "time": 294.01446133333303,
                    "velocity": 0.5039370078740157,
                    "duration": 0.29197066666665705
                },
                {
                    "name": "E5",
                    "midi": 76,
                    "time": 294.3064319999997,
                    "velocity": 0.5748031496062992,
                    "duration": 0.29197066666665705
                },
                {
                    "name": "F5",
                    "midi": 77,
                    "time": 294.59840266666635,
                    "velocity": 0.5511811023622047,
                    "duration": 0.29197066666665705
                },
                {
                    "name": "F4",
                    "midi": 65,
                    "time": 294.890373333333,
                    "velocity": 0.49606299212598426,
                    "duration": 0.29197066666665705
                },
                {
                    "name": "F5",
                    "midi": 77,
                    "time": 295.4743146666663,
                    "velocity": 0.6062992125984252,
                    "duration": 0.29197066666665705
                },
                {
                    "name": "F4",
                    "midi": 65,
                    "time": 295.766285333333,
                    "velocity": 0.5354330708661418,
                    "duration": 0.29197066666665705
                },
                {
                    "name": "F#5",
                    "midi": 78,
                    "time": 296.05825599999963,
                    "velocity": 0.6220472440944882,
                    "duration": 0.29197066666665705
                },
                {
                    "name": "G5",
                    "midi": 79,
                    "time": 296.3502266666663,
                    "velocity": 0.6062992125984252,
                    "duration": 0.29197066666665705
                },
                {
                    "name": "G4",
                    "midi": 67,
                    "time": 296.64219733333294,
                    "velocity": 0.5433070866141733,
                    "duration": 0.29197066666665705
                },
                {
                    "name": "G5",
                    "midi": 79,
                    "time": 297.22613866666626,
                    "velocity": 0.6614173228346457,
                    "duration": 0.29197066666665705
                },
                {
                    "name": "G4",
                    "midi": 67,
                    "time": 297.5181093333329,
                    "velocity": 0.5984251968503937,
                    "duration": 0.29197066666665705
                },
                {
                    "name": "G5",
                    "midi": 79,
                    "time": 297.8100799999996,
                    "velocity": 0.6771653543307087,
                    "duration": 0.29197066666665705
                },
                {
                    "name": "G#5",
                    "midi": 80,
                    "time": 298.10205066666623,
                    "velocity": 0.6377952755905512,
                    "duration": 0.29197066666665705
                },
                {
                    "name": "G#4",
                    "midi": 68,
                    "time": 298.3940213333329,
                    "velocity": 0.5905511811023622,
                    "duration": 0.29197066666665705
                },
                {
                    "name": "G#5",
                    "midi": 80,
                    "time": 298.9779626666662,
                    "velocity": 0.6850393700787402,
                    "duration": 0.29197066666665705
                },
                {
                    "name": "G#4",
                    "midi": 68,
                    "time": 299.26993333333286,
                    "velocity": 0.6377952755905512,
                    "duration": 0.29197066666665705
                },
                {
                    "name": "B5",
                    "midi": 83,
                    "time": 299.5619039999995,
                    "velocity": 0.6850393700787402,
                    "duration": 0.29197066666665705
                },
                {
                    "name": "B4",
                    "midi": 71,
                    "time": 299.8538746666662,
                    "velocity": 0.6220472440944882,
                    "duration": 0.29197066666665705
                },
                {
                    "name": "B5",
                    "midi": 83,
                    "time": 300.14584533333283,
                    "velocity": 0.6850393700787402,
                    "duration": 0.29197066666665705
                },
                {
                    "name": "G#4",
                    "midi": 68,
                    "time": 300.4378159999995,
                    "velocity": 0.6220472440944882,
                    "duration": 0.29197066666665705
                },
                {
                    "name": "G#5",
                    "midi": 80,
                    "time": 300.72978666666614,
                    "velocity": 0.6771653543307087,
                    "duration": 0.29197066666665705
                },
                {
                    "name": "G#4",
                    "midi": 68,
                    "time": 301.0217573333328,
                    "velocity": 0.6220472440944882,
                    "duration": 0.29197066666665705
                },
                {
                    "name": "D#5",
                    "midi": 75,
                    "time": 301.31372799999946,
                    "velocity": 0.6929133858267716,
                    "duration": 2.043794666666656
                },
                {
                    "name": "D6",
                    "midi": 86,
                    "time": 303.3575226666661,
                    "velocity": 0.6220472440944882,
                    "duration": 0.29197066666665705
                },
                {
                    "name": "F6",
                    "midi": 89,
                    "time": 303.64949333333277,
                    "velocity": 0.6220472440944882,
                    "duration": 0.29197066666665705
                },
                {
                    "name": "D#6",
                    "midi": 87,
                    "time": 303.9414639999994,
                    "velocity": 0.6692913385826772,
                    "duration": 0.2189779999999928
                },
                {
                    "name": "C#6",
                    "midi": 85,
                    "time": 304.2334346666661,
                    "velocity": 0.6220472440944882,
                    "duration": 0.2189779999999928
                },
                {
                    "name": "C6",
                    "midi": 84,
                    "time": 304.52540533333274,
                    "velocity": 0.6220472440944882,
                    "duration": 0.2189779999999928
                },
                {
                    "name": "G#5",
                    "midi": 80,
                    "time": 304.8173759999994,
                    "velocity": 0.6220472440944882,
                    "duration": 1.751824000000056
                },
                {
                    "name": "A#5",
                    "midi": 82,
                    "time": 304.8173759999994,
                    "velocity": 0.6220472440944882,
                    "duration": 1.5328460000000064
                },
                {
                    "name": "A#5",
                    "midi": 82,
                    "time": 306.3502219999994,
                    "velocity": 0.5826771653543307,
                    "duration": 0.04379560000000993
                },
                {
                    "name": "C6",
                    "midi": 84,
                    "time": 306.3940175999994,
                    "velocity": 0.5354330708661418,
                    "duration": 0.04379560000000993
                },
                {
                    "name": "A#5",
                    "midi": 82,
                    "time": 306.4378131999994,
                    "velocity": 0.5826771653543307,
                    "duration": 0.04379560000000993
                },
                {
                    "name": "A5",
                    "midi": 81,
                    "time": 306.48160879999944,
                    "velocity": 0.5196850393700787,
                    "duration": 0.04379560000000993
                },
                {
                    "name": "A#5",
                    "midi": 82,
                    "time": 306.52540439999945,
                    "velocity": 0.5275590551181102,
                    "duration": 0.04379560000000993
                },
                {
                    "name": "G5",
                    "midi": 79,
                    "time": 306.56919999999946,
                    "velocity": 0.6220472440944882,
                    "duration": 1.7518239999999992
                },
                {
                    "name": "D#6",
                    "midi": 87,
                    "time": 306.56919999999946,
                    "velocity": 0.6220472440944882,
                    "duration": 1.5328460000000064
                },
                {
                    "name": "D#6",
                    "midi": 87,
                    "time": 308.10204599999946,
                    "velocity": 0.6220472440944882,
                    "duration": 0.2189779999999928
                },
                {
                    "name": "C5",
                    "midi": 72,
                    "time": 308.32102399999945,
                    "velocity": 0.5826771653543307,
                    "duration": 0.875912000000028
                },
                {
                    "name": "G#5",
                    "midi": 80,
                    "time": 308.32102399999945,
                    "velocity": 0.6692913385826772,
                    "duration": 0.875912000000028
                },
                {
                    "name": "D5",
                    "midi": 74,
                    "time": 310.36481866666617,
                    "velocity": 0.6220472440944882,
                    "duration": 0.29197066666665705
                },
                {
                    "name": "F5",
                    "midi": 77,
                    "time": 310.6567893333328,
                    "velocity": 0.6220472440944882,
                    "duration": 0.29197066666665705
                },
                {
                    "name": "D#5",
                    "midi": 75,
                    "time": 310.9487599999995,
                    "velocity": 0.6692913385826772,
                    "duration": 0.2189779999999928
                },
                {
                    "name": "C#5",
                    "midi": 73,
                    "time": 311.24073066666614,
                    "velocity": 0.6220472440944882,
                    "duration": 0.2189779999999928
                },
                {
                    "name": "C5",
                    "midi": 72,
                    "time": 311.5327013333328,
                    "velocity": 0.6220472440944882,
                    "duration": 0.2189779999999928
                },
                {
                    "name": "G#4",
                    "midi": 68,
                    "time": 311.82467199999945,
                    "velocity": 0.6220472440944882,
                    "duration": 1.751824000000056
                },
                {
                    "name": "A#4",
                    "midi": 70,
                    "time": 311.82467199999945,
                    "velocity": 0.6220472440944882,
                    "duration": 1.5328460000000064
                },
                {
                    "name": "A#4",
                    "midi": 70,
                    "time": 313.35751799999946,
                    "velocity": 0.5826771653543307,
                    "duration": 0.04379560000000993
                },
                {
                    "name": "C5",
                    "midi": 72,
                    "time": 313.40131359999947,
                    "velocity": 0.5354330708661418,
                    "duration": 0.04379560000000993
                },
                {
                    "name": "A#4",
                    "midi": 70,
                    "time": 313.4451091999995,
                    "velocity": 0.5826771653543307,
                    "duration": 0.04379560000000993
                },
                {
                    "name": "A4",
                    "midi": 69,
                    "time": 313.4889047999995,
                    "velocity": 0.5196850393700787,
                    "duration": 0.04379560000000993
                },
                {
                    "name": "A#4",
                    "midi": 70,
                    "time": 313.5327003999995,
                    "velocity": 0.5275590551181102,
                    "duration": 0.04379560000000993
                },
                {
                    "name": "G4",
                    "midi": 67,
                    "time": 313.5764959999995,
                    "velocity": 0.6220472440944882,
                    "duration": 1.7518239999999992
                },
                {
                    "name": "D#5",
                    "midi": 75,
                    "time": 313.5764959999995,
                    "velocity": 0.6220472440944882,
                    "duration": 1.5328460000000064
                },
                {
                    "name": "D#5",
                    "midi": 75,
                    "time": 315.1093419999995,
                    "velocity": 0.48031496062992124,
                    "duration": 0.2189779999999928
                },
                {
                    "name": "C4",
                    "midi": 60,
                    "time": 315.3283199999995,
                    "velocity": 0.23622047244094488,
                    "duration": 0.41605820000000904
                },
                {
                    "name": "D#4",
                    "midi": 63,
                    "time": 315.3283199999995,
                    "velocity": 0.23622047244094488,
                    "duration": 0.41605820000000904
                },
                {
                    "name": "G#4",
                    "midi": 68,
                    "time": 315.3283199999995,
                    "velocity": 0.3937007874015748,
                    "duration": 1.7518239999999992
                },
                {
                    "name": "C4",
                    "midi": 60,
                    "time": 315.7662759999995,
                    "velocity": 0.23622047244094488,
                    "duration": 0.8321164000000181
                },
                {
                    "name": "D#4",
                    "midi": 63,
                    "time": 315.7662759999995,
                    "velocity": 0.23622047244094488,
                    "duration": 0.8321164000000181
                },
                {
                    "name": "C4",
                    "midi": 60,
                    "time": 316.6421879999995,
                    "velocity": 0.23622047244094488,
                    "duration": 0.41605820000000904
                },
                {
                    "name": "D#4",
                    "midi": 63,
                    "time": 316.6421879999995,
                    "velocity": 0.23622047244094488,
                    "duration": 0.41605820000000904
                },
                {
                    "name": "C#4",
                    "midi": 61,
                    "time": 317.0801439999995,
                    "velocity": 0.23622047244094488,
                    "duration": 0.41605820000000904
                },
                {
                    "name": "D#4",
                    "midi": 63,
                    "time": 317.0801439999995,
                    "velocity": 0.23622047244094488,
                    "duration": 0.41605820000000904
                },
                {
                    "name": "C5",
                    "midi": 72,
                    "time": 317.0801439999995,
                    "velocity": 0.4251968503937008,
                    "duration": 1.3138680000000136
                },
                {
                    "name": "C#4",
                    "midi": 61,
                    "time": 317.5180999999995,
                    "velocity": 0.23622047244094488,
                    "duration": 0.8321164000000181
                },
                {
                    "name": "D#4",
                    "midi": 63,
                    "time": 317.5180999999995,
                    "velocity": 0.23622047244094488,
                    "duration": 0.8321164000000181
                },
                {
                    "name": "D#4",
                    "midi": 63,
                    "time": 318.3940119999995,
                    "velocity": 0.23622047244094488,
                    "duration": 0.41605820000000904
                },
                {
                    "name": "C#4",
                    "midi": 61,
                    "time": 318.3940119999995,
                    "velocity": 0.23622047244094488,
                    "duration": 0.41605820000000904
                },
                {
                    "name": "A#4",
                    "midi": 70,
                    "time": 318.3940119999995,
                    "velocity": 0.3543307086614173,
                    "duration": 0.4379559999999856
                },
                {
                    "name": "C4",
                    "midi": 60,
                    "time": 318.8319679999995,
                    "velocity": 0.23622047244094488,
                    "duration": 0.41605820000000904
                },
                {
                    "name": "D#4",
                    "midi": 63,
                    "time": 318.8319679999995,
                    "velocity": 0.23622047244094488,
                    "duration": 0.41605820000000904
                },
                {
                    "name": "G#4",
                    "midi": 68,
                    "time": 318.8319679999995,
                    "velocity": 0.3937007874015748,
                    "duration": 3.0656920000000696
                },
                {
                    "name": "C4",
                    "midi": 60,
                    "time": 319.2699239999995,
                    "velocity": 0.23622047244094488,
                    "duration": 0.8321164000000181
                },
                {
                    "name": "D#4",
                    "midi": 63,
                    "time": 319.2699239999995,
                    "velocity": 0.23622047244094488,
                    "duration": 0.8321164000000181
                },
                {
                    "name": "D#4",
                    "midi": 63,
                    "time": 320.1458359999995,
                    "velocity": 0.23622047244094488,
                    "duration": 0.8321164000000181
                },
                {
                    "name": "C4",
                    "midi": 60,
                    "time": 320.1458359999995,
                    "velocity": 0.23622047244094488,
                    "duration": 0.8321164000000181
                },
                {
                    "name": "C4",
                    "midi": 60,
                    "time": 321.02174799999955,
                    "velocity": 0.23622047244094488,
                    "duration": 0.8321164000000181
                },
                {
                    "name": "D#4",
                    "midi": 63,
                    "time": 321.02174799999955,
                    "velocity": 0.23622047244094488,
                    "duration": 0.8321164000000181
                },
                {
                    "name": "A4",
                    "midi": 69,
                    "time": 321.8976599999996,
                    "velocity": 0.3464566929133858,
                    "duration": 0.4379559999999856
                },
                {
                    "name": "C4",
                    "midi": 60,
                    "time": 321.8976599999996,
                    "velocity": 0.23622047244094488,
                    "duration": 0.41605820000000904
                },
                {
                    "name": "D#4",
                    "midi": 63,
                    "time": 321.8976599999996,
                    "velocity": 0.23622047244094488,
                    "duration": 0.41605820000000904
                },
                {
                    "name": "C#4",
                    "midi": 61,
                    "time": 322.33561599999956,
                    "velocity": 0.23622047244094488,
                    "duration": 0.41605820000000904
                },
                {
                    "name": "D#4",
                    "midi": 63,
                    "time": 322.33561599999956,
                    "velocity": 0.23622047244094488,
                    "duration": 0.41605820000000904
                },
                {
                    "name": "A#4",
                    "midi": 70,
                    "time": 322.33561599999956,
                    "velocity": 0.4094488188976378,
                    "duration": 1.3138680000000136
                },
                {
                    "name": "D#4",
                    "midi": 63,
                    "time": 322.77357199999955,
                    "velocity": 0.2755905511811024,
                    "duration": 0.8321164000000181
                },
                {
                    "name": "D#4",
                    "midi": 63,
                    "time": 323.6494839999996,
                    "velocity": 0.23622047244094488,
                    "duration": 0.8321163999999612
                },
                {
                    "name": "C5",
                    "midi": 72,
                    "time": 323.6494839999996,
                    "velocity": 0.3937007874015748,
                    "duration": 0.1094889999999964
                },
                {
                    "name": "A#4",
                    "midi": 70,
                    "time": 323.75897299999957,
                    "velocity": 0.36220472440944884,
                    "duration": 0.1094889999999964
                },
                {
                    "name": "A4",
                    "midi": 69,
                    "time": 323.86846199999957,
                    "velocity": 0.36220472440944884,
                    "duration": 0.1094889999999964
                },
                {
                    "name": "A#4",
                    "midi": 70,
                    "time": 323.97795099999956,
                    "velocity": 0.36220472440944884,
                    "duration": 0.1094889999999964
                },
                {
                    "name": "C#5",
                    "midi": 73,
                    "time": 324.08743999999956,
                    "velocity": 0.4251968503937008,
                    "duration": 1.3138680000000136
                },
                {
                    "name": "G#4",
                    "midi": 68,
                    "time": 324.08743999999956,
                    "velocity": 0.3543307086614173,
                    "duration": 1.3138680000000136
                },
                {
                    "name": "D#4",
                    "midi": 63,
                    "time": 324.52539599999955,
                    "velocity": 0.23622047244094488,
                    "duration": 0.8321164000000181
                },
                {
                    "name": "D#4",
                    "midi": 63,
                    "time": 325.4013079999996,
                    "velocity": 0.23622047244094488,
                    "duration": 0.8321163999999612
                },
                {
                    "name": "G#4",
                    "midi": 68,
                    "time": 325.4013079999996,
                    "velocity": 0.3543307086614173,
                    "duration": 0.4379559999999856
                },
                {
                    "name": "C5",
                    "midi": 72,
                    "time": 325.4013079999996,
                    "velocity": 0.3543307086614173,
                    "duration": 0.4379559999999856
                },
                {
                    "name": "G4",
                    "midi": 67,
                    "time": 325.83926399999956,
                    "velocity": 0.33070866141732286,
                    "duration": 3.503648000000055
                },
                {
                    "name": "A#4",
                    "midi": 70,
                    "time": 325.83926399999956,
                    "velocity": 0.3937007874015748,
                    "duration": 3.503648000000055
                },
                {
                    "name": "D#4",
                    "midi": 63,
                    "time": 326.27721999999955,
                    "velocity": 0.29133858267716534,
                    "duration": 0.8321164000000181
                },
                {
                    "name": "D#4",
                    "midi": 63,
                    "time": 327.1531319999996,
                    "velocity": 0.3228346456692913,
                    "duration": 0.8321164000000181
                },
                {
                    "name": "D#4",
                    "midi": 63,
                    "time": 328.0290439999996,
                    "velocity": 0.30708661417322836,
                    "duration": 0.8321164000000181
                },
                {
                    "name": "D#4",
                    "midi": 63,
                    "time": 328.90495599999963,
                    "velocity": 0.2677165354330709,
                    "duration": 0.8321163999999612
                },
                {
                    "name": "D#5",
                    "midi": 75,
                    "time": 329.3429119999996,
                    "velocity": 0.5196850393700787,
                    "duration": 1.7518239999999992
                },
                {
                    "name": "D#4",
                    "midi": 63,
                    "time": 329.7808679999996,
                    "velocity": 0.41732283464566927,
                    "duration": 0.8321164000000181
                },
                {
                    "name": "D#4",
                    "midi": 63,
                    "time": 330.6567799999996,
                    "velocity": 0.4094488188976378,
                    "duration": 0.8321163999999612
                },
                {
                    "name": "C#5",
                    "midi": 73,
                    "time": 331.0947359999996,
                    "velocity": 0.49606299212598426,
                    "duration": 1.7518239999999992
                },
                {
                    "name": "D#4",
                    "midi": 63,
                    "time": 331.5326919999996,
                    "velocity": 0.4015748031496063,
                    "duration": 0.8321164000000181
                },
                {
                    "name": "D#4",
                    "midi": 63,
                    "time": 332.4086039999996,
                    "velocity": 0.4094488188976378,
                    "duration": 0.8321163999999612
                },
                {
                    "name": "C5",
                    "midi": 72,
                    "time": 332.8465599999996,
                    "velocity": 0.5196850393700787,
                    "duration": 1.7518239999999992
                },
                {
                    "name": "D#4",
                    "midi": 63,
                    "time": 333.2845159999996,
                    "velocity": 0.3858267716535433,
                    "duration": 0.8321164000000181
                },
                {
                    "name": "E4",
                    "midi": 64,
                    "time": 334.1604279999996,
                    "velocity": 0.36220472440944884,
                    "duration": 0.8321163999999612
                },
                {
                    "name": "A#4",
                    "midi": 70,
                    "time": 334.5983839999996,
                    "velocity": 0.4566929133858268,
                    "duration": 0.8759119999999712
                },
                {
                    "name": "F4",
                    "midi": 65,
                    "time": 335.0363399999996,
                    "velocity": 0.4251968503937008,
                    "duration": 0.8321163999999612
                },
                {
                    "name": "C#5",
                    "midi": 73,
                    "time": 335.4742959999996,
                    "velocity": 0.5039370078740157,
                    "duration": 0.6569339999999784
                },
                {
                    "name": "F4",
                    "midi": 65,
                    "time": 335.91225199999957,
                    "velocity": 0.3937007874015748,
                    "duration": 0.8759119999999712
                },
                {
                    "name": "A#4",
                    "midi": 70,
                    "time": 336.13122999999956,
                    "velocity": 0.4330708661417323,
                    "duration": 0.2189779999999928
                },
                {
                    "name": "G#4",
                    "midi": 68,
                    "time": 336.35020799999955,
                    "velocity": 0.5196850393700787,
                    "duration": 1.7518239999999992
                },
                {
                    "name": "D#4",
                    "midi": 63,
                    "time": 336.78816399999954,
                    "velocity": 0.3700787401574803,
                    "duration": 0.8321164000000181
                },
                {
                    "name": "D#4",
                    "midi": 63,
                    "time": 337.66407599999957,
                    "velocity": 0.33858267716535434,
                    "duration": 0.8321163999999612
                },
                {
                    "name": "A4",
                    "midi": 69,
                    "time": 338.10203199999955,
                    "velocity": 0.4566929133858268,
                    "duration": 0.8759119999999712
                },
                {
                    "name": "D#4",
                    "midi": 63,
                    "time": 338.53998799999954,
                    "velocity": 0.3543307086614173,
                    "duration": 0.8321163999999612
                },
                {
                    "name": "A#4",
                    "midi": 70,
                    "time": 338.9779439999995,
                    "velocity": 0.4645669291338583,
                    "duration": 0.8759119999999712
                },
                {
                    "name": "D#4",
                    "midi": 63,
                    "time": 339.4158999999995,
                    "velocity": 0.3858267716535433,
                    "duration": 0.8321163999999612
                },
                {
                    "name": "B4",
                    "midi": 71,
                    "time": 339.8538559999995,
                    "velocity": 0.5039370078740157,
                    "duration": 0.8759119999999712
                },
                {
                    "name": "D#4",
                    "midi": 63,
                    "time": 340.2918119999995,
                    "velocity": 0.4330708661417323,
                    "duration": 0.8321163999999612
                },
                {
                    "name": "C4",
                    "midi": 60,
                    "time": 340.72976799999947,
                    "velocity": 0.4409448818897638,
                    "duration": 0.8759119999999712
                },
                {
                    "name": "C5",
                    "midi": 72,
                    "time": 340.72976799999947,
                    "velocity": 0.5275590551181102,
                    "duration": 0.8759119999999712
                },
                {
                    "name": "D#4",
                    "midi": 63,
                    "time": 341.16772399999945,
                    "velocity": 0.4330708661417323,
                    "duration": 0.8321163999999612
                },
                {
                    "name": "C#4",
                    "midi": 61,
                    "time": 341.60567999999944,
                    "velocity": 0.4645669291338583,
                    "duration": 0.8759119999999712
                },
                {
                    "name": "C#5",
                    "midi": 73,
                    "time": 341.60567999999944,
                    "velocity": 0.5511811023622047,
                    "duration": 0.8759119999999712
                },
                {
                    "name": "D#4",
                    "midi": 63,
                    "time": 342.0436359999994,
                    "velocity": 0.4566929133858268,
                    "duration": 0.8321163999999612
                },
                {
                    "name": "D4",
                    "midi": 62,
                    "time": 342.4815919999994,
                    "velocity": 0.4881889763779528,
                    "duration": 0.8759119999999712
                },
                {
                    "name": "D5",
                    "midi": 74,
                    "time": 342.4815919999994,
                    "velocity": 0.5748031496062992,
                    "duration": 0.8759119999999712
                },
                {
                    "name": "D#4",
                    "midi": 63,
                    "time": 342.9195479999994,
                    "velocity": 0.4881889763779528,
                    "duration": 0.41605820000000904
                },
                {
                    "name": "D#4",
                    "midi": 63,
                    "time": 343.3575039999994,
                    "velocity": 0.23622047244094488,
                    "duration": 0.8321164000000181
                },
                {
                    "name": "D#5",
                    "midi": 75,
                    "time": 343.3575039999994,
                    "velocity": 0.6062992125984252,
                    "duration": 1.751824000000056
                },
                {
                    "name": "D#4",
                    "midi": 63,
                    "time": 344.2334159999994,
                    "velocity": 0.4566929133858268,
                    "duration": 0.8321164000000181
                },
                {
                    "name": "C#4",
                    "midi": 61,
                    "time": 345.10932799999944,
                    "velocity": 0.23622047244094488,
                    "duration": 0.8321164000000181
                },
                {
                    "name": "D#4",
                    "midi": 63,
                    "time": 345.10932799999944,
                    "velocity": 0.23622047244094488,
                    "duration": 0.8321164000000181
                },
                {
                    "name": "C#5",
                    "midi": 73,
                    "time": 345.10932799999944,
                    "velocity": 0.5433070866141733,
                    "duration": 1.751824000000056
                },
                {
                    "name": "C#4",
                    "midi": 61,
                    "time": 345.98523999999946,
                    "velocity": 0.4566929133858268,
                    "duration": 0.8321164000000181
                },
                {
                    "name": "D#4",
                    "midi": 63,
                    "time": 345.98523999999946,
                    "velocity": 0.4566929133858268,
                    "duration": 0.8321164000000181
                },
                {
                    "name": "C4",
                    "midi": 60,
                    "time": 346.8611519999995,
                    "velocity": 0.23622047244094488,
                    "duration": 0.8321164000000181
                },
                {
                    "name": "D#4",
                    "midi": 63,
                    "time": 346.8611519999995,
                    "velocity": 0.23622047244094488,
                    "duration": 0.8321164000000181
                },
                {
                    "name": "C5",
                    "midi": 72,
                    "time": 346.8611519999995,
                    "velocity": 0.5118110236220472,
                    "duration": 1.751824000000056
                },
                {
                    "name": "C4",
                    "midi": 60,
                    "time": 347.7370639999995,
                    "velocity": 0.4094488188976378,
                    "duration": 0.8321164000000181
                },
                {
                    "name": "E4",
                    "midi": 64,
                    "time": 347.7370639999995,
                    "velocity": 0.4094488188976378,
                    "duration": 0.8321164000000181
                },
                {
                    "name": "F4",
                    "midi": 65,
                    "time": 348.61297599999955,
                    "velocity": 0.23622047244094488,
                    "duration": 1.3138679999999567
                },
                {
                    "name": "A#4",
                    "midi": 70,
                    "time": 348.61297599999955,
                    "velocity": 0.4881889763779528,
                    "duration": 0.4379559999999856
                },
                {
                    "name": "C5",
                    "midi": 72,
                    "time": 349.05093199999953,
                    "velocity": 0.5039370078740157,
                    "duration": 0.4379559999999856
                },
                {
                    "name": "C#5",
                    "midi": 73,
                    "time": 349.4888879999995,
                    "velocity": 0.5275590551181102,
                    "duration": 0.6569339999999784
                },
                {
                    "name": "F4",
                    "midi": 65,
                    "time": 349.9268439999995,
                    "velocity": 0.3858267716535433,
                    "duration": 0.4379559999999856
                },
                {
                    "name": "A#4",
                    "midi": 70,
                    "time": 350.1458219999995,
                    "velocity": 0.5433070866141733,
                    "duration": 0.2189779999999928
                },
                {
                    "name": "D#4",
                    "midi": 63,
                    "time": 350.3647999999995,
                    "velocity": 0.23622047244094488,
                    "duration": 2.6277359999999135
                },
                {
                    "name": "G#4",
                    "midi": 68,
                    "time": 350.3647999999995,
                    "velocity": 0.5511811023622047,
                    "duration": 0.8759119999999712
                },
                {
                    "name": "D#5",
                    "midi": 75,
                    "time": 350.8027559999995,
                    "velocity": 0.4566929133858268,
                    "duration": 0.8321163999999612
                },
                {
                    "name": "A4",
                    "midi": 69,
                    "time": 351.24071199999946,
                    "velocity": 0.5590551181102362,
                    "duration": 0.8759119999999712
                },
                {
                    "name": "D#5",
                    "midi": 75,
                    "time": 351.67866799999945,
                    "velocity": 0.4566929133858268,
                    "duration": 0.8321163999999612
                },
                {
                    "name": "A#4",
                    "midi": 70,
                    "time": 352.11662399999943,
                    "velocity": 0.5748031496062992,
                    "duration": 0.8759119999999712
                },
                {
                    "name": "D#5",
                    "midi": 75,
                    "time": 352.5545799999994,
                    "velocity": 0.33858267716535434,
                    "duration": 0.8321163999999612
                },
                {
                    "name": "G4",
                    "midi": 67,
                    "time": 352.9925359999994,
                    "velocity": 0.4015748031496063,
                    "duration": 0.8759119999999712
                },
                {
                    "name": "D#5",
                    "midi": 75,
                    "time": 353.4304919999994,
                    "velocity": 0.33858267716535434,
                    "duration": 0.4379559999999856
                },
                {
                    "name": "C4",
                    "midi": 60,
                    "time": 353.8684479999994,
                    "velocity": 0.23622047244094488,
                    "duration": 0.41605820000000904
                },
                {
                    "name": "D#4",
                    "midi": 63,
                    "time": 353.8684479999994,
                    "velocity": 0.23622047244094488,
                    "duration": 0.41605820000000904
                },
                {
                    "name": "G#4",
                    "midi": 68,
                    "time": 353.8684479999994,
                    "velocity": 0.44881889763779526,
                    "duration": 0.8759119999999712
                },
                {
                    "name": "D#4",
                    "midi": 63,
                    "time": 354.30640399999936,
                    "velocity": 0.23622047244094488,
                    "duration": 0.8321163999999612
                },
                {
                    "name": "D#4",
                    "midi": 63,
                    "time": 355.18231599999933,
                    "velocity": 0.23622047244094488,
                    "duration": 0.8321164000000181
                },
                {
                    "name": "D#4",
                    "midi": 63,
                    "time": 356.05822799999936,
                    "velocity": 0.23622047244094488,
                    "duration": 0.8321164000000181
                },
                {
                    "name": "D#4",
                    "midi": 63,
                    "time": 356.9341399999994,
                    "velocity": 0.23622047244094488,
                    "duration": 0.8321163999999612
                },
                {
                    "name": "A#4",
                    "midi": 70,
                    "time": 357.3720959999994,
                    "velocity": 0.44881889763779526,
                    "duration": 1.7518239999999992
                },
                {
                    "name": "C#5",
                    "midi": 73,
                    "time": 357.3720959999994,
                    "velocity": 0.44881889763779526,
                    "duration": 1.7518239999999992
                },
                {
                    "name": "D#4",
                    "midi": 63,
                    "time": 357.81005199999936,
                    "velocity": 0.23622047244094488,
                    "duration": 0.8321164000000181
                },
                {
                    "name": "D#4",
                    "midi": 63,
                    "time": 358.6859639999994,
                    "velocity": 0.23622047244094488,
                    "duration": 0.8321163999999612
                },
                {
                    "name": "A#4",
                    "midi": 70,
                    "time": 359.1239199999994,
                    "velocity": 0.44881889763779526,
                    "duration": 1.7518239999999992
                },
                {
                    "name": "C#5",
                    "midi": 73,
                    "time": 359.1239199999994,
                    "velocity": 0.44881889763779526,
                    "duration": 1.7518239999999992
                },
                {
                    "name": "D#4",
                    "midi": 63,
                    "time": 359.56187599999936,
                    "velocity": 0.23622047244094488,
                    "duration": 0.8321164000000181
                },
                {
                    "name": "D#4",
                    "midi": 63,
                    "time": 360.4377879999994,
                    "velocity": 0.23622047244094488,
                    "duration": 0.8321163999999612
                },
                {
                    "name": "G#4",
                    "midi": 68,
                    "time": 360.8757439999994,
                    "velocity": 0.48031496062992124,
                    "duration": 0.8759119999999712
                },
                {
                    "name": "C5",
                    "midi": 72,
                    "time": 360.8757439999994,
                    "velocity": 0.48031496062992124,
                    "duration": 0.8759119999999712
                },
                {
                    "name": "D#4",
                    "midi": 63,
                    "time": 361.31369999999936,
                    "velocity": 0.23622047244094488,
                    "duration": 0.8321163999999612
                },
                {
                    "name": "D#4",
                    "midi": 63,
                    "time": 362.18961199999933,
                    "velocity": 0.23622047244094488,
                    "duration": 0.8321164000000181
                },
                {
                    "name": "D#4",
                    "midi": 63,
                    "time": 363.06552399999936,
                    "velocity": 0.23622047244094488,
                    "duration": 0.8321164000000181
                },
                {
                    "name": "D#4",
                    "midi": 63,
                    "time": 363.9414359999994,
                    "velocity": 0.23622047244094488,
                    "duration": 0.8321163999999612
                },
                {
                    "name": "C#4",
                    "midi": 61,
                    "time": 364.37939199999937,
                    "velocity": 0.44881889763779526,
                    "duration": 1.7518239999999992
                },
                {
                    "name": "A#4",
                    "midi": 70,
                    "time": 364.37939199999937,
                    "velocity": 0.44881889763779526,
                    "duration": 1.7518239999999992
                },
                {
                    "name": "D#4",
                    "midi": 63,
                    "time": 364.81734799999936,
                    "velocity": 0.23622047244094488,
                    "duration": 0.8321164000000181
                },
                {
                    "name": "D#4",
                    "midi": 63,
                    "time": 365.6932599999994,
                    "velocity": 0.23622047244094488,
                    "duration": 0.8321163999999612
                },
                {
                    "name": "C#4",
                    "midi": 61,
                    "time": 366.13121599999937,
                    "velocity": 0.44881889763779526,
                    "duration": 1.7518239999999992
                },
                {
                    "name": "A#4",
                    "midi": 70,
                    "time": 366.13121599999937,
                    "velocity": 0.44881889763779526,
                    "duration": 1.7518239999999992
                },
                {
                    "name": "D#4",
                    "midi": 63,
                    "time": 366.56917199999936,
                    "velocity": 0.23622047244094488,
                    "duration": 0.8321164000000181
                },
                {
                    "name": "D#4",
                    "midi": 63,
                    "time": 367.4450839999994,
                    "velocity": 0.23622047244094488,
                    "duration": 0.4379559999999856
                },
                {
                    "name": "C4",
                    "midi": 60,
                    "time": 367.88303999999937,
                    "velocity": 0.1968503937007874,
                    "duration": 0.4379559999999856
                },
                {
                    "name": "G#4",
                    "midi": 68,
                    "time": 367.88303999999937,
                    "velocity": 0.44881889763779526,
                    "duration": 0.4379559999999856
                },
                {
                    "name": "D#4",
                    "midi": 63,
                    "time": 368.32099599999935,
                    "velocity": 0.23622047244094488,
                    "duration": 0.8321164000000181
                },
                {
                    "name": "D#3",
                    "midi": 51,
                    "time": 368.32099599999935,
                    "velocity": 0.1968503937007874,
                    "duration": 0.8321164000000181
                },
                {
                    "name": "D#4",
                    "midi": 63,
                    "time": 369.1969079999994,
                    "velocity": 0.23622047244094488,
                    "duration": 0.8321164000000181
                },
                {
                    "name": "D#3",
                    "midi": 51,
                    "time": 369.1969079999994,
                    "velocity": 0.1968503937007874,
                    "duration": 0.8321164000000181
                },
                {
                    "name": "D#4",
                    "midi": 63,
                    "time": 370.0728199999994,
                    "velocity": 0.23622047244094488,
                    "duration": 0.8321163999999612
                },
                {
                    "name": "D#3",
                    "midi": 51,
                    "time": 370.0728199999994,
                    "velocity": 0.1968503937007874,
                    "duration": 0.8321163999999612
                },
                {
                    "name": "G#3",
                    "midi": 56,
                    "time": 370.5107759999994,
                    "velocity": 0.33070866141732286,
                    "duration": 0.8759119999999712
                },
                {
                    "name": "C4",
                    "midi": 60,
                    "time": 370.5107759999994,
                    "velocity": 0.3937007874015748,
                    "duration": 0.8759119999999712
                },
                {
                    "name": "D#4",
                    "midi": 63,
                    "time": 370.9487319999994,
                    "velocity": 0.23622047244094488,
                    "duration": 0.8321163999999612
                },
                {
                    "name": "D#3",
                    "midi": 51,
                    "time": 370.9487319999994,
                    "velocity": 0.1968503937007874,
                    "duration": 0.8321163999999612
                },
                {
                    "name": "A#3",
                    "midi": 58,
                    "time": 371.38668799999937,
                    "velocity": 0.3779527559055118,
                    "duration": 0.8759119999999712
                },
                {
                    "name": "C#4",
                    "midi": 61,
                    "time": 371.38668799999937,
                    "velocity": 0.44881889763779526,
                    "duration": 0.8759119999999712
                },
                {
                    "name": "D#4",
                    "midi": 63,
                    "time": 371.82464399999935,
                    "velocity": 0.23622047244094488,
                    "duration": 0.8759119999999712
                },
                {
                    "name": "D#3",
                    "midi": 51,
                    "time": 371.82464399999935,
                    "velocity": 0.1968503937007874,
                    "duration": 0.8759119999999712
                },
                {
                    "name": "D#4",
                    "midi": 63,
                    "time": 372.7005559999993,
                    "velocity": 0.23622047244094488,
                    "duration": 0.8321163999999612
                },
                {
                    "name": "D#3",
                    "midi": 51,
                    "time": 372.7005559999993,
                    "velocity": 0.1968503937007874,
                    "duration": 0.8321163999999612
                },
                {
                    "name": "A#3",
                    "midi": 58,
                    "time": 373.1385119999993,
                    "velocity": 0.3779527559055118,
                    "duration": 0.8759119999999712
                },
                {
                    "name": "C#4",
                    "midi": 61,
                    "time": 373.1385119999993,
                    "velocity": 0.3779527559055118,
                    "duration": 0.8759119999999712
                },
                {
                    "name": "D#4",
                    "midi": 63,
                    "time": 373.5764679999993,
                    "velocity": 0.23622047244094488,
                    "duration": 0.8759119999999712
                },
                {
                    "name": "D#3",
                    "midi": 51,
                    "time": 373.5764679999993,
                    "velocity": 0.1968503937007874,
                    "duration": 0.8759119999999712
                },
                {
                    "name": "D#4",
                    "midi": 63,
                    "time": 374.45237999999927,
                    "velocity": 0.23622047244094488,
                    "duration": 0.8321163999999612
                },
                {
                    "name": "D#3",
                    "midi": 51,
                    "time": 374.45237999999927,
                    "velocity": 0.1968503937007874,
                    "duration": 0.8321163999999612
                },
                {
                    "name": "G#3",
                    "midi": 56,
                    "time": 374.89033599999925,
                    "velocity": 0.4015748031496063,
                    "duration": 0.4160581999999522
                },
                {
                    "name": "C4",
                    "midi": 60,
                    "time": 374.89033599999925,
                    "velocity": 0.4015748031496063,
                    "duration": 0.4160581999999522
                },
                {
                    "name": "D#4",
                    "midi": 63,
                    "time": 375.3282919999992,
                    "velocity": 0.23622047244094488,
                    "duration": 0.8321164000000181
                },
                {
                    "name": "C4",
                    "midi": 60,
                    "time": 375.3282919999992,
                    "velocity": 0.1968503937007874,
                    "duration": 0.8321164000000181
                },
                {
                    "name": "G#3",
                    "midi": 56,
                    "time": 375.3282919999992,
                    "velocity": 0.1968503937007874,
                    "duration": 0.8321164000000181
                },
                {
                    "name": "D#3",
                    "midi": 51,
                    "time": 375.3282919999992,
                    "velocity": 0.1968503937007874,
                    "duration": 0.8321164000000181
                },
                {
                    "name": "D#4",
                    "midi": 63,
                    "time": 376.2042039999992,
                    "velocity": 0.2283464566929134,
                    "duration": 0.8321164000000181
                },
                {
                    "name": "C4",
                    "midi": 60,
                    "time": 376.2042039999992,
                    "velocity": 0.1889763779527559,
                    "duration": 0.8321164000000181
                },
                {
                    "name": "G#3",
                    "midi": 56,
                    "time": 376.2042039999992,
                    "velocity": 0.1889763779527559,
                    "duration": 0.8321164000000181
                },
                {
                    "name": "D#3",
                    "midi": 51,
                    "time": 376.2042039999992,
                    "velocity": 0.1889763779527559,
                    "duration": 0.8321164000000181
                },
                {
                    "name": "D#4",
                    "midi": 63,
                    "time": 377.08011599999924,
                    "velocity": 0.2204724409448819,
                    "duration": 0.8321164000000181
                },
                {
                    "name": "C4",
                    "midi": 60,
                    "time": 377.08011599999924,
                    "velocity": 0.1889763779527559,
                    "duration": 0.8321164000000181
                },
                {
                    "name": "G#3",
                    "midi": 56,
                    "time": 377.08011599999924,
                    "velocity": 0.1889763779527559,
                    "duration": 0.8321164000000181
                },
                {
                    "name": "D#3",
                    "midi": 51,
                    "time": 377.08011599999924,
                    "velocity": 0.1889763779527559,
                    "duration": 0.8321164000000181
                },
                {
                    "name": "D#4",
                    "midi": 63,
                    "time": 377.95602799999926,
                    "velocity": 0.2204724409448819,
                    "duration": 0.8321164000000181
                },
                {
                    "name": "G#3",
                    "midi": 56,
                    "time": 377.95602799999926,
                    "velocity": 0.18110236220472442,
                    "duration": 0.8321164000000181
                },
                {
                    "name": "D#3",
                    "midi": 51,
                    "time": 377.95602799999926,
                    "velocity": 0.18110236220472442,
                    "duration": 0.8321164000000181
                },
                {
                    "name": "C4",
                    "midi": 60,
                    "time": 377.95602799999926,
                    "velocity": 0.18110236220472442,
                    "duration": 0.8321164000000181
                },
                {
                    "name": "C4",
                    "midi": 60,
                    "time": 378.8319399999993,
                    "velocity": 0.2125984251968504,
                    "duration": 0.8321164000000181
                },
                {
                    "name": "G#3",
                    "midi": 56,
                    "time": 378.8319399999993,
                    "velocity": 0.18110236220472442,
                    "duration": 0.8321164000000181
                },
                {
                    "name": "D#3",
                    "midi": 51,
                    "time": 378.8319399999993,
                    "velocity": 0.18110236220472442,
                    "duration": 0.8321164000000181
                },
                {
                    "name": "C4",
                    "midi": 60,
                    "time": 379.7078519999993,
                    "velocity": 0.2125984251968504,
                    "duration": 0.8321164000000181
                },
                {
                    "name": "G#3",
                    "midi": 56,
                    "time": 379.7078519999993,
                    "velocity": 0.1732283464566929,
                    "duration": 0.8321164000000181
                },
                {
                    "name": "D#3",
                    "midi": 51,
                    "time": 379.7078519999993,
                    "velocity": 0.1732283464566929,
                    "duration": 0.8321164000000181
                },
                {
                    "name": "C4",
                    "midi": 60,
                    "time": 380.58376399999935,
                    "velocity": 0.2047244094488189,
                    "duration": 0.8321164000000181
                },
                {
                    "name": "G#3",
                    "midi": 56,
                    "time": 380.58376399999935,
                    "velocity": 0.1732283464566929,
                    "duration": 0.8321164000000181
                },
                {
                    "name": "D#3",
                    "midi": 51,
                    "time": 380.58376399999935,
                    "velocity": 0.1732283464566929,
                    "duration": 0.8321164000000181
                },
                {
                    "name": "C4",
                    "midi": 60,
                    "time": 381.4596759999994,
                    "velocity": 0.2047244094488189,
                    "duration": 0.8321164000000181
                },
                {
                    "name": "G#3",
                    "midi": 56,
                    "time": 381.4596759999994,
                    "velocity": 0.16535433070866143,
                    "duration": 0.8321164000000181
                },
                {
                    "name": "D#3",
                    "midi": 51,
                    "time": 381.4596759999994,
                    "velocity": 0.16535433070866143,
                    "duration": 0.8321164000000181
                },
                {
                    "name": "G#3",
                    "midi": 56,
                    "time": 382.3355879999994,
                    "velocity": 0.1968503937007874,
                    "duration": 0.8321164000000181
                },
                {
                    "name": "D#3",
                    "midi": 51,
                    "time": 382.3355879999994,
                    "velocity": 0.16535433070866143,
                    "duration": 0.8321164000000181
                },
                {
                    "name": "C3",
                    "midi": 48,
                    "time": 382.3355879999994,
                    "velocity": 0.16535433070866143,
                    "duration": 0.8321164000000181
                },
                {
                    "name": "G#3",
                    "midi": 56,
                    "time": 383.21149999999943,
                    "velocity": 0.1889763779527559,
                    "duration": 0.8321164000000181
                },
                {
                    "name": "D#3",
                    "midi": 51,
                    "time": 383.21149999999943,
                    "velocity": 0.15748031496062992,
                    "duration": 0.8321164000000181
                },
                {
                    "name": "C3",
                    "midi": 48,
                    "time": 383.21149999999943,
                    "velocity": 0.15748031496062992,
                    "duration": 0.8321164000000181
                },
                {
                    "name": "G#3",
                    "midi": 56,
                    "time": 384.08741199999946,
                    "velocity": 0.1889763779527559,
                    "duration": 0.8321164000000181
                },
                {
                    "name": "D#3",
                    "midi": 51,
                    "time": 384.08741199999946,
                    "velocity": 0.15748031496062992,
                    "duration": 0.8321164000000181
                },
                {
                    "name": "C3",
                    "midi": 48,
                    "time": 384.08741199999946,
                    "velocity": 0.15748031496062992,
                    "duration": 0.8321164000000181
                },
                {
                    "name": "G#3",
                    "midi": 56,
                    "time": 384.9633239999995,
                    "velocity": 0.18110236220472442,
                    "duration": 0.875912000000028
                },
                {
                    "name": "D#3",
                    "midi": 51,
                    "time": 384.9633239999995,
                    "velocity": 0.14960629921259844,
                    "duration": 0.875912000000028
                },
                {
                    "name": "C3",
                    "midi": 48,
                    "time": 384.9633239999995,
                    "velocity": 0.14960629921259844,
                    "duration": 0.875912000000028
                },
                {
                    "name": "C3",
                    "midi": 48,
                    "time": 387.15310399999953,
                    "velocity": 0.1732283464566929,
                    "duration": 0.875912000000028
                },
                {
                    "name": "D#3",
                    "midi": 51,
                    "time": 387.15310399999953,
                    "velocity": 0.2125984251968504,
                    "duration": 0.875912000000028
                },
                {
                    "name": "G#2",
                    "midi": 44,
                    "time": 388.9049279999996,
                    "velocity": 0.14960629921259844,
                    "duration": 3.5036479999999983
                },
                {
                    "name": "C3",
                    "midi": 48,
                    "time": 388.9049279999996,
                    "velocity": 0.18110236220472442,
                    "duration": 3.5036479999999983
                }
            ],
            "controlChanges": {},
            "id": 1,
            "name": "Piano right",
            "instrumentNumber": 0,
            "instrument": "acoustic grand piano",
            "instrumentFamily": "piano",
            "channelNumber": 0,
            "isPercussion": false
        },
        {
            "startTime": 0,
            "duration": 392.40857600000146,
            "length": 701,
            "notes": [
                {
                    "name": "G#2",
                    "midi": 44,
                    "time": 0,
                    "velocity": 0.2125984251968504,
                    "duration": 1.7518239999999998
                },
                {
                    "name": "D#3",
                    "midi": 51,
                    "time": 0,
                    "velocity": 0.2125984251968504,
                    "duration": 1.7518239999999998
                },
                {
                    "name": "G#3",
                    "midi": 56,
                    "time": 0,
                    "velocity": 0.25196850393700787,
                    "duration": 1.7518239999999998
                },
                {
                    "name": "G2",
                    "midi": 43,
                    "time": 1.7518239999999998,
                    "velocity": 0.1889763779527559,
                    "duration": 1.7518239999999998
                },
                {
                    "name": "D#3",
                    "midi": 51,
                    "time": 1.7518239999999998,
                    "velocity": 0.1889763779527559,
                    "duration": 1.7518239999999998
                },
                {
                    "name": "G3",
                    "midi": 55,
                    "time": 1.7518239999999998,
                    "velocity": 0.2283464566929134,
                    "duration": 1.7518239999999998
                },
                {
                    "name": "G#2",
                    "midi": 44,
                    "time": 3.5036479999999997,
                    "velocity": 0.23622047244094488,
                    "duration": 2.627735999999999
                },
                {
                    "name": "D#3",
                    "midi": 51,
                    "time": 3.5036479999999997,
                    "velocity": 0.23622047244094488,
                    "duration": 2.627735999999999
                },
                {
                    "name": "G#3",
                    "midi": 56,
                    "time": 3.5036479999999997,
                    "velocity": 0.28346456692913385,
                    "duration": 2.627735999999999
                },
                {
                    "name": "G3",
                    "midi": 55,
                    "time": 7.007295999999998,
                    "velocity": 0.2125984251968504,
                    "duration": 1.7518239999999992
                },
                {
                    "name": "C#4",
                    "midi": 61,
                    "time": 7.007295999999998,
                    "velocity": 0.25196850393700787,
                    "duration": 0.8759119999999996
                },
                {
                    "name": "A#3",
                    "midi": 58,
                    "time": 7.883207999999998,
                    "velocity": 0.25196850393700787,
                    "duration": 0.8759119999999996
                },
                {
                    "name": "G#3",
                    "midi": 56,
                    "time": 8.759119999999998,
                    "velocity": 0.2283464566929134,
                    "duration": 1.7518239999999992
                },
                {
                    "name": "C4",
                    "midi": 60,
                    "time": 9.635031999999997,
                    "velocity": 0.25196850393700787,
                    "duration": 0.8759119999999996
                },
                {
                    "name": "D#3",
                    "midi": 51,
                    "time": 10.510943999999997,
                    "velocity": 0.23622047244094488,
                    "duration": 2.6277360000000005
                },
                {
                    "name": "D#4",
                    "midi": 63,
                    "time": 10.510943999999997,
                    "velocity": 0.28346456692913385,
                    "duration": 2.6277360000000005
                },
                {
                    "name": "G#3",
                    "midi": 56,
                    "time": 14.014591999999997,
                    "velocity": 0.25196850393700787,
                    "duration": 1.7518239999999992
                },
                {
                    "name": "C3",
                    "midi": 48,
                    "time": 15.766415999999996,
                    "velocity": 0.29133858267716534,
                    "duration": 1.7518239999999992
                },
                {
                    "name": "C4",
                    "midi": 60,
                    "time": 15.766415999999996,
                    "velocity": 0.29133858267716534,
                    "duration": 1.7518239999999992
                },
                {
                    "name": "G#3",
                    "midi": 56,
                    "time": 15.766415999999996,
                    "velocity": 0.29133858267716534,
                    "duration": 1.7518239999999992
                },
                {
                    "name": "C#3",
                    "midi": 49,
                    "time": 17.518239999999995,
                    "velocity": 0.3543307086614173,
                    "duration": 1.7518239999999992
                },
                {
                    "name": "G#3",
                    "midi": 56,
                    "time": 17.518239999999995,
                    "velocity": 0.3543307086614173,
                    "duration": 1.7518239999999992
                },
                {
                    "name": "C#4",
                    "midi": 61,
                    "time": 17.518239999999995,
                    "velocity": 0.3543307086614173,
                    "duration": 1.7518239999999992
                },
                {
                    "name": "F3",
                    "midi": 53,
                    "time": 19.270063999999994,
                    "velocity": 0.3228346456692913,
                    "duration": 3.5036480000000054
                },
                {
                    "name": "G#3",
                    "midi": 56,
                    "time": 19.324808499999996,
                    "velocity": 0.3543307086614173,
                    "duration": 3.4489035000000037
                },
                {
                    "name": "C#4",
                    "midi": 61,
                    "time": 19.379552999999998,
                    "velocity": 0.3858267716535433,
                    "duration": 3.394159000000002
                },
                {
                    "name": "F4",
                    "midi": 65,
                    "time": 19.4342975,
                    "velocity": 0.41732283464566927,
                    "duration": 3.3394145
                },
                {
                    "name": "G3",
                    "midi": 55,
                    "time": 22.773712,
                    "velocity": 0.2440944881889764,
                    "duration": 0.8759119999999996
                },
                {
                    "name": "D#4",
                    "midi": 63,
                    "time": 22.773712,
                    "velocity": 0.29133858267716534,
                    "duration": 0.8759119999999996
                },
                {
                    "name": "D#4",
                    "midi": 63,
                    "time": 23.649624,
                    "velocity": 0.2677165354330709,
                    "duration": 0.8759119999999996
                },
                {
                    "name": "G#3",
                    "midi": 56,
                    "time": 23.649624,
                    "velocity": 0.2204724409448819,
                    "duration": 0.8759119999999996
                },
                {
                    "name": "C4",
                    "midi": 60,
                    "time": 24.525536,
                    "velocity": 0.29133858267716534,
                    "duration": 1.3138679999999994
                },
                {
                    "name": "D#3",
                    "midi": 51,
                    "time": 24.525536,
                    "velocity": 0.2440944881889764,
                    "duration": 1.7518239999999992
                },
                {
                    "name": "G#3",
                    "midi": 56,
                    "time": 25.839404,
                    "velocity": 0.2440944881889764,
                    "duration": 0.4379559999999998
                },
                {
                    "name": "D#3",
                    "midi": 51,
                    "time": 26.277359999999998,
                    "velocity": 0.2047244094488189,
                    "duration": 0.8759119999999996
                },
                {
                    "name": "G3",
                    "midi": 55,
                    "time": 26.277359999999998,
                    "velocity": 0.2440944881889764,
                    "duration": 0.8759119999999996
                },
                {
                    "name": "G#2",
                    "midi": 44,
                    "time": 28.029183999999997,
                    "velocity": 0.28346456692913385,
                    "duration": 1.7518239999999992
                },
                {
                    "name": "D#3",
                    "midi": 51,
                    "time": 28.467139999999997,
                    "velocity": 0.2204724409448819,
                    "duration": 0.4160581999999984
                },
                {
                    "name": "D#3",
                    "midi": 51,
                    "time": 28.905095999999997,
                    "velocity": 0.2283464566929134,
                    "duration": 0.4160581999999984
                },
                {
                    "name": "D#3",
                    "midi": 51,
                    "time": 29.343051999999997,
                    "velocity": 0.2283464566929134,
                    "duration": 0.4379559999999998
                },
                {
                    "name": "G2",
                    "midi": 43,
                    "time": 29.781007999999996,
                    "velocity": 0.28346456692913385,
                    "duration": 1.7518239999999992
                },
                {
                    "name": "D#3",
                    "midi": 51,
                    "time": 30.218963999999996,
                    "velocity": 0.2204724409448819,
                    "duration": 0.4160581999999984
                },
                {
                    "name": "D#3",
                    "midi": 51,
                    "time": 30.656919999999996,
                    "velocity": 0.2204724409448819,
                    "duration": 0.4160581999999984
                },
                {
                    "name": "D#3",
                    "midi": 51,
                    "time": 31.094875999999996,
                    "velocity": 0.2204724409448819,
                    "duration": 0.4379559999999998
                },
                {
                    "name": "G#2",
                    "midi": 44,
                    "time": 31.532831999999996,
                    "velocity": 0.28346456692913385,
                    "duration": 0.4379559999999998
                },
                {
                    "name": "D#3",
                    "midi": 51,
                    "time": 31.970787999999995,
                    "velocity": 0.25196850393700787,
                    "duration": 0.43795600000000334
                },
                {
                    "name": "C3",
                    "midi": 48,
                    "time": 32.408744,
                    "velocity": 0.28346456692913385,
                    "duration": 0.4379559999999998
                },
                {
                    "name": "G#3",
                    "midi": 56,
                    "time": 32.8467,
                    "velocity": 0.25196850393700787,
                    "duration": 0.4379559999999998
                },
                {
                    "name": "D#3",
                    "midi": 51,
                    "time": 33.284656,
                    "velocity": 0.31496062992125984,
                    "duration": 0.4379559999999998
                },
                {
                    "name": "C4",
                    "midi": 60,
                    "time": 33.722612,
                    "velocity": 0.28346456692913385,
                    "duration": 0.4379559999999998
                },
                {
                    "name": "G#3",
                    "midi": 56,
                    "time": 34.160568,
                    "velocity": 0.3700787401574803,
                    "duration": 0.4379559999999998
                },
                {
                    "name": "D#4",
                    "midi": 63,
                    "time": 34.598524,
                    "velocity": 0.28346456692913385,
                    "duration": 0.4379559999999998
                },
                {
                    "name": "G3",
                    "midi": 55,
                    "time": 35.03648,
                    "velocity": 0.3543307086614173,
                    "duration": 1.7518239999999992
                },
                {
                    "name": "D#4",
                    "midi": 63,
                    "time": 35.474436,
                    "velocity": 0.2283464566929134,
                    "duration": 0.41605820000000193
                },
                {
                    "name": "D#4",
                    "midi": 63,
                    "time": 35.912392,
                    "velocity": 0.2283464566929134,
                    "duration": 0.41605820000000193
                },
                {
                    "name": "D#4",
                    "midi": 63,
                    "time": 36.350348,
                    "velocity": 0.2283464566929134,
                    "duration": 0.4379559999999998
                },
                {
                    "name": "G#3",
                    "midi": 56,
                    "time": 36.788304,
                    "velocity": 0.28346456692913385,
                    "duration": 1.7518239999999992
                },
                {
                    "name": "D#4",
                    "midi": 63,
                    "time": 37.226259999999996,
                    "velocity": 0.2283464566929134,
                    "duration": 0.41605820000000193
                },
                {
                    "name": "D#4",
                    "midi": 63,
                    "time": 37.664215999999996,
                    "velocity": 0.2283464566929134,
                    "duration": 0.41605820000000193
                },
                {
                    "name": "D#4",
                    "midi": 63,
                    "time": 38.102171999999996,
                    "velocity": 0.2283464566929134,
                    "duration": 0.4379559999999998
                },
                {
                    "name": "D#3",
                    "midi": 51,
                    "time": 38.540127999999996,
                    "velocity": 0.3228346456692913,
                    "duration": 0.4379559999999998
                },
                {
                    "name": "D#4",
                    "midi": 63,
                    "time": 38.978083999999996,
                    "velocity": 0.25196850393700787,
                    "duration": 0.4379559999999998
                },
                {
                    "name": "D4",
                    "midi": 62,
                    "time": 39.416039999999995,
                    "velocity": 0.25984251968503935,
                    "duration": 0.4379559999999998
                },
                {
                    "name": "D#4",
                    "midi": 63,
                    "time": 39.853995999999995,
                    "velocity": 0.25984251968503935,
                    "duration": 0.4379559999999998
                },
                {
                    "name": "D4",
                    "midi": 62,
                    "time": 40.291951999999995,
                    "velocity": 0.28346456692913385,
                    "duration": 0.4379559999999998
                },
                {
                    "name": "D#4",
                    "midi": 63,
                    "time": 40.729907999999995,
                    "velocity": 0.2440944881889764,
                    "duration": 0.4379559999999998
                },
                {
                    "name": "F4",
                    "midi": 65,
                    "time": 41.167863999999994,
                    "velocity": 0.28346456692913385,
                    "duration": 0.4379559999999998
                },
                {
                    "name": "C#4",
                    "midi": 61,
                    "time": 41.605819999999994,
                    "velocity": 0.25984251968503935,
                    "duration": 0.4379559999999998
                },
                {
                    "name": "G#3",
                    "midi": 56,
                    "time": 42.481731999999994,
                    "velocity": 0.25196850393700787,
                    "duration": 0.4379559999999998
                },
                {
                    "name": "C4",
                    "midi": 60,
                    "time": 42.919687999999994,
                    "velocity": 0.25196850393700787,
                    "duration": 0.4379559999999998
                },
                {
                    "name": "D#4",
                    "midi": 63,
                    "time": 43.35764399999999,
                    "velocity": 0.2283464566929134,
                    "duration": 0.3649633333333355
                },
                {
                    "name": "C3",
                    "midi": 48,
                    "time": 44.23355599999999,
                    "velocity": 0.25196850393700787,
                    "duration": 0.4379559999999998
                },
                {
                    "name": "D#3",
                    "midi": 51,
                    "time": 44.67151199999999,
                    "velocity": 0.25196850393700787,
                    "duration": 0.4379559999999998
                },
                {
                    "name": "G#3",
                    "midi": 56,
                    "time": 45.10946799999999,
                    "velocity": 0.23622047244094488,
                    "duration": 0.4379559999999998
                },
                {
                    "name": "C#3",
                    "midi": 49,
                    "time": 45.98537999999999,
                    "velocity": 0.2992125984251969,
                    "duration": 3.0656919999999985
                },
                {
                    "name": "F3",
                    "midi": 53,
                    "time": 45.98537999999999,
                    "velocity": 0.2992125984251969,
                    "duration": 0.45985379999999765
                },
                {
                    "name": "G3",
                    "midi": 55,
                    "time": 46.42333599999999,
                    "velocity": 0.33070866141732286,
                    "duration": 0.45985379999999765
                },
                {
                    "name": "G#3",
                    "midi": 56,
                    "time": 46.86129199999999,
                    "velocity": 0.3543307086614173,
                    "duration": 0.45985379999999765
                },
                {
                    "name": "A3",
                    "midi": 57,
                    "time": 47.29924799999999,
                    "velocity": 0.3858267716535433,
                    "duration": 0.45985379999999765
                },
                {
                    "name": "A#3",
                    "midi": 58,
                    "time": 47.73720399999999,
                    "velocity": 0.4094488188976378,
                    "duration": 0.45985379999999765
                },
                {
                    "name": "C4",
                    "midi": 60,
                    "time": 48.17515999999999,
                    "velocity": 0.3779527559055118,
                    "duration": 0.45985379999999765
                },
                {
                    "name": "C#4",
                    "midi": 61,
                    "time": 48.61311599999999,
                    "velocity": 0.4015748031496063,
                    "duration": 0.45985379999999765
                },
                {
                    "name": "D#3",
                    "midi": 51,
                    "time": 49.05107199999999,
                    "velocity": 0.25196850393700787,
                    "duration": 1.7518239999999992
                },
                {
                    "name": "D#4",
                    "midi": 63,
                    "time": 49.05107199999999,
                    "velocity": 0.4015748031496063,
                    "duration": 0.4379559999999998
                },
                {
                    "name": "D4",
                    "midi": 62,
                    "time": 49.48902799999999,
                    "velocity": 0.3543307086614173,
                    "duration": 0.4379559999999998
                },
                {
                    "name": "C#4",
                    "midi": 61,
                    "time": 49.92698399999999,
                    "velocity": 0.36220472440944884,
                    "duration": 0.4379559999999998
                },
                {
                    "name": "C4",
                    "midi": 60,
                    "time": 50.36493999999999,
                    "velocity": 0.36220472440944884,
                    "duration": 0.4379559999999998
                },
                {
                    "name": "D#3",
                    "midi": 51,
                    "time": 50.80289599999999,
                    "velocity": 0.25196850393700787,
                    "duration": 1.7518239999999992
                },
                {
                    "name": "A#3",
                    "midi": 58,
                    "time": 50.80289599999999,
                    "velocity": 0.4015748031496063,
                    "duration": 0.4379559999999998
                },
                {
                    "name": "C4",
                    "midi": 60,
                    "time": 51.24085199999999,
                    "velocity": 0.3464566929133858,
                    "duration": 0.4379559999999998
                },
                {
                    "name": "C#4",
                    "midi": 61,
                    "time": 51.67880799999999,
                    "velocity": 0.3464566929133858,
                    "duration": 0.4379559999999998
                },
                {
                    "name": "G3",
                    "midi": 55,
                    "time": 52.11676399999999,
                    "velocity": 0.3464566929133858,
                    "duration": 0.4197078333333337
                },
                {
                    "name": "G#2",
                    "midi": 44,
                    "time": 52.55471999999999,
                    "velocity": 0.25196850393700787,
                    "duration": 2.6277359999999987
                },
                {
                    "name": "G3",
                    "midi": 55,
                    "time": 52.55471999999999,
                    "velocity": 0.4015748031496063,
                    "duration": 1.7518239999999992
                },
                {
                    "name": "G#3",
                    "midi": 56,
                    "time": 54.30654399999999,
                    "velocity": 0.2440944881889764,
                    "duration": 0.8759119999999996
                },
                {
                    "name": "D#4",
                    "midi": 63,
                    "time": 56.05836799999999,
                    "velocity": 0.5984251968503937,
                    "duration": 1.7518239999999992
                },
                {
                    "name": "F4",
                    "midi": 65,
                    "time": 56.05836799999999,
                    "velocity": 0.5984251968503937,
                    "duration": 1.7481743666666674
                },
                {
                    "name": "C4",
                    "midi": 60,
                    "time": 56.05836799999999,
                    "velocity": 0.5984251968503937,
                    "duration": 1.7518239999999992
                },
                {
                    "name": "A3",
                    "midi": 57,
                    "time": 56.05836799999999,
                    "velocity": 0.5984251968503937,
                    "duration": 1.7518239999999992
                },
                {
                    "name": "A2",
                    "midi": 45,
                    "time": 59.343037999999986,
                    "velocity": 0.23622047244094488,
                    "duration": 0.20072983333333383
                },
                {
                    "name": "F3",
                    "midi": 53,
                    "time": 59.343037999999986,
                    "velocity": 0.28346456692913385,
                    "duration": 0.20072983333333383
                },
                {
                    "name": "A#2",
                    "midi": 46,
                    "time": 59.562015999999986,
                    "velocity": 0.2755905511811024,
                    "duration": 2.6277359999999987
                },
                {
                    "name": "F3",
                    "midi": 53,
                    "time": 59.562015999999986,
                    "velocity": 0.3228346456692913,
                    "duration": 2.6277359999999987
                },
                {
                    "name": "C#4",
                    "midi": 61,
                    "time": 63.065663999999984,
                    "velocity": 0.5984251968503937,
                    "duration": 1.7518239999999992
                },
                {
                    "name": "D#4",
                    "midi": 63,
                    "time": 63.065663999999984,
                    "velocity": 0.5984251968503937,
                    "duration": 1.7481743666666603
                },
                {
                    "name": "A#3",
                    "midi": 58,
                    "time": 63.065663999999984,
                    "velocity": 0.5984251968503937,
                    "duration": 1.7518239999999992
                },
                {
                    "name": "G3",
                    "midi": 55,
                    "time": 63.065663999999984,
                    "velocity": 0.5984251968503937,
                    "duration": 1.7518239999999992
                },
                {
                    "name": "G2",
                    "midi": 43,
                    "time": 66.35033399999999,
                    "velocity": 0.23622047244094488,
                    "duration": 0.20072983333332672
                },
                {
                    "name": "D#3",
                    "midi": 51,
                    "time": 66.35033399999999,
                    "velocity": 0.28346456692913385,
                    "duration": 0.20072983333332672
                },
                {
                    "name": "G#2",
                    "midi": 44,
                    "time": 66.56931199999998,
                    "velocity": 0.2755905511811024,
                    "duration": 2.6277359999999987
                },
                {
                    "name": "D#3",
                    "midi": 51,
                    "time": 66.56931199999998,
                    "velocity": 0.3228346456692913,
                    "duration": 2.6277359999999987
                },
                {
                    "name": "B2",
                    "midi": 47,
                    "time": 70.01821549999998,
                    "velocity": 0.7007874015748031,
                    "duration": 0.1642334999999946
                },
                {
                    "name": "B3",
                    "midi": 59,
                    "time": 70.07295999999998,
                    "velocity": 0.7244094488188977,
                    "duration": 1.3138679999999994
                },
                {
                    "name": "B3",
                    "midi": 59,
                    "time": 71.38682799999998,
                    "velocity": 0.4645669291338583,
                    "duration": 0.07299266666666426
                },
                {
                    "name": "G#3",
                    "midi": 56,
                    "time": 71.45982066666664,
                    "velocity": 0.44881889763779526,
                    "duration": 0.07299266666666426
                },
                {
                    "name": "D#3",
                    "midi": 51,
                    "time": 71.53463814999998,
                    "velocity": 0.4409448818897638,
                    "duration": 0.07299266666666426
                },
                {
                    "name": "B2",
                    "midi": 47,
                    "time": 71.60580599999997,
                    "velocity": 0.4409448818897638,
                    "duration": 0.07299266666666426
                },
                {
                    "name": "G#2",
                    "midi": 44,
                    "time": 71.6806234833333,
                    "velocity": 0.4330708661417323,
                    "duration": 0.07299266666666426
                },
                {
                    "name": "D#2",
                    "midi": 39,
                    "time": 71.75361614999997,
                    "velocity": 0.41732283464566927,
                    "duration": 0.07299266666666426
                },
                {
                    "name": "B1",
                    "midi": 35,
                    "time": 71.82478399999997,
                    "velocity": 0.7165354330708661,
                    "duration": 0.4379559999999998
                },
                {
                    "name": "B1",
                    "midi": 35,
                    "time": 73.35762999999997,
                    "velocity": 0.36220472440944884,
                    "duration": 0.20072983333332672
                },
                {
                    "name": "B2",
                    "midi": 47,
                    "time": 73.35762999999997,
                    "velocity": 0.36220472440944884,
                    "duration": 0.20072983333332672
                },
                {
                    "name": "G#3",
                    "midi": 56,
                    "time": 73.57660799999996,
                    "velocity": 0.4645669291338583,
                    "duration": 2.6277359999999987
                },
                {
                    "name": "F3",
                    "midi": 53,
                    "time": 73.57660799999996,
                    "velocity": 0.4645669291338583,
                    "duration": 2.6277359999999987
                },
                {
                    "name": "A#1",
                    "midi": 34,
                    "time": 73.57660799999996,
                    "velocity": 0.4645669291338583,
                    "duration": 2.6277359999999987
                },
                {
                    "name": "A#2",
                    "midi": 46,
                    "time": 73.57660799999996,
                    "velocity": 0.4645669291338583,
                    "duration": 2.6277359999999987
                },
                {
                    "name": "A#3",
                    "midi": 58,
                    "time": 80.58390399999996,
                    "velocity": 0.2755905511811024,
                    "duration": 0.8321164000000039
                },
                {
                    "name": "G#3",
                    "midi": 56,
                    "time": 80.58390399999996,
                    "velocity": 0.2283464566929134,
                    "duration": 0.8321164000000039
                },
                {
                    "name": "A#3",
                    "midi": 58,
                    "time": 81.45981599999996,
                    "velocity": 0.23622047244094488,
                    "duration": 0.8321164000000039
                },
                {
                    "name": "G#3",
                    "midi": 56,
                    "time": 81.45981599999996,
                    "velocity": 0.1968503937007874,
                    "duration": 0.8321164000000039
                },
                {
                    "name": "A#3",
                    "midi": 58,
                    "time": 82.33572799999996,
                    "velocity": 0.23622047244094488,
                    "duration": 0.8321164000000039
                },
                {
                    "name": "G#3",
                    "midi": 56,
                    "time": 82.33572799999996,
                    "velocity": 0.1968503937007874,
                    "duration": 0.8321164000000039
                },
                {
                    "name": "A#3",
                    "midi": 58,
                    "time": 83.21163999999996,
                    "velocity": 0.23622047244094488,
                    "duration": 0.8321164000000039
                },
                {
                    "name": "G#3",
                    "midi": 56,
                    "time": 83.21163999999996,
                    "velocity": 0.1968503937007874,
                    "duration": 0.8321164000000039
                },
                {
                    "name": "A#3",
                    "midi": 58,
                    "time": 84.08755199999996,
                    "velocity": 0.2755905511811024,
                    "duration": 0.8321164000000039
                },
                {
                    "name": "G3",
                    "midi": 55,
                    "time": 84.08755199999996,
                    "velocity": 0.2283464566929134,
                    "duration": 0.8321164000000039
                },
                {
                    "name": "A#3",
                    "midi": 58,
                    "time": 84.96346399999996,
                    "velocity": 0.2204724409448819,
                    "duration": 0.8321164000000039
                },
                {
                    "name": "G3",
                    "midi": 55,
                    "time": 84.96346399999996,
                    "velocity": 0.18110236220472442,
                    "duration": 0.8321164000000039
                },
                {
                    "name": "A#3",
                    "midi": 58,
                    "time": 85.83937599999996,
                    "velocity": 0.2204724409448819,
                    "duration": 0.8321164000000039
                },
                {
                    "name": "G3",
                    "midi": 55,
                    "time": 85.83937599999996,
                    "velocity": 0.18110236220472442,
                    "duration": 0.8321164000000039
                },
                {
                    "name": "A#3",
                    "midi": 58,
                    "time": 86.71528799999996,
                    "velocity": 0.2204724409448819,
                    "duration": 0.8321164000000039
                },
                {
                    "name": "G3",
                    "midi": 55,
                    "time": 86.71528799999996,
                    "velocity": 0.18110236220472442,
                    "duration": 0.8321164000000039
                },
                {
                    "name": "D3",
                    "midi": 50,
                    "time": 87.59119999999996,
                    "velocity": 0.2283464566929134,
                    "duration": 0.8321164000000039
                },
                {
                    "name": "A#3",
                    "midi": 58,
                    "time": 87.59119999999996,
                    "velocity": 0.2755905511811024,
                    "duration": 0.8321164000000039
                },
                {
                    "name": "G#3",
                    "midi": 56,
                    "time": 87.59119999999996,
                    "velocity": 0.2283464566929134,
                    "duration": 0.8321164000000039
                },
                {
                    "name": "D3",
                    "midi": 50,
                    "time": 88.46711199999996,
                    "velocity": 0.2125984251968504,
                    "duration": 0.8321164000000039
                },
                {
                    "name": "A#3",
                    "midi": 58,
                    "time": 88.46711199999996,
                    "velocity": 0.25984251968503935,
                    "duration": 0.8321164000000039
                },
                {
                    "name": "G#3",
                    "midi": 56,
                    "time": 88.46711199999996,
                    "velocity": 0.2125984251968504,
                    "duration": 0.8321164000000039
                },
                {
                    "name": "D3",
                    "midi": 50,
                    "time": 89.34302399999996,
                    "velocity": 0.2125984251968504,
                    "duration": 0.8321164000000039
                },
                {
                    "name": "A#3",
                    "midi": 58,
                    "time": 89.34302399999996,
                    "velocity": 0.25984251968503935,
                    "duration": 0.8321164000000039
                },
                {
                    "name": "G#3",
                    "midi": 56,
                    "time": 89.34302399999996,
                    "velocity": 0.2125984251968504,
                    "duration": 0.8321164000000039
                },
                {
                    "name": "G3",
                    "midi": 55,
                    "time": 90.21893599999996,
                    "velocity": 0.36220472440944884,
                    "duration": 0.6569340000000068
                },
                {
                    "name": "D3",
                    "midi": 50,
                    "time": 90.21893599999996,
                    "velocity": 0.1968503937007874,
                    "duration": 0.8759119999999996
                },
                {
                    "name": "A#3",
                    "midi": 58,
                    "time": 90.21893599999996,
                    "velocity": 0.23622047244094488,
                    "duration": 0.8759119999999996
                },
                {
                    "name": "F3",
                    "midi": 53,
                    "time": 90.87586999999996,
                    "velocity": 0.36220472440944884,
                    "duration": 0.20072983333332672
                },
                {
                    "name": "D#3",
                    "midi": 51,
                    "time": 91.09484799999996,
                    "velocity": 0.2283464566929134,
                    "duration": 0.8321164000000039
                },
                {
                    "name": "A#3",
                    "midi": 58,
                    "time": 91.09484799999996,
                    "velocity": 0.2755905511811024,
                    "duration": 0.8321164000000039
                },
                {
                    "name": "F#3",
                    "midi": 54,
                    "time": 91.09484799999996,
                    "velocity": 0.2283464566929134,
                    "duration": 0.8321164000000039
                },
                {
                    "name": "D#3",
                    "midi": 51,
                    "time": 91.97075999999996,
                    "velocity": 0.18110236220472442,
                    "duration": 0.8321164000000039
                },
                {
                    "name": "A#3",
                    "midi": 58,
                    "time": 91.97075999999996,
                    "velocity": 0.2204724409448819,
                    "duration": 0.8321164000000039
                },
                {
                    "name": "G3",
                    "midi": 55,
                    "time": 91.97075999999996,
                    "velocity": 0.18110236220472442,
                    "duration": 0.8321164000000039
                },
                {
                    "name": "D#3",
                    "midi": 51,
                    "time": 92.84667199999996,
                    "velocity": 0.18110236220472442,
                    "duration": 0.8321164000000039
                },
                {
                    "name": "A#3",
                    "midi": 58,
                    "time": 92.84667199999996,
                    "velocity": 0.2204724409448819,
                    "duration": 0.8321164000000039
                },
                {
                    "name": "G3",
                    "midi": 55,
                    "time": 92.84667199999996,
                    "velocity": 0.18110236220472442,
                    "duration": 0.8321164000000039
                },
                {
                    "name": "D#3",
                    "midi": 51,
                    "time": 93.72258399999996,
                    "velocity": 0.2204724409448819,
                    "duration": 0.8321164000000039
                },
                {
                    "name": "A#3",
                    "midi": 58,
                    "time": 93.72258399999996,
                    "velocity": 0.2204724409448819,
                    "duration": 0.8321164000000039
                },
                {
                    "name": "G3",
                    "midi": 55,
                    "time": 93.72258399999996,
                    "velocity": 0.18110236220472442,
                    "duration": 0.8321164000000039
                },
                {
                    "name": "G#3",
                    "midi": 56,
                    "time": 94.59849599999995,
                    "velocity": 0.1968503937007874,
                    "duration": 0.8321164000000039
                },
                {
                    "name": "A#3",
                    "midi": 58,
                    "time": 94.59849599999995,
                    "velocity": 0.23622047244094488,
                    "duration": 0.8321164000000039
                },
                {
                    "name": "G#3",
                    "midi": 56,
                    "time": 95.47440799999995,
                    "velocity": 0.1968503937007874,
                    "duration": 0.8321164000000039
                },
                {
                    "name": "A#3",
                    "midi": 58,
                    "time": 95.47440799999995,
                    "velocity": 0.23622047244094488,
                    "duration": 0.8321164000000039
                },
                {
                    "name": "G#3",
                    "midi": 56,
                    "time": 96.35031999999995,
                    "velocity": 0.1968503937007874,
                    "duration": 0.8321164000000039
                },
                {
                    "name": "A#3",
                    "midi": 58,
                    "time": 96.35031999999995,
                    "velocity": 0.23622047244094488,
                    "duration": 0.8321164000000039
                },
                {
                    "name": "G#3",
                    "midi": 56,
                    "time": 97.22623199999995,
                    "velocity": 0.1968503937007874,
                    "duration": 0.8321164000000039
                },
                {
                    "name": "A#3",
                    "midi": 58,
                    "time": 97.22623199999995,
                    "velocity": 0.23622047244094488,
                    "duration": 0.8321164000000039
                },
                {
                    "name": "G3",
                    "midi": 55,
                    "time": 98.97805599999995,
                    "velocity": 0.1968503937007874,
                    "duration": 0.8321164000000039
                },
                {
                    "name": "A#3",
                    "midi": 58,
                    "time": 98.97805599999995,
                    "velocity": 0.23622047244094488,
                    "duration": 0.8321164000000039
                },
                {
                    "name": "G3",
                    "midi": 55,
                    "time": 99.85396799999995,
                    "velocity": 0.1968503937007874,
                    "duration": 0.8321164000000039
                },
                {
                    "name": "A#3",
                    "midi": 58,
                    "time": 99.85396799999995,
                    "velocity": 0.23622047244094488,
                    "duration": 0.8321164000000039
                },
                {
                    "name": "G3",
                    "midi": 55,
                    "time": 100.72987999999995,
                    "velocity": 0.1968503937007874,
                    "duration": 0.8321164000000039
                },
                {
                    "name": "A#3",
                    "midi": 58,
                    "time": 100.72987999999995,
                    "velocity": 0.23622047244094488,
                    "duration": 0.8321164000000039
                },
                {
                    "name": "D3",
                    "midi": 50,
                    "time": 101.60579199999995,
                    "velocity": 0.1968503937007874,
                    "duration": 0.8321164000000039
                },
                {
                    "name": "G#3",
                    "midi": 56,
                    "time": 101.60579199999995,
                    "velocity": 0.1968503937007874,
                    "duration": 0.8321164000000039
                },
                {
                    "name": "A#3",
                    "midi": 58,
                    "time": 101.60579199999995,
                    "velocity": 0.23622047244094488,
                    "duration": 0.8321164000000039
                },
                {
                    "name": "D3",
                    "midi": 50,
                    "time": 102.48170399999995,
                    "velocity": 0.1968503937007874,
                    "duration": 0.8321164000000039
                },
                {
                    "name": "F3",
                    "midi": 53,
                    "time": 102.48170399999995,
                    "velocity": 0.1968503937007874,
                    "duration": 0.8321164000000039
                },
                {
                    "name": "G#3",
                    "midi": 56,
                    "time": 102.48170399999995,
                    "velocity": 0.1968503937007874,
                    "duration": 0.8321164000000039
                },
                {
                    "name": "A#3",
                    "midi": 58,
                    "time": 102.48170399999995,
                    "velocity": 0.23622047244094488,
                    "duration": 0.8321164000000039
                },
                {
                    "name": "D3",
                    "midi": 50,
                    "time": 103.35761599999995,
                    "velocity": 0.1968503937007874,
                    "duration": 0.8321164000000039
                },
                {
                    "name": "F3",
                    "midi": 53,
                    "time": 103.35761599999995,
                    "velocity": 0.1968503937007874,
                    "duration": 0.8321164000000039
                },
                {
                    "name": "G#3",
                    "midi": 56,
                    "time": 103.35761599999995,
                    "velocity": 0.1968503937007874,
                    "duration": 0.8321164000000039
                },
                {
                    "name": "A#3",
                    "midi": 58,
                    "time": 103.35761599999995,
                    "velocity": 0.23622047244094488,
                    "duration": 0.8321164000000039
                },
                {
                    "name": "D3",
                    "midi": 50,
                    "time": 104.23352799999995,
                    "velocity": 0.1968503937007874,
                    "duration": 0.8321164000000039
                },
                {
                    "name": "F3",
                    "midi": 53,
                    "time": 104.23352799999995,
                    "velocity": 0.1968503937007874,
                    "duration": 0.8321164000000039
                },
                {
                    "name": "G#3",
                    "midi": 56,
                    "time": 104.23352799999995,
                    "velocity": 0.1968503937007874,
                    "duration": 0.8321164000000039
                },
                {
                    "name": "A#3",
                    "midi": 58,
                    "time": 104.23352799999995,
                    "velocity": 0.23622047244094488,
                    "duration": 0.8321164000000039
                },
                {
                    "name": "D#3",
                    "midi": 51,
                    "time": 105.98535199999995,
                    "velocity": 0.23622047244094488,
                    "duration": 0.8759119999999996
                },
                {
                    "name": "G3",
                    "midi": 55,
                    "time": 105.98535199999995,
                    "velocity": 0.23622047244094488,
                    "duration": 0.8759119999999996
                },
                {
                    "name": "A#3",
                    "midi": 58,
                    "time": 105.98535199999995,
                    "velocity": 0.23622047244094488,
                    "duration": 0.8759119999999996
                },
                {
                    "name": "F3",
                    "midi": 53,
                    "time": 107.73717599999995,
                    "velocity": 0.25196850393700787,
                    "duration": 0.8759119999999996
                },
                {
                    "name": "G#3",
                    "midi": 56,
                    "time": 107.73717599999995,
                    "velocity": 0.25196850393700787,
                    "duration": 0.8759119999999996
                },
                {
                    "name": "A#3",
                    "midi": 58,
                    "time": 107.73717599999995,
                    "velocity": 0.25196850393700787,
                    "duration": 0.8759119999999996
                },
                {
                    "name": "D4",
                    "midi": 62,
                    "time": 107.73717599999995,
                    "velocity": 0.25196850393700787,
                    "duration": 0.8759119999999996
                },
                {
                    "name": "G3",
                    "midi": 55,
                    "time": 109.48899999999995,
                    "velocity": 0.29133858267716534,
                    "duration": 0.8759119999999996
                },
                {
                    "name": "A#3",
                    "midi": 58,
                    "time": 109.48899999999995,
                    "velocity": 0.29133858267716534,
                    "duration": 0.8759119999999996
                },
                {
                    "name": "D#4",
                    "midi": 63,
                    "time": 109.48899999999995,
                    "velocity": 0.29133858267716534,
                    "duration": 0.8759119999999996
                },
                {
                    "name": "G3",
                    "midi": 55,
                    "time": 111.24082399999995,
                    "velocity": 0.33858267716535434,
                    "duration": 0.8759119999999996
                },
                {
                    "name": "B3",
                    "midi": 59,
                    "time": 111.24082399999995,
                    "velocity": 0.33858267716535434,
                    "duration": 0.8759119999999996
                },
                {
                    "name": "D#4",
                    "midi": 63,
                    "time": 111.24082399999995,
                    "velocity": 0.33858267716535434,
                    "duration": 0.8759119999999996
                },
                {
                    "name": "G#3",
                    "midi": 56,
                    "time": 112.99264799999995,
                    "velocity": 0.4015748031496063,
                    "duration": 0.8759119999999996
                },
                {
                    "name": "C4",
                    "midi": 60,
                    "time": 112.99264799999995,
                    "velocity": 0.4015748031496063,
                    "duration": 0.8759119999999996
                },
                {
                    "name": "D#4",
                    "midi": 63,
                    "time": 112.99264799999995,
                    "velocity": 0.4015748031496063,
                    "duration": 0.8759119999999996
                },
                {
                    "name": "B3",
                    "midi": 59,
                    "time": 114.74447199999994,
                    "velocity": 0.47244094488188976,
                    "duration": 0.8759119999999996
                },
                {
                    "name": "G#3",
                    "midi": 56,
                    "time": 114.74447199999994,
                    "velocity": 0.47244094488188976,
                    "duration": 0.8759119999999996
                },
                {
                    "name": "D4",
                    "midi": 62,
                    "time": 114.74447199999994,
                    "velocity": 0.47244094488188976,
                    "duration": 0.8759119999999996
                },
                {
                    "name": "F4",
                    "midi": 65,
                    "time": 114.74447199999994,
                    "velocity": 0.47244094488188976,
                    "duration": 0.8759119999999996
                },
                {
                    "name": "A3",
                    "midi": 57,
                    "time": 116.49629599999994,
                    "velocity": 0.47244094488188976,
                    "duration": 0.8759119999999996
                },
                {
                    "name": "C4",
                    "midi": 60,
                    "time": 116.49629599999994,
                    "velocity": 0.47244094488188976,
                    "duration": 0.8759119999999996
                },
                {
                    "name": "D#4",
                    "midi": 63,
                    "time": 116.49629599999994,
                    "velocity": 0.47244094488188976,
                    "duration": 0.8759119999999996
                },
                {
                    "name": "F#4",
                    "midi": 66,
                    "time": 116.49629599999994,
                    "velocity": 0.47244094488188976,
                    "duration": 0.8759119999999996
                },
                {
                    "name": "G4",
                    "midi": 67,
                    "time": 119.99994399999994,
                    "velocity": 0.28346456692913385,
                    "duration": 0.8759119999999996
                },
                {
                    "name": "D#4",
                    "midi": 63,
                    "time": 119.99994399999994,
                    "velocity": 0.23622047244094488,
                    "duration": 0.8759119999999996
                },
                {
                    "name": "A#3",
                    "midi": 58,
                    "time": 119.99994399999994,
                    "velocity": 0.2125984251968504,
                    "duration": 0.8759119999999996
                },
                {
                    "name": "G#4",
                    "midi": 68,
                    "time": 121.75176799999994,
                    "velocity": 0.28346456692913385,
                    "duration": 0.8759119999999996
                },
                {
                    "name": "D4",
                    "midi": 62,
                    "time": 121.75176799999994,
                    "velocity": 0.2440944881889764,
                    "duration": 0.8759119999999996
                },
                {
                    "name": "A#3",
                    "midi": 58,
                    "time": 121.75176799999994,
                    "velocity": 0.2125984251968504,
                    "duration": 0.8759119999999996
                },
                {
                    "name": "D#4",
                    "midi": 63,
                    "time": 123.21162133333327,
                    "velocity": 0.25196850393700787,
                    "duration": 0.29197066666667126
                },
                {
                    "name": "A#3",
                    "midi": 58,
                    "time": 123.50359199999994,
                    "velocity": 0.30708661417322836,
                    "duration": 0.29197066666667126
                },
                {
                    "name": "G3",
                    "midi": 55,
                    "time": 123.79556266666661,
                    "velocity": 0.25196850393700787,
                    "duration": 0.29197066666667126
                },
                {
                    "name": "D#3",
                    "midi": 51,
                    "time": 124.08753333333328,
                    "velocity": 0.25196850393700787,
                    "duration": 0.29197066666667126
                },
                {
                    "name": "F4",
                    "midi": 65,
                    "time": 124.96344533333328,
                    "velocity": 0.2677165354330709,
                    "duration": 0.29197066666667126
                },
                {
                    "name": "D4",
                    "midi": 62,
                    "time": 125.25541599999995,
                    "velocity": 0.30708661417322836,
                    "duration": 0.29197066666667126
                },
                {
                    "name": "A#3",
                    "midi": 58,
                    "time": 125.54738666666663,
                    "velocity": 0.25984251968503935,
                    "duration": 0.29197066666667126
                },
                {
                    "name": "F3",
                    "midi": 53,
                    "time": 125.8393573333333,
                    "velocity": 0.25984251968503935,
                    "duration": 0.29197066666667126
                },
                {
                    "name": "G4",
                    "midi": 67,
                    "time": 126.7152693333333,
                    "velocity": 0.25984251968503935,
                    "duration": 0.29197066666667126
                },
                {
                    "name": "D#4",
                    "midi": 63,
                    "time": 127.00723999999997,
                    "velocity": 0.31496062992125984,
                    "duration": 0.29197066666667126
                },
                {
                    "name": "A#3",
                    "midi": 58,
                    "time": 127.29921066666664,
                    "velocity": 0.2677165354330709,
                    "duration": 0.29197066666667126
                },
                {
                    "name": "G3",
                    "midi": 55,
                    "time": 127.59118133333331,
                    "velocity": 0.2677165354330709,
                    "duration": 0.29197066666667126
                },
                {
                    "name": "G4",
                    "midi": 67,
                    "time": 128.4670933333333,
                    "velocity": 0.36220472440944884,
                    "duration": 0.29197066666665705
                },
                {
                    "name": "D#4",
                    "midi": 63,
                    "time": 128.75906399999997,
                    "velocity": 0.41732283464566927,
                    "duration": 0.29197066666665705
                },
                {
                    "name": "B3",
                    "midi": 59,
                    "time": 129.05103466666662,
                    "velocity": 0.36220472440944884,
                    "duration": 0.29197066666665705
                },
                {
                    "name": "G3",
                    "midi": 55,
                    "time": 129.34300533333328,
                    "velocity": 0.36220472440944884,
                    "duration": 0.29197066666665705
                },
                {
                    "name": "G#4",
                    "midi": 68,
                    "time": 130.21891733333328,
                    "velocity": 0.3700787401574803,
                    "duration": 0.29197066666665705
                },
                {
                    "name": "D#4",
                    "midi": 63,
                    "time": 130.51088799999994,
                    "velocity": 0.4566929133858268,
                    "duration": 0.29197066666665705
                },
                {
                    "name": "C4",
                    "midi": 60,
                    "time": 130.8028586666666,
                    "velocity": 0.3858267716535433,
                    "duration": 0.29197066666665705
                },
                {
                    "name": "G#3",
                    "midi": 56,
                    "time": 131.09482933333325,
                    "velocity": 0.3858267716535433,
                    "duration": 0.29197066666665705
                },
                {
                    "name": "G#4",
                    "midi": 68,
                    "time": 131.97074133333325,
                    "velocity": 0.4409448818897638,
                    "duration": 0.29197066666665705
                },
                {
                    "name": "F4",
                    "midi": 65,
                    "time": 132.2627119999999,
                    "velocity": 0.49606299212598426,
                    "duration": 0.29197066666665705
                },
                {
                    "name": "D4",
                    "midi": 62,
                    "time": 132.55468266666657,
                    "velocity": 0.4251968503937008,
                    "duration": 0.29197066666665705
                },
                {
                    "name": "A#3",
                    "midi": 58,
                    "time": 132.84665333333322,
                    "velocity": 0.4330708661417323,
                    "duration": 0.29197066666665705
                },
                {
                    "name": "A4",
                    "midi": 69,
                    "time": 133.72256533333322,
                    "velocity": 0.6141732283464567,
                    "duration": 2.9197066666666274
                },
                {
                    "name": "F#4",
                    "midi": 66,
                    "time": 134.01453599999988,
                    "velocity": 0.44881889763779526,
                    "duration": 2.6277359999999703
                },
                {
                    "name": "D#4",
                    "midi": 63,
                    "time": 134.30650666666654,
                    "velocity": 0.48031496062992124,
                    "duration": 2.3357653333333133
                },
                {
                    "name": "B3",
                    "midi": 59,
                    "time": 134.5984773333332,
                    "velocity": 0.5118110236220472,
                    "duration": 2.043794666666656
                },
                {
                    "name": "A#2",
                    "midi": 46,
                    "time": 136.9342426666665,
                    "velocity": 0.5039370078740157,
                    "duration": 0.14598533333332853
                },
                {
                    "name": "D#3",
                    "midi": 51,
                    "time": 137.22621333333316,
                    "velocity": 0.5039370078740157,
                    "duration": 0.14598533333332853
                },
                {
                    "name": "G3",
                    "midi": 55,
                    "time": 137.51818399999982,
                    "velocity": 0.5039370078740157,
                    "duration": 0.14598533333332853
                },
                {
                    "name": "A#3",
                    "midi": 58,
                    "time": 137.81015466666648,
                    "velocity": 0.4566929133858268,
                    "duration": 0.14598533333332853
                },
                {
                    "name": "D#4",
                    "midi": 63,
                    "time": 138.10212533333313,
                    "velocity": 0.4566929133858268,
                    "duration": 0.14598533333332853
                },
                {
                    "name": "G4",
                    "midi": 67,
                    "time": 138.3940959999998,
                    "velocity": 0.5039370078740157,
                    "duration": 0.29197066666665705
                },
                {
                    "name": "F#4",
                    "midi": 66,
                    "time": 138.68606666666645,
                    "velocity": 0.4566929133858268,
                    "duration": 0.29197066666665705
                },
                {
                    "name": "G#4",
                    "midi": 68,
                    "time": 138.9780373333331,
                    "velocity": 0.4566929133858268,
                    "duration": 0.29197066666665705
                },
                {
                    "name": "G4",
                    "midi": 67,
                    "time": 139.27000799999976,
                    "velocity": 0.5039370078740157,
                    "duration": 0.2189779999999928
                },
                {
                    "name": "F4",
                    "midi": 65,
                    "time": 139.56197866666642,
                    "velocity": 0.4645669291338583,
                    "duration": 0.2189779999999928
                },
                {
                    "name": "D#4",
                    "midi": 63,
                    "time": 139.85394933333308,
                    "velocity": 0.4645669291338583,
                    "duration": 0.2189779999999928
                },
                {
                    "name": "G#4",
                    "midi": 68,
                    "time": 140.14591999999973,
                    "velocity": 0.4881889763779528,
                    "duration": 3.5036479999999983
                },
                {
                    "name": "A#3",
                    "midi": 58,
                    "time": 140.14591999999973,
                    "velocity": 0.4094488188976378,
                    "duration": 3.5036479999999983
                },
                {
                    "name": "A#1",
                    "midi": 34,
                    "time": 143.9415386666664,
                    "velocity": 0.5039370078740157,
                    "duration": 0.14598533333332853
                },
                {
                    "name": "D#2",
                    "midi": 39,
                    "time": 144.23350933333305,
                    "velocity": 0.5039370078740157,
                    "duration": 0.14598533333332853
                },
                {
                    "name": "G2",
                    "midi": 43,
                    "time": 144.5254799999997,
                    "velocity": 0.5039370078740157,
                    "duration": 0.14598533333332853
                },
                {
                    "name": "A#2",
                    "midi": 46,
                    "time": 144.81745066666636,
                    "velocity": 0.4566929133858268,
                    "duration": 0.14598533333332853
                },
                {
                    "name": "D#3",
                    "midi": 51,
                    "time": 145.10942133333302,
                    "velocity": 0.4566929133858268,
                    "duration": 0.14598533333332853
                },
                {
                    "name": "G3",
                    "midi": 55,
                    "time": 145.40139199999967,
                    "velocity": 0.5039370078740157,
                    "duration": 0.29197066666665705
                },
                {
                    "name": "F#3",
                    "midi": 54,
                    "time": 145.69336266666633,
                    "velocity": 0.4566929133858268,
                    "duration": 0.29197066666665705
                },
                {
                    "name": "G#3",
                    "midi": 56,
                    "time": 145.985333333333,
                    "velocity": 0.4566929133858268,
                    "duration": 0.29197066666665705
                },
                {
                    "name": "G3",
                    "midi": 55,
                    "time": 146.27730399999965,
                    "velocity": 0.5039370078740157,
                    "duration": 0.2189779999999928
                },
                {
                    "name": "F3",
                    "midi": 53,
                    "time": 146.5692746666663,
                    "velocity": 0.4645669291338583,
                    "duration": 0.2189779999999928
                },
                {
                    "name": "D#3",
                    "midi": 51,
                    "time": 146.86124533333296,
                    "velocity": 0.4645669291338583,
                    "duration": 0.2189779999999928
                },
                {
                    "name": "G#3",
                    "midi": 56,
                    "time": 147.15321599999962,
                    "velocity": 0.4881889763779528,
                    "duration": 3.5036479999999983
                },
                {
                    "name": "A#2",
                    "midi": 46,
                    "time": 147.15321599999962,
                    "velocity": 0.4094488188976378,
                    "duration": 3.5036479999999983
                },
                {
                    "name": "D#3",
                    "midi": 51,
                    "time": 150.65686399999962,
                    "velocity": 0.29133858267716534,
                    "duration": 0.8759119999999996
                },
                {
                    "name": "G3",
                    "midi": 55,
                    "time": 150.65686399999962,
                    "velocity": 0.33858267716535434,
                    "duration": 0.8759119999999996
                },
                {
                    "name": "D#2",
                    "midi": 39,
                    "time": 153.94153399999962,
                    "velocity": 0.5039370078740157,
                    "duration": 1.0948900000000492
                },
                {
                    "name": "A#2",
                    "midi": 46,
                    "time": 153.9871544166663,
                    "velocity": 0.5275590551181102,
                    "duration": 1.067517750000036
                },
                {
                    "name": "C#3",
                    "midi": 49,
                    "time": 153.99627849999965,
                    "velocity": 0.5275590551181102,
                    "duration": 1.0401455000000226
                },
                {
                    "name": "D#3",
                    "midi": 51,
                    "time": 154.02365074999966,
                    "velocity": 0.5433070866141733,
                    "duration": 1.0127732500000093
                },
                {
                    "name": "G#2",
                    "midi": 44,
                    "time": 157.66415999999967,
                    "velocity": 0.30708661417322836,
                    "duration": 0.8759119999999996
                },
                {
                    "name": "D#3",
                    "midi": 51,
                    "time": 158.54007199999967,
                    "velocity": 0.25196850393700787,
                    "duration": 0.8759119999999996
                },
                {
                    "name": "G2",
                    "midi": 43,
                    "time": 159.41598399999967,
                    "velocity": 0.30708661417322836,
                    "duration": 0.8759119999999996
                },
                {
                    "name": "D#3",
                    "midi": 51,
                    "time": 160.29189599999967,
                    "velocity": 0.2283464566929134,
                    "duration": 0.8759119999999996
                },
                {
                    "name": "G#2",
                    "midi": 44,
                    "time": 161.16780799999967,
                    "velocity": 0.33070866141732286,
                    "duration": 0.8759119999999996
                },
                {
                    "name": "D#3",
                    "midi": 51,
                    "time": 162.04371999999967,
                    "velocity": 0.28346456692913385,
                    "duration": 0.8759119999999996
                },
                {
                    "name": "G#3",
                    "midi": 56,
                    "time": 162.91963199999967,
                    "velocity": 0.2992125984251969,
                    "duration": 0.8759119999999996
                },
                {
                    "name": "C4",
                    "midi": 60,
                    "time": 163.79554399999967,
                    "velocity": 0.31496062992125984,
                    "duration": 0.8759119999999996
                },
                {
                    "name": "G3",
                    "midi": 55,
                    "time": 164.67145599999967,
                    "velocity": 0.36220472440944884,
                    "duration": 1.7518239999999992
                },
                {
                    "name": "C#4",
                    "midi": 61,
                    "time": 164.67145599999967,
                    "velocity": 0.36220472440944884,
                    "duration": 0.8759119999999996
                },
                {
                    "name": "A#3",
                    "midi": 58,
                    "time": 165.54736799999966,
                    "velocity": 0.25196850393700787,
                    "duration": 0.8759119999999996
                },
                {
                    "name": "G#3",
                    "midi": 56,
                    "time": 166.42327999999966,
                    "velocity": 0.2283464566929134,
                    "duration": 1.7518239999999992
                },
                {
                    "name": "C4",
                    "midi": 60,
                    "time": 167.29919199999966,
                    "velocity": 0.25196850393700787,
                    "duration": 0.8759119999999996
                },
                {
                    "name": "D#3",
                    "midi": 51,
                    "time": 168.17510399999966,
                    "velocity": 0.23622047244094488,
                    "duration": 3.5036479999999983
                },
                {
                    "name": "D#4",
                    "midi": 63,
                    "time": 168.17510399999966,
                    "velocity": 0.28346456692913385,
                    "duration": 3.5036479999999983
                },
                {
                    "name": "C#4",
                    "midi": 61,
                    "time": 169.05101599999966,
                    "velocity": 0.25196850393700787,
                    "duration": 0.8759119999999996
                },
                {
                    "name": "A#3",
                    "midi": 58,
                    "time": 169.92692799999966,
                    "velocity": 0.25196850393700787,
                    "duration": 0.8759119999999996
                },
                {
                    "name": "G3",
                    "midi": 55,
                    "time": 170.80283999999966,
                    "velocity": 0.25196850393700787,
                    "duration": 0.8759119999999996
                },
                {
                    "name": "G#3",
                    "midi": 56,
                    "time": 172.33568599999967,
                    "velocity": 0.29133858267716534,
                    "duration": 0.2189779999999928
                },
                {
                    "name": "D#4",
                    "midi": 63,
                    "time": 172.55466399999966,
                    "velocity": 0.36220472440944884,
                    "duration": 0.8759119999999996
                },
                {
                    "name": "C3",
                    "midi": 48,
                    "time": 174.08750999999967,
                    "velocity": 0.30708661417322836,
                    "duration": 0.2189779999999928
                },
                {
                    "name": "G#3",
                    "midi": 56,
                    "time": 174.30648799999966,
                    "velocity": 0.3779527559055118,
                    "duration": 0.8759119999999996
                },
                {
                    "name": "C#3",
                    "midi": 49,
                    "time": 175.83933399999967,
                    "velocity": 0.4015748031496063,
                    "duration": 0.2189779999999928
                },
                {
                    "name": "C#4",
                    "midi": 61,
                    "time": 176.05831199999966,
                    "velocity": 0.4409448818897638,
                    "duration": 0.6569340000000068
                },
                {
                    "name": "F3",
                    "midi": 53,
                    "time": 176.71524599999967,
                    "velocity": 0.4409448818897638,
                    "duration": 2.8467139999999915
                },
                {
                    "name": "C#4",
                    "midi": 61,
                    "time": 176.93422399999966,
                    "velocity": 0.4881889763779528,
                    "duration": 0.6569340000000068
                },
                {
                    "name": "G#3",
                    "midi": 56,
                    "time": 177.59115799999967,
                    "velocity": 0.4409448818897638,
                    "duration": 0.2189779999999928
                },
                {
                    "name": "F4",
                    "midi": 65,
                    "time": 177.81013599999966,
                    "velocity": 0.5118110236220472,
                    "duration": 0.6569340000000068
                },
                {
                    "name": "C#4",
                    "midi": 61,
                    "time": 178.46706999999967,
                    "velocity": 0.5118110236220472,
                    "duration": 0.2189779999999928
                },
                {
                    "name": "G#3",
                    "midi": 56,
                    "time": 178.68604799999966,
                    "velocity": 0.5669291338582677,
                    "duration": 0.8759119999999996
                },
                {
                    "name": "F3",
                    "midi": 53,
                    "time": 179.56195999999966,
                    "velocity": 0.31496062992125984,
                    "duration": 0.8759119999999996
                },
                {
                    "name": "G#3",
                    "midi": 56,
                    "time": 179.56195999999966,
                    "velocity": 0.3779527559055118,
                    "duration": 0.8759119999999996
                },
                {
                    "name": "G3",
                    "midi": 55,
                    "time": 180.43787199999966,
                    "velocity": 0.3779527559055118,
                    "duration": 0.8759119999999996
                },
                {
                    "name": "A#3",
                    "midi": 58,
                    "time": 180.43787199999966,
                    "velocity": 0.44881889763779526,
                    "duration": 0.8759119999999996
                },
                {
                    "name": "C4",
                    "midi": 60,
                    "time": 181.31378399999966,
                    "velocity": 0.3779527559055118,
                    "duration": 0.8759119999999996
                },
                {
                    "name": "G#3",
                    "midi": 56,
                    "time": 181.31378399999966,
                    "velocity": 0.31496062992125984,
                    "duration": 0.8759119999999996
                },
                {
                    "name": "C4",
                    "midi": 60,
                    "time": 182.18969599999966,
                    "velocity": 0.33858267716535434,
                    "duration": 1.3138680000000136
                },
                {
                    "name": "D#3",
                    "midi": 51,
                    "time": 182.18969599999966,
                    "velocity": 0.33858267716535434,
                    "duration": 1.7518240000000276
                },
                {
                    "name": "G#3",
                    "midi": 56,
                    "time": 183.50356399999967,
                    "velocity": 0.2440944881889764,
                    "duration": 0.437956000000014
                },
                {
                    "name": "D#3",
                    "midi": 51,
                    "time": 183.94151999999968,
                    "velocity": 0.2047244094488189,
                    "duration": 0.8759119999999996
                },
                {
                    "name": "G3",
                    "midi": 55,
                    "time": 183.94151999999968,
                    "velocity": 0.2440944881889764,
                    "duration": 0.8759119999999996
                },
                {
                    "name": "G#2",
                    "midi": 44,
                    "time": 185.69334399999968,
                    "velocity": 0.28346456692913385,
                    "duration": 1.751824000000056
                },
                {
                    "name": "D#3",
                    "midi": 51,
                    "time": 186.1312999999997,
                    "velocity": 0.2204724409448819,
                    "duration": 0.41605820000000904
                },
                {
                    "name": "D#3",
                    "midi": 51,
                    "time": 186.5692559999997,
                    "velocity": 0.2283464566929134,
                    "duration": 0.41605820000000904
                },
                {
                    "name": "D#3",
                    "midi": 51,
                    "time": 187.00721199999973,
                    "velocity": 0.2283464566929134,
                    "duration": 0.41605820000000904
                },
                {
                    "name": "G2",
                    "midi": 43,
                    "time": 187.44516799999974,
                    "velocity": 0.28346456692913385,
                    "duration": 1.751824000000056
                },
                {
                    "name": "D#3",
                    "midi": 51,
                    "time": 187.88312399999975,
                    "velocity": 0.2204724409448819,
                    "duration": 0.41605820000000904
                },
                {
                    "name": "D#3",
                    "midi": 51,
                    "time": 188.32107999999977,
                    "velocity": 0.2204724409448819,
                    "duration": 0.41605820000000904
                },
                {
                    "name": "D#3",
                    "midi": 51,
                    "time": 188.75903599999978,
                    "velocity": 0.2204724409448819,
                    "duration": 0.41605820000000904
                },
                {
                    "name": "G#2",
                    "midi": 44,
                    "time": 189.1969919999998,
                    "velocity": 0.33858267716535434,
                    "duration": 0.2189779999999928
                },
                {
                    "name": "D#3",
                    "midi": 51,
                    "time": 189.48896266666645,
                    "velocity": 0.28346456692913385,
                    "duration": 0.2189779999999928
                },
                {
                    "name": "C3",
                    "midi": 48,
                    "time": 189.7809333333331,
                    "velocity": 0.28346456692913385,
                    "duration": 0.2189779999999928
                },
                {
                    "name": "G#3",
                    "midi": 56,
                    "time": 190.07290399999977,
                    "velocity": 0.31496062992125984,
                    "duration": 0.2189779999999928
                },
                {
                    "name": "D#3",
                    "midi": 51,
                    "time": 190.36487466666642,
                    "velocity": 0.28346456692913385,
                    "duration": 0.2189779999999928
                },
                {
                    "name": "C4",
                    "midi": 60,
                    "time": 190.65684533333308,
                    "velocity": 0.28346456692913385,
                    "duration": 0.2189779999999928
                },
                {
                    "name": "G#3",
                    "midi": 56,
                    "time": 190.94881599999974,
                    "velocity": 0.33858267716535434,
                    "duration": 0.2189779999999928
                },
                {
                    "name": "D#4",
                    "midi": 63,
                    "time": 191.2407866666664,
                    "velocity": 0.28346456692913385,
                    "duration": 0.2189779999999928
                },
                {
                    "name": "C#4",
                    "midi": 61,
                    "time": 191.53275733333305,
                    "velocity": 0.28346456692913385,
                    "duration": 0.2189779999999928
                },
                {
                    "name": "C4",
                    "midi": 60,
                    "time": 191.8247279999997,
                    "velocity": 0.3700787401574803,
                    "duration": 0.2189779999999928
                },
                {
                    "name": "A#3",
                    "midi": 58,
                    "time": 192.11669866666637,
                    "velocity": 0.28346456692913385,
                    "duration": 0.2189779999999928
                },
                {
                    "name": "G#3",
                    "midi": 56,
                    "time": 192.40866933333302,
                    "velocity": 0.28346456692913385,
                    "duration": 0.2189779999999928
                },
                {
                    "name": "G3",
                    "midi": 55,
                    "time": 192.70063999999968,
                    "velocity": 0.3543307086614173,
                    "duration": 1.751824000000056
                },
                {
                    "name": "D#3",
                    "midi": 51,
                    "time": 193.1385959999997,
                    "velocity": 0.2283464566929134,
                    "duration": 0.41605820000000904
                },
                {
                    "name": "D#3",
                    "midi": 51,
                    "time": 193.5765519999997,
                    "velocity": 0.2283464566929134,
                    "duration": 0.41605820000000904
                },
                {
                    "name": "D#3",
                    "midi": 51,
                    "time": 194.01450799999972,
                    "velocity": 0.2283464566929134,
                    "duration": 0.41605820000000904
                },
                {
                    "name": "G#3",
                    "midi": 56,
                    "time": 194.45246399999974,
                    "velocity": 0.28346456692913385,
                    "duration": 1.751824000000056
                },
                {
                    "name": "D#3",
                    "midi": 51,
                    "time": 194.89041999999975,
                    "velocity": 0.2283464566929134,
                    "duration": 0.41605820000000904
                },
                {
                    "name": "D#3",
                    "midi": 51,
                    "time": 195.32837599999976,
                    "velocity": 0.2283464566929134,
                    "duration": 0.41605820000000904
                },
                {
                    "name": "D#3",
                    "midi": 51,
                    "time": 195.76633199999978,
                    "velocity": 0.2283464566929134,
                    "duration": 0.41605820000000904
                },
                {
                    "name": "D#2",
                    "midi": 39,
                    "time": 196.2042879999998,
                    "velocity": 0.3228346456692913,
                    "duration": 0.2189779999999928
                },
                {
                    "name": "G2",
                    "midi": 43,
                    "time": 196.49625866666645,
                    "velocity": 0.2992125984251969,
                    "duration": 0.2189779999999928
                },
                {
                    "name": "A#2",
                    "midi": 46,
                    "time": 196.7882293333331,
                    "velocity": 0.2992125984251969,
                    "duration": 0.2189779999999928
                },
                {
                    "name": "D#3",
                    "midi": 51,
                    "time": 197.08019999999976,
                    "velocity": 0.3779527559055118,
                    "duration": 0.2189779999999928
                },
                {
                    "name": "G3",
                    "midi": 55,
                    "time": 197.37217066666642,
                    "velocity": 0.3779527559055118,
                    "duration": 0.2189779999999928
                },
                {
                    "name": "A#3",
                    "midi": 58,
                    "time": 197.66414133333308,
                    "velocity": 0.4015748031496063,
                    "duration": 0.2189779999999928
                },
                {
                    "name": "C#4",
                    "midi": 61,
                    "time": 197.95611199999973,
                    "velocity": 0.4330708661417323,
                    "duration": 0.2189779999999928
                },
                {
                    "name": "F4",
                    "midi": 65,
                    "time": 198.2480826666664,
                    "velocity": 0.3858267716535433,
                    "duration": 0.2189779999999928
                },
                {
                    "name": "D#4",
                    "midi": 63,
                    "time": 198.54005333333305,
                    "velocity": 0.3858267716535433,
                    "duration": 0.2189779999999928
                },
                {
                    "name": "C#4",
                    "midi": 61,
                    "time": 198.8320239999997,
                    "velocity": 0.41732283464566927,
                    "duration": 0.2189779999999928
                },
                {
                    "name": "C4",
                    "midi": 60,
                    "time": 199.12399466666636,
                    "velocity": 0.3464566929133858,
                    "duration": 0.2189779999999928
                },
                {
                    "name": "A#3",
                    "midi": 58,
                    "time": 199.41596533333302,
                    "velocity": 0.3464566929133858,
                    "duration": 0.2189779999999928
                },
                {
                    "name": "G#3",
                    "midi": 56,
                    "time": 199.70793599999968,
                    "velocity": 0.30708661417322836,
                    "duration": 0.2189779999999928
                },
                {
                    "name": "D#4",
                    "midi": 63,
                    "time": 199.99990666666633,
                    "velocity": 0.33070866141732286,
                    "duration": 0.2189779999999928
                },
                {
                    "name": "C4",
                    "midi": 60,
                    "time": 200.291877333333,
                    "velocity": 0.29133858267716534,
                    "duration": 0.2189779999999928
                },
                {
                    "name": "G#3",
                    "midi": 56,
                    "time": 200.58384799999965,
                    "velocity": 0.33070866141732286,
                    "duration": 0.2189779999999928
                },
                {
                    "name": "D#3",
                    "midi": 51,
                    "time": 200.8758186666663,
                    "velocity": 0.25196850393700787,
                    "duration": 0.2189779999999928
                },
                {
                    "name": "C3",
                    "midi": 48,
                    "time": 201.16778933333296,
                    "velocity": 0.25196850393700787,
                    "duration": 0.2189779999999928
                },
                {
                    "name": "C4",
                    "midi": 60,
                    "time": 201.75173066666628,
                    "velocity": 0.28346456692913385,
                    "duration": 0.2189779999999928
                },
                {
                    "name": "G#3",
                    "midi": 56,
                    "time": 202.04370133333293,
                    "velocity": 0.28346456692913385,
                    "duration": 0.2189779999999928
                },
                {
                    "name": "D#3",
                    "midi": 51,
                    "time": 202.3356719999996,
                    "velocity": 0.3700787401574803,
                    "duration": 0.2189779999999928
                },
                {
                    "name": "C3",
                    "midi": 48,
                    "time": 202.62764266666625,
                    "velocity": 0.2992125984251969,
                    "duration": 0.2189779999999928
                },
                {
                    "name": "G#2",
                    "midi": 44,
                    "time": 202.9196133333329,
                    "velocity": 0.31496062992125984,
                    "duration": 0.2189779999999928
                },
                {
                    "name": "C#3",
                    "midi": 49,
                    "time": 203.50355466666622,
                    "velocity": 0.25196850393700787,
                    "duration": 3.2116773333332276
                },
                {
                    "name": "D#3",
                    "midi": 51,
                    "time": 203.79552533333288,
                    "velocity": 0.28346456692913385,
                    "duration": 0.3065691999999842
                },
                {
                    "name": "F3",
                    "midi": 53,
                    "time": 204.08749599999953,
                    "velocity": 0.28346456692913385,
                    "duration": 0.3065691999999842
                },
                {
                    "name": "F#3",
                    "midi": 54,
                    "time": 204.3794666666662,
                    "velocity": 0.3228346456692913,
                    "duration": 0.3065691999999842
                },
                {
                    "name": "G3",
                    "midi": 55,
                    "time": 204.67143733333285,
                    "velocity": 0.33858267716535434,
                    "duration": 0.3065691999999842
                },
                {
                    "name": "G#3",
                    "midi": 56,
                    "time": 204.9634079999995,
                    "velocity": 0.36220472440944884,
                    "duration": 0.3065691999999842
                },
                {
                    "name": "A3",
                    "midi": 57,
                    "time": 205.25537866666616,
                    "velocity": 0.3779527559055118,
                    "duration": 0.3065691999999842
                },
                {
                    "name": "A#3",
                    "midi": 58,
                    "time": 205.54734933333282,
                    "velocity": 0.3858267716535433,
                    "duration": 0.3065691999999842
                },
                {
                    "name": "B3",
                    "midi": 59,
                    "time": 205.83931999999947,
                    "velocity": 0.4094488188976378,
                    "duration": 0.3065691999999842
                },
                {
                    "name": "C4",
                    "midi": 60,
                    "time": 206.13129066666613,
                    "velocity": 0.4251968503937008,
                    "duration": 0.3065691999999842
                },
                {
                    "name": "C#4",
                    "midi": 61,
                    "time": 206.4232613333328,
                    "velocity": 0.44881889763779526,
                    "duration": 0.29197066666665705
                },
                {
                    "name": "D#3",
                    "midi": 51,
                    "time": 206.71523199999945,
                    "velocity": 0.4409448818897638,
                    "duration": 1.7518239999999423
                },
                {
                    "name": "D#4",
                    "midi": 63,
                    "time": 207.0072026666661,
                    "velocity": 0.4409448818897638,
                    "duration": 0.29197066666665705
                },
                {
                    "name": "D4",
                    "midi": 62,
                    "time": 207.29917333333276,
                    "velocity": 0.3543307086614173,
                    "duration": 0.29197066666665705
                },
                {
                    "name": "C#4",
                    "midi": 61,
                    "time": 207.88311466666607,
                    "velocity": 0.36220472440944884,
                    "duration": 0.29197066666665705
                },
                {
                    "name": "C4",
                    "midi": 60,
                    "time": 208.17508533333273,
                    "velocity": 0.36220472440944884,
                    "duration": 0.29197066666665705
                },
                {
                    "name": "D#3",
                    "midi": 51,
                    "time": 208.4670559999994,
                    "velocity": 0.25196850393700787,
                    "duration": 1.7518239999999423
                },
                {
                    "name": "A#3",
                    "midi": 58,
                    "time": 208.75902666666605,
                    "velocity": 0.4015748031496063,
                    "duration": 0.29197066666665705
                },
                {
                    "name": "C4",
                    "midi": 60,
                    "time": 209.0509973333327,
                    "velocity": 0.3464566929133858,
                    "duration": 0.29197066666665705
                },
                {
                    "name": "C#4",
                    "midi": 61,
                    "time": 209.63493866666602,
                    "velocity": 0.3464566929133858,
                    "duration": 0.29197066666665705
                },
                {
                    "name": "G3",
                    "midi": 55,
                    "time": 209.92690933333267,
                    "velocity": 0.3464566929133858,
                    "duration": 0.29197066666665705
                },
                {
                    "name": "G#2",
                    "midi": 44,
                    "time": 210.21887999999933,
                    "velocity": 0.25196850393700787,
                    "duration": 2.6277359999999987
                },
                {
                    "name": "G3",
                    "midi": 55,
                    "time": 210.21887999999933,
                    "velocity": 0.4015748031496063,
                    "duration": 1.7518239999999992
                },
                {
                    "name": "G#3",
                    "midi": 56,
                    "time": 211.97070399999933,
                    "velocity": 0.2755905511811024,
                    "duration": 0.8759119999999996
                },
                {
                    "name": "D#4",
                    "midi": 63,
                    "time": 213.72252799999933,
                    "velocity": 0.5984251968503937,
                    "duration": 1.7518239999999992
                },
                {
                    "name": "F4",
                    "midi": 65,
                    "time": 213.72252799999933,
                    "velocity": 0.5984251968503937,
                    "duration": 1.7481743666666603
                },
                {
                    "name": "C4",
                    "midi": 60,
                    "time": 213.72252799999933,
                    "velocity": 0.5984251968503937,
                    "duration": 1.7518239999999992
                },
                {
                    "name": "A3",
                    "midi": 57,
                    "time": 213.72252799999933,
                    "velocity": 0.5984251968503937,
                    "duration": 1.7518239999999992
                },
                {
                    "name": "A2",
                    "midi": 45,
                    "time": 217.00719799999933,
                    "velocity": 0.23622047244094488,
                    "duration": 0.20072983333332672
                },
                {
                    "name": "F3",
                    "midi": 53,
                    "time": 217.00719799999933,
                    "velocity": 0.28346456692913385,
                    "duration": 0.20072983333332672
                },
                {
                    "name": "A#2",
                    "midi": 46,
                    "time": 217.22617599999933,
                    "velocity": 0.2755905511811024,
                    "duration": 2.6277359999999987
                },
                {
                    "name": "F3",
                    "midi": 53,
                    "time": 217.22617599999933,
                    "velocity": 0.3228346456692913,
                    "duration": 2.6277359999999987
                },
                {
                    "name": "C#4",
                    "midi": 61,
                    "time": 220.72982399999933,
                    "velocity": 0.5984251968503937,
                    "duration": 1.7518239999999992
                },
                {
                    "name": "D#4",
                    "midi": 63,
                    "time": 220.72982399999933,
                    "velocity": 0.5984251968503937,
                    "duration": 1.7481743666666603
                },
                {
                    "name": "A#3",
                    "midi": 58,
                    "time": 220.72982399999933,
                    "velocity": 0.5984251968503937,
                    "duration": 1.7518239999999992
                },
                {
                    "name": "G3",
                    "midi": 55,
                    "time": 220.72982399999933,
                    "velocity": 0.5984251968503937,
                    "duration": 1.7518239999999992
                },
                {
                    "name": "G2",
                    "midi": 43,
                    "time": 224.01449399999933,
                    "velocity": 0.23622047244094488,
                    "duration": 0.20072983333332672
                },
                {
                    "name": "D#3",
                    "midi": 51,
                    "time": 224.01449399999933,
                    "velocity": 0.28346456692913385,
                    "duration": 0.20072983333332672
                },
                {
                    "name": "G#2",
                    "midi": 44,
                    "time": 224.23347199999932,
                    "velocity": 0.2755905511811024,
                    "duration": 2.6277359999999987
                },
                {
                    "name": "D#3",
                    "midi": 51,
                    "time": 224.23347199999932,
                    "velocity": 0.3228346456692913,
                    "duration": 2.6277359999999987
                },
                {
                    "name": "B2",
                    "midi": 47,
                    "time": 227.68237549999932,
                    "velocity": 0.7007874015748031,
                    "duration": 0.1642334999999946
                },
                {
                    "name": "B3",
                    "midi": 59,
                    "time": 227.73711999999932,
                    "velocity": 0.7244094488188977,
                    "duration": 1.3138679999999852
                },
                {
                    "name": "B3",
                    "midi": 59,
                    "time": 229.0509879999993,
                    "velocity": 0.4645669291338583,
                    "duration": 0.07299266666666426
                },
                {
                    "name": "G#3",
                    "midi": 56,
                    "time": 229.12398066666597,
                    "velocity": 0.44881889763779526,
                    "duration": 0.07299266666666426
                },
                {
                    "name": "E3",
                    "midi": 52,
                    "time": 229.19697333333264,
                    "velocity": 0.4409448818897638,
                    "duration": 0.07299266666666426
                },
                {
                    "name": "B2",
                    "midi": 47,
                    "time": 229.2699659999993,
                    "velocity": 0.4409448818897638,
                    "duration": 0.07299266666666426
                },
                {
                    "name": "G#2",
                    "midi": 44,
                    "time": 229.34478348333263,
                    "velocity": 0.4330708661417323,
                    "duration": 0.07299266666666426
                },
                {
                    "name": "E2",
                    "midi": 40,
                    "time": 229.41595133333263,
                    "velocity": 0.41732283464566927,
                    "duration": 0.07299266666666426
                },
                {
                    "name": "B1",
                    "midi": 35,
                    "time": 229.4889439999993,
                    "velocity": 0.7165354330708661,
                    "duration": 0.437956000000014
                },
                {
                    "name": "B1",
                    "midi": 35,
                    "time": 231.0217899999993,
                    "velocity": 0.36220472440944884,
                    "duration": 0.20072983333332672
                },
                {
                    "name": "B2",
                    "midi": 47,
                    "time": 231.0217899999993,
                    "velocity": 0.36220472440944884,
                    "duration": 0.20072983333332672
                },
                {
                    "name": "B1",
                    "midi": 35,
                    "time": 231.2407679999993,
                    "velocity": 0.5511811023622047,
                    "duration": 2.6277359999999987
                },
                {
                    "name": "B2",
                    "midi": 47,
                    "time": 231.2407679999993,
                    "velocity": 0.4094488188976378,
                    "duration": 2.6277359999999987
                },
                {
                    "name": "B1",
                    "midi": 35,
                    "time": 234.5254379999993,
                    "velocity": 0.36220472440944884,
                    "duration": 0.20072983333332672
                },
                {
                    "name": "B2",
                    "midi": 47,
                    "time": 234.5254379999993,
                    "velocity": 0.36220472440944884,
                    "duration": 0.20072983333332672
                },
                {
                    "name": "B1",
                    "midi": 35,
                    "time": 234.7444159999993,
                    "velocity": 0.5511811023622047,
                    "duration": 1.7518239999999992
                },
                {
                    "name": "B2",
                    "midi": 47,
                    "time": 234.7444159999993,
                    "velocity": 0.4094488188976378,
                    "duration": 1.7518239999999992
                },
                {
                    "name": "A#1",
                    "midi": 34,
                    "time": 236.4962399999993,
                    "velocity": 0.33858267716535434,
                    "duration": 0.8759119999999996
                },
                {
                    "name": "A#2",
                    "midi": 46,
                    "time": 236.4962399999993,
                    "velocity": 0.36220472440944884,
                    "duration": 0.8759119999999996
                },
                {
                    "name": "A#1",
                    "midi": 34,
                    "time": 238.0290859999993,
                    "velocity": 0.36220472440944884,
                    "duration": 0.20072983333332672
                },
                {
                    "name": "A#2",
                    "midi": 46,
                    "time": 238.0290859999993,
                    "velocity": 0.36220472440944884,
                    "duration": 0.20072983333332672
                },
                {
                    "name": "A#1",
                    "midi": 34,
                    "time": 238.2480639999993,
                    "velocity": 0.5511811023622047,
                    "duration": 1.7518239999999992
                },
                {
                    "name": "A#2",
                    "midi": 46,
                    "time": 238.2480639999993,
                    "velocity": 0.4094488188976378,
                    "duration": 1.7518239999999992
                },
                {
                    "name": "D#2",
                    "midi": 39,
                    "time": 239.9998879999993,
                    "velocity": 0.33858267716535434,
                    "duration": 0.437956000000014
                },
                {
                    "name": "D#3",
                    "midi": 51,
                    "time": 239.9998879999993,
                    "velocity": 0.36220472440944884,
                    "duration": 0.437956000000014
                },
                {
                    "name": "D#4",
                    "midi": 63,
                    "time": 245.2553599999993,
                    "velocity": 0.2755905511811024,
                    "duration": 0.8321163999999897
                },
                {
                    "name": "C#4",
                    "midi": 61,
                    "time": 245.2553599999993,
                    "velocity": 0.2283464566929134,
                    "duration": 0.8321163999999897
                },
                {
                    "name": "D#4",
                    "midi": 63,
                    "time": 246.1312719999993,
                    "velocity": 0.23622047244094488,
                    "duration": 0.8321163999999897
                },
                {
                    "name": "C#4",
                    "midi": 61,
                    "time": 246.1312719999993,
                    "velocity": 0.1968503937007874,
                    "duration": 0.8321163999999897
                },
                {
                    "name": "D#4",
                    "midi": 63,
                    "time": 247.0071839999993,
                    "velocity": 0.23622047244094488,
                    "duration": 0.8321163999999897
                },
                {
                    "name": "C#4",
                    "midi": 61,
                    "time": 247.0071839999993,
                    "velocity": 0.1968503937007874,
                    "duration": 0.8321163999999897
                },
                {
                    "name": "D#4",
                    "midi": 63,
                    "time": 247.8830959999993,
                    "velocity": 0.23622047244094488,
                    "duration": 0.8321163999999897
                },
                {
                    "name": "C#4",
                    "midi": 61,
                    "time": 247.8830959999993,
                    "velocity": 0.1968503937007874,
                    "duration": 0.8321163999999897
                },
                {
                    "name": "D#4",
                    "midi": 63,
                    "time": 248.7590079999993,
                    "velocity": 0.2755905511811024,
                    "duration": 0.8321163999999897
                },
                {
                    "name": "C4",
                    "midi": 60,
                    "time": 248.7590079999993,
                    "velocity": 0.2283464566929134,
                    "duration": 0.8321163999999897
                },
                {
                    "name": "D#4",
                    "midi": 63,
                    "time": 249.6349199999993,
                    "velocity": 0.2204724409448819,
                    "duration": 0.8321163999999897
                },
                {
                    "name": "C4",
                    "midi": 60,
                    "time": 249.6349199999993,
                    "velocity": 0.18110236220472442,
                    "duration": 0.8321163999999897
                },
                {
                    "name": "D#4",
                    "midi": 63,
                    "time": 250.5108319999993,
                    "velocity": 0.2204724409448819,
                    "duration": 0.8321163999999897
                },
                {
                    "name": "C4",
                    "midi": 60,
                    "time": 250.5108319999993,
                    "velocity": 0.18110236220472442,
                    "duration": 0.8321163999999897
                },
                {
                    "name": "D#4",
                    "midi": 63,
                    "time": 251.3867439999993,
                    "velocity": 0.2204724409448819,
                    "duration": 0.8321163999999897
                },
                {
                    "name": "C4",
                    "midi": 60,
                    "time": 251.3867439999993,
                    "velocity": 0.18110236220472442,
                    "duration": 0.8321163999999897
                },
                {
                    "name": "G3",
                    "midi": 55,
                    "time": 252.2626559999993,
                    "velocity": 0.2283464566929134,
                    "duration": 0.8321163999999897
                },
                {
                    "name": "D#4",
                    "midi": 63,
                    "time": 252.2626559999993,
                    "velocity": 0.2755905511811024,
                    "duration": 0.8321163999999897
                },
                {
                    "name": "C#4",
                    "midi": 61,
                    "time": 252.2626559999993,
                    "velocity": 0.2283464566929134,
                    "duration": 0.8321163999999897
                },
                {
                    "name": "G3",
                    "midi": 55,
                    "time": 253.1385679999993,
                    "velocity": 0.1968503937007874,
                    "duration": 0.8321163999999897
                },
                {
                    "name": "D#4",
                    "midi": 63,
                    "time": 253.1385679999993,
                    "velocity": 0.23622047244094488,
                    "duration": 0.8321163999999897
                },
                {
                    "name": "C#4",
                    "midi": 61,
                    "time": 253.1385679999993,
                    "velocity": 0.1968503937007874,
                    "duration": 0.8321163999999897
                },
                {
                    "name": "G3",
                    "midi": 55,
                    "time": 254.0144799999993,
                    "velocity": 0.1968503937007874,
                    "duration": 0.8321163999999897
                },
                {
                    "name": "D#4",
                    "midi": 63,
                    "time": 254.0144799999993,
                    "velocity": 0.23622047244094488,
                    "duration": 0.8321163999999897
                },
                {
                    "name": "C#4",
                    "midi": 61,
                    "time": 254.0144799999993,
                    "velocity": 0.1968503937007874,
                    "duration": 0.8321163999999897
                },
                {
                    "name": "G3",
                    "midi": 55,
                    "time": 254.8903919999993,
                    "velocity": 0.1968503937007874,
                    "duration": 0.8759119999999996
                },
                {
                    "name": "D#4",
                    "midi": 63,
                    "time": 254.8903919999993,
                    "velocity": 0.23622047244094488,
                    "duration": 0.8759119999999996
                },
                {
                    "name": "C4",
                    "midi": 60,
                    "time": 254.8903919999993,
                    "velocity": 0.1968503937007874,
                    "duration": 0.6569340000000068
                },
                {
                    "name": "A#3",
                    "midi": 58,
                    "time": 255.54732599999932,
                    "velocity": 0.1968503937007874,
                    "duration": 0.2189779999999928
                },
                {
                    "name": "G#3",
                    "midi": 56,
                    "time": 255.7663039999993,
                    "velocity": 0.2283464566929134,
                    "duration": 0.8321164000000181
                },
                {
                    "name": "D#4",
                    "midi": 63,
                    "time": 255.7663039999993,
                    "velocity": 0.2755905511811024,
                    "duration": 0.8321164000000181
                },
                {
                    "name": "B3",
                    "midi": 59,
                    "time": 255.7663039999993,
                    "velocity": 0.2283464566929134,
                    "duration": 0.8321164000000181
                },
                {
                    "name": "G#3",
                    "midi": 56,
                    "time": 256.64221599999934,
                    "velocity": 0.18110236220472442,
                    "duration": 0.8321164000000181
                },
                {
                    "name": "D#4",
                    "midi": 63,
                    "time": 256.64221599999934,
                    "velocity": 0.2204724409448819,
                    "duration": 0.8321164000000181
                },
                {
                    "name": "C4",
                    "midi": 60,
                    "time": 256.64221599999934,
                    "velocity": 0.18110236220472442,
                    "duration": 0.8321164000000181
                },
                {
                    "name": "G#3",
                    "midi": 56,
                    "time": 257.51812799999936,
                    "velocity": 0.18110236220472442,
                    "duration": 0.8321164000000181
                },
                {
                    "name": "D#4",
                    "midi": 63,
                    "time": 257.51812799999936,
                    "velocity": 0.2204724409448819,
                    "duration": 0.8321164000000181
                },
                {
                    "name": "C4",
                    "midi": 60,
                    "time": 257.51812799999936,
                    "velocity": 0.18110236220472442,
                    "duration": 0.8321164000000181
                },
                {
                    "name": "G#3",
                    "midi": 56,
                    "time": 258.3940399999994,
                    "velocity": 0.2204724409448819,
                    "duration": 0.8321164000000181
                },
                {
                    "name": "D#4",
                    "midi": 63,
                    "time": 258.3940399999994,
                    "velocity": 0.2204724409448819,
                    "duration": 0.8321164000000181
                },
                {
                    "name": "C4",
                    "midi": 60,
                    "time": 258.3940399999994,
                    "velocity": 0.18110236220472442,
                    "duration": 0.8321164000000181
                },
                {
                    "name": "C#4",
                    "midi": 61,
                    "time": 259.2699519999994,
                    "velocity": 0.1968503937007874,
                    "duration": 0.8321164000000181
                },
                {
                    "name": "D#4",
                    "midi": 63,
                    "time": 259.2699519999994,
                    "velocity": 0.23622047244094488,
                    "duration": 0.8321164000000181
                },
                {
                    "name": "C#4",
                    "midi": 61,
                    "time": 260.14586399999945,
                    "velocity": 0.1968503937007874,
                    "duration": 0.8321164000000181
                },
                {
                    "name": "D#4",
                    "midi": 63,
                    "time": 260.14586399999945,
                    "velocity": 0.23622047244094488,
                    "duration": 0.8321164000000181
                },
                {
                    "name": "C#4",
                    "midi": 61,
                    "time": 261.0217759999995,
                    "velocity": 0.1968503937007874,
                    "duration": 0.8321164000000181
                },
                {
                    "name": "D#4",
                    "midi": 63,
                    "time": 261.0217759999995,
                    "velocity": 0.23622047244094488,
                    "duration": 0.8321164000000181
                },
                {
                    "name": "C#4",
                    "midi": 61,
                    "time": 261.8976879999995,
                    "velocity": 0.1968503937007874,
                    "duration": 0.8321164000000181
                },
                {
                    "name": "D#4",
                    "midi": 63,
                    "time": 261.8976879999995,
                    "velocity": 0.23622047244094488,
                    "duration": 0.8321164000000181
                },
                {
                    "name": "C4",
                    "midi": 60,
                    "time": 263.6495119999995,
                    "velocity": 0.1968503937007874,
                    "duration": 0.8321164000000181
                },
                {
                    "name": "D#4",
                    "midi": 63,
                    "time": 263.6495119999995,
                    "velocity": 0.23622047244094488,
                    "duration": 0.8321164000000181
                },
                {
                    "name": "C4",
                    "midi": 60,
                    "time": 264.52542399999953,
                    "velocity": 0.1968503937007874,
                    "duration": 0.8321164000000181
                },
                {
                    "name": "D#4",
                    "midi": 63,
                    "time": 264.52542399999953,
                    "velocity": 0.23622047244094488,
                    "duration": 0.8321164000000181
                },
                {
                    "name": "C4",
                    "midi": 60,
                    "time": 265.40133599999956,
                    "velocity": 0.1968503937007874,
                    "duration": 0.8321164000000181
                },
                {
                    "name": "D#4",
                    "midi": 63,
                    "time": 265.40133599999956,
                    "velocity": 0.23622047244094488,
                    "duration": 0.8321164000000181
                },
                {
                    "name": "G3",
                    "midi": 55,
                    "time": 266.2772479999996,
                    "velocity": 0.1968503937007874,
                    "duration": 0.8321164000000181
                },
                {
                    "name": "C#4",
                    "midi": 61,
                    "time": 266.2772479999996,
                    "velocity": 0.1968503937007874,
                    "duration": 0.8321164000000181
                },
                {
                    "name": "D#4",
                    "midi": 63,
                    "time": 266.2772479999996,
                    "velocity": 0.23622047244094488,
                    "duration": 0.8321164000000181
                },
                {
                    "name": "G3",
                    "midi": 55,
                    "time": 267.1531599999996,
                    "velocity": 0.1968503937007874,
                    "duration": 0.8321164000000181
                },
                {
                    "name": "A#3",
                    "midi": 58,
                    "time": 267.1531599999996,
                    "velocity": 0.1968503937007874,
                    "duration": 0.8321164000000181
                },
                {
                    "name": "C#4",
                    "midi": 61,
                    "time": 267.1531599999996,
                    "velocity": 0.1968503937007874,
                    "duration": 0.8321164000000181
                },
                {
                    "name": "D#4",
                    "midi": 63,
                    "time": 267.1531599999996,
                    "velocity": 0.23622047244094488,
                    "duration": 0.8321164000000181
                },
                {
                    "name": "G3",
                    "midi": 55,
                    "time": 268.02907199999964,
                    "velocity": 0.1968503937007874,
                    "duration": 0.8321164000000181
                },
                {
                    "name": "A#3",
                    "midi": 58,
                    "time": 268.02907199999964,
                    "velocity": 0.1968503937007874,
                    "duration": 0.8321164000000181
                },
                {
                    "name": "C#4",
                    "midi": 61,
                    "time": 268.02907199999964,
                    "velocity": 0.1968503937007874,
                    "duration": 0.8321164000000181
                },
                {
                    "name": "D#4",
                    "midi": 63,
                    "time": 268.02907199999964,
                    "velocity": 0.23622047244094488,
                    "duration": 0.8321164000000181
                },
                {
                    "name": "G3",
                    "midi": 55,
                    "time": 268.9049839999997,
                    "velocity": 0.1968503937007874,
                    "duration": 0.8321164000000181
                },
                {
                    "name": "A#3",
                    "midi": 58,
                    "time": 268.9049839999997,
                    "velocity": 0.1968503937007874,
                    "duration": 0.8321164000000181
                },
                {
                    "name": "C#4",
                    "midi": 61,
                    "time": 268.9049839999997,
                    "velocity": 0.1968503937007874,
                    "duration": 0.8321164000000181
                },
                {
                    "name": "D#4",
                    "midi": 63,
                    "time": 268.9049839999997,
                    "velocity": 0.23622047244094488,
                    "duration": 0.8321164000000181
                },
                {
                    "name": "G#3",
                    "midi": 56,
                    "time": 270.65680799999967,
                    "velocity": 0.23622047244094488,
                    "duration": 0.875912000000028
                },
                {
                    "name": "C4",
                    "midi": 60,
                    "time": 270.65680799999967,
                    "velocity": 0.23622047244094488,
                    "duration": 0.875912000000028
                },
                {
                    "name": "D#4",
                    "midi": 63,
                    "time": 270.65680799999967,
                    "velocity": 0.23622047244094488,
                    "duration": 0.875912000000028
                },
                {
                    "name": "A#3",
                    "midi": 58,
                    "time": 272.4086319999997,
                    "velocity": 0.25196850393700787,
                    "duration": 0.875912000000028
                },
                {
                    "name": "C#4",
                    "midi": 61,
                    "time": 272.4086319999997,
                    "velocity": 0.25196850393700787,
                    "duration": 0.875912000000028
                },
                {
                    "name": "D#4",
                    "midi": 63,
                    "time": 272.4086319999997,
                    "velocity": 0.25196850393700787,
                    "duration": 0.875912000000028
                },
                {
                    "name": "G4",
                    "midi": 67,
                    "time": 272.4086319999997,
                    "velocity": 0.25196850393700787,
                    "duration": 0.875912000000028
                },
                {
                    "name": "C4",
                    "midi": 60,
                    "time": 274.1604559999998,
                    "velocity": 0.29133858267716534,
                    "duration": 0.875912000000028
                },
                {
                    "name": "D#4",
                    "midi": 63,
                    "time": 274.1604559999998,
                    "velocity": 0.29133858267716534,
                    "duration": 0.875912000000028
                },
                {
                    "name": "G#4",
                    "midi": 68,
                    "time": 274.1604559999998,
                    "velocity": 0.29133858267716534,
                    "duration": 0.875912000000028
                },
                {
                    "name": "C4",
                    "midi": 60,
                    "time": 275.91227999999984,
                    "velocity": 0.33858267716535434,
                    "duration": 0.875912000000028
                },
                {
                    "name": "E4",
                    "midi": 64,
                    "time": 275.91227999999984,
                    "velocity": 0.33858267716535434,
                    "duration": 0.875912000000028
                },
                {
                    "name": "G#4",
                    "midi": 68,
                    "time": 275.91227999999984,
                    "velocity": 0.33858267716535434,
                    "duration": 0.875912000000028
                },
                {
                    "name": "C#4",
                    "midi": 61,
                    "time": 277.6641039999999,
                    "velocity": 0.4015748031496063,
                    "duration": 0.875912000000028
                },
                {
                    "name": "F4",
                    "midi": 65,
                    "time": 277.6641039999999,
                    "velocity": 0.4015748031496063,
                    "duration": 0.875912000000028
                },
                {
                    "name": "G#4",
                    "midi": 68,
                    "time": 277.6641039999999,
                    "velocity": 0.4015748031496063,
                    "duration": 0.875912000000028
                },
                {
                    "name": "E4",
                    "midi": 64,
                    "time": 279.41592799999995,
                    "velocity": 0.47244094488188976,
                    "duration": 0.875912000000028
                },
                {
                    "name": "C#4",
                    "midi": 61,
                    "time": 279.41592799999995,
                    "velocity": 0.47244094488188976,
                    "duration": 0.875912000000028
                },
                {
                    "name": "G4",
                    "midi": 67,
                    "time": 279.41592799999995,
                    "velocity": 0.47244094488188976,
                    "duration": 0.875912000000028
                },
                {
                    "name": "A#4",
                    "midi": 70,
                    "time": 279.41592799999995,
                    "velocity": 0.47244094488188976,
                    "duration": 0.875912000000028
                },
                {
                    "name": "D4",
                    "midi": 62,
                    "time": 281.167752,
                    "velocity": 0.47244094488188976,
                    "duration": 0.875912000000028
                },
                {
                    "name": "F4",
                    "midi": 65,
                    "time": 281.167752,
                    "velocity": 0.47244094488188976,
                    "duration": 0.875912000000028
                },
                {
                    "name": "G#4",
                    "midi": 68,
                    "time": 281.167752,
                    "velocity": 0.47244094488188976,
                    "duration": 0.875912000000028
                },
                {
                    "name": "B4",
                    "midi": 71,
                    "time": 281.167752,
                    "velocity": 0.47244094488188976,
                    "duration": 0.875912000000028
                },
                {
                    "name": "C4",
                    "midi": 60,
                    "time": 284.67140000000006,
                    "velocity": 0.31496062992125984,
                    "duration": 0.875912000000028
                },
                {
                    "name": "G#3",
                    "midi": 56,
                    "time": 284.67140000000006,
                    "velocity": 0.2677165354330709,
                    "duration": 0.875912000000028
                },
                {
                    "name": "D#3",
                    "midi": 51,
                    "time": 284.67140000000006,
                    "velocity": 0.2677165354330709,
                    "duration": 0.875912000000028
                },
                {
                    "name": "C#4",
                    "midi": 61,
                    "time": 286.4232240000001,
                    "velocity": 0.31496062992125984,
                    "duration": 0.875912000000028
                },
                {
                    "name": "G3",
                    "midi": 55,
                    "time": 286.4232240000001,
                    "velocity": 0.2677165354330709,
                    "duration": 0.875912000000028
                },
                {
                    "name": "D#3",
                    "midi": 51,
                    "time": 286.4232240000001,
                    "velocity": 0.2677165354330709,
                    "duration": 0.875912000000028
                },
                {
                    "name": "G#3",
                    "midi": 56,
                    "time": 287.88307733333346,
                    "velocity": 0.25196850393700787,
                    "duration": 0.29197066666665705
                },
                {
                    "name": "D#3",
                    "midi": 51,
                    "time": 288.1750480000001,
                    "velocity": 0.30708661417322836,
                    "duration": 0.29197066666665705
                },
                {
                    "name": "C3",
                    "midi": 48,
                    "time": 288.4670186666668,
                    "velocity": 0.25196850393700787,
                    "duration": 0.29197066666665705
                },
                {
                    "name": "G#2",
                    "midi": 44,
                    "time": 288.75898933333343,
                    "velocity": 0.25196850393700787,
                    "duration": 0.29197066666665705
                },
                {
                    "name": "A#3",
                    "midi": 58,
                    "time": 289.6349013333334,
                    "velocity": 0.2677165354330709,
                    "duration": 0.29197066666665705
                },
                {
                    "name": "G3",
                    "midi": 55,
                    "time": 289.92687200000006,
                    "velocity": 0.30708661417322836,
                    "duration": 0.29197066666665705
                },
                {
                    "name": "D#3",
                    "midi": 51,
                    "time": 290.2188426666667,
                    "velocity": 0.25984251968503935,
                    "duration": 0.29197066666665705
                },
                {
                    "name": "A#2",
                    "midi": 46,
                    "time": 290.5108133333334,
                    "velocity": 0.25984251968503935,
                    "duration": 0.29197066666665705
                },
                {
                    "name": "C4",
                    "midi": 60,
                    "time": 291.38672533333335,
                    "velocity": 0.25984251968503935,
                    "duration": 0.29197066666665705
                },
                {
                    "name": "G#3",
                    "midi": 56,
                    "time": 291.678696,
                    "velocity": 0.31496062992125984,
                    "duration": 0.29197066666665705
                },
                {
                    "name": "D#3",
                    "midi": 51,
                    "time": 291.97066666666666,
                    "velocity": 0.2677165354330709,
                    "duration": 0.29197066666665705
                },
                {
                    "name": "C3",
                    "midi": 48,
                    "time": 292.2626373333333,
                    "velocity": 0.2677165354330709,
                    "duration": 0.29197066666665705
                },
                {
                    "name": "C4",
                    "midi": 60,
                    "time": 293.1385493333333,
                    "velocity": 0.36220472440944884,
                    "duration": 0.29197066666665705
                },
                {
                    "name": "G#3",
                    "midi": 56,
                    "time": 293.43051999999994,
                    "velocity": 0.41732283464566927,
                    "duration": 0.29197066666665705
                },
                {
                    "name": "E3",
                    "midi": 52,
                    "time": 293.7224906666666,
                    "velocity": 0.36220472440944884,
                    "duration": 0.29197066666665705
                },
                {
                    "name": "C3",
                    "midi": 48,
                    "time": 294.01446133333326,
                    "velocity": 0.36220472440944884,
                    "duration": 0.29197066666665705
                },
                {
                    "name": "C#4",
                    "midi": 61,
                    "time": 294.89037333333323,
                    "velocity": 0.3700787401574803,
                    "duration": 0.29197066666665705
                },
                {
                    "name": "G#3",
                    "midi": 56,
                    "time": 295.1823439999999,
                    "velocity": 0.4566929133858268,
                    "duration": 0.29197066666665705
                },
                {
                    "name": "F3",
                    "midi": 53,
                    "time": 295.47431466666654,
                    "velocity": 0.3858267716535433,
                    "duration": 0.29197066666665705
                },
                {
                    "name": "C#3",
                    "midi": 49,
                    "time": 295.7662853333332,
                    "velocity": 0.3858267716535433,
                    "duration": 0.29197066666665705
                },
                {
                    "name": "C#4",
                    "midi": 61,
                    "time": 296.6421973333332,
                    "velocity": 0.4409448818897638,
                    "duration": 0.29197066666665705
                },
                {
                    "name": "A#3",
                    "midi": 58,
                    "time": 296.93416799999983,
                    "velocity": 0.49606299212598426,
                    "duration": 0.29197066666665705
                },
                {
                    "name": "G3",
                    "midi": 55,
                    "time": 297.2261386666665,
                    "velocity": 0.4251968503937008,
                    "duration": 0.29197066666665705
                },
                {
                    "name": "D#3",
                    "midi": 51,
                    "time": 297.51810933333314,
                    "velocity": 0.4330708661417323,
                    "duration": 0.29197066666665705
                },
                {
                    "name": "D4",
                    "midi": 62,
                    "time": 298.3940213333331,
                    "velocity": 0.6141732283464567,
                    "duration": 2.9197066666666274
                },
                {
                    "name": "B3",
                    "midi": 59,
                    "time": 298.68599199999977,
                    "velocity": 0.44881889763779526,
                    "duration": 2.6277359999999703
                },
                {
                    "name": "G#3",
                    "midi": 56,
                    "time": 298.97796266666643,
                    "velocity": 0.48031496062992124,
                    "duration": 2.3357653333333133
                },
                {
                    "name": "E3",
                    "midi": 52,
                    "time": 299.2699333333331,
                    "velocity": 0.5118110236220472,
                    "duration": 2.043794666666656
                },
                {
                    "name": "D#3",
                    "midi": 51,
                    "time": 301.6056986666664,
                    "velocity": 0.5039370078740157,
                    "duration": 0.14598533333332853
                },
                {
                    "name": "G#3",
                    "midi": 56,
                    "time": 301.89766933333306,
                    "velocity": 0.5039370078740157,
                    "duration": 0.14598533333332853
                },
                {
                    "name": "C4",
                    "midi": 60,
                    "time": 302.1896399999997,
                    "velocity": 0.5039370078740157,
                    "duration": 0.14598533333332853
                },
                {
                    "name": "D#4",
                    "midi": 63,
                    "time": 302.48161066666637,
                    "velocity": 0.4566929133858268,
                    "duration": 0.14598533333332853
                },
                {
                    "name": "G#4",
                    "midi": 68,
                    "time": 302.773581333333,
                    "velocity": 0.4566929133858268,
                    "duration": 0.14598533333332853
                },
                {
                    "name": "C5",
                    "midi": 72,
                    "time": 303.0655519999997,
                    "velocity": 0.5039370078740157,
                    "duration": 0.29197066666665705
                },
                {
                    "name": "B4",
                    "midi": 71,
                    "time": 303.35752266666634,
                    "velocity": 0.4566929133858268,
                    "duration": 0.29197066666665705
                },
                {
                    "name": "C#5",
                    "midi": 73,
                    "time": 303.649493333333,
                    "velocity": 0.4566929133858268,
                    "duration": 0.29197066666665705
                },
                {
                    "name": "C5",
                    "midi": 72,
                    "time": 303.94146399999966,
                    "velocity": 0.5039370078740157,
                    "duration": 0.2189779999999928
                },
                {
                    "name": "A#4",
                    "midi": 70,
                    "time": 304.2334346666663,
                    "velocity": 0.4645669291338583,
                    "duration": 0.2189779999999928
                },
                {
                    "name": "G#4",
                    "midi": 68,
                    "time": 304.52540533333297,
                    "velocity": 0.4645669291338583,
                    "duration": 0.2189779999999928
                },
                {
                    "name": "C#5",
                    "midi": 73,
                    "time": 304.8173759999996,
                    "velocity": 0.4881889763779528,
                    "duration": 3.5036479999999983
                },
                {
                    "name": "D#4",
                    "midi": 63,
                    "time": 304.8173759999996,
                    "velocity": 0.4094488188976378,
                    "duration": 3.5036479999999983
                },
                {
                    "name": "D#2",
                    "midi": 39,
                    "time": 308.6129946666663,
                    "velocity": 0.5039370078740157,
                    "duration": 0.14598533333332853
                },
                {
                    "name": "G#2",
                    "midi": 44,
                    "time": 308.90496533333294,
                    "velocity": 0.5039370078740157,
                    "duration": 0.14598533333332853
                },
                {
                    "name": "C3",
                    "midi": 48,
                    "time": 309.1969359999996,
                    "velocity": 0.5039370078740157,
                    "duration": 0.14598533333332853
                },
                {
                    "name": "D#3",
                    "midi": 51,
                    "time": 309.48890666666625,
                    "velocity": 0.4566929133858268,
                    "duration": 0.14598533333332853
                },
                {
                    "name": "G#3",
                    "midi": 56,
                    "time": 309.7808773333329,
                    "velocity": 0.4566929133858268,
                    "duration": 0.14598533333332853
                },
                {
                    "name": "C4",
                    "midi": 60,
                    "time": 310.07284799999957,
                    "velocity": 0.5039370078740157,
                    "duration": 0.29197066666665705
                },
                {
                    "name": "B3",
                    "midi": 59,
                    "time": 310.3648186666662,
                    "velocity": 0.4566929133858268,
                    "duration": 0.29197066666665705
                },
                {
                    "name": "C#4",
                    "midi": 61,
                    "time": 310.6567893333329,
                    "velocity": 0.4566929133858268,
                    "duration": 0.29197066666665705
                },
                {
                    "name": "C4",
                    "midi": 60,
                    "time": 310.94875999999954,
                    "velocity": 0.5039370078740157,
                    "duration": 0.2189779999999928
                },
                {
                    "name": "A#3",
                    "midi": 58,
                    "time": 311.2407306666662,
                    "velocity": 0.4645669291338583,
                    "duration": 0.2189779999999928
                },
                {
                    "name": "G#3",
                    "midi": 56,
                    "time": 311.53270133333285,
                    "velocity": 0.4645669291338583,
                    "duration": 0.2189779999999928
                },
                {
                    "name": "C#4",
                    "midi": 61,
                    "time": 311.8246719999995,
                    "velocity": 0.4881889763779528,
                    "duration": 3.5036479999999983
                },
                {
                    "name": "D#3",
                    "midi": 51,
                    "time": 311.8246719999995,
                    "velocity": 0.4094488188976378,
                    "duration": 3.5036479999999983
                },
                {
                    "name": "G#3",
                    "midi": 56,
                    "time": 315.3283199999995,
                    "velocity": 0.30708661417322836,
                    "duration": 0.875912000000028
                },
                {
                    "name": "D#3",
                    "midi": 51,
                    "time": 316.20423199999954,
                    "velocity": 0.25196850393700787,
                    "duration": 0.875912000000028
                },
                {
                    "name": "G3",
                    "midi": 55,
                    "time": 317.08014399999956,
                    "velocity": 0.30708661417322836,
                    "duration": 0.875912000000028
                },
                {
                    "name": "D#3",
                    "midi": 51,
                    "time": 317.9560559999996,
                    "velocity": 0.2283464566929134,
                    "duration": 0.875912000000028
                },
                {
                    "name": "G#3",
                    "midi": 56,
                    "time": 318.8319679999996,
                    "velocity": 0.33070866141732286,
                    "duration": 0.875912000000028
                },
                {
                    "name": "D#3",
                    "midi": 51,
                    "time": 319.70787999999965,
                    "velocity": 0.28346456692913385,
                    "duration": 0.875912000000028
                },
                {
                    "name": "C3",
                    "midi": 48,
                    "time": 320.5837919999997,
                    "velocity": 0.2992125984251969,
                    "duration": 0.875912000000028
                },
                {
                    "name": "G#2",
                    "midi": 44,
                    "time": 321.4597039999997,
                    "velocity": 0.31496062992125984,
                    "duration": 0.875912000000028
                },
                {
                    "name": "G2",
                    "midi": 43,
                    "time": 322.33561599999973,
                    "velocity": 0.36220472440944884,
                    "duration": 0.875912000000028
                },
                {
                    "name": "D#2",
                    "midi": 39,
                    "time": 323.21152799999976,
                    "velocity": 0.25196850393700787,
                    "duration": 0.875912000000028
                },
                {
                    "name": "G#2",
                    "midi": 44,
                    "time": 324.0874399999998,
                    "velocity": 0.2283464566929134,
                    "duration": 0.875912000000028
                },
                {
                    "name": "C3",
                    "midi": 48,
                    "time": 324.9633519999998,
                    "velocity": 0.25196850393700787,
                    "duration": 0.875912000000028
                },
                {
                    "name": "D#3",
                    "midi": 51,
                    "time": 325.83926399999984,
                    "velocity": 0.28346456692913385,
                    "duration": 0.875912000000028
                },
                {
                    "name": "F3",
                    "midi": 53,
                    "time": 326.7151759999999,
                    "velocity": 0.33070866141732286,
                    "duration": 0.875912000000028
                },
                {
                    "name": "D#3",
                    "midi": 51,
                    "time": 327.5910879999999,
                    "velocity": 0.28346456692913385,
                    "duration": 2.627736000000084
                },
                {
                    "name": "C#3",
                    "midi": 49,
                    "time": 328.4669999999999,
                    "velocity": 0.25984251968503935,
                    "duration": 0.875912000000028
                },
                {
                    "name": "C3",
                    "midi": 48,
                    "time": 329.34291199999996,
                    "velocity": 0.33858267716535434,
                    "duration": 1.751824000000056
                },
                {
                    "name": "G#3",
                    "midi": 56,
                    "time": 330.218824,
                    "velocity": 0.33858267716535434,
                    "duration": 1.751824000000056
                },
                {
                    "name": "A#2",
                    "midi": 46,
                    "time": 331.094736,
                    "velocity": 0.28346456692913385,
                    "duration": 1.751824000000056
                },
                {
                    "name": "G3",
                    "midi": 55,
                    "time": 331.97064800000004,
                    "velocity": 0.33858267716535434,
                    "duration": 1.751824000000056
                },
                {
                    "name": "G#2",
                    "midi": 44,
                    "time": 332.84656000000007,
                    "velocity": 0.36220472440944884,
                    "duration": 1.751824000000056
                },
                {
                    "name": "G#3",
                    "midi": 56,
                    "time": 333.7224720000001,
                    "velocity": 0.33858267716535434,
                    "duration": 1.751824000000056
                },
                {
                    "name": "C#3",
                    "midi": 49,
                    "time": 334.5983840000001,
                    "velocity": 0.3543307086614173,
                    "duration": 1.7518239999999992
                },
                {
                    "name": "A#3",
                    "midi": 58,
                    "time": 335.47429600000015,
                    "velocity": 0.33858267716535434,
                    "duration": 0.4379559999999856
                },
                {
                    "name": "C#4",
                    "midi": 61,
                    "time": 335.91225200000014,
                    "velocity": 0.3228346456692913,
                    "duration": 0.4379559999999856
                },
                {
                    "name": "D#3",
                    "midi": 51,
                    "time": 336.3502080000001,
                    "velocity": 0.41732283464566927,
                    "duration": 1.751824000000056
                },
                {
                    "name": "C4",
                    "midi": 60,
                    "time": 337.22612000000015,
                    "velocity": 0.41732283464566927,
                    "duration": 1.751824000000056
                },
                {
                    "name": "D#3",
                    "midi": 51,
                    "time": 338.1020320000002,
                    "velocity": 0.28346456692913385,
                    "duration": 1.751824000000056
                },
                {
                    "name": "G3",
                    "midi": 55,
                    "time": 338.9779440000002,
                    "velocity": 0.41732283464566927,
                    "duration": 1.751824000000056
                },
                {
                    "name": "G#2",
                    "midi": 44,
                    "time": 339.85385600000023,
                    "velocity": 0.3858267716535433,
                    "duration": 1.751824000000056
                },
                {
                    "name": "D#3",
                    "midi": 51,
                    "time": 339.85385600000023,
                    "velocity": 0.3858267716535433,
                    "duration": 1.751824000000056
                },
                {
                    "name": "G#3",
                    "midi": 56,
                    "time": 340.72976800000026,
                    "velocity": 0.41732283464566927,
                    "duration": 0.875912000000028
                },
                {
                    "name": "A#2",
                    "midi": 46,
                    "time": 341.6056800000003,
                    "velocity": 0.36220472440944884,
                    "duration": 0.875912000000028
                },
                {
                    "name": "D#3",
                    "midi": 51,
                    "time": 341.6056800000003,
                    "velocity": 0.36220472440944884,
                    "duration": 0.875912000000028
                },
                {
                    "name": "A#3",
                    "midi": 58,
                    "time": 341.6056800000003,
                    "velocity": 0.4330708661417323,
                    "duration": 0.875912000000028
                },
                {
                    "name": "B2",
                    "midi": 47,
                    "time": 342.4815920000003,
                    "velocity": 0.3937007874015748,
                    "duration": 0.875912000000028
                },
                {
                    "name": "D#3",
                    "midi": 51,
                    "time": 342.4815920000003,
                    "velocity": 0.3937007874015748,
                    "duration": 0.875912000000028
                },
                {
                    "name": "B3",
                    "midi": 59,
                    "time": 342.4815920000003,
                    "velocity": 0.4645669291338583,
                    "duration": 0.875912000000028
                },
                {
                    "name": "C4",
                    "midi": 60,
                    "time": 343.35750400000035,
                    "velocity": 0.41732283464566927,
                    "duration": 0.8759119999999712
                },
                {
                    "name": "C3",
                    "midi": 48,
                    "time": 343.35750400000035,
                    "velocity": 0.5039370078740157,
                    "duration": 1.7518239999999423
                },
                {
                    "name": "D#3",
                    "midi": 51,
                    "time": 343.35750400000035,
                    "velocity": 0.5039370078740157,
                    "duration": 1.7518239999999423
                },
                {
                    "name": "G#3",
                    "midi": 56,
                    "time": 343.79546000000033,
                    "velocity": 0.41732283464566927,
                    "duration": 0.8759119999999712
                },
                {
                    "name": "G#3",
                    "midi": 56,
                    "time": 344.6713720000003,
                    "velocity": 0.41732283464566927,
                    "duration": 0.8759119999999712
                },
                {
                    "name": "A#2",
                    "midi": 46,
                    "time": 345.1093280000003,
                    "velocity": 0.4094488188976378,
                    "duration": 1.7518239999999992
                },
                {
                    "name": "D#3",
                    "midi": 51,
                    "time": 345.1093280000003,
                    "velocity": 0.4094488188976378,
                    "duration": 1.7518239999999992
                },
                {
                    "name": "G3",
                    "midi": 55,
                    "time": 345.5472840000003,
                    "velocity": 0.41732283464566927,
                    "duration": 0.875912000000028
                },
                {
                    "name": "G3",
                    "midi": 55,
                    "time": 346.4231960000003,
                    "velocity": 0.41732283464566927,
                    "duration": 0.8759119999999712
                },
                {
                    "name": "G#2",
                    "midi": 44,
                    "time": 346.8611520000003,
                    "velocity": 0.4330708661417323,
                    "duration": 1.7518239999999992
                },
                {
                    "name": "G#3",
                    "midi": 56,
                    "time": 347.2991080000003,
                    "velocity": 0.41732283464566927,
                    "duration": 0.875912000000028
                },
                {
                    "name": "G#3",
                    "midi": 56,
                    "time": 348.1750200000003,
                    "velocity": 0.41732283464566927,
                    "duration": 1.3138679999999567
                },
                {
                    "name": "C#3",
                    "midi": 49,
                    "time": 348.6129760000003,
                    "velocity": 0.3779527559055118,
                    "duration": 1.7518239999999423
                },
                {
                    "name": "A3",
                    "midi": 57,
                    "time": 349.0509320000003,
                    "velocity": 0.41732283464566927,
                    "duration": 0.4379559999999856
                },
                {
                    "name": "A#3",
                    "midi": 58,
                    "time": 349.48888800000026,
                    "velocity": 0.41732283464566927,
                    "duration": 0.4379559999999856
                },
                {
                    "name": "C#4",
                    "midi": 61,
                    "time": 349.92684400000024,
                    "velocity": 0.41732283464566927,
                    "duration": 1.3138680000000136
                },
                {
                    "name": "D#3",
                    "midi": 51,
                    "time": 350.36480000000023,
                    "velocity": 0.4566929133858268,
                    "duration": 1.751824000000056
                },
                {
                    "name": "C4",
                    "midi": 60,
                    "time": 351.24071200000026,
                    "velocity": 0.41732283464566927,
                    "duration": 0.875912000000028
                },
                {
                    "name": "C#4",
                    "midi": 61,
                    "time": 352.1166240000003,
                    "velocity": 0.41732283464566927,
                    "duration": 0.875912000000028
                },
                {
                    "name": "D#3",
                    "midi": 51,
                    "time": 352.1166240000003,
                    "velocity": 0.4094488188976378,
                    "duration": 1.751824000000056
                },
                {
                    "name": "A#3",
                    "midi": 58,
                    "time": 352.9925360000003,
                    "velocity": 0.36220472440944884,
                    "duration": 0.875912000000028
                },
                {
                    "name": "C#4",
                    "midi": 61,
                    "time": 352.9925360000003,
                    "velocity": 0.36220472440944884,
                    "duration": 0.875912000000028
                },
                {
                    "name": "G#2",
                    "midi": 44,
                    "time": 353.86844800000034,
                    "velocity": 0.31496062992125984,
                    "duration": 0.875912000000028
                },
                {
                    "name": "G#3",
                    "midi": 56,
                    "time": 353.86844800000034,
                    "velocity": 0.31496062992125984,
                    "duration": 0.875912000000028
                },
                {
                    "name": "C3",
                    "midi": 48,
                    "time": 354.74436000000037,
                    "velocity": 0.28346456692913385,
                    "duration": 0.875912000000028
                },
                {
                    "name": "D#3",
                    "midi": 51,
                    "time": 355.6202720000004,
                    "velocity": 0.28346456692913385,
                    "duration": 0.875912000000028
                },
                {
                    "name": "G#3",
                    "midi": 56,
                    "time": 356.4961840000004,
                    "velocity": 0.28346456692913385,
                    "duration": 0.875912000000028
                },
                {
                    "name": "G3",
                    "midi": 55,
                    "time": 357.37209600000045,
                    "velocity": 0.31496062992125984,
                    "duration": 0.875912000000028
                },
                {
                    "name": "F3",
                    "midi": 53,
                    "time": 358.2480080000005,
                    "velocity": 0.28346456692913385,
                    "duration": 0.875912000000028
                },
                {
                    "name": "D#3",
                    "midi": 51,
                    "time": 359.1239200000005,
                    "velocity": 0.28346456692913385,
                    "duration": 0.875912000000028
                },
                {
                    "name": "G3",
                    "midi": 55,
                    "time": 359.99983200000054,
                    "velocity": 0.30708661417322836,
                    "duration": 0.875912000000028
                },
                {
                    "name": "G#3",
                    "midi": 56,
                    "time": 360.87574400000057,
                    "velocity": 0.31496062992125984,
                    "duration": 0.875912000000028
                },
                {
                    "name": "D#3",
                    "midi": 51,
                    "time": 361.7516560000006,
                    "velocity": 0.28346456692913385,
                    "duration": 0.875912000000028
                },
                {
                    "name": "C3",
                    "midi": 48,
                    "time": 362.6275680000006,
                    "velocity": 0.28346456692913385,
                    "duration": 0.875912000000028
                },
                {
                    "name": "G#2",
                    "midi": 44,
                    "time": 363.50348000000065,
                    "velocity": 0.25984251968503935,
                    "duration": 0.875912000000028
                },
                {
                    "name": "G2",
                    "midi": 43,
                    "time": 364.3793920000007,
                    "velocity": 0.31496062992125984,
                    "duration": 0.875912000000028
                },
                {
                    "name": "F2",
                    "midi": 41,
                    "time": 365.2553040000007,
                    "velocity": 0.29133858267716534,
                    "duration": 0.875912000000028
                },
                {
                    "name": "D#2",
                    "midi": 39,
                    "time": 366.13121600000073,
                    "velocity": 0.31496062992125984,
                    "duration": 0.875912000000028
                },
                {
                    "name": "G2",
                    "midi": 43,
                    "time": 367.00712800000076,
                    "velocity": 0.2992125984251969,
                    "duration": 0.875912000000028
                },
                {
                    "name": "G#2",
                    "midi": 44,
                    "time": 367.8830400000008,
                    "velocity": 0.31496062992125984,
                    "duration": 0.875912000000028
                },
                {
                    "name": "D#2",
                    "midi": 39,
                    "time": 368.7589520000008,
                    "velocity": 0.28346456692913385,
                    "duration": 0.875912000000028
                },
                {
                    "name": "C2",
                    "midi": 36,
                    "time": 369.63486400000085,
                    "velocity": 0.28346456692913385,
                    "duration": 0.875912000000028
                },
                {
                    "name": "G#1",
                    "midi": 32,
                    "time": 370.5107760000009,
                    "velocity": 0.23622047244094488,
                    "duration": 0.875912000000028
                },
                {
                    "name": "G#2",
                    "midi": 44,
                    "time": 370.5107760000009,
                    "velocity": 0.28346456692913385,
                    "duration": 0.875912000000028
                },
                {
                    "name": "G1",
                    "midi": 31,
                    "time": 371.3866880000009,
                    "velocity": 0.2677165354330709,
                    "duration": 0.875912000000028
                },
                {
                    "name": "G2",
                    "midi": 43,
                    "time": 371.3866880000009,
                    "velocity": 0.31496062992125984,
                    "duration": 0.875912000000028
                },
                {
                    "name": "F1",
                    "midi": 29,
                    "time": 372.26260000000093,
                    "velocity": 0.23622047244094488,
                    "duration": 0.875912000000028
                },
                {
                    "name": "F2",
                    "midi": 41,
                    "time": 372.26260000000093,
                    "velocity": 0.28346456692913385,
                    "duration": 0.875912000000028
                },
                {
                    "name": "G1",
                    "midi": 31,
                    "time": 373.13851200000096,
                    "velocity": 0.23622047244094488,
                    "duration": 0.875912000000028
                },
                {
                    "name": "G2",
                    "midi": 43,
                    "time": 373.13851200000096,
                    "velocity": 0.28346456692913385,
                    "duration": 0.875912000000028
                },
                {
                    "name": "D#2",
                    "midi": 39,
                    "time": 374.014424000001,
                    "velocity": 0.30708661417322836,
                    "duration": 0.875912000000028
                },
                {
                    "name": "G#1",
                    "midi": 32,
                    "time": 374.890336000001,
                    "velocity": 0.31496062992125984,
                    "duration": 0.875912000000028
                },
                {
                    "name": "G#2",
                    "midi": 44,
                    "time": 375.76624800000104,
                    "velocity": 0.2755905511811024,
                    "duration": 3.503648000000112
                },
                {
                    "name": "D#2",
                    "midi": 39,
                    "time": 376.64216000000107,
                    "velocity": 0.2677165354330709,
                    "duration": 0.875912000000028
                },
                {
                    "name": "C2",
                    "midi": 36,
                    "time": 377.5180720000011,
                    "velocity": 0.2440944881889764,
                    "duration": 0.875912000000028
                },
                {
                    "name": "G#1",
                    "midi": 32,
                    "time": 378.3939840000011,
                    "velocity": 0.2440944881889764,
                    "duration": 0.875912000000028
                },
                {
                    "name": "G#2",
                    "midi": 44,
                    "time": 379.26989600000115,
                    "velocity": 0.25984251968503935,
                    "duration": 3.503648000000112
                },
                {
                    "name": "D#2",
                    "midi": 39,
                    "time": 380.1458080000012,
                    "velocity": 0.2755905511811024,
                    "duration": 0.875912000000028
                },
                {
                    "name": "C2",
                    "midi": 36,
                    "time": 381.0217200000012,
                    "velocity": 0.25984251968503935,
                    "duration": 0.875912000000028
                },
                {
                    "name": "G#1",
                    "midi": 32,
                    "time": 381.89763200000124,
                    "velocity": 0.2283464566929134,
                    "duration": 0.875912000000028
                },
                {
                    "name": "G#2",
                    "midi": 44,
                    "time": 382.77354400000127,
                    "velocity": 0.2440944881889764,
                    "duration": 3.503648000000112
                },
                {
                    "name": "D#2",
                    "midi": 39,
                    "time": 383.6494560000013,
                    "velocity": 0.25196850393700787,
                    "duration": 0.875912000000028
                },
                {
                    "name": "C2",
                    "midi": 36,
                    "time": 384.5253680000013,
                    "velocity": 0.23622047244094488,
                    "duration": 0.875912000000028
                },
                {
                    "name": "G#1",
                    "midi": 32,
                    "time": 385.40128000000135,
                    "velocity": 0.2047244094488189,
                    "duration": 0.875912000000028
                },
                {
                    "name": "G#1",
                    "midi": 32,
                    "time": 387.1531040000014,
                    "velocity": 0.1889763779527559,
                    "duration": 0.875912000000028
                },
                {
                    "name": "G#1",
                    "midi": 32,
                    "time": 388.90492800000146,
                    "velocity": 0.1968503937007874,
                    "duration": 3.5036479999999983
                }
            ],
            "controlChanges": {},
            "id": 2,
            "name": "Piano left",
            "instrumentNumber": 0,
            "instrument": "acoustic grand piano",
            "instrumentFamily": "piano",
            "channelNumber": 0,
            "isPercussion": false
        },
        {
            "startTime": 0,
            "duration": 0,
            "length": 0,
            "notes": [],
            "controlChanges": {
                "64": [
                    {
                        "number": 64,
                        "time": 0.10401454999999998,
                        "value": 1
                    },
                    {
                        "number": 64,
                        "time": 1.7773714333333333,
                        "value": 0
                    },
                    {
                        "number": 64,
                        "time": 1.8941597,
                        "value": 1
                    },
                    {
                        "number": 64,
                        "time": 3.5036479999999997,
                        "value": 0
                    },
                    {
                        "number": 64,
                        "time": 4.421530783333333,
                        "value": 1
                    },
                    {
                        "number": 64,
                        "time": 6.167880333333333,
                        "value": 0
                    },
                    {
                        "number": 64,
                        "time": 7.1386828,
                        "value": 1
                    },
                    {
                        "number": 64,
                        "time": 8.749995916666666,
                        "value": 0
                    },
                    {
                        "number": 64,
                        "time": 8.826638216666666,
                        "value": 1
                    },
                    {
                        "number": 64,
                        "time": 10.510943999999999,
                        "value": 0
                    },
                    {
                        "number": 64,
                        "time": 11.262768466666666,
                        "value": 1
                    },
                    {
                        "number": 64,
                        "time": 13.167877066666666,
                        "value": 0
                    },
                    {
                        "number": 64,
                        "time": 14.284664866666665,
                        "value": 1
                    },
                    {
                        "number": 64,
                        "time": 15.793788249999999,
                        "value": 0
                    },
                    {
                        "number": 64,
                        "time": 16.076634833333333,
                        "value": 1
                    },
                    {
                        "number": 64,
                        "time": 17.5291889,
                        "value": 0
                    },
                    {
                        "number": 64,
                        "time": 17.77553915,
                        "value": 1
                    },
                    {
                        "number": 64,
                        "time": 19.2810129,
                        "value": 0
                    },
                    {
                        "number": 64,
                        "time": 19.379553,
                        "value": 1
                    },
                    {
                        "number": 64,
                        "time": 20.9780924,
                        "value": 0
                    },
                    {
                        "number": 64,
                        "time": 22.95436885,
                        "value": 1
                    },
                    {
                        "number": 64,
                        "time": 23.675171433333336,
                        "value": 0
                    },
                    {
                        "number": 64,
                        "time": 23.959842833333337,
                        "value": 1
                    },
                    {
                        "number": 64,
                        "time": 24.525536000000002,
                        "value": 0
                    },
                    {
                        "number": 64,
                        "time": 24.591229400000003,
                        "value": 1
                    },
                    {
                        "number": 64,
                        "time": 26.29378335,
                        "value": 0
                    },
                    {
                        "number": 64,
                        "time": 26.363126383333334,
                        "value": 1
                    },
                    {
                        "number": 64,
                        "time": 26.715316,
                        "value": 1
                    },
                    {
                        "number": 64,
                        "time": 26.744513066666666,
                        "value": 0
                    },
                    {
                        "number": 64,
                        "time": 27.167870533333332,
                        "value": 0
                    },
                    {
                        "number": 64,
                        "time": 27.209841316666665,
                        "value": 1
                    },
                    {
                        "number": 64,
                        "time": 28.05473143333333,
                        "value": 0
                    },
                    {
                        "number": 64,
                        "time": 28.138672999999997,
                        "value": 1
                    },
                    {
                        "number": 64,
                        "time": 29.80655543333333,
                        "value": 0
                    },
                    {
                        "number": 64,
                        "time": 29.923343699999997,
                        "value": 1
                    },
                    {
                        "number": 64,
                        "time": 31.532831999999996,
                        "value": 0
                    },
                    {
                        "number": 64,
                        "time": 31.945240566666662,
                        "value": 1
                    },
                    {
                        "number": 64,
                        "time": 35.03648,
                        "value": 0
                    },
                    {
                        "number": 64,
                        "time": 35.1678668,
                        "value": 1
                    },
                    {
                        "number": 64,
                        "time": 36.80655216666666,
                        "value": 0
                    },
                    {
                        "number": 64,
                        "time": 36.903267449999994,
                        "value": 1
                    },
                    {
                        "number": 64,
                        "time": 38.540127999999996,
                        "value": 0
                    },
                    {
                        "number": 64,
                        "time": 39.04195258333333,
                        "value": 1
                    },
                    {
                        "number": 64,
                        "time": 40.291951999999995,
                        "value": 0
                    },
                    {
                        "number": 64,
                        "time": 40.605820466666664,
                        "value": 1
                    },
                    {
                        "number": 64,
                        "time": 42.043775999999994,
                        "value": 0
                    },
                    {
                        "number": 64,
                        "time": 42.109469399999995,
                        "value": 1
                    },
                    {
                        "number": 64,
                        "time": 43.82297224999999,
                        "value": 0
                    },
                    {
                        "number": 64,
                        "time": 43.88684083333332,
                        "value": 1
                    },
                    {
                        "number": 64,
                        "time": 45.55837289999999,
                        "value": 0
                    },
                    {
                        "number": 64,
                        "time": 45.68975969999999,
                        "value": 1
                    },
                    {
                        "number": 64,
                        "time": 45.98537999999999,
                        "value": 0
                    },
                    {
                        "number": 64,
                        "time": 49.17698434999999,
                        "value": 1
                    },
                    {
                        "number": 64,
                        "time": 49.941582533333325,
                        "value": 0
                    },
                    {
                        "number": 64,
                        "time": 50.17698388333332,
                        "value": 1
                    },
                    {
                        "number": 64,
                        "time": 50.81931934999999,
                        "value": 0
                    },
                    {
                        "number": 64,
                        "time": 51.094866666666654,
                        "value": 1
                    },
                    {
                        "number": 64,
                        "time": 51.70435543333332,
                        "value": 0
                    },
                    {
                        "number": 64,
                        "time": 51.88866191666665,
                        "value": 1
                    },
                    {
                        "number": 64,
                        "time": 52.55471999999998,
                        "value": 0
                    },
                    {
                        "number": 64,
                        "time": 52.78647171666665,
                        "value": 1
                    },
                    {
                        "number": 64,
                        "time": 53.46347869999998,
                        "value": 0
                    },
                    {
                        "number": 64,
                        "time": 54.448879699999985,
                        "value": 1
                    },
                    {
                        "number": 64,
                        "time": 54.89960941666665,
                        "value": 0
                    },
                    {
                        "number": 64,
                        "time": 56.15873291666665,
                        "value": 1
                    },
                    {
                        "number": 64,
                        "time": 57.81019199999999,
                        "value": 0
                    },
                    {
                        "number": 64,
                        "time": 59.999971999999985,
                        "value": 1
                    },
                    {
                        "number": 64,
                        "time": 61.33938743333332,
                        "value": 0
                    },
                    {
                        "number": 64,
                        "time": 63.131357399999985,
                        "value": 1
                    },
                    {
                        "number": 64,
                        "time": 64.84486024999998,
                        "value": 0
                    },
                    {
                        "number": 64,
                        "time": 66.71529733333331,
                        "value": 1
                    },
                    {
                        "number": 64,
                        "time": 68.34668343333331,
                        "value": 0
                    },
                    {
                        "number": 64,
                        "time": 70.13682858333331,
                        "value": 1
                    },
                    {
                        "number": 64,
                        "time": 71.85033143333331,
                        "value": 0
                    },
                    {
                        "number": 64,
                        "time": 73.72259333333331,
                        "value": 1
                    },
                    {
                        "number": 64,
                        "time": 75.35397943333331,
                        "value": 0
                    },
                    {
                        "number": 64,
                        "time": 80.66237111666663,
                        "value": 1
                    },
                    {
                        "number": 64,
                        "time": 83.2262385333333,
                        "value": 0
                    },
                    {
                        "number": 64,
                        "time": 83.3083552833333,
                        "value": 1
                    },
                    {
                        "number": 64,
                        "time": 84.08755199999996,
                        "value": 0
                    },
                    {
                        "number": 64,
                        "time": 84.58937658333329,
                        "value": 1
                    },
                    {
                        "number": 64,
                        "time": 84.99083624999996,
                        "value": 0
                    },
                    {
                        "number": 64,
                        "time": 85.42331779999996,
                        "value": 1
                    },
                    {
                        "number": 64,
                        "time": 86.72258726666664,
                        "value": 0
                    },
                    {
                        "number": 64,
                        "time": 87.13317101666664,
                        "value": 1
                    },
                    {
                        "number": 64,
                        "time": 87.59119999999997,
                        "value": 0
                    },
                    {
                        "number": 64,
                        "time": 87.70798826666663,
                        "value": 1
                    },
                    {
                        "number": 64,
                        "time": 90.2280600833333,
                        "value": 0
                    },
                    {
                        "number": 64,
                        "time": 90.30287756666664,
                        "value": 1
                    },
                    {
                        "number": 64,
                        "time": 91.09484799999997,
                        "value": 0
                    },
                    {
                        "number": 64,
                        "time": 91.39776756666663,
                        "value": 1
                    },
                    {
                        "number": 64,
                        "time": 92.0017818833333,
                        "value": 0
                    },
                    {
                        "number": 64,
                        "time": 92.42513934999997,
                        "value": 1
                    },
                    {
                        "number": 64,
                        "time": 94.59849599999997,
                        "value": 0
                    },
                    {
                        "number": 64,
                        "time": 94.68243756666664,
                        "value": 1
                    },
                    {
                        "number": 64,
                        "time": 95.48170726666663,
                        "value": 0
                    },
                    {
                        "number": 64,
                        "time": 95.57294809999996,
                        "value": 1
                    },
                    {
                        "number": 64,
                        "time": 95.9214880833333,
                        "value": 0
                    },
                    {
                        "number": 64,
                        "time": 95.99630556666663,
                        "value": 1
                    },
                    {
                        "number": 64,
                        "time": 98.10214399999997,
                        "value": 0
                    },
                    {
                        "number": 64,
                        "time": 98.21163299999996,
                        "value": 1
                    },
                    {
                        "number": 64,
                        "time": 98.99447934999996,
                        "value": 0
                    },
                    {
                        "number": 64,
                        "time": 99.12586614999996,
                        "value": 1
                    },
                    {
                        "number": 64,
                        "time": 99.44885869999996,
                        "value": 0
                    },
                    {
                        "number": 64,
                        "time": 99.52002654999995,
                        "value": 1
                    },
                    {
                        "number": 64,
                        "time": 99.86674171666662,
                        "value": 0
                    },
                    {
                        "number": 64,
                        "time": 99.96345699999996,
                        "value": 1
                    },
                    {
                        "number": 64,
                        "time": 101.60579199999997,
                        "value": 0
                    },
                    {
                        "number": 64,
                        "time": 101.60579199999997,
                        "value": 0
                    },
                    {
                        "number": 64,
                        "time": 101.68973356666663,
                        "value": 1
                    },
                    {
                        "number": 64,
                        "time": 102.48900326666663,
                        "value": 0
                    },
                    {
                        "number": 64,
                        "time": 102.58024409999996,
                        "value": 1
                    },
                    {
                        "number": 64,
                        "time": 102.9287840833333,
                        "value": 0
                    },
                    {
                        "number": 64,
                        "time": 103.00360156666663,
                        "value": 1
                    },
                    {
                        "number": 64,
                        "time": 105.10943999999996,
                        "value": 0
                    },
                    {
                        "number": 64,
                        "time": 108.61308799999996,
                        "value": 0
                    },
                    {
                        "number": 64,
                        "time": 112.11673599999996,
                        "value": 0
                    },
                    {
                        "number": 64,
                        "time": 122.96892071666663,
                        "value": 1
                    },
                    {
                        "number": 64,
                        "time": 123.50906644999996,
                        "value": 0
                    },
                    {
                        "number": 64,
                        "time": 123.60760654999996,
                        "value": 1
                    },
                    {
                        "number": 64,
                        "time": 124.39045289999996,
                        "value": 0
                    },
                    {
                        "number": 64,
                        "time": 124.82475926666662,
                        "value": 1
                    },
                    {
                        "number": 64,
                        "time": 125.27001453333328,
                        "value": 0
                    },
                    {
                        "number": 64,
                        "time": 125.34665683333328,
                        "value": 1
                    },
                    {
                        "number": 64,
                        "time": 126.13132799999995,
                        "value": 0
                    },
                    {
                        "number": 64,
                        "time": 126.46161981666663,
                        "value": 1
                    },
                    {
                        "number": 64,
                        "time": 127.04008669999996,
                        "value": 0
                    },
                    {
                        "number": 64,
                        "time": 127.1422764333333,
                        "value": 1
                    },
                    {
                        "number": 64,
                        "time": 127.91599869999996,
                        "value": 0
                    },
                    {
                        "number": 64,
                        "time": 128.2700131333333,
                        "value": 1
                    },
                    {
                        "number": 64,
                        "time": 128.78096179999997,
                        "value": 0
                    },
                    {
                        "number": 64,
                        "time": 128.86307854999998,
                        "value": 1
                    },
                    {
                        "number": 64,
                        "time": 129.634976,
                        "value": 0
                    },
                    {
                        "number": 64,
                        "time": 129.98899043333333,
                        "value": 1
                    },
                    {
                        "number": 64,
                        "time": 130.53643543333334,
                        "value": 0
                    },
                    {
                        "number": 64,
                        "time": 130.60212883333332,
                        "value": 1
                    },
                    {
                        "number": 64,
                        "time": 131.40504816666666,
                        "value": 0
                    },
                    {
                        "number": 64,
                        "time": 131.72074145,
                        "value": 1
                    },
                    {
                        "number": 64,
                        "time": 132.2846098,
                        "value": 0
                    },
                    {
                        "number": 64,
                        "time": 132.36672655,
                        "value": 1
                    },
                    {
                        "number": 64,
                        "time": 133.13862400000002,
                        "value": 0
                    },
                    {
                        "number": 64,
                        "time": 133.5127114166667,
                        "value": 1
                    },
                    {
                        "number": 64,
                        "time": 136.64227200000002,
                        "value": 0
                    },
                    {
                        "number": 64,
                        "time": 140.26088345000002,
                        "value": 1
                    },
                    {
                        "number": 64,
                        "time": 141.92329143333336,
                        "value": 0
                    },
                    {
                        "number": 64,
                        "time": 142.07292640000003,
                        "value": 1
                    },
                    {
                        "number": 64,
                        "time": 143.7389840166667,
                        "value": 0
                    },
                    {
                        "number": 64,
                        "time": 147.23350793333339,
                        "value": 1
                    },
                    {
                        "number": 64,
                        "time": 148.9305874333334,
                        "value": 0
                    },
                    {
                        "number": 64,
                        "time": 149.08022240000005,
                        "value": 1
                    },
                    {
                        "number": 64,
                        "time": 150.65686400000004,
                        "value": 0
                    },
                    {
                        "number": 64,
                        "time": 153.90686248333338,
                        "value": 1
                    },
                    {
                        "number": 64,
                        "time": 155.77729956666673,
                        "value": 0
                    },
                    {
                        "number": 64,
                        "time": 157.76817455000005,
                        "value": 1
                    },
                    {
                        "number": 64,
                        "time": 159.44153143333338,
                        "value": 0
                    },
                    {
                        "number": 64,
                        "time": 159.55831970000006,
                        "value": 1
                    },
                    {
                        "number": 64,
                        "time": 161.16780800000006,
                        "value": 0
                    },
                    {
                        "number": 64,
                        "time": 162.0856907833334,
                        "value": 1
                    },
                    {
                        "number": 64,
                        "time": 163.8320403333334,
                        "value": 0
                    },
                    {
                        "number": 64,
                        "time": 164.80284280000006,
                        "value": 1
                    },
                    {
                        "number": 64,
                        "time": 166.41415591666674,
                        "value": 0
                    },
                    {
                        "number": 64,
                        "time": 166.49079821666675,
                        "value": 1
                    },
                    {
                        "number": 64,
                        "time": 168.1751040000001,
                        "value": 0
                    },
                    {
                        "number": 64,
                        "time": 168.92692846666677,
                        "value": 1
                    },
                    {
                        "number": 64,
                        "time": 170.83203706666677,
                        "value": 0
                    },
                    {
                        "number": 64,
                        "time": 171.7444454000001,
                        "value": 1
                    },
                    {
                        "number": 64,
                        "time": 175.1933489000001,
                        "value": 0
                    },
                    {
                        "number": 64,
                        "time": 175.3247357000001,
                        "value": 1
                    },
                    {
                        "number": 64,
                        "time": 178.6422524000001,
                        "value": 0
                    },
                    {
                        "number": 64,
                        "time": 180.6185288500001,
                        "value": 1
                    },
                    {
                        "number": 64,
                        "time": 181.33933143333343,
                        "value": 0
                    },
                    {
                        "number": 64,
                        "time": 181.62400283333344,
                        "value": 1
                    },
                    {
                        "number": 64,
                        "time": 182.1896960000001,
                        "value": 0
                    },
                    {
                        "number": 64,
                        "time": 182.2553894000001,
                        "value": 1
                    },
                    {
                        "number": 64,
                        "time": 183.9579433500001,
                        "value": 0
                    },
                    {
                        "number": 64,
                        "time": 184.02728638333343,
                        "value": 1
                    },
                    {
                        "number": 64,
                        "time": 184.3794760000001,
                        "value": 1
                    },
                    {
                        "number": 64,
                        "time": 184.40867306666675,
                        "value": 0
                    },
                    {
                        "number": 64,
                        "time": 184.8320305333334,
                        "value": 0
                    },
                    {
                        "number": 64,
                        "time": 184.87400131666675,
                        "value": 1
                    },
                    {
                        "number": 64,
                        "time": 185.71889143333343,
                        "value": 0
                    },
                    {
                        "number": 64,
                        "time": 185.80283300000008,
                        "value": 1
                    },
                    {
                        "number": 64,
                        "time": 187.47071543333342,
                        "value": 0
                    },
                    {
                        "number": 64,
                        "time": 187.5875037000001,
                        "value": 1
                    },
                    {
                        "number": 64,
                        "time": 189.1969920000001,
                        "value": 0
                    },
                    {
                        "number": 64,
                        "time": 192.7006400000001,
                        "value": 0
                    },
                    {
                        "number": 64,
                        "time": 192.8320268000001,
                        "value": 1
                    },
                    {
                        "number": 64,
                        "time": 194.47071216666677,
                        "value": 0
                    },
                    {
                        "number": 64,
                        "time": 194.5674274500001,
                        "value": 1
                    },
                    {
                        "number": 64,
                        "time": 196.2042880000001,
                        "value": 0
                    },
                    {
                        "number": 64,
                        "time": 199.7079360000001,
                        "value": 0
                    },
                    {
                        "number": 64,
                        "time": 199.7736294000001,
                        "value": 1
                    },
                    {
                        "number": 64,
                        "time": 201.4871322500001,
                        "value": 0
                    },
                    {
                        "number": 64,
                        "time": 201.55100083333343,
                        "value": 1
                    },
                    {
                        "number": 64,
                        "time": 203.2225329000001,
                        "value": 0
                    },
                    {
                        "number": 64,
                        "time": 203.3539197000001,
                        "value": 1
                    },
                    {
                        "number": 64,
                        "time": 203.6495400000001,
                        "value": 0
                    },
                    {
                        "number": 64,
                        "time": 206.7152320000001,
                        "value": 1
                    },
                    {
                        "number": 64,
                        "time": 207.60574253333343,
                        "value": 0
                    },
                    {
                        "number": 64,
                        "time": 207.84114388333342,
                        "value": 1
                    },
                    {
                        "number": 64,
                        "time": 208.4834793500001,
                        "value": 0
                    },
                    {
                        "number": 64,
                        "time": 208.75902666666676,
                        "value": 1
                    },
                    {
                        "number": 64,
                        "time": 209.3685154333334,
                        "value": 0
                    },
                    {
                        "number": 64,
                        "time": 209.55282191666674,
                        "value": 1
                    },
                    {
                        "number": 64,
                        "time": 210.21888000000007,
                        "value": 0
                    },
                    {
                        "number": 64,
                        "time": 210.45063171666675,
                        "value": 1
                    },
                    {
                        "number": 64,
                        "time": 211.1276387000001,
                        "value": 0
                    },
                    {
                        "number": 64,
                        "time": 212.1130397000001,
                        "value": 1
                    },
                    {
                        "number": 64,
                        "time": 212.56376941666676,
                        "value": 0
                    },
                    {
                        "number": 64,
                        "time": 213.82289291666675,
                        "value": 1
                    },
                    {
                        "number": 64,
                        "time": 215.47435200000007,
                        "value": 0
                    },
                    {
                        "number": 64,
                        "time": 217.66413200000008,
                        "value": 1
                    },
                    {
                        "number": 64,
                        "time": 219.0035474333334,
                        "value": 0
                    },
                    {
                        "number": 64,
                        "time": 220.79551740000008,
                        "value": 1
                    },
                    {
                        "number": 64,
                        "time": 222.50902025000008,
                        "value": 0
                    },
                    {
                        "number": 64,
                        "time": 224.37945733333342,
                        "value": 1
                    },
                    {
                        "number": 64,
                        "time": 226.0108434333334,
                        "value": 0
                    },
                    {
                        "number": 64,
                        "time": 227.8009885833334,
                        "value": 1
                    },
                    {
                        "number": 64,
                        "time": 229.5144914333334,
                        "value": 0
                    },
                    {
                        "number": 64,
                        "time": 231.38675333333342,
                        "value": 1
                    },
                    {
                        "number": 64,
                        "time": 233.0181394333334,
                        "value": 0
                    },
                    {
                        "number": 64,
                        "time": 234.89040133333341,
                        "value": 1
                    },
                    {
                        "number": 64,
                        "time": 236.5217874333334,
                        "value": 0
                    },
                    {
                        "number": 64,
                        "time": 238.3940493333334,
                        "value": 1
                    },
                    {
                        "number": 64,
                        "time": 240.0254354333334,
                        "value": 0
                    },
                    {
                        "number": 64,
                        "time": 245.2754329833334,
                        "value": 1
                    },
                    {
                        "number": 64,
                        "time": 247.89769453333338,
                        "value": 0
                    },
                    {
                        "number": 64,
                        "time": 247.9798112833334,
                        "value": 1
                    },
                    {
                        "number": 64,
                        "time": 248.75900800000005,
                        "value": 0
                    },
                    {
                        "number": 64,
                        "time": 249.26083258333338,
                        "value": 1
                    },
                    {
                        "number": 64,
                        "time": 249.66229225000004,
                        "value": 0
                    },
                    {
                        "number": 64,
                        "time": 250.09477380000004,
                        "value": 1
                    },
                    {
                        "number": 64,
                        "time": 251.3940432666667,
                        "value": 0
                    },
                    {
                        "number": 64,
                        "time": 251.8046270166667,
                        "value": 1
                    },
                    {
                        "number": 64,
                        "time": 252.26265600000002,
                        "value": 0
                    },
                    {
                        "number": 64,
                        "time": 252.3794442666667,
                        "value": 1
                    },
                    {
                        "number": 64,
                        "time": 254.89951608333337,
                        "value": 0
                    },
                    {
                        "number": 64,
                        "time": 254.9743335666667,
                        "value": 1
                    },
                    {
                        "number": 64,
                        "time": 255.76630400000005,
                        "value": 0
                    },
                    {
                        "number": 64,
                        "time": 256.0692235666667,
                        "value": 1
                    },
                    {
                        "number": 64,
                        "time": 256.6732378833334,
                        "value": 0
                    },
                    {
                        "number": 64,
                        "time": 257.0965953500001,
                        "value": 1
                    },
                    {
                        "number": 64,
                        "time": 259.2699520000001,
                        "value": 0
                    },
                    {
                        "number": 64,
                        "time": 259.3538935666668,
                        "value": 1
                    },
                    {
                        "number": 64,
                        "time": 260.1531632666668,
                        "value": 0
                    },
                    {
                        "number": 64,
                        "time": 260.24440410000017,
                        "value": 1
                    },
                    {
                        "number": 64,
                        "time": 260.5929440833335,
                        "value": 0
                    },
                    {
                        "number": 64,
                        "time": 260.66776156666685,
                        "value": 1
                    },
                    {
                        "number": 64,
                        "time": 262.7736000000002,
                        "value": 0
                    },
                    {
                        "number": 64,
                        "time": 262.8830890000002,
                        "value": 1
                    },
                    {
                        "number": 64,
                        "time": 263.6659353500002,
                        "value": 0
                    },
                    {
                        "number": 64,
                        "time": 263.7973221500002,
                        "value": 1
                    },
                    {
                        "number": 64,
                        "time": 264.12031470000016,
                        "value": 0
                    },
                    {
                        "number": 64,
                        "time": 264.19148255000016,
                        "value": 1
                    },
                    {
                        "number": 64,
                        "time": 264.53819771666684,
                        "value": 0
                    },
                    {
                        "number": 64,
                        "time": 264.63491300000015,
                        "value": 1
                    },
                    {
                        "number": 64,
                        "time": 266.27724800000016,
                        "value": 0
                    },
                    {
                        "number": 64,
                        "time": 266.27724800000016,
                        "value": 0
                    },
                    {
                        "number": 64,
                        "time": 266.36118956666684,
                        "value": 1
                    },
                    {
                        "number": 64,
                        "time": 267.16045926666686,
                        "value": 0
                    },
                    {
                        "number": 64,
                        "time": 267.2517001000002,
                        "value": 1
                    },
                    {
                        "number": 64,
                        "time": 267.6002400833336,
                        "value": 0
                    },
                    {
                        "number": 64,
                        "time": 267.6750575666669,
                        "value": 1
                    },
                    {
                        "number": 64,
                        "time": 269.78089600000027,
                        "value": 0
                    },
                    {
                        "number": 64,
                        "time": 273.28454400000027,
                        "value": 0
                    },
                    {
                        "number": 64,
                        "time": 276.78819200000027,
                        "value": 0
                    },
                    {
                        "number": 64,
                        "time": 287.64037671666694,
                        "value": 1
                    },
                    {
                        "number": 64,
                        "time": 288.1805224500003,
                        "value": 0
                    },
                    {
                        "number": 64,
                        "time": 288.2790625500003,
                        "value": 1
                    },
                    {
                        "number": 64,
                        "time": 289.0619089000003,
                        "value": 0
                    },
                    {
                        "number": 64,
                        "time": 289.4962152666669,
                        "value": 1
                    },
                    {
                        "number": 64,
                        "time": 289.9414705333336,
                        "value": 0
                    },
                    {
                        "number": 64,
                        "time": 290.0181128333336,
                        "value": 1
                    },
                    {
                        "number": 64,
                        "time": 290.80278400000026,
                        "value": 0
                    },
                    {
                        "number": 64,
                        "time": 291.1330758166669,
                        "value": 1
                    },
                    {
                        "number": 64,
                        "time": 291.7115427000002,
                        "value": 0
                    },
                    {
                        "number": 64,
                        "time": 291.81373243333354,
                        "value": 1
                    },
                    {
                        "number": 64,
                        "time": 292.5874547000002,
                        "value": 0
                    },
                    {
                        "number": 64,
                        "time": 292.94146913333356,
                        "value": 1
                    },
                    {
                        "number": 64,
                        "time": 293.4524178000002,
                        "value": 0
                    },
                    {
                        "number": 64,
                        "time": 293.5345345500002,
                        "value": 1
                    },
                    {
                        "number": 64,
                        "time": 294.3064320000002,
                        "value": 0
                    },
                    {
                        "number": 64,
                        "time": 294.66044643333356,
                        "value": 1
                    },
                    {
                        "number": 64,
                        "time": 295.20789143333354,
                        "value": 0
                    },
                    {
                        "number": 64,
                        "time": 295.27358483333353,
                        "value": 1
                    },
                    {
                        "number": 64,
                        "time": 296.07650416666684,
                        "value": 0
                    },
                    {
                        "number": 64,
                        "time": 296.3921974500002,
                        "value": 1
                    },
                    {
                        "number": 64,
                        "time": 296.9560658000002,
                        "value": 0
                    },
                    {
                        "number": 64,
                        "time": 297.0381825500002,
                        "value": 1
                    },
                    {
                        "number": 64,
                        "time": 297.8100800000002,
                        "value": 0
                    },
                    {
                        "number": 64,
                        "time": 298.18416741666687,
                        "value": 1
                    },
                    {
                        "number": 64,
                        "time": 301.3137280000002,
                        "value": 0
                    },
                    {
                        "number": 64,
                        "time": 304.9323394500002,
                        "value": 1
                    },
                    {
                        "number": 64,
                        "time": 306.5947474333335,
                        "value": 0
                    },
                    {
                        "number": 64,
                        "time": 306.7443824000002,
                        "value": 1
                    },
                    {
                        "number": 64,
                        "time": 308.4104400166668,
                        "value": 0
                    },
                    {
                        "number": 64,
                        "time": 311.9049639333335,
                        "value": 1
                    },
                    {
                        "number": 64,
                        "time": 313.60204343333345,
                        "value": 0
                    },
                    {
                        "number": 64,
                        "time": 313.7516784000001,
                        "value": 1
                    },
                    {
                        "number": 64,
                        "time": 315.32832000000013,
                        "value": 0
                    },
                    {
                        "number": 64,
                        "time": 315.4323345500001,
                        "value": 1
                    },
                    {
                        "number": 64,
                        "time": 317.10569143333345,
                        "value": 0
                    },
                    {
                        "number": 64,
                        "time": 317.2224797000001,
                        "value": 1
                    },
                    {
                        "number": 64,
                        "time": 318.83196800000013,
                        "value": 0
                    },
                    {
                        "number": 64,
                        "time": 319.20788023333347,
                        "value": 1
                    },
                    {
                        "number": 64,
                        "time": 321.9067840833335,
                        "value": 0
                    },
                    {
                        "number": 64,
                        "time": 322.46700280000016,
                        "value": 1
                    },
                    {
                        "number": 64,
                        "time": 324.07831591666684,
                        "value": 0
                    },
                    {
                        "number": 64,
                        "time": 324.15495821666684,
                        "value": 1
                    },
                    {
                        "number": 64,
                        "time": 325.8392640000002,
                        "value": 0
                    },
                    {
                        "number": 64,
                        "time": 326.59108846666686,
                        "value": 1
                    },
                    {
                        "number": 64,
                        "time": 327.6075113500002,
                        "value": 0
                    },
                    {
                        "number": 64,
                        "time": 327.90130683333354,
                        "value": 1
                    },
                    {
                        "number": 64,
                        "time": 329.3429120000002,
                        "value": 0
                    },
                    {
                        "number": 64,
                        "time": 329.62758340000016,
                        "value": 1
                    },
                    {
                        "number": 64,
                        "time": 331.1093345333335,
                        "value": 0
                    },
                    {
                        "number": 64,
                        "time": 331.5071445666668,
                        "value": 1
                    },
                    {
                        "number": 64,
                        "time": 332.8465600000001,
                        "value": 0
                    },
                    {
                        "number": 64,
                        "time": 333.0399905666668,
                        "value": 1
                    },
                    {
                        "number": 64,
                        "time": 334.6257562500001,
                        "value": 0
                    },
                    {
                        "number": 64,
                        "time": 334.8830554000001,
                        "value": 1
                    },
                    {
                        "number": 64,
                        "time": 336.3502080000001,
                        "value": 0
                    },
                    {
                        "number": 64,
                        "time": 336.7115217000001,
                        "value": 1
                    },
                    {
                        "number": 64,
                        "time": 338.1348787000001,
                        "value": 0
                    },
                    {
                        "number": 64,
                        "time": 338.4377982666668,
                        "value": 1
                    },
                    {
                        "number": 64,
                        "time": 339.8611552666668,
                        "value": 0
                    },
                    {
                        "number": 64,
                        "time": 340.2918120000001,
                        "value": 1
                    },
                    {
                        "number": 64,
                        "time": 341.62940261666677,
                        "value": 0
                    },
                    {
                        "number": 64,
                        "time": 341.9414462666668,
                        "value": 1
                    },
                    {
                        "number": 64,
                        "time": 343.3575040000001,
                        "value": 0
                    },
                    {
                        "number": 64,
                        "time": 344.00166428333347,
                        "value": 1
                    },
                    {
                        "number": 64,
                        "time": 345.1348754333335,
                        "value": 0
                    },
                    {
                        "number": 64,
                        "time": 345.44509426666684,
                        "value": 1
                    },
                    {
                        "number": 64,
                        "time": 346.8611520000002,
                        "value": 0
                    },
                    {
                        "number": 64,
                        "time": 347.0673562833335,
                        "value": 1
                    },
                    {
                        "number": 64,
                        "time": 347.75713698333345,
                        "value": 0
                    },
                    {
                        "number": 64,
                        "time": 347.86662598333345,
                        "value": 1
                    },
                    {
                        "number": 64,
                        "time": 348.63852343333343,
                        "value": 0
                    },
                    {
                        "number": 64,
                        "time": 348.84472771666674,
                        "value": 1
                    },
                    {
                        "number": 64,
                        "time": 349.5144354333334,
                        "value": 0
                    },
                    {
                        "number": 64,
                        "time": 349.82465426666676,
                        "value": 1
                    },
                    {
                        "number": 64,
                        "time": 350.39034743333343,
                        "value": 0
                    },
                    {
                        "number": 64,
                        "time": 350.7516611333334,
                        "value": 1
                    },
                    {
                        "number": 64,
                        "time": 352.12939771666674,
                        "value": 0
                    },
                    {
                        "number": 64,
                        "time": 352.4779377000001,
                        "value": 1
                    },
                    {
                        "number": 64,
                        "time": 353.8684480000001,
                        "value": 0
                    },
                    {
                        "number": 64,
                        "time": 354.17866683333347,
                        "value": 1
                    },
                    {
                        "number": 64,
                        "time": 357.3720960000001,
                        "value": 0
                    },
                    {
                        "number": 64,
                        "time": 357.9140665500001,
                        "value": 1
                    },
                    {
                        "number": 64,
                        "time": 359.1385185333334,
                        "value": 0
                    },
                    {
                        "number": 64,
                        "time": 359.4596862666667,
                        "value": 1
                    },
                    {
                        "number": 64,
                        "time": 360.87574400000005,
                        "value": 0
                    },
                    {
                        "number": 64,
                        "time": 361.1859628333334,
                        "value": 1
                    },
                    {
                        "number": 64,
                        "time": 364.37939200000005,
                        "value": 0
                    },
                    {
                        "number": 64,
                        "time": 364.7151582666667,
                        "value": 1
                    },
                    {
                        "number": 64,
                        "time": 366.1549386166667,
                        "value": 0
                    },
                    {
                        "number": 64,
                        "time": 366.49252970000003,
                        "value": 1
                    },
                    {
                        "number": 64,
                        "time": 367.88304000000005,
                        "value": 0
                    },
                    {
                        "number": 64,
                        "time": 368.1932588333334,
                        "value": 1
                    },
                    {
                        "number": 64,
                        "time": 371.38668800000005,
                        "value": 0
                    },
                    {
                        "number": 64,
                        "time": 371.92865855,
                        "value": 1
                    },
                    {
                        "number": 64,
                        "time": 373.15311053333335,
                        "value": 0
                    },
                    {
                        "number": 64,
                        "time": 373.47427826666666,
                        "value": 1
                    },
                    {
                        "number": 64,
                        "time": 374.890336,
                        "value": 0
                    },
                    {
                        "number": 64,
                        "time": 375.20055483333334,
                        "value": 1
                    },
                    {
                        "number": 64,
                        "time": 378.393984,
                        "value": 0
                    },
                    {
                        "number": 64,
                        "time": 378.72975026666666,
                        "value": 1
                    },
                    {
                        "number": 64,
                        "time": 380.16953061666663,
                        "value": 0
                    },
                    {
                        "number": 64,
                        "time": 380.50712169999997,
                        "value": 1
                    },
                    {
                        "number": 64,
                        "time": 381.897632,
                        "value": 0
                    },
                    {
                        "number": 64,
                        "time": 382.23339826666665,
                        "value": 1
                    },
                    {
                        "number": 64,
                        "time": 383.67317861666663,
                        "value": 0
                    },
                    {
                        "number": 64,
                        "time": 384.01076969999997,
                        "value": 1
                    },
                    {
                        "number": 64,
                        "time": 394.93959671666664,
                        "value": 0
                    }
                ]
            },
            "id": 3,
            "name": "Pedale",
            "instrumentNumber": 0,
            "instrument": "acoustic grand piano",
            "instrumentFamily": "piano",
            "channelNumber": 0,
            "isPercussion": false
        },
        {
            "startTime": 0,
            "duration": 0,
            "length": 0,
            "notes": [],
            "controlChanges": {},
            "id": 4,
            "name": "Beethoven: Sonate Nr. 5 - 2. Satz"
        },
        {
            "startTime": 0,
            "duration": 0,
            "length": 0,
            "notes": [],
            "controlChanges": {},
            "id": 5,
            "name": "Copyright  2008 by Bernd Krueger"
        },
        {
            "startTime": 0,
            "duration": 0,
            "length": 0,
            "notes": [],
            "controlChanges": {},
            "id": 6,
            "name": "http://www.piano-midi.de/"
        },
        {
            "startTime": 0,
            "duration": 0,
            "length": 0,
            "notes": [],
            "controlChanges": {},
            "id": 7,
            "name": "Edition: 20012-05-06"
        },
        {
            "startTime": 0,
            "duration": 0,
            "length": 0,
            "notes": [],
            "controlChanges": {},
            "id": 8,
            "name": "Spur 8"
        },
        {
            "startTime": 0,
            "duration": 0,
            "length": 0,
            "notes": [],
            "controlChanges": {},
            "id": 9,
            "name": "Spur 9"
        },
        {
            "startTime": 0,
            "duration": 0,
            "length": 0,
            "notes": [],
            "controlChanges": {},
            "id": 10,
            "name": "Spur 10"
        },
        {
            "startTime": 0,
            "duration": 0,
            "length": 0,
            "notes": [],
            "controlChanges": {},
            "id": 11,
            "name": "Spur 11"
        },
        {
            "startTime": 0,
            "duration": 0,
            "length": 0,
            "notes": [],
            "controlChanges": {},
            "id": 12,
            "name": "Spur 12"
        },
        {
            "startTime": 0,
            "duration": 0,
            "length": 0,
            "notes": [],
            "controlChanges": {},
            "id": 13,
            "name": "Spur 13"
        },
        {
            "startTime": 0,
            "duration": 0,
            "length": 0,
            "notes": [],
            "controlChanges": {},
            "id": 14,
            "name": "Spur 14"
        },
        {
            "startTime": 0,
            "duration": 0,
            "length": 0,
            "notes": [],
            "controlChanges": {},
            "id": 15,
            "name": "Spur 15"
        },
        {
            "startTime": 0,
            "duration": 0,
            "length": 0,
            "notes": [],
            "controlChanges": {},
            "id": 16,
            "name": "Spur 16"
        }
    ]
}